ply
format ascii 1.0
comment generated by blendit.inference.finetune_visualize
element vertex 821
property float x
property float y
property float z
property uchar red
property uchar green
property uchar blue
element face 781
property list uchar int vertex_indices
end_header
-76.6212991 225.661866 46.4 218 222 230
-76.6212991 275.468404 46.4 218 222 230
-76.6212991 275.468404 39.4 218 222 230
-76.6212991 225.661866 39.4 218 222 230
103.378701 156.468404 46.4 218 222 230
104.491306 156.593765 46.4 218 222 230
105.54812 156.96356 46.4 218 222 230
106.49615 157.559247 46.4 218 222 230
107.287858 158.350955 46.4 218 222 230
107.883545 159.298986 46.4 218 222 230
108.25334 160.3558 46.4 218 222 230
108.378701 161.468404 46.4 218 222 230
108.378701 218.80885 46.4 218 222 230
60.9171042 218.80885 46.4 218 222 230
60.9171042 238.80885 46.4 218 222 230
108.378701 238.80885 46.4 218 222 230
108.378701 275.468404 46.4 218 222 230
108.25334 276.581009 46.4 218 222 230
107.883545 277.637823 46.4 218 222 230
107.287858 278.585853 46.4 218 222 230
106.49615 279.377562 46.4 218 222 230
105.54812 279.973249 46.4 218 222 230
104.491306 280.343044 46.4 218 222 230
103.378701 280.468404 46.4 218 222 230
-71.6212991 280.468404 46.4 218 222 230
-72.7339038 280.343044 46.4 218 222 230
-73.7907178 279.973249 46.4 218 222 230
-74.7387481 279.377562 46.4 218 222 230
-75.5304565 278.585853 46.4 218 222 230
-76.1261434 277.637823 46.4 218 222 230
-76.4959386 276.581009 46.4 218 222 230
-76.6212991 275.468404 46.4 218 222 230
-76.6212991 225.661866 46.4 218 222 230
-34.0883345 225.661866 46.4 218 222 230
-10.0883345 201.661866 46.4 218 222 230
-10.2392415 204.349013 46.4 218 222 230
-10.6900646 207.002368 46.4 218 222 230
-11.4351346 209.588563 46.4 218 222 230
-12.4650817 212.075075 46.4 218 222 230
-13.7669537 214.430636 46.4 218 222 230
-15.3243789 216.625621 46.4 218 222 230
-17.1177718 218.632428 46.4 218 222 230
-19.1245793 220.425821 46.4 218 222 230
-21.3195647 221.983246 46.4 218 222 230
-23.6751248 223.285119 46.4 218 222 230
-26.161637 224.315066 46.4 218 222 230
-28.7478321 225.060136 46.4 218 222 230
-31.4011871 225.510959 46.4 218 222 230
-10.0883345 156.468404 46.4 218 222 230
4.60242446 229.650273 57.0726771 255 79 163
4.6201646 229.805771 57.0672959 255 79 163
4.67202334 229.953486 57.0635515 255 79 163
4.7554053 230.086027 57.0616313 255 79 163
4.86613742 230.196759 57.0616313 255 79 163
4.99867786 230.280141 57.0635515 255 79 163
5.14639331 230.331999 57.0672959 255 79 163
5.30189102 230.34974 57.0726771 255 79 163
5.30189102 230.327129 56.9214886 255 79 163
5.30189102 230.272237 56.7788137 255 79 163
5.30189102 230.187683 56.6514569 255 79 163
5.30189102 230.077498 56.5454921 255 79 163
5.30189102 229.946938 56.4659731 255 79 163
5.30189102 229.802229 56.4166923 255 79 163
5.30189102 229.650273 56.4 255 79 163
5.30189102 229.650273 56.4 255 79 163
5.14993514 229.650273 56.4166923 255 79 163
5.00522639 229.650273 56.4659731 255 79 163
4.87466626 229.650273 56.5454921 255 79 163
4.76448144 229.650273 56.6514569 255 79 163
4.67992693 229.650273 56.7788137 255 79 163
4.6250353 229.650273 56.9214886 255 79 163
5.26886662 229.858781 56.4325917 255 79 163
5.20605049 229.838371 56.4325917 255 79 163
5.15261589 229.799548 56.4325917 255 79 163
5.17749445 230.033126 56.5273318 255 79 163
5.11379338 229.746114 56.4325917 255 79 163
5.06527469 229.975947 56.5273318 255 79 163
5.21483227 230.19994 56.6753982 255 79 163
5.09338319 229.683297 56.4325917 255 79 163
4.97621658 229.886889 56.5273318 255 79 163
5.0492367 230.146135 56.6753982 255 79 163
4.91903776 229.77467 56.5273318 255 79 163
4.90837269 230.043791 56.6753982 255 79 163
5.09835399 230.276696 56.8630032 255 79 163
4.806029 229.902927 56.6753982 255 79 163
4.9147406 230.18314 56.8630032 255 79 163
4.75222374 229.737332 56.6753982 255 79 163
4.76902418 230.037423 56.8630032 255 79 163
4.67546848 229.85381 56.8630032 255 79 163
60.9171042 229.650273 56.4 255 212 0
5.30189102 229.650273 56.4 255 212 0
5.30189102 230.34974 57.0726771 255 212 0
5.30189102 230.327129 56.9214886 255 212 0
5.30189102 230.272237 56.7788137 255 212 0
5.30189102 230.187683 56.6514569 255 212 0
5.30189102 230.077498 56.5454921 255 212 0
5.30189102 229.946938 56.4659731 255 212 0
5.30189102 229.802229 56.4166923 255 212 0
60.9171042 230.34974 57.0726771 255 212 0
60.9171042 229.802229 56.4166923 255 212 0
60.9171042 229.946938 56.4659731 255 212 0
60.9171042 230.077498 56.5454921 255 212 0
60.9171042 230.187683 56.6514569 255 212 0
60.9171042 230.272237 56.7788137 255 212 0
60.9171042 230.327129 56.9214886 255 212 0
5.30189102 229.650273 56.4 255 212 0
5.30189102 154.496653 56.4 255 212 0
4.60242446 154.496653 57.0726771 255 212 0
4.6250353 154.496653 56.9214886 255 212 0
4.67992693 154.496653 56.7788137 255 212 0
4.76448144 154.496653 56.6514569 255 212 0
4.87466626 154.496653 56.5454921 255 212 0
5.00522639 154.496653 56.4659731 255 212 0
5.14993514 154.496653 56.4166923 255 212 0
4.60242446 229.650273 57.0726771 255 212 0
5.14993514 229.650273 56.4166923 255 212 0
5.00522639 229.650273 56.4659731 255 212 0
4.87466626 229.650273 56.5454921 255 212 0
4.76448144 229.650273 56.6514569 255 212 0
4.67992693 229.650273 56.7788137 255 212 0
4.6250353 229.650273 56.9214886 255 212 0
4.43338841 154.327617 61.4 255 212 0
4.60242446 154.496653 57.0726771 255 212 0
5.30189102 153.797187 57.0726771 255 212 0
5.14639331 153.814927 57.0672959 255 212 0
4.99867786 153.866786 57.0635515 255 212 0
4.86613742 153.950167 57.0616313 255 212 0
4.7554053 154.0609 57.0616313 255 212 0
4.67202334 154.19344 57.0635515 255 212 0
4.6201646 154.341155 57.0672959 255 212 0
5.13285496 153.628151 61.4 255 212 0
4.45270686 154.164266 61.4 255 212 0
4.50959673 154.009983 61.4 255 212 0
4.60092035 153.873278 61.4 255 212 0
4.72164089 153.76169 61.4 255 212 0
4.8651002 153.681373 61.4 255 212 0
4.99633907 153.641585 61.4 255 212 0
4.60242446 154.496653 57.0726771 255 79 163
4.6250353 154.496653 56.9214886 255 79 163
4.67992693 154.496653 56.7788137 255 79 163
4.76448144 154.496653 56.6514569 255 79 163
4.87466626 154.496653 56.5454921 255 79 163
5.00522639 154.496653 56.4659731 255 79 163
5.14993514 154.496653 56.4166923 255 79 163
5.30189102 154.496653 56.4 255 79 163
5.30189102 154.496653 56.4 255 79 163
5.30189102 154.344697 56.4166923 255 79 163
5.30189102 154.199989 56.4659731 255 79 163
5.30189102 154.069428 56.5454921 255 79 163
5.30189102 153.959244 56.6514569 255 79 163
5.30189102 153.874689 56.7788137 255 79 163
5.30189102 153.819797 56.9214886 255 79 163
5.30189102 153.797187 57.0726771 255 79 163
5.14639331 153.814927 57.0672959 255 79 163
4.99867786 153.866786 57.0635515 255 79 163
4.86613742 153.950167 57.0616313 255 79 163
4.7554053 154.0609 57.0616313 255 79 163
4.67202334 154.19344 57.0635515 255 79 163
4.6201646 154.341155 57.0672959 255 79 163
5.09338319 154.463629 56.4325917 255 79 163
5.11379338 154.400813 56.4325917 255 79 163
5.15261589 154.347378 56.4325917 255 79 163
4.91903776 154.372257 56.5273318 255 79 163
5.20605049 154.308556 56.4325917 255 79 163
4.97621658 154.260037 56.5273318 255 79 163
4.75222374 154.409594 56.6753982 255 79 163
5.26886662 154.288145 56.4325917 255 79 163
5.06527469 154.170979 56.5273318 255 79 163
4.806029 154.243999 56.6753982 255 79 163
5.17749445 154.1138 56.5273318 255 79 163
4.90837269 154.103135 56.6753982 255 79 163
4.67546848 154.293116 56.8630032 255 79 163
5.0492367 154.000791 56.6753982 255 79 163
4.76902418 154.109503 56.8630032 255 79 163
5.21483227 153.946986 56.6753982 255 79 163
4.9147406 153.963786 56.8630032 255 79 163
5.09835399 153.870231 56.8630032 255 79 163
81.1549774 154.496653 57.0726771 255 212 0
81.1549774 218.80885 57.0726771 255 212 0
80.4555108 154.496653 56.4 255 212 0
80.6074667 154.496653 56.4166923 255 212 0
80.7521754 154.496653 56.4659731 255 212 0
80.8827356 154.496653 56.5454921 255 212 0
80.9929204 154.496653 56.6514569 255 212 0
81.0774749 154.496653 56.7788137 255 212 0
81.1323665 154.496653 56.9214886 255 212 0
80.4555108 218.80885 56.4 255 212 0
81.1323665 218.80885 56.9214886 255 212 0
81.0774749 218.80885 56.7788137 255 212 0
80.9929204 218.80885 56.6514569 255 212 0
80.8827356 218.80885 56.5454921 255 212 0
80.7521754 218.80885 56.4659731 255 212 0
80.6074667 218.80885 56.4166923 255 212 0
80.4555108 154.496653 56.4 255 212 0
5.30189102 154.496653 56.4 255 212 0
80.4555108 153.797187 57.0726771 255 212 0
80.4555108 153.819797 56.9214886 255 212 0
80.4555108 153.874689 56.7788137 255 212 0
80.4555108 153.959244 56.6514569 255 212 0
80.4555108 154.069428 56.5454921 255 212 0
80.4555108 154.199989 56.4659731 255 212 0
80.4555108 154.344697 56.4166923 255 212 0
5.30189102 153.797187 57.0726771 255 212 0
5.30189102 154.344697 56.4166923 255 212 0
5.30189102 154.199989 56.4659731 255 212 0
5.30189102 154.069428 56.5454921 255 212 0
5.30189102 153.959244 56.6514569 255 212 0
5.30189102 153.874689 56.7788137 255 212 0
5.30189102 153.819797 56.9214886 255 212 0
80.4555108 154.496653 56.4 255 79 163
80.4555108 154.496653 56.4 255 79 163
80.6074667 154.496653 56.4166923 255 79 163
80.7521754 154.496653 56.4659731 255 79 163
80.8827356 154.496653 56.5454921 255 79 163
80.9929204 154.496653 56.6514569 255 79 163
81.0774749 154.496653 56.7788137 255 79 163
81.1323665 154.496653 56.9214886 255 79 163
81.1549774 154.496653 57.0726771 255 79 163
81.1372372 154.341155 57.0672959 255 79 163
81.0853785 154.19344 57.0635515 255 79 163
81.0019965 154.0609 57.0616313 255 79 163
80.8912644 153.950167 57.0616313 255 79 163
80.758724 153.866786 57.0635515 255 79 163
80.6110085 153.814927 57.0672959 255 79 163
80.4555108 153.797187 57.0726771 255 79 163
80.4555108 153.819797 56.9214886 255 79 163
80.4555108 153.874689 56.7788137 255 79 163
80.4555108 153.959244 56.6514569 255 79 163
80.4555108 154.069428 56.5454921 255 79 163
80.4555108 154.199989 56.4659731 255 79 163
80.4555108 154.344697 56.4166923 255 79 163
80.4885352 154.288145 56.4325917 255 79 163
80.5513513 154.308556 56.4325917 255 79 163
80.6047859 154.347378 56.4325917 255 79 163
80.5799074 154.1138 56.5273318 255 79 163
80.6436084 154.400813 56.4325917 255 79 163
80.6921271 154.170979 56.5273318 255 79 163
80.5425696 153.946986 56.6753982 255 79 163
80.6640186 154.463629 56.4325917 255 79 163
80.7811852 154.260037 56.5273318 255 79 163
80.7081651 154.000791 56.6753982 255 79 163
80.8383641 154.372257 56.5273318 255 79 163
80.8490291 154.103135 56.6753982 255 79 163
80.6590478 153.870231 56.8630032 255 79 163
80.9513728 154.243999 56.6753982 255 79 163
80.8426612 153.963786 56.8630032 255 79 163
81.0051781 154.409594 56.6753982 255 79 163
80.9883776 154.109503 56.8630032 255 79 163
81.0819333 154.293116 56.8630032 255 79 163
80.6245469 153.628151 61.4 255 212 0
80.4555108 153.797187 57.0726771 255 212 0
81.1549774 154.496653 57.0726771 255 212 0
81.1372372 154.341155 57.0672959 255 212 0
81.0853785 154.19344 57.0635515 255 212 0
81.0019965 154.0609 57.0616313 255 212 0
80.8912644 153.950167 57.0616313 255 212 0
80.758724 153.866786 57.0635515 255 212 0
80.6110085 153.814927 57.0672959 255 212 0
81.3240134 154.327617 61.4 255 212 0
80.7878979 153.647469 61.4 255 212 0
80.9421808 153.704359 61.4 255 212 0
81.0788861 153.795683 61.4 255 212 0
81.1904742 153.916403 61.4 255 212 0
81.2707905 154.059862 61.4 255 212 0
81.3105789 154.191101 61.4 255 212 0
80.4555108 218.80885 56.4 218 222 230
60.9171042 218.80885 56.4 218 222 230
60.9171042 229.650273 56.4 218 222 230
5.30189102 229.650273 56.4 218 222 230
5.30189102 154.496653 56.4 218 222 230
80.4555108 154.496653 56.4 218 222 230
81.3240134 218.80885 61.4 218 222 230
81.1549774 218.80885 57.0726771 218 222 230
81.1549774 154.496653 57.0726771 218 222 230
81.3240134 154.327617 61.4 218 222 230
5.30189102 230.34974 57.0726771 255 212 0
5.13285496 230.518776 61.4 255 212 0
4.60242446 229.650273 57.0726771 255 212 0
4.6201646 229.805771 57.0672959 255 212 0
4.67202334 229.953486 57.0635515 255 212 0
4.7554053 230.086027 57.0616313 255 212 0
4.86613742 230.196759 57.0616313 255 212 0
4.99867786 230.280141 57.0635515 255 212 0
5.14639331 230.331999 57.0672959 255 212 0
4.43338841 229.819309 61.4 255 212 0
4.96950388 230.499457 61.4 255 212 0
4.81522105 230.442567 61.4 255 212 0
4.67851571 230.351244 61.4 255 212 0
4.56692764 230.230523 61.4 255 212 0
4.48661131 230.087064 61.4 255 212 0
4.44682296 229.955825 61.4 255 212 0
80.6245469 153.628151 61.4 218 222 230
5.13285496 153.628151 61.4 218 222 230
80.4555108 153.797187 57.0726771 218 222 230
5.30189102 153.797187 57.0726771 218 222 230
4.60242446 229.650273 57.0726771 218 222 230
4.43338841 229.819309 61.4 218 222 230
4.60242446 154.496653 57.0726771 218 222 230
4.43338841 154.327617 61.4 218 222 230
-67.6212991 245.46932 61.4 218 222 230
-67.6212991 246.612379 59.9597074 218 222 230
-67.6212991 247.974792 58.7248555 218 222 230
-67.6212991 249.520162 57.7284326 218 222 230
-67.6212991 251.207206 56.9970573 218 222 230
-67.6212991 252.990856 56.5502679 218 222 230
-67.6212991 254.823463 56.4 218 222 230
99.3787009 254.823463 56.4 218 222 230
99.3787009 245.46932 61.4 218 222 230
99.3787009 246.612379 59.9597074 218 222 230
99.3787009 247.974792 58.7248555 218 222 230
99.3787009 249.520162 57.7284326 218 222 230
99.3787009 251.207206 56.9970573 218 222 230
99.3787009 252.990856 56.5502679 218 222 230
99.3787009 295.323463 56.4 218 222 230
99.3787009 297.15607 56.5502679 218 222 230
99.3787009 298.93972 56.9970573 218 222 230
99.3787009 300.626764 57.7284326 218 222 230
99.3787009 302.172134 58.7248555 218 222 230
99.3787009 303.534547 59.9597074 218 222 230
99.3787009 304.677607 61.4 218 222 230
-67.6212991 295.323463 56.4 218 222 230
-67.6212991 297.15607 56.5502679 218 222 230
-67.6212991 298.93972 56.9970573 218 222 230
-67.6212991 300.626764 57.7284326 218 222 230
-67.6212991 302.172134 58.7248555 218 222 230
-67.6212991 303.534547 59.9597074 218 222 230
-67.6212991 304.677607 61.4 218 222 230
99.3787009 245.46932 61.4 218 222 230
99.3787009 246.612379 59.9597074 218 222 230
99.3787009 247.974792 58.7248555 218 222 230
99.3787009 249.520162 57.7284326 218 222 230
99.3787009 251.207206 56.9970573 218 222 230
99.3787009 252.990856 56.5502679 218 222 230
99.3787009 254.823463 56.4 218 222 230
99.3787009 295.323463 56.4 218 222 230
99.3787009 297.15607 56.5502679 218 222 230
99.3787009 298.93972 56.9970573 218 222 230
99.3787009 300.626764 57.7284326 218 222 230
99.3787009 302.172134 58.7248555 218 222 230
99.3787009 303.534547 59.9597074 218 222 230
99.3787009 304.677607 61.4 218 222 230
-67.6212991 245.46932 61.4 218 222 230
-67.6212991 246.612379 59.9597074 218 222 230
-67.6212991 247.974792 58.7248555 218 222 230
-67.6212991 249.520162 57.7284326 218 222 230
-67.6212991 251.207206 56.9970573 218 222 230
-67.6212991 252.990856 56.5502679 218 222 230
-67.6212991 254.823463 56.4 218 222 230
-67.6212991 295.323463 56.4 218 222 230
-67.6212991 297.15607 56.5502679 218 222 230
-67.6212991 298.93972 56.9970573 218 222 230
-67.6212991 300.626764 57.7284326 218 222 230
-67.6212991 302.172134 58.7248555 218 222 230
-67.6212991 303.534547 59.9597074 218 222 230
-67.6212991 304.677607 61.4 218 222 230
-67.6212991 295.323463 56.4 218 222 230
-67.6212991 254.823463 56.4 218 222 230
99.3787009 254.823463 56.4 218 222 230
99.3787009 295.323463 56.4 218 222 230
103.378701 156.468404 39.4 218 222 230
103.378701 156.468404 46.4 218 222 230
-10.0883345 156.468404 46.4 218 222 230
-10.0883345 156.468404 39.4 218 222 230
-71.6212991 280.468404 39.4 218 222 230
103.378701 280.468404 39.4 218 222 230
103.378701 280.468404 46.4 218 222 230
-71.6212991 280.468404 46.4 218 222 230
108.378701 238.80885 46.4 218 222 230
108.378701 238.80885 39.4 218 222 230
108.378701 275.468404 46.4 218 222 230
108.378701 275.468404 39.4 218 222 230
108.378701 161.468404 46.4 218 222 230
108.378701 218.80885 46.4 218 222 230
108.378701 218.80885 39.4 218 222 230
108.378701 161.468404 39.4 218 222 230
108.378701 275.468404 39.4 255 212 0
108.25334 276.581009 39.4 255 212 0
107.883545 277.637823 39.4 255 212 0
107.287858 278.585853 39.4 255 212 0
106.49615 279.377562 39.4 255 212 0
105.54812 279.973249 39.4 255 212 0
104.491306 280.343044 39.4 255 212 0
103.378701 280.468404 39.4 255 212 0
103.378701 280.468404 46.4 255 212 0
108.378701 275.468404 46.4 255 212 0
108.25334 276.581009 46.4 255 212 0
107.883545 277.637823 46.4 255 212 0
107.287858 278.585853 46.4 255 212 0
106.49615 279.377562 46.4 255 212 0
105.54812 279.973249 46.4 255 212 0
104.491306 280.343044 46.4 255 212 0
-71.6212991 280.468404 39.4 255 212 0
-72.7339038 280.343044 39.4 255 212 0
-73.7907178 279.973249 39.4 255 212 0
-74.7387481 279.377562 39.4 255 212 0
-75.5304565 278.585853 39.4 255 212 0
-76.1261434 277.637823 39.4 255 212 0
-76.4959386 276.581009 39.4 255 212 0
-76.6212991 275.468404 39.4 255 212 0
-76.6212991 275.468404 46.4 255 212 0
-71.6212991 280.468404 46.4 255 212 0
-72.7339038 280.343044 46.4 255 212 0
-73.7907178 279.973249 46.4 255 212 0
-74.7387481 279.377562 46.4 255 212 0
-75.5304565 278.585853 46.4 255 212 0
-76.1261434 277.637823 46.4 255 212 0
-76.4959386 276.581009 46.4 255 212 0
103.378701 156.468404 39.4 255 212 0
104.491306 156.593765 39.4 255 212 0
105.54812 156.96356 39.4 255 212 0
106.49615 157.559247 39.4 255 212 0
107.287858 158.350955 39.4 255 212 0
107.883545 159.298986 39.4 255 212 0
108.25334 160.3558 39.4 255 212 0
108.378701 161.468404 39.4 255 212 0
108.378701 161.468404 46.4 255 212 0
103.378701 156.468404 46.4 255 212 0
104.491306 156.593765 46.4 255 212 0
105.54812 156.96356 46.4 255 212 0
106.49615 157.559247 46.4 255 212 0
107.287858 158.350955 46.4 255 212 0
107.883545 159.298986 46.4 255 212 0
108.25334 160.3558 46.4 255 212 0
-10.0883345 149.796332 61.4 218 222 230
-10.0883345 201.661866 61.4 218 222 230
-9.93790199 148.461206 61.4 218 222 230
-9.49414772 147.193029 61.4 218 222 230
-8.77932341 146.055393 61.4 218 222 230
-7.82927333 145.105343 61.4 218 222 230
-6.69163695 144.390518 61.4 218 222 230
-5.42346012 143.946764 61.4 218 222 230
-4.08833452 143.796332 61.4 218 222 230
100.917104 143.796332 61.4 218 222 230
103.005523 143.933214 61.4 218 222 230
105.058209 144.341518 61.4 218 222 230
107.040039 145.014259 61.4 218 222 230
108.917104 145.939925 61.4 218 222 230
110.657287 147.102678 61.4 218 222 230
112.230813 148.482623 61.4 218 222 230
113.610758 150.056149 61.4 218 222 230
114.773511 151.796332 61.4 218 222 230
115.699177 153.673397 61.4 218 222 230
116.371917 155.655227 61.4 218 222 230
116.780222 157.707912 61.4 218 222 230
116.917104 159.796332 61.4 218 222 230
116.917104 218.80885 61.4 218 222 230
81.3240134 218.80885 61.4 218 222 230
81.3240134 154.327617 61.4 218 222 230
80.6245469 153.628151 61.4 218 222 230
80.7878979 153.647469 61.4 218 222 230
80.9421808 153.704359 61.4 218 222 230
81.0788861 153.795683 61.4 218 222 230
81.1904742 153.916403 61.4 218 222 230
81.2707905 154.059862 61.4 218 222 230
81.3105789 154.191101 61.4 218 222 230
5.13285496 153.628151 61.4 218 222 230
4.43338841 154.327617 61.4 218 222 230
4.45270686 154.164266 61.4 218 222 230
4.50959673 154.009983 61.4 218 222 230
4.60092035 153.873278 61.4 218 222 230
4.72164089 153.76169 61.4 218 222 230
4.8651002 153.681373 61.4 218 222 230
4.99633907 153.641585 61.4 218 222 230
4.43338841 229.819309 61.4 218 222 230
5.13285496 230.518776 61.4 218 222 230
4.96950388 230.499457 61.4 218 222 230
4.81522105 230.442567 61.4 218 222 230
4.67851571 230.351244 61.4 218 222 230
4.56692764 230.230523 61.4 218 222 230
4.48661131 230.087064 61.4 218 222 230
4.44682296 229.955825 61.4 218 222 230
60.9171042 230.518776 61.4 218 222 230
60.9171042 238.80885 61.4 218 222 230
116.917104 238.80885 61.4 218 222 230
116.917104 297.821369 61.4 218 222 230
116.780222 299.909788 61.4 218 222 230
116.371917 301.962473 61.4 218 222 230
115.699177 303.944303 61.4 218 222 230
114.773511 305.821369 61.4 218 222 230
113.610758 307.561551 61.4 218 222 230
112.230813 309.135077 61.4 218 222 230
110.657287 310.515022 61.4 218 222 230
108.917104 311.677775 61.4 218 222 230
107.040039 312.603441 61.4 218 222 230
105.058209 313.276182 61.4 218 222 230
103.005523 313.684486 61.4 218 222 230
100.917104 313.821369 61.4 218 222 230
-68.3062892 313.821369 61.4 218 222 230
-70.3947082 313.684486 61.4 218 222 230
-72.4473939 313.276182 61.4 218 222 230
-74.4292241 312.603441 61.4 218 222 230
-76.3062892 311.677775 61.4 218 222 230
-78.046472 310.515022 61.4 218 222 230
-79.6199977 309.135077 61.4 218 222 230
-80.9999426 307.561551 61.4 218 222 230
-82.1626956 305.821369 61.4 218 222 230
-83.0883617 303.944303 61.4 218 222 230
-83.7611024 301.962473 61.4 218 222 230
-84.1694069 299.909788 61.4 218 222 230
-84.3062892 297.821369 61.4 218 222 230
-84.3062892 231.661866 61.4 218 222 230
-84.1558566 230.32674 61.4 218 222 230
-83.7121024 229.058563 61.4 218 222 230
-82.9972781 227.920927 61.4 218 222 230
-82.047228 226.970877 61.4 218 222 230
-80.9095916 226.256053 61.4 218 222 230
-79.6414148 225.812298 61.4 218 222 230
-78.3062892 225.661866 61.4 218 222 230
-34.0883345 225.661866 61.4 218 222 230
-10.2392415 204.349013 61.4 218 222 230
-10.6900646 207.002368 61.4 218 222 230
-11.4351346 209.588563 61.4 218 222 230
-12.4650817 212.075075 61.4 218 222 230
-13.7669537 214.430636 61.4 218 222 230
-15.3243789 216.625621 61.4 218 222 230
-17.1177718 218.632428 61.4 218 222 230
-19.1245793 220.425821 61.4 218 222 230
-21.3195647 221.983246 61.4 218 222 230
-23.6751248 223.285119 61.4 218 222 230
-26.161637 224.315066 61.4 218 222 230
-28.7478321 225.060136 61.4 218 222 230
-31.4011871 225.510959 61.4 218 222 230
-67.6212991 304.677607 61.4 218 222 230
99.3787009 304.677607 61.4 218 222 230
99.3787009 245.46932 61.4 218 222 230
-67.6212991 245.46932 61.4 218 222 230
100.917104 143.796332 39.4 218 222 230
103.005523 143.933214 39.4 218 222 230
105.058209 144.341518 39.4 218 222 230
107.040039 145.014259 39.4 218 222 230
108.917104 145.939925 39.4 218 222 230
110.657287 147.102678 39.4 218 222 230
112.230813 148.482623 39.4 218 222 230
113.610758 150.056149 39.4 218 222 230
114.773511 151.796332 39.4 218 222 230
115.699177 153.673397 39.4 218 222 230
116.371917 155.655227 39.4 218 222 230
116.780222 157.707912 39.4 218 222 230
116.917104 159.796332 39.4 218 222 230
116.917104 218.80885 39.4 218 222 230
108.378701 218.80885 39.4 218 222 230
108.378701 161.468404 39.4 218 222 230
103.378701 156.468404 39.4 218 222 230
104.491306 156.593765 39.4 218 222 230
105.54812 156.96356 39.4 218 222 230
106.49615 157.559247 39.4 218 222 230
107.287858 158.350955 39.4 218 222 230
107.883545 159.298986 39.4 218 222 230
108.25334 160.3558 39.4 218 222 230
-10.0883345 156.468404 39.4 218 222 230
-10.0883345 149.796332 39.4 218 222 230
-9.93790199 148.461206 39.4 218 222 230
-9.49414772 147.193029 39.4 218 222 230
-8.77932341 146.055393 39.4 218 222 230
-7.82927333 145.105343 39.4 218 222 230
-6.69163695 144.390518 39.4 218 222 230
-5.42346012 143.946764 39.4 218 222 230
-4.08833452 143.796332 39.4 218 222 230
-76.6212991 275.468404 39.4 218 222 230
-76.6212991 225.661866 39.4 218 222 230
-71.6212991 280.468404 39.4 218 222 230
-72.7339038 280.343044 39.4 218 222 230
-73.7907178 279.973249 39.4 218 222 230
-74.7387481 279.377562 39.4 218 222 230
-75.5304565 278.585853 39.4 218 222 230
-76.1261434 277.637823 39.4 218 222 230
-76.4959386 276.581009 39.4 218 222 230
103.378701 280.468404 39.4 218 222 230
108.378701 275.468404 39.4 218 222 230
108.25334 276.581009 39.4 218 222 230
107.883545 277.637823 39.4 218 222 230
107.287858 278.585853 39.4 218 222 230
106.49615 279.377562 39.4 218 222 230
105.54812 279.973249 39.4 218 222 230
104.491306 280.343044 39.4 218 222 230
108.378701 238.80885 39.4 218 222 230
116.917104 238.80885 39.4 218 222 230
116.917104 297.821369 39.4 218 222 230
116.780222 299.909788 39.4 218 222 230
116.371917 301.962473 39.4 218 222 230
115.699177 303.944303 39.4 218 222 230
114.773511 305.821369 39.4 218 222 230
113.610758 307.561551 39.4 218 222 230
112.230813 309.135077 39.4 218 222 230
110.657287 310.515022 39.4 218 222 230
108.917104 311.677775 39.4 218 222 230
107.040039 312.603441 39.4 218 222 230
105.058209 313.276182 39.4 218 222 230
103.005523 313.684486 39.4 218 222 230
100.917104 313.821369 39.4 218 222 230
-68.3062892 313.821369 39.4 218 222 230
-70.3947082 313.684486 39.4 218 222 230
-72.4473939 313.276182 39.4 218 222 230
-74.4292241 312.603441 39.4 218 222 230
-76.3062892 311.677775 39.4 218 222 230
-78.046472 310.515022 39.4 218 222 230
-79.6199977 309.135077 39.4 218 222 230
-80.9999426 307.561551 39.4 218 222 230
-82.1626956 305.821369 39.4 218 222 230
-83.0883617 303.944303 39.4 218 222 230
-83.7611024 301.962473 39.4 218 222 230
-84.1694069 299.909788 39.4 218 222 230
-84.3062892 297.821369 39.4 218 222 230
-84.3062892 231.661866 39.4 218 222 230
-84.1558566 230.32674 39.4 218 222 230
-83.7121024 229.058563 39.4 218 222 230
-82.9972781 227.920927 39.4 218 222 230
-82.047228 226.970877 39.4 218 222 230
-80.9095916 226.256053 39.4 218 222 230
-79.6414148 225.812298 39.4 218 222 230
-78.3062892 225.661866 39.4 218 222 230
100.917104 143.796332 61.4 255 212 0
103.005523 143.933214 61.4 255 212 0
105.058209 144.341518 61.4 255 212 0
107.040039 145.014259 61.4 255 212 0
108.917104 145.939925 61.4 255 212 0
110.657287 147.102678 61.4 255 212 0
112.230813 148.482623 61.4 255 212 0
113.610758 150.056149 61.4 255 212 0
114.773511 151.796332 61.4 255 212 0
115.699177 153.673397 61.4 255 212 0
116.371917 155.655227 61.4 255 212 0
116.780222 157.707912 61.4 255 212 0
116.917104 159.796332 61.4 255 212 0
100.917104 143.796332 39.4 255 212 0
103.005523 143.933214 39.4 255 212 0
105.058209 144.341518 39.4 255 212 0
107.040039 145.014259 39.4 255 212 0
108.917104 145.939925 39.4 255 212 0
110.657287 147.102678 39.4 255 212 0
112.230813 148.482623 39.4 255 212 0
113.610758 150.056149 39.4 255 212 0
114.773511 151.796332 39.4 255 212 0
115.699177 153.673397 39.4 255 212 0
116.371917 155.655227 39.4 255 212 0
116.780222 157.707912 39.4 255 212 0
116.917104 159.796332 39.4 255 212 0
116.917104 297.821369 61.4 255 212 0
116.780222 299.909788 61.4 255 212 0
116.371917 301.962473 61.4 255 212 0
115.699177 303.944303 61.4 255 212 0
114.773511 305.821369 61.4 255 212 0
113.610758 307.561551 61.4 255 212 0
112.230813 309.135077 61.4 255 212 0
110.657287 310.515022 61.4 255 212 0
108.917104 311.677775 61.4 255 212 0
107.040039 312.603441 61.4 255 212 0
105.058209 313.276182 61.4 255 212 0
103.005523 313.684486 61.4 255 212 0
100.917104 313.821369 61.4 255 212 0
116.917104 297.821369 39.4 255 212 0
116.780222 299.909788 39.4 255 212 0
116.371917 301.962473 39.4 255 212 0
115.699177 303.944303 39.4 255 212 0
114.773511 305.821369 39.4 255 212 0
113.610758 307.561551 39.4 255 212 0
112.230813 309.135077 39.4 255 212 0
110.657287 310.515022 39.4 255 212 0
108.917104 311.677775 39.4 255 212 0
107.040039 312.603441 39.4 255 212 0
105.058209 313.276182 39.4 255 212 0
103.005523 313.684486 39.4 255 212 0
100.917104 313.821369 39.4 255 212 0
-68.3062892 313.821369 61.4 255 212 0
-70.3947082 313.684486 61.4 255 212 0
-72.4473939 313.276182 61.4 255 212 0
-74.4292241 312.603441 61.4 255 212 0
-76.3062892 311.677775 61.4 255 212 0
-78.046472 310.515022 61.4 255 212 0
-79.6199977 309.135077 61.4 255 212 0
-80.9999426 307.561551 61.4 255 212 0
-82.1626956 305.821369 61.4 255 212 0
-83.0883617 303.944303 61.4 255 212 0
-83.7611024 301.962473 61.4 255 212 0
-84.1694069 299.909788 61.4 255 212 0
-84.3062892 297.821369 61.4 255 212 0
-68.3062892 313.821369 39.4 255 212 0
-70.3947082 313.684486 39.4 255 212 0
-72.4473939 313.276182 39.4 255 212 0
-74.4292241 312.603441 39.4 255 212 0
-76.3062892 311.677775 39.4 255 212 0
-78.046472 310.515022 39.4 255 212 0
-79.6199977 309.135077 39.4 255 212 0
-80.9999426 307.561551 39.4 255 212 0
-82.1626956 305.821369 39.4 255 212 0
-83.0883617 303.944303 39.4 255 212 0
-83.7611024 301.962473 39.4 255 212 0
-84.1694069 299.909788 39.4 255 212 0
-84.3062892 297.821369 39.4 255 212 0
-68.3062892 313.821369 39.4 218 222 230
-68.3062892 313.821369 61.4 218 222 230
100.917104 313.821369 39.4 218 222 230
100.917104 313.821369 61.4 218 222 230
116.917104 159.796332 39.4 218 222 230
116.917104 159.796332 61.4 218 222 230
116.917104 218.80885 61.4 218 222 230
116.917104 218.80885 39.4 218 222 230
116.917104 238.80885 61.4 218 222 230
116.917104 297.821369 61.4 218 222 230
116.917104 297.821369 39.4 218 222 230
116.917104 238.80885 39.4 218 222 230
-34.0883345 225.661866 61.4 255 212 0
-34.0883345 225.661866 46.4 255 212 0
-10.0883345 201.661866 61.4 255 212 0
-10.2392415 204.349013 61.4 255 212 0
-10.6900646 207.002368 61.4 255 212 0
-11.4351346 209.588563 61.4 255 212 0
-12.4650817 212.075075 61.4 255 212 0
-13.7669537 214.430636 61.4 255 212 0
-15.3243789 216.625621 61.4 255 212 0
-17.1177718 218.632428 61.4 255 212 0
-19.1245793 220.425821 61.4 255 212 0
-21.3195647 221.983246 61.4 255 212 0
-23.6751248 223.285119 61.4 255 212 0
-26.161637 224.315066 61.4 255 212 0
-28.7478321 225.060136 61.4 255 212 0
-31.4011871 225.510959 61.4 255 212 0
-10.0883345 201.661866 46.4 255 212 0
-10.2392415 204.349013 46.4 255 212 0
-10.6900646 207.002368 46.4 255 212 0
-11.4351346 209.588563 46.4 255 212 0
-12.4650817 212.075075 46.4 255 212 0
-13.7669537 214.430636 46.4 255 212 0
-15.3243789 216.625621 46.4 255 212 0
-17.1177718 218.632428 46.4 255 212 0
-19.1245793 220.425821 46.4 255 212 0
-21.3195647 221.983246 46.4 255 212 0
-23.6751248 223.285119 46.4 255 212 0
-26.161637 224.315066 46.4 255 212 0
-28.7478321 225.060136 46.4 255 212 0
-31.4011871 225.510959 46.4 255 212 0
-10.0883345 149.796332 39.4 255 212 0
-9.93790199 148.461206 39.4 255 212 0
-9.49414772 147.193029 39.4 255 212 0
-8.77932341 146.055393 39.4 255 212 0
-7.82927333 145.105343 39.4 255 212 0
-6.69163695 144.390518 39.4 255 212 0
-5.42346012 143.946764 39.4 255 212 0
-4.08833452 143.796332 39.4 255 212 0
-4.08833452 143.796332 61.4 255 212 0
-10.0883345 149.796332 61.4 255 212 0
-9.93790199 148.461206 61.4 255 212 0
-9.49414772 147.193029 61.4 255 212 0
-8.77932341 146.055393 61.4 255 212 0
-7.82927333 145.105343 61.4 255 212 0
-6.69163695 144.390518 61.4 255 212 0
-5.42346012 143.946764 61.4 255 212 0
-84.3062892 231.661866 39.4 255 212 0
-84.1558566 230.32674 39.4 255 212 0
-83.7121024 229.058563 39.4 255 212 0
-82.9972781 227.920927 39.4 255 212 0
-82.047228 226.970877 39.4 255 212 0
-80.9095916 226.256053 39.4 255 212 0
-79.6414148 225.812298 39.4 255 212 0
-78.3062892 225.661866 39.4 255 212 0
-78.3062892 225.661866 61.4 255 212 0
-84.3062892 231.661866 61.4 255 212 0
-84.1558566 230.32674 61.4 255 212 0
-83.7121024 229.058563 61.4 255 212 0
-82.9972781 227.920927 61.4 255 212 0
-82.047228 226.970877 61.4 255 212 0
-80.9095916 226.256053 61.4 255 212 0
-79.6414148 225.812298 61.4 255 212 0
100.917104 143.796332 61.4 218 222 230
-4.08833452 143.796332 61.4 218 222 230
-4.08833452 143.796332 39.4 218 222 230
100.917104 143.796332 39.4 218 222 230
-84.3062892 231.661866 39.4 218 222 230
-84.3062892 297.821369 39.4 218 222 230
-84.3062892 231.661866 61.4 218 222 230
-84.3062892 297.821369 61.4 218 222 230
-78.3062892 225.661866 61.4 218 222 230
-34.0883345 225.661866 61.4 218 222 230
-78.3062892 225.661866 39.4 218 222 230
-76.6212991 225.661866 39.4 218 222 230
-76.6212991 225.661866 46.4 218 222 230
-34.0883345 225.661866 46.4 218 222 230
-10.0883345 156.468404 39.4 218 222 230
-10.0883345 156.468404 46.4 218 222 230
-10.0883345 201.661866 46.4 218 222 230
-10.0883345 201.661866 61.4 218 222 230
-10.0883345 149.796332 61.4 218 222 230
-10.0883345 149.796332 39.4 218 222 230
116.917104 218.80885 39.4 218 222 230
108.378701 218.80885 39.4 218 222 230
108.378701 218.80885 46.4 218 222 230
60.9171042 218.80885 46.4 218 222 230
60.9171042 218.80885 56.4 218 222 230
80.4555108 218.80885 56.4 218 222 230
81.1549774 218.80885 57.0726771 218 222 230
81.1323665 218.80885 56.9214886 218 222 230
81.0774749 218.80885 56.7788137 218 222 230
80.9929204 218.80885 56.6514569 218 222 230
80.8827356 218.80885 56.5454921 218 222 230
80.7521754 218.80885 56.4659731 218 222 230
80.6074667 218.80885 56.4166923 218 222 230
81.3240134 218.80885 61.4 218 222 230
116.917104 218.80885 61.4 218 222 230
60.9171042 218.80885 46.4 218 222 230
60.9171042 238.80885 46.4 218 222 230
60.9171042 238.80885 61.4 218 222 230
60.9171042 230.518776 61.4 218 222 230
60.9171042 230.34974 57.0726771 218 222 230
60.9171042 229.650273 56.4 218 222 230
60.9171042 229.802229 56.4166923 218 222 230
60.9171042 229.946938 56.4659731 218 222 230
60.9171042 230.077498 56.5454921 218 222 230
60.9171042 230.187683 56.6514569 218 222 230
60.9171042 230.272237 56.7788137 218 222 230
60.9171042 230.327129 56.9214886 218 222 230
60.9171042 218.80885 56.4 218 222 230
116.917104 238.80885 39.4 218 222 230
108.378701 238.80885 39.4 218 222 230
108.378701 238.80885 46.4 218 222 230
60.9171042 238.80885 46.4 218 222 230
60.9171042 238.80885 61.4 218 222 230
116.917104 238.80885 61.4 218 222 230
60.9171042 230.34974 57.0726771 218 222 230
5.30189102 230.34974 57.0726771 218 222 230
5.13285496 230.518776 61.4 218 222 230
60.9171042 230.518776 61.4 218 222 230
3 0 2 1
3 0 3 2
3 31 33 32
3 29 31 30
3 28 31 29
3 26 28 27
3 24 26 25
3 24 44 45
3 24 45 46
3 24 46 47
3 24 47 33
3 24 33 31
3 24 28 26
3 24 31 28
3 7 6 5
3 8 5 4
3 8 7 5
3 10 9 8
3 10 8 4
3 11 10 4
3 13 11 4
3 13 34 35
3 13 35 36
3 13 36 37
3 13 37 38
3 13 48 34
3 13 4 48
3 14 38 39
3 14 39 40
3 14 40 41
3 14 41 42
3 14 42 43
3 14 43 44
3 14 13 38
3 14 44 24
3 12 11 13
3 23 15 14
3 23 16 15
3 23 14 24
3 21 23 22
3 19 17 16
3 19 18 17
3 20 16 23
3 20 23 21
3 20 19 16
3 55 57 56
3 49 70 50
3 71 62 61
3 72 63 62
3 72 62 71
3 73 64 63
3 73 63 72
3 74 61 60
3 74 72 71
3 74 71 61
3 75 65 64
3 75 64 73
3 76 73 72
3 76 72 74
3 77 59 58
3 77 60 59
3 77 74 60
3 78 66 65
3 78 65 75
3 79 73 76
3 79 75 73
3 80 74 77
3 80 76 74
3 81 67 66
3 81 75 79
3 81 66 78
3 81 78 75
3 82 79 76
3 82 76 80
3 83 55 54
3 83 58 57
3 83 77 58
3 83 57 55
3 83 80 77
3 84 81 79
3 84 79 82
3 85 53 52
3 85 54 53
3 85 83 54
3 85 82 80
3 85 80 83
3 86 68 67
3 86 69 68
3 86 67 81
3 86 81 84
3 87 52 51
3 87 85 52
3 87 84 82
3 87 82 85
3 88 51 50
3 88 70 69
3 88 87 51
3 88 50 70
3 88 69 86
3 88 86 84
3 88 84 87
3 91 104 98
3 92 103 104
3 92 104 91
3 93 102 103
3 93 103 92
3 94 101 102
3 94 102 93
3 95 100 101
3 95 101 94
3 96 99 100
3 96 100 95
3 97 89 99
3 97 99 96
3 90 89 97
3 107 120 114
3 108 119 120
3 108 120 107
3 109 118 119
3 109 119 108
3 110 117 118
3 110 118 109
3 111 116 117
3 111 117 110
3 112 115 116
3 112 116 111
3 113 105 115
3 113 115 112
3 106 105 113
3 121 129 122
3 131 128 129
3 131 129 121
3 132 127 128
3 132 128 131
3 133 126 127
3 133 127 132
3 134 125 126
3 134 126 133
3 135 124 125
3 135 125 134
3 136 123 124
3 136 124 135
3 130 123 136
3 158 138 137
3 152 151 153
3 159 143 142
3 160 144 143
3 160 143 159
3 161 145 144
3 161 144 160
3 162 142 141
3 162 159 142
3 162 160 159
3 163 146 145
3 163 145 161
3 164 161 160
3 164 160 162
3 165 140 139
3 165 141 140
3 165 162 141
3 166 147 146
3 166 146 163
3 167 161 164
3 167 163 161
3 168 162 165
3 168 164 162
3 169 148 147
3 169 166 163
3 169 147 166
3 169 163 167
3 170 167 164
3 170 164 168
3 171 139 138
3 171 158 157
3 171 165 139
3 171 138 158
3 171 168 165
3 172 169 167
3 172 167 170
3 173 157 156
3 173 170 168
3 173 171 157
3 173 168 171
3 174 149 148
3 174 150 149
3 174 148 169
3 174 169 172
3 175 155 154
3 175 156 155
3 175 173 156
3 175 172 170
3 175 170 173
3 176 151 150
3 176 154 153
3 176 175 154
3 176 153 151
3 176 150 174
3 176 174 172
3 176 172 175
3 179 192 186
3 180 192 179
3 181 191 192
3 181 192 180
3 182 190 191
3 182 191 181
3 183 189 190
3 183 190 182
3 184 187 188
3 184 188 189
3 184 189 183
3 185 178 187
3 185 187 184
3 177 178 185
3 194 201 193
3 203 200 201
3 203 201 194
3 204 200 203
3 205 199 200
3 205 200 204
3 206 198 199
3 206 199 205
3 207 196 197
3 207 197 198
3 207 198 206
3 208 196 207
3 202 195 196
3 202 196 208
3 223 225 224
3 217 216 218
3 231 230 229
3 232 209 230
3 232 230 231
3 233 210 209
3 233 209 232
3 234 229 228
3 234 232 231
3 234 231 229
3 235 211 210
3 235 210 233
3 236 233 232
3 236 232 234
3 237 227 226
3 237 228 227
3 237 234 228
3 238 212 211
3 238 211 235
3 239 233 236
3 239 235 233
3 240 234 237
3 240 236 234
3 241 213 212
3 241 212 238
3 241 235 239
3 241 238 235
3 242 239 236
3 242 236 240
3 243 223 222
3 243 226 225
3 243 237 226
3 243 225 223
3 243 240 237
3 244 241 239
3 244 239 242
3 245 221 220
3 245 222 221
3 245 243 222
3 245 242 240
3 245 240 243
3 246 214 213
3 246 215 214
3 246 213 241
3 246 241 244
3 247 220 219
3 247 245 220
3 247 244 242
3 247 242 245
3 248 216 215
3 248 219 218
3 248 218 216
3 248 247 219
3 248 215 246
3 248 246 244
3 248 244 247
3 251 264 258
3 252 263 264
3 252 264 251
3 253 262 263
3 253 263 252
3 254 261 262
3 254 262 253
3 255 260 261
3 255 261 254
3 256 259 260
3 256 260 255
3 257 249 259
3 257 259 256
3 250 249 257
3 266 268 269
3 266 269 270
3 267 268 266
3 265 266 270
3 271 272 273
3 271 273 274
3 277 290 284
3 278 289 290
3 278 290 277
3 279 288 289
3 279 289 278
3 280 287 288
3 280 288 279
3 281 286 287
3 281 287 280
3 282 285 286
3 282 286 281
3 283 276 285
3 283 285 282
3 275 276 283
3 291 293 294
3 291 294 292
3 296 297 295
3 296 298 297
3 308 300 299
3 308 301 300
3 308 299 307
3 309 301 308
3 310 302 301
3 310 301 309
3 311 303 302
3 311 302 310
3 312 304 303
3 312 305 304
3 312 303 311
3 306 305 312
3 325 318 319
3 325 319 326
3 324 317 318
3 324 318 325
3 323 315 316
3 323 316 317
3 323 317 324
3 322 315 323
3 321 314 315
3 321 315 322
3 320 313 314
3 320 314 321
3 330 329 328
3 332 331 330
3 332 330 328
3 333 328 327
3 333 332 328
3 336 335 334
3 338 337 336
3 338 336 334
3 339 338 334
3 340 339 334
3 340 334 327
3 334 333 327
3 344 342 343
3 346 344 345
3 346 342 344
3 347 341 342
3 347 342 346
3 350 348 349
3 352 350 351
3 352 348 350
3 353 348 352
3 354 348 353
3 354 341 348
3 348 341 347
3 358 355 356
3 358 356 357
3 360 362 361
3 360 359 362
3 365 363 364
3 365 366 363
3 367 369 370
3 367 370 368
3 371 372 373
3 371 373 374
3 381 383 382
3 381 390 383
3 380 388 389
3 380 389 390
3 380 390 381
3 379 388 380
3 378 387 388
3 378 388 379
3 377 386 387
3 377 387 378
3 376 385 386
3 376 386 377
3 375 384 385
3 375 385 376
3 401 392 391
3 401 391 400
3 402 393 392
3 402 394 393
3 402 392 401
3 403 394 402
3 404 395 394
3 404 394 403
3 405 396 395
3 405 395 404
3 406 397 396
3 406 398 397
3 406 396 405
3 399 398 406
3 417 408 407
3 417 407 416
3 418 409 408
3 418 408 417
3 419 410 409
3 419 409 418
3 420 411 410
3 420 412 411
3 420 410 419
3 421 413 412
3 421 412 420
3 422 413 421
3 415 414 413
3 415 413 422
3 430 428 429
3 423 425 426
3 431 426 427
3 431 427 428
3 431 423 426
3 431 428 430
3 505 503 504
3 502 503 505
3 506 502 505
3 501 502 506
3 500 501 506
3 507 500 506
3 460 459 431
3 458 423 431
3 458 431 459
3 461 460 431
3 457 423 458
3 462 461 431
3 456 423 457
3 455 462 431
3 525 500 507
3 424 423 456
3 508 525 507
3 521 525 508
3 499 500 525
3 448 455 431
3 463 509 424
3 463 510 509
3 463 511 510
3 463 512 511
3 463 513 512
3 463 514 513
3 463 515 514
3 463 516 515
3 470 516 463
3 470 517 516
3 469 517 470
3 468 517 469
3 468 518 517
3 468 519 518
3 467 519 468
3 467 520 519
3 466 520 467
3 522 491 492
3 522 492 493
3 522 493 494
3 522 494 495
3 522 499 525
3 522 495 496
3 522 496 497
3 522 497 498
3 522 498 499
3 490 491 522
3 489 490 522
3 488 489 522
3 432 449 448
3 432 450 449
3 432 451 450
3 432 452 451
3 432 453 452
3 432 454 453
3 432 447 454
3 432 448 431
3 487 488 522
3 436 433 434
3 436 434 435
3 438 436 437
3 439 433 436
3 439 436 438
3 441 439 440
3 441 433 439
3 444 432 433
3 444 441 442
3 444 442 443
3 444 447 432
3 444 433 441
3 472 464 471
3 446 447 444
3 445 446 444
3 523 487 522
3 474 523 524
3 474 524 473
3 486 487 523
3 475 523 474
3 485 486 523
3 476 523 475
3 484 485 523
3 477 523 476
3 483 484 523
3 482 483 523
3 478 523 477
3 479 523 478
3 481 482 523
3 480 523 479
3 480 481 523
3 456 463 424
3 472 473 524
3 524 525 472
3 472 525 464
3 464 525 465
3 465 525 466
3 466 525 520
3 520 525 521
3 555 554 553
3 552 555 553
3 557 556 555
3 550 552 551
3 550 557 555
3 550 555 552
3 549 557 550
3 542 527 526
3 542 528 527
3 542 529 528
3 542 526 557
3 542 557 549
3 543 530 529
3 543 531 530
3 543 529 542
3 544 532 531
3 544 531 543
3 545 533 532
3 545 532 544
3 534 545 546
3 534 533 545
3 535 534 546
3 536 546 547
3 536 535 546
3 537 547 548
3 537 536 547
3 538 548 541
3 538 537 548
3 539 541 540
3 539 538 541
3 605 607 606
3 603 605 604
3 610 608 607
3 610 609 608
3 610 607 605
3 610 605 603
3 559 610 603
3 558 559 603
3 602 560 561
3 602 561 562
3 602 562 563
3 602 563 564
3 602 564 565
3 602 565 566
3 602 566 558
3 602 558 603
3 600 602 601
3 599 602 600
3 598 602 599
3 596 598 597
3 596 602 598
3 593 595 594
3 593 596 595
3 591 596 593
3 591 593 592
3 590 602 596
3 590 596 591
3 590 560 602
3 567 560 590
3 568 576 575
3 577 568 569
3 577 569 570
3 577 570 571
3 577 571 572
3 577 572 573
3 577 573 574
3 577 574 567
3 577 576 568
3 589 567 590
3 589 577 567
3 588 577 589
3 580 579 578
3 585 587 586
3 585 588 587
3 581 578 577
3 581 580 578
3 584 588 585
3 583 582 581
3 583 577 588
3 583 588 584
3 583 581 577
3 635 623 622
3 635 636 623
3 634 622 621
3 634 635 622
3 633 621 620
3 633 634 621
3 632 620 619
3 632 633 620
3 631 619 618
3 631 632 619
3 630 617 616
3 630 618 617
3 630 631 618
3 629 630 616
3 628 616 615
3 628 629 616
3 627 614 613
3 627 615 614
3 627 628 615
3 626 613 612
3 626 627 613
3 625 626 612
3 624 612 611
3 624 625 612
3 637 650 651
3 638 637 651
3 639 651 652
3 639 652 653
3 639 638 651
3 640 639 653
3 641 653 654
3 641 640 653
3 642 654 655
3 642 641 654
3 643 655 656
3 643 642 655
3 644 656 657
3 644 643 656
3 645 657 658
3 645 658 659
3 645 644 657
3 646 645 659
3 647 659 660
3 647 646 659
3 648 660 661
3 648 661 662
3 648 647 660
3 649 648 662
3 687 675 674
3 687 688 675
3 686 673 672
3 686 674 673
3 686 687 674
3 685 686 672
3 684 672 671
3 684 685 672
3 683 671 670
3 683 684 671
3 682 670 669
3 682 683 670
3 681 669 668
3 681 682 669
3 680 667 666
3 680 668 667
3 680 681 668
3 679 680 666
3 678 665 664
3 678 666 665
3 678 679 666
3 677 678 664
3 676 664 663
3 676 677 664
3 692 689 690
3 692 691 689
3 694 696 695
3 694 693 696
3 697 699 698
3 697 700 699
3 730 701 702
3 730 716 701
3 729 715 716
3 729 716 730
3 728 713 714
3 728 714 715
3 728 715 729
3 727 712 713
3 727 713 728
3 726 712 727
3 725 711 712
3 725 712 726
3 724 709 710
3 724 710 711
3 724 711 725
3 723 709 724
3 722 707 708
3 722 708 709
3 722 709 723
3 721 707 722
3 720 706 707
3 720 707 721
3 719 704 705
3 719 705 706
3 719 706 720
3 718 704 719
3 717 703 704
3 717 704 718
3 740 731 732
3 741 740 732
3 742 732 733
3 742 741 732
3 743 733 734
3 743 734 735
3 743 742 733
3 744 743 735
3 745 735 736
3 745 736 737
3 745 744 735
3 746 745 737
3 739 737 738
3 739 746 737
3 753 754 755
3 753 762 761
3 753 755 762
3 752 753 761
3 751 760 759
3 751 761 760
3 751 752 761
3 750 751 759
3 749 759 758
3 749 750 759
3 748 758 757
3 748 749 758
3 747 757 756
3 747 748 757
3 766 763 764
3 766 764 765
3 769 768 767
3 769 770 768
3 773 775 771
3 774 775 773
3 772 771 775
3 776 772 775
3 778 777 782
3 781 778 782
3 780 779 778
3 780 778 781
3 785 783 784
3 797 783 785
3 793 792 785
3 791 785 792
3 790 785 791
3 789 785 790
3 796 797 785
3 796 785 789
3 787 788 786
3 785 786 788
3 785 788 795
3 785 795 794
3 785 794 793
3 803 798 799
3 803 810 798
3 804 803 799
3 805 804 799
3 806 805 799
3 807 806 799
3 808 807 799
3 800 801 802
3 800 809 808
3 800 802 809
3 800 808 799
3 813 812 811
3 816 813 811
3 815 814 813
3 815 813 816
3 820 818 817
3 820 819 818
