ply
format ascii 1.0
comment generated by blendit.inference.finetune_visualize
element vertex 991
property float x
property float y
property float z
property uchar red
property uchar green
property uchar blue
element face 1022
property list uchar int vertex_indices
end_header
-8.25033569 21.3289819 19.7999878 255 212 0
-8.25033569 22.7340557 19.6521289 255 212 0
-8.25033569 24.0775731 19.2150301 255 212 0
-8.25033569 25.3006747 18.5078405 255 212 0
0 21.3289819 19.7999878 255 212 0
0 25.3006747 18.5078405 255 212 0
1.36891438e-15 24.0775731 19.2150301 255 212 0
1.46596982e-15 22.7340557 19.6521289 255 212 0
-8.25033569 -0.100058329 19.7999878 218 222 230
0 -0.100058329 19.7999878 218 222 230
-8.25033569 21.3289819 19.7999878 218 222 230
0 21.3289819 19.7999878 218 222 230
0 49.5525632 0.859681856 218 222 230
-8.25033569 49.5525632 0.859681856 218 222 230
0 25.3006747 18.5078405 218 222 230
-8.25033569 25.3006747 18.5078405 218 222 230
-8.25033569 21.3289819 19.7999878 218 222 230
-8.25033569 -0.100058329 19.7999878 218 222 230
-8.25033569 22.7340557 19.6521289 218 222 230
-8.25033569 24.0775731 19.2150301 218 222 230
-8.25033569 25.3006747 18.5078405 218 222 230
-8.25033569 49.5525632 0.859681856 218 222 230
-8.25033569 50.1260852 0.335706976 218 222 230
-8.25033569 50.5699006 -0.30187053 218 222 230
-8.25033569 50.8621455 -1.0216414 218 222 230
-8.25033569 50.988423 -1.78814724 218 222 230
-8.25033569 50.942512 -2.56362733 218 222 230
-8.25033569 50.7266745 -3.30987886 218 222 230
-8.25033569 50.3515432 -3.9901389 218 222 230
-8.25033569 50.0465847 -4.42170449 218 222 230
-8.25033569 49.49275 -5.03609634 218 222 230
-8.25033569 48.8101977 -5.50335703 218 222 230
-8.25033569 48.037051 -5.79738823 218 222 230
-8.25033569 47.2164931 -5.90176715 218 222 230
-8.25033569 46.3943554 -5.81066382 218 222 230
-8.25033569 45.6165575 -5.52916672 218 222 230
-8.25033569 19.9141043 2.07818824 218 222 230
-8.25033569 19.7207538 2.15825202 218 222 230
-8.25033569 19.5483002 2.2768033 218 222 230
-8.25033569 19.4042961 2.42865017 218 222 230
-8.25033569 19.2950482 2.60714254 218 222 230
-8.25033569 19.2671911 2.66491079 218 222 230
-8.25033569 19.2765399 2.64568516 218 222 230
-8.25033569 19.2858256 2.626429 218 222 230
-8.25033569 18.5295977 3.83967415 218 222 230
-8.25033569 17.5604893 4.83211646 218 222 230
-8.25033569 16.4036041 5.59744625 218 222 230
-8.25033569 15.1111555 6.10112221 218 222 230
-8.25033569 13.7414749 6.32041215 218 222 230
-8.25033569 12.3563796 6.24541894 218 222 230
-8.25033569 11.0183825 5.87952723 218 222 230
-8.25033569 9.78787088 5.23925065 218 222 230
-8.25033569 8.72038088 4.35348653 218 222 230
-8.25033569 7.8640911 3.26221169 218 222 230
-8.25033569 7.25764809 2.01467819 218 222 230
-8.25033569 6.92842221 0.667190423 218 222 230
-8.25033569 5.93728131 -0.199995041 218 222 230
-8.25033569 6.17459347 -0.171428486 218 222 230
-8.25033569 6.39834724 -0.0873609181 218 222 230
-8.25033569 6.59575889 0.0474046216 218 222 230
-8.25033569 6.75554967 0.225168559 218 222 230
-8.25033569 6.86859023 0.435774687 218 222 230
-8.25033569 -0.100058329 -0.199995041 218 222 230
-8.25033569 3.64994167 1.79999733 218 222 230
-8.25033569 3.64994167 7.79999733 218 222 230
-8.25033569 5.89994167 1.79999733 218 222 230
-8.25033569 5.89994167 7.79999733 218 222 230
-8.25033569 3.64994167 11.7999973 218 222 230
-8.25033569 3.64994167 17.7999973 218 222 230
-8.25033569 5.89994167 11.7999973 218 222 230
-8.25033569 5.89994167 17.7999973 218 222 230
-8.25033569 46.7516221 -0.533208466 218 222 230
-8.25033569 47.086664 -0.573889921 218 222 230
-8.25033569 47.4022346 -0.69357003 218 222 230
-8.25033569 47.6799938 -0.885293418 218 222 230
-8.25033569 47.9037995 -1.13791782 218 222 230
-8.25033569 48.0606449 -1.43676162 218 222 230
-8.25033569 48.1414145 -1.76445711 218 222 230
-8.25033569 48.1414145 -2.10195982 218 222 230
-8.25033569 48.0606449 -2.42965531 218 222 230
-8.25033569 47.9037995 -2.72849911 218 222 230
-8.25033569 47.6799938 -2.98112351 218 222 230
-8.25033569 47.4022346 -3.1728469 218 222 230
-8.25033569 47.086664 -3.29252701 218 222 230
-8.25033569 46.7516221 -3.33320847 218 222 230
-8.25033569 46.4165802 -3.29252701 218 222 230
-8.25033569 46.1010097 -3.1728469 218 222 230
-8.25033569 45.8232504 -2.98112351 218 222 230
-8.25033569 45.5994447 -2.72849911 218 222 230
-8.25033569 45.4425994 -2.42965531 218 222 230
-8.25033569 45.3618297 -2.10195982 218 222 230
-8.25033569 45.3618297 -1.76445711 218 222 230
-8.25033569 45.4425994 -1.43676162 218 222 230
-8.25033569 45.5994447 -1.13791782 218 222 230
-8.25033569 45.8232504 -0.885293418 218 222 230
-8.25033569 46.1010097 -0.69357003 218 222 230
-8.25033569 46.4165802 -0.573889921 218 222 230
0 25.3006747 18.5078405 218 222 230
0 49.5525632 0.859681856 218 222 230
1.36891438e-15 24.0775731 19.2150301 218 222 230
1.46596982e-15 22.7340557 19.6521289 218 222 230
0 21.3289819 19.7999878 218 222 230
0 -0.100058329 19.7999878 218 222 230
0 -0.100058329 -0.199995041 218 222 230
0 5.93728131 -0.199995041 218 222 230
0 6.92842221 0.667190423 218 222 230
0 6.86859023 0.435774687 218 222 230
0 6.75554967 0.225168559 218 222 230
0 6.59575889 0.0474046216 218 222 230
0 6.39834724 -0.0873609181 218 222 230
0 6.17459347 -0.171428486 218 222 230
0 7.25764809 2.01467819 218 222 230
0 7.8640911 3.26221169 218 222 230
0 8.72038088 4.35348653 218 222 230
0 9.78787088 5.23925065 218 222 230
0 11.0183825 5.87952723 218 222 230
0 12.3563796 6.24541894 218 222 230
0 13.7414749 6.32041215 218 222 230
0 15.1111555 6.10112221 218 222 230
0 16.4036041 5.59744625 218 222 230
0 17.5604893 4.83211646 218 222 230
0 18.5295977 3.83967415 218 222 230
0 19.2671911 2.66491079 218 222 230
6.31869629e-16 19.2765399 2.64568516 218 222 230
6.27593904e-16 19.2858256 2.626429 218 222 230
0 19.2950482 2.60714254 218 222 230
-1.3509623e-16 19.4042961 2.42865017 218 222 230
-1.68813008e-16 19.5483002 2.2768033 218 222 230
-1.9513668e-16 19.7207538 2.15825202 218 222 230
0 19.9141043 2.07818824 218 222 230
0 45.6165575 -5.52916672 218 222 230
0 46.3943554 -5.81066382 218 222 230
0 47.2164931 -5.90176715 218 222 230
0 48.037051 -5.79738823 218 222 230
0 48.8101977 -5.50335703 218 222 230
0 49.49275 -5.03609634 218 222 230
0 50.0465847 -4.42170449 218 222 230
0 50.3515432 -3.9901389 218 222 230
0 50.7266745 -3.30987886 218 222 230
0 50.942512 -2.56362733 218 222 230
0 50.988423 -1.78814724 218 222 230
0 50.8621455 -1.0216414 218 222 230
0 50.5699006 -0.30187053 218 222 230
0 50.1260852 0.335706976 218 222 230
0 46.7516221 0.466791534 218 222 230
0 46.1772645 0.397051896 218 222 230
0 45.6362865 0.191885996 218 222 230
0 45.1601277 -0.13678267 218 222 230
0 44.7764608 -0.569853073 218 222 230
0 44.5075831 -1.08215674 218 222 230
0 44.3691208 -1.64392043 218 222 230
0 44.3691208 -2.2224965 218 222 230
0 44.5075831 -2.78426019 218 222 230
0 44.7764608 -3.29656386 218 222 230
0 45.1601277 -3.72963426 218 222 230
0 45.6362865 -4.05830293 218 222 230
0 46.1772645 -4.26346883 218 222 230
0 46.7516221 -4.33320847 218 222 230
0 47.3259797 -4.26346883 218 222 230
0 47.8669577 -4.05830293 218 222 230
0 48.3431165 -3.72963426 218 222 230
0 48.7267834 -3.29656386 218 222 230
0 48.9956611 -2.78426019 218 222 230
0 49.1341234 -2.2224965 218 222 230
0 49.1341234 -1.64392043 218 222 230
0 48.9956611 -1.08215674 218 222 230
0 48.7267834 -0.569853074 218 222 230
0 48.3431165 -0.13678267 218 222 230
0 47.8669577 0.191885996 218 222 230
0 47.3259797 0.397051896 218 222 230
0 6.92842221 0.667190423 255 212 0
0 6.86859023 0.435774687 255 212 0
0 6.75554967 0.225168559 255 212 0
0 6.59575889 0.0474046216 255 212 0
0 6.39834724 -0.0873609181 255 212 0
0 6.17459347 -0.171428486 255 212 0
0 5.93728131 -0.199995041 255 212 0
-8.25033569 5.93728131 -0.199995041 255 212 0
-8.25033569 6.17459347 -0.171428486 255 212 0
-8.25033569 6.39834724 -0.0873609181 255 212 0
-8.25033569 6.59575889 0.0474046216 255 212 0
-8.25033569 6.75554967 0.225168559 255 212 0
-8.25033569 6.86859023 0.435774687 255 212 0
-8.25033569 6.92842221 0.667190423 255 212 0
-8.25033569 5.93728131 -0.199995041 218 222 230
-8.25033569 -0.100058329 -0.199995041 218 222 230
0 -0.100058329 -0.199995041 218 222 230
0 5.93728131 -0.199995041 218 222 230
-5.83398928 12.8999417 6.3101794 218 222 230
-4.16668592 12.8999417 6.3101794 218 222 230
-4.43115503 12.8999417 6.42838801 218 222 230
-4.71167597 12.8999417 6.50067351 218 222 230
-5.0003376 12.8999417 6.52499733 218 222 230
-5.28899923 12.8999417 6.50067351 218 222 230
-5.56952017 12.8999417 6.42838801 218 222 230
-1.41454926 46.7516221 -0.533208466 255 212 0
-1.41454926 47.086664 -0.573889921 255 212 0
-1.41454926 47.4022346 -0.69357003 255 212 0
-1.41454926 47.6799938 -0.885293418 255 212 0
-1.41454926 47.9037995 -1.13791782 255 212 0
-1.41454926 48.0606449 -1.43676162 255 212 0
-1.41454926 48.1414145 -1.76445711 255 212 0
-1.41454926 48.1414145 -2.10195982 255 212 0
-1.41454926 48.0606449 -2.42965531 255 212 0
-1.41454926 47.9037995 -2.72849911 255 212 0
-1.41454926 47.6799938 -2.98112351 255 212 0
-1.41454926 47.4022346 -3.1728469 255 212 0
-1.41454926 47.086664 -3.29252701 255 212 0
-1.41454926 46.7516221 -3.33320847 255 212 0
-1.41454926 46.4165802 -3.29252701 255 212 0
-1.41454926 46.1010097 -3.1728469 255 212 0
-1.41454926 45.8232504 -2.98112351 255 212 0
-1.41454926 45.5994447 -2.72849911 255 212 0
-1.41454926 45.4425994 -2.42965531 255 212 0
-1.41454926 45.3618297 -2.10195982 255 212 0
-1.41454926 45.3618297 -1.76445711 255 212 0
-1.41454926 45.4425994 -1.43676162 255 212 0
-1.41454926 45.5994447 -1.13791782 255 212 0
-1.41454926 45.8232504 -0.885293418 255 212 0
-1.41454926 46.1010097 -0.69357003 255 212 0
-1.41454926 46.4165802 -0.573889921 255 212 0
-1.41454926 46.7516221 -0.533208466 255 212 0
-1.1811039 46.7516221 -0.505578387 255 212 0
-0.960558763 46.7516221 -0.424214993 255 212 0
-0.826764012 46.7516221 -0.342225466 255 212 0
-0.707442475 46.7516221 -0.240315247 255 212 0
-0.707442475 46.3464863 -0.289507665 255 212 0
-0.707442475 45.9648954 -0.434225981 255 212 0
-0.707442475 45.6290263 -0.66605971 255 212 0
-0.707442475 45.3583983 -0.971535519 255 212 0
-0.707442475 45.1687395 -1.33290026 255 212 0
-0.707442475 45.071072 -1.72915274 255 212 0
-0.707442475 45.071072 -2.13726419 255 212 0
-0.707442475 45.1687395 -2.53351667 255 212 0
-0.707442475 45.3583983 -2.89488141 255 212 0
-0.707442475 45.6290263 -3.20035722 255 212 0
-0.707442475 45.9648954 -3.43219095 255 212 0
-0.707442475 46.3464863 -3.57690927 255 212 0
-0.707442475 46.7516221 -3.62610167 255 212 0
-0.707442475 47.156758 -3.57690927 255 212 0
-0.707442475 47.5383488 -3.43219095 255 212 0
-0.707442475 47.874218 -3.20035722 255 212 0
-0.707442475 48.1448459 -2.89488141 255 212 0
-0.707442475 48.3345048 -2.53351667 255 212 0
-0.707442475 48.4321722 -2.13726419 255 212 0
-0.707442475 48.4321722 -1.72915274 255 212 0
-0.707442475 48.3345048 -1.33290026 255 212 0
-0.707442475 48.1448459 -0.971535519 255 212 0
-0.707442475 47.874218 -0.66605971 255 212 0
-0.707442475 47.5383488 -0.434225981 255 212 0
-0.707442475 47.156758 -0.289507665 255 212 0
-0.707442475 46.7516221 -0.240315247 255 212 0
-1.1811039 46.7516221 -0.505578387 255 212 0
-0.960558763 46.7516221 -0.424214993 255 212 0
-0.826764012 46.7516221 -0.342225466 255 212 0
-1.1811039 47.0932764 -0.547062722 255 212 0
-0.960558763 47.1127479 -0.468063601 255 212 0
-1.1811039 47.4150749 -0.66910481 255 212 0
-0.826764012 47.1323693 -0.388456541 255 212 0
-0.960558763 47.4528863 -0.597061103 255 212 0
-1.1811039 47.698316 -0.864612007 255 212 0
-0.826764012 47.4909888 -0.524462982 255 212 0
-0.960558763 47.7522699 -0.803710633 255 212 0
-1.1811039 47.9265386 -1.12222215 255 212 0
-0.826764012 47.806639 -0.74234059 255 212 0
-0.960558763 47.9934994 -1.07600247 255 212 0
-1.1811039 48.0864794 -1.42696386 255 212 0
-0.826764012 48.0609755 -1.02942711 255 212 0
-0.960558763 48.1625555 -1.39811201 255 212 0
-1.1811039 48.1688432 -1.76112668 255 212 0
-0.826764012 48.2392171 -1.36903812 255 212 0
-0.960558763 48.2496133 -1.7513194 255 212 0
-1.1811039 48.1688432 -2.10529026 255 212 0
-0.826764012 48.3310051 -1.74143666 255 212 0
-0.960558763 48.2496133 -2.11509753 255 212 0
-1.1811039 48.0864794 -2.43945307 255 212 0
-0.826764012 48.3310051 -2.12498027 255 212 0
-0.960558763 48.1625555 -2.46830493 255 212 0
-1.1811039 47.9265386 -2.74419478 255 212 0
-0.826764012 48.2392171 -2.49737881 255 212 0
-0.960558763 47.9934994 -2.79041446 255 212 0
-1.1811039 47.698316 -3.00180492 255 212 0
-0.826764012 48.0609755 -2.83698982 255 212 0
-0.960558763 47.7522699 -3.0627063 255 212 0
-1.1811039 47.4150749 -3.19731212 255 212 0
-0.826764012 47.806639 -3.12407634 255 212 0
-0.960558763 47.4528863 -3.26935583 255 212 0
-1.1811039 47.0932764 -3.31935421 255 212 0
-0.826764012 47.4909888 -3.34195395 255 212 0
-0.960558763 47.1127479 -3.39835333 255 212 0
-1.1811039 46.7516221 -3.36083854 255 212 0
-0.826764012 47.1323693 -3.47796039 255 212 0
-0.960558763 46.7516221 -3.44220194 255 212 0
-1.1811039 46.4099679 -3.31935421 255 212 0
-0.826764012 46.7516221 -3.52419146 255 212 0
-0.960558763 46.3904963 -3.39835333 255 212 0
-1.1811039 46.0881693 -3.19731212 255 212 0
-0.826764012 46.370875 -3.47796039 255 212 0
-0.960558763 46.0503579 -3.26935583 255 212 0
-1.1811039 45.8049283 -3.00180492 255 212 0
-0.826764012 46.0122555 -3.34195395 255 212 0
-0.960558763 45.7509744 -3.0627063 255 212 0
-1.1811039 45.5767056 -2.74419478 255 212 0
-0.826764012 45.6966052 -3.12407634 255 212 0
-0.960558763 45.5097448 -2.79041446 255 212 0
-1.1811039 45.4167648 -2.43945307 255 212 0
-0.826764012 45.4422688 -2.83698982 255 212 0
-0.960558763 45.3406887 -2.46830493 255 212 0
-1.1811039 45.3344011 -2.10529026 255 212 0
-0.826764012 45.2640272 -2.49737881 255 212 0
-0.960558763 45.2536309 -2.11509753 255 212 0
-1.1811039 45.3344011 -1.76112668 255 212 0
-0.826764012 45.1722392 -2.12498027 255 212 0
-0.960558763 45.2536309 -1.7513194 255 212 0
-1.1811039 45.4167648 -1.42696386 255 212 0
-0.826764012 45.1722392 -1.74143666 255 212 0
-0.960558763 45.3406887 -1.39811201 255 212 0
-1.1811039 45.5767056 -1.12222215 255 212 0
-0.826764012 45.2640272 -1.36903812 255 212 0
-0.960558763 45.5097448 -1.07600247 255 212 0
-1.1811039 45.8049283 -0.864612007 255 212 0
-0.826764012 45.4422688 -1.02942711 255 212 0
-0.960558763 45.7509744 -0.803710633 255 212 0
-1.1811039 46.0881693 -0.66910481 255 212 0
-0.826764012 45.6966052 -0.742340591 255 212 0
-0.960558763 46.0503579 -0.597061103 255 212 0
-1.1811039 46.4099679 -0.547062722 255 212 0
-0.826764012 46.0122555 -0.524462982 255 212 0
-0.960558763 46.3904963 -0.468063601 255 212 0
-0.826764012 46.370875 -0.388456541 255 212 0
0 46.7516221 0.466791534 218 222 230
0 46.1772645 0.397051896 218 222 230
0 45.6362865 0.191885996 218 222 230
0 45.1601277 -0.13678267 218 222 230
0 44.7764608 -0.569853073 218 222 230
0 44.5075831 -1.08215674 218 222 230
0 44.3691208 -1.64392043 218 222 230
0 44.3691208 -2.2224965 218 222 230
0 44.5075831 -2.78426019 218 222 230
0 44.7764608 -3.29656386 218 222 230
0 45.1601277 -3.72963426 218 222 230
0 45.6362865 -4.05830293 218 222 230
0 46.1772645 -4.26346883 218 222 230
0 46.7516221 -4.33320847 218 222 230
0 47.3259797 -4.26346883 218 222 230
0 47.8669577 -4.05830293 218 222 230
0 48.3431165 -3.72963426 218 222 230
0 48.7267834 -3.29656386 218 222 230
0 48.9956611 -2.78426019 218 222 230
0 49.1341234 -2.2224965 218 222 230
0 49.1341234 -1.64392043 218 222 230
0 48.9956611 -1.08215674 218 222 230
0 48.7267834 -0.569853074 218 222 230
0 48.3431165 -0.13678267 218 222 230
0 47.8669577 0.191885996 218 222 230
0 47.3259797 0.397051896 218 222 230
0 46.7516221 0.466791534 218 222 230
-0.707442475 46.7516221 -0.240315247 218 222 230
-0.707442475 46.3464863 -0.289507665 218 222 230
-0.707442475 45.9648954 -0.434225981 218 222 230
-0.707442475 45.6290263 -0.66605971 218 222 230
-0.707442475 45.3583983 -0.971535519 218 222 230
-0.707442475 45.1687395 -1.33290026 218 222 230
-0.707442475 45.071072 -1.72915274 218 222 230
-0.707442475 45.071072 -2.13726419 218 222 230
-0.707442475 45.1687395 -2.53351667 218 222 230
-0.707442475 45.3583983 -2.89488141 218 222 230
-0.707442475 45.6290263 -3.20035722 218 222 230
-0.707442475 45.9648954 -3.43219095 218 222 230
-0.707442475 46.3464863 -3.57690927 218 222 230
-0.707442475 46.7516221 -3.62610167 218 222 230
-0.707442475 47.156758 -3.57690927 218 222 230
-0.707442475 47.5383488 -3.43219095 218 222 230
-0.707442475 47.874218 -3.20035722 218 222 230
-0.707442475 48.1448459 -2.89488141 218 222 230
-0.707442475 48.3345048 -2.53351667 218 222 230
-0.707442475 48.4321722 -2.13726419 218 222 230
-0.707442475 48.4321722 -1.72915274 218 222 230
-0.707442475 48.3345048 -1.33290026 218 222 230
-0.707442475 48.1448459 -0.971535519 218 222 230
-0.707442475 47.874218 -0.66605971 218 222 230
-0.707442475 47.5383488 -0.434225981 218 222 230
-0.707442475 47.156758 -0.289507665 218 222 230
-0.707442475 46.7516221 -0.240315247 218 222 230
-8.25033569 46.7516221 -0.533208466 218 222 230
-8.25033569 47.086664 -0.573889921 218 222 230
-8.25033569 47.4022346 -0.69357003 218 222 230
-8.25033569 47.6799938 -0.885293418 218 222 230
-8.25033569 47.9037995 -1.13791782 218 222 230
-8.25033569 48.0606449 -1.43676162 218 222 230
-8.25033569 48.1414145 -1.76445711 218 222 230
-8.25033569 48.1414145 -2.10195982 218 222 230
-8.25033569 48.0606449 -2.42965531 218 222 230
-8.25033569 47.9037995 -2.72849911 218 222 230
-8.25033569 47.6799938 -2.98112351 218 222 230
-8.25033569 47.4022346 -3.1728469 218 222 230
-8.25033569 47.086664 -3.29252701 218 222 230
-8.25033569 46.7516221 -3.33320847 218 222 230
-8.25033569 46.4165802 -3.29252701 218 222 230
-8.25033569 46.1010097 -3.1728469 218 222 230
-8.25033569 45.8232504 -2.98112351 218 222 230
-8.25033569 45.5994447 -2.72849911 218 222 230
-8.25033569 45.4425994 -2.42965531 218 222 230
-8.25033569 45.3618297 -2.10195982 218 222 230
-8.25033569 45.3618297 -1.76445711 218 222 230
-8.25033569 45.4425994 -1.43676162 218 222 230
-8.25033569 45.5994447 -1.13791782 218 222 230
-8.25033569 45.8232504 -0.885293418 218 222 230
-8.25033569 46.1010097 -0.69357003 218 222 230
-8.25033569 46.4165802 -0.573889921 218 222 230
-8.25033569 46.7516221 -0.533208466 218 222 230
-1.41454926 46.7516221 -0.533208466 218 222 230
-1.41454926 47.086664 -0.573889921 218 222 230
-1.41454926 47.4022346 -0.69357003 218 222 230
-1.41454926 47.6799938 -0.885293418 218 222 230
-1.41454926 47.9037995 -1.13791782 218 222 230
-1.41454926 48.0606449 -1.43676162 218 222 230
-1.41454926 48.1414145 -1.76445711 218 222 230
-1.41454926 48.1414145 -2.10195982 218 222 230
-1.41454926 48.0606449 -2.42965531 218 222 230
-1.41454926 47.9037995 -2.72849911 218 222 230
-1.41454926 47.6799938 -2.98112351 218 222 230
-1.41454926 47.4022346 -3.1728469 218 222 230
-1.41454926 47.086664 -3.29252701 218 222 230
-1.41454926 46.7516221 -3.33320847 218 222 230
-1.41454926 46.4165802 -3.29252701 218 222 230
-1.41454926 46.1010097 -3.1728469 218 222 230
-1.41454926 45.8232504 -2.98112351 218 222 230
-1.41454926 45.5994447 -2.72849911 218 222 230
-1.41454926 45.4425994 -2.42965531 218 222 230
-1.41454926 45.3618297 -2.10195982 218 222 230
-1.41454926 45.3618297 -1.76445711 218 222 230
-1.41454926 45.4425994 -1.43676162 218 222 230
-1.41454926 45.5994447 -1.13791782 218 222 230
-1.41454926 45.8232504 -0.885293418 218 222 230
-1.41454926 46.1010097 -0.69357003 218 222 230
-1.41454926 46.4165802 -0.573889921 218 222 230
-1.41454926 46.7516221 -0.533208466 218 222 230
0 50.3515432 -3.9901389 255 212 0
0 50.7266745 -3.30987886 255 212 0
0 50.942512 -2.56362733 255 212 0
0 50.988423 -1.78814724 255 212 0
0 50.8621455 -1.0216414 255 212 0
0 50.5699006 -0.30187053 255 212 0
0 50.1260852 0.335706976 255 212 0
0 49.5525632 0.859681856 255 212 0
-8.25033569 50.3515432 -3.9901389 255 212 0
-8.25033569 49.5525632 0.859681856 255 212 0
-8.25033569 50.1260852 0.335706976 255 212 0
-8.25033569 50.5699006 -0.30187053 255 212 0
-8.25033569 50.8621455 -1.0216414 255 212 0
-8.25033569 50.988423 -1.78814724 255 212 0
-8.25033569 50.942512 -2.56362733 255 212 0
-8.25033569 50.7266745 -3.30987886 255 212 0
-8.25033569 50.0465847 -4.42170449 218 222 230
-8.25033569 50.3515432 -3.9901389 218 222 230
0 50.0465847 -4.42170449 218 222 230
0 50.3515432 -3.9901389 218 222 230
-8.25033569 50.0465847 -4.42170449 218 222 230
-8.25033569 49.49275 -5.03609634 218 222 230
-8.25033569 48.8101977 -5.50335703 218 222 230
-8.25033569 48.037051 -5.79738823 218 222 230
-8.25033569 47.2164931 -5.90176715 218 222 230
-8.25033569 46.3943554 -5.81066382 218 222 230
-8.25033569 45.6165575 -5.52916672 218 222 230
0 50.0465847 -4.42170449 218 222 230
0 45.6165575 -5.52916672 218 222 230
0 46.3943554 -5.81066382 218 222 230
0 47.2164931 -5.90176715 218 222 230
0 48.037051 -5.79738823 218 222 230
0 48.8101977 -5.50335703 218 222 230
0 49.49275 -5.03609634 218 222 230
-8.25033569 -0.100058329 19.7999878 218 222 230
0 -0.100058329 19.7999878 218 222 230
-8.25033569 -0.100058329 -0.199995041 218 222 230
0 -0.100058329 -0.199995041 218 222 230
-5.0003376 -0.100058329 16.5249973 218 222 230
-5.41315712 -0.100058329 16.474872 218 222 230
-5.80198507 -0.100058329 16.327409 218 222 230
-6.14422419 -0.100058329 16.0911784 218 222 230
-6.41998477 -0.100058329 15.779909 218 222 230
-6.61324062 -0.100058329 15.4116908 218 222 230
-6.71276041 -0.100058329 15.0079231 218 222 230
-6.71276041 -0.100058329 14.5920716 218 222 230
-6.61324062 -0.100058329 14.1883039 218 222 230
-6.41998477 -0.100058329 13.8200856 218 222 230
-6.14422419 -0.100058329 13.5088163 218 222 230
-5.80198507 -0.100058329 13.2725857 218 222 230
-5.41315712 -0.100058329 13.1251227 218 222 230
-5.0003376 -0.100058329 13.0749973 218 222 230
-4.58751808 -0.100058329 13.1251227 218 222 230
-4.19869013 -0.100058329 13.2725857 218 222 230
-3.85645102 -0.100058329 13.5088163 218 222 230
-3.58069043 -0.100058329 13.8200856 218 222 230
-3.38743458 -0.100058329 14.1883039 218 222 230
-3.28791479 -0.100058329 14.5920716 218 222 230
-3.28791479 -0.100058329 15.0079231 218 222 230
-3.38743458 -0.100058329 15.4116908 218 222 230
-3.58069043 -0.100058329 15.779909 218 222 230
-3.85645102 -0.100058329 16.0911784 218 222 230
-4.19869013 -0.100058329 16.327409 218 222 230
-4.58751808 -0.100058329 16.474872 218 222 230
-5.0003376 -0.100058329 6.52499733 218 222 230
-5.41315712 -0.100058329 6.47487196 218 222 230
-5.80198507 -0.100058329 6.32740897 218 222 230
-6.14422419 -0.100058329 6.09117837 218 222 230
-6.41998477 -0.100058329 5.77990902 218 222 230
-6.61324062 -0.100058329 5.41169076 218 222 230
-6.71276041 -0.100058329 5.0079231 218 222 230
-6.71276041 -0.100058329 4.59207156 218 222 230
-6.61324062 -0.100058329 4.1883039 218 222 230
-6.41998477 -0.100058329 3.82008564 218 222 230
-6.14422419 -0.100058329 3.50881629 218 222 230
-5.80198507 -0.100058329 3.27258569 218 222 230
-5.41315712 -0.100058329 3.12512269 218 222 230
-5.0003376 -0.100058329 3.07499733 218 222 230
-4.58751808 -0.100058329 3.12512269 218 222 230
-4.19869013 -0.100058329 3.27258569 218 222 230
-3.85645102 -0.100058329 3.50881629 218 222 230
-3.58069043 -0.100058329 3.82008564 218 222 230
-3.38743458 -0.100058329 4.1883039 218 222 230
-3.28791479 -0.100058329 4.59207156 218 222 230
-3.28791479 -0.100058329 5.0079231 218 222 230
-3.38743458 -0.100058329 5.41169076 218 222 230
-3.58069043 -0.100058329 5.77990902 218 222 230
-3.85645102 -0.100058329 6.09117837 218 222 230
-4.19869013 -0.100058329 6.32740897 218 222 230
-4.58751808 -0.100058329 6.47487196 218 222 230
-4.16668592 12.8999417 6.3101794 218 222 230
-4.43115503 12.8999417 6.42838801 218 222 230
-4.71167597 12.8999417 6.50067351 218 222 230
-5.0003376 12.8999417 6.52499733 218 222 230
-5.0003376 5.89994167 6.52499733 218 222 230
-5.0003376 5.89994167 6.52499733 218 222 230
-5.41315712 5.89994167 6.47487196 218 222 230
-5.80198507 5.89994167 6.32740897 218 222 230
-6.14422419 5.89994167 6.09117837 218 222 230
-6.41998477 5.89994167 5.77990902 218 222 230
-6.61324062 5.89994167 5.41169076 218 222 230
-6.71276041 5.89994167 5.0079231 218 222 230
-6.71276041 5.89994167 4.59207156 218 222 230
-6.61324062 5.89994167 4.1883039 218 222 230
-6.41998477 5.89994167 3.82008564 218 222 230
-6.14422419 5.89994167 3.50881629 218 222 230
-5.80198507 5.89994167 3.27258569 218 222 230
-5.41315712 5.89994167 3.12512269 218 222 230
-5.0003376 5.89994167 3.07499733 218 222 230
-4.58751808 5.89994167 3.12512269 218 222 230
-4.19869013 5.89994167 3.27258569 218 222 230
-3.85645102 5.89994167 3.50881629 218 222 230
-3.58069043 5.89994167 3.82008564 218 222 230
-3.38743458 5.89994167 4.1883039 218 222 230
-3.28791479 5.89994167 4.59207156 218 222 230
-3.28791479 5.89994167 5.0079231 218 222 230
-3.38743458 5.89994167 5.41169076 218 222 230
-3.58069043 5.89994167 5.77990902 218 222 230
-3.85645102 5.89994167 6.09117837 218 222 230
-4.19869013 5.89994167 6.32740897 218 222 230
-4.58751808 5.89994167 6.47487196 218 222 230
-5.0003376 12.8999417 6.52499733 218 222 230
-5.28899923 12.8999417 6.50067351 218 222 230
-5.56952017 12.8999417 6.42838801 218 222 230
-5.83398928 12.8999417 6.3101794 218 222 230
-3.94569607 11.943533 6.16504542 218 222 230
-3.65991088 11.0342282 5.88578225 218 222 230
-3.41183889 10.1652248 5.4724403 218 222 230
-3.27925159 9.34918924 4.92078752 218 222 230
-3.31330788 8.80627997 4.44043457 218 222 230
-3.46719844 8.40931735 4.00943804 218 222 230
-3.58919484 8.24655966 3.80790049 218 222 230
-3.83117977 8.04372887 3.53166132 218 222 230
-4.1460799 7.88944139 3.30137488 218 222 230
-4.48206991 7.79821241 3.15470912 218 222 230
-4.81254581 7.7572159 3.08530044 218 222 230
-5.1527295 7.75518207 3.0817846 218 222 230
-5.48503753 7.79206373 3.14449869 218 222 230
-5.79281456 7.86806279 3.26783179 218 222 230
-6.06268392 7.98143183 3.44097097 218 222 230
-6.28654599 8.12852344 3.6505467 218 222 230
-6.46121845 8.30534675 3.88268896 218 222 230
-6.58762226 8.50819987 4.12464023 218 222 230
-6.68863245 8.81161423 4.44588649 218 222 230
-6.7253223 9.18716804 4.78864987 218 222 230
-6.6787109 9.72705498 5.19833309 218 222 230
-6.53634374 10.370972 5.58505396 218 222 230
-6.26494817 11.2728817 5.97318207 218 222 230
-6.0189038 12.0681418 6.19217768 218 222 230
-5.0003376 3.64994167 6.52499733 218 222 230
-4.58751808 3.64994167 6.47487196 218 222 230
-4.19869013 3.64994167 6.32740897 218 222 230
-3.85645102 3.64994167 6.09117837 218 222 230
-3.58069043 3.64994167 5.77990902 218 222 230
-3.38743458 3.64994167 5.41169076 218 222 230
-3.28791479 3.64994167 5.0079231 218 222 230
-3.28791479 3.64994167 4.59207156 218 222 230
-3.38743458 3.64994167 4.1883039 218 222 230
-3.58069043 3.64994167 3.82008564 218 222 230
-3.85645102 3.64994167 3.50881629 218 222 230
-4.19869013 3.64994167 3.27258569 218 222 230
-4.58751808 3.64994167 3.12512269 218 222 230
-5.0003376 3.64994167 3.07499733 218 222 230
-5.41315712 3.64994167 3.12512269 218 222 230
-5.80198507 3.64994167 3.27258569 218 222 230
-6.14422419 3.64994167 3.50881629 218 222 230
-6.41998477 3.64994167 3.82008564 218 222 230
-6.61324062 3.64994167 4.1883039 218 222 230
-6.71276041 3.64994167 4.59207156 218 222 230
-6.71276041 3.64994167 5.0079231 218 222 230
-6.61324062 3.64994167 5.41169076 218 222 230
-6.41998477 3.64994167 5.77990902 218 222 230
-6.14422419 3.64994167 6.09117837 218 222 230
-5.80198507 3.64994167 6.32740897 218 222 230
-5.41315712 3.64994167 6.47487196 218 222 230
-5.0003376 3.64994167 6.52499733 218 222 230
-5.0003376 -0.100058329 6.52499733 218 222 230
-5.0003376 -0.100058329 6.52499733 218 222 230
-5.41315712 -0.100058329 6.47487196 218 222 230
-5.80198507 -0.100058329 6.32740897 218 222 230
-6.14422419 -0.100058329 6.09117837 218 222 230
-6.41998477 -0.100058329 5.77990902 218 222 230
-6.61324062 -0.100058329 5.41169076 218 222 230
-6.71276041 -0.100058329 5.0079231 218 222 230
-6.71276041 -0.100058329 4.59207156 218 222 230
-6.61324062 -0.100058329 4.1883039 218 222 230
-6.41998477 -0.100058329 3.82008564 218 222 230
-6.14422419 -0.100058329 3.50881629 218 222 230
-5.80198507 -0.100058329 3.27258569 218 222 230
-5.41315712 -0.100058329 3.12512269 218 222 230
-5.0003376 -0.100058329 3.07499733 218 222 230
-4.58751808 -0.100058329 3.12512269 218 222 230
-4.19869013 -0.100058329 3.27258569 218 222 230
-3.85645102 -0.100058329 3.50881629 218 222 230
-3.58069043 -0.100058329 3.82008564 218 222 230
-3.38743458 -0.100058329 4.1883039 218 222 230
-3.28791479 -0.100058329 4.59207156 218 222 230
-3.28791479 -0.100058329 5.0079231 218 222 230
-3.38743458 -0.100058329 5.41169076 218 222 230
-3.58069043 -0.100058329 5.77990902 218 222 230
-3.85645102 -0.100058329 6.09117837 218 222 230
-4.19869013 -0.100058329 6.32740897 218 222 230
-4.58751808 -0.100058329 6.47487196 218 222 230
-5.0003376 11.8999417 16.5249973 218 222 230
-5.41315712 11.8999417 16.474872 218 222 230
-5.80198507 11.8999417 16.327409 218 222 230
-6.14422419 11.8999417 16.0911784 218 222 230
-6.41998477 11.8999417 15.779909 218 222 230
-6.61324062 11.8999417 15.4116908 218 222 230
-6.71276041 11.8999417 15.0079231 218 222 230
-6.71276041 11.8999417 14.5920716 218 222 230
-6.61324062 11.8999417 14.1883039 218 222 230
-6.41998477 11.8999417 13.8200856 218 222 230
-6.14422419 11.8999417 13.5088163 218 222 230
-5.80198507 11.8999417 13.2725857 218 222 230
-5.41315712 11.8999417 13.1251227 218 222 230
-5.0003376 11.8999417 13.0749973 218 222 230
-4.58751808 11.8999417 13.1251227 218 222 230
-4.19869013 11.8999417 13.2725857 218 222 230
-3.85645102 11.8999417 13.5088163 218 222 230
-3.58069043 11.8999417 13.8200856 218 222 230
-3.38743458 11.8999417 14.1883039 218 222 230
-3.28791479 11.8999417 14.5920716 218 222 230
-3.28791479 11.8999417 15.0079231 218 222 230
-3.38743458 11.8999417 15.4116908 218 222 230
-3.58069043 11.8999417 15.779909 218 222 230
-3.85645102 11.8999417 16.0911784 218 222 230
-4.19869013 11.8999417 16.327409 218 222 230
-4.58751808 11.8999417 16.474872 218 222 230
-5.0003376 11.8999417 16.5249973 218 222 230
-5.0003376 5.89994167 16.5249973 218 222 230
-5.0003376 5.89994167 16.5249973 218 222 230
-5.41315712 5.89994167 16.474872 218 222 230
-5.80198507 5.89994167 16.327409 218 222 230
-6.14422419 5.89994167 16.0911784 218 222 230
-6.41998477 5.89994167 15.779909 218 222 230
-6.61324062 5.89994167 15.4116908 218 222 230
-6.71276041 5.89994167 15.0079231 218 222 230
-6.71276041 5.89994167 14.5920716 218 222 230
-6.61324062 5.89994167 14.1883039 218 222 230
-6.41998477 5.89994167 13.8200856 218 222 230
-6.14422419 5.89994167 13.5088163 218 222 230
-5.80198507 5.89994167 13.2725857 218 222 230
-5.41315712 5.89994167 13.1251227 218 222 230
-5.0003376 5.89994167 13.0749973 218 222 230
-4.58751808 5.89994167 13.1251227 218 222 230
-4.19869013 5.89994167 13.2725857 218 222 230
-3.85645102 5.89994167 13.5088163 218 222 230
-3.58069043 5.89994167 13.8200856 218 222 230
-3.38743458 5.89994167 14.1883039 218 222 230
-3.28791479 5.89994167 14.5920716 218 222 230
-3.28791479 5.89994167 15.0079231 218 222 230
-3.38743458 5.89994167 15.4116908 218 222 230
-3.58069043 5.89994167 15.779909 218 222 230
-3.85645102 5.89994167 16.0911784 218 222 230
-4.19869013 5.89994167 16.327409 218 222 230
-4.58751808 5.89994167 16.474872 218 222 230
-5.0003376 3.64994167 16.5249973 218 222 230
-4.58751808 3.64994167 16.474872 218 222 230
-4.19869013 3.64994167 16.327409 218 222 230
-3.85645102 3.64994167 16.0911784 218 222 230
-3.58069043 3.64994167 15.779909 218 222 230
-3.38743458 3.64994167 15.4116908 218 222 230
-3.28791479 3.64994167 15.0079231 218 222 230
-3.28791479 3.64994167 14.5920716 218 222 230
-3.38743458 3.64994167 14.1883039 218 222 230
-3.58069043 3.64994167 13.8200856 218 222 230
-3.85645102 3.64994167 13.5088163 218 222 230
-4.19869013 3.64994167 13.2725857 218 222 230
-4.58751808 3.64994167 13.1251227 218 222 230
-5.0003376 3.64994167 13.0749973 218 222 230
-5.41315712 3.64994167 13.1251227 218 222 230
-5.80198507 3.64994167 13.2725857 218 222 230
-6.14422419 3.64994167 13.5088163 218 222 230
-6.41998477 3.64994167 13.8200856 218 222 230
-6.61324062 3.64994167 14.1883039 218 222 230
-6.71276041 3.64994167 14.5920716 218 222 230
-6.71276041 3.64994167 15.0079231 218 222 230
-6.61324062 3.64994167 15.4116908 218 222 230
-6.41998477 3.64994167 15.779909 218 222 230
-6.14422419 3.64994167 16.0911784 218 222 230
-5.80198507 3.64994167 16.327409 218 222 230
-5.41315712 3.64994167 16.474872 218 222 230
-5.0003376 3.64994167 16.5249973 218 222 230
-5.0003376 -0.100058329 16.5249973 218 222 230
-5.0003376 -0.100058329 16.5249973 218 222 230
-5.41315712 -0.100058329 16.474872 218 222 230
-5.80198507 -0.100058329 16.327409 218 222 230
-6.14422419 -0.100058329 16.0911784 218 222 230
-6.41998477 -0.100058329 15.779909 218 222 230
-6.61324062 -0.100058329 15.4116908 218 222 230
-6.71276041 -0.100058329 15.0079231 218 222 230
-6.71276041 -0.100058329 14.5920716 218 222 230
-6.61324062 -0.100058329 14.1883039 218 222 230
-6.41998477 -0.100058329 13.8200856 218 222 230
-6.14422419 -0.100058329 13.5088163 218 222 230
-5.80198507 -0.100058329 13.2725857 218 222 230
-5.41315712 -0.100058329 13.1251227 218 222 230
-5.0003376 -0.100058329 13.0749973 218 222 230
-4.58751808 -0.100058329 13.1251227 218 222 230
-4.19869013 -0.100058329 13.2725857 218 222 230
-3.85645102 -0.100058329 13.5088163 218 222 230
-3.58069043 -0.100058329 13.8200856 218 222 230
-3.38743458 -0.100058329 14.1883039 218 222 230
-3.28791479 -0.100058329 14.5920716 218 222 230
-3.28791479 -0.100058329 15.0079231 218 222 230
-3.38743458 -0.100058329 15.4116908 218 222 230
-3.58069043 -0.100058329 15.779909 218 222 230
-3.85645102 -0.100058329 16.0911784 218 222 230
-4.19869013 -0.100058329 16.327409 218 222 230
-4.58751808 -0.100058329 16.474872 218 222 230
-5.0003376 11.8999417 16.5249973 218 222 230
-5.41315712 11.8999417 16.474872 218 222 230
-5.80198507 11.8999417 16.327409 218 222 230
-6.14422419 11.8999417 16.0911784 218 222 230
-6.41998477 11.8999417 15.779909 218 222 230
-6.61324062 11.8999417 15.4116908 218 222 230
-6.71276041 11.8999417 15.0079231 218 222 230
-6.71276041 11.8999417 14.5920716 218 222 230
-6.61324062 11.8999417 14.1883039 218 222 230
-6.41998477 11.8999417 13.8200856 218 222 230
-6.14422419 11.8999417 13.5088163 218 222 230
-5.80198507 11.8999417 13.2725857 218 222 230
-5.41315712 11.8999417 13.1251227 218 222 230
-5.0003376 11.8999417 13.0749973 218 222 230
-4.58751808 11.8999417 13.1251227 218 222 230
-4.19869013 11.8999417 13.2725857 218 222 230
-3.85645102 11.8999417 13.5088163 218 222 230
-3.58069043 11.8999417 13.8200856 218 222 230
-3.38743458 11.8999417 14.1883039 218 222 230
-3.28791479 11.8999417 14.5920716 218 222 230
-3.28791479 11.8999417 15.0079231 218 222 230
-3.38743458 11.8999417 15.4116908 218 222 230
-3.58069043 11.8999417 15.779909 218 222 230
-3.85645102 11.8999417 16.0911784 218 222 230
-4.19869013 11.8999417 16.327409 218 222 230
-4.58751808 11.8999417 16.474872 218 222 230
-2.00033951 3.64994167 17.7999973 218 222 230
-2.00033951 5.89994167 17.7999973 218 222 230
-2.00033951 5.89994167 11.7999973 218 222 230
-2.00033951 3.64994167 11.7999973 218 222 230
-2.00033951 3.64994167 7.79999733 218 222 230
-2.00033951 5.89994167 7.79999733 218 222 230
-2.00033951 5.89994167 1.79999733 218 222 230
-2.00033951 3.64994167 1.79999733 218 222 230
-2.00033951 3.64994167 1.79999733 218 222 230
-8.25033569 3.64994167 1.79999733 218 222 230
-8.25033569 5.89994167 1.79999733 218 222 230
-2.00033951 5.89994167 1.79999733 218 222 230
-8.25033569 3.64994167 7.79999733 218 222 230
-2.00033951 3.64994167 7.79999733 218 222 230
-8.25033569 3.64994167 1.79999733 218 222 230
-2.00033951 3.64994167 1.79999733 218 222 230
-5.0003376 3.64994167 6.52499733 218 222 230
-4.58751808 3.64994167 6.47487196 218 222 230
-4.19869013 3.64994167 6.32740897 218 222 230
-3.85645102 3.64994167 6.09117837 218 222 230
-3.58069043 3.64994167 5.77990902 218 222 230
-3.38743458 3.64994167 5.41169076 218 222 230
-3.28791479 3.64994167 5.0079231 218 222 230
-3.28791479 3.64994167 4.59207156 218 222 230
-3.38743458 3.64994167 4.1883039 218 222 230
-3.58069043 3.64994167 3.82008564 218 222 230
-3.85645102 3.64994167 3.50881629 218 222 230
-4.19869013 3.64994167 3.27258569 218 222 230
-4.58751808 3.64994167 3.12512269 218 222 230
-5.0003376 3.64994167 3.07499733 218 222 230
-5.41315712 3.64994167 3.12512269 218 222 230
-5.80198507 3.64994167 3.27258569 218 222 230
-6.14422419 3.64994167 3.50881629 218 222 230
-6.41998477 3.64994167 3.82008564 218 222 230
-6.61324062 3.64994167 4.1883039 218 222 230
-6.71276041 3.64994167 4.59207156 218 222 230
-6.71276041 3.64994167 5.0079231 218 222 230
-6.61324062 3.64994167 5.41169076 218 222 230
-6.41998477 3.64994167 5.77990902 218 222 230
-6.14422419 3.64994167 6.09117837 218 222 230
-5.80198507 3.64994167 6.32740897 218 222 230
-5.41315712 3.64994167 6.47487196 218 222 230
-2.00033951 3.64994167 11.7999973 218 222 230
-8.25033569 3.64994167 11.7999973 218 222 230
-8.25033569 5.89994167 11.7999973 218 222 230
-2.00033951 5.89994167 11.7999973 218 222 230
-8.25033569 3.64994167 17.7999973 218 222 230
-2.00033951 3.64994167 17.7999973 218 222 230
-8.25033569 3.64994167 11.7999973 218 222 230
-2.00033951 3.64994167 11.7999973 218 222 230
-5.0003376 3.64994167 16.5249973 218 222 230
-4.58751808 3.64994167 16.474872 218 222 230
-4.19869013 3.64994167 16.327409 218 222 230
-3.85645102 3.64994167 16.0911784 218 222 230
-3.58069043 3.64994167 15.779909 218 222 230
-3.38743458 3.64994167 15.4116908 218 222 230
-3.28791479 3.64994167 15.0079231 218 222 230
-3.28791479 3.64994167 14.5920716 218 222 230
-3.38743458 3.64994167 14.1883039 218 222 230
-3.58069043 3.64994167 13.8200856 218 222 230
-3.85645102 3.64994167 13.5088163 218 222 230
-4.19869013 3.64994167 13.2725857 218 222 230
-4.58751808 3.64994167 13.1251227 218 222 230
-5.0003376 3.64994167 13.0749973 218 222 230
-5.41315712 3.64994167 13.1251227 218 222 230
-5.80198507 3.64994167 13.2725857 218 222 230
-6.14422419 3.64994167 13.5088163 218 222 230
-6.41998477 3.64994167 13.8200856 218 222 230
-6.61324062 3.64994167 14.1883039 218 222 230
-6.71276041 3.64994167 14.5920716 218 222 230
-6.71276041 3.64994167 15.0079231 218 222 230
-6.61324062 3.64994167 15.4116908 218 222 230
-6.41998477 3.64994167 15.779909 218 222 230
-6.14422419 3.64994167 16.0911784 218 222 230
-5.80198507 3.64994167 16.327409 218 222 230
-5.41315712 3.64994167 16.474872 218 222 230
-2.00033951 5.89994167 7.79999733 218 222 230
-8.25033569 5.89994167 7.79999733 218 222 230
-8.25033569 3.64994167 7.79999733 218 222 230
-2.00033951 3.64994167 7.79999733 218 222 230
-2.00033951 5.89994167 7.79999733 218 222 230
-2.00033951 5.89994167 1.79999733 218 222 230
-8.25033569 5.89994167 7.79999733 218 222 230
-8.25033569 5.89994167 1.79999733 218 222 230
-5.0003376 5.89994167 6.52499733 218 222 230
-5.41315712 5.89994167 6.47487196 218 222 230
-5.80198507 5.89994167 6.32740897 218 222 230
-6.14422419 5.89994167 6.09117837 218 222 230
-6.41998477 5.89994167 5.77990902 218 222 230
-6.61324062 5.89994167 5.41169076 218 222 230
-6.71276041 5.89994167 5.0079231 218 222 230
-6.71276041 5.89994167 4.59207156 218 222 230
-6.61324062 5.89994167 4.1883039 218 222 230
-6.41998477 5.89994167 3.82008564 218 222 230
-6.14422419 5.89994167 3.50881629 218 222 230
-5.80198507 5.89994167 3.27258569 218 222 230
-5.41315712 5.89994167 3.12512269 218 222 230
-5.0003376 5.89994167 3.07499733 218 222 230
-4.58751808 5.89994167 3.12512269 218 222 230
-4.19869013 5.89994167 3.27258569 218 222 230
-3.85645102 5.89994167 3.50881629 218 222 230
-3.58069043 5.89994167 3.82008564 218 222 230
-3.38743458 5.89994167 4.1883039 218 222 230
-3.28791479 5.89994167 4.59207156 218 222 230
-3.28791479 5.89994167 5.0079231 218 222 230
-3.38743458 5.89994167 5.41169076 218 222 230
-3.58069043 5.89994167 5.77990902 218 222 230
-3.85645102 5.89994167 6.09117837 218 222 230
-4.19869013 5.89994167 6.32740897 218 222 230
-4.58751808 5.89994167 6.47487196 218 222 230
-2.00033951 5.89994167 17.7999973 218 222 230
-8.25033569 5.89994167 17.7999973 218 222 230
-8.25033569 3.64994167 17.7999973 218 222 230
-2.00033951 3.64994167 17.7999973 218 222 230
-2.00033951 5.89994167 17.7999973 218 222 230
-2.00033951 5.89994167 11.7999973 218 222 230
-8.25033569 5.89994167 17.7999973 218 222 230
-8.25033569 5.89994167 11.7999973 218 222 230
-5.0003376 5.89994167 16.5249973 218 222 230
-5.41315712 5.89994167 16.474872 218 222 230
-5.80198507 5.89994167 16.327409 218 222 230
-6.14422419 5.89994167 16.0911784 218 222 230
-6.41998477 5.89994167 15.779909 218 222 230
-6.61324062 5.89994167 15.4116908 218 222 230
-6.71276041 5.89994167 15.0079231 218 222 230
-6.71276041 5.89994167 14.5920716 218 222 230
-6.61324062 5.89994167 14.1883039 218 222 230
-6.41998477 5.89994167 13.8200856 218 222 230
-6.14422419 5.89994167 13.5088163 218 222 230
-5.80198507 5.89994167 13.2725857 218 222 230
-5.41315712 5.89994167 13.1251227 218 222 230
-5.0003376 5.89994167 13.0749973 218 222 230
-4.58751808 5.89994167 13.1251227 218 222 230
-4.19869013 5.89994167 13.2725857 218 222 230
-3.85645102 5.89994167 13.5088163 218 222 230
-3.58069043 5.89994167 13.8200856 218 222 230
-3.38743458 5.89994167 14.1883039 218 222 230
-3.28791479 5.89994167 14.5920716 218 222 230
-3.28791479 5.89994167 15.0079231 218 222 230
-3.38743458 5.89994167 15.4116908 218 222 230
-3.58069043 5.89994167 15.779909 218 222 230
-3.85645102 5.89994167 16.0911784 218 222 230
-4.19869013 5.89994167 16.327409 218 222 230
-4.58751808 5.89994167 16.474872 218 222 230
0 19.9141043 2.07818824 218 222 230
0 45.6165575 -5.52916672 218 222 230
-8.25033569 19.9141043 2.07818824 218 222 230
-8.25033569 45.6165575 -5.52916672 218 222 230
-8.25033569 19.9141043 2.07818824 255 212 0
-8.25033569 19.7207538 2.15825202 255 212 0
-8.25033569 19.5483002 2.2768033 255 212 0
-8.25033569 19.4042961 2.42865017 255 212 0
-8.25033569 19.2950482 2.60714254 255 212 0
0 19.9141043 2.07818824 255 212 0
0 19.2950482 2.60714254 255 212 0
-1.3509623e-16 19.4042961 2.42865017 255 212 0
-1.68813008e-16 19.5483002 2.2768033 255 212 0
-1.9513668e-16 19.7207538 2.15825202 255 212 0
-8.25033569 19.2671911 2.66491079 218 222 230
-8.25033569 18.5295977 3.83967415 218 222 230
-8.25033569 17.5604893 4.83211646 218 222 230
-8.25033569 16.4036041 5.59744625 218 222 230
-8.25033569 15.1111555 6.10112221 218 222 230
-8.25033569 13.7414749 6.32041215 218 222 230
-8.25033569 12.3563796 6.24541894 218 222 230
-8.25033569 11.0183825 5.87952723 218 222 230
-8.25033569 9.78787088 5.23925065 218 222 230
-8.25033569 8.72038088 4.35348653 218 222 230
-8.25033569 7.8640911 3.26221169 218 222 230
-8.25033569 7.25764809 2.01467819 218 222 230
-8.25033569 6.92842221 0.667190423 218 222 230
0 6.92842221 0.667190423 218 222 230
0 7.25764809 2.01467819 218 222 230
0 7.8640911 3.26221169 218 222 230
0 8.72038088 4.35348653 218 222 230
0 9.78787088 5.23925065 218 222 230
0 11.0183825 5.87952723 218 222 230
0 12.3563796 6.24541894 218 222 230
0 13.7414749 6.32041215 218 222 230
0 15.1111555 6.10112221 218 222 230
0 16.4036041 5.59744625 218 222 230
0 17.5604893 4.83211646 218 222 230
0 18.5295977 3.83967415 218 222 230
0 19.2671911 2.66491079 218 222 230
6.31869629e-16 19.2765399 2.64568516 218 222 230
6.27593904e-16 19.2858256 2.626429 218 222 230
0 19.2950482 2.60714254 218 222 230
-8.25033569 19.2950482 2.60714254 218 222 230
-8.25033569 19.2765399 2.64568516 218 222 230
-8.25033569 19.2858256 2.626429 218 222 230
-5.83398928 12.8999417 6.3101794 218 222 230
-4.16668592 12.8999417 6.3101794 218 222 230
-3.94569607 11.943533 6.16504542 218 222 230
-3.65991088 11.0342282 5.88578225 218 222 230
-3.41183889 10.1652248 5.4724403 218 222 230
-3.27925159 9.34918924 4.92078752 218 222 230
-3.31330788 8.80627997 4.44043457 218 222 230
-3.46719844 8.40931735 4.00943804 218 222 230
-3.58919484 8.24655966 3.80790049 218 222 230
-3.83117977 8.04372887 3.53166132 218 222 230
-4.1460799 7.88944139 3.30137488 218 222 230
-4.48206991 7.79821241 3.15470912 218 222 230
-4.81254581 7.7572159 3.08530044 218 222 230
-5.1527295 7.75518207 3.0817846 218 222 230
-5.48503753 7.79206373 3.14449869 218 222 230
-5.79281456 7.86806279 3.26783179 218 222 230
-6.06268392 7.98143183 3.44097097 218 222 230
-6.28654599 8.12852344 3.6505467 218 222 230
-6.46121845 8.30534675 3.88268896 218 222 230
-6.58762226 8.50819987 4.12464023 218 222 230
-6.68863245 8.81161423 4.44588649 218 222 230
-6.7253223 9.18716804 4.78864987 218 222 230
-6.6787109 9.72705498 5.19833309 218 222 230
-6.53634374 10.370972 5.58505396 218 222 230
-6.26494817 11.2728817 5.97318207 218 222 230
-6.0189038 12.0681418 6.19217768 218 222 230
3 0 4 7
3 1 7 6
3 1 0 7
3 2 6 5
3 2 1 6
3 3 2 5
3 10 8 9
3 10 9 11
3 15 12 13
3 15 14 12
3 70 68 17
3 67 17 68
3 64 17 67
3 66 67 69
3 66 64 67
3 62 17 64
3 16 70 17
3 63 62 64
3 51 52 66
3 53 66 52
3 53 65 66
3 19 16 18
3 50 51 66
3 50 66 69
3 54 65 53
3 49 50 69
3 56 63 65
3 56 62 63
3 55 65 54
3 55 56 65
3 57 56 55
3 59 57 55
3 59 58 57
3 59 61 60
3 59 55 61
3 20 16 19
3 48 49 69
3 48 69 70
3 48 70 16
3 47 48 16
3 46 16 20
3 46 47 16
3 45 46 20
3 44 45 20
3 38 39 40
3 37 38 40
3 36 42 41
3 36 43 42
3 36 40 43
3 36 41 44
3 36 44 20
3 36 37 40
3 93 36 20
3 93 20 94
3 95 94 20
3 92 36 93
3 96 95 20
3 91 36 92
3 90 36 91
3 21 72 71
3 21 73 72
3 21 74 73
3 21 96 20
3 21 71 96
3 75 74 21
3 22 76 75
3 22 75 21
3 23 76 22
3 35 86 85
3 35 87 86
3 35 88 87
3 35 89 88
3 35 90 89
3 35 36 90
3 24 76 23
3 24 77 76
3 34 85 84
3 34 35 85
3 25 77 24
3 25 78 77
3 33 34 84
3 33 84 83
3 26 78 25
3 32 33 83
3 32 83 82
3 27 78 26
3 27 79 78
3 31 32 82
3 31 82 81
3 28 79 27
3 28 80 79
3 29 80 28
3 29 81 80
3 30 31 81
3 30 81 29
3 105 107 106
3 105 108 107
3 105 109 108
3 105 110 109
3 105 104 110
3 111 103 104
3 111 104 105
3 112 103 111
3 102 112 113
3 102 113 114
3 102 114 115
3 102 115 116
3 102 103 112
3 128 126 127
3 129 126 128
3 129 122 123
3 129 123 124
3 129 124 125
3 129 125 126
3 121 122 129
3 101 116 117
3 101 117 118
3 101 118 119
3 101 102 116
3 153 130 154
3 155 154 130
3 152 129 130
3 152 130 153
3 156 130 131
3 156 155 130
3 151 129 152
3 157 131 132
3 157 156 131
3 150 129 151
3 158 132 133
3 158 157 132
3 149 129 150
3 97 99 100
3 97 100 101
3 97 121 129
3 97 119 120
3 97 120 121
3 97 101 119
3 159 133 134
3 159 158 133
3 148 97 129
3 148 129 149
3 160 134 135
3 160 159 134
3 147 97 148
3 136 161 160
3 136 160 135
3 146 97 147
3 137 162 161
3 137 161 136
3 145 97 146
3 144 97 145
3 138 163 162
3 138 162 137
3 139 163 138
3 140 164 163
3 140 163 139
3 141 164 140
3 141 165 164
3 142 165 141
3 98 167 166
3 98 168 167
3 98 169 168
3 98 144 169
3 98 97 144
3 143 165 142
3 143 98 166
3 143 166 165
3 183 170 171
3 182 171 172
3 182 183 171
3 181 172 173
3 181 182 172
3 180 173 174
3 180 181 173
3 179 174 175
3 179 180 174
3 178 175 176
3 178 179 175
3 177 178 176
3 187 185 184
3 187 186 185
3 188 189 194
3 194 189 193
3 193 189 192
3 192 189 191
3 191 189 190
3 225 226 224
3 255 195 196
3 255 252 195
3 256 253 252
3 256 252 255
3 257 196 197
3 257 255 196
3 258 250 251
3 258 254 253
3 258 251 254
3 258 253 256
3 259 256 255
3 259 255 257
3 260 197 198
3 260 257 197
3 261 249 250
3 261 250 258
3 261 256 259
3 261 258 256
3 262 257 260
3 262 259 257
3 263 198 199
3 263 260 198
3 264 249 261
3 264 261 259
3 264 248 249
3 264 259 262
3 265 260 263
3 265 262 260
3 266 199 200
3 266 263 199
3 266 265 263
3 267 247 248
3 267 264 262
3 267 262 265
3 267 248 264
3 268 265 266
3 269 200 201
3 269 201 202
3 269 266 200
3 270 267 265
3 270 246 247
3 270 247 267
3 270 265 268
3 271 268 266
3 271 266 269
3 272 269 202
3 273 245 246
3 273 270 268
3 273 246 270
3 273 268 271
3 274 269 272
3 274 271 269
3 275 202 203
3 275 203 204
3 275 272 202
3 276 271 274
3 276 244 245
3 276 273 271
3 276 245 273
3 277 272 275
3 277 274 272
3 278 275 204
3 279 276 274
3 279 244 276
3 279 243 244
3 279 274 277
3 280 277 275
3 280 275 278
3 281 204 205
3 281 278 204
3 282 242 243
3 282 243 279
3 282 279 277
3 282 277 280
3 283 280 278
3 283 278 281
3 284 205 206
3 284 281 205
3 285 280 283
3 285 242 282
3 285 241 242
3 285 282 280
3 286 283 281
3 286 281 284
3 287 206 207
3 287 284 206
3 288 241 285
3 288 240 241
3 288 285 283
3 288 283 286
3 289 284 287
3 289 286 284
3 290 287 207
3 290 207 208
3 290 289 287
3 291 288 286
3 291 286 289
3 291 240 288
3 291 239 240
3 292 291 289
3 292 289 290
3 293 208 209
3 293 292 290
3 293 290 208
3 294 291 292
3 294 239 291
3 294 238 239
3 295 292 293
3 296 209 210
3 296 293 209
3 297 294 292
3 297 292 295
3 297 238 294
3 297 237 238
3 298 293 296
3 298 295 293
3 299 210 211
3 299 296 210
3 300 297 295
3 300 295 298
3 300 236 237
3 300 237 297
3 301 296 299
3 301 298 296
3 301 300 298
3 302 211 212
3 302 212 213
3 302 299 211
3 303 235 236
3 303 236 300
3 303 300 301
3 304 299 302
3 304 301 299
3 305 302 213
3 306 234 235
3 306 235 303
3 306 303 301
3 306 301 304
3 307 304 302
3 307 302 305
3 308 213 214
3 308 214 215
3 308 305 213
3 309 233 234
3 309 234 306
3 309 306 304
3 309 304 307
3 310 307 305
3 310 305 308
3 311 308 215
3 312 232 233
3 312 233 309
3 312 309 307
3 312 307 310
3 313 310 308
3 313 308 311
3 314 215 216
3 314 311 215
3 315 231 232
3 315 232 312
3 315 312 310
3 315 310 313
3 316 313 311
3 316 311 314
3 317 216 217
3 317 217 218
3 317 314 216
3 318 230 231
3 318 231 315
3 318 315 313
3 318 313 316
3 319 314 317
3 319 316 314
3 320 218 219
3 320 317 218
3 321 318 316
3 321 316 319
3 321 229 230
3 321 230 318
3 322 321 319
3 322 317 320
3 322 319 317
3 323 320 219
3 323 219 220
3 324 321 322
3 324 229 321
3 324 228 229
3 325 322 320
3 325 324 322
3 325 320 323
3 326 323 220
3 326 220 221
3 326 221 222
3 327 324 325
3 327 228 324
3 327 227 228
3 328 325 323
3 328 323 326
3 328 222 223
3 328 223 224
3 328 326 222
3 329 327 325
3 329 325 328
3 329 226 227
3 329 227 327
3 329 328 224
3 329 224 226
3 331 357 330
3 331 358 357
3 332 359 358
3 332 358 331
3 333 360 359
3 333 359 332
3 334 361 360
3 334 360 333
3 335 362 361
3 335 361 334
3 336 363 362
3 336 362 335
3 337 364 363
3 337 363 336
3 338 365 364
3 338 364 337
3 339 366 365
3 339 365 338
3 340 367 366
3 340 366 339
3 341 368 367
3 341 367 340
3 342 368 341
3 342 369 368
3 343 369 342
3 343 370 369
3 344 370 343
3 344 371 370
3 345 371 344
3 345 372 371
3 346 372 345
3 346 373 372
3 347 373 346
3 347 374 373
3 348 374 347
3 348 375 374
3 349 375 348
3 349 376 375
3 350 376 349
3 350 377 376
3 351 377 350
3 351 378 377
3 352 378 351
3 352 379 378
3 353 379 352
3 353 380 379
3 354 381 380
3 354 380 353
3 355 382 381
3 355 381 354
3 356 383 382
3 356 382 355
3 437 409 410
3 436 408 409
3 436 409 437
3 435 407 408
3 435 408 436
3 434 406 407
3 434 407 435
3 433 405 406
3 433 406 434
3 432 404 405
3 432 405 433
3 431 403 404
3 431 404 432
3 430 402 403
3 430 403 431
3 429 401 402
3 429 402 430
3 428 400 401
3 428 401 429
3 427 399 400
3 427 400 428
3 426 398 399
3 426 399 427
3 425 398 426
3 425 397 398
3 424 396 397
3 424 397 425
3 423 395 396
3 423 396 424
3 422 395 423
3 422 394 395
3 421 393 394
3 421 394 422
3 420 392 393
3 420 393 421
3 419 391 392
3 419 392 420
3 418 390 391
3 418 391 419
3 417 389 390
3 417 390 418
3 416 388 389
3 416 389 417
3 415 387 388
3 415 388 416
3 414 386 387
3 414 387 415
3 413 385 386
3 413 386 414
3 412 384 385
3 412 385 413
3 411 384 412
3 438 446 453
3 439 453 452
3 439 438 453
3 440 439 452
3 441 452 451
3 441 440 452
3 442 451 450
3 442 441 451
3 443 450 449
3 443 442 450
3 444 448 447
3 444 449 448
3 444 443 449
3 445 444 447
3 454 457 456
3 454 455 457
3 458 465 471
3 459 458 471
3 460 470 469
3 460 471 470
3 460 459 471
3 461 460 469
3 462 468 467
3 462 469 468
3 462 461 469
3 463 462 467
3 464 467 466
3 464 463 467
3 480 479 472
3 478 472 479
3 481 480 472
3 477 472 478
3 482 481 472
3 476 472 477
3 483 482 472
3 501 472 476
3 473 500 499
3 473 501 500
3 473 472 501
3 498 473 499
3 497 473 498
3 496 473 497
3 495 473 496
3 494 473 495
3 505 486 485
3 506 505 485
3 506 485 484
3 504 487 486
3 504 486 505
3 507 506 484
3 507 484 483
3 503 487 504
3 503 488 487
3 508 507 483
3 508 483 472
3 502 489 488
3 502 488 503
3 527 490 489
3 527 489 502
3 526 491 490
3 526 490 527
3 525 492 491
3 525 491 526
3 524 493 492
3 524 492 525
3 523 494 493
3 523 493 524
3 474 508 472
3 474 509 508
3 474 510 509
3 474 511 510
3 474 512 511
3 474 513 512
3 474 514 513
3 474 515 514
3 516 515 474
3 475 517 516
3 475 518 517
3 475 519 518
3 475 520 519
3 475 521 520
3 475 522 521
3 475 523 522
3 475 516 474
3 475 473 494
3 475 494 523
3 530 532 531
3 530 558 532
3 529 557 558
3 529 558 530
3 528 557 529
3 563 556 557
3 563 557 528
3 564 555 556
3 564 556 563
3 565 554 555
3 565 555 564
3 566 552 553
3 566 553 554
3 566 554 565
3 567 551 552
3 567 552 566
3 568 550 551
3 568 551 567
3 569 550 568
3 570 549 550
3 570 550 569
3 571 549 570
3 571 548 549
3 572 548 571
3 572 547 548
3 573 547 572
3 573 546 547
3 574 546 573
3 545 546 574
3 575 545 574
3 544 545 575
3 576 544 575
3 577 543 544
3 577 544 576
3 578 542 543
3 578 543 577
3 579 542 578
3 541 542 579
3 580 541 579
3 581 540 541
3 581 541 580
3 582 539 540
3 582 540 581
3 583 538 539
3 583 539 582
3 584 537 538
3 584 538 583
3 585 536 537
3 585 537 584
3 586 535 536
3 586 536 585
3 562 535 586
3 561 534 535
3 561 535 562
3 560 533 534
3 560 534 561
3 559 533 560
3 588 614 587
3 588 640 614
3 589 638 639
3 589 639 640
3 589 640 588
3 590 637 638
3 590 638 589
3 591 636 637
3 591 637 590
3 592 635 636
3 592 636 591
3 593 634 635
3 593 635 592
3 594 633 634
3 594 634 593
3 595 632 633
3 595 633 594
3 596 631 632
3 596 632 595
3 597 630 631
3 597 631 596
3 598 629 630
3 598 630 597
3 599 629 598
3 600 629 599
3 600 628 629
3 601 628 600
3 601 627 628
3 602 627 601
3 602 626 627
3 603 626 602
3 603 625 626
3 604 625 603
3 604 624 625
3 605 624 604
3 605 623 624
3 606 622 623
3 606 623 605
3 607 621 622
3 607 622 606
3 608 620 621
3 608 621 607
3 609 619 620
3 609 620 608
3 610 617 618
3 610 618 619
3 610 619 609
3 611 617 610
3 612 616 617
3 612 617 611
3 613 615 616
3 613 616 612
3 667 694 668
3 666 693 694
3 666 694 667
3 665 692 693
3 665 693 666
3 664 691 692
3 664 692 665
3 663 690 691
3 663 691 664
3 662 689 690
3 662 690 663
3 661 688 689
3 661 689 662
3 660 687 688
3 660 688 661
3 659 686 687
3 659 687 660
3 658 685 686
3 658 686 659
3 657 684 685
3 657 685 658
3 656 683 684
3 656 684 657
3 655 683 656
3 654 683 655
3 654 682 683
3 653 682 654
3 653 681 682
3 652 681 653
3 652 680 681
3 651 680 652
3 651 679 680
3 650 679 651
3 650 678 679
3 649 678 650
3 649 677 678
3 648 676 677
3 648 677 649
3 647 675 676
3 647 676 648
3 646 674 675
3 646 675 647
3 645 673 674
3 645 674 646
3 644 672 673
3 644 673 645
3 643 671 672
3 643 672 644
3 642 670 671
3 642 671 643
3 641 669 670
3 641 670 642
3 696 722 695
3 696 748 722
3 697 747 748
3 697 748 696
3 698 745 746
3 698 746 747
3 698 747 697
3 699 744 745
3 699 745 698
3 700 743 744
3 700 744 699
3 701 742 743
3 701 743 700
3 702 741 742
3 702 742 701
3 703 740 741
3 703 741 702
3 704 739 740
3 704 740 703
3 705 739 704
3 706 739 705
3 706 738 739
3 707 738 706
3 707 737 738
3 708 737 707
3 708 736 737
3 709 736 708
3 709 735 736
3 710 735 709
3 710 734 735
3 711 734 710
3 711 733 734
3 712 733 711
3 712 732 733
3 713 732 712
3 713 731 732
3 714 730 731
3 714 731 713
3 715 730 714
3 715 729 730
3 716 728 729
3 716 729 715
3 717 728 716
3 717 727 728
3 718 726 727
3 718 727 717
3 719 725 726
3 719 726 718
3 720 724 725
3 720 725 719
3 721 723 724
3 721 724 720
3 772 773 774
3 759 756 757
3 759 757 758
3 760 756 759
3 770 771 772
3 763 751 752
3 763 752 753
3 763 753 754
3 763 754 755
3 763 755 756
3 763 760 761
3 763 761 762
3 763 756 760
3 767 768 769
3 766 769 770
3 766 767 769
3 765 749 750
3 765 750 751
3 765 763 764
3 765 774 749
3 765 772 774
3 765 770 772
3 765 751 763
3 765 766 770
3 777 775 776
3 777 778 775
3 781 779 780
3 781 782 779
3 784 783 786
3 785 784 786
3 813 787 814
3 815 814 787
3 812 787 813
3 816 815 787
3 811 787 812
3 791 816 787
3 789 809 808
3 789 810 809
3 789 811 810
3 789 787 811
3 788 792 791
3 788 793 792
3 788 794 793
3 788 791 787
3 807 789 808
3 795 794 788
3 806 789 807
3 796 795 788
3 805 789 806
3 797 796 788
3 804 789 805
3 790 799 798
3 790 800 799
3 790 801 800
3 790 802 801
3 790 803 802
3 790 804 803
3 790 789 804
3 790 798 788
3 798 797 788
3 818 817 820
3 819 818 820
3 847 821 848
3 849 848 821
3 846 821 847
3 850 849 821
3 845 821 846
3 825 850 821
3 823 843 842
3 823 844 843
3 823 845 844
3 823 821 845
3 822 826 825
3 822 827 826
3 822 828 827
3 822 825 821
3 841 823 842
3 829 828 822
3 840 823 841
3 830 829 822
3 839 823 840
3 831 830 822
3 838 823 839
3 824 833 832
3 824 834 833
3 824 835 834
3 824 836 835
3 824 837 836
3 824 838 837
3 824 823 838
3 824 832 822
3 832 831 822
3 854 853 852
3 851 854 852
3 863 862 857
3 861 857 862
3 864 863 857
3 860 857 861
3 865 864 857
3 859 857 860
3 858 866 865
3 858 867 866
3 858 868 867
3 858 865 857
3 855 883 882
3 855 884 883
3 855 859 884
3 855 857 859
3 869 868 858
3 881 855 882
3 870 869 858
3 880 855 881
3 871 870 858
3 879 855 880
3 872 871 858
3 856 873 872
3 856 874 873
3 856 875 874
3 856 876 875
3 856 877 876
3 856 878 877
3 856 872 858
3 856 855 878
3 878 855 879
3 888 887 886
3 885 888 886
3 897 896 891
3 895 891 896
3 898 897 891
3 894 891 895
3 899 898 891
3 893 891 894
3 892 900 899
3 892 901 900
3 892 902 901
3 892 899 891
3 889 917 916
3 889 918 917
3 889 893 918
3 889 891 893
3 903 902 892
3 915 889 916
3 904 903 892
3 914 889 915
3 905 904 892
3 913 889 914
3 906 905 892
3 890 907 906
3 890 908 907
3 890 909 908
3 890 910 909
3 890 911 910
3 890 912 911
3 890 906 892
3 890 889 912
3 912 889 913
3 920 919 921
3 920 921 922
3 930 926 925
3 930 927 926
3 930 929 927
3 931 925 924
3 931 930 925
3 932 924 923
3 932 931 924
3 928 932 923
3 961 964 962
3 960 964 961
3 959 963 964
3 959 964 960
3 958 933 963
3 958 963 959
3 957 934 933
3 957 935 934
3 957 933 958
3 956 936 935
3 956 935 957
3 955 937 936
3 955 936 956
3 954 938 937
3 954 937 955
3 965 939 938
3 966 965 938
3 953 966 938
3 953 938 954
3 990 939 965
3 989 939 990
3 989 940 939
3 952 966 953
3 952 967 966
3 988 940 989
3 941 940 988
3 987 941 988
3 951 967 952
3 951 968 967
3 969 968 951
3 986 941 987
3 942 941 986
3 985 942 986
3 950 969 951
3 950 970 969
3 984 942 985
3 983 942 984
3 943 942 983
3 982 943 983
3 981 943 982
3 980 943 981
3 949 970 950
3 949 971 970
3 949 972 971
3 949 973 972
3 979 943 980
3 944 978 977
3 944 979 978
3 944 943 979
3 948 973 949
3 948 974 973
3 948 975 974
3 948 976 975
3 947 945 944
3 947 977 976
3 947 976 948
3 947 944 977
3 946 945 947
