ply
format ascii 1.0
comment generated by blendit.inference.finetune_visualize
element vertex 904
property float x
property float y
property float z
property uchar red
property uchar green
property uchar blue
element face 1132
property list uchar int vertex_indices
end_header
795 5 0 255 79 163
795 5 0 255 79 163
796.112605 5 0.125360439 255 79 163
797.169419 5 0.49515566 255 79 163
798.117449 5 1.09084259 255 79 163
798.909157 5 1.88255099 255 79 163
799.504844 5 2.8305813 255 79 163
799.87464 5 3.88739533 255 79 163
800 5 5 255 79 163
799.87464 3.88739533 5 255 79 163
799.504844 2.8305813 5 255 79 163
798.909157 1.88255099 5 255 79 163
798.117449 1.09084259 5 255 79 163
797.169419 0.49515566 5 255 79 163
796.112605 0.125360439 5 255 79 163
795 0 5 255 79 163
795 0.125360439 3.88739533 255 79 163
795 0.49515566 2.8305813 255 79 163
795 1.09084259 1.88255099 255 79 163
795 1.88255099 1.09084259 255 79 163
795 2.8305813 0.49515566 255 79 163
795 3.88739533 0.125360439 255 79 163
795.124572 3.89439115 0.125360439 255 79 163
795.36747 3.949831 0.125360439 255 79 163
795.591941 4.0579307 0.125360439 255 79 163
795.482741 2.88497316 0.49515566 255 79 163
795.78673 4.21326969 0.125360439 255 79 163
795.941275 3.04542129 0.49515566 255 79 163
795.349044 1.90215286 1.09084259 255 79 163
795.942069 4.40805863 0.125360439 255 79 163
796.35261 3.30388017 0.49515566 255 79 163
796.029628 2.05749185 1.09084259 255 79 163
796.050169 4.63252997 0.125360439 255 79 163
796.69612 3.64738957 0.49515566 255 79 163
796.658583 2.36038048 1.09084259 255 79 163
795.869869 1.18885333 1.88255099 255 79 163
796.105609 4.8754278 0.125360439 255 79 163
796.954579 4.0587245 0.49515566 255 79 163
797.204369 2.79563067 1.09084259 255 79 163
796.69612 1.47797087 1.88255099 255 79 163
795.504383 0.523481176 2.8305813 255 79 163
797.115027 4.51725893 0.49515566 255 79 163
797.63962 3.34141713 1.09084259 255 79 163
797.43732 1.94369767 1.88255099 255 79 163
796.487856 0.747952522 2.8305813 255 79 163
797.942508 3.97037187 1.09084259 255 79 163
798.056302 2.56268022 1.88255099 255 79 163
797.396722 1.18563928 2.8305813 255 79 163
796.084709 0.24757783 3.88739533 255 79 163
798.097847 4.65095645 1.09084259 255 79 163
798.522029 3.30388017 1.88255099 255 79 163
798.185406 1.81459402 2.8305813 255 79 163
797.115027 0.608101513 3.88739533 255 79 163
798.811147 4.13013064 1.88255099 255 79 163
798.814361 2.60327831 2.8305813 255 79 163
798.039288 1.18885333 3.88739533 255 79 163
799.252047 3.51214424 2.8305813 255 79 163
798.811147 1.96071195 3.88739533 255 79 163
799.476519 4.49561746 2.8305813 255 79 163
799.391898 2.88497316 3.88739533 255 79 163
799.752422 3.91529065 3.88739533 255 79 163
800 5 95 255 212 0
799.87464 5 96.1126047 255 212 0
799.504844 5 97.1694187 255 212 0
798.909157 5 98.117449 255 212 0
798.117449 5 98.9091574 255 212 0
797.169419 5 99.5048443 255 212 0
796.112605 5 99.8746396 255 212 0
795 5 100 255 212 0
800 795 95 255 212 0
795 795 100 255 212 0
796.112605 795 99.8746396 255 212 0
797.169419 795 99.5048443 255 212 0
798.117449 795 98.9091574 255 212 0
798.909157 795 98.117449 255 212 0
799.504844 795 97.1694187 255 212 0
799.87464 795 96.1126047 255 212 0
795 5 100 255 79 163
795 5 100 255 79 163
795 3.88739533 99.8746396 255 79 163
795 2.8305813 99.5048443 255 79 163
795 1.88255099 98.9091574 255 79 163
795 1.09084259 98.117449 255 79 163
795 0.49515566 97.1694187 255 79 163
795 0.125360439 96.1126047 255 79 163
795 0 95 255 79 163
796.112605 0.125360439 95 255 79 163
797.169419 0.49515566 95 255 79 163
798.117449 1.09084259 95 255 79 163
798.909157 1.88255099 95 255 79 163
799.504844 2.8305813 95 255 79 163
799.87464 3.88739533 95 255 79 163
800 5 95 255 79 163
799.87464 5 96.1126047 255 79 163
799.504844 5 97.1694187 255 79 163
798.909157 5 98.117449 255 79 163
798.117449 5 98.9091574 255 79 163
797.169419 5 99.5048443 255 79 163
796.112605 5 99.8746396 255 79 163
795.545786 0.156011149 96.1126047 255 79 163
796.609991 0.398908977 96.1126047 255 79 163
797.593465 0.872524721 96.1126047 255 79 163
796.002422 0.608101513 97.1694187 255 79 163
798.446891 1.55310931 96.1126047 255 79 163
796.954579 0.941275495 97.1694187 255 79 163
795.437687 1.11542255 98.117449 255 79 163
799.127475 2.40653539 96.1126047 255 79 163
797.808725 1.47797087 97.1694187 255 79 163
796.291113 1.31021148 98.117449 255 79 163
799.601091 3.39000862 96.1126047 255 79 163
798.522029 2.1912755 97.1694187 255 79 163
797.079797 1.69002182 98.117449 255 79 163
795.693698 1.96071195 98.9091574 255 79 163
799.843989 4.45421354 96.1126047 255 79 163
799.058725 3.04542129 97.1694187 255 79 163
797.764192 2.23580829 98.117449 255 79 163
796.35261 2.1912755 98.9091574 255 79 163
795.242898 2.84422215 99.5048443 255 79 163
799.391898 3.99757783 97.1694187 255 79 163
798.309978 2.92020286 98.117449 255 79 163
796.943698 2.56268022 98.9091574 255 79 163
795.716514 2.95232186 99.5048443 255 79 163
798.689789 3.70888716 98.117449 255 79 163
797.43732 3.05630233 98.9091574 255 79 163
796.1542 3.16310069 99.5048443 255 79 163
795.247578 3.91529065 99.8746396 255 79 163
798.884577 4.56231324 98.117449 255 79 163
797.808725 3.64738957 98.9091574 255 79 163
796.534011 3.46598933 99.5048443 255 79 163
795.482741 3.99757783 99.8746396 255 79 163
798.039288 4.30630233 98.9091574 255 79 163
796.836899 3.84579967 99.5048443 255 79 163
795.693698 4.13013064 99.8746396 255 79 163
797.047678 4.28348643 99.5048443 255 79 163
795.869869 4.30630233 99.8746396 255 79 163
797.155778 4.75710217 99.5048443 255 79 163
796.002422 4.51725893 99.8746396 255 79 163
796.084709 4.75242217 99.8746396 255 79 163
795 800 95 218 222 230
795 800 5 218 222 230
5 800 5 218 222 230
5 800 95 218 222 230
0 795 95 218 222 230
0 795 5 218 222 230
0 5 5 218 222 230
0 5 95 218 222 230
25 25 100 255 212 0
26.1286095 26.1286095 99.8709589 255 212 0
27.1989641 27.1989641 99.4904963 255 212 0
28.1335948 28.1335948 98.8962269 255 212 0
28.894495 28.894495 98.1357469 255 212 0
29.4581212 29.4581212 97.2638806 255 212 0
29.8015762 29.8015762 96.3945844 255 212 0
29.9501455 29.9501455 95.7043149 255 212 0
30 30 95 255 212 0
775 25 100 255 212 0
773.871391 26.1286095 99.8709589 255 212 0
772.801036 27.1989641 99.4904963 255 212 0
771.866405 28.1335948 98.8962269 255 212 0
771.105505 28.894495 98.1357469 255 212 0
770.541879 29.4581212 97.2638806 255 212 0
770.198424 29.8015762 96.3945844 255 212 0
770.049854 29.9501455 95.7043149 255 212 0
770 30 95 255 212 0
775 775 100 255 212 0
773.871391 773.871391 99.8709589 255 212 0
772.801036 772.801036 99.4904963 255 212 0
771.866405 771.866405 98.8962269 255 212 0
771.105505 771.105505 98.1357469 255 212 0
770.541879 770.541879 97.2638806 255 212 0
770.198424 770.198424 96.3945844 255 212 0
770.049854 770.049854 95.7043149 255 212 0
770 770 95 255 212 0
770 30 95 255 212 0
775 25 100 255 212 0
773.871391 26.1286095 99.8709589 255 212 0
772.801036 27.1989641 99.4904963 255 212 0
771.866405 28.1335948 98.8962269 255 212 0
771.105505 28.894495 98.1357469 255 212 0
770.541879 29.4581212 97.2638806 255 212 0
770.198424 29.8015762 96.3945844 255 212 0
770.049854 29.9501455 95.7043149 255 212 0
25 775 100 255 212 0
26.1286095 773.871391 99.8709589 255 212 0
27.1989641 772.801036 99.4904963 255 212 0
28.1335948 771.866405 98.8962269 255 212 0
28.894495 771.105505 98.1357469 255 212 0
29.4581212 770.541879 97.2638806 255 212 0
29.8015762 770.198424 96.3945844 255 212 0
29.9501455 770.049854 95.7043149 255 212 0
30 770 95 255 212 0
25 25 100 255 212 0
26.1286095 26.1286095 99.8709589 255 212 0
27.1989641 27.1989641 99.4904963 255 212 0
28.1335948 28.1335948 98.8962269 255 212 0
28.894495 28.894495 98.1357469 255 212 0
29.4581212 29.4581212 97.2638806 255 212 0
29.8015762 29.8015762 96.3945844 255 212 0
29.9501455 29.9501455 95.7043149 255 212 0
30 30 95 255 212 0
775 775 100 255 212 0
773.871391 773.871391 99.8709589 255 212 0
772.801036 772.801036 99.4904963 255 212 0
771.866405 771.866405 98.8962269 255 212 0
771.105505 771.105505 98.1357469 255 212 0
770.541879 770.541879 97.2638806 255 212 0
770.198424 770.198424 96.3945844 255 212 0
770.049854 770.049854 95.7043149 255 212 0
770 770 95 255 212 0
25 775 100 255 212 0
26.1286095 773.871391 99.8709589 255 212 0
27.1989641 772.801036 99.4904963 255 212 0
28.1335948 771.866405 98.8962269 255 212 0
28.894495 771.105505 98.1357469 255 212 0
29.4581212 770.541879 97.2638806 255 212 0
29.8015762 770.198424 96.3945844 255 212 0
29.9501455 770.049854 95.7043149 255 212 0
30 770 95 255 212 0
35 35 70 255 212 0
765 35 70 255 212 0
770 30 75 255 212 0
769.925954 30.0740458 74.1426933 255 212 0
769.70601 30.2939899 73.3107785 255 212 0
769.346682 30.6533181 72.5288957 255 212 0
768.858612 31.1413877 71.8202027 255 212 0
768.256257 31.7437427 71.20569 255 212 0
767.557457 32.4425426 70.7035582 255 212 0
766.511808 33.4881921 70.2340335 255 212 0
765.764908 34.2350924 70.0588548 255 212 0
30 30 75 255 212 0
30.0740458 30.0740458 74.1426933 255 212 0
30.2939899 30.2939899 73.3107785 255 212 0
30.6533181 30.6533181 72.5288957 255 212 0
31.1413877 31.1413877 71.8202027 255 212 0
31.7437427 31.7437427 71.20569 255 212 0
32.4425426 32.4425426 70.7035582 255 212 0
33.4881921 33.4881921 70.2340335 255 212 0
34.2350924 34.2350924 70.0588548 255 212 0
770 30 75 255 212 0
770 770 75 255 212 0
769.925954 30.0740458 74.1426933 255 212 0
769.70601 30.2939899 73.3107785 255 212 0
769.346682 30.6533181 72.5288957 255 212 0
768.858612 31.1413877 71.8202027 255 212 0
768.256257 31.7437427 71.20569 255 212 0
767.557457 32.4425426 70.7035582 255 212 0
766.511808 33.4881921 70.2340335 255 212 0
765.764908 34.2350924 70.0588548 255 212 0
765 35 70 255 212 0
765 765 70 255 212 0
769.925954 769.925954 74.1426933 255 212 0
769.70601 769.70601 73.3107785 255 212 0
769.346682 769.346682 72.5288957 255 212 0
768.858612 768.858612 71.8202027 255 212 0
768.256257 768.256257 71.20569 255 212 0
767.557457 767.557457 70.7035582 255 212 0
766.511808 766.511808 70.2340335 255 212 0
765.764908 765.764908 70.0588548 255 212 0
35 765 70 255 212 0
35 35 70 255 212 0
30 30 75 255 212 0
30.0740458 30.0740458 74.1426933 255 212 0
30.2939899 30.2939899 73.3107785 255 212 0
30.6533181 30.6533181 72.5288957 255 212 0
31.1413877 31.1413877 71.8202027 255 212 0
31.7437427 31.7437427 71.20569 255 212 0
32.4425426 32.4425426 70.7035582 255 212 0
33.4881921 33.4881921 70.2340335 255 212 0
34.2350924 34.2350924 70.0588548 255 212 0
30 770 75 255 212 0
30.0740458 769.925954 74.1426933 255 212 0
30.2939899 769.70601 73.3107785 255 212 0
30.6533181 769.346682 72.5288957 255 212 0
31.1413877 768.858612 71.8202027 255 212 0
31.7437427 768.256257 71.20569 255 212 0
32.4425426 767.557457 70.7035582 255 212 0
33.4881921 766.511808 70.2340335 255 212 0
34.2350924 765.764908 70.0588548 255 212 0
765 765 70 255 212 0
35 765 70 255 212 0
30 770 75 255 212 0
30.0740458 769.925954 74.1426933 255 212 0
30.2939899 769.70601 73.3107785 255 212 0
30.6533181 769.346682 72.5288957 255 212 0
31.1413877 768.858612 71.8202027 255 212 0
31.7437427 768.256257 71.20569 255 212 0
32.4425426 767.557457 70.7035582 255 212 0
33.4881921 766.511808 70.2340335 255 212 0
34.2350924 765.764908 70.0588548 255 212 0
770 770 75 255 212 0
769.925954 769.925954 74.1426933 255 212 0
769.70601 769.70601 73.3107785 255 212 0
769.346682 769.346682 72.5288957 255 212 0
768.858612 768.858612 71.8202027 255 212 0
768.256257 768.256257 71.20569 255 212 0
767.557457 767.557457 70.7035582 255 212 0
766.511808 766.511808 70.2340335 255 212 0
765.764908 765.764908 70.0588548 255 212 0
5 800 95 255 212 0
3.88739533 799.87464 95 255 212 0
2.8305813 799.504844 95 255 212 0
1.88255099 798.909157 95 255 212 0
1.09084259 798.117449 95 255 212 0
0.49515566 797.169419 95 255 212 0
0.125360439 796.112605 95 255 212 0
0 795 95 255 212 0
5 800 5 255 212 0
0 795 5 255 212 0
0.125360439 796.112605 5 255 212 0
0.49515566 797.169419 5 255 212 0
1.09084259 798.117449 5 255 212 0
1.88255099 798.909157 5 255 212 0
2.8305813 799.504844 5 255 212 0
3.88739533 799.87464 5 255 212 0
5 800 5 255 79 163
5 799.87464 3.88739533 255 79 163
5 799.504844 2.8305813 255 79 163
5 798.909157 1.88255099 255 79 163
5 798.117449 1.09084259 255 79 163
5 797.169419 0.49515566 255 79 163
5 796.112605 0.125360439 255 79 163
5 795 0 255 79 163
5 795 0 255 79 163
3.88739533 795 0.125360439 255 79 163
2.8305813 795 0.49515566 255 79 163
1.88255099 795 1.09084259 255 79 163
1.09084259 795 1.88255099 255 79 163
0.49515566 795 2.8305813 255 79 163
0.125360439 795 3.88739533 255 79 163
0 795 5 255 79 163
0.125360439 796.112605 5 255 79 163
0.49515566 797.169419 5 255 79 163
1.09084259 798.117449 5 255 79 163
1.88255099 798.909157 5 255 79 163
2.8305813 799.504844 5 255 79 163
3.88739533 799.87464 5 255 79 163
4.8754278 796.105609 0.125360439 255 79 163
4.63252997 796.050169 0.125360439 255 79 163
4.40805863 795.942069 0.125360439 255 79 163
4.51725893 797.115027 0.49515566 255 79 163
4.21326969 795.78673 0.125360439 255 79 163
4.0587245 796.954579 0.49515566 255 79 163
4.65095645 798.097847 1.09084259 255 79 163
4.0579307 795.591941 0.125360439 255 79 163
3.64738957 796.69612 0.49515566 255 79 163
3.97037187 797.942508 1.09084259 255 79 163
3.949831 795.36747 0.125360439 255 79 163
3.30388017 796.35261 0.49515566 255 79 163
3.34141713 797.63962 1.09084259 255 79 163
4.13013064 798.811147 1.88255099 255 79 163
3.89439115 795.124572 0.125360439 255 79 163
3.04542129 795.941275 0.49515566 255 79 163
2.79563067 797.204369 1.09084259 255 79 163
3.30388017 798.522029 1.88255099 255 79 163
4.49561746 799.476519 2.8305813 255 79 163
2.88497316 795.482741 0.49515566 255 79 163
2.36038048 796.658583 1.09084259 255 79 163
2.56268022 798.056302 1.88255099 255 79 163
3.51214424 799.252047 2.8305813 255 79 163
2.05749185 796.029628 1.09084259 255 79 163
1.94369767 797.43732 1.88255099 255 79 163
2.60327831 798.814361 2.8305813 255 79 163
3.91529065 799.752422 3.88739533 255 79 163
1.90215286 795.349044 1.09084259 255 79 163
1.47797087 796.69612 1.88255099 255 79 163
1.81459402 798.185406 2.8305813 255 79 163
2.88497316 799.391898 3.88739533 255 79 163
1.18885333 795.869869 1.88255099 255 79 163
1.18563928 797.396722 2.8305813 255 79 163
1.96071195 798.811147 3.88739533 255 79 163
0.747952522 796.487856 2.8305813 255 79 163
1.18885333 798.039288 3.88739533 255 79 163
0.523481176 795.504383 2.8305813 255 79 163
0.608101513 797.115027 3.88739533 255 79 163
0.24757783 796.084709 3.88739533 255 79 163
0 795 95 255 79 163
0.125360439 795 96.1126047 255 79 163
0.49515566 795 97.1694187 255 79 163
1.09084259 795 98.117449 255 79 163
1.88255099 795 98.9091574 255 79 163
2.8305813 795 99.5048443 255 79 163
3.88739533 795 99.8746396 255 79 163
5 795 100 255 79 163
5 795 100 255 79 163
5 796.112605 99.8746396 255 79 163
5 797.169419 99.5048443 255 79 163
5 798.117449 98.9091574 255 79 163
5 798.909157 98.117449 255 79 163
5 799.504844 97.1694187 255 79 163
5 799.87464 96.1126047 255 79 163
5 800 95 255 79 163
3.88739533 799.87464 95 255 79 163
2.8305813 799.504844 95 255 79 163
1.88255099 798.909157 95 255 79 163
1.09084259 798.117449 95 255 79 163
0.49515566 797.169419 95 255 79 163
0.125360439 796.112605 95 255 79 163
4.45421354 799.843989 96.1126047 255 79 163
3.39000862 799.601091 96.1126047 255 79 163
2.40653539 799.127475 96.1126047 255 79 163
3.99757783 799.391898 97.1694187 255 79 163
1.55310931 798.446891 96.1126047 255 79 163
3.04542129 799.058725 97.1694187 255 79 163
4.56231324 798.884577 98.117449 255 79 163
0.872524721 797.593465 96.1126047 255 79 163
2.1912755 798.522029 97.1694187 255 79 163
3.70888716 798.689789 98.117449 255 79 163
0.398908977 796.609991 96.1126047 255 79 163
1.47797087 797.808725 97.1694187 255 79 163
2.92020286 798.309978 98.117449 255 79 163
4.30630233 798.039288 98.9091574 255 79 163
0.156011149 795.545786 96.1126047 255 79 163
0.941275495 796.954579 97.1694187 255 79 163
2.23580829 797.764192 98.117449 255 79 163
3.64738957 797.808725 98.9091574 255 79 163
4.75710217 797.155778 99.5048443 255 79 163
0.608101513 796.002422 97.1694187 255 79 163
1.69002182 797.079797 98.117449 255 79 163
3.05630233 797.43732 98.9091574 255 79 163
4.28348643 797.047678 99.5048443 255 79 163
1.31021148 796.291113 98.117449 255 79 163
2.56268022 796.943698 98.9091574 255 79 163
3.84579967 796.836899 99.5048443 255 79 163
4.75242217 796.084709 99.8746396 255 79 163
1.11542255 795.437687 98.117449 255 79 163
2.1912755 796.35261 98.9091574 255 79 163
3.46598933 796.534011 99.5048443 255 79 163
4.51725893 796.002422 99.8746396 255 79 163
1.96071195 795.693698 98.9091574 255 79 163
3.16310069 796.1542 99.5048443 255 79 163
4.30630233 795.869869 99.8746396 255 79 163
2.95232186 795.716514 99.5048443 255 79 163
4.13013064 795.693698 99.8746396 255 79 163
2.84422215 795.242898 99.5048443 255 79 163
3.99757783 795.482741 99.8746396 255 79 163
3.91529065 795.247578 99.8746396 255 79 163
795 795 0 255 212 0
795 796.112605 0.125360439 255 212 0
795 797.169419 0.49515566 255 212 0
795 798.117449 1.09084259 255 212 0
795 798.909157 1.88255099 255 212 0
795 799.504844 2.8305813 255 212 0
795 799.87464 3.88739533 255 212 0
795 800 5 255 212 0
5 795 0 255 212 0
5 800 5 255 212 0
5 799.87464 3.88739533 255 212 0
5 799.504844 2.8305813 255 212 0
5 798.909157 1.88255099 255 212 0
5 798.117449 1.09084259 255 212 0
5 797.169419 0.49515566 255 212 0
5 796.112605 0.125360439 255 212 0
0 5 5 255 212 0
0.125360439 5 3.88739533 255 212 0
0.49515566 5 2.8305813 255 212 0
1.09084259 5 1.88255099 255 212 0
1.88255099 5 1.09084259 255 212 0
2.8305813 5 0.49515566 255 212 0
3.88739533 5 0.125360439 255 212 0
5 5 0 255 212 0
0 795 5 255 212 0
5 795 0 255 212 0
3.88739533 795 0.125360439 255 212 0
2.8305813 795 0.49515566 255 212 0
1.88255099 795 1.09084259 255 212 0
1.09084259 795 1.88255099 255 212 0
0.49515566 795 2.8305813 255 212 0
0.125360439 795 3.88739533 255 212 0
5 5 100 255 212 0
3.88739533 5 99.8746396 255 212 0
2.8305813 5 99.5048443 255 212 0
1.88255099 5 98.9091574 255 212 0
1.09084259 5 98.117449 255 212 0
0.49515566 5 97.1694187 255 212 0
0.125360439 5 96.1126047 255 212 0
0 5 95 255 212 0
5 795 100 255 212 0
0 795 95 255 212 0
0.125360439 795 96.1126047 255 212 0
0.49515566 795 97.1694187 255 212 0
1.09084259 795 98.117449 255 212 0
1.88255099 795 98.9091574 255 212 0
2.8305813 795 99.5048443 255 212 0
3.88739533 795 99.8746396 255 212 0
795 800 95 255 212 0
795 799.87464 96.1126047 255 212 0
795 799.504844 97.1694187 255 212 0
795 798.909157 98.117449 255 212 0
795 798.117449 98.9091574 255 212 0
795 797.169419 99.5048443 255 212 0
795 796.112605 99.8746396 255 212 0
795 795 100 255 212 0
5 800 95 255 212 0
5 795 100 255 212 0
5 796.112605 99.8746396 255 212 0
5 797.169419 99.5048443 255 212 0
5 798.117449 98.9091574 255 212 0
5 798.909157 98.117449 255 212 0
5 799.504844 97.1694187 255 212 0
5 799.87464 96.1126047 255 212 0
795 800 5 255 79 163
796.112605 799.87464 5 255 79 163
797.169419 799.504844 5 255 79 163
798.117449 798.909157 5 255 79 163
798.909157 798.117449 5 255 79 163
799.504844 797.169419 5 255 79 163
799.87464 796.112605 5 255 79 163
800 795 5 255 79 163
799.87464 795 3.88739533 255 79 163
799.504844 795 2.8305813 255 79 163
798.909157 795 1.88255099 255 79 163
798.117449 795 1.09084259 255 79 163
797.169419 795 0.49515566 255 79 163
796.112605 795 0.125360439 255 79 163
795 795 0 255 79 163
795 795 0 255 79 163
795 796.112605 0.125360439 255 79 163
795 797.169419 0.49515566 255 79 163
795 798.117449 1.09084259 255 79 163
795 798.909157 1.88255099 255 79 163
795 799.504844 2.8305813 255 79 163
795 799.87464 3.88739533 255 79 163
796.105609 795.124572 0.125360439 255 79 163
796.050169 795.36747 0.125360439 255 79 163
795.942069 795.591941 0.125360439 255 79 163
797.115027 795.482741 0.49515566 255 79 163
795.78673 795.78673 0.125360439 255 79 163
796.954579 795.941275 0.49515566 255 79 163
798.097847 795.349044 1.09084259 255 79 163
795.591941 795.942069 0.125360439 255 79 163
796.69612 796.35261 0.49515566 255 79 163
797.942508 796.029628 1.09084259 255 79 163
795.36747 796.050169 0.125360439 255 79 163
796.35261 796.69612 0.49515566 255 79 163
797.63962 796.658583 1.09084259 255 79 163
798.811147 795.869869 1.88255099 255 79 163
795.124572 796.105609 0.125360439 255 79 163
795.941275 796.954579 0.49515566 255 79 163
797.204369 797.204369 1.09084259 255 79 163
798.522029 796.69612 1.88255099 255 79 163
799.476519 795.504383 2.8305813 255 79 163
795.482741 797.115027 0.49515566 255 79 163
796.658583 797.63962 1.09084259 255 79 163
798.056302 797.43732 1.88255099 255 79 163
799.252047 796.487856 2.8305813 255 79 163
796.029628 797.942508 1.09084259 255 79 163
797.43732 798.056302 1.88255099 255 79 163
798.814361 797.396722 2.8305813 255 79 163
799.752422 796.084709 3.88739533 255 79 163
795.349044 798.097847 1.09084259 255 79 163
796.69612 798.522029 1.88255099 255 79 163
798.185406 798.185406 2.8305813 255 79 163
799.391898 797.115027 3.88739533 255 79 163
795.869869 798.811147 1.88255099 255 79 163
797.396722 798.814361 2.8305813 255 79 163
798.811147 798.039288 3.88739533 255 79 163
796.487856 799.252047 2.8305813 255 79 163
798.039288 798.811147 3.88739533 255 79 163
795.504383 799.476519 2.8305813 255 79 163
797.115027 799.391898 3.88739533 255 79 163
796.084709 799.752422 3.88739533 255 79 163
5 5 0 255 79 163
5 5 0 255 79 163
5 3.88739533 0.125360439 255 79 163
5 2.8305813 0.49515566 255 79 163
5 1.88255099 1.09084259 255 79 163
5 1.09084259 1.88255099 255 79 163
5 0.49515566 2.8305813 255 79 163
5 0.125360439 3.88739533 255 79 163
5 0 5 255 79 163
3.88739533 0.125360439 5 255 79 163
2.8305813 0.49515566 5 255 79 163
1.88255099 1.09084259 5 255 79 163
1.09084259 1.88255099 5 255 79 163
0.49515566 2.8305813 5 255 79 163
0.125360439 3.88739533 5 255 79 163
0 5 5 255 79 163
0.125360439 5 3.88739533 255 79 163
0.49515566 5 2.8305813 255 79 163
1.09084259 5 1.88255099 255 79 163
1.88255099 5 1.09084259 255 79 163
2.8305813 5 0.49515566 255 79 163
3.88739533 5 0.125360439 255 79 163
3.89439115 4.8754278 0.125360439 255 79 163
3.949831 4.63252997 0.125360439 255 79 163
4.0579307 4.40805863 0.125360439 255 79 163
2.88497316 4.51725893 0.49515566 255 79 163
4.21326969 4.21326969 0.125360439 255 79 163
3.04542129 4.0587245 0.49515566 255 79 163
1.90215286 4.65095645 1.09084259 255 79 163
4.40805863 4.0579307 0.125360439 255 79 163
3.30388017 3.64738957 0.49515566 255 79 163
2.05749185 3.97037187 1.09084259 255 79 163
4.63252997 3.949831 0.125360439 255 79 163
3.64738957 3.30388017 0.49515566 255 79 163
2.36038048 3.34141713 1.09084259 255 79 163
1.18885333 4.13013064 1.88255099 255 79 163
4.8754278 3.89439115 0.125360439 255 79 163
4.0587245 3.04542129 0.49515566 255 79 163
2.79563067 2.79563067 1.09084259 255 79 163
1.47797087 3.30388017 1.88255099 255 79 163
0.523481176 4.49561746 2.8305813 255 79 163
4.51725893 2.88497316 0.49515566 255 79 163
3.34141713 2.36038048 1.09084259 255 79 163
1.94369767 2.56268022 1.88255099 255 79 163
0.747952522 3.51214424 2.8305813 255 79 163
3.97037187 2.05749185 1.09084259 255 79 163
2.56268022 1.94369767 1.88255099 255 79 163
1.18563928 2.60327831 2.8305813 255 79 163
0.24757783 3.91529065 3.88739533 255 79 163
4.65095645 1.90215286 1.09084259 255 79 163
3.30388017 1.47797087 1.88255099 255 79 163
1.81459402 1.81459402 2.8305813 255 79 163
0.608101513 2.88497316 3.88739533 255 79 163
4.13013064 1.18885333 1.88255099 255 79 163
2.60327831 1.18563928 2.8305813 255 79 163
1.18885333 1.96071195 3.88739533 255 79 163
3.51214424 0.747952522 2.8305813 255 79 163
1.96071195 1.18885333 3.88739533 255 79 163
4.49561746 0.523481176 2.8305813 255 79 163
2.88497316 0.608101513 3.88739533 255 79 163
3.91529065 0.24757783 3.88739533 255 79 163
0 5 95 255 79 163
0.125360439 3.88739533 95 255 79 163
0.49515566 2.8305813 95 255 79 163
1.09084259 1.88255099 95 255 79 163
1.88255099 1.09084259 95 255 79 163
2.8305813 0.49515566 95 255 79 163
3.88739533 0.125360439 95 255 79 163
5 0 95 255 79 163
5 0.125360439 96.1126047 255 79 163
5 0.49515566 97.1694187 255 79 163
5 1.09084259 98.117449 255 79 163
5 1.88255099 98.9091574 255 79 163
5 2.8305813 99.5048443 255 79 163
5 3.88739533 99.8746396 255 79 163
5 5 100 255 79 163
5 5 100 255 79 163
3.88739533 5 99.8746396 255 79 163
2.8305813 5 99.5048443 255 79 163
1.88255099 5 98.9091574 255 79 163
1.09084259 5 98.117449 255 79 163
0.49515566 5 97.1694187 255 79 163
0.125360439 5 96.1126047 255 79 163
0.156011149 4.45421354 96.1126047 255 79 163
0.398908977 3.39000862 96.1126047 255 79 163
0.872524721 2.40653539 96.1126047 255 79 163
0.608101513 3.99757783 97.1694187 255 79 163
1.55310931 1.55310931 96.1126047 255 79 163
0.941275495 3.04542129 97.1694187 255 79 163
1.11542255 4.56231324 98.117449 255 79 163
2.40653539 0.872524721 96.1126047 255 79 163
1.47797087 2.1912755 97.1694187 255 79 163
1.31021148 3.70888716 98.117449 255 79 163
3.39000862 0.398908977 96.1126047 255 79 163
2.1912755 1.47797087 97.1694187 255 79 163
1.69002182 2.92020286 98.117449 255 79 163
1.96071195 4.30630233 98.9091574 255 79 163
4.45421354 0.156011149 96.1126047 255 79 163
3.04542129 0.941275495 97.1694187 255 79 163
2.23580829 2.23580829 98.117449 255 79 163
2.1912755 3.64738957 98.9091574 255 79 163
2.84422215 4.75710217 99.5048443 255 79 163
3.99757783 0.608101513 97.1694187 255 79 163
2.92020286 1.69002182 98.117449 255 79 163
2.56268022 3.05630233 98.9091574 255 79 163
2.95232186 4.28348643 99.5048443 255 79 163
3.70888716 1.31021148 98.117449 255 79 163
3.05630233 2.56268022 98.9091574 255 79 163
3.16310069 3.84579967 99.5048443 255 79 163
3.91529065 4.75242217 99.8746396 255 79 163
4.56231324 1.11542255 98.117449 255 79 163
3.64738957 2.1912755 98.9091574 255 79 163
3.46598933 3.46598933 99.5048443 255 79 163
3.99757783 4.51725893 99.8746396 255 79 163
4.30630233 1.96071195 98.9091574 255 79 163
3.84579967 3.16310069 99.5048443 255 79 163
4.13013064 4.30630233 99.8746396 255 79 163
4.28348643 2.95232186 99.5048443 255 79 163
4.30630233 4.13013064 99.8746396 255 79 163
4.75710217 2.84422215 99.5048443 255 79 163
4.51725893 3.99757783 99.8746396 255 79 163
4.75242217 3.91529065 99.8746396 255 79 163
795 795 100 255 79 163
795 795 100 255 79 163
796.112605 795 99.8746396 255 79 163
797.169419 795 99.5048443 255 79 163
798.117449 795 98.9091574 255 79 163
798.909157 795 98.117449 255 79 163
799.504844 795 97.1694187 255 79 163
799.87464 795 96.1126047 255 79 163
800 795 95 255 79 163
799.87464 796.112605 95 255 79 163
799.504844 797.169419 95 255 79 163
798.909157 798.117449 95 255 79 163
798.117449 798.909157 95 255 79 163
797.169419 799.504844 95 255 79 163
796.112605 799.87464 95 255 79 163
795 800 95 255 79 163
795 799.87464 96.1126047 255 79 163
795 799.504844 97.1694187 255 79 163
795 798.909157 98.117449 255 79 163
795 798.117449 98.9091574 255 79 163
795 797.169419 99.5048443 255 79 163
795 796.112605 99.8746396 255 79 163
799.843989 795.545786 96.1126047 255 79 163
799.601091 796.609991 96.1126047 255 79 163
799.127475 797.593465 96.1126047 255 79 163
799.391898 796.002422 97.1694187 255 79 163
798.446891 798.446891 96.1126047 255 79 163
799.058725 796.954579 97.1694187 255 79 163
798.884577 795.437687 98.117449 255 79 163
797.593465 799.127475 96.1126047 255 79 163
798.522029 797.808725 97.1694187 255 79 163
798.689789 796.291113 98.117449 255 79 163
796.609991 799.601091 96.1126047 255 79 163
797.808725 798.522029 97.1694187 255 79 163
798.309978 797.079797 98.117449 255 79 163
798.039288 795.693698 98.9091574 255 79 163
795.545786 799.843989 96.1126047 255 79 163
796.954579 799.058725 97.1694187 255 79 163
797.764192 797.764192 98.117449 255 79 163
797.808725 796.35261 98.9091574 255 79 163
797.155778 795.242898 99.5048443 255 79 163
796.002422 799.391898 97.1694187 255 79 163
797.079797 798.309978 98.117449 255 79 163
797.43732 796.943698 98.9091574 255 79 163
797.047678 795.716514 99.5048443 255 79 163
796.291113 798.689789 98.117449 255 79 163
796.943698 797.43732 98.9091574 255 79 163
796.836899 796.1542 99.5048443 255 79 163
796.084709 795.247578 99.8746396 255 79 163
795.437687 798.884577 98.117449 255 79 163
796.35261 797.808725 98.9091574 255 79 163
796.534011 796.534011 99.5048443 255 79 163
796.002422 795.482741 99.8746396 255 79 163
795.693698 798.039288 98.9091574 255 79 163
796.1542 796.836899 99.5048443 255 79 163
795.869869 795.693698 99.8746396 255 79 163
795.716514 797.047678 99.5048443 255 79 163
795.693698 795.869869 99.8746396 255 79 163
795.242898 797.155778 99.5048443 255 79 163
795.482741 796.002422 99.8746396 255 79 163
795.247578 796.084709 99.8746396 255 79 163
800 795 95 255 212 0
799.87464 796.112605 95 255 212 0
799.504844 797.169419 95 255 212 0
798.909157 798.117449 95 255 212 0
798.117449 798.909157 95 255 212 0
797.169419 799.504844 95 255 212 0
796.112605 799.87464 95 255 212 0
795 800 95 255 212 0
800 795 5 255 212 0
795 800 5 255 212 0
796.112605 799.87464 5 255 212 0
797.169419 799.504844 5 255 212 0
798.117449 798.909157 5 255 212 0
798.909157 798.117449 5 255 212 0
799.504844 797.169419 5 255 212 0
799.87464 796.112605 5 255 212 0
795 5 0 255 212 0
796.112605 5 0.125360439 255 212 0
797.169419 5 0.49515566 255 212 0
798.117449 5 1.09084259 255 212 0
798.909157 5 1.88255099 255 212 0
799.504844 5 2.8305813 255 212 0
799.87464 5 3.88739533 255 212 0
800 5 5 255 212 0
795 795 0 255 212 0
800 795 5 255 212 0
799.87464 795 3.88739533 255 212 0
799.504844 795 2.8305813 255 212 0
798.909157 795 1.88255099 255 212 0
798.117449 795 1.09084259 255 212 0
797.169419 795 0.49515566 255 212 0
796.112605 795 0.125360439 255 212 0
795 0 5 255 212 0
795 0.125360439 3.88739533 255 212 0
795 0.49515566 2.8305813 255 212 0
795 1.09084259 1.88255099 255 212 0
795 1.88255099 1.09084259 255 212 0
795 2.8305813 0.49515566 255 212 0
795 3.88739533 0.125360439 255 212 0
795 5 0 255 212 0
5 0 5 255 212 0
5 5 0 255 212 0
5 3.88739533 0.125360439 255 212 0
5 2.8305813 0.49515566 255 212 0
5 1.88255099 1.09084259 255 212 0
5 1.09084259 1.88255099 255 212 0
5 0.49515566 2.8305813 255 212 0
5 0.125360439 3.88739533 255 212 0
5 0 5 255 212 0
3.88739533 0.125360439 5 255 212 0
2.8305813 0.49515566 5 255 212 0
1.88255099 1.09084259 5 255 212 0
1.09084259 1.88255099 5 255 212 0
0.49515566 2.8305813 5 255 212 0
0.125360439 3.88739533 5 255 212 0
0 5 5 255 212 0
5 0 95 255 212 0
0 5 95 255 212 0
0.125360439 3.88739533 95 255 212 0
0.49515566 2.8305813 95 255 212 0
1.09084259 1.88255099 95 255 212 0
1.88255099 1.09084259 95 255 212 0
2.8305813 0.49515566 95 255 212 0
3.88739533 0.125360439 95 255 212 0
795 5 100 255 212 0
795 3.88739533 99.8746396 255 212 0
795 2.8305813 99.5048443 255 212 0
795 1.88255099 98.9091574 255 212 0
795 1.09084259 98.117449 255 212 0
795 0.49515566 97.1694187 255 212 0
795 0.125360439 96.1126047 255 212 0
795 0 95 255 212 0
5 5 100 255 212 0
5 0 95 255 212 0
5 0.125360439 96.1126047 255 212 0
5 0.49515566 97.1694187 255 212 0
5 1.09084259 98.117449 255 212 0
5 1.88255099 98.9091574 255 212 0
5 2.8305813 99.5048443 255 212 0
5 3.88739533 99.8746396 255 212 0
785 785 0 218 222 230
15 785 0 218 222 230
785 785 -100 218 222 230
15 785 -100 218 222 230
785 15 0 218 222 230
785 785 0 218 222 230
785 15 -100 218 222 230
785 785 -100 218 222 230
785 15 -100 218 222 230
785 15 0 218 222 230
15 15 -100 218 222 230
15 15 0 218 222 230
15 15 -100 218 222 230
15 15 0 218 222 230
15 785 -100 218 222 230
15 785 0 218 222 230
785 785 -100 218 222 230
15 785 -100 218 222 230
785 15 -100 218 222 230
15 15 -100 218 222 230
35 765 70 218 222 230
35 35 70 218 222 230
765 35 70 218 222 230
765 765 70 218 222 230
770 30 75 218 222 230
770 770 75 218 222 230
770 770 95 218 222 230
770 30 95 218 222 230
30 30 75 218 222 230
770 30 75 218 222 230
770 30 95 218 222 230
30 30 95 218 222 230
30 770 75 218 222 230
30 30 75 218 222 230
30 30 95 218 222 230
30 770 95 218 222 230
770 770 75 218 222 230
30 770 75 218 222 230
30 770 95 218 222 230
770 770 95 218 222 230
5 5 100 218 222 230
5 795 100 218 222 230
795 5 100 218 222 230
795 795 100 218 222 230
775 25 100 218 222 230
775 775 100 218 222 230
25 25 100 218 222 230
25 775 100 218 222 230
5 795 0 218 222 230
795 795 0 218 222 230
5 5 0 218 222 230
795 5 0 218 222 230
785 15 0 218 222 230
15 15 0 218 222 230
15 785 0 218 222 230
785 785 0 218 222 230
800 5 95 218 222 230
800 795 95 218 222 230
800 795 5 218 222 230
800 5 5 218 222 230
5 0 95 218 222 230
795 0 95 218 222 230
795 0 5 218 222 230
5 0 5 218 222 230
795 0 95 255 212 0
796.112605 0.125360439 95 255 212 0
797.169419 0.49515566 95 255 212 0
798.117449 1.09084259 95 255 212 0
798.909157 1.88255099 95 255 212 0
799.504844 2.8305813 95 255 212 0
799.87464 3.88739533 95 255 212 0
800 5 95 255 212 0
795 0 5 255 212 0
800 5 5 255 212 0
799.87464 3.88739533 5 255 212 0
799.504844 2.8305813 5 255 212 0
798.909157 1.88255099 5 255 212 0
798.117449 1.09084259 5 255 212 0
797.169419 0.49515566 5 255 212 0
796.112605 0.125360439 5 255 212 0
3 22 20 21
3 22 21 0
3 23 22 0
3 24 23 0
3 25 22 23
3 25 20 22
3 26 0 1
3 26 24 0
3 27 23 24
3 27 25 23
3 28 18 19
3 28 19 20
3 28 20 25
3 29 26 1
3 30 27 24
3 30 24 26
3 31 25 27
3 31 28 25
3 32 29 1
3 33 26 29
3 33 30 26
3 34 27 30
3 34 31 27
3 35 18 28
3 35 28 31
3 36 1 2
3 36 2 3
3 36 32 1
3 37 29 32
3 37 33 29
3 38 30 33
3 38 34 30
3 39 31 34
3 39 35 31
3 40 16 17
3 40 17 18
3 40 18 35
3 41 36 3
3 41 32 36
3 41 37 32
3 42 38 33
3 42 33 37
3 43 34 38
3 43 39 34
3 44 35 39
3 44 40 35
3 45 42 37
3 45 37 41
3 46 43 38
3 46 38 42
3 47 39 43
3 47 44 39
3 48 40 44
3 48 14 15
3 48 15 16
3 48 16 40
3 49 3 4
3 49 4 5
3 49 45 41
3 49 41 3
3 50 42 45
3 50 46 42
3 51 47 43
3 51 43 46
3 52 13 14
3 52 48 44
3 52 44 47
3 52 14 48
3 53 49 5
3 53 45 49
3 53 50 45
3 54 46 50
3 54 51 46
3 55 12 13
3 55 13 52
3 55 52 47
3 55 47 51
3 56 50 53
3 56 54 50
3 57 10 11
3 57 11 12
3 57 12 55
3 57 51 54
3 57 55 51
3 58 5 6
3 58 6 7
3 58 53 5
3 58 56 53
3 59 10 57
3 59 54 56
3 59 57 54
3 60 7 8
3 60 8 9
3 60 9 10
3 60 10 59
3 60 58 7
3 60 56 58
3 60 59 56
3 70 68 67
3 71 67 66
3 71 70 67
3 72 66 65
3 72 71 66
3 73 65 64
3 73 72 65
3 74 64 63
3 74 73 64
3 75 63 62
3 75 74 63
3 76 75 62
3 69 62 61
3 69 76 62
3 99 83 84
3 99 84 85
3 99 85 86
3 100 86 87
3 100 99 86
3 101 87 88
3 101 100 87
3 102 83 99
3 102 99 100
3 103 88 89
3 103 101 88
3 104 102 100
3 104 100 101
3 105 81 82
3 105 82 83
3 105 83 102
3 106 89 90
3 106 103 89
3 107 104 101
3 107 101 103
3 108 105 102
3 108 102 104
3 109 90 91
3 109 106 90
3 110 107 103
3 110 103 106
3 111 104 107
3 111 108 104
3 112 81 105
3 112 105 108
3 113 91 92
3 113 92 93
3 113 93 94
3 113 109 91
3 114 106 109
3 114 110 106
3 115 107 110
3 115 111 107
3 116 108 111
3 116 112 108
3 117 79 80
3 117 80 81
3 117 81 112
3 118 113 94
3 118 109 113
3 118 114 109
3 119 115 110
3 119 110 114
3 120 111 115
3 120 116 111
3 121 112 116
3 121 117 112
3 122 119 114
3 122 114 118
3 123 115 119
3 123 120 115
3 124 116 120
3 124 121 116
3 125 78 79
3 125 117 121
3 125 79 117
3 126 122 118
3 126 94 95
3 126 95 96
3 126 118 94
3 127 123 119
3 127 119 122
3 128 124 120
3 128 120 123
3 129 78 125
3 129 121 124
3 129 125 121
3 130 126 96
3 130 127 122
3 130 122 126
3 131 123 127
3 131 128 123
3 132 129 124
3 132 124 128
3 132 78 129
3 133 131 127
3 133 127 130
3 134 77 78
3 134 78 132
3 134 128 131
3 134 132 128
3 135 96 97
3 135 97 98
3 135 133 130
3 135 130 96
3 136 131 133
3 136 77 134
3 136 134 131
3 137 98 77
3 137 77 136
3 137 135 98
3 137 133 135
3 137 136 133
3 138 139 140
3 138 140 141
3 142 143 144
3 142 144 145
3 162 153 152
3 162 154 153
3 162 163 154
3 161 152 151
3 161 162 152
3 160 151 150
3 160 161 151
3 159 150 149
3 159 160 150
3 158 149 148
3 158 159 149
3 157 148 147
3 157 158 148
3 156 147 146
3 156 157 147
3 155 156 146
3 172 173 181
3 171 181 180
3 171 172 181
3 170 180 179
3 170 171 180
3 169 179 178
3 169 170 179
3 168 178 177
3 168 169 178
3 167 177 176
3 167 168 177
3 166 176 175
3 166 167 176
3 165 175 174
3 165 166 175
3 164 165 174
3 198 189 188
3 198 190 189
3 198 199 190
3 197 188 187
3 197 198 188
3 196 197 187
3 195 187 186
3 195 196 187
3 194 185 184
3 194 186 185
3 194 195 186
3 193 194 184
3 192 183 182
3 192 184 183
3 192 193 184
3 191 192 182
3 216 208 207
3 216 217 208
3 215 207 206
3 215 216 207
3 214 206 205
3 214 215 206
3 213 204 203
3 213 205 204
3 213 214 205
3 212 213 203
3 211 203 202
3 211 212 203
3 210 202 201
3 210 211 202
3 209 201 200
3 209 210 201
3 237 219 218
3 237 227 228
3 237 228 219
3 236 226 227
3 236 227 237
3 235 226 236
3 234 225 226
3 234 226 235
3 233 223 224
3 233 224 225
3 233 225 234
3 232 222 223
3 232 223 233
3 231 221 222
3 231 222 232
3 230 221 231
3 229 220 221
3 229 221 230
3 247 249 248
3 247 257 249
3 246 256 257
3 246 257 247
3 245 255 256
3 245 256 246
3 244 254 255
3 244 255 245
3 243 253 254
3 243 254 244
3 242 252 253
3 242 253 243
3 241 251 252
3 241 252 242
3 240 250 251
3 240 251 241
3 238 239 250
3 238 250 240
3 277 259 258
3 277 267 268
3 277 268 259
3 276 267 277
3 275 266 267
3 275 267 276
3 274 264 265
3 274 265 266
3 274 266 275
3 273 264 274
3 272 262 263
3 272 263 264
3 272 264 273
3 271 261 262
3 271 262 272
3 270 261 271
3 269 260 261
3 269 261 270
3 297 279 278
3 297 288 279
3 296 286 287
3 296 287 288
3 296 288 297
3 295 286 296
3 294 285 286
3 294 286 295
3 293 284 285
3 293 285 294
3 292 282 283
3 292 283 284
3 292 284 293
3 291 282 292
3 290 281 282
3 290 282 291
3 289 280 281
3 289 281 290
3 299 298 306
3 299 306 313
3 300 313 312
3 300 299 313
3 301 312 311
3 301 300 312
3 302 311 310
3 302 301 311
3 303 310 309
3 303 302 310
3 304 308 307
3 304 309 308
3 304 303 309
3 305 304 307
3 329 330 328
3 336 319 320
3 336 320 321
3 337 336 321
3 338 337 321
3 339 319 336
3 339 336 337
3 340 321 322
3 340 338 321
3 341 337 338
3 341 339 337
3 342 317 318
3 342 318 319
3 342 319 339
3 343 340 322
3 344 338 340
3 344 341 338
3 345 342 339
3 345 339 341
3 346 343 322
3 347 340 343
3 347 344 340
3 348 341 344
3 348 345 341
3 349 317 342
3 349 342 345
3 350 322 323
3 350 323 324
3 350 346 322
3 351 343 346
3 351 347 343
3 352 344 347
3 352 348 344
3 353 345 348
3 353 349 345
3 354 315 316
3 354 316 317
3 354 317 349
3 355 350 324
3 355 346 350
3 355 351 346
3 356 347 351
3 356 352 347
3 357 348 352
3 357 353 348
3 358 349 353
3 358 354 349
3 359 356 351
3 359 351 355
3 360 352 356
3 360 357 352
3 361 358 353
3 361 353 357
3 362 314 315
3 362 354 358
3 362 335 314
3 362 315 354
3 363 324 325
3 363 325 326
3 363 359 355
3 363 355 324
3 364 356 359
3 364 360 356
3 365 357 360
3 365 361 357
3 366 358 361
3 366 335 362
3 366 334 335
3 366 362 358
3 367 363 326
3 367 364 359
3 367 359 363
3 368 360 364
3 368 365 360
3 369 333 334
3 369 361 365
3 369 334 366
3 369 366 361
3 370 364 367
3 370 368 364
3 371 333 369
3 371 332 333
3 371 365 368
3 371 369 365
3 372 326 327
3 372 327 328
3 372 370 367
3 372 367 326
3 373 332 371
3 373 331 332
3 373 368 370
3 373 371 368
3 374 331 373
3 374 330 331
3 374 372 328
3 374 370 372
3 374 373 370
3 374 328 330
3 397 388 389
3 397 389 390
3 397 390 391
3 398 391 392
3 398 397 391
3 399 392 393
3 399 398 392
3 400 397 398
3 400 388 397
3 401 393 394
3 401 399 393
3 402 400 398
3 402 398 399
3 403 386 387
3 403 387 388
3 403 388 400
3 404 394 395
3 404 401 394
3 405 402 399
3 405 399 401
3 406 403 400
3 406 400 402
3 407 395 396
3 407 404 395
3 408 405 401
3 408 401 404
3 409 402 405
3 409 406 402
3 410 403 406
3 410 386 403
3 411 375 376
3 411 376 377
3 411 396 375
3 411 407 396
3 412 404 407
3 412 408 404
3 413 405 408
3 413 409 405
3 414 406 409
3 414 410 406
3 415 384 385
3 415 385 386
3 415 386 410
3 416 412 407
3 416 411 377
3 416 407 411
3 417 413 408
3 417 408 412
3 418 409 413
3 418 414 409
3 419 410 414
3 419 415 410
3 420 417 412
3 420 412 416
3 421 418 413
3 421 413 417
3 422 414 418
3 422 419 414
3 423 415 419
3 423 383 384
3 423 384 415
3 424 377 378
3 424 378 379
3 424 420 416
3 424 416 377
3 425 417 420
3 425 421 417
3 426 418 421
3 426 422 418
3 427 423 419
3 427 383 423
3 427 419 422
3 428 424 379
3 428 420 424
3 428 425 420
3 429 426 421
3 429 421 425
3 430 383 427
3 430 422 426
3 430 427 422
3 431 429 425
3 431 425 428
3 432 382 383
3 432 383 430
3 432 426 429
3 432 430 426
3 433 379 380
3 433 380 381
3 433 428 379
3 433 431 428
3 434 382 432
3 434 432 429
3 434 429 431
3 435 381 382
3 435 382 434
3 435 433 381
3 435 431 433
3 435 434 431
3 437 436 444
3 437 451 450
3 437 444 451
3 438 437 450
3 439 449 448
3 439 450 449
3 439 438 450
3 440 439 448
3 441 448 447
3 441 440 448
3 442 447 446
3 442 441 447
3 443 446 445
3 443 442 446
3 462 458 457
3 462 459 458
3 462 461 459
3 463 462 457
3 464 456 455
3 464 457 456
3 464 463 457
3 465 464 455
3 466 455 454
3 466 465 455
3 467 454 453
3 467 466 454
3 460 453 452
3 460 467 453
3 469 468 476
3 469 476 483
3 470 483 482
3 470 469 483
3 471 482 481
3 471 470 482
3 472 481 480
3 472 471 481
3 473 480 479
3 473 472 480
3 474 479 478
3 474 473 479
3 475 478 477
3 475 474 478
3 494 491 490
3 494 493 491
3 495 489 488
3 495 490 489
3 495 494 490
3 496 495 488
3 497 487 486
3 497 488 487
3 497 496 488
3 498 486 485
3 498 497 486
3 499 485 484
3 499 498 485
3 492 499 484
3 522 512 513
3 522 513 514
3 523 522 514
3 524 523 514
3 525 522 523
3 525 512 522
3 526 514 515
3 526 524 514
3 527 523 524
3 527 525 523
3 528 510 511
3 528 511 512
3 528 512 525
3 529 526 515
3 530 524 526
3 530 527 524
3 531 525 527
3 531 528 525
3 532 529 515
3 533 530 526
3 533 526 529
3 534 527 530
3 534 531 527
3 535 510 528
3 535 528 531
3 536 515 516
3 536 516 517
3 536 532 515
3 537 529 532
3 537 533 529
3 538 530 533
3 538 534 530
3 539 531 534
3 539 535 531
3 540 508 509
3 540 509 510
3 540 510 535
3 541 536 517
3 541 532 536
3 541 537 532
3 542 538 533
3 542 533 537
3 543 534 538
3 543 539 534
3 544 535 539
3 544 540 535
3 545 542 537
3 545 537 541
3 546 543 538
3 546 538 542
3 547 539 543
3 547 544 539
3 548 506 507
3 548 507 508
3 548 540 544
3 548 508 540
3 549 545 541
3 549 517 518
3 549 518 519
3 549 541 517
3 550 542 545
3 550 546 542
3 551 543 546
3 551 547 543
3 552 504 505
3 552 505 506
3 552 544 547
3 552 548 544
3 552 506 548
3 553 550 545
3 553 549 519
3 553 545 549
3 554 546 550
3 554 551 546
3 555 547 551
3 555 552 547
3 555 504 552
3 556 554 550
3 556 550 553
3 557 503 504
3 557 504 555
3 557 551 554
3 557 555 551
3 558 519 520
3 558 520 521
3 558 553 519
3 558 556 553
3 559 503 557
3 559 502 503
3 559 554 556
3 559 557 554
3 560 500 501
3 560 501 502
3 560 502 559
3 560 521 500
3 560 558 521
3 560 556 558
3 560 559 556
3 583 581 582
3 583 582 561
3 584 583 561
3 585 584 561
3 586 583 584
3 586 581 583
3 587 561 562
3 587 585 561
3 588 584 585
3 588 586 584
3 589 579 580
3 589 580 581
3 589 581 586
3 590 587 562
3 591 588 585
3 591 585 587
3 592 586 588
3 592 589 586
3 593 590 562
3 594 587 590
3 594 591 587
3 595 588 591
3 595 592 588
3 596 579 589
3 596 589 592
3 597 562 563
3 597 563 564
3 597 593 562
3 598 590 593
3 598 594 590
3 599 591 594
3 599 595 591
3 600 592 595
3 600 596 592
3 601 577 578
3 601 578 579
3 601 579 596
3 602 597 564
3 602 593 597
3 602 598 593
3 603 594 598
3 603 599 594
3 604 595 599
3 604 600 595
3 605 596 600
3 605 601 596
3 606 603 598
3 606 598 602
3 607 599 603
3 607 604 599
3 608 605 600
3 608 600 604
3 609 601 605
3 609 575 576
3 609 576 577
3 609 577 601
3 610 564 565
3 610 565 566
3 610 606 602
3 610 602 564
3 611 603 606
3 611 607 603
3 612 604 607
3 612 608 604
3 613 574 575
3 613 605 608
3 613 609 605
3 613 575 609
3 614 610 566
3 614 606 610
3 614 611 606
3 615 607 611
3 615 612 607
3 616 572 573
3 616 573 574
3 616 574 613
3 616 608 612
3 616 613 608
3 617 611 614
3 617 615 611
3 618 616 612
3 618 572 616
3 618 612 615
3 619 566 567
3 619 567 568
3 619 614 566
3 619 617 614
3 620 570 571
3 620 571 572
3 620 572 618
3 620 615 617
3 620 618 615
3 621 568 569
3 621 569 570
3 621 570 620
3 621 619 568
3 621 617 619
3 621 620 617
3 644 622 623
3 644 642 643
3 644 643 622
3 645 623 624
3 645 644 623
3 646 624 625
3 646 645 624
3 647 644 645
3 647 642 644
3 648 625 626
3 648 646 625
3 649 647 645
3 649 645 646
3 650 640 641
3 650 641 642
3 650 642 647
3 651 626 627
3 651 648 626
3 652 649 646
3 652 646 648
3 653 650 647
3 653 647 649
3 654 627 628
3 654 651 627
3 655 652 648
3 655 648 651
3 656 649 652
3 656 653 649
3 657 640 650
3 657 650 653
3 658 628 629
3 658 629 630
3 658 630 631
3 658 654 628
3 659 651 654
3 659 655 651
3 660 652 655
3 660 656 652
3 661 653 656
3 661 657 653
3 662 638 639
3 662 639 640
3 662 640 657
3 663 658 631
3 663 654 658
3 663 659 654
3 664 660 655
3 664 655 659
3 665 656 660
3 665 661 656
3 666 657 661
3 666 662 657
3 667 664 659
3 667 659 663
3 668 660 664
3 668 665 660
3 669 661 665
3 669 666 661
3 670 662 666
3 670 637 638
3 670 638 662
3 671 631 632
3 671 632 633
3 671 667 663
3 671 663 631
3 672 668 664
3 672 664 667
3 673 665 668
3 673 669 665
3 674 637 670
3 674 666 669
3 674 670 666
3 675 671 633
3 675 667 671
3 675 672 667
3 676 668 672
3 676 673 668
3 677 636 637
3 677 637 674
3 677 669 673
3 677 674 669
3 678 676 672
3 678 672 675
3 679 636 677
3 679 673 676
3 679 677 673
3 680 675 633
3 680 633 634
3 680 634 635
3 680 678 675
3 681 636 679
3 681 676 678
3 681 679 676
3 682 635 636
3 682 636 681
3 682 680 635
3 682 678 680
3 682 681 678
3 705 689 690
3 705 690 691
3 705 691 692
3 706 692 693
3 706 705 692
3 707 693 694
3 707 706 693
3 708 689 705
3 708 705 706
3 709 694 695
3 709 707 694
3 710 708 706
3 710 706 707
3 711 687 688
3 711 688 689
3 711 689 708
3 712 695 696
3 712 709 695
3 713 710 707
3 713 707 709
3 714 711 708
3 714 708 710
3 715 696 697
3 715 712 696
3 716 713 709
3 716 709 712
3 717 710 713
3 717 714 710
3 718 687 711
3 718 711 714
3 719 697 698
3 719 698 699
3 719 699 700
3 719 715 697
3 720 712 715
3 720 716 712
3 721 713 716
3 721 717 713
3 722 718 714
3 722 714 717
3 723 685 686
3 723 686 687
3 723 687 718
3 724 719 700
3 724 715 719
3 724 720 715
3 725 721 716
3 725 716 720
3 726 717 721
3 726 722 717
3 727 718 722
3 727 723 718
3 728 725 720
3 728 720 724
3 729 721 725
3 729 726 721
3 730 722 726
3 730 727 722
3 731 684 685
3 731 723 727
3 731 685 723
3 732 728 724
3 732 700 701
3 732 701 702
3 732 724 700
3 733 725 728
3 733 729 725
3 734 730 726
3 734 726 729
3 735 684 731
3 735 727 730
3 735 731 727
3 736 732 702
3 736 733 728
3 736 728 732
3 737 729 733
3 737 734 729
3 738 735 730
3 738 730 734
3 738 684 735
3 739 733 736
3 739 737 733
3 740 683 684
3 740 684 738
3 740 734 737
3 740 738 734
3 741 736 702
3 741 702 703
3 741 703 704
3 741 739 736
3 742 683 740
3 742 737 739
3 742 740 737
3 743 704 683
3 743 683 742
3 743 741 704
3 743 739 741
3 743 742 739
3 753 751 750
3 754 750 749
3 754 753 750
3 755 754 749
3 756 749 748
3 756 755 749
3 757 747 746
3 757 748 747
3 757 756 748
3 758 757 746
3 759 746 745
3 759 758 746
3 752 745 744
3 752 759 745
3 761 760 768
3 761 768 775
3 762 775 774
3 762 761 775
3 763 774 773
3 763 762 774
3 764 773 772
3 764 763 773
3 765 772 771
3 765 764 772
3 766 771 770
3 766 765 771
3 767 770 769
3 767 766 770
3 786 782 781
3 786 783 782
3 786 785 783
3 787 786 781
3 788 780 779
3 788 781 780
3 788 787 781
3 789 788 779
3 790 779 778
3 790 789 779
3 791 778 777
3 791 790 778
3 784 777 776
3 784 791 777
3 792 800 807
3 793 807 806
3 793 792 807
3 794 793 806
3 795 806 805
3 795 794 806
3 796 804 803
3 796 805 804
3 796 795 805
3 797 796 803
3 798 803 802
3 798 797 803
3 799 802 801
3 799 798 802
3 809 808 816
3 809 816 823
3 810 823 822
3 810 809 823
3 811 822 821
3 811 810 822
3 812 821 820
3 812 811 821
3 813 820 819
3 813 812 820
3 814 818 817
3 814 819 818
3 814 813 819
3 815 814 817
3 824 826 827
3 824 827 825
3 829 828 830
3 829 830 831
3 833 834 832
3 833 835 834
3 839 836 837
3 839 838 836
3 842 841 840
3 842 843 841
3 846 844 845
3 847 844 846
3 849 848 851
3 850 849 851
3 854 852 855
3 853 852 854
3 856 858 857
3 859 858 856
3 860 862 861
3 863 862 860
3 868 870 864
3 871 865 864
3 871 864 870
3 866 868 864
3 869 868 866
3 867 869 866
3 867 865 871
3 867 871 869
3 872 877 874
3 876 875 874
3 876 874 877
3 878 877 872
3 879 875 876
3 873 875 879
3 873 878 872
3 873 879 878
3 880 882 881
3 880 883 882
3 885 887 886
3 885 884 887
3 888 896 903
3 889 903 902
3 889 888 903
3 890 889 902
3 891 902 901
3 891 890 902
3 892 900 899
3 892 901 900
3 892 891 901
3 893 892 899
3 894 899 898
3 894 893 899
3 895 898 897
3 895 894 898
