ply
format ascii 1.0
comment generated by blendit.inference.finetune_visualize
element vertex 654
property float x
property float y
property float z
property uchar red
property uchar green
property uchar blue
element face 620
property list uchar int vertex_indices
end_header
-101.6 -12.7 19.05 218 222 230
-104.016211 -12.7 18.9379577 218 222 230
-106.398756 -12.7 18.520692 218 222 230
-108.709235 -12.7 17.8049281 218 222 230
-110.91041 -12.7 16.802202 218 222 230
-112.966805 -12.7 15.5286746 218 222 230
-114.845276 -12.7 14.0048714 218 222 230
-116.515548 -12.7 12.2553515 218 222 230
-117.950703 -12.7 10.308312 218 222 230
-119.127608 -12.7 8.19513326 218 222 230
-120.027297 -12.7 5.9498735 218 222 230
-120.635268 -12.7 3.60871956 218 222 230
-120.941723 -12.7 1.20940385 218 222 230
-120.941723 -12.7 -1.20940384 218 222 230
-120.635268 -12.7 -3.60871956 218 222 230
-120.027297 -12.7 -5.9498735 218 222 230
-119.127608 -12.7 -8.19513326 218 222 230
-117.950703 -12.7 -10.308312 218 222 230
-116.515548 -12.7 -12.2553515 218 222 230
-114.845276 -12.7 -14.0048714 218 222 230
-112.966805 -12.7 -15.5286746 218 222 230
-110.91041 -12.7 -16.802202 218 222 230
-108.709235 -12.7 -17.8049281 218 222 230
-106.398756 -12.7 -18.520692 218 222 230
-104.016211 -12.7 -18.9379577 218 222 230
-101.6 -12.7 -19.0500002 218 222 230
-101.6 -12.7 -14.1990317 218 222 230
-101.6 -12.7 14.1990317 218 222 230
-103.1875 -12.7 0 218 222 230
-103.32589 -12.7 1.13974085 218 222 230
-103.733016 -12.7 2.21324411 218 222 230
-104.385218 -12.7 3.15812166 218 222 230
-105.244592 -12.7 3.91946066 218 222 230
-106.261194 -12.7 4.45301486 218 222 230
-107.375944 -12.7 4.72777601 218 222 230
-108.524056 -12.7 4.72777601 218 222 230
-109.638806 -12.7 4.45301486 218 222 230
-110.655408 -12.7 3.91946066 218 222 230
-111.514782 -12.7 3.15812166 218 222 230
-112.166984 -12.7 2.21324411 218 222 230
-112.57411 -12.7 1.13974085 218 222 230
-112.7125 -12.7 4.81318776e-15 218 222 230
-112.57411 -12.7 -1.13974085 218 222 230
-112.166984 -12.7 -2.21324411 218 222 230
-111.514782 -12.7 -3.15812166 218 222 230
-110.655408 -12.7 -3.91946066 218 222 230
-109.638806 -12.7 -4.45301486 218 222 230
-108.524056 -12.7 -4.72777601 218 222 230
-107.375944 -12.7 -4.72777601 218 222 230
-106.261194 -12.7 -4.45301486 218 222 230
-105.244592 -12.7 -3.91946066 218 222 230
-104.385218 -12.7 -3.15812166 218 222 230
-103.733016 -12.7 -2.21324411 218 222 230
-103.32589 -12.7 -1.13974085 218 222 230
101.6 0 -19.05 218 222 230
101.6 12.7 -19.0500002 218 222 230
101.6 12.7 -14.1990317 218 222 230
101.6 2.31117774 -18.9092823 218 222 230
101.6 4.58821127 -18.4892081 218 222 230
101.6 6.79746081 -17.7959834 218 222 230
101.6 8.90628799 -16.8398496 218 222 230
101.6 10.883538 -15.634932 218 222 230
101.6 -12.7 -14.1990317 218 222 230
101.6 -10.883538 -15.634932 218 222 230
101.6 -8.90628799 -16.8398496 218 222 230
101.6 -6.79746081 -17.7959834 218 222 230
101.6 -4.58821127 -18.4892081 218 222 230
101.6 -2.31117774 -18.9092823 218 222 230
101.6 0 -19.05 218 222 230
101.6 -12.7 -19.0500002 218 222 230
101.6 -12.7 19.05 218 222 230
101.6 -12.7 14.1990317 218 222 230
101.6 1.94552309e-15 19.05 218 222 230
101.6 -2.31117774 18.9092823 218 222 230
101.6 -4.58821127 18.4892081 218 222 230
101.6 -6.79746081 17.7959834 218 222 230
101.6 -8.90628799 16.8398496 218 222 230
101.6 -10.883538 15.634932 218 222 230
101.6 12.7 -14.1990317 218 222 230
101.6 14.4259931 -12.4415925 218 222 230
101.6 15.9107869 -10.4761329 218 222 230
101.6 17.1295562 -8.33551474 218 222 230
101.6 18.0619232 -6.05552878 218 222 230
101.6 18.6922992 -3.67429579 218 222 230
101.6 19.0101444 -1.23162945 218 222 230
101.6 19.0101444 1.23162945 218 222 230
101.6 18.6922992 3.67429579 218 222 230
101.6 18.0619232 6.05552878 218 222 230
101.6 17.1295562 8.33551474 218 222 230
101.6 15.9107869 10.4761329 218 222 230
101.6 14.4259931 12.4415925 218 222 230
101.6 12.7 14.1990317 218 222 230
-101.6 12.7 -14.1990317 218 222 230
-101.6 14.4259931 -12.4415925 218 222 230
-101.6 15.9107869 -10.4761329 218 222 230
-101.6 17.1295562 -8.33551474 218 222 230
-101.6 18.0619232 -6.05552878 218 222 230
-101.6 18.6922992 -3.67429579 218 222 230
-101.6 19.0101444 -1.23162945 218 222 230
-101.6 19.0101444 1.23162945 218 222 230
-101.6 18.6922992 3.67429579 218 222 230
-101.6 18.0619232 6.05552878 218 222 230
-101.6 17.1295562 8.33551474 218 222 230
-101.6 15.9107869 10.4761329 218 222 230
-101.6 14.4259931 12.4415925 218 222 230
-101.6 12.7 14.1990317 218 222 230
101.6 -12.7 14.1990317 218 222 230
101.6 -12.7 -14.1990317 218 222 230
101.6 -14.4259931 12.4415925 218 222 230
101.6 -15.9107869 10.4761329 218 222 230
101.6 -17.1295562 8.33551474 218 222 230
101.6 -18.0619232 6.05552878 218 222 230
101.6 -18.6922992 3.67429579 218 222 230
101.6 -19.0101444 1.23162945 218 222 230
101.6 -19.0101444 -1.23162945 218 222 230
101.6 -18.6922992 -3.67429579 218 222 230
101.6 -18.0619232 -6.05552878 218 222 230
101.6 -17.1295562 -8.33551474 218 222 230
101.6 -15.9107869 -10.4761329 218 222 230
101.6 -14.4259931 -12.4415925 218 222 230
-101.6 -12.7 -14.1990317 218 222 230
-101.6 -10.883538 -15.634932 218 222 230
-101.6 -8.90628799 -16.8398496 218 222 230
-101.6 -6.79746081 -17.7959834 218 222 230
-101.6 -4.58821127 -18.4892081 218 222 230
-101.6 -2.31117774 -18.9092823 218 222 230
-101.6 -6.9388939e-15 -19.0500002 218 222 230
101.6 0 -19.05 218 222 230
101.6 -12.7 -14.1990317 218 222 230
101.6 -10.883538 -15.634932 218 222 230
101.6 -8.90628799 -16.8398496 218 222 230
101.6 -6.79746081 -17.7959834 218 222 230
101.6 -4.58821127 -18.4892081 218 222 230
101.6 -2.31117774 -18.9092823 218 222 230
101.6 -12.7 14.1990317 218 222 230
101.6 -14.4259931 12.4415925 218 222 230
101.6 -15.9107869 10.4761329 218 222 230
101.6 -17.1295562 8.33551474 218 222 230
101.6 -18.0619232 6.05552878 218 222 230
101.6 -18.6922992 3.67429579 218 222 230
101.6 -19.0101444 1.23162945 218 222 230
101.6 -19.0101444 -1.23162945 218 222 230
101.6 -18.6922992 -3.67429579 218 222 230
101.6 -18.0619232 -6.05552878 218 222 230
101.6 -17.1295562 -8.33551474 218 222 230
101.6 -15.9107869 -10.4761329 218 222 230
101.6 -14.4259931 -12.4415925 218 222 230
101.6 1.94552309e-15 19.05 218 222 230
101.6 -2.31117774 18.9092823 218 222 230
101.6 -4.58821127 18.4892081 218 222 230
101.6 -6.79746081 17.7959834 218 222 230
101.6 -8.90628799 16.8398496 218 222 230
101.6 -10.883538 15.634932 218 222 230
101.6 12.7 14.1990317 218 222 230
101.6 10.883538 15.634932 218 222 230
101.6 8.90628799 16.8398496 218 222 230
101.6 6.79746081 17.7959834 218 222 230
101.6 4.58821127 18.4892081 218 222 230
101.6 2.31117774 18.9092823 218 222 230
101.6 12.7 -14.1990317 218 222 230
101.6 14.4259931 -12.4415925 218 222 230
101.6 15.9107869 -10.4761329 218 222 230
101.6 17.1295562 -8.33551474 218 222 230
101.6 18.0619232 -6.05552878 218 222 230
101.6 18.6922992 -3.67429579 218 222 230
101.6 19.0101444 -1.23162945 218 222 230
101.6 19.0101444 1.23162945 218 222 230
101.6 18.6922992 3.67429579 218 222 230
101.6 18.0619232 6.05552878 218 222 230
101.6 17.1295562 8.33551474 218 222 230
101.6 15.9107869 10.4761329 218 222 230
101.6 14.4259931 12.4415925 218 222 230
101.6 0 -19.05 218 222 230
101.6 2.31117774 -18.9092823 218 222 230
101.6 4.58821127 -18.4892081 218 222 230
101.6 6.79746081 -17.7959834 218 222 230
101.6 8.90628799 -16.8398496 218 222 230
101.6 10.883538 -15.634932 218 222 230
-101.6 -6.9388939e-15 -19.0500002 218 222 230
-101.6 2.31117774 -18.9092823 218 222 230
-101.6 4.58821127 -18.4892081 218 222 230
-101.6 6.79746081 -17.7959834 218 222 230
-101.6 8.90628799 -16.8398496 218 222 230
-101.6 10.883538 -15.634932 218 222 230
-101.6 12.7 -14.1990317 218 222 230
-101.6 14.4259931 -12.4415925 218 222 230
-101.6 15.9107869 -10.4761329 218 222 230
-101.6 17.1295562 -8.33551474 218 222 230
-101.6 18.0619232 -6.05552878 218 222 230
-101.6 18.6922992 -3.67429579 218 222 230
-101.6 19.0101444 -1.23162945 218 222 230
-101.6 19.0101444 1.23162945 218 222 230
-101.6 18.6922992 3.67429579 218 222 230
-101.6 18.0619232 6.05552878 218 222 230
-101.6 17.1295562 8.33551474 218 222 230
-101.6 15.9107869 10.4761329 218 222 230
-101.6 14.4259931 12.4415925 218 222 230
-101.6 12.7 14.1990317 218 222 230
-101.6 10.883538 15.634932 218 222 230
-101.6 8.90628799 16.8398496 218 222 230
-101.6 6.79746081 17.7959834 218 222 230
-101.6 4.58821127 18.4892081 218 222 230
-101.6 2.31117774 18.9092823 218 222 230
-101.6 -6.9388939e-15 19.05 218 222 230
-101.6 -2.31117774 18.9092823 218 222 230
-101.6 -4.58821127 18.4892081 218 222 230
-101.6 -6.79746081 17.7959834 218 222 230
-101.6 -8.90628799 16.8398496 218 222 230
-101.6 -10.883538 15.634932 218 222 230
-101.6 -12.7 14.1990317 218 222 230
-101.6 -14.4259931 12.4415925 218 222 230
-101.6 -15.9107869 10.4761329 218 222 230
-101.6 -17.1295562 8.33551474 218 222 230
-101.6 -18.0619232 6.05552878 218 222 230
-101.6 -18.6922992 3.67429579 218 222 230
-101.6 -19.0101444 1.23162945 218 222 230
-101.6 -19.0101444 -1.23162945 218 222 230
-101.6 -18.6922992 -3.67429579 218 222 230
-101.6 -18.0619232 -6.05552878 218 222 230
-101.6 -17.1295562 -8.33551474 218 222 230
-101.6 -15.9107869 -10.4761329 218 222 230
-101.6 -14.4259931 -12.4415925 218 222 230
-101.6 -12.7 14.1990317 218 222 230
-101.6 -12.7 -14.1990317 218 222 230
-101.6 -14.4259931 12.4415925 218 222 230
-101.6 -15.9107869 10.4761329 218 222 230
-101.6 -17.1295562 8.33551474 218 222 230
-101.6 -18.0619232 6.05552878 218 222 230
-101.6 -18.6922992 3.67429579 218 222 230
-101.6 -19.0101444 1.23162945 218 222 230
-101.6 -19.0101444 -1.23162945 218 222 230
-101.6 -18.6922992 -3.67429579 218 222 230
-101.6 -18.0619232 -6.05552878 218 222 230
-101.6 -17.1295562 -8.33551474 218 222 230
-101.6 -15.9107869 -10.4761329 218 222 230
-101.6 -14.4259931 -12.4415925 218 222 230
-101.6 -12.7 19.05 218 222 230
-101.6 -12.7 14.1990317 218 222 230
-101.6 -6.9388939e-15 19.05 218 222 230
-101.6 -2.31117774 18.9092823 218 222 230
-101.6 -4.58821127 18.4892081 218 222 230
-101.6 -6.79746081 17.7959834 218 222 230
-101.6 -8.90628799 16.8398496 218 222 230
-101.6 -10.883538 15.634932 218 222 230
-101.6 -6.9388939e-15 19.05 218 222 230
-101.6 12.7 19.05 218 222 230
-101.6 12.7 14.1990317 218 222 230
-101.6 10.883538 15.634932 218 222 230
-101.6 8.90628799 16.8398496 218 222 230
-101.6 6.79746081 17.7959834 218 222 230
-101.6 4.58821127 18.4892081 218 222 230
-101.6 2.31117774 18.9092823 218 222 230
-101.6 -6.9388939e-15 -19.0500002 218 222 230
-101.6 12.7 -19.0500002 218 222 230
-101.6 12.7 -14.1990317 218 222 230
-101.6 2.31117774 -18.9092823 218 222 230
-101.6 4.58821127 -18.4892081 218 222 230
-101.6 6.79746081 -17.7959834 218 222 230
-101.6 8.90628799 -16.8398496 218 222 230
-101.6 10.883538 -15.634932 218 222 230
-101.6 12.7 19.05 218 222 230
-104.016211 12.7 18.9379577 218 222 230
-106.398756 12.7 18.520692 218 222 230
-108.709235 12.7 17.8049281 218 222 230
-110.91041 12.7 16.802202 218 222 230
-112.966805 12.7 15.5286746 218 222 230
-114.845276 12.7 14.0048714 218 222 230
-116.515548 12.7 12.2553515 218 222 230
-117.950703 12.7 10.308312 218 222 230
-119.127608 12.7 8.19513326 218 222 230
-120.027297 12.7 5.9498735 218 222 230
-120.635268 12.7 3.60871956 218 222 230
-120.941723 12.7 1.20940385 218 222 230
-120.941723 12.7 -1.20940384 218 222 230
-120.635268 12.7 -3.60871956 218 222 230
-120.027297 12.7 -5.9498735 218 222 230
-119.127608 12.7 -8.19513326 218 222 230
-117.950703 12.7 -10.308312 218 222 230
-116.515548 12.7 -12.2553515 218 222 230
-114.845276 12.7 -14.0048714 218 222 230
-112.966805 12.7 -15.5286746 218 222 230
-110.91041 12.7 -16.802202 218 222 230
-108.709235 12.7 -17.8049281 218 222 230
-106.398756 12.7 -18.520692 218 222 230
-104.016211 12.7 -18.9379577 218 222 230
-101.6 12.7 -19.0500002 218 222 230
-101.6 -6.9388939e-15 -19.0500002 218 222 230
-101.6 -12.7 -19.0500002 218 222 230
-101.6 -12.7 19.05 218 222 230
-104.016211 -12.7 18.9379577 218 222 230
-106.398756 -12.7 18.520692 218 222 230
-108.709235 -12.7 17.8049281 218 222 230
-110.91041 -12.7 16.802202 218 222 230
-112.966805 -12.7 15.5286746 218 222 230
-114.845276 -12.7 14.0048714 218 222 230
-116.515548 -12.7 12.2553515 218 222 230
-117.950703 -12.7 10.308312 218 222 230
-119.127608 -12.7 8.19513326 218 222 230
-120.027297 -12.7 5.9498735 218 222 230
-120.635268 -12.7 3.60871956 218 222 230
-120.941723 -12.7 1.20940385 218 222 230
-120.941723 -12.7 -1.20940384 218 222 230
-120.635268 -12.7 -3.60871956 218 222 230
-120.027297 -12.7 -5.9498735 218 222 230
-119.127608 -12.7 -8.19513326 218 222 230
-117.950703 -12.7 -10.308312 218 222 230
-116.515548 -12.7 -12.2553515 218 222 230
-114.845276 -12.7 -14.0048714 218 222 230
-112.966805 -12.7 -15.5286746 218 222 230
-110.91041 -12.7 -16.802202 218 222 230
-108.709235 -12.7 -17.8049281 218 222 230
-106.398756 -12.7 -18.520692 218 222 230
-104.016211 -12.7 -18.9379577 218 222 230
-101.6 -6.9388939e-15 19.05 218 222 230
-101.6 -12.7 -14.1990317 218 222 230
-101.6 -10.883538 -15.634932 218 222 230
-101.6 -8.90628799 -16.8398496 218 222 230
-101.6 -6.79746081 -17.7959834 218 222 230
-101.6 -4.58821127 -18.4892081 218 222 230
-101.6 -2.31117774 -18.9092823 218 222 230
-101.6 -6.9388939e-15 -19.0500002 218 222 230
-101.6 -12.7 -19.0500002 218 222 230
101.6 1.94552309e-15 19.05 218 222 230
101.6 12.7 19.05 218 222 230
101.6 12.7 14.1990317 218 222 230
101.6 10.883538 15.634932 218 222 230
101.6 8.90628799 16.8398496 218 222 230
101.6 6.79746081 17.7959834 218 222 230
101.6 4.58821127 18.4892081 218 222 230
101.6 2.31117774 18.9092823 218 222 230
101.6 12.7 -19.0500002 218 222 230
104.035019 12.7 -18.9634448 218 222 230
106.439093 12.7 -18.5669127 218 222 230
108.772925 12.7 -17.8668856 218 222 230
110.998366 12.7 -16.8748062 218 222 230
113.079039 12.7 -15.6068909 218 222 230
114.980933 12.7 -14.0838652 218 222 230
116.672961 12.7 -12.3306244 218 222 230
118.127463 12.7 -10.3758271 218 222 230
119.320665 12.7 -8.25142636 218 222 230
120.233062 12.7 -5.99214769 218 222 230
120.849741 12.7 -3.6349213 218 222 230
121.160622 12.7 -1.21827843 218 222 230
121.160622 12.7 1.21827843 218 222 230
120.849741 12.7 3.6349213 218 222 230
120.233062 12.7 5.9921477 218 222 230
119.320665 12.7 8.25142636 218 222 230
118.127463 12.7 10.3758271 218 222 230
116.672961 12.7 12.3306244 218 222 230
114.980933 12.7 14.0838652 218 222 230
113.079039 12.7 15.6068909 218 222 230
110.998366 12.7 16.8748062 218 222 230
108.772925 12.7 17.8668856 218 222 230
106.439093 12.7 18.5669127 218 222 230
104.035019 12.7 18.9634448 218 222 230
101.6 12.7 19.05 218 222 230
101.6 1.94552309e-15 19.05 218 222 230
101.6 -12.7 19.05 218 222 230
101.6 -12.7 -19.0500002 218 222 230
104.035019 -12.7 -18.9634448 218 222 230
106.439093 -12.7 -18.5669127 218 222 230
108.772925 -12.7 -17.8668856 218 222 230
110.998366 -12.7 -16.8748062 218 222 230
113.079039 -12.7 -15.6068909 218 222 230
114.980933 -12.7 -14.0838652 218 222 230
116.672961 -12.7 -12.3306244 218 222 230
118.127463 -12.7 -10.3758271 218 222 230
119.320665 -12.7 -8.25142636 218 222 230
120.233062 -12.7 -5.99214769 218 222 230
120.849741 -12.7 -3.6349213 218 222 230
121.160622 -12.7 -1.21827843 218 222 230
121.160622 -12.7 1.21827843 218 222 230
120.849741 -12.7 3.6349213 218 222 230
120.233062 -12.7 5.9921477 218 222 230
119.320665 -12.7 8.25142636 218 222 230
118.127463 -12.7 10.3758271 218 222 230
116.672961 -12.7 12.3306244 218 222 230
114.980933 -12.7 14.0838652 218 222 230
113.079039 -12.7 15.6068909 218 222 230
110.998366 -12.7 16.8748062 218 222 230
108.772925 -12.7 17.8668856 218 222 230
106.439093 -12.7 18.5669127 218 222 230
104.035019 -12.7 18.9634448 218 222 230
101.6 0 -19.05 218 222 230
101.6 -12.7 -19.0500002 218 222 230
104.035019 -12.7 -18.9634448 218 222 230
106.439093 -12.7 -18.5669127 218 222 230
108.772925 -12.7 -17.8668856 218 222 230
110.998366 -12.7 -16.8748062 218 222 230
113.079039 -12.7 -15.6068909 218 222 230
114.980933 -12.7 -14.0838652 218 222 230
116.672961 -12.7 -12.3306244 218 222 230
118.127463 -12.7 -10.3758271 218 222 230
119.320665 -12.7 -8.25142636 218 222 230
120.233062 -12.7 -5.99214769 218 222 230
120.849741 -12.7 -3.6349213 218 222 230
121.160622 -12.7 -1.21827843 218 222 230
121.160622 -12.7 1.21827843 218 222 230
120.849741 -12.7 3.6349213 218 222 230
120.233062 -12.7 5.9921477 218 222 230
119.320665 -12.7 8.25142636 218 222 230
118.127463 -12.7 10.3758271 218 222 230
116.672961 -12.7 12.3306244 218 222 230
114.980933 -12.7 14.0838652 218 222 230
113.079039 -12.7 15.6068909 218 222 230
110.998366 -12.7 16.8748062 218 222 230
108.772925 -12.7 17.8668856 218 222 230
106.439093 -12.7 18.5669127 218 222 230
104.035019 -12.7 18.9634448 218 222 230
101.6 -12.7 19.05 218 222 230
101.6 -12.7 14.1990317 218 222 230
101.6 -12.7 -14.1990317 218 222 230
112.7125 -12.7 0 218 222 230
112.57411 -12.7 1.13974085 218 222 230
112.166984 -12.7 2.21324411 218 222 230
111.514782 -12.7 3.15812166 218 222 230
110.655408 -12.7 3.91946066 218 222 230
109.638806 -12.7 4.45301486 218 222 230
108.524056 -12.7 4.72777601 218 222 230
107.375944 -12.7 4.72777601 218 222 230
106.261194 -12.7 4.45301486 218 222 230
105.244592 -12.7 3.91946066 218 222 230
104.385218 -12.7 3.15812166 218 222 230
103.733016 -12.7 2.21324411 218 222 230
103.32589 -12.7 1.13974085 218 222 230
103.1875 -12.7 4.81318776e-15 218 222 230
103.32589 -12.7 -1.13974085 218 222 230
103.733016 -12.7 -2.21324411 218 222 230
104.385218 -12.7 -3.15812166 218 222 230
105.244592 -12.7 -3.91946066 218 222 230
106.261194 -12.7 -4.45301486 218 222 230
107.375944 -12.7 -4.72777601 218 222 230
108.524056 -12.7 -4.72777601 218 222 230
109.638806 -12.7 -4.45301486 218 222 230
110.655408 -12.7 -3.91946066 218 222 230
111.514782 -12.7 -3.15812166 218 222 230
112.166984 -12.7 -2.21324411 218 222 230
112.57411 -12.7 -1.13974085 218 222 230
101.6 12.7 -19.0500002 218 222 230
104.035019 12.7 -18.9634448 218 222 230
106.439093 12.7 -18.5669127 218 222 230
108.772925 12.7 -17.8668856 218 222 230
110.998366 12.7 -16.8748062 218 222 230
113.079039 12.7 -15.6068909 218 222 230
114.980933 12.7 -14.0838652 218 222 230
116.672961 12.7 -12.3306244 218 222 230
118.127463 12.7 -10.3758271 218 222 230
119.320665 12.7 -8.25142636 218 222 230
120.233062 12.7 -5.99214769 218 222 230
120.849741 12.7 -3.6349213 218 222 230
121.160622 12.7 -1.21827843 218 222 230
121.160622 12.7 1.21827843 218 222 230
120.849741 12.7 3.6349213 218 222 230
120.233062 12.7 5.9921477 218 222 230
119.320665 12.7 8.25142636 218 222 230
118.127463 12.7 10.3758271 218 222 230
116.672961 12.7 12.3306244 218 222 230
114.980933 12.7 14.0838652 218 222 230
113.079039 12.7 15.6068909 218 222 230
110.998366 12.7 16.8748062 218 222 230
108.772925 12.7 17.8668856 218 222 230
106.439093 12.7 18.5669127 218 222 230
104.035019 12.7 18.9634448 218 222 230
101.6 12.7 19.05 218 222 230
101.6 12.7 14.1990317 218 222 230
101.6 12.7 -14.1990317 218 222 230
112.7125 12.7 0 218 222 230
112.57411 12.7 1.13974085 218 222 230
112.166984 12.7 2.21324411 218 222 230
111.514782 12.7 3.15812166 218 222 230
110.655408 12.7 3.91946066 218 222 230
109.638806 12.7 4.45301486 218 222 230
108.524056 12.7 4.72777601 218 222 230
107.375944 12.7 4.72777601 218 222 230
106.261194 12.7 4.45301486 218 222 230
105.244592 12.7 3.91946066 218 222 230
104.385218 12.7 3.15812166 218 222 230
103.733016 12.7 2.21324411 218 222 230
103.32589 12.7 1.13974085 218 222 230
103.1875 12.7 4.81318776e-15 218 222 230
103.32589 12.7 -1.13974085 218 222 230
103.733016 12.7 -2.21324411 218 222 230
104.385218 12.7 -3.15812166 218 222 230
105.244592 12.7 -3.91946066 218 222 230
106.261194 12.7 -4.45301486 218 222 230
107.375944 12.7 -4.72777601 218 222 230
108.524056 12.7 -4.72777601 218 222 230
109.638806 12.7 -4.45301486 218 222 230
110.655408 12.7 -3.91946066 218 222 230
111.514782 12.7 -3.15812166 218 222 230
112.166984 12.7 -2.21324411 218 222 230
112.57411 12.7 -1.13974085 218 222 230
112.7125 -12.7 0 218 222 230
112.57411 -12.7 1.13974085 218 222 230
112.166984 -12.7 2.21324411 218 222 230
111.514782 -12.7 3.15812166 218 222 230
110.655408 -12.7 3.91946066 218 222 230
109.638806 -12.7 4.45301486 218 222 230
108.524056 -12.7 4.72777601 218 222 230
107.375944 -12.7 4.72777601 218 222 230
106.261194 -12.7 4.45301486 218 222 230
105.244592 -12.7 3.91946066 218 222 230
104.385218 -12.7 3.15812166 218 222 230
103.733016 -12.7 2.21324411 218 222 230
103.32589 -12.7 1.13974085 218 222 230
103.1875 -12.7 4.81318776e-15 218 222 230
103.32589 -12.7 -1.13974085 218 222 230
103.733016 -12.7 -2.21324411 218 222 230
104.385218 -12.7 -3.15812166 218 222 230
105.244592 -12.7 -3.91946066 218 222 230
106.261194 -12.7 -4.45301486 218 222 230
107.375944 -12.7 -4.72777601 218 222 230
108.524056 -12.7 -4.72777601 218 222 230
109.638806 -12.7 -4.45301486 218 222 230
110.655408 -12.7 -3.91946066 218 222 230
111.514782 -12.7 -3.15812166 218 222 230
112.166984 -12.7 -2.21324411 218 222 230
112.57411 -12.7 -1.13974085 218 222 230
112.7125 -12.7 0 218 222 230
112.7125 12.7 0 218 222 230
112.57411 12.7 1.13974085 218 222 230
112.166984 12.7 2.21324411 218 222 230
111.514782 12.7 3.15812166 218 222 230
110.655408 12.7 3.91946066 218 222 230
109.638806 12.7 4.45301486 218 222 230
108.524056 12.7 4.72777601 218 222 230
107.375944 12.7 4.72777601 218 222 230
106.261194 12.7 4.45301486 218 222 230
105.244592 12.7 3.91946066 218 222 230
104.385218 12.7 3.15812166 218 222 230
103.733016 12.7 2.21324411 218 222 230
103.32589 12.7 1.13974085 218 222 230
103.1875 12.7 4.81318776e-15 218 222 230
103.32589 12.7 -1.13974085 218 222 230
103.733016 12.7 -2.21324411 218 222 230
104.385218 12.7 -3.15812166 218 222 230
105.244592 12.7 -3.91946066 218 222 230
106.261194 12.7 -4.45301486 218 222 230
107.375944 12.7 -4.72777601 218 222 230
108.524056 12.7 -4.72777601 218 222 230
109.638806 12.7 -4.45301486 218 222 230
110.655408 12.7 -3.91946066 218 222 230
111.514782 12.7 -3.15812166 218 222 230
112.166984 12.7 -2.21324411 218 222 230
112.57411 12.7 -1.13974085 218 222 230
112.7125 12.7 0 218 222 230
-103.1875 -12.7 0 218 222 230
-103.32589 -12.7 1.13974085 218 222 230
-103.733016 -12.7 2.21324411 218 222 230
-104.385218 -12.7 3.15812166 218 222 230
-105.244592 -12.7 3.91946066 218 222 230
-106.261194 -12.7 4.45301486 218 222 230
-107.375944 -12.7 4.72777601 218 222 230
-108.524056 -12.7 4.72777601 218 222 230
-109.638806 -12.7 4.45301486 218 222 230
-110.655408 -12.7 3.91946066 218 222 230
-111.514782 -12.7 3.15812166 218 222 230
-112.166984 -12.7 2.21324411 218 222 230
-112.57411 -12.7 1.13974085 218 222 230
-112.7125 -12.7 4.81318776e-15 218 222 230
-112.57411 -12.7 -1.13974085 218 222 230
-112.166984 -12.7 -2.21324411 218 222 230
-111.514782 -12.7 -3.15812166 218 222 230
-110.655408 -12.7 -3.91946066 218 222 230
-109.638806 -12.7 -4.45301486 218 222 230
-108.524056 -12.7 -4.72777601 218 222 230
-107.375944 -12.7 -4.72777601 218 222 230
-106.261194 -12.7 -4.45301486 218 222 230
-105.244592 -12.7 -3.91946066 218 222 230
-104.385218 -12.7 -3.15812166 218 222 230
-103.733016 -12.7 -2.21324411 218 222 230
-103.32589 -12.7 -1.13974085 218 222 230
-103.1875 -12.7 0 218 222 230
-103.1875 12.7 0 218 222 230
-103.32589 12.7 1.13974085 218 222 230
-103.733016 12.7 2.21324411 218 222 230
-104.385218 12.7 3.15812166 218 222 230
-105.244592 12.7 3.91946066 218 222 230
-106.261194 12.7 4.45301486 218 222 230
-107.375944 12.7 4.72777601 218 222 230
-108.524056 12.7 4.72777601 218 222 230
-109.638806 12.7 4.45301486 218 222 230
-110.655408 12.7 3.91946066 218 222 230
-111.514782 12.7 3.15812166 218 222 230
-112.166984 12.7 2.21324411 218 222 230
-112.57411 12.7 1.13974085 218 222 230
-112.7125 12.7 4.81318776e-15 218 222 230
-112.57411 12.7 -1.13974085 218 222 230
-112.166984 12.7 -2.21324411 218 222 230
-111.514782 12.7 -3.15812166 218 222 230
-110.655408 12.7 -3.91946066 218 222 230
-109.638806 12.7 -4.45301486 218 222 230
-108.524056 12.7 -4.72777601 218 222 230
-107.375944 12.7 -4.72777601 218 222 230
-106.261194 12.7 -4.45301486 218 222 230
-105.244592 12.7 -3.91946066 218 222 230
-104.385218 12.7 -3.15812166 218 222 230
-103.733016 12.7 -2.21324411 218 222 230
-103.32589 12.7 -1.13974085 218 222 230
-103.1875 12.7 0 218 222 230
-101.6 12.7 19.05 218 222 230
-104.016211 12.7 18.9379577 218 222 230
-106.398756 12.7 18.520692 218 222 230
-108.709235 12.7 17.8049281 218 222 230
-110.91041 12.7 16.802202 218 222 230
-112.966805 12.7 15.5286746 218 222 230
-114.845276 12.7 14.0048714 218 222 230
-116.515548 12.7 12.2553515 218 222 230
-117.950703 12.7 10.308312 218 222 230
-119.127608 12.7 8.19513326 218 222 230
-120.027297 12.7 5.9498735 218 222 230
-120.635268 12.7 3.60871956 218 222 230
-120.941723 12.7 1.20940385 218 222 230
-120.941723 12.7 -1.20940384 218 222 230
-120.635268 12.7 -3.60871956 218 222 230
-120.027297 12.7 -5.9498735 218 222 230
-119.127608 12.7 -8.19513326 218 222 230
-117.950703 12.7 -10.308312 218 222 230
-116.515548 12.7 -12.2553515 218 222 230
-114.845276 12.7 -14.0048714 218 222 230
-112.966805 12.7 -15.5286746 218 222 230
-110.91041 12.7 -16.802202 218 222 230
-108.709235 12.7 -17.8049281 218 222 230
-106.398756 12.7 -18.520692 218 222 230
-104.016211 12.7 -18.9379577 218 222 230
-101.6 12.7 -19.0500002 218 222 230
-101.6 12.7 -14.1990317 218 222 230
-101.6 12.7 14.1990317 218 222 230
-103.1875 12.7 0 218 222 230
-103.32589 12.7 1.13974085 218 222 230
-103.733016 12.7 2.21324411 218 222 230
-104.385218 12.7 3.15812166 218 222 230
-105.244592 12.7 3.91946066 218 222 230
-106.261194 12.7 4.45301486 218 222 230
-107.375944 12.7 4.72777601 218 222 230
-108.524056 12.7 4.72777601 218 222 230
-109.638806 12.7 4.45301486 218 222 230
-110.655408 12.7 3.91946066 218 222 230
-111.514782 12.7 3.15812166 218 222 230
-112.166984 12.7 2.21324411 218 222 230
-112.57411 12.7 1.13974085 218 222 230
-112.7125 12.7 4.81318776e-15 218 222 230
-112.57411 12.7 -1.13974085 218 222 230
-112.166984 12.7 -2.21324411 218 222 230
-111.514782 12.7 -3.15812166 218 222 230
-110.655408 12.7 -3.91946066 218 222 230
-109.638806 12.7 -4.45301486 218 222 230
-108.524056 12.7 -4.72777601 218 222 230
-107.375944 12.7 -4.72777601 218 222 230
-106.261194 12.7 -4.45301486 218 222 230
-105.244592 12.7 -3.91946066 218 222 230
-104.385218 12.7 -3.15812166 218 222 230
-103.733016 12.7 -2.21324411 218 222 230
-103.32589 12.7 -1.13974085 218 222 230
3 26 21 22
3 26 22 23
3 26 23 24
3 26 24 25
3 44 15 16
3 44 16 17
3 45 17 18
3 45 44 17
3 43 14 15
3 43 15 44
3 46 18 19
3 46 45 18
3 42 13 14
3 42 14 43
3 47 19 20
3 47 20 21
3 47 46 19
3 41 12 13
3 41 13 42
3 48 47 21
3 48 21 26
3 40 11 12
3 40 12 41
3 49 48 26
3 39 10 11
3 39 11 40
3 50 49 26
3 38 10 39
3 38 9 10
3 8 9 38
3 51 50 26
3 37 8 38
3 52 51 26
3 53 52 26
3 7 8 37
3 7 37 36
3 28 53 26
3 6 7 36
3 6 36 35
3 5 6 35
3 4 35 34
3 4 5 35
3 27 2 3
3 27 3 4
3 27 29 28
3 27 30 29
3 27 31 30
3 27 32 31
3 27 33 32
3 27 34 33
3 27 4 34
3 1 2 27
3 0 1 27
3 26 27 28
3 55 58 59
3 55 59 60
3 55 60 61
3 55 61 56
3 54 57 55
3 57 58 55
3 69 62 63
3 64 69 63
3 65 69 64
3 66 69 65
3 69 67 68
3 69 66 67
3 77 71 70
3 76 77 70
3 75 76 70
3 74 75 70
3 72 73 70
3 73 74 70
3 87 88 89
3 85 86 87
3 83 84 85
3 83 87 89
3 83 85 87
3 81 82 83
3 79 80 81
3 79 81 83
3 78 89 90
3 78 90 91
3 78 83 89
3 78 79 83
3 101 103 102
3 99 101 100
3 97 99 98
3 97 103 101
3 97 101 99
3 95 97 96
3 93 95 94
3 93 97 95
3 92 104 103
3 92 105 104
3 92 103 97
3 92 97 93
3 107 106 119
3 119 106 108
3 119 108 109
3 119 109 110
3 119 110 111
3 119 111 112
3 119 112 113
3 119 113 114
3 119 114 115
3 119 115 118
3 118 115 117
3 117 115 116
3 125 126 127
3 125 127 133
3 124 132 131
3 124 133 132
3 124 125 133
3 123 124 131
3 122 131 130
3 122 123 131
3 121 129 128
3 121 130 129
3 121 122 130
3 120 121 128
3 221 128 146
3 221 120 128
3 220 146 145
3 220 221 146
3 219 145 144
3 219 220 145
3 218 144 143
3 218 219 144
3 217 143 142
3 217 218 143
3 216 142 141
3 216 217 142
3 215 141 140
3 215 216 141
3 214 140 139
3 214 215 140
3 213 139 138
3 213 214 139
3 212 137 136
3 212 138 137
3 212 213 138
3 211 212 136
3 210 136 135
3 210 211 136
3 209 135 134
3 209 210 135
3 208 134 152
3 208 209 134
3 207 152 151
3 207 208 152
3 206 151 150
3 206 207 151
3 205 150 149
3 205 206 150
3 204 205 149
3 204 149 148
3 203 204 148
3 203 148 147
3 202 203 147
3 202 147 158
3 201 202 158
3 201 158 157
3 200 201 157
3 200 157 156
3 199 200 156
3 199 156 155
3 198 199 155
3 198 154 153
3 198 155 154
3 197 198 153
3 196 197 153
3 196 171 170
3 196 153 171
3 195 196 170
3 194 195 170
3 194 169 168
3 194 170 169
3 193 194 168
3 192 168 167
3 192 193 168
3 191 166 165
3 191 167 166
3 191 192 167
3 190 165 164
3 190 191 165
3 189 190 164
3 188 163 162
3 188 164 163
3 188 189 164
3 187 162 161
3 187 188 162
3 186 187 161
3 185 161 160
3 185 186 161
3 184 160 159
3 184 185 160
3 183 159 177
3 183 184 159
3 182 177 176
3 182 183 177
3 181 176 175
3 181 182 176
3 180 175 174
3 180 181 175
3 179 174 173
3 179 180 174
3 178 179 173
3 178 173 172
3 223 235 222
3 235 224 222
3 235 225 224
3 235 226 225
3 235 227 226
3 235 228 227
3 235 229 228
3 235 230 229
3 235 231 230
3 235 234 231
3 234 233 231
3 233 232 231
3 243 236 237
3 242 236 243
3 241 236 242
3 240 236 241
3 238 236 239
3 239 236 240
3 245 249 248
3 245 250 249
3 247 245 248
3 246 245 247
3 245 244 251
3 245 251 250
3 253 257 256
3 253 258 257
3 253 259 258
3 253 254 259
3 252 253 255
3 255 253 256
3 261 313 260
3 289 288 313
3 289 313 261
3 290 261 262
3 290 262 263
3 290 289 261
3 291 290 263
3 292 263 264
3 292 264 265
3 292 291 263
3 293 292 265
3 294 265 266
3 294 266 267
3 294 293 265
3 295 294 267
3 296 267 268
3 296 295 267
3 297 268 269
3 297 296 268
3 298 269 270
3 298 297 269
3 299 298 270
3 299 270 271
3 300 299 271
3 300 271 272
3 301 272 273
3 301 300 272
3 302 273 274
3 302 301 273
3 303 302 274
3 303 274 275
3 304 275 276
3 304 276 277
3 304 303 275
3 305 304 277
3 306 277 278
3 306 305 277
3 307 278 279
3 307 306 278
3 308 279 280
3 308 307 279
3 309 280 281
3 309 308 280
3 310 281 282
3 310 309 281
3 311 282 283
3 311 283 284
3 311 310 282
3 312 311 284
3 286 284 285
3 286 312 284
3 287 312 286
3 321 315 314
3 316 315 321
3 317 316 321
3 318 317 321
3 321 320 319
3 321 319 318
3 323 326 327
3 323 327 328
3 325 326 323
3 324 325 323
3 323 329 322
3 323 328 329
3 331 383 330
3 359 358 383
3 359 383 331
3 360 331 332
3 360 332 333
3 360 359 331
3 361 360 333
3 362 333 334
3 362 361 333
3 363 334 335
3 363 335 336
3 363 362 334
3 364 363 336
3 365 336 337
3 365 364 336
3 366 337 338
3 366 338 339
3 366 365 337
3 367 366 339
3 368 339 340
3 368 367 339
3 369 368 340
3 369 340 341
3 370 369 341
3 370 341 342
3 371 342 343
3 371 370 342
3 372 343 344
3 372 371 343
3 373 372 344
3 373 344 345
3 374 345 346
3 374 346 347
3 374 373 345
3 375 374 347
3 376 347 348
3 376 375 347
3 377 348 349
3 377 376 348
3 378 349 350
3 378 377 349
3 379 350 351
3 379 378 350
3 380 351 352
3 380 379 351
3 381 352 353
3 381 380 352
3 382 353 354
3 382 381 353
3 356 354 355
3 356 382 354
3 357 382 356
3 411 384 385
3 386 411 385
3 387 411 386
3 388 411 387
3 429 428 411
3 427 411 428
3 430 429 411
3 426 411 427
3 431 430 411
3 431 411 388
3 425 411 426
3 432 388 389
3 432 389 390
3 432 431 388
3 433 390 391
3 433 432 390
3 434 433 391
3 392 434 391
3 435 434 392
3 393 435 392
3 394 435 393
3 394 436 435
3 410 420 419
3 410 421 420
3 410 422 421
3 410 423 422
3 410 424 423
3 410 425 424
3 395 436 394
3 395 437 436
3 396 437 395
3 396 412 437
3 397 413 412
3 397 412 396
3 408 409 410
3 398 413 397
3 398 414 413
3 407 408 410
3 399 414 398
3 399 415 414
3 406 407 410
3 400 415 399
3 405 410 419
3 405 419 418
3 405 406 410
3 401 416 415
3 401 415 400
3 404 405 418
3 402 417 416
3 402 416 401
3 403 418 417
3 403 417 402
3 403 404 418
3 410 411 425
3 465 439 438
3 440 439 465
3 441 440 465
3 442 441 465
3 483 465 482
3 481 482 465
3 484 465 483
3 480 481 465
3 485 465 484
3 485 442 465
3 479 480 465
3 486 443 442
3 486 444 443
3 486 442 485
3 487 445 444
3 487 444 486
3 488 445 487
3 446 445 488
3 489 446 488
3 447 446 489
3 448 447 489
3 448 489 490
3 464 473 474
3 464 474 475
3 464 475 476
3 464 476 477
3 464 477 478
3 464 478 479
3 449 448 490
3 449 490 491
3 450 449 491
3 450 491 466
3 451 466 467
3 451 450 466
3 462 464 463
3 452 451 467
3 452 467 468
3 461 464 462
3 453 452 468
3 453 468 469
3 460 464 461
3 454 453 469
3 459 473 464
3 459 472 473
3 459 464 460
3 455 469 470
3 455 454 469
3 458 472 459
3 456 470 471
3 456 455 470
3 457 471 472
3 457 456 471
3 457 472 458
3 464 479 465
3 493 519 492
3 493 520 519
3 493 521 520
3 494 521 493
3 495 522 521
3 495 523 522
3 495 521 494
3 496 523 495
3 497 524 523
3 497 525 524
3 497 523 496
3 498 525 497
3 499 526 525
3 499 527 526
3 499 525 498
3 500 527 499
3 501 528 527
3 501 527 500
3 502 529 528
3 502 530 529
3 502 528 501
3 503 530 502
3 504 530 503
3 504 531 530
3 505 531 504
3 505 532 531
3 506 532 505
3 506 533 532
3 507 533 506
3 507 534 533
3 508 534 507
3 508 535 534
3 509 535 508
3 509 536 535
3 509 537 536
3 510 537 509
3 511 537 510
3 511 538 537
3 512 538 511
3 512 539 538
3 513 539 512
3 513 540 539
3 514 540 513
3 514 541 540
3 515 541 514
3 515 542 541
3 516 542 515
3 516 543 542
3 517 544 543
3 517 543 516
3 518 545 544
3 518 544 517
3 547 573 546
3 547 574 573
3 547 575 574
3 548 575 547
3 549 576 575
3 549 577 576
3 549 575 548
3 550 577 549
3 551 578 577
3 551 579 578
3 551 577 550
3 552 579 551
3 553 580 579
3 553 581 580
3 553 579 552
3 554 581 553
3 555 582 581
3 555 581 554
3 556 583 582
3 556 584 583
3 556 582 555
3 557 584 556
3 558 584 557
3 558 585 584
3 559 585 558
3 559 586 585
3 560 586 559
3 560 587 586
3 561 587 560
3 561 588 587
3 562 588 561
3 562 589 588
3 563 589 562
3 563 590 589
3 563 591 590
3 564 591 563
3 565 591 564
3 565 592 591
3 566 592 565
3 566 593 592
3 567 593 566
3 567 594 593
3 568 594 567
3 568 595 594
3 569 595 568
3 569 596 595
3 570 596 569
3 570 597 596
3 571 598 597
3 571 597 570
3 572 599 598
3 572 598 571
3 626 622 621
3 626 623 622
3 626 624 623
3 626 625 624
3 644 616 615
3 644 617 616
3 645 618 617
3 645 617 644
3 643 615 614
3 643 644 615
3 646 619 618
3 646 618 645
3 642 614 613
3 642 643 614
3 647 620 619
3 647 621 620
3 647 619 646
3 641 613 612
3 641 642 613
3 648 621 647
3 648 626 621
3 640 612 611
3 640 641 612
3 649 626 648
3 639 611 610
3 639 640 611
3 650 626 649
3 638 639 610
3 638 610 609
3 608 638 609
3 651 626 650
3 637 638 608
3 652 626 651
3 653 626 652
3 607 637 608
3 607 636 637
3 628 626 653
3 606 636 607
3 606 635 636
3 605 635 606
3 604 634 635
3 604 635 605
3 627 603 602
3 627 604 603
3 627 628 629
3 627 629 630
3 627 630 631
3 627 631 632
3 627 632 633
3 627 633 634
3 627 634 604
3 601 627 602
3 600 627 601
3 626 628 627
