ply
format ascii 1.0
comment generated by blendit.inference.finetune_visualize
element vertex 1832
property float x
property float y
property float z
property uchar red
property uchar green
property uchar blue
element face 1798
property list uchar int vertex_indices
end_header
85.471 -76.2 25.4 218 222 230
85.6175373 -76.2 28.459099 218 222 230
86.0558073 -76.2 31.4901845 218 222 230
86.7817966 -76.2 34.4654995 218 222 230
87.788857 -76.2 37.3577978 218 222 230
89.0677663 -76.2 40.1405933 218 222 230
90.6068132 -76.2 42.7884028 218 222 230
92.3919037 -76.2 45.276979 218 222 230
94.4066911 -76.2 47.5835331 218 222 230
96.6327251 -76.2 49.6869429 218 222 230
99.0496209 -76.2 51.5679465 218 222 230
101.635246 -76.2 53.2093187 218 222 230
104.365923 -76.2 54.5960289 218 222 230
107.216645 -76.2 55.7153783 218 222 230
110.161307 -76.2 56.5571166 218 222 230
113.172944 -76.2 57.1135355 218 222 230
116.223977 -76.2 57.3795397 218 222 230
119.286466 -76.2 57.3526933 218 222 230
122.332367 -76.2 57.0332421 218 222 230
125.333787 -76.2 56.4241114 218 222 230
128.26324 -76.2 55.5308795 218 222 230
131.0939 -76.2 54.3617259 218 222 230
131.0939 0 54.3617259 218 222 230
87.4815331 0 14.235415 218 222 230
86.528067 0 17.2425891 218 222 230
85.8752971 0 20.3290247 218 222 230
85.529566 0 23.4647325 218 222 230
85.494233 0 26.6192444 218 222 230
85.7696414 0 29.7619095 218 222 230
86.3531153 0 32.862192 218 222 230
87.2389853 0 35.8899681 218 222 230
88.4186438 0 38.8158183 218 222 230
89.8806287 0 41.6113136 218 222 230
91.6107346 0 44.2492915 218 222 230
93.5921508 0 46.70412 218 222 230
95.805625 0 48.9519469 218 222 230
98.2296499 0 50.9709311 218 222 230
100.840672 0 52.741455 218 222 230
103.613323 0 54.2463154 218 222 230
106.52066 0 55.4708903 218 222 230
109.534435 0 56.4032812 218 222 230
112.625365 0 57.0344283 218 222 230
115.763416 0 57.3581992 218 222 230
118.918098 0 57.371448 218 222 230
122.058758 0 57.0740458 218 222 230
125.15488 0 56.4688825 218 222 230
128.17638 0 55.5618381 218 222 230
131.0939 0 54.3617259 218 222 230
133.859851 0 52.8916839 218 222 230
136.468848 0 51.1582949 218 222 230
138.8959 0 49.1781634 218 222 230
141.117758 0 46.9702572 218 222 230
143.113139 0 44.5557262 218 222 230
144.862928 0 41.9576996 218 222 230
146.350364 0 39.2010643 218 222 230
147.561198 0 36.3122265 218 222 230
148.483832 0 33.3188589 218 222 230
149.109428 0 30.2496352 218 222 230
149.431993 0 27.1339562 218 222 230
149.448437 0 24.0016674 218 222 230
149.158603 0 20.8827734 218 222 230
148.565266 0 17.8071506 218 222 230
147.674111 0 14.8042609 218 222 230
146.493675 0 11.9028693 218 222 230
145.035264 0 9.13076887 218 222 230
143.312849 0 6.51451382 218 222 230
141.342929 0 4.0791657 218 222 230
139.144375 0 1.84805309 218 222 230
136.738247 0 -0.157451844 218 222 230
134.147593 0 -1.91813807 218 222 230
131.39723 0 -3.41713972 218 222 230
128.513503 0 -4.64009761 218 222 230
125.524037 0 -5.57529684 218 222 230
122.457468 0 -6.21377902 218 222 230
119.343172 0 -6.54942801 218 222 230
116.21098 0 -6.57902858 218 222 230
113.090896 0 -6.30229718 218 222 230
110.012808 0 -5.72188468 218 222 230
107.006202 0 -4.84335092 218 222 230
104.099877 0 -3.67511151 218 222 230
101.321675 0 -2.22835721 218 222 230
98.6982087 0 -0.516946675 218 222 230
96.2546077 0 1.44272622 218 222 230
94.0142801 0 3.63188947 218 222 230
91.9986862 0 6.02957276 218 222 230
90.2271338 0 8.61280831 218 222 230
88.7165929 0 11.3568509 218 222 230
131.0939 -76.2 54.3617259 218 222 230
133.89986 -76.2 52.867799 218 222 230
136.543774 -76.2 51.1028769 218 222 230
138.999556 -76.2 49.0843724 218 222 230
141.242979 -76.2 46.8321997 218 222 230
143.251909 -76.2 44.3685786 218 222 230
145.006526 -76.2 41.7178151 218 222 230
146.489519 -76.2 38.9060613 218 222 230
147.686257 -76.2 35.9610577 218 222 230
148.584934 -76.2 32.9118597 218 222 230
149.176682 -76.2 29.7885502 218 222 230
149.455664 -76.2 26.6219436 218 222 230
149.419127 -76.2 23.4432814 218 222 230
149.067432 -76.2 20.2839241 218 222 230
148.404049 -76.2 17.1750415 218 222 230
147.435522 -76.2 14.1473058 218 222 230
146.171407 -76.2 11.2305882 218 222 230
144.624176 -76.2 8.45366489 218 222 230
142.809093 -76.2 5.84393279 218 222 230
140.744065 -76.2 3.42713928 218 222 230
138.449468 -76.2 1.22712827 218 222 230
135.947937 -76.2 -0.734395118 218 222 230
133.264154 -76.2 -2.43807865 218 222 230
130.424597 -76.2 -3.86711392 218 222 230
127.45728 -76.2 -5.00740217 218 222 230
124.391478 -76.2 -5.84769343 218 222 230
121.257439 -76.2 -6.37969743 218 222 230
118.086083 -76.2 -6.59816547 218 222 230
114.908698 -76.2 -6.50094216 218 222 230
111.756632 -76.2 -6.0889867 218 222 230
108.660983 -76.2 -5.36636342 218 222 230
105.652292 -76.2 -4.34020164 218 222 230
102.760243 -76.2 -3.02062541 218 222 230
100.013369 -76.2 -1.42065355 218 222 230
97.4387697 -76.2 0.44392873 218 222 230
95.0618464 -76.2 2.55472562 218 222 230
92.9060494 -76.2 4.89091217 218 222 230
90.9926478 -76.2 7.42943974 218 222 230
89.3405189 -76.2 10.1452634 218 222 230
87.9659625 -76.2 13.0115891 218 222 230
86.88254 -76.2 16.0001379 218 222 230
86.1009402 -76.2 19.081425 218 222 230
85.6288745 -76.2 22.2250506 218 222 230
90.4875 -76.2 70.2608513 218 222 230
90.3279204 -76.2 72.3902926 218 222 230
89.8527465 -76.2 74.4721658 218 222 230
89.0725927 -76.2 76.4599652 218 222 230
88.0048865 -76.2 78.3092866 218 222 230
86.6734786 -76.2 79.9788192 218 222 230
85.1081105 -76.2 81.4312686 218 222 230
83.34375 -76.2 82.6341892 218 222 230
81.4198099 -76.2 83.5607099 218 222 230
79.3792678 -76.2 84.1901338 218 222 230
77.2677062 -76.2 84.5084005 218 222 230
75.1322938 -76.2 84.5084005 218 222 230
73.0207322 -76.2 84.1901338 218 222 230
70.9801901 -76.2 83.5607099 218 222 230
69.05625 -76.2 82.6341892 218 222 230
67.2918895 -76.2 81.4312686 218 222 230
65.7265214 -76.2 79.9788192 218 222 230
64.3951135 -76.2 78.3092866 218 222 230
63.3274073 -76.2 76.4599652 218 222 230
62.5472535 -76.2 74.4721658 218 222 230
62.0720796 -76.2 72.3902926 218 222 230
61.9125 -76.2 70.2608513 218 222 230
62.0720796 -76.2 68.1314099 218 222 230
62.5472535 -76.2 66.0495367 218 222 230
63.3274073 -76.2 64.0617373 218 222 230
64.3951135 -76.2 62.2124159 218 222 230
65.7265214 -76.2 60.5428833 218 222 230
67.2918895 -76.2 59.0904339 218 222 230
69.05625 -76.2 57.8875133 218 222 230
70.9801901 -76.2 56.9609926 218 222 230
73.0207322 -76.2 56.3315687 218 222 230
75.1322938 -76.2 56.013302 218 222 230
77.2677062 -76.2 56.013302 218 222 230
79.3792678 -76.2 56.3315687 218 222 230
81.4198099 -76.2 56.9609926 218 222 230
83.34375 -76.2 57.8875133 218 222 230
85.1081105 -76.2 59.0904339 218 222 230
86.6734786 -76.2 60.5428833 218 222 230
88.0048865 -76.2 62.2124159 218 222 230
89.0725927 -76.2 64.0617373 218 222 230
89.8527465 -76.2 66.0495367 218 222 230
90.3279204 -76.2 68.1314099 218 222 230
90.4875 -76.2 70.2608513 218 222 230
90.4875 0 70.2608513 218 222 230
90.3279204 0 72.3902926 218 222 230
89.8527465 0 74.4721658 218 222 230
89.0725927 0 76.4599652 218 222 230
88.0048865 0 78.3092866 218 222 230
86.6734786 0 79.9788192 218 222 230
85.1081105 0 81.4312686 218 222 230
83.34375 0 82.6341892 218 222 230
81.4198099 0 83.5607099 218 222 230
79.3792678 0 84.1901338 218 222 230
77.2677062 0 84.5084005 218 222 230
75.1322938 0 84.5084005 218 222 230
73.0207322 0 84.1901338 218 222 230
70.9801901 0 83.5607099 218 222 230
69.05625 0 82.6341892 218 222 230
67.2918895 0 81.4312686 218 222 230
65.7265214 0 79.9788192 218 222 230
64.3951135 0 78.3092866 218 222 230
63.3274073 0 76.4599652 218 222 230
62.5472535 0 74.4721658 218 222 230
62.0720796 0 72.3902926 218 222 230
61.9125 0 70.2608513 218 222 230
62.0720796 0 68.1314099 218 222 230
62.5472535 0 66.0495367 218 222 230
63.3274073 0 64.0617373 218 222 230
64.3951135 0 62.2124159 218 222 230
65.7265214 0 60.5428833 218 222 230
67.2918895 0 59.0904339 218 222 230
69.05625 0 57.8875133 218 222 230
70.9801901 0 56.9609926 218 222 230
73.0207322 0 56.3315687 218 222 230
75.1322938 0 56.013302 218 222 230
77.2677062 0 56.013302 218 222 230
79.3792678 0 56.3315687 218 222 230
81.4198099 0 56.9609926 218 222 230
83.34375 0 57.8875133 218 222 230
85.1081105 0 59.0904339 218 222 230
86.6734786 0 60.5428833 218 222 230
88.0048865 0 62.2124159 218 222 230
89.0725927 0 64.0617373 218 222 230
89.8527465 0 66.0495367 218 222 230
90.3279204 0 68.1314099 218 222 230
90.4875 0 70.2608513 218 222 230
21.3060995 -76.2 54.3617259 218 222 230
18.5001397 -76.2 52.867799 218 222 230
15.8562262 -76.2 51.1028769 218 222 230
13.4004438 -76.2 49.0843724 218 222 230
11.1570209 -76.2 46.8321997 218 222 230
9.14809093 -76.2 44.3685786 218 222 230
7.39347394 -76.2 41.7178151 218 222 230
5.91048079 -76.2 38.9060613 218 222 230
4.71374257 -76.2 35.9610577 218 222 230
3.81506621 -76.2 32.9118597 218 222 230
3.22331797 -76.2 29.7885502 218 222 230
2.944336 -76.2 26.6219436 218 222 230
2.98087271 -76.2 23.4432814 218 222 230
3.33256763 -76.2 20.2839241 218 222 230
3.99595097 -76.2 17.1750415 218 222 230
4.96447784 -76.2 14.1473058 218 222 230
6.22859283 -76.2 11.2305882 218 222 230
7.77582428 -76.2 8.45366489 218 222 230
9.59090734 -76.2 5.84393279 218 222 230
11.6559345 -76.2 3.42713928 218 222 230
13.9505325 -76.2 1.22712827 218 222 230
16.4520628 -76.2 -0.734395118 218 222 230
19.1358457 -76.2 -2.43807865 218 222 230
21.9754031 -76.2 -3.86711392 218 222 230
24.9427202 -76.2 -5.00740217 218 222 230
28.0085217 -76.2 -5.84769343 218 222 230
31.1425606 -76.2 -6.37969743 218 222 230
34.3139168 -76.2 -6.59816547 218 222 230
37.4913019 -76.2 -6.50094216 218 222 230
40.643368 -76.2 -6.0889867 218 222 230
43.7390171 -76.2 -5.36636342 218 222 230
46.7477079 -76.2 -4.34020164 218 222 230
49.6397568 -76.2 -3.02062541 218 222 230
52.3866311 -76.2 -1.42065355 218 222 230
54.9612303 -76.2 0.44392873 218 222 230
57.3381536 -76.2 2.55472562 218 222 230
59.4939506 -76.2 4.89091217 218 222 230
61.4073522 -76.2 7.42943974 218 222 230
63.0594811 -76.2 10.1452634 218 222 230
64.4340375 -76.2 13.0115891 218 222 230
65.51746 -76.2 16.0001379 218 222 230
66.2990598 -76.2 19.081425 218 222 230
66.7711255 -76.2 22.2250506 218 222 230
66.929 -76.2 25.4 218 222 230
21.3060995 0 54.3617259 218 222 230
18.5401493 0 52.8916839 218 222 230
15.9311521 0 51.1582949 218 222 230
13.5040999 0 49.1781634 218 222 230
11.2822417 0 46.9702572 218 222 230
9.28686102 0 44.5557262 218 222 230
7.537072 0 41.9576996 218 222 230
6.0496361 0 39.2010643 218 222 230
4.83880169 0 36.3122265 218 222 230
3.91616754 0 33.3188589 218 222 230
3.2905717 0 30.2496352 218 222 230
2.96800684 0 27.1339562 218 222 230
2.95156287 0 24.0016674 218 222 230
3.2413973 0 20.8827734 218 222 230
3.83473377 0 17.8071506 218 222 230
4.72588861 0 14.8042609 218 222 230
5.90632532 0 11.9028693 218 222 230
7.36473632 0 9.13076887 218 222 230
9.08715126 0 6.51451382 218 222 230
11.0570709 0 4.0791657 218 222 230
13.255625 0 1.84805309 218 222 230
15.6617534 0 -0.157451844 218 222 230
18.2524073 0 -1.91813807 218 222 230
21.0027705 0 -3.41713972 218 222 230
23.8864968 0 -4.64009761 218 222 230
26.8759627 0 -5.57529684 218 222 230
29.9425315 0 -6.21377902 218 222 230
33.0568281 0 -6.54942801 218 222 230
36.1890203 0 -6.57902858 218 222 230
39.3091042 0 -6.30229718 218 222 230
42.387192 0 -5.72188468 218 222 230
45.3937985 0 -4.84335092 218 222 230
48.3001227 0 -3.67511151 218 222 230
51.0783246 0 -2.22835721 218 222 230
53.7017913 0 -0.516946675 218 222 230
56.1453923 0 1.44272622 218 222 230
58.3857199 0 3.63188947 218 222 230
60.4013138 0 6.02957276 218 222 230
62.1728662 0 8.61280831 218 222 230
63.6834071 0 11.3568509 218 222 230
64.9184669 0 14.235415 218 222 230
65.871933 0 17.2425891 218 222 230
66.5247029 0 20.3290247 218 222 230
66.870434 0 23.4647325 218 222 230
66.905767 0 26.6192444 218 222 230
66.6303586 0 29.7619095 218 222 230
66.0468847 0 32.862192 218 222 230
65.1610147 0 35.8899681 218 222 230
63.9813562 0 38.8158183 218 222 230
62.5193713 0 41.6113136 218 222 230
60.7892654 0 44.2492915 218 222 230
58.8078492 0 46.70412 218 222 230
56.594375 0 48.9519469 218 222 230
54.1703501 0 50.9709311 218 222 230
51.5593276 0 52.741455 218 222 230
48.7866775 0 54.2463154 218 222 230
45.8793402 0 55.4708903 218 222 230
42.865565 0 56.4032812 218 222 230
39.7746352 0 57.0344283 218 222 230
36.6365839 0 57.3581992 218 222 230
33.481902 0 57.371448 218 222 230
30.341242 0 57.0740458 218 222 230
27.24512 0 56.4688825 218 222 230
24.2236197 0 55.5618381 218 222 230
21.3060995 0 54.3617259 218 222 230
21.3060995 -76.2 54.3617259 218 222 230
66.7824627 -76.2 28.459099 218 222 230
66.3441927 -76.2 31.4901845 218 222 230
65.6182034 -76.2 34.4654995 218 222 230
64.611143 -76.2 37.3577978 218 222 230
63.3322337 -76.2 40.1405933 218 222 230
61.7931868 -76.2 42.7884028 218 222 230
60.0080963 -76.2 45.276979 218 222 230
57.9933089 -76.2 47.5835331 218 222 230
55.7672749 -76.2 49.6869429 218 222 230
53.3503791 -76.2 51.5679465 218 222 230
50.764754 -76.2 53.2093187 218 222 230
48.0340774 -76.2 54.5960289 218 222 230
45.1833552 -76.2 55.7153783 218 222 230
42.2386928 -76.2 56.5571166 218 222 230
39.2270557 -76.2 57.1135355 218 222 230
36.1760228 -76.2 57.3795397 218 222 230
33.1135338 -76.2 57.3526933 218 222 230
30.0676331 -76.2 57.0332421 218 222 230
27.0662135 -76.2 56.4241114 218 222 230
24.1367602 -76.2 55.5308795 218 222 230
21.3060995 0 54.3617259 218 222 230
22.5961099 0 50.4430444 218 222 230
24.1654572 0 46.6276361 218 222 230
26.0059633 0 42.9353836 218 222 230
28.1080371 0 39.3855276 218 222 230
30.4607244 0 35.9965671 218 222 230
33.0517651 0 32.7861621 218 222 230
18.5401493 0 52.8916839 218 222 230
15.9311521 0 51.1582949 218 222 230
13.5040999 0 49.1781634 218 222 230
11.2822417 0 46.9702572 218 222 230
9.28686102 0 44.5557262 218 222 230
7.537072 0 41.9576996 218 222 230
6.0496361 0 39.2010643 218 222 230
4.83880169 0 36.3122265 218 222 230
3.91616754 0 33.3188589 218 222 230
3.2905717 0 30.2496352 218 222 230
2.96800684 0 27.1339562 218 222 230
2.95156287 0 24.0016674 218 222 230
3.2413973 0 20.8827734 218 222 230
3.83473377 0 17.8071506 218 222 230
4.72588861 0 14.8042609 218 222 230
5.90632532 0 11.9028693 218 222 230
7.36473632 0 9.13076887 218 222 230
9.08715126 0 6.51451382 218 222 230
11.0570709 0 4.0791657 218 222 230
13.255625 0 1.84805309 218 222 230
15.6617534 0 -0.157451844 218 222 230
18.2524073 0 -1.91813807 218 222 230
21.0027705 0 -3.41713972 218 222 230
23.8864968 0 -4.64009761 218 222 230
26.8759627 0 -5.57529684 218 222 230
29.9425315 0 -6.21377902 218 222 230
33.0568281 0 -6.54942801 218 222 230
36.1890203 0 -6.57902858 218 222 230
39.3091042 0 -6.30229718 218 222 230
42.387192 0 -5.72188468 218 222 230
45.3937985 0 -4.84335092 218 222 230
48.3001227 0 -3.67511151 218 222 230
51.0783246 0 -2.22835721 218 222 230
53.7017913 0 -0.516946675 218 222 230
56.1453923 0 1.44272622 218 222 230
58.3857199 0 3.63188947 218 222 230
60.4013138 0 6.02957276 218 222 230
62.1728662 0 8.61280831 218 222 230
63.6834071 0 11.3568509 218 222 230
64.9184669 0 14.235415 218 222 230
42.4413013 0 24.1471574 218 222 230
45.8559555 0 21.8319192 218 222 230
49.4287365 0 19.7690504 218 222 230
53.1410261 0 17.9693011 218 222 230
56.9734789 0 16.4420498 218 222 230
60.9061237 0 15.1952554 218 222 230
31.5894161 0 32.2511517 218 222 230
30.2663571 0 31.4300453 218 222 230
29.1378375 0 30.3571313 218 222 230
28.2509831 0 29.0772133 218 222 230
27.6428277 0 27.6437393 218 222 230
27.3387672 0 26.1165694 218 222 230
27.3514988 0 24.5594763 218 222 230
27.680491 0 23.0374826 218 222 230
28.3120052 0 21.6141447 218 222 230
29.2196704 0 20.3488998 218 222 230
30.3655833 0 19.2945828 218 222 230
31.7018921 0 18.4952208 218 222 230
33.1727941 0 17.9841943 218 222 230
34.7168662 0 17.782843 218 222 230
36.2696297 0 17.8995753 218 222 230
37.766243 0 18.3295164 218 222 230
39.1442094 0 19.0547126 218 222 230
40.3459865 0 20.0448805 218 222 230
41.3213897 0 21.2586719 218 222 230
42.0296872 0 22.6454002 218 222 230
55.6520453 0 14.8997045 218 222 230
56.2153729 0 15.139716 218 222 230
56.8197698 0 15.2379401 218 222 230
57.4301105 0 15.1886683 218 222 230
58.0109244 0 14.9947641 218 222 230
58.5284565 0 14.6674966 218 222 230
58.9526299 0 14.2258854 218 222 230
59.258793 0 13.6955952 218 222 230
59.4291529 0 13.1074447 218 222 230
59.4538088 0 12.4956149 218 222 230
59.3313278 0 11.8956633 218 222 230
59.0688281 0 11.3424568 218 222 230
58.6815651 0 10.8681458 218 222 230
58.1920453 0 10.5002955 218 222 230
57.6287176 0 10.260284 218 222 230
57.0243207 0 10.1620599 218 222 230
56.41398 0 10.2113317 218 222 230
55.8331662 0 10.4052359 218 222 230
55.315634 0 10.7325034 218 222 230
54.8914606 0 11.1741146 218 222 230
54.5852975 0 11.7044048 218 222 230
54.4149376 0 12.2925553 218 222 230
54.3902817 0 12.9043851 218 222 230
54.5127627 0 13.5043367 218 222 230
54.7752624 0 14.0575432 218 222 230
55.1625254 0 14.5318542 218 222 230
15.4679547 0 38.1 218 222 230
15.394147 0 38.7078618 218 222 230
15.177013 0 39.2803969 218 222 230
14.829172 0 39.7843316 218 222 230
14.3708392 0 40.190379 218 222 230
13.8286512 0 40.4749413 218 222 230
13.2341179 0 40.6214805 218 222 230
12.6217916 0 40.6214805 218 222 230
12.0272583 0 40.4749413 218 222 230
11.4850703 0 40.190379 218 222 230
11.0267374 0 39.7843316 218 222 230
10.6788964 0 39.2803969 218 222 230
10.4617625 0 38.7078618 218 222 230
10.3879547 0 38.1 218 222 230
10.4617625 0 37.4921382 218 222 230
10.6788964 0 36.9196031 218 222 230
11.0267374 0 36.4156684 218 222 230
11.4850703 0 36.009621 218 222 230
12.0272583 0 35.7250587 218 222 230
12.6217916 0 35.5785195 218 222 230
13.2341179 0 35.5785195 218 222 230
13.8286512 0 35.7250587 218 222 230
14.3708392 0 36.009621 218 222 230
14.829172 0 36.4156684 218 222 230
15.177013 0 36.9196031 218 222 230
15.394147 0 37.4921382 218 222 230
93.5042757 12.7 6.11763753e-15 218 222 230
93.5042757 -76.2 6.11763753e-15 218 222 230
58.8957243 -76.2 -1.73472348e-14 218 222 230
58.8957243 12.7 -1.73472348e-14 218 222 230
131.0939 0 54.3617259 218 222 230
133.859851 0 52.8916839 218 222 230
136.468848 0 51.1582949 218 222 230
138.8959 0 49.1781634 218 222 230
141.117758 0 46.9702572 218 222 230
143.113139 0 44.5557262 218 222 230
144.862928 0 41.9576996 218 222 230
146.350364 0 39.2010643 218 222 230
147.561198 0 36.3122265 218 222 230
148.483832 0 33.3188589 218 222 230
149.109428 0 30.2496352 218 222 230
149.431993 0 27.1339562 218 222 230
149.448437 0 24.0016674 218 222 230
149.158603 0 20.8827734 218 222 230
148.565266 0 17.8071506 218 222 230
147.674111 0 14.8042609 218 222 230
146.493675 0 11.9028693 218 222 230
145.035264 0 9.13076887 218 222 230
143.312849 0 6.51451382 218 222 230
141.342929 0 4.0791657 218 222 230
139.144375 0 1.84805309 218 222 230
136.738247 0 -0.157451844 218 222 230
134.147593 0 -1.91813807 218 222 230
131.39723 0 -3.41713972 218 222 230
128.513503 0 -4.64009761 218 222 230
125.524037 0 -5.57529684 218 222 230
122.457468 0 -6.21377902 218 222 230
119.343172 0 -6.54942801 218 222 230
116.21098 0 -6.57902858 218 222 230
113.090896 0 -6.30229718 218 222 230
110.012808 0 -5.72188468 218 222 230
107.006202 0 -4.84335092 218 222 230
104.099877 0 -3.67511151 218 222 230
101.321675 0 -2.22835721 218 222 230
98.6982087 0 -0.516946675 218 222 230
96.2546077 0 1.44272622 218 222 230
94.0142801 0 3.63188947 218 222 230
91.9986862 0 6.02957276 218 222 230
90.2271338 0 8.61280831 218 222 230
88.7165929 0 11.3568509 218 222 230
87.4815331 0 14.235415 218 222 230
119.348235 0 32.7861621 218 222 230
121.939276 0 35.9965671 218 222 230
124.291963 0 39.3855276 218 222 230
126.394037 0 42.9353836 218 222 230
128.234543 0 46.6276361 218 222 230
129.80389 0 50.4430444 218 222 230
120.810584 0 32.2511517 218 222 230
122.133643 0 31.4300453 218 222 230
123.262162 0 30.3571313 218 222 230
124.149017 0 29.0772133 218 222 230
124.757172 0 27.6437393 218 222 230
125.061233 0 26.1165694 218 222 230
125.048501 0 24.5594763 218 222 230
124.719509 0 23.0374826 218 222 230
124.087995 0 21.6141447 218 222 230
123.18033 0 20.3488998 218 222 230
122.034417 0 19.2945828 218 222 230
120.698108 0 18.4952208 218 222 230
119.227206 0 17.9841943 218 222 230
117.683134 0 17.782843 218 222 230
116.13037 0 17.8995753 218 222 230
114.633757 0 18.3295164 218 222 230
113.255791 0 19.0547126 218 222 230
112.054013 0 20.0448805 218 222 230
111.07861 0 21.2586719 218 222 230
110.370313 0 22.6454002 218 222 230
109.958699 0 24.1471574 218 222 230
91.4938763 0 15.1952554 218 222 230
95.4265211 0 16.4420498 218 222 230
99.2589739 0 17.9693011 218 222 230
102.971263 0 19.7690504 218 222 230
106.544044 0 21.8319192 218 222 230
96.7479547 0 14.8997045 218 222 230
96.1846271 0 15.139716 218 222 230
95.5802302 0 15.2379401 218 222 230
94.9698895 0 15.1886683 218 222 230
94.3890756 0 14.9947641 218 222 230
93.8715435 0 14.6674966 218 222 230
93.4473701 0 14.2258854 218 222 230
93.141207 0 13.6955952 218 222 230
92.9708471 0 13.1074447 218 222 230
92.9461912 0 12.4956149 218 222 230
93.0686722 0 11.8956633 218 222 230
93.3311719 0 11.3424568 218 222 230
93.7184349 0 10.8681458 218 222 230
94.2079547 0 10.5002955 218 222 230
94.7712824 0 10.260284 218 222 230
95.3756793 0 10.1620599 218 222 230
95.98602 0 10.2113317 218 222 230
96.5668338 0 10.4052359 218 222 230
97.084366 0 10.7325034 218 222 230
97.5085394 0 11.1741146 218 222 230
97.8147025 0 11.7044048 218 222 230
97.9850624 0 12.2925553 218 222 230
98.0097183 0 12.9043851 218 222 230
97.8872373 0 13.5043367 218 222 230
97.6247376 0 14.0575432 218 222 230
97.2374746 0 14.5318542 218 222 230
136.932045 0 38.1 218 222 230
137.005853 0 38.7078618 218 222 230
137.222987 0 39.2803969 218 222 230
137.570828 0 39.7843316 218 222 230
138.029161 0 40.190379 218 222 230
138.571349 0 40.4749413 218 222 230
139.165882 0 40.6214805 218 222 230
139.778208 0 40.6214805 218 222 230
140.372742 0 40.4749413 218 222 230
140.91493 0 40.190379 218 222 230
141.373263 0 39.7843316 218 222 230
141.721104 0 39.2803969 218 222 230
141.938237 0 38.7078618 218 222 230
142.012045 0 38.1 218 222 230
141.938237 0 37.4921382 218 222 230
141.721104 0 36.9196031 218 222 230
141.373263 0 36.4156684 218 222 230
140.91493 0 36.009621 218 222 230
140.372742 0 35.7250587 218 222 230
139.778208 0 35.5785195 218 222 230
139.165882 0 35.5785195 218 222 230
138.571349 0 35.7250587 218 222 230
138.029161 0 36.009621 218 222 230
137.570828 0 36.4156684 218 222 230
137.222987 0 36.9196031 218 222 230
137.005853 0 37.4921382 218 222 230
20.5550134 0 57.2317312 218 222 230
19.7484533 0 61.3532489 218 222 230
19.2467383 0 65.5228687 218 222 230
19.0525775 0 69.7180742 218 222 230
19.1670197 0 73.9162108 218 222 230
19.5894466 0 78.0946079 218 222 230
20.3175772 0 82.2307019 218 222 230
21.3474795 0 86.3021572 218 222 230
22.6735919 0 90.2869876 218 222 230
24.2887533 0 94.1636745 218 222 230
26.1842415 0 97.9112834 218 222 230
28.3498207 0 101.509577 218 222 230
30.7737965 0 104.939123 218 222 230
33.4430792 0 108.181403 218 222 230
36.3432543 0 111.218907 218 222 230
39.4586605 0 114.035233 218 222 230
42.7724744 0 116.615172 218 222 230
46.2668008 0 118.944792 218 222 230
49.92277 0 121.011513 218 222 230
53.7206394 0 122.804175 218 222 230
57.6399 0 124.313096 218 222 230
61.6593873 0 125.530129 218 222 230
65.7573956 0 126.448701 218 222 230
69.9117953 0 127.063853 218 222 230
74.1001519 0 127.372261 218 222 230
78.2998481 0 127.372261 218 222 230
82.4882047 0 127.063853 218 222 230
86.6426044 0 126.448701 218 222 230
90.7406127 0 125.530129 218 222 230
94.7601 0 124.313096 218 222 230
98.6793606 0 122.804175 218 222 230
102.47723 0 121.011513 218 222 230
106.133199 0 118.944792 218 222 230
109.627526 0 116.615172 218 222 230
112.941339 0 114.035233 218 222 230
116.056746 0 111.218907 218 222 230
118.956921 0 108.181403 218 222 230
121.626204 0 104.939123 218 222 230
124.050179 0 101.509577 218 222 230
126.215759 0 97.9112834 218 222 230
128.111247 0 94.1636745 218 222 230
129.726408 0 90.2869876 218 222 230
131.05252 0 86.3021572 218 222 230
132.082423 0 82.2307019 218 222 230
132.810553 0 78.0946079 218 222 230
133.23298 0 73.9162108 218 222 230
133.347422 0 69.7180742 218 222 230
133.153262 0 65.5228687 218 222 230
132.651547 0 61.3532489 218 222 230
131.844987 0 57.2317312 218 222 230
20.5550134 -76.2 57.2317312 218 222 230
19.7484533 -76.2 61.3532489 218 222 230
19.2467383 -76.2 65.5228687 218 222 230
19.0525775 -76.2 69.7180742 218 222 230
19.1670197 -76.2 73.9162108 218 222 230
19.5894466 -76.2 78.0946079 218 222 230
20.3175772 -76.2 82.2307019 218 222 230
21.3474795 -76.2 86.3021572 218 222 230
22.6735919 -76.2 90.2869876 218 222 230
24.2887533 -76.2 94.1636745 218 222 230
26.1842415 -76.2 97.9112834 218 222 230
28.3498207 -76.2 101.509577 218 222 230
30.7737965 -76.2 104.939123 218 222 230
33.4430792 -76.2 108.181403 218 222 230
36.3432543 -76.2 111.218907 218 222 230
39.4586605 -76.2 114.035233 218 222 230
42.7724744 -76.2 116.615172 218 222 230
46.2668008 -76.2 118.944792 218 222 230
49.92277 -76.2 121.011513 218 222 230
53.7206394 -76.2 122.804175 218 222 230
57.6399 -76.2 124.313096 218 222 230
61.6593873 -76.2 125.530129 218 222 230
65.7573956 -76.2 126.448701 218 222 230
69.9117953 -76.2 127.063853 218 222 230
74.1001519 -76.2 127.372261 218 222 230
78.2998481 -76.2 127.372261 218 222 230
82.4882047 -76.2 127.063853 218 222 230
86.6426044 -76.2 126.448701 218 222 230
90.7406127 -76.2 125.530129 218 222 230
94.7601 -76.2 124.313096 218 222 230
98.6793606 -76.2 122.804175 218 222 230
102.47723 -76.2 121.011513 218 222 230
106.133199 -76.2 118.944792 218 222 230
109.627526 -76.2 116.615172 218 222 230
112.941339 -76.2 114.035233 218 222 230
116.056746 -76.2 111.218907 218 222 230
118.956921 -76.2 108.181403 218 222 230
121.626204 -76.2 104.939123 218 222 230
124.050179 -76.2 101.509577 218 222 230
126.215759 -76.2 97.9112834 218 222 230
128.111247 -76.2 94.1636745 218 222 230
129.726408 -76.2 90.2869876 218 222 230
131.05252 -76.2 86.3021572 218 222 230
132.082423 -76.2 82.2307019 218 222 230
132.810553 -76.2 78.0946079 218 222 230
133.23298 -76.2 73.9162108 218 222 230
133.347422 -76.2 69.7180742 218 222 230
133.153262 -76.2 65.5228687 218 222 230
132.651547 -76.2 61.3532489 218 222 230
131.844987 -76.2 57.2317312 218 222 230
141.445724 12.7 6.9388939e-15 218 222 230
138.940471 12.7 -2.14975825 218 222 230
136.243437 12.7 -4.05337661 218 222 230
133.378719 12.7 -5.69384745 218 222 230
130.371911 12.7 -7.05651418 218 222 230
127.249877 12.7 -8.12920222 218 222 230
124.040511 12.7 -8.90232778 218 222 230
120.772486 12.7 -9.36898347 218 222 230
117.475 12.7 -9.525 218 222 230
114.177514 12.7 -9.36898347 218 222 230
110.909489 12.7 -8.90232778 218 222 230
107.700123 12.7 -8.12920222 218 222 230
104.578089 12.7 -7.05651418 218 222 230
101.571281 12.7 -5.69384745 218 222 230
98.7065629 12.7 -4.05337661 218 222 230
96.009529 12.7 -2.14975825 218 222 230
93.5042757 12.7 6.11763753e-15 218 222 230
152.4 12.7 2.77555756e-14 218 222 230
152.4 12.7 50.8 218 222 230
141.445724 12.7 50.8 218 222 230
139.254633 12.7 52.7020735 218 222 230
136.913218 12.7 54.4157079 218 222 230
134.43764 12.7 55.9290755 218 222 230
131.844987 12.7 57.2317312 218 222 230
119.348235 12.7 32.7861621 218 222 230
121.839776 12.7 35.8641458 218 222 230
124.112185 12.7 39.1072796 218 222 230
126.154551 12.7 42.4999923 218 222 230
127.957069 12.7 46.0259943 218 222 230
129.511084 12.7 49.668356 218 222 230
130.809134 12.7 53.4095893 218 222 230
120.810584 12.7 32.2511517 218 222 230
122.133643 12.7 31.4300453 218 222 230
123.262162 12.7 30.3571313 218 222 230
124.149017 12.7 29.0772133 218 222 230
124.757172 12.7 27.6437393 218 222 230
125.061233 12.7 26.1165694 218 222 230
125.048501 12.7 24.5594763 218 222 230
124.719509 12.7 23.0374826 218 222 230
124.087995 12.7 21.6141447 218 222 230
123.18033 12.7 20.3488998 218 222 230
122.034417 12.7 19.2945828 218 222 230
120.698108 12.7 18.4952208 218 222 230
119.227206 12.7 17.9841943 218 222 230
117.683134 12.7 17.782843 218 222 230
116.13037 12.7 17.8995753 218 222 230
114.633757 12.7 18.3295164 218 222 230
113.255791 12.7 19.0547126 218 222 230
112.054013 12.7 20.0448805 218 222 230
111.07861 12.7 21.2586719 218 222 230
110.370313 12.7 22.6454002 218 222 230
109.958699 12.7 24.1471574 218 222 230
42.4413013 12.7 24.1471574 218 222 230
45.9597062 12.7 21.7670668 218 222 230
49.6451765 12.7 19.6548847 218 222 230
53.4773515 12.7 17.8222801 218 222 230
57.4350598 12.7 16.2793774 218 222 230
61.4964369 12.7 15.0347004 218 222 230
65.6390452 12.7 14.0951256 218 222 230
69.8399985 12.7 13.4658437 218 222 230
74.0760883 12.7 13.1503312 218 222 230
78.3239117 12.7 13.1503312 218 222 230
82.5600015 12.7 13.4658437 218 222 230
86.7609548 12.7 14.0951256 218 222 230
90.9035631 12.7 15.0347004 218 222 230
94.9649402 12.7 16.2793774 218 222 230
98.9226485 12.7 17.8222801 218 222 230
102.754823 12.7 19.6548847 218 222 230
106.440294 12.7 21.7670668 218 222 230
33.0517651 12.7 32.7861621 218 222 230
31.5894161 12.7 32.2511517 218 222 230
30.2663571 12.7 31.4300453 218 222 230
29.1378375 12.7 30.3571313 218 222 230
28.2509831 12.7 29.0772133 218 222 230
27.6428277 12.7 27.6437393 218 222 230
27.3387672 12.7 26.1165694 218 222 230
27.3514988 12.7 24.5594763 218 222 230
27.680491 12.7 23.0374826 218 222 230
28.3120052 12.7 21.6141447 218 222 230
29.2196704 12.7 20.3488998 218 222 230
30.3655833 12.7 19.2945828 218 222 230
31.7018921 12.7 18.4952208 218 222 230
33.1727941 12.7 17.9841943 218 222 230
34.7168662 12.7 17.782843 218 222 230
36.2696297 12.7 17.8995753 218 222 230
37.766243 12.7 18.3295164 218 222 230
39.1442094 12.7 19.0547126 218 222 230
40.3459865 12.7 20.0448805 218 222 230
41.3213897 12.7 21.2586719 218 222 230
42.0296872 12.7 22.6454002 218 222 230
20.5550134 12.7 57.2317312 218 222 230
21.5908664 12.7 53.4095893 218 222 230
22.8889163 12.7 49.668356 218 222 230
24.4429308 12.7 46.0259943 218 222 230
26.2454486 12.7 42.4999923 218 222 230
28.287815 12.7 39.1072796 218 222 230
30.560224 12.7 35.8641458 218 222 230
10.9542757 12.7 50.8 218 222 230
13.1453672 12.7 52.7020735 218 222 230
15.486782 12.7 54.4157079 218 222 230
17.9623595 12.7 55.9290755 218 222 230
0 12.7 50.8 218 222 230
0 12.7 0 218 222 230
10.9542757 12.7 2.0682456e-15 218 222 230
13.459529 12.7 -2.14975825 218 222 230
16.1565629 12.7 -4.05337661 218 222 230
19.0212811 12.7 -5.69384745 218 222 230
22.028089 12.7 -7.05651418 218 222 230
25.1501228 12.7 -8.12920222 218 222 230
28.3594891 12.7 -8.90232778 218 222 230
31.627514 12.7 -9.36898347 218 222 230
34.925 12.7 -9.525 218 222 230
38.222486 12.7 -9.36898347 218 222 230
41.4905109 12.7 -8.90232778 218 222 230
44.6998772 12.7 -8.12920222 218 222 230
47.821911 12.7 -7.05651418 218 222 230
50.8287189 12.7 -5.69384745 218 222 230
53.6934371 12.7 -4.05337661 218 222 230
56.390471 12.7 -2.14975825 218 222 230
58.8957243 12.7 -1.73472348e-14 218 222 230
15.4679547 12.7 38.1 218 222 230
15.394147 12.7 38.7078618 218 222 230
15.177013 12.7 39.2803969 218 222 230
14.829172 12.7 39.7843316 218 222 230
14.3708392 12.7 40.190379 218 222 230
13.8286512 12.7 40.4749413 218 222 230
13.2341179 12.7 40.6214805 218 222 230
12.6217916 12.7 40.6214805 218 222 230
12.0272583 12.7 40.4749413 218 222 230
11.4850703 12.7 40.190379 218 222 230
11.0267374 12.7 39.7843316 218 222 230
10.6788964 12.7 39.2803969 218 222 230
10.4617625 12.7 38.7078618 218 222 230
10.3879547 12.7 38.1 218 222 230
10.4617625 12.7 37.4921382 218 222 230
10.6788964 12.7 36.9196031 218 222 230
11.0267374 12.7 36.4156684 218 222 230
11.4850703 12.7 36.009621 218 222 230
12.0272583 12.7 35.7250587 218 222 230
12.6217916 12.7 35.5785195 218 222 230
13.2341179 12.7 35.5785195 218 222 230
13.8286512 12.7 35.7250587 218 222 230
14.3708392 12.7 36.009621 218 222 230
14.829172 12.7 36.4156684 218 222 230
15.177013 12.7 36.9196031 218 222 230
15.394147 12.7 37.4921382 218 222 230
55.6520453 12.7 14.8997045 218 222 230
56.2153729 12.7 15.139716 218 222 230
56.8197698 12.7 15.2379401 218 222 230
57.4301105 12.7 15.1886683 218 222 230
58.0109244 12.7 14.9947641 218 222 230
58.5284565 12.7 14.6674966 218 222 230
58.9526299 12.7 14.2258854 218 222 230
59.258793 12.7 13.6955952 218 222 230
59.4291529 12.7 13.1074447 218 222 230
59.4538088 12.7 12.4956149 218 222 230
59.3313278 12.7 11.8956633 218 222 230
59.0688281 12.7 11.3424568 218 222 230
58.6815651 12.7 10.8681458 218 222 230
58.1920453 12.7 10.5002955 218 222 230
57.6287176 12.7 10.260284 218 222 230
57.0243207 12.7 10.1620599 218 222 230
56.41398 12.7 10.2113317 218 222 230
55.8331662 12.7 10.4052359 218 222 230
55.315634 12.7 10.7325034 218 222 230
54.8914606 12.7 11.1741146 218 222 230
54.5852975 12.7 11.7044048 218 222 230
54.4149376 12.7 12.2925553 218 222 230
54.3902817 12.7 12.9043851 218 222 230
54.5127627 12.7 13.5043367 218 222 230
54.7752624 12.7 14.0575432 218 222 230
55.1625254 12.7 14.5318542 218 222 230
96.7479547 12.7 14.8997045 218 222 230
96.1846271 12.7 15.139716 218 222 230
95.5802302 12.7 15.2379401 218 222 230
94.9698895 12.7 15.1886683 218 222 230
94.3890756 12.7 14.9947641 218 222 230
93.8715435 12.7 14.6674966 218 222 230
93.4473701 12.7 14.2258854 218 222 230
93.141207 12.7 13.6955952 218 222 230
92.9708471 12.7 13.1074447 218 222 230
92.9461912 12.7 12.4956149 218 222 230
93.0686722 12.7 11.8956633 218 222 230
93.3311719 12.7 11.3424568 218 222 230
93.7184349 12.7 10.8681458 218 222 230
94.2079547 12.7 10.5002955 218 222 230
94.7712824 12.7 10.260284 218 222 230
95.3756793 12.7 10.1620599 218 222 230
95.98602 12.7 10.2113317 218 222 230
96.5668338 12.7 10.4052359 218 222 230
97.084366 12.7 10.7325034 218 222 230
97.5085394 12.7 11.1741146 218 222 230
97.8147025 12.7 11.7044048 218 222 230
97.9850624 12.7 12.2925553 218 222 230
98.0097183 12.7 12.9043851 218 222 230
97.8872373 12.7 13.5043367 218 222 230
97.6247376 12.7 14.0575432 218 222 230
97.2374746 12.7 14.5318542 218 222 230
136.932045 12.7 38.1 218 222 230
137.005853 12.7 38.7078618 218 222 230
137.222987 12.7 39.2803969 218 222 230
137.570828 12.7 39.7843316 218 222 230
138.029161 12.7 40.190379 218 222 230
138.571349 12.7 40.4749413 218 222 230
139.165882 12.7 40.6214805 218 222 230
139.778208 12.7 40.6214805 218 222 230
140.372742 12.7 40.4749413 218 222 230
140.91493 12.7 40.190379 218 222 230
141.373263 12.7 39.7843316 218 222 230
141.721104 12.7 39.2803969 218 222 230
141.938237 12.7 38.7078618 218 222 230
142.012045 12.7 38.1 218 222 230
141.938237 12.7 37.4921382 218 222 230
141.721104 12.7 36.9196031 218 222 230
141.373263 12.7 36.4156684 218 222 230
140.91493 12.7 36.009621 218 222 230
140.372742 12.7 35.7250587 218 222 230
139.778208 12.7 35.5785195 218 222 230
139.165882 12.7 35.5785195 218 222 230
138.571349 12.7 35.7250587 218 222 230
138.029161 12.7 36.009621 218 222 230
137.570828 12.7 36.4156684 218 222 230
137.222987 12.7 36.9196031 218 222 230
137.005853 12.7 37.4921382 218 222 230
136.932045 12.7 38.1 218 222 230
137.005853 12.7 38.7078618 218 222 230
137.222987 12.7 39.2803969 218 222 230
137.570828 12.7 39.7843316 218 222 230
138.029161 12.7 40.190379 218 222 230
138.571349 12.7 40.4749413 218 222 230
139.165882 12.7 40.6214805 218 222 230
139.778208 12.7 40.6214805 218 222 230
140.372742 12.7 40.4749413 218 222 230
140.91493 12.7 40.190379 218 222 230
141.373263 12.7 39.7843316 218 222 230
141.721104 12.7 39.2803969 218 222 230
141.938237 12.7 38.7078618 218 222 230
142.012045 12.7 38.1 218 222 230
141.938237 12.7 37.4921382 218 222 230
141.721104 12.7 36.9196031 218 222 230
141.373263 12.7 36.4156684 218 222 230
140.91493 12.7 36.009621 218 222 230
140.372742 12.7 35.7250587 218 222 230
139.778208 12.7 35.5785195 218 222 230
139.165882 12.7 35.5785195 218 222 230
138.571349 12.7 35.7250587 218 222 230
138.029161 12.7 36.009621 218 222 230
137.570828 12.7 36.4156684 218 222 230
137.222987 12.7 36.9196031 218 222 230
137.005853 12.7 37.4921382 218 222 230
136.932045 12.7 38.1 218 222 230
136.932045 0 38.1 218 222 230
137.005853 0 38.7078618 218 222 230
137.222987 0 39.2803969 218 222 230
137.570828 0 39.7843316 218 222 230
138.029161 0 40.190379 218 222 230
138.571349 0 40.4749413 218 222 230
139.165882 0 40.6214805 218 222 230
139.778208 0 40.6214805 218 222 230
140.372742 0 40.4749413 218 222 230
140.91493 0 40.190379 218 222 230
141.373263 0 39.7843316 218 222 230
141.721104 0 39.2803969 218 222 230
141.938237 0 38.7078618 218 222 230
142.012045 0 38.1 218 222 230
141.938237 0 37.4921382 218 222 230
141.721104 0 36.9196031 218 222 230
141.373263 0 36.4156684 218 222 230
140.91493 0 36.009621 218 222 230
140.372742 0 35.7250587 218 222 230
139.778208 0 35.5785195 218 222 230
139.165882 0 35.5785195 218 222 230
138.571349 0 35.7250587 218 222 230
138.029161 0 36.009621 218 222 230
137.570828 0 36.4156684 218 222 230
137.222987 0 36.9196031 218 222 230
137.005853 0 37.4921382 218 222 230
136.932045 0 38.1 218 222 230
58.8957243 12.7 -1.73472348e-14 218 222 230
58.8957243 -76.2 -1.73472348e-14 218 222 230
10.9542757 -76.2 2.0682456e-15 218 222 230
13.459529 -76.2 -2.14975825 218 222 230
16.1565629 -76.2 -4.05337661 218 222 230
19.0212811 -76.2 -5.69384745 218 222 230
22.028089 -76.2 -7.05651418 218 222 230
25.1501228 -76.2 -8.12920222 218 222 230
28.3594891 -76.2 -8.90232778 218 222 230
31.627514 -76.2 -9.36898347 218 222 230
34.925 -76.2 -9.525 218 222 230
38.222486 -76.2 -9.36898347 218 222 230
41.4905109 -76.2 -8.90232778 218 222 230
44.6998772 -76.2 -8.12920222 218 222 230
47.821911 -76.2 -7.05651418 218 222 230
50.8287189 -76.2 -5.69384745 218 222 230
53.6934371 -76.2 -4.05337661 218 222 230
56.390471 -76.2 -2.14975825 218 222 230
10.9542757 12.7 2.0682456e-15 218 222 230
13.459529 12.7 -2.14975825 218 222 230
16.1565629 12.7 -4.05337661 218 222 230
19.0212811 12.7 -5.69384745 218 222 230
22.028089 12.7 -7.05651418 218 222 230
25.1501228 12.7 -8.12920222 218 222 230
28.3594891 12.7 -8.90232778 218 222 230
31.627514 12.7 -9.36898347 218 222 230
34.925 12.7 -9.525 218 222 230
38.222486 12.7 -9.36898347 218 222 230
41.4905109 12.7 -8.90232778 218 222 230
44.6998772 12.7 -8.12920222 218 222 230
47.821911 12.7 -7.05651418 218 222 230
50.8287189 12.7 -5.69384745 218 222 230
53.6934371 12.7 -4.05337661 218 222 230
56.390471 12.7 -2.14975825 218 222 230
109.958699 12.7 24.1471574 218 222 230
109.958699 0 24.1471574 218 222 230
119.348235 12.7 32.7861621 218 222 230
120.810584 12.7 32.2511517 218 222 230
122.133643 12.7 31.4300453 218 222 230
123.262162 12.7 30.3571313 218 222 230
124.149017 12.7 29.0772133 218 222 230
124.757172 12.7 27.6437393 218 222 230
125.061233 12.7 26.1165694 218 222 230
125.048501 12.7 24.5594763 218 222 230
124.719509 12.7 23.0374826 218 222 230
124.087995 12.7 21.6141447 218 222 230
123.18033 12.7 20.3488998 218 222 230
122.034417 12.7 19.2945828 218 222 230
120.698108 12.7 18.4952208 218 222 230
119.227206 12.7 17.9841943 218 222 230
117.683134 12.7 17.782843 218 222 230
116.13037 12.7 17.8995753 218 222 230
114.633757 12.7 18.3295164 218 222 230
113.255791 12.7 19.0547126 218 222 230
112.054013 12.7 20.0448805 218 222 230
111.07861 12.7 21.2586719 218 222 230
110.370313 12.7 22.6454002 218 222 230
119.348235 0 32.7861621 218 222 230
120.810584 0 32.2511517 218 222 230
122.133643 0 31.4300453 218 222 230
123.262162 0 30.3571313 218 222 230
124.149017 0 29.0772133 218 222 230
124.757172 0 27.6437393 218 222 230
125.061233 0 26.1165694 218 222 230
125.048501 0 24.5594763 218 222 230
124.719509 0 23.0374826 218 222 230
124.087995 0 21.6141447 218 222 230
123.18033 0 20.3488998 218 222 230
122.034417 0 19.2945828 218 222 230
120.698108 0 18.4952208 218 222 230
119.227206 0 17.9841943 218 222 230
117.683134 0 17.782843 218 222 230
116.13037 0 17.8995753 218 222 230
114.633757 0 18.3295164 218 222 230
113.255791 0 19.0547126 218 222 230
112.054013 0 20.0448805 218 222 230
111.07861 0 21.2586719 218 222 230
110.370313 0 22.6454002 218 222 230
119.348235 12.7 32.7861621 218 222 230
119.348235 0 32.7861621 218 222 230
121.839776 12.7 35.8641458 218 222 230
124.112185 12.7 39.1072796 218 222 230
126.154551 12.7 42.4999923 218 222 230
127.957069 12.7 46.0259943 218 222 230
129.511084 12.7 49.668356 218 222 230
130.809134 12.7 53.4095893 218 222 230
131.844987 12.7 57.2317312 218 222 230
131.844987 0 57.2317312 218 222 230
131.0939 0 54.3617259 218 222 230
131.360806 0 55.3140138 218 222 230
131.611193 0 56.2707777 218 222 230
121.939276 0 35.9965671 218 222 230
124.291963 0 39.3855276 218 222 230
126.394037 0 42.9353836 218 222 230
128.234543 0 46.6276361 218 222 230
129.80389 0 50.4430444 218 222 230
131.844987 12.7 57.2317312 218 222 230
131.844987 0 57.2317312 218 222 230
131.844987 -76.2 57.2317312 218 222 230
141.445724 -76.2 50.8 218 222 230
139.254633 -76.2 52.7020735 218 222 230
136.913218 -76.2 54.4157079 218 222 230
134.43764 -76.2 55.9290755 218 222 230
141.445724 12.7 50.8 218 222 230
139.254633 12.7 52.7020735 218 222 230
136.913218 12.7 54.4157079 218 222 230
134.43764 12.7 55.9290755 218 222 230
141.445724 12.7 50.8 218 222 230
141.445724 -76.2 50.8 218 222 230
152.4 -76.2 50.8 218 222 230
152.4 12.7 50.8 218 222 230
152.4 12.7 50.8 218 222 230
152.4 -76.2 50.8 218 222 230
152.4 -76.2 2.77555756e-14 218 222 230
152.4 12.7 2.77555756e-14 218 222 230
152.4 12.7 2.77555756e-14 218 222 230
152.4 -76.2 2.77555756e-14 218 222 230
141.445724 -76.2 6.9388939e-15 218 222 230
141.445724 12.7 6.9388939e-15 218 222 230
141.445724 12.7 6.9388939e-15 218 222 230
141.445724 -76.2 6.9388939e-15 218 222 230
138.940471 -76.2 -2.14975825 218 222 230
136.243437 -76.2 -4.05337661 218 222 230
133.378719 -76.2 -5.69384745 218 222 230
130.371911 -76.2 -7.05651418 218 222 230
127.249877 -76.2 -8.12920222 218 222 230
124.040511 -76.2 -8.90232778 218 222 230
120.772486 -76.2 -9.36898347 218 222 230
117.475 -76.2 -9.525 218 222 230
114.177514 -76.2 -9.36898347 218 222 230
110.909489 -76.2 -8.90232778 218 222 230
107.700123 -76.2 -8.12920222 218 222 230
104.578089 -76.2 -7.05651418 218 222 230
101.571281 -76.2 -5.69384745 218 222 230
98.7065629 -76.2 -4.05337661 218 222 230
96.009529 -76.2 -2.14975825 218 222 230
93.5042757 -76.2 6.11763753e-15 218 222 230
93.5042757 12.7 6.11763753e-15 218 222 230
138.940471 12.7 -2.14975825 218 222 230
136.243437 12.7 -4.05337661 218 222 230
133.378719 12.7 -5.69384745 218 222 230
130.371911 12.7 -7.05651418 218 222 230
127.249877 12.7 -8.12920222 218 222 230
124.040511 12.7 -8.90232778 218 222 230
120.772486 12.7 -9.36898347 218 222 230
117.475 12.7 -9.525 218 222 230
114.177514 12.7 -9.36898347 218 222 230
110.909489 12.7 -8.90232778 218 222 230
107.700123 12.7 -8.12920222 218 222 230
104.578089 12.7 -7.05651418 218 222 230
101.571281 12.7 -5.69384745 218 222 230
98.7065629 12.7 -4.05337661 218 222 230
96.009529 12.7 -2.14975825 218 222 230
96.7479547 12.7 14.8997045 218 222 230
96.1846271 12.7 15.139716 218 222 230
95.5802302 12.7 15.2379401 218 222 230
94.9698895 12.7 15.1886683 218 222 230
94.3890756 12.7 14.9947641 218 222 230
93.8715435 12.7 14.6674966 218 222 230
93.4473701 12.7 14.2258854 218 222 230
93.141207 12.7 13.6955952 218 222 230
92.9708471 12.7 13.1074447 218 222 230
92.9461912 12.7 12.4956149 218 222 230
93.0686722 12.7 11.8956633 218 222 230
93.3311719 12.7 11.3424568 218 222 230
93.7184349 12.7 10.8681458 218 222 230
94.2079547 12.7 10.5002955 218 222 230
94.7712824 12.7 10.260284 218 222 230
95.3756793 12.7 10.1620599 218 222 230
95.98602 12.7 10.2113317 218 222 230
96.5668338 12.7 10.4052359 218 222 230
97.084366 12.7 10.7325034 218 222 230
97.5085394 12.7 11.1741146 218 222 230
97.8147025 12.7 11.7044048 218 222 230
97.9850624 12.7 12.2925553 218 222 230
98.0097183 12.7 12.9043851 218 222 230
97.8872373 12.7 13.5043367 218 222 230
97.6247376 12.7 14.0575432 218 222 230
97.2374746 12.7 14.5318542 218 222 230
96.7479547 12.7 14.8997045 218 222 230
96.7479547 0 14.8997045 218 222 230
96.7479547 0 14.8997045 218 222 230
96.1846271 0 15.139716 218 222 230
95.5802302 0 15.2379401 218 222 230
94.9698895 0 15.1886683 218 222 230
94.3890756 0 14.9947641 218 222 230
93.8715435 0 14.6674966 218 222 230
93.4473701 0 14.2258854 218 222 230
93.141207 0 13.6955952 218 222 230
92.9708471 0 13.1074447 218 222 230
92.9461912 0 12.4956149 218 222 230
93.0686722 0 11.8956633 218 222 230
93.3311719 0 11.3424568 218 222 230
93.7184349 0 10.8681458 218 222 230
94.2079547 0 10.5002955 218 222 230
94.7712824 0 10.260284 218 222 230
95.3756793 0 10.1620599 218 222 230
95.98602 0 10.2113317 218 222 230
96.5668338 0 10.4052359 218 222 230
97.084366 0 10.7325034 218 222 230
97.5085394 0 11.1741146 218 222 230
97.8147025 0 11.7044048 218 222 230
97.9850624 0 12.2925553 218 222 230
98.0097183 0 12.9043851 218 222 230
97.8872373 0 13.5043367 218 222 230
97.6247376 0 14.0575432 218 222 230
97.2374746 0 14.5318542 218 222 230
55.6520453 12.7 14.8997045 218 222 230
56.2153729 12.7 15.139716 218 222 230
56.8197698 12.7 15.2379401 218 222 230
57.4301105 12.7 15.1886683 218 222 230
58.0109244 12.7 14.9947641 218 222 230
58.5284565 12.7 14.6674966 218 222 230
58.9526299 12.7 14.2258854 218 222 230
59.258793 12.7 13.6955952 218 222 230
59.4291529 12.7 13.1074447 218 222 230
59.4538088 12.7 12.4956149 218 222 230
59.3313278 12.7 11.8956633 218 222 230
59.0688281 12.7 11.3424568 218 222 230
58.6815651 12.7 10.8681458 218 222 230
58.1920453 12.7 10.5002955 218 222 230
57.6287176 12.7 10.260284 218 222 230
57.0243207 12.7 10.1620599 218 222 230
56.41398 12.7 10.2113317 218 222 230
55.8331662 12.7 10.4052359 218 222 230
55.315634 12.7 10.7325034 218 222 230
54.8914606 12.7 11.1741146 218 222 230
54.5852975 12.7 11.7044048 218 222 230
54.4149376 12.7 12.2925553 218 222 230
54.3902817 12.7 12.9043851 218 222 230
54.5127627 12.7 13.5043367 218 222 230
54.7752624 12.7 14.0575432 218 222 230
55.1625254 12.7 14.5318542 218 222 230
55.6520453 12.7 14.8997045 218 222 230
55.6520453 0 14.8997045 218 222 230
56.2153729 0 15.139716 218 222 230
56.8197698 0 15.2379401 218 222 230
57.4301105 0 15.1886683 218 222 230
58.0109244 0 14.9947641 218 222 230
58.5284565 0 14.6674966 218 222 230
58.9526299 0 14.2258854 218 222 230
59.258793 0 13.6955952 218 222 230
59.4291529 0 13.1074447 218 222 230
59.4538088 0 12.4956149 218 222 230
59.3313278 0 11.8956633 218 222 230
59.0688281 0 11.3424568 218 222 230
58.6815651 0 10.8681458 218 222 230
58.1920453 0 10.5002955 218 222 230
57.6287176 0 10.260284 218 222 230
57.0243207 0 10.1620599 218 222 230
56.41398 0 10.2113317 218 222 230
55.8331662 0 10.4052359 218 222 230
55.315634 0 10.7325034 218 222 230
54.8914606 0 11.1741146 218 222 230
54.5852975 0 11.7044048 218 222 230
54.4149376 0 12.2925553 218 222 230
54.3902817 0 12.9043851 218 222 230
54.5127627 0 13.5043367 218 222 230
54.7752624 0 14.0575432 218 222 230
55.1625254 0 14.5318542 218 222 230
55.6520453 0 14.8997045 218 222 230
15.4679547 12.7 38.1 218 222 230
15.394147 12.7 38.7078618 218 222 230
15.177013 12.7 39.2803969 218 222 230
14.829172 12.7 39.7843316 218 222 230
14.3708392 12.7 40.190379 218 222 230
13.8286512 12.7 40.4749413 218 222 230
13.2341179 12.7 40.6214805 218 222 230
12.6217916 12.7 40.6214805 218 222 230
12.0272583 12.7 40.4749413 218 222 230
11.4850703 12.7 40.190379 218 222 230
11.0267374 12.7 39.7843316 218 222 230
10.6788964 12.7 39.2803969 218 222 230
10.4617625 12.7 38.7078618 218 222 230
10.3879547 12.7 38.1 218 222 230
10.4617625 12.7 37.4921382 218 222 230
10.6788964 12.7 36.9196031 218 222 230
11.0267374 12.7 36.4156684 218 222 230
11.4850703 12.7 36.009621 218 222 230
12.0272583 12.7 35.7250587 218 222 230
12.6217916 12.7 35.5785195 218 222 230
13.2341179 12.7 35.5785195 218 222 230
13.8286512 12.7 35.7250587 218 222 230
14.3708392 12.7 36.009621 218 222 230
14.829172 12.7 36.4156684 218 222 230
15.177013 12.7 36.9196031 218 222 230
15.394147 12.7 37.4921382 218 222 230
15.4679547 12.7 38.1 218 222 230
15.4679547 0 38.1 218 222 230
15.4679547 0 38.1 218 222 230
15.394147 0 38.7078618 218 222 230
15.177013 0 39.2803969 218 222 230
14.829172 0 39.7843316 218 222 230
14.3708392 0 40.190379 218 222 230
13.8286512 0 40.4749413 218 222 230
13.2341179 0 40.6214805 218 222 230
12.6217916 0 40.6214805 218 222 230
12.0272583 0 40.4749413 218 222 230
11.4850703 0 40.190379 218 222 230
11.0267374 0 39.7843316 218 222 230
10.6788964 0 39.2803969 218 222 230
10.4617625 0 38.7078618 218 222 230
10.3879547 0 38.1 218 222 230
10.4617625 0 37.4921382 218 222 230
10.6788964 0 36.9196031 218 222 230
11.0267374 0 36.4156684 218 222 230
11.4850703 0 36.009621 218 222 230
12.0272583 0 35.7250587 218 222 230
12.6217916 0 35.5785195 218 222 230
13.2341179 0 35.5785195 218 222 230
13.8286512 0 35.7250587 218 222 230
14.3708392 0 36.009621 218 222 230
14.829172 0 36.4156684 218 222 230
15.177013 0 36.9196031 218 222 230
15.394147 0 37.4921382 218 222 230
10.9542757 12.7 2.0682456e-15 218 222 230
0 12.7 0 218 222 230
0 -76.2 0 218 222 230
10.9542757 -76.2 2.0682456e-15 218 222 230
0 12.7 0 218 222 230
0 12.7 50.8 218 222 230
0 -76.2 50.8 218 222 230
0 -76.2 0 218 222 230
0 12.7 50.8 218 222 230
10.9542757 12.7 50.8 218 222 230
10.9542757 -76.2 50.8 218 222 230
0 -76.2 50.8 218 222 230
10.9542757 12.7 50.8 218 222 230
10.9542757 -76.2 50.8 218 222 230
13.1453672 -76.2 52.7020735 218 222 230
15.486782 -76.2 54.4157079 218 222 230
17.9623595 -76.2 55.9290755 218 222 230
20.5550134 -76.2 57.2317312 218 222 230
20.5550134 0 57.2317312 218 222 230
20.5550134 12.7 57.2317312 218 222 230
13.1453672 12.7 52.7020735 218 222 230
15.486782 12.7 54.4157079 218 222 230
17.9623595 12.7 55.9290755 218 222 230
20.5550134 12.7 57.2317312 218 222 230
20.5550134 0 57.2317312 218 222 230
21.5908664 12.7 53.4095893 218 222 230
22.8889163 12.7 49.668356 218 222 230
24.4429308 12.7 46.0259943 218 222 230
26.2454486 12.7 42.4999923 218 222 230
28.287815 12.7 39.1072796 218 222 230
30.560224 12.7 35.8641458 218 222 230
33.0517651 12.7 32.7861621 218 222 230
33.0517651 0 32.7861621 218 222 230
21.3060995 0 54.3617259 218 222 230
22.5961099 0 50.4430444 218 222 230
24.1654572 0 46.6276361 218 222 230
26.0059633 0 42.9353836 218 222 230
28.1080371 0 39.3855276 218 222 230
30.4607244 0 35.9965671 218 222 230
20.7888067 0 56.2707777 218 222 230
21.0391937 0 55.3140138 218 222 230
33.0517651 12.7 32.7861621 218 222 230
33.0517651 0 32.7861621 218 222 230
31.5894161 12.7 32.2511517 218 222 230
30.2663571 12.7 31.4300453 218 222 230
29.1378375 12.7 30.3571313 218 222 230
28.2509831 12.7 29.0772133 218 222 230
27.6428277 12.7 27.6437393 218 222 230
27.3387672 12.7 26.1165694 218 222 230
27.3514988 12.7 24.5594763 218 222 230
27.680491 12.7 23.0374826 218 222 230
28.3120052 12.7 21.6141447 218 222 230
29.2196704 12.7 20.3488998 218 222 230
30.3655833 12.7 19.2945828 218 222 230
31.7018921 12.7 18.4952208 218 222 230
33.1727941 12.7 17.9841943 218 222 230
34.7168662 12.7 17.782843 218 222 230
36.2696297 12.7 17.8995753 218 222 230
37.766243 12.7 18.3295164 218 222 230
39.1442094 12.7 19.0547126 218 222 230
40.3459865 12.7 20.0448805 218 222 230
41.3213897 12.7 21.2586719 218 222 230
42.0296872 12.7 22.6454002 218 222 230
42.4413013 12.7 24.1471574 218 222 230
42.4413013 0 24.1471574 218 222 230
31.5894161 0 32.2511517 218 222 230
30.2663571 0 31.4300453 218 222 230
29.1378375 0 30.3571313 218 222 230
28.2509831 0 29.0772133 218 222 230
27.6428277 0 27.6437393 218 222 230
27.3387672 0 26.1165694 218 222 230
27.3514988 0 24.5594763 218 222 230
27.680491 0 23.0374826 218 222 230
28.3120052 0 21.6141447 218 222 230
29.2196704 0 20.3488998 218 222 230
30.3655833 0 19.2945828 218 222 230
31.7018921 0 18.4952208 218 222 230
33.1727941 0 17.9841943 218 222 230
34.7168662 0 17.782843 218 222 230
36.2696297 0 17.8995753 218 222 230
37.766243 0 18.3295164 218 222 230
39.1442094 0 19.0547126 218 222 230
40.3459865 0 20.0448805 218 222 230
41.3213897 0 21.2586719 218 222 230
42.0296872 0 22.6454002 218 222 230
42.4413013 12.7 24.1471574 218 222 230
42.4413013 0 24.1471574 218 222 230
45.9597062 12.7 21.7670668 218 222 230
49.6451765 12.7 19.6548847 218 222 230
53.4773515 12.7 17.8222801 218 222 230
57.4350598 12.7 16.2793774 218 222 230
61.4964369 12.7 15.0347004 218 222 230
65.6390452 12.7 14.0951256 218 222 230
69.8399985 12.7 13.4658437 218 222 230
74.0760883 12.7 13.1503312 218 222 230
78.3239117 12.7 13.1503312 218 222 230
82.5600015 12.7 13.4658437 218 222 230
86.7609548 12.7 14.0951256 218 222 230
90.9035631 12.7 15.0347004 218 222 230
94.9649402 12.7 16.2793774 218 222 230
98.9226485 12.7 17.8222801 218 222 230
102.754823 12.7 19.6548847 218 222 230
106.440294 12.7 21.7670668 218 222 230
109.958699 12.7 24.1471574 218 222 230
109.958699 0 24.1471574 218 222 230
87.4815331 0 14.235415 218 222 230
91.4938763 0 15.1952554 218 222 230
95.4265211 0 16.4420498 218 222 230
99.2589739 0 17.9693011 218 222 230
102.971263 0 19.7690504 218 222 230
106.544044 0 21.8319192 218 222 230
64.9184669 0 14.235415 218 222 230
68.6513783 0 13.6115723 218 222 230
72.4173947 0 13.2361689 218 222 230
76.2 0 13.1108513 218 222 230
79.9826053 0 13.2361689 218 222 230
83.7486217 0 13.6115723 218 222 230
45.8559555 0 21.8319192 218 222 230
49.4287365 0 19.7690504 218 222 230
53.1410261 0 17.9693011 218 222 230
56.9734789 0 16.4420498 218 222 230
60.9061237 0 15.1952554 218 222 230
20.5550134 0 57.2317312 218 222 230
19.7484533 0 61.3532489 218 222 230
19.2467383 0 65.5228687 218 222 230
19.0525775 0 69.7180742 218 222 230
19.1670197 0 73.9162108 218 222 230
19.5894466 0 78.0946079 218 222 230
20.3175772 0 82.2307019 218 222 230
21.3474795 0 86.3021572 218 222 230
22.6735919 0 90.2869876 218 222 230
24.2887533 0 94.1636745 218 222 230
26.1842415 0 97.9112834 218 222 230
28.3498207 0 101.509577 218 222 230
30.7737965 0 104.939123 218 222 230
33.4430792 0 108.181403 218 222 230
36.3432543 0 111.218907 218 222 230
39.4586605 0 114.035233 218 222 230
42.7724744 0 116.615172 218 222 230
46.2668008 0 118.944792 218 222 230
49.92277 0 121.011513 218 222 230
53.7206394 0 122.804175 218 222 230
57.6399 0 124.313096 218 222 230
61.6593873 0 125.530129 218 222 230
65.7573956 0 126.448701 218 222 230
69.9117953 0 127.063853 218 222 230
74.1001519 0 127.372261 218 222 230
78.2998481 0 127.372261 218 222 230
82.4882047 0 127.063853 218 222 230
86.6426044 0 126.448701 218 222 230
90.7406127 0 125.530129 218 222 230
94.7601 0 124.313096 218 222 230
98.6793606 0 122.804175 218 222 230
102.47723 0 121.011513 218 222 230
106.133199 0 118.944792 218 222 230
109.627526 0 116.615172 218 222 230
112.941339 0 114.035233 218 222 230
116.056746 0 111.218907 218 222 230
118.956921 0 108.181403 218 222 230
121.626204 0 104.939123 218 222 230
124.050179 0 101.509577 218 222 230
126.215759 0 97.9112834 218 222 230
128.111247 0 94.1636745 218 222 230
129.726408 0 90.2869876 218 222 230
131.05252 0 86.3021572 218 222 230
132.082423 0 82.2307019 218 222 230
132.810553 0 78.0946079 218 222 230
133.23298 0 73.9162108 218 222 230
133.347422 0 69.7180742 218 222 230
133.153262 0 65.5228687 218 222 230
132.651547 0 61.3532489 218 222 230
131.844987 0 57.2317312 218 222 230
20.7888067 0 56.2707777 218 222 230
21.0391937 0 55.3140138 218 222 230
21.3060995 0 54.3617259 218 222 230
64.9184669 0 14.235415 218 222 230
65.871933 0 17.2425891 218 222 230
66.5247029 0 20.3290247 218 222 230
66.870434 0 23.4647325 218 222 230
66.905767 0 26.6192444 218 222 230
66.6303586 0 29.7619095 218 222 230
66.0468847 0 32.862192 218 222 230
65.1610147 0 35.8899681 218 222 230
63.9813562 0 38.8158183 218 222 230
62.5193713 0 41.6113136 218 222 230
60.7892654 0 44.2492915 218 222 230
58.8078492 0 46.70412 218 222 230
56.594375 0 48.9519469 218 222 230
54.1703501 0 50.9709311 218 222 230
51.5593276 0 52.741455 218 222 230
48.7866775 0 54.2463154 218 222 230
45.8793402 0 55.4708903 218 222 230
42.865565 0 56.4032812 218 222 230
39.7746352 0 57.0344283 218 222 230
36.6365839 0 57.3581992 218 222 230
33.481902 0 57.371448 218 222 230
30.341242 0 57.0740458 218 222 230
27.24512 0 56.4688825 218 222 230
24.2236197 0 55.5618381 218 222 230
68.6513783 0 13.6115723 218 222 230
72.4173947 0 13.2361689 218 222 230
76.2 0 13.1108513 218 222 230
79.9826053 0 13.2361689 218 222 230
83.7486217 0 13.6115723 218 222 230
87.4815331 0 14.235415 218 222 230
86.528067 0 17.2425891 218 222 230
85.8752971 0 20.3290247 218 222 230
85.529566 0 23.4647325 218 222 230
85.494233 0 26.6192444 218 222 230
85.7696414 0 29.7619095 218 222 230
86.3531153 0 32.862192 218 222 230
87.2389853 0 35.8899681 218 222 230
88.4186438 0 38.8158183 218 222 230
89.8806287 0 41.6113136 218 222 230
91.6107346 0 44.2492915 218 222 230
93.5921508 0 46.70412 218 222 230
95.805625 0 48.9519469 218 222 230
98.2296499 0 50.9709311 218 222 230
100.840672 0 52.741455 218 222 230
103.613323 0 54.2463154 218 222 230
106.52066 0 55.4708903 218 222 230
109.534435 0 56.4032812 218 222 230
112.625365 0 57.0344283 218 222 230
115.763416 0 57.3581992 218 222 230
118.918098 0 57.371448 218 222 230
122.058758 0 57.0740458 218 222 230
125.15488 0 56.4688825 218 222 230
128.17638 0 55.5618381 218 222 230
131.0939 0 54.3617259 218 222 230
131.360806 0 55.3140138 218 222 230
131.611193 0 56.2707777 218 222 230
90.4875 0 70.2608513 218 222 230
90.3279204 0 72.3902926 218 222 230
89.8527465 0 74.4721658 218 222 230
89.0725927 0 76.4599652 218 222 230
88.0048865 0 78.3092866 218 222 230
86.6734786 0 79.9788192 218 222 230
85.1081105 0 81.4312686 218 222 230
83.34375 0 82.6341892 218 222 230
81.4198099 0 83.5607099 218 222 230
79.3792678 0 84.1901338 218 222 230
77.2677062 0 84.5084005 218 222 230
75.1322938 0 84.5084005 218 222 230
73.0207322 0 84.1901338 218 222 230
70.9801901 0 83.5607099 218 222 230
69.05625 0 82.6341892 218 222 230
67.2918895 0 81.4312686 218 222 230
65.7265214 0 79.9788192 218 222 230
64.3951135 0 78.3092866 218 222 230
63.3274073 0 76.4599652 218 222 230
62.5472535 0 74.4721658 218 222 230
62.0720796 0 72.3902926 218 222 230
61.9125 0 70.2608513 218 222 230
62.0720796 0 68.1314099 218 222 230
62.5472535 0 66.0495367 218 222 230
63.3274073 0 64.0617373 218 222 230
64.3951135 0 62.2124159 218 222 230
65.7265214 0 60.5428833 218 222 230
67.2918895 0 59.0904339 218 222 230
69.05625 0 57.8875133 218 222 230
70.9801901 0 56.9609926 218 222 230
73.0207322 0 56.3315687 218 222 230
75.1322938 0 56.013302 218 222 230
77.2677062 0 56.013302 218 222 230
79.3792678 0 56.3315687 218 222 230
81.4198099 0 56.9609926 218 222 230
83.34375 0 57.8875133 218 222 230
85.1081105 0 59.0904339 218 222 230
86.6734786 0 60.5428833 218 222 230
88.0048865 0 62.2124159 218 222 230
89.0725927 0 64.0617373 218 222 230
89.8527465 0 66.0495367 218 222 230
90.3279204 0 68.1314099 218 222 230
141.445724 -76.2 50.8 218 222 230
139.254633 -76.2 52.7020735 218 222 230
136.913218 -76.2 54.4157079 218 222 230
134.43764 -76.2 55.9290755 218 222 230
131.844987 -76.2 57.2317312 218 222 230
20.5550134 -76.2 57.2317312 218 222 230
19.7484533 -76.2 61.3532489 218 222 230
19.2467383 -76.2 65.5228687 218 222 230
19.0525775 -76.2 69.7180742 218 222 230
19.1670197 -76.2 73.9162108 218 222 230
19.5894466 -76.2 78.0946079 218 222 230
20.3175772 -76.2 82.2307019 218 222 230
21.3474795 -76.2 86.3021572 218 222 230
22.6735919 -76.2 90.2869876 218 222 230
24.2887533 -76.2 94.1636745 218 222 230
26.1842415 -76.2 97.9112834 218 222 230
28.3498207 -76.2 101.509577 218 222 230
30.7737965 -76.2 104.939123 218 222 230
33.4430792 -76.2 108.181403 218 222 230
36.3432543 -76.2 111.218907 218 222 230
39.4586605 -76.2 114.035233 218 222 230
42.7724744 -76.2 116.615172 218 222 230
46.2668008 -76.2 118.944792 218 222 230
49.92277 -76.2 121.011513 218 222 230
53.7206394 -76.2 122.804175 218 222 230
57.6399 -76.2 124.313096 218 222 230
61.6593873 -76.2 125.530129 218 222 230
65.7573956 -76.2 126.448701 218 222 230
69.9117953 -76.2 127.063853 218 222 230
74.1001519 -76.2 127.372261 218 222 230
78.2998481 -76.2 127.372261 218 222 230
82.4882047 -76.2 127.063853 218 222 230
86.6426044 -76.2 126.448701 218 222 230
90.7406127 -76.2 125.530129 218 222 230
94.7601 -76.2 124.313096 218 222 230
98.6793606 -76.2 122.804175 218 222 230
102.47723 -76.2 121.011513 218 222 230
106.133199 -76.2 118.944792 218 222 230
109.627526 -76.2 116.615172 218 222 230
112.941339 -76.2 114.035233 218 222 230
116.056746 -76.2 111.218907 218 222 230
118.956921 -76.2 108.181403 218 222 230
121.626204 -76.2 104.939123 218 222 230
124.050179 -76.2 101.509577 218 222 230
126.215759 -76.2 97.9112834 218 222 230
128.111247 -76.2 94.1636745 218 222 230
129.726408 -76.2 90.2869876 218 222 230
131.05252 -76.2 86.3021572 218 222 230
132.082423 -76.2 82.2307019 218 222 230
132.810553 -76.2 78.0946079 218 222 230
133.23298 -76.2 73.9162108 218 222 230
133.347422 -76.2 69.7180742 218 222 230
133.153262 -76.2 65.5228687 218 222 230
132.651547 -76.2 61.3532489 218 222 230
10.9542757 -76.2 50.8 218 222 230
13.1453672 -76.2 52.7020735 218 222 230
15.486782 -76.2 54.4157079 218 222 230
17.9623595 -76.2 55.9290755 218 222 230
0 -76.2 50.8 218 222 230
0 -76.2 0 218 222 230
10.9542757 -76.2 2.0682456e-15 218 222 230
13.459529 -76.2 -2.14975825 218 222 230
16.1565629 -76.2 -4.05337661 218 222 230
19.0212811 -76.2 -5.69384745 218 222 230
22.028089 -76.2 -7.05651418 218 222 230
25.1501228 -76.2 -8.12920222 218 222 230
28.3594891 -76.2 -8.90232778 218 222 230
31.627514 -76.2 -9.36898347 218 222 230
34.925 -76.2 -9.525 218 222 230
38.222486 -76.2 -9.36898347 218 222 230
41.4905109 -76.2 -8.90232778 218 222 230
44.6998772 -76.2 -8.12920222 218 222 230
47.821911 -76.2 -7.05651418 218 222 230
50.8287189 -76.2 -5.69384745 218 222 230
53.6934371 -76.2 -4.05337661 218 222 230
56.390471 -76.2 -2.14975825 218 222 230
58.8957243 -76.2 -1.73472348e-14 218 222 230
93.5042757 -76.2 6.11763753e-15 218 222 230
141.445724 -76.2 6.9388939e-15 218 222 230
138.940471 -76.2 -2.14975825 218 222 230
136.243437 -76.2 -4.05337661 218 222 230
133.378719 -76.2 -5.69384745 218 222 230
130.371911 -76.2 -7.05651418 218 222 230
127.249877 -76.2 -8.12920222 218 222 230
124.040511 -76.2 -8.90232778 218 222 230
120.772486 -76.2 -9.36898347 218 222 230
117.475 -76.2 -9.525 218 222 230
114.177514 -76.2 -9.36898347 218 222 230
110.909489 -76.2 -8.90232778 218 222 230
107.700123 -76.2 -8.12920222 218 222 230
104.578089 -76.2 -7.05651418 218 222 230
101.571281 -76.2 -5.69384745 218 222 230
98.7065629 -76.2 -4.05337661 218 222 230
96.009529 -76.2 -2.14975825 218 222 230
152.4 -76.2 2.77555756e-14 218 222 230
152.4 -76.2 50.8 218 222 230
85.471 -76.2 25.4 218 222 230
85.6175373 -76.2 28.459099 218 222 230
86.0558073 -76.2 31.4901845 218 222 230
86.7817966 -76.2 34.4654995 218 222 230
87.788857 -76.2 37.3577978 218 222 230
89.0677663 -76.2 40.1405933 218 222 230
90.6068132 -76.2 42.7884028 218 222 230
92.3919037 -76.2 45.276979 218 222 230
94.4066911 -76.2 47.5835331 218 222 230
96.6327251 -76.2 49.6869429 218 222 230
99.0496209 -76.2 51.5679465 218 222 230
101.635246 -76.2 53.2093187 218 222 230
104.365923 -76.2 54.5960289 218 222 230
107.216645 -76.2 55.7153783 218 222 230
110.161307 -76.2 56.5571166 218 222 230
113.172944 -76.2 57.1135355 218 222 230
116.223977 -76.2 57.3795397 218 222 230
119.286466 -76.2 57.3526933 218 222 230
122.332367 -76.2 57.0332421 218 222 230
125.333787 -76.2 56.4241114 218 222 230
128.26324 -76.2 55.5308795 218 222 230
131.0939 -76.2 54.3617259 218 222 230
133.89986 -76.2 52.867799 218 222 230
136.543774 -76.2 51.1028769 218 222 230
138.999556 -76.2 49.0843724 218 222 230
141.242979 -76.2 46.8321997 218 222 230
143.251909 -76.2 44.3685786 218 222 230
145.006526 -76.2 41.7178151 218 222 230
146.489519 -76.2 38.9060613 218 222 230
147.686257 -76.2 35.9610577 218 222 230
148.584934 -76.2 32.9118597 218 222 230
149.176682 -76.2 29.7885502 218 222 230
149.455664 -76.2 26.6219436 218 222 230
149.419127 -76.2 23.4432814 218 222 230
149.067432 -76.2 20.2839241 218 222 230
148.404049 -76.2 17.1750415 218 222 230
147.435522 -76.2 14.1473058 218 222 230
146.171407 -76.2 11.2305882 218 222 230
144.624176 -76.2 8.45366489 218 222 230
142.809093 -76.2 5.84393279 218 222 230
140.744065 -76.2 3.42713928 218 222 230
138.449468 -76.2 1.22712827 218 222 230
135.947937 -76.2 -0.734395118 218 222 230
133.264154 -76.2 -2.43807865 218 222 230
130.424597 -76.2 -3.86711392 218 222 230
127.45728 -76.2 -5.00740217 218 222 230
124.391478 -76.2 -5.84769343 218 222 230
121.257439 -76.2 -6.37969743 218 222 230
118.086083 -76.2 -6.59816547 218 222 230
114.908698 -76.2 -6.50094216 218 222 230
111.756632 -76.2 -6.0889867 218 222 230
108.660983 -76.2 -5.36636342 218 222 230
105.652292 -76.2 -4.34020164 218 222 230
102.760243 -76.2 -3.02062541 218 222 230
100.013369 -76.2 -1.42065355 218 222 230
97.4387697 -76.2 0.44392873 218 222 230
95.0618464 -76.2 2.55472562 218 222 230
92.9060494 -76.2 4.89091217 218 222 230
90.9926478 -76.2 7.42943974 218 222 230
89.3405189 -76.2 10.1452634 218 222 230
87.9659625 -76.2 13.0115891 218 222 230
86.88254 -76.2 16.0001379 218 222 230
86.1009402 -76.2 19.081425 218 222 230
85.6288745 -76.2 22.2250506 218 222 230
66.929 -76.2 25.4 218 222 230
66.7824627 -76.2 28.459099 218 222 230
66.3441927 -76.2 31.4901845 218 222 230
65.6182034 -76.2 34.4654995 218 222 230
64.611143 -76.2 37.3577978 218 222 230
63.3322337 -76.2 40.1405933 218 222 230
61.7931868 -76.2 42.7884028 218 222 230
60.0080963 -76.2 45.276979 218 222 230
57.9933089 -76.2 47.5835331 218 222 230
55.7672749 -76.2 49.6869429 218 222 230
53.3503791 -76.2 51.5679465 218 222 230
50.764754 -76.2 53.2093187 218 222 230
48.0340774 -76.2 54.5960289 218 222 230
45.1833552 -76.2 55.7153783 218 222 230
42.2386928 -76.2 56.5571166 218 222 230
39.2270557 -76.2 57.1135355 218 222 230
36.1760228 -76.2 57.3795397 218 222 230
33.1135338 -76.2 57.3526933 218 222 230
30.0676331 -76.2 57.0332421 218 222 230
27.0662135 -76.2 56.4241114 218 222 230
24.1367602 -76.2 55.5308795 218 222 230
21.3060995 -76.2 54.3617259 218 222 230
18.5001397 -76.2 52.867799 218 222 230
15.8562262 -76.2 51.1028769 218 222 230
13.4004438 -76.2 49.0843724 218 222 230
11.1570209 -76.2 46.8321997 218 222 230
9.14809093 -76.2 44.3685786 218 222 230
7.39347394 -76.2 41.7178151 218 222 230
5.91048079 -76.2 38.9060613 218 222 230
4.71374257 -76.2 35.9610577 218 222 230
3.81506621 -76.2 32.9118597 218 222 230
3.22331797 -76.2 29.7885502 218 222 230
2.944336 -76.2 26.6219436 218 222 230
2.98087271 -76.2 23.4432814 218 222 230
3.33256763 -76.2 20.2839241 218 222 230
3.99595097 -76.2 17.1750415 218 222 230
4.96447784 -76.2 14.1473058 218 222 230
6.22859283 -76.2 11.2305882 218 222 230
7.77582428 -76.2 8.45366489 218 222 230
9.59090734 -76.2 5.84393279 218 222 230
11.6559345 -76.2 3.42713928 218 222 230
13.9505325 -76.2 1.22712827 218 222 230
16.4520628 -76.2 -0.734395118 218 222 230
19.1358457 -76.2 -2.43807865 218 222 230
21.9754031 -76.2 -3.86711392 218 222 230
24.9427202 -76.2 -5.00740217 218 222 230
28.0085217 -76.2 -5.84769343 218 222 230
31.1425606 -76.2 -6.37969743 218 222 230
34.3139168 -76.2 -6.59816547 218 222 230
37.4913019 -76.2 -6.50094216 218 222 230
40.643368 -76.2 -6.0889867 218 222 230
43.7390171 -76.2 -5.36636342 218 222 230
46.7477079 -76.2 -4.34020164 218 222 230
49.6397568 -76.2 -3.02062541 218 222 230
52.3866311 -76.2 -1.42065355 218 222 230
54.9612303 -76.2 0.44392873 218 222 230
57.3381536 -76.2 2.55472562 218 222 230
59.4939506 -76.2 4.89091217 218 222 230
61.4073522 -76.2 7.42943974 218 222 230
63.0594811 -76.2 10.1452634 218 222 230
64.4340375 -76.2 13.0115891 218 222 230
65.51746 -76.2 16.0001379 218 222 230
66.2990598 -76.2 19.081425 218 222 230
66.7711255 -76.2 22.2250506 218 222 230
90.4875 -76.2 70.2608513 218 222 230
90.3279204 -76.2 72.3902926 218 222 230
89.8527465 -76.2 74.4721658 218 222 230
89.0725927 -76.2 76.4599652 218 222 230
88.0048865 -76.2 78.3092866 218 222 230
86.6734786 -76.2 79.9788192 218 222 230
85.1081105 -76.2 81.4312686 218 222 230
83.34375 -76.2 82.6341892 218 222 230
81.4198099 -76.2 83.5607099 218 222 230
79.3792678 -76.2 84.1901338 218 222 230
77.2677062 -76.2 84.5084005 218 222 230
75.1322938 -76.2 84.5084005 218 222 230
73.0207322 -76.2 84.1901338 218 222 230
70.9801901 -76.2 83.5607099 218 222 230
69.05625 -76.2 82.6341892 218 222 230
67.2918895 -76.2 81.4312686 218 222 230
65.7265214 -76.2 79.9788192 218 222 230
64.3951135 -76.2 78.3092866 218 222 230
63.3274073 -76.2 76.4599652 218 222 230
62.5472535 -76.2 74.4721658 218 222 230
62.0720796 -76.2 72.3902926 218 222 230
61.9125 -76.2 70.2608513 218 222 230
62.0720796 -76.2 68.1314099 218 222 230
62.5472535 -76.2 66.0495367 218 222 230
63.3274073 -76.2 64.0617373 218 222 230
64.3951135 -76.2 62.2124159 218 222 230
65.7265214 -76.2 60.5428833 218 222 230
67.2918895 -76.2 59.0904339 218 222 230
69.05625 -76.2 57.8875133 218 222 230
70.9801901 -76.2 56.9609926 218 222 230
73.0207322 -76.2 56.3315687 218 222 230
75.1322938 -76.2 56.013302 218 222 230
77.2677062 -76.2 56.013302 218 222 230
79.3792678 -76.2 56.3315687 218 222 230
81.4198099 -76.2 56.9609926 218 222 230
83.34375 -76.2 57.8875133 218 222 230
85.1081105 -76.2 59.0904339 218 222 230
86.6734786 -76.2 60.5428833 218 222 230
88.0048865 -76.2 62.2124159 218 222 230
89.0725927 -76.2 64.0617373 218 222 230
89.8527465 -76.2 66.0495367 218 222 230
90.3279204 -76.2 68.1314099 218 222 230
3 20 22 21
3 20 46 22
3 19 46 20
3 19 45 46
3 18 44 45
3 18 45 19
3 17 43 44
3 17 44 18
3 16 42 43
3 16 43 17
3 15 41 42
3 15 42 16
3 14 40 41
3 14 41 15
3 13 39 40
3 13 40 14
3 12 38 39
3 12 39 13
3 11 37 38
3 11 38 12
3 10 36 37
3 10 37 11
3 9 35 36
3 9 36 10
3 8 34 35
3 8 35 9
3 7 33 34
3 7 34 8
3 6 32 33
3 6 33 7
3 5 31 32
3 5 32 6
3 4 30 31
3 4 31 5
3 3 29 30
3 3 30 4
3 2 29 3
3 2 28 29
3 1 28 2
3 1 27 28
3 0 27 1
3 0 26 27
3 129 26 0
3 129 25 26
3 128 25 129
3 128 24 25
3 127 23 24
3 127 24 128
3 126 23 127
3 126 86 23
3 125 86 126
3 125 85 86
3 124 85 125
3 124 84 85
3 123 84 124
3 123 83 84
3 122 83 123
3 122 82 83
3 121 82 122
3 121 81 82
3 120 81 121
3 120 80 81
3 119 80 120
3 119 79 80
3 118 79 119
3 118 78 79
3 117 78 118
3 117 77 78
3 116 77 117
3 116 76 77
3 115 75 76
3 115 76 116
3 114 74 75
3 114 75 115
3 113 73 74
3 113 74 114
3 112 72 73
3 112 73 113
3 111 71 72
3 111 72 112
3 110 70 71
3 110 71 111
3 109 69 70
3 109 70 110
3 108 68 69
3 108 69 109
3 107 68 108
3 107 67 68
3 106 67 107
3 106 66 67
3 105 66 106
3 105 65 66
3 104 65 105
3 104 64 65
3 103 64 104
3 103 63 64
3 102 63 103
3 102 62 63
3 101 62 102
3 101 61 62
3 100 61 101
3 100 60 61
3 99 60 100
3 99 59 60
3 98 59 99
3 98 58 59
3 97 58 98
3 97 57 58
3 96 57 97
3 96 56 57
3 95 55 56
3 95 56 96
3 94 55 95
3 94 54 55
3 93 53 54
3 93 54 94
3 92 52 53
3 92 53 93
3 91 51 52
3 91 52 92
3 90 50 51
3 90 51 91
3 89 49 50
3 89 50 90
3 88 48 49
3 88 49 89
3 87 47 48
3 87 48 88
3 130 174 173
3 131 174 130
3 132 175 174
3 132 174 131
3 133 175 132
3 133 176 175
3 134 176 133
3 134 177 176
3 135 177 134
3 135 178 177
3 136 178 135
3 136 179 178
3 136 180 179
3 137 180 136
3 138 180 137
3 138 181 180
3 139 181 138
3 139 182 181
3 140 182 139
3 140 183 182
3 141 183 140
3 141 184 183
3 142 184 141
3 142 185 184
3 143 185 142
3 143 186 185
3 144 186 143
3 144 187 186
3 145 187 144
3 145 188 187
3 146 188 145
3 146 189 188
3 146 190 189
3 147 190 146
3 148 190 147
3 148 191 190
3 149 192 191
3 149 191 148
3 150 193 192
3 150 192 149
3 151 194 193
3 151 193 150
3 152 195 194
3 152 196 195
3 152 194 151
3 153 196 152
3 154 197 196
3 154 196 153
3 155 198 197
3 155 199 198
3 155 197 154
3 156 199 155
3 157 200 199
3 157 199 156
3 158 201 200
3 158 200 157
3 159 201 158
3 159 202 201
3 159 203 202
3 160 203 159
3 161 203 160
3 161 204 203
3 162 204 161
3 162 205 204
3 163 205 162
3 163 206 205
3 163 207 206
3 164 207 163
3 165 207 164
3 165 208 207
3 166 208 165
3 166 209 208
3 167 209 166
3 167 210 209
3 168 210 167
3 168 211 210
3 169 211 168
3 169 212 211
3 170 212 169
3 170 213 212
3 171 213 170
3 171 214 213
3 172 214 171
3 172 215 214
3 216 261 260
3 217 261 216
3 217 262 261
3 218 262 217
3 218 263 262
3 219 263 218
3 219 264 263
3 220 265 264
3 220 264 219
3 221 266 265
3 221 265 220
3 222 267 266
3 222 266 221
3 223 268 267
3 223 267 222
3 224 269 268
3 224 268 223
3 225 270 269
3 225 269 224
3 226 271 270
3 226 270 225
3 227 272 271
3 227 271 226
3 228 273 272
3 228 272 227
3 229 274 273
3 229 273 228
3 230 275 274
3 230 274 229
3 231 276 275
3 231 275 230
3 232 277 276
3 232 276 231
3 233 277 232
3 233 278 277
3 234 278 233
3 234 279 278
3 235 279 234
3 235 280 279
3 236 280 235
3 236 281 280
3 237 281 236
3 237 282 281
3 238 282 237
3 238 283 282
3 239 283 238
3 239 284 283
3 240 284 239
3 240 285 284
3 241 285 240
3 241 286 285
3 242 286 241
3 242 287 286
3 243 287 242
3 243 288 287
3 244 288 243
3 244 289 288
3 245 289 244
3 245 290 289
3 246 290 245
3 246 291 290
3 247 291 246
3 247 292 291
3 248 292 247
3 248 293 292
3 249 293 248
3 249 294 293
3 250 294 249
3 250 295 294
3 251 295 250
3 251 296 295
3 252 296 251
3 252 297 296
3 253 297 252
3 253 298 297
3 254 299 298
3 254 298 253
3 255 300 299
3 255 299 254
3 256 301 300
3 256 300 255
3 257 302 301
3 257 301 256
3 258 302 257
3 258 303 302
3 259 303 258
3 259 304 303
3 326 304 259
3 326 305 304
3 327 305 326
3 327 306 305
3 328 306 327
3 328 307 306
3 329 307 328
3 329 308 307
3 330 308 329
3 330 309 308
3 331 309 330
3 331 310 309
3 332 310 331
3 332 311 310
3 333 311 332
3 333 312 311
3 334 312 333
3 334 313 312
3 335 313 334
3 335 314 313
3 336 314 335
3 336 315 314
3 337 315 336
3 337 316 315
3 338 317 316
3 338 316 337
3 339 318 317
3 339 317 338
3 340 319 318
3 340 318 339
3 341 320 319
3 341 319 340
3 342 321 320
3 342 320 341
3 343 322 321
3 343 321 342
3 344 323 322
3 344 322 343
3 345 324 323
3 345 323 344
3 325 324 345
3 461 360 361
3 462 461 361
3 460 360 461
3 463 361 362
3 463 462 361
3 459 359 360
3 459 360 460
3 464 362 363
3 464 363 364
3 464 463 362
3 458 359 459
3 465 364 365
3 465 464 364
3 457 359 458
3 358 359 457
3 408 370 371
3 408 371 372
3 409 372 373
3 409 373 374
3 409 408 372
3 407 368 369
3 407 369 370
3 407 370 408
3 456 358 457
3 410 374 375
3 410 375 376
3 410 409 374
3 406 366 367
3 406 367 368
3 406 368 407
3 455 358 456
3 411 376 377
3 411 377 378
3 411 410 376
3 454 358 455
3 405 466 465
3 405 365 366
3 405 366 406
3 405 465 365
3 412 378 379
3 412 379 380
3 412 411 378
3 404 466 405
3 404 467 466
3 357 453 452
3 357 454 453
3 357 358 454
3 413 380 381
3 413 381 382
3 413 412 380
3 403 467 404
3 403 468 467
3 414 413 382
3 414 382 383
3 414 383 384
3 402 469 468
3 402 468 403
3 356 451 450
3 356 452 451
3 356 357 452
3 401 469 402
3 355 450 449
3 355 356 450
3 437 386 387
3 438 385 386
3 438 386 437
3 436 387 388
3 436 437 387
3 439 414 384
3 439 384 385
3 439 415 414
3 439 385 438
3 351 399 352
3 351 400 399
3 351 401 400
3 435 436 388
3 440 415 439
3 434 388 389
3 434 435 388
3 350 470 469
3 350 445 470
3 350 469 401
3 350 401 351
3 394 417 416
3 394 418 417
3 394 393 418
3 433 434 389
3 432 433 389
3 349 447 446
3 349 445 350
3 349 446 445
3 395 394 416
3 395 416 415
3 395 415 440
3 395 440 441
3 390 432 389
3 390 430 431
3 390 431 432
3 348 448 447
3 348 449 448
3 348 354 355
3 348 355 449
3 348 447 349
3 396 395 441
3 396 441 442
3 396 442 443
3 396 443 444
3 396 444 419
3 429 430 390
3 347 353 354
3 347 354 348
3 397 396 419
3 397 419 420
3 397 420 421
3 397 421 422
3 397 422 423
3 391 429 390
3 391 427 428
3 391 428 429
3 346 353 347
3 398 397 423
3 398 427 391
3 398 423 424
3 398 424 425
3 398 425 426
3 398 426 427
3 392 398 391
3 474 471 472
3 474 472 473
3 559 513 560
3 561 513 512
3 561 560 513
3 558 514 513
3 558 513 559
3 562 561 512
3 557 514 558
3 563 512 511
3 563 562 512
3 556 514 557
3 564 563 511
3 543 515 514
3 543 514 556
3 555 543 556
3 565 511 510
3 565 564 511
3 554 543 555
3 566 510 509
3 566 565 510
3 553 543 554
3 567 509 508
3 567 566 509
3 552 543 553
3 568 508 507
3 568 567 508
3 544 543 552
3 544 549 548
3 544 550 549
3 544 551 550
3 544 552 551
3 545 544 548
3 545 571 570
3 545 572 571
3 545 573 572
3 545 548 573
3 546 570 569
3 546 545 570
3 539 547 546
3 538 539 546
3 538 546 569
3 538 569 568
3 540 547 539
3 537 506 505
3 537 538 568
3 537 507 506
3 537 568 507
3 541 547 540
3 536 537 505
3 536 504 503
3 536 505 504
3 542 547 541
3 535 502 501
3 535 503 502
3 535 536 503
3 534 535 501
3 534 500 499
3 534 501 500
3 533 498 497
3 533 499 498
3 533 534 499
3 532 496 495
3 532 497 496
3 532 533 497
3 531 532 495
3 494 531 495
3 493 530 531
3 493 531 494
3 492 530 493
3 517 516 522
3 517 522 523
3 517 523 524
3 491 529 530
3 491 530 492
3 490 529 491
3 518 517 524
3 489 528 529
3 489 529 490
3 488 528 489
3 597 525 526
3 596 526 527
3 596 597 526
3 598 525 597
3 598 524 525
3 598 518 524
3 595 527 528
3 595 596 527
3 599 518 598
3 594 488 487
3 594 595 528
3 594 528 488
3 574 519 518
3 574 518 599
3 593 594 487
3 575 519 574
3 576 519 575
3 576 520 519
3 486 593 487
3 577 520 576
3 578 520 577
3 485 592 593
3 485 593 486
3 484 590 591
3 484 591 592
3 484 592 485
3 483 588 589
3 483 589 590
3 483 590 484
3 482 586 587
3 482 587 588
3 482 588 483
3 476 475 521
3 481 583 584
3 481 584 585
3 481 585 586
3 481 586 482
3 477 476 521
3 477 521 520
3 480 581 582
3 480 582 583
3 480 583 481
3 478 578 579
3 478 520 578
3 478 477 520
3 479 579 580
3 479 580 581
3 479 581 480
3 479 478 579
3 699 649 648
3 698 699 648
3 697 698 648
3 697 647 646
3 697 648 647
3 696 697 646
3 695 696 646
3 695 646 645
3 694 695 645
3 694 645 644
3 693 694 644
3 693 644 643
3 692 693 643
3 692 642 641
3 692 643 642
3 691 692 641
3 690 691 641
3 690 641 640
3 689 640 639
3 689 690 640
3 688 639 638
3 688 689 639
3 687 638 637
3 687 688 638
3 686 636 635
3 686 637 636
3 686 687 637
3 685 686 635
3 684 635 634
3 684 685 635
3 683 634 633
3 683 684 634
3 682 633 632
3 682 683 633
3 681 631 630
3 681 632 631
3 681 682 632
3 680 681 630
3 679 630 629
3 679 680 630
3 678 628 627
3 678 629 628
3 678 679 629
3 677 627 626
3 677 678 627
3 676 626 625
3 676 677 626
3 675 676 625
3 674 675 625
3 674 625 624
3 673 674 624
3 673 623 622
3 673 624 623
3 672 673 622
3 671 672 622
3 671 622 621
3 670 671 621
3 670 621 620
3 669 620 619
3 669 670 620
3 668 669 619
3 668 619 618
3 667 617 616
3 667 618 617
3 667 668 618
3 666 616 615
3 666 667 616
3 665 615 614
3 665 666 615
3 664 665 614
3 663 614 613
3 663 664 614
3 662 612 611
3 662 613 612
3 662 663 613
3 661 662 611
3 660 610 609
3 660 611 610
3 660 661 611
3 659 660 609
3 658 609 608
3 658 659 609
3 657 608 607
3 657 658 608
3 656 607 606
3 656 657 607
3 655 606 605
3 655 656 606
3 654 605 604
3 654 655 605
3 653 604 603
3 653 654 604
3 652 603 602
3 652 653 603
3 651 602 601
3 651 652 602
3 650 601 600
3 650 651 601
3 837 802 836
3 835 836 802
3 838 803 802
3 838 802 837
3 839 803 838
3 780 804 803
3 780 805 804
3 780 803 779
3 778 779 803
3 781 806 805
3 781 807 806
3 781 805 780
3 777 839 840
3 777 803 839
3 777 778 803
3 801 831 832
3 801 832 833
3 801 833 834
3 801 834 835
3 801 835 802
3 830 831 801
3 782 808 807
3 782 809 808
3 782 810 809
3 782 807 781
3 776 840 841
3 776 777 840
3 783 811 810
3 783 812 811
3 783 810 782
3 775 776 841
3 775 841 842
3 784 813 812
3 784 814 813
3 784 812 783
3 774 842 843
3 774 775 842
3 785 815 814
3 785 814 784
3 773 774 843
3 773 843 844
3 772 773 844
3 797 825 826
3 797 826 827
3 797 827 828
3 797 828 829
3 797 829 830
3 797 830 801
3 798 825 797
3 864 818 817
3 865 816 815
3 865 817 816
3 865 864 817
3 863 819 818
3 863 818 864
3 866 865 815
3 866 815 785
3 866 785 786
3 796 769 770
3 796 770 771
3 796 771 772
3 862 819 863
3 867 866 786
3 861 819 862
3 795 772 844
3 795 796 772
3 795 844 845
3 795 845 820
3 753 787 788
3 753 788 789
3 753 789 752
3 860 819 861
3 859 819 860
3 794 820 821
3 794 821 822
3 794 795 820
3 754 867 786
3 754 787 753
3 754 868 867
3 754 869 868
3 754 786 787
3 858 819 859
3 793 794 822
3 793 822 823
3 793 823 824
3 755 870 869
3 755 871 870
3 755 846 871
3 755 869 754
3 847 846 755
3 792 824 825
3 792 825 798
3 792 793 824
3 792 798 799
3 756 847 755
3 756 848 847
3 756 849 848
3 756 850 849
3 756 851 850
3 791 792 799
3 791 799 800
3 757 851 756
3 757 852 851
3 757 853 852
3 757 854 853
3 757 855 854
3 790 791 800
3 758 855 757
3 758 856 855
3 758 857 856
3 758 858 857
3 758 819 858
3 759 819 758
3 760 819 759
3 761 819 760
3 716 819 761
3 762 716 761
3 763 716 762
3 884 716 763
3 883 884 763
3 885 716 884
3 882 883 763
3 886 716 885
3 881 882 763
3 887 716 886
3 764 881 763
3 880 881 764
3 888 716 887
3 879 880 764
3 889 715 716
3 889 716 888
3 878 879 764
3 890 714 715
3 890 715 889
3 877 878 764
3 891 712 713
3 891 713 714
3 891 714 890
3 892 712 891
3 765 877 764
3 765 874 875
3 765 875 876
3 765 876 877
3 873 874 765
3 766 873 765
3 766 872 873
3 766 895 896
3 766 896 897
3 766 897 872
3 767 895 766
3 767 893 894
3 767 894 895
3 748 767 768
3 747 893 767
3 747 767 748
3 747 892 893
3 749 748 768
3 746 711 712
3 746 892 747
3 746 712 892
3 750 749 768
3 745 709 710
3 745 710 711
3 745 711 746
3 751 750 768
3 744 707 708
3 744 708 709
3 744 709 745
3 743 704 705
3 743 705 706
3 743 706 707
3 743 707 744
3 742 702 703
3 742 703 704
3 742 704 743
3 741 701 702
3 741 702 742
3 700 701 741
3 740 700 741
3 739 700 740
3 738 700 739
3 725 731 724
3 725 732 731
3 725 733 732
3 726 733 725
3 921 735 734
3 920 736 735
3 920 735 921
3 922 734 733
3 922 921 734
3 922 733 726
3 919 736 920
3 919 737 736
3 923 922 726
3 918 737 919
3 918 738 737
3 898 923 726
3 898 726 727
3 917 738 918
3 917 700 738
3 899 898 727
3 916 717 700
3 916 700 917
3 900 899 727
3 900 727 728
3 915 717 916
3 901 900 728
3 914 717 915
3 902 901 728
3 913 717 914
3 729 903 902
3 729 902 728
3 722 730 723
3 721 729 730
3 721 730 722
3 720 729 721
3 720 903 729
3 719 904 903
3 719 905 904
3 719 906 905
3 719 907 906
3 719 908 907
3 719 903 720
3 718 909 908
3 718 910 909
3 718 911 910
3 718 912 911
3 718 913 912
3 718 717 913
3 718 908 719
3 925 951 924
3 925 952 951
3 926 953 952
3 926 952 925
3 927 954 953
3 927 953 926
3 928 955 954
3 928 954 927
3 929 956 955
3 929 955 928
3 930 957 956
3 930 956 929
3 931 958 957
3 931 957 930
3 932 959 958
3 932 960 959
3 932 958 931
3 933 960 932
3 934 961 960
3 934 962 961
3 934 960 933
3 935 962 934
3 936 962 935
3 936 963 962
3 937 963 936
3 937 964 963
3 937 965 964
3 938 965 937
3 939 965 938
3 939 966 965
3 940 966 939
3 940 967 966
3 941 967 940
3 941 968 967
3 942 968 941
3 942 969 968
3 943 969 942
3 943 970 969
3 944 970 943
3 944 971 970
3 945 971 944
3 945 972 971
3 946 972 945
3 946 973 972
3 947 973 946
3 947 974 973
3 948 975 974
3 948 976 975
3 948 974 947
3 949 976 948
3 950 977 976
3 950 976 949
3 1011 978 979
3 1011 995 994
3 1011 979 995
3 1010 1011 994
3 1009 993 992
3 1009 994 993
3 1009 1010 994
3 1008 1009 992
3 1007 992 991
3 1007 1008 992
3 1006 990 989
3 1006 991 990
3 1006 1007 991
3 1005 1006 989
3 1004 989 988
3 1004 1005 989
3 1003 988 987
3 1003 1004 988
3 1002 987 986
3 1002 1003 987
3 1001 986 985
3 1001 1002 986
3 1000 984 983
3 1000 985 984
3 1000 1001 985
3 999 1000 983
3 998 983 982
3 998 999 983
3 997 982 981
3 997 998 982
3 996 997 981
3 996 981 980
3 1014 1036 1035
3 1015 1036 1014
3 1016 1037 1036
3 1016 1036 1015
3 1017 1038 1037
3 1017 1037 1016
3 1018 1039 1038
3 1018 1038 1017
3 1019 1040 1039
3 1019 1039 1018
3 1020 1041 1040
3 1020 1040 1019
3 1021 1042 1041
3 1021 1041 1020
3 1022 1043 1042
3 1022 1044 1043
3 1022 1042 1021
3 1023 1045 1044
3 1023 1044 1022
3 1024 1045 1023
3 1025 1046 1045
3 1025 1045 1024
3 1026 1047 1046
3 1026 1046 1025
3 1027 1048 1047
3 1027 1047 1026
3 1028 1048 1027
3 1028 1049 1048
3 1028 1050 1049
3 1029 1050 1028
3 1030 1050 1029
3 1030 1051 1050
3 1031 1051 1030
3 1031 1052 1051
3 1032 1052 1031
3 1032 1053 1052
3 1033 1053 1032
3 1033 1054 1053
3 1034 1054 1033
3 1034 1055 1054
3 1012 1055 1034
3 1012 1013 1055
3 1064 1067 1068
3 1064 1068 1065
3 1063 1066 1067
3 1063 1073 1066
3 1063 1067 1064
3 1062 1072 1073
3 1062 1073 1063
3 1061 1071 1072
3 1061 1072 1062
3 1060 1070 1071
3 1060 1071 1061
3 1059 1069 1070
3 1059 1070 1060
3 1058 1057 1069
3 1058 1069 1059
3 1056 1057 1058
3 1075 1076 1080
3 1084 1074 1075
3 1084 1075 1080
3 1083 1080 1079
3 1083 1084 1080
3 1082 1079 1078
3 1082 1083 1079
3 1081 1078 1077
3 1081 1082 1078
3 1088 1085 1086
3 1088 1086 1087
3 1092 1089 1090
3 1092 1090 1091
3 1096 1093 1094
3 1096 1094 1095
3 1116 1097 1098
3 1116 1098 1099
3 1116 1099 1100
3 1117 1116 1100
3 1118 1100 1101
3 1118 1101 1102
3 1118 1117 1100
3 1119 1118 1102
3 1120 1102 1103
3 1120 1119 1102
3 1121 1103 1104
3 1121 1104 1105
3 1121 1120 1103
3 1122 1105 1106
3 1122 1121 1105
3 1123 1122 1106
3 1124 1106 1107
3 1124 1123 1106
3 1125 1107 1108
3 1125 1108 1109
3 1125 1124 1107
3 1126 1125 1109
3 1127 1109 1110
3 1127 1110 1111
3 1127 1126 1109
3 1128 1127 1111
3 1129 1111 1112
3 1129 1128 1111
3 1130 1112 1113
3 1130 1113 1114
3 1130 1129 1112
3 1115 1130 1114
3 1156 1158 1157
3 1156 1184 1158
3 1155 1183 1184
3 1155 1184 1156
3 1154 1181 1182
3 1154 1182 1183
3 1154 1183 1155
3 1153 1181 1154
3 1152 1180 1181
3 1152 1181 1153
3 1151 1179 1180
3 1151 1180 1152
3 1150 1177 1178
3 1150 1178 1179
3 1150 1179 1151
3 1149 1177 1150
3 1148 1175 1176
3 1148 1176 1177
3 1148 1177 1149
3 1147 1175 1148
3 1146 1175 1147
3 1146 1174 1175
3 1145 1174 1146
3 1145 1172 1173
3 1145 1173 1174
3 1144 1172 1145
3 1144 1171 1172
3 1143 1171 1144
3 1142 1171 1143
3 1142 1170 1171
3 1141 1170 1142
3 1141 1169 1170
3 1140 1169 1141
3 1140 1168 1169
3 1139 1168 1140
3 1139 1167 1168
3 1138 1166 1167
3 1138 1167 1139
3 1137 1166 1138
3 1137 1164 1165
3 1137 1165 1166
3 1136 1164 1137
3 1135 1164 1136
3 1135 1163 1164
3 1134 1162 1163
3 1134 1163 1135
3 1133 1161 1162
3 1133 1162 1134
3 1132 1160 1161
3 1132 1161 1133
3 1131 1159 1160
3 1131 1160 1132
3 1186 1212 1185
3 1186 1213 1212
3 1187 1214 1213
3 1187 1213 1186
3 1188 1215 1214
3 1188 1214 1187
3 1189 1216 1215
3 1189 1215 1188
3 1190 1217 1216
3 1190 1216 1189
3 1191 1218 1217
3 1191 1217 1190
3 1192 1219 1218
3 1192 1220 1219
3 1192 1218 1191
3 1193 1221 1220
3 1193 1220 1192
3 1194 1221 1193
3 1195 1222 1221
3 1195 1223 1222
3 1195 1221 1194
3 1196 1223 1195
3 1197 1223 1196
3 1197 1224 1223
3 1198 1224 1197
3 1198 1225 1224
3 1198 1226 1225
3 1199 1226 1198
3 1200 1226 1199
3 1200 1227 1226
3 1201 1227 1200
3 1201 1228 1227
3 1202 1228 1201
3 1202 1229 1228
3 1203 1229 1202
3 1203 1230 1229
3 1204 1230 1203
3 1204 1231 1230
3 1205 1231 1204
3 1205 1232 1231
3 1206 1232 1205
3 1206 1233 1232
3 1207 1233 1206
3 1207 1234 1233
3 1208 1234 1207
3 1208 1235 1234
3 1208 1236 1235
3 1209 1236 1208
3 1210 1237 1236
3 1210 1236 1209
3 1211 1238 1237
3 1211 1237 1210
3 1265 1292 1266
3 1264 1291 1292
3 1264 1292 1265
3 1263 1290 1291
3 1263 1291 1264
3 1262 1289 1290
3 1262 1290 1263
3 1261 1288 1289
3 1261 1289 1262
3 1260 1287 1288
3 1260 1288 1261
3 1259 1286 1287
3 1259 1287 1260
3 1258 1285 1286
3 1258 1286 1259
3 1257 1285 1258
3 1256 1283 1284
3 1256 1284 1285
3 1256 1285 1257
3 1255 1282 1283
3 1255 1283 1256
3 1254 1281 1282
3 1254 1282 1255
3 1253 1281 1254
3 1253 1280 1281
3 1252 1280 1253
3 1252 1279 1280
3 1251 1279 1252
3 1250 1279 1251
3 1250 1278 1279
3 1249 1278 1250
3 1249 1277 1278
3 1248 1277 1249
3 1248 1276 1277
3 1247 1276 1248
3 1247 1275 1276
3 1246 1274 1275
3 1246 1275 1247
3 1245 1274 1246
3 1245 1273 1274
3 1244 1272 1273
3 1244 1273 1245
3 1243 1271 1272
3 1243 1272 1244
3 1242 1269 1270
3 1242 1270 1271
3 1242 1271 1243
3 1241 1268 1269
3 1241 1269 1242
3 1240 1268 1241
3 1239 1267 1268
3 1239 1268 1240
3 1294 1296 1295
3 1293 1296 1294
3 1297 1299 1298
3 1297 1300 1299
3 1301 1303 1302
3 1301 1304 1303
3 1313 1305 1306
3 1313 1306 1307
3 1314 1307 1308
3 1314 1308 1309
3 1314 1313 1307
3 1315 1314 1309
3 1311 1309 1310
3 1311 1315 1309
3 1312 1315 1311
3 1323 1325 1324
3 1323 1331 1325
3 1322 1330 1331
3 1322 1331 1323
3 1321 1329 1330
3 1321 1330 1322
3 1320 1328 1329
3 1320 1329 1321
3 1319 1327 1328
3 1319 1328 1320
3 1318 1326 1327
3 1318 1333 1326
3 1318 1327 1319
3 1316 1317 1332
3 1316 1332 1333
3 1316 1333 1318
3 1355 1357 1356
3 1355 1377 1357
3 1354 1376 1377
3 1354 1377 1355
3 1353 1375 1376
3 1353 1376 1354
3 1352 1374 1375
3 1352 1375 1353
3 1351 1373 1374
3 1351 1374 1352
3 1350 1372 1373
3 1350 1373 1351
3 1349 1371 1372
3 1349 1372 1350
3 1348 1370 1371
3 1348 1371 1349
3 1347 1368 1369
3 1347 1369 1370
3 1347 1370 1348
3 1346 1368 1347
3 1345 1366 1367
3 1345 1367 1368
3 1345 1368 1346
3 1344 1366 1345
3 1343 1365 1366
3 1343 1366 1344
3 1342 1365 1343
3 1342 1364 1365
3 1341 1364 1342
3 1341 1363 1364
3 1340 1363 1341
3 1340 1362 1363
3 1339 1362 1340
3 1339 1361 1362
3 1338 1361 1339
3 1338 1360 1361
3 1337 1360 1338
3 1337 1359 1360
3 1336 1359 1337
3 1336 1358 1359
3 1334 1335 1358
3 1334 1358 1336
3 1396 1403 1397
3 1395 1402 1403
3 1395 1403 1396
3 1394 1401 1402
3 1394 1402 1395
3 1393 1400 1401
3 1393 1401 1394
3 1392 1399 1400
3 1392 1400 1393
3 1391 1398 1399
3 1391 1399 1392
3 1390 1409 1398
3 1390 1398 1391
3 1389 1408 1409
3 1389 1409 1390
3 1388 1407 1408
3 1388 1408 1389
3 1387 1406 1407
3 1387 1407 1388
3 1386 1405 1406
3 1386 1406 1387
3 1385 1404 1405
3 1385 1405 1386
3 1384 1414 1404
3 1384 1404 1385
3 1383 1413 1414
3 1383 1414 1384
3 1382 1412 1413
3 1382 1413 1383
3 1381 1412 1382
3 1381 1411 1412
3 1380 1411 1381
3 1380 1410 1411
3 1378 1410 1380
3 1378 1379 1410
3 1491 1465 1415
3 1491 1466 1465
3 1491 1467 1466
3 1416 1491 1415
3 1469 1492 1468
3 1490 1491 1416
3 1417 1490 1416
3 1470 1492 1469
3 1470 1493 1492
3 1489 1490 1417
3 1418 1489 1417
3 1494 1493 1470
3 1471 1494 1470
3 1488 1489 1418
3 1419 1488 1418
3 1487 1488 1419
3 1420 1487 1419
3 1421 1487 1420
3 1421 1486 1487
3 1498 1497 1496
3 1499 1498 1496
3 1499 1495 1494
3 1499 1496 1495
3 1500 1499 1494
3 1500 1494 1471
3 1501 1500 1471
3 1501 1471 1472
3 1501 1472 1473
3 1502 1473 1474
3 1502 1501 1473
3 1503 1502 1474
3 1503 1474 1475
3 1504 1503 1475
3 1504 1475 1476
3 1550 1480 1481
3 1551 1480 1550
3 1551 1479 1480
3 1549 1550 1481
3 1549 1481 1482
3 1552 1479 1551
3 1552 1478 1479
3 1505 1504 1476
3 1548 1549 1482
3 1548 1482 1483
3 1553 1477 1478
3 1553 1478 1552
3 1547 1548 1483
3 1554 1477 1553
3 1546 1547 1483
3 1546 1483 1484
3 1555 1477 1554
3 1555 1476 1477
3 1545 1546 1484
3 1545 1484 1485
3 1556 1505 1476
3 1556 1476 1555
3 1556 1506 1505
3 1544 1485 1486
3 1544 1545 1485
3 1557 1506 1556
3 1543 1421 1422
3 1543 1422 1423
3 1543 1486 1421
3 1543 1544 1486
3 1558 1506 1557
3 1558 1507 1506
3 1542 1423 1424
3 1542 1424 1425
3 1542 1543 1423
3 1559 1507 1558
3 1559 1508 1507
3 1541 1425 1426
3 1541 1426 1427
3 1541 1542 1425
3 1560 1508 1559
3 1509 1508 1560
3 1540 1541 1427
3 1540 1427 1428
3 1561 1509 1560
3 1429 1540 1428
3 1539 1540 1429
3 1510 1509 1561
3 1562 1510 1561
3 1430 1539 1429
3 1511 1562 1563
3 1511 1510 1562
3 1512 1511 1563
3 1512 1563 1564
3 1565 1512 1564
3 1431 1538 1539
3 1431 1539 1430
3 1513 1512 1565
3 1513 1565 1524
3 1432 1538 1431
3 1514 1524 1525
3 1514 1513 1524
3 1515 1525 1526
3 1515 1514 1525
3 1433 1537 1538
3 1433 1538 1432
3 1434 1537 1433
3 1435 1536 1537
3 1435 1537 1434
3 1522 1521 1520
3 1436 1536 1435
3 1523 1522 1520
3 1464 1523 1520
3 1437 1535 1536
3 1437 1536 1436
3 1463 1520 1519
3 1463 1464 1520
3 1438 1535 1437
3 1462 1519 1518
3 1462 1463 1519
3 1439 1535 1438
3 1439 1534 1535
3 1461 1518 1517
3 1461 1462 1518
3 1440 1534 1439
3 1460 1517 1516
3 1460 1461 1517
3 1441 1534 1440
3 1459 1460 1516
3 1442 1534 1441
3 1442 1533 1534
3 1458 1516 1515
3 1458 1459 1516
3 1458 1515 1526
3 1443 1533 1442
3 1457 1458 1526
3 1444 1533 1443
3 1444 1532 1533
3 1456 1526 1527
3 1456 1457 1526
3 1445 1532 1444
3 1455 1456 1527
3 1446 1532 1445
3 1446 1531 1532
3 1454 1527 1528
3 1454 1455 1527
3 1447 1531 1446
3 1453 1454 1528
3 1448 1530 1531
3 1448 1531 1447
3 1452 1528 1529
3 1452 1453 1528
3 1449 1530 1448
3 1451 1452 1529
3 1450 1529 1530
3 1450 1530 1449
3 1450 1451 1529
3 1767 1626 1627
3 1767 1766 1626
3 1765 1625 1626
3 1765 1626 1766
3 1768 1627 1628
3 1768 1767 1627
3 1764 1625 1765
3 1769 1628 1629
3 1769 1768 1628
3 1763 1625 1764
3 1770 1629 1630
3 1770 1769 1629
3 1762 1625 1763
3 1771 1630 1631
3 1771 1770 1630
3 1761 1625 1762
3 1772 1631 1632
3 1772 1771 1631
3 1760 1625 1761
3 1773 1632 1633
3 1773 1772 1632
3 1759 1625 1760
3 1774 1633 1634
3 1774 1773 1633
3 1758 1625 1759
3 1775 1774 1634
3 1775 1634 1635
3 1776 1775 1635
3 1776 1635 1636
3 1777 1776 1636
3 1777 1636 1637
3 1778 1777 1637
3 1778 1637 1638
3 1639 1778 1638
3 1779 1778 1639
3 1640 1779 1639
3 1624 1625 1758
3 1624 1754 1753
3 1624 1755 1754
3 1624 1756 1755
3 1624 1757 1756
3 1624 1758 1757
3 1780 1779 1640
3 1752 1624 1753
3 1641 1780 1640
3 1781 1780 1641
3 1642 1781 1641
3 1782 1781 1642
3 1620 1624 1752
3 1620 1752 1751
3 1750 1620 1751
3 1783 1782 1642
3 1621 1620 1750
3 1749 1621 1750
3 1784 1783 1642
3 1622 1621 1749
3 1748 1622 1749
3 1623 1622 1748
3 1747 1623 1748
3 1571 1623 1747
3 1746 1571 1747
3 1572 1571 1746
3 1745 1572 1746
3 1744 1572 1745
3 1744 1573 1572
3 1574 1573 1744
3 1743 1574 1744
3 1575 1574 1743
3 1742 1575 1743
3 1576 1575 1742
3 1719 1643 1718
3 1717 1718 1643
3 1717 1643 1659
3 1720 1785 1784
3 1720 1643 1719
3 1720 1784 1642
3 1720 1642 1643
3 1716 1717 1659
3 1716 1659 1658
3 1721 1786 1785
3 1721 1785 1720
3 1715 1716 1658
3 1715 1658 1657
3 1722 1787 1786
3 1722 1786 1721
3 1714 1715 1657
3 1714 1656 1655
3 1714 1657 1656
3 1577 1576 1742
3 1577 1742 1741
3 1723 1787 1722
3 1723 1788 1787
3 1713 1655 1654
3 1713 1714 1655
3 1724 1788 1723
3 1724 1789 1788
3 1712 1713 1654
3 1712 1654 1653
3 1725 1789 1724
3 1711 1653 1652
3 1711 1712 1653
3 1662 1726 1789
3 1662 1727 1726
3 1662 1789 1725
3 1710 1711 1652
3 1710 1652 1651
3 1663 1727 1662
3 1709 1710 1651
3 1650 1709 1651
3 1664 1728 1727
3 1664 1729 1728
3 1664 1727 1663
3 1708 1709 1650
3 1649 1708 1650
3 1665 1729 1664
3 1707 1708 1649
3 1648 1707 1649
3 1666 1729 1665
3 1666 1730 1729
3 1816 1736 1735
3 1817 1735 1734
3 1817 1816 1735
3 1706 1707 1648
3 1815 1736 1816
3 1818 1817 1734
3 1818 1734 1733
3 1814 1736 1815
3 1814 1737 1736
3 1647 1706 1648
3 1819 1818 1733
3 1819 1733 1732
3 1813 1738 1737
3 1813 1737 1814
3 1820 1819 1732
3 1820 1732 1731
3 1812 1738 1813
3 1812 1739 1738
3 1705 1706 1647
3 1821 1820 1731
3 1821 1731 1730
3 1811 1739 1812
3 1811 1740 1739
3 1646 1705 1647
3 1822 1666 1667
3 1822 1730 1666
3 1822 1821 1730
3 1810 1740 1811
3 1810 1741 1740
3 1704 1705 1646
3 1823 1667 1668
3 1823 1822 1667
3 1645 1704 1646
3 1809 1578 1577
3 1809 1579 1578
3 1809 1577 1741
3 1809 1741 1810
3 1824 1668 1669
3 1824 1823 1668
3 1703 1704 1645
3 1808 1580 1579
3 1808 1581 1580
3 1808 1579 1809
3 1825 1824 1669
3 1644 1703 1645
3 1670 1825 1669
3 1807 1582 1581
3 1807 1583 1582
3 1807 1581 1808
3 1702 1703 1644
3 1826 1825 1670
3 1806 1584 1583
3 1806 1583 1807
3 1671 1826 1670
3 1827 1826 1671
3 1585 1584 1806
3 1701 1702 1644
3 1805 1585 1806
3 1672 1827 1671
3 1672 1828 1827
3 1660 1701 1644
3 1700 1701 1660
3 1829 1828 1672
3 1586 1585 1805
3 1673 1829 1672
3 1830 1829 1673
3 1699 1700 1660
3 1674 1830 1673
3 1674 1831 1830
3 1587 1586 1805
3 1587 1805 1804
3 1698 1699 1660
3 1675 1831 1674
3 1675 1790 1831
3 1588 1587 1804
3 1697 1698 1660
3 1676 1791 1790
3 1676 1790 1675
3 1696 1697 1660
3 1677 1792 1791
3 1677 1791 1676
3 1589 1804 1803
3 1589 1588 1804
3 1695 1696 1660
3 1694 1695 1660
3 1590 1589 1803
3 1591 1803 1802
3 1591 1590 1803
3 1592 1591 1802
3 1570 1682 1683
3 1569 1683 1684
3 1569 1570 1683
3 1568 1684 1685
3 1568 1569 1684
3 1567 1685 1686
3 1567 1568 1685
3 1593 1592 1802
3 1593 1802 1801
3 1566 1567 1686
3 1566 1686 1687
3 1566 1687 1688
3 1619 1682 1570
3 1619 1680 1681
3 1619 1681 1682
3 1594 1593 1801
3 1618 1680 1619
3 1595 1801 1800
3 1595 1594 1801
3 1617 1679 1680
3 1617 1680 1618
3 1661 1566 1688
3 1661 1688 1689
3 1661 1689 1690
3 1661 1690 1691
3 1661 1691 1692
3 1661 1692 1693
3 1661 1693 1694
3 1661 1694 1660
3 1596 1595 1800
3 1616 1678 1679
3 1616 1679 1617
3 1597 1596 1800
3 1615 1678 1616
3 1598 1800 1799
3 1598 1597 1800
3 1614 1677 1678
3 1614 1792 1677
3 1614 1678 1615
3 1599 1598 1799
3 1613 1792 1614
3 1600 1799 1798
3 1600 1599 1799
3 1612 1793 1792
3 1612 1792 1613
3 1601 1600 1798
3 1611 1793 1612
3 1602 1798 1797
3 1602 1601 1798
3 1610 1794 1793
3 1610 1793 1611
3 1603 1602 1797
3 1609 1794 1610
3 1604 1797 1796
3 1604 1603 1797
3 1608 1795 1794
3 1608 1794 1609
3 1605 1604 1796
3 1607 1795 1608
3 1606 1796 1795
3 1606 1605 1796
3 1606 1795 1607
