ply
format ascii 1.0
comment generated by blendit.inference.finetune_visualize
element vertex 126
property float x
property float y
property float z
property uchar red
property uchar green
property uchar blue
element face 84
property list uchar int vertex_indices
end_header
-65.5972287 25.4 15.875 218 222 230
-65.5972287 25.4 0 218 222 230
-65.5972287 22.86 15.875 218 222 230
-65.5972287 22.86 0 218 222 230
-65.5972287 22.86 15.875 218 222 230
-65.5972287 22.86 0 218 222 230
-85.2600927 22.86 15.875 218 222 230
-85.2600927 22.86 0 218 222 230
120.65 25.4 15.875 218 222 230
120.65 25.4 0 218 222 230
-65.5972287 25.4 15.875 218 222 230
-65.5972287 25.4 0 218 222 230
-113.03 -12.7 12.7 218 222 230
-113.03 -12.7 0 218 222 230
-88.9 -12.7 0 218 222 230
-88.9 -12.7 3.175 218 222 230
88.9 -12.7 3.175 218 222 230
88.9 -12.7 0 218 222 230
120.65 -12.7 0 218 222 230
120.65 -12.7 12.7 218 222 230
120.65 12.7 12.7 218 222 230
120.65 12.7 0 218 222 230
-113.03 12.7 12.7 218 222 230
-113.03 12.7 15.875 218 222 230
-119.38 12.7 15.875 218 222 230
-119.38 12.7 0 218 222 230
-88.9 12.7 0 218 222 230
-88.9 12.7 3.175 218 222 230
88.9 12.7 3.175 218 222 230
88.9 12.7 0 218 222 230
120.65 -25.4 0 218 222 230
104.14 -25.4 0 218 222 230
120.65 -25.4 15.875 218 222 230
104.14 -25.4 15.875 218 222 230
85.2600927 -22.86 15.875 218 222 230
85.2600927 -22.86 0 218 222 230
104.14 -25.4 15.875 218 222 230
104.14 -25.4 0 218 222 230
85.2600927 -22.86 0 218 222 230
60.8895607 -22.86 0 218 222 230
85.2600927 -22.86 15.875 218 222 230
60.8895607 -22.86 15.875 218 222 230
60.8895607 -25.4 15.875 218 222 230
60.8895607 -25.4 0 218 222 230
60.8895607 -22.86 15.875 218 222 230
60.8895607 -22.86 0 218 222 230
60.8895607 -25.4 15.875 218 222 230
60.8895607 -25.4 0 218 222 230
-113.03 -25.4 15.875 218 222 230
-113.03 -25.4 0 218 222 230
-88.9 12.7 3.175 218 222 230
-88.9 12.7 0 218 222 230
-88.9 -12.7 3.175 218 222 230
-88.9 -12.7 0 218 222 230
-104.14 25.4 15.875 218 222 230
-104.14 25.4 0 218 222 230
-119.38 25.4 15.875 218 222 230
-119.38 25.4 0 218 222 230
-85.2600927 22.86 15.875 218 222 230
-85.2600927 22.86 0 218 222 230
-104.14 25.4 15.875 218 222 230
-104.14 25.4 0 218 222 230
88.9 12.7 0 218 222 230
88.9 -12.7 0 218 222 230
88.9 12.7 3.175 218 222 230
88.9 -12.7 3.175 218 222 230
-113.03 -25.4 15.875 218 222 230
-113.03 -25.4 0 218 222 230
-113.03 -12.7 0 218 222 230
-113.03 -12.7 12.7 218 222 230
-113.03 12.7 12.7 218 222 230
-113.03 12.7 15.875 218 222 230
120.65 25.4 0 218 222 230
120.65 12.7 0 218 222 230
120.65 25.4 15.875 218 222 230
120.65 -25.4 15.875 218 222 230
120.65 -25.4 0 218 222 230
120.65 -12.7 0 218 222 230
120.65 -12.7 12.7 218 222 230
120.65 12.7 12.7 218 222 230
120.65 25.4 15.875 218 222 230
120.65 -25.4 15.875 218 222 230
-65.5972287 25.4 15.875 218 222 230
-65.5972287 22.86 15.875 218 222 230
-85.2600927 22.86 15.875 218 222 230
-104.14 25.4 15.875 218 222 230
-119.38 25.4 15.875 218 222 230
-119.38 12.7 15.875 218 222 230
-113.03 12.7 15.875 218 222 230
-113.03 -25.4 15.875 218 222 230
60.8895607 -25.4 15.875 218 222 230
60.8895607 -22.86 15.875 218 222 230
85.2600927 -22.86 15.875 218 222 230
104.14 -25.4 15.875 218 222 230
120.65 12.7 12.7 218 222 230
120.65 -12.7 12.7 218 222 230
-113.03 12.7 12.7 218 222 230
-113.03 -12.7 12.7 218 222 230
-119.38 12.7 15.875 218 222 230
-119.38 12.7 0 218 222 230
-119.38 25.4 15.875 218 222 230
-119.38 25.4 0 218 222 230
-88.9 12.7 0 218 222 230
-88.9 -12.7 0 218 222 230
-113.03 -12.7 0 218 222 230
-113.03 -25.4 0 218 222 230
60.8895607 -25.4 0 218 222 230
60.8895607 -22.86 0 218 222 230
85.2600927 -22.86 0 218 222 230
104.14 -25.4 0 218 222 230
120.65 -25.4 0 218 222 230
120.65 -12.7 0 218 222 230
88.9 -12.7 0 218 222 230
88.9 12.7 0 218 222 230
120.65 12.7 0 218 222 230
120.65 25.4 0 218 222 230
-65.5972287 25.4 0 218 222 230
-65.5972287 22.86 0 218 222 230
-85.2600927 22.86 0 218 222 230
-104.14 25.4 0 218 222 230
-119.38 25.4 0 218 222 230
-119.38 12.7 0 218 222 230
88.9 12.7 3.175 218 222 230
88.9 -12.7 3.175 218 222 230
-88.9 12.7 3.175 218 222 230
-88.9 -12.7 3.175 218 222 230
3 1 2 0
3 1 3 2
3 5 7 6
3 4 5 6
3 8 11 10
3 8 9 11
3 15 13 12
3 15 14 13
3 18 17 16
3 19 18 16
3 19 15 12
3 19 16 15
3 22 24 25
3 23 24 22
3 26 22 25
3 27 22 26
3 21 28 29
3 20 28 21
3 20 22 27
3 20 27 28
3 30 32 33
3 30 33 31
3 35 37 36
3 34 35 36
3 38 41 39
3 40 41 38
3 44 42 43
3 44 43 45
3 46 48 49
3 46 49 47
3 50 53 52
3 51 53 50
3 54 57 56
3 54 55 57
3 58 61 60
3 58 59 61
3 64 65 63
3 62 64 63
3 69 67 66
3 69 68 67
3 71 70 69
3 71 69 66
3 78 75 76
3 78 76 77
3 72 79 73
3 74 79 72
3 74 75 78
3 74 78 79
3 86 87 88
3 85 86 88
3 84 88 89
3 84 85 88
3 83 84 89
3 90 83 89
3 91 82 83
3 91 83 90
3 80 91 92
3 80 92 93
3 80 93 81
3 80 82 91
3 94 97 96
3 94 95 97
3 98 100 101
3 98 101 99
3 103 105 104
3 119 121 120
3 102 121 119
3 118 102 119
3 117 103 102
3 117 102 118
3 106 105 103
3 106 103 117
3 107 117 116
3 107 106 117
3 112 108 107
3 109 108 112
3 113 107 116
3 113 112 107
3 111 110 109
3 111 109 112
3 115 114 113
3 115 113 116
3 122 124 125
3 122 125 123
