ply
format ascii 1.0
comment generated by blendit.inference.finetune_visualize
element vertex 968
property float x
property float y
property float z
property uchar red
property uchar green
property uchar blue
element face 924
property list uchar int vertex_indices
end_header
-26.3812641 10.3266 1.5 218 222 230
-26.3812641 10.3266 0 218 222 230
-26.3812641 -10.6734 1.5 218 222 230
-26.3812641 -10.6734 0 218 222 230
-26.3812641 -10.6734 1.5 218 222 230
-26.3812641 -10.6734 0 218 222 230
26.6187359 -10.6734 1.5 218 222 230
26.6187359 -10.6734 0 218 222 230
26.6187359 10.3266 0 218 222 230
26.6187359 -10.6734 0 218 222 230
26.6187359 10.3266 1.5 218 222 230
26.6187359 -10.6734 1.5 218 222 230
-26.3812641 10.3266 0 218 222 230
26.6187359 10.3266 0 218 222 230
-26.3812641 10.3266 1.5 218 222 230
26.6187359 10.3266 1.5 218 222 230
-26.3812641 -10.6734 0 218 222 230
26.6187359 -10.6734 0 218 222 230
26.6187359 10.3266 0 218 222 230
-26.3812641 10.3266 0 218 222 230
-21.8812641 7.32660001 0 218 222 230
-21.9248514 7.68557351 0 218 222 230
-22.0530801 8.02368477 0 218 222 230
-22.258498 8.321284 0 218 222 230
-22.529167 8.56107581 0 218 222 230
-22.8493568 8.72912438 0 218 222 230
-23.2004591 8.81566332 0 218 222 230
-23.5620692 8.81566332 0 218 222 230
-23.9131715 8.72912438 0 218 222 230
-24.2333613 8.56107581 0 218 222 230
-24.5040303 8.321284 0 218 222 230
-24.7094482 8.02368477 0 218 222 230
-24.8376769 7.68557351 0 218 222 230
-24.8812641 7.32660001 0 218 222 230
-24.8376769 6.96762652 0 218 222 230
-24.7094482 6.62951525 0 218 222 230
-24.5040303 6.33191602 0 218 222 230
-24.2333613 6.09212421 0 218 222 230
-23.9131715 5.92407565 0 218 222 230
-23.5620692 5.8375367 0 218 222 230
-23.2004591 5.8375367 0 218 222 230
-22.8493568 5.92407565 0 218 222 230
-22.529167 6.09212421 0 218 222 230
-22.258498 6.33191602 0 218 222 230
-22.0530801 6.62951525 0 218 222 230
-21.9248514 6.96762652 0 218 222 230
-21.8812641 -7.67339999 0 218 222 230
-21.9248514 -7.31442649 0 218 222 230
-22.0530801 -6.97631523 0 218 222 230
-22.258498 -6.678716 0 218 222 230
-22.529167 -6.43892419 0 218 222 230
-22.8493568 -6.27087562 0 218 222 230
-23.2004591 -6.18433668 0 218 222 230
-23.5620692 -6.18433668 0 218 222 230
-23.9131715 -6.27087562 0 218 222 230
-24.2333613 -6.43892419 0 218 222 230
-24.5040303 -6.678716 0 218 222 230
-24.7094482 -6.97631523 0 218 222 230
-24.8376769 -7.31442649 0 218 222 230
-24.8812641 -7.67339999 0 218 222 230
-24.8376769 -8.03237348 0 218 222 230
-24.7094482 -8.37048475 0 218 222 230
-24.5040303 -8.66808398 0 218 222 230
-24.2333613 -8.90787579 0 218 222 230
-23.9131715 -9.07592435 0 218 222 230
-23.5620692 -9.1624633 0 218 222 230
-23.2004591 -9.1624633 0 218 222 230
-22.8493568 -9.07592435 0 218 222 230
-22.529167 -8.90787579 0 218 222 230
-22.258498 -8.66808398 0 218 222 230
-22.0530801 -8.37048475 0 218 222 230
-21.9248514 -8.03237348 0 218 222 230
25.1187359 7.32660001 0 218 222 230
25.0751486 7.68557351 0 218 222 230
24.9469199 8.02368477 0 218 222 230
24.741502 8.321284 0 218 222 230
24.470833 8.56107581 0 218 222 230
24.1506432 8.72912438 0 218 222 230
23.7995409 8.81566332 0 218 222 230
23.4379308 8.81566332 0 218 222 230
23.0868285 8.72912438 0 218 222 230
22.7666387 8.56107581 0 218 222 230
22.4959697 8.321284 0 218 222 230
22.2905518 8.02368477 0 218 222 230
22.1623231 7.68557351 0 218 222 230
22.1187359 7.32660001 0 218 222 230
22.1623231 6.96762652 0 218 222 230
22.2905518 6.62951525 0 218 222 230
22.4959697 6.33191602 0 218 222 230
22.7666387 6.09212421 0 218 222 230
23.0868285 5.92407565 0 218 222 230
23.4379308 5.8375367 0 218 222 230
23.7995409 5.8375367 0 218 222 230
24.1506432 5.92407565 0 218 222 230
24.470833 6.09212421 0 218 222 230
24.741502 6.33191602 0 218 222 230
24.9469199 6.62951525 0 218 222 230
25.0751486 6.96762652 0 218 222 230
25.1187359 -7.67339999 0 218 222 230
25.0751486 -7.31442649 0 218 222 230
24.9469199 -6.97631523 0 218 222 230
24.741502 -6.678716 0 218 222 230
24.470833 -6.43892419 0 218 222 230
24.1506432 -6.27087562 0 218 222 230
23.7995409 -6.18433668 0 218 222 230
23.4379308 -6.18433668 0 218 222 230
23.0868285 -6.27087562 0 218 222 230
22.7666387 -6.43892419 0 218 222 230
22.4959697 -6.678716 0 218 222 230
22.2905518 -6.97631523 0 218 222 230
22.1623231 -7.31442649 0 218 222 230
22.1187359 -7.67339999 0 218 222 230
22.1623231 -8.03237348 0 218 222 230
22.2905518 -8.37048475 0 218 222 230
22.4959697 -8.66808398 0 218 222 230
22.7666387 -8.90787579 0 218 222 230
23.0868285 -9.07592435 0 218 222 230
23.4379308 -9.1624633 0 218 222 230
23.7995409 -9.1624633 0 218 222 230
24.1506432 -9.07592435 0 218 222 230
24.470833 -8.90787579 0 218 222 230
24.741502 -8.66808398 0 218 222 230
24.9469199 -8.37048475 0 218 222 230
25.0751486 -8.03237348 0 218 222 230
-26.3812641 10.3266 1.5 218 222 230
-26.3812641 -10.6734 1.5 218 222 230
26.6187359 -10.6734 1.5 218 222 230
26.6187359 10.3266 1.5 218 222 230
19.9992955 7.32660001 1.5 218 222 230
5.01435716 7.32660001 1.5 218 222 230
19.9992955 -7.67339999 1.5 218 222 230
5.01435716 -7.67339999 1.5 218 222 230
-20.0604349 -7.67339999 1.5 218 222 230
-4.97559924 -7.67339999 1.5 218 222 230
-20.0604349 7.32660001 1.5 218 222 230
-4.97559924 7.32660001 1.5 218 222 230
26.1187359 7.32660001 1.5 218 222 230
26.0460904 7.92488917 1.5 218 222 230
25.8323759 8.48840794 1.5 218 222 230
25.4900127 8.98440666 1.5 218 222 230
25.0388977 9.38405968 1.5 218 222 230
24.5052481 9.66414062 1.5 218 222 230
23.9200776 9.8083722 1.5 218 222 230
23.3173942 9.8083722 1.5 218 222 230
22.7322236 9.66414062 1.5 218 222 230
22.198574 9.38405968 1.5 218 222 230
21.747459 8.98440666 1.5 218 222 230
21.4050958 8.48840794 1.5 218 222 230
21.1913813 7.92488917 1.5 218 222 230
21.1187359 7.32660001 1.5 218 222 230
21.1913813 6.72831085 1.5 218 222 230
21.4050958 6.16479208 1.5 218 222 230
21.747459 5.66879337 1.5 218 222 230
22.198574 5.26914035 1.5 218 222 230
22.7322236 4.9890594 1.5 218 222 230
23.3173942 4.84482783 1.5 218 222 230
23.9200776 4.84482783 1.5 218 222 230
24.5052481 4.9890594 1.5 218 222 230
25.0388977 5.26914035 1.5 218 222 230
25.4900127 5.66879337 1.5 218 222 230
25.8323759 6.16479208 1.5 218 222 230
26.0460904 6.72831085 1.5 218 222 230
26.1187359 -7.67339999 1.5 218 222 230
26.0460904 -7.07511083 1.5 218 222 230
25.8323759 -6.51159206 1.5 218 222 230
25.4900127 -6.01559334 1.5 218 222 230
25.0388977 -5.61594032 1.5 218 222 230
24.5052481 -5.33585938 1.5 218 222 230
23.9200776 -5.1916278 1.5 218 222 230
23.3173942 -5.1916278 1.5 218 222 230
22.7322236 -5.33585938 1.5 218 222 230
22.198574 -5.61594032 1.5 218 222 230
21.747459 -6.01559334 1.5 218 222 230
21.4050958 -6.51159206 1.5 218 222 230
21.1913813 -7.07511083 1.5 218 222 230
21.1187359 -7.67339999 1.5 218 222 230
21.1913813 -8.27168915 1.5 218 222 230
21.4050958 -8.83520792 1.5 218 222 230
21.747459 -9.33120663 1.5 218 222 230
22.198574 -9.73085965 1.5 218 222 230
22.7322236 -10.0109406 1.5 218 222 230
23.3173942 -10.1551722 1.5 218 222 230
23.9200776 -10.1551722 1.5 218 222 230
24.5052481 -10.0109406 1.5 218 222 230
25.0388977 -9.73085965 1.5 218 222 230
25.4900127 -9.33120663 1.5 218 222 230
25.8323759 -8.83520792 1.5 218 222 230
26.0460904 -8.27168915 1.5 218 222 230
-20.8812641 -7.67339999 1.5 218 222 230
-20.9539096 -7.07511083 1.5 218 222 230
-21.1676241 -6.51159206 1.5 218 222 230
-21.5099873 -6.01559334 1.5 218 222 230
-21.9611023 -5.61594032 1.5 218 222 230
-22.4947519 -5.33585938 1.5 218 222 230
-23.0799224 -5.1916278 1.5 218 222 230
-23.6826058 -5.1916278 1.5 218 222 230
-24.2677764 -5.33585938 1.5 218 222 230
-24.801426 -5.61594032 1.5 218 222 230
-25.252541 -6.01559334 1.5 218 222 230
-25.5949042 -6.51159206 1.5 218 222 230
-25.8086187 -7.07511083 1.5 218 222 230
-25.8812641 -7.67339999 1.5 218 222 230
-25.8086187 -8.27168915 1.5 218 222 230
-25.5949042 -8.83520792 1.5 218 222 230
-25.252541 -9.33120663 1.5 218 222 230
-24.801426 -9.73085965 1.5 218 222 230
-24.2677764 -10.0109406 1.5 218 222 230
-23.6826058 -10.1551722 1.5 218 222 230
-23.0799224 -10.1551722 1.5 218 222 230
-22.4947519 -10.0109406 1.5 218 222 230
-21.9611023 -9.73085965 1.5 218 222 230
-21.5099873 -9.33120663 1.5 218 222 230
-21.1676241 -8.83520792 1.5 218 222 230
-20.9539096 -8.27168915 1.5 218 222 230
-20.8812641 7.32660001 1.5 218 222 230
-20.9539096 7.92488917 1.5 218 222 230
-21.1676241 8.48840794 1.5 218 222 230
-21.5099873 8.98440666 1.5 218 222 230
-21.9611023 9.38405968 1.5 218 222 230
-22.4947519 9.66414062 1.5 218 222 230
-23.0799224 9.8083722 1.5 218 222 230
-23.6826058 9.8083722 1.5 218 222 230
-24.2677764 9.66414062 1.5 218 222 230
-24.801426 9.38405968 1.5 218 222 230
-25.252541 8.98440666 1.5 218 222 230
-25.5949042 8.48840794 1.5 218 222 230
-25.8086187 7.92488917 1.5 218 222 230
-25.8812641 7.32660001 1.5 218 222 230
-25.8086187 6.72831085 1.5 218 222 230
-25.5949042 6.16479208 1.5 218 222 230
-25.252541 5.66879337 1.5 218 222 230
-24.801426 5.26914035 1.5 218 222 230
-24.2677764 4.9890594 1.5 218 222 230
-23.6826058 4.84482783 1.5 218 222 230
-23.0799224 4.84482783 1.5 218 222 230
-22.4947519 4.9890594 1.5 218 222 230
-21.9611023 5.26914035 1.5 218 222 230
-21.5099873 5.66879337 1.5 218 222 230
-21.1676241 6.16479208 1.5 218 222 230
-20.9539096 6.72831085 1.5 218 222 230
-20.0604349 7.32660001 5 218 222 230
-20.0604349 7.32660001 1.5 218 222 230
-20.0604349 -7.67339999 1.5 218 222 230
-20.0604349 -7.67339999 5 218 222 230
-4.97559924 7.32660001 5 218 222 230
-4.97559924 7.32660001 1.5 218 222 230
-20.0604349 7.32660001 5 218 222 230
-20.0604349 7.32660001 1.5 218 222 230
-4.97559924 -7.67339999 5 218 222 230
-4.97559924 -7.67339999 1.5 218 222 230
-4.97559924 7.32660001 5 218 222 230
-4.97559924 7.32660001 1.5 218 222 230
-20.0604349 -7.67339999 5 218 222 230
-20.0604349 -7.67339999 1.5 218 222 230
-4.97559924 -7.67339999 1.5 218 222 230
-4.97559924 -7.67339999 5 218 222 230
-6 -6.73235394 5 218 222 230
-6 -6.73235394 1.5 218 222 230
-19 -6.73235394 1.5 218 222 230
-19 -6.73235394 5 218 222 230
-6 6.26764606 5 218 222 230
-6 6.26764606 1.5 218 222 230
-6 -6.73235394 5 218 222 230
-6 -6.73235394 1.5 218 222 230
-19 6.26764606 5 218 222 230
-19 6.26764606 1.5 218 222 230
-6 6.26764606 5 218 222 230
-6 6.26764606 1.5 218 222 230
-19 -6.73235394 5 218 222 230
-19 -6.73235394 1.5 218 222 230
-19 6.26764606 1.5 218 222 230
-19 6.26764606 5 218 222 230
-4.97559924 -7.67339999 5 218 222 230
-20.0604349 -7.67339999 5 218 222 230
-4.97559924 7.32660001 5 218 222 230
-20.0604349 7.32660001 5 218 222 230
-19 6.26764606 5 218 222 230
-19 -6.73235394 5 218 222 230
-6 6.26764606 5 218 222 230
-6 -6.73235394 5 218 222 230
6 -6.63245516 5 218 222 230
6 -6.63245516 1.5 218 222 230
6 6.36754484 1.5 218 222 230
6 6.36754484 5 218 222 230
6 6.36754484 5 218 222 230
6 6.36754484 1.5 218 222 230
19 6.36754484 5 218 222 230
19 6.36754484 1.5 218 222 230
19 6.36754484 5 218 222 230
19 6.36754484 1.5 218 222 230
19 -6.63245516 5 218 222 230
19 -6.63245516 1.5 218 222 230
19 -6.63245516 5 218 222 230
19 -6.63245516 1.5 218 222 230
6 -6.63245516 1.5 218 222 230
6 -6.63245516 5 218 222 230
19.9992955 7.32660001 5 218 222 230
19.9992955 7.32660001 1.5 218 222 230
5.01435716 7.32660001 1.5 218 222 230
5.01435716 7.32660001 5 218 222 230
5.01435716 7.32660001 5 218 222 230
5.01435716 7.32660001 1.5 218 222 230
5.01435716 -7.67339999 5 218 222 230
5.01435716 -7.67339999 1.5 218 222 230
5.01435716 -7.67339999 5 218 222 230
5.01435716 -7.67339999 1.5 218 222 230
19.9992955 -7.67339999 5 218 222 230
19.9992955 -7.67339999 1.5 218 222 230
19.9992955 -7.67339999 5 218 222 230
19.9992955 -7.67339999 1.5 218 222 230
19.9992955 7.32660001 1.5 218 222 230
19.9992955 7.32660001 5 218 222 230
5.01435716 7.32660001 5 218 222 230
19.9992955 7.32660001 5 218 222 230
5.01435716 -7.67339999 5 218 222 230
19.9992955 -7.67339999 5 218 222 230
6 6.36754484 5 218 222 230
6 -6.63245516 5 218 222 230
19 6.36754484 5 218 222 230
19 -6.63245516 5 218 222 230
-20.8812641 7.32660001 5 218 222 230
-20.9539096 7.92488917 5 218 222 230
-21.1676241 8.48840794 5 218 222 230
-21.5099873 8.98440666 5 218 222 230
-21.9611023 9.38405968 5 218 222 230
-22.4947519 9.66414062 5 218 222 230
-23.0799224 9.8083722 5 218 222 230
-23.6826058 9.8083722 5 218 222 230
-24.2677764 9.66414062 5 218 222 230
-24.801426 9.38405968 5 218 222 230
-25.252541 8.98440666 5 218 222 230
-25.5949042 8.48840794 5 218 222 230
-25.8086187 7.92488917 5 218 222 230
-25.8812641 7.32660001 5 218 222 230
-25.8086187 6.72831085 5 218 222 230
-25.5949042 6.16479208 5 218 222 230
-25.252541 5.66879337 5 218 222 230
-24.801426 5.26914035 5 218 222 230
-24.2677764 4.9890594 5 218 222 230
-23.6826058 4.84482783 5 218 222 230
-23.0799224 4.84482783 5 218 222 230
-22.4947519 4.9890594 5 218 222 230
-21.9611023 5.26914035 5 218 222 230
-21.5099873 5.66879337 5 218 222 230
-21.1676241 6.16479208 5 218 222 230
-20.9539096 6.72831085 5 218 222 230
-20.8812641 7.32660001 5 218 222 230
-20.8812641 7.32660001 1.5 218 222 230
-20.9539096 7.92488917 1.5 218 222 230
-21.1676241 8.48840794 1.5 218 222 230
-21.5099873 8.98440666 1.5 218 222 230
-21.9611023 9.38405968 1.5 218 222 230
-22.4947519 9.66414062 1.5 218 222 230
-23.0799224 9.8083722 1.5 218 222 230
-23.6826058 9.8083722 1.5 218 222 230
-24.2677764 9.66414062 1.5 218 222 230
-24.801426 9.38405968 1.5 218 222 230
-25.252541 8.98440666 1.5 218 222 230
-25.5949042 8.48840794 1.5 218 222 230
-25.8086187 7.92488917 1.5 218 222 230
-25.8812641 7.32660001 1.5 218 222 230
-25.8086187 6.72831085 1.5 218 222 230
-25.5949042 6.16479208 1.5 218 222 230
-25.252541 5.66879337 1.5 218 222 230
-24.801426 5.26914035 1.5 218 222 230
-24.2677764 4.9890594 1.5 218 222 230
-23.6826058 4.84482783 1.5 218 222 230
-23.0799224 4.84482783 1.5 218 222 230
-22.4947519 4.9890594 1.5 218 222 230
-21.9611023 5.26914035 1.5 218 222 230
-21.5099873 5.66879337 1.5 218 222 230
-21.1676241 6.16479208 1.5 218 222 230
-20.9539096 6.72831085 1.5 218 222 230
-20.8812641 7.32660001 1.5 218 222 230
-21.8812641 7.32660001 5 218 222 230
-21.9248514 7.68557351 5 218 222 230
-22.0530801 8.02368477 5 218 222 230
-22.258498 8.321284 5 218 222 230
-22.529167 8.56107581 5 218 222 230
-22.8493568 8.72912438 5 218 222 230
-23.2004591 8.81566332 5 218 222 230
-23.5620692 8.81566332 5 218 222 230
-23.9131715 8.72912438 5 218 222 230
-24.2333613 8.56107581 5 218 222 230
-24.5040303 8.321284 5 218 222 230
-24.7094482 8.02368477 5 218 222 230
-24.8376769 7.68557351 5 218 222 230
-24.8812641 7.32660001 5 218 222 230
-24.8376769 6.96762652 5 218 222 230
-24.7094482 6.62951525 5 218 222 230
-24.5040303 6.33191602 5 218 222 230
-24.2333613 6.09212421 5 218 222 230
-23.9131715 5.92407565 5 218 222 230
-23.5620692 5.8375367 5 218 222 230
-23.2004591 5.8375367 5 218 222 230
-22.8493568 5.92407565 5 218 222 230
-22.529167 6.09212421 5 218 222 230
-22.258498 6.33191602 5 218 222 230
-22.0530801 6.62951525 5 218 222 230
-21.9248514 6.96762652 5 218 222 230
-21.8812641 7.32660001 5 218 222 230
-21.8812641 7.32660001 0 218 222 230
-21.9248514 7.68557351 0 218 222 230
-22.0530801 8.02368477 0 218 222 230
-22.258498 8.321284 0 218 222 230
-22.529167 8.56107581 0 218 222 230
-22.8493568 8.72912438 0 218 222 230
-23.2004591 8.81566332 0 218 222 230
-23.5620692 8.81566332 0 218 222 230
-23.9131715 8.72912438 0 218 222 230
-24.2333613 8.56107581 0 218 222 230
-24.5040303 8.321284 0 218 222 230
-24.7094482 8.02368477 0 218 222 230
-24.8376769 7.68557351 0 218 222 230
-24.8812641 7.32660001 0 218 222 230
-24.8376769 6.96762652 0 218 222 230
-24.7094482 6.62951525 0 218 222 230
-24.5040303 6.33191602 0 218 222 230
-24.2333613 6.09212421 0 218 222 230
-23.9131715 5.92407565 0 218 222 230
-23.5620692 5.8375367 0 218 222 230
-23.2004591 5.8375367 0 218 222 230
-22.8493568 5.92407565 0 218 222 230
-22.529167 6.09212421 0 218 222 230
-22.258498 6.33191602 0 218 222 230
-22.0530801 6.62951525 0 218 222 230
-21.9248514 6.96762652 0 218 222 230
-21.8812641 7.32660001 0 218 222 230
-20.8812641 7.32660001 5 218 222 230
-20.9539096 7.92488917 5 218 222 230
-21.1676241 8.48840794 5 218 222 230
-21.5099873 8.98440666 5 218 222 230
-21.9611023 9.38405968 5 218 222 230
-22.4947519 9.66414062 5 218 222 230
-23.0799224 9.8083722 5 218 222 230
-23.6826058 9.8083722 5 218 222 230
-24.2677764 9.66414062 5 218 222 230
-24.801426 9.38405968 5 218 222 230
-25.252541 8.98440666 5 218 222 230
-25.5949042 8.48840794 5 218 222 230
-25.8086187 7.92488917 5 218 222 230
-25.8812641 7.32660001 5 218 222 230
-25.8086187 6.72831085 5 218 222 230
-25.5949042 6.16479208 5 218 222 230
-25.252541 5.66879337 5 218 222 230
-24.801426 5.26914035 5 218 222 230
-24.2677764 4.9890594 5 218 222 230
-23.6826058 4.84482783 5 218 222 230
-23.0799224 4.84482783 5 218 222 230
-22.4947519 4.9890594 5 218 222 230
-21.9611023 5.26914035 5 218 222 230
-21.5099873 5.66879337 5 218 222 230
-21.1676241 6.16479208 5 218 222 230
-20.9539096 6.72831085 5 218 222 230
-21.8812641 7.32660001 5 218 222 230
-21.9248514 7.68557351 5 218 222 230
-22.0530801 8.02368477 5 218 222 230
-22.258498 8.321284 5 218 222 230
-22.529167 8.56107581 5 218 222 230
-22.8493568 8.72912438 5 218 222 230
-23.2004591 8.81566332 5 218 222 230
-23.5620692 8.81566332 5 218 222 230
-23.9131715 8.72912438 5 218 222 230
-24.2333613 8.56107581 5 218 222 230
-24.5040303 8.321284 5 218 222 230
-24.7094482 8.02368477 5 218 222 230
-24.8376769 7.68557351 5 218 222 230
-24.8812641 7.32660001 5 218 222 230
-24.8376769 6.96762652 5 218 222 230
-24.7094482 6.62951525 5 218 222 230
-24.5040303 6.33191602 5 218 222 230
-24.2333613 6.09212421 5 218 222 230
-23.9131715 5.92407565 5 218 222 230
-23.5620692 5.8375367 5 218 222 230
-23.2004591 5.8375367 5 218 222 230
-22.8493568 5.92407565 5 218 222 230
-22.529167 6.09212421 5 218 222 230
-22.258498 6.33191602 5 218 222 230
-22.0530801 6.62951525 5 218 222 230
-21.9248514 6.96762652 5 218 222 230
-21.8812641 -7.67339999 5 218 222 230
-21.9248514 -7.31442649 5 218 222 230
-22.0530801 -6.97631523 5 218 222 230
-22.258498 -6.678716 5 218 222 230
-22.529167 -6.43892419 5 218 222 230
-22.8493568 -6.27087562 5 218 222 230
-23.2004591 -6.18433668 5 218 222 230
-23.5620692 -6.18433668 5 218 222 230
-23.9131715 -6.27087562 5 218 222 230
-24.2333613 -6.43892419 5 218 222 230
-24.5040303 -6.678716 5 218 222 230
-24.7094482 -6.97631523 5 218 222 230
-24.8376769 -7.31442649 5 218 222 230
-24.8812641 -7.67339999 5 218 222 230
-24.8376769 -8.03237348 5 218 222 230
-24.7094482 -8.37048475 5 218 222 230
-24.5040303 -8.66808398 5 218 222 230
-24.2333613 -8.90787579 5 218 222 230
-23.9131715 -9.07592435 5 218 222 230
-23.5620692 -9.1624633 5 218 222 230
-23.2004591 -9.1624633 5 218 222 230
-22.8493568 -9.07592435 5 218 222 230
-22.529167 -8.90787579 5 218 222 230
-22.258498 -8.66808398 5 218 222 230
-22.0530801 -8.37048475 5 218 222 230
-21.9248514 -8.03237348 5 218 222 230
-21.8812641 -7.67339999 5 218 222 230
-21.8812641 -7.67339999 0 218 222 230
-21.9248514 -7.31442649 0 218 222 230
-22.0530801 -6.97631523 0 218 222 230
-22.258498 -6.678716 0 218 222 230
-22.529167 -6.43892419 0 218 222 230
-22.8493568 -6.27087562 0 218 222 230
-23.2004591 -6.18433668 0 218 222 230
-23.5620692 -6.18433668 0 218 222 230
-23.9131715 -6.27087562 0 218 222 230
-24.2333613 -6.43892419 0 218 222 230
-24.5040303 -6.678716 0 218 222 230
-24.7094482 -6.97631523 0 218 222 230
-24.8376769 -7.31442649 0 218 222 230
-24.8812641 -7.67339999 0 218 222 230
-24.8376769 -8.03237348 0 218 222 230
-24.7094482 -8.37048475 0 218 222 230
-24.5040303 -8.66808398 0 218 222 230
-24.2333613 -8.90787579 0 218 222 230
-23.9131715 -9.07592435 0 218 222 230
-23.5620692 -9.1624633 0 218 222 230
-23.2004591 -9.1624633 0 218 222 230
-22.8493568 -9.07592435 0 218 222 230
-22.529167 -8.90787579 0 218 222 230
-22.258498 -8.66808398 0 218 222 230
-22.0530801 -8.37048475 0 218 222 230
-21.9248514 -8.03237348 0 218 222 230
-21.8812641 -7.67339999 0 218 222 230
-20.8812641 -7.67339999 5 218 222 230
-20.9539096 -7.07511083 5 218 222 230
-21.1676241 -6.51159206 5 218 222 230
-21.5099873 -6.01559334 5 218 222 230
-21.9611023 -5.61594032 5 218 222 230
-22.4947519 -5.33585938 5 218 222 230
-23.0799224 -5.1916278 5 218 222 230
-23.6826058 -5.1916278 5 218 222 230
-24.2677764 -5.33585938 5 218 222 230
-24.801426 -5.61594032 5 218 222 230
-25.252541 -6.01559334 5 218 222 230
-25.5949042 -6.51159206 5 218 222 230
-25.8086187 -7.07511083 5 218 222 230
-25.8812641 -7.67339999 5 218 222 230
-25.8086187 -8.27168915 5 218 222 230
-25.5949042 -8.83520792 5 218 222 230
-25.252541 -9.33120663 5 218 222 230
-24.801426 -9.73085965 5 218 222 230
-24.2677764 -10.0109406 5 218 222 230
-23.6826058 -10.1551722 5 218 222 230
-23.0799224 -10.1551722 5 218 222 230
-22.4947519 -10.0109406 5 218 222 230
-21.9611023 -9.73085965 5 218 222 230
-21.5099873 -9.33120663 5 218 222 230
-21.1676241 -8.83520792 5 218 222 230
-20.9539096 -8.27168915 5 218 222 230
-20.8812641 -7.67339999 5 218 222 230
-20.8812641 -7.67339999 1.5 218 222 230
-20.9539096 -7.07511083 1.5 218 222 230
-21.1676241 -6.51159206 1.5 218 222 230
-21.5099873 -6.01559334 1.5 218 222 230
-21.9611023 -5.61594032 1.5 218 222 230
-22.4947519 -5.33585938 1.5 218 222 230
-23.0799224 -5.1916278 1.5 218 222 230
-23.6826058 -5.1916278 1.5 218 222 230
-24.2677764 -5.33585938 1.5 218 222 230
-24.801426 -5.61594032 1.5 218 222 230
-25.252541 -6.01559334 1.5 218 222 230
-25.5949042 -6.51159206 1.5 218 222 230
-25.8086187 -7.07511083 1.5 218 222 230
-25.8812641 -7.67339999 1.5 218 222 230
-25.8086187 -8.27168915 1.5 218 222 230
-25.5949042 -8.83520792 1.5 218 222 230
-25.252541 -9.33120663 1.5 218 222 230
-24.801426 -9.73085965 1.5 218 222 230
-24.2677764 -10.0109406 1.5 218 222 230
-23.6826058 -10.1551722 1.5 218 222 230
-23.0799224 -10.1551722 1.5 218 222 230
-22.4947519 -10.0109406 1.5 218 222 230
-21.9611023 -9.73085965 1.5 218 222 230
-21.5099873 -9.33120663 1.5 218 222 230
-21.1676241 -8.83520792 1.5 218 222 230
-20.9539096 -8.27168915 1.5 218 222 230
-20.8812641 -7.67339999 1.5 218 222 230
-20.8812641 -7.67339999 5 218 222 230
-20.9539096 -7.07511083 5 218 222 230
-21.1676241 -6.51159206 5 218 222 230
-21.5099873 -6.01559334 5 218 222 230
-21.9611023 -5.61594032 5 218 222 230
-22.4947519 -5.33585938 5 218 222 230
-23.0799224 -5.1916278 5 218 222 230
-23.6826058 -5.1916278 5 218 222 230
-24.2677764 -5.33585938 5 218 222 230
-24.801426 -5.61594032 5 218 222 230
-25.252541 -6.01559334 5 218 222 230
-25.5949042 -6.51159206 5 218 222 230
-25.8086187 -7.07511083 5 218 222 230
-25.8812641 -7.67339999 5 218 222 230
-25.8086187 -8.27168915 5 218 222 230
-25.5949042 -8.83520792 5 218 222 230
-25.252541 -9.33120663 5 218 222 230
-24.801426 -9.73085965 5 218 222 230
-24.2677764 -10.0109406 5 218 222 230
-23.6826058 -10.1551722 5 218 222 230
-23.0799224 -10.1551722 5 218 222 230
-22.4947519 -10.0109406 5 218 222 230
-21.9611023 -9.73085965 5 218 222 230
-21.5099873 -9.33120663 5 218 222 230
-21.1676241 -8.83520792 5 218 222 230
-20.9539096 -8.27168915 5 218 222 230
-21.8812641 -7.67339999 5 218 222 230
-21.9248514 -7.31442649 5 218 222 230
-22.0530801 -6.97631523 5 218 222 230
-22.258498 -6.678716 5 218 222 230
-22.529167 -6.43892419 5 218 222 230
-22.8493568 -6.27087562 5 218 222 230
-23.2004591 -6.18433668 5 218 222 230
-23.5620692 -6.18433668 5 218 222 230
-23.9131715 -6.27087562 5 218 222 230
-24.2333613 -6.43892419 5 218 222 230
-24.5040303 -6.678716 5 218 222 230
-24.7094482 -6.97631523 5 218 222 230
-24.8376769 -7.31442649 5 218 222 230
-24.8812641 -7.67339999 5 218 222 230
-24.8376769 -8.03237348 5 218 222 230
-24.7094482 -8.37048475 5 218 222 230
-24.5040303 -8.66808398 5 218 222 230
-24.2333613 -8.90787579 5 218 222 230
-23.9131715 -9.07592435 5 218 222 230
-23.5620692 -9.1624633 5 218 222 230
-23.2004591 -9.1624633 5 218 222 230
-22.8493568 -9.07592435 5 218 222 230
-22.529167 -8.90787579 5 218 222 230
-22.258498 -8.66808398 5 218 222 230
-22.0530801 -8.37048475 5 218 222 230
-21.9248514 -8.03237348 5 218 222 230
26.1187359 7.32660001 5 218 222 230
26.0460904 7.92488917 5 218 222 230
25.8323759 8.48840794 5 218 222 230
25.4900127 8.98440666 5 218 222 230
25.0388977 9.38405968 5 218 222 230
24.5052481 9.66414062 5 218 222 230
23.9200776 9.8083722 5 218 222 230
23.3173942 9.8083722 5 218 222 230
22.7322236 9.66414062 5 218 222 230
22.198574 9.38405968 5 218 222 230
21.747459 8.98440666 5 218 222 230
21.4050958 8.48840794 5 218 222 230
21.1913813 7.92488917 5 218 222 230
21.1187359 7.32660001 5 218 222 230
21.1913813 6.72831085 5 218 222 230
21.4050958 6.16479208 5 218 222 230
21.747459 5.66879337 5 218 222 230
22.198574 5.26914035 5 218 222 230
22.7322236 4.9890594 5 218 222 230
23.3173942 4.84482783 5 218 222 230
23.9200776 4.84482783 5 218 222 230
24.5052481 4.9890594 5 218 222 230
25.0388977 5.26914035 5 218 222 230
25.4900127 5.66879337 5 218 222 230
25.8323759 6.16479208 5 218 222 230
26.0460904 6.72831085 5 218 222 230
26.1187359 7.32660001 5 218 222 230
26.1187359 7.32660001 1.5 218 222 230
26.0460904 7.92488917 1.5 218 222 230
25.8323759 8.48840794 1.5 218 222 230
25.4900127 8.98440666 1.5 218 222 230
25.0388977 9.38405968 1.5 218 222 230
24.5052481 9.66414062 1.5 218 222 230
23.9200776 9.8083722 1.5 218 222 230
23.3173942 9.8083722 1.5 218 222 230
22.7322236 9.66414062 1.5 218 222 230
22.198574 9.38405968 1.5 218 222 230
21.747459 8.98440666 1.5 218 222 230
21.4050958 8.48840794 1.5 218 222 230
21.1913813 7.92488917 1.5 218 222 230
21.1187359 7.32660001 1.5 218 222 230
21.1913813 6.72831085 1.5 218 222 230
21.4050958 6.16479208 1.5 218 222 230
21.747459 5.66879337 1.5 218 222 230
22.198574 5.26914035 1.5 218 222 230
22.7322236 4.9890594 1.5 218 222 230
23.3173942 4.84482783 1.5 218 222 230
23.9200776 4.84482783 1.5 218 222 230
24.5052481 4.9890594 1.5 218 222 230
25.0388977 5.26914035 1.5 218 222 230
25.4900127 5.66879337 1.5 218 222 230
25.8323759 6.16479208 1.5 218 222 230
26.0460904 6.72831085 1.5 218 222 230
26.1187359 7.32660001 1.5 218 222 230
25.1187359 7.32660001 5 218 222 230
25.0751486 7.68557351 5 218 222 230
24.9469199 8.02368477 5 218 222 230
24.741502 8.321284 5 218 222 230
24.470833 8.56107581 5 218 222 230
24.1506432 8.72912438 5 218 222 230
23.7995409 8.81566332 5 218 222 230
23.4379308 8.81566332 5 218 222 230
23.0868285 8.72912438 5 218 222 230
22.7666387 8.56107581 5 218 222 230
22.4959697 8.321284 5 218 222 230
22.2905518 8.02368477 5 218 222 230
22.1623231 7.68557351 5 218 222 230
22.1187359 7.32660001 5 218 222 230
22.1623231 6.96762652 5 218 222 230
22.2905518 6.62951525 5 218 222 230
22.4959697 6.33191602 5 218 222 230
22.7666387 6.09212421 5 218 222 230
23.0868285 5.92407565 5 218 222 230
23.4379308 5.8375367 5 218 222 230
23.7995409 5.8375367 5 218 222 230
24.1506432 5.92407565 5 218 222 230
24.470833 6.09212421 5 218 222 230
24.741502 6.33191602 5 218 222 230
24.9469199 6.62951525 5 218 222 230
25.0751486 6.96762652 5 218 222 230
25.1187359 7.32660001 5 218 222 230
25.1187359 7.32660001 0 218 222 230
25.0751486 7.68557351 0 218 222 230
24.9469199 8.02368477 0 218 222 230
24.741502 8.321284 0 218 222 230
24.470833 8.56107581 0 218 222 230
24.1506432 8.72912438 0 218 222 230
23.7995409 8.81566332 0 218 222 230
23.4379308 8.81566332 0 218 222 230
23.0868285 8.72912438 0 218 222 230
22.7666387 8.56107581 0 218 222 230
22.4959697 8.321284 0 218 222 230
22.2905518 8.02368477 0 218 222 230
22.1623231 7.68557351 0 218 222 230
22.1187359 7.32660001 0 218 222 230
22.1623231 6.96762652 0 218 222 230
22.2905518 6.62951525 0 218 222 230
22.4959697 6.33191602 0 218 222 230
22.7666387 6.09212421 0 218 222 230
23.0868285 5.92407565 0 218 222 230
23.4379308 5.8375367 0 218 222 230
23.7995409 5.8375367 0 218 222 230
24.1506432 5.92407565 0 218 222 230
24.470833 6.09212421 0 218 222 230
24.741502 6.33191602 0 218 222 230
24.9469199 6.62951525 0 218 222 230
25.0751486 6.96762652 0 218 222 230
25.1187359 7.32660001 0 218 222 230
26.1187359 7.32660001 5 218 222 230
26.0460904 7.92488917 5 218 222 230
25.8323759 8.48840794 5 218 222 230
25.4900127 8.98440666 5 218 222 230
25.0388977 9.38405968 5 218 222 230
24.5052481 9.66414062 5 218 222 230
23.9200776 9.8083722 5 218 222 230
23.3173942 9.8083722 5 218 222 230
22.7322236 9.66414062 5 218 222 230
22.198574 9.38405968 5 218 222 230
21.747459 8.98440666 5 218 222 230
21.4050958 8.48840794 5 218 222 230
21.1913813 7.92488917 5 218 222 230
21.1187359 7.32660001 5 218 222 230
21.1913813 6.72831085 5 218 222 230
21.4050958 6.16479208 5 218 222 230
21.747459 5.66879337 5 218 222 230
22.198574 5.26914035 5 218 222 230
22.7322236 4.9890594 5 218 222 230
23.3173942 4.84482783 5 218 222 230
23.9200776 4.84482783 5 218 222 230
24.5052481 4.9890594 5 218 222 230
25.0388977 5.26914035 5 218 222 230
25.4900127 5.66879337 5 218 222 230
25.8323759 6.16479208 5 218 222 230
26.0460904 6.72831085 5 218 222 230
25.1187359 7.32660001 5 218 222 230
25.0751486 7.68557351 5 218 222 230
24.9469199 8.02368477 5 218 222 230
24.741502 8.321284 5 218 222 230
24.470833 8.56107581 5 218 222 230
24.1506432 8.72912438 5 218 222 230
23.7995409 8.81566332 5 218 222 230
23.4379308 8.81566332 5 218 222 230
23.0868285 8.72912438 5 218 222 230
22.7666387 8.56107581 5 218 222 230
22.4959697 8.321284 5 218 222 230
22.2905518 8.02368477 5 218 222 230
22.1623231 7.68557351 5 218 222 230
22.1187359 7.32660001 5 218 222 230
22.1623231 6.96762652 5 218 222 230
22.2905518 6.62951525 5 218 222 230
22.4959697 6.33191602 5 218 222 230
22.7666387 6.09212421 5 218 222 230
23.0868285 5.92407565 5 218 222 230
23.4379308 5.8375367 5 218 222 230
23.7995409 5.8375367 5 218 222 230
24.1506432 5.92407565 5 218 222 230
24.470833 6.09212421 5 218 222 230
24.741502 6.33191602 5 218 222 230
24.9469199 6.62951525 5 218 222 230
25.0751486 6.96762652 5 218 222 230
26.1187359 -7.67339999 5 218 222 230
26.0460904 -7.07511083 5 218 222 230
25.8323759 -6.51159206 5 218 222 230
25.4900127 -6.01559334 5 218 222 230
25.0388977 -5.61594032 5 218 222 230
24.5052481 -5.33585938 5 218 222 230
23.9200776 -5.1916278 5 218 222 230
23.3173942 -5.1916278 5 218 222 230
22.7322236 -5.33585938 5 218 222 230
22.198574 -5.61594032 5 218 222 230
21.747459 -6.01559334 5 218 222 230
21.4050958 -6.51159206 5 218 222 230
21.1913813 -7.07511083 5 218 222 230
21.1187359 -7.67339999 5 218 222 230
21.1913813 -8.27168915 5 218 222 230
21.4050958 -8.83520792 5 218 222 230
21.747459 -9.33120663 5 218 222 230
22.198574 -9.73085965 5 218 222 230
22.7322236 -10.0109406 5 218 222 230
23.3173942 -10.1551722 5 218 222 230
23.9200776 -10.1551722 5 218 222 230
24.5052481 -10.0109406 5 218 222 230
25.0388977 -9.73085965 5 218 222 230
25.4900127 -9.33120663 5 218 222 230
25.8323759 -8.83520792 5 218 222 230
26.0460904 -8.27168915 5 218 222 230
26.1187359 -7.67339999 5 218 222 230
26.1187359 -7.67339999 1.5 218 222 230
26.0460904 -7.07511083 1.5 218 222 230
25.8323759 -6.51159206 1.5 218 222 230
25.4900127 -6.01559334 1.5 218 222 230
25.0388977 -5.61594032 1.5 218 222 230
24.5052481 -5.33585938 1.5 218 222 230
23.9200776 -5.1916278 1.5 218 222 230
23.3173942 -5.1916278 1.5 218 222 230
22.7322236 -5.33585938 1.5 218 222 230
22.198574 -5.61594032 1.5 218 222 230
21.747459 -6.01559334 1.5 218 222 230
21.4050958 -6.51159206 1.5 218 222 230
21.1913813 -7.07511083 1.5 218 222 230
21.1187359 -7.67339999 1.5 218 222 230
21.1913813 -8.27168915 1.5 218 222 230
21.4050958 -8.83520792 1.5 218 222 230
21.747459 -9.33120663 1.5 218 222 230
22.198574 -9.73085965 1.5 218 222 230
22.7322236 -10.0109406 1.5 218 222 230
23.3173942 -10.1551722 1.5 218 222 230
23.9200776 -10.1551722 1.5 218 222 230
24.5052481 -10.0109406 1.5 218 222 230
25.0388977 -9.73085965 1.5 218 222 230
25.4900127 -9.33120663 1.5 218 222 230
25.8323759 -8.83520792 1.5 218 222 230
26.0460904 -8.27168915 1.5 218 222 230
26.1187359 -7.67339999 1.5 218 222 230
25.1187359 -7.67339999 5 218 222 230
25.0751486 -7.31442649 5 218 222 230
24.9469199 -6.97631523 5 218 222 230
24.741502 -6.678716 5 218 222 230
24.470833 -6.43892419 5 218 222 230
24.1506432 -6.27087562 5 218 222 230
23.7995409 -6.18433668 5 218 222 230
23.4379308 -6.18433668 5 218 222 230
23.0868285 -6.27087562 5 218 222 230
22.7666387 -6.43892419 5 218 222 230
22.4959697 -6.678716 5 218 222 230
22.2905518 -6.97631523 5 218 222 230
22.1623231 -7.31442649 5 218 222 230
22.1187359 -7.67339999 5 218 222 230
22.1623231 -8.03237348 5 218 222 230
22.2905518 -8.37048475 5 218 222 230
22.4959697 -8.66808398 5 218 222 230
22.7666387 -8.90787579 5 218 222 230
23.0868285 -9.07592435 5 218 222 230
23.4379308 -9.1624633 5 218 222 230
23.7995409 -9.1624633 5 218 222 230
24.1506432 -9.07592435 5 218 222 230
24.470833 -8.90787579 5 218 222 230
24.741502 -8.66808398 5 218 222 230
24.9469199 -8.37048475 5 218 222 230
25.0751486 -8.03237348 5 218 222 230
25.1187359 -7.67339999 5 218 222 230
25.1187359 -7.67339999 0 218 222 230
25.0751486 -7.31442649 0 218 222 230
24.9469199 -6.97631523 0 218 222 230
24.741502 -6.678716 0 218 222 230
24.470833 -6.43892419 0 218 222 230
24.1506432 -6.27087562 0 218 222 230
23.7995409 -6.18433668 0 218 222 230
23.4379308 -6.18433668 0 218 222 230
23.0868285 -6.27087562 0 218 222 230
22.7666387 -6.43892419 0 218 222 230
22.4959697 -6.678716 0 218 222 230
22.2905518 -6.97631523 0 218 222 230
22.1623231 -7.31442649 0 218 222 230
22.1187359 -7.67339999 0 218 222 230
22.1623231 -8.03237348 0 218 222 230
22.2905518 -8.37048475 0 218 222 230
22.4959697 -8.66808398 0 218 222 230
22.7666387 -8.90787579 0 218 222 230
23.0868285 -9.07592435 0 218 222 230
23.4379308 -9.1624633 0 218 222 230
23.7995409 -9.1624633 0 218 222 230
24.1506432 -9.07592435 0 218 222 230
24.470833 -8.90787579 0 218 222 230
24.741502 -8.66808398 0 218 222 230
24.9469199 -8.37048475 0 218 222 230
25.0751486 -8.03237348 0 218 222 230
25.1187359 -7.67339999 0 218 222 230
26.1187359 -7.67339999 5 218 222 230
26.0460904 -7.07511083 5 218 222 230
25.8323759 -6.51159206 5 218 222 230
25.4900127 -6.01559334 5 218 222 230
25.0388977 -5.61594032 5 218 222 230
24.5052481 -5.33585938 5 218 222 230
23.9200776 -5.1916278 5 218 222 230
23.3173942 -5.1916278 5 218 222 230
22.7322236 -5.33585938 5 218 222 230
22.198574 -5.61594032 5 218 222 230
21.747459 -6.01559334 5 218 222 230
21.4050958 -6.51159206 5 218 222 230
21.1913813 -7.07511083 5 218 222 230
21.1187359 -7.67339999 5 218 222 230
21.1913813 -8.27168915 5 218 222 230
21.4050958 -8.83520792 5 218 222 230
21.747459 -9.33120663 5 218 222 230
22.198574 -9.73085965 5 218 222 230
22.7322236 -10.0109406 5 218 222 230
23.3173942 -10.1551722 5 218 222 230
23.9200776 -10.1551722 5 218 222 230
24.5052481 -10.0109406 5 218 222 230
25.0388977 -9.73085965 5 218 222 230
25.4900127 -9.33120663 5 218 222 230
25.8323759 -8.83520792 5 218 222 230
26.0460904 -8.27168915 5 218 222 230
25.1187359 -7.67339999 5 218 222 230
25.0751486 -7.31442649 5 218 222 230
24.9469199 -6.97631523 5 218 222 230
24.741502 -6.678716 5 218 222 230
24.470833 -6.43892419 5 218 222 230
24.1506432 -6.27087562 5 218 222 230
23.7995409 -6.18433668 5 218 222 230
23.4379308 -6.18433668 5 218 222 230
23.0868285 -6.27087562 5 218 222 230
22.7666387 -6.43892419 5 218 222 230
22.4959697 -6.678716 5 218 222 230
22.2905518 -6.97631523 5 218 222 230
22.1623231 -7.31442649 5 218 222 230
22.1187359 -7.67339999 5 218 222 230
22.1623231 -8.03237348 5 218 222 230
22.2905518 -8.37048475 5 218 222 230
22.4959697 -8.66808398 5 218 222 230
22.7666387 -8.90787579 5 218 222 230
23.0868285 -9.07592435 5 218 222 230
23.4379308 -9.1624633 5 218 222 230
23.7995409 -9.1624633 5 218 222 230
24.1506432 -9.07592435 5 218 222 230
24.470833 -8.90787579 5 218 222 230
24.741502 -8.66808398 5 218 222 230
24.9469199 -8.37048475 5 218 222 230
25.0751486 -8.03237348 5 218 222 230
6 -6.63245516 1.5 218 222 230
6 6.36754484 1.5 218 222 230
19 -6.63245516 1.5 218 222 230
19 6.36754484 1.5 218 222 230
-19 -6.73235394 1.5 218 222 230
-19 6.26764606 1.5 218 222 230
-6 -6.73235394 1.5 218 222 230
-6 6.26764606 1.5 218 222 230
3 0 3 2
3 0 1 3
3 6 4 5
3 6 5 7
3 10 9 8
3 10 11 9
3 15 13 12
3 15 12 14
3 63 16 62
3 61 62 16
3 64 16 63
3 60 61 16
3 65 16 64
3 59 60 16
3 66 16 65
3 58 59 16
3 67 16 66
3 37 55 56
3 37 56 36
3 35 56 57
3 35 36 56
3 38 54 55
3 38 55 37
3 34 58 16
3 34 57 58
3 34 35 57
3 39 53 54
3 39 54 38
3 40 52 53
3 40 53 39
3 41 51 52
3 41 52 40
3 42 51 41
3 42 50 51
3 19 30 31
3 19 31 32
3 19 32 33
3 19 33 34
3 19 34 16
3 43 49 50
3 43 50 42
3 29 30 19
3 44 48 49
3 44 49 43
3 28 29 19
3 45 47 48
3 45 48 44
3 27 28 19
3 26 27 19
3 25 26 19
3 114 69 70
3 115 69 114
3 115 68 69
3 113 114 70
3 116 68 115
3 116 16 67
3 116 67 68
3 112 113 70
3 112 70 71
3 111 112 71
3 111 71 46
3 110 111 46
3 110 46 47
3 17 116 117
3 17 117 118
3 17 118 119
3 17 119 120
3 17 16 116
3 121 17 120
3 122 17 121
3 123 17 122
3 98 17 123
3 99 17 98
3 89 108 88
3 89 107 108
3 87 88 108
3 87 108 109
3 87 109 110
3 90 107 89
3 90 105 106
3 90 106 107
3 86 110 47
3 86 87 110
3 86 47 45
3 91 105 90
3 91 104 105
3 85 45 20
3 85 86 45
3 92 104 91
3 84 20 21
3 84 21 22
3 84 85 20
3 93 104 92
3 93 103 104
3 83 84 22
3 94 102 103
3 94 103 93
3 82 22 23
3 82 83 22
3 95 101 102
3 95 102 94
3 96 100 101
3 96 101 95
3 97 100 96
3 97 99 100
3 18 99 97
3 18 72 73
3 18 17 99
3 18 73 74
3 18 74 75
3 18 75 76
3 18 76 77
3 18 77 78
3 18 78 79
3 18 79 80
3 18 97 72
3 18 25 19
3 18 24 25
3 18 23 24
3 18 80 23
3 80 81 23
3 81 82 23
3 205 204 125
3 203 125 204
3 206 205 125
3 202 125 203
3 207 206 125
3 201 125 202
3 208 207 125
3 200 125 201
3 132 189 188
3 132 212 211
3 132 213 212
3 132 188 213
3 190 189 132
3 191 190 132
3 230 199 198
3 231 198 197
3 231 230 198
3 229 200 199
3 229 199 230
3 232 197 196
3 232 231 197
3 228 200 229
3 233 196 195
3 233 232 196
3 234 195 194
3 234 233 195
3 235 194 193
3 235 234 194
3 236 193 192
3 236 235 193
3 124 225 224
3 124 226 225
3 124 227 226
3 124 228 227
3 237 192 191
3 237 236 192
3 223 124 224
3 222 124 223
3 221 124 222
3 220 124 221
3 134 237 191
3 134 238 237
3 134 239 238
3 134 214 239
3 134 191 132
3 134 215 214
3 216 215 134
3 133 132 211
3 133 209 208
3 133 210 209
3 133 211 210
3 217 216 134
3 131 133 208
3 135 217 134
3 135 218 217
3 135 219 218
3 129 135 133
3 129 133 131
3 178 130 131
3 179 178 131
3 177 130 178
3 180 179 131
3 176 130 177
3 181 131 208
3 181 180 131
3 175 130 176
3 174 130 175
3 173 130 174
3 172 130 173
3 126 181 208
3 126 208 125
3 126 182 181
3 126 183 182
3 126 184 183
3 185 184 126
3 186 185 126
3 187 186 126
3 162 187 126
3 163 162 126
3 152 128 130
3 152 130 172
3 152 172 171
3 153 152 171
3 151 128 152
3 154 153 171
3 154 171 170
3 150 128 151
3 155 154 170
3 155 170 169
3 149 128 150
3 156 155 169
3 156 168 167
3 156 169 168
3 148 128 149
3 157 156 167
3 157 167 166
3 147 128 148
3 158 157 166
3 158 166 165
3 146 129 128
3 146 128 147
3 159 158 165
3 159 165 164
3 145 129 146
3 160 159 164
3 144 129 145
3 161 160 164
3 161 164 163
3 127 137 136
3 127 138 137
3 127 139 138
3 127 140 139
3 127 141 140
3 127 142 141
3 127 143 142
3 127 136 161
3 124 125 200
3 124 200 228
3 126 127 161
3 126 161 163
3 127 124 220
3 127 220 219
3 127 219 143
3 143 219 144
3 144 219 135
3 144 135 129
3 240 241 242
3 240 242 243
3 245 246 244
3 245 247 246
3 250 248 249
3 250 249 251
3 254 252 253
3 254 255 252
3 259 256 257
3 259 257 258
3 260 263 262
3 261 263 260
3 264 267 266
3 264 265 267
3 270 268 269
3 270 271 268
3 276 275 273
3 276 273 277
3 272 279 277
3 272 277 273
3 278 279 272
3 274 278 272
3 274 275 278
3 278 275 276
3 282 280 281
3 282 283 280
3 284 287 286
3 284 285 287
3 289 290 288
3 289 291 290
3 295 292 293
3 295 293 294
3 297 298 299
3 296 297 299
3 300 303 302
3 300 301 303
3 307 304 305
3 306 304 307
3 310 308 309
3 310 311 308
3 312 314 317
3 316 312 317
3 319 314 315
3 319 317 314
3 313 318 319
3 313 319 315
3 313 312 318
3 318 312 316
3 321 320 347
3 321 347 348
3 322 348 349
3 322 321 348
3 323 349 350
3 323 350 351
3 323 322 349
3 324 323 351
3 325 351 352
3 325 324 351
3 326 352 353
3 326 353 354
3 326 325 352
3 327 326 354
3 328 354 355
3 328 327 354
3 329 355 356
3 329 328 355
3 330 356 357
3 330 329 356
3 331 357 358
3 331 330 357
3 332 331 358
3 332 358 359
3 333 332 359
3 333 359 360
3 334 333 360
3 334 360 361
3 335 334 361
3 335 361 362
3 336 335 362
3 336 362 363
3 336 363 364
3 337 336 364
3 338 337 364
3 338 364 365
3 339 338 365
3 339 365 366
3 339 366 367
3 340 339 367
3 340 367 368
3 341 340 368
3 341 368 369
3 342 341 369
3 343 342 369
3 343 369 370
3 344 370 371
3 344 343 370
3 345 371 372
3 345 344 371
3 346 372 373
3 346 345 372
3 375 401 374
3 375 402 401
3 376 403 402
3 376 404 403
3 376 402 375
3 377 404 376
3 378 405 404
3 378 404 377
3 379 406 405
3 379 407 406
3 379 405 378
3 380 407 379
3 381 408 407
3 381 407 380
3 382 409 408
3 382 408 381
3 383 410 409
3 383 409 382
3 384 411 410
3 384 412 411
3 384 410 383
3 385 412 384
3 385 413 412
3 386 413 385
3 387 413 386
3 387 414 413
3 387 415 414
3 388 415 387
3 389 415 388
3 389 416 415
3 390 416 389
3 390 417 416
3 391 417 390
3 391 418 417
3 392 418 391
3 392 419 418
3 393 419 392
3 393 420 419
3 393 421 420
3 394 421 393
3 395 421 394
3 395 422 421
3 396 422 395
3 396 423 422
3 397 423 396
3 397 424 423
3 397 425 424
3 398 425 397
3 399 426 425
3 399 425 398
3 400 427 426
3 400 426 399
3 471 444 445
3 471 470 444
3 469 443 444
3 469 444 470
3 472 445 446
3 472 446 447
3 472 471 445
3 468 442 443
3 468 443 469
3 473 472 447
3 467 441 442
3 467 442 468
3 474 447 448
3 474 448 449
3 474 473 447
3 466 440 441
3 466 441 467
3 475 474 449
3 450 475 449
3 465 439 440
3 465 440 466
3 476 475 450
3 438 439 465
3 464 438 465
3 451 477 476
3 451 476 450
3 437 464 463
3 437 438 464
3 452 477 451
3 452 478 477
3 436 437 463
3 436 463 462
3 453 478 452
3 453 479 478
3 435 436 462
3 435 462 461
3 428 455 454
3 428 479 453
3 428 454 479
3 434 461 460
3 434 435 461
3 429 456 455
3 429 455 428
3 433 460 459
3 433 434 460
3 430 456 429
3 432 459 458
3 432 433 459
3 431 457 456
3 431 458 457
3 431 456 430
3 431 432 458
3 481 507 480
3 481 508 507
3 482 509 508
3 482 510 509
3 482 508 481
3 483 510 482
3 484 511 510
3 484 510 483
3 485 512 511
3 485 513 512
3 485 511 484
3 486 513 485
3 487 514 513
3 487 513 486
3 488 515 514
3 488 514 487
3 489 516 515
3 489 515 488
3 490 517 516
3 490 518 517
3 490 516 489
3 491 518 490
3 491 519 518
3 492 519 491
3 493 519 492
3 493 520 519
3 493 521 520
3 494 521 493
3 495 521 494
3 495 522 521
3 496 522 495
3 496 523 522
3 497 523 496
3 497 524 523
3 498 524 497
3 498 525 524
3 499 525 498
3 499 526 525
3 499 527 526
3 500 527 499
3 501 527 500
3 501 528 527
3 502 528 501
3 502 529 528
3 503 529 502
3 503 530 529
3 503 531 530
3 504 531 503
3 505 532 531
3 505 531 504
3 506 533 532
3 506 532 505
3 535 534 561
3 535 561 562
3 536 562 563
3 536 535 562
3 537 563 564
3 537 564 565
3 537 536 563
3 538 537 565
3 539 565 566
3 539 538 565
3 540 566 567
3 540 567 568
3 540 539 566
3 541 540 568
3 542 568 569
3 542 541 568
3 543 569 570
3 543 542 569
3 544 570 571
3 544 543 570
3 545 571 572
3 545 544 571
3 546 545 572
3 546 572 573
3 547 546 573
3 547 573 574
3 548 547 574
3 548 574 575
3 549 548 575
3 549 575 576
3 550 549 576
3 550 576 577
3 550 577 578
3 551 550 578
3 552 551 578
3 552 578 579
3 553 552 579
3 553 579 580
3 553 580 581
3 554 553 581
3 554 581 582
3 555 554 582
3 555 582 583
3 556 555 583
3 557 556 583
3 557 583 584
3 558 584 585
3 558 557 584
3 559 585 586
3 559 558 585
3 560 586 587
3 560 559 586
3 631 604 605
3 631 630 604
3 629 603 604
3 629 604 630
3 632 605 606
3 632 606 607
3 632 631 605
3 628 602 603
3 628 603 629
3 633 607 608
3 633 632 607
3 627 601 602
3 627 602 628
3 634 608 609
3 634 633 608
3 626 600 601
3 626 601 627
3 635 634 609
3 625 599 600
3 625 600 626
3 636 609 610
3 636 635 609
3 624 598 599
3 624 599 625
3 611 637 636
3 611 636 610
3 597 624 623
3 597 598 624
3 612 637 611
3 612 638 637
3 639 638 612
3 596 597 623
3 596 623 622
3 613 639 612
3 595 596 622
3 595 621 620
3 595 622 621
3 588 639 613
3 588 614 639
3 594 595 620
3 589 615 614
3 589 614 588
3 593 620 619
3 593 594 620
3 590 616 615
3 590 617 616
3 590 615 589
3 592 618 617
3 592 619 618
3 592 593 619
3 591 592 617
3 591 617 590
3 641 640 667
3 641 667 668
3 642 668 669
3 642 641 668
3 643 669 670
3 643 670 671
3 643 642 669
3 644 643 671
3 645 671 672
3 645 644 671
3 646 672 673
3 646 673 674
3 646 645 672
3 647 646 674
3 648 674 675
3 648 647 674
3 649 675 676
3 649 648 675
3 650 676 677
3 650 649 676
3 651 677 678
3 651 650 677
3 652 651 678
3 652 678 679
3 653 652 679
3 653 679 680
3 654 653 680
3 654 680 681
3 655 654 681
3 655 681 682
3 656 655 682
3 656 682 683
3 656 683 684
3 657 656 684
3 658 657 684
3 658 684 685
3 659 658 685
3 659 685 686
3 659 686 687
3 660 659 687
3 660 687 688
3 661 660 688
3 661 688 689
3 662 661 689
3 663 662 689
3 663 689 690
3 664 690 691
3 664 663 690
3 665 691 692
3 665 664 691
3 666 692 693
3 666 665 692
3 695 721 694
3 695 722 721
3 696 723 722
3 696 724 723
3 696 722 695
3 697 724 696
3 698 725 724
3 698 724 697
3 699 726 725
3 699 727 726
3 699 725 698
3 700 727 699
3 701 728 727
3 701 727 700
3 702 729 728
3 702 728 701
3 703 730 729
3 703 729 702
3 704 731 730
3 704 732 731
3 704 730 703
3 705 732 704
3 705 733 732
3 706 733 705
3 707 733 706
3 707 734 733
3 707 735 734
3 708 735 707
3 709 735 708
3 709 736 735
3 710 736 709
3 710 737 736
3 711 737 710
3 711 738 737
3 712 738 711
3 712 739 738
3 713 739 712
3 713 740 739
3 713 741 740
3 714 741 713
3 715 741 714
3 715 742 741
3 716 742 715
3 716 743 742
3 717 743 716
3 717 744 743
3 717 745 744
3 718 745 717
3 719 746 745
3 719 745 718
3 720 747 746
3 720 746 719
3 791 764 765
3 791 790 764
3 789 763 764
3 789 764 790
3 792 765 766
3 792 766 767
3 792 791 765
3 788 762 763
3 788 763 789
3 793 792 767
3 787 761 762
3 787 762 788
3 794 767 768
3 794 768 769
3 794 793 767
3 786 760 761
3 786 761 787
3 795 794 769
3 770 795 769
3 785 759 760
3 785 760 786
3 796 795 770
3 758 759 785
3 784 758 785
3 771 797 796
3 771 796 770
3 757 784 783
3 757 758 784
3 772 797 771
3 772 798 797
3 756 757 783
3 756 783 782
3 773 798 772
3 773 799 798
3 755 756 782
3 755 782 781
3 748 775 774
3 748 799 773
3 748 774 799
3 754 781 780
3 754 755 781
3 749 776 775
3 749 775 748
3 753 780 779
3 753 754 780
3 750 776 749
3 752 779 778
3 752 753 779
3 751 777 776
3 751 778 777
3 751 776 750
3 751 752 778
3 801 800 827
3 801 827 828
3 802 828 829
3 802 801 828
3 803 829 830
3 803 830 831
3 803 802 829
3 804 803 831
3 805 831 832
3 805 804 831
3 806 832 833
3 806 833 834
3 806 805 832
3 807 806 834
3 808 834 835
3 808 807 834
3 809 835 836
3 809 808 835
3 810 836 837
3 810 809 836
3 811 837 838
3 811 810 837
3 812 811 838
3 812 838 839
3 813 812 839
3 813 839 840
3 814 813 840
3 814 840 841
3 815 814 841
3 815 841 842
3 816 815 842
3 816 842 843
3 816 843 844
3 817 816 844
3 818 817 844
3 818 844 845
3 819 818 845
3 819 845 846
3 819 846 847
3 820 819 847
3 820 847 848
3 821 820 848
3 821 848 849
3 822 821 849
3 823 822 849
3 823 849 850
3 824 850 851
3 824 823 850
3 825 851 852
3 825 824 851
3 826 852 853
3 826 825 852
3 855 881 854
3 855 882 881
3 856 883 882
3 856 884 883
3 856 882 855
3 857 884 856
3 858 885 884
3 858 884 857
3 859 886 885
3 859 887 886
3 859 885 858
3 860 887 859
3 861 888 887
3 861 887 860
3 862 889 888
3 862 888 861
3 863 890 889
3 863 889 862
3 864 891 890
3 864 892 891
3 864 890 863
3 865 892 864
3 865 893 892
3 866 893 865
3 867 893 866
3 867 894 893
3 867 895 894
3 868 895 867
3 869 895 868
3 869 896 895
3 870 896 869
3 870 897 896
3 871 897 870
3 871 898 897
3 872 898 871
3 872 899 898
3 873 899 872
3 873 900 899
3 873 901 900
3 874 901 873
3 875 901 874
3 875 902 901
3 876 902 875
3 876 903 902
3 877 903 876
3 877 904 903
3 877 905 904
3 878 905 877
3 879 906 905
3 879 905 878
3 880 907 906
3 880 906 879
3 951 924 925
3 951 950 924
3 949 923 924
3 949 924 950
3 952 925 926
3 952 926 927
3 952 951 925
3 948 922 923
3 948 923 949
3 953 927 928
3 953 952 927
3 947 921 922
3 947 922 948
3 954 928 929
3 954 953 928
3 946 920 921
3 946 921 947
3 955 954 929
3 945 919 920
3 945 920 946
3 956 929 930
3 956 955 929
3 944 918 919
3 944 919 945
3 931 957 956
3 931 956 930
3 917 944 943
3 917 918 944
3 932 957 931
3 932 958 957
3 959 958 932
3 916 917 943
3 916 943 942
3 933 959 932
3 915 916 942
3 915 941 940
3 915 942 941
3 908 959 933
3 908 934 959
3 914 915 940
3 909 935 934
3 909 934 908
3 913 940 939
3 913 914 940
3 910 936 935
3 910 937 936
3 910 935 909
3 912 938 937
3 912 939 938
3 912 913 939
3 911 912 937
3 911 937 910
3 961 960 962
3 963 961 962
3 966 965 964
3 967 965 966
