ply
format ascii 1.0
comment generated by blendit.inference.finetune_visualize
element vertex 1744
property float x
property float y
property float z
property uchar red
property uchar green
property uchar blue
element face 1692
property list uchar int vertex_indices
end_header
-38.8090832 -7.2787809 3.175 218 222 230
-6.99558318 -7.2787809 3.175 218 222 230
-6.99558318 8.5962191 3.175 218 222 230
-38.8090832 8.5962191 3.175 218 222 230
-24.5088832 4.6274691 3.175 218 222 230
-24.5782625 5.19885918 3.175 218 222 230
-24.7823684 5.73704215 3.175 218 222 230
-25.1093389 6.21074076 3.175 218 222 230
-25.5401718 6.59242538 3.175 218 222 230
-26.0498286 6.85991388 3.175 218 222 230
-26.6086898 6.99766081 3.175 218 222 230
-27.1842766 6.99766081 3.175 218 222 230
-27.7431378 6.85991388 3.175 218 222 230
-28.2527946 6.59242538 3.175 218 222 230
-28.6836274 6.21074076 3.175 218 222 230
-29.010598 5.73704215 3.175 218 222 230
-29.2147039 5.19885918 3.175 218 222 230
-29.2840832 4.6274691 3.175 218 222 230
-29.2147039 4.05607902 3.175 218 222 230
-29.010598 3.51789606 3.175 218 222 230
-28.6836274 3.04419744 3.175 218 222 230
-28.2527946 2.66251282 3.175 218 222 230
-27.7431378 2.39502432 3.175 218 222 230
-27.1842766 2.25727739 3.175 218 222 230
-26.6086898 2.25727739 3.175 218 222 230
-26.0498286 2.39502432 3.175 218 222 230
-25.5401718 2.66251282 3.175 218 222 230
-25.1093389 3.04419744 3.175 218 222 230
-24.7823684 3.51789606 3.175 218 222 230
-24.5782625 4.05607902 3.175 218 222 230
-16.5586832 4.6274691 3.175 218 222 230
-16.6280625 5.19885918 3.175 218 222 230
-16.8321684 5.73704215 3.175 218 222 230
-17.1591389 6.21074076 3.175 218 222 230
-17.5899718 6.59242538 3.175 218 222 230
-18.0996286 6.85991388 3.175 218 222 230
-18.6584898 6.99766081 3.175 218 222 230
-19.2340766 6.99766081 3.175 218 222 230
-19.7929378 6.85991388 3.175 218 222 230
-20.3025946 6.59242538 3.175 218 222 230
-20.7334274 6.21074076 3.175 218 222 230
-21.060398 5.73704215 3.175 218 222 230
-21.2645039 5.19885918 3.175 218 222 230
-21.3338832 4.6274691 3.175 218 222 230
-21.2645039 4.05607902 3.175 218 222 230
-21.060398 3.51789606 3.175 218 222 230
-20.7334274 3.04419744 3.175 218 222 230
-20.3025946 2.66251282 3.175 218 222 230
-19.7929378 2.39502432 3.175 218 222 230
-19.2340766 2.25727739 3.175 218 222 230
-18.6584898 2.25727739 3.175 218 222 230
-18.0996286 2.39502432 3.175 218 222 230
-17.5899718 2.66251282 3.175 218 222 230
-17.1591389 3.04419744 3.175 218 222 230
-16.8321684 3.51789606 3.175 218 222 230
-16.6280625 4.05607902 3.175 218 222 230
-8.60848318 4.6274691 3.175 218 222 230
-8.6778625 5.19885918 3.175 218 222 230
-8.88196838 5.73704215 3.175 218 222 230
-9.20893892 6.21074076 3.175 218 222 230
-9.63977179 6.59242538 3.175 218 222 230
-10.1494286 6.85991388 3.175 218 222 230
-10.7082898 6.99766081 3.175 218 222 230
-11.2838766 6.99766081 3.175 218 222 230
-11.8427378 6.85991388 3.175 218 222 230
-12.3523946 6.59242538 3.175 218 222 230
-12.7832274 6.21074076 3.175 218 222 230
-13.110198 5.73704215 3.175 218 222 230
-13.3143039 5.19885918 3.175 218 222 230
-13.3836832 4.6274691 3.175 218 222 230
-13.3143039 4.05607902 3.175 218 222 230
-13.110198 3.51789606 3.175 218 222 230
-12.7832274 3.04419744 3.175 218 222 230
-12.3523946 2.66251282 3.175 218 222 230
-11.8427378 2.39502432 3.175 218 222 230
-11.2838766 2.25727739 3.175 218 222 230
-10.7082898 2.25727739 3.175 218 222 230
-10.1494286 2.39502432 3.175 218 222 230
-9.63977179 2.66251282 3.175 218 222 230
-9.20893892 3.04419744 3.175 218 222 230
-8.88196838 3.51789606 3.175 218 222 230
-8.6778625 4.05607902 3.175 218 222 230
-32.4590832 4.6274691 3.175 218 222 230
-32.5284625 5.19885918 3.175 218 222 230
-32.7325684 5.73704215 3.175 218 222 230
-33.0595389 6.21074076 3.175 218 222 230
-33.4903718 6.59242538 3.175 218 222 230
-34.0000286 6.85991388 3.175 218 222 230
-34.5588898 6.99766081 3.175 218 222 230
-35.1344766 6.99766081 3.175 218 222 230
-35.6933378 6.85991388 3.175 218 222 230
-36.2029946 6.59242538 3.175 218 222 230
-36.6338274 6.21074076 3.175 218 222 230
-36.960798 5.73704215 3.175 218 222 230
-37.1649039 5.19885918 3.175 218 222 230
-37.2342832 4.6274691 3.175 218 222 230
-37.1649039 4.05607902 3.175 218 222 230
-36.960798 3.51789606 3.175 218 222 230
-36.6338274 3.04419744 3.175 218 222 230
-36.2029946 2.66251282 3.175 218 222 230
-35.6933378 2.39502432 3.175 218 222 230
-35.1344766 2.25727739 3.175 218 222 230
-34.5588898 2.25727739 3.175 218 222 230
-34.0000286 2.39502432 3.175 218 222 230
-33.4903718 2.66251282 3.175 218 222 230
-33.0595389 3.04419744 3.175 218 222 230
-32.7325684 3.51789606 3.175 218 222 230
-32.5284625 4.05607902 3.175 218 222 230
-8.60848318 -3.3100309 3.175 218 222 230
-8.6778625 -2.73864082 3.175 218 222 230
-8.88196838 -2.20045785 3.175 218 222 230
-9.20893892 -1.72675924 3.175 218 222 230
-9.63977179 -1.34507462 3.175 218 222 230
-10.1494286 -1.07758612 3.175 218 222 230
-10.7082898 -0.93983919 3.175 218 222 230
-11.2838766 -0.93983919 3.175 218 222 230
-11.8427378 -1.07758612 3.175 218 222 230
-12.3523946 -1.34507462 3.175 218 222 230
-12.7832274 -1.72675924 3.175 218 222 230
-13.110198 -2.20045785 3.175 218 222 230
-13.3143039 -2.73864082 3.175 218 222 230
-13.3836832 -3.3100309 3.175 218 222 230
-13.3143039 -3.88142098 3.175 218 222 230
-13.110198 -4.41960394 3.175 218 222 230
-12.7832274 -4.89330256 3.175 218 222 230
-12.3523946 -5.27498718 3.175 218 222 230
-11.8427378 -5.54247568 3.175 218 222 230
-11.2838766 -5.68022261 3.175 218 222 230
-10.7082898 -5.68022261 3.175 218 222 230
-10.1494286 -5.54247568 3.175 218 222 230
-9.63977179 -5.27498718 3.175 218 222 230
-9.20893892 -4.89330256 3.175 218 222 230
-8.88196838 -4.41960394 3.175 218 222 230
-8.6778625 -3.88142098 3.175 218 222 230
-16.5586832 -3.3100309 3.175 218 222 230
-16.6280625 -2.73864082 3.175 218 222 230
-16.8321684 -2.20045785 3.175 218 222 230
-17.1591389 -1.72675924 3.175 218 222 230
-17.5899718 -1.34507462 3.175 218 222 230
-18.0996286 -1.07758612 3.175 218 222 230
-18.6584898 -0.93983919 3.175 218 222 230
-19.2340766 -0.93983919 3.175 218 222 230
-19.7929378 -1.07758612 3.175 218 222 230
-20.3025946 -1.34507462 3.175 218 222 230
-20.7334274 -1.72675924 3.175 218 222 230
-21.060398 -2.20045785 3.175 218 222 230
-21.2645039 -2.73864082 3.175 218 222 230
-21.3338832 -3.3100309 3.175 218 222 230
-21.2645039 -3.88142098 3.175 218 222 230
-21.060398 -4.41960394 3.175 218 222 230
-20.7334274 -4.89330256 3.175 218 222 230
-20.3025946 -5.27498718 3.175 218 222 230
-19.7929378 -5.54247568 3.175 218 222 230
-19.2340766 -5.68022261 3.175 218 222 230
-18.6584898 -5.68022261 3.175 218 222 230
-18.0996286 -5.54247568 3.175 218 222 230
-17.5899718 -5.27498718 3.175 218 222 230
-17.1591389 -4.89330256 3.175 218 222 230
-16.8321684 -4.41960394 3.175 218 222 230
-16.6280625 -3.88142098 3.175 218 222 230
-24.5088832 -3.3100309 3.175 218 222 230
-24.5782625 -2.73864082 3.175 218 222 230
-24.7823684 -2.20045785 3.175 218 222 230
-25.1093389 -1.72675924 3.175 218 222 230
-25.5401718 -1.34507462 3.175 218 222 230
-26.0498286 -1.07758612 3.175 218 222 230
-26.6086898 -0.93983919 3.175 218 222 230
-27.1842766 -0.93983919 3.175 218 222 230
-27.7431378 -1.07758612 3.175 218 222 230
-28.2527946 -1.34507462 3.175 218 222 230
-28.6836274 -1.72675924 3.175 218 222 230
-29.010598 -2.20045785 3.175 218 222 230
-29.2147039 -2.73864082 3.175 218 222 230
-29.2840832 -3.3100309 3.175 218 222 230
-29.2147039 -3.88142098 3.175 218 222 230
-29.010598 -4.41960394 3.175 218 222 230
-28.6836274 -4.89330256 3.175 218 222 230
-28.2527946 -5.27498718 3.175 218 222 230
-27.7431378 -5.54247568 3.175 218 222 230
-27.1842766 -5.68022261 3.175 218 222 230
-26.6086898 -5.68022261 3.175 218 222 230
-26.0498286 -5.54247568 3.175 218 222 230
-25.5401718 -5.27498718 3.175 218 222 230
-25.1093389 -4.89330256 3.175 218 222 230
-24.7823684 -4.41960394 3.175 218 222 230
-24.5782625 -3.88142098 3.175 218 222 230
-32.4590832 -3.3100309 3.175 218 222 230
-32.5284625 -2.73864082 3.175 218 222 230
-32.7325684 -2.20045785 3.175 218 222 230
-33.0595389 -1.72675924 3.175 218 222 230
-33.4903718 -1.34507462 3.175 218 222 230
-34.0000286 -1.07758612 3.175 218 222 230
-34.5588898 -0.93983919 3.175 218 222 230
-35.1344766 -0.93983919 3.175 218 222 230
-35.6933378 -1.07758612 3.175 218 222 230
-36.2029946 -1.34507462 3.175 218 222 230
-36.6338274 -1.72675924 3.175 218 222 230
-36.960798 -2.20045785 3.175 218 222 230
-37.1649039 -2.73864082 3.175 218 222 230
-37.2342832 -3.3100309 3.175 218 222 230
-37.1649039 -3.88142098 3.175 218 222 230
-36.960798 -4.41960394 3.175 218 222 230
-36.6338274 -4.89330256 3.175 218 222 230
-36.2029946 -5.27498718 3.175 218 222 230
-35.6933378 -5.54247568 3.175 218 222 230
-35.1344766 -5.68022261 3.175 218 222 230
-34.5588898 -5.68022261 3.175 218 222 230
-34.0000286 -5.54247568 3.175 218 222 230
-33.4903718 -5.27498718 3.175 218 222 230
-33.0595389 -4.89330256 3.175 218 222 230
-32.7325684 -4.41960394 3.175 218 222 230
-32.5284625 -3.88142098 3.175 218 222 230
-32.4590832 -3.3100309 3.175 218 222 230
-32.5284625 -2.73864082 3.175 218 222 230
-32.7325684 -2.20045785 3.175 218 222 230
-33.0595389 -1.72675924 3.175 218 222 230
-33.4903718 -1.34507462 3.175 218 222 230
-34.0000286 -1.07758612 3.175 218 222 230
-34.5588898 -0.93983919 3.175 218 222 230
-35.1344766 -0.93983919 3.175 218 222 230
-35.6933378 -1.07758612 3.175 218 222 230
-36.2029946 -1.34507462 3.175 218 222 230
-36.6338274 -1.72675924 3.175 218 222 230
-36.960798 -2.20045785 3.175 218 222 230
-37.1649039 -2.73864082 3.175 218 222 230
-37.2342832 -3.3100309 3.175 218 222 230
-37.1649039 -3.88142098 3.175 218 222 230
-36.960798 -4.41960394 3.175 218 222 230
-36.6338274 -4.89330256 3.175 218 222 230
-36.2029946 -5.27498718 3.175 218 222 230
-35.6933378 -5.54247568 3.175 218 222 230
-35.1344766 -5.68022261 3.175 218 222 230
-34.5588898 -5.68022261 3.175 218 222 230
-34.0000286 -5.54247568 3.175 218 222 230
-33.4903718 -5.27498718 3.175 218 222 230
-33.0595389 -4.89330256 3.175 218 222 230
-32.7325684 -4.41960394 3.175 218 222 230
-32.5284625 -3.88142098 3.175 218 222 230
-32.4590832 -3.3100309 3.175 218 222 230
-32.4590832 -3.3100309 4.7498 218 222 230
-32.5284625 -3.88142098 4.7498 218 222 230
-32.7325684 -4.41960394 4.7498 218 222 230
-33.0595389 -4.89330256 4.7498 218 222 230
-33.4903718 -5.27498718 4.7498 218 222 230
-34.0000286 -5.54247568 4.7498 218 222 230
-34.5588898 -5.68022261 4.7498 218 222 230
-35.1344766 -5.68022261 4.7498 218 222 230
-35.6933378 -5.54247568 4.7498 218 222 230
-36.2029946 -5.27498718 4.7498 218 222 230
-36.6338274 -4.89330256 4.7498 218 222 230
-36.960798 -4.41960394 4.7498 218 222 230
-37.1649039 -3.88142098 4.7498 218 222 230
-37.2342832 -3.3100309 4.7498 218 222 230
-37.1649039 -2.73864082 4.7498 218 222 230
-36.960798 -2.20045785 4.7498 218 222 230
-36.6338274 -1.72675924 4.7498 218 222 230
-36.2029946 -1.34507462 4.7498 218 222 230
-35.6933378 -1.07758612 4.7498 218 222 230
-35.1344766 -0.93983919 4.7498 218 222 230
-34.5588898 -0.93983919 4.7498 218 222 230
-34.0000286 -1.07758612 4.7498 218 222 230
-33.4903718 -1.34507462 4.7498 218 222 230
-33.0595389 -1.72675924 4.7498 218 222 230
-32.7325684 -2.20045785 4.7498 218 222 230
-32.5284625 -2.73864082 4.7498 218 222 230
-32.4590832 -3.3100309 4.7498 218 222 230
-32.4590832 -3.3100309 4.7498 218 222 230
-32.5284625 -3.88142098 4.7498 218 222 230
-32.7325684 -4.41960394 4.7498 218 222 230
-33.0595389 -4.89330256 4.7498 218 222 230
-33.4903718 -5.27498718 4.7498 218 222 230
-34.0000286 -5.54247568 4.7498 218 222 230
-34.5588898 -5.68022261 4.7498 218 222 230
-35.1344766 -5.68022261 4.7498 218 222 230
-35.6933378 -5.54247568 4.7498 218 222 230
-36.2029946 -5.27498718 4.7498 218 222 230
-36.6338274 -4.89330256 4.7498 218 222 230
-36.960798 -4.41960394 4.7498 218 222 230
-37.1649039 -3.88142098 4.7498 218 222 230
-37.2342832 -3.3100309 4.7498 218 222 230
-37.1649039 -2.73864082 4.7498 218 222 230
-36.960798 -2.20045785 4.7498 218 222 230
-36.6338274 -1.72675924 4.7498 218 222 230
-36.2029946 -1.34507462 4.7498 218 222 230
-35.6933378 -1.07758612 4.7498 218 222 230
-35.1344766 -0.93983919 4.7498 218 222 230
-34.5588898 -0.93983919 4.7498 218 222 230
-34.0000286 -1.07758612 4.7498 218 222 230
-33.4903718 -1.34507462 4.7498 218 222 230
-33.0595389 -1.72675924 4.7498 218 222 230
-32.7325684 -2.20045785 4.7498 218 222 230
-32.5284625 -2.73864082 4.7498 218 222 230
-24.5088832 -3.3100309 3.175 218 222 230
-24.5782625 -2.73864082 3.175 218 222 230
-24.7823684 -2.20045785 3.175 218 222 230
-25.1093389 -1.72675924 3.175 218 222 230
-25.5401718 -1.34507462 3.175 218 222 230
-26.0498286 -1.07758612 3.175 218 222 230
-26.6086898 -0.93983919 3.175 218 222 230
-27.1842766 -0.93983919 3.175 218 222 230
-27.7431378 -1.07758612 3.175 218 222 230
-28.2527946 -1.34507462 3.175 218 222 230
-28.6836274 -1.72675924 3.175 218 222 230
-29.010598 -2.20045785 3.175 218 222 230
-29.2147039 -2.73864082 3.175 218 222 230
-29.2840832 -3.3100309 3.175 218 222 230
-29.2147039 -3.88142098 3.175 218 222 230
-29.010598 -4.41960394 3.175 218 222 230
-28.6836274 -4.89330256 3.175 218 222 230
-28.2527946 -5.27498718 3.175 218 222 230
-27.7431378 -5.54247568 3.175 218 222 230
-27.1842766 -5.68022261 3.175 218 222 230
-26.6086898 -5.68022261 3.175 218 222 230
-26.0498286 -5.54247568 3.175 218 222 230
-25.5401718 -5.27498718 3.175 218 222 230
-25.1093389 -4.89330256 3.175 218 222 230
-24.7823684 -4.41960394 3.175 218 222 230
-24.5782625 -3.88142098 3.175 218 222 230
-24.5088832 -3.3100309 3.175 218 222 230
-24.5088832 -3.3100309 4.7498 218 222 230
-24.5782625 -3.88142098 4.7498 218 222 230
-24.7823684 -4.41960394 4.7498 218 222 230
-25.1093389 -4.89330256 4.7498 218 222 230
-25.5401718 -5.27498718 4.7498 218 222 230
-26.0498286 -5.54247568 4.7498 218 222 230
-26.6086898 -5.68022261 4.7498 218 222 230
-27.1842766 -5.68022261 4.7498 218 222 230
-27.7431378 -5.54247568 4.7498 218 222 230
-28.2527946 -5.27498718 4.7498 218 222 230
-28.6836274 -4.89330256 4.7498 218 222 230
-29.010598 -4.41960394 4.7498 218 222 230
-29.2147039 -3.88142098 4.7498 218 222 230
-29.2840832 -3.3100309 4.7498 218 222 230
-29.2147039 -2.73864082 4.7498 218 222 230
-29.010598 -2.20045785 4.7498 218 222 230
-28.6836274 -1.72675924 4.7498 218 222 230
-28.2527946 -1.34507462 4.7498 218 222 230
-27.7431378 -1.07758612 4.7498 218 222 230
-27.1842766 -0.93983919 4.7498 218 222 230
-26.6086898 -0.93983919 4.7498 218 222 230
-26.0498286 -1.07758612 4.7498 218 222 230
-25.5401718 -1.34507462 4.7498 218 222 230
-25.1093389 -1.72675924 4.7498 218 222 230
-24.7823684 -2.20045785 4.7498 218 222 230
-24.5782625 -2.73864082 4.7498 218 222 230
-24.5088832 -3.3100309 4.7498 218 222 230
-38.8090832 -7.2787809 3.175 218 222 230
-38.8090832 -7.2787809 0 218 222 230
-6.99558318 -7.2787809 3.175 218 222 230
-6.99558318 -7.2787809 0 218 222 230
-6.99558318 8.5962191 0 218 222 230
-6.99558318 -7.2787809 0 218 222 230
-6.99558318 8.5962191 3.175 218 222 230
-6.99558318 -7.2787809 3.175 218 222 230
-38.8090832 8.5962191 3.175 218 222 230
-38.8090832 8.5962191 0 218 222 230
-38.8090832 -7.2787809 3.175 218 222 230
-38.8090832 -7.2787809 0 218 222 230
-38.8090832 8.5962191 0 218 222 230
-6.99558318 8.5962191 0 218 222 230
-38.8090832 8.5962191 3.175 218 222 230
-6.99558318 8.5962191 3.175 218 222 230
-6.99558318 8.5962191 0 218 222 230
-6.99558318 -7.2787809 0 218 222 230
-38.8090832 8.5962191 0 218 222 230
-38.8090832 -7.2787809 0 218 222 230
-37.2088832 6.9960191 0 218 222 230
-8.59578318 6.9960191 0 218 222 230
-8.59578318 -5.6785809 0 218 222 230
-37.2088832 -5.6785809 0 218 222 230
-32.4590832 4.6274691 3.175 218 222 230
-32.5284625 5.19885918 3.175 218 222 230
-32.7325684 5.73704215 3.175 218 222 230
-33.0595389 6.21074076 3.175 218 222 230
-33.4903718 6.59242538 3.175 218 222 230
-34.0000286 6.85991388 3.175 218 222 230
-34.5588898 6.99766081 3.175 218 222 230
-35.1344766 6.99766081 3.175 218 222 230
-35.6933378 6.85991388 3.175 218 222 230
-36.2029946 6.59242538 3.175 218 222 230
-36.6338274 6.21074076 3.175 218 222 230
-36.960798 5.73704215 3.175 218 222 230
-37.1649039 5.19885918 3.175 218 222 230
-37.2342832 4.6274691 3.175 218 222 230
-37.1649039 4.05607902 3.175 218 222 230
-36.960798 3.51789606 3.175 218 222 230
-36.6338274 3.04419744 3.175 218 222 230
-36.2029946 2.66251282 3.175 218 222 230
-35.6933378 2.39502432 3.175 218 222 230
-35.1344766 2.25727739 3.175 218 222 230
-34.5588898 2.25727739 3.175 218 222 230
-34.0000286 2.39502432 3.175 218 222 230
-33.4903718 2.66251282 3.175 218 222 230
-33.0595389 3.04419744 3.175 218 222 230
-32.7325684 3.51789606 3.175 218 222 230
-32.5284625 4.05607902 3.175 218 222 230
-32.4590832 4.6274691 3.175 218 222 230
-32.4590832 4.6274691 4.7498 218 222 230
-32.4590832 4.6274691 4.7498 218 222 230
-32.5284625 5.19885918 4.7498 218 222 230
-32.7325684 5.73704215 4.7498 218 222 230
-33.0595389 6.21074076 4.7498 218 222 230
-33.4903718 6.59242538 4.7498 218 222 230
-34.0000286 6.85991388 4.7498 218 222 230
-34.5588898 6.99766081 4.7498 218 222 230
-35.1344766 6.99766081 4.7498 218 222 230
-35.6933378 6.85991388 4.7498 218 222 230
-36.2029946 6.59242538 4.7498 218 222 230
-36.6338274 6.21074076 4.7498 218 222 230
-36.960798 5.73704215 4.7498 218 222 230
-37.1649039 5.19885918 4.7498 218 222 230
-37.2342832 4.6274691 4.7498 218 222 230
-37.1649039 4.05607902 4.7498 218 222 230
-36.960798 3.51789606 4.7498 218 222 230
-36.6338274 3.04419744 4.7498 218 222 230
-36.2029946 2.66251282 4.7498 218 222 230
-35.6933378 2.39502432 4.7498 218 222 230
-35.1344766 2.25727739 4.7498 218 222 230
-34.5588898 2.25727739 4.7498 218 222 230
-34.0000286 2.39502432 4.7498 218 222 230
-33.4903718 2.66251282 4.7498 218 222 230
-33.0595389 3.04419744 4.7498 218 222 230
-32.7325684 3.51789606 4.7498 218 222 230
-32.5284625 4.05607902 4.7498 218 222 230
-32.4590832 4.6274691 4.7498 218 222 230
-32.5284625 5.19885918 4.7498 218 222 230
-32.7325684 5.73704215 4.7498 218 222 230
-33.0595389 6.21074076 4.7498 218 222 230
-33.4903718 6.59242538 4.7498 218 222 230
-34.0000286 6.85991388 4.7498 218 222 230
-34.5588898 6.99766081 4.7498 218 222 230
-35.1344766 6.99766081 4.7498 218 222 230
-35.6933378 6.85991388 4.7498 218 222 230
-36.2029946 6.59242538 4.7498 218 222 230
-36.6338274 6.21074076 4.7498 218 222 230
-36.960798 5.73704215 4.7498 218 222 230
-37.1649039 5.19885918 4.7498 218 222 230
-37.2342832 4.6274691 4.7498 218 222 230
-37.1649039 4.05607902 4.7498 218 222 230
-36.960798 3.51789606 4.7498 218 222 230
-36.6338274 3.04419744 4.7498 218 222 230
-36.2029946 2.66251282 4.7498 218 222 230
-35.6933378 2.39502432 4.7498 218 222 230
-35.1344766 2.25727739 4.7498 218 222 230
-34.5588898 2.25727739 4.7498 218 222 230
-34.0000286 2.39502432 4.7498 218 222 230
-33.4903718 2.66251282 4.7498 218 222 230
-33.0595389 3.04419744 4.7498 218 222 230
-32.7325684 3.51789606 4.7498 218 222 230
-32.5284625 4.05607902 4.7498 218 222 230
-24.5088832 4.6274691 3.175 218 222 230
-24.5782625 5.19885918 3.175 218 222 230
-24.7823684 5.73704215 3.175 218 222 230
-25.1093389 6.21074076 3.175 218 222 230
-25.5401718 6.59242538 3.175 218 222 230
-26.0498286 6.85991388 3.175 218 222 230
-26.6086898 6.99766081 3.175 218 222 230
-27.1842766 6.99766081 3.175 218 222 230
-27.7431378 6.85991388 3.175 218 222 230
-28.2527946 6.59242538 3.175 218 222 230
-28.6836274 6.21074076 3.175 218 222 230
-29.010598 5.73704215 3.175 218 222 230
-29.2147039 5.19885918 3.175 218 222 230
-29.2840832 4.6274691 3.175 218 222 230
-29.2147039 4.05607902 3.175 218 222 230
-29.010598 3.51789606 3.175 218 222 230
-28.6836274 3.04419744 3.175 218 222 230
-28.2527946 2.66251282 3.175 218 222 230
-27.7431378 2.39502432 3.175 218 222 230
-27.1842766 2.25727739 3.175 218 222 230
-26.6086898 2.25727739 3.175 218 222 230
-26.0498286 2.39502432 3.175 218 222 230
-25.5401718 2.66251282 3.175 218 222 230
-25.1093389 3.04419744 3.175 218 222 230
-24.7823684 3.51789606 3.175 218 222 230
-24.5782625 4.05607902 3.175 218 222 230
-24.5088832 4.6274691 3.175 218 222 230
-24.5088832 4.6274691 4.7498 218 222 230
-24.5088832 4.6274691 4.7498 218 222 230
-24.5782625 5.19885918 4.7498 218 222 230
-24.7823684 5.73704215 4.7498 218 222 230
-25.1093389 6.21074076 4.7498 218 222 230
-25.5401718 6.59242538 4.7498 218 222 230
-26.0498286 6.85991388 4.7498 218 222 230
-26.6086898 6.99766081 4.7498 218 222 230
-27.1842766 6.99766081 4.7498 218 222 230
-27.7431378 6.85991388 4.7498 218 222 230
-28.2527946 6.59242538 4.7498 218 222 230
-28.6836274 6.21074076 4.7498 218 222 230
-29.010598 5.73704215 4.7498 218 222 230
-29.2147039 5.19885918 4.7498 218 222 230
-29.2840832 4.6274691 4.7498 218 222 230
-29.2147039 4.05607902 4.7498 218 222 230
-29.010598 3.51789606 4.7498 218 222 230
-28.6836274 3.04419744 4.7498 218 222 230
-28.2527946 2.66251282 4.7498 218 222 230
-27.7431378 2.39502432 4.7498 218 222 230
-27.1842766 2.25727739 4.7498 218 222 230
-26.6086898 2.25727739 4.7498 218 222 230
-26.0498286 2.39502432 4.7498 218 222 230
-25.5401718 2.66251282 4.7498 218 222 230
-25.1093389 3.04419744 4.7498 218 222 230
-24.7823684 3.51789606 4.7498 218 222 230
-24.5782625 4.05607902 4.7498 218 222 230
-24.5088832 4.6274691 4.7498 218 222 230
-24.5782625 5.19885918 4.7498 218 222 230
-24.7823684 5.73704215 4.7498 218 222 230
-25.1093389 6.21074076 4.7498 218 222 230
-25.5401718 6.59242538 4.7498 218 222 230
-26.0498286 6.85991388 4.7498 218 222 230
-26.6086898 6.99766081 4.7498 218 222 230
-27.1842766 6.99766081 4.7498 218 222 230
-27.7431378 6.85991388 4.7498 218 222 230
-28.2527946 6.59242538 4.7498 218 222 230
-28.6836274 6.21074076 4.7498 218 222 230
-29.010598 5.73704215 4.7498 218 222 230
-29.2147039 5.19885918 4.7498 218 222 230
-29.2840832 4.6274691 4.7498 218 222 230
-29.2147039 4.05607902 4.7498 218 222 230
-29.010598 3.51789606 4.7498 218 222 230
-28.6836274 3.04419744 4.7498 218 222 230
-28.2527946 2.66251282 4.7498 218 222 230
-27.7431378 2.39502432 4.7498 218 222 230
-27.1842766 2.25727739 4.7498 218 222 230
-26.6086898 2.25727739 4.7498 218 222 230
-26.0498286 2.39502432 4.7498 218 222 230
-25.5401718 2.66251282 4.7498 218 222 230
-25.1093389 3.04419744 4.7498 218 222 230
-24.7823684 3.51789606 4.7498 218 222 230
-24.5782625 4.05607902 4.7498 218 222 230
-16.5586832 4.6274691 3.175 218 222 230
-16.6280625 5.19885918 3.175 218 222 230
-16.8321684 5.73704215 3.175 218 222 230
-17.1591389 6.21074076 3.175 218 222 230
-17.5899718 6.59242538 3.175 218 222 230
-18.0996286 6.85991388 3.175 218 222 230
-18.6584898 6.99766081 3.175 218 222 230
-19.2340766 6.99766081 3.175 218 222 230
-19.7929378 6.85991388 3.175 218 222 230
-20.3025946 6.59242538 3.175 218 222 230
-20.7334274 6.21074076 3.175 218 222 230
-21.060398 5.73704215 3.175 218 222 230
-21.2645039 5.19885918 3.175 218 222 230
-21.3338832 4.6274691 3.175 218 222 230
-21.2645039 4.05607902 3.175 218 222 230
-21.060398 3.51789606 3.175 218 222 230
-20.7334274 3.04419744 3.175 218 222 230
-20.3025946 2.66251282 3.175 218 222 230
-19.7929378 2.39502432 3.175 218 222 230
-19.2340766 2.25727739 3.175 218 222 230
-18.6584898 2.25727739 3.175 218 222 230
-18.0996286 2.39502432 3.175 218 222 230
-17.5899718 2.66251282 3.175 218 222 230
-17.1591389 3.04419744 3.175 218 222 230
-16.8321684 3.51789606 3.175 218 222 230
-16.6280625 4.05607902 3.175 218 222 230
-16.5586832 4.6274691 3.175 218 222 230
-16.5586832 4.6274691 4.7498 218 222 230
-16.5586832 4.6274691 4.7498 218 222 230
-16.6280625 5.19885918 4.7498 218 222 230
-16.8321684 5.73704215 4.7498 218 222 230
-17.1591389 6.21074076 4.7498 218 222 230
-17.5899718 6.59242538 4.7498 218 222 230
-18.0996286 6.85991388 4.7498 218 222 230
-18.6584898 6.99766081 4.7498 218 222 230
-19.2340766 6.99766081 4.7498 218 222 230
-19.7929378 6.85991388 4.7498 218 222 230
-20.3025946 6.59242538 4.7498 218 222 230
-20.7334274 6.21074076 4.7498 218 222 230
-21.060398 5.73704215 4.7498 218 222 230
-21.2645039 5.19885918 4.7498 218 222 230
-21.3338832 4.6274691 4.7498 218 222 230
-21.2645039 4.05607902 4.7498 218 222 230
-21.060398 3.51789606 4.7498 218 222 230
-20.7334274 3.04419744 4.7498 218 222 230
-20.3025946 2.66251282 4.7498 218 222 230
-19.7929378 2.39502432 4.7498 218 222 230
-19.2340766 2.25727739 4.7498 218 222 230
-18.6584898 2.25727739 4.7498 218 222 230
-18.0996286 2.39502432 4.7498 218 222 230
-17.5899718 2.66251282 4.7498 218 222 230
-17.1591389 3.04419744 4.7498 218 222 230
-16.8321684 3.51789606 4.7498 218 222 230
-16.6280625 4.05607902 4.7498 218 222 230
-16.5586832 4.6274691 4.7498 218 222 230
-16.6280625 5.19885918 4.7498 218 222 230
-16.8321684 5.73704215 4.7498 218 222 230
-17.1591389 6.21074076 4.7498 218 222 230
-17.5899718 6.59242538 4.7498 218 222 230
-18.0996286 6.85991388 4.7498 218 222 230
-18.6584898 6.99766081 4.7498 218 222 230
-19.2340766 6.99766081 4.7498 218 222 230
-19.7929378 6.85991388 4.7498 218 222 230
-20.3025946 6.59242538 4.7498 218 222 230
-20.7334274 6.21074076 4.7498 218 222 230
-21.060398 5.73704215 4.7498 218 222 230
-21.2645039 5.19885918 4.7498 218 222 230
-21.3338832 4.6274691 4.7498 218 222 230
-21.2645039 4.05607902 4.7498 218 222 230
-21.060398 3.51789606 4.7498 218 222 230
-20.7334274 3.04419744 4.7498 218 222 230
-20.3025946 2.66251282 4.7498 218 222 230
-19.7929378 2.39502432 4.7498 218 222 230
-19.2340766 2.25727739 4.7498 218 222 230
-18.6584898 2.25727739 4.7498 218 222 230
-18.0996286 2.39502432 4.7498 218 222 230
-17.5899718 2.66251282 4.7498 218 222 230
-17.1591389 3.04419744 4.7498 218 222 230
-16.8321684 3.51789606 4.7498 218 222 230
-16.6280625 4.05607902 4.7498 218 222 230
-8.60848318 4.6274691 3.175 218 222 230
-8.6778625 5.19885918 3.175 218 222 230
-8.88196838 5.73704215 3.175 218 222 230
-9.20893892 6.21074076 3.175 218 222 230
-9.63977179 6.59242538 3.175 218 222 230
-10.1494286 6.85991388 3.175 218 222 230
-10.7082898 6.99766081 3.175 218 222 230
-11.2838766 6.99766081 3.175 218 222 230
-11.8427378 6.85991388 3.175 218 222 230
-12.3523946 6.59242538 3.175 218 222 230
-12.7832274 6.21074076 3.175 218 222 230
-13.110198 5.73704215 3.175 218 222 230
-13.3143039 5.19885918 3.175 218 222 230
-13.3836832 4.6274691 3.175 218 222 230
-13.3143039 4.05607902 3.175 218 222 230
-13.110198 3.51789606 3.175 218 222 230
-12.7832274 3.04419744 3.175 218 222 230
-12.3523946 2.66251282 3.175 218 222 230
-11.8427378 2.39502432 3.175 218 222 230
-11.2838766 2.25727739 3.175 218 222 230
-10.7082898 2.25727739 3.175 218 222 230
-10.1494286 2.39502432 3.175 218 222 230
-9.63977179 2.66251282 3.175 218 222 230
-9.20893892 3.04419744 3.175 218 222 230
-8.88196838 3.51789606 3.175 218 222 230
-8.6778625 4.05607902 3.175 218 222 230
-8.60848318 4.6274691 3.175 218 222 230
-8.60848318 4.6274691 4.7498 218 222 230
-8.60848318 4.6274691 4.7498 218 222 230
-8.6778625 5.19885918 4.7498 218 222 230
-8.88196838 5.73704215 4.7498 218 222 230
-9.20893892 6.21074076 4.7498 218 222 230
-9.63977179 6.59242538 4.7498 218 222 230
-10.1494286 6.85991388 4.7498 218 222 230
-10.7082898 6.99766081 4.7498 218 222 230
-11.2838766 6.99766081 4.7498 218 222 230
-11.8427378 6.85991388 4.7498 218 222 230
-12.3523946 6.59242538 4.7498 218 222 230
-12.7832274 6.21074076 4.7498 218 222 230
-13.110198 5.73704215 4.7498 218 222 230
-13.3143039 5.19885918 4.7498 218 222 230
-13.3836832 4.6274691 4.7498 218 222 230
-13.3143039 4.05607902 4.7498 218 222 230
-13.110198 3.51789606 4.7498 218 222 230
-12.7832274 3.04419744 4.7498 218 222 230
-12.3523946 2.66251282 4.7498 218 222 230
-11.8427378 2.39502432 4.7498 218 222 230
-11.2838766 2.25727739 4.7498 218 222 230
-10.7082898 2.25727739 4.7498 218 222 230
-10.1494286 2.39502432 4.7498 218 222 230
-9.63977179 2.66251282 4.7498 218 222 230
-9.20893892 3.04419744 4.7498 218 222 230
-8.88196838 3.51789606 4.7498 218 222 230
-8.6778625 4.05607902 4.7498 218 222 230
-8.60848318 4.6274691 4.7498 218 222 230
-8.6778625 5.19885918 4.7498 218 222 230
-8.88196838 5.73704215 4.7498 218 222 230
-9.20893892 6.21074076 4.7498 218 222 230
-9.63977179 6.59242538 4.7498 218 222 230
-10.1494286 6.85991388 4.7498 218 222 230
-10.7082898 6.99766081 4.7498 218 222 230
-11.2838766 6.99766081 4.7498 218 222 230
-11.8427378 6.85991388 4.7498 218 222 230
-12.3523946 6.59242538 4.7498 218 222 230
-12.7832274 6.21074076 4.7498 218 222 230
-13.110198 5.73704215 4.7498 218 222 230
-13.3143039 5.19885918 4.7498 218 222 230
-13.3836832 4.6274691 4.7498 218 222 230
-13.3143039 4.05607902 4.7498 218 222 230
-13.110198 3.51789606 4.7498 218 222 230
-12.7832274 3.04419744 4.7498 218 222 230
-12.3523946 2.66251282 4.7498 218 222 230
-11.8427378 2.39502432 4.7498 218 222 230
-11.2838766 2.25727739 4.7498 218 222 230
-10.7082898 2.25727739 4.7498 218 222 230
-10.1494286 2.39502432 4.7498 218 222 230
-9.63977179 2.66251282 4.7498 218 222 230
-9.20893892 3.04419744 4.7498 218 222 230
-8.88196838 3.51789606 4.7498 218 222 230
-8.6778625 4.05607902 4.7498 218 222 230
-16.5586832 -3.3100309 3.175 218 222 230
-16.6280625 -2.73864082 3.175 218 222 230
-16.8321684 -2.20045785 3.175 218 222 230
-17.1591389 -1.72675924 3.175 218 222 230
-17.5899718 -1.34507462 3.175 218 222 230
-18.0996286 -1.07758612 3.175 218 222 230
-18.6584898 -0.93983919 3.175 218 222 230
-19.2340766 -0.93983919 3.175 218 222 230
-19.7929378 -1.07758612 3.175 218 222 230
-20.3025946 -1.34507462 3.175 218 222 230
-20.7334274 -1.72675924 3.175 218 222 230
-21.060398 -2.20045785 3.175 218 222 230
-21.2645039 -2.73864082 3.175 218 222 230
-21.3338832 -3.3100309 3.175 218 222 230
-21.2645039 -3.88142098 3.175 218 222 230
-21.060398 -4.41960394 3.175 218 222 230
-20.7334274 -4.89330256 3.175 218 222 230
-20.3025946 -5.27498718 3.175 218 222 230
-19.7929378 -5.54247568 3.175 218 222 230
-19.2340766 -5.68022261 3.175 218 222 230
-18.6584898 -5.68022261 3.175 218 222 230
-18.0996286 -5.54247568 3.175 218 222 230
-17.5899718 -5.27498718 3.175 218 222 230
-17.1591389 -4.89330256 3.175 218 222 230
-16.8321684 -4.41960394 3.175 218 222 230
-16.6280625 -3.88142098 3.175 218 222 230
-16.5586832 -3.3100309 3.175 218 222 230
-16.5586832 -3.3100309 4.7498 218 222 230
-16.6280625 -3.88142098 4.7498 218 222 230
-16.8321684 -4.41960394 4.7498 218 222 230
-17.1591389 -4.89330256 4.7498 218 222 230
-17.5899718 -5.27498718 4.7498 218 222 230
-18.0996286 -5.54247568 4.7498 218 222 230
-18.6584898 -5.68022261 4.7498 218 222 230
-19.2340766 -5.68022261 4.7498 218 222 230
-19.7929378 -5.54247568 4.7498 218 222 230
-20.3025946 -5.27498718 4.7498 218 222 230
-20.7334274 -4.89330256 4.7498 218 222 230
-21.060398 -4.41960394 4.7498 218 222 230
-21.2645039 -3.88142098 4.7498 218 222 230
-21.3338832 -3.3100309 4.7498 218 222 230
-21.2645039 -2.73864082 4.7498 218 222 230
-21.060398 -2.20045785 4.7498 218 222 230
-20.7334274 -1.72675924 4.7498 218 222 230
-20.3025946 -1.34507462 4.7498 218 222 230
-19.7929378 -1.07758612 4.7498 218 222 230
-19.2340766 -0.93983919 4.7498 218 222 230
-18.6584898 -0.93983919 4.7498 218 222 230
-18.0996286 -1.07758612 4.7498 218 222 230
-17.5899718 -1.34507462 4.7498 218 222 230
-17.1591389 -1.72675924 4.7498 218 222 230
-16.8321684 -2.20045785 4.7498 218 222 230
-16.6280625 -2.73864082 4.7498 218 222 230
-16.5586832 -3.3100309 4.7498 218 222 230
-8.60848318 -3.3100309 3.175 218 222 230
-8.6778625 -2.73864082 3.175 218 222 230
-8.88196838 -2.20045785 3.175 218 222 230
-9.20893892 -1.72675924 3.175 218 222 230
-9.63977179 -1.34507462 3.175 218 222 230
-10.1494286 -1.07758612 3.175 218 222 230
-10.7082898 -0.93983919 3.175 218 222 230
-11.2838766 -0.93983919 3.175 218 222 230
-11.8427378 -1.07758612 3.175 218 222 230
-12.3523946 -1.34507462 3.175 218 222 230
-12.7832274 -1.72675924 3.175 218 222 230
-13.110198 -2.20045785 3.175 218 222 230
-13.3143039 -2.73864082 3.175 218 222 230
-13.3836832 -3.3100309 3.175 218 222 230
-13.3143039 -3.88142098 3.175 218 222 230
-13.110198 -4.41960394 3.175 218 222 230
-12.7832274 -4.89330256 3.175 218 222 230
-12.3523946 -5.27498718 3.175 218 222 230
-11.8427378 -5.54247568 3.175 218 222 230
-11.2838766 -5.68022261 3.175 218 222 230
-10.7082898 -5.68022261 3.175 218 222 230
-10.1494286 -5.54247568 3.175 218 222 230
-9.63977179 -5.27498718 3.175 218 222 230
-9.20893892 -4.89330256 3.175 218 222 230
-8.88196838 -4.41960394 3.175 218 222 230
-8.6778625 -3.88142098 3.175 218 222 230
-8.60848318 -3.3100309 3.175 218 222 230
-8.60848318 -3.3100309 4.7498 218 222 230
-8.6778625 -3.88142098 4.7498 218 222 230
-8.88196838 -4.41960394 4.7498 218 222 230
-9.20893892 -4.89330256 4.7498 218 222 230
-9.63977179 -5.27498718 4.7498 218 222 230
-10.1494286 -5.54247568 4.7498 218 222 230
-10.7082898 -5.68022261 4.7498 218 222 230
-11.2838766 -5.68022261 4.7498 218 222 230
-11.8427378 -5.54247568 4.7498 218 222 230
-12.3523946 -5.27498718 4.7498 218 222 230
-12.7832274 -4.89330256 4.7498 218 222 230
-13.110198 -4.41960394 4.7498 218 222 230
-13.3143039 -3.88142098 4.7498 218 222 230
-13.3836832 -3.3100309 4.7498 218 222 230
-13.3143039 -2.73864082 4.7498 218 222 230
-13.110198 -2.20045785 4.7498 218 222 230
-12.7832274 -1.72675924 4.7498 218 222 230
-12.3523946 -1.34507462 4.7498 218 222 230
-11.8427378 -1.07758612 4.7498 218 222 230
-11.2838766 -0.93983919 4.7498 218 222 230
-10.7082898 -0.93983919 4.7498 218 222 230
-10.1494286 -1.07758612 4.7498 218 222 230
-9.63977179 -1.34507462 4.7498 218 222 230
-9.20893892 -1.72675924 4.7498 218 222 230
-8.88196838 -2.20045785 4.7498 218 222 230
-8.6778625 -2.73864082 4.7498 218 222 230
-8.60848318 -3.3100309 4.7498 218 222 230
-8.60848318 -3.3100309 4.7498 218 222 230
-8.6778625 -3.88142098 4.7498 218 222 230
-8.88196838 -4.41960394 4.7498 218 222 230
-9.20893892 -4.89330256 4.7498 218 222 230
-9.63977179 -5.27498718 4.7498 218 222 230
-10.1494286 -5.54247568 4.7498 218 222 230
-10.7082898 -5.68022261 4.7498 218 222 230
-11.2838766 -5.68022261 4.7498 218 222 230
-11.8427378 -5.54247568 4.7498 218 222 230
-12.3523946 -5.27498718 4.7498 218 222 230
-12.7832274 -4.89330256 4.7498 218 222 230
-13.110198 -4.41960394 4.7498 218 222 230
-13.3143039 -3.88142098 4.7498 218 222 230
-13.3836832 -3.3100309 4.7498 218 222 230
-13.3143039 -2.73864082 4.7498 218 222 230
-13.110198 -2.20045785 4.7498 218 222 230
-12.7832274 -1.72675924 4.7498 218 222 230
-12.3523946 -1.34507462 4.7498 218 222 230
-11.8427378 -1.07758612 4.7498 218 222 230
-11.2838766 -0.93983919 4.7498 218 222 230
-10.7082898 -0.93983919 4.7498 218 222 230
-10.1494286 -1.07758612 4.7498 218 222 230
-9.63977179 -1.34507462 4.7498 218 222 230
-9.20893892 -1.72675924 4.7498 218 222 230
-8.88196838 -2.20045785 4.7498 218 222 230
-8.6778625 -2.73864082 4.7498 218 222 230
-37.2088832 -5.6785809 0 218 222 230
-8.59578318 -5.6785809 0 218 222 230
-37.2088832 -5.6785809 1.5748 218 222 230
-8.59578318 -5.6785809 1.5748 218 222 230
-8.59578318 6.9960191 1.5748 218 222 230
-8.59578318 6.9960191 0 218 222 230
-8.59578318 -5.6785809 1.5748 218 222 230
-8.59578318 -5.6785809 0 218 222 230
-37.2088832 6.9960191 1.5748 218 222 230
-37.2088832 6.9960191 0 218 222 230
-8.59578318 6.9960191 1.5748 218 222 230
-8.59578318 6.9960191 0 218 222 230
-37.2088832 6.9960191 0 218 222 230
-37.2088832 -5.6785809 0 218 222 230
-37.2088832 6.9960191 1.5748 218 222 230
-37.2088832 -5.6785809 1.5748 218 222 230
-8.59578318 6.9960191 1.5748 218 222 230
-8.59578318 -5.6785809 1.5748 218 222 230
-37.2088832 6.9960191 1.5748 218 222 230
-37.2088832 -5.6785809 1.5748 218 222 230
-26.1090832 4.6274691 1.5748 218 222 230
-26.1319636 4.81590626 1.5748 218 222 230
-26.1992751 4.99339213 1.5748 218 222 230
-26.3071058 5.14961188 1.5748 218 222 230
-26.449189 5.2754866 1.5748 218 222 230
-26.6172673 5.36370089 1.5748 218 222 230
-26.8015726 5.40912807 1.5748 218 222 230
-26.9913938 5.40912807 1.5748 218 222 230
-27.1756991 5.36370089 1.5748 218 222 230
-27.3437774 5.2754866 1.5748 218 222 230
-27.4858605 5.14961188 1.5748 218 222 230
-27.5936913 4.99339213 1.5748 218 222 230
-27.6610028 4.81590626 1.5748 218 222 230
-27.6838832 4.6274691 1.5748 218 222 230
-27.6610028 4.43903195 1.5748 218 222 230
-27.5936913 4.26154608 1.5748 218 222 230
-27.4858605 4.10532632 1.5748 218 222 230
-27.3437774 3.97945161 1.5748 218 222 230
-27.1756991 3.89123731 1.5748 218 222 230
-26.9913938 3.84581013 1.5748 218 222 230
-26.8015726 3.84581013 1.5748 218 222 230
-26.6172673 3.89123731 1.5748 218 222 230
-26.449189 3.97945161 1.5748 218 222 230
-26.3071058 4.10532632 1.5748 218 222 230
-26.1992751 4.26154608 1.5748 218 222 230
-26.1319636 4.43903195 1.5748 218 222 230
-18.1588832 4.6274691 1.5748 218 222 230
-18.1817636 4.81590626 1.5748 218 222 230
-18.2490751 4.99339213 1.5748 218 222 230
-18.3569058 5.14961188 1.5748 218 222 230
-18.498989 5.2754866 1.5748 218 222 230
-18.6670673 5.36370089 1.5748 218 222 230
-18.8513726 5.40912807 1.5748 218 222 230
-19.0411938 5.40912807 1.5748 218 222 230
-19.2254991 5.36370089 1.5748 218 222 230
-19.3935774 5.2754866 1.5748 218 222 230
-19.5356605 5.14961188 1.5748 218 222 230
-19.6434913 4.99339213 1.5748 218 222 230
-19.7108028 4.81590626 1.5748 218 222 230
-19.7336832 4.6274691 1.5748 218 222 230
-19.7108028 4.43903195 1.5748 218 222 230
-19.6434913 4.26154608 1.5748 218 222 230
-19.5356605 4.10532632 1.5748 218 222 230
-19.3935774 3.97945161 1.5748 218 222 230
-19.2254991 3.89123731 1.5748 218 222 230
-19.0411938 3.84581013 1.5748 218 222 230
-18.8513726 3.84581013 1.5748 218 222 230
-18.6670673 3.89123731 1.5748 218 222 230
-18.498989 3.97945161 1.5748 218 222 230
-18.3569058 4.10532632 1.5748 218 222 230
-18.2490751 4.26154608 1.5748 218 222 230
-18.1817636 4.43903195 1.5748 218 222 230
-10.2086832 4.6274691 1.5748 218 222 230
-10.2315636 4.81590626 1.5748 218 222 230
-10.2988751 4.99339213 1.5748 218 222 230
-10.4067058 5.14961188 1.5748 218 222 230
-10.548789 5.2754866 1.5748 218 222 230
-10.7168673 5.36370089 1.5748 218 222 230
-10.9011726 5.40912807 1.5748 218 222 230
-11.0909938 5.40912807 1.5748 218 222 230
-11.2752991 5.36370089 1.5748 218 222 230
-11.4433774 5.2754866 1.5748 218 222 230
-11.5854605 5.14961188 1.5748 218 222 230
-11.6932913 4.99339213 1.5748 218 222 230
-11.7606028 4.81590626 1.5748 218 222 230
-11.7834832 4.6274691 1.5748 218 222 230
-11.7606028 4.43903195 1.5748 218 222 230
-11.6932913 4.26154608 1.5748 218 222 230
-11.5854605 4.10532632 1.5748 218 222 230
-11.4433774 3.97945161 1.5748 218 222 230
-11.2752991 3.89123731 1.5748 218 222 230
-11.0909938 3.84581013 1.5748 218 222 230
-10.9011726 3.84581013 1.5748 218 222 230
-10.7168673 3.89123731 1.5748 218 222 230
-10.548789 3.97945161 1.5748 218 222 230
-10.4067058 4.10532632 1.5748 218 222 230
-10.2988751 4.26154608 1.5748 218 222 230
-10.2315636 4.43903195 1.5748 218 222 230
-34.0592832 4.6274691 1.5748 218 222 230
-34.0821636 4.81590626 1.5748 218 222 230
-34.1494751 4.99339213 1.5748 218 222 230
-34.2573058 5.14961188 1.5748 218 222 230
-34.399389 5.2754866 1.5748 218 222 230
-34.5674673 5.36370089 1.5748 218 222 230
-34.7517726 5.40912807 1.5748 218 222 230
-34.9415938 5.40912807 1.5748 218 222 230
-35.1258991 5.36370089 1.5748 218 222 230
-35.2939774 5.2754866 1.5748 218 222 230
-35.4360605 5.14961188 1.5748 218 222 230
-35.5438913 4.99339213 1.5748 218 222 230
-35.6112028 4.81590626 1.5748 218 222 230
-35.6340832 4.6274691 1.5748 218 222 230
-35.6112028 4.43903195 1.5748 218 222 230
-35.5438913 4.26154608 1.5748 218 222 230
-35.4360605 4.10532632 1.5748 218 222 230
-35.2939774 3.97945161 1.5748 218 222 230
-35.1258991 3.89123731 1.5748 218 222 230
-34.9415938 3.84581013 1.5748 218 222 230
-34.7517726 3.84581013 1.5748 218 222 230
-34.5674673 3.89123731 1.5748 218 222 230
-34.399389 3.97945161 1.5748 218 222 230
-34.2573058 4.10532632 1.5748 218 222 230
-34.1494751 4.26154608 1.5748 218 222 230
-34.0821636 4.43903195 1.5748 218 222 230
-10.2086832 -3.3100309 1.5748 218 222 230
-10.2315636 -3.12159374 1.5748 218 222 230
-10.2988751 -2.94410787 1.5748 218 222 230
-10.4067058 -2.78788812 1.5748 218 222 230
-10.548789 -2.6620134 1.5748 218 222 230
-10.7168673 -2.57379911 1.5748 218 222 230
-10.9011726 -2.52837193 1.5748 218 222 230
-11.0909938 -2.52837193 1.5748 218 222 230
-11.2752991 -2.57379911 1.5748 218 222 230
-11.4433774 -2.6620134 1.5748 218 222 230
-11.5854605 -2.78788812 1.5748 218 222 230
-11.6932913 -2.94410787 1.5748 218 222 230
-11.7606028 -3.12159374 1.5748 218 222 230
-11.7834832 -3.3100309 1.5748 218 222 230
-11.7606028 -3.49846805 1.5748 218 222 230
-11.6932913 -3.67595392 1.5748 218 222 230
-11.5854605 -3.83217368 1.5748 218 222 230
-11.4433774 -3.95804839 1.5748 218 222 230
-11.2752991 -4.04626269 1.5748 218 222 230
-11.0909938 -4.09168987 1.5748 218 222 230
-10.9011726 -4.09168987 1.5748 218 222 230
-10.7168673 -4.04626269 1.5748 218 222 230
-10.548789 -3.95804839 1.5748 218 222 230
-10.4067058 -3.83217368 1.5748 218 222 230
-10.2988751 -3.67595392 1.5748 218 222 230
-10.2315636 -3.49846805 1.5748 218 222 230
-18.1588832 -3.3100309 1.5748 218 222 230
-18.1817636 -3.12159374 1.5748 218 222 230
-18.2490751 -2.94410787 1.5748 218 222 230
-18.3569058 -2.78788812 1.5748 218 222 230
-18.498989 -2.6620134 1.5748 218 222 230
-18.6670673 -2.57379911 1.5748 218 222 230
-18.8513726 -2.52837193 1.5748 218 222 230
-19.0411938 -2.52837193 1.5748 218 222 230
-19.2254991 -2.57379911 1.5748 218 222 230
-19.3935774 -2.6620134 1.5748 218 222 230
-19.5356605 -2.78788812 1.5748 218 222 230
-19.6434913 -2.94410787 1.5748 218 222 230
-19.7108028 -3.12159374 1.5748 218 222 230
-19.7336832 -3.3100309 1.5748 218 222 230
-19.7108028 -3.49846805 1.5748 218 222 230
-19.6434913 -3.67595392 1.5748 218 222 230
-19.5356605 -3.83217368 1.5748 218 222 230
-19.3935774 -3.95804839 1.5748 218 222 230
-19.2254991 -4.04626269 1.5748 218 222 230
-19.0411938 -4.09168987 1.5748 218 222 230
-18.8513726 -4.09168987 1.5748 218 222 230
-18.6670673 -4.04626269 1.5748 218 222 230
-18.498989 -3.95804839 1.5748 218 222 230
-18.3569058 -3.83217368 1.5748 218 222 230
-18.2490751 -3.67595392 1.5748 218 222 230
-18.1817636 -3.49846805 1.5748 218 222 230
-26.1090832 -3.3100309 1.5748 218 222 230
-26.1319636 -3.12159374 1.5748 218 222 230
-26.1992751 -2.94410787 1.5748 218 222 230
-26.3071058 -2.78788812 1.5748 218 222 230
-26.449189 -2.6620134 1.5748 218 222 230
-26.6172673 -2.57379911 1.5748 218 222 230
-26.8015726 -2.52837193 1.5748 218 222 230
-26.9913938 -2.52837193 1.5748 218 222 230
-27.1756991 -2.57379911 1.5748 218 222 230
-27.3437774 -2.6620134 1.5748 218 222 230
-27.4858605 -2.78788812 1.5748 218 222 230
-27.5936913 -2.94410787 1.5748 218 222 230
-27.6610028 -3.12159374 1.5748 218 222 230
-27.6838832 -3.3100309 1.5748 218 222 230
-27.6610028 -3.49846805 1.5748 218 222 230
-27.5936913 -3.67595392 1.5748 218 222 230
-27.4858605 -3.83217368 1.5748 218 222 230
-27.3437774 -3.95804839 1.5748 218 222 230
-27.1756991 -4.04626269 1.5748 218 222 230
-26.9913938 -4.09168987 1.5748 218 222 230
-26.8015726 -4.09168987 1.5748 218 222 230
-26.6172673 -4.04626269 1.5748 218 222 230
-26.449189 -3.95804839 1.5748 218 222 230
-26.3071058 -3.83217368 1.5748 218 222 230
-26.1992751 -3.67595392 1.5748 218 222 230
-26.1319636 -3.49846805 1.5748 218 222 230
-34.0592832 -3.3100309 1.5748 218 222 230
-34.0821636 -3.12159374 1.5748 218 222 230
-34.1494751 -2.94410787 1.5748 218 222 230
-34.2573058 -2.78788812 1.5748 218 222 230
-34.399389 -2.6620134 1.5748 218 222 230
-34.5674673 -2.57379911 1.5748 218 222 230
-34.7517726 -2.52837193 1.5748 218 222 230
-34.9415938 -2.52837193 1.5748 218 222 230
-35.1258991 -2.57379911 1.5748 218 222 230
-35.2939774 -2.6620134 1.5748 218 222 230
-35.4360605 -2.78788812 1.5748 218 222 230
-35.5438913 -2.94410787 1.5748 218 222 230
-35.6112028 -3.12159374 1.5748 218 222 230
-35.6340832 -3.3100309 1.5748 218 222 230
-35.6112028 -3.49846805 1.5748 218 222 230
-35.5438913 -3.67595392 1.5748 218 222 230
-35.4360605 -3.83217368 1.5748 218 222 230
-35.2939774 -3.95804839 1.5748 218 222 230
-35.1258991 -4.04626269 1.5748 218 222 230
-34.9415938 -4.09168987 1.5748 218 222 230
-34.7517726 -4.09168987 1.5748 218 222 230
-34.5674673 -4.04626269 1.5748 218 222 230
-34.399389 -3.95804839 1.5748 218 222 230
-34.2573058 -3.83217368 1.5748 218 222 230
-34.1494751 -3.67595392 1.5748 218 222 230
-34.0821636 -3.49846805 1.5748 218 222 230
-34.0592832 4.6274691 1.5748 218 222 230
-34.0821636 4.81590626 1.5748 218 222 230
-34.1494751 4.99339213 1.5748 218 222 230
-34.2573058 5.14961188 1.5748 218 222 230
-34.399389 5.2754866 1.5748 218 222 230
-34.5674673 5.36370089 1.5748 218 222 230
-34.7517726 5.40912807 1.5748 218 222 230
-34.9415938 5.40912807 1.5748 218 222 230
-35.1258991 5.36370089 1.5748 218 222 230
-35.2939774 5.2754866 1.5748 218 222 230
-35.4360605 5.14961188 1.5748 218 222 230
-35.5438913 4.99339213 1.5748 218 222 230
-35.6112028 4.81590626 1.5748 218 222 230
-35.6340832 4.6274691 1.5748 218 222 230
-35.6112028 4.43903195 1.5748 218 222 230
-35.5438913 4.26154608 1.5748 218 222 230
-35.4360605 4.10532632 1.5748 218 222 230
-35.2939774 3.97945161 1.5748 218 222 230
-35.1258991 3.89123731 1.5748 218 222 230
-34.9415938 3.84581013 1.5748 218 222 230
-34.7517726 3.84581013 1.5748 218 222 230
-34.5674673 3.89123731 1.5748 218 222 230
-34.399389 3.97945161 1.5748 218 222 230
-34.2573058 4.10532632 1.5748 218 222 230
-34.1494751 4.26154608 1.5748 218 222 230
-34.0821636 4.43903195 1.5748 218 222 230
-34.0592832 4.6274691 1.5748 218 222 230
-34.0592832 4.6274691 3.1496 218 222 230
-34.0592832 4.6274691 3.1496 218 222 230
-34.0821636 4.81590626 3.1496 218 222 230
-34.1494751 4.99339213 3.1496 218 222 230
-34.2573058 5.14961188 3.1496 218 222 230
-34.399389 5.2754866 3.1496 218 222 230
-34.5674673 5.36370089 3.1496 218 222 230
-34.7517726 5.40912807 3.1496 218 222 230
-34.9415938 5.40912807 3.1496 218 222 230
-35.1258991 5.36370089 3.1496 218 222 230
-35.2939774 5.2754866 3.1496 218 222 230
-35.4360605 5.14961188 3.1496 218 222 230
-35.5438913 4.99339213 3.1496 218 222 230
-35.6112028 4.81590626 3.1496 218 222 230
-35.6340832 4.6274691 3.1496 218 222 230
-35.6112028 4.43903195 3.1496 218 222 230
-35.5438913 4.26154608 3.1496 218 222 230
-35.4360605 4.10532632 3.1496 218 222 230
-35.2939774 3.97945161 3.1496 218 222 230
-35.1258991 3.89123731 3.1496 218 222 230
-34.9415938 3.84581013 3.1496 218 222 230
-34.7517726 3.84581013 3.1496 218 222 230
-34.5674673 3.89123731 3.1496 218 222 230
-34.399389 3.97945161 3.1496 218 222 230
-34.2573058 4.10532632 3.1496 218 222 230
-34.1494751 4.26154608 3.1496 218 222 230
-34.0821636 4.43903195 3.1496 218 222 230
-34.0592832 4.6274691 3.1496 218 222 230
-34.0821636 4.81590626 3.1496 218 222 230
-34.1494751 4.99339213 3.1496 218 222 230
-34.2573058 5.14961188 3.1496 218 222 230
-34.399389 5.2754866 3.1496 218 222 230
-34.5674673 5.36370089 3.1496 218 222 230
-34.7517726 5.40912807 3.1496 218 222 230
-34.9415938 5.40912807 3.1496 218 222 230
-35.1258991 5.36370089 3.1496 218 222 230
-35.2939774 5.2754866 3.1496 218 222 230
-35.4360605 5.14961188 3.1496 218 222 230
-35.5438913 4.99339213 3.1496 218 222 230
-35.6112028 4.81590626 3.1496 218 222 230
-35.6340832 4.6274691 3.1496 218 222 230
-35.6112028 4.43903195 3.1496 218 222 230
-35.5438913 4.26154608 3.1496 218 222 230
-35.4360605 4.10532632 3.1496 218 222 230
-35.2939774 3.97945161 3.1496 218 222 230
-35.1258991 3.89123731 3.1496 218 222 230
-34.9415938 3.84581013 3.1496 218 222 230
-34.7517726 3.84581013 3.1496 218 222 230
-34.5674673 3.89123731 3.1496 218 222 230
-34.399389 3.97945161 3.1496 218 222 230
-34.2573058 4.10532632 3.1496 218 222 230
-34.1494751 4.26154608 3.1496 218 222 230
-34.0821636 4.43903195 3.1496 218 222 230
-26.1090832 4.6274691 1.5748 218 222 230
-26.1319636 4.81590626 1.5748 218 222 230
-26.1992751 4.99339213 1.5748 218 222 230
-26.3071058 5.14961188 1.5748 218 222 230
-26.449189 5.2754866 1.5748 218 222 230
-26.6172673 5.36370089 1.5748 218 222 230
-26.8015726 5.40912807 1.5748 218 222 230
-26.9913938 5.40912807 1.5748 218 222 230
-27.1756991 5.36370089 1.5748 218 222 230
-27.3437774 5.2754866 1.5748 218 222 230
-27.4858605 5.14961188 1.5748 218 222 230
-27.5936913 4.99339213 1.5748 218 222 230
-27.6610028 4.81590626 1.5748 218 222 230
-27.6838832 4.6274691 1.5748 218 222 230
-27.6610028 4.43903195 1.5748 218 222 230
-27.5936913 4.26154608 1.5748 218 222 230
-27.4858605 4.10532632 1.5748 218 222 230
-27.3437774 3.97945161 1.5748 218 222 230
-27.1756991 3.89123731 1.5748 218 222 230
-26.9913938 3.84581013 1.5748 218 222 230
-26.8015726 3.84581013 1.5748 218 222 230
-26.6172673 3.89123731 1.5748 218 222 230
-26.449189 3.97945161 1.5748 218 222 230
-26.3071058 4.10532632 1.5748 218 222 230
-26.1992751 4.26154608 1.5748 218 222 230
-26.1319636 4.43903195 1.5748 218 222 230
-26.1090832 4.6274691 1.5748 218 222 230
-26.1090832 4.6274691 3.1496 218 222 230
-26.1090832 4.6274691 3.1496 218 222 230
-26.1319636 4.81590626 3.1496 218 222 230
-26.1992751 4.99339213 3.1496 218 222 230
-26.3071058 5.14961188 3.1496 218 222 230
-26.449189 5.2754866 3.1496 218 222 230
-26.6172673 5.36370089 3.1496 218 222 230
-26.8015726 5.40912807 3.1496 218 222 230
-26.9913938 5.40912807 3.1496 218 222 230
-27.1756991 5.36370089 3.1496 218 222 230
-27.3437774 5.2754866 3.1496 218 222 230
-27.4858605 5.14961188 3.1496 218 222 230
-27.5936913 4.99339213 3.1496 218 222 230
-27.6610028 4.81590626 3.1496 218 222 230
-27.6838832 4.6274691 3.1496 218 222 230
-27.6610028 4.43903195 3.1496 218 222 230
-27.5936913 4.26154608 3.1496 218 222 230
-27.4858605 4.10532632 3.1496 218 222 230
-27.3437774 3.97945161 3.1496 218 222 230
-27.1756991 3.89123731 3.1496 218 222 230
-26.9913938 3.84581013 3.1496 218 222 230
-26.8015726 3.84581013 3.1496 218 222 230
-26.6172673 3.89123731 3.1496 218 222 230
-26.449189 3.97945161 3.1496 218 222 230
-26.3071058 4.10532632 3.1496 218 222 230
-26.1992751 4.26154608 3.1496 218 222 230
-26.1319636 4.43903195 3.1496 218 222 230
-26.1090832 4.6274691 3.1496 218 222 230
-26.1319636 4.81590626 3.1496 218 222 230
-26.1992751 4.99339213 3.1496 218 222 230
-26.3071058 5.14961188 3.1496 218 222 230
-26.449189 5.2754866 3.1496 218 222 230
-26.6172673 5.36370089 3.1496 218 222 230
-26.8015726 5.40912807 3.1496 218 222 230
-26.9913938 5.40912807 3.1496 218 222 230
-27.1756991 5.36370089 3.1496 218 222 230
-27.3437774 5.2754866 3.1496 218 222 230
-27.4858605 5.14961188 3.1496 218 222 230
-27.5936913 4.99339213 3.1496 218 222 230
-27.6610028 4.81590626 3.1496 218 222 230
-27.6838832 4.6274691 3.1496 218 222 230
-27.6610028 4.43903195 3.1496 218 222 230
-27.5936913 4.26154608 3.1496 218 222 230
-27.4858605 4.10532632 3.1496 218 222 230
-27.3437774 3.97945161 3.1496 218 222 230
-27.1756991 3.89123731 3.1496 218 222 230
-26.9913938 3.84581013 3.1496 218 222 230
-26.8015726 3.84581013 3.1496 218 222 230
-26.6172673 3.89123731 3.1496 218 222 230
-26.449189 3.97945161 3.1496 218 222 230
-26.3071058 4.10532632 3.1496 218 222 230
-26.1992751 4.26154608 3.1496 218 222 230
-26.1319636 4.43903195 3.1496 218 222 230
-18.1588832 4.6274691 1.5748 218 222 230
-18.1817636 4.81590626 1.5748 218 222 230
-18.2490751 4.99339213 1.5748 218 222 230
-18.3569058 5.14961188 1.5748 218 222 230
-18.498989 5.2754866 1.5748 218 222 230
-18.6670673 5.36370089 1.5748 218 222 230
-18.8513726 5.40912807 1.5748 218 222 230
-19.0411938 5.40912807 1.5748 218 222 230
-19.2254991 5.36370089 1.5748 218 222 230
-19.3935774 5.2754866 1.5748 218 222 230
-19.5356605 5.14961188 1.5748 218 222 230
-19.6434913 4.99339213 1.5748 218 222 230
-19.7108028 4.81590626 1.5748 218 222 230
-19.7336832 4.6274691 1.5748 218 222 230
-19.7108028 4.43903195 1.5748 218 222 230
-19.6434913 4.26154608 1.5748 218 222 230
-19.5356605 4.10532632 1.5748 218 222 230
-19.3935774 3.97945161 1.5748 218 222 230
-19.2254991 3.89123731 1.5748 218 222 230
-19.0411938 3.84581013 1.5748 218 222 230
-18.8513726 3.84581013 1.5748 218 222 230
-18.6670673 3.89123731 1.5748 218 222 230
-18.498989 3.97945161 1.5748 218 222 230
-18.3569058 4.10532632 1.5748 218 222 230
-18.2490751 4.26154608 1.5748 218 222 230
-18.1817636 4.43903195 1.5748 218 222 230
-18.1588832 4.6274691 1.5748 218 222 230
-18.1588832 4.6274691 3.1496 218 222 230
-18.1588832 4.6274691 3.1496 218 222 230
-18.1817636 4.81590626 3.1496 218 222 230
-18.2490751 4.99339213 3.1496 218 222 230
-18.3569058 5.14961188 3.1496 218 222 230
-18.498989 5.2754866 3.1496 218 222 230
-18.6670673 5.36370089 3.1496 218 222 230
-18.8513726 5.40912807 3.1496 218 222 230
-19.0411938 5.40912807 3.1496 218 222 230
-19.2254991 5.36370089 3.1496 218 222 230
-19.3935774 5.2754866 3.1496 218 222 230
-19.5356605 5.14961188 3.1496 218 222 230
-19.6434913 4.99339213 3.1496 218 222 230
-19.7108028 4.81590626 3.1496 218 222 230
-19.7336832 4.6274691 3.1496 218 222 230
-19.7108028 4.43903195 3.1496 218 222 230
-19.6434913 4.26154608 3.1496 218 222 230
-19.5356605 4.10532632 3.1496 218 222 230
-19.3935774 3.97945161 3.1496 218 222 230
-19.2254991 3.89123731 3.1496 218 222 230
-19.0411938 3.84581013 3.1496 218 222 230
-18.8513726 3.84581013 3.1496 218 222 230
-18.6670673 3.89123731 3.1496 218 222 230
-18.498989 3.97945161 3.1496 218 222 230
-18.3569058 4.10532632 3.1496 218 222 230
-18.2490751 4.26154608 3.1496 218 222 230
-18.1817636 4.43903195 3.1496 218 222 230
-18.1588832 4.6274691 3.1496 218 222 230
-18.1817636 4.81590626 3.1496 218 222 230
-18.2490751 4.99339213 3.1496 218 222 230
-18.3569058 5.14961188 3.1496 218 222 230
-18.498989 5.2754866 3.1496 218 222 230
-18.6670673 5.36370089 3.1496 218 222 230
-18.8513726 5.40912807 3.1496 218 222 230
-19.0411938 5.40912807 3.1496 218 222 230
-19.2254991 5.36370089 3.1496 218 222 230
-19.3935774 5.2754866 3.1496 218 222 230
-19.5356605 5.14961188 3.1496 218 222 230
-19.6434913 4.99339213 3.1496 218 222 230
-19.7108028 4.81590626 3.1496 218 222 230
-19.7336832 4.6274691 3.1496 218 222 230
-19.7108028 4.43903195 3.1496 218 222 230
-19.6434913 4.26154608 3.1496 218 222 230
-19.5356605 4.10532632 3.1496 218 222 230
-19.3935774 3.97945161 3.1496 218 222 230
-19.2254991 3.89123731 3.1496 218 222 230
-19.0411938 3.84581013 3.1496 218 222 230
-18.8513726 3.84581013 3.1496 218 222 230
-18.6670673 3.89123731 3.1496 218 222 230
-18.498989 3.97945161 3.1496 218 222 230
-18.3569058 4.10532632 3.1496 218 222 230
-18.2490751 4.26154608 3.1496 218 222 230
-18.1817636 4.43903195 3.1496 218 222 230
-10.2086832 4.6274691 1.5748 218 222 230
-10.2315636 4.81590626 1.5748 218 222 230
-10.2988751 4.99339213 1.5748 218 222 230
-10.4067058 5.14961188 1.5748 218 222 230
-10.548789 5.2754866 1.5748 218 222 230
-10.7168673 5.36370089 1.5748 218 222 230
-10.9011726 5.40912807 1.5748 218 222 230
-11.0909938 5.40912807 1.5748 218 222 230
-11.2752991 5.36370089 1.5748 218 222 230
-11.4433774 5.2754866 1.5748 218 222 230
-11.5854605 5.14961188 1.5748 218 222 230
-11.6932913 4.99339213 1.5748 218 222 230
-11.7606028 4.81590626 1.5748 218 222 230
-11.7834832 4.6274691 1.5748 218 222 230
-11.7606028 4.43903195 1.5748 218 222 230
-11.6932913 4.26154608 1.5748 218 222 230
-11.5854605 4.10532632 1.5748 218 222 230
-11.4433774 3.97945161 1.5748 218 222 230
-11.2752991 3.89123731 1.5748 218 222 230
-11.0909938 3.84581013 1.5748 218 222 230
-10.9011726 3.84581013 1.5748 218 222 230
-10.7168673 3.89123731 1.5748 218 222 230
-10.548789 3.97945161 1.5748 218 222 230
-10.4067058 4.10532632 1.5748 218 222 230
-10.2988751 4.26154608 1.5748 218 222 230
-10.2315636 4.43903195 1.5748 218 222 230
-10.2086832 4.6274691 1.5748 218 222 230
-10.2086832 4.6274691 3.1496 218 222 230
-10.2086832 4.6274691 3.1496 218 222 230
-10.2315636 4.81590626 3.1496 218 222 230
-10.2988751 4.99339213 3.1496 218 222 230
-10.4067058 5.14961188 3.1496 218 222 230
-10.548789 5.2754866 3.1496 218 222 230
-10.7168673 5.36370089 3.1496 218 222 230
-10.9011726 5.40912807 3.1496 218 222 230
-11.0909938 5.40912807 3.1496 218 222 230
-11.2752991 5.36370089 3.1496 218 222 230
-11.4433774 5.2754866 3.1496 218 222 230
-11.5854605 5.14961188 3.1496 218 222 230
-11.6932913 4.99339213 3.1496 218 222 230
-11.7606028 4.81590626 3.1496 218 222 230
-11.7834832 4.6274691 3.1496 218 222 230
-11.7606028 4.43903195 3.1496 218 222 230
-11.6932913 4.26154608 3.1496 218 222 230
-11.5854605 4.10532632 3.1496 218 222 230
-11.4433774 3.97945161 3.1496 218 222 230
-11.2752991 3.89123731 3.1496 218 222 230
-11.0909938 3.84581013 3.1496 218 222 230
-10.9011726 3.84581013 3.1496 218 222 230
-10.7168673 3.89123731 3.1496 218 222 230
-10.548789 3.97945161 3.1496 218 222 230
-10.4067058 4.10532632 3.1496 218 222 230
-10.2988751 4.26154608 3.1496 218 222 230
-10.2315636 4.43903195 3.1496 218 222 230
-10.2086832 4.6274691 3.1496 218 222 230
-10.2315636 4.81590626 3.1496 218 222 230
-10.2988751 4.99339213 3.1496 218 222 230
-10.4067058 5.14961188 3.1496 218 222 230
-10.548789 5.2754866 3.1496 218 222 230
-10.7168673 5.36370089 3.1496 218 222 230
-10.9011726 5.40912807 3.1496 218 222 230
-11.0909938 5.40912807 3.1496 218 222 230
-11.2752991 5.36370089 3.1496 218 222 230
-11.4433774 5.2754866 3.1496 218 222 230
-11.5854605 5.14961188 3.1496 218 222 230
-11.6932913 4.99339213 3.1496 218 222 230
-11.7606028 4.81590626 3.1496 218 222 230
-11.7834832 4.6274691 3.1496 218 222 230
-11.7606028 4.43903195 3.1496 218 222 230
-11.6932913 4.26154608 3.1496 218 222 230
-11.5854605 4.10532632 3.1496 218 222 230
-11.4433774 3.97945161 3.1496 218 222 230
-11.2752991 3.89123731 3.1496 218 222 230
-11.0909938 3.84581013 3.1496 218 222 230
-10.9011726 3.84581013 3.1496 218 222 230
-10.7168673 3.89123731 3.1496 218 222 230
-10.548789 3.97945161 3.1496 218 222 230
-10.4067058 4.10532632 3.1496 218 222 230
-10.2988751 4.26154608 3.1496 218 222 230
-10.2315636 4.43903195 3.1496 218 222 230
-34.0592832 -3.3100309 1.5748 218 222 230
-34.0821636 -3.12159374 1.5748 218 222 230
-34.1494751 -2.94410787 1.5748 218 222 230
-34.2573058 -2.78788812 1.5748 218 222 230
-34.399389 -2.6620134 1.5748 218 222 230
-34.5674673 -2.57379911 1.5748 218 222 230
-34.7517726 -2.52837193 1.5748 218 222 230
-34.9415938 -2.52837193 1.5748 218 222 230
-35.1258991 -2.57379911 1.5748 218 222 230
-35.2939774 -2.6620134 1.5748 218 222 230
-35.4360605 -2.78788812 1.5748 218 222 230
-35.5438913 -2.94410787 1.5748 218 222 230
-35.6112028 -3.12159374 1.5748 218 222 230
-35.6340832 -3.3100309 1.5748 218 222 230
-35.6112028 -3.49846805 1.5748 218 222 230
-35.5438913 -3.67595392 1.5748 218 222 230
-35.4360605 -3.83217368 1.5748 218 222 230
-35.2939774 -3.95804839 1.5748 218 222 230
-35.1258991 -4.04626269 1.5748 218 222 230
-34.9415938 -4.09168987 1.5748 218 222 230
-34.7517726 -4.09168987 1.5748 218 222 230
-34.5674673 -4.04626269 1.5748 218 222 230
-34.399389 -3.95804839 1.5748 218 222 230
-34.2573058 -3.83217368 1.5748 218 222 230
-34.1494751 -3.67595392 1.5748 218 222 230
-34.0821636 -3.49846805 1.5748 218 222 230
-34.0592832 -3.3100309 1.5748 218 222 230
-34.0592832 -3.3100309 3.1496 218 222 230
-34.0592832 -3.3100309 3.1496 218 222 230
-34.0821636 -3.12159374 3.1496 218 222 230
-34.1494751 -2.94410787 3.1496 218 222 230
-34.2573058 -2.78788812 3.1496 218 222 230
-34.399389 -2.6620134 3.1496 218 222 230
-34.5674673 -2.57379911 3.1496 218 222 230
-34.7517726 -2.52837193 3.1496 218 222 230
-34.9415938 -2.52837193 3.1496 218 222 230
-35.1258991 -2.57379911 3.1496 218 222 230
-35.2939774 -2.6620134 3.1496 218 222 230
-35.4360605 -2.78788812 3.1496 218 222 230
-35.5438913 -2.94410787 3.1496 218 222 230
-35.6112028 -3.12159374 3.1496 218 222 230
-35.6340832 -3.3100309 3.1496 218 222 230
-35.6112028 -3.49846805 3.1496 218 222 230
-35.5438913 -3.67595392 3.1496 218 222 230
-35.4360605 -3.83217368 3.1496 218 222 230
-35.2939774 -3.95804839 3.1496 218 222 230
-35.1258991 -4.04626269 3.1496 218 222 230
-34.9415938 -4.09168987 3.1496 218 222 230
-34.7517726 -4.09168987 3.1496 218 222 230
-34.5674673 -4.04626269 3.1496 218 222 230
-34.399389 -3.95804839 3.1496 218 222 230
-34.2573058 -3.83217368 3.1496 218 222 230
-34.1494751 -3.67595392 3.1496 218 222 230
-34.0821636 -3.49846805 3.1496 218 222 230
-34.0592832 -3.3100309 3.1496 218 222 230
-34.0821636 -3.12159374 3.1496 218 222 230
-34.1494751 -2.94410787 3.1496 218 222 230
-34.2573058 -2.78788812 3.1496 218 222 230
-34.399389 -2.6620134 3.1496 218 222 230
-34.5674673 -2.57379911 3.1496 218 222 230
-34.7517726 -2.52837193 3.1496 218 222 230
-34.9415938 -2.52837193 3.1496 218 222 230
-35.1258991 -2.57379911 3.1496 218 222 230
-35.2939774 -2.6620134 3.1496 218 222 230
-35.4360605 -2.78788812 3.1496 218 222 230
-35.5438913 -2.94410787 3.1496 218 222 230
-35.6112028 -3.12159374 3.1496 218 222 230
-35.6340832 -3.3100309 3.1496 218 222 230
-35.6112028 -3.49846805 3.1496 218 222 230
-35.5438913 -3.67595392 3.1496 218 222 230
-35.4360605 -3.83217368 3.1496 218 222 230
-35.2939774 -3.95804839 3.1496 218 222 230
-35.1258991 -4.04626269 3.1496 218 222 230
-34.9415938 -4.09168987 3.1496 218 222 230
-34.7517726 -4.09168987 3.1496 218 222 230
-34.5674673 -4.04626269 3.1496 218 222 230
-34.399389 -3.95804839 3.1496 218 222 230
-34.2573058 -3.83217368 3.1496 218 222 230
-34.1494751 -3.67595392 3.1496 218 222 230
-34.0821636 -3.49846805 3.1496 218 222 230
-26.1090832 -3.3100309 1.5748 218 222 230
-26.1319636 -3.12159374 1.5748 218 222 230
-26.1992751 -2.94410787 1.5748 218 222 230
-26.3071058 -2.78788812 1.5748 218 222 230
-26.449189 -2.6620134 1.5748 218 222 230
-26.6172673 -2.57379911 1.5748 218 222 230
-26.8015726 -2.52837193 1.5748 218 222 230
-26.9913938 -2.52837193 1.5748 218 222 230
-27.1756991 -2.57379911 1.5748 218 222 230
-27.3437774 -2.6620134 1.5748 218 222 230
-27.4858605 -2.78788812 1.5748 218 222 230
-27.5936913 -2.94410787 1.5748 218 222 230
-27.6610028 -3.12159374 1.5748 218 222 230
-27.6838832 -3.3100309 1.5748 218 222 230
-27.6610028 -3.49846805 1.5748 218 222 230
-27.5936913 -3.67595392 1.5748 218 222 230
-27.4858605 -3.83217368 1.5748 218 222 230
-27.3437774 -3.95804839 1.5748 218 222 230
-27.1756991 -4.04626269 1.5748 218 222 230
-26.9913938 -4.09168987 1.5748 218 222 230
-26.8015726 -4.09168987 1.5748 218 222 230
-26.6172673 -4.04626269 1.5748 218 222 230
-26.449189 -3.95804839 1.5748 218 222 230
-26.3071058 -3.83217368 1.5748 218 222 230
-26.1992751 -3.67595392 1.5748 218 222 230
-26.1319636 -3.49846805 1.5748 218 222 230
-26.1090832 -3.3100309 1.5748 218 222 230
-26.1090832 -3.3100309 3.1496 218 222 230
-26.1090832 -3.3100309 3.1496 218 222 230
-26.1319636 -3.12159374 3.1496 218 222 230
-26.1992751 -2.94410787 3.1496 218 222 230
-26.3071058 -2.78788812 3.1496 218 222 230
-26.449189 -2.6620134 3.1496 218 222 230
-26.6172673 -2.57379911 3.1496 218 222 230
-26.8015726 -2.52837193 3.1496 218 222 230
-26.9913938 -2.52837193 3.1496 218 222 230
-27.1756991 -2.57379911 3.1496 218 222 230
-27.3437774 -2.6620134 3.1496 218 222 230
-27.4858605 -2.78788812 3.1496 218 222 230
-27.5936913 -2.94410787 3.1496 218 222 230
-27.6610028 -3.12159374 3.1496 218 222 230
-27.6838832 -3.3100309 3.1496 218 222 230
-27.6610028 -3.49846805 3.1496 218 222 230
-27.5936913 -3.67595392 3.1496 218 222 230
-27.4858605 -3.83217368 3.1496 218 222 230
-27.3437774 -3.95804839 3.1496 218 222 230
-27.1756991 -4.04626269 3.1496 218 222 230
-26.9913938 -4.09168987 3.1496 218 222 230
-26.8015726 -4.09168987 3.1496 218 222 230
-26.6172673 -4.04626269 3.1496 218 222 230
-26.449189 -3.95804839 3.1496 218 222 230
-26.3071058 -3.83217368 3.1496 218 222 230
-26.1992751 -3.67595392 3.1496 218 222 230
-26.1319636 -3.49846805 3.1496 218 222 230
-26.1090832 -3.3100309 3.1496 218 222 230
-26.1319636 -3.12159374 3.1496 218 222 230
-26.1992751 -2.94410787 3.1496 218 222 230
-26.3071058 -2.78788812 3.1496 218 222 230
-26.449189 -2.6620134 3.1496 218 222 230
-26.6172673 -2.57379911 3.1496 218 222 230
-26.8015726 -2.52837193 3.1496 218 222 230
-26.9913938 -2.52837193 3.1496 218 222 230
-27.1756991 -2.57379911 3.1496 218 222 230
-27.3437774 -2.6620134 3.1496 218 222 230
-27.4858605 -2.78788812 3.1496 218 222 230
-27.5936913 -2.94410787 3.1496 218 222 230
-27.6610028 -3.12159374 3.1496 218 222 230
-27.6838832 -3.3100309 3.1496 218 222 230
-27.6610028 -3.49846805 3.1496 218 222 230
-27.5936913 -3.67595392 3.1496 218 222 230
-27.4858605 -3.83217368 3.1496 218 222 230
-27.3437774 -3.95804839 3.1496 218 222 230
-27.1756991 -4.04626269 3.1496 218 222 230
-26.9913938 -4.09168987 3.1496 218 222 230
-26.8015726 -4.09168987 3.1496 218 222 230
-26.6172673 -4.04626269 3.1496 218 222 230
-26.449189 -3.95804839 3.1496 218 222 230
-26.3071058 -3.83217368 3.1496 218 222 230
-26.1992751 -3.67595392 3.1496 218 222 230
-26.1319636 -3.49846805 3.1496 218 222 230
-18.1588832 -3.3100309 1.5748 218 222 230
-18.1817636 -3.12159374 1.5748 218 222 230
-18.2490751 -2.94410787 1.5748 218 222 230
-18.3569058 -2.78788812 1.5748 218 222 230
-18.498989 -2.6620134 1.5748 218 222 230
-18.6670673 -2.57379911 1.5748 218 222 230
-18.8513726 -2.52837193 1.5748 218 222 230
-19.0411938 -2.52837193 1.5748 218 222 230
-19.2254991 -2.57379911 1.5748 218 222 230
-19.3935774 -2.6620134 1.5748 218 222 230
-19.5356605 -2.78788812 1.5748 218 222 230
-19.6434913 -2.94410787 1.5748 218 222 230
-19.7108028 -3.12159374 1.5748 218 222 230
-19.7336832 -3.3100309 1.5748 218 222 230
-19.7108028 -3.49846805 1.5748 218 222 230
-19.6434913 -3.67595392 1.5748 218 222 230
-19.5356605 -3.83217368 1.5748 218 222 230
-19.3935774 -3.95804839 1.5748 218 222 230
-19.2254991 -4.04626269 1.5748 218 222 230
-19.0411938 -4.09168987 1.5748 218 222 230
-18.8513726 -4.09168987 1.5748 218 222 230
-18.6670673 -4.04626269 1.5748 218 222 230
-18.498989 -3.95804839 1.5748 218 222 230
-18.3569058 -3.83217368 1.5748 218 222 230
-18.2490751 -3.67595392 1.5748 218 222 230
-18.1817636 -3.49846805 1.5748 218 222 230
-18.1588832 -3.3100309 1.5748 218 222 230
-18.1588832 -3.3100309 3.1496 218 222 230
-18.1588832 -3.3100309 3.1496 218 222 230
-18.1817636 -3.12159374 3.1496 218 222 230
-18.2490751 -2.94410787 3.1496 218 222 230
-18.3569058 -2.78788812 3.1496 218 222 230
-18.498989 -2.6620134 3.1496 218 222 230
-18.6670673 -2.57379911 3.1496 218 222 230
-18.8513726 -2.52837193 3.1496 218 222 230
-19.0411938 -2.52837193 3.1496 218 222 230
-19.2254991 -2.57379911 3.1496 218 222 230
-19.3935774 -2.6620134 3.1496 218 222 230
-19.5356605 -2.78788812 3.1496 218 222 230
-19.6434913 -2.94410787 3.1496 218 222 230
-19.7108028 -3.12159374 3.1496 218 222 230
-19.7336832 -3.3100309 3.1496 218 222 230
-19.7108028 -3.49846805 3.1496 218 222 230
-19.6434913 -3.67595392 3.1496 218 222 230
-19.5356605 -3.83217368 3.1496 218 222 230
-19.3935774 -3.95804839 3.1496 218 222 230
-19.2254991 -4.04626269 3.1496 218 222 230
-19.0411938 -4.09168987 3.1496 218 222 230
-18.8513726 -4.09168987 3.1496 218 222 230
-18.6670673 -4.04626269 3.1496 218 222 230
-18.498989 -3.95804839 3.1496 218 222 230
-18.3569058 -3.83217368 3.1496 218 222 230
-18.2490751 -3.67595392 3.1496 218 222 230
-18.1817636 -3.49846805 3.1496 218 222 230
-18.1588832 -3.3100309 3.1496 218 222 230
-18.1817636 -3.12159374 3.1496 218 222 230
-18.2490751 -2.94410787 3.1496 218 222 230
-18.3569058 -2.78788812 3.1496 218 222 230
-18.498989 -2.6620134 3.1496 218 222 230
-18.6670673 -2.57379911 3.1496 218 222 230
-18.8513726 -2.52837193 3.1496 218 222 230
-19.0411938 -2.52837193 3.1496 218 222 230
-19.2254991 -2.57379911 3.1496 218 222 230
-19.3935774 -2.6620134 3.1496 218 222 230
-19.5356605 -2.78788812 3.1496 218 222 230
-19.6434913 -2.94410787 3.1496 218 222 230
-19.7108028 -3.12159374 3.1496 218 222 230
-19.7336832 -3.3100309 3.1496 218 222 230
-19.7108028 -3.49846805 3.1496 218 222 230
-19.6434913 -3.67595392 3.1496 218 222 230
-19.5356605 -3.83217368 3.1496 218 222 230
-19.3935774 -3.95804839 3.1496 218 222 230
-19.2254991 -4.04626269 3.1496 218 222 230
-19.0411938 -4.09168987 3.1496 218 222 230
-18.8513726 -4.09168987 3.1496 218 222 230
-18.6670673 -4.04626269 3.1496 218 222 230
-18.498989 -3.95804839 3.1496 218 222 230
-18.3569058 -3.83217368 3.1496 218 222 230
-18.2490751 -3.67595392 3.1496 218 222 230
-18.1817636 -3.49846805 3.1496 218 222 230
-10.2086832 -3.3100309 1.5748 218 222 230
-10.2315636 -3.12159374 1.5748 218 222 230
-10.2988751 -2.94410787 1.5748 218 222 230
-10.4067058 -2.78788812 1.5748 218 222 230
-10.548789 -2.6620134 1.5748 218 222 230
-10.7168673 -2.57379911 1.5748 218 222 230
-10.9011726 -2.52837193 1.5748 218 222 230
-11.0909938 -2.52837193 1.5748 218 222 230
-11.2752991 -2.57379911 1.5748 218 222 230
-11.4433774 -2.6620134 1.5748 218 222 230
-11.5854605 -2.78788812 1.5748 218 222 230
-11.6932913 -2.94410787 1.5748 218 222 230
-11.7606028 -3.12159374 1.5748 218 222 230
-11.7834832 -3.3100309 1.5748 218 222 230
-11.7606028 -3.49846805 1.5748 218 222 230
-11.6932913 -3.67595392 1.5748 218 222 230
-11.5854605 -3.83217368 1.5748 218 222 230
-11.4433774 -3.95804839 1.5748 218 222 230
-11.2752991 -4.04626269 1.5748 218 222 230
-11.0909938 -4.09168987 1.5748 218 222 230
-10.9011726 -4.09168987 1.5748 218 222 230
-10.7168673 -4.04626269 1.5748 218 222 230
-10.548789 -3.95804839 1.5748 218 222 230
-10.4067058 -3.83217368 1.5748 218 222 230
-10.2988751 -3.67595392 1.5748 218 222 230
-10.2315636 -3.49846805 1.5748 218 222 230
-10.2086832 -3.3100309 1.5748 218 222 230
-10.2086832 -3.3100309 3.1496 218 222 230
-10.2086832 -3.3100309 3.1496 218 222 230
-10.2315636 -3.12159374 3.1496 218 222 230
-10.2988751 -2.94410787 3.1496 218 222 230
-10.4067058 -2.78788812 3.1496 218 222 230
-10.548789 -2.6620134 3.1496 218 222 230
-10.7168673 -2.57379911 3.1496 218 222 230
-10.9011726 -2.52837193 3.1496 218 222 230
-11.0909938 -2.52837193 3.1496 218 222 230
-11.2752991 -2.57379911 3.1496 218 222 230
-11.4433774 -2.6620134 3.1496 218 222 230
-11.5854605 -2.78788812 3.1496 218 222 230
-11.6932913 -2.94410787 3.1496 218 222 230
-11.7606028 -3.12159374 3.1496 218 222 230
-11.7834832 -3.3100309 3.1496 218 222 230
-11.7606028 -3.49846805 3.1496 218 222 230
-11.6932913 -3.67595392 3.1496 218 222 230
-11.5854605 -3.83217368 3.1496 218 222 230
-11.4433774 -3.95804839 3.1496 218 222 230
-11.2752991 -4.04626269 3.1496 218 222 230
-11.0909938 -4.09168987 3.1496 218 222 230
-10.9011726 -4.09168987 3.1496 218 222 230
-10.7168673 -4.04626269 3.1496 218 222 230
-10.548789 -3.95804839 3.1496 218 222 230
-10.4067058 -3.83217368 3.1496 218 222 230
-10.2988751 -3.67595392 3.1496 218 222 230
-10.2315636 -3.49846805 3.1496 218 222 230
-10.2086832 -3.3100309 3.1496 218 222 230
-10.2315636 -3.12159374 3.1496 218 222 230
-10.2988751 -2.94410787 3.1496 218 222 230
-10.4067058 -2.78788812 3.1496 218 222 230
-10.548789 -2.6620134 3.1496 218 222 230
-10.7168673 -2.57379911 3.1496 218 222 230
-10.9011726 -2.52837193 3.1496 218 222 230
-11.0909938 -2.52837193 3.1496 218 222 230
-11.2752991 -2.57379911 3.1496 218 222 230
-11.4433774 -2.6620134 3.1496 218 222 230
-11.5854605 -2.78788812 3.1496 218 222 230
-11.6932913 -2.94410787 3.1496 218 222 230
-11.7606028 -3.12159374 3.1496 218 222 230
-11.7834832 -3.3100309 3.1496 218 222 230
-11.7606028 -3.49846805 3.1496 218 222 230
-11.6932913 -3.67595392 3.1496 218 222 230
-11.5854605 -3.83217368 3.1496 218 222 230
-11.4433774 -3.95804839 3.1496 218 222 230
-11.2752991 -4.04626269 3.1496 218 222 230
-11.0909938 -4.09168987 3.1496 218 222 230
-10.9011726 -4.09168987 3.1496 218 222 230
-10.7168673 -4.04626269 3.1496 218 222 230
-10.548789 -3.95804839 3.1496 218 222 230
-10.4067058 -3.83217368 3.1496 218 222 230
-10.2988751 -3.67595392 3.1496 218 222 230
-10.2315636 -3.49846805 3.1496 218 222 230
-16.5586832 -3.3100309 4.7498 218 222 230
-16.6280625 -3.88142098 4.7498 218 222 230
-16.8321684 -4.41960394 4.7498 218 222 230
-17.1591389 -4.89330256 4.7498 218 222 230
-17.5899718 -5.27498718 4.7498 218 222 230
-18.0996286 -5.54247568 4.7498 218 222 230
-18.6584898 -5.68022261 4.7498 218 222 230
-19.2340766 -5.68022261 4.7498 218 222 230
-19.7929378 -5.54247568 4.7498 218 222 230
-20.3025946 -5.27498718 4.7498 218 222 230
-20.7334274 -4.89330256 4.7498 218 222 230
-21.060398 -4.41960394 4.7498 218 222 230
-21.2645039 -3.88142098 4.7498 218 222 230
-21.3338832 -3.3100309 4.7498 218 222 230
-21.2645039 -2.73864082 4.7498 218 222 230
-21.060398 -2.20045785 4.7498 218 222 230
-20.7334274 -1.72675924 4.7498 218 222 230
-20.3025946 -1.34507462 4.7498 218 222 230
-19.7929378 -1.07758612 4.7498 218 222 230
-19.2340766 -0.93983919 4.7498 218 222 230
-18.6584898 -0.93983919 4.7498 218 222 230
-18.0996286 -1.07758612 4.7498 218 222 230
-17.5899718 -1.34507462 4.7498 218 222 230
-17.1591389 -1.72675924 4.7498 218 222 230
-16.8321684 -2.20045785 4.7498 218 222 230
-16.6280625 -2.73864082 4.7498 218 222 230
-24.5088832 -3.3100309 4.7498 218 222 230
-24.5782625 -3.88142098 4.7498 218 222 230
-24.7823684 -4.41960394 4.7498 218 222 230
-25.1093389 -4.89330256 4.7498 218 222 230
-25.5401718 -5.27498718 4.7498 218 222 230
-26.0498286 -5.54247568 4.7498 218 222 230
-26.6086898 -5.68022261 4.7498 218 222 230
-27.1842766 -5.68022261 4.7498 218 222 230
-27.7431378 -5.54247568 4.7498 218 222 230
-28.2527946 -5.27498718 4.7498 218 222 230
-28.6836274 -4.89330256 4.7498 218 222 230
-29.010598 -4.41960394 4.7498 218 222 230
-29.2147039 -3.88142098 4.7498 218 222 230
-29.2840832 -3.3100309 4.7498 218 222 230
-29.2147039 -2.73864082 4.7498 218 222 230
-29.010598 -2.20045785 4.7498 218 222 230
-28.6836274 -1.72675924 4.7498 218 222 230
-28.2527946 -1.34507462 4.7498 218 222 230
-27.7431378 -1.07758612 4.7498 218 222 230
-27.1842766 -0.93983919 4.7498 218 222 230
-26.6086898 -0.93983919 4.7498 218 222 230
-26.0498286 -1.07758612 4.7498 218 222 230
-25.5401718 -1.34507462 4.7498 218 222 230
-25.1093389 -1.72675924 4.7498 218 222 230
-24.7823684 -2.20045785 4.7498 218 222 230
-24.5782625 -2.73864082 4.7498 218 222 230
3 203 202 0
3 201 0 202
3 204 203 0
3 200 0 201
3 205 204 0
3 199 0 200
3 206 205 0
3 198 0 199
3 98 197 196
3 99 98 196
3 99 196 195
3 177 209 208
3 177 176 209
3 97 197 98
3 97 198 197
3 175 210 209
3 175 211 210
3 175 209 176
3 100 99 195
3 100 195 194
3 178 208 207
3 178 177 208
3 96 198 97
3 174 211 175
3 101 100 194
3 101 194 193
3 179 207 206
3 179 206 0
3 179 178 207
3 173 186 211
3 173 211 174
3 102 193 192
3 102 101 193
3 180 179 0
3 172 186 173
3 172 187 186
3 172 188 187
3 103 192 191
3 103 102 192
3 171 188 172
3 104 103 191
3 104 190 189
3 104 191 190
3 170 188 171
3 170 189 188
3 3 0 198
3 3 198 96
3 3 93 92
3 3 94 93
3 3 95 94
3 3 96 95
3 105 104 189
3 91 3 92
3 90 3 91
3 89 3 90
3 88 3 89
3 20 105 189
3 20 189 170
3 150 184 183
3 21 170 169
3 21 20 170
3 151 150 183
3 151 183 182
3 19 106 105
3 19 107 106
3 19 105 20
3 149 184 150
3 149 185 184
3 22 169 168
3 22 21 169
3 152 182 181
3 152 151 182
3 18 82 107
3 18 107 19
3 148 185 149
3 23 167 166
3 23 168 167
3 23 22 168
3 153 152 181
3 153 181 180
3 153 180 0
3 17 82 18
3 17 83 82
3 147 160 185
3 147 185 148
3 24 23 166
3 16 83 17
3 16 84 83
3 146 161 160
3 146 160 147
3 25 24 166
3 25 166 165
3 15 84 16
3 15 85 84
3 145 161 146
3 145 162 161
3 26 25 165
3 26 164 163
3 26 165 164
3 14 85 15
3 144 162 145
3 144 163 162
3 27 26 163
3 13 85 14
3 13 86 85
3 12 86 13
3 12 87 86
3 11 3 88
3 11 87 12
3 11 88 87
3 46 163 144
3 46 27 163
3 46 28 27
3 46 144 143
3 124 157 156
3 124 158 157
3 47 46 143
3 125 124 156
3 45 28 46
3 123 158 124
3 48 143 142
3 48 47 143
3 126 125 156
3 126 156 155
3 44 29 28
3 44 4 29
3 44 28 45
3 122 159 158
3 122 134 159
3 122 158 123
3 49 142 141
3 49 48 142
3 127 155 154
3 127 126 155
3 43 4 44
3 121 134 122
3 50 140 139
3 50 141 140
3 50 49 141
3 42 5 4
3 42 6 5
3 42 4 43
3 120 135 134
3 120 136 135
3 120 134 121
3 51 139 138
3 51 50 139
3 41 7 6
3 41 6 42
3 119 136 120
3 119 137 136
3 52 51 138
3 40 7 41
3 118 137 119
3 1 127 154
3 1 128 127
3 1 129 128
3 1 130 129
3 1 154 153
3 1 153 0
3 53 52 138
3 53 137 118
3 53 138 137
3 131 130 1
3 39 8 7
3 39 7 40
3 132 131 1
3 38 9 8
3 38 10 9
3 38 8 39
3 133 132 1
3 37 10 38
3 108 133 1
3 109 108 1
3 72 53 118
3 72 54 53
3 73 118 117
3 73 72 118
3 71 55 54
3 71 54 72
3 74 117 116
3 74 73 117
3 70 55 71
3 75 116 115
3 75 74 116
3 69 31 30
3 69 30 55
3 69 55 70
3 76 115 114
3 76 75 115
3 68 32 31
3 68 31 69
3 77 113 112
3 77 114 113
3 77 76 114
3 67 33 32
3 67 32 68
3 78 112 111
3 78 77 112
3 66 33 67
3 79 111 110
3 79 78 111
3 65 34 33
3 65 35 34
3 65 33 66
3 80 79 110
3 64 35 65
3 64 36 35
3 81 80 110
3 81 110 109
3 63 36 64
3 2 36 63
3 2 109 1
3 2 57 56
3 2 58 57
3 2 59 58
3 2 60 59
3 2 61 60
3 2 62 61
3 2 63 62
3 2 56 81
3 2 81 109
3 2 3 11
3 2 11 10
3 2 10 37
3 2 37 36
3 265 212 213
3 264 213 214
3 264 265 213
3 263 214 215
3 263 264 214
3 262 215 216
3 262 263 215
3 261 216 217
3 261 262 216
3 260 217 218
3 260 261 217
3 259 218 219
3 259 260 218
3 258 259 219
3 257 219 220
3 257 220 221
3 257 258 219
3 256 221 222
3 256 257 221
3 255 256 222
3 254 255 222
3 254 222 223
3 254 223 224
3 253 254 224
3 253 224 225
3 252 253 225
3 252 225 226
3 251 252 226
3 250 226 227
3 250 227 228
3 250 251 226
3 249 250 228
3 248 228 229
3 248 249 228
3 247 229 230
3 247 248 229
3 246 230 231
3 246 247 230
3 245 231 232
3 245 232 233
3 245 246 231
3 244 245 233
3 243 233 234
3 243 234 235
3 243 244 233
3 242 243 235
3 241 235 236
3 241 236 237
3 241 242 235
3 240 241 237
3 239 237 238
3 239 240 237
3 274 276 275
3 272 274 273
3 270 272 271
3 282 281 280
3 269 274 272
3 269 272 270
3 268 277 276
3 268 276 274
3 268 274 269
3 285 283 282
3 285 284 283
3 266 268 267
3 266 278 277
3 266 279 278
3 266 280 279
3 266 277 268
3 287 286 285
3 290 266 291
3 290 280 266
3 289 288 287
3 289 285 282
3 289 282 280
3 289 287 285
3 289 280 290
3 345 292 293
3 344 293 294
3 344 345 293
3 343 294 295
3 343 344 294
3 342 295 296
3 342 343 295
3 341 296 297
3 341 342 296
3 340 297 298
3 340 341 297
3 339 298 299
3 339 340 298
3 338 339 299
3 337 299 300
3 337 300 301
3 337 338 299
3 336 301 302
3 336 337 301
3 335 336 302
3 334 335 302
3 334 302 303
3 334 303 304
3 333 334 304
3 333 304 305
3 332 333 305
3 332 305 306
3 331 332 306
3 330 306 307
3 330 307 308
3 330 331 306
3 329 330 308
3 328 308 309
3 328 329 308
3 327 309 310
3 327 328 309
3 326 310 311
3 326 327 310
3 325 311 312
3 325 312 313
3 325 326 311
3 324 325 313
3 323 313 314
3 323 314 315
3 323 324 313
3 322 323 315
3 321 315 316
3 321 316 317
3 321 322 315
3 320 321 317
3 319 317 318
3 319 320 317
3 348 346 347
3 348 347 349
3 350 353 351
3 352 353 350
3 354 357 356
3 355 357 354
3 361 359 358
3 361 358 360
3 364 366 369
3 364 369 365
3 368 363 365
3 368 365 369
3 362 368 367
3 362 363 368
3 362 366 364
3 362 367 366
3 399 370 371
3 399 398 370
3 400 371 372
3 400 399 371
3 401 372 373
3 401 400 372
3 402 373 374
3 402 374 375
3 402 401 373
3 403 402 375
3 404 375 376
3 404 403 375
3 405 376 377
3 405 404 376
3 406 377 378
3 406 405 377
3 407 378 379
3 407 379 380
3 407 406 378
3 408 407 380
3 409 408 380
3 409 380 381
3 410 409 381
3 410 381 382
3 411 410 382
3 411 382 383
3 411 383 384
3 412 411 384
3 413 384 385
3 413 412 384
3 414 385 386
3 414 413 385
3 415 386 387
3 415 414 386
3 416 387 388
3 416 388 389
3 416 415 387
3 417 416 389
3 418 389 390
3 418 417 389
3 419 390 391
3 419 391 392
3 419 418 390
3 420 419 392
3 421 392 393
3 421 420 392
3 422 393 394
3 422 421 393
3 423 394 395
3 423 422 394
3 397 395 396
3 397 423 395
3 438 439 440
3 444 442 443
3 445 442 444
3 446 442 445
3 434 435 436
3 448 440 441
3 448 441 442
3 448 446 447
3 448 438 440
3 448 442 446
3 432 433 434
3 424 437 438
3 424 448 449
3 424 438 448
3 429 430 431
3 429 431 432
3 426 424 425
3 426 436 437
3 426 437 424
3 428 429 432
3 427 434 436
3 427 436 426
3 427 432 434
3 427 428 432
3 479 450 451
3 479 478 450
3 480 451 452
3 480 479 451
3 481 452 453
3 481 480 452
3 482 453 454
3 482 454 455
3 482 481 453
3 483 482 455
3 484 455 456
3 484 483 455
3 485 456 457
3 485 484 456
3 486 457 458
3 486 485 457
3 487 458 459
3 487 459 460
3 487 486 458
3 488 487 460
3 489 488 460
3 489 460 461
3 490 489 461
3 490 461 462
3 491 490 462
3 491 462 463
3 491 463 464
3 492 491 464
3 493 464 465
3 493 492 464
3 494 465 466
3 494 493 465
3 495 466 467
3 495 494 466
3 496 467 468
3 496 468 469
3 496 495 467
3 497 496 469
3 498 469 470
3 498 497 469
3 499 470 471
3 499 471 472
3 499 498 470
3 500 499 472
3 501 472 473
3 501 500 472
3 502 473 474
3 502 501 473
3 503 474 475
3 503 502 474
3 477 475 476
3 477 503 475
3 517 518 519
3 524 522 523
3 526 524 525
3 526 522 524
3 514 515 516
3 512 513 514
3 512 516 517
3 512 519 520
3 512 517 519
3 512 514 516
3 504 526 527
3 504 527 528
3 504 528 529
3 509 510 511
3 509 511 512
3 509 520 521
3 509 521 522
3 509 522 526
3 509 512 520
3 506 504 505
3 506 526 504
3 507 508 509
3 507 509 526
3 507 526 506
3 559 530 531
3 559 558 530
3 560 531 532
3 560 559 531
3 561 532 533
3 561 560 532
3 562 533 534
3 562 534 535
3 562 561 533
3 563 562 535
3 564 535 536
3 564 563 535
3 565 536 537
3 565 564 536
3 566 537 538
3 566 565 537
3 567 538 539
3 567 539 540
3 567 566 538
3 568 567 540
3 569 568 540
3 569 540 541
3 570 569 541
3 570 541 542
3 571 570 542
3 571 542 543
3 571 543 544
3 572 571 544
3 573 544 545
3 573 572 544
3 574 545 546
3 574 573 545
3 575 546 547
3 575 574 546
3 576 547 548
3 576 548 549
3 576 575 547
3 577 576 549
3 578 549 550
3 578 577 549
3 579 550 551
3 579 551 552
3 579 578 550
3 580 579 552
3 581 552 553
3 581 580 552
3 582 553 554
3 582 581 553
3 583 554 555
3 583 582 554
3 557 555 556
3 557 583 555
3 596 597 598
3 596 598 599
3 596 599 600
3 606 602 603
3 606 603 604
3 606 604 605
3 608 606 607
3 592 593 594
3 592 594 595
3 592 595 596
3 592 600 601
3 592 601 602
3 592 596 600
3 589 590 591
3 589 591 592
3 589 602 606
3 589 592 602
3 586 584 585
3 586 608 609
3 586 609 584
3 587 588 589
3 587 606 608
3 587 589 606
3 587 608 586
3 639 610 611
3 639 638 610
3 640 611 612
3 640 639 611
3 641 612 613
3 641 640 612
3 642 613 614
3 642 614 615
3 642 641 613
3 643 642 615
3 644 615 616
3 644 643 615
3 645 616 617
3 645 644 616
3 646 617 618
3 646 645 617
3 647 618 619
3 647 619 620
3 647 646 618
3 648 647 620
3 649 648 620
3 649 620 621
3 650 649 621
3 650 621 622
3 651 650 622
3 651 622 623
3 651 623 624
3 652 651 624
3 653 624 625
3 653 652 624
3 654 625 626
3 654 653 625
3 655 626 627
3 655 654 626
3 656 627 628
3 656 628 629
3 656 655 627
3 657 656 629
3 658 629 630
3 658 657 629
3 659 630 631
3 659 631 632
3 659 658 630
3 660 659 632
3 661 632 633
3 661 660 632
3 662 633 634
3 662 661 633
3 663 634 635
3 663 662 634
3 637 635 636
3 637 663 635
3 678 679 680
3 684 682 683
3 685 682 684
3 686 682 685
3 674 675 676
3 688 680 681
3 688 681 682
3 688 686 687
3 688 678 680
3 688 682 686
3 672 673 674
3 664 677 678
3 664 688 689
3 664 678 688
3 669 670 671
3 669 671 672
3 666 664 665
3 666 676 677
3 666 677 664
3 668 669 672
3 667 674 676
3 667 676 666
3 667 672 674
3 667 668 672
3 743 690 691
3 742 691 692
3 742 743 691
3 741 692 693
3 741 742 692
3 740 693 694
3 740 741 693
3 739 694 695
3 739 740 694
3 738 695 696
3 738 739 695
3 737 696 697
3 737 738 696
3 736 737 697
3 735 697 698
3 735 698 699
3 735 736 697
3 734 699 700
3 734 735 699
3 733 734 700
3 732 733 700
3 732 700 701
3 732 701 702
3 731 732 702
3 731 702 703
3 730 731 703
3 730 703 704
3 729 730 704
3 728 704 705
3 728 705 706
3 728 729 704
3 727 728 706
3 726 706 707
3 726 727 706
3 725 707 708
3 725 726 707
3 724 708 709
3 724 725 708
3 723 709 710
3 723 710 711
3 723 724 709
3 722 723 711
3 721 711 712
3 721 712 713
3 721 722 711
3 720 721 713
3 719 713 714
3 719 714 715
3 719 720 713
3 718 719 715
3 717 715 716
3 717 718 715
3 797 744 745
3 796 745 746
3 796 797 745
3 795 746 747
3 795 796 746
3 794 747 748
3 794 795 747
3 793 748 749
3 793 794 748
3 792 749 750
3 792 793 749
3 791 750 751
3 791 792 750
3 790 791 751
3 789 751 752
3 789 752 753
3 789 790 751
3 788 753 754
3 788 789 753
3 787 788 754
3 786 787 754
3 786 754 755
3 786 755 756
3 785 786 756
3 785 756 757
3 784 785 757
3 784 757 758
3 783 784 758
3 782 758 759
3 782 759 760
3 782 783 758
3 781 782 760
3 780 760 761
3 780 781 760
3 779 761 762
3 779 780 761
3 778 762 763
3 778 779 762
3 777 763 764
3 777 764 765
3 777 778 763
3 776 777 765
3 775 765 766
3 775 766 767
3 775 776 765
3 774 775 767
3 773 767 768
3 773 768 769
3 773 774 767
3 772 773 769
3 771 769 770
3 771 772 769
3 806 808 807
3 804 806 805
3 802 804 803
3 814 813 812
3 801 806 804
3 801 804 802
3 800 809 808
3 800 808 806
3 800 806 801
3 817 815 814
3 817 816 815
3 798 800 799
3 798 810 809
3 798 811 810
3 798 812 811
3 798 809 800
3 819 818 817
3 822 798 823
3 822 812 798
3 821 820 819
3 821 817 814
3 821 814 812
3 821 819 817
3 821 812 822
3 827 825 824
3 827 824 826
3 828 831 830
3 828 829 831
3 834 832 833
3 834 833 835
3 836 838 839
3 836 839 837
3 1043 843 1042
3 1041 1042 843
3 1044 843 1043
3 1040 1041 843
3 1045 843 1044
3 1039 1040 843
3 1046 843 1045
3 1038 1039 843
3 1047 843 1046
3 1037 1038 843
3 939 1036 938
3 939 1035 1036
3 1017 1047 1048
3 1017 1048 1049
3 1017 1049 1016
3 937 938 1036
3 937 1036 1037
3 1015 1049 1050
3 1015 1050 1051
3 1015 1016 1049
3 940 1035 939
3 940 1034 1035
3 1018 1047 1017
3 1018 843 1047
3 1014 1015 1051
3 941 1034 940
3 941 1033 1034
3 1019 843 1018
3 1013 1051 1026
3 1013 1014 1051
3 942 1033 941
3 942 1032 1033
3 1020 843 1019
3 1012 1013 1026
3 1012 1026 1027
3 1012 1027 1028
3 943 1031 1032
3 943 1032 942
3 1011 1012 1028
3 944 1031 943
3 944 1030 1031
3 1010 1011 1028
3 1010 1028 1029
3 842 1037 843
3 842 937 1037
3 842 932 933
3 842 933 934
3 842 934 935
3 842 935 936
3 842 936 937
3 945 1030 944
3 945 1029 1030
3 931 932 842
3 930 931 842
3 929 930 842
3 928 929 842
3 927 928 842
3 860 945 946
3 860 1010 1029
3 860 1029 945
3 990 1023 1024
3 861 1010 860
3 861 1008 1009
3 861 1009 1010
3 991 1023 990
3 991 1022 1023
3 859 946 947
3 859 860 946
3 989 990 1024
3 862 1008 861
3 992 1021 1022
3 992 1022 991
3 858 859 947
3 988 1024 1025
3 988 989 1024
3 863 1007 1008
3 863 1008 862
3 993 843 1020
3 993 1020 1021
3 993 1021 992
3 857 947 922
3 857 858 947
3 987 1025 1000
3 987 988 1025
3 864 1006 1007
3 864 1007 863
3 856 857 922
3 856 922 923
3 856 923 924
3 986 987 1000
3 986 1000 1001
3 986 1001 1002
3 865 1006 864
3 865 1005 1006
3 855 856 924
3 985 986 1002
3 866 1005 865
3 866 1003 1004
3 866 1004 1005
3 854 855 924
3 854 924 925
3 854 925 926
3 984 985 1002
3 984 1002 1003
3 867 1003 866
3 867 984 1003
3 853 854 926
3 852 853 926
3 852 927 842
3 852 926 927
3 851 852 842
3 886 984 867
3 886 867 868
3 964 997 998
3 887 982 983
3 887 983 984
3 887 984 886
3 965 996 997
3 965 997 964
3 885 886 868
3 963 964 998
3 888 982 887
3 966 995 996
3 966 996 965
3 884 868 869
3 884 885 868
3 962 998 999
3 962 963 998
3 889 981 982
3 889 982 888
3 883 869 844
3 883 884 869
3 961 999 974
3 961 962 999
3 890 979 980
3 890 980 981
3 890 981 889
3 882 844 845
3 882 845 846
3 882 883 844
3 960 974 975
3 960 961 974
3 891 979 890
3 881 882 846
3 959 960 975
3 959 975 976
3 892 977 978
3 892 978 979
3 892 979 891
3 880 846 847
3 880 881 846
3 958 959 976
3 958 976 977
3 841 966 967
3 841 967 968
3 841 968 969
3 841 969 970
3 841 843 993
3 841 993 994
3 841 994 995
3 841 995 966
3 893 958 977
3 893 977 892
3 971 841 970
3 879 847 848
3 879 880 847
3 972 841 971
3 878 848 849
3 878 879 848
3 973 841 972
3 948 841 973
3 949 841 948
3 950 841 949
3 912 958 893
3 913 957 958
3 913 958 912
3 911 893 894
3 911 912 893
3 914 956 957
3 914 957 913
3 910 911 894
3 910 894 895
3 915 954 955
3 915 955 956
3 915 956 914
3 909 895 870
3 909 910 895
3 916 953 954
3 916 954 915
3 908 909 870
3 908 870 871
3 917 953 916
3 907 871 872
3 907 908 871
3 918 952 953
3 918 953 917
3 906 907 872
3 906 872 873
3 906 873 874
3 919 950 951
3 919 951 952
3 919 952 918
3 905 906 874
3 920 950 919
3 920 841 950
3 904 874 875
3 904 905 874
3 840 904 875
3 840 841 920
3 840 875 876
3 840 896 897
3 840 897 898
3 840 898 899
3 840 899 900
3 840 900 901
3 840 901 902
3 840 902 903
3 840 903 904
3 840 920 921
3 840 921 896
3 840 851 842
3 840 850 851
3 840 849 850
3 840 877 849
3 877 878 849
3 840 876 877
3 1081 1053 1052
3 1081 1052 1080
3 1082 1054 1053
3 1082 1053 1081
3 1083 1055 1054
3 1083 1054 1082
3 1084 1056 1055
3 1084 1055 1083
3 1085 1057 1056
3 1085 1056 1084
3 1086 1058 1057
3 1086 1057 1085
3 1087 1059 1058
3 1087 1058 1086
3 1088 1060 1059
3 1088 1059 1087
3 1089 1061 1060
3 1089 1062 1061
3 1089 1060 1088
3 1090 1062 1089
3 1091 1062 1090
3 1091 1063 1062
3 1092 1063 1091
3 1092 1064 1063
3 1093 1064 1092
3 1093 1065 1064
3 1094 1065 1093
3 1094 1066 1065
3 1095 1067 1066
3 1095 1066 1094
3 1096 1068 1067
3 1096 1067 1095
3 1097 1069 1068
3 1097 1068 1096
3 1098 1070 1069
3 1098 1071 1070
3 1098 1069 1097
3 1099 1071 1098
3 1100 1071 1099
3 1100 1072 1071
3 1101 1073 1072
3 1101 1072 1100
3 1102 1074 1073
3 1102 1073 1101
3 1103 1075 1074
3 1103 1074 1102
3 1104 1076 1075
3 1104 1075 1103
3 1105 1077 1076
3 1105 1076 1104
3 1079 1078 1077
3 1079 1077 1105
3 1121 1123 1122
3 1125 1124 1123
3 1119 1121 1120
3 1118 1123 1121
3 1118 1121 1119
3 1128 1126 1125
3 1128 1127 1126
3 1116 1118 1117
3 1129 1125 1123
3 1129 1128 1125
3 1114 1116 1115
3 1114 1118 1116
3 1107 1130 1129
3 1107 1131 1130
3 1107 1106 1131
3 1111 1113 1112
3 1111 1114 1113
3 1109 1108 1107
3 1109 1111 1110
3 1109 1123 1118
3 1109 1129 1123
3 1109 1107 1129
3 1109 1118 1114
3 1109 1114 1111
3 1161 1133 1132
3 1161 1132 1160
3 1162 1134 1133
3 1162 1133 1161
3 1163 1135 1134
3 1163 1134 1162
3 1164 1136 1135
3 1164 1135 1163
3 1165 1137 1136
3 1165 1136 1164
3 1166 1138 1137
3 1166 1137 1165
3 1167 1139 1138
3 1167 1138 1166
3 1168 1140 1139
3 1168 1139 1167
3 1169 1141 1140
3 1169 1142 1141
3 1169 1140 1168
3 1170 1142 1169
3 1171 1142 1170
3 1171 1143 1142
3 1172 1143 1171
3 1172 1144 1143
3 1173 1144 1172
3 1173 1145 1144
3 1174 1145 1173
3 1174 1146 1145
3 1175 1147 1146
3 1175 1146 1174
3 1176 1148 1147
3 1176 1147 1175
3 1177 1149 1148
3 1177 1148 1176
3 1178 1150 1149
3 1178 1151 1150
3 1178 1149 1177
3 1179 1151 1178
3 1180 1151 1179
3 1180 1152 1151
3 1181 1153 1152
3 1181 1152 1180
3 1182 1154 1153
3 1182 1153 1181
3 1183 1155 1154
3 1183 1154 1182
3 1184 1156 1155
3 1184 1155 1183
3 1185 1157 1156
3 1185 1156 1184
3 1159 1158 1157
3 1159 1157 1185
3 1200 1202 1201
3 1205 1203 1202
3 1205 1204 1203
3 1207 1206 1205
3 1196 1198 1197
3 1196 1199 1198
3 1196 1200 1199
3 1194 1196 1195
3 1211 1210 1209
3 1186 1209 1208
3 1186 1211 1209
3 1187 1208 1207
3 1187 1205 1202
3 1187 1207 1205
3 1187 1186 1208
3 1190 1192 1191
3 1190 1193 1192
3 1190 1194 1193
3 1189 1188 1187
3 1189 1202 1200
3 1189 1196 1194
3 1189 1200 1196
3 1189 1187 1202
3 1189 1194 1190
3 1241 1213 1212
3 1241 1212 1240
3 1242 1214 1213
3 1242 1213 1241
3 1243 1215 1214
3 1243 1214 1242
3 1244 1216 1215
3 1244 1215 1243
3 1245 1217 1216
3 1245 1216 1244
3 1246 1218 1217
3 1246 1217 1245
3 1247 1219 1218
3 1247 1218 1246
3 1248 1220 1219
3 1248 1219 1247
3 1249 1221 1220
3 1249 1222 1221
3 1249 1220 1248
3 1250 1222 1249
3 1251 1222 1250
3 1251 1223 1222
3 1252 1223 1251
3 1252 1224 1223
3 1253 1224 1252
3 1253 1225 1224
3 1254 1225 1253
3 1254 1226 1225
3 1255 1227 1226
3 1255 1226 1254
3 1256 1228 1227
3 1256 1227 1255
3 1257 1229 1228
3 1257 1228 1256
3 1258 1230 1229
3 1258 1231 1230
3 1258 1229 1257
3 1259 1231 1258
3 1260 1231 1259
3 1260 1232 1231
3 1261 1233 1232
3 1261 1232 1260
3 1262 1234 1233
3 1262 1233 1261
3 1263 1235 1234
3 1263 1234 1262
3 1264 1236 1235
3 1264 1235 1263
3 1265 1237 1236
3 1265 1236 1264
3 1239 1238 1237
3 1239 1237 1265
3 1284 1283 1282
3 1285 1284 1282
3 1278 1280 1279
3 1287 1286 1285
3 1276 1278 1277
3 1274 1276 1275
3 1291 1290 1289
3 1267 1288 1287
3 1267 1289 1288
3 1267 1266 1291
3 1267 1287 1285
3 1267 1291 1289
3 1269 1268 1267
3 1269 1271 1270
3 1269 1272 1271
3 1269 1273 1272
3 1269 1274 1273
3 1269 1281 1280
3 1269 1282 1281
3 1269 1267 1285
3 1269 1285 1282
3 1269 1280 1278
3 1269 1278 1276
3 1269 1276 1274
3 1321 1293 1292
3 1321 1292 1320
3 1322 1294 1293
3 1322 1293 1321
3 1323 1295 1294
3 1323 1294 1322
3 1324 1296 1295
3 1324 1295 1323
3 1325 1297 1296
3 1325 1296 1324
3 1326 1298 1297
3 1326 1297 1325
3 1327 1299 1298
3 1327 1298 1326
3 1328 1300 1299
3 1328 1299 1327
3 1329 1301 1300
3 1329 1302 1301
3 1329 1300 1328
3 1330 1302 1329
3 1331 1302 1330
3 1331 1303 1302
3 1332 1303 1331
3 1332 1304 1303
3 1333 1304 1332
3 1333 1305 1304
3 1334 1305 1333
3 1334 1306 1305
3 1335 1307 1306
3 1335 1306 1334
3 1336 1308 1307
3 1336 1307 1335
3 1337 1309 1308
3 1337 1308 1336
3 1338 1310 1309
3 1338 1311 1310
3 1338 1309 1337
3 1339 1311 1338
3 1340 1311 1339
3 1340 1312 1311
3 1341 1313 1312
3 1341 1312 1340
3 1342 1314 1313
3 1342 1313 1341
3 1343 1315 1314
3 1343 1314 1342
3 1344 1316 1315
3 1344 1315 1343
3 1345 1317 1316
3 1345 1316 1344
3 1319 1318 1317
3 1319 1317 1345
3 1364 1363 1362
3 1359 1361 1360
3 1358 1362 1361
3 1358 1361 1359
3 1368 1366 1365
3 1368 1367 1366
3 1369 1365 1364
3 1369 1364 1362
3 1369 1368 1365
3 1355 1357 1356
3 1371 1370 1369
3 1371 1369 1362
3 1347 1358 1357
3 1347 1346 1371
3 1347 1362 1358
3 1347 1371 1362
3 1351 1353 1352
3 1351 1354 1353
3 1349 1348 1347
3 1349 1351 1350
3 1349 1355 1354
3 1349 1357 1355
3 1349 1347 1357
3 1349 1354 1351
3 1401 1373 1372
3 1401 1372 1400
3 1402 1374 1373
3 1402 1373 1401
3 1403 1375 1374
3 1403 1374 1402
3 1404 1376 1375
3 1404 1375 1403
3 1405 1377 1376
3 1405 1376 1404
3 1406 1378 1377
3 1406 1377 1405
3 1407 1379 1378
3 1407 1378 1406
3 1408 1380 1379
3 1408 1379 1407
3 1409 1381 1380
3 1409 1382 1381
3 1409 1380 1408
3 1410 1382 1409
3 1411 1382 1410
3 1411 1383 1382
3 1412 1383 1411
3 1412 1384 1383
3 1413 1384 1412
3 1413 1385 1384
3 1414 1385 1413
3 1414 1386 1385
3 1415 1387 1386
3 1415 1386 1414
3 1416 1388 1387
3 1416 1387 1415
3 1417 1389 1388
3 1417 1388 1416
3 1418 1390 1389
3 1418 1391 1390
3 1418 1389 1417
3 1419 1391 1418
3 1420 1391 1419
3 1420 1392 1391
3 1421 1393 1392
3 1421 1392 1420
3 1422 1394 1393
3 1422 1393 1421
3 1423 1395 1394
3 1423 1394 1422
3 1424 1396 1395
3 1424 1395 1423
3 1425 1397 1396
3 1425 1396 1424
3 1399 1398 1397
3 1399 1397 1425
3 1441 1443 1442
3 1439 1441 1440
3 1446 1444 1443
3 1446 1445 1444
3 1438 1441 1439
3 1448 1447 1446
3 1436 1438 1437
3 1433 1435 1434
3 1433 1436 1435
3 1427 1449 1448
3 1427 1450 1449
3 1427 1451 1450
3 1427 1426 1451
3 1427 1443 1441
3 1427 1446 1443
3 1427 1441 1438
3 1427 1448 1446
3 1429 1428 1427
3 1429 1431 1430
3 1429 1432 1431
3 1429 1433 1432
3 1429 1438 1436
3 1429 1436 1433
3 1429 1427 1438
3 1481 1453 1452
3 1481 1452 1480
3 1482 1454 1453
3 1482 1453 1481
3 1483 1455 1454
3 1483 1454 1482
3 1484 1456 1455
3 1484 1455 1483
3 1485 1457 1456
3 1485 1456 1484
3 1486 1458 1457
3 1486 1457 1485
3 1487 1459 1458
3 1487 1458 1486
3 1488 1460 1459
3 1488 1459 1487
3 1489 1461 1460
3 1489 1462 1461
3 1489 1460 1488
3 1490 1462 1489
3 1491 1462 1490
3 1491 1463 1462
3 1492 1463 1491
3 1492 1464 1463
3 1493 1464 1492
3 1493 1465 1464
3 1494 1465 1493
3 1494 1466 1465
3 1495 1467 1466
3 1495 1466 1494
3 1496 1468 1467
3 1496 1467 1495
3 1497 1469 1468
3 1497 1468 1496
3 1498 1470 1469
3 1498 1471 1470
3 1498 1469 1497
3 1499 1471 1498
3 1500 1471 1499
3 1500 1472 1471
3 1501 1473 1472
3 1501 1472 1500
3 1502 1474 1473
3 1502 1473 1501
3 1503 1475 1474
3 1503 1474 1502
3 1504 1476 1475
3 1504 1475 1503
3 1505 1477 1476
3 1505 1476 1504
3 1479 1478 1477
3 1479 1477 1505
3 1520 1522 1521
3 1526 1525 1524
3 1528 1523 1522
3 1528 1524 1523
3 1528 1527 1526
3 1528 1526 1524
3 1530 1529 1528
3 1514 1516 1515
3 1514 1517 1516
3 1514 1518 1517
3 1531 1530 1528
3 1511 1513 1512
3 1511 1514 1513
3 1508 1507 1506
3 1508 1506 1531
3 1508 1528 1522
3 1508 1522 1520
3 1508 1531 1528
3 1509 1511 1510
3 1509 1519 1518
3 1509 1520 1519
3 1509 1518 1514
3 1509 1514 1511
3 1509 1508 1520
3 1561 1533 1532
3 1561 1532 1560
3 1562 1534 1533
3 1562 1533 1561
3 1563 1535 1534
3 1563 1534 1562
3 1564 1536 1535
3 1564 1535 1563
3 1565 1537 1536
3 1565 1536 1564
3 1566 1538 1537
3 1566 1537 1565
3 1567 1539 1538
3 1567 1538 1566
3 1568 1540 1539
3 1568 1539 1567
3 1569 1541 1540
3 1569 1542 1541
3 1569 1540 1568
3 1570 1542 1569
3 1571 1542 1570
3 1571 1543 1542
3 1572 1543 1571
3 1572 1544 1543
3 1573 1544 1572
3 1573 1545 1544
3 1574 1545 1573
3 1574 1546 1545
3 1575 1547 1546
3 1575 1546 1574
3 1576 1548 1547
3 1576 1547 1575
3 1577 1549 1548
3 1577 1548 1576
3 1578 1550 1549
3 1578 1551 1550
3 1578 1549 1577
3 1579 1551 1578
3 1580 1551 1579
3 1580 1552 1551
3 1581 1553 1552
3 1581 1552 1580
3 1582 1554 1553
3 1582 1553 1581
3 1583 1555 1554
3 1583 1554 1582
3 1584 1556 1555
3 1584 1555 1583
3 1585 1557 1556
3 1585 1556 1584
3 1559 1558 1557
3 1559 1557 1585
3 1604 1603 1602
3 1606 1605 1604
3 1598 1600 1599
3 1608 1602 1601
3 1608 1607 1606
3 1608 1604 1602
3 1608 1606 1604
3 1594 1596 1595
3 1611 1609 1608
3 1611 1610 1609
3 1591 1593 1592
3 1591 1594 1593
3 1589 1587 1586
3 1589 1588 1587
3 1589 1591 1590
3 1589 1597 1596
3 1589 1598 1597
3 1589 1601 1600
3 1589 1586 1611
3 1589 1600 1598
3 1589 1611 1608
3 1589 1608 1601
3 1589 1596 1594
3 1589 1594 1591
3 1641 1613 1612
3 1641 1612 1640
3 1642 1614 1613
3 1642 1613 1641
3 1643 1615 1614
3 1643 1614 1642
3 1644 1616 1615
3 1644 1615 1643
3 1645 1617 1616
3 1645 1616 1644
3 1646 1618 1617
3 1646 1617 1645
3 1647 1619 1618
3 1647 1618 1646
3 1648 1620 1619
3 1648 1619 1647
3 1649 1621 1620
3 1649 1622 1621
3 1649 1620 1648
3 1650 1622 1649
3 1651 1622 1650
3 1651 1623 1622
3 1652 1623 1651
3 1652 1624 1623
3 1653 1624 1652
3 1653 1625 1624
3 1654 1625 1653
3 1654 1626 1625
3 1655 1627 1626
3 1655 1626 1654
3 1656 1628 1627
3 1656 1627 1655
3 1657 1629 1628
3 1657 1628 1656
3 1658 1630 1629
3 1658 1631 1630
3 1658 1629 1657
3 1659 1631 1658
3 1660 1631 1659
3 1660 1632 1631
3 1661 1633 1632
3 1661 1632 1660
3 1662 1634 1633
3 1662 1633 1661
3 1663 1635 1634
3 1663 1634 1662
3 1664 1636 1635
3 1664 1635 1663
3 1665 1637 1636
3 1665 1636 1664
3 1639 1638 1637
3 1639 1637 1665
3 1684 1683 1682
3 1679 1681 1680
3 1686 1685 1684
3 1686 1684 1682
3 1678 1682 1681
3 1678 1681 1679
3 1688 1687 1686
3 1689 1686 1682
3 1689 1688 1686
3 1675 1677 1676
3 1691 1690 1689
3 1667 1678 1677
3 1667 1666 1691
3 1667 1682 1678
3 1667 1689 1682
3 1667 1691 1689
3 1670 1672 1671
3 1669 1668 1667
3 1669 1673 1672
3 1669 1674 1673
3 1669 1675 1674
3 1669 1677 1675
3 1669 1667 1677
3 1669 1672 1670
3 1703 1702 1701
3 1705 1701 1700
3 1705 1704 1703
3 1705 1703 1701
3 1697 1699 1698
3 1708 1706 1705
3 1708 1707 1706
3 1711 1700 1699
3 1711 1709 1708
3 1711 1710 1709
3 1711 1705 1700
3 1711 1699 1697
3 1711 1708 1705
3 1692 1694 1693
3 1717 1695 1694
3 1717 1696 1695
3 1717 1694 1692
3 1716 1697 1696
3 1716 1712 1711
3 1716 1696 1717
3 1716 1711 1697
3 1714 1713 1712
3 1715 1714 1712
3 1715 1712 1716
3 1726 1728 1727
3 1726 1729 1728
3 1731 1730 1729
3 1723 1725 1724
3 1734 1732 1731
3 1734 1733 1732
3 1734 1729 1726
3 1734 1731 1729
3 1720 1722 1721
3 1720 1723 1722
3 1737 1726 1725
3 1737 1735 1734
3 1737 1736 1735
3 1737 1734 1726
3 1718 1720 1719
3 1718 1723 1720
3 1738 1725 1723
3 1738 1737 1725
3 1742 1718 1743
3 1742 1723 1718
3 1740 1739 1738
3 1741 1738 1723
3 1741 1723 1742
3 1741 1740 1738
