ply
format ascii 1.0
comment generated by blendit.inference.finetune_visualize
element vertex 126
property float x
property float y
property float z
property uchar red
property uchar green
property uchar blue
element face 80
property list uchar int vertex_indices
end_header
163.5125 -31.75 9.525 218 222 230
163.5125 -31.75 0 218 222 230
125.4125 -31.75 0 218 222 230
125.4125 -31.75 9.525 218 222 230
125.4125 31.75 9.525 218 222 230
125.4125 31.75 0 218 222 230
163.5125 31.75 9.525 218 222 230
163.5125 31.75 0 218 222 230
-125.4125 -31.75 5.20417043e-15 218 222 230
-65.0875 -57.15 0 218 222 230
-46.0375 -57.15 0 218 222 230
-46.0375 -38.1 0 218 222 230
46.0375 -38.1 0 218 222 230
46.0375 -57.15 0 218 222 230
65.0875 -57.15 0 218 222 230
125.4125 -31.75 0 218 222 230
163.5125 -31.75 0 218 222 230
163.5125 31.75 0 218 222 230
125.4125 31.75 0 218 222 230
65.0875 57.15 0 218 222 230
46.0375 57.15 0 218 222 230
46.0375 38.1 0 218 222 230
-46.0375 38.1 0 218 222 230
-46.0375 57.15 0 218 222 230
-65.0875 57.15 0 218 222 230
-125.4125 31.75 0 218 222 230
-163.5125 31.75 0 218 222 230
-163.5125 -31.5155685 0 218 222 230
-125.4125 -31.5155685 0 218 222 230
-46.0375 38.1 0 218 222 230
46.0375 38.1 0 218 222 230
-46.0375 38.1 9.525 218 222 230
46.0375 38.1 9.525 218 222 230
-46.0375 57.15 0 218 222 230
-46.0375 38.1 0 218 222 230
-46.0375 57.15 9.525 218 222 230
-46.0375 38.1 9.525 218 222 230
46.0375 57.15 0 218 222 230
65.0875 57.15 0 218 222 230
46.0375 57.15 9.525 218 222 230
65.0875 57.15 9.525 218 222 230
46.0375 57.15 9.525 218 222 230
46.0375 57.15 0 218 222 230
46.0375 38.1 9.525 218 222 230
46.0375 38.1 0 218 222 230
46.0375 -38.1 9.525 218 222 230
46.0375 -38.1 0 218 222 230
46.0375 -57.15 9.525 218 222 230
46.0375 -57.15 0 218 222 230
46.0375 -57.15 9.525 218 222 230
46.0375 -57.15 0 218 222 230
65.0875 -57.15 9.525 218 222 230
65.0875 -57.15 0 218 222 230
-125.4125 31.75 9.525 218 222 230
-125.4125 31.75 0 218 222 230
-163.5125 31.75 9.525 218 222 230
-163.5125 31.75 0 218 222 230
-163.5125 31.75 9.525 218 222 230
-163.5125 31.75 0 218 222 230
-163.5125 -31.5155685 9.525 218 222 230
-163.5125 -31.5155685 0 218 222 230
-125.4125 -31.5155685 0 218 222 230
-163.5125 -31.5155685 0 218 222 230
-125.4125 -31.5155685 9.525 218 222 230
-163.5125 -31.5155685 9.525 218 222 230
-125.4125 -31.75 9.525 218 222 230
-65.0875 -57.15 9.525 218 222 230
-65.0875 -57.15 0 218 222 230
-125.4125 -31.75 5.20417043e-15 218 222 230
-46.0375 57.15 9.525 218 222 230
-46.0375 57.15 0 218 222 230
-65.0875 57.15 9.525 218 222 230
-65.0875 57.15 0 218 222 230
-65.0875 -57.15 9.525 218 222 230
-65.0875 -57.15 0 218 222 230
-46.0375 -57.15 0 218 222 230
-46.0375 -57.15 9.525 218 222 230
-46.0375 -38.1 0 218 222 230
-46.0375 -57.15 0 218 222 230
-46.0375 -38.1 9.525 218 222 230
-46.0375 -57.15 9.525 218 222 230
125.4125 31.75 9.525 218 222 230
125.4125 31.75 0 218 222 230
65.0875 57.15 9.525 218 222 230
65.0875 57.15 0 218 222 230
-125.4125 31.75 0 218 222 230
-65.0875 57.15 0 218 222 230
-125.4125 31.75 9.525 218 222 230
-65.0875 57.15 9.525 218 222 230
-125.4125 -31.5155685 9.525 218 222 230
-125.4125 -31.75 9.525 218 222 230
-125.4125 -31.75 5.20417043e-15 218 222 230
-125.4125 -31.5155685 0 218 222 230
125.4125 -31.75 0 218 222 230
65.0875 -57.15 0 218 222 230
125.4125 -31.75 9.525 218 222 230
65.0875 -57.15 9.525 218 222 230
125.4125 -31.75 9.525 218 222 230
65.0875 -57.15 9.525 218 222 230
163.5125 -31.75 9.525 218 222 230
163.5125 31.75 9.525 218 222 230
125.4125 31.75 9.525 218 222 230
65.0875 57.15 9.525 218 222 230
46.0375 57.15 9.525 218 222 230
46.0375 38.1 9.525 218 222 230
-46.0375 38.1 9.525 218 222 230
-46.0375 57.15 9.525 218 222 230
-65.0875 57.15 9.525 218 222 230
-125.4125 31.75 9.525 218 222 230
-163.5125 31.75 9.525 218 222 230
-163.5125 -31.5155685 9.525 218 222 230
-125.4125 -31.5155685 9.525 218 222 230
-125.4125 -31.75 9.525 218 222 230
-65.0875 -57.15 9.525 218 222 230
-46.0375 -57.15 9.525 218 222 230
-46.0375 -38.1 9.525 218 222 230
46.0375 -38.1 9.525 218 222 230
46.0375 -57.15 9.525 218 222 230
-46.0375 -38.1 9.525 218 222 230
-46.0375 -38.1 0 218 222 230
46.0375 -38.1 9.525 218 222 230
46.0375 -38.1 0 218 222 230
163.5125 31.75 0 218 222 230
163.5125 -31.75 0 218 222 230
163.5125 31.75 9.525 218 222 230
163.5125 -31.75 9.525 218 222 230
3 0 2 1
3 0 3 2
3 6 5 4
3 6 7 5
3 9 8 28
3 25 27 26
3 25 28 27
3 11 10 9
3 11 9 28
3 22 25 24
3 22 28 25
3 22 11 28
3 14 13 12
3 23 22 24
3 21 12 11
3 21 11 22
3 15 14 12
3 15 12 21
3 19 21 20
3 18 15 21
3 18 21 19
3 17 16 15
3 17 15 18
3 32 30 29
3 32 29 31
3 35 36 34
3 33 35 34
3 40 38 37
3 40 37 39
3 41 44 43
3 42 44 41
3 45 48 47
3 46 48 45
3 51 49 50
3 51 50 52
3 53 56 55
3 54 56 53
3 57 60 59
3 58 60 57
3 63 64 62
3 61 63 62
3 65 67 66
3 65 68 67
3 70 71 69
3 70 72 71
3 75 73 74
3 75 76 73
3 79 80 78
3 77 79 78
3 81 84 83
3 81 82 84
3 87 86 85
3 87 88 86
3 91 90 89
3 92 91 89
3 95 94 93
3 95 96 94
3 113 111 112
3 108 109 110
3 108 110 111
3 115 113 114
3 115 111 113
3 105 107 108
3 105 108 111
3 105 111 115
3 116 105 115
3 98 116 117
3 106 107 105
3 104 105 116
3 97 116 98
3 102 103 104
3 101 97 99
3 101 104 116
3 101 116 97
3 101 102 104
3 100 101 99
3 120 118 119
3 120 119 121
3 122 124 125
3 122 125 123
