ply
format ascii 1.0
comment generated by blendit.inference.finetune_visualize
element vertex 1080
property float x
property float y
property float z
property uchar red
property uchar green
property uchar blue
element face 1008
property list uchar int vertex_indices
end_header
-85 85 1.5875 218 222 230
-85 82.2272604 1.5875 218 222 230
-62.7030778 82.2272604 1.5875 218 222 230
-62.7030778 63.444938 1.5875 218 222 230
-85 63.444938 1.5875 218 222 230
-85 59.076956 1.5875 218 222 230
-65.3013303 59.076956 1.5875 218 222 230
-65.3013303 27.6274859 1.5875 218 222 230
-85 27.6274859 1.5875 218 222 230
-85 22.0583089 1.5875 218 222 230
-67.3547464 22.0583089 1.5875 218 222 230
-67.3547464 0 1.5875 218 222 230
-85 0 1.5875 218 222 230
-85 -2.29319053 1.5875 218 222 230
-60.5843743 -2.29319053 1.5875 218 222 230
-60.5843743 -19.7651184 1.5875 218 222 230
-85 -19.7651184 1.5875 218 222 230
-85 -23.0411049 1.5875 218 222 230
-58.4003833 -23.0411049 1.5875 218 222 230
-58.4003833 -43.1338219 1.5875 218 222 230
-85 -43.1338219 1.5875 218 222 230
-85 -85 1.5875 218 222 230
85 -85 1.5875 218 222 230
85 85 1.5875 218 222 230
-52.1556483 76.798 1.5875 218 222 230
-51.6693588 76.8570462 1.5875 218 222 230
-51.2113308 77.0307534 1.5875 218 222 230
-50.808183 77.3090262 1.5875 218 222 230
-50.4833451 77.6756924 1.5875 218 222 230
-50.2556953 78.1094429 1.5875 218 222 230
-50.1384638 78.5850695 1.5875 218 222 230
-50.1384638 79.0749305 1.5875 218 222 230
-50.2556953 79.5505571 1.5875 218 222 230
-50.4833451 79.9843076 1.5875 218 222 230
-50.808183 80.3509738 1.5875 218 222 230
-51.2113308 80.6292466 1.5875 218 222 230
-51.6693588 80.8029538 1.5875 218 222 230
-52.1556483 80.862 1.5875 218 222 230
-52.6419377 80.8029538 1.5875 218 222 230
-53.0999658 80.6292466 1.5875 218 222 230
-53.5031135 80.3509738 1.5875 218 222 230
-53.8279515 79.9843076 1.5875 218 222 230
-54.0556013 79.5505571 1.5875 218 222 230
-54.1728327 79.0749305 1.5875 218 222 230
-54.1728327 78.5850695 1.5875 218 222 230
-54.0556013 78.1094429 1.5875 218 222 230
-53.8279515 77.6756924 1.5875 218 222 230
-53.5031135 77.3090262 1.5875 218 222 230
-53.0999658 77.0307534 1.5875 218 222 230
-52.6419377 76.8570462 1.5875 218 222 230
-75.0156483 -80.682 1.5875 218 222 230
-74.5293588 -80.6229538 1.5875 218 222 230
-74.0713308 -80.4492466 1.5875 218 222 230
-73.668183 -80.1709738 1.5875 218 222 230
-73.3433451 -79.8043076 1.5875 218 222 230
-73.1156953 -79.3705571 1.5875 218 222 230
-72.9984638 -78.8949305 1.5875 218 222 230
-72.9984638 -78.4050695 1.5875 218 222 230
-73.1156953 -77.9294429 1.5875 218 222 230
-73.3433451 -77.4956924 1.5875 218 222 230
-73.668183 -77.1290262 1.5875 218 222 230
-74.0713308 -76.8507534 1.5875 218 222 230
-74.5293588 -76.6770462 1.5875 218 222 230
-75.0156483 -76.618 1.5875 218 222 230
-75.5019377 -76.6770462 1.5875 218 222 230
-75.9599658 -76.8507534 1.5875 218 222 230
-76.3631135 -77.1290262 1.5875 218 222 230
-76.6879515 -77.4956924 1.5875 218 222 230
-76.9156013 -77.9294429 1.5875 218 222 230
-77.0328327 -78.4050695 1.5875 218 222 230
-77.0328327 -78.8949305 1.5875 218 222 230
-76.9156013 -79.3705571 1.5875 218 222 230
-76.6879515 -79.8043076 1.5875 218 222 230
-76.3631135 -80.1709738 1.5875 218 222 230
-75.9599658 -80.4492466 1.5875 218 222 230
-75.5019377 -80.6229538 1.5875 218 222 230
79.9243517 -80.682 1.5875 218 222 230
80.4106412 -80.6229538 1.5875 218 222 230
80.8686692 -80.4492466 1.5875 218 222 230
81.271817 -80.1709738 1.5875 218 222 230
81.5966549 -79.8043076 1.5875 218 222 230
81.8243047 -79.3705571 1.5875 218 222 230
81.9415362 -78.8949305 1.5875 218 222 230
81.9415362 -78.4050695 1.5875 218 222 230
81.8243047 -77.9294429 1.5875 218 222 230
81.5966549 -77.4956924 1.5875 218 222 230
81.271817 -77.1290262 1.5875 218 222 230
80.8686692 -76.8507534 1.5875 218 222 230
80.4106412 -76.6770462 1.5875 218 222 230
79.9243517 -76.618 1.5875 218 222 230
79.4380623 -76.6770462 1.5875 218 222 230
78.9800342 -76.8507534 1.5875 218 222 230
78.5768865 -77.1290262 1.5875 218 222 230
78.2520485 -77.4956924 1.5875 218 222 230
78.0243987 -77.9294429 1.5875 218 222 230
77.9071673 -78.4050695 1.5875 218 222 230
77.9071673 -78.8949305 1.5875 218 222 230
78.0243987 -79.3705571 1.5875 218 222 230
78.2520485 -79.8043076 1.5875 218 222 230
78.5768865 -80.1709738 1.5875 218 222 230
78.9800342 -80.4492466 1.5875 218 222 230
79.4380623 -80.6229538 1.5875 218 222 230
79.9243517 76.798 1.5875 218 222 230
80.4106412 76.8570462 1.5875 218 222 230
80.8686692 77.0307534 1.5875 218 222 230
81.271817 77.3090262 1.5875 218 222 230
81.5966549 77.6756924 1.5875 218 222 230
81.8243047 78.1094429 1.5875 218 222 230
81.9415362 78.5850695 1.5875 218 222 230
81.9415362 79.0749305 1.5875 218 222 230
81.8243047 79.5505571 1.5875 218 222 230
81.5966549 79.9843076 1.5875 218 222 230
81.271817 80.3509738 1.5875 218 222 230
80.8686692 80.6292466 1.5875 218 222 230
80.4106412 80.8029538 1.5875 218 222 230
79.9243517 80.862 1.5875 218 222 230
79.4380623 80.8029538 1.5875 218 222 230
78.9800342 80.6292466 1.5875 218 222 230
78.5768865 80.3509738 1.5875 218 222 230
78.2520485 79.9843076 1.5875 218 222 230
78.0243987 79.5505571 1.5875 218 222 230
77.9071673 79.0749305 1.5875 218 222 230
77.9071673 78.5850695 1.5875 218 222 230
78.0243987 78.1094429 1.5875 218 222 230
78.2520485 77.6756924 1.5875 218 222 230
78.5768865 77.3090262 1.5875 218 222 230
78.9800342 77.0307534 1.5875 218 222 230
79.4380623 76.8570462 1.5875 218 222 230
-33.4375987 -24.9268151 1.5875 218 222 230
-32.9553776 -24.8682629 1.5875 218 222 230
-32.5011815 -24.696009 1.5875 218 222 230
-32.1014065 -24.4200643 1.5875 218 222 230
-31.7792862 -24.0564656 1.5875 218 222 230
-31.5535409 -23.6263439 1.5875 218 222 230
-31.4372903 -23.1546965 1.5875 218 222 230
-31.4372903 -22.6689337 1.5875 218 222 230
-31.5535409 -22.1972862 1.5875 218 222 230
-31.7792862 -21.7671646 1.5875 218 222 230
-32.1014065 -21.4035659 1.5875 218 222 230
-32.5011815 -21.1276212 1.5875 218 222 230
-32.9553776 -20.9553673 1.5875 218 222 230
-33.4375987 -20.8968151 1.5875 218 222 230
-33.9198197 -20.9553673 1.5875 218 222 230
-34.3740159 -21.1276212 1.5875 218 222 230
-34.7737908 -21.4035659 1.5875 218 222 230
-35.0959112 -21.7671646 1.5875 218 222 230
-35.3216564 -22.1972862 1.5875 218 222 230
-35.4379071 -22.6689337 1.5875 218 222 230
-35.4379071 -23.1546965 1.5875 218 222 230
-35.3216564 -23.6263439 1.5875 218 222 230
-35.0959112 -24.0564656 1.5875 218 222 230
-34.7737908 -24.4200643 1.5875 218 222 230
-34.3740159 -24.696009 1.5875 218 222 230
-33.9198197 -24.8682629 1.5875 218 222 230
41.5624013 -24.9268151 1.5875 218 222 230
42.0446224 -24.8682629 1.5875 218 222 230
42.4988185 -24.696009 1.5875 218 222 230
42.8985935 -24.4200643 1.5875 218 222 230
43.2207138 -24.0564656 1.5875 218 222 230
43.4464591 -23.6263439 1.5875 218 222 230
43.5627097 -23.1546965 1.5875 218 222 230
43.5627097 -22.6689337 1.5875 218 222 230
43.4464591 -22.1972862 1.5875 218 222 230
43.2207138 -21.7671646 1.5875 218 222 230
42.8985935 -21.4035659 1.5875 218 222 230
42.4988185 -21.1276212 1.5875 218 222 230
42.0446224 -20.9553673 1.5875 218 222 230
41.5624013 -20.8968151 1.5875 218 222 230
41.0801803 -20.9553673 1.5875 218 222 230
40.6259841 -21.1276212 1.5875 218 222 230
40.2262092 -21.4035659 1.5875 218 222 230
39.9040888 -21.7671646 1.5875 218 222 230
39.6783436 -22.1972862 1.5875 218 222 230
39.5620929 -22.6689337 1.5875 218 222 230
39.5620929 -23.1546965 1.5875 218 222 230
39.6783436 -23.6263439 1.5875 218 222 230
39.9040888 -24.0564656 1.5875 218 222 230
40.2262092 -24.4200643 1.5875 218 222 230
40.6259841 -24.696009 1.5875 218 222 230
41.0801803 -24.8682629 1.5875 218 222 230
41.5624013 50.0731849 1.5875 218 222 230
42.0446224 50.1317371 1.5875 218 222 230
42.4988185 50.303991 1.5875 218 222 230
42.8985935 50.5799357 1.5875 218 222 230
43.2207138 50.9435344 1.5875 218 222 230
43.4464591 51.3736561 1.5875 218 222 230
43.5627097 51.8453035 1.5875 218 222 230
43.5627097 52.3310663 1.5875 218 222 230
43.4464591 52.8027138 1.5875 218 222 230
43.2207138 53.2328354 1.5875 218 222 230
42.8985935 53.5964341 1.5875 218 222 230
42.4988185 53.8723788 1.5875 218 222 230
42.0446224 54.0446327 1.5875 218 222 230
41.5624013 54.1031849 1.5875 218 222 230
41.0801803 54.0446327 1.5875 218 222 230
40.6259841 53.8723788 1.5875 218 222 230
40.2262092 53.5964341 1.5875 218 222 230
39.9040888 53.2328354 1.5875 218 222 230
39.6783436 52.8027138 1.5875 218 222 230
39.5620929 52.3310663 1.5875 218 222 230
39.5620929 51.8453035 1.5875 218 222 230
39.6783436 51.3736561 1.5875 218 222 230
39.9040888 50.9435344 1.5875 218 222 230
40.2262092 50.5799357 1.5875 218 222 230
40.6259841 50.303991 1.5875 218 222 230
41.0801803 50.1317371 1.5875 218 222 230
-33.4375987 50.0731849 1.5875 218 222 230
-32.9553776 50.1317371 1.5875 218 222 230
-32.5011815 50.303991 1.5875 218 222 230
-32.1014065 50.5799357 1.5875 218 222 230
-31.7792862 50.9435344 1.5875 218 222 230
-31.5535409 51.3736561 1.5875 218 222 230
-31.4372903 51.8453035 1.5875 218 222 230
-31.4372903 52.3310663 1.5875 218 222 230
-31.5535409 52.8027138 1.5875 218 222 230
-31.7792862 53.2328354 1.5875 218 222 230
-32.1014065 53.5964341 1.5875 218 222 230
-32.5011815 53.8723788 1.5875 218 222 230
-32.9553776 54.0446327 1.5875 218 222 230
-33.4375987 54.1031849 1.5875 218 222 230
-33.9198197 54.0446327 1.5875 218 222 230
-34.3740159 53.8723788 1.5875 218 222 230
-34.7737908 53.5964341 1.5875 218 222 230
-35.0959112 53.2328354 1.5875 218 222 230
-35.3216564 52.8027138 1.5875 218 222 230
-35.4379071 52.3310663 1.5875 218 222 230
-35.4379071 51.8453035 1.5875 218 222 230
-35.3216564 51.3736561 1.5875 218 222 230
-35.0959112 50.9435344 1.5875 218 222 230
-34.7737908 50.5799357 1.5875 218 222 230
-34.3740159 50.303991 1.5875 218 222 230
-33.9198197 50.1317371 1.5875 218 222 230
83.1222323 -33.0874634 1.5875 218 222 230
77.0070575 -33.0874634 1.5875 218 222 230
83.1222323 -55.8009696 1.5875 218 222 230
77.0070575 -55.8009696 1.5875 218 222 230
83.5590304 69.5601128 1.5875 218 222 230
72.2022773 69.5601128 1.5875 218 222 230
83.5590304 20.6387148 1.5875 218 222 230
72.2022773 20.6387148 1.5875 218 222 230
85 -85 1.5875 218 222 230
85 -85 0 218 222 230
85 85 1.5875 218 222 230
85 85 0 218 222 230
85 85 1.5875 218 222 230
85 85 0 218 222 230
-85 85 1.5875 218 222 230
-85 85 0 218 222 230
-85 85 1.5875 218 222 230
-85 85 0 218 222 230
-85 82.2272604 1.5875 218 222 230
-85 63.444938 1.5875 218 222 230
-85 59.076956 1.5875 218 222 230
-85 27.6274859 1.5875 218 222 230
-85 22.0583089 1.5875 218 222 230
-85 0 1.5875 218 222 230
-85 -2.29319053 1.5875 218 222 230
-85 -19.7651184 1.5875 218 222 230
-85 -23.0411049 1.5875 218 222 230
-85 -43.1338219 1.5875 218 222 230
-85 -85 1.5875 218 222 230
-85 -85 0 218 222 230
-85 -85 1.5875 218 222 230
-85 -85 0 218 222 230
85 -85 1.5875 218 222 230
85 -85 0 218 222 230
85 85 0 218 222 230
-85 85 0 218 222 230
-85 -85 0 218 222 230
85 -85 0 218 222 230
-52.1556483 76.798 0 218 222 230
-51.6693588 76.8570462 0 218 222 230
-51.2113308 77.0307534 0 218 222 230
-50.808183 77.3090262 0 218 222 230
-50.4833451 77.6756924 0 218 222 230
-50.2556953 78.1094429 0 218 222 230
-50.1384638 78.5850695 0 218 222 230
-50.1384638 79.0749305 0 218 222 230
-50.2556953 79.5505571 0 218 222 230
-50.4833451 79.9843076 0 218 222 230
-50.808183 80.3509738 0 218 222 230
-51.2113308 80.6292466 0 218 222 230
-51.6693588 80.8029538 0 218 222 230
-52.1556483 80.862 0 218 222 230
-52.6419377 80.8029538 0 218 222 230
-53.0999658 80.6292466 0 218 222 230
-53.5031135 80.3509738 0 218 222 230
-53.8279515 79.9843076 0 218 222 230
-54.0556013 79.5505571 0 218 222 230
-54.1728327 79.0749305 0 218 222 230
-54.1728327 78.5850695 0 218 222 230
-54.0556013 78.1094429 0 218 222 230
-53.8279515 77.6756924 0 218 222 230
-53.5031135 77.3090262 0 218 222 230
-53.0999658 77.0307534 0 218 222 230
-52.6419377 76.8570462 0 218 222 230
-75.0156483 -80.682 0 218 222 230
-74.5293588 -80.6229538 0 218 222 230
-74.0713308 -80.4492466 0 218 222 230
-73.668183 -80.1709738 0 218 222 230
-73.3433451 -79.8043076 0 218 222 230
-73.1156953 -79.3705571 0 218 222 230
-72.9984638 -78.8949305 0 218 222 230
-72.9984638 -78.4050695 0 218 222 230
-73.1156953 -77.9294429 0 218 222 230
-73.3433451 -77.4956924 0 218 222 230
-73.668183 -77.1290262 0 218 222 230
-74.0713308 -76.8507534 0 218 222 230
-74.5293588 -76.6770462 0 218 222 230
-75.0156483 -76.618 0 218 222 230
-75.5019377 -76.6770462 0 218 222 230
-75.9599658 -76.8507534 0 218 222 230
-76.3631135 -77.1290262 0 218 222 230
-76.6879515 -77.4956924 0 218 222 230
-76.9156013 -77.9294429 0 218 222 230
-77.0328327 -78.4050695 0 218 222 230
-77.0328327 -78.8949305 0 218 222 230
-76.9156013 -79.3705571 0 218 222 230
-76.6879515 -79.8043076 0 218 222 230
-76.3631135 -80.1709738 0 218 222 230
-75.9599658 -80.4492466 0 218 222 230
-75.5019377 -80.6229538 0 218 222 230
79.9243517 -80.682 0 218 222 230
80.4106412 -80.6229538 0 218 222 230
80.8686692 -80.4492466 0 218 222 230
81.271817 -80.1709738 0 218 222 230
81.5966549 -79.8043076 0 218 222 230
81.8243047 -79.3705571 0 218 222 230
81.9415362 -78.8949305 0 218 222 230
81.9415362 -78.4050695 0 218 222 230
81.8243047 -77.9294429 0 218 222 230
81.5966549 -77.4956924 0 218 222 230
81.271817 -77.1290262 0 218 222 230
80.8686692 -76.8507534 0 218 222 230
80.4106412 -76.6770462 0 218 222 230
79.9243517 -76.618 0 218 222 230
79.4380623 -76.6770462 0 218 222 230
78.9800342 -76.8507534 0 218 222 230
78.5768865 -77.1290262 0 218 222 230
78.2520485 -77.4956924 0 218 222 230
78.0243987 -77.9294429 0 218 222 230
77.9071673 -78.4050695 0 218 222 230
77.9071673 -78.8949305 0 218 222 230
78.0243987 -79.3705571 0 218 222 230
78.2520485 -79.8043076 0 218 222 230
78.5768865 -80.1709738 0 218 222 230
78.9800342 -80.4492466 0 218 222 230
79.4380623 -80.6229538 0 218 222 230
79.9243517 76.798 0 218 222 230
80.4106412 76.8570462 0 218 222 230
80.8686692 77.0307534 0 218 222 230
81.271817 77.3090262 0 218 222 230
81.5966549 77.6756924 0 218 222 230
81.8243047 78.1094429 0 218 222 230
81.9415362 78.5850695 0 218 222 230
81.9415362 79.0749305 0 218 222 230
81.8243047 79.5505571 0 218 222 230
81.5966549 79.9843076 0 218 222 230
81.271817 80.3509738 0 218 222 230
80.8686692 80.6292466 0 218 222 230
80.4106412 80.8029538 0 218 222 230
79.9243517 80.862 0 218 222 230
79.4380623 80.8029538 0 218 222 230
78.9800342 80.6292466 0 218 222 230
78.5768865 80.3509738 0 218 222 230
78.2520485 79.9843076 0 218 222 230
78.0243987 79.5505571 0 218 222 230
77.9071673 79.0749305 0 218 222 230
77.9071673 78.5850695 0 218 222 230
78.0243987 78.1094429 0 218 222 230
78.2520485 77.6756924 0 218 222 230
78.5768865 77.3090262 0 218 222 230
78.9800342 77.0307534 0 218 222 230
79.4380623 76.8570462 0 218 222 230
-33.4375987 -24.9268151 0 218 222 230
-32.9553776 -24.8682629 0 218 222 230
-32.5011815 -24.696009 0 218 222 230
-32.1014065 -24.4200643 0 218 222 230
-31.7792862 -24.0564656 0 218 222 230
-31.5535409 -23.6263439 0 218 222 230
-31.4372903 -23.1546965 0 218 222 230
-31.4372903 -22.6689337 0 218 222 230
-31.5535409 -22.1972862 0 218 222 230
-31.7792862 -21.7671646 0 218 222 230
-32.1014065 -21.4035659 0 218 222 230
-32.5011815 -21.1276212 0 218 222 230
-32.9553776 -20.9553673 0 218 222 230
-33.4375987 -20.8968151 0 218 222 230
-33.9198197 -20.9553673 0 218 222 230
-34.3740159 -21.1276212 0 218 222 230
-34.7737908 -21.4035659 0 218 222 230
-35.0959112 -21.7671646 0 218 222 230
-35.3216564 -22.1972862 0 218 222 230
-35.4379071 -22.6689337 0 218 222 230
-35.4379071 -23.1546965 0 218 222 230
-35.3216564 -23.6263439 0 218 222 230
-35.0959112 -24.0564656 0 218 222 230
-34.7737908 -24.4200643 0 218 222 230
-34.3740159 -24.696009 0 218 222 230
-33.9198197 -24.8682629 0 218 222 230
41.5624013 -24.9268151 0 218 222 230
42.0446224 -24.8682629 0 218 222 230
42.4988185 -24.696009 0 218 222 230
42.8985935 -24.4200643 0 218 222 230
43.2207138 -24.0564656 0 218 222 230
43.4464591 -23.6263439 0 218 222 230
43.5627097 -23.1546965 0 218 222 230
43.5627097 -22.6689337 0 218 222 230
43.4464591 -22.1972862 0 218 222 230
43.2207138 -21.7671646 0 218 222 230
42.8985935 -21.4035659 0 218 222 230
42.4988185 -21.1276212 0 218 222 230
42.0446224 -20.9553673 0 218 222 230
41.5624013 -20.8968151 0 218 222 230
41.0801803 -20.9553673 0 218 222 230
40.6259841 -21.1276212 0 218 222 230
40.2262092 -21.4035659 0 218 222 230
39.9040888 -21.7671646 0 218 222 230
39.6783436 -22.1972862 0 218 222 230
39.5620929 -22.6689337 0 218 222 230
39.5620929 -23.1546965 0 218 222 230
39.6783436 -23.6263439 0 218 222 230
39.9040888 -24.0564656 0 218 222 230
40.2262092 -24.4200643 0 218 222 230
40.6259841 -24.696009 0 218 222 230
41.0801803 -24.8682629 0 218 222 230
41.5624013 50.0731849 0 218 222 230
42.0446224 50.1317371 0 218 222 230
42.4988185 50.303991 0 218 222 230
42.8985935 50.5799357 0 218 222 230
43.2207138 50.9435344 0 218 222 230
43.4464591 51.3736561 0 218 222 230
43.5627097 51.8453035 0 218 222 230
43.5627097 52.3310663 0 218 222 230
43.4464591 52.8027138 0 218 222 230
43.2207138 53.2328354 0 218 222 230
42.8985935 53.5964341 0 218 222 230
42.4988185 53.8723788 0 218 222 230
42.0446224 54.0446327 0 218 222 230
41.5624013 54.1031849 0 218 222 230
41.0801803 54.0446327 0 218 222 230
40.6259841 53.8723788 0 218 222 230
40.2262092 53.5964341 0 218 222 230
39.9040888 53.2328354 0 218 222 230
39.6783436 52.8027138 0 218 222 230
39.5620929 52.3310663 0 218 222 230
39.5620929 51.8453035 0 218 222 230
39.6783436 51.3736561 0 218 222 230
39.9040888 50.9435344 0 218 222 230
40.2262092 50.5799357 0 218 222 230
40.6259841 50.303991 0 218 222 230
41.0801803 50.1317371 0 218 222 230
-33.4375987 50.0731849 0 218 222 230
-32.9553776 50.1317371 0 218 222 230
-32.5011815 50.303991 0 218 222 230
-32.1014065 50.5799357 0 218 222 230
-31.7792862 50.9435344 0 218 222 230
-31.5535409 51.3736561 0 218 222 230
-31.4372903 51.8453035 0 218 222 230
-31.4372903 52.3310663 0 218 222 230
-31.5535409 52.8027138 0 218 222 230
-31.7792862 53.2328354 0 218 222 230
-32.1014065 53.5964341 0 218 222 230
-32.5011815 53.8723788 0 218 222 230
-32.9553776 54.0446327 0 218 222 230
-33.4375987 54.1031849 0 218 222 230
-33.9198197 54.0446327 0 218 222 230
-34.3740159 53.8723788 0 218 222 230
-34.7737908 53.5964341 0 218 222 230
-35.0959112 53.2328354 0 218 222 230
-35.3216564 52.8027138 0 218 222 230
-35.4379071 52.3310663 0 218 222 230
-35.4379071 51.8453035 0 218 222 230
-35.3216564 51.3736561 0 218 222 230
-35.0959112 50.9435344 0 218 222 230
-34.7737908 50.5799357 0 218 222 230
-34.3740159 50.303991 0 218 222 230
-33.9198197 50.1317371 0 218 222 230
-85.1756483 59.076956 1.5875 218 222 230
-85.1756483 27.6274859 1.5875 218 222 230
-85 27.6274859 1.5875 218 222 230
-85 59.076956 1.5875 218 222 230
-65.3013303 27.6274859 20.6375 218 222 230
-65.3013303 27.6274859 1.5875 218 222 230
-65.3013303 59.076956 20.6375 218 222 230
-65.3013303 59.076956 1.5875 218 222 230
-65.3013303 59.076956 20.6375 218 222 230
-65.3013303 59.076956 1.5875 218 222 230
-85.1756483 59.076956 20.6375 218 222 230
-85.1756483 59.076956 1.5875 218 222 230
-85 59.076956 1.5875 218 222 230
-85.1756483 59.076956 20.6375 218 222 230
-85.1756483 59.076956 1.5875 218 222 230
-85.1756483 27.6274859 20.6375 218 222 230
-85.1756483 27.6274859 1.5875 218 222 230
-85.1756483 27.6274859 20.6375 218 222 230
-85.1756483 27.6274859 1.5875 218 222 230
-65.3013303 27.6274859 20.6375 218 222 230
-65.3013303 27.6274859 1.5875 218 222 230
-85 27.6274859 1.5875 218 222 230
-65.3013303 27.6274859 20.6375 218 222 230
-65.3013303 59.076956 20.6375 218 222 230
-85.1756483 59.076956 20.6375 218 222 230
-85.1756483 27.6274859 20.6375 218 222 230
-87.0106652 22.0583089 1.5875 218 222 230
-87.0106652 0 1.5875 218 222 230
-85 0 1.5875 218 222 230
-85 22.0583089 1.5875 218 222 230
-67.3547464 0 20.6375 218 222 230
-67.3547464 0 1.5875 218 222 230
-67.3547464 22.0583089 20.6375 218 222 230
-67.3547464 22.0583089 1.5875 218 222 230
-67.3547464 22.0583089 20.6375 218 222 230
-67.3547464 22.0583089 1.5875 218 222 230
-87.0106652 22.0583089 20.6375 218 222 230
-87.0106652 22.0583089 1.5875 218 222 230
-85 22.0583089 1.5875 218 222 230
-87.0106652 22.0583089 20.6375 218 222 230
-87.0106652 22.0583089 1.5875 218 222 230
-87.0106652 0 20.6375 218 222 230
-87.0106652 0 1.5875 218 222 230
-87.0106652 0 20.6375 218 222 230
-87.0106652 0 1.5875 218 222 230
-67.3547464 0 20.6375 218 222 230
-67.3547464 0 1.5875 218 222 230
-85 0 1.5875 218 222 230
-67.3547464 0 20.6375 218 222 230
-67.3547464 22.0583089 20.6375 218 222 230
-87.0106652 22.0583089 20.6375 218 222 230
-87.0106652 0 20.6375 218 222 230
-88.9762571 -2.29319053 1.5875 218 222 230
-88.9762571 -19.7651184 1.5875 218 222 230
-85 -19.7651184 1.5875 218 222 230
-85 -2.29319053 1.5875 218 222 230
-60.5843743 -19.7651184 26.9875 218 222 230
-60.5843743 -19.7651184 1.5875 218 222 230
-60.5843743 -2.29319053 26.9875 218 222 230
-60.5843743 -2.29319053 1.5875 218 222 230
-60.5843743 -2.29319053 26.9875 218 222 230
-60.5843743 -2.29319053 1.5875 218 222 230
-88.9762571 -2.29319053 26.9875 218 222 230
-88.9762571 -2.29319053 1.5875 218 222 230
-85 -2.29319053 1.5875 218 222 230
-88.9762571 -2.29319053 26.9875 218 222 230
-88.9762571 -2.29319053 1.5875 218 222 230
-88.9762571 -19.7651184 26.9875 218 222 230
-88.9762571 -19.7651184 1.5875 218 222 230
-88.9762571 -19.7651184 26.9875 218 222 230
-88.9762571 -19.7651184 1.5875 218 222 230
-60.5843743 -19.7651184 26.9875 218 222 230
-60.5843743 -19.7651184 1.5875 218 222 230
-85 -19.7651184 1.5875 218 222 230
-60.5843743 -19.7651184 26.9875 218 222 230
-60.5843743 -2.29319053 26.9875 218 222 230
-88.9762571 -2.29319053 26.9875 218 222 230
-88.9762571 -19.7651184 26.9875 218 222 230
-86.3554679 -23.0411049 1.5875 218 222 230
-86.3554679 -43.1338219 1.5875 218 222 230
-85 -43.1338219 1.5875 218 222 230
-85 -23.0411049 1.5875 218 222 230
-58.4003833 -43.1338219 26.9875 218 222 230
-58.4003833 -43.1338219 1.5875 218 222 230
-58.4003833 -23.0411049 26.9875 218 222 230
-58.4003833 -23.0411049 1.5875 218 222 230
-58.4003833 -23.0411049 26.9875 218 222 230
-58.4003833 -23.0411049 1.5875 218 222 230
-86.3554679 -23.0411049 26.9875 218 222 230
-86.3554679 -23.0411049 1.5875 218 222 230
-85 -23.0411049 1.5875 218 222 230
-86.3554679 -23.0411049 26.9875 218 222 230
-86.3554679 -23.0411049 1.5875 218 222 230
-86.3554679 -43.1338219 26.9875 218 222 230
-86.3554679 -43.1338219 1.5875 218 222 230
-86.3554679 -43.1338219 26.9875 218 222 230
-86.3554679 -43.1338219 1.5875 218 222 230
-58.4003833 -43.1338219 26.9875 218 222 230
-58.4003833 -43.1338219 1.5875 218 222 230
-85 -43.1338219 1.5875 218 222 230
-58.4003833 -43.1338219 26.9875 218 222 230
-58.4003833 -23.0411049 26.9875 218 222 230
-86.3554679 -23.0411049 26.9875 218 222 230
-86.3554679 -43.1338219 26.9875 218 222 230
83.1222323 -55.8009696 7.9375 218 222 230
83.1222323 -55.8009696 1.5875 218 222 230
83.1222323 -33.0874634 7.9375 218 222 230
83.1222323 -33.0874634 1.5875 218 222 230
83.1222323 -33.0874634 7.9375 218 222 230
83.1222323 -33.0874634 1.5875 218 222 230
77.0070575 -33.0874634 7.9375 218 222 230
77.0070575 -33.0874634 1.5875 218 222 230
77.0070575 -33.0874634 7.9375 218 222 230
77.0070575 -33.0874634 1.5875 218 222 230
77.0070575 -55.8009696 7.9375 218 222 230
77.0070575 -55.8009696 1.5875 218 222 230
77.0070575 -55.8009696 7.9375 218 222 230
77.0070575 -55.8009696 1.5875 218 222 230
83.1222323 -55.8009696 7.9375 218 222 230
83.1222323 -55.8009696 1.5875 218 222 230
83.1222323 -55.8009696 7.9375 218 222 230
83.1222323 -33.0874634 7.9375 218 222 230
77.0070575 -33.0874634 7.9375 218 222 230
77.0070575 -55.8009696 7.9375 218 222 230
83.5590304 20.6387148 7.9375 218 222 230
83.5590304 20.6387148 1.5875 218 222 230
83.5590304 69.5601128 7.9375 218 222 230
83.5590304 69.5601128 1.5875 218 222 230
83.5590304 69.5601128 7.9375 218 222 230
83.5590304 69.5601128 1.5875 218 222 230
72.2022773 69.5601128 7.9375 218 222 230
72.2022773 69.5601128 1.5875 218 222 230
72.2022773 69.5601128 7.9375 218 222 230
72.2022773 69.5601128 1.5875 218 222 230
72.2022773 20.6387148 7.9375 218 222 230
72.2022773 20.6387148 1.5875 218 222 230
72.2022773 20.6387148 7.9375 218 222 230
72.2022773 20.6387148 1.5875 218 222 230
83.5590304 20.6387148 7.9375 218 222 230
83.5590304 20.6387148 1.5875 218 222 230
83.5590304 20.6387148 7.9375 218 222 230
83.5590304 69.5601128 7.9375 218 222 230
72.2022773 69.5601128 7.9375 218 222 230
72.2022773 20.6387148 7.9375 218 222 230
-85.8533822 82.2272604 1.5875 218 222 230
-85.8533822 63.444938 1.5875 218 222 230
-85 63.444938 1.5875 218 222 230
-85 82.2272604 1.5875 218 222 230
-62.7030778 63.444938 20.6375 218 222 230
-62.7030778 63.444938 1.5875 218 222 230
-62.7030778 82.2272604 20.6375 218 222 230
-62.7030778 82.2272604 1.5875 218 222 230
-62.7030778 82.2272604 20.6375 218 222 230
-62.7030778 82.2272604 1.5875 218 222 230
-85.8533822 82.2272604 20.6375 218 222 230
-85.8533822 82.2272604 1.5875 218 222 230
-85 82.2272604 1.5875 218 222 230
-85.8533822 82.2272604 20.6375 218 222 230
-85.8533822 82.2272604 1.5875 218 222 230
-85.8533822 63.444938 20.6375 218 222 230
-85.8533822 63.444938 1.5875 218 222 230
-85.8533822 63.444938 20.6375 218 222 230
-85.8533822 63.444938 1.5875 218 222 230
-62.7030778 63.444938 20.6375 218 222 230
-62.7030778 63.444938 1.5875 218 222 230
-85 63.444938 1.5875 218 222 230
-62.7030778 63.444938 20.6375 218 222 230
-62.7030778 82.2272604 20.6375 218 222 230
-85.8533822 82.2272604 20.6375 218 222 230
-85.8533822 63.444938 20.6375 218 222 230
-33.4375987 50.0731849 0 218 222 230
-32.9553776 50.1317371 0 218 222 230
-32.5011815 50.303991 0 218 222 230
-32.1014065 50.5799357 0 218 222 230
-31.7792862 50.9435344 0 218 222 230
-31.5535409 51.3736561 0 218 222 230
-31.4372903 51.8453035 0 218 222 230
-31.4372903 52.3310663 0 218 222 230
-31.5535409 52.8027138 0 218 222 230
-31.7792862 53.2328354 0 218 222 230
-32.1014065 53.5964341 0 218 222 230
-32.5011815 53.8723788 0 218 222 230
-32.9553776 54.0446327 0 218 222 230
-33.4375987 54.1031849 0 218 222 230
-33.9198197 54.0446327 0 218 222 230
-34.3740159 53.8723788 0 218 222 230
-34.7737908 53.5964341 0 218 222 230
-35.0959112 53.2328354 0 218 222 230
-35.3216564 52.8027138 0 218 222 230
-35.4379071 52.3310663 0 218 222 230
-35.4379071 51.8453035 0 218 222 230
-35.3216564 51.3736561 0 218 222 230
-35.0959112 50.9435344 0 218 222 230
-34.7737908 50.5799357 0 218 222 230
-34.3740159 50.303991 0 218 222 230
-33.9198197 50.1317371 0 218 222 230
-33.4375987 50.0731849 0 218 222 230
-33.4375987 50.0731849 1.5875 218 222 230
-33.4375987 50.0731849 1.5875 218 222 230
-32.9553776 50.1317371 1.5875 218 222 230
-32.5011815 50.303991 1.5875 218 222 230
-32.1014065 50.5799357 1.5875 218 222 230
-31.7792862 50.9435344 1.5875 218 222 230
-31.5535409 51.3736561 1.5875 218 222 230
-31.4372903 51.8453035 1.5875 218 222 230
-31.4372903 52.3310663 1.5875 218 222 230
-31.5535409 52.8027138 1.5875 218 222 230
-31.7792862 53.2328354 1.5875 218 222 230
-32.1014065 53.5964341 1.5875 218 222 230
-32.5011815 53.8723788 1.5875 218 222 230
-32.9553776 54.0446327 1.5875 218 222 230
-33.4375987 54.1031849 1.5875 218 222 230
-33.9198197 54.0446327 1.5875 218 222 230
-34.3740159 53.8723788 1.5875 218 222 230
-34.7737908 53.5964341 1.5875 218 222 230
-35.0959112 53.2328354 1.5875 218 222 230
-35.3216564 52.8027138 1.5875 218 222 230
-35.4379071 52.3310663 1.5875 218 222 230
-35.4379071 51.8453035 1.5875 218 222 230
-35.3216564 51.3736561 1.5875 218 222 230
-35.0959112 50.9435344 1.5875 218 222 230
-34.7737908 50.5799357 1.5875 218 222 230
-34.3740159 50.303991 1.5875 218 222 230
-33.9198197 50.1317371 1.5875 218 222 230
41.5624013 50.0731849 0 218 222 230
42.0446224 50.1317371 0 218 222 230
42.4988185 50.303991 0 218 222 230
42.8985935 50.5799357 0 218 222 230
43.2207138 50.9435344 0 218 222 230
43.4464591 51.3736561 0 218 222 230
43.5627097 51.8453035 0 218 222 230
43.5627097 52.3310663 0 218 222 230
43.4464591 52.8027138 0 218 222 230
43.2207138 53.2328354 0 218 222 230
42.8985935 53.5964341 0 218 222 230
42.4988185 53.8723788 0 218 222 230
42.0446224 54.0446327 0 218 222 230
41.5624013 54.1031849 0 218 222 230
41.0801803 54.0446327 0 218 222 230
40.6259841 53.8723788 0 218 222 230
40.2262092 53.5964341 0 218 222 230
39.9040888 53.2328354 0 218 222 230
39.6783436 52.8027138 0 218 222 230
39.5620929 52.3310663 0 218 222 230
39.5620929 51.8453035 0 218 222 230
39.6783436 51.3736561 0 218 222 230
39.9040888 50.9435344 0 218 222 230
40.2262092 50.5799357 0 218 222 230
40.6259841 50.303991 0 218 222 230
41.0801803 50.1317371 0 218 222 230
41.5624013 50.0731849 0 218 222 230
41.5624013 50.0731849 1.5875 218 222 230
41.5624013 50.0731849 1.5875 218 222 230
42.0446224 50.1317371 1.5875 218 222 230
42.4988185 50.303991 1.5875 218 222 230
42.8985935 50.5799357 1.5875 218 222 230
43.2207138 50.9435344 1.5875 218 222 230
43.4464591 51.3736561 1.5875 218 222 230
43.5627097 51.8453035 1.5875 218 222 230
43.5627097 52.3310663 1.5875 218 222 230
43.4464591 52.8027138 1.5875 218 222 230
43.2207138 53.2328354 1.5875 218 222 230
42.8985935 53.5964341 1.5875 218 222 230
42.4988185 53.8723788 1.5875 218 222 230
42.0446224 54.0446327 1.5875 218 222 230
41.5624013 54.1031849 1.5875 218 222 230
41.0801803 54.0446327 1.5875 218 222 230
40.6259841 53.8723788 1.5875 218 222 230
40.2262092 53.5964341 1.5875 218 222 230
39.9040888 53.2328354 1.5875 218 222 230
39.6783436 52.8027138 1.5875 218 222 230
39.5620929 52.3310663 1.5875 218 222 230
39.5620929 51.8453035 1.5875 218 222 230
39.6783436 51.3736561 1.5875 218 222 230
39.9040888 50.9435344 1.5875 218 222 230
40.2262092 50.5799357 1.5875 218 222 230
40.6259841 50.303991 1.5875 218 222 230
41.0801803 50.1317371 1.5875 218 222 230
41.5624013 -24.9268151 0 218 222 230
42.0446224 -24.8682629 0 218 222 230
42.4988185 -24.696009 0 218 222 230
42.8985935 -24.4200643 0 218 222 230
43.2207138 -24.0564656 0 218 222 230
43.4464591 -23.6263439 0 218 222 230
43.5627097 -23.1546965 0 218 222 230
43.5627097 -22.6689337 0 218 222 230
43.4464591 -22.1972862 0 218 222 230
43.2207138 -21.7671646 0 218 222 230
42.8985935 -21.4035659 0 218 222 230
42.4988185 -21.1276212 0 218 222 230
42.0446224 -20.9553673 0 218 222 230
41.5624013 -20.8968151 0 218 222 230
41.0801803 -20.9553673 0 218 222 230
40.6259841 -21.1276212 0 218 222 230
40.2262092 -21.4035659 0 218 222 230
39.9040888 -21.7671646 0 218 222 230
39.6783436 -22.1972862 0 218 222 230
39.5620929 -22.6689337 0 218 222 230
39.5620929 -23.1546965 0 218 222 230
39.6783436 -23.6263439 0 218 222 230
39.9040888 -24.0564656 0 218 222 230
40.2262092 -24.4200643 0 218 222 230
40.6259841 -24.696009 0 218 222 230
41.0801803 -24.8682629 0 218 222 230
41.5624013 -24.9268151 0 218 222 230
41.5624013 -24.9268151 1.5875 218 222 230
41.5624013 -24.9268151 1.5875 218 222 230
42.0446224 -24.8682629 1.5875 218 222 230
42.4988185 -24.696009 1.5875 218 222 230
42.8985935 -24.4200643 1.5875 218 222 230
43.2207138 -24.0564656 1.5875 218 222 230
43.4464591 -23.6263439 1.5875 218 222 230
43.5627097 -23.1546965 1.5875 218 222 230
43.5627097 -22.6689337 1.5875 218 222 230
43.4464591 -22.1972862 1.5875 218 222 230
43.2207138 -21.7671646 1.5875 218 222 230
42.8985935 -21.4035659 1.5875 218 222 230
42.4988185 -21.1276212 1.5875 218 222 230
42.0446224 -20.9553673 1.5875 218 222 230
41.5624013 -20.8968151 1.5875 218 222 230
41.0801803 -20.9553673 1.5875 218 222 230
40.6259841 -21.1276212 1.5875 218 222 230
40.2262092 -21.4035659 1.5875 218 222 230
39.9040888 -21.7671646 1.5875 218 222 230
39.6783436 -22.1972862 1.5875 218 222 230
39.5620929 -22.6689337 1.5875 218 222 230
39.5620929 -23.1546965 1.5875 218 222 230
39.6783436 -23.6263439 1.5875 218 222 230
39.9040888 -24.0564656 1.5875 218 222 230
40.2262092 -24.4200643 1.5875 218 222 230
40.6259841 -24.696009 1.5875 218 222 230
41.0801803 -24.8682629 1.5875 218 222 230
-33.4375987 -24.9268151 0 218 222 230
-32.9553776 -24.8682629 0 218 222 230
-32.5011815 -24.696009 0 218 222 230
-32.1014065 -24.4200643 0 218 222 230
-31.7792862 -24.0564656 0 218 222 230
-31.5535409 -23.6263439 0 218 222 230
-31.4372903 -23.1546965 0 218 222 230
-31.4372903 -22.6689337 0 218 222 230
-31.5535409 -22.1972862 0 218 222 230
-31.7792862 -21.7671646 0 218 222 230
-32.1014065 -21.4035659 0 218 222 230
-32.5011815 -21.1276212 0 218 222 230
-32.9553776 -20.9553673 0 218 222 230
-33.4375987 -20.8968151 0 218 222 230
-33.9198197 -20.9553673 0 218 222 230
-34.3740159 -21.1276212 0 218 222 230
-34.7737908 -21.4035659 0 218 222 230
-35.0959112 -21.7671646 0 218 222 230
-35.3216564 -22.1972862 0 218 222 230
-35.4379071 -22.6689337 0 218 222 230
-35.4379071 -23.1546965 0 218 222 230
-35.3216564 -23.6263439 0 218 222 230
-35.0959112 -24.0564656 0 218 222 230
-34.7737908 -24.4200643 0 218 222 230
-34.3740159 -24.696009 0 218 222 230
-33.9198197 -24.8682629 0 218 222 230
-33.4375987 -24.9268151 0 218 222 230
-33.4375987 -24.9268151 1.5875 218 222 230
-33.4375987 -24.9268151 1.5875 218 222 230
-32.9553776 -24.8682629 1.5875 218 222 230
-32.5011815 -24.696009 1.5875 218 222 230
-32.1014065 -24.4200643 1.5875 218 222 230
-31.7792862 -24.0564656 1.5875 218 222 230
-31.5535409 -23.6263439 1.5875 218 222 230
-31.4372903 -23.1546965 1.5875 218 222 230
-31.4372903 -22.6689337 1.5875 218 222 230
-31.5535409 -22.1972862 1.5875 218 222 230
-31.7792862 -21.7671646 1.5875 218 222 230
-32.1014065 -21.4035659 1.5875 218 222 230
-32.5011815 -21.1276212 1.5875 218 222 230
-32.9553776 -20.9553673 1.5875 218 222 230
-33.4375987 -20.8968151 1.5875 218 222 230
-33.9198197 -20.9553673 1.5875 218 222 230
-34.3740159 -21.1276212 1.5875 218 222 230
-34.7737908 -21.4035659 1.5875 218 222 230
-35.0959112 -21.7671646 1.5875 218 222 230
-35.3216564 -22.1972862 1.5875 218 222 230
-35.4379071 -22.6689337 1.5875 218 222 230
-35.4379071 -23.1546965 1.5875 218 222 230
-35.3216564 -23.6263439 1.5875 218 222 230
-35.0959112 -24.0564656 1.5875 218 222 230
-34.7737908 -24.4200643 1.5875 218 222 230
-34.3740159 -24.696009 1.5875 218 222 230
-33.9198197 -24.8682629 1.5875 218 222 230
79.9243517 76.798 0 218 222 230
80.4106412 76.8570462 0 218 222 230
80.8686692 77.0307534 0 218 222 230
81.271817 77.3090262 0 218 222 230
81.5966549 77.6756924 0 218 222 230
81.8243047 78.1094429 0 218 222 230
81.9415362 78.5850695 0 218 222 230
81.9415362 79.0749305 0 218 222 230
81.8243047 79.5505571 0 218 222 230
81.5966549 79.9843076 0 218 222 230
81.271817 80.3509738 0 218 222 230
80.8686692 80.6292466 0 218 222 230
80.4106412 80.8029538 0 218 222 230
79.9243517 80.862 0 218 222 230
79.4380623 80.8029538 0 218 222 230
78.9800342 80.6292466 0 218 222 230
78.5768865 80.3509738 0 218 222 230
78.2520485 79.9843076 0 218 222 230
78.0243987 79.5505571 0 218 222 230
77.9071673 79.0749305 0 218 222 230
77.9071673 78.5850695 0 218 222 230
78.0243987 78.1094429 0 218 222 230
78.2520485 77.6756924 0 218 222 230
78.5768865 77.3090262 0 218 222 230
78.9800342 77.0307534 0 218 222 230
79.4380623 76.8570462 0 218 222 230
79.9243517 76.798 0 218 222 230
79.9243517 76.798 1.5875 218 222 230
79.9243517 76.798 1.5875 218 222 230
80.4106412 76.8570462 1.5875 218 222 230
80.8686692 77.0307534 1.5875 218 222 230
81.271817 77.3090262 1.5875 218 222 230
81.5966549 77.6756924 1.5875 218 222 230
81.8243047 78.1094429 1.5875 218 222 230
81.9415362 78.5850695 1.5875 218 222 230
81.9415362 79.0749305 1.5875 218 222 230
81.8243047 79.5505571 1.5875 218 222 230
81.5966549 79.9843076 1.5875 218 222 230
81.271817 80.3509738 1.5875 218 222 230
80.8686692 80.6292466 1.5875 218 222 230
80.4106412 80.8029538 1.5875 218 222 230
79.9243517 80.862 1.5875 218 222 230
79.4380623 80.8029538 1.5875 218 222 230
78.9800342 80.6292466 1.5875 218 222 230
78.5768865 80.3509738 1.5875 218 222 230
78.2520485 79.9843076 1.5875 218 222 230
78.0243987 79.5505571 1.5875 218 222 230
77.9071673 79.0749305 1.5875 218 222 230
77.9071673 78.5850695 1.5875 218 222 230
78.0243987 78.1094429 1.5875 218 222 230
78.2520485 77.6756924 1.5875 218 222 230
78.5768865 77.3090262 1.5875 218 222 230
78.9800342 77.0307534 1.5875 218 222 230
79.4380623 76.8570462 1.5875 218 222 230
79.9243517 -80.682 0 218 222 230
80.4106412 -80.6229538 0 218 222 230
80.8686692 -80.4492466 0 218 222 230
81.271817 -80.1709738 0 218 222 230
81.5966549 -79.8043076 0 218 222 230
81.8243047 -79.3705571 0 218 222 230
81.9415362 -78.8949305 0 218 222 230
81.9415362 -78.4050695 0 218 222 230
81.8243047 -77.9294429 0 218 222 230
81.5966549 -77.4956924 0 218 222 230
81.271817 -77.1290262 0 218 222 230
80.8686692 -76.8507534 0 218 222 230
80.4106412 -76.6770462 0 218 222 230
79.9243517 -76.618 0 218 222 230
79.4380623 -76.6770462 0 218 222 230
78.9800342 -76.8507534 0 218 222 230
78.5768865 -77.1290262 0 218 222 230
78.2520485 -77.4956924 0 218 222 230
78.0243987 -77.9294429 0 218 222 230
77.9071673 -78.4050695 0 218 222 230
77.9071673 -78.8949305 0 218 222 230
78.0243987 -79.3705571 0 218 222 230
78.2520485 -79.8043076 0 218 222 230
78.5768865 -80.1709738 0 218 222 230
78.9800342 -80.4492466 0 218 222 230
79.4380623 -80.6229538 0 218 222 230
79.9243517 -80.682 0 218 222 230
79.9243517 -80.682 1.5875 218 222 230
79.9243517 -80.682 1.5875 218 222 230
80.4106412 -80.6229538 1.5875 218 222 230
80.8686692 -80.4492466 1.5875 218 222 230
81.271817 -80.1709738 1.5875 218 222 230
81.5966549 -79.8043076 1.5875 218 222 230
81.8243047 -79.3705571 1.5875 218 222 230
81.9415362 -78.8949305 1.5875 218 222 230
81.9415362 -78.4050695 1.5875 218 222 230
81.8243047 -77.9294429 1.5875 218 222 230
81.5966549 -77.4956924 1.5875 218 222 230
81.271817 -77.1290262 1.5875 218 222 230
80.8686692 -76.8507534 1.5875 218 222 230
80.4106412 -76.6770462 1.5875 218 222 230
79.9243517 -76.618 1.5875 218 222 230
79.4380623 -76.6770462 1.5875 218 222 230
78.9800342 -76.8507534 1.5875 218 222 230
78.5768865 -77.1290262 1.5875 218 222 230
78.2520485 -77.4956924 1.5875 218 222 230
78.0243987 -77.9294429 1.5875 218 222 230
77.9071673 -78.4050695 1.5875 218 222 230
77.9071673 -78.8949305 1.5875 218 222 230
78.0243987 -79.3705571 1.5875 218 222 230
78.2520485 -79.8043076 1.5875 218 222 230
78.5768865 -80.1709738 1.5875 218 222 230
78.9800342 -80.4492466 1.5875 218 222 230
79.4380623 -80.6229538 1.5875 218 222 230
-75.0156483 -80.682 0 218 222 230
-74.5293588 -80.6229538 0 218 222 230
-74.0713308 -80.4492466 0 218 222 230
-73.668183 -80.1709738 0 218 222 230
-73.3433451 -79.8043076 0 218 222 230
-73.1156953 -79.3705571 0 218 222 230
-72.9984638 -78.8949305 0 218 222 230
-72.9984638 -78.4050695 0 218 222 230
-73.1156953 -77.9294429 0 218 222 230
-73.3433451 -77.4956924 0 218 222 230
-73.668183 -77.1290262 0 218 222 230
-74.0713308 -76.8507534 0 218 222 230
-74.5293588 -76.6770462 0 218 222 230
-75.0156483 -76.618 0 218 222 230
-75.5019377 -76.6770462 0 218 222 230
-75.9599658 -76.8507534 0 218 222 230
-76.3631135 -77.1290262 0 218 222 230
-76.6879515 -77.4956924 0 218 222 230
-76.9156013 -77.9294429 0 218 222 230
-77.0328327 -78.4050695 0 218 222 230
-77.0328327 -78.8949305 0 218 222 230
-76.9156013 -79.3705571 0 218 222 230
-76.6879515 -79.8043076 0 218 222 230
-76.3631135 -80.1709738 0 218 222 230
-75.9599658 -80.4492466 0 218 222 230
-75.5019377 -80.6229538 0 218 222 230
-75.0156483 -80.682 0 218 222 230
-75.0156483 -80.682 1.5875 218 222 230
-75.0156483 -80.682 1.5875 218 222 230
-74.5293588 -80.6229538 1.5875 218 222 230
-74.0713308 -80.4492466 1.5875 218 222 230
-73.668183 -80.1709738 1.5875 218 222 230
-73.3433451 -79.8043076 1.5875 218 222 230
-73.1156953 -79.3705571 1.5875 218 222 230
-72.9984638 -78.8949305 1.5875 218 222 230
-72.9984638 -78.4050695 1.5875 218 222 230
-73.1156953 -77.9294429 1.5875 218 222 230
-73.3433451 -77.4956924 1.5875 218 222 230
-73.668183 -77.1290262 1.5875 218 222 230
-74.0713308 -76.8507534 1.5875 218 222 230
-74.5293588 -76.6770462 1.5875 218 222 230
-75.0156483 -76.618 1.5875 218 222 230
-75.5019377 -76.6770462 1.5875 218 222 230
-75.9599658 -76.8507534 1.5875 218 222 230
-76.3631135 -77.1290262 1.5875 218 222 230
-76.6879515 -77.4956924 1.5875 218 222 230
-76.9156013 -77.9294429 1.5875 218 222 230
-77.0328327 -78.4050695 1.5875 218 222 230
-77.0328327 -78.8949305 1.5875 218 222 230
-76.9156013 -79.3705571 1.5875 218 222 230
-76.6879515 -79.8043076 1.5875 218 222 230
-76.3631135 -80.1709738 1.5875 218 222 230
-75.9599658 -80.4492466 1.5875 218 222 230
-75.5019377 -80.6229538 1.5875 218 222 230
-52.1556483 76.798 0 218 222 230
-51.6693588 76.8570462 0 218 222 230
-51.2113308 77.0307534 0 218 222 230
-50.808183 77.3090262 0 218 222 230
-50.4833451 77.6756924 0 218 222 230
-50.2556953 78.1094429 0 218 222 230
-50.1384638 78.5850695 0 218 222 230
-50.1384638 79.0749305 0 218 222 230
-50.2556953 79.5505571 0 218 222 230
-50.4833451 79.9843076 0 218 222 230
-50.808183 80.3509738 0 218 222 230
-51.2113308 80.6292466 0 218 222 230
-51.6693588 80.8029538 0 218 222 230
-52.1556483 80.862 0 218 222 230
-52.6419377 80.8029538 0 218 222 230
-53.0999658 80.6292466 0 218 222 230
-53.5031135 80.3509738 0 218 222 230
-53.8279515 79.9843076 0 218 222 230
-54.0556013 79.5505571 0 218 222 230
-54.1728327 79.0749305 0 218 222 230
-54.1728327 78.5850695 0 218 222 230
-54.0556013 78.1094429 0 218 222 230
-53.8279515 77.6756924 0 218 222 230
-53.5031135 77.3090262 0 218 222 230
-53.0999658 77.0307534 0 218 222 230
-52.6419377 76.8570462 0 218 222 230
-52.1556483 76.798 0 218 222 230
-52.1556483 76.798 1.5875 218 222 230
-52.1556483 76.798 1.5875 218 222 230
-51.6693588 76.8570462 1.5875 218 222 230
-51.2113308 77.0307534 1.5875 218 222 230
-50.808183 77.3090262 1.5875 218 222 230
-50.4833451 77.6756924 1.5875 218 222 230
-50.2556953 78.1094429 1.5875 218 222 230
-50.1384638 78.5850695 1.5875 218 222 230
-50.1384638 79.0749305 1.5875 218 222 230
-50.2556953 79.5505571 1.5875 218 222 230
-50.4833451 79.9843076 1.5875 218 222 230
-50.808183 80.3509738 1.5875 218 222 230
-51.2113308 80.6292466 1.5875 218 222 230
-51.6693588 80.8029538 1.5875 218 222 230
-52.1556483 80.862 1.5875 218 222 230
-52.6419377 80.8029538 1.5875 218 222 230
-53.0999658 80.6292466 1.5875 218 222 230
-53.5031135 80.3509738 1.5875 218 222 230
-53.8279515 79.9843076 1.5875 218 222 230
-54.0556013 79.5505571 1.5875 218 222 230
-54.1728327 79.0749305 1.5875 218 222 230
-54.1728327 78.5850695 1.5875 218 222 230
-54.0556013 78.1094429 1.5875 218 222 230
-53.8279515 77.6756924 1.5875 218 222 230
-53.5031135 77.3090262 1.5875 218 222 230
-53.0999658 77.0307534 1.5875 218 222 230
-52.6419377 76.8570462 1.5875 218 222 230
3 2 0 1
3 41 40 2
3 39 2 40
3 42 41 2
3 38 2 39
3 43 42 2
3 37 2 38
3 44 43 2
3 45 44 2
3 46 45 2
3 3 25 24
3 3 47 46
3 3 48 47
3 3 49 48
3 3 24 49
3 3 46 2
3 6 3 4
3 6 4 5
3 10 7 8
3 10 8 9
3 222 27 26
3 223 222 26
3 223 26 25
3 223 25 3
3 221 28 27
3 221 27 222
3 224 223 3
3 220 28 221
3 220 29 28
3 225 224 3
3 225 3 6
3 219 30 29
3 219 29 220
3 226 225 6
3 218 31 30
3 218 30 219
3 227 226 6
3 227 6 7
3 217 32 31
3 217 31 218
3 228 227 7
3 216 32 217
3 229 228 7
3 230 229 7
3 231 230 7
3 206 231 7
3 11 12 13
3 14 10 11
3 14 7 10
3 14 206 7
3 15 16 17
3 18 15 17
3 196 32 216
3 197 216 215
3 197 196 216
3 145 14 15
3 145 15 18
3 145 144 14
3 195 33 32
3 195 32 196
3 143 14 144
3 198 215 214
3 198 197 215
3 146 145 18
3 194 33 195
3 142 14 143
3 199 213 212
3 199 214 213
3 199 198 214
3 147 146 18
3 141 14 142
3 141 206 14
3 200 199 212
3 148 147 18
3 140 207 206
3 140 206 141
3 201 212 211
3 201 200 212
3 149 148 18
3 139 208 207
3 139 207 140
3 202 211 210
3 202 201 211
3 150 18 19
3 150 149 18
3 138 209 208
3 138 208 139
3 203 210 209
3 203 202 210
3 151 150 19
3 152 151 19
3 153 152 19
3 128 153 19
3 129 128 19
3 130 129 19
3 119 118 34
3 119 34 33
3 119 33 194
3 117 34 118
3 117 35 34
3 120 119 194
3 120 194 193
3 23 115 114
3 23 116 115
3 23 117 116
3 23 36 35
3 23 35 117
3 113 23 114
3 67 20 21
3 67 66 20
3 65 20 66
3 112 23 113
3 68 67 21
3 64 20 65
3 69 68 21
3 63 20 64
3 111 23 112
3 70 69 21
3 62 19 20
3 62 20 63
3 110 23 111
3 71 70 21
3 237 121 120
3 237 122 121
3 237 123 122
3 237 124 123
3 237 125 124
3 237 126 125
3 237 127 126
3 237 186 185
3 237 187 186
3 237 188 187
3 237 189 188
3 237 190 189
3 237 191 190
3 237 192 191
3 237 193 192
3 237 120 193
3 61 19 62
3 109 23 110
3 72 71 21
3 108 23 109
3 60 19 61
3 73 72 21
3 59 19 60
3 74 73 21
3 58 19 59
3 75 74 21
3 57 19 58
3 50 75 21
3 56 130 19
3 56 19 57
3 51 50 21
3 52 51 21
3 236 103 102
3 236 104 103
3 236 105 104
3 236 106 105
3 236 107 106
3 236 108 107
3 236 102 127
3 236 127 237
3 236 23 108
3 239 180 205
3 239 237 185
3 239 181 180
3 239 182 181
3 239 183 182
3 239 184 183
3 239 185 184
3 170 203 209
3 170 209 138
3 171 138 137
3 171 170 138
3 169 204 203
3 169 205 204
3 169 203 170
3 172 137 136
3 172 171 137
3 168 239 205
3 168 205 169
3 173 172 136
3 173 136 135
3 167 239 168
3 174 134 133
3 174 135 134
3 174 173 135
3 166 239 167
3 175 174 133
3 165 239 166
3 176 175 133
3 176 133 132
3 164 239 165
3 177 176 132
3 177 132 131
3 163 239 164
3 178 131 130
3 178 177 131
3 233 239 163
3 233 238 239
3 233 157 156
3 233 158 157
3 233 159 158
3 233 160 159
3 233 161 160
3 233 162 161
3 233 163 162
3 232 238 233
3 235 233 156
3 235 155 154
3 235 156 155
3 235 154 179
3 93 92 235
3 91 235 92
3 94 93 235
3 90 235 91
3 95 235 179
3 95 94 235
3 95 179 178
3 89 234 235
3 89 235 90
3 96 178 130
3 96 95 178
3 96 130 56
3 88 234 89
3 97 56 55
3 97 96 56
3 87 234 88
3 98 55 54
3 98 97 55
3 86 234 87
3 99 54 53
3 99 98 54
3 85 234 86
3 84 234 85
3 22 101 100
3 22 76 101
3 22 52 21
3 22 53 52
3 22 77 76
3 22 78 77
3 22 79 78
3 22 80 79
3 22 99 53
3 22 81 80
3 22 82 81
3 22 83 82
3 22 84 83
3 22 100 99
3 22 234 84
3 13 14 11
3 22 23 236
3 22 236 238
3 22 238 232
3 22 232 234
3 23 0 2
3 23 2 37
3 23 37 36
3 240 243 242
3 240 241 243
3 244 247 246
3 244 245 247
3 259 261 260
3 258 261 259
3 257 261 258
3 256 261 257
3 255 261 256
3 249 251 250
3 249 252 251
3 249 253 252
3 249 254 253
3 249 255 254
3 249 261 255
3 248 249 250
3 262 265 264
3 262 263 265
3 287 267 286
3 285 286 267
3 288 267 287
3 284 285 267
3 289 267 288
3 283 284 267
3 290 267 289
3 291 267 290
3 292 267 291
3 293 267 292
3 468 272 273
3 469 271 272
3 469 272 468
3 467 273 274
3 467 468 273
3 470 270 271
3 470 271 469
3 466 274 275
3 466 467 274
3 471 295 270
3 471 270 470
3 465 275 276
3 465 466 275
3 472 295 471
3 472 294 295
3 464 276 277
3 464 465 276
3 473 293 294
3 473 267 293
3 473 294 472
3 463 277 278
3 463 464 277
3 474 267 473
3 462 463 278
3 442 462 278
3 443 462 442
3 443 461 462
3 391 475 390
3 391 474 475
3 391 267 474
3 441 442 278
3 441 278 279
3 389 390 475
3 389 475 476
3 444 461 443
3 444 460 461
3 392 267 391
3 440 441 279
3 388 476 477
3 388 389 476
3 445 460 444
3 445 458 459
3 445 459 460
3 387 477 452
3 387 388 477
3 446 458 445
3 386 387 452
3 386 452 453
3 447 458 446
3 447 457 458
3 385 386 453
3 385 453 454
3 448 457 447
3 448 456 457
3 384 385 454
3 384 454 455
3 449 456 448
3 449 455 456
3 365 280 364
3 365 440 279
3 365 279 280
3 363 364 280
3 363 280 281
3 366 440 365
3 366 439 440
3 367 439 366
3 367 438 439
3 368 438 367
3 368 437 438
3 369 437 368
3 369 436 437
3 266 363 281
3 266 281 282
3 266 360 361
3 266 361 362
3 266 362 363
3 359 360 266
3 370 436 369
3 370 435 436
3 312 268 267
3 313 268 312
3 311 392 393
3 311 267 392
3 311 312 267
3 358 359 266
3 314 268 313
3 310 393 394
3 310 311 393
3 371 435 370
3 371 434 435
3 315 268 314
3 309 394 395
3 309 310 394
3 357 358 266
3 316 268 315
3 372 433 434
3 372 434 371
3 308 395 396
3 308 309 395
3 356 357 266
3 317 268 316
3 373 433 372
3 373 432 433
3 307 396 397
3 307 308 396
3 355 356 266
3 318 268 317
3 348 432 373
3 348 431 432
3 354 355 266
3 306 397 398
3 306 307 397
3 349 430 431
3 349 431 348
3 353 354 266
3 319 268 318
3 305 398 399
3 305 306 398
3 320 268 319
3 304 399 374
3 304 305 399
3 321 268 320
3 303 374 375
3 303 304 374
3 296 268 321
3 302 375 376
3 302 303 375
3 297 268 296
3 298 268 297
3 416 384 455
3 416 455 449
3 417 383 384
3 417 384 416
3 415 416 449
3 415 449 450
3 415 450 451
3 418 382 383
3 418 383 417
3 414 415 451
3 414 451 426
3 419 381 382
3 419 382 418
3 413 414 426
3 420 379 380
3 420 380 381
3 420 381 419
3 412 413 426
3 412 426 427
3 421 379 420
3 411 427 428
3 411 428 429
3 411 412 427
3 422 378 379
3 422 379 421
3 410 411 429
3 423 377 378
3 423 378 422
3 409 410 429
3 409 429 430
3 409 349 350
3 409 430 349
3 424 376 377
3 424 377 423
3 408 409 350
3 408 350 351
3 338 401 402
3 339 400 401
3 339 401 338
3 337 402 403
3 337 338 402
3 340 425 400
3 340 400 339
3 336 403 404
3 336 337 403
3 341 424 425
3 341 425 340
3 335 404 405
3 335 336 404
3 342 302 376
3 342 376 424
3 342 424 341
3 334 335 405
3 334 405 406
3 343 301 302
3 343 302 342
3 333 406 407
3 333 334 406
3 344 301 343
3 344 300 301
3 332 333 407
3 332 407 408
3 332 408 351
3 345 300 344
3 345 299 300
3 269 299 345
3 269 268 298
3 269 298 299
3 269 322 323
3 269 323 324
3 269 324 325
3 269 325 326
3 269 326 327
3 269 327 328
3 269 328 329
3 269 329 330
3 269 345 346
3 269 346 347
3 269 347 322
3 266 283 267
3 266 282 283
3 269 353 266
3 269 352 353
3 269 351 352
3 269 330 351
3 330 331 351
3 331 332 351
3 480 479 478
3 480 478 481
3 482 485 484
3 482 483 485
3 488 490 489
3 486 487 490
3 486 490 488
3 491 494 493
3 491 492 494
3 499 498 497
3 495 496 499
3 495 499 497
3 500 501 502
3 500 502 503
3 506 505 504
3 506 504 507
3 508 511 510
3 508 509 511
3 514 516 515
3 512 513 516
3 512 516 514
3 517 520 519
3 517 518 520
3 523 525 524
3 521 522 525
3 521 525 523
3 526 527 528
3 526 528 529
3 531 530 533
3 532 531 533
3 534 537 536
3 534 535 537
3 540 542 541
3 538 539 542
3 538 542 540
3 545 544 546
3 543 544 545
3 549 551 550
3 547 548 551
3 547 551 549
3 552 553 554
3 552 554 555
3 557 556 559
3 558 557 559
3 560 563 562
3 560 561 563
3 566 568 567
3 564 565 568
3 564 568 566
3 569 572 571
3 569 570 572
3 577 576 575
3 573 574 577
3 573 577 575
3 578 579 580
3 578 580 581
3 582 585 584
3 582 583 585
3 586 589 588
3 586 587 589
3 590 593 592
3 590 591 593
3 594 597 596
3 594 595 597
3 598 599 600
3 598 600 601
3 602 605 604
3 602 603 605
3 606 609 608
3 606 607 609
3 610 613 612
3 610 611 613
3 614 617 616
3 614 615 617
3 621 619 620
3 618 619 621
3 624 623 622
3 624 622 625
3 626 629 628
3 626 627 629
3 632 634 633
3 630 631 634
3 630 634 632
3 635 638 637
3 635 636 638
3 643 642 641
3 639 640 643
3 639 643 641
3 644 645 646
3 644 646 647
3 673 675 674
3 673 701 675
3 672 700 701
3 672 701 673
3 671 699 700
3 671 700 672
3 670 698 699
3 670 699 671
3 669 697 698
3 669 698 670
3 668 696 697
3 668 697 669
3 667 694 695
3 667 695 696
3 667 696 668
3 666 694 667
3 665 692 693
3 665 693 694
3 665 694 666
3 664 692 665
3 663 692 664
3 663 691 692
3 662 691 663
3 662 689 690
3 662 690 691
3 661 689 662
3 661 688 689
3 660 688 661
3 659 688 660
3 659 687 688
3 658 687 659
3 658 686 687
3 657 686 658
3 657 685 686
3 656 685 657
3 656 684 685
3 655 683 684
3 655 684 656
3 654 683 655
3 654 682 683
3 653 681 682
3 653 682 654
3 652 681 653
3 652 680 681
3 651 679 680
3 651 680 652
3 650 678 679
3 650 679 651
3 649 677 678
3 649 678 650
3 648 676 677
3 648 677 649
3 727 729 728
3 727 755 729
3 726 754 755
3 726 755 727
3 725 753 754
3 725 754 726
3 724 752 753
3 724 753 725
3 723 751 752
3 723 752 724
3 722 750 751
3 722 751 723
3 721 748 749
3 721 749 750
3 721 750 722
3 720 748 721
3 719 746 747
3 719 747 748
3 719 748 720
3 718 746 719
3 717 746 718
3 717 745 746
3 716 745 717
3 716 743 744
3 716 744 745
3 715 743 716
3 715 742 743
3 714 742 715
3 713 742 714
3 713 741 742
3 712 741 713
3 712 740 741
3 711 740 712
3 711 739 740
3 710 739 711
3 710 738 739
3 709 737 738
3 709 738 710
3 708 737 709
3 708 736 737
3 707 735 736
3 707 736 708
3 706 735 707
3 706 734 735
3 705 733 734
3 705 734 706
3 704 732 733
3 704 733 705
3 703 731 732
3 703 732 704
3 702 730 731
3 702 731 703
3 781 783 782
3 781 809 783
3 780 808 809
3 780 809 781
3 779 807 808
3 779 808 780
3 778 806 807
3 778 807 779
3 777 805 806
3 777 806 778
3 776 804 805
3 776 805 777
3 775 802 803
3 775 803 804
3 775 804 776
3 774 802 775
3 773 800 801
3 773 801 802
3 773 802 774
3 772 800 773
3 771 800 772
3 771 799 800
3 770 799 771
3 770 797 798
3 770 798 799
3 769 797 770
3 769 796 797
3 768 796 769
3 767 796 768
3 767 795 796
3 766 795 767
3 766 794 795
3 765 794 766
3 765 793 794
3 764 793 765
3 764 792 793
3 763 791 792
3 763 792 764
3 762 791 763
3 762 790 791
3 761 789 790
3 761 790 762
3 760 789 761
3 760 788 789
3 759 787 788
3 759 788 760
3 758 786 787
3 758 787 759
3 757 785 786
3 757 786 758
3 756 784 785
3 756 785 757
3 835 837 836
3 835 863 837
3 834 862 863
3 834 863 835
3 833 861 862
3 833 862 834
3 832 860 861
3 832 861 833
3 831 859 860
3 831 860 832
3 830 858 859
3 830 859 831
3 829 856 857
3 829 857 858
3 829 858 830
3 828 856 829
3 827 854 855
3 827 855 856
3 827 856 828
3 826 854 827
3 825 854 826
3 825 853 854
3 824 853 825
3 824 851 852
3 824 852 853
3 823 851 824
3 823 850 851
3 822 850 823
3 821 850 822
3 821 849 850
3 820 849 821
3 820 848 849
3 819 848 820
3 819 847 848
3 818 847 819
3 818 846 847
3 817 845 846
3 817 846 818
3 816 845 817
3 816 844 845
3 815 843 844
3 815 844 816
3 814 843 815
3 814 842 843
3 813 841 842
3 813 842 814
3 812 840 841
3 812 841 813
3 811 839 840
3 811 840 812
3 810 838 839
3 810 839 811
3 889 891 890
3 889 917 891
3 888 916 917
3 888 917 889
3 887 915 916
3 887 916 888
3 886 914 915
3 886 915 887
3 885 913 914
3 885 914 886
3 884 912 913
3 884 913 885
3 883 910 911
3 883 911 912
3 883 912 884
3 882 910 883
3 881 908 909
3 881 909 910
3 881 910 882
3 880 908 881
3 879 908 880
3 879 907 908
3 878 907 879
3 878 905 906
3 878 906 907
3 877 905 878
3 877 904 905
3 876 904 877
3 875 904 876
3 875 903 904
3 874 903 875
3 874 902 903
3 873 902 874
3 873 901 902
3 872 901 873
3 872 900 901
3 871 899 900
3 871 900 872
3 870 899 871
3 870 898 899
3 869 897 898
3 869 898 870
3 868 897 869
3 868 896 897
3 867 895 896
3 867 896 868
3 866 894 895
3 866 895 867
3 865 893 894
3 865 894 866
3 864 892 893
3 864 893 865
3 943 945 944
3 943 971 945
3 942 970 971
3 942 971 943
3 941 969 970
3 941 970 942
3 940 968 969
3 940 969 941
3 939 967 968
3 939 968 940
3 938 966 967
3 938 967 939
3 937 964 965
3 937 965 966
3 937 966 938
3 936 964 937
3 935 962 963
3 935 963 964
3 935 964 936
3 934 962 935
3 933 962 934
3 933 961 962
3 932 961 933
3 932 959 960
3 932 960 961
3 931 959 932
3 931 958 959
3 930 958 931
3 929 958 930
3 929 957 958
3 928 957 929
3 928 956 957
3 927 956 928
3 927 955 956
3 926 955 927
3 926 954 955
3 925 953 954
3 925 954 926
3 924 953 925
3 924 952 953
3 923 951 952
3 923 952 924
3 922 951 923
3 922 950 951
3 921 949 950
3 921 950 922
3 920 948 949
3 920 949 921
3 919 947 948
3 919 948 920
3 918 946 947
3 918 947 919
3 997 999 998
3 997 1025 999
3 996 1024 1025
3 996 1025 997
3 995 1023 1024
3 995 1024 996
3 994 1022 1023
3 994 1023 995
3 993 1021 1022
3 993 1022 994
3 992 1020 1021
3 992 1021 993
3 991 1018 1019
3 991 1019 1020
3 991 1020 992
3 990 1018 991
3 989 1016 1017
3 989 1017 1018
3 989 1018 990
3 988 1016 989
3 987 1016 988
3 987 1015 1016
3 986 1015 987
3 986 1013 1014
3 986 1014 1015
3 985 1013 986
3 985 1012 1013
3 984 1012 985
3 983 1012 984
3 983 1011 1012
3 982 1011 983
3 982 1010 1011
3 981 1010 982
3 981 1009 1010
3 980 1009 981
3 980 1008 1009
3 979 1007 1008
3 979 1008 980
3 978 1007 979
3 978 1006 1007
3 977 1005 1006
3 977 1006 978
3 976 1005 977
3 976 1004 1005
3 975 1003 1004
3 975 1004 976
3 974 1002 1003
3 974 1003 975
3 973 1001 1002
3 973 1002 974
3 972 1000 1001
3 972 1001 973
3 1051 1053 1052
3 1051 1079 1053
3 1050 1078 1079
3 1050 1079 1051
3 1049 1077 1078
3 1049 1078 1050
3 1048 1076 1077
3 1048 1077 1049
3 1047 1075 1076
3 1047 1076 1048
3 1046 1074 1075
3 1046 1075 1047
3 1045 1072 1073
3 1045 1073 1074
3 1045 1074 1046
3 1044 1072 1045
3 1043 1070 1071
3 1043 1071 1072
3 1043 1072 1044
3 1042 1070 1043
3 1041 1070 1042
3 1041 1069 1070
3 1040 1069 1041
3 1040 1067 1068
3 1040 1068 1069
3 1039 1067 1040
3 1039 1066 1067
3 1038 1066 1039
3 1037 1066 1038
3 1037 1065 1066
3 1036 1065 1037
3 1036 1064 1065
3 1035 1064 1036
3 1035 1063 1064
3 1034 1063 1035
3 1034 1062 1063
3 1033 1061 1062
3 1033 1062 1034
3 1032 1061 1033
3 1032 1060 1061
3 1031 1059 1060
3 1031 1060 1032
3 1030 1059 1031
3 1030 1058 1059
3 1029 1057 1058
3 1029 1058 1030
3 1028 1056 1057
3 1028 1057 1029
3 1027 1055 1056
3 1027 1056 1028
3 1026 1054 1055
3 1026 1055 1027
