ply
format ascii 1.0
comment generated by blendit.inference.finetune_visualize
element vertex 1422
property float x
property float y
property float z
property uchar red
property uchar green
property uchar blue
element face 1807
property list uchar int vertex_indices
end_header
0 17.4737133 61.8607771 218 222 230
0 10.0209781 0.394645751 218 222 230
-5.55111512e-17 10.0184171 0.352246572 218 222 230
0 10.0187019 0.366410165 218 222 230
0 10.0195561 0.380550848 218 222 230
0 40.9635895 0.352246572 218 222 230
-5.55111512e-17 40.9635895 61.8607771 218 222 230
0 17.4737133 61.8607771 218 222 230
13.1941024 17.4737133 61.8607771 218 222 230
13.1941024 10.0209781 0.394645751 218 222 230
0 10.0209781 0.394645751 218 222 230
0.352246572 10.3706636 -5.55111512e-17 255 79 163
0.261078451 10.2794955 0.0120025109 255 79 163
0.176123286 10.1945404 0.0471920923 255 79 163
0.103170632 10.1215877 0.103170632 255 79 163
0.051906997 10.0703241 0.168198244 255 79 163
0.0224471633 10.0408642 0.228512997 255 79 163
0.00615143607 10.0245685 0.286704186 255 79 163
0.00154123079 10.0199583 0.319331361 255 79 163
-5.55111512e-17 10.0184171 0.352246572 255 79 163
13.1941024 10.3706636 0 255 79 163
13.1941024 10.2885116 0.00971382557 255 79 163
13.1941024 10.2131988 0.0371553589 255 79 163
13.1941024 10.1497712 0.0778669144 255 79 163
13.1941024 10.0955913 0.132217413 255 79 163
13.1941024 10.0546527 0.196635715 255 79 163
13.1941024 10.029073 0.266261412 255 79 163
13.1941024 10.018992 0.33212989 255 79 163
13.1941024 10.0209781 0.394645751 255 79 163
0 10.0209781 0.394645751 255 79 163
0 10.0187019 0.366410165 255 79 163
0 10.0195561 0.380550848 255 79 163
0 17.4737133 61.8607771 218 222 230
-5.55111512e-17 40.9635895 61.8607771 218 222 230
13.1941024 17.4737133 61.8607771 218 222 230
13.2763327 17.4639094 61.8607771 218 222 230
13.354019 17.4350395 61.8607771 218 222 230
13.4228682 17.388699 61.8607771 218 222 230
13.4790758 17.3274486 61.8607771 218 222 230
13.5195358 17.2546731 61.8607771 218 222 230
13.5395806 17.1881101 61.8607771 218 222 230
13.5463489 17.1188869 61.8607771 218 222 230
13.5463489 0 61.8607771 218 222 230
30.646932 -5.55111512e-17 61.8607771 218 222 230
30.9991785 0.352246572 61.8607771 218 222 230
30.990347 0.273864336 61.8607771 218 222 230
30.9642952 0.199412512 61.8607771 218 222 230
30.9223294 0.132624427 61.8607771 218 222 230
30.8665541 0.0768491125 61.8607771 218 222 230
30.799766 0.0348833768 61.8607771 218 222 230
30.7253142 0.00883155699 61.8607771 218 222 230
30.9991785 41.3158361 61.8607771 218 222 230
0.352246572 41.3158361 61.8607771 218 222 230
0.00883155699 41.0419718 61.8607771 218 222 230
0.0348833768 41.1164236 61.8607771 218 222 230
0.0768491125 41.1832117 61.8607771 218 222 230
0.132624427 41.238987 61.8607771 218 222 230
0.199412512 41.2809527 61.8607771 218 222 230
0.273864336 41.3070046 61.8607771 218 222 230
12.7690067 36.1403046 61.8607771 218 222 230
10.6117203 37.738687 61.8607771 218 222 230
12.8232686 36.0905207 61.8607771 218 222 230
12.8659941 36.0305431 61.8607771 218 222 230
12.8953159 35.9629929 61.8607771 218 222 230
12.9099524 35.8908226 61.8607771 218 222 230
12.9092641 35.8171862 61.8607771 218 222 230
12.6268151 33.3517782 61.8607771 218 222 230
12.417115 33.0687525 61.8607771 218 222 230
12.4812302 33.1049746 61.8607771 218 222 230
12.5364133 33.1537354 61.8607771 218 222 230
12.5802525 33.2129039 61.8607771 218 222 230
12.610832 33.2798941 61.8607771 218 222 230
10.1407846 32.0806565 61.8607771 218 222 230
9.79082718 32.1207493 61.8607771 218 222 230
9.85425397 32.083335 61.8607771 218 222 230
9.9240736 32.0599254 61.8607771 218 222 230
9.99723463 32.0515437 61.8607771 218 222 230
10.0705396 32.0585562 61.8607771 218 222 230
7.63354074 33.7191316 61.8607771 218 222 230
7.93913724 36.3865876 61.8607771 218 222 230
8.14883735 36.6696133 61.8607771 218 222 230
8.08472221 36.6333912 61.8607771 218 222 230
8.02953912 36.5846304 61.8607771 218 222 230
7.98569986 36.525462 61.8607771 218 222 230
7.95512041 36.4584718 61.8607771 218 222 230
-5.55111512e-17 10.0184171 0.352246572 255 79 163
0 40.9635895 0.352246572 255 79 163
0.00883155699 40.9635895 0.273864336 255 79 163
0.0348833768 40.9635895 0.199412512 255 79 163
0.0768491125 40.9635895 0.132624427 255 79 163
0.132624427 40.9635895 0.0768491125 255 79 163
0.199412512 40.9635895 0.0348833768 255 79 163
0.273864336 40.9635895 0.00883155699 255 79 163
0.352246572 40.9635895 -5.55111512e-17 255 79 163
0.352246572 10.3706636 -5.55111512e-17 255 79 163
0.261078451 10.2794955 0.0120025109 255 79 163
0.176123286 10.1945404 0.0471920923 255 79 163
0.103170632 10.1215877 0.103170632 255 79 163
0.051906997 10.0703241 0.168198244 255 79 163
0.0224471633 10.0408642 0.228512997 255 79 163
0.00615143607 10.0245685 0.286704186 255 79 163
0.00154123079 10.0199583 0.319331361 255 79 163
0 40.9635895 0.352246572 255 79 163
-5.55111512e-17 40.9635895 61.8607771 255 79 163
0.00883155699 41.0419718 61.8607771 255 79 163
0.0348833768 41.1164236 61.8607771 255 79 163
0.0768491125 41.1832117 61.8607771 255 79 163
0.132624427 41.238987 61.8607771 255 79 163
0.199412512 41.2809527 61.8607771 255 79 163
0.273864336 41.3070046 61.8607771 255 79 163
0.352246572 41.3158361 61.8607771 255 79 163
0.352246572 41.3158361 0.352246572 255 79 163
0.00883155699 41.0419718 0.352246572 255 79 163
0.0348833768 41.1164236 0.352246572 255 79 163
0.0768491125 41.1832117 0.352246572 255 79 163
0.132624427 41.238987 0.352246572 255 79 163
0.199412512 41.2809527 0.352246572 255 79 163
0.273864336 41.3070046 0.352246572 255 79 163
13.1941024 17.4737133 61.8607771 255 79 163
13.2763327 17.4639094 61.8607771 255 79 163
13.354019 17.4350395 61.8607771 255 79 163
13.4228682 17.388699 61.8607771 255 79 163
13.4790758 17.3274486 61.8607771 255 79 163
13.5195358 17.2546731 61.8607771 255 79 163
13.5395806 17.1881101 61.8607771 255 79 163
13.5463489 17.1188869 61.8607771 255 79 163
13.5463489 9.66101086 0.352246572 255 79 163
13.1941024 10.0209781 0.394645751 255 79 163
13.278038 10.0106147 0.393426027 255 79 163
13.3567813 9.98028726 0.389855474 255 79 163
13.4257255 9.93220807 0.384193038 255 79 163
13.4811917 9.86959386 0.376817088 255 79 163
13.5205514 9.79622974 0.368174295 255 79 163
13.5398551 9.72978323 0.360347056 255 79 163
30.9991785 0.352246572 0 218 222 230
30.9991785 40.9635895 -5.55111512e-17 218 222 230
0.352246572 40.9635895 -5.55111512e-17 218 222 230
0.352246572 10.3706636 -5.55111512e-17 218 222 230
13.1941024 10.3706636 0 218 222 230
13.3597024 10.3507794 2.03933823e-17 218 222 230
13.5157847 10.2923477 4.66177097e-18 218 222 230
13.6535496 10.1989547 1.76699983e-17 218 222 230
13.7654694 10.0761345 8.31335001e-19 218 222 230
13.8456522 9.93089103 -2.03694483e-17 218 222 230
13.8852442 9.79848524 8.47731749e-18 218 222 230
13.8985955 9.66101086 0 218 222 230
13.8985955 0 -5.55111512e-17 218 222 230
30.646932 -5.55111512e-17 0 218 222 230
30.990347 0.273864336 0 218 222 230
30.9642952 0.199412512 0 218 222 230
30.9223294 0.132624427 0 218 222 230
30.8665541 0.0768491125 0 218 222 230
30.799766 0.0348833768 0 218 222 230
30.7253142 0.00883155699 0 218 222 230
20.5462905 3.85632926 0 218 222 230
20.1161742 5.30029903 0 218 222 230
20.1021518 5.37970053 0 218 222 230
20.1065525 5.46021053 0 218 222 230
20.1291457 5.5376106 0 218 222 230
20.1687477 5.60784525 0 218 222 230
20.2232835 5.66723444 0 218 222 230
20.2898956 5.71266638 0 218 222 230
20.3650936 5.74176061 0 218 222 230
20.4449377 5.75299268 0 218 222 230
20.5252441 5.74577408 0 218 222 230
21.8277274 5.47584384 0 218 222 230
10.6576893 27.6593195 0 218 222 230
10.5232391 28.444522 0 218 222 230
11.2924545 29.0835117 0 218 222 230
12.2304434 28.7368465 0 218 222 230
12.3648936 27.9516439 0 218 222 230
12.2427819 27.6212405 0 218 222 230
12.2941977 27.6739587 0 218 222 230
12.3335293 27.7362147 0 218 222 230
12.3590576 27.8052878 0 218 222 230
12.3696669 27.8781592 0 218 222 230
11.7864367 27.2421531 0 218 222 230
11.4392432 27.1827032 0 218 222 230
11.5106063 27.1645348 0 218 222 230
11.5841874 27.1616008 0 218 222 230
11.6567706 27.1740292 0 218 222 230
11.7251837 27.2012769 0 218 222 230
10.8827712 27.388366 0 218 222 230
10.6776366 27.588433 0 218 222 230
10.7118862 27.5232429 0 218 222 230
10.7589411 27.4665982 0 218 222 230
10.8167449 27.4209746 0 218 222 230
12.7690067 36.1403046 0 218 222 230
10.6117203 37.738687 0 218 222 230
12.8232686 36.0905207 0 218 222 230
12.8659941 36.0305431 0 218 222 230
12.8953159 35.9629929 0 218 222 230
12.9099524 35.8908226 0 218 222 230
12.9092641 35.8171862 0 218 222 230
12.6268151 33.3517782 0 218 222 230
12.417115 33.0687525 -7.10542736e-15 218 222 230
12.4812302 33.1049746 0 218 222 230
12.5364133 33.1537354 0 218 222 230
12.5802525 33.2129039 0 218 222 230
12.610832 33.2798941 0 218 222 230
10.1407846 32.0806565 -7.10542736e-15 218 222 230
9.79082718 32.1207493 0 218 222 230
9.85425397 32.083335 0 218 222 230
9.9240736 32.0599254 0 218 222 230
9.99723463 32.0515437 0 218 222 230
10.0705396 32.0585562 0 218 222 230
7.63354074 33.7191316 0 218 222 230
7.93913724 36.3865876 0 218 222 230
8.14883735 36.6696133 -7.10542736e-15 218 222 230
8.08472221 36.6333912 0 218 222 230
8.02953912 36.5846304 0 218 222 230
7.98569986 36.525462 0 218 222 230
7.95512041 36.4584718 0 218 222 230
7.08153812 20.6514903 0 218 222 230
7.23592237 21.9229591 0 218 222 230
7.69010289 23.1205347 0 218 222 230
8.41768436 24.1746184 0 218 222 230
9.37638237 25.0239507 0 218 222 230
10.5104809 25.6191716 0 218 222 230
11.7540702 25.9256888 0 218 222 230
13.0348775 25.9256888 0 218 222 230
14.2784669 25.6191716 0 218 222 230
15.4125654 25.0239507 0 218 222 230
16.3712634 24.1746184 0 218 222 230
17.0988449 23.1205347 0 218 222 230
17.5530254 21.9229591 0 218 222 230
17.7074097 20.6514903 0 218 222 230
17.5530254 19.3800216 0 218 222 230
17.0988449 18.182446 0 218 222 230
16.3712634 17.1283622 0 218 222 230
15.4125654 16.2790299 0 218 222 230
14.2784669 15.6838091 0 218 222 230
13.0348775 15.3772918 0 218 222 230
11.7540702 15.3772918 0 218 222 230
10.5104809 15.6838091 0 218 222 230
9.37638237 16.2790299 0 218 222 230
8.41768436 17.1283622 0 218 222 230
7.69010289 18.182446 0 218 222 230
7.23592237 19.3800216 0 218 222 230
13.1941024 10.3706636 0 255 79 163
13.1941024 10.2885116 0.00971382557 255 79 163
13.1941024 10.2131988 0.0371553589 255 79 163
13.1941024 10.1497712 0.0778669144 255 79 163
13.1941024 10.0955913 0.132217413 255 79 163
13.1941024 10.0546527 0.196635715 255 79 163
13.1941024 10.029073 0.266261412 255 79 163
13.1941024 10.018992 0.33212989 255 79 163
13.1941024 10.0209781 0.394645751 255 79 163
13.278038 10.0106147 0.393426027 255 79 163
13.3567813 9.98028726 0.389855474 255 79 163
13.4257255 9.93220807 0.384193038 255 79 163
13.4811917 9.86959386 0.376817088 255 79 163
13.5205514 9.79622974 0.368174295 255 79 163
13.5398551 9.72978323 0.360347056 255 79 163
13.5463489 9.66101086 0.352246572 255 79 163
13.8985955 9.66101086 0 255 79 163
13.812629 9.66101086 0.0106512004 255 79 163
13.734704 9.66101086 0.0404498299 255 79 163
13.6702314 9.66101086 0.0840536231 255 79 163
13.6164919 9.66101086 0.141307741 255 79 163
13.5772763 9.66101086 0.207914963 255 79 163
13.5541465 9.66101086 0.278540835 255 79 163
13.5482315 9.66101086 0.31587768 255 79 163
13.3597024 10.3507794 2.03933823e-17 255 79 163
13.5157847 10.2923477 4.66177097e-18 255 79 163
13.6535496 10.1989547 1.76699983e-17 255 79 163
13.7654694 10.0761345 8.31335001e-19 255 79 163
13.8456522 9.93089103 -2.03694483e-17 255 79 163
13.8852442 9.79848524 8.47731749e-18 255 79 163
13.3095785 10.0919704 0.118075296 255 79 163
13.5106675 9.97757625 0.113886524 255 79 163
13.6306814 9.77799175 0.107002023 255 79 163
30.9991785 41.3158361 0.352246572 218 222 230
30.9991785 41.3158361 61.8607771 218 222 230
0.352246572 41.3158361 0.352246572 218 222 230
0.352246572 41.3158361 61.8607771 218 222 230
30.9991785 0.352246572 61.8607771 218 222 230
30.9991785 41.3158361 61.8607771 218 222 230
30.9991785 0.352246572 0 218 222 230
30.9991785 40.9635895 -5.55111512e-17 218 222 230
30.9991785 41.3158361 0.352246572 218 222 230
30.9991785 41.3070046 0.273864336 218 222 230
30.9991785 41.2809527 0.199412512 218 222 230
30.9991785 41.238987 0.132624427 218 222 230
30.9991785 41.1832117 0.0768491125 218 222 230
30.9991785 41.1164236 0.0348833768 218 222 230
30.9991785 41.0419718 0.00883155699 218 222 230
13.5463489 0 0.352246572 218 222 230
13.5463489 0 61.8607771 218 222 230
13.5463489 17.1188869 61.8607771 218 222 230
13.5463489 9.66101086 0.352246572 218 222 230
30.9991785 0.352246572 0 218 222 230
30.9991785 0.352246572 61.8607771 218 222 230
30.990347 0.273864336 61.8607771 218 222 230
30.9642952 0.199412512 61.8607771 218 222 230
30.9223294 0.132624427 61.8607771 218 222 230
30.8665541 0.0768491125 61.8607771 218 222 230
30.799766 0.0348833768 61.8607771 218 222 230
30.7253142 0.00883155699 61.8607771 218 222 230
30.646932 -5.55111512e-17 61.8607771 218 222 230
30.646932 -5.55111512e-17 0 218 222 230
30.990347 0.273864336 0 218 222 230
30.9642952 0.199412512 0 218 222 230
30.9223294 0.132624427 0 218 222 230
30.8665541 0.0768491125 0 218 222 230
30.799766 0.0348833768 0 218 222 230
30.7253142 0.00883155699 0 218 222 230
13.8985955 0 -5.55111512e-17 218 222 230
30.646932 -5.55111512e-17 0 218 222 230
13.8202133 0 0.00883155699 218 222 230
13.7457615 0 0.0348833768 218 222 230
13.6789734 0 0.0768491125 218 222 230
13.6231981 0 0.132624427 218 222 230
13.5812323 0 0.199412512 218 222 230
13.5551805 0 0.273864336 218 222 230
13.5463489 0 0.352246572 218 222 230
13.5463489 0 61.8607771 218 222 230
30.646932 -5.55111512e-17 61.8607771 218 222 230
12.7690067 36.1403046 61.8607771 218 222 230
10.6117203 37.738687 61.8607771 218 222 230
12.7690067 36.1403046 0 218 222 230
10.6117203 37.738687 0 218 222 230
12.7690067 36.1403046 61.8607771 218 222 230
12.8232686 36.0905207 61.8607771 218 222 230
12.8659941 36.0305431 61.8607771 218 222 230
12.8953159 35.9629929 61.8607771 218 222 230
12.9099524 35.8908226 61.8607771 218 222 230
12.9092641 35.8171862 61.8607771 218 222 230
12.9092641 35.8171862 0 218 222 230
12.7690067 36.1403046 0 218 222 230
12.8232686 36.0905207 0 218 222 230
12.8659941 36.0305431 0 218 222 230
12.8953159 35.9629929 0 218 222 230
12.9099524 35.8908226 0 218 222 230
10.6117203 37.738687 61.8607771 218 222 230
8.14883735 36.6696133 61.8607771 218 222 230
10.6117203 37.738687 0 218 222 230
8.14883735 36.6696133 -7.10542736e-15 218 222 230
12.6268151 33.3517782 61.8607771 218 222 230
12.9092641 35.8171862 61.8607771 218 222 230
12.6268151 33.3517782 0 218 222 230
12.9092641 35.8171862 0 218 222 230
8.14883735 36.6696133 61.8607771 218 222 230
8.14883735 36.6696133 -7.10542736e-15 218 222 230
8.08472221 36.6333912 0 218 222 230
8.02953912 36.5846304 0 218 222 230
7.98569986 36.525462 0 218 222 230
7.95512041 36.4584718 0 218 222 230
7.93913724 36.3865876 0 218 222 230
7.93913724 36.3865876 61.8607771 218 222 230
8.08472221 36.6333912 61.8607771 218 222 230
8.02953912 36.5846304 61.8607771 218 222 230
7.98569986 36.525462 61.8607771 218 222 230
7.95512041 36.4584718 61.8607771 218 222 230
12.417115 33.0687525 61.8607771 218 222 230
12.417115 33.0687525 -7.10542736e-15 218 222 230
12.4812302 33.1049746 0 218 222 230
12.5364133 33.1537354 0 218 222 230
12.5802525 33.2129039 0 218 222 230
12.610832 33.2798941 0 218 222 230
12.6268151 33.3517782 0 218 222 230
12.6268151 33.3517782 61.8607771 218 222 230
12.4812302 33.1049746 61.8607771 218 222 230
12.5364133 33.1537354 61.8607771 218 222 230
12.5802525 33.2129039 61.8607771 218 222 230
12.610832 33.2798941 61.8607771 218 222 230
7.93913724 36.3865876 61.8607771 218 222 230
7.63354074 33.7191316 61.8607771 218 222 230
7.93913724 36.3865876 0 218 222 230
7.63354074 33.7191316 0 218 222 230
10.1407846 32.0806565 61.8607771 218 222 230
12.417115 33.0687525 61.8607771 218 222 230
10.1407846 32.0806565 -7.10542736e-15 218 222 230
12.417115 33.0687525 -7.10542736e-15 218 222 230
7.63354074 33.7191316 61.8607771 218 222 230
9.79082718 32.1207493 61.8607771 218 222 230
7.63354074 33.7191316 0 218 222 230
9.79082718 32.1207493 0 218 222 230
9.79082718 32.1207493 61.8607771 218 222 230
9.79082718 32.1207493 0 218 222 230
9.85425397 32.083335 0 218 222 230
9.9240736 32.0599254 0 218 222 230
9.99723463 32.0515437 0 218 222 230
10.0705396 32.0585562 0 218 222 230
10.1407846 32.0806565 -7.10542736e-15 218 222 230
10.1407846 32.0806565 61.8607771 218 222 230
9.85425397 32.083335 61.8607771 218 222 230
9.9240736 32.0599254 61.8607771 218 222 230
9.99723463 32.0515437 61.8607771 218 222 230
10.0705396 32.0585562 61.8607771 218 222 230
0.352246572 41.3158361 0.352246572 255 79 163
0.352246572 41.3070046 0.273864336 255 79 163
0.352246572 41.2809527 0.199412512 255 79 163
0.352246572 41.238987 0.132624427 255 79 163
0.352246572 41.1832117 0.0768491125 255 79 163
0.352246572 41.1164236 0.0348833768 255 79 163
0.352246572 41.0419718 0.00883155699 255 79 163
0.352246572 40.9635895 -5.55111512e-17 255 79 163
0 40.9635895 0.352246572 255 79 163
0.00883155699 40.9635895 0.273864336 255 79 163
0.0348833768 40.9635895 0.199412512 255 79 163
0.0768491125 40.9635895 0.132624427 255 79 163
0.132624427 40.9635895 0.0768491125 255 79 163
0.199412512 40.9635895 0.0348833768 255 79 163
0.273864336 40.9635895 0.00883155699 255 79 163
0 40.9635895 0.352246572 255 79 163
0.00883155699 41.0419718 0.352246572 255 79 163
0.0348833768 41.1164236 0.352246572 255 79 163
0.0768491125 41.1832117 0.352246572 255 79 163
0.132624427 41.238987 0.352246572 255 79 163
0.199412512 41.2809527 0.352246572 255 79 163
0.273864336 41.3070046 0.352246572 255 79 163
0.0172401744 40.9806175 0.244736521 255 79 163
0.0172401744 41.0130065 0.255260354 255 79 163
0.0172401744 41.0405582 0.275277874 255 79 163
0.0672731091 41.0275701 0.155334752 255 79 163
0.0172401744 41.0605758 0.302829626 255 79 163
0.0672731091 41.0852877 0.184743373 255 79 163
0.145201232 41.0081692 0.0707816053 255 79 163
0.0172401744 41.0710996 0.335218653 255 79 163
0.0672731091 41.1310927 0.230548375 255 79 163
0.145201232 41.0929648 0.0983333573 255 79 163
0.0672731091 41.1605014 0.288266043 255 79 163
0.145201232 41.1650962 0.150739904 255 79 163
0.243396395 41.0671122 0.0336365545 255 79 163
0.145201232 41.2175028 0.222871327 255 79 163
0.243396395 41.1605014 0.0812207031 255 79 163
0.145201232 41.2450545 0.307666901 255 79 163
0.243396395 41.2346154 0.155334752 255 79 163
0.243396395 41.2821996 0.248723902 255 79 163
30.9991785 41.3158361 0.352246572 255 79 163
30.9991785 41.3070046 0.273864336 255 79 163
30.9991785 41.2809527 0.199412512 255 79 163
30.9991785 41.238987 0.132624427 255 79 163
30.9991785 41.1832117 0.0768491125 255 79 163
30.9991785 41.1164236 0.0348833768 255 79 163
30.9991785 41.0419718 0.00883155699 255 79 163
30.9991785 40.9635895 -5.55111512e-17 255 79 163
0.352246572 40.9635895 -5.55111512e-17 255 79 163
0.352246572 41.3158361 0.352246572 255 79 163
0.352246572 41.3070046 0.273864336 255 79 163
0.352246572 41.2809527 0.199412512 255 79 163
0.352246572 41.238987 0.132624427 255 79 163
0.352246572 41.1832117 0.0768491125 255 79 163
0.352246572 41.1164236 0.0348833768 255 79 163
0.352246572 41.0419718 0.00883155699 255 79 163
13.8985955 9.66101086 0 255 79 163
13.8985955 0 -5.55111512e-17 255 79 163
13.8202133 0 0.00883155699 255 79 163
13.7457615 0 0.0348833768 255 79 163
13.6789734 0 0.0768491125 255 79 163
13.6231981 0 0.132624427 255 79 163
13.5812323 0 0.199412512 255 79 163
13.5551805 0 0.273864336 255 79 163
13.5463489 0 0.352246572 255 79 163
13.5463489 9.66101086 0.352246572 255 79 163
13.812629 9.66101086 0.0106512004 255 79 163
13.734704 9.66101086 0.0404498299 255 79 163
13.6702314 9.66101086 0.0840536231 255 79 163
13.6164919 9.66101086 0.141307741 255 79 163
13.5772763 9.66101086 0.207914963 255 79 163
13.5541465 9.66101086 0.278540835 255 79 163
13.5482315 9.66101086 0.31587768 255 79 163
20.5462905 3.85632926 0 218 222 230
20.1161742 5.30029903 0 218 222 230
20.5462905 3.85632926 54.2538043 218 222 230
20.1161742 5.30029903 54.2538043 218 222 230
20.1161742 5.30029903 0 218 222 230
20.1161742 5.30029903 54.2538043 218 222 230
20.1021518 5.37970053 54.2538043 218 222 230
20.1065525 5.46021053 54.2538043 218 222 230
20.1291457 5.5376106 54.2538043 218 222 230
20.1687477 5.60784525 54.2538043 218 222 230
20.2232835 5.66723444 54.2538043 218 222 230
20.2898956 5.71266638 54.2538043 218 222 230
20.3650936 5.74176061 54.2538043 218 222 230
20.4449377 5.75299268 54.2538043 218 222 230
20.5252441 5.74577408 54.2538043 218 222 230
20.5252441 5.74577408 0 218 222 230
20.1021518 5.37970053 0 218 222 230
20.1065525 5.46021053 0 218 222 230
20.1291457 5.5376106 0 218 222 230
20.1687477 5.60784525 0 218 222 230
20.2232835 5.66723444 0 218 222 230
20.2898956 5.71266638 0 218 222 230
20.3650936 5.74176061 0 218 222 230
20.4449377 5.75299268 0 218 222 230
21.8277274 5.47584384 0 218 222 230
21.8277274 5.47584384 54.2538043 218 222 230
20.5462905 3.85632926 54.2538043 218 222 230
20.5462905 3.85632926 0 218 222 230
20.5252441 5.74577408 0 218 222 230
21.8277274 5.47584384 0 218 222 230
20.5252441 5.74577408 54.2538043 218 222 230
21.8277274 5.47584384 54.2538043 218 222 230
10.6576893 27.6593195 0 218 222 230
10.5232391 28.444522 0 218 222 230
10.6576893 27.6593195 29.952148 218 222 230
10.5232391 28.444522 29.952148 218 222 230
10.6576893 27.6593195 0 218 222 230
10.6776366 27.588433 0 218 222 230
10.7118862 27.5232429 0 218 222 230
10.7589411 27.4665982 0 218 222 230
10.8167449 27.4209746 0 218 222 230
10.8827712 27.388366 0 218 222 230
10.8827712 27.388366 29.952148 218 222 230
10.6576893 27.6593195 29.952148 218 222 230
10.6776366 27.588433 29.952148 218 222 230
10.7118862 27.5232429 29.952148 218 222 230
10.7589411 27.4665982 29.952148 218 222 230
10.8167449 27.4209746 29.952148 218 222 230
10.5232391 28.444522 0 218 222 230
10.5232391 28.444522 29.952148 218 222 230
11.2924545 29.0835117 29.952148 218 222 230
11.2924545 29.0835117 0 218 222 230
11.4392432 27.1827032 0 218 222 230
10.8827712 27.388366 0 218 222 230
11.4392432 27.1827032 29.952148 218 222 230
10.8827712 27.388366 29.952148 218 222 230
11.2924545 29.0835117 0 218 222 230
11.2924545 29.0835117 29.952148 218 222 230
12.2304434 28.7368465 29.952148 218 222 230
12.2304434 28.7368465 0 218 222 230
11.4392432 27.1827032 0 218 222 230
11.5106063 27.1645348 0 218 222 230
11.5841874 27.1616008 0 218 222 230
11.6567706 27.1740292 0 218 222 230
11.7251837 27.2012769 0 218 222 230
11.7864367 27.2421531 0 218 222 230
11.7864367 27.2421531 29.952148 218 222 230
11.4392432 27.1827032 29.952148 218 222 230
11.5106063 27.1645348 29.952148 218 222 230
11.5841874 27.1616008 29.952148 218 222 230
11.6567706 27.1740292 29.952148 218 222 230
11.7251837 27.2012769 29.952148 218 222 230
12.2304434 28.7368465 0 218 222 230
12.3648936 27.9516439 0 218 222 230
12.2304434 28.7368465 29.952148 218 222 230
12.3648936 27.9516439 29.952148 218 222 230
12.2427819 27.6212405 0 218 222 230
11.7864367 27.2421531 0 218 222 230
12.2427819 27.6212405 29.952148 218 222 230
11.7864367 27.2421531 29.952148 218 222 230
12.2427819 27.6212405 0 218 222 230
12.2941977 27.6739587 0 218 222 230
12.3335293 27.7362147 0 218 222 230
12.3590576 27.8052878 0 218 222 230
12.3696669 27.8781592 0 218 222 230
12.3648936 27.9516439 0 218 222 230
12.3648936 27.9516439 29.952148 218 222 230
12.2427819 27.6212405 29.952148 218 222 230
12.2941977 27.6739587 29.952148 218 222 230
12.3335293 27.7362147 29.952148 218 222 230
12.3590576 27.8052878 29.952148 218 222 230
12.3696669 27.8781592 29.952148 218 222 230
7.08153812 20.6514903 0 255 79 163
7.15992035 20.6514903 0.00883155699 255 79 163
7.23437218 20.6514903 0.0348833768 255 79 163
7.30116026 20.6514903 0.0768491125 255 79 163
7.35693558 20.6514903 0.132624427 255 79 163
7.39890131 20.6514903 0.199412512 255 79 163
7.42495313 20.6514903 0.273864336 255 79 163
7.43378469 20.6514903 0.352246572 255 79 163
7.23592237 21.9229591 0 255 79 163
7.69010289 23.1205347 0 255 79 163
8.41768436 24.1746184 0 255 79 163
9.37638237 25.0239507 0 255 79 163
10.5104809 25.6191716 0 255 79 163
11.7540702 25.9256888 0 255 79 163
13.0348775 25.9256888 0 255 79 163
14.2784669 25.6191716 0 255 79 163
15.4125654 25.0239507 0 255 79 163
16.3712634 24.1746184 0 255 79 163
17.0988449 23.1205347 0 255 79 163
17.5530254 21.9229591 0 255 79 163
17.7074097 20.6514903 0 255 79 163
17.5530254 19.3800216 0 255 79 163
17.0988449 18.182446 0 255 79 163
16.3712634 17.1283622 0 255 79 163
15.4125654 16.2790299 0 255 79 163
14.2784669 15.6838091 0 255 79 163
13.0348775 15.3772918 0 255 79 163
11.7540702 15.3772918 0 255 79 163
10.5104809 15.6838091 0 255 79 163
9.37638237 16.2790299 0 255 79 163
8.41768436 17.1283622 0 255 79 163
7.69010289 18.182446 0 255 79 163
7.23592237 19.3800216 0 255 79 163
7.08153812 20.6514903 0 255 79 163
7.15992035 20.6514903 0.00883155699 255 79 163
7.23437218 20.6514903 0.0348833768 255 79 163
7.30116026 20.6514903 0.0768491125 255 79 163
7.35693558 20.6514903 0.132624427 255 79 163
7.39890131 20.6514903 0.199412512 255 79 163
7.42495313 20.6514903 0.273864336 255 79 163
7.43378469 20.6514903 0.352246572 255 79 163
7.5779333 21.838661 0.352246572 255 79 163
8.00200174 22.9568375 0.352246572 255 79 163
8.6813447 23.9410357 0.352246572 255 79 163
9.57648123 24.7340575 0.352246572 255 79 163
10.6353893 25.2898153 0.352246572 255 79 163
11.7965289 25.5760105 0.352246572 255 79 163
12.9924189 25.5760105 0.352246572 255 79 163
14.1535585 25.2898153 0.352246572 255 79 163
15.2124665 24.7340575 0.352246572 255 79 163
16.1076031 23.9410357 0.352246572 255 79 163
16.786946 22.9568375 0.352246572 255 79 163
17.2110145 21.838661 0.352246572 255 79 163
17.3551631 20.6514903 0.352246572 255 79 163
17.2110145 19.4643197 0.352246572 255 79 163
16.786946 18.3461431 0.352246572 255 79 163
16.1076031 17.3619449 0.352246572 255 79 163
15.2124665 16.5689231 0.352246572 255 79 163
14.1535585 16.0131653 0.352246572 255 79 163
12.9924189 15.7269701 0.352246572 255 79 163
11.7965289 15.7269701 0.352246572 255 79 163
10.6353893 16.0131653 0.352246572 255 79 163
9.57648123 16.5689231 0.352246572 255 79 163
8.6813447 17.3619449 0.352246572 255 79 163
8.00200174 18.3461431 0.352246572 255 79 163
7.5779333 19.4643197 0.352246572 255 79 163
7.31202696 21.904201 0.00883155699 255 79 163
7.38431535 21.8863835 0.0348833768 255 79 163
7.4491627 21.8704001 0.0768491125 255 79 163
7.50331728 21.8570521 0.132624427 255 79 163
7.54406357 21.8470091 0.199412512 255 79 163
7.56935837 21.8407745 0.273864336 255 79 163
7.75950692 23.0841086 0.00883155699 255 79 163
7.82543073 23.0495092 0.0348833768 255 79 163
7.88456865 23.0184712 0.0768491125 255 79 163
7.93395523 22.9925511 0.132624427 255 79 163
7.97111405 22.9730487 0.199412512 255 79 163
7.99418179 22.9609418 0.273864336 255 79 163
8.4763543 24.1226414 0.00883155699 255 79 163
8.53208229 24.0732707 0.0348833768 255 79 163
8.58207389 24.028982 0.0768491125 255 79 163
8.62382232 23.9919961 0.132624427 255 79 163
8.65523412 23.9641677 0.199412512 255 79 163
8.67473419 23.9468921 0.273864336 255 79 163
9.42090856 24.9594434 0.00883155699 255 79 163
9.46320201 24.8981708 0.0348833768 255 79 163
9.50114197 24.8432053 0.0768491125 255 79 163
9.53282596 24.7973031 0.132624427 255 79 163
9.55666522 24.7627659 0.199412512 255 79 163
9.57146434 24.7413257 0.273864336 255 79 163
10.5382756 25.5458829 0.00883155699 255 79 163
10.5646766 25.4762692 0.0348833768 255 79 163
10.58836 25.4138213 0.0768491125 255 79 163
10.6081382 25.3616705 0.132624427 255 79 163
10.6230194 25.3224318 0.199412512 255 79 163
10.6322575 25.2980729 0.273864336 255 79 163
11.7635182 25.8478781 0.00883155699 255 79 163
11.7724924 25.7739691 0.0348833768 255 79 163
11.7805428 25.707668 0.0768491125 255 79 163
11.7872657 25.6522993 0.132624427 255 79 163
11.7923242 25.6106395 0.199412512 255 79 163
11.7954644 25.5847777 0.273864336 255 79 163
13.0254296 25.8478781 0.00883155699 255 79 163
13.0164554 25.7739691 0.0348833768 255 79 163
13.008405 25.707668 0.0768491125 255 79 163
13.001682 25.6522993 0.132624427 255 79 163
12.9966236 25.6106395 0.199412512 255 79 163
12.9934834 25.5847777 0.273864336 255 79 163
14.2506721 25.5458829 0.00883155699 255 79 163
14.2242712 25.4762692 0.0348833768 255 79 163
14.2005878 25.4138213 0.0768491125 255 79 163
14.1808096 25.3616705 0.132624427 255 79 163
14.1659283 25.3224318 0.199412512 255 79 163
14.1566902 25.2980729 0.273864336 255 79 163
15.3680392 24.9594434 0.00883155699 255 79 163
15.3257458 24.8981708 0.0348833768 255 79 163
15.2878058 24.8432053 0.0768491125 255 79 163
15.2561218 24.7973031 0.132624427 255 79 163
15.2322826 24.7627659 0.199412512 255 79 163
15.2174834 24.7413257 0.273864336 255 79 163
16.3125935 24.1226414 0.00883155699 255 79 163
16.2568655 24.0732707 0.0348833768 255 79 163
16.2068739 24.028982 0.0768491125 255 79 163
16.1651255 23.9919961 0.132624427 255 79 163
16.1337136 23.9641677 0.199412512 255 79 163
16.1142136 23.9468921 0.273864336 255 79 163
17.0294409 23.0841086 0.00883155699 255 79 163
16.963517 23.0495092 0.0348833768 255 79 163
16.9043791 23.0184712 0.0768491125 255 79 163
16.8549925 22.9925511 0.132624427 255 79 163
16.8178337 22.9730487 0.199412512 255 79 163
16.794766 22.9609418 0.273864336 255 79 163
17.4769208 21.904201 0.00883155699 255 79 163
17.4046324 21.8863835 0.0348833768 255 79 163
17.3397851 21.8704001 0.0768491125 255 79 163
17.2856305 21.8570521 0.132624427 255 79 163
17.2448842 21.8470091 0.199412512 255 79 163
17.2195894 21.8407745 0.273864336 255 79 163
17.6290274 20.6514903 0.00883155699 255 79 163
17.5545756 20.6514903 0.0348833768 255 79 163
17.4877875 20.6514903 0.0768491125 255 79 163
17.4320122 20.6514903 0.132624427 255 79 163
17.3900465 20.6514903 0.199412512 255 79 163
17.3639946 20.6514903 0.273864336 255 79 163
17.4769208 19.3987797 0.00883155699 255 79 163
17.4046324 19.4165972 0.0348833768 255 79 163
17.3397851 19.4325806 0.0768491125 255 79 163
17.2856305 19.4459285 0.132624427 255 79 163
17.2448842 19.4559716 0.199412512 255 79 163
17.2195894 19.4622062 0.273864336 255 79 163
17.0294409 18.218872 0.00883155699 255 79 163
16.963517 18.2534715 0.0348833768 255 79 163
16.9043791 18.2845095 0.0768491125 255 79 163
16.8549925 18.3104295 0.132624427 255 79 163
16.8178337 18.329932 0.199412512 255 79 163
16.794766 18.3420389 0.273864336 255 79 163
16.3125935 17.1803393 0.00883155699 255 79 163
16.2568655 17.22971 0.0348833768 255 79 163
16.2068739 17.2739987 0.0768491125 255 79 163
16.1651255 17.3109845 0.132624427 255 79 163
16.1337136 17.338813 0.199412512 255 79 163
16.1142136 17.3560885 0.273864336 255 79 163
15.3680392 16.3435372 0.00883155699 255 79 163
15.3257458 16.4048099 0.0348833768 255 79 163
15.2878058 16.4597754 0.0768491125 255 79 163
15.2561218 16.5056776 0.132624427 255 79 163
15.2322826 16.5402147 0.199412512 255 79 163
15.2174834 16.5616549 0.273864336 255 79 163
14.2506721 15.7570977 0.00883155699 255 79 163
14.2242712 15.8267114 0.0348833768 255 79 163
14.2005878 15.8891594 0.0768491125 255 79 163
14.1808096 15.9413102 0.132624427 255 79 163
14.1659283 15.9805488 0.199412512 255 79 163
14.1566902 16.0049077 0.273864336 255 79 163
13.0254296 15.4551026 0.00883155699 255 79 163
13.0164554 15.5290116 0.0348833768 255 79 163
13.008405 15.5953127 0.0768491125 255 79 163
13.001682 15.6506813 0.132624427 255 79 163
12.9966236 15.6923411 0.199412512 255 79 163
12.9934834 15.718203 0.273864336 255 79 163
11.7635182 15.4551026 0.00883155699 255 79 163
11.7724924 15.5290116 0.0348833768 255 79 163
11.7805428 15.5953127 0.0768491125 255 79 163
11.7872657 15.6506813 0.132624427 255 79 163
11.7923242 15.6923411 0.199412512 255 79 163
11.7954644 15.718203 0.273864336 255 79 163
10.5382756 15.7570977 0.00883155699 255 79 163
10.5646766 15.8267114 0.0348833768 255 79 163
10.58836 15.8891594 0.0768491125 255 79 163
10.6081382 15.9413102 0.132624427 255 79 163
10.6230194 15.9805488 0.199412512 255 79 163
10.6322575 16.0049077 0.273864336 255 79 163
9.42090856 16.3435372 0.00883155699 255 79 163
9.46320201 16.4048099 0.0348833768 255 79 163
9.50114197 16.4597754 0.0768491125 255 79 163
9.53282596 16.5056776 0.132624427 255 79 163
9.55666522 16.5402147 0.199412512 255 79 163
9.57146434 16.5616549 0.273864336 255 79 163
8.4763543 17.1803393 0.00883155699 255 79 163
8.53208229 17.22971 0.0348833768 255 79 163
8.58207389 17.2739987 0.0768491125 255 79 163
8.62382232 17.3109845 0.132624427 255 79 163
8.65523412 17.338813 0.199412512 255 79 163
8.67473419 17.3560885 0.273864336 255 79 163
7.75950692 18.218872 0.00883155699 255 79 163
7.82543073 18.2534715 0.0348833768 255 79 163
7.88456865 18.2845095 0.0768491125 255 79 163
7.93395523 18.3104295 0.132624427 255 79 163
7.97111405 18.329932 0.199412512 255 79 163
7.99418179 18.3420389 0.273864336 255 79 163
7.31202696 19.3987797 0.00883155699 255 79 163
7.38431535 19.4165972 0.0348833768 255 79 163
7.4491627 19.4325806 0.0768491125 255 79 163
7.50331728 19.4459285 0.132624427 255 79 163
7.54406357 19.4559716 0.199412512 255 79 163
7.56935837 19.4622062 0.273864336 255 79 163
20.5252441 5.74577408 54.2538043 218 222 230
21.8277274 5.47584384 54.2538043 218 222 230
20.5462905 3.85632926 54.2538043 218 222 230
20.1161742 5.30029903 54.2538043 218 222 230
20.1021518 5.37970053 54.2538043 218 222 230
20.1065525 5.46021053 54.2538043 218 222 230
20.1291457 5.5376106 54.2538043 218 222 230
20.1687477 5.60784525 54.2538043 218 222 230
20.2232835 5.66723444 54.2538043 218 222 230
20.2898956 5.71266638 54.2538043 218 222 230
20.3650936 5.74176061 54.2538043 218 222 230
20.4449377 5.75299268 54.2538043 218 222 230
12.2304434 28.7368465 29.952148 218 222 230
12.3648936 27.9516439 29.952148 218 222 230
12.2427819 27.6212405 29.952148 218 222 230
12.2941977 27.6739587 29.952148 218 222 230
12.3335293 27.7362147 29.952148 218 222 230
12.3590576 27.8052878 29.952148 218 222 230
12.3696669 27.8781592 29.952148 218 222 230
11.7864367 27.2421531 29.952148 218 222 230
11.4392432 27.1827032 29.952148 218 222 230
11.5106063 27.1645348 29.952148 218 222 230
11.5841874 27.1616008 29.952148 218 222 230
11.6567706 27.1740292 29.952148 218 222 230
11.7251837 27.2012769 29.952148 218 222 230
10.8827712 27.388366 29.952148 218 222 230
10.6576893 27.6593195 29.952148 218 222 230
10.6776366 27.588433 29.952148 218 222 230
10.7118862 27.5232429 29.952148 218 222 230
10.7589411 27.4665982 29.952148 218 222 230
10.8167449 27.4209746 29.952148 218 222 230
10.5232391 28.444522 29.952148 218 222 230
11.2924545 29.0835117 29.952148 218 222 230
7.43378469 20.6514903 0.352246572 218 222 230
7.43378469 20.6514903 15.2800355 218 222 230
7.5779333 21.838661 15.2800355 218 222 230
8.00200174 22.9568375 15.2800355 218 222 230
8.6813447 23.9410357 15.2800355 218 222 230
9.57648123 24.7340575 15.2800355 218 222 230
10.6353893 25.2898153 15.2800355 218 222 230
11.7965289 25.5760105 15.2800355 218 222 230
12.9924189 25.5760105 15.2800355 218 222 230
14.1535585 25.2898153 15.2800355 218 222 230
15.2124665 24.7340575 15.2800355 218 222 230
16.1076031 23.9410357 15.2800355 218 222 230
16.786946 22.9568375 15.2800355 218 222 230
17.2110145 21.838661 15.2800355 218 222 230
17.3551631 20.6514903 15.2800355 218 222 230
17.2110145 19.4643197 15.2800355 218 222 230
16.786946 18.3461431 15.2800355 218 222 230
16.1076031 17.3619449 15.2800355 218 222 230
15.2124665 16.5689231 15.2800355 218 222 230
14.1535585 16.0131653 15.2800355 218 222 230
12.9924189 15.7269701 15.2800355 218 222 230
11.7965289 15.7269701 15.2800355 218 222 230
10.6353893 16.0131653 15.2800355 218 222 230
9.57648123 16.5689231 15.2800355 218 222 230
8.6813447 17.3619449 15.2800355 218 222 230
8.00200174 18.3461431 15.2800355 218 222 230
7.5779333 19.4643197 15.2800355 218 222 230
7.43378469 20.6514903 15.2800355 218 222 230
7.43378469 20.6514903 0.352246572 218 222 230
7.5779333 21.838661 0.352246572 218 222 230
8.00200174 22.9568375 0.352246572 218 222 230
8.6813447 23.9410357 0.352246572 218 222 230
9.57648123 24.7340575 0.352246572 218 222 230
10.6353893 25.2898153 0.352246572 218 222 230
11.7965289 25.5760105 0.352246572 218 222 230
12.9924189 25.5760105 0.352246572 218 222 230
14.1535585 25.2898153 0.352246572 218 222 230
15.2124665 24.7340575 0.352246572 218 222 230
16.1076031 23.9410357 0.352246572 218 222 230
16.786946 22.9568375 0.352246572 218 222 230
17.2110145 21.838661 0.352246572 218 222 230
17.3551631 20.6514903 0.352246572 218 222 230
17.2110145 19.4643197 0.352246572 218 222 230
16.786946 18.3461431 0.352246572 218 222 230
16.1076031 17.3619449 0.352246572 218 222 230
15.2124665 16.5689231 0.352246572 218 222 230
14.1535585 16.0131653 0.352246572 218 222 230
12.9924189 15.7269701 0.352246572 218 222 230
11.7965289 15.7269701 0.352246572 218 222 230
10.6353893 16.0131653 0.352246572 218 222 230
9.57648123 16.5689231 0.352246572 218 222 230
8.6813447 17.3619449 0.352246572 218 222 230
8.00200174 18.3461431 0.352246572 218 222 230
7.5779333 19.4643197 0.352246572 218 222 230
7.78603126 20.6514903 15.632282 255 79 163
7.91994423 21.7543628 15.632282 255 79 163
8.31390059 22.7931404 15.632282 255 79 163
8.94500505 23.707453 15.632282 255 79 163
9.77658009 24.4441642 15.632282 255 79 163
10.7602976 24.960459 15.632282 255 79 163
11.8389875 25.2263322 15.632282 255 79 163
12.9499603 25.2263322 15.632282 255 79 163
14.0286502 24.960459 15.632282 255 79 163
15.0123677 24.4441642 15.632282 255 79 163
15.8439427 23.707453 15.632282 255 79 163
16.4750472 22.7931404 15.632282 255 79 163
16.8690035 21.7543628 15.632282 255 79 163
17.0029165 20.6514903 15.632282 255 79 163
16.8690035 19.5486178 15.632282 255 79 163
16.4750472 18.5098402 15.632282 255 79 163
15.8439427 17.5955276 15.632282 255 79 163
15.0123677 16.8588164 15.632282 255 79 163
14.0286502 16.3425216 15.632282 255 79 163
12.9499603 16.0766484 15.632282 255 79 163
11.8389875 16.0766484 15.632282 255 79 163
10.7602976 16.3425216 15.632282 255 79 163
9.77658009 16.8588164 15.632282 255 79 163
8.94500505 17.5955276 15.632282 255 79 163
8.31390059 18.5098402 15.632282 255 79 163
7.91994423 19.5486178 15.632282 255 79 163
7.78603126 20.6514903 15.632282 255 79 163
7.43378469 20.6514903 15.2800355 255 79 163
7.44261624 20.6514903 15.3584177 255 79 163
7.46866806 20.6514903 15.4328695 255 79 163
7.5106338 20.6514903 15.4996576 255 79 163
7.56640911 20.6514903 15.5554329 255 79 163
7.6331972 20.6514903 15.5973987 255 79 163
7.70764902 20.6514903 15.6234505 255 79 163
7.43378469 20.6514903 15.2800355 255 79 163
7.5779333 21.838661 15.2800355 255 79 163
8.00200174 22.9568375 15.2800355 255 79 163
8.6813447 23.9410357 15.2800355 255 79 163
9.57648123 24.7340575 15.2800355 255 79 163
10.6353893 25.2898153 15.2800355 255 79 163
11.7965289 25.5760105 15.2800355 255 79 163
12.9924189 25.5760105 15.2800355 255 79 163
14.1535585 25.2898153 15.2800355 255 79 163
15.2124665 24.7340575 15.2800355 255 79 163
16.1076031 23.9410357 15.2800355 255 79 163
16.786946 22.9568375 15.2800355 255 79 163
17.2110145 21.838661 15.2800355 255 79 163
17.3551631 20.6514903 15.2800355 255 79 163
17.2110145 19.4643197 15.2800355 255 79 163
16.786946 18.3461431 15.2800355 255 79 163
16.1076031 17.3619449 15.2800355 255 79 163
15.2124665 16.5689231 15.2800355 255 79 163
14.1535585 16.0131653 15.2800355 255 79 163
12.9924189 15.7269701 15.2800355 255 79 163
11.7965289 15.7269701 15.2800355 255 79 163
10.6353893 16.0131653 15.2800355 255 79 163
9.57648123 16.5689231 15.2800355 255 79 163
8.6813447 17.3619449 15.2800355 255 79 163
8.00200174 18.3461431 15.2800355 255 79 163
7.5779333 19.4643197 15.2800355 255 79 163
7.44261624 20.6514903 15.3584177 255 79 163
7.46866806 20.6514903 15.4328695 255 79 163
7.5106338 20.6514903 15.4996576 255 79 163
7.56640911 20.6514903 15.5554329 255 79 163
7.6331972 20.6514903 15.5973987 255 79 163
7.70764902 20.6514903 15.6234505 255 79 163
7.58650823 19.4664332 15.3584177 255 79 163
7.61180303 19.4726678 15.4328695 255 79 163
7.65254932 19.4827109 15.4996576 255 79 163
7.7067039 19.4960588 15.5554329 255 79 163
7.77155125 19.5120422 15.5973987 255 79 163
7.84383964 19.5298597 15.6234505 255 79 163
8.0098217 18.3502473 15.3584177 255 79 163
8.03288944 18.3623542 15.4328695 255 79 163
8.07004825 18.3818567 15.4996576 255 79 163
8.11943484 18.4077767 15.5554329 255 79 163
8.17857275 18.4388147 15.5973987 255 79 163
8.24449657 18.4734142 15.6234505 255 79 163
8.68795522 17.3678013 15.3584177 255 79 163
8.70745528 17.3850769 15.4328695 255 79 163
8.73886709 17.4129053 15.4996576 255 79 163
8.78061551 17.4498912 15.5554329 255 79 163
8.83060711 17.4941799 15.5973987 255 79 163
8.8863351 17.5435506 15.6234505 255 79 163
9.58149813 16.5761914 15.3584177 255 79 163
9.59629725 16.5976316 15.4328695 255 79 163
9.6201365 16.6321687 15.4996576 255 79 163
9.65182049 16.6780709 15.5554329 255 79 163
9.68976045 16.7330364 15.5973987 255 79 163
9.73205391 16.7943091 15.6234505 255 79 163
10.638521 16.021423 15.3584177 255 79 163
10.6477591 16.0457819 15.4328695 255 79 163
10.6626403 16.0850205 15.4996576 255 79 163
10.6824185 16.1371713 15.5554329 255 79 163
10.7061019 16.1996193 15.5973987 255 79 163
10.7325029 16.2692329 15.6234505 255 79 163
11.7975934 15.7357373 15.3584177 255 79 163
11.8007336 15.7615992 15.4328695 255 79 163
11.805792 15.8032589 15.4996576 255 79 163
11.812515 15.8586276 15.5554329 255 79 163
11.8205654 15.9249287 15.5973987 255 79 163
11.8295396 15.9988377 15.6234505 255 79 163
12.9913544 15.7357373 15.3584177 255 79 163
12.9882142 15.7615992 15.4328695 255 79 163
12.9831558 15.8032589 15.4996576 255 79 163
12.9764328 15.8586276 15.5554329 255 79 163
12.9683824 15.9249287 15.5973987 255 79 163
12.9594082 15.9988377 15.6234505 255 79 163
14.1504268 16.021423 15.3584177 255 79 163
14.1411887 16.0457819 15.4328695 255 79 163
14.1263074 16.0850205 15.4996576 255 79 163
14.1065292 16.1371713 15.5554329 255 79 163
14.0828459 16.1996193 15.5973987 255 79 163
14.0564449 16.2692329 15.6234505 255 79 163
15.2074496 16.5761914 15.3584177 255 79 163
15.1926505 16.5976316 15.4328695 255 79 163
15.1688113 16.6321687 15.4996576 255 79 163
15.1371273 16.6780709 15.5554329 255 79 163
15.0991873 16.7330364 15.5973987 255 79 163
15.0568939 16.7943091 15.6234505 255 79 163
16.1009926 17.3678013 15.3584177 255 79 163
16.0814925 17.3850769 15.4328695 255 79 163
16.0500807 17.4129053 15.4996576 255 79 163
16.0083323 17.4498912 15.5554329 255 79 163
15.9583407 17.4941799 15.5973987 255 79 163
15.9026127 17.5435506 15.6234505 255 79 163
16.7791261 18.3502473 15.3584177 255 79 163
16.7560583 18.3623542 15.4328695 255 79 163
16.7188995 18.3818567 15.4996576 255 79 163
16.6695129 18.4077767 15.5554329 255 79 163
16.610375 18.4388147 15.5973987 255 79 163
16.5444512 18.4734142 15.6234505 255 79 163
17.2024395 19.4664332 15.3584177 255 79 163
17.1771447 19.4726678 15.4328695 255 79 163
17.1363985 19.4827109 15.4996576 255 79 163
17.0822439 19.4960588 15.5554329 255 79 163
17.0173965 19.5120422 15.5973987 255 79 163
16.9451081 19.5298597 15.6234505 255 79 163
17.3463315 20.6514903 15.3584177 255 79 163
17.3202797 20.6514903 15.4328695 255 79 163
17.278314 20.6514903 15.4996576 255 79 163
17.2225387 20.6514903 15.5554329 255 79 163
17.1557506 20.6514903 15.5973987 255 79 163
17.0812987 20.6514903 15.6234505 255 79 163
17.2024395 21.8365474 15.3584177 255 79 163
17.1771447 21.8303128 15.4328695 255 79 163
17.1363985 21.8202698 15.4996576 255 79 163
17.0822439 21.8069218 15.5554329 255 79 163
17.0173965 21.7909384 15.5973987 255 79 163
16.9451081 21.7731209 15.6234505 255 79 163
16.7791261 22.9527333 15.3584177 255 79 163
16.7560583 22.9406264 15.4328695 255 79 163
16.7188995 22.921124 15.4996576 255 79 163
16.6695129 22.8952039 15.5554329 255 79 163
16.610375 22.8641659 15.5973987 255 79 163
16.5444512 22.8295664 15.6234505 255 79 163
16.1009926 23.9351793 15.3584177 255 79 163
16.0814925 23.9179038 15.4328695 255 79 163
16.0500807 23.8900753 15.4996576 255 79 163
16.0083323 23.8530895 15.5554329 255 79 163
15.9583407 23.8088008 15.5973987 255 79 163
15.9026127 23.7594301 15.6234505 255 79 163
15.2074496 24.7267893 15.3584177 255 79 163
15.1926505 24.705349 15.4328695 255 79 163
15.1688113 24.6708119 15.4996576 255 79 163
15.1371273 24.6249097 15.5554329 255 79 163
15.0991873 24.5699442 15.5973987 255 79 163
15.0568939 24.5086716 15.6234505 255 79 163
14.1504268 25.2815576 15.3584177 255 79 163
14.1411887 25.2571988 15.4328695 255 79 163
14.1263074 25.2179601 15.4996576 255 79 163
14.1065292 25.1658093 15.5554329 255 79 163
14.0828459 25.1033614 15.5973987 255 79 163
14.0564449 25.0337477 15.6234505 255 79 163
12.9913544 25.5672433 15.3584177 255 79 163
12.9882142 25.5413815 15.4328695 255 79 163
12.9831558 25.4997217 15.4996576 255 79 163
12.9764328 25.4443531 15.5554329 255 79 163
12.9683824 25.3780519 15.5973987 255 79 163
12.9594082 25.304143 15.6234505 255 79 163
11.7975934 25.5672433 15.3584177 255 79 163
11.8007336 25.5413815 15.4328695 255 79 163
11.805792 25.4997217 15.4996576 255 79 163
11.812515 25.4443531 15.5554329 255 79 163
11.8205654 25.3780519 15.5973987 255 79 163
11.8295396 25.304143 15.6234505 255 79 163
10.638521 25.2815576 15.3584177 255 79 163
10.6477591 25.2571988 15.4328695 255 79 163
10.6626403 25.2179601 15.4996576 255 79 163
10.6824185 25.1658093 15.5554329 255 79 163
10.7061019 25.1033614 15.5973987 255 79 163
10.7325029 25.0337477 15.6234505 255 79 163
9.58149813 24.7267893 15.3584177 255 79 163
9.59629725 24.705349 15.4328695 255 79 163
9.6201365 24.6708119 15.4996576 255 79 163
9.65182049 24.6249097 15.5554329 255 79 163
9.68976045 24.5699442 15.5973987 255 79 163
9.73205391 24.5086716 15.6234505 255 79 163
8.68795522 23.9351793 15.3584177 255 79 163
8.70745528 23.9179038 15.4328695 255 79 163
8.73886709 23.8900753 15.4996576 255 79 163
8.78061551 23.8530895 15.5554329 255 79 163
8.83060711 23.8088008 15.5973987 255 79 163
8.8863351 23.7594301 15.6234505 255 79 163
8.0098217 22.9527333 15.3584177 255 79 163
8.03288944 22.9406264 15.4328695 255 79 163
8.07004825 22.921124 15.4996576 255 79 163
8.11943484 22.8952039 15.5554329 255 79 163
8.17857275 22.8641659 15.5973987 255 79 163
8.24449657 22.8295664 15.6234505 255 79 163
7.58650823 21.8365474 15.3584177 255 79 163
7.61180303 21.8303128 15.4328695 255 79 163
7.65254932 21.8202698 15.4996576 255 79 163
7.7067039 21.8069218 15.5554329 255 79 163
7.77155125 21.7909384 15.5973987 255 79 163
7.84383964 21.7731209 15.6234505 255 79 163
7.78603126 20.6514903 15.632282 218 222 230
7.91994423 21.7543628 15.632282 218 222 230
8.31390059 22.7931404 15.632282 218 222 230
8.94500505 23.707453 15.632282 218 222 230
9.77658009 24.4441642 15.632282 218 222 230
10.7602976 24.960459 15.632282 218 222 230
11.8389875 25.2263322 15.632282 218 222 230
12.9499603 25.2263322 15.632282 218 222 230
14.0286502 24.960459 15.632282 218 222 230
15.0123677 24.4441642 15.632282 218 222 230
15.8439427 23.707453 15.632282 218 222 230
16.4750472 22.7931404 15.632282 218 222 230
16.8690035 21.7543628 15.632282 218 222 230
17.0029165 20.6514903 15.632282 218 222 230
16.8690035 19.5486178 15.632282 218 222 230
16.4750472 18.5098402 15.632282 218 222 230
15.8439427 17.5955276 15.632282 218 222 230
15.0123677 16.8588164 15.632282 218 222 230
14.0286502 16.3425216 15.632282 218 222 230
12.9499603 16.0766484 15.632282 218 222 230
11.8389875 16.0766484 15.632282 218 222 230
10.7602976 16.3425216 15.632282 218 222 230
9.77658009 16.8588164 15.632282 218 222 230
8.94500505 17.5955276 15.632282 218 222 230
8.31390059 18.5098402 15.632282 218 222 230
7.91994423 19.5486178 15.632282 218 222 230
15.9004979 20.6514903 15.632282 218 222 230
15.7986192 21.4905368 15.632282 218 222 230
15.498904 22.2808209 15.632282 218 222 230
15.0187705 22.9764143 15.632282 218 222 230
14.3861225 23.5368915 15.632282 218 222 230
13.6377271 23.9296797 15.632282 218 222 230
12.8170784 24.1319514 15.632282 218 222 230
11.9718694 24.1319514 15.632282 218 222 230
11.1512206 23.9296797 15.632282 218 222 230
10.4028253 23.5368915 15.632282 218 222 230
9.77017724 22.9764143 15.632282 218 222 230
9.29004382 22.2808209 15.632282 218 222 230
8.99032858 21.4905368 15.632282 218 222 230
8.88844989 20.6514903 15.632282 218 222 230
8.99032858 19.8124439 15.632282 218 222 230
9.29004382 19.0221597 15.632282 218 222 230
9.77017724 18.3265664 15.632282 218 222 230
10.4028253 17.7660891 15.632282 218 222 230
11.1512206 17.3733009 15.632282 218 222 230
11.9718694 17.1710292 15.632282 218 222 230
12.8170784 17.1710292 15.632282 218 222 230
13.6377271 17.3733009 15.632282 218 222 230
14.3861225 17.7660891 15.632282 218 222 230
15.0187705 18.3265664 15.632282 218 222 230
15.498904 19.0221597 15.632282 218 222 230
15.7986192 19.8124439 15.632282 218 222 230
15.9004979 20.6514903 0.352246572 218 222 230
15.7986192 21.4905368 0.352246572 218 222 230
15.498904 22.2808209 0.352246572 218 222 230
15.0187705 22.9764143 0.352246572 218 222 230
14.3861225 23.5368915 0.352246572 218 222 230
13.6377271 23.9296797 0.352246572 218 222 230
12.8170784 24.1319514 0.352246572 218 222 230
11.9718694 24.1319514 0.352246572 218 222 230
11.1512206 23.9296797 0.352246572 218 222 230
10.4028253 23.5368915 0.352246572 218 222 230
9.77017724 22.9764143 0.352246572 218 222 230
9.29004382 22.2808209 0.352246572 218 222 230
8.99032858 21.4905368 0.352246572 218 222 230
8.88844989 20.6514903 0.352246572 218 222 230
8.99032858 19.8124439 0.352246572 218 222 230
9.29004382 19.0221597 0.352246572 218 222 230
9.77017724 18.3265664 0.352246572 218 222 230
10.4028253 17.7660891 0.352246572 218 222 230
11.1512206 17.3733009 0.352246572 218 222 230
11.9718694 17.1710292 0.352246572 218 222 230
12.8170784 17.1710292 0.352246572 218 222 230
13.6377271 17.3733009 0.352246572 218 222 230
14.3861225 17.7660891 0.352246572 218 222 230
15.0187705 18.3265664 0.352246572 218 222 230
15.498904 19.0221597 0.352246572 218 222 230
15.7986192 19.8124439 0.352246572 218 222 230
15.9004979 20.6514903 0.352246572 218 222 230
15.9004979 20.6514903 15.632282 218 222 230
15.9004979 20.6514903 15.632282 218 222 230
15.7986192 21.4905368 15.632282 218 222 230
15.498904 22.2808209 15.632282 218 222 230
15.0187705 22.9764143 15.632282 218 222 230
14.3861225 23.5368915 15.632282 218 222 230
13.6377271 23.9296797 15.632282 218 222 230
12.8170784 24.1319514 15.632282 218 222 230
11.9718694 24.1319514 15.632282 218 222 230
11.1512206 23.9296797 15.632282 218 222 230
10.4028253 23.5368915 15.632282 218 222 230
9.77017724 22.9764143 15.632282 218 222 230
9.29004382 22.2808209 15.632282 218 222 230
8.99032858 21.4905368 15.632282 218 222 230
8.88844989 20.6514903 15.632282 218 222 230
8.99032858 19.8124439 15.632282 218 222 230
9.29004382 19.0221597 15.632282 218 222 230
9.77017724 18.3265664 15.632282 218 222 230
10.4028253 17.7660891 15.632282 218 222 230
11.1512206 17.3733009 15.632282 218 222 230
11.9718694 17.1710292 15.632282 218 222 230
12.8170784 17.1710292 15.632282 218 222 230
13.6377271 17.3733009 15.632282 218 222 230
14.3861225 17.7660891 15.632282 218 222 230
15.0187705 18.3265664 15.632282 218 222 230
15.498904 19.0221597 15.632282 218 222 230
15.7986192 19.8124439 15.632282 218 222 230
15.5482513 20.6514903 0 255 79 163
15.4566083 21.4062387 0 255 79 163
15.1870051 22.1171238 0 255 79 163
14.7551102 22.7428316 0 255 79 163
14.1860237 23.2469983 0 255 79 163
13.5128188 23.6003234 0 255 79 163
12.7746197 23.7822732 0 255 79 163
12.014328 23.7822732 0 255 79 163
11.276129 23.6003234 0 255 79 163
10.6029241 23.2469983 0 255 79 163
10.0338376 22.7428316 0 255 79 163
9.60194267 22.1171238 0 255 79 163
9.33233951 21.4062387 0 255 79 163
9.24069647 20.6514903 0 255 79 163
9.33233951 19.896742 0 255 79 163
9.60194267 19.1858569 0 255 79 163
10.0338376 18.5601491 0 255 79 163
10.6029241 18.0559824 0 255 79 163
11.276129 17.7026572 0 255 79 163
12.014328 17.5207075 0 255 79 163
12.7746197 17.5207075 0 255 79 163
13.5128188 17.7026572 0 255 79 163
14.1860237 18.0559824 0 255 79 163
14.7551102 18.5601491 0 255 79 163
15.1870051 19.1858569 0 255 79 163
15.4566083 19.896742 0 255 79 163
15.5482513 20.6514903 0 255 79 163
15.9004979 20.6514903 0.352246572 255 79 163
15.8916663 20.6514903 0.273864336 255 79 163
15.8656145 20.6514903 0.199412512 255 79 163
15.8236488 20.6514903 0.132624427 255 79 163
15.7678734 20.6514903 0.0768491125 255 79 163
15.7010854 20.6514903 0.0348833768 255 79 163
15.6266335 20.6514903 0.00883155699 255 79 163
15.9004979 20.6514903 0.352246572 255 79 163
15.7986192 21.4905368 0.352246572 255 79 163
15.498904 22.2808209 0.352246572 255 79 163
15.0187705 22.9764143 0.352246572 255 79 163
14.3861225 23.5368915 0.352246572 255 79 163
13.6377271 23.9296797 0.352246572 255 79 163
12.8170784 24.1319514 0.352246572 255 79 163
11.9718694 24.1319514 0.352246572 255 79 163
11.1512206 23.9296797 0.352246572 255 79 163
10.4028253 23.5368915 0.352246572 255 79 163
9.77017724 22.9764143 0.352246572 255 79 163
9.29004382 22.2808209 0.352246572 255 79 163
8.99032858 21.4905368 0.352246572 255 79 163
8.88844989 20.6514903 0.352246572 255 79 163
8.99032858 19.8124439 0.352246572 255 79 163
9.29004382 19.0221597 0.352246572 255 79 163
9.77017724 18.3265664 0.352246572 255 79 163
10.4028253 17.7660891 0.352246572 255 79 163
11.1512206 17.3733009 0.352246572 255 79 163
11.9718694 17.1710292 0.352246572 255 79 163
12.8170784 17.1710292 0.352246572 255 79 163
13.6377271 17.3733009 0.352246572 255 79 163
14.3861225 17.7660891 0.352246572 255 79 163
15.0187705 18.3265664 0.352246572 255 79 163
15.498904 19.0221597 0.352246572 255 79 163
15.7986192 19.8124439 0.352246572 255 79 163
15.8916663 20.6514903 0.273864336 255 79 163
15.8656145 20.6514903 0.199412512 255 79 163
15.8236488 20.6514903 0.132624427 255 79 163
15.7678734 20.6514903 0.0768491125 255 79 163
15.7010854 20.6514903 0.0348833768 255 79 163
15.6266335 20.6514903 0.00883155699 255 79 163
15.7900443 19.8145574 0.273864336 255 79 163
15.7647495 19.820792 0.199412512 255 79 163
15.7240032 19.8308351 0.132624427 255 79 163
15.6698486 19.844183 0.0768491125 255 79 163
15.6050012 19.8601664 0.0348833768 255 79 163
15.5327129 19.8779839 0.00883155699 255 79 163
15.491084 19.026264 0.273864336 255 79 163
15.4680163 19.0383708 0.199412512 255 79 163
15.4308574 19.0578733 0.132624427 255 79 163
15.3814709 19.0837934 0.0768491125 255 79 163
15.3223329 19.1148313 0.0348833768 255 79 163
15.2564091 19.1494308 0.00883155699 255 79 163
15.01216 18.3324228 0.273864336 255 79 163
14.9926599 18.3496983 0.199412512 255 79 163
14.9612481 18.3775268 0.132624427 255 79 163
14.9194997 18.4145126 0.0768491125 255 79 163
14.8695081 18.4588013 0.0348833768 255 79 163
14.8137801 18.508172 0.00883155699 255 79 163
14.3811056 17.7733574 0.273864336 255 79 163
14.3663065 17.7947976 0.199412512 255 79 163
14.3424672 17.8293347 0.132624427 255 79 163
14.3107833 17.8752369 0.0768491125 255 79 163
14.2728433 17.9302024 0.0348833768 255 79 163
14.2305498 17.9914751 0.00883155699 255 79 163
13.6345954 17.3815586 0.273864336 255 79 163
13.6253573 17.4059175 0.199412512 255 79 163
13.6104761 17.4451561 0.132624427 255 79 163
13.5906979 17.4973069 0.0768491125 255 79 163
13.5670145 17.5597549 0.0348833768 255 79 163
13.5406135 17.6293685 0.00883155699 255 79 163
12.8160139 17.1797964 0.273864336 255 79 163
12.8128737 17.2056582 0.199412512 255 79 163
12.8078152 17.247318 0.132624427 255 79 163
12.8010923 17.3026866 0.0768491125 255 79 163
12.7930419 17.3689878 0.0348833768 255 79 163
12.7840677 17.4428967 0.00883155699 255 79 163
11.9729339 17.1797964 0.273864336 255 79 163
11.9760741 17.2056582 0.199412512 255 79 163
11.9811325 17.247318 0.132624427 255 79 163
11.9878555 17.3026866 0.0768491125 255 79 163
11.9959059 17.3689878 0.0348833768 255 79 163
12.0048801 17.4428967 0.00883155699 255 79 163
11.1543524 17.3815586 0.273864336 255 79 163
11.1635905 17.4059175 0.199412512 255 79 163
11.1784717 17.4451561 0.132624427 255 79 163
11.1982499 17.4973069 0.0768491125 255 79 163
11.2219333 17.5597549 0.0348833768 255 79 163
11.2483343 17.6293685 0.00883155699 255 79 163
10.4078422 17.7733574 0.273864336 255 79 163
10.4226413 17.7947976 0.199412512 255 79 163
10.4464805 17.8293347 0.132624427 255 79 163
10.4781645 17.8752369 0.0768491125 255 79 163
10.5161045 17.9302024 0.0348833768 255 79 163
10.5583979 17.9914751 0.00883155699 255 79 163
9.77678776 18.3324228 0.273864336 255 79 163
9.79628783 18.3496983 0.199412512 255 79 163
9.82769963 18.3775268 0.132624427 255 79 163
9.86944805 18.4145126 0.0768491125 255 79 163
9.91943965 18.4588013 0.0348833768 255 79 163
9.97516764 18.508172 0.00883155699 255 79 163
9.29786377 19.026264 0.273864336 255 79 163
9.32093151 19.0383708 0.199412512 255 79 163
9.35809033 19.0578733 0.132624427 255 79 163
9.40747691 19.0837934 0.0768491125 255 79 163
9.46661483 19.1148313 0.0348833768 255 79 163
9.53253864 19.1494308 0.00883155699 255 79 163
8.99890351 19.8145574 0.273864336 255 79 163
9.02419831 19.820792 0.199412512 255 79 163
9.0649446 19.8308351 0.132624427 255 79 163
9.11909918 19.844183 0.0768491125 255 79 163
9.18394653 19.8601664 0.0348833768 255 79 163
9.25623491 19.8779839 0.00883155699 255 79 163
8.89728145 20.6514903 0.273864336 255 79 163
8.92333327 20.6514903 0.199412512 255 79 163
8.96529901 20.6514903 0.132624427 255 79 163
9.02107432 20.6514903 0.0768491125 255 79 163
9.08786241 20.6514903 0.0348833768 255 79 163
9.16231423 20.6514903 0.00883155699 255 79 163
8.99890351 21.4884233 0.273864336 255 79 163
9.02419831 21.4821886 0.199412512 255 79 163
9.0649446 21.4721456 0.132624427 255 79 163
9.11909918 21.4587977 0.0768491125 255 79 163
9.18394653 21.4428142 0.0348833768 255 79 163
9.25623491 21.4249968 0.00883155699 255 79 163
9.29786377 22.2767167 0.273864336 255 79 163
9.32093151 22.2646098 0.199412512 255 79 163
9.35809033 22.2451073 0.132624427 255 79 163
9.40747691 22.2191873 0.0768491125 255 79 163
9.46661483 22.1881493 0.0348833768 255 79 163
9.53253864 22.1535498 0.00883155699 255 79 163
9.77678776 22.9705579 0.273864336 255 79 163
9.79628783 22.9532823 0.199412512 255 79 163
9.82769963 22.9254539 0.132624427 255 79 163
9.86944805 22.888468 0.0768491125 255 79 163
9.91943965 22.8441793 0.0348833768 255 79 163
9.97516764 22.7948086 0.00883155699 255 79 163
10.4078422 23.5296233 0.273864336 255 79 163
10.4226413 23.508183 0.199412512 255 79 163
10.4464805 23.4736459 0.132624427 255 79 163
10.4781645 23.4277437 0.0768491125 255 79 163
10.5161045 23.3727782 0.0348833768 255 79 163
10.5583979 23.3115056 0.00883155699 255 79 163
11.1543524 23.9214221 0.273864336 255 79 163
11.1635905 23.8970632 0.199412512 255 79 163
11.1784717 23.8578245 0.132624427 255 79 163
11.1982499 23.8056737 0.0768491125 255 79 163
11.2219333 23.7432258 0.0348833768 255 79 163
11.2483343 23.6736121 0.00883155699 255 79 163
11.9729339 24.1231843 0.273864336 255 79 163
11.9760741 24.0973224 0.199412512 255 79 163
11.9811325 24.0556627 0.132624427 255 79 163
11.9878555 24.000294 0.0768491125 255 79 163
11.9959059 23.9339929 0.0348833768 255 79 163
12.0048801 23.8600839 0.00883155699 255 79 163
12.8160139 24.1231843 0.273864336 255 79 163
12.8128737 24.0973224 0.199412512 255 79 163
12.8078152 24.0556627 0.132624427 255 79 163
12.8010923 24.000294 0.0768491125 255 79 163
12.7930419 23.9339929 0.0348833768 255 79 163
12.7840677 23.8600839 0.00883155699 255 79 163
13.6345954 23.9214221 0.273864336 255 79 163
13.6253573 23.8970632 0.199412512 255 79 163
13.6104761 23.8578245 0.132624427 255 79 163
13.5906979 23.8056737 0.0768491125 255 79 163
13.5670145 23.7432258 0.0348833768 255 79 163
13.5406135 23.6736121 0.00883155699 255 79 163
14.3811056 23.5296233 0.273864336 255 79 163
14.3663065 23.508183 0.199412512 255 79 163
14.3424672 23.4736459 0.132624427 255 79 163
14.3107833 23.4277437 0.0768491125 255 79 163
14.2728433 23.3727782 0.0348833768 255 79 163
14.2305498 23.3115056 0.00883155699 255 79 163
15.01216 22.9705579 0.273864336 255 79 163
14.9926599 22.9532823 0.199412512 255 79 163
14.9612481 22.9254539 0.132624427 255 79 163
14.9194997 22.888468 0.0768491125 255 79 163
14.8695081 22.8441793 0.0348833768 255 79 163
14.8137801 22.7948086 0.00883155699 255 79 163
15.491084 22.2767167 0.273864336 255 79 163
15.4680163 22.2646098 0.199412512 255 79 163
15.4308574 22.2451073 0.132624427 255 79 163
15.3814709 22.2191873 0.0768491125 255 79 163
15.3223329 22.1881493 0.0348833768 255 79 163
15.2564091 22.1535498 0.00883155699 255 79 163
15.7900443 21.4884233 0.273864336 255 79 163
15.7647495 21.4821886 0.199412512 255 79 163
15.7240032 21.4721456 0.132624427 255 79 163
15.6698486 21.4587977 0.0768491125 255 79 163
15.6050012 21.4428142 0.0348833768 255 79 163
15.5327129 21.4249968 0.00883155699 255 79 163
15.5482513 20.6514903 0 218 222 230
15.4566083 21.4062387 0 218 222 230
15.1870051 22.1171238 0 218 222 230
14.7551102 22.7428316 0 218 222 230
14.1860237 23.2469983 0 218 222 230
13.5128188 23.6003234 0 218 222 230
12.7746197 23.7822732 0 218 222 230
12.014328 23.7822732 0 218 222 230
11.276129 23.6003234 0 218 222 230
10.6029241 23.2469983 0 218 222 230
10.0338376 22.7428316 0 218 222 230
9.60194267 22.1171238 0 218 222 230
9.33233951 21.4062387 0 218 222 230
9.24069647 20.6514903 0 218 222 230
9.33233951 19.896742 0 218 222 230
9.60194267 19.1858569 0 218 222 230
10.0338376 18.5601491 0 218 222 230
10.6029241 18.0559824 0 218 222 230
11.276129 17.7026572 0 218 222 230
12.014328 17.5207075 0 218 222 230
12.7746197 17.5207075 0 218 222 230
13.5128188 17.7026572 0 218 222 230
14.1860237 18.0559824 0 218 222 230
14.7551102 18.5601491 0 218 222 230
15.1870051 19.1858569 0 218 222 230
15.4566083 19.896742 0 218 222 230
3 4 2 3
3 1 5 2
3 1 2 4
3 0 6 5
3 0 5 1
3 10 8 7
3 10 9 8
3 28 31 30
3 28 29 31
3 27 18 17
3 27 19 18
3 27 30 19
3 27 28 30
3 26 17 16
3 26 27 17
3 25 16 15
3 25 26 16
3 24 15 14
3 24 25 15
3 23 14 13
3 23 24 14
3 22 13 12
3 22 23 13
3 21 12 11
3 21 22 12
3 20 21 11
3 41 42 43
3 49 43 50
3 48 43 49
3 47 43 48
3 44 40 41
3 44 46 45
3 44 47 46
3 44 41 43
3 44 43 47
3 55 53 33
3 55 54 53
3 78 33 32
3 56 55 33
3 57 56 33
3 52 57 33
3 52 58 57
3 73 78 32
3 74 32 34
3 74 73 32
3 75 74 34
3 76 75 34
3 77 76 34
3 72 34 35
3 72 77 34
3 79 33 78
3 84 33 79
3 84 52 33
3 83 52 84
3 82 52 83
3 81 52 82
3 80 52 81
3 67 35 36
3 67 72 35
3 68 36 37
3 68 67 36
3 69 68 37
3 70 37 38
3 70 69 37
3 60 52 80
3 51 38 39
3 51 39 40
3 51 60 59
3 51 59 61
3 51 61 62
3 51 62 63
3 51 63 64
3 51 64 65
3 51 65 66
3 51 71 70
3 51 66 71
3 51 70 38
3 51 40 44
3 51 52 60
3 92 93 94
3 92 94 95
3 91 95 96
3 91 92 95
3 90 96 97
3 90 91 96
3 89 97 98
3 89 90 97
3 88 98 99
3 88 89 98
3 87 99 100
3 87 100 101
3 87 88 99
3 86 101 85
3 86 87 101
3 109 110 111
3 109 111 117
3 108 117 116
3 108 109 117
3 107 116 115
3 107 108 116
3 106 115 114
3 106 107 115
3 105 114 113
3 105 106 114
3 104 113 112
3 104 105 113
3 103 112 102
3 103 104 112
3 127 119 118
3 128 120 119
3 128 119 127
3 129 121 120
3 129 120 128
3 130 122 121
3 130 121 129
3 131 123 122
3 131 122 130
3 132 124 123
3 132 123 131
3 133 125 124
3 133 124 132
3 126 125 133
3 155 154 146
3 156 146 145
3 156 155 146
3 157 156 145
3 235 138 137
3 235 137 236
3 158 157 145
3 159 158 145
3 237 236 137
3 160 159 145
3 161 160 145
3 162 144 143
3 162 145 144
3 162 161 145
3 234 138 235
3 163 162 143
3 238 237 137
3 233 138 234
3 213 238 137
3 232 139 138
3 232 138 233
3 214 213 137
3 231 140 139
3 231 141 140
3 231 142 141
3 231 139 232
3 147 146 154
3 147 154 165
3 152 153 147
3 150 151 152
3 150 152 147
3 149 150 147
3 148 149 147
3 134 147 165
3 134 148 147
3 230 143 142
3 230 163 143
3 230 142 231
3 229 164 163
3 229 165 164
3 229 163 230
3 228 165 229
3 227 165 228
3 227 134 165
3 184 185 218
3 184 218 217
3 186 218 185
3 183 184 217
3 182 218 186
3 166 183 217
3 226 134 227
3 177 218 182
3 177 219 218
3 178 219 177
3 179 219 178
3 180 219 179
3 181 219 180
3 167 166 217
3 167 217 216
3 176 219 181
3 176 220 219
3 171 220 176
3 172 220 171
3 173 220 172
3 174 220 173
3 174 221 220
3 175 221 174
3 170 221 175
3 169 221 170
3 169 222 221
3 136 214 137
3 136 215 214
3 206 167 216
3 206 215 136
3 206 216 215
3 201 167 206
3 202 167 201
3 203 168 167
3 203 167 202
3 204 168 203
3 205 168 204
3 200 168 205
3 207 206 136
3 212 207 136
3 211 212 136
3 210 211 136
3 209 210 136
3 208 209 136
3 195 169 168
3 195 168 200
3 196 169 195
3 197 169 196
3 198 222 169
3 198 169 197
3 199 222 198
3 194 223 222
3 194 222 199
3 188 208 136
3 135 223 194
3 135 134 226
3 135 187 188
3 135 189 187
3 135 190 189
3 135 191 190
3 135 192 191
3 135 193 192
3 135 194 193
3 135 224 223
3 135 225 224
3 135 226 225
3 135 188 136
3 263 240 239
3 241 240 263
3 248 246 245
3 248 247 246
3 256 268 255
3 257 268 256
3 261 253 260
3 262 253 261
3 254 253 262
3 269 242 241
3 269 243 242
3 269 244 243
3 269 245 244
3 269 249 248
3 269 263 264
3 269 241 263
3 269 248 245
3 270 250 249
3 270 251 250
3 270 264 265
3 270 265 266
3 270 269 264
3 270 249 269
3 271 252 251
3 271 253 252
3 271 257 258
3 271 258 259
3 271 259 260
3 271 266 267
3 271 267 268
3 271 268 257
3 271 251 270
3 271 270 266
3 271 260 253
3 275 272 274
3 273 272 275
3 282 284 283
3 285 284 282
3 279 281 280
3 279 282 281
3 279 286 285
3 279 285 282
3 278 279 280
3 276 280 277
3 276 278 280
3 290 288 289
3 287 288 290
3 298 299 300
3 298 306 305
3 298 300 306
3 297 298 305
3 296 304 303
3 296 305 304
3 296 297 305
3 295 303 302
3 295 296 303
3 294 295 302
3 293 302 301
3 293 294 302
3 292 301 291
3 292 293 301
3 309 311 310
3 314 312 311
3 314 313 312
3 307 315 314
3 307 311 309
3 307 314 311
3 308 315 307
3 317 316 315
3 317 315 308
3 319 320 318
3 319 321 320
3 329 323 322
3 330 323 329
3 331 324 323
3 331 323 330
3 332 325 324
3 332 326 325
3 332 324 331
3 333 326 332
3 328 327 326
3 328 326 333
3 335 336 334
3 335 337 336
3 339 340 338
3 339 341 340
3 347 349 348
3 347 353 349
3 346 352 353
3 346 353 347
3 345 351 352
3 345 352 346
3 344 350 351
3 344 351 345
3 343 342 350
3 343 350 344
3 360 365 361
3 359 365 360
3 358 364 365
3 358 365 359
3 357 362 363
3 357 363 364
3 357 364 358
3 356 362 357
3 355 354 362
3 355 362 356
3 367 368 366
3 367 369 368
3 371 372 370
3 371 373 372
3 375 376 374
3 375 377 376
3 383 385 384
3 383 389 385
3 382 387 388
3 382 388 389
3 382 389 383
3 381 386 387
3 381 387 382
3 380 386 381
3 379 378 386
3 379 386 380
3 396 397 404
3 390 391 411
3 412 400 399
3 413 399 398
3 413 412 399
3 414 398 405
3 414 413 398
3 415 401 400
3 415 412 413
3 415 400 412
3 416 405 406
3 416 414 405
3 417 413 414
3 417 415 413
3 418 402 401
3 418 403 402
3 418 401 415
3 419 406 407
3 419 416 406
3 420 417 414
3 420 414 416
3 421 415 417
3 421 418 415
3 422 407 408
3 422 420 416
3 422 419 407
3 422 416 419
3 423 417 420
3 423 421 417
3 424 395 396
3 424 404 403
3 424 403 418
3 424 418 421
3 424 396 404
3 425 420 422
3 425 423 420
3 426 394 395
3 426 395 424
3 426 421 423
3 426 424 421
3 427 408 409
3 427 409 410
3 427 422 408
3 427 425 422
3 428 392 393
3 428 393 394
3 428 394 426
3 428 423 425
3 428 426 423
3 429 391 392
3 429 410 411
3 429 411 391
3 429 392 428
3 429 427 410
3 429 425 427
3 429 428 425
3 436 437 438
3 436 445 444
3 436 438 445
3 435 444 443
3 435 436 444
3 434 443 442
3 434 435 443
3 433 442 441
3 433 434 442
3 432 441 440
3 432 433 441
3 431 440 439
3 431 432 440
3 430 431 439
3 454 455 462
3 453 461 460
3 453 462 461
3 453 454 462
3 452 460 459
3 452 453 460
3 451 459 458
3 451 452 459
3 450 458 457
3 450 451 458
3 449 457 456
3 449 450 457
3 448 456 446
3 448 449 456
3 447 448 446
3 464 465 463
3 464 466 465
3 476 478 477
3 476 486 478
3 475 485 486
3 475 486 476
3 474 483 484
3 474 484 485
3 474 485 475
3 473 483 474
3 472 481 482
3 472 482 483
3 472 483 473
3 471 481 472
3 470 479 480
3 470 480 481
3 470 481 471
3 469 479 470
3 468 467 479
3 468 479 469
3 490 488 487
3 490 489 488
3 492 493 491
3 492 494 493
3 495 498 497
3 496 498 495
3 507 500 499
3 507 501 500
3 507 499 506
3 508 501 507
3 509 502 501
3 509 501 508
3 510 503 502
3 510 504 503
3 510 502 509
3 505 504 510
3 511 513 512
3 514 513 511
3 516 517 515
3 516 518 517
3 522 520 519
3 522 521 520
3 531 524 523
3 531 523 530
3 532 525 524
3 532 524 531
3 533 526 525
3 533 527 526
3 533 525 532
3 534 528 527
3 534 527 533
3 529 528 534
3 535 538 537
3 536 538 535
3 540 541 539
3 540 542 541
3 550 544 543
3 551 545 544
3 551 544 550
3 552 545 551
3 553 546 545
3 553 547 546
3 553 545 552
3 554 548 547
3 554 547 553
3 549 548 554
3 621 556 555
3 621 555 563
3 622 557 556
3 622 556 621
3 623 558 557
3 623 557 622
3 624 559 558
3 624 558 623
3 625 560 559
3 625 559 624
3 626 561 560
3 626 562 561
3 626 596 562
3 626 560 625
3 627 563 564
3 627 621 563
3 628 622 621
3 628 621 627
3 629 623 622
3 629 622 628
3 630 623 629
3 630 624 623
3 631 624 630
3 631 625 624
3 632 596 626
3 632 626 625
3 632 597 596
3 632 625 631
3 633 564 565
3 633 627 564
3 634 628 627
3 634 627 633
3 635 629 628
3 635 628 634
3 636 631 630
3 636 629 635
3 636 630 629
3 637 631 636
3 638 598 597
3 638 632 631
3 638 597 632
3 638 631 637
3 639 565 566
3 639 566 567
3 639 633 565
3 640 634 633
3 640 633 639
3 641 635 634
3 641 634 640
3 642 637 636
3 642 636 635
3 642 635 641
3 643 637 642
3 644 638 637
3 644 637 643
3 644 599 598
3 644 598 638
3 645 639 567
3 646 639 645
3 646 640 639
3 647 640 646
3 647 641 640
3 648 641 647
3 648 642 641
3 649 644 643
3 649 642 648
3 649 643 642
3 650 644 649
3 650 599 644
3 650 600 599
3 651 646 645
3 651 567 568
3 651 645 567
3 652 646 651
3 653 646 652
3 653 648 647
3 653 647 646
3 654 648 653
3 655 649 648
3 655 648 654
3 656 600 650
3 656 649 655
3 656 601 600
3 656 650 649
3 657 568 569
3 657 651 568
3 658 651 657
3 658 652 651
3 659 653 652
3 659 652 658
3 660 653 659
3 660 654 653
3 661 655 654
3 661 654 660
3 662 656 655
3 662 601 656
3 662 602 601
3 662 655 661
3 663 657 569
3 663 569 570
3 664 657 663
3 664 658 657
3 665 658 664
3 665 659 658
3 666 660 659
3 666 659 665
3 667 661 660
3 667 660 666
3 668 603 602
3 668 602 662
3 668 662 661
3 668 661 667
3 669 570 571
3 669 663 570
3 669 664 663
3 670 664 669
3 671 665 664
3 671 664 670
3 672 666 665
3 672 665 671
3 673 666 672
3 673 667 666
3 673 668 667
3 674 604 603
3 674 603 668
3 674 668 673
3 675 571 572
3 675 669 571
3 676 670 669
3 676 669 675
3 677 671 670
3 677 672 671
3 677 670 676
3 678 672 677
3 679 673 672
3 679 672 678
3 680 605 604
3 680 604 674
3 680 674 673
3 680 673 679
3 681 572 573
3 681 675 572
3 682 675 681
3 682 676 675
3 682 677 676
3 683 677 682
3 684 677 683
3 684 678 677
3 685 679 678
3 685 678 684
3 686 680 679
3 686 679 685
3 686 606 605
3 686 605 680
3 687 682 681
3 687 573 574
3 687 574 575
3 687 681 573
3 688 682 687
3 689 683 682
3 689 682 688
3 690 684 683
3 690 683 689
3 690 685 684
3 691 685 690
3 692 606 686
3 692 685 691
3 692 607 606
3 692 686 685
3 693 687 575
3 693 688 687
3 694 688 693
3 695 689 688
3 695 688 694
3 696 690 689
3 696 691 690
3 696 689 695
3 697 691 696
3 698 692 691
3 698 607 692
3 698 608 607
3 698 609 608
3 698 691 697
3 699 575 576
3 699 576 577
3 699 693 575
3 700 693 699
3 700 694 693
3 701 695 694
3 701 696 695
3 701 694 700
3 702 696 701
3 703 696 702
3 703 697 696
3 704 698 697
3 704 609 698
3 704 697 703
3 705 699 577
3 706 700 699
3 706 699 705
3 707 701 700
3 707 700 706
3 708 701 707
3 708 702 701
3 709 703 702
3 709 702 708
3 710 610 609
3 710 703 709
3 710 609 704
3 710 704 703
3 711 577 578
3 711 705 577
3 712 705 711
3 712 706 705
3 713 708 707
3 713 707 706
3 713 706 712
3 714 708 713
3 715 708 714
3 715 709 708
3 716 709 715
3 716 611 610
3 716 610 710
3 716 710 709
3 717 578 579
3 717 711 578
3 718 711 717
3 718 712 711
3 719 712 718
3 719 714 713
3 719 713 712
3 720 714 719
3 721 715 714
3 721 714 720
3 722 716 715
3 722 611 716
3 722 612 611
3 722 715 721
3 723 718 717
3 723 579 580
3 723 717 579
3 724 718 723
3 725 718 724
3 725 719 718
3 726 720 719
3 726 719 725
3 727 721 720
3 727 720 726
3 728 722 721
3 728 612 722
3 728 721 727
3 728 613 612
3 728 614 613
3 729 580 581
3 729 723 580
3 730 724 723
3 730 723 729
3 731 725 724
3 731 726 725
3 731 724 730
3 732 726 731
3 733 727 726
3 733 726 732
3 734 728 727
3 734 614 728
3 734 727 733
3 735 581 582
3 735 729 581
3 736 731 730
3 736 729 735
3 736 730 729
3 737 731 736
3 738 732 731
3 738 733 732
3 738 731 737
3 739 733 738
3 739 734 733
3 740 615 614
3 740 614 734
3 740 734 739
3 741 582 583
3 741 735 582
3 742 735 741
3 742 736 735
3 743 737 736
3 743 738 737
3 743 736 742
3 744 739 738
3 744 738 743
3 745 739 744
3 746 616 615
3 746 615 740
3 746 740 739
3 746 739 745
3 747 583 584
3 747 741 583
3 748 741 747
3 748 742 741
3 749 743 742
3 749 742 748
3 750 743 749
3 750 744 743
3 751 744 750
3 751 745 744
3 752 746 745
3 752 745 751
3 752 617 616
3 752 618 617
3 752 616 746
3 753 584 585
3 753 585 586
3 753 747 584
3 754 747 753
3 754 748 747
3 755 748 754
3 755 749 748
3 756 751 750
3 756 750 749
3 756 749 755
3 757 751 756
3 758 618 752
3 758 751 757
3 758 752 751
3 759 753 586
3 760 754 753
3 760 753 759
3 761 755 754
3 761 754 760
3 762 756 755
3 762 755 761
3 763 757 756
3 763 756 762
3 764 757 763
3 764 758 757
3 764 619 618
3 764 618 758
3 765 586 587
3 765 587 588
3 765 588 589
3 765 759 586
3 766 760 759
3 766 589 590
3 766 590 591
3 766 761 760
3 766 759 765
3 766 765 589
3 767 762 761
3 767 761 766
3 767 766 591
3 768 591 592
3 768 592 593
3 768 762 767
3 768 767 591
3 769 764 763
3 769 763 762
3 769 768 593
3 769 762 768
3 770 593 594
3 770 594 595
3 770 619 764
3 770 620 619
3 770 769 593
3 770 595 620
3 770 764 769
3 774 772 773
3 771 772 774
3 776 774 775
3 777 782 771
3 777 771 774
3 777 774 776
3 780 781 782
3 779 777 778
3 779 780 782
3 779 782 777
3 787 786 785
3 788 787 785
3 789 788 785
3 784 789 785
3 791 785 790
3 791 793 792
3 791 794 793
3 791 795 794
3 791 790 795
3 797 791 796
3 797 799 798
3 797 800 799
3 797 801 800
3 797 796 801
3 797 784 785
3 797 785 791
3 803 783 784
3 803 784 797
3 802 803 797
3 804 806 805
3 833 806 804
3 834 807 806
3 834 806 833
3 835 808 807
3 835 807 834
3 836 809 808
3 836 808 835
3 837 810 809
3 837 811 810
3 837 809 836
3 838 811 837
3 839 812 811
3 839 811 838
3 840 813 812
3 840 812 839
3 841 814 813
3 841 813 840
3 842 815 814
3 842 814 841
3 843 815 842
3 843 816 815
3 843 817 816
3 844 817 843
3 845 817 844
3 845 818 817
3 845 819 818
3 846 819 845
3 847 820 819
3 847 819 846
3 848 821 820
3 848 820 847
3 849 822 821
3 849 821 848
3 850 823 822
3 850 822 849
3 851 824 823
3 851 823 850
3 852 825 824
3 852 826 825
3 852 824 851
3 853 827 826
3 853 826 852
3 854 828 827
3 854 827 853
3 855 828 854
3 856 829 828
3 856 830 829
3 856 828 855
3 857 830 856
3 832 831 830
3 832 830 857
3 918 892 893
3 924 885 886
3 924 917 885
3 925 886 887
3 925 924 886
3 926 887 888
3 926 925 887
3 927 888 889
3 927 926 888
3 928 889 890
3 928 927 889
3 929 884 883
3 929 890 891
3 929 891 884
3 929 928 890
3 930 917 924
3 930 916 917
3 931 930 924
3 931 924 925
3 932 925 926
3 932 931 925
3 933 932 926
3 933 926 927
3 934 927 928
3 934 933 927
3 935 928 929
3 935 883 882
3 935 929 883
3 935 934 928
3 936 915 916
3 936 916 930
3 937 936 930
3 937 930 931
3 938 937 931
3 938 931 932
3 939 932 933
3 939 938 932
3 940 933 934
3 940 939 933
3 941 882 881
3 941 935 882
3 941 940 934
3 941 934 935
3 942 914 915
3 942 915 936
3 942 936 937
3 943 942 937
3 944 937 938
3 944 943 937
3 944 938 939
3 945 944 939
3 946 939 940
3 946 945 939
3 947 880 879
3 947 881 880
3 947 940 941
3 947 946 940
3 947 941 881
3 948 914 942
3 948 913 914
3 949 948 942
3 949 942 943
3 950 949 943
3 950 943 944
3 951 950 944
3 951 944 945
3 952 951 945
3 952 945 946
3 952 946 947
3 953 952 947
3 953 947 879
3 954 913 948
3 954 912 913
3 955 948 949
3 955 954 948
3 956 949 950
3 956 955 949
3 956 950 951
3 957 956 951
3 958 957 951
3 958 951 952
3 959 952 953
3 959 953 879
3 959 879 878
3 959 958 952
3 960 912 954
3 960 911 912
3 961 960 954
3 961 954 955
3 962 955 956
3 962 961 955
3 963 956 957
3 963 962 956
3 964 957 958
3 964 963 957
3 965 878 877
3 965 959 878
3 965 958 959
3 965 964 958
3 966 911 960
3 966 909 910
3 966 910 911
3 967 960 961
3 967 966 960
3 968 961 962
3 968 967 961
3 969 968 962
3 969 962 963
3 970 963 964
3 970 964 965
3 970 969 963
3 971 877 876
3 971 965 877
3 971 970 965
3 972 909 966
3 972 908 909
3 973 966 967
3 973 972 966
3 974 973 967
3 974 967 968
3 974 968 969
3 975 974 969
3 976 969 970
3 976 970 971
3 976 975 969
3 977 876 875
3 977 971 876
3 977 976 971
3 978 908 972
3 979 978 972
3 979 972 973
3 980 973 974
3 980 979 973
3 981 974 975
3 981 980 974
3 982 975 976
3 982 981 975
3 983 982 976
3 983 875 874
3 983 977 875
3 983 976 977
3 984 908 978
3 984 907 908
3 985 978 979
3 985 984 978
3 985 979 980
3 986 985 980
3 987 986 980
3 987 980 981
3 988 981 982
3 988 987 981
3 989 982 983
3 989 983 874
3 989 988 982
3 989 874 873
3 990 907 984
3 990 906 907
3 991 990 984
3 991 984 985
3 992 985 986
3 992 991 985
3 993 986 987
3 993 992 986
3 994 987 988
3 994 993 987
3 995 873 872
3 995 994 988
3 995 988 989
3 995 989 873
3 996 906 990
3 996 904 905
3 996 905 906
3 997 990 991
3 997 996 990
3 997 991 992
3 998 997 992
3 999 992 993
3 999 993 994
3 999 998 992
3 1000 999 994
3 1001 872 871
3 1001 995 872
3 1001 994 995
3 1001 1000 994
3 1002 904 996
3 1003 996 997
3 1003 1002 996
3 1004 997 998
3 1004 1003 997
3 1005 1004 998
3 1005 998 999
3 1005 999 1000
3 1006 1000 1001
3 1006 1005 1000
3 1007 871 870
3 1007 1001 871
3 1007 1006 1001
3 1008 903 904
3 1008 1002 1003
3 1008 904 1002
3 1009 1003 1004
3 1009 1008 1003
3 1010 1009 1004
3 1011 1004 1005
3 1011 1010 1004
3 1012 1011 1005
3 1012 1005 1006
3 1013 869 868
3 1013 870 869
3 1013 1007 870
3 1013 1006 1007
3 1013 1012 1006
3 1014 902 903
3 1014 903 1008
3 1015 1014 1008
3 1015 1008 1009
3 1016 1015 1009
3 1016 1009 1010
3 1017 1016 1010
3 1017 1010 1011
3 1018 1017 1011
3 1018 1011 1012
3 1019 1018 1012
3 1019 1013 868
3 1019 1012 1013
3 1020 901 902
3 1020 902 1014
3 1021 1020 1014
3 1021 1014 1015
3 1022 1021 1015
3 1022 1015 1016
3 1023 1016 1017
3 1023 1022 1016
3 1024 1017 1018
3 1024 1023 1017
3 1025 1019 868
3 1025 868 867
3 1025 1018 1019
3 1025 1024 1018
3 1026 899 900
3 1026 900 901
3 1026 901 1020
3 1027 1020 1021
3 1027 1021 1022
3 1027 1026 1020
3 1028 1027 1022
3 1029 1022 1023
3 1029 1023 1024
3 1029 1028 1022
3 1030 1029 1024
3 1031 867 866
3 1031 1025 867
3 1031 1024 1025
3 1031 1030 1024
3 1032 899 1026
3 1032 1026 1027
3 1032 898 899
3 1033 1032 1027
3 1034 1033 1027
3 1034 1027 1028
3 1035 1028 1029
3 1035 1034 1028
3 1036 1035 1029
3 1036 1029 1030
3 1037 865 864
3 1037 866 865
3 1037 1031 866
3 1037 1030 1031
3 1037 1036 1030
3 1038 897 898
3 1038 898 1032
3 1038 1032 1033
3 1039 1033 1034
3 1039 1038 1033
3 1040 1039 1034
3 1040 1034 1035
3 1041 1040 1035
3 1042 1035 1036
3 1042 1041 1035
3 1043 864 863
3 1043 1042 1036
3 1043 1037 864
3 1043 1036 1037
3 1044 897 1038
3 1045 1039 1040
3 1045 1038 1039
3 1045 1044 1038
3 1046 1045 1040
3 1047 1040 1041
3 1047 1046 1040
3 1048 1047 1041
3 1048 1041 1042
3 1048 1042 1043
3 1049 863 862
3 1049 1043 863
3 1049 1048 1043
3 1050 896 897
3 1050 897 1044
3 1051 1050 1044
3 1051 1044 1045
3 1051 1045 1046
3 1052 1051 1046
3 1053 1052 1046
3 1053 1046 1047
3 1053 1047 1048
3 1054 1053 1048
3 1055 1048 1049
3 1055 1054 1048
3 1055 1049 862
3 1056 1050 1051
3 1056 894 895
3 1056 895 896
3 1056 896 1050
3 1057 1056 1051
3 1058 1057 1051
3 1058 1051 1052
3 1059 1052 1053
3 1059 1058 1052
3 1060 1059 1053
3 1060 1053 1054
3 1061 862 861
3 1061 1055 862
3 1061 1054 1055
3 1061 1060 1054
3 1062 894 1056
3 1063 1056 1057
3 1063 1057 1058
3 1063 1062 1056
3 1064 1063 1058
3 1065 1058 1059
3 1065 1064 1058
3 1065 1059 1060
3 1066 1065 1060
3 1067 861 860
3 1067 1061 861
3 1067 1060 1061
3 1067 1066 1060
3 1068 893 894
3 1068 894 1062
3 1068 918 893
3 1069 1062 1063
3 1069 1068 1062
3 1069 1063 1064
3 1069 919 918
3 1069 920 919
3 1069 918 1068
3 1070 920 1069
3 1070 1069 1064
3 1071 1064 1065
3 1071 1070 1064
3 1071 921 920
3 1071 922 921
3 1071 920 1070
3 1072 1065 1066
3 1072 1071 1065
3 1072 923 922
3 1072 922 1071
3 1073 859 858
3 1073 860 859
3 1073 1067 860
3 1073 1066 1067
3 1073 1072 1066
3 1073 858 923
3 1073 923 1072
3 1123 1090 1091
3 1122 1091 1092
3 1122 1123 1091
3 1124 1089 1090
3 1124 1090 1123
3 1121 1092 1093
3 1121 1122 1092
3 1125 1088 1089
3 1125 1089 1124
3 1120 1093 1094
3 1120 1121 1093
3 1100 1087 1088
3 1100 1088 1125
3 1119 1120 1094
3 1095 1119 1094
3 1101 1086 1087
3 1101 1087 1100
3 1118 1119 1095
3 1102 1085 1086
3 1102 1086 1101
3 1096 1118 1095
3 1117 1118 1096
3 1103 1084 1085
3 1103 1085 1102
3 1097 1116 1117
3 1097 1117 1096
3 1083 1103 1104
3 1083 1084 1103
3 1098 1116 1097
3 1098 1115 1116
3 1105 1083 1104
3 1082 1083 1105
3 1106 1082 1105
3 1099 1115 1098
3 1099 1114 1115
3 1081 1082 1106
3 1074 1114 1099
3 1074 1113 1114
3 1080 1106 1107
3 1080 1081 1106
3 1075 1112 1113
3 1075 1113 1074
3 1079 1107 1108
3 1079 1080 1107
3 1076 1112 1075
3 1076 1110 1111
3 1076 1111 1112
3 1078 1108 1109
3 1078 1109 1110
3 1078 1079 1108
3 1077 1110 1076
3 1077 1078 1110
3 1151 1152 1153
3 1151 1179 1178
3 1151 1153 1179
3 1150 1151 1178
3 1149 1177 1176
3 1149 1178 1177
3 1149 1150 1178
3 1148 1149 1176
3 1147 1176 1175
3 1147 1148 1176
3 1146 1175 1174
3 1146 1147 1175
3 1145 1173 1172
3 1145 1174 1173
3 1145 1146 1174
3 1144 1145 1172
3 1143 1172 1171
3 1143 1144 1172
3 1142 1171 1170
3 1142 1143 1171
3 1141 1142 1170
3 1141 1169 1168
3 1141 1170 1169
3 1140 1141 1168
3 1139 1140 1168
3 1139 1168 1167
3 1138 1139 1167
3 1138 1167 1166
3 1137 1138 1166
3 1137 1166 1165
3 1136 1137 1165
3 1136 1164 1163
3 1136 1165 1164
3 1135 1136 1163
3 1134 1135 1163
3 1134 1163 1162
3 1133 1162 1161
3 1133 1134 1162
3 1132 1161 1160
3 1132 1133 1161
3 1131 1159 1158
3 1131 1160 1159
3 1131 1132 1160
3 1130 1131 1158
3 1129 1158 1157
3 1129 1130 1158
3 1128 1157 1156
3 1128 1129 1157
3 1127 1155 1154
3 1127 1156 1155
3 1127 1128 1156
3 1126 1127 1154
3 1180 1181 1245
3 1246 1208 1207
3 1246 1207 1239
3 1247 1209 1208
3 1247 1208 1246
3 1248 1210 1209
3 1248 1209 1247
3 1249 1211 1210
3 1249 1210 1248
3 1250 1212 1211
3 1250 1211 1249
3 1251 1205 1206
3 1251 1213 1212
3 1251 1206 1213
3 1251 1212 1250
3 1252 1246 1239
3 1252 1239 1238
3 1253 1246 1252
3 1253 1247 1246
3 1254 1248 1247
3 1254 1247 1253
3 1255 1248 1254
3 1255 1249 1248
3 1256 1250 1249
3 1256 1249 1255
3 1257 1251 1250
3 1257 1204 1205
3 1257 1205 1251
3 1257 1250 1256
3 1258 1238 1237
3 1258 1252 1238
3 1259 1252 1258
3 1259 1253 1252
3 1260 1253 1259
3 1260 1254 1253
3 1261 1255 1254
3 1261 1254 1260
3 1262 1256 1255
3 1262 1255 1261
3 1263 1257 1256
3 1263 1203 1204
3 1263 1256 1262
3 1263 1204 1257
3 1264 1237 1236
3 1264 1258 1237
3 1265 1259 1258
3 1265 1260 1259
3 1265 1258 1264
3 1266 1260 1265
3 1267 1260 1266
3 1267 1261 1260
3 1268 1261 1267
3 1268 1262 1261
3 1269 1202 1203
3 1269 1203 1263
3 1269 1262 1268
3 1269 1263 1262
3 1270 1264 1236
3 1270 1236 1235
3 1270 1265 1264
3 1271 1265 1270
3 1272 1265 1271
3 1272 1267 1266
3 1272 1266 1265
3 1273 1267 1272
3 1274 1268 1267
3 1274 1267 1273
3 1275 1202 1269
3 1275 1268 1274
3 1275 1201 1202
3 1275 1269 1268
3 1276 1270 1235
3 1276 1235 1234
3 1277 1271 1270
3 1277 1270 1276
3 1278 1272 1271
3 1278 1271 1277
3 1279 1273 1272
3 1279 1272 1278
3 1280 1274 1273
3 1280 1273 1279
3 1281 1275 1274
3 1281 1201 1275
3 1281 1200 1201
3 1281 1274 1280
3 1282 1276 1234
3 1282 1233 1232
3 1282 1234 1233
3 1283 1276 1282
3 1283 1277 1276
3 1284 1278 1277
3 1284 1279 1278
3 1284 1277 1283
3 1285 1279 1284
3 1286 1280 1279
3 1286 1281 1280
3 1286 1279 1285
3 1287 1199 1200
3 1287 1200 1281
3 1287 1281 1286
3 1288 1282 1232
3 1288 1232 1231
3 1289 1283 1282
3 1289 1282 1288
3 1290 1284 1283
3 1290 1283 1289
3 1291 1284 1290
3 1291 1285 1284
3 1292 1286 1285
3 1292 1285 1291
3 1293 1198 1199
3 1293 1199 1287
3 1293 1287 1286
3 1293 1286 1292
3 1294 1288 1231
3 1294 1231 1230
3 1295 1289 1288
3 1295 1288 1294
3 1295 1290 1289
3 1296 1291 1290
3 1296 1290 1295
3 1297 1291 1296
3 1298 1292 1291
3 1298 1291 1297
3 1299 1197 1198
3 1299 1198 1293
3 1299 1293 1292
3 1299 1292 1298
3 1300 1294 1230
3 1301 1296 1295
3 1301 1295 1294
3 1301 1294 1300
3 1302 1296 1301
3 1302 1297 1296
3 1303 1297 1302
3 1304 1298 1297
3 1304 1297 1303
3 1305 1298 1304
3 1305 1196 1197
3 1305 1197 1299
3 1305 1299 1298
3 1306 1300 1230
3 1306 1230 1229
3 1307 1301 1300
3 1307 1300 1306
3 1308 1301 1307
3 1308 1302 1301
3 1309 1303 1302
3 1309 1302 1308
3 1310 1304 1303
3 1310 1303 1309
3 1311 1196 1305
3 1311 1194 1195
3 1311 1195 1196
3 1311 1304 1310
3 1311 1305 1304
3 1312 1306 1229
3 1312 1228 1227
3 1312 1229 1228
3 1313 1307 1306
3 1313 1306 1312
3 1314 1307 1313
3 1314 1308 1307
3 1315 1309 1308
3 1315 1308 1314
3 1316 1309 1315
3 1316 1310 1309
3 1317 1193 1194
3 1317 1194 1311
3 1317 1311 1310
3 1317 1310 1316
3 1318 1312 1227
3 1319 1313 1312
3 1319 1312 1318
3 1320 1314 1313
3 1320 1315 1314
3 1320 1313 1319
3 1321 1315 1320
3 1322 1315 1321
3 1322 1316 1315
3 1323 1192 1193
3 1323 1193 1317
3 1323 1317 1316
3 1323 1316 1322
3 1324 1318 1227
3 1324 1227 1226
3 1325 1319 1318
3 1325 1318 1324
3 1326 1319 1325
3 1326 1320 1319
3 1327 1321 1320
3 1327 1320 1326
3 1328 1321 1327
3 1328 1322 1321
3 1328 1323 1322
3 1329 1192 1323
3 1329 1323 1328
3 1330 1226 1225
3 1330 1324 1226
3 1331 1325 1324
3 1331 1324 1330
3 1332 1326 1325
3 1332 1325 1331
3 1333 1326 1332
3 1333 1327 1326
3 1334 1328 1327
3 1334 1327 1333
3 1335 1191 1192
3 1335 1192 1329
3 1335 1329 1328
3 1335 1328 1334
3 1336 1225 1224
3 1336 1330 1225
3 1337 1330 1336
3 1337 1331 1330
3 1337 1332 1331
3 1338 1332 1337
3 1339 1332 1338
3 1339 1333 1332
3 1339 1334 1333
3 1340 1334 1339
3 1341 1334 1340
3 1341 1190 1191
3 1341 1191 1335
3 1341 1335 1334
3 1342 1224 1223
3 1342 1336 1224
3 1343 1336 1342
3 1343 1337 1336
3 1344 1337 1343
3 1344 1338 1337
3 1345 1339 1338
3 1345 1338 1344
3 1346 1339 1345
3 1346 1340 1339
3 1347 1341 1340
3 1347 1189 1190
3 1347 1190 1341
3 1347 1340 1346
3 1348 1223 1222
3 1348 1342 1223
3 1349 1343 1342
3 1349 1342 1348
3 1350 1344 1343
3 1350 1343 1349
3 1351 1345 1344
3 1351 1344 1350
3 1352 1346 1345
3 1352 1345 1351
3 1353 1188 1189
3 1353 1347 1346
3 1353 1189 1347
3 1353 1346 1352
3 1354 1348 1222
3 1354 1349 1348
3 1354 1222 1221
3 1355 1349 1354
3 1356 1350 1349
3 1356 1349 1355
3 1357 1350 1356
3 1357 1351 1350
3 1357 1352 1351
3 1358 1352 1357
3 1359 1187 1188
3 1359 1188 1353
3 1359 1353 1352
3 1359 1352 1358
3 1360 1221 1220
3 1360 1354 1221
3 1361 1355 1354
3 1361 1354 1360
3 1362 1357 1356
3 1362 1356 1355
3 1362 1355 1361
3 1363 1358 1357
3 1363 1357 1362
3 1364 1358 1363
3 1365 1186 1187
3 1365 1187 1359
3 1365 1359 1358
3 1365 1358 1364
3 1366 1220 1219
3 1366 1360 1220
3 1366 1361 1360
3 1367 1362 1361
3 1367 1361 1366
3 1368 1362 1367
3 1369 1363 1362
3 1369 1362 1368
3 1370 1363 1369
3 1370 1364 1363
3 1370 1365 1364
3 1371 1185 1186
3 1371 1186 1365
3 1371 1365 1370
3 1372 1219 1218
3 1372 1366 1219
3 1373 1366 1372
3 1373 1367 1366
3 1373 1368 1367
3 1374 1368 1373
3 1375 1368 1374
3 1375 1369 1368
3 1376 1369 1375
3 1376 1370 1369
3 1377 1371 1370
3 1377 1184 1185
3 1377 1370 1376
3 1377 1185 1371
3 1378 1373 1372
3 1378 1218 1217
3 1378 1372 1218
3 1379 1373 1378
3 1380 1373 1379
3 1380 1374 1373
3 1381 1374 1380
3 1381 1375 1374
3 1382 1375 1381
3 1382 1376 1375
3 1382 1377 1376
3 1383 1182 1183
3 1383 1183 1184
3 1383 1184 1377
3 1383 1377 1382
3 1384 1378 1217
3 1384 1379 1378
3 1384 1217 1216
3 1385 1379 1384
3 1386 1381 1380
3 1386 1380 1379
3 1386 1379 1385
3 1387 1381 1386
3 1388 1381 1387
3 1388 1382 1381
3 1388 1383 1382
3 1389 1182 1383
3 1389 1383 1388
3 1390 1215 1214
3 1390 1216 1215
3 1390 1384 1216
3 1390 1214 1240
3 1390 1240 1241
3 1391 1385 1384
3 1391 1390 1241
3 1391 1241 1242
3 1391 1384 1390
3 1392 1386 1385
3 1392 1391 1242
3 1392 1242 1243
3 1392 1385 1391
3 1393 1387 1386
3 1393 1386 1392
3 1393 1392 1243
3 1394 1388 1387
3 1394 1243 1244
3 1394 1387 1393
3 1394 1244 1245
3 1394 1393 1243
3 1395 1181 1182
3 1395 1182 1389
3 1395 1389 1388
3 1395 1388 1394
3 1395 1394 1245
3 1395 1245 1181
3 1411 1413 1412
3 1415 1414 1413
3 1409 1411 1410
3 1408 1411 1409
3 1417 1416 1415
3 1406 1408 1407
3 1405 1413 1411
3 1405 1415 1413
3 1405 1411 1408
3 1405 1408 1406
3 1420 1419 1418
3 1403 1405 1404
3 1403 1415 1405
3 1396 1421 1420
3 1402 1417 1415
3 1402 1415 1403
3 1397 1396 1420
3 1398 1397 1420
3 1400 1402 1401
3 1400 1418 1417
3 1400 1417 1402
3 1399 1420 1418
3 1399 1418 1400
3 1399 1398 1420
