ply
format ascii 1.0
comment generated by blendit.inference.finetune_visualize
element vertex 1203
property float x
property float y
property float z
property uchar red
property uchar green
property uchar blue
element face 1645
property list uchar int vertex_indices
end_header
0 40.8798564 25.9359894 218 222 230
0 0.979334452 25.9359894 218 222 230
0 0.636328765 0 218 222 230
0 39.7422896 0 218 222 230
0 40.8798564 1.13756677 218 222 230
0 40.8454568 0.859933335 218 222 230
0 40.7492217 0.608278664 218 222 230
0 40.6084069 0.400071683 218 222 230
0 40.4987117 0.287929321 218 222 230
0 40.3471333 0.174123855 218 222 230
0 40.18199 0.0884139236 218 222 230
0 40.0107223 0.0321247662 218 222 230
0 39.8746854 0.00773070382 218 222 230
38.5702906 40.8798564 25.9359894 218 222 230
0 40.8798564 25.9359894 218 222 230
0 0.979334452 25.9359894 218 222 230
0.0296253651 0.740276699 25.9359894 218 222 230
0.112482908 0.523632389 25.9359894 218 222 230
0.233700004 0.344413001 25.9359894 218 222 230
0.32813366 0.247874602 25.9359894 218 222 230
0.458608172 0.149912897 25.9359894 218 222 230
0.600766851 0.0761276444 25.9359894 218 222 230
0.748212855 0.0276628886 25.9359894 218 222 230
0.865334821 0.00665770085 25.9359894 218 222 230
0.979334452 0 25.9359894 218 222 230
38.5702906 -3.63287358e-32 25.9359894 218 222 230
0 0.636328765 0 255 79 163
0.0192446452 0.481017844 0 255 79 163
0.0730781736 0.340249267 0 255 79 163
0.151844422 0.223788799 0 255 79 163
0.2132047 0.161060073 0 255 79 163
0.297989907 0.0974028735 0 255 79 163
0.390364331 0.0494592797 0 255 79 163
0.486167809 0.0179712798 0 255 79 163
0.562265357 0.00432487843 0 255 79 163
0.636328765 0 0 255 79 163
0.979334452 0 25.9359894 255 79 163
0 0.979334452 25.9359894 255 79 163
0.0296253651 0.740276699 25.9359894 255 79 163
0.112482908 0.523632389 25.9359894 255 79 163
0.233700004 0.344413001 25.9359894 255 79 163
0.32813366 0.247874602 25.9359894 255 79 163
0.458608172 0.149912897 25.9359894 255 79 163
0.600766851 0.0761276444 25.9359894 255 79 163
0.748212855 0.0276628886 25.9359894 255 79 163
0.865334821 0.00665770085 25.9359894 255 79 163
81.865936 40.8798564 3.33138833 218 222 230
81.865936 40.8798564 30.2293708 218 222 230
79.5869037 40.8798564 0.170582279 218 222 230
80.2824233 40.8798564 0.495356094 218 222 230
80.8996528 40.8798564 0.985237058 218 222 230
81.3429428 40.8798564 1.53944385 218 222 230
81.6285737 40.8798564 2.09641844 218 222 230
81.8006011 40.8798564 2.67484952 218 222 230
81.8501219 40.8798564 3.00717285 218 222 230
0 40.8798564 1.13756677 218 222 230
16.7433983 40.8798564 0.984308608 218 222 230
39.7934519 40.8798564 0.648069377 218 222 230
62.7074408 40.8798564 0.31748903 218 222 230
0 40.8798564 25.9359894 218 222 230
38.5702906 40.8798564 25.9359894 218 222 230
38.8341969 40.8798564 25.9657245 218 222 230
39.0848699 40.8798564 26.0534388 218 222 230
39.3097397 40.8798564 26.1947339 218 222 230
39.4975304 40.8798564 26.3825246 218 222 230
39.6388255 40.8798564 26.6073944 218 222 230
39.7265397 40.8798564 26.8580674 218 222 230
39.7562748 40.8798564 27.1219737 218 222 230
39.7562748 40.8798564 30.7924038 218 222 230
81.7710912 40.8798564 30.7306715 218 222 230
81.8379033 40.8798564 30.5053212 218 222 230
81.8591598 40.8798564 30.3655725 218 222 230
44.5690357 40.8798564 5.00546511 218 222 230
33.2360055 40.8798564 5.00546511 218 222 230
45.2250623 40.8798564 5.07994071 218 222 230
45.8881585 40.8798564 5.31961607 218 222 230
46.4393872 40.8798564 5.68112181 218 222 230
46.7311944 40.8798564 5.95975199 218 222 230
47.0072875 40.8798564 6.31346589 218 222 230
47.2232526 40.8798564 6.69916115 218 222 230
47.3754597 40.8798564 7.1020723 218 222 230
47.4668329 40.8798564 7.52260409 218 222 230
47.4956157 40.8798564 7.93204505 218 222 230
47.4956157 40.8798564 11.7678797 218 222 230
47.3817295 40.8798564 12.7102201 218 222 230
47.0638003 40.8798564 13.5650194 218 222 230
46.5981909 40.8798564 14.2767304 218 222 230
46.2241647 40.8798564 14.6734107 218 222 230
45.7179339 40.8798564 15.0699148 218 222 230
45.1634458 40.8798564 15.3749888 218 222 230
44.5844082 40.8798564 15.5831128 218 222 230
44.0552867 40.8798564 15.6897738 218 222 230
43.5400177 40.8798564 15.7234777 218 222 230
33.2360055 40.8798564 15.7234777 218 222 230
42.9023489 40.8798564 21.2180321 218 222 230
42.6445403 40.8798564 20.9601785 218 222 230
45.3548696 40.8798564 23.6709806 218 222 230
41.9762694 40.8798564 24.6111504 218 222 230
41.8043143 40.8798564 24.6590007 218 222 230
0 0.636328765 0 218 222 230
0 39.7422896 0 218 222 230
0.0192446452 0.481017844 0 218 222 230
0.0730781736 0.340249267 0 218 222 230
0.151844422 0.223788799 0 218 222 230
0.2132047 0.161060073 0 218 222 230
0.297989907 0.0974028735 0 218 222 230
0.390364331 0.0494592797 0 218 222 230
0.486167809 0.0179712798 0 218 222 230
0.562265357 0.00432487843 0 218 222 230
0.636328765 0 0 218 222 230
78.5680915 0 0 218 222 230
78.5346221 40.7039523 -2.91433544e-16 218 222 230
16.5937956 39.8937108 9.60179518e-17 218 222 230
39.2673111 40.223533 1.01481139e-17 218 222 230
61.9466425 40.5531516 -9.44423412e-17 218 222 230
0 40.8798564 1.13756677 255 79 163
0 40.8454568 0.859933335 255 79 163
0 40.7492217 0.608278664 255 79 163
0 40.6084069 0.400071683 255 79 163
0 40.4987117 0.287929321 255 79 163
0 40.3471333 0.174123855 255 79 163
0 40.18199 0.0884139236 255 79 163
0 40.0107223 0.0321247662 255 79 163
0 39.8746854 0.00773070382 255 79 163
0 39.7422896 0 255 79 163
16.5937956 39.8937108 9.60179518e-17 255 79 163
39.2673111 40.223533 1.01481139e-17 255 79 163
61.9466425 40.5531516 -9.44423412e-17 255 79 163
78.5346221 40.7039523 -2.91433544e-16 255 79 163
79.0486152 40.8172209 0.0398981342 255 79 163
79.3500199 40.8647715 0.101347733 255 79 163
79.5869037 40.8798564 0.170582279 255 79 163
16.7433983 40.8798564 0.984308608 255 79 163
39.7934519 40.8798564 0.648069377 255 79 163
62.7074408 40.8798564 0.31748903 255 79 163
5.53126521 40.6865652 0.477304891 255 79 163
5.53126521 40.5647533 0.329416527 255 79 163
5.53126521 40.434475 0.216064672 255 79 163
8.29689781 40.5646677 0.315188717 255 79 163
8.29689781 40.4528812 0.217840397 255 79 163
8.29689781 40.3426807 0.14468451 255 79 163
8.29689781 40.2381088 0.0915623594 255 79 163
8.29689781 40.1719638 0.0649613274 255 79 163
11.112398 40.7459337 0.535690728 255 79 163
24.2015017 40.4276026 0.113063452 255 79 163
28.0053547 40.6367984 0.243058025 255 79 163
31.9347204 40.7814336 0.393691143 255 79 163
47.0024685 40.605973 0.068470838 255 79 163
50.8700472 40.7399071 0.139949281 255 79 163
54.8158451 40.8260975 0.215035607 255 79 163
70.6210315 40.8114586 0.0683977409 255 79 163
62.3270417 40.7855229 0.0943334471 255 79 163
79.0607629 40.8291363 0.0507201148 255 79 163
12.0010305 40.2989034 0.106423549 255 79 163
13.8530968 40.3594189 0.130109373 255 79 163
14.7915968 40.4426474 0.177051564 255 79 163
20.47245 40.7602339 0.478490063 255 79 163
19.204499 40.7123932 0.413531428 255 79 163
22.9834182 40.7213415 0.391434811 255 79 163
35.6010157 40.515167 0.0911723493 255 79 163
43.3979602 40.8042753 0.302324401 255 79 163
58.3812438 40.6897058 0.0475376367 255 79 163
13.9029643 40.7498195 0.520147443 255 79 163
15.129364 40.6673187 0.386103399 255 79 163
15.2982475 40.7518913 0.511860167 255 79 163
15.7674976 40.7736484 0.548594917 255 79 163
16.067864 40.7221628 0.455734565 255 79 163
16.6685969 40.5912898 0.288566584 255 79 163
17.8991473 40.3457313 0.103406623 255 79 163
17.4889638 40.4321549 0.154914021 255 79 163
18.5331228 40.3884053 0.122862781 255 79 163
20.4225824 40.4010268 0.119707401 255 79 163
18.7569148 40.5109916 0.203048375 255 79 163
37.6972338 40.7928724 0.347935938 255 79 163
41.3326356 40.561048 0.0797021033 255 79 163
60.5443423 40.835895 0.175845654 255 79 163
15.830219 40.4929591 0.207660382 255 79 163
15.8615798 40.3051695 0.0931479298 255 79 163
16.1430524 40.5181416 0.225777799 255 79 163
16.1806466 40.3928303 0.137795987 255 79 163
16.3308298 40.3481941 0.112235509 255 79 163
16.4434189 40.4345968 0.162416522 255 79 163
16.9669864 40.7184977 0.442359666 255 79 163
17.1161811 40.7687163 0.526473299 255 79 163
17.3212728 40.7440113 0.480130732 255 79 163
17.3771698 40.6575364 0.356175203 255 79 163
17.7501566 40.7888863 0.561250473 255 79 163
17.7998201 40.6772586 0.37746504 255 79 163
38.4822724 40.5382099 0.0854116237 255 79 163
40.5630437 40.798614 0.32496972 255 79 163
61.2454924 40.7085043 0.0428380119 255 79 163
16.7431263 40.4334747 0.159993385 255 79 163
16.780391 40.3467904 0.109348799 255 79 163
39.1378621 40.7957585 0.3363916 255 79 163
39.5303815 40.6888325 0.191023859 255 79 163
39.9151774 40.5496956 0.0825402064 255 79 163
61.9764666 40.8381698 0.166746243 255 79 163
39.2025866 40.5439836 0.0839681886 255 79 163
39.8543146 40.7971942 0.330648626 255 79 163
61.9615546 40.713017 0.041709845 255 79 163
38.5702906 -3.63287358e-32 25.9359894 255 79 163
38.5702906 40.8798564 25.9359894 255 79 163
38.8341969 40.8798564 25.9657245 255 79 163
39.0848699 40.8798564 26.0534388 255 79 163
39.3097397 40.8798564 26.1947339 255 79 163
39.4975304 40.8798564 26.3825246 255 79 163
39.6388255 40.8798564 26.6073944 255 79 163
39.7265397 40.8798564 26.8580674 255 79 163
39.7562748 40.8798564 27.1219737 255 79 163
39.7562748 0 27.1219737 255 79 163
38.8341969 0 25.9657245 255 79 163
39.0848699 0 26.0534388 255 79 163
39.3097397 0 26.1947339 255 79 163
39.4975304 0 26.3825246 255 79 163
39.6388255 0 26.6073944 255 79 163
39.7265397 0 26.8580674 255 79 163
39.7562748 0 31.6016025 218 222 230
79.7287826 0 31.6016025 218 222 230
80.5427519 0 31.4405256 218 222 230
80.1772827 -3.12157647e-16 31.5540118 218 222 230
79.9501339 -5.22767469e-16 31.5901086 218 222 230
80.9240988 -5.55111512e-17 0.990246644 218 222 230
80.2796579 -1.39016454e-17 0.478922938 218 222 230
79.5509307 3.47684412e-17 0.14986013 218 222 230
79.0532344 -3.2289846e-17 0.0358796557 218 222 230
78.5680915 0 0 218 222 230
0.636328765 0 0 218 222 230
0.979334452 0 25.9359894 218 222 230
38.5702906 -3.63287358e-32 25.9359894 218 222 230
38.8341969 0 25.9657245 218 222 230
39.0848699 0 26.0534388 218 222 230
39.3097397 0 26.1947339 218 222 230
39.4975304 0 26.3825246 218 222 230
39.6388255 0 26.6073944 218 222 230
39.7265397 0 26.8580674 218 222 230
39.7562748 0 27.1219737 218 222 230
47.4956157 0 12.0336183 218 222 230
47.4956157 -1.49602553e-14 8.15177157 218 222 230
47.38143 0 12.9444529 218 222 230
47.0624853 0 13.7682013 218 222 230
46.5968115 0 14.4471371 218 222 230
46.2383354 0 14.808077 218 222 230
45.7394056 0 15.1762386 218 222 230
45.196764 0 15.4512432 218 222 230
44.635072 0 15.6290734 218 222 230
44.2149915 0 15.7007137 218 222 230
43.8057562 0 15.7234777 218 222 230
33.2360055 0 15.7234777 218 222 230
32.666974 -5.55111512e-17 15.7234777 218 222 230
33.0089008 -5.55111512e-17 4.39870421 218 222 230
32.8508457 -6.9917891e-18 10.0610909 218 222 230
44.3497857 2.77555756e-17 4.71748768 218 222 230
47.4954821 0 8.11817364 218 222 230
47.4953147 0 8.10137534 218 222 230
47.4950802 0 8.08457785 218 222 230
47.4947781 0 8.06778144 218 222 230
47.4946017 0 8.05938372 218 222 230
47.4944084 0 8.05098638 218 222 230
47.4941981 0 8.04258944 218 222 230
47.4939708 0 8.03419295 218 222 230
47.4937265 0 8.02579694 218 222 230
47.4934652 0 8.01740144 218 222 230
47.4931902 0 8.00910625 218 222 230
47.4928985 0 8.00081164 218 222 230
47.4922651 0 7.98422426 218 222 230
47.4915646 0 7.96763958 218 222 230
47.490797 0 7.95105787 218 222 230
47.4899669 0 7.93457349 218 222 230
47.4890701 0 7.9180926 218 222 230
47.4881063 0 7.90161549 218 222 230
47.4870755 0 7.88514245 218 222 230
47.4859836 0 7.86876446 218 222 230
47.484825 0 7.85239105 218 222 230
47.4835996 0 7.83602251 218 222 230
47.4823072 0 7.81965912 218 222 230
47.4795363 0 7.78712387 218 222 230
47.4780508 0 7.77086504 218 222 230
47.4764984 0 7.75461246 218 222 230
47.4748875 0 7.73845082 218 222 230
47.4732101 0 7.72229594 218 222 230
47.4714662 0 7.70614812 218 222 230
47.4696554 0 7.69000764 218 222 230
47.465853 0 7.65791268 218 222 230
47.4638521 0 7.64187729 218 222 230
47.4617846 0 7.62585035 218 222 230
47.4596609 0 7.6099107 218 222 230
47.4574711 0 7.59398001 218 222 230
47.4552149 0 7.57805858 218 222 230
47.4528922 0 7.56214672 218 222 230
47.4429846 0 7.49890329 218 222 230
47.432068 0 7.436127 218 222 230
47.4201489 0 7.37382508 218 222 230
47.4072337 0 7.31200509 218 222 230
47.3933289 0 7.25067487 218 222 230
47.3784411 0 7.18984249 218 222 230
47.3625769 0 7.12951627 218 222 230
47.345743 0 7.06970472 218 222 230
47.3279463 0 7.01041656 218 222 230
47.3091938 0 6.95166067 218 222 230
47.2894925 0 6.8934461 218 222 230
47.2688496 0 6.83578206 218 222 230
47.2472723 0 6.77867786 218 222 230
47.2247681 0 6.72214298 218 222 230
47.2013447 0 6.66618695 218 222 230
47.1770095 0 6.61081946 218 222 230
47.1517706 0 6.55605023 218 222 230
47.1256359 0 6.50188911 218 222 230
47.0986136 0 6.44834596 218 222 230
47.0707119 0 6.39543075 218 222 230
47.0419393 0 6.34315345 218 222 230
47.0123044 0 6.29152409 218 222 230
46.981816 0 6.24055272 218 222 230
46.950483 0 6.1902494 218 222 230
46.9183145 0 6.1406242 218 222 230
46.8853198 0 6.09168719 218 222 230
46.8515082 0 6.04344842 218 222 230
46.8168895 0 5.99591793 218 222 230
46.7814733 0 5.94910572 218 222 230
46.7452695 0 5.90302175 218 222 230
46.7082882 0 5.85767594 218 222 230
46.6705396 0 5.81307815 218 222 230
46.6320342 0 5.76923817 218 222 230
46.5927824 0 5.72616574 218 222 230
46.5527951 0 5.6838705 218 222 230
46.5120829 0 5.64236202 218 222 230
46.470657 0 5.60164977 218 222 230
46.4285285 0 5.56174311 218 222 230
46.3857086 0 5.52265131 218 222 230
46.3422088 0 5.48438352 218 222 230
46.2980406 0 5.44694879 218 222 230
46.2532157 0 5.41035602 218 222 230
46.207746 0 5.374614 218 222 230
46.1616433 0 5.33973137 218 222 230
46.1149198 0 5.30571666 218 222 230
46.0675875 0 5.27257822 218 222 230
46.0196588 0 5.24032429 218 222 230
45.9657201 0 5.20553377 218 222 230
45.9110777 0 5.17185622 218 222 230
45.8557489 0 5.13930223 218 222 230
45.7997511 0 5.10788215 218 222 230
45.7431017 0 5.07760608 218 222 230
45.6858183 0 5.04848386 218 222 230
45.6279188 0 5.02052508 218 222 230
45.5694208 0 4.99373907 218 222 230
45.5103423 0 4.96813489 218 222 230
45.4507013 0 4.94372134 218 222 230
45.3905156 0 4.92050697 218 222 230
45.3298035 0 4.89850004 218 222 230
45.2685829 0 4.87770855 218 222 230
45.2068721 0 4.85814024 218 222 230
45.1446891 0 4.83980259 218 222 230
45.082052 0 4.8227028 218 222 230
45.0189791 0 4.80684781 218 222 230
44.9554883 0 4.79224432 218 222 230
44.8915978 0 4.77889876 218 222 230
44.8273256 0 4.76681729 218 222 230
44.7626897 0 4.75600586 218 222 230
44.6977079 0 4.74647014 218 222 230
44.632398 0 4.73821558 218 222 230
44.5667778 0 4.73124741 218 222 230
44.5008649 0 4.72557062 218 222 230
44.4346767 0 4.72118998 218 222 230
44.3922429 0 4.71907145 218 222 230
42.4768289 0 27.1989864 218 222 230
44.0428853 0 27.7796137 218 222 230
44.2168936 -2.77555756e-17 27.8441287 218 222 230
42.2725665 -2.77555756e-17 29.1759654 218 222 230
42.2314668 0 29.0204099 218 222 230
41.8907694 0 27.7309281 218 222 230
42.3735305 0 27.1741857 218 222 230
42.267296 0 27.1745267 218 222 230
42.1641582 0 27.1999902 218 222 230
42.0699719 0 27.2491308 218 222 230
41.990086 0 27.319157 218 222 230
41.9290333 0 27.4060949 218 222 230
41.8902806 0 27.5050091 218 222 230
41.8760284 0 27.6102833 218 222 230
41.8792687 0 27.671111 218 222 230
41.9762694 0 24.6111504 218 222 230
41.9062573 -3.58046925e-15 24.8676719 218 222 230
42.9023489 0 21.2180321 218 222 230
45.3548696 0 23.6709806 218 222 230
45.5402814 -3.58046925e-15 23.8564248 218 222 230
81.865936 40.8798564 3.33138833 218 222 230
81.865936 40.8798564 30.2293708 218 222 230
81.865936 1.31115432 29.4736315 218 222 230
81.865936 9.58833352 29.593258 218 222 230
81.865936 21.0955054 29.8626124 218 222 230
81.865936 32.4458115 30.1215559 218 222 230
81.865936 0.958978908 3.29810549 218 222 230
78.5346221 40.7039523 -2.91433544e-16 255 79 163
79.0486152 40.8172209 0.0398981342 255 79 163
79.3500199 40.8647715 0.101347733 255 79 163
79.5869037 40.8798564 0.170582279 255 79 163
78.5680915 0 0 255 79 163
80.9240988 -5.55111512e-17 0.990246644 255 79 163
80.2796579 -1.39016454e-17 0.478922938 255 79 163
79.5509307 3.47684412e-17 0.14986013 255 79 163
79.0532344 -3.2289846e-17 0.0358796557 255 79 163
81.865936 0.958978908 3.29810549 255 79 163
81.7524282 0.501051011 2.4401804 255 79 163
81.4855113 0.188082743 1.76020536 255 79 163
81.2147586 0.0465449993 1.33038366 255 79 163
81.865936 40.8798564 3.33138833 255 79 163
80.2824233 40.8798564 0.495356094 255 79 163
80.8996528 40.8798564 0.985237058 255 79 163
81.3429428 40.8798564 1.53944385 255 79 163
81.6285737 40.8798564 2.09641844 255 79 163
81.8006011 40.8798564 2.67484952 255 79 163
81.8501219 40.8798564 3.00717285 255 79 163
80.3370717 0.319659636 0.514629039 255 79 163
80.6351129 0.319659636 0.728216448 255 79 163
80.9727857 0.319659636 1.04107519 255 79 163
80.899984 0.479489454 0.965951974 255 79 163
81.1237539 0.167017004 1.21355586 255 79 163
81.2155111 0.250525505 1.33143011 255 79 163
81.087465 0.479489454 1.16988625 255 79 163
81.2563869 0.479489454 1.38773226 255 79 163
81.4387674 0.250525505 1.67462214 255 79 163
81.4720966 0.479489454 1.73507525 255 79 163
81.5851158 0.48667664 1.96627323 255 79 163
81.7427482 20.9194176 2.41901112 255 79 163
81.7090112 27.5728972 2.31237316 255 79 163
79.4106673 40.7919043 0.117260359 255 79 163
79.7668108 40.7919043 0.236271289 255 79 163
79.4561936 0.159829818 0.121841714 255 79 163
81.4878262 0.639319272 1.76469646 255 79 163
81.5670178 0.639319272 1.92603469 255 79 163
81.6343754 0.719234181 2.08404499 255 79 163
81.6806146 0.719234181 2.20805759 255 79 163
81.7214372 0.719234181 2.33250613 255 79 163
81.772689 0.719234181 2.5193374 255 79 163
79.3704475 6.94382187 0.0998195384 255 79 163
79.7001803 4.73576779 0.200978313 255 79 163
79.0889262 18.1971987 0.0433907769 255 79 163
80.1762199 13.8876437 0.422429016 255 79 163
81.0027013 18.5461757 1.08180425 255 79 163
81.0543396 17.4035307 1.13910947 255 79 163
81.1667662 17.4035307 1.27570032 255 79 163
81.3510084 18.575493 1.53817277 255 79 163
81.5642094 11.9220134 1.92546688 255 79 163
81.6355872 20.9194176 2.10020494 255 79 163
80.8952569 20.8314656 0.970679021 255 79 163
79.3554942 27.295798 0.10041767 255 79 163
79.9043679 25.1410205 0.290172782 255 79 163
79.7652946 30.767709 0.233404594 255 79 163
80.1691512 29.6832268 0.425227243 255 79 163
79.7654593 34.1091074 0.234395389 255 79 163
79.6475816 36.3367064 0.190689304 255 79 163
81.7262411 2.26230571 2.34879354 255 79 163
80.5810396 4.92223591 0.686628359 255 79 163
80.6912471 3.44132043 0.775021609 255 79 163
81.7286086 3.03384147 2.35698522 255 79 163
80.1972066 5.5960979 0.431495216 255 79 163
80.4339802 6.02626295 0.579882915 255 79 163
81.2861512 5.10870403 1.43171332 255 79 163
81.766167 4.19114512 2.49422322 255 79 163
80.826448 6.49194574 0.896293144 255 79 163
80.5560799 7.1835666 0.668293892 255 79 163
81.711568 6.76810122 2.3033653 255 79 163
81.6517711 4.49699809 2.1302435 255 79 163
80.5059495 10.9178263 0.632556302 255 79 163
80.9919252 12.9048286 1.06658012 255 79 163
81.0521191 14.404396 1.13466285 255 79 163
80.1540839 16.4961244 0.41119072 255 79 163
80.142954 17.8003647 0.405631605 255 79 163
80.1093315 18.3716872 0.387744633 255 79 163
80.4515896 18.0489683 0.597142814 255 79 163
80.0416144 19.5143321 0.353188658 255 79 163
80.3877388 19.1916133 0.554176317 255 79 163
79.9961209 21.3898949 0.331490755 255 79 163
80.9320348 22.2973013 1.00897661 255 79 163
81.2951946 22.3266186 1.45584646 255 79 163
80.9502073 23.0302191 1.02835939 255 79 163
81.0692051 23.0302191 1.16010181 255 79 163
81.3369121 24.5444451 1.52062111 255 79 163
80.0829761 26.6503604 0.377330664 255 79 163
80.1709336 27.4050303 0.425296321 255 79 163
80.8804049 26.7427268 0.95956001 255 79 163
80.8723984 26.3569589 0.951438041 255 79 163
81.0276472 26.3569589 1.11463792 255 79 163
80.8963435 27.5142625 0.975891 255 79 163
81.2291248 26.7622717 1.36503006 255 79 163
81.5514926 27.5728972 1.91060293 255 79 163
80.1703326 28.1644291 0.425275092 255 79 163
80.9516465 28.2567955 1.03312908 255 79 163
80.9787872 28.628062 1.06224536 255 79 163
81.2874378 28.2763404 1.44873292 255 79 163
81.1262703 28.628062 1.23237038 255 79 163
80.8491448 30.4697358 0.931155302 255 79 163
81.1369409 30.8629903 1.24701053 255 79 163
81.5503238 34.2019457 1.9128201 255 79 163
81.2059941 38.6229401 1.34028971 255 79 163
81.0021587 38.6229401 1.09261803 255 79 163
81.4494908 37.5164699 1.71723715 255 79 163
81.312342 38.6229401 1.49158977 255 79 163
81.4096984 38.6229401 1.64782735 255 79 163
81.1244506 39.3752455 1.23556976 255 79 163
80.7751745 38.6229401 0.865462828 255 79 163
81.3702928 39.3752455 1.58254298 255 79 163
81.5301654 39.3752455 1.87330709 255 79 163
81.6274112 39.3752455 2.09294192 255 79 163
79.58889 1.20038341 0.162056079 255 79 163
79.6550705 1.72066021 0.184434474 255 79 163
79.6701572 2.72569607 0.189861807 255 79 163
81.4051955 1.37089758 1.6168753 255 79 163
81.200553 2.06103853 1.31183776 255 79 163
81.493468 2.9124892 1.77611703 255 79 163
81.331379 2.85181307 1.49852197 255 79 163
81.333733 3.23758095 1.5022647 255 79 163
81.2634011 3.96915926 1.39858702 255 79 163
81.4558042 3.65738666 1.70608265 255 79 163
80.3329717 7.63014578 0.513690684 255 79 163
80.2175672 7.85343537 0.443812843 255 79 163
80.0405608 8.18836976 0.348575639 255 79 163
80.6618711 9.43291765 0.752648504 255 79 163
81.3654605 6.63002348 1.55347422 255 79 163
81.4442072 7.42331132 1.68691505 255 79 163
80.3704152 8.37992946 0.538054368 255 79 163
80.9619207 8.76304887 1.03228695 255 79 163
80.9785512 10.7575858 1.05097485 255 79 163
81.1826814 10.6774655 1.29202716 255 79 163
81.1214679 11.4199199 1.21512449 255 79 163
80.7900184 24.2385616 0.872003713 255 79 163
80.7060726 24.8427328 0.797972711 255 79 163
80.7626212 25.3474749 0.847816543 255 79 163
80.5104187 30.8153496 0.645726802 255 79 163
81.0397072 33.0726732 1.13225842 255 79 163
80.989066 34.1775146 1.07641448 255 79 163
80.7048755 34.9070176 0.802037577 255 79 163
80.19761 34.1530834 0.443045135 255 79 163
80.0562163 36.3660237 0.366848629 255 79 163
80.9328766 35.2839847 1.01724324 255 79 163
80.9824367 35.9003191 1.07000964 255 79 163
81.0780475 37.1329879 1.17865908 255 79 163
79.6757863 38.5545329 0.201231965 255 79 163
79.689954 39.6634462 0.206609698 255 79 163
79.5970967 40.0395989 0.173888773 255 79 163
80.1256157 39.7074222 0.404287129 255 79 163
81.709233 37.5327573 2.32019091 255 79 163
81.7910578 37.540901 2.6274774 255 79 163
80.5032524 40.0835749 0.643770943 255 79 163
81.7673237 39.1981632 2.52613629 255 79 163
80.282678 0.839936434 0.480857346 255 79 163
80.3136322 1.10007483 0.499969341 255 79 163
80.6404224 1.42039607 0.732669665 255 79 163
80.2354667 2.1691316 0.452854132 255 79 163
80.502214 1.89084937 0.626995736 255 79 163
80.5090154 2.3933673 0.632031504 255 79 163
80.570777 2.74268501 0.678191699 255 79 163
80.9624453 7.52672855 1.03228731 255 79 163
80.4491018 31.9201911 0.602200309 255 79 163
80.2286443 32.6498298 0.460585924 255 79 163
80.449401 33.5908903 0.6030938 255 79 163
80.3097779 37.3511815 0.511560008 255 79 163
80.4325538 37.8437604 0.592811375 255 79 163
80.5503898 38.1034869 0.678409664 255 79 163
81.4995559 36.7206101 1.81081636 255 79 163
81.5795804 36.9913258 1.97846307 255 79 163
81.865936 1.31115432 29.4736315 255 79 163
81.7648287 0.809882831 30.1184948 255 79 163
81.5197632 0.428216238 30.6324237 255 79 163
81.2139075 0.181898176 31.0018977 255 79 163
80.9209959 0.0549624538 31.2383105 255 79 163
80.7318699 0.0135274528 31.3516053 255 79 163
80.5427519 0 31.4405256 255 79 163
80.1772827 -3.12157647e-16 31.5540118 255 79 163
79.9501339 -5.22767469e-16 31.5901086 255 79 163
79.7287826 0 31.6016025 255 79 163
79.8371453 8.51830501 31.6016025 255 79 163
80.0995376 20.0048028 31.6016025 255 79 163
80.3703773 31.6281744 31.6016025 255 79 163
80.4878306 40.0096055 31.6016025 255 79 163
80.8747987 40.3136011 31.5467102 255 79 163
81.2180433 40.5734583 31.3940066 255 79 163
81.4585839 40.7396893 31.2045935 255 79 163
81.6282951 40.8368504 31.0010239 255 79 163
81.709607 40.8693755 30.8654058 255 79 163
81.7710912 40.8798564 30.7306715 255 79 163
81.8379033 40.8798564 30.5053212 255 79 163
81.8591598 40.8798564 30.3655725 255 79 163
81.865936 40.8798564 30.2293708 255 79 163
81.865936 9.58833352 29.593258 255 79 163
81.865936 21.0955054 29.8626124 255 79 163
81.865936 32.4458115 30.1215559 255 79 163
81.2330098 0.41269969 30.9840676 255 79 163
81.4641031 0.707012384 30.7149724 255 79 163
80.927521 0.214108119 31.2343596 255 79 163
81.0628052 0.404941416 31.1354187 255 79 163
80.723367 0.0909490878 31.3562808 255 79 163
80.8215 0.214108119 31.3016823 255 79 163
81.2412079 0.65557716 30.9768744 255 79 163
80.9616655 0.404941416 31.2113405 255 79 163
80.6117927 0.142738746 31.4109558 255 79 163
80.6364323 0.269960944 31.3998814 255 79 163
80.7885397 3.27648644 31.3322534 255 79 163
81.1294707 34.6945305 31.4174861 255 79 163
81.7295163 37.8797564 30.8058607 255 79 163
81.5957283 36.3797063 31.0171764 255 79 163
81.2729428 37.5896727 31.3449202 255 79 163
81.4504116 36.2277085 31.1860781 255 79 163
81.6845179 40.6911046 30.9104193 255 79 163
81.6255521 40.7266574 31.0045753 255 79 163
81.5561863 40.5967288 31.096659 255 79 163
81.5049291 40.5967288 31.1558983 255 79 163
81.416325 40.588972 31.2441339 255 79 163
81.7707588 1.00908335 30.1008939 255 79 163
81.5952449 2.29382038 30.5188383 255 79 163
81.7177586 3.11294199 30.2680064 255 79 163
81.4952534 3.16745681 30.6862436 255 79 163
81.6825931 4.2328272 30.3622051 255 79 163
81.6022471 6.47259762 30.5468472 255 79 163
81.2544622 4.91472966 30.9901287 255 79 163
80.6375508 5.56984037 31.4198887 255 79 163
80.5640171 6.71651734 31.4569448 255 79 163
81.6883099 8.3714168 30.4008502 255 79 163
80.8199245 7.49545131 31.3400996 255 79 163
80.971483 6.63521076 31.239386 255 79 163
81.7245599 9.32082639 30.329218 255 79 163
81.274667 9.05331926 31.0103335 255 79 163
80.5870904 8.78581214 31.4595085 255 79 163
80.9817452 8.01474063 31.2435417 255 79 163
81.5161176 10.4484888 30.7377653 255 79 163
80.6847967 10.0918127 31.4268777 255 79 163
80.8733106 12.7038138 31.3534461 255 79 163
81.728742 12.1924508 30.3668567 255 79 163
81.6134518 11.1460736 30.5916659 255 79 163
81.5232894 12.3629051 30.7554753 255 79 163
81.6981743 13.7603718 30.4675337 255 79 163
81.6304067 16.8962139 30.6594856 255 79 163
81.3110553 14.7965681 31.0467218 255 79 163
80.7608421 15.8350616 31.438127 255 79 163
80.7086629 17.4006855 31.4730166 255 79 163
81.7104118 19.5139578 30.5502591 255 79 163
80.943484 18.4505083 31.3709895 255 79 163
81.0695711 17.2325283 31.2791076 255 79 163
81.0902717 19.1503902 31.2874905 255 79 163
81.352584 20.5501541 31.0882505 255 79 163
81.7433575 20.8228297 30.4983966 255 79 163
80.7540692 20.2774784 31.4780617 255 79 163
81.5642281 21.962829 30.8565689 255 79 163
81.6488303 22.6691664 30.7331799 255 79 163
80.8455504 21.5992614 31.4506578 255 79 163
81.0173868 24.2428275 31.3894652 255 79 163
81.7484485 23.7286726 30.5442151 255 79 163
81.5726834 23.9000576 30.8774482 255 79 163
81.7229384 25.2823919 30.634939 255 79 163
81.3944507 26.3618399 31.1301172 255 79 163
81.6662458 28.3898304 30.8028419 255 79 163
81.1915747 28.7932815 31.328514 255 79 163
80.8865255 28.9950071 31.4927791 255 79 163
81.0850603 30.0090024 31.4063835 255 79 163
81.2089467 30.6849992 31.335549 255 79 163
80.9233771 31.8325837 31.4968737 255 79 163
81.4301948 32.0369929 31.1658612 255 79 163
81.6078607 33.0591117 30.9643147 255 79 163
81.7617518 32.2414022 30.6639451 255 79 163
81.679445 33.570171 30.8556387 255 79 163
81.6530882 34.5066828 30.911948 255 79 163
81.3411223 38.5943434 31.2992331 255 79 163
81.3882366 39.5941098 31.2649978 255 79 163
81.3168347 3.75465682 30.9157008 255 79 163
81.1903124 6.02121899 31.0607293 255 79 163
81.4322892 7.44648858 30.8138246 255 79 163
81.3334071 7.93343405 30.9364021 255 79 163
80.4131031 8.26652282 31.5169546 255 79 163
81.782688 10.0184112 30.1727949 255 79 163
81.2176562 10.6189432 31.0826195 255 79 163
81.3617821 13.2320928 30.9718463 255 79 163
81.2603083 16.3656377 31.1167648 255 79 163
81.3980045 18.982233 31.0170929 255 79 163
80.5962209 19.5775965 31.5276238 255 79 163
81.3072264 22.1342139 31.1543253 255 79 163
81.4356114 24.7626097 31.064069 255 79 163
81.6937368 30.5068804 30.7858907 255 79 163
81.7063547 31.5654054 30.7773189 255 79 163
81.726227 31.7907377 30.7396521 255 79 163
81.7416853 39.2854305 30.7907131 255 79 163
81.3736529 39.0966787 31.2751164 255 79 163
81.7474055 39.9882676 30.7825171 255 79 163
81.6533934 39.8568817 30.9579437 255 79 163
81.8025753 40.4512742 30.6392309 255 79 163
81.7508947 40.2369831 30.7760374 255 79 163
81.7184481 40.2369831 30.8450551 255 79 163
80.9404302 39.5531421 31.5241091 255 79 163
80.9494801 39.8018577 31.5215055 255 79 163
39.7562748 40.8798564 30.7924038 255 79 163
39.7562748 40.8553853 30.989901 255 79 163
39.7562748 40.7869282 31.1689128 255 79 163
39.7562748 40.6867621 31.317016 255 79 163
39.7562748 40.6087317 31.3967869 255 79 163
39.7562748 40.50091 31.4777398 255 79 163
39.7562748 40.3834383 31.5387085 255 79 163
39.7562748 40.2616083 31.57875 255 79 163
39.7562748 40.1648387 31.596103 255 79 163
39.7562748 40.0706577 31.6016025 255 79 163
80.4878306 40.0096055 31.6016025 255 79 163
80.8747987 40.3136011 31.5467102 255 79 163
81.2180433 40.5734583 31.3940066 255 79 163
81.4585839 40.7396893 31.2045935 255 79 163
81.6282951 40.8368504 31.0010239 255 79 163
81.709607 40.8693755 30.8654058 255 79 163
81.7710912 40.8798564 30.7306715 255 79 163
53.3334601 40.7345261 31.2427343 255 79 163
53.3334601 40.6429384 31.3539277 255 79 163
53.3334601 40.5449872 31.4391519 255 79 163
60.1220527 40.6338355 31.3555815 255 79 163
60.1220527 40.5465781 31.4315686 255 79 163
60.1220527 40.4605611 31.4886701 255 79 163
67.3383989 40.7708343 31.1655143 255 79 163
81.1294609 40.6248583 31.3466043 255 79 163
81.322945 40.7329742 31.2148384 255 79 163
81.4945672 40.8057141 31.0824096 255 79 163
73.9131148 40.4385197 31.4912683 255 79 163
76.3185635 40.5038534 31.4493368 255 79 163
77.3342565 40.6961263 31.2678319 255 79 163
77.842103 40.7689531 31.1579895 255 79 163
79.0448273 40.7871816 31.1229104 255 79 163
78.55473 40.5315974 31.4283798 255 79 163
79.1249203 40.5763582 31.3922663 255 79 163
78.9110436 40.3778891 31.5202413 255 79 163
79.1649668 40.4356654 31.4905547 255 79 163
79.766329 40.4524852 31.4806848 255 79 163
80.1358189 40.4070812 31.5056155 255 79 163
39.7562748 0 31.6016025 218 222 230
39.7562748 0 27.1219737 218 222 230
39.7562748 40.8798564 27.1219737 218 222 230
39.7562748 40.8798564 30.7924038 218 222 230
39.7562748 40.8553853 30.989901 218 222 230
39.7562748 40.7869282 31.1689128 218 222 230
39.7562748 40.6867621 31.317016 218 222 230
39.7562748 40.6087317 31.3967869 218 222 230
39.7562748 40.50091 31.4777398 218 222 230
39.7562748 40.3834383 31.5387085 218 222 230
39.7562748 40.2616083 31.57875 218 222 230
39.7562748 40.1648387 31.596103 218 222 230
39.7562748 40.0706577 31.6016025 218 222 230
44.5690357 40.8798564 5.00546511 218 222 230
33.2360055 40.8798564 5.00546511 218 222 230
44.3497857 0.28797743 5.00546511 218 222 230
33.2360055 0.605215209 5.00546511 218 222 230
44.5690357 40.8798564 5.00546511 255 79 163
45.2250623 40.8798564 5.07994071 255 79 163
45.8881585 40.8798564 5.31961607 255 79 163
46.4393872 40.8798564 5.68112181 255 79 163
46.7311944 40.8798564 5.95975199 255 79 163
47.0072875 40.8798564 6.31346589 255 79 163
47.2232526 40.8798564 6.69916115 255 79 163
47.3754597 40.8798564 7.1020723 255 79 163
47.4668329 40.8798564 7.52260409 255 79 163
47.4956157 40.8798564 7.93204505 255 79 163
47.4956157 -1.49602553e-14 8.15177157 255 79 163
44.3497857 0.28797743 5.00546511 255 79 163
45.1031468 0.240857727 5.09705888 255 79 163
45.7872924 0.198449994 5.35311191 255 79 163
46.3562922 0.160283035 5.72861268 255 79 163
46.8354228 0.122116076 6.22334338 255 79 163
47.1915012 0.0839491165 6.80202146 255 79 163
47.4093064 0.0457821572 7.41999213 255 79 163
47.4747883 0.0228910786 7.79085047 255 79 163
45.1369998 20.5839169 5.08275753 255 79 163
45.9952643 20.5603577 5.42414793 255 79 163
46.1550858 27.333524 5.50294775 255 79 163
46.4800706 20.5391528 5.77763467 255 79 163
47.0842182 27.306665 6.48413678 255 79 163
47.0004147 20.5200693 6.38258675 255 79 163
47.263377 20.5009867 6.88035643 255 79 163
47.4259386 20.481903 7.39873769 255 79 163
45.3632936 34.1066902 5.12170195 255 79 163
45.3183439 36.3644122 5.10659052 255 79 163
47.3995524 34.0932607 7.21112257 255 79 163
45.291373 29.5990991 5.10781507 255 79 163
47.0447226 18.2519815 6.46387222 255 79 163
46.8241663 18.2647036 6.15018217 255 79 163
46.7264303 17.1370208 6.03909928 255 79 163
46.5238274 17.1465621 5.83085439 255 79 163
46.9079563 17.127479 6.2649925 255 79 163
47.2389632 11.4183193 6.87092102 255 79 163
45.1358619 7.03051617 5.100356 255 79 163
45.9219281 13.7730549 5.40149851 255 79 163
46.9927947 4.63426176 6.43675425 255 79 163
46.9927179 6.89797247 6.43002431 255 79 163
47.097405 6.88652745 6.60359013 255 79 163
47.1707272 4.61390857 6.74985475 255 79 163
47.2783645 4.59864831 6.99291616 255 79 163
46.2011688 39.3747083 5.50479515 255 79 163
46.428647 39.3747083 5.67444369 255 79 163
46.6506786 39.3747083 5.8774108 255 79 163
46.2630436 38.6221343 5.54879236 255 79 163
46.0760569 38.6221343 5.42619235 255 79 163
46.8507234 39.3747083 6.10205441 255 79 163
46.4412861 38.6221343 5.68622829 255 79 163
46.6090813 38.6221343 5.83752613 255 79 163
46.8011337 30.3330083 6.06923585 255 79 163
46.308332 28.4528821 5.60781068 255 79 163
46.2579854 28.0797627 5.57182468 255 79 163
46.0327911 19.8029928 5.4488905 255 79 163
46.0514989 19.4243103 5.46154048 255 79 163
45.862733 18.8652395 5.35539651 255 79 163
46.215514 18.6650609 5.57309029 255 79 163
46.7735983 14.1062844 6.10653685 255 79 163
46.701512 12.5956871 6.02957644 255 79 163
46.2372293 10.7406301 5.61405469 255 79 163
46.4803478 8.45911258 5.82059776 255 79 163
46.8761661 6.90941784 6.2624925 255 79 163
46.6570091 6.92850226 5.99978767 255 79 163
46.224161 6.20624187 5.61576883 255 79 163
46.717891 4.65970717 6.07293059 255 79 163
45.947104 6.97950921 5.43187104 255 79 163
45.9846226 5.84511167 5.45630438 255 79 163
45.4466179 3.99273359 5.19992305 255 79 163
45.6022156 2.4738423 5.26382488 255 79 163
45.971383 2.45028313 5.45349756 255 79 163
45.4369451 1.72951456 5.19838108 255 79 163
45.9105021 1.69967184 5.41868853 255 79 163
45.3354514 40.3781404 5.10790238 255 79 163
45.3906588 40.1272824 5.12365604 255 79 163
45.3229057 39.7509954 5.10493139 255 79 163
45.623399 39.6255663 5.20306334 255 79 163
47.262897 40.1272824 6.7899335 255 79 163
47.395476 40.3781404 7.17413615 255 79 163
47.342451 40.1272824 6.99931631 255 79 163
47.2412966 39.1223582 6.7426875 255 79 163
46.1769713 37.3663521 5.49196103 255 79 163
47.3687686 38.9961831 7.0843542 255 79 163
46.2265774 36.738461 5.52667054 255 79 163
46.9591864 37.1125098 6.25162935 255 79 163
46.3709786 36.2352528 5.63418888 255 79 163
46.6404209 35.2288365 5.87668628 255 79 163
46.0180894 35.7966244 5.39691438 255 79 163
46.2523373 34.8547877 5.54878026 255 79 163
47.3795454 37.3618756 7.12569821 255 79 163
46.0513389 34.1033328 5.4198145 255 79 163
46.247374 32.5996833 5.55091877 255 79 163
46.659355 34.0999754 5.899228 255 79 163
46.9814177 34.4740242 6.29186176 255 79 163
47.1144823 34.6610486 6.50504051 255 79 163
47.1211579 34.0966181 6.51901428 255 79 163
46.8812234 33.5976398 6.15686232 255 79 163
46.9803985 33.346472 6.2943753 255 79 163
46.8744133 32.8463746 6.15069959 255 79 163
46.6352402 31.8461799 5.8818938 255 79 163
47.1133411 32.9697203 6.50946288 255 79 163
46.0045075 30.7226395 5.40045976 255 79 163
46.2937054 30.5927624 5.59019865 255 79 163
46.1078672 29.9660537 5.46473216 255 79 163
46.1756888 29.4616631 5.51029439 255 79 163
46.8251554 11.0794747 6.1817374 255 79 163
46.6897603 10.4611224 6.02433343 255 79 163
46.3873311 9.22441774 5.73686916 255 79 163
46.8835631 10.3213685 6.26076944 255 79 163
45.7875408 8.12746695 5.34268148 255 79 163
45.8410619 7.74481437 5.37122761 255 79 163
46.1296181 4.32622038 5.55223574 255 79 163
46.7837294 3.89948449 6.15224654 255 79 163
46.5384733 3.54227245 5.8869611 255 79 163
46.6667375 3.53209585 6.01841947 255 79 163
46.9133034 3.88761334 6.32159328 255 79 163
46.7576587 3.52446572 6.1216876 255 79 163
47.0464875 2.36490407 6.5280438 255 79 163
46.4463008 1.41130153 5.80465472 255 79 163
46.8991013 1.24803195 6.30685744 255 79 163
46.6825547 1.26711637 6.03955401 255 79 163
46.658511 0.891810724 6.01377653 255 79 163
46.7195438 0.635246147 6.08196584 255 79 163
47.0072354 0.860004502 6.46702428 255 79 163
47.0837498 37.992005 6.44145984 255 79 163
46.5748795 2.4075936 5.9247209 255 79 163
47.3892065 1.18245203 7.33850267 255 79 163
47.4255135 0.795931368 7.4900399 255 79 163
33.2360055 40.8798564 15.7234777 218 222 230
33.2360055 0.569031525 15.7234777 218 222 230
33.2360055 40.8798564 5.00546511 218 222 230
33.2360055 0.605215209 5.00546511 218 222 230
33.2360055 0.230833945 4.875775 218 222 230
33.2360055 0.350784504 4.94938601 218 222 230
33.2360055 0.47903757 4.99216599 218 222 230
47.4956157 40.8798564 11.7678797 218 222 230
47.4956157 40.8798564 7.93204505 218 222 230
47.4956157 0 12.0336183 218 222 230
47.4956157 -1.49602553e-14 8.15177157 218 222 230
33.2360055 40.8798564 15.7234777 218 222 230
43.5400177 40.8798564 15.7234777 218 222 230
33.2360055 0.569031525 15.7234777 218 222 230
32.666974 -5.55111512e-17 15.7234777 218 222 230
32.8058624 0.0172101085 15.7234777 218 222 230
32.9317431 0.0653508762 15.7234777 218 222 230
33.035885 0.135786159 15.7234777 218 222 230
33.0919792 0.190656831 15.7234777 218 222 230
33.1489032 0.266473883 15.7234777 218 222 230
33.1917761 0.349077956 15.7234777 218 222 230
33.2199344 0.434749473 15.7234777 218 222 230
33.2321378 0.502799569 15.7234777 218 222 230
33.2360055 0 15.7234777 218 222 230
43.8057562 0 15.7234777 218 222 230
47.4956157 40.8798564 11.7678797 255 79 163
47.3817295 40.8798564 12.7102201 255 79 163
47.0638003 40.8798564 13.5650194 255 79 163
46.5981909 40.8798564 14.2767304 255 79 163
46.2241647 40.8798564 14.6734107 255 79 163
45.7179339 40.8798564 15.0699148 255 79 163
45.1634458 40.8798564 15.3749888 255 79 163
44.5844082 40.8798564 15.5831128 255 79 163
44.0552867 40.8798564 15.6897738 255 79 163
43.5400177 40.8798564 15.7234777 255 79 163
43.8057562 0 15.7234777 255 79 163
47.4956157 0 12.0336183 255 79 163
47.38143 0 12.9444529 255 79 163
47.0624853 0 13.7682013 255 79 163
46.5968115 0 14.4471371 255 79 163
46.2383354 0 14.808077 255 79 163
45.7394056 0 15.1762386 255 79 163
45.196764 0 15.4512432 255 79 163
44.635072 0 15.6290734 255 79 163
44.2149915 0 15.7007137 255 79 163
42.9023489 40.5660712 21.2180321 218 222 230
42.9023489 0 21.2180321 218 222 230
42.6445403 40.8798564 20.9601785 218 222 230
42.707787 40.8703073 21.0234362 218 222 230
42.7710642 40.8396115 21.0867245 218 222 230
42.8221151 40.7938039 21.1377843 218 222 230
42.8590144 40.7405056 21.17469 218 222 230
42.884856 40.6799869 21.2005361 218 222 230
42.8981891 40.6224096 21.2138716 218 222 230
42.9023489 40.8798564 21.2180321 218 222 230
45.3548696 40.8798564 23.6709806 218 222 230
45.3548696 0.228362318 23.6709806 218 222 230
45.5402814 -3.58046925e-15 23.8564248 218 222 230
45.4922933 0.00778125729 23.8084283 218 222 230
45.4475755 0.0305947493 23.7637027 218 222 230
45.4091754 0.0668857743 23.725296 218 222 230
45.3821918 0.109043335 23.6983077 218 222 230
45.3653431 0.15269723 23.681456 218 222 230
45.3575067 0.189983914 23.6736182 218 222 230
45.3548696 0 23.6709806 218 222 230
42.6445403 40.8798564 20.9601785 255 79 163
42.707787 40.8703073 21.0234362 255 79 163
42.7710642 40.8396115 21.0867245 255 79 163
42.8221151 40.7938039 21.1377843 255 79 163
42.8590144 40.7405056 21.17469 255 79 163
42.884856 40.6799869 21.2005361 255 79 163
42.8981891 40.6224096 21.2138716 255 79 163
42.9023489 40.5660712 21.2180321 255 79 163
41.9762694 40.7249766 24.6111504 255 79 163
41.8043143 40.8798564 24.6590007 255 79 163
41.8459778 40.8752112 24.6474069 255 79 163
41.8879802 40.8601866 24.6357188 255 79 163
41.9221206 40.8376328 24.6262185 255 79 163
41.9469467 40.811286 24.6193101 255 79 163
41.9644108 40.781314 24.6144503 255 79 163
41.9734469 40.752807 24.6119358 255 79 163
42.8136863 40.7879508 21.1938335 255 79 163
41.9325068 40.8344931 24.5992063 255 79 163
45.3548696 40.8798564 23.6709806 218 222 230
45.3548696 0.228362318 23.6709806 218 222 230
41.9762694 40.8798564 24.6111504 218 222 230
41.8043143 40.8798564 24.6590007 218 222 230
41.8459778 40.8752112 24.6474069 218 222 230
41.8879802 40.8601866 24.6357188 218 222 230
41.9221206 40.8376328 24.6262185 218 222 230
41.9469467 40.811286 24.6193101 218 222 230
41.9644108 40.781314 24.6144503 218 222 230
41.9734469 40.752807 24.6119358 218 222 230
41.9762694 40.7249766 24.6111504 218 222 230
41.9762694 0.228362318 24.6111504 218 222 230
39.7562748 0 31.6016025 218 222 230
39.7562748 40.0706577 31.6016025 218 222 230
79.7287826 0 31.6016025 218 222 230
79.8371453 8.51830501 31.6016025 218 222 230
80.0995376 20.0048028 31.6016025 218 222 230
80.3703773 31.6281744 31.6016025 218 222 230
80.4878306 40.0096055 31.6016025 218 222 230
81.865936 0.958978908 3.29810549 255 79 163
81.7524282 0.501051011 2.4401804 255 79 163
81.4855113 0.188082743 1.76020536 255 79 163
81.2147586 0.0465449993 1.33038366 255 79 163
80.9240988 -5.55111512e-17 0.990246644 255 79 163
81.865936 1.31115432 29.4736315 255 79 163
81.7648287 0.809882831 30.1184948 255 79 163
81.5197632 0.428216238 30.6324237 255 79 163
81.2139075 0.181898176 31.0018977 255 79 163
80.9209959 0.0549624538 31.2383105 255 79 163
80.7318699 0.0135274528 31.3516053 255 79 163
80.5427519 0 31.4405256 255 79 163
81.3895949 0.12502379 1.71521352 255 79 163
81.5878157 0.278120212 2.14417607 255 79 163
81.5944452 0.516210571 30.3442173 255 79 163
81.4799528 0.385983126 30.4570786 255 79 163
81.3513449 0.273913601 30.7304814 255 79 163
81.2583151 0.208611842 30.7795102 255 79 163
81.0569578 0.103316683 31.0364747 255 79 163
81.7373474 0.51435422 7.6038657 255 79 163
81.692993 0.427063129 5.78396916 255 79 163
81.7925884 0.660127966 10.3337105 255 79 163
81.7103574 0.622314047 21.4040876 255 79 163
81.5274879 0.338448052 17.3693156 255 79 163
81.6810233 0.456621146 10.8590157 255 79 163
81.3199988 0.136484293 11.9096259 255 79 163
81.3253047 0.218933327 23.4046429 255 79 163
81.0702542 0.0884090827 24.4049206 255 79 163
81.2103729 0.163890757 26.4223066 255 79 163
81.3033532 0.227822775 27.7672306 255 79 163
81.7736321 0.830734892 29.9653551 255 79 163
81.0313933 0.0927269668 30.9488021 255 79 163
81.3373849 0.102327475 3.3871079 255 79 163
81.7225851 0.679056554 24.7607873 255 79 163
81.5942449 0.493563582 26.433527 255 79 163
81.7291267 0.706659128 26.4391372 255 79 163
81.5911307 0.499220934 27.8877229 255 79 163
81.7000793 0.663426429 27.9479691 255 79 163
81.7268693 0.718319626 28.6204311 255 79 163
81.7434868 0.755464302 29.0687391 255 79 163
81.7393931 0.481220988 3.04179793 255 79 163
81.7325621 0.471396397 3.34260669 255 79 163
81.7201338 0.456386671 4.15639418 255 79 163
44.3497857 2.77555756e-17 4.71748768 255 79 163
33.0089008 -5.55111512e-17 4.39870421 255 79 163
44.3497857 0.000546517717 4.73522101 255 79 163
44.3497857 0.00223638353 4.75330743 255 79 163
44.3497857 0.00497719665 4.77079685 255 79 163
44.3497857 0.00878292204 4.7880669 255 79 163
44.3497857 0.0136360093 4.80505357 255 79 163
44.3497857 0.0195151283 4.82169417 255 79 163
44.3497857 0.0263952608 4.83792758 255 79 163
44.3497857 0.0342478062 4.85369443 255 79 163
44.3497857 0.0430407 4.86893734 255 79 163
44.3497857 0.0527385446 4.88360109 255 79 163
44.3497857 0.0633027528 4.89763287 255 79 163
44.3497857 0.0746917017 4.91098238 255 79 163
44.3497857 0.0868608985 4.92360207 255 79 163
44.3497857 0.093942095 4.93028168 255 79 163
44.3497857 0.101239237 4.93671324 255 79 163
44.3497857 0.108751001 4.94289595 255 79 163
44.3497857 0.116452334 4.94881027 255 79 163
44.3497857 0.132428108 4.95984157 255 79 163
44.3497857 0.149091375 4.96976067 255 79 163
44.3497857 0.157677204 4.97430055 255 79 163
44.3497857 0.166364204 4.97852642 255 79 163
44.3497857 0.175230602 4.98247665 255 79 163
44.3497857 0.184166289 4.98610311 255 79 163
44.3497857 0.193272536 4.9894472 255 79 163
44.3497857 0.202415329 4.99246064 255 79 163
44.3497857 0.221027414 4.99757462 255 79 163
44.3497857 0.239917419 5.00142647 255 79 163
44.3497857 0.249490738 5.00288175 255 79 163
44.3497857 0.2589994 5.00400343 255 79 163
44.3497857 0.273610679 5.00510652 255 79 163
44.3497857 0.28797743 5.00546511 255 79 163
33.2360055 0.605215209 5.00546511 255 79 163
33.2360055 0.230833945 4.875775 255 79 163
33.2360055 0.350784504 4.94938601 255 79 163
33.2360055 0.47903757 4.99216599 255 79 163
33.1047653 0.0215966783 4.55967375 255 79 163
33.1751651 0.0736278419 4.68922539 255 79 163
33.2166381 0.137582399 4.78435035 255 79 163
33.2311991 0.183606343 4.83443093 255 79 163
33.2360055 0.177263431 4.82820168 255 79 163
38.7832119 0.0259173085 4.68151159 255 79 163
38.7928956 0.0399515898 4.71787296 255 79 163
38.7928956 0.0336407934 4.70269797 255 79 163
41.5713407 0.154738779 4.93048024 255 79 163
41.5713407 0.160461823 4.93463544 255 79 163
41.5713407 0.169486053 4.94086753 255 79 163
41.5713407 0.178659397 4.94682165 255 79 163
36.937371 0.155346504 4.84676977 255 79 163
36.0096087 0.190307444 4.86606244 255 79 163
36.0096087 0.242324447 4.9066139 255 79 163
36.0144505 0.261840173 4.91951825 255 79 163
33.0089008 -5.55111512e-17 4.39870421 255 79 163
33.1047653 0.0215966783 4.55967375 255 79 163
33.1751651 0.0736278419 4.68922539 255 79 163
33.2166381 0.137582399 4.78435035 255 79 163
33.2311991 0.183606343 4.83443093 255 79 163
33.2360055 0.230833945 4.875775 255 79 163
33.2360055 0.569031525 15.7234777 255 79 163
32.666974 -5.55111512e-17 15.7234777 255 79 163
32.8058624 0.0172101085 15.7234777 255 79 163
32.9317431 0.0653508762 15.7234777 255 79 163
33.035885 0.135786159 15.7234777 255 79 163
33.0919792 0.190656831 15.7234777 255 79 163
33.1489032 0.266473883 15.7234777 255 79 163
33.1917761 0.349077956 15.7234777 255 79 163
33.2199344 0.434749473 15.7234777 255 79 163
33.2321378 0.502799569 15.7234777 255 79 163
32.8508457 -6.9917891e-18 10.0610909 255 79 163
33.1679858 0.0680196622 5.00546511 255 79 163
33.1516024 0.0844031307 7.46843297 255 79 163
33.1859782 0.200108996 10.2201145 255 79 163
32.9717585 0.0575152465 12.8922843 255 79 163
33.0071023 0.0781071492 12.8922843 255 79 163
33.0409258 0.101766663 12.8922843 255 79 163
33.06651 0.122681444 12.8922843 255 79 163
33.0906988 0.145306694 12.8922843 255 79 163
33.0375517 0.0496134358 10.1406027 255 79 163
44.0428853 0.151560918 27.7796137 218 222 230
44.0428853 5.90626308 27.7796137 218 222 230
44.2168936 -2.77555756e-17 27.8441287 218 222 230
44.171857 0.00516431306 27.827431 218 222 230
44.1298895 0.0203053128 27.8118712 218 222 230
44.0938512 0.0443911652 27.7985097 218 222 230
44.0685271 0.072370556 27.7891207 218 222 230
44.0527147 0.101343044 27.7832581 218 222 230
44.0453602 0.126089701 27.7805313 218 222 230
44.0428853 0 27.7796137 218 222 230
42.4768289 0 27.1989864 218 222 230
42.417011 5.90626308 27.1768085 218 222 230
42.4768289 0 27.1989864 255 79 163
42.3735305 0 27.1741857 255 79 163
42.267296 0 27.1745267 255 79 163
42.1641582 0 27.1999902 255 79 163
42.0699719 0 27.2491308 255 79 163
41.990086 0 27.319157 255 79 163
41.9290333 0 27.4060949 255 79 163
41.8902806 0 27.5050091 255 79 163
41.8760284 0 27.6102833 255 79 163
41.8792687 0 27.671111 255 79 163
41.8907694 0 27.7309281 255 79 163
41.8744727 5.90626308 27.6692478 255 79 163
42.417011 5.90626308 27.1768085 255 79 163
42.3213838 5.90626308 27.1538495 255 79 163
42.2230385 5.90626308 27.1541651 255 79 163
42.1275598 5.90626308 27.1777376 255 79 163
42.0403682 5.90626308 27.2232286 255 79 163
41.9664144 5.90626308 27.2880546 255 79 163
41.9098953 5.90626308 27.3685366 255 79 163
41.8740202 5.90626308 27.4601054 255 79 163
41.8608263 5.90626308 27.557562 255 79 163
41.863826 5.90626308 27.6138727 255 79 163
42.2314668 0.151560918 29.0204099 218 222 230
42.2314668 5.90626308 29.0204099 218 222 230
41.8744727 5.90626308 27.6692478 218 222 230
41.8907694 0 27.7309281 218 222 230
42.2314668 0 29.0204099 218 222 230
42.2725665 -2.77555756e-17 29.1759654 218 222 230
42.2619291 0.00516431306 29.1357047 218 222 230
42.2529554 0.0183665897 29.1017407 218 222 230
42.2457927 0.0365711781 29.0746309 218 222 230
42.2398294 0.0599273212 29.0520608 218 222 230
42.2353327 0.0873886609 29.0350417 218 222 230
42.2325041 0.117724926 29.0243359 218 222 230
42.2317269 0.134535153 29.0213945 218 222 230
44.2168936 -2.77555756e-17 27.8441287 255 79 163
42.2725665 -2.77555756e-17 29.1759654 255 79 163
42.2619291 0.00516431306 29.1357047 255 79 163
42.2529554 0.0183665897 29.1017407 255 79 163
42.2457927 0.0365711781 29.0746309 255 79 163
42.2398294 0.0599273212 29.0520608 255 79 163
42.2353327 0.0873886609 29.0350417 255 79 163
42.2325041 0.117724926 29.0243359 255 79 163
42.2317269 0.134535153 29.0213945 255 79 163
42.2314668 0.151560918 29.0204099 255 79 163
44.0428853 0.151560918 27.7796137 255 79 163
44.171857 0.00516431306 27.827431 255 79 163
44.1298895 0.0203053128 27.8118712 255 79 163
44.0938512 0.0443911652 27.7985097 255 79 163
44.0685271 0.072370556 27.7891207 255 79 163
44.0527147 0.101343044 27.7832581 255 79 163
44.0453602 0.126089701 27.7805313 255 79 163
41.9762694 40.7249766 24.6111504 218 222 230
41.9762694 0.228362318 24.6111504 218 222 230
42.9023489 40.5660712 21.2180321 218 222 230
42.9023489 0 21.2180321 218 222 230
41.9762694 0 24.6111504 218 222 230
41.9062573 -3.58046925e-15 24.8676719 218 222 230
41.9243778 0.00778125729 24.8012793 218 222 230
41.9412634 0.0305947493 24.7394112 218 222 230
41.9557633 0.0668857743 24.6862838 218 222 230
41.9659524 0.109043335 24.6489514 218 222 230
41.9723146 0.15269723 24.6256408 218 222 230
41.9752736 0.189983914 24.6147989 218 222 230
41.9062573 -3.58046925e-15 24.8676719 255 79 163
41.9243778 0.00778125729 24.8012793 255 79 163
41.9412634 0.0305947493 24.7394112 255 79 163
41.9557633 0.0668857743 24.6862838 255 79 163
41.9659524 0.109043335 24.6489514 255 79 163
41.9723146 0.15269723 24.6256408 255 79 163
41.9752736 0.189983914 24.6147989 255 79 163
41.9762694 0.228362318 24.6111504 255 79 163
45.3548696 0.228362318 23.6709806 255 79 163
45.5402814 -3.58046925e-15 23.8564248 255 79 163
45.4922933 0.00778125729 23.8084283 255 79 163
45.4475755 0.0305947493 23.7637027 255 79 163
45.4091754 0.0668857743 23.725296 255 79 163
45.3821918 0.109043335 23.6983077 255 79 163
45.3653431 0.15269723 23.681456 255 79 163
45.3575067 0.189983914 23.6736182 255 79 163
44.0428853 0.151560918 27.7796137 218 222 230
44.0428853 5.90626308 27.7796137 218 222 230
42.2314668 5.90626308 29.0204099 218 222 230
42.2314668 0.151560918 29.0204099 218 222 230
42.2314668 5.90626308 29.0204099 218 222 230
41.8744727 5.90626308 27.6692478 218 222 230
42.417011 5.90626308 27.1768085 218 222 230
42.3213838 5.90626308 27.1538495 218 222 230
42.2230385 5.90626308 27.1541651 218 222 230
42.1275598 5.90626308 27.1777376 218 222 230
42.0403682 5.90626308 27.2232286 218 222 230
41.9664144 5.90626308 27.2880546 218 222 230
41.9098953 5.90626308 27.3685366 218 222 230
41.8740202 5.90626308 27.4601054 218 222 230
41.8608263 5.90626308 27.557562 218 222 230
41.863826 5.90626308 27.6138727 218 222 230
44.0428853 5.90626308 27.7796137 218 222 230
3 9 7 8
3 6 7 9
3 10 6 9
3 5 6 10
3 11 5 10
3 3 11 12
3 4 11 3
3 4 5 11
3 0 4 3
3 1 3 2
3 1 0 3
3 20 18 19
3 17 18 20
3 21 17 20
3 16 17 21
3 22 16 21
3 15 16 22
3 24 22 23
3 24 15 22
3 25 15 24
3 13 14 15
3 13 15 25
3 37 26 27
3 38 27 28
3 38 37 27
3 39 28 29
3 39 38 28
3 40 29 30
3 40 39 29
3 41 40 30
3 42 30 31
3 42 41 30
3 43 31 32
3 43 42 31
3 44 32 33
3 44 43 32
3 45 33 34
3 45 44 33
3 36 34 35
3 36 45 34
3 59 56 55
3 57 56 73
3 93 56 59
3 93 73 56
3 72 57 73
3 74 57 72
3 75 57 74
3 58 75 76
3 58 76 77
3 58 77 78
3 58 78 79
3 58 79 80
3 58 80 81
3 58 81 82
3 58 82 83
3 58 83 84
3 58 57 75
3 95 90 91
3 95 91 92
3 95 92 93
3 94 89 90
3 94 90 95
3 60 95 93
3 60 93 59
3 98 95 60
3 98 60 61
3 98 61 62
3 98 62 63
3 98 63 64
3 98 64 65
3 66 98 65
3 67 98 66
3 67 97 98
3 96 89 94
3 96 85 86
3 96 86 87
3 96 87 88
3 96 88 89
3 68 97 67
3 68 96 97
3 51 50 49
3 52 49 48
3 52 51 49
3 54 53 52
3 54 52 48
3 46 48 58
3 46 54 48
3 47 85 96
3 47 84 85
3 47 46 58
3 47 58 84
3 70 71 47
3 69 96 68
3 69 70 47
3 69 47 96
3 105 104 103
3 102 105 103
3 106 105 102
3 101 106 102
3 107 106 101
3 109 108 107
3 99 107 101
3 99 109 107
3 112 99 100
3 112 109 99
3 113 110 109
3 113 109 112
3 114 110 113
3 111 110 114
3 135 116 115
3 135 117 116
3 135 118 117
3 136 119 118
3 136 118 135
3 137 120 119
3 137 121 120
3 137 122 121
3 137 123 122
3 137 124 123
3 137 119 136
3 138 136 135
3 139 136 138
3 139 137 136
3 140 137 139
3 141 137 140
3 142 125 124
3 142 124 137
3 142 137 141
3 143 115 132
3 143 140 139
3 143 135 115
3 143 142 141
3 143 138 135
3 143 141 140
3 143 139 138
3 144 126 125
3 145 126 144
3 146 132 133
3 147 127 126
3 148 127 147
3 149 133 134
3 149 148 133
3 150 128 127
3 150 134 131
3 150 127 151
3 150 151 134
3 152 129 128
3 152 130 129
3 152 131 130
3 152 128 150
3 152 150 131
3 153 125 142
3 153 142 143
3 154 125 153
3 155 125 154
3 156 157 132
3 158 156 132
3 158 145 144
3 158 132 146
3 158 146 145
3 159 126 145
3 159 145 146
3 160 133 148
3 160 148 147
3 161 127 148
3 161 148 149
3 162 154 153
3 162 155 154
3 162 143 132
3 162 153 143
3 163 155 162
3 164 162 132
3 164 163 162
3 165 164 132
3 166 165 132
3 166 132 167
3 168 125 169
3 170 125 168
3 171 158 144
3 171 125 170
3 171 170 172
3 171 172 157
3 171 144 125
3 171 157 156
3 171 156 158
3 173 159 146
3 173 146 133
3 174 160 147
3 174 147 126
3 175 161 149
3 175 149 134
3 176 164 165
3 176 165 166
3 177 125 155
3 177 164 176
3 177 163 164
3 177 155 163
3 178 177 176
3 178 176 166
3 179 125 177
3 179 177 178
3 180 125 179
3 180 179 178
3 181 166 167
3 181 178 166
3 181 125 180
3 181 180 178
3 182 167 132
3 183 182 132
3 184 183 132
3 185 183 184
3 185 182 183
3 186 132 157
3 186 172 170
3 186 157 172
3 186 184 132
3 186 185 184
3 187 170 168
3 187 168 169
3 187 186 170
3 187 169 185
3 187 185 186
3 188 159 173
3 188 126 159
3 189 133 160
3 189 160 174
3 190 161 175
3 190 127 161
3 191 181 167
3 191 167 182
3 192 191 182
3 192 181 191
3 192 169 125
3 192 125 181
3 192 185 169
3 192 182 185
3 193 173 133
3 193 133 194
3 193 188 173
3 195 189 174
3 195 126 194
3 195 174 126
3 196 190 175
3 196 175 134
3 196 134 151
3 197 188 193
3 197 194 126
3 197 126 188
3 197 193 194
3 198 189 195
3 198 195 194
3 198 133 189
3 198 194 133
3 199 196 151
3 199 151 127
3 199 127 190
3 199 190 196
3 207 209 208
3 207 215 209
3 206 213 214
3 206 214 215
3 206 215 207
3 205 213 206
3 204 212 213
3 204 213 205
3 203 211 212
3 203 212 204
3 202 210 211
3 202 211 203
3 201 200 210
3 201 210 202
3 250 226 249
3 248 227 226
3 248 226 250
3 380 244 243
3 380 245 244
3 380 246 245
3 380 247 246
3 228 248 247
3 228 227 248
3 228 247 380
3 378 229 228
3 378 230 229
3 378 228 380
3 379 231 230
3 379 232 231
3 379 233 232
3 379 230 378
3 381 380 243
3 381 242 241
3 381 243 242
3 373 234 233
3 372 233 379
3 372 373 233
3 374 234 373
3 374 235 234
3 371 372 379
3 375 235 374
3 382 381 241
3 382 240 239
3 382 241 240
3 370 371 379
3 376 235 375
3 369 370 379
3 377 235 376
3 368 235 377
3 363 369 379
3 367 235 368
3 216 235 367
3 366 216 367
3 364 379 382
3 364 363 379
3 365 216 366
3 365 364 382
3 225 236 237
3 225 238 236
3 225 237 252
3 225 252 253
3 225 253 254
3 225 254 255
3 225 255 256
3 225 256 257
3 225 257 258
3 225 258 259
3 225 259 260
3 225 260 261
3 225 261 262
3 225 262 263
3 225 263 264
3 225 264 265
3 225 265 266
3 225 266 267
3 225 267 268
3 225 268 269
3 225 269 270
3 225 270 271
3 225 271 272
3 225 272 273
3 225 273 274
3 225 274 275
3 225 275 276
3 225 276 277
3 225 277 278
3 225 278 279
3 225 279 280
3 225 280 281
3 225 281 282
3 225 282 283
3 225 283 284
3 225 284 285
3 225 285 286
3 225 286 287
3 225 287 288
3 225 288 289
3 225 289 290
3 225 290 291
3 225 291 292
3 225 292 293
3 225 293 294
3 225 294 295
3 225 295 296
3 225 296 297
3 225 297 298
3 225 298 299
3 225 299 300
3 225 300 301
3 225 301 302
3 225 302 303
3 225 303 304
3 225 304 305
3 225 305 306
3 225 306 307
3 225 307 308
3 225 308 309
3 225 309 310
3 225 310 311
3 225 311 312
3 225 312 313
3 225 313 314
3 225 314 315
3 225 315 316
3 225 316 317
3 225 317 318
3 225 318 319
3 225 319 320
3 225 320 321
3 225 321 322
3 225 322 323
3 225 323 324
3 225 324 325
3 225 325 326
3 225 326 327
3 225 327 328
3 225 328 329
3 225 329 330
3 225 330 331
3 225 331 332
3 225 332 333
3 225 333 334
3 225 334 335
3 225 335 336
3 225 336 337
3 225 337 338
3 225 338 339
3 225 339 340
3 225 340 341
3 225 341 342
3 225 342 343
3 225 343 344
3 225 344 345
3 225 345 346
3 225 346 347
3 225 347 348
3 225 348 349
3 225 349 350
3 225 350 351
3 225 351 352
3 225 352 353
3 225 353 354
3 225 354 355
3 225 355 356
3 225 356 357
3 225 357 358
3 225 358 359
3 225 359 360
3 225 360 361
3 222 224 223
3 221 225 224
3 221 224 222
3 217 239 238
3 217 238 225
3 217 382 239
3 217 365 382
3 217 216 365
3 217 225 221
3 219 220 217
3 218 217 221
3 218 219 217
3 225 249 226
3 225 251 249
3 225 362 251
3 225 361 362
3 388 383 384
3 387 389 383
3 387 383 388
3 386 389 387
3 385 389 386
3 410 396 397
3 411 395 396
3 411 396 410
3 412 395 411
3 413 412 411
3 414 402 395
3 414 395 412
3 415 402 414
3 416 412 413
3 416 415 414
3 416 414 412
3 417 415 416
3 418 401 402
3 418 415 417
3 418 402 415
3 419 401 418
3 419 418 417
3 420 400 401
3 420 401 419
3 421 403 399
3 422 403 421
3 423 391 392
3 423 392 393
3 424 393 404
3 424 423 393
3 425 397 398
3 425 410 397
3 426 419 417
3 427 419 426
3 427 420 419
3 428 420 427
3 429 420 428
3 429 400 420
3 430 400 429
3 431 399 400
3 431 400 430
3 432 433 394
3 434 394 390
3 434 432 394
3 434 435 432
3 436 438 437
3 439 421 440
3 439 438 436
3 439 440 438
3 439 442 441
3 439 441 421
3 443 434 390
3 443 444 434
3 445 443 390
3 445 446 443
3 447 445 390
3 448 447 390
3 449 399 431
3 449 431 430
3 450 451 433
3 452 399 449
3 453 433 432
3 453 450 433
3 454 453 432
3 454 455 450
3 454 450 453
3 456 399 452
3 457 455 454
3 458 454 432
3 458 457 454
3 459 440 421
3 459 421 399
3 459 460 455
3 459 399 456
3 459 456 460
3 461 432 435
3 462 461 435
3 463 440 462
3 463 462 435
3 463 438 440
3 464 463 435
3 464 438 463
3 464 437 438
3 464 435 434
3 465 437 464
3 465 464 434
3 466 465 434
3 467 437 465
3 467 465 466
3 467 466 436
3 467 436 437
3 468 466 434
3 469 436 466
3 469 468 442
3 469 439 436
3 469 466 468
3 469 442 439
3 470 442 468
3 470 468 434
3 470 434 444
3 471 442 470
3 472 442 471
3 472 441 442
3 472 421 441
3 473 470 444
3 473 471 470
3 474 472 471
3 474 471 473
3 475 421 472
3 475 472 474
3 475 422 421
3 476 444 443
3 477 476 443
3 478 476 477
3 478 480 479
3 478 479 476
3 478 477 481
3 482 422 475
3 482 475 480
3 482 480 478
3 482 478 481
3 482 481 483
3 482 483 422
3 484 481 477
3 484 477 443
3 484 443 446
3 485 481 484
3 486 484 446
3 486 485 484
3 487 481 485
3 487 483 481
3 487 422 483
3 488 485 486
3 488 487 485
3 489 488 486
3 489 486 446
3 490 488 489
3 490 422 487
3 490 487 488
3 491 422 490
3 492 494 493
3 495 494 492
3 496 494 495
3 497 493 498
3 497 492 493
3 497 405 406
3 499 492 497
3 499 496 495
3 499 497 406
3 499 495 492
3 500 496 499
3 500 406 407
3 500 499 406
3 501 500 407
3 501 407 408
3 501 496 500
3 502 398 394
3 502 425 398
3 503 502 394
3 504 433 451
3 504 394 433
3 504 503 394
3 505 428 427
3 505 429 428
3 505 430 429
3 505 417 416
3 505 449 430
3 505 427 426
3 505 426 417
3 506 449 505
3 507 449 506
3 507 506 508
3 507 452 449
3 509 508 451
3 509 507 508
3 510 451 450
3 510 509 451
3 510 455 460
3 510 450 455
3 511 452 507
3 511 510 460
3 511 509 510
3 511 507 509
3 511 460 456
3 511 456 452
3 512 458 432
3 513 512 432
3 514 461 515
3 514 432 461
3 514 513 432
3 516 459 455
3 516 517 459
3 516 455 457
3 518 512 513
3 518 514 515
3 518 513 514
3 518 515 519
3 520 515 461
3 521 517 519
3 521 440 459
3 521 515 520
3 521 459 517
3 521 519 515
3 522 462 440
3 522 461 462
3 522 520 461
3 522 440 521
3 522 521 520
3 523 473 444
3 523 475 474
3 523 474 473
3 524 523 444
3 524 475 523
3 525 479 480
3 525 476 479
3 525 480 475
3 525 524 444
3 525 444 476
3 525 475 524
3 526 490 489
3 526 446 445
3 526 489 446
3 527 491 490
3 528 491 527
3 529 530 447
3 529 447 448
3 529 448 531
3 529 528 530
3 532 528 529
3 532 529 531
3 532 491 528
3 533 491 532
3 533 532 531
3 533 531 534
3 535 448 390
3 536 535 390
3 537 390 391
3 537 391 423
3 537 536 390
3 537 423 424
3 538 498 535
3 538 497 498
3 538 536 537
3 538 535 536
3 539 494 496
3 540 403 422
3 540 422 491
3 541 497 538
3 541 404 405
3 541 537 424
3 541 405 497
3 541 538 537
3 541 424 404
3 542 408 409
3 542 409 403
3 542 539 496
3 542 403 540
3 542 540 539
3 542 496 501
3 542 501 408
3 543 425 502
3 543 413 411
3 543 411 410
3 543 410 425
3 544 413 543
3 544 502 503
3 544 543 502
3 545 506 505
3 545 416 413
3 545 413 544
3 545 505 416
3 546 503 504
3 547 506 545
3 547 544 503
3 547 545 544
3 547 503 546
3 548 506 547
3 548 546 504
3 548 547 546
3 549 506 548
3 549 508 506
3 549 451 508
3 549 548 504
3 549 504 451
3 550 519 517
3 550 458 512
3 550 518 519
3 550 512 518
3 550 517 516
3 550 516 457
3 550 457 458
3 551 490 526
3 551 526 445
3 551 527 490
3 552 527 551
3 552 445 447
3 552 551 445
3 553 552 447
3 553 447 530
3 553 527 552
3 553 528 527
3 553 530 528
3 554 448 535
3 554 531 448
3 554 534 531
3 555 554 535
3 555 534 554
3 556 494 534
3 556 535 498
3 556 498 493
3 556 534 555
3 556 555 535
3 556 493 494
3 557 534 494
3 557 533 534
3 557 540 491
3 557 491 533
3 558 494 539
3 558 539 540
3 558 540 557
3 558 557 494
3 585 562 561
3 586 561 560
3 586 585 561
3 587 563 562
3 588 562 585
3 588 587 562
3 589 564 563
3 589 565 564
3 590 563 587
3 590 589 563
3 591 588 585
3 591 585 586
3 592 588 591
3 592 590 587
3 592 587 588
3 593 566 565
3 593 565 589
3 593 589 590
3 594 567 566
3 594 568 567
3 594 593 590
3 594 592 591
3 594 566 593
3 594 590 592
3 595 594 591
3 595 568 594
3 596 572 571
3 597 598 584
3 597 584 581
3 599 600 598
3 599 596 600
3 599 598 597
3 599 572 596
3 601 577 576
3 601 578 577
3 602 576 575
3 602 601 576
3 603 601 602
3 603 602 575
3 604 603 575
3 605 575 574
3 605 604 575
3 606 560 559
3 606 586 560
3 607 595 591
3 607 586 606
3 607 591 586
3 607 606 559
3 608 607 559
3 609 595 607
3 609 607 608
3 610 559 582
3 610 582 611
3 610 608 559
3 610 611 612
3 613 569 568
3 613 568 595
3 613 595 612
3 614 569 613
3 615 611 582
3 616 569 614
3 616 614 617
3 618 619 615
3 618 615 582
3 620 621 619
3 622 619 618
3 623 569 620
3 623 620 619
3 623 619 622
3 623 624 569
3 625 626 582
3 627 624 626
3 627 626 625
3 628 582 583
3 628 625 582
3 628 583 629
3 628 629 630
3 631 570 569
3 631 569 624
3 631 624 630
3 632 570 631
3 633 629 583
3 634 635 629
3 634 632 635
3 634 570 632
3 636 633 637
3 638 637 633
3 638 633 583
3 639 636 637
3 640 638 583
3 640 637 638
3 641 640 583
3 642 643 570
3 642 639 637
3 642 637 640
3 642 570 639
3 644 641 583
3 645 643 641
3 645 641 644
3 646 648 647
3 646 584 648
3 646 583 584
3 646 644 583
3 649 647 648
3 650 570 643
3 650 643 647
3 650 571 570
3 650 647 649
3 651 571 650
3 651 650 649
3 652 571 651
3 653 571 652
3 653 652 654
3 653 596 571
3 655 596 653
3 655 654 656
3 655 656 584
3 655 653 654
3 657 596 655
3 657 655 584
3 658 584 598
3 658 598 600
3 658 600 596
3 658 657 584
3 658 596 657
3 659 599 597
3 660 605 574
3 661 595 609
3 661 609 608
3 661 610 612
3 661 612 595
3 661 608 610
3 662 613 612
3 662 614 613
3 662 611 617
3 662 617 614
3 662 612 611
3 663 611 615
3 663 617 611
3 663 616 617
3 664 663 615
3 664 615 619
3 664 619 621
3 664 621 616
3 664 616 663
3 665 621 620
3 665 569 616
3 665 616 621
3 665 620 569
3 666 618 582
3 666 626 622
3 666 582 626
3 666 622 618
3 667 622 626
3 667 626 624
3 667 623 622
3 667 624 623
3 668 628 630
3 668 625 628
3 668 624 627
3 668 630 624
3 668 627 625
3 669 631 630
3 669 629 635
3 669 635 632
3 669 632 631
3 669 630 629
3 670 629 633
3 670 634 629
3 670 633 636
3 670 636 634
3 671 570 634
3 671 634 636
3 671 636 639
3 671 639 570
3 672 640 641
3 672 642 640
3 672 641 643
3 672 643 642
3 673 643 645
3 673 647 643
3 673 646 647
3 673 645 644
3 673 644 646
3 674 648 584
3 674 649 648
3 674 651 649
3 674 652 651
3 675 652 674
3 675 674 584
3 675 654 652
3 676 656 654
3 676 675 584
3 676 654 675
3 676 584 656
3 677 597 581
3 677 659 597
3 677 678 659
3 677 660 678
3 679 677 581
3 680 660 677
3 680 677 679
3 680 603 604
3 680 604 605
3 680 605 660
3 681 579 578
3 681 580 579
3 681 581 580
3 681 682 679
3 681 679 581
3 681 578 601
3 683 679 682
3 683 680 679
3 683 601 603
3 683 682 681
3 683 681 601
3 683 603 680
3 684 572 599
3 684 599 659
3 684 659 678
3 684 678 660
3 685 573 572
3 685 574 573
3 685 684 660
3 685 572 684
3 685 660 574
3 703 686 687
3 703 687 688
3 703 688 689
3 704 689 690
3 704 703 689
3 705 690 691
3 705 691 692
3 705 692 693
3 705 693 694
3 705 694 695
3 705 704 690
3 706 703 704
3 707 706 704
3 707 704 705
3 708 695 696
3 708 707 705
3 708 705 695
3 709 702 686
3 709 707 708
3 709 686 703
3 709 706 707
3 709 703 706
3 710 697 698
3 711 698 699
3 711 710 698
3 712 699 700
3 712 700 701
3 712 701 702
3 712 711 699
3 712 702 711
3 713 708 696
3 713 709 708
3 714 713 696
3 715 713 714
3 716 702 709
3 716 709 713
3 716 713 715
3 717 711 702
3 717 702 716
3 718 715 714
3 718 716 715
3 718 717 716
3 719 717 718
3 720 714 696
3 720 718 714
3 720 719 718
3 721 720 696
3 721 719 720
3 722 717 719
3 722 721 696
3 722 719 721
3 723 696 697
3 723 697 710
3 723 710 711
3 723 722 696
3 723 711 717
3 723 717 722
3 736 725 724
3 736 726 725
3 736 727 726
3 734 736 735
3 734 727 736
3 728 727 734
3 733 728 734
3 729 728 733
3 732 729 733
3 730 729 732
3 731 730 732
3 737 740 739
3 738 740 737
3 760 741 752
3 761 762 760
3 763 762 761
3 763 764 762
3 765 764 763
3 766 764 765
3 767 751 750
3 767 764 766
3 768 769 741
3 770 764 767
3 770 767 750
3 771 760 762
3 771 741 760
3 771 768 741
3 772 767 766
3 772 766 765
3 772 765 773
3 774 773 775
3 776 767 772
3 776 772 773
3 776 773 774
3 777 751 767
3 777 767 776
3 778 779 760
3 778 760 752
3 780 782 781
3 783 782 780
3 784 777 782
3 784 782 783
3 784 751 777
3 785 744 743
3 786 744 785
3 787 745 744
3 787 744 786
3 788 785 789
3 788 786 785
3 790 745 787
3 791 786 788
3 792 787 786
3 792 786 791
3 792 790 787
3 793 764 770
3 794 764 793
3 795 762 764
3 795 771 762
3 795 794 771
3 795 764 794
3 796 763 761
3 796 765 763
3 796 761 760
3 797 796 760
3 797 765 796
3 797 773 765
3 798 760 779
3 798 797 760
3 798 779 775
3 799 773 797
3 799 797 798
3 799 798 775
3 799 775 773
3 800 775 779
3 800 774 775
3 800 776 774
3 800 777 776
3 801 800 779
3 801 777 800
3 802 801 779
3 802 779 778
3 803 781 782
3 803 804 781
3 803 805 804
3 806 807 780
3 806 780 781
3 806 805 808
3 806 781 804
3 806 804 805
3 809 808 778
3 809 807 806
3 809 806 808
3 810 809 778
3 810 778 752
3 811 810 752
3 812 810 811
3 813 752 753
3 813 753 754
3 813 811 752
3 814 811 813
3 814 812 811
3 814 813 754
3 815 742 741
3 815 743 742
3 816 743 815
3 817 769 789
3 817 741 769
3 817 816 815
3 817 815 741
3 818 789 785
3 818 743 816
3 818 817 789
3 818 816 817
3 818 785 743
3 819 746 745
3 819 747 746
3 819 745 790
3 820 748 747
3 820 749 748
3 820 750 749
3 820 747 819
3 821 820 819
3 822 819 790
3 822 821 819
3 822 790 792
3 823 789 769
3 823 788 789
3 823 792 791
3 823 791 788
3 824 750 820
3 824 820 821
3 824 821 822
3 825 823 769
3 825 826 823
3 827 828 826
3 827 826 825
3 829 825 769
3 829 768 830
3 829 830 828
3 829 827 825
3 829 828 827
3 829 769 768
3 831 750 824
3 831 770 750
3 832 830 768
3 832 768 833
3 832 834 830
3 835 828 830
3 835 830 834
3 836 831 826
3 836 826 828
3 836 828 835
3 836 770 831
3 837 835 834
3 837 836 835
3 837 770 836
3 838 837 834
3 838 832 833
3 838 834 832
3 839 837 838
3 839 770 837
3 840 833 841
3 840 838 833
3 840 839 838
3 842 793 770
3 842 841 793
3 842 840 841
3 842 770 839
3 842 839 840
3 843 833 768
3 843 841 833
3 843 768 771
3 844 793 841
3 844 841 843
3 845 793 844
3 845 843 771
3 845 844 843
3 846 794 793
3 846 771 794
3 846 793 845
3 846 845 771
3 847 801 802
3 847 777 801
3 848 802 849
3 848 847 802
3 850 848 849
3 850 847 848
3 850 782 777
3 850 803 782
3 850 849 803
3 850 777 847
3 851 802 778
3 851 849 802
3 851 803 849
3 852 803 851
3 852 851 778
3 852 805 803
3 852 778 808
3 852 808 805
3 853 809 810
3 853 807 809
3 854 780 807
3 854 807 853
3 855 810 812
3 855 853 810
3 855 854 853
3 856 854 855
3 857 784 783
3 857 783 780
3 857 780 854
3 858 857 854
3 858 854 856
3 859 784 857
3 859 857 858
3 860 814 754
3 861 859 862
3 863 860 754
3 863 754 755
3 863 862 860
3 863 861 862
3 864 755 756
3 864 863 755
3 865 756 757
3 865 864 756
3 865 861 863
3 865 863 864
3 866 792 823
3 866 822 792
3 866 823 826
3 866 831 824
3 866 824 822
3 866 826 831
3 867 812 814
3 867 814 860
3 867 856 855
3 867 858 856
3 867 859 858
3 867 860 862
3 867 862 859
3 867 855 812
3 868 751 784
3 868 784 859
3 868 859 861
3 868 861 865
3 869 751 868
3 869 757 758
3 869 758 759
3 869 759 751
3 869 865 757
3 869 868 865
3 871 874 875
3 871 875 876
3 871 876 873
3 870 873 872
3 870 871 873
3 877 880 879
3 878 880 877
3 893 884 885
3 893 885 886
3 893 886 887
3 888 893 887
3 889 893 888
3 890 893 889
3 891 893 890
3 892 893 891
3 883 893 892
3 894 893 883
3 882 883 881
3 882 894 883
3 906 896 895
3 907 897 896
3 907 896 906
3 908 898 897
3 908 897 907
3 909 899 898
3 909 898 908
3 910 900 899
3 910 899 909
3 911 901 900
3 911 900 910
3 912 902 901
3 912 901 911
3 913 903 902
3 913 902 912
3 914 904 903
3 914 903 913
3 905 904 914
3 934 927 928
3 934 928 929
3 934 929 930
3 931 934 930
3 932 934 931
3 933 934 932
3 926 934 933
3 916 934 926
3 915 926 925
3 915 916 926
3 924 921 922
3 924 922 923
3 924 923 915
3 924 915 925
3 920 921 924
3 919 920 924
3 918 919 924
3 917 918 924
3 943 942 950
3 951 936 935
3 951 937 936
3 951 938 937
3 951 939 938
3 951 940 939
3 951 941 940
3 951 942 941
3 951 935 944
3 951 950 942
3 952 944 945
3 952 945 946
3 952 946 947
3 952 947 948
3 952 948 949
3 952 949 950
3 952 951 944
3 952 950 951
3 963 954 964
3 955 957 956
3 955 958 957
3 955 959 958
3 955 960 959
3 955 961 960
3 955 962 961
3 955 963 962
3 953 954 963
3 953 963 955
3 968 965 967
3 969 966 965
3 969 965 968
3 970 966 969
3 971 966 970
3 984 975 974
3 984 976 975
3 985 974 973
3 985 984 974
3 986 978 979
3 986 979 987
3 988 979 980
3 988 980 989
3 988 987 979
3 988 989 987
3 990 980 981
3 991 992 972
3 993 972 977
3 993 994 995
3 993 977 994
3 993 991 972
3 996 995 997
3 996 997 991
3 996 993 995
3 996 991 993
3 998 995 994
3 999 983 976
3 999 976 997
3 999 995 998
3 999 997 995
3 1000 983 999
3 1001 983 1000
3 1002 977 978
3 1002 978 986
3 1003 981 982
3 1003 982 983
3 1003 989 980
3 1003 990 981
3 1003 980 990
3 1003 987 989
3 1003 1001 987
3 1003 983 1001
3 1004 984 985
3 1004 992 991
3 1004 997 976
3 1004 976 984
3 1004 991 997
3 1005 994 977
3 1005 998 994
3 1005 999 998
3 1005 1000 999
3 1006 1001 1000
3 1006 1000 1005
3 1007 1005 977
3 1007 1006 1005
3 1008 1001 1006
3 1008 1006 1007
3 1009 1007 977
3 1009 1008 1007
3 1010 1001 1008
3 1010 1009 977
3 1010 1008 1009
3 1011 986 987
3 1011 977 1002
3 1011 987 1001
3 1011 1002 986
3 1011 1010 977
3 1011 1001 1010
3 1012 973 972
3 1012 1004 985
3 1012 985 973
3 1013 1012 972
3 1013 1004 1012
3 1014 1013 972
3 1014 1004 1013
3 1014 972 992
3 1014 992 1004
3 1056 1055 1054
3 1056 1049 1055
3 1057 1016 1015
3 1058 1057 1059
3 1060 1015 1017
3 1060 1017 1018
3 1060 1018 1019
3 1060 1019 1020
3 1060 1020 1021
3 1060 1021 1022
3 1060 1022 1023
3 1060 1023 1024
3 1060 1024 1025
3 1060 1025 1026
3 1060 1026 1027
3 1060 1027 1028
3 1060 1028 1029
3 1060 1029 1030
3 1060 1030 1031
3 1060 1031 1032
3 1060 1032 1033
3 1060 1058 1059
3 1060 1057 1015
3 1060 1059 1057
3 1061 1060 1033
3 1061 1058 1060
3 1062 1033 1034
3 1062 1061 1033
3 1062 1058 1061
3 1063 1058 1062
3 1063 1034 1035
3 1063 1035 1036
3 1063 1036 1037
3 1063 1037 1038
3 1063 1038 1039
3 1063 1039 1040
3 1063 1040 1041
3 1063 1041 1042
3 1063 1042 1043
3 1063 1043 1044
3 1063 1044 1045
3 1063 1045 1046
3 1063 1046 1047
3 1063 1062 1034
3 1064 1058 1063
3 1064 1057 1058
3 1064 1016 1057
3 1065 1052 1016
3 1065 1053 1052
3 1065 1054 1053
3 1065 1049 1056
3 1065 1056 1054
3 1065 1016 1064
3 1066 1050 1049
3 1066 1051 1050
3 1066 1048 1051
3 1066 1049 1065
3 1067 1063 1047
3 1067 1048 1066
3 1067 1065 1064
3 1067 1047 1048
3 1067 1066 1065
3 1067 1064 1063
3 1085 1068 1069
3 1085 1069 1070
3 1085 1070 1071
3 1085 1071 1072
3 1085 1072 1073
3 1086 1084 1068
3 1086 1085 1073
3 1086 1068 1085
3 1087 1073 1074
3 1087 1086 1073
3 1088 1076 1075
3 1088 1077 1076
3 1088 1075 1084
3 1089 1078 1077
3 1089 1077 1088
3 1089 1088 1087
3 1090 1089 1087
3 1090 1078 1089
3 1091 1090 1087
3 1091 1078 1090
3 1092 1079 1078
3 1092 1080 1079
3 1092 1081 1080
3 1092 1082 1081
3 1092 1083 1082
3 1092 1074 1083
3 1092 1087 1074
3 1092 1078 1091
3 1092 1091 1087
3 1093 1084 1086
3 1093 1086 1087
3 1093 1087 1088
3 1093 1088 1084
3 1094 1105 1104
3 1094 1095 1105
3 1103 1100 1101
3 1103 1101 1102
3 1103 1102 1094
3 1103 1094 1104
3 1099 1100 1103
3 1098 1099 1103
3 1097 1098 1103
3 1096 1097 1103
3 1119 1107 1106
3 1119 1106 1118
3 1120 1108 1107
3 1120 1107 1119
3 1121 1109 1108
3 1121 1108 1120
3 1122 1110 1109
3 1122 1109 1121
3 1123 1111 1110
3 1123 1110 1122
3 1124 1112 1111
3 1124 1111 1123
3 1125 1113 1112
3 1125 1112 1124
3 1126 1114 1113
3 1126 1113 1125
3 1127 1115 1114
3 1127 1114 1126
3 1117 1116 1115
3 1117 1115 1127
3 1128 1130 1129
3 1132 1134 1133
3 1132 1135 1134
3 1132 1136 1135
3 1132 1137 1136
3 1132 1138 1137
3 1132 1139 1138
3 1132 1140 1139
3 1131 1128 1140
3 1131 1130 1128
3 1131 1140 1132
3 1149 1150 1151
3 1149 1151 1157
3 1148 1157 1156
3 1148 1149 1157
3 1147 1156 1155
3 1147 1148 1156
3 1146 1155 1154
3 1146 1147 1155
3 1145 1154 1153
3 1145 1146 1154
3 1144 1153 1152
3 1144 1145 1153
3 1143 1144 1152
3 1142 1152 1141
3 1142 1143 1152
3 1167 1166 1162
3 1165 1162 1166
3 1168 1167 1162
3 1169 1168 1162
3 1164 1162 1165
3 1159 1162 1161
3 1159 1169 1162
3 1163 1162 1164
3 1160 1159 1161
3 1158 1159 1160
3 1179 1170 1171
3 1180 1171 1172
3 1180 1179 1171
3 1181 1172 1173
3 1181 1180 1172
3 1182 1173 1174
3 1182 1181 1173
3 1183 1174 1175
3 1183 1182 1174
3 1184 1175 1176
3 1184 1183 1175
3 1185 1176 1177
3 1185 1184 1176
3 1178 1185 1177
3 1189 1187 1186
3 1189 1188 1187
3 1199 1201 1200
3 1199 1191 1201
3 1197 1199 1198
3 1194 1196 1195
3 1194 1197 1196
3 1193 1197 1194
3 1192 1190 1191
3 1192 1199 1197
3 1192 1191 1199
3 1192 1197 1193
3 1202 1190 1192
