ply
format ascii 1.0
comment generated by blendit.inference.finetune_visualize
element vertex 759
property float x
property float y
property float z
property uchar red
property uchar green
property uchar blue
element face 875
property list uchar int vertex_indices
end_header
-5.55111512e-17 0.443205673 64.3429958 218 222 230
-5.55111512e-17 88.4726238 64.3429958 218 222 230
0 0.443205673 -5.55111512e-17 218 222 230
-5.55111512e-17 88.4726238 0 218 222 230
-5.55111512e-17 0.443205673 64.3429958 218 222 230
-5.55111512e-17 88.4726238 64.3429958 218 222 230
0.0111120916 0.344583133 64.3429958 218 222 230
0.0438911596 0.250905938 64.3429958 218 222 230
0.0966935247 0.166871456 64.3429958 218 222 230
0.166871456 0.0966935247 64.3429958 218 222 230
0.250905938 0.0438911596 64.3429958 218 222 230
0.344583133 0.0111120916 64.3429958 218 222 230
0.443205673 -5.55111512e-17 64.3429958 218 222 230
37.864971 0 64.3429958 218 222 230
37.864971 88.4726238 64.3429958 218 222 230
0.443205673 -5.55111512e-17 0.443205673 255 79 163
0.328495604 0.0151018671 0.328495604 255 79 163
0.221602837 0.0593783011 0.221602837 255 79 163
0.129811936 0.129811936 0.129811936 255 79 163
0.0653107151 0.211631345 0.0653107151 255 79 163
0.0282435967 0.287520915 0.0282435967 255 79 163
0.00773989466 0.360738562 0.00773989466 255 79 163
0.00193921612 0.40179091 0.00193921612 255 79 163
0 0.443205673 -5.55111512e-17 255 79 163
0.443205673 -5.55111512e-17 64.3429958 255 79 163
-5.55111512e-17 0.443205673 64.3429958 255 79 163
0.0111120916 0.344583133 64.3429958 255 79 163
0.0438911596 0.250905938 64.3429958 255 79 163
0.0966935247 0.166871456 64.3429958 255 79 163
0.166871456 0.0966935247 64.3429958 255 79 163
0.250905938 0.0438911596 64.3429958 255 79 163
0.344583133 0.0111120916 64.3429958 255 79 163
-5.55111512e-17 88.4726238 0 255 79 163
-5.55111512e-17 88.4726238 64.3429958 255 79 163
0.00652205722 88.548378 64.3364737 255 79 163
0.0258962763 88.6219025 64.3170995 255 79 163
0.0575524491 88.6910337 64.2854433 255 79 163
0.100558893 88.7537367 64.2424369 255 79 163
0.153649874 88.8081662 64.1893459 255 79 163
0.215262856 88.8527203 64.1277329 255 79 163
0.307506209 88.8945443 64.0354895 255 79 163
0.374526342 88.9104759 63.9684694 255 79 163
0.443205673 88.9158295 63.8997901 255 79 163
0.443205673 88.9158295 0 255 79 163
0.0111120916 88.5712464 0 255 79 163
0.0438911596 88.6649236 0 255 79 163
0.0966935247 88.748958 0 255 79 163
0.166871456 88.819136 0 255 79 163
0.250905938 88.8719383 0 255 79 163
0.344583133 88.9047174 0 255 79 163
0.443205673 88.9158295 0 218 222 230
26.0032742 88.9158295 -5.55111512e-17 218 222 230
-5.55111512e-17 88.4726238 0 218 222 230
0.0111120916 88.5712464 0 218 222 230
0.0438911596 88.6649236 0 218 222 230
0.0966935247 88.748958 0 218 222 230
0.166871456 88.819136 0 218 222 230
0.250905938 88.8719383 0 218 222 230
0.344583133 88.9047174 0 218 222 230
0 0.443205673 -5.55111512e-17 218 222 230
37.864971 0.443205673 -5.55111512e-17 218 222 230
37.864971 62.4641568 -5.55111512e-17 218 222 230
26.4464798 62.4641568 0 218 222 230
26.0032742 62.4641568 -5.55111512e-17 218 222 230
-5.55111512e-17 88.4726238 64.3429958 255 79 163
37.864971 88.4726238 64.3429958 255 79 163
37.9796811 88.5873339 64.3278939 255 79 163
38.0865739 88.6942267 64.2836175 255 79 163
38.1783648 88.7860176 64.2131838 255 79 163
38.242866 88.8505188 64.1313644 255 79 163
38.2799331 88.8875859 64.0554748 255 79 163
38.3004368 88.9080896 63.9822572 255 79 163
38.3062375 88.9138903 63.9412048 255 79 163
38.3081767 88.9158295 63.8997901 255 79 163
0.443205673 88.9158295 63.8997901 255 79 163
0.00652205722 88.548378 64.3364737 255 79 163
0.0258962763 88.6219025 64.3170995 255 79 163
0.0575524491 88.6910337 64.2854433 255 79 163
0.100558893 88.7537367 64.2424369 255 79 163
0.153649874 88.8081662 64.1893459 255 79 163
0.215262856 88.8527203 64.1277329 255 79 163
0.307506209 88.8945443 64.0354895 255 79 163
0.374526342 88.9104759 63.9684694 255 79 163
38.3081767 -5.55111512e-17 0.443205673 218 222 230
38.3081767 0 63.8997901 218 222 230
0.443205673 -5.55111512e-17 0.443205673 218 222 230
0.443205673 -5.55111512e-17 64.3429958 218 222 230
37.864971 0 64.3429958 218 222 230
37.9635936 0 64.3318837 218 222 230
38.0572708 0 64.2991046 218 222 230
38.1413053 0 64.2463022 218 222 230
38.2114832 0 64.1761243 218 222 230
38.2642856 0 64.0920898 218 222 230
38.2970646 0 63.9984126 218 222 230
20.3420026 0 32.3628472 218 222 230
30.1596033 0 32.3628472 218 222 230
31.5110159 0 32.5151148 218 222 230
32.7946631 0 32.9642824 218 222 230
33.9461773 0 33.6878267 218 222 230
34.9078169 0 34.6494663 218 222 230
35.6313613 0 35.8009806 218 222 230
36.0805288 0 37.0846277 218 222 230
36.2327965 0 38.4360403 218 222 230
36.0805288 0 39.7874529 218 222 230
35.6313613 0 41.0711001 218 222 230
34.9078169 0 42.2226143 218 222 230
33.9461773 0 43.1842539 218 222 230
32.7946631 0 43.9077983 218 222 230
31.5110159 0 44.3569658 218 222 230
30.1596033 0 44.5092335 218 222 230
20.3420026 0 44.5092335 218 222 230
18.99059 0 44.3569658 218 222 230
17.7069429 0 43.9077983 218 222 230
16.5554286 0 43.1842539 218 222 230
15.593789 0 42.2226143 218 222 230
14.8702447 0 41.0711001 218 222 230
14.4210771 0 39.7874529 218 222 230
14.2688095 0 38.4360403 218 222 230
14.4210771 0 37.0846277 218 222 230
14.8702447 0 35.8009806 218 222 230
15.593789 0 34.6494663 218 222 230
16.5554286 0 33.6878267 218 222 230
17.7069429 0 32.9642824 218 222 230
18.99059 0 32.5151148 218 222 230
37.864971 0 64.3429958 255 79 163
37.9635936 0 64.3318837 255 79 163
38.0572708 0 64.2991046 255 79 163
38.1413053 0 64.2463022 255 79 163
38.2114832 0 64.1761243 255 79 163
38.2642856 0 64.0920898 255 79 163
38.2970646 0 63.9984126 255 79 163
38.3081767 0 63.8997901 255 79 163
38.3081767 88.9158295 63.8997901 255 79 163
37.864971 88.4726238 64.3429958 255 79 163
37.9796811 88.5873339 64.3278939 255 79 163
38.0865739 88.6942267 64.2836175 255 79 163
38.1783648 88.7860176 64.2131838 255 79 163
38.242866 88.8505188 64.1313644 255 79 163
38.2799331 88.8875859 64.0554748 255 79 163
38.3004368 88.9080896 63.9822572 255 79 163
38.3062375 88.9138903 63.9412048 255 79 163
0.443205673 -5.55111512e-17 0.443205673 255 79 163
0.328495604 0.0151018671 0.328495604 255 79 163
0.221602837 0.0593783011 0.221602837 255 79 163
0.129811936 0.129811936 0.129811936 255 79 163
0.0653107151 0.211631345 0.0653107151 255 79 163
0.0282435967 0.287520915 0.0282435967 255 79 163
0.00773989466 0.360738562 0.00773989466 255 79 163
0.00193921612 0.40179091 0.00193921612 255 79 163
0 0.443205673 -5.55111512e-17 255 79 163
37.864971 0.443205673 -5.55111512e-17 255 79 163
38.3081767 -5.55111512e-17 0.443205673 255 79 163
38.3016547 0.00652205722 0.367451543 255 79 163
38.2822804 0.0258962763 0.293926954 255 79 163
38.2506243 0.0575524491 0.22479583 255 79 163
38.2076178 0.100558893 0.16209279 255 79 163
38.1545268 0.153649874 0.107663264 255 79 163
38.0929139 0.215262856 0.0631091844 255 79 163
38.0006705 0.307506209 0.0212851543 255 79 163
37.9336504 0.374526342 0.00535362264 255 79 163
0.443205673 88.9158295 0 218 222 230
26.0032742 88.9158295 -5.55111512e-17 218 222 230
0.443205673 88.9158295 63.8997901 218 222 230
38.3081767 88.9158295 63.8997901 218 222 230
38.3081767 88.9158295 33.5622975 218 222 230
26.0032742 88.9158295 33.5622975 218 222 230
36.9397409 88.9158295 45.9609965 218 222 230
35.7745277 88.9158295 44.7423618 218 222 230
35.1757101 88.9158295 46.3330455 218 222 230
26.0032742 62.4641568 -5.55111512e-17 255 79 163
26.0032742 88.9158295 -5.55111512e-17 255 79 163
26.0790283 88.9093074 0.00652205722 255 79 163
26.1525529 88.8899332 0.0258962763 255 79 163
26.221684 88.858277 0.0575524491 255 79 163
26.2843871 88.8152706 0.100558893 255 79 163
26.3388166 88.7621796 0.153649874 255 79 163
26.3833707 88.7005666 0.215262856 255 79 163
26.4251947 88.6083233 0.307506209 255 79 163
26.4411262 88.5413032 0.374526342 255 79 163
26.4464798 88.4726238 0.443205673 255 79 163
26.4464798 62.4641568 0.443205673 255 79 163
26.1018967 62.4641568 0.0111120916 255 79 163
26.1955739 62.4641568 0.0438911596 255 79 163
26.2796084 62.4641568 0.0966935247 255 79 163
26.3497863 62.4641568 0.166871456 255 79 163
26.4025887 62.4641568 0.250905938 255 79 163
26.4353677 62.4641568 0.344583133 255 79 163
37.864971 62.4641568 -5.55111512e-17 218 222 230
26.4464798 62.4641568 0 218 222 230
37.864971 62.4641568 32.6758862 218 222 230
26.4464798 62.4641568 32.6758862 218 222 230
26.4464798 62.4641568 0.443205673 218 222 230
26.0032742 62.4641568 -5.55111512e-17 218 222 230
26.1018967 62.4641568 0.0111120916 218 222 230
26.1955739 62.4641568 0.0438911596 218 222 230
26.2796084 62.4641568 0.0966935247 218 222 230
26.3497863 62.4641568 0.166871456 218 222 230
26.4025887 62.4641568 0.250905938 218 222 230
26.4353677 62.4641568 0.344583133 218 222 230
37.864971 0.443205673 -5.55111512e-17 255 79 163
37.864971 62.4641568 -5.55111512e-17 255 79 163
37.9407252 62.4576347 0.00652205722 255 79 163
38.0142498 62.4382605 0.0258962763 255 79 163
38.0833809 62.4066044 0.0575524491 255 79 163
38.1460839 62.3635979 0.100558893 255 79 163
38.2005134 62.3105069 0.153649874 255 79 163
38.2450675 62.2488939 0.215262856 255 79 163
38.2868916 62.1566506 0.307506209 255 79 163
38.3028231 62.0896305 0.374526342 255 79 163
38.3081767 62.0209511 0.443205673 255 79 163
38.3081767 -5.55111512e-17 0.443205673 255 79 163
38.3016547 0.00652205722 0.367451543 255 79 163
38.2822804 0.0258962763 0.293926954 255 79 163
38.2506243 0.0575524491 0.22479583 255 79 163
38.2076178 0.100558893 0.16209279 255 79 163
38.1545268 0.153649874 0.107663264 255 79 163
38.0929139 0.215262856 0.0631091844 255 79 163
38.0006705 0.307506209 0.0212851543 255 79 163
37.9336504 0.374526342 0.00535362264 255 79 163
38.3081767 88.9158295 33.5622975 218 222 230
38.3081767 88.9158295 63.8997901 218 222 230
38.3081767 0 63.8997901 218 222 230
38.3081767 -5.55111512e-17 0.443205673 218 222 230
38.3081767 62.0209511 0.443205673 218 222 230
38.3081767 62.0209511 32.6758862 218 222 230
38.3081767 62.0260028 32.7171963 218 222 230
38.3081767 62.0398439 32.756378 218 222 230
38.3081767 62.0603426 32.7926263 218 222 230
38.3081767 62.0948506 32.8361726 218 222 230
38.3081767 62.1562289 32.8924164 218 222 230
38.3081767 62.2607065 32.9609914 218 222 230
38.3081767 62.4318337 33.0371928 218 222 230
38.3081767 62.6353276 33.092429 218 222 230
38.3081767 62.7707389 33.1122509 218 222 230
38.3081767 62.9073625 33.1190918 218 222 230
38.3081767 88.4726238 33.1190918 218 222 230
38.3081767 88.9047174 33.463675 218 222 230
38.3081767 88.8719383 33.3699978 218 222 230
38.3081767 88.819136 33.2859633 218 222 230
38.3081767 88.748958 33.2157853 218 222 230
38.3081767 88.6649236 33.162983 218 222 230
38.3081767 88.5712464 33.1302039 218 222 230
20.3420026 0 32.3628472 218 222 230
20.3420026 38.426945 32.3628472 218 222 230
30.1596033 38.426945 32.3628472 218 222 230
30.1596033 0 32.3628472 218 222 230
20.3420026 0 44.5092335 218 222 230
20.3420026 38.426945 44.5092335 218 222 230
18.99059 38.426945 44.3569658 218 222 230
17.7069429 38.426945 43.9077983 218 222 230
16.5554286 38.426945 43.1842539 218 222 230
15.593789 38.426945 42.2226143 218 222 230
14.8702447 38.426945 41.0711001 218 222 230
14.4210771 38.426945 39.7874529 218 222 230
14.2688095 38.426945 38.4360403 218 222 230
14.4210771 38.426945 37.0846277 218 222 230
14.8702447 38.426945 35.8009806 218 222 230
15.593789 38.426945 34.6494663 218 222 230
16.5554286 38.426945 33.6878267 218 222 230
17.7069429 38.426945 32.9642824 218 222 230
18.99059 38.426945 32.5151148 218 222 230
20.3420026 38.426945 32.3628472 218 222 230
20.3420026 0 32.3628472 218 222 230
18.99059 0 44.3569658 218 222 230
17.7069429 0 43.9077983 218 222 230
16.5554286 0 43.1842539 218 222 230
15.593789 0 42.2226143 218 222 230
14.8702447 0 41.0711001 218 222 230
14.4210771 0 39.7874529 218 222 230
14.2688095 0 38.4360403 218 222 230
14.4210771 0 37.0846277 218 222 230
14.8702447 0 35.8009806 218 222 230
15.593789 0 34.6494663 218 222 230
16.5554286 0 33.6878267 218 222 230
17.7069429 0 32.9642824 218 222 230
18.99059 0 32.5151148 218 222 230
30.1596033 0 44.5092335 218 222 230
30.1596033 38.426945 44.5092335 218 222 230
20.3420026 38.426945 44.5092335 218 222 230
20.3420026 0 44.5092335 218 222 230
30.1596033 0 32.3628472 218 222 230
30.1596033 38.426945 32.3628472 218 222 230
31.5110159 38.426945 32.5151148 218 222 230
32.7946631 38.426945 32.9642824 218 222 230
33.9461773 38.426945 33.6878267 218 222 230
34.9078169 38.426945 34.6494663 218 222 230
35.6313613 38.426945 35.8009806 218 222 230
36.0805288 38.426945 37.0846277 218 222 230
36.2327965 38.426945 38.4360403 218 222 230
36.0805288 38.426945 39.7874529 218 222 230
35.6313613 38.426945 41.0711001 218 222 230
34.9078169 38.426945 42.2226143 218 222 230
33.9461773 38.426945 43.1842539 218 222 230
32.7946631 38.426945 43.9077983 218 222 230
31.5110159 38.426945 44.3569658 218 222 230
30.1596033 38.426945 44.5092335 218 222 230
30.1596033 0 44.5092335 218 222 230
31.5110159 0 32.5151148 218 222 230
32.7946631 0 32.9642824 218 222 230
33.9461773 0 33.6878267 218 222 230
34.9078169 0 34.6494663 218 222 230
35.6313613 0 35.8009806 218 222 230
36.0805288 0 37.0846277 218 222 230
36.2327965 0 38.4360403 218 222 230
36.0805288 0 39.7874529 218 222 230
35.6313613 0 41.0711001 218 222 230
34.9078169 0 42.2226143 218 222 230
33.9461773 0 43.1842539 218 222 230
32.7946631 0 43.9077983 218 222 230
31.5110159 0 44.3569658 218 222 230
26.0032742 88.9158295 -5.55111512e-17 255 79 163
26.0032742 88.9158295 33.5622975 255 79 163
26.1179842 88.9007276 33.4475874 255 79 163
26.224877 88.8564512 33.3406947 255 79 163
26.3166679 88.7860176 33.2489038 255 79 163
26.3811691 88.7041981 33.1844025 255 79 163
26.4182362 88.6283086 33.1473354 255 79 163
26.4387399 88.5550909 33.1268317 255 79 163
26.4445406 88.5140386 33.121031 255 79 163
26.4464798 88.4726238 33.1190918 255 79 163
26.4464798 88.4726238 0.443205673 255 79 163
26.0790283 88.9093074 0.00652205722 255 79 163
26.1525529 88.8899332 0.0258962763 255 79 163
26.221684 88.858277 0.0575524491 255 79 163
26.2843871 88.8152706 0.100558893 255 79 163
26.3388166 88.7621796 0.153649874 255 79 163
26.3833707 88.7005666 0.215262856 255 79 163
26.4251947 88.6083233 0.307506209 255 79 163
26.4411262 88.5413032 0.374526342 255 79 163
38.3081767 88.9158295 33.5622975 255 79 163
38.3081767 88.9047174 33.463675 255 79 163
38.3081767 88.8719383 33.3699978 255 79 163
38.3081767 88.819136 33.2859633 255 79 163
38.3081767 88.748958 33.2157853 255 79 163
38.3081767 88.6649236 33.162983 255 79 163
38.3081767 88.5712464 33.1302039 255 79 163
38.3081767 88.4726238 33.1190918 255 79 163
26.4464798 88.4726238 33.1190918 255 79 163
26.0032742 88.9158295 33.5622975 255 79 163
26.1179842 88.9007276 33.4475874 255 79 163
26.224877 88.8564512 33.3406947 255 79 163
26.3166679 88.7860176 33.2489038 255 79 163
26.3811691 88.7041981 33.1844025 255 79 163
26.4182362 88.6283086 33.1473354 255 79 163
26.4387399 88.5550909 33.1268317 255 79 163
26.4445406 88.5140386 33.121031 255 79 163
36.9397409 88.9158295 45.9609965 218 222 230
36.9397409 63.693922 45.9609965 218 222 230
35.7745277 63.693922 44.7423618 218 222 230
35.7745277 88.9158295 44.7423618 218 222 230
35.7745277 88.9158295 44.7423618 218 222 230
35.7745277 63.693922 44.7423618 218 222 230
35.1757101 63.693922 46.3330455 218 222 230
35.1757101 88.9158295 46.3330455 218 222 230
35.1757101 88.9158295 46.3330455 218 222 230
35.1757101 63.693922 46.3330455 218 222 230
36.9397409 63.693922 45.9609965 218 222 230
36.9397409 88.9158295 45.9609965 218 222 230
26.4464798 88.4726238 33.1190918 218 222 230
26.4464798 62.9073625 33.1190918 218 222 230
26.4464798 62.8087399 33.1079797 218 222 230
26.4464798 62.7150627 33.0752007 218 222 230
26.4464798 62.6310283 33.0223983 218 222 230
26.4464798 62.5608503 32.9522204 218 222 230
26.4464798 62.508048 32.8681859 218 222 230
26.4464798 62.4752689 32.7745087 218 222 230
26.4464798 62.4641568 32.6758862 218 222 230
26.4464798 62.4641568 0.443205673 218 222 230
26.4464798 88.4726238 0.443205673 218 222 230
37.864971 62.4641568 -5.55111512e-17 255 79 163
37.9407252 62.4576347 0.00652205722 255 79 163
38.0142498 62.4382605 0.0258962763 255 79 163
38.0833809 62.4066044 0.0575524491 255 79 163
38.1460839 62.3635979 0.100558893 255 79 163
38.2005134 62.3105069 0.153649874 255 79 163
38.2450675 62.2488939 0.215262856 255 79 163
38.2868916 62.1566506 0.307506209 255 79 163
38.3028231 62.0896305 0.374526342 255 79 163
38.3081767 62.0209511 0.443205673 255 79 163
37.864971 62.4641568 32.6758862 255 79 163
38.3081767 62.0209511 32.6758862 255 79 163
38.2959314 62.1244149 32.6758862 255 79 163
38.25987 62.2221625 32.6758862 255 79 163
38.201987 62.3087904 32.6758862 255 79 163
38.1254812 62.3795117 32.6758862 255 79 163
38.0345785 62.4304199 32.6758862 255 79 163
37.9514356 62.4556412 32.6758862 255 79 163
38.3081767 62.9073625 33.1190918 255 79 163
26.4464798 62.9073625 33.1190918 255 79 163
26.4464798 62.8087399 33.1079797 255 79 163
26.4464798 62.7150627 33.0752007 255 79 163
26.4464798 62.6310283 33.0223983 255 79 163
26.4464798 62.5608503 32.9522204 255 79 163
26.4464798 62.508048 32.8681859 255 79 163
26.4464798 62.4752689 32.7745087 255 79 163
26.4464798 62.4641568 32.6758862 255 79 163
37.864971 62.4641568 32.6758862 255 79 163
37.9388387 62.4792587 32.7905962 255 79 163
38.0127063 62.5235351 32.897489 255 79 163
38.0865739 62.5939687 32.9892799 255 79 163
38.1604415 62.685768 33.059717 255 79 163
38.2343091 62.7926441 33.1039865 255 79 163
38.3081767 88.4726238 33.1190918 218 222 230
38.3081767 62.9073625 33.1190918 218 222 230
26.4464798 88.4726238 33.1190918 218 222 230
26.4464798 62.9073625 33.1190918 218 222 230
38.3081767 62.9073625 33.1190918 255 79 163
38.3081767 62.9073625 33.1190918 255 79 163
38.3081767 62.0209511 32.6758862 255 79 163
38.3081767 62.0260028 32.7171963 255 79 163
38.3081767 62.0398439 32.756378 255 79 163
38.3081767 62.0603426 32.7926263 255 79 163
38.3081767 62.0948506 32.8361726 255 79 163
38.3081767 62.1562289 32.8924164 255 79 163
38.3081767 62.2607065 32.9609914 255 79 163
38.3081767 62.4318337 33.0371928 255 79 163
38.3081767 62.6353276 33.092429 255 79 163
38.3081767 62.7707389 33.1122509 255 79 163
38.2959314 62.1244149 32.6758862 255 79 163
38.25987 62.2221625 32.6758862 255 79 163
38.201987 62.3087904 32.6758862 255 79 163
38.1254812 62.3795117 32.6758862 255 79 163
38.0345785 62.4304199 32.6758862 255 79 163
37.9514356 62.4556412 32.6758862 255 79 163
37.864971 62.4641568 32.6758862 255 79 163
37.9388387 62.4792587 32.7905962 255 79 163
38.0127063 62.5235351 32.897489 255 79 163
38.0865739 62.5939687 32.9892799 255 79 163
38.1604415 62.685768 33.059717 255 79 163
38.2343091 62.7926441 33.1039865 255 79 163
38.2945077 62.2447973 32.8851721 255 79 163
38.2791889 62.2864909 32.880998 255 79 163
38.2593009 62.3257324 32.8767397 255 79 163
38.2353057 62.3618773 32.8724343 255 79 163
38.2074835 62.3944143 32.8681356 255 79 163
38.141099 62.4472214 32.8598062 255 79 163
38.0621695 62.4821638 32.8521981 255 79 163
38.2313 62.4918333 32.9727645 255 79 163
38.2432412 62.5480099 33.0136507 255 79 163
38.2546524 62.6051804 33.0464371 255 79 163
38.2683352 62.6775904 33.0779186 255 79 163
38.279754 62.740893 33.0976576 255 79 163
38.2884858 62.7909504 33.108627 255 79 163
38.2893232 62.494323 33.0263852 255 79 163
38.2910534 62.5287556 33.0419579 255 79 163
38.2952594 62.6135397 33.0733876 255 79 163
38.2973555 62.657094 33.0860807 255 79 163
38.2990756 62.6940923 33.095162 255 79 163
38.301612 62.7520706 33.1063881 255 79 163
38.3028071 62.7813244 33.1106994 255 79 163
38.3053047 62.646034 33.0893951 255 79 163
38.3055478 62.6660923 33.0937706 255 79 163
38.3059115 62.6972869 33.0998688 255 79 163
38.3065773 62.7601559 33.1095952 255 79 163
20.3420026 38.426945 32.3628472 255 79 163
20.3420026 38.5255675 32.3739593 255 79 163
20.3420026 38.6192447 32.4067384 255 79 163
20.3420026 38.7032792 32.4595407 255 79 163
20.3420026 38.7734571 32.5297186 255 79 163
20.3420026 38.8262595 32.6137531 255 79 163
20.3420026 38.8590386 32.7074303 255 79 163
20.3420026 38.8701507 32.8060529 255 79 163
30.1596033 38.8701507 32.8060529 255 79 163
30.1596033 38.426945 32.3628472 255 79 163
30.1596033 38.5255675 32.3739593 255 79 163
30.1596033 38.6192447 32.4067384 255 79 163
30.1596033 38.7032792 32.4595407 255 79 163
30.1596033 38.7734571 32.5297186 255 79 163
30.1596033 38.8262595 32.6137531 255 79 163
30.1596033 38.8590386 32.7074303 255 79 163
20.3420026 38.8701507 44.0660278 255 79 163
19.0892125 38.8701507 43.9248723 255 79 163
17.8992426 38.8701507 43.5084838 255 79 163
16.8317628 38.8701507 42.8377418 255 79 163
15.9403012 38.8701507 41.9462801 255 79 163
15.2695592 38.8701507 40.8788003 255 79 163
14.8531707 38.8701507 39.6888304 255 79 163
14.7120151 38.8701507 38.4360403 255 79 163
14.8531707 38.8701507 37.1832503 255 79 163
15.2695592 38.8701507 35.9932803 255 79 163
15.9403012 38.8701507 34.9258006 255 79 163
16.8317628 38.8701507 34.0343389 255 79 163
17.8992426 38.8701507 33.3635969 255 79 163
19.0892125 38.8701507 32.9472084 255 79 163
20.3420026 38.8701507 32.8060529 255 79 163
20.3420026 38.426945 32.3628472 255 79 163
20.3420026 38.5255675 32.3739593 255 79 163
20.3420026 38.6192447 32.4067384 255 79 163
20.3420026 38.7032792 32.4595407 255 79 163
20.3420026 38.7734571 32.5297186 255 79 163
20.3420026 38.8262595 32.6137531 255 79 163
20.3420026 38.8590386 32.7074303 255 79 163
20.3420026 38.426945 44.5092335 255 79 163
18.99059 38.426945 44.3569658 255 79 163
17.7069429 38.426945 43.9077983 255 79 163
16.5554286 38.426945 43.1842539 255 79 163
15.593789 38.426945 42.2226143 255 79 163
14.8702447 38.426945 41.0711001 255 79 163
14.4210771 38.426945 39.7874529 255 79 163
14.2688095 38.426945 38.4360403 255 79 163
14.4210771 38.426945 37.0846277 255 79 163
14.8702447 38.426945 35.8009806 255 79 163
15.593789 38.426945 34.6494663 255 79 163
16.5554286 38.426945 33.6878267 255 79 163
17.7069429 38.426945 32.9642824 255 79 163
18.99059 38.426945 32.5151148 255 79 163
20.3420026 38.5255675 44.4981214 255 79 163
20.3420026 38.6192447 44.4653423 255 79 163
20.3420026 38.7032792 44.4125399 255 79 163
20.3420026 38.7734571 44.342362 255 79 163
20.3420026 38.8262595 44.2583275 255 79 163
20.3420026 38.8590386 44.1646503 255 79 163
18.9930627 38.5255675 32.5259483 255 79 163
19.0003567 38.6192447 32.5579055 255 79 163
19.0121063 38.7032792 32.609384 255 79 163
19.0277224 38.7734571 32.6778025 255 79 163
19.0464218 38.8262595 32.75973 255 79 163
19.067267 38.8590386 32.8510585 255 79 163
17.7117642 38.5255675 32.974294 255 79 163
17.7259865 38.6192447 33.003827 255 79 163
17.7488966 38.7032792 33.0514002 255 79 163
17.7793457 38.7734571 33.1146284 255 79 163
17.8158069 38.8262595 33.1903408 255 79 163
17.8564519 38.8590386 33.2747411 255 79 163
16.5623569 38.5255675 33.6965145 255 79 163
16.5827943 38.6192447 33.7221422 255 79 163
16.615716 38.7032792 33.7634248 255 79 163
16.6594713 38.7734571 33.8182921 255 79 163
16.7118659 38.8262595 33.8839929 255 79 163
16.7702727 38.8590386 33.9572327 255 79 163
15.6024768 38.5255675 34.6563946 255 79 163
15.6281045 38.6192447 34.676832 255 79 163
15.6693871 38.7032792 34.7097538 255 79 163
15.7242544 38.7734571 34.753509 255 79 163
15.7899552 38.8262595 34.8059036 255 79 163
15.863195 38.8590386 34.8643104 255 79 163
14.8802563 38.5255675 35.8058019 255 79 163
14.9097892 38.6192447 35.8200242 255 79 163
14.9573625 38.7032792 35.8429343 255 79 163
15.0205906 38.7734571 35.8733834 255 79 163
15.0963031 38.8262595 35.9098446 255 79 163
15.1807033 38.8590386 35.9504896 255 79 163
14.4319106 38.5255675 37.0871004 255 79 163
14.4638678 38.6192447 37.0943944 255 79 163
14.5153463 38.7032792 37.1061441 255 79 163
14.5837647 38.7734571 37.1217601 255 79 163
14.6656923 38.8262595 37.1404595 255 79 163
14.7570208 38.8590386 37.1613047 255 79 163
14.2799216 38.5255675 38.4360403 255 79 163
14.3127006 38.6192447 38.4360403 255 79 163
14.365503 38.7032792 38.4360403 255 79 163
14.4356809 38.7734571 38.4360403 255 79 163
14.5197154 38.8262595 38.4360403 255 79 163
14.6133926 38.8590386 38.4360403 255 79 163
14.4319106 38.5255675 39.7849803 255 79 163
14.4638678 38.6192447 39.7776862 255 79 163
14.5153463 38.7032792 39.7659366 255 79 163
14.5837647 38.7734571 39.7503205 255 79 163
14.6656923 38.8262595 39.7316211 255 79 163
14.7570208 38.8590386 39.710776 255 79 163
14.8802563 38.5255675 41.0662787 255 79 163
14.9097892 38.6192447 41.0520564 255 79 163
14.9573625 38.7032792 41.0291463 255 79 163
15.0205906 38.7734571 40.9986973 255 79 163
15.0963031 38.8262595 40.9622361 255 79 163
15.1807033 38.8590386 40.9215911 255 79 163
15.6024768 38.5255675 42.215686 255 79 163
15.6281045 38.6192447 42.1952486 255 79 163
15.6693871 38.7032792 42.1623269 255 79 163
15.7242544 38.7734571 42.1185717 255 79 163
15.7899552 38.8262595 42.066177 255 79 163
15.863195 38.8590386 42.0077702 255 79 163
16.5623569 38.5255675 43.1755661 255 79 163
16.5827943 38.6192447 43.1499384 255 79 163
16.615716 38.7032792 43.1086559 255 79 163
16.6594713 38.7734571 43.0537886 255 79 163
16.7118659 38.8262595 42.9880878 255 79 163
16.7702727 38.8590386 42.914848 255 79 163
17.7117642 38.5255675 43.8977866 255 79 163
17.7259865 38.6192447 43.8682537 255 79 163
17.7488966 38.7032792 43.8206804 255 79 163
17.7793457 38.7734571 43.7574523 255 79 163
17.8158069 38.8262595 43.6817398 255 79 163
17.8564519 38.8590386 43.5973396 255 79 163
18.9930627 38.5255675 44.3461323 255 79 163
19.0003567 38.6192447 44.3141751 255 79 163
19.0121063 38.7032792 44.2626966 255 79 163
19.0277224 38.7734571 44.1942782 255 79 163
19.0464218 38.8262595 44.1123506 255 79 163
19.067267 38.8590386 44.0210221 255 79 163
30.1596033 38.426945 44.5092335 255 79 163
30.1596033 38.5255675 44.4981214 255 79 163
30.1596033 38.6192447 44.4653423 255 79 163
30.1596033 38.7032792 44.4125399 255 79 163
30.1596033 38.7734571 44.342362 255 79 163
30.1596033 38.8262595 44.2583275 255 79 163
30.1596033 38.8590386 44.1646503 255 79 163
30.1596033 38.8701507 44.0660278 255 79 163
20.3420026 38.8701507 44.0660278 255 79 163
20.3420026 38.426945 44.5092335 255 79 163
20.3420026 38.5255675 44.4981214 255 79 163
20.3420026 38.6192447 44.4653423 255 79 163
20.3420026 38.7032792 44.4125399 255 79 163
20.3420026 38.7734571 44.342362 255 79 163
20.3420026 38.8262595 44.2583275 255 79 163
20.3420026 38.8590386 44.1646503 255 79 163
30.1596033 38.8701507 32.8060529 255 79 163
31.4123934 38.8701507 32.9472084 255 79 163
32.6023633 38.8701507 33.3635969 255 79 163
33.6698431 38.8701507 34.0343389 255 79 163
34.5613048 38.8701507 34.9258006 255 79 163
35.2320468 38.8701507 35.9932803 255 79 163
35.6484352 38.8701507 37.1832503 255 79 163
35.7895908 38.8701507 38.4360403 255 79 163
35.6484352 38.8701507 39.6888304 255 79 163
35.2320468 38.8701507 40.8788003 255 79 163
34.5613048 38.8701507 41.9462801 255 79 163
33.6698431 38.8701507 42.8377418 255 79 163
32.6023633 38.8701507 43.5084838 255 79 163
31.4123934 38.8701507 43.9248723 255 79 163
30.1596033 38.8701507 44.0660278 255 79 163
30.1596033 38.426945 44.5092335 255 79 163
30.1596033 38.5255675 44.4981214 255 79 163
30.1596033 38.6192447 44.4653423 255 79 163
30.1596033 38.7032792 44.4125399 255 79 163
30.1596033 38.7734571 44.342362 255 79 163
30.1596033 38.8262595 44.2583275 255 79 163
30.1596033 38.8590386 44.1646503 255 79 163
30.1596033 38.426945 32.3628472 255 79 163
31.5110159 38.426945 32.5151148 255 79 163
32.7946631 38.426945 32.9642824 255 79 163
33.9461773 38.426945 33.6878267 255 79 163
34.9078169 38.426945 34.6494663 255 79 163
35.6313613 38.426945 35.8009806 255 79 163
36.0805288 38.426945 37.0846277 255 79 163
36.2327965 38.426945 38.4360403 255 79 163
36.0805288 38.426945 39.7874529 255 79 163
35.6313613 38.426945 41.0711001 255 79 163
34.9078169 38.426945 42.2226143 255 79 163
33.9461773 38.426945 43.1842539 255 79 163
32.7946631 38.426945 43.9077983 255 79 163
31.5110159 38.426945 44.3569658 255 79 163
30.1596033 38.5255675 32.3739593 255 79 163
30.1596033 38.6192447 32.4067384 255 79 163
30.1596033 38.7032792 32.4595407 255 79 163
30.1596033 38.7734571 32.5297186 255 79 163
30.1596033 38.8262595 32.6137531 255 79 163
30.1596033 38.8590386 32.7074303 255 79 163
31.5085433 38.5255675 44.3461323 255 79 163
31.5012492 38.6192447 44.3141751 255 79 163
31.4894996 38.7032792 44.2626966 255 79 163
31.4738835 38.7734571 44.1942782 255 79 163
31.4551841 38.8262595 44.1123506 255 79 163
31.434339 38.8590386 44.0210221 255 79 163
32.7898417 38.5255675 43.8977866 255 79 163
32.7756194 38.6192447 43.8682537 255 79 163
32.7527093 38.7032792 43.8206804 255 79 163
32.7222603 38.7734571 43.7574523 255 79 163
32.6857991 38.8262595 43.6817398 255 79 163
32.645154 38.8590386 43.5973396 255 79 163
33.939249 38.5255675 43.1755661 255 79 163
33.9188116 38.6192447 43.1499384 255 79 163
33.8858899 38.7032792 43.1086559 255 79 163
33.8421347 38.7734571 43.0537886 255 79 163
33.78974 38.8262595 42.9880878 255 79 163
33.7313332 38.8590386 42.914848 255 79 163
34.8991291 38.5255675 42.215686 255 79 163
34.8735014 38.6192447 42.1952486 255 79 163
34.8322189 38.7032792 42.1623269 255 79 163
34.7773516 38.7734571 42.1185717 255 79 163
34.7116508 38.8262595 42.066177 255 79 163
34.638411 38.8590386 42.0077702 255 79 163
35.6213496 38.5255675 41.0662787 255 79 163
35.5918167 38.6192447 41.0520564 255 79 163
35.5442434 38.7032792 41.0291463 255 79 163
35.4810153 38.7734571 40.9986973 255 79 163
35.4053028 38.8262595 40.9622361 255 79 163
35.3209026 38.8590386 40.9215911 255 79 163
36.0696953 38.5255675 39.7849803 255 79 163
36.0377381 38.6192447 39.7776862 255 79 163
35.9862596 38.7032792 39.7659366 255 79 163
35.9178412 38.7734571 39.7503205 255 79 163
35.8359136 38.8262595 39.7316211 255 79 163
35.7445851 38.8590386 39.710776 255 79 163
36.2216844 38.5255675 38.4360403 255 79 163
36.1889053 38.6192447 38.4360403 255 79 163
36.1361029 38.7032792 38.4360403 255 79 163
36.065925 38.7734571 38.4360403 255 79 163
35.9818905 38.8262595 38.4360403 255 79 163
35.8882133 38.8590386 38.4360403 255 79 163
36.0696953 38.5255675 37.0871004 255 79 163
36.0377381 38.6192447 37.0943944 255 79 163
35.9862596 38.7032792 37.1061441 255 79 163
35.9178412 38.7734571 37.1217601 255 79 163
35.8359136 38.8262595 37.1404595 255 79 163
35.7445851 38.8590386 37.1613047 255 79 163
35.6213496 38.5255675 35.8058019 255 79 163
35.5918167 38.6192447 35.8200242 255 79 163
35.5442434 38.7032792 35.8429343 255 79 163
35.4810153 38.7734571 35.8733834 255 79 163
35.4053028 38.8262595 35.9098446 255 79 163
35.3209026 38.8590386 35.9504896 255 79 163
34.8991291 38.5255675 34.6563946 255 79 163
34.8735014 38.6192447 34.676832 255 79 163
34.8322189 38.7032792 34.7097538 255 79 163
34.7773516 38.7734571 34.753509 255 79 163
34.7116508 38.8262595 34.8059036 255 79 163
34.638411 38.8590386 34.8643104 255 79 163
33.939249 38.5255675 33.6965145 255 79 163
33.9188116 38.6192447 33.7221422 255 79 163
33.8858899 38.7032792 33.7634248 255 79 163
33.8421347 38.7734571 33.8182921 255 79 163
33.78974 38.8262595 33.8839929 255 79 163
33.7313332 38.8590386 33.9572327 255 79 163
32.7898417 38.5255675 32.974294 255 79 163
32.7756194 38.6192447 33.003827 255 79 163
32.7527093 38.7032792 33.0514002 255 79 163
32.7222603 38.7734571 33.1146284 255 79 163
32.6857991 38.8262595 33.1903408 255 79 163
32.645154 38.8590386 33.2747411 255 79 163
31.5085433 38.5255675 32.5259483 255 79 163
31.5012492 38.6192447 32.5579055 255 79 163
31.4894996 38.7032792 32.609384 255 79 163
31.4738835 38.7734571 32.6778025 255 79 163
31.4551841 38.8262595 32.75973 255 79 163
31.434339 38.8590386 32.8510585 255 79 163
36.9397409 63.693922 45.9609965 218 222 230
35.7745277 63.693922 44.7423618 218 222 230
35.1757101 63.693922 46.3330455 218 222 230
20.3420026 38.8701507 32.8060529 218 222 230
30.1596033 38.8701507 32.8060529 218 222 230
31.4123934 38.8701507 32.9472084 218 222 230
32.6023633 38.8701507 33.3635969 218 222 230
33.6698431 38.8701507 34.0343389 218 222 230
34.5613048 38.8701507 34.9258006 218 222 230
35.2320468 38.8701507 35.9932803 218 222 230
35.6484352 38.8701507 37.1832503 218 222 230
35.7895908 38.8701507 38.4360403 218 222 230
35.6484352 38.8701507 39.6888304 218 222 230
35.2320468 38.8701507 40.8788003 218 222 230
34.5613048 38.8701507 41.9462801 218 222 230
33.6698431 38.8701507 42.8377418 218 222 230
32.6023633 38.8701507 43.5084838 218 222 230
31.4123934 38.8701507 43.9248723 218 222 230
30.1596033 38.8701507 44.0660278 218 222 230
20.3420026 38.8701507 44.0660278 218 222 230
19.0892125 38.8701507 43.9248723 218 222 230
17.8992426 38.8701507 43.5084838 218 222 230
16.8317628 38.8701507 42.8377418 218 222 230
15.9403012 38.8701507 41.9462801 218 222 230
15.2695592 38.8701507 40.8788003 218 222 230
14.8531707 38.8701507 39.6888304 218 222 230
14.7120151 38.8701507 38.4360403 218 222 230
14.8531707 38.8701507 37.1832503 218 222 230
15.2695592 38.8701507 35.9932803 218 222 230
15.9403012 38.8701507 34.9258006 218 222 230
16.8317628 38.8701507 34.0343389 218 222 230
17.8992426 38.8701507 33.3635969 218 222 230
19.0892125 38.8701507 32.9472084 218 222 230
3 0 3 2
3 0 1 3
3 4 6 7
3 4 7 8
3 4 8 9
3 4 9 10
3 4 10 11
3 4 11 12
3 13 4 12
3 14 5 4
3 14 4 13
3 25 23 22
3 26 21 20
3 26 22 21
3 26 25 22
3 27 20 19
3 27 26 20
3 28 19 18
3 28 27 19
3 29 18 17
3 29 28 18
3 30 17 16
3 30 29 17
3 31 16 15
3 31 30 16
3 24 31 15
3 41 42 43
3 41 43 49
3 40 49 48
3 40 41 49
3 39 48 47
3 39 40 48
3 38 47 46
3 38 39 47
3 37 38 46
3 36 46 45
3 36 37 46
3 35 45 44
3 35 36 45
3 34 44 32
3 34 35 44
3 33 34 32
3 63 60 59
3 52 63 59
3 55 52 53
3 55 53 54
3 62 60 63
3 56 52 55
3 50 56 57
3 50 57 58
3 50 52 56
3 61 60 62
3 51 63 52
3 51 52 50
3 72 73 74
3 72 74 82
3 71 82 81
3 71 72 82
3 70 81 80
3 70 71 81
3 69 80 79
3 69 70 80
3 68 79 78
3 68 69 79
3 67 77 76
3 67 78 77
3 67 68 78
3 66 76 75
3 66 67 76
3 65 75 64
3 65 66 75
3 121 120 85
3 122 121 85
3 119 85 120
3 123 122 85
3 118 85 119
3 94 85 83
3 94 123 85
3 95 94 83
3 96 95 83
3 86 112 111
3 86 113 112
3 86 114 113
3 86 115 114
3 86 116 115
3 86 117 116
3 86 118 117
3 86 85 118
3 110 86 111
3 97 96 83
3 98 97 83
3 99 98 83
3 100 99 83
3 84 104 103
3 84 105 104
3 84 106 105
3 84 107 106
3 84 108 107
3 84 109 108
3 87 110 109
3 87 86 110
3 87 109 84
3 89 88 87
3 90 89 87
3 91 93 92
3 91 84 93
3 91 87 84
3 91 90 87
3 84 102 83
3 102 101 83
3 101 100 83
3 84 103 102
3 133 124 125
3 134 125 126
3 134 133 125
3 135 126 127
3 135 134 126
3 136 127 128
3 136 135 127
3 137 128 129
3 137 136 128
3 138 129 130
3 138 137 129
3 139 138 130
3 140 130 131
3 140 139 130
3 132 140 131
3 152 141 142
3 152 151 141
3 153 142 143
3 153 152 142
3 154 153 143
3 155 143 144
3 155 154 143
3 156 144 145
3 156 155 144
3 157 145 146
3 157 156 145
3 158 146 147
3 158 157 146
3 159 147 148
3 159 158 147
3 150 148 149
3 150 159 148
3 165 161 160
3 162 165 160
3 167 164 165
3 168 167 165
3 168 165 162
3 166 164 167
3 163 166 168
3 163 168 162
3 163 164 166
3 178 179 180
3 178 180 186
3 177 186 185
3 177 178 186
3 176 185 184
3 176 177 185
3 175 184 183
3 175 176 184
3 174 175 183
3 173 183 182
3 173 174 183
3 172 182 181
3 172 173 182
3 171 181 169
3 171 172 181
3 170 171 169
3 191 190 189
3 188 192 193
3 188 193 194
3 188 194 195
3 188 195 196
3 188 196 197
3 188 197 198
3 188 198 191
3 187 191 189
3 187 188 191
3 208 209 210
3 208 210 211
3 207 211 212
3 207 208 211
3 206 212 213
3 206 213 214
3 206 207 212
3 205 214 215
3 205 206 214
3 204 215 216
3 204 205 215
3 203 204 216
3 202 216 217
3 202 203 216
3 201 217 218
3 201 202 217
3 200 218 199
3 200 201 218
3 237 239 238
3 235 241 240
3 219 237 236
3 219 240 239
3 219 239 237
3 219 235 240
3 234 235 219
3 220 231 232
3 220 232 233
3 220 233 234
3 220 234 219
3 222 223 224
3 221 224 225
3 221 225 226
3 221 226 227
3 221 227 228
3 221 228 229
3 221 229 230
3 221 230 231
3 221 222 224
3 221 231 220
3 245 243 242
3 245 244 243
3 263 247 246
3 263 248 247
3 264 249 248
3 264 248 263
3 265 250 249
3 265 249 264
3 266 251 250
3 266 250 265
3 267 252 251
3 267 251 266
3 268 253 252
3 268 252 267
3 269 254 253
3 269 253 268
3 270 255 254
3 270 254 269
3 271 256 255
3 271 255 270
3 272 257 256
3 272 256 271
3 273 258 257
3 273 257 272
3 274 259 258
3 274 258 273
3 275 260 259
3 275 259 274
3 262 261 260
3 262 260 275
3 279 277 276
3 279 278 277
3 297 281 280
3 297 282 281
3 298 283 282
3 298 282 297
3 299 284 283
3 299 285 284
3 299 283 298
3 300 285 299
3 301 286 285
3 301 287 286
3 301 285 300
3 302 288 287
3 302 287 301
3 303 289 288
3 303 288 302
3 304 289 303
3 305 290 289
3 305 289 304
3 306 291 290
3 306 290 305
3 307 292 291
3 307 291 306
3 308 293 292
3 308 292 307
3 309 294 293
3 309 293 308
3 296 295 294
3 296 294 309
3 318 319 320
3 318 320 328
3 317 328 327
3 317 318 328
3 316 327 326
3 316 317 327
3 315 326 325
3 315 316 326
3 314 325 324
3 314 315 325
3 313 323 322
3 313 324 323
3 313 314 324
3 312 322 321
3 312 313 322
3 311 321 310
3 311 312 321
3 338 329 330
3 339 330 331
3 339 338 330
3 340 331 332
3 340 339 331
3 341 332 333
3 341 340 332
3 342 333 334
3 342 341 333
3 343 334 335
3 343 342 334
3 344 343 335
3 345 335 336
3 345 344 335
3 337 345 336
3 349 347 346
3 349 348 347
3 353 351 350
3 353 352 351
3 357 355 354
3 357 356 355
3 366 367 368
3 366 368 358
3 359 366 358
3 361 359 360
3 362 366 359
3 362 359 361
3 363 364 365
3 363 365 366
3 363 366 362
3 370 369 379
3 370 379 386
3 371 386 385
3 371 370 386
3 372 385 384
3 372 371 385
3 373 384 383
3 373 372 384
3 374 373 383
3 375 383 382
3 375 374 383
3 376 382 381
3 376 375 382
3 377 381 380
3 377 376 381
3 378 377 380
3 394 396 395
3 394 397 396
3 393 398 397
3 393 397 394
3 392 399 398
3 392 398 393
3 391 400 399
3 391 399 392
3 390 401 400
3 390 400 391
3 389 387 401
3 389 401 390
3 388 387 389
3 403 404 402
3 403 405 404
3 418 409 408
3 410 409 418
3 419 410 418
3 411 410 419
3 425 422 423
3 425 423 424
3 430 413 412
3 430 414 413
3 431 412 411
3 431 430 412
3 431 414 430
3 432 431 411
3 432 411 419
3 433 419 420
3 433 432 419
3 434 420 421
3 434 433 420
3 435 421 422
3 435 422 425
3 435 434 421
3 436 425 426
3 436 426 435
3 436 435 425
3 437 426 427
3 437 434 435
3 437 432 433
3 437 431 432
3 437 435 426
3 437 433 434
3 437 414 431
3 438 437 427
3 439 427 428
3 439 438 427
3 440 439 428
3 441 428 429
3 441 440 428
3 442 406 407
3 442 429 406
3 442 441 429
3 443 415 414
3 443 437 438
3 443 414 437
3 444 415 443
3 444 438 439
3 444 443 438
3 445 416 415
3 445 415 444
3 445 439 440
3 445 444 439
3 446 445 440
3 447 446 440
3 447 440 441
3 448 441 442
3 448 447 441
3 449 407 417
3 449 442 407
3 449 448 442
3 450 416 445
3 450 445 446
3 451 416 450
3 451 450 446
3 451 446 447
3 452 447 448
3 452 417 416
3 452 451 447
3 452 416 451
3 453 449 417
3 453 448 449
3 453 417 452
3 453 452 448
3 464 455 454
3 464 456 455
3 464 454 463
3 465 456 464
3 466 457 456
3 466 456 465
3 467 458 457
3 467 457 466
3 468 459 458
3 468 458 467
3 469 460 459
3 469 459 468
3 462 461 460
3 462 460 469
3 512 485 486
3 512 505 485
3 513 512 486
3 513 486 487
3 514 487 488
3 514 513 487
3 515 514 488
3 515 488 489
3 516 489 490
3 516 515 489
3 517 484 483
3 517 490 491
3 517 491 484
3 517 516 490
3 518 504 505
3 518 505 512
3 519 512 513
3 519 518 512
3 520 519 513
3 520 513 514
3 521 520 514
3 521 514 515
3 522 515 516
3 522 521 515
3 523 483 482
3 523 517 483
3 523 516 517
3 523 522 516
3 524 503 504
3 524 504 518
3 525 524 518
3 525 518 519
3 526 519 520
3 526 525 519
3 527 520 521
3 527 526 520
3 528 527 521
3 528 521 522
3 529 481 480
3 529 482 481
3 529 528 522
3 529 523 482
3 529 522 523
3 530 502 503
3 530 503 524
3 531 524 525
3 531 530 524
3 532 531 525
3 532 525 526
3 533 526 527
3 533 532 526
3 534 527 528
3 534 533 527
3 535 529 480
3 535 528 529
3 535 534 528
3 536 501 502
3 536 502 530
3 536 530 531
3 537 531 532
3 537 536 531
3 538 537 532
3 539 532 533
3 539 538 532
3 540 533 534
3 540 534 535
3 540 539 533
3 541 480 479
3 541 535 480
3 541 540 535
3 542 500 501
3 542 501 536
3 543 536 537
3 543 537 538
3 543 542 536
3 544 543 538
3 545 538 539
3 545 544 538
3 546 539 540
3 546 540 541
3 546 545 539
3 547 479 478
3 547 541 479
3 547 546 541
3 548 499 500
3 548 500 542
3 549 542 543
3 549 548 542
3 550 543 544
3 550 549 543
3 551 544 545
3 551 550 544
3 552 545 546
3 552 551 545
3 553 552 546
3 553 478 477
3 553 547 478
3 553 546 547
3 554 498 499
3 554 499 548
3 555 548 549
3 555 554 548
3 556 555 549
3 556 549 550
3 557 556 550
3 557 550 551
3 558 551 552
3 558 557 551
3 559 553 477
3 559 477 476
3 559 558 552
3 559 552 553
3 560 497 498
3 560 498 554
3 561 560 554
3 561 554 555
3 562 555 556
3 562 561 555
3 563 562 556
3 563 556 557
3 564 557 558
3 564 558 559
3 564 563 557
3 565 475 474
3 565 476 475
3 565 559 476
3 565 564 559
3 566 495 496
3 566 496 497
3 566 497 560
3 567 560 561
3 567 566 560
3 568 561 562
3 568 567 561
3 568 562 563
3 569 568 563
3 570 563 564
3 570 564 565
3 570 569 563
3 571 570 565
3 571 565 474
3 572 495 566
3 573 566 567
3 573 567 568
3 573 572 566
3 574 573 568
3 575 568 569
3 575 569 570
3 575 574 568
3 576 575 570
3 577 473 472
3 577 474 473
3 577 571 474
3 577 570 571
3 577 576 570
3 578 494 495
3 578 495 572
3 579 572 573
3 579 578 572
3 580 573 574
3 580 579 573
3 581 574 575
3 581 575 576
3 581 580 574
3 582 581 576
3 583 472 471
3 583 577 472
3 583 576 577
3 583 582 576
3 584 492 493
3 584 493 494
3 584 506 492
3 584 494 578
3 585 506 584
3 585 507 506
3 585 578 579
3 585 584 578
3 586 507 585
3 586 508 507
3 586 579 580
3 586 585 579
3 587 586 580
3 587 509 508
3 587 580 581
3 587 508 586
3 588 587 581
3 588 509 587
3 588 510 509
3 588 511 510
3 588 581 582
3 589 471 470
3 589 511 588
3 589 588 582
3 589 470 511
3 589 583 471
3 589 582 583
3 600 591 590
3 600 592 591
3 600 590 599
3 601 592 600
3 602 593 592
3 602 592 601
3 603 594 593
3 603 593 602
3 604 595 594
3 604 594 603
3 605 596 595
3 605 595 604
3 598 597 596
3 598 596 605
3 606 647 607
3 648 621 622
3 648 641 621
3 649 622 623
3 649 648 622
3 650 623 624
3 650 649 623
3 651 650 624
3 651 624 625
3 652 625 626
3 652 651 625
3 653 620 619
3 653 626 627
3 653 627 620
3 653 652 626
3 654 640 641
3 654 641 648
3 655 654 648
3 655 648 649
3 656 655 649
3 656 649 650
3 657 656 650
3 657 650 651
3 658 651 652
3 658 657 651
3 659 619 618
3 659 653 619
3 659 652 653
3 659 658 652
3 660 639 640
3 660 640 654
3 661 660 654
3 661 654 655
3 662 655 656
3 662 661 655
3 663 656 657
3 663 662 656
3 664 663 657
3 664 657 658
3 665 618 617
3 665 664 658
3 665 659 618
3 665 658 659
3 666 639 660
3 666 638 639
3 667 666 660
3 667 660 661
3 668 661 662
3 668 667 661
3 669 663 664
3 669 668 662
3 669 662 663
3 670 664 665
3 670 669 664
3 671 617 616
3 671 670 665
3 671 665 617
3 672 637 638
3 672 638 666
3 673 666 667
3 673 672 666
3 674 667 668
3 674 673 667
3 675 668 669
3 675 674 668
3 676 669 670
3 676 675 669
3 677 616 615
3 677 671 616
3 677 670 671
3 677 676 670
3 678 636 637
3 678 637 672
3 678 672 673
3 679 678 673
3 680 679 673
3 680 673 674
3 681 674 675
3 681 675 676
3 681 680 674
3 682 681 676
3 683 615 614
3 683 677 615
3 683 676 677
3 683 682 676
3 684 635 636
3 684 636 678
3 685 678 679
3 685 684 678
3 686 679 680
3 686 685 679
3 687 680 681
3 687 686 680
3 688 681 682
3 688 687 681
3 689 688 682
3 689 614 613
3 689 683 614
3 689 682 683
3 690 634 635
3 690 635 684
3 691 684 685
3 691 690 684
3 692 691 685
3 692 685 686
3 693 687 688
3 693 692 686
3 693 686 687
3 694 693 688
3 694 688 689
3 695 689 613
3 695 613 612
3 695 694 689
3 696 633 634
3 696 634 690
3 697 696 690
3 697 690 691
3 698 691 692
3 698 697 691
3 699 692 693
3 699 698 692
3 700 699 693
3 700 693 694
3 700 694 695
3 701 611 610
3 701 612 611
3 701 695 612
3 701 700 695
3 702 632 633
3 702 633 696
3 703 696 697
3 703 702 696
3 704 703 697
3 704 697 698
3 705 698 699
3 705 699 700
3 705 704 698
3 706 705 700
3 707 700 701
3 707 706 700
3 707 701 610
3 708 632 702
3 708 630 631
3 708 631 632
3 709 708 702
3 709 702 703
3 710 703 704
3 710 709 703
3 711 704 705
3 711 710 704
3 712 711 705
3 712 705 706
3 713 609 608
3 713 610 609
3 713 707 610
3 713 706 707
3 713 712 706
3 714 630 708
3 715 714 708
3 715 708 709
3 716 709 710
3 716 715 709
3 717 710 711
3 717 716 710
3 718 711 712
3 718 717 711
3 719 713 608
3 719 712 713
3 719 718 712
3 720 630 714
3 720 628 629
3 720 629 630
3 720 642 628
3 721 642 720
3 721 643 642
3 721 714 715
3 721 720 714
3 722 644 643
3 722 643 721
3 722 721 715
3 722 715 716
3 722 716 717
3 723 722 717
3 723 645 644
3 723 644 722
3 724 723 717
3 724 645 723
3 724 646 645
3 724 717 718
3 725 608 607
3 725 646 724
3 725 724 718
3 725 607 647
3 725 647 646
3 725 719 608
3 725 718 719
3 726 727 728
3 751 748 749
3 751 749 750
3 745 746 747
3 745 747 748
3 753 751 752
3 755 753 754
3 758 755 756
3 758 756 757
3 758 751 753
3 758 753 755
3 729 748 751
3 729 745 748
3 729 751 758
3 741 742 743
3 740 741 743
3 737 738 739
3 737 739 740
3 730 743 744
3 730 744 745
3 730 745 729
3 736 737 740
3 732 730 731
3 732 743 730
3 734 732 733
3 734 735 736
3 734 740 743
3 734 736 740
3 734 743 732
