ply
format ascii 1.0
comment generated by blendit.inference.finetune_visualize
element vertex 1105
property float x
property float y
property float z
property uchar red
property uchar green
property uchar blue
element face 1191
property list uchar int vertex_indices
end_header
0 4.36387874 14.1812274 218 222 230
-5.55111512e-17 55.4586191 14.1812274 218 222 230
0 55.4586191 60.6328145 218 222 230
-5.55111512e-17 0 60.6328145 218 222 230
0 -5.55111512e-17 12.7759477 218 222 230
0 4.36387874 12.7759477 218 222 230
0 20.2478501 26.1057781 218 222 230
0 20.2478501 20.0703232 218 222 230
0 20.1324505 19.1199221 218 222 230
0 19.7929583 18.2247548 218 222 230
0 19.2491036 17.4368452 218 222 230
0 18.5324933 16.8019839 218 222 230
0 17.684774 16.3570665 218 222 230
0 16.7552123 16.1279501 218 222 230
0 15.7978307 16.1279501 218 222 230
0 14.868269 16.3570665 218 222 230
0 14.0205497 16.8019839 218 222 230
0 13.3039394 17.4368452 218 222 230
0 12.7600847 18.2247548 218 222 230
0 12.4205925 19.1199221 218 222 230
0 12.3051929 20.0703232 218 222 230
0 12.3051929 26.1057781 218 222 230
0 12.4205925 27.0561792 218 222 230
0 12.7600847 27.9513465 218 222 230
0 13.3039394 28.7392561 218 222 230
0 14.0205497 29.3741175 218 222 230
0 14.868269 29.8190348 218 222 230
0 15.7978307 30.0481512 218 222 230
0 16.7552123 30.0481512 218 222 230
0 17.684774 29.8190348 218 222 230
0 18.5324933 29.3741175 218 222 230
0 19.2491036 28.7392561 218 222 230
0 19.7929583 27.9513465 218 222 230
0 20.1324505 27.0561792 218 222 230
0 7.10399492 35.1612602 218 222 230
0 6.46834565 35.4783372 218 222 230
0 6.42412205 35.5065228 218 222 230
0 6.38672497 35.543287 218 222 230
0 6.35778882 35.5870232 218 222 230
0 6.33857826 35.6358198 218 222 230
0 6.32993288 35.6875442 218 222 230
0 6.27789148 36.541131 218 222 230
0 6.99109861 37.0129936 218 222 230
0 7.24148362 37.028259 218 222 230
0 7.1923663 37.0466341 218 222 230
0 7.14050192 37.0543955 218 222 230
0 7.0881572 37.0512042 218 222 230
0 7.03761985 37.0371995 218 222 230
0 8.00673215 36.6465348 218 222 230
0 8.06758706 35.6483882 218 222 230
0 7.35437993 35.1765256 218 222 230
0 7.15311224 35.1428851 218 222 230
0 7.20497662 35.1351236 218 222 230
0 7.25732134 35.138315 218 222 230
0 7.30785868 35.1523196 218 222 230
0 2.67326062 36.650366 218 222 230
0 1.81897646 36.689318 218 222 230
0 1.76712564 36.6971695 218 222 230
0 1.71804032 36.7156299 218 222 230
0 1.67386576 36.7438923 218 222 230
0 1.6365326 36.7807215 218 222 230
0 1.60767247 36.8245079 218 222 230
0 1.21426383 37.5838157 218 222 230
0 1.75319127 38.4261679 218 222 230
0 2.75215339 38.3806191 218 222 230
0 3.21218806 37.4927181 218 222 230
0 4.36387874 14.1812274 218 222 230
30.8081838 4.36387874 14.1812274 218 222 230
30.8081838 55.4586191 14.1812274 218 222 230
-5.55111512e-17 55.4586191 14.1812274 218 222 230
2.90962181 24.3678613 14.1812274 218 222 230
1.21262577 23.6719731 14.1812274 218 222 230
2.90315885 22.9279094 14.1812274 218 222 230
-5.55111512e-17 55.4586191 14.1812274 255 79 163
0 55.4586191 60.6328145 255 79 163
0.00628933133 55.5144384 60.6328145 255 79 163
0.024841952 55.5674588 60.6328145 255 79 163
0.0547275561 55.6150214 60.6328145 255 79 163
0.0944475546 55.6547414 60.6328145 255 79 163
0.142010221 55.684627 60.6328145 255 79 163
0.195030565 55.7031796 60.6328145 255 79 163
0.250849924 55.709469 60.6328145 255 79 163
0.250849924 55.709469 14.4320773 255 79 163
0.00369141836 55.5014951 14.1849188 255 79 163
0.0146570302 55.5431093 14.1958844 255 79 163
0.0325741035 55.5822368 14.2138015 255 79 163
0.0569153157 55.6177261 14.2381427 255 79 163
0.0869642734 55.6485327 14.2681916 255 79 163
0.121836597 55.6737498 14.303064 255 79 163
0.174045401 55.6974218 14.3552728 255 79 163
0.211978118 55.7064389 14.3932055 255 79 163
0 4.36387874 12.7759477 218 222 230
0 4.36387874 14.1812274 218 222 230
25.6684334 4.36387874 12.7759477 218 222 230
26.1701332 4.36387874 12.2742478 218 222 230
26.1575546 4.36387874 12.3858866 218 222 230
26.1204493 4.36387874 12.4919272 218 222 230
26.0606781 4.36387874 12.5870526 218 222 230
25.9812381 4.36387874 12.6664926 218 222 230
25.8861128 4.36387874 12.7262638 218 222 230
25.7800721 4.36387874 12.763369 218 222 230
26.1701332 4.36387874 0.250849924 218 222 230
30.8081838 4.36387874 0.250849924 218 222 230
30.8081838 4.36387874 14.1812274 218 222 230
-5.55111512e-17 0 60.6328145 255 79 163
0.00628933133 0 60.6886339 255 79 163
0.024841952 0 60.7416542 255 79 163
0.0547275561 0 60.7892169 255 79 163
0.0944475546 0 60.8289369 255 79 163
0.142010221 0 60.8588225 255 79 163
0.195030565 0 60.8773751 255 79 163
0.250849924 0 60.8836645 255 79 163
0.250849924 55.4586191 60.8836645 255 79 163
0 55.4586191 60.6328145 255 79 163
0.00628933133 55.4586191 60.6886339 255 79 163
0.024841952 55.4586191 60.7416542 255 79 163
0.0547275561 55.4586191 60.7892169 255 79 163
0.0944475546 55.4586191 60.8289369 255 79 163
0.142010221 55.4586191 60.8588225 255 79 163
0.195030565 55.4586191 60.8773751 255 79 163
0 -5.55111512e-17 12.7759477 255 79 163
0 4.36387874 12.7759477 255 79 163
0.00369141836 4.36018732 12.7330716 255 79 163
0.0146570302 4.34922171 12.6914574 255 79 163
0.0325741035 4.33130464 12.6523299 255 79 163
0.0569153157 4.30696342 12.6168406 255 79 163
0.0869642734 4.27691447 12.5860341 255 79 163
0.121836597 4.24204214 12.5608169 255 79 163
0.174045401 4.18983334 12.5371449 255 79 163
0.211978118 4.15190062 12.5281279 255 79 163
0.250849924 4.11302882 12.5250978 255 79 163
0.250849924 0.250849924 12.5250978 255 79 163
0.00369141836 0.00369141836 12.7330716 255 79 163
0.0146570302 0.0146570302 12.6914574 255 79 163
0.0325741035 0.0325741035 12.6523299 255 79 163
0.0569153157 0.0569153157 12.6168406 255 79 163
0.0869642734 0.0869642734 12.5860341 255 79 163
0.121836597 0.121836597 12.5608169 255 79 163
0.174045401 0.174045401 12.5371449 255 79 163
0.211978118 0.211978118 12.5281279 255 79 163
0.250849924 0 60.8836645 218 222 230
32.4201952 -5.55111512e-17 60.8836645 218 222 230
32.4201952 -5.55111512e-17 0.250849924 218 222 230
26.1701332 -5.55111512e-17 0.250849924 218 222 230
26.1701332 0 12.2742478 218 222 230
25.6684334 0 12.7759477 218 222 230
25.7800721 0 12.763369 218 222 230
25.8861128 0 12.7262638 218 222 230
25.9812381 0 12.6664926 218 222 230
26.0606781 0 12.5870526 218 222 230
26.1204493 0 12.4919272 218 222 230
26.1575546 0 12.3858866 218 222 230
0 -5.55111512e-17 12.7759477 218 222 230
-5.55111512e-17 0 60.6328145 218 222 230
0.00628933133 0 60.6886339 218 222 230
0.024841952 0 60.7416542 218 222 230
0.0547275561 0 60.7892169 218 222 230
0.0944475546 0 60.8289369 218 222 230
0.142010221 0 60.8588225 218 222 230
0.195030565 0 60.8773751 218 222 230
0 20.2478501 26.1057781 218 222 230
5.08451392 20.2478501 26.1057781 218 222 230
5.08451392 20.2478501 20.0703232 218 222 230
0 20.2478501 20.0703232 218 222 230
0 12.3051929 26.1057781 218 222 230
5.08451392 12.3051929 26.1057781 218 222 230
5.08451392 12.4205925 27.0561792 218 222 230
5.08451392 12.7600847 27.9513465 218 222 230
5.08451392 13.3039394 28.7392561 218 222 230
5.08451392 14.0205497 29.3741175 218 222 230
5.08451392 14.868269 29.8190348 218 222 230
5.08451392 15.7978307 30.0481512 218 222 230
5.08451392 16.7552123 30.0481512 218 222 230
5.08451392 17.684774 29.8190348 218 222 230
5.08451392 18.5324933 29.3741175 218 222 230
5.08451392 19.2491036 28.7392561 218 222 230
5.08451392 19.7929583 27.9513465 218 222 230
5.08451392 20.1324505 27.0561792 218 222 230
5.08451392 20.2478501 26.1057781 218 222 230
0 20.2478501 26.1057781 218 222 230
0 12.4205925 27.0561792 218 222 230
0 12.7600847 27.9513465 218 222 230
0 13.3039394 28.7392561 218 222 230
0 14.0205497 29.3741175 218 222 230
0 14.868269 29.8190348 218 222 230
0 15.7978307 30.0481512 218 222 230
0 16.7552123 30.0481512 218 222 230
0 17.684774 29.8190348 218 222 230
0 18.5324933 29.3741175 218 222 230
0 19.2491036 28.7392561 218 222 230
0 19.7929583 27.9513465 218 222 230
0 20.1324505 27.0561792 218 222 230
0 20.2478501 20.0703232 218 222 230
5.08451392 20.2478501 20.0703232 218 222 230
5.08451392 20.1324505 19.1199221 218 222 230
5.08451392 19.7929583 18.2247548 218 222 230
5.08451392 19.2491036 17.4368452 218 222 230
5.08451392 18.5324933 16.8019839 218 222 230
5.08451392 17.684774 16.3570665 218 222 230
5.08451392 16.7552123 16.1279501 218 222 230
5.08451392 15.7978307 16.1279501 218 222 230
5.08451392 14.868269 16.3570665 218 222 230
5.08451392 14.0205497 16.8019839 218 222 230
5.08451392 13.3039394 17.4368452 218 222 230
5.08451392 12.7600847 18.2247548 218 222 230
5.08451392 12.4205925 19.1199221 218 222 230
5.08451392 12.3051929 20.0703232 218 222 230
0 12.3051929 20.0703232 218 222 230
0 20.1324505 19.1199221 218 222 230
0 19.7929583 18.2247548 218 222 230
0 19.2491036 17.4368452 218 222 230
0 18.5324933 16.8019839 218 222 230
0 17.684774 16.3570665 218 222 230
0 16.7552123 16.1279501 218 222 230
0 15.7978307 16.1279501 218 222 230
0 14.868269 16.3570665 218 222 230
0 14.0205497 16.8019839 218 222 230
0 13.3039394 17.4368452 218 222 230
0 12.7600847 18.2247548 218 222 230
0 12.4205925 19.1199221 218 222 230
0 12.3051929 20.0703232 218 222 230
5.08451392 12.3051929 20.0703232 218 222 230
5.08451392 12.3051929 26.1057781 218 222 230
0 12.3051929 26.1057781 218 222 230
0 7.10399492 35.1612602 218 222 230
0 6.46834565 35.4783372 218 222 230
31.4494937 7.10399492 35.1612602 218 222 230
31.4494937 6.46834565 35.4783372 218 222 230
0 7.10399492 35.1612602 255 79 163
0 7.15311224 35.1428851 255 79 163
0 7.20497662 35.1351236 255 79 163
0 7.25732134 35.138315 255 79 163
0 7.30785868 35.1523196 255 79 163
0 7.35437993 35.1765256 255 79 163
31.4494937 7.35437993 35.1765256 255 79 163
31.4494937 7.10399492 35.1612602 255 79 163
31.4494937 7.15311224 35.1428851 255 79 163
31.4494937 7.20497662 35.1351236 255 79 163
31.4494937 7.25732134 35.138315 255 79 163
31.4494937 7.30785868 35.1523196 255 79 163
0 6.46834565 35.4783372 218 222 230
31.4494937 6.46834565 35.4783372 218 222 230
31.4494937 6.42412205 35.5065228 218 222 230
31.4494937 6.38672497 35.543287 218 222 230
31.4494937 6.35778882 35.5870232 218 222 230
31.4494937 6.33857826 35.6358198 218 222 230
31.4494937 6.32993288 35.6875442 218 222 230
0 6.32993288 35.6875442 218 222 230
0 6.42412205 35.5065228 218 222 230
0 6.38672497 35.543287 218 222 230
0 6.35778882 35.5870232 218 222 230
0 6.33857826 35.6358198 218 222 230
0 8.06758706 35.6483882 218 222 230
0 7.35437993 35.1765256 218 222 230
31.4494937 8.06758706 35.6483882 218 222 230
31.4494937 7.35437993 35.1765256 218 222 230
0 6.32993288 35.6875442 218 222 230
0 6.27789148 36.541131 218 222 230
31.4494937 6.32993288 35.6875442 218 222 230
31.4494937 6.27789148 36.541131 218 222 230
0 8.00673215 36.6465348 218 222 230
31.4494937 8.00673215 36.6465348 218 222 230
31.4494937 8.06758706 35.6483882 218 222 230
0 8.06758706 35.6483882 218 222 230
0 6.27789148 36.541131 218 222 230
0 6.99109861 37.0129936 218 222 230
31.4494937 6.27789148 36.541131 218 222 230
31.4494937 6.99109861 37.0129936 218 222 230
0 7.24148362 37.028259 218 222 230
0 8.00673215 36.6465348 218 222 230
31.4494937 7.24148362 37.028259 218 222 230
31.4494937 8.00673215 36.6465348 218 222 230
0 7.24148362 37.028259 218 222 230
0 7.1923663 37.0466341 218 222 230
0 7.14050192 37.0543955 218 222 230
0 7.0881572 37.0512042 218 222 230
0 7.03761985 37.0371995 218 222 230
0 6.99109861 37.0129936 218 222 230
31.4494937 6.99109861 37.0129936 218 222 230
31.4494937 7.24148362 37.028259 218 222 230
31.4494937 7.1923663 37.0466341 218 222 230
31.4494937 7.14050192 37.0543955 218 222 230
31.4494937 7.0881572 37.0512042 218 222 230
31.4494937 7.03761985 37.0371995 218 222 230
0 2.67326062 36.650366 218 222 230
0 1.81897646 36.689318 218 222 230
32.6710452 2.67326062 36.650366 218 222 230
32.6710452 1.81897646 36.689318 218 222 230
0 1.81897646 36.689318 218 222 230
32.6710452 1.81897646 36.689318 218 222 230
32.6710452 1.76712564 36.6971695 218 222 230
32.6710452 1.71804032 36.7156299 218 222 230
32.6710452 1.67386576 36.7438923 218 222 230
32.6710452 1.6365326 36.7807215 218 222 230
32.6710452 1.60767247 36.8245079 218 222 230
0 1.60767247 36.8245079 218 222 230
0 1.76712564 36.6971695 218 222 230
0 1.71804032 36.7156299 218 222 230
0 1.67386576 36.7438923 218 222 230
0 1.6365326 36.7807215 218 222 230
0 3.21218806 37.4927181 218 222 230
0 2.67326062 36.650366 218 222 230
32.6710452 3.21218806 37.4927181 218 222 230
32.6710452 2.67326062 36.650366 218 222 230
0 1.60767247 36.8245079 218 222 230
0 1.21426383 37.5838157 218 222 230
32.6710452 1.60767247 36.8245079 218 222 230
32.6710452 1.21426383 37.5838157 218 222 230
0 2.75215339 38.3806191 218 222 230
0 3.21218806 37.4927181 218 222 230
32.6710452 2.75215339 38.3806191 218 222 230
32.6710452 3.21218806 37.4927181 218 222 230
0 1.21426383 37.5838157 218 222 230
0 1.75319127 38.4261679 218 222 230
32.6710452 1.21426383 37.5838157 218 222 230
32.6710452 1.75319127 38.4261679 218 222 230
0 1.75319127 38.4261679 218 222 230
0 2.75215339 38.3806191 218 222 230
32.6710452 1.75319127 38.4261679 218 222 230
32.6710452 2.75215339 38.3806191 218 222 230
30.8081838 4.36387874 14.1812274 255 79 163
30.8510598 4.36757016 14.1775359 255 79 163
30.892674 4.37853577 14.1665703 255 79 163
30.9318015 4.39645284 14.1486533 255 79 163
30.9672908 4.42079405 14.124312 255 79 163
30.9980974 4.45084301 14.0942631 255 79 163
31.0233145 4.48571534 14.0593908 255 79 163
31.0469865 4.53792414 14.007182 255 79 163
31.0560036 4.57585686 13.9692492 255 79 163
31.0590337 4.61472866 13.9303774 255 79 163
31.0590337 55.4586191 13.9303774 255 79 163
30.8081838 55.4586191 14.1812274 255 79 163
30.8640031 55.4586191 14.174938 255 79 163
30.9170235 55.4586191 14.1563854 255 79 163
30.9645861 55.4586191 14.1264998 255 79 163
31.0043061 55.4586191 14.0867798 255 79 163
31.0341917 55.4586191 14.0392171 255 79 163
31.0527444 55.4586191 13.9861968 255 79 163
0.250849924 55.709469 14.4320773 255 79 163
30.8081838 55.709469 14.4320773 255 79 163
30.8081838 55.7031796 14.3762579 255 79 163
30.8081838 55.684627 14.3232376 255 79 163
30.8081838 55.6547414 14.2756749 255 79 163
30.8081838 55.6150214 14.2359549 255 79 163
30.8081838 55.5674588 14.2060693 255 79 163
30.8081838 55.5144384 14.1875167 255 79 163
30.8081838 55.4586191 14.1812274 255 79 163
-5.55111512e-17 55.4586191 14.1812274 255 79 163
0.00369141836 55.5014951 14.1849188 255 79 163
0.0146570302 55.5431093 14.1958844 255 79 163
0.0325741035 55.5822368 14.2138015 255 79 163
0.0569153157 55.6177261 14.2381427 255 79 163
0.0869642734 55.6485327 14.2681916 255 79 163
0.121836597 55.6737498 14.303064 255 79 163
0.174045401 55.6974218 14.3552728 255 79 163
0.211978118 55.7064389 14.3932055 255 79 163
2.90962181 24.3678613 60.8836645 218 222 230
1.21262577 23.6719731 60.8836645 218 222 230
2.90962181 24.3678613 14.1812274 218 222 230
1.21262577 23.6719731 14.1812274 218 222 230
1.21262577 23.6719731 60.8836645 218 222 230
2.90315885 22.9279094 60.8836645 218 222 230
1.21262577 23.6719731 14.1812274 218 222 230
2.90315885 22.9279094 14.1812274 218 222 230
2.90315885 22.9279094 60.8836645 218 222 230
2.90962181 24.3678613 60.8836645 218 222 230
2.90315885 22.9279094 14.1812274 218 222 230
2.90962181 24.3678613 14.1812274 218 222 230
31.3098836 55.709469 0 218 222 230
32.4201952 55.709469 0 218 222 230
31.3098836 55.709469 13.9303774 218 222 230
30.8081838 55.709469 14.4320773 218 222 230
30.9198225 55.709469 14.4194986 218 222 230
31.0258632 55.709469 14.3823934 218 222 230
31.1209885 55.709469 14.3226222 218 222 230
31.2004285 55.709469 14.2431822 218 222 230
31.2601997 55.709469 14.1480568 218 222 230
31.297305 55.709469 14.0420162 218 222 230
0.250849924 55.709469 14.4320773 218 222 230
0.250849924 55.709469 60.6328145 218 222 230
32.4201952 55.709469 60.6328145 218 222 230
0.250849924 55.4586191 60.8836645 255 79 163
0.250849924 55.5144384 60.8773751 255 79 163
0.250849924 55.5674588 60.8588225 255 79 163
0.250849924 55.6150214 60.8289369 255 79 163
0.250849924 55.6547414 60.7892169 255 79 163
0.250849924 55.684627 60.7416542 255 79 163
0.250849924 55.7031796 60.6886339 255 79 163
0.250849924 55.709469 60.6328145 255 79 163
0 55.4586191 60.6328145 255 79 163
0.00628933133 55.5144384 60.6328145 255 79 163
0.024841952 55.5674588 60.6328145 255 79 163
0.0547275561 55.6150214 60.6328145 255 79 163
0.0944475546 55.6547414 60.6328145 255 79 163
0.142010221 55.684627 60.6328145 255 79 163
0.195030565 55.7031796 60.6328145 255 79 163
0 55.4586191 60.6328145 255 79 163
0.00628933133 55.4586191 60.6886339 255 79 163
0.024841952 55.4586191 60.7416542 255 79 163
0.0547275561 55.4586191 60.7892169 255 79 163
0.0944475546 55.4586191 60.8289369 255 79 163
0.142010221 55.4586191 60.8588225 255 79 163
0.195030565 55.4586191 60.8773751 255 79 163
0.0122774692 55.5351816 60.6449408 255 79 163
0.0122774692 55.5276871 60.6680065 255 79 163
0.0122774692 55.5134318 60.6876273 255 79 163
0.0479080725 55.5988484 60.6783778 255 79 163
0.0122774692 55.493811 60.7018826 255 79 163
0.0479080725 55.5779053 60.7194811 255 79 163
0.103404038 55.6590624 60.6645616 255 79 163
0.0122774692 55.4707454 60.7093771 255 79 163
0.0479080725 55.5452856 60.7521008 255 79 163
0.103404038 55.6394416 60.7249482 255 79 163
0.0479080725 55.5041823 60.7730439 255 79 163
0.103404038 55.6021206 60.7763161 255 79 163
0.173333035 55.6855149 60.7065375 255 79 163
0.103404038 55.5507527 60.813637 255 79 163
0.173333035 55.6516282 60.7730439 255 79 163
0.103404038 55.4903662 60.8332578 255 79 163
0.173333035 55.5988484 60.8258237 255 79 163
0.173333035 55.532342 60.8597104 255 79 163
0 4.36387874 12.7759477 255 79 163
25.6684334 4.36387874 12.7759477 255 79 163
25.6684334 4.35758941 12.7201283 255 79 163
25.6684334 4.33903679 12.667108 255 79 163
25.6684334 4.30915118 12.6195453 255 79 163
25.6684334 4.26943118 12.5798253 255 79 163
25.6684334 4.22186852 12.5499397 255 79 163
25.6684334 4.16884817 12.5313871 255 79 163
25.6684334 4.11302882 12.5250978 255 79 163
0.250849924 4.11302882 12.5250978 255 79 163
0.00369141836 4.36018732 12.7330716 255 79 163
0.0146570302 4.34922171 12.6914574 255 79 163
0.0325741035 4.33130464 12.6523299 255 79 163
0.0569153157 4.30696342 12.6168406 255 79 163
0.0869642734 4.27691447 12.5860341 255 79 163
0.121836597 4.24204214 12.5608169 255 79 163
0.174045401 4.18983334 12.5371449 255 79 163
0.211978118 4.15190062 12.5281279 255 79 163
25.9192833 4.11302882 12.2742478 255 79 163
25.912994 4.11302882 12.3300672 255 79 163
25.8944414 4.11302882 12.3830875 255 79 163
25.8645558 4.11302882 12.4306502 255 79 163
25.8248358 4.11302882 12.4703702 255 79 163
25.7772731 4.11302882 12.5002558 255 79 163
25.7242528 4.11302882 12.5188084 255 79 163
25.6684334 4.11302882 12.5250978 255 79 163
25.6684334 4.36387874 12.7759477 255 79 163
25.6684334 4.35758941 12.7201283 255 79 163
25.6684334 4.33903679 12.667108 255 79 163
25.6684334 4.30915118 12.6195453 255 79 163
25.6684334 4.26943118 12.5798253 255 79 163
25.6684334 4.22186852 12.5499397 255 79 163
25.6684334 4.16884817 12.5313871 255 79 163
26.1701332 4.36387874 12.2742478 255 79 163
26.1575546 4.36387874 12.3858866 255 79 163
26.1204493 4.36387874 12.4919272 255 79 163
26.0606781 4.36387874 12.5870526 255 79 163
25.9812381 4.36387874 12.6664926 255 79 163
25.8861128 4.36387874 12.7262638 255 79 163
25.7800721 4.36387874 12.763369 255 79 163
26.1143139 4.35758941 12.2742478 255 79 163
26.0612935 4.33903679 12.2742478 255 79 163
26.0137309 4.30915118 12.2742478 255 79 163
25.9740109 4.26943118 12.2742478 255 79 163
25.9441253 4.22186852 12.2742478 255 79 163
25.9255726 4.16884817 12.2742478 255 79 163
25.7676511 4.35758941 12.7089492 255 79 163
25.755853 4.33903679 12.6572582 255 79 163
25.8618937 4.35758941 12.6759723 255 79 163
25.7452693 4.30915118 12.610888 255 79 163
25.838889 4.33903679 12.6282026 255 79 163
25.9464353 4.35758941 12.6228512 255 79 163
25.7364308 4.26943118 12.5721639 255 79 163
25.8182524 4.30915118 12.5853501 255 79 163
25.9133777 4.33903679 12.5813983 255 79 163
25.7297806 4.22186852 12.5430275 255 79 163
26.0170368 4.35758941 12.5522498 255 79 163
25.8010185 4.26943118 12.5495636 255 79 163
25.8837228 4.30915118 12.5442123 255 79 163
25.7256523 4.16884817 12.5249401 255 79 163
25.9755838 4.33903679 12.5191921 255 79 163
25.7880516 4.22186852 12.5226376 255 79 163
26.0701578 4.35758941 12.4677081 255 79 163
25.8589578 4.26943118 12.5131579 255 79 163
25.9383978 4.30915118 12.4895373 255 79 163
25.7800019 4.16884817 12.5059223 255 79 163
26.0223882 4.33903679 12.4447035 255 79 163
25.8403245 4.22186852 12.4897924 255 79 163
26.1031347 4.35758941 12.3734656 255 79 163
25.9073435 4.26943118 12.4647723 255 79 163
25.9795357 4.30915118 12.4240668 255 79 163
25.8287571 4.16884817 12.4752874 255 79 163
26.0514437 4.33903679 12.3616674 255 79 163
25.883978 4.22186852 12.4461389 255 79 163
25.9437492 4.26943118 12.4068329 255 79 163
26.0050735 4.30915118 12.3510838 255 79 163
25.869473 4.16884817 12.4345715 255 79 163
25.9168232 4.22186852 12.3938661 255 79 163
25.9663494 4.26943118 12.3422452 255 79 163
25.9001079 4.16884817 12.3858164 255 79 163
25.9372131 4.22186852 12.3355951 255 79 163
25.9191256 4.16884817 12.3314667 255 79 163
30.8081838 4.36387874 0.250849924 255 79 163
30.8081838 4.36387874 14.1812274 255 79 163
31.0590337 4.61472866 0.250849924 255 79 163
31.0527444 4.5589093 0.250849924 255 79 163
31.0341917 4.50588896 0.250849924 255 79 163
31.0043061 4.45832629 0.250849924 255 79 163
30.9645861 4.4186063 0.250849924 255 79 163
30.9170235 4.38872069 0.250849924 255 79 163
30.8640031 4.37016807 0.250849924 255 79 163
31.0590337 4.61472866 13.9303774 255 79 163
30.8510598 4.36757016 14.1775359 255 79 163
30.892674 4.37853577 14.1665703 255 79 163
30.9318015 4.39645284 14.1486533 255 79 163
30.9672908 4.42079405 14.124312 255 79 163
30.9980974 4.45084301 14.0942631 255 79 163
31.0233145 4.48571534 14.0593908 255 79 163
31.0469865 4.53792414 14.007182 255 79 163
31.0560036 4.57585686 13.9692492 255 79 163
26.1701332 4.36387874 12.2742478 255 79 163
26.1701332 4.36387874 0.250849924 255 79 163
26.1143139 4.35758941 0.250849924 255 79 163
26.0612935 4.33903679 0.250849924 255 79 163
26.0137309 4.30915118 0.250849924 255 79 163
25.9740109 4.26943118 0.250849924 255 79 163
25.9441253 4.22186852 0.250849924 255 79 163
25.9255726 4.16884817 0.250849924 255 79 163
25.9192833 4.11302882 0.250849924 255 79 163
25.9192833 4.11302882 12.2742478 255 79 163
26.1143139 4.35758941 12.2742478 255 79 163
26.0612935 4.33903679 12.2742478 255 79 163
26.0137309 4.30915118 12.2742478 255 79 163
25.9740109 4.26943118 12.2742478 255 79 163
25.9441253 4.22186852 12.2742478 255 79 163
25.9255726 4.16884817 12.2742478 255 79 163
26.1701332 4.36387874 0.250849924 255 79 163
30.8081838 4.36387874 0.250849924 255 79 163
30.8081838 4.11302882 0 255 79 163
30.8081838 4.16884817 0.00628933133 255 79 163
30.8081838 4.22186852 0.024841952 255 79 163
30.8081838 4.26943118 0.0547275561 255 79 163
30.8081838 4.30915118 0.0944475546 255 79 163
30.8081838 4.33903679 0.142010221 255 79 163
30.8081838 4.35758941 0.195030565 255 79 163
26.1701332 4.11302882 -5.55111512e-17 255 79 163
26.1701332 4.35758941 0.195030565 255 79 163
26.1701332 4.33903679 0.142010221 255 79 163
26.1701332 4.30915118 0.0944475546 255 79 163
26.1701332 4.26943118 0.0547275561 255 79 163
26.1701332 4.22186852 0.024841952 255 79 163
26.1701332 4.16884817 0.00628933133 255 79 163
0.250849924 0 60.8836645 218 222 230
32.4201952 -5.55111512e-17 60.8836645 218 222 230
32.4760146 0.00628933133 60.8836645 218 222 230
32.5290349 0.024841952 60.8836645 218 222 230
32.5765976 0.0547275561 60.8836645 218 222 230
32.6163176 0.0944475546 60.8836645 218 222 230
32.6462032 0.142010221 60.8836645 218 222 230
32.6647558 0.195030565 60.8836645 218 222 230
32.6710452 0.250849924 60.8836645 218 222 230
32.6710452 55.4586191 60.8836645 218 222 230
0.250849924 55.4586191 60.8836645 218 222 230
2.90962181 24.3678613 60.8836645 218 222 230
1.21262577 23.6719731 60.8836645 218 222 230
2.90315885 22.9279094 60.8836645 218 222 230
0 -5.55111512e-17 12.7759477 255 79 163
0.00369141836 0.00369141836 12.7330716 255 79 163
0.0146570302 0.0146570302 12.6914574 255 79 163
0.0325741035 0.0325741035 12.6523299 255 79 163
0.0569153157 0.0569153157 12.6168406 255 79 163
0.0869642734 0.0869642734 12.5860341 255 79 163
0.121836597 0.121836597 12.5608169 255 79 163
0.174045401 0.174045401 12.5371449 255 79 163
0.211978118 0.211978118 12.5281279 255 79 163
0.250849924 0.250849924 12.5250978 255 79 163
25.6684334 0.250849924 12.5250978 255 79 163
25.6684334 0 12.7759477 255 79 163
25.6684334 0.00628933133 12.7201283 255 79 163
25.6684334 0.024841952 12.667108 255 79 163
25.6684334 0.0547275561 12.6195453 255 79 163
25.6684334 0.0944475546 12.5798253 255 79 163
25.6684334 0.142010221 12.5499397 255 79 163
25.6684334 0.195030565 12.5313871 255 79 163
0.250849924 4.11302882 12.5250978 218 222 230
25.6684334 4.11302882 12.5250978 218 222 230
0.250849924 0.250849924 12.5250978 218 222 230
25.6684334 0.250849924 12.5250978 218 222 230
32.4201952 -5.55111512e-17 0.250849924 255 79 163
32.48512 0.00854750389 0.185925186 255 79 163
32.5456202 0.0336075173 0.125424962 255 79 163
32.5975729 0.0734722417 0.0734722417 255 79 163
32.6340799 0.119781199 0.0369652036 255 79 163
32.6550596 0.162733927 0.0159855898 255 79 163
32.6666644 0.204174374 0.00438070202 255 79 163
32.6699476 0.227409587 0.00109757669 255 79 163
32.6710452 0.250849924 -5.55111512e-17 255 79 163
32.6710452 0.250849924 60.8836645 255 79 163
32.4201952 -5.55111512e-17 60.8836645 255 79 163
32.4760146 0.00628933133 60.8836645 255 79 163
32.5290349 0.024841952 60.8836645 255 79 163
32.5765976 0.0547275561 60.8836645 255 79 163
32.6163176 0.0944475546 60.8836645 255 79 163
32.6462032 0.142010221 60.8836645 255 79 163
32.6647558 0.195030565 60.8836645 255 79 163
26.1701332 -5.55111512e-17 0.250849924 255 79 163
32.4201952 -5.55111512e-17 0.250849924 255 79 163
26.1701332 0.250849924 -5.55111512e-17 255 79 163
26.1701332 0.195030565 0.00628933133 255 79 163
26.1701332 0.142010221 0.024841952 255 79 163
26.1701332 0.0944475546 0.0547275561 255 79 163
26.1701332 0.0547275561 0.0944475546 255 79 163
26.1701332 0.024841952 0.142010221 255 79 163
26.1701332 0.00628933133 0.195030565 255 79 163
32.6710452 0.250849924 -5.55111512e-17 255 79 163
32.48512 0.00854750389 0.185925186 255 79 163
32.5456202 0.0336075173 0.125424962 255 79 163
32.5975729 0.0734722417 0.0734722417 255 79 163
32.6340799 0.119781199 0.0369652036 255 79 163
32.6550596 0.162733927 0.0159855898 255 79 163
32.6666644 0.204174374 0.00438070202 255 79 163
32.6699476 0.227409587 0.00109757669 255 79 163
26.1701332 -5.55111512e-17 0.250849924 255 79 163
26.1701332 0 12.2742478 255 79 163
26.1143139 0.00628933133 12.2742478 255 79 163
26.0612935 0.024841952 12.2742478 255 79 163
26.0137309 0.0547275561 12.2742478 255 79 163
25.9740109 0.0944475546 12.2742478 255 79 163
25.9441253 0.142010221 12.2742478 255 79 163
25.9255726 0.195030565 12.2742478 255 79 163
25.9192833 0.250849924 12.2742478 255 79 163
25.9192833 0.250849924 0.250849924 255 79 163
25.9255726 0.195030565 0.250849924 255 79 163
25.9441253 0.142010221 0.250849924 255 79 163
25.9740109 0.0944475546 0.250849924 255 79 163
26.0137309 0.0547275561 0.250849924 255 79 163
26.0612935 0.024841952 0.250849924 255 79 163
26.1143139 0.00628933133 0.250849924 255 79 163
25.6684334 0.250849924 12.5250978 255 79 163
25.7242528 0.250849924 12.5188084 255 79 163
25.7772731 0.250849924 12.5002558 255 79 163
25.8248358 0.250849924 12.4703702 255 79 163
25.8645558 0.250849924 12.4306502 255 79 163
25.8944414 0.250849924 12.3830875 255 79 163
25.912994 0.250849924 12.3300672 255 79 163
25.9192833 0.250849924 12.2742478 255 79 163
26.1701332 0 12.2742478 255 79 163
26.1143139 0.00628933133 12.2742478 255 79 163
26.0612935 0.024841952 12.2742478 255 79 163
26.0137309 0.0547275561 12.2742478 255 79 163
25.9740109 0.0944475546 12.2742478 255 79 163
25.9441253 0.142010221 12.2742478 255 79 163
25.9255726 0.195030565 12.2742478 255 79 163
25.6684334 0 12.7759477 255 79 163
25.7800721 0 12.763369 255 79 163
25.8861128 0 12.7262638 255 79 163
25.9812381 0 12.6664926 255 79 163
26.0606781 0 12.5870526 255 79 163
26.1204493 0 12.4919272 255 79 163
26.1575546 0 12.3858866 255 79 163
25.6684334 0.00628933133 12.7201283 255 79 163
25.6684334 0.024841952 12.667108 255 79 163
25.6684334 0.0547275561 12.6195453 255 79 163
25.6684334 0.0944475546 12.5798253 255 79 163
25.6684334 0.142010221 12.5499397 255 79 163
25.6684334 0.195030565 12.5313871 255 79 163
26.1031347 0.00628933133 12.3734656 255 79 163
26.0514437 0.024841952 12.3616674 255 79 163
26.0701578 0.00628933133 12.4677081 255 79 163
26.0050735 0.0547275561 12.3510838 255 79 163
26.0223882 0.024841952 12.4447035 255 79 163
26.0170368 0.00628933133 12.5522498 255 79 163
25.9663494 0.0944475546 12.3422452 255 79 163
25.9795357 0.0547275561 12.4240668 255 79 163
25.9755838 0.024841952 12.5191921 255 79 163
25.9372131 0.142010221 12.3355951 255 79 163
25.9464353 0.00628933133 12.6228512 255 79 163
25.9437492 0.0944475546 12.4068329 255 79 163
25.9383978 0.0547275561 12.4895373 255 79 163
25.9191256 0.195030565 12.3314667 255 79 163
25.9133777 0.024841952 12.5813983 255 79 163
25.9168232 0.142010221 12.3938661 255 79 163
25.8618937 0.00628933133 12.6759723 255 79 163
25.9073435 0.0944475546 12.4647723 255 79 163
25.8837228 0.0547275561 12.5442123 255 79 163
25.9001079 0.195030565 12.3858164 255 79 163
25.838889 0.024841952 12.6282026 255 79 163
25.883978 0.142010221 12.4461389 255 79 163
25.7676511 0.00628933133 12.7089492 255 79 163
25.8589578 0.0944475546 12.5131579 255 79 163
25.8182524 0.0547275561 12.5853501 255 79 163
25.869473 0.195030565 12.4345715 255 79 163
25.755853 0.024841952 12.6572582 255 79 163
25.8403245 0.142010221 12.4897924 255 79 163
25.8010185 0.0944475546 12.5495636 255 79 163
25.7452693 0.0547275561 12.610888 255 79 163
25.8287571 0.195030565 12.4752874 255 79 163
25.7880516 0.142010221 12.5226376 255 79 163
25.7364308 0.0944475546 12.5721639 255 79 163
25.7800019 0.195030565 12.5059223 255 79 163
25.7297806 0.142010221 12.5430275 255 79 163
25.7256523 0.195030565 12.5249401 255 79 163
5.08451392 20.2478501 20.0703232 218 222 230
5.08451392 20.1324505 19.1199221 218 222 230
5.08451392 19.7929583 18.2247548 218 222 230
5.08451392 19.2491036 17.4368452 218 222 230
5.08451392 18.5324933 16.8019839 218 222 230
5.08451392 17.684774 16.3570665 218 222 230
5.08451392 16.7552123 16.1279501 218 222 230
5.08451392 15.7978307 16.1279501 218 222 230
5.08451392 14.868269 16.3570665 218 222 230
5.08451392 14.0205497 16.8019839 218 222 230
5.08451392 13.3039394 17.4368452 218 222 230
5.08451392 12.7600847 18.2247548 218 222 230
5.08451392 12.4205925 19.1199221 218 222 230
5.08451392 12.3051929 20.0703232 218 222 230
5.08451392 12.3051929 26.1057781 218 222 230
5.08451392 12.4205925 27.0561792 218 222 230
5.08451392 12.7600847 27.9513465 218 222 230
5.08451392 13.3039394 28.7392561 218 222 230
5.08451392 14.0205497 29.3741175 218 222 230
5.08451392 14.868269 29.8190348 218 222 230
5.08451392 15.7978307 30.0481512 218 222 230
5.08451392 16.7552123 30.0481512 218 222 230
5.08451392 17.684774 29.8190348 218 222 230
5.08451392 18.5324933 29.3741175 218 222 230
5.08451392 19.2491036 28.7392561 218 222 230
5.08451392 19.7929583 27.9513465 218 222 230
5.08451392 20.1324505 27.0561792 218 222 230
5.08451392 20.2478501 26.1057781 218 222 230
31.4494937 6.32993288 35.6875442 218 222 230
31.4494937 6.27789148 36.541131 218 222 230
31.4494937 6.99109861 37.0129936 218 222 230
31.4494937 7.24148362 37.028259 218 222 230
31.4494937 7.1923663 37.0466341 218 222 230
31.4494937 7.14050192 37.0543955 218 222 230
31.4494937 7.0881572 37.0512042 218 222 230
31.4494937 7.03761985 37.0371995 218 222 230
31.4494937 8.00673215 36.6465348 218 222 230
31.4494937 8.06758706 35.6483882 218 222 230
31.4494937 7.35437993 35.1765256 218 222 230
31.4494937 7.10399492 35.1612602 218 222 230
31.4494937 7.15311224 35.1428851 218 222 230
31.4494937 7.20497662 35.1351236 218 222 230
31.4494937 7.25732134 35.138315 218 222 230
31.4494937 7.30785868 35.1523196 218 222 230
31.4494937 6.46834565 35.4783372 218 222 230
31.4494937 6.42412205 35.5065228 218 222 230
31.4494937 6.38672497 35.543287 218 222 230
31.4494937 6.35778882 35.5870232 218 222 230
31.4494937 6.33857826 35.6358198 218 222 230
32.6710452 0.250849924 60.8836645 218 222 230
32.6710452 55.4586191 60.8836645 218 222 230
32.6710452 0.250849924 -5.55111512e-17 218 222 230
32.6710452 55.4586191 0 218 222 230
32.6710452 1.21426383 37.5838157 218 222 230
32.6710452 1.60767247 36.8245079 218 222 230
32.6710452 1.75319127 38.4261679 218 222 230
32.6710452 2.75215339 38.3806191 218 222 230
32.6710452 3.21218806 37.4927181 218 222 230
32.6710452 2.67326062 36.650366 218 222 230
32.6710452 1.81897646 36.689318 218 222 230
32.6710452 1.76712564 36.6971695 218 222 230
32.6710452 1.71804032 36.7156299 218 222 230
32.6710452 1.67386576 36.7438923 218 222 230
32.6710452 1.6365326 36.7807215 218 222 230
31.0590337 55.4586191 13.9303774 218 222 230
31.0590337 55.4586191 0.250849924 218 222 230
31.0590337 4.61472866 0.250849924 218 222 230
31.0590337 4.61472866 13.9303774 218 222 230
30.8081838 55.709469 14.4320773 255 79 163
30.8081838 55.7031796 14.3762579 255 79 163
30.8081838 55.684627 14.3232376 255 79 163
30.8081838 55.6547414 14.2756749 255 79 163
30.8081838 55.6150214 14.2359549 255 79 163
30.8081838 55.5674588 14.2060693 255 79 163
30.8081838 55.5144384 14.1875167 255 79 163
30.8081838 55.4586191 14.1812274 255 79 163
30.9198225 55.709469 14.4194986 255 79 163
31.0258632 55.709469 14.3823934 255 79 163
31.1209885 55.709469 14.3226222 255 79 163
31.2004285 55.709469 14.2431822 255 79 163
31.2601997 55.709469 14.1480568 255 79 163
31.297305 55.709469 14.0420162 255 79 163
31.3098836 55.709469 13.9303774 255 79 163
31.2540643 55.7031796 13.9303774 255 79 163
31.2010439 55.684627 13.9303774 255 79 163
31.1534813 55.6547414 13.9303774 255 79 163
31.1137613 55.6150214 13.9303774 255 79 163
31.0838757 55.5674588 13.9303774 255 79 163
31.065323 55.5144384 13.9303774 255 79 163
31.0590337 55.4586191 13.9303774 255 79 163
30.8640031 55.4586191 14.174938 255 79 163
30.9170235 55.4586191 14.1563854 255 79 163
30.9645861 55.4586191 14.1264998 255 79 163
31.0043061 55.4586191 14.0867798 255 79 163
31.0341917 55.4586191 14.0392171 255 79 163
31.0527444 55.4586191 13.9861968 255 79 163
30.9074015 55.7031796 14.3650788 255 79 163
30.8956034 55.684627 14.3133878 255 79 163
31.0016441 55.7031796 14.3321019 255 79 163
30.8850197 55.6547414 14.2670176 255 79 163
30.9786394 55.684627 14.2843322 255 79 163
31.0861857 55.7031796 14.2789808 255 79 163
30.8761812 55.6150214 14.2282934 255 79 163
30.9580027 55.6547414 14.2414797 255 79 163
31.0531281 55.684627 14.2375279 255 79 163
30.869531 55.5674588 14.1991571 255 79 163
31.1567872 55.7031796 14.2083794 255 79 163
30.9407689 55.6150214 14.2056932 255 79 163
31.0234732 55.6547414 14.2003419 255 79 163
30.8654026 55.5144384 14.1810697 255 79 163
31.1153342 55.684627 14.1753217 255 79 163
30.927802 55.5674588 14.1787672 255 79 163
31.2099082 55.7031796 14.1238377 255 79 163
30.9987082 55.6150214 14.1692875 255 79 163
31.0781482 55.6547414 14.1456669 255 79 163
30.9197523 55.5144384 14.1620519 255 79 163
31.1621385 55.684627 14.1008331 255 79 163
30.9800748 55.5674588 14.145922 255 79 163
31.2428851 55.7031796 14.0295952 255 79 163
31.0470939 55.6150214 14.1209019 255 79 163
31.1192861 55.6547414 14.0801964 255 79 163
30.9685075 55.5144384 14.131417 255 79 163
31.1911941 55.684627 14.017797 255 79 163
31.0237284 55.5674588 14.1022685 255 79 163
31.0834996 55.6150214 14.0629625 255 79 163
31.1448239 55.6547414 14.0072133 255 79 163
31.0092233 55.5144384 14.0907011 255 79 163
31.0565736 55.5674588 14.0499957 255 79 163
31.1060998 55.6150214 13.9983748 255 79 163
31.0398582 55.5144384 14.041946 255 79 163
31.0769635 55.5674588 13.9917246 255 79 163
31.058876 55.5144384 13.9875963 255 79 163
31.3098836 55.709469 0 218 222 230
32.4201952 55.709469 0 218 222 230
31.3098836 4.61472866 0 218 222 230
31.297305 4.50308994 0 218 222 230
31.2601997 4.39704926 0 218 222 230
31.2004285 4.30192392 0 218 222 230
31.1209885 4.22248393 0 218 222 230
31.0258632 4.16271272 0 218 222 230
30.9198225 4.12560748 0 218 222 230
30.8081838 4.11302882 0 218 222 230
26.1701332 4.11302882 -5.55111512e-17 218 222 230
26.1701332 0.250849924 -5.55111512e-17 218 222 230
32.6710452 0.250849924 -5.55111512e-17 218 222 230
32.6710452 55.4586191 0 218 222 230
32.4760146 55.7031796 0 218 222 230
32.5290349 55.684627 0 218 222 230
32.5765976 55.6547414 0 218 222 230
32.6163176 55.6150214 0 218 222 230
32.6462032 55.5674588 0 218 222 230
32.6647558 55.5144384 0 218 222 230
31.3098836 55.709469 13.9303774 255 79 163
31.3098836 55.709469 0 255 79 163
31.2670076 55.7057776 0.00369141836 255 79 163
31.2253934 55.6948119 0.0146570302 255 79 163
31.1862659 55.6768949 0.0325741035 255 79 163
31.1507766 55.6525537 0.0569153157 255 79 163
31.11997 55.6225047 0.0869642734 255 79 163
31.0947529 55.5876324 0.121836597 255 79 163
31.0710809 55.5354236 0.174045401 255 79 163
31.0620638 55.4974909 0.211978118 255 79 163
31.0590337 55.4586191 0.250849924 255 79 163
31.0590337 55.4586191 13.9303774 255 79 163
31.2540643 55.7031796 13.9303774 255 79 163
31.2010439 55.684627 13.9303774 255 79 163
31.1534813 55.6547414 13.9303774 255 79 163
31.1137613 55.6150214 13.9303774 255 79 163
31.0838757 55.5674588 13.9303774 255 79 163
31.065323 55.5144384 13.9303774 255 79 163
32.4201952 55.709469 0 255 79 163
32.4201952 55.709469 60.6328145 255 79 163
32.48512 55.7009215 60.6977393 255 79 163
32.5456202 55.6758615 60.7582395 255 79 163
32.5975729 55.6359967 60.8101922 255 79 163
32.6340799 55.5896878 60.8466993 255 79 163
32.6550596 55.5467351 60.8676789 255 79 163
32.6666644 55.5052946 60.8792838 255 79 163
32.6699476 55.4820594 60.8825669 255 79 163
32.6710452 55.4586191 60.8836645 255 79 163
32.6710452 55.4586191 0 255 79 163
32.4760146 55.7031796 0 255 79 163
32.5290349 55.684627 0 255 79 163
32.5765976 55.6547414 0 255 79 163
32.6163176 55.6150214 0 255 79 163
32.6462032 55.5674588 0 255 79 163
32.6647558 55.5144384 0 255 79 163
0.250849924 55.709469 60.6328145 255 79 163
32.4201952 55.709469 60.6328145 255 79 163
0.250849924 55.4586191 60.8836645 255 79 163
0.250849924 55.5144384 60.8773751 255 79 163
0.250849924 55.5674588 60.8588225 255 79 163
0.250849924 55.6150214 60.8289369 255 79 163
0.250849924 55.6547414 60.7892169 255 79 163
0.250849924 55.684627 60.7416542 255 79 163
0.250849924 55.7031796 60.6886339 255 79 163
32.6710452 55.4586191 60.8836645 255 79 163
32.48512 55.7009215 60.6977393 255 79 163
32.5456202 55.6758615 60.7582395 255 79 163
32.5975729 55.6359967 60.8101922 255 79 163
32.6340799 55.5896878 60.8466993 255 79 163
32.6550596 55.5467351 60.8676789 255 79 163
32.6666644 55.5052946 60.8792838 255 79 163
32.6699476 55.4820594 60.8825669 255 79 163
25.6684334 0.250849924 12.5250978 255 79 163
25.6684334 4.11302882 12.5250978 255 79 163
25.7242528 0.250849924 12.5188084 255 79 163
25.7772731 0.250849924 12.5002558 255 79 163
25.8248358 0.250849924 12.4703702 255 79 163
25.8645558 0.250849924 12.4306502 255 79 163
25.8944414 0.250849924 12.3830875 255 79 163
25.912994 0.250849924 12.3300672 255 79 163
25.9192833 0.250849924 12.2742478 255 79 163
25.9192833 4.11302882 12.2742478 255 79 163
25.912994 4.11302882 12.3300672 255 79 163
25.8944414 4.11302882 12.3830875 255 79 163
25.8645558 4.11302882 12.4306502 255 79 163
25.8248358 4.11302882 12.4703702 255 79 163
25.7772731 4.11302882 12.5002558 255 79 163
25.7242528 4.11302882 12.5188084 255 79 163
31.3098836 4.61472866 0 255 79 163
31.2540643 4.61472866 0.00628933133 255 79 163
31.2010439 4.61472866 0.024841952 255 79 163
31.1534813 4.61472866 0.0547275561 255 79 163
31.1137613 4.61472866 0.0944475546 255 79 163
31.0838757 4.61472866 0.142010221 255 79 163
31.065323 4.61472866 0.195030565 255 79 163
31.0590337 4.61472866 0.250849924 255 79 163
31.297305 4.50308994 0 255 79 163
31.2601997 4.39704926 0 255 79 163
31.2004285 4.30192392 0 255 79 163
31.1209885 4.22248393 0 255 79 163
31.0258632 4.16271272 0 255 79 163
30.9198225 4.12560748 0 255 79 163
30.8081838 4.11302882 0 255 79 163
30.8081838 4.16884817 0.00628933133 255 79 163
30.8081838 4.22186852 0.024841952 255 79 163
30.8081838 4.26943118 0.0547275561 255 79 163
30.8081838 4.30915118 0.0944475546 255 79 163
30.8081838 4.33903679 0.142010221 255 79 163
30.8081838 4.35758941 0.195030565 255 79 163
30.8081838 4.36387874 0.250849924 255 79 163
31.0527444 4.5589093 0.250849924 255 79 163
31.0341917 4.50588896 0.250849924 255 79 163
31.0043061 4.45832629 0.250849924 255 79 163
30.9645861 4.4186063 0.250849924 255 79 163
30.9170235 4.38872069 0.250849924 255 79 163
30.8640031 4.37016807 0.250849924 255 79 163
31.2428851 4.51551092 0.00628933133 255 79 163
31.1911941 4.52730906 0.024841952 255 79 163
31.2099082 4.42126837 0.00628933133 255 79 163
31.1448239 4.53789275 0.0547275561 255 79 163
31.1621385 4.44427303 0.024841952 255 79 163
31.1567872 4.33672673 0.00628933133 255 79 163
31.1060998 4.54673128 0.0944475546 255 79 163
31.1192861 4.4649097 0.0547275561 255 79 163
31.1153342 4.36978437 0.024841952 255 79 163
31.0769635 4.55338145 0.142010221 255 79 163
31.0861857 4.26612526 0.00628933133 255 79 163
31.0834996 4.48214356 0.0944475546 255 79 163
31.0781482 4.39943921 0.0547275561 255 79 163
31.058876 4.5575098 0.195030565 255 79 163
31.0531281 4.30757823 0.024841952 255 79 163
31.0565736 4.49511044 0.142010221 255 79 163
31.0016441 4.21300422 0.00628933133 255 79 163
31.0470939 4.42420422 0.0944475546 255 79 163
31.0234732 4.34476422 0.0547275561 255 79 163
31.0398582 4.50316012 0.195030565 255 79 163
30.9786394 4.2607739 0.024841952 255 79 163
31.0237284 4.44283759 0.142010221 255 79 163
30.9074015 4.18002733 0.00628933133 255 79 163
30.9987082 4.37581857 0.0944475546 255 79 163
30.9580027 4.30362638 0.0547275561 255 79 163
31.0092233 4.45440496 0.195030565 255 79 163
30.8956034 4.23171834 0.024841952 255 79 163
30.9800748 4.39918408 0.142010221 255 79 163
30.9407689 4.33941287 0.0944475546 255 79 163
30.8850197 4.27808851 0.0547275561 255 79 163
30.9685075 4.4136891 0.195030565 255 79 163
30.927802 4.36633887 0.142010221 255 79 163
30.8761812 4.31681265 0.0944475546 255 79 163
30.9197523 4.3830542 0.195030565 255 79 163
30.869531 4.34594896 0.142010221 255 79 163
30.8654026 4.36403643 0.195030565 255 79 163
25.9192833 4.11302882 0.250849924 218 222 230
25.9192833 0.250849924 0.250849924 218 222 230
25.9192833 0.250849924 12.2742478 218 222 230
25.9192833 4.11302882 12.2742478 218 222 230
26.1701332 4.11302882 -5.55111512e-17 255 79 163
26.1143139 4.11302882 0.00628933133 255 79 163
26.0612935 4.11302882 0.024841952 255 79 163
26.0137309 4.11302882 0.0547275561 255 79 163
25.9740109 4.11302882 0.0944475546 255 79 163
25.9441253 4.11302882 0.142010221 255 79 163
25.9255726 4.11302882 0.195030565 255 79 163
25.9192833 4.11302882 0.250849924 255 79 163
26.1701332 4.36387874 0.250849924 255 79 163
26.1143139 4.35758941 0.250849924 255 79 163
26.0612935 4.33903679 0.250849924 255 79 163
26.0137309 4.30915118 0.250849924 255 79 163
25.9740109 4.26943118 0.250849924 255 79 163
25.9441253 4.22186852 0.250849924 255 79 163
25.9255726 4.16884817 0.250849924 255 79 163
26.1701332 4.36387874 0.250849924 255 79 163
26.1701332 4.35758941 0.195030565 255 79 163
26.1701332 4.33903679 0.142010221 255 79 163
26.1701332 4.30915118 0.0944475546 255 79 163
26.1701332 4.26943118 0.0547275561 255 79 163
26.1701332 4.22186852 0.024841952 255 79 163
26.1701332 4.16884817 0.00628933133 255 79 163
26.0935707 4.35160127 0.238723611 255 79 163
26.1010652 4.35160127 0.215657993 255 79 163
26.1153205 4.35160127 0.196037206 255 79 163
26.0299039 4.31597067 0.20528664 255 79 163
26.1349413 4.35160127 0.18178187 255 79 163
26.050847 4.31597067 0.164183407 255 79 163
25.9696899 4.2604747 0.219102824 255 79 163
26.1580069 4.35160127 0.174287396 255 79 163
26.0834667 4.31597067 0.131563697 255 79 163
25.9893107 4.2604747 0.158716251 255 79 163
26.12457 4.31597067 0.110620553 255 79 163
26.0266317 4.2604747 0.107348365 255 79 163
25.9432374 4.1905457 0.177126981 255 79 163
26.0779996 4.2604747 0.0700274103 255 79 163
25.9771241 4.1905457 0.110620553 255 79 163
26.1383861 4.2604747 0.0504066234 255 79 163
26.0299039 4.1905457 0.0578407537 255 79 163
26.0964103 4.1905457 0.0239540362 255 79 163
26.1701332 0.250849924 -5.55111512e-17 255 79 163
26.1701332 0.195030565 0.00628933133 255 79 163
26.1701332 0.142010221 0.024841952 255 79 163
26.1701332 0.0944475546 0.0547275561 255 79 163
26.1701332 0.0547275561 0.0944475546 255 79 163
26.1701332 0.024841952 0.142010221 255 79 163
26.1701332 0.00628933133 0.195030565 255 79 163
26.1701332 -5.55111512e-17 0.250849924 255 79 163
25.9192833 0.250849924 0.250849924 255 79 163
25.9255726 0.195030565 0.250849924 255 79 163
25.9441253 0.142010221 0.250849924 255 79 163
25.9740109 0.0944475546 0.250849924 255 79 163
26.0137309 0.0547275561 0.250849924 255 79 163
26.0612935 0.024841952 0.250849924 255 79 163
26.1143139 0.00628933133 0.250849924 255 79 163
25.9192833 0.250849924 0.250849924 255 79 163
25.9255726 0.250849924 0.195030565 255 79 163
25.9441253 0.250849924 0.142010221 255 79 163
25.9740109 0.250849924 0.0944475546 255 79 163
26.0137309 0.250849924 0.0547275561 255 79 163
26.0612935 0.250849924 0.024841952 255 79 163
26.1143139 0.250849924 0.00628933133 255 79 163
25.9315608 0.174287396 0.238723611 255 79 163
25.9315608 0.18178187 0.215657993 255 79 163
25.9315608 0.196037206 0.196037206 255 79 163
25.9671914 0.110620553 0.20528664 255 79 163
25.9315608 0.215657993 0.18178187 255 79 163
25.9671914 0.131563697 0.164183407 255 79 163
26.0226874 0.0504066234 0.219102824 255 79 163
25.9315608 0.238723611 0.174287396 255 79 163
25.9671914 0.164183407 0.131563697 255 79 163
26.0226874 0.0700274103 0.158716251 255 79 163
25.9671914 0.20528664 0.110620553 255 79 163
26.0226874 0.107348365 0.107348365 255 79 163
26.0926164 0.0239540362 0.177126981 255 79 163
26.0226874 0.158716251 0.0700274103 255 79 163
26.0926164 0.0578407537 0.110620553 255 79 163
26.0226874 0.219102824 0.0504066234 255 79 163
26.0926164 0.110620553 0.0578407537 255 79 163
26.0926164 0.177126981 0.0239540362 255 79 163
31.3098836 55.709469 0 255 79 163
31.3098836 4.61472866 0 255 79 163
31.2540643 4.61472866 0.00628933133 255 79 163
31.2010439 4.61472866 0.024841952 255 79 163
31.1534813 4.61472866 0.0547275561 255 79 163
31.1137613 4.61472866 0.0944475546 255 79 163
31.0838757 4.61472866 0.142010221 255 79 163
31.065323 4.61472866 0.195030565 255 79 163
31.0590337 4.61472866 0.250849924 255 79 163
31.0590337 55.4586191 0.250849924 255 79 163
31.2670076 55.7057776 0.00369141836 255 79 163
31.2253934 55.6948119 0.0146570302 255 79 163
31.1862659 55.6768949 0.0325741035 255 79 163
31.1507766 55.6525537 0.0569153157 255 79 163
31.11997 55.6225047 0.0869642734 255 79 163
31.0947529 55.5876324 0.121836597 255 79 163
31.0710809 55.5354236 0.174045401 255 79 163
31.0620638 55.4974909 0.211978118 255 79 163
25.9192833 0.250849924 0.250849924 255 79 163
25.9255726 0.250849924 0.195030565 255 79 163
25.9441253 0.250849924 0.142010221 255 79 163
25.9740109 0.250849924 0.0944475546 255 79 163
26.0137309 0.250849924 0.0547275561 255 79 163
26.0612935 0.250849924 0.024841952 255 79 163
26.1143139 0.250849924 0.00628933133 255 79 163
26.1701332 0.250849924 -5.55111512e-17 255 79 163
25.9192833 4.11302882 0.250849924 255 79 163
26.1701332 4.11302882 -5.55111512e-17 255 79 163
26.1143139 4.11302882 0.00628933133 255 79 163
26.0612935 4.11302882 0.024841952 255 79 163
26.0137309 4.11302882 0.0547275561 255 79 163
25.9740109 4.11302882 0.0944475546 255 79 163
25.9441253 4.11302882 0.142010221 255 79 163
25.9255726 4.11302882 0.195030565 255 79 163
3 11 10 1
3 9 1 10
3 12 11 1
3 8 1 9
3 13 12 1
3 7 1 8
3 6 1 7
3 33 1 6
3 32 2 1
3 32 1 33
3 31 2 32
3 0 18 17
3 0 19 18
3 0 20 19
3 30 2 31
3 29 2 30
3 4 0 5
3 21 20 0
3 49 25 24
3 49 26 25
3 49 27 26
3 50 49 24
3 54 24 23
3 54 50 24
3 53 54 23
3 52 23 22
3 52 53 23
3 51 22 21
3 51 52 22
3 34 51 21
3 48 27 49
3 48 28 27
3 48 29 28
3 48 2 29
3 35 34 21
3 55 36 35
3 55 37 36
3 55 38 37
3 55 39 38
3 55 40 39
3 55 41 40
3 65 42 41
3 65 41 55
3 56 21 0
3 56 35 21
3 56 55 35
3 57 56 0
3 57 0 4
3 58 57 4
3 59 58 4
3 60 59 4
3 61 60 4
3 64 45 46
3 64 46 47
3 64 47 42
3 64 42 65
3 62 61 4
3 3 43 44
3 3 44 45
3 3 48 43
3 3 2 48
3 3 63 62
3 3 64 63
3 3 45 64
3 0 13 1
3 0 14 13
3 0 15 14
3 0 16 15
3 0 17 16
3 3 62 4
3 72 67 66
3 70 67 72
3 71 72 66
3 68 67 70
3 69 70 71
3 69 68 70
3 69 71 66
3 81 82 90
3 80 90 89
3 80 81 90
3 79 89 88
3 79 80 89
3 78 88 87
3 78 79 88
3 77 86 85
3 77 87 86
3 77 78 87
3 76 85 84
3 76 77 85
3 75 84 83
3 75 76 84
3 74 83 73
3 74 75 83
3 94 102 101
3 94 103 102
3 95 103 94
3 96 103 95
3 97 103 96
3 98 103 97
3 99 103 98
3 100 103 99
3 93 103 100
3 92 93 91
3 103 93 92
3 114 104 105
3 114 113 104
3 115 105 106
3 115 114 105
3 116 106 107
3 116 115 106
3 117 107 108
3 117 116 107
3 118 108 109
3 118 117 108
3 119 109 110
3 119 118 109
3 112 110 111
3 112 119 110
3 129 130 131
3 129 131 139
3 128 139 138
3 128 129 139
3 127 138 137
3 127 128 138
3 126 137 136
3 126 127 137
3 125 135 134
3 125 136 135
3 125 126 136
3 124 134 133
3 124 125 134
3 123 133 132
3 123 124 133
3 122 123 132
3 121 132 120
3 121 122 132
3 144 143 142
3 151 144 142
3 153 152 145
3 156 154 153
3 156 155 154
3 157 156 153
3 140 158 157
3 140 159 158
3 140 157 153
3 141 145 146
3 141 146 147
3 141 147 148
3 141 148 149
3 141 153 145
3 141 140 153
3 141 151 142
3 141 150 151
3 141 149 150
3 163 161 160
3 163 162 161
3 180 165 164
3 180 166 165
3 181 167 166
3 181 166 180
3 182 168 167
3 182 167 181
3 183 169 168
3 183 170 169
3 183 168 182
3 184 170 183
3 185 171 170
3 185 170 184
3 186 172 171
3 186 173 172
3 186 171 185
3 187 173 186
3 188 174 173
3 188 173 187
3 189 175 174
3 189 174 188
3 190 176 175
3 190 175 189
3 191 177 176
3 191 176 190
3 179 178 177
3 179 177 191
3 208 193 192
3 208 194 193
3 209 195 194
3 209 194 208
3 210 196 195
3 210 195 209
3 211 197 196
3 211 198 197
3 211 196 210
3 212 198 211
3 213 199 198
3 213 200 199
3 213 198 212
3 214 200 213
3 215 201 200
3 215 202 201
3 215 200 214
3 216 202 215
3 217 203 202
3 217 202 216
3 218 204 203
3 218 203 217
3 219 205 204
3 219 206 205
3 219 204 218
3 207 206 219
3 223 221 220
3 223 222 221
3 225 226 224
3 225 227 226
3 235 229 228
3 236 229 235
3 237 230 229
3 237 229 236
3 238 231 230
3 238 230 237
3 239 232 231
3 239 233 232
3 239 231 238
3 234 233 239
3 246 251 247
3 245 251 246
3 244 250 251
3 244 251 245
3 243 249 250
3 243 250 244
3 242 248 249
3 242 249 243
3 241 240 248
3 241 248 242
3 253 254 252
3 253 255 254
3 256 259 258
3 257 259 256
3 263 261 260
3 263 262 261
3 265 266 264
3 265 267 266
3 268 271 270
3 269 271 268
3 280 273 272
3 280 272 279
3 281 274 273
3 281 273 280
3 282 275 274
3 282 274 281
3 283 276 275
3 283 277 276
3 283 275 282
3 278 277 283
3 285 286 284
3 285 287 286
3 293 295 294
3 293 298 299
3 293 299 295
3 292 297 298
3 292 298 293
3 291 296 297
3 291 297 292
3 290 296 291
3 289 288 296
3 289 296 290
3 300 303 302
3 301 303 300
3 305 306 304
3 305 307 306
3 309 310 308
3 309 311 310
3 312 315 314
3 313 315 312
3 316 319 318
3 317 319 316
3 331 321 320
3 332 322 321
3 332 321 331
3 333 323 322
3 333 322 332
3 334 324 323
3 334 325 324
3 334 323 333
3 335 326 325
3 335 325 334
3 336 327 326
3 336 326 335
3 337 328 327
3 337 327 336
3 330 329 328
3 330 328 337
3 346 347 348
3 345 348 349
3 345 346 348
3 344 349 350
3 344 345 349
3 343 350 351
3 343 351 352
3 343 344 350
3 342 352 353
3 342 343 352
3 341 353 354
3 341 342 353
3 340 354 355
3 340 341 354
3 339 355 338
3 339 340 355
3 357 358 356
3 357 359 358
3 361 362 360
3 361 363 362
3 365 366 364
3 365 367 366
3 370 369 368
3 379 371 378
3 380 372 371
3 380 373 372
3 380 374 373
3 380 375 374
3 380 371 379
3 380 369 370
3 380 370 377
3 380 377 376
3 380 376 375
3 387 388 395
3 381 382 402
3 403 391 390
3 404 390 389
3 404 403 390
3 405 389 396
3 405 404 389
3 406 392 391
3 406 403 404
3 406 391 403
3 407 396 397
3 407 405 396
3 408 404 405
3 408 406 404
3 409 393 392
3 409 394 393
3 409 392 406
3 410 397 398
3 410 407 397
3 411 408 405
3 411 405 407
3 412 406 408
3 412 409 406
3 413 398 399
3 413 411 407
3 413 410 398
3 413 407 410
3 414 408 411
3 414 412 408
3 415 386 387
3 415 395 394
3 415 394 409
3 415 409 412
3 415 387 395
3 416 411 413
3 416 414 411
3 417 385 386
3 417 386 415
3 417 412 414
3 417 415 412
3 418 399 400
3 418 400 401
3 418 413 399
3 418 416 413
3 419 383 384
3 419 384 385
3 419 385 417
3 419 414 416
3 419 417 414
3 420 382 383
3 420 401 402
3 420 402 382
3 420 383 419
3 420 418 401
3 420 416 418
3 420 419 416
3 429 430 438
3 428 438 437
3 428 429 438
3 427 437 436
3 427 428 437
3 426 436 435
3 426 427 436
3 425 434 433
3 425 435 434
3 425 426 435
3 424 433 432
3 424 425 433
3 423 432 431
3 423 424 432
3 422 431 421
3 422 423 431
3 461 455 454
3 467 448 447
3 467 447 460
3 468 449 448
3 468 448 467
3 469 460 459
3 469 467 460
3 470 450 449
3 470 449 468
3 471 467 469
3 471 468 467
3 472 459 458
3 472 469 459
3 473 451 450
3 473 450 470
3 474 470 468
3 474 468 471
3 475 469 472
3 475 471 469
3 476 452 451
3 476 451 473
3 477 458 457
3 477 472 458
3 478 470 474
3 478 473 470
3 479 474 471
3 479 471 475
3 480 445 446
3 480 453 452
3 480 446 453
3 480 452 476
3 481 475 472
3 481 472 477
3 482 476 473
3 482 473 478
3 483 457 456
3 483 477 457
3 484 478 474
3 484 474 479
3 485 479 475
3 485 475 481
3 486 444 445
3 486 445 480
3 486 480 476
3 486 476 482
3 487 477 483
3 487 481 477
3 488 478 484
3 488 482 478
3 489 456 455
3 489 483 456
3 489 455 461
3 490 484 479
3 490 479 485
3 491 481 487
3 491 485 481
3 492 443 444
3 492 486 482
3 492 482 488
3 492 444 486
3 493 489 461
3 493 483 489
3 493 461 462
3 493 487 483
3 494 484 490
3 494 488 484
3 495 490 485
3 495 485 491
3 496 487 493
3 496 491 487
3 496 462 463
3 496 493 462
3 497 442 443
3 497 492 488
3 497 488 494
3 497 443 492
3 498 490 495
3 498 494 490
3 499 463 464
3 499 495 491
3 499 491 496
3 499 496 463
3 500 441 442
3 500 442 497
3 500 494 498
3 500 497 494
3 501 464 465
3 501 498 495
3 501 495 499
3 501 499 464
3 502 439 440
3 502 440 441
3 502 465 466
3 502 466 439
3 502 441 500
3 502 498 501
3 502 501 465
3 502 500 498
3 513 503 504
3 513 511 503
3 514 510 511
3 514 511 513
3 515 509 510
3 515 510 514
3 516 509 515
3 517 508 509
3 517 509 516
3 518 507 508
3 518 508 517
3 519 506 507
3 519 507 518
3 520 505 506
3 520 506 519
3 512 505 520
3 528 529 530
3 528 536 535
3 528 530 536
3 527 535 534
3 527 528 535
3 526 534 533
3 526 527 534
3 525 533 532
3 525 526 533
3 524 532 531
3 524 525 532
3 523 531 521
3 523 524 531
3 522 523 521
3 540 539 546
3 540 546 552
3 541 552 551
3 541 540 552
3 542 551 550
3 542 541 551
3 543 550 549
3 543 542 550
3 544 549 548
3 544 543 549
3 545 548 547
3 545 544 548
3 538 547 537
3 538 545 547
3 566 565 553
3 554 566 553
3 558 554 555
3 558 555 556
3 558 556 557
3 561 558 559
3 561 559 560
3 561 564 566
3 561 566 554
3 561 554 558
3 563 565 564
3 562 563 564
3 562 564 561
3 563 553 565
3 578 567 568
3 579 568 569
3 579 578 568
3 580 569 570
3 580 579 569
3 581 570 571
3 581 571 572
3 581 580 570
3 582 572 573
3 582 581 572
3 583 573 574
3 583 582 573
3 584 574 575
3 584 583 574
3 577 575 576
3 577 584 575
3 585 588 587
3 585 586 588
3 600 589 590
3 600 599 589
3 601 590 591
3 601 600 590
3 602 591 592
3 602 601 591
3 603 592 593
3 603 602 592
3 604 593 594
3 604 603 593
3 605 594 595
3 605 595 596
3 605 604 594
3 598 596 597
3 598 605 596
3 607 606 614
3 616 614 613
3 616 607 614
3 617 613 612
3 617 616 613
3 618 612 611
3 618 617 612
3 619 611 610
3 619 618 611
3 620 610 609
3 620 619 610
3 621 620 609
3 622 609 608
3 622 621 609
3 615 622 608
3 631 632 633
3 630 633 634
3 630 631 633
3 629 634 635
3 629 630 634
3 628 635 636
3 628 629 635
3 627 636 637
3 627 628 636
3 626 637 638
3 626 627 637
3 625 638 623
3 625 626 638
3 624 625 623
3 661 655 654
3 667 648 647
3 667 647 660
3 668 649 648
3 668 648 667
3 669 660 659
3 669 667 660
3 670 650 649
3 670 649 668
3 671 667 669
3 671 668 667
3 672 659 658
3 672 669 659
3 673 651 650
3 673 650 670
3 674 670 668
3 674 668 671
3 675 669 672
3 675 671 669
3 676 652 651
3 676 651 673
3 677 658 657
3 677 672 658
3 678 673 670
3 678 670 674
3 679 671 675
3 679 674 671
3 680 645 646
3 680 653 652
3 680 646 653
3 680 652 676
3 681 675 672
3 681 672 677
3 682 673 678
3 682 676 673
3 683 657 656
3 683 677 657
3 684 678 674
3 684 674 679
3 685 679 675
3 685 675 681
3 686 676 682
3 686 644 645
3 686 645 680
3 686 680 676
3 687 677 683
3 687 681 677
3 688 682 678
3 688 678 684
3 689 656 655
3 689 683 656
3 689 655 661
3 690 684 679
3 690 679 685
3 691 681 687
3 691 685 681
3 692 643 644
3 692 644 686
3 692 682 688
3 692 686 682
3 693 687 683
3 693 689 661
3 693 661 662
3 693 683 689
3 694 684 690
3 694 688 684
3 695 690 685
3 695 685 691
3 696 693 662
3 696 662 663
3 696 687 693
3 696 691 687
3 697 642 643
3 697 692 688
3 697 688 694
3 697 643 692
3 698 690 695
3 698 694 690
3 699 663 664
3 699 696 663
3 699 695 691
3 699 691 696
3 700 641 642
3 700 642 697
3 700 694 698
3 700 697 694
3 701 664 665
3 701 698 695
3 701 699 664
3 701 695 699
3 702 639 640
3 702 640 641
3 702 665 666
3 702 666 639
3 702 641 700
3 702 701 665
3 702 700 698
3 702 698 701
3 730 726 727
3 730 727 728
3 730 728 729
3 723 724 725
3 723 725 726
3 720 721 722
3 720 722 723
3 718 719 720
3 717 726 730
3 717 723 726
3 717 720 723
3 717 718 720
3 707 704 705
3 707 705 706
3 709 707 708
3 716 730 703
3 716 717 730
3 710 704 707
3 710 707 709
3 715 716 703
3 714 703 704
3 714 715 703
3 712 710 711
3 712 704 710
3 713 714 704
3 713 704 712
3 736 735 734
3 737 736 734
3 738 737 734
3 733 738 734
3 741 734 739
3 741 739 740
3 742 744 743
3 742 745 744
3 742 746 745
3 742 741 746
3 731 732 733
3 731 733 734
3 731 734 741
3 747 731 741
3 747 741 742
3 750 751 731
3 749 747 748
3 749 731 747
3 749 750 731
3 761 754 755
3 760 755 753
3 760 761 755
3 762 754 761
3 763 754 762
3 764 754 763
3 765 754 764
3 766 754 765
3 757 754 766
3 759 760 753
3 752 756 758
3 752 758 759
3 752 759 753
3 752 754 756
3 756 754 757
3 769 767 768
3 769 770 767
3 786 784 785
3 799 772 771
3 799 771 779
3 800 773 772
3 800 772 799
3 801 779 780
3 801 799 779
3 802 774 773
3 802 773 800
3 803 799 801
3 803 800 799
3 804 780 781
3 804 801 780
3 805 775 774
3 805 774 802
3 806 802 800
3 806 800 803
3 807 803 801
3 807 801 804
3 808 776 775
3 808 775 805
3 809 781 782
3 809 804 781
3 810 802 806
3 810 805 802
3 811 803 807
3 811 806 803
3 812 777 776
3 812 778 777
3 812 793 778
3 812 776 808
3 813 804 809
3 813 807 804
3 814 808 805
3 814 805 810
3 815 782 783
3 815 809 782
3 816 810 806
3 816 806 811
3 817 811 807
3 817 807 813
3 818 794 793
3 818 808 814
3 818 793 812
3 818 812 808
3 819 809 815
3 819 813 809
3 820 810 816
3 820 814 810
3 821 783 784
3 821 784 786
3 821 815 783
3 822 816 811
3 822 811 817
3 823 813 819
3 823 817 813
3 824 818 814
3 824 814 820
3 824 795 794
3 824 794 818
3 825 786 787
3 825 821 786
3 825 815 821
3 825 819 815
3 826 820 816
3 826 816 822
3 827 822 817
3 827 817 823
3 828 787 788
3 828 825 787
3 828 819 825
3 828 823 819
3 829 795 824
3 829 796 795
3 829 797 796
3 829 820 826
3 829 824 820
3 830 822 827
3 830 826 822
3 831 788 789
3 831 828 788
3 831 823 828
3 831 827 823
3 832 797 829
3 832 829 826
3 832 826 830
3 833 789 790
3 833 830 827
3 833 831 789
3 833 827 831
3 834 830 833
3 834 790 791
3 834 791 792
3 834 798 797
3 834 792 798
3 834 797 832
3 834 833 790
3 834 832 830
3 844 846 845
3 844 847 846
3 843 847 844
3 842 847 843
3 841 847 842
3 840 847 841
3 839 847 840
3 838 847 839
3 837 847 838
3 848 835 836
3 848 837 835
3 854 848 836
3 851 849 850
3 852 836 849
3 852 853 854
3 852 849 851
3 852 854 836
3 847 837 848
3 864 865 866
3 864 866 872
3 863 872 871
3 863 864 872
3 862 871 870
3 862 863 871
3 861 870 869
3 861 862 870
3 860 861 869
3 859 869 868
3 859 860 869
3 858 868 867
3 858 859 868
3 857 867 855
3 857 858 867
3 856 857 855
3 881 882 883
3 881 883 889
3 880 881 889
3 879 889 888
3 879 880 889
3 878 888 887
3 878 879 888
3 877 887 886
3 877 878 887
3 876 886 885
3 876 877 886
3 875 885 884
3 875 876 885
3 874 884 873
3 874 875 884
3 891 890 898
3 900 898 897
3 900 891 898
3 901 897 896
3 901 900 897
3 902 896 895
3 902 901 896
3 903 895 894
3 903 902 895
3 904 894 893
3 904 903 894
3 905 904 893
3 906 893 892
3 906 905 893
3 899 906 892
3 908 909 907
3 922 910 909
3 922 909 908
3 921 911 910
3 921 910 922
3 920 912 911
3 920 911 921
3 919 913 912
3 919 912 920
3 918 914 913
3 918 913 919
3 917 915 914
3 917 914 918
3 916 915 917
3 938 936 937
3 951 924 923
3 951 923 931
3 952 925 924
3 952 924 951
3 953 931 932
3 953 951 931
3 954 926 925
3 954 925 952
3 955 951 953
3 955 952 951
3 956 932 933
3 956 953 932
3 957 927 926
3 957 926 954
3 958 954 952
3 958 952 955
3 959 955 953
3 959 953 956
3 960 928 927
3 960 927 957
3 961 933 934
3 961 956 933
3 962 954 958
3 962 957 954
3 963 955 959
3 963 958 955
3 964 929 928
3 964 930 929
3 964 945 930
3 964 928 960
3 965 956 961
3 965 959 956
3 966 960 957
3 966 957 962
3 967 934 935
3 967 961 934
3 968 962 958
3 968 958 963
3 969 963 959
3 969 959 965
3 970 946 945
3 970 960 966
3 970 945 964
3 970 964 960
3 971 961 967
3 971 965 961
3 972 962 968
3 972 966 962
3 973 935 936
3 973 936 938
3 973 967 935
3 974 968 963
3 974 963 969
3 975 965 971
3 975 969 965
3 976 970 966
3 976 966 972
3 976 947 946
3 976 946 970
3 977 938 939
3 977 973 938
3 977 967 973
3 977 971 967
3 978 972 968
3 978 968 974
3 979 974 969
3 979 969 975
3 980 939 940
3 980 977 939
3 980 971 977
3 980 975 971
3 981 947 976
3 981 948 947
3 981 972 978
3 981 976 972
3 982 974 979
3 982 978 974
3 983 940 941
3 983 980 940
3 983 975 980
3 983 979 975
3 984 949 948
3 984 948 981
3 984 981 978
3 984 978 982
3 985 941 942
3 985 982 979
3 985 983 941
3 985 979 983
3 986 982 985
3 986 942 943
3 986 943 944
3 986 950 949
3 986 944 950
3 986 949 984
3 986 985 942
3 986 984 982
3 987 989 990
3 988 989 987
3 997 998 1005
3 991 992 1012
3 1013 1001 1000
3 1014 1000 999
3 1014 1013 1000
3 1015 999 1006
3 1015 1014 999
3 1016 1002 1001
3 1016 1013 1014
3 1016 1001 1013
3 1017 1006 1007
3 1017 1015 1006
3 1018 1014 1015
3 1018 1016 1014
3 1019 1003 1002
3 1019 1004 1003
3 1019 1002 1016
3 1020 1007 1008
3 1020 1017 1007
3 1021 1018 1015
3 1021 1015 1017
3 1022 1016 1018
3 1022 1019 1016
3 1023 1008 1009
3 1023 1021 1017
3 1023 1020 1008
3 1023 1017 1020
3 1024 1018 1021
3 1024 1022 1018
3 1025 996 997
3 1025 1005 1004
3 1025 1004 1019
3 1025 1019 1022
3 1025 997 1005
3 1026 1021 1023
3 1026 1024 1021
3 1027 995 996
3 1027 996 1025
3 1027 1022 1024
3 1027 1025 1022
3 1028 1009 1010
3 1028 1010 1011
3 1028 1023 1009
3 1028 1026 1023
3 1029 993 994
3 1029 994 995
3 1029 995 1027
3 1029 1024 1026
3 1029 1027 1024
3 1030 992 993
3 1030 1011 1012
3 1030 1012 992
3 1030 993 1029
3 1030 1028 1011
3 1030 1026 1028
3 1030 1029 1026
3 1037 1038 1045
3 1031 1032 1052
3 1053 1041 1040
3 1054 1040 1039
3 1054 1053 1040
3 1055 1039 1046
3 1055 1054 1039
3 1056 1042 1041
3 1056 1053 1054
3 1056 1041 1053
3 1057 1046 1047
3 1057 1055 1046
3 1058 1054 1055
3 1058 1056 1054
3 1059 1043 1042
3 1059 1044 1043
3 1059 1042 1056
3 1060 1047 1048
3 1060 1057 1047
3 1061 1058 1055
3 1061 1055 1057
3 1062 1056 1058
3 1062 1059 1056
3 1063 1048 1049
3 1063 1061 1057
3 1063 1060 1048
3 1063 1057 1060
3 1064 1058 1061
3 1064 1062 1058
3 1065 1036 1037
3 1065 1045 1044
3 1065 1044 1059
3 1065 1059 1062
3 1065 1037 1045
3 1066 1061 1063
3 1066 1064 1061
3 1067 1035 1036
3 1067 1036 1065
3 1067 1062 1064
3 1067 1065 1062
3 1068 1049 1050
3 1068 1050 1051
3 1068 1063 1049
3 1068 1066 1063
3 1069 1033 1034
3 1069 1034 1035
3 1069 1035 1067
3 1069 1064 1066
3 1069 1067 1064
3 1070 1032 1033
3 1070 1051 1052
3 1070 1052 1032
3 1070 1033 1069
3 1070 1068 1051
3 1070 1066 1068
3 1070 1069 1066
3 1079 1080 1088
3 1078 1088 1087
3 1078 1079 1088
3 1077 1087 1086
3 1077 1078 1087
3 1076 1086 1085
3 1076 1077 1086
3 1075 1084 1083
3 1075 1085 1084
3 1075 1076 1085
3 1074 1083 1082
3 1074 1075 1083
3 1073 1082 1081
3 1073 1074 1082
3 1072 1081 1071
3 1072 1073 1081
3 1090 1089 1097
3 1090 1097 1104
3 1091 1104 1103
3 1091 1090 1104
3 1092 1103 1102
3 1092 1091 1103
3 1093 1102 1101
3 1093 1092 1102
3 1094 1101 1100
3 1094 1093 1101
3 1095 1100 1099
3 1095 1094 1100
3 1096 1099 1098
3 1096 1095 1099
