ply
format ascii 1.0
comment generated by blendit.inference.finetune_visualize
element vertex 1332
property float x
property float y
property float z
property uchar red
property uchar green
property uchar blue
element face 1751
property list uchar int vertex_indices
end_header
0 69.5299473 -5.55111512e-17 218 222 230
-5.55111512e-17 70.6267035 0 218 222 230
0 70.6267035 57.8376246 218 222 230
-5.55111512e-17 0.321242967 57.8376246 218 222 230
-5.55111512e-17 0.321242967 44.3406261 218 222 230
-2.77555756e-17 68.7058273 44.3406261 218 222 230
-2.6780877e-17 68.7702936 44.3329765 218 222 230
-2.46027341e-17 68.8317311 44.3119906 218 222 230
-2.19572735e-17 68.8886212 44.2806071 218 222 230
-1.83159992e-17 68.956617 44.2268798 218 222 230
-1.43724358e-17 69.0224382 44.1549691 218 222 230
-9.2564032e-18 69.0932481 44.0460587 218 222 230
-3.22908008e-18 69.1496774 43.9112079 218 222 230
1.12747515e-18 69.1744828 43.8059518 218 222 230
1.38777878e-17 69.1831783 43.6981401 218 222 230
-5.07927034e-15 69.1831783 0.321242967 218 222 230
0 69.4401969 0.0109460886 218 222 230
0 69.3565628 0.0430383967 218 222 230
0 69.2912473 0.0882215518 218 222 230
0 69.2436527 0.13998267 218 222 230
0 69.2088841 0.199864271 218 222 230
0 69.1896655 0.259396639 218 222 230
0 69.5299473 -5.55111512e-17 218 222 230
-5.55111512e-17 70.6267035 0 218 222 230
99.1957481 29.207865 -5.55111512e-17 218 222 230
99.1957481 70.9479465 0 218 222 230
0.321242967 70.9479465 0 218 222 230
0.00805423187 70.6981868 0 218 222 230
0.0318130547 70.7660856 0 218 222 230
0.0700851018 70.8269952 0 218 222 230
0.120951253 70.8778614 0 218 222 230
0.181860867 70.9161334 0 218 222 230
0.249759682 70.9398923 0 218 222 230
0 69.5299473 -5.55111512e-17 255 79 163
99.1957481 29.207865 -5.55111512e-17 255 79 163
99.3279442 29.0114282 0.0284610742 255 79 163
99.4188337 28.876371 0.0900939142 255 79 163
99.4703687 28.7997924 0.154567939 255 79 163
99.4972652 28.7598257 0.210407477 255 79 163
99.5111352 28.7392155 0.260185489 255 79 163
99.5155238 28.7326943 0.290574144 255 79 163
99.5169911 28.7305139 0.321242967 255 79 163
-5.07927034e-15 69.1831783 0.321242967 255 79 163
0 69.4401969 0.0109460886 255 79 163
0 69.3565628 0.0430383967 255 79 163
0 69.2912473 0.0882215518 255 79 163
0 69.2436527 0.13998267 255 79 163
0 69.2088841 0.199864271 255 79 163
0 69.1896655 0.259396639 255 79 163
-5.55111512e-17 70.6267035 0 255 79 163
0 70.6267035 57.8376246 255 79 163
0.00805423187 70.6981868 57.8376246 255 79 163
0.0318130547 70.7660856 57.8376246 255 79 163
0.0700851018 70.8269952 57.8376246 255 79 163
0.120951253 70.8778614 57.8376246 255 79 163
0.181860867 70.9161334 57.8376246 255 79 163
0.249759682 70.9398923 57.8376246 255 79 163
0.321242967 70.9479465 57.8376246 255 79 163
0.321242967 70.9479465 0 255 79 163
0.00805423187 70.6981868 0 255 79 163
0.0318130547 70.7660856 0 255 79 163
0.0700851018 70.8269952 0 255 79 163
0.120951253 70.8778614 0 255 79 163
0.181860867 70.9161334 0 255 79 163
0.249759682 70.9398923 0 255 79 163
-5.07927034e-15 69.1831783 0.321242967 218 222 230
1.38777878e-17 69.1831783 43.6981401 218 222 230
99.5169911 28.7305139 43.6981401 218 222 230
99.5169911 28.7305139 0.321242967 218 222 230
37.3535647 53.9993268 15.7667251 218 222 230
42.2457331 52.0107092 10.1860081 218 222 230
36.3663193 54.4006322 15.7050502 218 222 230
36.380456 54.3948858 15.7436108 218 222 230
36.4021389 54.3860719 15.7777085 218 222 230
36.4293214 54.3750225 15.8070337 218 222 230
36.4710337 54.3580669 15.83925 218 222 230
36.5400222 54.3300238 15.8756708 218 222 230
36.6505612 54.2850907 15.9110383 218 222 230
36.822237 54.2153062 15.9332927 218 222 230
37.016479 54.1363488 15.9224019 218 222 230
37.2045724 54.0598907 15.8698694 218 222 230
37.2842117 54.0275181 15.8267369 218 222 230
37.3206739 54.0126966 15.7991123 218 222 230
34.5568266 55.136173 8.17334967 218 222 230
41.9828721 52.1175595 9.33953946 218 222 230
42.0207402 52.1021665 9.35056021 218 222 230
42.055763 52.0879301 9.36973942 218 222 230
42.0875175 52.0750222 9.39469736 218 222 230
42.1251725 52.0597158 9.43405856 218 222 230
42.1731175 52.0402267 9.50124949 218 222 230
42.2298649 52.0171594 9.61273481 218 222 230
42.2755816 51.998576 9.74709737 218 222 230
42.3021513 51.9877757 9.88732246 218 222 230
42.3037894 51.9871099 10.0302463 218 222 230
42.2902845 51.9925994 10.1002788 218 222 230
42.2724665 51.9998423 10.1458805 218 222 230
42.2602954 52.0047897 10.1668846 218 222 230
-5.55111512e-17 0.321242967 57.8376246 255 79 163
0.0109460886 0.238099169 57.9207684 255 79 163
0.0430383967 0.160621483 57.9982461 255 79 163
0.0940898865 0.0940898865 58.0647777 255 79 163
0.153393978 0.0473383108 58.1115293 255 79 163
0.208400021 0.0204714365 58.1383961 255 79 163
0.26146941 0.00561000654 58.1532576 255 79 163
0.291224846 0.00140557664 58.157462 255 79 163
0.321242967 -5.55111512e-17 58.1588676 255 79 163
0.321242967 70.6267035 58.1588676 255 79 163
0 70.6267035 57.8376246 255 79 163
0.00805423187 70.6267035 57.9091079 255 79 163
0.0318130547 70.6267035 57.9770067 255 79 163
0.0700851018 70.6267035 58.0379163 255 79 163
0.120951253 70.6267035 58.0887825 255 79 163
0.181860867 70.6267035 58.1270545 255 79 163
0.249759682 70.6267035 58.1508133 255 79 163
1.38777878e-17 69.1831783 43.6981401 255 79 163
1.38777878e-17 69.1831783 43.6981401 255 79 163
-2.77555756e-17 68.7058273 44.3406261 255 79 163
-2.6780877e-17 68.7702936 44.3329765 255 79 163
-2.46027341e-17 68.8317311 44.3119906 255 79 163
-2.19572735e-17 68.8886212 44.2806071 255 79 163
-1.83159992e-17 68.956617 44.2268798 255 79 163
-1.43724358e-17 69.0224382 44.1549691 255 79 163
-9.2564032e-18 69.0932481 44.0460587 255 79 163
-3.22908008e-18 69.1496774 43.9112079 255 79 163
1.12747515e-18 69.1744828 43.8059518 255 79 163
0.00887559774 68.7058273 44.2656338 255 79 163
0.0350135366 68.7058273 44.1947846 255 79 163
0.0769680836 68.7058273 44.1319953 255 79 163
0.132420803 68.7058273 44.0807353 255 79 163
0.19830864 68.7058273 44.0438362 255 79 163
0.258571976 68.7058273 44.0255553 255 79 163
0.321242967 68.7058273 44.0193831 255 79 163
0.278850126 68.81281 44.008437 255 79 163
0.234323609 68.9145436 43.9763447 255 79 163
0.185675147 69.006137 43.9252932 255 79 163
0.131197373 69.0833897 43.8587616 255 79 163
0.0695801803 69.1430788 43.7812839 255 79 163
0.0105049653 68.8078811 44.2426084 255 79 163
0.0861902414 68.7994001 44.1083144 255 79 163
0.215138532 68.7908572 44.0279728 255 79 163
0.00961643024 68.9800274 44.1375124 255 79 163
0.0687585575 68.9649023 44.0400723 255 79 163
0.166191297 68.9485815 43.9800248 255 79 163
0.00699325545 69.101853 43.9797517 255 79 163
0.0463881964 69.0897741 43.9218565 255 79 163
0.109433757 69.0756483 43.8859795 255 79 163
0.00299662554 69.1709061 43.7948922 255 79 163
0.017276954 69.1657308 43.7758081 255 79 163
0.0398060811 69.159616 43.7640102 255 79 163
0.00823385566 69.1570073 43.8337226 255 79 163
0.321242967 0 44.3406261 255 79 163
0.249759682 0.00805423187 44.3406261 255 79 163
0.181860867 0.0318130547 44.3406261 255 79 163
0.120951253 0.0700851018 44.3406261 255 79 163
0.0700851018 0.120951253 44.3406261 255 79 163
0.0318130547 0.181860867 44.3406261 255 79 163
0.00805423187 0.249759682 44.3406261 255 79 163
-5.55111512e-17 0.321242967 44.3406261 255 79 163
0.321242967 -5.55111512e-17 58.1588676 255 79 163
-5.55111512e-17 0.321242967 57.8376246 255 79 163
0.0109460886 0.238099169 57.9207684 255 79 163
0.0430383967 0.160621483 57.9982461 255 79 163
0.0940898865 0.0940898865 58.0647777 255 79 163
0.153393978 0.0473383108 58.1115293 255 79 163
0.208400021 0.0204714365 58.1383961 255 79 163
0.26146941 0.00561000654 58.1532576 255 79 163
0.291224846 0.00140557664 58.157462 255 79 163
-2.77555756e-17 68.7058273 44.3406261 255 79 163
0.00887559774 68.7058273 44.2656338 255 79 163
0.0350135366 68.7058273 44.1947846 255 79 163
0.0769680836 68.7058273 44.1319953 255 79 163
0.132420803 68.7058273 44.0807353 255 79 163
0.19830864 68.7058273 44.0438362 255 79 163
0.258571976 68.7058273 44.0255553 255 79 163
0.321242967 68.7058273 44.0193831 255 79 163
0.321242967 0.321242967 44.0193831 255 79 163
0.249759682 0.321242967 44.0274373 255 79 163
0.181860867 0.321242967 44.0511961 255 79 163
0.120951253 0.321242967 44.0894682 255 79 163
0.0700851018 0.321242967 44.1403343 255 79 163
0.0318130547 0.321242967 44.201244 255 79 163
0.00805423187 0.321242967 44.2691428 255 79 163
-5.55111512e-17 0.321242967 44.3406261 255 79 163
99.1957481 29.207865 -5.55111512e-17 255 79 163
99.1957481 70.9479465 0 255 79 163
99.250656 70.9432192 0.00472729736 255 79 163
99.3039479 70.9291764 0.018770059 255 79 163
99.3540553 70.9062315 0.0417149883 255 79 163
99.3995035 70.8750597 0.0728867865 255 79 163
99.4389549 70.8365785 0.111368027 255 79 163
99.4712485 70.7919203 0.156026158 255 79 163
99.5015633 70.7250608 0.2228857 255 79 163
99.5131107 70.6764835 0.271463026 255 79 163
99.5169911 70.6267035 0.321242967 255 79 163
99.5169911 28.7305139 0.321242967 255 79 163
99.3279442 29.0114282 0.0284610742 255 79 163
99.4188337 28.876371 0.0900939142 255 79 163
99.4703687 28.7997924 0.154567939 255 79 163
99.4972652 28.7598257 0.210407477 255 79 163
99.5111352 28.7392155 0.260185489 255 79 163
99.5155238 28.7326943 0.290574144 255 79 163
0.321242967 70.9479465 0 218 222 230
99.1957481 70.9479465 0 218 222 230
0.321242967 70.9479465 57.8376246 218 222 230
99.1957481 70.9479465 57.8376246 218 222 230
37.3535647 70.9479465 15.7667251 218 222 230
42.2457331 70.9479465 10.1860081 218 222 230
37.2955419 70.9479465 15.8186091 218 222 230
37.2267435 70.9479465 15.8550147 218 222 230
37.1512085 70.9479465 15.8738047 218 222 230
37.0733716 70.9479465 15.8738758 218 222 230
36.9978024 70.9479465 15.8552239 218 222 230
36.9289376 70.9479465 15.818944 218 222 230
36.8708201 70.9479465 15.7671661 218 222 230
36.826862 70.9479465 15.70293 218 222 230
36.799644 70.9479465 15.6300069 218 222 230
35.1023219 70.9479465 8.56519741 218 222 230
35.0211342 70.9479465 8.22726761 218 222 230
42.1038419 70.9479465 9.33953946 218 222 230
42.1361615 70.9479465 9.34877908 218 222 230
42.1655416 70.9479465 9.36488008 218 222 230
42.1915809 70.9479465 9.38608207 218 222 230
42.2213216 70.9479465 9.41966106 218 222 230
42.2569999 70.9479465 9.47662237 218 222 230
42.2956927 70.9479465 9.5697092 218 222 230
42.3295591 70.9479465 9.71705995 218 222 230
42.33908 70.9479465 9.87571196 218 222 230
42.3214588 70.9479465 10.0230328 218 222 230
42.2858586 70.9479465 10.1251409 218 222 230
42.2677283 70.9479465 10.1568626 218 222 230
56.5696461 70.9479465 47.5674352 218 222 230
58.4782686 70.9479465 47.4092822 218 222 230
60.3348289 70.9479465 46.9391373 218 222 230
62.0886847 70.9479465 46.1698248 218 222 230
63.6919956 70.9479465 45.1223295 218 222 230
65.1010274 70.9479465 43.8252244 218 222 230
66.2773453 70.9479465 42.3138911 218 222 230
67.1888625 70.9479465 40.6295548 218 222 230
67.8107152 70.9479465 38.8181599 218 222 230
68.1259408 70.9479465 36.9291165 218 222 230
68.1259408 70.9479465 35.0139527 218 222 230
67.8107152 70.9479465 33.1249093 218 222 230
67.1888625 70.9479465 31.3135144 218 222 230
66.2773453 70.9479465 29.6291782 218 222 230
65.1010274 70.9479465 28.1178449 218 222 230
63.6919956 70.9479465 26.8207397 218 222 230
62.0886847 70.9479465 25.7732445 218 222 230
60.3348289 70.9479465 25.0039319 218 222 230
58.4782686 70.9479465 24.533787 218 222 230
56.5696461 70.9479465 24.3756341 218 222 230
54.6610236 70.9479465 24.533787 218 222 230
52.8044633 70.9479465 25.0039319 218 222 230
51.0506075 70.9479465 25.7732445 218 222 230
49.4472966 70.9479465 26.8207397 218 222 230
48.0382648 70.9479465 28.1178449 218 222 230
46.8619469 70.9479465 29.6291782 218 222 230
45.9504297 70.9479465 31.3135144 218 222 230
45.328577 70.9479465 33.1249093 218 222 230
45.0133514 70.9479465 35.0139527 218 222 230
45.0133514 70.9479465 36.9291165 218 222 230
45.328577 70.9479465 38.8181599 218 222 230
45.9504297 70.9479465 40.6295548 218 222 230
46.8619469 70.9479465 42.3138911 218 222 230
48.0382648 70.9479465 43.8252244 218 222 230
49.4472966 70.9479465 45.1223295 218 222 230
51.0506075 70.9479465 46.1698248 218 222 230
52.8044633 70.9479465 46.9391373 218 222 230
54.6610236 70.9479465 47.4092822 218 222 230
0.321242967 70.6267035 58.1588676 255 79 163
0.321242967 70.6981868 58.1508133 255 79 163
0.321242967 70.7660856 58.1270545 255 79 163
0.321242967 70.8269952 58.0887825 255 79 163
0.321242967 70.8778614 58.0379163 255 79 163
0.321242967 70.9161334 57.9770067 255 79 163
0.321242967 70.9398923 57.9091079 255 79 163
0.321242967 70.9479465 57.8376246 255 79 163
0 70.6267035 57.8376246 255 79 163
0.00805423187 70.6981868 57.8376246 255 79 163
0.0318130547 70.7660856 57.8376246 255 79 163
0.0700851018 70.8269952 57.8376246 255 79 163
0.120951253 70.8778614 57.8376246 255 79 163
0.181860867 70.9161334 57.8376246 255 79 163
0.249759682 70.9398923 57.8376246 255 79 163
0 70.6267035 57.8376246 255 79 163
0.00805423187 70.6267035 57.9091079 255 79 163
0.0318130547 70.6267035 57.9770067 255 79 163
0.0700851018 70.6267035 58.0379163 255 79 163
0.120951253 70.6267035 58.0887825 255 79 163
0.181860867 70.6267035 58.1270545 255 79 163
0.249759682 70.6267035 58.1508133 255 79 163
0.0157227499 70.7247509 57.8531538 255 79 163
0.0157227499 70.7151533 57.882692 255 79 163
0.0157227499 70.6968977 57.9078188 255 79 163
0.0613519473 70.8062838 57.8959738 255 79 163
0.0157227499 70.6717709 57.9260744 255 79 163
0.0613519473 70.7794636 57.9486113 255 79 163
0.132421088 70.8833948 57.8782805 255 79 163
0.0157227499 70.6422327 57.935672 255 79 163
0.0613519473 70.7376902 57.9903847 255 79 163
0.132421088 70.8582681 57.9556126 255 79 163
0.0613519473 70.6850527 58.0172049 255 79 163
0.132421088 70.8104742 58.0213953 255 79 163
0.221973431 70.9172705 57.9320355 255 79 163
0.132421088 70.7446916 58.0691892 255 79 163
0.221973431 70.8738746 58.0172049 255 79 163
0.132421088 70.6673594 58.0943159 255 79 163
0.221973431 70.8062838 58.0847956 255 79 163
0.221973431 70.7211145 58.1281916 255 79 163
0.321242967 68.7058273 44.0193831 255 79 163
0.278850126 68.81281 44.008437 255 79 163
0.234323609 68.9145436 43.9763447 255 79 163
0.185675147 69.006137 43.9252932 255 79 163
0.131197373 69.0833897 43.8587616 255 79 163
0.0695801803 69.1430788 43.7812839 255 79 163
1.38777878e-17 69.1831783 43.6981401 255 79 163
99.1957481 28.514327 44.0193831 255 79 163
99.2604363 28.5777824 44.008437 255 79 163
99.3229908 28.6359888 43.9763446 255 79 163
99.3814233 28.6840546 43.9252932 255 79 163
99.4340274 28.7177823 43.8587556 255 79 163
99.4794894 28.7339395 43.78129 255 79 163
99.5169911 28.7305139 43.6981401 255 79 163
99.5169911 -5.55111512e-17 44.3406261 218 222 230
99.5169911 0 58.1588676 218 222 230
99.5169911 28.514327 44.3406261 218 222 230
99.5169911 28.5287057 44.3387495 218 222 230
99.5169911 28.5446653 44.332396 218 222 230
99.5169911 28.5617967 44.3207045 218 222 230
99.5169911 28.5814364 44.3010939 218 222 230
99.5169911 28.6150399 44.2516063 218 222 230
99.5169911 28.6464448 44.1848445 218 222 230
99.5169911 28.6977392 44.0110401 218 222 230
99.5169911 28.7305139 43.6981401 218 222 230
99.5169911 28.7305139 0.321242967 218 222 230
99.5169911 70.6267035 0.321242967 218 222 230
99.5169911 70.6267035 58.1588676 218 222 230
37.3535647 70.9479465 15.7667251 218 222 230
42.2457331 70.9479465 10.1860081 218 222 230
37.3535647 53.9993268 15.7667251 218 222 230
42.2457331 52.0107092 10.1860081 218 222 230
37.3535647 53.9993268 15.7667251 255 79 163
37.3535647 53.9993268 15.7667251 255 79 163
36.3663193 54.4006322 15.7050502 255 79 163
36.380456 54.3948858 15.7436108 255 79 163
36.4021389 54.3860719 15.7777085 255 79 163
36.4293214 54.3750225 15.8070337 255 79 163
36.4710337 54.3580669 15.83925 255 79 163
36.5400222 54.3300238 15.8756708 255 79 163
36.6505612 54.2850907 15.9110383 255 79 163
36.822237 54.2153062 15.9332927 255 79 163
37.016479 54.1363488 15.9224019 255 79 163
37.2045724 54.0598907 15.8698694 255 79 163
37.2842117 54.0275181 15.8267369 255 79 163
37.3206739 54.0126966 15.7991123 255 79 163
36.4371495 54.3814849 15.6861633 255 79 163
36.5107689 54.379956 15.668327 255 79 163
36.5830821 54.3961309 15.6525333 255 79 163
36.6500668 54.4291099 15.6396609 255 79 163
36.7079972 54.4770581 15.6304257 255 79 163
36.7536509 54.5373089 15.6253415 255 79 163
36.7844883 54.6065108 15.624691 255 79 163
36.7953181 54.6518802 15.6265199 255 79 163
36.799644 54.6982282 15.6300069 255 79 163
36.8404558 54.593393 15.7266069 255 79 163
36.9102053 54.4885578 15.8049163 255 79 163
37.0014565 54.3837226 15.8565881 255 79 163
37.10449 54.2788874 15.8761188 255 79 163
37.2083229 54.1740521 15.8614252 255 79 163
37.2874538 54.0866895 15.8240595 255 79 163
36.63188 54.3062571 15.8642852 255 79 163
36.6946426 54.3135737 15.842861 255 79 163
36.7518497 54.3345356 15.823538 255 79 163
36.8002311 54.3665712 15.8071912 255 79 163
36.838729 54.4089827 15.7945579 255 79 163
36.867124 54.4618472 15.7860388 255 79 163
37.0067471 54.2723967 15.8751624 255 79 163
36.9834525 54.2450398 15.8834847 255 79 163
37.0240005 54.3072221 15.8698832 255 79 163
36.7915046 54.2393112 15.9102703 255 79 163
36.8792558 54.2021283 15.9197181 255 79 163
36.8151315 54.2417202 15.9023255 255 79 163
36.9538435 54.2240632 15.8943246 255 79 163
36.9184086 54.2091661 15.9066749 255 79 163
36.9610583 54.167301 15.920012 255 79 163
36.9775872 54.1693362 15.9143925 255 79 163
36.993715 54.1733992 15.9088897 255 79 163
37.0783404 54.1698633 15.892085 255 79 163
37.140443 54.1330481 15.8832333 255 79 163
37.2112782 54.0903396 15.862513 255 79 163
37.2586644 54.0611148 15.84091 255 79 163
37.2877847 54.0427687 15.8236086 255 79 163
36.9944487 54.1497959 15.9197699 255 79 163
37.0019142 54.1498646 15.9170998 255 79 163
37.0480106 54.1423158 15.9067571 255 79 163
37.0835955 54.1258128 15.9013702 255 79 163
37.1661999 54.0875266 15.8808412 255 79 163
37.2063585 54.0689594 15.8661725 255 79 163
37.2340311 54.0561732 15.8538834 255 79 163
37.2515942 54.0480488 15.8450028 255 79 163
37.3017937 54.0246313 15.8137089 255 79 163
37.0082275 54.1416867 15.9200752 255 79 163
37.0315257 54.1356585 15.914472 255 79 163
37.0506345 54.127583 15.9115681 255 79 163
37.0954567 54.1086469 15.902835 255 79 163
37.1832569 54.0716255 15.876793 255 79 163
37.2195447 54.0563573 15.8617712 255 79 163
37.2291179 54.0523305 15.8572941 255 79 163
37.2664989 54.0365941 15.8373483 255 79 163
37.2933183 54.0252628 15.8200851 255 79 163
37.3104437 54.0179861 15.807385 255 79 163
37.0237136 54.1348725 15.9183852 255 79 163
37.0335997 54.1308114 15.9168752 255 79 163
37.0568704 54.1212526 15.9128531 255 79 163
37.1486383 54.0835756 15.8898915 255 79 163
37.1933393 54.0652386 15.8737963 255 79 163
37.2120532 54.0575644 15.8658659 255 79 163
37.2170335 54.0555222 15.8636215 255 79 163
37.2367482 54.047438 15.854132 255 79 163
37.2749714 54.0317566 15.8325273 255 79 163
37.2978079 54.0223741 15.817086 255 79 163
37.2209423 54.0534145 15.8621437 255 79 163
37.2604293 54.0373273 15.8414915 255 79 163
37.2911175 54.0248206 15.8219357 255 79 163
37.3091853 54.0174532 15.8085395 255 79 163
37.2969442 54.022369 15.8178174 255 79 163
37.2967505 54.0224229 15.8179738 255 79 163
37.3148173 54.0150773 15.8040266 255 79 163
37.3089319 54.0174753 15.8087587 255 79 163
37.3088743 54.0174934 15.8088064 255 79 163
37.2997676 54.0211948 15.8157636 255 79 163
42.2457331 52.0107092 10.1860081 255 79 163
42.2457331 52.0107092 10.1860081 255 79 163
41.9828721 52.1175595 9.33953946 255 79 163
42.0207402 52.1021665 9.35056021 255 79 163
42.055763 52.0879301 9.36973942 255 79 163
42.0875175 52.0750222 9.39469736 255 79 163
42.1251725 52.0597158 9.43405856 255 79 163
42.1731175 52.0402267 9.50124949 255 79 163
42.2298649 52.0171594 9.61273481 255 79 163
42.2755816 51.998576 9.74709737 255 79 163
42.3021513 51.9877757 9.88732246 255 79 163
42.3037894 51.9871099 10.0302463 255 79 163
42.2902845 51.9925994 10.1002788 255 79 163
42.2724665 51.9998423 10.1458805 255 79 163
42.2602954 52.0047897 10.1668846 255 79 163
41.9763354 52.1291008 9.41103748 255 79 163
41.9763324 52.1553005 9.47887259 255 79 163
41.9828632 52.1948151 9.53956766 255 79 163
41.9955929 52.2456198 9.59001268 255 79 163
42.0138695 52.3051124 9.62762376 255 79 163
42.0326691 52.3591362 9.64774956 255 79 163
42.0540045 52.4151555 9.65689302 255 79 163
42.1421479 52.3605552 9.684146 255 79 163
42.2189103 52.305955 9.73532729 255 79 163
42.27796 52.2513547 9.80621535 255 79 163
42.303374 52.2176509 9.85731791 255 79 163
42.3193437 52.183947 9.91211125 255 79 163
42.3252401 52.1532344 9.96379552 255 79 163
42.3227173 52.1225217 10.0157538 255 79 163
42.3118415 52.0918091 10.0666238 255 79 163
42.2928979 52.0610964 10.1150713 255 79 163
42.2716772 52.0359028 10.15211 255 79 163
42.0769613 52.0907569 9.46439019 255 79 163
42.0761264 52.1224749 9.53110622 255 79 163
42.0824925 52.1683592 9.58854275 255 79 163
42.1559353 52.0590386 9.54493542 255 79 163
42.0955073 52.2263682 9.63374172 255 79 163
42.1568221 52.0892505 9.60046998 255 79 163
42.1140416 52.293528 9.66500549 255 79 163
42.1637794 52.1319668 9.64806278 255 79 163
42.1759821 52.1857817 9.68536726 255 79 163
42.1920085 52.248357 9.7114223 255 79 163
42.2871059 52.1141082 9.84007376 255 79 163
42.2757771 52.072633 9.81570193 255 79 163
42.2987529 52.1626446 9.85636518 255 79 163
42.3129118 52.0536457 10.0230165 255 79 163
42.3078555 52.0293553 10.0098701 255 79 163
42.3176393 52.0823006 10.0311596 255 79 163
42.290573 52.0155101 10.1036398 255 79 163
42.2905009 52.0044412 10.0953124 255 79 163
42.3041274 52.0096031 9.99264217 255 79 163
42.291632 52.0289214 10.1099963 255 79 163
42.292628 52.0448416 10.1138308 255 79 163
42.2453058 52.0223289 9.70304441 255 79 163
42.2619354 52.01516 9.74728353 255 79 163
42.2469327 52.0338897 9.72371197 255 79 163
42.266845 52.0394656 9.78411974 255 79 163
42.2678815 52.0125366 9.76533341 255 79 163
42.285239 52.0045679 9.82929237 255 79 163
42.3019767 51.9954743 9.94294151 255 79 163
42.3031858 51.9942517 9.97271653 255 79 163
42.302753 51.9896681 9.93124127 255 79 163
42.3040409 51.9886794 9.99986801 255 79 163
42.2983238 51.9905462 10.0591313 255 79 163
42.2923829 51.9954149 10.0857452 255 79 163
42.2846856 51.9956091 10.1150339 255 79 163
42.2830015 51.9981572 10.1183438 255 79 163
42.2791063 51.9993839 10.128811 255 79 163
42.3014862 51.990278 9.91573005 255 79 163
42.2761434 51.9988815 10.1369769 255 79 163
42.2711585 52.0008108 10.1475166 255 79 163
34.5568266 55.136173 8.17334967 255 79 163
34.7258201 55.0959887 8.32722842 255 79 163
34.8581995 55.1041443 8.43439111 255 79 163
34.9453692 55.1339074 8.4967231 255 79 163
35.0002534 55.1684202 8.5306453 255 79 163
35.037558 55.2042371 8.54953097 255 79 163
35.0556737 55.22817 8.55649487 255 79 163
35.0705893 55.2538441 8.56021411 255 79 163
35.0880951 55.2967673 8.56296323 255 79 163
35.0987466 55.3418565 8.56463594 255 79 163
35.1023219 55.3881727 8.56519741 255 79 163
36.799644 54.6982282 15.6300069 255 79 163
36.3663193 54.4006322 15.7050502 255 79 163
36.4371495 54.3814849 15.6861633 255 79 163
36.5107689 54.379956 15.668327 255 79 163
36.5830821 54.3961309 15.6525333 255 79 163
36.6500668 54.4291099 15.6396609 255 79 163
36.7079972 54.4770581 15.6304257 255 79 163
36.7536509 54.5373089 15.6253415 255 79 163
36.7844883 54.6065108 15.624691 255 79 163
36.7953181 54.6518802 15.6265199 255 79 163
41.9828721 52.1175595 9.33953946 255 79 163
34.5568266 55.136173 8.17334967 255 79 163
41.9763354 52.1291008 9.41103748 255 79 163
41.9763324 52.1553005 9.47887259 255 79 163
41.9828632 52.1948151 9.53956766 255 79 163
41.9955929 52.2456198 9.59001268 255 79 163
42.0138695 52.3051124 9.62762376 255 79 163
42.0326691 52.3591362 9.64774956 255 79 163
42.0540045 52.4151555 9.65689302 255 79 163
35.0705893 55.2538441 8.56021411 255 79 163
34.7258201 55.0959887 8.32722842 255 79 163
34.8581995 55.1041443 8.43439111 255 79 163
34.9453692 55.1339074 8.4967231 255 79 163
35.0002534 55.1684202 8.5306453 255 79 163
35.037558 55.2042371 8.54953097 255 79 163
35.0556737 55.22817 8.55649487 255 79 163
99.5169911 0 58.1588676 218 222 230
99.5169911 70.6267035 58.1588676 218 222 230
0.321242967 70.6267035 58.1588676 218 222 230
0.321242967 -5.55111512e-17 58.1588676 218 222 230
0.321242967 0 44.3406261 255 79 163
0.321242967 0.00805423187 44.2691428 255 79 163
0.321242967 0.0318130547 44.201244 255 79 163
0.321242967 0.0700851018 44.1403343 255 79 163
0.321242967 0.120951253 44.0894682 255 79 163
0.321242967 0.181860867 44.0511961 255 79 163
0.321242967 0.249759682 44.0274373 255 79 163
0.321242967 0.321242967 44.0193831 255 79 163
0.321242967 0 44.3406261 255 79 163
0.249759682 0.00805423187 44.3406261 255 79 163
0.181860867 0.0318130547 44.3406261 255 79 163
0.120951253 0.0700851018 44.3406261 255 79 163
0.0700851018 0.120951253 44.3406261 255 79 163
0.0318130547 0.181860867 44.3406261 255 79 163
0.00805423187 0.249759682 44.3406261 255 79 163
-5.55111512e-17 0.321242967 44.3406261 255 79 163
0.249759682 0.321242967 44.0274373 255 79 163
0.181860867 0.321242967 44.0511961 255 79 163
0.120951253 0.321242967 44.0894682 255 79 163
0.0700851018 0.321242967 44.1403343 255 79 163
0.0318130547 0.321242967 44.201244 255 79 163
0.00805423187 0.321242967 44.2691428 255 79 163
0.30571379 0.0157227499 44.2425787 255 79 163
0.27617554 0.0157227499 44.2521762 255 79 163
0.251048805 0.0157227499 44.2704319 255 79 163
0.262893797 0.0613519473 44.1610458 255 79 163
0.232793162 0.0157227499 44.2955586 255 79 163
0.210256251 0.0613519473 44.1878659 255 79 163
0.280587054 0.132421088 44.0839347 255 79 163
0.223195603 0.0157227499 44.3250969 255 79 163
0.168482858 0.0613519473 44.2296393 255 79 163
0.203254913 0.132421088 44.1090615 255 79 163
0.141662689 0.0613519473 44.2822769 255 79 163
0.137472264 0.132421088 44.1568554 255 79 163
0.226832027 0.221973431 44.0500591 255 79 163
0.0896783728 0.132421088 44.222638 255 79 163
0.141662689 0.221973431 44.093455 255 79 163
0.064551637 0.132421088 44.2999701 255 79 163
0.0740719192 0.221973431 44.1610458 255 79 163
0.0306759736 0.221973431 44.2462151 255 79 163
99.5169911 -5.55111512e-17 44.3406261 218 222 230
99.5169911 0 58.1588676 218 222 230
0.321242967 0 44.3406261 218 222 230
0.321242967 -5.55111512e-17 58.1588676 218 222 230
0.321242967 0.321242967 44.0193831 218 222 230
0.321242967 68.7058273 44.0193831 218 222 230
99.1957481 28.514327 44.0193831 218 222 230
99.1957481 0.321242967 44.0193831 218 222 230
99.1957481 70.9479465 0 255 79 163
99.1957481 70.9479465 57.8376246 255 79 163
99.2788919 70.9370004 57.9207684 255 79 163
99.3563696 70.9049081 57.9982461 255 79 163
99.4229012 70.8538566 58.0647777 255 79 163
99.4696528 70.7945525 58.1115293 255 79 163
99.4965197 70.7395465 58.1383961 255 79 163
99.5113811 70.6864771 58.1532576 255 79 163
99.5155855 70.6567216 58.157462 255 79 163
99.5169911 70.6267035 58.1588676 255 79 163
99.5169911 70.6267035 0.321242967 255 79 163
99.250656 70.9432192 0.00472729736 255 79 163
99.3039479 70.9291764 0.018770059 255 79 163
99.3540553 70.9062315 0.0417149883 255 79 163
99.3995035 70.8750597 0.0728867865 255 79 163
99.4389549 70.8365785 0.111368027 255 79 163
99.4712485 70.7919203 0.156026158 255 79 163
99.5015633 70.7250608 0.2228857 255 79 163
99.5131107 70.6764835 0.271463026 255 79 163
99.1957481 70.9479465 57.8376246 255 79 163
99.2788919 70.9370004 57.9207684 255 79 163
99.3563696 70.9049081 57.9982461 255 79 163
99.4229012 70.8538566 58.0647777 255 79 163
99.4696528 70.7945525 58.1115293 255 79 163
99.4965197 70.7395465 58.1383961 255 79 163
99.5113811 70.6864771 58.1532576 255 79 163
99.5155855 70.6567216 58.157462 255 79 163
99.5169911 70.6267035 58.1588676 255 79 163
0.321242967 70.9479465 57.8376246 255 79 163
0.321242967 70.6267035 58.1588676 255 79 163
0.321242967 70.6981868 58.1508133 255 79 163
0.321242967 70.7660856 58.1270545 255 79 163
0.321242967 70.8269952 58.0887825 255 79 163
0.321242967 70.8778614 58.0379163 255 79 163
0.321242967 70.9161334 57.9770067 255 79 163
0.321242967 70.9398923 57.9091079 255 79 163
37.3535647 70.9479465 15.7667251 255 79 163
37.2955419 70.9479465 15.8186091 255 79 163
37.2267435 70.9479465 15.8550147 255 79 163
37.1512085 70.9479465 15.8738047 255 79 163
37.0733716 70.9479465 15.8738758 255 79 163
36.9978024 70.9479465 15.8552239 255 79 163
36.9289376 70.9479465 15.818944 255 79 163
36.8708201 70.9479465 15.7671661 255 79 163
36.826862 70.9479465 15.70293 255 79 163
36.799644 70.9479465 15.6300069 255 79 163
36.799644 54.6982282 15.6300069 255 79 163
36.8404558 54.593393 15.7266069 255 79 163
36.9102053 54.4885578 15.8049163 255 79 163
37.0014565 54.3837226 15.8565881 255 79 163
37.10449 54.2788874 15.8761188 255 79 163
37.2083229 54.1740521 15.8614252 255 79 163
37.2874538 54.0866895 15.8240595 255 79 163
37.3535647 53.9993268 15.7667251 255 79 163
42.2457331 70.9479465 10.1860081 255 79 163
42.2457331 70.9479465 10.1860081 255 79 163
42.1038419 70.9479465 9.33953946 255 79 163
42.1361615 70.9479465 9.34877908 255 79 163
42.1655416 70.9479465 9.36488008 255 79 163
42.1915809 70.9479465 9.38608207 255 79 163
42.2213216 70.9479465 9.41966106 255 79 163
42.2569999 70.9479465 9.47662237 255 79 163
42.2956927 70.9479465 9.5697092 255 79 163
42.3295591 70.9479465 9.71705995 255 79 163
42.33908 70.9479465 9.87571196 255 79 163
42.3214588 70.9479465 10.0230328 255 79 163
42.2858586 70.9479465 10.1251409 255 79 163
42.2677283 70.9479465 10.1568626 255 79 163
42.0922076 70.9390709 9.41362379 255 79 163
42.0812162 70.9129329 9.48361514 255 79 163
42.0714751 70.8709784 9.54564428 255 79 163
42.0635226 70.8155257 9.5962836 255 79 163
42.0577981 70.7496378 9.63273598 255 79 163
42.0549621 70.6893745 9.65079553 255 79 163
42.0540045 70.6267035 9.65689302 255 79 163
42.1337312 70.6657345 9.68029048 255 79 163
42.2047903 70.7047656 9.72335335 255 79 163
42.2624278 70.7437966 9.78320077 255 79 163
42.3027878 70.7828276 9.85582898 255 79 163
42.3231705 70.8218586 9.93637921 255 79 163
42.322212 70.8608896 10.0194628 255 79 163
42.2999767 70.8999207 10.0995214 255 79 163
42.2763125 70.9239336 10.1449334 255 79 163
42.2552782 70.938039 9.55879525 255 79 163
42.248938 70.9269356 9.58681962 255 79 163
42.242675 70.9125204 9.61317303 255 79 163
42.2365761 70.8951283 9.63743082 255 79 163
42.2307777 70.8749623 9.65922101 255 79 163
42.2254346 70.8521572 9.67823915 255 79 163
42.2206898 70.8268457 9.69425693 255 79 163
42.2133315 70.7696363 9.71676669 255 79 163
42.3198676 70.8885288 10.031927 255 79 163
42.3209088 70.9076004 10.025883 255 79 163
42.2976246 70.8915203 9.77271541 255 79 163
42.312315 70.8974454 9.81643993 255 79 163
42.3225585 70.9034391 9.8616015 255 79 163
42.3331443 70.9418624 9.94800122 255 79 163
42.3275729 70.940908 9.99336993 255 79 163
42.3289556 70.9446194 9.98487946 255 79 163
42.3338257 70.94392 9.9428841 255 79 163
42.3324384 70.9394594 9.95299515 255 79 163
42.326122 70.9361028 10.0013902 255 79 163
42.3246388 70.9303152 10.0087999 255 79 163
42.3291637 70.9117302 9.92489583 255 79 163
42.3232065 70.9236094 10.0154455 255 79 163
42.3219297 70.9160249 10.0211803 255 79 163
42.3244277 70.9450408 10.0109017 255 79 163
42.3251136 70.9462581 10.0070457 255 79 163
42.3116821 70.9446833 10.0622847 255 79 163
42.3123835 70.9457898 10.059511 255 79 163
42.3109799 70.9433878 10.0649875 255 79 163
42.2795425 70.9406508 10.139443 255 79 163
42.271924 70.9424911 10.1518225 255 79 163
42.2957513 70.929918 9.6827376 255 79 163
42.3154485 70.9320771 9.74653337 255 79 163
42.3211791 70.9329476 9.77157956 255 79 163
42.3259023 70.9338373 9.79685971 255 79 163
42.3336504 70.9363495 9.8670743 255 79 163
42.3369684 70.9472697 9.90747379 255 79 163
42.3351759 70.9468646 9.93233193 255 79 163
42.3373512 70.9476396 9.90453268 255 79 163
42.3366042 70.9467665 9.91038886 255 79 163
42.3362527 70.9461377 9.91327794 255 79 163
42.3344955 70.9456004 9.93765782 255 79 163
42.3359088 70.9453902 9.91614067 255 79 163
42.3345951 70.9376289 9.9024476 255 79 163
42.3302015 70.9477217 9.97701075 255 79 163
42.3257995 70.9471701 10.003117 255 79 163
42.323787 70.9477596 10.0128608 255 79 163
42.3170563 70.9473239 10.041917 255 79 163
42.3004325 70.9469894 10.0935992 255 79 163
42.2825028 70.9456609 10.1332089 255 79 163
42.2785388 70.9459114 10.1403095 255 79 163
42.3274056 70.9438701 9.75864514 255 79 163
42.3323129 70.9442187 9.79576375 255 79 163
42.3380477 70.9477647 9.89179357 255 79 163
42.3378421 70.9476266 9.89332909 255 79 163
42.3376434 70.9474517 9.89485768 255 79 163
42.3374505 70.9472412 9.89637944 255 79 163
42.3367662 70.9451272 9.88933577 255 79 163
42.3360618 70.9478756 9.92697962 255 79 163
42.3263406 70.947896 9.99987105 255 79 163
42.3192853 70.9477792 10.0326378 255 79 163
42.3122857 70.9478032 10.0582622 255 79 163
42.3007612 70.9472676 10.0925553 255 79 163
42.3010869 70.9475024 10.0915008 255 79 163
42.2937453 70.9477268 10.1090174 255 79 163
42.2822022 70.9473084 10.133146 255 79 163
42.2736334 70.9474448 10.1481076 255 79 163
42.3382384 70.947761 9.88616165 255 79 163
42.3240337 70.9479346 10.011417 255 79 163
42.3171102 70.9479063 10.0408846 255 79 163
42.3006361 70.9479175 10.0919311 255 79 163
42.2938921 70.9477919 10.1085825 255 79 163
42.294037 70.9478463 10.108146 255 79 163
42.2899671 70.9478938 10.1169933 255 79 163
42.2798599 70.9477842 10.1370643 255 79 163
42.3275487 70.9479334 9.9932711 255 79 163
42.2740687 70.9479102 10.1469163 255 79 163
42.335226 70.9479454 9.93772537 255 79 163
42.3240971 70.9479457 10.0110567 255 79 163
42.3315168 70.9479444 9.96850721 255 79 163
42.3321438 70.9478861 9.96355335 255 79 163
42.3305472 70.9479321 9.97503425 255 79 163
42.3297046 70.9479463 9.98057103 255 79 163
42.3306385 70.9479456 9.97453945 255 79 163
42.3281566 70.9479452 9.98983524 255 79 163
42.3270811 70.947946 9.99585123 255 79 163
42.3264844 70.9479433 9.99906071 255 79 163
42.3259461 70.9479464 10.0018643 255 79 163
42.3351062 70.9479465 9.93908158 255 79 163
42.3279132 70.9479464 9.99123118 255 79 163
42.3337003 70.94793 9.95138384 255 79 163
42.3312297 70.9479465 9.97057845 255 79 163
42.3295949 70.9479465 9.98126618 255 79 163
42.3313285 70.9469051 9.96858307 255 79 163
42.3278517 70.9479465 9.99158058 255 79 163
42.3258776 70.9479465 10.0022154 255 79 163
35.1023219 70.9479465 8.56519741 218 222 230
36.799644 70.9479465 15.6300069 218 222 230
35.0211342 70.9479465 8.22726761 218 222 230
35.0421471 70.9370004 8.31473027 218 222 230
35.061728 70.9049081 8.39623251 218 222 230
35.0770201 70.8597249 8.45988313 218 222 230
35.0881633 70.8079638 8.50626455 218 222 230
35.0963035 70.7480822 8.54014687 218 222 230
35.1008031 70.6885498 8.55887564 218 222 230
35.1023219 70.6267035 8.56519741 218 222 230
35.1023219 55.3881727 8.56519741 218 222 230
36.799644 54.6982282 15.6300069 218 222 230
35.0211342 70.9479465 8.22726761 255 79 163
35.0421471 70.9370004 8.31473027 255 79 163
35.061728 70.9049081 8.39623251 255 79 163
35.0770201 70.8597249 8.45988313 255 79 163
35.0881633 70.8079638 8.50626455 255 79 163
35.0963035 70.7480822 8.54014687 255 79 163
35.1008031 70.6885498 8.55887564 255 79 163
35.1023219 70.6267035 8.56519741 255 79 163
42.0540045 70.6267035 9.65689302 255 79 163
42.1038419 70.9479465 9.33953946 255 79 163
42.0922076 70.9390709 9.41362379 255 79 163
42.0812162 70.9129329 9.48361514 255 79 163
42.0714751 70.8709784 9.54564428 255 79 163
42.0635226 70.8155257 9.5962836 255 79 163
42.0577981 70.7496378 9.63273598 255 79 163
42.0549621 70.6893745 9.65079553 255 79 163
56.5696461 70.9479465 47.5674352 255 79 163
56.5696461 70.9398923 47.4959519 255 79 163
56.5696461 70.9161334 47.4280531 255 79 163
56.5696461 70.8778614 47.3671435 255 79 163
56.5696461 70.8269952 47.3162773 255 79 163
56.5696461 70.7660856 47.2780053 255 79 163
56.5696461 70.6981868 47.2542464 255 79 163
56.5696461 70.6267035 47.2461922 255 79 163
58.4782686 70.9479465 47.4092822 255 79 163
60.3348289 70.9479465 46.9391373 255 79 163
62.0886847 70.9479465 46.1698248 255 79 163
63.6919956 70.9479465 45.1223295 255 79 163
65.1010274 70.9479465 43.8252244 255 79 163
66.2773453 70.9479465 42.3138911 255 79 163
67.1888625 70.9479465 40.6295548 255 79 163
67.8107152 70.9479465 38.8181599 255 79 163
68.1259408 70.9479465 36.9291165 255 79 163
68.1259408 70.9479465 35.0139527 255 79 163
67.8107152 70.9479465 33.1249093 255 79 163
67.1888625 70.9479465 31.3135144 255 79 163
66.2773453 70.9479465 29.6291782 255 79 163
65.1010274 70.9479465 28.1178449 255 79 163
63.6919956 70.9479465 26.8207397 255 79 163
62.0886847 70.9479465 25.7732445 255 79 163
60.3348289 70.9479465 25.0039319 255 79 163
58.4782686 70.9479465 24.533787 255 79 163
56.5696461 70.9479465 24.3756341 255 79 163
54.6610236 70.9479465 24.533787 255 79 163
52.8044633 70.9479465 25.0039319 255 79 163
51.0506075 70.9479465 25.7732445 255 79 163
49.4472966 70.9479465 26.8207397 255 79 163
48.0382648 70.9479465 28.1178449 255 79 163
46.8619469 70.9479465 29.6291782 255 79 163
45.9504297 70.9479465 31.3135144 255 79 163
45.328577 70.9479465 33.1249093 255 79 163
45.0133514 70.9479465 35.0139527 255 79 163
45.0133514 70.9479465 36.9291165 255 79 163
45.328577 70.9479465 38.8181599 255 79 163
45.9504297 70.9479465 40.6295548 255 79 163
46.8619469 70.9479465 42.3138911 255 79 163
48.0382648 70.9479465 43.8252244 255 79 163
49.4472966 70.9479465 45.1223295 255 79 163
51.0506075 70.9479465 46.1698248 255 79 163
52.8044633 70.9479465 46.9391373 255 79 163
54.6610236 70.9479465 47.4092822 255 79 163
56.5696461 70.9479465 47.5674352 255 79 163
56.5696461 70.9398923 47.4959519 255 79 163
56.5696461 70.9161334 47.4280531 255 79 163
56.5696461 70.8778614 47.3671435 255 79 163
56.5696461 70.8269952 47.3162773 255 79 163
56.5696461 70.7660856 47.2780053 255 79 163
56.5696461 70.6981868 47.2542464 255 79 163
56.5696461 70.6267035 47.2461922 255 79 163
58.4253937 70.6267035 47.0924206 255 79 163
60.2305214 70.6267035 46.6353002 255 79 163
61.93579 70.6267035 45.8873 255 79 163
63.4946841 70.6267035 44.8688236 255 79 163
64.8646813 70.6267035 43.6076524 255 79 163
66.0084115 70.6267035 42.1381878 255 79 163
66.8946768 70.6267035 40.500513 255 79 163
67.4993022 70.6267035 38.7392994 255 79 163
67.805795 70.6267035 36.9025885 255 79 163
67.805795 70.6267035 35.0404808 255 79 163
67.4993022 70.6267035 33.2037698 255 79 163
66.8946768 70.6267035 31.4425563 255 79 163
66.0084115 70.6267035 29.8048814 255 79 163
64.8646813 70.6267035 28.3354168 255 79 163
63.4946841 70.6267035 27.0742456 255 79 163
61.93579 70.6267035 26.0557692 255 79 163
60.2305214 70.6267035 25.3077691 255 79 163
58.4253937 70.6267035 24.8506487 255 79 163
56.5696461 70.6267035 24.696877 255 79 163
54.7138985 70.6267035 24.8506487 255 79 163
52.9087708 70.6267035 25.3077691 255 79 163
51.2035022 70.6267035 26.0557692 255 79 163
49.6446081 70.6267035 27.0742456 255 79 163
48.2746109 70.6267035 28.3354168 255 79 163
47.1308807 70.6267035 29.8048814 255 79 163
46.2446154 70.6267035 31.4425563 255 79 163
45.63999 70.6267035 33.2037698 255 79 163
45.3334972 70.6267035 35.0404808 255 79 163
45.3334972 70.6267035 36.9025885 255 79 163
45.63999 70.6267035 38.7392994 255 79 163
46.2446154 70.6267035 40.500513 255 79 163
47.1308807 70.6267035 42.1381878 255 79 163
48.2746109 70.6267035 43.6076524 255 79 163
49.6446081 70.6267035 44.8688236 255 79 163
51.2035022 70.6267035 45.8873 255 79 163
52.9087708 70.6267035 46.6353002 255 79 163
54.7138985 70.6267035 47.0924206 255 79 163
58.4665028 70.9398923 47.3387739 255 79 163
58.4553271 70.9161334 47.2718011 255 79 163
58.4453017 70.8778614 47.2117222 255 79 163
58.4369294 70.8269952 47.1615498 255 79 163
58.43063 70.7660856 47.1237997 255 79 163
58.4267194 70.6981868 47.100365 255 79 163
60.3116183 70.9398923 46.8715272 255 79 163
60.2895716 70.9161334 46.8073073 255 79 163
60.2697942 70.8778614 46.7496979 255 79 163
60.253278 70.8269952 46.7015879 255 79 163
60.2408511 70.7660856 46.6653895 255 79 163
60.2331366 70.6981868 46.642918 255 79 163
62.0546625 70.9398923 46.1069571 255 79 163
62.0223462 70.9161334 46.0472419 255 79 163
61.9933564 70.8778614 45.9936735 255 79 163
61.9691468 70.8269952 45.948938 255 79 163
61.9509313 70.7660856 45.9152788 255 79 163
61.9396234 70.6981868 45.8943835 255 79 163
63.6480897 70.9398923 45.0659191 255 79 163
63.6063854 70.9161334 45.0123374 255 79 163
63.5689739 70.8778614 44.9642712 255 79 163
63.5377313 70.8269952 44.9241306 255 79 163
63.5142241 70.7660856 44.8939286 255 79 163
63.4996311 70.6981868 44.8751796 255 79 163
65.0484354 70.9398923 43.7768101 255 79 163
64.9984807 70.9161334 43.7308234 255 79 163
64.953668 70.8778614 43.6895705 255 79 163
64.9162446 70.8269952 43.6551198 255 79 163
64.8880869 70.7660856 43.6291988 255 79 163
64.870607 70.6981868 43.6131074 255 79 163
66.2175019 70.9398923 42.2747934 255 79 163
66.1606593 70.9161334 42.2376563 255 79 163
66.1096678 70.8778614 42.2043419 255 79 163
66.0670844 70.8269952 42.1765207 255 79 163
66.0350443 70.7660856 42.1555879 255 79 163
66.0151542 70.6981868 42.1425931 255 79 163
67.1234 70.9398923 40.6008403 255 79 163
67.0612201 70.9161334 40.5735657 255 79 163
67.0054407 70.8778614 40.5490985 255 79 163
66.9588589 70.8269952 40.5286658 255 79 163
66.9238103 70.7660856 40.5132921 255 79 163
66.9020526 70.6981868 40.5037483 255 79 163
67.7414193 70.9398923 38.8006118 255 79 163
67.6755981 70.9161334 38.7839436 255 79 163
67.6165523 70.8778614 38.7689912 255 79 163
67.5672427 70.8269952 38.7565043 255 79 163
67.5301417 70.7660856 38.7471091 255 79 163
67.5071099 70.6981868 38.7412766 255 79 163
68.0547016 70.9398923 36.9232135 255 79 163
67.9870347 70.9161334 36.9176064 255 79 163
67.9263332 70.8778614 36.9125765 255 79 163
67.8756407 70.8269952 36.908376 255 79 163
67.8374994 70.7660856 36.9052156 255 79 163
67.8138217 70.6981868 36.9032536 255 79 163
68.0547016 70.9398923 35.0198558 255 79 163
67.9870347 70.9161334 35.0254628 255 79 163
67.9263332 70.8778614 35.0304927 255 79 163
67.8756407 70.8269952 35.0346932 255 79 163
67.8374994 70.7660856 35.0378537 255 79 163
67.8138217 70.6981868 35.0398157 255 79 163
67.7414193 70.9398923 33.1424574 255 79 163
67.6755981 70.9161334 33.1591256 255 79 163
67.6165523 70.8778614 33.174078 255 79 163
67.5672427 70.8269952 33.1865649 255 79 163
67.5301417 70.7660856 33.1959602 255 79 163
67.5071099 70.6981868 33.2017926 255 79 163
67.1234 70.9398923 31.3422289 255 79 163
67.0612201 70.9161334 31.3695036 255 79 163
67.0054407 70.8778614 31.3939707 255 79 163
66.9588589 70.8269952 31.4144034 255 79 163
66.9238103 70.7660856 31.4297771 255 79 163
66.9020526 70.6981868 31.4393209 255 79 163
66.2175019 70.9398923 29.6682758 255 79 163
66.1606593 70.9161334 29.705413 255 79 163
66.1096678 70.8778614 29.7387274 255 79 163
66.0670844 70.8269952 29.7665485 255 79 163
66.0350443 70.7660856 29.7874813 255 79 163
66.0151542 70.6981868 29.8004762 255 79 163
65.0484354 70.9398923 28.1662592 255 79 163
64.9984807 70.9161334 28.2122458 255 79 163
64.953668 70.8778614 28.2534988 255 79 163
64.9162446 70.8269952 28.2879495 255 79 163
64.8880869 70.7660856 28.3138704 255 79 163
64.870607 70.6981868 28.3299618 255 79 163
63.6480897 70.9398923 26.8771501 255 79 163
63.6063854 70.9161334 26.9307318 255 79 163
63.5689739 70.8778614 26.9787981 255 79 163
63.5377313 70.8269952 27.0189386 255 79 163
63.5142241 70.7660856 27.0491406 255 79 163
63.4996311 70.6981868 27.0678897 255 79 163
62.0546625 70.9398923 25.8361121 255 79 163
62.0223462 70.9161334 25.8958274 255 79 163
61.9933564 70.8778614 25.9493958 255 79 163
61.9691468 70.8269952 25.9941312 255 79 163
61.9509313 70.7660856 26.0277905 255 79 163
61.9396234 70.6981868 26.0486857 255 79 163
60.3116183 70.9398923 25.0715421 255 79 163
60.2895716 70.9161334 25.1357619 255 79 163
60.2697942 70.8778614 25.1933713 255 79 163
60.253278 70.8269952 25.2414814 255 79 163
60.2408511 70.7660856 25.2776797 255 79 163
60.2331366 70.6981868 25.3001512 255 79 163
58.4665028 70.9398923 24.6042954 255 79 163
58.4553271 70.9161334 24.6712681 255 79 163
58.4453017 70.8778614 24.731347 255 79 163
58.4369294 70.8269952 24.7815194 255 79 163
58.43063 70.7660856 24.8192695 255 79 163
58.4267194 70.6981868 24.8427043 255 79 163
56.5696461 70.9398923 24.4471174 255 79 163
56.5696461 70.9161334 24.5150162 255 79 163
56.5696461 70.8778614 24.5759258 255 79 163
56.5696461 70.8269952 24.6267919 255 79 163
56.5696461 70.7660856 24.665064 255 79 163
56.5696461 70.6981868 24.6888228 255 79 163
54.6727894 70.9398923 24.6042954 255 79 163
54.6839651 70.9161334 24.6712681 255 79 163
54.6939905 70.8778614 24.731347 255 79 163
54.7023628 70.8269952 24.7815194 255 79 163
54.7086622 70.7660856 24.8192695 255 79 163
54.7125728 70.6981868 24.8427043 255 79 163
52.8276739 70.9398923 25.0715421 255 79 163
52.8497206 70.9161334 25.1357619 255 79 163
52.869498 70.8778614 25.1933713 255 79 163
52.8860142 70.8269952 25.2414814 255 79 163
52.8984411 70.7660856 25.2776797 255 79 163
52.9061556 70.6981868 25.3001512 255 79 163
51.0846297 70.9398923 25.8361121 255 79 163
51.116946 70.9161334 25.8958274 255 79 163
51.1459358 70.8778614 25.9493958 255 79 163
51.1701454 70.8269952 25.9941312 255 79 163
51.1883609 70.7660856 26.0277905 255 79 163
51.1996688 70.6981868 26.0486857 255 79 163
49.4912025 70.9398923 26.8771501 255 79 163
49.5329068 70.9161334 26.9307318 255 79 163
49.5703183 70.8778614 26.9787981 255 79 163
49.6015609 70.8269952 27.0189386 255 79 163
49.6250681 70.7660856 27.0491406 255 79 163
49.6396611 70.6981868 27.0678897 255 79 163
48.0908568 70.9398923 28.1662592 255 79 163
48.1408115 70.9161334 28.2122458 255 79 163
48.1856242 70.8778614 28.2534988 255 79 163
48.2230476 70.8269952 28.2879495 255 79 163
48.2512053 70.7660856 28.3138704 255 79 163
48.2686852 70.6981868 28.3299618 255 79 163
46.9217903 70.9398923 29.6682758 255 79 163
46.9786329 70.9161334 29.705413 255 79 163
47.0296244 70.8778614 29.7387274 255 79 163
47.0722078 70.8269952 29.7665485 255 79 163
47.1042479 70.7660856 29.7874813 255 79 163
47.124138 70.6981868 29.8004762 255 79 163
46.0158922 70.9398923 31.3422289 255 79 163
46.0780721 70.9161334 31.3695036 255 79 163
46.1338515 70.8778614 31.3939707 255 79 163
46.1804334 70.8269952 31.4144034 255 79 163
46.2154819 70.7660856 31.4297771 255 79 163
46.2372396 70.6981868 31.4393209 255 79 163
45.3978729 70.9398923 33.1424574 255 79 163
45.4636941 70.9161334 33.1591256 255 79 163
45.5227399 70.8778614 33.174078 255 79 163
45.5720495 70.8269952 33.1865649 255 79 163
45.6091505 70.7660856 33.1959602 255 79 163
45.6321823 70.6981868 33.2017926 255 79 163
45.0845906 70.9398923 35.0198558 255 79 163
45.1522575 70.9161334 35.0254628 255 79 163
45.212959 70.8778614 35.0304927 255 79 163
45.2636515 70.8269952 35.0346932 255 79 163
45.3017928 70.7660856 35.0378537 255 79 163
45.3254705 70.6981868 35.0398157 255 79 163
45.0845906 70.9398923 36.9232135 255 79 163
45.1522575 70.9161334 36.9176064 255 79 163
45.212959 70.8778614 36.9125765 255 79 163
45.2636515 70.8269952 36.908376 255 79 163
45.3017928 70.7660856 36.9052156 255 79 163
45.3254705 70.6981868 36.9032536 255 79 163
45.3978729 70.9398923 38.8006118 255 79 163
45.4636941 70.9161334 38.7839436 255 79 163
45.5227399 70.8778614 38.7689912 255 79 163
45.5720495 70.8269952 38.7565043 255 79 163
45.6091505 70.7660856 38.7471091 255 79 163
45.6321823 70.6981868 38.7412766 255 79 163
46.0158922 70.9398923 40.6008403 255 79 163
46.0780721 70.9161334 40.5735657 255 79 163
46.1338515 70.8778614 40.5490985 255 79 163
46.1804334 70.8269952 40.5286658 255 79 163
46.2154819 70.7660856 40.5132921 255 79 163
46.2372396 70.6981868 40.5037483 255 79 163
46.9217903 70.9398923 42.2747934 255 79 163
46.9786329 70.9161334 42.2376563 255 79 163
47.0296244 70.8778614 42.2043419 255 79 163
47.0722078 70.8269952 42.1765207 255 79 163
47.1042479 70.7660856 42.1555879 255 79 163
47.124138 70.6981868 42.1425931 255 79 163
48.0908568 70.9398923 43.7768101 255 79 163
48.1408115 70.9161334 43.7308234 255 79 163
48.1856242 70.8778614 43.6895705 255 79 163
48.2230476 70.8269952 43.6551198 255 79 163
48.2512053 70.7660856 43.6291988 255 79 163
48.2686852 70.6981868 43.6131074 255 79 163
49.4912025 70.9398923 45.0659191 255 79 163
49.5329068 70.9161334 45.0123374 255 79 163
49.5703183 70.8778614 44.9642712 255 79 163
49.6015609 70.8269952 44.9241306 255 79 163
49.6250681 70.7660856 44.8939286 255 79 163
49.6396611 70.6981868 44.8751796 255 79 163
51.0846297 70.9398923 46.1069571 255 79 163
51.116946 70.9161334 46.0472419 255 79 163
51.1459358 70.8778614 45.9936735 255 79 163
51.1701454 70.8269952 45.948938 255 79 163
51.1883609 70.7660856 45.9152788 255 79 163
51.1996688 70.6981868 45.8943835 255 79 163
52.8276739 70.9398923 46.8715272 255 79 163
52.8497206 70.9161334 46.8073073 255 79 163
52.869498 70.8778614 46.7496979 255 79 163
52.8860142 70.8269952 46.7015879 255 79 163
52.8984411 70.7660856 46.6653895 255 79 163
52.9061556 70.6981868 46.642918 255 79 163
54.6727894 70.9398923 47.3387739 255 79 163
54.6839651 70.9161334 47.2718011 255 79 163
54.6939905 70.8778614 47.2117222 255 79 163
54.7023628 70.8269952 47.1615498 255 79 163
54.7086622 70.7660856 47.1237997 255 79 163
54.7125728 70.6981868 47.100365 255 79 163
99.5169911 28.7305139 43.6981401 255 79 163
99.5169911 28.7305139 43.6981401 255 79 163
99.5169911 28.514327 44.3406261 255 79 163
99.5169911 28.5287057 44.3387495 255 79 163
99.5169911 28.5446653 44.332396 255 79 163
99.5169911 28.5617967 44.3207045 255 79 163
99.5169911 28.5814364 44.3010939 255 79 163
99.5169911 28.6150399 44.2516063 255 79 163
99.5169911 28.6464448 44.1848445 255 79 163
99.5169911 28.6977392 44.0110401 255 79 163
99.5081155 28.514327 44.2656338 255 79 163
99.4819776 28.514327 44.1947846 255 79 163
99.440023 28.514327 44.1319953 255 79 163
99.3845703 28.514327 44.0807353 255 79 163
99.3186825 28.514327 44.0438362 255 79 163
99.2584191 28.514327 44.0255553 255 79 163
99.1957481 28.514327 44.0193831 255 79 163
99.2604363 28.5777824 44.008437 255 79 163
99.3229908 28.6359888 43.9763446 255 79 163
99.3814233 28.6840546 43.9252932 255 79 163
99.4340274 28.7177823 43.8587556 255 79 163
99.4794894 28.7339395 43.78129 255 79 163
99.5064186 28.5827902 44.2217105 255 79 163
99.4941717 28.5806582 44.1869492 255 79 163
99.4779591 28.5784082 44.1541266 255 79 163
99.4350384 28.5736992 44.0964335 255 79 163
99.3799641 28.5691733 44.0521871 255 79 163
99.3151249 28.5653409 44.0238719 255 79 163
99.4552074 28.6381909 44.0350348 255 79 163
99.4642026 28.6604609 44.001731 255 79 163
99.4777988 28.6890195 43.9448117 255 79 163
99.4863121 28.7039951 43.904455 255 79 163
99.4943336 28.7159012 43.862105 255 79 163
99.497117 28.6283562 44.1281417 255 79 163
99.4985551 28.6435796 44.1024166 255 79 163
99.499791 28.6547058 44.0810042 255 79 163
99.5038703 28.6836063 44.0119349 255 79 163
99.5059775 28.6953923 43.9757529 255 79 163
99.5073416 28.7021733 43.9516441 255 79 163
99.508677 28.7082397 43.9271912 255 79 163
99.5140457 28.6968931 43.9930435 255 79 163
99.5142452 28.7001303 43.979814 255 79 163
99.5144433 28.7031994 43.9665257 255 79 163
99.1957481 28.514327 44.0193831 255 79 163
99.1957481 0.321242967 44.0193831 255 79 163
99.5169911 28.514327 44.3406261 255 79 163
99.5081155 28.514327 44.2656338 255 79 163
99.4819776 28.514327 44.1947846 255 79 163
99.440023 28.514327 44.1319953 255 79 163
99.3845703 28.514327 44.0807353 255 79 163
99.3186825 28.514327 44.0438362 255 79 163
99.2584191 28.514327 44.0255553 255 79 163
99.5169911 -5.55111512e-17 44.3406261 255 79 163
99.5122638 0.00472729736 44.2857182 255 79 163
99.498221 0.018770059 44.2324263 255 79 163
99.4752761 0.0417149883 44.1823189 255 79 163
99.4441043 0.0728867865 44.1368707 255 79 163
99.4056231 0.111368027 44.0974192 255 79 163
99.3609649 0.156026158 44.0651257 255 79 163
99.2941054 0.2228857 44.0348109 255 79 163
99.2455281 0.271463026 44.0232635 255 79 163
42.0540045 70.6267035 9.65689302 255 79 163
42.1337312 70.6657345 9.68029048 255 79 163
42.2047903 70.7047656 9.72335335 255 79 163
42.2624278 70.7437966 9.78320077 255 79 163
42.3027878 70.7828276 9.85582898 255 79 163
42.3231705 70.8218586 9.93637921 255 79 163
42.322212 70.8608896 10.0194628 255 79 163
42.2999767 70.8999207 10.0995214 255 79 163
42.2763125 70.9239336 10.1449334 255 79 163
42.2457331 70.9479465 10.1860081 255 79 163
42.2457331 52.0107092 10.1860081 255 79 163
42.0540045 52.4151555 9.65689302 255 79 163
42.1421479 52.3605552 9.684146 255 79 163
42.2189103 52.305955 9.73532729 255 79 163
42.27796 52.2513547 9.80621535 255 79 163
42.303374 52.2176509 9.85731791 255 79 163
42.3193437 52.183947 9.91211125 255 79 163
42.3252401 52.1532344 9.96379552 255 79 163
42.3227173 52.1225217 10.0157538 255 79 163
42.3118415 52.0918091 10.0666238 255 79 163
42.2928979 52.0610964 10.1150713 255 79 163
42.2716772 52.0359028 10.15211 255 79 163
35.1023219 70.6267035 8.56519741 218 222 230
35.1023219 55.3881727 8.56519741 218 222 230
42.0540045 70.6267035 9.65689302 218 222 230
42.0540045 52.4151555 9.65689302 218 222 230
35.0705893 55.2538441 8.56021411 218 222 230
35.0880951 55.2967673 8.56296323 218 222 230
35.0987466 55.3418565 8.56463594 218 222 230
99.5169911 -5.55111512e-17 44.3406261 255 79 163
0.321242967 0 44.3406261 255 79 163
0.321242967 0.00805423187 44.2691428 255 79 163
0.321242967 0.0318130547 44.201244 255 79 163
0.321242967 0.0700851018 44.1403343 255 79 163
0.321242967 0.120951253 44.0894682 255 79 163
0.321242967 0.181860867 44.0511961 255 79 163
0.321242967 0.249759682 44.0274373 255 79 163
0.321242967 0.321242967 44.0193831 255 79 163
99.1957481 0.321242967 44.0193831 255 79 163
99.5122638 0.00472729736 44.2857182 255 79 163
99.498221 0.018770059 44.2324263 255 79 163
99.4752761 0.0417149883 44.1823189 255 79 163
99.4441043 0.0728867865 44.1368707 255 79 163
99.4056231 0.111368027 44.0974192 255 79 163
99.3609649 0.156026158 44.0651257 255 79 163
99.2941054 0.2228857 44.0348109 255 79 163
99.2455281 0.271463026 44.0232635 255 79 163
56.5696461 70.6267035 47.2461922 218 222 230
56.5696461 54.2953697 47.2461922 218 222 230
58.4253937 54.2953697 47.0924206 218 222 230
60.2305214 54.2953697 46.6353002 218 222 230
61.93579 54.2953697 45.8873 218 222 230
63.4946841 54.2953697 44.8688236 218 222 230
64.8646813 54.2953697 43.6076524 218 222 230
66.0084115 54.2953697 42.1381878 218 222 230
66.8946768 54.2953697 40.500513 218 222 230
67.4993022 54.2953697 38.7392994 218 222 230
67.805795 54.2953697 36.9025885 218 222 230
67.805795 54.2953697 35.0404808 218 222 230
67.4993022 54.2953697 33.2037698 218 222 230
66.8946768 54.2953697 31.4425563 218 222 230
66.0084115 54.2953697 29.8048814 218 222 230
64.8646813 54.2953697 28.3354168 218 222 230
63.4946841 54.2953697 27.0742456 218 222 230
61.93579 54.2953697 26.0557692 218 222 230
60.2305214 54.2953697 25.3077691 218 222 230
58.4253937 54.2953697 24.8506487 218 222 230
56.5696461 54.2953697 24.696877 218 222 230
54.7138985 54.2953697 24.8506487 218 222 230
52.9087708 54.2953697 25.3077691 218 222 230
51.2035022 54.2953697 26.0557692 218 222 230
49.6446081 54.2953697 27.0742456 218 222 230
48.2746109 54.2953697 28.3354168 218 222 230
47.1308807 54.2953697 29.8048814 218 222 230
46.2446154 54.2953697 31.4425563 218 222 230
45.63999 54.2953697 33.2037698 218 222 230
45.3334972 54.2953697 35.0404808 218 222 230
45.3334972 54.2953697 36.9025885 218 222 230
45.63999 54.2953697 38.7392994 218 222 230
46.2446154 54.2953697 40.500513 218 222 230
47.1308807 54.2953697 42.1381878 218 222 230
48.2746109 54.2953697 43.6076524 218 222 230
49.6446081 54.2953697 44.8688236 218 222 230
51.2035022 54.2953697 45.8873 218 222 230
52.9087708 54.2953697 46.6353002 218 222 230
54.7138985 54.2953697 47.0924206 218 222 230
56.5696461 54.2953697 47.2461922 218 222 230
56.5696461 70.6267035 47.2461922 218 222 230
58.4253937 70.6267035 47.0924206 218 222 230
60.2305214 70.6267035 46.6353002 218 222 230
61.93579 70.6267035 45.8873 218 222 230
63.4946841 70.6267035 44.8688236 218 222 230
64.8646813 70.6267035 43.6076524 218 222 230
66.0084115 70.6267035 42.1381878 218 222 230
66.8946768 70.6267035 40.500513 218 222 230
67.4993022 70.6267035 38.7392994 218 222 230
67.805795 70.6267035 36.9025885 218 222 230
67.805795 70.6267035 35.0404808 218 222 230
67.4993022 70.6267035 33.2037698 218 222 230
66.8946768 70.6267035 31.4425563 218 222 230
66.0084115 70.6267035 29.8048814 218 222 230
64.8646813 70.6267035 28.3354168 218 222 230
63.4946841 70.6267035 27.0742456 218 222 230
61.93579 70.6267035 26.0557692 218 222 230
60.2305214 70.6267035 25.3077691 218 222 230
58.4253937 70.6267035 24.8506487 218 222 230
56.5696461 70.6267035 24.696877 218 222 230
54.7138985 70.6267035 24.8506487 218 222 230
52.9087708 70.6267035 25.3077691 218 222 230
51.2035022 70.6267035 26.0557692 218 222 230
49.6446081 70.6267035 27.0742456 218 222 230
48.2746109 70.6267035 28.3354168 218 222 230
47.1308807 70.6267035 29.8048814 218 222 230
46.2446154 70.6267035 31.4425563 218 222 230
45.63999 70.6267035 33.2037698 218 222 230
45.3334972 70.6267035 35.0404808 218 222 230
45.3334972 70.6267035 36.9025885 218 222 230
45.63999 70.6267035 38.7392994 218 222 230
46.2446154 70.6267035 40.500513 218 222 230
47.1308807 70.6267035 42.1381878 218 222 230
48.2746109 70.6267035 43.6076524 218 222 230
49.6446081 70.6267035 44.8688236 218 222 230
51.2035022 70.6267035 45.8873 218 222 230
52.9087708 70.6267035 46.6353002 218 222 230
54.7138985 70.6267035 47.0924206 218 222 230
56.5696461 54.2953697 47.2461922 218 222 230
58.4253937 54.2953697 47.0924206 218 222 230
60.2305214 54.2953697 46.6353002 218 222 230
61.93579 54.2953697 45.8873 218 222 230
63.4946841 54.2953697 44.8688236 218 222 230
64.8646813 54.2953697 43.6076524 218 222 230
66.0084115 54.2953697 42.1381878 218 222 230
66.8946768 54.2953697 40.500513 218 222 230
67.4993022 54.2953697 38.7392994 218 222 230
67.805795 54.2953697 36.9025885 218 222 230
67.805795 54.2953697 35.0404808 218 222 230
67.4993022 54.2953697 33.2037698 218 222 230
66.8946768 54.2953697 31.4425563 218 222 230
66.0084115 54.2953697 29.8048814 218 222 230
64.8646813 54.2953697 28.3354168 218 222 230
63.4946841 54.2953697 27.0742456 218 222 230
61.93579 54.2953697 26.0557692 218 222 230
60.2305214 54.2953697 25.3077691 218 222 230
58.4253937 54.2953697 24.8506487 218 222 230
56.5696461 54.2953697 24.696877 218 222 230
54.7138985 54.2953697 24.8506487 218 222 230
52.9087708 54.2953697 25.3077691 218 222 230
51.2035022 54.2953697 26.0557692 218 222 230
49.6446081 54.2953697 27.0742456 218 222 230
48.2746109 54.2953697 28.3354168 218 222 230
47.1308807 54.2953697 29.8048814 218 222 230
46.2446154 54.2953697 31.4425563 218 222 230
45.63999 54.2953697 33.2037698 218 222 230
45.3334972 54.2953697 35.0404808 218 222 230
45.3334972 54.2953697 36.9025885 218 222 230
45.63999 54.2953697 38.7392994 218 222 230
46.2446154 54.2953697 40.500513 218 222 230
47.1308807 54.2953697 42.1381878 218 222 230
48.2746109 54.2953697 43.6076524 218 222 230
49.6446081 54.2953697 44.8688236 218 222 230
51.2035022 54.2953697 45.8873 218 222 230
52.9087708 54.2953697 46.6353002 218 222 230
54.7138985 54.2953697 47.0924206 218 222 230
3 15 1 0
3 15 0 16
3 15 16 17
3 15 17 18
3 15 18 19
3 15 19 20
3 15 20 21
3 14 1 15
3 2 6 5
3 2 7 6
3 2 8 7
3 2 9 8
3 2 10 9
3 2 11 10
3 2 12 11
3 2 13 12
3 2 14 13
3 2 1 14
3 3 5 4
3 3 2 5
3 31 27 28
3 31 28 29
3 31 29 30
3 26 22 23
3 26 23 27
3 26 31 32
3 26 27 31
3 25 24 22
3 25 22 26
3 40 41 42
3 40 42 48
3 39 40 48
3 38 48 47
3 38 39 48
3 37 47 46
3 37 38 47
3 36 45 44
3 36 46 45
3 36 37 46
3 35 44 43
3 35 36 44
3 34 43 33
3 34 35 43
3 57 58 64
3 56 64 63
3 56 57 64
3 55 63 62
3 55 56 63
3 54 62 61
3 54 55 62
3 53 61 60
3 53 54 61
3 52 60 59
3 52 53 60
3 51 59 49
3 51 52 59
3 50 51 49
3 74 66 73
3 72 73 66
3 75 66 74
3 71 66 65
3 71 72 66
3 76 66 75
3 77 66 76
3 78 66 77
3 79 66 78
3 83 71 65
3 67 69 70
3 67 79 80
3 67 80 81
3 67 81 82
3 67 82 69
3 67 95 94
3 67 96 95
3 67 70 96
3 67 66 79
3 68 86 85
3 68 87 86
3 68 88 87
3 68 89 88
3 68 90 89
3 68 91 90
3 68 92 91
3 68 93 92
3 68 94 93
3 68 67 94
3 68 83 65
3 68 84 83
3 68 85 84
3 108 97 98
3 108 107 97
3 109 98 99
3 109 108 98
3 110 99 100
3 110 109 99
3 111 100 101
3 111 110 100
3 112 101 102
3 112 111 101
3 113 102 103
3 113 103 104
3 113 112 102
3 106 104 105
3 106 113 104
3 117 125 116
3 137 117 118
3 137 118 119
3 137 126 125
3 137 125 117
3 138 127 126
3 138 128 127
3 138 137 119
3 138 126 137
3 139 129 128
3 139 130 129
3 139 131 130
3 139 132 131
3 139 128 138
3 140 119 120
3 140 120 121
3 141 138 119
3 141 119 140
3 141 140 121
3 142 133 132
3 142 134 133
3 142 132 139
3 142 139 138
3 142 138 141
3 142 141 134
3 143 121 122
3 143 122 123
3 144 141 121
3 144 121 143
3 144 134 141
3 145 135 134
3 145 134 144
3 146 124 115
3 147 115 114
3 147 146 115
3 148 136 135
3 148 114 136
3 148 144 147
3 148 145 144
3 148 147 114
3 148 135 145
3 149 123 124
3 149 147 144
3 149 143 123
3 149 144 143
3 149 124 146
3 149 146 147
3 159 157 156
3 160 156 155
3 160 159 156
3 161 155 154
3 161 160 155
3 162 154 153
3 162 161 154
3 163 153 152
3 163 162 153
3 164 152 151
3 164 163 152
3 165 164 151
3 166 151 150
3 166 165 151
3 158 166 150
3 173 174 175
3 173 175 176
3 172 176 177
3 172 173 176
3 171 177 178
3 171 172 177
3 170 178 179
3 170 171 178
3 169 179 180
3 169 170 179
3 168 180 181
3 168 169 180
3 167 181 182
3 167 168 181
3 193 194 200
3 192 200 199
3 192 193 200
3 191 199 198
3 191 192 199
3 190 198 197
3 190 191 198
3 189 197 196
3 189 190 197
3 188 189 196
3 187 196 195
3 187 188 196
3 186 187 195
3 185 195 183
3 185 186 195
3 184 185 183
3 216 217 201
3 215 216 201
3 214 215 201
3 203 214 201
3 203 213 214
3 254 205 207
3 254 207 208
3 253 205 254
3 255 208 209
3 255 254 208
3 252 206 205
3 252 205 253
3 256 209 210
3 256 210 211
3 256 255 209
3 251 206 252
3 251 228 229
3 251 229 206
3 257 256 211
3 257 211 212
3 250 227 228
3 250 228 251
3 258 212 213
3 258 213 203
3 258 257 212
3 249 225 226
3 249 226 227
3 249 227 250
3 259 258 203
3 248 224 225
3 248 225 249
3 260 259 203
3 247 223 224
3 247 224 248
3 261 260 203
3 262 261 203
3 263 262 203
3 264 263 203
3 265 264 203
3 202 217 218
3 202 218 219
3 202 219 220
3 202 220 221
3 202 221 222
3 202 222 223
3 202 243 242
3 202 244 243
3 202 245 244
3 202 246 245
3 202 247 246
3 202 223 247
3 266 265 203
3 241 202 242
3 267 266 203
3 230 267 203
3 204 231 230
3 204 232 231
3 204 233 232
3 204 234 233
3 204 235 234
3 204 236 235
3 204 237 236
3 204 238 237
3 204 239 238
3 204 240 239
3 204 241 240
3 204 202 241
3 202 201 217
3 203 204 230
3 274 275 282
3 268 269 289
3 290 278 277
3 291 277 276
3 291 290 277
3 292 276 283
3 292 291 276
3 293 279 278
3 293 290 291
3 293 278 290
3 294 283 284
3 294 292 283
3 295 291 292
3 295 293 291
3 296 280 279
3 296 281 280
3 296 279 293
3 297 284 285
3 297 294 284
3 298 295 292
3 298 292 294
3 299 293 295
3 299 296 293
3 300 285 286
3 300 298 294
3 300 297 285
3 300 294 297
3 301 295 298
3 301 299 295
3 302 273 274
3 302 282 281
3 302 281 296
3 302 296 299
3 302 274 282
3 303 298 300
3 303 301 298
3 304 272 273
3 304 273 302
3 304 299 301
3 304 302 299
3 305 286 287
3 305 287 288
3 305 300 286
3 305 303 300
3 306 270 271
3 306 271 272
3 306 272 304
3 306 301 303
3 306 304 301
3 307 269 270
3 307 288 289
3 307 289 269
3 307 270 306
3 307 305 288
3 307 303 305
3 307 306 303
3 321 313 314
3 320 312 313
3 320 313 321
3 319 311 312
3 319 312 320
3 318 310 311
3 318 311 319
3 317 309 310
3 317 310 318
3 316 308 309
3 316 309 317
3 315 308 316
3 332 333 334
3 332 334 335
3 331 332 335
3 330 331 335
3 329 330 335
3 328 329 335
3 327 328 335
3 326 327 335
3 325 326 335
3 323 322 324
3 323 324 325
3 323 325 335
3 337 338 336
3 337 339 338
3 354 343 342
3 344 343 354
3 355 344 354
3 345 344 355
3 356 345 355
3 357 345 356
3 363 358 359
3 363 359 360
3 363 360 361
3 363 361 362
3 369 347 346
3 369 348 347
3 370 369 346
3 370 348 369
3 371 346 345
3 371 345 357
3 371 370 346
3 372 357 358
3 372 371 357
3 372 358 363
3 373 372 363
3 374 363 364
3 374 373 363
3 374 364 373
3 375 364 365
3 375 373 364
3 375 372 373
3 375 376 372
3 377 365 366
3 377 375 365
3 377 366 375
3 378 349 348
3 378 379 349
3 380 371 372
3 380 376 381
3 380 382 379
3 380 372 376
3 380 370 371
3 380 378 348
3 380 381 382
3 380 348 370
3 380 379 378
3 383 350 349
3 383 349 379
3 384 379 382
3 384 383 379
3 385 384 382
3 385 381 376
3 385 382 381
3 386 385 376
3 386 376 375
3 386 375 366
3 387 386 366
3 387 366 367
3 388 387 367
3 388 367 368
3 389 388 368
3 390 389 368
3 390 368 340
3 391 350 383
3 392 383 384
3 392 391 383
3 392 384 385
3 393 392 385
3 393 385 386
3 394 386 387
3 394 393 386
3 395 394 387
3 395 387 388
3 396 388 389
3 396 395 388
3 397 396 389
3 398 389 390
3 398 397 389
3 399 340 341
3 399 390 340
3 399 398 390
3 400 391 392
3 400 350 391
3 401 400 392
3 401 392 393
3 402 393 394
3 402 401 393
3 403 402 394
3 403 394 395
3 404 395 396
3 405 396 397
3 405 404 396
3 406 397 398
3 406 405 397
3 407 398 399
3 407 406 398
3 408 407 399
3 409 341 353
3 409 399 341
3 409 408 399
3 410 350 400
3 410 400 401
3 411 350 410
3 411 401 402
3 411 410 401
3 412 402 403
3 412 350 411
3 412 411 402
3 413 351 350
3 413 350 412
3 413 403 395
3 413 395 404
3 413 412 403
3 414 351 413
3 414 404 405
3 414 413 404
3 415 414 405
3 415 351 414
3 416 405 406
3 416 415 405
3 417 406 407
3 417 416 406
3 418 407 408
3 419 408 409
3 419 418 408
3 420 416 417
3 420 351 415
3 420 415 416
3 421 418 352
3 421 407 418
3 421 351 420
3 421 352 351
3 421 420 417
3 421 417 407
3 422 352 418
3 422 418 419
3 423 419 409
3 423 409 353
3 424 422 419
3 424 419 423
3 425 352 422
3 425 422 424
3 426 423 353
3 426 427 423
3 426 428 427
3 429 353 352
3 429 424 423
3 429 352 425
3 429 423 427
3 429 426 353
3 429 425 424
3 429 427 428
3 429 428 426
3 445 432 433
3 462 433 434
3 462 434 435
3 462 435 436
3 462 446 445
3 462 445 433
3 463 447 446
3 463 446 462
3 464 448 447
3 464 447 463
3 465 436 437
3 465 437 438
3 465 462 436
3 466 449 448
3 466 448 464
3 467 462 465
3 467 463 462
3 467 465 438
3 468 450 449
3 468 451 450
3 468 452 451
3 468 449 466
3 469 463 467
3 469 464 463
3 470 464 469
3 470 466 464
3 471 453 452
3 471 454 453
3 471 466 470
3 471 470 454
3 471 452 468
3 471 468 466
3 472 457 456
3 472 473 457
3 474 472 456
3 474 455 454
3 474 456 455
3 474 454 472
3 475 457 476
3 477 458 457
3 477 459 458
3 477 457 475
3 478 480 479
3 478 476 480
3 481 478 430
3 481 475 476
3 481 476 478
3 481 430 461
3 482 459 477
3 482 477 475
3 482 475 481
3 482 460 459
3 482 461 460
3 482 481 461
3 483 438 439
3 483 439 484
3 485 473 472
3 485 470 469
3 485 484 486
3 485 454 470
3 485 438 483
3 485 486 473
3 485 472 454
3 485 483 484
3 485 467 438
3 485 469 467
3 487 486 484
3 487 484 439
3 488 439 440
3 488 487 439
3 488 457 473
3 488 473 486
3 488 486 487
3 488 476 457
3 489 490 480
3 489 476 488
3 489 491 490
3 489 480 476
3 492 480 490
3 492 440 441
3 492 479 480
3 492 490 491
3 492 491 440
3 493 442 494
3 493 492 441
3 493 441 442
3 493 494 479
3 493 479 492
3 495 494 442
3 496 479 494
3 496 494 495
3 497 431 430
3 497 430 478
3 497 479 496
3 497 496 495
3 497 478 479
3 498 488 440
3 498 440 491
3 498 489 488
3 498 491 489
3 499 442 443
3 499 495 442
3 499 497 495
3 500 443 444
3 500 444 431
3 500 497 499
3 500 431 497
3 500 499 443
3 514 501 502
3 514 513 501
3 515 502 503
3 515 514 502
3 516 515 503
3 517 503 504
3 517 516 503
3 518 504 505
3 518 505 506
3 518 517 504
3 519 506 507
3 519 507 508
3 519 518 506
3 520 508 509
3 520 519 508
3 521 509 510
3 521 520 509
3 512 510 511
3 512 521 510
3 523 522 524
3 532 524 525
3 532 525 526
3 532 523 524
3 533 526 527
3 533 532 526
3 534 527 528
3 534 533 527
3 535 528 529
3 535 534 528
3 536 535 529
3 537 529 530
3 537 536 529
3 531 537 530
3 538 540 541
3 539 540 538
3 558 549 548
3 557 563 556
3 564 544 543
3 565 543 542
3 565 564 543
3 566 542 550
3 566 565 542
3 567 545 544
3 567 544 564
3 567 564 565
3 568 550 551
3 568 566 550
3 569 565 566
3 569 567 565
3 570 546 545
3 570 547 546
3 570 545 567
3 571 551 552
3 571 568 551
3 572 569 566
3 572 566 568
3 573 567 569
3 573 570 567
3 574 552 553
3 574 568 571
3 574 571 552
3 574 572 568
3 575 569 572
3 575 573 569
3 576 548 547
3 576 559 558
3 576 547 570
3 576 570 573
3 576 558 548
3 577 572 574
3 577 575 572
3 578 560 559
3 578 561 560
3 578 559 576
3 578 573 575
3 578 576 573
3 579 553 554
3 579 554 555
3 579 574 553
3 579 577 574
3 580 562 561
3 580 561 578
3 580 575 577
3 580 578 575
3 581 555 556
3 581 563 562
3 581 562 580
3 581 556 563
3 581 579 555
3 581 577 579
3 581 580 577
3 583 584 582
3 583 585 584
3 586 588 589
3 587 588 586
3 598 599 600
3 598 600 608
3 597 608 607
3 597 598 608
3 596 607 606
3 596 597 607
3 595 606 605
3 595 596 606
3 594 605 604
3 594 595 605
3 593 603 602
3 593 604 603
3 593 594 604
3 592 602 601
3 592 593 602
3 591 601 590
3 591 592 601
3 609 618 625
3 610 625 624
3 610 609 625
3 611 624 623
3 611 610 624
3 612 623 622
3 612 611 623
3 613 622 621
3 613 612 622
3 614 621 620
3 614 613 621
3 615 614 620
3 616 620 619
3 616 615 620
3 617 616 619
3 643 627 626
3 642 628 627
3 642 627 643
3 641 629 628
3 641 628 642
3 640 630 629
3 640 629 641
3 639 631 630
3 639 632 631
3 639 630 640
3 638 633 632
3 638 632 639
3 637 634 633
3 637 633 638
3 636 635 634
3 636 634 637
3 658 647 646
3 648 647 658
3 659 648 658
3 649 648 659
3 660 649 659
3 665 661 662
3 665 662 663
3 665 663 664
3 673 651 650
3 673 652 651
3 674 673 650
3 674 652 673
3 675 674 650
3 676 650 649
3 676 649 660
3 676 675 650
3 677 660 661
3 677 676 660
3 678 661 665
3 678 677 661
3 679 678 665
3 680 665 666
3 680 666 667
3 680 667 679
3 680 679 665
3 681 669 670
3 681 670 671
3 681 671 682
3 683 667 668
3 683 679 667
3 683 678 679
3 683 677 678
3 684 683 668
3 685 668 669
3 685 684 668
3 686 687 688
3 686 688 689
3 690 687 686
3 690 691 687
3 690 692 691
3 693 681 682
3 693 692 690
3 693 685 669
3 693 694 692
3 693 695 694
3 693 669 681
3 693 682 695
3 696 687 691
3 696 688 687
3 696 697 688
3 698 699 696
3 700 698 696
3 700 691 692
3 700 696 691
3 700 692 694
3 700 694 695
3 701 671 672
3 701 700 695
3 701 682 671
3 701 695 682
3 702 644 645
3 702 672 644
3 702 701 672
3 703 653 652
3 703 676 677
3 703 652 674
3 703 677 683
3 703 674 675
3 703 675 676
3 704 653 703
3 704 703 683
3 704 683 684
3 705 704 684
3 706 684 685
3 706 705 684
3 707 685 693
3 707 706 685
3 708 709 710
3 711 709 708
3 712 713 709
3 712 709 711
3 714 689 713
3 714 686 689
3 714 713 712
3 715 690 686
3 715 693 690
3 715 707 693
3 715 686 714
3 716 697 717
3 718 717 697
3 719 697 696
3 719 718 697
3 719 696 699
3 720 699 698
3 720 698 700
3 721 720 700
3 721 700 701
3 722 721 701
3 722 701 702
3 722 702 645
3 723 704 705
3 723 705 706
3 723 653 704
3 724 654 653
3 724 723 706
3 724 706 707
3 724 653 723
3 725 710 654
3 726 710 725
3 727 708 710
3 727 710 726
3 728 708 727
3 728 711 708
3 728 712 711
3 729 724 707
3 729 712 728
3 729 654 724
3 729 714 712
3 729 707 715
3 729 715 714
3 730 654 710
3 730 710 709
3 731 717 718
3 732 655 718
3 732 718 719
3 733 720 734
3 733 699 720
3 733 719 699
3 733 734 735
3 736 734 720
3 736 735 734
3 737 720 721
3 737 721 722
3 737 736 720
3 738 737 722
3 738 722 645
3 738 645 657
3 739 729 728
3 739 727 726
3 739 654 729
3 739 728 727
3 739 725 654
3 739 726 725
3 740 731 718
3 740 718 655
3 741 655 732
3 741 732 719
3 741 719 733
3 742 656 655
3 742 733 735
3 742 743 744
3 742 736 743
3 742 735 736
3 742 741 733
3 742 655 741
3 745 656 742
3 745 744 743
3 745 742 744
3 745 743 736
3 745 736 737
3 746 656 745
3 746 737 738
3 746 745 737
3 747 717 731
3 747 716 717
3 748 657 656
3 748 738 657
3 748 656 746
3 748 746 738
3 749 654 730
3 749 730 709
3 750 740 655
3 751 752 716
3 751 716 753
3 754 753 716
3 754 755 753
3 754 716 747
3 756 754 747
3 757 747 731
3 757 731 758
3 759 757 758
3 759 758 731
3 760 654 749
3 761 756 747
3 762 760 749
3 762 752 751
3 763 762 751
3 763 753 755
3 763 751 753
3 763 760 762
3 764 754 756
3 764 756 761
3 764 760 763
3 764 763 755
3 764 755 754
3 764 654 760
3 765 713 689
3 765 709 713
3 765 697 716
3 765 716 752
3 765 688 697
3 765 689 688
3 765 752 762
3 765 749 709
3 765 762 749
3 766 747 757
3 766 761 747
3 766 764 761
3 767 655 654
3 767 759 731
3 767 766 757
3 767 654 764
3 767 764 766
3 767 731 740
3 767 757 759
3 767 740 750
3 767 750 655
3 768 771 770
3 768 772 771
3 768 773 772
3 768 774 773
3 768 775 774
3 768 776 775
3 768 777 776
3 769 778 777
3 769 779 778
3 769 777 768
3 786 787 788
3 786 788 795
3 785 795 794
3 785 786 795
3 784 794 793
3 784 785 794
3 783 793 792
3 783 784 793
3 782 792 791
3 782 783 792
3 781 791 790
3 781 782 791
3 780 790 789
3 780 781 790
3 842 840 841
3 886 797 796
3 886 796 804
3 887 798 797
3 887 797 886
3 888 799 798
3 888 798 887
3 889 800 799
3 889 799 888
3 890 801 800
3 890 800 889
3 891 802 801
3 891 803 802
3 891 801 890
3 891 849 803
3 892 886 804
3 892 804 805
3 893 887 886
3 893 886 892
3 894 887 893
3 894 888 887
3 895 889 888
3 895 888 894
3 896 889 895
3 896 890 889
3 897 890 896
3 897 850 849
3 897 891 890
3 897 851 850
3 897 849 891
3 898 805 806
3 898 806 807
3 898 892 805
3 899 893 892
3 899 892 898
3 900 894 893
3 900 893 899
3 901 895 894
3 901 894 900
3 902 895 901
3 902 896 895
3 903 851 897
3 903 896 902
3 903 897 896
3 904 807 808
3 904 898 807
3 905 900 899
3 905 899 898
3 905 898 904
3 906 900 905
3 907 901 900
3 907 900 906
3 908 901 907
3 908 903 902
3 908 902 901
3 909 851 903
3 909 903 908
3 909 852 851
3 909 853 852
3 910 904 808
3 911 904 910
3 911 905 904
3 912 907 906
3 912 906 905
3 912 905 911
3 913 907 912
3 914 907 913
3 914 908 907
3 915 909 908
3 915 908 914
3 915 853 909
3 916 808 809
3 916 910 808
3 917 911 910
3 917 910 916
3 918 911 917
3 918 912 911
3 919 913 912
3 919 912 918
3 920 914 913
3 920 913 919
3 921 915 914
3 921 853 915
3 921 854 853
3 921 914 920
3 922 917 916
3 922 809 810
3 922 916 809
3 923 917 922
3 923 918 917
3 924 918 923
3 925 920 919
3 925 919 918
3 925 918 924
3 926 920 925
3 927 855 854
3 927 854 921
3 927 921 920
3 927 920 926
3 928 810 811
3 928 922 810
3 929 922 928
3 929 923 922
3 930 923 929
3 930 924 923
3 931 924 930
3 931 925 924
3 932 925 931
3 932 926 925
3 933 927 926
3 933 926 932
3 933 856 855
3 933 855 927
3 934 811 812
3 934 812 813
3 934 928 811
3 935 929 928
3 935 928 934
3 936 930 929
3 936 929 935
3 936 931 930
3 937 931 936
3 938 932 931
3 938 931 937
3 939 932 938
3 939 856 933
3 939 857 856
3 939 933 932
3 940 934 813
3 941 935 934
3 941 936 935
3 941 934 940
3 942 937 936
3 942 936 941
3 943 937 942
3 944 937 943
3 944 939 938
3 944 938 937
3 945 939 944
3 945 857 939
3 945 858 857
3 946 813 814
3 946 941 940
3 946 940 813
3 947 941 946
3 947 942 941
3 948 943 942
3 948 942 947
3 949 943 948
3 950 945 944
3 950 944 943
3 950 943 949
3 951 945 950
3 951 858 945
3 951 859 858
3 952 814 815
3 952 815 816
3 952 946 814
3 953 946 952
3 953 947 946
3 954 947 953
3 954 948 947
3 955 948 954
3 955 949 948
3 956 950 949
3 956 949 955
3 957 951 950
3 957 860 859
3 957 859 951
3 957 950 956
3 958 952 816
3 959 952 958
3 959 953 952
3 959 954 953
3 960 955 954
3 960 954 959
3 961 955 960
3 962 956 955
3 962 957 956
3 962 955 961
3 963 957 962
3 963 861 860
3 963 860 957
3 964 816 817
3 964 958 816
3 965 958 964
3 965 960 959
3 965 959 958
3 966 961 960
3 966 960 965
3 967 962 961
3 967 961 966
3 968 962 967
3 969 861 963
3 969 962 968
3 969 862 861
3 969 963 962
3 970 817 818
3 970 818 819
3 970 964 817
3 971 965 964
3 971 964 970
3 972 965 971
3 972 966 965
3 973 967 966
3 973 966 972
3 974 968 967
3 974 967 973
3 975 968 974
3 975 969 968
3 975 862 969
3 975 863 862
3 975 864 863
3 976 970 819
3 977 971 970
3 977 972 971
3 977 970 976
3 978 973 972
3 978 972 977
3 979 973 978
3 980 975 974
3 980 973 979
3 980 974 973
3 981 975 980
3 981 864 975
3 981 865 864
3 982 819 820
3 982 976 819
3 983 976 982
3 983 977 976
3 984 978 977
3 984 977 983
3 985 979 978
3 985 978 984
3 986 980 979
3 986 979 985
3 987 980 986
3 987 981 980
3 987 865 981
3 988 820 821
3 988 821 822
3 988 982 820
3 989 982 988
3 989 983 982
3 989 984 983
3 990 985 984
3 990 984 989
3 991 986 985
3 991 985 990
3 992 986 991
3 993 866 865
3 993 865 987
3 993 987 986
3 993 986 992
3 994 988 822
3 994 989 988
3 995 990 989
3 995 989 994
3 996 990 995
3 997 991 990
3 997 992 991
3 997 990 996
3 998 992 997
3 999 992 998
3 999 867 866
3 999 868 867
3 999 866 993
3 999 993 992
3 1000 995 994
3 1000 822 823
3 1000 994 822
3 1001 995 1000
3 1002 995 1001
3 1002 996 995
3 1003 998 997
3 1003 997 996
3 1003 996 1002
3 1004 998 1003
3 1005 999 998
3 1005 868 999
3 1005 998 1004
3 1006 1000 823
3 1006 823 824
3 1007 1001 1000
3 1007 1000 1006
3 1008 1001 1007
3 1008 1002 1001
3 1009 1003 1002
3 1009 1002 1008
3 1010 1003 1009
3 1010 1004 1003
3 1010 1005 1004
3 1011 868 1005
3 1011 1005 1010
3 1011 869 868
3 1011 870 869
3 1012 824 825
3 1012 1006 824
3 1012 1007 1006
3 1013 1008 1007
3 1013 1007 1012
3 1014 1008 1013
3 1015 1009 1008
3 1015 1010 1009
3 1015 1008 1014
3 1016 1010 1015
3 1017 1011 1010
3 1017 870 1011
3 1017 1010 1016
3 1018 825 826
3 1018 1012 825
3 1019 1013 1012
3 1019 1012 1018
3 1020 1014 1013
3 1020 1013 1019
3 1021 1015 1014
3 1021 1014 1020
3 1022 1016 1015
3 1022 1015 1021
3 1023 870 1017
3 1023 1017 1016
3 1023 871 870
3 1023 1016 1022
3 1024 826 827
3 1024 827 828
3 1024 1018 826
3 1024 1019 1018
3 1025 1019 1024
3 1026 1020 1019
3 1026 1019 1025
3 1027 1021 1020
3 1027 1020 1026
3 1027 1022 1021
3 1028 1023 1022
3 1028 1022 1027
3 1029 872 871
3 1029 873 872
3 1029 871 1023
3 1029 1023 1028
3 1030 1024 828
3 1031 1024 1030
3 1031 1025 1024
3 1032 1025 1031
3 1032 1026 1025
3 1033 1026 1032
3 1033 1027 1026
3 1034 1028 1027
3 1034 1027 1033
3 1035 873 1029
3 1035 1029 1028
3 1035 1028 1034
3 1036 828 829
3 1036 829 830
3 1036 1030 828
3 1037 1032 1031
3 1037 1031 1030
3 1037 1030 1036
3 1038 1032 1037
3 1039 1032 1038
3 1039 1033 1032
3 1040 1034 1033
3 1040 1033 1039
3 1041 873 1035
3 1041 1035 1034
3 1041 1034 1040
3 1041 874 873
3 1041 875 874
3 1042 830 831
3 1042 1036 830
3 1043 1038 1037
3 1043 1037 1036
3 1043 1036 1042
3 1044 1038 1043
3 1045 1038 1044
3 1045 1039 1038
3 1046 1040 1039
3 1046 1039 1045
3 1046 1041 1040
3 1047 875 1041
3 1047 1041 1046
3 1048 1042 831
3 1049 1043 1042
3 1049 1042 1048
3 1050 1043 1049
3 1050 1044 1043
3 1051 1044 1050
3 1051 1045 1044
3 1052 1046 1045
3 1052 1045 1051
3 1053 875 1047
3 1053 1047 1046
3 1053 1046 1052
3 1053 876 875
3 1053 877 876
3 1054 831 832
3 1054 832 833
3 1054 1048 831
3 1055 1049 1048
3 1055 1048 1054
3 1056 1050 1049
3 1056 1049 1055
3 1057 1051 1050
3 1057 1050 1056
3 1058 1052 1051
3 1058 1051 1057
3 1059 1053 1052
3 1059 877 1053
3 1059 1052 1058
3 1060 833 834
3 1060 1054 833
3 1061 1054 1060
3 1061 1055 1054
3 1062 1056 1055
3 1062 1055 1061
3 1063 1057 1056
3 1063 1056 1062
3 1064 1057 1063
3 1064 1058 1057
3 1065 1058 1064
3 1065 878 877
3 1065 879 878
3 1065 877 1059
3 1065 1059 1058
3 1066 1060 834
3 1067 1062 1061
3 1067 1061 1060
3 1067 1060 1066
3 1068 1062 1067
3 1069 1064 1063
3 1069 1063 1062
3 1069 1062 1068
3 1070 1064 1069
3 1071 879 1065
3 1071 1065 1064
3 1071 1064 1070
3 1072 1066 834
3 1072 834 835
3 1072 835 836
3 1073 1066 1072
3 1073 1067 1066
3 1074 1068 1067
3 1074 1067 1073
3 1075 1069 1068
3 1075 1068 1074
3 1076 1070 1069
3 1076 1069 1075
3 1077 879 1071
3 1077 1070 1076
3 1077 1071 1070
3 1077 880 879
3 1078 1073 1072
3 1078 1072 836
3 1079 1074 1073
3 1079 1073 1078
3 1080 1074 1079
3 1081 1075 1074
3 1081 1076 1075
3 1081 1074 1080
3 1082 1076 1081
3 1083 1076 1082
3 1083 1077 1076
3 1083 880 1077
3 1083 881 880
3 1083 882 881
3 1084 1078 836
3 1084 836 837
3 1084 837 838
3 1085 1079 1078
3 1085 1078 1084
3 1086 1080 1079
3 1086 1079 1085
3 1087 1080 1086
3 1087 1081 1080
3 1088 1082 1081
3 1088 1081 1087
3 1089 1083 1082
3 1089 882 1083
3 1089 1082 1088
3 1090 1084 838
3 1091 1085 1084
3 1091 1084 1090
3 1092 1085 1091
3 1092 1086 1085
3 1093 1087 1086
3 1093 1086 1092
3 1094 1088 1087
3 1094 1087 1093
3 1095 882 1089
3 1095 1089 1088
3 1095 883 882
3 1095 1088 1094
3 1096 838 839
3 1096 1090 838
3 1097 1090 1096
3 1097 1091 1090
3 1098 1091 1097
3 1098 1092 1091
3 1098 1093 1092
3 1099 1093 1098
3 1100 1093 1099
3 1100 1094 1093
3 1101 1094 1100
3 1101 884 883
3 1101 885 884
3 1101 883 1095
3 1101 1095 1094
3 1102 839 840
3 1102 840 842
3 1102 1096 839
3 1103 1097 1096
3 1103 1096 1102
3 1103 842 843
3 1103 1102 842
3 1104 1103 843
3 1104 1098 1097
3 1104 1097 1103
3 1104 843 844
3 1105 1099 1098
3 1105 1098 1104
3 1105 1104 844
3 1105 844 845
3 1106 1100 1099
3 1106 1101 1100
3 1106 1099 1105
3 1106 1105 845
3 1106 845 846
3 1107 885 1101
3 1107 1101 1106
3 1107 1106 846
3 1107 846 847
3 1107 847 848
3 1107 848 885
3 1118 1111 1110
3 1118 1112 1111
3 1113 1112 1118
3 1108 1109 1129
3 1130 1114 1113
3 1130 1115 1114
3 1130 1113 1118
3 1131 1118 1119
3 1131 1130 1118
3 1132 1119 1120
3 1132 1131 1119
3 1133 1120 1121
3 1133 1132 1120
3 1134 1121 1122
3 1134 1133 1121
3 1135 1122 1123
3 1135 1123 1124
3 1135 1124 1125
3 1135 1134 1122
3 1136 1125 1126
3 1136 1133 1134
3 1136 1134 1135
3 1136 1135 1125
3 1137 1126 1127
3 1137 1136 1126
3 1138 1137 1127
3 1139 1127 1128
3 1139 1138 1127
3 1140 1128 1129
3 1140 1139 1128
3 1140 1129 1109
3 1141 1116 1115
3 1141 1133 1136
3 1141 1115 1130
3 1141 1132 1133
3 1141 1131 1132
3 1141 1130 1131
3 1142 1116 1141
3 1142 1141 1136
3 1143 1116 1142
3 1143 1136 1137
3 1143 1142 1136
3 1144 1117 1116
3 1144 1116 1143
3 1144 1137 1138
3 1144 1143 1137
3 1145 1144 1138
3 1146 1138 1139
3 1146 1145 1138
3 1147 1140 1109
3 1147 1139 1140
3 1147 1146 1139
3 1148 1117 1144
3 1148 1144 1145
3 1149 1145 1146
3 1149 1148 1145
3 1149 1117 1148
3 1150 1109 1117
3 1150 1149 1146
3 1150 1147 1109
3 1150 1146 1147
3 1150 1117 1149
3 1168 1152 1151
3 1168 1151 1159
3 1167 1159 1158
3 1167 1168 1159
3 1166 1158 1157
3 1166 1167 1158
3 1165 1157 1156
3 1165 1166 1157
3 1164 1165 1156
3 1163 1156 1155
3 1163 1164 1156
3 1162 1155 1154
3 1162 1163 1155
3 1161 1154 1153
3 1161 1162 1154
3 1160 1161 1153
3 1180 1170 1169
3 1181 1171 1170
3 1181 1170 1180
3 1182 1172 1171
3 1182 1171 1181
3 1183 1173 1172
3 1183 1172 1182
3 1184 1173 1183
3 1185 1174 1173
3 1185 1173 1184
3 1186 1175 1174
3 1186 1174 1185
3 1187 1175 1186
3 1188 1176 1175
3 1188 1175 1187
3 1189 1177 1176
3 1189 1176 1188
3 1190 1178 1177
3 1190 1177 1189
3 1179 1178 1190
3 1196 1195 1194
3 1197 1196 1194
3 1192 1197 1194
3 1193 1192 1194
3 1191 1192 1193
3 1206 1207 1215
3 1205 1215 1214
3 1205 1206 1215
3 1204 1214 1213
3 1204 1205 1214
3 1203 1213 1212
3 1203 1204 1213
3 1202 1211 1210
3 1202 1212 1211
3 1202 1203 1212
3 1201 1210 1209
3 1201 1202 1210
3 1200 1209 1208
3 1200 1201 1209
3 1199 1208 1198
3 1199 1200 1208
3 1216 1218 1217
3 1257 1218 1216
3 1258 1219 1218
3 1258 1220 1219
3 1258 1218 1257
3 1259 1220 1258
3 1260 1221 1220
3 1260 1220 1259
3 1261 1221 1260
3 1261 1222 1221
3 1262 1223 1222
3 1262 1222 1261
3 1263 1224 1223
3 1263 1223 1262
3 1264 1225 1224
3 1264 1224 1263
3 1265 1225 1264
3 1265 1226 1225
3 1266 1227 1226
3 1266 1228 1227
3 1266 1226 1265
3 1267 1229 1228
3 1267 1228 1266
3 1268 1230 1229
3 1268 1229 1267
3 1269 1230 1268
3 1270 1231 1230
3 1270 1232 1231
3 1270 1230 1269
3 1271 1232 1270
3 1272 1233 1232
3 1272 1232 1271
3 1273 1234 1233
3 1273 1233 1272
3 1274 1235 1234
3 1274 1236 1235
3 1274 1234 1273
3 1275 1236 1274
3 1276 1237 1236
3 1276 1236 1275
3 1277 1238 1237
3 1277 1237 1276
3 1278 1239 1238
3 1278 1238 1277
3 1279 1240 1239
3 1279 1239 1278
3 1280 1241 1240
3 1280 1240 1279
3 1281 1242 1241
3 1281 1241 1280
3 1282 1243 1242
3 1282 1242 1281
3 1283 1244 1243
3 1283 1243 1282
3 1284 1245 1244
3 1284 1244 1283
3 1285 1246 1245
3 1285 1245 1284
3 1286 1247 1246
3 1286 1246 1285
3 1287 1247 1286
3 1287 1248 1247
3 1288 1248 1287
3 1288 1249 1248
3 1289 1249 1288
3 1289 1250 1249
3 1290 1250 1289
3 1290 1251 1250
3 1291 1251 1290
3 1291 1252 1251
3 1292 1252 1291
3 1292 1253 1252
3 1293 1253 1292
3 1293 1254 1253
3 1256 1254 1293
3 1256 1255 1254
3 1316 1317 1318
3 1316 1318 1319
3 1321 1319 1320
3 1321 1316 1319
3 1313 1314 1315
3 1313 1315 1316
3 1323 1321 1322
3 1324 1316 1321
3 1324 1321 1323
3 1311 1312 1313
3 1326 1324 1325
3 1309 1310 1311
3 1309 1311 1313
3 1327 1316 1324
3 1327 1324 1326
3 1306 1307 1308
3 1330 1327 1328
3 1330 1328 1329
3 1305 1308 1309
3 1305 1309 1313
3 1305 1306 1308
3 1303 1304 1305
3 1295 1331 1294
3 1302 1313 1316
3 1302 1305 1313
3 1302 1303 1305
3 1296 1330 1331
3 1296 1327 1330
3 1296 1331 1295
3 1300 1301 1302
3 1298 1296 1297
3 1299 1302 1316
3 1299 1327 1296
3 1299 1296 1298
3 1299 1316 1327
3 1299 1300 1302
