ply
format ascii 1.0
comment generated by blendit.inference.finetune_visualize
element vertex 1331
property float x
property float y
property float z
property uchar red
property uchar green
property uchar blue
element face 1564
property list uchar int vertex_indices
end_header
0 53.3463359 15.3438702 218 222 230
0 53.3463359 3.25552893 218 222 230
0 53.3463359 15.8493768 218 222 230
0 66.0675042 15.8493768 218 222 230
0 66.0675042 66.8949277 218 222 230
0 0 66.8949277 218 222 230
0 0 0.505506545 218 222 230
0 66.5730107 0.505506545 218 222 230
0 66.5730107 2.75002239 218 222 230
0 53.8518424 2.75002239 218 222 230
0 53.35901 3.14304314 218 222 230
0 53.3963968 3.03619786 218 222 230
0 53.4566215 2.94035075 218 222 230
0 53.5366643 2.860308 218 222 230
0 53.6325114 2.80008327 218 222 230
0 53.7393566 2.76269649 218 222 230
82.1942348 53.3463359 15.3438702 218 222 230
82.1942348 53.3463359 3.25552893 218 222 230
0.505506545 53.3463359 15.3438702 218 222 230
0 53.3463359 15.8493768 218 222 230
0.0126741045 53.3463359 15.736891 218 222 230
0.0500608854 53.3463359 15.6300457 218 222 230
0.110285614 53.3463359 15.5341986 218 222 230
0.190328369 53.3463359 15.4541558 218 222 230
0.286175475 53.3463359 15.3939311 218 222 230
0.393020757 53.3463359 15.3565443 218 222 230
0 53.3463359 15.3438702 218 222 230
0 53.3463359 3.25552893 218 222 230
82.1942348 53.3463359 3.25552893 255 79 163
0 53.3463359 3.25552893 255 79 163
0 53.35901 3.14304314 255 79 163
0 53.3963968 3.03619786 255 79 163
0 53.4566215 2.94035075 255 79 163
0 53.5366643 2.860308 255 79 163
0 53.6325114 2.80008327 255 79 163
0 53.7393566 2.76269649 255 79 163
0 53.8518424 2.75002239 255 79 163
82.1942348 53.8518424 2.75002239 255 79 163
82.1942348 53.35901 3.14304314 255 79 163
82.1942348 53.3963968 3.03619786 255 79 163
82.1942348 53.4566215 2.94035075 255 79 163
82.1942348 53.5366643 2.860308 255 79 163
82.1942348 53.6325114 2.80008327 255 79 163
82.1942348 53.7393566 2.76269649 255 79 163
82.1942348 53.8518424 2.75002239 218 222 230
82.1942348 84.3158349 2.75002239 218 222 230
0 53.8518424 2.75002239 218 222 230
0 66.5730107 2.75002239 218 222 230
62.7421962 66.5730107 2.75002239 218 222 230
62.7421962 84.3158349 2.75002239 218 222 230
62.7421962 84.8213414 2.75002239 218 222 230
62.7548703 84.7088556 2.75002239 218 222 230
62.7922571 84.6020104 2.75002239 218 222 230
62.8524818 84.5061633 2.75002239 218 222 230
62.9325246 84.4261205 2.75002239 218 222 230
63.0283717 84.3658958 2.75002239 218 222 230
63.135217 84.328509 2.75002239 218 222 230
63.2477027 84.3158349 2.75002239 218 222 230
0 66.0675042 15.8493768 255 79 163
0.0172247178 66.1983389 15.7185421 255 79 163
0.0677250353 66.3202575 15.5966235 255 79 163
0.148059439 66.4249513 15.4919297 255 79 163
0.241380101 66.4985194 15.4183616 255 79 163
0.327937374 66.540797 15.376084 255 79 163
0.411447134 66.5641828 15.3526981 255 79 163
0.45827016 66.5707989 15.346082 255 79 163
0.505506545 66.5730107 15.3438702 255 79 163
0.505506545 53.3463359 15.3438702 255 79 163
0 53.3463359 15.8493768 255 79 163
0.0126741045 53.3463359 15.736891 255 79 163
0.0500608854 53.3463359 15.6300457 255 79 163
0.110285614 53.3463359 15.5341986 255 79 163
0.190328369 53.3463359 15.4541558 255 79 163
0.286175475 53.3463359 15.3939311 255 79 163
0.393020757 53.3463359 15.3565443 255 79 163
62.7421962 66.5730107 2.75002239 218 222 230
62.7421962 66.5730107 0.505506545 218 222 230
0 66.5730107 0.505506545 218 222 230
0 66.5730107 2.75002239 218 222 230
0 66.0675042 15.8493768 255 79 163
0 66.0675042 66.8949277 255 79 163
0.0172247178 66.1983389 67.0257624 255 79 163
0.0677250353 66.3202575 67.1476809 255 79 163
0.148059439 66.4249513 67.2523748 255 79 163
0.241380101 66.4985194 67.3259428 255 79 163
0.327937374 66.540797 67.3682204 255 79 163
0.411447134 66.5641828 67.3916063 255 79 163
0.45827016 66.5707989 67.3982224 255 79 163
0.505506545 66.5730107 67.4004342 255 79 163
0.505506545 66.5730107 15.3438702 255 79 163
0.0172247178 66.1983389 15.7185421 255 79 163
0.0677250353 66.3202575 15.5966235 255 79 163
0.148059439 66.4249513 15.4919297 255 79 163
0.241380101 66.4985194 15.4183616 255 79 163
0.327937374 66.540797 15.376084 255 79 163
0.411447134 66.5641828 15.3526981 255 79 163
0.45827016 66.5707989 15.346082 255 79 163
0 0 0.505506545 255 79 163
0 66.5730107 0.505506545 255 79 163
0.00743885472 66.5655719 0.41910375 255 79 163
0.0295364838 66.5434742 0.335243901 255 79 163
0.0656425255 66.5073682 0.256395101 255 79 163
0.114694332 66.4583164 0.184877972 255 79 163
0.175248247 66.3977625 0.122797356 255 79 163
0.245522089 66.3274886 0.0719803642 255 79 163
0.350731976 66.2222788 0.0242771821 255 79 163
0.427173045 66.1458377 0.00610617474 255 79 163
0.505506545 66.0675042 0 255 79 163
0.505506545 0.505506545 0 255 79 163
0.00743885472 0.00743885472 0.41910375 255 79 163
0.0295364838 0.0295364838 0.335243901 255 79 163
0.0656425255 0.0656425255 0.256395101 255 79 163
0.114694332 0.114694332 0.184877972 255 79 163
0.175248247 0.175248247 0.122797356 255 79 163
0.245522089 0.245522089 0.0719803642 255 79 163
0.350731976 0.350731976 0.0242771821 255 79 163
0.427173045 0.427173045 0.00610617474 255 79 163
0 0 66.8949277 255 79 163
0.00743885472 0.00743885472 66.9813304 255 79 163
0.0295364838 0.0295364838 67.0651903 255 79 163
0.0656425255 0.0656425255 67.1440391 255 79 163
0.114694332 0.114694332 67.2155562 255 79 163
0.175248247 0.175248247 67.2776368 255 79 163
0.245522089 0.245522089 67.3284538 255 79 163
0.350731976 0.350731976 67.376157 255 79 163
0.427173045 0.427173045 67.394328 255 79 163
0.505506545 0.505506545 67.4004342 255 79 163
0.505506545 66.5730107 67.4004342 255 79 163
0 66.0675042 66.8949277 255 79 163
0.0172247178 66.1983389 67.0257624 255 79 163
0.0677250353 66.3202575 67.1476809 255 79 163
0.148059439 66.4249513 67.2523748 255 79 163
0.241380101 66.4985194 67.3259428 255 79 163
0.327937374 66.540797 67.3682204 255 79 163
0.411447134 66.5641828 67.3916063 255 79 163
0.45827016 66.5707989 67.3982224 255 79 163
82.1942348 0 0.505506545 218 222 230
82.1942348 0 6.83688994 218 222 230
0 0 0.505506545 218 222 230
0 0 66.8949277 218 222 230
77.118935 0 66.8949277 218 222 230
77.118935 4.4408921e-15 7.84790303 218 222 230
78.1139347 0 6.83688994 218 222 230
77.919964 8.56094629e-17 6.86167438 218 222 230
77.7364588 2.43684101e-16 6.92961889 218 222 230
77.5693298 4.06039661e-16 7.03163177 218 222 230
77.4221304 5.60911853e-16 7.16077334 218 222 230
77.2981109 7.16178397e-16 7.31231969 218 222 230
77.2016786 8.79044063e-16 7.48273521 218 222 230
77.1409045 1.02989357e-15 7.66096881 218 222 230
82.1942348 0 0.505506545 218 222 230
82.1942348 0 6.83688994 218 222 230
82.1942348 0.505506545 0 218 222 230
82.1942348 0.393020757 0.0126741045 218 222 230
82.1942348 0.286175475 0.0500608854 218 222 230
82.1942348 0.190328369 0.110285614 218 222 230
82.1942348 0.110285614 0.190328369 218 222 230
82.1942348 0.0500608854 0.286175475 218 222 230
82.1942348 0.0126741045 0.393020757 218 222 230
82.1942348 88.1994291 0 218 222 230
82.1942348 88.1994291 67.4004342 218 222 230
82.1942348 7.11606135 67.4004342 218 222 230
82.1942348 7.11606135 7.84790303 218 222 230
82.1942348 7.10613019 7.75687408 218 222 230
82.1942348 7.07717496 7.66842737 218 222 230
82.1942348 7.03155019 7.58476271 218 222 230
82.1942348 6.95080112 7.48321059 218 222 230
82.1942348 6.80557012 7.35457511 218 222 230
82.1942348 6.36082818 7.09160548 218 222 230
82.1942348 5.88352062 6.9052613 218 222 230
82.1942348 5.64091728 6.8539723 218 222 230
82.1942348 5.4015615 6.83688994 218 222 230
82.1942348 53.8518424 2.75002239 218 222 230
82.1942348 84.3158349 2.75002239 218 222 230
82.1942348 53.3463359 3.25552893 218 222 230
82.1942348 53.35901 3.14304314 218 222 230
82.1942348 53.3963968 3.03619786 218 222 230
82.1942348 53.4566215 2.94035075 218 222 230
82.1942348 53.5366643 2.860308 218 222 230
82.1942348 53.6325114 2.80008327 218 222 230
82.1942348 53.7393566 2.76269649 218 222 230
82.1942348 53.3463359 15.3438702 218 222 230
82.1942348 84.3158349 15.3438702 218 222 230
82.1942348 53.3463359 15.3438702 218 222 230
0.505506545 53.3463359 15.3438702 218 222 230
82.1942348 84.3158349 15.3438702 218 222 230
63.2477027 84.3158349 15.3438702 218 222 230
62.7421962 84.8213414 15.3438702 218 222 230
62.7548703 84.7088556 15.3438702 218 222 230
62.7922571 84.6020104 15.3438702 218 222 230
62.8524818 84.5061633 15.3438702 218 222 230
62.9325246 84.4261205 15.3438702 218 222 230
63.0283717 84.3658958 15.3438702 218 222 230
63.135217 84.328509 15.3438702 218 222 230
62.7421962 84.3158349 15.3438702 218 222 230
62.7421962 67.0785173 15.3438702 218 222 230
62.2366897 66.5730107 15.3438702 218 222 230
62.3491754 66.5856848 15.3438702 218 222 230
62.4560207 66.6230716 15.3438702 218 222 230
62.5518678 66.6832963 15.3438702 218 222 230
62.6319106 66.7633391 15.3438702 218 222 230
62.6921353 66.8591862 15.3438702 218 222 230
62.7295221 66.9660315 15.3438702 218 222 230
0.505506545 66.5730107 15.3438702 218 222 230
82.1942348 84.3158349 15.3438702 218 222 230
63.2477027 84.3158349 15.3438702 218 222 230
82.1942348 84.3158349 2.75002239 218 222 230
63.2477027 84.3158349 2.75002239 218 222 230
62.7421962 84.8213414 2.75002239 218 222 230
62.7548703 84.7088556 2.75002239 218 222 230
62.7922571 84.6020104 2.75002239 218 222 230
62.8524818 84.5061633 2.75002239 218 222 230
62.9325246 84.4261205 2.75002239 218 222 230
63.0283717 84.3658958 2.75002239 218 222 230
63.135217 84.328509 2.75002239 218 222 230
63.2477027 84.3158349 2.75002239 218 222 230
63.2477027 84.3158349 15.3438702 218 222 230
62.7421962 84.8213414 15.3438702 218 222 230
62.7548703 84.7088556 15.3438702 218 222 230
62.7922571 84.6020104 15.3438702 218 222 230
62.8524818 84.5061633 15.3438702 218 222 230
62.9325246 84.4261205 15.3438702 218 222 230
63.0283717 84.3658958 15.3438702 218 222 230
63.135217 84.328509 15.3438702 218 222 230
62.7421962 88.1994291 66.8949277 218 222 230
62.7421962 88.1994291 0.505506545 218 222 230
62.7421962 67.0785173 66.8949277 218 222 230
62.7421962 67.0785173 15.3438702 218 222 230
62.7421962 84.3158349 15.3438702 218 222 230
62.7421962 84.8213414 15.3438702 218 222 230
62.7421962 84.8213414 2.75002239 218 222 230
62.7421962 84.3158349 2.75002239 218 222 230
62.7421962 66.5730107 2.75002239 218 222 230
62.7421962 66.5730107 0.505506545 218 222 230
63.2477027 66.0675042 0 255 79 163
63.116868 66.1983389 0.0172247178 255 79 163
62.9949495 66.3202575 0.0677250353 255 79 163
62.8902556 66.4249513 0.148059439 255 79 163
62.8166876 66.4985194 0.241380101 255 79 163
62.77441 66.540797 0.327937374 255 79 163
62.7510241 66.5641828 0.411447134 255 79 163
62.744408 66.5707989 0.45827016 255 79 163
62.7421962 66.5730107 0.505506545 255 79 163
0.505506545 66.0675042 0 255 79 163
0 66.5730107 0.505506545 255 79 163
0.00743885472 66.5655719 0.41910375 255 79 163
0.0295364838 66.5434742 0.335243901 255 79 163
0.0656425255 66.5073682 0.256395101 255 79 163
0.114694332 66.4583164 0.184877972 255 79 163
0.175248247 66.3977625 0.122797356 255 79 163
0.245522089 66.3274886 0.0719803642 255 79 163
0.350731976 66.2222788 0.0242771821 255 79 163
0.427173045 66.1458377 0.00610617474 255 79 163
0.505506545 66.5730107 67.4004342 218 222 230
62.2366897 66.5730107 67.4004342 218 222 230
62.2366897 66.5730107 15.3438702 218 222 230
0.505506545 66.5730107 15.3438702 218 222 230
0.505506545 0.505506545 0 255 79 163
82.1942348 0.505506545 0 255 79 163
82.1942348 0.393020757 0.0126741045 255 79 163
82.1942348 0.286175475 0.0500608854 255 79 163
82.1942348 0.190328369 0.110285614 255 79 163
82.1942348 0.110285614 0.190328369 255 79 163
82.1942348 0.0500608854 0.286175475 255 79 163
82.1942348 0.0126741045 0.393020757 255 79 163
82.1942348 0 0.505506545 255 79 163
0 0 0.505506545 255 79 163
0.00743885472 0.00743885472 0.41910375 255 79 163
0.0295364838 0.0295364838 0.335243901 255 79 163
0.0656425255 0.0656425255 0.256395101 255 79 163
0.114694332 0.114694332 0.184877972 255 79 163
0.175248247 0.175248247 0.122797356 255 79 163
0.245522089 0.245522089 0.0719803642 255 79 163
0.350731976 0.350731976 0.0242771821 255 79 163
0.427173045 0.427173045 0.00610617474 255 79 163
82.1942348 0.505506545 0 218 222 230
82.1942348 88.1994291 0 218 222 230
63.2477027 88.1994291 0 218 222 230
63.2477027 66.0675042 0 218 222 230
0.505506545 66.0675042 0 218 222 230
0.505506545 0.505506545 0 218 222 230
74.1485818 43.4106561 0 218 222 230
73.2779269 43.5163727 0 218 222 230
72.4578714 43.8273788 0 218 222 230
71.7360738 44.3255997 0 218 222 230
71.1544824 44.9820807 0 218 222 230
70.7468972 45.7586694 0 218 222 230
70.5370055 46.6102335 0 218 222 230
70.5370055 47.487283 0 218 222 230
70.7468972 48.3388471 0 218 222 230
71.1544824 49.1154358 0 218 222 230
71.7360738 49.7719168 0 218 222 230
72.4578714 50.2701377 0 218 222 230
73.2779269 50.5811438 0 218 222 230
74.1485818 50.6868604 0 218 222 230
75.1485818 50.6868604 0 218 222 230
76.0192366 50.5811438 0 218 222 230
76.8392921 50.2701377 0 218 222 230
77.5610897 49.7719168 0 218 222 230
78.1426812 49.1154358 0 218 222 230
78.5502664 48.3388471 0 218 222 230
78.7601581 47.487283 0 218 222 230
78.7601581 46.6102335 0 218 222 230
78.5502664 45.7586694 0 218 222 230
78.1426812 44.9820807 0 218 222 230
77.5610897 44.3255997 0 218 222 230
76.8392921 43.8273788 0 218 222 230
76.0192366 43.5163727 0 218 222 230
75.1485818 43.4106561 0 218 222 230
0 0 66.8949277 255 79 163
0.00743885472 0.00743885472 66.9813304 255 79 163
0.0295364838 0.0295364838 67.0651903 255 79 163
0.0656425255 0.0656425255 67.1440391 255 79 163
0.114694332 0.114694332 67.2155562 255 79 163
0.175248247 0.175248247 67.2776368 255 79 163
0.245522089 0.245522089 67.3284538 255 79 163
0.350731976 0.350731976 67.376157 255 79 163
0.427173045 0.427173045 67.394328 255 79 163
0.505506545 0.505506545 67.4004342 255 79 163
77.118935 0 66.8949277 255 79 163
77.4880243 0.505506545 67.4004342 255 79 163
77.3924969 0.374671824 67.3832095 255 79 163
77.3034796 0.252753273 67.3327092 255 79 163
77.2270387 0.148059439 67.2523748 255 79 163
77.1733239 0.0744913614 67.1590541 255 79 163
77.139784 0.0285549708 67.0624211 255 79 163
77.1241846 0.00718987387 66.9798827 255 79 163
0.505506545 66.5730107 67.4004342 218 222 230
62.2366897 66.5730107 67.4004342 218 222 230
0.505506545 0.505506545 67.4004342 218 222 230
77.4880243 0.505506545 67.4004342 218 222 230
82.0969926 6.81797224 67.4004342 218 222 230
82.1502089 6.9097304 67.4004342 218 222 230
82.1831058 7.01057351 67.4004342 218 222 230
82.1942348 7.11606135 67.4004342 218 222 230
82.1942348 88.1994291 67.4004342 218 222 230
63.2477027 88.1994291 67.4004342 218 222 230
63.2477027 67.0785173 67.4004342 218 222 230
63.2414814 67.0295387 67.4004342 218 222 230
63.2245157 66.9832405 67.4004342 218 222 230
63.1995338 66.9405988 67.4004342 218 222 230
63.1577315 66.8896194 67.4004342 218 222 230
63.0837914 66.8241116 67.4004342 218 222 230
62.9584957 66.7447787 67.4004342 218 222 230
62.7539572 66.6577547 67.4004342 218 222 230
62.5112574 66.5968871 67.4004342 218 222 230
62.3744549 66.5791271 67.4004342 218 222 230
71.9299616 82.4156591 67.4004342 218 222 230
71.0293677 82.3063072 67.4004342 218 222 230
70.181113 81.9846066 67.4004342 218 222 230
69.4344951 81.4692535 67.4004342 218 222 230
68.8329046 80.7901982 67.4004342 218 222 230
68.4113038 79.986905 67.4004342 218 222 230
68.1941946 79.1060583 67.4004342 218 222 230
68.1941946 78.1988498 67.4004342 218 222 230
68.4113038 77.3180031 67.4004342 218 222 230
68.8329046 76.5147099 67.4004342 218 222 230
69.4344951 75.8356546 67.4004342 218 222 230
70.181113 75.3203015 67.4004342 218 222 230
71.0293677 74.9986009 67.4004342 218 222 230
71.9299616 74.889249 67.4004342 218 222 230
72.9299616 82.4156591 67.4004342 218 222 230
72.9299616 74.889249 67.4004342 218 222 230
73.8305556 74.9986009 67.4004342 218 222 230
74.6788102 75.3203015 67.4004342 218 222 230
75.4254282 75.8356546 67.4004342 218 222 230
76.0270187 76.5147099 67.4004342 218 222 230
76.4486195 77.3180031 67.4004342 218 222 230
76.6657287 78.1988498 67.4004342 218 222 230
76.6657287 79.1060583 67.4004342 218 222 230
76.4486195 79.986905 67.4004342 218 222 230
76.0270187 80.7901982 67.4004342 218 222 230
75.4254282 81.4692535 67.4004342 218 222 230
74.6788102 81.9846066 67.4004342 218 222 230
73.8305556 82.3063072 67.4004342 218 222 230
82.1942348 0 6.83688994 255 79 163
82.186796 0.00743885472 6.92329274 255 79 163
82.1646983 0.0295364838 7.00715259 255 79 163
82.1285923 0.0656425255 7.08600139 255 79 163
82.0795405 0.114694332 7.15751852 255 79 163
82.0189866 0.175248247 7.21959913 255 79 163
81.9487127 0.245522089 7.27041612 255 79 163
81.8435028 0.350731976 7.31811931 255 79 163
81.7670618 0.427173045 7.33629031 255 79 163
81.6887283 0.505506545 7.34239649 255 79 163
78.1139347 0.505506545 7.34239649 255 79 163
78.1139347 0 6.83688994 255 79 163
78.1139347 0.0139666023 6.95489748 255 79 163
78.1139347 0.05509715 7.06638539 255 79 163
78.1139347 0.121116644 7.16519044 255 79 163
78.1139347 0.208376804 7.24585288 255 79 163
78.1139347 0.31205762 7.30391718 255 79 163
78.1139347 0.406887744 7.3326839 255 79 163
77.118935 4.4408921e-15 7.84790303 255 79 163
77.118935 4.4408921e-15 7.84790303 255 79 163
78.1139347 0 6.83688994 255 79 163
77.919964 8.56094629e-17 6.86167438 255 79 163
77.7364588 2.43684101e-16 6.92961889 255 79 163
77.5693298 4.06039661e-16 7.03163177 255 79 163
77.4221304 5.60911853e-16 7.16077334 255 79 163
77.2981109 7.16178397e-16 7.31231969 255 79 163
77.2016786 8.79044063e-16 7.48273521 255 79 163
77.1409045 1.02989357e-15 7.66096881 255 79 163
78.1139347 0.0139666023 6.95489748 255 79 163
78.1139347 0.05509715 7.06638539 255 79 163
78.1139347 0.121116644 7.16519044 255 79 163
78.1139347 0.208376804 7.24585288 255 79 163
78.1139347 0.31205762 7.30391718 255 79 163
78.1139347 0.406887744 7.3326839 255 79 163
78.1139347 0.505506545 7.34239649 255 79 163
77.8192787 0.421271565 7.37877707 255 79 163
77.5465126 0.321053983 7.48268232 255 79 163
77.3143755 0.191171683 7.63915639 255 79 163
77.2076504 0.102160631 7.74112008 255 79 163
77.928395 0.0167914168 6.98453299 255 79 163
77.9407922 0.138090077 7.19802105 255 79 163
77.9536884 0.344762281 7.32681459 255 79 163
77.589814 0.016397832 7.12572209 255 79 163
77.6165767 0.116336181 7.29084468 255 79 163
77.6467838 0.278539148 7.39683822 255 79 163
77.3217206 0.0128276412 7.36771736 255 79 163
77.3500716 0.0832125322 7.47324215 255 79 163
77.3833208 0.191977901 7.54367236 255 79 163
77.1527768 0.00572715098 7.67834064 255 79 163
77.1687956 0.0323991498 7.71508348 255 79 163
77.1869081 0.072539293 7.74022196 255 79 163
77.118935 0 66.8949277 218 222 230
77.118935 4.4408921e-15 7.84790303 218 222 230
77.4880243 0.505506545 67.4004342 218 222 230
77.3924969 0.374671824 67.3832095 218 222 230
77.3034796 0.252753273 67.3327092 218 222 230
77.2270387 0.148059439 67.2523748 218 222 230
77.1733239 0.0744913614 67.1590541 218 222 230
77.139784 0.0285549708 67.0624211 218 222 230
77.1241846 0.00718987387 66.9798827 218 222 230
82.0969926 6.81797224 67.4004342 218 222 230
82.0969926 6.81797224 7.84790303 218 222 230
82.1942348 0 6.83688994 255 79 163
82.1942348 5.4015615 6.83688994 255 79 163
82.1789494 5.4015615 6.96025994 255 79 163
82.1361856 5.4015615 7.07208953 255 79 163
82.0736101 5.4015615 7.16461372 255 79 163
81.9914451 5.4015615 7.24173485 255 79 163
81.8958575 5.4015615 7.29801285 255 79 163
81.7945029 5.4015615 7.33120624 255 79 163
81.740921 5.4015615 7.33969486 255 79 163
81.6887283 5.4015615 7.34239649 255 79 163
81.6887283 0.505506545 7.34239649 255 79 163
82.186796 0.00743885472 6.92329274 255 79 163
82.1646983 0.0295364838 7.00715259 255 79 163
82.1285923 0.0656425255 7.08600139 255 79 163
82.0795405 0.114694332 7.15751852 255 79 163
82.0189866 0.175248247 7.21959913 255 79 163
81.9487127 0.245522089 7.27041612 255 79 163
81.8435028 0.350731976 7.31811931 255 79 163
81.7670618 0.427173045 7.33629031 255 79 163
82.1942348 7.11606135 7.84790303 255 79 163
82.183188 7.01095949 7.84790303 255 79 163
82.1500477 6.9093702 7.84790303 255 79 163
82.0969926 6.81797224 7.84790303 255 79 163
82.0960539 6.81147974 7.79226025 255 79 163
82.0932098 6.79227174 7.7379664 255 79 163
82.0884097 6.76120858 7.68626201 255 79 163
82.0815845 6.71963187 7.63820359 255 79 163
82.0692259 6.6508669 7.58114563 255 79 163
82.0508968 6.56085287 7.52764707 255 79 163
82.016064 6.4161887 7.46840232 255 79 163
81.9661706 6.24403523 7.42227557 255 79 163
81.8042974 5.77413819 7.35844321 255 79 163
81.6887283 5.4015615 7.34239649 255 79 163
82.1942348 5.4015615 6.83688994 255 79 163
82.1789494 5.4015615 6.96025994 255 79 163
82.1361856 5.4015615 7.07208953 255 79 163
82.0736101 5.4015615 7.16461372 255 79 163
81.9914451 5.4015615 7.24173485 255 79 163
81.8958575 5.4015615 7.29801285 255 79 163
81.7945029 5.4015615 7.33120624 255 79 163
81.740921 5.4015615 7.33969486 255 79 163
82.1942348 7.10613019 7.75687408 255 79 163
82.1942348 7.07717496 7.66842737 255 79 163
82.1942348 7.03155019 7.58476271 255 79 163
82.1942348 6.95080112 7.48321059 255 79 163
82.1942348 6.80557012 7.35457511 255 79 163
82.1942348 6.36082818 7.09160548 255 79 163
82.1942348 5.88352062 6.9052613 255 79 163
82.1942348 5.64091728 6.8539723 255 79 163
82.1629284 6.82094621 7.56556929 255 79 163
82.0966672 6.01088868 7.23857586 255 79 163
82.1419929 6.50684912 7.37687434 255 79 163
82.120712 6.26533849 7.29702162 255 79 163
82.0782496 5.80531354 7.20624088 255 79 163
82.1402923 5.76383333 7.10402213 255 79 163
82.0703809 5.71100664 7.19648598 255 79 163
82.1212125 5.49022076 7.10105211 255 79 163
63.2477027 88.1994291 0 218 222 230
82.1942348 88.1994291 0 218 222 230
63.135217 88.1994291 0.0126741045 218 222 230
63.0283717 88.1994291 0.0500608854 218 222 230
62.9325246 88.1994291 0.110285614 218 222 230
62.8524818 88.1994291 0.190328369 218 222 230
62.7922571 88.1994291 0.286175475 218 222 230
62.7548703 88.1994291 0.393020757 218 222 230
62.7421962 88.1994291 0.505506545 218 222 230
62.7421962 88.1994291 66.8949277 218 222 230
63.2477027 88.1994291 67.4004342 218 222 230
63.135217 88.1994291 67.3877601 218 222 230
63.0283717 88.1994291 67.3503733 218 222 230
62.9325246 88.1994291 67.2901486 218 222 230
62.8524818 88.1994291 67.2101058 218 222 230
62.7922571 88.1994291 67.1142587 218 222 230
62.7548703 88.1994291 67.0074134 218 222 230
82.1942348 88.1994291 67.4004342 218 222 230
82.0969926 6.81797224 67.4004342 255 79 163
82.0969926 6.81797224 7.84790303 255 79 163
82.1942348 7.11606135 7.84790303 255 79 163
82.183188 7.01095949 7.84790303 255 79 163
82.1500477 6.9093702 7.84790303 255 79 163
82.1942348 7.11606135 67.4004342 255 79 163
82.1502089 6.9097304 67.4004342 255 79 163
82.1831058 7.01057351 67.4004342 255 79 163
62.2366897 66.5730107 67.4004342 255 79 163
62.2366897 66.5730107 15.3438702 255 79 163
62.3491754 66.5856848 15.3438702 255 79 163
62.4560207 66.6230716 15.3438702 255 79 163
62.5518678 66.6832963 15.3438702 255 79 163
62.6319106 66.7633391 15.3438702 255 79 163
62.6921353 66.8591862 15.3438702 255 79 163
62.7295221 66.9660315 15.3438702 255 79 163
62.7421962 67.0785173 15.3438702 255 79 163
62.7421962 67.0785173 66.8949277 255 79 163
62.7249715 66.9476826 66.9791787 255 79 163
62.6744712 66.825764 67.0634298 255 79 163
62.5941368 66.7210702 67.1476809 255 79 163
62.4894334 66.6407318 67.231932 255 79 163
62.3675339 66.5902393 67.3161831 255 79 163
63.2477027 88.1994291 67.4004342 255 79 163
63.135217 88.1994291 67.3877601 255 79 163
63.0283717 88.1994291 67.3503733 255 79 163
62.9325246 88.1994291 67.2901486 255 79 163
62.8524818 88.1994291 67.2101058 255 79 163
62.7922571 88.1994291 67.1142587 255 79 163
62.7548703 88.1994291 67.0074134 255 79 163
62.7421962 88.1994291 66.8949277 255 79 163
62.7421962 67.0785173 66.8949277 255 79 163
63.2477027 67.0785173 67.4004342 255 79 163
63.1296952 67.0785173 67.3864676 255 79 163
63.0182073 67.0785173 67.345337 255 79 163
62.9194022 67.0785173 67.2793176 255 79 163
62.8387398 67.0785173 67.1920574 255 79 163
62.7806755 67.0785173 67.0883766 255 79 163
62.7519088 67.0785173 66.9935465 255 79 163
63.2477027 88.1994291 0 255 79 163
63.2477027 66.0675042 0 255 79 163
63.116868 66.1983389 0.0172247178 255 79 163
62.9949495 66.3202575 0.0677250353 255 79 163
62.8902556 66.4249513 0.148059439 255 79 163
62.8166876 66.4985194 0.241380101 255 79 163
62.77441 66.540797 0.327937374 255 79 163
62.7510241 66.5641828 0.411447134 255 79 163
62.744408 66.5707989 0.45827016 255 79 163
62.7421962 66.5730107 0.505506545 255 79 163
62.7421962 88.1994291 0.505506545 255 79 163
63.135217 88.1994291 0.0126741045 255 79 163
63.0283717 88.1994291 0.0500608854 255 79 163
62.9325246 88.1994291 0.110285614 255 79 163
62.8524818 88.1994291 0.190328369 255 79 163
62.7922571 88.1994291 0.286175475 255 79 163
62.7548703 88.1994291 0.393020757 255 79 163
74.1485818 43.4106561 0 255 79 163
74.1485818 43.5231419 0.0126741045 255 79 163
74.1485818 43.6299871 0.0500608854 255 79 163
74.1485818 43.7258343 0.110285614 255 79 163
74.1485818 43.805877 0.190328369 255 79 163
74.1485818 43.8661017 0.286175475 255 79 163
74.1485818 43.9034885 0.393020757 255 79 163
74.1485818 43.9161626 0.505506545 255 79 163
73.2779269 43.5163727 0 255 79 163
72.4578714 43.8273788 0 255 79 163
71.7360738 44.3255997 0 255 79 163
71.1544824 44.9820807 0 255 79 163
70.7468972 45.7586694 0 255 79 163
70.5370055 46.6102335 0 255 79 163
70.5370055 47.487283 0 255 79 163
70.7468972 48.3388471 0 255 79 163
71.1544824 49.1154358 0 255 79 163
71.7360738 49.7719168 0 255 79 163
72.4578714 50.2701377 0 255 79 163
73.2779269 50.5811438 0 255 79 163
74.1485818 50.6868604 0 255 79 163
74.1485818 50.5743746 0.0126741045 255 79 163
74.1485818 50.4675293 0.0500608854 255 79 163
74.1485818 50.3716822 0.110285614 255 79 163
74.1485818 50.2916395 0.190328369 255 79 163
74.1485818 50.2314147 0.286175475 255 79 163
74.1485818 50.194028 0.393020757 255 79 163
74.1485818 50.1813539 0.505506545 255 79 163
73.3989026 44.0071902 0.505506545 255 79 163
72.692792 44.2749826 0.505506545 255 79 163
72.0712866 44.7039768 0.505506545 255 79 163
71.5705061 45.2692411 0.505506545 255 79 163
71.219554 45.9379245 0.505506545 255 79 163
71.0388263 46.6711656 0.505506545 255 79 163
71.0388263 47.4263509 0.505506545 255 79 163
71.219554 48.159592 0.505506545 255 79 163
71.5705061 48.8282754 0.505506545 255 79 163
72.0712866 49.3935397 0.505506545 255 79 163
72.692792 49.8225339 0.505506545 255 79 163
73.3989026 50.0903263 0.505506545 255 79 163
73.3048465 43.6255899 0.0126741045 255 79 163
73.3304163 43.7293304 0.0500608854 255 79 163
73.353354 43.8223924 0.110285614 255 79 163
73.3725095 43.9001092 0.190328369 255 79 163
73.3869222 43.958584 0.286175475 255 79 163
73.3958695 43.9948843 0.393020757 255 79 163
72.5101461 43.92698 0.0126741045 255 79 163
72.5597996 44.0215868 0.0500608854 255 79 163
72.604342 44.1064552 0.110285614 255 79 163
72.6415397 44.1773295 0.190328369 255 79 163
72.6695275 44.2306559 0.286175475 255 79 163
72.686902 44.2637602 0.393020757 255 79 163
71.8106657 44.4097965 0.0126741045 255 79 163
71.8815172 44.4897713 0.0500608854 255 79 163
71.9450756 44.5615139 0.110285614 255 79 163
71.9981537 44.6214268 0.190328369 255 79 163
72.0380901 44.6665056 0.286175475 255 79 163
72.0628821 44.69449 0.393020757 255 79 163
71.2470564 45.0459799 0.0126741045 255 79 163
71.3349883 45.1066749 0.0500608854 255 79 163
71.4138689 45.1611223 0.110285614 255 79 163
71.4797428 45.2065917 0.190328369 255 79 163
71.5293068 45.2408033 0.286175475 255 79 163
71.5600755 45.2620414 0.393020757 255 79 163
70.8520732 45.7985574 0.0126741045 255 79 163
70.9519753 45.8364453 0.0500608854 255 79 163
71.0415939 45.8704332 0.110285614 255 79 163
71.1164351 45.8988167 0.190328369 255 79 163
71.1727462 45.9201727 0.286175475 255 79 163
71.2077035 45.9334302 0.393020757 255 79 163
70.6486711 46.6237921 0.0126741045 255 79 163
70.7547374 46.6366709 0.0500608854 255 79 163
70.8498856 46.648224 0.110285614 255 79 163
70.9293448 46.6578721 0.190328369 255 79 163
70.9891304 46.6651314 0.286175475 255 79 163
71.0262446 46.6696379 0.393020757 255 79 163
70.6486711 47.4737243 0.0126741045 255 79 163
70.7547374 47.4608456 0.0500608854 255 79 163
70.8498856 47.4492925 0.110285614 255 79 163
70.9293448 47.4396444 0.190328369 255 79 163
70.9891304 47.4323851 0.286175475 255 79 163
71.0262446 47.4278786 0.393020757 255 79 163
70.8520732 48.298959 0.0126741045 255 79 163
70.9519753 48.2610712 0.0500608854 255 79 163
71.0415939 48.2270833 0.110285614 255 79 163
71.1164351 48.1986998 0.190328369 255 79 163
71.1727462 48.1773438 0.286175475 255 79 163
71.2077035 48.1640863 0.393020757 255 79 163
71.2470564 49.0515366 0.0126741045 255 79 163
71.3349883 48.9908416 0.0500608854 255 79 163
71.4138689 48.9363942 0.110285614 255 79 163
71.4797428 48.8909248 0.190328369 255 79 163
71.5293068 48.8567132 0.286175475 255 79 163
71.5600755 48.8354751 0.393020757 255 79 163
71.8106657 49.68772 0.0126741045 255 79 163
71.8815172 49.6077452 0.0500608854 255 79 163
71.9450756 49.5360026 0.110285614 255 79 163
71.9981537 49.4760897 0.190328369 255 79 163
72.0380901 49.4310108 0.286175475 255 79 163
72.0628821 49.4030264 0.393020757 255 79 163
72.5101461 50.1705365 0.0126741045 255 79 163
72.5597996 50.0759297 0.0500608854 255 79 163
72.604342 49.9910613 0.110285614 255 79 163
72.6415397 49.920187 0.190328369 255 79 163
72.6695275 49.8668606 0.286175475 255 79 163
72.686902 49.8337563 0.393020757 255 79 163
73.3048465 50.4719266 0.0126741045 255 79 163
73.3304163 50.3681861 0.0500608854 255 79 163
73.353354 50.2751241 0.110285614 255 79 163
73.3725095 50.1974072 0.190328369 255 79 163
73.3869222 50.1389325 0.286175475 255 79 163
73.3958695 50.1026321 0.393020757 255 79 163
75.1485818 43.4106561 0 255 79 163
74.1485818 43.4106561 0 255 79 163
74.1485818 43.5231419 0.0126741045 255 79 163
74.1485818 43.6299871 0.0500608854 255 79 163
74.1485818 43.7258343 0.110285614 255 79 163
74.1485818 43.805877 0.190328369 255 79 163
74.1485818 43.8661017 0.286175475 255 79 163
74.1485818 43.9034885 0.393020757 255 79 163
74.1485818 43.9161626 0.505506545 255 79 163
75.1485818 43.9161626 0.505506545 255 79 163
75.1485818 43.5231419 0.0126741045 255 79 163
75.1485818 43.6299871 0.0500608854 255 79 163
75.1485818 43.7258343 0.110285614 255 79 163
75.1485818 43.805877 0.190328369 255 79 163
75.1485818 43.8661017 0.286175475 255 79 163
75.1485818 43.9034885 0.393020757 255 79 163
74.1485818 50.6868604 0 255 79 163
75.1485818 50.6868604 0 255 79 163
75.1485818 50.5743746 0.0126741045 255 79 163
75.1485818 50.4675293 0.0500608854 255 79 163
75.1485818 50.3716822 0.110285614 255 79 163
75.1485818 50.2916395 0.190328369 255 79 163
75.1485818 50.2314147 0.286175475 255 79 163
75.1485818 50.194028 0.393020757 255 79 163
75.1485818 50.1813539 0.505506545 255 79 163
74.1485818 50.1813539 0.505506545 255 79 163
74.1485818 50.5743746 0.0126741045 255 79 163
74.1485818 50.4675293 0.0500608854 255 79 163
74.1485818 50.3716822 0.110285614 255 79 163
74.1485818 50.2916395 0.190328369 255 79 163
74.1485818 50.2314147 0.286175475 255 79 163
74.1485818 50.194028 0.393020757 255 79 163
75.1485818 50.6868604 0 255 79 163
75.1485818 50.5743746 0.0126741045 255 79 163
75.1485818 50.4675293 0.0500608854 255 79 163
75.1485818 50.3716822 0.110285614 255 79 163
75.1485818 50.2916395 0.190328369 255 79 163
75.1485818 50.2314147 0.286175475 255 79 163
75.1485818 50.194028 0.393020757 255 79 163
75.1485818 50.1813539 0.505506545 255 79 163
76.0192366 50.5811438 0 255 79 163
76.8392921 50.2701377 0 255 79 163
77.5610897 49.7719168 0 255 79 163
78.1426812 49.1154358 0 255 79 163
78.5502664 48.3388471 0 255 79 163
78.7601581 47.487283 0 255 79 163
78.7601581 46.6102335 0 255 79 163
78.5502664 45.7586694 0 255 79 163
78.1426812 44.9820807 0 255 79 163
77.5610897 44.3255997 0 255 79 163
76.8392921 43.8273788 0 255 79 163
76.0192366 43.5163727 0 255 79 163
75.1485818 43.4106561 0 255 79 163
75.1485818 43.5231419 0.0126741045 255 79 163
75.1485818 43.6299871 0.0500608854 255 79 163
75.1485818 43.7258343 0.110285614 255 79 163
75.1485818 43.805877 0.190328369 255 79 163
75.1485818 43.8661017 0.286175475 255 79 163
75.1485818 43.9034885 0.393020757 255 79 163
75.1485818 43.9161626 0.505506545 255 79 163
75.898261 50.0903263 0.505506545 255 79 163
76.6043715 49.8225339 0.505506545 255 79 163
77.2258769 49.3935397 0.505506545 255 79 163
77.7266574 48.8282754 0.505506545 255 79 163
78.0776096 48.159592 0.505506545 255 79 163
78.2583372 47.4263509 0.505506545 255 79 163
78.2583372 46.6711656 0.505506545 255 79 163
78.0776096 45.9379245 0.505506545 255 79 163
77.7266574 45.2692411 0.505506545 255 79 163
77.2258769 44.7039768 0.505506545 255 79 163
76.6043715 44.2749826 0.505506545 255 79 163
75.898261 44.0071902 0.505506545 255 79 163
75.992317 50.4719266 0.0126741045 255 79 163
75.9667472 50.3681861 0.0500608854 255 79 163
75.9438095 50.2751241 0.110285614 255 79 163
75.924654 50.1974072 0.190328369 255 79 163
75.9102413 50.1389325 0.286175475 255 79 163
75.9012941 50.1026321 0.393020757 255 79 163
76.7870174 50.1705365 0.0126741045 255 79 163
76.7373639 50.0759297 0.0500608854 255 79 163
76.6928215 49.9910613 0.110285614 255 79 163
76.6556238 49.920187 0.190328369 255 79 163
76.627636 49.8668606 0.286175475 255 79 163
76.6102615 49.8337563 0.393020757 255 79 163
77.4864979 49.68772 0.0126741045 255 79 163
77.4156463 49.6077452 0.0500608854 255 79 163
77.352088 49.5360026 0.110285614 255 79 163
77.2990098 49.4760897 0.190328369 255 79 163
77.2590734 49.4310108 0.286175475 255 79 163
77.2342814 49.4030264 0.393020757 255 79 163
78.0501072 49.0515366 0.0126741045 255 79 163
77.9621752 48.9908416 0.0500608854 255 79 163
77.8832946 48.9363942 0.110285614 255 79 163
77.8174207 48.8909248 0.190328369 255 79 163
77.7678567 48.8567132 0.286175475 255 79 163
77.737088 48.8354751 0.393020757 255 79 163
78.4450903 48.298959 0.0126741045 255 79 163
78.3451883 48.2610712 0.0500608854 255 79 163
78.2555697 48.2270833 0.110285614 255 79 163
78.1807284 48.1986998 0.190328369 255 79 163
78.1244173 48.1773438 0.286175475 255 79 163
78.0894601 48.1640863 0.393020757 255 79 163
78.6484924 47.4737243 0.0126741045 255 79 163
78.5424262 47.4608456 0.0500608854 255 79 163
78.4472779 47.4492925 0.110285614 255 79 163
78.3678187 47.4396444 0.190328369 255 79 163
78.3080331 47.4323851 0.286175475 255 79 163
78.2709189 47.4278786 0.393020757 255 79 163
78.6484924 46.6237921 0.0126741045 255 79 163
78.5424262 46.6366709 0.0500608854 255 79 163
78.4472779 46.648224 0.110285614 255 79 163
78.3678187 46.6578721 0.190328369 255 79 163
78.3080331 46.6651314 0.286175475 255 79 163
78.2709189 46.6696379 0.393020757 255 79 163
78.4450903 45.7985574 0.0126741045 255 79 163
78.3451883 45.8364453 0.0500608854 255 79 163
78.2555697 45.8704332 0.110285614 255 79 163
78.1807284 45.8988167 0.190328369 255 79 163
78.1244173 45.9201727 0.286175475 255 79 163
78.0894601 45.9334302 0.393020757 255 79 163
78.0501072 45.0459799 0.0126741045 255 79 163
77.9621752 45.1066749 0.0500608854 255 79 163
77.8832946 45.1611223 0.110285614 255 79 163
77.8174207 45.2065917 0.190328369 255 79 163
77.7678567 45.2408033 0.286175475 255 79 163
77.737088 45.2620414 0.393020757 255 79 163
77.4864979 44.4097965 0.0126741045 255 79 163
77.4156463 44.4897713 0.0500608854 255 79 163
77.352088 44.5615139 0.110285614 255 79 163
77.2990098 44.6214268 0.190328369 255 79 163
77.2590734 44.6665056 0.286175475 255 79 163
77.2342814 44.69449 0.393020757 255 79 163
76.7870174 43.92698 0.0126741045 255 79 163
76.7373639 44.0215868 0.0500608854 255 79 163
76.6928215 44.1064552 0.110285614 255 79 163
76.6556238 44.1773295 0.190328369 255 79 163
76.627636 44.2306559 0.286175475 255 79 163
76.6102615 44.2637602 0.393020757 255 79 163
75.992317 43.6255899 0.0126741045 255 79 163
75.9667472 43.7293304 0.0500608854 255 79 163
75.9438095 43.8223924 0.110285614 255 79 163
75.924654 43.9001092 0.190328369 255 79 163
75.9102413 43.958584 0.286175475 255 79 163
75.9012941 43.9948843 0.393020757 255 79 163
62.2366897 66.5730107 67.4004342 255 79 163
62.2366897 66.5730107 67.4004342 255 79 163
63.2477027 67.0785173 67.4004342 255 79 163
63.2414814 67.0295387 67.4004342 255 79 163
63.2245157 66.9832405 67.4004342 255 79 163
63.1995338 66.9405988 67.4004342 255 79 163
63.1577315 66.8896194 67.4004342 255 79 163
63.0837914 66.8241116 67.4004342 255 79 163
62.9584957 66.7447787 67.4004342 255 79 163
62.7539572 66.6577547 67.4004342 255 79 163
62.5112574 66.5968871 67.4004342 255 79 163
62.3744549 66.5791271 67.4004342 255 79 163
63.1296952 67.0785173 67.3864676 255 79 163
63.0182073 67.0785173 67.345337 255 79 163
62.9194022 67.0785173 67.2793176 255 79 163
62.8387398 67.0785173 67.1920574 255 79 163
62.7806755 67.0785173 67.0883766 255 79 163
62.7519088 67.0785173 66.9935465 255 79 163
62.7421962 67.0785173 66.8949277 255 79 163
62.7249715 66.9476826 66.9791787 255 79 163
62.6744712 66.825764 67.0634298 255 79 163
62.5941368 66.7210702 67.1476809 255 79 163
62.4894334 66.6407318 67.231932 255 79 163
62.3675339 66.5902393 67.3161831 255 79 163
62.9923908 66.8398123 67.3848438 255 79 163
62.9448364 66.8445731 67.3673716 255 79 163
62.9000787 66.84943 67.3446879 255 79 163
62.858853 66.8543406 67.3173198 255 79 163
62.8217423 66.8592436 67.2855866 255 79 163
62.7615122 66.8687438 67.2098706 255 79 163
62.7216579 66.8774213 67.1198461 255 79 163
62.7054903 66.735731 67.3138822 255 79 163
62.6382157 66.68798 67.3280771 255 79 163
62.5724668 66.6514439 67.3411068 255 79 163
62.4859441 66.6154042 67.3573424 255 79 163
62.4133651 66.594163 67.3703425 255 79 163
62.3627826 66.5837757 67.3791238 255 79 163
62.6923763 66.6715397 67.3797056 255 79 163
62.6527846 66.6544178 67.3816921 255 79 163
62.6026153 66.635415 67.3841882 255 79 163
62.4994282 66.6048717 67.3891571 255 79 163
62.456987 66.5953933 67.3910857 255 79 163
62.3983205 66.5850903 67.3935873 255 79 163
62.3687752 66.5811035 67.3947727 255 79 163
62.482945 66.596162 67.3977747 255 79 163
62.45137 66.5906396 67.3981269 255 79 163
62.3878362 66.5818073 67.398772 255 79 163
71.9299616 82.4156591 67.4004342 218 222 230
71.9299616 82.4156591 20.5730842 218 222 230
71.0293677 82.3063072 20.5730842 218 222 230
70.181113 81.9846066 20.5730842 218 222 230
69.4344951 81.4692535 20.5730842 218 222 230
68.8329046 80.7901982 20.5730842 218 222 230
68.4113038 79.986905 20.5730842 218 222 230
68.1941946 79.1060583 20.5730842 218 222 230
68.1941946 78.1988498 20.5730842 218 222 230
68.4113038 77.3180031 20.5730842 218 222 230
68.8329046 76.5147099 20.5730842 218 222 230
69.4344951 75.8356546 20.5730842 218 222 230
70.181113 75.3203015 20.5730842 218 222 230
71.0293677 74.9986009 20.5730842 218 222 230
71.9299616 74.889249 20.5730842 218 222 230
71.9299616 74.889249 67.4004342 218 222 230
71.0293677 82.3063072 67.4004342 218 222 230
70.181113 81.9846066 67.4004342 218 222 230
69.4344951 81.4692535 67.4004342 218 222 230
68.8329046 80.7901982 67.4004342 218 222 230
68.4113038 79.986905 67.4004342 218 222 230
68.1941946 79.1060583 67.4004342 218 222 230
68.1941946 78.1988498 67.4004342 218 222 230
68.4113038 77.3180031 67.4004342 218 222 230
68.8329046 76.5147099 67.4004342 218 222 230
69.4344951 75.8356546 67.4004342 218 222 230
70.181113 75.3203015 67.4004342 218 222 230
71.0293677 74.9986009 67.4004342 218 222 230
71.9299616 74.889249 67.4004342 218 222 230
71.9299616 74.889249 20.5730842 218 222 230
72.9299616 74.889249 20.5730842 218 222 230
72.9299616 74.889249 67.4004342 218 222 230
72.9299616 74.889249 67.4004342 218 222 230
72.9299616 74.889249 20.5730842 218 222 230
73.8305556 74.9986009 20.5730842 218 222 230
74.6788102 75.3203015 20.5730842 218 222 230
75.4254282 75.8356546 20.5730842 218 222 230
76.0270187 76.5147099 20.5730842 218 222 230
76.4486195 77.3180031 20.5730842 218 222 230
76.6657287 78.1988498 20.5730842 218 222 230
76.6657287 79.1060583 20.5730842 218 222 230
76.4486195 79.986905 20.5730842 218 222 230
76.0270187 80.7901982 20.5730842 218 222 230
75.4254282 81.4692535 20.5730842 218 222 230
74.6788102 81.9846066 20.5730842 218 222 230
73.8305556 82.3063072 20.5730842 218 222 230
72.9299616 82.4156591 20.5730842 218 222 230
72.9299616 82.4156591 67.4004342 218 222 230
73.8305556 74.9986009 67.4004342 218 222 230
74.6788102 75.3203015 67.4004342 218 222 230
75.4254282 75.8356546 67.4004342 218 222 230
76.0270187 76.5147099 67.4004342 218 222 230
76.4486195 77.3180031 67.4004342 218 222 230
76.6657287 78.1988498 67.4004342 218 222 230
76.6657287 79.1060583 67.4004342 218 222 230
76.4486195 79.986905 67.4004342 218 222 230
76.0270187 80.7901982 67.4004342 218 222 230
75.4254282 81.4692535 67.4004342 218 222 230
74.6788102 81.9846066 67.4004342 218 222 230
73.8305556 82.3063072 67.4004342 218 222 230
72.9299616 82.4156591 67.4004342 218 222 230
72.9299616 82.4156591 20.5730842 218 222 230
71.9299616 82.4156591 20.5730842 218 222 230
71.9299616 82.4156591 67.4004342 218 222 230
81.6887283 0.505506545 7.34239649 218 222 230
81.6887283 5.4015615 7.34239649 218 222 230
78.1139347 0.505506545 7.34239649 218 222 230
82.0969926 6.81797224 7.84790303 255 79 163
77.118935 4.4408921e-15 7.84790303 255 79 163
82.0960539 6.81147974 7.79226025 255 79 163
82.0932098 6.79227174 7.7379664 255 79 163
82.0884097 6.76120858 7.68626201 255 79 163
82.0815845 6.71963187 7.63820359 255 79 163
82.0692259 6.6508669 7.58114563 255 79 163
82.0508968 6.56085287 7.52764707 255 79 163
82.016064 6.4161887 7.46840232 255 79 163
81.9661706 6.24403523 7.42227557 255 79 163
81.8042974 5.77413819 7.35844321 255 79 163
81.6887283 5.4015615 7.34239649 255 79 163
78.1139347 0.505506545 7.34239649 255 79 163
77.8192787 0.421271565 7.37877707 255 79 163
77.5465126 0.321053983 7.48268232 255 79 163
77.3143755 0.191171683 7.63915639 255 79 163
77.2076504 0.102160631 7.74112008 255 79 163
74.1485818 43.9161626 0.505506545 218 222 230
74.1485818 43.9161626 17.7152898 218 222 230
73.3989026 44.0071902 17.7152898 218 222 230
72.692792 44.2749826 17.7152898 218 222 230
72.0712866 44.7039768 17.7152898 218 222 230
71.5705061 45.2692411 17.7152898 218 222 230
71.219554 45.9379245 17.7152898 218 222 230
71.0388263 46.6711656 17.7152898 218 222 230
71.0388263 47.4263509 17.7152898 218 222 230
71.219554 48.159592 17.7152898 218 222 230
71.5705061 48.8282754 17.7152898 218 222 230
72.0712866 49.3935397 17.7152898 218 222 230
72.692792 49.8225339 17.7152898 218 222 230
73.3989026 50.0903263 17.7152898 218 222 230
74.1485818 50.1813539 17.7152898 218 222 230
74.1485818 50.1813539 0.505506545 218 222 230
73.3989026 44.0071902 0.505506545 218 222 230
72.692792 44.2749826 0.505506545 218 222 230
72.0712866 44.7039768 0.505506545 218 222 230
71.5705061 45.2692411 0.505506545 218 222 230
71.219554 45.9379245 0.505506545 218 222 230
71.0388263 46.6711656 0.505506545 218 222 230
71.0388263 47.4263509 0.505506545 218 222 230
71.219554 48.159592 0.505506545 218 222 230
71.5705061 48.8282754 0.505506545 218 222 230
72.0712866 49.3935397 0.505506545 218 222 230
72.692792 49.8225339 0.505506545 218 222 230
73.3989026 50.0903263 0.505506545 218 222 230
75.1485818 43.9161626 0.505506545 218 222 230
75.1485818 43.9161626 17.7152898 218 222 230
74.1485818 43.9161626 17.7152898 218 222 230
74.1485818 43.9161626 0.505506545 218 222 230
74.1485818 50.1813539 0.505506545 218 222 230
74.1485818 50.1813539 17.7152898 218 222 230
75.1485818 50.1813539 17.7152898 218 222 230
75.1485818 50.1813539 0.505506545 218 222 230
75.1485818 50.1813539 0.505506545 218 222 230
75.1485818 50.1813539 17.7152898 218 222 230
75.898261 50.0903263 17.7152898 218 222 230
76.6043715 49.8225339 17.7152898 218 222 230
77.2258769 49.3935397 17.7152898 218 222 230
77.7266574 48.8282754 17.7152898 218 222 230
78.0776096 48.159592 17.7152898 218 222 230
78.2583372 47.4263509 17.7152898 218 222 230
78.2583372 46.6711656 17.7152898 218 222 230
78.0776096 45.9379245 17.7152898 218 222 230
77.7266574 45.2692411 17.7152898 218 222 230
77.2258769 44.7039768 17.7152898 218 222 230
76.6043715 44.2749826 17.7152898 218 222 230
75.898261 44.0071902 17.7152898 218 222 230
75.1485818 43.9161626 17.7152898 218 222 230
75.1485818 43.9161626 0.505506545 218 222 230
75.898261 50.0903263 0.505506545 218 222 230
76.6043715 49.8225339 0.505506545 218 222 230
77.2258769 49.3935397 0.505506545 218 222 230
77.7266574 48.8282754 0.505506545 218 222 230
78.0776096 48.159592 0.505506545 218 222 230
78.2583372 47.4263509 0.505506545 218 222 230
78.2583372 46.6711656 0.505506545 218 222 230
78.0776096 45.9379245 0.505506545 218 222 230
77.7266574 45.2692411 0.505506545 218 222 230
77.2258769 44.7039768 0.505506545 218 222 230
76.6043715 44.2749826 0.505506545 218 222 230
75.898261 44.0071902 0.505506545 218 222 230
71.9299616 81.9101526 20.0675776 255 79 163
71.1503434 81.8154898 20.0675776 255 79 163
70.4160336 81.5370028 20.0675776 255 79 163
69.7697079 81.0908764 20.0675776 255 79 163
69.2489283 80.5030377 20.0675776 255 79 163
68.8839606 79.8076499 20.0675776 255 79 163
68.6960154 79.0451262 20.0675776 255 79 163
68.6960154 78.2597819 20.0675776 255 79 163
68.8839606 77.4972582 20.0675776 255 79 163
69.2489283 76.8018704 20.0675776 255 79 163
69.7697079 76.2140317 20.0675776 255 79 163
70.4160336 75.7679053 20.0675776 255 79 163
71.1503434 75.4894183 20.0675776 255 79 163
71.9299616 75.3947555 20.0675776 255 79 163
71.9299616 74.889249 20.5730842 255 79 163
71.9299616 74.9019231 20.4605984 255 79 163
71.9299616 74.9393099 20.3537531 255 79 163
71.9299616 74.9995346 20.257906 255 79 163
71.9299616 75.0795774 20.1778633 255 79 163
71.9299616 75.1754245 20.1176385 255 79 163
71.9299616 75.2822697 20.0802517 255 79 163
71.9299616 82.4156591 20.5730842 255 79 163
71.0293677 82.3063072 20.5730842 255 79 163
70.181113 81.9846066 20.5730842 255 79 163
69.4344951 81.4692535 20.5730842 255 79 163
68.8329046 80.7901982 20.5730842 255 79 163
68.4113038 79.986905 20.5730842 255 79 163
68.1941946 79.1060583 20.5730842 255 79 163
68.1941946 78.1988498 20.5730842 255 79 163
68.4113038 77.3180031 20.5730842 255 79 163
68.8329046 76.5147099 20.5730842 255 79 163
69.4344951 75.8356546 20.5730842 255 79 163
70.181113 75.3203015 20.5730842 255 79 163
71.0293677 74.9986009 20.5730842 255 79 163
71.9299616 82.402985 20.4605984 255 79 163
71.9299616 82.3655982 20.3537531 255 79 163
71.9299616 82.3053735 20.257906 255 79 163
71.9299616 82.2253307 20.1778633 255 79 163
71.9299616 82.1294836 20.1176385 255 79 163
71.9299616 82.0226384 20.0802517 255 79 163
71.0324008 75.0109067 20.4605984 255 79 163
71.0413481 75.0472071 20.3537531 255 79 163
71.0557608 75.1056818 20.257906 255 79 163
71.0749163 75.1833987 20.1778633 255 79 163
71.097854 75.2764606 20.1176385 255 79 163
71.1234237 75.3802012 20.0802517 255 79 163
70.187003 75.3315238 20.4605984 255 79 163
70.2043775 75.3646282 20.3537531 255 79 163
70.2323653 75.4179545 20.257906 255 79 163
70.269563 75.4888289 20.1778633 255 79 163
70.3141054 75.5736973 20.1176385 255 79 163
70.3637589 75.6683041 20.0802517 255 79 163
69.4428996 75.8451413 20.4605984 255 79 163
69.4676916 75.8731257 20.3537531 255 79 163
69.507628 75.9182046 20.257906 255 79 163
69.5607061 75.9781174 20.1778633 255 79 163
69.6242645 76.04986 20.1176385 255 79 163
69.6951161 76.1298349 20.0802517 255 79 163
68.8433352 76.5219096 20.4605984 255 79 163
68.8741039 76.5431477 20.3537531 255 79 163
68.9236679 76.5773593 20.257906 255 79 163
68.9895418 76.6228288 20.1778633 255 79 163
69.0684224 76.6772761 20.1176385 255 79 163
69.1563543 76.7379712 20.0802517 255 79 163
68.4231543 77.3224974 20.4605984 255 79 163
68.4581115 77.335755 20.3537531 255 79 163
68.5144226 77.357111 20.257906 255 79 163
68.5892639 77.3854945 20.1778633 255 79 163
68.6788825 77.4194824 20.1176385 255 79 163
68.7787846 77.4573702 20.0802517 255 79 163
68.2067763 78.2003775 20.4605984 255 79 163
68.2438905 78.204884 20.3537531 255 79 163
68.3036761 78.2121433 20.257906 255 79 163
68.3831352 78.2217914 20.1778633 255 79 163
68.4782835 78.2333444 20.1176385 255 79 163
68.5843498 78.2462232 20.0802517 255 79 163
68.2067763 79.1045306 20.4605984 255 79 163
68.2438905 79.1000241 20.3537531 255 79 163
68.3036761 79.0927648 20.257906 255 79 163
68.3831352 79.0831167 20.1778633 255 79 163
68.4782835 79.0715637 20.1176385 255 79 163
68.5843498 79.0586849 20.0802517 255 79 163
68.4231543 79.9824107 20.4605984 255 79 163
68.4581115 79.9691531 20.3537531 255 79 163
68.5144226 79.9477971 20.257906 255 79 163
68.5892639 79.9194136 20.1778633 255 79 163
68.6788825 79.8854257 20.1176385 255 79 163
68.7787846 79.8475379 20.0802517 255 79 163
68.8433352 80.7829985 20.4605984 255 79 163
68.8741039 80.7617604 20.3537531 255 79 163
68.9236679 80.7275488 20.257906 255 79 163
68.9895418 80.6820793 20.1778633 255 79 163
69.0684224 80.627632 20.1176385 255 79 163
69.1563543 80.5669369 20.0802517 255 79 163
69.4428996 81.4597668 20.4605984 255 79 163
69.4676916 81.4317824 20.3537531 255 79 163
69.507628 81.3867035 20.257906 255 79 163
69.5607061 81.3267907 20.1778633 255 79 163
69.6242645 81.2550481 20.1176385 255 79 163
69.6951161 81.1750732 20.0802517 255 79 163
70.187003 81.9733843 20.4605984 255 79 163
70.2043775 81.9402799 20.3537531 255 79 163
70.2323653 81.8869536 20.257906 255 79 163
70.269563 81.8160792 20.1778633 255 79 163
70.3141054 81.7312108 20.1176385 255 79 163
70.3637589 81.636604 20.0802517 255 79 163
71.0324008 82.2940014 20.4605984 255 79 163
71.0413481 82.257701 20.3537531 255 79 163
71.0557608 82.1992263 20.257906 255 79 163
71.0749163 82.1215094 20.1778633 255 79 163
71.097854 82.0284475 20.1176385 255 79 163
71.1234237 81.9247069 20.0802517 255 79 163
71.9299616 74.889249 20.5730842 255 79 163
71.9299616 74.9019231 20.4605984 255 79 163
71.9299616 74.9393099 20.3537531 255 79 163
71.9299616 74.9995346 20.257906 255 79 163
71.9299616 75.0795774 20.1778633 255 79 163
71.9299616 75.1754245 20.1176385 255 79 163
71.9299616 75.2822697 20.0802517 255 79 163
71.9299616 75.3947555 20.0675776 255 79 163
72.9299616 75.3947555 20.0675776 255 79 163
72.9299616 74.889249 20.5730842 255 79 163
72.9299616 74.9019231 20.4605984 255 79 163
72.9299616 74.9393099 20.3537531 255 79 163
72.9299616 74.9995346 20.257906 255 79 163
72.9299616 75.0795774 20.1778633 255 79 163
72.9299616 75.1754245 20.1176385 255 79 163
72.9299616 75.2822697 20.0802517 255 79 163
72.9299616 75.3947555 20.0675776 255 79 163
73.7095799 75.4894183 20.0675776 255 79 163
74.4438896 75.7679053 20.0675776 255 79 163
75.0902153 76.2140317 20.0675776 255 79 163
75.610995 76.8018704 20.0675776 255 79 163
75.9759627 77.4972582 20.0675776 255 79 163
76.1639079 78.2597819 20.0675776 255 79 163
76.1639079 79.0451262 20.0675776 255 79 163
75.9759627 79.8076499 20.0675776 255 79 163
75.610995 80.5030377 20.0675776 255 79 163
75.0902153 81.0908764 20.0675776 255 79 163
74.4438896 81.5370028 20.0675776 255 79 163
73.7095799 81.8154898 20.0675776 255 79 163
72.9299616 81.9101526 20.0675776 255 79 163
72.9299616 82.4156591 20.5730842 255 79 163
72.9299616 82.402985 20.4605984 255 79 163
72.9299616 82.3655982 20.3537531 255 79 163
72.9299616 82.3053735 20.257906 255 79 163
72.9299616 82.2253307 20.1778633 255 79 163
72.9299616 82.1294836 20.1176385 255 79 163
72.9299616 82.0226384 20.0802517 255 79 163
72.9299616 74.889249 20.5730842 255 79 163
73.8305556 74.9986009 20.5730842 255 79 163
74.6788102 75.3203015 20.5730842 255 79 163
75.4254282 75.8356546 20.5730842 255 79 163
76.0270187 76.5147099 20.5730842 255 79 163
76.4486195 77.3180031 20.5730842 255 79 163
76.6657287 78.1988498 20.5730842 255 79 163
76.6657287 79.1060583 20.5730842 255 79 163
76.4486195 79.986905 20.5730842 255 79 163
76.0270187 80.7901982 20.5730842 255 79 163
75.4254282 81.4692535 20.5730842 255 79 163
74.6788102 81.9846066 20.5730842 255 79 163
73.8305556 82.3063072 20.5730842 255 79 163
72.9299616 74.9019231 20.4605984 255 79 163
72.9299616 74.9393099 20.3537531 255 79 163
72.9299616 74.9995346 20.257906 255 79 163
72.9299616 75.0795774 20.1778633 255 79 163
72.9299616 75.1754245 20.1176385 255 79 163
72.9299616 75.2822697 20.0802517 255 79 163
73.8275224 82.2940014 20.4605984 255 79 163
73.8185752 82.257701 20.3537531 255 79 163
73.8041625 82.1992263 20.257906 255 79 163
73.785007 82.1215094 20.1778633 255 79 163
73.7620693 82.0284475 20.1176385 255 79 163
73.7364995 81.9247069 20.0802517 255 79 163
74.6729203 81.9733843 20.4605984 255 79 163
74.6555458 81.9402799 20.3537531 255 79 163
74.6275579 81.8869536 20.257906 255 79 163
74.5903602 81.8160792 20.1778633 255 79 163
74.5458179 81.7312108 20.1176385 255 79 163
74.4961644 81.636604 20.0802517 255 79 163
75.4170237 81.4597668 20.4605984 255 79 163
75.3922317 81.4317824 20.3537531 255 79 163
75.3522953 81.3867035 20.257906 255 79 163
75.2992171 81.3267907 20.1778633 255 79 163
75.2356587 81.2550481 20.1176385 255 79 163
75.1648072 81.1750732 20.0802517 255 79 163
76.0165881 80.7829985 20.4605984 255 79 163
75.9858194 80.7617604 20.3537531 255 79 163
75.9362554 80.7275488 20.257906 255 79 163
75.8703815 80.6820793 20.1778633 255 79 163
75.7915009 80.627632 20.1176385 255 79 163
75.7035689 80.5669369 20.0802517 255 79 163
76.436769 79.9824107 20.4605984 255 79 163
76.4018117 79.9691531 20.3537531 255 79 163
76.3455007 79.9477971 20.257906 255 79 163
76.2706594 79.9194136 20.1778633 255 79 163
76.1810408 79.8854257 20.1176385 255 79 163
76.0811387 79.8475379 20.0802517 255 79 163
76.653147 79.1045306 20.4605984 255 79 163
76.6160328 79.1000241 20.3537531 255 79 163
76.5562472 79.0927648 20.257906 255 79 163
76.476788 79.0831167 20.1778633 255 79 163
76.3816398 79.0715637 20.1176385 255 79 163
76.2755735 79.0586849 20.0802517 255 79 163
76.653147 78.2003775 20.4605984 255 79 163
76.6160328 78.204884 20.3537531 255 79 163
76.5562472 78.2121433 20.257906 255 79 163
76.476788 78.2217914 20.1778633 255 79 163
76.3816398 78.2333444 20.1176385 255 79 163
76.2755735 78.2462232 20.0802517 255 79 163
76.436769 77.3224974 20.4605984 255 79 163
76.4018117 77.335755 20.3537531 255 79 163
76.3455007 77.357111 20.257906 255 79 163
76.2706594 77.3854945 20.1778633 255 79 163
76.1810408 77.4194824 20.1176385 255 79 163
76.0811387 77.4573702 20.0802517 255 79 163
76.0165881 76.5219096 20.4605984 255 79 163
75.9858194 76.5431477 20.3537531 255 79 163
75.9362554 76.5773593 20.257906 255 79 163
75.8703815 76.6228288 20.1778633 255 79 163
75.7915009 76.6772761 20.1176385 255 79 163
75.7035689 76.7379712 20.0802517 255 79 163
75.4170237 75.8451413 20.4605984 255 79 163
75.3922317 75.8731257 20.3537531 255 79 163
75.3522953 75.9182046 20.257906 255 79 163
75.2992171 75.9781174 20.1778633 255 79 163
75.2356587 76.04986 20.1176385 255 79 163
75.1648072 76.1298349 20.0802517 255 79 163
74.6729203 75.3315238 20.4605984 255 79 163
74.6555458 75.3646282 20.3537531 255 79 163
74.6275579 75.4179545 20.257906 255 79 163
74.5903602 75.4888289 20.1778633 255 79 163
74.5458179 75.5736973 20.1176385 255 79 163
74.4961644 75.6683041 20.0802517 255 79 163
73.8275224 75.0109067 20.4605984 255 79 163
73.8185752 75.0472071 20.3537531 255 79 163
73.8041625 75.1056818 20.257906 255 79 163
73.785007 75.1833987 20.1778633 255 79 163
73.7620693 75.2764606 20.1176385 255 79 163
73.7364995 75.3802012 20.0802517 255 79 163
72.9299616 82.4156591 20.5730842 255 79 163
72.9299616 82.402985 20.4605984 255 79 163
72.9299616 82.3655982 20.3537531 255 79 163
72.9299616 82.3053735 20.257906 255 79 163
72.9299616 82.2253307 20.1778633 255 79 163
72.9299616 82.1294836 20.1176385 255 79 163
72.9299616 82.0226384 20.0802517 255 79 163
72.9299616 81.9101526 20.0675776 255 79 163
71.9299616 81.9101526 20.0675776 255 79 163
71.9299616 82.4156591 20.5730842 255 79 163
71.9299616 82.402985 20.4605984 255 79 163
71.9299616 82.3655982 20.3537531 255 79 163
71.9299616 82.3053735 20.257906 255 79 163
71.9299616 82.2253307 20.1778633 255 79 163
71.9299616 82.1294836 20.1176385 255 79 163
71.9299616 82.0226384 20.0802517 255 79 163
75.1485818 50.1813539 17.7152898 218 222 230
75.898261 50.0903263 17.7152898 218 222 230
76.6043715 49.8225339 17.7152898 218 222 230
77.2258769 49.3935397 17.7152898 218 222 230
77.7266574 48.8282754 17.7152898 218 222 230
78.0776096 48.159592 17.7152898 218 222 230
78.2583372 47.4263509 17.7152898 218 222 230
78.2583372 46.6711656 17.7152898 218 222 230
78.0776096 45.9379245 17.7152898 218 222 230
77.7266574 45.2692411 17.7152898 218 222 230
77.2258769 44.7039768 17.7152898 218 222 230
76.6043715 44.2749826 17.7152898 218 222 230
75.898261 44.0071902 17.7152898 218 222 230
75.1485818 43.9161626 17.7152898 218 222 230
74.1485818 43.9161626 17.7152898 218 222 230
73.3989026 44.0071902 17.7152898 218 222 230
72.692792 44.2749826 17.7152898 218 222 230
72.0712866 44.7039768 17.7152898 218 222 230
71.5705061 45.2692411 17.7152898 218 222 230
71.219554 45.9379245 17.7152898 218 222 230
71.0388263 46.6711656 17.7152898 218 222 230
71.0388263 47.4263509 17.7152898 218 222 230
71.219554 48.159592 17.7152898 218 222 230
71.5705061 48.8282754 17.7152898 218 222 230
72.0712866 49.3935397 17.7152898 218 222 230
72.692792 49.8225339 17.7152898 218 222 230
73.3989026 50.0903263 17.7152898 218 222 230
74.1485818 50.1813539 17.7152898 218 222 230
72.9299616 75.3947555 20.0675776 218 222 230
73.7095799 75.4894183 20.0675776 218 222 230
74.4438896 75.7679053 20.0675776 218 222 230
75.0902153 76.2140317 20.0675776 218 222 230
75.610995 76.8018704 20.0675776 218 222 230
75.9759627 77.4972582 20.0675776 218 222 230
76.1639079 78.2597819 20.0675776 218 222 230
76.1639079 79.0451262 20.0675776 218 222 230
75.9759627 79.8076499 20.0675776 218 222 230
75.610995 80.5030377 20.0675776 218 222 230
75.0902153 81.0908764 20.0675776 218 222 230
74.4438896 81.5370028 20.0675776 218 222 230
73.7095799 81.8154898 20.0675776 218 222 230
72.9299616 81.9101526 20.0675776 218 222 230
71.9299616 81.9101526 20.0675776 218 222 230
71.1503434 81.8154898 20.0675776 218 222 230
70.4160336 81.5370028 20.0675776 218 222 230
69.7697079 81.0908764 20.0675776 218 222 230
69.2489283 80.5030377 20.0675776 218 222 230
68.8839606 79.8076499 20.0675776 218 222 230
68.6960154 79.0451262 20.0675776 218 222 230
68.6960154 78.2597819 20.0675776 218 222 230
68.8839606 77.4972582 20.0675776 218 222 230
69.2489283 76.8018704 20.0675776 218 222 230
69.7697079 76.2140317 20.0675776 218 222 230
70.4160336 75.7679053 20.0675776 218 222 230
71.1503434 75.4894183 20.0675776 218 222 230
71.9299616 75.3947555 20.0675776 218 222 230
3 9 8 7
3 6 0 1
3 6 2 0
3 6 1 10
3 6 10 11
3 6 11 12
3 6 12 13
3 6 13 14
3 6 14 15
3 4 3 2
3 5 2 6
3 5 4 2
3 6 9 7
3 6 15 9
3 26 19 20
3 26 20 21
3 26 21 22
3 23 26 22
3 24 26 23
3 25 26 24
3 18 26 25
3 27 26 18
3 17 18 16
3 17 27 18
3 35 37 36
3 35 43 37
3 34 42 43
3 34 43 35
3 33 41 42
3 33 42 34
3 32 39 40
3 32 40 41
3 32 41 33
3 31 39 32
3 30 38 39
3 30 39 31
3 29 28 38
3 29 38 30
3 48 47 46
3 44 48 46
3 54 53 49
3 55 54 49
3 52 49 53
3 56 55 49
3 51 49 52
3 50 49 51
3 57 49 48
3 57 56 49
3 45 48 44
3 45 57 48
3 69 58 59
3 69 68 58
3 70 59 60
3 70 69 59
3 71 60 61
3 71 70 60
3 72 61 62
3 72 71 61
3 73 62 63
3 73 72 62
3 74 63 64
3 74 64 65
3 74 73 63
3 67 65 66
3 67 74 65
3 75 76 77
3 75 77 78
3 87 88 89
3 87 96 95
3 87 89 96
3 86 95 94
3 86 87 95
3 85 94 93
3 85 86 94
3 84 93 92
3 84 85 93
3 83 92 91
3 83 84 92
3 82 91 90
3 82 83 91
3 81 90 79
3 81 82 90
3 80 81 79
3 106 107 108
3 106 108 116
3 105 116 115
3 105 106 116
3 104 115 114
3 104 105 115
3 103 114 113
3 103 104 114
3 102 113 112
3 102 103 113
3 101 112 111
3 101 102 112
3 100 111 110
3 100 101 111
3 99 110 109
3 99 100 110
3 98 109 97
3 98 99 109
3 128 117 118
3 129 118 119
3 129 128 118
3 130 119 120
3 130 120 121
3 130 129 119
3 131 121 122
3 131 130 121
3 132 122 123
3 132 131 122
3 133 123 124
3 133 132 123
3 134 124 125
3 134 133 124
3 135 125 126
3 135 134 125
3 127 135 126
3 146 138 136
3 145 146 136
3 147 138 146
3 144 145 136
3 148 138 147
3 143 144 136
3 149 138 148
3 142 143 136
3 141 139 138
3 141 138 149
3 137 142 136
3 140 139 141
3 182 173 159
3 172 159 173
3 160 181 182
3 160 182 159
3 152 178 177
3 152 179 178
3 152 180 179
3 154 153 152
3 156 155 154
3 157 156 154
3 150 158 157
3 150 154 152
3 150 157 154
3 166 177 176
3 167 177 166
3 167 152 177
3 165 176 175
3 165 166 176
3 164 165 175
3 163 175 174
3 163 164 175
3 168 152 167
3 162 174 181
3 162 163 174
3 169 152 168
3 170 152 169
3 171 150 152
3 171 152 170
3 151 150 171
3 161 181 160
3 161 162 181
3 152 159 172
3 152 172 180
3 194 187 188
3 194 188 189
3 194 189 190
3 191 194 190
3 192 194 191
3 193 194 192
3 186 194 193
3 195 194 186
3 196 184 203
3 185 195 186
3 183 196 197
3 183 197 198
3 183 198 199
3 183 199 200
3 183 200 201
3 183 201 202
3 183 202 195
3 183 184 196
3 183 195 185
3 204 207 206
3 204 205 207
3 218 208 209
3 218 209 210
3 218 217 208
3 219 210 211
3 219 218 210
3 220 219 211
3 221 211 212
3 221 212 213
3 221 220 211
3 222 213 214
3 222 221 213
3 223 222 214
3 216 214 215
3 216 223 214
3 228 226 224
3 228 227 226
3 229 228 224
3 231 233 232
3 225 230 229
3 225 231 230
3 225 233 231
3 225 229 224
3 244 242 241
3 245 241 240
3 245 244 241
3 246 240 239
3 246 245 240
3 247 239 238
3 247 246 239
3 248 238 237
3 248 247 238
3 249 237 236
3 249 248 237
3 250 249 236
3 251 236 235
3 251 250 236
3 252 235 234
3 252 251 235
3 243 252 234
3 255 256 253
3 254 255 253
3 265 266 267
3 264 267 268
3 264 265 267
3 263 268 269
3 263 264 268
3 262 269 270
3 262 270 271
3 262 263 269
3 261 271 272
3 261 262 271
3 260 272 273
3 260 261 272
3 259 273 274
3 259 260 273
3 258 274 257
3 258 259 274
3 284 275 280
3 285 284 280
3 283 275 284
3 286 280 279
3 286 285 280
3 282 275 283
3 287 286 279
3 281 275 282
3 308 275 281
3 307 275 308
3 306 275 307
3 305 275 306
3 304 275 305
3 303 275 304
3 302 275 303
3 278 288 287
3 278 289 288
3 278 290 289
3 278 291 290
3 278 292 291
3 278 293 292
3 278 294 293
3 278 295 294
3 278 296 295
3 278 287 279
3 276 278 277
3 276 297 296
3 276 298 297
3 276 299 298
3 276 300 299
3 276 301 300
3 276 296 278
3 275 301 276
3 275 302 301
3 320 318 317
3 321 317 316
3 321 320 317
3 322 315 314
3 322 316 315
3 322 321 316
3 323 314 313
3 323 322 314
3 324 313 312
3 324 323 313
3 325 311 310
3 325 312 311
3 325 324 312
3 326 310 309
3 326 325 310
3 319 326 309
3 334 330 331
3 334 331 332
3 334 332 333
3 328 327 329
3 328 329 330
3 328 330 334
3 346 328 334
3 345 346 334
3 344 345 334
3 343 344 334
3 342 343 334
3 341 342 334
3 356 337 357
3 358 357 337
3 355 337 356
3 359 358 337
3 354 337 355
3 360 337 338
3 360 359 337
3 362 360 338
3 362 338 339
3 363 339 340
3 363 362 339
3 364 340 341
3 364 341 334
3 364 363 340
3 365 364 334
3 336 351 350
3 336 352 351
3 336 353 352
3 336 354 353
3 349 336 350
3 366 365 334
3 348 336 349
3 367 366 334
3 347 336 348
3 361 336 347
3 335 367 334
3 335 336 361
3 335 368 367
3 335 369 368
3 335 370 369
3 335 371 370
3 335 372 371
3 335 373 372
3 335 374 373
3 335 361 374
3 336 337 354
3 383 384 385
3 383 385 392
3 382 392 391
3 382 383 392
3 381 391 390
3 381 382 391
3 380 390 389
3 380 381 390
3 379 380 389
3 378 389 388
3 378 379 389
3 377 388 387
3 377 378 388
3 376 387 386
3 376 377 387
3 375 376 386
3 396 395 403
3 414 397 396
3 414 403 404
3 414 396 403
3 415 404 405
3 415 405 406
3 415 397 414
3 415 414 404
3 416 406 407
3 416 407 408
3 416 408 409
3 416 409 410
3 416 415 406
3 416 410 415
3 417 398 397
3 417 399 398
3 418 417 397
3 418 397 415
3 418 399 417
3 418 415 410
3 419 410 411
3 419 418 410
3 419 411 418
3 420 400 399
3 420 401 400
3 421 420 399
3 421 401 420
3 421 418 411
3 421 399 418
3 422 411 412
3 422 412 421
3 422 421 411
3 423 402 401
3 423 394 402
3 424 393 394
3 424 401 421
3 424 423 401
3 424 421 412
3 424 394 423
3 425 412 413
3 425 413 393
3 425 393 424
3 425 424 412
3 426 435 428
3 426 436 435
3 426 427 436
3 429 426 428
3 430 426 429
3 433 434 426
3 432 433 426
3 431 426 430
3 431 432 426
3 445 446 447
3 445 447 455
3 444 455 454
3 444 445 455
3 443 454 453
3 443 444 454
3 442 453 452
3 442 443 453
3 441 452 451
3 441 442 452
3 440 450 449
3 440 451 450
3 440 441 451
3 439 449 448
3 439 440 449
3 438 448 437
3 438 439 448
3 457 478 456
3 457 479 478
3 460 458 459
3 461 458 460
3 462 458 461
3 471 470 485
3 486 457 458
3 486 462 463
3 486 463 464
3 486 464 465
3 486 480 479
3 486 481 480
3 486 482 481
3 486 479 457
3 486 458 462
3 487 467 468
3 487 484 483
3 488 465 466
3 488 466 467
3 488 482 486
3 488 486 465
3 489 483 482
3 489 467 487
3 489 487 483
3 489 482 488
3 489 488 467
3 490 487 468
3 490 484 487
3 491 485 484
3 491 484 490
3 492 468 469
3 492 477 476
3 492 469 477
3 492 491 490
3 492 490 468
3 493 472 471
3 493 473 472
3 493 474 473
3 493 475 474
3 493 476 475
3 493 492 476
3 493 485 491
3 493 471 485
3 493 491 492
3 502 494 496
3 502 496 497
3 502 497 498
3 502 498 499
3 502 499 500
3 502 500 501
3 495 494 502
3 509 503 510
3 508 503 509
3 504 506 505
3 504 507 506
3 504 508 507
3 504 503 508
3 511 502 503
3 511 495 502
3 511 503 504
3 515 514 517
3 515 519 518
3 515 517 519
3 516 518 512
3 516 515 518
3 513 516 512
3 527 529 528
3 527 530 529
3 526 531 530
3 526 530 527
3 525 532 531
3 525 531 526
3 524 533 532
3 524 532 525
3 523 534 533
3 523 533 524
3 522 520 534
3 522 534 523
3 521 520 522
3 544 535 536
3 545 536 537
3 545 544 536
3 546 537 538
3 546 545 537
3 547 538 539
3 547 546 538
3 548 539 540
3 548 547 539
3 549 540 541
3 549 548 540
3 550 541 542
3 550 549 541
3 543 550 542
3 559 560 561
3 559 561 567
3 558 559 567
3 557 567 566
3 557 558 567
3 556 566 565
3 556 557 566
3 555 565 564
3 555 556 565
3 554 564 563
3 554 555 564
3 553 563 562
3 553 554 563
3 552 562 551
3 552 553 562
3 589 587 588
3 608 569 568
3 608 568 576
3 609 570 569
3 609 569 608
3 610 571 570
3 610 570 609
3 611 572 571
3 611 571 610
3 612 573 572
3 612 572 611
3 613 574 573
3 613 575 574
3 613 596 575
3 613 573 612
3 614 576 577
3 614 608 576
3 615 609 608
3 615 608 614
3 616 610 609
3 616 609 615
3 617 610 616
3 617 611 610
3 618 612 611
3 618 611 617
3 619 597 596
3 619 612 618
3 619 613 612
3 619 596 613
3 620 577 578
3 620 614 577
3 621 614 620
3 621 615 614
3 622 615 621
3 622 616 615
3 623 617 616
3 623 616 622
3 624 617 623
3 624 618 617
3 625 618 624
3 625 598 597
3 625 619 618
3 625 597 619
3 626 578 579
3 626 620 578
3 627 620 626
3 627 621 620
3 628 621 627
3 628 622 621
3 629 622 628
3 629 623 622
3 630 624 623
3 630 623 629
3 631 599 598
3 631 624 630
3 631 625 624
3 631 598 625
3 632 579 580
3 632 626 579
3 633 627 626
3 633 626 632
3 634 628 627
3 634 629 628
3 634 627 633
3 635 629 634
3 636 629 635
3 636 630 629
3 636 631 630
3 637 600 599
3 637 599 631
3 637 631 636
3 638 580 581
3 638 632 580
3 639 633 632
3 639 632 638
3 640 633 639
3 640 634 633
3 641 635 634
3 641 636 635
3 641 634 640
3 642 636 641
3 643 601 600
3 643 600 637
3 643 637 636
3 643 636 642
3 644 581 582
3 644 638 581
3 645 639 638
3 645 638 644
3 646 640 639
3 646 639 645
3 647 641 640
3 647 640 646
3 648 641 647
3 648 642 641
3 649 602 601
3 649 601 643
3 649 643 642
3 649 642 648
3 650 582 583
3 650 644 582
3 651 645 644
3 651 644 650
3 652 645 651
3 652 646 645
3 653 646 652
3 653 647 646
3 654 647 653
3 654 648 647
3 655 648 654
3 655 603 602
3 655 604 603
3 655 602 649
3 655 649 648
3 656 583 584
3 656 650 583
3 657 652 651
3 657 650 656
3 657 651 650
3 658 652 657
3 659 653 652
3 659 652 658
3 660 654 653
3 660 653 659
3 661 654 660
3 661 604 655
3 661 655 654
3 661 605 604
3 662 584 585
3 662 656 584
3 663 657 656
3 663 658 657
3 663 656 662
3 664 658 663
3 665 659 658
3 665 660 659
3 665 658 664
3 666 660 665
3 667 660 666
3 667 661 660
3 667 605 661
3 668 662 585
3 668 585 586
3 669 663 662
3 669 662 668
3 670 664 663
3 670 663 669
3 671 664 670
3 671 665 664
3 672 666 665
3 672 665 671
3 673 667 666
3 673 606 605
3 673 605 667
3 673 666 672
3 674 587 589
3 674 586 587
3 674 668 586
3 675 589 590
3 675 674 589
3 675 669 668
3 675 668 674
3 676 590 591
3 676 675 590
3 676 669 675
3 676 670 669
3 677 591 592
3 677 671 670
3 677 672 671
3 677 676 591
3 677 670 676
3 678 592 593
3 678 593 594
3 678 677 592
3 678 672 677
3 679 594 595
3 679 607 606
3 679 595 607
3 679 606 673
3 679 673 672
3 679 678 594
3 679 672 678
3 687 688 689
3 687 689 695
3 686 695 694
3 686 687 695
3 685 694 693
3 685 686 694
3 684 693 692
3 684 685 693
3 683 692 691
3 683 684 692
3 682 691 690
3 682 683 691
3 681 690 680
3 681 682 690
3 703 704 705
3 703 705 711
3 702 711 710
3 702 703 711
3 701 710 709
3 701 702 710
3 700 709 708
3 700 701 709
3 699 708 707
3 699 700 708
3 698 707 706
3 698 699 707
3 697 706 696
3 697 698 706
3 740 719 718
3 733 731 732
3 752 713 712
3 752 712 720
3 753 714 713
3 753 713 752
3 754 715 714
3 754 714 753
3 755 716 715
3 755 715 754
3 756 717 716
3 756 716 755
3 757 718 717
3 757 740 718
3 757 717 756
3 758 720 721
3 758 752 720
3 759 753 752
3 759 752 758
3 760 754 753
3 760 753 759
3 761 754 760
3 761 755 754
3 762 756 755
3 762 755 761
3 763 741 740
3 763 757 756
3 763 756 762
3 763 740 757
3 764 721 722
3 764 758 721
3 765 758 764
3 765 759 758
3 766 759 765
3 766 760 759
3 767 761 760
3 767 760 766
3 768 761 767
3 768 762 761
3 769 762 768
3 769 742 741
3 769 763 762
3 769 741 763
3 770 764 722
3 770 722 723
3 771 764 770
3 771 765 764
3 772 765 771
3 772 766 765
3 773 766 772
3 773 767 766
3 774 767 773
3 774 768 767
3 775 769 768
3 775 742 769
3 775 743 742
3 775 768 774
3 776 723 724
3 776 770 723
3 777 770 776
3 777 771 770
3 778 773 772
3 778 772 771
3 778 771 777
3 779 773 778
3 780 773 779
3 780 774 773
3 780 775 774
3 781 744 743
3 781 743 775
3 781 775 780
3 782 724 725
3 782 776 724
3 783 777 776
3 783 776 782
3 784 777 783
3 784 778 777
3 785 779 778
3 785 780 779
3 785 778 784
3 786 780 785
3 787 745 744
3 787 744 781
3 787 781 780
3 787 780 786
3 788 725 726
3 788 782 725
3 789 783 782
3 789 782 788
3 790 784 783
3 790 783 789
3 791 784 790
3 791 785 784
3 792 786 785
3 792 785 791
3 793 746 745
3 793 745 787
3 793 787 786
3 793 786 792
3 794 726 727
3 794 788 726
3 795 788 794
3 795 789 788
3 796 789 795
3 796 790 789
3 797 790 796
3 797 791 790
3 798 791 797
3 798 792 791
3 799 792 798
3 799 747 746
3 799 748 747
3 799 746 793
3 799 793 792
3 800 727 728
3 800 794 727
3 801 795 794
3 801 796 795
3 801 794 800
3 802 796 801
3 803 797 796
3 803 796 802
3 804 797 803
3 804 798 797
3 805 748 799
3 805 799 798
3 805 798 804
3 805 749 748
3 806 728 729
3 806 800 728
3 807 800 806
3 807 801 800
3 807 802 801
3 808 802 807
3 809 804 803
3 809 802 808
3 809 803 802
3 810 804 809
3 811 805 804
3 811 749 805
3 811 804 810
3 812 729 730
3 812 806 729
3 813 807 806
3 813 806 812
3 814 807 813
3 814 808 807
3 815 809 808
3 815 808 814
3 816 809 815
3 816 810 809
3 817 750 749
3 817 811 810
3 817 749 811
3 817 810 816
3 818 731 733
3 818 730 731
3 818 812 730
3 819 812 818
3 819 733 734
3 819 818 733
3 819 813 812
3 820 819 734
3 820 734 735
3 820 814 813
3 820 813 819
3 821 735 736
3 821 816 815
3 821 815 814
3 821 820 735
3 821 814 820
3 822 816 821
3 822 736 737
3 822 737 738
3 822 821 736
3 823 822 738
3 823 738 739
3 823 751 750
3 823 739 751
3 823 816 822
3 823 750 817
3 823 817 816
3 836 827 826
3 828 827 836
3 837 828 836
3 829 828 837
3 843 840 841
3 843 841 842
3 848 831 830
3 848 832 831
3 849 830 829
3 849 848 830
3 849 832 848
3 850 849 829
3 850 829 837
3 851 837 838
3 851 850 837
3 852 838 839
3 852 851 838
3 853 839 840
3 853 840 843
3 853 852 839
3 854 843 844
3 854 844 853
3 854 853 843
3 855 844 845
3 855 849 850
3 855 852 853
3 855 850 851
3 855 853 844
3 855 851 852
3 855 832 849
3 856 855 845
3 857 845 846
3 857 856 845
3 858 846 847
3 858 857 846
3 859 858 847
3 860 824 825
3 860 847 824
3 860 859 847
3 861 833 832
3 861 855 856
3 861 832 855
3 862 833 861
3 862 856 857
3 862 861 856
3 863 834 833
3 863 857 858
3 863 833 862
3 863 862 857
3 864 858 859
3 864 834 863
3 864 863 858
3 865 864 859
3 866 859 860
3 866 865 859
3 867 866 860
3 867 860 825
3 868 834 864
3 868 864 865
3 869 868 865
3 869 835 834
3 869 834 868
3 869 865 866
3 870 867 825
3 870 869 866
3 870 825 835
3 870 866 867
3 870 835 869
3 887 872 871
3 887 873 872
3 888 874 873
3 888 873 887
3 889 875 874
3 889 874 888
3 890 876 875
3 890 875 889
3 891 877 876
3 891 876 890
3 892 878 877
3 892 877 891
3 893 879 878
3 893 878 892
3 894 880 879
3 894 879 893
3 895 881 880
3 895 880 894
3 896 882 881
3 896 881 895
3 897 883 882
3 897 882 896
3 898 884 883
3 898 883 897
3 886 885 884
3 886 884 898
3 902 900 899
3 902 901 900
3 919 904 903
3 919 905 904
3 920 906 905
3 920 905 919
3 921 907 906
3 921 906 920
3 922 908 907
3 922 907 921
3 923 909 908
3 923 908 922
3 924 910 909
3 924 909 923
3 925 911 910
3 925 910 924
3 926 912 911
3 926 911 925
3 927 913 912
3 927 912 926
3 928 914 913
3 928 913 927
3 929 915 914
3 929 914 928
3 930 916 915
3 930 917 916
3 930 915 929
3 918 917 930
3 934 932 931
3 934 933 932
3 936 937 935
3 939 940 938
3 954 941 940
3 954 942 941
3 954 940 939
3 953 943 942
3 953 944 943
3 953 942 954
3 952 945 944
3 952 946 945
3 952 947 946
3 952 944 953
3 951 948 947
3 951 947 952
3 950 949 948
3 950 948 951
3 955 957 956
3 971 958 957
3 971 957 955
3 972 959 958
3 972 958 971
3 973 960 959
3 973 959 972
3 974 961 960
3 974 960 973
3 975 962 961
3 975 961 974
3 976 963 962
3 976 962 975
3 977 964 963
3 977 963 976
3 978 965 964
3 978 964 977
3 979 966 965
3 979 965 978
3 980 967 966
3 980 966 979
3 981 968 967
3 981 967 980
3 982 969 968
3 982 968 981
3 970 969 982
3 986 984 983
3 986 985 984
3 990 988 987
3 990 989 988
3 991 993 992
3 1007 994 993
3 1007 993 991
3 1008 995 994
3 1008 994 1007
3 1009 996 995
3 1009 995 1008
3 1010 997 996
3 1010 996 1009
3 1011 998 997
3 1011 997 1010
3 1012 999 998
3 1012 998 1011
3 1013 1000 999
3 1013 999 1012
3 1014 1001 1000
3 1014 1000 1013
3 1015 1002 1001
3 1015 1001 1014
3 1016 1003 1002
3 1016 1002 1015
3 1017 1004 1003
3 1017 1003 1016
3 1018 1004 1017
3 1006 1005 1004
3 1006 1004 1018
3 1059 1033 1034
3 1059 1052 1033
3 1060 1034 1035
3 1060 1059 1034
3 1061 1035 1036
3 1061 1060 1035
3 1062 1036 1037
3 1062 1061 1036
3 1063 1037 1038
3 1063 1062 1037
3 1064 1032 1031
3 1064 1038 1039
3 1064 1039 1032
3 1064 1063 1038
3 1065 1051 1052
3 1065 1052 1059
3 1066 1059 1060
3 1066 1065 1059
3 1067 1066 1060
3 1067 1060 1061
3 1068 1061 1062
3 1068 1067 1061
3 1069 1068 1062
3 1069 1062 1063
3 1070 1031 1030
3 1070 1064 1031
3 1070 1063 1064
3 1070 1069 1063
3 1071 1049 1050
3 1071 1050 1051
3 1071 1051 1065
3 1072 1065 1066
3 1072 1071 1065
3 1073 1066 1067
3 1073 1072 1066
3 1074 1067 1068
3 1074 1073 1067
3 1075 1074 1068
3 1075 1068 1069
3 1076 1069 1070
3 1076 1030 1029
3 1076 1075 1069
3 1076 1070 1030
3 1077 1049 1071
3 1078 1077 1071
3 1078 1071 1072
3 1079 1078 1072
3 1079 1072 1073
3 1080 1073 1074
3 1080 1079 1073
3 1081 1074 1075
3 1081 1080 1074
3 1082 1029 1028
3 1082 1076 1029
3 1082 1075 1076
3 1082 1081 1075
3 1083 1048 1049
3 1083 1049 1077
3 1084 1077 1078
3 1084 1083 1077
3 1085 1084 1078
3 1085 1078 1079
3 1086 1079 1080
3 1086 1085 1079
3 1087 1080 1081
3 1087 1086 1080
3 1088 1028 1027
3 1088 1081 1082
3 1088 1087 1081
3 1088 1082 1028
3 1089 1047 1048
3 1089 1083 1084
3 1089 1048 1083
3 1090 1089 1084
3 1091 1084 1085
3 1091 1090 1084
3 1091 1085 1086
3 1092 1091 1086
3 1093 1086 1087
3 1093 1092 1086
3 1094 1027 1026
3 1094 1088 1027
3 1094 1087 1088
3 1094 1093 1087
3 1095 1045 1046
3 1095 1046 1047
3 1095 1047 1089
3 1096 1089 1090
3 1096 1095 1089
3 1097 1090 1091
3 1097 1096 1090
3 1098 1091 1092
3 1098 1097 1091
3 1099 1092 1093
3 1099 1098 1092
3 1100 1026 1025
3 1100 1094 1026
3 1100 1093 1094
3 1100 1099 1093
3 1101 1045 1095
3 1101 1095 1096
3 1102 1101 1096
3 1102 1096 1097
3 1103 1102 1097
3 1104 1098 1099
3 1104 1097 1098
3 1104 1103 1097
3 1105 1104 1099
3 1106 1099 1100
3 1106 1025 1024
3 1106 1105 1099
3 1106 1100 1025
3 1107 1043 1044
3 1107 1044 1045
3 1107 1045 1101
3 1108 1101 1102
3 1108 1107 1101
3 1109 1108 1102
3 1109 1102 1103
3 1110 1104 1105
3 1110 1109 1103
3 1110 1103 1104
3 1111 1110 1105
3 1112 1024 1023
3 1112 1106 1024
3 1112 1105 1106
3 1112 1111 1105
3 1113 1043 1107
3 1114 1108 1109
3 1114 1107 1108
3 1114 1113 1107
3 1115 1114 1109
3 1116 1109 1110
3 1116 1110 1111
3 1116 1115 1109
3 1117 1116 1111
3 1118 1023 1022
3 1118 1112 1023
3 1118 1111 1112
3 1118 1117 1111
3 1119 1042 1043
3 1119 1043 1113
3 1120 1113 1114
3 1120 1119 1113
3 1121 1114 1115
3 1121 1120 1114
3 1122 1115 1116
3 1122 1121 1115
3 1123 1116 1117
3 1123 1122 1116
3 1124 1022 1021
3 1124 1123 1117
3 1124 1118 1022
3 1124 1117 1118
3 1125 1040 1041
3 1125 1041 1042
3 1125 1053 1040
3 1125 1042 1119
3 1126 1053 1125
3 1126 1054 1053
3 1126 1119 1120
3 1126 1125 1119
3 1127 1055 1054
3 1127 1054 1126
3 1127 1126 1120
3 1127 1120 1121
3 1128 1056 1055
3 1128 1055 1127
3 1128 1121 1122
3 1128 1127 1121
3 1129 1128 1122
3 1129 1057 1056
3 1129 1122 1123
3 1129 1056 1128
3 1130 1020 1019
3 1130 1021 1020
3 1130 1058 1057
3 1130 1019 1058
3 1130 1124 1021
3 1130 1123 1124
3 1130 1057 1129
3 1130 1129 1123
3 1141 1132 1131
3 1141 1131 1140
3 1142 1133 1132
3 1142 1132 1141
3 1143 1134 1133
3 1143 1133 1142
3 1144 1135 1134
3 1144 1134 1143
3 1145 1136 1135
3 1145 1135 1144
3 1146 1137 1136
3 1146 1136 1145
3 1139 1138 1137
3 1139 1137 1146
3 1187 1161 1162
3 1187 1180 1161
3 1188 1162 1163
3 1188 1187 1162
3 1189 1163 1164
3 1189 1188 1163
3 1190 1164 1165
3 1190 1189 1164
3 1191 1165 1166
3 1191 1190 1165
3 1192 1160 1159
3 1192 1166 1167
3 1192 1167 1160
3 1192 1191 1166
3 1193 1179 1180
3 1193 1180 1187
3 1194 1187 1188
3 1194 1193 1187
3 1195 1194 1188
3 1195 1188 1189
3 1196 1189 1190
3 1196 1195 1189
3 1197 1196 1190
3 1197 1190 1191
3 1198 1159 1158
3 1198 1192 1159
3 1198 1191 1192
3 1198 1197 1191
3 1199 1177 1178
3 1199 1178 1179
3 1199 1179 1193
3 1200 1193 1194
3 1200 1199 1193
3 1201 1194 1195
3 1201 1200 1194
3 1202 1195 1196
3 1202 1201 1195
3 1203 1202 1196
3 1203 1196 1197
3 1204 1197 1198
3 1204 1158 1157
3 1204 1203 1197
3 1204 1198 1158
3 1205 1177 1199
3 1206 1205 1199
3 1206 1199 1200
3 1207 1206 1200
3 1207 1200 1201
3 1208 1201 1202
3 1208 1207 1201
3 1209 1202 1203
3 1209 1208 1202
3 1210 1157 1156
3 1210 1204 1157
3 1210 1203 1204
3 1210 1209 1203
3 1211 1176 1177
3 1211 1177 1205
3 1212 1205 1206
3 1212 1211 1205
3 1213 1212 1206
3 1213 1206 1207
3 1214 1207 1208
3 1214 1213 1207
3 1215 1208 1209
3 1215 1214 1208
3 1216 1156 1155
3 1216 1209 1210
3 1216 1215 1209
3 1216 1210 1156
3 1217 1175 1176
3 1217 1211 1212
3 1217 1176 1211
3 1218 1217 1212
3 1219 1212 1213
3 1219 1218 1212
3 1219 1213 1214
3 1220 1219 1214
3 1221 1214 1215
3 1221 1220 1214
3 1222 1155 1154
3 1222 1216 1155
3 1222 1215 1216
3 1222 1221 1215
3 1223 1173 1174
3 1223 1174 1175
3 1223 1175 1217
3 1224 1217 1218
3 1224 1223 1217
3 1225 1218 1219
3 1225 1224 1218
3 1226 1219 1220
3 1226 1225 1219
3 1227 1220 1221
3 1227 1226 1220
3 1228 1154 1153
3 1228 1222 1154
3 1228 1221 1222
3 1228 1227 1221
3 1229 1173 1223
3 1229 1223 1224
3 1230 1229 1224
3 1230 1224 1225
3 1231 1230 1225
3 1232 1226 1227
3 1232 1225 1226
3 1232 1231 1225
3 1233 1232 1227
3 1234 1227 1228
3 1234 1153 1152
3 1234 1233 1227
3 1234 1228 1153
3 1235 1171 1172
3 1235 1172 1173
3 1235 1173 1229
3 1236 1229 1230
3 1236 1235 1229
3 1237 1236 1230
3 1237 1230 1231
3 1238 1232 1233
3 1238 1237 1231
3 1238 1231 1232
3 1239 1238 1233
3 1240 1152 1151
3 1240 1234 1152
3 1240 1233 1234
3 1240 1239 1233
3 1241 1171 1235
3 1242 1236 1237
3 1242 1235 1236
3 1242 1241 1235
3 1243 1242 1237
3 1244 1237 1238
3 1244 1238 1239
3 1244 1243 1237
3 1245 1244 1239
3 1246 1151 1150
3 1246 1240 1151
3 1246 1239 1240
3 1246 1245 1239
3 1247 1170 1171
3 1247 1171 1241
3 1248 1241 1242
3 1248 1247 1241
3 1249 1242 1243
3 1249 1248 1242
3 1250 1243 1244
3 1250 1249 1243
3 1251 1244 1245
3 1251 1250 1244
3 1252 1150 1149
3 1252 1251 1245
3 1252 1246 1150
3 1252 1245 1246
3 1253 1168 1169
3 1253 1169 1170
3 1253 1181 1168
3 1253 1170 1247
3 1254 1181 1253
3 1254 1182 1181
3 1254 1247 1248
3 1254 1253 1247
3 1255 1183 1182
3 1255 1182 1254
3 1255 1254 1248
3 1255 1248 1249
3 1256 1184 1183
3 1256 1183 1255
3 1256 1249 1250
3 1256 1255 1249
3 1257 1256 1250
3 1257 1185 1184
3 1257 1250 1251
3 1257 1184 1256
3 1258 1148 1147
3 1258 1149 1148
3 1258 1186 1185
3 1258 1147 1186
3 1258 1252 1149
3 1258 1251 1252
3 1258 1185 1257
3 1258 1257 1251
3 1269 1260 1259
3 1269 1259 1268
3 1270 1261 1260
3 1270 1260 1269
3 1271 1262 1261
3 1271 1261 1270
3 1272 1263 1262
3 1272 1262 1271
3 1273 1264 1263
3 1273 1263 1272
3 1274 1265 1264
3 1274 1264 1273
3 1267 1266 1265
3 1267 1265 1274
3 1281 1282 1283
3 1291 1289 1290
3 1278 1279 1280
3 1278 1280 1281
3 1278 1283 1284
3 1278 1284 1285
3 1278 1285 1286
3 1278 1281 1283
3 1293 1291 1292
3 1275 1276 1277
3 1275 1277 1278
3 1275 1286 1287
3 1275 1287 1288
3 1275 1288 1289
3 1275 1278 1286
3 1302 1275 1289
3 1301 1289 1291
3 1301 1302 1289
3 1298 1294 1295
3 1298 1295 1296
3 1298 1296 1297
3 1299 1293 1294
3 1299 1300 1301
3 1299 1291 1293
3 1299 1294 1298
3 1299 1301 1291
3 1328 1326 1327
3 1322 1323 1324
3 1320 1321 1322
3 1320 1324 1325
3 1320 1325 1326
3 1320 1328 1329
3 1320 1326 1328
3 1320 1322 1324
3 1306 1304 1305
3 1318 1319 1320
3 1317 1329 1330
3 1317 1320 1329
3 1317 1318 1320
3 1309 1306 1307
3 1309 1307 1308
3 1316 1303 1304
3 1316 1330 1303
3 1316 1304 1306
3 1316 1317 1330
3 1316 1306 1309
3 1314 1315 1316
3 1312 1309 1310
3 1312 1310 1311
3 1313 1316 1309
3 1313 1314 1316
3 1313 1309 1312
