ply
format ascii 1.0
comment generated by blendit.inference.finetune_visualize
element vertex 412
property float x
property float y
property float z
property uchar red
property uchar green
property uchar blue
element face 350
property list uchar int vertex_indices
end_header
0 39.3006017 24.1840558 218 222 230
-2.22044605e-16 1.06278398 24.1840558 218 222 230
-2.22044605e-16 1.06278398 0 218 222 230
0 40.7834377 -2.22044605e-16 218 222 230
-2.22044605e-16 40.7834377 96.972305 218 222 230
0 40.3633857 96.972305 218 222 230
0 39.3006017 95.909521 218 222 230
0 39.327248 96.1460127 218 222 230
0 39.4058504 96.3706457 218 222 230
0 39.5324678 96.572156 218 222 230
0 39.7007508 96.740439 218 222 230
0 39.902261 96.8670563 218 222 230
0 40.126894 96.9456588 218 222 230
0 39.3006017 24.1840558 218 222 230
-2.22044605e-16 1.06278398 24.1840558 218 222 230
16.3687283 1.06278398 24.1840558 218 222 230
16.3687283 39.3006017 24.1840558 218 222 230
-2.22044605e-16 1.06278398 0 255 79 163
0.0266462133 0.826292296 0 255 79 163
0.105248701 0.601659293 0 255 79 163
0.231866005 0.400149007 0 255 79 163
0.400149007 0.231866005 0 255 79 163
0.601659293 0.105248701 0 255 79 163
0.826292296 0.0266462133 0 255 79 163
1.06278398 -2.22044605e-16 0 255 79 163
1.06278398 -2.22044605e-16 23.1212718 255 79 163
-2.22044605e-16 1.06278398 24.1840558 255 79 163
0.0149960221 0.884878995 24.1690598 255 79 163
0.0595608968 0.711994536 24.1244949 255 79 163
0.132436991 0.549009448 24.0516188 255 79 163
0.231567724 0.400523213 23.9524881 255 79 163
0.354155598 0.270726151 23.8299002 255 79 163
0.496741152 0.16328117 23.6873147 255 79 163
0.710940709 0.0599300019 23.4731151 255 79 163
0.884328599 0.0150896232 23.2997272 255 79 163
16.3687283 39.3006017 95.909521 218 222 230
16.3687283 39.3006017 24.1840558 218 222 230
0 39.3006017 24.1840558 218 222 230
0 39.3006017 95.909521 218 222 230
-2.22044605e-16 1.06278398 0 218 222 230
0 40.7834377 -2.22044605e-16 218 222 230
0.0266462133 0.826292296 0 218 222 230
0.105248701 0.601659293 0 218 222 230
0.231866005 0.400149007 0 218 222 230
0.400149007 0.231866005 0 218 222 230
0.601659293 0.105248701 0 218 222 230
0.826292296 0.0266462133 0 218 222 230
1.06278398 -2.22044605e-16 0 218 222 230
40.9204351 0 -2.22044605e-16 218 222 230
40.9204351 40.7834377 -2.22044605e-16 218 222 230
17.4315123 40.3633857 96.972305 255 79 163
17.1564436 40.088317 96.9360915 255 79 163
16.9001203 39.8319937 96.829919 255 79 163
16.6800105 39.611884 96.6610228 255 79 163
16.52534 39.4572134 96.4648241 255 79 163
16.436455 39.3683284 96.2828449 255 79 163
16.3872882 39.3191616 96.1072728 255 79 163
16.3733785 39.3052519 96.0088315 255 79 163
16.3687283 39.3006017 95.909521 255 79 163
0 40.3633857 96.972305 255 79 163
0 39.3006017 95.909521 255 79 163
0 39.327248 96.1460127 255 79 163
0 39.4058504 96.3706457 255 79 163
0 39.5324678 96.572156 255 79 163
0 39.7007508 96.740439 255 79 163
0 39.902261 96.8670563 255 79 163
0 40.126894 96.9456588 255 79 163
0 40.7834377 -2.22044605e-16 255 79 163
-2.22044605e-16 40.7834377 96.972305 255 79 163
0.0149960221 40.9613427 96.957309 255 79 163
0.0595608968 41.1342271 96.9127441 255 79 163
0.132436991 41.2972122 96.839868 255 79 163
0.231567724 41.4456985 96.7407373 255 79 163
0.354155598 41.5754955 96.6181494 255 79 163
0.496741152 41.6829405 96.4755639 255 79 163
0.710940709 41.7862917 96.2613643 255 79 163
0.884328599 41.831132 96.0879764 255 79 163
1.06278398 41.8462217 95.909521 255 79 163
1.06278398 41.8462217 1.06278398 255 79 163
0.787715245 41.8100082 0.787715245 255 79 163
0.53139199 41.7038356 0.53139199 255 79 163
0.311282221 41.5349395 0.311282221 255 79 163
0.156611673 41.3387408 0.156611673 255 79 163
0.0677266648 41.1567616 0.0677266648 255 79 163
0.0185598618 40.9811895 0.0185598618 255 79 163
0.00465013864 40.8827481 0.00465013864 255 79 163
0 40.3633857 96.972305 218 222 230
-2.22044605e-16 40.7834377 96.972305 218 222 230
17.4315123 40.3633857 96.972305 218 222 230
17.4315123 5.84586765 96.972305 218 222 230
40.9204351 5.84586765 96.972305 218 222 230
40.9204351 40.7834377 96.972305 218 222 230
1.06278398 -2.22044605e-16 23.1212718 255 79 163
16.3687283 -2.22044605e-16 23.1212718 255 79 163
16.3687283 0.0266462133 23.3577635 255 79 163
16.3687283 0.105248701 23.5823965 255 79 163
16.3687283 0.231866005 23.7839068 255 79 163
16.3687283 0.400149007 23.9521898 255 79 163
16.3687283 0.601659293 24.0788071 255 79 163
16.3687283 0.826292296 24.1574096 255 79 163
16.3687283 1.06278398 24.1840558 255 79 163
-2.22044605e-16 1.06278398 24.1840558 255 79 163
0.0149960221 0.884878995 24.1690598 255 79 163
0.0595608968 0.711994536 24.1244949 255 79 163
0.132436991 0.549009448 24.0516188 255 79 163
0.231567724 0.400523213 23.9524881 255 79 163
0.354155598 0.270726151 23.8299002 255 79 163
0.496741152 0.16328117 23.6873147 255 79 163
0.710940709 0.0599300019 23.4731151 255 79 163
0.884328599 0.0150896232 23.2997272 255 79 163
16.3687283 4.78308367 95.909521 218 222 230
16.3687283 4.78308367 87.9728843 218 222 230
16.3687283 0 87.9728843 218 222 230
16.3687283 0 24.1840558 218 222 230
16.3687283 -2.22044605e-16 23.1212718 218 222 230
16.3687283 0.0266462133 23.3577635 218 222 230
16.3687283 0.105248701 23.5823965 218 222 230
16.3687283 0.231866005 23.7839068 218 222 230
16.3687283 0.400149007 23.9521898 218 222 230
16.3687283 0.601659293 24.0788071 218 222 230
16.3687283 0.826292296 24.1574096 218 222 230
16.3687283 1.06278398 24.1840558 218 222 230
16.3687283 39.3006017 24.1840558 218 222 230
16.3687283 39.3006017 95.909521 218 222 230
16.3687283 18.7773655 94.3330669 218 222 230
16.3687283 15.1653118 94.3330669 218 222 230
16.3687283 18.7773655 92.3330669 218 222 230
16.3687283 15.1653118 92.3330669 218 222 230
41.983219 0 1.06278398 218 222 230
41.983219 -2.22044605e-16 86.5110372 218 222 230
40.9204351 0 -2.22044605e-16 218 222 230
41.1569268 0 0.0266462133 218 222 230
41.3815598 0 0.105248701 218 222 230
41.58307 0 0.231866005 218 222 230
41.751353 0 0.400149007 218 222 230
41.8779703 0 0.601659293 218 222 230
41.9565728 0 0.826292296 218 222 230
1.06278398 -2.22044605e-16 0 218 222 230
1.06278398 -2.22044605e-16 23.1212718 218 222 230
16.3687283 -2.22044605e-16 23.1212718 218 222 230
16.3687283 0 24.1840558 218 222 230
16.3687283 0 87.9728843 218 222 230
29.1759737 0 75.8771984 218 222 230
29.9498957 -2.22044605e-16 75.1462748 218 222 230
38.5521264 0 49.5194774 218 222 230
39.8965983 0 49.5194774 218 222 230
40.1330899 0 49.5461236 218 222 230
40.3577229 0 49.6247261 218 222 230
40.5592332 0 49.7513434 218 222 230
40.7275162 0 49.9196264 218 222 230
40.8541335 0 50.1211367 218 222 230
40.932736 0 50.3457697 218 222 230
40.9593822 0 50.5822613 218 222 230
40.9593822 0 50.6158873 218 222 230
39.8965983 0 51.6786713 218 222 230
40.1330899 0 51.6520251 218 222 230
40.3577229 0 51.5734226 218 222 230
40.5592332 0 51.4468053 218 222 230
40.7275162 0 51.2785223 218 222 230
40.8541335 0 51.077012 218 222 230
40.932736 0 50.852379 218 222 230
38.5521264 0 51.6786713 218 222 230
1.06278398 41.8462217 1.06278398 255 79 163
41.983219 41.8462217 1.06278398 255 79 163
41.968223 41.8312256 0.884878995 255 79 163
41.9236582 41.7866608 0.711994536 255 79 163
41.8507821 41.7137847 0.549009448 255 79 163
41.7516513 41.6146539 0.400523213 255 79 163
41.6290635 41.4920661 0.270726151 255 79 163
41.4864779 41.3494805 0.16328117 255 79 163
41.2722783 41.135281 0.0599300019 255 79 163
41.0988904 40.9618931 0.0150896232 255 79 163
40.9204351 40.7834377 -2.22044605e-16 255 79 163
0 40.7834377 -2.22044605e-16 255 79 163
0.787715245 41.8100082 0.787715245 255 79 163
0.53139199 41.7038356 0.53139199 255 79 163
0.311282221 41.5349395 0.311282221 255 79 163
0.156611673 41.3387408 0.156611673 255 79 163
0.0677266648 41.1567616 0.0677266648 255 79 163
0.0185598618 40.9811895 0.0185598618 255 79 163
0.00465013864 40.8827481 0.00465013864 255 79 163
40.9204351 0 -2.22044605e-16 255 79 163
40.9204351 40.7834377 -2.22044605e-16 255 79 163
41.983219 41.8462217 1.06278398 255 79 163
41.968223 41.8312256 0.884878995 255 79 163
41.9236582 41.7866608 0.711994536 255 79 163
41.8507821 41.7137847 0.549009448 255 79 163
41.7516513 41.6146539 0.400523213 255 79 163
41.6290635 41.4920661 0.270726151 255 79 163
41.4864779 41.3494805 0.16328117 255 79 163
41.2722783 41.135281 0.0599300019 255 79 163
41.0988904 40.9618931 0.0150896232 255 79 163
41.983219 0 1.06278398 255 79 163
41.1569268 0 0.0266462133 255 79 163
41.3815598 0 0.105248701 255 79 163
41.58307 0 0.231866005 255 79 163
41.751353 0 0.400149007 255 79 163
41.8779703 0 0.601659293 255 79 163
41.9565728 0 0.826292296 255 79 163
17.4315123 5.84586765 96.972305 255 79 163
17.4315123 40.3633857 96.972305 255 79 163
17.1564436 40.088317 96.9360915 255 79 163
16.9001203 39.8319937 96.829919 255 79 163
16.6800105 39.611884 96.6610228 255 79 163
16.52534 39.4572134 96.4648241 255 79 163
16.436455 39.3683284 96.2828449 255 79 163
16.3872882 39.3191616 96.1072728 255 79 163
16.3733785 39.3052519 96.0088315 255 79 163
16.3687283 39.3006017 95.909521 255 79 163
16.3687283 4.78308367 95.909521 255 79 163
17.1564436 5.57079892 96.9360915 255 79 163
16.9001203 5.31447566 96.829919 255 79 163
16.6800105 5.09436589 96.6610228 255 79 163
16.52534 4.93969534 96.4648241 255 79 163
16.436455 4.85081034 96.2828449 255 79 163
16.3872882 4.80164353 96.1072728 255 79 163
16.3733785 4.78773381 96.0088315 255 79 163
41.983219 41.8462217 1.06278398 218 222 230
41.983219 41.8462217 95.909521 218 222 230
1.06278398 41.8462217 1.06278398 218 222 230
1.06278398 41.8462217 95.909521 218 222 230
-2.22044605e-16 40.7834377 96.972305 255 79 163
40.9204351 40.7834377 96.972305 255 79 163
41.1955038 41.0585064 96.9360915 255 79 163
41.4518271 41.3148297 96.829919 255 79 163
41.6719368 41.5349395 96.6610228 255 79 163
41.8266074 41.68961 96.4648241 255 79 163
41.9154924 41.778495 96.2828449 255 79 163
41.9646592 41.8276618 96.1072728 255 79 163
41.9785689 41.8415715 96.0088315 255 79 163
41.983219 41.8462217 95.909521 255 79 163
1.06278398 41.8462217 95.909521 255 79 163
0.0149960221 40.9613427 96.957309 255 79 163
0.0595608968 41.1342271 96.9127441 255 79 163
0.132436991 41.2972122 96.839868 255 79 163
0.231567724 41.4456985 96.7407373 255 79 163
0.354155598 41.5754955 96.6181494 255 79 163
0.496741152 41.6829405 96.4755639 255 79 163
0.710940709 41.7862917 96.2613643 255 79 163
0.884328599 41.831132 96.0879764 255 79 163
40.9204351 5.84586765 96.972305 255 79 163
41.1955038 5.57079892 96.9360915 255 79 163
41.4518271 5.31447566 96.829919 255 79 163
41.6719368 5.09436589 96.6610228 255 79 163
41.8266074 4.93969534 96.4648241 255 79 163
41.9154924 4.85081034 96.2828449 255 79 163
41.9646592 4.80164353 96.1072728 255 79 163
41.9785689 4.78773381 96.0088315 255 79 163
41.983219 4.78308367 95.909521 255 79 163
41.983219 41.8462217 95.909521 255 79 163
40.9204351 40.7834377 96.972305 255 79 163
41.1955038 41.0585064 96.9360915 255 79 163
41.4518271 41.3148297 96.829919 255 79 163
41.6719368 41.5349395 96.6610228 255 79 163
41.8266074 41.68961 96.4648241 255 79 163
41.9154924 41.778495 96.2828449 255 79 163
41.9646592 41.8276618 96.1072728 255 79 163
41.9785689 41.8415715 96.0088315 255 79 163
40.9204351 5.84586765 96.972305 255 79 163
17.4315123 5.84586765 96.972305 255 79 163
17.1564436 5.57079892 96.9360915 255 79 163
16.9001203 5.31447566 96.829919 255 79 163
16.6800105 5.09436589 96.6610228 255 79 163
16.52534 4.93969534 96.4648241 255 79 163
16.436455 4.85081034 96.2828449 255 79 163
16.3872882 4.80164353 96.1072728 255 79 163
16.3733785 4.78773381 96.0088315 255 79 163
16.3687283 4.78308367 95.909521 255 79 163
41.983219 4.78308367 95.909521 255 79 163
41.1955038 5.57079892 96.9360915 255 79 163
41.4518271 5.31447566 96.829919 255 79 163
41.6719368 5.09436589 96.6610228 255 79 163
41.8266074 4.93969534 96.4648241 255 79 163
41.9154924 4.85081034 96.2828449 255 79 163
41.9646592 4.80164353 96.1072728 255 79 163
41.9785689 4.78773381 96.0088315 255 79 163
41.983219 4.78308367 87.9728843 218 222 230
41.983219 4.78308367 95.909521 218 222 230
16.3687283 4.78308367 95.909521 218 222 230
16.3687283 4.78308367 87.9728843 218 222 230
29.1759737 4.78308367 75.8771984 218 222 230
29.1759737 1.06278398 75.8771984 218 222 230
29.1759737 4.78308367 75.8771984 218 222 230
29.9498957 -2.22044605e-16 75.1462748 218 222 230
29.7692272 0.0293648059 75.3169056 218 222 230
29.5985424 0.11583652 75.4781072 218 222 230
29.4472736 0.254636701 75.6209717 218 222 230
29.3237796 0.43809523 75.7376044 218 222 230
29.234885 0.656074158 75.8215602 218 222 230
29.1908444 0.855445111 75.8631539 218 222 230
29.1759737 0 75.8771984 218 222 230
16.3687283 0 87.9728843 218 222 230
16.3687283 4.78308367 87.9728843 218 222 230
41.983219 18.7773655 94.3330669 218 222 230
41.983219 15.1653118 94.3330669 218 222 230
16.3687283 18.7773655 94.3330669 218 222 230
16.3687283 15.1653118 94.3330669 218 222 230
41.983219 15.1653118 94.3330669 218 222 230
41.983219 15.1653118 92.3330669 218 222 230
16.3687283 15.1653118 94.3330669 218 222 230
16.3687283 15.1653118 92.3330669 218 222 230
41.983219 15.1653118 92.3330669 218 222 230
41.983219 18.7773655 92.3330669 218 222 230
16.3687283 15.1653118 92.3330669 218 222 230
16.3687283 18.7773655 92.3330669 218 222 230
41.983219 18.7773655 92.3330669 218 222 230
41.983219 18.7773655 94.3330669 218 222 230
16.3687283 18.7773655 92.3330669 218 222 230
16.3687283 18.7773655 94.3330669 218 222 230
41.983219 0 1.06278398 218 222 230
41.983219 -2.22044605e-16 86.5110372 218 222 230
41.983219 41.8462217 1.06278398 218 222 230
41.983219 41.8462217 95.909521 218 222 230
41.983219 4.78308367 95.909521 218 222 230
41.983219 4.78308367 87.9728843 218 222 230
41.983219 1.06278398 87.9728843 218 222 230
41.983219 0.0362134859 86.8893911 218 222 230
41.983219 0.142386054 87.2419608 218 222 230
41.983219 0.311282221 87.5447192 218 222 230
41.983219 0.507480876 87.7574668 218 222 230
41.983219 0.71064338 87.8903078 218 222 230
41.983219 0.88417328 87.9520923 218 222 230
41.983219 18.7773655 94.3330669 218 222 230
41.983219 15.1653118 94.3330669 218 222 230
41.983219 18.7773655 92.3330669 218 222 230
41.983219 15.1653118 92.3330669 218 222 230
29.9498957 -2.22044605e-16 75.1462748 255 79 163
41.983219 -2.22044605e-16 86.5110372 255 79 163
41.983219 0.0362134859 86.8893911 255 79 163
41.983219 0.142386054 87.2419608 255 79 163
41.983219 0.311282221 87.5447192 255 79 163
41.983219 0.507480876 87.7574668 255 79 163
41.983219 0.71064338 87.8903078 255 79 163
41.983219 0.88417328 87.9520923 255 79 163
41.983219 1.06278398 87.9728843 255 79 163
29.1759737 1.06278398 75.8771984 255 79 163
29.7692272 0.0293648059 75.3169056 255 79 163
29.5985424 0.11583652 75.4781072 255 79 163
29.4472736 0.254636701 75.6209717 255 79 163
29.3237796 0.43809523 75.7376044 255 79 163
29.234885 0.656074158 75.8215602 255 79 163
29.1908444 0.855445111 75.8631539 255 79 163
38.5521264 0 49.5194774 218 222 230
39.8965983 0 49.5194774 218 222 230
38.5521264 14.6532494 49.5194774 218 222 230
39.8965983 14.6532494 49.5194774 218 222 230
39.8965983 0 49.5194774 218 222 230
39.8965983 14.6532494 49.5194774 218 222 230
40.1330899 14.6532494 49.5461236 218 222 230
40.3577229 14.6532494 49.6247261 218 222 230
40.5592332 14.6532494 49.7513434 218 222 230
40.7275162 14.6532494 49.9196264 218 222 230
40.8541335 14.6532494 50.1211367 218 222 230
40.932736 14.6532494 50.3457697 218 222 230
40.9593822 14.6532494 50.5822613 218 222 230
40.9593822 0 50.5822613 218 222 230
40.1330899 0 49.5461236 218 222 230
40.3577229 0 49.6247261 218 222 230
40.5592332 0 49.7513434 218 222 230
40.7275162 0 49.9196264 218 222 230
40.8541335 0 50.1211367 218 222 230
40.932736 0 50.3457697 218 222 230
38.5521264 0 51.6786713 218 222 230
38.5521264 14.6532494 51.6786713 218 222 230
38.5521264 14.6532494 49.5194774 218 222 230
38.5521264 0 49.5194774 218 222 230
40.9593822 0 50.5822613 218 222 230
40.9593822 0 50.6158873 218 222 230
40.9593822 14.6532494 50.5822613 218 222 230
40.9593822 14.6532494 50.6158873 218 222 230
39.8965983 0 51.6786713 218 222 230
38.5521264 0 51.6786713 218 222 230
39.8965983 14.6532494 51.6786713 218 222 230
38.5521264 14.6532494 51.6786713 218 222 230
39.8965983 0 51.6786713 218 222 230
40.1330899 0 51.6520251 218 222 230
40.3577229 0 51.5734226 218 222 230
40.5592332 0 51.4468053 218 222 230
40.7275162 0 51.2785223 218 222 230
40.8541335 0 51.077012 218 222 230
40.932736 0 50.852379 218 222 230
40.9593822 0 50.6158873 218 222 230
40.9593822 14.6532494 50.6158873 218 222 230
39.8965983 14.6532494 51.6786713 218 222 230
40.1330899 14.6532494 51.6520251 218 222 230
40.3577229 14.6532494 51.5734226 218 222 230
40.5592332 14.6532494 51.4468053 218 222 230
40.7275162 14.6532494 51.2785223 218 222 230
40.8541335 14.6532494 51.077012 218 222 230
40.932736 14.6532494 50.852379 218 222 230
29.1759737 1.06278398 75.8771984 218 222 230
29.1759737 4.78308367 75.8771984 218 222 230
41.983219 4.78308367 87.9728843 218 222 230
41.983219 1.06278398 87.9728843 218 222 230
40.9593822 14.6532494 50.5822613 218 222 230
40.9593822 14.6532494 50.6158873 218 222 230
39.8965983 14.6532494 51.6786713 218 222 230
40.1330899 14.6532494 51.6520251 218 222 230
40.3577229 14.6532494 51.5734226 218 222 230
40.5592332 14.6532494 51.4468053 218 222 230
40.7275162 14.6532494 51.2785223 218 222 230
40.8541335 14.6532494 51.077012 218 222 230
40.932736 14.6532494 50.852379 218 222 230
38.5521264 14.6532494 51.6786713 218 222 230
38.5521264 14.6532494 49.5194774 218 222 230
39.8965983 14.6532494 49.5194774 218 222 230
40.1330899 14.6532494 49.5461236 218 222 230
40.3577229 14.6532494 49.6247261 218 222 230
40.5592332 14.6532494 49.7513434 218 222 230
40.7275162 14.6532494 49.9196264 218 222 230
40.8541335 14.6532494 50.1211367 218 222 230
40.932736 14.6532494 50.3457697 218 222 230
3 2 0 3
3 1 0 2
3 6 5 4
3 6 4 0
3 9 6 7
3 9 7 8
3 9 12 5
3 9 5 6
3 10 11 12
3 10 12 9
3 3 0 4
3 16 13 14
3 16 14 15
3 27 17 18
3 27 26 17
3 28 18 19
3 28 27 18
3 29 19 20
3 29 28 19
3 30 29 20
3 31 20 21
3 31 30 20
3 32 21 22
3 32 31 21
3 33 22 23
3 33 32 22
3 34 23 24
3 34 33 23
3 25 34 24
3 35 37 36
3 38 37 35
3 46 45 44
3 39 42 41
3 39 43 42
3 39 44 43
3 39 47 46
3 39 46 44
3 49 39 40
3 49 48 47
3 49 47 39
3 60 58 57
3 61 56 55
3 61 57 56
3 61 60 57
3 62 55 54
3 62 61 55
3 63 54 53
3 63 62 54
3 64 53 52
3 64 63 53
3 65 52 51
3 65 64 52
3 66 51 50
3 66 65 51
3 59 66 50
3 76 77 78
3 76 78 79
3 75 79 80
3 75 76 79
3 74 75 80
3 73 80 81
3 73 74 80
3 72 81 82
3 72 73 81
3 71 82 83
3 71 72 82
3 70 83 84
3 70 71 83
3 69 84 85
3 69 70 84
3 68 85 67
3 68 69 85
3 88 87 86
3 88 89 90
3 91 88 90
3 91 87 88
3 100 101 102
3 99 102 103
3 99 100 102
3 98 103 104
3 98 99 103
3 97 104 105
3 97 105 106
3 97 98 104
3 96 106 107
3 96 97 106
3 95 107 108
3 95 96 107
3 94 108 109
3 94 95 108
3 93 109 92
3 93 94 109
3 113 115 114
3 113 116 115
3 113 117 116
3 118 117 113
3 119 118 113
3 120 119 113
3 121 120 113
3 112 121 113
3 111 122 121
3 111 121 112
3 127 111 110
3 125 127 110
3 126 111 127
3 126 122 111
3 123 126 124
3 123 122 126
3 123 125 110
3 123 124 125
3 139 138 137
3 130 139 137
3 133 130 131
3 133 131 132
3 134 130 133
3 135 130 134
3 128 135 136
3 128 140 139
3 128 139 130
3 128 130 135
3 145 140 128
3 145 144 140
3 146 145 128
3 147 146 128
3 161 140 144
3 148 147 128
3 149 148 128
3 150 149 128
3 142 140 161
3 143 154 155
3 143 155 156
3 143 161 154
3 143 142 161
3 129 156 157
3 129 157 158
3 129 158 159
3 129 143 156
3 129 153 128
3 153 152 128
3 152 151 128
3 151 150 128
3 129 160 153
3 129 159 160
3 140 142 141
3 172 173 180
3 171 180 179
3 171 172 180
3 170 179 178
3 170 171 179
3 169 178 177
3 169 170 178
3 168 177 176
3 168 169 177
3 167 176 175
3 167 168 176
3 166 167 175
3 165 175 174
3 165 166 175
3 164 174 162
3 164 165 174
3 163 164 162
3 184 183 192
3 184 192 198
3 185 198 197
3 185 184 198
3 186 197 196
3 186 185 197
3 187 186 196
3 188 196 195
3 188 187 196
3 189 195 194
3 189 188 195
3 190 194 193
3 190 189 194
3 191 193 181
3 191 190 193
3 182 191 181
3 208 209 216
3 207 216 215
3 207 208 216
3 206 215 214
3 206 207 215
3 205 214 213
3 205 206 214
3 204 213 212
3 204 205 213
3 203 212 211
3 203 204 212
3 202 211 210
3 202 203 211
3 201 210 199
3 201 202 210
3 200 201 199
3 218 217 219
3 218 219 220
3 229 230 231
3 229 231 239
3 228 239 238
3 228 229 239
3 227 238 237
3 227 228 238
3 226 237 236
3 226 227 237
3 225 236 235
3 225 226 236
3 224 234 233
3 224 235 234
3 224 225 235
3 223 233 232
3 223 224 233
3 222 232 221
3 222 223 232
3 251 240 241
3 251 250 240
3 252 241 242
3 252 251 241
3 253 242 243
3 253 252 242
3 254 243 244
3 254 253 243
3 255 244 245
3 255 254 244
3 256 245 246
3 256 255 245
3 257 246 247
3 257 256 246
3 249 247 248
3 249 257 247
3 266 267 268
3 266 268 275
3 265 275 274
3 265 266 275
3 264 274 273
3 264 265 274
3 263 273 272
3 263 264 273
3 262 271 270
3 262 272 271
3 262 263 272
3 261 270 269
3 261 262 270
3 260 269 258
3 260 261 269
3 259 260 258
3 276 277 278
3 276 278 279
3 276 279 280
3 281 292 291
3 281 282 292
3 290 287 288
3 290 288 289
3 290 289 281
3 290 281 291
3 286 287 290
3 285 286 290
3 284 285 290
3 283 284 290
3 294 295 293
3 294 296 295
3 298 299 297
3 298 300 299
3 302 303 301
3 302 304 303
3 306 307 305
3 306 308 307
3 324 311 312
3 322 324 312
3 314 309 311
3 314 324 325
3 314 311 324
3 310 309 314
3 315 316 310
3 315 310 314
3 317 316 315
3 320 315 321
3 318 317 315
3 319 315 320
3 319 318 315
3 313 323 322
3 313 325 323
3 313 314 325
3 312 313 322
3 333 334 335
3 333 335 341
3 332 341 340
3 332 333 341
3 331 340 339
3 331 332 340
3 330 339 338
3 330 331 339
3 329 338 337
3 329 330 338
3 328 337 336
3 328 329 337
3 327 336 326
3 327 328 336
3 343 344 342
3 343 345 344
3 353 355 354
3 353 361 355
3 352 359 360
3 352 360 361
3 352 361 353
3 351 359 352
3 350 358 359
3 350 359 351
3 349 357 358
3 349 358 350
3 348 356 357
3 348 357 349
3 347 346 356
3 347 356 348
3 365 363 362
3 365 364 363
3 367 368 366
3 367 369 368
3 371 372 370
3 371 373 372
3 384 375 374
3 384 374 383
3 385 376 375
3 385 375 384
3 386 377 376
3 386 376 385
3 387 378 377
3 387 377 386
3 388 379 378
3 388 378 387
3 389 380 379
3 389 379 388
3 382 381 380
3 382 380 389
3 393 391 390
3 393 392 391
3 398 397 396
3 399 398 396
3 400 399 396
3 401 400 396
3 402 401 396
3 395 402 396
3 405 396 403
3 405 403 404
3 394 396 405
3 394 395 396
3 410 411 394
3 408 405 406
3 408 406 407
3 408 409 410
3 408 394 405
3 408 410 394
