ply
format ascii 1.0
comment generated by blendit.inference.finetune_visualize
element vertex 1219
property float x
property float y
property float z
property uchar red
property uchar green
property uchar blue
element face 1566
property list uchar int vertex_indices
end_header
-2.22044605e-16 1.5764746 38.1252107 218 222 230
-3.10487082e-15 36.3759664 38.1252107 218 222 230
-2.22044605e-16 1.5764746 0 218 222 230
0 68.6037508 -2.22044605e-16 218 222 230
-2.22044605e-16 68.6037508 27.6366941 218 222 230
2.63306487e-16 48.9519596 27.6366941 218 222 230
0 48.9519596 31.9368154 218 222 230
-5.92014795e-15 37.952441 31.9368154 218 222 230
-6.20974164e-15 36.3759664 33.51329 218 222 230
0 36.415492 33.1624914 218 222 230
0 36.5320865 32.8292833 218 222 230
0 36.7199036 32.5303742 218 222 230
0 36.9695252 32.2807525 218 222 230
0 37.2684343 32.0929355 218 222 230
0 37.6016424 31.9763409 218 222 230
-2.22044605e-16 1.5764746 38.1252107 218 222 230
-3.10487082e-15 36.3759664 38.1252107 218 222 230
0.0395255096 1.225676 38.1252107 218 222 230
0.156120064 0.892467905 38.1252107 218 222 230
0.343937126 0.593558763 38.1252107 218 222 230
0.593558763 0.343937126 38.1252107 218 222 230
0.892467905 0.156120064 38.1252107 218 222 230
1.225676 0.0395255096 38.1252107 218 222 230
1.5764746 -2.22044605e-16 38.1252107 218 222 230
64.0887375 0 38.1252107 218 222 230
64.0887375 68.6037508 38.1252107 218 222 230
33.7674792 68.6037508 38.1252107 218 222 230
3.21529206 36.5292251 38.1252107 218 222 230
6.40142972 36.9876114 38.1252107 218 222 230
9.52952295 37.7469691 38.1252107 218 222 230
12.571208 38.8004126 38.1252107 218 222 230
15.4989047 40.1383899 38.1252107 218 222 230
18.2860663 41.7487692 38.1252107 218 222 230
20.9074206 43.6169483 38.1252107 218 222 230
23.3391985 45.7259878 38.1252107 218 222 230
25.5593501 48.056764 38.1252107 218 222 230
27.5477445 50.5881429 38.1252107 218 222 230
29.286352 53.2971714 38.1252107 218 222 230
30.7594079 56.1592856 38.1252107 218 222 230
31.9535553 59.1485335 38.1252107 218 222 230
32.8579666 62.2378103 38.1252107 218 222 230
33.464441 65.3991044 38.1252107 218 222 230
50.0115937 55.8496869 38.1252107 218 222 230
49.9943884 55.9971381 38.1252107 218 222 230
49.9429332 56.1432127 38.1252107 218 222 230
49.8577084 56.2865471 38.1252107 218 222 230
49.7395097 56.4258029 38.1252107 218 222 230
49.5325689 56.6028932 38.1252107 218 222 230
49.2363855 56.7870478 38.1252107 218 222 230
48.7477216 57.0013786 38.1252107 218 222 230
47.8521663 57.2403584 38.1252107 218 222 230
46.6964993 57.3697857 38.1252107 218 222 230
45.116691 57.2930048 38.1252107 218 222 230
43.8496679 56.9814647 38.1252107 218 222 230
43.1594119 56.6318211 38.1252107 218 222 230
42.9092882 56.4231243 38.1252107 218 222 230
42.7736025 56.2575691 38.1252107 218 222 230
42.6785255 56.0704995 38.1252107 218 222 230
42.6428791 55.9118409 38.1252107 218 222 230
42.6455894 55.7642939 38.1252107 218 222 230
42.6826229 55.6175432 38.1252107 218 222 230
42.7536342 55.4729577 38.1252107 218 222 230
42.857961 55.3318858 38.1252107 218 222 230
43.047162 55.1515234 38.1252107 218 222 230
43.3247602 54.9625861 38.1252107 218 222 230
43.791558 54.7402293 38.1252107 218 222 230
44.6621953 54.4862928 38.1252107 218 222 230
45.8034196 54.3372545 38.1252107 218 222 230
47.3887905 54.386765 38.1252107 218 222 230
48.6922534 54.6783493 38.1252107 218 222 230
49.4227395 55.0212663 38.1252107 218 222 230
49.6935522 55.2288321 38.1252107 218 222 230
49.8442215 55.3945109 38.1252107 218 222 230
49.9548359 55.5825961 38.1252107 218 222 230
49.9973769 55.7156244 38.1252107 218 222 230
-2.22044605e-16 1.5764746 0 218 222 230
0.0395255096 1.225676 0 218 222 230
0.156120064 0.892467905 0 218 222 230
0.343937126 0.593558763 0 218 222 230
0.593558763 0.343937126 0 218 222 230
0.892467905 0.156120064 0 218 222 230
1.225676 0.0395255096 0 218 222 230
1.5764746 -2.22044605e-16 0 218 222 230
1.5764746 -2.22044605e-16 38.1252107 218 222 230
-2.22044605e-16 1.5764746 38.1252107 218 222 230
0.0395255096 1.225676 38.1252107 218 222 230
0.156120064 0.892467905 38.1252107 218 222 230
0.343937126 0.593558763 38.1252107 218 222 230
0.593558763 0.343937126 38.1252107 218 222 230
0.892467905 0.156120064 38.1252107 218 222 230
1.225676 0.0395255096 38.1252107 218 222 230
-3.10487082e-15 36.3759664 38.1252107 218 222 230
-6.20974164e-15 36.3759664 33.51329 218 222 230
3.11906352 36.5201695 33.51329 218 222 230
6.21151629 36.9515482 33.51329 218 222 230
9.2509746 37.6664223 33.51329 218 222 230
12.2115068 38.6586927 33.51329 218 222 230
15.0678548 39.9198937 33.51329 218 222 230
17.7956492 41.4392652 33.51329 218 222 230
20.3716173 43.2038444 33.51329 218 222 230
22.773782 45.1985766 33.51329 218 222 230
24.9816488 47.4064434 33.51329 218 222 230
26.976381 49.8086081 33.51329 218 222 230
28.7409603 52.3845763 33.51329 218 222 230
30.2603318 55.1123706 33.51329 218 222 230
31.5215328 57.9687186 33.51329 218 222 230
32.5138032 60.9292509 33.51329 218 222 230
33.2286773 63.9687092 33.51329 218 222 230
33.660056 67.0611619 33.51329 218 222 230
33.804259 70.1802254 33.51329 218 222 230
33.804259 70.1802254 36.5487361 218 222 230
33.7674792 68.6037508 38.1252107 218 222 230
33.7819853 68.9532802 38.0859744 218 222 230
33.7921478 69.2754203 37.9749662 218 222 230
33.7984475 69.5534302 37.8070609 218 222 230
33.8018826 69.7793984 37.5990338 218 222 230
33.8034953 69.9529955 37.3640956 218 222 230
33.8040998 70.0764824 37.1111717 218 222 230
33.804247 70.1516786 36.847386 218 222 230
33.8042583 70.1730967 36.6984883 218 222 230
3.21529206 36.5292251 38.1252107 218 222 230
6.40142972 36.9876114 38.1252107 218 222 230
9.52952295 37.7469691 38.1252107 218 222 230
12.571208 38.8004126 38.1252107 218 222 230
15.4989047 40.1383899 38.1252107 218 222 230
18.2860663 41.7487692 38.1252107 218 222 230
20.9074206 43.6169483 38.1252107 218 222 230
23.3391985 45.7259878 38.1252107 218 222 230
25.5593501 48.056764 38.1252107 218 222 230
27.5477445 50.5881429 38.1252107 218 222 230
29.286352 53.2971714 38.1252107 218 222 230
30.7594079 56.1592856 38.1252107 218 222 230
31.9535553 59.1485335 38.1252107 218 222 230
32.8579666 62.2378103 38.1252107 218 222 230
33.464441 65.3991044 38.1252107 218 222 230
-2.22044605e-16 1.5764746 0 218 222 230
0 68.6037508 -2.22044605e-16 218 222 230
0.0395255096 1.225676 0 218 222 230
0.156120064 0.892467905 0 218 222 230
0.343937126 0.593558763 0 218 222 230
0.593558763 0.343937126 0 218 222 230
0.892467905 0.156120064 0 218 222 230
1.225676 0.0395255096 0 218 222 230
1.5764746 -2.22044605e-16 0 218 222 230
64.0887375 0 0 218 222 230
64.0887375 11.2565972 0 218 222 230
62.876182 11.3932194 0 218 222 230
61.7244292 11.7962351 0 218 222 230
60.6912326 12.4454356 0 218 222 230
59.8284011 13.3082671 0 218 222 230
59.1792006 14.3414637 0 218 222 230
58.7761849 15.4932165 0 218 222 230
58.6395627 16.705772 0 218 222 230
58.6395627 17.705772 0 218 222 230
58.7625726 18.8570643 0 218 222 230
59.1260487 19.9563778 0 218 222 230
59.7135808 20.9540809 0 218 222 230
60.4986429 21.8051289 0 218 222 230
61.4457909 22.4710988 0 218 222 230
62.5122629 22.9219233 -2.22044605e-16 218 222 230
62.5122629 68.6037508 0 218 222 230
26.3359509 42.5002752 0 218 222 230
26.3359509 45.2700581 0 218 222 230
26.4269506 46.0195083 0 218 222 230
26.6946613 46.7254033 0 218 222 230
27.1235245 47.3467189 0 218 222 230
27.6886162 47.8473465 0 218 222 230
28.3570954 48.1981915 0 218 222 230
29.0901126 48.378864 0 218 222 230
29.8450673 48.378864 0 218 222 230
30.5780845 48.1981915 0 218 222 230
31.2465637 47.8473465 0 218 222 230
31.8116555 47.3467189 0 218 222 230
32.2405187 46.7254033 0 218 222 230
32.5082293 46.0195083 0 218 222 230
32.599229 45.2700581 0 218 222 230
32.599229 42.5002752 0 218 222 230
32.5082293 41.7508249 0 218 222 230
32.2405187 41.04493 0 218 222 230
31.8116555 40.4236144 0 218 222 230
31.2465637 39.9229868 0 218 222 230
30.5780845 39.5721418 0 218 222 230
29.8450673 39.3914693 0 218 222 230
29.0901126 39.3914693 0 218 222 230
28.3570954 39.5721418 0 218 222 230
27.6886162 39.9229868 0 218 222 230
27.1235245 40.4236144 0 218 222 230
26.6946613 41.04493 0 218 222 230
26.4269506 41.7508249 0 218 222 230
51.5880683 55.8496866 0 218 222 230
51.5218039 55.3116058 -3.08385681e-17 218 222 230
51.3489602 54.8426897 9.75691511e-17 218 222 230
51.1193435 54.4673559 1.01565931e-14 218 222 230
50.8696171 54.1744076 -7.5767287e-17 218 222 230
50.5340421 53.8771865 1.59760807e-16 218 222 230
50.046327 53.558384 1.62394212e-17 218 222 230
49.3495839 53.239668 1.94500039e-17 218 222 230
48.348994 52.9510539 -1.71119651e-16 218 222 230
46.8879645 52.76052 1.46718402e-16 218 222 230
45.0756495 52.821398 1.99596996e-17 218 222 230
43.650572 53.120638 1.11407595e-14 218 222 230
42.685876 53.5145641 9.94733832e-17 218 222 230
42.197762 53.8170486 5.15639275e-16 218 222 230
41.7518464 54.2055236 9.46492202e-17 218 222 230
41.5013311 54.5099313 -6.35663043e-15 218 222 230
41.2766082 54.8965657 -8.56875955e-18 218 222 230
41.1044829 55.4248529 -1.68742835e-16 218 222 230
41.0668767 55.9744105 1.54902308e-15 218 222 230
41.1472102 56.4540756 -1.43727441e-16 218 222 230
41.3098728 56.87152 -1.70087909e-16 218 222 230
41.5174345 57.2119633 -2.44967972e-16 218 222 230
41.8187261 57.5620923 1.80095137e-16 218 222 230
42.1595927 57.8542101 5.51055084e-16 218 222 230
43.0414855 58.3549423 5.53057665e-17 218 222 230
44.1409726 58.7119961 -6.16809353e-17 218 222 230
45.4666123 58.9184549 -3.75308642e-17 218 222 230
47.2489708 58.912891 6.38925175e-17 218 222 230
48.8683818 58.6183742 -4.87145427e-15 218 222 230
49.7839548 58.2760054 -1.64888038e-17 218 222 230
50.3696274 57.9415905 -9.01021746e-15 218 222 230
50.828711 57.5660225 1.51918878e-16 218 222 230
51.1714874 57.1587112 -5.18436185e-17 218 222 230
51.3993568 56.7481883 -2.08735875e-16 218 222 230
51.5368484 56.3233637 2.25275198e-16 218 222 230
-5.92014795e-15 37.952441 31.9368154 255 79 163
3.06076628 38.0981152 31.9368154 255 79 163
6.09386237 38.5338208 31.9368154 255 79 163
9.07186821 39.2556188 31.9368154 255 79 163
11.9678618 40.2569841 31.9368154 255 79 163
14.7556625 41.528864 31.9368154 255 79 163
17.4100678 43.0597603 31.9368154 255 79 163
19.9070811 44.8358334 31.9368154 255 79 163
22.2241288 46.841027 31.9368154 255 79 163
24.3402641 49.0572135 31.9368154 255 79 163
26.2363564 51.4643581 31.9368154 255 79 163
27.8952646 54.0406995 31.9368154 255 79 163
29.3019917 56.7629467 31.9368154 255 79 163
30.4438205 59.60649 31.9368154 255 79 163
31.3104285 62.5456228 31.9368154 255 79 163
31.8939813 65.5537746 31.9368154 255 79 163
32.1892034 68.6037508 31.9368154 255 79 163
32.5503848 68.8143834 31.9764426 255 79 163
32.8915232 69.0299377 32.0928586 255 79 163
33.1962593 69.2505043 32.279618 255 79 163
33.4501968 69.4757168 32.5269886 255 79 163
33.6414885 69.704809 32.8224912 255 79 163
33.7613135 69.9366955 33.1515344 255 79 163
33.7934896 70.0583577 33.3312107 255 79 163
33.804259 70.1802254 33.51329 255 79 163
-6.20974164e-15 36.3759664 33.51329 255 79 163
3.11906352 36.5201695 33.51329 255 79 163
6.21151629 36.9515482 33.51329 255 79 163
9.2509746 37.6664223 33.51329 255 79 163
12.2115068 38.6586927 33.51329 255 79 163
15.0678548 39.9198937 33.51329 255 79 163
17.7956492 41.4392652 33.51329 255 79 163
20.3716173 43.2038444 33.51329 255 79 163
22.773782 45.1985766 33.51329 255 79 163
24.9816488 47.4064434 33.51329 255 79 163
26.976381 49.8086081 33.51329 255 79 163
28.7409603 52.3845763 33.51329 255 79 163
30.2603318 55.1123706 33.51329 255 79 163
31.5215328 57.9687186 33.51329 255 79 163
32.5138032 60.9292509 33.51329 255 79 163
33.2286773 63.9687092 33.51329 255 79 163
33.660056 67.0611619 33.51329 255 79 163
0 36.415492 33.1624914 255 79 163
0 36.5320865 32.8292833 255 79 163
0 36.7199036 32.5303742 255 79 163
0 36.9695252 32.2807525 255 79 163
0 37.2684343 32.0929355 255 79 163
0 37.6016424 31.9763409 255 79 163
33.7572472 69.4692499 33.1624914 255 79 163
33.6406785 69.471705 32.8292833 255 79 163
33.7350477 68.764674 33.1624914 255 79 163
33.4529031 69.4756599 32.5303742 255 79 163
33.6185556 68.7695621 32.8292833 255 79 163
33.4309037 68.7774361 32.5303742 255 79 163
33.1815015 68.7879012 32.2807525 255 79 163
32.8828552 68.8004327 32.0929355 255 79 163
33.6206991 67.0648089 33.1624914 255 79 163
33.5046019 67.0755669 32.8292833 255 79 163
33.317586 67.0928964 32.5303742 255 79 163
33.0690292 67.1159286 32.2807525 255 79 163
32.7713952 67.1435085 32.0929355 255 79 163
33.4150112 65.3331383 33.1624914 255 79 163
32.4400518 67.174212 31.9764426 255 79 163
33.2996243 65.349876 32.8292833 255 79 163
33.1137526 65.376838 32.5303742 255 79 163
32.8667164 65.4126724 32.2807525 255 79 163
33.1898247 63.9759719 33.1624914 255 79 163
32.5709033 65.4555822 32.0929355 255 79 163
33.0752154 63.9973961 32.8292833 255 79 163
32.241587 65.5033519 31.9764426 255 79 163
32.8905963 64.0319074 32.5303742 255 79 163
32.645225 64.0777753 32.2807525 255 79 163
32.3514053 64.1326997 32.0929355 255 79 163
32.0243083 64.1938447 31.9764426 255 79 163
32.8036287 62.1815272 33.1624914 255 79 163
32.6903529 62.2091478 32.8292833 255 79 163
32.5078821 62.2536408 32.5303742 255 79 163
32.2653658 62.3127749 32.2807525 255 79 163
32.4757865 60.9400675 33.1624914 255 79 163
31.9749651 62.383585 32.0929355 255 79 163
32.3636429 60.9719751 32.8292833 255 79 163
31.6516742 62.4624149 31.9764426 255 79 163
32.1829956 61.0233737 32.5303742 255 79 163
31.9429031 61.0916859 32.2807525 255 79 163
31.6554046 61.1734863 32.0929355 255 79 163
31.3353447 61.2645512 31.9764426 255 79 163
31.895692 59.1022265 33.1624914 255 79 163
31.7855515 59.1404805 32.8292833 255 79 163
31.608131 59.2021021 32.5303742 255 79 163
31.3723272 59.2840014 32.2807525 255 79 163
31.4846763 57.9829969 33.1624914 255 79 163
31.0899641 59.3820716 32.0929355 255 79 163
31.3759551 58.0251157 32.8292833 255 79 163
30.7756212 59.4912491 31.9764426 255 79 163
31.2008209 58.092963 32.5303742 255 79 163
30.9680557 58.1831368 32.2807525 255 79 163
30.6893312 58.2911152 32.0929355 255 79 163
30.379039 58.411323 31.9764426 255 79 163
30.6994092 56.1230742 33.1624914 255 79 163
30.5933997 56.1716156 32.8292833 255 79 163
30.4226335 56.2498088 32.5303742 255 79 163
30.1956737 56.3537328 32.2807525 255 79 163
30.22495 55.1299887 33.1624914 255 79 163
29.923901 56.4781766 32.0929355 255 79 163
30.1205788 55.1819593 32.8292833 255 79 163
29.6213479 56.6167146 31.9764426 255 79 163
29.9524519 55.2656766 32.5303742 255 79 163
29.7289997 55.3769425 32.2807525 255 79 163
29.4614272 55.5101778 32.0929355 255 79 163
29.1635501 55.658503 31.9764426 255 79 163
29.225595 53.2710024 33.1624914 255 79 163
29.1246748 53.3293924 32.8292833 255 79 163
28.9621068 53.4234504 32.5303742 255 79 163
28.707355 52.4053838 33.1624914 255 79 163
28.7460429 53.5484597 32.2807525 255 79 163
28.6082243 52.4667629 32.8292833 255 79 163
28.4873174 53.6981521 32.0929355 255 79 163
28.448539 52.5656358 32.5303742 255 79 163
28.1992892 53.8647982 31.9764426 255 79 163
28.2363064 52.6970447 32.2807525 255 79 163
27.9821688 52.8544001 32.0929355 255 79 163
27.699248 53.0295772 31.9764426 255 79 163
27.4875732 50.5717949 33.1624914 255 79 163
27.3926546 50.6395057 32.8292833 255 79 163
27.2397543 50.748578 32.5303742 255 79 163
26.944839 49.8324276 33.1624914 255 79 163
27.0365396 50.8935425 32.2807525 255 79 163
26.8517945 49.9026915 32.8292833 255 79 163
26.7932003 51.0671301 32.0929355 255 79 163
26.7019133 50.0158765 32.5303742 255 79 163
26.5223009 51.2603778 31.9764426 255 79 163
26.5027109 50.1663072 32.2807525 255 79 163
26.2641763 50.3464402 32.0929355 255 79 163
25.9986257 50.5469746 31.9764426 255 79 163
25.5010558 48.0498531 33.1624914 255 79 163
25.412997 48.1262725 32.8292833 255 79 163
25.2711468 48.2493732 32.5303742 255 79 163
24.9524391 47.4330716 33.1624914 255 79 163
25.0826183 48.4129824 32.2807525 255 79 163
24.8662747 47.5116208 32.8292833 255 79 163
24.856865 48.608896 32.0929355 255 79 163
24.7274762 47.6381524 32.5303742 255 79 163
24.6055434 48.8269983 31.9764426 255 79 163
24.5430036 47.8063214 32.2807525 255 79 163
24.3221071 48.0076952 32.0929355 255 79 163
24.0761923 48.2318761 31.9764426 255 79 163
23.2840017 45.7279762 33.1624914 255 79 163
23.2035986 45.8124134 32.8292833 255 79 163
23.0740809 45.9484296 32.5303742 255 79 163
22.7471539 45.2277863 33.1624914 255 79 163
22.901943 46.1292043 32.2807525 255 79 163
22.6686046 45.3139507 32.8292833 255 79 163
22.6958166 46.3456728 32.0929355 255 79 163
22.5420731 45.4527492 32.5303742 255 79 163
22.4663449 46.586658 31.9764426 255 79 163
22.3739041 45.6372218 32.2807525 255 79 163
22.1725303 45.8581183 32.0929355 255 79 163
21.9483494 46.1040331 31.9764426 255 79 163
20.8564536 43.6271546 33.1624914 255 79 163
20.7844332 43.7188462 32.8292833 255 79 163
20.6684187 43.8665483 32.5303742 255 79 163
20.5142276 44.0628543 32.2807525 255 79 163
20.3295916 44.2979207 32.0929355 255 79 163
20.1240442 44.5596103 31.9764426 255 79 163
18.1773706 41.8644974 32.8292833 255 79 163
18.0759082 42.0225501 32.5303742 255 79 163
17.9410578 42.2326127 32.2807525 255 79 163
17.7795813 42.4841521 32.0929355 255 79 163
17.5998164 42.7641802 31.9764426 255 79 163
15.4059794 40.2661309 32.8292833 255 79 163
15.3199863 40.4331053 32.5303742 255 79 163
15.2056957 40.6550256 32.2807525 255 79 163
15.0688386 40.9207638 32.0929355 255 79 163
14.9164813 41.2165989 31.9764426 255 79 163
12.5386114 38.8299391 33.1624914 255 79 163
12.4953137 38.9381962 32.8292833 255 79 163
12.4255674 39.1125829 32.5303742 255 79 163
12.3328698 39.3443546 32.2807525 255 79 163
12.2218692 39.6218893 32.0929355 255 79 163
12.098297 39.9308571 31.9764426 255 79 163
9.5045073 37.7808185 33.1624914 255 79 163
9.47168685 37.8926984 32.8292833 255 79 163
9.41881782 38.0729208 32.5303742 255 79 163
9.34855129 38.3124486 32.2807525 255 79 163
9.26441072 38.5992709 32.0929355 255 79 163
9.17074057 38.9185781 31.9764426 255 79 163
6.38447981 37.0245978 33.1624914 255 79 163
6.36243327 37.139089 32.8292833 255 79 163
6.32691946 37.3235179 32.5303742 255 79 163
6.2797192 37.5686364 32.2807525 255 79 163
6.2231993 37.8621534 32.0929355 255 79 163
6.16027808 38.1889133 31.9764426 255 79 163
3.2067348 36.5681133 33.1624914 255 79 163
3.19566148 36.6841809 32.8292833 255 79 163
3.17782395 36.871149 32.5303742 255 79 163
3.15411665 37.1196423 32.2807525 255 79 163
3.12572838 37.4172003 32.0929355 255 79 163
3.09412492 37.7484591 31.9764426 255 79 163
0 68.6037508 -2.22044605e-16 255 79 163
-2.22044605e-16 68.6037508 27.6366941 255 79 163
0.0400757509 68.9569515 27.6368808 255 79 163
0.161415091 69.2986456 27.6397247 255 79 163
0.33639451 69.5771334 27.6498722 255 79 163
0.543412068 69.7945716 27.6711681 255 79 163
0.798931109 69.9751364 27.7115637 255 79 163
1.09474039 70.1048186 27.7783798 255 79 163
1.33445272 70.161537 27.8489946 255 79 163
1.5764746 70.1802254 27.9360941 255 79 163
1.5764746 70.1802254 1.5764746 255 79 163
1.06795285 70.0959565 1.06795285 255 79 163
0.655310988 69.8830982 0.655310988 255 79 163
0.351362821 69.5959067 0.351362821 255 79 163
0.167548002 69.3109976 0.167548002 255 79 163
0.0553194267 69.0177063 0.0553194267 255 79 163
0.013891057 68.8125686 0.013891057 255 79 163
0 48.9519596 31.9368154 218 222 230
-5.92014795e-15 37.952441 31.9368154 218 222 230
3.06076628 38.0981152 31.9368154 218 222 230
6.09386237 38.5338208 31.9368154 218 222 230
9.07186821 39.2556188 31.9368154 218 222 230
11.9678618 40.2569841 31.9368154 218 222 230
14.7556625 41.528864 31.9368154 218 222 230
17.4100678 43.0597603 31.9368154 218 222 230
19.9070811 44.8358334 31.9368154 218 222 230
22.2241288 46.841027 31.9368154 218 222 230
24.3402641 49.0572135 31.9368154 218 222 230
26.2363564 51.4643581 31.9368154 218 222 230
27.8952646 54.0406995 31.9368154 218 222 230
29.3019917 56.7629467 31.9368154 218 222 230
30.4438205 59.60649 31.9368154 218 222 230
31.3104285 62.5456228 31.9368154 218 222 230
31.8939813 65.5537746 31.9368154 218 222 230
32.1892034 68.6037508 31.9368154 218 222 230
4.3001213 68.6037508 31.9368154 218 222 230
4.3001213 48.9519596 31.9368154 218 222 230
4.3001213 68.6037508 31.9368154 218 222 230
4.3001213 48.9519596 31.9368154 218 222 230
4.19230828 48.9519596 30.9799484 218 222 230
3.87427542 48.9519596 30.0710627 218 222 230
3.36197021 48.9519596 29.2557336 218 222 230
2.68108178 48.9519596 28.5748452 218 222 230
1.86575271 48.9519596 28.06254 218 222 230
0.956867008 48.9519596 27.7445071 218 222 230
2.63306487e-16 48.9519596 27.6366941 218 222 230
-2.22044605e-16 68.6037508 27.6366941 218 222 230
0.0400757509 68.9569515 27.6368808 218 222 230
0.161415091 69.2986456 27.6397247 218 222 230
0.33639451 69.5771334 27.6498722 218 222 230
0.543412068 69.7945716 27.6711681 218 222 230
0.798931109 69.9751364 27.7115637 218 222 230
1.09474039 70.1048186 27.7783798 218 222 230
1.33445272 70.161537 27.8489946 218 222 230
1.5764746 70.1802254 27.9360941 218 222 230
4.00072131 70.1802254 30.3603408 218 222 230
3.59599198 70.1802254 29.5788746 218 222 230
3.04064493 70.1802254 28.8961705 218 222 230
2.35794081 70.1802254 28.3408234 218 222 230
4.29993454 68.9569541 31.8967391 218 222 230
4.29709051 69.2986548 31.7753958 218 222 230
4.28684137 69.578781 31.5991258 218 222 230
4.26506579 69.7984993 31.3888583 218 222 230
4.22356357 69.9801317 31.1290072 218 222 230
4.15490167 70.1090336 30.8287381 218 222 230
4.08556036 70.162594 30.595458 218 222 230
2.63306487e-16 48.9519596 27.6366941 218 222 230
0 48.9519596 31.9368154 218 222 230
4.3001213 48.9519596 31.9368154 218 222 230
4.19230828 48.9519596 30.9799484 218 222 230
3.87427542 48.9519596 30.0710627 218 222 230
3.36197021 48.9519596 29.2557336 218 222 230
2.68108178 48.9519596 28.5748452 218 222 230
1.86575271 48.9519596 28.06254 218 222 230
0.956867008 48.9519596 27.7445071 218 222 230
1.5764746 -2.22044605e-16 0 218 222 230
64.0887375 0 0 218 222 230
1.5764746 -2.22044605e-16 38.1252107 218 222 230
64.0887375 0 38.1252107 218 222 230
33.7674792 68.6037508 38.1252107 255 79 163
64.0887375 68.6037508 38.1252107 255 79 163
62.5122629 70.1802254 36.5487361 255 79 163
63.0207847 70.0959565 37.0572579 255 79 163
63.4334265 69.8830982 37.4698997 255 79 163
63.7373747 69.5959067 37.7738479 255 79 163
63.9211895 69.3109976 37.9576627 255 79 163
64.0334181 69.0177063 38.0698913 255 79 163
64.0748465 68.8125686 38.1113197 255 79 163
33.804259 70.1802254 36.5487361 255 79 163
33.7819853 68.9532802 38.0859744 255 79 163
33.7921478 69.2754203 37.9749662 255 79 163
33.7984475 69.5534302 37.8070609 255 79 163
33.8018826 69.7793984 37.5990338 255 79 163
33.8034953 69.9529955 37.3640956 255 79 163
33.8040998 70.0764824 37.1111717 255 79 163
33.804247 70.1516786 36.847386 255 79 163
33.8042583 70.1730967 36.6984883 255 79 163
64.0887375 0 38.1252107 218 222 230
64.0887375 68.6037508 38.1252107 218 222 230
64.0887375 0 0 218 222 230
64.0887375 11.2565972 0 218 222 230
64.0887375 11.2565972 3.76711381 218 222 230
64.0887375 23.1549469 3.76711381 218 222 230
64.0887375 23.1549469 1.5764746 218 222 230
64.0887375 68.6037508 1.5764746 218 222 230
50.0115937 55.8496869 38.1252107 218 222 230
50.0115937 55.8496869 1.5764746 218 222 230
50.0115937 55.8496869 38.1252107 218 222 230
49.9943884 55.9971381 38.1252107 218 222 230
49.9429332 56.1432127 38.1252107 218 222 230
49.8577084 56.2865471 38.1252107 218 222 230
49.7395097 56.4258029 38.1252107 218 222 230
49.5325689 56.6028932 38.1252107 218 222 230
49.2363855 56.7870478 38.1252107 218 222 230
48.7477216 57.0013786 38.1252107 218 222 230
47.8521663 57.2403584 38.1252107 218 222 230
46.6964993 57.3697857 38.1252107 218 222 230
45.116691 57.2930048 38.1252107 218 222 230
43.8496679 56.9814647 38.1252107 218 222 230
43.1594119 56.6318211 38.1252107 218 222 230
42.9092882 56.4231243 38.1252107 218 222 230
42.7736025 56.2575691 38.1252107 218 222 230
42.6785255 56.0704995 38.1252107 218 222 230
42.6428791 55.9118409 38.1252107 218 222 230
42.6455894 55.7642939 38.1252107 218 222 230
42.6826229 55.6175432 38.1252107 218 222 230
42.7536342 55.4729577 38.1252107 218 222 230
42.857961 55.3318858 38.1252107 218 222 230
43.047162 55.1515234 38.1252107 218 222 230
43.3247602 54.9625861 38.1252107 218 222 230
43.791558 54.7402293 38.1252107 218 222 230
44.6621953 54.4862928 38.1252107 218 222 230
45.8034196 54.3372545 38.1252107 218 222 230
47.3887905 54.386765 38.1252107 218 222 230
48.6922534 54.6783493 38.1252107 218 222 230
49.4227395 55.0212663 38.1252107 218 222 230
49.6935522 55.2288321 38.1252107 218 222 230
49.8442215 55.3945109 38.1252107 218 222 230
49.9548359 55.5825961 38.1252107 218 222 230
49.9973769 55.7156244 38.1252107 218 222 230
50.0115937 55.8496869 1.5764746 218 222 230
49.9945643 55.7029893 1.5764746 218 222 230
49.9455527 55.561763 1.5764746 218 222 230
49.8696392 55.4297569 1.5764746 218 222 230
49.7365635 55.2705803 1.5764746 218 222 230
49.5562317 55.1140601 1.5764746 218 222 230
49.231945 54.9099617 1.5764746 218 222 230
48.8330618 54.729815 1.5764746 218 222 230
48.1097698 54.5127357 1.5764746 218 222 230
46.9779601 54.3459499 1.5764746 218 222 230
45.6863567 54.3449982 1.5764746 218 222 230
44.2270502 54.5936786 1.5764746 218 222 230
43.5516067 54.8436835 1.5764746 218 222 230
43.1311986 55.0875196 1.5764746 218 222 230
42.866116 55.3225963 1.5764746 218 222 230
42.7646893 55.4553847 1.5764746 218 222 230
42.6798269 55.6252117 1.5764746 218 222 230
42.6435277 55.7812458 1.5764746 218 222 230
42.6442532 55.9245321 1.5764746 218 222 230
42.6810072 56.077431 1.5764746 218 222 230
42.7506406 56.2215051 1.5764746 218 222 230
42.8463465 56.3539233 1.5764746 218 222 230
43.0035427 56.5114736 1.5764746 218 222 230
43.2810095 56.7107915 1.5764746 218 222 230
43.750573 56.9428091 1.5764746 218 222 230
44.513717 57.1801674 1.5764746 218 222 230
45.712789 57.356264 1.5764746 218 222 230
47.0809544 57.3451201 1.5764746 218 222 230
48.5240605 57.0760447 1.5764746 218 222 230
49.1246816 56.8437852 1.5764746 218 222 230
49.5320898 56.603243 1.5764746 218 222 230
49.7888052 56.3728133 1.5764746 218 222 230
49.8895466 56.2395959 1.5764746 218 222 230
49.9717802 56.0736436 1.5764746 218 222 230
50.001446 55.9629819 1.5764746 218 222 230
33.804259 70.1802254 36.5487361 218 222 230
33.804259 70.1802254 33.51329 218 222 230
62.5122629 70.1802254 36.5487361 218 222 230
62.5122629 70.1802254 1.5764746 218 222 230
1.5764746 70.1802254 1.5764746 218 222 230
1.5764746 70.1802254 27.9360941 218 222 230
4.00072131 70.1802254 30.3603408 218 222 230
3.59599198 70.1802254 29.5788746 218 222 230
3.04064493 70.1802254 28.8961705 218 222 230
2.35794081 70.1802254 28.3408234 218 222 230
32.1892034 70.1802254 30.3603408 218 222 230
32.3504579 70.1802254 30.3808813 218 222 230
32.5031536 70.1802254 30.4371971 218 222 230
32.6434501 70.1802254 30.5198928 218 222 230
32.8109118 70.1802254 30.6580959 218 222 230
33.0258704 70.1802254 30.9026362 218 222 230
33.2847331 70.1802254 31.3170601 218 222 230
33.5646491 70.1802254 31.9941086 218 222 230
33.74265 70.1802254 32.7445519 218 222 230
1.5764746 70.1802254 1.5764746 255 79 163
62.5122629 70.1802254 1.5764746 255 79 163
62.5122629 68.6037508 0 255 79 163
62.5122629 68.9545494 0.0395255096 255 79 163
62.5122629 69.2877575 0.156120064 255 79 163
62.5122629 69.5866667 0.343937126 255 79 163
62.5122629 69.8362883 0.593558763 255 79 163
62.5122629 70.0241054 0.892467905 255 79 163
62.5122629 70.1406999 1.225676 255 79 163
0 68.6037508 -2.22044605e-16 255 79 163
1.06795285 70.0959565 1.06795285 255 79 163
0.655310988 69.8830982 0.655310988 255 79 163
0.351362821 69.5959067 0.351362821 255 79 163
0.167548002 69.3109976 0.167548002 255 79 163
0.0553194267 69.0177063 0.0553194267 255 79 163
0.013891057 68.8125686 0.013891057 255 79 163
62.5122629 22.9219233 -2.22044605e-16 255 79 163
62.5122629 68.6037508 0 255 79 163
62.8630615 68.6037508 0.0395255096 255 79 163
63.1962696 68.6037508 0.156120064 255 79 163
63.4951787 68.6037508 0.343937126 255 79 163
63.7448004 68.6037508 0.593558763 255 79 163
63.9326174 68.6037508 0.892467905 255 79 163
64.049212 68.6037508 1.225676 255 79 163
64.0887375 68.6037508 1.5764746 255 79 163
64.0887375 23.1549469 1.5764746 255 79 163
62.8592485 23.0144313 0.0386601598 255 79 163
63.1870509 23.0798271 0.151717292 255 79 163
63.4732255 23.1200727 0.326745475 255 79 163
63.7049466 23.1414147 0.545563439 255 79 163
63.8807486 23.1509761 0.79383854 255 79 163
64.0021629 23.1542591 1.06123667 255 79 163
64.0671803 23.1549042 1.31665915 255 79 163
64.0887375 23.1549469 1.5764746 218 222 230
64.0887375 23.1549469 3.76711381 218 222 230
62.5122629 22.9219233 -2.22044605e-16 218 222 230
62.8592485 23.0144313 0.0386601598 218 222 230
63.1870509 23.0798271 0.151717292 218 222 230
63.4732255 23.1200727 0.326745475 218 222 230
63.7049466 23.1414147 0.545563439 218 222 230
63.8807486 23.1509761 0.79383854 218 222 230
64.0021629 23.1542591 1.06123667 218 222 230
64.0671803 23.1549042 1.31665915 218 222 230
58.6395627 17.705772 0 218 222 230
58.7625726 18.8570643 0 218 222 230
59.1260487 19.9563778 0 218 222 230
59.7135808 20.9540809 0 218 222 230
60.4986429 21.8051289 0 218 222 230
61.4457909 22.4710988 0 218 222 230
58.6395627 17.705772 3.76711381 218 222 230
58.7761849 18.9183275 3.76711381 218 222 230
59.1792006 20.0700804 3.76711381 218 222 230
59.8284011 21.103277 3.76711381 218 222 230
60.6912326 21.9661085 3.76711381 218 222 230
61.7244292 22.6153089 3.76711381 218 222 230
62.876182 23.0183247 3.76711381 218 222 230
64.0887375 11.2565972 0 218 222 230
64.0887375 11.2565972 3.76711381 218 222 230
62.876182 11.3932194 3.76711381 218 222 230
61.7244292 11.7962351 3.76711381 218 222 230
60.6912326 12.4454356 3.76711381 218 222 230
59.8284011 13.3082671 3.76711381 218 222 230
59.1792006 14.3414637 3.76711381 218 222 230
58.7761849 15.4932165 3.76711381 218 222 230
58.6395627 16.705772 3.76711381 218 222 230
58.6395627 16.705772 0 218 222 230
62.876182 11.3932194 0 218 222 230
61.7244292 11.7962351 0 218 222 230
60.6912326 12.4454356 0 218 222 230
59.8284011 13.3082671 0 218 222 230
59.1792006 14.3414637 0 218 222 230
58.7761849 15.4932165 0 218 222 230
58.6395627 16.705772 0 218 222 230
58.6395627 16.705772 3.76711381 218 222 230
58.6395627 17.705772 3.76711381 218 222 230
58.6395627 17.705772 0 218 222 230
26.3359509 42.5002752 0 218 222 230
26.3359509 42.5002752 28.0194621 218 222 230
26.3359509 45.2700581 28.0194621 218 222 230
26.3359509 45.2700581 0 218 222 230
32.599229 42.5002752 0 218 222 230
32.599229 42.5002752 28.0194621 218 222 230
32.5082293 41.7508249 28.0194621 218 222 230
32.2405187 41.04493 28.0194621 218 222 230
31.8116555 40.4236144 28.0194621 218 222 230
31.2465637 39.9229868 28.0194621 218 222 230
30.5780845 39.5721418 28.0194621 218 222 230
29.8450673 39.3914693 28.0194621 218 222 230
29.0901126 39.3914693 28.0194621 218 222 230
28.3570954 39.5721418 28.0194621 218 222 230
27.6886162 39.9229868 28.0194621 218 222 230
27.1235245 40.4236144 28.0194621 218 222 230
26.6946613 41.04493 28.0194621 218 222 230
26.4269506 41.7508249 28.0194621 218 222 230
26.3359509 42.5002752 28.0194621 218 222 230
26.3359509 42.5002752 0 218 222 230
32.5082293 41.7508249 0 218 222 230
32.2405187 41.04493 0 218 222 230
31.8116555 40.4236144 0 218 222 230
31.2465637 39.9229868 0 218 222 230
30.5780845 39.5721418 0 218 222 230
29.8450673 39.3914693 0 218 222 230
29.0901126 39.3914693 0 218 222 230
28.3570954 39.5721418 0 218 222 230
27.6886162 39.9229868 0 218 222 230
27.1235245 40.4236144 0 218 222 230
26.6946613 41.04493 0 218 222 230
26.4269506 41.7508249 0 218 222 230
32.599229 45.2700581 0 218 222 230
32.599229 45.2700581 28.0194621 218 222 230
32.599229 42.5002752 28.0194621 218 222 230
32.599229 42.5002752 0 218 222 230
26.3359509 45.2700581 0 218 222 230
26.3359509 45.2700581 28.0194621 218 222 230
26.4269506 46.0195083 28.0194621 218 222 230
26.6946613 46.7254033 28.0194621 218 222 230
27.1235245 47.3467189 28.0194621 218 222 230
27.6886162 47.8473465 28.0194621 218 222 230
28.3570954 48.1981915 28.0194621 218 222 230
29.0901126 48.378864 28.0194621 218 222 230
29.8450673 48.378864 28.0194621 218 222 230
30.5780845 48.1981915 28.0194621 218 222 230
31.2465637 47.8473465 28.0194621 218 222 230
31.8116555 47.3467189 28.0194621 218 222 230
32.2405187 46.7254033 28.0194621 218 222 230
32.5082293 46.0195083 28.0194621 218 222 230
32.599229 45.2700581 28.0194621 218 222 230
32.599229 45.2700581 0 218 222 230
26.4269506 46.0195083 0 218 222 230
26.6946613 46.7254033 0 218 222 230
27.1235245 47.3467189 0 218 222 230
27.6886162 47.8473465 0 218 222 230
28.3570954 48.1981915 0 218 222 230
29.0901126 48.378864 0 218 222 230
29.8450673 48.378864 0 218 222 230
30.5780845 48.1981915 0 218 222 230
31.2465637 47.8473465 0 218 222 230
31.8116555 47.3467189 0 218 222 230
32.2405187 46.7254033 0 218 222 230
32.5082293 46.0195083 0 218 222 230
51.5880683 55.8496866 0 255 79 163
51.2206862 55.8496867 0.0434049579 255 79 163
50.8863811 55.8496867 0.164770941 255 79 163
50.6062449 55.8496868 0.343066775 255 79 163
50.3671313 55.8496869 0.579185799 255 79 163
50.1851175 55.8496869 0.857446762 255 79 163
50.0683161 55.8496869 1.15739772 255 79 163
50.0251984 55.8496869 1.36981135 255 79 163
50.0115937 55.8496869 1.5764746 255 79 163
49.9945643 55.7029893 1.5764746 255 79 163
49.9455527 55.561763 1.5764746 255 79 163
49.8696392 55.4297569 1.5764746 255 79 163
49.7365635 55.2705803 1.5764746 255 79 163
49.5562317 55.1140601 1.5764746 255 79 163
49.231945 54.9099617 1.5764746 255 79 163
48.8330618 54.729815 1.5764746 255 79 163
48.1097698 54.5127357 1.5764746 255 79 163
46.9779601 54.3459499 1.5764746 255 79 163
45.6863567 54.3449982 1.5764746 255 79 163
44.2270502 54.5936786 1.5764746 255 79 163
43.5516067 54.8436835 1.5764746 255 79 163
43.1311986 55.0875196 1.5764746 255 79 163
42.866116 55.3225963 1.5764746 255 79 163
42.7646893 55.4553847 1.5764746 255 79 163
42.6798269 55.6252117 1.5764746 255 79 163
42.6435277 55.7812458 1.5764746 255 79 163
42.6442532 55.9245321 1.5764746 255 79 163
42.6810072 56.077431 1.5764746 255 79 163
42.7506406 56.2215051 1.5764746 255 79 163
42.8463465 56.3539233 1.5764746 255 79 163
43.0035427 56.5114736 1.5764746 255 79 163
43.2810095 56.7107915 1.5764746 255 79 163
43.750573 56.9428091 1.5764746 255 79 163
44.513717 57.1801674 1.5764746 255 79 163
45.712789 57.356264 1.5764746 255 79 163
47.0809544 57.3451201 1.5764746 255 79 163
48.5240605 57.0760447 1.5764746 255 79 163
49.1246816 56.8437852 1.5764746 255 79 163
49.5320898 56.603243 1.5764746 255 79 163
49.7888052 56.3728133 1.5764746 255 79 163
49.8895466 56.2395959 1.5764746 255 79 163
49.9717802 56.0736436 1.5764746 255 79 163
50.001446 55.9629819 1.5764746 255 79 163
50.0115937 55.8496869 1.5764746 255 79 163
51.5880683 55.8496866 0 255 79 163
51.2206862 55.8496867 0.0434049579 255 79 163
50.8863811 55.8496867 0.164770941 255 79 163
50.6062449 55.8496868 0.343066775 255 79 163
50.3671313 55.8496869 0.579185799 255 79 163
50.1851175 55.8496869 0.857446762 255 79 163
50.0683161 55.8496869 1.15739772 255 79 163
50.0251984 55.8496869 1.36981135 255 79 163
51.5218039 55.3116058 -3.08385681e-17 255 79 163
51.3489602 54.8426897 9.75691511e-17 255 79 163
51.1193435 54.4673559 1.01565931e-14 255 79 163
50.8696171 54.1744076 -7.5767287e-17 255 79 163
50.5340421 53.8771865 1.59760807e-16 255 79 163
50.046327 53.558384 1.62394212e-17 255 79 163
49.3495839 53.239668 1.94500039e-17 255 79 163
48.348994 52.9510539 -1.71119651e-16 255 79 163
46.8879645 52.76052 1.46718402e-16 255 79 163
45.0756495 52.821398 1.99596996e-17 255 79 163
43.650572 53.120638 1.11407595e-14 255 79 163
42.685876 53.5145641 9.94733832e-17 255 79 163
42.197762 53.8170486 5.15639275e-16 255 79 163
41.7518464 54.2055236 9.46492202e-17 255 79 163
41.5013311 54.5099313 -6.35663043e-15 255 79 163
41.2766082 54.8965657 -8.56875955e-18 255 79 163
41.1044829 55.4248529 -1.68742835e-16 255 79 163
41.0668767 55.9744105 1.54902308e-15 255 79 163
41.1472102 56.4540756 -1.43727441e-16 255 79 163
41.3098728 56.87152 -1.70087909e-16 255 79 163
41.5174345 57.2119633 -2.44967972e-16 255 79 163
41.8187261 57.5620923 1.80095137e-16 255 79 163
42.1595927 57.8542101 5.51055084e-16 255 79 163
43.0414855 58.3549423 5.53057665e-17 255 79 163
44.1409726 58.7119961 -6.16809353e-17 255 79 163
45.4666123 58.9184549 -3.75308642e-17 255 79 163
47.2489708 58.912891 6.38925175e-17 255 79 163
48.8683818 58.6183742 -4.87145427e-15 255 79 163
49.7839548 58.2760054 -1.64888038e-17 255 79 163
50.3696274 57.9415905 -9.01021746e-15 255 79 163
50.828711 57.5660225 1.51918878e-16 255 79 163
51.1714874 57.1587112 -5.18436185e-17 255 79 163
51.3993568 56.7481883 -2.08735875e-16 255 79 163
51.5368484 56.3233637 2.25275198e-16 255 79 163
51.2757877 55.1291137 0.0104486542 255 79 163
51.1188855 55.1875938 0.0390367325 255 79 163
50.7374114 54.6028003 0.0476692983 255 79 163
50.649838 54.8084216 0.11068696 255 79 163
50.5831656 55.3830634 0.295498894 255 79 163
50.2185135 55.12402 0.461738719 255 79 163
50.5524206 54.686578 0.11068696 255 79 163
50.3446352 54.2176431 0.0476692983 255 79 163
50.2435991 54.387438 0.11068696 255 79 163
50.0989205 54.0394412 0.0476692983 255 79 163
50.2505407 54.6468618 0.201378204 255 79 163
49.7303663 54.6711103 0.461738719 255 79 163
50.1051614 54.2811472 0.11068696 255 79 163
49.8973129 54.1430931 0.11068696 255 79 163
49.7349785 53.8282652 0.0476692983 255 79 163
49.5865861 53.9725416 0.11068696 255 79 163
49.9489389 55.3501065 0.996182638 255 79 163
49.8344472 55.0848766 0.805512818 255 79 163
49.878478 55.2609758 0.996182638 255 79 163
49.8581252 55.3348427 1.19173246 255 79 163
49.2447174 54.0269782 0.201378204 255 79 163
49.6799036 55.0703547 0.996182638 255 79 163
48.9647174 53.7187354 0.11068696 255 79 163
48.629256 54.1726792 0.461738719 255 79 163
49.5784866 54.9930937 0.996182638 255 79 163
48.7730293 53.4539358 0.0476692983 255 79 163
49.6219289 55.1046139 1.19173246 255 79 163
49.4106463 54.8836011 0.996182638 255 79 163
49.4490218 54.9814921 1.19173246 255 79 163
48.5053019 53.5836146 0.11068696 255 79 163
49.2130129 54.7756866 0.996182638 255 79 163
49.0253786 54.590078 0.805512818 255 79 163
49.2081019 54.843806 1.19173246 255 79 163
48.1481644 53.6965919 0.201378204 255 79 163
47.8895461 53.453718 0.11068696 255 79 163
47.4834945 53.9333509 0.461738719 255 79 163
48.7014892 54.5644777 0.996182638 255 79 163
47.56997 53.2084633 0.0476692983 255 79 163
48.4965457 54.5651594 1.19173246 255 79 163
48.3321342 54.4534965 0.996182638 255 79 163
48.0560991 54.2946064 0.805512818 255 79 163
47.2042771 53.3651027 0.11068696 255 79 163
47.7881536 54.3348238 0.996182638 255 79 163
46.4982886 53.5178623 0.201378204 255 79 163
47.5134175 54.3551934 1.19173246 255 79 163
47.2126728 54.2554712 0.996182638 255 79 163
45.9767138 53.3318279 0.11068696 255 79 163
45.6877682 53.1503924 0.0476692983 255 79 163
45.1217394 53.4004555 0.11068696 255 79 163
44.6549227 53.2738687 0.0476692983 255 79 163
44.4603168 53.5107766 0.11068696 255 79 163
45.1652065 53.9337034 0.461738719 255 79 163
44.3062513 53.7405213 0.201378204 255 79 163
43.843826 53.6683034 0.11068696 255 79 163
44.0198629 54.173375 0.461738719 255 79 163
43.4825552 53.5830523 0.0476692983 255 79 163
43.4127513 53.8187674 0.11068696 255 79 163
44.6989885 54.3657597 0.996182638 255 79 163
45.4439621 54.2549431 0.996182638 255 79 163
44.4843656 54.3192774 0.805512818 255 79 163
43.2299267 54.1048284 0.201378204 255 79 163
42.6004547 54.0084523 0.0476692983 255 79 163
42.7884103 54.1223714 0.11068696 255 79 163
42.9193976 54.672236 0.461738719 255 79 163
44.1589454 54.4982144 0.996182638 255 79 163
42.3212194 54.2061506 0.0476692983 255 79 163
42.5789044 54.2579051 0.11068696 255 79 163
42.3945253 54.3983769 0.11068696 255 79 163
43.8081434 54.6152703 0.996182638 255 79 163
43.9568155 54.628728 1.19173246 255 79 163
41.8960387 54.6250012 0.0476692983 255 79 163
43.5313897 54.6312126 0.805512818 255 79 163
41.7578878 54.8177178 0.0476692983 255 79 163
42.0865068 54.701225 0.11068696 255 79 163
42.392288 54.6549867 0.201378204 255 79 163
42.431821 55.1254835 0.461738719 255 79 163
41.9888274 54.8258358 0.11068696 255 79 163
41.8973483 54.9637923 0.11068696 255 79 163
41.4912281 55.454573 0.0476692983 255 79 163
43.3060941 54.8457776 0.996182638 255 79 163
41.4499988 55.7663265 0.0476692983 255 79 163
41.6866147 55.4771417 0.11068696 255 79 163
41.9437628 55.2951639 0.201378204 255 79 163
42.1780907 55.8514743 0.461738719 255 79 163
41.4597641 56.0558258 0.0476692983 255 79 163
41.6512412 55.6924612 0.11068696 255 79 163
43.0914972 54.979971 0.996182638 255 79 163
43.2570439 54.9473656 1.19173246 255 79 163
41.6443342 55.8970494 0.11068696 255 79 163
42.7964747 55.104417 0.805512818 255 79 163
41.6598879 56.0793757 0.11068696 255 79 163
42.941158 55.0955998 0.996182638 255 79 163
41.6588739 56.7090537 0.0476692983 255 79 163
43.0214789 55.1110051 1.19173246 255 79 163
41.7738844 56.9063418 0.0476692983 255 79 163
41.8354451 56.6248244 0.11068696 255 79 163
41.915703 56.3293315 0.201378204 255 79 163
42.4336297 56.5763231 0.461738719 255 79 163
42.747618 55.2911206 0.996182638 255 79 163
41.9205098 57.1044707 0.0476692983 255 79 163
41.9127735 56.7606901 0.11068696 255 79 163
42.6922137 55.364674 0.996182638 255 79 163
41.9963443 56.8838457 0.11068696 255 79 163
42.6355272 55.4558727 0.996182638 255 79 163
42.771281 55.3629751 1.19173246 255 79 163
42.1140371 57.0300885 0.11068696 255 79 163
42.7015679 55.4671485 1.19173246 255 79 163
42.3304246 57.5004783 0.0476692983 255 79 163
42.5409739 55.7171494 0.996182638 255 79 163
42.4233775 57.324559 0.11068696 255 79 163
42.4107002 57.0616945 0.201378204 255 79 163
42.9217663 57.0287459 0.461738719 255 79 163
42.5301965 55.8100541 0.996182638 255 79 163
42.5643227 57.4311651 0.11068696 255 79 163
42.5304794 55.8943051 0.996182638 255 79 163
42.7014041 57.752769 0.0476692983 255 79 163
42.6003466 55.7441574 1.19173246 255 79 163
42.5415466 55.9853874 0.996182638 255 79 163
42.5921639 55.8523631 1.19173246 255 79 163
42.601016 55.9594393 1.19173246 255 79 163
42.9475793 57.6667442 0.11068696 255 79 163
42.637062 56.246275 0.996182638 255 79 163
42.6845185 56.3234531 0.996182638 255 79 163
42.7380095 56.3963071 0.996182638 255 79 163
42.6979236 56.2259126 1.19173246 255 79 163
42.8511708 56.6457115 0.805512818 255 79 163
42.817052 56.4869318 0.996182638 255 79 163
42.7599208 56.321143 1.19173246 255 79 163
43.3321199 57.6406398 0.201378204 255 79 163
42.8446825 56.4241964 1.19173246 255 79 163
43.5704097 57.9401661 0.11068696 255 79 163
44.0225578 57.5268131 0.461738719 255 79 163
43.7470115 58.2057963 0.0476692983 255 79 163
43.0229322 56.6694381 0.996182638 255 79 163
43.1707305 56.7724366 0.996182638 255 79 163
43.1243805 56.6654959 1.19173246 255 79 163
44.0712954 58.0962107 0.11068696 255 79 163
43.405477 56.9069877 0.996182638 255 79 163
43.6029361 57.0995201 0.805512818 255 79 163
43.3740639 56.8191342 1.19173246 255 79 163
44.4547105 57.9924812 0.201378204 255 79 163
44.6870825 58.2326051 0.11068696 255 79 163
45.1679413 57.7660248 0.461738719 255 79 163
44.935073 58.4708682 0.0476692983 255 79 163
43.9147111 57.1227499 0.996182638 255 79 163
44.1221669 57.1243157 1.19173246 255 79 163
44.305388 57.2421949 0.996182638 255 79 163
45.3071554 58.320499 0.11068696 255 79 163
44.5858153 57.4027299 0.805512818 255 79 163
44.8488948 57.3620002 0.996182638 255 79 163
46.0614067 58.1794419 0.201378204 255 79 163
45.1415006 57.34467 1.19173246 255 79 163
45.4586181 57.4458935 0.996182638 255 79 163
46.5344001 58.3715126 0.11068696 255 79 163
46.7637448 58.5597272 0.0476692983 255 79 163
47.3755438 58.3171291 0.11068696 255 79 163
47.8499977 58.4504005 0.0476692983 255 79 163
47.4854571 57.7657688 0.461738719 255 79 163
46.5741097 57.4847908 0.996182638 255 79 163
48.1302145 58.2010867 0.11068696 255 79 163
47.2656468 57.4383619 0.996182638 255 79 163
48.3051985 57.9682297 0.201378204 255 79 163
48.746264 58.0495144 0.11068696 255 79 163
48.6304381 57.5263377 0.461738719 255 79 163
49.0718534 58.1507336 0.0476692983 255 79 163
49.1587708 57.911496 0.11068696 255 79 163
48.0042167 57.3230273 0.996182638 255 79 163
48.2014491 57.3720447 0.805512818 255 79 163
49.3697119 57.6182898 0.201378204 255 79 163
49.9690172 57.7414594 0.0476692983 255 79 163
49.7820805 57.6238948 0.11068696 255 79 163
49.730633 57.0280827 0.461738719 255 79 163
48.5427774 57.1860777 0.996182638 255 79 163
50.283702 57.529297 0.0476692983 255 79 163
50.0362615 57.4665555 0.11068696 255 79 163
50.2269951 57.3254035 0.11068696 255 79 163
48.8561152 57.0792468 0.996182638 255 79 163
50.7411196 57.0920398 0.0476692983 255 79 163
48.7360628 57.0561774 1.19173246 255 79 163
49.1280994 57.0645179 0.805512818 255 79 163
50.5361881 57.0314494 0.11068696 255 79 163
50.2403143 57.0620732 0.201378204 255 79 163
50.2183456 56.5755797 0.461738719 255 79 163
51.2927426 56.5230875 0.0104486542 255 79 163
50.6701557 56.863031 0.11068696 255 79 163
51.1345087 56.4683123 0.0390367325 255 79 163
49.3570625 56.846971 0.996182638 255 79 163
49.5656528 56.7153831 0.996182638 255 79 163
49.4061531 56.7448171 1.19173246 255 79 163
50.5831127 56.3164534 0.295498894 255 79 163
49.8556044 56.5943194 0.805512818 255 79 163
49.7118941 56.602387 0.996182638 255 79 163
49.6348997 56.5843789 1.19173246 255 79 163
49.9051051 56.4066524 0.996182638 255 79 163
49.9603959 56.3329828 0.996182638 255 79 163
49.8820256 56.3339046 1.19173246 255 79 163
46.8660528 53.9501185 0.541256796 255 79 163
46.8989496 54.1719994 0.868172566 255 79 163
46.7403906 54.1299434 0.805512818 255 79 163
45.96111 53.7600375 0.364059448 255 79 163
45.9530557 53.9418127 0.541256796 255 79 163
46.3833147 54.235402 1.06110339 255 79 163
46.0793508 54.1238021 0.805512818 255 79 163
45.7020021 53.881024 0.461738719 255 79 163
45.8659132 54.1654715 0.868172566 255 79 163
45.7518232 57.7472208 0.541256796 255 79 163
46.3933425 57.9461368 0.364059448 255 79 163
46.3272924 57.765063 0.541256796 255 79 163
46.5534625 57.8364977 0.461738719 255 79 163
45.7382907 57.4505612 1.04483418 255 79 163
33.804259 70.1802254 33.51329 255 79 163
33.804259 70.1802254 33.51329 255 79 163
32.1892034 70.1802254 30.3603408 255 79 163
32.3504579 70.1802254 30.3808813 255 79 163
32.5031536 70.1802254 30.4371971 255 79 163
32.6434501 70.1802254 30.5198928 255 79 163
32.8109118 70.1802254 30.6580959 255 79 163
33.0258704 70.1802254 30.9026362 255 79 163
33.2847331 70.1802254 31.3170601 255 79 163
33.5646491 70.1802254 31.9941086 255 79 163
33.74265 70.1802254 32.7445519 255 79 163
32.1892034 70.1403951 30.712472 255 79 163
32.1892034 70.022917 31.0468099 255 79 163
32.1892034 69.833727 31.3464598 255 79 163
32.1892034 69.5823854 31.5962803 255 79 163
32.1892034 69.2815927 31.7836478 255 79 163
32.1892034 68.9512165 31.8980467 255 79 163
32.1892034 68.6037508 31.9368154 255 79 163
32.5503848 68.8143834 31.9764426 255 79 163
32.8915232 69.0299377 32.0928586 255 79 163
33.1962593 69.2505043 32.279618 255 79 163
33.4501968 69.4757168 32.5269886 255 79 163
33.6414885 69.704809 32.8224912 255 79 163
33.7613135 69.9366955 33.1515344 255 79 163
33.7934896 70.0583577 33.3312107 255 79 163
33.7000743 70.0844241 32.7887695 255 79 163
33.6945599 70.0230766 32.8440026 255 79 163
33.6896629 69.9485281 32.8839188 255 79 163
33.6861029 69.8621682 32.9064409 255 79 163
32.4977628 70.0278138 31.0983819 255 79 163
32.5205087 69.7206496 31.5506442 255 79 163
32.6743632 69.7806272 31.5674172 255 79 163
32.9127701 70.0006675 31.4360481 255 79 163
32.8544234 69.8101523 31.6638571 255 79 163
33.0746462 70.0141952 31.5862126 255 79 163
32.7511177 69.5438331 31.8218887 255 79 163
32.9551111 69.8286779 31.7327741 255 79 163
33.0955108 69.8573384 31.8486718 255 79 163
33.2360262 69.8900392 31.9914211 255 79 163
33.1257214 69.6712398 32.0548557 255 79 163
33.4401706 70.0596874 32.0871384 255 79 163
33.3617554 69.923725 32.1474341 255 79 163
33.3063827 69.7453432 32.2282826 255 79 163
33.6407598 70.1617654 32.3841993 255 79 163
33.7085529 70.1663817 32.6481553 255 79 163
33.6377473 70.1420297 32.4342189 255 79 163
33.7049786 70.1325887 32.7220859 255 79 163
33.5087856 69.9708003 32.3775269 255 79 163
33.7253917 70.1676865 32.7280529 255 79 163
32.5371076 69.2991969 31.8491164 255 79 163
32.1892034 68.6037508 31.9368154 255 79 163
4.3001213 68.6037508 31.9368154 255 79 163
32.1892034 70.1802254 30.3603408 255 79 163
32.1892034 70.1403951 30.712472 255 79 163
32.1892034 70.022917 31.0468099 255 79 163
32.1892034 69.833727 31.3464598 255 79 163
32.1892034 69.5823854 31.5962803 255 79 163
32.1892034 69.2815927 31.7836478 255 79 163
32.1892034 68.9512165 31.8980467 255 79 163
4.00072131 70.1802254 30.3603408 255 79 163
4.29993454 68.9569541 31.8967391 255 79 163
4.29709051 69.2986548 31.7753958 255 79 163
4.28684137 69.578781 31.5991258 255 79 163
4.26506579 69.7984993 31.3888583 255 79 163
4.22356357 69.9801317 31.1290072 255 79 163
4.15490167 70.1090336 30.8287381 255 79 163
4.08556036 70.162594 30.595458 255 79 163
62.5122629 70.1802254 36.5487361 255 79 163
63.0207847 70.0959565 37.0572579 255 79 163
63.4334265 69.8830982 37.4698997 255 79 163
63.7373747 69.5959067 37.7738479 255 79 163
63.9211895 69.3109976 37.9576627 255 79 163
64.0334181 69.0177063 38.0698913 255 79 163
64.0748465 68.8125686 38.1113197 255 79 163
64.0887375 68.6037508 38.1252107 255 79 163
64.0887375 68.6037508 1.5764746 255 79 163
62.5122629 70.1802254 1.5764746 255 79 163
62.8630615 70.1406999 1.5764746 255 79 163
63.1962696 70.0241054 1.5764746 255 79 163
63.4951787 69.8362883 1.5764746 255 79 163
63.7448004 69.5866667 1.5764746 255 79 163
63.9326174 69.2877575 1.5764746 255 79 163
64.049212 68.9545494 1.5764746 255 79 163
64.0887375 23.1549469 3.76711381 218 222 230
64.0887375 11.2565972 3.76711381 218 222 230
62.876182 11.3932194 3.76711381 218 222 230
61.7244292 11.7962351 3.76711381 218 222 230
60.6912326 12.4454356 3.76711381 218 222 230
59.8284011 13.3082671 3.76711381 218 222 230
59.1792006 14.3414637 3.76711381 218 222 230
58.7761849 15.4932165 3.76711381 218 222 230
58.6395627 16.705772 3.76711381 218 222 230
58.6395627 17.705772 3.76711381 218 222 230
58.7761849 18.9183275 3.76711381 218 222 230
59.1792006 20.0700804 3.76711381 218 222 230
59.8284011 21.103277 3.76711381 218 222 230
60.6912326 21.9661085 3.76711381 218 222 230
61.7244292 22.6153089 3.76711381 218 222 230
62.876182 23.0183247 3.76711381 218 222 230
62.5122629 70.1802254 1.5764746 255 79 163
62.8630615 70.1406999 1.5764746 255 79 163
63.1962696 70.0241054 1.5764746 255 79 163
63.4951787 69.8362883 1.5764746 255 79 163
63.7448004 69.5866667 1.5764746 255 79 163
63.9326174 69.2877575 1.5764746 255 79 163
64.049212 68.9545494 1.5764746 255 79 163
64.0887375 68.6037508 1.5764746 255 79 163
62.5122629 68.6037508 0 255 79 163
62.8630615 68.6037508 0.0395255096 255 79 163
63.1962696 68.6037508 0.156120064 255 79 163
63.4951787 68.6037508 0.343937126 255 79 163
63.7448004 68.6037508 0.593558763 255 79 163
63.9326174 68.6037508 0.892467905 255 79 163
64.049212 68.6037508 1.225676 255 79 163
62.5122629 68.6037508 0 255 79 163
62.5122629 68.9545494 0.0395255096 255 79 163
62.5122629 69.2877575 0.156120064 255 79 163
62.5122629 69.5866667 0.343937126 255 79 163
62.5122629 69.8362883 0.593558763 255 79 163
62.5122629 70.0241054 0.892467905 255 79 163
62.5122629 70.1406999 1.225676 255 79 163
62.9934226 68.6799591 0.0771581588 255 79 163
62.9463234 68.8249157 0.0771581588 255 79 163
62.8567352 68.9482232 0.0771581588 255 79 163
63.393539 68.8900948 0.301079857 255 79 163
62.7334278 69.0378113 0.0771581588 255 79 163
63.2619211 69.1484094 0.301079857 255 79 163
63.7719554 68.8032665 0.649846079 255 79 163
62.5884711 69.0849106 0.0771581588 255 79 163
63.0569215 69.3534091 0.301079857 255 79 163
63.648648 69.1827679 0.649846079 255 79 163
62.7986069 69.4850269 0.301079857 255 79 163
63.4141032 69.5055911 0.649846079 255 79 163
63.9381976 69.0670651 1.08931716 255 79 163
63.09128 69.7401359 0.649846079 255 79 163
63.7252354 69.4850269 1.08931716 255 79 163
62.7117786 69.8634434 0.649846079 255 79 163
63.393539 69.8167233 1.08931716 255 79 163
62.9755772 70.0296855 1.08931716 255 79 163
26.3359509 45.2700581 28.0194621 218 222 230
26.4269506 46.0195083 28.0194621 218 222 230
26.6946613 46.7254033 28.0194621 218 222 230
27.1235245 47.3467189 28.0194621 218 222 230
27.6886162 47.8473465 28.0194621 218 222 230
28.3570954 48.1981915 28.0194621 218 222 230
29.0901126 48.378864 28.0194621 218 222 230
29.8450673 48.378864 28.0194621 218 222 230
30.5780845 48.1981915 28.0194621 218 222 230
31.2465637 47.8473465 28.0194621 218 222 230
31.8116555 47.3467189 28.0194621 218 222 230
32.2405187 46.7254033 28.0194621 218 222 230
32.5082293 46.0195083 28.0194621 218 222 230
32.599229 45.2700581 28.0194621 218 222 230
32.599229 42.5002752 28.0194621 218 222 230
32.5082293 41.7508249 28.0194621 218 222 230
32.2405187 41.04493 28.0194621 218 222 230
31.8116555 40.4236144 28.0194621 218 222 230
31.2465637 39.9229868 28.0194621 218 222 230
30.5780845 39.5721418 28.0194621 218 222 230
29.8450673 39.3914693 28.0194621 218 222 230
29.0901126 39.3914693 28.0194621 218 222 230
28.3570954 39.5721418 28.0194621 218 222 230
27.6886162 39.9229868 28.0194621 218 222 230
27.1235245 40.4236144 28.0194621 218 222 230
26.6946613 41.04493 28.0194621 218 222 230
26.4269506 41.7508249 28.0194621 218 222 230
26.3359509 42.5002752 28.0194621 218 222 230
3 5 4 3
3 7 6 5
3 14 7 5
3 2 11 12
3 2 12 13
3 2 13 14
3 2 5 3
3 2 14 5
3 0 8 9
3 0 9 10
3 0 10 11
3 0 1 8
3 0 11 2
3 17 18 19
3 23 15 17
3 23 19 20
3 23 20 21
3 23 21 22
3 23 17 19
3 27 16 15
3 28 27 15
3 29 15 23
3 29 28 15
3 30 29 23
3 31 30 23
3 24 32 31
3 24 31 23
3 33 32 24
3 34 33 24
3 63 62 37
3 61 37 62
3 61 38 37
3 64 63 37
3 64 37 36
3 60 38 61
3 59 38 60
3 59 39 38
3 65 36 35
3 65 64 36
3 58 39 59
3 57 39 58
3 56 39 57
3 56 40 39
3 66 65 35
3 55 40 56
3 54 41 40
3 54 40 55
3 67 35 34
3 67 66 35
3 67 34 24
3 53 41 54
3 68 67 24
3 52 26 41
3 52 41 53
3 69 68 24
3 51 26 52
3 70 69 24
3 71 70 24
3 72 71 24
3 25 26 51
3 25 43 42
3 25 44 43
3 25 45 44
3 25 46 45
3 25 47 46
3 25 48 47
3 25 49 48
3 25 50 49
3 25 51 50
3 25 73 72
3 25 74 73
3 25 42 74
3 25 72 24
3 84 75 76
3 85 84 76
3 86 76 77
3 86 85 76
3 87 77 78
3 87 86 77
3 88 78 79
3 88 87 78
3 89 79 80
3 89 80 81
3 89 88 79
3 90 89 81
3 83 81 82
3 83 90 81
3 91 93 92
3 120 94 93
3 120 93 91
3 121 95 94
3 121 94 120
3 122 96 95
3 122 95 121
3 123 97 96
3 123 96 122
3 124 98 97
3 124 97 123
3 125 99 98
3 125 98 124
3 126 100 99
3 126 99 125
3 127 101 100
3 127 100 126
3 128 102 101
3 128 101 127
3 129 103 102
3 129 102 128
3 130 104 103
3 130 103 129
3 131 105 104
3 131 104 130
3 132 106 105
3 132 105 131
3 133 106 132
3 133 107 106
3 134 107 133
3 134 108 107
3 110 109 108
3 111 108 134
3 111 110 108
3 119 110 111
3 118 119 111
3 117 118 111
3 113 111 112
3 116 117 111
3 114 111 113
3 115 111 114
3 115 116 111
3 137 139 138
3 143 139 137
3 143 137 135
3 143 140 139
3 143 141 140
3 143 142 141
3 185 135 186
3 187 186 135
3 184 135 185
3 184 143 135
3 188 187 135
3 183 143 184
3 136 188 135
3 161 188 136
3 182 143 183
3 162 161 136
3 163 162 136
3 148 144 149
3 164 163 136
3 150 144 143
3 150 149 144
3 147 144 148
3 146 144 147
3 151 143 182
3 151 150 143
3 165 164 136
3 145 144 146
3 152 151 182
3 166 165 136
3 153 182 181
3 153 152 182
3 167 166 136
3 154 181 180
3 154 153 181
3 155 180 179
3 155 154 180
3 156 179 178
3 156 155 179
3 157 178 177
3 157 156 178
3 203 173 172
3 204 203 172
3 202 173 203
3 202 174 173
3 205 204 172
3 205 172 171
3 201 174 202
3 201 175 174
3 206 205 171
3 206 171 170
3 200 176 175
3 200 175 201
3 207 170 169
3 207 206 170
3 208 207 169
3 208 169 168
3 199 176 200
3 199 177 176
3 209 208 168
3 210 209 168
3 210 168 167
3 210 167 136
3 211 210 136
3 198 177 199
3 198 157 177
3 212 211 136
3 197 157 198
3 197 158 157
3 213 212 136
3 196 159 158
3 196 158 197
3 195 159 196
3 194 159 195
3 193 159 194
3 192 159 193
3 191 159 192
3 160 159 191
3 160 190 189
3 160 191 190
3 160 215 214
3 160 216 215
3 160 217 216
3 160 218 217
3 160 219 218
3 160 220 219
3 160 221 220
3 160 222 221
3 160 223 222
3 160 189 223
3 160 214 136
3 214 213 136
3 266 249 250
3 267 266 250
3 224 271 225
3 272 246 245
3 272 247 246
3 272 248 247
3 273 272 245
3 274 248 272
3 274 265 248
3 275 245 244
3 275 273 245
3 276 272 273
3 276 274 272
3 277 276 273
3 277 244 243
3 277 273 275
3 277 275 244
3 278 243 242
3 278 277 243
3 279 241 240
3 279 242 241
3 279 278 242
3 280 265 274
3 281 274 276
3 281 280 274
3 282 276 277
3 282 281 276
3 283 277 278
3 283 282 277
3 284 283 278
3 284 279 240
3 284 278 279
3 285 264 265
3 285 265 280
3 286 240 239
3 286 284 240
3 287 280 281
3 287 285 280
3 288 287 281
3 288 281 282
3 289 282 283
3 289 288 282
3 290 264 285
3 291 289 283
3 291 283 284
3 292 287 288
3 292 290 285
3 292 285 287
3 293 284 286
3 293 291 284
3 293 286 239
3 294 292 288
3 295 288 289
3 295 294 288
3 296 289 291
3 296 295 289
3 297 239 238
3 297 293 239
3 297 291 293
3 297 296 291
3 298 263 264
3 298 264 290
3 299 290 292
3 299 298 290
3 300 292 294
3 300 294 295
3 300 299 292
3 301 295 296
3 301 300 295
3 302 263 298
3 303 301 296
3 303 296 297
3 304 298 299
3 304 302 298
3 305 297 238
3 305 303 297
3 306 299 300
3 306 304 299
3 307 300 301
3 307 306 300
3 308 301 303
3 308 307 301
3 309 308 303
3 309 238 237
3 309 305 238
3 309 303 305
3 310 262 263
3 310 263 302
3 311 302 304
3 311 310 302
3 312 311 304
3 312 304 306
3 313 307 308
3 313 312 306
3 313 306 307
3 314 310 311
3 314 262 310
3 315 313 308
3 316 311 312
3 316 314 311
3 317 309 237
3 317 315 308
3 317 308 309
3 318 316 312
3 319 313 315
3 319 318 312
3 319 312 313
3 320 319 315
3 320 315 317
3 321 237 236
3 321 320 317
3 321 317 237
3 322 262 314
3 322 261 262
3 323 314 316
3 323 322 314
3 324 323 316
3 324 316 318
3 325 318 319
3 325 324 318
3 326 322 323
3 326 261 322
3 327 319 320
3 327 325 319
3 328 326 323
3 329 321 236
3 329 320 321
3 329 327 320
3 330 323 324
3 330 324 325
3 330 328 323
3 331 330 325
3 332 325 327
3 332 331 325
3 333 329 236
3 333 236 235
3 333 327 329
3 333 332 327
3 334 260 261
3 334 261 326
3 334 326 328
3 335 334 328
3 336 328 330
3 336 335 328
3 337 260 334
3 338 330 331
3 338 336 330
3 339 334 335
3 339 337 334
3 340 331 332
3 340 338 331
3 341 339 335
3 341 335 336
3 342 333 235
3 342 332 333
3 342 340 332
3 343 336 338
3 343 341 336
3 344 343 338
3 344 338 340
3 345 340 342
3 345 235 234
3 345 342 235
3 345 344 340
3 346 259 260
3 346 260 337
3 346 337 339
3 347 346 339
3 348 341 343
3 348 347 339
3 348 339 341
3 349 259 346
3 350 348 343
3 351 346 347
3 351 349 346
3 352 343 344
3 352 344 345
3 352 350 343
3 353 347 348
3 353 351 347
3 354 345 234
3 354 352 345
3 355 353 348
3 355 348 350
3 356 350 352
3 356 355 350
3 357 234 233
3 357 354 234
3 357 352 354
3 357 356 352
3 358 259 349
3 358 258 259
3 359 351 353
3 359 349 351
3 359 358 349
3 360 359 353
3 361 358 359
3 361 258 358
3 362 360 353
3 362 353 355
3 363 359 360
3 363 361 359
3 364 362 355
3 364 355 356
3 364 356 357
3 365 363 360
3 366 357 233
3 366 364 357
3 367 360 362
3 367 365 360
3 368 367 362
3 368 362 364
3 369 233 232
3 369 366 233
3 369 364 366
3 369 368 364
3 370 258 361
3 370 257 258
3 371 361 363
3 371 370 361
3 371 363 365
3 372 371 365
3 373 370 371
3 373 257 370
3 374 365 367
3 374 372 365
3 375 373 371
3 376 374 367
3 376 367 368
3 377 375 371
3 377 371 372
3 377 372 374
3 378 376 368
3 378 369 232
3 378 368 369
3 379 377 374
3 380 374 376
3 380 379 374
3 381 232 231
3 381 378 232
3 381 380 376
3 381 376 378
3 382 256 257
3 382 257 373
3 383 373 375
3 383 382 373
3 383 256 382
3 384 256 383
3 384 383 375
3 384 375 377
3 385 377 379
3 385 256 384
3 385 384 377
3 386 385 379
3 386 379 380
3 387 381 231
3 387 380 381
3 387 386 380
3 388 255 256
3 389 388 256
3 389 255 388
3 390 256 385
3 390 389 256
3 391 385 386
3 391 390 385
3 392 230 229
3 392 231 230
3 392 387 231
3 392 386 387
3 392 391 386
3 393 254 255
3 394 393 255
3 394 255 389
3 394 254 393
3 395 389 390
3 395 394 389
3 396 395 390
3 396 390 391
3 397 229 228
3 397 392 229
3 397 391 392
3 397 396 391
3 398 253 254
3 399 398 254
3 399 253 398
3 400 254 394
3 400 253 399
3 400 399 254
3 401 400 394
3 401 394 395
3 401 395 396
3 402 401 396
3 403 397 228
3 403 396 397
3 403 402 396
3 404 252 253
3 405 252 404
3 405 404 253
3 406 252 405
3 406 253 400
3 406 405 253
3 407 400 401
3 407 406 400
3 408 407 401
3 408 401 402
3 409 227 226
3 409 228 227
3 409 403 228
3 409 402 403
3 409 408 402
3 410 251 252
3 411 410 252
3 411 251 410
3 412 411 252
3 412 252 406
3 413 412 406
3 413 406 407
3 413 407 408
3 414 413 408
3 415 408 409
3 415 414 408
3 415 409 226
3 416 250 251
3 417 251 411
3 417 267 250
3 417 250 416
3 417 416 251
3 418 411 412
3 418 417 411
3 418 267 417
3 418 268 267
3 419 418 412
3 419 412 413
3 419 268 418
3 419 269 268
3 420 413 414
3 420 419 413
3 420 269 419
3 420 270 269
3 421 226 225
3 421 415 226
3 421 414 415
3 421 420 414
3 421 270 420
3 421 225 271
3 421 271 270
3 430 431 432
3 430 432 433
3 429 430 433
3 428 433 434
3 428 429 433
3 427 434 435
3 427 428 434
3 426 435 436
3 426 427 435
3 425 436 437
3 425 426 436
3 424 437 438
3 424 425 437
3 423 438 422
3 423 424 438
3 439 440 441
3 458 441 442
3 458 442 443
3 458 443 444
3 458 439 441
3 445 458 444
3 446 458 445
3 447 458 446
3 448 458 447
3 449 457 458
3 449 458 448
3 450 457 449
3 451 457 450
3 452 457 451
3 453 457 452
3 454 457 453
3 455 457 454
3 456 457 455
3 482 460 459
3 482 459 481
3 483 461 460
3 483 460 482
3 484 461 483
3 485 461 484
3 486 461 485
3 487 462 461
3 487 461 486
3 477 462 487
3 478 463 462
3 478 462 477
3 479 464 463
3 479 463 478
3 480 465 464
3 480 464 479
3 476 465 480
3 475 466 465
3 475 465 476
3 474 466 475
3 473 466 474
3 472 466 473
3 471 467 466
3 471 466 472
3 470 467 471
3 468 470 469
3 468 467 470
3 489 494 495
3 489 495 496
3 489 496 488
3 493 494 489
3 492 493 489
3 491 492 489
3 490 491 489
3 498 499 497
3 500 499 498
3 503 518 517
3 503 510 518
3 504 516 515
3 504 517 516
3 504 503 517
3 505 515 514
3 505 504 515
3 506 514 513
3 506 505 514
3 507 513 512
3 507 506 513
3 508 512 511
3 508 507 512
3 509 511 501
3 509 508 511
3 502 509 501
3 524 525 526
3 524 526 520
3 521 522 523
3 519 523 524
3 519 524 520
3 519 521 523
3 529 596 562
3 530 596 529
3 530 595 596
3 531 595 530
3 531 594 595
3 532 594 531
3 532 593 594
3 533 593 532
3 533 592 593
3 534 592 533
3 535 592 534
3 535 591 592
3 536 591 535
3 536 590 591
3 537 590 536
3 537 589 590
3 538 588 589
3 538 589 537
3 539 588 538
3 539 587 588
3 540 585 586
3 540 586 587
3 540 587 539
3 541 585 540
3 541 584 585
3 542 583 584
3 542 584 541
3 543 583 542
3 543 582 583
3 544 580 581
3 544 581 582
3 544 582 543
3 545 580 544
3 545 579 580
3 546 578 579
3 546 579 545
3 547 578 546
3 548 577 578
3 548 578 547
3 549 576 577
3 549 577 548
3 550 576 549
3 550 575 576
3 551 574 575
3 551 575 550
3 552 574 551
3 552 573 574
3 553 572 573
3 553 573 552
3 554 571 572
3 554 572 553
3 555 570 571
3 555 571 554
3 556 568 569
3 556 569 570
3 556 570 555
3 557 568 556
3 557 567 568
3 558 567 557
3 558 566 567
3 559 565 566
3 559 566 558
3 560 565 559
3 560 563 564
3 560 564 565
3 561 528 563
3 561 563 560
3 527 528 561
3 606 601 602
3 605 601 606
3 607 604 603
3 607 605 604
3 607 601 605
3 600 607 608
3 600 608 609
3 600 609 610
3 600 610 611
3 600 611 612
3 600 601 607
3 599 598 597
3 599 612 613
3 599 613 614
3 599 614 615
3 599 615 598
3 599 600 612
3 618 625 631
3 619 631 630
3 619 618 631
3 620 630 629
3 620 619 630
3 621 629 628
3 621 620 629
3 622 628 627
3 622 621 628
3 623 627 626
3 623 622 627
3 624 626 616
3 624 623 626
3 617 624 616
3 640 641 648
3 639 648 647
3 639 640 648
3 638 647 646
3 638 639 647
3 637 646 645
3 637 638 646
3 636 645 644
3 636 637 645
3 635 644 643
3 635 636 644
3 634 643 642
3 634 635 643
3 633 642 632
3 633 634 642
3 660 665 659
3 660 666 665
3 661 667 666
3 661 666 660
3 662 668 667
3 662 667 661
3 663 669 668
3 663 668 662
3 664 670 669
3 664 669 663
3 651 671 670
3 651 670 664
3 652 671 651
3 653 671 652
3 649 650 671
3 654 671 653
3 655 649 671
3 655 671 654
3 657 658 649
3 656 657 649
3 656 649 655
3 682 673 672
3 682 674 673
3 683 675 674
3 683 674 682
3 684 676 675
3 684 675 683
3 685 677 676
3 685 678 677
3 685 676 684
3 686 678 685
3 687 679 678
3 687 678 686
3 681 680 679
3 681 679 687
3 691 689 688
3 691 690 689
3 695 693 692
3 695 694 693
3 712 697 696
3 712 698 697
3 713 699 698
3 713 698 712
3 714 700 699
3 714 699 713
3 715 701 700
3 715 702 701
3 715 700 714
3 716 702 715
3 717 703 702
3 717 704 703
3 717 702 716
3 718 704 717
3 719 705 704
3 719 706 705
3 719 704 718
3 720 707 706
3 720 706 719
3 721 707 720
3 722 708 707
3 722 707 721
3 723 709 708
3 723 708 722
3 711 710 709
3 711 709 723
3 727 725 724
3 727 726 725
3 744 729 728
3 744 730 729
3 745 731 730
3 745 732 731
3 745 730 744
3 746 732 745
3 747 733 732
3 747 732 746
3 748 734 733
3 748 735 734
3 748 733 747
3 749 735 748
3 750 736 735
3 750 735 749
3 751 737 736
3 751 738 737
3 751 736 750
3 752 738 751
3 753 739 738
3 753 738 752
3 754 740 739
3 754 741 740
3 754 739 753
3 755 741 754
3 743 742 741
3 743 741 755
3 765 764 763
3 766 763 762
3 766 765 763
3 807 797 806
3 798 797 807
3 799 798 807
3 842 757 756
3 842 756 808
3 842 808 809
3 842 809 810
3 843 758 757
3 843 757 842
3 844 843 842
3 844 810 811
3 844 842 810
3 845 843 844
3 846 759 758
3 846 760 759
3 846 845 847
3 846 847 760
3 846 758 843
3 846 843 845
3 848 845 844
3 849 844 811
3 849 848 844
3 849 811 812
3 850 848 849
3 851 812 813
3 851 849 812
3 852 845 848
3 852 847 845
3 852 848 850
3 852 853 847
3 854 849 851
3 854 853 852
3 854 850 849
3 854 852 850
3 855 854 851
3 855 853 854
3 856 855 851
3 856 851 813
3 856 813 814
3 857 855 856
3 857 853 855
3 858 761 760
3 858 762 761
3 858 760 847
3 859 847 853
3 859 858 847
3 860 858 859
3 861 766 762
3 861 767 766
3 861 768 767
3 861 762 858
3 861 858 860
3 862 853 857
3 863 860 859
3 864 857 856
3 864 865 862
3 864 856 814
3 864 862 857
3 866 859 853
3 866 863 859
3 867 814 815
3 867 864 814
3 868 769 768
3 868 768 861
3 868 861 860
3 868 860 863
3 868 863 866
3 869 866 853
3 870 770 769
3 870 769 868
3 870 868 866
3 870 866 869
3 871 865 864
3 871 867 815
3 871 864 867
3 872 869 853
3 873 872 853
3 873 862 865
3 873 853 862
3 874 869 872
3 874 771 770
3 874 872 873
3 874 770 870
3 874 870 869
3 875 865 871
3 876 877 875
3 876 875 871
3 876 871 815
3 878 873 865
3 878 874 873
3 878 771 874
3 879 877 876
3 879 876 815
3 879 815 816
3 880 772 771
3 880 771 878
3 881 772 880
3 881 880 878
3 881 878 865
3 882 875 877
3 882 881 865
3 882 865 875
3 883 877 879
3 883 879 816
3 884 772 881
3 884 881 882
3 884 882 877
3 885 883 816
3 886 773 772
3 886 772 884
3 887 884 877
3 887 773 886
3 887 886 884
3 888 885 816
3 889 888 816
3 889 816 817
3 890 889 817
3 891 890 817
3 891 817 818
3 892 893 890
3 892 890 891
3 892 891 818
3 894 893 892
3 895 892 818
3 895 894 892
3 895 896 894
3 897 895 818
3 897 818 819
3 898 896 895
3 898 895 897
3 898 897 819
3 899 900 893
3 899 775 774
3 899 774 900
3 901 899 893
3 901 893 894
3 901 894 896
3 902 896 898
3 903 819 820
3 904 898 819
3 904 902 898
3 904 819 903
3 904 905 902
3 906 775 899
3 906 899 901
3 906 901 896
3 907 820 821
3 907 903 820
3 908 905 904
3 908 904 903
3 908 903 907
3 909 908 907
3 910 906 896
3 911 910 776
3 911 776 775
3 911 906 910
3 911 775 906
3 912 907 821
3 912 821 822
3 912 909 907
3 913 896 902
3 913 910 896
3 913 902 905
3 914 822 823
3 914 912 822
3 915 909 912
3 916 909 915
3 916 917 905
3 916 905 908
3 916 908 909
3 918 912 914
3 918 915 912
3 918 917 916
3 918 916 915
3 919 918 914
3 920 919 914
3 920 823 824
3 920 914 823
3 921 913 905
3 921 910 913
3 921 776 910
3 922 920 824
3 922 824 825
3 923 919 920
3 924 918 919
3 924 919 923
3 924 917 918
3 924 925 917
3 926 922 825
3 926 825 826
3 927 920 922
3 927 923 920
3 927 924 923
3 927 925 924
3 928 921 905
3 929 776 921
3 929 777 776
3 929 921 928
3 930 927 922
3 930 922 926
3 930 925 927
3 931 928 905
3 931 905 917
3 932 930 926
3 933 928 931
3 934 932 926
3 934 826 827
3 934 926 826
3 935 778 777
3 935 777 929
3 935 929 928
3 935 928 933
3 936 934 827
3 936 827 828
3 937 932 934
3 938 925 930
3 938 930 932
3 938 932 937
3 938 939 925
3 940 933 931
3 941 936 828
3 941 828 829
3 942 937 934
3 942 934 936
3 942 938 937
3 942 939 938
3 943 931 917
3 943 940 931
3 944 939 942
3 944 936 941
3 944 942 936
3 945 917 925
3 945 943 917
3 946 779 778
3 946 778 935
3 946 935 933
3 946 933 940
3 946 940 943
3 947 944 941
3 948 946 943
3 948 780 779
3 948 779 946
3 948 943 945
3 949 947 941
3 949 829 830
3 949 941 829
3 950 945 925
3 951 947 949
3 952 944 947
3 952 947 951
3 952 953 939
3 952 939 944
3 954 950 925
3 955 953 952
3 955 952 951
3 955 951 949
3 956 954 925
3 957 949 830
3 957 955 949
3 957 830 831
3 958 780 948
3 958 945 950
3 958 948 945
3 958 950 954
3 958 781 780
3 959 956 925
3 960 954 956
3 960 782 781
3 960 958 954
3 960 781 958
3 961 956 959
3 961 783 782
3 961 782 960
3 961 960 956
3 962 955 957
3 962 953 955
3 962 957 831
3 963 959 925
3 963 925 939
3 964 963 939
3 965 964 939
3 966 784 783
3 966 959 963
3 966 961 959
3 966 783 961
3 966 963 964
3 967 939 953
3 967 965 939
3 968 965 967
3 969 785 784
3 969 784 966
3 969 964 965
3 969 966 964
3 970 953 962
3 971 786 785
3 971 785 969
3 971 965 968
3 971 969 965
3 972 962 831
3 972 970 962
3 972 973 970
3 974 972 831
3 974 831 832
3 975 968 967
3 975 971 968
3 976 967 953
3 976 975 967
3 977 787 786
3 977 786 971
3 977 975 976
3 977 971 975
3 978 973 972
3 978 974 832
3 978 972 974
3 979 976 953
3 980 953 970
3 980 970 973
3 980 979 953
3 981 788 787
3 981 979 788
3 981 787 977
3 981 977 976
3 981 976 979
3 982 973 978
3 983 984 982
3 983 978 832
3 983 982 978
3 985 983 832
3 985 832 833
3 986 788 979
3 986 980 973
3 986 979 980
3 987 788 986
3 987 789 788
3 988 986 973
3 988 789 987
3 988 987 986
3 989 984 983
3 989 983 985
3 989 985 833
3 990 988 973
3 990 973 982
3 990 982 984
3 991 789 988
3 991 988 990
3 991 990 984
3 992 989 833
3 993 991 984
3 993 789 991
3 993 790 789
3 994 993 984
3 994 790 993
3 995 992 833
3 996 995 833
3 996 833 834
3 997 996 834
3 997 995 996
3 998 997 834
3 998 834 835
3 998 999 997
3 1000 791 790
3 1001 998 835
3 1001 999 998
3 1002 791 1000
3 1003 999 1001
3 1004 1005 1003
3 1004 1001 835
3 1004 1003 1001
3 1006 1004 835
3 1006 835 836
3 1007 1005 1004
3 1007 1004 1006
3 1007 1006 836
3 1008 1002 999
3 1008 792 791
3 1008 791 1002
3 1009 1003 1005
3 1009 1008 999
3 1009 999 1003
3 1010 1005 1007
3 1011 836 837
3 1012 1007 836
3 1012 1010 1007
3 1012 1013 1010
3 1012 836 1011
3 1014 1009 1005
3 1014 792 1008
3 1014 1008 1009
3 1015 1011 837
3 1015 837 838
3 1016 1011 1015
3 1016 1013 1012
3 1016 1012 1011
3 1017 1016 1015
3 1018 1014 1005
3 1019 838 839
3 1019 1015 838
3 1019 1017 1015
3 1020 1018 793
3 1020 792 1014
3 1020 793 792
3 1020 1014 1018
3 1021 1005 1010
3 1021 1010 1013
3 1021 1018 1005
3 1022 1017 1019
3 1023 1017 1022
3 1023 1013 1016
3 1023 1024 1013
3 1023 1016 1017
3 1025 800 801
3 1025 839 840
3 1025 840 841
3 1025 841 800
3 1025 1019 839
3 1026 1022 1019
3 1026 1024 1023
3 1026 1023 1022
3 1027 1019 1025
3 1027 1025 801
3 1027 801 802
3 1027 1026 1019
3 1028 793 1018
3 1028 1021 1013
3 1028 1018 1021
3 1029 1028 1013
3 1030 794 793
3 1030 793 1028
3 1030 1028 1029
3 1031 1026 1027
3 1031 1027 802
3 1031 804 1024
3 1031 802 803
3 1031 803 804
3 1031 1024 1026
3 1032 1029 1013
3 1032 1013 1024
3 1033 1029 1032
3 1034 794 1030
3 1034 1029 1033
3 1034 1030 1029
3 1034 795 794
3 1035 1033 1032
3 1036 1032 1024
3 1036 1024 804
3 1036 1035 1032
3 1036 804 805
3 1036 805 806
3 1037 1033 1035
3 1037 1035 1036
3 1037 1034 1033
3 1037 796 795
3 1037 795 1034
3 1037 797 796
3 1037 1036 806
3 1037 806 797
3 1038 877 883
3 1038 883 885
3 1038 887 877
3 1039 887 1038
3 1039 773 887
3 1040 1038 885
3 1040 1039 1038
3 1041 885 888
3 1042 885 1041
3 1043 774 773
3 1043 773 1039
3 1043 1039 1040
3 1044 1040 885
3 1044 885 1042
3 1044 1043 1040
3 1045 893 900
3 1045 890 893
3 1045 889 890
3 1045 888 889
3 1045 1041 888
3 1045 1042 1041
3 1046 774 1043
3 1046 900 774
3 1046 1045 900
3 1046 1043 1044
3 1046 1044 1042
3 1046 1042 1045
3 1047 989 992
3 1047 984 989
3 1047 994 984
3 1048 992 995
3 1049 1047 992
3 1049 992 1048
3 1050 999 1002
3 1050 1048 995
3 1050 995 997
3 1050 1002 1000
3 1050 1000 1049
3 1050 1049 1048
3 1050 997 999
3 1051 994 1047
3 1051 790 994
3 1051 1000 790
3 1051 1047 1049
3 1051 1049 1000
3 1063 1055 1054
3 1070 1068 1069
3 1052 1053 1076
3 1077 1076 1053
3 1078 1075 1076
3 1078 1076 1077
3 1079 1073 1074
3 1079 1075 1078
3 1080 1074 1075
3 1080 1079 1074
3 1080 1075 1079
3 1081 1056 1055
3 1081 1057 1056
3 1081 1058 1057
3 1081 1063 1064
3 1081 1064 1065
3 1081 1055 1063
3 1082 1065 1066
3 1082 1066 1067
3 1082 1081 1065
3 1083 1081 1082
3 1084 1059 1058
3 1084 1058 1081
3 1084 1081 1083
3 1085 1084 1083
3 1086 1060 1059
3 1086 1059 1084
3 1087 1070 1071
3 1087 1085 1083
3 1088 1084 1085
3 1088 1086 1084
3 1088 1085 1087
3 1089 1086 1088
3 1090 1060 1086
3 1090 1086 1089
3 1091 1071 1072
3 1091 1087 1071
3 1091 1088 1087
3 1091 1089 1088
3 1091 1090 1089
3 1092 1061 1060
3 1092 1060 1090
3 1093 1092 1090
3 1094 1093 1090
3 1094 1072 1073
3 1094 1091 1072
3 1094 1090 1091
3 1095 1062 1061
3 1095 1096 1062
3 1097 1096 1095
3 1097 1098 1096
3 1097 1095 1061
3 1097 1077 1098
3 1097 1061 1092
3 1099 1092 1093
3 1099 1093 1094
3 1099 1094 1073
3 1099 1097 1092
3 1099 1078 1077
3 1099 1073 1079
3 1099 1079 1078
3 1099 1077 1097
3 1100 1053 1062
3 1100 1062 1096
3 1100 1096 1098
3 1100 1098 1077
3 1100 1077 1053
3 1101 1067 1068
3 1101 1070 1087
3 1101 1083 1082
3 1101 1068 1070
3 1101 1082 1067
3 1101 1087 1083
3 1103 1102 1110
3 1112 1110 1109
3 1112 1103 1110
3 1113 1109 1108
3 1113 1112 1109
3 1114 1113 1108
3 1115 1108 1107
3 1115 1114 1108
3 1116 1107 1106
3 1116 1115 1107
3 1117 1106 1105
3 1117 1116 1106
3 1118 1105 1104
3 1118 1117 1105
3 1111 1118 1104
3 1125 1126 1127
3 1125 1127 1134
3 1124 1134 1133
3 1124 1125 1134
3 1123 1133 1132
3 1123 1124 1133
3 1122 1132 1131
3 1122 1123 1132
3 1121 1131 1130
3 1121 1122 1131
3 1120 1130 1129
3 1120 1121 1130
3 1119 1129 1128
3 1119 1120 1129
3 1143 1136 1137
3 1143 1137 1138
3 1143 1138 1139
3 1143 1139 1140
3 1143 1140 1141
3 1143 1141 1142
3 1135 1143 1144
3 1135 1136 1143
3 1146 1144 1145
3 1149 1150 1135
3 1148 1146 1147
3 1148 1149 1135
3 1148 1135 1144
3 1148 1144 1146
3 1157 1158 1165
3 1151 1152 1172
3 1173 1161 1160
3 1174 1160 1159
3 1174 1173 1160
3 1175 1159 1166
3 1175 1174 1159
3 1176 1162 1161
3 1176 1173 1174
3 1176 1161 1173
3 1177 1166 1167
3 1177 1175 1166
3 1178 1174 1175
3 1178 1176 1174
3 1179 1163 1162
3 1179 1164 1163
3 1179 1162 1176
3 1180 1167 1168
3 1180 1177 1167
3 1181 1178 1175
3 1181 1175 1177
3 1182 1176 1178
3 1182 1179 1176
3 1183 1168 1169
3 1183 1181 1177
3 1183 1180 1168
3 1183 1177 1180
3 1184 1178 1181
3 1184 1182 1178
3 1185 1156 1157
3 1185 1165 1164
3 1185 1164 1179
3 1185 1179 1182
3 1185 1157 1165
3 1186 1181 1183
3 1186 1184 1181
3 1187 1155 1156
3 1187 1156 1185
3 1187 1182 1184
3 1187 1185 1182
3 1188 1169 1170
3 1188 1170 1171
3 1188 1183 1169
3 1188 1186 1183
3 1189 1153 1154
3 1189 1154 1155
3 1189 1155 1187
3 1189 1184 1186
3 1189 1187 1184
3 1190 1152 1153
3 1190 1171 1172
3 1190 1172 1152
3 1190 1153 1189
3 1190 1188 1171
3 1190 1186 1188
3 1190 1189 1186
3 1207 1208 1209
3 1205 1206 1207
3 1212 1209 1210
3 1212 1210 1211
3 1214 1212 1213
3 1202 1203 1204
3 1201 1202 1204
3 1218 1204 1205
3 1218 1214 1215
3 1218 1215 1216
3 1218 1216 1217
3 1218 1207 1209
3 1218 1205 1207
3 1218 1209 1212
3 1218 1212 1214
3 1200 1201 1204
3 1199 1200 1204
3 1198 1199 1204
3 1191 1204 1218
3 1197 1198 1204
3 1192 1204 1191
3 1196 1197 1204
3 1193 1204 1192
3 1195 1196 1204
3 1194 1204 1193
3 1194 1195 1204
