ply
format ascii 1.0
comment generated by blendit.inference.finetune_visualize
element vertex 988
property float x
property float y
property float z
property uchar red
property uchar green
property uchar blue
element face 1150
property list uchar int vertex_indices
end_header
0 75.49202 0.802584028 218 222 230
0 75.49202 93.981876 218 222 230
-1.11022302e-16 0.802584028 93.981876 218 222 230
-1.11022302e-16 0.802584028 50.4084964 218 222 230
5.55111512e-17 30.0803212 50.4084964 218 222 230
5.42151171e-17 30.1565986 50.3989978 218 222 230
5.17056708e-17 30.2288758 50.3729857 218 222 230
4.90884496e-17 30.2956012 50.334547 218 222 230
4.58962166e-17 30.3754758 50.2701223 218 222 230
4.14211658e-17 30.4784548 50.1558101 218 222 230
3.47469621e-17 30.6035317 49.9616978 218 222 230
2.47352795e-17 30.7416551 49.6442347 218 222 230
1.29868071e-17 30.8400394 49.2672258 218 222 230
5.05862188e-18 30.8719364 49.0362482 218 222 230
0 30.8829052 48.8033283 218 222 230
0 30.8829052 46.2140316 218 222 230
0 30.8627827 46.0354399 218 222 230
0 30.8034244 45.8658035 218 222 230
0 30.7078066 45.7136287 218 222 230
0 30.5807241 45.5865462 218 222 230
0 30.4285493 45.4909284 218 222 230
0 30.2589129 45.4315701 218 222 230
0 30.0803212 45.4114476 218 222 230
-1.11022302e-16 0.802584028 45.4114476 218 222 230
-1.11022302e-16 0.802584028 0.802584028 218 222 230
-1.11022302e-16 47.5249994 0.802584028 218 222 230
0 47.5249994 37.0668999 218 222 230
-5.55111512e-17 48.3275834 38.672068 218 222 230
-5.31901244e-17 48.251306 38.6625694 218 222 230
-4.9823288e-17 48.1790288 38.6365573 218 222 230
-4.6505559e-17 48.1123034 38.5981187 218 222 230
-4.26048267e-17 48.0324288 38.5336939 218 222 230
-3.74986498e-17 47.9294498 38.4193817 218 222 230
-3.06791752e-17 47.8043729 38.2252694 218 222 230
-2.1679926e-17 47.6662495 37.9078063 218 222 230
-1.17486425e-17 47.5678652 37.5307974 218 222 230
-4.69947787e-18 47.5359682 37.2998198 218 222 230
-1.11022302e-16 58.3058725 38.672068 218 222 230
0 58.3058725 0.802584028 218 222 230
0 65.1587057 45.3719968 218 222 230
0 63.9246643 44.0057745 218 222 230
0 63.6259957 45.7307883 218 222 230
0 67.3418435 44.6606096 218 222 230
0 66.8386077 44.7217135 218 222 230
0 66.3646182 44.901474 218 222 230
0 65.9474215 45.1894442 218 222 230
0 65.6112635 45.5688881 218 222 230
0 65.3756805 46.0177539 218 222 230
0 65.2543638 46.5099553 218 222 230
0 65.2543638 47.0168871 218 222 230
0 65.3756805 47.5090885 218 222 230
0 65.6112635 47.9579543 218 222 230
0 65.9474215 48.3373983 218 222 230
0 66.3646182 48.6253684 218 222 230
0 66.8386077 48.8051289 218 222 230
0 67.3418435 48.8662328 218 222 230
0 67.8450792 48.8051289 218 222 230
0 68.3190687 48.6253684 218 222 230
0 68.7362655 48.3373983 218 222 230
0 69.0724234 47.9579543 218 222 230
0 69.3080064 47.5090885 218 222 230
0 69.4293232 47.0168871 218 222 230
0 69.4293232 46.5099553 218 222 230
0 69.3080064 46.0177539 218 222 230
0 69.0724234 45.5688881 218 222 230
0 68.7362655 45.1894442 218 222 230
0 68.3190687 44.901474 218 222 230
0 67.8450792 44.7217135 218 222 230
64.0783416 75.49202 0.802584028 218 222 230
64.0783416 75.49202 93.179292 218 222 230
0 75.49202 0.802584028 218 222 230
0 75.49202 93.981876 218 222 230
63.2757576 75.49202 93.981876 218 222 230
63.4543493 75.49202 93.9617536 218 222 230
63.6239858 75.49202 93.9023952 218 222 230
63.7761606 75.49202 93.8067775 218 222 230
63.9032431 75.49202 93.679695 218 222 230
63.9988608 75.49202 93.5275202 218 222 230
64.0582192 75.49202 93.3578838 218 222 230
0 58.3058725 0.802584028 255 79 163
0 75.49202 0.802584028 255 79 163
0.0118105414 75.4802094 0.6654038 255 79 163
0.0468945662 75.4451254 0.532260963 255 79 163
0.104219506 75.3878005 0.407074083 255 79 163
0.182098215 75.3099218 0.29352757 255 79 163
0.278238621 75.2137814 0.194963245 255 79 163
0.389811188 75.1022088 0.114281983 255 79 163
0.556851112 74.9351689 0.0385444635 255 79 163
0.67821528 74.8138047 0.00969466838 255 79 163
0.802584028 74.6894359 -1.11022302e-16 255 79 163
0.802584028 58.3058725 -1.11022302e-16 255 79 163
0.0201224572 58.3058725 0.623992281 255 79 163
0.0794808049 58.3058725 0.454355869 255 79 163
0.175098568 58.3058725 0.302181071 255 79 163
0.302181071 58.3058725 0.175098568 255 79 163
0.454355869 58.3058725 0.0794808049 255 79 163
0.623992281 58.3058725 0.0201224572 255 79 163
-1.11022302e-16 0.802584028 93.981876 218 222 230
0 75.49202 93.981876 218 222 230
0.0201224572 0.623992281 93.981876 218 222 230
0.0794808049 0.454355869 93.981876 218 222 230
0.175098568 0.302181071 93.981876 218 222 230
0.302181071 0.175098568 93.981876 218 222 230
0.454355869 0.0794808049 93.981876 218 222 230
0.623992281 0.0201224572 93.981876 218 222 230
0.802584028 -1.11022302e-16 93.981876 218 222 230
63.2757576 0 93.981876 218 222 230
63.2757576 75.49202 93.981876 218 222 230
-1.11022302e-16 58.3058725 38.672068 255 79 163
0 58.3058725 0.802584028 255 79 163
0.0201224572 58.1272807 0.802584028 255 79 163
0.0794808049 57.9576443 0.802584028 255 79 163
0.175098568 57.8054695 0.802584028 255 79 163
0.302181071 57.678387 0.802584028 255 79 163
0.454355869 57.5827692 0.802584028 255 79 163
0.623992281 57.5234109 0.802584028 255 79 163
0.802584028 57.5032884 0.802584028 255 79 163
0.802584028 57.5032884 37.8694839 255 79 163
0.0273473876 58.0981484 38.4643439 255 79 163
0.107525871 57.9045804 38.270776 255 79 163
0.235071419 57.7383599 38.1045554 255 79 163
0.383235025 57.6215571 37.9877526 255 79 163
0.520660516 57.5544337 37.9206292 255 79 163
0.653247522 57.5173043 37.8834998 255 79 163
0.727587634 57.5068001 37.8729956 255 79 163
-1.11022302e-16 0.802584028 50.4084964 255 79 163
0.0273473876 0.594859996 50.2007723 255 79 163
0.107525871 0.401292014 50.0072043 255 79 163
0.235071419 0.235071419 49.8409837 255 79 163
0.383235025 0.11826865 49.724181 255 79 163
0.520660516 0.0511452379 49.6570576 255 79 163
0.653247522 0.0140158762 49.6199282 255 79 163
0.727587634 0.00351165154 49.609424 255 79 163
0.802584028 0 49.6059123 255 79 163
0.802584028 -1.11022302e-16 93.981876 255 79 163
-1.11022302e-16 0.802584028 93.981876 255 79 163
0.0201224572 0.623992281 93.981876 255 79 163
0.0794808049 0.454355869 93.981876 255 79 163
0.175098568 0.302181071 93.981876 255 79 163
0.302181071 0.175098568 93.981876 255 79 163
0.454355869 0.0794808049 93.981876 255 79 163
0.623992281 0.0201224572 93.981876 255 79 163
-1.11022302e-16 58.3058725 38.672068 255 79 163
0.0273473876 58.0981484 38.4643439 255 79 163
0.107525871 57.9045804 38.270776 255 79 163
0.235071419 57.7383599 38.1045554 255 79 163
0.383235025 57.6215571 37.9877526 255 79 163
0.520660516 57.5544337 37.9206292 255 79 163
0.653247522 57.5173043 37.8834998 255 79 163
0.727587634 57.5068001 37.8729956 255 79 163
0.802584028 57.5032884 37.8694839 255 79 163
0.802584028 48.3275834 37.8694839 255 79 163
-5.55111512e-17 48.3275834 38.672068 255 79 163
0.0221754919 48.3275834 38.4847085 255 79 163
0.0874763899 48.3275834 38.3077024 255 79 163
0.192294369 48.3275834 38.1508314 255 79 163
0.330836973 48.3275834 38.0227639 255 79 163
0.495448394 48.3275834 37.930577 255 79 163
0.646007691 48.3275834 37.8849054 255 79 163
-1.11022302e-16 0.802584028 50.4084964 255 79 163
5.55111512e-17 30.0803212 50.4084964 255 79 163
0.0221754919 30.0803212 50.2211369 255 79 163
0.0874763899 30.0803212 50.0441308 255 79 163
0.192294369 30.0803212 49.8872597 255 79 163
0.330836973 30.0803212 49.7591922 255 79 163
0.495448394 30.0803212 49.6670054 255 79 163
0.646007691 30.0803212 49.6213338 255 79 163
0.802584028 30.0803212 49.6059123 255 79 163
0.802584028 0 49.6059123 255 79 163
0.0273473876 0.594859996 50.2007723 255 79 163
0.107525871 0.401292014 50.0072043 255 79 163
0.235071419 0.235071419 49.8409837 255 79 163
0.383235025 0.11826865 49.724181 255 79 163
0.520660516 0.0511452379 49.6570576 255 79 163
0.653247522 0.0140158762 49.6199282 255 79 163
0.727587634 0.00351165154 49.609424 255 79 163
0 47.5249994 37.0668999 255 79 163
0 47.5249994 37.0668999 255 79 163
-5.55111512e-17 48.3275834 38.672068 255 79 163
-5.31901244e-17 48.251306 38.6625694 255 79 163
-4.9823288e-17 48.1790288 38.6365573 255 79 163
-4.6505559e-17 48.1123034 38.5981187 255 79 163
-4.26048267e-17 48.0324288 38.5336939 255 79 163
-3.74986498e-17 47.9294498 38.4193817 255 79 163
-3.06791752e-17 47.8043729 38.2252694 255 79 163
-2.1679926e-17 47.6662495 37.9078063 255 79 163
-1.17486425e-17 47.5678652 37.5307974 255 79 163
-4.69947787e-18 47.5359682 37.2998198 255 79 163
0.0221754919 48.3275834 38.4847085 255 79 163
0.0874763899 48.3275834 38.3077024 255 79 163
0.192294369 48.3275834 38.1508314 255 79 163
0.330836973 48.3275834 38.0227639 255 79 163
0.495448394 48.3275834 37.930577 255 79 163
0.646007691 48.3275834 37.8849054 255 79 163
0.802584028 48.3275834 37.8694839 255 79 163
0.668820023 48.1198594 37.8421366 255 79 163
0.535056019 47.926291 37.7619578 255 79 163
0.401292014 47.7600708 37.6344125 255 79 163
0.267528009 47.6325252 37.4681919 255 79 163
0.133764005 47.5523467 37.274624 255 79 163
0.019629776 47.9463923 38.2887497 255 79 163
0.0686400316 47.9593308 38.1598859 255 79 163
0.139506457 47.9727253 38.0457548 255 79 163
0.230052943 47.9860729 37.9511573 255 79 163
0.339677588 47.9987361 37.8789451 255 79 163
0.0140949411 47.710171 37.9222715 255 79 163
0.466231881 48.010212 37.8307877 255 79 163
0.0477665662 47.7184591 37.8439709 255 79 163
0.0948226421 47.7280175 37.7740458 255 79 163
0.154127991 47.7379621 37.7161154 255 79 163
0.226209661 47.7469546 37.673022 255 79 163
0.310429619 47.754111 37.6460738 255 79 163
0.0702823878 47.595842 37.4727054 255 79 163
0.0496777078 47.561107 37.3578256 255 79 163
0.034844469 47.5429826 37.2724455 255 79 163
0.0274914653 47.6287777 37.6624695 255 79 163
0.0195554096 47.579782 37.5021004 255 79 163
0.0164910025 47.5640845 37.4347311 255 79 163
0.0122981145 47.5458854 37.3354299 255 79 163
0.0102873339 47.5388795 37.2853954 255 79 163
0.0053692123 47.5735182 37.5170776 255 79 163
0.00493864288 47.5659972 37.480621 255 79 163
0.00434520432 47.5561534 37.427277 255 79 163
0.00326025582 47.5404436 37.3198445 255 79 163
0.000857573347 47.5381172 37.3104808 255 79 163
0 30.8829052 48.8033283 255 79 163
0 30.8829052 48.8033283 255 79 163
5.55111512e-17 30.0803212 50.4084964 255 79 163
5.42151171e-17 30.1565986 50.3989978 255 79 163
5.17056708e-17 30.2288758 50.3729857 255 79 163
4.90884496e-17 30.2956012 50.334547 255 79 163
4.58962166e-17 30.3754758 50.2701223 255 79 163
4.14211658e-17 30.4784548 50.1558101 255 79 163
3.47469621e-17 30.6035317 49.9616978 255 79 163
2.47352795e-17 30.7416551 49.6442347 255 79 163
1.29868071e-17 30.8400394 49.2672258 255 79 163
5.05862188e-18 30.8719364 49.0362482 255 79 163
0.0221754919 30.0803212 50.2211369 255 79 163
0.0874763899 30.0803212 50.0441308 255 79 163
0.192294369 30.0803212 49.8872597 255 79 163
0.330836973 30.0803212 49.7591922 255 79 163
0.495448394 30.0803212 49.6670054 255 79 163
0.646007691 30.0803212 49.6213338 255 79 163
0.802584028 30.0803212 49.6059123 255 79 163
0.668820023 30.2880452 49.5785649 255 79 163
0.535056019 30.4816136 49.4983862 255 79 163
0.401292014 30.6478338 49.3708409 255 79 163
0.267528009 30.7753794 49.2046203 255 79 163
0.133764005 30.8555579 49.0110524 255 79 163
0.019629776 30.4615123 50.0251781 255 79 163
0.0686400316 30.4485738 49.8963143 255 79 163
0.139506457 30.4351793 49.7821832 255 79 163
0.230052943 30.4218317 49.6875857 255 79 163
0.339677588 30.4091685 49.6153735 255 79 163
0.0140949411 30.6977336 49.6586999 255 79 163
0.466231881 30.3976926 49.5672161 255 79 163
0.0477665662 30.6894455 49.5803992 255 79 163
0.0948226421 30.6798871 49.5104741 255 79 163
0.154127991 30.6699425 49.4525438 255 79 163
0.226209661 30.66095 49.4094504 255 79 163
0.310429619 30.6537936 49.3825022 255 79 163
0.0702823878 30.8120626 49.2091338 255 79 163
0.0496777078 30.8467976 49.094254 255 79 163
0.034844469 30.864922 49.0088739 255 79 163
0.0274914653 30.7791269 49.3988979 255 79 163
0.0195554096 30.8281226 49.2385288 255 79 163
0.0164910025 30.8438201 49.1711595 255 79 163
0.0122981145 30.8620192 49.0718583 255 79 163
0.0102873339 30.8690251 49.0218238 255 79 163
0.0053692123 30.8343864 49.253506 255 79 163
0.00493864288 30.8419073 49.2170494 255 79 163
0.00434520432 30.8517512 49.1637054 255 79 163
0.00326025582 30.867461 49.0562728 255 79 163
0.000857573347 30.8697874 49.0469091 255 79 163
-1.11022302e-16 47.5249994 0.802584028 218 222 230
0 47.5249994 37.0668999 218 222 230
0.0201224572 47.5249994 0.623992281 218 222 230
0.0794808049 47.5249994 0.454355869 218 222 230
0.175098568 47.5249994 0.302181071 218 222 230
0.302181071 47.5249994 0.175098568 218 222 230
0.454355869 47.5249994 0.0794808049 218 222 230
0.623992281 47.5249994 0.0201224572 218 222 230
0.802584028 47.5249994 -1.11022302e-16 218 222 230
63.2757576 47.5249994 -1.11022302e-16 218 222 230
63.4543493 47.5249994 0.0201224572 218 222 230
63.6239858 47.5249994 0.0794808049 218 222 230
63.7761606 47.5249994 0.175098568 218 222 230
63.9032431 47.5249994 0.302181071 218 222 230
63.9988608 47.5249994 0.454355869 218 222 230
64.0582192 47.5249994 0.623992281 218 222 230
64.0783416 47.5249994 0.802584028 218 222 230
64.0783416 47.5249994 37.0668999 218 222 230
0 30.8829052 48.8033283 218 222 230
0 30.8829052 46.2140316 218 222 230
34.8275362 30.8829052 48.8033283 218 222 230
34.8275362 30.8829052 46.2140316 218 222 230
-1.11022302e-16 47.5249994 0.802584028 255 79 163
0.0201224572 47.5249994 0.623992281 255 79 163
0.0794808049 47.5249994 0.454355869 255 79 163
0.175098568 47.5249994 0.302181071 255 79 163
0.302181071 47.5249994 0.175098568 255 79 163
0.454355869 47.5249994 0.0794808049 255 79 163
0.623992281 47.5249994 0.0201224572 255 79 163
0.802584028 47.5249994 -1.11022302e-16 255 79 163
0.802584028 0.802584028 -1.11022302e-16 255 79 163
-1.11022302e-16 0.802584028 0.802584028 255 79 163
0.0201224572 0.802584028 0.623992281 255 79 163
0.0794808049 0.802584028 0.454355869 255 79 163
0.175098568 0.802584028 0.302181071 255 79 163
0.302181071 0.802584028 0.175098568 255 79 163
0.454355869 0.802584028 0.0794808049 255 79 163
0.623992281 0.802584028 0.0201224572 255 79 163
0 30.8829052 46.2140316 255 79 163
34.8275362 30.8829052 46.2140316 255 79 163
34.8157256 30.8710947 46.0768514 255 79 163
34.7806416 30.8360106 45.9437086 255 79 163
34.7233167 30.7786857 45.8185217 255 79 163
34.645438 30.700807 45.7049752 255 79 163
34.5492975 30.6046666 45.6064109 255 79 163
34.437725 30.493094 45.5257296 255 79 163
34.2706851 30.3260541 45.4499921 255 79 163
34.1493209 30.2046899 45.4211423 255 79 163
34.0249521 30.0803212 45.4114476 255 79 163
0 30.0803212 45.4114476 255 79 163
0 30.8627827 46.0354399 255 79 163
0 30.8034244 45.8658035 255 79 163
0 30.7078066 45.7136287 255 79 163
0 30.5807241 45.5865462 255 79 163
0 30.4285493 45.4909284 255 79 163
0 30.2589129 45.4315701 255 79 163
0.802584028 0 0.802584028 255 79 163
0.623992281 0.0201224572 0.802584028 255 79 163
0.454355869 0.0794808049 0.802584028 255 79 163
0.302181071 0.175098568 0.802584028 255 79 163
0.175098568 0.302181071 0.802584028 255 79 163
0.0794808049 0.454355869 0.802584028 255 79 163
0.0201224572 0.623992281 0.802584028 255 79 163
-1.11022302e-16 0.802584028 0.802584028 255 79 163
0.802584028 -1.11022302e-16 45.4114476 255 79 163
-1.11022302e-16 0.802584028 45.4114476 255 79 163
0.0201224572 0.623992281 45.4114476 255 79 163
0.0794808049 0.454355869 45.4114476 255 79 163
0.175098568 0.302181071 45.4114476 255 79 163
0.302181071 0.175098568 45.4114476 255 79 163
0.454355869 0.0794808049 45.4114476 255 79 163
0.623992281 0.0201224572 45.4114476 255 79 163
0.802584028 -1.11022302e-16 45.4114476 218 222 230
34.0249521 0 45.4114476 218 222 230
-1.11022302e-16 0.802584028 45.4114476 218 222 230
0.0201224572 0.623992281 45.4114476 218 222 230
0.0794808049 0.454355869 45.4114476 218 222 230
0.175098568 0.302181071 45.4114476 218 222 230
0.302181071 0.175098568 45.4114476 218 222 230
0.454355869 0.0794808049 45.4114476 218 222 230
0.623992281 0.0201224572 45.4114476 218 222 230
0 30.0803212 45.4114476 218 222 230
34.0249521 30.0803212 45.4114476 218 222 230
0 65.1587057 45.3719968 218 222 230
0 63.9246643 44.0057745 218 222 230
64.0783416 65.1587057 45.3719968 218 222 230
64.0783416 63.9246643 44.0057745 218 222 230
0 63.6259957 45.7307883 218 222 230
0 65.1587057 45.3719968 218 222 230
64.0783416 63.6259957 45.7307883 218 222 230
64.0783416 65.1587057 45.3719968 218 222 230
0 63.9246643 44.0057745 218 222 230
0 63.6259957 45.7307883 218 222 230
64.0783416 63.9246643 44.0057745 218 222 230
64.0783416 63.6259957 45.7307883 218 222 230
0 67.3418435 44.6606096 255 79 163
0.0201224572 67.3418435 44.8392014 255 79 163
0.0794808049 67.3418435 45.0088378 255 79 163
0.175098568 67.3418435 45.1610126 255 79 163
0.302181071 67.3418435 45.2880951 255 79 163
0.454355869 67.3418435 45.3837129 255 79 163
0.623992281 67.3418435 45.4430712 255 79 163
0.802584028 67.3418435 45.4631937 255 79 163
0 66.8386077 44.7217135 255 79 163
0 66.3646182 44.901474 255 79 163
0 65.9474215 45.1894442 255 79 163
0 65.6112635 45.5688881 255 79 163
0 65.3756805 46.0177539 255 79 163
0 65.2543638 46.5099553 255 79 163
0 65.2543638 47.0168871 255 79 163
0 65.3756805 47.5090885 255 79 163
0 65.6112635 47.9579543 255 79 163
0 65.9474215 48.3373983 255 79 163
0 66.3646182 48.6253684 255 79 163
0 66.8386077 48.8051289 255 79 163
0 67.3418435 48.8662328 255 79 163
0 67.8450792 48.8051289 255 79 163
0 68.3190687 48.6253684 255 79 163
0 68.7362655 48.3373983 255 79 163
0 69.0724234 47.9579543 255 79 163
0 69.3080064 47.5090885 255 79 163
0 69.4293232 47.0168871 255 79 163
0 69.4293232 46.5099553 255 79 163
0 69.3080064 46.0177539 255 79 163
0 69.0724234 45.5688881 255 79 163
0 68.7362655 45.1894442 255 79 163
0 68.3190687 44.901474 255 79 163
0 67.8450792 44.7217135 255 79 163
0 67.3418435 44.6606096 255 79 163
0.0201224572 67.3418435 44.8392014 255 79 163
0.0794808049 67.3418435 45.0088378 255 79 163
0.175098568 67.3418435 45.1610126 255 79 163
0.302181071 67.3418435 45.2880951 255 79 163
0.454355869 67.3418435 45.3837129 255 79 163
0.623992281 67.3418435 45.4430712 255 79 163
0.802584028 67.3418435 45.4631937 255 79 163
0.802584028 67.0306786 45.5009759 255 79 163
0.802584028 66.7375976 45.6121269 255 79 163
0.802584028 66.4796331 45.7901869 255 79 163
0.802584028 66.2717772 46.0248078 255 79 163
0.802584028 66.1261096 46.3023542 255 79 163
0.802584028 66.0510961 46.6066961 255 79 163
0.802584028 66.0510961 46.9201463 255 79 163
0.802584028 66.1261096 47.2244882 255 79 163
0.802584028 66.2717772 47.5020346 255 79 163
0.802584028 66.4796331 47.7366555 255 79 163
0.802584028 66.7375976 47.9147155 255 79 163
0.802584028 67.0306786 48.0258665 255 79 163
0.802584028 67.3418435 48.0636487 255 79 163
0.802584028 67.6530083 48.0258665 255 79 163
0.802584028 67.9460893 47.9147155 255 79 163
0.802584028 68.2040538 47.7366555 255 79 163
0.802584028 68.4119097 47.5020346 255 79 163
0.802584028 68.5575773 47.2244882 255 79 163
0.802584028 68.6325909 46.9201463 255 79 163
0.802584028 68.6325909 46.6066961 255 79 163
0.802584028 68.5575773 46.3023542 255 79 163
0.802584028 68.4119097 46.0248078 255 79 163
0.802584028 68.2040538 45.7901869 255 79 163
0.802584028 67.9460893 45.6121269 255 79 163
0.802584028 67.6530083 45.5009759 255 79 163
0.0201224572 66.8813475 44.8951157 255 79 163
0.0794808049 66.9219442 45.0598228 255 79 163
0.175098568 66.958362 45.2075757 255 79 163
0.0201224572 66.4476139 45.0596092 255 79 163
0.302181071 66.9887748 45.3309654 255 79 163
0.0794808049 66.5264479 45.2098148 255 79 163
0.454355869 67.0116576 45.4238047 255 79 163
0.175098568 66.5971671 45.3445589 255 79 163
0.0201224572 66.0658497 45.323122 255 79 163
0.623992281 67.025863 45.4814382 255 79 163
0.302181071 66.6562252 45.4570848 255 79 163
0.0794808049 66.1783395 45.4500967 255 79 163
0.454355869 66.700661 45.5417501 255 79 163
0.175098568 66.27925 45.5640011 255 79 163
0.0201224572 65.7582416 45.6703398 255 79 163
0.623992281 66.7282462 45.5943094 255 79 163
0.302181071 66.3635213 45.6591238 255 79 163
0.0794808049 65.8978496 45.7667042 255 79 163
0.454355869 66.4269276 45.7306947 255 79 163
0.175098568 66.023087 45.8531494 255 79 163
0.0201224572 65.5426667 46.0810835 255 79 163
0.623992281 66.4662895 45.775125 255 79 163
0.302181071 66.1276739 45.9253405 255 79 163
0.0794808049 65.7012795 46.1412374 255 79 163
0.454355869 66.2063658 45.9796575 255 79 163
0.175098568 65.8435654 46.1951993 255 79 163
0.0201224572 65.4316534 46.5314821 255 79 163
0.623992281 66.2552167 46.0133769 255 79 163
0.302181071 65.9623896 46.2402634 255 79 163
0.0794808049 65.600053 46.5519295 255 79 163
0.454355869 66.0517938 46.2741699 255 79 163
0.175098568 65.7511182 46.5702722 255 79 163
0.0201224572 65.4316534 46.9953603 255 79 163
0.623992281 66.1072948 46.2952186 255 79 163
0.302181071 65.8772742 46.5855903 255 79 163
0.0794808049 65.600053 46.9749129 255 79 163
0.454355869 65.9721948 46.5971157 255 79 163
0.175098568 65.7511182 46.9565702 255 79 163
0.0201224572 65.5426667 47.445759 255 79 163
0.623992281 66.0311203 46.6042706 255 79 163
0.302181071 65.8772742 46.9412521 255 79 163
0.0794808049 65.7012795 47.385605 255 79 163
0.454355869 65.9721948 46.9297267 255 79 163
0.175098568 65.8435654 47.3316431 255 79 163
0.0201224572 65.7582416 47.8565026 255 79 163
0.623992281 66.0311203 46.9225718 255 79 163
0.302181071 65.9623896 47.286579 255 79 163
0.0794808049 65.8978496 47.7601382 255 79 163
0.454355869 66.0517938 47.2526725 255 79 163
0.175098568 66.023087 47.673693 255 79 163
0.0201224572 66.0658497 48.2037204 255 79 163
0.623992281 66.1072948 47.2316238 255 79 163
0.302181071 66.1276739 47.6015019 255 79 163
0.0794808049 66.1783395 48.0767457 255 79 163
0.454355869 66.2063658 47.5471849 255 79 163
0.175098568 66.27925 47.9628413 255 79 163
0.0201224572 66.4476139 48.4672332 255 79 163
0.623992281 66.2552167 47.5134655 255 79 163
0.302181071 66.3635213 47.8677186 255 79 163
0.0794808049 66.5264479 48.3170276 255 79 163
0.454355869 66.4269276 47.7961477 255 79 163
0.175098568 66.5971671 48.1822836 255 79 163
0.0201224572 66.8813475 48.6317267 255 79 163
0.623992281 66.4662895 47.7517174 255 79 163
0.302181071 66.6562252 48.0697576 255 79 163
0.0794808049 66.9219442 48.4670196 255 79 163
0.454355869 66.700661 47.9850923 255 79 163
0.175098568 66.958362 48.3192667 255 79 163
0.0201224572 67.3418435 48.687641 255 79 163
0.623992281 66.7282462 47.9325331 255 79 163
0.302181071 66.9887748 48.195877 255 79 163
0.0794808049 67.3418435 48.5180046 255 79 163
0.454355869 67.0116576 48.1030377 255 79 163
0.175098568 67.3418435 48.3658298 255 79 163
0.0201224572 67.8023394 48.6317267 255 79 163
0.623992281 67.025863 48.0454042 255 79 163
0.302181071 67.3418435 48.2387473 255 79 163
0.0794808049 67.7617428 48.4670196 255 79 163
0.454355869 67.3418435 48.1431295 255 79 163
0.175098568 67.7253249 48.3192667 255 79 163
0.0201224572 68.236073 48.4672332 255 79 163
0.623992281 67.3418435 48.0837712 255 79 163
0.302181071 67.6949121 48.195877 255 79 163
0.0794808049 68.157239 48.3170276 255 79 163
0.454355869 67.6720293 48.1030377 255 79 163
0.175098568 68.0865199 48.1822836 255 79 163
0.0201224572 68.6178372 48.2037204 255 79 163
0.623992281 67.6578239 48.0454042 255 79 163
0.302181071 68.0274617 48.0697576 255 79 163
0.0794808049 68.5053475 48.0767457 255 79 163
0.454355869 67.9830259 47.9850923 255 79 163
0.175098568 68.4044369 47.9628413 255 79 163
0.0201224572 68.9254453 47.8565026 255 79 163
0.623992281 67.9554407 47.9325331 255 79 163
0.302181071 68.3201656 47.8677186 255 79 163
0.0794808049 68.7858373 47.7601382 255 79 163
0.454355869 68.2567593 47.7961477 255 79 163
0.175098568 68.6605999 47.673693 255 79 163
0.0201224572 69.1410202 47.445759 255 79 163
0.623992281 68.2173975 47.7517174 255 79 163
0.302181071 68.556013 47.6015019 255 79 163
0.0794808049 68.9824074 47.385605 255 79 163
0.454355869 68.4773212 47.5471849 255 79 163
0.175098568 68.8401215 47.3316431 255 79 163
0.0201224572 69.2520335 46.9953603 255 79 163
0.623992281 68.4284702 47.5134655 255 79 163
0.302181071 68.7212973 47.286579 255 79 163
0.0794808049 69.083634 46.9749129 255 79 163
0.454355869 68.6318932 47.2526725 255 79 163
0.175098568 68.9325687 46.9565702 255 79 163
0.0201224572 69.2520335 46.5314821 255 79 163
0.623992281 68.5763921 47.2316238 255 79 163
0.302181071 68.8064128 46.9412521 255 79 163
0.0794808049 69.083634 46.5519295 255 79 163
0.454355869 68.7114922 46.9297267 255 79 163
0.175098568 68.9325687 46.5702722 255 79 163
0.0201224572 69.1410202 46.0810835 255 79 163
0.623992281 68.6525666 46.9225718 255 79 163
0.302181071 68.8064128 46.5855903 255 79 163
0.0794808049 68.9824074 46.1412374 255 79 163
0.454355869 68.7114922 46.5971157 255 79 163
0.175098568 68.8401215 46.1951993 255 79 163
0.0201224572 68.9254453 45.6703398 255 79 163
0.623992281 68.6525666 46.6042706 255 79 163
0.302181071 68.7212973 46.2402634 255 79 163
0.0794808049 68.7858373 45.7667042 255 79 163
0.454355869 68.6318932 46.2741699 255 79 163
0.175098568 68.6605999 45.8531494 255 79 163
0.0201224572 68.6178372 45.323122 255 79 163
0.623992281 68.5763921 46.2952186 255 79 163
0.302181071 68.556013 45.9253405 255 79 163
0.0794808049 68.5053475 45.4500967 255 79 163
0.454355869 68.4773212 45.9796575 255 79 163
0.175098568 68.4044369 45.5640011 255 79 163
0.0201224572 68.236073 45.0596092 255 79 163
0.623992281 68.4284702 46.0133769 255 79 163
0.302181071 68.3201656 45.6591238 255 79 163
0.0794808049 68.157239 45.2098148 255 79 163
0.454355869 68.2567593 45.7306947 255 79 163
0.175098568 68.0865199 45.3445589 255 79 163
0.0201224572 67.8023394 44.8951157 255 79 163
0.623992281 68.2173975 45.775125 255 79 163
0.302181071 68.0274617 45.4570848 255 79 163
0.0794808049 67.7617428 45.0598228 255 79 163
0.454355869 67.9830259 45.5417501 255 79 163
0.175098568 67.7253249 45.2075757 255 79 163
0.623992281 67.9554407 45.5943094 255 79 163
0.302181071 67.6949121 45.3309654 255 79 163
0.454355869 67.6720293 45.4238047 255 79 163
0.623992281 67.6578239 45.4814382 255 79 163
64.0783416 75.49202 0.802584028 218 222 230
64.0783416 75.49202 93.179292 218 222 230
64.0783416 0 93.179292 218 222 230
64.0783416 0 0.802584028 218 222 230
64.0783416 47.5249994 0.802584028 218 222 230
64.0783416 47.5249994 37.0668999 218 222 230
64.0783416 48.3275834 37.8694839 218 222 230
64.0783416 48.1489917 37.8493615 218 222 230
64.0783416 47.9793553 37.7900031 218 222 230
64.0783416 47.8271805 37.6943854 218 222 230
64.0783416 47.700098 37.5673029 218 222 230
64.0783416 47.6044802 37.4151281 218 222 230
64.0783416 47.5451218 37.2454917 218 222 230
64.0783416 57.5032884 37.8694839 218 222 230
64.0783416 57.5032884 0.802584028 218 222 230
64.0783416 67.3418435 45.4631937 218 222 230
64.0783416 67.0306786 45.5009759 218 222 230
64.0783416 66.7375976 45.6121269 218 222 230
64.0783416 66.4796331 45.7901869 218 222 230
64.0783416 66.2717772 46.0248078 218 222 230
64.0783416 66.1261096 46.3023542 218 222 230
64.0783416 66.0510961 46.6066961 218 222 230
64.0783416 66.0510961 46.9201463 218 222 230
64.0783416 66.1261096 47.2244882 218 222 230
64.0783416 66.2717772 47.5020346 218 222 230
64.0783416 66.4796331 47.7366555 218 222 230
64.0783416 66.7375976 47.9147155 218 222 230
64.0783416 67.0306786 48.0258665 218 222 230
64.0783416 67.3418435 48.0636487 218 222 230
64.0783416 67.6530083 48.0258665 218 222 230
64.0783416 67.9460893 47.9147155 218 222 230
64.0783416 68.2040538 47.7366555 218 222 230
64.0783416 68.4119097 47.5020346 218 222 230
64.0783416 68.5575773 47.2244882 218 222 230
64.0783416 68.6325909 46.9201463 218 222 230
64.0783416 68.6325909 46.6066961 218 222 230
64.0783416 68.5575773 46.3023542 218 222 230
64.0783416 68.4119097 46.0248078 218 222 230
64.0783416 68.2040538 45.7901869 218 222 230
64.0783416 67.9460893 45.6121269 218 222 230
64.0783416 67.6530083 45.5009759 218 222 230
64.0783416 63.6259957 45.7307883 218 222 230
64.0783416 63.9246643 44.0057745 218 222 230
64.0783416 65.1587057 45.3719968 218 222 230
0 75.49202 0.802584028 255 79 163
64.0783416 75.49202 0.802584028 255 79 163
64.0665311 75.4802094 0.6654038 255 79 163
64.0314471 75.4451254 0.532260963 255 79 163
63.9741221 75.3878005 0.407074083 255 79 163
63.8962434 75.3099218 0.29352757 255 79 163
63.800103 75.2137814 0.194963245 255 79 163
63.6885304 75.1022088 0.114281983 255 79 163
63.5214905 74.9351689 0.0385444635 255 79 163
63.4001263 74.8138047 0.00969466838 255 79 163
63.2757576 74.6894359 -1.11022302e-16 255 79 163
0.802584028 74.6894359 -1.11022302e-16 255 79 163
0.0118105414 75.4802094 0.6654038 255 79 163
0.0468945662 75.4451254 0.532260963 255 79 163
0.104219506 75.3878005 0.407074083 255 79 163
0.182098215 75.3099218 0.29352757 255 79 163
0.278238621 75.2137814 0.194963245 255 79 163
0.389811188 75.1022088 0.114281983 255 79 163
0.556851112 74.9351689 0.0385444635 255 79 163
0.67821528 74.8138047 0.00969466838 255 79 163
63.2757576 0 93.981876 218 222 230
63.4543493 0 93.9617536 218 222 230
63.6239858 0 93.9023952 218 222 230
63.7761606 0 93.8067775 218 222 230
63.9032431 0 93.679695 218 222 230
63.9988608 0 93.5275202 218 222 230
64.0582192 0 93.3578838 218 222 230
64.0783416 0 93.179292 218 222 230
64.0783416 75.49202 93.179292 218 222 230
63.2757576 75.49202 93.981876 218 222 230
63.4543493 75.49202 93.9617536 218 222 230
63.6239858 75.49202 93.9023952 218 222 230
63.7761606 75.49202 93.8067775 218 222 230
63.9032431 75.49202 93.679695 218 222 230
63.9988608 75.49202 93.5275202 218 222 230
64.0582192 75.49202 93.3578838 218 222 230
0 58.3058725 0.802584028 255 79 163
0.0201224572 58.1272807 0.802584028 255 79 163
0.0794808049 57.9576443 0.802584028 255 79 163
0.175098568 57.8054695 0.802584028 255 79 163
0.302181071 57.678387 0.802584028 255 79 163
0.454355869 57.5827692 0.802584028 255 79 163
0.623992281 57.5234109 0.802584028 255 79 163
0.802584028 57.5032884 0.802584028 255 79 163
0 58.3058725 0.802584028 255 79 163
0.0201224572 58.3058725 0.623992281 255 79 163
0.0794808049 58.3058725 0.454355869 255 79 163
0.175098568 58.3058725 0.302181071 255 79 163
0.302181071 58.3058725 0.175098568 255 79 163
0.454355869 58.3058725 0.0794808049 255 79 163
0.623992281 58.3058725 0.0201224572 255 79 163
0.802584028 58.3058725 -1.11022302e-16 255 79 163
0.802584028 57.5234109 0.623992281 255 79 163
0.802584028 57.5827692 0.454355869 255 79 163
0.802584028 57.678387 0.302181071 255 79 163
0.802584028 57.8054695 0.175098568 255 79 163
0.802584028 57.9576443 0.0794808049 255 79 163
0.802584028 58.1272807 0.0201224572 255 79 163
0.0392812583 58.0609138 0.763786387 255 79 163
0.0392812583 58.0848921 0.689988889 255 79 163
0.0392812583 58.1305014 0.627212988 255 79 163
0.15327991 57.8572144 0.656806171 255 79 163
0.0392812583 58.1932773 0.581603625 255 79 163
0.15327991 57.9242211 0.525298066 255 79 163
0.330836973 57.6645624 0.701010486 255 79 163
0.0392812583 58.2670748 0.557625365 255 79 163
0.15327991 58.0285865 0.420932643 255 79 163
0.330836973 57.7273383 0.507806127 255 79 163
0.15327991 58.1600946 0.353925917 255 79 163
0.330836973 57.8467451 0.343456683 255 79 163
0.554571924 57.5799284 0.5667105 255 79 163
0.330836973 58.0110946 0.224049823 255 79 163
0.554571924 57.6883476 0.353925917 255 79 163
0.330836973 58.2042989 0.161273921 255 79 163
0.554571924 57.8572144 0.185059115 255 79 163
0.554571924 58.0699989 0.076639955 255 79 163
0.802584028 74.6894359 -1.11022302e-16 218 222 230
63.2757576 74.6894359 -1.11022302e-16 218 222 230
0.802584028 58.3058725 -1.11022302e-16 218 222 230
63.2757576 58.3058725 -1.11022302e-16 218 222 230
64.0783416 0 0.802584028 218 222 230
64.0783416 0 93.179292 218 222 230
0.802584028 0 0.802584028 218 222 230
0.802584028 -1.11022302e-16 45.4114476 218 222 230
34.0249521 0 45.4114476 218 222 230
34.2035439 0 45.4315701 218 222 230
34.3731803 0 45.4909284 218 222 230
34.5253551 0 45.5865462 218 222 230
34.6524376 0 45.7136287 218 222 230
34.7480554 0 45.8658035 218 222 230
34.8074137 0 46.0354399 218 222 230
34.8275362 0 46.2140316 218 222 230
34.8275362 0 48.8033283 218 222 230
34.0249521 0 49.6059123 218 222 230
34.2035439 0 49.5857899 218 222 230
34.3731803 0 49.5264315 218 222 230
34.5253551 0 49.4308138 218 222 230
34.6524376 0 49.3037313 218 222 230
34.7480554 0 49.1515565 218 222 230
34.8074137 0 48.98192 218 222 230
0.802584028 0 49.6059123 218 222 230
0.802584028 -1.11022302e-16 93.981876 218 222 230
63.2757576 0 93.981876 218 222 230
63.4543493 0 93.9617536 218 222 230
63.6239858 0 93.9023952 218 222 230
63.7761606 0 93.8067775 218 222 230
63.9032431 0 93.679695 218 222 230
63.9988608 0 93.5275202 218 222 230
64.0582192 0 93.3578838 218 222 230
64.0783416 57.5032884 0.802584028 218 222 230
64.0783416 57.5032884 37.8694839 218 222 230
0.802584028 57.5032884 0.802584028 218 222 230
0.802584028 57.5032884 37.8694839 218 222 230
0.802584028 57.5032884 37.8694839 218 222 230
64.0783416 57.5032884 37.8694839 218 222 230
0.802584028 48.3275834 37.8694839 218 222 230
64.0783416 48.3275834 37.8694839 218 222 230
0.802584028 0 49.6059123 218 222 230
34.0249521 0 49.6059123 218 222 230
34.0249521 30.0803212 49.6059123 218 222 230
0.802584028 30.0803212 49.6059123 218 222 230
0.802584028 48.3275834 37.8694839 218 222 230
0.668820023 48.1198594 37.8421366 218 222 230
0.535056019 47.926291 37.7619578 218 222 230
0.401292014 47.7600708 37.6344125 218 222 230
0.267528009 47.6325252 37.4681919 218 222 230
0.133764005 47.5523467 37.274624 218 222 230
0 47.5249994 37.0668999 218 222 230
64.0783416 47.5249994 37.0668999 218 222 230
64.0783416 48.3275834 37.8694839 218 222 230
64.0783416 48.1489917 37.8493615 218 222 230
64.0783416 47.9793553 37.7900031 218 222 230
64.0783416 47.8271805 37.6943854 218 222 230
64.0783416 47.700098 37.5673029 218 222 230
64.0783416 47.6044802 37.4151281 218 222 230
64.0783416 47.5451218 37.2454917 218 222 230
0.802584028 30.0803212 49.6059123 255 79 163
34.0249521 30.0803212 49.6059123 255 79 163
34.2326762 30.2880452 49.5785649 255 79 163
34.4262442 30.4816132 49.4983865 255 79 163
34.5924647 30.6478338 49.3708409 255 79 163
34.7092675 30.7646366 49.2226773 255 79 163
34.7763909 30.83176 49.0852518 255 79 163
34.8135203 30.8688893 48.9526648 255 79 163
34.8240245 30.8793936 48.8783247 255 79 163
34.8275362 30.8829052 48.8033283 255 79 163
0 30.8829052 48.8033283 255 79 163
0.668820023 30.2880452 49.5785649 255 79 163
0.535056019 30.4816136 49.4983862 255 79 163
0.401292014 30.6478338 49.3708409 255 79 163
0.267528009 30.7753794 49.2046203 255 79 163
0.133764005 30.8555579 49.0110524 255 79 163
0.802584028 47.5249994 -1.11022302e-16 218 222 230
63.2757576 47.5249994 -1.11022302e-16 218 222 230
0.802584028 0.802584028 -1.11022302e-16 218 222 230
63.2757576 0.802584028 -1.11022302e-16 218 222 230
63.2757576 0.802584028 -1.11022302e-16 255 79 163
63.2757576 47.5249994 -1.11022302e-16 255 79 163
63.4543493 47.5249994 0.0201224572 255 79 163
63.6239858 47.5249994 0.0794808049 255 79 163
63.7761606 47.5249994 0.175098568 255 79 163
63.9032431 47.5249994 0.302181071 255 79 163
63.9988608 47.5249994 0.454355869 255 79 163
64.0582192 47.5249994 0.623992281 255 79 163
64.0783416 47.5249994 0.802584028 255 79 163
64.0783416 0 0.802584028 255 79 163
63.4834816 0.594859996 0.0273473876 255 79 163
63.6770496 0.401292014 0.107525871 255 79 163
63.8432702 0.235071419 0.235071419 255 79 163
63.960073 0.11826865 0.383235025 255 79 163
64.0271964 0.0511452379 0.520660516 255 79 163
64.0643258 0.0140158762 0.653247522 255 79 163
64.07483 0.00351165154 0.727587634 255 79 163
34.8275362 0 46.2140316 218 222 230
34.8275362 0 48.8033283 218 222 230
34.8275362 30.8829052 48.8033283 218 222 230
34.8275362 30.8829052 46.2140316 218 222 230
-1.11022302e-16 0.802584028 0.802584028 255 79 163
0.0201224572 0.802584028 0.623992281 255 79 163
0.0794808049 0.802584028 0.454355869 255 79 163
0.175098568 0.802584028 0.302181071 255 79 163
0.302181071 0.802584028 0.175098568 255 79 163
0.454355869 0.802584028 0.0794808049 255 79 163
0.623992281 0.802584028 0.0201224572 255 79 163
0.802584028 0.802584028 -1.11022302e-16 255 79 163
0.802584028 0 0.802584028 255 79 163
0.802584028 0.0201224572 0.623992281 255 79 163
0.802584028 0.0794808049 0.454355869 255 79 163
0.802584028 0.175098568 0.302181071 255 79 163
0.802584028 0.302181071 0.175098568 255 79 163
0.802584028 0.454355869 0.0794808049 255 79 163
0.802584028 0.623992281 0.0201224572 255 79 163
0.802584028 0 0.802584028 255 79 163
0.623992281 0.0201224572 0.802584028 255 79 163
0.454355869 0.0794808049 0.802584028 255 79 163
0.302181071 0.175098568 0.802584028 255 79 163
0.175098568 0.302181071 0.802584028 255 79 163
0.0794808049 0.454355869 0.802584028 255 79 163
0.0201224572 0.623992281 0.802584028 255 79 163
0.763786387 0.0392812583 0.557625365 255 79 163
0.689988889 0.0392812583 0.581603625 255 79 163
0.627212988 0.0392812583 0.627212988 255 79 163
0.656806171 0.15327991 0.353925917 255 79 163
0.581603625 0.0392812583 0.689988889 255 79 163
0.525298066 0.15327991 0.420932643 255 79 163
0.701010486 0.330836973 0.161273921 255 79 163
0.557625365 0.0392812583 0.763786387 255 79 163
0.420932643 0.15327991 0.525298066 255 79 163
0.507806127 0.330836973 0.224049823 255 79 163
0.353925917 0.15327991 0.656806171 255 79 163
0.343456683 0.330836973 0.343456683 255 79 163
0.5667105 0.554571924 0.076639955 255 79 163
0.224049823 0.330836973 0.507806127 255 79 163
0.353925917 0.554571924 0.185059115 255 79 163
0.161273921 0.330836973 0.701010486 255 79 163
0.185059115 0.554571924 0.353925917 255 79 163
0.076639955 0.554571924 0.5667105 255 79 163
34.8275362 30.8829052 46.2140316 255 79 163
34.8157256 30.8710947 46.0768514 255 79 163
34.7806416 30.8360106 45.9437086 255 79 163
34.7233167 30.7786857 45.8185217 255 79 163
34.645438 30.700807 45.7049752 255 79 163
34.5492975 30.6046666 45.6064109 255 79 163
34.437725 30.493094 45.5257296 255 79 163
34.2706851 30.3260541 45.4499921 255 79 163
34.1493209 30.2046899 45.4211423 255 79 163
34.0249521 30.0803212 45.4114476 255 79 163
34.8275362 0 46.2140316 255 79 163
34.0249521 0 45.4114476 255 79 163
34.2035439 0 45.4315701 255 79 163
34.3731803 0 45.4909284 255 79 163
34.5253551 0 45.5865462 255 79 163
34.6524376 0 45.7136287 255 79 163
34.7480554 0 45.8658035 255 79 163
34.8074137 0 46.0354399 255 79 163
0.802584028 67.3418435 45.4631937 218 222 230
64.0783416 67.3418435 45.4631937 218 222 230
0.802584028 67.3418435 45.4631937 218 222 230
0.802584028 67.0306786 45.5009759 218 222 230
0.802584028 66.7375976 45.6121269 218 222 230
0.802584028 66.4796331 45.7901869 218 222 230
0.802584028 66.2717772 46.0248078 218 222 230
0.802584028 66.1261096 46.3023542 218 222 230
0.802584028 66.0510961 46.6066961 218 222 230
0.802584028 66.0510961 46.9201463 218 222 230
0.802584028 66.1261096 47.2244882 218 222 230
0.802584028 66.2717772 47.5020346 218 222 230
0.802584028 66.4796331 47.7366555 218 222 230
0.802584028 66.7375976 47.9147155 218 222 230
0.802584028 67.0306786 48.0258665 218 222 230
0.802584028 67.3418435 48.0636487 218 222 230
0.802584028 67.6530083 48.0258665 218 222 230
0.802584028 67.9460893 47.9147155 218 222 230
0.802584028 68.2040538 47.7366555 218 222 230
0.802584028 68.4119097 47.5020346 218 222 230
0.802584028 68.5575773 47.2244882 218 222 230
0.802584028 68.6325909 46.9201463 218 222 230
0.802584028 68.6325909 46.6066961 218 222 230
0.802584028 68.5575773 46.3023542 218 222 230
0.802584028 68.4119097 46.0248078 218 222 230
0.802584028 68.2040538 45.7901869 218 222 230
0.802584028 67.9460893 45.6121269 218 222 230
0.802584028 67.6530083 45.5009759 218 222 230
64.0783416 67.3418435 45.4631937 218 222 230
64.0783416 67.0306786 45.5009759 218 222 230
64.0783416 66.7375976 45.6121269 218 222 230
64.0783416 66.4796331 45.7901869 218 222 230
64.0783416 66.2717772 46.0248078 218 222 230
64.0783416 66.1261096 46.3023542 218 222 230
64.0783416 66.0510961 46.6066961 218 222 230
64.0783416 66.0510961 46.9201463 218 222 230
64.0783416 66.1261096 47.2244882 218 222 230
64.0783416 66.2717772 47.5020346 218 222 230
64.0783416 66.4796331 47.7366555 218 222 230
64.0783416 66.7375976 47.9147155 218 222 230
64.0783416 67.0306786 48.0258665 218 222 230
64.0783416 67.3418435 48.0636487 218 222 230
64.0783416 67.6530083 48.0258665 218 222 230
64.0783416 67.9460893 47.9147155 218 222 230
64.0783416 68.2040538 47.7366555 218 222 230
64.0783416 68.4119097 47.5020346 218 222 230
64.0783416 68.5575773 47.2244882 218 222 230
64.0783416 68.6325909 46.9201463 218 222 230
64.0783416 68.6325909 46.6066961 218 222 230
64.0783416 68.5575773 46.3023542 218 222 230
64.0783416 68.4119097 46.0248078 218 222 230
64.0783416 68.2040538 45.7901869 218 222 230
64.0783416 67.9460893 45.6121269 218 222 230
64.0783416 67.6530083 45.5009759 218 222 230
63.2757576 58.3058725 -1.11022302e-16 255 79 163
63.2757576 74.6894359 -1.11022302e-16 255 79 163
64.0783416 75.49202 0.802584028 255 79 163
64.0665311 75.4802094 0.6654038 255 79 163
64.0314471 75.4451254 0.532260963 255 79 163
63.9741221 75.3878005 0.407074083 255 79 163
63.8962434 75.3099218 0.29352757 255 79 163
63.800103 75.2137814 0.194963245 255 79 163
63.6885304 75.1022088 0.114281983 255 79 163
63.5214905 74.9351689 0.0385444635 255 79 163
63.4001263 74.8138047 0.00969466838 255 79 163
64.0783416 57.5032884 0.802584028 255 79 163
63.4834816 58.0981484 0.0273473876 255 79 163
63.6770496 57.9045804 0.107525871 255 79 163
63.8432702 57.7383599 0.235071419 255 79 163
63.960073 57.6215571 0.383235025 255 79 163
64.0271964 57.5544337 0.520660516 255 79 163
64.0643258 57.5173043 0.653247522 255 79 163
64.07483 57.5068001 0.727587634 255 79 163
63.2757576 58.3058725 -1.11022302e-16 255 79 163
63.4834816 58.0981484 0.0273473876 255 79 163
63.6770496 57.9045804 0.107525871 255 79 163
63.8432702 57.7383599 0.235071419 255 79 163
63.960073 57.6215571 0.383235025 255 79 163
64.0271964 57.5544337 0.520660516 255 79 163
64.0643258 57.5173043 0.653247522 255 79 163
64.07483 57.5068001 0.727587634 255 79 163
64.0783416 57.5032884 0.802584028 255 79 163
0.802584028 57.5032884 0.802584028 255 79 163
0.802584028 57.5234109 0.623992281 255 79 163
0.802584028 57.5827692 0.454355869 255 79 163
0.802584028 57.678387 0.302181071 255 79 163
0.802584028 57.8054695 0.175098568 255 79 163
0.802584028 57.9576443 0.0794808049 255 79 163
0.802584028 58.1272807 0.0201224572 255 79 163
0.802584028 58.3058725 -1.11022302e-16 255 79 163
0.802584028 0 0.802584028 255 79 163
0.802584028 0.0201224572 0.623992281 255 79 163
0.802584028 0.0794808049 0.454355869 255 79 163
0.802584028 0.175098568 0.302181071 255 79 163
0.802584028 0.302181071 0.175098568 255 79 163
0.802584028 0.454355869 0.0794808049 255 79 163
0.802584028 0.623992281 0.0201224572 255 79 163
0.802584028 0.802584028 -1.11022302e-16 255 79 163
63.2757576 0.802584028 -1.11022302e-16 255 79 163
63.4834816 0.594859996 0.0273473876 255 79 163
63.6770496 0.401292014 0.107525871 255 79 163
63.8432702 0.235071419 0.235071419 255 79 163
63.960073 0.11826865 0.383235025 255 79 163
64.0271964 0.0511452379 0.520660516 255 79 163
64.0643258 0.0140158762 0.653247522 255 79 163
64.07483 0.00351165154 0.727587634 255 79 163
64.0783416 0 0.802584028 255 79 163
34.0249521 0 49.6059123 255 79 163
34.2035439 0 49.5857899 255 79 163
34.3731803 0 49.5264315 255 79 163
34.5253551 0 49.4308138 255 79 163
34.6524376 0 49.3037313 255 79 163
34.7480554 0 49.1515565 255 79 163
34.8074137 0 48.98192 255 79 163
34.8275362 0 48.8033283 255 79 163
34.8275362 30.8829052 48.8033283 255 79 163
34.0249521 30.0803212 49.6059123 255 79 163
34.2326762 30.2880452 49.5785649 255 79 163
34.4262442 30.4816132 49.4983865 255 79 163
34.5924647 30.6478338 49.3708409 255 79 163
34.7092675 30.7646366 49.2226773 255 79 163
34.7763909 30.83176 49.0852518 255 79 163
34.8135203 30.8688893 48.9526648 255 79 163
34.8240245 30.8793936 48.8783247 255 79 163
3 64 0 65
3 66 65 0
3 63 0 64
3 67 66 0
3 62 0 63
3 61 0 62
3 40 43 42
3 40 44 43
3 40 45 44
3 39 45 40
3 39 46 45
3 37 0 38
3 37 42 67
3 37 67 0
3 37 40 42
3 47 46 39
3 41 40 37
3 41 47 39
3 41 48 47
3 41 49 48
3 50 49 41
3 51 50 41
3 27 41 37
3 18 34 35
3 18 35 36
3 19 18 36
3 19 36 26
3 17 33 34
3 17 34 18
3 20 19 26
3 16 33 17
3 16 32 33
3 21 20 26
3 22 25 24
3 22 26 25
3 22 21 26
3 15 30 31
3 15 31 32
3 15 32 16
3 14 29 30
3 14 30 15
3 13 28 29
3 13 29 14
3 12 28 13
3 1 54 53
3 1 55 54
3 1 56 55
3 1 57 56
3 1 58 57
3 1 59 58
3 1 60 59
3 1 61 60
3 1 0 61
3 11 27 28
3 11 28 12
3 10 51 41
3 10 41 27
3 10 27 11
3 9 52 51
3 9 51 10
3 8 53 52
3 8 52 9
3 7 1 53
3 7 53 8
3 6 1 7
3 5 1 6
3 23 22 24
3 2 4 3
3 2 5 4
3 2 1 5
3 69 68 70
3 69 70 71
3 72 69 71
3 77 72 73
3 77 78 69
3 77 69 72
3 76 77 73
3 75 73 74
3 75 76 73
3 88 89 90
3 88 90 96
3 87 96 95
3 87 88 96
3 86 95 94
3 86 87 95
3 85 94 93
3 85 86 94
3 84 85 93
3 83 93 92
3 83 84 93
3 82 92 91
3 82 83 92
3 81 91 79
3 81 82 91
3 80 81 79
3 97 99 100
3 97 100 101
3 105 101 102
3 105 102 103
3 105 103 104
3 105 97 101
3 106 97 105
3 107 98 97
3 107 97 106
3 116 117 124
3 115 123 122
3 115 124 123
3 115 116 124
3 114 122 121
3 114 115 122
3 113 121 120
3 113 114 121
3 112 120 119
3 112 113 120
3 111 119 118
3 111 112 119
3 110 118 108
3 110 111 118
3 109 110 108
3 136 125 126
3 136 135 125
3 137 126 127
3 137 136 126
3 138 127 128
3 138 137 127
3 139 128 129
3 139 138 128
3 140 129 130
3 140 139 129
3 141 130 131
3 141 131 132
3 141 140 130
3 134 132 133
3 134 141 132
3 149 150 151
3 149 151 158
3 148 149 158
3 147 158 157
3 147 148 158
3 146 157 156
3 146 147 157
3 145 156 155
3 145 146 156
3 144 155 154
3 144 145 155
3 143 154 153
3 143 144 154
3 142 153 152
3 142 143 153
3 167 168 175
3 166 174 173
3 166 175 174
3 166 167 175
3 165 173 172
3 165 166 173
3 164 172 171
3 164 165 172
3 163 171 170
3 163 164 171
3 162 170 169
3 162 163 170
3 161 169 159
3 161 162 169
3 160 161 159
3 188 179 178
3 180 179 188
3 189 180 188
3 181 180 189
3 195 192 193
3 195 193 194
3 200 183 182
3 200 184 183
3 201 182 181
3 201 200 182
3 201 181 189
3 201 184 200
3 202 189 190
3 202 201 189
3 203 190 191
3 203 202 190
3 204 191 192
3 204 192 195
3 204 203 191
3 205 185 184
3 206 195 196
3 206 196 204
3 206 204 195
3 207 205 184
3 207 184 201
3 208 201 202
3 208 207 201
3 209 202 203
3 209 208 202
3 210 209 203
3 210 203 204
3 210 204 196
3 211 196 197
3 211 197 198
3 211 210 196
3 211 198 210
3 212 198 199
3 212 210 198
3 212 209 210
3 213 212 199
3 214 176 177
3 214 199 176
3 214 213 199
3 215 186 185
3 215 208 209
3 215 185 205
3 215 207 208
3 215 205 207
3 215 209 212
3 216 215 212
3 216 212 213
3 217 216 213
3 218 213 214
3 218 217 213
3 219 218 214
3 219 214 177
3 220 186 215
3 220 215 216
3 220 216 217
3 221 220 217
3 221 186 220
3 222 186 221
3 222 221 217
3 222 217 218
3 223 222 218
3 223 218 219
3 224 219 177
3 224 186 222
3 224 187 186
3 224 177 187
3 224 222 223
3 224 223 219
3 237 227 228
3 229 237 228
3 238 237 229
3 230 238 229
3 244 242 241
3 244 243 242
3 249 231 232
3 249 232 233
3 250 230 231
3 250 231 249
3 250 238 230
3 250 249 233
3 251 239 238
3 251 238 250
3 252 240 239
3 252 239 251
3 253 241 240
3 253 244 241
3 253 240 252
3 254 233 234
3 255 245 244
3 255 253 245
3 255 244 253
3 256 233 254
3 256 250 233
3 257 251 250
3 257 250 256
3 258 252 251
3 258 251 257
3 259 252 258
3 259 253 252
3 259 245 253
3 260 246 245
3 260 247 246
3 260 245 259
3 260 259 247
3 261 248 247
3 261 247 259
3 261 259 258
3 262 248 261
3 263 226 225
3 263 225 248
3 263 248 262
3 264 234 235
3 264 258 257
3 264 254 234
3 264 257 256
3 264 256 254
3 264 261 258
3 265 261 264
3 265 262 261
3 266 262 265
3 267 263 262
3 267 262 266
3 268 263 267
3 268 226 263
3 269 264 235
3 269 265 264
3 269 266 265
3 270 266 269
3 270 269 235
3 271 270 235
3 271 266 270
3 271 267 266
3 272 267 271
3 272 268 267
3 273 226 268
3 273 271 235
3 273 235 236
3 273 236 226
3 273 272 271
3 273 268 272
3 288 287 286
3 283 285 284
3 290 286 285
3 290 289 288
3 290 288 286
3 290 285 283
3 291 290 283
3 282 291 283
3 280 282 281
3 278 280 279
3 278 282 280
3 277 282 278
3 274 277 276
3 274 282 277
3 275 291 282
3 275 282 274
3 292 295 294
3 293 295 292
3 302 303 304
3 302 311 310
3 302 304 311
3 301 310 309
3 301 302 310
3 300 309 308
3 300 301 309
3 299 308 307
3 299 300 308
3 298 307 306
3 298 299 307
3 297 306 305
3 297 298 306
3 296 297 305
3 321 323 322
3 321 329 323
3 320 328 329
3 320 329 321
3 319 327 328
3 319 328 320
3 318 326 327
3 318 327 319
3 317 326 318
3 316 325 326
3 316 326 317
3 315 324 325
3 315 325 316
3 314 312 324
3 314 324 315
3 313 312 314
3 340 337 336
3 340 339 337
3 341 336 335
3 341 340 336
3 342 335 334
3 342 341 335
3 343 334 333
3 343 342 334
3 344 333 332
3 344 343 333
3 345 332 331
3 345 344 332
3 338 331 330
3 338 345 331
3 346 356 355
3 346 347 356
3 348 346 355
3 351 348 349
3 351 349 350
3 351 354 346
3 351 346 348
3 352 353 354
3 352 354 351
3 358 359 357
3 358 360 359
3 362 363 361
3 362 364 363
3 365 368 367
3 366 368 365
3 403 401 402
3 435 370 369
3 435 369 377
3 436 371 370
3 436 370 435
3 437 372 371
3 437 371 436
3 438 377 378
3 438 435 377
3 439 373 372
3 439 372 437
3 440 436 435
3 440 435 438
3 441 374 373
3 441 373 439
3 442 436 440
3 442 437 436
3 443 378 379
3 443 438 378
3 444 375 374
3 444 376 375
3 444 410 376
3 444 374 441
3 445 439 437
3 445 437 442
3 446 440 438
3 446 438 443
3 447 439 445
3 447 441 439
3 448 440 446
3 448 442 440
3 449 379 380
3 449 443 379
3 450 444 441
3 450 411 410
3 450 410 444
3 450 441 447
3 451 445 442
3 451 442 448
3 452 443 449
3 452 446 443
3 453 447 445
3 453 445 451
3 454 451 448
3 454 448 446
3 454 446 452
3 455 380 381
3 455 449 380
3 456 412 411
3 456 413 412
3 456 411 450
3 456 450 447
3 456 447 453
3 457 451 454
3 457 453 451
3 458 452 449
3 458 449 455
3 459 453 457
3 460 454 452
3 460 452 458
3 461 381 382
3 461 455 381
3 462 453 459
3 462 456 453
3 462 413 456
3 463 457 454
3 463 454 460
3 464 455 461
3 464 458 455
3 465 457 463
3 465 459 457
3 466 460 458
3 466 458 464
3 467 382 383
3 467 383 384
3 467 461 382
3 468 459 465
3 468 462 459
3 468 413 462
3 468 414 413
3 469 463 460
3 469 460 466
3 470 466 464
3 470 461 467
3 470 464 461
3 471 465 463
3 471 463 469
3 472 466 470
3 473 467 384
3 474 468 465
3 474 414 468
3 474 465 471
3 474 415 414
3 475 469 466
3 475 471 469
3 475 466 472
3 476 470 467
3 476 467 473
3 477 471 475
3 478 470 476
3 478 472 470
3 479 384 385
3 479 473 384
3 480 474 471
3 480 415 474
3 480 416 415
3 480 471 477
3 481 475 472
3 481 472 478
3 482 473 479
3 482 476 473
3 483 477 475
3 483 475 481
3 483 480 477
3 484 476 482
3 484 478 476
3 485 385 386
3 485 386 387
3 485 479 385
3 485 482 479
3 486 417 416
3 486 416 480
3 486 480 483
3 487 481 478
3 487 478 484
3 488 482 485
3 489 481 487
3 489 483 481
3 490 484 482
3 490 487 484
3 490 482 488
3 491 485 387
3 491 488 485
3 492 418 417
3 492 419 418
3 492 417 486
3 492 486 483
3 492 483 489
3 493 487 490
3 494 488 491
3 495 487 493
3 495 489 487
3 495 492 489
3 496 493 490
3 496 488 494
3 496 490 488
3 497 387 388
3 497 491 387
3 498 492 495
3 498 419 492
3 499 493 496
3 500 494 491
3 500 491 497
3 500 496 494
3 501 495 493
3 501 493 499
3 502 496 500
3 503 497 388
3 503 388 389
3 504 498 495
3 504 419 498
3 504 495 501
3 504 420 419
3 505 499 496
3 505 501 499
3 505 496 502
3 506 497 503
3 506 500 497
3 507 501 505
3 508 502 500
3 508 500 506
3 509 389 390
3 509 503 389
3 510 504 501
3 510 420 504
3 510 501 507
3 510 421 420
3 510 422 421
3 511 505 502
3 511 502 508
3 512 506 503
3 512 503 509
3 513 507 505
3 513 505 511
3 513 510 507
3 514 508 506
3 514 506 512
3 515 390 391
3 515 509 390
3 516 422 510
3 516 510 513
3 517 511 508
3 517 508 514
3 518 509 515
3 518 512 509
3 519 513 511
3 519 511 517
3 520 512 518
3 520 514 512
3 521 391 392
3 521 392 393
3 521 515 391
3 522 423 422
3 522 424 423
3 522 422 516
3 522 513 519
3 522 516 513
3 523 514 520
3 523 517 514
3 524 518 515
3 524 515 521
3 525 519 517
3 525 517 523
3 526 518 524
3 526 520 518
3 527 521 393
3 528 424 522
3 528 522 519
3 528 519 525
3 529 523 520
3 529 520 526
3 530 521 527
3 530 524 521
3 530 526 524
3 531 523 529
3 531 525 523
3 532 526 530
3 533 393 394
3 533 527 393
3 534 528 525
3 534 425 424
3 534 424 528
3 534 525 531
3 535 529 526
3 535 526 532
3 535 531 529
3 536 530 527
3 536 527 533
3 537 531 535
3 538 530 536
3 538 532 530
3 539 533 394
3 539 394 395
3 540 534 531
3 540 425 534
3 540 531 537
3 540 426 425
3 541 535 532
3 541 532 538
3 542 536 533
3 542 538 536
3 542 533 539
3 543 535 541
3 543 537 535
3 544 538 542
3 545 395 396
3 545 539 395
3 546 540 537
3 546 426 540
3 546 537 543
3 546 427 426
3 547 543 541
3 547 541 538
3 547 538 544
3 548 539 545
3 548 542 539
3 549 543 547
3 550 544 542
3 550 542 548
3 551 396 397
3 551 545 396
3 552 428 427
3 552 546 543
3 552 427 546
3 552 543 549
3 553 544 550
3 553 547 544
3 554 545 551
3 554 550 548
3 554 548 545
3 555 549 547
3 555 547 553
3 556 550 554
3 557 397 398
3 557 551 397
3 558 429 428
3 558 428 552
3 558 552 549
3 558 549 555
3 559 553 550
3 559 550 556
3 560 554 551
3 560 551 557
3 561 553 559
3 561 555 553
3 562 556 554
3 562 554 560
3 563 560 557
3 563 398 399
3 563 557 398
3 564 555 561
3 564 430 429
3 564 431 430
3 564 429 558
3 564 558 555
3 565 556 562
3 565 559 556
3 566 560 563
3 567 559 565
3 567 564 561
3 567 561 559
3 568 562 560
3 568 560 566
3 568 565 562
3 569 399 400
3 569 563 399
3 570 431 564
3 570 564 567
3 571 565 568
3 572 566 563
3 572 563 569
3 573 567 565
3 573 570 567
3 573 565 571
3 574 568 566
3 574 566 572
3 575 569 400
3 575 572 569
3 575 400 401
3 575 403 404
3 575 401 403
3 576 570 573
3 576 432 431
3 576 433 432
3 576 431 570
3 577 568 574
3 577 571 568
3 578 404 405
3 578 572 575
3 578 575 404
3 579 571 577
3 579 573 571
3 580 574 572
3 580 405 406
3 580 578 405
3 580 577 574
3 580 572 578
3 581 576 573
3 581 573 579
3 581 433 576
3 581 434 433
3 582 406 407
3 582 580 406
3 582 577 580
3 583 407 408
3 583 579 577
3 583 582 407
3 583 581 579
3 583 577 582
3 584 408 409
3 584 434 581
3 584 409 434
3 584 583 408
3 584 581 583
3 622 623 585
3 624 585 623
3 621 622 585
3 625 585 624
3 620 621 585
3 619 620 585
3 627 600 601
3 627 625 600
3 628 601 602
3 628 602 603
3 628 603 604
3 628 604 605
3 628 627 601
3 598 599 585
3 598 585 625
3 598 625 627
3 606 628 605
3 626 606 607
3 626 607 608
3 626 608 609
3 626 609 610
3 626 598 627
3 626 628 606
3 591 598 626
3 592 591 626
3 588 589 590
3 588 590 597
3 586 626 610
3 586 610 611
3 586 611 612
3 586 612 613
3 586 613 614
3 586 614 615
3 586 615 616
3 586 616 617
3 586 617 618
3 586 618 619
3 586 619 585
3 586 592 626
3 587 593 592
3 587 594 593
3 587 595 594
3 587 596 595
3 587 597 596
3 587 588 597
3 587 592 586
3 638 639 640
3 638 640 648
3 637 648 647
3 637 638 648
3 636 647 646
3 636 637 647
3 635 646 645
3 635 636 646
3 634 645 644
3 634 635 645
3 633 644 643
3 633 634 644
3 632 643 642
3 632 633 643
3 631 642 641
3 631 632 642
3 630 641 629
3 630 631 641
3 659 649 650
3 659 658 649
3 660 650 651
3 660 659 650
3 661 651 652
3 661 660 651
3 662 652 653
3 662 661 652
3 663 653 654
3 663 662 653
3 664 654 655
3 664 663 654
3 657 655 656
3 657 664 655
3 681 672 671
3 680 686 679
3 687 667 666
3 688 666 665
3 688 687 666
3 689 665 673
3 689 688 665
3 690 668 667
3 690 667 687
3 690 687 688
3 691 673 674
3 691 689 673
3 692 688 689
3 692 690 688
3 693 669 668
3 693 670 669
3 693 668 690
3 694 674 675
3 694 691 674
3 695 692 689
3 695 689 691
3 696 690 692
3 696 693 690
3 697 675 676
3 697 691 694
3 697 694 675
3 697 695 691
3 698 692 695
3 698 696 692
3 699 671 670
3 699 682 681
3 699 670 693
3 699 693 696
3 699 681 671
3 700 695 697
3 700 698 695
3 701 683 682
3 701 684 683
3 701 682 699
3 701 696 698
3 701 699 696
3 702 676 677
3 702 677 678
3 702 697 676
3 702 700 697
3 703 685 684
3 703 684 701
3 703 698 700
3 703 701 698
3 704 678 679
3 704 686 685
3 704 685 703
3 704 679 686
3 704 702 678
3 704 700 702
3 704 703 700
3 706 707 705
3 706 708 707
3 713 711 709
3 713 712 711
3 714 713 709
3 715 714 709
3 716 715 709
3 717 716 709
3 718 717 709
3 719 718 709
3 720 719 709
3 730 729 722
3 710 721 720
3 710 724 725
3 710 725 726
3 710 726 727
3 710 727 728
3 710 728 721
3 710 720 709
3 731 722 723
3 731 723 724
3 731 730 722
3 731 724 710
3 737 732 731
3 737 731 710
3 734 733 732
3 735 737 736
3 735 732 737
3 735 734 732
3 740 738 739
3 740 739 741
3 742 745 744
3 742 743 745
3 746 748 747
3 749 748 746
3 759 751 750
3 759 750 758
3 760 752 751
3 760 751 759
3 761 753 752
3 761 752 760
3 762 754 753
3 762 753 761
3 763 755 754
3 763 754 762
3 764 756 755
3 764 755 763
3 757 756 764
3 773 775 774
3 773 780 775
3 772 780 773
3 771 779 780
3 771 780 772
3 770 778 779
3 770 779 771
3 769 778 770
3 768 777 778
3 768 778 769
3 767 776 777
3 767 777 768
3 766 765 776
3 766 776 767
3 782 783 781
3 782 784 783
3 793 794 801
3 792 800 799
3 792 801 800
3 792 793 801
3 791 799 798
3 791 792 799
3 790 798 797
3 790 791 798
3 789 797 796
3 789 790 797
3 788 796 795
3 788 789 796
3 787 795 785
3 787 788 795
3 786 787 785
3 802 803 804
3 802 804 805
3 812 813 820
3 806 807 827
3 828 816 815
3 829 815 814
3 829 828 815
3 830 814 821
3 830 829 814
3 831 817 816
3 831 828 829
3 831 816 828
3 832 821 822
3 832 830 821
3 833 829 830
3 833 831 829
3 834 818 817
3 834 819 818
3 834 817 831
3 835 822 823
3 835 832 822
3 836 833 830
3 836 830 832
3 837 831 833
3 837 834 831
3 838 823 824
3 838 836 832
3 838 835 823
3 838 832 835
3 839 833 836
3 839 837 833
3 840 811 812
3 840 820 819
3 840 819 834
3 840 834 837
3 840 812 820
3 841 836 838
3 841 839 836
3 842 810 811
3 842 811 840
3 842 837 839
3 842 840 837
3 843 824 825
3 843 825 826
3 843 838 824
3 843 841 838
3 844 808 809
3 844 809 810
3 844 810 842
3 844 839 841
3 844 842 839
3 845 807 808
3 845 826 827
3 845 827 807
3 845 808 844
3 845 843 826
3 845 841 843
3 845 844 841
3 857 854 855
3 858 853 854
3 858 854 857
3 859 852 853
3 859 853 858
3 860 851 852
3 860 852 859
3 861 849 850
3 861 850 851
3 861 851 860
3 862 848 849
3 862 849 861
3 863 847 848
3 863 848 862
3 856 846 847
3 856 847 863
3 866 893 892
3 867 894 893
3 867 893 866
3 868 894 867
3 869 895 894
3 869 894 868
3 870 896 895
3 870 895 869
3 871 897 896
3 871 898 897
3 871 896 870
3 872 898 871
3 873 899 898
3 873 898 872
3 874 900 899
3 874 899 873
3 875 901 900
3 875 900 874
3 876 902 901
3 876 903 902
3 876 901 875
3 877 903 876
3 878 903 877
3 878 904 903
3 879 904 878
3 879 905 904
3 880 905 879
3 880 906 905
3 881 906 880
3 881 907 906
3 882 907 881
3 882 908 907
3 883 908 882
3 883 909 908
3 883 910 909
3 884 910 883
3 885 910 884
3 885 911 910
3 886 911 885
3 886 912 911
3 887 912 886
3 887 913 912
3 887 914 913
3 888 914 887
3 889 914 888
3 889 915 914
3 890 916 915
3 890 915 889
3 891 917 916
3 891 865 917
3 891 916 890
3 864 865 891
3 920 929 936
3 921 936 935
3 921 920 936
3 922 935 934
3 922 921 935
3 923 934 933
3 923 922 934
3 924 933 932
3 924 923 933
3 925 932 931
3 925 924 932
3 926 925 931
3 927 931 930
3 927 926 931
3 928 930 918
3 928 927 930
3 919 928 918
3 944 945 946
3 944 946 947
3 943 944 947
3 942 947 948
3 942 943 947
3 941 948 949
3 941 942 948
3 940 949 950
3 940 941 949
3 939 950 951
3 939 940 950
3 938 951 952
3 938 939 951
3 937 952 953
3 937 938 952
3 969 954 955
3 969 970 954
3 968 969 955
3 967 955 956
3 967 968 955
3 966 956 957
3 966 967 956
3 965 957 958
3 965 966 957
3 964 958 959
3 964 965 958
3 963 959 960
3 963 964 959
3 962 960 961
3 962 963 960
3 980 972 971
3 981 973 972
3 981 972 980
3 982 974 973
3 982 973 981
3 983 975 974
3 983 974 982
3 984 976 975
3 984 975 983
3 985 977 976
3 985 976 984
3 986 977 985
3 987 978 977
3 987 977 986
3 979 978 987
