ply
format ascii 1.0
comment generated by blendit.inference.finetune_visualize
element vertex 663
property float x
property float y
property float z
property uchar red
property uchar green
property uchar blue
element face 695
property list uchar int vertex_indices
end_header
0 92.0236553 16.4671992 218 222 230
0 91.4410829 16.5359229 218 222 230
0 90.8904937 16.7383213 218 222 230
0 90.4021151 17.0632826 218 222 230
0 90.002759 17.4929665 218 222 230
0 89.71435 18.0037833 218 222 230
0 89.5527219 18.5676892 218 222 230
0 89.5267479 19.1537258 218 222 230
0 89.6378541 19.7297197 218 222 230
0 89.8799407 20.2640488 218 222 230
0 90.2397172 20.7273785 218 222 230
0 90.6974318 21.094272 218 222 230
-1.11022302e-16 91.2279561 21.3445868 218 222 230
-1.11022302e-16 91.2279561 50.9568352 218 222 230
-1.11022302e-16 0.795699151 50.9568352 218 222 230
-1.11022302e-16 0.795699151 0 218 222 230
0 91.2279561 -1.11022302e-16 218 222 230
0 91.4050158 0.019949839 218 222 230
0 91.573197 0.0787989878 218 222 230
0 91.7240664 0.173596504 218 222 230
0 91.8500588 0.299588845 218 222 230
0 91.9448563 0.450458228 218 222 230
0 92.0037054 0.618639433 218 222 230
0 92.0236553 0.795699151 218 222 230
0 18.396506 26.5882336 218 222 230
-1.11022302e-16 17.7450095 27.2361032 218 222 230
-1.11022302e-16 19.6290237 34.3466714 218 222 230
0 20.5158435 34.5869491 218 222 230
0 28.5026031 36.7509068 218 222 230
0 34.3700253 30.9161489 218 222 230
0 32.2506878 22.9174334 218 222 230
0 24.2639282 20.7534757 218 222 230
0 92.0236553 16.4671992 218 222 230
0 91.4410829 16.5359229 218 222 230
0 90.8904937 16.7383213 218 222 230
0 90.4021151 17.0632826 218 222 230
0 90.002759 17.4929665 218 222 230
0 89.71435 18.0037833 218 222 230
0 89.5527219 18.5676892 218 222 230
0 89.5267479 19.1537258 218 222 230
0 89.6378541 19.7297197 218 222 230
0 89.8799407 20.2640488 218 222 230
0 90.2397172 20.7273785 218 222 230
0 90.6974318 21.094272 218 222 230
-1.11022302e-16 91.2279561 21.3445868 218 222 230
91.9394206 92.0236553 16.4671992 218 222 230
91.9394206 91.4245048 16.5399492 218 222 230
91.9394206 90.8601747 16.7539714 218 222 230
91.9394206 90.3634619 17.0968274 218 222 230
91.9394206 89.9632335 17.5485919 218 222 230
91.9394206 89.6827494 18.0830098 218 222 230
91.9394206 89.5383101 18.6690228 218 222 230
91.9394206 89.5383101 19.2725739 218 222 230
91.9394206 89.6827494 19.8585869 218 222 230
91.9394206 89.9632335 20.3930048 218 222 230
91.9394206 90.3634619 20.8447693 218 222 230
91.9394206 90.8601747 21.1876253 218 222 230
91.9394206 91.4245048 21.4016475 218 222 230
91.9394206 92.0236553 21.4743975 218 222 230
0.795699151 92.0236553 21.4743975 218 222 230
0.0194682806 91.4028926 21.3962184 218 222 230
0.0770925834 91.569631 21.432885 218 222 230
0.152955313 91.6970163 21.4529982 218 222 230
0.236524092 91.7940483 21.4638466 218 222 230
0.332560685 91.87498 21.4699791 218 222 230
0.438172757 91.9388091 21.4729594 218 222 230
0.550660331 91.9849853 21.4740989 218 222 230
0.667565752 92.0132707 21.474376 218 222 230
0.731466935 92.0210585 21.4743962 218 222 230
-1.11022302e-16 91.2279561 21.3445868 255 79 163
0.0194682806 91.4028926 21.3962184 255 79 163
0.0770925834 91.569631 21.432885 255 79 163
0.152955313 91.6970163 21.4529982 255 79 163
0.236524092 91.7940483 21.4638466 255 79 163
0.332560685 91.87498 21.4699791 255 79 163
0.438172757 91.9388091 21.4729594 255 79 163
0.550660331 91.9849853 21.4740989 255 79 163
0.667565752 92.0132707 21.474376 255 79 163
0.731466935 92.0210585 21.4743962 255 79 163
0.795699151 92.0236553 21.4743975 255 79 163
-1.11022302e-16 91.2279561 50.9568352 255 79 163
0.0271127911 91.4338982 51.1627773 255 79 163
0.106603473 91.6258057 51.3546848 255 79 163
0.233054886 91.7906004 51.5194795 255 79 163
0.379947487 91.9064012 51.6352803 255 79 163
0.516194088 91.9729488 51.7018279 255 79 163
0.647643712 92.0097596 51.7386387 255 79 163
0.721346105 92.0201737 51.7490528 255 79 163
0.795699151 92.0236553 51.7525344 255 79 163
91.9394206 92.0236553 0.795699151 218 222 230
91.9394206 92.0236553 16.4671992 218 222 230
0 92.0236553 0.795699151 218 222 230
0 92.0236553 16.4671992 218 222 230
-1.11022302e-16 0.795699151 50.9568352 255 79 163
0.0271127911 0.589757057 51.1627773 255 79 163
0.106603473 0.397849576 51.3546848 255 79 163
0.233054886 0.233054886 51.5194795 255 79 163
0.379947487 0.117254096 51.6352803 255 79 163
0.516194088 0.0507064942 51.7018279 255 79 163
0.647643712 0.0138956426 51.7386387 255 79 163
0.721346105 0.00348152723 51.7490528 255 79 163
0.795699151 -1.11022302e-16 51.7525344 255 79 163
0.795699151 92.0236553 51.7525344 255 79 163
-1.11022302e-16 91.2279561 50.9568352 255 79 163
0.0271127911 91.4338982 51.1627773 255 79 163
0.106603473 91.6258057 51.3546848 255 79 163
0.233054886 91.7906004 51.5194795 255 79 163
0.379947487 91.9064012 51.6352803 255 79 163
0.516194088 91.9729488 51.7018279 255 79 163
0.647643712 92.0097596 51.7386387 255 79 163
0.721346105 92.0201737 51.7490528 255 79 163
0 91.2279561 -1.11022302e-16 255 79 163
0 91.4050158 0.019949839 255 79 163
0 91.573197 0.0787989878 255 79 163
0 91.7240664 0.173596504 255 79 163
0 91.8500588 0.299588845 255 79 163
0 91.9448563 0.450458228 255 79 163
0 92.0037054 0.618639433 255 79 163
0 92.0236553 0.795699151 255 79 163
91.9394206 92.0236553 0.795699151 255 79 163
91.9394206 91.2279561 -1.11022302e-16 255 79 163
91.9394206 91.4050158 0.019949839 255 79 163
91.9394206 91.573197 0.0787989878 255 79 163
91.9394206 91.7240664 0.173596504 255 79 163
91.9394206 91.8500588 0.299588845 255 79 163
91.9394206 91.9448563 0.450458228 255 79 163
91.9394206 92.0037054 0.618639433 255 79 163
-1.11022302e-16 0.795699151 0 255 79 163
0.019949839 0.618639433 0 255 79 163
0.0787989878 0.450458228 0 255 79 163
0.173596504 0.299588845 0 255 79 163
0.299588845 0.173596504 0 255 79 163
0.450458228 0.0787989878 0 255 79 163
0.618639433 0.019949839 0 255 79 163
0.795699151 -1.11022302e-16 0 255 79 163
0.795699151 -1.11022302e-16 51.7525344 255 79 163
-1.11022302e-16 0.795699151 50.9568352 255 79 163
0.0271127911 0.589757057 51.1627773 255 79 163
0.106603473 0.397849576 51.3546848 255 79 163
0.233054886 0.233054886 51.5194795 255 79 163
0.379947487 0.117254096 51.6352803 255 79 163
0.516194088 0.0507064942 51.7018279 255 79 163
0.647643712 0.0138956426 51.7386387 255 79 163
0.721346105 0.00348152723 51.7490528 255 79 163
-1.11022302e-16 0.795699151 0 218 222 230
0 91.2279561 -1.11022302e-16 218 222 230
0.019949839 0.618639433 0 218 222 230
0.0787989878 0.450458228 0 218 222 230
0.173596504 0.299588845 0 218 222 230
0.299588845 0.173596504 0 218 222 230
0.450458228 0.0787989878 0 218 222 230
0.618639433 0.019949839 0 218 222 230
0.795699151 -1.11022302e-16 0 218 222 230
91.9394206 0 0 218 222 230
91.9394206 91.2279561 -1.11022302e-16 218 222 230
0 24.2639282 20.7534757 218 222 230
5.52392492 24.2639282 20.7534757 218 222 230
5.52392492 18.396506 26.5882336 218 222 230
0.795699151 18.396506 26.5882336 218 222 230
-1.11022302e-16 17.7450095 27.2361032 218 222 230
0.0271127911 17.9136292 27.0684222 218 222 230
0.106603473 18.0707577 26.9121684 218 222 230
0.233054886 18.2056871 26.7779902 218 222 230
0.379947487 18.3005016 26.6837035 218 222 230
0.532053875 18.3597044 26.6248303 218 222 230
0.661974533 18.3872397 26.5974483 218 222 230
0 18.396506 26.5882336 218 222 230
-1.11022302e-16 17.7450095 27.2361032 255 79 163
-1.11022302e-16 19.6290237 34.3466714 255 79 163
0.0271127911 19.8585495 34.4088599 255 79 163
0.106603473 20.0724336 34.4668103 255 79 163
0.233054886 20.2561 34.5165734 255 79 163
0.379947487 20.3851619 34.5515419 255 79 163
0.532053875 20.465749 34.5733764 255 79 163
0.661974533 20.5032302 34.5835316 255 79 163
0.795699151 20.5158435 34.5869491 255 79 163
0.795699151 18.396506 26.5882336 255 79 163
0.0271127911 17.9136292 27.0684222 255 79 163
0.106603473 18.0707577 26.9121684 255 79 163
0.233054886 18.2056871 26.7779902 255 79 163
0.379947487 18.3005016 26.6837035 255 79 163
0.532053875 18.3597044 26.6248303 255 79 163
0.661974533 18.3872397 26.5974483 255 79 163
0 32.2506878 22.9174334 218 222 230
5.52392492 32.2506878 22.9174334 218 222 230
5.52392492 24.2639282 20.7534757 218 222 230
0 24.2639282 20.7534757 218 222 230
0.795699151 20.5158435 34.5869491 218 222 230
5.52392492 20.5158435 34.5869491 218 222 230
5.69139712 20.5357083 34.5923314 218 222 230
5.85136654 20.5944128 34.608237 218 222 230
5.99666654 20.6893271 34.6339533 218 222 230
6.12078766 20.8161989 34.6683284 218 222 230
6.21816925 20.9693444 34.7098221 218 222 230
6.28444861 21.1419026 34.7565755 218 222 230
6.31078107 21.2708177 34.7915042 218 222 230
6.31962407 21.4026634 34.8272269 218 222 230
6.31962407 28.5026031 36.7509068 218 222 230
0 28.5026031 36.7509068 218 222 230
0 20.5158435 34.5869491 218 222 230
-1.11022302e-16 19.6290237 34.3466714 218 222 230
0.0271127911 19.8585495 34.4088599 218 222 230
0.106603473 20.0724336 34.4668103 218 222 230
0.233054886 20.2561 34.5165734 218 222 230
0.379947487 20.3851619 34.5515419 218 222 230
0.532053875 20.465749 34.5733764 218 222 230
0.661974533 20.5032302 34.5835316 218 222 230
0 32.2506878 22.9174334 218 222 230
5.52392492 32.2506878 22.9174334 218 222 230
0 34.3700253 30.9161489 218 222 230
6.31962407 34.3700253 30.9161489 218 222 230
6.31962407 32.4860111 23.8055808 218 222 230
5.69139712 32.255959 22.9373279 218 222 230
5.85136654 32.2715367 22.9961203 218 222 230
5.99666654 32.2967228 23.0911766 218 222 230
6.12078766 32.330389 23.2182384 218 222 230
6.21816925 32.3710271 23.3716131 218 222 230
6.28444861 32.4168165 23.5444296 218 222 230
6.31078107 32.451025 23.6735377 218 222 230
0 28.5026031 36.7509068 218 222 230
6.31962407 28.5026031 36.7509068 218 222 230
6.31962407 34.3700253 30.9161489 218 222 230
0 34.3700253 30.9161489 218 222 230
91.9394206 92.0236553 21.4743975 218 222 230
91.9394206 92.0236553 50.9568352 218 222 230
0.795699151 92.0236553 21.4743975 218 222 230
0.795699151 92.0236553 51.7525344 218 222 230
91.1437214 92.0236553 51.7525344 218 222 230
91.3207811 92.0236553 51.7325845 218 222 230
91.4889623 92.0236553 51.6737354 218 222 230
91.6398317 92.0236553 51.5789379 218 222 230
91.7658241 92.0236553 51.4529455 218 222 230
91.8606216 92.0236553 51.3020761 218 222 230
91.9194707 92.0236553 51.1338949 218 222 230
91.9394206 -4.19828834e-16 44.8962092 218 222 230
91.9394206 1.41439876 45.0436841 218 222 230
91.9394206 2.76795198 45.4797649 218 222 230
91.9394206 4.00243161 46.1856918 218 222 230
91.9394206 5.06473198 47.1310968 218 222 230
91.9394206 5.90915435 48.2753099 218 222 230
91.9394206 6.4993728 49.5691085 218 222 230
91.9394206 6.80999692 50.9568352 218 222 230
91.9394206 0 0 218 222 230
91.9394206 91.2279561 -1.11022302e-16 218 222 230
91.9394206 91.4050158 0.019949839 218 222 230
91.9394206 91.573197 0.0787989878 218 222 230
91.9394206 91.7240664 0.173596504 218 222 230
91.9394206 91.8500588 0.299588845 218 222 230
91.9394206 91.9448563 0.450458228 218 222 230
91.9394206 92.0037054 0.618639433 218 222 230
91.9394206 92.0236553 0.795699151 218 222 230
91.9394206 92.0236553 16.4671992 218 222 230
91.9394206 91.4245048 16.5399492 218 222 230
91.9394206 90.8601747 16.7539714 218 222 230
91.9394206 90.3634619 17.0968274 218 222 230
91.9394206 89.9632335 17.5485919 218 222 230
91.9394206 89.6827494 18.0830098 218 222 230
91.9394206 89.5383101 18.6690228 218 222 230
91.9394206 89.5383101 19.2725739 218 222 230
91.9394206 89.6827494 19.8585869 218 222 230
91.9394206 89.9632335 20.3930048 218 222 230
91.9394206 90.3634619 20.8447693 218 222 230
91.9394206 90.8601747 21.1876253 218 222 230
91.9394206 91.4245048 21.4016475 218 222 230
91.9394206 92.0236553 21.4743975 218 222 230
91.9394206 92.0236553 50.9568352 218 222 230
0.795699151 92.0236553 51.7525344 218 222 230
91.1437214 92.0236553 51.7525344 218 222 230
0.795699151 -1.11022302e-16 51.7525344 218 222 230
35.6547212 0 51.7525344 218 222 230
35.6547212 6.06062605 51.7525344 218 222 230
36.4504204 7.61054134 51.7525344 218 222 230
36.3733994 7.6010306 51.7525344 218 222 230
36.3003459 7.5749551 51.7525344 218 222 230
36.2328622 7.53638018 51.7525344 218 222 230
36.152022 7.4716163 51.7525344 218 222 230
36.0477812 7.35646216 51.7525344 218 222 230
35.9214945 7.16054207 51.7525344 218 222 230
35.783324 6.83948964 51.7525344 218 222 230
35.6882247 6.4578592 51.7525344 218 222 230
35.6632819 6.25993531 51.7525344 218 222 230
91.1437214 7.61054134 51.7525344 218 222 230
18.8232834 4.13564103 51.7525344 218 222 230
18.7942252 4.37495669 51.7525344 218 222 230
18.7087394 4.6003642 51.7525344 218 222 230
18.5717941 4.79876369 51.7525344 218 222 230
18.3913481 4.9586249 51.7525344 218 222 230
18.1778883 5.07065727 51.7525344 218 222 230
17.9438201 5.1283499 51.7525344 218 222 230
17.7027467 5.1283499 51.7525344 218 222 230
17.4686785 5.07065727 51.7525344 218 222 230
17.2552186 4.9586249 51.7525344 218 222 230
17.0747726 4.79876369 51.7525344 218 222 230
16.9378274 4.6003642 51.7525344 218 222 230
16.8523416 4.37495669 51.7525344 218 222 230
16.8232834 4.13564103 51.7525344 218 222 230
16.8523416 3.89632536 51.7525344 218 222 230
16.9378274 3.67091786 51.7525344 218 222 230
17.0747726 3.47251837 51.7525344 218 222 230
17.2552186 3.31265716 51.7525344 218 222 230
17.4686785 3.20062479 51.7525344 218 222 230
17.7027467 3.14293216 51.7525344 218 222 230
17.9438201 3.14293216 51.7525344 218 222 230
18.1778883 3.20062479 51.7525344 218 222 230
18.3913481 3.31265716 51.7525344 218 222 230
18.5717941 3.47251837 51.7525344 218 222 230
18.7087394 3.67091786 51.7525344 218 222 230
18.7942252 3.89632536 51.7525344 218 222 230
91.9394206 -4.19828834e-16 44.8962092 218 222 230
36.4504204 -8.39657671e-16 44.8962092 218 222 230
91.9394206 0 0 218 222 230
0.795699151 -1.11022302e-16 0 218 222 230
0.795699151 -1.11022302e-16 51.7525344 218 222 230
35.6547212 0 51.7525344 218 222 230
35.6547212 -7.42212629e-16 45.6919083 218 222 230
36.2733607 0 44.916159 218 222 230
36.1051795 0 44.9750082 218 222 230
35.9543101 0 45.0698057 218 222 230
35.8283177 0 45.195798 218 222 230
35.7335202 0 45.3466674 218 222 230
35.6746711 0 45.5148486 218 222 230
5.52392492 24.2639282 20.7534757 255 79 163
5.69139712 24.2691994 20.7733702 255 79 163
5.85136654 24.284777 20.8321626 255 79 163
5.99666654 24.3099631 20.927219 255 79 163
6.12078766 24.3436294 21.0542807 255 79 163
6.21816925 24.3842675 21.2076554 255 79 163
6.28444861 24.4300569 21.3804719 255 79 163
6.31078107 24.4642654 21.5095801 255 79 163
6.31962407 24.4992515 21.6416231 255 79 163
6.31962407 19.2833259 26.8285113 255 79 163
5.52392492 18.396506 26.5882336 255 79 163
5.69139712 18.4163708 26.5936158 255 79 163
5.85136654 18.4750754 26.6095214 255 79 163
5.99666654 18.5699896 26.6352378 255 79 163
6.12078766 18.6968614 26.6696128 255 79 163
6.21816925 18.8500069 26.7111065 255 79 163
6.28444861 19.0225651 26.75786 255 79 163
6.31078107 19.1514802 26.7927886 255 79 163
0.795699151 18.396506 26.5882336 218 222 230
5.52392492 18.396506 26.5882336 218 222 230
5.52392492 20.5158435 34.5869491 218 222 230
0.795699151 20.5158435 34.5869491 218 222 230
5.52392492 32.2506878 22.9174334 255 79 163
5.69139712 32.255959 22.9373279 255 79 163
5.85136654 32.2715367 22.9961203 255 79 163
5.99666654 32.2967228 23.0911766 255 79 163
6.12078766 32.330389 23.2182384 255 79 163
6.21816925 32.3710271 23.3716131 255 79 163
6.28444861 32.4168165 23.5444296 255 79 163
6.31078107 32.451025 23.6735377 255 79 163
6.31962407 32.4860111 23.8055808 255 79 163
6.31962407 24.4992515 21.6416231 255 79 163
5.52392492 24.2639282 20.7534757 255 79 163
5.69139712 24.2691994 20.7733702 255 79 163
5.85136654 24.284777 20.8321626 255 79 163
5.99666654 24.3099631 20.927219 255 79 163
6.12078766 24.3436294 21.0542807 255 79 163
6.21816925 24.3842675 21.2076554 255 79 163
6.28444861 24.4300569 21.3804719 255 79 163
6.31078107 24.4642654 21.5095801 255 79 163
5.52392492 18.396506 26.5882336 255 79 163
5.69139712 18.4163708 26.5936158 255 79 163
5.85136654 18.4750754 26.6095214 255 79 163
5.99666654 18.5699896 26.6352378 255 79 163
6.12078766 18.6968614 26.6696128 255 79 163
6.21816925 18.8500069 26.7111065 255 79 163
6.28444861 19.0225651 26.75786 255 79 163
6.31078107 19.1514802 26.7927886 255 79 163
6.31962407 19.2833259 26.8285113 255 79 163
6.31962407 21.4026634 34.8272269 255 79 163
5.52392492 20.5158435 34.5869491 255 79 163
5.69139712 20.5357083 34.5923314 255 79 163
5.85136654 20.5944128 34.608237 255 79 163
5.99666654 20.6893271 34.6339533 255 79 163
6.12078766 20.8161989 34.6683284 255 79 163
6.21816925 20.9693444 34.7098221 255 79 163
6.28444861 21.1419026 34.7565755 255 79 163
6.31078107 21.2708177 34.7915042 255 79 163
6.31962407 21.4026634 34.8272269 218 222 230
6.31962407 28.5026031 36.7509068 218 222 230
6.31962407 34.3700253 30.9161489 218 222 230
6.31962407 32.4860111 23.8055808 218 222 230
6.31962407 24.4992515 21.6416231 218 222 230
6.31962407 19.2833259 26.8285113 218 222 230
91.1437214 7.61054134 51.7525344 255 79 163
91.3945884 7.35967432 51.711953 255 79 163
91.5991769 7.15508583 51.6092901 255 79 163
91.7515038 7.00275893 51.4703892 255 79 163
91.8453736 6.90888915 51.3320969 255 79 163
91.9047553 6.84950741 51.1891378 255 79 163
91.923525 6.83073771 51.1150864 255 79 163
91.9351069 6.81915582 51.0395763 255 79 163
91.9394206 6.80999692 50.9568352 255 79 163
91.9394206 92.0236553 50.9568352 255 79 163
91.1437214 92.0236553 51.7525344 255 79 163
91.3207811 92.0236553 51.7325845 255 79 163
91.4889623 92.0236553 51.6737354 255 79 163
91.6398317 92.0236553 51.5789379 255 79 163
91.7658241 92.0236553 51.4529455 255 79 163
91.8606216 92.0236553 51.3020761 255 79 163
91.9194707 92.0236553 51.1338949 255 79 163
91.9394206 -4.19828834e-16 44.8962092 218 222 230
36.4504204 -8.39657671e-16 44.8962092 218 222 230
36.4504204 1.42603326 45.0461475 218 222 230
36.4504204 2.78969577 45.4894047 218 222 230
36.4504204 4.03134468 46.2065939 218 222 230
36.4504204 5.09667372 47.1663473 218 222 230
36.4504204 5.93908832 48.3266877 218 222 230
36.4504204 6.52174359 49.6368653 218 222 230
36.4504204 6.81915582 51.0395763 218 222 230
91.9351069 6.81915582 51.0395763 218 222 230
91.9394206 6.80999692 50.9568352 218 222 230
91.9394206 1.41439876 45.0436841 218 222 230
91.9394206 2.76795198 45.4797649 218 222 230
91.9394206 4.00243161 46.1856918 218 222 230
91.9394206 5.06473198 47.1310968 218 222 230
91.9394206 5.90915435 48.2753099 218 222 230
91.9394206 6.4993728 49.5691085 218 222 230
91.1437214 7.61054134 51.7525344 255 79 163
36.4504204 7.61054134 51.7525344 255 79 163
36.4504204 7.41797463 51.7288817 255 79 163
36.4504204 7.23685493 51.6593275 255 79 163
36.4504204 7.07795329 51.5480095 255 79 163
36.4504204 6.95071533 51.4015448 255 79 163
36.4504204 6.86270441 51.2286396 255 79 163
36.4504204 6.81915582 51.0395763 255 79 163
91.9351069 6.81915582 51.0395763 255 79 163
91.3945884 7.35967432 51.711953 255 79 163
91.5991769 7.15508583 51.6092901 255 79 163
91.7515038 7.00275893 51.4703892 255 79 163
91.8453736 6.90888915 51.3320969 255 79 163
91.9047553 6.84950741 51.1891378 255 79 163
91.923525 6.83073771 51.1150864 255 79 163
35.6547212 6.06062605 51.7525344 218 222 230
35.6547212 0 51.7525344 218 222 230
35.6547212 -7.42212629e-16 45.6919083 218 222 230
35.6547212 1.34861617 45.8438609 218 222 230
35.6547212 2.62960709 46.292099 218 222 230
35.6547212 3.77873853 47.0141461 218 222 230
35.6547212 4.73838825 47.9737958 218 222 230
35.6547212 5.46043539 49.1229273 218 222 230
35.6547212 5.9086735 50.4039182 218 222 230
35.6547212 6.06062605 51.7525344 255 79 163
35.6547212 6.06062605 51.7525344 255 79 163
36.4504204 7.61054134 51.7525344 255 79 163
36.3733994 7.6010306 51.7525344 255 79 163
36.3003459 7.5749551 51.7525344 255 79 163
36.2328622 7.53638018 51.7525344 255 79 163
36.152022 7.4716163 51.7525344 255 79 163
36.0477812 7.35646216 51.7525344 255 79 163
35.9214945 7.16054207 51.7525344 255 79 163
35.783324 6.83948964 51.7525344 255 79 163
35.6882247 6.4578592 51.7525344 255 79 163
35.6632819 6.25993531 51.7525344 255 79 163
36.4504204 7.41797463 51.7288817 255 79 163
36.4504204 7.23685493 51.6593275 255 79 163
36.4504204 7.07795329 51.5480095 255 79 163
36.4504204 6.95071533 51.4015448 255 79 163
36.4504204 6.86270441 51.2286396 255 79 163
36.4504204 6.81915582 51.0395763 255 79 163
36.246446 6.80391727 51.1592245 255 79 163
36.0557646 6.73513632 51.2819536 255 79 163
35.8910222 6.61737871 51.4050121 255 79 163
35.7635382 6.45830667 51.5258077 255 79 163
35.6825974 6.26842453 51.6421584 255 79 163
36.0781383 7.23025416 51.7314799 255 79 163
36.0934338 7.09353708 51.6769478 255 79 163
36.1089206 6.9749731 51.5956842 255 79 163
36.1237794 6.88028314 51.4899256 255 79 163
36.1371911 6.81299971 51.3622172 255 79 163
35.8423941 6.88395606 51.7382137 255 79 163
35.8531703 6.80206114 51.7021466 255 79 163
35.8648094 6.73071287 51.649382 255 79 163
35.8757905 6.67461583 51.5809591 255 79 163
35.8845926 6.63684305 51.4978434 255 79 163
35.7200831 6.44565823 51.6986623 255 79 163
35.6867408 6.33118901 51.7159268 255 79 163
35.6714143 6.25615752 51.7265887 255 79 163
35.7501181 6.61910562 51.7324789 255 79 163
35.7018485 6.4548826 51.739095 255 79 163
35.6872921 6.38839199 51.7414789 255 79 163
35.679341 6.34542293 51.7429272 255 79 163
35.6877544 6.42178594 51.7494318 255 79 163
35.6837087 6.39879785 51.749624 255 79 163
35.6701112 6.30635949 51.7503378 255 79 163
35.6784452 6.37992362 51.7518285 255 79 163
35.6664273 6.28413425 51.7520014 255 79 163
18.8232834 4.13564103 51.7525344 218 222 230
18.8232834 4.13564103 32.3004712 218 222 230
18.7942252 4.37495669 32.3004712 218 222 230
18.7087394 4.6003642 32.3004712 218 222 230
18.5717941 4.79876369 32.3004712 218 222 230
18.3913481 4.9586249 32.3004712 218 222 230
18.1778883 5.07065727 32.3004712 218 222 230
17.9438201 5.1283499 32.3004712 218 222 230
17.7027467 5.1283499 32.3004712 218 222 230
17.4686785 5.07065727 32.3004712 218 222 230
17.2552186 4.9586249 32.3004712 218 222 230
17.0747726 4.79876369 32.3004712 218 222 230
16.9378274 4.6003642 32.3004712 218 222 230
16.8523416 4.37495669 32.3004712 218 222 230
16.8232834 4.13564103 32.3004712 218 222 230
16.8523416 3.89632536 32.3004712 218 222 230
16.9378274 3.67091786 32.3004712 218 222 230
17.0747726 3.47251837 32.3004712 218 222 230
17.2552186 3.31265716 32.3004712 218 222 230
17.4686785 3.20062479 32.3004712 218 222 230
17.7027467 3.14293216 32.3004712 218 222 230
17.9438201 3.14293216 32.3004712 218 222 230
18.1778883 3.20062479 32.3004712 218 222 230
18.3913481 3.31265716 32.3004712 218 222 230
18.5717941 3.47251837 32.3004712 218 222 230
18.7087394 3.67091786 32.3004712 218 222 230
18.7942252 3.89632536 32.3004712 218 222 230
18.8232834 4.13564103 32.3004712 218 222 230
18.8232834 4.13564103 51.7525344 218 222 230
18.7942252 4.37495669 51.7525344 218 222 230
18.7087394 4.6003642 51.7525344 218 222 230
18.5717941 4.79876369 51.7525344 218 222 230
18.3913481 4.9586249 51.7525344 218 222 230
18.1778883 5.07065727 51.7525344 218 222 230
17.9438201 5.1283499 51.7525344 218 222 230
17.7027467 5.1283499 51.7525344 218 222 230
17.4686785 5.07065727 51.7525344 218 222 230
17.2552186 4.9586249 51.7525344 218 222 230
17.0747726 4.79876369 51.7525344 218 222 230
16.9378274 4.6003642 51.7525344 218 222 230
16.8523416 4.37495669 51.7525344 218 222 230
16.8232834 4.13564103 51.7525344 218 222 230
16.8523416 3.89632536 51.7525344 218 222 230
16.9378274 3.67091786 51.7525344 218 222 230
17.0747726 3.47251837 51.7525344 218 222 230
17.2552186 3.31265716 51.7525344 218 222 230
17.4686785 3.20062479 51.7525344 218 222 230
17.7027467 3.14293216 51.7525344 218 222 230
17.9438201 3.14293216 51.7525344 218 222 230
18.1778883 3.20062479 51.7525344 218 222 230
18.3913481 3.31265716 51.7525344 218 222 230
18.5717941 3.47251837 51.7525344 218 222 230
18.7087394 3.67091786 51.7525344 218 222 230
18.7942252 3.89632536 51.7525344 218 222 230
35.6547212 -7.42212629e-16 45.6919083 255 79 163
35.6547212 1.34861617 45.8438609 255 79 163
35.6547212 2.62960709 46.292099 255 79 163
35.6547212 3.77873853 47.0141461 255 79 163
35.6547212 4.73838825 47.9737958 255 79 163
35.6547212 5.46043539 49.1229273 255 79 163
35.6547212 5.9086735 50.4039182 255 79 163
35.6547212 6.06062605 51.7525344 255 79 163
36.4504204 6.81915582 51.0395763 255 79 163
36.246446 6.80391727 51.1592245 255 79 163
36.0557646 6.73513632 51.2819536 255 79 163
35.8910222 6.61737871 51.4050121 255 79 163
35.7635382 6.45830667 51.5258077 255 79 163
35.6825974 6.26842453 51.6421584 255 79 163
36.4504204 -8.39657671e-16 44.8962092 255 79 163
36.4504204 1.42603326 45.0461475 255 79 163
36.4504204 2.78969577 45.4894047 255 79 163
36.4504204 4.03134468 46.2065939 255 79 163
36.4504204 5.09667372 47.1663473 255 79 163
36.4504204 5.93908832 48.3266877 255 79 163
36.4504204 6.52174359 49.6368653 255 79 163
36.2733607 0 44.916159 255 79 163
36.1051795 0 44.9750082 255 79 163
35.9543101 0 45.0698057 255 79 163
35.8283177 0 45.195798 255 79 163
35.7335202 0 45.3466674 255 79 163
35.6746711 0 45.5148486 255 79 163
36.2733607 6.79931413 51.0416508 255 79 163
36.1051795 6.74078401 51.0477703 255 79 163
35.9543101 6.64650041 51.0576279 255 79 163
35.7335202 6.39705153 51.416583 255 79 163
35.6825974 6.26076856 51.4237401 255 79 163
35.8283177 6.5211911 51.0707292 255 79 163
35.7335202 6.37113961 51.0864174 255 79 163
36.2733607 6.66497315 50.2312977 255 79 163
35.6825974 6.23540866 51.1006084 255 79 163
36.1051795 6.60759948 50.2443929 255 79 163
35.9543101 6.51517873 50.2654873 255 79 163
35.8283177 6.39234528 50.2935233 255 79 163
36.2733607 6.50276729 49.6430212 255 79 163
35.7335202 6.24525851 50.3270949 255 79 163
36.1051795 6.44678992 49.6611804 255 79 163
35.6825974 6.11220934 50.3574625 255 79 163
35.9543101 6.35661842 49.6904323 255 79 163
35.8283177 6.23677438 49.72931 255 79 163
35.7335202 6.09326726 49.775864 255 79 163
35.6825974 5.96345612 49.8179751 255 79 163
36.2733607 6.15936137 48.7863423 255 79 163
36.1051795 6.10634012 48.811876 255 79 163
35.9543101 6.02093051 48.8530071 255 79 163
36.2733607 5.92180736 48.3366559 255 79 163
35.8283177 5.90741533 48.9076731 255 79 163
36.1051795 5.87083103 48.3660606 255 79 163
35.7335202 5.77148671 48.9731329 255 79 163
35.9543101 5.78871549 48.4134273 255 79 163
35.6825974 5.64853079 49.0323453 255 79 163
35.8283177 5.67957837 48.476381 255 79 163
35.7335202 5.54889224 48.5517647 255 79 163
35.6825974 5.43067848 48.619954 255 79 163
36.2733607 5.34489348 47.4901241 255 79 163
36.1051795 5.29888336 47.5268159 255 79 163
35.9543101 5.22476768 47.5859212 255 79 163
36.2733607 5.08184393 47.1796917 255 79 163
35.8283177 5.1262629 47.6644761 255 79 163
36.1051795 5.03809821 47.2190558 255 79 163
35.7335202 5.00830847 47.7585416 255 79 163
35.9543101 4.96763014 47.2824657 255 79 163
35.6825974 4.90161132 47.8436298 255 79 163
35.8283177 4.87397328 47.3667419 255 79 163
35.7335202 4.76182399 47.4676582 255 79 163
35.6825974 4.66037795 47.5589433 255 79 163
36.2733607 4.26241032 46.4076409 255 79 163
36.1051795 4.22571847 46.453651 255 79 163
36.2733607 4.01961469 46.222731 255 79 163
35.9543101 4.16661319 46.5277667 255 79 163
36.1051795 3.98501288 46.2703328 255 79 163
35.8283177 4.08805825 46.6262715 255 79 163
35.9543101 3.92927436 46.3470126 255 79 163
35.7335202 3.99399273 46.7442259 255 79 163
35.8283177 3.85519407 46.4489252 255 79 163
35.6825974 3.90890459 46.8509231 255 79 163
35.7335202 3.76648671 46.5709603 255 79 163
35.6825974 3.68624537 46.6813487 255 79 163
36.2733607 2.9661921 45.593173 255 79 163
36.1051795 2.94065841 45.6461943 255 79 163
35.9543101 2.89952731 45.7316039 255 79 163
35.8283177 2.84486128 45.845119 255 79 163
35.7335202 2.77940151 45.9810477 255 79 163
35.6825974 2.72018906 46.1040036 255 79 163
36.2733607 1.52123663 45.0875612 255 79 163
36.1051795 1.50814146 45.1449349 255 79 163
35.9543101 1.48704703 45.2373556 255 79 163
35.8283177 1.4590111 45.3601891 255 79 163
35.7335202 1.4254395 45.5072759 255 79 163
35.6825974 1.3950719 45.640325 255 79 163
18.8232834 4.13564103 32.3004712 218 222 230
18.7942252 4.37495669 32.3004712 218 222 230
18.7087394 4.6003642 32.3004712 218 222 230
18.5717941 4.79876369 32.3004712 218 222 230
18.3913481 4.9586249 32.3004712 218 222 230
18.1778883 5.07065727 32.3004712 218 222 230
17.9438201 5.1283499 32.3004712 218 222 230
17.7027467 5.1283499 32.3004712 218 222 230
17.4686785 5.07065727 32.3004712 218 222 230
17.2552186 4.9586249 32.3004712 218 222 230
17.0747726 4.79876369 32.3004712 218 222 230
16.9378274 4.6003642 32.3004712 218 222 230
16.8523416 4.37495669 32.3004712 218 222 230
16.8232834 4.13564103 32.3004712 218 222 230
16.8523416 3.89632536 32.3004712 218 222 230
16.9378274 3.67091786 32.3004712 218 222 230
17.0747726 3.47251837 32.3004712 218 222 230
17.2552186 3.31265716 32.3004712 218 222 230
17.4686785 3.20062479 32.3004712 218 222 230
17.7027467 3.14293216 32.3004712 218 222 230
17.9438201 3.14293216 32.3004712 218 222 230
18.1778883 3.20062479 32.3004712 218 222 230
18.3913481 3.31265716 32.3004712 218 222 230
18.5717941 3.47251837 32.3004712 218 222 230
18.7087394 3.67091786 32.3004712 218 222 230
18.7942252 3.89632536 32.3004712 218 222 230
3 17 19 18
3 22 20 19
3 22 21 20
3 22 19 17
3 16 22 17
3 23 22 16
3 1 0 23
3 2 1 23
3 3 23 16
3 3 2 23
3 4 3 16
3 5 4 16
3 13 10 9
3 13 11 10
3 13 12 11
3 30 6 5
3 30 7 6
3 30 5 16
3 29 8 7
3 29 9 8
3 29 7 30
3 29 13 9
3 15 31 30
3 15 30 16
3 24 31 15
3 28 13 29
3 25 24 15
3 14 26 25
3 14 27 26
3 14 28 27
3 14 13 28
3 14 25 15
3 33 45 32
3 33 46 45
3 34 47 46
3 34 46 33
3 35 48 47
3 35 47 34
3 36 49 48
3 36 48 35
3 37 50 49
3 37 49 36
3 38 51 50
3 38 50 37
3 39 52 51
3 39 51 38
3 40 53 52
3 40 52 39
3 41 54 53
3 41 53 40
3 42 55 54
3 42 54 41
3 43 56 55
3 43 55 42
3 44 57 56
3 44 56 43
3 60 57 44
3 61 57 60
3 62 58 57
3 62 57 61
3 63 58 62
3 64 58 63
3 65 58 64
3 66 58 65
3 59 58 66
3 59 66 67
3 59 67 68
3 88 79 78
3 87 78 77
3 87 88 78
3 86 77 76
3 86 87 77
3 85 76 75
3 85 86 76
3 84 75 74
3 84 85 75
3 83 73 72
3 83 74 73
3 83 84 74
3 82 72 71
3 82 83 72
3 81 71 70
3 81 82 71
3 80 70 69
3 80 81 70
3 90 89 91
3 90 91 92
3 104 93 94
3 104 103 93
3 105 94 95
3 105 104 94
3 106 95 96
3 106 105 95
3 107 96 97
3 107 106 96
3 108 97 98
3 108 107 97
3 109 98 99
3 109 108 98
3 110 99 100
3 110 109 99
3 102 100 101
3 102 110 100
3 121 111 112
3 121 112 113
3 121 120 111
3 122 121 113
3 123 113 114
3 123 122 113
3 124 114 115
3 124 123 114
3 125 115 116
3 125 116 117
3 125 124 115
3 126 125 117
3 119 117 118
3 119 126 117
3 136 127 128
3 137 128 129
3 137 136 128
3 138 129 130
3 138 137 129
3 139 130 131
3 139 138 130
3 140 131 132
3 140 139 131
3 141 132 133
3 141 140 132
3 142 141 133
3 143 133 134
3 143 142 133
3 135 143 134
3 152 150 149
3 152 151 150
3 144 147 146
3 144 148 147
3 144 149 148
3 144 152 149
3 154 144 145
3 154 153 152
3 154 152 144
3 158 156 155
3 158 157 156
3 166 163 164
3 166 164 165
3 166 165 158
3 166 158 155
3 162 163 166
3 161 162 166
3 160 161 166
3 159 160 166
3 174 175 176
3 174 182 181
3 174 176 182
3 173 181 180
3 173 174 181
3 172 180 179
3 172 173 180
3 171 179 178
3 171 172 179
3 170 178 177
3 170 171 178
3 169 177 167
3 169 170 177
3 168 169 167
3 186 184 183
3 186 185 184
3 188 190 189
3 188 191 190
3 188 192 191
3 188 193 192
3 188 194 193
3 188 195 194
3 196 195 188
3 187 196 188
3 199 201 200
3 199 202 201
3 199 203 202
3 199 204 203
3 199 205 204
3 199 206 205
3 199 187 206
3 198 197 196
3 198 196 187
3 198 187 199
3 211 210 209
3 208 212 213
3 208 213 214
3 208 214 215
3 208 215 216
3 208 216 217
3 208 217 218
3 208 218 211
3 207 211 209
3 207 208 211
3 222 220 219
3 222 221 220
3 227 224 223
3 227 223 225
3 227 225 226
3 229 227 228
3 230 224 227
3 230 227 229
3 231 232 233
3 231 233 224
3 231 224 230
3 244 245 246
3 249 246 247
3 249 247 248
3 249 244 246
3 243 244 249
3 250 243 249
3 252 250 251
3 253 250 252
3 254 243 250
3 254 250 253
3 255 243 254
3 256 243 255
3 265 259 260
3 265 260 261
3 265 261 262
3 265 262 263
3 265 263 264
3 242 256 257
3 242 257 258
3 242 243 256
3 238 242 258
3 237 242 238
3 239 258 259
3 239 238 258
3 236 242 237
3 240 259 265
3 240 239 259
3 235 242 236
3 241 240 265
3 234 242 235
3 299 298 268
3 297 268 298
3 300 299 268
3 296 268 297
3 301 300 268
3 295 268 296
3 302 301 268
3 294 268 295
3 293 268 294
3 292 268 293
3 291 268 292
3 290 268 291
3 269 303 302
3 269 304 303
3 269 305 304
3 269 306 305
3 269 307 306
3 269 282 307
3 269 302 268
3 270 283 282
3 270 282 269
3 280 283 270
3 279 284 283
3 279 283 280
3 278 285 284
3 278 284 279
3 277 285 278
3 276 285 277
3 276 286 285
3 275 286 276
3 275 287 286
3 274 287 275
3 273 287 274
3 273 288 287
3 272 288 273
3 266 272 271
3 266 288 272
3 266 289 288
3 266 290 289
3 266 268 290
3 267 271 281
3 267 266 271
3 318 312 311
3 317 318 311
3 316 317 311
3 319 312 318
3 315 316 311
3 320 312 319
3 309 315 311
3 314 312 320
3 313 312 314
3 310 309 311
3 308 309 310
3 332 322 321
3 332 323 322
3 332 321 331
3 333 323 332
3 334 324 323
3 334 323 333
3 335 325 324
3 335 326 325
3 335 324 334
3 336 327 326
3 336 326 335
3 337 328 327
3 337 327 336
3 338 329 328
3 338 328 337
3 330 329 338
3 342 340 339
3 342 341 340
3 354 344 343
3 354 343 353
3 355 345 344
3 355 344 354
3 356 346 345
3 356 345 355
3 357 347 346
3 357 346 356
3 358 348 347
3 358 347 357
3 359 349 348
3 359 348 358
3 360 350 349
3 360 349 359
3 352 351 350
3 352 350 360
3 371 362 361
3 372 363 362
3 372 362 371
3 373 364 363
3 373 363 372
3 374 365 364
3 374 364 373
3 375 366 365
3 375 365 374
3 376 367 366
3 376 366 375
3 377 368 367
3 377 367 376
3 378 369 368
3 378 368 377
3 370 369 378
3 379 380 381
3 379 381 382
3 383 379 382
3 384 379 383
3 396 385 386
3 396 395 385
3 397 386 387
3 397 396 386
3 398 387 388
3 398 397 387
3 399 388 389
3 399 398 388
3 400 389 390
3 400 399 389
3 401 390 391
3 401 391 392
3 401 400 390
3 394 392 393
3 394 401 392
3 413 403 402
3 413 404 403
3 414 405 404
3 414 404 413
3 415 406 405
3 415 405 414
3 416 407 406
3 416 406 415
3 417 408 407
3 417 407 416
3 418 409 408
3 418 408 417
3 412 410 409
3 412 409 418
3 411 410 412
3 426 427 433
3 425 432 431
3 425 433 432
3 425 426 433
3 424 431 430
3 424 425 431
3 423 430 429
3 423 424 430
3 422 429 428
3 422 423 429
3 421 428 419
3 421 422 428
3 420 421 419
3 435 436 437
3 435 437 438
3 435 438 439
3 435 439 440
3 435 440 441
3 435 441 442
3 435 442 434
3 455 445 446
3 447 455 446
3 456 455 447
3 448 456 447
3 461 459 458
3 461 460 459
3 466 449 450
3 466 450 451
3 467 448 449
3 467 449 466
3 467 466 451
3 467 456 448
3 468 457 456
3 468 456 467
3 469 458 457
3 469 461 458
3 469 457 468
3 470 462 461
3 470 469 462
3 470 461 469
3 471 451 452
3 472 451 471
3 472 467 451
3 473 467 472
3 473 468 467
3 474 468 473
3 474 469 468
3 474 462 469
3 475 463 462
3 475 464 463
3 475 462 474
3 475 474 464
3 476 465 464
3 476 464 474
3 476 474 473
3 477 465 476
3 478 444 443
3 478 443 465
3 478 465 477
3 479 452 453
3 479 472 471
3 479 473 472
3 479 471 452
3 479 476 473
3 480 479 453
3 480 477 476
3 480 476 479
3 481 477 480
3 482 478 477
3 482 477 481
3 483 480 453
3 483 481 480
3 484 482 481
3 484 481 483
3 485 444 478
3 485 478 482
3 485 482 484
3 486 485 484
3 486 453 454
3 486 483 453
3 486 484 483
3 487 486 454
3 487 454 444
3 487 444 485
3 487 485 486
3 517 489 488
3 517 490 489
3 518 491 490
3 518 492 491
3 518 490 517
3 519 492 518
3 520 493 492
3 520 492 519
3 521 494 493
3 521 495 494
3 521 493 520
3 522 495 521
3 523 496 495
3 523 495 522
3 524 497 496
3 524 496 523
3 525 498 497
3 525 497 524
3 526 499 498
3 526 500 499
3 526 498 525
3 527 500 526
3 528 500 527
3 528 501 500
3 529 501 528
3 529 502 501
3 530 503 502
3 530 502 529
3 530 504 503
3 531 504 530
3 532 505 504
3 532 506 505
3 532 504 531
3 533 507 506
3 533 506 532
3 534 507 533
3 535 508 507
3 535 507 534
3 536 509 508
3 536 508 535
3 537 510 509
3 537 509 536
3 538 511 510
3 538 512 511
3 538 510 537
3 539 512 538
3 540 513 512
3 540 512 539
3 541 514 513
3 541 513 540
3 516 515 514
3 516 514 541
3 563 556 557
3 564 563 557
3 542 568 543
3 569 550 551
3 570 551 552
3 570 569 551
3 571 552 553
3 571 570 552
3 572 553 554
3 572 554 555
3 573 555 549
3 573 572 555
3 574 571 553
3 574 553 572
3 575 574 572
3 576 562 550
3 576 550 569
3 577 549 548
3 577 573 549
3 577 575 572
3 577 572 573
3 578 576 569
3 578 569 570
3 579 570 571
3 579 578 570
3 580 571 574
3 580 579 571
3 581 562 576
3 582 574 575
3 582 580 574
3 583 576 578
3 583 581 576
3 584 575 577
3 584 582 575
3 584 577 548
3 585 578 579
3 585 583 578
3 586 579 580
3 586 585 579
3 587 586 580
3 587 580 582
3 588 548 547
3 588 587 582
3 588 582 584
3 588 584 548
3 589 561 562
3 589 562 581
3 590 589 581
3 590 581 583
3 591 583 585
3 591 590 583
3 592 561 589
3 593 585 586
3 593 591 585
3 594 589 590
3 594 592 589
3 595 593 586
3 595 586 587
3 596 590 591
3 596 594 590
3 597 587 588
3 597 588 547
3 597 595 587
3 598 596 591
3 598 591 593
3 599 593 595
3 599 595 597
3 599 598 593
3 600 547 546
3 600 597 547
3 600 599 597
3 601 560 561
3 601 561 592
3 602 592 594
3 602 601 592
3 603 594 596
3 603 602 594
3 604 601 602
3 604 560 601
3 605 596 598
3 605 603 596
3 606 604 602
3 607 598 599
3 607 599 600
3 607 605 598
3 608 602 603
3 608 606 602
3 608 603 605
3 609 600 546
3 609 607 600
3 610 608 605
3 611 605 607
3 611 610 605
3 612 546 545
3 612 609 546
3 612 607 609
3 612 611 607
3 613 559 560
3 613 560 604
3 613 604 606
3 614 613 606
3 615 559 613
3 616 614 606
3 616 606 608
3 617 613 614
3 617 614 616
3 617 615 613
3 618 616 608
3 618 608 610
3 619 617 616
3 620 610 611
3 620 618 610
3 621 619 616
3 621 616 618
3 621 618 620
3 622 620 611
3 622 612 545
3 622 611 612
3 623 621 620
3 624 620 622
3 624 545 544
3 624 622 545
3 624 623 620
3 625 558 559
3 625 559 615
3 626 558 625
3 626 625 615
3 626 615 617
3 627 617 619
3 627 558 626
3 627 626 617
3 628 627 619
3 628 619 621
3 629 621 623
3 629 628 621
3 630 624 544
3 630 623 624
3 630 629 623
3 631 557 558
3 632 631 558
3 632 564 557
3 632 557 631
3 633 565 564
3 633 558 627
3 633 632 558
3 633 564 632
3 634 627 628
3 634 566 565
3 634 628 629
3 634 633 627
3 634 565 633
3 635 567 566
3 635 566 634
3 635 634 629
3 636 544 543
3 636 568 567
3 636 630 544
3 636 629 630
3 636 567 635
3 636 635 629
3 636 543 568
3 641 642 643
3 641 643 644
3 640 637 638
3 640 638 639
3 640 644 645
3 640 645 646
3 640 646 647
3 640 647 648
3 640 648 649
3 640 649 650
3 640 650 651
3 640 651 652
3 640 652 653
3 640 653 654
3 640 654 655
3 640 655 656
3 640 656 657
3 640 657 658
3 640 658 659
3 640 659 660
3 640 660 661
3 640 661 662
3 640 662 637
3 640 641 644
