ply
format ascii 1.0
comment generated by blendit.inference.finetune_visualize
element vertex 653
property float x
property float y
property float z
property uchar red
property uchar green
property uchar blue
element face 792
property list uchar int vertex_indices
end_header
0 0 0 218 222 230
0 -4.4408921e-16 27.4627866 218 222 230
0 53.8624994 -4.4408921e-16 218 222 230
0 54.4182787 0.0626212803 218 222 230
0 54.9461888 0.247345029 218 222 230
0 55.4197582 0.544908426 218 222 230
0 55.8152402 0.940390399 218 222 230
0 56.1128036 1.41395983 218 222 230
0 56.2975274 1.94186998 218 222 230
0 56.3601486 2.49764921 218 222 230
-4.4408921e-16 56.3601486 28.6912549 218 222 230
-4.4408921e-16 0.210142044 28.6912549 218 222 230
0 0.0938949186 28.2905674 218 222 230
0 0.0235487528 27.8793311 218 222 230
0 50.9233913 4.40149208 218 222 230
0 50.712781 2.4756594 218 222 230
0 52.6965165 5.18201454 218 222 230
0 54.2590314 4.03670433 218 222 230
0 54.0484211 2.11087166 218 222 230
0 52.2752959 1.33034919 218 222 230
0 0 0 218 222 230
0 -4.4408921e-16 27.4627866 218 222 230
74.8730659 -4.4408921e-16 27.4627866 218 222 230
74.8730659 0 9.44198037 218 222 230
31.268619 0 9.44198037 218 222 230
31.268619 0 0 218 222 230
19.8397897 0 4.03377273 218 222 230
20.0791054 0 4.06283092 218 222 230
20.3045129 0 4.14831671 218 222 230
20.5029124 0 4.28526199 218 222 230
20.6627736 0 4.46570799 218 222 230
20.7748059 0 4.67916785 218 222 230
20.8324986 0 4.91323605 218 222 230
20.8324986 0 5.15430941 218 222 230
20.7748059 0 5.38837762 218 222 230
20.6627736 0 5.60183748 218 222 230
20.5029124 0 5.78228348 218 222 230
20.3045129 0 5.91922876 218 222 230
20.0791054 0 6.00471455 218 222 230
19.8397897 0 6.03377273 218 222 230
19.600474 0 6.00471455 218 222 230
19.3750665 0 5.91922876 218 222 230
19.176667 0 5.78228348 218 222 230
19.0168058 0 5.60183748 218 222 230
18.9047735 0 5.38837762 218 222 230
18.8470808 0 5.15430941 218 222 230
18.8470808 0 4.91323605 218 222 230
18.9047735 0 4.67916785 218 222 230
19.0168058 0 4.46570799 218 222 230
19.176667 0 4.28526199 218 222 230
19.3750665 0 4.14831671 218 222 230
19.600474 0 4.06283092 218 222 230
-4.4408921e-16 0.210142044 28.6912549 255 79 163
0 0.0938949186 28.2905674 255 79 163
0 0.0235487528 27.8793311 255 79 163
0 -4.4408921e-16 27.4627866 255 79 163
74.8730659 -4.4408921e-16 27.4627866 255 79 163
74.8730659 1.84211955 30.6601101 255 79 163
74.8730659 1.21885917 30.2057319 255 79 163
74.8730659 0.703481307 29.6318863 255 79 163
74.8730659 0.318432932 28.9635669 255 79 163
74.8730659 0.0804845977 28.2298819 255 79 163
74.3424297 3.69581933 31.1586059 255 79 163
74.6084082 2.99995842 31.0925053 255 79 163
74.8083089 2.33751259 30.8999487 255 79 163
74.8578662 2.0647084 30.7791939 255 79 163
2.46735102 3.69581933 31.1586059 255 79 163
1.67329154 2.71957954 31.0273393 255 79 163
0.917753259 1.76037299 30.6112986 255 79 163
0.417091871 1.07034934 30.0639378 255 79 163
0.152254148 0.642091069 29.5445705 255 79 163
0.0422100073 0.405391767 29.1456909 255 79 163
74.8730659 47.4553459 0 218 222 230
74.8730659 53.8624994 -4.4408921e-16 218 222 230
0 53.8624994 -4.4408921e-16 218 222 230
0 0 0 218 222 230
31.268619 0 0 218 222 230
31.268619 47.4553459 0 218 222 230
2.46735102 56.0102871 31.1586059 255 79 163
2.00275471 56.1835645 31.11447 255 79 163
1.55579869 56.316493 30.9840465 255 79 163
1.37071511 56.3498606 30.9015062 255 79 163
1.21937371 56.3601486 30.8197223 255 79 163
0.806557615 56.3601486 30.5159703 255 79 163
0.465402832 56.3601486 30.1334839 255 79 163
0.210629797 56.3601486 29.688767 255 79 163
0.0532316705 56.3601486 29.2010086 255 79 163
-4.4408921e-16 56.3601486 28.6912549 255 79 163
-4.4408921e-16 0.210142044 28.6912549 255 79 163
2.46735102 3.69581933 31.1586059 255 79 163
1.67329154 2.71957954 31.0273393 255 79 163
0.917753259 1.76037299 30.6112986 255 79 163
0.417091871 1.07034934 30.0639378 255 79 163
0.152254148 0.642091069 29.5445705 255 79 163
0.0422100073 0.405391767 29.1456909 255 79 163
0 53.8624994 -4.4408921e-16 255 79 163
0 54.4182787 0.0626212803 255 79 163
0 54.9461888 0.247345029 255 79 163
0 55.4197582 0.544908426 255 79 163
0 55.8152402 0.940390399 255 79 163
0 56.1128036 1.41395983 255 79 163
0 56.2975274 1.94186998 255 79 163
0 56.3601486 2.49764921 255 79 163
74.8730659 56.3601486 2.49764921 255 79 163
74.8730659 53.8624994 -4.4408921e-16 255 79 163
74.8730659 54.4182787 0.0626212803 255 79 163
74.8730659 54.9461888 0.247345029 255 79 163
74.8730659 55.4197582 0.544908426 255 79 163
74.8730659 55.8152402 0.940390399 255 79 163
74.8730659 56.1128036 1.41395983 255 79 163
74.8730659 56.2975274 1.94186998 255 79 163
74.8730659 56.3601486 2.49764921 218 222 230
74.8730659 56.3601486 28.9061424 218 222 230
0 56.3601486 2.49764921 218 222 230
-4.4408921e-16 56.3601486 28.6912549 218 222 230
1.21937371 56.3601486 30.8197223 218 222 230
0.806557615 56.3601486 30.5159703 218 222 230
0.465402832 56.3601486 30.1334839 218 222 230
0.210629797 56.3601486 29.688767 218 222 230
0.0532316705 56.3601486 29.2010086 218 222 230
17.9139018 56.3601486 30.5492702 218 222 230
40.1732727 56.3601486 29.9458303 218 222 230
57.5121158 56.3601486 29.4877178 218 222 230
74.8509588 56.3601486 29.2209471 218 222 230
74.8730659 50.9233913 4.40149208 218 222 230
74.8730659 50.712781 2.4756594 218 222 230
0 50.9233913 4.40149208 218 222 230
0 50.712781 2.4756594 218 222 230
74.8730659 50.712781 2.4756594 218 222 230
74.8730659 52.2752959 1.33034919 218 222 230
0 50.712781 2.4756594 218 222 230
0 52.2752959 1.33034919 218 222 230
74.8730659 52.2752959 1.33034919 218 222 230
74.8730659 54.0484211 2.11087166 218 222 230
0 52.2752959 1.33034919 218 222 230
0 54.0484211 2.11087166 218 222 230
74.8730659 54.0484211 2.11087166 218 222 230
74.8730659 54.2590314 4.03670433 218 222 230
0 54.0484211 2.11087166 218 222 230
0 54.2590314 4.03670433 218 222 230
74.8730659 54.2590314 4.03670433 218 222 230
74.8730659 52.6965165 5.18201454 218 222 230
0 54.2590314 4.03670433 218 222 230
0 52.6965165 5.18201454 218 222 230
74.8730659 52.6965165 5.18201454 218 222 230
74.8730659 50.9233913 4.40149208 218 222 230
0 52.6965165 5.18201454 218 222 230
0 50.9233913 4.40149208 218 222 230
74.8730659 0 9.44198037 218 222 230
74.8730659 -4.4408921e-16 27.4627866 218 222 230
74.8730659 44.9109003 9.44198037 218 222 230
74.8730659 45.4770927 9.3781858 218 222 230
74.8730659 46.0148939 9.19000104 218 222 230
74.8730659 46.4973362 8.88686245 218 222 230
74.8730659 46.900228 8.48397067 218 222 230
74.8730659 47.2033666 8.00152837 218 222 230
74.8730659 47.3915513 7.46372722 218 222 230
74.8730659 47.4553459 6.89753482 218 222 230
74.8730659 47.4553459 0 218 222 230
74.8730659 53.8624994 -4.4408921e-16 218 222 230
74.8730659 54.4182787 0.0626212803 218 222 230
74.8730659 54.9461888 0.247345029 218 222 230
74.8730659 55.4197582 0.544908426 218 222 230
74.8730659 55.8152402 0.940390399 218 222 230
74.8730659 56.1128036 1.41395983 218 222 230
74.8730659 56.2975274 1.94186998 218 222 230
74.8730659 56.3601486 2.49764921 218 222 230
74.8730659 56.3601486 28.9061424 218 222 230
74.8730659 1.84211955 30.6601101 218 222 230
74.8730659 14.60141 30.3274062 218 222 230
74.8730659 31.6137973 29.6539353 218 222 230
74.8730659 43.986973 29.1897266 218 222 230
74.8730659 1.21885917 30.2057319 218 222 230
74.8730659 0.703481307 29.6318863 218 222 230
74.8730659 0.318432932 28.9635669 218 222 230
74.8730659 0.0804845977 28.2298819 218 222 230
74.8730659 50.9233913 4.40149208 218 222 230
74.8730659 50.712781 2.4756594 218 222 230
74.8730659 52.6965165 5.18201454 218 222 230
74.8730659 54.2590314 4.03670433 218 222 230
74.8730659 54.0484211 2.11087166 218 222 230
74.8730659 52.2752959 1.33034919 218 222 230
74.8730659 53.8359955 10.9652124 218 222 230
74.8730659 53.5245407 10.6310693 218 222 230
74.8730659 54.3515751 10.8463022 218 222 230
74.8730659 54.9481892 10.2901983 218 222 230
74.8730659 54.86495 10.4756588 218 222 230
74.8730659 54.7483951 10.6248637 218 222 230
74.8730659 54.6374614 10.7187035 218 222 230
74.8730659 54.5278932 10.7836053 218 222 230
74.8730659 54.4404889 10.8203997 218 222 230
74.8730659 55.1029997 9.78423813 218 222 230
74.8730659 54.4211638 9.0527329 218 222 230
74.8730659 53.6700645 9.22596207 218 222 230
74.8730659 53.3796884 9.49662152 218 222 230
74.8730659 53.4201974 9.40636335 218 222 230
74.8730659 53.4769284 9.33373879 218 222 230
74.8730659 53.5309259 9.28806228 218 222 230
74.8730659 53.5842564 9.25647354 218 222 230
74.8730659 53.6267953 9.23856693 218 222 230
74.8730659 53.3130947 9.71426673 218 222 230
74.8730659 53.4062014 10.4739551 218 222 230
74.8730659 53.3231139 10.29567 218 222 230
74.8730659 53.2789097 10.1040061 218 222 230
74.8730659 53.2755206 9.90733993 218 222 230
31.268619 47.4553459 0 218 222 230
31.268619 47.4553459 6.89753482 218 222 230
31.268619 44.9109003 9.44198037 218 222 230
31.268619 45.4770927 9.3781858 218 222 230
31.268619 46.0148939 9.19000104 218 222 230
31.268619 46.4973362 8.88686245 218 222 230
31.268619 46.900228 8.48397067 218 222 230
31.268619 47.2033666 8.00152837 218 222 230
31.268619 47.3915513 7.46372722 218 222 230
31.268619 0 9.44198037 218 222 230
31.268619 0 0 218 222 230
74.8730659 44.9109003 9.44198037 218 222 230
74.8730659 0 9.44198037 218 222 230
31.268619 44.9109003 9.44198037 218 222 230
31.268619 0 9.44198037 218 222 230
19.8397897 0 4.03377273 218 222 230
19.8397897 36.2883794 4.03377273 218 222 230
20.0791054 36.2883794 4.06283092 218 222 230
20.3045129 36.2883794 4.14831671 218 222 230
20.5029124 36.2883794 4.28526199 218 222 230
20.6627736 36.2883794 4.46570799 218 222 230
20.7748059 36.2883794 4.67916785 218 222 230
20.8324986 36.2883794 4.91323605 218 222 230
20.8324986 36.2883794 5.15430941 218 222 230
20.7748059 36.2883794 5.38837762 218 222 230
20.6627736 36.2883794 5.60183748 218 222 230
20.5029124 36.2883794 5.78228348 218 222 230
20.3045129 36.2883794 5.91922876 218 222 230
20.0791054 36.2883794 6.00471455 218 222 230
19.8397897 36.2883794 6.03377273 218 222 230
19.600474 36.2883794 6.00471455 218 222 230
19.3750665 36.2883794 5.91922876 218 222 230
19.176667 36.2883794 5.78228348 218 222 230
19.0168058 36.2883794 5.60183748 218 222 230
18.9047735 36.2883794 5.38837762 218 222 230
18.8470808 36.2883794 5.15430941 218 222 230
18.8470808 36.2883794 4.91323605 218 222 230
18.9047735 36.2883794 4.67916785 218 222 230
19.0168058 36.2883794 4.46570799 218 222 230
19.176667 36.2883794 4.28526199 218 222 230
19.3750665 36.2883794 4.14831671 218 222 230
19.600474 36.2883794 4.06283092 218 222 230
19.8397897 36.2883794 4.03377273 218 222 230
19.8397897 0 4.03377273 218 222 230
20.0791054 0 4.06283092 218 222 230
20.3045129 0 4.14831671 218 222 230
20.5029124 0 4.28526199 218 222 230
20.6627736 0 4.46570799 218 222 230
20.7748059 0 4.67916785 218 222 230
20.8324986 0 4.91323605 218 222 230
20.8324986 0 5.15430941 218 222 230
20.7748059 0 5.38837762 218 222 230
20.6627736 0 5.60183748 218 222 230
20.5029124 0 5.78228348 218 222 230
20.3045129 0 5.91922876 218 222 230
20.0791054 0 6.00471455 218 222 230
19.8397897 0 6.03377273 218 222 230
19.600474 0 6.00471455 218 222 230
19.3750665 0 5.91922876 218 222 230
19.176667 0 5.78228348 218 222 230
19.0168058 0 5.60183748 218 222 230
18.9047735 0 5.38837762 218 222 230
18.8470808 0 5.15430941 218 222 230
18.8470808 0 4.91323605 218 222 230
18.9047735 0 4.67916785 218 222 230
19.0168058 0 4.46570799 218 222 230
19.176667 0 4.28526199 218 222 230
19.3750665 0 4.14831671 218 222 230
19.600474 0 4.06283092 218 222 230
2.46735102 3.69581933 31.1586059 218 222 230
74.3424297 3.69581933 31.1586059 218 222 230
73.9587954 16.9297031 31.1586059 218 222 230
73.204414 35.6848816 31.1586059 218 222 230
72.8449505 45.9010184 31.1586059 218 222 230
72.6470703 54.4400601 31.1586059 218 222 230
2.46735102 56.0102871 31.1586059 218 222 230
19.4572694 55.7148462 31.1586059 218 222 230
42.1104938 55.0918562 31.1586059 218 222 230
57.378782 54.6922651 31.1586059 218 222 230
72.6470703 54.4400601 31.1586059 255 79 163
73.352265 55.0961244 31.0411741 255 79 163
73.9130105 55.6100913 30.755462 255 79 163
74.3127707 55.9652437 30.3958096 255 79 163
74.5871651 56.194669 30.005891 255 79 163
74.7537616 56.3166243 29.6299155 255 79 163
74.8129064 56.3495733 29.4233553 255 79 163
74.8509588 56.3601486 29.2209471 255 79 163
74.3424297 3.69581933 31.1586059 255 79 163
73.9587954 16.9297031 31.1586059 255 79 163
73.204414 35.6848816 31.1586059 255 79 163
72.8449505 45.9010184 31.1586059 255 79 163
74.6084082 2.99995842 31.0925053 255 79 163
74.8083089 2.33751259 30.8999487 255 79 163
74.8578662 2.0647084 30.7791939 255 79 163
74.8730659 1.84211955 30.6601101 255 79 163
74.8730659 14.60141 30.3274062 255 79 163
74.8730659 31.6137973 29.6539353 255 79 163
74.8730659 43.986973 29.1897266 255 79 163
74.8730659 56.3601486 28.9061424 255 79 163
74.8081742 2.42103899 30.8991644 255 79 163
74.6545017 7.09906259 31.0187653 255 79 163
74.7899859 8.80068421 30.8264461 255 79 163
74.6798149 9.14861467 30.9653549 255 79 163
74.4965897 11.7423108 31.0644869 255 79 163
74.7361579 21.0483035 30.6109739 255 79 163
74.178905 28.0761273 30.9850657 255 79 163
73.9526593 55.2987777 30.7292643 255 79 163
74.2169365 55.4001044 30.5024765 255 79 163
74.309723 55.6887881 30.4014853 255 79 163
74.4737141 55.7281365 30.1920202 255 79 163
74.543801 55.9784946 30.0820542 255 79 163
74.6369129 55.98512 29.9136759 255 79 163
74.7393491 56.1626962 29.672629 255 79 163
74.773064 13.1718604 30.7585985 255 79 163
74.3664161 18.9890033 31.0319435 255 79 163
74.4605418 17.9145211 30.9915507 255 79 163
74.2069573 20.6007267 31.0845938 255 79 163
74.5211231 24.2717502 30.8066631 255 79 163
74.4131798 20.7499189 30.972371 255 79 163
74.6350251 27.9872249 30.5707909 255 79 163
74.7780681 27.9427737 30.3036254 255 79 163
74.690168 29.8449623 30.4270142 255 79 163
74.6123176 31.113088 30.5147172 255 79 163
73.9630103 32.4701161 31.0239823 255 79 163
74.7645003 32.6315684 30.1815155 255 79 163
74.6529003 37.0952173 30.2779435 255 79 163
74.4080959 33.6493394 30.6936359 255 79 163
73.8441154 34.6671105 31.0442781 255 79 163
74.1526741 35.4764794 30.866877 255 79 163
74.0063511 36.3900494 30.9419272 255 79 163
73.7678657 37.7604044 31.0358059 255 79 163
74.1179186 37.5386754 30.8528025 255 79 163
73.8090126 39.1261444 31.0012016 255 79 163
73.9033058 41.8576243 30.9161659 255 79 163
74.7118985 40.3060392 30.0691139 255 79 163
74.7396793 41.9114501 29.9581263 255 79 163
74.6260143 42.9222986 30.1703996 255 79 163
74.5393954 41.8935082 30.3346441 255 79 163
73.7046547 44.2342128 30.985764 255 79 163
73.6005728 45.4225071 31.0172178 255 79 163
74.2875518 44.9439957 30.5730918 255 79 163
73.6670546 46.3181215 30.9802019 255 79 163
73.804956 48.1093505 30.8915784 255 79 163
74.5178983 45.6801064 30.2815593 255 79 163
74.7337579 44.4654843 29.9048338 255 79 163
74.6134384 46.0481617 30.1200958 255 79 163
74.729232 46.6002447 29.864101 255 79 163
74.5106311 47.10328 30.2636139 255 79 163
74.8101147 47.7913501 29.5848257 255 79 163
74.5954032 51.5957272 30.047955 255 79 163
74.6899278 48.2654056 29.9205925 255 79 163
74.2524603 49.2135165 30.5380003 255 79 163
73.6013084 50.5876424 30.9704761 255 79 163
73.4964827 51.8267883 31.0056522 255 79 163
73.748087 53.0178936 30.8773612 255 79 163
73.3061442 54.8694189 31.0570667 255 79 163
74.6784177 54.4519934 29.8427839 255 79 163
74.6472067 55.8294632 29.8942865 255 79 163
74.7153316 55.8801265 29.7389973 255 79 163
74.7782637 56.0441426 29.5560149 255 79 163
74.440369 15.0507818 31.0504317 255 79 163
74.5020305 15.28904 31.0083519 255 79 163
74.7781991 16.2579655 30.6685913 255 79 163
74.4459543 32.5508422 30.6812869 255 79 163
74.2982693 38.1106808 30.6984502 255 79 163
74.3381664 39.8359273 30.6237064 255 79 163
74.3845495 41.0818318 30.548383 255 79 163
74.2351943 43.5782557 30.6479552 255 79 163
74.5293673 43.5961977 30.3098809 255 79 163
74.398077 44.0986316 30.469961 255 79 163
74.324854 44.3498486 30.5459511 255 79 163
74.7913671 43.7915853 29.756388 255 79 163
74.3125571 44.5478976 30.5549964 255 79 163
74.1090886 45.5513067 30.7218527 255 79 163
74.2088409 46.1831416 30.6268579 255 79 163
74.4216182 46.322176 30.3981546 255 79 163
74.3071263 46.4591831 30.5261396 255 79 163
74.379238 46.6738821 30.442648 255 79 163
74.471246 47.6679935 30.3084744 255 79 163
74.4507591 47.9503503 30.3308845 255 79 163
74.326688 48.187378 30.4761061 255 79 163
74.5411765 48.0553687 30.1994457 255 79 163
74.1676083 51.0916848 30.593849 255 79 163
73.9286162 51.7497679 30.7761428 255 79 163
74.232175 52.3068104 30.517715 255 79 163
74.4068592 53.0218714 30.3116785 255 79 163
73.2343977 54.1091242 31.0809781 255 79 163
73.8164462 53.7781883 30.8314874 255 79 163
74.1474385 53.7493585 30.5832948 255 79 163
74.2948435 53.7349435 30.4363281 255 79 163
74.3227835 54.1150909 30.4011405 255 79 163
74.0219428 54.3665335 30.6838584 255 79 163
74.1193744 54.6607061 30.600278 255 79 163
74.0652075 54.8733967 30.6448948 255 79 163
74.6942776 14.9804106 30.8338127 255 79 163
74.6176316 15.7655566 30.9031716 255 79 163
74.7658935 14.8260959 30.7299161 255 79 163
74.7831729 14.945225 30.6942825 255 79 163
74.7326382 16.0938292 30.7527699 255 79 163
74.3899622 16.5117662 31.0566213 255 79 163
74.4298686 16.5938343 31.0332106 255 79 163
74.5462649 16.427166 30.9546209 255 79 163
74.4397528 17.0340632 31.0201751 255 79 163
74.7268636 31.7592425 30.2963106 255 79 163
74.7721687 32.0823198 30.1800269 255 79 163
74.4138723 32.1146793 30.7242289 255 79 163
74.8730659 47.4553459 0 218 222 230
74.8730659 47.4553459 6.89753482 218 222 230
31.268619 47.4553459 0 218 222 230
31.268619 47.4553459 6.89753482 218 222 230
2.46735102 56.0102871 31.1586059 255 79 163
2.00275471 56.1835645 31.11447 255 79 163
1.55579869 56.316493 30.9840465 255 79 163
1.37071511 56.3498606 30.9015062 255 79 163
1.21937371 56.3601486 30.8197223 255 79 163
17.9139018 56.3601486 30.5492702 255 79 163
40.1732727 56.3601486 29.9458303 255 79 163
57.5121158 56.3601486 29.4877178 255 79 163
74.8509588 56.3601486 29.2209471 255 79 163
72.6470703 54.4400601 31.1586059 255 79 163
73.352265 55.0961244 31.0411741 255 79 163
73.9130105 55.6100913 30.755462 255 79 163
74.3127707 55.9652437 30.3958096 255 79 163
74.5871651 56.194669 30.005891 255 79 163
74.7537616 56.3166243 29.6299155 255 79 163
74.8129064 56.3495733 29.4233553 255 79 163
19.4572694 55.7148462 31.1586059 255 79 163
42.1104938 55.0918562 31.1586059 255 79 163
57.378782 54.6922651 31.1586059 255 79 163
1.61106421 56.3164404 30.9837931 255 79 163
7.4613358 56.2120392 31.0638223 255 79 163
9.95832827 56.302676 30.9287416 255 79 163
10.1906264 56.2272229 31.0256801 255 79 163
13.2795073 56.0992212 31.093374 255 79 163
73.6167647 55.5810674 30.7786334 255 79 163
73.7490145 55.7949899 30.5934472 255 79 163
74.0387448 55.907157 30.4697542 255 79 163
74.1016119 56.030803 30.305333 255 79 163
74.3589133 56.1154081 30.1661189 255 79 163
74.3819847 56.1771461 30.0454986 255 79 163
74.5818648 56.2663176 29.8181684 255 79 163
15.5967046 56.288852 30.8734193 255 79 163
24.6362701 55.8702656 31.1041744 255 79 163
22.6527086 55.9902391 31.0661285 255 79 163
25.8481479 56.2570132 30.746064 255 79 163
33.9136786 55.832669 31.0267359 255 79 163
29.815271 56.0918358 30.8902929 255 79 163
34.6340741 56.1751388 30.7017448 255 79 163
34.9942718 56.2854864 30.4866452 255 79 163
37.0434756 56.2167618 30.5850583 255 79 163
38.4096115 56.1560025 30.6544899 255 79 163
44.3545606 55.6796071 30.9884705 255 79 163
43.2836681 55.7954168 30.9299128 255 79 163
45.9608993 55.4901661 31.0619411 255 79 163
52.3337972 55.5698914 30.9610415 255 79 163
49.8113048 55.9263085 30.7247657 255 79 163
46.1734753 55.7602781 30.9156831 255 79 163
46.5986274 56.1820301 30.4461317 255 79 163
51.3073493 56.2272163 30.2599831 255 79 163
53.2190726 56.0845059 30.4779371 255 79 163
53.6617103 56.2492234 30.1602785 255 79 163
54.9229565 56.1544099 30.3356507 255 79 163
55.7193427 55.396963 31.0161228 255 79 163
55.7637873 56.0736589 30.4511516 255 79 163
57.4121155 55.3057289 31.0414481 255 79 163
57.4454489 55.8711965 30.6696537 255 79 163
57.4787823 56.2428854 30.1032368 255 79 163
59.1122956 55.3517641 31.0094366 255 79 163
62.512656 55.4533295 30.9319011 255 79 163
59.1567402 56.0602404 30.4180162 255 79 163
60.0123859 56.1397912 30.2771761 255 79 163
61.2958544 56.2371975 30.0520452 255 79 163
61.7014549 56.0510786 30.3953922 255 79 163
63.6428079 56.2031487 30.0972864 255 79 163
68.336715 56.121229 30.2029272 255 79 163
65.079593 55.8269126 30.6253699 255 79 163
66.7464398 55.268278 30.9970866 255 79 163
68.8633316 55.1737672 31.0267857 255 79 163
70.4918926 55.3905231 30.9161995 255 79 163
68.6877927 55.5466123 30.8291573 255 79 163
72.3122294 56.1925397 30.0255693 255 79 163
73.1980424 55.1437292 31.0234482 255 79 163
74.2999867 56.2243737 29.9366318 255 79 163
74.4762854 56.2820224 29.7678305 255 79 163
17.5269869 56.0532949 31.0818924 255 79 163
18.6855855 56.176463 30.9749202 255 79 163
20.2833052 56.2751868 30.8187585 255 79 163
38.1445946 55.7398537 31.0276597 255 79 163
40.2600526 55.6908927 31.0290379 255 79 163
40.7154313 55.6507085 31.0436165 255 79 163
41.1418832 55.9967885 30.7952457 255 79 163
41.6261885 55.5674511 31.0705284 255 79 163
41.3715063 56.2433982 30.4383007 255 79 163
40.657578 56.2740204 30.3834512 255 79 163
41.7284704 56.2260911 30.4661597 255 79 163
43.3518561 56.2122659 30.4580815 255 79 163
55.3211496 55.8317116 30.7355634 255 79 163
59.5623408 55.8005685 30.7106317 255 79 163
63.077732 55.8939793 30.5762974 255 79 163
67.5415774 55.7537599 30.673159 255 79 163
71.402061 55.8620075 30.5363604 255 79 163
71.5775999 55.5316629 30.8231034 255 79 163
72.1123351 54.9919293 31.078888 255 79 163
72.1789665 55.4805686 30.854253 255 79 163
72.4796498 55.4546738 30.8693332 255 79 163
72.719114 55.3534248 30.927186 255 79 163
72.7551359 55.7658626 30.6268306 255 79 163
73.0423455 55.7064221 30.6798523 255 79 163
17.7204444 56.2828753 30.8495124 255 79 163
19.8702872 56.0253879 31.0749157 255 79 163
39.6143123 56.1797142 30.5938139 255 79 163
40.2166627 56.1913731 30.5620854 255 79 163
40.3636344 56.2219471 30.5039418 255 79 163
40.6865046 56.0268323 30.7720378 255 79 163
41.8217176 55.6830236 31.0156627 255 79 163
41.6773295 55.9505079 30.8306663 255 79 163
41.9194821 55.7396421 30.9830438 255 79 163
42.3742108 55.7580122 30.9662409 255 79 163
72.3959396 55.8887331 30.5001826 255 79 163
74.8730659 44.9109003 9.44198037 255 79 163
74.8730659 45.4770927 9.3781858 255 79 163
74.8730659 46.0148939 9.19000104 255 79 163
74.8730659 46.4973362 8.88686245 255 79 163
74.8730659 46.900228 8.48397067 255 79 163
74.8730659 47.2033666 8.00152837 255 79 163
74.8730659 47.3915513 7.46372722 255 79 163
74.8730659 47.4553459 6.89753482 255 79 163
31.268619 47.4553459 6.89753482 255 79 163
31.268619 44.9109003 9.44198037 255 79 163
31.268619 45.4770927 9.3781858 255 79 163
31.268619 46.0148939 9.19000104 255 79 163
31.268619 46.4973362 8.88686245 255 79 163
31.268619 46.900228 8.48397067 255 79 163
31.268619 47.2033666 8.00152837 255 79 163
31.268619 47.3915513 7.46372722 255 79 163
74.8730659 53.8359955 10.9652124 218 222 230
74.8730659 53.5245407 10.6310693 218 222 230
63.5135037 53.8359955 10.9652124 218 222 230
63.5135037 53.5245407 10.6310693 218 222 230
74.8730659 53.5245407 10.6310693 255 79 163
63.5135037 53.5245407 10.6310693 255 79 163
63.5135037 53.4062014 10.4739551 255 79 163
63.5135037 53.3231139 10.29567 255 79 163
63.5135037 53.2789097 10.1040061 255 79 163
63.5135037 53.2755206 9.90733993 255 79 163
63.5135037 53.3130947 9.71426673 255 79 163
74.8730659 53.3130947 9.71426673 255 79 163
74.8730659 53.4062014 10.4739551 255 79 163
74.8730659 53.3231139 10.29567 255 79 163
74.8730659 53.2789097 10.1040061 255 79 163
74.8730659 53.2755206 9.90733993 255 79 163
74.8730659 54.3515751 10.8463022 218 222 230
74.8730659 53.8359955 10.9652124 218 222 230
63.5135037 54.3695882 10.8421477 218 222 230
63.5135037 53.8359955 10.9652124 218 222 230
74.8730659 53.3130947 9.71426673 218 222 230
74.8730659 53.3796884 9.49662152 218 222 230
63.5135037 53.3130947 9.71426673 218 222 230
63.5135037 53.4283807 9.33748274 218 222 230
74.8730659 54.9481892 10.2901983 255 79 163
74.8730659 54.86495 10.4756588 255 79 163
74.8730659 54.7483951 10.6248637 255 79 163
74.8730659 54.6374614 10.7187035 255 79 163
74.8730659 54.5278932 10.7836053 255 79 163
74.8730659 54.4404889 10.8203997 255 79 163
74.8730659 54.3515751 10.8463022 255 79 163
63.5135037 54.3695882 10.8421477 255 79 163
63.5135037 54.9427805 10.3078753 255 79 163
63.5135037 54.8628099 10.4860537 255 79 163
63.5135037 54.7508301 10.6294023 255 79 163
63.5135037 54.6442503 10.7195589 255 79 163
63.5135037 54.538983 10.7819129 255 79 163
63.5135037 54.4550103 10.8172625 255 79 163
74.8730659 53.3796884 9.49662152 255 79 163
74.8730659 53.4201974 9.40636335 255 79 163
74.8730659 53.4769284 9.33373879 255 79 163
74.8730659 53.5309259 9.28806228 255 79 163
74.8730659 53.5842564 9.25647354 255 79 163
74.8730659 53.6267953 9.23856693 255 79 163
74.8730659 53.6700645 9.22596207 255 79 163
63.5135037 53.5079001 9.26336271 255 79 163
63.5135037 53.4283807 9.33748274 255 79 163
63.5135037 53.4394738 9.31276609 255 79 163
63.5135037 53.4550098 9.29287743 255 79 163
63.5135037 53.4697974 9.28036861 255 79 163
63.5135037 53.4844022 9.27171799 255 79 163
63.5135037 53.4960513 9.26681439 255 79 163
74.8730659 55.1029997 9.78423813 218 222 230
74.8730659 54.9481892 10.2901983 218 222 230
63.5135037 55.1029997 9.78423813 218 222 230
63.5135037 54.9427805 10.3078753 218 222 230
74.8730659 53.6700645 9.22596207 218 222 230
74.8730659 54.4211638 9.0527329 218 222 230
63.5135037 53.5079001 9.26336271 218 222 230
63.5135037 54.4211638 9.0527329 218 222 230
74.8730659 54.4211638 9.0527329 218 222 230
63.5135037 54.4211638 9.0527329 218 222 230
63.5135037 55.1029997 9.78423813 218 222 230
74.8730659 55.1029997 9.78423813 218 222 230
19.8397897 36.2883794 4.03377273 218 222 230
20.0791054 36.2883794 4.06283092 218 222 230
20.3045129 36.2883794 4.14831671 218 222 230
20.5029124 36.2883794 4.28526199 218 222 230
20.6627736 36.2883794 4.46570799 218 222 230
20.7748059 36.2883794 4.67916785 218 222 230
20.8324986 36.2883794 4.91323605 218 222 230
20.8324986 36.2883794 5.15430941 218 222 230
20.7748059 36.2883794 5.38837762 218 222 230
20.6627736 36.2883794 5.60183748 218 222 230
20.5029124 36.2883794 5.78228348 218 222 230
20.3045129 36.2883794 5.91922876 218 222 230
20.0791054 36.2883794 6.00471455 218 222 230
19.8397897 36.2883794 6.03377273 218 222 230
19.600474 36.2883794 6.00471455 218 222 230
19.3750665 36.2883794 5.91922876 218 222 230
19.176667 36.2883794 5.78228348 218 222 230
19.0168058 36.2883794 5.60183748 218 222 230
18.9047735 36.2883794 5.38837762 218 222 230
18.8470808 36.2883794 5.15430941 218 222 230
18.8470808 36.2883794 4.91323605 218 222 230
18.9047735 36.2883794 4.67916785 218 222 230
19.0168058 36.2883794 4.46570799 218 222 230
19.176667 36.2883794 4.28526199 218 222 230
19.3750665 36.2883794 4.14831671 218 222 230
19.600474 36.2883794 4.06283092 218 222 230
63.5135037 53.8359955 10.9652124 218 222 230
63.5135037 53.5245407 10.6310693 218 222 230
63.5135037 53.4062014 10.4739551 218 222 230
63.5135037 53.3231139 10.29567 218 222 230
63.5135037 53.2789097 10.1040061 218 222 230
63.5135037 53.2755206 9.90733993 218 222 230
63.5135037 53.3130947 9.71426673 218 222 230
63.5135037 53.4283807 9.33748274 218 222 230
63.5135037 53.4394738 9.31276609 218 222 230
63.5135037 53.4550098 9.29287743 218 222 230
63.5135037 53.4697974 9.28036861 218 222 230
63.5135037 53.4844022 9.27171799 218 222 230
63.5135037 53.4960513 9.26681439 218 222 230
63.5135037 53.5079001 9.26336271 218 222 230
63.5135037 54.4211638 9.0527329 218 222 230
63.5135037 55.1029997 9.78423813 218 222 230
63.5135037 54.9427805 10.3078753 218 222 230
63.5135037 54.8628099 10.4860537 218 222 230
63.5135037 54.7508301 10.6294023 218 222 230
63.5135037 54.6442503 10.7195589 218 222 230
63.5135037 54.538983 10.7819129 218 222 230
63.5135037 54.4550103 10.8172625 218 222 230
63.5135037 54.3695882 10.8421477 218 222 230
3 18 3 2
3 18 4 3
3 18 5 4
3 18 6 5
3 18 7 6
3 18 8 7
3 18 9 8
3 19 18 2
3 17 9 18
3 15 19 2
3 10 16 14
3 10 17 16
3 10 9 17
3 0 14 15
3 0 15 2
3 1 10 14
3 1 14 0
3 11 13 12
3 11 1 13
3 11 10 1
3 48 20 49
3 50 49 20
3 47 20 48
3 51 50 20
3 46 20 47
3 45 20 46
3 44 20 45
3 43 20 44
3 21 40 39
3 21 41 40
3 21 42 41
3 21 43 42
3 21 20 43
3 25 27 26
3 25 28 27
3 25 29 28
3 25 30 29
3 25 31 30
3 25 32 31
3 25 26 51
3 25 51 20
3 24 33 32
3 24 34 33
3 24 35 34
3 24 36 35
3 24 37 36
3 24 38 37
3 24 39 38
3 24 21 39
3 24 32 25
3 22 24 23
3 22 21 24
3 63 62 66
3 63 66 67
3 64 67 68
3 64 63 67
3 65 64 68
3 57 65 68
3 58 68 69
3 58 57 68
3 59 69 70
3 59 70 71
3 59 58 69
3 60 71 52
3 60 59 71
3 61 52 53
3 61 53 54
3 61 60 52
3 56 54 55
3 56 61 54
3 77 75 74
3 77 76 75
3 73 72 77
3 73 77 74
3 87 88 94
3 86 94 93
3 86 87 94
3 85 93 92
3 85 86 93
3 84 85 92
3 83 92 91
3 83 84 92
3 82 91 90
3 82 83 91
3 81 82 90
3 80 81 90
3 79 90 89
3 79 80 90
3 78 79 89
3 105 95 96
3 105 96 97
3 105 104 95
3 106 105 97
3 107 97 98
3 107 106 97
3 108 98 99
3 108 99 100
3 108 107 98
3 109 108 100
3 110 100 101
3 110 109 100
3 103 101 102
3 103 110 101
3 117 119 118
3 117 114 119
3 115 117 116
3 115 114 117
3 120 113 114
3 120 114 115
3 121 113 120
3 111 113 121
3 122 111 121
3 112 111 122
3 123 112 122
3 124 127 126
3 125 127 124
3 129 130 128
3 129 131 130
3 133 134 132
3 133 135 134
3 136 139 138
3 137 139 136
3 140 143 142
3 141 143 140
3 145 146 144
3 145 147 146
3 180 159 160
3 180 160 161
3 180 161 162
3 180 162 163
3 180 163 164
3 180 164 165
3 180 165 166
3 181 159 180
3 179 180 166
3 158 181 177
3 158 159 181
3 192 178 179
3 192 179 166
3 191 192 166
3 193 178 192
3 199 178 193
3 198 178 199
3 197 178 198
3 196 178 197
3 195 178 196
3 157 177 176
3 157 158 177
3 156 178 195
3 156 176 178
3 156 157 176
3 156 195 194
3 156 194 200
3 155 156 200
3 155 200 204
3 154 155 204
3 154 203 202
3 154 204 203
3 153 154 202
3 153 202 201
3 152 183 182
3 152 153 201
3 152 201 183
3 151 152 182
3 167 182 184
3 167 186 185
3 167 187 186
3 167 188 187
3 167 189 188
3 167 190 189
3 167 184 190
3 167 185 191
3 167 191 166
3 171 150 151
3 171 151 182
3 171 182 167
3 170 150 171
3 148 150 170
3 169 148 170
3 149 148 169
3 174 175 149
3 168 149 169
3 173 174 149
3 172 149 168
3 172 173 149
3 210 212 211
3 210 213 212
3 208 210 209
3 207 205 206
3 207 206 213
3 207 213 210
3 207 210 208
3 215 205 207
3 214 215 207
3 217 218 216
3 217 219 218
3 249 221 220
3 249 222 221
3 250 223 222
3 250 224 223
3 250 222 249
3 251 224 250
3 252 225 224
3 252 224 251
3 253 226 225
3 253 225 252
3 254 227 226
3 254 226 253
3 255 228 227
3 255 227 254
3 256 229 228
3 256 230 229
3 256 228 255
3 257 230 256
3 258 231 230
3 258 230 257
3 259 232 231
3 259 233 232
3 259 231 258
3 260 233 259
3 261 233 260
3 261 234 233
3 262 235 234
3 262 234 261
3 262 236 235
3 263 236 262
3 264 237 236
3 264 236 263
3 265 238 237
3 265 237 264
3 266 239 238
3 266 238 265
3 267 240 239
3 267 239 266
3 268 241 240
3 268 240 267
3 269 242 241
3 269 241 268
3 270 243 242
3 270 244 243
3 270 242 269
3 271 244 270
3 272 245 244
3 272 246 245
3 272 244 271
3 273 246 272
3 248 247 246
3 248 246 273
3 281 280 274
3 276 274 275
3 282 281 274
3 282 274 276
3 277 282 276
3 283 282 277
3 278 283 277
3 279 283 278
3 304 296 297
3 304 297 298
3 304 298 299
3 305 292 296
3 305 296 304
3 305 304 299
3 306 299 300
3 306 305 299
3 306 307 305
3 308 293 292
3 308 307 306
3 308 292 305
3 308 305 307
3 309 300 301
3 310 294 293
3 311 286 285
3 312 286 311
3 313 287 286
3 313 286 312
3 314 287 313
3 314 313 312
3 315 288 287
3 315 287 314
3 316 288 315
3 317 289 288
3 317 290 289
3 317 288 316
3 318 306 300
3 318 308 306
3 319 293 320
3 319 320 309
3 321 293 319
3 321 310 293
3 321 322 310
3 323 319 309
3 323 322 321
3 323 321 319
3 323 309 322
3 324 310 322
3 325 324 322
3 325 309 301
3 325 322 309
3 326 324 325
3 326 325 301
3 326 310 324
3 327 326 301
3 327 310 326
3 328 310 327
3 328 294 310
3 329 301 330
3 329 330 331
3 332 294 328
3 332 328 331
3 333 332 331
3 333 294 332
3 333 331 330
3 334 333 330
3 334 294 333
3 335 294 334
3 336 334 330
3 336 335 334
3 337 295 294
3 337 294 335
3 337 338 295
3 339 301 302
3 339 330 301
3 340 339 302
3 341 338 342
3 341 342 340
3 341 340 302
3 343 295 338
3 344 295 343
3 344 343 345
3 346 347 295
3 346 295 344
3 348 345 349
3 350 349 302
3 350 348 349
3 351 350 302
3 352 347 346
3 353 302 303
3 353 303 354
3 353 351 302
3 353 352 351
3 355 354 356
3 355 353 354
3 357 284 295
3 357 295 347
3 357 347 356
3 358 284 357
3 359 284 358
3 360 285 284
3 361 354 303
3 362 316 315
3 362 315 314
3 362 312 361
3 362 314 312
3 363 361 303
3 363 316 362
3 363 362 361
3 364 290 317
3 364 291 290
3 364 303 291
3 364 363 303
3 364 316 363
3 364 317 316
3 365 308 318
3 365 293 308
3 366 293 365
3 367 309 320
3 367 300 309
3 368 331 328
3 368 329 331
3 369 337 335
3 369 336 330
3 369 335 336
3 369 370 337
3 369 330 339
3 369 339 370
3 371 338 337
3 371 337 370
3 371 370 339
3 371 342 338
3 371 340 342
3 371 339 340
3 372 338 341
3 372 343 338
3 372 341 373
3 374 343 372
3 374 372 373
3 375 374 349
3 375 343 374
3 376 349 374
3 376 341 302
3 376 373 341
3 376 302 349
3 376 374 373
3 377 375 349
3 377 343 375
3 377 345 343
3 377 349 345
3 378 345 348
3 378 344 345
3 378 346 344
3 379 346 378
3 379 378 348
3 379 348 350
3 380 350 351
3 380 379 350
3 381 346 379
3 381 379 380
3 382 380 351
3 382 346 381
3 382 381 380
3 382 352 346
3 382 351 352
3 383 347 352
3 383 352 353
3 384 347 383
3 385 356 347
3 385 347 384
3 385 355 356
3 386 353 355
3 386 383 353
3 386 384 383
3 386 385 384
3 386 355 385
3 387 357 356
3 387 358 357
3 387 354 388
3 387 388 358
3 387 356 354
3 389 388 354
3 389 358 388
3 389 359 358
3 390 359 389
3 390 354 361
3 390 389 354
3 391 284 359
3 391 359 392
3 391 360 284
3 393 359 390
3 393 392 359
3 394 390 361
3 394 393 390
3 395 392 393
3 395 394 361
3 395 393 394
3 396 391 392
3 396 360 391
3 396 392 395
3 396 395 361
3 397 396 361
3 397 360 396
3 398 285 360
3 398 397 361
3 398 360 397
3 398 361 312
3 398 311 285
3 398 312 311
3 399 400 366
3 399 366 365
3 401 365 318
3 401 399 365
3 401 318 300
3 402 399 401
3 402 401 300
3 402 400 399
3 402 403 400
3 402 367 403
3 402 300 367
3 404 366 400
3 404 293 366
3 405 293 404
3 406 404 400
3 406 405 404
3 406 400 403
3 406 403 367
3 407 320 293
3 407 293 405
3 407 405 406
3 407 367 320
3 407 406 367
3 408 327 301
3 409 301 329
3 409 329 368
3 409 408 301
3 410 328 327
3 410 368 328
3 410 327 408
3 410 409 368
3 410 408 409
3 412 413 411
3 412 414 413
3 434 417 416
3 434 418 417
3 434 419 418
3 435 416 415
3 435 434 416
3 435 419 434
3 436 420 419
3 436 435 437
3 436 419 435
3 438 415 431
3 438 437 435
3 438 436 437
3 438 435 415
3 439 425 426
3 440 439 426
3 441 426 427
3 441 440 426
3 442 441 427
3 442 440 441
3 443 427 428
3 443 442 427
3 444 443 428
3 445 428 429
3 446 420 436
3 446 436 438
3 447 449 448
3 447 431 432
3 447 432 450
3 447 448 431
3 447 451 449
3 447 450 451
3 452 451 450
3 453 421 420
3 453 451 452
3 453 449 451
3 453 420 449
3 454 453 452
3 454 421 453
3 454 452 450
3 455 421 454
3 456 457 432
3 458 432 433
3 458 456 432
3 458 433 459
3 458 459 460
3 461 462 456
3 461 458 460
3 461 460 462
3 461 456 458
3 463 422 421
3 463 421 462
3 463 462 460
3 463 460 459
3 464 463 459
3 465 422 463
3 465 463 464
3 466 422 465
3 466 465 464
3 467 464 459
3 467 459 433
3 468 422 466
3 469 468 467
3 469 467 433
3 469 470 468
3 471 422 468
3 471 468 470
3 472 469 433
3 472 470 469
3 472 433 473
3 474 471 470
3 474 470 472
3 474 422 471
3 475 422 474
3 476 422 475
3 477 476 475
3 478 423 422
3 478 479 423
3 478 422 476
3 478 476 477
3 478 480 479
3 481 433 424
3 481 473 433
3 481 480 473
3 482 481 424
3 483 482 424
3 483 479 484
3 483 484 482
3 485 423 479
3 486 424 425
3 486 425 439
3 487 442 443
3 487 423 485
3 487 485 440
3 487 440 442
3 487 443 444
3 488 444 428
3 488 428 445
3 488 423 487
3 488 445 429
3 488 487 444
3 488 429 430
3 488 430 423
3 489 446 438
3 489 431 490
3 489 438 431
3 491 448 449
3 491 420 490
3 491 449 420
3 492 454 450
3 492 450 432
3 492 455 454
3 493 492 432
3 494 496 495
3 494 493 432
3 494 432 496
3 497 421 498
3 497 498 495
3 499 421 497
3 500 421 499
3 500 456 462
3 500 462 421
3 500 457 456
3 501 466 464
3 501 464 467
3 501 467 468
3 501 468 466
3 502 474 472
3 502 475 474
3 502 477 475
3 502 472 473
3 502 473 477
3 503 477 473
3 503 473 480
3 503 478 477
3 503 480 478
3 504 479 480
3 504 480 481
3 504 481 482
3 504 484 479
3 504 482 484
3 505 483 506
3 505 485 479
3 505 479 483
3 505 506 485
3 507 506 483
3 507 483 424
3 508 506 507
3 508 485 506
3 509 507 424
3 509 508 507
3 510 424 486
3 510 509 424
3 511 509 510
3 512 486 439
3 512 439 440
3 512 510 486
3 512 485 511
3 512 511 510
3 512 440 485
3 513 446 489
3 513 489 490
3 513 490 420
3 513 420 446
3 514 448 491
3 514 491 490
3 514 490 431
3 514 431 448
3 515 492 493
3 515 455 492
3 515 421 455
3 516 515 493
3 516 421 515
3 517 498 421
3 517 421 516
3 518 493 494
3 518 494 495
3 518 495 498
3 518 498 517
3 518 516 493
3 518 517 516
3 519 496 432
3 520 499 497
3 520 497 495
3 520 495 496
3 520 496 519
3 521 520 519
3 521 499 520
3 521 519 432
3 522 457 500
3 522 500 499
3 522 432 457
3 522 499 521
3 522 521 432
3 523 485 508
3 523 508 509
3 523 509 511
3 523 511 485
3 533 525 524
3 534 525 533
3 535 526 525
3 535 525 534
3 536 527 526
3 536 528 527
3 536 526 535
3 537 528 536
3 538 529 528
3 538 530 529
3 538 528 537
3 539 530 538
3 532 531 530
3 532 530 539
3 541 542 540
3 541 543 542
3 549 551 550
3 549 555 551
3 548 553 554
3 548 554 555
3 548 555 549
3 547 553 548
3 546 544 552
3 546 552 553
3 546 553 547
3 545 544 546
3 556 559 558
3 557 559 556
3 561 562 560
3 561 563 562
3 573 564 565
3 573 572 564
3 574 565 566
3 574 566 567
3 574 573 565
3 575 567 568
3 575 574 567
3 576 568 569
3 576 575 568
3 577 569 570
3 577 576 569
3 571 577 570
3 587 578 579
3 587 586 578
3 588 579 580
3 588 580 581
3 588 587 579
3 589 581 582
3 589 588 581
3 590 582 583
3 590 589 582
3 591 583 584
3 591 590 583
3 585 591 584
3 593 594 592
3 593 595 594
3 596 599 598
3 597 599 596
3 603 601 600
3 603 602 601
3 615 616 617
3 613 614 615
3 611 612 613
3 611 613 615
3 604 628 629
3 610 617 618
3 610 618 619
3 610 619 620
3 610 620 621
3 610 615 617
3 610 611 615
3 609 610 621
3 608 621 622
3 608 622 623
3 608 623 624
3 608 609 621
3 607 604 605
3 607 605 606
3 607 624 625
3 607 625 626
3 607 626 627
3 607 627 628
3 607 628 604
3 607 608 624
3 638 639 640
3 642 640 641
3 642 638 640
3 637 638 642
3 643 637 642
3 636 637 643
3 644 636 643
3 652 630 631
3 652 631 632
3 652 632 633
3 646 633 634
3 646 634 635
3 646 635 636
3 646 644 645
3 646 636 644
3 646 652 633
3 651 652 646
3 647 651 646
3 649 650 651
3 649 651 647
3 648 649 647
