ply
format ascii 1.0
comment generated by blendit.inference.finetune_visualize
element vertex 858
property float x
property float y
property float z
property uchar red
property uchar green
property uchar blue
element face 993
property list uchar int vertex_indices
end_header
-2.22044605e-16 1.4412605 33.5485477 218 222 230
0 54.6169916 33.5485477 218 222 230
-2.22044605e-16 1.4412605 5.96279314 218 222 230
-2.22044605e-16 35.6042763 5.96279314 218 222 230
0 35.6042763 4.52153264 218 222 230
-2.22044605e-16 35.6042763 1.4412605 218 222 230
0 38.9653359 -2.22044605e-16 218 222 230
0 37.5823234 0.127669306 218 222 230
0 36.5408366 0.443085233 218 222 230
0 36.0396229 0.731849785 218 222 230
0 35.8030118 0.953012484 218 222 230
0 35.6744796 1.14822619 218 222 230
0 35.6218732 1.29397222 218 222 230
0 56.0582521 0 218 222 230
0 56.0582521 32.1072872 218 222 230
0 54.9377023 33.5124123 218 222 230
0 55.2423311 33.405818 218 222 230
0 55.5156029 33.23411 218 222 230
0 55.7438145 33.0058984 218 222 230
0 55.9155225 32.7326267 218 222 230
0 56.0221167 32.4279978 218 222 230
-2.22044605e-16 1.4412605 33.5485477 218 222 230
0 54.6169916 33.5485477 218 222 230
0.0361354099 1.12054987 33.5485477 218 222 230
0.142729659 0.815921007 33.5485477 218 222 230
0.314437667 0.542649278 33.5485477 218 222 230
0.542649278 0.314437667 33.5485477 218 222 230
0.815921007 0.142729659 33.5485477 218 222 230
1.12054987 0.0361354099 33.5485477 218 222 230
1.4412605 -2.22044605e-16 33.5485477 218 222 230
69.5172765 0 33.5485477 218 222 230
69.5172765 54.6169916 33.5485477 218 222 230
-2.22044605e-16 1.4412605 5.96279314 255 79 163
0.0841977452 0.955861174 5.47739381 255 79 163
0.296217769 0.56598399 5.08751663 255 79 163
0.548829836 0.309536446 4.83106908 255 79 163
0.8243046 0.13872557 4.66025821 255 79 163
1.0710179 0.0483670201 4.56989966 255 79 163
1.25456627 0.0121429082 4.53367555 255 79 163
1.4412605 0 4.52153264 255 79 163
1.4412605 -2.22044605e-16 33.5485477 255 79 163
-2.22044605e-16 1.4412605 33.5485477 255 79 163
0.0361354099 1.12054987 33.5485477 255 79 163
0.142729659 0.815921007 33.5485477 255 79 163
0.314437667 0.542649278 33.5485477 255 79 163
0.542649278 0.314437667 33.5485477 255 79 163
0.815921007 0.142729659 33.5485477 255 79 163
1.12054987 0.0361354099 33.5485477 255 79 163
0 54.6169916 33.5485477 255 79 163
69.5172765 54.6169916 33.5485477 255 79 163
69.5172765 56.0582521 32.1072872 255 79 163
69.5172765 56.0221167 32.4279978 255 79 163
69.5172765 55.9155225 32.7326267 255 79 163
69.5172765 55.7438145 33.0058984 255 79 163
69.5172765 55.5156029 33.23411 255 79 163
69.5172765 55.2423311 33.405818 255 79 163
69.5172765 54.9377023 33.5124123 255 79 163
0 56.0582521 32.1072872 255 79 163
0 54.9377023 33.5124123 255 79 163
0 55.2423311 33.405818 255 79 163
0 55.5156029 33.23411 255 79 163
0 55.7438145 33.0058984 255 79 163
0 55.9155225 32.7326267 255 79 163
0 56.0221167 32.4279978 255 79 163
-2.22044605e-16 1.4412605 5.96279314 255 79 163
-2.22044605e-16 35.6042763 5.96279314 255 79 163
0.00737726675 35.5887343 5.8171542 255 79 163
0.0294335441 35.5422674 5.67300619 255 79 163
0.0659430367 35.4653514 5.53182481 255 79 163
0.116531988 35.3587737 5.39505535 255 79 163
0.204970064 35.1724576 5.22197077 255 79 163
0.331243221 34.9064329 5.04350349 255 79 163
0.538749002 34.4692721 4.83909175 255 79 163
0.916053497 33.6743896 4.62063464 255 79 163
1.17402297 33.130915 4.54652483 255 79 163
1.4412605 32.5679149 4.52153264 255 79 163
1.4412605 0 4.52153264 255 79 163
0.0841977452 0.955861174 5.47739381 255 79 163
0.296217769 0.56598399 5.08751663 255 79 163
0.548829836 0.309536446 4.83106908 255 79 163
0.8243046 0.13872557 4.66025821 255 79 163
1.0710179 0.0483670201 4.56989966 255 79 163
1.25456627 0.0121429082 4.53367555 255 79 163
0 56.0582521 0 218 222 230
69.5172765 56.0582521 -2.22044605e-16 218 222 230
0 56.0582521 32.1072872 218 222 230
69.5172765 56.0582521 32.1072872 218 222 230
-2.22044605e-16 35.6042763 1.4412605 218 222 230
0 35.6042763 4.52153264 218 222 230
-2.22044605e-16 35.6042763 5.96279314 218 222 230
0.00737726675 35.5887343 5.8171542 218 222 230
0.0294335441 35.5422674 5.67300619 218 222 230
0.0659430367 35.4653514 5.53182481 218 222 230
0.116531988 35.3587737 5.39505535 218 222 230
0.204970064 35.1724576 5.22197077 218 222 230
0.331243221 34.9064329 5.04350349 218 222 230
0.538749002 34.4692721 4.83909175 218 222 230
0.916053497 33.6743896 4.62063464 218 222 230
1.17402297 33.130915 4.54652483 218 222 230
1.4412605 32.5679149 4.52153264 218 222 230
16.9001748 0 4.52153264 218 222 230
16.9001748 -2.22044605e-16 1.4412605 218 222 230
0 38.9653359 -2.22044605e-16 218 222 230
0 56.0582521 0 218 222 230
17.8114401 1.4412605 -2.22044605e-16 218 222 230
69.5172765 1.4412605 -2.22044605e-16 218 222 230
69.5172765 56.0582521 -2.22044605e-16 218 222 230
36.1393754 29.872019 0 218 222 230
43.2385631 40.635584 0 218 222 230
46.7684329 41.5435854 -3.88578059e-16 218 222 230
46.7144971 41.6020225 -3.87207747e-16 218 222 230
46.6506423 41.6491353 -3.81298437e-16 218 222 230
46.5562867 41.6977433 -3.72705779e-16 218 222 230
46.4052977 41.7478019 -3.60987681e-16 218 222 230
46.1701776 41.7885514 -3.42533895e-16 218 222 230
45.7487096 41.7977662 -3.05616179e-16 218 222 230
45.278171 41.7445669 -2.58860168e-16 218 222 230
44.6913708 41.60056 -1.93750138e-16 218 222 230
44.1316311 41.3734954 -1.24615262e-16 218 222 230
43.6223732 41.0496028 -4.86063363e-17 218 222 230
43.4145829 40.8572483 -1.58952475e-17 218 222 230
58.1755316 25.9451638 -2.22044605e-16 218 222 230
37.3078399 26.1961705 -2.22044605e-16 218 222 230
37.1639722 26.2146478 -2.16078941e-16 218 222 230
37.0273942 26.2633166 -2.07318134e-16 218 222 230
36.9013475 26.3356021 -1.99503523e-16 218 222 230
36.7511867 26.4576099 -1.8947768e-16 218 222 230
36.5591913 26.6756307 -1.74446791e-16 218 222 230
36.3301521 27.0460582 -1.51900459e-16 218 222 230
36.084791 27.6514459 -1.1808096e-16 218 222 230
35.9261655 28.3690931 -8.0034023e-17 218 222 230
35.9045473 29.1031877 -4.19510494e-17 218 222 230
35.9655233 29.4656056 -2.13724009e-17 218 222 230
36.0359753 29.6760324 -7.87751578e-18 218 222 230
16.4189113 24.7578766 0 218 222 230
15.1168852 24.1398477 -2.22044605e-16 218 222 230
8.38324304 38.3258817 -2.22044605e-16 218 222 230
9.68526922 38.9439106 0 218 222 230
20.8634211 44.2498104 0 218 222 230
22.1654473 44.8678392 -2.22044605e-16 218 222 230
28.8990894 30.6818052 -2.22044605e-16 218 222 230
27.5970633 30.0637764 0 218 222 230
0 38.9653359 -2.22044605e-16 255 79 163
17.8114401 1.4412605 -2.22044605e-16 255 79 163
16.9001748 -2.22044605e-16 1.4412605 255 79 163
16.917435 0.0272986825 1.16207632 255 79 163
16.9685615 0.10816061 0.893468103 255 79 163
17.0516177 0.239522598 0.645611181 255 79 163
17.1634572 0.416408433 0.427894789 255 79 163
17.2998435 0.632117383 0.24856639 255 79 163
17.4556098 0.878478031 0.114419244 255 79 163
17.6248556 1.14615782 0.0305350705 255 79 163
17.7176498 1.29292138 0.00765409188 255 79 163
-2.22044605e-16 35.6042763 1.4412605 255 79 163
0 37.5823234 0.127669306 255 79 163
0 36.5408366 0.443085233 255 79 163
0 36.0396229 0.731849785 255 79 163
0 35.8030118 0.953012484 255 79 163
0 35.6744796 1.14822619 255 79 163
0 35.6218732 1.29397222 255 79 163
16.9001748 -2.22044605e-16 1.4412605 218 222 230
16.9001748 0 4.52153264 218 222 230
1.4412605 0 4.52153264 218 222 230
1.4412605 -2.22044605e-16 33.5485477 218 222 230
69.5172765 0 33.5485477 218 222 230
69.8379871 0 33.5124123 218 222 230
70.142616 0 33.405818 218 222 230
70.4158877 0 33.23411 218 222 230
70.6440993 0 33.0058984 218 222 230
70.8158073 0 32.7326267 218 222 230
70.9224016 0 32.4279978 218 222 230
70.958537 0 32.1072872 218 222 230
70.958537 0 1.4412605 218 222 230
43.6791403 0 2.98898502 218 222 230
43.6791403 0 1.98898502 218 222 230
43.6936694 0 1.86932719 218 222 230
43.7364123 0 1.75662343 218 222 230
43.8048849 0 1.65742369 218 222 230
43.8951079 0 1.57749309 218 222 230
44.0018379 0 1.5214769 218 222 230
44.118872 0 1.49263058 218 222 230
44.2394087 0 1.49263058 218 222 230
44.3564428 0 1.5214769 218 222 230
44.4631727 0 1.57749309 218 222 230
44.5533957 0 1.65742369 218 222 230
44.6218683 0 1.75662343 218 222 230
44.6646112 0 1.86932719 218 222 230
44.6791403 0 1.98898502 218 222 230
44.6791403 0 2.98898502 218 222 230
44.6646112 0 3.10864285 218 222 230
44.6218683 0 3.22134661 218 222 230
44.5533957 0 3.32054635 218 222 230
44.4631727 0 3.40047695 218 222 230
44.3564428 0 3.45649314 218 222 230
44.2394087 0 3.48533946 218 222 230
44.118872 0 3.48533946 218 222 230
44.0018379 0 3.45649314 218 222 230
43.8951079 0 3.40047695 218 222 230
43.8048849 0 3.32054635 218 222 230
43.7364123 0 3.22134661 218 222 230
43.6936694 0 3.10864285 218 222 230
69.5172765 0 33.5485477 255 79 163
69.8379871 0 33.5124123 255 79 163
70.142616 0 33.405818 255 79 163
70.4158877 0 33.23411 255 79 163
70.6440993 0 33.0058984 255 79 163
70.8158073 0 32.7326267 255 79 163
70.9224016 0 32.4279978 255 79 163
70.958537 0 32.1072872 255 79 163
70.958537 54.6169916 32.1072872 255 79 163
70.9224016 54.6169916 32.4279978 255 79 163
70.8158073 54.6169916 32.7326267 255 79 163
70.6440993 54.6169916 33.0058984 255 79 163
70.4158877 54.6169916 33.23411 255 79 163
70.142616 54.6169916 33.405818 255 79 163
69.8379871 54.6169916 33.5124123 255 79 163
69.5172765 54.6169916 33.5485477 255 79 163
69.5172765 56.0582521 32.1072872 255 79 163
69.8379871 56.0221167 32.1072872 255 79 163
70.142616 55.9155225 32.1072872 255 79 163
70.4158877 55.7438145 32.1072872 255 79 163
70.6440993 55.5156029 32.1072872 255 79 163
70.8158073 55.2423311 32.1072872 255 79 163
70.9224016 54.9377023 32.1072872 255 79 163
70.958537 54.6169916 32.1072872 255 79 163
69.5172765 56.0582521 32.1072872 255 79 163
69.5172765 56.0221167 32.4279978 255 79 163
69.5172765 55.9155225 32.7326267 255 79 163
69.5172765 55.7438145 33.0058984 255 79 163
69.5172765 55.5156029 33.23411 255 79 163
69.5172765 55.2423311 33.405818 255 79 163
69.5172765 54.9377023 33.5124123 255 79 163
69.5172765 54.6169916 33.5485477 255 79 163
70.9224016 54.6169916 32.4279978 255 79 163
70.8158073 54.6169916 32.7326267 255 79 163
70.6440993 54.6169916 33.0058984 255 79 163
70.4158877 54.6169916 33.23411 255 79 163
70.142616 54.6169916 33.405818 255 79 163
69.8379871 54.6169916 33.5124123 255 79 163
69.9571672 55.9877118 32.176959 255 79 163
69.9141076 55.9877118 32.3094828 255 79 163
69.8322034 55.9877118 32.4222142 255 79 163
70.3229656 55.7829959 32.3690715 255 79 163
69.719472 55.9877118 32.5041183 255 79 163
70.2026366 55.7829959 32.6052304 255 79 163
70.6689253 55.4641433 32.2896904 255 79 163
69.5869483 55.9877118 32.5471779 255 79 163
70.0152197 55.7829959 32.7926473 255 79 163
70.5561938 55.4641433 32.636642 255 79 163
69.7790607 55.7829959 32.9129763 255 79 163
70.341766 55.4641433 32.9317767 255 79 163
70.8209088 55.0623656 32.530863 255 79 163
70.0466313 55.4641433 33.1462046 255 79 163
70.6262124 55.0623656 32.9129763 255 79 163
69.6996797 55.4641433 33.258936 255 79 163
70.3229656 55.0623656 33.2162231 255 79 163
69.9408523 55.0623656 33.4109196 255 79 163
16.9001748 0 4.52153264 218 222 230
1.4412605 0 4.52153264 218 222 230
1.4412605 32.5679149 4.52153264 218 222 230
69.5172765 56.0582521 -2.22044605e-16 255 79 163
69.5172765 56.0582521 32.1072872 255 79 163
69.8379871 56.0221167 32.1072872 255 79 163
70.142616 55.9155225 32.1072872 255 79 163
70.4158877 55.7438145 32.1072872 255 79 163
70.6440993 55.5156029 32.1072872 255 79 163
70.8158073 55.2423311 32.1072872 255 79 163
70.9224016 54.9377023 32.1072872 255 79 163
70.958537 54.6169916 32.1072872 255 79 163
70.958537 54.6169916 1.4412605 255 79 163
69.7728981 56.0354025 0.0228496271 255 79 163
70.0204145 55.9675781 0.0906739962 255 79 163
70.2519776 55.8569296 0.201322543 255 79 163
70.4602448 55.7069653 0.351286842 255 79 163
70.6386125 55.5224403 0.535811849 255 79 163
70.7814251 55.3092055 0.749046675 255 79 163
70.9135571 54.9742481 1.08400409 255 79 163
16.9001748 -2.22044605e-16 1.4412605 255 79 163
16.917435 0.0272986825 1.16207632 255 79 163
16.9685615 0.10816061 0.893468103 255 79 163
17.0516177 0.239522598 0.645611181 255 79 163
17.1634572 0.416408433 0.427894789 255 79 163
17.2998435 0.632117383 0.24856639 255 79 163
17.4556098 0.878478031 0.114419244 255 79 163
17.6248556 1.14615782 0.0305350705 255 79 163
17.7176498 1.29292138 0.00765409188 255 79 163
17.8114401 1.4412605 -2.22044605e-16 255 79 163
69.5172765 1.4412605 -2.22044605e-16 255 79 163
70.0026758 0.955861174 0.0841977452 255 79 163
70.392553 0.56598399 0.296217769 255 79 163
70.6490005 0.309536446 0.548829836 255 79 163
70.8198114 0.13872557 0.8243046 255 79 163
70.9101699 0.0483670201 1.0710179 255 79 163
70.9463941 0.0121429082 1.25456627 255 79 163
70.958537 0 1.4412605 255 79 163
69.5172765 1.4412605 -2.22044605e-16 255 79 163
69.5172765 56.0582521 -2.22044605e-16 255 79 163
69.7728981 56.0354025 0.0228496271 255 79 163
70.0204145 55.9675781 0.0906739962 255 79 163
70.2519776 55.8569296 0.201322543 255 79 163
70.4602448 55.7069653 0.351286842 255 79 163
70.6386125 55.5224403 0.535811849 255 79 163
70.7814251 55.3092055 0.749046675 255 79 163
70.9135571 54.9742481 1.08400409 255 79 163
70.958537 54.6169916 1.4412605 255 79 163
70.958537 0 1.4412605 255 79 163
70.0026758 0.955861174 0.0841977452 255 79 163
70.392553 0.56598399 0.296217769 255 79 163
70.6490005 0.309536446 0.548829836 255 79 163
70.8198114 0.13872557 0.8243046 255 79 163
70.9101699 0.0483670201 1.0710179 255 79 163
70.9463941 0.0121429082 1.25456627 255 79 163
36.1393754 29.872019 0 218 222 230
43.2385631 40.635584 0 218 222 230
36.1393754 29.872019 23.384071 218 222 230
43.2385631 40.635584 23.384071 218 222 230
36.1393754 29.872019 0 255 79 163
36.1393754 29.872019 0 255 79 163
37.3078399 26.1961705 -2.22044605e-16 255 79 163
37.1639722 26.2146478 -2.16078941e-16 255 79 163
37.0273942 26.2633166 -2.07318134e-16 255 79 163
36.9013475 26.3356021 -1.99503523e-16 255 79 163
36.7511867 26.4576099 -1.8947768e-16 255 79 163
36.5591913 26.6756307 -1.74446791e-16 255 79 163
36.3301521 27.0460582 -1.51900459e-16 255 79 163
36.084791 27.6514459 -1.1808096e-16 255 79 163
35.9261655 28.3690931 -8.0034023e-17 255 79 163
35.9045473 29.1031877 -4.19510494e-17 255 79 163
35.9655233 29.4656056 -2.13724009e-17 255 79 163
36.0359753 29.6760324 -7.87751578e-18 255 79 163
37.3118863 26.5325698 0.0398145376 255 79 163
37.3157091 26.8503833 0.157058135 255 79 163
37.3190971 27.1320517 0.345253521 255 79 163
37.3218632 27.3620132 0.594002636 255 79 163
37.3238545 27.5275625 0.889562345 255 79 163
37.3248416 27.6096192 1.16000413 255 79 163
37.3251748 27.6373267 1.4412605 255 79 163
36.9892504 27.6811857 1.28272325 255 79 163
36.6728439 27.8022465 1.124186 255 79 163
36.3934368 27.9938206 0.965648742 255 79 163
36.1664669 28.2453232 0.807111488 255 79 163
36.0372309 28.4673536 0.687006446 255 79 163
35.95013 28.7063134 0.568103506 255 79 163
35.9063898 28.9568631 0.449200566 255 79 163
35.9073728 29.2112003 0.330297625 255 79 163
35.9530483 29.4614044 0.211394685 255 79 163
36.0300543 29.6740436 0.105697342 255 79 163
36.839748 26.6829969 0.0371644271 255 79 163
36.858965 26.9548683 0.135923518 255 79 163
36.8783747 27.1964738 0.285133043 255 79 163
36.4881754 27.0346394 0.0352506652 255 79 163
36.8973039 27.3972638 0.478994297 255 79 163
36.5055429 27.2540005 0.123262067 255 79 163
36.9149477 27.5502329 0.712599583 255 79 163
36.5256795 27.4492508 0.250522237 255 79 163
36.9307016 27.6505147 0.978327371 255 79 163
36.5466291 27.6112904 0.413123372 255 79 163
36.5653273 27.7335025 0.609984592 255 79 163
36.5798859 27.8124105 0.837247654 255 79 163
36.0680606 28.3857125 0.557461815 255 79 163
36.0667242 28.3431504 0.406221702 255 79 163
35.9044247 29.142018 0.279082551 255 79 163
35.9046957 29.122487 0.203328197 255 79 163
36.1741384 27.5788367 0.0296804355 255 79 163
36.1762595 27.6604975 0.0612782867 255 79 163
36.051219 28.1734192 0.17028015 255 79 163
36.0452985 28.0552332 0.0857780155 255 79 163
36.0648666 27.8631737 0.0261084247 255 79 163
36.0453334 27.9237958 0.0253113459 255 79 163
35.9712379 28.2511923 0.0446739133 255 79 163
35.8993472 28.7310015 0.0307485259 255 79 163
35.8946779 28.977764 0.0410873558 255 79 163
35.893777 28.9120691 0.0117502217 255 79 163
35.9003627 28.690375 0.0147800537 255 79 163
35.8979216 29.0373648 0.0835074123 255 79 163
35.8976646 29.0343019 0.0101136457 255 79 163
35.8970119 29.0040496 0.00272742161 255 79 163
35.9150432 29.2291574 0.0167282809 255 79 163
35.9131216 29.2055652 0.00789380981 255 79 163
35.9171894 29.2519662 0.0282177122 255 79 163
35.9020491 29.0869053 0.137707791 255 79 163
36.0015195 29.6033983 0.0380127001 255 79 163
36.0350785 29.6849738 0.0269064663 255 79 163
36.0250144 27.9302681 0.00671379865 255 79 163
35.9730004 28.1940895 0.0216575326 255 79 163
36.2819675 27.9221926 0.387106305 255 79 163
36.0601431 28.2714769 0.276779225 255 79 163
35.9474424 28.2772106 0.0054358361 255 79 163
35.9463372 28.304511 0.0116452657 255 79 163
35.9115818 28.5342235 0.00446556508 255 79 163
35.901704 28.6484759 0.00403530481 255 79 163
35.9122315 28.5108063 0.00117263361 255 79 163
35.9107056 28.5572179 0.0095890924 255 79 163
35.8938947 28.8720022 0.000820487873 255 79 163
35.9652761 28.5661185 0.252967754 255 79 163
35.9085474 29.1557234 0.00219792682 255 79 163
35.9001988 29.0527326 0.000651339925 255 79 163
35.936612 29.3508541 0.00615063493 255 79 163
35.9353553 29.3413539 0.00356909664 255 79 163
35.9837542 29.5418508 0.0120957386 255 79 163
36.0167563 29.6352623 0.00926235799 255 79 163
36.0355886 29.6810706 0.00785311983 255 79 163
35.936065 28.3354531 0.00298036779 255 79 163
35.9186401 28.4528563 0.00122994674 255 79 163
35.9183279 28.4651078 0.00269852415 255 79 163
35.901861 28.6221043 0.000269635641 255 79 163
35.9065002 29.1298219 0.000582019343 255 79 163
35.9022179 29.0777407 0.000158755093 255 79 163
35.9168638 29.219643 0.000505000493 255 79 163
35.9341513 29.3317045 0.00163967942 255 79 163
35.9483382 29.3977424 0.000371454221 255 79 163
35.9489476 29.4020159 0.000820504823 255 79 163
35.9495822 29.406249 0.00143280049 255 79 163
35.9742778 29.505388 0.00350754884 255 79 163
35.9896449 29.5555485 0.00315040556 255 79 163
36.0253808 29.6541808 0.00246613412 255 79 163
35.9222957 28.4176228 0.00071713993 255 79 163
35.8999523 29.0447515 4.18248458e-05 255 79 163
35.9055165 29.1166016 0.000149893774 255 79 163
35.9568169 29.4334514 0.000197304666 255 79 163
35.957118 29.4354383 0.000347340864 255 79 163
35.9697128 29.4859291 0.000951560441 255 79 163
35.9770719 29.5118869 0.00090613008 255 79 163
36.0107587 29.6143986 0.000737195127 255 79 163
36.0303142 29.6646763 0.00065246295 255 79 163
35.8954223 28.9532896 4.72878468e-05 255 79 163
35.8966929 28.9867246 0.000180064309 255 79 163
35.9675554 29.4758827 0.000248289272 255 79 163
35.9711517 29.4890857 0.000242527716 255 79 163
35.9865859 29.5415989 0.000220711172 255 79 163
36.022797 29.6448666 0.000179687851 255 79 163
35.8980858 28.6754207 4.05540893e-06 255 79 163
35.8945287 28.9219734 2.77112079e-05 255 79 163
35.8999499 28.6616012 0.0010881924 255 79 163
35.8937026 28.8289465 7.75344733e-06 255 79 163
35.8940371 28.7988021 1.42433732e-05 255 79 163
35.8941502 28.8043615 0.000224241098 255 79 163
35.8937899 28.8506191 0.000254376919 255 79 163
35.8938988 28.880575 0.000218555932 255 79 163
35.8939053 28.8893315 8.04190637e-07 255 79 163
35.8937257 28.8617191 5.28820162e-05 255 79 163
35.8941798 28.9056744 9.6391444e-06 255 79 163
35.8948832 28.9358755 4.7407575e-06 255 79 163
35.8976808 28.6821472 6.30477873e-08 255 79 163
35.8943082 28.9126147 2.39263138e-06 255 79 163
35.8950882 28.9428455 4.23485195e-07 255 79 163
35.8958974 28.9660984 1.64312659e-06 255 79 163
35.8965609 28.982323 1.14175341e-05 255 79 163
35.8986342 29.0247576 0.000176437608 255 79 163
35.8988262 28.6717558 0.000277507994 255 79 163
35.8954465 28.743489 6.21308839e-05 255 79 163
35.8936227 28.8392603 1.19994251e-07 255 79 163
35.8939476 28.8927977 1.25218023e-08 255 79 163
35.8960367 28.9695963 2.84151559e-07 255 79 163
35.8972296 28.9963396 1.75543392e-07 255 79 163
35.8979136 29.0106049 4.80408915e-05 255 79 163
35.894152 28.8298951 0.00378891389 255 79 163
35.8947497 28.9312097 1.07469368e-07 255 79 163
35.8951424 28.94459 7.3383171e-08 255 79 163
35.8954706 28.9544752 9.38519249e-07 255 79 163
35.8955322 28.9562217 3.49824338e-07 255 79 163
35.8973187 28.9980951 2.73726331e-09 255 79 163
43.2385631 40.635584 0 255 79 163
43.2385631 40.635584 0 255 79 163
46.7684329 41.5435854 -3.88578059e-16 255 79 163
46.7144971 41.6020225 -3.87207747e-16 255 79 163
46.6506423 41.6491353 -3.81298437e-16 255 79 163
46.5562867 41.6977433 -3.72705779e-16 255 79 163
46.4052977 41.7478019 -3.60987681e-16 255 79 163
46.1701776 41.7885514 -3.42533895e-16 255 79 163
45.7487096 41.7977662 -3.05616179e-16 255 79 163
45.278171 41.7445669 -2.58860168e-16 255 79 163
44.6913708 41.60056 -1.93750138e-16 255 79 163
44.1316311 41.3734954 -1.24615262e-16 255 79 163
43.6223732 41.0496028 -4.86063363e-17 255 79 163
43.4145829 40.8572483 -1.58952475e-17 255 79 163
46.4968759 41.3449963 0.0398145376 255 79 163
46.2403222 41.157379 0.157058135 255 79 163
46.0129465 40.9910995 0.345253521 255 79 163
45.8273109 40.8553446 0.594002636 255 79 163
45.6936719 40.7576146 0.889562345 255 79 163
45.627432 40.7091735 1.16000413 255 79 163
45.6050652 40.6928167 1.4412605 255 79 163
45.3743352 40.940874 1.26505821 255 79 163
45.0920763 41.1282202 1.08885591 255 79 163
44.7738834 41.2445044 0.912653618 255 79 163
44.437337 41.2833018 0.736451322 255 79 163
44.2069329 41.2640597 0.61634628 255 79 163
43.9606249 41.2006505 0.484194559 255 79 163
43.7292985 41.0949323 0.352042838 255 79 163
43.5201572 40.9501974 0.219891116 255 79 163
43.3677766 40.8032584 0.109945558 255 79 163
46.119393 41.5877319 0.0371644271 255 79 163
45.9124286 41.4214253 0.135923518 255 79 163
45.7296426 41.2711768 0.285133043 255 79 163
45.6708908 41.6597261 0.0352506652 255 79 163
45.5791999 41.1439401 0.478994297 255 79 163
45.5051134 41.5263203 0.123262067 255 79 163
45.4665772 41.0453067 0.712599583 255 79 163
45.3600165 41.4032921 0.250522237 255 79 163
45.3953514 40.9788755 0.978327371 255 79 163
45.2418981 41.2976434 0.413123372 255 79 163
45.1546472 41.2164529 0.609984592 255 79 163
45.1000222 41.1634028 0.837247654 255 79 163
44.7655243 41.5754399 0.0253113459 255 79 163
44.4992613 41.366152 0.276779225 255 79 163
44.4471571 41.320131 0.406221702 255 79 163
44.41665 41.2946493 0.557461815 255 79 163
43.7832559 41.1376544 0.137555541 255 79 163
43.7581762 41.1153216 0.202841183 255 79 163
43.7450286 41.1043673 0.278761019 255 79 163
44.8934412 41.5710146 0.0574435367 255 79 163
44.5718956 41.4289826 0.17028015 255 79 163
44.6621223 41.5008051 0.0857780155 255 79 163
44.2439589 41.4074527 0.0173241567 255 79 163
43.8190903 41.1691267 0.0838920247 255 79 163
43.8634025 41.2058059 0.0417351836 255 79 163
43.9895134 41.2866585 0.0132935398 255 79 163
43.913534 41.24437 0.0121292511 255 79 163
44.0187676 41.3079203 0.00363605856 255 79 163
43.748469 41.1404357 0.00970281941 255 79 163
43.7690499 41.1569732 0.00267202232 255 79 163
43.7286591 41.1242278 0.0200329665 255 79 163
43.6256612 41.0486089 0.0167561901 255 79 163
43.3773115 40.8167854 0.0321923677 255 79 163
44.459555 41.5034956 0.00551871671 255 79 163
44.1896817 41.3929163 0.00435580637 255 79 163
44.0585846 41.3288955 0.00380053339 255 79 163
43.9440869 41.2688247 0.000861581265 255 79 163
43.6958483 41.1059594 0.000629475897 255 79 163
43.3928226 40.8344489 0.0112117315 255 79 163
43.5219855 40.9629726 0.00383612136 255 79 163
43.6591266 41.0784795 0.000153067185 255 79 163
43.5705061 41.0060083 0.00114033389 255 79 163
43.403228 40.8457678 0.0035878002 255 79 163
43.4686787 40.9129149 0.000923047773 255 79 163
43.5960197 41.0277332 0.000309563165 255 79 163
43.5429913 40.9821762 0.000283033348 255 79 163
43.4088662 40.851636 0.00102964227 255 79 163
43.4417236 40.8858293 0.000225489816 255 79 163
43.609091 41.0386486 8.05758644e-05 255 79 163
43.5820642 41.0161131 7.72641272e-05 255 79 163
43.4777758 40.9216369 6.3435556e-05 255 79 163
43.4281759 40.8717317 5.55816502e-05 255 79 163
43.6157056 41.0441206 2.05503451e-05 255 79 163
43.602066 41.0329125 2.013553e-05 255 79 163
43.4459035 40.8899332 1.48263989e-05 255 79 163
43.5849974 41.0186481 4.92924815e-06 255 79 163
43.4963102 40.9393629 1.67248114e-05 255 79 163
43.480082 40.92381 4.06101419e-06 255 79 163
43.5317407 40.9721087 4.50742075e-06 255 79 163
43.5484128 40.9870098 1.84654392e-05 255 79 163
43.5139164 40.9558241 9.77826709e-06 255 79 163
43.5857334 41.0192823 3.09671105e-07 255 79 163
43.5145466 40.9563977 2.45852158e-06 255 79 163
43.4806603 40.9243524 2.55344498e-07 255 79 163
43.5676676 41.0038439 6.76580843e-07 255 79 163
43.5497778 40.988218 1.16663502e-06 255 79 163
43.5501196 40.98852 7.31123891e-08 255 79 163
43.5148619 40.9566845 6.16383812e-07 255 79 163
43.5859176 41.0194409 1.9379442e-08 255 79 163
43.5678451 41.0039987 1.69368843e-07 255 79 163
43.5412357 40.9806325 1.61934414e-07 255 79 163
43.5410681 40.9804834 6.46850226e-07 255 79 163
43.5320691 40.9724031 1.76560295e-06 255 79 163
43.5323976 40.9726975 2.83281843e-07 255 79 163
43.5150197 40.9568278 1.54315699e-07 255 79 163
43.480805 40.9244879 1.59830595e-08 255 79 163
58.1755316 25.9451638 -2.22044605e-16 255 79 163
37.3078399 26.1961705 -2.22044605e-16 255 79 163
37.3118863 26.5325698 0.0398145376 255 79 163
37.3157091 26.8503833 0.157058135 255 79 163
37.3190971 27.1320517 0.345253521 255 79 163
37.3218632 27.3620132 0.594002636 255 79 163
37.3238545 27.5275625 0.889562345 255 79 163
37.3248416 27.6096192 1.16000413 255 79 163
37.3251748 27.6373267 1.4412605 255 79 163
55.3107307 27.4209878 1.4412605 255 79 163
56.9967202 26.5524375 0.127669306 255 79 163
56.1090084 27.009749 0.443085233 255 79 163
55.6817987 27.2298293 0.731849785 255 79 163
55.480123 27.333724 0.953012484 255 79 163
55.3705686 27.3901619 1.14822619 255 79 163
55.3257294 27.4132611 1.29397222 255 79 163
58.1755316 25.9451638 -2.22044605e-16 255 79 163
56.9967202 26.5524375 0.127669306 255 79 163
56.1090084 27.009749 0.443085233 255 79 163
55.6817987 27.2298293 0.731849785 255 79 163
55.480123 27.333724 0.953012484 255 79 163
55.3705686 27.3901619 1.14822619 255 79 163
55.3257294 27.4132611 1.29397222 255 79 163
55.3107307 27.4209878 1.4412605 255 79 163
45.6050652 40.6928167 1.4412605 255 79 163
46.7684329 41.5435854 -3.88578059e-16 255 79 163
46.4968759 41.3449963 0.0398145376 255 79 163
46.2403222 41.157379 0.157058135 255 79 163
46.0129465 40.9910995 0.345253521 255 79 163
45.8273109 40.8553446 0.594002636 255 79 163
45.6936719 40.7576146 0.889562345 255 79 163
45.627432 40.7091735 1.16000413 255 79 163
27.5970633 30.0637764 1.4412605 218 222 230
27.5970633 30.0637764 4.66906517 218 222 230
16.4189113 24.7578766 4.66906517 218 222 230
16.4189113 24.7578766 1.4412605 218 222 230
15.1168852 24.1398477 -2.22044605e-16 218 222 230
15.4066132 24.2773721 0.0361354099 218 222 230
15.6818131 24.4080004 0.142729659 218 222 230
15.9286852 24.5251824 0.314437667 218 222 230
16.1348502 24.6230422 0.542649278 218 222 230
16.2899702 24.6966725 0.815921007 218 222 230
16.3862668 24.7423813 1.12054987 218 222 230
16.4189113 24.7578766 0 218 222 230
27.5970633 30.0637764 0 218 222 230
28.8990894 30.6818052 -2.22044605e-16 218 222 230
28.6093614 30.5442809 0.0361354099 218 222 230
28.3341615 30.4136526 0.142729659 218 222 230
28.0872894 30.2964705 0.314437667 218 222 230
27.8811244 30.1986108 0.542649278 218 222 230
27.7260044 30.1249805 0.815921007 218 222 230
27.6297078 30.0792716 1.12054987 218 222 230
15.1168852 24.1398477 -2.22044605e-16 255 79 163
8.38324304 38.3258817 -2.22044605e-16 255 79 163
8.67297112 38.4634061 0.0361354099 255 79 163
8.94817103 38.5940344 0.142729659 255 79 163
9.19504309 38.7112164 0.314437667 255 79 163
9.4012081 38.8090761 0.542649278 255 79 163
9.55632809 38.8827065 0.815921007 255 79 163
9.65262471 38.9284153 1.12054987 255 79 163
9.68526922 38.9439106 1.4412605 255 79 163
16.4189113 24.7578766 1.4412605 255 79 163
15.4066132 24.2773721 0.0361354099 255 79 163
15.6818131 24.4080004 0.142729659 255 79 163
15.9286852 24.5251824 0.314437667 255 79 163
16.1348502 24.6230422 0.542649278 255 79 163
16.2899702 24.6966725 0.815921007 255 79 163
16.3862668 24.7423813 1.12054987 255 79 163
9.68526922 38.9439106 1.4412605 218 222 230
9.68526922 38.9439106 4.66906517 218 222 230
20.8634211 44.2498104 4.66906517 218 222 230
20.8634211 44.2498104 1.4412605 218 222 230
22.1654473 44.8678392 -2.22044605e-16 218 222 230
21.8757192 44.7303148 0.0361354099 218 222 230
21.6005193 44.5996865 0.142729659 218 222 230
21.3536473 44.4825045 0.314437667 218 222 230
21.1474823 44.3846448 0.542649278 218 222 230
20.9923623 44.3110145 0.815921007 218 222 230
20.8960657 44.2653056 1.12054987 218 222 230
20.8634211 44.2498104 0 218 222 230
9.68526922 38.9439106 0 218 222 230
8.38324304 38.3258817 -2.22044605e-16 218 222 230
8.67297112 38.4634061 0.0361354099 218 222 230
8.94817103 38.5940344 0.142729659 218 222 230
9.19504309 38.7112164 0.314437667 218 222 230
9.4012081 38.8090761 0.542649278 218 222 230
9.55632809 38.8827065 0.815921007 218 222 230
9.65262471 38.9284153 1.12054987 218 222 230
22.1654473 44.8678392 -2.22044605e-16 255 79 163
28.8990894 30.6818052 -2.22044605e-16 255 79 163
28.6093614 30.5442809 0.0361354099 255 79 163
28.3341615 30.4136526 0.142729659 255 79 163
28.0872894 30.2964705 0.314437667 255 79 163
27.8811244 30.1986108 0.542649278 255 79 163
27.7260044 30.1249805 0.815921007 255 79 163
27.6297078 30.0792716 1.12054987 255 79 163
27.5970633 30.0637764 1.4412605 255 79 163
20.8634211 44.2498104 1.4412605 255 79 163
21.8757192 44.7303148 0.0361354099 255 79 163
21.6005193 44.5996865 0.142729659 255 79 163
21.3536473 44.4825045 0.314437667 255 79 163
21.1474823 44.3846448 0.542649278 255 79 163
20.9923623 44.3110145 0.815921007 255 79 163
20.8960657 44.2653056 1.12054987 255 79 163
70.958537 0 1.4412605 218 222 230
70.958537 0 32.1072872 218 222 230
70.958537 54.6169916 1.4412605 218 222 230
70.958537 54.6169916 32.1072872 218 222 230
43.6791403 0 2.98898502 218 222 230
43.6791403 4.00358104 2.98898502 218 222 230
43.6791403 4.00358104 1.98898502 218 222 230
43.6791403 0 1.98898502 218 222 230
44.6791403 0 2.98898502 218 222 230
44.6791403 4.00358104 2.98898502 218 222 230
44.6646112 4.00358104 3.10864285 218 222 230
44.6218683 4.00358104 3.22134661 218 222 230
44.5533957 4.00358104 3.32054635 218 222 230
44.4631727 4.00358104 3.40047695 218 222 230
44.3564428 4.00358104 3.45649314 218 222 230
44.2394087 4.00358104 3.48533946 218 222 230
44.118872 4.00358104 3.48533946 218 222 230
44.0018379 4.00358104 3.45649314 218 222 230
43.8951079 4.00358104 3.40047695 218 222 230
43.8048849 4.00358104 3.32054635 218 222 230
43.7364123 4.00358104 3.22134661 218 222 230
43.6936694 4.00358104 3.10864285 218 222 230
43.6791403 4.00358104 2.98898502 218 222 230
43.6791403 0 2.98898502 218 222 230
44.6646112 0 3.10864285 218 222 230
44.6218683 0 3.22134661 218 222 230
44.5533957 0 3.32054635 218 222 230
44.4631727 0 3.40047695 218 222 230
44.3564428 0 3.45649314 218 222 230
44.2394087 0 3.48533946 218 222 230
44.118872 0 3.48533946 218 222 230
44.0018379 0 3.45649314 218 222 230
43.8951079 0 3.40047695 218 222 230
43.8048849 0 3.32054635 218 222 230
43.7364123 0 3.22134661 218 222 230
43.6936694 0 3.10864285 218 222 230
44.6791403 0 1.98898502 218 222 230
44.6791403 4.00358104 1.98898502 218 222 230
44.6791403 4.00358104 2.98898502 218 222 230
44.6791403 0 2.98898502 218 222 230
43.6791403 0 1.98898502 218 222 230
43.6791403 4.00358104 1.98898502 218 222 230
43.6936694 4.00358104 1.86932719 218 222 230
43.7364123 4.00358104 1.75662343 218 222 230
43.8048849 4.00358104 1.65742369 218 222 230
43.8951079 4.00358104 1.57749309 218 222 230
44.0018379 4.00358104 1.5214769 218 222 230
44.118872 4.00358104 1.49263058 218 222 230
44.2394087 4.00358104 1.49263058 218 222 230
44.3564428 4.00358104 1.5214769 218 222 230
44.4631727 4.00358104 1.57749309 218 222 230
44.5533957 4.00358104 1.65742369 218 222 230
44.6218683 4.00358104 1.75662343 218 222 230
44.6646112 4.00358104 1.86932719 218 222 230
44.6791403 4.00358104 1.98898502 218 222 230
44.6791403 0 1.98898502 218 222 230
43.6936694 0 1.86932719 218 222 230
43.7364123 0 1.75662343 218 222 230
43.8048849 0 1.65742369 218 222 230
43.8951079 0 1.57749309 218 222 230
44.0018379 0 1.5214769 218 222 230
44.118872 0 1.49263058 218 222 230
44.2394087 0 1.49263058 218 222 230
44.3564428 0 1.5214769 218 222 230
44.4631727 0 1.57749309 218 222 230
44.5533957 0 1.65742369 218 222 230
44.6218683 0 1.75662343 218 222 230
44.6646112 0 1.86932719 218 222 230
36.1393754 29.872019 23.384071 255 79 163
35.9424084 29.4204597 23.8694703 255 79 163
35.9047379 28.9782634 24.2593475 255 79 163
35.9744171 28.6251019 24.515795 255 79 163
36.1103319 28.3308403 24.6866059 255 79 163
36.266533 28.1195743 24.7769645 255 79 163
36.3998109 27.9882762 24.8131886 255 79 163
36.5489737 27.8753486 24.8253315 255 79 163
36.1393754 29.872019 0 255 79 163
37.3251748 27.6373267 1.4412605 255 79 163
36.9892504 27.6811857 1.28272325 255 79 163
36.6728439 27.8022465 1.124186 255 79 163
36.3934368 27.9938206 0.965648742 255 79 163
36.1664669 28.2453232 0.807111488 255 79 163
36.0372309 28.4673536 0.687006446 255 79 163
35.95013 28.7063134 0.568103506 255 79 163
35.9063898 28.9568631 0.449200566 255 79 163
35.9073728 29.2112003 0.330297625 255 79 163
35.9530483 29.4614044 0.211394685 255 79 163
36.0300543 29.6740436 0.105697342 255 79 163
37.3251748 27.6373267 24.8253315 255 79 163
36.7909367 27.7469429 24.8253315 255 79 163
37.0528237 27.6666353 24.8253315 255 79 163
45.2352336 41.0451823 24.8253315 255 79 163
45.3722029 40.9426803 24.8253315 255 79 163
45.4960618 40.8246708 24.8253315 255 79 163
45.6050652 40.6928167 24.8253315 255 79 163
45.6050652 40.6928167 1.4412605 255 79 163
45.3743352 40.940874 1.26505821 255 79 163
45.0920763 41.1282202 1.08885591 255 79 163
44.7738834 41.2445044 0.912653618 255 79 163
44.437337 41.2833018 0.736451322 255 79 163
44.2069329 41.2640597 0.61634628 255 79 163
43.9606249 41.2006505 0.484194559 255 79 163
43.7292985 41.0949323 0.352042838 255 79 163
43.5201572 40.9501974 0.219891116 255 79 163
43.3677766 40.8032584 0.109945558 255 79 163
43.2385631 40.635584 0 255 79 163
43.2385631 40.635584 23.384071 255 79 163
43.5761031 40.9944273 23.8694703 255 79 163
43.9677535 41.2031537 24.2593475 255 79 163
44.3198249 41.2781464 24.515795 255 79 163
44.6438314 41.2690636 24.6866059 255 79 163
44.8995326 41.2086564 24.7769645 255 79 163
45.0726994 41.1378366 24.8131886 255 79 163
36.1393754 29.872019 23.384071 255 79 163
35.9424084 29.4204597 23.8694703 255 79 163
35.9047379 28.9782634 24.2593475 255 79 163
35.9744171 28.6251019 24.515795 255 79 163
36.1103319 28.3308403 24.6866059 255 79 163
36.266533 28.1195743 24.7769645 255 79 163
36.3998109 27.9882762 24.8131886 255 79 163
36.5489737 27.8753486 24.8253315 255 79 163
45.2352336 41.0451823 24.8253315 255 79 163
43.2385631 40.635584 23.384071 255 79 163
43.5761031 40.9944273 23.8694703 255 79 163
43.9677535 41.2031537 24.2593475 255 79 163
44.3198249 41.2781464 24.515795 255 79 163
44.6438314 41.2690636 24.6866059 255 79 163
44.8995326 41.2086564 24.7769645 255 79 163
45.0726994 41.1378366 24.8131886 255 79 163
55.3107307 27.4209878 1.4412605 218 222 230
55.3107307 27.4209878 24.8253315 218 222 230
37.3251748 27.6373267 24.8253315 218 222 230
37.3251748 27.6373267 1.4412605 218 222 230
55.3107307 27.4209878 1.4412605 218 222 230
55.3107307 27.4209878 24.8253315 218 222 230
45.6050652 40.6928167 1.4412605 218 222 230
45.6050652 40.6928167 24.8253315 218 222 230
20.8634211 44.2498104 1.4412605 218 222 230
20.8634211 44.2498104 4.66906517 218 222 230
27.5970633 30.0637764 4.66906517 218 222 230
27.5970633 30.0637764 1.4412605 218 222 230
16.4189113 24.7578766 4.66906517 218 222 230
9.68526922 38.9439106 4.66906517 218 222 230
20.8634211 44.2498104 4.66906517 218 222 230
27.5970633 30.0637764 4.66906517 218 222 230
16.4189113 24.7578766 1.4412605 218 222 230
16.4189113 24.7578766 4.66906517 218 222 230
9.68526922 38.9439106 4.66906517 218 222 230
9.68526922 38.9439106 1.4412605 218 222 230
43.6791403 4.00358104 1.98898502 218 222 230
43.6936694 4.00358104 1.86932719 218 222 230
43.7364123 4.00358104 1.75662343 218 222 230
43.8048849 4.00358104 1.65742369 218 222 230
43.8951079 4.00358104 1.57749309 218 222 230
44.0018379 4.00358104 1.5214769 218 222 230
44.118872 4.00358104 1.49263058 218 222 230
44.2394087 4.00358104 1.49263058 218 222 230
44.3564428 4.00358104 1.5214769 218 222 230
44.4631727 4.00358104 1.57749309 218 222 230
44.5533957 4.00358104 1.65742369 218 222 230
44.6218683 4.00358104 1.75662343 218 222 230
44.6646112 4.00358104 1.86932719 218 222 230
44.6791403 4.00358104 1.98898502 218 222 230
44.6791403 4.00358104 2.98898502 218 222 230
44.6646112 4.00358104 3.10864285 218 222 230
44.6218683 4.00358104 3.22134661 218 222 230
44.5533957 4.00358104 3.32054635 218 222 230
44.4631727 4.00358104 3.40047695 218 222 230
44.3564428 4.00358104 3.45649314 218 222 230
44.2394087 4.00358104 3.48533946 218 222 230
44.118872 4.00358104 3.48533946 218 222 230
44.0018379 4.00358104 3.45649314 218 222 230
43.8951079 4.00358104 3.40047695 218 222 230
43.8048849 4.00358104 3.32054635 218 222 230
43.7364123 4.00358104 3.22134661 218 222 230
43.6936694 4.00358104 3.10864285 218 222 230
43.6791403 4.00358104 2.98898502 218 222 230
45.6050652 40.6928167 24.8253315 218 222 230
55.3107307 27.4209878 24.8253315 218 222 230
37.3251748 27.6373267 24.8253315 218 222 230
36.5489737 27.8753486 24.8253315 218 222 230
36.7909367 27.7469429 24.8253315 218 222 230
37.0528237 27.6666353 24.8253315 218 222 230
45.2352336 41.0451823 24.8253315 218 222 230
45.3722029 40.9426803 24.8253315 218 222 230
45.4960618 40.8246708 24.8253315 218 222 230
3 5 7 8
3 5 8 9
3 5 9 10
3 5 10 11
3 5 11 12
3 4 6 7
3 4 7 5
3 3 13 6
3 3 6 4
3 14 13 3
3 18 19 20
3 18 20 14
3 15 16 17
3 15 17 18
3 1 14 3
3 1 18 14
3 1 15 18
3 0 3 2
3 0 1 3
3 28 26 27
3 21 23 24
3 21 24 25
3 21 25 26
3 21 28 29
3 21 26 28
3 22 21 29
3 31 29 30
3 31 22 29
3 42 32 33
3 42 41 32
3 43 33 34
3 43 42 33
3 44 34 35
3 44 43 34
3 45 44 35
3 46 35 36
3 46 36 37
3 46 45 35
3 47 37 38
3 47 46 37
3 40 38 39
3 40 47 38
3 51 50 57
3 51 57 63
3 52 63 62
3 52 51 63
3 53 62 61
3 53 52 62
3 54 61 60
3 54 53 61
3 55 60 59
3 55 54 60
3 56 59 58
3 56 55 59
3 49 58 48
3 49 56 58
3 75 76 82
3 74 82 81
3 74 75 82
3 73 81 80
3 73 74 81
3 72 80 79
3 72 73 80
3 71 79 78
3 71 72 79
3 70 78 77
3 70 71 78
3 69 70 77
3 68 69 77
3 67 77 64
3 67 68 77
3 66 67 64
3 65 66 64
3 86 84 83
3 86 83 85
3 88 90 89
3 88 91 90
3 88 92 91
3 88 93 92
3 88 94 93
3 95 94 88
3 96 95 88
3 87 97 96
3 87 98 97
3 87 96 88
3 99 98 87
3 101 100 99
3 101 99 87
3 135 104 102
3 134 104 135
3 136 135 102
3 137 136 102
3 103 137 102
3 126 134 141
3 127 126 141
3 125 134 126
3 125 104 134
3 124 104 125
3 128 141 140
3 128 127 141
3 123 104 124
3 122 104 123
3 129 128 140
3 130 129 140
3 131 130 140
3 138 137 103
3 132 131 140
3 133 132 140
3 107 133 140
3 139 138 103
3 105 104 122
3 108 140 139
3 108 107 140
3 121 105 122
3 120 108 139
3 119 120 139
3 118 119 139
3 117 118 139
3 116 117 139
3 106 116 139
3 106 109 110
3 106 110 111
3 106 111 112
3 106 112 113
3 106 113 114
3 106 114 115
3 106 115 116
3 106 121 109
3 106 105 121
3 106 139 103
3 144 153 159
3 145 158 157
3 145 159 158
3 145 144 159
3 146 157 156
3 146 145 157
3 147 156 155
3 147 146 156
3 148 147 155
3 149 155 154
3 149 148 155
3 150 149 154
3 151 154 142
3 151 150 154
3 152 151 142
3 143 152 142
3 163 162 161
3 178 177 160
3 176 160 177
3 179 178 160
3 175 160 176
3 180 179 160
3 174 160 175
3 173 161 160
3 173 160 174
3 200 161 173
3 199 161 200
3 198 161 199
3 197 161 198
3 196 163 161
3 196 161 197
3 172 182 181
3 172 183 182
3 172 184 183
3 172 185 184
3 172 186 185
3 172 187 186
3 172 188 187
3 172 189 188
3 172 190 189
3 172 191 190
3 164 193 192
3 164 194 193
3 164 195 194
3 164 196 195
3 164 163 196
3 171 192 191
3 171 164 192
3 171 191 172
3 166 165 164
3 166 171 170
3 166 164 171
3 167 169 168
3 167 170 169
3 167 166 170
3 172 181 160
3 181 180 160
3 216 201 202
3 215 202 203
3 215 216 202
3 214 203 204
3 214 215 203
3 213 204 205
3 213 214 204
3 212 205 206
3 212 213 205
3 211 206 207
3 211 212 206
3 210 207 208
3 210 211 207
3 209 210 208
3 233 224 223
3 232 238 231
3 239 219 218
3 240 218 217
3 240 239 218
3 241 217 225
3 241 240 217
3 242 220 219
3 242 219 239
3 242 239 240
3 243 225 226
3 243 241 225
3 244 240 241
3 244 242 240
3 245 221 220
3 245 222 221
3 245 220 242
3 246 226 227
3 246 243 226
3 247 244 241
3 247 241 243
3 248 242 244
3 248 245 242
3 249 227 228
3 249 243 246
3 249 246 227
3 249 247 243
3 250 244 247
3 250 248 244
3 251 223 222
3 251 234 233
3 251 222 245
3 251 245 248
3 251 233 223
3 252 247 249
3 252 250 247
3 253 235 234
3 253 236 235
3 253 234 251
3 253 248 250
3 253 251 248
3 254 228 229
3 254 229 230
3 254 249 228
3 254 252 249
3 255 237 236
3 255 236 253
3 255 250 252
3 255 253 250
3 256 230 231
3 256 238 237
3 256 237 255
3 256 231 238
3 256 254 230
3 256 252 254
3 256 255 252
3 259 257 258
3 267 268 269
3 267 269 276
3 266 276 275
3 266 267 276
3 265 274 273
3 265 275 274
3 265 266 275
3 264 273 272
3 264 265 273
3 263 272 271
3 263 264 272
3 262 271 270
3 262 263 271
3 261 270 260
3 261 262 270
3 293 277 278
3 293 294 277
3 292 278 279
3 292 293 278
3 291 279 280
3 291 292 279
3 290 280 281
3 290 291 280
3 289 281 282
3 289 290 281
3 288 282 283
3 288 283 284
3 288 289 282
3 287 284 285
3 287 285 286
3 287 288 284
3 304 305 311
3 303 310 309
3 303 311 310
3 303 304 311
3 302 309 308
3 302 303 309
3 301 302 308
3 300 308 307
3 300 301 308
3 299 307 306
3 299 300 307
3 298 299 306
3 297 306 295
3 297 298 306
3 296 297 295
3 312 315 314
3 313 315 312
3 330 318 319
3 320 330 319
3 337 336 335
3 347 320 321
3 347 321 322
3 347 322 323
3 348 331 330
3 348 320 347
3 348 330 320
3 349 332 331
3 349 331 348
3 350 323 324
3 350 347 323
3 351 333 332
3 351 332 349
3 352 350 324
3 352 348 347
3 352 347 350
3 353 334 333
3 353 333 351
3 354 349 348
3 354 348 352
3 355 335 334
3 355 338 337
3 355 337 335
3 355 334 353
3 356 351 349
3 356 349 354
3 357 351 356
3 357 353 351
3 358 339 338
3 358 338 355
3 358 357 339
3 358 355 353
3 358 353 357
3 359 340 360
3 359 341 340
3 359 342 341
3 361 362 345
3 361 343 362
3 361 344 343
3 361 345 344
3 363 324 325
3 364 352 324
3 364 324 363
3 364 366 365
3 367 364 363
3 367 366 364
3 367 363 325
3 367 368 366
3 369 366 368
3 369 365 366
3 370 372 371
3 370 373 372
3 370 371 374
3 375 371 372
3 375 372 376
3 377 375 378
3 379 380 374
3 379 371 375
3 379 375 377
3 379 374 371
3 381 362 380
3 381 345 362
3 381 380 379
3 381 346 345
3 382 317 316
3 382 316 346
3 382 346 381
3 383 325 326
3 383 368 367
3 383 367 325
3 383 384 369
3 383 369 368
3 385 360 340
3 385 340 339
3 385 364 365
3 385 365 386
3 385 339 357
3 385 354 352
3 385 356 354
3 385 352 364
3 385 357 356
3 385 386 360
3 387 383 326
3 387 384 383
3 388 369 384
3 388 370 369
3 388 384 387
3 389 391 390
3 392 390 373
3 392 373 370
3 392 370 388
3 392 389 390
3 393 376 372
3 394 359 360
3 394 342 359
3 394 380 362
3 394 365 369
3 394 374 380
3 394 362 343
3 394 343 342
3 394 386 365
3 394 369 370
3 394 370 374
3 394 360 386
3 395 378 375
3 395 376 396
3 395 375 376
3 397 378 398
3 397 377 378
3 397 379 377
3 399 379 397
3 399 381 379
3 400 381 399
3 400 382 381
3 401 382 400
3 401 317 382
3 402 387 326
3 402 388 387
3 402 392 388
3 403 326 391
3 404 392 402
3 404 403 391
3 404 391 389
3 404 389 392
3 405 390 391
3 405 391 326
3 406 395 396
3 406 396 407
3 408 395 406
3 408 378 395
3 408 409 398
3 408 327 328
3 408 398 378
3 410 409 408
3 410 408 328
3 411 409 410
3 412 398 409
3 412 397 398
3 412 409 411
3 413 397 412
3 413 399 397
3 414 400 399
3 414 399 413
3 415 317 401
3 415 401 400
3 415 400 414
3 416 403 404
3 416 326 403
3 416 402 326
3 416 404 402
3 417 327 407
3 417 407 396
3 418 407 327
3 418 406 407
3 418 327 408
3 418 408 406
3 419 410 328
3 420 411 410
3 420 412 411
3 420 410 419
3 421 413 412
3 421 412 420
3 422 414 413
3 422 413 421
3 423 415 414
3 423 414 422
3 424 329 317
3 424 317 415
3 424 415 423
3 425 426 376
3 427 419 328
3 427 420 419
3 427 421 420
3 428 421 427
3 428 427 328
3 428 422 421
3 429 428 328
3 429 422 428
3 429 328 329
3 429 423 422
3 430 429 329
3 430 423 429
3 430 329 424
3 430 424 423
3 431 405 326
3 432 425 376
3 433 390 405
3 434 436 435
3 437 436 434
3 437 393 436
3 438 376 393
3 438 440 439
3 438 432 376
3 438 393 437
3 438 437 440
3 441 438 439
3 441 432 438
3 442 425 432
3 443 431 326
3 444 432 441
3 445 425 442
3 446 426 425
3 446 447 426
3 448 376 426
3 448 396 376
3 448 417 396
3 449 433 405
3 449 431 443
3 449 405 431
3 450 435 436
3 450 443 435
3 450 449 443
3 451 434 435
3 451 437 434
3 451 439 440
3 451 440 437
3 451 435 443
3 452 443 326
3 452 441 439
3 452 444 441
3 452 439 451
3 452 451 443
3 453 454 447
3 453 447 446
3 455 426 447
3 455 447 454
3 455 448 426
3 455 417 448
3 456 433 449
3 456 390 433
3 456 372 373
3 456 373 390
3 456 450 436
3 456 449 450
3 456 436 393
3 456 393 372
3 457 442 432
3 457 432 444
3 457 444 452
3 457 445 442
3 458 425 445
3 458 459 425
3 458 445 457
3 458 457 452
3 460 446 425
3 460 425 459
3 460 453 446
3 460 458 453
3 460 459 458
3 461 327 417
3 461 326 327
3 461 452 326
3 461 458 452
3 461 454 453
3 461 417 455
3 461 455 454
3 461 453 458
3 476 465 464
3 476 466 465
3 467 466 476
3 483 481 482
3 492 468 467
3 492 469 468
3 492 467 476
3 493 476 477
3 493 492 476
3 494 477 478
3 494 493 477
3 495 470 469
3 495 471 470
3 495 469 492
3 496 478 479
3 496 494 478
3 497 471 495
3 497 495 492
3 497 492 493
3 498 479 480
3 498 496 479
3 499 497 493
3 499 493 494
3 500 480 481
3 500 483 484
3 500 498 480
3 500 481 483
3 501 494 496
3 501 499 494
3 502 485 501
3 502 501 496
3 502 496 498
3 503 484 485
3 503 485 502
3 503 498 500
3 503 502 498
3 503 500 484
3 504 472 471
3 505 501 485
3 506 487 488
3 506 505 485
3 506 488 505
3 507 487 506
3 507 485 486
3 507 486 487
3 507 506 485
3 508 505 488
3 509 508 488
3 510 509 488
3 510 490 509
3 510 488 489
3 510 489 490
3 511 512 513
3 511 501 505
3 511 505 512
3 511 499 501
3 511 471 497
3 511 504 471
3 511 497 499
3 511 513 504
3 514 513 512
3 514 512 505
3 514 515 516
3 514 505 508
3 514 508 515
3 517 516 518
3 517 514 516
3 517 518 519
3 520 521 518
3 522 516 515
3 522 518 516
3 522 520 518
3 523 520 522
3 523 522 515
3 524 462 463
3 524 508 509
3 524 509 490
3 524 490 491
3 524 491 462
3 524 523 515
3 524 515 508
3 525 473 472
3 525 472 504
3 525 513 514
3 525 504 513
3 526 514 517
3 526 525 514
3 526 473 525
3 527 526 517
3 527 517 519
3 527 473 526
3 527 519 473
3 528 474 473
3 528 519 518
3 528 518 521
3 528 473 519
3 529 521 520
3 529 520 523
3 529 528 521
3 530 523 524
3 530 531 523
3 530 524 463
3 532 474 528
3 532 528 529
3 533 529 523
3 533 523 531
3 533 532 529
3 534 530 463
3 534 531 530
3 534 535 531
3 536 532 533
3 537 533 531
3 537 531 535
3 538 463 475
3 538 534 463
3 538 535 534
3 538 539 535
3 540 532 536
3 541 536 533
3 541 533 537
3 542 535 539
3 543 538 475
3 543 539 538
3 544 532 540
3 544 474 532
3 545 536 541
3 545 540 536
3 545 544 540
3 545 474 544
3 546 542 539
3 546 539 543
3 546 543 475
3 547 545 541
3 548 535 542
3 549 542 546
3 549 548 542
3 550 551 537
3 552 535 548
3 552 550 537
3 552 537 535
3 553 545 547
3 554 552 548
3 554 550 552
3 555 548 549
3 555 549 546
3 556 541 537
3 556 551 557
3 556 537 551
3 556 547 541
3 558 556 557
3 559 550 554
3 559 554 548
3 560 474 545
3 560 545 553
3 561 553 547
3 561 547 556
3 561 556 558
3 561 560 553
3 561 558 560
3 562 558 557
3 563 564 565
3 563 557 551
3 563 551 550
3 563 565 562
3 563 562 557
3 563 550 564
3 566 550 559
3 566 565 564
3 566 562 565
3 566 564 550
3 566 559 548
3 566 558 562
3 567 475 474
3 567 546 475
3 567 474 560
3 567 555 546
3 567 548 555
3 567 560 558
3 567 558 566
3 567 566 548
3 576 577 583
3 575 582 581
3 575 583 582
3 575 576 583
3 574 581 580
3 574 575 581
3 573 580 579
3 573 574 580
3 572 579 578
3 572 573 579
3 571 572 578
3 570 578 568
3 570 571 578
3 569 570 568
3 590 591 592
3 590 592 599
3 589 590 599
3 588 599 598
3 588 589 599
3 587 598 597
3 587 588 598
3 586 597 596
3 586 587 597
3 585 595 594
3 585 596 595
3 585 586 596
3 584 594 593
3 584 585 594
3 612 614 613
3 612 615 614
3 612 616 615
3 612 617 616
3 612 618 617
3 612 619 618
3 612 600 619
3 603 601 600
3 603 602 601
3 603 600 612
3 611 608 609
3 611 609 610
3 611 610 603
3 611 603 612
3 607 608 611
3 606 607 611
3 605 606 611
3 604 605 611
3 627 628 629
3 627 629 635
3 626 634 633
3 626 635 634
3 626 627 635
3 625 626 633
3 624 633 632
3 624 625 633
3 623 631 630
3 623 632 631
3 623 624 632
3 622 623 630
3 621 630 620
3 621 622 630
3 648 650 649
3 648 651 650
3 648 652 651
3 648 653 652
3 648 654 653
3 648 655 654
3 648 636 655
3 639 637 636
3 639 638 637
3 639 636 648
3 647 644 645
3 647 645 646
3 647 646 639
3 647 639 648
3 643 644 647
3 642 643 647
3 641 642 647
3 640 641 647
3 663 664 665
3 663 665 671
3 662 671 670
3 662 663 671
3 661 670 669
3 661 662 670
3 660 668 667
3 660 669 668
3 660 661 669
3 659 660 667
3 658 666 656
3 658 667 666
3 658 659 667
3 657 658 656
3 673 672 674
3 673 674 675
3 679 677 676
3 679 678 677
3 696 681 680
3 696 682 681
3 697 683 682
3 697 682 696
3 698 684 683
3 698 683 697
3 699 685 684
3 699 684 698
3 700 686 685
3 700 687 686
3 700 685 699
3 701 687 700
3 702 688 687
3 702 689 688
3 702 687 701
3 703 689 702
3 704 690 689
3 704 689 703
3 705 691 690
3 705 692 691
3 705 690 704
3 706 692 705
3 707 693 692
3 707 692 706
3 695 694 693
3 695 693 707
3 711 709 708
3 711 710 709
3 728 713 712
3 728 714 713
3 729 715 714
3 729 714 728
3 730 716 715
3 730 715 729
3 731 717 716
3 731 716 730
3 732 718 717
3 732 719 718
3 732 717 731
3 733 719 732
3 734 720 719
3 734 721 720
3 734 719 733
3 735 721 734
3 736 722 721
3 736 721 735
3 737 723 722
3 737 722 736
3 738 724 723
3 738 723 737
3 739 725 724
3 739 726 725
3 739 724 738
3 727 726 739
3 740 759 748
3 741 757 758
3 741 758 759
3 741 759 740
3 742 755 756
3 742 756 757
3 742 757 741
3 743 754 755
3 743 755 742
3 744 753 754
3 744 754 743
3 745 752 753
3 745 753 744
3 746 752 745
3 747 751 752
3 747 752 746
3 761 750 751
3 761 751 747
3 762 749 750
3 762 750 761
3 760 749 762
3 765 767 766
3 765 768 767
3 764 768 765
3 763 769 768
3 763 768 764
3 784 769 763
3 783 770 769
3 783 769 784
3 782 771 770
3 782 770 783
3 781 772 771
3 781 771 782
3 780 773 772
3 780 774 773
3 780 772 781
3 779 775 774
3 779 776 775
3 779 774 780
3 778 777 776
3 778 776 779
3 795 786 785
3 795 785 794
3 796 787 786
3 796 786 795
3 797 788 787
3 797 787 796
3 798 789 788
3 798 788 797
3 799 790 789
3 799 789 798
3 800 791 790
3 800 790 799
3 793 792 791
3 793 791 800
3 804 802 801
3 804 803 802
3 805 808 807
3 805 806 808
3 812 810 809
3 812 811 810
3 815 816 813
3 814 815 813
3 820 818 817
3 820 819 818
3 835 836 837
3 835 837 838
3 835 838 839
3 835 839 840
3 835 840 841
3 835 841 842
3 835 842 843
3 835 843 844
3 835 844 845
3 835 845 846
3 835 846 847
3 835 847 848
3 823 821 822
3 827 823 824
3 827 824 825
3 827 825 826
3 834 848 821
3 834 835 848
3 830 828 829
3 831 827 828
3 831 832 833
3 831 833 834
3 831 834 821
3 831 821 823
3 831 823 827
3 831 828 830
3 853 851 854
3 852 851 853
3 849 850 851
3 855 856 857
3 855 857 849
3 855 849 851
3 855 851 852
