ply
format ascii 1.0
comment generated by blendit.inference.finetune_visualize
element vertex 939
property float x
property float y
property float z
property uchar red
property uchar green
property uchar blue
element face 1086
property list uchar int vertex_indices
end_header
-2.22044605e-16 32.154119 67.5145972 218 222 230
2.22044605e-16 32.154119 33.4787247 218 222 230
-2.22044605e-16 1.03819162 67.5145972 218 222 230
0 1.03819162 1.03819162 218 222 230
-2.22044605e-16 84.8953311 1.03819162 218 222 230
-2.22044605e-16 84.8953311 32.4405331 218 222 230
-4.4408921e-16 36.0881956 32.4405331 218 222 230
0 32.1622162 33.412149 218 222 230
0 32.1864745 33.3458474 218 222 230
0 32.2267941 33.2800928 218 222 230
0 32.283009 33.2151558 218 222 230
0 32.3822788 33.1303065 218 222 230
0 32.5817395 33.0080011 218 222 230
0 32.9877887 32.8396556 218 222 230
0 33.8057783 32.6331194 218 222 230
0 34.8900716 32.4898511 218 222 230
-2.22044605e-16 32.154119 67.5145972 218 222 230
2.22044605e-16 32.154119 33.4787247 218 222 230
14.7138244 85.9335227 33.4787247 218 222 230
14.7138244 85.9335227 68.5527888 218 222 230
1.03819162 35.9487359 68.5527888 218 222 230
0.00213683351 32.1619292 67.5811728 218 222 230
0.00853853786 32.1853276 67.6474744 218 222 230
0.0191787607 32.2242178 67.7132291 218 222 230
0.0340137022 32.2784399 67.778166 218 222 230
0.0602107366 32.3741908 67.8630153 218 222 230
0.112847827 32.5665807 67.9853208 218 222 230
0.220003065 32.9582358 68.1536663 218 222 230
0.435868185 33.7472283 68.3602025 218 222 230
0.722010101 34.7930843 68.5034708 218 222 230
-2.22044605e-16 1.03819162 67.5145972 255 79 163
0.0353755216 0.769487857 67.7833009 255 79 163
0.139091303 0.51909581 68.033693 255 79 163
0.304079285 0.304079285 68.2487095 255 79 163
0.495737989 0.152987747 68.399801 255 79 163
0.673506282 0.0661594993 68.4866293 255 79 163
0.845015699 0.0181303947 68.5346584 255 79 163
0.941179189 0.00454253645 68.5482462 255 79 163
1.03819162 0 68.5527888 255 79 163
1.03819162 35.9487359 68.5527888 255 79 163
-2.22044605e-16 32.154119 67.5145972 255 79 163
0.00213683351 32.1619292 67.5811728 255 79 163
0.00853853786 32.1853276 67.6474744 255 79 163
0.0191787607 32.2242178 67.7132291 255 79 163
0.0340137022 32.2784399 67.778166 255 79 163
0.0602107366 32.3741908 67.8630153 255 79 163
0.112847827 32.5665807 67.9853208 255 79 163
0.220003065 32.9582358 68.1536663 255 79 163
0.435868185 33.7472283 68.3602025 255 79 163
0.722010101 34.7930843 68.5034708 255 79 163
2.22044605e-16 32.154119 33.4787247 255 79 163
0 32.1622162 33.412149 255 79 163
0 32.1864745 33.3458474 255 79 163
0 32.2267941 33.2800928 255 79 163
0 32.283009 33.2151558 255 79 163
0 32.3822788 33.1303065 255 79 163
0 32.5817395 33.0080011 255 79 163
0 32.9877887 32.8396556 255 79 163
0 33.8057783 32.6331194 255 79 163
0 34.8900716 32.4898511 255 79 163
-4.4408921e-16 36.0881956 32.4405331 255 79 163
13.6374771 85.9335227 32.4405331 255 79 163
14.7138244 85.9335227 33.4787247 255 79 163
14.6840848 85.9335227 33.2363637 255 79 163
14.5965096 85.9335227 33.0073956 255 79 163
14.455938 85.9335227 32.8044732 255 79 163
14.2701382 85.9335227 32.63881 255 79 163
14.0493774 85.9335227 32.5195607 255 79 163
13.8474621 85.9335227 32.4604816 255 79 163
0 1.03819162 1.03819162 255 79 163
0.0260296315 0.807172251 1.03819162 255 79 163
0.102813291 0.587737158 1.03819162 255 79 163
0.226500727 0.390889733 1.03819162 255 79 163
0.390889733 0.226500727 1.03819162 255 79 163
0.587737158 0.102813291 1.03819162 255 79 163
0.807172251 0.0260296315 1.03819162 255 79 163
1.03819162 -2.22044605e-16 1.03819162 255 79 163
1.03819162 0 68.5527888 255 79 163
-2.22044605e-16 1.03819162 67.5145972 255 79 163
0.0353755216 0.769487857 67.7833009 255 79 163
0.139091303 0.51909581 68.033693 255 79 163
0.304079285 0.304079285 68.2487095 255 79 163
0.495737989 0.152987747 68.399801 255 79 163
0.673506282 0.0661594993 68.4866293 255 79 163
0.845015699 0.0181303947 68.5346584 255 79 163
0.941179189 0.00454253645 68.5482462 255 79 163
13.6374771 85.9335227 32.4405331 218 222 230
1.03819162 85.9335227 32.4405331 218 222 230
-2.22044605e-16 84.8953311 32.4405331 218 222 230
0.0260296315 85.1263505 32.4405331 218 222 230
0.102813291 85.3457856 32.4405331 218 222 230
0.226500727 85.542633 32.4405331 218 222 230
0.390889733 85.707022 32.4405331 218 222 230
0.587737158 85.8307094 32.4405331 218 222 230
0.807172251 85.9074931 32.4405331 218 222 230
-4.4408921e-16 36.0881956 32.4405331 218 222 230
0 1.03819162 1.03819162 255 79 163
-2.22044605e-16 84.8953311 1.03819162 255 79 163
0.0353755216 85.1640349 0.769487857 255 79 163
0.139091303 85.4144269 0.51909581 255 79 163
0.304079285 85.6294434 0.304079285 255 79 163
0.495737989 85.780535 0.152987747 255 79 163
0.673506282 85.8673632 0.0661594993 255 79 163
0.845015699 85.9153923 0.0181303947 255 79 163
0.941179189 85.9289802 0.00454253645 255 79 163
1.03819162 85.9335227 0 255 79 163
1.03819162 1.03819162 -2.22044605e-16 255 79 163
0.0260296315 1.03819162 0.807172251 255 79 163
0.102813291 1.03819162 0.587737158 255 79 163
0.226500727 1.03819162 0.390889733 255 79 163
0.390889733 1.03819162 0.226500727 255 79 163
0.587737158 1.03819162 0.102813291 255 79 163
0.807172251 1.03819162 0.0260296315 255 79 163
-2.22044605e-16 84.8953311 1.03819162 255 79 163
-2.22044605e-16 84.8953311 32.4405331 255 79 163
0.0260296315 85.1263505 32.4405331 255 79 163
0.102813291 85.3457856 32.4405331 255 79 163
0.226500727 85.542633 32.4405331 255 79 163
0.390889733 85.707022 32.4405331 255 79 163
0.587737158 85.8307094 32.4405331 255 79 163
0.807172251 85.9074931 32.4405331 255 79 163
1.03819162 85.9335227 32.4405331 255 79 163
1.03819162 85.9335227 0 255 79 163
0.0353755216 85.1640349 0.769487857 255 79 163
0.139091303 85.4144269 0.51909581 255 79 163
0.304079285 85.6294434 0.304079285 255 79 163
0.495737989 85.780535 0.152987747 255 79 163
0.673506282 85.8673632 0.0661594993 255 79 163
0.845015699 85.9153923 0.0181303947 255 79 163
0.941179189 85.9289802 0.00454253645 255 79 163
14.7138244 85.9335227 68.5527888 218 222 230
52.444332 85.9335227 68.5527888 218 222 230
1.03819162 35.9487359 68.5527888 218 222 230
1.03819162 0 68.5527888 218 222 230
29.8599409 0 68.5527888 218 222 230
29.8599409 14.7163669 68.5527888 218 222 230
32.2598737 16.7927501 68.5527888 218 222 230
31.6642164 16.7235984 68.5527888 218 222 230
31.0894984 16.5146627 68.5527888 218 222 230
30.6126523 16.2030395 68.5527888 218 222 230
30.2447202 15.8186768 68.5527888 218 222 230
29.9981975 15.3918886 68.5527888 218 222 230
29.8954887 15.0619209 68.5527888 218 222 230
52.444332 16.7927501 68.5527888 218 222 230
14.7138244 85.9335227 68.5527888 218 222 230
52.444332 85.9335227 68.5527888 218 222 230
52.444332 85.9335227 0 218 222 230
1.03819162 85.9335227 0 218 222 230
1.03819162 85.9335227 32.4405331 218 222 230
13.6374771 85.9335227 32.4405331 218 222 230
14.7138244 85.9335227 33.4787247 218 222 230
14.6840848 85.9335227 33.2363637 218 222 230
14.5965096 85.9335227 33.0073956 218 222 230
14.455938 85.9335227 32.8044732 218 222 230
14.2701382 85.9335227 32.63881 218 222 230
14.0493774 85.9335227 32.5195607 218 222 230
13.8474621 85.9335227 32.4604816 218 222 230
1.03819162 1.03819162 -2.22044605e-16 255 79 163
1.03819162 0.807172251 0.0260296315 255 79 163
1.03819162 0.587737158 0.102813291 255 79 163
1.03819162 0.390889733 0.226500727 255 79 163
1.03819162 0.226500727 0.390889733 255 79 163
1.03819162 0.102813291 0.587737158 255 79 163
1.03819162 0.0260296315 0.807172251 255 79 163
1.03819162 -2.22044605e-16 1.03819162 255 79 163
0 1.03819162 1.03819162 255 79 163
0.0260296315 0.807172251 1.03819162 255 79 163
0.102813291 0.587737158 1.03819162 255 79 163
0.226500727 0.390889733 1.03819162 255 79 163
0.390889733 0.226500727 1.03819162 255 79 163
0.587737158 0.102813291 1.03819162 255 79 163
0.807172251 0.0260296315 1.03819162 255 79 163
0 1.03819162 1.03819162 255 79 163
0.0260296315 1.03819162 0.807172251 255 79 163
0.102813291 1.03819162 0.587737158 255 79 163
0.226500727 1.03819162 0.390889733 255 79 163
0.390889733 1.03819162 0.226500727 255 79 163
0.587737158 1.03819162 0.102813291 255 79 163
0.807172251 1.03819162 0.0260296315 255 79 163
0.0508127147 0.721322579 0.988004495 255 79 163
0.0508127147 0.752339928 0.892542908 255 79 163
0.0508127147 0.811338433 0.811338433 255 79 163
0.198276956 0.457824861 0.849619029 255 79 163
0.0508127147 0.892542908 0.752339928 255 79 163
0.198276956 0.544502167 0.679505237 255 79 163
0.427957897 0.208617699 0.906800019 255 79 163
0.0508127147 0.988004495 0.721322579 255 79 163
0.198276956 0.679505237 0.544502167 255 79 163
0.427957897 0.289822175 0.656878342 255 79 163
0.198276956 0.849619029 0.457824861 255 79 163
0.427957897 0.444282266 0.444282266 255 79 163
0.717372766 0.099138478 0.733074759 255 79 163
0.427957897 0.656878342 0.289822175 255 79 163
0.717372766 0.239385306 0.457824861 255 79 163
0.427957897 0.906800019 0.208617699 255 79 163
0.717372766 0.457824861 0.239385306 255 79 163
0.717372766 0.733074759 0.099138478 255 79 163
30.7581676 0 66.9939911 218 222 230
12.0970131 0 34.7970004 218 222 230
11.1987864 -1.11022302e-16 33.2351823 218 222 230
11.1665831 -1.13054949e-16 33.3087264 218 222 230
11.154129 -1.13429883e-16 33.3798436 218 222 230
11.1571069 -1.13236149e-16 33.4447988 218 222 230
11.1715693 -1.1238411e-16 33.5082355 218 222 230
11.219424 -1.09175227e-16 33.6194584 218 222 230
11.3004564 -1.02538443e-16 33.7475864 218 222 230
11.6306473 -6.44006043e-17 34.153098 218 222 230
29.8599409 -2.22044605e-16 1.03819162 218 222 230
1.03819162 -2.22044605e-16 1.03819162 218 222 230
1.03819162 0 68.5527888 218 222 230
29.8599409 0 68.5527888 218 222 230
30.099553 0 68.5247595 218 222 230
30.3262269 0 68.442185 218 222 230
30.527723 0 68.3095241 218 222 230
30.6931613 0 68.1339401 218 222 230
30.8136087 0 67.9249137 218 222 230
30.8825614 0 67.6937317 218 222 230
30.8962963 0 67.4528771 218 222 230
30.8540717 0 67.2153551 218 222 230
1.03819162 85.9335227 0 218 222 230
52.444332 85.9335227 0 218 222 230
1.03819162 1.03819162 -2.22044605e-16 218 222 230
31.661636 1.03819162 0 218 222 230
31.661636 15.7545585 0 218 222 230
31.661636 16.7927501 -2.22044605e-16 218 222 230
53.4825236 16.7927501 -2.22044605e-16 218 222 230
53.4825236 84.8953311 0 218 222 230
52.6753514 85.9074931 0 218 222 230
52.8947865 85.8307094 0 218 222 230
53.0916339 85.707022 0 218 222 230
53.2560229 85.542633 0 218 222 230
53.3797103 85.3457856 0 218 222 230
53.456494 85.1263505 0 218 222 230
10.0685793 9.28680874 0 218 222 230
10.2198137 10.5323355 0 218 222 230
10.6647274 11.7054767 0 218 222 230
11.3774639 12.7380537 0 218 222 230
12.3166014 13.570057 0 218 222 230
13.4275607 14.1531334 0 218 222 230
14.6457768 14.4533967 0 218 222 230
15.9004516 14.4533967 0 218 222 230
17.1186677 14.1531334 0 218 222 230
18.229627 13.570057 0 218 222 230
19.1687645 12.7380537 0 218 222 230
19.881501 11.7054767 0 218 222 230
20.3264148 10.5323355 0 218 222 230
20.4776491 9.28680874 0 218 222 230
20.3264148 8.04128202 0 218 222 230
19.881501 6.86814078 0 218 222 230
19.1687645 5.83556373 0 218 222 230
18.229627 5.0035605 0 218 222 230
17.1186677 4.42048409 0 218 222 230
15.9004516 4.12022078 0 218 222 230
14.6457768 4.12022078 0 218 222 230
13.4275607 4.42048409 0 218 222 230
12.3166014 5.0035605 0 218 222 230
11.3774639 5.83556373 0 218 222 230
10.6647274 6.86814078 0 218 222 230
10.2198137 8.04128202 0 218 222 230
52.444332 16.7927501 68.5527888 255 79 163
52.7130358 16.5240463 68.5174133 255 79 163
52.9634278 16.2736543 68.4136975 255 79 163
53.1784443 16.0586378 68.2487095 255 79 163
53.3295359 15.9075462 68.0570508 255 79 163
53.4163641 15.820718 67.8792825 255 79 163
53.4643932 15.7726889 67.7077731 255 79 163
53.4779811 15.759101 67.6116096 255 79 163
53.4825236 15.7545585 67.5145972 255 79 163
53.4825236 84.8953311 67.5145972 255 79 163
52.444332 85.9335227 68.5527888 255 79 163
52.620147 85.9185275 68.5377936 255 79 163
52.7908831 85.8739752 68.4932412 255 79 163
52.9516084 85.8011526 68.4204186 255 79 163
53.0976799 85.7021634 68.3214294 255 79 163
53.2248781 85.5798672 68.1991332 255 79 163
53.3295286 85.4377966 68.0570627 255 79 163
53.4288683 85.2247703 67.8440364 255 79 163
53.469022 85.0622211 67.6814872 255 79 163
52.444332 16.7927501 68.5527888 255 79 163
32.2598737 16.7927501 68.5527888 255 79 163
32.2598737 16.5503893 68.5241035 255 79 163
32.2598737 16.321421 68.4396327 255 79 163
32.2598737 16.1184986 68.3040443 255 79 163
32.2598737 15.9528354 68.1248309 255 79 163
32.2598737 15.8335861 67.9118959 255 79 163
32.2598737 15.774507 67.7171381 255 79 163
32.2598737 15.7545585 67.5145972 255 79 163
53.4825236 15.7545585 67.5145972 255 79 163
52.7130358 16.5240463 68.5174133 255 79 163
52.9634278 16.2736543 68.4136975 255 79 163
53.1784443 16.0586378 68.2487095 255 79 163
53.3295359 15.9075462 68.0570508 255 79 163
53.4163641 15.820718 67.8792825 255 79 163
53.4643932 15.7726889 67.7077731 255 79 163
53.4779811 15.759101 67.6116096 255 79 163
32.2598737 16.7927501 68.5527888 255 79 163
32.2598737 16.5503893 68.5241035 255 79 163
32.2598737 16.321421 68.4396327 255 79 163
32.2598737 16.1184986 68.3040443 255 79 163
32.2598737 15.9528354 68.1248309 255 79 163
32.2598737 15.8335861 67.9118959 255 79 163
32.2598737 15.774507 67.7171381 255 79 163
32.2598737 15.7545585 67.5145972 255 79 163
31.7029028 15.68107 67.318725 255 79 163
31.4042901 15.5719516 67.2111243 255 79 163
31.1768546 15.4400184 67.1305532 255 79 163
31.0167065 15.3043362 67.076025 255 79 163
30.8712127 15.1168236 67.0288198 255 79 163
30.7963277 14.9525241 67.0055578 255 79 163
30.7678507 14.8359622 66.9969095 255 79 163
30.7581676 14.7163669 66.9939911 255 79 163
29.8599409 14.7163669 68.5527888 255 79 163
30.11663 14.7163669 68.5205557 255 79 163
30.3573823 14.7163669 68.4258567 255 79 163
30.567245 14.7163669 68.2745727 255 79 163
30.7331871 14.7163669 68.0760978 255 79 163
30.8449046 14.7163669 67.8427564 255 79 163
30.8954604 14.7163669 67.5890376 255 79 163
30.8817149 14.7163669 67.3306957 255 79 163
30.8345908 14.7163669 67.1569668 255 79 163
31.6642164 16.7235984 68.5527888 255 79 163
31.0894984 16.5146627 68.5527888 255 79 163
30.6126523 16.2030395 68.5527888 255 79 163
30.2447202 15.8186768 68.5527888 255 79 163
29.9981975 15.3918886 68.5527888 255 79 163
29.8954887 15.0619209 68.5527888 255 79 163
31.9777134 16.4978589 68.5149222 255 79 163
31.4309967 16.343133 68.5094231 255 79 163
32.0521886 16.0276426 68.2283609 255 79 163
30.9270531 16.0491876 68.5029088 255 79 163
31.6564932 15.9005722 68.1839308 255 79 163
32.0928777 15.7707395 67.737329 255 79 163
30.5067387 15.6096314 68.4958644 255 79 163
31.2923467 15.6838938 68.1321647 255 79 163
31.7641053 15.6893722 67.6394422 255 79 163
30.2505105 15.0346179 68.4908098 255 79 163
30.982055 15.3674454 68.0772374 255 79 163
31.4362745 15.5399665 67.5297528 255 79 163
30.7867952 14.9496788 68.0384931 255 79 163
31.1257114 15.2942473 67.4185773 255 79 163
30.9128963 14.9297055 67.3434349 255 79 163
29.8599409 0 68.5527888 255 79 163
30.099553 0 68.5247595 255 79 163
30.3262269 0 68.442185 255 79 163
30.527723 0 68.3095241 255 79 163
30.6931613 0 68.1339401 255 79 163
30.8136087 0 67.9249137 255 79 163
30.8825614 0 67.6937317 255 79 163
30.8962963 0 67.4528771 255 79 163
30.8540717 0 67.2153551 255 79 163
30.7581676 0 66.9939911 255 79 163
30.7581676 14.7163669 66.9939911 255 79 163
29.8599409 14.7163669 68.5527888 255 79 163
30.11663 14.7163669 68.5205557 255 79 163
30.3573823 14.7163669 68.4258567 255 79 163
30.567245 14.7163669 68.2745727 255 79 163
30.7331871 14.7163669 68.0760978 255 79 163
30.8449046 14.7163669 67.8427564 255 79 163
30.8954604 14.7163669 67.5890376 255 79 163
30.8817149 14.7163669 67.3306957 255 79 163
30.8345908 14.7163669 67.1569668 255 79 163
52.444332 85.9335227 0 255 79 163
52.444332 85.9335227 68.5527888 255 79 163
52.620147 85.9185275 68.5377936 255 79 163
52.7908831 85.8739752 68.4932412 255 79 163
52.9516084 85.8011526 68.4204186 255 79 163
53.0976799 85.7021634 68.3214294 255 79 163
53.2248781 85.5798672 68.1991332 255 79 163
53.3295286 85.4377966 68.0570627 255 79 163
53.4288683 85.2247703 67.8440364 255 79 163
53.469022 85.0622211 67.6814872 255 79 163
53.4825236 84.8953311 67.5145972 255 79 163
53.4825236 84.8953311 0 255 79 163
52.6753514 85.9074931 0 255 79 163
52.8947865 85.8307094 0 255 79 163
53.0916339 85.707022 0 255 79 163
53.2560229 85.542633 0 255 79 163
53.3797103 85.3457856 0 255 79 163
53.456494 85.1263505 0 255 79 163
29.8599409 -2.22044605e-16 1.03819162 255 79 163
30.6778934 0.113156113 0.566862488 255 79 163
31.1707989 0.325956603 0.282835333 255 79 163
31.4197674 0.518609818 0.139372066 255 79 163
31.5522647 0.681977855 0.063023125 255 79 163
31.6238011 0.826547332 0.0218016677 255 79 163
31.6521523 0.931809505 0.00546479965 255 79 163
31.661636 1.03819162 0 255 79 163
1.03819162 -2.22044605e-16 1.03819162 255 79 163
1.03819162 1.03819162 -2.22044605e-16 255 79 163
1.03819162 0.807172251 0.0260296315 255 79 163
1.03819162 0.587737158 0.102813291 255 79 163
1.03819162 0.390889733 0.226500727 255 79 163
1.03819162 0.226500727 0.390889733 255 79 163
1.03819162 0.102813291 0.587737158 255 79 163
1.03819162 0.0260296315 0.807172251 255 79 163
30.7581676 0 66.9939911 218 222 230
12.0970131 0 34.7970004 218 222 230
30.7581676 14.7163669 66.9939911 218 222 230
12.0970131 14.7163669 34.7970004 218 222 230
12.0970131 0 34.7970004 255 79 163
12.0970131 0 34.7970004 255 79 163
11.1987864 -1.11022302e-16 33.2351823 255 79 163
11.1665831 -1.13054949e-16 33.3087264 255 79 163
11.154129 -1.13429883e-16 33.3798436 255 79 163
11.1571069 -1.13236149e-16 33.4447988 255 79 163
11.1715693 -1.1238411e-16 33.5082355 255 79 163
11.219424 -1.09175227e-16 33.6194584 255 79 163
11.3004564 -1.02538443e-16 33.7475864 255 79 163
11.6306473 -6.44006043e-17 34.153098 255 79 163
11.4084732 0.0286853576 33.3567154 255 79 163
11.6065728 0.113156071 33.4715326 255 79 163
11.782138 0.248744549 33.5732889 255 79 163
11.9254671 0.427957898 33.6563615 255 79 163
12.0286397 0.640892857 33.7161596 255 79 163
12.0797539 0.835650534 33.745785 255 79 163
12.0970131 1.03819162 33.7557884 255 79 163
11.9798805 0.726734134 34.0598596 255 79 163
11.962772 0.415276648 34.385262 255 79 163
12.0081849 0.207638324 34.5982087 255 79 163
11.3497752 0.0267708695 33.557721 255 79 163
11.5305706 0.0979105838 33.6489312 255 79 163
11.4116254 0.0253923182 33.7543606 255 79 163
11.691276 0.205391555 33.7286936 255 79 163
11.5629605 0.0887900869 33.8280614 255 79 163
11.8256195 0.345036768 33.7934172 255 79 163
11.6979899 0.18046015 33.8909437 255 79 163
11.9300622 0.513311032 33.8409967 255 79 163
11.8112495 0.297587579 33.9407917 255 79 163
12.0018745 0.704724286 33.8698942 255 79 163
11.6309564 0.01823267 34.0999231 255 79 163
11.899386 0.439393774 33.9771025 255 79 163
11.7160614 0.0617889803 34.1504105 255 79 163
11.9604402 0.603099507 33.9996916 255 79 163
11.7936331 0.122658898 34.1920424 255 79 163
11.8593019 0.199374 34.2244462 255 79 163
11.9087605 0.292616058 34.2490405 255 79 163
11.9044439 0.0295966956 34.4690383 255 79 163
11.8718612 0.00846410606 34.4395286 255 79 163
11.9402262 0.401559735 34.2669516 255 79 163
11.9352012 0.0601533834 34.4937837 255 79 163
11.9615251 0.0991958595 34.5134621 255 79 163
11.979952 0.146464591 34.5288133 255 79 163
11.9890424 0.201033169 34.5402115 255 79 163
11.7624572 0.00326640452 34.2994391 255 79 163
11.7882142 0.0119252048 34.3195874 255 79 163
29.8599409 -2.22044605e-16 1.03819162 255 79 163
30.6778934 0.113156113 0.566862488 255 79 163
31.1707989 0.325956603 0.282835333 255 79 163
31.4197674 0.518609818 0.139372066 255 79 163
31.5522647 0.681977855 0.063023125 255 79 163
31.6238011 0.826547332 0.0218016677 255 79 163
31.6521523 0.931809505 0.00546479965 255 79 163
31.661636 1.03819162 0 255 79 163
12.0970131 1.03819162 33.7557884 255 79 163
11.1987864 -1.11022302e-16 33.2351823 255 79 163
11.4084732 0.0286853576 33.3567154 255 79 163
11.6065728 0.113156071 33.4715326 255 79 163
11.782138 0.248744549 33.5732889 255 79 163
11.9254671 0.427957898 33.6563615 255 79 163
12.0286397 0.640892857 33.7161596 255 79 163
12.0797539 0.835650534 33.745785 255 79 163
53.4825236 15.7545585 1.03819162 218 222 230
53.4825236 15.7545585 67.5145972 218 222 230
53.4825236 16.7927501 -2.22044605e-16 218 222 230
53.4825236 16.5617307 0.0260296315 218 222 230
53.4825236 16.3422957 0.102813291 218 222 230
53.4825236 16.1454482 0.226500727 218 222 230
53.4825236 15.9810592 0.390889733 218 222 230
53.4825236 15.8573718 0.587737158 218 222 230
53.4825236 15.7805881 0.807172251 218 222 230
53.4825236 84.8953311 0 218 222 230
53.4825236 84.8953311 67.5145972 218 222 230
31.661636 1.03819162 0 218 222 230
31.661636 15.7545585 0 218 222 230
12.0970131 1.03819162 33.7557884 218 222 230
12.0970131 15.6172068 33.7557884 218 222 230
12.1913141 15.6927411 33.5930863 218 222 230
12.2917327 15.7389874 33.4198293 218 222 230
12.3952566 15.7545585 33.2412144 218 222 230
31.0599073 15.7545585 1.03819162 218 222 230
31.661636 16.7927501 -2.22044605e-16 218 222 230
31.6485238 16.577198 0.0226232423 218 222 230
31.6097584 16.3710401 0.0895070026 218 222 230
31.5470294 16.1832612 0.197736352 218 222 230
31.4630707 16.022045 0.342594436 218 222 230
31.3615412 15.8944177 0.517768049 218 222 230
31.246866 15.8059415 0.715622771 218 222 230
31.1545652 15.7674847 0.874873771 218 222 230
31.661636 16.7927501 -2.22044605e-16 255 79 163
53.4825236 16.7927501 -2.22044605e-16 255 79 163
53.4825236 16.5617307 0.0260296315 255 79 163
53.4825236 16.3422957 0.102813291 255 79 163
53.4825236 16.1454482 0.226500727 255 79 163
53.4825236 15.9810592 0.390889733 255 79 163
53.4825236 15.8573718 0.587737158 255 79 163
53.4825236 15.7805881 0.807172251 255 79 163
53.4825236 15.7545585 1.03819162 255 79 163
31.0599073 15.7545585 1.03819162 255 79 163
31.6485238 16.577198 0.0226232423 255 79 163
31.6097584 16.3710401 0.0895070026 255 79 163
31.5470294 16.1832612 0.197736352 255 79 163
31.4630707 16.022045 0.342594436 255 79 163
31.3615412 15.8944177 0.517768049 255 79 163
31.246866 15.8059415 0.715622771 255 79 163
31.1545652 15.7674847 0.874873771 255 79 163
10.0685793 9.28680874 0 255 79 163
10.2995987 9.28680874 0.0260296315 255 79 163
10.5190338 9.28680874 0.102813291 255 79 163
10.7158812 9.28680874 0.226500727 255 79 163
10.8802702 9.28680874 0.390889733 255 79 163
11.0039577 9.28680874 0.587737158 255 79 163
11.0807413 9.28680874 0.807172251 255 79 163
11.1067709 9.28680874 1.03819162 255 79 163
10.2198137 10.5323355 0 255 79 163
10.6647274 11.7054767 0 255 79 163
11.3774639 12.7380537 0 255 79 163
12.3166014 13.570057 0 255 79 163
13.4275607 14.1531334 0 255 79 163
14.6457768 14.4533967 0 255 79 163
15.9004516 14.4533967 0 255 79 163
17.1186677 14.1531334 0 255 79 163
18.229627 13.570057 0 255 79 163
19.1687645 12.7380537 0 255 79 163
19.881501 11.7054767 0 255 79 163
20.3264148 10.5323355 0 255 79 163
20.4776491 9.28680874 0 255 79 163
20.3264148 8.04128202 0 255 79 163
19.881501 6.86814078 0 255 79 163
19.1687645 5.83556373 0 255 79 163
18.229627 5.0035605 0 255 79 163
17.1186677 4.42048409 0 255 79 163
15.9004516 4.12022078 0 255 79 163
14.6457768 4.12022078 0 255 79 163
13.4275607 4.42048409 0 255 79 163
12.3166014 5.0035605 0 255 79 163
11.3774639 5.83556373 0 255 79 163
10.6647274 6.86814078 0 255 79 163
10.2198137 8.04128202 0 255 79 163
10.0685793 9.28680874 0 255 79 163
10.2995987 9.28680874 0.0260296315 255 79 163
10.5190338 9.28680874 0.102813291 255 79 163
10.7158812 9.28680874 0.226500727 255 79 163
10.8802702 9.28680874 0.390889733 255 79 163
11.0039577 9.28680874 0.587737158 255 79 163
11.0807413 9.28680874 0.807172251 255 79 163
11.1067709 9.28680874 1.03819162 255 79 163
11.2278373 10.2838799 1.03819162 255 79 163
11.5840005 11.223005 1.03819162 255 79 163
12.1545615 12.0496054 1.03819162 255 79 163
12.9063615 12.715642 1.03819162 255 79 163
13.7957085 13.1824074 1.03819162 255 79 163
14.770917 13.4227747 1.03819162 255 79 163
15.7753114 13.4227747 1.03819162 255 79 163
16.7505199 13.1824074 1.03819162 255 79 163
17.6398669 12.715642 1.03819162 255 79 163
18.3916669 12.0496054 1.03819162 255 79 163
18.9622279 11.223005 1.03819162 255 79 163
19.3183911 10.2838799 1.03819162 255 79 163
19.4394575 9.28680874 1.03819162 255 79 163
19.3183911 8.28973753 1.03819162 255 79 163
18.9622279 7.35061248 1.03819162 255 79 163
18.3916669 6.52401212 1.03819162 255 79 163
17.6398669 5.85797546 1.03819162 255 79 163
16.7505199 5.39121012 1.03819162 255 79 163
15.7753114 5.15084281 1.03819162 255 79 163
14.770917 5.15084281 1.03819162 255 79 163
13.7957085 5.39121012 1.03819162 255 79 163
12.9063615 5.85797546 1.03819162 255 79 163
12.1545615 6.52401212 1.03819162 255 79 163
11.5840005 7.35061248 1.03819162 255 79 163
11.2278373 8.28973753 1.03819162 255 79 163
10.44412 10.4770489 0.0260296315 255 79 163
10.6571787 10.4245347 0.102813291 255 79 163
10.8483061 10.377426 0.226500727 255 79 163
11.0079183 10.3380851 0.390889733 255 79 163
11.1280116 10.3084848 0.587737158 255 79 163
10.8692849 11.5981166 0.0260296315 255 79 163
11.2025641 10.2901092 0.807172251 255 79 163
11.0635851 11.4961401 0.102813291 255 79 163
11.2378848 11.4046605 0.226500727 255 79 163
11.383444 11.3282651 0.390889733 255 79 163
11.4929638 11.2707847 0.587737158 255 79 163
11.5503844 12.5848596 0.0260296315 255 79 163
11.5609524 11.2351016 0.807172251 255 79 163
11.7146339 12.4393472 0.102813291 255 79 163
11.8619763 12.3088132 0.226500727 255 79 163
11.9850233 12.1998031 0.390889733 255 79 163
12.0776046 12.1177832 0.587737158 255 79 163
12.4478354 13.3799318 0.0260296315 255 79 163
12.135078 12.0668662 0.807172251 255 79 163
12.5724887 13.1993402 0.102813291 255 79 163
12.6843108 13.037338 0.226500727 255 79 163
12.7776944 12.9020485 0.390889733 255 79 163
12.8479569 12.8002557 0.587737158 255 79 163
13.5094813 13.9371265 0.0260296315 255 79 163
12.891575 12.737064 0.807172251 255 79 163
13.5872941 13.7319511 0.102813291 255 79 163
13.6570971 13.5478956 0.226500727 255 79 163
13.7153903 13.3941892 0.390889733 255 79 163
13.7592504 13.2785395 0.587737158 255 79 163
14.6736232 14.2240617 0.0260296315 255 79 163
13.7864783 13.2067455 0.807172251 255 79 163
14.7000731 14.0062266 0.102813291 255 79 163
14.7238005 13.8108144 0.226500727 255 79 163
14.7436154 13.6476239 0.390889733 255 79 163
14.7585242 13.5248383 0.587737158 255 79 163
15.8726053 14.2240617 0.0260296315 255 79 163
14.7677795 13.4486145 0.807172251 255 79 163
15.8461553 14.0062266 0.102813291 255 79 163
15.8224279 13.8108144 0.226500727 255 79 163
15.802613 13.6476239 0.390889733 255 79 163
15.7877042 13.5248383 0.587737158 255 79 163
17.0367471 13.9371265 0.0260296315 255 79 163
15.7784489 13.4486145 0.807172251 255 79 163
16.9589344 13.7319511 0.102813291 255 79 163
16.8891313 13.5478956 0.226500727 255 79 163
16.8308382 13.3941892 0.390889733 255 79 163
16.786978 13.2785395 0.587737158 255 79 163
18.098393 13.3799318 0.0260296315 255 79 163
16.7597501 13.2067455 0.807172251 255 79 163
17.9737397 13.1993402 0.102813291 255 79 163
17.8619176 13.037338 0.226500727 255 79 163
17.768534 12.9020485 0.390889733 255 79 163
17.6982715 12.8002557 0.587737158 255 79 163
18.995844 12.5848596 0.0260296315 255 79 163
17.6546535 12.737064 0.807172251 255 79 163
18.8315945 12.4393472 0.102813291 255 79 163
18.6842521 12.3088132 0.226500727 255 79 163
18.5612051 12.1998031 0.390889733 255 79 163
18.4686238 12.1177832 0.587737158 255 79 163
19.6769435 11.5981166 0.0260296315 255 79 163
18.4111504 12.0668662 0.807172251 255 79 163
19.4826434 11.4961401 0.102813291 255 79 163
19.3083436 11.4046605 0.226500727 255 79 163
19.1627844 11.3282651 0.390889733 255 79 163
19.0532646 11.2707847 0.587737158 255 79 163
20.1021084 10.4770489 0.0260296315 255 79 163
18.985276 11.2351016 0.807172251 255 79 163
19.8890497 10.4245347 0.102813291 255 79 163
19.6979223 10.377426 0.226500727 255 79 163
19.5383101 10.3380851 0.390889733 255 79 163
19.4182168 10.3084848 0.587737158 255 79 163
20.2466297 9.28680874 0.0260296315 255 79 163
19.3436644 10.2901092 0.807172251 255 79 163
20.0271946 9.28680874 0.102813291 255 79 163
19.8303472 9.28680874 0.226500727 255 79 163
19.6659582 9.28680874 0.390889733 255 79 163
19.5422708 9.28680874 0.587737158 255 79 163
20.1021084 8.09656857 0.0260296315 255 79 163
19.4654871 9.28680874 0.807172251 255 79 163
19.8890497 8.14908282 0.102813291 255 79 163
19.6979223 8.1961915 0.226500727 255 79 163
19.5383101 8.23553236 0.390889733 255 79 163
19.4182168 8.2651327 0.587737158 255 79 163
19.6769435 6.97550083 0.0260296315 255 79 163
19.3436644 8.28350823 0.807172251 255 79 163
19.4826434 7.07747741 0.102813291 255 79 163
19.3083436 7.16895697 0.226500727 255 79 163
19.1627844 7.24535235 0.390889733 255 79 163
19.0532646 7.30283276 0.587737158 255 79 163
18.995844 5.98875791 0.0260296315 255 79 163
18.985276 7.33851591 0.807172251 255 79 163
18.8315945 6.13427029 0.102813291 255 79 163
18.6842521 6.26480428 0.226500727 255 79 163
18.5612051 6.37381436 0.390889733 255 79 163
18.4686238 6.4558343 0.587737158 255 79 163
18.098393 5.19368572 0.0260296315 255 79 163
18.4111504 6.50675128 0.807172251 255 79 163
17.9737397 5.37427726 0.102813291 255 79 163
17.8619176 5.53627951 0.226500727 255 79 163
17.768534 5.67156901 0.390889733 255 79 163
17.6982715 5.77336178 0.587737158 255 79 163
17.0367471 4.63649095 0.0260296315 255 79 163
17.6546535 5.83655349 0.807172251 255 79 163
16.9589344 4.84166633 0.102813291 255 79 163
16.8891313 5.02572187 0.226500727 255 79 163
16.8308382 5.17942826 0.390889733 255 79 163
16.786978 5.29507802 0.587737158 255 79 163
15.8726053 4.34955576 0.0260296315 255 79 163
16.7597501 5.36687199 0.807172251 255 79 163
15.8461553 4.56739092 0.102813291 255 79 163
15.8224279 4.76280311 0.226500727 255 79 163
15.802613 4.92599353 0.390889733 255 79 163
15.7877042 5.04877915 0.587737158 255 79 163
14.6736232 4.34955576 0.0260296315 255 79 163
15.7784489 5.12500297 0.807172251 255 79 163
14.7000731 4.56739092 0.102813291 255 79 163
14.7238005 4.76280311 0.226500727 255 79 163
14.7436154 4.92599353 0.390889733 255 79 163
14.7585242 5.04877915 0.587737158 255 79 163
13.5094813 4.63649095 0.0260296315 255 79 163
14.7677795 5.12500297 0.807172251 255 79 163
13.5872941 4.84166633 0.102813291 255 79 163
13.6570971 5.02572187 0.226500727 255 79 163
13.7153903 5.17942826 0.390889733 255 79 163
13.7592504 5.29507802 0.587737158 255 79 163
12.4478354 5.19368572 0.0260296315 255 79 163
13.7864783 5.36687199 0.807172251 255 79 163
12.5724887 5.37427726 0.102813291 255 79 163
12.6843108 5.53627951 0.226500727 255 79 163
12.7776944 5.67156901 0.390889733 255 79 163
12.8479569 5.77336178 0.587737158 255 79 163
11.5503844 5.98875791 0.0260296315 255 79 163
12.891575 5.83655349 0.807172251 255 79 163
11.7146339 6.13427029 0.102813291 255 79 163
11.8619763 6.26480428 0.226500727 255 79 163
11.9850233 6.37381436 0.390889733 255 79 163
12.0776046 6.4558343 0.587737158 255 79 163
10.8692849 6.97550083 0.0260296315 255 79 163
12.135078 6.50675128 0.807172251 255 79 163
11.0635851 7.07747741 0.102813291 255 79 163
11.2378848 7.16895697 0.226500727 255 79 163
11.383444 7.24535235 0.390889733 255 79 163
11.4929638 7.30283276 0.587737158 255 79 163
10.44412 8.09656857 0.0260296315 255 79 163
11.5609524 7.33851591 0.807172251 255 79 163
10.6571787 8.14908282 0.102813291 255 79 163
10.8483061 8.1961915 0.226500727 255 79 163
11.0079183 8.23553236 0.390889733 255 79 163
11.1280116 8.2651327 0.587737158 255 79 163
11.2025641 8.28350823 0.807172251 255 79 163
53.4825236 15.7545585 1.03819162 218 222 230
53.4825236 15.7545585 67.5145972 218 222 230
32.2598737 15.7545585 67.5145972 218 222 230
12.3952566 15.7545585 33.2412144 218 222 230
31.0599073 15.7545585 1.03819162 218 222 230
30.7581676 14.7163669 66.9939911 255 79 163
12.0970131 14.7163669 34.7970004 255 79 163
32.2598737 15.7545585 67.5145972 255 79 163
31.7029028 15.68107 67.318725 255 79 163
31.4042901 15.5719516 67.2111243 255 79 163
31.1768546 15.4400184 67.1305532 255 79 163
31.0167065 15.3043362 67.076025 255 79 163
30.8712127 15.1168236 67.0288198 255 79 163
30.7963277 14.9525241 67.0055578 255 79 163
30.7678507 14.8359622 66.9969095 255 79 163
12.3952566 15.7545585 33.2412144 255 79 163
12.0970131 15.6172068 33.7557884 255 79 163
12.1913141 15.6927411 33.5930863 255 79 163
12.2917327 15.7389874 33.4198293 255 79 163
11.9798805 15.0381811 34.4929291 255 79 163
11.962772 15.3282931 34.1675268 255 79 163
12.0081849 15.4897587 33.9545801 255 79 163
12.0970131 0 34.7970004 255 79 163
12.0970131 14.7163669 34.7970004 255 79 163
11.9798805 15.0381811 34.4929291 255 79 163
11.962772 15.3282931 34.1675268 255 79 163
12.0081849 15.4897587 33.9545801 255 79 163
12.0970131 15.6172068 33.7557884 255 79 163
12.0970131 1.03819162 33.7557884 255 79 163
11.9798805 0.726734134 34.0598596 255 79 163
11.962772 0.415276648 34.385262 255 79 163
12.0081849 0.207638324 34.5982087 255 79 163
11.1067709 9.28680874 1.03819162 218 222 230
11.1067709 9.28680874 4.83172332 218 222 230
11.2278373 10.2838799 4.83172332 218 222 230
11.5840005 11.223005 4.83172332 218 222 230
12.1545615 12.0496054 4.83172332 218 222 230
12.9063615 12.715642 4.83172332 218 222 230
13.7957085 13.1824074 4.83172332 218 222 230
14.770917 13.4227747 4.83172332 218 222 230
15.7753114 13.4227747 4.83172332 218 222 230
16.7505199 13.1824074 4.83172332 218 222 230
17.6398669 12.715642 4.83172332 218 222 230
18.3916669 12.0496054 4.83172332 218 222 230
18.9622279 11.223005 4.83172332 218 222 230
19.3183911 10.2838799 4.83172332 218 222 230
19.4394575 9.28680874 4.83172332 218 222 230
19.3183911 8.28973753 4.83172332 218 222 230
18.9622279 7.35061248 4.83172332 218 222 230
18.3916669 6.52401212 4.83172332 218 222 230
17.6398669 5.85797546 4.83172332 218 222 230
16.7505199 5.39121012 4.83172332 218 222 230
15.7753114 5.15084281 4.83172332 218 222 230
14.770917 5.15084281 4.83172332 218 222 230
13.7957085 5.39121012 4.83172332 218 222 230
12.9063615 5.85797546 4.83172332 218 222 230
12.1545615 6.52401212 4.83172332 218 222 230
11.5840005 7.35061248 4.83172332 218 222 230
11.2278373 8.28973753 4.83172332 218 222 230
11.1067709 9.28680874 4.83172332 218 222 230
11.1067709 9.28680874 1.03819162 218 222 230
11.2278373 10.2838799 1.03819162 218 222 230
11.5840005 11.223005 1.03819162 218 222 230
12.1545615 12.0496054 1.03819162 218 222 230
12.9063615 12.715642 1.03819162 218 222 230
13.7957085 13.1824074 1.03819162 218 222 230
14.770917 13.4227747 1.03819162 218 222 230
15.7753114 13.4227747 1.03819162 218 222 230
16.7505199 13.1824074 1.03819162 218 222 230
17.6398669 12.715642 1.03819162 218 222 230
18.3916669 12.0496054 1.03819162 218 222 230
18.9622279 11.223005 1.03819162 218 222 230
19.3183911 10.2838799 1.03819162 218 222 230
19.4394575 9.28680874 1.03819162 218 222 230
19.3183911 8.28973753 1.03819162 218 222 230
18.9622279 7.35061248 1.03819162 218 222 230
18.3916669 6.52401212 1.03819162 218 222 230
17.6398669 5.85797546 1.03819162 218 222 230
16.7505199 5.39121012 1.03819162 218 222 230
15.7753114 5.15084281 1.03819162 218 222 230
14.770917 5.15084281 1.03819162 218 222 230
13.7957085 5.39121012 1.03819162 218 222 230
12.9063615 5.85797546 1.03819162 218 222 230
12.1545615 6.52401212 1.03819162 218 222 230
11.5840005 7.35061248 1.03819162 218 222 230
11.2278373 8.28973753 1.03819162 218 222 230
11.1067709 9.28680874 4.83172332 218 222 230
11.2278373 10.2838799 4.83172332 218 222 230
11.5840005 11.223005 4.83172332 218 222 230
12.1545615 12.0496054 4.83172332 218 222 230
12.9063615 12.715642 4.83172332 218 222 230
13.7957085 13.1824074 4.83172332 218 222 230
14.770917 13.4227747 4.83172332 218 222 230
15.7753114 13.4227747 4.83172332 218 222 230
16.7505199 13.1824074 4.83172332 218 222 230
17.6398669 12.715642 4.83172332 218 222 230
18.3916669 12.0496054 4.83172332 218 222 230
18.9622279 11.223005 4.83172332 218 222 230
19.3183911 10.2838799 4.83172332 218 222 230
19.4394575 9.28680874 4.83172332 218 222 230
19.3183911 8.28973753 4.83172332 218 222 230
18.9622279 7.35061248 4.83172332 218 222 230
18.3916669 6.52401212 4.83172332 218 222 230
17.6398669 5.85797546 4.83172332 218 222 230
16.7505199 5.39121012 4.83172332 218 222 230
15.7753114 5.15084281 4.83172332 218 222 230
14.770917 5.15084281 4.83172332 218 222 230
13.7957085 5.39121012 4.83172332 218 222 230
12.9063615 5.85797546 4.83172332 218 222 230
12.1545615 6.52401212 4.83172332 218 222 230
11.5840005 7.35061248 4.83172332 218 222 230
11.2278373 8.28973753 4.83172332 218 222 230
19.1625577 9.28680874 4.83172332 218 222 230
19.0495375 10.2176135 4.83172332 218 222 230
18.7170453 11.0943232 4.83172332 218 222 230
18.1844044 11.8659868 4.83172332 218 222 230
17.4825699 12.4877579 4.83172332 218 222 230
16.6523299 12.9235015 4.83172332 218 222 230
15.7419348 13.1478938 4.83172332 218 222 230
14.8042936 13.1478938 4.83172332 218 222 230
13.8938985 12.9235015 4.83172332 218 222 230
13.0636585 12.4877579 4.83172332 218 222 230
12.361824 11.8659868 4.83172332 218 222 230
11.8291831 11.0943232 4.83172332 218 222 230
11.4966909 10.2176135 4.83172332 218 222 230
11.3836708 9.28680874 4.83172332 218 222 230
11.4966909 8.35600399 4.83172332 218 222 230
11.8291831 7.47929424 4.83172332 218 222 230
12.361824 6.70763065 4.83172332 218 222 230
13.0636585 6.08585953 4.83172332 218 222 230
13.8938985 5.65011593 4.83172332 218 222 230
14.8042936 5.4257237 4.83172332 218 222 230
15.7419348 5.4257237 4.83172332 218 222 230
16.6523299 5.65011593 4.83172332 218 222 230
17.4825699 6.08585953 4.83172332 218 222 230
18.1844044 6.70763065 4.83172332 218 222 230
18.7170453 7.47929424 4.83172332 218 222 230
19.0495375 8.35600399 4.83172332 218 222 230
19.1625577 9.28680874 0 218 222 230
19.0495375 10.2176135 0 218 222 230
18.7170453 11.0943232 0 218 222 230
18.1844044 11.8659868 0 218 222 230
17.4825699 12.4877579 0 218 222 230
16.6523299 12.9235015 0 218 222 230
15.7419348 13.1478938 0 218 222 230
14.8042936 13.1478938 0 218 222 230
13.8938985 12.9235015 0 218 222 230
13.0636585 12.4877579 0 218 222 230
12.361824 11.8659868 0 218 222 230
11.8291831 11.0943232 0 218 222 230
11.4966909 10.2176135 0 218 222 230
11.3836708 9.28680874 0 218 222 230
11.4966909 8.35600399 0 218 222 230
11.8291831 7.47929424 0 218 222 230
12.361824 6.70763065 0 218 222 230
13.0636585 6.08585953 0 218 222 230
13.8938985 5.65011593 0 218 222 230
14.8042936 5.4257237 0 218 222 230
15.7419348 5.4257237 0 218 222 230
16.6523299 5.65011593 0 218 222 230
17.4825699 6.08585953 0 218 222 230
18.1844044 6.70763065 0 218 222 230
18.7170453 7.47929424 0 218 222 230
19.0495375 8.35600399 0 218 222 230
19.1625577 9.28680874 0 218 222 230
19.1625577 9.28680874 4.83172332 218 222 230
19.1625577 9.28680874 4.83172332 218 222 230
19.0495375 10.2176135 4.83172332 218 222 230
18.7170453 11.0943232 4.83172332 218 222 230
18.1844044 11.8659868 4.83172332 218 222 230
17.4825699 12.4877579 4.83172332 218 222 230
16.6523299 12.9235015 4.83172332 218 222 230
15.7419348 13.1478938 4.83172332 218 222 230
14.8042936 13.1478938 4.83172332 218 222 230
13.8938985 12.9235015 4.83172332 218 222 230
13.0636585 12.4877579 4.83172332 218 222 230
12.361824 11.8659868 4.83172332 218 222 230
11.8291831 11.0943232 4.83172332 218 222 230
11.4966909 10.2176135 4.83172332 218 222 230
11.3836708 9.28680874 4.83172332 218 222 230
11.4966909 8.35600399 4.83172332 218 222 230
11.8291831 7.47929424 4.83172332 218 222 230
12.361824 6.70763065 4.83172332 218 222 230
13.0636585 6.08585953 4.83172332 218 222 230
13.8938985 5.65011593 4.83172332 218 222 230
14.8042936 5.4257237 4.83172332 218 222 230
15.7419348 5.4257237 4.83172332 218 222 230
16.6523299 5.65011593 4.83172332 218 222 230
17.4825699 6.08585953 4.83172332 218 222 230
18.1844044 6.70763065 4.83172332 218 222 230
18.7170453 7.47929424 4.83172332 218 222 230
19.0495375 8.35600399 4.83172332 218 222 230
19.1625577 9.28680874 0 218 222 230
19.0495375 10.2176135 0 218 222 230
18.7170453 11.0943232 0 218 222 230
18.1844044 11.8659868 0 218 222 230
17.4825699 12.4877579 0 218 222 230
16.6523299 12.9235015 0 218 222 230
15.7419348 13.1478938 0 218 222 230
14.8042936 13.1478938 0 218 222 230
13.8938985 12.9235015 0 218 222 230
13.0636585 12.4877579 0 218 222 230
12.361824 11.8659868 0 218 222 230
11.8291831 11.0943232 0 218 222 230
11.4966909 10.2176135 0 218 222 230
11.3836708 9.28680874 0 218 222 230
11.4966909 8.35600399 0 218 222 230
11.8291831 7.47929424 0 218 222 230
12.361824 6.70763065 0 218 222 230
13.0636585 6.08585953 0 218 222 230
13.8938985 5.65011593 0 218 222 230
14.8042936 5.4257237 0 218 222 230
15.7419348 5.4257237 0 218 222 230
16.6523299 5.65011593 0 218 222 230
17.4825699 6.08585953 0 218 222 230
18.1844044 6.70763065 0 218 222 230
18.7170453 7.47929424 0 218 222 230
19.0495375 8.35600399 0 218 222 230
3 6 5 4
3 3 13 14
3 3 14 15
3 3 15 6
3 3 6 4
3 12 13 3
3 11 12 3
3 10 11 3
3 9 10 3
3 8 9 3
3 7 8 3
3 1 7 3
3 2 0 1
3 2 1 3
3 22 16 21
3 23 16 22
3 24 16 23
3 25 16 24
3 26 16 25
3 27 16 26
3 28 16 27
3 29 16 28
3 20 17 16
3 20 16 29
3 18 17 20
3 19 18 20
3 41 40 30
3 42 30 31
3 42 41 30
3 43 42 31
3 44 43 31
3 45 31 32
3 45 44 31
3 46 45 32
3 47 32 33
3 47 46 32
3 48 33 34
3 48 47 33
3 49 34 35
3 49 35 36
3 49 48 34
3 39 36 37
3 39 37 38
3 39 49 36
3 62 51 50
3 62 52 51
3 63 53 52
3 63 54 53
3 63 55 54
3 63 52 62
3 64 56 55
3 64 57 56
3 64 55 63
3 65 58 57
3 65 57 64
3 66 58 65
3 67 59 58
3 67 58 66
3 68 60 59
3 68 59 67
3 61 60 68
3 78 69 70
3 79 70 71
3 79 78 70
3 80 71 72
3 80 79 71
3 81 72 73
3 81 80 72
3 82 73 74
3 82 81 73
3 83 74 75
3 83 82 74
3 84 83 75
3 85 75 76
3 85 84 75
3 77 85 76
3 90 89 88
3 92 91 90
3 92 90 88
3 87 93 92
3 87 94 93
3 87 92 88
3 86 88 95
3 86 87 88
3 104 105 106
3 104 106 112
3 103 104 112
3 102 112 111
3 102 103 112
3 101 111 110
3 101 102 111
3 100 110 109
3 100 101 110
3 99 109 108
3 99 100 109
3 98 108 107
3 98 99 108
3 97 107 96
3 97 98 107
3 121 122 129
3 120 128 127
3 120 129 128
3 120 121 129
3 119 127 126
3 119 120 127
3 118 126 125
3 118 119 126
3 117 125 124
3 117 118 125
3 116 124 123
3 116 117 124
3 115 123 113
3 115 116 123
3 114 115 113
3 135 133 134
3 142 132 133
3 142 133 135
3 141 132 142
3 140 132 141
3 139 132 140
3 138 132 139
3 137 132 138
3 136 132 137
3 130 132 136
3 131 136 143
3 131 130 136
3 149 147 148
3 156 147 149
3 155 147 156
3 146 151 150
3 146 152 151
3 146 153 152
3 146 154 153
3 146 155 154
3 146 147 155
3 145 150 144
3 145 146 150
3 163 164 171
3 157 158 178
3 179 167 166
3 180 166 165
3 180 179 166
3 181 165 172
3 181 180 165
3 182 168 167
3 182 179 180
3 182 167 179
3 183 172 173
3 183 181 172
3 184 180 181
3 184 182 180
3 185 169 168
3 185 170 169
3 185 168 182
3 186 173 174
3 186 183 173
3 187 184 181
3 187 181 183
3 188 182 184
3 188 185 182
3 189 174 175
3 189 187 183
3 189 186 174
3 189 183 186
3 190 184 187
3 190 188 184
3 191 162 163
3 191 171 170
3 191 170 185
3 191 185 188
3 191 163 171
3 192 187 189
3 192 190 187
3 193 161 162
3 193 162 191
3 193 188 190
3 193 191 188
3 194 175 176
3 194 176 177
3 194 189 175
3 194 192 189
3 195 159 160
3 195 160 161
3 195 161 193
3 195 190 192
3 195 193 190
3 196 158 159
3 196 177 178
3 196 178 158
3 196 159 195
3 196 194 177
3 196 192 194
3 196 195 192
3 199 208 207
3 200 208 199
3 201 208 200
3 198 205 206
3 209 201 202
3 209 202 203
3 209 203 204
3 209 204 205
3 209 208 201
3 209 205 198
3 197 209 198
3 210 209 197
3 216 218 217
3 211 197 218
3 211 210 197
3 212 211 218
3 213 215 214
3 213 216 215
3 213 218 216
3 213 212 218
3 255 221 256
3 257 256 221
3 254 221 255
3 258 257 221
3 253 221 254
3 233 258 221
3 252 221 253
3 234 233 221
3 235 234 221
3 222 247 246
3 222 248 247
3 222 249 248
3 222 250 249
3 222 251 250
3 222 252 251
3 222 221 252
3 223 244 243
3 223 245 244
3 223 246 245
3 223 222 246
3 224 241 240
3 224 242 241
3 224 243 242
3 224 223 243
3 219 236 235
3 219 237 236
3 219 238 237
3 219 239 238
3 219 240 239
3 219 224 240
3 219 235 221
3 226 225 224
3 226 224 219
3 220 226 219
3 228 220 227
3 228 226 220
3 230 228 229
3 230 231 232
3 230 226 228
3 230 232 226
3 270 259 260
3 270 269 259
3 271 260 261
3 271 270 260
3 272 271 261
3 273 261 262
3 273 272 261
3 274 262 263
3 274 273 262
3 275 263 264
3 275 274 263
3 276 264 265
3 276 275 264
3 277 265 266
3 277 276 265
3 268 266 267
3 268 277 266
3 286 287 294
3 285 293 292
3 285 294 293
3 285 286 294
3 284 292 291
3 284 285 292
3 283 291 290
3 283 284 291
3 282 290 289
3 282 283 290
3 281 289 288
3 281 282 289
3 280 288 278
3 280 281 288
3 279 280 278
3 312 325 311
3 310 309 319
3 326 296 295
3 326 297 296
3 326 295 320
3 327 320 321
3 327 326 320
3 328 298 297
3 328 299 298
3 328 297 326
3 329 321 322
3 329 327 321
3 330 328 326
3 330 326 327
3 331 300 299
3 331 301 300
3 331 302 301
3 331 303 302
3 331 299 328
3 332 322 323
3 332 323 324
3 332 329 322
3 333 327 329
3 333 330 327
3 334 328 330
3 334 331 328
3 334 303 331
3 335 312 313
3 335 313 314
3 335 324 325
3 335 325 312
3 335 332 324
3 336 329 332
3 336 333 329
3 337 304 303
3 337 305 304
3 337 330 333
3 337 303 334
3 337 334 330
3 338 314 315
3 338 315 316
3 338 316 317
3 338 332 335
3 338 336 332
3 338 335 314
3 339 306 305
3 339 307 306
3 339 333 336
3 339 337 333
3 339 305 337
3 340 308 307
3 340 309 308
3 340 317 318
3 340 318 319
3 340 338 317
3 340 339 336
3 340 307 339
3 340 319 309
3 340 336 338
3 352 341 342
3 353 342 343
3 353 352 342
3 354 343 344
3 354 353 343
3 355 344 345
3 355 354 344
3 356 345 346
3 356 355 345
3 357 346 347
3 357 356 346
3 358 347 348
3 358 357 347
3 359 348 349
3 359 358 348
3 360 349 350
3 360 359 349
3 351 360 350
3 370 371 372
3 370 372 378
3 369 378 377
3 369 370 378
3 368 377 376
3 368 369 377
3 367 376 375
3 367 368 376
3 366 367 375
3 365 375 374
3 365 366 375
3 364 374 373
3 364 365 374
3 363 373 361
3 363 364 373
3 362 363 361
3 379 387 394
3 380 393 392
3 380 394 393
3 380 379 394
3 381 392 391
3 381 380 392
3 382 391 390
3 382 381 391
3 383 390 389
3 383 382 390
3 384 383 389
3 385 389 388
3 385 384 389
3 386 385 388
3 398 397 395
3 396 398 395
3 409 402 401
3 419 403 402
3 419 404 403
3 419 405 404
3 419 406 405
3 419 402 409
3 420 409 410
3 420 419 409
3 421 407 406
3 421 406 419
3 422 410 411
3 422 420 410
3 423 419 420
3 423 421 419
3 424 411 412
3 424 422 411
3 425 420 422
3 425 423 420
3 426 412 413
3 426 424 412
3 427 422 424
3 427 425 422
3 428 413 414
3 428 414 415
3 428 415 416
3 428 426 413
3 429 408 407
3 429 407 421
3 430 424 426
3 430 427 424
3 431 421 423
3 431 429 421
3 432 428 416
3 432 426 428
3 432 430 426
3 433 423 425
3 433 431 423
3 434 425 427
3 434 433 425
3 435 427 430
3 435 434 427
3 436 400 437
3 438 416 417
3 438 432 416
3 438 430 432
3 438 417 435
3 438 435 430
3 439 400 436
3 440 399 400
3 440 433 434
3 440 400 439
3 440 439 433
3 441 440 434
3 441 418 399
3 441 435 417
3 441 434 435
3 441 399 440
3 442 418 441
3 442 417 418
3 442 441 417
3 443 400 408
3 443 437 400
3 444 437 443
3 444 443 408
3 444 408 429
3 444 429 431
3 444 431 433
3 444 436 437
3 444 439 436
3 444 433 439
3 451 452 453
3 451 453 460
3 450 451 460
3 449 460 459
3 449 450 460
3 448 459 458
3 448 449 459
3 447 458 457
3 447 448 458
3 446 456 455
3 446 457 456
3 446 447 457
3 445 455 454
3 445 446 455
3 463 470 471
3 466 464 463
3 466 465 464
3 467 466 463
3 468 467 463
3 461 469 468
3 461 468 463
3 462 463 471
3 462 461 463
3 477 476 475
3 478 477 475
3 474 478 475
3 479 478 474
3 473 480 481
3 473 481 482
3 473 482 483
3 473 483 484
3 473 484 485
3 473 485 486
3 473 486 487
3 472 487 479
3 472 479 474
3 472 473 487
3 496 497 504
3 495 504 503
3 495 496 504
3 494 503 502
3 494 495 503
3 493 502 501
3 493 494 502
3 492 501 500
3 492 493 501
3 491 500 499
3 491 492 500
3 490 499 498
3 490 491 499
3 489 498 488
3 489 490 498
3 571 506 505
3 571 505 513
3 572 507 506
3 572 506 571
3 573 508 507
3 573 507 572
3 574 509 508
3 574 508 573
3 575 510 509
3 575 509 574
3 576 513 514
3 576 571 513
3 577 511 510
3 577 512 511
3 577 546 512
3 577 510 575
3 578 571 576
3 578 572 571
3 579 573 572
3 579 572 578
3 580 573 579
3 580 574 573
3 581 574 580
3 581 575 574
3 582 514 515
3 582 576 514
3 583 547 546
3 583 546 577
3 583 577 575
3 583 575 581
3 584 576 582
3 584 578 576
3 585 578 584
3 585 579 578
3 586 580 579
3 586 579 585
3 587 581 580
3 587 580 586
3 588 515 516
3 588 582 515
3 589 548 547
3 589 583 581
3 589 547 583
3 589 581 587
3 590 582 588
3 590 584 582
3 591 585 584
3 591 584 590
3 592 585 591
3 592 586 585
3 593 587 586
3 593 586 592
3 593 589 587
3 594 516 517
3 594 588 516
3 594 590 588
3 595 589 593
3 595 549 548
3 595 548 589
3 596 590 594
3 597 590 596
3 597 591 590
3 597 592 591
3 598 592 597
3 599 593 592
3 599 592 598
3 600 517 518
3 600 594 517
3 601 549 595
3 601 595 593
3 601 550 549
3 601 593 599
3 602 594 600
3 602 596 594
3 603 597 596
3 603 596 602
3 604 598 597
3 604 599 598
3 604 597 603
3 605 599 604
3 606 600 518
3 606 518 519
3 607 601 599
3 607 550 601
3 607 599 605
3 607 551 550
3 608 600 606
3 608 602 600
3 609 602 608
3 609 603 602
3 610 604 603
3 610 603 609
3 611 605 604
3 611 604 610
3 612 606 519
3 612 519 520
3 612 608 606
3 613 607 605
3 613 551 607
3 613 552 551
3 613 605 611
3 614 608 612
3 614 609 608
3 615 609 614
3 616 610 609
3 616 611 610
3 616 609 615
3 617 611 616
3 618 612 520
3 618 520 521
3 618 521 522
3 619 553 552
3 619 552 613
3 619 613 611
3 619 611 617
3 620 612 618
3 620 614 612
3 621 615 614
3 621 614 620
3 622 616 615
3 622 615 621
3 623 617 616
3 623 616 622
3 624 618 522
3 625 554 553
3 625 553 619
3 625 619 617
3 625 617 623
3 626 618 624
3 626 620 618
3 627 622 621
3 627 621 620
3 627 620 626
3 628 622 627
3 629 622 628
3 629 623 622
3 630 522 523
3 630 523 524
3 630 624 522
3 631 623 629
3 631 555 554
3 631 554 625
3 631 625 623
3 632 624 630
3 632 626 624
3 633 626 632
3 633 627 626
3 634 627 633
3 634 628 627
3 635 631 629
3 635 628 634
3 635 629 628
3 636 630 524
3 637 631 635
3 637 556 555
3 637 555 631
3 638 630 636
3 638 632 630
3 639 633 632
3 639 632 638
3 640 634 633
3 640 633 639
3 641 635 634
3 641 634 640
3 642 524 525
3 642 636 524
3 643 637 635
3 643 556 637
3 643 635 641
3 643 557 556
3 644 639 638
3 644 638 636
3 644 636 642
3 645 639 644
3 646 640 639
3 646 641 640
3 646 639 645
3 647 641 646
3 647 643 641
3 648 525 526
3 648 642 525
3 649 557 643
3 649 558 557
3 649 643 647
3 650 644 642
3 650 642 648
3 651 645 644
3 651 646 645
3 651 644 650
3 652 646 651
3 653 647 646
3 653 646 652
3 654 526 527
3 654 648 526
3 655 559 558
3 655 558 649
3 655 649 647
3 655 647 653
3 656 650 648
3 656 648 654
3 657 651 650
3 657 650 656
3 658 651 657
3 658 653 652
3 658 652 651
3 659 653 658
3 660 527 528
3 660 654 527
3 661 560 559
3 661 559 655
3 661 655 653
3 661 653 659
3 662 656 654
3 662 654 660
3 663 657 656
3 663 656 662
3 664 657 663
3 664 658 657
3 665 658 664
3 665 659 658
3 666 528 529
3 666 660 528
3 667 659 665
3 667 561 560
3 667 560 661
3 667 661 659
3 668 660 666
3 668 662 660
3 669 664 663
3 669 663 662
3 669 662 668
3 670 664 669
3 671 665 664
3 671 664 670
3 672 668 666
3 672 529 530
3 672 666 529
3 673 667 665
3 673 561 667
3 673 665 671
3 673 562 561
3 674 668 672
3 675 669 668
3 675 668 674
3 676 670 669
3 676 669 675
3 677 671 670
3 677 670 676
3 678 530 531
3 678 672 530
3 679 671 677
3 679 673 671
3 679 562 673
3 679 563 562
3 680 674 672
3 680 672 678
3 681 675 674
3 681 674 680
3 682 676 675
3 682 675 681
3 683 677 676
3 683 676 682
3 684 531 532
3 684 532 533
3 684 678 531
3 685 677 683
3 685 563 679
3 685 679 677
3 685 564 563
3 686 680 678
3 686 678 684
3 687 681 680
3 687 680 686
3 688 682 681
3 688 683 682
3 688 681 687
3 689 683 688
3 690 533 534
3 690 684 533
3 691 565 564
3 691 566 565
3 691 685 683
3 691 564 685
3 691 683 689
3 692 684 690
3 692 686 684
3 693 687 686
3 693 686 692
3 694 688 687
3 694 687 693
3 695 689 688
3 695 688 694
3 696 690 534
3 696 692 690
3 697 567 566
3 697 566 691
3 697 691 689
3 697 689 695
3 698 692 696
3 699 692 698
3 699 694 693
3 699 693 692
3 700 694 699
3 700 695 694
3 701 695 700
3 702 534 535
3 702 535 536
3 702 696 534
3 703 697 695
3 703 695 701
3 703 567 697
3 704 698 696
3 704 696 702
3 705 699 698
3 705 698 704
3 706 700 699
3 706 699 705
3 707 701 700
3 707 700 706
3 708 702 536
3 708 704 702
3 709 701 707
3 709 703 701
3 709 567 703
3 709 568 567
3 709 569 568
3 710 704 708
3 711 705 704
3 711 704 710
3 712 706 705
3 712 707 706
3 712 705 711
3 713 707 712
3 714 708 536
3 714 536 537
3 714 537 538
3 714 538 539
3 715 569 709
3 715 707 713
3 715 709 707
3 716 539 540
3 716 710 708
3 716 708 714
3 716 714 539
3 717 540 541
3 717 711 710
3 717 716 540
3 717 710 716
3 718 541 542
3 718 712 711
3 718 717 541
3 718 711 717
3 719 542 543
3 719 543 544
3 719 713 712
3 719 718 542
3 719 712 718
3 720 569 715
3 720 544 545
3 720 713 719
3 720 715 713
3 720 570 569
3 720 545 570
3 720 719 544
3 722 723 724
3 721 724 725
3 721 722 724
3 727 735 726
3 740 733 734
3 740 734 735
3 740 735 727
3 741 731 732
3 741 732 733
3 741 733 740
3 742 730 731
3 742 731 741
3 737 729 730
3 737 730 742
3 738 729 737
3 739 728 729
3 739 729 738
3 736 728 739
3 747 749 748
3 747 750 749
3 746 751 750
3 746 750 747
3 745 752 751
3 745 751 746
3 744 743 752
3 744 752 745
3 782 754 753
3 782 755 754
3 783 756 755
3 783 757 756
3 783 755 782
3 784 757 783
3 785 758 757
3 785 759 758
3 785 757 784
3 786 759 785
3 787 760 759
3 787 759 786
3 788 761 760
3 788 760 787
3 789 762 761
3 789 761 788
3 790 763 762
3 790 764 763
3 790 762 789
3 791 765 764
3 791 764 790
3 792 765 791
3 792 766 765
3 793 766 792
3 794 766 793
3 794 767 766
3 794 768 767
3 795 768 794
3 796 769 768
3 796 768 795
3 797 770 769
3 797 769 796
3 798 771 770
3 798 770 797
3 799 772 771
3 799 771 798
3 800 773 772
3 800 772 799
3 801 774 773
3 801 775 774
3 801 773 800
3 802 775 801
3 803 776 775
3 803 775 802
3 804 777 776
3 804 778 777
3 804 776 803
3 805 778 804
3 806 779 778
3 806 778 805
3 781 780 779
3 781 779 806
3 856 823 824
3 855 856 824
3 825 855 824
3 857 822 823
3 857 823 856
3 854 855 825
3 858 821 822
3 858 822 857
3 826 854 825
3 853 854 826
3 833 820 821
3 833 821 858
3 827 853 826
3 852 853 827
3 834 819 820
3 834 820 833
3 828 852 827
3 851 852 828
3 835 818 819
3 835 819 834
3 829 851 828
3 850 851 829
3 836 817 818
3 836 818 835
3 830 849 850
3 830 850 829
3 816 817 836
3 816 836 837
3 831 848 849
3 831 849 830
3 815 816 837
3 815 837 838
3 832 847 848
3 832 848 831
3 814 815 838
3 814 838 839
3 807 847 832
3 807 846 847
3 813 814 839
3 813 839 840
3 808 845 846
3 808 846 807
3 812 813 840
3 812 840 841
3 809 844 845
3 809 845 808
3 811 841 842
3 811 812 841
3 810 842 843
3 810 843 844
3 810 844 809
3 810 811 842
3 884 885 886
3 884 886 912
3 883 911 910
3 883 912 911
3 883 884 912
3 882 883 910
3 881 910 909
3 881 882 910
3 880 909 908
3 880 881 909
3 879 907 906
3 879 908 907
3 879 880 908
3 878 879 906
3 877 905 904
3 877 906 905
3 877 878 906
3 876 877 904
3 875 903 902
3 875 904 903
3 875 876 904
3 874 875 902
3 873 874 902
3 873 902 901
3 872 873 901
3 872 901 900
3 871 872 900
3 871 900 899
3 870 871 899
3 870 899 898
3 869 870 898
3 869 897 896
3 869 898 897
3 868 869 896
3 868 896 895
3 867 868 895
3 866 867 895
3 866 895 894
3 865 894 893
3 865 866 894
3 864 893 892
3 864 865 893
3 863 892 891
3 863 864 892
3 862 890 889
3 862 891 890
3 862 863 891
3 861 862 889
3 860 888 887
3 860 889 888
3 860 861 889
3 859 860 887
3 931 930 929
3 926 928 927
3 926 929 928
3 935 934 933
3 923 925 924
3 923 926 925
3 921 923 922
3 938 937 936
3 920 929 926
3 920 926 923
3 920 923 921
3 919 932 931
3 919 931 929
3 919 929 920
3 914 933 932
3 914 936 935
3 914 913 938
3 914 935 933
3 914 938 936
3 917 919 918
3 917 932 919
3 916 915 914
3 916 914 932
3 916 932 917
