ply
format ascii 1.0
comment generated by blendit.inference.finetune_visualize
element vertex 1403
property float x
property float y
property float z
property uchar red
property uchar green
property uchar blue
element face 1602
property list uchar int vertex_indices
end_header
0 79.7037863 0.266199207 218 222 230
-5.55111512e-17 79.7037863 73.9168914 218 222 230
-5.55111512e-17 0 73.9168914 218 222 230
0 -5.55111512e-17 0.266199207 218 222 230
0 0.0066741699 0.206964311 218 222 230
0 0.0263620088 0.1506997 218 222 230
0 0.0580762864 0.100226716 218 222 230
0 0.100226716 0.0580762864 218 222 230
0 0.1506997 0.0263620088 218 222 230
0 0.206964311 0.0066741699 218 222 230
0 0.266199207 -5.55111512e-17 218 222 230
0 23.7730687 -5.55111512e-17 218 222 230
-4.16333634e-17 23.7730687 53.5828781 218 222 230
-4.15826307e-17 23.7754198 53.6045613 218 222 230
-4.07860063e-17 23.7818769 53.6253361 218 222 230
-3.9582364e-17 23.7915828 53.6448205 218 222 230
-3.76995385e-17 23.808286 53.6686076 218 222 230
-3.47526332e-17 23.8386889 53.6998922 218 222 230
-3.04170852e-17 23.891185 53.7388318 218 222 230
-2.37440079e-17 23.9783774 53.7837895 218 222 230
-1.58195857e-17 24.0828144 53.8194143 218 222 230
-7.17291699e-18 24.1932082 53.8414493 218 222 230
0 24.3054671 53.8490773 218 222 230
0 28.4657639 53.8490773 218 222 230
-6.9388939e-17 28.9981623 53.5828781 218 222 230
-6.90090442e-17 28.9958112 53.6045613 218 222 230
-6.74271195e-17 28.9893541 53.6253361 218 222 230
-6.52057292e-17 28.9796482 53.6448205 218 222 230
-6.18372546e-17 28.962945 53.6686076 218 222 230
-5.66907991e-17 28.9325421 53.6998922 218 222 230
-4.93263091e-17 28.880046 53.7388318 218 222 230
-3.83588764e-17 28.7928536 53.7837895 218 222 230
-2.56191729e-17 28.6884166 53.8194143 218 222 230
-1.1717164e-17 28.5780228 53.8414493 218 222 230
-5.55111512e-17 28.9981623 0.266199207 218 222 230
0 74.0544264 23.2893758 218 222 230
0 70.7848428 21.5999771 218 222 230
-5.55111512e-17 70.5117619 21.4588759 218 222 230
0 67.5432768 23.3627469 218 222 230
0 67.4563827 23.4322988 218 222 230
0 67.3858482 23.5183971 218 222 230
0 67.3347558 23.6172789 218 222 230
0 67.3053386 23.7246226 218 222 230
0 67.2988823 23.8357367 218 222 230
-5.55111512e-17 67.4777835 27.6655013 218 222 230
-5.55111512e-17 71.1569884 29.5665519 218 222 230
0 74.3842112 27.4967365 218 222 230
-1.06211657e-18 74.3997733 27.4842091 218 222 230
-1.86317935e-18 74.4107179 27.4699805 218 222 230
-2.46625016e-18 74.4176247 27.455396 218 222 230
-2.96427903e-18 74.4219102 27.4398065 218 222 230
-3.6482687e-18 74.4244023 27.4089135 218 222 230
-4.06574036e-18 74.4210403 27.369746 218 222 230
-2.89690905e-18 74.3933075 27.2383197 218 222 230
0 74.3626965 27.0361682 218 222 230
0 74.1981384 23.5134492 218 222 230
0 74.1009262 23.31995 218 222 230
0 74.1400531 23.3595239 218 222 230
0 74.170097 23.406368 218 222 230
0 74.189745 23.458435 218 222 230
0 65.1324331 39.8682409 218 222 230
0 68.3291144 48.2736677 218 222 230
-2.77555756e-17 64.4644735 39.6345928 218 222 230
-2.7541429e-17 64.4804075 39.6181761 218 222 230
-2.69230514e-17 64.4992101 39.6051926 218 222 230
-2.63423792e-17 64.5199184 39.5954414 218 222 230
-2.55838038e-17 64.5491701 39.5867513 218 222 230
-2.43284575e-17 64.5945637 39.5808287 218 222 230
-2.21941886e-17 64.6631647 39.5831032 218 222 230
-1.85381898e-17 64.7642044 39.6030739 218 222 230
-1.39831342e-17 64.8731701 39.6424871 218 222 230
-9.21888073e-18 64.9751236 39.6975265 218 222 230
-4.4764974e-18 65.0655176 39.7698418 218 222 230
-1.9392426e-18 65.1029547 39.8140516 218 222 230
-6.5118682e-19 65.1194081 39.8402231 218 222 230
-5.55111512e-17 57.7047777 48.2654936 218 222 230
-5.55111512e-17 68.4313917 48.5425978 218 222 230
0.266199207 79.7037863 74.1830907 218 222 230
37.805167 79.7037863 74.1830907 218 222 230
37.805167 79.7037863 0.266199207 218 222 230
0 79.7037863 0.266199207 218 222 230
-5.55111512e-17 79.7037863 73.9168914 218 222 230
0.0066741699 79.7037863 73.9761263 218 222 230
0.0263620088 79.7037863 74.032391 218 222 230
0.0580762864 79.7037863 74.0828639 218 222 230
0.100226716 79.7037863 74.1250144 218 222 230
0.1506997 79.7037863 74.1567286 218 222 230
0.206964311 79.7037863 74.1764165 218 222 230
-5.55111512e-17 28.9981623 0.266199207 255 79 163
0 79.7037863 0.266199207 255 79 163
0.00391729296 79.699869 0.220699588 255 79 163
0.0155538808 79.6882324 0.176539081 255 79 163
0.0345672839 79.669219 0.135017387 255 79 163
0.0603979131 79.6433884 0.097356543 255 79 163
0.0922855397 79.6115007 0.0646649565 255 79 163
0.12929167 79.5744946 0.037904783 255 79 163
0.184695084 79.5190912 0.0127843382 255 79 163
0.22494887 79.4788374 0.0032155051 255 79 163
0.266199207 79.4375871 -5.55111512e-17 255 79 163
0.266199207 28.9981623 0 255 79 163
0.206964311 28.9981623 0.0066741699 255 79 163
0.1506997 28.9981623 0.0263620088 255 79 163
0.100226716 28.9981623 0.0580762864 255 79 163
0.0580762864 28.9981623 0.100226716 255 79 163
0.0263620088 28.9981623 0.1506997 255 79 163
0.0066741699 28.9981623 0.206964311 255 79 163
-5.55111512e-17 0 73.9168914 255 79 163
0.00391729296 0.00391729296 73.9623911 255 79 163
0.0155538808 0.0155538808 74.0065516 255 79 163
0.0345672839 0.0345672839 74.0480733 255 79 163
0.0603979131 0.0603979131 74.0857341 255 79 163
0.0922855397 0.0922855397 74.1184257 255 79 163
0.12929167 0.12929167 74.1451859 255 79 163
0.184695084 0.184695084 74.1703063 255 79 163
0.22494887 0.22494887 74.1798752 255 79 163
0.266199207 0.266199207 74.1830907 255 79 163
0.266199207 79.7037863 74.1830907 255 79 163
-5.55111512e-17 79.7037863 73.9168914 255 79 163
0.0066741699 79.7037863 73.9761263 255 79 163
0.0263620088 79.7037863 74.032391 255 79 163
0.0580762864 79.7037863 74.0828639 255 79 163
0.100226716 79.7037863 74.1250144 255 79 163
0.1506997 79.7037863 74.1567286 255 79 163
0.206964311 79.7037863 74.1764165 255 79 163
0.266199207 28.7319631 0.266199207 255 79 163
0.206964311 28.7386373 0.266199207 255 79 163
0.1506997 28.7583251 0.266199207 255 79 163
0.100226716 28.7900394 0.266199207 255 79 163
0.0580762864 28.8321898 0.266199207 255 79 163
0.0263620088 28.8826628 0.266199207 255 79 163
0.0066741699 28.9389274 0.266199207 255 79 163
-5.55111512e-17 28.9981623 0.266199207 255 79 163
0.266199207 28.7319631 53.5828781 255 79 163
-6.9388939e-17 28.9981623 53.5828781 255 79 163
0.00735479785 28.9360197 53.5828781 255 79 163
0.0290141004 28.8773102 53.5828781 255 79 163
0.0637798955 28.8252796 53.5828781 255 79 163
0.109731002 28.7828029 53.5828781 255 79 163
0.164329209 28.7522263 53.5828781 255 79 163
0.214266652 28.7370777 53.5828781 255 79 163
0 -5.55111512e-17 0.266199207 218 222 230
-5.55111512e-17 0 73.9168914 218 222 230
37.805167 -5.55111512e-17 73.9168914 218 222 230
37.805167 -5.55111512e-17 0.266199207 218 222 230
0 28.4657639 53.8490773 255 79 163
0 28.4657639 53.8490773 255 79 163
-6.9388939e-17 28.9981623 53.5828781 255 79 163
-6.90090442e-17 28.9958112 53.6045613 255 79 163
-6.74271195e-17 28.9893541 53.6253361 255 79 163
-6.52057292e-17 28.9796482 53.6448205 255 79 163
-6.18372546e-17 28.962945 53.6686076 255 79 163
-5.66907991e-17 28.9325421 53.6998922 255 79 163
-4.93263091e-17 28.880046 53.7388318 255 79 163
-3.83588764e-17 28.7928536 53.7837895 255 79 163
-2.56191729e-17 28.6884166 53.8194143 255 79 163
-1.1717164e-17 28.5780228 53.8414493 255 79 163
0.00735479785 28.9360197 53.5828781 255 79 163
0.0290141004 28.8773102 53.5828781 255 79 163
0.0637798955 28.8252796 53.5828781 255 79 163
0.109731002 28.7828029 53.5828781 255 79 163
0.164329209 28.7522263 53.5828781 255 79 163
0.214266652 28.7370777 53.5828781 255 79 163
0.266199207 28.7319631 53.5828781 255 79 163
0.221832673 28.7228926 53.6517755 255 79 163
0.177466138 28.6962992 53.7159777 255 79 163
0.133099604 28.6539952 53.7711093 255 79 163
0.088733069 28.5988585 53.8134154 255 79 163
0.0443665345 28.5346663 53.8400047 255 79 163
0.00819463935 28.8637072 53.7085834 255 79 163
0.0173890704 28.8386715 53.706076 255 79 163
0.0293341686 28.8151023 53.703518 255 79 163
0.0437523162 28.7933873 53.7009318 255 79 163
0.060473021 28.7738363 53.6983496 255 79 163
0.100363534 28.7421069 53.6933462 255 79 163
0.147769259 28.7211299 53.6887759 255 79 163
0.0418504569 28.6952874 53.7764904 255 79 163
0.0347551898 28.6605453 53.7983722 255 79 163
0.0278736786 28.6249337 53.8159114 255 79 163
0.0205829162 28.5853811 53.8305924 255 79 163
0.0137716937 28.5468655 53.8406221 255 79 163
0.0143779759 28.7748911 53.7588222 255 79 163
0.0125977023 28.739178 53.7804222 255 79 163
0.011547008 28.7182804 53.7912497 255 79 163
0.00937695941 28.6750079 53.8101261 255 79 163
0.00831727405 28.653594 53.8178948 255 79 163
0.0071980812 28.6305341 53.8252011 255 79 163
0.00503433953 28.5834717 53.8369378 255 79 163
0.00407487709 28.5609172 53.8411318 255 79 163
0.00113778385 28.5691991 53.8412912 255 79 163
0 -5.55111512e-17 0.266199207 255 79 163
0 0.0066741699 0.206964311 255 79 163
0 0.0263620088 0.1506997 255 79 163
0 0.0580762864 0.100226716 255 79 163
0 0.100226716 0.0580762864 255 79 163
0 0.1506997 0.0263620088 255 79 163
0 0.206964311 0.0066741699 255 79 163
0 0.266199207 -5.55111512e-17 255 79 163
37.805167 0.266199207 0 255 79 163
37.805167 0.206964311 0.0066741699 255 79 163
37.805167 0.1506997 0.0263620088 255 79 163
37.805167 0.100226716 0.0580762864 255 79 163
37.805167 0.0580762864 0.100226716 255 79 163
37.805167 0.0263620088 0.1506997 255 79 163
37.805167 0.0066741699 0.206964311 255 79 163
37.805167 -5.55111512e-17 0.266199207 255 79 163
0 24.3054671 53.8490773 218 222 230
0 28.4657639 53.8490773 218 222 230
27.855414 24.3054671 53.8490773 218 222 230
27.855414 28.4657639 53.8490773 218 222 230
0 0.266199207 -5.55111512e-17 218 222 230
0 23.7730687 -5.55111512e-17 218 222 230
37.805167 0.266199207 0 218 222 230
37.805167 79.4375871 0 218 222 230
0.266199207 79.4375871 -5.55111512e-17 218 222 230
0.266199207 28.9981623 0 218 222 230
28.1216132 28.9981623 -5.55111512e-17 218 222 230
28.1216132 28.7319631 0 218 222 230
28.1216132 24.0392679 0 218 222 230
28.1216132 23.7730687 -5.55111512e-17 218 222 230
0 24.3054671 53.8490773 218 222 230
0 24.3054671 53.8490773 218 222 230
-4.16333634e-17 23.7730687 53.5828781 218 222 230
-4.15826307e-17 23.7754198 53.6045613 218 222 230
-4.07860063e-17 23.7818769 53.6253361 218 222 230
-3.9582364e-17 23.7915828 53.6448205 218 222 230
-3.76995385e-17 23.808286 53.6686076 218 222 230
-3.47526332e-17 23.8386889 53.6998922 218 222 230
-3.04170852e-17 23.891185 53.7388318 218 222 230
-2.37440079e-17 23.9783774 53.7837895 218 222 230
-1.58195857e-17 24.0828144 53.8194143 218 222 230
-7.17291699e-18 24.1932082 53.8414493 218 222 230
0.00735479785 23.8352113 53.5828781 218 222 230
0.0290141004 23.8939207 53.5828781 218 222 230
0.0637798955 23.9459514 53.5828781 218 222 230
0.109731002 23.9884281 53.5828781 218 222 230
0.164329209 24.0190047 53.5828781 218 222 230
0.214266652 24.0341533 53.5828781 218 222 230
0.266199207 24.0392679 53.5828781 218 222 230
0.221832673 24.0483384 53.6517755 218 222 230
0.177466138 24.0749318 53.7159777 218 222 230
0.133099604 24.1172358 53.7711093 218 222 230
0.088733069 24.1723725 53.8134154 218 222 230
0.0443665345 24.2365647 53.8400047 218 222 230
0.00819463935 23.9075238 53.7085834 218 222 230
0.0173890704 23.9325595 53.706076 218 222 230
0.0293341686 23.9561287 53.703518 218 222 230
0.0437523162 23.9778436 53.7009318 218 222 230
0.060473021 23.9973946 53.6983496 218 222 230
0.100363534 24.0291241 53.6933462 218 222 230
0.147769259 24.0501011 53.6887759 218 222 230
0.0418504569 24.0759435 53.7764904 218 222 230
0.0347551898 24.1106857 53.7983722 218 222 230
0.0278736786 24.1462973 53.8159114 218 222 230
0.0205829162 24.1858499 53.8305924 218 222 230
0.0137716937 24.2243655 53.8406221 218 222 230
0.0143779759 23.9963399 53.7588222 218 222 230
0.0125977023 24.032053 53.7804222 218 222 230
0.011547008 24.0529506 53.7912497 218 222 230
0.00937695941 24.0962231 53.8101261 218 222 230
0.00831727405 24.117637 53.8178948 218 222 230
0.0071980812 24.1406969 53.8252011 218 222 230
0.00503433953 24.1877593 53.8369378 218 222 230
0.00407487709 24.2103138 53.8411318 218 222 230
0.00113778385 24.2020319 53.8412912 218 222 230
0 23.7730687 -5.55111512e-17 255 79 163
-4.16333634e-17 23.7730687 53.5828781 255 79 163
0.00735479785 23.8352113 53.5828781 255 79 163
0.0290141004 23.8939207 53.5828781 255 79 163
0.0637798955 23.9459514 53.5828781 255 79 163
0.109731002 23.9884281 53.5828781 255 79 163
0.164329209 24.0190047 53.5828781 255 79 163
0.214266652 24.0341533 53.5828781 255 79 163
0.266199207 24.0392679 53.5828781 255 79 163
0.266199207 24.0392679 0.266199207 255 79 163
0.00391729296 23.8185683 0.00391729296 255 79 163
0.0155538808 23.8627288 0.0155538808 255 79 163
0.0345672839 23.9042505 0.0345672839 255 79 163
0.0603979131 23.9419113 0.0603979131 255 79 163
0.0922855397 23.9746029 0.0922855397 255 79 163
0.12929167 24.0013631 0.12929167 255 79 163
0.184695084 24.0264835 0.184695084 255 79 163
0.22494887 24.0360524 0.22494887 255 79 163
0.266199207 70.7848428 21.5999771 218 222 230
28.78601 70.7848428 21.5999771 218 222 230
-5.55111512e-17 70.5117619 21.4588759 218 222 230
0.00907051803 70.5824405 21.4953955 218 222 230
0.0356639313 70.6483023 21.5294265 218 222 230
0.0779679426 70.7048592 21.5586495 218 222 230
0.127110503 70.7446016 21.5791845 218 222 230
0.177997324 70.769417 21.5920066 218 222 230
0.221461963 70.7809587 21.5979702 218 222 230
0 70.7848428 21.5999771 218 222 230
0 74.0544264 23.2893758 218 222 230
28.78601 74.0544264 23.2893758 218 222 230
0 74.0544264 23.2893758 255 79 163
0 74.1009262 23.31995 255 79 163
0 74.1400531 23.3595239 255 79 163
0 74.170097 23.406368 255 79 163
0 74.189745 23.458435 255 79 163
0 74.1981384 23.5134492 255 79 163
28.78601 74.1981384 23.5134492 255 79 163
28.78601 74.0544264 23.2893758 255 79 163
28.78601 74.1009262 23.31995 255 79 163
28.78601 74.1400531 23.3595239 255 79 163
28.78601 74.170097 23.406368 255 79 163
28.78601 74.189745 23.458435 255 79 163
0 74.3626965 27.0361682 218 222 230
0 74.1981384 23.5134492 218 222 230
28.78601 74.3626965 27.0361682 218 222 230
28.78601 74.1981384 23.5134492 218 222 230
-5.55111512e-17 70.5117619 21.4588759 255 79 163
0 67.5432768 23.3627469 255 79 163
0.0066741699 67.5752557 23.4126079 255 79 163
0.0263620088 67.6056311 23.4599687 255 79 163
0.0580762864 67.6328797 23.5024544 255 79 163
0.100226716 67.6556353 23.5379345 255 79 163
0.1506997 67.6727568 23.56463 255 79 163
0.206964311 67.6833856 23.5812023 255 79 163
0.266199207 67.6869888 23.5868203 255 79 163
0.266199207 70.7848428 21.5999771 255 79 163
0.00907051803 70.5824405 21.4953955 255 79 163
0.0356639313 70.6483023 21.5294265 255 79 163
0.0779679426 70.7048592 21.5586495 255 79 163
0.127110503 70.7446016 21.5791845 255 79 163
0.177997324 70.769417 21.5920066 255 79 163
0.221461963 70.7809587 21.5979702 255 79 163
0 74.3626965 27.0361682 255 79 163
0 74.3626965 27.0361682 255 79 163
0 74.3842112 27.4967365 255 79 163
-1.06211657e-18 74.3997733 27.4842091 255 79 163
-1.86317935e-18 74.4107179 27.4699805 255 79 163
-2.46625016e-18 74.4176247 27.455396 255 79 163
-2.96427903e-18 74.4219102 27.4398065 255 79 163
-3.6482687e-18 74.4244023 27.4089135 255 79 163
-4.06574036e-18 74.4210403 27.369746 255 79 163
-2.89690905e-18 74.3933075 27.2383197 255 79 163
0.00735479785 74.3506625 27.4444279 255 79 163
0.0290141004 74.3189672 27.3950092 255 79 163
0.0637798955 74.2908777 27.3512124 255 79 163
0.109731002 74.2679459 27.3154576 255 79 163
0.164329209 74.2514386 27.2897197 255 79 163
0.214266652 74.2432604 27.2769684 255 79 163
0.266199207 74.2404992 27.2726631 255 79 163
0.186339445 74.3027079 27.2172868 255 79 163
0.106479683 74.3447597 27.1453972 255 79 163
0.0532398414 74.3594683 27.0917253 255 79 163
0.00877413118 74.3823947 27.3985267 255 79 163
0.0328098113 74.3476431 27.3508105 255 79 163
0.0695408992 74.3175941 27.3103364 255 79 163
0.11692172 74.2937529 27.2794231 255 79 163
0.172583308 74.2770856 27.2595485 255 79 163
0.0569318602 74.341374 27.2623847 255 79 163
0.0459008946 74.3514969 27.2207853 255 79 163
0.0336581093 74.3580779 27.1737323 255 79 163
0.0253936137 74.3607339 27.141104 255 79 163
0.0152058851 74.3785867 27.2841982 255 79 163
0.0119968801 74.376174 27.2310905 255 79 163
0.0101366288 74.3739951 27.2022707 255 79 163
0.00886845987 74.372399 27.1828902 255 79 163
0 67.5432768 23.3627469 255 79 163
0.0066741699 67.5752557 23.4126079 255 79 163
0.0263620088 67.6056311 23.4599687 255 79 163
0.0580762864 67.6328797 23.5024544 255 79 163
0.100226716 67.6556353 23.5379345 255 79 163
0.1506997 67.6727568 23.56463 255 79 163
0.206964311 67.6833856 23.5812023 255 79 163
0.266199207 67.6869888 23.5868203 255 79 163
0 67.4563827 23.4322988 255 79 163
0 67.3858482 23.5183971 255 79 163
0 67.3347558 23.6172789 255 79 163
0 67.3053386 23.7246226 255 79 163
0 67.2988823 23.8357367 255 79 163
0.0066741699 67.3580526 23.8329727 255 79 163
0.0263620088 67.414256 23.8303472 255 79 163
0.0580762864 67.464674 23.827992 255 79 163
0.100226716 67.5067785 23.8260252 255 79 163
0.1506997 67.5384582 23.8245453 255 79 163
0.206964311 67.5581246 23.8236266 255 79 163
0.266199207 67.5647915 23.8233152 255 79 163
0.266199207 67.6435417 23.6215962 255 79 163
0.266199207 67.6082745 23.6646454 255 79 163
0.266199207 67.5827283 23.7140863 255 79 163
0.266199207 67.5680197 23.7677581 255 79 163
0.0066741699 67.4980295 23.4744214 255 79 163
0.0263620088 67.537588 23.5144319 255 79 163
0.0066741699 67.4353427 23.5509404 255 79 163
0.0580762864 67.5730745 23.5503238 255 79 163
0.0263620088 67.4823553 23.5818518 255 79 163
0.0066741699 67.3899349 23.6388205 255 79 163
0.100226716 67.6027095 23.5802975 255 79 163
0.0580762864 67.5245287 23.6095814 255 79 163
0.0263620088 67.442347 23.659282 255 79 163
0.1506997 67.6250072 23.6028499 255 79 163
0.0066741699 67.3637906 23.7342211 255 79 163
0.100226716 67.559748 23.6327386 255 79 163
0.0580762864 67.4893641 23.6776373 255 79 163
0.206964311 67.6388493 23.6168501 255 79 163
0.0263620088 67.4193117 23.7433384 255 79 163
0.1506997 67.5862473 23.6501622 255 79 163
0.100226716 67.5286285 23.6929659 255 79 163
0.0580762864 67.4691176 23.7515171 255 79 163
0.206964311 67.6026978 23.6609786 255 79 163
0.1506997 67.5581713 23.7044993 255 79 163
0.100226716 67.5107109 23.7583473 255 79 163
0.206964311 67.5765111 23.7116591 255 79 163
0.1506997 67.5420061 23.7634864 255 79 163
0.206964311 67.5614337 23.7666766 255 79 163
-5.55111512e-17 71.1569884 29.5665519 255 79 163
0 74.3842112 27.4967365 255 79 163
0.00735479785 74.3506625 27.4444279 255 79 163
0.0290141004 74.3189672 27.3950092 255 79 163
0.0637798955 74.2908777 27.3512124 255 79 163
0.109731002 74.2679459 27.3154576 255 79 163
0.164329209 74.2514386 27.2897197 255 79 163
0.214266652 74.2432604 27.2769684 255 79 163
0.266199207 74.2404992 27.2726631 255 79 163
0.266199207 71.1426452 29.2595063 255 79 163
0.00907051803 71.1532761 29.4870826 255 79 163
0.0356639313 71.1498168 29.4130291 255 79 163
0.0779679426 71.1468462 29.3494379 255 79 163
0.127110503 71.1447588 29.3047525 255 79 163
0.177997324 71.1434554 29.2768507 255 79 163
0.221461963 71.1428492 29.2638735 255 79 163
0 67.2988823 23.8357367 255 79 163
-5.55111512e-17 67.4777835 27.6655013 255 79 163
0.00907051803 67.5447497 27.6225518 255 79 163
0.0356639313 67.6071523 27.5825292 255 79 163
0.0779679426 67.6607387 27.548161 255 79 163
0.127110503 67.6983936 27.5240106 255 79 163
0.177997324 67.7219056 27.5089309 255 79 163
0.221461963 67.7328411 27.5019173 255 79 163
0.266199207 67.7365212 27.499557 255 79 163
0.266199207 67.5647915 23.8233152 255 79 163
0.0066741699 67.3580526 23.8329727 255 79 163
0.0263620088 67.414256 23.8303472 255 79 163
0.0580762864 67.464674 23.827992 255 79 163
0.100226716 67.5067785 23.8260252 255 79 163
0.1506997 67.5384582 23.8245453 255 79 163
0.206964311 67.5581246 23.8236266 255 79 163
-5.55111512e-17 67.4777835 27.6655013 255 79 163
-5.55111512e-17 71.1569884 29.5665519 255 79 163
0.00907051803 71.1532761 29.4870826 255 79 163
0.0356639313 71.1498168 29.4130291 255 79 163
0.0779679426 71.1468462 29.3494379 255 79 163
0.127110503 71.1447588 29.3047525 255 79 163
0.177997324 71.1434554 29.2768507 255 79 163
0.221461963 71.1428492 29.2638735 255 79 163
0.266199207 71.1426452 29.2595063 255 79 163
0.266199207 67.7365212 27.499557 255 79 163
0.00907051803 67.5447497 27.6225518 255 79 163
0.0356639313 67.6071523 27.5825292 255 79 163
0.0779679426 67.6607387 27.548161 255 79 163
0.127110503 67.6983936 27.5240106 255 79 163
0.177997324 67.7219056 27.5089309 255 79 163
0.221461963 67.7328411 27.5019173 255 79 163
37.805167 68.3291144 48.2736677 218 222 230
0.266199207 68.3291144 48.2736677 218 222 230
37.805167 65.1324331 39.8682409 218 222 230
0 65.1324331 39.8682409 218 222 230
0 68.3291144 48.2736677 218 222 230
-5.55111512e-17 68.4313917 48.5425978 218 222 230
0.00907051803 68.4049204 48.4729936 218 222 230
0.0356639313 68.3802531 48.4081328 218 222 230
0.0731051247 68.3609887 48.3574785 218 222 230
0.115997172 68.346951 48.3205674 218 222 230
0.165618289 68.3366962 48.2936033 218 222 230
0.214950012 68.3310278 48.2786986 218 222 230
0 65.1324331 39.8682409 218 222 230
0 65.1324331 39.8682409 218 222 230
-2.77555756e-17 64.4644735 39.6345928 218 222 230
-2.7541429e-17 64.4804075 39.6181761 218 222 230
-2.69230514e-17 64.4992101 39.6051926 218 222 230
-2.63423792e-17 64.5199184 39.5954414 218 222 230
-2.55838038e-17 64.5491701 39.5867513 218 222 230
-2.43284575e-17 64.5945637 39.5808287 218 222 230
-2.21941886e-17 64.6631647 39.5831032 218 222 230
-1.85381898e-17 64.7642044 39.6030739 218 222 230
-1.39831342e-17 64.8731701 39.6424871 218 222 230
-9.21888073e-18 64.9751236 39.6975265 218 222 230
-4.4764974e-18 65.0655176 39.7698418 218 222 230
-1.9392426e-18 65.1029547 39.8140516 218 222 230
-6.5118682e-19 65.1194081 39.8402231 218 222 230
0.00735479785 64.5133972 39.6729097 218 222 230
0.0290141004 64.5596179 39.7091097 218 222 230
0.0637798955 64.6005806 39.7411915 218 222 230
0.109731002 64.6340217 39.7673825 218 222 230
0.164329209 64.6580941 39.7862359 218 222 230
0.214266652 64.6700202 39.7955764 218 222 230
0.266199207 64.6740469 39.7987301 218 222 230
0.233856003 64.7226126 39.7508801 218 222 230
0.2015128 64.7817398 39.7169356 218 222 230
0.169169596 64.84755 39.6991232 218 222 230
0.136826392 64.9157262 39.6986113 218 222 230
0.114643125 64.9615369 39.7083265 218 222 230
0.0903857225 65.0088221 39.7279492 218 222 230
0.0682024552 65.0480512 39.7535244 218 222 230
0.0479159739 65.0794989 39.7826076 218 222 230
0.0276294927 65.1058748 39.8163582 218 222 230
0.0138147463 65.1205782 39.8415705 218 222 230
0.00890453896 64.594382 39.6274488 218 222 230
0.0329956968 64.6371841 39.6652529 218 222 230
0.0695886791 64.673284 39.6979283 218 222 230
0.0082251692 64.683173 39.6146434 218 222 230
0.116811163 64.7006259 39.7236436 218 222 230
0.0293776864 64.7173834 39.645518 218 222 230
0.17248212 64.7179292 39.7411744 218 222 230
0.0604842068 64.7458445 39.6725417 218 222 230
0.100337652 64.7670771 39.6938387 218 222 230
0.147745569 64.7803721 39.7081366 218 222 230
0.00579955666 64.8598095 39.6454201 218 222 230
0.0407690806 64.8993605 39.6778165 218 222 230
0.0670057936 64.9124706 39.6896439 218 222 230
0.0984457141 64.9205357 39.6966374 218 222 230
0.033445884 65.0457598 39.7518369 218 222 230
0.0201614023 65.0391898 39.7459491 218 222 230
0.0492485231 65.0496233 39.7550208 218 222 230
0.00634434758 64.8266389 39.6350427 218 222 230
0.0201694765 64.881514 39.6624837 218 222 230
0.00549680951 64.8773877 39.6517806 218 222 230
0.00396977057 64.9593832 39.6901033 218 222 230
0.00979256213 65.0302509 39.7381491 218 222 230
0.00305234562 65.0047247 39.7186376 218 222 230
0.00274172307 65.0195377 39.7294297 218 222 230
0.000817706608 64.9982666 39.7137274 218 222 230
0.00215460087 65.0468201 39.7517282 218 222 230
0.000571288178 65.0422878 39.7478725 218 222 230
0.00459593228 65.0511379 39.7554874 218 222 230
0.00369949081 65.0696905 39.773314 218 222 230
0.00725567959 65.1065679 39.8176124 218 222 230
0.00519555964 65.1150992 39.8313076 218 222 230
0.0012403018 64.9180572 39.6665364 218 222 230
0.000987392125 64.9668988 39.6933554 218 222 230
0.000223439624 64.9869201 39.705714 218 222 230
0.000190464511 65.0101533 39.722095 218 222 230
0.00012717634 65.0538705 39.7583862 218 222 230
0.00168389691 65.1099184 39.8234512 218 222 230
0.000732624624 65.0860169 39.7916745 218 222 230
5.41524168e-05 64.9929756 39.7096794 218 222 230
3.75510826e-05 65.0384825 39.7446571 218 222 230
0.000214595109 65.0762527 39.780842 218 222 230
2.98027835e-05 65.0596913 39.7639912 218 222 230
0.000161256175 65.094463 39.8023067 218 222 230
0.00038993154 65.1145055 39.8311872 218 222 230
1.22483509e-05 65.0077292 39.7201752 218 222 230
4.57410766e-05 65.0161828 39.7265814 218 222 230
8.14495546e-06 65.0521934 39.7569039 218 222 230
5.06286071e-05 65.0806743 39.7858804 218 222 230
0.000120084229 65.1090695 39.8227134 218 222 230
2.42870725e-05 65.0233612 39.7321752 218 222 230
1.01521635e-05 65.0304733 39.7379256 218 222 230
2.37781024e-06 65.0375125 39.7438361 218 222 230
2.68020055e-05 65.1143245 39.8312347 218 222 230
7.71093058e-07 65.0071192 39.7196871 218 222 230
6.11379562e-06 65.0228138 39.7317269 218 222 230
5.12232166e-07 65.0517691 39.7565299 218 222 230
1.53375679e-06 65.0225394 39.7315017 218 222 230
3.97908051e-06 65.0302147 39.7377103 218 222 230
6.38810192e-07 65.0299557 39.7374944 218 222 230
1.49103651e-07 65.0372688 39.7436295 218 222 230
4.82811236e-08 65.0069665 39.7195645 218 222 230
3.84106106e-07 65.0224021 39.7313889 218 222 230
9.61101044e-08 65.0223334 39.7313324 218 222 230
2.49746803e-07 65.0298909 39.7374403 218 222 230
9.32667475e-09 65.0372078 39.7435778 218 222 230
3.01894519e-09 65.0069283 39.7195338 218 222 230
2.40379867e-08 65.022299 39.7313041 218 222 230
3.99933976e-08 65.029826 39.7373862 218 222 230
6.0108051e-09 65.0222818 39.73129 218 222 230
1.56257359e-08 65.0298098 39.7373727 218 222 230
5.83037552e-10 65.0371925 39.7435649 218 222 230
-5.55111512e-17 57.7047777 48.2654936 255 79 163
0.0356639313 57.9726976 48.1392709 255 79 163
0.0779679426 58.0836736 48.0869877 255 79 163
0.118306852 58.1503122 48.0555929 255 79 163
0.15238438 58.1891711 48.0372856 255 79 163
0.192440344 58.2196374 48.0229323 255 79 163
0.223793577 58.2337748 48.0162718 255 79 163
0.244928377 58.238904 48.0138554 255 79 163
0.266199207 58.2406174 48.0130482 255 79 163
0.266199207 64.6740469 39.7987301 255 79 163
-2.77555756e-17 64.4644735 39.6345928 255 79 163
0.00735479785 64.5133972 39.6729097 255 79 163
0.0290141004 64.5596179 39.7091097 255 79 163
0.0637798955 64.6005806 39.7411915 255 79 163
0.109731002 64.6340217 39.7673825 255 79 163
0.164329209 64.6580941 39.7862359 255 79 163
0.214266652 64.6700202 39.7955764 255 79 163
-5.55111512e-17 68.4313917 48.5425978 255 79 163
0.00907051803 68.4049204 48.4729936 255 79 163
0.0356639313 68.3802531 48.4081328 255 79 163
0.0731051247 68.3609887 48.3574785 255 79 163
0.115997172 68.346951 48.3205674 255 79 163
0.165618289 68.3366962 48.2936033 255 79 163
0.214950012 68.3310278 48.2786986 255 79 163
0.266199207 68.3291144 48.2736677 255 79 163
0.266199207 58.2406174 48.0130482 255 79 163
-5.55111512e-17 57.7047777 48.2654936 255 79 163
0.0356639313 57.9726976 48.1392709 255 79 163
0.0779679426 58.0836736 48.0869877 255 79 163
0.118306852 58.1503122 48.0555929 255 79 163
0.15238438 58.1891711 48.0372856 255 79 163
0.192440344 58.2196374 48.0229323 255 79 163
0.223793577 58.2337748 48.0162718 255 79 163
0.244928377 58.238904 48.0138554 255 79 163
0.266199207 79.7037863 74.1830907 218 222 230
37.805167 79.7037863 74.1830907 218 222 230
0.266199207 0.266199207 74.1830907 218 222 230
37.805167 0.266199207 74.1830907 218 222 230
37.805167 79.7037863 74.1830907 255 79 163
37.8506666 79.699869 74.1791734 255 79 163
37.8948271 79.6882324 74.1675368 255 79 163
37.9363488 79.669219 74.1485234 255 79 163
37.9740097 79.6433884 74.1226927 255 79 163
38.0067013 79.6115007 74.0908051 255 79 163
38.0334614 79.5744946 74.053799 255 79 163
38.0585819 79.5190912 73.9983956 255 79 163
38.0681507 79.4788374 73.9581418 255 79 163
38.0713662 79.4375871 73.9168914 255 79 163
38.0713662 79.4375871 0.266199207 255 79 163
37.805167 79.7037863 0.266199207 255 79 163
37.8644019 79.6971121 0.266199207 255 79 163
37.9206665 79.6774243 0.266199207 255 79 163
37.9711395 79.64571 0.266199207 255 79 163
38.0132899 79.6035596 0.266199207 255 79 163
38.0450042 79.5530866 0.266199207 255 79 163
38.0646921 79.496822 0.266199207 255 79 163
0 79.7037863 0.266199207 255 79 163
37.805167 79.7037863 0.266199207 255 79 163
37.805167 79.4375871 0 255 79 163
37.805167 79.496822 0.0066741699 255 79 163
37.805167 79.5530866 0.0263620088 255 79 163
37.805167 79.6035596 0.0580762864 255 79 163
37.805167 79.64571 0.100226716 255 79 163
37.805167 79.6774243 0.1506997 255 79 163
37.805167 79.6971121 0.206964311 255 79 163
0.266199207 79.4375871 -5.55111512e-17 255 79 163
0.00391729296 79.699869 0.220699588 255 79 163
0.0155538808 79.6882324 0.176539081 255 79 163
0.0345672839 79.669219 0.135017387 255 79 163
0.0603979131 79.6433884 0.097356543 255 79 163
0.0922855397 79.6115007 0.0646649565 255 79 163
0.12929167 79.5744946 0.037904783 255 79 163
0.184695084 79.5190912 0.0127843382 255 79 163
0.22494887 79.4788374 0.0032155051 255 79 163
0.266199207 28.7319631 0.266199207 255 79 163
0.206964311 28.7386373 0.266199207 255 79 163
0.1506997 28.7583251 0.266199207 255 79 163
0.100226716 28.7900394 0.266199207 255 79 163
0.0580762864 28.8321898 0.266199207 255 79 163
0.0263620088 28.8826628 0.266199207 255 79 163
0.0066741699 28.9389274 0.266199207 255 79 163
-5.55111512e-17 28.9981623 0.266199207 255 79 163
0.266199207 28.9981623 0 255 79 163
0.206964311 28.9981623 0.0066741699 255 79 163
0.1506997 28.9981623 0.0263620088 255 79 163
0.100226716 28.9981623 0.0580762864 255 79 163
0.0580762864 28.9981623 0.100226716 255 79 163
0.0263620088 28.9981623 0.1506997 255 79 163
0.0066741699 28.9981623 0.206964311 255 79 163
0.266199207 28.9981623 0 255 79 163
0.266199207 28.9389274 0.0066741699 255 79 163
0.266199207 28.8826628 0.0263620088 255 79 163
0.266199207 28.8321898 0.0580762864 255 79 163
0.266199207 28.7900394 0.100226716 255 79 163
0.266199207 28.7583251 0.1506997 255 79 163
0.266199207 28.7386373 0.206964311 255 79 163
0.184951886 28.985294 0.0130287166 255 79 163
0.19290494 28.960817 0.0130287166 255 79 163
0.208032548 28.9399956 0.0130287166 255 79 163
0.117389326 28.949811 0.0508395247 255 79 163
0.228853913 28.924868 0.0130287166 255 79 163
0.139613962 28.9061927 0.0508395247 255 79 163
0.0534909597 28.9644726 0.109731239 255 79 163
0.253330896 28.916915 0.0130287166 255 79 163
0.174229643 28.8715771 0.0508395247 255 79 163
0.074312325 28.9003911 0.109731239 255 79 163
0.217847946 28.8493524 0.0508395247 255 79 163
0.113916915 28.84588 0.109731239 255 79 163
0.0254197623 28.9199283 0.183939128 255 79 163
0.168427957 28.8062754 0.109731239 255 79 163
0.0613799778 28.8493524 0.183939128 255 79 163
0.23250953 28.7854541 0.109731239 255 79 163
0.117389326 28.7933431 0.183939128 255 79 163
0.187965223 28.7573829 0.183939128 255 79 163
-5.55111512e-17 0 73.9168914 255 79 163
0.00391729296 0.00391729296 73.9623911 255 79 163
0.0155538808 0.0155538808 74.0065516 255 79 163
0.0345672839 0.0345672839 74.0480733 255 79 163
0.0603979131 0.0603979131 74.0857341 255 79 163
0.0922855397 0.0922855397 74.1184257 255 79 163
0.12929167 0.12929167 74.1451859 255 79 163
0.184695084 0.184695084 74.1703063 255 79 163
0.22494887 0.22494887 74.1798752 255 79 163
0.266199207 0.266199207 74.1830907 255 79 163
37.805167 -5.55111512e-17 73.9168914 255 79 163
37.805167 0.266199207 74.1830907 255 79 163
37.805167 0.206964311 74.1764165 255 79 163
37.805167 0.1506997 74.1567286 255 79 163
37.805167 0.100226716 74.1250144 255 79 163
37.805167 0.0580762864 74.0828639 255 79 163
37.805167 0.0263620088 74.032391 255 79 163
37.805167 0.0066741699 73.9761263 255 79 163
28.1216132 28.7319631 53.5828781 218 222 230
28.1216132 28.7319631 0.266199207 218 222 230
0.266199207 28.7319631 0.266199207 218 222 230
0.266199207 28.7319631 53.5828781 218 222 230
37.805167 -5.55111512e-17 0.266199207 255 79 163
37.805167 -5.55111512e-17 73.9168914 255 79 163
38.0713662 0.266199207 0.266199207 255 79 163
38.0646921 0.206964311 0.266199207 255 79 163
38.0450042 0.1506997 0.266199207 255 79 163
38.0132899 0.100226716 0.266199207 255 79 163
37.9711395 0.0580762864 0.266199207 255 79 163
37.9206665 0.0263620088 0.266199207 255 79 163
37.8644019 0.0066741699 0.266199207 255 79 163
38.0713662 0.266199207 73.9168914 255 79 163
38.0646921 0.206964311 73.9168914 255 79 163
38.0450042 0.1506997 73.9168914 255 79 163
38.0132899 0.100226716 73.9168914 255 79 163
37.9711395 0.0580762864 73.9168914 255 79 163
37.9206665 0.0263620088 73.9168914 255 79 163
37.8644019 0.0066741699 73.9168914 255 79 163
0.266199207 28.7319631 53.5828781 255 79 163
0.221832673 28.7228926 53.6517755 255 79 163
0.177466138 28.6962992 53.7159777 255 79 163
0.133099604 28.6539952 53.7711093 255 79 163
0.088733069 28.5988585 53.8134154 255 79 163
0.0443665345 28.5346663 53.8400047 255 79 163
0 28.4657639 53.8490773 255 79 163
27.855414 28.4657639 53.8490773 255 79 163
27.9243114 28.5346613 53.8400068 255 79 163
27.9885136 28.5988635 53.8134133 255 79 163
28.0436452 28.6539952 53.7711093 255 79 163
28.0823861 28.692736 53.7219668 255 79 163
28.1046494 28.7149994 53.6763858 255 79 163
28.1169644 28.7273143 53.6324097 255 79 163
28.1204484 28.7307984 53.6077527 255 79 163
28.1216132 28.7319631 53.5828781 255 79 163
38.0713662 0.266199207 0.266199207 255 79 163
38.0646921 0.206964311 0.266199207 255 79 163
38.0450042 0.1506997 0.266199207 255 79 163
38.0132899 0.100226716 0.266199207 255 79 163
37.9711395 0.0580762864 0.266199207 255 79 163
37.9206665 0.0263620088 0.266199207 255 79 163
37.8644019 0.0066741699 0.266199207 255 79 163
37.805167 -5.55111512e-17 0.266199207 255 79 163
37.805167 0.266199207 0 255 79 163
37.805167 0.206964311 0.0066741699 255 79 163
37.805167 0.1506997 0.0263620088 255 79 163
37.805167 0.100226716 0.0580762864 255 79 163
37.805167 0.0580762864 0.100226716 255 79 163
37.805167 0.0263620088 0.1506997 255 79 163
37.805167 0.0066741699 0.206964311 255 79 163
37.805167 0.266199207 0 255 79 163
37.8644019 0.266199207 0.0066741699 255 79 163
37.9206665 0.266199207 0.0263620088 255 79 163
37.9711395 0.266199207 0.0580762864 255 79 163
38.0132899 0.266199207 0.100226716 255 79 163
38.0450042 0.266199207 0.1506997 255 79 163
38.0646921 0.266199207 0.206964311 255 79 163
37.8180353 0.184951886 0.0130287166 255 79 163
37.8425123 0.19290494 0.0130287166 255 79 163
37.8633337 0.208032548 0.0130287166 255 79 163
37.8535183 0.117389326 0.0508395247 255 79 163
37.8784613 0.228853913 0.0130287166 255 79 163
37.8971366 0.139613962 0.0508395247 255 79 163
37.8388567 0.0534909597 0.109731239 255 79 163
37.8864143 0.253330896 0.0130287166 255 79 163
37.9317523 0.174229643 0.0508395247 255 79 163
37.9029383 0.074312325 0.109731239 255 79 163
37.9539769 0.217847946 0.0508395247 255 79 163
37.9574493 0.113916915 0.109731239 255 79 163
37.883401 0.0254197623 0.183939128 255 79 163
37.9970539 0.168427957 0.109731239 255 79 163
37.9539769 0.0613799778 0.183939128 255 79 163
38.0178753 0.23250953 0.109731239 255 79 163
38.0099862 0.117389326 0.183939128 255 79 163
38.0459465 0.187965223 0.183939128 255 79 163
0.266199207 24.0392679 53.5828781 255 79 163
28.1216132 24.0392679 53.5828781 255 79 163
28.1176959 24.0431852 53.6283777 255 79 163
28.1060593 24.0548218 53.6725382 255 79 163
28.0870459 24.0738352 53.7140599 255 79 163
28.0612153 24.0996658 53.7517207 255 79 163
28.0293276 24.1315534 53.7844123 255 79 163
27.9923215 24.1685596 53.8111725 255 79 163
27.9369181 24.223963 53.8362929 255 79 163
27.8966643 24.2642168 53.8458618 255 79 163
27.855414 24.3054671 53.8490773 255 79 163
0 24.3054671 53.8490773 255 79 163
0.221832673 24.0483384 53.6517755 255 79 163
0.177466138 24.0749318 53.7159777 255 79 163
0.133099604 24.1172358 53.7711093 255 79 163
0.088733069 24.1723725 53.8134154 255 79 163
0.0443665345 24.2365647 53.8400047 255 79 163
28.1216132 24.0392679 53.5828781 255 79 163
28.1176959 24.0431852 53.6283777 255 79 163
28.1060593 24.0548218 53.6725382 255 79 163
28.0870459 24.0738352 53.7140599 255 79 163
28.0612153 24.0996658 53.7517207 255 79 163
28.0293276 24.1315534 53.7844123 255 79 163
27.9923215 24.1685596 53.8111725 255 79 163
27.9369181 24.223963 53.8362929 255 79 163
27.8966643 24.2642168 53.8458618 255 79 163
27.855414 24.3054671 53.8490773 255 79 163
28.1216132 28.7319631 53.5828781 255 79 163
27.855414 28.4657639 53.8490773 255 79 163
27.9243114 28.5346613 53.8400068 255 79 163
27.9885136 28.5988635 53.8134133 255 79 163
28.0436452 28.6539952 53.7711093 255 79 163
28.0823861 28.692736 53.7219668 255 79 163
28.1046494 28.7149994 53.6763858 255 79 163
28.1169644 28.7273143 53.6324097 255 79 163
28.1204484 28.7307984 53.6077527 255 79 163
0 23.7730687 -5.55111512e-17 255 79 163
0.00391729296 23.8185683 0.00391729296 255 79 163
0.0155538808 23.8627288 0.0155538808 255 79 163
0.0345672839 23.9042505 0.0345672839 255 79 163
0.0603979131 23.9419113 0.0603979131 255 79 163
0.0922855397 23.9746029 0.0922855397 255 79 163
0.12929167 24.0013631 0.12929167 255 79 163
0.184695084 24.0264835 0.184695084 255 79 163
0.22494887 24.0360524 0.22494887 255 79 163
0.266199207 24.0392679 0.266199207 255 79 163
28.1216132 24.0392679 0.266199207 255 79 163
28.1216132 23.7730687 -5.55111512e-17 255 79 163
28.1216132 23.8323036 0.0066741699 255 79 163
28.1216132 23.8885682 0.0263620088 255 79 163
28.1216132 23.9390412 0.0580762864 255 79 163
28.1216132 23.9811916 0.100226716 255 79 163
28.1216132 24.0129059 0.1506997 255 79 163
28.1216132 24.0325937 0.206964311 255 79 163
37.805167 0.266199207 0 255 79 163
37.805167 79.4375871 0 255 79 163
37.8644019 79.4375871 0.0066741699 255 79 163
37.9206665 79.4375871 0.0263620088 255 79 163
37.9711395 79.4375871 0.0580762864 255 79 163
38.0132899 79.4375871 0.100226716 255 79 163
38.0450042 79.4375871 0.1506997 255 79 163
38.0646921 79.4375871 0.206964311 255 79 163
38.0713662 79.4375871 0.266199207 255 79 163
38.0713662 0.266199207 0.266199207 255 79 163
37.8644019 0.266199207 0.0066741699 255 79 163
37.9206665 0.266199207 0.0263620088 255 79 163
37.9711395 0.266199207 0.0580762864 255 79 163
38.0132899 0.266199207 0.100226716 255 79 163
38.0450042 0.266199207 0.1506997 255 79 163
38.0646921 0.266199207 0.206964311 255 79 163
28.1216132 28.7319631 53.5828781 218 222 230
28.1216132 28.7319631 0.266199207 218 222 230
28.1216132 28.9981623 -5.55111512e-17 218 222 230
28.1216132 28.9389274 0.0066741699 218 222 230
28.1216132 28.8826628 0.0263620088 218 222 230
28.1216132 28.8321898 0.0580762864 218 222 230
28.1216132 28.7900394 0.100226716 218 222 230
28.1216132 28.7583251 0.1506997 218 222 230
28.1216132 28.7386373 0.206964311 218 222 230
28.1216132 28.7319631 0 218 222 230
28.1216132 24.0392679 0 218 222 230
28.1216132 23.7730687 -5.55111512e-17 218 222 230
28.1216132 23.8323036 0.0066741699 218 222 230
28.1216132 23.8885682 0.0263620088 218 222 230
28.1216132 23.9390412 0.0580762864 218 222 230
28.1216132 23.9811916 0.100226716 218 222 230
28.1216132 24.0129059 0.1506997 218 222 230
28.1216132 24.0325937 0.206964311 218 222 230
28.1216132 24.0392679 0.266199207 218 222 230
28.1216132 24.0392679 53.5828781 218 222 230
0.266199207 28.9981623 0 255 79 163
28.1216132 28.9981623 -5.55111512e-17 255 79 163
28.1216132 28.9389274 0.0066741699 255 79 163
28.1216132 28.8826628 0.0263620088 255 79 163
28.1216132 28.8321898 0.0580762864 255 79 163
28.1216132 28.7900394 0.100226716 255 79 163
28.1216132 28.7583251 0.1506997 255 79 163
28.1216132 28.7386373 0.206964311 255 79 163
28.1216132 28.7319631 0.266199207 255 79 163
0.266199207 28.7319631 0.266199207 255 79 163
0.266199207 28.9389274 0.0066741699 255 79 163
0.266199207 28.8826628 0.0263620088 255 79 163
0.266199207 28.8321898 0.0580762864 255 79 163
0.266199207 28.7900394 0.100226716 255 79 163
0.266199207 28.7583251 0.1506997 255 79 163
0.266199207 28.7386373 0.206964311 255 79 163
28.1216132 24.0392679 0.266199207 218 222 230
28.1216132 24.0392679 53.5828781 218 222 230
0.266199207 24.0392679 53.5828781 218 222 230
0.266199207 24.0392679 0.266199207 218 222 230
0.266199207 70.7848428 21.5999771 218 222 230
28.78601 70.7848428 21.5999771 218 222 230
28.78601 67.6869888 23.5868203 218 222 230
0.266199207 67.6869888 23.5868203 218 222 230
29.0522092 73.9322291 23.5258707 255 79 163
29.045535 73.9594206 23.4732456 255 79 163
29.0258471 73.9852486 23.4232594 255 79 163
28.9941329 74.0084179 23.3784185 255 79 163
28.9519824 74.0277668 23.3409715 255 79 163
28.9015095 74.0423251 23.3127961 255 79 163
28.8452448 74.0513627 23.2953052 255 79 163
28.78601 74.0544264 23.2893758 255 79 163
29.0522092 70.7991859 21.9070227 255 79 163
28.78601 70.7848428 21.5999771 255 79 163
28.8420374 70.785164 21.6068549 255 79 163
28.8955547 70.7861135 21.6271803 255 79 163
28.9441645 70.7876486 21.6600427 255 79 163
28.9856889 70.7897006 21.7039698 255 79 163
29.0182677 70.7921775 21.7569937 255 79 163
29.0404413 70.7949684 21.8167389 255 79 163
29.0492508 70.7970535 21.8613734 255 79 163
28.78601 74.0544264 23.2893758 255 79 163
28.78601 74.1009262 23.31995 255 79 163
28.78601 74.1400531 23.3595239 255 79 163
28.78601 74.170097 23.406368 255 79 163
28.78601 74.189745 23.458435 255 79 163
28.78601 74.1981384 23.5134492 255 79 163
29.0522092 73.9322291 23.5258707 255 79 163
29.045535 73.9913995 23.5231066 255 79 163
29.0258471 74.0476028 23.5204812 255 79 163
28.9941329 74.0980208 23.518126 255 79 163
28.9519824 74.1401254 23.5161591 255 79 163
28.9015095 74.1718051 23.5146793 255 79 163
28.8452448 74.1914715 23.5137606 255 79 163
29.0522092 73.9322291 23.5258707 255 79 163
29.045535 73.9594206 23.4732456 255 79 163
29.0258471 73.9852486 23.4232594 255 79 163
28.9941329 74.0084179 23.3784185 255 79 163
28.9519824 74.0277668 23.3409715 255 79 163
28.9015095 74.0423251 23.3127961 255 79 163
28.8452448 74.0513627 23.2953052 255 79 163
29.0391804 74.0124847 23.5078218 255 79 163
29.0391804 74.0014716 23.4814612 255 79 163
29.0391804 73.9821069 23.4604571 255 79 163
29.0013696 74.0766036 23.4655529 255 79 163
29.0013696 74.0472669 23.4198115 255 79 163
28.9424779 74.142341 23.4786181 255 79 163
28.9424779 74.1135083 23.4096053 255 79 163
28.9424779 74.0628107 23.3546158 255 79 163
28.86827 74.165832 23.4282745 255 79 163
28.86827 74.1183641 23.3542634 255 79 163
0.266199207 74.2404992 27.2726631 255 79 163
0.186339445 74.3027079 27.2172868 255 79 163
0.106479683 74.3447597 27.1453972 255 79 163
0.0532398414 74.3594683 27.0917253 255 79 163
0 74.3626965 27.0361682 255 79 163
28.78601 74.2404992 27.2726631 255 79 163
28.78601 74.2839462 27.2378872 255 79 163
28.78601 74.3192135 27.1948381 255 79 163
28.78601 74.3447597 27.1453972 255 79 163
28.78601 74.3594683 27.0917253 255 79 163
28.78601 74.3626965 27.0361682 255 79 163
29.0522092 74.0967872 27.0485897 255 79 163
29.045535 74.1559576 27.0458257 255 79 163
29.0258471 74.2121609 27.0432003 255 79 163
28.9941329 74.2625789 27.0408451 255 79 163
28.9519824 74.3046835 27.0388782 255 79 163
28.9015095 74.3363632 27.0373983 255 79 163
28.8452448 74.3560296 27.0364797 255 79 163
28.78601 74.3626965 27.0361682 255 79 163
29.0522092 73.9322291 23.5258707 255 79 163
29.045535 73.9913995 23.5231066 255 79 163
29.0258471 74.0476028 23.5204812 255 79 163
28.9941329 74.0980208 23.518126 255 79 163
28.9519824 74.1401254 23.5161591 255 79 163
28.9015095 74.1718051 23.5146793 255 79 163
28.8452448 74.1914715 23.5137606 255 79 163
28.78601 74.1981384 23.5134492 255 79 163
0.266199207 67.5647915 23.8233152 255 79 163
28.78601 67.5647915 23.8233152 255 79 163
0.266199207 67.6869888 23.5868203 255 79 163
0.266199207 67.6435417 23.6215962 255 79 163
0.266199207 67.6082745 23.6646454 255 79 163
0.266199207 67.5827283 23.7140863 255 79 163
0.266199207 67.5680197 23.7677581 255 79 163
28.78601 67.6869888 23.5868203 255 79 163
28.78601 67.5680197 23.7677581 255 79 163
28.78601 67.5827283 23.7140863 255 79 163
28.78601 67.6082745 23.6646454 255 79 163
28.78601 67.6435417 23.6215962 255 79 163
0.266199207 71.1426452 29.2595063 218 222 230
28.78601 71.1426452 29.2595063 218 222 230
28.78601 74.2404992 27.2726631 218 222 230
0.266199207 74.2404992 27.2726631 218 222 230
0.266199207 67.7365212 27.499557 218 222 230
28.78601 67.7365212 27.499557 218 222 230
0.266199207 67.5647915 23.8233152 218 222 230
28.78601 67.5647915 23.8233152 218 222 230
0.266199207 67.7365212 27.499557 218 222 230
28.78601 67.7365212 27.499557 218 222 230
28.8420374 67.7426382 27.5027177 218 222 230
28.8955547 67.7607152 27.5120581 218 222 230
28.9441645 67.7899424 27.5271599 218 222 230
28.9856889 67.8290104 27.5473464 218 222 230
29.0182677 67.8761689 27.5717132 218 222 230
29.0404413 67.9293052 27.5991688 218 222 230
29.0492508 67.9690024 27.6196804 218 222 230
29.0522092 68.009602 27.6406583 218 222 230
29.0522092 70.8695644 29.1184051 218 222 230
28.78601 71.1426452 29.2595063 218 222 230
28.8420374 71.1365282 29.2563456 218 222 230
28.8955547 71.1184512 29.2470052 218 222 230
28.9441645 71.089224 29.2319035 218 222 230
28.9856889 71.050156 29.211717 218 222 230
29.0182677 71.0029975 29.1873501 218 222 230
29.0404413 70.9498612 29.1598945 218 222 230
29.0492508 70.910164 29.1393829 218 222 230
0.266199207 71.1426452 29.2595063 218 222 230
38.0713662 58.2406174 48.0130482 218 222 230
0.266199207 58.2406174 48.0130482 218 222 230
38.0713662 68.3291144 48.2736677 218 222 230
38.0713662 68.6167407 48.281098 218 222 230
37.805167 68.3291144 48.2736677 218 222 230
37.8611944 68.3355573 48.2738341 218 222 230
37.9147118 68.3545972 48.274326 218 222 230
37.9633216 68.3853811 48.2751212 218 222 230
38.004846 68.42653 48.2761842 218 222 230
38.0374248 68.4762004 48.2774674 218 222 230
38.0595984 68.532167 48.2789132 218 222 230
38.0684078 68.5739786 48.2799933 218 222 230
0.266199207 68.3291144 48.2736677 218 222 230
37.805167 65.1324331 39.8682409 255 79 163
37.805167 68.3291144 48.2736677 255 79 163
38.0713662 65.381246 39.7736144 255 79 163
38.0640114 65.3231621 39.7957044 255 79 163
38.0423521 65.2682872 39.816574 255 79 163
38.0075863 65.2196548 39.8350694 255 79 163
37.9616352 65.1799524 39.8501687 255 79 163
37.907037 65.1513728 39.8610379 255 79 163
37.8570996 65.1372137 39.8664228 255 79 163
38.0713662 68.6167407 48.281098 255 79 163
37.8611944 68.3355573 48.2738341 255 79 163
37.9147118 68.3545972 48.274326 255 79 163
37.9633216 68.3853811 48.2751212 255 79 163
38.004846 68.42653 48.2761842 255 79 163
38.0374248 68.4762004 48.2774674 255 79 163
38.0595984 68.532167 48.2789132 255 79 163
38.0684078 68.5739786 48.2799933 255 79 163
38.0713662 64.6740469 39.7987301 255 79 163
0.266199207 64.6740469 39.7987301 255 79 163
0.233856003 64.7226126 39.7508801 255 79 163
0.2015128 64.7817398 39.7169356 255 79 163
0.169169596 64.84755 39.6991232 255 79 163
0.136826392 64.9157262 39.6986113 255 79 163
0.114643125 64.9615369 39.7083265 255 79 163
0.0903857225 65.0088221 39.7279492 255 79 163
0.0682024552 65.0480512 39.7535244 255 79 163
0.0479159739 65.0794989 39.7826076 255 79 163
0.0276294927 65.1058748 39.8163582 255 79 163
0.0138147463 65.1205782 39.8415705 255 79 163
0 65.1324331 39.8682409 255 79 163
37.805167 65.1324331 39.8682409 255 79 163
37.8375102 65.1002367 39.8081439 255 79 163
37.8698534 65.0538311 39.7581962 255 79 163
37.9021966 64.9962604 39.721674 255 79 163
37.9345398 64.9313009 39.7009731 255 79 163
37.9567231 64.8846695 39.6966701 255 79 163
37.9809805 64.8336925 39.7013922 255 79 163
38.0031638 64.7886449 39.7141874 255 79 163
38.0234503 64.7499888 39.7326399 255 79 163
38.0437367 64.7147927 39.7570536 255 79 163
38.0575515 64.6932757 39.7767733 255 79 163
38.0713662 58.2406174 48.0130482 218 222 230
38.0713662 64.6740469 39.7987301 218 222 230
0.266199207 58.2406174 48.0130482 218 222 230
0.266199207 64.6740469 39.7987301 218 222 230
37.805167 0.266199207 74.1830907 255 79 163
37.8644019 0.266199207 74.1764165 255 79 163
37.9206665 0.266199207 74.1567286 255 79 163
37.9711395 0.266199207 74.1250144 255 79 163
38.0132899 0.266199207 74.0828639 255 79 163
38.0450042 0.266199207 74.032391 255 79 163
38.0646921 0.266199207 73.9761263 255 79 163
38.0713662 0.266199207 73.9168914 255 79 163
38.0713662 79.4375871 73.9168914 255 79 163
37.805167 79.7037863 74.1830907 255 79 163
37.8506666 79.699869 74.1791734 255 79 163
37.8948271 79.6882324 74.1675368 255 79 163
37.9363488 79.669219 74.1485234 255 79 163
37.9740097 79.6433884 74.1226927 255 79 163
38.0067013 79.6115007 74.0908051 255 79 163
38.0334614 79.5744946 74.053799 255 79 163
38.0585819 79.5190912 73.9983956 255 79 163
38.0681507 79.4788374 73.9581418 255 79 163
37.805167 79.7037863 0.266199207 255 79 163
37.8644019 79.6971121 0.266199207 255 79 163
37.9206665 79.6774243 0.266199207 255 79 163
37.9711395 79.64571 0.266199207 255 79 163
38.0132899 79.6035596 0.266199207 255 79 163
38.0450042 79.5530866 0.266199207 255 79 163
38.0646921 79.496822 0.266199207 255 79 163
38.0713662 79.4375871 0.266199207 255 79 163
37.805167 79.4375871 0 255 79 163
37.8644019 79.4375871 0.0066741699 255 79 163
37.9206665 79.4375871 0.0263620088 255 79 163
37.9711395 79.4375871 0.0580762864 255 79 163
38.0132899 79.4375871 0.100226716 255 79 163
38.0450042 79.4375871 0.1506997 255 79 163
38.0646921 79.4375871 0.206964311 255 79 163
37.805167 79.4375871 0 255 79 163
37.805167 79.496822 0.0066741699 255 79 163
37.805167 79.5530866 0.0263620088 255 79 163
37.805167 79.6035596 0.0580762864 255 79 163
37.805167 79.64571 0.100226716 255 79 163
37.805167 79.6774243 0.1506997 255 79 163
37.805167 79.6971121 0.206964311 255 79 163
37.8864143 79.4504554 0.0130287166 255 79 163
37.8784613 79.4749324 0.0130287166 255 79 163
37.8633337 79.4957537 0.0130287166 255 79 163
37.9539769 79.4859383 0.0508395247 255 79 163
37.8425123 79.5108813 0.0130287166 255 79 163
37.9317523 79.5295566 0.0508395247 255 79 163
38.0178753 79.4712767 0.109731239 255 79 163
37.8180353 79.5188344 0.0130287166 255 79 163
37.8971366 79.5641723 0.0508395247 255 79 163
37.9970539 79.5353583 0.109731239 255 79 163
37.8535183 79.5863969 0.0508395247 255 79 163
37.9574493 79.5898694 0.109731239 255 79 163
38.0459465 79.515821 0.183939128 255 79 163
37.9029383 79.6294739 0.109731239 255 79 163
38.0099862 79.5863969 0.183939128 255 79 163
37.8388567 79.6502953 0.109731239 255 79 163
37.9539769 79.6424063 0.183939128 255 79 163
37.883401 79.6783665 0.183939128 255 79 163
38.0713662 79.4375871 0.266199207 218 222 230
38.0713662 79.4375871 73.9168914 218 222 230
38.0713662 0.266199207 73.9168914 218 222 230
38.0713662 0.266199207 0.266199207 218 222 230
38.0713662 58.2406174 48.0130482 218 222 230
38.0713662 64.6740469 39.7987301 218 222 230
38.0713662 68.3291144 48.2736677 218 222 230
38.0713662 68.6167407 48.281098 218 222 230
38.0713662 65.381246 39.7736144 218 222 230
38.0713662 65.3708954 39.7532119 218 222 230
38.0713662 65.3567873 39.7352377 218 222 230
38.0713662 65.3399009 39.7197855 218 222 230
38.0713662 65.3145406 39.702814 218 222 230
38.0713662 65.2729436 39.6836999 218 222 230
38.0713662 65.2067524 39.6655341 218 222 230
38.0713662 65.1043345 39.654652 218 222 230
38.0713662 64.9885828 39.6599886 218 222 230
38.0713662 64.8748954 39.6823276 218 222 230
38.0713662 64.7671262 39.724593 218 222 230
38.0713662 64.7182654 39.7557164 218 222 230
38.0713662 64.6947926 39.7758334 218 222 230
37.805167 0.266199207 74.1830907 255 79 163
37.8644019 0.266199207 74.1764165 255 79 163
37.9206665 0.266199207 74.1567286 255 79 163
37.9711395 0.266199207 74.1250144 255 79 163
38.0132899 0.266199207 74.0828639 255 79 163
38.0450042 0.266199207 74.032391 255 79 163
38.0646921 0.266199207 73.9761263 255 79 163
38.0713662 0.266199207 73.9168914 255 79 163
37.805167 0.266199207 74.1830907 255 79 163
37.805167 0.206964311 74.1764165 255 79 163
37.805167 0.1506997 74.1567286 255 79 163
37.805167 0.100226716 74.1250144 255 79 163
37.805167 0.0580762864 74.0828639 255 79 163
37.805167 0.0263620088 74.032391 255 79 163
37.805167 0.0066741699 73.9761263 255 79 163
37.805167 -5.55111512e-17 73.9168914 255 79 163
38.0646921 0.206964311 73.9168914 255 79 163
38.0450042 0.1506997 73.9168914 255 79 163
38.0132899 0.100226716 73.9168914 255 79 163
37.9711395 0.0580762864 73.9168914 255 79 163
37.9206665 0.0263620088 73.9168914 255 79 163
37.8644019 0.0066741699 73.9168914 255 79 163
37.8864143 0.253330896 74.1700619 255 79 163
37.8784613 0.228853913 74.1700619 255 79 163
37.8633337 0.208032548 74.1700619 255 79 163
37.9539769 0.217847946 74.1322511 255 79 163
37.8425123 0.19290494 74.1700619 255 79 163
37.9317523 0.174229643 74.1322511 255 79 163
38.0178753 0.23250953 74.0733594 255 79 163
37.8180353 0.184951886 74.1700619 255 79 163
37.8971366 0.139613962 74.1322511 255 79 163
37.9970539 0.168427957 74.0733594 255 79 163
37.8535183 0.117389326 74.1322511 255 79 163
37.9574493 0.113916915 74.0733594 255 79 163
38.0459465 0.187965223 73.9991515 255 79 163
37.9029383 0.074312325 74.0733594 255 79 163
38.0099862 0.117389326 73.9991515 255 79 163
37.8388567 0.0534909597 74.0733594 255 79 163
37.9539769 0.0613799778 73.9991515 255 79 163
37.883401 0.0254197623 73.9991515 255 79 163
28.78601 70.7848428 21.5999771 255 79 163
28.8420374 70.785164 21.6068549 255 79 163
28.8955547 70.7861135 21.6271803 255 79 163
28.9441645 70.7876486 21.6600427 255 79 163
28.9856889 70.7897006 21.7039698 255 79 163
29.0182677 70.7921775 21.7569937 255 79 163
29.0404413 70.7949684 21.8167389 255 79 163
29.0492508 70.7970535 21.8613734 255 79 163
29.0522092 70.7991859 21.9070227 255 79 163
29.0522092 67.8307007 23.8108937 255 79 163
29.045535 67.7987218 23.7610327 255 79 163
29.0258471 67.7683465 23.7136719 255 79 163
28.9941329 67.7410978 23.6711862 255 79 163
28.9519824 67.7183422 23.635706 255 79 163
28.9015095 67.7012207 23.6090105 255 79 163
28.8452448 67.6905919 23.5924383 255 79 163
28.78601 67.6869888 23.5868203 255 79 163
29.0522092 68.009602 27.6406583 218 222 230
29.0522092 70.8695644 29.1184051 218 222 230
29.0522092 74.0967872 27.0485897 218 222 230
29.0522092 73.9322291 23.5258707 218 222 230
29.0522092 70.7991859 21.9070227 218 222 230
29.0522092 67.8307007 23.8108937 218 222 230
29.0522092 74.0967872 27.0485897 255 79 163
29.045535 74.1287662 27.0984508 255 79 163
29.0258471 74.1591415 27.1458116 255 79 163
28.9941329 74.1863902 27.1882972 255 79 163
28.9519824 74.2091458 27.2237774 255 79 163
28.9015095 74.2262673 27.2504729 255 79 163
28.8452448 74.2368961 27.2670452 255 79 163
28.78601 74.2404992 27.2726631 255 79 163
29.0522092 74.0967872 27.0485897 255 79 163
29.045535 74.1559576 27.0458257 255 79 163
29.0258471 74.2121609 27.0432003 255 79 163
28.9941329 74.2625789 27.0408451 255 79 163
28.9519824 74.3046835 27.0388782 255 79 163
28.9015095 74.3363632 27.0373983 255 79 163
28.8452448 74.3560296 27.0364797 255 79 163
28.78601 74.3626965 27.0361682 255 79 163
28.78601 74.2839462 27.2378872 255 79 163
28.78601 74.3192135 27.1948381 255 79 163
28.78601 74.3447597 27.1453972 255 79 163
28.78601 74.3594683 27.0917253 255 79 163
29.0391804 74.1525458 27.1090687 255 79 163
29.0391804 74.1698682 27.0863508 255 79 163
29.0391804 74.1783759 27.0590784 255 79 163
29.0013696 74.2212112 27.1434628 255 79 163
29.0013696 74.246156 27.0951858 255 79 163
28.9424779 74.2427651 27.2069256 255 79 163
28.9424779 74.2881157 27.1474494 255 79 163
28.9424779 74.3103891 27.0760493 255 79 163
28.86827 74.2981095 27.2020976 255 79 163
28.86827 74.338471 27.1239837 255 79 163
28.78601 67.5647915 23.8233152 255 79 163
28.78601 67.5680197 23.7677581 255 79 163
28.78601 67.5827283 23.7140863 255 79 163
28.78601 67.6082745 23.6646454 255 79 163
28.78601 67.6435417 23.6215962 255 79 163
28.78601 67.6869888 23.5868203 255 79 163
29.0522092 67.8307007 23.8108937 255 79 163
29.045535 67.7987218 23.7610327 255 79 163
29.0258471 67.7683465 23.7136719 255 79 163
28.9941329 67.7410978 23.6711862 255 79 163
28.9519824 67.7183422 23.635706 255 79 163
28.9015095 67.7012207 23.6090105 255 79 163
28.8452448 67.6905919 23.5924383 255 79 163
29.0522092 67.8307007 23.8108937 255 79 163
29.045535 67.7715304 23.8136577 255 79 163
29.0258471 67.715327 23.8162832 255 79 163
28.9941329 67.664909 23.8186384 255 79 163
28.9519824 67.6228045 23.8206052 255 79 163
28.9015095 67.5911248 23.8220851 255 79 163
28.8452448 67.5714584 23.8230038 255 79 163
29.0391804 67.7749421 23.7504148 255 79 163
29.0391804 67.7576198 23.7731327 255 79 163
29.0391804 67.7491121 23.8004051 255 79 163
29.0013696 67.7062768 23.7160206 255 79 163
29.0013696 67.681332 23.7642977 255 79 163
28.9424779 67.6847228 23.6525578 255 79 163
28.9424779 67.6393723 23.712034 255 79 163
28.9424779 67.6170989 23.7834342 255 79 163
28.86827 67.6293785 23.6573858 255 79 163
28.86827 67.589017 23.7354997 255 79 163
28.78601 71.1426452 29.2595063 255 79 163
28.8420374 71.1365282 29.2563456 255 79 163
28.8955547 71.1184512 29.2470052 255 79 163
28.9441645 71.089224 29.2319035 255 79 163
28.9856889 71.050156 29.211717 255 79 163
29.0182677 71.0029975 29.1873501 255 79 163
29.0404413 70.9498612 29.1598945 255 79 163
29.0492508 70.910164 29.1393829 255 79 163
29.0522092 70.8695644 29.1184051 255 79 163
29.0522092 74.0967872 27.0485897 255 79 163
29.045535 74.1287662 27.0984508 255 79 163
29.0258471 74.1591415 27.1458116 255 79 163
28.9941329 74.1863902 27.1882972 255 79 163
28.9519824 74.2091458 27.2237774 255 79 163
28.9015095 74.2262673 27.2504729 255 79 163
28.8452448 74.2368961 27.2670452 255 79 163
28.78601 74.2404992 27.2726631 255 79 163
29.0522092 67.8307007 23.8108937 255 79 163
29.045535 67.7715304 23.8136577 255 79 163
29.0258471 67.715327 23.8162832 255 79 163
28.9941329 67.664909 23.8186384 255 79 163
28.9519824 67.6228045 23.8206052 255 79 163
28.9015095 67.5911248 23.8220851 255 79 163
28.8452448 67.5714584 23.8230038 255 79 163
28.78601 67.5647915 23.8233152 255 79 163
29.0522092 68.009602 27.6406583 255 79 163
28.78601 67.7365212 27.499557 255 79 163
28.8420374 67.7426382 27.5027177 255 79 163
28.8955547 67.7607152 27.5120581 255 79 163
28.9441645 67.7899424 27.5271599 255 79 163
28.9856889 67.8290104 27.5473464 255 79 163
29.0182677 67.8761689 27.5717132 255 79 163
29.0404413 67.9293052 27.5991688 255 79 163
29.0492508 67.9690024 27.6196804 255 79 163
38.0713662 64.6740469 39.7987301 255 79 163
38.0713662 64.6740469 39.7987301 255 79 163
38.0713662 65.381246 39.7736144 255 79 163
38.0713662 65.3708954 39.7532119 255 79 163
38.0713662 65.3567873 39.7352377 255 79 163
38.0713662 65.3399009 39.7197855 255 79 163
38.0713662 65.3145406 39.702814 255 79 163
38.0713662 65.2729436 39.6836999 255 79 163
38.0713662 65.2067524 39.6655341 255 79 163
38.0713662 65.1043345 39.654652 255 79 163
38.0713662 64.9885828 39.6599886 255 79 163
38.0713662 64.8748954 39.6823276 255 79 163
38.0713662 64.7671262 39.724593 255 79 163
38.0713662 64.7182654 39.7557164 255 79 163
38.0713662 64.6947926 39.7758334 255 79 163
38.0640114 65.3231621 39.7957044 255 79 163
38.0423521 65.2682872 39.816574 255 79 163
38.0075863 65.2196548 39.8350694 255 79 163
37.9616352 65.1799524 39.8501687 255 79 163
37.907037 65.1513728 39.8610379 255 79 163
37.8570996 65.1372137 39.8664228 255 79 163
37.805167 65.1324331 39.8682409 255 79 163
37.8375102 65.1002367 39.8081439 255 79 163
37.8698534 65.0538311 39.7581962 255 79 163
37.9021966 64.9962604 39.721674 255 79 163
37.9345398 64.9313009 39.7009731 255 79 163
37.9567231 64.8846695 39.6966701 255 79 163
37.9809805 64.8336925 39.7013922 255 79 163
38.0031638 64.7886449 39.7141874 255 79 163
38.0234503 64.7499888 39.7326399 255 79 163
38.0437367 64.7147927 39.7570536 255 79 163
38.0575515 64.6932757 39.7767733 255 79 163
38.0624617 65.2592958 39.7282779 255 79 163
38.0383705 65.2072103 39.7516931 255 79 163
38.0017775 65.1630461 39.772197 255 79 163
38.0631411 65.178293 39.6897246 255 79 163
37.9545551 65.1293096 39.7886503 255 79 163
38.0419885 65.1364672 39.7090689 255 79 163
37.8988841 65.107587 39.800263 255 79 163
38.010882 65.101274 39.7264399 255 79 163
37.9710286 65.0746821 39.7404847 255 79 163
37.9236207 65.057746 39.7501983 255 79 163
38.0655667 65.0004732 39.6667507 255 79 163
38.0305971 64.9530958 39.685965 255 79 163
38.0043604 64.9370687 39.693374 255 79 163
37.9729205 64.9272929 39.6976621 255 79 163
38.0379203 64.7913336 39.7132551 255 79 163
38.0512048 64.7993538 39.7095798 255 79 163
38.0221177 64.7866999 39.7151505 255 79 163
38.0650219 65.0352291 39.6666738 255 79 163
38.0511967 64.9746857 39.6766125 255 79 163
38.0658694 64.9817996 39.6676139 255 79 163
38.0673965 64.8921289 39.6799047 255 79 163
38.0615737 64.8102032 39.7047805 255 79 163
38.0683139 64.8403664 39.6937139 255 79 163
38.0686245 64.8230198 39.6996292 255 79 163
38.0705485 64.8479898 39.6909391 255 79 163
38.0692116 64.7903532 39.712837 255 79 163
38.0707949 64.7958248 39.7104983 255 79 163
38.0667703 64.785115 39.7151471 255 79 163
38.0676667 64.7621114 39.726672 255 79 163
38.0641105 64.7137589 39.7580459 255 79 163
38.0661707 64.701551 39.7685961 255 79 163
38.0701259 64.9385838 39.6696491 255 79 163
38.0703788 64.883987 39.6807824 255 79 163
38.0711428 64.861202 39.6866498 255 79 163
38.0711758 64.8341568 39.6954065 255 79 163
38.071239 64.7816459 39.7171054 255 79 163
38.0696823 64.708828 39.7626289 255 79 163
38.0706336 64.7410758 39.7393668 255 79 163
38.0713121 64.8542431 39.6886417 255 79 163
38.0713287 64.8004123 39.7085555 255 79 163
38.0711516 64.7536125 39.7319161 255 79 163
38.0713364 64.774425 39.7207327 255 79 163
38.071205 64.7298572 39.747017 255 79 163
38.0709763 64.7021537 39.7686572 255 79 163
38.071354 64.837041 39.6942917 255 79 163
38.0713205 64.8270683 39.6979036 255 79 163
38.0713581 64.783687 39.7161869 255 79 163
38.0713156 64.747896 39.7354171 255 79 163
38.0712461 64.7098575 39.762176 255 79 163
38.0713419 64.8185542 39.7011178 255 79 163
38.0713561 64.8100571 39.7045011 255 79 163
38.0713638 64.8015821 39.708059 255 79 163
38.0713394 64.7023125 39.7687562 255 79 163
38.0713655 64.8377683 39.6940063 255 79 163
38.0713601 64.8192099 39.7008519 255 79 163
38.0713657 64.7842031 39.7159556 255 79 163
38.0713647 64.8195387 39.7007182 255 79 163
38.0713622 64.8103679 39.7043722 255 79 163
38.0713656 64.8106793 39.7042428 255 79 163
38.0713661 64.8018761 39.707934 255 79 163
38.0713662 64.8379505 39.6939345 255 79 163
38.0713658 64.8197034 39.7006512 255 79 163
38.0713661 64.8197857 39.7006176 255 79 163
38.071366 64.8107572 39.7042104 255 79 163
38.0713662 64.8019497 39.7079027 255 79 163
38.0713662 64.8379961 39.6939165 255 79 163
38.0713662 64.8198269 39.7006008 255 79 163
38.0713662 64.8108352 39.7041779 255 79 163
38.0713662 64.8198475 39.7005923 255 79 163
38.0713662 64.8108547 39.7041698 255 79 163
38.0713662 64.8019681 39.7078949 255 79 163
3 57 0 56
3 35 56 0
3 58 0 57
3 59 0 58
3 55 0 59
3 36 35 0
3 37 36 0
3 52 54 53
3 52 55 54
3 52 0 55
3 51 0 52
3 38 37 0
3 34 38 0
3 34 39 38
3 34 40 39
3 34 41 40
3 34 42 41
3 34 43 42
3 73 45 72
3 74 45 73
3 71 72 45
3 60 45 74
3 70 71 45
3 69 45 44
3 69 70 45
3 68 69 44
3 67 68 44
3 66 67 44
3 65 66 44
3 64 65 44
3 63 64 44
3 62 44 43
3 62 63 44
3 61 45 60
3 61 46 45
3 76 46 61
3 76 47 46
3 76 48 47
3 75 43 34
3 75 62 43
3 1 0 51
3 1 49 48
3 1 50 49
3 1 51 50
3 1 48 76
3 1 76 75
3 5 7 6
3 5 8 7
3 5 9 8
3 5 10 9
3 4 10 5
3 3 11 10
3 3 10 4
3 24 75 34
3 25 75 24
3 26 75 25
3 27 75 26
3 28 75 27
3 29 75 28
3 29 1 75
3 30 1 29
3 31 1 30
3 32 1 31
3 12 11 3
3 2 13 12
3 2 14 13
3 2 15 14
3 2 16 15
3 2 17 16
3 2 18 17
3 2 19 18
3 2 20 19
3 2 12 3
3 2 21 20
3 2 22 21
3 2 23 22
3 2 32 33
3 2 33 23
3 2 1 32
3 81 79 80
3 84 81 82
3 84 82 83
3 85 81 84
3 87 85 86
3 77 85 87
3 77 81 85
3 78 79 81
3 78 81 77
3 97 98 99
3 97 99 100
3 96 100 101
3 96 97 100
3 95 101 102
3 95 96 101
3 94 102 103
3 94 95 102
3 93 94 103
3 92 103 104
3 92 93 103
3 91 104 105
3 91 92 104
3 90 105 88
3 90 91 105
3 89 90 88
3 117 106 107
3 118 107 108
3 118 117 107
3 119 108 109
3 119 118 108
3 120 109 110
3 120 110 111
3 120 119 109
3 121 111 112
3 121 120 111
3 122 112 113
3 122 121 112
3 123 113 114
3 123 122 113
3 116 114 115
3 116 123 114
3 124 132 139
3 125 139 138
3 125 124 139
3 126 138 137
3 126 125 138
3 127 137 136
3 127 126 137
3 128 136 135
3 128 127 136
3 129 135 134
3 129 128 135
3 130 134 133
3 130 129 134
3 131 130 133
3 142 141 140
3 142 140 143
3 156 147 146
3 148 147 156
3 157 149 148
3 157 148 156
3 163 160 161
3 163 161 162
3 168 151 150
3 168 152 151
3 169 168 150
3 170 150 149
3 170 149 157
3 170 169 150
3 171 157 158
3 171 170 157
3 172 158 159
3 172 171 158
3 173 159 160
3 173 160 163
3 173 172 159
3 174 163 164
3 174 164 173
3 174 173 163
3 175 164 165
3 175 173 164
3 175 172 173
3 176 165 166
3 176 175 165
3 177 176 166
3 178 166 167
3 178 177 166
3 179 144 145
3 179 167 144
3 179 178 167
3 180 153 152
3 180 152 168
3 180 171 172
3 180 172 175
3 180 170 171
3 180 168 169
3 180 169 170
3 181 180 175
3 181 153 180
3 182 154 153
3 182 153 181
3 182 175 176
3 182 181 175
3 183 176 177
3 183 154 182
3 183 182 176
3 184 183 177
3 184 154 183
3 185 155 154
3 185 154 184
3 185 177 178
3 185 184 177
3 186 178 179
3 186 155 185
3 186 185 178
3 187 179 145
3 187 186 179
3 188 186 187
3 188 145 155
3 188 155 186
3 188 187 145
3 204 189 190
3 203 190 191
3 203 204 190
3 202 191 192
3 202 203 191
3 201 192 193
3 201 202 192
3 200 193 194
3 200 201 193
3 199 194 195
3 199 200 194
3 198 195 196
3 198 199 195
3 197 198 196
3 206 207 205
3 206 208 207
3 218 209 210
3 218 211 209
3 217 211 218
3 216 211 217
3 215 211 216
3 213 215 214
3 212 215 213
3 212 211 215
3 231 221 222
3 223 231 222
3 232 223 224
3 232 231 223
3 238 236 235
3 238 237 236
3 243 225 226
3 243 226 227
3 244 225 243
3 245 224 225
3 245 232 224
3 245 225 244
3 246 233 232
3 246 232 245
3 247 234 233
3 247 233 246
3 248 235 234
3 248 238 235
3 248 234 247
3 249 239 238
3 249 248 239
3 249 238 248
3 250 240 239
3 250 239 248
3 250 248 247
3 251 241 240
3 251 240 250
3 252 241 251
3 253 242 241
3 253 241 252
3 254 220 219
3 254 219 242
3 254 242 253
3 255 227 228
3 255 243 227
3 255 247 246
3 255 250 247
3 255 246 245
3 255 244 243
3 255 245 244
3 256 250 255
3 256 255 228
3 257 228 229
3 257 256 228
3 257 251 250
3 257 250 256
3 258 252 251
3 258 257 229
3 258 251 257
3 259 252 258
3 259 258 229
3 260 229 230
3 260 259 229
3 260 253 252
3 260 252 259
3 261 254 253
3 261 260 230
3 261 253 260
3 262 220 254
3 262 254 261
3 263 262 261
3 263 230 220
3 263 261 230
3 263 220 262
3 272 273 281
3 271 281 280
3 271 272 281
3 270 280 279
3 270 271 280
3 269 279 278
3 269 270 279
3 268 277 276
3 268 278 277
3 268 269 278
3 267 276 275
3 267 268 276
3 266 275 274
3 266 267 275
3 265 274 264
3 265 266 274
3 282 293 292
3 282 283 293
3 291 288 289
3 291 289 290
3 291 290 282
3 291 282 292
3 287 288 291
3 286 287 291
3 285 286 291
3 284 285 291
3 301 295 294
3 302 296 295
3 302 295 301
3 303 297 296
3 303 296 302
3 304 298 297
3 304 297 303
3 305 298 304
3 300 299 298
3 300 298 305
3 307 308 306
3 307 309 308
3 318 319 325
3 317 325 324
3 317 318 325
3 316 324 323
3 316 317 324
3 315 323 322
3 315 316 323
3 314 322 321
3 314 315 322
3 313 321 320
3 313 314 321
3 312 320 310
3 312 313 320
3 311 312 310
3 336 328 329
3 330 336 329
3 346 330 331
3 346 331 332
3 346 332 333
3 346 337 336
3 346 336 330
3 347 338 337
3 347 337 346
3 348 339 338
3 348 338 347
3 349 340 339
3 349 339 348
3 350 341 340
3 350 342 341
3 350 343 342
3 350 340 349
3 351 350 349
3 351 343 350
3 351 348 347
3 351 349 348
3 352 344 343
3 352 343 351
3 353 344 352
3 354 327 326
3 354 345 344
3 354 326 345
3 354 344 353
3 355 333 334
3 355 334 335
3 355 346 333
3 355 351 347
3 355 352 351
3 355 347 346
3 356 355 335
3 356 353 352
3 356 352 355
3 357 356 335
3 357 353 356
3 358 335 327
3 358 357 335
3 358 327 354
3 358 354 353
3 358 353 357
3 372 370 371
3 383 360 359
3 383 359 367
3 384 361 360
3 384 360 383
3 385 367 368
3 385 383 367
3 386 362 361
3 386 361 384
3 387 383 385
3 387 384 383
3 388 368 369
3 388 385 368
3 389 363 362
3 389 362 386
3 390 386 384
3 390 384 387
3 391 387 385
3 391 385 388
3 392 364 363
3 392 363 389
3 393 369 370
3 393 370 372
3 393 388 369
3 394 386 390
3 394 389 386
3 395 390 387
3 395 387 391
3 396 365 364
3 396 366 365
3 396 379 366
3 396 364 392
3 397 372 373
3 397 391 388
3 397 393 372
3 397 388 393
3 398 392 389
3 398 389 394
3 399 394 390
3 399 390 395
3 400 373 374
3 400 397 373
3 400 391 397
3 400 395 391
3 401 380 379
3 401 392 398
3 401 379 396
3 401 396 392
3 402 398 394
3 402 394 399
3 403 374 375
3 403 399 395
3 403 400 374
3 403 395 400
3 404 398 402
3 404 381 380
3 404 380 401
3 404 401 398
3 405 375 376
3 405 403 375
3 405 402 399
3 405 399 403
3 406 405 376
3 406 402 405
3 406 376 377
3 406 377 378
3 406 382 381
3 406 378 382
3 406 404 402
3 406 381 404
3 415 416 422
3 414 422 421
3 414 415 422
3 413 421 420
3 413 414 421
3 412 420 419
3 412 413 420
3 411 419 418
3 411 412 419
3 410 418 417
3 410 411 418
3 409 417 407
3 409 410 417
3 408 409 407
3 430 431 432
3 430 432 438
3 429 438 437
3 429 430 438
3 428 437 436
3 428 429 437
3 427 436 435
3 427 428 436
3 426 435 434
3 426 427 435
3 425 434 433
3 425 426 434
3 424 433 423
3 424 425 433
3 446 447 448
3 446 448 454
3 445 454 453
3 445 446 454
3 444 453 452
3 444 445 453
3 443 452 451
3 443 444 452
3 442 451 450
3 442 443 451
3 441 450 449
3 441 442 450
3 440 449 439
3 440 441 449
3 464 463 459
3 462 459 463
3 465 464 459
3 466 465 459
3 461 459 462
3 456 459 458
3 456 466 459
3 460 459 461
3 457 456 458
3 455 456 457
3 482 470 469
3 471 470 482
3 489 487 488
3 499 472 471
3 499 473 472
3 499 474 473
3 499 482 483
3 499 471 482
3 500 483 484
3 500 499 483
3 501 484 485
3 501 500 484
3 502 475 474
3 502 476 475
3 502 474 499
3 503 485 486
3 503 501 485
3 504 502 499
3 504 499 500
3 504 476 502
3 505 486 487
3 505 489 490
3 505 487 489
3 505 503 486
3 506 504 500
3 506 500 501
3 507 506 501
3 507 501 503
3 507 491 506
3 508 490 491
3 508 503 505
3 508 505 490
3 508 507 503
3 508 491 507
3 509 477 476
3 510 506 491
3 511 493 494
3 511 510 491
3 512 493 511
3 512 491 492
3 512 492 493
3 512 511 491
3 513 511 494
3 513 510 511
3 513 514 510
3 515 513 494
3 515 496 513
3 515 494 495
3 515 495 496
3 516 509 476
3 516 506 510
3 516 504 506
3 516 476 504
3 516 510 517
3 516 517 509
3 518 477 509
3 518 509 517
3 519 514 520
3 519 510 514
3 519 518 517
3 519 517 510
3 521 519 520
3 521 520 522
3 521 522 523
3 524 525 522
3 526 520 514
3 526 522 520
3 526 524 522
3 527 524 526
3 527 526 514
3 528 513 496
3 528 496 497
3 528 527 514
3 528 514 513
3 529 467 468
3 529 497 498
3 529 498 467
3 529 528 497
3 530 478 477
3 530 477 518
3 530 518 519
3 531 519 521
3 531 521 523
3 531 478 530
3 531 530 519
3 532 531 523
3 532 478 531
3 533 523 522
3 534 525 524
3 534 524 527
3 535 529 468
3 535 527 528
3 535 528 529
3 535 536 527
3 537 523 533
3 537 478 532
3 537 532 523
3 538 525 534
3 539 479 540
3 539 534 527
3 539 527 536
3 539 540 534
3 541 536 535
3 542 468 481
3 542 535 468
3 542 541 535
3 543 537 533
3 544 533 522
3 544 543 533
3 545 534 540
3 545 538 534
3 546 480 479
3 546 479 539
3 546 539 536
3 546 536 541
3 546 541 480
3 547 541 542
3 547 480 541
3 548 544 522
3 548 522 525
3 549 548 525
3 549 525 538
3 550 538 545
3 550 549 538
3 551 480 547
3 551 547 542
3 551 481 480
3 551 542 481
3 552 537 543
3 552 543 544
3 553 544 548
3 553 548 549
3 554 550 545
3 554 540 479
3 554 545 540
3 555 544 553
3 556 549 550
3 556 553 549
3 556 555 553
3 556 557 555
3 556 550 557
3 558 557 550
3 558 550 554
3 559 552 544
3 559 537 552
3 560 544 555
3 561 544 560
3 562 555 557
3 562 557 558
3 562 560 555
3 563 558 554
3 563 562 558
3 564 537 559
3 564 478 537
3 564 559 544
3 565 544 561
3 566 560 562
3 567 564 544
3 567 544 565
3 568 561 560
3 568 565 561
3 568 560 566
3 568 567 565
3 569 564 567
3 569 479 478
3 569 478 564
3 569 554 479
3 569 567 568
3 569 563 554
3 569 562 563
3 569 566 562
3 569 568 566
3 581 570 571
3 581 580 570
3 582 581 571
3 583 571 572
3 583 582 571
3 584 572 573
3 584 573 574
3 584 583 572
3 585 574 575
3 585 584 574
3 586 575 576
3 586 576 577
3 586 585 575
3 579 577 578
3 579 586 577
3 596 587 588
3 597 588 589
3 597 589 590
3 597 596 588
3 598 590 591
3 598 597 590
3 599 598 591
3 600 591 592
3 600 599 591
3 601 592 593
3 601 600 592
3 602 601 593
3 603 593 594
3 603 602 593
3 595 603 594
3 605 604 606
3 605 606 607
3 616 617 618
3 616 618 625
3 615 625 624
3 615 616 625
3 614 624 623
3 614 615 624
3 613 623 622
3 613 614 623
3 612 613 622
3 611 622 621
3 611 612 622
3 610 621 620
3 610 611 621
3 609 620 619
3 609 610 620
3 608 609 619
3 628 635 643
3 629 643 642
3 629 628 643
3 630 642 641
3 630 629 642
3 631 641 640
3 631 630 641
3 632 639 638
3 632 640 639
3 632 631 640
3 633 638 637
3 633 632 638
3 634 637 636
3 634 633 637
3 627 636 626
3 627 634 636
3 650 651 658
3 644 645 665
3 666 654 653
3 667 653 652
3 667 666 653
3 668 652 659
3 668 667 652
3 669 655 654
3 669 666 667
3 669 654 666
3 670 659 660
3 670 668 659
3 671 667 668
3 671 669 667
3 672 656 655
3 672 657 656
3 672 655 669
3 673 660 661
3 673 670 660
3 674 671 668
3 674 668 670
3 675 669 671
3 675 672 669
3 676 661 662
3 676 674 670
3 676 673 661
3 676 670 673
3 677 671 674
3 677 675 671
3 678 649 650
3 678 658 657
3 678 657 672
3 678 672 675
3 678 650 658
3 679 674 676
3 679 677 674
3 680 648 649
3 680 649 678
3 680 675 677
3 680 678 675
3 681 662 663
3 681 663 664
3 681 676 662
3 681 679 676
3 682 646 647
3 682 647 648
3 682 648 680
3 682 677 679
3 682 680 677
3 683 645 646
3 683 664 665
3 683 665 645
3 683 646 682
3 683 681 664
3 683 679 681
3 683 682 679
3 695 693 692
3 696 692 691
3 696 695 692
3 697 691 690
3 697 696 691
3 698 690 689
3 698 697 690
3 699 688 687
3 699 689 688
3 699 698 689
3 700 687 686
3 700 699 687
3 701 686 685
3 701 700 686
3 694 685 684
3 694 701 685
3 703 702 705
3 704 703 705
3 721 707 706
3 721 706 714
3 720 713 712
3 720 714 713
3 720 721 714
3 719 720 712
3 718 712 711
3 718 719 712
3 717 710 709
3 717 711 710
3 717 718 711
3 716 717 709
3 715 709 708
3 715 716 709
3 736 723 722
3 736 722 737
3 735 723 736
3 734 724 723
3 734 723 735
3 733 725 724
3 733 724 734
3 732 725 733
3 731 726 725
3 731 725 732
3 730 727 726
3 730 726 731
3 729 728 727
3 729 727 730
3 744 745 752
3 738 739 759
3 760 748 747
3 761 747 746
3 761 760 747
3 762 746 753
3 762 761 746
3 763 749 748
3 763 760 761
3 763 748 760
3 764 753 754
3 764 762 753
3 765 761 762
3 765 763 761
3 766 750 749
3 766 751 750
3 766 749 763
3 767 754 755
3 767 764 754
3 768 765 762
3 768 762 764
3 769 763 765
3 769 766 763
3 770 755 756
3 770 768 764
3 770 767 755
3 770 764 767
3 771 765 768
3 771 769 765
3 772 743 744
3 772 752 751
3 772 751 766
3 772 766 769
3 772 744 752
3 773 768 770
3 773 771 768
3 774 742 743
3 774 743 772
3 774 769 771
3 774 772 769
3 775 756 757
3 775 757 758
3 775 770 756
3 775 773 770
3 776 740 741
3 776 741 742
3 776 742 774
3 776 771 773
3 776 774 771
3 777 739 740
3 777 758 759
3 777 759 739
3 777 740 776
3 777 775 758
3 777 773 775
3 777 776 773
3 787 789 788
3 787 794 789
3 786 793 794
3 786 794 787
3 785 793 786
3 784 792 793
3 784 793 785
3 783 791 792
3 783 792 784
3 782 791 783
3 781 790 791
3 781 791 782
3 780 778 790
3 780 790 781
3 779 778 780
3 806 803 804
3 807 802 803
3 807 803 806
3 808 800 801
3 808 801 802
3 808 802 807
3 809 799 800
3 809 800 808
3 810 798 799
3 810 799 809
3 811 797 798
3 811 798 810
3 812 796 797
3 812 797 811
3 813 795 796
3 813 796 812
3 805 795 813
3 825 814 815
3 826 815 816
3 826 825 815
3 827 816 817
3 827 826 816
3 828 817 818
3 828 818 819
3 828 827 817
3 829 819 820
3 829 828 819
3 830 820 821
3 830 829 820
3 831 821 822
3 831 830 821
3 824 822 823
3 824 831 822
3 839 840 841
3 839 847 846
3 839 841 847
3 838 839 846
3 837 845 844
3 837 846 845
3 837 838 846
3 836 837 844
3 835 843 842
3 835 844 843
3 835 836 844
3 834 835 842
3 833 842 832
3 833 834 842
3 857 851 850
3 857 852 851
3 857 853 852
3 857 854 853
3 857 855 854
3 857 856 855
3 857 849 856
3 866 848 849
3 866 867 848
3 866 849 857
3 858 863 864
3 858 864 865
3 858 865 866
3 858 866 857
3 862 863 858
3 861 862 858
3 860 861 858
3 859 860 858
3 875 876 877
3 875 877 883
3 874 883 882
3 874 875 883
3 873 882 881
3 873 874 882
3 872 881 880
3 872 873 881
3 871 880 879
3 871 872 880
3 870 879 878
3 870 871 879
3 869 878 868
3 869 870 878
3 885 884 887
3 886 885 887
3 891 889 888
3 891 890 889
3 902 898 899
3 902 899 901
3 903 897 898
3 903 898 902
3 904 896 897
3 904 897 903
3 905 895 896
3 905 896 904
3 906 894 895
3 906 895 905
3 907 893 894
3 907 894 906
3 908 892 893
3 908 893 907
3 900 892 908
3 913 921 914
3 909 928 910
3 929 915 916
3 929 916 917
3 930 922 915
3 930 915 929
3 931 923 922
3 931 924 923
3 931 922 930
3 932 917 918
3 932 930 929
3 932 929 917
3 933 925 924
3 933 924 931
3 933 931 930
3 933 930 932
3 934 918 919
3 934 919 920
3 934 932 918
3 935 933 932
3 935 932 934
3 936 926 925
3 936 927 926
3 936 933 935
3 936 925 933
3 937 913 912
3 937 920 921
3 937 935 934
3 937 934 920
3 937 921 913
3 938 911 910
3 938 912 911
3 938 928 927
3 938 937 912
3 938 927 936
3 938 936 935
3 938 910 928
3 938 935 937
3 949 942 943
3 948 941 942
3 948 942 949
3 947 941 948
3 946 940 941
3 946 941 947
3 945 939 940
3 945 940 946
3 944 939 945
3 964 956 957
3 964 957 965
3 963 955 956
3 963 956 964
3 962 954 955
3 962 955 963
3 961 952 953
3 961 953 954
3 961 954 962
3 960 952 961
3 959 950 951
3 959 951 952
3 959 952 960
3 958 950 959
3 974 966 967
3 974 972 966
3 975 971 972
3 975 972 974
3 976 970 971
3 976 971 975
3 977 969 970
3 977 970 976
3 973 968 969
3 973 969 977
3 981 979 978
3 981 980 979
3 982 985 984
3 982 983 985
3 987 989 988
3 987 990 989
3 987 991 990
3 987 992 991
3 987 993 992
3 987 994 993
3 995 994 987
3 997 996 995
3 997 998 999
3 997 999 1000
3 997 1000 1001
3 997 1001 1002
3 997 1002 1003
3 997 1003 1004
3 997 1004 996
3 997 995 987
3 986 997 987
3 1005 997 986
3 1010 1007 1018
3 1008 1010 1011
3 1008 1011 1012
3 1008 1012 1013
3 1008 1013 1014
3 1008 1014 1015
3 1008 1015 1016
3 1008 1016 1017
3 1008 1017 1009
3 1006 1007 1010
3 1006 1010 1008
3 1020 1019 1027
3 1029 1027 1026
3 1029 1020 1027
3 1030 1026 1025
3 1030 1029 1026
3 1031 1030 1025
3 1032 1025 1024
3 1032 1031 1025
3 1033 1024 1023
3 1033 1032 1024
3 1034 1023 1022
3 1034 1033 1023
3 1035 1022 1021
3 1035 1034 1022
3 1028 1035 1021
3 1047 1049 1048
3 1047 1050 1049
3 1046 1050 1047
3 1045 1051 1050
3 1045 1050 1046
3 1044 1051 1045
3 1043 1052 1051
3 1043 1051 1044
3 1042 1053 1052
3 1042 1052 1043
3 1041 1054 1053
3 1041 1053 1042
3 1040 1055 1054
3 1040 1054 1041
3 1039 1056 1055
3 1039 1057 1056
3 1039 1055 1040
3 1038 1058 1057
3 1038 1059 1058
3 1038 1057 1039
3 1037 1036 1059
3 1037 1059 1038
3 1061 1062 1060
3 1061 1063 1062
3 1074 1064 1065
3 1074 1073 1064
3 1075 1065 1066
3 1075 1074 1065
3 1076 1066 1067
3 1076 1075 1066
3 1077 1076 1067
3 1078 1067 1068
3 1078 1077 1067
3 1079 1068 1069
3 1079 1078 1068
3 1080 1069 1070
3 1080 1079 1069
3 1081 1070 1071
3 1081 1080 1070
3 1072 1081 1071
3 1088 1089 1096
3 1082 1083 1103
3 1104 1092 1091
3 1105 1091 1090
3 1105 1104 1091
3 1106 1090 1097
3 1106 1105 1090
3 1107 1093 1092
3 1107 1104 1105
3 1107 1092 1104
3 1108 1097 1098
3 1108 1106 1097
3 1109 1105 1106
3 1109 1107 1105
3 1110 1094 1093
3 1110 1095 1094
3 1110 1093 1107
3 1111 1098 1099
3 1111 1108 1098
3 1112 1109 1106
3 1112 1106 1108
3 1113 1107 1109
3 1113 1110 1107
3 1114 1099 1100
3 1114 1112 1108
3 1114 1111 1099
3 1114 1108 1111
3 1115 1109 1112
3 1115 1113 1109
3 1116 1087 1088
3 1116 1096 1095
3 1116 1095 1110
3 1116 1110 1113
3 1116 1088 1096
3 1117 1112 1114
3 1117 1115 1112
3 1118 1086 1087
3 1118 1087 1116
3 1118 1113 1115
3 1118 1116 1113
3 1119 1100 1101
3 1119 1101 1102
3 1119 1114 1100
3 1119 1117 1114
3 1120 1084 1085
3 1120 1085 1086
3 1120 1086 1118
3 1120 1115 1117
3 1120 1118 1115
3 1121 1083 1084
3 1121 1102 1103
3 1121 1103 1083
3 1121 1084 1120
3 1121 1119 1102
3 1121 1117 1119
3 1121 1120 1117
3 1133 1122 1132
3 1131 1132 1122
3 1134 1122 1133
3 1130 1131 1122
3 1135 1122 1134
3 1136 1122 1135
3 1137 1122 1136
3 1138 1122 1137
3 1139 1122 1138
3 1140 1122 1139
3 1141 1122 1140
3 1129 1130 1122
3 1123 1126 1128
3 1123 1128 1129
3 1123 1129 1122
3 1125 1127 1126
3 1125 1141 1142
3 1125 1142 1127
3 1125 1122 1141
3 1124 1125 1126
3 1124 1126 1123
3 1159 1150 1149
3 1158 1164 1157
3 1165 1145 1144
3 1166 1144 1143
3 1166 1165 1144
3 1167 1143 1151
3 1167 1166 1143
3 1168 1146 1145
3 1168 1145 1165
3 1168 1165 1166
3 1169 1151 1152
3 1169 1167 1151
3 1170 1166 1167
3 1170 1168 1166
3 1171 1147 1146
3 1171 1148 1147
3 1171 1146 1168
3 1172 1152 1153
3 1172 1169 1152
3 1173 1170 1167
3 1173 1167 1169
3 1174 1168 1170
3 1174 1171 1168
3 1175 1153 1154
3 1175 1169 1172
3 1175 1172 1153
3 1175 1173 1169
3 1176 1170 1173
3 1176 1174 1170
3 1177 1149 1148
3 1177 1160 1159
3 1177 1148 1171
3 1177 1171 1174
3 1177 1159 1149
3 1178 1173 1175
3 1178 1176 1173
3 1179 1161 1160
3 1179 1162 1161
3 1179 1160 1177
3 1179 1174 1176
3 1179 1177 1174
3 1180 1154 1155
3 1180 1155 1156
3 1180 1175 1154
3 1180 1178 1175
3 1181 1163 1162
3 1181 1162 1179
3 1181 1176 1178
3 1181 1179 1176
3 1182 1156 1157
3 1182 1164 1163
3 1182 1163 1181
3 1182 1157 1164
3 1182 1180 1156
3 1182 1178 1180
3 1182 1181 1178
3 1199 1184 1183
3 1198 1185 1184
3 1198 1184 1199
3 1197 1186 1185
3 1197 1185 1198
3 1196 1187 1186
3 1196 1186 1197
3 1195 1188 1187
3 1195 1187 1196
3 1194 1189 1188
3 1194 1188 1195
3 1193 1190 1189
3 1193 1189 1194
3 1192 1191 1190
3 1192 1190 1193
3 1204 1202 1203
3 1205 1200 1201
3 1205 1201 1202
3 1205 1202 1204
3 1222 1212 1213
3 1221 1220 1225
3 1226 1206 1207
3 1226 1207 1208
3 1227 1214 1206
3 1227 1206 1226
3 1228 1215 1214
3 1228 1216 1215
3 1228 1214 1227
3 1229 1208 1209
3 1229 1226 1208
3 1229 1227 1226
3 1230 1217 1216
3 1230 1216 1228
3 1230 1228 1227
3 1230 1227 1229
3 1231 1209 1210
3 1231 1210 1211
3 1231 1229 1209
3 1232 1229 1231
3 1232 1230 1229
3 1233 1218 1217
3 1233 1219 1218
3 1233 1217 1230
3 1233 1230 1232
3 1234 1211 1212
3 1234 1222 1223
3 1234 1223 1224
3 1234 1232 1231
3 1234 1212 1222
3 1234 1231 1211
3 1235 1220 1219
3 1235 1224 1225
3 1235 1219 1233
3 1235 1234 1224
3 1235 1233 1232
3 1235 1225 1220
3 1235 1232 1234
3 1240 1248 1241
3 1236 1255 1237
3 1256 1242 1243
3 1256 1243 1244
3 1257 1249 1242
3 1257 1242 1256
3 1258 1250 1249
3 1258 1251 1250
3 1258 1249 1257
3 1259 1244 1245
3 1259 1257 1256
3 1259 1256 1244
3 1260 1252 1251
3 1260 1251 1258
3 1260 1258 1257
3 1260 1257 1259
3 1261 1245 1246
3 1261 1246 1247
3 1261 1259 1245
3 1262 1260 1259
3 1262 1259 1261
3 1263 1253 1252
3 1263 1254 1253
3 1263 1260 1262
3 1263 1252 1260
3 1264 1240 1239
3 1264 1247 1248
3 1264 1262 1261
3 1264 1261 1247
3 1264 1248 1240
3 1265 1238 1237
3 1265 1239 1238
3 1265 1255 1254
3 1265 1264 1239
3 1265 1254 1263
3 1265 1263 1262
3 1265 1237 1255
3 1265 1262 1264
3 1282 1267 1266
3 1281 1268 1267
3 1281 1267 1282
3 1280 1269 1268
3 1280 1268 1281
3 1279 1270 1269
3 1279 1269 1280
3 1278 1271 1270
3 1278 1270 1279
3 1277 1272 1271
3 1277 1271 1278
3 1276 1273 1272
3 1276 1272 1277
3 1275 1274 1273
3 1275 1273 1276
3 1293 1289 1290
3 1293 1290 1292
3 1294 1288 1289
3 1294 1289 1293
3 1295 1287 1288
3 1295 1288 1294
3 1296 1286 1287
3 1296 1287 1295
3 1297 1285 1286
3 1297 1286 1296
3 1298 1284 1285
3 1298 1285 1297
3 1299 1283 1284
3 1299 1284 1298
3 1291 1283 1299
3 1315 1303 1302
3 1304 1303 1315
3 1322 1320 1321
3 1332 1305 1304
3 1332 1306 1305
3 1332 1307 1306
3 1332 1315 1316
3 1332 1304 1315
3 1333 1316 1317
3 1333 1332 1316
3 1334 1317 1318
3 1334 1333 1317
3 1335 1308 1307
3 1335 1309 1308
3 1335 1307 1332
3 1336 1318 1319
3 1336 1334 1318
3 1337 1335 1332
3 1337 1332 1333
3 1337 1309 1335
3 1338 1319 1320
3 1338 1322 1323
3 1338 1320 1322
3 1338 1336 1319
3 1339 1337 1333
3 1339 1333 1334
3 1340 1339 1334
3 1340 1334 1336
3 1340 1324 1339
3 1341 1323 1324
3 1341 1336 1338
3 1341 1338 1323
3 1341 1340 1336
3 1341 1324 1340
3 1342 1310 1309
3 1343 1339 1324
3 1344 1326 1327
3 1344 1343 1324
3 1345 1326 1344
3 1345 1324 1325
3 1345 1325 1326
3 1345 1344 1324
3 1346 1344 1327
3 1346 1343 1344
3 1346 1347 1343
3 1348 1346 1327
3 1348 1329 1346
3 1348 1327 1328
3 1348 1328 1329
3 1349 1342 1309
3 1349 1339 1343
3 1349 1337 1339
3 1349 1309 1337
3 1349 1343 1350
3 1349 1350 1342
3 1351 1310 1342
3 1351 1342 1350
3 1352 1347 1353
3 1352 1343 1347
3 1352 1351 1350
3 1352 1350 1343
3 1354 1352 1353
3 1354 1353 1355
3 1354 1355 1356
3 1357 1358 1355
3 1359 1353 1347
3 1359 1355 1353
3 1359 1357 1355
3 1360 1357 1359
3 1360 1359 1347
3 1361 1346 1329
3 1361 1329 1330
3 1361 1360 1347
3 1361 1347 1346
3 1362 1300 1301
3 1362 1330 1331
3 1362 1331 1300
3 1362 1361 1330
3 1363 1311 1310
3 1363 1310 1351
3 1363 1351 1352
3 1364 1352 1354
3 1364 1354 1356
3 1364 1311 1363
3 1364 1363 1352
3 1365 1364 1356
3 1365 1311 1364
3 1366 1356 1355
3 1367 1358 1357
3 1367 1357 1360
3 1368 1362 1301
3 1368 1360 1361
3 1368 1361 1362
3 1368 1369 1360
3 1370 1356 1366
3 1370 1311 1365
3 1370 1365 1356
3 1371 1358 1367
3 1372 1367 1360
3 1372 1312 1373
3 1372 1360 1369
3 1372 1373 1367
3 1374 1369 1368
3 1375 1301 1314
3 1375 1368 1301
3 1375 1374 1368
3 1376 1370 1366
3 1377 1366 1355
3 1377 1376 1366
3 1378 1371 1367
3 1378 1367 1373
3 1379 1313 1312
3 1379 1312 1372
3 1379 1372 1369
3 1379 1369 1374
3 1379 1374 1313
3 1380 1374 1375
3 1380 1313 1374
3 1381 1377 1355
3 1381 1355 1358
3 1382 1381 1358
3 1382 1358 1371
3 1383 1382 1371
3 1383 1371 1378
3 1384 1313 1380
3 1384 1380 1375
3 1384 1314 1313
3 1384 1375 1314
3 1385 1370 1376
3 1385 1376 1377
3 1386 1381 1382
3 1386 1377 1381
3 1387 1383 1378
3 1387 1378 1373
3 1387 1373 1312
3 1388 1377 1386
3 1389 1386 1382
3 1389 1390 1388
3 1389 1383 1390
3 1389 1382 1383
3 1389 1388 1386
3 1391 1390 1383
3 1391 1383 1387
3 1392 1385 1377
3 1392 1370 1385
3 1393 1377 1388
3 1394 1377 1393
3 1395 1388 1390
3 1395 1390 1391
3 1395 1393 1388
3 1396 1391 1387
3 1396 1395 1391
3 1397 1392 1377
3 1397 1370 1392
3 1397 1311 1370
3 1398 1377 1394
3 1399 1393 1395
3 1400 1397 1377
3 1400 1377 1398
3 1401 1394 1393
3 1401 1393 1399
3 1401 1398 1394
3 1401 1400 1398
3 1402 1311 1397
3 1402 1312 1311
3 1402 1387 1312
3 1402 1396 1387
3 1402 1395 1396
3 1402 1401 1399
3 1402 1397 1400
3 1402 1399 1395
3 1402 1400 1401
