ply
format ascii 1.0
comment generated by blendit.inference.finetune_visualize
element vertex 479
property float x
property float y
property float z
property uchar red
property uchar green
property uchar blue
element face 445
property list uchar int vertex_indices
end_header
0 31.4812383 2.74640493 218 222 230
-2.22044605e-16 12.4866724 48.1028459 218 222 230
0 1.00513318 48.1028459 218 222 230
-2.22044605e-16 1.00513318 8.06504679 218 222 230
0 8.17847923 8.06504679 218 222 230
0 8.17847923 0 218 222 230
0 31.4812383 0 218 222 230
1.00513318 12.0657384 49.1079791 218 222 230
40.6742604 12.0657384 49.1079791 218 222 230
-2.22044605e-16 12.4866724 48.1028459 218 222 230
0.0342490825 12.3777267 48.3629935 218 222 230
0.134662312 12.2762054 48.6054125 218 222 230
0.276035331 12.1969206 48.794734 218 222 230
0.437990058 12.1391467 48.9326901 218 222 230
0.625352867 12.096942 49.0334692 218 222 230
0.811622961 12.073613 49.0891757 218 222 230
0 31.4812383 2.74640493 218 222 230
40.6742604 31.4812383 2.74640493 218 222 230
40.6742604 12.4866724 48.1028459 218 222 230
41.6793935 12.0657384 49.1079791 218 222 230
41.4678414 12.0751674 49.0854641 218 222 230
41.2657668 12.1030318 49.0189276 218 222 230
41.0822228 12.1480834 48.9113506 218 222 230
40.925432 12.2083038 48.7675524 218 222 230
40.8024189 12.2809951 48.5939754 218 222 230
40.7186943 12.3629008 48.3983956 218 222 230
40.6854309 12.4240911 48.2522815 218 222 230
0 1.00513318 48.1028459 255 79 163
0.0252007873 1.00513318 48.3265091 255 79 163
0.0995394764 1.00513318 48.5389569 255 79 163
0.219288415 1.00513318 48.7295362 255 79 163
0.378442892 1.00513318 48.8886907 255 79 163
0.569022236 1.00513318 49.0084396 255 79 163
0.781470004 1.00513318 49.0827783 255 79 163
1.00513318 1.00513318 49.1079791 255 79 163
1.00513318 12.0657384 49.1079791 255 79 163
-2.22044605e-16 12.4866724 48.1028459 255 79 163
0.0342490825 12.3777267 48.3629935 255 79 163
0.134662312 12.2762054 48.6054125 255 79 163
0.276035331 12.1969206 48.794734 255 79 163
0.437990058 12.1391467 48.9326901 255 79 163
0.625352867 12.096942 49.0334692 255 79 163
0.811622961 12.073613 49.0891757 255 79 163
0 31.4812383 0 218 222 230
46.7588204 31.4812383 0 218 222 230
0 31.4812383 2.74640493 218 222 230
40.6742604 31.4812383 2.74640493 218 222 230
40.6742604 31.4812383 48.1028459 218 222 230
41.6793935 31.4812383 49.1079791 218 222 230
41.4557304 31.4812383 49.0827783 218 222 230
41.2432826 31.4812383 49.0084396 218 222 230
41.0527033 31.4812383 48.8886907 218 222 230
40.8935488 31.4812383 48.7295362 218 222 230
40.7737998 31.4812383 48.5389569 218 222 230
40.6994612 31.4812383 48.3265091 218 222 230
46.7588204 31.4812383 49.1079791 218 222 230
42.2575847 31.4812383 24.9218002 218 222 230
42.2575847 31.4812383 24.1861789 218 222 230
42.2274299 31.4812383 24.4307687 218 222 230
42.2274299 31.4812383 24.6772104 218 222 230
-2.22044605e-16 1.00513318 8.06504679 255 79 163
0.0149939938 0.83216757 8.08004079 255 79 163
0.0595286317 0.664362363 8.12457543 255 79 163
0.13227523 0.506724 8.19732202 255 79 163
0.231063405 0.363955595 8.2961102 255 79 163
0.352945829 0.24031662 8.41799262 255 79 163
0.494286157 0.139495825 8.55933295 255 79 163
0.705651259 0.0456524402 8.77069805 255 79 163
0.853662417 0.0114786533 8.91870921 255 79 163
1.00513318 -2.22044605e-16 9.07017997 255 79 163
1.00513318 -2.22044605e-16 48.1028459 255 79 163
0 1.00513318 48.1028459 255 79 163
0.0252007873 0.781470004 48.1028459 255 79 163
0.0995394764 0.569022236 48.1028459 255 79 163
0.219288415 0.378442892 48.1028459 255 79 163
0.378442892 0.219288415 48.1028459 255 79 163
0.569022236 0.0995394764 48.1028459 255 79 163
0.781470004 0.0252007873 48.1028459 255 79 163
0 31.4812383 0 218 222 230
46.7588204 31.4812383 0 218 222 230
0 8.17847923 0 218 222 230
10.0555007 8.17847923 0 218 222 230
10.0555007 1.00513318 -2.22044605e-16 218 222 230
61.9541666 1.00513318 -2.22044605e-16 218 222 230
61.9541666 15.1346303 -2.22044605e-16 218 222 230
47.7812123 15.1346303 -2.22044605e-16 218 222 230
47.7812123 16.1397635 0 218 222 230
47.7812123 30.4761052 -2.60902411e-15 218 222 230
46.9974931 31.4534664 0 218 222 230
47.2229766 31.3716854 0 218 222 230
47.4228109 31.2404144 0 218 222 230
47.5859529 31.0669076 0 218 222 230
47.7033874 30.860753 0 218 222 230
47.7615674 30.6721969 0 218 222 230
-2.22044605e-16 1.00513318 8.06504679 218 222 230
0 8.17847923 8.06504679 218 222 230
10.0555007 1.00513318 8.06504679 218 222 230
10.0555007 8.17847923 8.06504679 218 222 230
0 8.17847923 8.06504679 218 222 230
10.0555007 8.17847923 8.06504679 218 222 230
10.0555007 8.17847923 0 218 222 230
0 8.17847923 0 218 222 230
41.6793935 31.4812383 49.1079791 218 222 230
46.7588204 31.4812383 49.1079791 218 222 230
41.6793935 12.0657384 49.1079791 218 222 230
40.6742604 12.0657384 49.1079791 218 222 230
1.00513318 12.0657384 49.1079791 218 222 230
1.00513318 1.00513318 49.1079791 218 222 230
60.9490334 1.00513318 49.1079791 218 222 230
60.9490334 12.9006762 49.1079791 218 222 230
56.8463708 12.9006762 49.1079791 218 222 230
56.8463708 15.1346303 49.1079791 218 222 230
55.8412376 16.1397635 49.1079791 218 222 230
56.0649008 16.1145627 49.1079791 218 222 230
56.2773485 16.040224 49.1079791 218 222 230
56.4679279 15.9204751 49.1079791 218 222 230
56.6270824 15.7613206 49.1079791 218 222 230
56.7468313 15.5707412 49.1079791 218 222 230
56.82117 15.3582935 49.1079791 218 222 230
47.7812123 16.1397635 49.1079791 218 222 230
47.7812123 30.4761052 49.1079791 218 222 230
46.9974931 31.4534664 49.1079791 218 222 230
47.2229766 31.3716854 49.1079791 218 222 230
47.4228109 31.2404144 49.1079791 218 222 230
47.5859529 31.0669076 49.1079791 218 222 230
47.7033874 30.860753 49.1079791 218 222 230
47.7615674 30.6721969 49.1079791 218 222 230
41.6793935 12.0657384 49.1079791 218 222 230
41.6793935 31.4812383 49.1079791 218 222 230
41.4557304 31.4812383 49.0827783 218 222 230
41.2432826 31.4812383 49.0084396 218 222 230
41.0527033 31.4812383 48.8886907 218 222 230
40.8935488 31.4812383 48.7295362 218 222 230
40.7737998 31.4812383 48.5389569 218 222 230
40.6994612 31.4812383 48.3265091 218 222 230
40.6742604 31.4812383 48.1028459 218 222 230
40.6742604 12.4866724 48.1028459 218 222 230
41.4678414 12.0751674 49.0854641 218 222 230
41.2657668 12.1030318 49.0189276 218 222 230
41.0822228 12.1480834 48.9113506 218 222 230
40.925432 12.2083038 48.7675524 218 222 230
40.8024189 12.2809951 48.5939754 218 222 230
40.7186943 12.3629008 48.3983956 218 222 230
40.6854309 12.4240911 48.2522815 218 222 230
40.6742604 31.4812383 48.1028459 218 222 230
40.6742604 31.4812383 2.74640493 218 222 230
40.6742604 12.4866724 48.1028459 218 222 230
1.00513318 -2.22044605e-16 48.1028459 255 79 163
1.00513318 0.0252007873 48.3265091 255 79 163
1.00513318 0.0995394764 48.5389569 255 79 163
1.00513318 0.219288415 48.7295362 255 79 163
1.00513318 0.378442892 48.8886907 255 79 163
1.00513318 0.569022236 49.0084396 255 79 163
1.00513318 0.781470004 49.0827783 255 79 163
1.00513318 1.00513318 49.1079791 255 79 163
0 1.00513318 48.1028459 255 79 163
0.0252007873 1.00513318 48.3265091 255 79 163
0.0995394764 1.00513318 48.5389569 255 79 163
0.219288415 1.00513318 48.7295362 255 79 163
0.378442892 1.00513318 48.8886907 255 79 163
0.569022236 1.00513318 49.0084396 255 79 163
0.781470004 1.00513318 49.0827783 255 79 163
0 1.00513318 48.1028459 255 79 163
0.0252007873 0.781470004 48.1028459 255 79 163
0.0995394764 0.569022236 48.1028459 255 79 163
0.219288415 0.378442892 48.1028459 255 79 163
0.378442892 0.219288415 48.1028459 255 79 163
0.569022236 0.0995394764 48.1028459 255 79 163
0.781470004 0.0252007873 48.1028459 255 79 163
0.0491947193 0.956544126 48.4096251 255 79 163
0.0491947193 0.86412226 48.3795954 255 79 163
0.0491947193 0.785503524 48.3224756 255 79 163
0.191963355 0.822565177 48.6647325 255 79 163
0.0491947193 0.72838367 48.2438568 255 79 163
0.191963355 0.657868205 48.5808152 255 79 163
0.414330719 0.877925391 48.9060043 255 79 163
0.0491947193 0.698353985 48.151435 255 79 163
0.191963355 0.527163948 48.4501109 255 79 163
0.414330719 0.635961803 48.8273855 255 79 163
0.191963355 0.443246649 48.2854139 255 79 163
0.414330719 0.430135282 48.6778438 255 79 163
0.694529944 0.709731948 49.0119974 255 79 163
0.414330719 0.28059356 48.4720173 255 79 163
0.694529944 0.443246649 48.8762164 255 79 163
0.414330719 0.201974825 48.2300537 255 79 163
0.694529944 0.231762719 48.6647325 255 79 163
0.694529944 0.0959816776 48.3982472 255 79 163
46.7588204 31.4812383 0 255 79 163
42.2575847 31.4812383 24.1861789 255 79 163
42.4774723 31.4560375 24.2271017 255 79 163
42.6863338 31.3816989 24.2659724 255 79 163
42.873696 31.2619499 24.300842 255 79 163
43.0301638 31.1027954 24.3299619 255 79 163
43.1478913 30.9122161 24.3518719 255 79 163
43.2209751 30.6997683 24.3654733 255 79 163
43.2457505 30.4761052 24.3700842 255 79 163
47.7812123 30.4761052 -2.60902411e-15 255 79 163
46.9974931 31.4534664 0 255 79 163
47.2229766 31.3716854 0 255 79 163
47.4228109 31.2404144 0 255 79 163
47.5859529 31.0669076 0 255 79 163
47.7033874 30.860753 0 255 79 163
47.7615674 30.6721969 0 255 79 163
42.2575847 31.4812383 24.1861789 255 79 163
42.4774723 31.4560375 24.2271017 255 79 163
42.6863338 31.3816989 24.2659724 255 79 163
42.873696 31.2619499 24.300842 255 79 163
43.0301638 31.1027954 24.3299619 255 79 163
43.1478913 30.9122161 24.3518719 255 79 163
43.2209751 30.6997683 24.3654733 255 79 163
43.2457505 30.4761052 24.3700842 255 79 163
42.2274299 31.4812383 24.4307687 255 79 163
42.2274299 31.4812383 24.6772104 255 79 163
42.2575847 31.4812383 24.9218002 255 79 163
42.4774723 31.4560375 24.8808774 255 79 163
42.6863338 31.3816989 24.8420067 255 79 163
42.873696 31.2619499 24.8071371 255 79 163
43.0301638 31.1027954 24.7780172 255 79 163
43.1478913 30.9122161 24.7561072 255 79 163
43.2209751 30.6997683 24.7425058 255 79 163
43.2457505 30.4761052 24.7378949 255 79 163
43.2306731 30.4761052 24.4923791 255 79 163
43.2306731 30.4761052 24.6156 255 79 163
42.4506725 31.4560375 24.4444783 255 79 163
42.4506725 31.4560375 24.6635008 255 79 163
42.6627208 31.3816989 24.4575005 255 79 163
42.6627208 31.3816989 24.6504786 255 79 163
42.8529418 31.2619499 24.4691822 255 79 163
42.8529418 31.2619499 24.6387969 255 79 163
43.011797 31.1027954 24.4789377 255 79 163
43.011797 31.1027954 24.6290414 255 79 163
43.1313208 30.9122161 24.4862778 255 79 163
43.1313208 30.9122161 24.6217013 255 79 163
43.2055197 30.6997683 24.4908344 255 79 163
43.2055197 30.6997683 24.6171447 255 79 163
42.2575847 31.4812383 24.9218002 255 79 163
46.7588204 31.4812383 49.1079791 255 79 163
46.9974931 31.4534664 49.1079791 255 79 163
47.2229766 31.3716854 49.1079791 255 79 163
47.4228109 31.2404144 49.1079791 255 79 163
47.5859529 31.0669076 49.1079791 255 79 163
47.7033874 30.860753 49.1079791 255 79 163
47.7615674 30.6721969 49.1079791 255 79 163
47.7812123 30.4761052 49.1079791 255 79 163
43.2457505 30.4761052 24.7378949 255 79 163
42.4774723 31.4560375 24.8808774 255 79 163
42.6863338 31.3816989 24.8420067 255 79 163
42.873696 31.2619499 24.8071371 255 79 163
43.0301638 31.1027954 24.7780172 255 79 163
43.1478913 30.9122161 24.7561072 255 79 163
43.2209751 30.6997683 24.7425058 255 79 163
-2.22044605e-16 1.00513318 8.06504679 255 79 163
10.0555007 1.00513318 8.06504679 255 79 163
10.0555007 0.781470004 8.09024758 255 79 163
10.0555007 0.569022236 8.16458627 255 79 163
10.0555007 0.378442892 8.28433521 255 79 163
10.0555007 0.219288415 8.44348969 255 79 163
10.0555007 0.0995394764 8.63406903 255 79 163
10.0555007 0.0252007873 8.8465168 255 79 163
10.0555007 -2.22044605e-16 9.07017997 255 79 163
1.00513318 -2.22044605e-16 9.07017997 255 79 163
0.0149939938 0.83216757 8.08004079 255 79 163
0.0595286317 0.664362363 8.12457543 255 79 163
0.13227523 0.506724 8.19732202 255 79 163
0.231063405 0.363955595 8.2961102 255 79 163
0.352945829 0.24031662 8.41799262 255 79 163
0.494286157 0.139495825 8.55933295 255 79 163
0.705651259 0.0456524402 8.77069805 255 79 163
0.853662417 0.0114786533 8.91870921 255 79 163
61.9541666 -2.22044605e-16 1.00513318 218 222 230
61.9541666 -2.22044605e-16 48.1028459 218 222 230
10.0555007 -2.22044605e-16 1.00513318 218 222 230
10.0555007 0 8.06504679 218 222 230
10.0555007 -2.22044605e-16 9.07017997 218 222 230
1.00513318 -2.22044605e-16 9.07017997 218 222 230
1.00513318 -2.22044605e-16 48.1028459 218 222 230
47.7812123 30.4761052 -2.60902411e-15 218 222 230
47.7812123 16.1397635 0 218 222 230
47.7812123 15.1346303 -2.22044605e-16 218 222 230
47.7760438 15.369274 0.0277719097 218 222 230
47.7608237 15.5909512 0.109552959 218 222 230
47.7363931 15.7874121 0.240823913 218 222 230
47.7041022 15.9478001 0.414330719 218 222 230
47.6657352 16.0632523 0.620485363 218 222 230
47.6306435 16.1204501 0.809041422 218 222 230
47.5941493 16.1397635 1.00513318 218 222 230
43.2457505 16.1397635 24.3700842 218 222 230
43.2457505 30.4761052 24.3700842 218 222 230
10.0555007 8.17847923 0 218 222 230
10.0555007 1.00513318 -2.22044605e-16 218 222 230
10.0555007 0.781470004 0.0252007873 218 222 230
10.0555007 0.569022236 0.0995394764 218 222 230
10.0555007 0.378442892 0.219288415 218 222 230
10.0555007 0.219288415 0.378442892 218 222 230
10.0555007 0.0995394764 0.569022236 218 222 230
10.0555007 0.0252007873 0.781470004 218 222 230
10.0555007 -2.22044605e-16 1.00513318 218 222 230
10.0555007 0 8.06504679 218 222 230
10.0555007 -2.22044605e-16 9.07017997 218 222 230
10.0555007 1.00513318 8.06504679 218 222 230
10.0555007 0.781470004 8.09024758 218 222 230
10.0555007 0.569022236 8.16458627 218 222 230
10.0555007 0.378442892 8.28433521 218 222 230
10.0555007 0.219288415 8.44348969 218 222 230
10.0555007 0.0995394764 8.63406903 218 222 230
10.0555007 0.0252007873 8.8465168 218 222 230
10.0555007 8.17847923 8.06504679 218 222 230
61.9541666 15.1346303 -2.22044605e-16 255 79 163
47.7812123 15.1346303 -2.22044605e-16 255 79 163
47.7760438 15.369274 0.0277719097 255 79 163
47.7608237 15.5909512 0.109552959 255 79 163
47.7363931 15.7874121 0.240823913 255 79 163
47.7041022 15.9478001 0.414330719 255 79 163
47.6657352 16.0632523 0.620485363 255 79 163
47.6306435 16.1204501 0.809041422 255 79 163
47.5941493 16.1397635 1.00513318 255 79 163
60.9490334 16.1397635 1.00513318 255 79 163
61.9391726 15.3075959 0.0149939938 255 79 163
61.894638 15.4754011 0.0595286317 255 79 163
61.8218914 15.6330395 0.13227523 255 79 163
61.7231032 15.7758079 0.231063405 255 79 163
61.6012208 15.8994468 0.352945829 255 79 163
61.4598804 16.0002676 0.494286157 255 79 163
61.2485153 16.094111 0.705651259 255 79 163
61.1005042 16.1282848 0.853662417 255 79 163
10.0555007 1.00513318 -2.22044605e-16 255 79 163
61.9541666 1.00513318 -2.22044605e-16 255 79 163
61.9541666 0.781470004 0.0252007873 255 79 163
61.9541666 0.569022236 0.0995394764 255 79 163
61.9541666 0.378442892 0.219288415 255 79 163
61.9541666 0.219288415 0.378442892 255 79 163
61.9541666 0.0995394764 0.569022236 255 79 163
61.9541666 0.0252007873 0.781470004 255 79 163
61.9541666 -2.22044605e-16 1.00513318 255 79 163
10.0555007 -2.22044605e-16 1.00513318 255 79 163
10.0555007 0.781470004 0.0252007873 255 79 163
10.0555007 0.569022236 0.0995394764 255 79 163
10.0555007 0.378442892 0.219288415 255 79 163
10.0555007 0.219288415 0.378442892 255 79 163
10.0555007 0.0995394764 0.569022236 255 79 163
10.0555007 0.0252007873 0.781470004 255 79 163
61.9541666 12.9006762 48.1028459 218 222 230
61.9541666 12.9006762 26.1774855 218 222 230
61.9541666 -2.22044605e-16 48.1028459 218 222 230
61.9541666 -2.22044605e-16 1.00513318 218 222 230
61.9541666 1.00513318 -2.22044605e-16 218 222 230
61.9541666 0.781470004 0.0252007873 218 222 230
61.9541666 0.569022236 0.0995394764 218 222 230
61.9541666 0.378442892 0.219288415 218 222 230
61.9541666 0.219288415 0.378442892 218 222 230
61.9541666 0.0995394764 0.569022236 218 222 230
61.9541666 0.0252007873 0.781470004 218 222 230
61.9541666 15.1346303 -2.22044605e-16 218 222 230
61.9541666 15.1346303 26.1774855 218 222 230
47.7812123 30.4761052 49.1079791 218 222 230
47.7812123 16.1397635 49.1079791 218 222 230
43.2457505 30.4761052 24.7378949 218 222 230
43.2457505 16.1397635 24.7378949 218 222 230
43.2457505 16.1397635 24.7378949 218 222 230
47.7812123 16.1397635 49.1079791 218 222 230
55.8412376 16.1397635 49.1079791 218 222 230
55.8412376 16.1397635 26.1774855 218 222 230
56.8463708 16.1397635 26.1774855 218 222 230
60.9490334 16.1397635 26.1774855 218 222 230
60.9490334 16.1397635 1.00513318 218 222 230
47.5941493 16.1397635 1.00513318 218 222 230
43.2457505 16.1397635 24.3700842 218 222 230
43.2306731 16.1397635 24.6156 218 222 230
43.2306731 16.1397635 24.4923791 218 222 230
55.8412376 16.1397635 49.1079791 218 222 230
56.0649008 16.1145627 49.1079791 218 222 230
56.2773485 16.040224 49.1079791 218 222 230
56.4679279 15.9204751 49.1079791 218 222 230
56.6270824 15.7613206 49.1079791 218 222 230
56.7468313 15.5707412 49.1079791 218 222 230
56.82117 15.3582935 49.1079791 218 222 230
56.8463708 15.1346303 49.1079791 218 222 230
56.8463708 15.1346303 26.1774855 218 222 230
55.8412376 16.1397635 26.1774855 218 222 230
56.0649008 16.1145627 26.1774855 218 222 230
56.2773485 16.040224 26.1774855 218 222 230
56.4679279 15.9204751 26.1774855 218 222 230
56.6270824 15.7613206 26.1774855 218 222 230
56.7468313 15.5707412 26.1774855 218 222 230
56.82117 15.3582935 26.1774855 218 222 230
1.00513318 1.00513318 49.1079791 255 79 163
60.9490334 1.00513318 49.1079791 255 79 163
1.00513318 -2.22044605e-16 48.1028459 255 79 163
1.00513318 0.0252007873 48.3265091 255 79 163
1.00513318 0.0995394764 48.5389569 255 79 163
1.00513318 0.219288415 48.7295362 255 79 163
1.00513318 0.378442892 48.8886907 255 79 163
1.00513318 0.569022236 49.0084396 255 79 163
1.00513318 0.781470004 49.0827783 255 79 163
61.9541666 -2.22044605e-16 48.1028459 255 79 163
61.209181 0.744985568 49.07373 255 79 163
61.4516 0.502566588 48.9733168 255 79 163
61.6597699 0.294396692 48.8135824 255 79 163
61.8060503 0.14811626 48.6280266 255 79 163
61.8901138 0.0640528264 48.4559188 255 79 163
61.9366135 0.0175530806 48.2898707 255 79 163
61.9497687 0.00439789149 48.1967693 255 79 163
56.8463708 15.1346303 49.1079791 218 222 230
56.8463708 12.9006762 49.1079791 218 222 230
56.8463708 15.1346303 26.1774855 218 222 230
56.8463708 12.9006762 26.1774855 218 222 230
60.9490334 1.00513318 49.1079791 255 79 163
61.209181 0.744985568 49.07373 255 79 163
61.4516 0.502566588 48.9733168 255 79 163
61.6597699 0.294396692 48.8135824 255 79 163
61.8060503 0.14811626 48.6280266 255 79 163
61.8901138 0.0640528264 48.4559188 255 79 163
61.9366135 0.0175530806 48.2898707 255 79 163
61.9497687 0.00439789149 48.1967693 255 79 163
61.9541666 -2.22044605e-16 48.1028459 255 79 163
61.9541666 12.9006762 48.1028459 255 79 163
60.9490334 12.9006762 49.1079791 255 79 163
61.1726966 12.9006762 49.0827783 255 79 163
61.3851444 12.9006762 49.0084396 255 79 163
61.5757237 12.9006762 48.8886907 255 79 163
61.7348782 12.9006762 48.7295362 255 79 163
61.8546271 12.9006762 48.5389569 255 79 163
61.9289658 12.9006762 48.3265091 255 79 163
61.9541666 12.9006762 48.1028459 218 222 230
61.9541666 12.9006762 26.1774855 218 222 230
60.9490334 12.9006762 49.1079791 218 222 230
61.1726966 12.9006762 49.0827783 218 222 230
61.3851444 12.9006762 49.0084396 218 222 230
61.5757237 12.9006762 48.8886907 218 222 230
61.7348782 12.9006762 48.7295362 218 222 230
61.8546271 12.9006762 48.5389569 218 222 230
61.9289658 12.9006762 48.3265091 218 222 230
56.8463708 12.9006762 49.1079791 218 222 230
56.8463708 12.9006762 26.1774855 218 222 230
43.2457505 30.4761052 24.7378949 255 79 163
43.2457505 16.1397635 24.7378949 255 79 163
43.2457505 30.4761052 24.3700842 255 79 163
43.2306731 30.4761052 24.4923791 255 79 163
43.2306731 30.4761052 24.6156 255 79 163
43.2457505 16.1397635 24.3700842 255 79 163
43.2306731 16.1397635 24.6156 255 79 163
43.2306731 16.1397635 24.4923791 255 79 163
60.9490334 16.1397635 26.1774855 255 79 163
61.1726966 16.1145627 26.1774855 255 79 163
61.3851444 16.040224 26.1774855 255 79 163
61.5757237 15.9204751 26.1774855 255 79 163
61.7348782 15.7613206 26.1774855 255 79 163
61.8546271 15.5707412 26.1774855 255 79 163
61.9289658 15.3582935 26.1774855 255 79 163
61.9541666 15.1346303 26.1774855 255 79 163
61.9541666 15.1346303 -2.22044605e-16 255 79 163
61.9391726 15.3075959 0.0149939938 255 79 163
61.894638 15.4754011 0.0595286317 255 79 163
61.8218914 15.6330395 0.13227523 255 79 163
61.7231032 15.7758079 0.231063405 255 79 163
61.6012208 15.8994468 0.352945829 255 79 163
61.4598804 16.0002676 0.494286157 255 79 163
61.2485153 16.094111 0.705651259 255 79 163
61.1005042 16.1282848 0.853662417 255 79 163
60.9490334 16.1397635 1.00513318 255 79 163
61.9541666 12.9006762 26.1774855 218 222 230
61.9541666 15.1346303 26.1774855 218 222 230
60.9490334 16.1397635 26.1774855 218 222 230
61.1726966 16.1145627 26.1774855 218 222 230
61.3851444 16.040224 26.1774855 218 222 230
61.5757237 15.9204751 26.1774855 218 222 230
61.7348782 15.7613206 26.1774855 218 222 230
61.8546271 15.5707412 26.1774855 218 222 230
61.9289658 15.3582935 26.1774855 218 222 230
56.8463708 16.1397635 26.1774855 218 222 230
55.8412376 16.1397635 26.1774855 218 222 230
56.0649008 16.1145627 26.1774855 218 222 230
56.2773485 16.040224 26.1774855 218 222 230
56.4679279 15.9204751 26.1774855 218 222 230
56.6270824 15.7613206 26.1774855 218 222 230
56.7468313 15.5707412 26.1774855 218 222 230
56.82117 15.3582935 26.1774855 218 222 230
56.8463708 15.1346303 26.1774855 218 222 230
56.8463708 12.9006762 26.1774855 218 222 230
3 5 0 6
3 4 0 5
3 1 0 4
3 2 4 3
3 2 1 4
3 8 19 20
3 8 20 21
3 8 21 22
3 8 22 23
3 8 23 24
3 8 24 25
3 8 25 26
3 8 26 18
3 9 17 16
3 9 18 17
3 7 18 9
3 7 8 18
3 10 7 9
3 14 15 7
3 11 7 10
3 13 14 7
3 12 7 11
3 12 13 7
3 36 27 28
3 37 28 29
3 37 36 28
3 38 29 30
3 38 37 29
3 39 30 31
3 39 38 30
3 40 31 32
3 40 39 31
3 41 32 33
3 41 40 32
3 42 33 34
3 42 41 33
3 35 42 34
3 46 43 45
3 44 43 46
3 57 44 46
3 53 47 54
3 52 47 53
3 50 52 51
3 49 52 50
3 48 47 52
3 48 52 49
3 55 56 47
3 55 47 48
3 46 47 58
3 58 47 59
3 59 47 56
3 46 58 57
3 71 60 61
3 72 61 62
3 72 71 61
3 73 62 63
3 73 72 62
3 74 63 64
3 74 64 65
3 74 73 63
3 75 65 66
3 75 74 65
3 76 66 67
3 76 75 66
3 77 67 68
3 77 76 67
3 70 68 69
3 70 77 68
3 78 81 80
3 85 82 81
3 83 82 85
3 86 85 81
3 84 83 85
3 79 81 78
3 79 86 81
3 87 86 79
3 88 87 79
3 92 93 87
3 89 87 88
3 91 92 87
3 90 87 89
3 90 91 87
3 95 96 94
3 95 97 96
3 101 99 98
3 101 100 99
3 105 106 107
3 108 104 105
3 108 105 107
3 110 104 108
3 110 119 104
3 112 119 110
3 111 112 110
3 118 112 111
3 115 113 112
3 115 114 113
3 116 118 117
3 116 115 112
3 116 112 118
3 109 110 108
3 120 103 102
3 120 102 119
3 121 103 120
3 125 120 126
3 122 121 120
3 124 120 125
3 123 122 120
3 123 120 124
3 102 104 119
3 135 136 143
3 134 143 142
3 134 135 143
3 133 142 141
3 133 134 142
3 132 141 140
3 132 133 141
3 131 140 139
3 131 132 140
3 130 139 138
3 130 131 139
3 129 138 137
3 129 130 138
3 128 137 127
3 128 129 137
3 145 146 144
3 153 154 161
3 147 148 168
3 169 157 156
3 170 156 155
3 170 169 156
3 171 155 162
3 171 170 155
3 172 158 157
3 172 169 170
3 172 157 169
3 173 162 163
3 173 171 162
3 174 170 171
3 174 172 170
3 175 159 158
3 175 160 159
3 175 158 172
3 176 163 164
3 176 173 163
3 177 174 171
3 177 171 173
3 178 172 174
3 178 175 172
3 179 164 165
3 179 177 173
3 179 176 164
3 179 173 176
3 180 174 177
3 180 178 174
3 181 152 153
3 181 161 160
3 181 160 175
3 181 175 178
3 181 153 161
3 182 177 179
3 182 180 177
3 183 151 152
3 183 152 181
3 183 178 180
3 183 181 178
3 184 165 166
3 184 166 167
3 184 179 165
3 184 182 179
3 185 149 150
3 185 150 151
3 185 151 183
3 185 180 182
3 185 183 180
3 186 148 149
3 186 167 168
3 186 168 148
3 186 149 185
3 186 184 167
3 186 182 184
3 186 185 182
3 195 196 202
3 194 202 201
3 194 195 202
3 193 201 200
3 193 194 201
3 192 200 199
3 192 193 200
3 191 199 198
3 191 192 199
3 190 198 197
3 190 191 198
3 189 197 187
3 189 190 197
3 188 189 187
3 214 212 213
3 223 204 203
3 223 203 211
3 224 211 212
3 224 212 214
3 224 223 211
3 225 205 204
3 225 204 223
3 226 214 215
3 226 225 223
3 226 224 214
3 226 223 224
3 227 206 205
3 227 205 225
3 228 215 216
3 228 226 215
3 228 227 225
3 228 225 226
3 229 207 206
3 229 206 227
3 230 216 217
3 230 228 216
3 230 229 227
3 230 227 228
3 231 208 207
3 231 209 208
3 231 207 229
3 232 217 218
3 232 230 217
3 232 229 230
3 232 231 229
3 233 210 209
3 233 221 210
3 233 209 231
3 234 218 219
3 234 219 220
3 234 222 221
3 234 220 222
3 234 232 218
3 234 221 233
3 234 231 232
3 234 233 231
3 242 243 244
3 242 244 250
3 241 250 249
3 241 242 250
3 240 249 248
3 240 241 249
3 239 248 247
3 239 240 248
3 238 247 246
3 238 239 247
3 237 246 245
3 237 238 246
3 236 245 235
3 236 237 245
3 259 260 268
3 258 268 267
3 258 259 268
3 257 267 266
3 257 258 267
3 256 266 265
3 256 257 266
3 255 264 263
3 255 265 264
3 255 256 265
3 254 263 262
3 254 255 263
3 253 262 261
3 253 254 262
3 252 261 251
3 252 253 261
3 275 274 273
3 269 272 271
3 269 273 272
3 270 275 273
3 270 273 269
3 277 279 278
3 277 280 279
3 277 281 280
3 282 281 277
3 283 282 277
3 284 283 277
3 285 284 277
3 276 285 277
3 287 286 285
3 287 285 276
3 297 300 299
3 297 301 300
3 297 302 301
3 297 303 302
3 297 304 303
3 297 305 304
3 297 298 305
3 296 297 299
3 289 299 306
3 289 306 288
3 289 296 299
3 295 296 289
3 294 289 290
3 294 295 289
3 292 290 291
3 293 294 290
3 293 290 292
3 315 316 324
3 314 324 323
3 314 315 324
3 313 323 322
3 313 314 323
3 312 322 321
3 312 313 322
3 311 320 319
3 311 321 320
3 311 312 321
3 310 319 318
3 310 311 319
3 309 318 317
3 309 310 318
3 308 317 307
3 308 309 317
3 332 333 334
3 332 334 340
3 331 339 338
3 331 340 339
3 331 332 340
3 330 331 338
3 329 338 337
3 329 330 338
3 328 337 336
3 328 329 337
3 327 336 335
3 327 328 336
3 326 335 325
3 326 327 335
3 348 346 345
3 348 347 346
3 349 348 345
3 344 350 349
3 344 351 350
3 344 345 352
3 344 349 345
3 342 352 353
3 342 344 352
3 343 342 341
3 343 344 342
3 354 357 356
3 354 355 357
3 366 367 358
3 366 368 367
3 361 358 359
3 361 359 360
3 361 366 358
3 365 366 361
3 364 361 362
3 364 362 363
3 364 365 361
3 379 369 370
3 379 378 369
3 380 370 371
3 380 379 370
3 381 371 372
3 381 372 373
3 381 380 371
3 382 381 373
3 383 373 374
3 383 382 373
3 384 374 375
3 384 383 374
3 377 375 376
3 377 384 375
3 386 385 393
3 395 393 392
3 395 386 393
3 396 392 391
3 396 395 392
3 397 391 390
3 397 396 391
3 398 390 389
3 398 397 390
3 399 389 388
3 399 398 389
3 400 399 388
3 401 388 387
3 401 400 388
3 394 401 387
3 403 404 402
3 403 405 404
3 417 406 407
3 417 416 406
3 418 407 408
3 418 417 407
3 419 408 409
3 419 418 408
3 420 409 410
3 420 419 409
3 421 410 411
3 421 420 410
3 422 411 412
3 422 412 413
3 422 421 411
3 415 413 414
3 415 422 413
3 423 433 432
3 423 424 433
3 425 423 432
3 427 425 426
3 427 431 423
3 427 423 425
3 429 427 428
3 429 430 431
3 429 431 427
3 435 438 434
3 440 437 438
3 440 438 435
3 441 436 437
3 441 437 440
3 439 436 441
3 458 442 443
3 458 459 442
3 457 443 444
3 457 458 443
3 456 444 445
3 456 457 444
3 455 445 446
3 455 456 445
3 454 455 446
3 453 446 447
3 453 454 446
3 452 447 448
3 452 453 447
3 451 448 449
3 451 452 448
3 450 451 449
3 469 470 471
3 469 471 472
3 469 472 473
3 469 473 474
3 469 474 475
3 469 475 476
3 462 460 461
3 462 476 477
3 462 477 478
3 462 478 460
3 462 469 476
3 467 461 468
3 465 464 463
3 466 463 462
3 466 462 461
3 466 461 467
3 466 465 463
