ply
format ascii 1.0
comment generated by blendit.inference.finetune_visualize
element vertex 453
property float x
property float y
property float z
property uchar red
property uchar green
property uchar blue
element face 431
property list uchar int vertex_indices
end_header
0 0 0 218 222 230
-2.22044605e-16 0 41.1057328 218 222 230
-2.22044605e-16 88.5719743 0 218 222 230
0 88.5719743 41.1057328 218 222 230
70.2023848 0 0 218 222 230
70.2023848 -2.22044605e-16 0.944132549 218 222 230
0 0 0 218 222 230
-2.22044605e-16 0 41.1057328 218 222 230
0.0344924593 0 41.4118619 218 222 230
0.136240241 0 41.7026403 218 222 230
0.300141287 0 41.9634874 218 222 230
0.517976914 0 42.181323 218 222 230
0.778823935 0 42.345224 218 222 230
1.06960239 0 42.4469718 218 222 230
1.37573143 0 42.4814643 218 222 230
63.262587 0 42.4814643 218 222 230
63.262587 0 23.4842379 218 222 230
65.1089406 -2.22044605e-16 23.4842379 218 222 230
-2.22044605e-16 0 41.1057328 255 79 163
0.0344924593 0 41.4118619 255 79 163
0.136240241 0 41.7026403 255 79 163
0.300141287 0 41.9634874 255 79 163
0.517976914 0 42.181323 255 79 163
0.778823935 0 42.345224 255 79 163
1.06960239 0 42.4469718 255 79 163
1.37573143 0 42.4814643 255 79 163
1.37573143 88.5719743 42.4814643 255 79 163
0 88.5719743 41.1057328 255 79 163
0.0344924593 88.5719743 41.4118619 255 79 163
0.136240241 88.5719743 41.7026403 255 79 163
0.300141287 88.5719743 41.9634874 255 79 163
0.517976914 88.5719743 42.181323 255 79 163
0.778823935 88.5719743 42.345224 255 79 163
1.06960239 88.5719743 42.4469718 255 79 163
0 0 0 218 222 230
-2.22044605e-16 88.5719743 0 218 222 230
70.2023848 0 0 218 222 230
70.2023848 89.9477057 0 218 222 230
1.37573143 89.9477057 0 218 222 230
0.0344924593 88.8781033 0 218 222 230
0.136240241 89.1688818 0 218 222 230
0.300141287 89.4297288 0 218 222 230
0.517976914 89.6475644 0 218 222 230
0.778823935 89.8114655 0 218 222 230
1.06960239 89.9132133 0 218 222 230
-2.22044605e-16 88.5719743 0 255 79 163
0 88.5719743 41.1057328 255 79 163
0.0344924593 88.8781033 41.1057328 255 79 163
0.136240241 89.1688818 41.1057328 255 79 163
0.300141287 89.4297288 41.1057328 255 79 163
0.517976914 89.6475644 41.1057328 255 79 163
0.778823935 89.8114655 41.1057328 255 79 163
1.06960239 89.9132133 41.1057328 255 79 163
1.37573143 89.9477057 41.1057328 255 79 163
1.37573143 89.9477057 0 255 79 163
0.0344924593 88.8781033 0 255 79 163
0.136240241 89.1688818 0 255 79 163
0.300141287 89.4297288 0 255 79 163
0.517976914 89.6475644 0 255 79 163
0.778823935 89.8114655 0 255 79 163
1.06960239 89.9132133 0 255 79 163
70.2023848 0 0 218 222 230
70.2023848 -2.22044605e-16 0.944132549 218 222 230
70.2023848 89.9477057 0 218 222 230
70.2023848 89.9477057 41.1057328 218 222 230
70.2023848 11.2115771 41.1057328 218 222 230
70.2023848 11.2115771 23.4842379 218 222 230
70.2023848 5.88456204 23.4842379 218 222 230
70.2023848 5.88456204 7.18568381 218 222 230
70.2023848 1.37573143 7.18568381 218 222 230
70.2023848 0.127577921 3.56907046 218 222 230
70.2023848 0.441932041 5.52764598 218 222 230
70.2023848 0.815076929 6.64386069 218 222 230
70.2023848 1.0105435 6.96176581 218 222 230
70.2023848 1.14746819 7.09916958 218 222 230
70.2023848 1.23950738 7.15500975 218 222 230
70.2023848 1.30753557 7.17801058 218 222 230
65.1089406 -2.22044605e-16 23.4842379 255 79 163
70.2023848 -2.22044605e-16 0.944132549 255 79 163
70.2023848 0.127577921 3.56907046 255 79 163
70.2023848 0.441932041 5.52764598 255 79 163
70.2023848 0.815076929 6.64386069 255 79 163
70.2023848 1.0105435 6.96176581 255 79 163
70.2023848 1.14746819 7.09916958 255 79 163
70.2023848 1.23950738 7.15500975 255 79 163
70.2023848 1.30753557 7.17801058 255 79 163
70.2023848 1.37573143 7.18568381 255 79 163
66.5193596 1.37573143 23.4842379 255 79 163
65.4457693 0.0398065391 23.4842379 255 79 163
65.7631058 0.156922566 23.4842379 255 79 163
66.042586 0.34457062 23.4842379 255 79 163
66.2680364 0.591891575 23.4842379 255 79 163
66.4264105 0.884573057 23.4842379 255 79 163
66.4959277 1.1260034 23.4842379 255 79 163
63.262587 0 23.4842379 218 222 230
65.1089406 -2.22044605e-16 23.4842379 218 222 230
63.262587 9.83584564 23.4842379 218 222 230
63.2970795 10.1419747 23.4842379 218 222 230
63.3988272 10.4327531 23.4842379 218 222 230
63.5627283 10.6936002 23.4842379 218 222 230
63.7805639 10.9114358 23.4842379 218 222 230
64.0414109 11.0753368 23.4842379 218 222 230
64.3321894 11.1770846 23.4842379 218 222 230
64.6383184 11.2115771 23.4842379 218 222 230
70.2023848 11.2115771 23.4842379 218 222 230
70.2023848 5.88456204 23.4842379 218 222 230
66.5193596 5.88456204 23.4842379 218 222 230
66.5193596 1.37573143 23.4842379 218 222 230
65.4457693 0.0398065391 23.4842379 218 222 230
65.7631058 0.156922566 23.4842379 218 222 230
66.042586 0.34457062 23.4842379 218 222 230
66.2680364 0.591891575 23.4842379 218 222 230
66.4264105 0.884573057 23.4842379 218 222 230
66.4959277 1.1260034 23.4842379 218 222 230
63.262587 0 42.4814643 218 222 230
63.262587 9.83584564 42.4814643 218 222 230
63.262587 9.83584564 23.4842379 218 222 230
63.262587 0 23.4842379 218 222 230
63.262587 5.74673442 38.5335327 218 222 230
63.262587 5.45283587 38.497847 218 222 230
63.262587 5.17601763 38.3928636 218 222 230
63.262587 4.93236737 38.224684 218 222 230
63.262587 4.73604517 38.0030821 218 222 230
63.262587 4.59846055 37.7409365 218 222 230
63.262587 4.52760944 37.4534822 218 222 230
63.262587 4.52760944 37.1574251 218 222 230
63.262587 4.59846055 36.8699708 218 222 230
63.262587 4.73604517 36.6078252 218 222 230
63.262587 4.93236737 36.3862233 218 222 230
63.262587 5.17601763 36.2180436 218 222 230
63.262587 5.45283587 36.1130603 218 222 230
63.262587 5.74673442 36.0773746 218 222 230
63.262587 6.04063298 36.1130603 218 222 230
63.262587 6.31745122 36.2180436 218 222 230
63.262587 6.56110148 36.3862233 218 222 230
63.262587 6.75742368 36.6078252 218 222 230
63.262587 6.8950083 36.8699708 218 222 230
63.262587 6.96585941 37.1574251 218 222 230
63.262587 6.96585941 37.4534822 218 222 230
63.262587 6.8950083 37.7409365 218 222 230
63.262587 6.75742368 38.0030821 218 222 230
63.262587 6.56110148 38.224684 218 222 230
63.262587 6.31745122 38.3928636 218 222 230
63.262587 6.04063298 38.497847 218 222 230
63.262587 2.13180569 35.0530165 218 222 230
63.262587 1.8915228 35.0238409 218 222 230
63.262587 1.66520428 34.9380096 218 222 230
63.262587 1.46600294 34.8005109 218 222 230
63.262587 1.30549564 34.6193356 218 222 230
63.262587 1.19301047 34.405013 218 222 230
63.262587 1.13508467 34.1699988 218 222 230
63.262587 1.13508467 33.9279511 218 222 230
63.262587 1.19301047 33.6929369 218 222 230
63.262587 1.30549564 33.4786143 218 222 230
63.262587 1.46600294 33.297439 218 222 230
63.262587 1.66520428 33.1599402 218 222 230
63.262587 1.8915228 33.0741089 218 222 230
63.262587 2.13180569 33.0449333 218 222 230
63.262587 2.37208857 33.0741089 218 222 230
63.262587 2.59840709 33.1599402 218 222 230
63.262587 2.79760843 33.297439 218 222 230
63.262587 2.95811573 33.4786143 218 222 230
63.262587 3.0706009 33.6929369 218 222 230
63.262587 3.12852671 33.9279511 218 222 230
63.262587 3.12852671 34.1699988 218 222 230
63.262587 3.0706009 34.405013 218 222 230
63.262587 2.95811573 34.6193356 218 222 230
63.262587 2.79760843 34.8005109 218 222 230
63.262587 2.59840709 34.9380096 218 222 230
63.262587 2.37208857 35.0238409 218 222 230
68.8266534 11.2115771 42.4814643 218 222 230
64.6383184 11.2115771 42.4814643 218 222 230
68.8266534 88.5719743 42.4814643 218 222 230
1.37573143 88.5719743 42.4814643 218 222 230
1.37573143 0 42.4814643 218 222 230
63.262587 0 42.4814643 218 222 230
63.262587 9.83584564 42.4814643 218 222 230
63.2970795 10.1419747 42.4814643 218 222 230
63.3988272 10.4327531 42.4814643 218 222 230
63.5627283 10.6936002 42.4814643 218 222 230
63.7805639 10.9114358 42.4814643 218 222 230
64.0414109 11.0753368 42.4814643 218 222 230
64.3321894 11.1770846 42.4814643 218 222 230
0 88.5719743 41.1057328 255 79 163
0.0344924593 88.8781033 41.1057328 255 79 163
0.136240241 89.1688818 41.1057328 255 79 163
0.300141287 89.4297288 41.1057328 255 79 163
0.517976914 89.6475644 41.1057328 255 79 163
0.778823935 89.8114655 41.1057328 255 79 163
1.06960239 89.9132133 41.1057328 255 79 163
1.37573143 89.9477057 41.1057328 255 79 163
0 88.5719743 41.1057328 255 79 163
0.0344924593 88.5719743 41.4118619 255 79 163
0.136240241 88.5719743 41.7026403 255 79 163
0.300141287 88.5719743 41.9634874 255 79 163
0.517976914 88.5719743 42.181323 255 79 163
0.778823935 88.5719743 42.345224 255 79 163
1.06960239 88.5719743 42.4469718 255 79 163
1.37573143 88.5719743 42.4814643 255 79 163
1.37573143 89.9132133 41.4118619 255 79 163
1.37573143 89.8114655 41.7026403 255 79 163
1.37573143 89.6475644 41.9634874 255 79 163
1.37573143 89.4297288 42.181323 255 79 163
1.37573143 89.1688818 42.345224 255 79 163
1.37573143 88.8781033 42.4469718 255 79 163
0.067333089 88.9918647 41.1722369 255 79 163
0.067333089 88.9507629 41.2987353 255 79 163
0.067333089 88.8725826 41.4063412 255 79 163
0.262741324 89.3410316 41.3556147 255 79 163
0.067333089 88.7649767 41.4845214 255 79 163
0.262741324 89.2261735 41.5810364 255 79 163
0.567096785 89.6712617 41.2798429 255 79 163
0.067333089 88.6384784 41.5256232 255 79 163
0.262741324 89.0472778 41.759932 255 79 163
0.567096785 89.5636558 41.6110198 255 79 163
0.262741324 88.8218562 41.8747901 255 79 163
0.567096785 89.3589772 41.8927357 255 79 163
0.95060704 89.8163351 41.5100502 255 79 163
0.567096785 89.0772612 42.0974143 255 79 163
0.95060704 89.6304908 41.8747901 255 79 163
0.567096785 88.7460843 42.2050202 255 79 163
0.95060704 89.3410316 42.1642493 255 79 163
0.95060704 88.9762916 42.3500936 255 79 163
1.37573143 89.9477057 0 218 222 230
70.2023848 89.9477057 0 218 222 230
1.37573143 89.9477057 41.1057328 218 222 230
70.2023848 89.9477057 41.1057328 218 222 230
66.5193596 1.37573143 23.4842379 218 222 230
66.5193596 5.88456204 23.4842379 218 222 230
70.2023848 5.88456204 7.18568381 218 222 230
70.2023848 1.37573143 7.18568381 218 222 230
70.2023848 5.88456204 7.18568381 218 222 230
70.2023848 5.88456204 23.4842379 218 222 230
66.5193596 5.88456204 23.4842379 218 222 230
68.8266534 11.2115771 42.4814643 255 79 163
69.1327824 11.2115771 42.4469718 255 79 163
69.4235609 11.2115771 42.345224 255 79 163
69.6844079 11.2115771 42.181323 255 79 163
69.9022435 11.2115771 41.9634874 255 79 163
70.0661446 11.2115771 41.7026403 255 79 163
70.1678924 11.2115771 41.4118619 255 79 163
70.2023848 11.2115771 41.1057328 255 79 163
70.2023848 89.9477057 41.1057328 255 79 163
68.8266534 88.5719743 42.4814643 255 79 163
69.2547482 89.0000691 42.4131623 255 79 163
69.6403352 89.3856561 42.2150384 255 79 163
69.8949758 89.6402968 41.9725224 255 79 163
70.054433 89.7997539 41.7263731 255 79 163
70.1503909 89.8957118 41.4803741 255 79 163
70.1893243 89.9346452 41.2948489 255 79 163
70.2023848 11.2115771 23.4842379 218 222 230
70.2023848 11.2115771 41.1057328 218 222 230
68.8266534 11.2115771 42.4814643 218 222 230
69.1327824 11.2115771 42.4469718 218 222 230
69.4235609 11.2115771 42.345224 218 222 230
69.6844079 11.2115771 42.181323 218 222 230
69.9022435 11.2115771 41.9634874 218 222 230
70.0661446 11.2115771 41.7026403 218 222 230
70.1678924 11.2115771 41.4118619 218 222 230
64.6383184 11.2115771 42.4814643 218 222 230
64.6383184 11.2115771 23.4842379 218 222 230
63.262587 9.83584564 42.4814643 218 222 230
63.2970795 10.1419747 42.4814643 218 222 230
63.3988272 10.4327531 42.4814643 218 222 230
63.5627283 10.6936002 42.4814643 218 222 230
63.7805639 10.9114358 42.4814643 218 222 230
64.0414109 11.0753368 42.4814643 218 222 230
64.3321894 11.1770846 42.4814643 218 222 230
64.6383184 11.2115771 42.4814643 218 222 230
64.6383184 11.2115771 23.4842379 218 222 230
63.262587 9.83584564 23.4842379 218 222 230
63.2970795 10.1419747 23.4842379 218 222 230
63.3988272 10.4327531 23.4842379 218 222 230
63.5627283 10.6936002 23.4842379 218 222 230
63.7805639 10.9114358 23.4842379 218 222 230
64.0414109 11.0753368 23.4842379 218 222 230
64.3321894 11.1770846 23.4842379 218 222 230
63.262587 5.74673442 38.5335327 218 222 230
31.3860178 5.74673442 38.5335327 218 222 230
31.3860178 5.45283587 38.497847 218 222 230
31.3860178 5.17601763 38.3928636 218 222 230
31.3860178 4.93236737 38.224684 218 222 230
31.3860178 4.73604517 38.0030821 218 222 230
31.3860178 4.59846055 37.7409365 218 222 230
31.3860178 4.52760944 37.4534822 218 222 230
31.3860178 4.52760944 37.1574251 218 222 230
31.3860178 4.59846055 36.8699708 218 222 230
31.3860178 4.73604517 36.6078252 218 222 230
31.3860178 4.93236737 36.3862233 218 222 230
31.3860178 5.17601763 36.2180436 218 222 230
31.3860178 5.45283587 36.1130603 218 222 230
31.3860178 5.74673442 36.0773746 218 222 230
31.3860178 6.04063298 36.1130603 218 222 230
31.3860178 6.31745122 36.2180436 218 222 230
31.3860178 6.56110148 36.3862233 218 222 230
31.3860178 6.75742368 36.6078252 218 222 230
31.3860178 6.8950083 36.8699708 218 222 230
31.3860178 6.96585941 37.1574251 218 222 230
31.3860178 6.96585941 37.4534822 218 222 230
31.3860178 6.8950083 37.7409365 218 222 230
31.3860178 6.75742368 38.0030821 218 222 230
31.3860178 6.56110148 38.224684 218 222 230
31.3860178 6.31745122 38.3928636 218 222 230
31.3860178 6.04063298 38.497847 218 222 230
31.3860178 5.74673442 38.5335327 218 222 230
63.262587 5.74673442 38.5335327 218 222 230
63.262587 5.45283587 38.497847 218 222 230
63.262587 5.17601763 38.3928636 218 222 230
63.262587 4.93236737 38.224684 218 222 230
63.262587 4.73604517 38.0030821 218 222 230
63.262587 4.59846055 37.7409365 218 222 230
63.262587 4.52760944 37.4534822 218 222 230
63.262587 4.52760944 37.1574251 218 222 230
63.262587 4.59846055 36.8699708 218 222 230
63.262587 4.73604517 36.6078252 218 222 230
63.262587 4.93236737 36.3862233 218 222 230
63.262587 5.17601763 36.2180436 218 222 230
63.262587 5.45283587 36.1130603 218 222 230
63.262587 5.74673442 36.0773746 218 222 230
63.262587 6.04063298 36.1130603 218 222 230
63.262587 6.31745122 36.2180436 218 222 230
63.262587 6.56110148 36.3862233 218 222 230
63.262587 6.75742368 36.6078252 218 222 230
63.262587 6.8950083 36.8699708 218 222 230
63.262587 6.96585941 37.1574251 218 222 230
63.262587 6.96585941 37.4534822 218 222 230
63.262587 6.8950083 37.7409365 218 222 230
63.262587 6.75742368 38.0030821 218 222 230
63.262587 6.56110148 38.224684 218 222 230
63.262587 6.31745122 38.3928636 218 222 230
63.262587 6.04063298 38.497847 218 222 230
63.262587 2.13180569 35.0530165 218 222 230
29.5561409 2.13180569 35.0530165 218 222 230
29.5561409 1.8915228 35.0238409 218 222 230
29.5561409 1.66520428 34.9380096 218 222 230
29.5561409 1.46600294 34.8005109 218 222 230
29.5561409 1.30549564 34.6193356 218 222 230
29.5561409 1.19301047 34.405013 218 222 230
29.5561409 1.13508467 34.1699988 218 222 230
29.5561409 1.13508467 33.9279511 218 222 230
29.5561409 1.19301047 33.6929369 218 222 230
29.5561409 1.30549564 33.4786143 218 222 230
29.5561409 1.46600294 33.297439 218 222 230
29.5561409 1.66520428 33.1599402 218 222 230
29.5561409 1.8915228 33.0741089 218 222 230
29.5561409 2.13180569 33.0449333 218 222 230
29.5561409 2.37208857 33.0741089 218 222 230
29.5561409 2.59840709 33.1599402 218 222 230
29.5561409 2.79760843 33.297439 218 222 230
29.5561409 2.95811573 33.4786143 218 222 230
29.5561409 3.0706009 33.6929369 218 222 230
29.5561409 3.12852671 33.9279511 218 222 230
29.5561409 3.12852671 34.1699988 218 222 230
29.5561409 3.0706009 34.405013 218 222 230
29.5561409 2.95811573 34.6193356 218 222 230
29.5561409 2.79760843 34.8005109 218 222 230
29.5561409 2.59840709 34.9380096 218 222 230
29.5561409 2.37208857 35.0238409 218 222 230
29.5561409 2.13180569 35.0530165 218 222 230
63.262587 2.13180569 35.0530165 218 222 230
63.262587 1.8915228 35.0238409 218 222 230
63.262587 1.66520428 34.9380096 218 222 230
63.262587 1.46600294 34.8005109 218 222 230
63.262587 1.30549564 34.6193356 218 222 230
63.262587 1.19301047 34.405013 218 222 230
63.262587 1.13508467 34.1699988 218 222 230
63.262587 1.13508467 33.9279511 218 222 230
63.262587 1.19301047 33.6929369 218 222 230
63.262587 1.30549564 33.4786143 218 222 230
63.262587 1.46600294 33.297439 218 222 230
63.262587 1.66520428 33.1599402 218 222 230
63.262587 1.8915228 33.0741089 218 222 230
63.262587 2.13180569 33.0449333 218 222 230
63.262587 2.37208857 33.0741089 218 222 230
63.262587 2.59840709 33.1599402 218 222 230
63.262587 2.79760843 33.297439 218 222 230
63.262587 2.95811573 33.4786143 218 222 230
63.262587 3.0706009 33.6929369 218 222 230
63.262587 3.12852671 33.9279511 218 222 230
63.262587 3.12852671 34.1699988 218 222 230
63.262587 3.0706009 34.405013 218 222 230
63.262587 2.95811573 34.6193356 218 222 230
63.262587 2.79760843 34.8005109 218 222 230
63.262587 2.59840709 34.9380096 218 222 230
63.262587 2.37208857 35.0238409 218 222 230
68.8266534 88.5719743 42.4814643 255 79 163
69.2547482 89.0000691 42.4131623 255 79 163
69.6403352 89.3856561 42.2150384 255 79 163
69.8949758 89.6402968 41.9725224 255 79 163
70.054433 89.7997539 41.7263731 255 79 163
70.1503909 89.8957118 41.4803741 255 79 163
70.1893243 89.9346452 41.2948489 255 79 163
70.2023848 89.9477057 41.1057328 255 79 163
1.37573143 89.9477057 41.1057328 255 79 163
1.37573143 89.9132133 41.4118619 255 79 163
1.37573143 89.8114655 41.7026403 255 79 163
1.37573143 89.6475644 41.9634874 255 79 163
1.37573143 89.4297288 42.181323 255 79 163
1.37573143 89.1688818 42.345224 255 79 163
1.37573143 88.8781033 42.4469718 255 79 163
1.37573143 88.5719743 42.4814643 255 79 163
31.3860178 5.74673442 38.5335327 218 222 230
31.3860178 5.45283587 38.497847 218 222 230
31.3860178 5.17601763 38.3928636 218 222 230
31.3860178 4.93236737 38.224684 218 222 230
31.3860178 4.73604517 38.0030821 218 222 230
31.3860178 4.59846055 37.7409365 218 222 230
31.3860178 4.52760944 37.4534822 218 222 230
31.3860178 4.52760944 37.1574251 218 222 230
31.3860178 4.59846055 36.8699708 218 222 230
31.3860178 4.73604517 36.6078252 218 222 230
31.3860178 4.93236737 36.3862233 218 222 230
31.3860178 5.17601763 36.2180436 218 222 230
31.3860178 5.45283587 36.1130603 218 222 230
31.3860178 5.74673442 36.0773746 218 222 230
31.3860178 6.04063298 36.1130603 218 222 230
31.3860178 6.31745122 36.2180436 218 222 230
31.3860178 6.56110148 36.3862233 218 222 230
31.3860178 6.75742368 36.6078252 218 222 230
31.3860178 6.8950083 36.8699708 218 222 230
31.3860178 6.96585941 37.1574251 218 222 230
31.3860178 6.96585941 37.4534822 218 222 230
31.3860178 6.8950083 37.7409365 218 222 230
31.3860178 6.75742368 38.0030821 218 222 230
31.3860178 6.56110148 38.224684 218 222 230
31.3860178 6.31745122 38.3928636 218 222 230
31.3860178 6.04063298 38.497847 218 222 230
29.5561409 2.13180569 35.0530165 218 222 230
29.5561409 1.8915228 35.0238409 218 222 230
29.5561409 1.66520428 34.9380096 218 222 230
29.5561409 1.46600294 34.8005109 218 222 230
29.5561409 1.30549564 34.6193356 218 222 230
29.5561409 1.19301047 34.405013 218 222 230
29.5561409 1.13508467 34.1699988 218 222 230
29.5561409 1.13508467 33.9279511 218 222 230
29.5561409 1.19301047 33.6929369 218 222 230
29.5561409 1.30549564 33.4786143 218 222 230
29.5561409 1.46600294 33.297439 218 222 230
29.5561409 1.66520428 33.1599402 218 222 230
29.5561409 1.8915228 33.0741089 218 222 230
29.5561409 2.13180569 33.0449333 218 222 230
29.5561409 2.37208857 33.0741089 218 222 230
29.5561409 2.59840709 33.1599402 218 222 230
29.5561409 2.79760843 33.297439 218 222 230
29.5561409 2.95811573 33.4786143 218 222 230
29.5561409 3.0706009 33.6929369 218 222 230
29.5561409 3.12852671 33.9279511 218 222 230
29.5561409 3.12852671 34.1699988 218 222 230
29.5561409 3.0706009 34.405013 218 222 230
29.5561409 2.95811573 34.6193356 218 222 230
29.5561409 2.79760843 34.8005109 218 222 230
29.5561409 2.59840709 34.9380096 218 222 230
29.5561409 2.37208857 35.0238409 218 222 230
3 1 2 0
3 1 3 2
3 9 8 7
3 11 10 9
3 12 11 9
3 12 9 7
3 14 7 6
3 14 13 12
3 14 12 7
3 5 6 4
3 16 14 6
3 16 6 5
3 17 16 5
3 15 14 16
3 28 18 19
3 28 27 18
3 29 19 20
3 29 28 19
3 30 20 21
3 30 29 20
3 31 21 22
3 31 30 21
3 32 22 23
3 32 31 22
3 33 23 24
3 33 32 23
3 26 24 25
3 26 33 24
3 35 36 34
3 41 39 40
3 43 35 39
3 43 41 42
3 43 39 41
3 44 35 43
3 38 35 44
3 37 36 35
3 37 35 38
3 53 54 60
3 52 60 59
3 52 53 60
3 51 59 58
3 51 52 59
3 50 58 57
3 50 51 58
3 49 57 56
3 49 50 57
3 48 56 55
3 48 49 56
3 47 55 45
3 47 48 55
3 46 47 45
3 68 62 61
3 68 61 63
3 70 62 68
3 71 70 68
3 69 71 68
3 72 71 69
3 75 69 76
3 73 72 69
3 74 69 75
3 74 73 69
3 66 63 64
3 66 68 63
3 67 68 66
3 65 66 64
3 85 86 87
3 84 87 93
3 84 85 87
3 83 84 93
3 82 93 92
3 82 83 93
3 81 92 91
3 81 82 92
3 80 91 90
3 80 81 91
3 79 89 88
3 79 90 89
3 79 80 90
3 78 88 77
3 78 79 88
3 102 99 98
3 102 100 99
3 102 101 100
3 96 98 97
3 96 103 102
3 96 102 98
3 106 104 103
3 106 103 96
3 94 106 96
3 105 104 106
3 107 94 95
3 107 106 94
3 108 107 95
3 112 113 107
3 109 107 108
3 111 112 107
3 110 107 109
3 110 111 107
3 140 115 141
3 142 141 115
3 139 115 140
3 143 142 115
3 138 115 139
3 118 143 115
3 137 115 138
3 119 118 115
3 136 115 137
3 114 120 119
3 114 121 120
3 114 122 121
3 114 119 115
3 123 122 114
3 167 128 127
3 166 128 167
3 168 167 127
3 168 127 126
3 165 129 128
3 165 128 166
3 169 168 126
3 169 126 125
3 164 130 129
3 164 129 165
3 144 125 124
3 144 169 125
3 163 131 130
3 163 130 164
3 145 124 123
3 145 144 124
3 145 123 114
3 162 132 131
3 162 131 163
3 146 145 114
3 161 133 132
3 161 132 162
3 147 146 114
3 148 147 114
3 149 148 114
3 116 133 161
3 116 134 133
3 116 135 134
3 116 136 135
3 116 160 159
3 116 161 160
3 116 115 136
3 117 153 152
3 117 154 153
3 117 155 154
3 117 156 155
3 117 157 156
3 117 158 157
3 117 159 158
3 117 116 159
3 117 150 114
3 150 149 114
3 117 151 150
3 117 152 151
3 176 174 175
3 177 174 176
3 178 174 177
3 179 174 178
3 173 179 180
3 173 174 179
3 172 171 170
3 172 180 181
3 172 181 182
3 172 182 171
3 172 173 180
3 199 190 189
3 198 204 197
3 205 185 184
3 206 184 183
3 206 205 184
3 207 183 191
3 207 206 183
3 208 186 185
3 208 185 205
3 208 205 206
3 209 191 192
3 209 207 191
3 210 206 207
3 210 208 206
3 211 187 186
3 211 188 187
3 211 186 208
3 212 192 193
3 212 209 192
3 213 210 207
3 213 207 209
3 214 208 210
3 214 211 208
3 215 193 194
3 215 209 212
3 215 212 193
3 215 213 209
3 216 210 213
3 216 214 210
3 217 189 188
3 217 200 199
3 217 188 211
3 217 211 214
3 217 199 189
3 218 213 215
3 218 216 213
3 219 201 200
3 219 202 201
3 219 200 217
3 219 214 216
3 219 217 214
3 220 194 195
3 220 195 196
3 220 215 194
3 220 218 215
3 221 203 202
3 221 202 219
3 221 216 218
3 221 219 216
3 222 196 197
3 222 204 203
3 222 203 221
3 222 197 204
3 222 220 196
3 222 218 220
3 222 221 218
3 226 224 223
3 226 223 225
3 230 228 227
3 230 229 228
3 231 232 233
3 243 234 235
3 244 235 236
3 244 243 235
3 245 236 237
3 245 244 236
3 246 237 238
3 246 245 237
3 247 238 239
3 247 246 238
3 248 239 240
3 248 247 239
3 249 240 241
3 249 248 240
3 242 249 241
3 254 253 252
3 255 254 252
3 257 256 255
3 258 255 252
3 258 257 255
3 251 252 259
3 251 258 252
3 260 251 259
3 250 251 260
3 270 262 261
3 271 262 270
3 272 263 262
3 272 262 271
3 273 264 263
3 273 263 272
3 274 265 264
3 274 266 265
3 274 264 273
3 275 266 274
3 276 267 266
3 276 266 275
3 269 268 267
3 269 267 276
3 306 278 277
3 306 279 278
3 307 280 279
3 307 279 306
3 308 281 280
3 308 280 307
3 309 282 281
3 309 281 308
3 310 283 282
3 310 282 309
3 311 284 283
3 311 285 284
3 311 283 310
3 312 285 311
3 313 286 285
3 313 287 286
3 313 285 312
3 314 287 313
3 315 288 287
3 315 287 314
3 316 289 288
3 316 288 315
3 317 289 316
3 317 290 289
3 318 290 317
3 318 291 290
3 319 292 291
3 319 291 318
3 320 293 292
3 320 292 319
3 321 294 293
3 321 293 320
3 322 295 294
3 322 296 295
3 322 294 321
3 323 296 322
3 324 297 296
3 324 298 297
3 324 296 323
3 325 298 324
3 326 299 298
3 326 298 325
3 327 300 299
3 327 301 300
3 327 299 326
3 328 301 327
3 329 302 301
3 329 301 328
3 330 303 302
3 330 302 329
3 305 304 303
3 305 303 330
3 331 333 332
3 360 333 331
3 361 334 333
3 361 335 334
3 361 333 360
3 362 335 361
3 363 336 335
3 363 335 362
3 364 337 336
3 364 336 363
3 365 338 337
3 365 337 364
3 366 339 338
3 366 338 365
3 367 340 339
3 367 341 340
3 367 339 366
3 368 342 341
3 368 341 367
3 369 342 368
3 370 342 369
3 370 343 342
3 370 344 343
3 371 344 370
3 372 344 371
3 372 345 344
3 373 345 372
3 373 346 345
3 374 347 346
3 374 346 373
3 375 348 347
3 375 347 374
3 376 349 348
3 376 350 349
3 376 348 375
3 377 350 376
3 378 351 350
3 378 352 351
3 378 350 377
3 379 352 378
3 380 353 352
3 380 354 353
3 380 352 379
3 381 354 380
3 382 355 354
3 382 354 381
3 383 356 355
3 383 355 382
3 384 357 356
3 384 356 383
3 359 358 357
3 359 357 384
3 391 392 393
3 391 393 394
3 390 394 395
3 390 391 394
3 389 395 396
3 389 390 395
3 388 396 397
3 388 389 396
3 387 397 398
3 387 388 397
3 386 398 399
3 386 387 398
3 385 399 400
3 385 386 399
3 417 415 416
3 419 413 414
3 419 414 415
3 419 417 418
3 419 415 417
3 402 403 404
3 402 404 405
3 402 405 406
3 421 419 420
3 426 401 402
3 423 421 422
3 423 419 421
3 424 406 407
3 424 407 408
3 424 408 409
3 424 409 410
3 424 410 411
3 424 411 412
3 424 412 413
3 424 425 426
3 424 402 406
3 424 413 419
3 424 426 402
3 424 419 423
3 450 447 448
3 450 448 449
3 436 437 438
3 434 435 436
3 432 433 434
3 429 427 428
3 429 452 427
3 430 431 432
3 430 438 439
3 430 439 440
3 430 440 441
3 430 441 442
3 430 442 443
3 430 443 444
3 430 444 445
3 430 445 446
3 430 446 447
3 430 450 451
3 430 451 452
3 430 432 434
3 430 447 450
3 430 452 429
3 430 436 438
3 430 434 436
