ply
format ascii 1.0
comment generated by blendit.inference.finetune_visualize
element vertex 441
property float x
property float y
property float z
property uchar red
property uchar green
property uchar blue
element face 403
property list uchar int vertex_indices
end_header
-2.22044605e-16 1.57657099 61.3990067 218 222 230
0 33.7407947 61.3990067 218 222 230
-2.22044605e-16 1.57657099 0 218 222 230
0 33.7407947 0 218 222 230
14.3326892 33.7407947 61.3990067 218 222 230
14.3326892 30.0689184 61.3990067 218 222 230
0 33.7407947 61.3990067 218 222 230
-2.22044605e-16 1.57657099 61.3990067 218 222 230
0.0395279264 1.22575094 61.3990067 218 222 230
0.15612961 0.892522476 61.3990067 218 222 230
0.343958157 0.593595057 61.3990067 218 222 230
0.593595057 0.343958157 61.3990067 218 222 230
0.892522476 0.15612961 61.3990067 218 222 230
1.22575094 0.0395279264 61.3990067 218 222 230
1.57657099 -2.22044605e-16 61.3990067 218 222 230
18.2994359 -2.22044605e-16 61.3990067 218 222 230
18.2994359 19.3930516 61.3990067 218 222 230
70.975633 19.3930516 61.3990067 218 222 230
70.975633 28.4923474 61.3990067 218 222 230
15.9092602 28.4923474 61.3990067 218 222 230
14.3722171 29.7180984 61.3990067 218 222 230
14.4888188 29.3848699 61.3990067 218 222 230
14.6766474 29.0859425 61.3990067 218 222 230
14.9262843 28.8363056 61.3990067 218 222 230
15.2252117 28.648477 61.3990067 218 222 230
15.5584402 28.5318753 61.3990067 218 222 230
-2.22044605e-16 1.57657099 0 255 79 163
0.0228548259 1.30909732 0.0228548259 255 79 163
0.0907566719 1.04937853 0.0907566719 255 79 163
0.201736854 0.804944668 0.201736854 255 79 163
0.352577715 0.582882636 0.352577715 255 79 163
0.538905913 0.389630693 0.538905913 255 79 163
0.75531922 0.230791806 0.75531922 255 79 163
1.07972134 0.0803368824 1.07972134 255 79 163
1.32491965 0.020213805 1.32491965 255 79 163
1.57657099 -2.22044605e-16 1.57657099 255 79 163
1.57657099 -2.22044605e-16 61.3990067 255 79 163
-2.22044605e-16 1.57657099 61.3990067 255 79 163
0.0395279264 1.22575094 61.3990067 255 79 163
0.15612961 0.892522476 61.3990067 255 79 163
0.343958157 0.593595057 61.3990067 255 79 163
0.593595057 0.343958157 61.3990067 255 79 163
0.892522476 0.15612961 61.3990067 255 79 163
1.22575094 0.0395279264 61.3990067 255 79 163
69.399062 33.7407947 6.76980686 218 222 230
3.13941365 33.7407947 6.76980686 218 222 230
3.13941365 33.7407947 0 218 222 230
0 33.7407947 0 218 222 230
0 33.7407947 61.3990067 218 222 230
14.3326892 33.7407947 61.3990067 218 222 230
14.3326892 33.7407947 29.3293904 218 222 230
14.3326892 33.7407947 27.7528194 218 222 230
69.399062 33.7407947 27.7528194 218 222 230
70.975633 19.3930516 -4.4408921e-16 218 222 230
70.975633 25.5446708 0 218 222 230
3.13941365 25.5446708 0 218 222 230
3.13941365 26.9709878 2.07265554e-16 218 222 230
3.13941365 33.7407947 0 218 222 230
0 33.7407947 0 218 222 230
-2.22044605e-16 1.57657099 0 218 222 230
18.2994359 1.57657099 0 218 222 230
18.2994359 19.3930516 -2.22044605e-16 218 222 230
14.3326892 32.1642237 29.3293904 218 222 230
14.3326892 30.0689184 29.3293904 218 222 230
14.3326892 30.0689184 61.3990067 218 222 230
14.3326892 33.7407947 61.3990067 218 222 230
14.3326892 33.7407947 29.3293904 218 222 230
14.3326892 33.7407947 27.7528194 218 222 230
14.3326892 33.7012667 28.1036395 218 222 230
14.3326892 33.5846651 28.436868 218 222 230
14.3326892 33.3968365 28.7357954 218 222 230
14.3326892 33.1471996 28.9854323 218 222 230
14.3326892 32.8482722 29.1732608 218 222 230
14.3326892 32.5150437 29.2898625 218 222 230
14.3326892 30.0689184 29.3293904 255 79 163
14.355544 29.8014447 29.3522453 255 79 163
14.4234459 29.5417259 29.4201471 255 79 163
14.5344261 29.2972921 29.5311273 255 79 163
14.6852669 29.0752301 29.6819681 255 79 163
14.8715951 28.8819781 29.8682963 255 79 163
15.0880084 28.7231392 30.0847097 255 79 163
15.4124106 28.5726843 30.4091118 255 79 163
15.6576089 28.5125612 30.6543101 255 79 163
15.9092602 28.4923474 30.9059614 255 79 163
15.9092602 28.4923474 61.3990067 255 79 163
14.3326892 30.0689184 61.3990067 255 79 163
14.3722171 29.7180984 61.3990067 255 79 163
14.4888188 29.3848699 61.3990067 255 79 163
14.6766474 29.0859425 61.3990067 255 79 163
14.9262843 28.8363056 61.3990067 255 79 163
15.2252117 28.648477 61.3990067 255 79 163
15.5584402 28.5318753 61.3990067 255 79 163
15.9092602 28.4923474 61.3990067 218 222 230
70.975633 28.4923474 61.3990067 218 222 230
70.975633 28.4923474 30.9059614 218 222 230
15.9092602 28.4923474 30.9059614 218 222 230
70.975633 19.3930516 61.3990067 218 222 230
70.975633 28.4923474 61.3990067 218 222 230
70.975633 19.0666173 61.3648418 218 222 230
70.975633 19.1745487 61.3837917 218 222 230
70.975633 19.2835356 61.3951983 218 222 230
70.975633 24.750873 34.5066644 218 222 230
70.975633 23.9451267 30.6995033 218 222 230
70.975633 17.8506455 1.90300532 218 222 230
70.975633 19.3930516 -4.4408921e-16 218 222 230
70.975633 19.0452751 0.0388364295 218 222 230
70.975633 18.7146325 0.153432365 218 222 230
70.975633 18.4174135 0.338142014 218 222 230
70.975633 18.1682613 0.583865293 218 222 230
70.975633 17.9794507 0.878496164 218 222 230
70.975633 17.860284 1.20751906 218 222 230
70.975633 17.816632 1.55472402 218 222 230
70.975633 25.5446708 0 218 222 230
70.975633 25.9042884 0.0415624426 218 222 230
70.975633 26.2449452 0.164058386 218 222 230
70.975633 26.5486799 0.361029218 218 222 230
70.975633 26.7994781 0.622089628 218 222 230
70.975633 26.9841164 0.933475177 218 222 230
70.975633 27.0928599 1.27876803 218 222 230
70.975633 32.1642237 6.58366986 218 222 230
70.975633 30.9433314 6.16477769 218 222 230
70.975633 29.824134 5.52178001 218 222 230
70.975633 28.8473174 4.67805142 218 222 230
70.975633 28.0483912 3.66426364 218 222 230
70.975633 27.4563986 2.51727046 218 222 230
70.975633 32.1642237 29.3293904 218 222 230
70.975633 30.0689184 29.3293904 218 222 230
70.975633 28.4923474 30.9059614 218 222 230
70.975633 28.5318753 30.5551414 218 222 230
70.975633 28.648477 30.2219129 218 222 230
70.975633 28.8363056 29.9229855 218 222 230
70.975633 29.0859425 29.6733486 218 222 230
70.975633 29.3848699 29.48552 218 222 230
70.975633 29.7180984 29.3689184 218 222 230
19.8760069 17.8164807 59.8224357 255 79 163
19.8760069 17.820289 59.7129196 255 79 163
19.8760069 17.8316957 59.6039327 255 79 163
19.8760069 17.8506455 59.4960014 255 79 163
69.399062 17.8506455 59.4960014 255 79 163
69.9075998 17.8277939 60.0109672 255 79 163
70.3202575 17.9505978 60.4587556 255 79 163
70.6242217 18.1686307 60.8155971 255 79 163
70.8080508 18.4093064 61.0544346 255 79 163
70.9202936 18.6730065 61.224973 255 79 163
70.9617369 18.865159 61.3080014 255 79 163
70.975633 19.0666173 61.3648418 255 79 163
70.975633 19.1745487 61.3837917 255 79 163
70.975633 19.2835356 61.3951983 255 79 163
70.975633 19.3930516 61.3990067 255 79 163
18.2994359 19.3930516 61.3990067 255 79 163
18.8079737 18.8845138 61.3147377 255 79 163
19.2206314 18.4718561 61.1018789 255 79 163
19.5245956 18.167892 60.8146856 255 79 163
19.7084247 17.9840628 60.5297733 255 79 163
19.8206675 17.87182 60.2364771 255 79 163
19.8621108 17.8303767 60.0312973 255 79 163
1.57657099 -2.22044605e-16 61.3990067 218 222 230
18.2994359 -2.22044605e-16 61.3990067 218 222 230
18.2994359 -2.22044605e-16 1.57657099 218 222 230
1.57657099 -2.22044605e-16 1.57657099 218 222 230
18.2994359 19.3930516 61.3990067 255 79 163
18.2994359 -2.22044605e-16 61.3990067 255 79 163
18.5669096 0.0228548259 61.3761518 255 79 163
18.8266284 0.0907566719 61.30825 255 79 163
19.0710622 0.201736854 61.1972698 255 79 163
19.2931242 0.352577715 61.046429 255 79 163
19.4863762 0.538905913 60.8601008 255 79 163
19.6452151 0.75531922 60.6436874 255 79 163
19.79567 1.07972134 60.3192853 255 79 163
19.8557931 1.32491965 60.074087 255 79 163
19.8760069 1.57657099 59.8224357 255 79 163
19.8760069 17.8164807 59.8224357 255 79 163
18.8079737 18.8845138 61.3147377 255 79 163
19.2206314 18.4718561 61.1018789 255 79 163
19.5245956 18.167892 60.8146856 255 79 163
19.7084247 17.9840628 60.5297733 255 79 163
19.8206675 17.87182 60.2364771 255 79 163
19.8621108 17.8303767 60.0312973 255 79 163
-2.22044605e-16 1.57657099 0 255 79 163
0.0228548259 1.30909732 0.0228548259 255 79 163
0.0907566719 1.04937853 0.0907566719 255 79 163
0.201736854 0.804944668 0.201736854 255 79 163
0.352577715 0.582882636 0.352577715 255 79 163
0.538905913 0.389630693 0.538905913 255 79 163
0.75531922 0.230791806 0.75531922 255 79 163
1.07972134 0.0803368824 1.07972134 255 79 163
1.32491965 0.020213805 1.32491965 255 79 163
1.57657099 -2.22044605e-16 1.57657099 255 79 163
18.2994359 1.57657099 0 255 79 163
18.2994359 1.22575094 0.0395279264 255 79 163
18.2994359 0.892522476 0.15612961 255 79 163
18.2994359 0.593595057 0.343958157 255 79 163
18.2994359 0.343958157 0.593595057 255 79 163
18.2994359 0.15612961 0.892522476 255 79 163
18.2994359 0.0395279264 1.22575094 255 79 163
18.2994359 -2.22044605e-16 1.57657099 255 79 163
69.399062 33.7407947 6.76980686 218 222 230
3.13941365 33.7407947 6.76980686 218 222 230
3.13941365 32.4140814 6.63853274 218 222 230
3.13941365 31.1388211 6.24980149 218 222 230
3.13941365 29.9644712 5.61868896 218 222 230
3.13941365 28.9365755 4.76967113 218 222 230
3.13941365 28.0949981 3.73567479 218 222 230
3.13941365 27.4723774 2.55680063 218 222 230
3.13941365 27.0928599 1.27876803 218 222 230
70.975633 27.0928599 1.27876803 218 222 230
70.975633 32.1642237 6.58366986 218 222 230
70.975633 30.9433314 6.16477769 218 222 230
70.975633 29.824134 5.52178001 218 222 230
70.975633 28.8473174 4.67805142 218 222 230
70.975633 28.0483912 3.66426364 218 222 230
70.975633 27.4563986 2.51727046 218 222 230
69.7520066 33.7007803 6.76968861 218 222 230
70.0937865 33.5794742 6.7678845 218 222 230
70.4103533 33.3737136 6.75984737 218 222 230
70.6577499 33.1135818 6.74068906 218 222 230
70.8330205 32.8194634 6.70681993 218 222 230
70.9390471 32.5018952 6.65547992 218 222 230
69.399062 33.7407947 6.76980686 255 79 163
69.399062 33.7407947 27.7528194 255 79 163
69.9075998 33.6565257 28.2613573 255 79 163
70.3202575 33.4436669 28.674015 255 79 163
70.6242217 33.1564736 28.9779791 255 79 163
70.8080508 32.8715613 29.1618083 255 79 163
70.9202936 32.5782651 29.2740511 255 79 163
70.9617369 32.3730853 29.3154944 255 79 163
70.975633 32.1642237 29.3293904 255 79 163
70.975633 32.1642237 6.58366986 255 79 163
69.7520066 33.7007803 6.76968861 255 79 163
70.0937865 33.5794742 6.7678845 255 79 163
70.4103533 33.3737136 6.75984737 255 79 163
70.6577499 33.1135818 6.74068906 255 79 163
70.8330205 32.8194634 6.70681993 255 79 163
70.9390471 32.5018952 6.65547992 255 79 163
3.13941365 33.7407947 6.76980686 218 222 230
3.13941365 32.4140814 6.63853274 218 222 230
3.13941365 31.1388211 6.24980149 218 222 230
3.13941365 29.9644712 5.61868896 218 222 230
3.13941365 28.9365755 4.76967113 218 222 230
3.13941365 28.0949981 3.73567479 218 222 230
3.13941365 27.4723774 2.55680063 218 222 230
3.13941365 27.0928599 1.27876803 218 222 230
3.13941365 25.5446708 0 218 222 230
3.13941365 25.9042884 0.0415624426 218 222 230
3.13941365 26.2449452 0.164058386 218 222 230
3.13941365 26.5486799 0.361029218 218 222 230
3.13941365 26.7994781 0.622089628 218 222 230
3.13941365 26.9841164 0.933475177 218 222 230
3.13941365 26.9709878 2.07265554e-16 218 222 230
3.13941365 33.7407947 0 218 222 230
69.399062 33.7407947 27.7528194 255 79 163
14.3326892 33.7407947 27.7528194 255 79 163
14.3326892 33.7012667 28.1036395 255 79 163
14.3326892 33.5846651 28.436868 255 79 163
14.3326892 33.3968365 28.7357954 255 79 163
14.3326892 33.1471996 28.9854323 255 79 163
14.3326892 32.8482722 29.1732608 255 79 163
14.3326892 32.5150437 29.2898625 255 79 163
14.3326892 32.1642237 29.3293904 255 79 163
70.975633 32.1642237 29.3293904 255 79 163
69.9075998 33.6565257 28.2613573 255 79 163
70.3202575 33.4436669 28.674015 255 79 163
70.6242217 33.1564736 28.9779791 255 79 163
70.8080508 32.8715613 29.1618083 255 79 163
70.9202936 32.5782651 29.2740511 255 79 163
70.9617369 32.3730853 29.3154944 255 79 163
18.2994359 19.3930516 -2.22044605e-16 255 79 163
18.8079737 18.8845138 0.0842689652 255 79 163
19.2206314 18.4718561 0.297127794 255 79 163
19.5245956 18.167892 0.584321108 255 79 163
19.7084247 17.9840628 0.869233346 255 79 163
19.8206675 17.87182 1.16252955 255 79 163
19.8621108 17.8303767 1.36770934 255 79 163
19.8760069 17.8164807 1.57657099 255 79 163
70.975633 19.3930516 -4.4408921e-16 255 79 163
70.975633 19.0452751 0.0388364295 255 79 163
70.975633 18.7146325 0.153432365 255 79 163
70.975633 18.4174135 0.338142014 255 79 163
70.975633 18.1682613 0.583865293 255 79 163
70.975633 17.9794507 0.878496164 255 79 163
70.975633 17.860284 1.20751906 255 79 163
70.975633 17.816632 1.55472402 255 79 163
70.975633 17.8506455 1.90300532 255 79 163
19.8760069 17.8506455 1.90300532 255 79 163
19.8760069 17.820289 1.68608704 255 79 163
19.8760069 17.8316957 1.79507399 255 79 163
70.975633 25.5446708 0 255 79 163
3.13941365 25.5446708 0 255 79 163
3.13941365 25.9042884 0.0415624426 255 79 163
3.13941365 26.2449452 0.164058386 255 79 163
3.13941365 26.5486799 0.361029218 255 79 163
3.13941365 26.7994781 0.622089628 255 79 163
3.13941365 26.9841164 0.933475177 255 79 163
3.13941365 27.0928599 1.27876803 255 79 163
70.975633 27.0928599 1.27876803 255 79 163
70.975633 25.9042884 0.0415624426 255 79 163
70.975633 26.2449452 0.164058386 255 79 163
70.975633 26.5486799 0.361029218 255 79 163
70.975633 26.7994781 0.622089628 255 79 163
70.975633 26.9841164 0.933475177 255 79 163
18.2994359 1.57657099 0 255 79 163
18.2994359 19.3930516 -2.22044605e-16 255 79 163
18.8079737 18.8845138 0.0842689652 255 79 163
19.2206314 18.4718561 0.297127794 255 79 163
19.5245956 18.167892 0.584321108 255 79 163
19.7084247 17.9840628 0.869233346 255 79 163
19.8206675 17.87182 1.16252955 255 79 163
19.8621108 17.8303767 1.36770934 255 79 163
19.8760069 17.8164807 1.57657099 255 79 163
19.8760069 1.57657099 1.57657099 255 79 163
18.6502559 1.57657099 0.0395279264 255 79 163
18.9834844 1.57657099 0.15612961 255 79 163
19.2824118 1.57657099 0.343958157 255 79 163
19.5320487 1.57657099 0.593595057 255 79 163
19.7198773 1.57657099 0.892522476 255 79 163
19.8364789 1.57657099 1.22575094 255 79 163
70.975633 32.1642237 29.3293904 218 222 230
70.975633 30.0689184 29.3293904 218 222 230
14.3326892 30.0689184 29.3293904 218 222 230
14.3326892 32.1642237 29.3293904 218 222 230
70.975633 28.4923474 30.9059614 255 79 163
15.9092602 28.4923474 30.9059614 255 79 163
14.3326892 30.0689184 29.3293904 255 79 163
14.355544 29.8014447 29.3522453 255 79 163
14.4234459 29.5417259 29.4201471 255 79 163
14.5344261 29.2972921 29.5311273 255 79 163
14.6852669 29.0752301 29.6819681 255 79 163
14.8715951 28.8819781 29.8682963 255 79 163
15.0880084 28.7231392 30.0847097 255 79 163
15.4124106 28.5726843 30.4091118 255 79 163
15.6576089 28.5125612 30.6543101 255 79 163
70.975633 30.0689184 29.3293904 255 79 163
70.975633 28.5318753 30.5551414 255 79 163
70.975633 28.648477 30.2219129 255 79 163
70.975633 28.8363056 29.9229855 255 79 163
70.975633 29.0859425 29.6733486 255 79 163
70.975633 29.3848699 29.48552 255 79 163
70.975633 29.7180984 29.3689184 255 79 163
70.975633 24.750873 34.5066644 255 79 163
70.975633 19.0666173 61.3648418 255 79 163
69.399062 17.8506455 59.4960014 255 79 163
69.9075998 17.8277939 60.0109672 255 79 163
70.3202575 17.9505978 60.4587556 255 79 163
70.6242217 18.1686307 60.8155971 255 79 163
70.8080508 18.4093064 61.0544346 255 79 163
70.9202936 18.6730065 61.224973 255 79 163
70.9617369 18.865159 61.3080014 255 79 163
69.399062 23.9451267 30.6995033 255 79 163
70.8477989 24.4330444 33.0049205 255 79 163
70.4850271 24.1667572 31.7467103 255 79 163
70.243082 24.0703161 31.2910249 255 79 163
70.0400933 24.0147376 31.0284155 255 79 163
69.8269453 23.9753693 30.8424002 255 79 163
69.6423742 23.9547801 30.7451156 255 79 163
69.5210841 23.9475437 30.7109235 255 79 163
69.399062 23.9451267 30.6995033 218 222 230
19.8760069 23.9451267 30.6995033 218 222 230
70.975633 24.750873 34.5066644 218 222 230
70.8477989 24.4330444 33.0049205 218 222 230
70.4850271 24.1667572 31.7467103 218 222 230
70.243082 24.0703161 31.2910249 218 222 230
70.0400933 24.0147376 31.0284155 218 222 230
69.8269453 23.9753693 30.8424002 218 222 230
69.6423742 23.9547801 30.7451156 218 222 230
69.5210841 23.9475437 30.7109235 218 222 230
70.975633 23.9451267 30.6995033 218 222 230
70.975633 17.8506455 1.90300532 218 222 230
19.8760069 17.8506455 1.90300532 218 222 230
19.8760069 17.8506455 1.90300532 218 222 230
19.8760069 23.9451267 30.6995033 218 222 230
19.8760069 17.8506455 59.4960014 218 222 230
19.8760069 17.8164807 59.8224357 218 222 230
19.8760069 17.820289 59.7129196 218 222 230
19.8760069 17.8316957 59.6039327 218 222 230
19.8760069 1.57657099 59.8224357 218 222 230
19.8760069 1.57657099 1.57657099 218 222 230
19.8760069 17.8164807 1.57657099 218 222 230
19.8760069 17.820289 1.68608704 218 222 230
19.8760069 17.8316957 1.79507399 218 222 230
69.399062 23.9451267 30.6995033 218 222 230
19.8760069 23.9451267 30.6995033 218 222 230
19.8760069 17.8506455 59.4960014 218 222 230
69.399062 17.8506455 59.4960014 218 222 230
18.2994359 -2.22044605e-16 61.3990067 255 79 163
18.2994359 -2.22044605e-16 1.57657099 255 79 163
19.8760069 1.57657099 1.57657099 255 79 163
19.8364789 1.22575094 1.57657099 255 79 163
19.7198773 0.892522476 1.57657099 255 79 163
19.5320487 0.593595057 1.57657099 255 79 163
19.2824118 0.343958157 1.57657099 255 79 163
18.9834844 0.15612961 1.57657099 255 79 163
18.6502559 0.0395279264 1.57657099 255 79 163
19.8760069 1.57657099 59.8224357 255 79 163
18.5669096 0.0228548259 61.3761518 255 79 163
18.8266284 0.0907566719 61.30825 255 79 163
19.0710622 0.201736854 61.1972698 255 79 163
19.2931242 0.352577715 61.046429 255 79 163
19.4863762 0.538905913 60.8601008 255 79 163
19.6452151 0.75531922 60.6436874 255 79 163
19.79567 1.07972134 60.3192853 255 79 163
19.8557931 1.32491965 60.074087 255 79 163
19.8760069 1.57657099 1.57657099 255 79 163
19.8364789 1.22575094 1.57657099 255 79 163
19.7198773 0.892522476 1.57657099 255 79 163
19.5320487 0.593595057 1.57657099 255 79 163
19.2824118 0.343958157 1.57657099 255 79 163
18.9834844 0.15612961 1.57657099 255 79 163
18.6502559 0.0395279264 1.57657099 255 79 163
18.2994359 -2.22044605e-16 1.57657099 255 79 163
18.2994359 1.57657099 0 255 79 163
18.2994359 1.22575094 0.0395279264 255 79 163
18.2994359 0.892522476 0.15612961 255 79 163
18.2994359 0.593595057 0.343958157 255 79 163
18.2994359 0.343958157 0.593595057 255 79 163
18.2994359 0.15612961 0.892522476 255 79 163
18.2994359 0.0395279264 1.22575094 255 79 163
18.2994359 1.57657099 0 255 79 163
18.6502559 1.57657099 0.0395279264 255 79 163
18.9834844 1.57657099 0.15612961 255 79 163
19.2824118 1.57657099 0.343958157 255 79 163
19.5320487 1.57657099 0.593595057 255 79 163
19.7198773 1.57657099 0.892522476 255 79 163
19.8364789 1.57657099 1.22575094 255 79 163
18.3756488 1.09538185 0.0771628768 255 79 163
18.5206143 1.14248399 0.0771628768 255 79 163
18.6439293 1.2320776 0.0771628768 255 79 163
18.5857974 0.695241016 0.301098267 255 79 163
18.7335229 1.35539262 0.0771628768 255 79 163
18.8441278 0.826866935 0.301098267 255 79 163
18.4989638 0.316801453 0.649885815 255 79 163
18.780625 1.50035812 0.0771628768 255 79 163
19.0491399 1.03187911 0.301098267 255 79 163
18.8784884 0.440116473 0.649885815 255 79 163
19.1807659 1.29020953 0.301098267 255 79 163
19.2013313 0.67467558 0.649885815 255 79 163
18.7627785 0.150549134 1.08938376 255 79 163
19.4358904 0.997518493 0.649885815 255 79 163
19.1807659 0.363524346 1.08938376 255 79 163
19.5592054 1.3770431 0.649885815 255 79 163
19.5124825 0.695241016 1.08938376 255 79 163
19.7254577 1.1132284 1.08938376 255 79 163
3 0 3 2
3 0 1 3
3 8 9 10
3 14 11 12
3 14 12 13
3 7 10 11
3 7 8 10
3 7 11 14
3 16 6 7
3 16 14 15
3 16 7 14
3 22 6 16
3 22 16 23
3 21 6 22
3 24 23 16
3 20 6 21
3 25 24 16
3 5 6 20
3 19 25 16
3 4 6 5
3 18 16 17
3 18 19 16
3 37 26 27
3 38 27 28
3 38 37 27
3 39 28 29
3 39 38 28
3 40 29 30
3 40 30 31
3 40 39 29
3 41 31 32
3 41 40 31
3 42 32 33
3 42 41 32
3 43 33 34
3 43 42 33
3 36 34 35
3 36 43 34
3 45 46 47
3 50 51 45
3 48 45 47
3 48 50 45
3 49 50 48
3 52 44 51
3 44 45 51
3 58 56 55
3 58 55 59
3 57 56 58
3 61 60 59
3 61 59 55
3 54 53 61
3 54 61 55
3 66 68 67
3 66 69 68
3 66 70 69
3 66 71 70
3 66 72 71
3 66 73 72
3 66 62 73
3 64 63 62
3 65 62 66
3 65 64 62
3 85 75 74
3 86 76 75
3 86 75 85
3 87 77 76
3 87 76 86
3 88 78 77
3 88 79 78
3 88 77 87
3 89 80 79
3 89 79 88
3 90 81 80
3 90 80 89
3 91 82 81
3 91 81 90
3 84 83 82
3 84 82 91
3 94 92 93
3 94 95 92
3 117 115 116
3 113 114 115
3 112 117 118
3 112 115 117
3 112 113 115
3 124 112 118
3 108 105 104
3 108 106 105
3 108 107 106
3 109 108 104
3 103 110 109
3 103 111 110
3 103 104 112
3 103 122 121
3 103 123 122
3 103 124 123
3 103 112 124
3 103 109 104
3 126 119 125
3 133 120 119
3 133 119 126
3 132 120 133
3 102 121 120
3 102 128 127
3 102 129 128
3 102 130 129
3 102 131 130
3 102 132 131
3 102 103 121
3 102 120 132
3 101 102 127
3 96 101 97
3 98 100 99
3 98 96 100
3 98 101 96
3 127 97 101
3 136 137 138
3 135 138 139
3 135 136 138
3 134 135 139
3 155 134 139
3 154 139 140
3 154 155 139
3 153 140 141
3 153 154 140
3 152 141 142
3 152 153 141
3 151 142 143
3 151 152 142
3 150 143 144
3 150 144 145
3 150 145 146
3 150 151 143
3 149 146 147
3 149 147 148
3 149 150 146
3 157 159 158
3 157 156 159
3 170 171 177
3 169 177 176
3 169 170 177
3 168 176 175
3 168 169 176
3 167 175 174
3 167 168 175
3 166 167 174
3 165 174 173
3 165 166 174
3 164 173 172
3 164 165 173
3 163 164 172
3 162 172 160
3 162 163 172
3 161 162 160
3 195 187 186
3 194 186 185
3 194 195 186
3 193 185 184
3 193 194 185
3 192 184 183
3 192 193 184
3 191 182 181
3 191 183 182
3 191 192 183
3 190 181 180
3 190 191 181
3 189 180 179
3 189 190 180
3 188 179 178
3 188 189 179
3 213 197 196
3 213 196 212
3 214 197 213
3 215 198 197
3 215 197 214
3 216 198 215
3 217 198 216
3 206 199 198
3 206 198 217
3 207 200 199
3 207 199 206
3 208 201 200
3 208 200 207
3 209 202 201
3 209 201 208
3 210 203 202
3 210 202 209
3 211 204 203
3 211 203 210
3 205 204 211
3 225 226 227
3 225 227 233
3 224 233 232
3 224 225 233
3 223 232 231
3 223 224 232
3 222 231 230
3 222 223 231
3 221 230 229
3 221 222 230
3 220 229 228
3 220 221 229
3 219 228 218
3 219 220 228
3 248 243 242
3 248 244 243
3 248 245 244
3 246 245 248
3 247 246 248
3 241 247 248
3 249 238 239
3 249 239 240
3 249 240 241
3 249 241 248
3 237 238 249
3 236 237 249
3 235 236 249
3 234 235 249
3 258 259 265
3 257 265 264
3 257 258 265
3 256 264 263
3 256 257 264
3 255 263 262
3 255 256 263
3 254 262 261
3 254 255 262
3 253 261 260
3 253 254 261
3 252 260 250
3 252 253 260
3 251 252 250
3 266 274 275
3 267 275 276
3 267 266 275
3 268 276 277
3 268 267 276
3 269 277 278
3 269 268 277
3 270 278 279
3 270 269 278
3 271 279 280
3 271 270 279
3 272 280 281
3 272 271 280
3 273 272 281
3 284 281 282
3 284 273 281
3 285 284 282
3 283 285 282
3 292 293 294
3 292 294 299
3 291 299 298
3 291 292 299
3 290 298 297
3 290 291 298
3 289 297 296
3 289 290 297
3 288 296 295
3 288 289 296
3 287 295 286
3 287 288 295
3 307 308 309
3 307 309 315
3 306 315 314
3 306 307 315
3 305 314 313
3 305 306 314
3 304 313 312
3 304 305 313
3 303 312 311
3 303 304 312
3 302 311 310
3 302 303 311
3 301 310 300
3 301 302 310
3 319 317 316
3 319 318 317
3 323 331 322
3 323 337 331
3 324 336 337
3 324 337 323
3 325 335 336
3 325 336 324
3 326 335 325
3 327 334 335
3 327 335 326
3 328 333 334
3 328 334 327
3 329 332 333
3 329 333 328
3 330 320 332
3 330 332 329
3 321 320 330
3 340 354 353
3 340 347 354
3 341 352 351
3 341 353 352
3 341 340 353
3 342 350 349
3 342 351 350
3 342 341 351
3 343 349 348
3 343 342 349
3 344 343 348
3 345 348 338
3 345 344 348
3 346 345 338
3 339 346 338
3 355 367 366
3 355 356 367
3 365 360 361
3 365 361 362
3 365 362 363
3 365 363 364
3 365 364 355
3 365 355 366
3 359 360 365
3 358 359 365
3 357 358 365
3 375 376 377
3 375 377 378
3 375 378 368
3 369 375 368
3 374 369 370
3 374 372 371
3 374 373 372
3 374 370 373
3 374 375 369
3 382 380 379
3 382 381 380
3 385 392 400
3 386 400 399
3 386 385 400
3 387 399 398
3 387 386 399
3 388 398 397
3 388 387 398
3 389 396 395
3 389 397 396
3 389 388 397
3 390 395 394
3 390 389 395
3 391 394 393
3 391 390 394
3 384 393 383
3 384 391 393
3 407 408 415
3 401 402 422
3 423 411 410
3 424 410 409
3 424 423 410
3 425 409 416
3 425 424 409
3 426 412 411
3 426 423 424
3 426 411 423
3 427 416 417
3 427 425 416
3 428 424 425
3 428 426 424
3 429 413 412
3 429 414 413
3 429 412 426
3 430 417 418
3 430 427 417
3 431 428 425
3 431 425 427
3 432 426 428
3 432 429 426
3 433 418 419
3 433 431 427
3 433 430 418
3 433 427 430
3 434 428 431
3 434 432 428
3 435 406 407
3 435 415 414
3 435 414 429
3 435 429 432
3 435 407 415
3 436 431 433
3 436 434 431
3 437 405 406
3 437 406 435
3 437 432 434
3 437 435 432
3 438 419 420
3 438 420 421
3 438 433 419
3 438 436 433
3 439 403 404
3 439 404 405
3 439 405 437
3 439 434 436
3 439 437 434
3 440 402 403
3 440 421 422
3 440 422 402
3 440 403 439
3 440 438 421
3 440 436 438
3 440 439 436
