ply
format ascii 1.0
comment generated by blendit.inference.finetune_visualize
element vertex 657
property float x
property float y
property float z
property uchar red
property uchar green
property uchar blue
element face 631
property list uchar int vertex_indices
end_header
0 1.45045398 41.7679247 218 222 230
-4.4408921e-16 55.210316 41.7679247 218 222 230
-4.4408921e-16 1.45045398 1.45045398 218 222 230
-4.4408921e-16 41.8818215 1.45045398 218 222 230
0 1.45045398 41.7679247 218 222 230
-4.4408921e-16 55.210316 41.7679247 218 222 230
58.9787369 1.45045398 41.7679247 218 222 230
58.9787369 74.9227047 41.7679247 218 222 230
28.6947192 74.9227047 41.7679247 218 222 230
28.6947192 56.7379744 41.7679247 218 222 230
27.2442652 56.7379744 41.7679247 218 222 230
1.45045398 56.7379744 41.7679247 218 222 230
0.0398164872 55.5657996 41.7679247 218 222 230
0.15707994 55.9017665 41.7679247 218 222 230
0.345352348 56.1997713 41.7679247 218 222 230
0.59429716 56.4434529 41.7679247 218 222 230
0.890246782 56.6194327 41.7679247 218 222 230
1.16475317 56.7080458 41.7679247 218 222 230
1.45045398 0 1.45045398 255 79 163
1.1276976 0.0363659095 1.45045398 255 79 163
0.821125581 0.143640099 1.45045398 255 79 163
0.546110714 0.316443394 1.45045398 255 79 163
0.316443394 0.546110714 1.45045398 255 79 163
0.143640099 0.821125581 1.45045398 255 79 163
0.0363659095 1.1276976 1.45045398 255 79 163
-4.4408921e-16 1.45045398 1.45045398 255 79 163
1.45045398 -4.4408921e-16 40.3174707 255 79 163
0 1.45045398 41.7679247 255 79 163
0.022850011 1.19400972 41.7450747 255 79 163
0.0906800999 0.945645356 41.6772446 255 79 163
0.201353117 0.713186195 41.5665716 255 79 163
0.351382045 0.503956418 41.4165426 255 79 163
0.536039863 0.324548311 41.2318848 255 79 163
0.749508485 0.180614555 41.0184162 255 79 163
1.06722059 0.0515440755 40.7007041 255 79 163
1.25711191 0.0129437736 40.5108128 255 79 163
-4.4408921e-16 41.8818215 1.45045398 255 79 163
-4.4408921e-16 55.210316 41.7679247 255 79 163
0.0398164872 55.5657996 41.7679247 255 79 163
0.15707994 55.9017665 41.7679247 255 79 163
0.345352348 56.1997713 41.7679247 255 79 163
0.59429716 56.4434529 41.7679247 255 79 163
0.890246782 56.6194327 41.7679247 255 79 163
1.16475317 56.7080458 41.7679247 255 79 163
1.45045398 56.7379744 41.7679247 255 79 163
1.45045398 42.9299765 -4.4408921e-16 255 79 163
0.0398164872 42.1257255 1.11293566 255 79 163
0.15707994 42.3562386 0.793947815 255 79 163
0.345352348 42.5607053 0.511003537 255 79 163
0.59429716 42.7278997 0.279637063 255 79 163
0.858983323 42.8388696 0.126075177 255 79 163
1.12007223 42.9024237 0.0381280081 255 79 163
1.28416669 42.9230655 0.00956353046 255 79 163
-4.4408921e-16 41.8818215 1.45045398 255 79 163
0.0398164872 42.1257255 1.11293566 255 79 163
0.15707994 42.3562386 0.793947815 255 79 163
0.345352348 42.5607053 0.511003537 255 79 163
0.59429716 42.7278997 0.279637063 255 79 163
0.858983323 42.8388696 0.126075177 255 79 163
1.12007223 42.9024237 0.0381280081 255 79 163
1.28416669 42.9230655 0.00956353046 255 79 163
1.45045398 42.9299765 -4.4408921e-16 255 79 163
1.45045398 1.45045398 -4.4408921e-16 255 79 163
-4.4408921e-16 1.45045398 1.45045398 255 79 163
0.0363659095 1.45045398 1.1276976 255 79 163
0.143640099 1.45045398 0.821125581 255 79 163
0.316443394 1.45045398 0.546110714 255 79 163
0.546110714 1.45045398 0.316443394 255 79 163
0.821125581 1.45045398 0.143640099 255 79 163
1.1276976 1.45045398 0.0363659095 255 79 163
0 1.45045398 41.7679247 255 79 163
0.022850011 1.19400972 41.7450747 255 79 163
0.0906800999 0.945645356 41.6772446 255 79 163
0.201353117 0.713186195 41.5665716 255 79 163
0.351382045 0.503956418 41.4165426 255 79 163
0.536039863 0.324548311 41.2318848 255 79 163
0.749508485 0.180614555 41.0184162 255 79 163
1.06722059 0.0515440755 40.7007041 255 79 163
1.25711191 0.0129437736 40.5108128 255 79 163
1.45045398 -4.4408921e-16 40.3174707 255 79 163
58.9787369 -4.4408921e-16 40.3174707 255 79 163
58.9787369 0.0363659095 40.6402271 255 79 163
58.9787369 0.143640099 40.9467991 255 79 163
58.9787369 0.316443394 41.221814 255 79 163
58.9787369 0.546110714 41.4514813 255 79 163
58.9787369 0.821125581 41.6242846 255 79 163
58.9787369 1.1276976 41.7315588 255 79 163
58.9787369 1.45045398 41.7679247 255 79 163
60.4291908 1.45045398 40.3174707 255 79 163
60.3928249 1.45045398 40.6402271 255 79 163
60.2855507 1.45045398 40.9467991 255 79 163
60.1127474 1.45045398 41.221814 255 79 163
59.8830801 1.45045398 41.4514813 255 79 163
59.6080652 1.45045398 41.6242846 255 79 163
59.3014932 1.45045398 41.7315588 255 79 163
58.9787369 1.45045398 41.7679247 255 79 163
60.4291908 76.3731586 40.3174707 255 79 163
58.9787369 74.9227047 41.7679247 255 79 163
59.465743 75.4097108 41.6837217 255 79 163
59.8572074 75.8011752 41.4716398 255 79 163
60.1151007 76.0590686 41.2188551 255 79 163
60.287348 76.2313158 40.9430534 255 79 163
60.3789526 76.3229204 40.6959051 255 79 163
60.4165764 76.3605442 40.5083479 255 79 163
1.45045398 56.7379744 41.7679247 218 222 230
27.2442652 56.7379744 41.7679247 218 222 230
1.45045398 42.9299765 -4.4408921e-16 218 222 230
27.2442652 42.9299765 0 218 222 230
27.2442652 50.6924092 23.4806455 218 222 230
25.6639182 50.6924092 23.4806455 218 222 230
24.2134642 51.1719126 24.9310994 218 222 230
24.2532807 51.060333 24.5935811 218 222 230
24.3705442 50.9548792 24.2745933 218 222 230
24.5588166 50.8613411 23.991649 218 222 230
24.8077614 50.784854 23.7602825 218 222 230
25.103711 50.7296172 23.5931964 218 222 230
25.3782174 50.7018032 23.5090615 218 222 230
24.2134642 51.7788938 26.7671617 218 222 230
25.6639182 52.2583973 28.2176157 218 222 230
25.3348858 52.2458967 28.1798026 218 222 230
25.023009 52.2090468 28.068335 218 222 230
24.744549 52.1497689 27.8890248 218 222 230
24.5140244 52.0711537 27.6512211 218 222 230
24.3434549 51.9773003 27.3673229 218 222 230
24.2463343 51.8803973 27.0742004 218 222 230
27.2442652 52.2583973 28.2176157 218 222 230
27.2442652 56.2584709 40.3174707 218 222 230
28.6947192 56.7379744 41.7679247 218 222 230
28.3656868 56.7254738 41.7301116 218 222 230
28.05381 56.6886239 41.6186441 218 222 230
27.77535 56.629346 41.4393339 218 222 230
27.5448255 56.5507309 41.2015302 218 222 230
27.3742559 56.4568774 40.917632 218 222 230
27.2771354 56.3599744 40.6245094 218 222 230
28.6947192 74.9227047 41.7679247 255 79 163
58.9787369 74.9227047 41.7679247 255 79 163
59.465743 75.4097108 41.6837217 255 79 163
59.8572074 75.8011752 41.4716398 255 79 163
60.1151007 76.0590686 41.2188551 255 79 163
60.287348 76.2313158 40.9430534 255 79 163
60.3789526 76.3229204 40.6959051 255 79 163
60.4165764 76.3605442 40.5083479 255 79 163
60.4291908 76.3731586 40.3174707 255 79 163
27.2442652 76.3731586 40.3174707 255 79 163
28.207713 75.4097108 41.6837217 255 79 163
27.8162487 75.8011752 41.4716398 255 79 163
27.5583553 76.0590686 41.2188551 255 79 163
27.3861081 76.2313158 40.9430534 255 79 163
27.2945034 76.3229204 40.6959051 255 79 163
27.2568796 76.3605442 40.5083479 255 79 163
28.6947192 56.7379744 41.7679247 255 79 163
28.6947192 74.9227047 41.7679247 255 79 163
28.207713 75.4097108 41.6837217 255 79 163
27.8162487 75.8011752 41.4716398 255 79 163
27.5583553 76.0590686 41.2188551 255 79 163
27.3861081 76.2313158 40.9430534 255 79 163
27.2945034 76.3229204 40.6959051 255 79 163
27.2568796 76.3605442 40.5083479 255 79 163
27.2442652 76.3731586 40.3174707 255 79 163
27.2442652 56.2584709 40.3174707 255 79 163
28.3656868 56.7254738 41.7301116 255 79 163
28.05381 56.6886239 41.6186441 255 79 163
27.77535 56.629346 41.4393339 255 79 163
27.5448255 56.5507309 41.2015302 255 79 163
27.3742559 56.4568774 40.917632 255 79 163
27.2771354 56.3599744 40.6245094 255 79 163
-4.4408921e-16 1.45045398 1.45045398 255 79 163
0.0363659095 1.45045398 1.1276976 255 79 163
0.143640099 1.45045398 0.821125581 255 79 163
0.316443394 1.45045398 0.546110714 255 79 163
0.546110714 1.45045398 0.316443394 255 79 163
0.821125581 1.45045398 0.143640099 255 79 163
1.1276976 1.45045398 0.0363659095 255 79 163
1.45045398 1.45045398 -4.4408921e-16 255 79 163
1.45045398 0 1.45045398 255 79 163
1.45045398 0.0363659095 1.1276976 255 79 163
1.45045398 0.143640099 0.821125581 255 79 163
1.45045398 0.316443394 0.546110714 255 79 163
1.45045398 0.546110714 0.316443394 255 79 163
1.45045398 0.821125581 0.143640099 255 79 163
1.45045398 1.1276976 0.0363659095 255 79 163
1.45045398 0 1.45045398 255 79 163
1.1276976 0.0363659095 1.45045398 255 79 163
0.821125581 0.143640099 1.45045398 255 79 163
0.546110714 0.316443394 1.45045398 255 79 163
0.316443394 0.546110714 1.45045398 255 79 163
0.143640099 0.821125581 1.45045398 255 79 163
0.0363659095 1.1276976 1.45045398 255 79 163
1.38033771 0.0709902705 1.00775732 255 79 163
1.24696866 0.0709902705 1.05109155 255 79 163
1.13351816 0.0709902705 1.13351816 255 79 163
1.18699985 0.27701206 0.639625554 255 79 163
1.05109155 0.0709902705 1.24696866 255 79 163
0.949334452 0.27701206 0.760722123 255 79 163
1.26688722 0.59789852 0.291459077 255 79 163
1.00775732 0.0709902705 1.38033771 255 79 163
0.760722123 0.27701206 0.949334452 255 79 163
0.917722494 0.59789852 0.404909573 255 79 163
0.639625554 0.27701206 1.18699985 255 79 163
0.62070524 0.59789852 0.62070524 255 79 163
1.02417625 1.00223905 0.13850603 255 79 163
0.404909573 0.59789852 0.917722494 255 79 163
0.639625554 1.00223905 0.334444395 255 79 163
0.291459077 0.59789852 1.26688722 255 79 163
0.334444395 1.00223905 0.639625554 255 79 163
0.13850603 1.00223905 1.02417625 255 79 163
1.45045398 -4.4408921e-16 40.3174707 218 222 230
58.9787369 -4.4408921e-16 40.3174707 218 222 230
58.9787369 -4.4408921e-16 1.45045398 218 222 230
1.45045398 0 1.45045398 218 222 230
30.688035 0 26.7671617 218 222 230
30.688035 0 23.4806455 218 222 230
29.237581 0 28.2176157 218 222 230
29.5603374 0 28.1812497 218 222 230
29.8669094 0 28.0739756 218 222 230
30.1419243 0 27.9011723 218 222 230
30.3715916 0 27.6715049 218 222 230
30.5443949 0 27.3964901 218 222 230
30.6516691 0 27.0899181 218 222 230
25.6639182 0 28.2176157 218 222 230
25.3411618 0 28.1812497 218 222 230
25.0345898 0 28.0739756 218 222 230
24.7595749 0 27.9011723 218 222 230
24.5299076 0 27.6715049 218 222 230
24.3571043 0 27.3964901 218 222 230
24.2498301 0 27.0899181 218 222 230
24.2134642 0 26.7671617 218 222 230
24.2134642 0 24.9310994 218 222 230
24.2498301 0 24.6083431 218 222 230
24.3571043 0 24.301771 218 222 230
24.5299076 0 24.0267562 218 222 230
24.7595749 0 23.7970888 218 222 230
25.0345898 0 23.6242856 218 222 230
25.3411618 0 23.5170114 218 222 230
25.6639182 0 23.4806455 218 222 230
49.0088743 0 24.7273322 218 222 230
49.0088743 0 26.1490153 218 222 230
48.9725084 0 26.4717717 218 222 230
48.8652342 0 26.7783437 218 222 230
48.6924309 0 27.0533586 218 222 230
48.4627636 0 27.2830259 218 222 230
48.1877487 0 27.4558292 218 222 230
47.8811767 0 27.5631034 218 222 230
47.5584204 0 27.5994693 218 222 230
39.477701 0 27.5994693 218 222 230
39.477701 0 24.7273322 218 222 230
27.2442652 76.3731586 0 218 222 230
33.4791669 76.3731586 0 218 222 230
27.2442652 42.9299765 0 218 222 230
1.45045398 42.9299765 -4.4408921e-16 218 222 230
1.45045398 1.45045398 -4.4408921e-16 218 222 230
58.9787369 1.45045398 0 218 222 230
58.9787369 50.8758074 -4.4408921e-16 218 222 230
56.3320592 51.1653771 0 218 222 230
53.729912 51.728922 0 218 222 230
51.2005771 52.560317 0 218 222 230
48.7715449 53.6505261 0 218 222 230
46.469216 54.9877 0 218 222 230
44.3186134 56.5573056 0 218 222 230
42.3431114 58.3422832 0 218 222 230
40.5641812 60.3232325 0 218 222 230
39.0011573 62.4786232 0 218 222 230
37.6710276 64.7850291 0 218 222 230
36.5882491 67.2173826 0 218 222 230
35.76459 69.7492473 0 218 222 230
35.2090023 72.353105 0 218 222 230
34.9275247 75.0006555 0 218 222 230
33.791052 76.3392301 0 218 222 230
34.0883461 76.2390319 0 218 222 230
34.3571408 76.0772516 0 218 222 230
34.584861 75.8614578 0 218 222 230
34.7608531 75.601746 0 218 222 230
34.8768838 75.3102665 0 218 222 230
36.0680502 60.091634 0 218 222 230
37.0450034 62.067911 0 218 222 230
38.2937701 59.9457086 0 218 222 230
60.4291908 1.45045398 40.3174707 255 79 163
60.3928249 1.1276976 40.3174707 255 79 163
60.2855507 0.821125581 40.3174707 255 79 163
60.1127474 0.546110714 40.3174707 255 79 163
59.8830801 0.316443394 40.3174707 255 79 163
59.6080652 0.143640099 40.3174707 255 79 163
59.3014932 0.0363659095 40.3174707 255 79 163
58.9787369 -4.4408921e-16 40.3174707 255 79 163
60.4291908 1.45045398 40.3174707 255 79 163
60.3928249 1.45045398 40.6402271 255 79 163
60.2855507 1.45045398 40.9467991 255 79 163
60.1127474 1.45045398 41.221814 255 79 163
59.8830801 1.45045398 41.4514813 255 79 163
59.6080652 1.45045398 41.6242846 255 79 163
59.3014932 1.45045398 41.7315588 255 79 163
58.9787369 1.45045398 41.7679247 255 79 163
58.9787369 0.0363659095 40.6402271 255 79 163
58.9787369 0.143640099 40.9467991 255 79 163
58.9787369 0.316443394 41.221814 255 79 163
58.9787369 0.546110714 41.4514813 255 79 163
58.9787369 0.821125581 41.6242846 255 79 163
58.9787369 1.1276976 41.7315588 255 79 163
60.3582006 1.00775732 40.387587 255 79 163
60.3582006 1.05109155 40.520956 255 79 163
60.3582006 1.13351816 40.6344065 255 79 163
60.1521788 0.639625554 40.5809248 255 79 163
60.3582006 1.24696866 40.7168331 255 79 163
60.1521788 0.760722123 40.8185902 255 79 163
59.8312923 0.291459077 40.5010375 255 79 163
60.3582006 1.38033771 40.7601674 255 79 163
60.1521788 0.949334452 41.0072026 255 79 163
59.8312923 0.404909573 40.8502022 255 79 163
60.1521788 1.18699985 41.1282991 255 79 163
59.8312923 0.62070524 41.1472194 255 79 163
59.4269518 0.13850603 40.7437484 255 79 163
59.8312923 0.917722494 41.3630151 255 79 163
59.4269518 0.334444395 41.1282991 255 79 163
59.8312923 1.26688722 41.4764656 255 79 163
59.4269518 0.639625554 41.4334803 255 79 163
59.4269518 1.02417625 41.6294187 255 79 163
60.4291908 76.3731586 34.5216822 218 222 230
60.4291908 76.3731586 40.3174707 218 222 230
60.4291908 1.45045398 40.3174707 218 222 230
60.4291908 1.45045398 1.45045398 218 222 230
60.4291908 50.8345851 1.45045398 218 222 230
60.4291908 50.8345851 33.0712282 218 222 230
60.4291908 74.9227047 33.0712282 218 222 230
60.4291908 76.3367927 34.1989258 218 222 230
60.4291908 76.2295185 33.8923538 218 222 230
60.4291908 76.0567153 33.6173389 218 222 230
60.4291908 75.8270479 33.3876716 218 222 230
60.4291908 75.5520331 33.2148683 218 222 230
60.4291908 75.245461 33.1075941 218 222 230
27.2442652 42.9299765 0 218 222 230
27.2442652 50.6924092 23.4806455 218 222 230
27.2442652 76.3731586 23.4806455 218 222 230
27.2442652 76.3731586 0 218 222 230
27.2442652 52.2583973 28.2176157 218 222 230
27.2442652 56.2584709 40.3174707 218 222 230
27.2442652 76.3731586 40.3174707 218 222 230
27.2442652 76.3731586 28.2176157 218 222 230
25.6639182 50.6924092 23.4806455 218 222 230
27.2442652 50.6924092 23.4806455 218 222 230
27.2442652 76.3731586 23.4806455 218 222 230
30.688035 76.3731586 23.4806455 218 222 230
30.688035 0 23.4806455 218 222 230
25.6639182 0 23.4806455 218 222 230
27.2442652 52.2583973 28.2176157 218 222 230
25.6639182 52.2583973 28.2176157 218 222 230
25.6639182 0 28.2176157 218 222 230
29.237581 0 28.2176157 218 222 230
29.237581 76.3731586 28.2176157 218 222 230
27.2442652 76.3731586 28.2176157 218 222 230
24.2134642 51.1719126 24.9310994 255 79 163
24.2532807 51.060333 24.5935811 255 79 163
24.3705442 50.9548792 24.2745933 255 79 163
24.5588166 50.8613411 23.991649 255 79 163
24.8077614 50.784854 23.7602825 255 79 163
25.103711 50.7296172 23.5931964 255 79 163
25.3782174 50.7018032 23.5090615 255 79 163
25.6639182 50.6924092 23.4806455 255 79 163
25.6639182 0 23.4806455 255 79 163
24.2134642 0 24.9310994 255 79 163
24.2498301 0 24.6083431 255 79 163
24.3571043 0 24.301771 255 79 163
24.5299076 0 24.0267562 255 79 163
24.7595749 0 23.7970888 255 79 163
25.0345898 0 23.6242856 255 79 163
25.3411618 0 23.5170114 255 79 163
25.6639182 52.2583973 28.2176157 255 79 163
25.3348858 52.2458967 28.1798026 255 79 163
25.023009 52.2090468 28.068335 255 79 163
24.744549 52.1497689 27.8890248 255 79 163
24.5140244 52.0711537 27.6512211 255 79 163
24.3434549 51.9773003 27.3673229 255 79 163
24.2463343 51.8803973 27.0742004 255 79 163
24.2134642 51.7788938 26.7671617 255 79 163
24.2134642 0 26.7671617 255 79 163
25.6639182 0 28.2176157 255 79 163
25.3411618 0 28.1812497 255 79 163
25.0345898 0 28.0739756 255 79 163
24.7595749 0 27.9011723 255 79 163
24.5299076 0 27.6715049 255 79 163
24.3571043 0 27.3964901 255 79 163
24.2498301 0 27.0899181 255 79 163
24.2134642 51.7788938 26.7671617 218 222 230
24.2134642 51.1719126 24.9310994 218 222 230
24.2134642 0 24.9310994 218 222 230
24.2134642 0 26.7671617 218 222 230
27.2442652 76.3731586 0 218 222 230
33.4791669 76.3731586 0 218 222 230
27.2442652 76.3731586 23.4806455 218 222 230
30.688035 76.3731586 23.4806455 218 222 230
30.688035 76.3731586 26.7671617 218 222 230
29.237581 76.3731586 28.2176157 218 222 230
29.5603374 76.3731586 28.1812497 218 222 230
29.8669094 76.3731586 28.0739756 218 222 230
30.1419243 76.3731586 27.9011723 218 222 230
30.3715916 76.3731586 27.6715049 218 222 230
30.5443949 76.3731586 27.3964901 218 222 230
30.6516691 76.3731586 27.0899181 218 222 230
27.2442652 76.3731586 28.2176157 218 222 230
27.2442652 76.3731586 40.3174707 218 222 230
60.4291908 76.3731586 40.3174707 218 222 230
60.4291908 76.3731586 34.5216822 218 222 230
33.4791669 76.3731586 34.5216822 218 222 230
1.45045398 1.45045398 -4.4408921e-16 255 79 163
58.9787369 1.45045398 0 255 79 163
58.9787369 1.1276976 0.0363659095 255 79 163
58.9787369 0.821125581 0.143640099 255 79 163
58.9787369 0.546110714 0.316443394 255 79 163
58.9787369 0.316443394 0.546110714 255 79 163
58.9787369 0.143640099 0.821125581 255 79 163
58.9787369 0.0363659095 1.1276976 255 79 163
58.9787369 -4.4408921e-16 1.45045398 255 79 163
1.45045398 0 1.45045398 255 79 163
1.45045398 0.0363659095 1.1276976 255 79 163
1.45045398 0.143640099 0.821125581 255 79 163
1.45045398 0.316443394 0.546110714 255 79 163
1.45045398 0.546110714 0.316443394 255 79 163
1.45045398 0.821125581 0.143640099 255 79 163
1.45045398 1.1276976 0.0363659095 255 79 163
30.688035 76.3731586 26.7671617 218 222 230
30.688035 76.3731586 23.4806455 218 222 230
30.688035 0 26.7671617 218 222 230
30.688035 0 23.4806455 218 222 230
29.237581 76.3731586 28.2176157 255 79 163
29.237581 0 28.2176157 255 79 163
29.5603374 0 28.1812497 255 79 163
29.8669094 0 28.0739756 255 79 163
30.1419243 0 27.9011723 255 79 163
30.3715916 0 27.6715049 255 79 163
30.5443949 0 27.3964901 255 79 163
30.6516691 0 27.0899181 255 79 163
30.688035 0 26.7671617 255 79 163
30.688035 76.3731586 26.7671617 255 79 163
29.5603374 76.3731586 28.1812497 255 79 163
29.8669094 76.3731586 28.0739756 255 79 163
30.1419243 76.3731586 27.9011723 255 79 163
30.3715916 76.3731586 27.6715049 255 79 163
30.5443949 76.3731586 27.3964901 255 79 163
30.6516691 76.3731586 27.0899181 255 79 163
49.0088743 0 24.7273322 218 222 230
49.0088743 0 26.1490153 218 222 230
49.0088743 37.9767917 24.7273322 218 222 230
49.0088743 37.9767917 26.1490153 218 222 230
49.0088743 0 26.1490153 255 79 163
49.0088743 37.9767917 26.1490153 255 79 163
48.9725084 37.9767917 26.4717717 255 79 163
48.8652342 37.9767917 26.7783437 255 79 163
48.6924309 37.9767917 27.0533586 255 79 163
48.4627636 37.9767917 27.2830259 255 79 163
48.1877487 37.9767917 27.4558292 255 79 163
47.8811767 37.9767917 27.5631034 255 79 163
47.5584204 37.9767917 27.5994693 255 79 163
47.5584204 0 27.5994693 255 79 163
48.9725084 0 26.4717717 255 79 163
48.8652342 0 26.7783437 255 79 163
48.6924309 0 27.0533586 255 79 163
48.4627636 0 27.2830259 255 79 163
48.1877487 0 27.4558292 255 79 163
47.8811767 0 27.5631034 255 79 163
39.477701 0 24.7273322 218 222 230
39.477701 37.9767917 24.7273322 218 222 230
49.0088743 37.9767917 24.7273322 218 222 230
49.0088743 0 24.7273322 218 222 230
47.5584204 0 27.5994693 218 222 230
39.477701 0 27.5994693 218 222 230
47.5584204 37.9767917 27.5994693 218 222 230
39.477701 37.9767917 27.5994693 218 222 230
39.477701 0 27.5994693 218 222 230
39.477701 37.9767917 27.5994693 218 222 230
39.477701 37.9767917 24.7273322 218 222 230
39.477701 0 24.7273322 218 222 230
58.9787369 -4.4408921e-16 1.45045398 255 79 163
58.9787369 -4.4408921e-16 40.3174707 255 79 163
60.4291908 1.45045398 1.45045398 255 79 163
60.3928249 1.1276976 1.45045398 255 79 163
60.2855507 0.821125581 1.45045398 255 79 163
60.1127474 0.546110714 1.45045398 255 79 163
59.8830801 0.316443394 1.45045398 255 79 163
59.6080652 0.143640099 1.45045398 255 79 163
59.3014932 0.0363659095 1.45045398 255 79 163
60.4291908 1.45045398 40.3174707 255 79 163
60.3928249 1.1276976 40.3174707 255 79 163
60.2855507 0.821125581 40.3174707 255 79 163
60.1127474 0.546110714 40.3174707 255 79 163
59.8830801 0.316443394 40.3174707 255 79 163
59.6080652 0.143640099 40.3174707 255 79 163
59.3014932 0.0363659095 40.3174707 255 79 163
33.4791669 76.3731586 0 255 79 163
33.4791669 76.3731586 34.5216822 255 79 163
33.9661731 76.2889556 34.034676 255 79 163
34.3576374 76.0768737 33.6432116 255 79 163
34.6155308 75.8240891 33.3853183 255 79 163
34.787778 75.5482873 33.213071 255 79 163
34.8793827 75.301139 33.1214664 255 79 163
34.911356 75.1521633 33.0894931 255 79 163
34.9275247 75.0006555 33.0733243 255 79 163
34.9275247 75.0006555 0 255 79 163
33.791052 76.3392301 0 255 79 163
34.0883461 76.2390319 0 255 79 163
34.3571408 76.0772516 0 255 79 163
34.584861 75.8614578 0 255 79 163
34.7608531 75.601746 0 255 79 163
34.8768838 75.3102665 0 255 79 163
60.4291908 50.8345851 1.45045398 218 222 230
60.4291908 50.8345851 33.0712282 218 222 230
57.6728089 50.9837692 33.0712282 218 222 230
54.94863 51.4295785 33.0712282 218 222 230
52.2884806 52.1668046 33.0712282 218 222 230
49.7234395 53.1868345 33.0712282 218 222 230
47.2834741 54.4777512 33.0712282 218 222 230
44.9970906 56.0244727 33.0712282 218 222 230
42.8910009 57.8089287 33.0712282 218 222 230
40.9898106 59.8102714 33.0712282 218 222 230
39.3157313 62.0051189 33.0712282 218 222 230
37.8883214 64.3678288 33.0712282 218 222 230
36.7242574 66.8707974 33.0712282 218 222 230
35.837139 69.4847825 33.0712282 218 222 230
35.2373306 72.1792448 33.0712282 218 222 230
34.9318396 74.9227047 33.0712282 218 222 230
34.9275247 75.0006555 33.0733243 218 222 230
34.9275247 75.0006555 0 218 222 230
58.9787369 50.8758074 -4.4408921e-16 218 222 230
56.3320592 51.1653771 0 218 222 230
53.729912 51.728922 0 218 222 230
51.2005771 52.560317 0 218 222 230
48.7715449 53.6505261 0 218 222 230
46.469216 54.9877 0 218 222 230
44.3186134 56.5573056 0 218 222 230
42.3431114 58.3422832 0 218 222 230
40.5641812 60.3232325 0 218 222 230
39.0011573 62.4786232 0 218 222 230
37.6710276 64.7850291 0 218 222 230
36.5882491 67.2173826 0 218 222 230
35.76459 69.7492473 0 218 222 230
35.2090023 72.353105 0 218 222 230
59.3137226 50.8589573 0.0392129217 218 222 230
59.621002 50.8473762 0.149949379 218 222 230
59.8835531 50.8404146 0.31682073 218 222 230
60.0936247 50.8367898 0.522638381 218 222 230
60.2512414 50.8352051 0.754358506 218 222 230
60.3583959 50.8346832 1.00284079 218 222 230
60.4115555 50.8345912 1.22496019 218 222 230
58.9787369 1.45045398 0 255 79 163
58.9787369 50.8758074 -4.4408921e-16 255 79 163
59.3137226 50.8589573 0.0392129217 255 79 163
59.621002 50.8473762 0.149949379 255 79 163
59.8835531 50.8404146 0.31682073 255 79 163
60.0936247 50.8367898 0.522638381 255 79 163
60.2512414 50.8352051 0.754358506 255 79 163
60.3583959 50.8346832 1.00284079 255 79 163
60.4115555 50.8345912 1.22496019 255 79 163
60.4291908 50.8345851 1.45045398 255 79 163
60.4291908 1.45045398 1.45045398 255 79 163
59.3014932 1.45045398 0.0363659095 255 79 163
59.6080652 1.45045398 0.143640099 255 79 163
59.8830801 1.45045398 0.316443394 255 79 163
60.1127474 1.45045398 0.546110714 255 79 163
60.2855507 1.45045398 0.821125581 255 79 163
60.3928249 1.45045398 1.1276976 255 79 163
36.0680502 60.091634 0 218 222 230
36.0680502 60.091634 12.0246943 218 222 230
37.0450034 62.067911 12.0246943 218 222 230
37.0450034 62.067911 0 218 222 230
38.2937701 59.9457086 0 218 222 230
38.2937701 59.9457086 12.0246943 218 222 230
36.0680502 60.091634 12.0246943 218 222 230
36.0680502 60.091634 0 218 222 230
37.0450034 62.067911 0 218 222 230
37.0450034 62.067911 12.0246943 218 222 230
38.2937701 59.9457086 12.0246943 218 222 230
38.2937701 59.9457086 0 218 222 230
33.4791669 76.3731586 34.5216822 255 79 163
60.4291908 76.3731586 34.5216822 255 79 163
60.4291908 76.3367927 34.1989258 255 79 163
60.4291908 76.2295185 33.8923538 255 79 163
60.4291908 76.0567153 33.6173389 255 79 163
60.4291908 75.8270479 33.3876716 255 79 163
60.4291908 75.5520331 33.2148683 255 79 163
60.4291908 75.245461 33.1075941 255 79 163
60.4291908 74.9227047 33.0712282 255 79 163
34.9318396 74.9227047 33.0712282 255 79 163
34.9275247 75.0006555 33.0733243 255 79 163
33.9661731 76.2889556 34.034676 255 79 163
34.3576374 76.0768737 33.6432116 255 79 163
34.6155308 75.8240891 33.3853183 255 79 163
34.787778 75.5482873 33.213071 255 79 163
34.8793827 75.301139 33.1214664 255 79 163
34.911356 75.1521633 33.0894931 255 79 163
60.4291908 74.9227047 33.0712282 218 222 230
60.4291908 50.8345851 33.0712282 218 222 230
57.6728089 50.9837692 33.0712282 218 222 230
54.94863 51.4295785 33.0712282 218 222 230
52.2884806 52.1668046 33.0712282 218 222 230
49.7234395 53.1868345 33.0712282 218 222 230
47.2834741 54.4777512 33.0712282 218 222 230
44.9970906 56.0244727 33.0712282 218 222 230
42.8910009 57.8089287 33.0712282 218 222 230
40.9898106 59.8102714 33.0712282 218 222 230
39.3157313 62.0051189 33.0712282 218 222 230
37.8883214 64.3678288 33.0712282 218 222 230
36.7242574 66.8707974 33.0712282 218 222 230
35.837139 69.4847825 33.0712282 218 222 230
35.2373306 72.1792448 33.0712282 218 222 230
34.9318396 74.9227047 33.0712282 218 222 230
60.4291908 1.45045398 1.45045398 255 79 163
60.3928249 1.1276976 1.45045398 255 79 163
60.2855507 0.821125581 1.45045398 255 79 163
60.1127474 0.546110714 1.45045398 255 79 163
59.8830801 0.316443394 1.45045398 255 79 163
59.6080652 0.143640099 1.45045398 255 79 163
59.3014932 0.0363659095 1.45045398 255 79 163
58.9787369 -4.4408921e-16 1.45045398 255 79 163
58.9787369 1.45045398 0 255 79 163
58.9787369 1.1276976 0.0363659095 255 79 163
58.9787369 0.821125581 0.143640099 255 79 163
58.9787369 0.546110714 0.316443394 255 79 163
58.9787369 0.316443394 0.546110714 255 79 163
58.9787369 0.143640099 0.821125581 255 79 163
58.9787369 0.0363659095 1.1276976 255 79 163
58.9787369 1.45045398 0 255 79 163
59.3014932 1.45045398 0.0363659095 255 79 163
59.6080652 1.45045398 0.143640099 255 79 163
59.8830801 1.45045398 0.316443394 255 79 163
60.1127474 1.45045398 0.546110714 255 79 163
60.2855507 1.45045398 0.821125581 255 79 163
60.3928249 1.45045398 1.1276976 255 79 163
59.0488531 1.00775732 0.0709902705 255 79 163
59.1822222 1.05109155 0.0709902705 255 79 163
59.2956727 1.13351816 0.0709902705 255 79 163
59.242191 0.639625554 0.27701206 255 79 163
59.3780993 1.24696866 0.0709902705 255 79 163
59.4798564 0.760722123 0.27701206 255 79 163
59.1623036 0.291459077 0.59789852 255 79 163
59.4214335 1.38033771 0.0709902705 255 79 163
59.6684687 0.949334452 0.27701206 255 79 163
59.5114683 0.404909573 0.59789852 255 79 163
59.7895653 1.18699985 0.27701206 255 79 163
59.8084856 0.62070524 0.59789852 255 79 163
59.4050146 0.13850603 1.00223905 255 79 163
60.0242813 0.917722494 0.59789852 255 79 163
59.7895653 0.334444395 1.00223905 255 79 163
60.1377318 1.26688722 0.59789852 255 79 163
60.0947464 0.639625554 1.00223905 255 79 163
60.2906848 1.02417625 1.00223905 255 79 163
47.5584204 37.9767917 27.5994693 218 222 230
39.477701 37.9767917 27.5994693 218 222 230
39.477701 37.9767917 24.7273322 218 222 230
49.0088743 37.9767917 24.7273322 218 222 230
49.0088743 37.9767917 26.1490153 218 222 230
48.9725084 37.9767917 26.4717717 218 222 230
48.8652342 37.9767917 26.7783437 218 222 230
48.6924309 37.9767917 27.0533586 218 222 230
48.4627636 37.9767917 27.2830259 218 222 230
48.1877487 37.9767917 27.4558292 218 222 230
47.8811767 37.9767917 27.5631034 218 222 230
37.0450034 62.067911 12.0246943 218 222 230
38.2937701 59.9457086 12.0246943 218 222 230
36.0680502 60.091634 12.0246943 218 222 230
3 0 3 2
3 0 1 3
3 11 12 5
3 11 13 12
3 11 14 13
3 11 15 14
3 11 16 15
3 11 17 16
3 10 5 4
3 10 11 5
3 9 4 6
3 9 10 4
3 7 8 9
3 7 9 6
3 28 25 24
3 28 27 25
3 29 24 23
3 29 28 24
3 30 23 22
3 30 29 23
3 31 22 21
3 31 30 22
3 32 31 21
3 33 21 20
3 33 32 21
3 34 20 19
3 34 33 20
3 35 19 18
3 35 34 19
3 26 35 18
3 44 45 52
3 43 52 51
3 43 44 52
3 42 51 50
3 42 43 51
3 41 49 48
3 41 50 49
3 41 42 50
3 40 48 47
3 40 41 48
3 39 47 46
3 39 40 47
3 38 46 36
3 38 39 46
3 37 38 36
3 60 61 62
3 60 62 69
3 59 60 69
3 58 69 68
3 58 59 69
3 57 68 67
3 57 58 68
3 56 67 66
3 56 57 67
3 55 66 65
3 55 56 66
3 54 65 64
3 54 55 65
3 53 64 63
3 53 54 64
3 87 70 71
3 86 71 72
3 86 87 71
3 85 72 73
3 85 86 72
3 84 73 74
3 84 85 73
3 83 74 75
3 83 75 76
3 83 84 74
3 82 76 77
3 82 83 76
3 81 77 78
3 81 82 77
3 80 78 79
3 80 81 78
3 97 95 94
3 98 94 93
3 98 97 94
3 99 93 92
3 99 98 93
3 100 91 90
3 100 92 91
3 100 99 92
3 101 100 90
3 102 90 89
3 102 101 90
3 103 89 88
3 103 102 89
3 96 103 88
3 109 108 107
3 116 109 107
3 115 116 107
3 114 107 106
3 114 115 107
3 113 114 106
3 112 113 106
3 111 112 106
3 126 118 119
3 126 119 120
3 126 120 121
3 126 121 122
3 126 125 118
3 105 127 128
3 105 128 129
3 105 129 130
3 105 130 131
3 105 131 132
3 105 132 133
3 105 133 126
3 104 110 111
3 104 117 110
3 104 122 123
3 104 123 124
3 104 124 117
3 104 111 106
3 104 126 122
3 104 105 126
3 142 143 149
3 141 149 148
3 141 142 149
3 140 148 147
3 140 141 148
3 139 147 146
3 139 140 147
3 138 146 145
3 138 139 146
3 137 145 144
3 137 138 145
3 136 144 134
3 136 137 144
3 135 136 134
3 157 158 159
3 157 159 165
3 156 165 164
3 156 157 165
3 155 164 163
3 155 156 164
3 154 163 162
3 154 155 163
3 153 162 161
3 153 154 162
3 152 161 160
3 152 153 161
3 151 160 150
3 151 152 160
3 172 173 180
3 166 167 187
3 188 176 175
3 189 175 174
3 189 188 175
3 190 174 181
3 190 189 174
3 191 177 176
3 191 188 189
3 191 176 188
3 192 181 182
3 192 190 181
3 193 189 190
3 193 191 189
3 194 178 177
3 194 179 178
3 194 177 191
3 195 182 183
3 195 192 182
3 196 193 190
3 196 190 192
3 197 191 193
3 197 194 191
3 198 183 184
3 198 196 192
3 198 195 183
3 198 192 195
3 199 193 196
3 199 197 193
3 200 171 172
3 200 180 179
3 200 179 194
3 200 194 197
3 200 172 180
3 201 196 198
3 201 199 196
3 202 170 171
3 202 171 200
3 202 197 199
3 202 200 197
3 203 184 185
3 203 185 186
3 203 198 184
3 203 201 198
3 204 168 169
3 204 169 170
3 204 170 202
3 204 199 201
3 204 202 199
3 205 167 168
3 205 186 187
3 205 187 167
3 205 168 204
3 205 203 186
3 205 201 203
3 205 204 201
3 231 230 209
3 232 231 209
3 229 209 230
3 228 206 209
3 228 209 229
3 233 232 209
3 234 233 209
3 227 206 228
3 226 206 227
3 225 206 226
3 224 206 225
3 223 206 224
3 222 206 223
3 221 206 222
3 220 206 221
3 219 206 220
3 211 234 209
3 212 206 219
3 208 211 209
3 245 210 211
3 245 211 208
3 244 213 214
3 244 214 215
3 244 215 216
3 244 216 217
3 244 217 218
3 244 218 210
3 244 210 245
3 235 245 208
3 207 235 208
3 207 212 213
3 207 236 235
3 207 237 236
3 207 238 237
3 207 239 238
3 207 240 239
3 207 241 240
3 207 242 241
3 207 243 242
3 207 244 243
3 207 206 212
3 207 213 244
3 248 250 249
3 248 251 250
3 258 273 275
3 258 248 273
3 258 275 259
3 260 259 275
3 257 248 258
3 261 275 274
3 261 260 275
3 256 248 257
3 262 261 274
3 246 273 248
3 255 248 256
3 263 274 273
3 263 262 274
3 263 273 246
3 254 251 248
3 254 248 255
3 264 263 246
3 253 251 254
3 265 264 246
3 247 265 246
3 252 251 253
3 266 265 247
3 268 247 267
3 271 272 266
3 271 266 247
3 270 268 269
3 270 247 268
3 270 271 247
3 292 283 282
3 291 297 290
3 298 278 277
3 299 277 276
3 299 298 277
3 300 276 284
3 300 299 276
3 301 279 278
3 301 278 298
3 301 298 299
3 302 284 285
3 302 300 284
3 303 299 300
3 303 301 299
3 304 280 279
3 304 281 280
3 304 279 301
3 305 285 286
3 305 302 285
3 306 303 300
3 306 300 302
3 307 301 303
3 307 304 301
3 308 286 287
3 308 302 305
3 308 305 286
3 308 306 302
3 309 303 306
3 309 307 303
3 310 282 281
3 310 293 292
3 310 281 304
3 310 304 307
3 310 292 282
3 311 306 308
3 311 309 306
3 312 294 293
3 312 295 294
3 312 293 310
3 312 307 309
3 312 310 307
3 313 287 288
3 313 288 289
3 313 308 287
3 313 311 308
3 314 296 295
3 314 295 312
3 314 309 311
3 314 312 309
3 315 289 290
3 315 297 296
3 315 296 314
3 315 290 297
3 315 313 289
3 315 311 313
3 315 314 311
3 323 325 324
3 323 326 325
3 323 327 326
3 323 328 327
3 316 328 323
3 322 328 316
3 317 322 316
3 321 322 317
3 319 320 321
3 318 319 321
3 317 318 321
3 330 331 332
3 329 330 332
3 334 335 336
3 333 334 336
3 338 342 341
3 337 342 338
3 339 338 340
3 340 338 341
3 343 345 344
3 343 346 345
3 347 343 348
3 346 343 347
3 359 350 349
3 359 349 358
3 360 351 350
3 360 350 359
3 361 352 351
3 361 351 360
3 362 353 352
3 362 352 361
3 363 354 353
3 363 353 362
3 364 355 354
3 364 354 363
3 357 356 355
3 357 355 364
3 375 366 365
3 375 365 374
3 376 367 366
3 376 366 375
3 377 368 367
3 377 367 376
3 378 369 368
3 378 368 377
3 379 370 369
3 379 369 378
3 380 371 370
3 380 370 379
3 373 372 371
3 373 371 380
3 382 384 383
3 381 384 382
3 388 386 385
3 388 385 387
3 401 391 390
3 401 392 391
3 401 393 392
3 401 394 393
3 401 395 394
3 401 396 395
3 401 389 396
3 401 390 397
3 401 397 398
3 399 400 401
3 399 401 398
3 401 386 388
3 401 388 389
3 410 411 412
3 409 412 413
3 409 410 412
3 408 413 414
3 408 409 413
3 407 414 415
3 407 408 414
3 406 415 416
3 406 407 415
3 405 416 417
3 405 406 416
3 404 417 402
3 404 405 417
3 403 404 402
3 419 420 418
3 419 421 420
3 429 431 430
3 429 437 431
3 428 436 437
3 428 437 429
3 427 434 435
3 427 435 436
3 427 436 428
3 426 434 427
3 425 433 434
3 425 434 426
3 424 422 432
3 424 432 433
3 424 433 425
3 423 422 424
3 439 440 438
3 439 441 440
3 449 451 450
3 449 457 451
3 448 455 456
3 448 456 457
3 448 457 449
3 447 455 448
3 446 453 454
3 446 454 455
3 446 455 447
3 445 453 446
3 444 442 452
3 444 452 453
3 444 453 445
3 443 442 444
3 461 459 458
3 461 460 459
3 462 465 464
3 463 465 462
3 469 467 466
3 469 468 467
3 471 470 478
3 485 478 477
3 485 471 478
3 484 477 476
3 484 485 477
3 483 476 475
3 483 484 476
3 482 475 474
3 482 483 475
3 481 474 473
3 481 482 474
3 480 473 472
3 480 481 473
3 479 480 472
3 493 494 495
3 493 495 501
3 492 493 501
3 491 501 500
3 491 492 501
3 490 500 499
3 490 491 500
3 489 498 497
3 489 499 498
3 489 490 499
3 488 497 496
3 488 489 497
3 487 496 486
3 487 488 496
3 539 502 540
3 538 502 539
3 537 502 538
3 536 503 502
3 536 502 537
3 535 503 536
3 534 503 535
3 520 504 503
3 520 503 534
3 521 505 504
3 521 504 520
3 522 506 505
3 522 505 521
3 523 507 506
3 523 506 522
3 524 508 507
3 524 507 523
3 525 509 508
3 525 508 524
3 526 510 509
3 526 509 525
3 527 511 510
3 527 510 526
3 528 512 511
3 528 511 527
3 529 513 512
3 529 512 528
3 530 514 513
3 530 513 529
3 531 515 514
3 531 514 530
3 532 515 531
3 532 516 515
3 533 516 532
3 533 517 516
3 519 517 533
3 519 518 517
3 549 550 551
3 549 551 557
3 548 557 556
3 548 549 557
3 547 556 555
3 547 548 556
3 546 555 554
3 546 547 555
3 545 546 554
3 544 554 553
3 544 545 554
3 543 553 552
3 543 544 553
3 542 552 541
3 542 543 552
3 561 559 558
3 561 560 559
3 562 564 563
3 565 564 562
3 569 567 566
3 569 568 567
3 578 579 580
3 578 580 586
3 577 586 585
3 577 578 586
3 576 585 584
3 576 577 585
3 575 584 583
3 575 576 584
3 574 583 582
3 574 575 583
3 573 582 581
3 573 574 582
3 572 581 570
3 572 573 581
3 571 572 570
3 587 588 589
3 587 589 590
3 587 590 591
3 587 591 592
3 587 592 593
3 587 593 594
3 595 587 594
3 596 587 595
3 597 587 596
3 598 587 597
3 599 587 598
3 600 587 599
3 601 587 600
3 602 587 601
3 609 610 617
3 603 604 624
3 625 613 612
3 626 612 611
3 626 625 612
3 627 611 618
3 627 626 611
3 628 614 613
3 628 625 626
3 628 613 625
3 629 618 619
3 629 627 618
3 630 626 627
3 630 628 626
3 631 615 614
3 631 616 615
3 631 614 628
3 632 619 620
3 632 629 619
3 633 630 627
3 633 627 629
3 634 628 630
3 634 631 628
3 635 620 621
3 635 633 629
3 635 632 620
3 635 629 632
3 636 630 633
3 636 634 630
3 637 608 609
3 637 617 616
3 637 616 631
3 637 631 634
3 637 609 617
3 638 633 635
3 638 636 633
3 639 607 608
3 639 608 637
3 639 634 636
3 639 637 634
3 640 621 622
3 640 622 623
3 640 635 621
3 640 638 635
3 641 605 606
3 641 606 607
3 641 607 639
3 641 636 638
3 641 639 636
3 642 604 605
3 642 623 624
3 642 624 604
3 642 605 641
3 642 640 623
3 642 638 640
3 642 641 638
3 643 644 645
3 651 652 653
3 647 648 649
3 647 649 650
3 647 650 651
3 647 653 643
3 647 651 653
3 646 643 645
3 646 647 643
3 654 655 656
