ply
format ascii 1.0
comment generated by blendit.inference.finetune_visualize
element vertex 1077
property float x
property float y
property float z
property uchar red
property uchar green
property uchar blue
element face 1165
property list uchar int vertex_indices
end_header
0 1.27545654 83.6341317 218 222 230
-2.22044605e-16 53.3859621 83.6341317 218 222 230
0 1.27545654 1.27545654 218 222 230
-2.22044605e-16 53.3859621 1.27545654 218 222 230
0 35.1554327 66.6651754 218 222 230
0 22.0805424 62.5945629 218 222 230
-7.32747196e-15 36.5616299 67.1029676 218 222 230
0 46.08321 58.3145399 218 222 230
0 46.4351305 57.913858 218 222 230
0 46.6960542 57.4487636 218 222 230
0 46.8545775 56.9395835 218 222 230
0 46.9037722 56.4085713 218 222 230
0 46.8414882 55.8789349 218 222 230
-7.32747196e-15 43.6673172 41.8020923 218 222 230
-2.22044605e-16 28.4831311 37.0747916 218 222 230
0 17.8793133 46.8621257 218 222 230
0 17.5273928 47.2628076 218 222 230
0 17.2664691 47.727902 218 222 230
0 17.1079458 48.2370821 218 222 230
0 17.0587511 48.7680943 218 222 230
0 17.1210351 49.2977307 218 222 230
-1.11022302e-16 19.9712466 61.9378748 218 222 230
-9.99365881e-17 20.0036902 62.0310896 218 222 230
-9.047892e-17 20.0520184 62.1055352 218 222 230
-8.29316831e-17 20.109151 62.1614451 218 222 230
-7.60570234e-17 20.1753628 62.2063244 218 222 230
-6.49448292e-17 20.3109882 62.2659218 218 222 230
-5.36413575e-17 20.4904889 62.3131835 218 222 230
-2.98466522e-17 21.1254772 62.4023336 218 222 230
1.27545654 54.6614187 83.6341317 218 222 230
66.8553731 54.6614187 83.6341317 218 222 230
-2.22044605e-16 53.3859621 83.6341317 218 222 230
0.0319783585 53.6697779 83.6341317 218 222 230
0.126309905 53.939362 83.6341317 218 222 230
0.278264463 54.1811963 83.6341317 218 222 230
0.480222396 54.3831542 83.6341317 218 222 230
0.72205669 54.5351088 83.6341317 218 222 230
0.991640762 54.6294403 83.6341317 218 222 230
0 1.27545654 83.6341317 218 222 230
58.569644 1.27545654 83.6341317 218 222 230
58.569644 14.486662 83.6341317 218 222 230
59.8451006 14.486662 83.6341317 218 222 230
66.8553731 14.486662 83.6341317 218 222 230
0 1.27545654 1.27545654 255 79 163
0.0319783585 0.991640762 1.27545654 255 79 163
0.126309905 0.72205669 1.27545654 255 79 163
0.278264463 0.480222396 1.27545654 255 79 163
0.480222396 0.278264463 1.27545654 255 79 163
0.72205669 0.126309905 1.27545654 255 79 163
0.991640762 0.0319783585 1.27545654 255 79 163
1.27545654 -2.22044605e-16 1.27545654 255 79 163
1.27545654 -2.22044605e-16 82.3586751 255 79 163
0.863802666 0.0682571072 82.770329 255 79 163
0.529806827 0.240663862 83.1043248 255 79 163
0.283855788 0.47326122 83.3502759 255 79 163
0.13518711 0.703989123 83.4989445 255 79 163
0.04450201 0.941480002 83.5896296 255 79 163
0.011174453 1.10699233 83.6229572 255 79 163
0 1.27545654 83.6341317 255 79 163
-2.22044605e-16 53.3859621 83.6341317 255 79 163
0.0319783585 53.6697779 83.6341317 255 79 163
0.126309905 53.939362 83.6341317 255 79 163
0.278264463 54.1811963 83.6341317 255 79 163
0.480222396 54.3831542 83.6341317 255 79 163
0.72205669 54.5351088 83.6341317 255 79 163
0.991640762 54.6294403 83.6341317 255 79 163
1.27545654 54.6614187 83.6341317 255 79 163
1.27545654 54.6614187 1.27545654 255 79 163
-2.22044605e-16 53.3859621 1.27545654 255 79 163
0.0319783585 53.6697779 1.27545654 255 79 163
0.126309905 53.939362 1.27545654 255 79 163
0.278264463 54.1811963 1.27545654 255 79 163
0.480222396 54.3831542 1.27545654 255 79 163
0.72205669 54.5351088 1.27545654 255 79 163
0.991640762 54.6294403 1.27545654 255 79 163
0 1.27545654 1.27545654 255 79 163
-2.22044605e-16 53.3859621 1.27545654 255 79 163
1.27545654 53.3859621 0 255 79 163
0.991640762 53.3859621 0.0319783585 255 79 163
0.72205669 53.3859621 0.126309905 255 79 163
0.480222396 53.3859621 0.278264463 255 79 163
0.278264463 53.3859621 0.480222396 255 79 163
0.126309905 53.3859621 0.72205669 255 79 163
0.0319783585 53.3859621 0.991640762 255 79 163
1.27545654 1.27545654 -2.22044605e-16 255 79 163
0.0319783585 1.27545654 0.991640762 255 79 163
0.126309905 1.27545654 0.72205669 255 79 163
0.278264463 1.27545654 0.480222396 255 79 163
0.480222396 1.27545654 0.278264463 255 79 163
0.72205669 1.27545654 0.126309905 255 79 163
0.991640762 1.27545654 0.0319783585 255 79 163
0 35.1554327 66.6651754 218 222 230
0 22.0805424 62.5945629 218 222 230
66.8553731 22.0805424 62.5945629 218 222 230
66.8553731 35.1554327 66.6651754 218 222 230
1.27545654 35.1554327 66.6651754 218 222 230
-7.32747196e-15 36.5616299 67.1029676 218 222 230
0.0397913612 36.213125 66.9944674 218 222 230
0.156682644 35.8863653 66.8927371 218 222 230
0.34338036 35.601739 66.8041242 218 222 230
0.56154383 35.3963504 66.7401805 218 222 230
0.789126372 35.2616683 66.6982499 218 222 230
1.02756444 35.1822473 66.6735236 218 222 230
0 22.0805424 62.5945629 218 222 230
0 22.0805424 62.5945629 218 222 230
-1.11022302e-16 19.9712466 61.9378748 218 222 230
-9.99365881e-17 20.0036902 62.0310896 218 222 230
-9.047892e-17 20.0520184 62.1055352 218 222 230
-8.29316831e-17 20.109151 62.1614451 218 222 230
-7.60570234e-17 20.1753628 62.2063244 218 222 230
-6.49448292e-17 20.3109882 62.2659218 218 222 230
-5.36413575e-17 20.4904889 62.3131835 218 222 230
-2.98466522e-17 21.1254772 62.4023336 218 222 230
0.0397905661 20.279604 61.8683436 218 222 230
0.156679355 20.5687218 61.8031508 218 222 230
0.343373496 20.8205605 61.746364 218 222 230
0.588224018 21.0194071 61.7015263 218 222 230
0.87595394 21.1528545 61.6714354 218 222 230
1.07314398 21.1997119 61.6608695 218 222 230
1.27545654 21.2154641 61.6573176 218 222 230
0.892819581 21.3630573 62.0280705 218 222 230
0.510182618 21.6179958 62.3350686 218 222 230
0.255091309 21.8356322 62.4891236 218 222 230
0.0328889966 20.3764812 62.1019058 218 222 230
0.120286749 20.6155606 62.0332292 218 222 230
0.0311953957 20.5960951 62.2267573 218 222 230
0.252331071 20.8269794 61.9709995 218 222 230
0.109081884 20.7939882 62.1669593 218 222 230
0.423890344 21.0020867 61.9172167 218 222 230
0.221701924 20.9681579 62.1110011 218 222 230
0.630621459 21.1359337 61.8729408 218 222 230
0.365597272 21.1118321 62.0614539 218 222 230
0.865779673 21.2247764 61.8390654 218 222 230
0.0223995049 21.0812269 62.3543046 218 222 230
0.539811393 21.2215687 62.0206793 218 222 230
0.0759100321 21.200053 62.3289182 218 222 230
0.740929899 21.2954507 61.9901536 218 222 230
0.150690962 21.3046965 62.3018066 218 222 230
0.244938284 21.3909154 62.2762928 218 222 230
0.359489576 21.4560178 62.2572757 218 222 230
0.0363606278 21.6346074 62.45888 218 222 230
0.0103984652 21.580641 62.4593688 218 222 230
0.493330885 21.4993446 62.2472701 218 222 230
0.0739006413 21.6829533 62.4555973 218 222 230
0.121865757 21.7230811 62.451432 218 222 230
0.179937131 21.7524908 62.4499589 218 222 230
0.246976633 21.770203 62.4527245 218 222 230
0.00401146562 21.365766 62.4242749 218 222 230
0.0146454604 21.4057737 62.4210092 218 222 230
-1.11022302e-16 19.9712466 61.9378748 255 79 163
0 17.1210351 49.2977307 255 79 163
0.0397905661 20.279604 61.8683436 255 79 163
0.156679355 20.5687218 61.8031508 255 79 163
0.343373496 20.8205605 61.746364 255 79 163
0.588224018 21.0194071 61.7015263 255 79 163
0.87595394 21.1528545 61.6714354 255 79 163
1.07314398 21.1997119 61.6608695 255 79 163
1.27545654 21.2154641 61.6573176 255 79 163
1.27545654 18.3652525 49.0171735 255 79 163
0.0319783585 17.3978995 49.2353008 255 79 163
0.126309905 17.6608808 49.1760015 255 79 163
0.278264463 17.896792 49.1228061 255 79 163
0.480222396 18.0938035 49.0783823 255 79 163
0.72205669 18.2420363 49.0449574 255 79 163
0.991640762 18.3340574 49.0242077 255 79 163
0 46.08321 58.3145399 255 79 163
0.0319783585 45.890712 58.1059832 255 79 163
0.126309905 45.7078666 57.9078844 255 79 163
0.278264463 45.5438425 57.730177 255 79 163
0.480222396 45.4068645 57.581772 255 79 163
0.72205669 45.3038014 57.4701111 255 79 163
0.991640762 45.239821 57.4007933 255 79 163
1.27545654 45.2181317 57.3772946 255 79 163
1.27545654 35.1554327 66.6651754 255 79 163
-7.32747196e-15 36.5616299 67.1029676 255 79 163
0.0397913612 36.213125 66.9944674 255 79 163
0.156682644 35.8863653 66.8927371 255 79 163
0.34338036 35.601739 66.8041242 255 79 163
0.56154383 35.3963504 66.7401805 255 79 163
0.789126372 35.2616683 66.6982499 255 79 163
1.02756444 35.1822473 66.6735236 255 79 163
0 17.8793133 46.8621257 255 79 163
0.0319783585 18.0718113 47.0706824 255 79 163
0.126309905 18.2546567 47.2687812 255 79 163
0.278264463 18.4186808 47.4464886 255 79 163
0.480222396 18.5556588 47.5948936 255 79 163
0.72205669 18.658722 47.7065545 255 79 163
0.991640762 18.7227023 47.7758723 255 79 163
1.27545654 18.7443916 47.799371 255 79 163
0 17.5273928 47.2628076 255 79 163
0 17.2664691 47.727902 255 79 163
0 17.1079458 48.2370821 255 79 163
0 17.0587511 48.7680943 255 79 163
0 17.1210351 49.2977307 255 79 163
0.0319783585 17.3978995 49.2353008 255 79 163
0.126309905 17.6608808 49.1760015 255 79 163
0.278264463 17.896792 49.1228061 255 79 163
0.480222396 18.0938035 49.0783823 255 79 163
0.72205669 18.2420363 49.0449574 255 79 163
0.991640762 18.3340574 49.0242077 255 79 163
1.27545654 18.3652525 49.0171735 255 79 163
1.27545654 18.5684314 47.999712 255 79 163
1.27545654 18.4379696 48.2322592 255 79 163
1.27545654 18.3587079 48.4868492 255 79 163
1.27545654 18.3341106 48.7523553 255 79 163
0.0319783585 17.7590457 47.4267842 255 79 163
0.126309905 17.9790825 47.5825384 255 79 163
0.0319783585 17.5271525 47.8401321 255 79 163
0.278264463 18.1764698 47.72226 255 79 163
0.126309905 17.7747641 47.9467344 255 79 163
0.0319783585 17.3862666 48.2926605 255 79 163
0.480222396 18.3413096 47.8389426 255 79 163
0.278264463 17.9968877 48.0423636 255 79 163
0.126309905 17.6506312 48.345452 255 79 163
0.72205669 18.4653362 47.9267355 255 79 163
0.0319783585 17.3425453 48.764592 255 79 163
0.480222396 18.1823851 48.1222243 255 79 163
0.278264463 17.8877832 48.3928094 255 79 163
0.991640762 18.5423304 47.9812362 255 79 163
0.126309905 17.6121089 48.7612654 255 79 163
0.72205669 18.3219546 48.1823121 255 79 163
0.480222396 18.085831 48.4323579 255 79 163
0.278264463 17.8539247 48.7582812 255 79 163
0.991640762 18.4085976 48.2196139 255 79 163
0.72205669 18.2348435 48.4621145 255 79 163
0.480222396 18.0558673 48.7557891 255 79 163
0.991640762 18.3273487 48.4805871 255 79 163
0.72205669 18.2078103 48.753914 255 79 163
0.991640762 18.3021346 48.7527499 255 79 163
0 46.08321 58.3145399 255 79 163
0.0319783585 45.890712 58.1059832 255 79 163
0.126309905 45.7078666 57.9078844 255 79 163
0.278264463 45.5438425 57.730177 255 79 163
0.480222396 45.4068645 57.581772 255 79 163
0.72205669 45.3038014 57.4701111 255 79 163
0.991640762 45.239821 57.4007933 255 79 163
1.27545654 45.2181317 57.3772946 255 79 163
0 46.4351305 57.913858 255 79 163
0 46.6960542 57.4487636 255 79 163
0 46.8545775 56.9395835 255 79 163
0 46.9037722 56.4085713 255 79 163
0 46.8414882 55.8789349 255 79 163
0.0319783585 46.5646238 55.9413648 255 79 163
0.126309905 46.3016425 56.0006641 255 79 163
0.278264463 46.0657313 56.0538595 255 79 163
0.480222396 45.8687198 56.0982833 255 79 163
0.72205669 45.720487 56.1317082 255 79 163
0.991640762 45.6284659 56.1524579 255 79 163
1.27545654 45.5972708 56.1594921 255 79 163
1.27545654 45.3940919 57.1769536 255 79 163
1.27545654 45.5245537 56.9444064 255 79 163
1.27545654 45.6038154 56.6898164 255 79 163
1.27545654 45.6284127 56.4243103 255 79 163
0.0319783585 46.2034776 57.7498814 255 79 163
0.126309905 45.9834408 57.5941272 255 79 163
0.0319783585 46.4353708 57.3365335 255 79 163
0.278264463 45.7860535 57.4544056 255 79 163
0.126309905 46.1877592 57.2299312 255 79 163
0.0319783585 46.5762567 56.8840051 255 79 163
0.480222396 45.6212137 57.337723 255 79 163
0.278264463 45.9656356 57.134302 255 79 163
0.126309905 46.3118921 56.8312136 255 79 163
0.72205669 45.4971871 57.2499301 255 79 163
0.0319783585 46.619978 56.4120736 255 79 163
0.480222396 45.7801383 57.0544413 255 79 163
0.278264463 46.0747401 56.7838562 255 79 163
0.991640762 45.4201929 57.1954294 255 79 163
0.126309905 46.3504145 56.4154002 255 79 163
0.72205669 45.6405688 56.9943535 255 79 163
0.480222396 45.8766923 56.7443077 255 79 163
0.278264463 46.1085986 56.4183844 255 79 163
0.991640762 45.5539257 56.9570517 255 79 163
0.72205669 45.7276798 56.7145511 255 79 163
0.480222396 45.906656 56.4208765 255 79 163
0.991640762 45.6351746 56.6960785 255 79 163
0.72205669 45.754713 56.4227516 255 79 163
0.991640762 45.6603887 56.4239157 255 79 163
0 17.8793133 46.8621257 255 79 163
0.0319783585 18.0718113 47.0706824 255 79 163
0.126309905 18.2546567 47.2687812 255 79 163
0.278264463 18.4186808 47.4464886 255 79 163
0.480222396 18.5556588 47.5948936 255 79 163
0.72205669 18.658722 47.7065545 255 79 163
0.991640762 18.7227023 47.7758723 255 79 163
1.27545654 18.7443916 47.799371 255 79 163
1.27545654 28.8070906 38.5114901 255 79 163
-2.22044605e-16 28.4831311 37.0747916 255 79 163
0.0397913612 28.5634196 37.4308557 255 79 163
0.156682644 28.6386985 37.7647031 255 79 163
0.34338036 28.7042706 38.0555031 255 79 163
0.56154383 28.751588 38.2653467 255 79 163
0.789126372 28.7826161 38.4029502 255 79 163
1.02756444 28.8009131 38.4840939 255 79 163
-7.32747196e-15 43.6673172 41.8020923 255 79 163
0.0397913612 43.3991008 42.0496562 255 79 163
0.156682644 43.1476199 42.2817733 255 79 163
0.34338036 42.9285658 42.4839605 255 79 163
0.56154383 42.7704946 42.6298604 255 79 163
0.789126372 42.6668406 42.7255331 255 79 163
1.02756444 42.6057165 42.7819507 255 79 163
1.27545654 42.5850795 42.8009987 255 79 163
1.27545654 45.5972708 56.1594921 255 79 163
0 46.8414882 55.8789349 255 79 163
0.0319783585 46.5646238 55.9413648 255 79 163
0.126309905 46.3016425 56.0006641 255 79 163
0.278264463 46.0657313 56.0538595 255 79 163
0.480222396 45.8687198 56.0982833 255 79 163
0.72205669 45.720487 56.1317082 255 79 163
0.991640762 45.6284659 56.1524579 255 79 163
-2.22044605e-16 28.4831311 37.0747916 255 79 163
0.0397913612 28.5634196 37.4308557 255 79 163
0.156682644 28.6386985 37.7647031 255 79 163
0.34338036 28.7042706 38.0555031 255 79 163
0.56154383 28.751588 38.2653467 255 79 163
0.789126372 28.7826161 38.4029502 255 79 163
1.02756444 28.8009131 38.4840939 255 79 163
1.27545654 28.8070906 38.5114901 255 79 163
1.27545654 42.5850795 42.8009987 255 79 163
-7.32747196e-15 43.6673172 41.8020923 255 79 163
0.0397913612 43.3991008 42.0496562 255 79 163
0.156682644 43.1476199 42.2817733 255 79 163
0.34338036 42.9285658 42.4839605 255 79 163
0.56154383 42.7704946 42.6298604 255 79 163
0.789126372 42.6668406 42.7255331 255 79 163
1.02756444 42.6057165 42.7819507 255 79 163
1.27545654 54.6614187 83.6341317 218 222 230
66.8553731 54.6614187 83.6341317 218 222 230
66.8553731 54.6614187 1.27545654 218 222 230
1.27545654 54.6614187 1.27545654 218 222 230
66.8553731 14.486662 83.6341317 255 79 163
67.1399596 14.4893118 83.6019771 255 79 163
67.4101971 14.4971275 83.5071348 255 79 163
67.6524602 14.509715 83.3543867 255 79 163
67.8545339 14.5264398 83.1514343 255 79 163
68.0062294 14.5464584 82.9085107 255 79 163
68.0992896 14.5685392 82.6405636 255 79 163
68.1308296 14.5917688 82.3586751 255 79 163
68.1308296 53.3859621 82.3586751 255 79 163
66.8553731 54.6614187 83.6341317 255 79 163
67.0718926 54.6429063 83.6156193 255 79 163
67.2821269 54.5879066 83.5606196 255 79 163
67.4799731 54.4980162 83.4707292 255 79 163
67.659688 54.3758444 83.3485574 255 79 163
67.8160548 54.2249377 83.1976507 255 79 163
67.9445344 54.0496768 83.0223898 255 79 163
68.0661446 53.786988 82.759701 255 79 163
68.1145545 53.5890667 82.5617797 255 79 163
68.1308296 18.5423169 34.4193186 218 222 230
68.1308296 14.5917688 82.3586751 218 222 230
59.8451006 18.5423169 34.4193186 218 222 230
59.8451006 14.5917688 82.3586751 218 222 230
58.569644 14.486662 83.6341317 218 222 230
58.8542305 14.4893118 83.6019771 218 222 230
59.1244681 14.4971275 83.5071348 218 222 230
59.3667312 14.509715 83.3543867 218 222 230
59.5688048 14.5264398 83.1514343 218 222 230
59.7205003 14.5464584 82.9085107 218 222 230
59.8135605 14.5685392 82.6405636 218 222 230
59.8451006 14.486662 83.6341317 218 222 230
66.8553731 14.486662 83.6341317 218 222 230
67.1399596 14.4893118 83.6019771 218 222 230
67.4101971 14.4971275 83.5071348 218 222 230
67.6524602 14.509715 83.3543867 218 222 230
67.8545339 14.5264398 83.1514343 218 222 230
68.0062294 14.5464584 82.9085107 218 222 230
68.0992896 14.5685392 82.6405636 218 222 230
1.27545654 -2.22044605e-16 82.3586751 255 79 163
58.569644 -2.22044605e-16 82.3586751 255 79 163
58.569644 0.0319783585 82.6424909 255 79 163
58.569644 0.126309905 82.912075 255 79 163
58.569644 0.278264463 83.1539093 255 79 163
58.569644 0.480222396 83.3558672 255 79 163
58.569644 0.72205669 83.5078218 255 79 163
58.569644 0.991640762 83.6021533 255 79 163
58.569644 1.27545654 83.6341317 255 79 163
0 1.27545654 83.6341317 255 79 163
0.863802666 0.0682571072 82.770329 255 79 163
0.529806827 0.240663862 83.1043248 255 79 163
0.283855788 0.47326122 83.3502759 255 79 163
0.13518711 0.703989123 83.4989445 255 79 163
0.04450201 0.941480002 83.5896296 255 79 163
0.011174453 1.10699233 83.6229572 255 79 163
58.569644 14.486662 83.6341317 255 79 163
58.569644 1.27545654 83.6341317 255 79 163
59.8451006 1.27545654 82.3586751 255 79 163
59.8131222 1.27545654 82.6424909 255 79 163
59.7187907 1.27545654 82.912075 255 79 163
59.5668361 1.27545654 83.1539093 255 79 163
59.3648782 1.27545654 83.3558672 255 79 163
59.1230439 1.27545654 83.5078218 255 79 163
58.8534598 1.27545654 83.6021533 255 79 163
59.8451006 14.5917688 82.3586751 255 79 163
58.8542305 14.4893118 83.6019771 255 79 163
59.1244681 14.4971275 83.5071348 255 79 163
59.3667312 14.509715 83.3543867 255 79 163
59.5688048 14.5264398 83.1514343 255 79 163
59.7205003 14.5464584 82.9085107 255 79 163
59.8135605 14.5685392 82.6405636 255 79 163
1.27545654 1.27545654 -2.22044605e-16 255 79 163
1.27545654 0.991640762 0.0319783585 255 79 163
1.27545654 0.72205669 0.126309905 255 79 163
1.27545654 0.480222396 0.278264463 255 79 163
1.27545654 0.278264463 0.480222396 255 79 163
1.27545654 0.126309905 0.72205669 255 79 163
1.27545654 0.0319783585 0.991640762 255 79 163
1.27545654 -2.22044605e-16 1.27545654 255 79 163
0 1.27545654 1.27545654 255 79 163
0.0319783585 0.991640762 1.27545654 255 79 163
0.126309905 0.72205669 1.27545654 255 79 163
0.278264463 0.480222396 1.27545654 255 79 163
0.480222396 0.278264463 1.27545654 255 79 163
0.72205669 0.126309905 1.27545654 255 79 163
0.991640762 0.0319783585 1.27545654 255 79 163
0 1.27545654 1.27545654 255 79 163
0.0319783585 1.27545654 0.991640762 255 79 163
0.126309905 1.27545654 0.72205669 255 79 163
0.278264463 1.27545654 0.480222396 255 79 163
0.480222396 1.27545654 0.278264463 255 79 163
0.72205669 1.27545654 0.126309905 255 79 163
0.991640762 1.27545654 0.0319783585 255 79 163
0.0624252866 0.886171286 1.21379982 255 79 163
0.0624252866 0.924277239 1.09652175 255 79 163
0.0624252866 0.99675907 0.99675907 255 79 163
0.243590524 0.56245466 1.04378819 255 79 163
0.0624252866 1.09652175 0.924277239 255 79 163
0.243590524 0.668940915 0.834797146 255 79 163
0.525761997 0.256294507 1.11403714 255 79 163
0.0624252866 1.21379982 0.886171286 255 79 163
0.243590524 0.834797146 0.668940915 255 79 163
0.525761997 0.356057188 0.806999174 255 79 163
0.243590524 1.04378819 0.56245466 255 79 163
0.525761997 0.545817084 0.545817084 255 79 163
0.881318796 0.121795262 0.900609271 255 79 163
0.525761997 0.806999174 0.356057188 255 79 163
0.881318796 0.294093642 0.56245466 255 79 163
0.525761997 1.11403714 0.256294507 255 79 163
0.881318796 0.56245466 0.294093642 255 79 163
0.881318796 0.900609271 0.121795262 255 79 163
1.27545654 -2.22044605e-16 1.27545654 218 222 230
58.569644 -2.22044605e-16 1.27545654 218 222 230
1.27545654 -2.22044605e-16 82.3586751 218 222 230
58.569644 -2.22044605e-16 82.3586751 218 222 230
-2.22044605e-16 53.3859621 1.27545654 255 79 163
0.0319783585 53.6697779 1.27545654 255 79 163
0.126309905 53.939362 1.27545654 255 79 163
0.278264463 54.1811963 1.27545654 255 79 163
0.480222396 54.3831542 1.27545654 255 79 163
0.72205669 54.5351088 1.27545654 255 79 163
0.991640762 54.6294403 1.27545654 255 79 163
1.27545654 54.6614187 1.27545654 255 79 163
1.27545654 53.3859621 0 255 79 163
1.27545654 53.6697779 0.0319783585 255 79 163
1.27545654 53.939362 0.126309905 255 79 163
1.27545654 54.1811963 0.278264463 255 79 163
1.27545654 54.3831542 0.480222396 255 79 163
1.27545654 54.5351088 0.72205669 255 79 163
1.27545654 54.6294403 0.991640762 255 79 163
1.27545654 53.3859621 0 255 79 163
0.991640762 53.3859621 0.0319783585 255 79 163
0.72205669 53.3859621 0.126309905 255 79 163
0.480222396 53.3859621 0.278264463 255 79 163
0.278264463 53.3859621 0.480222396 255 79 163
0.126309905 53.3859621 0.72205669 255 79 163
0.0319783585 53.3859621 0.991640762 255 79 163
1.21379982 53.7752474 0.0624252866 255 79 163
1.09652175 53.7371414 0.0624252866 255 79 163
0.99675907 53.6646596 0.0624252866 255 79 163
1.04378819 54.098964 0.243590524 255 79 163
0.924277239 53.5648969 0.0624252866 255 79 163
0.834797146 53.9924778 0.243590524 255 79 163
1.11403714 54.4051242 0.525761997 255 79 163
0.886171286 53.4476189 0.0624252866 255 79 163
0.668940915 53.8266215 0.243590524 255 79 163
0.806999174 54.3053615 0.525761997 255 79 163
0.56245466 53.6176305 0.243590524 255 79 163
0.545817084 54.1156016 0.525761997 255 79 163
0.900609271 54.5396234 0.881318796 255 79 163
0.356057188 53.8544195 0.525761997 255 79 163
0.56245466 54.367325 0.881318796 255 79 163
0.256294507 53.5473815 0.525761997 255 79 163
0.294093642 54.098964 0.881318796 255 79 163
0.121795262 53.7608094 0.881318796 255 79 163
66.8553731 21.3787165 -2.22044605e-16 218 222 230
59.8451006 21.3787165 0 218 222 230
66.8553731 53.3859621 0 218 222 230
1.27545654 53.3859621 0 218 222 230
1.27545654 1.27545654 -2.22044605e-16 218 222 230
59.8451006 1.27545654 -2.22044605e-16 218 222 230
66.8553731 22.0805424 62.5945629 255 79 163
67.2380101 21.7227772 62.417799 255 79 163
67.620647 21.4371452 62.139131 255 79 163
67.8757383 21.3009843 61.9098741 255 79 163
68.1308296 21.2154641 61.6573176 255 79 163
0 22.0805424 62.5945629 255 79 163
1.27545654 21.2154641 61.6573176 255 79 163
0.892819581 21.3630573 62.0280705 255 79 163
0.510182618 21.6179958 62.3350686 255 79 163
0.255091309 21.8356322 62.4891236 255 79 163
66.8553731 35.1554327 66.6651754 255 79 163
67.1209536 35.1317113 66.6870703 255 79 163
67.3748917 35.0615871 66.751795 255 79 163
67.6060554 34.9481342 66.8565122 255 79 163
67.8043109 34.7963259 66.9966313 255 79 163
67.9609672 34.6128174 67.1660099 255 79 163
68.069157 34.405653 67.3572228 255 79 163
68.1153171 34.2414706 67.5087633 255 79 163
68.1308296 34.073195 67.6640819 255 79 163
68.1308296 21.7014033 63.8123654 255 79 163
68.0910391 21.7953663 63.5105545 255 79 163
67.9741503 21.8834665 63.2275748 255 79 163
67.7874561 21.960207 62.9810827 255 79 163
67.5426056 22.0207998 62.7864576 255 79 163
67.2548757 22.061464 62.6558433 255 79 163
67.0576857 22.0757424 62.6099807 255 79 163
66.8553731 22.0805424 62.5945629 255 79 163
68.1308296 45.2181317 57.3772946 218 222 230
68.1308296 35.1554327 66.6651754 218 222 230
1.27545654 45.2181317 57.3772946 218 222 230
1.27545654 35.1554327 66.6651754 218 222 230
66.8553731 35.1554327 66.6651754 218 222 230
67.1209536 35.1317113 66.6870703 218 222 230
67.3748917 35.0615871 66.751795 218 222 230
67.6060554 34.9481342 66.8565122 218 222 230
67.8043109 34.7963259 66.9966313 218 222 230
67.9609672 34.6128174 67.1660099 218 222 230
68.069157 34.405653 67.3572228 218 222 230
68.1153171 34.2414706 67.5087633 218 222 230
68.1308296 34.073195 67.6640819 218 222 230
68.1308296 21.2154641 61.6573176 218 222 230
68.1308296 18.3652525 49.0171735 218 222 230
1.27545654 21.2154641 61.6573176 218 222 230
1.27545654 18.3652525 49.0171735 218 222 230
68.1308296 18.3652525 49.0171735 255 79 163
1.27545654 18.3652525 49.0171735 255 79 163
1.27545654 18.7443916 47.799371 255 79 163
1.27545654 18.5684314 47.999712 255 79 163
1.27545654 18.4379696 48.2322592 255 79 163
1.27545654 18.3587079 48.4868492 255 79 163
1.27545654 18.3341106 48.7523553 255 79 163
68.1308296 18.7443916 47.799371 255 79 163
68.1308296 18.3341106 48.7523553 255 79 163
68.1308296 18.3587079 48.4868492 255 79 163
68.1308296 18.4379696 48.2322592 255 79 163
68.1308296 18.5684314 47.999712 255 79 163
68.1308296 45.5972708 56.1594921 255 79 163
1.27545654 45.5972708 56.1594921 255 79 163
1.27545654 45.2181317 57.3772946 255 79 163
1.27545654 45.3940919 57.1769536 255 79 163
1.27545654 45.5245537 56.9444064 255 79 163
1.27545654 45.6038154 56.6898164 255 79 163
1.27545654 45.6284127 56.4243103 255 79 163
68.1308296 45.2181317 57.3772946 255 79 163
68.1308296 45.6284127 56.4243103 255 79 163
68.1308296 45.6038154 56.6898164 255 79 163
68.1308296 45.5245537 56.9444064 255 79 163
68.1308296 45.3940919 57.1769536 255 79 163
68.1308296 18.7443916 47.799371 218 222 230
68.1308296 28.8070906 38.5114901 218 222 230
1.27545654 18.7443916 47.799371 218 222 230
1.27545654 28.8070906 38.5114901 218 222 230
66.8553731 28.8070906 38.5114901 218 222 230
67.1209536 28.830812 38.4895953 218 222 230
67.3748917 28.9009362 38.4248706 218 222 230
67.6060554 29.0143892 38.3201534 218 222 230
67.8043109 29.1661974 38.1800342 218 222 230
67.9609672 29.349706 38.0106557 218 222 230
68.069157 29.5568703 37.8194428 218 222 230
68.1153171 29.7210527 37.6679023 218 222 230
68.1308296 29.8893283 37.5125837 218 222 230
68.1308296 42.5850795 42.8009987 218 222 230
68.1308296 45.5972708 56.1594921 218 222 230
68.1308296 42.26112 41.3643001 218 222 230
66.8553731 42.5850795 42.8009987 218 222 230
67.1209536 42.5779787 42.769508 218 222 230
67.3748917 42.5569875 42.6764163 218 222 230
67.6060554 42.5230263 42.5258045 218 222 230
67.8043109 42.4775836 42.3242752 218 222 230
67.9609672 42.4226518 42.0806628 218 222 230
68.069157 42.3606387 41.8056468 218 222 230
68.1153171 42.311492 41.5876904 218 222 230
1.27545654 42.5850795 42.8009987 218 222 230
1.27545654 45.5972708 56.1594921 218 222 230
66.8553731 42.5850795 42.8009987 218 222 230
1.27545654 42.5850795 42.8009987 218 222 230
66.8553731 28.8070906 38.5114901 218 222 230
1.27545654 28.8070906 38.5114901 218 222 230
66.8553731 54.6614187 83.6341317 255 79 163
67.0718926 54.6429063 83.6156193 255 79 163
67.2821269 54.5879066 83.5606196 255 79 163
67.4799731 54.4980162 83.4707292 255 79 163
67.659688 54.3758444 83.3485574 255 79 163
67.8160548 54.2249377 83.1976507 255 79 163
67.9445344 54.0496768 83.0223898 255 79 163
68.0661446 53.786988 82.759701 255 79 163
68.1145545 53.5890667 82.5617797 255 79 163
68.1308296 53.3859621 82.3586751 255 79 163
68.1308296 53.3859621 1.27545654 255 79 163
68.0988513 53.6697779 1.27545654 255 79 163
68.0045197 53.939362 1.27545654 255 79 163
67.8525652 54.1811963 1.27545654 255 79 163
67.6506072 54.3831542 1.27545654 255 79 163
67.4087729 54.5351088 1.27545654 255 79 163
67.1391889 54.6294403 1.27545654 255 79 163
66.8553731 54.6614187 1.27545654 255 79 163
1.27545654 53.3859621 0 255 79 163
1.27545654 53.6697779 0.0319783585 255 79 163
1.27545654 53.939362 0.126309905 255 79 163
1.27545654 54.1811963 0.278264463 255 79 163
1.27545654 54.3831542 0.480222396 255 79 163
1.27545654 54.5351088 0.72205669 255 79 163
1.27545654 54.6294403 0.991640762 255 79 163
1.27545654 54.6614187 1.27545654 255 79 163
66.8553731 54.6614187 1.27545654 255 79 163
66.8553731 53.3859621 0 255 79 163
66.8553731 53.6697779 0.0319783585 255 79 163
66.8553731 53.939362 0.126309905 255 79 163
66.8553731 54.1811963 0.278264463 255 79 163
66.8553731 54.3831542 0.480222396 255 79 163
66.8553731 54.5351088 0.72205669 255 79 163
66.8553731 54.6294403 0.991640762 255 79 163
68.1308296 21.2736097 1.27545654 218 222 230
68.1308296 20.5578525 9.96107165 218 222 230
68.1308296 53.3859621 1.27545654 218 222 230
68.1308296 53.3859621 82.3586751 218 222 230
68.1308296 14.5917688 82.3586751 218 222 230
68.1308296 18.5423169 34.4193186 218 222 230
68.1308296 38.5278115 34.4193186 218 222 230
68.1308296 38.5278115 11.2365282 218 222 230
68.1308296 38.5278115 9.96107165 218 222 230
68.1308296 21.2154641 61.6573176 218 222 230
68.1308296 18.3652525 49.0171735 218 222 230
68.1308296 21.7014033 63.8123654 218 222 230
68.1308296 21.6105637 63.7722812 218 222 230
68.1308296 21.5398967 63.7176005 218 222 230
68.1308296 21.4886589 63.6556843 218 222 230
68.1308296 21.4492065 63.5854794 218 222 230
68.1308296 21.4010512 63.4454254 218 222 230
68.1308296 21.3685947 63.2630795 218 222 230
68.1308296 21.3306607 62.6235778 218 222 230
68.1308296 34.073195 67.6640819 218 222 230
68.1308296 35.1554327 66.6651754 218 222 230
68.1308296 45.2181317 57.3772946 218 222 230
68.1308296 45.5972708 56.1594921 218 222 230
68.1308296 45.6284127 56.4243103 218 222 230
68.1308296 45.6038154 56.6898164 218 222 230
68.1308296 45.5245537 56.9444064 218 222 230
68.1308296 45.3940919 57.1769536 218 222 230
68.1308296 42.5850795 42.8009987 218 222 230
68.1308296 42.26112 41.3643001 218 222 230
68.1308296 29.8893283 37.5125837 218 222 230
68.1308296 28.8070906 38.5114901 218 222 230
68.1308296 18.7443916 47.799371 218 222 230
68.1308296 18.3341106 48.7523553 218 222 230
68.1308296 18.3587079 48.4868492 218 222 230
68.1308296 18.4379696 48.2322592 218 222 230
68.1308296 18.5684314 47.999712 218 222 230
59.8451006 18.5423169 34.4193186 218 222 230
59.8451006 12.6831746 34.4193186 218 222 230
68.1308296 18.5423169 34.4193186 218 222 230
68.1308296 38.5278115 34.4193186 218 222 230
24.5828564 38.5278115 34.4193186 218 222 230
24.2990406 38.4958332 34.4193186 218 222 230
24.0294566 38.4015016 34.4193186 218 222 230
23.7876223 38.249547 34.4193186 218 222 230
23.5856643 38.0475891 34.4193186 218 222 230
23.4337098 37.8057548 34.4193186 218 222 230
23.3393782 37.5361707 34.4193186 218 222 230
23.3073999 37.252355 34.4193186 218 222 230
23.3073999 12.6831746 34.4193186 218 222 230
59.8451006 18.5423169 34.4193186 218 222 230
59.8451006 14.5917688 82.3586751 218 222 230
59.8451006 1.27545654 82.3586751 218 222 230
59.8451006 1.27545654 -2.22044605e-16 218 222 230
59.8451006 21.3787165 0 218 222 230
59.8451006 20.4527457 11.2365282 218 222 230
59.8451006 11.407718 11.2365282 218 222 230
59.8451006 10.1322615 11.2365282 218 222 230
59.8451006 10.1322615 33.143862 218 222 230
59.8451006 10.1457383 33.2584516 218 222 230
59.8451006 10.1830488 33.3676672 218 222 230
59.8451006 10.2385553 33.469059 218 222 230
59.8451006 10.3323642 33.5912164 218 222 230
59.8451006 10.5002098 33.7499453 218 222 230
59.8451006 10.7870868 33.9445307 218 222 230
59.8451006 11.2586285 34.1632111 218 222 230
59.8451006 11.8204376 34.326256 218 222 230
59.8451006 12.2493589 34.3954558 218 222 230
59.8451006 12.6831746 34.4193186 218 222 230
59.8451006 1.27545654 82.3586751 255 79 163
59.8131222 0.991640762 82.3586751 255 79 163
59.7187907 0.72205669 82.3586751 255 79 163
59.5668361 0.480222396 82.3586751 255 79 163
59.3648782 0.278264463 82.3586751 255 79 163
59.1230439 0.126309905 82.3586751 255 79 163
58.8534598 0.0319783585 82.3586751 255 79 163
58.569644 -2.22044605e-16 82.3586751 255 79 163
59.8451006 1.27545654 82.3586751 255 79 163
59.8131222 1.27545654 82.6424909 255 79 163
59.7187907 1.27545654 82.912075 255 79 163
59.5668361 1.27545654 83.1539093 255 79 163
59.3648782 1.27545654 83.3558672 255 79 163
59.1230439 1.27545654 83.5078218 255 79 163
58.8534598 1.27545654 83.6021533 255 79 163
58.569644 1.27545654 83.6341317 255 79 163
58.569644 0.0319783585 82.6424909 255 79 163
58.569644 0.126309905 82.912075 255 79 163
58.569644 0.278264463 83.1539093 255 79 163
58.569644 0.480222396 83.3558672 255 79 163
58.569644 0.72205669 83.5078218 255 79 163
58.569644 0.991640762 83.6021533 255 79 163
59.7826753 0.886171286 82.4203318 255 79 163
59.7826753 0.924277239 82.5376099 255 79 163
59.7826753 0.99675907 82.6373726 255 79 163
59.60151 0.56245466 82.5903435 255 79 163
59.7826753 1.09652175 82.7098544 255 79 163
59.60151 0.668940915 82.7993345 255 79 163
59.3193386 0.256294507 82.5200945 255 79 163
59.7826753 1.21379982 82.7479604 255 79 163
59.60151 0.834797146 82.9651907 255 79 163
59.3193386 0.356057188 82.8271325 255 79 163
59.60151 1.04378819 83.071677 255 79 163
59.3193386 0.545817084 83.0883146 255 79 163
58.9637818 0.121795262 82.7335224 255 79 163
59.3193386 0.806999174 83.2780745 255 79 163
58.9637818 0.294093642 83.071677 255 79 163
59.3193386 1.11403714 83.3778372 255 79 163
58.9637818 0.56245466 83.340038 255 79 163
58.9637818 0.900609271 83.5123364 255 79 163
1.27545654 -2.22044605e-16 1.27545654 255 79 163
58.569644 -2.22044605e-16 1.27545654 255 79 163
1.27545654 1.27545654 -2.22044605e-16 255 79 163
1.27545654 0.991640762 0.0319783585 255 79 163
1.27545654 0.72205669 0.126309905 255 79 163
1.27545654 0.480222396 0.278264463 255 79 163
1.27545654 0.278264463 0.480222396 255 79 163
1.27545654 0.126309905 0.72205669 255 79 163
1.27545654 0.0319783585 0.991640762 255 79 163
59.8451006 1.27545654 -2.22044605e-16 255 79 163
58.9812979 0.0682571072 0.863802666 255 79 163
59.3152937 0.240663862 0.529806827 255 79 163
59.5612448 0.47326122 0.283855788 255 79 163
59.7099135 0.703989123 0.13518711 255 79 163
59.8005986 0.941480002 0.04450201 255 79 163
59.8339261 1.10699233 0.011174453 255 79 163
58.569644 -2.22044605e-16 82.3586751 255 79 163
58.569644 -2.22044605e-16 1.27545654 255 79 163
58.9812979 0.0682571072 0.863802666 255 79 163
59.3152937 0.240663862 0.529806827 255 79 163
59.5612448 0.47326122 0.283855788 255 79 163
59.7099135 0.703989123 0.13518711 255 79 163
59.8005986 0.941480002 0.04450201 255 79 163
59.8339261 1.10699233 0.011174453 255 79 163
59.8451006 1.27545654 -2.22044605e-16 255 79 163
59.8451006 1.27545654 82.3586751 255 79 163
59.8131222 0.991640762 82.3586751 255 79 163
59.7187907 0.72205669 82.3586751 255 79 163
59.5668361 0.480222396 82.3586751 255 79 163
59.3648782 0.278264463 82.3586751 255 79 163
59.1230439 0.126309905 82.3586751 255 79 163
58.8534598 0.0319783585 82.3586751 255 79 163
68.1308296 21.2736097 1.27545654 218 222 230
68.1308296 20.5578525 9.96107165 218 222 230
66.8553731 21.3787165 -2.22044605e-16 218 222 230
67.1399596 21.3760667 0.0321545244 218 222 230
67.4101971 21.368251 0.126996853 218 222 230
67.6524602 21.3556635 0.279744997 218 222 230
67.8545339 21.3389387 0.48269733 218 222 230
68.0062294 21.3189201 0.725620913 218 222 230
68.0992896 21.2968393 0.99356807 218 222 230
59.8451006 21.3787165 0 218 222 230
59.8451006 20.4527457 11.2365282 218 222 230
66.8553731 20.4527457 11.2365282 218 222 230
68.0910383 20.5318033 10.2771744 218 222 230
67.974147 20.5073795 10.5735538 218 222 230
67.7874493 20.486105 10.831717 218 222 230
67.5425942 20.4693072 11.0355559 218 222 230
67.2850671 20.45889 11.1619682 218 222 230
67.0734305 20.4542931 11.2177499 218 222 230
66.8553731 21.3787165 -2.22044605e-16 255 79 163
66.8553731 53.3859621 0 255 79 163
67.1391889 53.3859621 0.0319783585 255 79 163
67.4087729 53.3859621 0.126309905 255 79 163
67.6506072 53.3859621 0.278264463 255 79 163
67.8525652 53.3859621 0.480222396 255 79 163
68.0045197 53.3859621 0.72205669 255 79 163
68.0988513 53.3859621 0.991640762 255 79 163
68.1308296 53.3859621 1.27545654 255 79 163
68.1308296 21.2736097 1.27545654 255 79 163
67.1399596 21.3760667 0.0321545244 255 79 163
67.4101971 21.368251 0.126996853 255 79 163
67.6524602 21.3556635 0.279744997 255 79 163
67.8545339 21.3389387 0.48269733 255 79 163
68.0062294 21.3189201 0.725620913 255 79 163
68.0992896 21.2968393 0.99356807 255 79 163
68.1308296 21.2154641 61.6573176 218 222 230
68.1308296 21.2154641 61.6573176 218 222 230
68.1308296 21.7014033 63.8123654 218 222 230
68.1308296 21.6105637 63.7722812 218 222 230
68.1308296 21.5398967 63.7176005 218 222 230
68.1308296 21.4886589 63.6556843 218 222 230
68.1308296 21.4492065 63.5854794 218 222 230
68.1308296 21.4010512 63.4454254 218 222 230
68.1308296 21.3685947 63.2630795 218 222 230
68.1308296 21.3306607 62.6235778 218 222 230
68.0910391 21.7953663 63.5105545 218 222 230
67.9741503 21.8834665 63.2275748 218 222 230
67.7874561 21.960207 62.9810827 218 222 230
67.5426056 22.0207998 62.7864576 218 222 230
67.2548757 22.061464 62.6558433 218 222 230
67.0576857 22.0757424 62.6099807 218 222 230
66.8553731 22.0805424 62.5945629 218 222 230
67.2380101 21.7227772 62.417799 218 222 230
67.620647 21.4371452 62.139131 218 222 230
67.8757383 21.3009843 61.9098741 218 222 230
68.0980245 21.5702858 63.3954101 218 222 230
68.0106862 21.6578456 63.1626153 218 222 230
67.8785837 21.736801 62.9567729 218 222 230
67.7069056 21.8044467 62.7864086 218 222 230
67.5001004 21.8592984 62.6564702 218 222 230
67.2649788 21.9001489 62.5706725 218 222 230
67.8616016 21.6379485 62.7659772 218 222 230
67.5638321 21.7574593 62.5910591 218 222 230
67.8588021 21.5997839 62.6727578 218 222 230
67.8067401 21.5006937 62.3349949 218 222 230
67.9114482 21.5008763 62.4940678 218 222 230
67.9701212 21.4108375 62.284896 218 222 230
68.0097134 21.3571598 62.1374839 218 222 230
68.0555728 21.4549811 62.8183426 218 222 230
68.0713497 21.3984374 62.5713667 218 222 230
68.0806641 21.3717854 62.4355376 218 222 230
68.0870301 21.3545365 62.3440107 218 222 230
68.1171083 21.3469985 62.4744924 218 222 230
66.8553731 28.8070906 38.5114901 255 79 163
67.1209536 28.830812 38.4895953 255 79 163
67.3748917 28.9009362 38.4248706 255 79 163
67.6060554 29.0143892 38.3201534 255 79 163
67.8043109 29.1661974 38.1800342 255 79 163
67.9609672 29.349706 38.0106557 255 79 163
68.069157 29.5568703 37.8194428 255 79 163
68.1153171 29.7210527 37.6679023 255 79 163
68.1308296 29.8893283 37.5125837 255 79 163
68.1308296 42.26112 41.3643001 255 79 163
66.8553731 42.5850795 42.8009987 255 79 163
67.1209536 42.5779787 42.769508 255 79 163
67.3748917 42.5569875 42.6764163 255 79 163
67.6060554 42.5230263 42.5258045 255 79 163
67.8043109 42.4775836 42.3242752 255 79 163
67.9609672 42.4226518 42.0806628 255 79 163
68.069157 42.3606387 41.8056468 255 79 163
68.1153171 42.311492 41.5876904 255 79 163
66.8553731 53.3859621 0 255 79 163
67.1391889 53.3859621 0.0319783585 255 79 163
67.4087729 53.3859621 0.126309905 255 79 163
67.6506072 53.3859621 0.278264463 255 79 163
67.8525652 53.3859621 0.480222396 255 79 163
68.0045197 53.3859621 0.72205669 255 79 163
68.0988513 53.3859621 0.991640762 255 79 163
68.1308296 53.3859621 1.27545654 255 79 163
66.8553731 53.3859621 0 255 79 163
66.8553731 53.6697779 0.0319783585 255 79 163
66.8553731 53.939362 0.126309905 255 79 163
66.8553731 54.1811963 0.278264463 255 79 163
66.8553731 54.3831542 0.480222396 255 79 163
66.8553731 54.5351088 0.72205669 255 79 163
66.8553731 54.6294403 0.991640762 255 79 163
66.8553731 54.6614187 1.27545654 255 79 163
68.0988513 53.6697779 1.27545654 255 79 163
68.0045197 53.939362 1.27545654 255 79 163
67.8525652 54.1811963 1.27545654 255 79 163
67.6506072 54.3831542 1.27545654 255 79 163
67.4087729 54.5351088 1.27545654 255 79 163
67.1391889 54.6294403 1.27545654 255 79 163
67.2446583 53.4476189 0.0624252866 255 79 163
67.2065524 53.5648969 0.0624252866 255 79 163
67.1340706 53.6646596 0.0624252866 255 79 163
67.568375 53.6176305 0.243590524 255 79 163
67.0343079 53.7371414 0.0624252866 255 79 163
67.4618887 53.8266215 0.243590524 255 79 163
67.8745351 53.5473815 0.525761997 255 79 163
66.9170298 53.7752474 0.0624252866 255 79 163
67.2960325 53.9924778 0.243590524 255 79 163
67.7747724 53.8544195 0.525761997 255 79 163
67.0870414 54.098964 0.243590524 255 79 163
67.5850126 54.1156016 0.525761997 255 79 163
68.0090344 53.7608094 0.881318796 255 79 163
67.3238305 54.3053615 0.525761997 255 79 163
67.836736 54.098964 0.881318796 255 79 163
67.0167925 54.4051242 0.525761997 255 79 163
67.568375 54.367325 0.881318796 255 79 163
67.2302204 54.5396234 0.881318796 255 79 163
68.1308296 20.5578525 9.96107165 255 79 163
68.1308296 38.5278115 9.96107165 255 79 163
68.0988513 38.5278115 10.2448874 255 79 163
68.0045197 38.5278115 10.5144715 255 79 163
67.8525652 38.5278115 10.7563058 255 79 163
67.6506072 38.5278115 10.9582637 255 79 163
67.4087729 38.5278115 11.1102183 255 79 163
67.1391889 38.5278115 11.2045498 255 79 163
66.8553731 38.5278115 11.2365282 255 79 163
66.8553731 20.4527457 11.2365282 255 79 163
68.0910383 20.5318033 10.2771744 255 79 163
67.974147 20.5073795 10.5735538 255 79 163
67.7874493 20.486105 10.831717 255 79 163
67.5425942 20.4693072 11.0355559 255 79 163
67.2850671 20.45889 11.1619682 255 79 163
67.0734305 20.4542931 11.2177499 255 79 163
66.8553731 38.5278115 11.2365282 218 222 230
24.5828564 38.5278115 11.2365282 218 222 230
24.5828564 38.5278115 34.4193186 218 222 230
68.1308296 38.5278115 34.4193186 218 222 230
68.1308296 38.5278115 11.2365282 218 222 230
68.1308296 38.5278115 9.96107165 218 222 230
68.0988513 38.5278115 10.2448874 218 222 230
68.0045197 38.5278115 10.5144715 218 222 230
67.8525652 38.5278115 10.7563058 218 222 230
67.6506072 38.5278115 10.9582637 218 222 230
67.4087729 38.5278115 11.1102183 218 222 230
67.1391889 38.5278115 11.2045498 218 222 230
59.8451006 12.6831746 34.4193186 255 79 163
23.3073999 12.6831746 34.4193186 255 79 163
23.3259122 12.4666551 34.4008062 255 79 163
23.3809119 12.2564208 34.3458065 255 79 163
23.4708023 12.0585746 34.2559161 255 79 163
23.5929741 11.8788597 34.1337443 255 79 163
23.7438808 11.7224929 33.9828376 255 79 163
23.9191418 11.5940133 33.8075767 255 79 163
24.1818305 11.4724031 33.5448879 255 79 163
24.3797518 11.4239931 33.3469666 255 79 163
24.5828564 11.407718 33.143862 255 79 163
58.569644 11.407718 33.143862 255 79 163
58.7730005 11.4475094 33.4599648 255 79 163
58.9763569 11.5644011 33.7563449 255 79 163
59.1797134 11.7510982 34.0145072 255 79 163
59.3830698 11.9959533 34.2183467 255 79 163
59.5864263 12.2836881 34.355142 255 79 163
59.7157634 12.48087 34.4031729 255 79 163
23.3073999 12.6831746 11.2365282 218 222 230
23.3073999 37.252355 11.2365282 218 222 230
23.3073999 37.252355 34.4193186 218 222 230
23.3073999 12.6831746 34.4193186 218 222 230
24.5828564 38.5278115 11.2365282 218 222 230
24.2990406 38.4958332 11.2365282 218 222 230
24.0294566 38.4015016 11.2365282 218 222 230
23.7876223 38.249547 11.2365282 218 222 230
23.5856643 38.0475891 11.2365282 218 222 230
23.4337098 37.8057548 11.2365282 218 222 230
23.3393782 37.5361707 11.2365282 218 222 230
23.3073999 37.252355 11.2365282 218 222 230
23.3073999 37.252355 34.4193186 218 222 230
24.5828564 38.5278115 34.4193186 218 222 230
24.2990406 38.4958332 34.4193186 218 222 230
24.0294566 38.4015016 34.4193186 218 222 230
23.7876223 38.249547 34.4193186 218 222 230
23.5856643 38.0475891 34.4193186 218 222 230
23.4337098 37.8057548 34.4193186 218 222 230
23.3393782 37.5361707 34.4193186 218 222 230
59.8451006 12.6831746 34.4193186 255 79 163
59.8451006 12.6831746 34.4193186 255 79 163
59.8451006 10.1322615 33.143862 255 79 163
59.8451006 10.1457383 33.2584516 255 79 163
59.8451006 10.1830488 33.3676672 255 79 163
59.8451006 10.2385553 33.469059 255 79 163
59.8451006 10.3323642 33.5912164 255 79 163
59.8451006 10.5002098 33.7499453 255 79 163
59.8451006 10.7870868 33.9445307 255 79 163
59.8451006 11.2586285 34.1632111 255 79 163
59.8451006 11.8204376 34.326256 255 79 163
59.8451006 12.2493589 34.3954558 255 79 163
59.80531 10.4483609 33.143862 255 79 163
59.6884212 10.7447377 33.143862 255 79 163
59.5017271 11.0028994 33.143862 255 79 163
59.2568766 11.2067385 33.143862 255 79 163
58.9691466 11.3435365 33.143862 255 79 163
58.7719566 11.3915703 33.143862 255 79 163
58.569644 11.407718 33.143862 255 79 163
58.7730005 11.4475094 33.4599648 255 79 163
58.9763569 11.5644011 33.7563449 255 79 163
59.1797134 11.7510982 34.0145072 255 79 163
59.3830698 11.9959533 34.2183467 255 79 163
59.5864263 12.2836881 34.355142 255 79 163
59.7157634 12.48087 34.4031729 255 79 163
59.8139052 10.7414261 33.7496461 255 79 163
59.7360187 10.9462148 33.7290846 255 79 163
59.6233986 11.1275906 33.7077981 255 79 163
59.4795033 11.2779238 33.6865863 255 79 163
59.3052892 11.3926825 33.666462 255 79 163
59.8227011 11.3238287 34.1250462 255 79 163
59.1041707 11.4692136 33.6482247 255 79 163
59.7691905 11.4482631 34.1118748 255 79 163
59.6944096 11.5593872 34.0966847 255 79 163
59.6001623 11.6514494 34.0808808 255 79 163
59.485611 11.7199328 34.0665901 255 79 163
59.3517697 11.7627586 34.0552172 255 79 163
59.7860027 11.697036 34.2287499 255 79 163
59.7194265 11.962532 34.2779374 255 79 163
59.7509244 12.1347599 34.3383139 255 79 163
59.778766 12.2925652 34.3784031 255 79 163
59.7983745 12.4065681 34.398814 255 79 163
59.8094342 11.8933134 34.3054474 255 79 163
59.8144004 11.9944651 34.3330403 255 79 163
59.8227871 12.1778403 34.3729382 255 79 163
59.8266833 12.2706425 34.3883465 255 79 163
59.8293524 12.3371094 34.3974595 255 79 163
59.8352417 11.8564157 34.3163269 255 79 163
59.8359739 11.9113352 34.3295944 255 79 163
59.8372307 12.0099558 34.3510481 255 79 163
59.8394784 12.209153 34.3853294 255 79 163
59.8399813 12.2592891 34.3920852 255 79 163
59.8403284 12.2950811 34.3964518 255 79 163
59.8436664 12.2280645 34.3906069 255 79 163
59.843774 12.2726354 34.3959073 255 79 163
59.8451006 10.1322615 11.2365282 255 79 163
59.8131222 10.4160773 11.2365282 255 79 163
59.7187907 10.6856613 11.2365282 255 79 163
59.5668361 10.9274956 11.2365282 255 79 163
59.3648782 11.1294536 11.2365282 255 79 163
59.1230439 11.2814081 11.2365282 255 79 163
58.8534598 11.3757397 11.2365282 255 79 163
58.569644 11.407718 11.2365282 255 79 163
58.569644 11.407718 33.143862 255 79 163
59.8451006 10.1322615 33.143862 255 79 163
59.80531 10.4483609 33.143862 255 79 163
59.6884212 10.7447377 33.143862 255 79 163
59.5017271 11.0028994 33.143862 255 79 163
59.2568766 11.2067385 33.143862 255 79 163
58.9691466 11.3435365 33.143862 255 79 163
58.7719566 11.3915703 33.143862 255 79 163
66.8553731 20.4527457 11.2365282 218 222 230
59.8451006 20.4527457 11.2365282 218 222 230
59.8451006 11.407718 11.2365282 218 222 230
59.8451006 10.1322615 11.2365282 218 222 230
59.8131222 10.4160773 11.2365282 218 222 230
59.7187907 10.6856613 11.2365282 218 222 230
59.5668361 10.9274956 11.2365282 218 222 230
59.3648782 11.1294536 11.2365282 218 222 230
59.1230439 11.2814081 11.2365282 218 222 230
58.8534598 11.3757397 11.2365282 218 222 230
58.569644 11.407718 11.2365282 218 222 230
24.5828564 11.407718 11.2365282 218 222 230
24.2990406 11.4396964 11.2365282 218 222 230
24.0294566 11.5340279 11.2365282 218 222 230
23.7876223 11.6859825 11.2365282 218 222 230
23.5856643 11.8879404 11.2365282 218 222 230
23.4337098 12.1297747 11.2365282 218 222 230
23.3393782 12.3993588 11.2365282 218 222 230
23.3073999 12.6831746 11.2365282 218 222 230
23.3073999 37.252355 11.2365282 218 222 230
24.5828564 38.5278115 11.2365282 218 222 230
24.2990406 38.4958332 11.2365282 218 222 230
24.0294566 38.4015016 11.2365282 218 222 230
23.7876223 38.249547 11.2365282 218 222 230
23.5856643 38.0475891 11.2365282 218 222 230
23.4337098 37.8057548 11.2365282 218 222 230
23.3393782 37.5361707 11.2365282 218 222 230
66.8553731 38.5278115 11.2365282 218 222 230
58.569644 11.407718 11.2365282 218 222 230
24.5828564 11.407718 11.2365282 218 222 230
58.569644 11.407718 33.143862 218 222 230
24.5828564 11.407718 33.143862 218 222 230
23.3073999 12.6831746 34.4193186 255 79 163
23.3259122 12.4666551 34.4008062 255 79 163
23.3809119 12.2564208 34.3458065 255 79 163
23.4708023 12.0585746 34.2559161 255 79 163
23.5929741 11.8788597 34.1337443 255 79 163
23.7438808 11.7224929 33.9828376 255 79 163
23.9191418 11.5940133 33.8075767 255 79 163
24.1818305 11.4724031 33.5448879 255 79 163
24.3797518 11.4239931 33.3469666 255 79 163
24.5828564 11.407718 33.143862 255 79 163
23.3073999 12.6831746 11.2365282 255 79 163
24.5828564 11.407718 11.2365282 255 79 163
24.2990406 11.4396964 11.2365282 255 79 163
24.0294566 11.5340279 11.2365282 255 79 163
23.7876223 11.6859825 11.2365282 255 79 163
23.5856643 11.8879404 11.2365282 255 79 163
23.4337098 12.1297747 11.2365282 255 79 163
23.3393782 12.3993588 11.2365282 255 79 163
3 14 3 2
3 14 13 3
3 12 3 13
3 11 3 12
3 15 14 2
3 16 15 2
3 1 8 7
3 1 9 8
3 1 10 9
3 1 11 10
3 1 3 11
3 17 16 2
3 6 1 7
3 18 17 2
3 4 1 6
3 27 5 28
3 0 4 5
3 0 20 19
3 0 21 20
3 0 22 21
3 0 23 22
3 0 24 23
3 0 25 24
3 0 26 25
3 0 27 26
3 0 5 27
3 0 1 4
3 0 19 2
3 19 18 2
3 33 32 31
3 34 33 31
3 36 35 34
3 37 36 34
3 29 34 31
3 29 37 34
3 40 31 38
3 40 38 39
3 40 29 31
3 30 40 41
3 30 41 42
3 30 29 40
3 57 43 44
3 57 58 43
3 56 44 45
3 56 57 44
3 55 45 46
3 55 56 45
3 54 46 47
3 54 55 46
3 53 47 48
3 53 54 47
3 52 48 49
3 52 53 48
3 51 49 50
3 51 52 49
3 65 66 67
3 65 74 73
3 65 67 74
3 64 73 72
3 64 65 73
3 63 72 71
3 63 64 72
3 62 71 70
3 62 63 71
3 61 70 69
3 61 62 70
3 60 69 68
3 60 61 69
3 59 60 68
3 78 77 84
3 78 84 90
3 79 90 89
3 79 78 90
3 80 89 88
3 80 79 89
3 81 88 87
3 81 80 88
3 82 87 86
3 82 81 87
3 83 86 85
3 83 82 86
3 76 85 75
3 76 83 85
3 91 96 97
3 91 97 98
3 91 98 99
3 100 91 99
3 101 91 100
3 102 91 101
3 95 91 102
3 92 91 95
3 93 95 94
3 93 92 95
3 113 105 106
3 123 106 107
3 123 107 108
3 123 108 109
3 123 109 110
3 123 113 106
3 124 114 113
3 124 113 123
3 125 110 111
3 125 123 110
3 126 115 114
3 126 114 124
3 127 124 123
3 127 123 125
3 128 116 115
3 128 115 126
3 129 126 124
3 129 124 127
3 130 117 116
3 130 116 128
3 131 128 126
3 131 126 129
3 132 118 117
3 132 119 118
3 132 120 119
3 132 117 130
3 133 111 112
3 133 125 111
3 134 130 128
3 134 128 131
3 135 127 125
3 135 125 133
3 136 120 132
3 136 132 130
3 136 130 134
3 137 127 135
3 137 129 127
3 138 131 129
3 138 129 137
3 139 134 131
3 139 131 138
3 140 141 104
3 142 121 120
3 142 120 136
3 142 136 134
3 142 139 121
3 142 134 139
3 143 140 104
3 144 104 103
3 144 137 143
3 144 138 137
3 144 143 104
3 145 138 144
3 145 103 122
3 145 121 139
3 145 139 138
3 145 144 103
3 146 145 122
3 146 122 121
3 146 121 145
3 147 112 104
3 147 104 141
3 148 147 141
3 148 137 135
3 148 141 140
3 148 133 112
3 148 135 133
3 148 143 137
3 148 112 147
3 148 140 143
3 159 150 149
3 159 149 151
3 160 151 152
3 160 159 151
3 161 152 153
3 161 160 152
3 162 153 154
3 162 161 153
3 163 154 155
3 163 162 154
3 164 155 156
3 164 163 155
3 158 156 157
3 158 164 156
3 174 165 166
3 175 166 167
3 175 174 166
3 176 167 168
3 176 175 167
3 177 168 169
3 177 176 168
3 178 169 170
3 178 177 169
3 179 170 171
3 179 178 170
3 180 171 172
3 180 179 171
3 173 180 172
3 194 192 193
3 205 182 181
3 205 181 189
3 206 183 182
3 206 182 205
3 207 189 190
3 207 205 189
3 208 184 183
3 208 183 206
3 209 205 207
3 209 206 205
3 210 190 191
3 210 207 190
3 211 185 184
3 211 184 208
3 212 208 206
3 212 206 209
3 213 207 210
3 213 209 207
3 214 186 185
3 214 185 211
3 215 191 192
3 215 192 194
3 215 210 191
3 216 208 212
3 216 211 208
3 217 209 213
3 217 212 209
3 218 187 186
3 218 188 187
3 218 201 188
3 218 202 201
3 218 186 214
3 219 194 195
3 219 213 210
3 219 215 194
3 219 210 215
3 220 214 211
3 220 211 216
3 221 216 212
3 221 212 217
3 222 195 196
3 222 196 197
3 222 219 195
3 222 213 219
3 222 217 213
3 223 202 218
3 223 218 214
3 223 214 220
3 224 216 221
3 224 220 216
3 225 222 197
3 225 221 217
3 225 217 222
3 226 223 220
3 226 203 202
3 226 204 203
3 226 202 223
3 226 220 224
3 227 224 221
3 227 197 198
3 227 198 199
3 227 221 225
3 227 225 197
3 228 224 227
3 228 204 226
3 228 226 224
3 228 227 199
3 228 199 200
3 228 200 204
3 242 240 241
3 253 230 229
3 253 229 237
3 254 231 230
3 254 230 253
3 255 237 238
3 255 253 237
3 256 232 231
3 256 231 254
3 257 253 255
3 257 254 253
3 258 238 239
3 258 255 238
3 259 233 232
3 259 232 256
3 260 256 254
3 260 254 257
3 261 255 258
3 261 257 255
3 262 234 233
3 262 233 259
3 263 239 240
3 263 240 242
3 263 258 239
3 264 256 260
3 264 259 256
3 265 257 261
3 265 260 257
3 266 235 234
3 266 236 235
3 266 249 236
3 266 250 249
3 266 234 262
3 267 242 243
3 267 261 258
3 267 263 242
3 267 258 263
3 268 262 259
3 268 259 264
3 269 264 260
3 269 260 265
3 269 268 264
3 270 243 244
3 270 267 243
3 270 261 267
3 270 265 261
3 271 250 266
3 271 266 262
3 271 262 268
3 272 268 269
3 273 244 245
3 273 270 244
3 273 269 265
3 273 265 270
3 274 271 268
3 274 251 250
3 274 252 251
3 274 268 272
3 274 250 271
3 275 272 269
3 275 274 272
3 275 245 246
3 275 269 273
3 275 273 245
3 276 274 275
3 276 252 274
3 276 275 246
3 276 246 247
3 276 247 248
3 276 248 252
3 286 277 278
3 287 278 279
3 287 286 278
3 288 279 280
3 288 287 279
3 289 280 281
3 289 288 280
3 290 281 282
3 290 289 281
3 291 282 283
3 291 290 282
3 292 283 284
3 292 291 283
3 285 292 284
3 303 293 294
3 303 302 293
3 304 294 295
3 304 303 294
3 305 295 296
3 305 304 295
3 306 296 297
3 306 305 296
3 307 297 298
3 307 306 297
3 308 298 299
3 308 307 298
3 301 299 300
3 301 308 299
3 318 309 310
3 319 318 310
3 320 310 311
3 320 311 312
3 320 319 310
3 321 312 313
3 321 320 312
3 322 321 313
3 323 313 314
3 323 322 313
3 324 314 315
3 324 323 314
3 317 315 316
3 317 324 315
3 326 327 328
3 326 328 325
3 339 329 330
3 339 338 329
3 340 330 331
3 340 339 330
3 341 331 332
3 341 340 331
3 342 341 332
3 343 332 333
3 343 342 332
3 344 333 334
3 344 343 333
3 345 334 335
3 345 344 334
3 346 335 336
3 346 345 335
3 337 346 336
3 358 351 352
3 358 352 353
3 358 353 354
3 358 354 355
3 358 355 356
3 358 356 357
3 348 349 347
3 348 350 349
3 359 357 350
3 359 350 348
3 359 358 357
3 365 359 348
3 364 359 365
3 361 360 359
3 363 359 364
3 362 361 359
3 362 359 363
3 374 375 381
3 373 381 380
3 373 374 381
3 372 380 379
3 372 373 380
3 371 379 378
3 371 372 379
3 370 378 377
3 370 371 378
3 369 377 376
3 369 370 377
3 368 376 366
3 368 369 376
3 367 368 366
3 384 391 397
3 385 397 396
3 385 384 397
3 386 396 395
3 386 385 396
3 387 395 394
3 387 386 395
3 388 394 393
3 388 387 394
3 389 393 392
3 389 388 393
3 390 392 382
3 390 389 392
3 383 390 382
3 404 405 412
3 398 399 419
3 420 408 407
3 421 407 406
3 421 420 407
3 422 406 413
3 422 421 406
3 423 409 408
3 423 420 421
3 423 408 420
3 424 413 414
3 424 422 413
3 425 421 422
3 425 423 421
3 426 410 409
3 426 411 410
3 426 409 423
3 427 414 415
3 427 424 414
3 428 425 422
3 428 422 424
3 429 423 425
3 429 426 423
3 430 415 416
3 430 428 424
3 430 427 415
3 430 424 427
3 431 425 428
3 431 429 425
3 432 403 404
3 432 412 411
3 432 411 426
3 432 426 429
3 432 404 412
3 433 428 430
3 433 431 428
3 434 402 403
3 434 403 432
3 434 429 431
3 434 432 429
3 435 416 417
3 435 417 418
3 435 430 416
3 435 433 430
3 436 400 401
3 436 401 402
3 436 402 434
3 436 431 433
3 436 434 431
3 437 399 400
3 437 418 419
3 437 419 399
3 437 400 436
3 437 435 418
3 437 433 435
3 437 436 433
3 441 438 439
3 441 440 438
3 448 449 456
3 442 443 463
3 464 452 451
3 465 451 450
3 465 464 451
3 466 450 457
3 466 465 450
3 467 453 452
3 467 464 465
3 467 452 464
3 468 457 458
3 468 466 457
3 469 465 466
3 469 467 465
3 470 454 453
3 470 455 454
3 470 453 467
3 471 458 459
3 471 468 458
3 472 469 466
3 472 466 468
3 473 467 469
3 473 470 467
3 474 459 460
3 474 472 468
3 474 471 459
3 474 468 471
3 475 469 472
3 475 473 469
3 476 447 448
3 476 456 455
3 476 455 470
3 476 470 473
3 476 448 456
3 477 472 474
3 477 475 472
3 478 446 447
3 478 447 476
3 478 473 475
3 478 476 473
3 479 460 461
3 479 461 462
3 479 474 460
3 479 477 474
3 480 444 445
3 480 445 446
3 480 446 478
3 480 475 477
3 480 478 475
3 481 443 444
3 481 462 463
3 481 463 443
3 481 444 480
3 481 479 462
3 481 477 479
3 481 480 477
3 483 486 485
3 483 487 486
3 484 482 483
3 484 483 485
3 494 491 492
3 495 490 491
3 495 491 494
3 496 489 490
3 496 490 495
3 497 488 489
3 497 489 496
3 493 488 497
3 513 498 499
3 513 514 498
3 512 499 500
3 512 513 499
3 511 500 501
3 511 512 500
3 510 501 502
3 510 502 503
3 510 511 501
3 509 503 504
3 509 510 503
3 508 504 505
3 508 509 504
3 507 505 506
3 507 508 505
3 519 517 515
3 519 518 517
3 516 520 519
3 516 521 520
3 516 522 521
3 516 519 515
3 523 522 516
3 524 523 516
3 525 524 516
3 526 525 516
3 527 526 516
3 529 530 528
3 529 531 530
3 535 539 534
3 535 543 539
3 536 542 543
3 536 543 535
3 537 541 542
3 537 542 536
3 538 540 541
3 538 541 537
3 533 532 540
3 533 540 538
3 547 551 546
3 547 555 551
3 548 554 555
3 548 555 547
3 549 553 554
3 549 554 548
3 550 552 553
3 550 553 549
3 545 544 552
3 545 552 550
3 560 558 556
3 560 559 558
3 557 561 560
3 557 562 561
3 557 563 562
3 557 560 556
3 564 563 557
3 565 564 557
3 566 565 557
3 567 566 557
3 568 567 557
3 572 581 580
3 569 572 573
3 569 573 574
3 569 574 575
3 569 575 576
3 569 576 577
3 569 577 578
3 569 578 579
3 569 579 571
3 570 581 572
3 570 572 569
3 582 585 584
3 582 583 585
3 594 595 596
3 594 596 597
3 593 597 598
3 593 594 597
3 592 598 599
3 592 593 598
3 591 599 600
3 591 592 599
3 590 591 600
3 589 600 601
3 589 590 600
3 588 601 602
3 588 589 601
3 587 602 603
3 587 588 602
3 586 587 603
3 614 604 605
3 614 613 604
3 615 605 606
3 615 614 605
3 616 606 607
3 616 615 606
3 617 607 608
3 617 608 609
3 617 616 607
3 618 617 609
3 619 609 610
3 619 618 609
3 612 610 611
3 612 619 610
3 627 628 622
3 620 622 628
3 621 620 628
3 626 627 622
3 648 626 622
3 647 648 622
3 649 626 648
3 642 647 622
3 625 649 650
3 623 643 642
3 623 644 643
3 623 645 644
3 623 646 645
3 623 641 646
3 623 642 622
3 651 625 650
3 655 625 651
3 654 625 655
3 653 625 654
3 640 641 623
3 639 640 623
3 637 629 638
3 624 630 629
3 624 632 631
3 624 633 632
3 624 634 633
3 624 635 634
3 624 636 635
3 624 637 636
3 624 631 639
3 624 639 623
3 624 629 637
3 624 625 652
3 652 625 653
3 624 652 630
3 625 626 649
3 662 664 663
3 666 665 664
3 660 662 661
3 667 666 664
3 667 664 662
3 667 662 660
3 668 667 660
3 656 660 659
3 656 668 660
3 657 668 656
3 658 656 659
3 675 672 673
3 675 673 674
3 676 672 675
3 677 672 676
3 670 685 686
3 670 686 687
3 670 687 669
3 671 679 680
3 671 680 681
3 671 681 682
3 671 682 683
3 671 683 684
3 671 684 685
3 671 685 670
3 671 672 677
3 671 677 678
3 671 678 679
3 704 695 694
3 703 709 702
3 710 690 689
3 711 689 688
3 711 710 689
3 712 688 696
3 712 711 688
3 713 691 690
3 713 690 710
3 713 710 711
3 714 696 697
3 714 712 696
3 715 711 712
3 715 713 711
3 716 692 691
3 716 693 692
3 716 691 713
3 717 697 698
3 717 714 697
3 718 715 712
3 718 712 714
3 719 713 715
3 719 716 713
3 720 698 699
3 720 714 717
3 720 717 698
3 720 718 714
3 721 715 718
3 721 719 715
3 722 694 693
3 722 705 704
3 722 693 716
3 722 716 719
3 722 704 694
3 723 718 720
3 723 721 718
3 724 706 705
3 724 707 706
3 724 705 722
3 724 719 721
3 724 722 719
3 725 699 700
3 725 700 701
3 725 720 699
3 725 723 720
3 726 708 707
3 726 707 724
3 726 721 723
3 726 724 721
3 727 701 702
3 727 709 708
3 727 708 726
3 727 702 709
3 727 725 701
3 727 723 725
3 727 726 723
3 729 728 736
3 738 736 735
3 738 729 736
3 739 735 734
3 739 738 735
3 740 734 733
3 740 739 734
3 741 733 732
3 741 740 733
3 742 732 731
3 742 741 732
3 743 731 730
3 743 742 731
3 737 743 730
3 751 752 753
3 751 753 754
3 750 754 755
3 750 751 754
3 749 755 756
3 749 750 755
3 748 756 757
3 748 749 756
3 747 757 758
3 747 748 757
3 746 758 759
3 746 747 758
3 745 759 744
3 745 746 759
3 764 762 763
3 765 762 764
3 766 762 765
3 767 762 766
3 768 762 767
3 760 769 762
3 760 762 768
3 761 770 769
3 761 769 760
3 771 770 761
3 772 771 761
3 776 777 771
3 773 771 772
3 775 776 771
3 774 771 773
3 774 775 771
3 786 787 793
3 785 793 792
3 785 786 793
3 784 792 791
3 784 785 792
3 783 791 790
3 783 784 791
3 782 790 789
3 782 783 790
3 781 789 788
3 781 782 789
3 780 788 778
3 780 781 788
3 779 780 778
3 804 796 797
3 814 797 798
3 814 798 799
3 814 799 800
3 814 800 801
3 814 804 797
3 815 805 804
3 815 814 801
3 815 804 814
3 816 806 805
3 816 805 815
3 817 807 806
3 817 806 816
3 818 808 807
3 818 807 817
3 819 809 808
3 819 810 809
3 819 811 810
3 819 808 818
3 820 817 816
3 820 816 815
3 821 819 818
3 821 817 820
3 821 822 811
3 821 818 817
3 821 820 822
3 821 811 819
3 823 812 811
3 823 811 822
3 823 822 824
3 825 812 823
3 825 823 824
3 826 795 794
3 826 813 812
3 826 794 813
3 826 812 825
3 827 801 802
3 827 802 803
3 827 822 820
3 827 815 801
3 827 820 815
3 827 824 822
3 828 827 803
3 828 825 824
3 828 824 827
3 829 825 828
3 830 795 826
3 830 826 825
3 830 825 829
3 831 803 795
3 831 828 803
3 831 795 830
3 831 829 828
3 831 830 829
3 842 832 833
3 843 833 834
3 843 842 833
3 844 834 835
3 844 843 834
3 845 835 836
3 845 844 835
3 846 836 837
3 846 845 836
3 847 837 838
3 847 846 837
3 848 838 839
3 848 847 838
3 849 839 840
3 849 848 839
3 841 849 840
3 866 857 856
3 865 871 864
3 872 852 851
3 873 851 850
3 873 872 851
3 874 850 858
3 874 873 850
3 875 853 852
3 875 852 872
3 875 872 873
3 876 858 859
3 876 874 858
3 877 873 874
3 877 875 873
3 878 854 853
3 878 855 854
3 878 853 875
3 879 859 860
3 879 876 859
3 880 877 874
3 880 874 876
3 881 875 877
3 881 878 875
3 882 860 861
3 882 876 879
3 882 879 860
3 882 880 876
3 883 877 880
3 883 881 877
3 884 856 855
3 884 867 866
3 884 855 878
3 884 878 881
3 884 866 856
3 885 880 882
3 885 883 880
3 886 868 867
3 886 869 868
3 886 867 884
3 886 881 883
3 886 884 881
3 887 861 862
3 887 862 863
3 887 882 861
3 887 885 882
3 888 870 869
3 888 869 886
3 888 883 885
3 888 886 883
3 889 863 864
3 889 871 870
3 889 870 888
3 889 864 871
3 889 887 863
3 889 885 887
3 889 888 885
3 898 899 905
3 897 905 904
3 897 898 905
3 896 904 903
3 896 897 904
3 895 903 902
3 895 896 903
3 894 902 901
3 894 895 902
3 893 901 900
3 893 894 901
3 892 900 890
3 892 893 900
3 891 892 890
3 906 908 907
3 910 912 911
3 910 913 912
3 910 914 913
3 910 915 914
3 910 916 915
3 910 917 916
3 910 906 917
3 909 908 906
3 909 906 910
3 927 929 928
3 927 930 929
3 926 931 930
3 926 930 927
3 925 932 931
3 925 931 926
3 924 932 925
3 923 933 932
3 923 932 924
3 922 934 933
3 922 933 923
3 921 934 922
3 920 935 934
3 920 934 921
3 919 918 935
3 919 935 920
3 939 936 937
3 939 937 938
3 949 941 940
3 950 941 949
3 951 942 941
3 951 941 950
3 952 943 942
3 952 942 951
3 953 944 943
3 953 945 944
3 953 943 952
3 954 945 953
3 955 946 945
3 955 945 954
3 948 947 946
3 948 946 955
3 968 959 958
3 960 959 968
3 969 961 960
3 969 960 968
3 975 971 972
3 975 972 973
3 975 973 974
3 981 963 962
3 981 964 963
3 982 962 961
3 982 981 962
3 982 961 969
3 982 964 981
3 983 969 970
3 983 982 969
3 984 970 971
3 984 983 970
3 985 971 975
3 985 984 971
3 986 965 964
3 987 975 976
3 987 976 985
3 987 985 975
3 988 986 964
3 988 964 982
3 989 982 983
3 989 988 982
3 990 989 983
3 990 983 984
3 991 985 976
3 991 984 985
3 991 990 984
3 992 976 977
3 992 977 978
3 992 991 976
3 992 978 991
3 993 989 990
3 993 988 989
3 993 965 986
3 993 986 988
3 994 991 978
3 994 990 991
3 994 993 990
3 995 978 979
3 995 994 978
3 996 979 980
3 996 995 979
3 997 956 957
3 997 980 956
3 997 996 980
3 998 993 994
3 999 994 995
3 999 998 994
3 1000 999 995
3 1000 995 996
3 1001 1000 996
3 1001 996 997
3 1002 1001 997
3 1002 997 957
3 1003 966 965
3 1003 993 998
3 1003 965 993
3 1004 1003 998
3 1004 998 999
3 1004 966 1003
3 1005 966 1004
3 1005 1004 999
3 1005 999 1000
3 1006 1005 1000
3 1006 1000 1001
3 1007 1001 1002
3 1007 1006 1001
3 1008 1002 957
3 1008 1007 1002
3 1009 1006 1007
3 1009 967 966
3 1009 966 1005
3 1009 1005 1006
3 1010 1009 1007
3 1010 957 967
3 1010 967 1009
3 1010 1007 1008
3 1010 1008 957
3 1018 1019 1026
3 1017 1026 1025
3 1017 1018 1026
3 1016 1025 1024
3 1016 1017 1025
3 1015 1024 1023
3 1015 1016 1024
3 1014 1023 1022
3 1014 1015 1023
3 1013 1022 1021
3 1013 1014 1022
3 1012 1021 1020
3 1012 1013 1021
3 1011 1012 1020
3 1039 1041 1040
3 1044 1043 1042
3 1038 1041 1039
3 1045 1042 1041
3 1045 1044 1042
3 1045 1041 1038
3 1052 1053 1046
3 1051 1052 1046
3 1049 1050 1051
3 1049 1051 1046
3 1047 1046 1045
3 1047 1048 1049
3 1047 1045 1038
3 1047 1049 1046
3 1029 1031 1030
3 1029 1032 1031
3 1029 1033 1032
3 1029 1034 1033
3 1029 1035 1034
3 1029 1036 1035
3 1029 1037 1036
3 1028 1038 1037
3 1028 1047 1038
3 1028 1037 1029
3 1054 1028 1027
3 1054 1047 1028
3 1055 1058 1057
3 1055 1056 1058
3 1070 1067 1068
3 1071 1066 1067
3 1071 1067 1070
3 1072 1065 1066
3 1072 1066 1071
3 1073 1064 1065
3 1073 1065 1072
3 1074 1062 1063
3 1074 1063 1064
3 1074 1064 1073
3 1075 1061 1062
3 1075 1062 1074
3 1076 1060 1061
3 1076 1061 1075
3 1069 1059 1060
3 1069 1060 1076
