ply
format ascii 1.0
comment generated by blendit.inference.finetune_visualize
element vertex 1166
property float x
property float y
property float z
property uchar red
property uchar green
property uchar blue
element face 1680
property list uchar int vertex_indices
end_header
-2.22044605e-16 1.60814997 80.0551857 218 222 230
-2.22044605e-16 17.0688501 80.0551857 218 222 230
-2.22044605e-16 1.60814997 1.60814997 218 222 230
-2.22044605e-16 50.4414605 1.60814997 218 222 230
-2.22044605e-16 50.4414605 42.511178 218 222 230
-2.22044605e-16 17.0688501 42.511178 218 222 230
0 9.64829844 53.9969041 218 222 230
2.92375135e-18 8.62749002 54.1254149 218 222 230
-1.31889383e-16 7.66627193 54.4945803 218 222 230
-5.61040378e-17 6.80444345 55.0647797 218 222 230
-1.61183633e-16 6.05396238 55.7960181 218 222 230
-5.03185933e-17 5.4132775 56.6583126 218 222 230
2.91225512e-18 4.72343466 57.9744417 218 222 230
1.37321406e-16 4.14499157 59.7237226 218 222 230
-6.71898411e-17 3.81663205 61.7223301 218 222 230
-6.85183409e-16 3.78818422 63.845041 218 222 230
-2.24679965e-16 4.03339365 65.7253745 218 222 230
-3.73614673e-17 4.51825722 67.4548782 218 222 230
4.6621078e-17 5.20454636 68.9438381 218 222 230
-1.15582654e-16 6.04469989 70.1408637 218 222 230
-5.85133745e-18 6.99278597 71.0294205 218 222 230
1.41642568e-16 8.0070106 71.6133641 218 222 230
-7.58441073e-16 9.02306035 71.9027471 218 222 230
3.84183718e-15 9.9768618 71.9374729 218 222 230
-5.59736593e-16 10.8204484 71.7807222 218 222 230
1.66983442e-16 11.6134458 71.461752 218 222 230
-1.29303574e-16 12.3357022 71.005522 218 222 230
-1.52382378e-16 12.9806447 70.436031 218 222 230
-4.75271486e-19 13.7219787 69.5321236 218 222 230
-1.628803e-17 14.4013531 68.3529874 218 222 230
-4.64419583e-17 15.0311958 66.6771801 218 222 230
1.00679312e-16 15.4261839 64.7287769 218 222 230
3.66449218e-16 15.5306578 62.620464 218 222 230
-2.62782064e-16 15.3539277 60.7178994 218 222 230
-1.87267731e-16 14.93018 58.9365695 218 222 230
-7.07162492e-17 14.2933865 57.376162 218 222 230
-1.34393969e-16 13.4902986 56.0985447 218 222 230
3.00073436e-17 12.5680621 55.1277032 218 222 230
6.10529305e-18 11.5696029 54.4634982 218 222 230
1.52766261e-16 10.6360149 54.1171455 218 222 230
54.0225409 40.1762508 80.0551857 218 222 230
54.0225409 18.6770001 80.0551857 218 222 230
54.0225409 17.0688501 80.0551857 218 222 230
-2.22044605e-16 17.0688501 80.0551857 218 222 230
-2.22044605e-16 1.60814997 80.0551857 218 222 230
0.0403196774 1.25030294 80.0551857 218 222 230
0.159256913 0.910399851 80.0551857 218 222 230
0.350847696 0.605484866 80.0551857 218 222 230
0.605484866 0.350847696 80.0551857 218 222 230
0.910399851 0.159256913 80.0551857 218 222 230
1.25030294 0.0403196774 80.0551857 218 222 230
1.60814997 -2.22044605e-16 80.0551857 218 222 230
69.234377 0 80.0551857 218 222 230
69.234377 41.7941573 80.0551857 218 222 230
55.6306909 41.7941573 80.0551857 218 222 230
54.0623753 40.5341233 80.0551857 218 222 230
54.1799053 40.8742666 80.0551857 218 222 230
54.3693082 41.1798297 80.0551857 218 222 230
54.6212009 41.4356747 80.0551857 218 222 230
54.9231044 41.629127 80.0551857 218 222 230
55.2600623 41.7506028 80.0551857 218 222 230
55.4441167 41.7832318 80.0551857 218 222 230
-2.22044605e-16 1.60814997 1.60814997 255 79 163
0.0842838678 1.09436166 1.09436166 255 79 163
0.297318419 0.676556193 0.676556193 255 79 163
0.585089185 0.367386919 0.367386919 255 79 163
0.871009756 0.1788947 0.1788947 255 79 163
1.16586929 0.0620147476 0.0620147476 255 79 163
1.38484635 0.0155791494 0.0155791494 255 79 163
1.60814997 -2.22044605e-16 0 255 79 163
1.60814997 -2.22044605e-16 80.0551857 255 79 163
-2.22044605e-16 1.60814997 80.0551857 255 79 163
0.0403196774 1.25030294 80.0551857 255 79 163
0.159256913 0.910399851 80.0551857 255 79 163
0.350847696 0.605484866 80.0551857 255 79 163
0.605484866 0.350847696 80.0551857 255 79 163
0.910399851 0.159256913 80.0551857 255 79 163
1.25030294 0.0403196774 80.0551857 255 79 163
-2.22044605e-16 17.0688501 42.511178 255 79 163
-2.22044605e-16 17.0688501 80.0551857 255 79 163
0.0228559134 17.339015 80.0323298 255 79 163
0.0907739721 17.6015005 79.9644118 255 79 163
0.201823598 17.8488453 79.8533621 255 79 163
0.352848195 18.0740186 79.7023375 255 79 163
0.539554872 18.27062 79.5156309 255 79 163
0.756636475 18.4330609 79.2985493 255 79 163
1.08256056 18.5886863 78.9726252 255 79 163
1.34167129 18.654768 78.7135144 255 79 163
1.60814997 18.6770001 78.4470358 255 79 163
1.60814997 18.6770001 44.119328 255 79 163
0.0842838678 17.5826384 43.0249663 255 79 163
0.297318419 18.0004439 43.4427718 255 79 163
0.585089185 18.3096132 43.7519411 255 79 163
0.871009756 18.4981054 43.9404333 255 79 163
1.16586929 18.6149853 44.0573132 255 79 163
1.38484635 18.6614209 44.1037488 255 79 163
-2.22044605e-16 1.60814997 1.60814997 255 79 163
-2.22044605e-16 50.4414605 1.60814997 255 79 163
0.0403196774 50.4414605 1.25030294 255 79 163
0.159256913 50.4414605 0.910399851 255 79 163
0.350847696 50.4414605 0.605484866 255 79 163
0.605484866 50.4414605 0.350847696 255 79 163
0.910399851 50.4414605 0.159256913 255 79 163
1.25030294 50.4414605 0.0403196774 255 79 163
1.60814997 50.4414605 -2.22044605e-16 255 79 163
1.60814997 -2.22044605e-16 0 255 79 163
0.0842838678 1.09436166 1.09436166 255 79 163
0.297318419 0.676556193 0.676556193 255 79 163
0.585089185 0.367386919 0.367386919 255 79 163
0.871009756 0.1788947 0.1788947 255 79 163
1.16586929 0.0620147476 0.0620147476 255 79 163
1.38484635 0.0155791494 0.0155791494 255 79 163
-2.22044605e-16 50.4414605 42.511178 255 79 163
-2.22044605e-16 17.0688501 42.511178 255 79 163
0.0842838678 17.5826384 43.0249663 255 79 163
0.297318419 18.0004439 43.4427718 255 79 163
0.585089185 18.3096132 43.7519411 255 79 163
0.871009756 18.4981054 43.9404333 255 79 163
1.16586929 18.6149853 44.0573132 255 79 163
1.38484635 18.6614209 44.1037488 255 79 163
1.60814997 18.6770001 44.119328 255 79 163
1.60814997 50.4414605 44.119328 255 79 163
0.0403196774 50.4414605 42.869025 255 79 163
0.159256913 50.4414605 43.2089281 255 79 163
0.350847696 50.4414605 43.5138431 255 79 163
0.605484866 50.4414605 43.7684803 255 79 163
0.910399851 50.4414605 43.9600711 255 79 163
1.25030294 50.4414605 44.0790083 255 79 163
1.60814997 50.4414605 -2.22044605e-16 218 222 230
5.91169096 50.4414605 -7.0291724e-30 218 222 230
-2.22044605e-16 50.4414605 1.60814997 218 222 230
0.0403196774 50.4414605 1.25030294 218 222 230
0.159256913 50.4414605 0.910399851 218 222 230
0.350847696 50.4414605 0.605484866 218 222 230
0.605484866 50.4414605 0.350847696 218 222 230
0.910399851 50.4414605 0.159256913 218 222 230
1.25030294 50.4414605 0.0403196774 218 222 230
-2.22044605e-16 50.4414605 42.511178 218 222 230
0.0403196774 50.4414605 42.869025 218 222 230
0.159256913 50.4414605 43.2089281 218 222 230
0.350847696 50.4414605 43.5138431 218 222 230
0.605484866 50.4414605 43.7684803 218 222 230
0.910399851 50.4414605 43.9600711 218 222 230
1.25030294 50.4414605 44.0790083 218 222 230
1.60814997 50.4414605 44.119328 218 222 230
5.91169096 50.4414605 44.119328 218 222 230
0 9.64829844 53.9969041 255 79 163
0.0433752696 9.64829844 54.3678845 255 79 163
0.18316909 9.64829844 54.7422736 255 79 163
0.393626109 9.64829844 55.050981 255 79 163
0.641834782 9.64829844 55.2823539 255 79 163
0.9285539 9.64829844 55.4544004 255 79 163
1.23314155 9.64829844 55.5607183 255 79 163
1.42318478 9.64829844 55.5943815 255 79 163
1.60814997 9.64829844 55.605054 255 79 163
1.60814997 9.06350719 55.6742068 255 79 163
1.60814997 8.48699695 55.8816744 255 79 163
1.60814997 7.93052943 56.2250076 255 79 163
1.60814997 7.40551252 56.6985651 255 79 163
1.60814997 6.92269657 57.2937125 255 79 163
1.60814997 6.36141551 58.2564231 255 79 163
1.60814997 5.86519961 59.5317391 255 79 163
1.60814997 5.47573447 61.3436533 255 79 163
1.60814997 5.37466454 63.3277709 255 79 163
1.60814997 5.55331291 65.1091506 255 79 163
1.60814997 5.97100258 66.7406145 255 79 163
1.60814997 6.58033318 68.1099345 255 79 163
1.60814997 7.31700306 69.1525943 255 79 163
1.60814997 8.08010422 69.8297295 255 79 163
1.60814997 8.7459938 70.1768034 255 79 163
1.60814997 9.38422672 70.3284781 255 79 163
1.60814997 9.96417258 70.3224176 255 79 163
1.60814997 10.4814642 70.2014661 255 79 163
1.60814997 10.9863537 69.9729162 255 79 163
1.60814997 11.4713278 69.6401669 255 79 163
1.60814997 11.9291719 69.2081629 255 79 163
1.60814997 12.4857298 68.4890445 255 79 163
1.60814997 13.0215706 67.5066646 255 79 163
1.60814997 13.5580179 65.966868 255 79 163
1.60814997 13.877207 64.0932788 255 79 163
1.60814997 13.8960889 62.0914588 255 79 163
1.60814997 13.6440134 60.3390123 255 79 163
1.60814997 13.1639655 58.7741067 255 79 163
1.60814997 12.5104588 57.4965673 255 79 163
1.60814997 11.7497221 56.5550705 255 79 163
1.60814997 11.0598291 56.0176038 255 79 163
1.60814997 10.4030362 55.7206056 255 79 163
1.60814997 10.0265217 55.6339018 255 79 163
1.60814997 9.64829844 55.605054 255 79 163
0 9.64829844 53.9969041 255 79 163
0.0433752696 9.64829844 54.3678845 255 79 163
0.18316909 9.64829844 54.7422736 255 79 163
0.393626109 9.64829844 55.050981 255 79 163
0.641834782 9.64829844 55.2823539 255 79 163
0.9285539 9.64829844 55.4544004 255 79 163
1.23314155 9.64829844 55.5607183 255 79 163
1.42318478 9.64829844 55.5943815 255 79 163
2.92375135e-18 8.62749002 54.1254149 255 79 163
-1.31889383e-16 7.66627193 54.4945803 255 79 163
-5.61040378e-17 6.80444345 55.0647797 255 79 163
-1.61183633e-16 6.05396238 55.7960181 255 79 163
-5.03185933e-17 5.4132775 56.6583126 255 79 163
2.91225512e-18 4.72343466 57.9744417 255 79 163
1.37321406e-16 4.14499157 59.7237226 255 79 163
-6.71898411e-17 3.81663205 61.7223301 255 79 163
-6.85183409e-16 3.78818422 63.845041 255 79 163
-2.24679965e-16 4.03339365 65.7253745 255 79 163
-3.73614673e-17 4.51825722 67.4548782 255 79 163
4.6621078e-17 5.20454636 68.9438381 255 79 163
-1.15582654e-16 6.04469989 70.1408637 255 79 163
-5.85133745e-18 6.99278597 71.0294205 255 79 163
1.41642568e-16 8.0070106 71.6133641 255 79 163
-7.58441073e-16 9.02306035 71.9027471 255 79 163
3.84183718e-15 9.9768618 71.9374729 255 79 163
-5.59736593e-16 10.8204484 71.7807222 255 79 163
1.66983442e-16 11.6134458 71.461752 255 79 163
-1.29303574e-16 12.3357022 71.005522 255 79 163
-1.52382378e-16 12.9806447 70.436031 255 79 163
-4.75271486e-19 13.7219787 69.5321236 255 79 163
-1.628803e-17 14.4013531 68.3529874 255 79 163
-4.64419583e-17 15.0311958 66.6771801 255 79 163
1.00679312e-16 15.4261839 64.7287769 255 79 163
3.66449218e-16 15.5306578 62.620464 255 79 163
-2.62782064e-16 15.3539277 60.7178994 255 79 163
-1.87267731e-16 14.93018 58.9365695 255 79 163
-7.07162492e-17 14.2933865 57.376162 255 79 163
-1.34393969e-16 13.4902986 56.0985447 255 79 163
3.00073436e-17 12.5680621 55.1277032 255 79 163
6.10529305e-18 11.5696029 54.4634982 255 79 163
1.52766261e-16 10.6360149 54.1171455 255 79 163
0.471016223 8.67123866 55.2975388 255 79 163
0.112910942 8.63414528 54.7374203 255 79 163
0.0486270956 8.32870234 54.6289493 255 79 163
0.112910942 8.21430609 54.8893079 255 79 163
0.205424404 8.03632126 55.1885806 255 79 163
0.112910942 7.68377946 55.1645266 255 79 163
0.471016223 7.75087996 55.7729562 255 79 163
0.0486270956 7.39914766 55.11079 255 79 163
1.01619848 8.91147285 55.5974406 255 79 163
0.112910942 7.30582523 55.4233865 255 79 163
1.21567739 8.77359415 55.7090658 255 79 163
1.01619848 8.61101461 55.7023821 255 79 163
0.821697615 8.3476011 55.7215289 255 79 163
0.205424404 7.15887745 55.7949863 255 79 163
0.0486270956 6.57971645 55.8032272 255 79 163
0.112910942 6.83758439 55.8273538 255 79 163
0.471016223 6.92797015 56.5239043 255 79 163
1.01619848 8.19510989 55.9109555 255 79 163
1.21567739 8.11790628 56.0344796 255 79 163
0.112910942 6.50936704 56.1744195 255 79 163
1.01619848 7.9099573 56.0996329 255 79 163
0.0486270956 6.14313314 56.3047488 255 79 163
0.112910942 6.20323455 56.5546663 255 79 163
1.01619848 7.63361479 56.3213819 255 79 163
0.821697615 7.42074681 56.3912903 255 79 163
1.21567739 7.75037435 56.3060792 255 79 163
0.205424404 6.20725371 56.8834045 255 79 163
0.112910942 5.83208059 57.1052457 255 79 163
0.471016223 6.22469405 57.5111065 255 79 163
1.01619848 7.26007174 56.6894879 255 79 163
0.0486270956 5.45439381 57.3616019 255 79 163
1.01619848 7.01021418 56.9861186 255 79 163
1.21567739 7.16189693 56.9004715 255 79 163
0.821697615 6.76930304 57.1547982 255 79 163
0.112910942 5.49852818 57.7084297 255 79 163
1.01619848 6.67896631 57.4544823 255 79 163
0.205424404 5.55205666 58.0460449 255 79 163
0.112910942 5.20762731 58.351026 255 79 163
0.471016223 5.65738708 58.6948712 255 79 163
0.0486270956 4.83486127 58.7728816 255 79 163
1.21567739 6.58791983 57.726721 255 79 163
1.01619848 6.3933043 57.9440477 255 79 163
0.821697615 6.1672441 58.1861427 255 79 163
0.112910942 4.91468671 59.1660302 255 79 163
1.01619848 6.12071596 58.5102305 255 79 163
0.205424404 5.02846462 59.4625779 255 79 163
0.112910942 4.71514777 59.8841945 255 79 163
0.471016223 5.24034719 60.0317542 255 79 163
1.21567739 6.04941951 58.8521635 255 79 163
1.01619848 5.86895407 59.1565976 255 79 163
0.821697615 5.67813781 59.4412462 255 79 163
0.112910942 4.55864622 60.6275889 255 79 163
0.205424404 4.79541361 60.4219945 255 79 163
0.471016223 4.98503311 61.4735342 255 79 163
0.0486270956 4.29953286 60.9769766 255 79 163
1.01619848 5.66871724 59.8039913 255 79 163
0.112910942 4.4236584 61.5922404 255 79 163
1.21567739 5.60844588 60.3135258 255 79 163
1.01619848 5.46097959 60.714312 255 79 163
0.821697615 5.32382643 60.9638452 255 79 163
0.205424404 4.57889601 62.0619091 255 79 163
0.112910942 4.36684556 62.3698917 255 79 163
0.471016223 4.89870985 62.9682934 255 79 163
0.0486270956 4.15461644 62.8479433 255 79 163
1.01619848 5.35192204 61.421764 255 79 163
0.821697615 5.20709865 61.9257035 255 79 163
0.112910942 4.35981674 63.3889896 255 79 163
1.01619848 5.2838009 62.1437797 255 79 163
0.205424404 4.57084395 63.7581158 255 79 163
0.112910942 4.40582108 64.1678857 255 79 163
0.471016223 4.98367943 64.4623488 255 79 163
0.0486270956 4.2596755 64.6786696 255 79 163
1.01619848 5.25802303 63.1497411 255 79 163
0.821697615 5.17859275 63.5804545 255 79 163
0.112910942 4.51664443 65.0706303 255 79 163
1.01619848 5.2889049 63.8786251 255 79 163
0.205424404 4.76339351 65.358828 255 79 163
0.112910942 4.65850841 65.8196663 255 79 163
0.471016223 5.23710613 65.9023786 255 79 163
0.0486270956 4.58522865 66.3612272 255 79 163
1.21567739 5.38999358 64.2933855 255 79 163
1.01619848 5.38573056 64.7771767 255 79 163
0.821697615 5.3511828 65.1458094 255 79 163
0.112910942 4.87486773 66.6518729 255 79 163
1.01619848 5.50875971 65.4766926 255 79 163
0.205424404 5.14312565 66.8568327 255 79 163
0.112910942 5.1082867 67.3433689 255 79 163
0.471016223 5.65145091 67.2374449 255 79 163
0.0486270956 5.10961064 67.8775329 255 79 163
1.21567739 5.67325078 65.9073144 255 79 163
1.01619848 5.71471481 66.306596 255 79 163
0.821697615 5.71035195 66.6083026 255 79 163
0.112910942 5.41205945 68.0614113 255 79 163
0.205424404 5.69140797 68.1897279 255 79 163
1.01619848 5.92353162 66.9440455 255 79 163
0.112910942 5.73114756 68.6721658 255 79 163
0.471016223 6.2154617 68.420618 255 79 163
0.0486270956 5.80059451 69.1653118 255 79 163
1.21567739 6.15205245 67.3475232 255 79 163
1.01619848 6.21946682 67.6557767 255 79 163
0.821697615 6.23469537 67.8984315 255 79 163
0.112910942 6.09914841 69.2493408 255 79 163
0.205424404 6.38487609 69.3109318 255 79 163
1.01619848 6.50349904 68.20325 255 79 163
0.112910942 6.49840225 69.760541 255 79 163
0.471016223 6.91568843 69.4095907 255 79 163
0.0486270956 6.62436151 70.1898449 255 79 163
0.112910942 6.90851955 70.1879224 255 79 163
0.821697615 6.89486639 68.9635055 255 79 163
1.01619848 6.86342475 68.765443 255 79 163
0.205424404 7.20116172 70.1893773 255 79 163
0.112910942 7.38329168 70.5818434 255 79 163
0.471016223 7.73741346 70.1650585 255 79 163
1.01619848 7.20934945 69.20139 255 79 163
0.0486270956 7.55198282 70.9361159 255 79 163
0.821697615 7.38071896 69.5173485 255 79 163
0.112910942 7.81831397 70.8621574 255 79 163
1.01619848 7.57976743 69.5782041 255 79 163
0.205424404 8.12036336 70.8013123 255 79 163
1.21567739 7.76369871 69.65258 255 79 163
0.112910942 8.35985668 71.117244 255 79 163
0.471016223 8.6609392 70.6465325 255 79 163
0.0486270956 8.54842267 71.392689 255 79 163
1.01619848 7.9809769 69.8986107 255 79 163
0.821697615 8.19436366 70.1433125 255 79 163
0.112910942 8.7955872 71.2540422 255 79 163
1.01619848 8.39103911 70.1443494 255 79 163
0.205424404 9.10854352 71.1200143 255 79 163
0.0486270956 9.55819827 71.5571064 255 79 163
0.112910942 9.37997397 71.3484321 255 79 163
0.471016223 9.64829844 70.8135426 255 79 163
1.21567739 8.52236114 70.1364318 255 79 163
1.01619848 8.74179679 70.2954419 255 79 163
0.112910942 9.7889528 71.355898 255 79 163
1.01619848 9.07303353 70.3914407 255 79 163
1.21567739 8.96711192 70.2989707 255 79 163
0.821697615 9.25045827 70.5184657 255 79 163
0.0486270956 10.5153083 71.4558404 255 79 163
0.205424404 10.1082976 71.1321433 255 79 163
0.112910942 10.376056 71.2826384 255 79 163
0.471016223 10.6356577 70.6465325 255 79 163
1.01619848 9.51020165 70.4517649 255 79 163
0.112910942 10.7332571 71.1884115 255 79 163
0.0486270956 11.0115161 71.3022163 255 79 163
1.21567739 9.66594453 70.391092 255 79 163
1.01619848 9.81351651 70.4501803 255 79 163
0.112910942 11.0807466 71.0589342 255 79 163
0.821697615 10.0647726 70.5156324 255 79 163
0.205424404 11.2648172 70.7566409 255 79 163
1.01619848 10.2504105 70.3852975 255 79 163
0.0486270956 11.8474564 70.8702169 255 79 163
0.112910942 11.613728 70.7824961 255 79 163
0.471016223 11.5591834 70.1650585 255 79 163
1.21567739 10.3232201 70.3006692 255 79 163
1.01619848 10.5187972 70.3080299 255 79 163
0.112910942 11.9275836 70.5714015 255 79 163
0.0486270956 12.2723993 70.5554512 255 79 163
1.01619848 10.7832871 70.2029707 255 79 163
1.21567739 10.6706872 70.1817942 255 79 163
0.821697615 11.0196183 70.1891884 255 79 163
0.112910942 12.226874 70.3328704 255 79 163
0.205424404 12.2881641 70.014721 255 79 163
1.01619848 11.1978444 69.9772096 255 79 163
0.112910942 12.6764678 69.8967907 255 79 163
0.471016223 12.3809085 69.4095907 255 79 163
0.0486270956 13.0241896 69.8027093 255 79 163
1.21567739 11.2775293 69.8467999 255 79 163
1.01619848 11.4473915 69.8026068 255 79 163
0.821697615 11.7371475 69.6841685 255 79 163
0.112910942 13.019865 69.4897164 255 79 163
1.01619848 11.8329542 69.4690671 255 79 163
0.205424404 13.0473987 69.1246002 255 79 163
0.112910942 13.3977559 68.9496935 255 79 163
0.471016223 13.0811352 68.420618 255 79 163
1.21567739 11.8476208 69.363978 255 79 163
0.0486270956 13.7360448 68.7756482 255 79 163
1.01619848 12.0616288 69.2302435 255 79 163
0.112910942 13.7147914 68.4012694 255 79 163
1.01619848 12.3517968 68.8762342 255 79 163
1.21567739 12.1911409 68.9780892 255 79 163
0.821697615 12.5732291 68.7270761 255 79 163
0.205424404 13.6957131 68.0056159 255 79 163
0.112910942 14.0156799 67.7711526 255 79 163
0.471016223 13.645146 67.2374449 255 79 163
1.01619848 12.6772015 68.3982996 255 79 163
0.0486270956 14.3665669 67.435948 255 79 163
1.21567739 12.7785532 68.0982676 255 79 163
1.01619848 12.9541666 67.9061635 255 79 163
0.112910942 14.3169982 66.9816091 255 79 163
0.821697615 13.1639816 67.6884676 255 79 163
0.205424404 14.2300361 66.613889 255 79 163
1.01619848 13.2202535 67.3335013 255 79 163
0.112910942 14.528247 66.2734939 255 79 163
0.471016223 14.0594908 65.9023786 255 79 163
0.0486270956 14.8493644 65.7871053 255 79 163
1.21567739 13.3267515 66.8833184 255 79 163
1.01619848 13.5031791 66.5643793 255 79 163
0.821697615 13.6666996 66.346196 255 79 163
0.112910942 14.7324233 65.3507044 255 79 163
0.205424404 14.5867581 65.0470661 255 79 163
1.01619848 13.6896553 65.9071255 255 79 163
0.112910942 14.8468305 64.5900086 255 79 163
0.471016223 14.3129175 64.4623488 255 79 163
0.821697615 13.8895429 65.44124 255 79 163
1.01619848 13.8377067 65.2219538 255 79 163
0.112910942 14.917139 63.8158219 255 79 163
0.205424404 14.7065036 64.0376443 255 79 163
0.471016223 14.397887 62.9682934 255 79 163
0.0486270956 15.1350793 63.4295146 255 79 163
1.01619848 13.9744217 64.2626356 255 79 163
0.112910942 14.941989 62.8015554 255 79 163
0.821697615 14.1031124 63.8399468 255 79 163
0.205424404 14.7339067 62.3447437 255 79 163
1.01619848 14.0273529 63.5375714 255 79 163
0.112910942 14.9098069 62.0204911 255 79 163
0.471016223 14.3115638 61.4735342 255 79 163
0.0486270956 15.0737056 61.5948586 255 79 163
1.21567739 13.9752574 63.0522605 255 79 163
0.112910942 14.814778 61.1108396 255 79 163
1.01619848 14.0319199 62.5252645 255 79 163
0.821697615 14.1078577 62.1809569 255 79 163
0.205424404 14.5594872 60.7358707 255 79 163
0.112910942 14.6860365 60.3545643 255 79 163
0.471016223 14.0562497 60.0317542 255 79 163
1.01619848 13.9854893 61.7983681 255 79 163
0.0486270956 14.7873512 59.8871099 255 79 163
0.112910942 14.4826186 59.5058249 255 79 163
1.21567739 13.8646125 61.3037993 255 79 163
1.01619848 13.8697345 60.9075792 255 79 163
0.821697615 13.9125269 60.6229011 255 79 163
0.205424404 14.1950839 59.22029 255 79 163
0.112910942 14.2609451 58.8031841 255 79 163
0.471016223 13.6392098 58.6948712 255 79 163
1.01619848 13.7316145 60.2149123 255 79 163
0.0486270956 14.2954624 58.3294968 255 79 163
0.112910942 13.9655596 58.0623325 255 79 163
1.21567739 13.5374305 59.7189835 255 79 163
0.821697615 13.5327812 59.1778501 255 79 163
1.01619848 13.5098845 59.4042394 255 79 163
0.205424404 13.6579409 57.863793 255 79 163
0.112910942 13.6567537 57.438155 255 79 163
0.471016223 13.0719028 57.5111065 255 79 163
0.0486270956 13.628654 56.9912936 255 79 163
1.01619848 13.2872372 58.778323 255 79 163
0.821697615 13.2102307 58.3595507 255 79 163
0.112910942 13.2920631 56.835762 255 79 163
1.01619848 13.0295989 58.1923605 255 79 163
0.205424404 12.971345 56.7168629 255 79 163
0.112910942 12.9021579 56.3102517 255 79 163
0.471016223 12.3686267 56.5239043 255 79 163
1.21567739 12.8385292 57.9592167 255 79 163
0.0486270956 12.8214501 55.9137564 255 79 163
1.01619848 12.6849428 57.5618632 255 79 163
0.821697615 12.5751015 57.2232212 255 79 163
0.112910942 12.4910498 55.8587418 255 79 163
1.01619848 12.3596461 57.0817987 255 79 163
0.205424404 12.1590336 55.8138492 255 79 163
0.112910942 12.0255081 55.45004 255 79 163
0.471016223 11.5457169 55.7729562 255 79 163
0.0486270956 11.9050034 55.1159213 255 79 163
1.21567739 12.1390922 56.9057589 255 79 163
1.01619848 11.9653181 56.6127316 255 79 163
0.821697615 11.8256833 56.3437902 255 79 163
0.112910942 11.5871274 55.1489124 255 79 163
1.01619848 11.5875448 56.2568358 255 79 163
0.205424404 11.243433 55.1798972 255 79 163
0.112910942 11.0550105 54.8777332 255 79 163
0.471016223 10.6253582 55.2975388 255 79 163
0.0486270956 10.9387138 54.6182883 255 79 163
1.21567739 11.3950318 56.1859456 255 79 163
1.01619848 11.2290924 55.990576 255 79 163
0.112910942 10.6483423 54.73327 255 79 163
0.821697615 11.0381163 55.7684043 255 79 163
1.01619848 10.8173969 55.7603119 255 79 163
1.21567739 10.6667033 55.7641338 255 79 163
1.01619848 10.4734187 55.624441 255 79 163
1.01619848 10.2778772 55.5688636 255 79 163
1.21567739 10.3142644 55.6445112 255 79 163
54.0225409 36.2117819 44.119328 218 222 230
54.0225409 18.6770001 44.119328 218 222 230
54.0225409 40.1762508 80.0551857 218 222 230
54.0225409 18.6770001 80.0551857 218 222 230
54.0225409 17.0688501 80.0551857 218 222 230
54.0225409 17.4266971 80.0148661 218 222 230
54.0225409 17.7666002 79.8959288 218 222 230
54.0225409 18.0715152 79.704338 218 222 230
54.0225409 18.3261524 79.4497009 218 222 230
54.0225409 18.5177432 79.1447859 218 222 230
54.0225409 18.6366804 78.8048828 218 222 230
54.0225409 18.6770001 78.4470358 218 222 230
54.0225409 40.1762508 80.0551857 255 79 163
54.0623753 40.5341233 80.0551857 255 79 163
54.1799053 40.8742666 80.0551857 255 79 163
54.3693082 41.1798297 80.0551857 255 79 163
54.6212009 41.4356747 80.0551857 255 79 163
54.9231044 41.629127 80.0551857 255 79 163
55.2600623 41.7506028 80.0551857 255 79 163
55.4441167 41.7832318 80.0551857 255 79 163
55.6306909 41.7941573 80.0551857 255 79 163
55.6306909 37.8296884 44.119328 255 79 163
54.0225409 36.2117819 44.119328 255 79 163
54.0623753 36.5696544 44.119328 255 79 163
54.1799053 36.9097977 44.119328 255 79 163
54.3693082 37.2153608 44.119328 255 79 163
54.6212009 37.4712058 44.119328 255 79 163
54.9231044 37.6646581 44.119328 255 79 163
55.2600623 37.7861339 44.119328 255 79 163
55.4441167 37.8187629 44.119328 255 79 163
69.234377 41.7941573 80.0551857 218 222 230
55.6306909 41.7941573 80.0551857 218 222 230
55.6306909 37.8296884 44.119328 218 222 230
54.0225409 37.8296884 44.119328 218 222 230
54.0225409 32.9624134 0 218 222 230
67.626227 32.9624134 -2.22044605e-16 218 222 230
67.9808851 32.9667815 0.0395952281 218 222 230
68.3180786 32.979671 0.156431117 218 222 230
68.6212032 33.0004469 0.344754292 218 222 230
68.875332 33.0280863 0.595291118 218 222 230
69.0679508 33.0612281 0.895704359 218 222 230
69.1895746 33.0982403 1.2312007 218 222 230
69.2231371 33.1188866 1.41834876 218 222 230
69.234377 33.1398256 1.60814997 218 222 230
-2.22044605e-16 17.0688501 80.0551857 255 79 163
54.0225409 17.0688501 80.0551857 255 79 163
54.0225409 17.4266971 80.0148661 255 79 163
54.0225409 17.7666002 79.8959288 255 79 163
54.0225409 18.0715152 79.704338 255 79 163
54.0225409 18.3261524 79.4497009 255 79 163
54.0225409 18.5177432 79.1447859 255 79 163
54.0225409 18.6366804 78.8048828 255 79 163
54.0225409 18.6770001 78.4470358 255 79 163
1.60814997 18.6770001 78.4470358 255 79 163
0.0228559134 17.339015 80.0323298 255 79 163
0.0907739721 17.6015005 79.9644118 255 79 163
0.201823598 17.8488453 79.8533621 255 79 163
0.352848195 18.0740186 79.7023375 255 79 163
0.539554872 18.27062 79.5156309 255 79 163
0.756636475 18.4330609 79.2985493 255 79 163
1.08256056 18.5886863 78.9726252 255 79 163
1.34167129 18.654768 78.7135144 255 79 163
69.234377 0 1.60814997 218 222 230
69.234377 0 80.0551857 218 222 230
69.234377 33.1398256 1.60814997 218 222 230
69.234377 41.7941573 80.0551857 218 222 230
69.234377 9.64829685 53.9969041 218 222 230
69.234377 10.6601296 54.1231458 218 222 230
69.234377 11.5778126 54.4676338 218 222 230
69.234377 12.3593531 54.9600247 218 222 230
69.234377 13.0085482 55.5402463 218 222 230
69.234377 13.7033407 56.3886268 218 222 230
69.234377 14.3039378 57.3968917 218 222 230
69.234377 14.8808678 58.7856206 218 222 230
69.234377 15.3347095 60.6034264 218 222 230
69.234377 15.5311816 62.6425162 218 222 230
69.234377 15.4634964 64.399082 218 222 230
69.234377 15.1372158 66.2819242 218 222 230
69.234377 14.5603277 68.0030421 218 222 230
69.234377 13.772147 69.4586878 218 222 230
69.234377 13.1577463 70.247512 218 222 230
69.234377 12.3830394 70.9693593 218 222 230
69.234377 11.5085063 71.5142464 218 222 230
69.234377 10.5783375 71.844173 218 222 230
69.234377 9.66306851 71.9506497 218 222 230
69.234377 8.74650501 71.8505909 218 222 230
69.234377 7.90050399 71.566871 218 222 230
69.234377 7.16262706 71.1505616 218 222 230
69.234377 6.53613271 70.6499765 218 222 230
69.234377 5.85127653 69.906615 218 222 230
69.234377 5.24485901 69.0135437 218 222 230
69.234377 4.64112581 67.7747793 218 222 230
69.234377 4.10631114 66.061434 218 222 230
69.234377 3.80563177 64.0938537 218 222 230
69.234377 3.77577764 62.3369305 218 222 230
69.234377 3.99428627 60.4229647 218 222 230
69.234377 4.4720319 58.6215236 218 222 230
69.234377 5.15222127 57.0965315 218 222 230
69.234377 6.03450895 55.8185406 218 222 230
69.234377 6.78187611 55.0832534 218 222 230
69.234377 7.80551411 54.4249357 218 222 230
69.234377 8.68587863 54.1110155 218 222 230
1.60814997 -2.22044605e-16 0 218 222 230
67.626227 0 -2.22044605e-16 218 222 230
1.60814997 -2.22044605e-16 80.0551857 218 222 230
69.234377 0 80.0551857 218 222 230
69.234377 0 1.60814997 218 222 230
67.984074 0 0.0403196774 218 222 230
68.3239771 0 0.159256913 218 222 230
68.6288921 0 0.350847696 218 222 230
68.8835293 0 0.605484866 218 222 230
69.0751201 0 0.910399851 218 222 230
69.1940573 0 1.25030294 218 222 230
54.0225409 18.6770001 78.4470358 218 222 230
54.0225409 18.6770001 44.119328 218 222 230
1.60814997 18.6770001 44.119328 218 222 230
1.60814997 18.6770001 78.4470358 218 222 230
1.60814997 50.4414605 -2.22044605e-16 218 222 230
5.91169096 50.4414605 -7.0291724e-30 218 222 230
1.60814997 -2.22044605e-16 0 218 222 230
67.626227 0 -2.22044605e-16 218 222 230
67.626227 32.9624134 -2.22044605e-16 218 222 230
54.0225409 32.9624134 0 218 222 230
54.0225409 43.9761692 0 218 222 230
5.91169096 43.9761692 -2.22044605e-16 218 222 230
5.91169096 45.5843192 -7.0291724e-30 218 222 230
52.4143909 45.5843192 44.119328 218 222 230
5.91169096 45.5843192 44.119328 218 222 230
52.7722379 45.5439995 44.119328 218 222 230
53.112141 45.4250623 44.119328 218 222 230
53.417056 45.2334715 44.119328 218 222 230
53.6716932 44.9788343 44.119328 218 222 230
53.863284 44.6739194 44.119328 218 222 230
53.9822212 44.3340163 44.119328 218 222 230
54.0225409 43.9761692 44.119328 218 222 230
54.0225409 37.8296884 44.119328 218 222 230
55.6306909 37.8296884 44.119328 218 222 230
54.0225409 36.2117819 44.119328 218 222 230
54.0623753 36.5696544 44.119328 218 222 230
54.1799053 36.9097977 44.119328 218 222 230
54.3693082 37.2153608 44.119328 218 222 230
54.6212009 37.4712058 44.119328 218 222 230
54.9231044 37.6646581 44.119328 218 222 230
55.2600623 37.7861339 44.119328 218 222 230
55.4441167 37.8187629 44.119328 218 222 230
54.0225409 18.6770001 44.119328 218 222 230
1.60814997 18.6770001 44.119328 218 222 230
1.60814997 50.4414605 44.119328 218 222 230
5.91169096 50.4414605 44.119328 218 222 230
5.91169096 45.5843192 44.119328 218 222 230
5.91169096 45.5843192 1.60814997 218 222 230
5.91169096 43.9761692 -2.22044605e-16 218 222 230
5.91169096 44.3340163 0.0403196774 218 222 230
5.91169096 44.6739194 0.159256913 218 222 230
5.91169096 44.9788343 0.350847696 218 222 230
5.91169096 45.2334715 0.605484866 218 222 230
5.91169096 45.4250623 0.910399851 218 222 230
5.91169096 45.5439995 1.25030294 218 222 230
5.91169096 45.5843192 -7.0291724e-30 218 222 230
5.91169096 50.4414605 -7.0291724e-30 218 222 230
5.91169096 50.4414605 44.119328 218 222 230
1.60814997 9.64829844 55.605054 218 222 230
67.626227 9.64829844 55.605054 218 222 230
1.60814997 9.64829844 55.605054 218 222 230
1.60814997 9.06350719 55.6742068 218 222 230
1.60814997 8.48699695 55.8816744 218 222 230
1.60814997 7.93052943 56.2250076 218 222 230
1.60814997 7.40551252 56.6985651 218 222 230
1.60814997 6.92269657 57.2937125 218 222 230
1.60814997 6.36141551 58.2564231 218 222 230
1.60814997 5.86519961 59.5317391 218 222 230
1.60814997 5.47573447 61.3436533 218 222 230
1.60814997 5.37466454 63.3277709 218 222 230
1.60814997 5.55331291 65.1091506 218 222 230
1.60814997 5.97100258 66.7406145 218 222 230
1.60814997 6.58033318 68.1099345 218 222 230
1.60814997 7.31700306 69.1525943 218 222 230
1.60814997 8.08010422 69.8297295 218 222 230
1.60814997 8.7459938 70.1768034 218 222 230
1.60814997 9.38422672 70.3284781 218 222 230
1.60814997 9.96417258 70.3224176 218 222 230
1.60814997 10.4814642 70.2014661 218 222 230
1.60814997 10.9863537 69.9729162 218 222 230
1.60814997 11.4713278 69.6401669 218 222 230
1.60814997 11.9291719 69.2081629 218 222 230
1.60814997 12.4857298 68.4890445 218 222 230
1.60814997 13.0215706 67.5066646 218 222 230
1.60814997 13.5580179 65.966868 218 222 230
1.60814997 13.877207 64.0932788 218 222 230
1.60814997 13.8960889 62.0914588 218 222 230
1.60814997 13.6440134 60.3390123 218 222 230
1.60814997 13.1639655 58.7741067 218 222 230
1.60814997 12.5104588 57.4965673 218 222 230
1.60814997 11.7497221 56.5550705 218 222 230
1.60814997 11.0598291 56.0176038 218 222 230
1.60814997 10.4030362 55.7206056 218 222 230
1.60814997 10.0265217 55.6339018 218 222 230
67.626227 9.64829844 55.605054 218 222 230
67.626227 10.2284275 55.6731034 218 222 230
67.626227 10.7804279 55.8676977 218 222 230
67.626227 11.2858993 56.1661524 218 222 230
67.626227 11.7377764 56.5435138 218 222 230
67.626227 12.2577708 57.134186 218 222 230
67.626227 12.7397801 57.8796425 218 222 230
67.626227 13.235382 58.9572293 218 222 230
67.626227 13.6208548 60.237111 218 222 230
67.626227 13.8960619 62.0910703 218 222 230
67.626227 13.9088298 63.6497812 218 222 230
67.626227 13.6802782 65.4392616 218 222 230
67.626227 13.2012279 67.0794072 218 222 230
67.626227 12.5017379 68.4644928 218 222 230
67.626227 11.6873774 69.4518788 218 222 230
67.626227 11.0033892 69.9631881 218 222 230
67.626227 10.3516018 70.2422926 218 222 230
67.626227 9.76998243 70.3395456 218 222 230
67.626227 9.24017411 70.3089263 218 222 230
67.626227 8.72730543 70.1697843 218 222 230
67.626227 8.24824011 69.9368501 218 222 230
67.626227 7.8116475 69.6290676 218 222 230
67.626227 7.2989019 69.1322235 218 222 230
67.626227 6.8119022 68.4906234 218 222 230
67.626227 6.29351665 67.547186 218 222 230
67.626227 5.75309626 66.0224942 218 222 230
67.626227 5.4304451 64.2108132 218 222 230
67.626227 5.37377897 62.6531128 218 222 230
67.626227 5.55100592 60.8515986 218 222 230
67.626227 5.98353162 59.1709215 218 222 230
67.626227 6.62638316 57.7572986 218 222 230
67.626227 7.4193157 56.6839952 218 222 230
67.626227 7.99852228 56.1748775 218 222 230
67.626227 8.64428312 55.8108097 218 222 230
67.626227 9.13645732 55.6579712 218 222 230
67.626227 0 -2.22044605e-16 255 79 163
67.626227 32.9624134 -2.22044605e-16 255 79 163
67.9808851 32.9667815 0.0395952281 255 79 163
68.3180786 32.979671 0.156431117 255 79 163
68.6212032 33.0004469 0.344754292 255 79 163
68.875332 33.0280863 0.595291118 255 79 163
69.0679508 33.0612281 0.895704359 255 79 163
69.1895746 33.0982403 1.2312007 255 79 163
69.2231371 33.1188866 1.41834876 255 79 163
69.234377 33.1398256 1.60814997 255 79 163
69.234377 0 1.60814997 255 79 163
67.984074 0 0.0403196774 255 79 163
68.3239771 0 0.159256913 255 79 163
68.6288921 0 0.350847696 255 79 163
68.8835293 0 0.605484866 255 79 163
69.0751201 0 0.910399851 255 79 163
69.1940573 0 1.25030294 255 79 163
54.0225409 43.9761692 44.119328 218 222 230
54.0225409 37.8296884 44.119328 218 222 230
54.0225409 32.9624134 0 218 222 230
54.0225409 43.9761692 0 218 222 230
67.626227 9.64829844 55.605054 255 79 163
67.9972074 9.6482984 55.5616788 255 79 163
68.3715966 9.64829826 55.4218849 255 79 163
68.6803039 9.64829805 55.2114279 255 79 163
68.9116768 9.64829781 54.9632193 255 79 163
69.0837233 9.64829752 54.6765001 255 79 163
69.1900413 9.64829722 54.3719125 255 79 163
69.2237045 9.64829704 54.1818693 255 79 163
69.234377 9.64829685 53.9969041 255 79 163
69.234377 10.6601296 54.1231458 255 79 163
69.234377 11.5778126 54.4676338 255 79 163
69.234377 12.3593531 54.9600247 255 79 163
69.234377 13.0085482 55.5402463 255 79 163
69.234377 13.7033407 56.3886268 255 79 163
69.234377 14.3039378 57.3968917 255 79 163
69.234377 14.8808678 58.7856206 255 79 163
69.234377 15.3347095 60.6034264 255 79 163
69.234377 15.5311816 62.6425162 255 79 163
69.234377 15.4634964 64.399082 255 79 163
69.234377 15.1372158 66.2819242 255 79 163
69.234377 14.5603277 68.0030421 255 79 163
69.234377 13.772147 69.4586878 255 79 163
69.234377 13.1577463 70.247512 255 79 163
69.234377 12.3830394 70.9693593 255 79 163
69.234377 11.5085063 71.5142464 255 79 163
69.234377 10.5783375 71.844173 255 79 163
69.234377 9.66306851 71.9506497 255 79 163
69.234377 8.74650501 71.8505909 255 79 163
69.234377 7.90050399 71.566871 255 79 163
69.234377 7.16262706 71.1505616 255 79 163
69.234377 6.53613271 70.6499765 255 79 163
69.234377 5.85127653 69.906615 255 79 163
69.234377 5.24485901 69.0135437 255 79 163
69.234377 4.64112581 67.7747793 255 79 163
69.234377 4.10631114 66.061434 255 79 163
69.234377 3.80563177 64.0938537 255 79 163
69.234377 3.77577764 62.3369305 255 79 163
69.234377 3.99428627 60.4229647 255 79 163
69.234377 4.4720319 58.6215236 255 79 163
69.234377 5.15222127 57.0965315 255 79 163
69.234377 6.03450895 55.8185406 255 79 163
69.234377 6.78187611 55.0832534 255 79 163
69.234377 7.80551411 54.4249357 255 79 163
69.234377 8.68587863 54.1110155 255 79 163
69.234377 9.64829685 53.9969041 255 79 163
67.626227 9.64829844 55.605054 255 79 163
67.9972074 9.6482984 55.5616788 255 79 163
68.3715966 9.64829826 55.4218849 255 79 163
68.6803039 9.64829805 55.2114279 255 79 163
68.9116768 9.64829781 54.9632193 255 79 163
69.0837233 9.64829752 54.6765001 255 79 163
69.1900413 9.64829722 54.3719125 255 79 163
69.2237045 9.64829704 54.1818693 255 79 163
67.626227 10.2284275 55.6731034 255 79 163
67.626227 10.7804279 55.8676977 255 79 163
67.626227 11.2858993 56.1661524 255 79 163
67.626227 11.7377764 56.5435138 255 79 163
67.626227 12.2577708 57.134186 255 79 163
67.626227 12.7397801 57.8796425 255 79 163
67.626227 13.235382 58.9572293 255 79 163
67.626227 13.6208548 60.237111 255 79 163
67.626227 13.8960619 62.0910703 255 79 163
67.626227 13.9088298 63.6497812 255 79 163
67.626227 13.6802782 65.4392616 255 79 163
67.626227 13.2012279 67.0794072 255 79 163
67.626227 12.5017379 68.4644928 255 79 163
67.626227 11.6873774 69.4518788 255 79 163
67.626227 11.0033892 69.9631881 255 79 163
67.626227 10.3516018 70.2422926 255 79 163
67.626227 9.76998243 70.3395456 255 79 163
67.626227 9.24017411 70.3089263 255 79 163
67.626227 8.72730543 70.1697843 255 79 163
67.626227 8.24824011 69.9368501 255 79 163
67.626227 7.8116475 69.6290676 255 79 163
67.626227 7.2989019 69.1322235 255 79 163
67.626227 6.8119022 68.4906234 255 79 163
67.626227 6.29351665 67.547186 255 79 163
67.626227 5.75309626 66.0224942 255 79 163
67.626227 5.4304451 64.2108132 255 79 163
67.626227 5.37377897 62.6531128 255 79 163
67.626227 5.55100592 60.8515986 255 79 163
67.626227 5.98353162 59.1709215 255 79 163
67.626227 6.62638316 57.7572986 255 79 163
67.626227 7.4193157 56.6839952 255 79 163
67.626227 7.99852228 56.1748775 255 79 163
67.626227 8.64428312 55.8108097 255 79 163
67.626227 9.13645732 55.6579712 255 79 163
68.0186996 10.6122586 55.7422351 255 79 163
68.2181785 10.5369729 55.6458389 255 79 163
68.2181785 10.8190344 55.7610783 255 79 163
68.7633608 10.9601709 55.4317664 255 79 163
68.0186996 10.9720681 55.9110005 255 79 163
68.9447927 10.3735661 55.0009635 255 79 163
68.2181785 11.0880455 55.9030096 255 79 163
68.0186996 11.6148312 56.3646703 255 79 163
69.121466 10.8609671 54.8023176 255 79 163
68.2181785 11.5748281 56.2462588 255 79 163
69.1857499 11.0899566 54.6763339 255 79 163
68.2181785 11.8008647 56.4475699 255 79 163
68.7633608 12.0316044 56.1728298 255 79 163
69.121466 11.2506558 54.9661765 255 79 163
68.0186996 11.9475353 56.6876881 255 79 163
69.121466 11.6135115 55.1649503 255 79 163
68.2181785 12.0800988 56.7380958 255 79 163
69.1857499 11.6144775 54.9334559 255 79 163
68.4126794 12.3160937 56.8746699 255 79 163
69.121466 12.2090408 55.59941 255 79 163
69.0289526 11.7827722 55.5113397 255 79 163
68.2181785 12.4479906 57.202902 255 79 163
68.7633608 12.8416685 57.1429854 255 79 163
68.0186996 12.5320749 57.4405555 255 79 163
69.121466 12.4957803 55.8634219 255 79 163
69.1857499 12.4729684 55.5664442 255 79 163
69.0289526 12.6417218 56.3034979 255 79 163
68.2181785 12.6963768 57.5805617 255 79 163
69.121466 12.9622335 56.3844769 255 79 163
68.4126794 12.9280804 57.7956339 255 79 163
68.2181785 12.9829646 58.0980861 255 79 163
68.7633608 13.4422911 58.2282351 255 79 163
68.0186996 13.0535161 58.393723 255 79 163
69.1857499 13.2090086 56.3766559 255 79 163
69.121466 13.2565654 56.7833503 255 79 163
68.2181785 13.2332507 58.6452222 255 79 163
69.121466 13.5492343 57.2474129 255 79 163
69.1857499 13.6139057 56.9673114 255 79 163
69.0289526 13.5167068 57.5880494 255 79 163
69.121466 13.8591349 57.8329038 255 79 163
68.0186996 13.5944927 59.9277863 255 79 163
68.2181785 13.6163686 59.7622405 255 79 163
69.1857499 14.2130966 58.1306203 255 79 163
69.121466 14.142398 58.4846579 255 79 163
69.0289526 14.1865411 59.1932245 255 79 163
68.2181785 13.7769199 60.4188896 255 79 163
69.121466 14.5378237 59.7107381 255 79 163
68.2181785 13.9358629 61.3522893 255 79 163
68.7633608 14.1707186 60.5591278 255 79 163
69.1857499 14.8128441 59.9960278 255 79 163
69.121466 14.7293171 60.5798057 255 79 163
68.0186996 13.9753107 62.904517 255 79 163
68.2181785 14.0320253 62.5282801 255 79 163
68.7633608 14.3978882 62.9739066 255 79 163
69.1857499 15.0338313 61.2443972 255 79 163
69.121466 14.868878 61.5530905 255 79 163
69.0289526 14.7161674 62.0396378 255 79 163
68.2181785 14.035234 63.314976 255 79 163
69.121466 14.9421511 62.8150673 255 79 163
68.2181785 13.9488508 64.4917329 255 79 163
69.1857499 15.1380165 63.3287428 255 79 163
69.121466 14.9260013 63.6572349 255 79 163
69.0289526 14.6877036 64.2522144 255 79 163
68.2181785 13.8051813 65.3914861 255 79 163
69.121466 14.8033224 64.9169837 255 79 163
68.2181785 13.6033092 66.2319156 255 79 163
69.1857499 14.9332959 65.3607916 255 79 163
68.7633608 14.1706642 65.3887314 255 79 163
69.121466 14.6389595 65.8157249 255 79 163
69.0289526 14.2692357 66.4811835 255 79 163
69.121466 14.2936025 67.0506078 255 79 163
68.2181785 12.8741021 68.0578844 255 79 163
68.2181785 13.214569 67.3470173 255 79 163
68.7633608 13.4421941 67.7195581 255 79 163
69.1857499 14.3947793 67.3607177 255 79 163
68.4126794 12.8497457 68.2901947 255 79 163
69.121466 13.9779915 67.8573267 255 79 163
68.2181785 12.5703989 68.5657964 255 79 163
68.7633608 12.8415322 68.8047984 255 79 163
69.1857499 13.9506335 68.379613 255 79 163
69.121466 13.6369697 68.5454352 255 79 163
69.0289526 13.361147 68.6364829 255 79 163
68.2181785 12.1811218 69.0918204 255 79 163
68.4126794 12.1236573 69.2996447 255 79 163
69.121466 13.2879545 69.1179372 255 79 163
68.2181785 11.7749142 69.5245921 255 79 163
68.7633608 12.0314304 69.7749152 255 79 163
68.0186996 11.5100747 69.6713331 255 79 163
69.121466 13.0221182 69.4868062 255 79 163
69.1857499 13.2720836 69.4867992 255 79 163
69.0289526 12.6829793 69.5961858 255 79 163
68.2181785 11.4390147 69.8089698 255 79 163
69.121466 12.5660912 70.0132811 255 79 163
68.2181785 10.9359159 70.1287827 255 79 163
68.0186996 10.7307794 70.1560374 255 79 163
69.1857499 12.5307504 70.3275903 255 79 163
69.121466 12.2188993 70.3397275 255 79 163
68.2181785 10.5992107 70.2791779 255 79 163
68.7633608 10.9599789 70.5159036 255 79 163
69.0289526 11.7895635 70.4313306 255 79 163
68.0186996 9.93120725 70.3753368 255 79 163
69.121466 11.6249742 70.7755805 255 79 163
68.2181785 10.0193767 70.4288787 255 79 163
69.1857499 11.6025138 71.0209997 255 79 163
68.0186996 9.5503921 70.3892611 255 79 163
68.2181785 9.71193172 70.4546577 255 79 163
69.121466 11.2200204 70.9960956 255 79 163
68.2181785 9.43429631 70.4466153 255 79 163
68.7633608 9.64831703 70.8135426 255 79 163
69.121466 10.8272518 71.1571473 255 79 163
69.1857499 11.0445464 71.2894041 255 79 163
68.0186996 8.81349414 70.2522552 255 79 163
68.2181785 8.84647035 70.3305688 255 79 163
69.121466 10.0507347 71.3355512 255 79 163
69.0289526 10.4029588 71.0775228 255 79 163
68.0186996 8.47911119 70.1160955 255 79 163
68.2181785 8.58653335 70.2349979 255 79 163
69.1857499 9.93682195 71.546944 255 79 163
69.121466 9.65462623 71.3587191 255 79 163
68.2181785 8.3368055 70.1162533 255 79 163
68.7633608 8.3366426 70.5159148 255 79 163
69.121466 9.25836224 71.3369707 255 79 163
69.1857499 9.37749256 71.5482863 255 79 163
69.0289526 8.90130331 71.0792866 255 79 163
68.0186996 7.84361713 69.717022 255 79 163
68.2181785 7.83621921 69.7926714 255 79 163
69.121466 8.48096014 71.1611596 255 79 163
68.0186996 7.5261264 69.4400917 255 79 163
68.2181785 7.62384393 69.6176097 255 79 163
69.1857499 8.29590205 71.3063414 255 79 163
69.121466 8.12564082 71.018967 255 79 163
68.2181785 7.35927059 69.3641342 255 79 163
68.7633608 7.26518592 69.7749336 255 79 163
69.121466 7.79182138 70.8470987 255 79 163
69.1857499 7.81277114 71.0865815 255 79 163
69.0289526 7.5785064 70.4820516 255 79 163
68.4126794 7.07124874 69.1830098 255 79 163
68.0186996 6.93706498 68.7576436 255 79 163
68.2181785 6.97329318 68.9137683 255 79 163
68.7633608 6.45507149 68.8048086 255 79 163
69.121466 7.18088581 70.4259484 255 79 163
69.1857499 6.96875605 70.5090118 255 79 163
69.121466 6.91403443 70.1930816 255 79 163
68.2181785 6.73495711 68.5790465 255 79 163
69.121466 6.58920676 69.8629687 255 79 163
69.1857499 6.55715656 70.1209814 255 79 163
69.0289526 6.52955448 69.495329 255 79 163
68.4126794 6.45224956 68.2994663 255 79 163
68.0186996 6.40385255 67.8850411 255 79 163
68.2181785 6.4300771 68.0718272 255 79 163
68.7633608 5.85441017 67.7195744 255 79 163
69.121466 6.15410762 69.3261265 255 79 163
68.2181785 6.18557984 67.5826899 255 79 163
69.1857499 5.84822027 69.2368417 255 79 163
69.121466 5.87561162 68.9127871 255 79 163
69.0289526 5.85704991 68.5001504 255 79 163
69.121466 5.54644658 68.3334651 255 79 163
68.2181785 5.8798829 66.8223026 255 79 163
69.1857499 5.23873561 68.1614733 255 79 163
69.121466 5.27192766 67.7502489 255 79 163
69.1857499 4.84970296 67.2168974 255 79 163
69.121466 4.96813775 66.947241 255 79 163
68.0186996 5.51853029 65.1907743 255 79 163
68.2181785 5.55458644 65.6874159 255 79 163
68.7633608 5.12592476 65.3886934 255 79 163
69.0289526 5.00787608 66.4128398 255 79 163
68.2181785 5.38514866 64.7731633 255 79 163
69.121466 4.63482466 65.7103457 255 79 163
68.7633608 4.99429205 64.5516523 255 79 163
69.1857499 4.33400164 65.1907085 255 79 163
69.121466 4.47284787 64.7712826 255 79 163
68.0186996 5.32480549 63.2810877 255 79 163
68.2181785 5.27208817 63.5986475 255 79 163
68.7633608 4.89870871 62.973915 255 79 163
68.7633608 4.9213961 63.7456085 255 79 163
68.2181785 5.25783569 62.8120719 255 79 163
69.121466 4.36405972 63.5108206 255 79 163
69.1857499 4.15493197 63.1305926 255 79 163
68.2181785 5.32746291 61.6342302 255 79 163
69.121466 4.35692622 62.668587 255 79 163
69.0289526 4.58746794 61.943518 255 79 163
68.2181785 5.45817876 60.7294957 255 79 163
69.121466 4.44390315 61.407086 255 79 163
69.1857499 4.28371265 61.0871482 255 79 163
68.2181785 5.65004018 59.873197 255 79 163
69.121466 4.58332892 60.4936551 255 79 163
69.1857499 4.50989968 59.8843782 255 79 163
69.121466 4.77951519 59.631968 255 79 163
68.0186996 6.23110057 58.4200371 255 79 163
68.2181785 6.01991198 58.7518166 255 79 163
68.7633608 5.85430379 58.2282394 255 79 163
69.0289526 5.12639698 59.142143 255 79 163
68.2181785 6.34603899 58.0343955 255 79 163
69.121466 5.18466198 58.4077759 255 79 163
68.4126794 6.39199101 57.7534618 255 79 163
68.2181785 6.63776105 57.5196761 255 79 163
68.7633608 6.45493086 57.1429818 255 79 163
69.1857499 5.14890477 57.9809735 255 79 163
69.121466 5.50719407 57.6911612 255 79 163
69.0289526 5.82942322 57.4970175 255 79 163
68.2181785 7.02915407 56.9620557 255 79 163
69.121466 5.82944422 57.1095697 255 79 163
68.4126794 7.11135974 56.717735 255 79 163
68.2181785 7.42312701 56.5184594 255 79 163
68.7633608 7.26498907 56.1728331 255 79 163
68.0186996 7.62811369 56.4123238 255 79 163
69.1857499 5.86364738 56.6879482 255 79 163
68.2181785 7.71582997 56.2511875 255 79 163
69.121466 6.23147931 56.5170262 255 79 163
69.0289526 6.58369228 56.3867893 255 79 163
68.0186996 8.36185282 55.8908125 255 79 163
68.2181785 8.20188776 55.9069383 255 79 163
69.121466 6.68002995 55.9867643 255 79 163
68.2181785 8.54380126 55.7309956 255 79 163
68.7633608 8.33640869 55.4317742 255 79 163
68.0186996 8.75099951 55.7171438 255 79 163
69.1857499 6.69244707 55.6902522 255 79 163
69.121466 7.02155397 55.6567616 255 79 163
69.0289526 7.46774715 55.5450407 255 79 163
68.2181785 8.79406627 55.6340377 255 79 163
69.121466 7.60610415 55.2132259 255 79 163
69.1857499 7.65196147 54.9510078 255 79 163
69.121466 8.08409603 54.9479276 255 79 163
68.9447927 8.92300768 55.0009684 255 79 163
69.121466 8.45592812 54.7951201 255 79 163
69.1857499 8.24843115 54.6596011 255 79 163
68.682245 11.3848934 55.7550356 255 79 163
68.682245 11.6457312 55.9412318 255 79 163
68.682245 13.6457171 58.9268916 255 79 163
68.682245 13.8359445 59.5039544 255 79 163
68.8630026 14.0489124 59.5739583 255 79 163
68.7633608 13.9861578 59.756956 255 79 163
68.7633608 14.0541563 60.023111 255 79 163
68.7633608 14.2707947 61.1575282 255 79 163
68.7633608 14.3097614 61.4580964 255 79 163
68.682245 14.2589775 61.6921243 255 79 163
68.8630026 14.4405182 61.6487973 255 79 163
68.682245 14.3044808 62.2937584 255 79 163
68.7633608 14.3936034 63.3095292 255 79 163
68.7633608 14.3882468 63.4772858 255 79 163
68.682245 14.2980554 63.7674143 255 79 163
68.8630026 14.4854946 63.7309382 255 79 163
68.682245 14.2472164 64.3687003 255 79 163
68.8630026 14.4133028 64.543948 255 79 163
68.7633608 14.2850373 64.6866143 255 79 163
68.7633608 14.2514534 64.9212522 255 79 163
68.682245 13.8673443 66.3358833 255 79 163
68.8630026 13.9936157 66.5615904 255 79 163
68.7633608 13.8666796 66.602531 255 79 163
68.5963125 13.6314385 66.852279 255 79 163
68.7633608 13.6666057 67.1816023 255 79 163
68.682245 11.5746181 70.0602392 255 79 163
68.682245 10.5050431 70.6091658 255 79 163
68.682245 10.1837721 70.6878684 255 79 163
68.682245 8.8783549 70.6341109 255 79 163
68.682245 7.74219761 70.075125 255 79 163
68.7633608 5.51343399 66.8583763 255 79 163
68.682245 5.5109176 66.6078312 255 79 163
68.8630026 5.35006759 66.7123666 255 79 163
68.682245 5.34524685 66.0244072 255 79 163
68.2181785 5.31216282 64.1605065 255 79 163
68.7633608 4.94984914 64.1307743 255 79 163
69.121466 4.401114 64.1131519 255 79 163
68.682245 4.98735889 62.3921037 255 79 163
68.682245 5.0282609 61.7901778 255 79 163
68.8630026 4.85414901 61.6679814 255 79 163
68.7633608 4.97823764 61.5332417 255 79 163
68.7633608 5.01881556 61.2074733 255 79 163
68.7633608 5.12588741 60.5590834 255 79 163
68.7633608 5.23921886 60.0364281 255 79 163
68.7633608 5.30511064 59.7768575 255 79 163
68.682245 5.451199 59.5359486 255 79 163
68.8630026 5.24865478 59.5705451 255 79 163
68.682245 5.63949598 58.9583608 255 79 163
68.682245 7.62729559 55.9596269 255 79 163
68.682245 7.88656094 55.7716339 255 79 163
68.1685494 13.3432899 58.9768281 255 79 163
68.1685494 13.9760063 61.9030776 255 79 163
68.1685494 14.0002894 63.7019566 255 79 163
68.1187013 13.3366282 66.9398653 255 79 163
68.1685494 5.72726942 66.2827191 255 79 163
68.1685494 5.90862857 59.1000309 255 79 163
54.0225409 43.9761692 0 255 79 163
5.91169096 43.9761692 -2.22044605e-16 255 79 163
5.91169096 44.3340163 0.0403196774 255 79 163
5.91169096 44.6739194 0.159256913 255 79 163
5.91169096 44.9788343 0.350847696 255 79 163
5.91169096 45.2334715 0.605484866 255 79 163
5.91169096 45.4250623 0.910399851 255 79 163
5.91169096 45.5439995 1.25030294 255 79 163
5.91169096 45.5843192 1.60814997 255 79 163
52.4143909 45.5843192 1.60814997 255 79 163
52.9281792 45.5000353 1.09436166 255 79 163
53.3459847 45.2870008 0.676556193 255 79 163
53.655154 44.99923 0.367386919 255 79 163
53.8436462 44.7133095 0.1788947 255 79 163
53.9605261 44.4184499 0.0620147476 255 79 163
54.0069617 44.1994729 0.0155791494 255 79 163
52.4143909 45.5843192 44.119328 218 222 230
5.91169096 45.5843192 44.119328 218 222 230
5.91169096 45.5843192 1.60814997 218 222 230
52.4143909 45.5843192 1.60814997 218 222 230
52.4143909 45.5843192 44.119328 255 79 163
52.7722379 45.5439995 44.119328 255 79 163
53.112141 45.4250623 44.119328 255 79 163
53.417056 45.2334715 44.119328 255 79 163
53.6716932 44.9788343 44.119328 255 79 163
53.863284 44.6739194 44.119328 255 79 163
53.9822212 44.3340163 44.119328 255 79 163
54.0225409 43.9761692 44.119328 255 79 163
54.0225409 43.9761692 0 255 79 163
52.4143909 45.5843192 1.60814997 255 79 163
52.9281792 45.5000353 1.09436166 255 79 163
53.3459847 45.2870008 0.676556193 255 79 163
53.655154 44.99923 0.367386919 255 79 163
53.8436462 44.7133095 0.1788947 255 79 163
53.9605261 44.4184499 0.0620147476 255 79 163
54.0069617 44.1994729 0.0155791494 255 79 163
3 5 3 2
3 5 4 3
3 36 5 37
3 38 37 5
3 35 5 36
3 39 38 5
3 34 5 35
3 6 39 5
3 7 6 5
3 8 7 5
3 9 5 2
3 9 8 5
3 10 9 2
3 11 10 2
3 1 24 23
3 1 25 24
3 1 26 25
3 1 27 26
3 1 28 27
3 1 29 28
3 1 30 29
3 1 31 30
3 0 1 23
3 0 16 15
3 0 17 16
3 0 18 17
3 0 19 18
3 0 20 19
3 0 21 20
3 0 22 21
3 0 23 22
3 0 15 2
3 15 14 2
3 14 13 2
3 13 12 2
3 12 11 2
3 5 32 1
3 32 31 1
3 5 33 32
3 5 34 33
3 51 48 49
3 51 49 50
3 44 45 46
3 44 46 47
3 44 47 48
3 44 48 51
3 43 44 51
3 42 51 52
3 42 43 51
3 41 42 52
3 54 55 40
3 54 56 55
3 54 57 56
3 54 58 57
3 54 59 58
3 54 60 59
3 54 61 60
3 53 40 41
3 53 54 40
3 53 41 52
3 72 62 63
3 72 71 62
3 73 63 64
3 73 72 63
3 74 64 65
3 74 73 64
3 75 65 66
3 75 74 65
3 76 66 67
3 76 75 66
3 77 67 68
3 77 76 67
3 70 68 69
3 70 77 68
3 88 89 95
3 87 95 94
3 87 88 95
3 86 94 93
3 86 87 94
3 85 93 92
3 85 86 93
3 84 85 92
3 83 92 91
3 83 84 92
3 82 91 90
3 82 83 91
3 81 82 90
3 80 90 78
3 80 81 90
3 79 80 78
3 104 105 111
3 103 111 110
3 103 104 111
3 102 110 109
3 102 103 110
3 101 109 108
3 101 102 109
3 100 108 107
3 100 101 108
3 99 107 106
3 99 100 107
3 98 106 96
3 98 99 106
3 97 98 96
3 119 120 121
3 119 121 127
3 118 127 126
3 118 119 127
3 117 126 125
3 117 118 126
3 116 125 124
3 116 117 125
3 115 124 123
3 115 116 124
3 114 123 122
3 114 115 123
3 113 122 112
3 113 114 122
3 130 132 131
3 130 133 132
3 130 134 133
3 128 135 134
3 128 136 135
3 128 134 130
3 129 128 130
3 137 129 130
3 140 137 138
3 140 138 139
3 143 140 141
3 143 141 142
3 143 137 140
3 144 137 143
3 145 129 137
3 145 137 144
3 197 147 146
3 155 153 152
3 155 154 153
3 190 229 189
3 196 187 195
3 188 187 196
3 230 150 149
3 231 148 147
3 231 149 148
3 231 230 149
3 231 147 197
3 232 197 198
3 232 231 197
3 233 230 231
3 233 232 198
3 233 231 232
3 234 230 233
3 235 233 198
3 235 234 233
3 235 236 234
3 237 198 199
3 237 235 198
3 238 155 152
3 238 151 150
3 238 152 151
3 238 150 230
3 239 237 199
3 239 236 235
3 239 235 237
3 240 156 155
3 240 155 238
3 241 238 230
3 241 156 240
3 241 240 238
3 242 230 234
3 242 234 236
3 242 241 230
3 243 236 239
3 244 199 200
3 245 239 199
3 245 243 239
3 245 246 243
3 245 199 244
3 247 156 241
3 247 241 242
3 247 242 236
3 248 156 247
3 248 157 156
3 249 244 200
3 249 246 245
3 249 245 244
3 250 247 236
3 250 248 247
3 250 157 248
3 251 249 200
3 251 200 201
3 252 251 201
3 252 249 251
3 252 246 249
3 253 250 236
3 254 253 236
3 254 236 243
3 254 243 246
3 255 253 158
3 255 158 157
3 255 250 253
3 255 157 250
3 256 246 252
3 257 252 201
3 257 256 252
3 257 258 256
3 259 253 254
3 259 158 253
3 259 254 246
3 260 257 201
3 260 201 202
3 261 259 246
3 262 159 158
3 262 261 159
3 262 158 259
3 262 259 261
3 263 246 256
3 263 256 258
3 263 261 246
3 264 258 257
3 264 257 260
3 264 260 202
3 265 159 261
3 265 263 258
3 265 261 263
3 266 258 264
3 267 264 202
3 267 266 264
3 267 268 266
3 269 267 202
3 269 202 203
3 270 160 159
3 270 159 265
3 271 160 270
3 271 265 258
3 271 270 265
3 272 258 266
3 272 266 268
3 272 271 258
3 273 269 203
3 273 267 269
3 273 268 267
3 274 160 271
3 274 272 268
3 274 271 272
3 275 268 273
3 276 273 203
3 276 275 273
3 276 277 275
3 278 161 160
3 278 160 274
3 279 161 278
3 279 274 268
3 279 278 274
3 280 268 275
3 280 275 277
3 280 279 268
3 281 276 203
3 282 281 283
3 282 277 276
3 282 276 281
3 284 283 281
3 284 203 204
3 284 281 203
3 285 161 279
3 285 280 277
3 285 279 280
3 286 283 284
3 286 284 204
3 287 285 277
3 287 162 161
3 287 161 285
3 288 162 287
3 288 287 277
3 289 288 277
3 289 282 283
3 289 277 282
3 290 283 286
3 291 290 286
3 291 286 204
3 291 292 290
3 293 291 204
3 293 292 291
3 293 204 205
3 294 288 289
3 294 289 283
3 294 162 288
3 295 290 292
3 295 294 283
3 295 283 290
3 296 292 293
3 296 293 205
3 297 295 292
3 297 163 162
3 297 162 294
3 297 294 295
3 298 292 296
3 299 296 205
3 299 300 298
3 299 298 296
3 301 299 205
3 301 300 299
3 301 205 206
3 302 163 297
3 302 297 292
3 303 292 298
3 303 298 300
3 303 302 292
3 304 300 301
3 304 301 206
3 305 163 302
3 305 302 303
3 305 303 300
3 306 300 304
3 307 304 206
3 307 308 306
3 307 306 304
3 309 307 206
3 309 206 207
3 310 164 163
3 310 163 305
3 310 305 300
3 311 164 310
3 311 310 300
3 312 300 306
3 312 306 308
3 312 311 300
3 313 308 307
3 313 309 207
3 313 307 309
3 314 312 308
3 314 311 312
3 314 164 311
3 315 308 313
3 316 317 315
3 316 313 207
3 316 315 313
3 318 207 208
3 318 316 207
3 319 164 314
3 319 165 164
3 319 314 308
3 320 165 319
3 320 319 308
3 321 315 317
3 321 308 315
3 321 320 308
3 322 318 208
3 322 317 316
3 322 316 318
3 323 317 322
3 324 321 317
3 324 165 320
3 324 320 321
3 325 323 322
3 325 322 208
3 325 326 323
3 327 325 208
3 327 208 209
3 328 324 317
3 328 166 165
3 328 165 324
3 329 166 328
3 329 328 317
3 330 317 323
3 330 329 317
3 330 323 326
3 331 325 327
3 331 327 209
3 331 326 325
3 332 326 331
3 333 166 329
3 333 329 330
3 333 330 326
3 334 331 209
3 334 335 332
3 334 332 331
3 336 334 209
3 336 209 210
3 337 335 334
3 337 334 336
3 337 336 210
3 338 326 332
3 338 332 335
3 339 167 166
3 339 333 326
3 339 326 338
3 339 166 333
3 340 335 337
3 341 337 210
3 341 342 340
3 341 340 337
3 343 338 335
3 343 167 339
3 343 339 338
3 344 341 210
3 344 210 211
3 345 335 340
3 345 340 342
3 345 343 335
3 346 342 341
3 346 341 344
3 346 344 211
3 347 167 343
3 347 345 342
3 347 343 345
3 348 342 346
3 349 168 167
3 349 167 347
3 350 351 348
3 350 346 211
3 350 348 346
3 352 211 212
3 352 350 211
3 353 168 349
3 353 347 342
3 353 349 347
3 354 348 351
3 354 342 348
3 354 353 342
3 355 352 212
3 355 351 350
3 355 350 352
3 356 168 353
3 356 353 354
3 356 354 351
3 357 351 355
3 358 212 213
3 359 355 212
3 359 360 357
3 359 357 355
3 359 212 358
3 361 169 168
3 361 168 356
3 362 356 351
3 362 169 361
3 362 361 356
3 363 358 213
3 363 360 359
3 363 359 358
3 364 362 351
3 365 362 364
3 365 170 169
3 365 169 362
3 365 364 170
3 366 357 360
3 366 364 351
3 366 351 357
3 367 213 214
3 368 360 363
3 369 363 213
3 369 368 363
3 369 213 367
3 369 370 368
3 371 366 360
3 371 364 366
3 371 170 364
3 372 370 369
3 372 369 367
3 373 367 214
3 373 372 367
3 373 214 215
3 374 171 170
3 374 170 371
3 375 371 360
3 375 374 371
3 375 171 374
3 376 373 215
3 376 370 372
3 376 372 373
3 377 360 368
3 377 375 360
3 377 368 370
3 378 370 376
3 379 171 375
3 379 375 377
3 379 377 370
3 380 215 216
3 381 376 215
3 381 382 378
3 381 378 376
3 381 215 380
3 383 172 171
3 383 171 379
3 384 379 370
3 384 383 379
3 385 382 381
3 385 381 380
3 386 380 216
3 386 385 380
3 386 216 217
3 387 384 370
3 388 173 172
3 388 387 173
3 388 383 384
3 388 384 387
3 388 172 383
3 389 378 382
3 389 370 378
3 389 387 370
3 390 382 385
3 390 386 217
3 390 385 386
3 391 382 390
3 392 173 387
3 392 387 389
3 392 389 382
3 393 390 217
3 393 394 391
3 393 391 390
3 395 217 218
3 395 393 217
3 396 174 173
3 396 173 392
3 397 174 396
3 397 392 382
3 397 396 392
3 398 397 382
3 398 391 394
3 398 382 391
3 399 394 393
3 399 395 218
3 399 393 395
3 400 397 398
3 400 398 394
3 400 174 397
3 401 394 399
3 402 399 218
3 402 401 399
3 402 403 401
3 404 174 400
3 404 175 174
3 405 402 218
3 405 218 219
3 406 404 400
3 406 400 394
3 406 175 404
3 407 403 402
3 407 405 219
3 407 402 405
3 408 406 394
3 409 175 406
3 409 406 408
3 409 408 176
3 409 176 175
3 410 408 394
3 410 401 403
3 410 394 401
3 411 403 407
3 412 407 219
3 412 411 407
3 412 413 411
3 414 408 410
3 414 176 408
3 414 410 403
3 415 413 412
3 415 219 220
3 415 412 219
3 416 177 176
3 416 176 414
3 417 177 416
3 417 416 414
3 417 414 403
3 418 413 415
3 418 415 220
3 419 403 411
3 419 411 413
3 419 417 403
3 420 413 418
3 421 177 417
3 421 417 419
3 421 419 413
3 422 418 220
3 422 423 420
3 422 420 418
3 424 422 220
3 424 423 422
3 424 220 221
3 425 178 177
3 425 177 421
3 425 421 413
3 426 178 425
3 426 425 413
3 427 413 420
3 427 420 423
3 427 426 413
3 428 423 424
3 428 424 221
3 429 423 428
3 430 427 423
3 430 426 427
3 430 178 426
3 431 428 221
3 431 429 428
3 431 432 429
3 433 430 423
3 433 423 429
3 433 429 432
3 434 179 178
3 434 178 430
3 434 430 433
3 434 433 432
3 435 431 221
3 436 432 431
3 436 435 437
3 436 431 435
3 438 221 222
3 438 435 221
3 438 437 435
3 439 179 434
3 439 434 432
3 440 437 438
3 440 438 222
3 441 436 437
3 441 439 432
3 441 432 436
3 442 437 440
3 443 179 439
3 443 441 437
3 443 439 441
3 444 445 442
3 444 440 222
3 444 442 440
3 446 445 444
3 446 444 222
3 446 222 223
3 447 179 443
3 447 443 437
3 447 180 179
3 448 445 446
3 448 446 223
3 449 447 437
3 449 180 447
3 450 442 445
3 450 449 437
3 450 437 442
3 451 445 448
3 452 448 223
3 452 451 448
3 452 453 451
3 454 180 449
3 454 449 450
3 454 450 445
3 455 453 452
3 455 452 223
3 455 223 224
3 456 453 455
3 456 455 224
3 457 181 180
3 457 180 454
3 457 454 445
3 458 181 457
3 458 457 445
3 459 458 445
3 459 445 451
3 459 451 453
3 460 453 456
3 461 460 456
3 461 456 224
3 461 462 460
3 463 458 459
3 463 181 458
3 463 459 453
3 464 461 224
3 464 224 225
3 465 462 461
3 465 464 225
3 465 461 464
3 466 182 181
3 466 181 463
3 467 453 460
3 467 460 462
3 468 182 466
3 468 466 463
3 468 453 467
3 468 463 453
3 469 462 465
3 470 465 225
3 470 471 469
3 470 469 465
3 472 225 226
3 472 470 225
3 473 468 467
3 473 182 468
3 473 467 462
3 474 462 469
3 474 469 471
3 474 473 462
3 475 471 470
3 475 472 226
3 475 470 472
3 476 182 473
3 476 473 474
3 476 474 471
3 477 471 475
3 478 479 477
3 478 477 475
3 478 475 226
3 480 182 476
3 480 183 182
3 481 478 226
3 481 226 227
3 482 480 476
3 482 476 471
3 482 183 480
3 483 471 477
3 483 477 479
3 483 482 471
3 484 479 478
3 484 478 481
3 484 481 227
3 485 183 482
3 485 482 483
3 485 483 479
3 486 479 484
3 487 484 227
3 487 488 486
3 487 486 484
3 489 487 227
3 489 227 228
3 490 183 485
3 490 184 183
3 491 485 479
3 491 184 490
3 491 490 485
3 492 486 488
3 492 491 479
3 492 479 486
3 493 488 487
3 493 487 489
3 493 489 228
3 494 492 488
3 494 184 491
3 494 491 492
3 495 488 493
3 496 493 228
3 496 495 493
3 496 497 495
3 498 496 228
3 498 228 229
3 499 185 184
3 499 184 494
3 500 494 488
3 500 185 499
3 500 499 494
3 501 229 190
3 501 192 497
3 501 190 191
3 501 191 192
3 501 498 229
3 501 497 496
3 501 496 498
3 502 488 495
3 502 495 497
3 502 500 488
3 503 502 497
3 503 185 500
3 503 500 502
3 504 186 185
3 504 185 503
3 505 503 497
3 505 504 503
3 506 497 192
3 506 192 193
3 506 193 194
3 506 194 195
3 506 195 187
3 506 505 497
3 507 186 504
3 507 187 186
3 507 504 505
3 507 506 187
3 507 505 506
3 511 513 512
3 511 514 513
3 511 515 514
3 516 515 511
3 517 516 511
3 518 517 511
3 519 518 511
3 510 519 511
3 508 509 519
3 508 519 510
3 531 520 521
3 531 530 520
3 532 521 522
3 532 531 521
3 533 522 523
3 533 532 522
3 534 523 524
3 534 533 523
3 535 524 525
3 535 534 524
3 536 525 526
3 536 535 525
3 537 526 527
3 537 536 526
3 529 527 528
3 529 537 527
3 540 539 538
3 542 541 540
3 551 542 540
3 543 542 551
3 550 543 551
3 549 543 550
3 545 544 543
3 548 543 549
3 546 545 543
3 547 543 548
3 547 546 543
3 551 540 538
3 560 561 569
3 559 569 568
3 559 560 569
3 558 568 567
3 558 559 568
3 557 567 566
3 557 558 567
3 556 565 564
3 556 566 565
3 556 557 566
3 555 564 563
3 555 556 564
3 554 563 562
3 554 555 563
3 553 562 552
3 553 554 562
3 577 572 578
3 579 578 572
3 576 572 577
3 580 572 573
3 580 579 572
3 575 570 572
3 575 572 576
3 581 580 573
3 574 570 575
3 582 581 573
3 609 570 574
3 608 570 609
3 583 582 573
3 607 570 608
3 584 583 573
3 606 570 607
3 585 584 573
3 605 570 606
3 586 585 573
3 587 586 573
3 588 587 573
3 589 588 573
3 590 589 573
3 571 591 590
3 571 592 591
3 571 593 592
3 571 594 593
3 571 595 594
3 571 596 595
3 571 597 596
3 571 598 597
3 571 599 598
3 571 600 599
3 571 601 600
3 571 602 601
3 571 590 573
3 571 570 602
3 602 570 603
3 603 570 604
3 604 570 605
3 616 611 615
3 618 616 617
3 618 611 616
3 614 610 611
3 614 618 619
3 614 619 620
3 614 611 618
3 612 610 614
3 613 612 614
3 622 623 624
3 621 622 624
3 625 633 632
3 625 632 627
3 626 633 625
3 630 628 627
3 630 627 632
3 631 630 632
3 629 628 630
3 643 645 646
3 643 646 647
3 643 647 648
3 643 648 649
3 643 649 650
3 643 650 651
3 639 641 640
3 638 641 639
3 636 638 637
3 636 641 638
3 634 642 641
3 634 643 642
3 634 645 643
3 634 641 636
3 654 653 645
3 635 654 645
3 635 645 634
3 655 635 656
3 655 654 635
3 643 652 644
3 643 651 652
3 663 662 666
3 664 663 666
3 661 666 662
3 660 666 661
3 665 666 667
3 665 664 666
3 658 665 667
3 659 666 660
3 668 658 667
3 657 658 668
3 671 739 705
3 672 739 671
3 672 738 739
3 673 738 672
3 673 737 738
3 674 737 673
3 674 736 737
3 675 736 674
3 676 736 675
3 676 735 736
3 677 735 676
3 677 734 735
3 678 734 677
3 678 733 734
3 679 733 678
3 679 732 733
3 680 731 732
3 680 732 679
3 681 731 680
3 681 730 731
3 682 729 730
3 682 730 681
3 683 729 682
3 683 728 729
3 684 726 727
3 684 727 728
3 684 728 683
3 685 726 684
3 685 725 726
3 686 723 724
3 686 724 725
3 686 725 685
3 687 723 686
3 687 722 723
3 688 721 722
3 688 722 687
3 689 721 688
3 689 720 721
3 690 720 689
3 691 719 720
3 691 720 690
3 692 719 691
3 692 718 719
3 693 718 692
3 694 717 718
3 694 718 693
3 695 717 694
3 695 716 717
3 696 715 716
3 696 716 695
3 697 715 696
3 697 714 715
3 698 712 713
3 698 713 714
3 698 714 697
3 699 711 712
3 699 712 698
3 700 711 699
3 700 710 711
3 701 710 700
3 701 708 709
3 701 709 710
3 702 707 708
3 702 708 701
3 703 707 702
3 703 706 707
3 704 670 706
3 704 706 703
3 669 670 704
3 748 749 750
3 748 750 756
3 747 756 755
3 747 748 756
3 746 755 754
3 746 747 755
3 745 754 753
3 745 746 754
3 744 753 752
3 744 745 753
3 743 752 751
3 743 744 752
3 742 751 740
3 742 743 751
3 741 742 740
3 758 759 760
3 757 758 760
3 814 761 762
3 770 767 768
3 770 768 769
3 807 806 847
3 813 812 804
3 805 813 804
3 848 815 814
3 849 762 763
3 849 763 764
3 849 848 814
3 849 814 762
3 850 849 851
3 850 848 849
3 852 848 850
3 852 816 815
3 852 815 848
3 853 764 765
3 853 765 766
3 853 766 767
3 853 849 764
3 853 851 849
3 854 816 852
3 854 850 851
3 854 852 850
3 855 817 816
3 856 767 770
3 856 853 767
3 856 851 853
3 857 816 854
3 857 855 816
3 858 856 770
3 858 770 771
3 859 857 860
3 859 855 857
3 861 856 858
3 861 851 856
3 862 818 817
3 862 855 859
3 862 817 855
3 863 851 861
3 864 859 860
3 864 818 862
3 864 862 859
3 865 771 772
3 865 858 771
3 865 772 863
3 865 861 858
3 865 863 861
3 866 864 860
3 867 860 868
3 867 863 772
3 867 868 863
3 869 864 866
3 869 818 864
3 869 866 870
3 871 819 818
3 871 818 869
3 872 860 867
3 873 872 867
3 873 772 773
3 873 867 772
3 873 773 872
3 874 860 872
3 874 866 860
3 874 870 866
3 875 871 869
3 875 819 871
3 875 869 870
3 876 870 874
3 876 874 872
3 876 872 773
3 877 875 870
3 878 819 875
3 878 877 879
3 878 875 877
3 880 819 878
3 880 820 819
3 881 773 774
3 881 876 773
3 882 870 876
3 882 876 881
3 882 881 774
3 883 878 879
3 883 880 878
3 883 820 880
3 884 870 882
3 885 774 775
3 885 775 884
3 885 884 882
3 885 882 774
3 886 877 870
3 886 879 877
3 886 870 884
3 887 884 775
3 887 879 886
3 887 886 884
3 888 821 820
3 889 888 820
3 890 775 776
3 890 887 775
3 891 879 887
3 891 890 776
3 891 887 890
3 892 891 776
3 893 888 889
3 893 821 888
3 894 892 776
3 895 893 896
3 895 822 821
3 895 821 893
3 897 776 777
3 897 894 776
3 898 897 777
3 898 896 897
3 899 823 822
3 899 822 900
3 899 900 901
3 902 777 778
3 902 898 777
3 903 902 778
3 904 903 778
3 905 823 899
3 905 899 901
3 906 904 778
3 907 824 823
3 908 778 779
3 908 906 778
3 909 908 779
3 910 909 779
3 911 824 907
3 912 910 779
3 913 824 911
3 913 825 824
3 914 912 779
3 914 915 912
3 914 779 780
3 916 915 914
3 916 914 780
3 917 916 780
3 918 917 780
3 919 920 921
3 919 825 920
3 919 826 825
3 922 780 781
3 922 918 780
3 923 919 921
3 924 922 781
3 925 826 919
3 925 923 926
3 925 919 923
3 927 781 782
3 927 924 781
3 928 921 924
3 928 927 782
3 928 924 927
3 929 923 921
3 929 926 923
3 929 921 928
3 930 925 926
3 930 827 826
3 930 826 925
3 931 930 926
3 932 928 782
3 932 926 929
3 932 929 928
3 933 827 930
3 933 931 934
3 933 930 931
3 935 827 933
3 935 828 827
3 936 926 932
3 937 932 782
3 937 782 783
3 937 783 936
3 937 936 932
3 938 931 926
3 938 934 931
3 938 926 936
3 939 828 935
3 939 935 933
3 940 936 783
3 940 938 936
3 940 934 938
3 941 828 939
3 942 829 828
3 942 828 941
3 943 783 784
3 943 940 783
3 944 943 784
3 944 934 940
3 944 940 943
3 945 941 946
3 945 942 941
3 945 829 942
3 947 934 944
3 948 830 829
3 949 946 947
3 949 947 944
3 949 944 784
3 950 948 829
3 950 829 945
3 951 949 784
3 951 784 785
3 952 830 948
3 952 831 830
3 953 948 950
3 953 952 948
3 954 949 951
3 954 946 949
3 955 831 952
3 955 953 956
3 955 952 953
3 957 946 954
3 958 954 951
3 958 951 785
3 958 957 954
3 958 785 786
3 958 786 957
3 959 831 955
3 959 832 831
3 960 959 955
3 961 956 962
3 961 957 786
3 961 962 957
3 963 832 959
3 963 833 832
3 964 959 960
3 964 963 959
3 965 961 786
3 965 786 787
3 966 956 961
3 966 961 965
3 967 833 963
3 967 964 968
3 967 963 964
3 969 956 966
3 970 969 966
3 970 787 788
3 970 965 787
3 970 966 965
3 970 788 969
3 971 956 969
3 972 833 967
3 972 834 833
3 973 972 967
3 974 968 971
3 974 969 788
3 974 971 969
3 975 834 972
3 975 835 834
3 976 972 973
3 976 975 972
3 977 788 789
3 977 974 788
3 978 968 974
3 978 974 977
3 979 976 980
3 979 835 975
3 979 975 976
3 981 968 978
3 982 789 790
3 982 977 789
3 982 790 981
3 982 978 977
3 982 981 978
3 983 968 981
3 984 979 980
3 985 836 835
3 986 979 984
3 986 984 987
3 986 985 835
3 986 835 979
3 988 983 981
3 988 980 983
3 988 981 790
3 989 790 791
3 989 988 790
3 990 988 989
3 990 980 988
3 991 836 985
3 991 986 987
3 991 985 986
3 992 980 990
3 993 990 989
3 993 989 791
3 993 792 992
3 993 791 792
3 993 992 990
3 994 984 980
3 994 980 992
3 994 987 984
3 995 991 987
3 996 837 836
3 997 836 991
3 997 991 995
3 997 995 998
3 997 996 836
3 999 992 792
3 999 987 994
3 999 994 992
3 1000 837 996
3 1000 997 998
3 1000 996 997
3 1001 999 792
3 1001 792 793
3 1002 999 1001
3 1002 987 999
3 1002 1001 793
3 1003 995 987
3 1003 998 995
3 1003 987 1002
3 1004 1002 793
3 1004 1003 1002
3 1004 998 1003
3 1005 837 1000
3 1005 1000 998
3 1005 838 837
3 1006 793 794
3 1006 1004 793
3 1007 998 1004
3 1007 1006 794
3 1007 1004 1006
3 1008 794 795
3 1008 1007 794
3 1009 1008 795
3 1009 1007 1008
3 1010 1011 1012
3 1010 838 1011
3 1010 839 838
3 1013 1009 795
3 1014 1010 1012
3 1014 839 1010
3 1015 1013 795
3 1016 1014 1012
3 1017 795 796
3 1017 1012 1015
3 1017 1015 795
3 1018 1017 796
3 1018 1016 1012
3 1018 1012 1017
3 1019 840 839
3 1019 839 1020
3 1019 1020 1021
3 1022 1021 1020
3 1023 840 1019
3 1023 1019 1021
3 1024 1021 1022
3 1025 1024 796
3 1025 796 797
3 1025 1021 1024
3 1026 840 1023
3 1026 841 840
3 1027 1025 797
3 1027 1021 1025
3 1028 1027 797
3 1029 841 1026
3 1030 1028 797
3 1031 1030 797
3 1031 797 798
3 1032 841 1029
3 1032 842 841
3 1033 1031 798
3 1034 798 799
3 1034 1033 798
3 1035 1034 799
3 1036 842 1037
3 1036 1037 1038
3 1036 843 842
3 1039 1035 799
3 1040 1036 1038
3 1040 843 1036
3 1041 1039 799
3 1042 1040 1038
3 1043 843 1040
3 1043 1042 1044
3 1043 1040 1042
3 1045 799 800
3 1045 1038 1041
3 1045 1041 799
3 1046 1045 800
3 1046 1038 1045
3 1047 1042 1038
3 1047 1044 1042
3 1047 1038 1046
3 1048 843 1043
3 1048 1043 1044
3 1048 844 843
3 1049 1046 800
3 1049 1047 1046
3 1049 1044 1047
3 1050 1048 1044
3 1051 844 1048
3 1051 1050 1052
3 1051 1048 1050
3 1053 845 844
3 1053 844 1051
3 1054 1049 800
3 1054 800 801
3 1055 845 1053
3 1055 1053 1051
3 1055 1051 1052
3 1056 1049 1054
3 1056 1044 1049
3 1056 1054 801
3 1057 1044 1056
3 1057 1052 1050
3 1057 1050 1044
3 1058 846 845
3 1059 1058 845
3 1059 845 1055
3 1060 1052 1057
3 1060 1057 1056
3 1060 1056 801
3 1061 1059 1062
3 1061 1058 1059
3 1063 846 1058
3 1063 1058 1061
3 1063 847 846
3 1064 1060 801
3 1064 801 802
3 1065 1052 1060
3 1065 1064 802
3 1065 1060 1064
3 1066 1052 1065
3 1067 847 1063
3 1067 1063 1061
3 1067 807 847
3 1067 808 807
3 1067 809 808
3 1067 1061 1062
3 1068 1065 802
3 1068 1066 1065
3 1069 1068 802
3 1069 802 803
3 1070 1062 1068
3 1070 1068 1069
3 1071 809 1067
3 1071 1067 1062
3 1071 810 809
3 1071 811 810
3 1071 812 811
3 1072 1062 1070
3 1072 1071 1062
3 1072 812 1071
3 1072 804 812
3 1073 1072 1070
3 1073 1070 1069
3 1073 1069 803
3 1073 803 804
3 1073 804 1072
3 1074 857 854
3 1074 851 863
3 1074 854 851
3 1074 863 868
3 1075 1074 868
3 1075 860 857
3 1075 868 860
3 1075 857 1074
3 1076 883 879
3 1076 879 891
3 1076 891 892
3 1077 1076 892
3 1078 1077 892
3 1078 892 894
3 1079 889 1077
3 1079 1077 1078
3 1079 1078 894
3 1080 896 893
3 1080 893 889
3 1080 889 1079
3 1080 1079 894
3 1080 894 897
3 1080 897 896
3 1081 898 902
3 1081 896 898
3 1081 902 903
3 1081 895 896
3 1082 1081 903
3 1082 895 1081
3 1083 895 1082
3 1084 1083 1082
3 1084 1082 903
3 1084 903 904
3 1085 901 900
3 1085 1084 904
3 1085 1083 1084
3 1085 906 901
3 1085 904 906
3 1086 905 901
3 1086 906 908
3 1086 901 906
3 1086 908 909
3 1087 905 1086
3 1087 1086 909
3 1088 905 1087
3 1089 1088 1087
3 1089 1087 909
3 1089 910 1088
3 1089 909 910
3 1090 1088 910
3 1091 910 912
3 1091 1090 910
3 1092 1090 1091
3 1092 1091 912
3 1092 907 1090
3 1093 907 1092
3 1093 915 911
3 1093 911 907
3 1093 912 915
3 1093 1092 912
3 1094 911 915
3 1094 913 911
3 1094 915 916
3 1094 916 917
3 1095 1094 917
3 1095 1096 1094
3 1095 918 1096
3 1095 917 918
3 1097 1094 1096
3 1097 913 1094
3 1098 921 920
3 1098 924 921
3 1098 1096 918
3 1098 1097 1096
3 1098 918 922
3 1098 922 924
3 1099 934 947
3 1099 947 946
3 1099 946 941
3 1099 933 934
3 1099 939 933
3 1099 941 939
3 1100 950 945
3 1100 946 957
3 1100 957 962
3 1100 945 946
3 1101 953 950
3 1101 956 953
3 1101 1100 962
3 1101 962 956
3 1101 950 1100
3 1102 971 968
3 1102 960 955
3 1102 964 960
3 1102 968 964
3 1102 956 971
3 1102 955 956
3 1103 980 976
3 1103 967 968
3 1103 973 967
3 1103 983 980
3 1103 976 973
3 1103 968 983
3 1104 998 1007
3 1104 1005 998
3 1104 1007 1009
3 1105 1005 1104
3 1106 1013 1105
3 1106 1104 1009
3 1106 1105 1104
3 1106 1009 1013
3 1107 1105 1013
3 1107 1012 1011
3 1107 1015 1012
3 1107 1013 1015
3 1108 1022 1020
3 1108 1109 1022
3 1108 839 1014
3 1108 1014 1016
3 1108 1020 839
3 1108 1016 1109
3 1110 1022 1109
3 1110 796 1024
3 1110 1024 1022
3 1110 1018 796
3 1110 1109 1016
3 1110 1016 1018
3 1111 1026 1023
3 1111 1023 1021
3 1111 1021 1027
3 1111 1027 1028
3 1112 1026 1111
3 1112 1111 1028
3 1113 1028 1030
3 1113 1112 1028
3 1114 1113 1030
3 1114 1112 1113
3 1114 1026 1112
3 1115 1116 1029
3 1115 1030 1031
3 1115 1031 1033
3 1115 1029 1026
3 1115 1114 1030
3 1115 1026 1114
3 1115 1033 1116
3 1117 1029 1116
3 1117 1032 1029
3 1117 1034 1035
3 1117 1033 1034
3 1117 1116 1033
3 1118 1032 1117
3 1118 1117 1035
3 1119 1032 1118
3 1120 1035 1039
3 1120 1118 1035
3 1120 1039 1119
3 1120 1119 1118
3 1121 1038 1037
3 1121 1041 1038
3 1121 1039 1041
3 1121 1119 1039
3 1122 1052 1066
3 1122 1055 1052
3 1123 1062 1059
3 1123 1059 1055
3 1123 1068 1062
3 1123 1066 1068
3 1123 1122 1066
3 1123 1055 1122
3 1124 820 883
3 1124 1077 889
3 1124 889 820
3 1124 883 1076
3 1124 1076 1077
3 1125 822 895
3 1125 895 1083
3 1125 1085 900
3 1125 900 822
3 1125 1083 1085
3 1126 907 823
3 1126 823 905
3 1126 905 1088
3 1126 1090 907
3 1126 1088 1090
3 1127 825 913
3 1127 1098 920
3 1127 1097 1098
3 1127 920 825
3 1127 913 1097
3 1128 1005 1105
3 1128 1107 1011
3 1128 1011 838
3 1128 838 1005
3 1128 1105 1107
3 1129 1037 842
3 1129 842 1032
3 1129 1121 1037
3 1129 1032 1119
3 1129 1119 1121
3 1137 1138 1139
3 1137 1139 1140
3 1136 1140 1141
3 1136 1137 1140
3 1135 1141 1142
3 1135 1136 1141
3 1134 1142 1143
3 1134 1135 1142
3 1133 1143 1144
3 1133 1134 1143
3 1132 1144 1145
3 1132 1133 1144
3 1131 1145 1130
3 1131 1132 1145
3 1149 1147 1146
3 1149 1148 1147
3 1159 1150 1151
3 1160 1151 1152
3 1160 1159 1151
3 1161 1152 1153
3 1161 1160 1152
3 1162 1153 1154
3 1162 1161 1153
3 1163 1154 1155
3 1163 1162 1154
3 1164 1155 1156
3 1164 1163 1155
3 1165 1156 1157
3 1165 1164 1156
3 1158 1165 1157
