ply
format ascii 1.0
comment generated by blendit.inference.finetune_visualize
element vertex 545
property float x
property float y
property float z
property uchar red
property uchar green
property uchar blue
element face 524
property list uchar int vertex_indices
end_header
3.55271368e-15 19.1684409 1.31199948 218 222 230
0 19.1684409 37.2325146 218 222 230
0 19.1684409 37.7102704 218 222 230
0 57.5861183 37.7102704 218 222 230
0 57.5861183 57.6858467 218 222 230
-2.22044605e-16 1.31199948 57.6858467 218 222 230
-2.22044605e-16 1.31199948 1.31199948 218 222 230
0 15.910781 46.179439 218 222 230
0 15.910781 52.1380254 218 222 230
0 15.9436756 52.4299727 218 222 230
0 16.0407098 52.7072806 218 222 230
0 16.197018 52.9560437 218 222 230
0 16.4047622 53.1637879 218 222 230
0 16.6535252 53.3200961 218 222 230
0 16.9308331 53.4171303 218 222 230
0 17.2227805 53.4500249 218 222 230
0 17.8824969 53.4500249 218 222 230
0 19.1944964 52.1380254 218 222 230
0 19.1616018 52.4299727 218 222 230
0 19.0645676 52.7072806 218 222 230
0 18.9082594 52.9560437 218 222 230
0 18.7005152 53.1637879 218 222 230
0 18.4517521 53.3200961 218 222 230
0 18.1744443 53.4171303 218 222 230
0 19.1944964 46.179439 218 222 230
3.55271368e-15 19.1684409 1.31199948 218 222 230
0 19.1684409 37.2325146 218 222 230
0 19.1684409 37.7102704 218 222 230
0.0353959461 19.1684409 37.4075724 218 222 230
0.139673916 19.1684409 37.1212072 218 222 230
0.307207357 19.1684409 36.8666263 218 222 230
30.1596032 19.1684409 1.31199948 218 222 230
-2.22044605e-16 1.31199948 1.31199948 255 79 163
3.55271368e-15 19.1684409 1.31199948 255 79 163
1.31199948 17.8564414 -2.22044605e-16 255 79 163
0.894279257 18.2741617 0.0682742502 255 79 163
0.554336987 18.6141039 0.240883157 255 79 163
0.302374643 18.8660663 0.474144887 255 79 163
0.148321128 19.0201198 0.706033042 255 79 163
0.05228085 19.1161601 0.945323048 255 79 163
0.0131359723 19.155305 1.12680709 255 79 163
1.31199948 0 -2.22044605e-16 255 79 163
0.0682742502 0.894279257 0.894279257 255 79 163
0.240883157 0.554336987 0.554336987 255 79 163
0.474144887 0.302374643 0.302374643 255 79 163
0.706033042 0.148321128 0.148321128 255 79 163
0.945323048 0.05228085 0.05228085 255 79 163
1.12680709 0.0131359723 0.0131359723 255 79 163
-2.22044605e-16 1.31199948 1.31199948 255 79 163
0.0682742502 0.894279257 0.894279257 255 79 163
0.240883157 0.554336987 0.554336987 255 79 163
0.474144887 0.302374643 0.302374643 255 79 163
0.706033042 0.148321128 0.148321128 255 79 163
0.945323048 0.05228085 0.05228085 255 79 163
1.12680709 0.0131359723 0.0131359723 255 79 163
1.31199948 0 -2.22044605e-16 255 79 163
1.31199948 -2.22044605e-16 58.9978462 255 79 163
-2.22044605e-16 1.31199948 57.6858467 255 79 163
0.0682742502 0.894279257 58.1035669 255 79 163
0.240883157 0.554336987 58.4435092 255 79 163
0.474144887 0.302374643 58.6954715 255 79 163
0.706033042 0.148321128 58.849525 255 79 163
0.945323048 0.05228085 58.9455653 255 79 163
1.12680709 0.0131359723 58.9847102 255 79 163
0 57.5861183 37.7102704 255 79 163
0.0353959461 57.8888162 37.4075724 255 79 163
0.139673916 58.1751814 37.1212072 255 79 163
0.307207357 58.4297624 36.8666263 255 79 163
0.307207357 19.1684409 36.8666263 255 79 163
0 19.1684409 37.7102704 255 79 163
0.0353959461 19.1684409 37.4075724 255 79 163
0.139673916 19.1684409 37.1212072 255 79 163
-2.22044605e-16 1.31199948 57.6858467 255 79 163
0.0682742502 0.894279257 58.1035669 255 79 163
0.240883157 0.554336987 58.4435092 255 79 163
0.474144887 0.302374643 58.6954715 255 79 163
0.706033042 0.148321128 58.849525 255 79 163
0.945323048 0.05228085 58.9455653 255 79 163
1.12680709 0.0131359723 58.9847102 255 79 163
1.31199948 -2.22044605e-16 58.9978462 255 79 163
1.31199948 57.5861183 58.9978462 255 79 163
0 57.5861183 57.6858467 255 79 163
0.0328945663 57.5861183 57.977794 255 79 163
0.129928794 57.5861183 58.2551019 255 79 163
0.286236983 57.5861183 58.503865 255 79 163
0.493981186 57.5861183 58.7116092 255 79 163
0.742744243 57.5861183 58.8679174 255 79 163
1.02005213 57.5861183 58.9649516 255 79 163
0 57.5861183 37.7102704 255 79 163
0 57.5861183 57.6858467 255 79 163
0.0328945663 57.8780656 57.6858467 255 79 163
0.129928794 58.1553735 57.6858467 255 79 163
0.286236983 58.4041366 57.6858467 255 79 163
0.493981186 58.6118808 57.6858467 255 79 163
0.742744243 58.768189 57.6858467 255 79 163
1.02005213 58.8652232 57.6858467 255 79 163
1.31199948 58.8981178 57.6858467 255 79 163
1.31199948 58.8981178 35.6699046 255 79 163
0.307207357 58.4297624 36.8666263 255 79 163
0.559697433 58.6610063 36.565907 255 79 163
0.863419953 58.8190494 36.2041692 255 79 163
1.08425214 58.8781995 35.9411549 255 79 163
0.0353959461 57.8888162 37.4075724 255 79 163
0.139673916 58.1751814 37.1212072 255 79 163
0 15.910781 46.179439 218 222 230
0 15.910781 52.1380254 218 222 230
13.8410683 15.910781 46.179439 218 222 230
13.8410683 15.910781 52.1380254 218 222 230
0 15.910781 52.1380254 255 79 163
13.8410683 15.910781 52.1380254 255 79 163
13.8410683 15.9436756 52.4299727 255 79 163
13.8410683 16.0407098 52.7072806 255 79 163
13.8410683 16.197018 52.9560437 255 79 163
13.8410683 16.4047622 53.1637879 255 79 163
13.8410683 16.6535252 53.3200961 255 79 163
13.8410683 16.9308331 53.4171303 255 79 163
13.8410683 17.2227805 53.4500249 255 79 163
0 17.2227805 53.4500249 255 79 163
0 15.9436756 52.4299727 255 79 163
0 16.0407098 52.7072806 255 79 163
0 16.197018 52.9560437 255 79 163
0 16.4047622 53.1637879 255 79 163
0 16.6535252 53.3200961 255 79 163
0 16.9308331 53.4171303 255 79 163
0 19.1944964 46.179439 218 222 230
13.8410683 19.1944964 46.179439 218 222 230
13.8410683 15.910781 46.179439 218 222 230
0 15.910781 46.179439 218 222 230
0 17.2227805 53.4500249 218 222 230
0 17.8824969 53.4500249 218 222 230
13.8410683 17.2227805 53.4500249 218 222 230
13.8410683 17.8824969 53.4500249 218 222 230
0 19.1944964 52.1380254 218 222 230
0 19.1944964 46.179439 218 222 230
13.8410683 19.1944964 52.1380254 218 222 230
13.8410683 19.1944964 46.179439 218 222 230
0 19.1944964 52.1380254 255 79 163
0 19.1616018 52.4299727 255 79 163
0 19.0645676 52.7072806 255 79 163
0 18.9082594 52.9560437 255 79 163
0 18.7005152 53.1637879 255 79 163
0 18.4517521 53.3200961 255 79 163
0 18.1744443 53.4171303 255 79 163
0 17.8824969 53.4500249 255 79 163
13.8410683 17.8824969 53.4500249 255 79 163
13.8410683 19.1944964 52.1380254 255 79 163
13.8410683 19.1616018 52.4299727 255 79 163
13.8410683 19.0645676 52.7072806 255 79 163
13.8410683 18.9082594 52.9560437 255 79 163
13.8410683 18.7005152 53.1637879 255 79 163
13.8410683 18.4517521 53.3200961 255 79 163
13.8410683 18.1744443 53.4171303 255 79 163
31.261185 17.8564414 -2.22044605e-16 255 79 163
1.31199948 17.8564414 -2.22044605e-16 255 79 163
0.894279257 18.2741617 0.0682742502 255 79 163
0.554336987 18.6141039 0.240883157 255 79 163
0.302374643 18.8660663 0.474144887 255 79 163
0.148321128 19.0201198 0.706033042 255 79 163
0.05228085 19.1161601 0.945323048 255 79 163
0.0131359723 19.155305 1.12680709 255 79 163
3.55271368e-15 19.1684409 1.31199948 255 79 163
30.1596032 19.1684409 1.31199948 255 79 163
31.2443526 18.0849214 0.0200476493 255 79 163
31.1943697 18.306419 0.0795779321 255 79 163
31.1127639 18.514165 0.176771576 255 79 163
31.0020291 18.7018107 0.308658299 255 79 163
30.8655494 18.8636215 0.471207583 255 79 163
30.7074957 18.9946524 0.659451849 255 79 163
30.5326981 19.0908991 0.867638266 255 79 163
30.3489696 19.1489101 1.08646145 255 79 163
31.261185 57.5861183 -2.22044605e-16 218 222 230
31.261185 19.1684409 0 218 222 230
30.1596032 58.8981178 1.31199948 218 222 230
30.4288635 58.8583206 0.99130665 218 222 230
30.6817888 58.7413435 0.690069104 218 222 230
30.9030349 58.554283 0.426561851 218 222 230
31.0791797 58.3084873 0.216770937 218 222 230
31.1813518 58.0764811 0.0950825157 218 222 230
31.2396943 57.8440096 0.0255957003 218 222 230
31.2557992 57.7156975 0.00641460617 218 222 230
1.31199948 58.8981178 35.6699046 218 222 230
0.307207357 58.4297624 36.8666263 218 222 230
0.559697433 58.6610063 36.565907 218 222 230
0.863419953 58.8190494 36.2041692 218 222 230
1.08425214 58.8781995 35.9411549 218 222 230
0.307207357 19.1684409 36.8666263 218 222 230
30.1596032 19.1684409 1.31199948 218 222 230
31.261185 17.8564414 -2.22044605e-16 218 222 230
31.2443526 18.0849214 0.0200476493 218 222 230
31.1943697 18.306419 0.0795779321 218 222 230
31.1127639 18.514165 0.176771576 218 222 230
31.0020291 18.7018107 0.308658299 218 222 230
30.8655494 18.8636215 0.471207583 218 222 230
30.7074957 18.9946524 0.659451849 218 222 230
30.5326981 19.0908991 0.867638266 218 222 230
30.3489696 19.1489101 1.08646145 218 222 230
31.261185 57.5861183 -2.22044605e-16 218 222 230
31.261185 19.1684409 0 218 222 230
31.261185 17.8564414 -2.22044605e-16 218 222 230
1.31199948 17.8564414 -2.22044605e-16 218 222 230
1.31199948 0 -2.22044605e-16 218 222 230
72.3749991 0 -2.22044605e-16 218 222 230
72.3749991 57.5861183 -2.22044605e-16 218 222 230
1.31199948 0 -2.22044605e-16 218 222 230
72.3749991 0 -2.22044605e-16 218 222 230
1.31199948 -2.22044605e-16 58.9978462 218 222 230
73.6869986 0 58.9978462 218 222 230
73.6869986 0 1.31199948 218 222 230
72.6669464 0 0.0328945663 218 222 230
72.9442543 0 0.129928794 218 222 230
73.1930174 0 0.286236983 218 222 230
73.4007616 0 0.493981186 218 222 230
73.5570698 0 0.742744243 218 222 230
73.654104 0 1.02005213 218 222 230
73.6869986 0 58.9978462 218 222 230
73.6869986 57.5861183 58.9978462 218 222 230
1.31199948 57.5861183 58.9978462 218 222 230
1.31199948 -2.22044605e-16 58.9978462 218 222 230
0 57.5861183 57.6858467 255 79 163
0.0328945663 57.8780656 57.6858467 255 79 163
0.129928794 58.1553735 57.6858467 255 79 163
0.286236983 58.4041366 57.6858467 255 79 163
0.493981186 58.6118808 57.6858467 255 79 163
0.742744243 58.768189 57.6858467 255 79 163
1.02005213 58.8652232 57.6858467 255 79 163
1.31199948 58.8981178 57.6858467 255 79 163
0 57.5861183 57.6858467 255 79 163
0.0328945663 57.5861183 57.977794 255 79 163
0.129928794 57.5861183 58.2551019 255 79 163
0.286236983 57.5861183 58.503865 255 79 163
0.493981186 57.5861183 58.7116092 255 79 163
0.742744243 57.5861183 58.8679174 255 79 163
1.02005213 57.5861183 58.9649516 255 79 163
1.31199948 57.5861183 58.9978462 255 79 163
1.31199948 58.8652232 57.977794 255 79 163
1.31199948 58.768189 58.2551019 255 79 163
1.31199948 58.6118808 58.503865 255 79 163
1.31199948 58.4041366 58.7116092 255 79 163
1.31199948 58.1553735 58.8679174 255 79 163
1.31199948 57.8780656 58.9649516 255 79 163
0.0642138254 57.9865569 57.7492699 255 79 163
0.0642138254 57.9473592 57.8699081 255 79 163
0.0642138254 57.8728007 57.9725291 255 79 163
0.250569605 58.3195483 57.9241525 255 79 163
0.0642138254 57.7701797 58.0470876 255 79 163
0.250569605 58.2100111 58.1391314 255 79 163
0.540825537 58.6344802 57.8518909 255 79 163
0.0642138254 57.6495415 58.0862853 255 79 163
0.250569605 58.0394029 58.3097395 255 79 163
0.540825537 58.5318592 58.1677258 255 79 163
0.250569605 57.8244241 58.4192767 255 79 163
0.540825537 58.3366625 58.436391 255 79 163
0.906569347 58.772833 58.0714337 255 79 163
0.540825537 58.0679974 58.6315876 255 79 163
0.906569347 58.5955981 58.4192767 255 79 163
0.540825537 57.7521625 58.7342086 255 79 163
0.906569347 58.3195483 58.6953265 255 79 163
0.906569347 57.9717052 58.8725614 255 79 163
73.6869986 58.8981178 1.31199948 218 222 230
73.6869986 58.8981178 26.8315564 218 222 230
30.1596032 58.8981178 1.31199948 218 222 230
1.31199948 58.8981178 35.6699046 218 222 230
1.31199948 58.8981178 57.6858467 218 222 230
72.3749991 58.8981178 57.6858467 218 222 230
72.3749991 58.8981178 41.0478792 218 222 230
22.0145997 58.8981178 41.0478792 218 222 230
20.7026002 58.8981178 39.7358797 218 222 230
20.7354948 58.8981178 40.027827 218 222 230
20.832529 58.8981178 40.3051349 218 222 230
20.9888372 58.8981178 40.553898 218 222 230
21.1965814 58.8981178 40.7616422 218 222 230
21.4453445 58.8981178 40.9179504 218 222 230
21.7226524 58.8981178 41.0149846 218 222 230
20.7026002 58.8981178 29.4555554 218 222 230
22.0145997 58.8981178 28.1435559 218 222 230
21.7226524 58.8981178 28.1764505 218 222 230
21.4453445 58.8981178 28.2734847 218 222 230
21.1965814 58.8981178 28.4297929 218 222 230
20.9888372 58.8981178 28.6375371 218 222 230
20.832529 58.8981178 28.8863001 218 222 230
20.7354948 58.8981178 29.163608 218 222 230
72.3749991 58.8981178 28.1435559 218 222 230
73.654104 58.8981178 27.1235037 218 222 230
73.5570698 58.8981178 27.4008116 218 222 230
73.4007616 58.8981178 27.6495747 218 222 230
73.1930174 58.8981178 27.8573189 218 222 230
72.9442543 58.8981178 28.0136271 218 222 230
72.6669464 58.8981178 28.1106613 218 222 230
13.8410683 17.2227805 53.4500249 218 222 230
13.8410683 17.8824969 53.4500249 218 222 230
13.8410683 19.1944964 52.1380254 218 222 230
13.8410683 19.1616018 52.4299727 218 222 230
13.8410683 19.0645676 52.7072806 218 222 230
13.8410683 18.9082594 52.9560437 218 222 230
13.8410683 18.7005152 53.1637879 218 222 230
13.8410683 18.4517521 53.3200961 218 222 230
13.8410683 18.1744443 53.4171303 218 222 230
13.8410683 19.1944964 46.179439 218 222 230
13.8410683 15.910781 46.179439 218 222 230
13.8410683 15.910781 52.1380254 218 222 230
13.8410683 15.9436756 52.4299727 218 222 230
13.8410683 16.0407098 52.7072806 218 222 230
13.8410683 16.197018 52.9560437 218 222 230
13.8410683 16.4047622 53.1637879 218 222 230
13.8410683 16.6535252 53.3200961 218 222 230
13.8410683 16.9308331 53.4171303 218 222 230
30.1596032 58.8981178 1.31199948 255 79 163
73.6869986 58.8981178 1.31199948 255 79 163
73.668485 58.8796042 1.09237042 255 79 163
73.6134666 58.8245858 0.878939718 255 79 163
73.5234963 58.7346155 0.677730816 255 79 163
73.4011131 58.6122323 0.494422226 255 79 163
73.249771 58.4608902 0.334187276 255 79 163
73.0737411 58.2848603 0.201548113 255 79 163
72.8093009 58.0204201 0.0739669436 255 79 163
72.5952769 57.806396 0.0186239198 255 79 163
72.3749991 57.5861183 -2.22044605e-16 255 79 163
31.261185 57.5861183 -2.22044605e-16 255 79 163
30.4288635 58.8583206 0.99130665 255 79 163
30.6817888 58.7413435 0.690069104 255 79 163
30.9030349 58.554283 0.426561851 255 79 163
31.0791797 58.3084873 0.216770937 255 79 163
31.1813518 58.0764811 0.0950825157 255 79 163
31.2396943 57.8440096 0.0255957003 255 79 163
31.2557992 57.7156975 0.00641460617 255 79 163
72.3749991 0 -2.22044605e-16 255 79 163
72.3749991 57.5861183 -2.22044605e-16 255 79 163
73.6869986 58.8981178 1.31199948 255 79 163
73.668485 58.8796042 1.09237042 255 79 163
73.6134666 58.8245858 0.878939718 255 79 163
73.5234963 58.7346155 0.677730816 255 79 163
73.4011131 58.6122323 0.494422226 255 79 163
73.249771 58.4608902 0.334187276 255 79 163
73.0737411 58.2848603 0.201548113 255 79 163
72.8093009 58.0204201 0.0739669436 255 79 163
72.5952769 57.806396 0.0186239198 255 79 163
73.6869986 0 1.31199948 255 79 163
72.6669464 0 0.0328945663 255 79 163
72.9442543 0 0.129928794 255 79 163
73.1930174 0 0.286236983 255 79 163
73.4007616 0 0.493981186 255 79 163
73.5570698 0 0.742744243 255 79 163
73.654104 0 1.02005213 255 79 163
73.6869986 0 58.9978462 218 222 230
73.6869986 57.5861183 58.9978462 218 222 230
73.6869986 0 1.31199948 218 222 230
73.6869986 58.8981178 1.31199948 218 222 230
73.6869986 58.8981178 26.8315564 218 222 230
73.6869986 34.8873988 26.8315564 218 222 230
73.6869986 34.7711488 26.8450425 218 222 230
73.6869986 34.6602304 26.88244 218 222 230
73.6869986 34.5570963 26.9381891 218 222 230
73.6869986 34.4326399 27.0326012 218 222 230
73.6869986 34.2706302 27.2018671 218 222 230
73.6869986 34.0715803 27.4916522 218 222 230
73.6869986 33.846974 27.9685949 218 222 230
73.6869986 33.6778503 28.5372989 218 222 230
73.6869986 33.6016796 28.9936438 218 222 230
73.6869986 33.5753993 29.4555554 218 222 230
73.6869986 33.5753993 41.0478792 218 222 230
73.6869986 57.5861183 41.0478792 218 222 230
73.6869986 57.5861183 58.9978462 255 79 163
73.668485 57.8057473 58.9793326 255 79 163
73.6134666 58.019178 58.9243142 255 79 163
73.5234963 58.2203869 58.8343439 255 79 163
73.4011131 58.4036955 58.7119608 255 79 163
73.249771 58.5639305 58.5606186 255 79 163
73.0737411 58.6965696 58.3845887 255 79 163
72.8093009 58.8241508 58.1201485 255 79 163
72.5952769 58.8794938 57.9061245 255 79 163
72.3749991 58.8981178 57.6858467 255 79 163
1.31199948 58.8981178 57.6858467 255 79 163
1.31199948 58.8652232 57.977794 255 79 163
1.31199948 58.768189 58.2551019 255 79 163
1.31199948 58.6118808 58.503865 255 79 163
1.31199948 58.4041366 58.7116092 255 79 163
1.31199948 58.1553735 58.8679174 255 79 163
1.31199948 57.8780656 58.9649516 255 79 163
1.31199948 57.5861183 58.9978462 255 79 163
73.6869986 58.8981178 26.8315564 255 79 163
73.654104 58.8981178 27.1235037 255 79 163
73.5570698 58.8981178 27.4008116 255 79 163
73.4007616 58.8981178 27.6495747 255 79 163
73.1930174 58.8981178 27.8573189 255 79 163
72.9442543 58.8981178 28.0136271 255 79 163
72.6669464 58.8981178 28.1106613 255 79 163
72.3749991 58.8981178 28.1435559 255 79 163
72.3749991 34.8873988 28.1435559 255 79 163
73.6869986 34.8873988 26.8315564 255 79 163
73.6472022 34.8873988 27.1522459 255 79 163
73.5302276 34.8873988 27.4534808 255 79 163
73.3431706 34.8873988 27.7169864 255 79 163
73.0973796 34.8873988 27.9267774 255 79 163
72.8077652 34.8873988 28.0701266 255 79 163
72.5944747 34.8873988 28.1250682 255 79 163
72.3749991 58.8981178 28.1435559 218 222 230
22.0145997 58.8981178 28.1435559 218 222 230
72.3749991 34.8873988 28.1435559 218 222 230
22.0145997 34.8873988 28.1435559 218 222 230
22.0145997 34.8873988 28.1435559 255 79 163
21.5968795 34.4696786 28.2118301 255 79 163
21.2569372 34.1297363 28.384439 255 79 163
21.0049749 33.8777739 28.6177008 255 79 163
20.8509214 33.7237204 28.8495889 255 79 163
20.7548811 33.6276802 29.0888789 255 79 163
20.7157362 33.5885353 29.270363 255 79 163
20.7026002 33.5753993 29.4555554 255 79 163
20.7026002 58.8981178 29.4555554 255 79 163
22.0145997 58.8981178 28.1435559 255 79 163
21.7226524 58.8981178 28.1764505 255 79 163
21.4453445 58.8981178 28.2734847 255 79 163
21.1965814 58.8981178 28.4297929 255 79 163
20.9888372 58.8981178 28.6375371 255 79 163
20.832529 58.8981178 28.8863001 255 79 163
20.7354948 58.8981178 29.163608 255 79 163
20.7026002 58.8981178 29.4555554 218 222 230
20.7026002 58.8981178 39.7358797 218 222 230
20.7026002 33.5753993 39.7358797 218 222 230
20.7026002 33.5753993 29.4555554 218 222 230
72.3749991 58.8981178 41.0478792 255 79 163
72.3749991 58.8981178 57.6858467 255 79 163
73.6869986 57.5861183 58.9978462 255 79 163
73.668485 57.8057473 58.9793326 255 79 163
73.6134666 58.019178 58.9243142 255 79 163
73.5234963 58.2203869 58.8343439 255 79 163
73.4011131 58.4036955 58.7119608 255 79 163
73.249771 58.5639305 58.5606186 255 79 163
73.0737411 58.6965696 58.3845887 255 79 163
72.8093009 58.8241508 58.1201485 255 79 163
72.5952769 58.8794938 57.9061245 255 79 163
73.6869986 57.5861183 41.0478792 255 79 163
72.6669464 58.8652232 41.0478792 255 79 163
72.9442543 58.768189 41.0478792 255 79 163
73.1930174 58.6118808 41.0478792 255 79 163
73.4007616 58.4041366 41.0478792 255 79 163
73.5570698 58.1553735 41.0478792 255 79 163
73.654104 57.8780656 41.0478792 255 79 163
20.7026002 58.8981178 39.7358797 255 79 163
20.7026002 33.5753993 39.7358797 255 79 163
20.7354948 33.5753993 40.027827 255 79 163
20.832529 33.5753993 40.3051349 255 79 163
20.9888372 33.5753993 40.553898 255 79 163
21.1965814 33.5753993 40.7616422 255 79 163
21.4453445 33.5753993 40.9179504 255 79 163
21.7226524 33.5753993 41.0149846 255 79 163
22.0145997 33.5753993 41.0478792 255 79 163
22.0145997 58.8981178 41.0478792 255 79 163
20.7354948 58.8981178 40.027827 255 79 163
20.832529 58.8981178 40.3051349 255 79 163
20.9888372 58.8981178 40.553898 255 79 163
21.1965814 58.8981178 40.7616422 255 79 163
21.4453445 58.8981178 40.9179504 255 79 163
21.7226524 58.8981178 41.0149846 255 79 163
72.3749991 58.8981178 41.0478792 218 222 230
22.0145997 58.8981178 41.0478792 218 222 230
22.0145997 33.5753993 41.0478792 218 222 230
73.6869986 33.5753993 41.0478792 218 222 230
73.6869986 57.5861183 41.0478792 218 222 230
72.6669464 58.8652232 41.0478792 218 222 230
72.9442543 58.768189 41.0478792 218 222 230
73.1930174 58.6118808 41.0478792 218 222 230
73.4007616 58.4041366 41.0478792 218 222 230
73.5570698 58.1553735 41.0478792 218 222 230
73.654104 57.8780656 41.0478792 218 222 230
73.6869986 33.5753993 41.0478792 218 222 230
22.0145997 33.5753993 41.0478792 218 222 230
20.7026002 33.5753993 39.7358797 218 222 230
20.7354948 33.5753993 40.027827 218 222 230
20.832529 33.5753993 40.3051349 218 222 230
20.9888372 33.5753993 40.553898 218 222 230
21.1965814 33.5753993 40.7616422 218 222 230
21.4453445 33.5753993 40.9179504 218 222 230
21.7226524 33.5753993 41.0149846 218 222 230
20.7026002 33.5753993 29.4555554 218 222 230
73.6869986 33.5753993 29.4555554 218 222 230
73.6869986 33.5753993 29.4555554 255 79 163
73.6869986 33.5753993 29.4555554 255 79 163
73.6869986 34.8873988 26.8315564 255 79 163
73.6869986 34.7711488 26.8450425 255 79 163
73.6869986 34.6602304 26.88244 255 79 163
73.6869986 34.5570963 26.9381891 255 79 163
73.6869986 34.4326399 27.0326012 255 79 163
73.6869986 34.2706302 27.2018671 255 79 163
73.6869986 34.0715803 27.4916522 255 79 163
73.6869986 33.846974 27.9685949 255 79 163
73.6869986 33.6778503 28.5372989 255 79 163
73.6869986 33.6016796 28.9936438 255 79 163
73.6472022 34.8873988 27.1522459 255 79 163
73.5302276 34.8873988 27.4534808 255 79 163
73.3431706 34.8873988 27.7169864 255 79 163
73.0973796 34.8873988 27.9267774 255 79 163
72.8077652 34.8873988 28.0701266 255 79 163
72.5944747 34.8873988 28.1250682 255 79 163
72.3749991 34.8873988 28.1435559 255 79 163
72.5812481 34.566706 28.183353 255 79 163
72.7874972 34.2654677 28.3003307 255 79 163
72.9937462 34.0019615 28.4873905 255 79 163
73.1999953 33.7921697 28.7331861 255 79 163
73.4062443 33.6488233 29.0228056 255 79 163
73.5466214 33.5938848 29.2360878 255 79 163
73.6549094 34.2642584 27.4581741 255 79 163
73.5747914 34.2854091 27.6688302 255 79 163
73.4589447 34.3073054 27.8554026 255 79 163
73.3109266 34.329125 28.0100429 255 79 163
73.1317211 34.3498258 28.1280895 255 79 163
73.6639573 33.8781029 28.0572631 255 79 163
72.9248404 34.3685856 28.2068134 255 79 163
73.6089136 33.8916516 28.1852626 255 79 163
73.5319902 33.9072768 28.2995705 255 79 163
73.4350426 33.9235335 28.3942704 255 79 163
73.3172093 33.9382338 28.4647159 255 79 163
73.1795333 33.9499325 28.5087687 255 79 163
73.6253869 33.7763999 28.4289199 255 79 163
73.5538573 33.7293176 28.6936031 255 79 163
73.5858272 33.66603 28.8675281 255 79 163
73.6155224 33.6214925 29.0351275 255 79 163
73.6368335 33.5983558 29.1587127 255 79 163
73.6490408 33.7000704 28.6177839 255 79 163
73.6541104 33.6711284 28.7200526 255 79 163
73.6631376 33.6270078 28.9148727 255 79 163
73.66733 33.6099444 29.0135606 255 79 163
73.670246 33.5996624 29.08564 255 79 163
73.6772279 33.6745478 28.6327235 255 79 163
73.6785863 33.6508841 28.7375357 255 79 163
73.6810232 33.6130525 28.9493855 255 79 163
73.6815666 33.6055913 29.0027338 255 79 163
73.6819473 33.6006782 29.041557 255 79 163
73.6854806 33.6071192 28.9702205 255 79 163
73.6855977 33.6012297 29.0180382 255 79 163
72.3749991 34.8873988 28.1435559 255 79 163
72.5812481 34.566706 28.183353 255 79 163
72.7874972 34.2654677 28.3003307 255 79 163
72.9937462 34.0019615 28.4873905 255 79 163
73.1999953 33.7921697 28.7331861 255 79 163
73.4062443 33.6488233 29.0228056 255 79 163
73.5466214 33.5938848 29.2360878 255 79 163
73.6869986 33.5753993 29.4555554 255 79 163
20.7026002 33.5753993 29.4555554 255 79 163
22.0145997 34.8873988 28.1435559 255 79 163
21.5968795 34.4696786 28.2118301 255 79 163
21.2569372 34.1297363 28.384439 255 79 163
21.0049749 33.8777739 28.6177008 255 79 163
20.8509214 33.7237204 28.8495889 255 79 163
20.7548811 33.6276802 29.0888789 255 79 163
20.7157362 33.5885353 29.270363 255 79 163
3 1 0 6
3 24 3 2
3 24 4 3
3 7 2 1
3 7 24 2
3 17 4 24
3 18 4 17
3 19 4 18
3 20 4 19
3 21 4 20
3 22 4 21
3 23 4 22
3 5 8 7
3 5 9 8
3 5 10 9
3 5 11 10
3 5 12 11
3 5 13 12
3 5 14 13
3 5 15 14
3 5 16 15
3 5 23 16
3 5 1 6
3 5 7 1
3 5 4 23
3 30 31 25
3 26 30 25
3 29 30 26
3 28 29 26
3 27 28 26
3 34 41 47
3 35 46 45
3 35 47 46
3 35 34 47
3 36 45 44
3 36 35 45
3 37 44 43
3 37 36 44
3 38 43 42
3 38 37 43
3 39 38 42
3 40 42 32
3 40 39 42
3 33 40 32
3 58 48 49
3 58 57 48
3 59 49 50
3 59 58 49
3 60 50 51
3 60 59 50
3 61 51 52
3 61 60 51
3 62 52 53
3 62 61 52
3 63 53 54
3 63 62 53
3 56 54 55
3 56 63 54
3 70 64 65
3 70 69 64
3 71 65 66
3 71 70 65
3 68 66 67
3 68 71 66
3 82 72 73
3 82 81 72
3 83 73 74
3 83 82 73
3 84 74 75
3 84 83 74
3 85 75 76
3 85 84 75
3 86 76 77
3 86 85 76
3 87 77 78
3 87 86 77
3 80 78 79
3 80 87 78
3 96 97 101
3 95 101 100
3 95 96 101
3 94 100 99
3 94 95 100
3 93 99 98
3 93 94 99
3 92 98 103
3 92 93 98
3 91 103 102
3 91 92 103
3 90 102 88
3 90 91 102
3 89 90 88
3 105 106 104
3 105 107 106
3 115 117 116
3 115 122 123
3 115 123 117
3 114 122 115
3 113 121 122
3 113 122 114
3 112 120 121
3 112 121 113
3 111 118 119
3 111 119 120
3 111 120 112
3 110 118 111
3 109 108 118
3 109 118 110
3 127 125 124
3 127 126 125
3 129 130 128
3 129 131 130
3 133 134 132
3 133 135 134
3 146 137 136
3 146 138 137
3 146 136 145
3 147 138 146
3 148 139 138
3 148 138 147
3 149 140 139
3 149 139 148
3 150 141 140
3 150 142 141
3 150 140 149
3 151 142 150
3 144 143 142
3 144 142 151
3 159 160 161
3 159 161 169
3 158 169 168
3 158 159 169
3 157 168 167
3 157 158 168
3 156 166 165
3 156 167 166
3 156 157 167
3 155 165 164
3 155 156 165
3 154 163 162
3 154 164 163
3 154 155 164
3 153 162 152
3 153 154 162
3 183 181 182
3 184 181 183
3 180 185 181
3 180 181 184
3 186 185 180
3 171 187 188
3 171 188 189
3 171 189 190
3 171 190 191
3 171 191 192
3 171 192 193
3 171 193 194
3 171 194 195
3 171 195 186
3 172 186 180
3 170 172 173
3 170 171 186
3 170 186 172
3 178 179 170
3 174 170 173
3 177 178 170
3 175 170 174
3 176 177 170
3 176 170 175
3 198 200 199
3 201 198 197
3 201 200 198
3 202 197 196
3 202 201 197
3 204 205 203
3 209 204 208
3 210 204 209
3 211 204 210
3 213 211 212
3 207 204 211
3 207 211 213
3 206 205 204
3 206 204 207
3 215 216 217
3 215 217 214
3 234 225 224
3 233 239 232
3 240 220 219
3 241 219 218
3 241 240 219
3 242 218 226
3 242 241 218
3 243 221 220
3 243 220 240
3 243 240 241
3 244 226 227
3 244 242 226
3 245 241 242
3 245 243 241
3 246 222 221
3 246 223 222
3 246 221 243
3 247 227 228
3 247 244 227
3 248 245 242
3 248 242 244
3 249 243 245
3 249 246 243
3 250 228 229
3 250 244 247
3 250 247 228
3 250 248 244
3 251 245 248
3 251 249 245
3 252 224 223
3 252 235 234
3 252 223 246
3 252 246 249
3 252 234 224
3 253 248 250
3 253 251 248
3 254 236 235
3 254 237 236
3 254 235 252
3 254 249 251
3 254 252 249
3 255 229 230
3 255 230 231
3 255 250 229
3 255 253 250
3 256 238 237
3 256 237 254
3 256 251 253
3 256 254 251
3 257 231 232
3 257 239 238
3 257 238 256
3 257 232 239
3 257 255 231
3 257 253 255
3 257 256 253
3 277 260 261
3 277 261 278
3 276 260 277
3 279 278 261
3 275 260 276
3 280 279 261
3 274 260 275
3 273 280 261
3 266 273 261
3 267 266 261
3 268 261 262
3 268 267 261
3 269 268 262
3 270 269 262
3 271 270 262
3 272 271 262
3 265 272 262
3 281 259 258
3 281 258 260
3 281 260 274
3 283 282 259
3 285 284 283
3 285 287 286
3 285 281 287
3 285 259 281
3 285 283 259
3 263 264 265
3 263 265 262
3 295 294 293
3 289 296 295
3 290 292 291
3 290 293 292
3 290 295 293
3 290 289 295
3 299 288 289
3 299 300 301
3 299 301 302
3 299 302 303
3 299 303 304
3 299 304 305
3 299 305 288
3 299 289 290
3 297 299 290
3 298 299 297
3 316 317 324
3 315 324 323
3 315 316 324
3 314 323 322
3 314 315 323
3 313 322 321
3 313 314 322
3 312 321 320
3 312 313 321
3 311 320 319
3 311 312 320
3 310 311 319
3 309 319 318
3 309 310 319
3 308 318 306
3 308 309 318
3 307 308 306
3 328 327 336
3 328 336 342
3 329 342 341
3 329 328 342
3 330 341 340
3 330 329 341
3 331 330 340
3 332 340 339
3 332 331 340
3 333 339 338
3 333 332 339
3 334 338 337
3 334 333 338
3 335 337 325
3 335 334 337
3 326 335 325
3 348 346 347
3 349 346 348
3 345 349 350
3 345 350 351
3 345 351 352
3 345 352 353
3 345 353 354
3 345 354 355
3 345 355 356
3 345 356 357
3 345 357 358
3 345 346 349
3 359 360 344
3 343 358 359
3 343 345 358
3 343 359 344
3 369 370 371
3 369 371 372
3 368 372 373
3 368 369 372
3 367 373 374
3 367 368 373
3 366 374 375
3 366 367 374
3 365 366 375
3 364 375 376
3 364 365 375
3 363 376 377
3 363 364 376
3 362 377 378
3 362 363 377
3 361 362 378
3 386 387 394
3 385 394 393
3 385 386 394
3 384 393 392
3 384 385 393
3 383 392 391
3 383 384 392
3 382 391 390
3 382 383 391
3 381 390 389
3 381 382 390
3 380 389 388
3 380 381 389
3 379 380 388
3 395 398 397
3 395 396 398
3 409 400 399
3 409 399 408
3 410 401 400
3 410 400 409
3 411 402 401
3 411 401 410
3 412 403 402
3 412 402 411
3 413 404 403
3 413 403 412
3 414 405 404
3 414 404 413
3 407 406 405
3 407 405 414
3 417 415 416
3 417 418 415
3 422 421 430
3 422 430 436
3 423 436 435
3 423 422 436
3 424 435 434
3 424 423 435
3 425 424 434
3 426 434 433
3 426 425 434
3 427 433 432
3 427 426 433
3 428 432 431
3 428 427 432
3 429 431 419
3 429 428 431
3 420 429 419
3 444 446 445
3 444 452 446
3 443 451 452
3 443 452 444
3 442 450 451
3 442 451 443
3 441 448 449
3 441 449 450
3 441 450 442
3 440 448 441
3 439 447 448
3 439 448 440
3 438 437 447
3 438 447 439
3 453 455 454
3 459 453 458
3 462 460 461
3 457 459 460
3 457 462 463
3 457 453 459
3 457 460 462
3 456 455 453
3 456 453 457
3 466 467 468
3 466 468 469
3 466 469 470
3 466 470 471
3 466 471 472
3 466 472 465
3 473 466 465
3 474 465 464
3 474 473 465
3 487 478 477
3 479 478 487
3 488 480 479
3 488 479 487
3 494 490 491
3 494 491 492
3 494 492 493
3 500 482 481
3 500 483 482
3 501 481 480
3 501 483 500
3 501 500 481
3 501 480 488
3 502 488 489
3 502 501 488
3 503 489 490
3 503 502 489
3 504 490 494
3 504 503 490
3 505 484 483
3 506 494 495
3 506 495 504
3 506 504 494
3 507 483 501
3 507 505 483
3 508 501 502
3 508 507 501
3 509 508 502
3 509 502 503
3 510 504 495
3 510 509 503
3 510 503 504
3 511 495 496
3 511 496 497
3 511 497 510
3 511 510 495
3 512 485 484
3 512 507 508
3 512 484 505
3 512 508 509
3 512 505 507
3 513 510 497
3 513 509 510
3 513 512 509
3 514 497 498
3 514 513 497
3 515 498 499
3 515 514 498
3 516 475 476
3 516 499 475
3 516 515 499
3 517 485 512
3 517 512 513
3 518 513 514
3 518 517 513
3 519 518 514
3 519 514 515
3 520 519 515
3 520 515 516
3 521 520 516
3 521 516 476
3 522 517 518
3 522 485 517
3 523 485 522
3 523 522 518
3 523 518 519
3 524 523 519
3 524 519 520
3 525 520 521
3 525 524 520
3 526 525 521
3 526 521 476
3 527 523 524
3 527 486 485
3 527 485 523
3 527 524 525
3 528 486 527
3 528 476 486
3 528 525 526
3 528 526 476
3 528 527 525
3 538 530 529
3 539 531 530
3 539 530 538
3 540 532 531
3 540 531 539
3 541 533 532
3 541 532 540
3 542 534 533
3 542 533 541
3 543 535 534
3 543 534 542
3 544 536 535
3 544 535 543
3 537 536 544
