ply
format ascii 1.0
comment generated by blendit.inference.finetune_visualize
element vertex 936
property float x
property float y
property float z
property uchar red
property uchar green
property uchar blue
element face 988
property list uchar int vertex_indices
end_header
-2.22044605e-16 0 1.60721718 218 222 230
-2.22044605e-16 0 68.8063807 218 222 230
0 97.8576951 1.60721718 218 222 230
-2.22044605e-16 97.8576951 68.8063807 218 222 230
1.60721718 0 -2.22044605e-16 218 222 230
45.8425713 0 -2.22044605e-16 218 222 230
-2.22044605e-16 0 1.60721718 218 222 230
0.0402962903 0 1.24957771 218 222 230
0.159164537 0 0.909871781 218 222 230
0.35064419 0 0.60513366 218 222 230
0.60513366 0 0.35064419 218 222 230
0.909871781 0 0.159164537 218 222 230
1.24957771 0 0.0402962903 218 222 230
-2.22044605e-16 0 68.8063807 218 222 230
47.4497884 -2.22044605e-16 68.8063807 218 222 230
47.4497884 0 1.60721718 218 222 230
46.2002107 0 0.0402962903 218 222 230
46.5399167 0 0.159164537 218 222 230
46.8446548 0 0.35064419 218 222 230
47.0991442 0 0.60513366 218 222 230
47.2906239 0 0.909871781 218 222 230
47.4094921 0 1.24957771 218 222 230
-2.22044605e-16 0 1.60721718 255 79 163
0 97.8576951 1.60721718 255 79 163
0.0228558819 97.8348392 1.33713138 255 79 163
0.0907734708 97.7669216 1.07472724 255 79 163
0.201821084 97.655874 0.827467941 255 79 163
0.352840355 97.5048547 0.602385929 255 79 163
0.53953606 97.318159 0.405882886 255 79 163
0.756598281 97.1010968 0.243547663 255 79 163
1.08247821 96.7752169 0.0880739747 255 79 163
1.34117771 96.5165174 0.0221714201 255 79 163
1.60721718 96.2504779 -2.22044605e-16 255 79 163
1.60721718 0 -2.22044605e-16 255 79 163
0.0402962903 0 1.24957771 255 79 163
0.159164537 0 0.909871781 255 79 163
0.35064419 0 0.60513366 255 79 163
0.60513366 0 0.35064419 255 79 163
0.909871781 0 0.159164537 255 79 163
1.24957771 0 0.0402962903 255 79 163
-2.22044605e-16 0 68.8063807 255 79 163
0.0228558819 0.0228558819 69.0764665 255 79 163
0.0907734708 0.0907734708 69.3388707 255 79 163
0.201821084 0.201821084 69.58613 255 79 163
0.352840355 0.352840355 69.811212 255 79 163
0.53953606 0.53953606 70.007715 255 79 163
0.756598281 0.756598281 70.1700502 255 79 163
1.08247821 1.08247821 70.3255239 255 79 163
1.34117771 1.34117771 70.3914265 255 79 163
1.60721718 1.60721718 70.4135979 255 79 163
1.60721718 97.8576951 70.4135979 255 79 163
-2.22044605e-16 97.8576951 68.8063807 255 79 163
0.0402962903 97.8576951 69.1640202 255 79 163
0.159164537 97.8576951 69.5037261 255 79 163
0.35064419 97.8576951 69.8084642 255 79 163
0.60513366 97.8576951 70.0629537 255 79 163
0.909871781 97.8576951 70.2544334 255 79 163
1.24957771 97.8576951 70.3733016 255 79 163
47.4497884 97.8576951 1.60721718 218 222 230
47.4497884 97.8576951 13.776684 218 222 230
0 97.8576951 1.60721718 218 222 230
-2.22044605e-16 97.8576951 68.8063807 218 222 230
0.0402962903 97.8576951 69.1640202 218 222 230
0.159164537 97.8576951 69.5037261 218 222 230
0.35064419 97.8576951 69.8084642 218 222 230
0.60513366 97.8576951 70.0629537 218 222 230
0.909871781 97.8576951 70.2544334 218 222 230
1.24957771 97.8576951 70.3733016 218 222 230
1.60721718 97.8576951 70.4135979 218 222 230
29.0038795 97.8576951 70.4135979 218 222 230
29.3615189 97.8576951 70.3733016 218 222 230
29.7012249 97.8576951 70.2544334 218 222 230
30.005963 97.8576951 70.0629537 218 222 230
30.2604524 97.8576951 69.8084642 218 222 230
30.4519321 97.8576951 69.5037261 218 222 230
30.5708003 97.8576951 69.1640202 218 222 230
30.6110966 97.8576951 68.8063807 218 222 230
30.6110966 97.8576951 16.9911184 218 222 230
32.2183138 97.8576951 13.776684 218 222 230
32.075362 97.8576951 13.7933304 218 222 230
31.9390066 97.8576951 13.8394708 218 222 230
31.8122752 97.8576951 13.9082148 218 222 230
31.6594103 97.8576951 14.0245686 218 222 230
31.4605191 97.8576951 14.2330566 218 222 230
31.2163043 97.8576951 14.5898269 218 222 230
30.9410384 97.8576951 15.1768057 218 222 230
30.7343201 97.8576951 15.8765603 218 222 230
30.6427022 97.8576951 16.4305211 218 222 230
1.60721718 0 -2.22044605e-16 218 222 230
45.8425713 0 -2.22044605e-16 218 222 230
45.8425713 96.2504779 -2.22044605e-16 218 222 230
1.60721718 96.2504779 -2.22044605e-16 218 222 230
40.8301536 55.9467969 0 218 222 230
38.4312678 55.3917558 0 218 222 230
40.5637177 53.8056309 0 218 222 230
39.8012757 72.4236375 0 218 222 230
39.8772902 73.049673 0 218 222 230
40.1009159 73.6393255 0 218 222 230
40.4591566 74.1583267 0 218 222 230
40.9311925 74.5765141 0 218 222 230
41.4895907 74.8695841 0 218 222 230
42.1018992 75.0205046 0 218 222 230
42.7325327 75.0205046 0 218 222 230
43.3448411 74.8695841 0 218 222 230
43.9032394 74.5765141 0 218 222 230
44.3752753 74.1583267 0 218 222 230
44.733516 73.6393255 0 218 222 230
44.9571417 73.049673 0 218 222 230
45.0331562 72.4236375 0 218 222 230
44.9571417 71.797602 0 218 222 230
44.733516 71.2079495 0 218 222 230
44.3752753 70.6889483 0 218 222 230
43.9032394 70.2707609 0 218 222 230
43.3448411 69.9776909 0 218 222 230
42.7325327 69.8267704 0 218 222 230
42.1018992 69.8267704 0 218 222 230
41.4895907 69.9776909 0 218 222 230
40.9311925 70.2707609 0 218 222 230
40.4591566 70.6889483 0 218 222 230
40.1009159 71.2079495 0 218 222 230
39.8772902 71.797602 0 218 222 230
45.8425713 0 -2.22044605e-16 255 79 163
45.8425713 96.2504779 -2.22044605e-16 255 79 163
47.4497884 97.8576951 1.60721718 255 79 163
47.4269326 97.8348392 1.33713138 255 79 163
47.359015 97.7669216 1.07472724 255 79 163
47.2479673 97.655874 0.827467941 255 79 163
47.0969481 97.5048547 0.602385929 255 79 163
46.9102524 97.318159 0.405882886 255 79 163
46.6931902 97.1010968 0.243547663 255 79 163
46.3673102 96.7752169 0.0880739747 255 79 163
46.1086107 96.5165174 0.0221714201 255 79 163
47.4497884 0 1.60721718 255 79 163
46.2002107 0 0.0402962903 255 79 163
46.5399167 0 0.159164537 255 79 163
46.8446548 0 0.35064419 255 79 163
47.0991442 0 0.60513366 255 79 163
47.2906239 0 0.909871781 255 79 163
47.4094921 0 1.24957771 255 79 163
47.4497884 30.0644191 15.3839012 218 222 230
47.4497884 96.2504779 15.3839012 218 222 230
47.4497884 26.8499848 16.9911184 218 222 230
47.4497884 26.8666311 16.8481666 218 222 230
47.4497884 26.9127715 16.7118112 218 222 230
47.4497884 26.9815155 16.5850798 218 222 230
47.4497884 27.0978694 16.4322149 218 222 230
47.4497884 27.3063573 16.2333237 218 222 230
47.4497884 27.6631276 15.9891089 218 222 230
47.4497884 28.2501064 15.713843 218 222 230
47.4497884 28.949861 15.5071247 218 222 230
47.4497884 29.5038218 15.4155067 218 222 230
47.4497884 26.8499848 68.8063807 218 222 230
47.4497884 -2.22044605e-16 68.8063807 218 222 230
47.4497884 0 1.60721718 218 222 230
47.4497884 97.8576951 1.60721718 218 222 230
47.4497884 97.8576951 13.776684 218 222 230
47.4497884 97.8173988 14.1343235 218 222 230
47.4497884 97.6985306 14.4740294 218 222 230
47.4497884 97.5070509 14.7787676 218 222 230
47.4497884 97.2525614 15.033257 218 222 230
47.4497884 96.9478233 15.2247367 218 222 230
47.4497884 96.6081174 15.3436049 218 222 230
-2.22044605e-16 0 68.8063807 255 79 163
47.4497884 -2.22044605e-16 68.8063807 255 79 163
47.4269326 0.0228558819 69.0764665 255 79 163
47.359015 0.0907734708 69.3388707 255 79 163
47.2479673 0.201821084 69.58613 255 79 163
47.0969481 0.352840355 69.811212 255 79 163
46.9102524 0.53953606 70.007715 255 79 163
46.6931902 0.756598281 70.1700502 255 79 163
46.3673102 1.08247821 70.3255239 255 79 163
46.1086107 1.34117771 70.3914265 255 79 163
45.8425713 1.60721718 70.4135979 255 79 163
1.60721718 1.60721718 70.4135979 255 79 163
0.0228558819 0.0228558819 69.0764665 255 79 163
0.0907734708 0.0907734708 69.3388707 255 79 163
0.201821084 0.201821084 69.58613 255 79 163
0.352840355 0.352840355 69.811212 255 79 163
0.53953606 0.53953606 70.007715 255 79 163
0.756598281 0.756598281 70.1700502 255 79 163
1.08247821 1.08247821 70.3255239 255 79 163
1.34117771 1.34117771 70.3914265 255 79 163
0 97.8576951 1.60721718 255 79 163
47.4497884 97.8576951 1.60721718 255 79 163
47.4269326 97.8348392 1.33713138 255 79 163
47.359015 97.7669216 1.07472724 255 79 163
47.2479673 97.655874 0.827467941 255 79 163
47.0969481 97.5048547 0.602385929 255 79 163
46.9102524 97.318159 0.405882886 255 79 163
46.6931902 97.1010968 0.243547663 255 79 163
46.3673102 96.7752169 0.0880739747 255 79 163
46.1086107 96.5165174 0.0221714201 255 79 163
45.8425713 96.2504779 -2.22044605e-16 255 79 163
1.60721718 96.2504779 -2.22044605e-16 255 79 163
0.0228558819 97.8348392 1.33713138 255 79 163
0.0907734708 97.7669216 1.07472724 255 79 163
0.201821084 97.655874 0.827467941 255 79 163
0.352840355 97.5048547 0.602385929 255 79 163
0.53953606 97.318159 0.405882886 255 79 163
0.756598281 97.1010968 0.243547663 255 79 163
1.08247821 96.7752169 0.0880739747 255 79 163
1.34117771 96.5165174 0.0221714201 255 79 163
1.60721718 97.8576951 70.4135979 218 222 230
29.0038795 97.8576951 70.4135979 218 222 230
1.60721718 1.60721718 70.4135979 218 222 230
45.8425713 1.60721718 70.4135979 218 222 230
45.8425713 26.8499848 70.4135979 218 222 230
32.2183138 26.8499848 70.4135979 218 222 230
29.0038795 30.0644191 70.4135979 218 222 230
29.084472 29.3491402 70.4135979 218 222 230
29.3222085 28.6697283 70.4135979 218 222 230
29.7051678 28.0602521 70.4135979 218 222 230
30.2141468 27.5512732 70.4135979 218 222 230
30.823623 27.1683138 70.4135979 218 222 230
31.5030349 26.9305774 70.4135979 218 222 230
15.4288181 52.6981315 70.4135979 218 222 230
13.6240973 55.0209023 70.4135979 218 222 230
15.6061049 52.4127102 70.4135979 218 222 230
15.7201751 52.0966661 70.4135979 218 222 230
15.7660433 51.7638117 70.4135979 218 222 230
15.7417049 51.4286945 70.4135979 218 222 230
15.6482236 51.1059606 70.4135979 218 222 230
14.5390055 48.3816412 70.4135979 218 222 230
13.2698478 47.395545 70.4135979 218 222 230
13.5960842 47.4759547 70.4135979 218 222 230
13.8984734 47.6224356 70.4135979 218 222 230
14.1637996 47.8285859 70.4135979 218 222 230
14.3804668 48.0853957 70.4135979 218 222 230
9.43666857 46.8673225 70.4135979 218 222 230
6.49330196 50.6555903 70.4135979 218 222 230
7.95243745 54.2393322 70.4135979 218 222 230
9.22159519 55.2254283 70.4135979 218 222 230
8.89535877 55.1450186 70.4135979 218 222 230
8.59296953 54.9985377 70.4135979 218 222 230
8.32764331 54.7923874 70.4135979 218 222 230
8.11097615 54.5355777 70.4135979 218 222 230
12.1355341 55.626977 70.4135979 218 222 230
13.3913422 55.2632264 70.4135979 218 222 230
13.1132914 55.4518627 70.4135979 218 222 230
12.8020969 55.5785669 70.4135979 218 222 230
12.4713596 55.6378012 70.4135979 218 222 230
47.4497884 97.8576951 13.776684 255 79 163
32.2183138 97.8576951 13.776684 255 79 163
32.2183138 97.8178615 14.1322898 255 79 163
32.2183138 97.7003356 14.470269 255 79 163
32.2183138 97.5109424 14.7738682 255 79 163
32.2183138 97.2590703 15.0280387 255 79 163
32.2183138 96.957204 15.2201818 255 79 163
32.2183138 96.6203063 15.3407729 255 79 163
32.2183138 96.4366452 15.3730827 255 79 163
32.2183138 96.2504779 15.3839012 255 79 163
47.4497884 96.2504779 15.3839012 255 79 163
47.4497884 97.8173988 14.1343235 255 79 163
47.4497884 97.6985306 14.4740294 255 79 163
47.4497884 97.5070509 14.7787676 255 79 163
47.4497884 97.2525614 15.033257 255 79 163
47.4497884 96.9478233 15.2247367 255 79 163
47.4497884 96.6081174 15.3436049 255 79 163
30.6110966 97.8576951 16.9911184 255 79 163
30.6110966 97.8576951 16.9911184 255 79 163
32.2183138 97.8576951 13.776684 255 79 163
32.075362 97.8576951 13.7933304 255 79 163
31.9390066 97.8576951 13.8394708 255 79 163
31.8122752 97.8576951 13.9082148 255 79 163
31.6594103 97.8576951 14.0245686 255 79 163
31.4605191 97.8576951 14.2330566 255 79 163
31.2163043 97.8576951 14.5898269 255 79 163
30.9410384 97.8576951 15.1768057 255 79 163
30.7343201 97.8576951 15.8765603 255 79 163
30.6427022 97.8576951 16.4305211 255 79 163
32.2183138 97.8178615 14.1322898 255 79 163
32.2183138 97.7003356 14.470269 255 79 163
32.2183138 97.5109424 14.7738682 255 79 163
32.2183138 97.2590703 15.0280387 255 79 163
32.2183138 96.957204 15.2201818 255 79 163
32.2183138 96.6203063 15.3407729 255 79 163
32.2183138 96.4366452 15.3730827 255 79 163
32.2183138 96.2504779 15.3839012 255 79 163
31.7544817 96.5500232 15.4522855 255 79 163
31.33012 96.8495684 15.651619 255 79 163
30.9813399 97.1491137 15.9649387 255 79 163
30.7378237 97.4486589 16.3655836 255 79 163
30.6430961 97.653177 16.6719968 255 79 163
30.7268479 97.6312258 16.3482852 255 79 163
30.7215047 97.7042156 16.3085658 255 79 163
30.7305044 97.5466563 16.3702995 255 79 163
31.9454828 97.705033 14.5113475 255 79 163
31.8682816 97.3984536 14.9937577 255 79 163
31.624802 97.6675714 14.7781299 255 79 163
31.7078562 97.4587944 15.0214233 255 79 163
31.6128958 97.4753351 15.0724396 255 79 163
31.3332601 97.6915311 15.0329134 255 79 163
31.3967734 97.5178465 15.2255506 255 79 163
31.5158284 97.2672083 15.3424264 255 79 163
31.1496318 97.7124707 15.257882 255 79 163
31.2791111 97.5443021 15.3329624 255 79 163
31.1197382 97.5848928 15.5115342 255 79 163
30.8111535 97.8374632 15.7181445 255 79 163
30.8154413 97.8158273 15.774261 255 79 163
30.7153425 97.7643576 16.2533646 255 79 163
30.7097755 97.8115155 16.1867897 255 79 163
30.9673555 97.630687 15.7294804 255 79 163
31.0780816 97.4423659 15.717849 255 79 163
30.7219067 97.8431829 16.0408498 255 79 163
30.7056716 97.8443805 16.1131325 255 79 163
30.6719103 97.8357655 16.3236563 255 79 163
30.6708028 97.8471659 16.2940261 255 79 163
31.8077462 96.9958895 15.3099846 255 79 163
31.7329893 97.0474068 15.3229926 255 79 163
30.952048 97.7860489 15.4809007 255 79 163
30.7003222 97.8541466 16.0928319 255 79 163
30.6555961 97.8551593 16.3584943 255 79 163
30.6559503 97.8522526 16.3718953 255 79 163
30.6110966 97.8576951 16.9911184 218 222 230
30.6110966 97.8576951 68.8063807 218 222 230
30.6110966 30.0644191 68.8063807 218 222 230
30.6110966 30.0644191 16.9911184 218 222 230
29.0038795 97.8576951 70.4135979 255 79 163
29.0038795 30.0644191 70.4135979 255 79 163
29.3615189 30.0644191 70.3733016 255 79 163
29.7012249 30.0644191 70.2544334 255 79 163
30.005963 30.0644191 70.0629537 255 79 163
30.2604524 30.0644191 69.8084642 255 79 163
30.4519321 30.0644191 69.5037261 255 79 163
30.5708003 30.0644191 69.1640202 255 79 163
30.6110966 30.0644191 68.8063807 255 79 163
30.6110966 97.8576951 68.8063807 255 79 163
29.3615189 97.8576951 70.3733016 255 79 163
29.7012249 97.8576951 70.2544334 255 79 163
30.005963 97.8576951 70.0629537 255 79 163
30.2604524 97.8576951 69.8084642 255 79 163
30.4519321 97.8576951 69.5037261 255 79 163
30.5708003 97.8576951 69.1640202 255 79 163
40.8301536 55.9467969 15.3839012 218 222 230
38.4312678 55.3917558 15.3839012 218 222 230
40.8301536 55.9467969 0 218 222 230
38.4312678 55.3917558 0 218 222 230
40.5637177 53.8056309 15.3839012 218 222 230
40.8301536 55.9467969 15.3839012 218 222 230
40.5637177 53.8056309 0 218 222 230
40.8301536 55.9467969 0 218 222 230
38.4312678 55.3917558 15.3839012 218 222 230
40.5637177 53.8056309 15.3839012 218 222 230
38.4312678 55.3917558 0 218 222 230
40.5637177 53.8056309 0 218 222 230
39.8012757 72.4236375 0 218 222 230
39.8012757 72.4236375 12.860801 218 222 230
39.8772902 73.049673 12.860801 218 222 230
40.1009159 73.6393255 12.860801 218 222 230
40.4591566 74.1583267 12.860801 218 222 230
40.9311925 74.5765141 12.860801 218 222 230
41.4895907 74.8695841 12.860801 218 222 230
42.1018992 75.0205046 12.860801 218 222 230
42.7325327 75.0205046 12.860801 218 222 230
43.3448411 74.8695841 12.860801 218 222 230
43.9032394 74.5765141 12.860801 218 222 230
44.3752753 74.1583267 12.860801 218 222 230
44.733516 73.6393255 12.860801 218 222 230
44.9571417 73.049673 12.860801 218 222 230
45.0331562 72.4236375 12.860801 218 222 230
44.9571417 71.797602 12.860801 218 222 230
44.733516 71.2079495 12.860801 218 222 230
44.3752753 70.6889483 12.860801 218 222 230
43.9032394 70.2707609 12.860801 218 222 230
43.3448411 69.9776909 12.860801 218 222 230
42.7325327 69.8267704 12.860801 218 222 230
42.1018992 69.8267704 12.860801 218 222 230
41.4895907 69.9776909 12.860801 218 222 230
40.9311925 70.2707609 12.860801 218 222 230
40.4591566 70.6889483 12.860801 218 222 230
40.1009159 71.2079495 12.860801 218 222 230
39.8772902 71.797602 12.860801 218 222 230
39.8012757 72.4236375 12.860801 218 222 230
39.8012757 72.4236375 0 218 222 230
39.8772902 73.049673 0 218 222 230
40.1009159 73.6393255 0 218 222 230
40.4591566 74.1583267 0 218 222 230
40.9311925 74.5765141 0 218 222 230
41.4895907 74.8695841 0 218 222 230
42.1018992 75.0205046 0 218 222 230
42.7325327 75.0205046 0 218 222 230
43.3448411 74.8695841 0 218 222 230
43.9032394 74.5765141 0 218 222 230
44.3752753 74.1583267 0 218 222 230
44.733516 73.6393255 0 218 222 230
44.9571417 73.049673 0 218 222 230
45.0331562 72.4236375 0 218 222 230
44.9571417 71.797602 0 218 222 230
44.733516 71.2079495 0 218 222 230
44.3752753 70.6889483 0 218 222 230
43.9032394 70.2707609 0 218 222 230
43.3448411 69.9776909 0 218 222 230
42.7325327 69.8267704 0 218 222 230
42.1018992 69.8267704 0 218 222 230
41.4895907 69.9776909 0 218 222 230
40.9311925 70.2707609 0 218 222 230
40.4591566 70.6889483 0 218 222 230
40.1009159 71.2079495 0 218 222 230
39.8772902 71.797602 0 218 222 230
47.4497884 30.0644191 15.3839012 218 222 230
47.4497884 96.2504779 15.3839012 218 222 230
32.2183138 30.0644191 15.3839012 218 222 230
32.2183138 96.2504779 15.3839012 218 222 230
40.5637177 53.8056309 15.3839012 218 222 230
40.8301536 55.9467969 15.3839012 218 222 230
38.4312678 55.3917558 15.3839012 218 222 230
47.4497884 30.0644191 15.3839012 255 79 163
47.4497884 30.0644191 15.3839012 255 79 163
47.4497884 26.8499848 16.9911184 255 79 163
47.4497884 26.8666311 16.8481666 255 79 163
47.4497884 26.9127715 16.7118112 255 79 163
47.4497884 26.9815155 16.5850798 255 79 163
47.4497884 27.0978694 16.4322149 255 79 163
47.4497884 27.3063573 16.2333237 255 79 163
47.4497884 27.6631276 15.9891089 255 79 163
47.4497884 28.2501064 15.713843 255 79 163
47.4497884 28.949861 15.5071247 255 79 163
47.4497884 29.5038218 15.4155067 255 79 163
47.4099548 27.2055906 16.9911184 255 79 163
47.2924289 27.5435698 16.9911184 255 79 163
47.1030357 27.8471689 16.9911184 255 79 163
46.8511636 28.1013394 16.9911184 255 79 163
46.5492973 28.2934825 16.9911184 255 79 163
46.2123996 28.4140736 16.9911184 255 79 163
46.0287385 28.4463834 16.9911184 255 79 163
45.8425713 28.457202 16.9911184 255 79 163
46.1421165 28.5255862 16.5272863 255 79 163
46.4416617 28.7249197 16.1029246 255 79 163
46.741207 29.0382395 15.7541445 255 79 163
47.0407522 29.4388844 15.5106283 255 79 163
47.2452703 29.7452975 15.4159007 255 79 163
47.2233192 29.4215859 15.4996525 255 79 163
47.2963089 29.3818666 15.4943093 255 79 163
47.1387497 29.4436003 15.503309 255 79 163
47.2971263 27.5846482 16.7182874 255 79 163
46.9905469 28.0670585 16.6410862 255 79 163
47.2596647 27.8514306 16.3976066 255 79 163
47.0508878 28.094724 16.4806608 255 79 163
47.0674285 28.1457403 16.3857004 255 79 163
47.2836244 28.1062142 16.1060647 255 79 163
47.1099398 28.2988513 16.169578 255 79 163
46.8593016 28.4157271 16.288633 255 79 163
47.304564 28.3311827 15.9224364 255 79 163
47.1363954 28.4062631 16.0519157 255 79 163
47.1769861 28.584835 15.8925428 255 79 163
47.4295566 28.7914452 15.583958 255 79 163
47.4079206 28.8475617 15.5882459 255 79 163
47.356451 29.3266653 15.4881471 255 79 163
47.4036088 29.2600904 15.4825801 255 79 163
47.2227803 28.8027811 15.7401601 255 79 163
47.0344593 28.7911497 15.8508862 255 79 163
47.4352762 29.1141505 15.4947113 255 79 163
47.4364739 29.1864333 15.4784762 255 79 163
47.4278588 29.396957 15.4447149 255 79 163
47.4392592 29.3673268 15.4436074 255 79 163
46.5879829 28.3832854 16.5805508 255 79 163
46.6395002 28.3962934 16.5057939 255 79 163
47.3781422 28.5542014 15.7248526 255 79 163
47.44624 29.1661326 15.4731268 255 79 163
47.4472527 29.431795 15.4284007 255 79 163
47.444346 29.4451961 15.4287549 255 79 163
47.4497884 26.8499848 68.8063807 255 79 163
47.4497884 26.8499848 16.9911184 255 79 163
47.4099548 27.2055906 16.9911184 255 79 163
47.2924289 27.5435698 16.9911184 255 79 163
47.1030357 27.8471689 16.9911184 255 79 163
46.8511636 28.1013394 16.9911184 255 79 163
46.5492973 28.2934825 16.9911184 255 79 163
46.2123996 28.4140736 16.9911184 255 79 163
46.0287385 28.4463834 16.9911184 255 79 163
45.8425713 28.457202 16.9911184 255 79 163
45.8425713 28.457202 68.8063807 255 79 163
47.4094921 27.2076242 68.8063807 255 79 163
47.2906239 27.5473302 68.8063807 255 79 163
47.0991442 27.8520683 68.8063807 255 79 163
46.8446548 28.1065578 68.8063807 255 79 163
46.5399167 28.2980374 68.8063807 255 79 163
46.2002107 28.4169057 68.8063807 255 79 163
47.4497884 -2.22044605e-16 68.8063807 255 79 163
47.4269326 0.0228558819 69.0764665 255 79 163
47.359015 0.0907734708 69.3388707 255 79 163
47.2479673 0.201821084 69.58613 255 79 163
47.0969481 0.352840355 69.811212 255 79 163
46.9102524 0.53953606 70.007715 255 79 163
46.6931902 0.756598281 70.1700502 255 79 163
46.3673102 1.08247821 70.3255239 255 79 163
46.1086107 1.34117771 70.3914265 255 79 163
45.8425713 1.60721718 70.4135979 255 79 163
47.4497884 26.8499848 68.8063807 255 79 163
47.4094921 26.8499848 69.1640202 255 79 163
47.2906239 26.8499848 69.5037261 255 79 163
47.0991442 26.8499848 69.8084642 255 79 163
46.8446548 26.8499848 70.0629537 255 79 163
46.5399167 26.8499848 70.2544334 255 79 163
46.2002107 26.8499848 70.3733016 255 79 163
45.8425713 26.8499848 70.4135979 255 79 163
29.0038795 30.0644191 70.4135979 255 79 163
29.3615189 30.0644191 70.3733016 255 79 163
29.7012249 30.0644191 70.2544334 255 79 163
30.005963 30.0644191 70.0629537 255 79 163
30.2604524 30.0644191 69.8084642 255 79 163
30.4519321 30.0644191 69.5037261 255 79 163
30.5708003 30.0644191 69.1640202 255 79 163
30.6110966 30.0644191 68.8063807 255 79 163
29.084472 29.3491402 70.4135979 255 79 163
29.3222085 28.6697283 70.4135979 255 79 163
29.7051678 28.0602521 70.4135979 255 79 163
30.2141468 27.5512732 70.4135979 255 79 163
30.823623 27.1683138 70.4135979 255 79 163
31.5030349 26.9305774 70.4135979 255 79 163
32.2183138 26.8499848 70.4135979 255 79 163
32.2183138 27.2076242 70.3733016 255 79 163
32.2183138 27.5473302 70.2544334 255 79 163
32.2183138 27.8520683 70.0629537 255 79 163
32.2183138 28.1065578 69.8084642 255 79 163
32.2183138 28.2980374 69.5037261 255 79 163
32.2183138 28.4169057 69.1640202 255 79 163
32.2183138 28.457202 68.8063807 255 79 163
30.6513929 29.7067797 68.8063807 255 79 163
30.7702612 29.3670737 68.8063807 255 79 163
30.9617408 29.0623356 68.8063807 255 79 163
31.2162303 28.8078461 68.8063807 255 79 163
31.5209684 28.6163665 68.8063807 255 79 163
31.8606743 28.4974982 68.8063807 255 79 163
29.4331447 29.4287225 70.3733016 255 79 163
29.7643335 29.5043141 70.2544334 255 79 163
29.6444306 28.8249023 70.3733016 255 79 163
30.0614312 29.5721248 70.0629537 255 79 163
29.950495 28.9722952 70.2544334 255 79 163
29.9847816 28.2832367 70.3733016 255 79 163
30.3095401 29.628754 69.8084642 255 79 163
30.2250546 29.1045161 70.0629537 255 79 163
30.2503744 28.4950398 70.2544334 255 79 163
30.496219 29.6713622 69.5037261 255 79 163
30.4371313 27.8308869 70.3733016 255 79 163
30.4543417 29.2149349 69.8084642 255 79 163
30.4886283 28.6850409 70.0629537 255 79 163
30.6121069 29.6978129 69.1640202 255 79 163
30.6489345 28.0964797 70.2544334 255 79 163
30.6268589 29.2980148 69.5037261 255 79 163
30.978797 27.4905359 70.3733016 255 79 163
30.6875962 28.8437125 69.8084642 255 79 163
30.8389356 28.3347336 70.0629537 255 79 163
30.7339555 29.3495898 69.1640202 255 79 163
31.1261898 27.7966003 70.2544334 255 79 163
30.837301 28.9630981 69.5037261 255 79 163
31.5826171 27.2792501 70.3733016 255 79 163
30.9976072 28.5337015 69.8084642 255 79 163
31.2584108 28.0711599 70.0629537 255 79 163
30.9302359 29.0372113 69.1640202 255 79 163
31.6582088 27.6104388 70.2544334 255 79 163
31.1169928 28.6834063 69.5037261 255 79 163
31.3688296 28.300447 69.8084642 255 79 163
31.7260194 27.9075365 70.0629537 255 79 163
31.191106 28.7763412 69.1640202 255 79 163
31.4519095 28.4729642 69.5037261 255 79 163
31.7826487 28.1556454 69.8084642 255 79 163
31.5034845 28.5800608 69.1640202 255 79 163
31.8252569 28.3423243 69.5037261 255 79 163
31.8517076 28.4582123 69.1640202 255 79 163
45.8425713 26.8499848 70.4135979 255 79 163
32.2183138 26.8499848 70.4135979 255 79 163
45.8425713 28.457202 68.8063807 255 79 163
45.8425713 28.4169057 69.1640202 255 79 163
45.8425713 28.2980374 69.5037261 255 79 163
45.8425713 28.1065578 69.8084642 255 79 163
45.8425713 27.8520683 70.0629537 255 79 163
45.8425713 27.5473302 70.2544334 255 79 163
45.8425713 27.2076242 70.3733016 255 79 163
32.2183138 28.457202 68.8063807 255 79 163
32.2183138 27.2076242 70.3733016 255 79 163
32.2183138 27.5473302 70.2544334 255 79 163
32.2183138 27.8520683 70.0629537 255 79 163
32.2183138 28.1065578 69.8084642 255 79 163
32.2183138 28.2980374 69.5037261 255 79 163
32.2183138 28.4169057 69.1640202 255 79 163
15.4288181 52.6981315 70.4135979 218 222 230
13.6240973 55.0209023 70.4135979 218 222 230
15.4288181 52.6981315 19.6720357 218 222 230
13.6240973 55.0209023 19.6720357 218 222 230
15.4288181 52.6981315 70.4135979 218 222 230
15.6061049 52.4127102 70.4135979 218 222 230
15.7201751 52.0966661 70.4135979 218 222 230
15.7660433 51.7638117 70.4135979 218 222 230
15.7417049 51.4286945 70.4135979 218 222 230
15.6482236 51.1059606 70.4135979 218 222 230
15.6482236 51.1059606 19.6720357 218 222 230
15.4288181 52.6981315 19.6720357 218 222 230
15.6061049 52.4127102 19.6720357 218 222 230
15.7201751 52.0966661 19.6720357 218 222 230
15.7660433 51.7638117 19.6720357 218 222 230
15.7417049 51.4286945 19.6720357 218 222 230
13.6240973 55.0209023 70.4135979 218 222 230
13.6240973 55.0209023 19.6720357 218 222 230
13.3913422 55.2632264 19.6720357 218 222 230
13.1132914 55.4518627 19.6720357 218 222 230
12.8020969 55.5785669 19.6720357 218 222 230
12.4713596 55.6378012 19.6720357 218 222 230
12.1355341 55.626977 19.6720357 218 222 230
12.1355341 55.626977 70.4135979 218 222 230
13.3913422 55.2632264 70.4135979 218 222 230
13.1132914 55.4518627 70.4135979 218 222 230
12.8020969 55.5785669 70.4135979 218 222 230
12.4713596 55.6378012 70.4135979 218 222 230
14.5390055 48.3816412 70.4135979 218 222 230
15.6482236 51.1059606 70.4135979 218 222 230
14.5390055 48.3816412 19.6720357 218 222 230
15.6482236 51.1059606 19.6720357 218 222 230
12.1355341 55.626977 70.4135979 218 222 230
9.22159519 55.2254283 70.4135979 218 222 230
12.1355341 55.626977 19.6720357 218 222 230
9.22159519 55.2254283 19.6720357 218 222 230
13.2698478 47.395545 70.4135979 218 222 230
13.2698478 47.395545 19.6720357 218 222 230
13.5960842 47.4759547 19.6720357 218 222 230
13.8984734 47.6224356 19.6720357 218 222 230
14.1637996 47.8285859 19.6720357 218 222 230
14.3804668 48.0853957 19.6720357 218 222 230
14.5390055 48.3816412 19.6720357 218 222 230
14.5390055 48.3816412 70.4135979 218 222 230
13.5960842 47.4759547 70.4135979 218 222 230
13.8984734 47.6224356 70.4135979 218 222 230
14.1637996 47.8285859 70.4135979 218 222 230
14.3804668 48.0853957 70.4135979 218 222 230
9.22159519 55.2254283 70.4135979 218 222 230
9.22159519 55.2254283 19.6720357 218 222 230
8.89535877 55.1450186 19.6720357 218 222 230
8.59296953 54.9985377 19.6720357 218 222 230
8.32764331 54.7923874 19.6720357 218 222 230
8.11097615 54.5355777 19.6720357 218 222 230
7.95243745 54.2393322 19.6720357 218 222 230
7.95243745 54.2393322 70.4135979 218 222 230
8.89535877 55.1450186 70.4135979 218 222 230
8.59296953 54.9985377 70.4135979 218 222 230
8.32764331 54.7923874 70.4135979 218 222 230
8.11097615 54.5355777 70.4135979 218 222 230
9.43666857 46.8673225 70.4135979 218 222 230
13.2698478 47.395545 70.4135979 218 222 230
9.43666857 46.8673225 19.6720357 218 222 230
13.2698478 47.395545 19.6720357 218 222 230
7.95243745 54.2393322 70.4135979 218 222 230
6.49330196 50.6555903 70.4135979 218 222 230
7.95243745 54.2393322 19.6720357 218 222 230
6.49330196 50.6555903 19.6720357 218 222 230
6.49330196 50.6555903 70.4135979 218 222 230
6.49330196 50.6555903 19.6720357 218 222 230
9.43666857 46.8673225 19.6720357 218 222 230
9.43666857 46.8673225 70.4135979 218 222 230
32.2183138 96.2504779 15.3839012 255 79 163
31.7544817 96.5500232 15.4522855 255 79 163
31.33012 96.8495684 15.651619 255 79 163
30.9813399 97.1491137 15.9649387 255 79 163
30.7378237 97.4486589 16.3655836 255 79 163
30.6430961 97.653177 16.6719968 255 79 163
30.6110966 97.8576951 16.9911184 255 79 163
32.2183138 30.0644191 15.3839012 255 79 163
31.8606743 30.0644191 15.4241975 255 79 163
31.5209684 30.0644191 15.5430658 255 79 163
31.2162303 30.0644191 15.7345454 255 79 163
30.9617408 30.0644191 15.9890349 255 79 163
30.7702612 30.0644191 16.293773 255 79 163
30.6513929 30.0644191 16.6334789 255 79 163
30.6110966 30.0644191 16.9911184 255 79 163
32.2183138 28.457202 16.9911184 255 79 163
31.8606743 28.4974982 16.9911184 255 79 163
31.5209684 28.6163665 16.9911184 255 79 163
31.2162303 28.8078461 16.9911184 255 79 163
30.9617408 29.0623356 16.9911184 255 79 163
30.7702612 29.3670737 16.9911184 255 79 163
30.6513929 29.7067797 16.9911184 255 79 163
30.6110966 30.0644191 16.9911184 255 79 163
32.2183138 28.457202 68.8063807 255 79 163
30.6110966 30.0644191 68.8063807 255 79 163
30.6513929 29.7067797 68.8063807 255 79 163
30.7702612 29.3670737 68.8063807 255 79 163
30.9617408 29.0623356 68.8063807 255 79 163
31.2162303 28.8078461 68.8063807 255 79 163
31.5209684 28.6163665 68.8063807 255 79 163
31.8606743 28.4974982 68.8063807 255 79 163
39.8012757 72.4236375 12.860801 218 222 230
39.8772902 73.049673 12.860801 218 222 230
40.1009159 73.6393255 12.860801 218 222 230
40.4591566 74.1583267 12.860801 218 222 230
40.9311925 74.5765141 12.860801 218 222 230
41.4895907 74.8695841 12.860801 218 222 230
42.1018992 75.0205046 12.860801 218 222 230
42.7325327 75.0205046 12.860801 218 222 230
43.3448411 74.8695841 12.860801 218 222 230
43.9032394 74.5765141 12.860801 218 222 230
44.3752753 74.1583267 12.860801 218 222 230
44.733516 73.6393255 12.860801 218 222 230
44.9571417 73.049673 12.860801 218 222 230
45.0331562 72.4236375 12.860801 218 222 230
44.9571417 71.797602 12.860801 218 222 230
44.733516 71.2079495 12.860801 218 222 230
44.3752753 70.6889483 12.860801 218 222 230
43.9032394 70.2707609 12.860801 218 222 230
43.3448411 69.9776909 12.860801 218 222 230
42.7325327 69.8267704 12.860801 218 222 230
42.1018992 69.8267704 12.860801 218 222 230
41.4895907 69.9776909 12.860801 218 222 230
40.9311925 70.2707609 12.860801 218 222 230
40.4591566 70.6889483 12.860801 218 222 230
40.1009159 71.2079495 12.860801 218 222 230
39.8772902 71.797602 12.860801 218 222 230
43.4714594 72.4236375 12.860801 218 222 230
43.440825 72.6759345 12.860801 218 222 230
43.3507022 72.9135689 12.860801 218 222 230
43.2063285 73.1227303 12.860801 218 222 230
43.0160945 73.2912629 12.860801 218 222 230
42.7910558 73.4093723 12.860801 218 222 230
42.5442909 73.4701944 12.860801 218 222 230
42.2901409 73.4701944 12.860801 218 222 230
42.043376 73.4093723 12.860801 218 222 230
41.8183374 73.2912629 12.860801 218 222 230
41.6281033 73.1227303 12.860801 218 222 230
41.4837297 72.9135689 12.860801 218 222 230
41.3936068 72.6759345 12.860801 218 222 230
41.3629724 72.4236375 12.860801 218 222 230
41.3936068 72.1713405 12.860801 218 222 230
41.4837297 71.9337061 12.860801 218 222 230
41.6281033 71.7245447 12.860801 218 222 230
41.8183374 71.5560121 12.860801 218 222 230
42.043376 71.4379027 12.860801 218 222 230
42.2901409 71.3770806 12.860801 218 222 230
42.5442909 71.3770806 12.860801 218 222 230
42.7910558 71.4379027 12.860801 218 222 230
43.0160945 71.5560121 12.860801 218 222 230
43.2063285 71.7245447 12.860801 218 222 230
43.3507022 71.9337061 12.860801 218 222 230
43.440825 72.1713405 12.860801 218 222 230
45.8425713 28.457202 16.9911184 255 79 163
32.2183138 28.457202 16.9911184 255 79 163
32.2183138 28.4974982 16.6334789 255 79 163
32.2183138 28.6163665 16.293773 255 79 163
32.2183138 28.8078461 15.9890349 255 79 163
32.2183138 29.0623356 15.7345454 255 79 163
32.2183138 29.3670737 15.5430658 255 79 163
32.2183138 29.7067797 15.4241975 255 79 163
32.2183138 30.0644191 15.3839012 255 79 163
47.4497884 30.0644191 15.3839012 255 79 163
46.1421165 28.5255862 16.5272863 255 79 163
46.4416617 28.7249197 16.1029246 255 79 163
46.741207 29.0382395 15.7541445 255 79 163
47.0407522 29.4388844 15.5106283 255 79 163
47.2452703 29.7452975 15.4159007 255 79 163
45.8425713 28.457202 68.8063807 255 79 163
45.8425713 28.4169057 69.1640202 255 79 163
45.8425713 28.2980374 69.5037261 255 79 163
45.8425713 28.1065578 69.8084642 255 79 163
45.8425713 27.8520683 70.0629537 255 79 163
45.8425713 27.5473302 70.2544334 255 79 163
45.8425713 27.2076242 70.3733016 255 79 163
45.8425713 26.8499848 70.4135979 255 79 163
47.4497884 26.8499848 68.8063807 255 79 163
47.4094921 26.8499848 69.1640202 255 79 163
47.2906239 26.8499848 69.5037261 255 79 163
47.0991442 26.8499848 69.8084642 255 79 163
46.8446548 26.8499848 70.0629537 255 79 163
46.5399167 26.8499848 70.2544334 255 79 163
46.2002107 26.8499848 70.3733016 255 79 163
47.4497884 26.8499848 68.8063807 255 79 163
47.4094921 27.2076242 68.8063807 255 79 163
47.2906239 27.5473302 68.8063807 255 79 163
47.0991442 27.8520683 68.8063807 255 79 163
46.8446548 28.1065578 68.8063807 255 79 163
46.5399167 28.2980374 68.8063807 255 79 163
46.2002107 28.4169057 68.8063807 255 79 163
47.3711256 26.9276791 69.2969235 255 79 163
47.3711256 27.0754625 69.2489057 255 79 163
47.3711256 27.2011746 69.1575705 255 79 163
47.1428373 27.1419127 69.7048424 255 79 163
47.3711256 27.2925098 69.0318585 255 79 163
47.1428373 27.4052647 69.5706579 255 79 163
46.7872698 27.0533912 70.0906383 255 79 163
47.3711256 27.3405275 68.884075 255 79 163
47.1428373 27.614262 69.3616606 255 79 163
46.7872698 27.4402932 69.9649262 255 79 163
47.1428373 27.7484465 69.0983086 255 79 163
46.7872698 27.7694117 69.7258076 255 79 163
46.3392287 27.322334 70.2601223 255 79 163
46.7872698 28.0085303 69.3966891 255 79 163
46.3392287 27.7484465 70.0430072 255 79 163
46.7872698 28.1342424 69.0097871 255 79 163
46.3392287 28.0866112 69.7048424 255 79 163
46.3392287 28.3037264 69.27873 255 79 163
45.8425713 28.457202 68.8063807 218 222 230
32.2183138 28.457202 68.8063807 218 222 230
32.2183138 28.457202 16.9911184 218 222 230
45.8425713 28.457202 16.9911184 218 222 230
15.4288181 52.6981315 19.6720357 218 222 230
13.6240973 55.0209023 19.6720357 218 222 230
13.3913422 55.2632264 19.6720357 218 222 230
13.1132914 55.4518627 19.6720357 218 222 230
12.8020969 55.5785669 19.6720357 218 222 230
12.4713596 55.6378012 19.6720357 218 222 230
12.1355341 55.626977 19.6720357 218 222 230
9.22159519 55.2254283 19.6720357 218 222 230
8.89535877 55.1450186 19.6720357 218 222 230
8.59296953 54.9985377 19.6720357 218 222 230
8.32764331 54.7923874 19.6720357 218 222 230
8.11097615 54.5355777 19.6720357 218 222 230
7.95243745 54.2393322 19.6720357 218 222 230
6.49330196 50.6555903 19.6720357 218 222 230
9.43666857 46.8673225 19.6720357 218 222 230
13.2698478 47.395545 19.6720357 218 222 230
13.5960842 47.4759547 19.6720357 218 222 230
13.8984734 47.6224356 19.6720357 218 222 230
14.1637996 47.8285859 19.6720357 218 222 230
14.3804668 48.0853957 19.6720357 218 222 230
14.5390055 48.3816412 19.6720357 218 222 230
15.6482236 51.1059606 19.6720357 218 222 230
15.6061049 52.4127102 19.6720357 218 222 230
15.7201751 52.0966661 19.6720357 218 222 230
15.7660433 51.7638117 19.6720357 218 222 230
15.7417049 51.4286945 19.6720357 218 222 230
32.2183138 28.457202 16.9911184 255 79 163
32.2183138 28.4974982 16.6334789 255 79 163
32.2183138 28.6163665 16.293773 255 79 163
32.2183138 28.8078461 15.9890349 255 79 163
32.2183138 29.0623356 15.7345454 255 79 163
32.2183138 29.3670737 15.5430658 255 79 163
32.2183138 29.7067797 15.4241975 255 79 163
32.2183138 30.0644191 15.3839012 255 79 163
32.2183138 28.457202 16.9911184 255 79 163
31.8606743 28.4974982 16.9911184 255 79 163
31.5209684 28.6163665 16.9911184 255 79 163
31.2162303 28.8078461 16.9911184 255 79 163
30.9617408 29.0623356 16.9911184 255 79 163
30.7702612 29.3670737 16.9911184 255 79 163
30.6513929 29.7067797 16.9911184 255 79 163
30.6110966 30.0644191 16.9911184 255 79 163
31.8606743 30.0644191 15.4241975 255 79 163
31.5209684 30.0644191 15.5430658 255 79 163
31.2162303 30.0644191 15.7345454 255 79 163
30.9617408 30.0644191 15.9890349 255 79 163
30.7702612 30.0644191 16.293773 255 79 163
30.6513929 30.0644191 16.6334789 255 79 163
32.1406195 28.5358648 16.5005757 255 79 163
31.9928361 28.5358648 16.5485934 255 79 163
31.867124 28.5358648 16.6399286 255 79 163
31.9263859 28.7641531 16.0926567 255 79 163
31.7757888 28.5358648 16.7656407 255 79 163
31.6630339 28.7641531 16.2268412 255 79 163
32.0149074 29.1197206 15.7068608 255 79 163
31.7277711 28.5358648 16.9134241 255 79 163
31.4540366 28.7641531 16.4358385 255 79 163
31.6280054 29.1197206 15.8325729 255 79 163
31.3198521 28.7641531 16.6991905 255 79 163
31.2988869 29.1197206 16.0716915 255 79 163
31.7459645 29.5677617 15.5373768 255 79 163
31.0597683 29.1197206 16.40081 255 79 163
31.3198521 29.5677617 15.7544919 255 79 163
30.9340562 29.1197206 16.787712 255 79 163
30.9816874 29.5677617 16.0926567 255 79 163
30.7645722 29.5677617 16.5187691 255 79 163
43.4714594 72.4236375 0 218 222 230
43.440825 72.6759345 0 218 222 230
43.3507022 72.9135689 0 218 222 230
43.2063285 73.1227303 0 218 222 230
43.0160945 73.2912629 0 218 222 230
42.7910558 73.4093723 0 218 222 230
42.5442909 73.4701944 0 218 222 230
42.2901409 73.4701944 0 218 222 230
42.043376 73.4093723 0 218 222 230
41.8183374 73.2912629 0 218 222 230
41.6281033 73.1227303 0 218 222 230
41.4837297 72.9135689 0 218 222 230
41.3936068 72.6759345 0 218 222 230
41.3629724 72.4236375 0 218 222 230
41.3936068 72.1713405 0 218 222 230
41.4837297 71.9337061 0 218 222 230
41.6281033 71.7245447 0 218 222 230
41.8183374 71.5560121 0 218 222 230
42.043376 71.4379027 0 218 222 230
42.2901409 71.3770806 0 218 222 230
42.5442909 71.3770806 0 218 222 230
42.7910558 71.4379027 0 218 222 230
43.0160945 71.5560121 0 218 222 230
43.2063285 71.7245447 0 218 222 230
43.3507022 71.9337061 0 218 222 230
43.440825 72.1713405 0 218 222 230
43.4714594 72.4236375 0 218 222 230
43.4714594 72.4236375 12.860801 218 222 230
43.4714594 72.4236375 12.860801 218 222 230
43.440825 72.6759345 12.860801 218 222 230
43.3507022 72.9135689 12.860801 218 222 230
43.2063285 73.1227303 12.860801 218 222 230
43.0160945 73.2912629 12.860801 218 222 230
42.7910558 73.4093723 12.860801 218 222 230
42.5442909 73.4701944 12.860801 218 222 230
42.2901409 73.4701944 12.860801 218 222 230
42.043376 73.4093723 12.860801 218 222 230
41.8183374 73.2912629 12.860801 218 222 230
41.6281033 73.1227303 12.860801 218 222 230
41.4837297 72.9135689 12.860801 218 222 230
41.3936068 72.6759345 12.860801 218 222 230
41.3629724 72.4236375 12.860801 218 222 230
41.3936068 72.1713405 12.860801 218 222 230
41.4837297 71.9337061 12.860801 218 222 230
41.6281033 71.7245447 12.860801 218 222 230
41.8183374 71.5560121 12.860801 218 222 230
42.043376 71.4379027 12.860801 218 222 230
42.2901409 71.3770806 12.860801 218 222 230
42.5442909 71.3770806 12.860801 218 222 230
42.7910558 71.4379027 12.860801 218 222 230
43.0160945 71.5560121 12.860801 218 222 230
43.2063285 71.7245447 12.860801 218 222 230
43.3507022 71.9337061 12.860801 218 222 230
43.440825 72.1713405 12.860801 218 222 230
43.4714594 72.4236375 0 218 222 230
43.440825 72.6759345 0 218 222 230
43.3507022 72.9135689 0 218 222 230
43.2063285 73.1227303 0 218 222 230
43.0160945 73.2912629 0 218 222 230
42.7910558 73.4093723 0 218 222 230
42.5442909 73.4701944 0 218 222 230
42.2901409 73.4701944 0 218 222 230
42.043376 73.4093723 0 218 222 230
41.8183374 73.2912629 0 218 222 230
41.6281033 73.1227303 0 218 222 230
41.4837297 72.9135689 0 218 222 230
41.3936068 72.6759345 0 218 222 230
41.3629724 72.4236375 0 218 222 230
41.3936068 72.1713405 0 218 222 230
41.4837297 71.9337061 0 218 222 230
41.6281033 71.7245447 0 218 222 230
41.8183374 71.5560121 0 218 222 230
42.043376 71.4379027 0 218 222 230
42.2901409 71.3770806 0 218 222 230
42.5442909 71.3770806 0 218 222 230
42.7910558 71.4379027 0 218 222 230
43.0160945 71.5560121 0 218 222 230
43.2063285 71.7245447 0 218 222 230
43.3507022 71.9337061 0 218 222 230
43.440825 72.1713405 0 218 222 230
3 0 3 2
3 1 3 0
3 6 7 8
3 6 8 9
3 6 9 10
3 4 10 11
3 4 11 12
3 4 6 10
3 18 5 16
3 18 16 17
3 20 18 19
3 20 5 18
3 21 5 20
3 15 4 5
3 15 6 4
3 15 5 21
3 14 13 6
3 14 6 15
3 31 32 33
3 31 33 39
3 30 39 38
3 30 31 39
3 29 38 37
3 29 30 38
3 28 37 36
3 28 29 37
3 27 28 36
3 26 36 35
3 26 27 36
3 25 35 34
3 25 26 35
3 24 34 22
3 24 25 34
3 23 24 22
3 51 40 41
3 52 41 42
3 52 51 41
3 53 42 43
3 53 52 42
3 54 43 44
3 54 44 45
3 54 53 43
3 55 45 46
3 55 54 45
3 56 46 47
3 56 55 46
3 57 47 48
3 57 56 47
3 50 48 49
3 50 57 48
3 83 82 60
3 81 60 82
3 80 60 81
3 84 83 60
3 79 60 80
3 85 84 60
3 86 85 60
3 87 86 60
3 77 87 60
3 58 79 78
3 58 60 79
3 59 58 78
3 61 77 60
3 64 62 63
3 65 61 62
3 65 62 64
3 67 65 66
3 68 61 65
3 68 65 67
3 76 68 69
3 76 77 61
3 76 61 68
3 74 69 70
3 74 75 76
3 74 76 69
3 72 70 71
3 72 73 74
3 72 74 70
3 94 89 88
3 94 88 93
3 91 93 88
3 117 93 118
3 119 118 93
3 116 92 93
3 116 93 117
3 120 93 91
3 120 119 93
3 115 92 116
3 95 120 91
3 114 92 115
3 96 95 91
3 113 92 114
3 97 96 91
3 112 92 113
3 98 97 91
3 111 92 112
3 110 94 92
3 110 92 111
3 109 94 110
3 90 99 98
3 90 100 99
3 90 101 100
3 90 102 101
3 90 103 102
3 90 104 103
3 90 105 104
3 90 106 105
3 90 107 106
3 90 108 107
3 90 98 91
3 89 108 90
3 89 109 108
3 89 94 109
3 124 123 132
3 124 132 138
3 125 138 137
3 125 124 138
3 126 137 136
3 126 125 137
3 127 126 136
3 128 136 135
3 128 127 136
3 129 135 134
3 129 128 135
3 130 134 133
3 130 129 134
3 131 133 121
3 131 130 133
3 122 131 121
3 157 155 156
3 159 157 158
3 160 157 159
3 140 154 155
3 140 160 161
3 140 155 157
3 140 157 160
3 139 154 140
3 153 142 141
3 153 143 142
3 153 144 143
3 153 145 144
3 153 146 145
3 153 147 146
3 153 148 147
3 153 149 148
3 153 150 149
3 153 139 150
3 153 154 139
3 152 141 151
3 152 153 141
3 171 172 173
3 171 173 181
3 170 181 180
3 170 171 181
3 169 180 179
3 169 170 180
3 168 179 178
3 168 169 179
3 167 178 177
3 167 168 178
3 166 177 176
3 166 167 177
3 165 176 175
3 165 166 176
3 164 175 174
3 164 165 175
3 163 174 162
3 163 164 174
3 191 192 193
3 191 201 200
3 191 193 201
3 190 200 199
3 190 191 200
3 189 190 199
3 188 199 198
3 188 189 199
3 187 198 197
3 187 188 198
3 186 197 196
3 186 187 197
3 185 196 195
3 185 186 196
3 184 195 194
3 184 185 195
3 183 194 182
3 183 184 194
3 229 204 228
3 211 204 212
3 213 204 205
3 213 212 204
3 210 204 211
3 209 228 204
3 209 204 210
3 214 213 205
3 208 228 209
3 207 214 205
3 223 228 208
3 224 223 208
3 225 224 208
3 226 225 208
3 227 226 208
3 222 227 208
3 221 222 208
3 220 221 208
3 219 220 208
3 206 207 205
3 202 229 230
3 202 232 231
3 202 233 232
3 202 234 233
3 202 235 234
3 202 230 235
3 202 231 236
3 202 236 240
3 203 216 215
3 203 215 217
3 203 202 240
3 203 237 216
3 203 238 237
3 203 239 238
3 203 240 239
3 202 204 229
3 208 203 219
3 219 203 218
3 218 203 217
3 249 250 251
3 249 251 257
3 248 257 256
3 248 249 257
3 247 256 255
3 247 248 256
3 246 255 254
3 246 247 255
3 245 254 253
3 245 246 254
3 244 253 252
3 244 245 253
3 243 252 241
3 243 244 252
3 242 243 241
3 270 260 261
3 262 270 261
3 278 277 276
3 283 284 282
3 285 281 280
3 285 282 281
3 285 280 283
3 285 283 282
3 286 262 263
3 286 263 264
3 286 271 270
3 286 272 271
3 286 270 262
3 287 273 272
3 287 274 273
3 287 272 286
3 288 264 265
3 288 287 286
3 288 286 264
3 289 287 288
3 290 289 288
3 291 265 266
3 291 288 265
3 291 290 288
3 292 290 291
3 293 279 278
3 293 290 292
3 294 266 267
3 294 291 266
3 295 279 293
3 295 292 291
3 295 293 292
3 295 291 294
3 296 295 294
3 297 267 268
3 298 300 299
3 301 299 284
3 301 298 299
3 301 284 283
3 301 283 280
3 302 301 280
3 302 280 279
3 302 296 301
3 302 279 295
3 302 295 296
3 303 298 297
3 303 304 300
3 303 297 268
3 303 300 298
3 305 259 258
3 305 304 306
3 305 258 282
3 305 282 284
3 305 300 304
3 305 284 299
3 305 299 300
3 307 275 274
3 307 276 275
3 307 287 289
3 307 278 276
3 307 274 287
3 308 278 307
3 308 307 289
3 308 293 278
3 308 289 290
3 308 290 293
3 309 297 298
3 309 298 301
3 309 301 296
3 309 294 267
3 309 267 297
3 309 296 294
3 310 304 303
3 310 268 269
3 310 303 268
3 310 306 304
3 311 310 269
3 311 306 310
3 312 269 259
3 312 259 305
3 312 306 311
3 312 311 269
3 312 305 306
3 315 313 314
3 315 316 313
3 324 325 326
3 324 326 332
3 323 332 331
3 323 324 332
3 322 331 330
3 322 323 331
3 321 330 329
3 321 322 330
3 320 329 328
3 320 321 329
3 319 328 327
3 319 320 328
3 318 327 317
3 318 319 327
3 334 335 333
3 334 336 335
3 337 340 339
3 338 340 337
3 342 343 341
3 342 344 343
3 374 346 345
3 374 347 346
3 375 348 347
3 375 349 348
3 375 347 374
3 376 349 375
3 377 350 349
3 377 349 376
3 378 351 350
3 378 352 351
3 378 350 377
3 379 352 378
3 380 353 352
3 380 352 379
3 381 354 353
3 381 353 380
3 382 355 354
3 382 354 381
3 383 356 355
3 383 355 382
3 384 357 356
3 384 356 383
3 385 357 384
3 385 358 357
3 386 358 385
3 386 359 358
3 387 360 359
3 387 359 386
3 388 361 360
3 388 360 387
3 389 362 361
3 389 361 388
3 390 363 362
3 390 362 389
3 391 364 363
3 391 365 364
3 391 363 390
3 392 365 391
3 393 366 365
3 393 365 392
3 394 367 366
3 394 368 367
3 394 366 393
3 395 368 394
3 396 369 368
3 396 368 395
3 397 370 369
3 397 371 370
3 397 369 396
3 398 371 397
3 373 372 371
3 373 371 398
3 403 401 399
3 403 405 401
3 404 403 399
3 402 405 404
3 402 401 405
3 400 402 404
3 400 404 399
3 418 408 409
3 410 418 409
3 426 425 424
3 431 432 430
3 433 429 428
3 433 430 429
3 433 428 431
3 433 431 430
3 434 410 411
3 434 411 412
3 434 419 418
3 434 420 419
3 434 418 410
3 435 421 420
3 435 422 421
3 435 420 434
3 436 412 413
3 436 435 434
3 436 434 412
3 437 435 436
3 438 437 436
3 439 413 414
3 439 436 413
3 439 438 436
3 440 438 439
3 441 427 426
3 441 438 440
3 442 414 415
3 442 439 414
3 443 427 441
3 443 440 439
3 443 441 440
3 443 439 442
3 444 443 442
3 445 415 416
3 446 448 447
3 449 447 432
3 449 446 447
3 449 432 431
3 449 431 428
3 450 449 428
3 450 428 427
3 450 444 449
3 450 427 443
3 450 443 444
3 451 446 445
3 451 452 448
3 451 445 416
3 451 448 446
3 453 407 406
3 453 452 454
3 453 406 430
3 453 430 432
3 453 448 452
3 453 432 447
3 453 447 448
3 455 423 422
3 455 424 423
3 455 435 437
3 455 426 424
3 455 422 435
3 456 426 455
3 456 455 437
3 456 441 426
3 456 437 438
3 456 438 441
3 457 446 449
3 457 445 446
3 457 449 444
3 457 415 445
3 457 442 415
3 457 444 442
3 458 452 451
3 458 416 417
3 458 451 416
3 458 454 452
3 459 458 417
3 459 454 458
3 460 417 407
3 460 407 453
3 460 454 459
3 460 459 417
3 460 453 454
3 469 470 471
3 469 471 477
3 468 477 476
3 468 469 477
3 467 476 475
3 467 468 476
3 466 475 474
3 466 467 475
3 465 474 473
3 465 466 474
3 464 473 472
3 464 465 473
3 463 472 461
3 463 464 472
3 462 463 461
3 495 487 486
3 494 486 485
3 494 495 486
3 493 485 484
3 493 494 485
3 492 484 483
3 492 493 484
3 491 482 481
3 491 483 482
3 491 492 483
3 490 481 480
3 490 491 481
3 489 480 479
3 489 490 480
3 488 479 478
3 488 489 479
3 511 509 510
3 524 497 496
3 524 496 504
3 525 498 497
3 525 497 524
3 526 504 505
3 526 524 504
3 527 499 498
3 527 498 525
3 528 524 526
3 528 525 524
3 529 505 506
3 529 526 505
3 530 500 499
3 530 499 527
3 531 527 525
3 531 525 528
3 532 528 526
3 532 526 529
3 533 501 500
3 533 500 530
3 534 506 507
3 534 529 506
3 535 527 531
3 535 530 527
3 536 528 532
3 536 531 528
3 537 502 501
3 537 503 502
3 537 518 503
3 537 501 533
3 538 529 534
3 538 532 529
3 539 533 530
3 539 530 535
3 540 507 508
3 540 534 507
3 541 535 531
3 541 531 536
3 541 539 535
3 542 536 532
3 542 532 538
3 543 519 518
3 543 533 539
3 543 518 537
3 543 537 533
3 544 534 540
3 544 538 534
3 545 543 539
3 545 539 541
3 546 508 509
3 546 509 511
3 546 540 508
3 547 541 536
3 547 536 542
3 548 538 544
3 548 542 538
3 549 520 519
3 549 543 545
3 549 519 543
3 550 511 512
3 550 512 513
3 550 546 511
3 550 540 546
3 550 544 540
3 551 541 547
3 551 545 541
3 552 547 542
3 552 542 548
3 553 550 513
3 553 548 544
3 553 544 550
3 553 552 548
3 554 520 549
3 554 521 520
3 554 549 545
3 554 545 551
3 555 551 547
3 555 547 552
3 556 513 514
3 556 553 513
3 556 552 553
3 557 522 521
3 557 551 555
3 557 521 554
3 557 554 551
3 558 514 515
3 558 556 514
3 558 555 552
3 558 552 556
3 559 515 516
3 559 516 517
3 559 523 522
3 559 517 523
3 559 522 557
3 559 558 515
3 559 557 555
3 559 555 558
3 570 561 560
3 570 560 568
3 571 568 567
3 571 570 568
3 572 567 566
3 572 571 567
3 573 566 565
3 573 572 566
3 574 565 564
3 574 573 565
3 575 564 563
3 575 574 564
3 569 563 562
3 569 575 563
3 577 578 576
3 577 579 578
3 587 581 580
3 588 581 587
3 589 582 581
3 589 581 588
3 590 583 582
3 590 582 589
3 591 584 583
3 591 583 590
3 586 585 584
3 586 584 591
3 597 599 598
3 597 603 599
3 596 602 603
3 596 603 597
3 595 600 601
3 595 601 602
3 595 602 596
3 594 592 600
3 594 600 595
3 593 592 594
3 605 606 604
3 605 607 606
3 609 610 608
3 609 611 610
3 617 619 618
3 617 623 619
3 616 622 623
3 616 623 617
3 615 621 622
3 615 622 616
3 614 620 621
3 614 621 615
3 613 612 620
3 613 620 614
3 629 631 630
3 629 635 631
3 628 634 635
3 628 635 629
3 627 632 633
3 627 633 634
3 627 634 628
3 626 624 632
3 626 632 627
3 625 624 626
3 637 638 636
3 637 639 638
3 641 642 640
3 641 643 642
3 647 645 644
3 647 646 645
3 648 656 655
3 649 657 656
3 649 656 648
3 650 658 657
3 650 657 649
3 651 659 658
3 651 660 659
3 651 658 650
3 652 661 660
3 652 660 651
3 653 662 661
3 653 661 652
3 654 662 653
3 664 671 663
3 664 678 671
3 665 677 678
3 665 678 664
3 666 676 677
3 666 677 665
3 667 675 676
3 667 676 666
3 668 674 675
3 668 675 667
3 669 673 674
3 669 674 668
3 670 672 673
3 670 673 669
3 728 695 696
3 727 696 697
3 727 728 696
3 729 694 695
3 729 695 728
3 726 697 698
3 726 727 697
3 730 693 694
3 730 694 729
3 725 698 699
3 725 726 698
3 705 692 693
3 705 693 730
3 724 699 700
3 724 725 699
3 706 691 692
3 706 692 705
3 723 700 701
3 723 724 700
3 707 690 691
3 707 691 706
3 722 723 701
3 708 689 690
3 708 690 707
3 702 722 701
3 702 721 722
3 688 689 708
3 688 708 709
3 688 709 710
3 703 721 702
3 703 720 721
3 687 688 710
3 687 710 711
3 704 720 703
3 704 719 720
3 686 687 711
3 686 711 712
3 679 717 718
3 679 718 719
3 679 719 704
3 685 686 712
3 680 717 679
3 684 712 713
3 684 685 712
3 681 717 680
3 681 716 717
3 683 713 714
3 683 714 715
3 683 684 713
3 682 716 681
3 682 715 716
3 682 683 715
3 739 745 740
3 738 744 745
3 738 745 739
3 737 743 744
3 737 744 738
3 736 743 737
3 735 742 743
3 735 743 736
3 734 741 742
3 734 742 735
3 733 731 741
3 733 741 734
3 732 731 733
3 752 753 760
3 746 747 767
3 768 756 755
3 769 755 754
3 769 768 755
3 770 754 761
3 770 769 754
3 771 757 756
3 771 768 769
3 771 756 768
3 772 761 762
3 772 770 761
3 773 769 770
3 773 771 769
3 774 758 757
3 774 759 758
3 774 757 771
3 775 762 763
3 775 772 762
3 776 773 770
3 776 770 772
3 777 771 773
3 777 774 771
3 778 763 764
3 778 776 772
3 778 775 763
3 778 772 775
3 779 773 776
3 779 777 773
3 780 751 752
3 780 760 759
3 780 759 774
3 780 774 777
3 780 752 760
3 781 776 778
3 781 779 776
3 782 750 751
3 782 751 780
3 782 777 779
3 782 780 777
3 783 764 765
3 783 765 766
3 783 778 764
3 783 781 778
3 784 748 749
3 784 749 750
3 784 750 782
3 784 779 781
3 784 782 779
3 785 747 748
3 785 766 767
3 785 767 747
3 785 748 784
3 785 783 766
3 785 781 783
3 785 784 781
3 788 787 786
3 789 788 786
3 802 803 804
3 802 804 805
3 810 805 806
3 810 806 807
3 810 807 808
3 810 808 809
3 810 802 805
3 800 801 802
3 799 800 802
3 798 799 802
3 797 798 802
3 813 815 814
3 812 815 813
3 790 810 811
3 790 811 815
3 790 815 812
3 793 794 795
3 791 795 796
3 791 796 797
3 791 802 810
3 791 797 802
3 791 810 790
3 792 793 795
3 792 795 791
3 832 822 823
3 831 830 837
3 838 817 818
3 839 816 817
3 839 817 838
3 840 824 816
3 840 816 839
3 841 818 819
3 841 838 818
3 841 839 838
3 842 825 824
3 842 824 840
3 843 840 839
3 843 839 841
3 844 819 820
3 844 820 821
3 844 841 819
3 845 826 825
3 845 825 842
3 846 840 843
3 846 842 840
3 847 843 841
3 847 841 844
3 848 827 826
3 848 845 842
3 848 826 845
3 848 842 846
3 849 846 843
3 849 843 847
3 850 821 822
3 850 832 833
3 850 844 821
3 850 847 844
3 850 822 832
3 851 848 846
3 851 846 849
3 852 833 834
3 852 834 835
3 852 850 833
3 852 849 847
3 852 847 850
3 853 828 827
3 853 829 828
3 853 827 848
3 853 848 851
3 854 835 836
3 854 852 835
3 854 851 849
3 854 849 852
3 855 830 829
3 855 836 837
3 855 854 836
3 855 837 830
3 855 829 853
3 855 853 851
3 855 851 854
3 881 882 883
3 881 883 909
3 880 909 908
3 880 881 909
3 879 908 907
3 879 880 908
3 878 907 906
3 878 879 907
3 877 905 904
3 877 906 905
3 877 878 906
3 876 877 904
3 875 904 903
3 875 876 904
3 874 902 901
3 874 903 902
3 874 875 903
3 873 874 901
3 872 873 901
3 872 901 900
3 871 872 900
3 871 900 899
3 870 871 899
3 870 898 897
3 870 899 898
3 869 870 897
3 868 869 897
3 868 897 896
3 867 868 896
3 867 896 895
3 866 867 895
3 866 895 894
3 865 866 894
3 865 894 893
3 864 865 893
3 864 892 891
3 864 893 892
3 863 864 891
3 862 891 890
3 862 863 891
3 861 889 888
3 861 890 889
3 861 862 890
3 860 861 888
3 859 888 887
3 859 860 888
3 858 887 886
3 858 859 887
3 857 886 885
3 857 858 886
3 856 885 884
3 856 857 885
3 928 927 926
3 929 928 926
3 930 926 925
3 930 929 926
3 933 931 930
3 933 932 931
3 933 930 925
3 918 920 919
3 935 925 924
3 935 934 933
3 935 933 925
3 917 920 918
3 910 924 923
3 910 935 924
3 916 921 920
3 916 920 917
3 911 923 922
3 911 910 923
3 912 922 921
3 912 911 922
3 913 915 914
3 913 916 915
3 913 921 916
3 913 912 921
