ply
format ascii 1.0
comment generated by blendit.inference.finetune_visualize
element vertex 868
property float x
property float y
property float z
property uchar red
property uchar green
property uchar blue
element face 1154
property list uchar int vertex_indices
end_header
0 16.6360392 35.886926 218 222 230
-1.11022302e-16 16.6360392 64.2614151 218 222 230
-1.11022302e-16 0.967447159 64.2614151 218 222 230
-1.11022302e-16 0.967447159 0.967447159 218 222 230
-1.11022302e-16 70.1061819 0.967447159 218 222 230
-1.11022302e-16 70.1061819 35.886926 218 222 230
0 16.6360392 35.886926 218 222 230
-1.11022302e-16 16.6360392 64.2614151 218 222 230
84.4533953 16.6360392 35.886926 218 222 230
84.4533953 16.6360392 64.2614151 218 222 230
0.967447159 0.967447159 65.2288623 255 79 163
0.752169914 0.967447159 65.2046063 255 79 163
0.547687569 0.967447159 65.1330549 255 79 163
0.364253722 0.967447159 65.0177957 255 79 163
0.211066513 0.967447159 64.8646085 255 79 163
0.0958073874 0.967447159 64.6811747 255 79 163
0.0242559201 0.967447159 64.4766923 255 79 163
-1.11022302e-16 0.967447159 64.2614151 255 79 163
0.967447159 15.668592 65.2288623 255 79 163
-1.11022302e-16 16.6360392 64.2614151 255 79 163
0.0149925373 16.6210467 64.4310742 255 79 163
0.0595054703 16.5765337 64.5954748 255 79 163
0.132159164 16.50388 64.7495216 255 79 163
0.230701789 16.4053374 64.88844 255 79 163
0.352079114 16.2839601 65.0079244 255 79 163
0.492529167 16.14351 65.1042715 255 79 163
0.701872183 15.934167 65.1916967 255 79 163
0.833365707 15.8026735 65.2195258 255 79 163
0.967447159 71.0736291 35.886926 218 222 230
84.4533953 71.0736291 35.886926 218 222 230
84.4533953 16.6360392 35.886926 218 222 230
0 16.6360392 35.886926 218 222 230
-1.11022302e-16 70.1061819 35.886926 218 222 230
0.0242559201 70.3214592 35.886926 218 222 230
0.0958073874 70.5259415 35.886926 218 222 230
0.211066513 70.7093754 35.886926 218 222 230
0.364253722 70.8625626 35.886926 218 222 230
0.547687569 70.9778217 35.886926 218 222 230
0.752169914 71.0493732 35.886926 218 222 230
40.6712868 61.296872 35.886926 218 222 230
40.5142081 62.5905314 35.886926 218 222 230
40.0521009 63.809008 35.886926 218 222 230
39.3118211 64.8814885 35.886926 218 222 230
38.3363911 65.745644 35.886926 218 222 230
37.1824994 66.3512531 35.886926 218 222 230
35.917206 66.6631199 35.886926 218 222 230
34.614045 66.6631199 35.886926 218 222 230
33.3487516 66.3512531 35.886926 218 222 230
32.1948599 65.745644 35.886926 218 222 230
31.2194299 64.8814885 35.886926 218 222 230
30.4791501 63.809008 35.886926 218 222 230
30.0170429 62.5905314 35.886926 218 222 230
29.8599642 61.296872 35.886926 218 222 230
30.0170429 60.0032125 35.886926 218 222 230
30.4791501 58.7847359 35.886926 218 222 230
31.2194299 57.7122555 35.886926 218 222 230
32.1948599 56.8480999 35.886926 218 222 230
33.3487516 56.2424908 35.886926 218 222 230
34.614045 55.930624 35.886926 218 222 230
35.917206 55.930624 35.886926 218 222 230
37.1824994 56.2424908 35.886926 218 222 230
38.3363911 56.8480999 35.886926 218 222 230
39.3118211 57.7122555 35.886926 218 222 230
40.0521009 58.7847359 35.886926 218 222 230
40.5142081 60.0032125 35.886926 218 222 230
0.967447159 0 0.967447159 255 79 163
0.752169914 0.0242559201 0.967447159 255 79 163
0.547687569 0.0958073874 0.967447159 255 79 163
0.364253722 0.211066513 0.967447159 255 79 163
0.211066513 0.364253722 0.967447159 255 79 163
0.0958073874 0.547687569 0.967447159 255 79 163
0.0242559201 0.752169914 0.967447159 255 79 163
-1.11022302e-16 0.967447159 0.967447159 255 79 163
0.967447159 -1.11022302e-16 64.2614151 255 79 163
-1.11022302e-16 0.967447159 64.2614151 255 79 163
0.0242559201 0.752169914 64.2614151 255 79 163
0.0958073874 0.547687569 64.2614151 255 79 163
0.211066513 0.364253722 64.2614151 255 79 163
0.364253722 0.211066513 64.2614151 255 79 163
0.547687569 0.0958073874 64.2614151 255 79 163
0.752169914 0.0242559201 64.2614151 255 79 163
-1.11022302e-16 70.1061819 0.967447159 255 79 163
-1.11022302e-16 70.1061819 35.886926 255 79 163
0.0242559201 70.3214592 35.886926 255 79 163
0.0958073874 70.5259415 35.886926 255 79 163
0.211066513 70.7093754 35.886926 255 79 163
0.364253722 70.8625626 35.886926 255 79 163
0.547687569 70.9778217 35.886926 255 79 163
0.752169914 71.0493732 35.886926 255 79 163
0.967447159 71.0736291 35.886926 255 79 163
0.967447159 71.0736291 -1.11022302e-16 255 79 163
0.0329649626 70.3565757 0.717053409 255 79 163
0.129613343 70.5899055 0.48372358 255 79 163
0.283358713 70.7902704 0.283358713 255 79 163
0.461957407 70.9310662 0.142562854 255 79 163
0.627612212 71.0119778 0.0616512582 255 79 163
0.787434633 71.0567341 0.0168949532 255 79 163
0.87704535 71.0693961 0.0042329989 255 79 163
-1.11022302e-16 70.1061819 0.967447159 255 79 163
0.0329649626 70.3565757 0.717053409 255 79 163
0.129613343 70.5899055 0.48372358 255 79 163
0.283358713 70.7902704 0.283358713 255 79 163
0.461957407 70.9310662 0.142562854 255 79 163
0.627612212 71.0119778 0.0616512582 255 79 163
0.787434633 71.0567341 0.0168949532 255 79 163
0.87704535 71.0693961 0.0042329989 255 79 163
0.967447159 71.0736291 -1.11022302e-16 255 79 163
0.967447159 0.967447159 -1.11022302e-16 255 79 163
0.752169914 0.967447159 0.0242559201 255 79 163
0.547687569 0.967447159 0.0958073874 255 79 163
0.364253722 0.967447159 0.211066513 255 79 163
0.211066513 0.967447159 0.364253722 255 79 163
0.0958073874 0.967447159 0.547687569 255 79 163
0.0242559201 0.967447159 0.752169914 255 79 163
-1.11022302e-16 0.967447159 0.967447159 255 79 163
0.967447159 15.668592 65.2288623 255 79 163
84.4533953 15.668592 65.2288623 255 79 163
84.4533953 15.8838693 65.2046063 255 79 163
84.4533953 16.0883516 65.1330549 255 79 163
84.4533953 16.2717855 65.0177957 255 79 163
84.4533953 16.4249727 64.8646085 255 79 163
84.4533953 16.5402318 64.6811747 255 79 163
84.4533953 16.6117833 64.4766923 255 79 163
84.4533953 16.6360392 64.2614151 255 79 163
-1.11022302e-16 16.6360392 64.2614151 255 79 163
0.0149925373 16.6210467 64.4310742 255 79 163
0.0595054703 16.5765337 64.5954748 255 79 163
0.132159164 16.50388 64.7495216 255 79 163
0.230701789 16.4053374 64.88844 255 79 163
0.352079114 16.2839601 65.0079244 255 79 163
0.492529167 16.14351 65.1042715 255 79 163
0.701872183 15.934167 65.1916967 255 79 163
0.833365707 15.8026735 65.2195258 255 79 163
84.4533953 16.6360392 35.886926 218 222 230
84.4533953 16.6360392 64.2614151 218 222 230
84.4533953 15.668592 65.2288623 218 222 230
84.4533953 15.8838693 65.2046063 218 222 230
84.4533953 16.0883516 65.1330549 218 222 230
84.4533953 16.2717855 65.0177957 218 222 230
84.4533953 16.4249727 64.8646085 218 222 230
84.4533953 16.5402318 64.6811747 218 222 230
84.4533953 16.6117833 64.4766923 218 222 230
84.4533953 16.6360392 65.2288623 218 222 230
84.4533953 71.0736291 65.2288623 218 222 230
84.4533953 71.0736291 35.886926 218 222 230
-1.11022302e-16 0.967447159 64.2614151 255 79 163
0.0242559201 0.752169914 64.2614151 255 79 163
0.0958073874 0.547687569 64.2614151 255 79 163
0.211066513 0.364253722 64.2614151 255 79 163
0.364253722 0.211066513 64.2614151 255 79 163
0.547687569 0.0958073874 64.2614151 255 79 163
0.752169914 0.0242559201 64.2614151 255 79 163
0.967447159 -1.11022302e-16 64.2614151 255 79 163
0.967447159 0.967447159 65.2288623 255 79 163
0.967447159 0.752169914 65.2046063 255 79 163
0.967447159 0.547687569 65.1330549 255 79 163
0.967447159 0.364253722 65.0177957 255 79 163
0.967447159 0.211066513 64.8646085 255 79 163
0.967447159 0.0958073874 64.6811747 255 79 163
0.967447159 0.0242559201 64.4766923 255 79 163
0.967447159 0.967447159 65.2288623 255 79 163
0.752169914 0.967447159 65.2046063 255 79 163
0.547687569 0.967447159 65.1330549 255 79 163
0.364253722 0.967447159 65.0177957 255 79 163
0.211066513 0.967447159 64.8646085 255 79 163
0.0958073874 0.967447159 64.6811747 255 79 163
0.0242559201 0.967447159 64.4766923 255 79 163
0.920679885 0.67217021 65.181512 255 79 163
0.831723243 0.701073975 65.181512 255 79 163
0.756052204 0.756052204 65.181512 255 79 163
0.791724283 0.426627756 65.0440963 255 79 163
0.701073975 0.831723243 65.181512 255 79 163
0.633202386 0.507398697 65.0440963 255 79 163
0.845008846 0.194402071 64.8300663 255 79 163
0.67217021 0.920679885 65.181512 255 79 163
0.507398697 0.633202386 65.0440963 255 79 163
0.612117333 0.27007311 64.8300663 255 79 163
0.426627756 0.791724283 65.0440963 255 79 163
0.41400798 0.41400798 64.8300663 255 79 163
0.683121573 0.0923829831 64.5603727 255 79 163
0.27007311 0.612117333 64.8300663 255 79 163
0.426627756 0.223073111 64.5603727 255 79 163
0.194402071 0.845008846 64.8300663 255 79 163
0.223073111 0.426627756 64.5603727 255 79 163
0.0923829831 0.683121573 64.5603727 255 79 163
86.0897559 71.0736291 65.2288623 218 222 230
92.003074 63.1116767 65.2288623 218 222 230
84.4533953 71.0736291 65.2288623 218 222 230
84.4533953 16.6360392 65.2288623 218 222 230
84.4533953 15.668592 65.2288623 218 222 230
0.967447159 15.668592 65.2288623 218 222 230
0.967447159 0.967447159 65.2288623 218 222 230
92.003074 0.967447159 65.2288623 218 222 230
92.003074 71.0736291 39.455279 218 222 230
86.0897559 71.0736291 39.455279 218 222 230
92.003074 71.0736291 0 218 222 230
0.967447159 71.0736291 -1.11022302e-16 218 222 230
0.967447159 71.0736291 35.886926 218 222 230
84.4533953 71.0736291 35.886926 218 222 230
84.4533953 71.0736291 65.2288623 218 222 230
86.0897559 71.0736291 65.2288623 218 222 230
40.6712868 61.296872 35.886926 255 79 163
40.4560096 61.296872 35.8626701 255 79 163
40.2515272 61.296872 35.7911186 255 79 163
40.0680934 61.296872 35.6758595 255 79 163
39.9149061 61.296872 35.5226723 255 79 163
39.799647 61.296872 35.3392384 255 79 163
39.7280956 61.296872 35.1347561 255 79 163
39.7038396 61.296872 34.9194788 255 79 163
40.5142081 62.5905314 35.886926 255 79 163
40.0521009 63.809008 35.886926 255 79 163
39.3118211 64.8814885 35.886926 255 79 163
38.3363911 65.745644 35.886926 255 79 163
37.1824994 66.3512531 35.886926 255 79 163
35.917206 66.6631199 35.886926 255 79 163
34.614045 66.6631199 35.886926 255 79 163
33.3487516 66.3512531 35.886926 255 79 163
32.1948599 65.745644 35.886926 255 79 163
31.2194299 64.8814885 35.886926 255 79 163
30.4791501 63.809008 35.886926 255 79 163
30.0170429 62.5905314 35.886926 255 79 163
29.8599642 61.296872 35.886926 255 79 163
30.0170429 60.0032125 35.886926 255 79 163
30.4791501 58.7847359 35.886926 255 79 163
31.2194299 57.7122555 35.886926 255 79 163
32.1948599 56.8480999 35.886926 255 79 163
33.3487516 56.2424908 35.886926 255 79 163
34.614045 55.930624 35.886926 255 79 163
35.917206 55.930624 35.886926 255 79 163
37.1824994 56.2424908 35.886926 255 79 163
38.3363911 56.8480999 35.886926 255 79 163
39.3118211 57.7122555 35.886926 255 79 163
40.0521009 58.7847359 35.886926 255 79 163
40.5142081 60.0032125 35.886926 255 79 163
40.6712868 61.296872 35.886926 255 79 163
40.4560096 61.296872 35.8626701 255 79 163
40.2515272 61.296872 35.7911186 255 79 163
40.0680934 61.296872 35.6758595 255 79 163
39.9149061 61.296872 35.5226723 255 79 163
39.799647 61.296872 35.3392384 255 79 163
39.7280956 61.296872 35.1347561 255 79 163
39.7038396 61.296872 34.9194788 255 79 163
39.5748732 62.3590061 34.9194788 255 79 163
39.1954689 63.3594129 34.9194788 255 79 163
38.5876765 64.2399523 34.9194788 255 79 163
37.7868185 64.9494506 34.9194788 255 79 163
36.8394379 65.4466743 34.9194788 255 79 163
35.8005931 65.7027265 34.9194788 255 79 163
34.7306579 65.7027265 34.9194788 255 79 163
33.6918131 65.4466743 34.9194788 255 79 163
32.7444325 64.9494506 34.9194788 255 79 163
31.9435745 64.2399523 34.9194788 255 79 163
31.335782 63.3594129 34.9194788 255 79 163
30.9563778 62.3590061 34.9194788 255 79 163
30.8274113 61.296872 34.9194788 255 79 163
30.9563778 60.2347378 34.9194788 255 79 163
31.335782 59.234331 34.9194788 255 79 163
31.9435745 58.3537916 34.9194788 255 79 163
32.7444325 57.6442933 34.9194788 255 79 163
33.6918131 57.1470696 34.9194788 255 79 163
34.7306579 56.8910174 34.9194788 255 79 163
35.8005931 56.8910174 34.9194788 255 79 163
36.8394379 57.1470696 34.9194788 255 79 163
37.7868185 57.6442933 34.9194788 255 79 163
38.5876765 58.3537916 34.9194788 255 79 163
39.1954689 59.234331 34.9194788 255 79 163
39.5748732 60.2347378 34.9194788 255 79 163
40.3051864 62.5390122 35.8626701 255 79 163
40.106646 62.4900763 35.7911186 255 79 163
39.9285424 62.4461777 35.6758595 255 79 163
39.7798065 62.4095176 35.5226723 255 79 163
39.6678966 62.3819343 35.3392384 255 79 163
39.5984243 62.3648109 35.1347561 255 79 163
39.8614823 63.7089637 35.8626701 255 79 163
39.6804222 63.613936 35.7911186 255 79 163
39.5179996 63.5286901 35.6758595 255 79 163
39.3823591 63.4575004 35.5226723 255 79 163
39.2803022 63.4039368 35.3392384 255 79 163
39.2169465 63.3706852 35.1347561 255 79 163
39.1506837 64.7387332 35.8626701 255 79 163
38.9976265 64.6031364 35.7911186 255 79 163
38.8603243 64.4814972 35.6758595 255 79 163
38.745662 64.3799153 35.5226723 255 79 163
38.6593893 64.3034844 35.3392384 255 79 163
38.6058323 64.256037 35.1347561 255 79 163
38.2140997 65.5684743 35.8626701 255 79 163
38.0979405 65.4001886 35.7911186 255 79 163
37.9937382 65.2492255 35.6758595 255 79 163
37.9067179 65.1231549 35.5226723 255 79 163
37.8412433 65.0282985 35.3392384 255 79 163
37.8005974 64.9694128 35.1347561 255 79 163
37.106161 66.1499654 35.8626701 255 79 163
37.0336506 65.958771 35.7911186 255 79 163
36.9686041 65.7872574 35.6758595 255 79 163
36.9142831 65.6440249 35.5226723 255 79 163
36.8734117 65.5362557 35.3392384 255 79 163
36.8480392 65.469354 35.1347561 255 79 163
35.8912571 66.4494123 35.8626701 255 79 163
35.8666095 66.2464208 35.7911186 255 79 163
35.844499 66.0643244 35.6758595 255 79 163
35.8260343 65.9122541 35.5226723 255 79 163
35.8121414 65.7978354 35.3392384 255 79 163
35.8035168 65.7268056 35.1347561 255 79 163
34.6399938 66.4494123 35.8626701 255 79 163
34.6646414 66.2464208 35.7911186 255 79 163
34.6867519 66.0643244 35.6758595 255 79 163
34.7052166 65.9122541 35.5226723 255 79 163
34.7191096 65.7978354 35.3392384 255 79 163
34.7277342 65.7268056 35.1347561 255 79 163
33.4250899 66.1499654 35.8626701 255 79 163
33.4976004 65.958771 35.7911186 255 79 163
33.5626469 65.7872574 35.6758595 255 79 163
33.6169678 65.6440249 35.5226723 255 79 163
33.6578393 65.5362557 35.3392384 255 79 163
33.6832118 65.469354 35.1347561 255 79 163
32.3171513 65.5684743 35.8626701 255 79 163
32.4333105 65.4001886 35.7911186 255 79 163
32.5375128 65.2492255 35.6758595 255 79 163
32.624533 65.1231549 35.5226723 255 79 163
32.6900077 65.0282985 35.3392384 255 79 163
32.7306535 64.9694128 35.1347561 255 79 163
31.3805672 64.7387332 35.8626701 255 79 163
31.5336245 64.6031364 35.7911186 255 79 163
31.6709267 64.4814972 35.6758595 255 79 163
31.7855889 64.3799153 35.5226723 255 79 163
31.8718616 64.3034844 35.3392384 255 79 163
31.9254187 64.256037 35.1347561 255 79 163
30.6697686 63.7089637 35.8626701 255 79 163
30.8508288 63.613936 35.7911186 255 79 163
31.0132514 63.5286901 35.6758595 255 79 163
31.1488919 63.4575004 35.5226723 255 79 163
31.2509488 63.4039368 35.3392384 255 79 163
31.3143045 63.3706852 35.1347561 255 79 163
30.2260645 62.5390122 35.8626701 255 79 163
30.424605 62.4900763 35.7911186 255 79 163
30.6027086 62.4461777 35.6758595 255 79 163
30.7514445 62.4095176 35.5226723 255 79 163
30.8633544 62.3819343 35.3392384 255 79 163
30.9328267 62.3648109 35.1347561 255 79 163
30.0752414 61.296872 35.8626701 255 79 163
30.2797238 61.296872 35.7911186 255 79 163
30.4631576 61.296872 35.6758595 255 79 163
30.6163448 61.296872 35.5226723 255 79 163
30.7316039 61.296872 35.3392384 255 79 163
30.8031554 61.296872 35.1347561 255 79 163
30.2260645 60.0547317 35.8626701 255 79 163
30.424605 60.1036676 35.7911186 255 79 163
30.6027086 60.1475662 35.6758595 255 79 163
30.7514445 60.1842263 35.5226723 255 79 163
30.8633544 60.2118096 35.3392384 255 79 163
30.9328267 60.228933 35.1347561 255 79 163
30.6697686 58.8847802 35.8626701 255 79 163
30.8508288 58.9798079 35.7911186 255 79 163
31.0132514 59.0650538 35.6758595 255 79 163
31.1488919 59.1362435 35.5226723 255 79 163
31.2509488 59.1898071 35.3392384 255 79 163
31.3143045 59.2230587 35.1347561 255 79 163
31.3805672 57.8550107 35.8626701 255 79 163
31.5336245 57.9906076 35.7911186 255 79 163
31.6709267 58.1122467 35.6758595 255 79 163
31.7855889 58.2138286 35.5226723 255 79 163
31.8718616 58.2902595 35.3392384 255 79 163
31.9254187 58.3377069 35.1347561 255 79 163
32.3171513 57.0252696 35.8626701 255 79 163
32.4333105 57.1935553 35.7911186 255 79 163
32.5375128 57.3445184 35.6758595 255 79 163
32.624533 57.470589 35.5226723 255 79 163
32.6900077 57.5654454 35.3392384 255 79 163
32.7306535 57.6243311 35.1347561 255 79 163
33.4250899 56.4437785 35.8626701 255 79 163
33.4976004 56.6349729 35.7911186 255 79 163
33.5626469 56.8064865 35.6758595 255 79 163
33.6169678 56.949719 35.5226723 255 79 163
33.6578393 57.0574882 35.3392384 255 79 163
33.6832118 57.12439 35.1347561 255 79 163
34.6399938 56.1443316 35.8626701 255 79 163
34.6646414 56.3473231 35.7911186 255 79 163
34.6867519 56.5294195 35.6758595 255 79 163
34.7052166 56.6814898 35.5226723 255 79 163
34.7191096 56.7959085 35.3392384 255 79 163
34.7277342 56.8669383 35.1347561 255 79 163
35.8912571 56.1443316 35.8626701 255 79 163
35.8666095 56.3473231 35.7911186 255 79 163
35.844499 56.5294195 35.6758595 255 79 163
35.8260343 56.6814898 35.5226723 255 79 163
35.8121414 56.7959085 35.3392384 255 79 163
35.8035168 56.8669383 35.1347561 255 79 163
37.106161 56.4437785 35.8626701 255 79 163
37.0336506 56.6349729 35.7911186 255 79 163
36.9686041 56.8064865 35.6758595 255 79 163
36.9142831 56.949719 35.5226723 255 79 163
36.8734117 57.0574882 35.3392384 255 79 163
36.8480392 57.12439 35.1347561 255 79 163
38.2140997 57.0252696 35.8626701 255 79 163
38.0979405 57.1935553 35.7911186 255 79 163
37.9937382 57.3445184 35.6758595 255 79 163
37.9067179 57.470589 35.5226723 255 79 163
37.8412433 57.5654454 35.3392384 255 79 163
37.8005974 57.6243311 35.1347561 255 79 163
39.1506837 57.8550107 35.8626701 255 79 163
38.9976265 57.9906076 35.7911186 255 79 163
38.8603243 58.1122467 35.6758595 255 79 163
38.745662 58.2138286 35.5226723 255 79 163
38.6593893 58.2902595 35.3392384 255 79 163
38.6058323 58.3377069 35.1347561 255 79 163
39.8614823 58.8847802 35.8626701 255 79 163
39.6804222 58.9798079 35.7911186 255 79 163
39.5179996 59.0650538 35.6758595 255 79 163
39.3823591 59.1362435 35.5226723 255 79 163
39.2803022 59.1898071 35.3392384 255 79 163
39.2169465 59.2230587 35.1347561 255 79 163
40.3051864 60.0547317 35.8626701 255 79 163
40.106646 60.1036676 35.7911186 255 79 163
39.9285424 60.1475662 35.6758595 255 79 163
39.7798065 60.1842263 35.5226723 255 79 163
39.6678966 60.2118096 35.3392384 255 79 163
39.5984243 60.228933 35.1347561 255 79 163
0.967447159 0 0.967447159 255 79 163
0.967447159 0.0242559201 0.752169914 255 79 163
0.967447159 0.0958073874 0.547687569 255 79 163
0.967447159 0.211066513 0.364253722 255 79 163
0.967447159 0.364253722 0.211066513 255 79 163
0.967447159 0.547687569 0.0958073874 255 79 163
0.967447159 0.752169914 0.0242559201 255 79 163
0.967447159 0.967447159 -1.11022302e-16 255 79 163
0.967447159 0 0.967447159 255 79 163
0.752169914 0.0242559201 0.967447159 255 79 163
0.547687569 0.0958073874 0.967447159 255 79 163
0.364253722 0.211066513 0.967447159 255 79 163
0.211066513 0.364253722 0.967447159 255 79 163
0.0958073874 0.547687569 0.967447159 255 79 163
0.0242559201 0.752169914 0.967447159 255 79 163
-1.11022302e-16 0.967447159 0.967447159 255 79 163
0.752169914 0.967447159 0.0242559201 255 79 163
0.547687569 0.967447159 0.0958073874 255 79 163
0.364253722 0.967447159 0.211066513 255 79 163
0.211066513 0.967447159 0.364253722 255 79 163
0.0958073874 0.967447159 0.547687569 255 79 163
0.0242559201 0.967447159 0.752169914 255 79 163
0.920679885 0.0473502343 0.67217021 255 79 163
0.831723243 0.0473502343 0.701073975 255 79 163
0.756052204 0.0473502343 0.756052204 255 79 163
0.791724283 0.184765966 0.426627756 255 79 163
0.701073975 0.0473502343 0.831723243 255 79 163
0.633202386 0.184765966 0.507398697 255 79 163
0.845008846 0.398795987 0.194402071 255 79 163
0.67217021 0.0473502343 0.920679885 255 79 163
0.507398697 0.184765966 0.633202386 255 79 163
0.612117333 0.398795987 0.27007311 255 79 163
0.426627756 0.184765966 0.791724283 255 79 163
0.41400798 0.398795987 0.41400798 255 79 163
0.683121573 0.668489546 0.0923829831 255 79 163
0.27007311 0.398795987 0.612117333 255 79 163
0.426627756 0.668489546 0.223073111 255 79 163
0.194402071 0.398795987 0.845008846 255 79 163
0.223073111 0.668489546 0.426627756 255 79 163
0.0923829831 0.668489546 0.683121573 255 79 163
92.9705211 -1.11022302e-16 0.967447159 218 222 230
92.9705211 0 64.2614151 218 222 230
0.967447159 0 0.967447159 218 222 230
0.967447159 -1.11022302e-16 64.2614151 218 222 230
0.967447159 71.0736291 -1.11022302e-16 218 222 230
92.003074 71.0736291 0 218 222 230
0.967447159 0.967447159 -1.11022302e-16 218 222 230
92.9705211 0.967447159 -1.11022302e-16 218 222 230
92.9705211 70.1061819 0 218 222 230
92.2183512 71.0493732 0 218 222 230
92.4228336 70.9778217 0 218 222 230
92.6062674 70.8625626 0 218 222 230
92.7594546 70.7093754 0 218 222 230
92.8747137 70.5259415 0 218 222 230
92.9462652 70.3214592 0 218 222 230
0.967447159 0.967447159 65.2288623 255 79 163
0.967447159 0.752169914 65.2046063 255 79 163
0.967447159 0.547687569 65.1330549 255 79 163
0.967447159 0.364253722 65.0177957 255 79 163
0.967447159 0.211066513 64.8646085 255 79 163
0.967447159 0.0958073874 64.6811747 255 79 163
0.967447159 0.0242559201 64.4766923 255 79 163
0.967447159 -1.11022302e-16 64.2614151 255 79 163
92.9705211 0 64.2614151 255 79 163
92.003074 0.967447159 65.2288623 255 79 163
92.2534677 0.717053409 65.1958973 255 79 163
92.4867975 0.48372358 65.0992489 255 79 163
92.6871624 0.283358713 64.9455035 255 79 163
92.8279583 0.142562854 64.7669048 255 79 163
92.9088699 0.0616512582 64.60125 255 79 163
92.9536262 0.0168949532 64.4414276 255 79 163
92.9662881 0.0042329989 64.3518169 255 79 163
92.9705211 61.8090632 64.2614151 218 222 230
92.9705211 61.8090632 39.455279 218 222 230
92.003074 63.1116767 65.2288623 218 222 230
92.3634499 62.6264507 65.1592365 218 222 230
92.6447938 62.2476368 64.9853969 218 222 230
92.8041966 62.0330098 64.803777 218 222 230
92.8991829 61.9051162 64.6260284 218 222 230
92.9477524 61.8397201 64.4700697 218 222 230
92.9648121 61.8167501 64.3663617 218 222 230
86.0897559 71.0736291 65.2288623 218 222 230
86.0897559 71.0736291 39.455279 218 222 230
92.003074 0.967447159 65.2288623 255 79 163
92.2534677 0.717053409 65.1958973 255 79 163
92.4867975 0.48372358 65.0992489 255 79 163
92.6871624 0.283358713 64.9455035 255 79 163
92.8279583 0.142562854 64.7669048 255 79 163
92.9088699 0.0616512582 64.60125 255 79 163
92.9536262 0.0168949532 64.4414276 255 79 163
92.9662881 0.0042329989 64.3518169 255 79 163
92.9705211 0 64.2614151 255 79 163
92.9705211 61.8090632 64.2614151 255 79 163
92.003074 63.1116767 65.2288623 255 79 163
92.3634499 62.6264507 65.1592365 255 79 163
92.6447938 62.2476368 64.9853969 255 79 163
92.8041966 62.0330098 64.803777 255 79 163
92.8991829 61.9051162 64.6260284 255 79 163
92.9477524 61.8397201 64.4700697 255 79 163
92.9648121 61.8167501 64.3663617 255 79 163
92.9705211 61.8090632 39.455279 218 222 230
92.9705211 70.1061819 39.455279 218 222 230
92.003074 71.0736291 39.455279 218 222 230
92.2183512 71.0493732 39.455279 218 222 230
92.4228336 70.9778217 39.455279 218 222 230
92.6062674 70.8625626 39.455279 218 222 230
92.7594546 70.7093754 39.455279 218 222 230
92.8747137 70.5259415 39.455279 218 222 230
92.9462652 70.3214592 39.455279 218 222 230
86.0897559 71.0736291 39.455279 218 222 230
92.003074 71.0736291 0 255 79 163
92.003074 71.0736291 39.455279 255 79 163
92.2183512 71.0493732 39.455279 255 79 163
92.4228336 70.9778217 39.455279 255 79 163
92.6062674 70.8625626 39.455279 255 79 163
92.7594546 70.7093754 39.455279 255 79 163
92.8747137 70.5259415 39.455279 255 79 163
92.9462652 70.3214592 39.455279 255 79 163
92.9705211 70.1061819 39.455279 255 79 163
92.9705211 70.1061819 0 255 79 163
92.2183512 71.0493732 0 255 79 163
92.4228336 70.9778217 0 255 79 163
92.6062674 70.8625626 0 255 79 163
92.7594546 70.7093754 0 255 79 163
92.8747137 70.5259415 0 255 79 163
92.9462652 70.3214592 0 255 79 163
39.7038396 61.296872 34.9194788 218 222 230
39.7038396 61.296872 24.1613198 218 222 230
39.5748732 62.3590061 24.1613198 218 222 230
39.1954689 63.3594129 24.1613198 218 222 230
38.5876765 64.2399523 24.1613198 218 222 230
37.7868185 64.9494506 24.1613198 218 222 230
36.8394379 65.4466743 24.1613198 218 222 230
35.8005931 65.7027265 24.1613198 218 222 230
34.7306579 65.7027265 24.1613198 218 222 230
33.6918131 65.4466743 24.1613198 218 222 230
32.7444325 64.9494506 24.1613198 218 222 230
31.9435745 64.2399523 24.1613198 218 222 230
31.335782 63.3594129 24.1613198 218 222 230
30.9563778 62.3590061 24.1613198 218 222 230
30.8274113 61.296872 24.1613198 218 222 230
30.9563778 60.2347378 24.1613198 218 222 230
31.335782 59.234331 24.1613198 218 222 230
31.9435745 58.3537916 24.1613198 218 222 230
32.7444325 57.6442933 24.1613198 218 222 230
33.6918131 57.1470696 24.1613198 218 222 230
34.7306579 56.8910174 24.1613198 218 222 230
35.8005931 56.8910174 24.1613198 218 222 230
36.8394379 57.1470696 24.1613198 218 222 230
37.7868185 57.6442933 24.1613198 218 222 230
38.5876765 58.3537916 24.1613198 218 222 230
39.1954689 59.234331 24.1613198 218 222 230
39.5748732 60.2347378 24.1613198 218 222 230
39.7038396 61.296872 24.1613198 218 222 230
39.7038396 61.296872 34.9194788 218 222 230
39.5748732 62.3590061 34.9194788 218 222 230
39.1954689 63.3594129 34.9194788 218 222 230
38.5876765 64.2399523 34.9194788 218 222 230
37.7868185 64.9494506 34.9194788 218 222 230
36.8394379 65.4466743 34.9194788 218 222 230
35.8005931 65.7027265 34.9194788 218 222 230
34.7306579 65.7027265 34.9194788 218 222 230
33.6918131 65.4466743 34.9194788 218 222 230
32.7444325 64.9494506 34.9194788 218 222 230
31.9435745 64.2399523 34.9194788 218 222 230
31.335782 63.3594129 34.9194788 218 222 230
30.9563778 62.3590061 34.9194788 218 222 230
30.8274113 61.296872 34.9194788 218 222 230
30.9563778 60.2347378 34.9194788 218 222 230
31.335782 59.234331 34.9194788 218 222 230
31.9435745 58.3537916 34.9194788 218 222 230
32.7444325 57.6442933 34.9194788 218 222 230
33.6918131 57.1470696 34.9194788 218 222 230
34.7306579 56.8910174 34.9194788 218 222 230
35.8005931 56.8910174 34.9194788 218 222 230
36.8394379 57.1470696 34.9194788 218 222 230
37.7868185 57.6442933 34.9194788 218 222 230
38.5876765 58.3537916 34.9194788 218 222 230
39.1954689 59.234331 34.9194788 218 222 230
39.5748732 60.2347378 34.9194788 218 222 230
0.967447159 0.967447159 -1.11022302e-16 255 79 163
92.9705211 0.967447159 -1.11022302e-16 255 79 163
92.9705211 0.752169914 0.0242559201 255 79 163
92.9705211 0.547687569 0.0958073874 255 79 163
92.9705211 0.364253722 0.211066513 255 79 163
92.9705211 0.211066513 0.364253722 255 79 163
92.9705211 0.0958073874 0.547687569 255 79 163
92.9705211 0.0242559201 0.752169914 255 79 163
92.9705211 -1.11022302e-16 0.967447159 255 79 163
0.967447159 0 0.967447159 255 79 163
0.967447159 0.0242559201 0.752169914 255 79 163
0.967447159 0.0958073874 0.547687569 255 79 163
0.967447159 0.211066513 0.364253722 255 79 163
0.967447159 0.364253722 0.211066513 255 79 163
0.967447159 0.547687569 0.0958073874 255 79 163
0.967447159 0.752169914 0.0242559201 255 79 163
92.9705211 61.8090632 64.2614151 218 222 230
92.9705211 61.8090632 39.455279 218 222 230
92.9705211 0 64.2614151 218 222 230
92.9705211 -1.11022302e-16 0.967447159 218 222 230
92.9705211 0.967447159 -1.11022302e-16 218 222 230
92.9705211 0.752169914 0.0242559201 218 222 230
92.9705211 0.547687569 0.0958073874 218 222 230
92.9705211 0.364253722 0.211066513 218 222 230
92.9705211 0.211066513 0.364253722 218 222 230
92.9705211 0.0958073874 0.547687569 218 222 230
92.9705211 0.0242559201 0.752169914 218 222 230
92.9705211 70.1061819 0 218 222 230
92.9705211 70.1061819 39.455279 218 222 230
38.7363925 61.296872 23.1938727 255 79 163
38.6355383 62.1274809 23.1938727 255 79 163
38.338837 62.9098178 23.1938727 255 79 163
37.8635319 63.5984162 23.1938727 255 79 163
37.2372459 64.1532572 23.1938727 255 79 163
36.4963764 64.5420955 23.1938727 255 79 163
35.6839802 64.7423332 23.1938727 255 79 163
34.8472708 64.7423332 23.1938727 255 79 163
34.0348745 64.5420955 23.1938727 255 79 163
33.2940051 64.1532572 23.1938727 255 79 163
32.6677191 63.5984162 23.1938727 255 79 163
32.1924139 62.9098178 23.1938727 255 79 163
31.8957127 62.1274809 23.1938727 255 79 163
31.7948585 61.296872 23.1938727 255 79 163
31.8957127 60.466263 23.1938727 255 79 163
32.1924139 59.6839261 23.1938727 255 79 163
32.6677191 58.9953277 23.1938727 255 79 163
33.2940051 58.4404867 23.1938727 255 79 163
34.0348745 58.0516484 23.1938727 255 79 163
34.8472708 57.8514108 23.1938727 255 79 163
35.6839802 57.8514108 23.1938727 255 79 163
36.4963764 58.0516484 23.1938727 255 79 163
37.2372459 58.4404867 23.1938727 255 79 163
37.8635319 58.9953277 23.1938727 255 79 163
38.338837 59.6839261 23.1938727 255 79 163
38.6355383 60.466263 23.1938727 255 79 163
38.7363925 61.296872 23.1938727 255 79 163
39.7038396 61.296872 24.1613198 255 79 163
39.6795837 61.296872 23.9460426 255 79 163
39.6080322 61.296872 23.7415603 255 79 163
39.4927731 61.296872 23.5581264 255 79 163
39.3395859 61.296872 23.4049392 255 79 163
39.1561521 61.296872 23.2896801 255 79 163
38.9516697 61.296872 23.2181286 255 79 163
39.7038396 61.296872 24.1613198 255 79 163
39.5748732 62.3590061 24.1613198 255 79 163
39.1954689 63.3594129 24.1613198 255 79 163
38.5876765 64.2399523 24.1613198 255 79 163
37.7868185 64.9494506 24.1613198 255 79 163
36.8394379 65.4466743 24.1613198 255 79 163
35.8005931 65.7027265 24.1613198 255 79 163
34.7306579 65.7027265 24.1613198 255 79 163
33.6918131 65.4466743 24.1613198 255 79 163
32.7444325 64.9494506 24.1613198 255 79 163
31.9435745 64.2399523 24.1613198 255 79 163
31.335782 63.3594129 24.1613198 255 79 163
30.9563778 62.3590061 24.1613198 255 79 163
30.8274113 61.296872 24.1613198 255 79 163
30.9563778 60.2347378 24.1613198 255 79 163
31.335782 59.234331 24.1613198 255 79 163
31.9435745 58.3537916 24.1613198 255 79 163
32.7444325 57.6442933 24.1613198 255 79 163
33.6918131 57.1470696 24.1613198 255 79 163
34.7306579 56.8910174 24.1613198 255 79 163
35.8005931 56.8910174 24.1613198 255 79 163
36.8394379 57.1470696 24.1613198 255 79 163
37.7868185 57.6442933 24.1613198 255 79 163
38.5876765 58.3537916 24.1613198 255 79 163
39.1954689 59.234331 24.1613198 255 79 163
39.5748732 60.2347378 24.1613198 255 79 163
39.6795837 61.296872 23.9460426 255 79 163
39.6080322 61.296872 23.7415603 255 79 163
39.4927731 61.296872 23.5581264 255 79 163
39.3395859 61.296872 23.4049392 255 79 163
39.1561521 61.296872 23.2896801 255 79 163
38.9516697 61.296872 23.2181286 255 79 163
39.5513221 60.2405426 23.9460426 255 79 163
39.4818498 60.257666 23.7415603 255 79 163
39.3699399 60.2852493 23.5581264 255 79 163
39.221204 60.3219094 23.4049392 255 79 163
39.0431004 60.365808 23.2896801 255 79 163
39.1739914 59.2456033 23.9460426 255 79 163
38.84456 60.4147438 23.2181286 255 79 163
39.1106357 59.2788549 23.7415603 255 79 163
39.0085788 59.3324185 23.5581264 255 79 163
38.8729383 59.4036081 23.4049392 255 79 163
38.7105157 59.4888541 23.2896801 255 79 163
38.5695207 58.3698762 23.9460426 255 79 163
38.5294556 59.5838818 23.2181286 255 79 163
38.5159636 58.4173236 23.7415603 255 79 163
38.4296909 58.4937546 23.5581264 255 79 163
38.3150287 58.5953365 23.4049392 255 79 163
38.1777264 58.7169756 23.2896801 255 79 163
37.7730395 57.6642555 23.9460426 255 79 163
38.0246692 58.8525725 23.2181286 255 79 163
37.7323937 57.7231412 23.7415603 255 79 163
37.666919 57.8179976 23.5581264 255 79 163
37.5798988 57.9440682 23.4049392 255 79 163
37.4756965 58.0950313 23.2896801 255 79 163
36.8308366 57.1697493 23.9460426 255 79 163
37.3595373 58.263317 23.2181286 255 79 163
36.8054641 57.2366511 23.7415603 255 79 163
36.7645927 57.3444202 23.5581264 255 79 163
36.7102718 57.4876528 23.4049392 255 79 163
36.6452252 57.6591664 23.2896801 255 79 163
35.7976694 56.9150964 23.9460426 255 79 163
36.5727148 57.8503607 23.2181286 255 79 163
35.7890448 56.9861262 23.7415603 255 79 163
35.7751518 57.100545 23.5581264 255 79 163
35.7566871 57.2526153 23.4049392 255 79 163
35.7345766 57.4347117 23.2896801 255 79 163
34.7335816 56.9150964 23.9460426 255 79 163
35.709929 57.6377031 23.2181286 255 79 163
34.7422062 56.9861262 23.7415603 255 79 163
34.7560991 57.100545 23.5581264 255 79 163
34.7745638 57.2526153 23.4049392 255 79 163
34.7966743 57.4347117 23.2896801 255 79 163
33.7004143 57.1697493 23.9460426 255 79 163
34.8213219 57.6377031 23.2181286 255 79 163
33.7257868 57.2366511 23.7415603 255 79 163
33.7666583 57.3444202 23.5581264 255 79 163
33.8209792 57.4876528 23.4049392 255 79 163
33.8860257 57.6591664 23.2896801 255 79 163
32.7582114 57.6642555 23.9460426 255 79 163
33.9585362 57.8503607 23.2181286 255 79 163
32.7988573 57.7231412 23.7415603 255 79 163
32.8643319 57.8179976 23.5581264 255 79 163
32.9513522 57.9440682 23.4049392 255 79 163
33.0555545 58.0950313 23.2896801 255 79 163
31.9617303 58.3698762 23.9460426 255 79 163
33.1717137 58.263317 23.2181286 255 79 163
32.0152873 58.4173236 23.7415603 255 79 163
32.10156 58.4937546 23.5581264 255 79 163
32.2162223 58.5953365 23.4049392 255 79 163
32.3535245 58.7169756 23.2896801 255 79 163
31.3572596 59.2456033 23.9460426 255 79 163
32.5065818 58.8525725 23.2181286 255 79 163
31.4206152 59.2788549 23.7415603 255 79 163
31.5226721 59.3324185 23.5581264 255 79 163
31.6583127 59.4036081 23.4049392 255 79 163
31.8207353 59.4888541 23.2896801 255 79 163
30.9799289 60.2405426 23.9460426 255 79 163
32.0017954 59.5838818 23.2181286 255 79 163
31.0494012 60.257666 23.7415603 255 79 163
31.1613111 60.2852493 23.5581264 255 79 163
31.3100469 60.3219094 23.4049392 255 79 163
31.4881505 60.365808 23.2896801 255 79 163
30.8516672 61.296872 23.9460426 255 79 163
31.686691 60.4147438 23.2181286 255 79 163
30.9232187 61.296872 23.7415603 255 79 163
31.0384778 61.296872 23.5581264 255 79 163
31.191665 61.296872 23.4049392 255 79 163
31.3750989 61.296872 23.2896801 255 79 163
30.9799289 62.3532013 23.9460426 255 79 163
31.5795812 61.296872 23.2181286 255 79 163
31.0494012 62.3360779 23.7415603 255 79 163
31.1613111 62.3084946 23.5581264 255 79 163
31.3100469 62.2718345 23.4049392 255 79 163
31.4881505 62.2279359 23.2896801 255 79 163
31.3572596 63.3481406 23.9460426 255 79 163
31.686691 62.1790001 23.2181286 255 79 163
31.4206152 63.314889 23.7415603 255 79 163
31.5226721 63.2613254 23.5581264 255 79 163
31.6583127 63.1901358 23.4049392 255 79 163
31.8207353 63.1048898 23.2896801 255 79 163
31.9617303 64.2238677 23.9460426 255 79 163
32.0017954 63.0098621 23.2181286 255 79 163
32.0152873 64.1764203 23.7415603 255 79 163
32.10156 64.0999893 23.5581264 255 79 163
32.2162223 63.9984074 23.4049392 255 79 163
32.3535245 63.8767683 23.2896801 255 79 163
32.7582114 64.9294884 23.9460426 255 79 163
32.5065818 63.7411714 23.2181286 255 79 163
32.7988573 64.8706027 23.7415603 255 79 163
32.8643319 64.7757463 23.5581264 255 79 163
32.9513522 64.6496757 23.4049392 255 79 163
33.0555545 64.4987126 23.2896801 255 79 163
33.7004143 65.4239946 23.9460426 255 79 163
33.1717137 64.3304269 23.2181286 255 79 163
33.7257868 65.3570928 23.7415603 255 79 163
33.7666583 65.2493237 23.5581264 255 79 163
33.8209792 65.1060911 23.4049392 255 79 163
33.8860257 64.9345775 23.2896801 255 79 163
34.7335816 65.6786475 23.9460426 255 79 163
33.9585362 64.7433832 23.2181286 255 79 163
34.7422062 65.6076177 23.7415603 255 79 163
34.7560991 65.4931989 23.5581264 255 79 163
34.7745638 65.3411286 23.4049392 255 79 163
34.7966743 65.1590322 23.2896801 255 79 163
35.7976694 65.6786475 23.9460426 255 79 163
34.8213219 64.9560408 23.2181286 255 79 163
35.7890448 65.6076177 23.7415603 255 79 163
35.7751518 65.4931989 23.5581264 255 79 163
35.7566871 65.3411286 23.4049392 255 79 163
35.7345766 65.1590322 23.2896801 255 79 163
36.8308366 65.4239946 23.9460426 255 79 163
35.709929 64.9560408 23.2181286 255 79 163
36.8054641 65.3570928 23.7415603 255 79 163
36.7645927 65.2493237 23.5581264 255 79 163
36.7102718 65.1060911 23.4049392 255 79 163
36.6452252 64.9345775 23.2896801 255 79 163
37.7730395 64.9294884 23.9460426 255 79 163
36.5727148 64.7433832 23.2181286 255 79 163
37.7323937 64.8706027 23.7415603 255 79 163
37.666919 64.7757463 23.5581264 255 79 163
37.5798988 64.6496757 23.4049392 255 79 163
37.4756965 64.4987126 23.2896801 255 79 163
38.5695207 64.2238677 23.9460426 255 79 163
37.3595373 64.3304269 23.2181286 255 79 163
38.5159636 64.1764203 23.7415603 255 79 163
38.4296909 64.0999893 23.5581264 255 79 163
38.3150287 63.9984074 23.4049392 255 79 163
38.1777264 63.8767683 23.2896801 255 79 163
39.1739914 63.3481406 23.9460426 255 79 163
38.0246692 63.7411714 23.2181286 255 79 163
39.1106357 63.314889 23.7415603 255 79 163
39.0085788 63.2613254 23.5581264 255 79 163
38.8729383 63.1901358 23.4049392 255 79 163
38.7105157 63.1048898 23.2896801 255 79 163
39.5513221 62.3532013 23.9460426 255 79 163
38.5294556 63.0098621 23.2181286 255 79 163
39.4818498 62.3360779 23.7415603 255 79 163
39.3699399 62.3084946 23.5581264 255 79 163
39.221204 62.2718345 23.4049392 255 79 163
39.0431004 62.2279359 23.2896801 255 79 163
38.84456 62.1790001 23.2181286 255 79 163
38.7363925 61.296872 23.1938727 218 222 230
38.6355383 62.1274809 23.1938727 218 222 230
38.338837 62.9098178 23.1938727 218 222 230
37.8635319 63.5984162 23.1938727 218 222 230
37.2372459 64.1532572 23.1938727 218 222 230
36.4963764 64.5420955 23.1938727 218 222 230
35.6839802 64.7423332 23.1938727 218 222 230
34.8472708 64.7423332 23.1938727 218 222 230
34.0348745 64.5420955 23.1938727 218 222 230
33.2940051 64.1532572 23.1938727 218 222 230
32.6677191 63.5984162 23.1938727 218 222 230
32.1924139 62.9098178 23.1938727 218 222 230
31.8957127 62.1274809 23.1938727 218 222 230
31.7948585 61.296872 23.1938727 218 222 230
31.8957127 60.466263 23.1938727 218 222 230
32.1924139 59.6839261 23.1938727 218 222 230
32.6677191 58.9953277 23.1938727 218 222 230
33.2940051 58.4404867 23.1938727 218 222 230
34.0348745 58.0516484 23.1938727 218 222 230
34.8472708 57.8514108 23.1938727 218 222 230
35.6839802 57.8514108 23.1938727 218 222 230
36.4963764 58.0516484 23.1938727 218 222 230
37.2372459 58.4404867 23.1938727 218 222 230
37.8635319 58.9953277 23.1938727 218 222 230
38.338837 59.6839261 23.1938727 218 222 230
38.6355383 60.466263 23.1938727 218 222 230
3 0 4 3
3 0 5 4
3 2 1 0
3 2 0 3
3 6 9 8
3 7 9 6
3 20 17 16
3 20 19 17
3 21 16 15
3 21 20 16
3 22 15 14
3 22 21 15
3 23 14 13
3 23 22 14
3 24 23 13
3 25 13 12
3 25 24 13
3 26 12 11
3 26 25 12
3 27 11 10
3 27 26 11
3 18 27 10
3 43 42 29
3 41 29 42
3 44 43 29
3 40 29 41
3 45 44 29
3 39 29 40
3 64 29 39
3 63 30 29
3 63 29 64
3 62 30 63
3 61 30 62
3 60 30 61
3 59 30 60
3 28 47 46
3 28 48 47
3 28 49 48
3 28 50 49
3 28 51 50
3 28 52 51
3 28 53 52
3 36 38 37
3 35 38 36
3 34 38 35
3 32 34 33
3 32 38 34
3 32 28 38
3 32 54 53
3 32 53 28
3 31 54 32
3 31 55 54
3 31 56 55
3 31 57 56
3 31 58 57
3 31 59 58
3 31 30 59
3 28 45 29
3 28 46 45
3 75 72 71
3 75 74 72
3 76 71 70
3 76 75 71
3 77 70 69
3 77 76 70
3 78 69 68
3 78 77 69
3 79 68 67
3 79 78 68
3 80 67 66
3 80 79 67
3 73 66 65
3 73 80 66
3 89 90 97
3 88 96 95
3 88 97 96
3 88 89 97
3 87 95 94
3 87 88 95
3 86 94 93
3 86 87 94
3 85 93 92
3 85 86 93
3 84 92 91
3 84 85 92
3 83 91 81
3 83 84 91
3 82 83 81
3 105 106 107
3 105 107 108
3 104 105 108
3 103 108 109
3 103 104 108
3 102 109 110
3 102 103 109
3 101 110 111
3 101 102 110
3 100 111 112
3 100 101 111
3 99 112 113
3 99 100 112
3 98 113 114
3 98 99 113
3 123 124 125
3 122 125 126
3 122 123 125
3 121 126 127
3 121 122 126
3 120 127 128
3 120 121 127
3 119 128 129
3 119 129 130
3 119 120 128
3 118 130 131
3 118 119 130
3 117 131 132
3 117 118 131
3 116 132 115
3 116 117 132
3 139 138 142
3 140 139 142
3 137 142 138
3 136 142 137
3 141 140 142
3 135 142 136
3 134 142 143
3 134 143 144
3 134 141 142
3 133 134 144
3 151 152 159
3 145 146 166
3 167 155 154
3 168 154 153
3 168 167 154
3 169 153 160
3 169 168 153
3 170 156 155
3 170 167 168
3 170 155 167
3 171 160 161
3 171 169 160
3 172 168 169
3 172 170 168
3 173 157 156
3 173 158 157
3 173 156 170
3 174 161 162
3 174 171 161
3 175 172 169
3 175 169 171
3 176 170 172
3 176 173 170
3 177 162 163
3 177 175 171
3 177 174 162
3 177 171 174
3 178 172 175
3 178 176 172
3 179 150 151
3 179 159 158
3 179 158 173
3 179 173 176
3 179 151 159
3 180 175 177
3 180 178 175
3 181 149 150
3 181 150 179
3 181 176 178
3 181 179 176
3 182 163 164
3 182 164 165
3 182 177 163
3 182 180 177
3 183 147 148
3 183 148 149
3 183 149 181
3 183 178 180
3 183 181 178
3 184 146 147
3 184 165 166
3 184 166 146
3 184 147 183
3 184 182 165
3 184 180 182
3 184 183 180
3 189 190 191
3 189 191 192
3 188 189 192
3 186 188 192
3 187 188 186
3 185 187 186
3 198 195 196
3 198 196 197
3 193 195 198
3 193 198 194
3 199 194 198
3 200 194 199
3 267 202 201
3 267 201 209
3 268 203 202
3 268 202 267
3 269 204 203
3 269 203 268
3 270 205 204
3 270 204 269
3 271 206 205
3 271 205 270
3 272 207 206
3 272 208 207
3 272 242 208
3 272 206 271
3 273 209 210
3 273 267 209
3 274 268 267
3 274 267 273
3 275 269 268
3 275 268 274
3 276 269 275
3 276 270 269
3 277 270 276
3 277 271 270
3 278 242 272
3 278 272 271
3 278 243 242
3 278 244 243
3 278 271 277
3 279 210 211
3 279 273 210
3 280 274 273
3 280 273 279
3 281 274 280
3 281 275 274
3 282 276 275
3 282 275 281
3 283 277 276
3 283 276 282
3 284 278 277
3 284 244 278
3 284 277 283
3 285 211 212
3 285 212 213
3 285 279 211
3 286 279 285
3 286 280 279
3 287 280 286
3 287 281 280
3 288 281 287
3 288 282 281
3 289 283 282
3 289 284 283
3 289 282 288
3 290 245 244
3 290 244 284
3 290 284 289
3 291 285 213
3 292 285 291
3 292 286 285
3 293 286 292
3 293 287 286
3 293 288 287
3 294 288 293
3 295 288 294
3 295 289 288
3 296 289 295
3 296 245 290
3 296 246 245
3 296 247 246
3 296 290 289
3 297 213 214
3 297 291 213
3 298 293 292
3 298 292 291
3 298 291 297
3 299 293 298
3 300 294 293
3 300 293 299
3 301 295 294
3 301 296 295
3 301 294 300
3 302 296 301
3 302 247 296
3 303 214 215
3 303 297 214
3 304 297 303
3 304 298 297
3 305 298 304
3 305 299 298
3 306 300 299
3 306 299 305
3 307 301 300
3 307 300 306
3 308 302 301
3 308 247 302
3 308 301 307
3 308 248 247
3 309 215 216
3 309 303 215
3 309 304 303
3 310 304 309
3 311 304 310
3 311 305 304
3 312 306 305
3 312 305 311
3 313 307 306
3 313 306 312
3 314 249 248
3 314 308 307
3 314 248 308
3 314 307 313
3 315 216 217
3 315 309 216
3 316 309 315
3 316 310 309
3 317 310 316
3 317 311 310
3 317 312 311
3 318 312 317
3 319 313 312
3 319 312 318
3 320 250 249
3 320 249 314
3 320 314 313
3 320 313 319
3 321 217 218
3 321 315 217
3 322 315 321
3 322 316 315
3 323 317 316
3 323 318 317
3 323 316 322
3 324 319 318
3 324 318 323
3 325 319 324
3 326 319 325
3 326 251 250
3 326 250 320
3 326 320 319
3 327 218 219
3 327 321 218
3 327 322 321
3 328 322 327
3 329 322 328
3 329 323 322
3 329 324 323
3 330 324 329
3 331 325 324
3 331 324 330
3 332 325 331
3 332 252 251
3 332 253 252
3 332 251 326
3 332 326 325
3 333 219 220
3 333 327 219
3 333 328 327
3 334 328 333
3 335 329 328
3 335 330 329
3 335 328 334
3 336 330 335
3 336 331 330
3 337 332 331
3 337 331 336
3 338 253 332
3 338 332 337
3 339 220 221
3 339 333 220
3 340 333 339
3 340 334 333
3 341 335 334
3 341 334 340
3 342 336 335
3 342 335 341
3 343 337 336
3 343 338 337
3 343 336 342
3 344 253 338
3 344 254 253
3 344 255 254
3 344 338 343
3 345 221 222
3 345 339 221
3 346 340 339
3 346 339 345
3 347 341 340
3 347 340 346
3 348 342 341
3 348 341 347
3 349 342 348
3 349 343 342
3 350 255 344
3 350 344 343
3 350 343 349
3 351 222 223
3 351 345 222
3 352 345 351
3 352 346 345
3 352 347 346
3 353 347 352
3 354 348 347
3 354 347 353
3 355 348 354
3 355 349 348
3 356 256 255
3 356 255 350
3 356 350 349
3 356 349 355
3 357 223 224
3 357 351 223
3 358 352 351
3 358 351 357
3 358 353 352
3 359 353 358
3 360 353 359
3 360 354 353
3 360 355 354
3 361 355 360
3 362 355 361
3 362 257 256
3 362 256 356
3 362 356 355
3 363 224 225
3 363 357 224
3 364 357 363
3 364 358 357
3 365 358 364
3 365 359 358
3 366 360 359
3 366 359 365
3 367 361 360
3 367 360 366
3 368 362 361
3 368 258 257
3 368 257 362
3 368 361 367
3 369 225 226
3 369 363 225
3 370 364 363
3 370 363 369
3 371 365 364
3 371 364 370
3 372 366 365
3 372 365 371
3 373 368 367
3 373 366 372
3 373 367 366
3 374 368 373
3 374 258 368
3 374 259 258
3 375 226 227
3 375 369 226
3 376 370 369
3 376 369 375
3 377 370 376
3 377 371 370
3 378 372 371
3 378 371 377
3 379 373 372
3 379 372 378
3 380 374 373
3 380 259 374
3 380 373 379
3 380 260 259
3 381 227 228
3 381 375 227
3 382 375 381
3 382 376 375
3 383 378 377
3 383 377 376
3 383 376 382
3 384 379 378
3 384 378 383
3 385 379 384
3 385 380 379
3 386 261 260
3 386 260 380
3 386 380 385
3 387 228 229
3 387 381 228
3 388 381 387
3 388 382 381
3 389 383 382
3 389 382 388
3 390 383 389
3 390 384 383
3 391 385 384
3 391 384 390
3 392 262 261
3 392 261 386
3 392 386 385
3 392 385 391
3 393 229 230
3 393 387 229
3 394 387 393
3 394 388 387
3 394 389 388
3 395 389 394
3 395 390 389
3 396 390 395
3 397 390 396
3 397 391 390
3 398 392 391
3 398 391 397
3 398 263 262
3 398 262 392
3 399 230 231
3 399 393 230
3 400 393 399
3 400 394 393
3 401 395 394
3 401 394 400
3 402 396 395
3 402 397 396
3 402 395 401
3 403 397 402
3 404 397 403
3 404 263 398
3 404 264 263
3 404 398 397
3 405 231 232
3 405 399 231
3 406 400 399
3 406 401 400
3 406 399 405
3 407 401 406
3 408 403 402
3 408 401 407
3 408 402 401
3 409 403 408
3 410 404 403
3 410 403 409
3 410 264 404
3 410 265 264
3 411 232 233
3 411 233 234
3 411 234 235
3 411 405 232
3 412 407 406
3 412 406 405
3 412 235 236
3 412 405 411
3 412 411 235
3 413 236 237
3 413 407 412
3 413 412 236
3 414 237 238
3 414 408 407
3 414 407 413
3 414 413 237
3 415 238 239
3 415 408 414
3 415 409 408
3 415 414 238
3 416 410 409
3 416 239 240
3 416 240 241
3 416 415 239
3 416 265 410
3 416 266 265
3 416 241 266
3 416 409 415
3 433 424 423
3 432 438 431
3 439 419 418
3 440 418 417
3 440 439 418
3 441 417 425
3 441 440 417
3 442 420 419
3 442 419 439
3 442 439 440
3 443 425 426
3 443 441 425
3 444 440 441
3 444 442 440
3 445 421 420
3 445 422 421
3 445 420 442
3 446 426 427
3 446 443 426
3 447 444 441
3 447 441 443
3 448 442 444
3 448 445 442
3 449 427 428
3 449 443 446
3 449 446 427
3 449 447 443
3 450 444 447
3 450 448 444
3 451 423 422
3 451 434 433
3 451 422 445
3 451 445 448
3 451 433 423
3 452 447 449
3 452 450 447
3 453 435 434
3 453 436 435
3 453 434 451
3 453 448 450
3 453 451 448
3 454 428 429
3 454 429 430
3 454 449 428
3 454 452 449
3 455 437 436
3 455 436 453
3 455 450 452
3 455 453 450
3 456 430 431
3 456 438 437
3 456 437 455
3 456 431 438
3 456 454 430
3 456 452 454
3 456 455 452
3 458 459 457
3 458 460 459
3 462 463 461
3 462 464 463
3 465 464 462
3 470 471 465
3 470 465 462
3 468 462 466
3 468 466 467
3 469 470 462
3 469 462 468
3 481 472 473
3 482 473 474
3 482 481 473
3 483 474 475
3 483 482 474
3 484 475 476
3 484 483 475
3 485 476 477
3 485 484 476
3 486 477 478
3 486 485 477
3 487 486 478
3 488 478 479
3 488 487 478
3 480 488 479
3 489 491 492
3 489 498 491
3 489 499 498
3 489 490 499
3 496 497 489
3 493 489 492
3 495 496 489
3 494 489 493
3 494 495 489
3 510 500 501
3 511 501 502
3 511 510 501
3 512 502 503
3 512 511 502
3 513 503 504
3 513 512 503
3 514 504 505
3 514 513 504
3 515 505 506
3 515 514 505
3 516 506 507
3 516 515 506
3 509 507 508
3 509 516 507
3 518 526 517
3 519 526 518
3 525 519 518
3 521 520 519
3 522 521 519
3 523 525 524
3 523 519 525
3 523 522 519
3 534 535 536
3 534 536 542
3 533 542 541
3 533 534 542
3 532 541 540
3 532 533 541
3 531 539 538
3 531 540 539
3 531 532 540
3 530 538 537
3 530 531 538
3 529 530 537
3 528 537 527
3 528 529 537
3 572 544 543
3 572 545 544
3 573 546 545
3 573 547 546
3 573 545 572
3 574 547 573
3 575 548 547
3 575 549 548
3 575 547 574
3 576 549 575
3 577 550 549
3 577 549 576
3 578 551 550
3 578 550 577
3 579 552 551
3 579 551 578
3 580 553 552
3 580 554 553
3 580 552 579
3 581 554 580
3 582 554 581
3 582 555 554
3 583 555 582
3 583 556 555
3 583 557 556
3 584 557 583
3 585 557 584
3 585 558 557
3 586 559 558
3 586 558 585
3 587 560 559
3 587 559 586
3 588 561 560
3 588 560 587
3 589 562 561
3 589 561 588
3 590 563 562
3 590 562 589
3 591 564 563
3 591 563 590
3 592 565 564
3 592 564 591
3 593 566 565
3 593 565 592
3 594 567 566
3 594 566 593
3 595 568 567
3 595 567 594
3 596 569 568
3 596 568 595
3 571 570 569
3 571 569 596
3 605 606 607
3 604 607 608
3 604 605 607
3 603 608 609
3 603 604 608
3 602 609 610
3 602 603 609
3 601 610 611
3 601 602 610
3 600 611 612
3 600 601 611
3 599 612 597
3 599 600 612
3 598 599 597
3 614 624 625
3 617 624 614
3 619 618 617
3 622 621 620
3 616 620 619
3 616 623 622
3 616 619 617
3 616 617 614
3 616 622 620
3 615 614 613
3 615 616 614
3 686 660 661
3 692 653 654
3 692 685 653
3 693 654 655
3 693 692 654
3 694 655 656
3 694 693 655
3 695 656 657
3 695 694 656
3 696 657 658
3 696 695 657
3 697 684 685
3 697 685 692
3 698 652 651
3 698 658 659
3 698 659 652
3 698 696 658
3 699 692 693
3 699 697 692
3 700 693 694
3 700 699 693
3 701 694 695
3 701 700 694
3 702 695 696
3 702 701 695
3 703 684 697
3 703 682 683
3 703 683 684
3 704 698 651
3 704 651 650
3 704 702 696
3 704 696 698
3 705 703 697
3 705 697 699
3 706 699 700
3 706 705 699
3 707 700 701
3 707 706 700
3 708 701 702
3 708 707 701
3 709 682 703
3 710 708 702
3 710 649 648
3 710 650 649
3 710 702 704
3 710 704 650
3 711 709 703
3 711 703 705
3 712 706 707
3 712 705 706
3 712 711 705
3 713 712 707
3 714 713 707
3 714 708 710
3 714 707 708
3 715 680 681
3 715 681 682
3 715 682 709
3 716 648 647
3 716 714 710
3 716 710 648
3 717 715 709
3 717 709 711
3 718 711 712
3 718 717 711
3 718 712 713
3 719 718 713
3 720 719 713
3 720 713 714
3 721 680 715
3 722 716 647
3 722 720 714
3 722 714 716
3 723 721 715
3 723 715 717
3 724 723 717
3 724 717 718
3 725 718 719
3 725 724 718
3 726 719 720
3 726 725 719
3 727 680 721
3 727 679 680
3 728 722 647
3 728 720 722
3 728 647 646
3 728 726 720
3 729 727 721
3 729 721 723
3 730 729 723
3 730 723 724
3 731 724 725
3 731 725 726
3 731 730 724
3 732 726 728
3 732 731 726
3 733 679 727
3 733 678 679
3 734 645 644
3 734 646 645
3 734 728 646
3 734 732 728
3 735 727 729
3 735 733 727
3 736 729 730
3 736 735 729
3 737 736 730
3 737 730 731
3 737 731 732
3 738 737 732
3 739 677 678
3 739 678 733
3 740 644 643
3 740 734 644
3 740 732 734
3 740 738 732
3 741 739 733
3 741 733 735
3 742 735 736
3 742 741 735
3 743 742 736
3 743 736 737
3 743 737 738
3 744 743 738
3 745 676 677
3 745 677 739
3 746 740 643
3 746 738 740
3 746 744 738
3 747 739 741
3 747 745 739
3 748 742 743
3 748 747 741
3 748 741 742
3 749 748 743
3 750 743 744
3 750 749 743
3 751 676 745
3 751 675 676
3 752 750 744
3 752 643 642
3 752 746 643
3 752 744 746
3 753 751 745
3 753 745 747
3 754 748 749
3 754 753 747
3 754 747 748
3 755 754 749
3 756 749 750
3 756 755 749
3 757 675 751
3 757 751 753
3 757 673 674
3 757 674 675
3 758 752 642
3 758 642 641
3 758 756 750
3 758 750 752
3 759 757 753
3 759 753 754
3 760 759 754
3 761 754 755
3 761 760 754
3 762 755 756
3 762 761 755
3 763 673 757
3 764 641 640
3 764 758 641
3 764 756 758
3 764 762 756
3 765 757 759
3 765 763 757
3 766 765 759
3 766 759 760
3 766 760 761
3 767 766 761
3 768 761 762
3 768 762 764
3 768 767 761
3 769 673 763
3 769 671 672
3 769 672 673
3 769 763 765
3 770 640 639
3 770 764 640
3 770 768 764
3 771 769 765
3 772 765 766
3 772 766 767
3 772 771 765
3 773 772 767
3 774 767 768
3 774 773 767
3 775 671 769
3 776 638 637
3 776 639 638
3 776 770 639
3 776 768 770
3 776 774 768
3 777 775 769
3 777 769 771
3 777 771 772
3 778 772 773
3 778 777 772
3 779 778 773
3 780 773 774
3 780 779 773
3 781 669 670
3 781 670 671
3 781 671 775
3 782 776 637
3 782 774 776
3 782 780 774
3 783 781 775
3 783 775 777
3 784 783 777
3 784 777 778
3 785 784 778
3 785 778 779
3 786 785 779
3 786 779 780
3 787 669 781
3 787 668 669
3 787 781 783
3 788 636 635
3 788 786 780
3 788 637 636
3 788 782 637
3 788 780 782
3 789 787 783
3 789 783 784
3 790 789 784
3 790 784 785
3 791 790 785
3 792 785 786
3 792 791 785
3 792 786 788
3 793 668 787
3 794 788 635
3 794 792 788
3 795 787 789
3 795 793 787
3 796 789 790
3 796 790 791
3 796 795 789
3 797 796 791
3 798 791 792
3 798 797 791
3 799 668 793
3 799 666 667
3 799 667 668
3 800 635 634
3 800 798 792
3 800 792 794
3 800 794 635
3 801 793 795
3 801 799 793
3 802 801 795
3 802 795 796
3 803 796 797
3 803 802 796
3 804 797 798
3 804 803 797
3 805 666 799
3 806 634 633
3 806 800 634
3 806 798 800
3 806 804 798
3 807 801 802
3 807 799 801
3 807 805 799
3 808 807 802
3 809 802 803
3 809 808 802
3 810 803 804
3 810 809 803
3 811 665 666
3 811 666 805
3 812 633 632
3 812 806 633
3 812 804 806
3 812 810 804
3 813 811 805
3 813 805 807
3 814 807 808
3 814 813 807
3 815 808 809
3 815 814 808
3 816 809 810
3 816 815 809
3 817 664 665
3 817 665 811
3 818 632 631
3 818 812 632
3 818 810 812
3 818 816 810
3 819 817 811
3 819 811 813
3 820 819 813
3 820 813 814
3 820 814 815
3 821 820 815
3 822 816 818
3 822 821 815
3 822 815 816
3 823 817 819
3 823 663 664
3 823 664 817
3 824 631 630
3 824 822 818
3 824 818 631
3 825 819 820
3 825 823 819
3 826 820 821
3 826 825 820
3 827 821 822
3 827 826 821
3 828 827 822
3 829 663 823
3 829 661 662
3 829 662 663
3 830 630 629
3 830 822 824
3 830 828 822
3 830 824 630
3 831 823 825
3 831 829 823
3 832 825 826
3 832 831 825
3 832 826 827
3 833 832 827
3 834 827 828
3 834 833 827
3 835 661 829
3 835 686 661
3 836 629 628
3 836 830 629
3 836 834 828
3 836 828 830
3 837 831 832
3 837 835 829
3 837 687 686
3 837 688 687
3 837 829 831
3 837 686 835
3 838 837 832
3 838 688 837
3 838 689 688
3 839 832 833
3 839 833 834
3 839 838 832
3 839 689 838
3 840 690 689
3 840 689 839
3 840 839 834
3 841 627 626
3 841 628 627
3 841 836 628
3 841 834 836
3 841 840 834
3 841 691 690
3 841 626 691
3 841 690 840
3 867 865 866
3 862 863 864
3 843 867 842
3 845 843 844
3 845 864 865
3 845 865 867
3 845 867 843
3 857 858 859
3 847 845 846
3 847 862 864
3 847 864 845
3 855 856 857
3 854 857 859
3 854 855 857
3 850 847 848
3 850 848 849
3 850 859 860
3 850 860 861
3 850 861 862
3 850 862 847
3 853 854 859
3 852 850 851
3 852 859 850
3 852 853 859
