ply
format ascii 1.0
comment generated by blendit.inference.finetune_visualize
element vertex 780
property float x
property float y
property float z
property uchar red
property uchar green
property uchar blue
element face 882
property list uchar int vertex_indices
end_header
0 0 62.023275 218 222 230
-1.11022302e-16 85.0527273 62.023275 218 222 230
0 0 0 218 222 230
0 28.5510502 -1.11022302e-16 218 222 230
-2.77555756e-17 28.5510502 18.2796254 218 222 230
-2.77858512e-17 28.5561039 18.321208 218 222 230
-2.71704376e-17 28.5699606 18.360669 218 222 230
-2.6275127e-17 28.5905014 18.3972014 218 222 230
-2.49435188e-17 28.6251138 18.4411232 218 222 230
-2.28983172e-17 28.6867344 18.4978994 218 222 230
-1.96914592e-17 28.7917015 18.5671969 218 222 230
-1.43600926e-17 28.9637278 18.6443557 218 222 230
-7.95705312e-18 29.1683622 18.7005819 218 222 230
-3.42137581e-18 29.308008 18.7213914 218 222 230
0 29.4489498 18.7285752 218 222 230
0 30.5510502 18.7285752 218 222 230
0 31 18.2796254 218 222 230
0 30.9887439 18.3795262 218 222 230
0 30.95554 18.4744175 218 222 230
0 30.9020533 18.559541 218 222 230
0 30.8309658 18.6306285 218 222 230
0 30.7458422 18.6841152 218 222 230
0 30.650951 18.7173191 218 222 230
0 31 0.448949768 218 222 230
0 31.4489498 -1.11022302e-16 218 222 230
0 31.349049 0.011256108 218 222 230
0 31.2541578 0.0444600038 218 222 230
0 31.1690342 0.0979467053 218 222 230
0 31.0979467 0.169034166 218 222 230
0 31.04446 0.254157764 218 222 230
0 31.0112561 0.349049046 218 222 230
-1.11022302e-16 85.0527273 0 218 222 230
0 0 62.023275 218 222 230
-1.11022302e-16 85.0527273 62.023275 218 222 230
41.8247187 -1.11022302e-16 62.023275 218 222 230
41.8247187 85.5016771 62.023275 218 222 230
0.448949768 85.5016771 62.023275 218 222 230
0.011256108 85.1526281 62.023275 218 222 230
0.0444600038 85.2475194 62.023275 218 222 230
0.0979467053 85.332643 62.023275 218 222 230
0.169034166 85.4037304 62.023275 218 222 230
0.254157764 85.4572171 62.023275 218 222 230
0.349049046 85.490421 62.023275 218 222 230
11.6388497 26.4159692 62.023275 218 222 230
10.9097215 26.2849929 62.023275 218 222 230
11.7324557 26.4228163 62.023275 218 222 230
11.8254397 26.4100521 62.023275 218 222 230
11.913738 26.3782343 62.023275 218 222 230
11.9934915 26.3287536 62.023275 218 222 230
12.0612146 26.2637725 62.023275 218 222 230
12.5392075 25.6978171 62.023275 218 222 230
12.2880722 25.0008854 62.023275 218 222 230
11.9450836 24.711205 62.023275 218 222 230
12.0352204 24.7373643 62.023275 218 222 230
12.1179487 24.7816925 62.023275 218 222 230
12.1896529 24.8422522 62.023275 218 222 230
12.247199 24.9163966 62.023275 218 222 230
11.4710732 24.6260566 62.023275 218 222 230
11.0487083 24.7782533 62.023275 218 222 230
11.1164314 24.7132721 62.023275 218 222 230
11.1961849 24.6637914 62.023275 218 222 230
11.2844832 24.6319736 62.023275 218 222 230
11.3774672 24.6192094 62.023275 218 222 230
10.5707154 25.3442087 62.023275 218 222 230
-1.11022302e-16 85.0527273 0 218 222 230
-1.11022302e-16 85.0527273 62.023275 218 222 230
0.011256108 85.1526281 62.023275 218 222 230
0.0444600038 85.2475194 62.023275 218 222 230
0.0979467053 85.332643 62.023275 218 222 230
0.169034166 85.4037304 62.023275 218 222 230
0.254157764 85.4572171 62.023275 218 222 230
0.349049046 85.490421 62.023275 218 222 230
0.448949768 85.5016771 62.023275 218 222 230
0.448949768 85.5016771 0.448949768 218 222 230
0.00660658528 85.1294633 0.00660658528 218 222 230
0.0262319008 85.2039408 0.0262319008 218 222 230
0.0582983482 85.2739679 0.0582983482 218 222 230
0.101862171 85.3374836 0.101862171 218 222 230
0.155641228 85.3926185 0.155641228 218 222 230
0.218052735 85.43775 0.218052735 218 222 230
0.311491593 85.4801161 0.311491593 218 222 230
0.379380329 85.4962541 0.379380329 218 222 230
0 0 0 218 222 230
0.871418207 -1.11022302e-16 0 218 222 230
0 0 62.023275 218 222 230
41.8247187 -1.11022302e-16 62.023275 218 222 230
41.8247187 -9.43689571e-16 22.064215 218 222 230
0.871418207 -9.43689571e-16 22.064215 218 222 230
42.2736684 11.591583 0 218 222 230
42.2736684 85.0527273 -1.11022302e-16 218 222 230
-1.11022302e-16 85.0527273 0 218 222 230
0 31.4489498 -1.11022302e-16 218 222 230
26.9831384 31.4489498 -1.11022302e-16 218 222 230
27.3298947 31.4068459 0 218 222 230
27.6564989 31.2829813 0 218 222 230
27.9439698 31.0845545 0 218 222 230
28.1756006 30.8230973 0 218 222 230
28.3379299 30.5138047 0 218 222 230
28.4215237 30.1746516 0 218 222 230
28.4215237 29.8253484 0 218 222 230
28.3379299 29.4861953 0 218 222 230
28.1756006 29.1769027 0 218 222 230
27.9439698 28.9154455 0 218 222 230
27.6564989 28.7170187 0 218 222 230
27.3298947 28.5931541 0 218 222 230
26.9831384 28.5510502 0 218 222 230
0 28.5510502 -1.11022302e-16 218 222 230
0 0 0 218 222 230
0.871418207 -1.11022302e-16 0 218 222 230
0.971318928 0.011256108 0 218 222 230
1.06621021 0.0444600038 0 218 222 230
1.15133381 0.0979467053 0 218 222 230
1.22242127 0.169034166 0 218 222 230
1.27590797 0.254157764 0 218 222 230
1.30911187 0.349049046 0 218 222 230
1.32036797 0.448949768 0 218 222 230
1.32036797 11.0886321 0 218 222 230
1.32036797 11.3648592 1.11022302e-16 218 222 230
42.2254653 11.3648592 1.11022302e-16 218 222 230
42.2520262 11.4373085 0 218 222 230
42.2682249 11.513499 0 218 222 230
11.0487083 24.7782533 0 218 222 230
10.5707154 25.3442087 0 218 222 230
10.9097215 26.2849929 0 218 222 230
11.6388497 26.4159692 0 218 222 230
11.7324557 26.4228163 0 218 222 230
11.8254397 26.4100521 0 218 222 230
11.913738 26.3782343 0 218 222 230
11.9934915 26.3287536 0 218 222 230
12.0612146 26.2637725 0 218 222 230
12.5392075 25.6978171 0 218 222 230
12.2880722 25.0008854 0 218 222 230
11.9450836 24.711205 0 218 222 230
12.0352204 24.7373643 0 218 222 230
12.1179487 24.7816925 0 218 222 230
12.1896529 24.8422522 0 218 222 230
12.247199 24.9163966 0 218 222 230
11.4710732 24.6260566 0 218 222 230
11.1164314 24.7132721 0 218 222 230
11.1961849 24.6637914 0 218 222 230
11.2844832 24.6319736 0 218 222 230
11.3774672 24.6192094 0 218 222 230
0 31.4489498 -1.11022302e-16 255 79 163
26.9831384 31.4489498 -1.11022302e-16 255 79 163
26.9831384 31.349049 0.011256108 255 79 163
26.9831384 31.2541578 0.0444600038 255 79 163
26.9831384 31.1690342 0.0979467053 255 79 163
26.9831384 31.0979467 0.169034166 255 79 163
26.9831384 31.04446 0.254157764 255 79 163
26.9831384 31.0112561 0.349049046 255 79 163
26.9831384 31 0.448949768 255 79 163
0 31 0.448949768 255 79 163
0 31.349049 0.011256108 255 79 163
0 31.2541578 0.0444600038 255 79 163
0 31.1690342 0.0979467053 255 79 163
0 31.0979467 0.169034166 255 79 163
0 31.04446 0.254157764 255 79 163
0 31.0112561 0.349049046 255 79 163
0 28.5510502 -1.11022302e-16 255 79 163
-2.77555756e-17 28.5510502 18.2796254 255 79 163
0.0124039993 28.6558549 18.2796254 255 79 163
0.048932804 28.7548694 18.2796254 255 79 163
0.107565945 28.84262 18.2796254 255 79 163
0.185063316 28.9142578 18.2796254 255 79 163
0.277144178 28.9658258 18.2796254 255 79 163
0.361364576 28.9913741 18.2796254 255 79 163
0.448949768 29 18.2796254 255 79 163
0.448949768 29 0.448949768 255 79 163
0.00660658528 28.6277862 0.00660658528 255 79 163
0.0262319008 28.7022637 0.0262319008 255 79 163
0.0582983482 28.7722907 0.0582983482 255 79 163
0.101862171 28.8358064 0.101862171 255 79 163
0.155641228 28.8909414 0.155641228 255 79 163
0.218052735 28.9360729 0.218052735 255 79 163
0.311491593 28.978439 0.311491593 255 79 163
0.379380329 28.994577 0.379380329 255 79 163
0 31 0.448949768 218 222 230
0 31 18.2796254 218 222 230
26.9831384 31 18.2796254 218 222 230
26.9831384 31 0.448949768 218 222 230
0 29.4489498 18.7285752 255 79 163
0 29.4489498 18.7285752 255 79 163
-2.77555756e-17 28.5510502 18.2796254 255 79 163
-2.77858512e-17 28.5561039 18.321208 255 79 163
-2.71704376e-17 28.5699606 18.360669 255 79 163
-2.6275127e-17 28.5905014 18.3972014 255 79 163
-2.49435188e-17 28.6251138 18.4411232 255 79 163
-2.28983172e-17 28.6867344 18.4978994 255 79 163
-1.96914592e-17 28.7917015 18.5671969 255 79 163
-1.43600926e-17 28.9637278 18.6443557 255 79 163
-7.95705312e-18 29.1683622 18.7005819 255 79 163
-3.42137581e-18 29.308008 18.7213914 255 79 163
0.0124039993 28.6558549 18.2796254 255 79 163
0.048932804 28.7548694 18.2796254 255 79 163
0.107565945 28.84262 18.2796254 255 79 163
0.185063316 28.9142578 18.2796254 255 79 163
0.277144178 28.9658258 18.2796254 255 79 163
0.361364576 28.9913741 18.2796254 255 79 163
0.448949768 29 18.2796254 255 79 163
0.374124806 29.0152976 18.3958222 255 79 163
0.299299845 29.0601479 18.5041003 255 79 163
0.224474884 29.1314943 18.5970809 255 79 163
0.149649923 29.2244833 18.6684309 255 79 163
0.0748249613 29.3327446 18.7132742 255 79 163
0.0138461517 28.7777975 18.4916238 255 79 163
0.0293635064 28.8200315 18.4873956 255 79 163
0.0495093016 28.8597816 18.4830821 255 79 163
0.073815484 28.896395 18.4787209 255 79 163
0.101998274 28.9293536 18.4743665 255 79 163
0.169243087 28.9828451 18.4659292 255 79 163
0.249195546 29.0182404 18.4582225 255 79 163
0.0660176388 29.0837694 18.6210115 255 79 163
0.0544607857 29.1416031 18.6543436 255 79 163
0.0406896991 29.214398 18.6862055 255 79 163
0.0291198974 29.2784653 18.7063793 255 79 163
0.0201083439 29.3300865 18.7178047 255 79 163
0.0227564434 28.9576392 18.5954298 255 79 163
0.0192067526 29.0283931 18.633629 255 79 163
0.0174561179 29.0632258 18.6494939 255 79 163
0.0132245596 29.1484562 18.681366 255 79 163
0.0111128697 29.1922447 18.6942805 255 79 163
0.00936640226 29.2296867 18.7036033 255 79 163
0.00674124893 29.2894627 18.7153492 255 79 163
0.00550504231 29.3196329 18.7198553 255 79 163
0.00295911362 29.1801804 18.6975657 255 79 163
0.00271182846 29.2004817 18.7020669 255 79 163
0.00233454691 29.2326416 18.7084595 255 79 163
0.00164339858 29.2974736 18.7186515 255 79 163
0 31 18.2796254 255 79 163
0 30.9887439 18.3795262 255 79 163
0 30.95554 18.4744175 255 79 163
0 30.9020533 18.559541 255 79 163
0 30.8309658 18.6306285 255 79 163
0 30.7458422 18.6841152 255 79 163
0 30.650951 18.7173191 255 79 163
0 30.5510502 18.7285752 255 79 163
26.9831384 30.5510502 18.7285752 255 79 163
26.9831384 31 18.2796254 255 79 163
26.9831384 30.9887439 18.3795262 255 79 163
26.9831384 30.95554 18.4744175 255 79 163
26.9831384 30.9020533 18.559541 255 79 163
26.9831384 30.8309658 18.6306285 255 79 163
26.9831384 30.7458422 18.6841152 255 79 163
26.9831384 30.650951 18.7173191 255 79 163
0 29.4489498 18.7285752 218 222 230
0 30.5510502 18.7285752 218 222 230
26.9831384 30.5510502 18.7285752 218 222 230
27.1150133 30.5350377 18.7285752 218 222 230
27.2392242 30.4879307 18.7285752 218 222 230
27.3485523 30.412467 18.7285752 218 222 230
27.4366438 30.3130322 18.7285752 218 222 230
27.4983793 30.1954051 18.7285752 218 222 230
27.5301708 30.0664218 18.7285752 218 222 230
27.5301708 29.9335782 18.7285752 218 222 230
27.4983793 29.8045949 18.7285752 218 222 230
27.4366438 29.6869678 18.7285752 218 222 230
27.3485523 29.587533 18.7285752 218 222 230
27.2392242 29.5120693 18.7285752 218 222 230
27.1150133 29.4649623 18.7285752 218 222 230
26.9831384 29.4489498 18.7285752 218 222 230
42.2736684 85.5016771 0.448949768 218 222 230
42.2736684 85.5016771 61.5743252 218 222 230
0.448949768 85.5016771 0.448949768 218 222 230
0.448949768 85.5016771 62.023275 218 222 230
41.8247187 85.5016771 62.023275 218 222 230
41.9246194 85.5016771 62.0120189 218 222 230
42.0195107 85.5016771 61.978815 218 222 230
42.1046343 85.5016771 61.9253283 218 222 230
42.1757217 85.5016771 61.8542409 218 222 230
42.2292084 85.5016771 61.7691173 218 222 230
42.2624123 85.5016771 61.674226 218 222 230
41.8247187 -1.11022302e-16 62.023275 255 79 163
41.9014546 0.00660658528 62.0166684 255 79 163
41.9759321 0.0262319008 61.9970431 255 79 163
42.0459592 0.0582983482 61.9649767 255 79 163
42.1094749 0.101862171 61.9214128 255 79 163
42.1646098 0.155641228 61.8676338 255 79 163
42.2097413 0.218052735 61.8052223 255 79 163
42.2521074 0.311491593 61.7117834 255 79 163
42.2682454 0.379380329 61.6438947 255 79 163
42.2736684 0.448949768 61.5743252 255 79 163
42.2736684 85.5016771 61.5743252 255 79 163
41.8247187 85.5016771 62.023275 255 79 163
41.9246194 85.5016771 62.0120189 255 79 163
42.0195107 85.5016771 61.978815 255 79 163
42.1046343 85.5016771 61.9253283 255 79 163
42.1757217 85.5016771 61.8542409 255 79 163
42.2292084 85.5016771 61.7691173 255 79 163
42.2624123 85.5016771 61.674226 255 79 163
10.9097215 26.2849929 0 218 222 230
11.6388497 26.4159692 0 218 222 230
10.9097215 26.2849929 62.023275 218 222 230
11.6388497 26.4159692 62.023275 218 222 230
11.6388497 26.4159692 0 218 222 230
11.6388497 26.4159692 62.023275 218 222 230
11.7324557 26.4228163 62.023275 218 222 230
11.8254397 26.4100521 62.023275 218 222 230
11.913738 26.3782343 62.023275 218 222 230
11.9934915 26.3287536 62.023275 218 222 230
12.0612146 26.2637725 62.023275 218 222 230
12.0612146 26.2637725 0 218 222 230
11.7324557 26.4228163 0 218 222 230
11.8254397 26.4100521 0 218 222 230
11.913738 26.3782343 0 218 222 230
11.9934915 26.3287536 0 218 222 230
10.5707154 25.3442087 0 218 222 230
10.9097215 26.2849929 0 218 222 230
10.5707154 25.3442087 62.023275 218 222 230
10.9097215 26.2849929 62.023275 218 222 230
12.0612146 26.2637725 0 218 222 230
12.5392075 25.6978171 0 218 222 230
12.0612146 26.2637725 62.023275 218 222 230
12.5392075 25.6978171 62.023275 218 222 230
11.0487083 24.7782533 0 218 222 230
10.5707154 25.3442087 0 218 222 230
11.0487083 24.7782533 62.023275 218 222 230
10.5707154 25.3442087 62.023275 218 222 230
12.5392075 25.6978171 0 218 222 230
12.2880722 25.0008854 0 218 222 230
12.5392075 25.6978171 62.023275 218 222 230
12.2880722 25.0008854 62.023275 218 222 230
11.0487083 24.7782533 0 218 222 230
11.1164314 24.7132721 0 218 222 230
11.1961849 24.6637914 0 218 222 230
11.2844832 24.6319736 0 218 222 230
11.3774672 24.6192094 0 218 222 230
11.4710732 24.6260566 0 218 222 230
11.4710732 24.6260566 62.023275 218 222 230
11.0487083 24.7782533 62.023275 218 222 230
11.1164314 24.7132721 62.023275 218 222 230
11.1961849 24.6637914 62.023275 218 222 230
11.2844832 24.6319736 62.023275 218 222 230
11.3774672 24.6192094 62.023275 218 222 230
11.9450836 24.711205 0 218 222 230
12.0352204 24.7373643 0 218 222 230
12.1179487 24.7816925 0 218 222 230
12.1896529 24.8422522 0 218 222 230
12.247199 24.9163966 0 218 222 230
12.2880722 25.0008854 0 218 222 230
12.2880722 25.0008854 62.023275 218 222 230
11.9450836 24.711205 62.023275 218 222 230
12.0352204 24.7373643 62.023275 218 222 230
12.1179487 24.7816925 62.023275 218 222 230
12.1896529 24.8422522 62.023275 218 222 230
12.247199 24.9163966 62.023275 218 222 230
11.9450836 24.711205 0 218 222 230
11.4710732 24.6260566 0 218 222 230
11.9450836 24.711205 62.023275 218 222 230
11.4710732 24.6260566 62.023275 218 222 230
0.448949768 85.5016771 0.448949768 255 79 163
42.2736684 85.5016771 0.448949768 255 79 163
42.2736684 85.490421 0.349049046 255 79 163
42.2736684 85.4572171 0.254157764 255 79 163
42.2736684 85.4037304 0.169034166 255 79 163
42.2736684 85.332643 0.0979467053 255 79 163
42.2736684 85.2475194 0.0444600038 255 79 163
42.2736684 85.1526281 0.011256108 255 79 163
42.2736684 85.0527273 -1.11022302e-16 255 79 163
-1.11022302e-16 85.0527273 0 255 79 163
0.00660658528 85.1294633 0.00660658528 255 79 163
0.0262319008 85.2039408 0.0262319008 255 79 163
0.0582983482 85.2739679 0.0582983482 255 79 163
0.101862171 85.3374836 0.101862171 255 79 163
0.155641228 85.3926185 0.155641228 255 79 163
0.218052735 85.43775 0.218052735 255 79 163
0.311491593 85.4801161 0.311491593 255 79 163
0.379380329 85.4962541 0.379380329 255 79 163
0.871418207 -9.43689571e-16 22.064215 255 79 163
0.871418207 -1.11022302e-16 0 255 79 163
0.971318928 0.011256108 0 255 79 163
1.06621021 0.0444600038 0 255 79 163
1.15133381 0.0979467053 0 255 79 163
1.22242127 0.169034166 0 255 79 163
1.27590797 0.254157764 0 255 79 163
1.30911187 0.349049046 0 255 79 163
1.32036797 0.448949768 0 255 79 163
1.32036797 0.448949768 21.068291 255 79 163
1.073799 0.0482030796 21.8618342 255 79 163
1.1636861 0.108163362 21.7431032 255 79 163
1.23664387 0.18786336 21.5852843 255 79 163
1.29892486 0.311858704 21.3397535 255 79 163
0.964058951 0.00966217801 21.9715743 255 79 163
1.02018237 0.0253637473 21.9154509 255 79 163
0.871418207 -9.43689571e-16 22.064215 255 79 163
0.964058951 0.00966217801 21.9715743 255 79 163
1.02018237 0.0253637473 21.9154509 255 79 163
1.073799 0.0482030796 21.8618342 255 79 163
41.8247187 0.0482030796 21.8618342 255 79 163
41.8247187 0.0216421794 21.9265048 255 79 163
41.8247187 0.00544354654 21.9945148 255 79 163
41.8247187 -9.43689571e-16 22.064215 255 79 163
42.2736684 0.448949768 22.064215 255 79 163
42.2624123 0.349049046 22.064215 255 79 163
42.2292084 0.254157764 22.064215 255 79 163
42.1757217 0.169034166 22.064215 255 79 163
42.1046343 0.0979467053 22.064215 255 79 163
42.0195107 0.0444600038 22.064215 255 79 163
41.9246194 0.011256108 22.064215 255 79 163
41.8247187 -9.43689571e-16 22.064215 255 79 163
42.2736684 0.448949768 61.5743252 255 79 163
41.8247187 -1.11022302e-16 62.023275 255 79 163
41.9014546 0.00660658528 62.0166684 255 79 163
41.9759321 0.0262319008 61.9970431 255 79 163
42.0459592 0.0582983482 61.9649767 255 79 163
42.1094749 0.101862171 61.9214128 255 79 163
42.1646098 0.155641228 61.8676338 255 79 163
42.2097413 0.218052735 61.8052223 255 79 163
42.2521074 0.311491593 61.7117834 255 79 163
42.2682454 0.379380329 61.6438947 255 79 163
42.2736684 85.5016771 0.448949768 218 222 230
42.2736684 85.5016771 61.5743252 218 222 230
42.2736684 0.448949768 61.5743252 218 222 230
42.2736684 0.448949768 22.064215 218 222 230
42.2736684 11.591583 0 218 222 230
42.2736684 85.0527273 -1.11022302e-16 218 222 230
42.2736684 85.490421 0.349049046 218 222 230
42.2736684 85.4572171 0.254157764 218 222 230
42.2736684 85.4037304 0.169034166 218 222 230
42.2736684 85.332643 0.0979467053 218 222 230
42.2736684 85.2475194 0.0444600038 218 222 230
42.2736684 85.1526281 0.011256108 218 222 230
42.2254653 11.3648592 1.11022302e-16 255 79 163
42.2520262 11.4373085 0 255 79 163
42.2682249 11.513499 0 255 79 163
42.2736684 11.591583 0 255 79 163
42.2736684 0.448949768 22.064215 255 79 163
42.2624123 0.35977524 22.0191811 255 79 163
42.2292084 0.275072296 21.9764053 255 79 163
42.1757217 0.199088295 21.9380327 255 79 163
42.1046343 0.13563339 21.9059874 255 79 163
42.0195107 0.0878894778 21.8818762 255 79 163
41.9246194 0.0582506357 21.8669084 255 79 163
41.8247187 0.0482030796 21.8618342 255 79 163
41.8247187 10.9641125 0.246568974 255 79 163
41.9705989 11.0516197 0.127333704 255 79 163
42.0887778 11.1597951 0.049569496 255 79 163
42.1666952 11.2593741 0.012568298 255 79 163
42.1987069 11.3117436 0.00315314739 255 79 163
41.8247187 10.9641125 0.246568974 255 79 163
41.9705989 11.0516197 0.127333704 255 79 163
42.0887778 11.1597951 0.049569496 255 79 163
42.1666952 11.2593741 0.012568298 255 79 163
42.1987069 11.3117436 0.00315314739 255 79 163
42.2254653 11.3648592 1.11022302e-16 255 79 163
1.32036797 10.9641125 0.246568974 255 79 163
1.32036797 11.3648592 1.11022302e-16 255 79 163
1.32036797 11.2666091 0.0108826321 255 79 163
1.32036797 11.1731222 0.0430029339 255 79 163
1.32036797 11.0889308 0.0948037005 255 79 163
1.32036797 11.0181166 0.16377361 255 79 163
1.32036797 0.448949768 0 218 222 230
1.32036797 11.0886321 0 218 222 230
1.32036797 11.3648592 1.11022302e-16 218 222 230
1.32036797 11.2666091 0.0108826321 218 222 230
1.32036797 11.1731222 0.0430029339 218 222 230
1.32036797 11.0889308 0.0948037005 218 222 230
1.32036797 11.0181166 0.16377361 218 222 230
1.32036797 10.9641125 0.246568974 218 222 230
1.32036797 0.448949768 21.068291 218 222 230
26.9831384 31.4489498 -1.11022302e-16 255 79 163
26.9831384 31.349049 0.011256108 255 79 163
26.9831384 31.2541578 0.0444600038 255 79 163
26.9831384 31.1690342 0.0979467053 255 79 163
26.9831384 31.0979467 0.169034166 255 79 163
26.9831384 31.04446 0.254157764 255 79 163
26.9831384 31.0112561 0.349049046 255 79 163
26.9831384 31 0.448949768 255 79 163
27.3298947 31.4068459 0 255 79 163
27.6564989 31.2829813 0 255 79 163
27.9439698 31.0845545 0 255 79 163
28.1756006 30.8230973 0 255 79 163
28.3379299 30.5138047 0 255 79 163
28.4215237 30.1746516 0 255 79 163
28.4215237 29.8253484 0 255 79 163
28.3379299 29.4861953 0 255 79 163
28.1756006 29.1769027 0 255 79 163
27.9439698 28.9154455 0 255 79 163
27.6564989 28.7170187 0 255 79 163
27.3298947 28.5931541 0 255 79 163
26.9831384 28.5510502 0 255 79 163
26.9831384 28.650951 0.011256108 255 79 163
26.9831384 28.7458422 0.0444600038 255 79 163
26.9831384 28.8309658 0.0979467053 255 79 163
26.9831384 28.9020533 0.169034166 255 79 163
26.9831384 28.95554 0.254157764 255 79 163
26.9831384 28.9887439 0.349049046 255 79 163
26.9831384 29 0.448949768 255 79 163
27.222454 30.9709418 0.448949768 255 79 163
27.4478615 30.885456 0.448949768 255 79 163
27.646261 30.7485107 0.448949768 255 79 163
27.8061222 30.5680647 0.448949768 255 79 163
27.9181546 30.3546049 0.448949768 255 79 163
27.9758472 30.1205367 0.448949768 255 79 163
27.9758472 29.8794633 0.448949768 255 79 163
27.9181546 29.6453951 0.448949768 255 79 163
27.8061222 29.4319353 0.448949768 255 79 163
27.646261 29.2514893 0.448949768 255 79 163
27.4478615 29.114544 0.448949768 255 79 163
27.222454 29.0290582 0.448949768 255 79 163
27.3059869 31.3098481 0.011256108 255 79 163
27.283278 31.2177142 0.0444600038 255 79 163
27.2629066 31.1350642 0.0979467053 255 79 163
27.6100727 31.1945236 0.011256108 255 79 163
27.2458942 31.0660424 0.169034166 255 79 163
27.5659745 31.1105015 0.0444600038 255 79 163
27.233094 31.0141099 0.254157764 255 79 163
27.5264156 31.0351283 0.0979467053 255 79 163
27.2251478 30.9818708 0.349049046 255 79 163
27.8777234 31.0097777 0.011256108 255 79 163
27.4933796 30.9721835 0.169034166 255 79 163
27.8147988 30.9387506 0.0444600038 255 79 163
27.4685231 30.9248234 0.254157764 255 79 163
27.7583514 30.8750346 0.0979467053 255 79 163
27.4530925 30.8954228 0.349049046 255 79 163
28.093384 30.7663472 0.011256108 255 79 163
27.7112117 30.8218249 0.169034166 255 79 163
28.01529 30.7124428 0.0444600038 255 79 163
27.6757435 30.7817895 0.254157764 255 79 163
27.9452346 30.6640871 0.0979467053 255 79 163
27.6537252 30.7569361 0.349049046 255 79 163
28.2445211 30.4783794 0.011256108 255 79 163
27.8867308 30.6237048 0.169034166 255 79 163
28.1557962 30.4447305 0.0444600038 255 79 163
27.8427121 30.5933209 0.254157764 255 79 163
28.0762043 30.4145452 0.0979467053 255 79 163
27.8153858 30.5744589 0.349049046 255 79 163
28.3223513 30.1626099 0.011256108 255 79 163
28.0097364 30.3893373 0.169034166 255 79 163
28.2281519 30.151172 0.0444600038 255 79 163
27.9597254 30.3703706 0.254157764 255 79 163
28.143649 30.1409115 0.0979467053 255 79 163
27.9286793 30.3585964 0.349049046 255 79 163
28.3223513 29.8373901 0.011256108 255 79 163
28.0730798 30.1323429 0.169034166 255 79 163
28.2281519 29.848828 0.0444600038 255 79 163
28.0199831 30.1258957 0.254157764 255 79 163
28.143649 29.8590885 0.0979467053 255 79 163
27.9870213 30.1218935 0.349049046 255 79 163
28.2445211 29.5216206 0.011256108 255 79 163
28.0730798 29.8676571 0.169034166 255 79 163
28.1557962 29.5552695 0.0444600038 255 79 163
28.0199831 29.8741043 0.254157764 255 79 163
28.0762043 29.5854548 0.0979467053 255 79 163
27.9870213 29.8781065 0.349049046 255 79 163
28.093384 29.2336528 0.011256108 255 79 163
28.0097364 29.6106627 0.169034166 255 79 163
28.01529 29.2875572 0.0444600038 255 79 163
27.9597254 29.6296294 0.254157764 255 79 163
27.9452346 29.3359129 0.0979467053 255 79 163
27.9286793 29.6414036 0.349049046 255 79 163
27.8777234 28.9902223 0.011256108 255 79 163
27.8867308 29.3762952 0.169034166 255 79 163
27.8147988 29.0612494 0.0444600038 255 79 163
27.8427121 29.4066791 0.254157764 255 79 163
27.7583514 29.1249654 0.0979467053 255 79 163
27.8153858 29.4255411 0.349049046 255 79 163
27.6100727 28.8054764 0.011256108 255 79 163
27.7112117 29.1781751 0.169034166 255 79 163
27.5659745 28.8894985 0.0444600038 255 79 163
27.6757435 29.2182105 0.254157764 255 79 163
27.5264156 28.9648717 0.0979467053 255 79 163
27.6537252 29.2430639 0.349049046 255 79 163
27.3059869 28.6901519 0.011256108 255 79 163
27.4933796 29.0278165 0.169034166 255 79 163
27.283278 28.7822858 0.0444600038 255 79 163
27.4685231 29.0751766 0.254157764 255 79 163
27.2629066 28.8649358 0.0979467053 255 79 163
27.4530925 29.1045772 0.349049046 255 79 163
27.2458942 28.9339576 0.169034166 255 79 163
27.233094 28.9858901 0.254157764 255 79 163
27.2251478 29.0181292 0.349049046 255 79 163
26.9831384 28.5510502 0 255 79 163
0 28.5510502 -1.11022302e-16 255 79 163
0.00660658528 28.6277862 0.00660658528 255 79 163
0.0262319008 28.7022637 0.0262319008 255 79 163
0.0582983482 28.7722907 0.0582983482 255 79 163
0.101862171 28.8358064 0.101862171 255 79 163
0.155641228 28.8909414 0.155641228 255 79 163
0.218052735 28.9360729 0.218052735 255 79 163
0.311491593 28.978439 0.311491593 255 79 163
0.379380329 28.994577 0.379380329 255 79 163
0.448949768 29 0.448949768 255 79 163
26.9831384 29 0.448949768 255 79 163
26.9831384 28.650951 0.011256108 255 79 163
26.9831384 28.7458422 0.0444600038 255 79 163
26.9831384 28.8309658 0.0979467053 255 79 163
26.9831384 28.9020533 0.169034166 255 79 163
26.9831384 28.95554 0.254157764 255 79 163
26.9831384 28.9887439 0.349049046 255 79 163
26.9831384 29 0.448949768 218 222 230
26.9831384 29 18.2796254 218 222 230
0.448949768 29 18.2796254 218 222 230
0.448949768 29 0.448949768 218 222 230
26.9831384 31 0.448949768 218 222 230
26.9831384 31 18.2796254 218 222 230
27.222454 30.9709418 18.2796254 218 222 230
27.4478615 30.885456 18.2796254 218 222 230
27.646261 30.7485107 18.2796254 218 222 230
27.8061222 30.5680647 18.2796254 218 222 230
27.9181546 30.3546049 18.2796254 218 222 230
27.9758472 30.1205367 18.2796254 218 222 230
27.9758472 29.8794633 18.2796254 218 222 230
27.9181546 29.6453951 18.2796254 218 222 230
27.8061222 29.4319353 18.2796254 218 222 230
27.646261 29.2514893 18.2796254 218 222 230
27.4478615 29.114544 18.2796254 218 222 230
27.222454 29.0290582 18.2796254 218 222 230
26.9831384 29 18.2796254 218 222 230
26.9831384 29 0.448949768 218 222 230
27.222454 30.9709418 0.448949768 218 222 230
27.4478615 30.885456 0.448949768 218 222 230
27.646261 30.7485107 0.448949768 218 222 230
27.8061222 30.5680647 0.448949768 218 222 230
27.9181546 30.3546049 0.448949768 218 222 230
27.9758472 30.1205367 0.448949768 218 222 230
27.9758472 29.8794633 0.448949768 218 222 230
27.9181546 29.6453951 0.448949768 218 222 230
27.8061222 29.4319353 0.448949768 218 222 230
27.646261 29.2514893 0.448949768 218 222 230
27.4478615 29.114544 0.448949768 218 222 230
27.222454 29.0290582 0.448949768 218 222 230
26.9831384 29 18.2796254 255 79 163
26.9831384 29.0112561 18.3795262 255 79 163
26.9831384 29.04446 18.4744175 255 79 163
26.9831384 29.0979467 18.559541 255 79 163
26.9831384 29.1690342 18.6306285 255 79 163
26.9831384 29.2541578 18.6841152 255 79 163
26.9831384 29.349049 18.7173191 255 79 163
26.9831384 29.4489498 18.7285752 255 79 163
0 29.4489498 18.7285752 255 79 163
0.448949768 29 18.2796254 255 79 163
0.374124806 29.0152976 18.3958222 255 79 163
0.299299845 29.0601479 18.5041003 255 79 163
0.224474884 29.1314943 18.5970809 255 79 163
0.149649923 29.2244833 18.6684309 255 79 163
0.0748249613 29.3327446 18.7132742 255 79 163
26.9831384 30.5510502 18.7285752 255 79 163
27.1150133 30.5350377 18.7285752 255 79 163
27.2392242 30.4879307 18.7285752 255 79 163
27.3485523 30.412467 18.7285752 255 79 163
27.4366438 30.3130322 18.7285752 255 79 163
27.4983793 30.1954051 18.7285752 255 79 163
27.5301708 30.0664218 18.7285752 255 79 163
27.5301708 29.9335782 18.7285752 255 79 163
27.4983793 29.8045949 18.7285752 255 79 163
27.4366438 29.6869678 18.7285752 255 79 163
27.3485523 29.587533 18.7285752 255 79 163
27.2392242 29.5120693 18.7285752 255 79 163
27.1150133 29.4649623 18.7285752 255 79 163
26.9831384 29.4489498 18.7285752 255 79 163
26.9831384 29 18.2796254 255 79 163
26.9831384 29.0112561 18.3795262 255 79 163
26.9831384 29.04446 18.4744175 255 79 163
26.9831384 29.0979467 18.559541 255 79 163
26.9831384 29.1690342 18.6306285 255 79 163
26.9831384 29.2541578 18.6841152 255 79 163
26.9831384 29.349049 18.7173191 255 79 163
26.9831384 31 18.2796254 255 79 163
27.222454 30.9709418 18.2796254 255 79 163
27.4478615 30.885456 18.2796254 255 79 163
27.646261 30.7485107 18.2796254 255 79 163
27.8061222 30.5680647 18.2796254 255 79 163
27.9181546 30.3546049 18.2796254 255 79 163
27.9758472 30.1205367 18.2796254 255 79 163
27.9758472 29.8794633 18.2796254 255 79 163
27.9181546 29.6453951 18.2796254 255 79 163
27.8061222 29.4319353 18.2796254 255 79 163
27.646261 29.2514893 18.2796254 255 79 163
27.4478615 29.114544 18.2796254 255 79 163
27.222454 29.0290582 18.2796254 255 79 163
26.9831384 30.9887439 18.3795262 255 79 163
26.9831384 30.95554 18.4744175 255 79 163
26.9831384 30.9020533 18.559541 255 79 163
26.9831384 30.8309658 18.6306285 255 79 163
26.9831384 30.7458422 18.6841152 255 79 163
26.9831384 30.650951 18.7173191 255 79 163
27.2197603 29.0399872 18.3795262 255 79 163
27.2118141 29.0722263 18.4744175 255 79 163
27.4426306 29.1245108 18.3795262 255 79 163
27.1990139 29.1241587 18.559541 255 79 163
27.4271999 29.1539114 18.4744175 255 79 163
27.1820015 29.1931805 18.6306285 255 79 163
27.6387968 29.2599146 18.3795262 255 79 163
27.4023434 29.2012715 18.559541 255 79 163
27.1616301 29.2758306 18.6841152 255 79 163
27.6167786 29.284768 18.4744175 255 79 163
27.3693074 29.2642163 18.6306285 255 79 163
27.1389211 29.3679645 18.7173191 255 79 163
27.7968586 29.4383295 18.3795262 255 79 163
27.5813103 29.3248034 18.559541 255 79 163
27.3297485 29.3395895 18.6841152 255 79 163
27.7695324 29.4571914 18.4744175 255 79 163
27.5341706 29.3780131 18.6306285 255 79 163
27.2856504 29.4236116 18.7173191 255 79 163
27.90763 29.6493866 18.3795262 255 79 163
27.7255137 29.4875753 18.559541 255 79 163
27.4777233 29.4417291 18.6841152 255 79 163
27.8765838 29.6611608 18.4744175 255 79 163
27.6670098 29.5279576 18.6306285 255 79 163
27.4147987 29.5127562 18.7173191 255 79 163
27.9646732 29.8808201 18.3795262 255 79 163
27.8265728 29.6801275 18.559541 255 79 163
27.5969545 29.5763133 18.6841152 255 79 163
27.9317114 29.8848224 18.4744175 255 79 163
27.7601049 29.7053355 18.6306285 255 79 163
27.5188605 29.6302177 18.7173191 255 79 163
27.9646732 30.1191799 18.3795262 255 79 163
27.8786147 29.8912695 18.559541 255 79 163
27.680513 29.7355207 18.6841152 255 79 163
27.9317114 30.1151776 18.4744175 255 79 163
27.8080455 29.8998381 18.6306285 255 79 163
27.5917881 29.7691696 18.7173191 255 79 163
27.90763 30.3506134 18.3795262 255 79 163
27.8786147 30.1087305 18.559541 255 79 163
27.7235426 29.9100987 18.6841152 255 79 163
27.8765838 30.3388392 18.4744175 255 79 163
27.8080455 30.1001619 18.6306285 255 79 163
27.6293432 29.9215365 18.7173191 255 79 163
27.7968586 30.5616705 18.3795262 255 79 163
27.8265728 30.3198725 18.559541 255 79 163
27.7235426 30.0899013 18.6841152 255 79 163
27.7695324 30.5428086 18.4744175 255 79 163
27.7601049 30.2946645 18.6306285 255 79 163
27.6293432 30.0784635 18.7173191 255 79 163
27.6387968 30.7400854 18.3795262 255 79 163
27.7255137 30.5124247 18.559541 255 79 163
27.680513 30.2644793 18.6841152 255 79 163
27.6167786 30.715232 18.4744175 255 79 163
27.6670098 30.4720424 18.6306285 255 79 163
27.5917881 30.2308304 18.7173191 255 79 163
27.4426306 30.8754892 18.3795262 255 79 163
27.5813103 30.6751966 18.559541 255 79 163
27.5969545 30.4236867 18.6841152 255 79 163
27.4271999 30.8460886 18.4744175 255 79 163
27.5341706 30.6219869 18.6306285 255 79 163
27.5188605 30.3697823 18.7173191 255 79 163
27.2197603 30.9600128 18.3795262 255 79 163
27.4023434 30.7987285 18.559541 255 79 163
27.4777233 30.5582709 18.6841152 255 79 163
27.2118141 30.9277737 18.4744175 255 79 163
27.3693074 30.7357837 18.6306285 255 79 163
27.4147987 30.4872438 18.7173191 255 79 163
27.1990139 30.8758413 18.559541 255 79 163
27.3297485 30.6604105 18.6841152 255 79 163
27.1820015 30.8068195 18.6306285 255 79 163
27.2856504 30.5763884 18.7173191 255 79 163
27.1616301 30.7241694 18.6841152 255 79 163
27.1389211 30.6320355 18.7173191 255 79 163
1.32036797 10.9641125 0.246568974 218 222 230
1.32036797 0.448949768 21.068291 218 222 230
1.073799 0.0482030796 21.8618342 218 222 230
1.1636861 0.108163362 21.7431032 218 222 230
1.23664387 0.18786336 21.5852843 218 222 230
1.29892486 0.311858704 21.3397535 218 222 230
41.8247187 0.0482030796 21.8618342 218 222 230
41.8247187 10.9641125 0.246568974 218 222 230
42.2736684 0.448949768 22.064215 255 79 163
42.2624123 0.35977524 22.0191811 255 79 163
42.2292084 0.275072296 21.9764053 255 79 163
42.1757217 0.199088295 21.9380327 255 79 163
42.1046343 0.13563339 21.9059874 255 79 163
42.0195107 0.0878894778 21.8818762 255 79 163
41.9246194 0.0582506357 21.8669084 255 79 163
41.8247187 0.0482030796 21.8618342 255 79 163
42.2736684 0.448949768 22.064215 255 79 163
42.2624123 0.349049046 22.064215 255 79 163
42.2292084 0.254157764 22.064215 255 79 163
42.1757217 0.169034166 22.064215 255 79 163
42.1046343 0.0979467053 22.064215 255 79 163
42.0195107 0.0444600038 22.064215 255 79 163
41.9246194 0.011256108 22.064215 255 79 163
41.8247187 -9.43689571e-16 22.064215 255 79 163
41.8247187 0.0216421794 21.9265048 255 79 163
41.8247187 0.00544354654 21.9945148 255 79 163
42.2516953 0.318662684 22.016548 255 79 163
42.2516953 0.311163707 22.0480324 255 79 163
42.1879266 0.192244686 22.003073 255 79 163
42.0886047 0.107853753 21.939421 255 79 163
42.0886047 0.0882211782 22.0218484 255 79 163
41.9634518 0.03359222 21.9652851 255 79 163
3 27 24 25
3 27 25 26
3 30 27 28
3 30 28 29
3 23 24 27
3 23 27 30
3 16 31 24
3 16 24 23
3 17 31 16
3 18 1 31
3 18 31 17
3 19 1 18
3 20 1 19
3 21 1 20
3 22 1 21
3 2 4 3
3 2 5 4
3 2 6 5
3 0 7 6
3 0 8 7
3 0 9 8
3 0 10 9
3 0 11 10
3 0 12 11
3 0 13 12
3 0 14 13
3 0 15 14
3 0 22 15
3 0 1 22
3 0 6 2
3 59 58 32
3 60 59 32
3 63 32 58
3 61 60 32
3 62 61 32
3 57 62 32
3 52 57 32
3 53 52 32
3 34 50 51
3 34 54 53
3 34 55 54
3 34 56 55
3 34 51 56
3 34 53 32
3 33 44 43
3 33 43 45
3 33 45 46
3 33 63 44
3 33 32 63
3 39 38 37
3 40 37 33
3 40 39 37
3 36 41 40
3 36 42 41
3 36 40 33
3 35 46 47
3 35 47 48
3 35 48 49
3 35 49 50
3 35 50 34
3 35 33 46
3 35 36 33
3 72 73 81
3 71 81 80
3 71 72 81
3 70 80 79
3 70 71 80
3 69 79 78
3 69 70 79
3 68 77 76
3 68 78 77
3 68 69 78
3 67 76 75
3 67 68 76
3 66 75 74
3 66 67 75
3 65 74 64
3 65 66 74
3 87 82 83
3 85 87 86
3 85 84 87
3 82 87 84
3 115 108 107
3 115 109 108
3 115 110 109
3 115 111 110
3 115 112 111
3 115 113 112
3 115 114 113
3 116 115 107
3 117 116 107
3 106 117 107
3 138 117 121
3 139 117 138
3 122 121 117
3 122 117 106
3 140 117 139
3 141 117 140
3 137 117 141
3 132 117 137
3 123 122 106
3 118 133 134
3 120 119 118
3 88 120 118
3 105 131 130
3 105 134 135
3 105 135 136
3 105 136 131
3 105 118 134
3 105 88 118
3 104 88 105
3 103 88 104
3 102 88 103
3 101 88 102
3 100 88 101
3 99 88 100
3 98 88 99
3 97 88 98
3 90 92 91
3 89 93 92
3 89 94 93
3 89 95 94
3 89 96 95
3 89 97 96
3 89 88 97
3 89 92 90
3 105 125 106
3 125 124 106
3 124 123 106
3 105 126 125
3 105 127 126
3 105 128 127
3 105 129 128
3 105 130 129
3 117 132 118
3 132 133 118
3 149 150 151
3 149 151 157
3 148 157 156
3 148 149 157
3 147 156 155
3 147 148 156
3 146 155 154
3 146 147 155
3 145 154 153
3 145 146 154
3 144 153 152
3 144 145 153
3 143 152 142
3 143 144 152
3 166 167 175
3 165 175 174
3 165 166 175
3 164 174 173
3 164 165 174
3 163 173 172
3 163 164 173
3 162 171 170
3 162 172 171
3 162 163 172
3 161 170 169
3 161 162 170
3 160 169 168
3 160 161 169
3 159 168 158
3 159 160 168
3 178 177 176
3 179 178 176
3 192 182 183
3 184 192 183
3 193 192 184
3 185 193 184
3 199 197 196
3 199 198 197
3 204 186 187
3 204 187 188
3 205 185 186
3 205 186 204
3 205 204 188
3 206 185 205
3 206 193 185
3 207 194 193
3 207 193 206
3 208 195 194
3 208 194 207
3 209 196 195
3 209 195 208
3 209 199 196
3 210 200 199
3 210 209 200
3 210 199 209
3 211 201 200
3 211 209 208
3 211 200 209
3 212 202 201
3 212 201 211
3 213 202 212
3 214 203 202
3 214 202 213
3 215 181 180
3 215 180 203
3 215 203 214
3 216 188 189
3 216 211 208
3 216 206 205
3 216 208 207
3 216 207 206
3 216 205 188
3 217 216 189
3 217 211 216
3 218 217 189
3 218 212 211
3 218 211 217
3 219 189 190
3 219 213 212
3 219 218 189
3 219 212 218
3 220 213 219
3 221 214 213
3 221 213 220
3 222 215 214
3 222 214 221
3 223 191 181
3 223 181 215
3 223 215 222
3 224 219 190
3 224 220 219
3 225 224 190
3 225 220 224
3 225 221 220
3 226 222 221
3 226 190 191
3 226 221 225
3 226 225 190
3 227 191 223
3 227 223 222
3 227 226 191
3 227 222 226
3 237 229 228
3 238 230 229
3 238 229 237
3 239 231 230
3 239 230 238
3 240 232 231
3 240 231 239
3 241 233 232
3 241 232 240
3 242 234 233
3 242 233 241
3 243 235 234
3 243 234 242
3 236 235 243
3 253 254 255
3 251 252 253
3 251 255 256
3 251 256 257
3 251 257 258
3 251 253 255
3 249 250 251
3 248 249 251
3 247 248 251
3 246 258 259
3 246 251 258
3 246 247 251
3 245 259 244
3 245 246 259
3 261 260 262
3 261 262 263
3 264 261 263
3 269 264 265
3 269 270 261
3 269 261 264
3 267 265 266
3 267 269 265
3 268 269 267
3 282 271 272
3 283 272 273
3 283 282 272
3 284 273 274
3 284 283 273
3 285 274 275
3 285 275 276
3 285 284 274
3 286 276 277
3 286 285 276
3 287 277 278
3 287 286 277
3 288 278 279
3 288 287 278
3 281 279 280
3 281 288 279
3 290 291 289
3 290 292 291
3 298 300 299
3 298 304 300
3 297 302 303
3 297 303 304
3 297 304 298
3 296 302 297
3 295 301 302
3 295 302 296
3 294 293 301
3 294 301 295
3 306 307 305
3 306 308 307
3 310 311 309
3 310 312 311
3 314 315 313
3 314 316 315
3 318 319 317
3 318 320 319
3 329 322 321
3 329 321 328
3 330 323 322
3 330 324 323
3 330 322 329
3 331 325 324
3 331 324 330
3 332 326 325
3 332 325 331
3 327 326 332
3 341 334 333
3 341 333 340
3 342 335 334
3 342 334 341
3 343 336 335
3 343 335 342
3 344 337 336
3 344 338 337
3 344 336 343
3 339 338 344
3 346 347 345
3 346 348 347
3 357 358 359
3 356 359 360
3 356 357 359
3 355 360 361
3 355 356 360
3 354 361 362
3 354 362 363
3 354 355 361
3 353 363 364
3 353 354 363
3 352 364 365
3 352 353 364
3 351 365 366
3 351 352 365
3 350 366 349
3 350 351 366
3 374 375 376
3 374 376 380
3 373 380 379
3 373 374 380
3 372 379 378
3 372 373 379
3 371 378 377
3 371 372 378
3 370 377 382
3 370 371 377
3 369 382 381
3 369 370 382
3 368 381 367
3 368 369 381
3 385 386 387
3 385 387 388
3 384 388 389
3 384 385 388
3 383 389 390
3 383 384 389
3 401 398 397
3 401 400 398
3 402 397 396
3 402 401 397
3 403 396 395
3 403 402 396
3 404 403 395
3 405 395 394
3 405 404 395
3 406 394 393
3 406 405 394
3 407 393 392
3 407 406 393
3 408 392 391
3 408 407 392
3 399 408 391
3 419 418 417
3 415 417 416
3 415 419 417
3 420 419 415
3 414 415 409
3 414 420 415
3 410 414 409
3 413 414 410
3 412 413 410
3 411 412 410
3 431 432 433
3 431 433 434
3 430 434 435
3 430 431 434
3 429 435 436
3 429 430 435
3 428 436 437
3 428 429 436
3 427 421 422
3 427 437 421
3 427 428 437
3 426 422 423
3 426 427 422
3 425 423 424
3 425 426 423
3 445 443 442
3 446 442 441
3 446 445 442
3 447 441 440
3 447 446 441
3 448 440 439
3 448 447 440
3 449 439 438
3 449 448 439
3 444 449 438
3 451 452 453
3 451 453 454
3 455 451 454
3 456 451 455
3 457 451 456
3 450 451 457
3 458 450 457
3 487 466 465
3 480 478 479
3 499 460 459
3 499 459 467
3 500 461 460
3 500 460 499
3 501 462 461
3 501 461 500
3 502 467 468
3 502 499 467
3 503 463 462
3 503 462 501
3 504 500 499
3 504 499 502
3 505 463 503
3 505 464 463
3 506 501 500
3 506 500 504
3 507 465 464
3 507 464 505
3 507 487 465
3 508 468 469
3 508 502 468
3 509 501 506
3 509 503 501
3 510 504 502
3 510 502 508
3 511 505 503
3 511 503 509
3 512 506 504
3 512 504 510
3 513 507 505
3 513 487 507
3 513 488 487
3 513 505 511
3 514 508 469
3 514 469 470
3 515 506 512
3 515 509 506
3 516 508 514
3 516 510 508
3 517 509 515
3 517 511 509
3 518 512 510
3 518 510 516
3 519 489 488
3 519 511 517
3 519 488 513
3 519 513 511
3 520 470 471
3 520 514 470
3 521 512 518
3 521 515 512
3 522 518 516
3 522 514 520
3 522 516 514
3 523 515 521
3 523 517 515
3 524 518 522
3 525 517 523
3 525 490 489
3 525 519 517
3 525 489 519
3 526 471 472
3 526 520 471
3 527 521 518
3 527 518 524
3 528 522 520
3 528 520 526
3 529 521 527
3 529 523 521
3 530 524 522
3 530 522 528
3 531 525 523
3 531 523 529
3 531 491 490
3 531 490 525
3 532 472 473
3 532 473 474
3 532 526 472
3 533 524 530
3 533 527 524
3 533 529 527
3 534 528 526
3 534 526 532
3 535 529 533
3 536 530 528
3 536 528 534
3 537 531 529
3 537 492 491
3 537 529 535
3 537 491 531
3 538 532 474
3 539 530 536
3 539 533 530
3 540 534 532
3 540 532 538
3 541 533 539
3 541 535 533
3 542 534 540
3 542 536 534
3 543 535 541
3 543 493 492
3 543 492 537
3 543 537 535
3 544 474 475
3 544 538 474
3 545 536 542
3 545 539 536
3 546 538 544
3 546 540 538
3 547 539 545
3 547 541 539
3 548 540 546
3 548 542 540
3 549 541 547
3 549 494 493
3 549 493 543
3 549 543 541
3 550 475 476
3 550 544 475
3 551 542 548
3 551 545 542
3 552 544 550
3 552 546 544
3 553 547 545
3 553 545 551
3 553 549 547
3 554 548 546
3 554 546 552
3 555 494 549
3 555 495 494
3 555 549 553
3 556 476 477
3 556 550 476
3 556 552 550
3 557 551 548
3 557 548 554
3 558 552 556
3 559 553 551
3 559 551 557
3 560 554 552
3 560 552 558
3 561 553 559
3 561 496 495
3 561 495 555
3 561 555 553
3 562 478 480
3 562 556 477
3 562 477 478
3 562 558 556
3 562 480 481
3 563 557 554
3 563 554 560
3 564 562 481
3 564 558 562
3 564 481 482
3 564 560 558
3 565 557 563
3 565 559 557
3 566 564 482
3 566 560 564
3 567 497 496
3 567 496 561
3 567 561 559
3 567 559 565
3 568 482 483
3 568 563 560
3 568 566 482
3 568 560 566
3 569 483 484
3 569 484 485
3 569 568 483
3 569 565 563
3 569 563 568
3 570 485 486
3 570 498 497
3 570 486 498
3 570 497 567
3 570 567 565
3 570 569 485
3 570 565 569
3 580 581 582
3 580 582 588
3 579 588 587
3 579 580 588
3 578 587 586
3 578 579 587
3 577 586 585
3 577 578 586
3 576 577 585
3 575 585 584
3 575 576 585
3 574 584 583
3 574 575 584
3 573 583 571
3 573 574 583
3 572 573 571
3 592 590 589
3 592 591 590
3 609 594 593
3 609 595 594
3 609 596 595
3 610 596 609
3 611 597 596
3 611 598 597
3 611 596 610
3 612 598 611
3 613 599 598
3 613 598 612
3 614 600 599
3 614 599 613
3 615 601 600
3 615 600 614
3 616 602 601
3 616 603 602
3 616 601 615
3 617 603 616
3 618 604 603
3 618 603 617
3 619 605 604
3 619 606 605
3 619 604 618
3 620 606 619
3 608 607 606
3 608 606 620
3 630 622 621
3 631 623 622
3 631 622 630
3 632 624 623
3 632 623 631
3 633 625 624
3 633 624 632
3 634 626 625
3 634 625 633
3 635 627 626
3 635 626 634
3 629 628 627
3 629 627 635
3 676 650 651
3 676 669 650
3 677 651 652
3 677 676 651
3 678 668 669
3 678 669 676
3 679 652 653
3 679 677 652
3 680 676 677
3 680 678 676
3 681 653 654
3 681 679 653
3 682 667 668
3 682 668 678
3 683 677 679
3 683 680 677
3 684 654 655
3 684 681 654
3 685 678 680
3 685 682 678
3 686 679 681
3 686 683 679
3 687 649 648
3 687 684 655
3 687 655 656
3 687 656 649
3 688 666 667
3 688 667 682
3 689 685 680
3 689 680 683
3 690 686 681
3 690 681 684
3 691 682 685
3 691 688 682
3 692 683 686
3 692 689 683
3 693 648 647
3 693 684 687
3 693 687 648
3 693 690 684
3 694 665 666
3 694 666 688
3 695 691 685
3 695 685 689
3 696 692 686
3 696 686 690
3 697 688 691
3 697 694 688
3 698 689 692
3 698 695 689
3 699 647 646
3 699 696 690
3 699 690 693
3 699 693 647
3 700 664 665
3 700 665 694
3 701 691 695
3 701 697 691
3 702 698 692
3 702 692 696
3 703 694 697
3 703 700 694
3 704 701 695
3 704 695 698
3 705 645 644
3 705 646 645
3 705 699 646
3 705 702 696
3 705 696 699
3 706 663 664
3 706 664 700
3 707 697 701
3 707 703 697
3 708 698 702
3 708 704 698
3 709 700 703
3 709 706 700
3 710 707 701
3 710 701 704
3 711 705 644
3 711 702 705
3 711 708 702
3 712 662 663
3 712 663 706
3 713 707 710
3 713 703 707
3 713 709 703
3 714 704 708
3 714 710 704
3 715 712 706
3 715 706 709
3 716 713 710
3 717 644 643
3 717 711 644
3 717 708 711
3 717 714 708
3 718 661 662
3 718 662 712
3 719 709 713
3 719 715 709
3 720 710 714
3 720 716 710
3 721 718 712
3 721 712 715
3 722 719 713
3 722 713 716
3 723 643 642
3 723 720 714
3 723 717 643
3 723 714 717
3 724 661 718
3 724 660 661
3 724 718 721
3 725 721 715
3 725 715 719
3 726 722 716
3 726 716 720
3 727 724 721
3 728 719 722
3 728 725 719
3 729 641 640
3 729 642 641
3 729 726 720
3 729 720 723
3 729 723 642
3 730 660 724
3 730 659 660
3 731 721 725
3 731 727 721
3 732 728 722
3 732 722 726
3 733 730 724
3 733 724 727
3 734 725 728
3 734 731 725
3 735 726 729
3 735 732 726
3 735 729 640
3 736 657 658
3 736 658 659
3 736 670 657
3 736 671 670
3 736 659 730
3 737 733 727
3 737 727 731
3 737 731 734
3 738 734 728
3 738 728 732
3 739 736 730
3 739 730 733
3 739 671 736
3 740 737 734
3 741 640 639
3 741 735 640
3 741 732 735
3 741 738 732
3 742 671 739
3 742 672 671
3 742 673 672
3 742 733 737
3 742 739 733
3 743 734 738
3 743 740 734
3 744 673 742
3 744 737 740
3 744 742 737
3 745 639 638
3 745 741 639
3 745 743 738
3 745 738 741
3 746 674 673
3 746 673 744
3 746 740 743
3 746 744 740
3 747 637 636
3 747 638 637
3 747 675 674
3 747 636 675
3 747 745 638
3 747 674 746
3 747 743 745
3 747 746 743
3 755 749 748
3 754 750 751
3 754 751 752
3 754 752 753
3 754 753 749
3 754 749 755
3 765 757 756
3 765 756 764
3 772 763 762
3 773 772 762
3 773 762 770
3 771 773 770
3 774 758 757
3 775 765 766
3 775 758 774
3 775 774 757
3 775 757 765
3 775 766 758
3 776 759 758
3 776 760 759
3 776 766 767
3 776 767 768
3 776 758 766
3 777 761 760
3 777 760 776
3 778 768 769
3 778 761 777
3 778 777 776
3 778 769 761
3 778 776 768
3 779 762 761
3 779 769 770
3 779 761 769
3 779 770 762
