ply
format ascii 1.0
comment generated by blendit.inference.finetune_visualize
element vertex 1119
property float x
property float y
property float z
property uchar red
property uchar green
property uchar blue
element face 1489
property list uchar int vertex_indices
end_header
0 -2.22044605e-16 50.9585946 218 222 230
-2.22044605e-16 0 73.9205089 218 222 230
0 0.0468063907 50.5431764 218 222 230
0 0.184878495 50.148589 218 222 230
0 0.407292801 49.7946187 218 222 230
0 0.702896526 49.499015 218 222 230
0 1.05686687 49.2766007 218 222 230
0 1.45145427 49.1385286 218 222 230
0 1.86687248 49.0917222 218 222 230
0 37.4864075 49.0917222 218 222 230
-2.22044605e-16 39.35328 49.0917222 218 222 230
-2.22044605e-16 39.35328 0 218 222 230
-2.22044605e-16 93.1711585 0 218 222 230
-2.22044605e-16 93.1711585 73.9205089 218 222 230
64.0687167 0 -2.22044605e-16 218 222 230
69.5280039 0 0 218 222 230
63.6532985 0 0.0468063907 218 222 230
63.2587111 0 0.184878495 218 222 230
62.9047407 0 0.407292801 218 222 230
62.609137 0 0.702896526 218 222 230
62.3867227 0 1.05686687 218 222 230
62.2486506 0 1.45145427 218 222 230
62.2018442 0 1.86687248 218 222 230
62.2018442 0 49.0917222 218 222 230
62.2018442 -2.22044605e-16 50.9585946 218 222 230
0 -2.22044605e-16 50.9585946 218 222 230
-2.22044605e-16 0 73.9205089 218 222 230
94.3025375 -2.22044605e-16 73.9205089 218 222 230
94.3025375 0 9.98732948 218 222 230
94.2626801 0 9.60318757 218 222 230
94.1448099 0 9.23544836 218 222 230
93.9539599 0 8.89981419 218 222 230
93.6982793 0 8.61061649 218 222 230
93.3886855 0 8.3802039 218 222 230
93.0383982 0 8.21841495 218 222 230
92.7411492 0 8.14351762 218 222 230
92.435665 -7.10542736e-15 8.11832547 218 222 230
71.3948764 -7.10542736e-15 8.11832547 218 222 230
69.5280039 0 6.24932146 218 222 230
69.5678612 0 6.63346338 218 222 230
69.6857314 0 7.00120258 218 222 230
69.8765814 0 7.33683676 218 222 230
70.1322621 0 7.62603445 218 222 230
70.4418558 0 7.85644704 218 222 230
70.7921432 0 8.018236 218 222 230
71.0893922 0 8.09313332 218 222 230
62.2018442 -2.22044605e-16 50.9585946 255 79 163
0 -2.22044605e-16 50.9585946 255 79 163
0 0.0468063907 50.5431764 255 79 163
0 0.184878495 50.148589 255 79 163
0 0.407292801 49.7946187 255 79 163
0 0.702896526 49.499015 255 79 163
0 1.05686687 49.2766007 255 79 163
0 1.45145427 49.1385286 255 79 163
0 1.86687248 49.0917222 255 79 163
62.2018442 1.86687248 49.0917222 255 79 163
62.2018442 0.0468063907 50.5431764 255 79 163
62.2018442 0.184878495 50.148589 255 79 163
62.2018442 0.407292801 49.7946187 255 79 163
62.2018442 0.702896526 49.499015 255 79 163
62.2018442 1.05686687 49.2766007 255 79 163
62.2018442 1.45145427 49.1385286 255 79 163
-2.22044605e-16 0 73.9205089 255 79 163
0.0282129226 0.0282129226 74.2438413 255 79 163
0.111998961 0.111998961 74.5574011 255 79 163
0.248825698 0.248825698 74.851711 255 79 163
0.434557574 0.434557574 75.1178755 255 79 163
0.66358088 0.66358088 75.3478498 255 79 163
0.928973432 0.928973432 75.534683 255 79 163
1.32541189 1.32541189 75.7071351 255 79 163
1.59318514 1.59318514 75.7672108 255 79 163
1.86687248 1.86687248 75.7873813 255 79 163
1.86687248 95.038031 75.7873813 255 79 163
-2.22044605e-16 93.1711585 73.9205089 255 79 163
0.103995864 93.7855516 74.534902 255 79 163
0.36631442 94.2818062 75.0311566 255 79 163
0.679759686 94.6119833 75.3613336 255 79 163
1.02284499 94.8363403 75.5856907 255 79 163
1.36693259 94.969845 75.7191953 255 79 163
1.6145883 95.0209059 75.7702563 255 79 163
0 1.86687248 49.0917222 218 222 230
0 37.4864075 49.0917222 218 222 230
-2.22044605e-16 39.35328 49.0917222 218 222 230
0.0468063907 38.9378618 49.0917222 218 222 230
0.184878495 38.5432744 49.0917222 218 222 230
0.407292801 38.189304 49.0917222 218 222 230
0.702896526 37.8937003 49.0917222 218 222 230
1.05686687 37.671286 49.0917222 218 222 230
1.45145427 37.5332139 49.0917222 218 222 230
1.86687248 37.4864075 49.0917222 218 222 230
60.3349717 37.4864075 49.0917222 218 222 230
60.75039 37.4396011 49.0917222 218 222 230
61.1449774 37.301529 49.0917222 218 222 230
61.4989477 37.0791147 49.0917222 218 222 230
61.7945514 36.783511 49.0917222 218 222 230
62.0169657 36.4295407 49.0917222 218 222 230
62.1550378 36.0349532 49.0917222 218 222 230
62.2018442 35.619535 49.0917222 218 222 230
62.2018442 1.86687248 49.0917222 218 222 230
-2.22044605e-16 93.1711585 0 255 79 163
-2.22044605e-16 93.1711585 73.9205089 255 79 163
0.103995864 93.7855516 74.534902 255 79 163
0.36631442 94.2818062 75.0311566 255 79 163
0.679759686 94.6119833 75.3613336 255 79 163
1.02284499 94.8363403 75.5856907 255 79 163
1.36693259 94.969845 75.7191953 255 79 163
1.6145883 95.0209059 75.7702563 255 79 163
1.86687248 95.038031 75.7873813 255 79 163
1.86687248 95.038031 0 255 79 163
0.0468063907 93.5865767 0 255 79 163
0.184878495 93.9811641 0 255 79 163
0.407292801 94.3351345 0 255 79 163
0.702896526 94.6307382 0 255 79 163
1.05686687 94.8531525 0 255 79 163
1.45145427 94.9912246 0 255 79 163
1.86687248 95.038031 0 218 222 230
69.5280039 95.038031 0 218 222 230
-2.22044605e-16 93.1711585 0 218 222 230
0.0468063907 93.5865767 0 218 222 230
0.184878495 93.9811641 0 218 222 230
0.407292801 94.3351345 0 218 222 230
0.702896526 94.6307382 0 218 222 230
1.05686687 94.8531525 0 218 222 230
1.45145427 94.9912246 0 218 222 230
-2.22044605e-16 39.35328 0 218 222 230
0.0468063907 38.9378618 0 218 222 230
0.184878495 38.5432744 0 218 222 230
0.407292801 38.189304 0 218 222 230
0.702896526 37.8937003 0 218 222 230
1.05686687 37.671286 0 218 222 230
1.45145427 37.5332139 0 218 222 230
1.86687248 37.4864075 0 218 222 230
60.3349717 37.4864075 0 218 222 230
64.0687167 35.619535 -1.11022302e-16 218 222 230
64.048359 35.7898816 -1.06103594e-16 218 222 230
63.9921597 35.9520695 -9.94931325e-17 218 222 230
63.908688 36.1023264 -9.33657943e-17 218 222 230
63.7680011 36.2830747 -8.60994644e-17 218 222 230
63.5167956 36.5174156 -7.62381845e-17 218 222 230
63.0882655 36.8039826 -6.29751926e-17 218 222 230
62.3848875 37.1245219 -4.54792731e-17 218 222 230
61.5476564 37.3607234 -2.71953638e-17 218 222 230
60.9444705 37.4541951 -1.26437242e-17 218 222 230
64.0687167 0 -2.22044605e-16 218 222 230
69.5280039 0 0 218 222 230
-2.22044605e-16 39.35328 0 218 222 230
0.0468063907 38.9378618 0 218 222 230
0.184878495 38.5432744 0 218 222 230
0.407292801 38.189304 0 218 222 230
0.702896526 37.8937003 0 218 222 230
1.05686687 37.671286 0 218 222 230
1.45145427 37.5332139 0 218 222 230
1.86687248 37.4864075 0 218 222 230
1.86687248 37.4864075 49.0917222 218 222 230
-2.22044605e-16 39.35328 49.0917222 218 222 230
0.0468063907 38.9378618 49.0917222 218 222 230
0.184878495 38.5432744 49.0917222 218 222 230
0.407292801 38.189304 49.0917222 218 222 230
0.702896526 37.8937003 49.0917222 218 222 230
1.05686687 37.671286 49.0917222 218 222 230
1.45145427 37.5332139 49.0917222 218 222 230
64.0687167 0 -2.22044605e-16 255 79 163
63.6532985 0 0.0468063907 255 79 163
63.2587111 0 0.184878495 255 79 163
62.9047407 0 0.407292801 255 79 163
62.609137 0 0.702896526 255 79 163
62.3867227 0 1.05686687 255 79 163
62.2486506 0 1.45145427 255 79 163
62.2018442 0 1.86687248 255 79 163
62.2018442 35.619535 1.86687248 255 79 163
64.0687167 35.619535 -1.11022302e-16 255 79 163
63.685017 35.619535 0.0398566157 255 79 163
63.3177005 35.619535 0.157724201 255 79 163
62.9824516 35.619535 0.348570445 255 79 163
62.6935849 35.619535 0.604246218 255 79 163
62.4634344 35.619535 0.913834322 255 79 163
62.3018274 35.619535 1.26411609 255 79 163
62.2270097 35.619535 1.5613763 255 79 163
69.5280039 47.4298808 8.52498919 218 222 230
69.5280039 0 6.24932146 218 222 230
69.5280039 0 0 218 222 230
69.5280039 95.038031 0 218 222 230
69.5280039 95.038031 6.24932146 218 222 230
62.2018442 0 1.86687248 218 222 230
62.2018442 0 49.0917222 218 222 230
62.2018442 35.619535 1.86687248 218 222 230
62.2018442 35.619535 49.0917222 218 222 230
62.2018442 1.86687248 49.0917222 218 222 230
62.2018442 -2.22044605e-16 50.9585946 218 222 230
62.2018442 0.0468063907 50.5431764 218 222 230
62.2018442 0.184878495 50.148589 218 222 230
62.2018442 0.407292801 49.7946187 218 222 230
62.2018442 0.702896526 49.499015 218 222 230
62.2018442 1.05686687 49.2766007 218 222 230
62.2018442 1.45145427 49.1385286 218 222 230
69.5280039 47.4298808 8.52498919 255 79 163
69.5280039 0 6.24932146 255 79 163
69.5678612 0 6.63346338 255 79 163
69.6857314 0 7.00120258 255 79 163
69.8765814 0 7.33683676 255 79 163
70.1322621 0 7.62603445 255 79 163
70.4418558 0 7.85644704 255 79 163
70.7921432 0 8.018236 255 79 163
71.0893922 0 8.09313332 255 79 163
71.3948764 -7.10542736e-15 8.11832547 255 79 163
71.3948764 47.5190155 10.3897326 255 79 163
69.5748103 47.4497152 8.93993363 255 79 163
69.7128824 47.4685549 9.33407102 255 79 163
69.9352967 47.4854554 9.68763767 255 79 163
70.2309004 47.4995691 9.98290427 255 79 163
70.5848707 47.5101884 10.2050649 255 79 163
70.9794581 47.5167807 10.3429796 255 79 163
92.435665 47.5190155 10.3897326 218 222 230
71.3948764 47.5190155 10.3897326 218 222 230
71.3948764 -7.10542736e-15 8.11832547 218 222 230
92.435665 -7.10542736e-15 8.11832547 218 222 230
94.3025375 47.6081502 12.2544759 255 79 163
94.3025375 0 9.98732948 255 79 163
94.2626801 0 9.60318757 255 79 163
94.1448099 0 9.23544836 255 79 163
93.9539599 0 8.89981419 255 79 163
93.6982793 0 8.61061649 255 79 163
93.3886855 0 8.3802039 255 79 163
93.0383982 0 8.21841495 255 79 163
92.7411492 0 8.14351762 255 79 163
92.435665 -7.10542736e-15 8.11832547 255 79 163
92.435665 47.5190155 10.3897326 255 79 163
94.2557311 47.5883158 11.8395315 255 79 163
94.117659 47.5694761 11.4453941 255 79 163
93.8952447 47.5525756 11.0918275 255 79 163
93.5996409 47.5384619 10.7965609 255 79 163
93.2456706 47.5278426 10.5744002 255 79 163
92.8510832 47.5212503 10.4364856 255 79 163
94.3025375 93.1711585 10.0765659 218 222 230
94.3025375 47.6081502 12.2544759 218 222 230
94.3025375 93.1711585 75.7873813 218 222 230
94.3025375 1.86687248 75.7873813 218 222 230
94.3025375 -2.22044605e-16 73.9205089 218 222 230
94.3025375 0.0468063907 74.3359271 218 222 230
94.3025375 0.184878495 74.7305145 218 222 230
94.3025375 0.407292801 75.0844848 218 222 230
94.3025375 0.702896526 75.3800885 218 222 230
94.3025375 1.05686687 75.6025028 218 222 230
94.3025375 1.45145427 75.7405749 218 222 230
94.3025375 0 9.98732948 218 222 230
-2.22044605e-16 0 73.9205089 255 79 163
94.3025375 -2.22044605e-16 73.9205089 255 79 163
94.3025375 0.0468063907 74.3359271 255 79 163
94.3025375 0.184878495 74.7305145 255 79 163
94.3025375 0.407292801 75.0844848 255 79 163
94.3025375 0.702896526 75.3800885 255 79 163
94.3025375 1.05686687 75.6025028 255 79 163
94.3025375 1.45145427 75.7405749 255 79 163
94.3025375 1.86687248 75.7873813 255 79 163
1.86687248 1.86687248 75.7873813 255 79 163
0.0282129226 0.0282129226 74.2438413 255 79 163
0.111998961 0.111998961 74.5574011 255 79 163
0.248825698 0.248825698 74.851711 255 79 163
0.434557574 0.434557574 75.1178755 255 79 163
0.66358088 0.66358088 75.3478498 255 79 163
0.928973432 0.928973432 75.534683 255 79 163
1.32541189 1.32541189 75.7071351 255 79 163
1.59318514 1.59318514 75.7672108 255 79 163
1.86687248 95.038031 75.7873813 218 222 230
92.435665 95.038031 75.7873813 218 222 230
1.86687248 1.86687248 75.7873813 218 222 230
94.3025375 1.86687248 75.7873813 218 222 230
94.3025375 93.1711585 75.7873813 218 222 230
92.8510832 94.9912246 75.7873813 218 222 230
93.2456706 94.8531525 75.7873813 218 222 230
93.5996409 94.6307382 75.7873813 218 222 230
93.8952447 94.3351345 75.7873813 218 222 230
94.117659 93.9811641 75.7873813 218 222 230
94.2557311 93.5865767 75.7873813 218 222 230
60.3349717 37.4864075 0 255 79 163
60.3349717 37.4864075 49.0917222 255 79 163
60.75039 37.4396011 49.0917222 255 79 163
61.1449774 37.301529 49.0917222 255 79 163
61.4989477 37.0791147 49.0917222 255 79 163
61.7945514 36.783511 49.0917222 255 79 163
62.0169657 36.4295407 49.0917222 255 79 163
62.1550378 36.0349532 49.0917222 255 79 163
62.2018442 35.619535 49.0917222 255 79 163
62.2018442 35.619535 1.86687248 255 79 163
62.1333919 36.1204319 1.54403609 255 79 163
61.9330544 36.584597 1.22119971 255 79 163
61.6155246 36.977989 0.89836332 255 79 163
61.2040867 37.2717615 0.575526934 255 79 163
60.7825859 37.4319518 0.287763467 255 79 163
1.86687248 37.4864075 0 218 222 230
60.3349717 37.4864075 0 218 222 230
1.86687248 37.4864075 49.0917222 218 222 230
60.3349717 37.4864075 49.0917222 218 222 230
35.9477114 37.4864075 34.9601323 218 222 230
37.9030302 37.4864075 34.8062454 218 222 230
39.8102025 37.4864075 34.3483738 218 222 230
41.6222675 37.4864075 33.5977919 218 222 230
43.2946061 37.4864075 32.5729815 218 222 230
44.7860397 37.4864075 31.2991768 218 222 230
46.0598444 37.4864075 29.8077432 218 222 230
47.0846548 37.4864075 28.1354046 218 222 230
47.8352367 37.4864075 26.3233396 218 222 230
48.2931083 37.4864075 24.4161673 218 222 230
48.4469952 37.4864075 22.4608485 218 222 230
48.2931083 37.4864075 20.5055297 218 222 230
47.8352367 37.4864075 18.5983574 218 222 230
47.0846548 37.4864075 16.7862924 218 222 230
46.0598444 37.4864075 15.1139538 218 222 230
44.7860397 37.4864075 13.6225202 218 222 230
43.2946061 37.4864075 12.3487155 218 222 230
41.6222675 37.4864075 11.3239051 218 222 230
39.8102025 37.4864075 10.5733232 218 222 230
37.9030302 37.4864075 10.1154516 218 222 230
35.9477114 37.4864075 9.96156471 218 222 230
33.9923926 37.4864075 10.1154516 218 222 230
32.0852203 37.4864075 10.5733232 218 222 230
30.2731553 37.4864075 11.3239051 218 222 230
28.6008167 37.4864075 12.3487155 218 222 230
27.109383 37.4864075 13.6225202 218 222 230
25.8355784 37.4864075 15.1139538 218 222 230
24.810768 37.4864075 16.7862924 218 222 230
24.0601861 37.4864075 18.5983574 218 222 230
23.6023145 37.4864075 20.5055297 218 222 230
23.4484276 37.4864075 22.4608485 218 222 230
23.6023145 37.4864075 24.4161673 218 222 230
24.0601861 37.4864075 26.3233396 218 222 230
24.810768 37.4864075 28.1354046 218 222 230
25.8355784 37.4864075 29.8077432 218 222 230
27.109383 37.4864075 31.2991768 218 222 230
28.6008167 37.4864075 32.5729815 218 222 230
30.2731553 37.4864075 33.5977919 218 222 230
32.0852203 37.4864075 34.3483738 218 222 230
33.9923926 37.4864075 34.8062454 218 222 230
1.86687248 95.038031 0 218 222 230
69.5280039 95.038031 0 218 222 230
1.86687248 95.038031 75.7873813 218 222 230
92.435665 95.038031 75.7873813 218 222 230
92.435665 95.038031 10.0765659 218 222 230
71.3948764 95.038031 10.0765659 218 222 230
71.2258662 95.038031 10.056026 218 222 230
71.0651871 95.038031 9.99940879 218 222 230
70.9166571 95.038031 9.91559723 218 222 230
70.7381972 95.038031 9.7746265 218 222 230
70.5072249 95.038031 9.52381818 218 222 230
70.2247147 95.038031 9.09720853 218 222 230
69.9072743 95.038031 8.39869945 218 222 230
69.6694715 95.038031 7.56860558 218 222 230
69.5642679 95.038031 6.91264613 218 222 230
69.5280039 95.038031 6.24932146 218 222 230
35.9477114 95.038031 33.0932598 218 222 230
37.7445976 95.038031 32.9403223 218 222 230
39.4897907 95.038031 32.4859093 218 222 230
41.1330846 95.038031 31.7430936 218 222 230
42.6272048 95.038031 30.7332447 218 222 230
43.9291681 95.038031 29.4854139 218 222 230
45.0015194 95.038031 28.0354992 218 222 230
45.8134092 95.038031 26.4252119 218 222 230
46.3414808 95.038031 24.7008772 218 222 230
46.5705425 95.038031 22.9121008 218 222 230
46.4940048 95.038031 21.1103428 218 222 230
46.1140694 95.038031 19.3474364 218 222 230
45.4416664 95.038031 17.6740971 218 222 230
44.4961396 95.038031 16.138464 218 222 230
43.30469 95.038031 14.7847144 218 222 230
41.9015936 95.038031 13.6517931 218 222 230
40.3272149 95.038031 12.7722924 218 222 230
38.6268458 95.038031 12.1715138 218 222 230
36.8494029 95.038031 11.8667406 218 222 230
35.0460199 95.038031 11.8667406 218 222 230
33.268577 95.038031 12.1715138 218 222 230
31.5682079 95.038031 12.7722924 218 222 230
29.9938291 95.038031 13.6517931 218 222 230
28.5907327 95.038031 14.7847144 218 222 230
27.3992832 95.038031 16.138464 218 222 230
26.4537564 95.038031 17.6740971 218 222 230
25.7813534 95.038031 19.3474364 218 222 230
25.401418 95.038031 21.1103428 218 222 230
25.3248802 95.038031 22.9121008 218 222 230
25.553942 95.038031 24.7008772 218 222 230
26.0820136 95.038031 26.4252119 218 222 230
26.8939033 95.038031 28.0354992 218 222 230
27.9662547 95.038031 29.4854139 218 222 230
29.268218 95.038031 30.7332447 218 222 230
30.7623381 95.038031 31.7430936 218 222 230
32.4056321 95.038031 32.4859093 218 222 230
34.1508251 95.038031 32.9403223 218 222 230
60.3349717 37.4864075 0 255 79 163
60.3349717 37.4864075 0 255 79 163
64.0687167 35.619535 -1.11022302e-16 255 79 163
64.048359 35.7898816 -1.06103594e-16 255 79 163
63.9921597 35.9520695 -9.94931325e-17 255 79 163
63.908688 36.1023264 -9.33657943e-17 255 79 163
63.7680011 36.2830747 -8.60994644e-17 255 79 163
63.5167956 36.5174156 -7.62381845e-17 255 79 163
63.0882655 36.8039826 -6.29751926e-17 255 79 163
62.3848875 37.1245219 -4.54792731e-17 255 79 163
61.5476564 37.3607234 -2.71953638e-17 255 79 163
60.9444705 37.4541951 -1.26437242e-17 255 79 163
63.685017 35.619535 0.0398566157 255 79 163
63.3177005 35.619535 0.157724201 255 79 163
62.9824516 35.619535 0.348570445 255 79 163
62.6935849 35.619535 0.604246218 255 79 163
62.4634344 35.619535 0.913834322 255 79 163
62.3018274 35.619535 1.26411609 255 79 163
62.2270097 35.619535 1.5613763 255 79 163
62.2018442 35.619535 1.86687248 255 79 163
62.1333919 36.1204319 1.54403609 255 79 163
61.9330544 36.584597 1.22119971 255 79 163
61.6155246 36.977989 0.89836332 255 79 163
61.2040867 37.2717615 0.575526934 255 79 163
60.7825859 37.4319518 0.287763467 255 79 163
61.0559674 37.3477105 0.361393008 255 79 163
61.0814538 37.3519581 0.263214399 255 79 163
63.2643619 35.9468227 0.154082167 255 79 163
62.6831941 36.0181628 0.510069996 255 79 163
62.9074585 36.3060625 0.221030499 255 79 163
62.6295564 36.1986062 0.465664552 255 79 163
62.5696243 36.312459 0.445986488 255 79 163
62.6194858 36.6382521 0.19393709 255 79 163
62.4073277 36.5475666 0.400315521 255 79 163
62.267549 36.4051638 0.696476629 255 79 163
62.2813525 36.6897417 0.368885017 255 79 163
62.1790515 36.9737007 0.153017241 255 79 163
62.0707999 36.8818071 0.32064423 255 79 163
61.9844482 36.783969 0.552961817 255 79 163
61.7868182 37.2625312 0.0230036533 255 79 163
61.3549211 37.3765545 0.0153428651 255 79 163
61.8379575 37.0491074 0.271331814 255 79 163
61.1276776 37.3581645 0.178324339 255 79 163
61.7229774 37.2577458 0.0476296005 255 79 163
61.2694144 37.3717879 0.0534304565 255 79 163
61.6615239 37.2523026 0.078702105 255 79 163
61.1919729 37.365322 0.108292148 255 79 163
61.0923664 37.4190384 0.0245093236 255 79 163
61.1258804 37.4202574 0.0117063772 255 79 163
60.8044094 37.4574069 0.0269439563 255 79 163
62.3920877 36.1139302 0.798131627 255 79 163
62.3012473 36.0730613 0.9950876 255 79 163
62.2813856 36.1571818 0.951674165 255 79 163
61.3291405 37.3922781 0.00386087854 255 79 163
61.0400145 37.4387989 0.00273563901 255 79 163
60.87093 37.4558456 0.00822167112 255 79 163
60.9068873 37.454953 0.00229923673 255 79 163
69.5280039 95.038031 6.24932146 255 79 163
69.5280039 47.4298808 8.52498919 255 79 163
69.5748103 47.4497152 8.93993363 255 79 163
69.7128824 47.4685549 9.33407102 255 79 163
69.9352967 47.4854554 9.68763767 255 79 163
70.2309004 47.4995691 9.98290427 255 79 163
70.5848707 47.5101884 10.2050649 255 79 163
70.9794581 47.5167807 10.3429796 255 79 163
71.3948764 47.5190155 10.3897326 255 79 163
71.3948764 93.0820238 8.21182254 255 79 163
70.8399363 93.4709551 8.10874825 255 79 163
70.3351654 93.8521924 7.84471265 255 79 163
69.9261974 94.2267956 7.44188774 255 79 163
69.6500049 94.5964243 6.93499258 255 79 163
69.5587574 94.817493 6.59770977 255 79 163
92.435665 47.5190155 10.3897326 218 222 230
71.3948764 47.5190155 10.3897326 218 222 230
92.435665 93.0820238 8.21182254 218 222 230
71.3948764 93.0820238 8.21182254 218 222 230
94.3025375 93.1711585 10.0765659 255 79 163
94.3025375 47.6081502 12.2544759 255 79 163
94.2557311 47.5883158 11.8395315 255 79 163
94.117659 47.5694761 11.4453941 255 79 163
93.8952447 47.5525756 11.0918275 255 79 163
93.5996409 47.5384619 10.7965609 255 79 163
93.2456706 47.5278426 10.5744002 255 79 163
92.8510832 47.5212503 10.4364856 255 79 163
92.435665 47.5190155 10.3897326 255 79 163
92.435665 93.0820238 8.21182254 255 79 163
94.2557311 93.1513242 9.66162148 255 79 163
94.117659 93.1324844 9.26748408 255 79 163
93.8952447 93.115584 8.91391743 255 79 163
93.5996409 93.1014702 8.61865084 255 79 163
93.2456706 93.090851 8.39649018 255 79 163
92.8510832 93.0842586 8.25857555 255 79 163
92.435665 95.038031 10.0765659 255 79 163
92.435665 95.038031 75.7873813 255 79 163
92.8510832 94.9912246 75.7873813 255 79 163
93.2456706 94.8531525 75.7873813 255 79 163
93.5996409 94.6307382 75.7873813 255 79 163
93.8952447 94.3351345 75.7873813 255 79 163
94.117659 93.9811641 75.7873813 255 79 163
94.2557311 93.5865767 75.7873813 255 79 163
94.3025375 93.1711585 75.7873813 255 79 163
94.3025375 93.1711585 10.0765659 255 79 163
94.2557311 93.5865767 10.0765659 255 79 163
94.117659 93.9811641 10.0765659 255 79 163
93.8952447 94.3351345 10.0765659 255 79 163
93.5996409 94.6307382 10.0765659 255 79 163
93.2456706 94.8531525 10.0765659 255 79 163
92.8510832 94.9912246 10.0765659 255 79 163
35.9477114 39.35328 33.0932598 255 79 163
37.7445976 39.35328 32.9403223 255 79 163
39.4897907 39.35328 32.4859093 255 79 163
41.1330846 39.35328 31.7430936 255 79 163
42.6272048 39.35328 30.7332447 255 79 163
43.9291681 39.35328 29.4854139 255 79 163
45.0015194 39.35328 28.0354992 255 79 163
45.8134092 39.35328 26.4252119 255 79 163
46.3414808 39.35328 24.7008772 255 79 163
46.5705425 39.35328 22.9121008 255 79 163
46.4940048 39.35328 21.1103428 255 79 163
46.1140694 39.35328 19.3474364 255 79 163
45.4416664 39.35328 17.6740971 255 79 163
44.4961396 39.35328 16.138464 255 79 163
43.30469 39.35328 14.7847144 255 79 163
41.9015936 39.35328 13.6517931 255 79 163
40.3272149 39.35328 12.7722924 255 79 163
38.6268458 39.35328 12.1715138 255 79 163
36.8494029 39.35328 11.8667406 255 79 163
35.0460199 39.35328 11.8667406 255 79 163
33.268577 39.35328 12.1715138 255 79 163
31.5682079 39.35328 12.7722924 255 79 163
29.9938291 39.35328 13.6517931 255 79 163
28.5907327 39.35328 14.7847144 255 79 163
27.3992832 39.35328 16.138464 255 79 163
26.4537564 39.35328 17.6740971 255 79 163
25.7813534 39.35328 19.3474364 255 79 163
25.401418 39.35328 21.1103428 255 79 163
25.3248802 39.35328 22.9121008 255 79 163
25.553942 39.35328 24.7008772 255 79 163
26.0820136 39.35328 26.4252119 255 79 163
26.8939033 39.35328 28.0354992 255 79 163
27.9662547 39.35328 29.4854139 255 79 163
29.268218 39.35328 30.7332447 255 79 163
30.7623381 39.35328 31.7430936 255 79 163
32.4056321 39.35328 32.4859093 255 79 163
34.1508251 39.35328 32.9403223 255 79 163
35.9477114 39.35328 33.0932598 255 79 163
35.9477114 37.4864075 34.9601323 255 79 163
35.9477114 37.5332139 34.5447141 255 79 163
35.9477114 37.671286 34.1501267 255 79 163
35.9477114 37.8937003 33.7961563 255 79 163
35.9477114 38.189304 33.5005526 255 79 163
35.9477114 38.5432744 33.2781383 255 79 163
35.9477114 38.9378618 33.1400662 255 79 163
35.9477114 37.4864075 34.9601323 255 79 163
37.9030302 37.4864075 34.8062454 255 79 163
39.8102025 37.4864075 34.3483738 255 79 163
41.6222675 37.4864075 33.5977919 255 79 163
43.2946061 37.4864075 32.5729815 255 79 163
44.7860397 37.4864075 31.2991768 255 79 163
46.0598444 37.4864075 29.8077432 255 79 163
47.0846548 37.4864075 28.1354046 255 79 163
47.8352367 37.4864075 26.3233396 255 79 163
48.2931083 37.4864075 24.4161673 255 79 163
48.4469952 37.4864075 22.4608485 255 79 163
48.2931083 37.4864075 20.5055297 255 79 163
47.8352367 37.4864075 18.5983574 255 79 163
47.0846548 37.4864075 16.7862924 255 79 163
46.0598444 37.4864075 15.1139538 255 79 163
44.7860397 37.4864075 13.6225202 255 79 163
43.2946061 37.4864075 12.3487155 255 79 163
41.6222675 37.4864075 11.3239051 255 79 163
39.8102025 37.4864075 10.5733232 255 79 163
37.9030302 37.4864075 10.1154516 255 79 163
35.9477114 37.4864075 9.96156471 255 79 163
33.9923926 37.4864075 10.1154516 255 79 163
32.0852203 37.4864075 10.5733232 255 79 163
30.2731553 37.4864075 11.3239051 255 79 163
28.6008167 37.4864075 12.3487155 255 79 163
27.109383 37.4864075 13.6225202 255 79 163
25.8355784 37.4864075 15.1139538 255 79 163
24.810768 37.4864075 16.7862924 255 79 163
24.0601861 37.4864075 18.5983574 255 79 163
23.6023145 37.4864075 20.5055297 255 79 163
23.4484276 37.4864075 22.4608485 255 79 163
23.6023145 37.4864075 24.4161673 255 79 163
24.0601861 37.4864075 26.3233396 255 79 163
24.810768 37.4864075 28.1354046 255 79 163
25.8355784 37.4864075 29.8077432 255 79 163
27.109383 37.4864075 31.2991768 255 79 163
28.6008167 37.4864075 32.5729815 255 79 163
30.2731553 37.4864075 33.5977919 255 79 163
32.0852203 37.4864075 34.3483738 255 79 163
33.9923926 37.4864075 34.8062454 255 79 163
35.9477114 37.5332139 34.5447141 255 79 163
35.9477114 37.671286 34.1501267 255 79 163
35.9477114 37.8937003 33.7961563 255 79 163
35.9477114 38.189304 33.5005526 255 79 163
35.9477114 38.5432744 33.2781383 255 79 163
35.9477114 38.9378618 33.1400662 255 79 163
34.0573783 37.5332139 34.3959417 255 79 163
34.1191054 37.671286 34.0062123 255 79 163
34.1744786 37.8937003 33.6565999 255 79 163
34.2207212 38.189304 33.3646355 255 79 163
34.2555144 38.5432744 33.1449595 255 79 163
32.2135916 37.5332139 33.9532876 255 79 163
34.2771137 38.9378618 33.0085873 255 79 163
32.3355258 37.671286 33.5780127 255 79 163
32.4449086 37.8937003 33.2413669 255 79 163
32.5362552 38.189304 32.960231 255 79 163
32.604985 38.5432744 32.7487025 255 79 163
30.4617512 37.5332139 33.2276516 255 79 163
32.6476516 38.9378618 32.6173881 255 79 163
30.6408901 37.671286 32.8760716 255 79 163
30.8015893 37.8937003 32.5606817 255 79 163
30.9357906 38.189304 32.2972969 255 79 163
31.0367646 38.5432744 32.0991243 255 79 163
28.8449934 37.5332139 32.2369011 255 79 163
31.099448 38.9378618 31.9761012 255 79 163
29.0769261 37.671286 31.9176732 255 79 163
28.3563854 37.5332139 31.862528 255 79 163
29.2849846 37.8937003 31.6313052 255 79 163
28.6042731 37.671286 31.5555249 255 79 163
29.4587361 38.189304 31.3921567 255 79 163
28.8266443 37.8937003 31.2801233 255 79 163
29.589468 38.5432744 31.2122198 255 79 163
27.4031281 37.5332139 31.0054318 255 79 163
29.0123485 38.189304 31.050133 255 79 163
29.6706247 38.9378618 31.1005171 255 79 163
27.6821435 37.671286 30.7264164 255 79 163
29.1520736 38.5432744 30.8770867 255 79 163
26.8766881 37.5332139 30.4443531 255 79 163
27.9324383 37.8937003 30.4761215 255 79 163
29.2388133 38.9378618 30.7696617 255 79 163
27.172894 37.671286 30.1836591 255 79 163
28.1414617 38.189304 30.2670981 255 79 163
27.4386097 37.8937003 29.9497999 255 79 163
28.2987324 38.5432744 30.1098275 255 79 163
26.1716588 37.5332139 29.5635665 255 79 163
27.6605112 38.189304 29.754502 255 79 163
28.3963641 38.9378618 30.0121958 255 79 163
26.4908867 37.671286 29.3316338 255 79 163
27.8274715 38.5432744 29.6075585 255 79 163
26.7772547 37.8937003 29.1235753 255 79 163
25.6579477 37.5332139 28.7965072 255 79 163
27.9311184 38.9378618 29.5163377 255 79 163
27.0164031 38.189304 28.9498238 255 79 163
25.9939504 37.671286 28.5896222 255 79 163
27.1963401 38.5432744 28.8190919 255 79 163
26.2953665 37.8937003 28.404033 255 79 163
25.1809083 37.5332139 27.9468087 255 79 163
27.3080428 38.9378618 28.7379352 255 79 163
26.5470817 38.189304 28.2490458 255 79 163
25.5324883 37.671286 27.7676697 255 79 163
26.7364739 38.5432744 28.1324323 255 79 163
25.8478781 37.8937003 27.6069706 255 79 163
24.7352251 37.5332139 26.9663961 255 79 163
26.8540463 38.9378618 28.0600401 255 79 163
26.111263 38.189304 27.4727693 255 79 163
25.1013584 37.671286 26.8192716 255 79 163
26.3094356 38.5432744 27.3717953 255 79 163
24.4552723 37.5332139 26.1949683 255 79 163
25.4298036 37.8937003 26.6872915 255 79 163
26.4324587 38.9378618 27.3091119 255 79 163
24.8305472 37.671286 26.0730341 255 79 163
25.7040911 38.189304 26.5770737 255 79 163
25.167193 37.8937003 25.9636513 255 79 163
25.9104669 38.5432744 26.4941451 255 79 163
24.1350653 37.5332139 25.0066685 255 79 163
25.4483288 38.189304 25.8723047 255 79 163
26.0385824 38.9378618 26.442664 255 79 163
24.5207963 37.671286 24.9235371 255 79 163
25.6598574 38.5432744 25.8035749 255 79 163
24.0126182 37.5332139 24.3511816 255 79 163
24.8668218 37.8937003 24.8489629 255 79 163
25.7911718 38.9378618 25.7609083 255 79 163
24.4023476 37.671286 24.2894545 255 79 163
25.1557908 38.189304 24.7866853 255 79 163
24.75196 37.8937003 24.2340813 255 79 163
25.3732131 38.5432744 24.7398272 255 79 163
25.0439243 38.189304 24.1878387 255 79 163
23.8747338 37.5332139 22.9737023 255 79 163
25.5081862 38.9378618 24.7107383 255 79 163
25.2636004 38.5432744 24.1530454 255 79 163
24.2689656 37.671286 22.9569555 255 79 163
23.8638458 37.5332139 22.4608485 255 79 163
25.3999726 38.9378618 24.1314462 255 79 163
24.622617 37.8937003 22.9419326 255 79 163
24.2584332 37.671286 22.4608485 255 79 163
24.9179544 38.189304 22.9293868 255 79 163
24.6124035 37.8937003 22.4608485 255 79 163
25.1401683 38.5432744 22.9199473 255 79 163
24.9080073 38.189304 22.4608485 255 79 163
23.9617198 37.5332139 20.9259822 255 79 163
25.278116 38.9378618 22.9140874 255 79 163
25.1304216 38.5432744 22.4608485 255 79 163
24.3531113 37.671286 20.9761019 255 79 163
25.2684937 38.9378618 22.4608485 255 79 163
24.7042146 37.8937003 21.0210624 255 79 163
24.9974241 38.189304 21.0586094 255 79 163
25.2180369 38.5432744 21.0868599 255 79 163
24.3935211 37.5332139 18.9224175 255 79 163
25.3549907 38.9378618 21.1043976 255 79 163
24.7708124 37.671286 19.0379617 255 79 163
25.1092671 37.8937003 19.1416122 255 79 163
25.3919135 38.189304 19.2281717 255 79 163
25.6045787 38.5432744 19.2932997 255 79 163
25.1577153 37.5332139 17.020647 255 79 163
25.7365987 38.9378618 19.3337304 255 79 163
25.5100526 37.671286 17.1982917 255 79 163
25.8261219 37.8937003 17.3576505 255 79 163
26.0900741 38.189304 17.4907324 255 79 163
26.2886736 38.5432744 17.5908641 255 79 163
26.1716588 37.5332139 15.3581305 255 79 163
26.4119617 38.9378618 17.6530247 255 79 163
26.4908867 37.671286 15.5900632 255 79 163
26.7772547 37.8937003 15.7981217 255 79 163
27.0164031 38.189304 15.9718732 255 79 163
27.1963401 38.5432744 16.1026051 255 79 163
27.4031281 37.5332139 13.9162652 255 79 163
27.3080428 38.9378618 16.1837618 255 79 163
27.6821435 37.671286 14.1952806 255 79 163
27.9324383 37.8937003 14.4455755 255 79 163
28.1414617 38.189304 14.6545989 255 79 163
28.2987324 38.5432744 14.8118695 255 79 163
28.8449934 37.5332139 12.6847959 255 79 163
28.3963641 38.9378618 14.9095012 255 79 163
29.0769261 37.671286 13.0040238 255 79 163
29.2849846 37.8937003 13.2903918 255 79 163
29.4587361 38.189304 13.5295403 255 79 163
29.589468 38.5432744 13.7094772 255 79 163
30.4617512 37.5332139 11.6940454 255 79 163
29.6706247 38.9378618 13.8211799 255 79 163
30.6408901 37.671286 12.0456254 255 79 163
30.9703521 37.5332139 11.4496859 255 79 163
30.8015893 37.8937003 12.3610153 255 79 163
31.1328831 37.671286 11.8092452 255 79 163
30.9357906 38.189304 12.6244001 255 79 163
31.2786839 37.8937003 12.131793 255 79 163
31.0367646 38.5432744 12.8225727 255 79 163
31.4004435 38.189304 12.4011556 255 79 163
32.2135916 37.5332139 10.9684094 255 79 163
31.099448 38.9378618 12.9455958 255 79 163
31.4920562 38.5432744 12.6038258 255 79 163
32.3355258 37.671286 11.3436843 255 79 163
32.9028424 37.5332139 10.7668936 255 79 163
31.5489283 38.9378618 12.7296411 255 79 163
32.4449086 37.8937003 11.6803301 255 79 163
33.0022697 37.671286 11.1487489 255 79 163
32.5362552 38.189304 11.961466 255 79 163
33.0914625 37.8937003 11.4912976 255 79 163
32.604985 38.5432744 12.1729945 255 79 163
34.0573783 37.5332139 10.5257554 255 79 163
33.1659481 38.189304 11.7773631 255 79 163
32.6476516 38.9378618 12.3043089 255 79 163
34.1191054 37.671286 10.9154847 255 79 163
33.2219917 38.5432744 11.9926008 255 79 163
34.922928 37.5332139 10.4205152 255 79 163
34.1744786 37.8937003 11.2650971 255 79 163
33.2567828 38.9378618 12.1262177 255 79 163
34.9563913 37.671286 10.8136811 255 79 163
34.2207212 38.189304 11.5570615 255 79 163
34.9864101 37.8937003 11.1663762 255 79 163
34.2555144 38.5432744 11.7767375 255 79 163
35.9477114 37.5332139 10.3769829 255 79 163
35.0114791 38.189304 11.460915 255 79 163
34.2771137 38.9378618 11.9131097 255 79 163
35.9477114 37.671286 10.7715703 255 79 163
35.0303411 38.5432744 11.6825281 255 79 163
35.9477114 37.8937003 11.1255407 255 79 163
36.9724948 37.5332139 10.4205152 255 79 163
35.0420505 38.9378618 11.8201028 255 79 163
35.9477114 38.189304 11.4211444 255 79 163
36.9390314 37.671286 10.8136811 255 79 163
35.9477114 38.5432744 11.6435587 255 79 163
37.8380444 37.5332139 10.5257554 255 79 163
36.9090126 37.8937003 11.1663762 255 79 163
35.9477114 38.9378618 11.7816308 255 79 163
37.7763174 37.671286 10.9154847 255 79 163
36.8839437 38.189304 11.460915 255 79 163
37.7209442 37.8937003 11.2650971 255 79 163
36.8650816 38.5432744 11.6825281 255 79 163
38.9925804 37.5332139 10.7668936 255 79 163
37.6747016 38.189304 11.5570615 255 79 163
36.8533723 38.9378618 11.8201028 255 79 163
38.893153 37.671286 11.1487489 255 79 163
37.6399083 38.5432744 11.7767375 255 79 163
39.6818312 37.5332139 10.9684094 255 79 163
38.8039603 37.8937003 11.4912976 255 79 163
37.6183091 38.9378618 11.9131097 255 79 163
39.559897 37.671286 11.3436843 255 79 163
38.7294746 38.189304 11.7773631 255 79 163
39.4505141 37.8937003 11.6803301 255 79 163
38.6734311 38.5432744 11.9926008 255 79 163
39.3591676 38.189304 11.961466 255 79 163
40.9250707 37.5332139 11.4496859 255 79 163
38.63864 38.9378618 12.1262177 255 79 163
39.2904378 38.5432744 12.1729945 255 79 163
40.7625397 37.671286 11.8092452 255 79 163
41.4336716 37.5332139 11.6940454 255 79 163
39.2477711 38.9378618 12.3043089 255 79 163
40.6167388 37.8937003 12.131793 255 79 163
41.2545326 37.671286 12.0456254 255 79 163
40.4949793 38.189304 12.4011556 255 79 163
41.0938335 37.8937003 12.3610153 255 79 163
40.4033666 38.5432744 12.6038258 255 79 163
40.9596322 38.189304 12.6244001 255 79 163
42.7143714 37.5332139 12.4492493 255 79 163
40.3464945 38.9378618 12.7296411 255 79 163
40.8586582 38.5432744 12.8225727 255 79 163
42.4934124 37.671286 12.7761687 255 79 163
40.7959748 38.9378618 12.9455958 255 79 163
42.295198 37.8937003 13.0694366 255 79 163
42.1296673 38.189304 13.3143471 255 79 163
42.0051209 38.5432744 13.4986195 255 79 163
44.3090077 37.5332139 13.7368281 255 79 163
41.927804 38.9378618 13.6130136 255 79 163
44.0359773 37.671286 14.0217029 255 79 163
43.7910515 37.8937003 14.2772539 255 79 163
43.5865118 38.189304 14.4906668 255 79 163
43.4326147 38.5432744 14.6512402 255 79 163
45.6631046 37.5332139 15.2753811 255 79 163
43.3370772 38.9378618 14.7509222 255 79 163
45.3458575 37.671286 15.5100159 255 79 163
45.0612664 37.8937003 15.7204984 255 79 163
44.8236018 38.189304 15.8962742 255 79 163
44.6447814 38.5432744 16.0285291 255 79 163
46.7145145 37.5332139 16.9748883 255 79 163
44.5337718 38.9378618 16.1106314 255 79 163
46.3629345 37.671286 17.1540273 255 79 163
46.0475446 37.8937003 17.3147264 255 79 163
45.7841598 38.189304 17.4489277 255 79 163
45.5859872 38.5432744 17.5499017 255 79 163
47.4401505 37.5332139 18.7267287 255 79 163
45.462964 38.9378618 17.6125851 255 79 163
47.0648756 37.671286 18.8486629 255 79 163
46.7282298 37.8937003 18.9580457 255 79 163
46.4470939 38.189304 19.0493923 255 79 163
46.2355653 38.5432744 19.1181221 255 79 163
47.8828045 37.5332139 20.5705155 255 79 163
46.104251 38.9378618 19.1607887 255 79 163
47.4930752 37.671286 20.6322425 255 79 163
47.1434628 37.8937003 20.6876157 255 79 163
46.8514984 38.189304 20.7338583 255 79 163
46.6318224 38.5432744 20.7686516 255 79 163
48.031577 37.5332139 22.4608485 255 79 163
46.4954502 38.9378618 20.7902508 255 79 163
47.6369896 37.671286 22.4608485 255 79 163
48.020689 37.5332139 22.9737023 255 79 163
47.2830192 37.8937003 22.4608485 255 79 163
47.6264571 37.671286 22.9569555 255 79 163
46.9874155 38.189304 22.4608485 255 79 163
47.2728057 37.8937003 22.9419326 255 79 163
46.7650012 38.5432744 22.4608485 255 79 163
46.9774684 38.189304 22.9293868 255 79 163
47.8828045 37.5332139 24.3511816 255 79 163
46.6269291 38.9378618 22.4608485 255 79 163
46.7552545 38.5432744 22.9199473 255 79 163
47.4930752 37.671286 24.2894545 255 79 163
47.7603575 37.5332139 25.0066685 255 79 163
46.6173068 38.9378618 22.9140874 255 79 163
47.1434628 37.8937003 24.2340813 255 79 163
47.3746265 37.671286 24.9235371 255 79 163
46.8514984 38.189304 24.1878387 255 79 163
47.028601 37.8937003 24.8489629 255 79 163
46.6318224 38.5432744 24.1530454 255 79 163
47.4401505 37.5332139 26.1949683 255 79 163
46.739632 38.189304 24.7866853 255 79 163
46.4954502 38.9378618 24.1314462 255 79 163
47.0648756 37.671286 26.0730341 255 79 163
46.5222097 38.5432744 24.7398272 255 79 163
47.1601977 37.5332139 26.9663961 255 79 163
46.7282298 37.8937003 25.9636513 255 79 163
46.3872366 38.9378618 24.7107383 255 79 163
46.7940643 37.671286 26.8192716 255 79 163
46.4470939 38.189304 25.8723047 255 79 163
46.4656192 37.8937003 26.6872915 255 79 163
46.2355653 38.5432744 25.8035749 255 79 163
46.7145145 37.5332139 27.9468087 255 79 163
46.1913317 38.189304 26.5770737 255 79 163
46.104251 38.9378618 25.7609083 255 79 163
46.3629345 37.671286 27.7676697 255 79 163
45.9849559 38.5432744 26.4941451 255 79 163
46.0475446 37.8937003 27.6069706 255 79 163
46.237475 37.5332139 28.7965072 255 79 163
45.8568403 38.9378618 26.442664 255 79 163
45.7841598 38.189304 27.4727693 255 79 163
45.9014724 37.671286 28.5896222 255 79 163
45.5859872 38.5432744 27.3717953 255 79 163
45.6000563 37.8937003 28.404033 255 79 163
45.723764 37.5332139 29.5635665 255 79 163
45.462964 38.9378618 27.3091119 255 79 163
45.3483411 38.189304 28.2490458 255 79 163
45.4045361 37.671286 29.3316338 255 79 163
45.1589489 38.5432744 28.1324323 255 79 163
45.1181681 37.8937003 29.1235753 255 79 163
45.0187346 37.5332139 30.4443531 255 79 163
45.0413764 38.9378618 28.0600401 255 79 163
44.8790196 38.189304 28.9498238 255 79 163
44.7225288 37.671286 30.1836591 255 79 163
44.6990827 38.5432744 28.8190919 255 79 163
44.4922947 37.5332139 31.0054318 255 79 163
44.4568131 37.8937003 29.9497999 255 79 163
44.58738 38.9378618 28.7379352 255 79 163
44.2132793 37.671286 30.7264164 255 79 163
44.2349115 38.189304 29.754502 255 79 163
43.9629844 37.8937003 30.4761215 255 79 163
44.0679513 38.5432744 29.6075585 255 79 163
43.5390374 37.5332139 31.862528 255 79 163
43.753961 38.189304 30.2670981 255 79 163
43.9643044 38.9378618 29.5163377 255 79 163
43.2911497 37.671286 31.5555249 255 79 163
43.5966904 38.5432744 30.1098275 255 79 163
43.0504294 37.5332139 32.2369011 255 79 163
43.0687784 37.8937003 31.2801233 255 79 163
43.4990586 38.9378618 30.0121958 255 79 163
42.8184967 37.671286 31.9176732 255 79 163
42.8830743 38.189304 31.050133 255 79 163
42.6104382 37.8937003 31.6313052 255 79 163
42.7433492 38.5432744 30.8770867 255 79 163
42.4366867 38.189304 31.3921567 255 79 163
41.8409515 37.5332139 33.0102337 255 79 163
42.6566095 38.9378618 30.7696617 255 79 163
42.3059548 38.5432744 31.2122198 255 79 163
41.6485133 37.671286 32.6657533 255 79 163
42.2247981 38.9378618 31.1005171 255 79 163
41.4758837 37.8937003 32.3567322 255 79 163
41.3317193 38.189304 32.098666 255 79 163
41.2232489 38.5432744 31.9044952 255 79 163
39.9733279 37.5332139 33.8544528 255 79 163
41.1559119 38.9378618 31.7839563 255 79 163
39.8418751 37.671286 33.4824053 255 79 163
39.7239535 37.8937003 33.1486546 255 79 163
39.6254761 38.189304 32.8699365 255 79 163
39.5513811 38.5432744 32.6602271 255 79 163
37.9898946 37.5332139 34.3708987 255 79 163
39.5053838 38.9378618 32.530042 255 79 163
37.923209 37.671286 33.9819871 255 79 163
37.8633877 37.8937003 33.6331083 255 79 163
37.8134304 38.189304 33.3417565 255 79 163
37.7758422 38.5432744 33.1225415 255 79 163
37.7525079 38.9378618 32.9864554 255 79 163
69.5280039 95.038031 6.24932146 255 79 163
69.5280039 95.038031 6.24932146 255 79 163
71.3948764 95.038031 10.0765659 255 79 163
71.2258662 95.038031 10.056026 255 79 163
71.0651871 95.038031 9.99940879 255 79 163
70.9166571 95.038031 9.91559723 255 79 163
70.7381972 95.038031 9.7746265 255 79 163
70.5072249 95.038031 9.52381818 255 79 163
70.2247147 95.038031 9.09720853 255 79 163
69.9072743 95.038031 8.39869945 255 79 163
69.6694715 95.038031 7.56860558 255 79 163
69.5642679 95.038031 6.91264613 255 79 163
71.3948764 94.9981745 9.6928669 255 79 163
71.3948764 94.8803074 9.32555097 255 79 163
71.3948764 94.6894618 8.99030255 255 79 163
71.3948764 94.4337868 8.70143606 255 79 163
71.3948764 94.1241997 8.47128537 255 79 163
71.3948764 93.7739189 8.30967798 255 79 163
71.3948764 93.4325905 8.22808935 255 79 163
71.3948764 93.0820238 8.21182254 255 79 163
70.8399363 93.4709551 8.10874825 255 79 163
70.3351654 93.8521924 7.84471265 255 79 163
69.9261974 94.2267956 7.44188774 255 79 163
69.6500049 94.5964243 6.93499258 255 79 163
69.5587574 94.817493 6.59770977 255 79 163
69.6622768 94.7674939 7.01298058 255 79 163
69.6558211 94.8541751 7.05786171 255 79 163
69.6666356 94.6677911 6.99016066 255 79 163
71.0705528 94.8834424 9.27069605 255 79 163
70.9759191 94.5121211 8.66017112 255 79 163
70.6945533 94.8049286 8.87261343 255 79 163
70.7895568 94.5513415 8.58757346 255 79 163
70.6797301 94.5722135 8.52533469 255 79 163
70.3527828 94.8357963 8.5609263 255 79 163
70.4227903 94.6273107 8.3337511 255 79 163
70.5615612 94.3271633 8.20587028 255 79 163
70.1416094 94.8621572 8.29156201 255 79 163
70.2875726 94.6603957 8.20400152 255 79 163
70.1046096 94.7108549 7.98922516 255 79 163
69.7581313 95.013677 7.75563595 255 79 163
69.7632173 94.9875599 7.68901255 255 79 163
69.6483492 94.9262079 7.12210139 255 79 163
69.641626 94.9829281 7.20058072 255 79 163
69.9251358 94.7691 7.71971323 255 79 163
70.0502865 94.5475321 7.74048425 255 79 163
69.6553889 95.0207842 7.37339527 255 79 163
69.636732 95.0222824 7.28794752 255 79 163
69.5979346 95.0122943 7.03874705 255 79 163
69.596619 95.0257838 7.07389376 255 79 163
69.5567346 95.010453 6.72698854 255 79 163
70.866374 94.2147826 8.35567396 255 79 163
70.9034122 94.0171794 8.26979335 255 79 163
70.8170492 94.0589947 8.24199123 255 79 163
69.9137653 94.9519271 8.0218712 255 79 163
70.3179739 94.295708 7.94686363 255 79 163
69.6305037 95.0338666 7.31210056 255 79 163
69.5791101 95.0351499 6.99772129 255 79 163
69.5604126 95.0294264 6.81441357 255 79 163
69.5624095 95.0356087 6.86220536 255 79 163
92.435665 95.038031 10.0765659 255 79 163
71.3948764 95.038031 10.0765659 255 79 163
92.435665 94.9883477 9.64873848 255 79 163
92.435665 94.8419423 9.2436827 255 79 163
92.435665 94.6066073 8.88295814 255 79 163
92.435665 94.2948689 8.58576483 255 79 163
92.435665 93.9233195 8.36792123 255 79 163
92.435665 93.5117355 8.24102235 255 79 163
92.435665 93.0820238 8.21182254 255 79 163
71.3948764 93.0820238 8.21182254 255 79 163
71.3948764 94.9981745 9.6928669 255 79 163
71.3948764 94.8803074 9.32555097 255 79 163
71.3948764 94.6894618 8.99030255 255 79 163
71.3948764 94.4337868 8.70143606 255 79 163
71.3948764 94.1241997 8.47128537 255 79 163
71.3948764 93.7739189 8.30967798 255 79 163
71.3948764 93.4325905 8.22808935 255 79 163
35.9477114 95.038031 33.0932598 218 222 230
35.9477114 39.35328 33.0932598 218 222 230
35.9477114 95.038031 33.0932598 218 222 230
37.7445976 95.038031 32.9403223 218 222 230
39.4897907 95.038031 32.4859093 218 222 230
41.1330846 95.038031 31.7430936 218 222 230
42.6272048 95.038031 30.7332447 218 222 230
43.9291681 95.038031 29.4854139 218 222 230
45.0015194 95.038031 28.0354992 218 222 230
45.8134092 95.038031 26.4252119 218 222 230
46.3414808 95.038031 24.7008772 218 222 230
46.5705425 95.038031 22.9121008 218 222 230
46.4940048 95.038031 21.1103428 218 222 230
46.1140694 95.038031 19.3474364 218 222 230
45.4416664 95.038031 17.6740971 218 222 230
44.4961396 95.038031 16.138464 218 222 230
43.30469 95.038031 14.7847144 218 222 230
41.9015936 95.038031 13.6517931 218 222 230
40.3272149 95.038031 12.7722924 218 222 230
38.6268458 95.038031 12.1715138 218 222 230
36.8494029 95.038031 11.8667406 218 222 230
35.0460199 95.038031 11.8667406 218 222 230
33.268577 95.038031 12.1715138 218 222 230
31.5682079 95.038031 12.7722924 218 222 230
29.9938291 95.038031 13.6517931 218 222 230
28.5907327 95.038031 14.7847144 218 222 230
27.3992832 95.038031 16.138464 218 222 230
26.4537564 95.038031 17.6740971 218 222 230
25.7813534 95.038031 19.3474364 218 222 230
25.401418 95.038031 21.1103428 218 222 230
25.3248802 95.038031 22.9121008 218 222 230
25.553942 95.038031 24.7008772 218 222 230
26.0820136 95.038031 26.4252119 218 222 230
26.8939033 95.038031 28.0354992 218 222 230
27.9662547 95.038031 29.4854139 218 222 230
29.268218 95.038031 30.7332447 218 222 230
30.7623381 95.038031 31.7430936 218 222 230
32.4056321 95.038031 32.4859093 218 222 230
34.1508251 95.038031 32.9403223 218 222 230
35.9477114 39.35328 33.0932598 218 222 230
37.7445976 39.35328 32.9403223 218 222 230
39.4897907 39.35328 32.4859093 218 222 230
41.1330846 39.35328 31.7430936 218 222 230
42.6272048 39.35328 30.7332447 218 222 230
43.9291681 39.35328 29.4854139 218 222 230
45.0015194 39.35328 28.0354992 218 222 230
45.8134092 39.35328 26.4252119 218 222 230
46.3414808 39.35328 24.7008772 218 222 230
46.5705425 39.35328 22.9121008 218 222 230
46.4940048 39.35328 21.1103428 218 222 230
46.1140694 39.35328 19.3474364 218 222 230
45.4416664 39.35328 17.6740971 218 222 230
44.4961396 39.35328 16.138464 218 222 230
43.30469 39.35328 14.7847144 218 222 230
41.9015936 39.35328 13.6517931 218 222 230
40.3272149 39.35328 12.7722924 218 222 230
38.6268458 39.35328 12.1715138 218 222 230
36.8494029 39.35328 11.8667406 218 222 230
35.0460199 39.35328 11.8667406 218 222 230
33.268577 39.35328 12.1715138 218 222 230
31.5682079 39.35328 12.7722924 218 222 230
29.9938291 39.35328 13.6517931 218 222 230
28.5907327 39.35328 14.7847144 218 222 230
27.3992832 39.35328 16.138464 218 222 230
26.4537564 39.35328 17.6740971 218 222 230
25.7813534 39.35328 19.3474364 218 222 230
25.401418 39.35328 21.1103428 218 222 230
25.3248802 39.35328 22.9121008 218 222 230
25.553942 39.35328 24.7008772 218 222 230
26.0820136 39.35328 26.4252119 218 222 230
26.8939033 39.35328 28.0354992 218 222 230
27.9662547 39.35328 29.4854139 218 222 230
29.268218 39.35328 30.7332447 218 222 230
30.7623381 39.35328 31.7430936 218 222 230
32.4056321 39.35328 32.4859093 218 222 230
34.1508251 39.35328 32.9403223 218 222 230
94.3025375 93.1711585 10.0765659 255 79 163
94.2557311 93.5865767 10.0765659 255 79 163
94.117659 93.9811641 10.0765659 255 79 163
93.8952447 94.3351345 10.0765659 255 79 163
93.5996409 94.6307382 10.0765659 255 79 163
93.2456706 94.8531525 10.0765659 255 79 163
92.8510832 94.9912246 10.0765659 255 79 163
92.435665 95.038031 10.0765659 255 79 163
94.3025375 93.1711585 10.0765659 255 79 163
94.2557311 93.1513242 9.66162148 255 79 163
94.117659 93.1324844 9.26748408 255 79 163
93.8952447 93.115584 8.91391743 255 79 163
93.5996409 93.1014702 8.61865084 255 79 163
93.2456706 93.090851 8.39649018 255 79 163
92.8510832 93.0842586 8.25857555 255 79 163
92.435665 93.0820238 8.21182254 255 79 163
92.435665 94.9883477 9.64873848 255 79 163
92.435665 94.8419423 9.2436827 255 79 163
92.435665 94.6066073 8.88295814 255 79 163
92.435665 94.2948689 8.58576483 255 79 163
92.435665 93.9233195 8.36792123 255 79 163
92.435665 93.5117355 8.24102235 255 79 163
94.2111662 93.7405137 9.98359911 255 79 163
94.2111662 93.6813705 9.80732266 255 79 163
94.2111662 93.5692277 9.65901455 255 79 163
93.9459966 94.2114851 9.72752163 255 79 163
94.2111662 93.4157344 9.55408065 255 79 163
93.9459966 94.0464251 9.41473521 255 79 163
93.5329851 94.6617499 9.83317565 255 79 163
94.2111662 93.2368352 9.50342126 255 79 163
93.9459966 93.7904444 9.17069816 255 79 163
93.5329851 94.5069109 9.37167792 255 79 163
93.9459966 93.4701339 9.02076046 255 79 163
93.5329851 94.2133171 8.98340224 255 79 163
93.0125603 94.8544424 9.51180039 255 79 163
93.5329851 93.8114665 8.70868175 255 79 163
93.0125603 94.5873695 9.00570134 255 79 163
93.5329851 93.3431022 8.57605374 255 79 163
93.0125603 94.1731842 8.6108411 255 79 163
93.0125603 93.6549108 8.3682368 255 79 163
3 10 12 11
3 10 13 12
3 4 6 5
3 2 4 3
3 2 7 6
3 2 8 7
3 2 6 4
3 0 8 2
3 1 9 8
3 1 10 9
3 1 13 10
3 1 8 0
3 21 17 16
3 21 18 17
3 21 19 18
3 21 20 19
3 22 21 16
3 14 22 16
3 38 14 15
3 38 22 14
3 39 22 38
3 40 22 39
3 41 22 40
3 42 22 41
3 34 36 35
3 33 36 34
3 32 36 33
3 31 36 32
3 30 36 31
3 29 36 30
3 28 37 36
3 28 36 29
3 23 42 43
3 23 43 44
3 23 44 45
3 23 45 37
3 23 37 28
3 23 22 42
3 24 26 25
3 27 24 23
3 27 26 24
3 27 23 28
3 53 54 55
3 53 61 60
3 53 55 61
3 52 60 59
3 52 53 60
3 51 52 59
3 50 59 58
3 50 51 59
3 49 58 57
3 49 50 58
3 48 57 56
3 48 49 57
3 47 56 46
3 47 48 56
3 73 62 63
3 74 63 64
3 74 64 65
3 74 73 63
3 75 65 66
3 75 74 65
3 76 66 67
3 76 67 68
3 76 75 66
3 77 68 69
3 77 76 68
3 78 69 70
3 78 77 69
3 79 70 71
3 79 78 70
3 72 79 71
3 93 94 95
3 92 93 95
3 91 95 96
3 91 92 95
3 90 96 97
3 90 97 98
3 90 91 96
3 80 90 98
3 89 90 80
3 81 86 87
3 81 87 88
3 81 88 89
3 81 89 80
3 85 86 81
3 84 85 81
3 83 84 81
3 82 83 81
3 106 107 108
3 106 108 114
3 105 114 113
3 105 106 114
3 104 113 112
3 104 105 113
3 103 112 111
3 103 104 112
3 102 111 110
3 102 103 111
3 101 110 109
3 101 102 110
3 100 109 99
3 100 101 109
3 126 128 127
3 131 126 125
3 131 129 128
3 131 130 129
3 131 128 126
3 124 131 125
3 119 117 118
3 121 119 120
3 121 117 119
3 115 121 122
3 115 122 123
3 115 124 117
3 115 131 124
3 115 117 121
3 132 131 115
3 133 144 143
3 116 134 135
3 116 135 136
3 116 136 137
3 116 137 138
3 116 138 139
3 116 139 140
3 116 140 141
3 116 141 142
3 116 142 132
3 116 132 115
3 144 133 116
3 133 134 116
3 154 145 146
3 155 154 146
3 156 146 147
3 156 147 148
3 156 155 146
3 157 156 148
3 158 148 149
3 158 157 148
3 159 149 150
3 159 150 151
3 159 158 149
3 160 159 151
3 153 151 152
3 153 160 151
3 168 169 177
3 167 177 176
3 167 168 177
3 166 176 175
3 166 167 176
3 165 175 174
3 165 166 175
3 164 174 173
3 164 165 174
3 163 173 172
3 163 164 173
3 162 172 171
3 162 163 172
3 161 171 170
3 161 162 171
3 178 181 182
3 179 180 178
3 180 181 178
3 184 188 189
3 184 189 190
3 184 190 191
3 184 191 192
3 184 192 193
3 184 193 194
3 184 194 187
3 185 187 186
3 183 187 185
3 183 184 187
3 203 205 204
3 203 211 205
3 202 210 211
3 202 211 203
3 201 209 210
3 201 210 202
3 200 208 209
3 200 209 201
3 199 207 208
3 199 208 200
3 198 206 207
3 198 207 199
3 197 195 206
3 197 206 198
3 196 195 197
3 214 213 212
3 215 214 212
3 224 225 226
3 224 226 232
3 223 232 231
3 223 224 232
3 222 231 230
3 222 223 231
3 221 230 229
3 221 222 230
3 220 229 228
3 220 221 229
3 219 228 227
3 219 220 228
3 218 227 216
3 218 219 227
3 217 218 216
3 235 234 233
3 236 234 235
3 237 244 234
3 237 234 236
3 242 238 237
3 242 236 243
3 242 237 236
3 241 239 238
3 241 240 239
3 241 238 242
3 253 254 262
3 252 262 261
3 252 253 262
3 251 261 260
3 251 252 261
3 250 260 259
3 250 251 260
3 249 258 257
3 249 259 258
3 249 250 259
3 248 257 256
3 248 249 257
3 247 256 255
3 247 248 256
3 246 255 245
3 246 247 255
3 264 263 265
3 267 265 266
3 267 264 265
3 268 264 267
3 269 268 267
3 271 270 269
3 271 273 272
3 271 267 273
3 271 269 267
3 281 283 282
3 281 284 283
3 280 285 284
3 280 284 281
3 279 286 285
3 279 285 280
3 278 287 286
3 278 286 279
3 277 288 287
3 277 287 278
3 276 274 288
3 276 288 277
3 275 274 276
3 327 328 291
3 329 291 328
3 326 327 291
3 330 291 329
3 331 291 330
3 325 326 291
3 324 325 291
3 332 291 331
3 323 324 291
3 289 323 291
3 322 323 289
3 321 322 289
3 320 321 289
3 319 320 289
3 292 293 294
3 292 294 295
3 292 295 296
3 292 296 297
3 292 332 293
3 292 291 332
3 298 292 297
3 318 319 289
3 299 292 298
3 317 318 289
3 300 292 299
3 316 317 289
3 301 292 300
3 315 316 289
3 302 292 301
3 314 315 289
3 303 292 302
3 290 292 303
3 290 303 304
3 290 304 305
3 290 305 306
3 290 306 307
3 290 307 308
3 290 308 309
3 290 309 310
3 290 310 311
3 290 311 312
3 290 312 313
3 290 313 289
3 313 314 289
3 373 372 333
3 371 333 372
3 374 373 333
3 370 333 371
3 375 374 333
3 369 333 370
3 376 375 333
3 368 333 369
3 377 376 333
3 378 377 333
3 379 378 333
3 334 364 363
3 334 365 364
3 334 366 365
3 334 367 366
3 334 368 367
3 334 333 368
3 348 334 363
3 348 363 362
3 347 348 362
3 346 362 361
3 346 347 362
3 335 350 349
3 335 380 379
3 335 381 380
3 335 382 381
3 335 383 382
3 335 384 383
3 335 385 384
3 335 349 385
3 335 379 333
3 345 361 360
3 345 346 361
3 344 345 360
3 343 360 359
3 343 344 360
3 342 359 358
3 342 343 359
3 341 342 358
3 340 358 357
3 340 341 358
3 339 357 356
3 339 340 357
3 338 356 355
3 338 339 356
3 336 337 338
3 336 351 350
3 336 352 351
3 336 353 352
3 336 354 353
3 336 355 354
3 336 338 355
3 336 350 335
3 398 389 388
3 406 404 405
3 411 409 410
3 411 410 412
3 411 412 409
3 413 390 389
3 413 391 390
3 413 392 391
3 413 398 399
3 413 399 400
3 413 389 398
3 414 400 401
3 414 401 402
3 414 413 400
3 415 393 392
3 415 392 413
3 415 413 414
3 416 415 414
3 417 415 416
3 418 394 393
3 418 393 415
3 419 415 417
3 419 418 415
3 420 406 407
3 420 419 417
3 421 418 419
3 421 419 420
3 422 395 394
3 422 394 418
3 422 418 421
3 423 422 421
3 424 407 408
3 424 420 407
3 424 421 420
3 424 423 421
3 425 396 395
3 425 426 396
3 427 408 409
3 427 412 428
3 427 409 412
3 427 424 408
3 427 422 423
3 427 423 424
3 429 430 426
3 429 395 422
3 429 426 425
3 429 425 395
3 431 422 427
3 431 430 429
3 431 428 432
3 431 427 428
3 431 432 430
3 431 429 422
3 433 434 426
3 433 426 430
3 433 430 432
3 435 386 387
3 435 433 432
3 435 410 386
3 435 432 428
3 435 412 410
3 435 428 412
3 436 416 414
3 436 417 416
3 436 420 417
3 437 402 403
3 437 403 404
3 437 436 414
3 437 414 402
3 437 404 406
3 438 420 436
3 438 436 437
3 438 437 406
3 438 406 420
3 439 397 396
3 439 426 434
3 439 396 426
3 440 439 434
3 440 397 439
3 441 433 435
3 441 435 387
3 441 440 434
3 441 434 433
3 442 387 397
3 442 441 387
3 442 397 440
3 442 440 441
3 450 452 451
3 450 453 452
3 449 454 453
3 449 453 450
3 448 455 454
3 448 454 449
3 447 455 448
3 446 456 455
3 446 455 447
3 445 457 456
3 445 456 446
3 444 443 457
3 444 457 445
3 458 461 460
3 458 459 461
3 469 470 471
3 469 471 477
3 468 477 476
3 468 469 477
3 467 476 475
3 467 468 476
3 466 475 474
3 466 467 475
3 465 474 473
3 465 466 474
3 464 473 472
3 464 465 473
3 463 472 462
3 463 464 472
3 486 487 488
3 485 488 489
3 485 486 488
3 484 489 490
3 484 485 489
3 483 490 491
3 483 484 490
3 482 491 492
3 482 483 491
3 481 492 493
3 481 482 492
3 480 493 478
3 480 481 493
3 479 480 478
3 579 540 539
3 494 495 584
3 585 533 532
3 585 532 578
3 586 534 533
3 586 533 585
3 587 534 586
3 587 535 534
3 588 536 535
3 588 535 587
3 589 536 588
3 589 537 536
3 590 585 578
3 590 578 577
3 591 537 589
3 591 530 531
3 591 538 537
3 591 531 538
3 592 585 590
3 592 586 585
3 593 586 592
3 593 587 586
3 594 588 587
3 594 587 593
3 595 588 594
3 595 589 588
3 596 590 577
3 596 577 576
3 597 530 591
3 597 591 589
3 597 529 530
3 597 589 595
3 597 595 529
3 598 592 590
3 598 590 596
3 599 593 592
3 599 592 598
3 600 593 599
3 600 594 593
3 601 594 600
3 601 595 594
3 601 529 595
3 602 576 575
3 602 596 576
3 603 601 528
3 603 529 601
3 603 528 529
3 604 596 602
3 604 598 596
3 605 575 574
3 605 602 575
3 606 598 604
3 606 599 598
3 607 602 605
3 607 604 602
3 608 601 600
3 608 600 599
3 608 599 606
3 609 606 604
3 609 604 607
3 610 528 601
3 610 601 608
3 611 605 574
3 612 606 609
3 612 608 606
3 613 527 528
3 613 528 610
3 614 609 607
3 614 607 605
3 614 605 611
3 615 610 608
3 615 613 610
3 615 608 612
3 616 574 573
3 616 611 574
3 617 612 609
3 617 609 614
3 618 527 613
3 618 613 615
3 619 614 611
3 619 611 616
3 619 617 614
3 620 612 617
3 621 617 619
3 622 612 620
3 622 615 612
3 623 616 573
3 623 619 616
3 624 620 617
3 624 617 621
3 625 618 615
3 625 526 527
3 625 615 622
3 625 527 618
3 626 619 623
3 627 622 620
3 627 620 624
3 628 619 626
3 628 621 619
3 629 573 572
3 629 623 573
3 629 626 623
3 630 526 625
3 630 622 627
3 630 625 622
3 631 621 628
3 631 624 621
3 632 628 626
3 632 626 629
3 633 624 631
3 633 627 624
3 634 631 628
3 634 628 632
3 635 629 572
3 636 526 630
3 636 630 627
3 636 627 633
3 636 525 526
3 637 631 634
3 638 632 629
3 638 629 635
3 639 633 631
3 639 631 637
3 640 634 632
3 640 632 638
3 641 635 572
3 641 572 571
3 642 636 633
3 642 525 636
3 642 633 639
3 643 639 637
3 643 637 634
3 643 634 640
3 644 638 635
3 644 635 641
3 645 639 643
3 646 641 571
3 647 640 638
3 647 638 644
3 647 643 640
3 648 639 645
3 648 524 525
3 648 525 642
3 648 642 639
3 649 644 641
3 649 641 646
3 650 643 647
3 651 644 649
3 651 647 644
3 652 645 643
3 652 643 650
3 653 646 571
3 653 571 570
3 654 650 647
3 654 647 651
3 655 648 645
3 655 645 652
3 655 524 648
3 656 649 646
3 656 646 653
3 657 652 650
3 657 650 654
3 658 653 570
3 659 651 649
3 659 649 656
3 660 523 524
3 660 524 655
3 660 655 652
3 660 652 657
3 661 656 653
3 661 653 658
3 662 654 651
3 662 651 659
3 663 656 661
3 663 659 656
3 664 654 662
3 664 657 654
3 665 659 663
3 665 662 659
3 666 570 569
3 666 658 570
3 667 660 657
3 667 657 664
3 667 523 660
3 668 662 665
3 668 664 662
3 669 661 658
3 669 658 666
3 670 666 569
3 671 667 664
3 671 664 668
3 671 523 667
3 671 522 523
3 672 665 663
3 672 663 661
3 672 661 669
3 673 666 670
3 673 669 666
3 674 668 665
3 674 665 672
3 675 672 669
3 675 669 673
3 676 668 674
3 677 672 675
3 677 674 672
3 678 670 569
3 678 569 568
3 679 671 668
3 679 522 671
3 679 668 676
3 680 676 674
3 680 674 677
3 681 673 670
3 681 670 678
3 681 678 568
3 682 522 679
3 682 521 522
3 682 679 676
3 682 676 680
3 683 675 673
3 683 673 681
3 684 677 675
3 684 675 683
3 684 680 677
3 685 680 684
3 686 568 567
3 687 520 521
3 687 521 682
3 687 682 680
3 687 680 685
3 688 681 568
3 688 683 681
3 688 568 686
3 689 683 688
3 690 683 689
3 690 684 683
3 690 685 684
3 691 687 685
3 691 685 690
3 692 567 566
3 692 686 567
3 693 519 520
3 693 520 687
3 693 687 691
3 694 689 688
3 694 688 686
3 694 686 692
3 695 689 694
3 696 689 695
3 696 690 689
3 696 691 690
3 697 693 691
3 697 691 696
3 698 694 692
3 698 692 566
3 698 566 565
3 699 693 697
3 699 519 693
3 700 694 698
3 701 694 700
3 701 695 694
3 702 696 695
3 702 695 701
3 703 697 696
3 703 696 702
3 704 698 565
3 704 565 564
3 705 697 703
3 705 699 697
3 705 519 699
3 705 518 519
3 706 698 704
3 706 700 698
3 707 702 701
3 707 700 706
3 707 701 700
3 708 702 707
3 709 702 708
3 709 703 702
3 710 704 564
3 710 564 563
3 711 517 518
3 711 518 705
3 711 709 517
3 711 703 709
3 711 705 703
3 712 706 704
3 712 704 710
3 713 706 712
3 713 707 706
3 714 708 707
3 714 707 713
3 715 708 714
3 715 517 709
3 715 709 708
3 716 710 563
3 716 712 710
3 716 563 562
3 717 516 517
3 717 517 715
3 717 715 516
3 718 712 716
3 719 562 561
3 719 716 562
3 720 712 718
3 720 713 712
3 720 714 713
3 721 718 716
3 721 716 719
3 722 714 720
3 723 720 718
3 723 718 721
3 724 516 715
3 724 715 714
3 724 714 722
3 725 720 723
3 725 722 720
3 726 719 561
3 726 721 719
3 727 515 516
3 727 516 724
3 728 724 722
3 728 722 725
3 729 721 726
3 730 729 726
3 730 561 560
3 730 726 561
3 731 727 724
3 731 515 727
3 731 724 728
3 732 721 729
3 732 723 721
3 733 729 730
3 734 723 732
3 734 725 723
3 735 729 733
3 735 734 732
3 735 732 729
3 736 728 725
3 736 731 728
3 736 725 734
3 737 730 560
3 738 734 735
3 738 736 734
3 739 731 736
3 739 515 731
3 739 514 515
3 740 733 730
3 740 730 737
3 741 736 738
3 742 560 559
3 742 737 560
3 743 735 733
3 743 733 740
3 744 736 741
3 744 739 736
3 744 514 739
3 745 740 737
3 745 737 742
3 746 738 735
3 746 735 743
3 746 741 738
3 747 740 745
3 747 743 740
3 748 741 746
3 749 742 559
3 750 746 743
3 750 743 747
3 750 748 746
3 751 513 514
3 751 744 741
3 751 514 744
3 751 741 748
3 752 745 742
3 752 742 749
3 753 748 750
3 754 747 745
3 754 745 752
3 754 750 747
3 755 749 559
3 755 559 558
3 756 513 751
3 756 751 748
3 756 748 753
3 757 750 754
3 758 752 749
3 758 749 755
3 759 753 750
3 759 750 757
3 760 755 558
3 761 754 752
3 761 752 758
3 761 757 754
3 762 512 513
3 762 513 756
3 762 753 759
3 762 756 753
3 763 758 755
3 763 755 760
3 764 757 761
3 764 759 757
3 765 761 758
3 765 758 763
3 766 759 764
3 767 558 557
3 767 760 558
3 768 764 761
3 768 766 764
3 768 761 765
3 769 762 759
3 769 759 766
3 769 512 762
3 770 763 760
3 770 760 767
3 771 766 768
3 772 767 557
3 772 770 767
3 773 765 763
3 773 768 765
3 773 763 770
3 774 769 766
3 774 511 512
3 774 766 771
3 774 512 769
3 775 770 772
3 776 768 773
3 776 771 768
3 777 773 770
3 777 770 775
3 778 771 776
3 779 773 777
3 779 776 773
3 780 557 556
3 780 772 557
3 781 511 774
3 781 774 771
3 781 771 778
3 782 778 776
3 782 776 779
3 783 775 772
3 783 772 780
3 784 780 556
3 785 510 511
3 785 778 782
3 785 781 778
3 785 511 781
3 786 777 775
3 786 779 777
3 786 775 783
3 787 783 780
3 787 780 784
3 788 779 786
3 788 782 779
3 789 786 783
3 789 783 787
3 790 782 788
3 791 786 789
3 791 788 786
3 792 556 555
3 792 784 556
3 793 510 785
3 793 785 782
3 793 782 790
3 794 790 788
3 794 788 791
3 795 787 784
3 795 792 555
3 795 784 792
3 796 509 510
3 796 510 793
3 796 793 790
3 796 790 794
3 797 787 795
3 797 789 787
3 798 789 797
3 798 791 789
3 799 794 791
3 799 791 798
3 800 555 554
3 801 796 794
3 801 794 799
3 801 509 796
3 802 800 554
3 802 555 800
3 802 795 555
3 803 795 802
3 803 797 795
3 804 798 797
3 804 799 798
3 804 797 803
3 805 799 804
3 806 554 553
3 807 508 509
3 807 801 799
3 807 509 801
3 807 799 805
3 808 802 554
3 808 554 806
3 809 803 802
3 809 802 808
3 809 804 803
3 810 805 804
3 810 804 809
3 811 805 810
3 812 806 553
3 812 553 552
3 813 507 508
3 813 508 807
3 813 807 805
3 813 805 811
3 814 806 812
3 814 808 806
3 815 809 808
3 815 808 814
3 815 810 809
3 816 810 815
3 817 811 810
3 817 813 811
3 817 810 816
3 818 812 552
3 818 552 551
3 819 506 507
3 819 507 813
3 819 813 817
3 820 812 818
3 820 814 812
3 820 815 814
3 821 815 820
3 822 816 815
3 822 815 821
3 823 816 822
3 823 817 816
3 824 551 550
3 824 818 551
3 825 505 506
3 825 506 819
3 825 819 817
3 825 817 823
3 826 820 818
3 826 818 824
3 827 820 826
3 827 821 820
3 827 822 821
3 828 822 827
3 829 822 828
3 829 823 822
3 829 825 823
3 830 550 549
3 830 824 550
3 831 825 829
3 831 504 505
3 831 505 825
3 831 829 504
3 832 824 830
3 832 826 824
3 832 827 826
3 833 830 549
3 833 549 548
3 834 827 832
3 835 832 830
3 835 830 833
3 836 828 827
3 836 827 834
3 837 836 834
3 837 832 835
3 837 834 832
3 838 828 836
3 838 829 828
3 838 504 829
3 839 836 837
3 840 833 548
3 841 503 504
3 841 504 838
3 842 836 839
3 842 841 838
3 842 838 836
3 843 837 835
3 843 835 833
3 843 833 840
3 844 840 548
3 844 548 547
3 845 503 841
3 845 841 842
3 846 837 843
3 846 839 837
3 847 840 844
3 847 843 840
3 847 846 843
3 848 839 846
3 849 846 847
3 850 842 839
3 850 845 842
3 850 839 848
3 851 844 547
3 852 848 846
3 852 846 849
3 852 850 848
3 853 502 503
3 853 503 845
3 853 845 850
3 854 847 844
3 854 844 851
3 854 849 847
3 855 850 852
3 856 547 546
3 856 854 851
3 856 851 547
3 857 852 849
3 857 849 854
3 858 502 853
3 858 853 850
3 858 850 855
3 859 854 856
3 860 852 857
3 861 857 854
3 861 854 859
3 861 860 857
3 862 855 852
3 862 858 855
3 862 852 860
3 863 856 546
3 863 859 856
3 864 860 861
3 865 501 502
3 865 502 858
3 865 858 862
3 866 861 859
3 866 859 863
3 867 862 860
3 867 860 864
3 868 861 866
3 869 863 546
3 869 546 545
3 870 501 865
3 870 862 867
3 870 865 862
3 871 864 861
3 871 861 868
3 872 863 869
3 872 866 863
3 873 867 864
3 873 864 871
3 874 866 872
3 874 868 866
3 875 869 545
3 875 872 869
3 876 501 870
3 876 500 501
3 876 867 873
3 876 870 867
3 877 871 868
3 877 868 874
3 877 873 871
3 878 872 875
3 879 873 877
3 880 874 872
3 880 872 878
3 881 875 545
3 881 545 544
3 881 878 875
3 882 500 876
3 882 876 873
3 882 873 879
3 883 874 880
3 883 877 874
3 884 880 878
3 884 878 881
3 885 879 877
3 885 877 883
3 886 881 544
3 887 880 884
3 887 883 880
3 888 499 500
3 888 500 882
3 888 879 885
3 888 882 879
3 889 884 881
3 889 881 886
3 890 883 887
3 891 887 884
3 891 884 889
3 892 885 883
3 892 883 890
3 893 544 543
3 893 886 544
3 894 890 887
3 894 887 891
3 895 885 892
3 895 499 888
3 895 888 885
3 896 889 886
3 896 886 893
3 897 892 890
3 897 890 894
3 898 896 893
3 898 893 543
3 899 889 896
3 899 891 889
3 900 498 499
3 900 892 897
3 900 499 895
3 900 895 892
3 901 896 898
3 902 891 899
3 902 894 891
3 903 899 896
3 903 896 901
3 904 894 902
3 904 897 894
3 905 899 903
3 905 902 899
3 906 898 543
3 906 901 898
3 906 543 542
3 907 900 897
3 907 897 904
3 907 498 900
3 908 904 902
3 908 902 905
3 909 906 542
3 909 901 906
3 910 497 498
3 910 498 907
3 910 907 904
3 910 904 908
3 911 903 901
3 911 901 909
3 911 905 903
3 912 908 905
3 912 905 911
3 913 908 912
3 913 910 908
3 914 542 541
3 915 910 913
3 915 497 910
3 916 909 542
3 916 914 541
3 916 542 914
3 917 911 909
3 917 909 916
3 918 911 917
3 918 912 911
3 919 913 912
3 919 912 918
3 920 541 540
3 920 540 579
3 921 496 497
3 921 497 915
3 921 915 913
3 921 913 919
3 922 916 541
3 922 541 920
3 922 920 579
3 922 579 580
3 922 580 581
3 923 917 916
3 923 916 922
3 923 918 917
3 923 922 581
3 924 918 923
3 924 923 581
3 924 581 582
3 925 919 918
3 925 918 924
3 925 924 582
3 925 582 583
3 926 495 496
3 926 496 921
3 926 919 925
3 926 584 495
3 926 921 919
3 926 583 584
3 926 925 583
3 939 930 929
3 952 951 953
3 954 949 950
3 954 950 951
3 954 952 949
3 954 951 952
3 955 931 930
3 955 932 931
3 955 933 932
3 955 939 940
3 955 940 941
3 955 930 939
3 956 941 942
3 956 942 943
3 956 955 941
3 957 934 933
3 957 933 955
3 957 955 956
3 958 957 956
3 959 957 958
3 960 935 934
3 960 934 957
3 960 957 959
3 961 960 959
3 962 947 948
3 962 961 959
3 963 936 935
3 963 935 960
3 964 960 961
3 964 963 960
3 965 963 964
3 966 937 936
3 967 968 969
3 970 953 968
3 970 968 967
3 970 952 953
3 970 949 952
3 971 949 970
3 971 948 949
3 971 970 965
3 972 967 969
3 972 966 967
3 972 969 973
3 972 937 966
3 974 975 973
3 974 973 969
3 974 969 968
3 976 927 928
3 976 974 968
3 976 951 927
3 976 953 951
3 976 968 953
3 977 958 956
3 977 959 958
3 978 943 944
3 978 944 945
3 978 945 946
3 978 946 947
3 978 956 943
3 978 977 956
3 979 959 977
3 979 977 978
3 979 978 947
3 979 947 962
3 979 962 959
3 980 967 966
3 980 965 970
3 980 936 963
3 980 966 936
3 980 970 967
3 980 963 965
3 981 948 971
3 981 971 965
3 981 962 948
3 981 961 962
3 981 964 961
3 981 965 964
3 982 938 937
3 982 972 973
3 982 937 972
3 982 973 975
3 983 938 982
3 983 982 975
3 984 974 976
3 984 976 928
3 984 983 975
3 984 975 974
3 985 928 938
3 985 984 928
3 985 938 983
3 985 983 984
3 996 987 986
3 996 986 988
3 997 988 989
3 997 996 988
3 998 989 990
3 998 997 989
3 999 990 991
3 999 998 990
3 1000 991 992
3 1000 999 991
3 1001 992 993
3 1001 1000 992
3 1002 993 994
3 1002 1001 993
3 995 1002 994
3 1005 1043 1042
3 1006 1044 1043
3 1006 1043 1005
3 1007 1044 1006
3 1008 1045 1044
3 1008 1044 1007
3 1009 1046 1045
3 1009 1045 1008
3 1010 1047 1046
3 1010 1046 1009
3 1011 1047 1010
3 1011 1048 1047
3 1012 1048 1011
3 1012 1049 1048
3 1012 1050 1049
3 1013 1050 1012
3 1014 1050 1013
3 1014 1051 1050
3 1015 1051 1014
3 1015 1052 1051
3 1016 1052 1015
3 1016 1053 1052
3 1016 1054 1053
3 1017 1054 1016
3 1018 1054 1017
3 1018 1055 1054
3 1018 1056 1055
3 1019 1056 1018
3 1020 1056 1019
3 1020 1057 1056
3 1021 1057 1020
3 1021 1058 1057
3 1022 1058 1021
3 1022 1059 1058
3 1022 1060 1059
3 1023 1060 1022
3 1024 1060 1023
3 1024 1061 1060
3 1024 1062 1061
3 1025 1062 1024
3 1026 1063 1062
3 1026 1062 1025
3 1027 1064 1063
3 1027 1065 1064
3 1027 1063 1026
3 1028 1065 1027
3 1029 1066 1065
3 1029 1067 1066
3 1029 1065 1028
3 1030 1067 1029
3 1031 1068 1067
3 1031 1067 1030
3 1032 1069 1068
3 1032 1068 1031
3 1033 1070 1069
3 1033 1069 1032
3 1034 1071 1070
3 1034 1070 1033
3 1035 1072 1071
3 1035 1071 1034
3 1036 1072 1035
3 1036 1073 1072
3 1037 1073 1036
3 1037 1074 1073
3 1038 1074 1037
3 1038 1075 1074
3 1039 1075 1038
3 1039 1076 1075
3 1040 1076 1039
3 1040 1077 1076
3 1041 1077 1040
3 1041 1078 1077
3 1003 1078 1041
3 1003 1004 1078
3 1095 1086 1085
3 1094 1100 1093
3 1101 1081 1080
3 1102 1080 1079
3 1102 1101 1080
3 1103 1079 1087
3 1103 1102 1079
3 1104 1082 1081
3 1104 1081 1101
3 1104 1101 1102
3 1105 1087 1088
3 1105 1103 1087
3 1106 1104 1102
3 1106 1102 1103
3 1107 1083 1082
3 1107 1084 1083
3 1107 1082 1104
3 1108 1088 1089
3 1108 1105 1088
3 1109 1106 1103
3 1109 1103 1105
3 1110 1107 1104
3 1110 1104 1106
3 1111 1089 1090
3 1111 1108 1089
3 1111 1105 1108
3 1111 1109 1105
3 1112 1106 1109
3 1112 1110 1106
3 1113 1085 1084
3 1113 1096 1095
3 1113 1084 1107
3 1113 1095 1085
3 1113 1107 1110
3 1114 1109 1111
3 1114 1112 1109
3 1115 1097 1096
3 1115 1096 1113
3 1115 1110 1112
3 1115 1113 1110
3 1116 1090 1091
3 1116 1091 1092
3 1116 1111 1090
3 1116 1114 1111
3 1117 1098 1097
3 1117 1099 1098
3 1117 1097 1115
3 1117 1112 1114
3 1117 1115 1112
3 1118 1092 1093
3 1118 1100 1099
3 1118 1093 1100
3 1118 1099 1117
3 1118 1116 1092
3 1118 1114 1116
3 1118 1117 1114
