ply
format ascii 1.0
comment generated by blendit.inference.finetune_visualize
element vertex 886
property float x
property float y
property float z
property uchar red
property uchar green
property uchar blue
element face 1109
property list uchar int vertex_indices
end_header
-2.22044605e-16 0.957910093 89.4692827 218 222 230
-2.22044605e-16 94.808121 89.4692827 218 222 230
-2.22044605e-16 0.957910093 0.957910093 218 222 230
-2.22044605e-16 20.8577869 0.957910093 218 222 230
0 20.8577869 41.5747651 218 222 230
-1.11022302e-16 21.8425528 43.4905853 218 222 230
-1.08389932e-16 21.7558414 43.4808631 218 222 230
-1.03584493e-16 21.6728496 43.4537789 218 222 230
-9.87508195e-17 21.5954408 43.413233 218 222 230
-9.28453637e-17 21.5016798 43.3441938 218 222 230
-8.44118963e-17 21.3791575 43.2196708 218 222 230
-7.18069669e-17 21.2283007 43.0054288 218 222 230
-5.28995725e-17 21.0580426 42.65119 218 222 230
-3.14281839e-17 20.9307291 42.2276307 218 222 230
-1.36994184e-17 20.876503 41.9031787 218 222 230
-1.11022302e-16 56.9831307 43.4905853 218 222 230
-1.15238384e-16 57.0693432 43.4809647 218 222 230
-1.21555094e-16 57.1518903 43.4541922 218 222 230
-1.27221356e-16 57.2289338 43.414036 218 222 230
-1.34812529e-16 57.3223075 43.3456486 218 222 230
-1.46588212e-16 57.4444269 43.2221471 218 222 230
-1.64986931e-16 57.5949268 43.0095194 218 222 230
-1.93765276e-16 57.7650767 42.6577979 218 222 230
-2.26934936e-16 57.8928396 42.2370917 218 222 230
-2.52309317e-16 57.9486327 41.9079913 218 222 230
-1.10555325e-15 57.9678965 41.5747651 218 222 230
-5.52776626e-16 57.9678965 0 218 222 230
0 94.808121 -2.22044605e-16 218 222 230
-2.22044605e-16 0.957910093 89.4692827 218 222 230
-2.22044605e-16 94.808121 89.4692827 218 222 230
0.024016806 0.744755044 89.4692827 218 222 230
0.0948629209 0.54228848 89.4692827 218 222 230
0.208985825 0.360662919 89.4692827 218 222 230
0.360662919 0.208985825 89.4692827 218 222 230
0.54228848 0.0948629209 89.4692827 218 222 230
0.744755044 0.024016806 89.4692827 218 222 230
0.957910093 -2.22044605e-16 89.4692827 218 222 230
87.639472 -2.22044605e-16 89.4692827 218 222 230
87.852627 0.024016806 89.4692827 218 222 230
88.0550936 0.0948629209 89.4692827 218 222 230
88.2367191 0.208985825 89.4692827 218 222 230
88.3883962 0.360662919 89.4692827 218 222 230
88.5025191 0.54228848 89.4692827 218 222 230
88.5733653 0.744755044 89.4692827 218 222 230
88.5973821 0.957910093 89.4692827 218 222 230
88.5973821 94.808121 89.4692827 218 222 230
87.639472 95.7660311 89.4692827 218 222 230
87.852627 95.7420143 89.4692827 218 222 230
88.0550936 95.6711682 89.4692827 218 222 230
88.2367191 95.5570453 89.4692827 218 222 230
88.3883962 95.4053682 89.4692827 218 222 230
88.5025191 95.2237426 89.4692827 218 222 230
88.5733653 95.021276 89.4692827 218 222 230
0.957910093 95.7660311 89.4692827 218 222 230
0.024016806 95.021276 89.4692827 218 222 230
0.0948629209 95.2237426 89.4692827 218 222 230
0.208985825 95.4053682 89.4692827 218 222 230
0.360662919 95.5570453 89.4692827 218 222 230
0.54228848 95.6711682 89.4692827 218 222 230
0.744755044 95.7420143 89.4692827 218 222 230
-2.22044605e-16 0.957910093 0.957910093 255 79 163
0.0326399949 0.709984717 0.709984717 255 79 163
0.128335618 0.478955046 0.478955046 255 79 163
0.28056537 0.28056537 0.28056537 255 79 163
0.457403444 0.141157474 0.141157474 255 79 163
0.621425228 0.0610435018 0.0610435018 255 79 163
0.779672125 0.0167284032 0.0167284032 255 79 163
0.868399461 0.00419127012 0.00419127012 255 79 163
0.957910093 -2.22044605e-16 0 255 79 163
0.957910093 -2.22044605e-16 89.4692827 255 79 163
-2.22044605e-16 0.957910093 89.4692827 255 79 163
0.024016806 0.744755044 89.4692827 255 79 163
0.0948629209 0.54228848 89.4692827 255 79 163
0.208985825 0.360662919 89.4692827 255 79 163
0.360662919 0.208985825 89.4692827 255 79 163
0.54228848 0.0948629209 89.4692827 255 79 163
0.744755044 0.024016806 89.4692827 255 79 163
0 94.808121 -2.22044605e-16 255 79 163
-2.22044605e-16 94.808121 89.4692827 255 79 163
0.024016806 95.021276 89.4692827 255 79 163
0.0948629209 95.2237426 89.4692827 255 79 163
0.208985825 95.4053682 89.4692827 255 79 163
0.360662919 95.5570453 89.4692827 255 79 163
0.54228848 95.6711682 89.4692827 255 79 163
0.744755044 95.7420143 89.4692827 255 79 163
0.957910093 95.7660311 89.4692827 255 79 163
0.957910093 95.7660311 0.957910093 255 79 163
0.709984717 95.7333911 0.709984717 255 79 163
0.478955046 95.6376955 0.478955046 255 79 163
0.28056537 95.4854657 0.28056537 255 79 163
0.141157474 95.3086276 0.141157474 255 79 163
0.0610435018 95.1446058 0.0610435018 255 79 163
0.0167284032 94.986359 0.0167284032 255 79 163
0.00419127012 94.8976316 0.00419127012 255 79 163
-2.22044605e-16 0.957910093 0.957910093 255 79 163
-2.22044605e-16 20.8577869 0.957910093 255 79 163
0.0274017987 20.8578077 0.730432567 255 79 163
0.110020482 20.8581222 0.512180374 255 79 163
0.23215317 20.8592795 0.33271522 255 79 163
0.380532811 20.8617975 0.193562515 255 79 163
0.56324272 20.8665745 0.0850816946 255 79 163
0.754092541 20.8735416 0.0219345825 255 79 163
0.957910093 20.8832158 -2.22044605e-16 255 79 163
0.957910093 -2.22044605e-16 0 255 79 163
0.0326399949 0.709984717 0.709984717 255 79 163
0.128335618 0.478955046 0.478955046 255 79 163
0.28056537 0.28056537 0.28056537 255 79 163
0.457403444 0.141157474 0.141157474 255 79 163
0.621425228 0.0610435018 0.0610435018 255 79 163
0.779672125 0.0167284032 0.0167284032 255 79 163
0.868399461 0.00419127012 0.00419127012 255 79 163
0.957910093 -2.22044605e-16 0 218 222 230
87.639472 0 -2.22044605e-16 218 222 230
87.639472 94.808121 0 218 222 230
0 94.808121 -2.22044605e-16 218 222 230
-5.52776626e-16 57.9678965 0 218 222 230
2.35665755 57.813433 0 218 222 230
4.67299204 57.3526854 0 218 222 230
6.90937034 56.5935373 0 218 222 230
9.02752739 55.5489778 0 218 222 230
10.991221 54.2368797 0 218 222 230
12.7668517 52.6796934 0 218 222 230
14.324038 50.9040627 0 218 222 230
15.6361361 48.9403691 0 218 222 230
16.6806956 46.8222121 0 218 222 230
17.4398437 44.5858338 0 218 222 230
17.9005913 42.2694993 0 218 222 230
18.0550548 39.9128417 0 218 222 230
18.0550548 38.9128417 0 218 222 230
17.9108404 36.6353871 0 218 222 230
17.480501 34.3943147 0 218 222 230
16.7709114 32.2254255 0 218 222 230
15.793407 30.1633676 0 218 222 230
14.5636037 28.2410822 0 218 222 230
13.1011473 26.4892777 0 218 222 230
11.4294007 24.9359392 0 218 222 230
9.57506977 23.6058811 0 218 222 230
7.56777752 22.5203512 0 218 222 230
5.43959032 21.6966906 0 218 222 230
3.22450588 21.1480573 0 218 222 230
0.957910093 20.8832158 -2.22044605e-16 218 222 230
11.5250469 68.2490882 0 218 222 230
10.2797916 63.953948 0 218 222 230
4.03296342 65.7650404 0 218 222 230
5.2782187 70.0601806 0 218 222 230
43.4849801 28.4597428 0 218 222 230
41.3869329 26.194045 0 218 222 230
37.8364511 27.0006841 0 218 222 230
36.7597801 30.4788111 0 218 222 230
38.8578274 32.7445089 0 218 222 230
39.7728973 33.0277732 0 218 222 230
39.5740482 33.0514839 0 218 222 230
39.3746147 33.0333335 0 218 222 230
39.183313 32.9741151 0 218 222 230
39.0085039 32.876417 0 218 222 230
42.7840728 32.3436599 0 218 222 230
43.697201 29.3938489 0 218 222 230
43.6049388 28.6200958 0 218 222 230
43.6889368 28.8018855 0 218 222 230
43.7333031 28.9971669 0 218 222 230
43.7360985 29.1974051 0 218 222 230
18.0550548 38.9128417 0 218 222 230
18.0550548 38.9128417 41.5747651 218 222 230
17.9005913 36.5561842 41.5747651 218 222 230
17.4398437 34.2398497 41.5747651 218 222 230
16.6806956 32.0034714 41.5747651 218 222 230
15.6361361 29.8853143 41.5747651 218 222 230
14.324038 27.9216208 41.5747651 218 222 230
12.7668517 26.1459901 41.5747651 218 222 230
10.991221 24.5888037 41.5747651 218 222 230
9.02752739 23.2767056 41.5747651 218 222 230
6.90937034 22.2321461 41.5747651 218 222 230
4.67299204 21.472998 41.5747651 218 222 230
2.35665755 21.0122504 41.5747651 218 222 230
0 20.8577869 41.5747651 218 222 230
-2.22044605e-16 20.8577869 0.957910093 218 222 230
0.0274017987 20.8578077 0.730432567 218 222 230
0.110020482 20.8581222 0.512180374 218 222 230
0.23215317 20.8592795 0.33271522 218 222 230
0.380532811 20.8617975 0.193562515 218 222 230
0.56324272 20.8665745 0.0850816946 218 222 230
0.754092541 20.8735416 0.0219345825 218 222 230
0.957910093 20.8832158 -2.22044605e-16 218 222 230
17.9108404 36.6353871 0 218 222 230
17.480501 34.3943147 0 218 222 230
16.7709114 32.2254255 0 218 222 230
15.793407 30.1633676 0 218 222 230
14.5636037 28.2410822 0 218 222 230
13.1011473 26.4892777 0 218 222 230
11.4294007 24.9359392 0 218 222 230
9.57506977 23.6058811 0 218 222 230
7.56777752 22.5203512 0 218 222 230
5.43959032 21.6966906 0 218 222 230
3.22450588 21.1480573 0 218 222 230
-5.52776626e-16 57.9678965 0 218 222 230
-1.10555325e-15 57.9678965 41.5747651 218 222 230
2.35665755 57.813433 41.5747651 218 222 230
4.67299204 57.3526854 41.5747651 218 222 230
6.90937034 56.5935373 41.5747651 218 222 230
9.02752739 55.5489778 41.5747651 218 222 230
10.991221 54.2368797 41.5747651 218 222 230
12.7668517 52.6796934 41.5747651 218 222 230
14.324038 50.9040627 41.5747651 218 222 230
15.6361361 48.9403691 41.5747651 218 222 230
16.6806956 46.8222121 41.5747651 218 222 230
17.4398437 44.5858338 41.5747651 218 222 230
17.9005913 42.2694993 41.5747651 218 222 230
18.0550548 39.9128417 41.5747651 218 222 230
18.0550548 39.9128417 0 218 222 230
2.35665755 57.813433 0 218 222 230
4.67299204 57.3526854 0 218 222 230
6.90937034 56.5935373 0 218 222 230
9.02752739 55.5489778 0 218 222 230
10.991221 54.2368797 0 218 222 230
12.7668517 52.6796934 0 218 222 230
14.324038 50.9040627 0 218 222 230
15.6361361 48.9403691 0 218 222 230
16.6806956 46.8222121 0 218 222 230
17.4398437 44.5858338 0 218 222 230
17.9005913 42.2694993 0 218 222 230
0 20.8577869 41.5747651 255 79 163
0 20.8577869 41.5747651 255 79 163
-1.11022302e-16 21.8425528 43.4905853 255 79 163
-1.08389932e-16 21.7558414 43.4808631 255 79 163
-1.03584493e-16 21.6728496 43.4537789 255 79 163
-9.87508195e-17 21.5954408 43.413233 255 79 163
-9.28453637e-17 21.5016798 43.3441938 255 79 163
-8.44118963e-17 21.3791575 43.2196708 255 79 163
-7.18069669e-17 21.2283007 43.0054288 255 79 163
-5.28995725e-17 21.0580426 42.65119 255 79 163
-3.14281839e-17 20.9307291 42.2276307 255 79 163
-1.36994184e-17 20.876503 41.9031787 255 79 163
0.0264671695 21.8425528 43.2669657 255 79 163
0.104405911 21.8425528 43.0557032 255 79 163
0.229509572 21.8425528 42.8684725 255 79 163
0.394864668 21.8425528 42.7156198 255 79 163
0.591333742 21.8425528 42.6055918 255 79 163
0.771031152 21.8425528 42.5510812 255 79 163
0.957910093 21.8425528 42.5326752 255 79 163
0.808713366 21.5846223 42.4994942 255 79 163
0.65474216 21.3462336 42.4027713 255 79 163
0.496041434 21.1429835 42.2498112 255 79 163
0.33323395 20.987918 42.0514585 255 79 163
0.167412685 20.8908322 41.8212972 255 79 163
0.0237121871 21.3780259 43.0372574 255 79 163
0.0830665505 21.3925429 42.8820431 255 79 163
0.169215947 21.4074762 42.7446005 255 79 163
0.279636632 21.4223715 42.6307597 255 79 163
0.413463474 21.4366513 42.543883 255 79 163
0.0174059643 21.0866665 42.6002619 255 79 163
0.56770124 21.4498613 42.4858583 255 79 163
0.0589453064 21.0957223 42.5049614 255 79 163
0.117097716 21.1061239 42.4199305 255 79 163
0.190600291 21.1170268 42.34957 255 79 163
0.280060244 21.1270904 42.2971796 255 79 163
0.384359652 21.1354702 42.2642199 255 79 163
0.0944441717 20.9567696 42.093312 255 79 163
0.0688904064 20.9110349 41.9572194 255 79 163
0.0470942406 20.8829083 41.8380417 255 79 163
0.0235958211 20.92028 42.0769549 255 79 163
0.0275777037 20.9420193 42.1568151 255 79 163
0.0171063792 20.8905111 41.9383256 255 79 163
0.0140510392 20.8791574 41.8681969 255 79 163
0.0105372213 20.9949996 42.3884097 255 79 163
0.00777551128 20.9362002 42.1920344 255 79 163
0.00718947101 20.9255444 42.1486797 255 79 163
0.00622126772 20.9090947 42.0741126 255 79 163
0.00446294452 20.882922 41.9234775 255 79 163
0.00406149816 20.8777951 41.8855624 255 79 163
0.00115929637 20.8796106 41.9140832 255 79 163
0.00110797223 20.8771751 41.8943991 255 79 163
-1.10555325e-15 57.9678965 41.5747651 255 79 163
-1.10555325e-15 57.9678965 41.5747651 255 79 163
-1.11022302e-16 56.9831307 43.4905853 255 79 163
-1.15238384e-16 57.0693432 43.4809647 255 79 163
-1.21555094e-16 57.1518903 43.4541922 255 79 163
-1.27221356e-16 57.2289338 43.414036 255 79 163
-1.34812529e-16 57.3223075 43.3456486 255 79 163
-1.46588212e-16 57.4444269 43.2221471 255 79 163
-1.64986931e-16 57.5949268 43.0095194 255 79 163
-1.93765276e-16 57.7650767 42.6577979 255 79 163
-2.26934936e-16 57.8928396 42.2370917 255 79 163
-2.52309317e-16 57.9486327 41.9079913 255 79 163
0.0264671695 56.9831307 43.2669657 255 79 163
0.104405911 56.9831307 43.0557032 255 79 163
0.229509572 56.9831307 42.8684725 255 79 163
0.394864668 56.9831307 42.7156198 255 79 163
0.591333742 56.9831307 42.6055918 255 79 163
0.771031152 56.9831307 42.5510812 255 79 163
0.957910093 56.9831307 42.5326752 255 79 163
0.808713365 57.2410611 42.4994942 255 79 163
0.654742212 57.4794494 42.4027717 255 79 163
0.496041434 57.6826999 42.2498112 255 79 163
0.333233948 57.8377654 42.0514584 255 79 163
0.167412593 57.9348512 41.8212967 255 79 163
0.0248120885 57.2415436 43.2038481 255 79 163
0.0908916031 57.2304251 43.018655 255 79 163
0.190983166 57.2193966 42.854408 255 79 163
0.0237121871 57.4476576 43.0372574 255 79 163
0.321274556 57.2085442 42.7180159 255 79 163
0.0830665505 57.4331406 42.8820431 255 79 163
0.478375294 57.1978987 42.6136362 255 79 163
0.169215947 57.4182073 42.7446005 255 79 163
0.656918358 57.1875461 42.5442608 255 79 163
0.279636632 57.4033119 42.6307597 255 79 163
0.413463474 57.3890321 42.543883 255 79 163
0.0174059643 57.7390169 42.6002619 255 79 163
0.56770124 57.3758222 42.4858583 255 79 163
0.0589453064 57.7299611 42.5049614 255 79 163
0.117097716 57.7195595 42.4199305 255 79 163
0.190600291 57.7086567 42.34957 255 79 163
0.280060244 57.6985931 42.2971796 255 79 163
0.384359652 57.6902133 42.2642199 255 79 163
0.0584604306 57.9044168 42.015137 255 79 163
0.0289371582 57.9073478 42.0558922 255 79 163
0.0961250932 57.9011125 41.9812989 255 79 163
0.141797005 57.8981666 41.9568707 255 79 163
0.194519197 57.8960046 41.943191 255 79 163
0.00908289387 57.9001539 42.141255 255 79 163
0.00835508239 57.9094798 42.1009118 255 79 163
0.0134628463 57.9307077 41.9733009 255 79 163
0.00641956741 57.9312681 41.9912619 255 79 163
0.00220734759 57.9134095 42.109673 255 79 163
0.00148040946 57.9406587 41.9520085 255 79 163
0.00320267497 57.9404783 41.9439808 255 79 163
0.000779229576 57.9447236 41.9268231 255 79 163
-1.11022302e-16 56.9831307 43.4905853 255 79 163
0.0264671695 56.9831307 43.2669657 255 79 163
0.104405911 56.9831307 43.0557032 255 79 163
0.229509572 56.9831307 42.8684725 255 79 163
0.394864668 56.9831307 42.7156198 255 79 163
0.591333742 56.9831307 42.6055918 255 79 163
0.771031152 56.9831307 42.5510812 255 79 163
0.957910093 56.9831307 42.5326752 255 79 163
0.957910093 21.8425528 42.5326752 255 79 163
-1.11022302e-16 21.8425528 43.4905853 255 79 163
0.0264671695 21.8425528 43.2669657 255 79 163
0.104405911 21.8425528 43.0557032 255 79 163
0.229509572 21.8425528 42.8684725 255 79 163
0.394864668 21.8425528 42.7156198 255 79 163
0.591333742 21.8425528 42.6055918 255 79 163
0.771031152 21.8425528 42.5510812 255 79 163
0.957910093 -2.22044605e-16 0 218 222 230
87.639472 0 -2.22044605e-16 218 222 230
0.957910093 -2.22044605e-16 89.4692827 218 222 230
87.639472 -2.22044605e-16 89.4692827 218 222 230
0.957910093 95.7660311 89.4692827 218 222 230
87.639472 95.7660311 89.4692827 218 222 230
87.639472 95.7660311 0.957910093 218 222 230
0.957910093 95.7660311 0.957910093 218 222 230
87.639472 0 -2.22044605e-16 255 79 163
87.808284 0.0149921506 0.0149921506 255 79 163
87.9718119 0.0594993212 0.0594993212 255 79 163
88.124937 0.132128358 0.132128358 255 79 163
88.2628661 0.230605841 0.230605841 255 79 163
88.3812819 0.35184925 0.35184925 255 79 163
88.4764777 0.492063449 0.492063449 255 79 163
88.5622519 0.700871388 0.700871388 255 79 163
88.5885589 0.828195963 0.828195963 255 79 163
88.5973821 0.957910093 0.957910093 255 79 163
88.5973821 0.957910093 89.4692827 255 79 163
87.639472 -2.22044605e-16 89.4692827 255 79 163
87.852627 0.024016806 89.4692827 255 79 163
88.0550936 0.0948629209 89.4692827 255 79 163
88.2367191 0.208985825 89.4692827 255 79 163
88.3883962 0.360662919 89.4692827 255 79 163
88.5025191 0.54228848 89.4692827 255 79 163
88.5733653 0.744755044 89.4692827 255 79 163
87.639472 95.7660311 89.4692827 255 79 163
87.852627 95.7420143 89.4692827 255 79 163
88.0550936 95.6711682 89.4692827 255 79 163
88.2367191 95.5570453 89.4692827 255 79 163
88.3883962 95.4053682 89.4692827 255 79 163
88.5025191 95.2237426 89.4692827 255 79 163
88.5733653 95.021276 89.4692827 255 79 163
88.5973821 94.808121 89.4692827 255 79 163
88.5973821 94.808121 0.957910093 255 79 163
88.5733653 95.021276 0.957910093 255 79 163
88.5025191 95.2237426 0.957910093 255 79 163
88.3883962 95.4053682 0.957910093 255 79 163
88.2367191 95.5570453 0.957910093 255 79 163
88.0550936 95.6711682 0.957910093 255 79 163
87.852627 95.7420143 0.957910093 255 79 163
87.639472 95.7660311 0.957910093 255 79 163
88.5973821 0.957910093 89.4692827 218 222 230
88.5973821 94.808121 89.4692827 218 222 230
88.5973821 0.957910093 0.957910093 218 222 230
88.5973821 94.808121 0.957910093 218 222 230
0.957910093 95.7660311 0.957910093 255 79 163
87.639472 95.7660311 0.957910093 255 79 163
87.639472 94.808121 0 255 79 163
87.639472 95.021276 0.024016806 255 79 163
87.639472 95.2237426 0.0948629209 255 79 163
87.639472 95.4053682 0.208985825 255 79 163
87.639472 95.5570453 0.360662919 255 79 163
87.639472 95.6711682 0.54228848 255 79 163
87.639472 95.7420143 0.744755044 255 79 163
0 94.808121 -2.22044605e-16 255 79 163
0.709984717 95.7333911 0.709984717 255 79 163
0.478955046 95.6376955 0.478955046 255 79 163
0.28056537 95.4854657 0.28056537 255 79 163
0.141157474 95.3086276 0.141157474 255 79 163
0.0610435018 95.1446058 0.0610435018 255 79 163
0.0167284032 94.986359 0.0167284032 255 79 163
0.00419127012 94.8976316 0.00419127012 255 79 163
87.639472 0 -2.22044605e-16 255 79 163
87.639472 94.808121 0 255 79 163
87.852627 94.808121 0.024016806 255 79 163
88.0550936 94.808121 0.0948629209 255 79 163
88.2367191 94.808121 0.208985825 255 79 163
88.3883962 94.808121 0.360662919 255 79 163
88.5025191 94.808121 0.54228848 255 79 163
88.5733653 94.808121 0.744755044 255 79 163
88.5973821 94.808121 0.957910093 255 79 163
88.5973821 0.957910093 0.957910093 255 79 163
87.808284 0.0149921506 0.0149921506 255 79 163
87.9718119 0.0594993212 0.0594993212 255 79 163
88.124937 0.132128358 0.132128358 255 79 163
88.2628661 0.230605841 0.230605841 255 79 163
88.3812819 0.35184925 0.35184925 255 79 163
88.4764777 0.492063449 0.492063449 255 79 163
88.5622519 0.700871388 0.700871388 255 79 163
88.5885589 0.828195963 0.828195963 255 79 163
18.0550548 39.9128417 0 218 222 230
18.0550548 39.9128417 41.5747651 218 222 230
18.0550548 38.9128417 41.5747651 218 222 230
18.0550548 38.9128417 0 218 222 230
11.5250469 68.2490882 0 218 222 230
11.5250469 68.2490882 21.7526495 218 222 230
10.2797916 63.953948 21.7526495 218 222 230
10.2797916 63.953948 0 218 222 230
5.2782187 70.0601806 0 218 222 230
5.2782187 70.0601806 21.7526495 218 222 230
11.5250469 68.2490882 21.7526495 218 222 230
11.5250469 68.2490882 0 218 222 230
10.2797916 63.953948 0 218 222 230
10.2797916 63.953948 21.7526495 218 222 230
4.03296342 65.7650404 21.7526495 218 222 230
4.03296342 65.7650404 0 218 222 230
4.03296342 65.7650404 0 218 222 230
4.03296342 65.7650404 21.7526495 218 222 230
5.2782187 70.0601806 21.7526495 218 222 230
5.2782187 70.0601806 0 218 222 230
43.4849801 28.4597428 0 218 222 230
41.3869329 26.194045 0 218 222 230
43.4849801 28.4597428 68.0040874 218 222 230
41.3869329 26.194045 68.0040874 218 222 230
43.4849801 28.4597428 0 218 222 230
43.6049388 28.6200958 0 218 222 230
43.6889368 28.8018855 0 218 222 230
43.7333031 28.9971669 0 218 222 230
43.7360985 29.1974051 0 218 222 230
43.697201 29.3938489 0 218 222 230
43.697201 29.3938489 68.0040874 218 222 230
43.4849801 28.4597428 68.0040874 218 222 230
43.6049388 28.6200958 68.0040874 218 222 230
43.6889368 28.8018855 68.0040874 218 222 230
43.7333031 28.9971669 68.0040874 218 222 230
43.7360985 29.1974051 68.0040874 218 222 230
41.3869329 26.194045 0 218 222 230
41.3869329 26.194045 68.0040874 218 222 230
37.8364511 27.0006841 68.0040874 218 222 230
37.8364511 27.0006841 0 218 222 230
42.7840728 32.3436599 0 218 222 230
43.697201 29.3938489 0 218 222 230
42.7840728 32.3436599 68.0040874 218 222 230
43.697201 29.3938489 68.0040874 218 222 230
37.8364511 27.0006841 0 218 222 230
37.8364511 27.0006841 68.0040874 218 222 230
36.7597801 30.4788111 68.0040874 218 222 230
36.7597801 30.4788111 0 218 222 230
39.7728973 33.0277732 0 218 222 230
42.7840728 32.3436599 0 218 222 230
39.7728973 33.0277732 68.0040874 218 222 230
42.7840728 32.3436599 68.0040874 218 222 230
36.7597801 30.4788111 0 218 222 230
38.8578274 32.7445089 0 218 222 230
36.7597801 30.4788111 68.0040874 218 222 230
38.8578274 32.7445089 68.0040874 218 222 230
39.7728973 33.0277732 0 218 222 230
39.5740482 33.0514839 0 218 222 230
39.3746147 33.0333335 0 218 222 230
39.183313 32.9741151 0 218 222 230
39.0085039 32.876417 0 218 222 230
38.8578274 32.7445089 0 218 222 230
38.8578274 32.7445089 68.0040874 218 222 230
39.7728973 33.0277732 68.0040874 218 222 230
39.5740482 33.0514839 68.0040874 218 222 230
39.3746147 33.0333335 68.0040874 218 222 230
39.183313 32.9741151 68.0040874 218 222 230
39.0085039 32.876417 68.0040874 218 222 230
17.0971447 38.9128417 42.5326752 255 79 163
16.9611161 36.760425 42.5326752 255 79 163
16.5551948 34.6422584 42.5326752 255 79 163
15.88584 32.5920472 42.5326752 255 79 163
14.9637029 30.6424153 42.5326752 255 79 163
13.8034567 28.824386 42.5326752 255 79 163
12.423564 27.1668886 42.5326752 255 79 163
10.8459821 25.6962979 42.5326752 255 79 163
9.09581415 24.4360147 42.5326752 255 79 163
7.20090967 23.406093 42.5326752 255 79 163
5.19142119 22.6229214 42.5326752 255 79 163
3.09932454 22.0989622 42.5326752 255 79 163
0.957910093 21.8425528 42.5326752 255 79 163
0.808713366 21.5846223 42.4994942 255 79 163
0.65474216 21.3462336 42.4027713 255 79 163
0.496041434 21.1429835 42.2498112 255 79 163
0.33323395 20.987918 42.0514585 255 79 163
0.167412685 20.8908322 41.8212972 255 79 163
0 20.8577869 41.5747651 255 79 163
18.0550548 38.9128417 41.5747651 255 79 163
17.9005913 36.5561842 41.5747651 255 79 163
17.4398437 34.2398497 41.5747651 255 79 163
16.6806956 32.0034714 41.5747651 255 79 163
15.6361361 29.8853143 41.5747651 255 79 163
14.324038 27.9216208 41.5747651 255 79 163
12.7668517 26.1459901 41.5747651 255 79 163
10.991221 24.5888037 41.5747651 255 79 163
9.02752739 23.2767056 41.5747651 255 79 163
6.90937034 22.2321461 41.5747651 255 79 163
4.67299204 21.472998 41.5747651 255 79 163
2.35665755 21.0122504 41.5747651 255 79 163
18.031038 38.9128417 41.7879202 255 79 163
17.9601919 38.9128417 41.9903867 255 79 163
17.846069 38.9128417 42.1720123 255 79 163
17.6943919 38.9128417 42.3236894 255 79 163
17.5127663 38.9128417 42.4378123 255 79 163
17.3102997 38.9128417 42.5086584 255 79 163
0.503136214 20.8888248 41.7879202 255 79 163
0.501159332 20.9596434 41.9903867 255 79 163
0.497974858 21.0737218 42.1720123 255 79 163
1.01023379 20.9101264 41.7879202 255 79 163
1.00626446 20.9808613 41.9903867 255 79 163
0.999870439 21.0948049 42.1720123 255 79 163
0.991372352 21.2462437 42.3236894 255 79 163
0.981196328 21.427584 42.4378123 255 79 163
0.971913372 21.5930095 42.4994942 255 79 163
2.35352273 21.0360618 41.7879202 255 79 163
2.34427546 21.1063018 41.9903867 255 79 163
2.32937943 21.2194484 42.1720123 255 79 163
2.30958159 21.3698278 42.3236894 255 79 163
2.2858747 21.5498996 42.4378123 255 79 163
3.26861821 21.1805417 41.7879202 255 79 163
2.26424837 21.7141678 42.4994942 255 79 163
3.25577542 21.250214 41.9903867 255 79 163
3.23508752 21.3624461 42.1720123 255 79 163
3.20759191 21.5116102 42.3236894 255 79 163
3.17466731 21.6902266 42.4378123 255 79 163
3.14463224 21.8531673 42.4994942 255 79 163
4.66677603 21.4961965 41.7879202 255 79 163
4.64843971 21.5646286 41.9903867 255 79 163
4.61890253 21.6748628 42.1720123 255 79 163
4.57964561 21.8213716 42.3236894 255 79 163
5.47499096 21.733121 41.7879202 255 79 163
4.53263745 21.9968085 42.4378123 255 79 163
4.48975482 22.1568486 42.4994942 255 79 163
5.45347906 21.8006222 41.9903867 255 79 163
5.41882649 21.9093569 42.1720123 255 79 163
5.37277086 22.0538727 42.3236894 255 79 163
5.31762161 22.226923 42.4378123 255 79 163
5.26731236 22.3847861 42.4994942 255 79 163
6.9001795 22.2543348 41.7879202 255 79 163
6.87306787 22.3197881 41.9903867 255 79 163
6.82939492 22.4252239 42.1720123 255 79 163
6.77135061 22.5653552 42.3236894 255 79 163
7.59424326 22.5590715 41.7879202 255 79 163
6.70184552 22.7331554 42.4378123 255 79 163
7.56440456 22.6233274 41.9903867 255 79 163
6.63844033 22.886229 42.4994942 255 79 163
7.51633872 22.7268345 42.1720123 255 79 163
7.45245594 22.8644024 42.3236894 255 79 163
7.37595959 23.029133 42.4378123 255 79 163
7.3061767 23.1794064 42.4994942 255 79 163
9.01551899 23.2975048 41.7879202 255 79 163
8.98009593 23.3588593 41.9903867 255 79 163
8.92303448 23.4576926 42.1720123 255 79 163
8.84719593 23.5890489 42.3236894 255 79 163
9.59265265 23.6452504 41.7879202 255 79 163
8.75638315 23.7463412 42.4378123 255 79 163
9.55496197 23.7052386 41.9903867 255 79 163
8.67354028 23.8898293 42.4994942 255 79 163
9.49424769 23.8018709 42.1720123 255 79 163
9.4135543 23.9303019 42.3236894 255 79 163
9.31692808 24.0840914 42.4378123 255 79 163
9.22878197 24.2243841 42.4994942 255 79 163
10.9766004 24.6078575 41.7879202 255 79 163
10.9334721 24.6640635 41.9903867 255 79 163
10.8639984 24.7546033 42.1720123 255 79 163
11.4384196 24.9743738 41.7879202 255 79 163
10.7716633 24.8749368 42.3236894 255 79 163
11.3934766 25.0291397 41.9903867 255 79 163
10.6610966 25.0190301 42.4378123 255 79 163
11.3210801 25.1173597 42.1720123 255 79 163
10.5602335 25.1504774 42.4994942 255 79 163
11.2248601 25.2346101 42.3236894 255 79 163
11.1096416 25.3750115 42.4378123 255 79 163
11.0045348 25.5030909 42.4994942 255 79 163
12.7498692 26.1629725 41.7879202 255 79 163
12.6997735 26.2130683 41.9903867 255 79 163
12.6190764 26.2937653 42.1720123 255 79 163
13.1021734 26.5252922 41.7879202 255 79 163
12.5118245 26.4010172 42.3236894 255 79 163
13.0506934 26.5739644 41.9903867 255 79 163
12.3833958 26.5294459 42.4378123 255 79 163
12.9677665 26.6523682 42.1720123 255 79 163
12.2662383 26.6466034 42.4994942 255 79 163
12.857551 26.7565723 42.3236894 255 79 163
12.7255736 26.8813513 42.4378123 255 79 163
12.6051788 26.9951795 42.4994942 255 79 163
14.3049842 27.9362413 41.7879202 255 79 163
14.2487782 27.9793697 41.9903867 255 79 163
14.1582384 28.0488433 42.1720123 255 79 163
14.0379049 28.1411784 42.3236894 255 79 163
13.8938116 28.2517451 42.4378123 255 79 163
13.7623643 28.3526082 42.4994942 255 79 163
15.6153369 29.8973227 41.7879202 255 79 163
15.5539824 29.9327458 41.9903867 255 79 163
15.4551491 29.9898072 42.1720123 255 79 163
15.3237929 30.0656458 42.3236894 255 79 163
15.1665005 30.1564586 42.4378123 255 79 163
15.0230124 30.2393014 42.4994942 255 79 163
16.6585069 32.0126622 41.7879202 255 79 163
16.5930537 32.0397739 41.9903867 255 79 163
16.4876178 32.0834468 42.1720123 255 79 163
16.3474865 32.1414911 42.3236894 255 79 163
16.1796863 32.2109962 42.4378123 255 79 163
16.0266127 32.2744014 42.4994942 255 79 163
17.4166453 34.2460657 41.7879202 255 79 163
17.3482132 34.264402 41.9903867 255 79 163
17.2379789 34.2939392 42.1720123 255 79 163
17.0914701 34.3331961 42.3236894 255 79 163
16.9160333 34.3802043 42.4378123 255 79 163
16.7559931 34.4230869 42.4994942 255 79 163
17.8767799 36.559319 41.7879202 255 79 163
17.8065399 36.5685663 41.9903867 255 79 163
17.6933934 36.5834623 42.1720123 255 79 163
17.5430139 36.6032601 42.3236894 255 79 163
17.3629422 36.626967 42.4378123 255 79 163
17.1986739 36.6485934 42.4994942 255 79 163
0.957910093 56.9831307 42.5326752 255 79 163
3.09932454 56.7267212 42.5326752 255 79 163
5.19142119 56.202762 42.5326752 255 79 163
7.20090967 55.4195905 42.5326752 255 79 163
9.09581415 54.3896688 42.5326752 255 79 163
10.8459821 53.1293855 42.5326752 255 79 163
12.423564 51.6587948 42.5326752 255 79 163
13.8034567 50.0012974 42.5326752 255 79 163
14.9637029 48.1832681 42.5326752 255 79 163
15.88584 46.2336362 42.5326752 255 79 163
16.5551948 44.183425 42.5326752 255 79 163
16.9611161 42.0652585 42.5326752 255 79 163
17.0971447 39.9128417 42.5326752 255 79 163
18.0550548 39.9128417 41.5747651 255 79 163
18.031038 39.9128417 41.7879202 255 79 163
17.9601919 39.9128417 41.9903867 255 79 163
17.846069 39.9128417 42.1720123 255 79 163
17.6943919 39.9128417 42.3236894 255 79 163
17.5127663 39.9128417 42.4378123 255 79 163
17.3102997 39.9128417 42.5086584 255 79 163
-1.10555325e-15 57.9678965 41.5747651 255 79 163
2.35665755 57.813433 41.5747651 255 79 163
4.67299204 57.3526854 41.5747651 255 79 163
6.90937034 56.5935373 41.5747651 255 79 163
9.02752739 55.5489778 41.5747651 255 79 163
10.991221 54.2368797 41.5747651 255 79 163
12.7668517 52.6796934 41.5747651 255 79 163
14.324038 50.9040627 41.5747651 255 79 163
15.6361361 48.9403691 41.5747651 255 79 163
16.6806956 46.8222121 41.5747651 255 79 163
17.4398437 44.5858338 41.5747651 255 79 163
17.9005913 42.2694993 41.5747651 255 79 163
0.808713365 57.2410611 42.4994942 255 79 163
0.654742212 57.4794494 42.4027717 255 79 163
0.496041434 57.6826999 42.2498112 255 79 163
0.333233948 57.8377654 42.0514584 255 79 163
0.167412593 57.9348512 41.8212967 255 79 163
17.8875791 42.1828294 41.7879202 255 79 163
17.8172967 42.1739104 41.9903867 255 79 163
17.7040817 42.1595431 42.1720123 255 79 163
17.5536114 42.1404479 42.3236894 255 79 163
17.3734309 42.1175825 42.4378123 255 79 163
17.2090634 42.0967237 42.4994942 255 79 163
17.4594853 44.4166961 41.7879202 255 79 163
17.3908849 44.3989999 41.9903867 255 79 163
17.2803795 44.3704939 42.1720123 255 79 163
17.1335103 44.3326075 42.3236894 255 79 163
16.9576419 44.2872404 42.4378123 255 79 163
16.7972081 44.2458549 42.4994942 255 79 163
16.7535685 46.5788955 41.7879202 255 79 163
16.6877417 46.5527037 41.9903867 255 79 163
16.5817043 46.5105126 42.1720123 255 79 163
16.4407732 46.4544378 42.3236894 255 79 163
16.2720155 46.387291 42.4378123 255 79 163
16.1180684 46.3260372 42.4994942 255 79 163
15.719056 48.6007512 41.9903867 255 79 163
15.6191737 48.5455463 42.1720123 255 79 163
15.4864234 48.4721754 42.3236894 255 79 163
15.3274618 48.3843174 42.4378123 255 79 163
15.1824509 48.30417 42.4994942 255 79 163
14.5002418 50.5105528 41.9903867 255 79 163
14.4081041 50.4432127 42.1720123 255 79 163
14.2856469 50.3537131 42.3236894 255 79 163
14.1390107 50.2465419 42.4378123 255 79 163
14.0052436 50.1487763 42.4994942 255 79 163
13.0506934 52.2517191 41.9903867 255 79 163
12.9677665 52.1733152 42.1720123 255 79 163
12.7498692 52.6627109 41.7879202 255 79 163
12.857551 52.0691111 42.3236894 255 79 163
12.6997735 52.6126152 41.9903867 255 79 163
12.7255736 51.9443321 42.4378123 255 79 163
12.6190764 52.5319181 42.1720123 255 79 163
12.6051788 51.8305039 42.4994942 255 79 163
12.5118245 52.4246662 42.3236894 255 79 163
12.3833958 52.2962375 42.4378123 255 79 163
12.2662383 52.17908 42.4994942 255 79 163
11.4384196 53.8513097 41.7879202 255 79 163
11.3934766 53.7965437 41.9903867 255 79 163
11.3210801 53.7083237 42.1720123 255 79 163
10.9766004 54.2178259 41.7879202 255 79 163
11.2248601 53.5910733 42.3236894 255 79 163
10.9334721 54.1616199 41.9903867 255 79 163
11.1096416 53.450672 42.4378123 255 79 163
10.8639984 54.0710801 42.1720123 255 79 163
11.0045349 53.3225925 42.4994942 255 79 163
10.7716633 53.9507466 42.3236894 255 79 163
10.6610966 53.8066534 42.4378123 255 79 163
10.5602336 53.675206 42.4994942 255 79 163
9.59265265 55.1804331 41.7879202 255 79 163
9.55496197 55.1204449 41.9903867 255 79 163
9.49424769 55.0238125 42.1720123 255 79 163
9.4135543 54.8953815 42.3236894 255 79 163
9.01551899 55.5281787 41.7879202 255 79 163
9.31692808 54.741592 42.4378123 255 79 163
8.98009593 55.4668241 41.9903867 255 79 163
9.22878198 54.6012993 42.4994942 255 79 163
8.92303448 55.3679908 42.1720123 255 79 163
8.84719593 55.2366346 42.3236894 255 79 163
8.75638315 55.0793422 42.4378123 255 79 163
8.67354028 54.9358542 42.4994942 255 79 163
7.59424326 56.2666119 41.7879202 255 79 163
7.56440456 56.202356 41.9903867 255 79 163
7.51633872 56.0988489 42.1720123 255 79 163
7.45245594 55.961281 42.3236894 255 79 163
6.9001795 56.5713487 41.7879202 255 79 163
7.37595959 55.7965505 42.4378123 255 79 163
6.87306787 56.5058954 41.9903867 255 79 163
7.3061767 55.646277 42.4994942 255 79 163
6.82939492 56.4004596 42.1720123 255 79 163
6.77135061 56.2603282 42.3236894 255 79 163
6.70184552 56.0925281 42.4378123 255 79 163
6.63844033 55.9394544 42.4994942 255 79 163
5.47499096 57.0925625 41.7879202 255 79 163
5.45347906 57.0250613 41.9903867 255 79 163
5.41882649 56.9163266 42.1720123 255 79 163
5.37277086 56.7718108 42.3236894 255 79 163
4.66677603 57.329487 41.7879202 255 79 163
5.31762161 56.5987605 42.4378123 255 79 163
5.26731236 56.4408974 42.4994942 255 79 163
4.64843971 57.2610549 41.9903867 255 79 163
4.61890253 57.1508206 42.1720123 255 79 163
4.57964561 57.0043118 42.3236894 255 79 163
4.53263745 56.828875 42.4378123 255 79 163
4.48975483 56.6688348 42.4994942 255 79 163
3.26861821 57.6451418 41.7879202 255 79 163
3.25577542 57.5754694 41.9903867 255 79 163
3.23508752 57.4632373 42.1720123 255 79 163
3.20759191 57.3140732 42.3236894 255 79 163
3.17466731 57.1354568 42.4378123 255 79 163
2.35352273 57.7896217 41.7879202 255 79 163
3.14463225 56.9725162 42.4994942 255 79 163
2.34427546 57.7193817 41.9903867 255 79 163
2.32937943 57.6062351 42.1720123 255 79 163
2.30958159 57.4558556 42.3236894 255 79 163
2.2858747 57.2757839 42.4378123 255 79 163
2.26424837 57.1115156 42.4994942 255 79 163
1.01023379 57.915557 41.7879202 255 79 163
1.00626446 57.8448222 41.9903867 255 79 163
0.999870439 57.7308786 42.1720123 255 79 163
0.503136214 57.9368586 41.7879202 255 79 163
0.991372352 57.5794397 42.3236894 255 79 163
0.501159332 57.8660401 41.9903867 255 79 163
0.981196328 57.3980994 42.4378123 255 79 163
0.497974858 57.7519616 42.1720123 255 79 163
0.971913372 57.232674 42.4994942 255 79 163
0.957910093 21.8425528 42.5326752 218 222 230
0.957910093 56.9831307 42.5326752 218 222 230
3.09932454 56.7267212 42.5326752 218 222 230
5.19142119 56.202762 42.5326752 218 222 230
7.20090967 55.4195905 42.5326752 218 222 230
9.09581415 54.3896688 42.5326752 218 222 230
10.8459821 53.1293855 42.5326752 218 222 230
12.423564 51.6587948 42.5326752 218 222 230
13.8034567 50.0012974 42.5326752 218 222 230
14.9637029 48.1832681 42.5326752 218 222 230
15.88584 46.2336362 42.5326752 218 222 230
16.5551948 44.183425 42.5326752 218 222 230
16.9611161 42.0652585 42.5326752 218 222 230
17.0971447 39.9128417 42.5326752 218 222 230
17.0971447 38.9128417 42.5326752 218 222 230
16.9611161 36.760425 42.5326752 218 222 230
16.5551948 34.6422584 42.5326752 218 222 230
15.88584 32.5920472 42.5326752 218 222 230
14.9637029 30.6424153 42.5326752 218 222 230
13.8034567 28.824386 42.5326752 218 222 230
12.423564 27.1668886 42.5326752 218 222 230
10.8459821 25.6962979 42.5326752 218 222 230
9.09581415 24.4360147 42.5326752 218 222 230
7.20090967 23.406093 42.5326752 218 222 230
5.19142119 22.6229214 42.5326752 218 222 230
3.09932454 22.0989622 42.5326752 218 222 230
87.639472 94.808121 0 255 79 163
87.852627 94.808121 0.024016806 255 79 163
88.0550936 94.808121 0.0948629209 255 79 163
88.2367191 94.808121 0.208985825 255 79 163
88.3883962 94.808121 0.360662919 255 79 163
88.5025191 94.808121 0.54228848 255 79 163
88.5733653 94.808121 0.744755044 255 79 163
88.5973821 94.808121 0.957910093 255 79 163
87.639472 94.808121 0 255 79 163
87.639472 95.021276 0.024016806 255 79 163
87.639472 95.2237426 0.0948629209 255 79 163
87.639472 95.4053682 0.208985825 255 79 163
87.639472 95.5570453 0.360662919 255 79 163
87.639472 95.6711682 0.54228848 255 79 163
87.639472 95.7420143 0.744755044 255 79 163
87.639472 95.7660311 0.957910093 255 79 163
88.5733653 95.021276 0.957910093 255 79 163
88.5025191 95.2237426 0.957910093 255 79 163
88.3883962 95.4053682 0.957910093 255 79 163
88.2367191 95.5570453 0.957910093 255 79 163
88.0550936 95.6711682 0.957910093 255 79 163
87.852627 95.7420143 0.957910093 255 79 163
87.9318381 94.8544272 0.046883457 255 79 163
87.9032193 94.9425069 0.046883457 255 79 163
87.848783 95.017432 0.046883457 255 79 163
88.17496 94.9821116 0.182944549 255 79 163
87.7738579 95.0718683 0.046883457 255 79 163
88.0949853 95.1390708 0.182944549 255 79 163
88.4048964 94.9293523 0.394864667 255 79 163
87.6857782 95.1004871 0.046883457 255 79 163
87.9704218 95.2636343 0.182944549 255 79 163
88.3299713 95.159948 0.394864667 255 79 163
87.8134626 95.343609 0.182944549 255 79 163
88.1874554 95.3561044 0.394864667 255 79 163
88.5059098 95.0896437 0.661899595 255 79 163
87.991299 95.4986203 0.394864667 255 79 163
88.376508 95.343609 0.661899595 255 79 163
87.7607033 95.5735454 0.394864667 255 79 163
88.17496 95.545157 0.661899595 255 79 163
87.9209947 95.6745588 0.661899595 255 79 163
18.0550548 39.9128417 41.5747651 255 79 163
18.031038 39.9128417 41.7879202 255 79 163
17.9601919 39.9128417 41.9903867 255 79 163
17.846069 39.9128417 42.1720123 255 79 163
17.6943919 39.9128417 42.3236894 255 79 163
17.5127663 39.9128417 42.4378123 255 79 163
17.3102997 39.9128417 42.5086584 255 79 163
17.0971447 39.9128417 42.5326752 255 79 163
17.0971447 38.9128417 42.5326752 255 79 163
18.0550548 38.9128417 41.5747651 255 79 163
18.031038 38.9128417 41.7879202 255 79 163
17.9601919 38.9128417 41.9903867 255 79 163
17.846069 38.9128417 42.1720123 255 79 163
17.6943919 38.9128417 42.3236894 255 79 163
17.5127663 38.9128417 42.4378123 255 79 163
17.3102997 38.9128417 42.5086584 255 79 163
10.2797916 63.953948 21.7526495 218 222 230
4.03296342 65.7650404 21.7526495 218 222 230
5.2782187 70.0601806 21.7526495 218 222 230
11.5250469 68.2490882 21.7526495 218 222 230
36.7597801 30.4788111 68.0040874 218 222 230
38.8578274 32.7445089 68.0040874 218 222 230
39.7728973 33.0277732 68.0040874 218 222 230
39.5740482 33.0514839 68.0040874 218 222 230
39.3746147 33.0333335 68.0040874 218 222 230
39.183313 32.9741151 68.0040874 218 222 230
39.0085039 32.876417 68.0040874 218 222 230
42.7840728 32.3436599 68.0040874 218 222 230
43.697201 29.3938489 68.0040874 218 222 230
43.4849801 28.4597428 68.0040874 218 222 230
43.6049388 28.6200958 68.0040874 218 222 230
43.6889368 28.8018855 68.0040874 218 222 230
43.7333031 28.9971669 68.0040874 218 222 230
43.7360985 29.1974051 68.0040874 218 222 230
41.3869329 26.194045 68.0040874 218 222 230
37.8364511 27.0006841 68.0040874 218 222 230
3 25 27 26
3 24 27 25
3 1 16 15
3 1 17 16
3 1 18 17
3 1 19 18
3 1 20 19
3 1 21 20
3 1 22 21
3 1 23 22
3 1 24 23
3 1 27 24
3 4 3 2
3 0 5 6
3 0 6 7
3 0 7 8
3 0 8 9
3 0 9 10
3 0 10 11
3 0 11 12
3 0 12 13
3 0 13 14
3 0 15 5
3 0 1 15
3 0 4 2
3 0 14 4
3 28 30 31
3 28 31 32
3 28 32 33
3 28 33 34
3 28 34 35
3 28 35 36
3 39 37 38
3 40 37 39
3 44 36 37
3 44 40 41
3 44 41 42
3 44 42 43
3 44 28 36
3 44 37 40
3 55 54 29
3 59 57 56
3 59 58 57
3 53 56 55
3 53 55 29
3 53 59 56
3 45 29 28
3 45 28 44
3 46 29 45
3 46 53 29
3 47 46 45
3 51 45 52
3 50 48 47
3 50 49 48
3 50 47 45
3 50 45 51
3 71 60 61
3 71 70 60
3 72 61 62
3 72 71 61
3 73 62 63
3 73 72 62
3 74 63 64
3 74 73 63
3 75 64 65
3 75 74 64
3 76 65 66
3 76 66 67
3 76 75 65
3 69 67 68
3 69 76 67
3 84 85 86
3 84 86 87
3 83 87 88
3 83 84 87
3 82 88 89
3 82 83 88
3 81 89 90
3 81 82 89
3 80 90 91
3 80 81 90
3 79 91 92
3 79 92 93
3 79 80 91
3 78 93 77
3 78 79 93
3 102 103 110
3 101 109 108
3 101 110 109
3 101 102 110
3 100 108 107
3 100 101 108
3 99 107 106
3 99 100 107
3 98 106 105
3 98 99 106
3 97 105 104
3 97 98 105
3 96 104 94
3 96 97 104
3 95 96 94
3 139 111 140
3 138 111 139
3 137 111 138
3 136 111 137
3 135 111 136
3 147 133 132
3 147 134 133
3 147 135 134
3 147 111 135
3 148 129 128
3 148 130 129
3 148 131 130
3 148 132 131
3 148 147 132
3 146 111 147
3 143 116 115
3 143 117 116
3 149 127 126
3 149 128 127
3 149 148 128
3 154 149 126
3 153 154 126
3 153 126 125
3 152 153 125
3 152 125 124
3 151 124 123
3 151 152 124
3 150 151 123
3 142 117 143
3 142 118 117
3 142 119 118
3 142 120 119
3 142 121 120
3 142 122 121
3 141 123 122
3 141 150 123
3 141 155 150
3 141 122 142
3 112 146 145
3 112 156 155
3 112 145 157
3 112 157 158
3 112 158 159
3 112 159 160
3 112 160 156
3 112 111 146
3 114 144 143
3 114 141 144
3 114 143 115
3 113 112 155
3 113 141 114
3 113 155 141
3 183 162 161
3 183 163 162
3 184 164 163
3 184 163 183
3 185 165 164
3 185 164 184
3 186 166 165
3 186 165 185
3 187 167 166
3 187 166 186
3 188 168 167
3 188 167 187
3 189 169 168
3 189 168 188
3 190 170 169
3 190 169 189
3 191 171 170
3 191 170 190
3 192 172 171
3 192 171 191
3 193 173 172
3 193 172 192
3 182 174 173
3 182 173 193
3 181 174 182
3 180 174 181
3 179 174 180
3 175 177 176
3 175 178 177
3 175 179 178
3 175 174 179
3 209 195 194
3 209 196 195
3 210 197 196
3 210 196 209
3 211 198 197
3 211 197 210
3 212 199 198
3 212 198 211
3 213 200 199
3 213 199 212
3 214 201 200
3 214 200 213
3 215 202 201
3 215 201 214
3 216 203 202
3 216 202 215
3 217 204 203
3 217 203 216
3 218 205 204
3 218 204 217
3 219 206 205
3 219 205 218
3 208 207 206
3 208 206 219
3 232 223 222
3 224 223 232
3 233 225 224
3 233 224 232
3 239 236 237
3 239 237 238
3 244 227 226
3 244 228 227
3 245 226 225
3 245 244 226
3 245 225 233
3 245 228 244
3 246 233 234
3 246 245 233
3 247 234 235
3 247 246 234
3 248 235 236
3 248 236 239
3 248 247 235
3 249 229 228
3 250 239 240
3 250 240 248
3 250 248 239
3 251 228 245
3 251 249 228
3 252 251 245
3 252 245 246
3 253 246 247
3 253 252 246
3 254 247 248
3 254 253 247
3 254 248 240
3 255 240 241
3 255 241 242
3 255 254 240
3 255 242 254
3 256 252 253
3 256 254 242
3 256 253 254
3 257 242 243
3 257 256 242
3 258 220 221
3 258 243 220
3 258 257 243
3 259 256 257
3 259 260 256
3 261 257 258
3 261 259 257
3 262 258 221
3 262 261 258
3 263 230 229
3 263 229 249
3 263 252 256
3 263 251 252
3 263 249 251
3 263 256 260
3 264 263 260
3 264 230 263
3 265 264 260
3 265 230 264
3 265 260 259
3 266 265 259
3 266 231 230
3 266 230 265
3 266 259 261
3 267 261 262
3 267 266 261
3 268 267 262
3 268 262 221
3 269 231 266
3 269 266 267
3 269 267 268
3 270 221 231
3 270 231 269
3 270 269 268
3 270 268 221
3 283 273 274
3 275 283 274
3 295 275 276
3 295 276 277
3 295 283 275
3 296 284 283
3 296 283 295
3 297 285 284
3 297 284 296
3 298 277 278
3 298 278 279
3 298 295 277
3 299 286 285
3 299 285 297
3 300 298 279
3 300 295 298
3 300 296 295
3 301 287 286
3 301 286 299
3 302 296 300
3 302 297 296
3 303 288 287
3 303 289 288
3 303 290 289
3 303 287 301
3 304 299 297
3 304 297 302
3 305 299 304
3 305 301 299
3 306 279 280
3 307 291 290
3 307 303 301
3 307 290 303
3 307 305 291
3 307 301 305
3 308 279 306
3 308 300 279
3 309 302 300
3 309 300 308
3 310 304 302
3 310 302 309
3 311 305 304
3 311 291 305
3 311 304 310
3 312 292 291
3 312 293 292
3 312 311 293
3 312 291 311
3 313 308 314
3 313 309 308
3 315 309 313
3 315 271 294
3 315 310 309
3 316 315 294
3 316 310 315
3 316 293 311
3 316 311 310
3 317 293 316
3 317 294 293
3 317 316 294
3 318 314 308
3 318 280 281
3 318 308 306
3 318 306 280
3 318 319 314
3 320 272 271
3 320 313 314
3 320 315 313
3 320 319 321
3 320 314 319
3 320 271 315
3 322 281 282
3 322 319 318
3 322 321 319
3 322 318 281
3 323 322 282
3 323 321 322
3 324 320 321
3 324 321 323
3 324 272 320
3 325 282 272
3 325 323 282
3 325 272 324
3 325 324 323
3 332 333 334
3 332 334 341
3 331 341 340
3 331 332 341
3 330 339 338
3 330 340 339
3 330 331 340
3 329 330 338
3 328 338 337
3 328 329 338
3 327 337 336
3 327 328 337
3 326 336 335
3 326 327 336
3 344 342 343
3 345 344 343
3 347 348 349
3 347 349 346
3 361 350 351
3 362 351 352
3 362 361 351
3 363 352 353
3 363 362 352
3 364 353 354
3 364 363 353
3 365 354 355
3 365 355 356
3 365 364 354
3 366 356 357
3 366 365 356
3 367 357 358
3 367 366 357
3 360 358 359
3 360 367 358
3 375 376 377
3 374 377 378
3 374 375 377
3 373 378 379
3 373 374 378
3 372 379 380
3 372 373 379
3 371 380 381
3 371 372 380
3 370 381 382
3 370 371 381
3 369 382 383
3 369 370 382
3 368 369 383
3 386 387 385
3 384 386 385
3 390 397 404
3 391 403 402
3 391 404 403
3 391 390 404
3 392 402 401
3 392 391 402
3 393 401 400
3 393 392 401
3 394 400 399
3 394 393 400
3 395 399 398
3 395 394 399
3 396 398 388
3 396 395 398
3 389 396 388
3 413 414 422
3 412 422 421
3 412 413 422
3 411 421 420
3 411 412 421
3 410 419 418
3 410 420 419
3 410 411 420
3 409 418 417
3 409 410 418
3 408 417 416
3 408 409 417
3 407 416 415
3 407 408 416
3 406 415 405
3 406 407 415
3 426 424 423
3 426 425 424
3 430 428 427
3 430 429 428
3 431 433 432
3 434 433 431
3 438 436 435
3 438 437 436
3 442 440 439
3 442 441 440
3 444 445 443
3 444 446 445
3 455 448 447
3 455 447 454
3 456 449 448
3 456 448 455
3 457 450 449
3 457 449 456
3 458 451 450
3 458 450 457
3 453 452 451
3 453 451 458
3 462 460 459
3 462 461 460
3 464 465 463
3 464 466 465
3 470 468 467
3 470 469 468
3 471 474 473
3 472 474 471
3 476 477 475
3 476 478 477
3 487 480 479
3 487 479 486
3 488 481 480
3 488 480 487
3 489 482 481
3 489 483 482
3 489 481 488
3 490 483 489
3 485 484 483
3 485 483 490
3 527 526 492
3 491 527 492
3 528 508 507
3 528 509 508
3 529 528 507
3 530 507 506
3 530 529 507
3 531 521 509
3 531 509 528
3 532 528 529
3 532 531 528
3 533 532 529
3 533 529 530
3 533 530 506
3 534 506 505
3 534 533 506
3 535 505 504
3 535 534 505
3 536 504 503
3 536 535 504
3 537 521 531
3 538 531 532
3 538 537 531
3 539 532 533
3 539 538 532
3 540 539 533
3 540 533 534
3 541 540 534
3 541 534 535
3 542 520 521
3 542 521 537
3 543 503 502
3 543 536 503
3 543 541 535
3 543 535 536
3 544 538 539
3 544 542 537
3 544 537 538
3 545 544 539
3 546 539 540
3 546 545 539
3 547 546 540
3 547 540 541
3 548 541 543
3 548 547 541
3 548 543 502
3 549 520 542
3 550 549 542
3 550 542 544
3 551 544 545
3 551 550 544
3 552 551 545
3 552 545 546
3 553 520 549
3 553 519 520
3 554 546 547
3 554 552 546
3 555 502 501
3 555 547 548
3 555 548 502
3 555 554 547
3 556 549 550
3 556 553 549
3 557 556 550
3 557 550 551
3 558 551 552
3 558 552 554
3 558 557 551
3 559 558 554
3 560 555 501
3 560 554 555
3 560 559 554
3 561 519 553
3 561 553 556
3 562 561 556
3 563 556 557
3 563 562 556
3 564 557 558
3 564 563 557
3 565 518 519
3 565 519 561
3 566 558 559
3 566 564 558
3 567 561 562
3 567 565 561
3 568 501 500
3 568 560 501
3 568 559 560
3 568 566 559
3 569 567 562
3 569 562 563
3 570 564 566
3 570 563 564
3 570 569 563
3 571 570 566
3 572 568 500
3 572 566 568
3 572 571 566
3 573 518 565
3 574 573 565
3 574 565 567
3 574 567 569
3 575 574 569
3 576 575 569
3 576 569 570
3 577 517 518
3 577 518 573
3 578 576 570
3 578 570 571
3 579 573 574
3 579 577 573
3 580 571 572
3 580 500 499
3 580 578 571
3 580 572 500
3 581 574 575
3 581 579 574
3 582 575 576
3 582 581 575
3 583 576 578
3 583 582 576
3 584 583 578
3 584 580 499
3 584 578 580
3 585 517 577
3 585 577 579
3 586 585 579
3 587 579 581
3 587 581 582
3 587 586 579
3 588 516 517
3 588 517 585
3 589 587 582
3 590 585 586
3 590 588 585
3 591 583 584
3 591 582 583
3 591 589 582
3 592 586 587
3 592 590 586
3 592 587 589
3 593 499 498
3 593 584 499
3 593 591 584
3 594 592 589
3 595 589 591
3 595 594 589
3 596 595 591
3 596 593 498
3 596 591 593
3 597 516 588
3 598 588 590
3 598 597 588
3 599 590 592
3 599 598 590
3 600 515 516
3 600 516 597
3 601 592 594
3 601 599 592
3 602 600 597
3 602 597 598
3 603 594 595
3 603 601 594
3 604 598 599
3 604 602 598
3 605 498 497
3 605 596 498
3 605 595 596
3 605 603 595
3 606 604 599
3 606 599 601
3 606 601 603
3 607 606 603
3 608 603 605
3 608 605 497
3 608 607 603
3 609 515 600
3 610 609 600
3 610 600 602
3 611 610 602
3 611 602 604
3 612 604 606
3 612 611 604
3 612 496 611
3 612 606 607
3 613 496 612
3 613 612 607
3 614 497 496
3 614 608 497
3 614 607 608
3 614 496 613
3 614 613 607
3 615 609 610
3 615 513 514
3 615 514 515
3 615 515 609
3 616 615 610
3 617 611 496
3 617 610 611
3 617 616 610
3 618 617 496
3 618 495 617
3 619 495 618
3 619 618 496
3 620 496 495
3 620 495 619
3 620 619 496
3 621 512 513
3 621 513 615
3 622 615 616
3 622 616 617
3 622 621 615
3 623 622 617
3 623 617 495
3 624 623 495
3 625 494 624
3 625 624 495
3 626 495 494
3 626 494 625
3 626 625 495
3 627 512 621
3 628 621 622
3 628 627 621
3 629 622 623
3 629 628 622
3 630 624 494
3 630 623 624
3 630 629 623
3 631 493 630
3 631 630 494
3 632 494 493
3 632 493 631
3 632 631 494
3 633 510 511
3 633 511 512
3 633 522 510
3 633 512 627
3 634 522 633
3 634 523 522
3 634 627 628
3 634 633 627
3 635 524 523
3 635 628 629
3 635 523 634
3 635 634 628
3 636 525 524
3 636 630 493
3 636 629 630
3 636 524 635
3 636 635 629
3 637 525 636
3 637 636 493
3 637 492 526
3 637 526 525
3 638 493 492
3 638 492 637
3 638 637 493
3 650 658 651
3 676 652 653
3 676 670 652
3 677 653 654
3 677 670 676
3 677 676 653
3 678 654 655
3 678 677 654
3 679 655 656
3 679 678 655
3 680 679 656
3 680 656 657
3 681 657 658
3 681 680 657
3 681 658 650
3 682 669 670
3 683 669 682
3 683 682 670
3 683 670 677
3 684 669 683
3 684 677 678
3 684 683 677
3 685 678 679
3 685 684 678
3 686 679 680
3 686 685 679
3 687 650 649
3 687 686 680
3 687 680 681
3 687 681 650
3 688 668 669
3 689 688 669
3 689 668 688
3 690 669 684
3 690 668 689
3 690 689 669
3 691 684 685
3 691 690 684
3 692 691 685
3 692 685 686
3 692 686 687
3 693 649 648
3 693 692 687
3 693 687 649
3 694 667 668
3 695 694 668
3 695 667 694
3 695 668 690
3 696 667 695
3 696 695 690
3 696 690 691
3 697 696 691
3 697 691 692
3 698 693 648
3 698 648 647
3 698 692 693
3 698 697 692
3 699 666 667
3 700 666 699
3 700 699 667
3 701 667 696
3 701 700 667
3 701 666 700
3 702 696 697
3 702 701 696
3 703 647 646
3 703 698 647
3 703 697 698
3 703 702 697
3 704 665 666
3 705 704 666
3 706 665 704
3 707 666 701
3 707 705 666
3 708 706 704
3 709 701 702
3 709 707 701
3 710 708 704
3 710 704 705
3 711 646 645
3 711 703 646
3 711 702 703
3 711 709 702
3 712 705 707
3 712 710 705
3 713 707 709
3 713 712 707
3 714 645 644
3 714 711 645
3 714 709 711
3 714 713 709
3 715 664 665
3 715 665 706
3 716 706 708
3 716 715 706
3 717 708 710
3 717 716 708
3 718 664 715
3 719 710 712
3 719 712 713
3 719 717 710
3 720 715 716
3 720 718 715
3 721 719 713
3 722 716 717
3 722 720 716
3 723 721 713
3 723 714 644
3 723 713 714
3 724 717 719
3 724 722 717
3 725 724 719
3 725 719 721
3 726 644 643
3 726 721 723
3 726 725 721
3 726 723 644
3 727 663 664
3 727 664 718
3 728 718 720
3 728 720 722
3 728 727 718
3 729 728 722
3 730 722 724
3 730 729 722
3 731 663 727
3 732 724 725
3 732 730 724
3 733 727 728
3 733 731 727
3 734 726 643
3 734 725 726
3 734 732 725
3 735 728 729
3 735 733 728
3 736 729 730
3 736 735 729
3 737 730 732
3 737 736 730
3 738 643 642
3 738 734 643
3 738 732 734
3 738 737 732
3 739 662 663
3 739 663 731
3 739 731 733
3 740 733 735
3 740 739 733
3 741 740 735
3 742 735 736
3 742 736 737
3 742 741 735
3 743 662 739
3 744 742 737
3 745 739 740
3 745 743 739
3 746 738 642
3 746 737 738
3 746 744 737
3 747 740 741
3 747 745 740
3 748 741 742
3 748 747 741
3 749 742 744
3 749 748 742
3 750 642 641
3 750 746 642
3 750 744 746
3 750 749 744
3 751 661 662
3 751 662 743
3 752 751 743
3 752 743 745
3 753 745 747
3 753 752 745
3 754 747 748
3 754 753 747
3 755 661 751
3 755 751 752
3 756 754 748
3 756 748 749
3 757 756 749
3 757 750 641
3 757 749 750
3 758 752 753
3 758 755 752
3 759 758 753
3 760 759 753
3 760 753 754
3 761 760 754
3 761 754 756
3 762 641 640
3 762 756 757
3 762 761 756
3 762 757 641
3 763 660 661
3 763 661 755
3 764 763 755
3 764 755 758
3 765 764 758
3 765 758 759
3 766 759 760
3 766 765 759
3 766 760 761
3 767 766 761
3 768 660 763
3 769 762 640
3 769 761 762
3 769 767 761
3 770 763 764
3 770 768 763
3 771 764 765
3 771 770 764
3 772 765 766
3 772 771 765
3 773 766 767
3 773 772 766
3 773 767 769
3 774 640 639
3 774 769 640
3 774 773 769
3 775 659 660
3 775 660 768
3 775 768 770
3 776 770 771
3 776 775 770
3 777 776 771
3 778 659 775
3 778 674 675
3 778 675 659
3 779 672 673
3 779 771 772
3 779 673 777
3 779 777 771
3 780 778 775
3 780 775 776
3 780 674 778
3 781 671 672
3 781 779 772
3 781 772 773
3 781 672 779
3 782 674 780
3 782 673 674
3 782 776 777
3 782 777 673
3 782 780 776
3 783 671 781
3 783 639 671
3 783 774 639
3 783 773 774
3 783 781 773
3 803 804 805
3 808 802 803
3 808 805 806
3 808 806 807
3 808 803 805
3 798 799 800
3 798 800 801
3 798 801 802
3 798 808 809
3 798 809 784
3 798 802 808
3 797 798 784
3 795 796 797
3 794 795 797
3 790 791 792
3 790 792 793
3 790 793 794
3 790 794 797
3 786 787 788
3 786 788 789
3 786 789 790
3 785 797 784
3 785 790 797
3 785 786 790
3 826 817 816
3 825 831 824
3 832 812 811
3 833 811 810
3 833 832 811
3 834 810 818
3 834 833 810
3 835 813 812
3 835 812 832
3 835 832 833
3 836 818 819
3 836 834 818
3 837 833 834
3 837 835 833
3 838 814 813
3 838 815 814
3 838 813 835
3 839 819 820
3 839 836 819
3 840 837 834
3 840 834 836
3 841 835 837
3 841 838 835
3 842 820 821
3 842 836 839
3 842 839 820
3 842 840 836
3 843 837 840
3 843 841 837
3 844 816 815
3 844 827 826
3 844 815 838
3 844 838 841
3 844 826 816
3 845 840 842
3 845 843 840
3 846 828 827
3 846 829 828
3 846 827 844
3 846 841 843
3 846 844 841
3 847 821 822
3 847 822 823
3 847 842 821
3 847 845 842
3 848 830 829
3 848 829 846
3 848 843 845
3 848 846 843
3 849 823 824
3 849 831 830
3 849 830 848
3 849 824 831
3 849 847 823
3 849 845 847
3 849 848 845
3 860 851 850
3 860 850 859
3 861 852 851
3 861 851 860
3 862 853 852
3 862 852 861
3 863 854 853
3 863 853 862
3 864 855 854
3 864 854 863
3 865 856 855
3 865 855 864
3 858 857 856
3 858 856 865
3 867 869 866
3 868 869 867
3 881 880 879
3 882 881 879
3 883 882 879
3 878 883 879
3 885 879 884
3 872 877 878
3 872 878 879
3 874 873 872
3 875 874 872
3 876 875 872
3 871 885 870
3 871 879 885
3 871 872 879
3 871 876 872
