ply
format ascii 1.0
comment generated by blendit.inference.finetune_visualize
element vertex 660
property float x
property float y
property float z
property uchar red
property uchar green
property uchar blue
element face 616
property list uchar int vertex_indices
end_header
-2.22044605e-16 44.07573 8.39243129 218 222 230
0 44.07573 77.9107258 218 222 230
-2.22044605e-16 1.13454504 77.9107258 218 222 230
-2.22044605e-16 1.13454504 8.39243129 218 222 230
0 21.5483442 60.3326779 218 222 230
0 21.5483442 62.4193684 218 222 230
-1.66533454e-16 22.6828892 64.6884584 218 222 230
-1.66749761e-16 22.5912063 64.6787479 218 222 230
-1.63454777e-16 22.5031494 64.6515472 218 222 230
-1.59413514e-16 22.4204687 64.6104744 218 222 230
-1.54012445e-16 22.3196408 64.5399802 218 222 230
-1.4540095e-16 22.1868562 64.4118757 218 222 230
-1.30119831e-16 22.0213667 64.1900369 218 222 230
-1.02881171e-16 21.8300364 63.8215733 218 222 230
-5.68244585e-17 21.6403393 63.2285951 218 222 230
-2.4204372e-17 21.5719472 62.8265267 218 222 230
-2.22044605e-16 42.4660138 64.6884584 218 222 230
0 42.4660138 63.5539134 218 222 230
0 42.4660138 60.3326779 218 222 230
-2.22044605e-16 42.4660138 59.1981328 218 222 230
-2.22044605e-16 21.5483442 59.1981328 218 222 230
9.86752181 44.07573 1.13454504 218 222 230
9.86752181 44.07573 7.25788625 218 222 230
1.13454504 44.07573 7.25788625 218 222 230
-2.22044605e-16 44.07573 8.39243129 218 222 230
0.0284454128 44.07573 8.13997126 218 222 230
0.11235528 44.07573 7.90017064 218 222 230
0.247522009 44.07573 7.68505402 218 222 230
0.427167777 44.07573 7.50540826 218 222 230
0.642284395 44.07573 7.37024153 218 222 230
0.882085017 44.07573 7.28633166 218 222 230
0 44.07573 77.9107258 218 222 230
89.5937264 44.07573 77.9107258 218 222 230
89.5937264 44.07573 1.13454504 218 222 230
14.6429397 44.07573 45.5932128 218 222 230
23.8580322 44.07573 44.2291248 218 222 230
13.931882 44.07573 40.7896641 218 222 230
23.1469745 44.07573 39.4255762 218 222 230
25.3584986 44.07573 46.5241761 218 222 230
25.2781808 44.07573 46.6140546 218 222 230
25.2217062 44.07573 46.7205427 218 222 230
25.192357 44.07573 46.8374517 218 222 230
25.1918387 44.07573 46.9579873 218 222 230
25.2201816 44.07573 47.0751443 218 222 230
25.2757384 44.07573 47.1821141 218 222 230
25.3552803 44.07573 47.2726799 218 222 230
25.4541848 44.07573 47.3415785 218 222 230
25.5667037 44.07573 47.3848055 218 222 230
25.6862979 44.07573 47.399849 218 222 230
25.8060171 44.07573 47.3858345 218 222 230
25.9189036 44.07573 47.3435766 218 222 230
26.0183969 44.07573 47.2755311 218 222 230
26.1098535 44.07573 45.8642778 218 222 230
26.7697518 44.07573 46.6156328 218 222 230
26.8500696 44.07573 46.5257543 218 222 230
26.9065441 44.07573 46.4192662 218 222 230
26.9358934 44.07573 46.3023572 218 222 230
26.9364116 44.07573 46.1818216 218 222 230
26.9080688 44.07573 46.0646646 218 222 230
26.852512 44.07573 45.9576948 218 222 230
26.7729701 44.07573 45.8671289 218 222 230
26.6740656 44.07573 45.7982304 218 222 230
26.5615467 44.07573 45.7550034 218 222 230
26.4419524 44.07573 45.7399599 218 222 230
26.3222332 44.07573 45.7539744 218 222 230
26.2093468 44.07573 45.7962323 218 222 230
27.0918197 44.07573 56.5689756 218 222 230
28.4899573 44.07573 53.496942 218 222 230
23.7322917 44.07573 56.8941698 218 222 230
21.7709014 44.07573 54.1473303 218 222 230
23.169039 44.07573 51.0752966 218 222 230
26.5285669 44.07573 50.7501025 218 222 230
-2.22044605e-16 1.13454504 8.39243129 255 79 163
-2.22044605e-16 44.07573 8.39243129 255 79 163
0.0284454128 44.07573 8.13997126 255 79 163
0.11235528 44.07573 7.90017064 255 79 163
0.247522009 44.07573 7.68505402 255 79 163
0.427167777 44.07573 7.50540826 255 79 163
0.642284395 44.07573 7.37024153 255 79 163
0.882085017 44.07573 7.28633166 255 79 163
1.13454504 44.07573 7.25788625 255 79 163
1.13454504 -2.22044605e-16 7.25788625 255 79 163
0.0386586847 0.840903175 8.09878942 255 79 163
0.152000213 0.567272519 7.82515877 255 79 163
0.332300548 0.332300548 7.5901868 255 79 163
0.541746884 0.16718637 7.42507262 255 79 163
0.736013656 0.0722996893 7.33018594 255 79 163
0.923440674 0.0198130566 7.2776993 255 79 163
1.02852899 0.00496412424 7.26285037 255 79 163
1.13454504 1.13454504 79.0452709 255 79 163
0.882085017 1.13454504 79.0168255 255 79 163
0.642284395 1.13454504 78.9329156 255 79 163
0.427167777 1.13454504 78.7977489 255 79 163
0.247522009 1.13454504 78.6181031 255 79 163
0.11235528 1.13454504 78.4029865 255 79 163
0.0284454128 1.13454504 78.1631859 255 79 163
-2.22044605e-16 1.13454504 77.9107258 255 79 163
1.13454504 42.9411849 79.0452709 255 79 163
0.840903175 43.2348268 79.0066122 255 79 163
0.567272519 43.5084574 78.8932707 255 79 163
0.332300548 43.7434294 78.7129703 255 79 163
0.16718637 43.9085436 78.503524 255 79 163
0.0722996893 44.0034303 78.3092572 255 79 163
0.0198130566 44.0559169 78.1218302 255 79 163
0.00496412424 44.0707658 78.0167419 255 79 163
0 44.07573 77.9107258 255 79 163
-2.22044605e-16 1.13454504 8.39243129 255 79 163
0.0386586847 0.840903175 8.09878942 255 79 163
0.152000213 0.567272519 7.82515877 255 79 163
0.332300548 0.332300548 7.5901868 255 79 163
0.541746884 0.16718637 7.42507262 255 79 163
0.736013656 0.0722996893 7.33018594 255 79 163
0.923440674 0.0198130566 7.2776993 255 79 163
1.02852899 0.00496412424 7.26285037 255 79 163
1.13454504 -2.22044605e-16 7.25788625 255 79 163
1.13454504 -2.22044605e-16 77.9107258 255 79 163
-2.22044605e-16 1.13454504 77.9107258 255 79 163
0.0284454128 0.882085017 77.9107258 255 79 163
0.11235528 0.642284395 77.9107258 255 79 163
0.247522009 0.427167777 77.9107258 255 79 163
0.427167777 0.247522009 77.9107258 255 79 163
0.642284395 0.11235528 77.9107258 255 79 163
0.882085017 0.0284454128 77.9107258 255 79 163
1.13454504 21.5483442 60.3326779 218 222 230
33.6214133 21.5483442 60.3326779 218 222 230
33.8738733 21.5483442 60.3611233 218 222 230
34.1136739 21.5483442 60.4450332 218 222 230
34.3287906 21.5483442 60.5801999 218 222 230
34.5084363 21.5483442 60.7598457 218 222 230
34.643603 21.5483442 60.9749623 218 222 230
34.7275129 21.5483442 61.2147629 218 222 230
34.7559583 21.5483442 61.4672229 218 222 230
34.7559583 21.5483442 62.4193684 218 222 230
0 21.5483442 62.4193684 218 222 230
0 21.5483442 60.3326779 218 222 230
-2.22044605e-16 21.5483442 59.1981328 218 222 230
0.0284454128 21.5483442 59.4505929 218 222 230
0.11235528 21.5483442 59.6903935 218 222 230
0.247522009 21.5483442 59.9055101 218 222 230
0.427167777 21.5483442 60.0851559 218 222 230
0.642284395 21.5483442 60.2203226 218 222 230
0.882085017 21.5483442 60.3042325 218 222 230
0 21.5483442 62.4193684 255 79 163
0 21.5483442 62.4193684 255 79 163
-1.66533454e-16 22.6828892 64.6884584 255 79 163
-1.66749761e-16 22.5912063 64.6787479 255 79 163
-1.63454777e-16 22.5031494 64.6515472 255 79 163
-1.59413514e-16 22.4204687 64.6104744 255 79 163
-1.54012445e-16 22.3196408 64.5399802 255 79 163
-1.4540095e-16 22.1868562 64.4118757 255 79 163
-1.30119831e-16 22.0213667 64.1900369 255 79 163
-1.02881171e-16 21.8300364 63.8215733 255 79 163
-5.68244585e-17 21.6403393 63.2285951 255 79 163
-2.4204372e-17 21.5719472 62.8265267 255 79 163
0.031347614 22.6828892 64.4236042 255 79 163
0.123657961 22.6828892 64.1733857 255 79 163
0.271830256 22.6828892 63.9516304 255 79 163
0.467676198 22.6828892 63.7705922 255 79 163
0.700373416 22.6828892 63.6402755 255 79 163
0.913206338 22.6828892 63.5757134 255 79 163
1.13454504 22.6828892 63.5539134 255 79 163
0.945454199 22.3892474 63.5152547 255 79 163
0.756363359 22.1156161 63.4019128 255 79 163
0.567272519 21.8806447 63.2216129 255 79 163
0.37818168 21.7003443 62.9866409 255 79 163
0.18909084 21.5870028 62.7130103 255 79 163
0.0277489512 22.1440317 64.1465939 255 79 163
0.0970305969 22.1623216 63.9644301 255 79 163
0.197208458 22.1812563 63.8030925 255 79 163
0.325206353 22.2001247 63.6693681 255 79 163
0.480173426 22.2180257 63.5672878 255 79 163
0.019924824 21.8101056 63.6285347 255 79 163
0.659072506 22.2342481 63.4992118 255 79 163
0.0675235474 21.8218218 63.5178477 255 79 163
0.134042735 21.8353336 63.4190005 255 79 163
0.217877681 21.8493915 63.3371093 255 79 163
0.319773431 21.8621035 63.2761919 255 79 163
0.43882805 21.8722199 63.2380975 255 79 163
0.0536827223 21.7246339 63.3131722 255 79 163
0.109471613 21.6691337 63.0479543 255 79 163
0.0802054469 21.6145711 62.8872608 255 79 163
0.0541261063 21.5790652 62.7386488 255 79 163
0.0322412936 21.6526733 63.1322489 255 79 163
0.0276122552 21.6266943 63.0383009 255 79 163
0.0197326073 21.5891116 62.8661948 255 79 163
0.0160859152 21.5748194 62.7790415 255 79 163
0.00841938162 21.6335443 63.128679 255 79 163
0.00722423793 21.6127795 63.0362585 255 79 163
0.0050877092 21.5797861 62.8494314 255 79 163
0.0046124158 21.5733335 62.8023829 255 79 163
0.00131198661 21.5757411 62.8388069 255 79 163
0.00125168785 21.5726739 62.8143964 255 79 163
-2.22044605e-16 42.4660138 64.6884584 255 79 163
0.0284454128 42.4660138 64.4359984 255 79 163
0.11235528 42.4660138 64.1961978 255 79 163
0.247522009 42.4660138 63.9810812 255 79 163
0.427167777 42.4660138 63.8014354 255 79 163
0.642284395 42.4660138 63.6662687 255 79 163
0.882085017 42.4660138 63.5823588 255 79 163
1.13454504 42.4660138 63.5539134 255 79 163
1.13454504 22.6828892 63.5539134 255 79 163
-1.66533454e-16 22.6828892 64.6884584 255 79 163
0.031347614 22.6828892 64.4236042 255 79 163
0.123657961 22.6828892 64.1733857 255 79 163
0.271830256 22.6828892 63.9516304 255 79 163
0.467676198 22.6828892 63.7705922 255 79 163
0.700373416 22.6828892 63.6402755 255 79 163
0.913206338 22.6828892 63.5757134 255 79 163
-2.22044605e-16 42.4660138 59.1981328 255 79 163
-2.22044605e-16 21.5483442 59.1981328 255 79 163
0.0284454128 21.5483442 59.4505929 255 79 163
0.11235528 21.5483442 59.6903935 255 79 163
0.247522009 21.5483442 59.9055101 255 79 163
0.427167777 21.5483442 60.0851559 255 79 163
0.642284395 21.5483442 60.2203226 255 79 163
0.882085017 21.5483442 60.3042325 255 79 163
1.13454504 21.5483442 60.3326779 255 79 163
1.13454504 42.4660138 60.3326779 255 79 163
0.0284454128 42.4660138 59.4505929 255 79 163
0.11235528 42.4660138 59.6903935 255 79 163
0.247522009 42.4660138 59.9055101 255 79 163
0.427167777 42.4660138 60.0851559 255 79 163
0.642284395 42.4660138 60.2203226 255 79 163
0.882085017 42.4660138 60.3042325 255 79 163
1.13454504 42.4660138 63.5539134 218 222 230
34.7559583 42.4660138 63.5539134 218 222 230
34.7559583 42.4660138 61.4672229 218 222 230
33.6214133 42.4660138 60.3326779 218 222 230
33.8738733 42.4660138 60.3611233 218 222 230
34.1136739 42.4660138 60.4450332 218 222 230
34.3287906 42.4660138 60.5801999 218 222 230
34.5084363 42.4660138 60.7598457 218 222 230
34.643603 42.4660138 60.9749623 218 222 230
34.7275129 42.4660138 61.2147629 218 222 230
1.13454504 42.4660138 60.3326779 218 222 230
-2.22044605e-16 42.4660138 59.1981328 218 222 230
0.0284454128 42.4660138 59.4505929 218 222 230
0.11235528 42.4660138 59.6903935 218 222 230
0.247522009 42.4660138 59.9055101 218 222 230
0.427167777 42.4660138 60.0851559 218 222 230
0.642284395 42.4660138 60.2203226 218 222 230
0.882085017 42.4660138 60.3042325 218 222 230
0 42.4660138 60.3326779 218 222 230
0 42.4660138 63.5539134 218 222 230
-2.22044605e-16 42.4660138 64.6884584 218 222 230
0.0284454128 42.4660138 64.4359984 218 222 230
0.11235528 42.4660138 64.1961978 218 222 230
0.247522009 42.4660138 63.9810812 218 222 230
0.427167777 42.4660138 63.8014354 218 222 230
0.642284395 42.4660138 63.6662687 218 222 230
0.882085017 42.4660138 63.5823588 218 222 230
9.86752181 44.07573 1.13454504 218 222 230
9.86752181 44.07573 7.25788625 218 222 230
16.5569986 22.037865 7.25788625 218 222 230
16.5569986 22.037865 1.13454504 218 222 230
9.86752181 44.07573 1.13454504 255 79 163
89.5937264 44.07573 1.13454504 255 79 163
89.5787281 44.0607317 0.950677006 255 79 163
89.5341299 44.0161335 0.771670307 255 79 163
89.4611108 43.9431144 0.602257742 255 79 163
89.3616015 43.8436051 0.446918454 255 79 163
89.2382328 43.7202364 0.309759496 255 79 163
89.0942666 43.5762702 0.194407248 255 79 163
88.8769161 43.3589197 0.079703762 255 79 163
88.6718166 43.1538202 0.0201040618 255 79 163
88.4591813 42.9411849 -2.22044605e-16 255 79 163
11.3975686 42.9411849 -2.22044605e-16 255 79 163
9.88456551 44.0630919 0.965674611 255 79 163
9.93531692 44.0254592 0.800566393 255 79 163
10.0186454 43.9636703 0.642898776 255 79 163
10.1326944 43.8791018 0.496184387 255 79 163
10.2749231 43.7736378 0.363691828 255 79 163
10.5028381 43.6046366 0.214205774 255 79 163
10.8010335 43.3835216 0.0897815874 255 79 163
11.0932192 43.1668631 0.0226719265 255 79 163
9.86752181 0 7.25788625 218 222 230
1.13454504 -2.22044605e-16 7.25788625 218 222 230
1.13454504 44.07573 7.25788625 218 222 230
9.86752181 44.07573 7.25788625 218 222 230
16.5569986 22.037865 7.25788625 218 222 230
89.5937264 0 1.13454504 218 222 230
89.5937264 -2.22044605e-16 77.9107258 218 222 230
89.5937264 44.07573 1.13454504 218 222 230
89.5937264 44.07573 77.9107258 218 222 230
1.13454504 42.9411849 79.0452709 255 79 163
88.4591813 42.9411849 79.0452709 255 79 163
88.7528232 43.2348268 79.0066122 255 79 163
89.0264538 43.5084574 78.8932707 255 79 163
89.2614258 43.7434294 78.7129703 255 79 163
89.42654 43.9085436 78.503524 255 79 163
89.5214267 44.0034303 78.3092572 255 79 163
89.5739133 44.0559169 78.1218302 255 79 163
89.5887622 44.0707658 78.0167419 255 79 163
89.5937264 44.07573 77.9107258 255 79 163
0 44.07573 77.9107258 255 79 163
0.840903175 43.2348268 79.0066122 255 79 163
0.567272519 43.5084574 78.8932707 255 79 163
0.332300548 43.7434294 78.7129703 255 79 163
0.16718637 43.9085436 78.503524 255 79 163
0.0722996893 44.0034303 78.3092572 255 79 163
0.0198130566 44.0559169 78.1218302 255 79 163
0.00496412424 44.0707658 78.0167419 255 79 163
14.6429397 44.07573 45.5932128 218 222 230
14.6429397 38.0584684 45.5932128 218 222 230
23.8580322 38.0584684 44.2291248 218 222 230
23.8580322 44.07573 44.2291248 218 222 230
13.931882 44.07573 40.7896641 218 222 230
13.931882 38.0584684 40.7896641 218 222 230
14.6429397 38.0584684 45.5932128 218 222 230
14.6429397 44.07573 45.5932128 218 222 230
23.8580322 44.07573 44.2291248 218 222 230
23.8580322 38.0584684 44.2291248 218 222 230
23.1469745 38.0584684 39.4255762 218 222 230
23.1469745 44.07573 39.4255762 218 222 230
23.1469745 44.07573 39.4255762 218 222 230
23.1469745 38.0584684 39.4255762 218 222 230
13.931882 38.0584684 40.7896641 218 222 230
13.931882 44.07573 40.7896641 218 222 230
25.3584986 44.07573 46.5241761 218 222 230
25.3584986 36.9272764 46.5241761 218 222 230
25.2781808 36.9272764 46.6140546 218 222 230
25.2217062 36.9272764 46.7205427 218 222 230
25.192357 36.9272764 46.8374517 218 222 230
25.1918387 36.9272764 46.9579873 218 222 230
25.2201816 36.9272764 47.0751443 218 222 230
25.2757384 36.9272764 47.1821141 218 222 230
25.3552803 36.9272764 47.2726799 218 222 230
25.4541848 36.9272764 47.3415785 218 222 230
25.5667037 36.9272764 47.3848055 218 222 230
25.6862979 36.9272764 47.399849 218 222 230
25.8060171 36.9272764 47.3858345 218 222 230
25.9189036 36.9272764 47.3435766 218 222 230
26.0183969 36.9272764 47.2755311 218 222 230
26.0183969 44.07573 47.2755311 218 222 230
25.2781808 44.07573 46.6140546 218 222 230
25.2217062 44.07573 46.7205427 218 222 230
25.192357 44.07573 46.8374517 218 222 230
25.1918387 44.07573 46.9579873 218 222 230
25.2201816 44.07573 47.0751443 218 222 230
25.2757384 44.07573 47.1821141 218 222 230
25.3552803 44.07573 47.2726799 218 222 230
25.4541848 44.07573 47.3415785 218 222 230
25.5667037 44.07573 47.3848055 218 222 230
25.6862979 44.07573 47.399849 218 222 230
25.8060171 44.07573 47.3858345 218 222 230
25.9189036 44.07573 47.3435766 218 222 230
26.0183969 44.07573 47.2755311 218 222 230
26.0183969 36.9272764 47.2755311 218 222 230
26.7697518 36.9272764 46.6156328 218 222 230
26.7697518 44.07573 46.6156328 218 222 230
26.7697518 44.07573 46.6156328 218 222 230
26.7697518 36.9272764 46.6156328 218 222 230
26.8500696 36.9272764 46.5257543 218 222 230
26.9065441 36.9272764 46.4192662 218 222 230
26.9358934 36.9272764 46.3023572 218 222 230
26.9364116 36.9272764 46.1818216 218 222 230
26.9080688 36.9272764 46.0646646 218 222 230
26.852512 36.9272764 45.9576948 218 222 230
26.7729701 36.9272764 45.8671289 218 222 230
26.6740656 36.9272764 45.7982304 218 222 230
26.5615467 36.9272764 45.7550034 218 222 230
26.4419524 36.9272764 45.7399599 218 222 230
26.3222332 36.9272764 45.7539744 218 222 230
26.2093468 36.9272764 45.7962323 218 222 230
26.1098535 36.9272764 45.8642778 218 222 230
26.1098535 44.07573 45.8642778 218 222 230
26.8500696 44.07573 46.5257543 218 222 230
26.9065441 44.07573 46.4192662 218 222 230
26.9358934 44.07573 46.3023572 218 222 230
26.9364116 44.07573 46.1818216 218 222 230
26.9080688 44.07573 46.0646646 218 222 230
26.852512 44.07573 45.9576948 218 222 230
26.7729701 44.07573 45.8671289 218 222 230
26.6740656 44.07573 45.7982304 218 222 230
26.5615467 44.07573 45.7550034 218 222 230
26.4419524 44.07573 45.7399599 218 222 230
26.3222332 44.07573 45.7539744 218 222 230
26.2093468 44.07573 45.7962323 218 222 230
26.1098535 44.07573 45.8642778 218 222 230
26.1098535 36.9272764 45.8642778 218 222 230
25.3584986 36.9272764 46.5241761 218 222 230
25.3584986 44.07573 46.5241761 218 222 230
27.0918197 44.07573 56.5689756 218 222 230
27.0918197 33.5166566 56.5689756 218 222 230
28.4899573 33.5166566 53.496942 218 222 230
28.4899573 44.07573 53.496942 218 222 230
23.7322917 44.07573 56.8941698 218 222 230
23.7322917 33.5166566 56.8941698 218 222 230
27.0918197 33.5166566 56.5689756 218 222 230
27.0918197 44.07573 56.5689756 218 222 230
28.4899573 44.07573 53.496942 218 222 230
28.4899573 33.5166566 53.496942 218 222 230
26.5285669 33.5166566 50.7501025 218 222 230
26.5285669 44.07573 50.7501025 218 222 230
21.7709014 44.07573 54.1473303 218 222 230
21.7709014 33.5166566 54.1473303 218 222 230
23.7322917 33.5166566 56.8941698 218 222 230
23.7322917 44.07573 56.8941698 218 222 230
26.5285669 44.07573 50.7501025 218 222 230
26.5285669 33.5166566 50.7501025 218 222 230
23.169039 33.5166566 51.0752966 218 222 230
23.169039 44.07573 51.0752966 218 222 230
23.169039 44.07573 51.0752966 218 222 230
23.169039 33.5166566 51.0752966 218 222 230
21.7709014 33.5166566 54.1473303 218 222 230
21.7709014 44.07573 54.1473303 218 222 230
-2.22044605e-16 1.13454504 77.9107258 255 79 163
0.0284454128 0.882085017 77.9107258 255 79 163
0.11235528 0.642284395 77.9107258 255 79 163
0.247522009 0.427167777 77.9107258 255 79 163
0.427167777 0.247522009 77.9107258 255 79 163
0.642284395 0.11235528 77.9107258 255 79 163
0.882085017 0.0284454128 77.9107258 255 79 163
1.13454504 -2.22044605e-16 77.9107258 255 79 163
1.13454504 1.13454504 79.0452709 255 79 163
1.13454504 0.882085017 79.0168255 255 79 163
1.13454504 0.642284395 78.9329156 255 79 163
1.13454504 0.427167777 78.7977489 255 79 163
1.13454504 0.247522009 78.6181031 255 79 163
1.13454504 0.11235528 78.4029865 255 79 163
1.13454504 0.0284454128 78.1631859 255 79 163
1.13454504 1.13454504 79.0452709 255 79 163
0.882085017 1.13454504 79.0168255 255 79 163
0.642284395 1.13454504 78.9329156 255 79 163
0.427167777 1.13454504 78.7977489 255 79 163
0.247522009 1.13454504 78.6181031 255 79 163
0.11235528 1.13454504 78.4029865 255 79 163
0.0284454128 1.13454504 78.1631859 255 79 163
1.0797001 0.788267731 78.9897423 255 79 163
0.97537883 0.822163766 78.9897423 255 79 163
0.886637857 0.886637857 78.9897423 255 79 163
0.928471233 0.500315081 78.8285921 255 79 163
0.822163766 0.97537883 78.9897423 255 79 163
0.742569368 0.595036813 78.8285921 255 79 163
0.990959128 0.227979278 78.5775947 255 79 163
0.788267731 1.0797001 78.9897423 255 79 163
0.595036813 0.742569368 78.8285921 255 79 163
0.717842496 0.316720251 78.5775947 255 79 163
0.500315081 0.928471233 78.8285921 255 79 163
0.485515612 0.485515612 78.5775947 255 79 163
0.801110618 0.108339411 78.2613195 255 79 163
0.316720251 0.717842496 78.5775947 255 79 163
0.500315081 0.261602392 78.2613195 255 79 163
0.227979278 0.990959128 78.5775947 255 79 163
0.261602392 0.500315081 78.2613195 255 79 163
0.108339411 0.801110618 78.2613195 255 79 163
1.13454504 42.9411849 79.0452709 218 222 230
88.4591813 42.9411849 79.0452709 218 222 230
1.13454504 1.13454504 79.0452709 218 222 230
88.4591813 1.13454504 79.0452709 218 222 230
89.5937264 0 1.13454504 218 222 230
89.5937264 -2.22044605e-16 77.9107258 218 222 230
9.86752181 0 1.13454504 218 222 230
9.86752181 0 7.25788625 218 222 230
1.13454504 -2.22044605e-16 7.25788625 218 222 230
1.13454504 -2.22044605e-16 77.9107258 218 222 230
1.13454504 42.4660138 60.3326779 218 222 230
33.6214133 42.4660138 60.3326779 218 222 230
33.6214133 21.5483442 60.3326779 218 222 230
1.13454504 21.5483442 60.3326779 218 222 230
33.6214133 42.4660138 60.3326779 255 79 163
33.8738733 42.4660138 60.3611233 255 79 163
34.1136739 42.4660138 60.4450332 255 79 163
34.3287906 42.4660138 60.5801999 255 79 163
34.5084363 42.4660138 60.7598457 255 79 163
34.643603 42.4660138 60.9749623 255 79 163
34.7275129 42.4660138 61.2147629 255 79 163
34.7559583 42.4660138 61.4672229 255 79 163
34.7559583 21.5483442 61.4672229 255 79 163
33.6214133 21.5483442 60.3326779 255 79 163
33.8738733 21.5483442 60.3611233 255 79 163
34.1136739 21.5483442 60.4450332 255 79 163
34.3287906 21.5483442 60.5801999 255 79 163
34.5084363 21.5483442 60.7598457 255 79 163
34.643603 21.5483442 60.9749623 255 79 163
34.7275129 21.5483442 61.2147629 255 79 163
34.7559583 42.4660138 63.5539134 218 222 230
34.7559583 42.4660138 61.4672229 218 222 230
34.7559583 21.5483442 61.4672229 218 222 230
34.7559583 21.5483442 62.4193684 218 222 230
34.7559583 22.6828892 63.5539134 218 222 230
34.7559583 22.4304292 63.525468 218 222 230
34.7559583 22.1906286 63.4415581 218 222 230
34.7559583 21.975512 63.3063914 218 222 230
34.7559583 21.7958662 63.1267456 218 222 230
34.7559583 21.6606995 62.911629 218 222 230
34.7559583 21.5767896 62.6718284 218 222 230
1.13454504 22.6828892 63.5539134 255 79 163
0.945454199 22.3892474 63.5152547 255 79 163
0.756363359 22.1156161 63.4019128 255 79 163
0.567272519 21.8806447 63.2216129 255 79 163
0.37818168 21.7003443 62.9866409 255 79 163
0.18909084 21.5870028 62.7130103 255 79 163
0 21.5483442 62.4193684 255 79 163
34.7559583 21.5483442 62.4193684 255 79 163
34.7559583 22.6828892 63.5539134 255 79 163
34.7559583 22.4304292 63.525468 255 79 163
34.7559583 22.1906286 63.4415581 255 79 163
34.7559583 21.975512 63.3063914 255 79 163
34.7559583 21.7958662 63.1267456 255 79 163
34.7559583 21.6606995 62.911629 255 79 163
34.7559583 21.5767896 62.6718284 255 79 163
1.13454504 42.4660138 63.5539134 218 222 230
34.7559583 42.4660138 63.5539134 218 222 230
1.13454504 22.6828892 63.5539134 218 222 230
34.7559583 22.6828892 63.5539134 218 222 230
11.3975686 42.9411849 -2.22044605e-16 255 79 163
17.7426602 22.037865 -2.22044605e-16 255 79 163
17.465873 22.037865 0.0313475697 255 79 163
17.2043811 22.037865 0.123658007 255 79 163
16.9726346 22.037865 0.271830223 255 79 163
16.7834398 22.037865 0.467676197 255 79 163
16.6472517 22.037865 0.700373449 255 79 163
16.5797807 22.037865 0.913206282 255 79 163
16.5569986 22.037865 1.13454504 255 79 163
9.86752181 44.07573 1.13454504 255 79 163
9.88456551 44.0630919 0.965674611 255 79 163
9.93531692 44.0254592 0.800566393 255 79 163
10.0186454 43.9636703 0.642898776 255 79 163
10.1326944 43.8791018 0.496184387 255 79 163
10.2749231 43.7736378 0.363691828 255 79 163
10.5028381 43.6046366 0.214205774 255 79 163
10.8010335 43.3835216 0.0897815874 255 79 163
11.0932192 43.1668631 0.0226719265 255 79 163
16.5569986 22.037865 1.13454504 218 222 230
16.5569986 22.037865 7.25788625 218 222 230
9.86752181 0 7.25788625 218 222 230
9.86752181 0 1.13454504 218 222 230
11.3975686 42.9411849 -2.22044605e-16 218 222 230
88.4591813 42.9411849 -2.22044605e-16 218 222 230
17.7426602 22.037865 -2.22044605e-16 218 222 230
11.3975686 1.13454504 -2.22044605e-16 218 222 230
88.4591813 1.13454504 -2.22044605e-16 218 222 230
88.4591813 1.13454504 -2.22044605e-16 255 79 163
88.4591813 42.9411849 -2.22044605e-16 255 79 163
89.5937264 44.07573 1.13454504 255 79 163
89.5787281 44.0607317 0.950677006 255 79 163
89.5341299 44.0161335 0.771670307 255 79 163
89.4611108 43.9431144 0.602257742 255 79 163
89.3616015 43.8436051 0.446918454 255 79 163
89.2382328 43.7202364 0.309759496 255 79 163
89.0942666 43.5762702 0.194407248 255 79 163
88.8769161 43.3589197 0.079703762 255 79 163
88.6718166 43.1538202 0.0201040618 255 79 163
89.5937264 0 1.13454504 255 79 163
88.7528232 0.840903175 0.0386586847 255 79 163
89.0264538 0.567272519 0.152000213 255 79 163
89.2614258 0.332300548 0.332300548 255 79 163
89.42654 0.16718637 0.541746884 255 79 163
89.5214267 0.0722996893 0.736013656 255 79 163
89.5739133 0.0198130566 0.923440674 255 79 163
89.5887622 0.00496412424 1.02852899 255 79 163
89.5937264 -2.22044605e-16 77.9107258 255 79 163
89.5787281 0.0149982592 78.0945939 255 79 163
89.5341299 0.059596494 78.2736006 255 79 163
89.4611108 0.132615561 78.4430131 255 79 163
89.3616015 0.23212489 78.5983524 255 79 163
89.2382328 0.35549353 78.7355114 255 79 163
89.0942666 0.499459706 78.8508636 255 79 163
88.8769161 0.716810283 78.9655671 255 79 163
88.6718166 0.921909778 79.0251668 255 79 163
88.4591813 1.13454504 79.0452709 255 79 163
89.5937264 44.07573 77.9107258 255 79 163
88.4591813 42.9411849 79.0452709 255 79 163
88.7528232 43.2348268 79.0066122 255 79 163
89.0264538 43.5084574 78.8932707 255 79 163
89.2614258 43.7434294 78.7129703 255 79 163
89.42654 43.9085436 78.503524 255 79 163
89.5214267 44.0034303 78.3092572 255 79 163
89.5739133 44.0559169 78.1218302 255 79 163
89.5887622 44.0707658 78.0167419 255 79 163
14.6429397 38.0584684 45.5932128 218 222 230
23.8580322 38.0584684 44.2291248 218 222 230
23.1469745 38.0584684 39.4255762 218 222 230
13.931882 38.0584684 40.7896641 218 222 230
25.3584986 36.9272764 46.5241761 218 222 230
25.2781808 36.9272764 46.6140546 218 222 230
25.2217062 36.9272764 46.7205427 218 222 230
25.192357 36.9272764 46.8374517 218 222 230
25.1918387 36.9272764 46.9579873 218 222 230
25.2201816 36.9272764 47.0751443 218 222 230
25.2757384 36.9272764 47.1821141 218 222 230
25.3552803 36.9272764 47.2726799 218 222 230
25.4541848 36.9272764 47.3415785 218 222 230
25.5667037 36.9272764 47.3848055 218 222 230
25.6862979 36.9272764 47.399849 218 222 230
25.8060171 36.9272764 47.3858345 218 222 230
25.9189036 36.9272764 47.3435766 218 222 230
26.0183969 36.9272764 47.2755311 218 222 230
26.7697518 36.9272764 46.6156328 218 222 230
26.8500696 36.9272764 46.5257543 218 222 230
26.9065441 36.9272764 46.4192662 218 222 230
26.9358934 36.9272764 46.3023572 218 222 230
26.9364116 36.9272764 46.1818216 218 222 230
26.9080688 36.9272764 46.0646646 218 222 230
26.852512 36.9272764 45.9576948 218 222 230
26.7729701 36.9272764 45.8671289 218 222 230
26.6740656 36.9272764 45.7982304 218 222 230
26.5615467 36.9272764 45.7550034 218 222 230
26.4419524 36.9272764 45.7399599 218 222 230
26.3222332 36.9272764 45.7539744 218 222 230
26.2093468 36.9272764 45.7962323 218 222 230
26.1098535 36.9272764 45.8642778 218 222 230
27.0918197 33.5166566 56.5689756 218 222 230
28.4899573 33.5166566 53.496942 218 222 230
26.5285669 33.5166566 50.7501025 218 222 230
23.169039 33.5166566 51.0752966 218 222 230
21.7709014 33.5166566 54.1473303 218 222 230
23.7322917 33.5166566 56.8941698 218 222 230
1.13454504 -2.22044605e-16 77.9107258 255 79 163
89.5937264 -2.22044605e-16 77.9107258 255 79 163
89.5787281 0.0149982592 78.0945939 255 79 163
89.5341299 0.059596494 78.2736006 255 79 163
89.4611108 0.132615561 78.4430131 255 79 163
89.3616015 0.23212489 78.5983524 255 79 163
89.2382328 0.35549353 78.7355114 255 79 163
89.0942666 0.499459706 78.8508636 255 79 163
88.8769161 0.716810283 78.9655671 255 79 163
88.6718166 0.921909778 79.0251668 255 79 163
88.4591813 1.13454504 79.0452709 255 79 163
1.13454504 1.13454504 79.0452709 255 79 163
1.13454504 0.882085017 79.0168255 255 79 163
1.13454504 0.642284395 78.9329156 255 79 163
1.13454504 0.427167777 78.7977489 255 79 163
1.13454504 0.247522009 78.6181031 255 79 163
1.13454504 0.11235528 78.4029865 255 79 163
1.13454504 0.0284454128 78.1631859 255 79 163
11.3975686 1.13454504 -2.22044605e-16 255 79 163
10.8276232 0.711924836 0.0816515924 255 79 163
10.3826693 0.381987057 0.285516813 255 79 163
10.130569 0.195052124 0.498506118 255 79 163
9.9803454 0.0836598301 0.706955606 255 79 163
9.9035313 0.0267014023 0.889851511 255 79 163
9.87655082 0.00669510495 1.011472 255 79 163
9.86752181 0 1.13454504 255 79 163
88.4591813 1.13454504 -2.22044605e-16 255 79 163
88.7528232 0.840903175 0.0386586847 255 79 163
89.0264538 0.567272519 0.152000213 255 79 163
89.2614258 0.332300548 0.332300548 255 79 163
89.42654 0.16718637 0.541746884 255 79 163
89.5214267 0.0722996893 0.736013656 255 79 163
89.5739133 0.0198130566 0.923440674 255 79 163
89.5887622 0.00496412424 1.02852899 255 79 163
89.5937264 0 1.13454504 255 79 163
17.7426602 22.037865 -2.22044605e-16 255 79 163
11.3975686 1.13454504 -2.22044605e-16 255 79 163
10.8276232 0.711924836 0.0816515924 255 79 163
10.3826693 0.381987057 0.285516813 255 79 163
10.130569 0.195052124 0.498506118 255 79 163
9.9803454 0.0836598301 0.706955606 255 79 163
9.9035313 0.0267014023 0.889851511 255 79 163
9.87655082 0.00669510495 1.011472 255 79 163
9.86752181 0 1.13454504 255 79 163
16.5569986 22.037865 1.13454504 255 79 163
17.465873 22.037865 0.0313475697 255 79 163
17.2043811 22.037865 0.123658007 255 79 163
16.9726346 22.037865 0.271830223 255 79 163
16.7834398 22.037865 0.467676197 255 79 163
16.6472517 22.037865 0.700373449 255 79 163
16.5797807 22.037865 0.913206282 255 79 163
3 1 17 16
3 1 18 17
3 1 19 18
3 20 0 3
3 20 19 0
3 6 1 16
3 2 5 4
3 2 6 7
3 2 7 8
3 2 8 9
3 2 9 10
3 2 10 11
3 2 11 12
3 2 12 13
3 2 13 14
3 2 14 15
3 2 15 5
3 2 4 20
3 2 20 3
3 2 1 6
3 0 19 1
3 29 28 27
3 26 29 27
3 24 26 25
3 24 30 29
3 24 29 26
3 23 30 24
3 22 23 24
3 36 22 24
3 37 22 36
3 39 38 35
3 40 39 35
3 52 35 38
3 65 35 52
3 41 40 35
3 64 35 65
3 42 41 35
3 63 35 64
3 62 37 35
3 62 35 63
3 61 37 62
3 60 37 61
3 59 37 60
3 70 35 34
3 70 43 42
3 70 44 43
3 70 45 44
3 70 46 45
3 70 42 35
3 69 70 34
3 71 47 46
3 71 48 47
3 71 49 48
3 71 50 49
3 71 51 50
3 71 46 70
3 71 54 53
3 71 55 54
3 71 53 51
3 31 34 36
3 31 69 34
3 31 36 24
3 68 69 31
3 67 56 55
3 67 57 56
3 67 55 71
3 66 68 31
3 33 21 22
3 33 37 59
3 33 58 57
3 33 59 58
3 33 22 37
3 32 57 67
3 32 66 31
3 32 67 66
3 32 33 57
3 80 81 88
3 79 87 86
3 79 88 87
3 79 80 88
3 78 86 85
3 78 79 86
3 77 85 84
3 77 78 85
3 76 84 83
3 76 77 84
3 75 83 82
3 75 76 83
3 74 82 72
3 74 75 82
3 73 74 72
3 104 96 95
3 104 105 96
3 103 104 95
3 102 95 94
3 102 103 95
3 101 94 93
3 101 102 94
3 100 93 92
3 100 101 93
3 99 92 91
3 99 100 92
3 98 91 90
3 98 99 91
3 97 90 89
3 97 98 90
3 117 106 107
3 117 116 106
3 118 107 108
3 118 117 107
3 119 108 109
3 119 118 108
3 120 109 110
3 120 119 109
3 121 110 111
3 121 120 110
3 122 111 112
3 122 112 113
3 122 121 111
3 115 113 114
3 115 122 113
3 126 128 127
3 129 128 126
3 124 126 125
3 124 130 129
3 124 131 130
3 124 129 126
3 132 131 124
3 134 136 135
3 134 137 136
3 134 138 137
3 134 139 138
3 134 140 139
3 134 141 140
3 133 124 123
3 133 123 141
3 133 132 124
3 133 141 134
3 154 145 144
3 146 145 154
3 155 147 146
3 155 146 154
3 148 147 155
3 161 158 159
3 161 159 160
3 166 149 148
3 166 150 149
3 167 150 166
3 167 166 148
3 167 148 155
3 168 155 156
3 168 167 155
3 169 156 157
3 169 168 156
3 170 157 158
3 170 158 161
3 170 169 157
3 171 151 150
3 171 152 151
3 172 161 162
3 172 162 170
3 172 170 161
3 173 150 167
3 173 171 150
3 174 167 168
3 174 173 167
3 175 168 169
3 175 174 168
3 176 175 169
3 176 169 170
3 176 170 162
3 177 162 163
3 177 163 164
3 177 164 176
3 177 176 162
3 178 174 175
3 178 173 174
3 178 171 173
3 178 152 171
3 179 176 164
3 179 175 176
3 179 178 175
3 180 164 165
3 180 179 164
3 181 142 143
3 181 165 142
3 181 180 165
3 182 152 178
3 182 178 179
3 183 179 180
3 183 182 179
3 184 180 181
3 184 183 180
3 185 181 143
3 185 184 181
3 186 152 182
3 186 182 183
3 187 183 184
3 187 152 186
3 187 153 152
3 187 186 183
3 188 184 185
3 188 187 184
3 189 185 143
3 189 188 185
3 190 153 187
3 190 187 188
3 190 188 189
3 191 189 143
3 191 143 153
3 191 153 190
3 191 190 189
3 199 200 207
3 198 207 206
3 198 199 207
3 197 206 205
3 197 198 206
3 196 205 204
3 196 197 205
3 195 204 203
3 195 196 204
3 194 203 202
3 194 195 203
3 193 202 201
3 193 194 202
3 192 193 201
3 215 216 217
3 215 217 223
3 214 222 221
3 214 223 222
3 214 215 223
3 213 221 220
3 213 214 221
3 212 213 220
3 211 220 219
3 211 212 220
3 210 219 218
3 210 211 219
3 209 218 208
3 209 210 218
3 232 233 226
3 229 230 231
3 229 231 232
3 227 226 225
3 227 228 229
3 227 232 226
3 227 229 232
3 224 227 225
3 243 245 244
3 243 246 245
3 243 247 246
3 243 248 247
3 243 249 248
3 243 250 249
3 234 227 224
3 241 224 250
3 241 234 224
3 242 239 240
3 242 240 241
3 242 250 243
3 242 241 250
3 238 239 242
3 237 238 242
3 236 237 242
3 235 236 242
3 254 252 251
3 254 253 252
3 264 265 266
3 264 266 274
3 263 274 273
3 263 264 274
3 262 273 272
3 262 263 273
3 261 272 271
3 261 262 272
3 260 271 270
3 260 261 271
3 259 270 269
3 259 260 270
3 258 269 268
3 258 259 269
3 257 268 267
3 257 258 268
3 256 267 255
3 256 257 267
3 279 275 276
3 277 278 279
3 277 279 276
3 281 280 282
3 281 282 283
3 292 293 294
3 292 301 300
3 292 294 301
3 291 300 299
3 291 292 300
3 290 299 298
3 290 291 299
3 289 298 297
3 289 290 298
3 288 297 296
3 288 289 297
3 287 296 295
3 287 288 296
3 286 295 284
3 286 287 295
3 285 286 284
3 305 303 302
3 305 304 303
3 309 307 306
3 309 308 307
3 310 312 311
3 313 312 310
3 317 315 314
3 317 316 315
3 334 319 318
3 334 320 319
3 335 321 320
3 335 320 334
3 336 322 321
3 336 323 322
3 336 321 335
3 337 323 336
3 338 324 323
3 338 323 337
3 339 325 324
3 339 326 325
3 339 324 338
3 340 326 339
3 341 327 326
3 341 326 340
3 342 328 327
3 342 329 328
3 342 327 341
3 343 329 342
3 344 330 329
3 344 329 343
3 345 331 330
3 345 330 344
3 333 332 331
3 333 331 345
3 349 347 346
3 349 348 347
3 366 351 350
3 366 352 351
3 367 353 352
3 367 352 366
3 368 354 353
3 368 353 367
3 369 355 354
3 369 354 368
3 370 356 355
3 370 355 369
3 371 357 356
3 371 358 357
3 371 356 370
3 372 359 358
3 372 358 371
3 373 359 372
3 374 360 359
3 374 361 360
3 374 359 373
3 375 361 374
3 376 362 361
3 376 361 375
3 377 363 362
3 377 362 376
3 365 364 363
3 365 363 377
3 381 379 378
3 381 380 379
3 385 383 382
3 385 384 383
3 386 388 387
3 389 388 386
3 393 391 390
3 393 392 391
3 397 395 394
3 397 396 395
3 401 399 398
3 401 400 399
3 405 403 402
3 405 404 403
3 412 413 420
3 406 407 427
3 428 416 415
3 429 415 414
3 429 428 415
3 430 414 421
3 430 429 414
3 431 417 416
3 431 428 429
3 431 416 428
3 432 421 422
3 432 430 421
3 433 429 430
3 433 431 429
3 434 418 417
3 434 419 418
3 434 417 431
3 435 422 423
3 435 432 422
3 436 433 430
3 436 430 432
3 437 431 433
3 437 434 431
3 438 423 424
3 438 436 432
3 438 435 423
3 438 432 435
3 439 433 436
3 439 437 433
3 440 411 412
3 440 420 419
3 440 419 434
3 440 434 437
3 440 412 420
3 441 436 438
3 441 439 436
3 442 410 411
3 442 411 440
3 442 437 439
3 442 440 437
3 443 424 425
3 443 425 426
3 443 438 424
3 443 441 438
3 444 408 409
3 444 409 410
3 444 410 442
3 444 439 441
3 444 442 439
3 445 407 408
3 445 426 427
3 445 427 407
3 445 408 444
3 445 443 426
3 445 441 443
3 445 444 441
3 447 446 448
3 447 448 449
3 455 454 453
3 450 453 452
3 451 455 453
3 451 453 450
3 459 457 456
3 459 458 457
3 470 461 460
3 470 460 469
3 471 462 461
3 471 461 470
3 472 463 462
3 472 462 471
3 473 464 463
3 473 465 464
3 473 463 472
3 474 465 473
3 475 466 465
3 475 465 474
3 468 467 466
3 468 466 475
3 480 476 477
3 482 481 480
3 483 482 480
3 484 483 480
3 479 485 484
3 479 486 485
3 479 484 480
3 478 480 477
3 478 479 480
3 496 488 487
3 496 487 495
3 497 489 488
3 497 488 496
3 498 490 489
3 498 489 497
3 499 491 490
3 499 490 498
3 500 492 491
3 500 491 499
3 501 493 492
3 501 492 500
3 494 493 501
3 502 505 504
3 502 503 505
3 514 515 516
3 513 516 517
3 513 514 516
3 512 517 518
3 512 513 517
3 511 518 519
3 511 519 520
3 511 512 518
3 510 520 521
3 510 511 520
3 509 521 522
3 509 510 521
3 508 522 523
3 508 509 522
3 507 523 506
3 507 508 523
3 527 525 524
3 527 526 525
3 532 531 530
3 529 530 528
3 529 532 530
3 535 544 551
3 536 551 550
3 536 535 551
3 537 550 549
3 537 536 550
3 538 549 548
3 538 537 549
3 539 548 547
3 539 538 548
3 540 539 547
3 541 547 546
3 541 540 547
3 542 546 545
3 542 541 546
3 543 545 533
3 543 542 545
3 534 543 533
3 563 561 560
3 564 560 559
3 564 563 560
3 565 559 558
3 565 564 559
3 566 557 556
3 566 558 557
3 566 565 558
3 567 556 555
3 567 566 556
3 568 555 554
3 568 567 555
3 569 554 553
3 569 568 554
3 570 553 552
3 570 569 553
3 562 570 552
3 573 574 571
3 572 573 571
3 600 601 602
3 599 600 602
3 598 599 602
3 597 598 602
3 596 597 602
3 595 596 602
3 594 595 602
3 593 594 602
3 592 593 602
3 588 575 576
3 588 576 577
3 588 577 578
3 588 578 579
3 588 579 580
3 588 580 581
3 588 581 582
3 588 582 583
3 588 583 584
3 588 584 585
3 588 585 586
3 588 586 587
3 591 592 602
3 590 591 602
3 589 602 575
3 589 575 588
3 589 590 602
3 608 606 607
3 604 605 606
3 603 606 608
3 603 604 606
3 618 619 620
3 618 620 621
3 617 621 622
3 617 618 621
3 616 622 623
3 616 617 622
3 615 623 624
3 615 616 623
3 614 615 624
3 613 624 625
3 613 614 624
3 612 625 626
3 612 613 625
3 611 626 609
3 611 612 626
3 610 611 609
3 642 634 633
3 642 643 634
3 641 633 632
3 641 642 633
3 640 632 631
3 640 641 632
3 639 631 630
3 639 640 631
3 638 630 629
3 638 639 630
3 637 629 628
3 637 638 629
3 636 628 627
3 636 637 628
3 635 636 627
3 651 652 653
3 651 653 659
3 650 659 658
3 650 651 659
3 649 650 658
3 648 658 657
3 648 649 658
3 647 656 655
3 647 657 656
3 647 648 657
3 646 655 654
3 646 647 655
3 645 654 644
3 645 646 654
