ply
format ascii 1.0
comment generated by blendit.inference.finetune_visualize
element vertex 1310
property float x
property float y
property float z
property uchar red
property uchar green
property uchar blue
element face 1782
property list uchar int vertex_indices
end_header
-8.8817842e-16 0 3.16959071 218 222 230
0 0 87.861017 218 222 230
-8.8817842e-16 79.0052801 3.16959071 218 222 230
0 79.0052801 85.8891049 218 222 230
0 77.0333681 87.861017 218 222 230
0 77.4430842 87.8179828 218 222 230
0 77.8592783 87.6797219 218 222 230
0 78.2486986 87.4419761 218 222 230
0 78.4506113 87.2601844 218 222 230
0 78.6687483 86.9909074 218 222 230
0 78.8340673 86.6927959 218 222 230
0 78.943011 86.3807357 218 222 230
0 78.9903089 86.1316322 218 222 230
0 73.3183678 37.2920288 218 222 230
0 46.2595504 46.7912528 218 222 230
0 73.3635892 37.2695016 218 222 230
0 73.4018609 37.2365208 218 222 230
0 73.4308203 37.1951227 218 222 230
0 73.4486795 37.1478627 218 222 230
0 73.4543361 37.0976586 218 222 230
0 73.4474409 37.0476095 218 222 230
0 73.4284195 37.0008052 218 222 230
0 73.3984462 36.9601352 218 222 230
0 73.3593713 36.92811 218 222 230
0 53.8820693 24.6620692 218 222 230
0 66.0151613 9.13766055 218 222 230
0 65.0643668 9.2531079 218 222 230
0 64.168829 9.5927406 218 222 230
0 63.3805933 10.1368204 218 222 230
0 62.7454692 10.8537274 218 222 230
0 62.3003676 11.7017975 218 222 230
0 62.0711564 12.6317441 218 222 230
0 62.0711564 13.5895219 218 222 230
0 62.3003676 14.5194684 218 222 230
0 62.7454692 15.3675385 218 222 230
0 63.3805933 16.0844455 218 222 230
0 64.168829 16.6285253 218 222 230
0 65.0643668 16.968158 218 222 230
0 66.0151613 17.0836054 218 222 230
0 66.9659559 16.968158 218 222 230
0 67.8614937 16.6285253 218 222 230
0 68.6497294 16.0844455 218 222 230
0 69.2848535 15.3675385 218 222 230
0 69.7299551 14.5194684 218 222 230
0 69.9591663 13.5895219 218 222 230
0 69.9591663 12.6317441 218 222 230
0 69.7299551 11.7017975 218 222 230
0 69.2848535 10.8537274 218 222 230
0 68.6497294 10.1368204 218 222 230
0 67.8614937 9.5927406 218 222 230
0 66.9659559 9.2531079 218 222 230
3.16959071 0 -8.8817842e-16 218 222 230
44.346197 -2.22044605e-16 0 218 222 230
-8.8817842e-16 0 3.16959071 218 222 230
0.0794682567 0 2.46429043 218 222 230
0.313888157 0 1.79435684 218 222 230
0.691504907 0 1.19338323 218 222 230
1.19338323 0 0.691504907 218 222 230
1.79435684 0 0.313888157 218 222 230
2.46429043 0 0.0794682567 218 222 230
0 0 87.861017 218 222 230
44.346197 -2.22044605e-16 87.861017 218 222 230
3.16959071 0 -8.8817842e-16 218 222 230
3.16959071 75.9551774 -1.11022302e-16 218 222 230
-8.8817842e-16 0 3.16959071 218 222 230
0.0794682567 0 2.46429043 218 222 230
0.313888157 0 1.79435684 218 222 230
0.691504907 0 1.19338323 218 222 230
1.19338323 0 0.691504907 218 222 230
1.79435684 0 0.313888157 218 222 230
2.46429043 0 0.0794682567 218 222 230
-8.8817842e-16 79.0052801 3.16959071 218 222 230
0.00272463425 79.0052801 3.03819617 218 222 230
0.00121104496 79.0052801 3.0819804 218 222 230
0.000302775701 79.0052801 3.12578137 218 222 230
2.22931091 76.8805467 0.142681534 218 222 230
1.39913835 77.6937437 0.540559767 218 222 230
0.999058672 78.0830065 0.85980805 218 222 230
0.579170801 78.4876103 1.3431105 218 222 230
0.32294503 78.7301996 1.77570635 218 222 230
0.151212994 78.8879096 2.20227427 218 222 230
0.0470196403 78.9771257 2.62566481 218 222 230
0 0 87.861017 218 222 230
0 77.0333681 87.861017 218 222 230
44.346197 -2.22044605e-16 87.861017 218 222 230
44.6601595 0.0353750746 87.861017 218 222 230
44.9583786 0.139726444 87.861017 218 222 230
45.2259003 0.307821496 87.861017 218 222 230
45.4493101 0.531231241 87.861017 218 222 230
45.6174051 0.798752983 87.861017 218 222 230
45.7217565 1.09697206 87.861017 218 222 230
45.7571316 1.41093453 87.861017 218 222 230
45.7571316 5.927213 87.861017 218 222 230
45.7139088 6.31484315 87.861017 218 222 230
45.5747738 6.70731961 87.861017 218 222 230
45.3365093 7.06891596 87.861017 218 222 230
45.1667226 7.24228026 87.861017 218 222 230
44.9034054 7.43582131 87.861017 218 222 230
44.6156312 7.57480676 87.861017 218 222 230
44.3192902 7.65729763 87.861017 218 222 230
44.1563339 7.67980057 87.861017 218 222 230
43.9973475 7.68699705 87.861017 218 222 230
24.2911125 7.68699705 87.861017 218 222 230
24.1247418 7.68699705 87.861017 218 222 230
23.9540203 77.2969525 87.861017 218 222 230
4.94181091 30.0172205 87.861017 218 222 230
4.94181091 29.1454564 87.861017 218 222 230
4.97009814 30.2682766 87.861017 218 222 230
5.05354139 30.5067437 87.861017 218 222 230
5.18795646 30.7206641 87.861017 218 222 230
5.36660323 30.8993108 87.861017 218 222 230
5.5805236 31.0337259 87.861017 218 222 230
5.8189907 31.1171692 87.861017 218 222 230
6.07004681 31.1454564 87.861017 218 222 230
12.138341 31.1454564 87.861017 218 222 230
12.3035592 31.1454564 87.861017 218 222 230
12.3016821 29.1454564 87.861017 218 222 230
12.138341 29.1454564 87.861017 218 222 230
44.4002332 79.0052801 64.7494259 218 222 230
24.2911125 79.0052801 64.7494259 218 222 230
45.1613403 79.0052801 3.34325897 218 222 230
44.7775096 79.0052801 34.0463424 218 222 230
44.5192776 79.0052801 51.7406817 218 222 230
0.00272463425 79.0052801 3.03819617 218 222 230
0.00121104496 79.0052801 3.0819804 218 222 230
0.000302775701 79.0052801 3.12578137 218 222 230
-8.8817842e-16 79.0052801 3.16959071 218 222 230
0 79.0052801 85.8891049 218 222 230
24.2911125 79.0052801 86.1550073 218 222 230
0 77.0333681 87.861017 218 222 230
23.9540203 77.2969525 87.861017 218 222 230
0 77.4430842 87.8179828 218 222 230
0 77.8592783 87.6797219 218 222 230
0 78.2486986 87.4419761 218 222 230
0 78.4506113 87.2601844 218 222 230
0 78.6687483 86.9909074 218 222 230
0 78.8340673 86.6927959 218 222 230
0 78.943011 86.3807357 218 222 230
0 78.9903089 86.1316322 218 222 230
0 79.0052801 85.8891049 218 222 230
24.2911125 79.0052801 86.1550073 218 222 230
24.2911125 78.3185611 87.5230408 218 222 230
24.2911125 78.6102258 87.2467331 218 222 230
24.2911125 78.8273357 86.913615 218 222 230
24.2911125 78.958167 86.5531667 218 222 230
24.2911125 78.9939303 86.3514683 218 222 230
24.0667035 77.5548065 87.8415561 218 222 230
24.1672164 77.8028004 87.7847961 218 222 230
24.2483533 78.0481652 87.6877486 218 222 230
24.2809672 78.1975978 87.6053141 218 222 230
7.98467402 77.9768267 87.6490727 218 222 230
7.98467402 78.146027 87.5503182 218 222 230
7.98467402 78.3245932 87.4178103 218 222 230
7.98467402 78.4873184 87.2644467 218 222 230
7.98467402 78.6171673 87.1113156 218 222 230
7.98467402 78.7177225 86.9655462 218 222 230
11.977011 77.7368059 87.7677238 218 222 230
11.977011 77.8509835 87.7257877 218 222 230
11.977011 77.9946903 87.6602907 218 222 230
11.977011 78.1341658 87.5815923 218 222 230
11.977011 78.2676577 87.4900999 218 222 230
11.977011 78.3686456 87.4084723 218 222 230
11.977011 78.4639378 87.3196708 218 222 230
16.0817115 78.7762983 86.9450847 218 222 230
24.1225673 77.9954946 87.7120847 218 222 230
24.1789039 78.1236201 87.6483228 218 222 230
24.1225673 78.1702971 87.6214106 218 222 230
24.1225673 78.3359423 87.5093393 218 222 230
24.1225673 78.4229281 87.4380745 218 222 230
24.1225673 78.5052689 87.3610022 218 222 230
13.3452445 78.1852416 87.5572974 218 222 230
14.0293613 78.3860171 87.4086277 218 222 230
14.0293613 78.338192 87.4491808 218 222 230
17.3375815 77.99563 87.6870461 218 222 230
20.0178668 78.1139418 87.63818 218 222 230
21.3861003 78.1915566 87.5983579 218 222 230
24.0382947 77.8250651 87.7774991 218 222 230
24.2068399 78.8421945 86.8824786 218 222 230
16.7096465 78.4401627 87.3794901 218 222 230
20.1302303 78.7826027 86.9703025 218 222 230
21.8983599 78.6242866 87.2171633 218 222 230
22.1544897 78.7851955 86.9806736 218 222 230
22.8386064 78.8052828 86.9482853 218 222 230
22.8386064 78.7498977 87.0450289 218 222 230
23.2946843 78.783064 86.9915902 218 222 230
23.3227751 78.8956061 86.7510763 218 222 230
18.7339059 78.4481478 87.3862941 218 222 230
22.4128274 78.0667004 87.6730275 218 222 230
22.926191 78.0029852 87.7054749 218 222 230
22.8969961 78.2912187 87.5379061 218 222 230
23.3963142 78.0992985 87.6592221 218 222 230
23.6103077 78.0090945 87.7046064 218 222 230
23.4384505 78.3461666 87.4989001 218 222 230
45.7571316 73.3183678 37.2920288 218 222 230
45.7571316 46.2595504 46.7912528 218 222 230
0 73.3183678 37.2920288 218 222 230
0 46.2595504 46.7912528 218 222 230
44.8165778 46.2595504 46.7912528 218 222 230
45.0020078 46.2374034 46.7990277 218 222 230
45.172594 46.1757807 46.8206608 218 222 230
45.3052237 46.0959535 46.8486848 218 222 230
45.4153109 46.0027317 46.8814111 218 222 230
45.513597 45.8911498 46.9205829 218 222 230
45.6210594 45.7199758 46.9806749 218 222 230
45.6983184 45.530488 47.0471962 218 222 230
45.7431604 45.3342401 47.1160907 218 222 230
45.7571316 45.1434089 47.1830836 218 222 230
45.7571316 73.3183678 37.2920288 218 222 230
45.7571316 73.3635892 37.2695016 218 222 230
45.7571316 73.4018609 37.2365208 218 222 230
45.7571316 73.4308203 37.1951227 218 222 230
45.7571316 73.4486795 37.1478627 218 222 230
45.7571316 73.4543361 37.0976586 218 222 230
45.7571316 73.4474409 37.0476095 218 222 230
45.7571316 73.4284195 37.0008052 218 222 230
45.7571316 73.3984462 36.9601352 218 222 230
45.7571316 73.3593713 36.92811 218 222 230
0 73.3593713 36.92811 218 222 230
0 73.3183678 37.2920288 218 222 230
0 73.3635892 37.2695016 218 222 230
0 73.4018609 37.2365208 218 222 230
0 73.4308203 37.1951227 218 222 230
0 73.4486795 37.1478627 218 222 230
0 73.4543361 37.0976586 218 222 230
0 73.4474409 37.0476095 218 222 230
0 73.4284195 37.0008052 218 222 230
0 73.3984462 36.9601352 218 222 230
43.7262763 53.8820693 24.6620692 218 222 230
0 53.8820693 24.6620692 218 222 230
44.8165778 46.2595504 46.7912528 218 222 230
44.6460811 47.8706569 42.1139968 218 222 230
44.271427 50.0708098 35.726661 218 222 230
43.8965427 52.2725723 29.3346526 218 222 230
0 46.2595504 46.7912528 218 222 230
45.7571316 53.8820693 24.6620692 218 222 230
45.7571316 73.3593713 36.92811 218 222 230
45.7571316 52.1093645 23.5456893 218 222 230
43.7262763 53.8820693 24.6620692 218 222 230
44.1363229 53.8456852 24.6391559 218 222 230
44.5536121 53.7287121 24.5654909 218 222 230
44.946868 53.5268791 24.4383843 218 222 230
45.2832485 53.2484374 24.2630327 218 222 230
45.5364607 52.9138698 24.0523351 218 222 230
45.6526539 52.6713565 23.8996098 218 222 230
45.730385 52.3965609 23.7265543 218 222 230
45.7506291 52.2513433 23.635102 218 222 230
0 53.8820693 24.6620692 218 222 230
0 73.3593713 36.92811 218 222 230
0 66.0151613 9.13766055 255 79 163
0.0300010619 66.0151613 9.40392734 255 79 163
0.118499869 66.0151613 9.6568424 255 79 163
0.261058722 66.0151613 9.88372351 255 79 163
0.450529124 66.0151613 10.0731939 255 79 163
0.677410239 66.0151613 10.2157528 255 79 163
0.9303253 66.0151613 10.3042516 255 79 163
1.19659209 66.0151613 10.3342526 255 79 163
0 65.0643668 9.2531079 255 79 163
0 64.168829 9.5927406 255 79 163
0 63.3805933 10.1368204 255 79 163
0 62.7454692 10.8537274 255 79 163
0 62.3003676 11.7017975 255 79 163
0 62.0711564 12.6317441 255 79 163
0 62.0711564 13.5895219 255 79 163
0 62.3003676 14.5194684 255 79 163
0 62.7454692 15.3675385 255 79 163
0 63.3805933 16.0844455 255 79 163
0 64.168829 16.6285253 255 79 163
0 65.0643668 16.968158 255 79 163
0 66.0151613 17.0836054 255 79 163
0 66.9659559 16.968158 255 79 163
0 67.8614937 16.6285253 255 79 163
0 68.6497294 16.0844455 255 79 163
0 69.2848535 15.3675385 255 79 163
0 69.7299551 14.5194684 255 79 163
0 69.9591663 13.5895219 255 79 163
0 69.9591663 12.6317441 255 79 163
0 69.7299551 11.7017975 255 79 163
0 69.2848535 10.8537274 255 79 163
0 68.6497294 10.1368204 255 79 163
0 67.8614937 9.5927406 255 79 163
0 66.9659559 9.2531079 255 79 163
0 66.0151613 9.13766055 255 79 163
0.0300010619 66.0151613 9.40392734 255 79 163
0.118499869 66.0151613 9.6568424 255 79 163
0.261058722 66.0151613 9.88372351 255 79 163
0.450529124 66.0151613 10.0731939 255 79 163
0.677410239 66.0151613 10.2157528 255 79 163
0.9303253 66.0151613 10.3042516 255 79 163
1.19659209 66.0151613 10.3342526 255 79 163
1.19659209 65.35073 10.4149292 255 79 163
1.19659209 64.7249131 10.6522703 255 79 163
1.19659209 64.1740807 11.0324824 255 79 163
1.19659209 63.7302451 11.5334692 255 79 163
1.19659209 63.4192007 12.1261149 255 79 163
1.19659209 63.259024 12.7759773 255 79 163
1.19659209 63.259024 13.4452886 255 79 163
1.19659209 63.4192007 14.095151 255 79 163
1.19659209 63.7302451 14.6877967 255 79 163
1.19659209 64.1740807 15.1887835 255 79 163
1.19659209 64.7249131 15.5689956 255 79 163
1.19659209 65.35073 15.8063367 255 79 163
1.19659209 66.0151613 15.8870133 255 79 163
1.19659209 66.6795927 15.8063367 255 79 163
1.19659209 67.3054096 15.5689956 255 79 163
1.19659209 67.856242 15.1887835 255 79 163
1.19659209 68.3000776 14.6877967 255 79 163
1.19659209 68.611122 14.095151 255 79 163
1.19659209 68.7712987 13.4452886 255 79 163
1.19659209 68.7712987 12.7759773 255 79 163
1.19659209 68.611122 12.1261149 255 79 163
1.19659209 68.3000776 11.5334692 255 79 163
1.19659209 67.856242 11.0324824 255 79 163
1.19659209 67.3054096 10.6522703 255 79 163
1.19659209 66.6795927 10.4149292 255 79 163
0.0300010619 65.1280886 9.51163746 255 79 163
0.118499869 65.1886152 9.75720327 255 79 163
0.261058722 65.2429114 9.97749164 255 79 163
0.0300010619 64.2925694 9.82850813 255 79 163
0.450529124 65.2882546 10.1614564 255 79 163
0.118499869 64.4101048 10.0524533 255 79 163
0.677410239 65.3223712 10.2998727 255 79 163
0.261058722 64.5155418 10.2533465 255 79 163
0.9303253 65.3435503 10.3857999 255 79 163
0.0300010619 63.5571609 10.336124 255 79 163
0.450529124 64.603593 10.4211143 255 79 163
0.118499869 63.7248746 10.5254336 255 79 163
0.677410239 64.6698434 10.5473438 255 79 163
0.261058722 63.8753246 10.6952566 255 79 163
0.9303253 64.7109709 10.6257057 255 79 163
0.0300010619 62.9646024 11.0049842 255 79 163
0.450529124 64.0009667 10.8370772 255 79 163
0.118499869 63.1727474 11.1486563 255 79 163
0.677410239 64.0955007 10.943784 255 79 163
0.261058722 63.3594669 11.2775395 255 79 163
0.9303253 64.1541863 11.0100263 255 79 163
0.0300010619 62.5493314 11.796217 255 79 163
0.450529124 63.515398 11.3851709 255 79 163
0.118499869 62.7858111 11.8859019 255 79 163
0.677410239 63.6327217 11.4661536 255 79 163
0.261058722 62.9979486 11.9663551 255 79 163
0.9303253 63.7055547 11.5164266 255 79 163
0.0300010619 62.3354818 12.663839 255 79 163
0.450529124 63.1751065 12.0335422 255 79 163
0.118499869 62.5865528 12.6943245 255 79 163
0.677410239 63.3084014 12.0840943 255 79 163
0.261058722 62.8117797 12.721672 255 79 163
0.9303253 63.3911492 12.1154764 255 79 163
0.0300010619 62.3354818 13.5574269 255 79 163
0.450529124 62.9998687 12.7445101 255 79 163
0.118499869 62.5865528 13.5269414 255 79 163
0.677410239 63.1413881 12.7616937 255 79 163
0.261058722 62.8117797 13.4995939 255 79 163
0.9303253 63.2292416 12.7723611 255 79 163
0.0300010619 62.5493314 14.4250489 255 79 163
0.450529124 62.9998687 13.4767558 255 79 163
0.118499869 62.7858111 14.335364 255 79 163
0.677410239 63.1413881 13.4595722 255 79 163
0.261058722 62.9979486 14.2549108 255 79 163
0.9303253 63.2292416 13.4489049 255 79 163
0.0300010619 62.9646024 15.2162817 255 79 163
0.450529124 63.1751065 14.1877237 255 79 163
0.118499869 63.1727474 15.0726096 255 79 163
0.677410239 63.3084014 14.1371716 255 79 163
0.261058722 63.3594669 14.9437265 255 79 163
0.9303253 63.3911492 14.1057895 255 79 163
0.0300010619 63.5571609 15.885142 255 79 163
0.450529124 63.515398 14.836095 255 79 163
0.118499869 63.7248746 15.6958323 255 79 163
0.677410239 63.6327217 14.7551123 255 79 163
0.261058722 63.8753246 15.5260094 255 79 163
0.9303253 63.7055547 14.7048393 255 79 163
0.0300010619 64.2925694 16.3927578 255 79 163
0.450529124 64.0009667 15.3841887 255 79 163
0.118499869 64.4101048 16.1688126 255 79 163
0.677410239 64.0955007 15.2774819 255 79 163
0.261058722 64.5155418 15.9679194 255 79 163
0.9303253 64.1541863 15.2112396 255 79 163
0.0300010619 65.1280886 16.7096284 255 79 163
0.450529124 64.603593 15.8001517 255 79 163
0.118499869 65.1886152 16.4640626 255 79 163
0.677410239 64.6698434 15.6739221 255 79 163
0.261058722 65.2429114 16.2437743 255 79 163
0.9303253 64.7109709 15.5955603 255 79 163
0.0300010619 66.0151613 16.8173386 255 79 163
0.450529124 65.2882546 16.0598095 255 79 163
0.118499869 66.0151613 16.5644235 255 79 163
0.677410239 65.3223712 15.9213932 255 79 163
0.261058722 66.0151613 16.3375424 255 79 163
0.9303253 65.3435503 15.835466 255 79 163
0.0300010619 66.9022341 16.7096284 255 79 163
0.450529124 66.0151613 16.148072 255 79 163
0.118499869 66.8417075 16.4640626 255 79 163
0.677410239 66.0151613 16.0055131 255 79 163
0.261058722 66.7874113 16.2437743 255 79 163
0.9303253 66.0151613 15.9170143 255 79 163
0.0300010619 67.7377533 16.3927578 255 79 163
0.450529124 66.7420681 16.0598095 255 79 163
0.118499869 67.6202179 16.1688126 255 79 163
0.677410239 66.7079515 15.9213932 255 79 163
0.261058722 67.5147809 15.9679194 255 79 163
0.9303253 66.6867724 15.835466 255 79 163
0.0300010619 68.4731618 15.885142 255 79 163
0.450529124 67.4267297 15.8001517 255 79 163
0.118499869 68.3054481 15.6958323 255 79 163
0.677410239 67.3604793 15.6739221 255 79 163
0.261058722 68.1549981 15.5260094 255 79 163
0.9303253 67.3193518 15.5955603 255 79 163
0.0300010619 69.0657203 15.2162817 255 79 163
0.450529124 68.029356 15.3841887 255 79 163
0.118499869 68.8575753 15.0726096 255 79 163
0.677410239 67.934822 15.2774819 255 79 163
0.261058722 68.6708558 14.9437265 255 79 163
0.9303253 67.8761364 15.2112396 255 79 163
0.0300010619 69.4809913 14.4250489 255 79 163
0.450529124 68.5149247 14.836095 255 79 163
0.118499869 69.2445116 14.335364 255 79 163
0.677410239 68.397601 14.7551123 255 79 163
0.261058722 69.0323741 14.2549108 255 79 163
0.9303253 68.3247679 14.7048393 255 79 163
0.0300010619 69.6948409 13.5574269 255 79 163
0.450529124 68.8552162 14.1877237 255 79 163
0.118499869 69.4437699 13.5269414 255 79 163
0.677410239 68.7219213 14.1371716 255 79 163
0.261058722 69.218543 13.4995939 255 79 163
0.9303253 68.6391735 14.1057895 255 79 163
0.0300010619 69.6948409 12.663839 255 79 163
0.450529124 69.030454 13.4767558 255 79 163
0.118499869 69.4437699 12.6943245 255 79 163
0.677410239 68.8889346 13.4595722 255 79 163
0.261058722 69.218543 12.721672 255 79 163
0.9303253 68.8010811 13.4489049 255 79 163
0.0300010619 69.4809913 11.796217 255 79 163
0.450529124 69.030454 12.7445101 255 79 163
0.118499869 69.2445116 11.8859019 255 79 163
0.677410239 68.8889346 12.7616937 255 79 163
0.261058722 69.0323741 11.9663551 255 79 163
0.9303253 68.8010811 12.7723611 255 79 163
0.0300010619 69.0657203 11.0049842 255 79 163
0.450529124 68.8552162 12.0335422 255 79 163
0.118499869 68.8575753 11.1486563 255 79 163
0.677410239 68.7219213 12.0840943 255 79 163
0.261058722 68.6708558 11.2775395 255 79 163
0.9303253 68.6391735 12.1154764 255 79 163
0.0300010619 68.4731618 10.336124 255 79 163
0.450529124 68.5149247 11.3851709 255 79 163
0.118499869 68.3054481 10.5254336 255 79 163
0.677410239 68.397601 11.4661536 255 79 163
0.261058722 68.1549981 10.6952566 255 79 163
0.9303253 68.3247679 11.5164266 255 79 163
0.0300010619 67.7377533 9.82850813 255 79 163
0.450529124 68.029356 10.8370772 255 79 163
0.118499869 67.6202179 10.0524533 255 79 163
0.677410239 67.934822 10.943784 255 79 163
0.261058722 67.5147809 10.2533465 255 79 163
0.9303253 67.8761364 11.0100263 255 79 163
0.0300010619 66.9022341 9.51163746 255 79 163
0.450529124 67.4267297 10.4211143 255 79 163
0.118499869 66.8417075 9.75720327 255 79 163
0.677410239 67.3604793 10.5473438 255 79 163
0.261058722 66.7874113 9.97749164 255 79 163
0.9303253 67.3193518 10.6257057 255 79 163
0.450529124 66.7420681 10.1614564 255 79 163
0.677410239 66.7079515 10.2998727 255 79 163
0.9303253 66.6867724 10.3857999 255 79 163
45.7571316 1.41093453 0 218 222 230
45.7571316 75.6604096 0 218 222 230
3.16959071 75.9551774 -1.11022302e-16 218 222 230
3.16959071 0 -8.8817842e-16 218 222 230
44.346197 -2.22044605e-16 0 218 222 230
44.6601595 0.0353750746 0 218 222 230
44.9583786 0.139726444 0 218 222 230
45.2259003 0.307821496 0 218 222 230
45.4493101 0.531231241 0 218 222 230
45.6174051 0.798752983 0 218 222 230
45.7217565 1.09697206 0 218 222 230
44.346197 -2.22044605e-16 0 218 222 230
44.6601595 0.0353750746 0 218 222 230
44.9583786 0.139726444 0 218 222 230
45.2259003 0.307821496 0 218 222 230
45.4493101 0.531231241 0 218 222 230
45.6174051 0.798752983 0 218 222 230
45.7217565 1.09697206 0 218 222 230
45.7571316 1.41093453 0 218 222 230
45.7571316 1.41093453 87.861017 218 222 230
44.346197 -2.22044605e-16 87.861017 218 222 230
44.6601595 0.0353750746 87.861017 218 222 230
44.9583786 0.139726444 87.861017 218 222 230
45.2259003 0.307821496 87.861017 218 222 230
45.4493101 0.531231241 87.861017 218 222 230
45.6174051 0.798752983 87.861017 218 222 230
45.7217565 1.09697206 87.861017 218 222 230
3.16959071 75.9551774 -1.11022302e-16 255 79 163
2.22931091 76.8805467 0.142681534 255 79 163
1.39913835 77.6937437 0.540559767 255 79 163
0.999058672 78.0830065 0.85980805 255 79 163
0.579170801 78.4876103 1.3431105 255 79 163
0.32294503 78.7301996 1.77570635 255 79 163
0.151212994 78.8879096 2.20227427 255 79 163
0.0470196403 78.9771257 2.62566481 255 79 163
0.00272463425 79.0052801 3.03819617 255 79 163
45.1613403 79.0052801 3.34325897 255 79 163
45.4523945 78.9309686 2.64301047 255 79 163
45.6800931 78.7079671 1.96611002 255 79 163
45.7387746 78.5639101 1.68416049 255 79 163
45.7571316 78.4193264 1.45369712 255 79 163
45.7571316 77.9233164 0.881658828 255 79 163
45.7571316 77.5348735 0.574573819 255 79 163
45.7571316 77.1114086 0.331108597 255 79 163
45.7571316 76.5948862 0.133186804 255 79 163
45.7571316 76.1215192 0.0319357555 255 79 163
45.7571316 75.6604096 0 255 79 163
1.80054208 77.7378983 0.572431654 255 79 163
0.800307218 78.5161675 1.38687027 255 79 163
0.526984702 78.699205 1.71049274 255 79 163
1.58615767 78.1138419 0.891438221 255 79 163
1.2103913 78.2260853 1.00901421 255 79 163
1.11601777 78.4473828 1.28604468 255 79 163
0.700931491 78.6834298 1.67896779 255 79 163
0.500891653 78.7839887 1.90116829 255 79 163
0.290947718 78.8826933 2.18463673 255 79 163
45.5585345 77.4452305 0.51575683 255 79 163
45.5585345 77.7300954 0.716951762 255 79 163
45.5585345 78.006295 0.96025061 255 79 163
45.4592359 78.0258195 0.979460613 255 79 163
45.4592359 78.2047034 1.17303396 255 79 163
45.5585345 78.2480127 1.22499384 255 79 163
45.4592359 78.3671385 1.37920135 255 79 163
45.5585345 78.4441099 1.49000991 255 79 163
45.4592359 78.5254077 1.61805366 255 79 163
45.604763 78.5747247 1.70295632 255 79 163
45.4592359 78.6435907 1.83140035 255 79 163
45.4592359 78.7447908 2.05012356 255 79 163
45.4569554 78.8200991 2.24670795 255 79 163
2.4850664 76.8578273 0.135846166 255 79 163
0.90163336 78.6952805 1.70341657 255 79 163
0.794441154 78.7917856 1.92145052 255 79 163
0.606557965 78.8195056 1.99365888 255 79 163
0.559371202 78.873122 2.15335297 255 79 163
0.351828063 78.9290634 2.36290191 255 79 163
17.2661391 76.6271098 0.0951268129 255 79 163
13.6675281 77.0357797 0.218833381 255 79 163
20.4250945 78.9637038 2.66088245 255 79 163
8.05697159 78.912245 2.32587665 255 79 163
16.1112185 78.6046421 1.602552 255 79 163
26.7631366 76.2985961 0.0422919376 255 79 163
19.5659146 77.1342884 0.276773915 255 79 163
30.6362794 78.9067265 2.46383935 255 79 163
34.6634029 78.7743256 2.07859007 255 79 163
33.5631644 78.4287323 1.42372018 255 79 163
38.5599096 76.4998268 0.10021813 255 79 163
31.3626875 77.3370162 0.417065971 255 79 163
40.8927845 76.8184141 0.201362654 255 79 163
45.657833 76.5561752 0.122114157 255 79 163
45.3102881 78.8539686 2.34920495 255 79 163
45.3102881 78.8917053 2.47960958 255 79 163
45.3102881 78.9196183 2.59167282 255 79 163
3.39521403 77.893702 0.695807622 255 79 163
3.85156358 77.3334066 0.330363411 255 79 163
4.53481216 77.5626673 0.460872506 255 79 163
5.09835391 76.7446641 0.106149679 255 79 163
4.19255001 77.9688331 0.761817536 255 79 163
3.85028785 78.3210893 1.12714468 255 79 163
5.36558048 77.5536579 0.457210489 255 79 163
6.40499767 76.686971 0.0927323637 255 79 163
9.64040463 77.4278517 0.394357096 255 79 163
6.61237082 76.9750266 0.180826674 255 79 163
7.02711711 77.5351764 0.450024754 255 79 163
6.46357536 78.2431271 1.04365511 255 79 163
6.99470744 78.5380073 1.44205928 255 79 163
5.90003362 78.7373862 1.81096265 255 79 163
7.54204435 78.4175871 1.26600275 255 79 163
8.24149778 78.1310833 0.929168197 255 79 163
8.84868811 78.3814037 1.22279774 255 79 163
10.7264893 78.1649405 0.974595012 255 79 163
11.2695316 78.460862 1.34437944 255 79 163
12.8834272 78.5110586 1.42830008 255 79 163
15.2966551 78.1880622 1.02081543 255 79 163
15.9531497 77.7230059 0.606074927 255 79 163
14.4820916 77.6502684 0.548723726 255 79 163
16.6886788 77.7589748 0.635870029 255 79 163
17.6477574 77.5593319 0.500328102 255 79 163
17.8385666 77.9776046 0.822709731 255 79 163
18.7007425 78.4504292 1.37014205 255 79 163
23.4981722 77.2004805 0.319964474 255 79 163
25.464301 77.233996 0.342920609 255 79 163
24.1654655 78.0664937 0.938786434 255 79 163
24.3566338 78.6845735 1.8089855 255 79 163
28.4793414 78.7218296 1.91612534 255 79 163
22.29528 78.6652776 1.75621123 255 79 163
26.4693145 77.8416087 0.744749676 255 79 163
28.8683885 77.5974119 0.570128452 255 79 163
29.9210145 78.1557245 1.06120956 255 79 163
30.1594361 78.4880584 1.49477069 255 79 163
30.9994835 78.3449156 1.29431443 255 79 163
31.8540438 78.3733586 1.3369578 255 79 163
32.462926 77.9376021 0.854733929 255 79 163
34.4952538 77.4954745 0.522424074 255 79 163
36.061537 77.574036 0.579594716 255 79 163
35.5954923 78.0754409 1.00133982 255 79 163
36.6116562 77.8714322 0.811808257 255 79 163
37.1617754 78.1420478 1.07829359 255 79 163
38.2620139 78.5821308 1.69259702 255 79 163
38.4109617 77.6906007 0.670754775 255 79 163
39.1610038 78.0024629 0.941057405 255 79 163
40.6610879 78.5151174 1.58777965 255 79 163
39.6104987 77.6355618 0.63329172 255 79 163
40.0379273 77.3737748 0.462468474 255 79 163
40.7769362 77.7769571 0.744975215 255 79 163
42.3377028 77.8617478 0.820136393 255 79 163
41.3614807 78.8084999 2.20134359 255 79 163
41.7116771 78.9045725 2.51769004 255 79 163
42.9112141 78.8889007 2.46216719 255 79 163
43.7109054 78.889828 2.46820441 255 79 163
3.51057714 76.6400841 0.0782109189 255 79 163
1.54915121 78.826772 2.01644241 255 79 163
1.92650624 78.843045 2.06423308 255 79 163
3.25101537 78.8109919 1.97921191 255 79 163
5.15272137 78.160184 0.948542305 255 79 163
5.63280705 78.2497562 1.04830246 255 79 163
5.90972982 78.2475573 1.04674418 255 79 163
11.8878497 77.9458124 0.768040555 255 79 163
12.4685298 77.8286051 0.6726857 255 79 163
12.606829 78.0835213 0.899277764 255 79 163
13.2754777 77.8633642 0.703899364 255 79 163
13.6776823 77.7938267 0.650226458 255 79 163
19.1333286 77.8644196 0.730150693 255 79 163
19.4207205 78.0439193 0.892714911 255 79 163
19.9955045 78.3637405 1.25741758 255 79 163
19.7807096 77.8059866 0.685616316 255 79 163
20.475703 77.7462213 0.642376946 255 79 163
20.3156369 77.9707082 0.828230702 255 79 163
21.3854915 78.270651 1.14785803 255 79 163
20.2102995 78.7561075 1.93885296 255 79 163
20.6020302 78.6228193 1.66378261 255 79 163
20.905293 78.7274976 1.87780999 255 79 163
22.3929812 78.1279145 0.992691392 255 79 163
22.8967261 78.0523182 0.918311663 255 79 163
23.3196392 78.0570435 0.925109708 255 79 163
26.6162256 77.0983753 0.282086508 255 79 163
27.1921878 77.0296889 0.253894065 255 79 163
27.621239 77.7218603 0.654806006 255 79 163
26.95123 77.3128397 0.389048502 255 79 163
27.5232983 78.1608711 1.05478074 255 79 163
27.474328 78.3507232 1.28293152 255 79 163
28.3229897 78.0910356 0.984545991 255 79 163
28.0502902 78.3043032 1.22616252 255 79 163
28.673865 78.2562698 1.17032864 255 79 163
29.0895815 78.2234103 1.13356467 255 79 163
34.240607 78.3196768 1.27736484 255 79 163
34.5793284 78.2617991 1.20612803 255 79 163
34.9180497 78.2017593 1.13631581 255 79 163
37.5857829 77.2163264 0.369618542 255 79 163
42.995873 76.8007036 0.197696379 255 79 163
41.8495917 78.4295211 1.45913211 255 79 163
44.0474172 76.7923219 0.195827798 255 79 163
41.8036202 78.6325118 1.79978667 255 79 163
42.0246899 78.5229832 1.6052442 255 79 163
43.9977679 77.2380388 0.393308418 255 79 163
44.5842225 76.7137347 0.169249391 255 79 163
42.6244584 78.5056585 1.57878075 255 79 163
42.320198 78.6736445 1.88374284 255 79 163
43.0243041 78.5065173 1.58131069 255 79 163
42.9866074 78.664631 1.86730677 255 79 163
43.835948 78.3629653 1.37005842 255 79 163
44.8764591 78.4552295 1.50545657 255 79 163
44.5850707 78.6254797 1.79427867 255 79 163
44.5850707 78.5634908 1.68100811 255 79 163
3.3231147 78.4418757 1.28437636 255 79 163
43.916858 77.8534605 0.816242459 255 79 163
44.4371135 77.9142225 0.871205367 255 79 163
44.236725 78.0751513 1.02763881 255 79 163
23.9540203 77.2969525 87.861017 218 222 230
23.9540203 77.2969525 87.861017 218 222 230
24.0667035 77.5548065 87.8415561 218 222 230
24.1672164 77.8028004 87.7847961 218 222 230
24.2483533 78.0481652 87.6877486 218 222 230
24.2809672 78.1975978 87.6053141 218 222 230
24.2911125 78.3185611 87.5230408 218 222 230
24.2911125 78.3185611 87.5230408 218 222 230
24.2911125 7.68699705 87.6946503 218 222 230
24.2911125 7.68699705 87.6946503 218 222 230
24.1247418 7.68699705 87.861017 218 222 230
24.1653443 7.68699705 87.8559865 218 222 230
24.2021487 7.68699705 87.8419127 218 222 230
24.2325996 7.68699705 87.8213187 218 222 230
24.2579814 7.68699705 87.7942777 218 222 230
24.2765038 7.68699705 87.7628191 218 222 230
24.2874289 7.68699705 87.7294621 218 222 230
24.290223 7.68699705 87.7118277 218 222 230
24.2326094 77.936688 87.7133183 218 222 230
24.1922469 77.807759 87.7621498 218 222 230
24.1922461 77.8077568 87.7621506 218 222 230
24.1715613 42.4919748 87.8229178 218 222 230
24.1945473 42.4919748 87.8068078 218 222 230
24.2060493 42.4919748 87.7971903 218 222 230
24.2169803 42.4919748 87.7868898 218 222 230
24.2169828 42.4919748 87.7868873 218 222 230
24.2591087 30.8903155 87.7574061 218 222 230
24.1927599 19.2886563 87.8389581 218 222 230
24.2679698 13.4878267 87.773272 218 222 230
24.2679686 13.4878267 87.7732741 218 222 230
24.2035163 10.5874119 87.839701 218 222 230
24.2694424 9.13720445 87.7754944 218 222 230
24.2694413 9.13720445 87.7754965 218 222 230
24.2055061 8.41210075 87.8397599 218 222 230
24.2697591 8.0495489 87.7758916 218 222 230
24.2697579 8.0495489 87.7758937 218 222 230
24.2059567 7.86827297 87.8397648 218 222 230
43.9973475 7.68699705 87.861017 218 222 230
24.2911125 7.68699705 87.861017 218 222 230
24.1247418 7.68699705 87.861017 218 222 230
24.1653443 7.68699705 87.8559865 218 222 230
24.2021487 7.68699705 87.8419127 218 222 230
24.2325996 7.68699705 87.8213187 218 222 230
24.2579814 7.68699705 87.7942777 218 222 230
24.2765038 7.68699705 87.7628191 218 222 230
24.2874289 7.68699705 87.7294621 218 222 230
24.290223 7.68699705 87.7118277 218 222 230
24.2911125 7.68699705 87.6946503 218 222 230
24.2911125 7.68699705 64.7494259 218 222 230
43.6843337 7.68699705 64.7494259 218 222 230
45.7571316 1.41093453 87.861017 218 222 230
45.7571316 5.927213 87.861017 218 222 230
45.7571316 1.41093453 0 218 222 230
45.7571316 75.6604096 0 218 222 230
45.7571316 78.4193264 1.45369712 218 222 230
45.7571316 77.9233164 0.881658828 218 222 230
45.7571316 77.5348735 0.574573819 218 222 230
45.7571316 77.1114086 0.331108597 218 222 230
45.7571316 76.5948862 0.133186804 218 222 230
45.7571316 76.1215192 0.0319357555 218 222 230
45.7571316 78.3036769 14.914878 218 222 230
45.7571316 78.0405668 33.1015615 218 222 230
45.7571316 77.7707511 51.4711414 218 222 230
45.7571316 77.6483817 64.7494259 218 222 230
45.7571316 7.68699705 64.7494259 218 222 230
45.7571316 5.61419913 64.7494259 218 222 230
45.7571316 53.8820693 24.6620692 218 222 230
45.7571316 73.3593713 36.92811 218 222 230
45.7571316 52.1093645 23.5456893 218 222 230
45.7571316 45.1434089 47.1830836 218 222 230
45.7571316 46.6903243 42.1935864 218 222 230
45.7571316 48.631695 35.3662149 218 222 230
45.7571316 50.5809141 28.4988991 218 222 230
45.7571316 46.2595504 46.7912528 218 222 230
45.7571316 73.3183678 37.2920288 218 222 230
45.7571316 73.3635892 37.2695016 218 222 230
45.7571316 73.4018609 37.2365208 218 222 230
45.7571316 73.4308203 37.1951227 218 222 230
45.7571316 73.4486795 37.1478627 218 222 230
45.7571316 73.4543361 37.0976586 218 222 230
45.7571316 73.4474409 37.0476095 218 222 230
45.7571316 73.4284195 37.0008052 218 222 230
45.7571316 73.3984462 36.9601352 218 222 230
45.7571316 5.927213 87.861017 218 222 230
45.7139088 6.31484315 87.861017 218 222 230
45.5747738 6.70731961 87.861017 218 222 230
45.3365093 7.06891596 87.861017 218 222 230
45.1667226 7.24228026 87.861017 218 222 230
44.9034054 7.43582131 87.861017 218 222 230
44.6156312 7.57480676 87.861017 218 222 230
44.3192902 7.65729763 87.861017 218 222 230
44.1563339 7.67980057 87.861017 218 222 230
43.9973475 7.68699705 87.861017 218 222 230
43.6843337 7.68699705 64.7494259 218 222 230
45.7571316 5.61419913 64.7494259 218 222 230
45.7141433 6.03415647 64.7494259 218 222 230
45.5760249 6.46154534 64.7494259 218 222 230
45.3379975 6.86395396 64.7494259 218 222 230
45.1505991 7.0793124 64.7494259 218 222 230
44.9353819 7.26688465 64.7494259 218 222 230
44.6373993 7.45489387 64.7494259 218 222 230
44.2801972 7.59950463 64.7494259 218 222 230
43.9782702 7.66605014 64.7494259 218 222 230
4.94181091 30.0172205 87.861017 218 222 230
4.94181091 29.1454564 87.861017 218 222 230
4.94181091 30.0172205 69.5583366 218 222 230
4.94181091 29.1454564 69.5583366 218 222 230
4.94181091 30.0172205 87.861017 218 222 230
4.97009814 30.2682766 87.861017 218 222 230
5.05354139 30.5067437 87.861017 218 222 230
5.18795646 30.7206641 87.861017 218 222 230
5.36660323 30.8993108 87.861017 218 222 230
5.5805236 31.0337259 87.861017 218 222 230
5.8189907 31.1171692 87.861017 218 222 230
6.07004681 31.1454564 87.861017 218 222 230
6.07004681 31.1454564 69.5583366 218 222 230
4.94181091 30.0172205 69.5583366 218 222 230
4.97009814 30.2682766 69.5583366 218 222 230
5.05354139 30.5067437 69.5583366 218 222 230
5.18795646 30.7206641 69.5583366 218 222 230
5.36660323 30.8993108 69.5583366 218 222 230
5.5805236 31.0337259 69.5583366 218 222 230
5.8189907 31.1171692 69.5583366 218 222 230
12.138341 29.1454564 87.6976788 218 222 230
12.138341 29.1454564 69.7346593 218 222 230
12.3016821 29.1454564 87.861017 218 222 230
12.2618096 29.1454564 87.8560757 218 222 230
12.2256766 29.1454564 87.8422562 218 222 230
12.1957858 29.1454564 87.8220395 218 222 230
12.1708712 29.1454564 87.7954963 218 222 230
12.1526874 29.1454564 87.7646154 218 222 230
12.1419592 29.1454564 87.7318654 218 222 230
12.1392148 29.1454564 87.7145487 218 222 230
12.138341 29.1454564 87.861017 218 222 230
4.94181091 29.1454564 87.861017 218 222 230
4.94181091 29.1454564 69.5583366 218 222 230
11.9620183 29.1454564 69.5583366 218 222 230
12.1329974 29.1454564 69.6915798 218 222 230
12.1180717 29.1454564 69.65258 218 222 230
12.0962572 29.1454564 69.620337 218 222 230
12.0676272 29.1454564 69.5934628 218 222 230
12.0343121 29.1454564 69.5738386 218 222 230
11.9989573 29.1454564 69.5622493 218 222 230
11.9802506 29.1454564 69.5592818 218 222 230
12.138341 31.1454564 87.6957958 218 222 230
12.138341 31.1454564 69.7172114 218 222 230
12.1335281 31.1454564 69.6784028 218 222 230
12.120081 31.1454564 69.643261 218 222 230
12.1004232 31.1454564 69.6142036 218 222 230
12.0746213 31.1454564 69.5899844 218 222 230
12.0445985 31.1454564 69.5723012 218 222 230
12.0127425 31.1454564 69.5618605 218 222 230
11.9958898 31.1454564 69.5591878 218 222 230
11.9794662 31.1454564 69.5583366 218 222 230
6.07004681 31.1454564 69.5583366 218 222 230
6.07004681 31.1454564 87.861017 218 222 230
12.138341 31.1454564 87.861017 218 222 230
12.3035592 31.1454564 87.861017 218 222 230
12.2632278 31.1454564 87.8560187 218 222 230
12.2266791 31.1454564 87.84204 218 222 230
12.1964447 31.1454564 87.8215905 218 222 230
12.1712439 31.1454564 87.7947418 218 222 230
12.1528514 31.1454564 87.7635056 218 222 230
12.1420003 31.1454564 87.7303787 218 222 230
12.1392245 31.1454564 87.7128628 218 222 230
12.3016821 29.1454564 87.861017 218 222 230
12.2618096 29.1454564 87.8560757 218 222 230
12.2256766 29.1454564 87.8422562 218 222 230
12.1957858 29.1454564 87.8220395 218 222 230
12.1708712 29.1454564 87.7954963 218 222 230
12.1526874 29.1454564 87.7646154 218 222 230
12.1419592 29.1454564 87.7318654 218 222 230
12.1392148 29.1454564 87.7145487 218 222 230
12.138341 29.1454564 87.6976788 218 222 230
12.138341 29.1454564 87.6976788 218 222 230
12.138341 31.1454564 87.6957958 218 222 230
12.3035592 31.1454564 87.861017 218 222 230
12.2632278 31.1454564 87.8560187 218 222 230
12.2266791 31.1454564 87.84204 218 222 230
12.1964447 31.1454564 87.8215905 218 222 230
12.1712439 31.1454564 87.7947418 218 222 230
12.1528514 31.1454564 87.7635056 218 222 230
12.1420003 31.1454564 87.7303787 218 222 230
12.1392245 31.1454564 87.7128628 218 222 230
12.1862192 29.3676786 87.8131388 218 222 230
12.1863416 29.8121231 87.8130164 218 222 230
12.1864969 30.2565675 87.8128611 218 222 230
12.1866411 30.7010119 87.8127168 218 222 230
12.1866955 30.9232342 87.8126624 218 222 230
43.6843337 7.68699705 64.7494259 218 222 230
24.2911125 7.68699705 64.7494259 218 222 230
24.2911125 79.0052801 64.7494259 218 222 230
44.4002332 79.0052801 64.7494259 218 222 230
44.7314082 78.964245 64.7494259 218 222 230
45.0315822 78.8494528 64.7494259 218 222 230
45.2799257 78.6814908 64.7494259 218 222 230
45.4136885 78.5506464 64.7494259 218 222 230
45.5494328 78.369848 64.7494259 218 222 230
45.6516675 78.1728676 64.7494259 218 222 230
45.7188111 77.9685778 64.7494259 218 222 230
45.7479097 77.8063098 64.7494259 218 222 230
45.7571316 77.6483817 64.7494259 218 222 230
45.7571316 7.68699705 64.7494259 218 222 230
45.7571316 5.61419913 64.7494259 218 222 230
45.7141433 6.03415647 64.7494259 218 222 230
45.5760249 6.46154534 64.7494259 218 222 230
45.3379975 6.86395396 64.7494259 218 222 230
45.1505991 7.0793124 64.7494259 218 222 230
44.9353819 7.26688465 64.7494259 218 222 230
44.6373993 7.45489387 64.7494259 218 222 230
44.2801972 7.59950463 64.7494259 218 222 230
43.9782702 7.66605014 64.7494259 218 222 230
45.1613403 79.0052801 3.34325897 218 222 230
45.4523945 78.9309686 2.64301047 218 222 230
45.6800931 78.7079671 1.96611002 218 222 230
45.7387746 78.5639101 1.68416049 218 222 230
45.7571316 78.4193264 1.45369712 218 222 230
45.7571316 78.3036769 14.914878 218 222 230
45.7571316 78.0405668 33.1015615 218 222 230
45.7571316 77.7707511 51.4711414 218 222 230
45.7571316 77.6483817 64.7494259 218 222 230
44.4002332 79.0052801 64.7494259 218 222 230
44.7314082 78.964245 64.7494259 218 222 230
45.0315822 78.8494528 64.7494259 218 222 230
45.2799257 78.6814908 64.7494259 218 222 230
45.4136885 78.5506464 64.7494259 218 222 230
45.5494328 78.369848 64.7494259 218 222 230
45.6516675 78.1728676 64.7494259 218 222 230
45.7188111 77.9685778 64.7494259 218 222 230
45.7479097 77.8063098 64.7494259 218 222 230
44.7775096 79.0052801 34.0463424 218 222 230
44.5192776 79.0052801 51.7406817 218 222 230
45.6812726 78.7055852 2.04835379 218 222 230
45.5323016 78.8624573 6.96704916 218 222 230
45.6751105 78.6812409 8.77894425 218 222 230
45.5697305 78.817879 9.1290685 218 222 230
45.3826014 78.9116475 17.4348265 218 222 230
45.5135906 78.7617391 24.4806102 218 222 230
45.6453668 78.5582211 27.3542606 218 222 230
45.5928277 78.3480645 55.987083 218 222 230
44.9639821 78.8995032 58.2450538 218 222 230
45.0601466 78.8535744 58.2450538 218 222 230
45.1533727 78.799259 58.2450538 218 222 230
45.2425863 78.7368536 58.2450538 218 222 230
45.3100669 78.6816886 58.2450538 218 222 230
45.3738654 78.6220139 58.2450538 218 222 230
45.1839551 78.7701674 60.4131778 218 222 230
45.3006787 78.6795754 60.4131778 218 222 230
45.4070039 78.5761456 60.4131778 218 222 230
45.4919727 78.4738622 60.4131778 218 222 230
45.5580131 78.3771133 60.4131778 218 222 230
45.6655424 78.6389233 16.1748523 218 222 230
45.3690146 78.8481087 28.6270711 218 222 230
45.2835154 78.8868761 30.7003015 218 222 230
45.348454 78.8397826 31.658185 218 222 230
45.234491 78.8746199 36.7930121 218 222 230
45.3206702 78.8285313 35.719992 218 222 230
45.0948951 78.9316983 38.4025422 218 222 230
45.1653856 78.8573436 45.7527218 218 222 230
45.4307126 78.6788612 42.7587419 218 222 230
45.2998976 78.8201192 38.7815887 218 222 230
45.6210115 78.4607998 39.5396818 218 222 230
45.551409 78.4972712 46.6608684 218 222 230
45.674476 78.2613796 47.1149417 218 222 230
45.6041467 78.3933407 48.6119316 218 222 230
45.5443957 78.4799528 49.6099249 218 222 230
45.1117781 78.8439417 53.8638823 218 222 230
45.2129393 78.7849047 53.1112254 218 222 230
45.0634096 78.8634251 55.3242728 218 222 230
45.5605019 78.6480757 30.8096447 218 222 230
45.6580326 78.493405 30.8643163 218 222 230
45.5571393 78.6419672 31.820016 218 222 230
45.6363171 78.5220223 31.9009315 218 222 230
45.6554906 78.4802752 32.3798732 218 222 230
45.6046716 78.5646708 32.7778995 218 222 230
45.4723904 78.7205389 33.573952 218 222 230
45.6012775 78.5548618 34.1318352 218 222 230
45.6520747 78.4626307 34.4107768 218 222 230
45.6301797 78.4974727 34.9472868 218 222 230
45.6271026 78.4851642 36.4780851 218 222 230
45.5458367 78.6214343 35.2048552 218 222 230
45.144578 78.8521417 48.7017784 218 222 230
45.2894891 78.7478578 49.9875128 218 222 230
45.1346943 78.8496708 50.1763067 218 222 230
45.0827651 78.8747227 50.6753033 218 222 230
45.0474632 78.8902537 51.0079677 218 222 230
44.9754487 78.9184264 51.6732966 218 222 230
45.6409101 78.2882385 52.0402978 218 222 230
45.6703947 78.2246478 51.5385265 218 222 230
45.6244413 78.3198963 52.2911834 218 222 230
45.597576 78.3670577 52.6675119 218 222 230
45.5959244 78.3604513 53.7740356 218 222 230
45.4922801 78.5241415 52.8154164 218 222 230
45.2360796 78.8952845 33.4121209 218 222 230
45.319768 78.8457438 33.4660646 218 222 230
45.3165583 78.844573 33.9173765 218 222 230
45.2303388 78.8940726 34.0890888 218 222 230
45.2743734 78.8686917 34.2285596 218 222 230
45.398937 78.7816996 34.1963181 218 222 230
45.252954 78.8792357 34.4968146 218 222 230
45.1860701 78.9127198 34.6255988 218 222 230
45.4127925 78.7677742 34.4681353 218 222 230
45.3601233 78.8078097 34.7328281 218 222 230
45.6129763 78.3602065 50.356193 218 222 230
45.5015743 78.5291448 50.7113192 218 222 230
45.6424342 78.2976417 50.7293271 218 222 230
45.435962 78.6040959 51.1069149 218 222 230
45.4225811 78.6172807 51.2732471 218 222 230
45.3950585 78.643207 51.6059116 218 222 230
45.5861947 78.4011208 51.0732224 218 222 230
45.6174257 78.34349 51.2283237 218 222 230
45.0174433 78.8991856 52.0764649 218 222 230
45.3668624 78.6687725 51.8567972 218 222 230
45.3524189 78.6812857 51.98224 218 222 230
45.0384258 78.8887889 52.278049 218 222 230
45.0976548 78.8579061 52.5557745 218 222 230
24.2911125 7.68699705 87.6946503 218 222 230
24.2911125 7.68699705 64.7494259 218 222 230
24.2911125 79.0052801 64.7494259 218 222 230
24.2911125 79.0052801 86.1550073 218 222 230
24.2911125 78.3185611 87.5230408 218 222 230
24.2911125 78.6102258 87.2467331 218 222 230
24.2911125 78.8273357 86.913615 218 222 230
24.2911125 78.958167 86.5531667 218 222 230
24.2911125 78.9939303 86.3514683 218 222 230
44.8165778 46.2595504 46.7912528 218 222 230
45.0020078 46.2374034 46.7990277 218 222 230
45.172594 46.1757807 46.8206608 218 222 230
45.3052237 46.0959535 46.8486848 218 222 230
45.4153109 46.0027317 46.8814111 218 222 230
45.513597 45.8911498 46.9205829 218 222 230
45.6210594 45.7199758 46.9806749 218 222 230
45.6983184 45.530488 47.0471962 218 222 230
45.7431604 45.3342401 47.1160907 218 222 230
45.7571316 45.1434089 47.1830836 218 222 230
45.7571316 46.6903243 42.1935864 218 222 230
45.7571316 48.631695 35.3662149 218 222 230
45.7571316 50.5809141 28.4988991 218 222 230
45.7571316 52.1093645 23.5456893 218 222 230
43.7262763 53.8820693 24.6620692 218 222 230
44.1363229 53.8456852 24.6391559 218 222 230
44.5536121 53.7287121 24.5654909 218 222 230
44.946868 53.5268791 24.4383843 218 222 230
45.2832485 53.2484374 24.2630327 218 222 230
45.5364607 52.9138698 24.0523351 218 222 230
45.6526539 52.6713565 23.8996098 218 222 230
45.730385 52.3965609 23.7265543 218 222 230
45.7506291 52.2513433 23.635102 218 222 230
44.6460811 47.8706569 42.1139968 218 222 230
44.271427 50.0708098 35.726661 218 222 230
43.8965427 52.2725723 29.3346526 218 222 230
45.4816498 45.9990874 46.7015349 218 222 230
45.1623078 53.3196746 24.4683493 218 222 230
45.1193246 46.9980998 44.429545 218 222 230
45.6868198 46.3919479 44.4638334 218 222 230
44.3903649 53.252181 26.1839684 218 222 230
44.5172347 52.9470653 26.9534937 218 222 230
45.6190736 51.9414997 26.4805949 218 222 230
45.6303453 52.1826412 25.619528 218 222 230
44.6785873 53.6594356 24.5801916 218 222 230
45.4626725 46.7492732 44.4653757 218 222 230
45.4542633 46.9973653 43.7193108 218 222 230
45.0805246 47.5061093 42.9414884 218 222 230
45.0584193 47.7598299 42.1973623 218 222 230
45.4348176 47.4910654 42.2263253 218 222 230
45.6826353 46.8684262 42.9649158 218 222 230
45.6802338 47.1040334 42.2145503 218 222 230
45.6020153 47.9536196 39.9679858 218 222 230
45.2624848 47.8795165 41.4732129 218 222 230
45.1639505 48.0652469 41.0937304 218 222 230
45.0031372 48.3310727 40.5201082 218 222 230
45.381195 48.5944669 38.8583543 218 222 230
45.0676176 49.1605612 37.8399394 218 222 230
45.2364206 48.2542373 40.3529396 218 222 230
45.5165444 48.8724897 37.3813301 218 222 230
45.6602845 48.6654297 37.1303164 218 222 230
45.5765928 48.9935664 36.6366403 218 222 230
44.8195171 49.9618974 35.7229618 218 222 230
45.5048141 49.2117943 36.3073403 218 222 230
45.3231005 49.6396161 35.6457664 218 222 230
45.6532211 49.1553628 35.5127789 218 222 230
45.4890257 49.6640339 34.8747159 218 222 230
45.559394 49.6621744 34.4843446 218 222 230
45.4772632 50.0035318 33.7999215 218 222 230
45.2648405 50.6854135 32.4307883 218 222 230
44.930875 50.5955445 33.5690245 218 222 230
45.6461413 49.6455592 33.8940254 218 222 230
45.5337468 50.7059167 31.1392195 218 222 230
44.7379285 51.2622117 31.8049199 218 222 230
44.6354715 51.5938847 30.9222956 218 222 230
44.9907874 51.3646412 31.0175945 218 222 230
44.8339863 51.6934526 30.3072766 218 222 230
44.57966 52.1683548 29.2354912 218 222 230
44.9644283 51.7414377 29.8909283 218 222 230
45.2105544 51.7947538 29.0435392 218 222 230
45.5970345 51.0476691 29.567605 218 222 230
44.7921944 52.2449673 28.6740756 218 222 230
44.556973 52.4277276 28.4747574 218 222 230
45.6259143 51.2144407 28.780384 218 222 230
44.5428448 52.6007475 27.9676376 218 222 230
45.19049 52.2992957 27.517179 218 222 230
45.5154505 51.5850033 28.3623965 218 222 230
45.6234222 51.4549907 28.0131665 218 222 230
45.6218732 51.6163144 27.5020179 218 222 230
45.1845993 52.4682302 27.0086519 218 222 230
45.1818182 52.5528527 26.7544419 218 222 230
44.9419483 52.8251315 26.5777761 218 222 230
45.1340148 52.7237617 26.3760004 218 222 230
45.3385886 52.5666221 26.1318459 218 222 230
45.1436011 52.8530158 25.948458 218 222 230
45.1492634 53.0083047 25.4549974 218 222 230
45.4449506 47.2446032 42.9729516 218 222 230
44.8916677 50.0077706 35.4789426 218 222 230
44.9278493 50.0286072 35.3562096 218 222 230
44.9278483 50.2183646 34.7607493 218 222 230
45.190704 51.0490174 31.4944432 218 222 230
44.4395805 52.0861799 29.6400627 218 222 230
45.2821731 51.4303473 29.9580346 218 222 230
45.1062939 52.0858363 28.4459511 218 222 230
44.6722323 53.4983818 25.0716663 218 222 230
1.19659209 66.0151613 10.3342526 218 222 230
19.9850013 66.0151613 10.3342526 218 222 230
19.9850013 65.35073 10.4149292 218 222 230
19.9850013 64.7249131 10.6522703 218 222 230
19.9850013 64.1740807 11.0324824 218 222 230
19.9850013 63.7302451 11.5334692 218 222 230
19.9850013 63.4192007 12.1261149 218 222 230
19.9850013 63.259024 12.7759773 218 222 230
19.9850013 63.259024 13.4452886 218 222 230
19.9850013 63.4192007 14.095151 218 222 230
19.9850013 63.7302451 14.6877967 218 222 230
19.9850013 64.1740807 15.1887835 218 222 230
19.9850013 64.7249131 15.5689956 218 222 230
19.9850013 65.35073 15.8063367 218 222 230
19.9850013 66.0151613 15.8870133 218 222 230
19.9850013 66.6795927 15.8063367 218 222 230
19.9850013 67.3054096 15.5689956 218 222 230
19.9850013 67.856242 15.1887835 218 222 230
19.9850013 68.3000776 14.6877967 218 222 230
19.9850013 68.611122 14.095151 218 222 230
19.9850013 68.7712987 13.4452886 218 222 230
19.9850013 68.7712987 12.7759773 218 222 230
19.9850013 68.611122 12.1261149 218 222 230
19.9850013 68.3000776 11.5334692 218 222 230
19.9850013 67.856242 11.0324824 218 222 230
19.9850013 67.3054096 10.6522703 218 222 230
19.9850013 66.6795927 10.4149292 218 222 230
19.9850013 66.0151613 10.3342526 218 222 230
1.19659209 66.0151613 10.3342526 218 222 230
1.19659209 65.35073 10.4149292 218 222 230
1.19659209 64.7249131 10.6522703 218 222 230
1.19659209 64.1740807 11.0324824 218 222 230
1.19659209 63.7302451 11.5334692 218 222 230
1.19659209 63.4192007 12.1261149 218 222 230
1.19659209 63.259024 12.7759773 218 222 230
1.19659209 63.259024 13.4452886 218 222 230
1.19659209 63.4192007 14.095151 218 222 230
1.19659209 63.7302451 14.6877967 218 222 230
1.19659209 64.1740807 15.1887835 218 222 230
1.19659209 64.7249131 15.5689956 218 222 230
1.19659209 65.35073 15.8063367 218 222 230
1.19659209 66.0151613 15.8870133 218 222 230
1.19659209 66.6795927 15.8063367 218 222 230
1.19659209 67.3054096 15.5689956 218 222 230
1.19659209 67.856242 15.1887835 218 222 230
1.19659209 68.3000776 14.6877967 218 222 230
1.19659209 68.611122 14.095151 218 222 230
1.19659209 68.7712987 13.4452886 218 222 230
1.19659209 68.7712987 12.7759773 218 222 230
1.19659209 68.611122 12.1261149 218 222 230
1.19659209 68.3000776 11.5334692 218 222 230
1.19659209 67.856242 11.0324824 218 222 230
1.19659209 67.3054096 10.6522703 218 222 230
1.19659209 66.6795927 10.4149292 218 222 230
4.94181091 30.0172205 69.5583366 218 222 230
4.94181091 29.1454564 69.5583366 218 222 230
11.9620183 29.1454564 69.5583366 218 222 230
11.9794662 31.1454564 69.5583366 218 222 230
6.07004681 31.1454564 69.5583366 218 222 230
4.97009814 30.2682766 69.5583366 218 222 230
5.05354139 30.5067437 69.5583366 218 222 230
5.18795646 30.7206641 69.5583366 218 222 230
5.36660323 30.8993108 69.5583366 218 222 230
5.5805236 31.0337259 69.5583366 218 222 230
5.8189907 31.1171692 69.5583366 218 222 230
12.138341 29.1454564 87.6976788 218 222 230
12.138341 29.1454564 69.7346593 218 222 230
12.138341 31.1454564 69.7172114 218 222 230
12.138341 31.1454564 87.6957958 218 222 230
12.138341 29.1454564 69.7346593 218 222 230
12.1329974 29.1454564 69.6915798 218 222 230
12.1180717 29.1454564 69.65258 218 222 230
12.0962572 29.1454564 69.620337 218 222 230
12.0676272 29.1454564 69.5934628 218 222 230
12.0343121 29.1454564 69.5738386 218 222 230
11.9989573 29.1454564 69.5622493 218 222 230
11.9802506 29.1454564 69.5592818 218 222 230
11.9620183 29.1454564 69.5583366 218 222 230
11.9794662 31.1454564 69.5583366 218 222 230
12.138341 31.1454564 69.7172114 218 222 230
12.1335281 31.1454564 69.6784028 218 222 230
12.120081 31.1454564 69.643261 218 222 230
12.1004232 31.1454564 69.6142036 218 222 230
12.0746213 31.1454564 69.5899844 218 222 230
12.0445985 31.1454564 69.5723012 218 222 230
12.0127425 31.1454564 69.5618605 218 222 230
11.9958898 31.1454564 69.5591878 218 222 230
19.9850013 66.0151613 10.3342526 218 222 230
19.9850013 65.35073 10.4149292 218 222 230
19.9850013 64.7249131 10.6522703 218 222 230
19.9850013 64.1740807 11.0324824 218 222 230
19.9850013 63.7302451 11.5334692 218 222 230
19.9850013 63.4192007 12.1261149 218 222 230
19.9850013 63.259024 12.7759773 218 222 230
19.9850013 63.259024 13.4452886 218 222 230
19.9850013 63.4192007 14.095151 218 222 230
19.9850013 63.7302451 14.6877967 218 222 230
19.9850013 64.1740807 15.1887835 218 222 230
19.9850013 64.7249131 15.5689956 218 222 230
19.9850013 65.35073 15.8063367 218 222 230
19.9850013 66.0151613 15.8870133 218 222 230
19.9850013 66.6795927 15.8063367 218 222 230
19.9850013 67.3054096 15.5689956 218 222 230
19.9850013 67.856242 15.1887835 218 222 230
19.9850013 68.3000776 14.6877967 218 222 230
19.9850013 68.611122 14.095151 218 222 230
19.9850013 68.7712987 13.4452886 218 222 230
19.9850013 68.7712987 12.7759773 218 222 230
19.9850013 68.611122 12.1261149 218 222 230
19.9850013 68.3000776 11.5334692 218 222 230
19.9850013 67.856242 11.0324824 218 222 230
19.9850013 67.3054096 10.6522703 218 222 230
19.9850013 66.6795927 10.4149292 218 222 230
19.9850013 66.0151613 14.2007257 218 222 230
19.9850013 65.7542851 14.1690496 218 222 230
19.9850013 65.50857 14.0758621 218 222 230
19.9850013 65.2922962 13.9265791 218 222 230
19.9850013 65.1180326 13.7298762 218 222 230
19.9850013 64.9959069 13.4971852 218 222 230
19.9850013 64.9330166 13.2420291 218 222 230
19.9850013 64.9330166 12.9792368 218 222 230
19.9850013 64.9959069 12.7240807 218 222 230
19.9850013 65.1180326 12.4913897 218 222 230
19.9850013 65.2922962 12.2946868 218 222 230
19.9850013 65.50857 12.1454038 218 222 230
19.9850013 65.7542851 12.0522163 218 222 230
19.9850013 66.0151613 12.0205402 218 222 230
19.9850013 66.2760376 12.0522163 218 222 230
19.9850013 66.5217527 12.1454038 218 222 230
19.9850013 66.7380265 12.2946868 218 222 230
19.9850013 66.9122901 12.4913897 218 222 230
19.9850013 67.0344158 12.7240807 218 222 230
19.9850013 67.0973061 12.9792368 218 222 230
19.9850013 67.0973061 13.2420291 218 222 230
19.9850013 67.0344158 13.4971852 218 222 230
19.9850013 66.9122901 13.7298762 218 222 230
19.9850013 66.7380265 13.9265791 218 222 230
19.9850013 66.5217527 14.0758621 218 222 230
19.9850013 66.2760376 14.1690496 218 222 230
0 66.0151613 14.2007257 218 222 230
0 65.7542851 14.1690496 218 222 230
0 65.50857 14.0758621 218 222 230
0 65.2922962 13.9265791 218 222 230
0 65.1180326 13.7298762 218 222 230
0 64.9959069 13.4971852 218 222 230
0 64.9330166 13.2420291 218 222 230
0 64.9330166 12.9792368 218 222 230
0 64.9959069 12.7240807 218 222 230
0 65.1180326 12.4913897 218 222 230
0 65.2922962 12.2946868 218 222 230
0 65.50857 12.1454038 218 222 230
0 65.7542851 12.0522163 218 222 230
0 66.0151613 12.0205402 218 222 230
0 66.2760376 12.0522163 218 222 230
0 66.5217527 12.1454038 218 222 230
0 66.7380265 12.2946868 218 222 230
0 66.9122901 12.4913897 218 222 230
0 67.0344158 12.7240807 218 222 230
0 67.0973061 12.9792368 218 222 230
0 67.0973061 13.2420291 218 222 230
0 67.0344158 13.4971852 218 222 230
0 66.9122901 13.7298762 218 222 230
0 66.7380265 13.9265791 218 222 230
0 66.5217527 14.0758621 218 222 230
0 66.2760376 14.1690496 218 222 230
0 66.0151613 14.2007257 218 222 230
19.9850013 66.0151613 14.2007257 218 222 230
19.9850013 66.0151613 14.2007257 218 222 230
19.9850013 65.7542851 14.1690496 218 222 230
19.9850013 65.50857 14.0758621 218 222 230
19.9850013 65.2922962 13.9265791 218 222 230
19.9850013 65.1180326 13.7298762 218 222 230
19.9850013 64.9959069 13.4971852 218 222 230
19.9850013 64.9330166 13.2420291 218 222 230
19.9850013 64.9330166 12.9792368 218 222 230
19.9850013 64.9959069 12.7240807 218 222 230
19.9850013 65.1180326 12.4913897 218 222 230
19.9850013 65.2922962 12.2946868 218 222 230
19.9850013 65.50857 12.1454038 218 222 230
19.9850013 65.7542851 12.0522163 218 222 230
19.9850013 66.0151613 12.0205402 218 222 230
19.9850013 66.2760376 12.0522163 218 222 230
19.9850013 66.5217527 12.1454038 218 222 230
19.9850013 66.7380265 12.2946868 218 222 230
19.9850013 66.9122901 12.4913897 218 222 230
19.9850013 67.0344158 12.7240807 218 222 230
19.9850013 67.0973061 12.9792368 218 222 230
19.9850013 67.0973061 13.2420291 218 222 230
19.9850013 67.0344158 13.4971852 218 222 230
19.9850013 66.9122901 13.7298762 218 222 230
19.9850013 66.7380265 13.9265791 218 222 230
19.9850013 66.5217527 14.0758621 218 222 230
19.9850013 66.2760376 14.1690496 218 222 230
0 66.0151613 14.2007257 218 222 230
0 65.7542851 14.1690496 218 222 230
0 65.50857 14.0758621 218 222 230
0 65.2922962 13.9265791 218 222 230
0 65.1180326 13.7298762 218 222 230
0 64.9959069 13.4971852 218 222 230
0 64.9330166 13.2420291 218 222 230
0 64.9330166 12.9792368 218 222 230
0 64.9959069 12.7240807 218 222 230
0 65.1180326 12.4913897 218 222 230
0 65.2922962 12.2946868 218 222 230
0 65.50857 12.1454038 218 222 230
0 65.7542851 12.0522163 218 222 230
0 66.0151613 12.0205402 218 222 230
0 66.2760376 12.0522163 218 222 230
0 66.5217527 12.1454038 218 222 230
0 66.7380265 12.2946868 218 222 230
0 66.9122901 12.4913897 218 222 230
0 67.0344158 12.7240807 218 222 230
0 67.0973061 12.9792368 218 222 230
0 67.0973061 13.2420291 218 222 230
0 67.0344158 13.4971852 218 222 230
0 66.9122901 13.7298762 218 222 230
0 66.7380265 13.9265791 218 222 230
0 66.5217527 14.0758621 218 222 230
0 66.2760376 14.1690496 218 222 230
3 47 2 48
3 49 48 2
3 46 2 47
3 50 49 2
3 45 2 46
3 25 50 2
3 44 2 45
3 26 25 2
3 43 2 44
3 22 43 42
3 22 2 43
3 23 39 38
3 23 40 39
3 23 41 40
3 23 42 41
3 23 22 42
3 21 2 22
3 20 2 21
3 19 2 20
3 24 31 30
3 24 32 31
3 24 33 32
3 24 34 33
3 24 35 34
3 24 36 35
3 24 37 36
3 24 38 37
3 24 23 38
3 0 14 24
3 0 27 26
3 0 28 27
3 0 29 28
3 0 30 29
3 0 26 2
3 0 24 30
3 3 13 14
3 3 15 13
3 3 16 15
3 3 17 16
3 3 18 17
3 3 2 19
3 3 19 18
3 11 12 3
3 7 8 9
3 7 9 10
3 6 10 11
3 6 7 10
3 5 11 3
3 5 6 11
3 4 3 14
3 4 5 3
3 1 4 14
3 1 14 0
3 58 55 56
3 58 56 57
3 53 54 55
3 51 58 59
3 51 55 58
3 51 53 55
3 52 53 51
3 61 60 53
3 61 53 52
3 63 62 70
3 75 70 69
3 75 63 70
3 76 69 68
3 76 75 69
3 77 68 67
3 77 76 68
3 78 67 66
3 78 77 67
3 79 78 66
3 80 66 65
3 80 79 66
3 81 65 64
3 81 80 65
3 72 81 64
3 73 72 64
3 74 73 64
3 71 74 64
3 117 82 103
3 117 106 82
3 116 117 103
3 84 102 103
3 84 103 82
3 87 84 85
3 87 85 86
3 89 87 88
3 91 89 90
3 91 84 87
3 91 87 89
3 101 102 84
3 92 84 91
3 92 101 84
3 93 100 101
3 93 101 92
3 94 99 100
3 94 100 93
3 97 98 99
3 97 99 94
3 95 97 94
3 96 97 95
3 83 107 108
3 83 108 109
3 83 109 110
3 83 110 111
3 83 111 112
3 83 112 113
3 83 113 114
3 104 83 114
3 104 114 115
3 83 82 106
3 83 106 105
3 83 105 107
3 103 104 115
3 103 115 116
3 126 123 124
3 126 124 125
3 120 123 126
3 121 120 126
3 119 126 127
3 119 121 126
3 122 121 119
3 118 122 119
3 128 119 127
3 150 131 129
3 150 132 131
3 151 133 132
3 151 132 150
3 152 134 133
3 152 133 151
3 153 134 152
3 154 135 134
3 154 134 153
3 155 136 135
3 155 137 136
3 155 138 137
3 155 139 138
3 155 135 154
3 156 129 130
3 156 150 129
3 157 150 156
3 158 150 157
3 159 150 158
3 159 151 150
3 160 152 151
3 160 151 159
3 161 152 160
3 162 153 152
3 162 155 154
3 162 154 153
3 162 152 161
3 163 140 139
3 163 139 155
3 163 155 162
3 164 147 148
3 165 148 149
3 165 149 166
3 165 164 148
3 165 166 164
3 167 149 141
3 167 166 149
3 168 167 141
3 169 141 142
3 169 168 141
3 170 159 158
3 170 158 157
3 170 161 160
3 170 157 156
3 170 160 159
3 170 162 161
3 171 162 170
3 171 172 163
3 171 163 162
3 171 170 172
3 173 170 156
3 173 156 130
3 173 172 170
3 174 173 130
3 175 174 130
3 176 146 147
3 176 147 164
3 177 142 143
3 177 143 144
3 177 169 142
3 178 163 172
3 178 172 173
3 179 174 175
3 179 140 163
3 180 179 175
3 181 140 179
3 181 179 180
3 182 181 183
3 184 169 177
3 184 182 183
3 185 140 181
3 185 144 145
3 185 145 140
3 185 184 177
3 185 182 184
3 185 181 182
3 185 177 144
3 186 173 174
3 186 163 178
3 186 178 173
3 186 179 163
3 186 174 179
3 187 175 130
3 187 180 175
3 187 181 180
3 188 187 130
3 189 181 187
3 189 183 181
3 189 184 183
3 189 187 188
3 190 189 188
3 191 130 146
3 191 146 176
3 191 176 164
3 191 188 130
3 191 190 188
3 191 164 166
3 191 166 167
3 192 184 189
3 192 169 184
3 192 189 190
3 192 190 191
3 192 191 167
3 192 167 168
3 192 168 169
3 197 195 193
3 197 196 195
3 194 198 197
3 194 199 198
3 194 200 199
3 194 201 200
3 194 197 193
3 202 201 194
3 203 202 194
3 204 203 194
3 205 204 194
3 206 205 194
3 219 208 207
3 219 209 208
3 219 207 218
3 220 209 219
3 221 210 209
3 221 209 220
3 222 211 210
3 222 212 211
3 222 210 221
3 223 212 222
3 224 213 212
3 224 212 223
3 225 214 213
3 225 213 224
3 226 215 214
3 226 216 215
3 226 214 225
3 217 216 226
3 230 233 229
3 231 228 233
3 231 233 230
3 232 228 231
3 227 228 232
3 237 247 246
3 234 237 238
3 234 238 239
3 234 239 240
3 234 240 241
3 234 241 242
3 234 242 243
3 234 243 244
3 234 244 245
3 235 247 237
3 235 237 234
3 234 245 236
3 314 249 248
3 314 248 256
3 315 250 249
3 315 249 314
3 316 251 250
3 316 250 315
3 317 256 257
3 317 314 256
3 318 252 251
3 318 251 316
3 319 315 314
3 319 314 317
3 320 253 252
3 320 252 318
3 321 315 319
3 321 316 315
3 322 254 253
3 322 255 254
3 322 253 320
3 322 289 255
3 323 257 258
3 323 317 257
3 324 316 321
3 324 318 316
3 325 319 317
3 325 317 323
3 326 320 318
3 326 318 324
3 327 319 325
3 327 321 319
3 328 290 289
3 328 322 320
3 328 289 322
3 328 320 326
3 329 258 259
3 329 323 258
3 330 324 321
3 330 321 327
3 331 323 329
3 331 325 323
3 332 324 330
3 332 326 324
3 333 325 331
3 333 327 325
3 334 290 328
3 334 328 326
3 334 291 290
3 334 326 332
3 335 259 260
3 335 260 261
3 335 331 329
3 335 329 259
3 336 327 333
3 336 330 327
3 337 331 335
3 338 330 336
3 338 332 330
3 339 336 333
3 339 331 337
3 339 333 331
3 340 292 291
3 340 334 332
3 340 291 334
3 340 332 338
3 341 261 262
3 341 335 261
3 341 337 335
3 342 336 339
3 343 337 341
3 344 340 338
3 344 336 342
3 344 338 336
3 345 339 337
3 345 342 339
3 345 337 343
3 346 340 344
3 346 293 292
3 346 294 293
3 346 292 340
3 347 341 262
3 348 342 345
3 349 343 341
3 349 341 347
3 350 344 342
3 350 342 348
3 351 343 349
3 351 345 343
3 351 348 345
3 352 346 344
3 352 294 346
3 352 344 350
3 353 262 263
3 353 347 262
3 354 348 351
3 355 349 347
3 355 347 353
3 356 350 348
3 356 348 354
3 357 351 349
3 357 349 355
3 358 294 352
3 358 352 350
3 358 295 294
3 358 350 356
3 359 263 264
3 359 353 263
3 360 354 351
3 360 356 354
3 360 351 357
3 361 355 353
3 361 353 359
3 361 357 355
3 362 356 360
3 363 357 361
3 364 296 295
3 364 356 362
3 364 295 358
3 364 358 356
3 365 264 265
3 365 265 266
3 365 359 264
3 365 361 359
3 366 360 357
3 366 357 363
3 367 361 365
3 368 362 360
3 368 360 366
3 369 363 361
3 369 366 363
3 369 361 367
3 370 297 296
3 370 296 364
3 370 362 368
3 370 364 362
3 371 365 266
3 372 366 369
3 373 365 371
3 373 367 365
3 374 366 372
3 374 368 366
3 374 370 368
3 375 367 373
3 375 369 367
3 376 370 374
3 376 298 297
3 376 297 370
3 377 266 267
3 377 267 268
3 377 371 266
3 378 372 369
3 378 369 375
3 379 373 371
3 379 371 377
3 380 372 378
3 380 374 372
3 381 375 373
3 381 378 375
3 381 373 379
3 382 298 376
3 382 374 380
3 382 299 298
3 382 376 374
3 383 377 268
3 384 378 381
3 385 381 379
3 385 377 383
3 385 379 377
3 386 378 384
3 386 380 378
3 387 384 381
3 387 381 385
3 388 382 380
3 388 299 382
3 388 380 386
3 388 300 299
3 388 301 300
3 389 268 269
3 389 269 270
3 389 383 268
3 389 385 383
3 390 384 387
3 391 385 389
3 392 386 384
3 392 384 390
3 393 387 385
3 393 385 391
3 394 388 386
3 394 301 388
3 394 386 392
3 395 389 270
3 396 390 387
3 396 387 393
3 397 389 395
3 397 391 389
3 398 392 390
3 398 390 396
3 399 391 397
3 399 393 391
3 400 302 301
3 400 301 394
3 400 394 392
3 400 392 398
3 401 270 271
3 401 271 272
3 401 395 270
3 401 397 395
3 402 396 393
3 402 393 399
3 403 397 401
3 404 396 402
3 404 398 396
3 405 399 397
3 405 402 399
3 405 397 403
3 406 303 302
3 406 304 303
3 406 302 400
3 406 400 398
3 406 398 404
3 407 272 273
3 407 401 272
3 407 403 401
3 408 402 405
3 408 404 402
3 409 403 407
3 410 404 408
3 411 403 409
3 411 405 403
3 412 406 404
3 412 404 410
3 412 304 406
3 413 407 273
3 414 408 405
3 414 405 411
3 415 411 409
3 415 407 413
3 415 409 407
3 416 408 414
3 416 410 408
3 417 411 415
3 418 412 410
3 418 304 412
3 418 410 416
3 418 305 304
3 418 306 305
3 419 415 413
3 419 273 274
3 419 274 275
3 419 413 273
3 420 414 411
3 420 411 417
3 420 416 414
3 421 415 419
3 422 416 420
3 423 417 415
3 423 415 421
3 424 418 416
3 424 306 418
3 424 416 422
3 425 419 275
3 426 420 417
3 426 417 423
3 427 421 419
3 427 419 425
3 428 422 420
3 428 420 426
3 429 423 421
3 429 421 427
3 430 306 424
3 430 424 422
3 430 307 306
3 430 308 307
3 430 422 428
3 431 275 276
3 431 276 277
3 431 425 275
3 432 426 423
3 432 423 429
3 433 427 425
3 433 425 431
3 434 428 426
3 434 426 432
3 435 429 427
3 435 427 433
3 436 309 308
3 436 308 430
3 436 430 428
3 436 428 434
3 437 431 277
3 438 432 429
3 438 429 435
3 439 431 437
3 439 433 431
3 439 435 433
3 440 434 432
3 440 432 438
3 441 435 439
3 442 310 309
3 442 434 440
3 442 309 436
3 442 436 434
3 443 277 278
3 443 437 277
3 444 440 438
3 444 435 441
3 444 438 435
3 445 437 443
3 445 439 437
3 446 440 444
3 447 441 439
3 447 439 445
3 448 310 442
3 448 440 446
3 448 442 440
3 449 278 279
3 449 443 278
3 450 444 441
3 450 441 447
3 451 445 443
3 451 443 449
3 451 447 445
3 452 446 444
3 452 444 450
3 453 447 451
3 454 310 448
3 454 446 452
3 454 448 446
3 454 311 310
3 454 312 311
3 455 451 449
3 455 279 280
3 455 280 281
3 455 281 282
3 455 449 279
3 456 450 447
3 456 447 453
3 457 451 455
3 457 282 283
3 457 283 284
3 457 455 282
3 458 452 450
3 458 450 456
3 459 453 451
3 459 451 457
3 459 457 284
3 460 454 452
3 460 312 454
3 460 452 458
3 461 284 285
3 461 456 453
3 461 453 459
3 461 459 284
3 462 458 456
3 462 285 286
3 462 461 285
3 462 456 461
3 463 286 287
3 463 287 288
3 463 462 286
3 463 312 460
3 463 460 458
3 463 313 312
3 463 288 313
3 463 458 462
3 471 469 468
3 471 470 469
3 472 471 468
3 474 473 472
3 464 468 467
3 464 472 468
3 464 474 472
3 466 464 467
3 465 464 466
3 485 475 476
3 485 484 475
3 486 476 477
3 486 485 476
3 487 477 478
3 487 486 477
3 488 478 479
3 488 487 478
3 489 479 480
3 489 488 479
3 490 480 481
3 490 489 480
3 483 481 482
3 483 490 481
3 511 492 493
3 512 494 495
3 513 495 496
3 514 493 494
3 514 511 493
3 514 494 515
3 516 494 512
3 516 514 515
3 516 515 494
3 517 512 495
3 517 495 513
3 518 517 513
3 518 513 496
3 519 496 497
3 519 518 496
3 520 506 507
3 521 505 506
3 521 506 520
3 522 505 521
3 522 521 523
3 524 522 523
3 525 504 505
3 525 505 522
3 525 522 524
3 526 525 524
3 527 503 504
3 527 504 525
3 527 525 526
3 528 527 526
3 529 530 502
3 529 528 530
3 529 502 503
3 529 503 527
3 529 527 528
3 531 502 530
3 532 501 502
3 532 502 531
3 533 491 492
3 533 492 511
3 534 516 512
3 534 512 517
3 535 518 536
3 535 517 518
3 535 534 517
3 537 535 536
3 537 536 518
3 537 518 519
3 538 497 498
3 538 498 499
3 538 537 519
3 538 519 497
3 539 491 540
3 541 499 500
3 541 542 499
3 541 543 542
3 544 510 491
3 544 491 539
3 544 539 545
3 546 541 500
3 547 546 500
3 547 548 546
3 549 510 544
3 549 544 550
3 551 510 549
3 552 507 508
3 552 508 509
3 553 532 531
3 554 532 553
3 554 501 532
3 555 500 501
3 555 501 554
3 556 533 511
3 556 557 533
3 558 559 557
3 560 558 557
3 560 557 556
3 561 560 556
3 562 559 558
3 563 559 562
3 563 491 559
3 563 540 491
3 563 564 540
3 565 563 562
3 565 562 566
3 565 564 563
3 565 566 564
3 567 566 562
3 568 567 569
3 568 569 542
3 570 567 568
3 570 568 542
3 570 566 567
3 571 566 570
3 571 564 566
3 572 570 542
3 572 571 570
3 572 564 571
3 573 564 572
3 574 572 542
3 574 573 572
3 575 574 542
3 575 542 543
3 576 575 543
3 577 539 540
3 577 576 543
3 577 540 578
3 577 578 576
3 579 539 577
3 579 577 543
3 580 539 579
3 580 545 539
3 581 579 543
3 581 580 579
3 582 581 543
3 582 543 541
3 583 544 545
3 584 583 585
3 584 544 583
3 586 546 587
3 586 541 546
3 586 588 541
3 589 584 585
3 589 585 586
3 590 550 544
3 591 550 590
3 592 587 546
3 593 550 591
3 593 592 546
3 593 591 592
3 594 550 593
3 594 546 548
3 594 593 546
3 595 594 548
3 595 550 594
3 596 550 595
3 596 595 548
3 596 549 550
3 597 549 596
3 598 597 596
3 599 597 598
3 600 598 547
3 600 599 598
3 600 547 601
3 602 600 601
3 603 601 604
3 603 602 601
3 605 603 604
3 605 602 603
3 605 549 602
3 606 549 605
3 606 551 549
3 607 605 604
3 607 606 605
3 607 551 606
3 608 551 607
3 609 604 601
3 610 609 601
3 610 547 500
3 610 601 547
3 611 610 500
3 612 611 500
3 612 500 555
3 613 533 557
3 613 491 533
3 613 559 491
3 613 557 559
3 614 535 537
3 614 534 535
3 614 514 516
3 614 538 499
3 614 537 538
3 614 516 534
3 615 514 614
3 615 614 499
3 616 569 561
3 616 499 542
3 616 542 569
3 616 615 499
3 617 558 560
3 617 561 569
3 617 562 558
3 617 560 561
3 618 617 569
3 618 562 617
3 619 567 562
3 619 569 567
3 619 562 618
3 619 618 569
3 620 573 574
3 620 564 573
3 620 540 564
3 621 540 620
3 622 620 574
3 622 574 575
3 622 621 620
3 623 622 575
3 623 540 621
3 623 621 622
3 624 576 578
3 624 578 540
3 624 575 576
3 624 623 575
3 624 540 623
3 625 545 580
3 625 580 581
3 625 581 582
3 626 582 627
3 626 625 582
3 628 545 625
3 628 625 626
3 628 626 627
3 629 545 628
3 629 583 545
3 630 631 629
3 630 628 627
3 630 629 628
3 632 582 541
3 632 627 582
3 633 627 632
3 633 630 627
3 633 631 630
3 634 632 541
3 634 633 632
3 634 631 633
3 634 588 631
3 634 541 588
3 635 631 588
3 635 583 629
3 635 629 631
3 636 583 635
3 636 635 588
3 637 583 636
3 637 636 588
3 637 586 585
3 637 585 583
3 637 588 586
3 638 584 589
3 638 544 584
3 639 544 638
3 639 590 544
3 639 640 590
3 641 638 589
3 641 639 638
3 641 640 639
3 641 589 640
3 642 640 589
3 643 642 589
3 643 586 587
3 643 589 586
3 644 640 642
3 644 590 640
3 645 644 642
3 645 643 587
3 645 642 643
3 646 590 644
3 646 645 587
3 646 644 645
3 647 590 646
3 647 646 587
3 647 591 590
3 647 587 592
3 647 592 591
3 648 596 548
3 648 548 547
3 649 596 648
3 649 648 547
3 650 598 596
3 650 547 598
3 650 596 649
3 650 649 547
3 651 549 597
3 651 599 600
3 651 597 599
3 651 600 602
3 651 602 549
3 652 510 551
3 652 551 608
3 653 607 604
3 653 608 607
3 654 510 652
3 655 609 610
3 655 653 604
3 655 604 609
3 656 608 653
3 656 653 655
3 657 654 652
3 658 509 510
3 658 552 509
3 658 510 654
3 658 520 507
3 658 507 552
3 658 654 657
3 659 608 656
3 660 655 610
3 660 656 655
3 660 659 656
3 660 610 611
3 661 608 659
3 662 611 612
3 662 661 659
3 662 660 611
3 662 659 660
3 663 662 612
3 663 661 662
3 664 530 528
3 664 524 523
3 664 526 524
3 664 528 526
3 665 531 530
3 665 612 555
3 665 664 666
3 665 663 612
3 665 666 663
3 665 553 531
3 665 554 553
3 665 555 554
3 665 530 664
3 667 514 615
3 667 615 616
3 667 556 511
3 667 511 514
3 667 616 561
3 667 561 556
3 668 652 608
3 668 657 652
3 668 608 661
3 668 661 663
3 669 657 668
3 669 658 657
3 669 521 520
3 669 523 521
3 669 520 658
3 669 664 523
3 670 669 668
3 670 666 664
3 670 663 666
3 670 664 669
3 670 668 663
3 676 678 677
3 689 675 674
3 689 676 675
3 689 678 676
3 690 689 674
3 690 678 689
3 691 672 671
3 691 673 672
3 691 674 673
3 691 690 674
3 691 678 690
3 692 671 681
3 693 671 692
3 694 671 693
3 695 671 694
3 696 691 671
3 696 678 691
3 696 671 695
3 697 679 678
3 697 678 696
3 697 695 694
3 697 693 692
3 697 694 693
3 697 696 695
3 698 692 681
3 698 697 692
3 699 679 697
3 699 697 698
3 699 698 700
3 701 698 681
3 701 700 698
3 701 699 700
3 702 679 699
3 702 699 701
3 702 701 703
3 704 701 681
3 704 703 701
3 704 702 703
3 705 680 679
3 705 687 688
3 705 688 680
3 705 679 702
3 705 702 704
3 705 704 706
3 707 681 682
3 707 682 683
3 707 683 684
3 707 684 685
3 707 685 686
3 707 686 687
3 707 704 681
3 707 687 705
3 707 706 704
3 707 705 706
3 709 711 710
3 709 712 711
3 709 713 712
3 714 713 709
3 715 714 709
3 716 715 709
3 717 716 709
3 718 717 709
3 708 718 709
3 720 719 718
3 720 718 708
3 729 728 727
3 730 726 725
3 730 727 726
3 730 729 727
3 724 730 725
3 731 724 725
3 738 732 753
3 752 753 732
3 751 752 732
3 750 751 732
3 749 750 732
3 748 749 732
3 737 731 732
3 737 724 731
3 737 732 738
3 739 724 737
3 733 745 746
3 733 746 747
3 733 747 748
3 733 748 732
3 723 742 741
3 723 743 742
3 723 739 743
3 723 724 739
3 744 733 734
3 744 745 733
3 740 744 734
3 735 741 740
3 735 723 741
3 736 723 735
3 721 736 722
3 721 723 736
3 734 735 740
3 766 755 754
3 766 754 765
3 767 756 755
3 767 755 766
3 768 757 756
3 768 756 767
3 769 758 757
3 769 757 768
3 770 759 758
3 770 758 769
3 771 760 759
3 771 759 770
3 772 761 760
3 772 760 771
3 773 762 761
3 773 761 772
3 764 763 762
3 764 762 773
3 774 777 776
3 775 777 774
3 788 779 778
3 788 780 779
3 788 778 787
3 789 780 788
3 790 781 780
3 790 780 789
3 791 782 781
3 791 781 790
3 792 783 782
3 792 784 783
3 792 782 791
3 793 784 792
3 786 785 784
3 786 784 793
3 812 813 814
3 810 811 812
3 809 812 814
3 809 810 812
3 795 807 806
3 795 808 809
3 795 814 807
3 795 809 814
3 805 795 806
3 794 795 805
3 804 800 801
3 804 801 802
3 804 802 803
3 804 803 794
3 804 794 805
3 799 800 804
3 798 799 804
3 797 798 804
3 796 797 804
3 821 819 818
3 821 820 819
3 823 822 821
3 823 821 818
3 816 818 817
3 816 824 823
3 816 823 818
3 825 824 816
3 815 825 816
3 827 829 828
3 827 830 829
3 827 831 830
3 827 832 831
3 827 833 832
3 827 834 833
3 827 835 834
3 827 815 835
3 826 815 827
3 826 825 815
3 855 837 836
3 855 838 837
3 855 839 838
3 855 840 839
3 855 841 840
3 855 842 841
3 855 843 842
3 855 844 843
3 855 845 844
3 856 855 836
3 856 845 855
3 857 846 845
3 857 836 847
3 857 845 856
3 857 856 836
3 858 857 847
3 858 846 857
3 859 847 848
3 859 848 849
3 859 849 850
3 859 850 851
3 859 851 852
3 859 852 853
3 859 853 854
3 859 854 846
3 859 846 858
3 859 858 847
3 873 875 874
3 873 876 875
3 873 877 876
3 873 878 877
3 873 879 878
3 873 880 879
3 873 881 880
3 873 882 881
3 873 860 882
3 872 861 860
3 872 862 861
3 872 860 873
3 863 862 872
3 870 872 871
3 870 863 872
3 864 863 870
3 869 864 870
3 865 864 869
3 868 865 869
3 866 865 868
3 867 866 868
3 903 885 884
3 903 886 885
3 903 887 886
3 904 884 883
3 904 903 884
3 904 887 903
3 905 888 887
3 905 887 904
3 906 904 883
3 906 888 905
3 906 905 904
3 907 883 901
3 907 906 883
3 908 907 901
3 909 889 888
3 909 888 908
3 910 891 890
3 911 902 892
3 912 910 911
3 913 910 912
3 914 910 913
3 915 910 914
3 916 910 915
3 917 892 893
3 917 893 894
3 917 894 895
3 917 911 892
3 917 912 911
3 917 913 912
3 917 914 913
3 918 917 895
3 918 915 914
3 918 916 915
3 918 914 917
3 919 895 896
3 919 918 895
3 919 916 918
3 920 916 919
3 920 896 897
3 920 919 896
3 921 897 898
3 921 898 899
3 921 899 900
3 921 900 891
3 921 891 910
3 921 916 920
3 921 910 916
3 921 920 897
3 922 906 907
3 922 888 906
3 922 908 888
3 922 907 908
3 923 908 901
3 923 909 908
3 924 923 901
3 925 924 901
3 926 927 901
3 928 901 902
3 928 926 901
3 928 902 929
3 928 929 930
3 931 928 930
3 931 930 932
3 933 930 929
3 934 890 889
3 934 889 932
3 934 930 933
3 934 932 930
3 935 890 934
3 936 890 935
3 937 938 902
3 939 937 902
3 939 902 911
3 939 911 910
3 940 923 924
3 940 924 925
3 941 909 923
3 941 923 940
3 941 889 909
3 941 940 925
3 942 941 925
3 943 889 941
3 943 941 942
3 944 942 925
3 944 943 942
3 944 889 943
3 945 944 925
3 945 946 889
3 945 889 944
3 947 889 946
3 948 889 947
3 949 889 948
3 950 932 889
3 950 889 949
3 950 931 932
3 950 928 931
3 950 927 926
3 950 926 928
3 950 951 927
3 950 949 951
3 952 935 934
3 952 929 902
3 952 936 935
3 952 934 933
3 952 933 929
3 953 936 952
3 954 952 902
3 954 953 952
3 955 954 902
3 956 902 957
3 956 955 902
3 958 890 959
3 960 890 958
3 961 890 960
3 962 961 963
3 962 890 961
3 962 963 938
3 962 938 937
3 962 937 939
3 962 939 910
3 962 910 890
3 964 925 901
3 964 945 925
3 965 945 964
3 965 946 945
3 966 965 964
3 966 946 965
3 966 964 901
3 966 947 946
3 967 966 901
3 968 967 901
3 969 947 966
3 969 967 968
3 969 966 967
3 970 968 901
3 971 901 927
3 971 970 901
3 972 947 969
3 972 968 970
3 972 969 968
3 972 948 947
3 973 971 927
3 973 970 971
3 973 948 972
3 973 927 951
3 973 949 948
3 973 972 970
3 973 951 949
3 974 890 936
3 974 936 953
3 974 953 954
3 975 955 956
3 975 974 954
3 975 954 955
3 976 890 974
3 976 974 975
3 977 975 956
3 978 956 957
3 978 957 979
3 978 979 959
3 978 977 956
3 980 890 976
3 980 976 975
3 980 975 977
3 981 959 890
3 981 890 980
3 981 978 959
3 981 977 978
3 981 980 977
3 982 957 902
3 983 958 959
3 983 979 957
3 983 959 979
3 983 957 982
3 984 960 958
3 984 958 983
3 984 983 982
3 985 982 902
3 985 960 984
3 985 984 982
3 986 961 960
3 986 963 961
3 986 938 963
3 986 902 938
3 986 960 985
3 986 985 902
3 994 990 995
3 991 989 990
3 991 993 992
3 991 994 993
3 991 990 994
3 988 989 991
3 987 988 991
3 1022 998 999
3 1022 999 1000
3 1022 1000 1001
3 1022 1001 1002
3 1022 1002 1003
3 1023 1014 1013
3 1023 1015 1014
3 1024 996 997
3 1024 1019 996
3 1025 1003 1004
3 1025 1004 1005
3 1025 1005 1006
3 1025 1022 1003
3 1026 1010 1021
3 1026 1021 1027
3 1028 1008 1009
3 1029 1016 1015
3 1029 1017 1016
3 1029 1018 1017
3 1029 1009 1018
3 1029 1028 1009
3 1030 1013 1012
3 1030 1023 1013
3 1031 997 998
3 1031 1022 1025
3 1031 1024 997
3 1031 998 1022
3 1031 1032 1024
3 1031 1025 1032
3 1033 1019 1024
3 1033 1024 1032
3 1034 1033 1035
3 1034 1019 1033
3 1036 1025 1006
3 1036 1032 1025
3 1037 1036 1006
3 1037 1006 1038
3 1039 1034 1035
3 1039 1019 1034
3 1039 1037 1038
3 1039 1035 1037
3 1040 1039 1038
3 1040 1019 1039
3 1041 1020 1019
3 1041 1019 1040
3 1041 1042 1043
3 1041 1043 1020
3 1044 1042 1041
3 1044 1041 1040
3 1044 1040 1038
3 1044 1038 1042
3 1045 1043 1042
3 1046 1006 1007
3 1046 1038 1006
3 1046 1045 1042
3 1046 1042 1038
3 1047 1046 1007
3 1047 1043 1045
3 1047 1045 1046
3 1048 1020 1043
3 1049 1050 1048
3 1049 1047 1007
3 1049 1043 1047
3 1049 1048 1043
3 1051 1050 1049
3 1051 1049 1007
3 1052 1051 1007
3 1052 1050 1051
3 1053 1052 1007
3 1054 1055 1056
3 1057 1007 1008
3 1057 1054 1053
3 1057 1053 1007
3 1057 1055 1054
3 1057 1008 1058
3 1057 1058 1055
3 1059 1021 1020
3 1059 1020 1056
3 1059 1056 1055
3 1060 1021 1059
3 1061 1060 1059
3 1062 1060 1061
3 1063 1064 1065
3 1066 1065 1064
3 1066 1058 1008
3 1067 1063 1065
3 1068 1021 1063
3 1068 1063 1067
3 1069 1065 1066
3 1069 1066 1008
3 1070 1021 1068
3 1070 1027 1021
3 1070 1071 1027
3 1072 1065 1069
3 1072 1069 1008
3 1073 1072 1008
3 1074 1071 1073
3 1074 1073 1008
3 1074 1008 1028
3 1075 1071 1074
3 1075 1074 1028
3 1075 1027 1071
3 1076 1075 1028
3 1076 1027 1075
3 1077 1027 1076
3 1077 1026 1027
3 1078 1076 1028
3 1078 1077 1076
3 1078 1026 1077
3 1079 1078 1028
3 1079 1028 1029
3 1080 1026 1078
3 1080 1078 1079
3 1080 1079 1029
3 1081 1080 1029
3 1081 1026 1080
3 1081 1015 1023
3 1081 1029 1015
3 1082 1035 1033
3 1082 1032 1036
3 1082 1037 1035
3 1082 1033 1032
3 1082 1036 1037
3 1083 1048 1050
3 1083 1020 1048
3 1084 1020 1083
3 1084 1083 1050
3 1084 1050 1052
3 1085 1084 1052
3 1085 1020 1084
3 1085 1052 1053
3 1085 1053 1054
3 1085 1054 1056
3 1085 1056 1020
3 1086 1059 1055
3 1086 1061 1059
3 1086 1058 1061
3 1086 1055 1058
3 1087 1021 1060
3 1087 1060 1062
3 1087 1062 1064
3 1087 1063 1021
3 1087 1064 1063
3 1088 1061 1058
3 1088 1062 1061
3 1088 1066 1064
3 1088 1064 1062
3 1088 1058 1066
3 1089 1073 1071
3 1089 1072 1073
3 1089 1067 1065
3 1089 1068 1067
3 1089 1070 1068
3 1089 1071 1070
3 1089 1065 1072
3 1090 1023 1030
3 1090 1011 1010
3 1090 1012 1011
3 1090 1026 1081
3 1090 1030 1012
3 1090 1010 1026
3 1090 1081 1023
3 1091 1093 1092
3 1120 1094 1093
3 1120 1093 1091
3 1121 1094 1120
3 1122 1095 1094
3 1122 1096 1095
3 1122 1094 1121
3 1123 1096 1122
3 1124 1097 1096
3 1124 1098 1097
3 1124 1096 1123
3 1125 1098 1124
3 1126 1099 1098
3 1126 1100 1099
3 1126 1098 1125
3 1127 1100 1126
3 1128 1101 1100
3 1128 1100 1127
3 1129 1102 1101
3 1129 1101 1128
3 1130 1102 1129
3 1130 1103 1102
3 1131 1103 1130
3 1131 1104 1103
3 1132 1104 1131
3 1132 1105 1104
3 1133 1106 1105
3 1133 1105 1132
3 1133 1107 1106
3 1134 1107 1133
3 1135 1108 1107
3 1135 1109 1108
3 1135 1107 1134
3 1136 1109 1135
3 1137 1110 1109
3 1137 1111 1110
3 1137 1109 1136
3 1138 1111 1137
3 1139 1112 1111
3 1139 1111 1138
3 1140 1113 1112
3 1140 1114 1113
3 1140 1112 1139
3 1141 1114 1140
3 1142 1115 1114
3 1142 1116 1115
3 1142 1114 1141
3 1143 1117 1116
3 1143 1116 1142
3 1144 1117 1143
3 1119 1118 1117
3 1119 1117 1144
3 1149 1145 1146
3 1149 1146 1147
3 1149 1147 1148
3 1153 1150 1145
3 1153 1151 1150
3 1153 1152 1151
3 1153 1155 1154
3 1153 1149 1155
3 1153 1145 1149
3 1159 1157 1156
3 1159 1158 1157
3 1171 1161 1160
3 1171 1160 1170
3 1172 1162 1161
3 1172 1161 1171
3 1173 1163 1162
3 1173 1164 1163
3 1173 1162 1172
3 1174 1165 1164
3 1174 1164 1173
3 1175 1166 1165
3 1175 1165 1174
3 1176 1167 1166
3 1176 1166 1175
3 1177 1168 1167
3 1177 1167 1176
3 1169 1168 1177
3 1227 1194 1195
3 1226 1195 1196
3 1226 1227 1195
3 1228 1193 1194
3 1228 1194 1227
3 1225 1196 1197
3 1225 1226 1196
3 1229 1192 1193
3 1229 1193 1228
3 1224 1197 1198
3 1224 1225 1197
3 1204 1191 1192
3 1204 1192 1229
3 1223 1224 1198
3 1205 1190 1191
3 1205 1191 1204
3 1222 1198 1199
3 1222 1199 1200
3 1222 1223 1198
3 1206 1189 1190
3 1206 1190 1205
3 1221 1222 1200
3 1207 1188 1189
3 1207 1189 1206
3 1201 1221 1200
3 1201 1220 1221
3 1187 1188 1207
3 1187 1207 1208
3 1187 1208 1209
3 1202 1220 1201
3 1202 1219 1220
3 1186 1187 1209
3 1203 1219 1202
3 1203 1218 1219
3 1185 1186 1209
3 1185 1209 1210
3 1178 1217 1218
3 1178 1218 1203
3 1184 1185 1210
3 1184 1210 1211
3 1179 1215 1216
3 1179 1216 1217
3 1179 1217 1178
3 1183 1211 1212
3 1183 1212 1213
3 1183 1184 1211
3 1180 1215 1179
3 1182 1183 1213
3 1181 1182 1213
3 1181 1213 1214
3 1181 1214 1215
3 1181 1215 1180
3 1255 1256 1257
3 1255 1257 1283
3 1254 1283 1282
3 1254 1255 1283
3 1253 1282 1281
3 1253 1254 1282
3 1252 1281 1280
3 1252 1253 1281
3 1251 1280 1279
3 1251 1252 1280
3 1250 1279 1278
3 1250 1251 1279
3 1249 1277 1276
3 1249 1278 1277
3 1249 1250 1278
3 1248 1249 1276
3 1247 1276 1275
3 1247 1248 1276
3 1246 1274 1273
3 1246 1275 1274
3 1246 1247 1275
3 1245 1246 1273
3 1244 1245 1273
3 1244 1273 1272
3 1243 1244 1272
3 1243 1272 1271
3 1242 1243 1271
3 1242 1271 1270
3 1241 1242 1270
3 1241 1270 1269
3 1240 1241 1269
3 1240 1268 1267
3 1240 1269 1268
3 1239 1240 1267
3 1238 1239 1267
3 1238 1267 1266
3 1237 1266 1265
3 1237 1238 1266
3 1236 1237 1265
3 1236 1264 1263
3 1236 1265 1264
3 1235 1236 1263
3 1234 1263 1262
3 1234 1235 1263
3 1233 1262 1261
3 1233 1234 1262
3 1232 1261 1260
3 1232 1233 1261
3 1231 1260 1259
3 1231 1232 1260
3 1230 1259 1258
3 1230 1231 1259
3 1299 1301 1300
3 1303 1302 1301
3 1297 1299 1298
3 1295 1297 1296
3 1295 1299 1297
3 1306 1305 1304
3 1294 1299 1295
3 1293 1301 1299
3 1293 1299 1294
3 1309 1308 1307
3 1291 1293 1292
3 1291 1304 1303
3 1291 1303 1301
3 1291 1301 1293
3 1290 1304 1291
3 1286 1285 1284
3 1286 1284 1309
3 1288 1290 1289
3 1288 1307 1306
3 1288 1306 1304
3 1288 1304 1290
3 1287 1309 1307
3 1287 1286 1309
3 1287 1307 1288
