ply
format ascii 1.0
comment generated by blendit.inference.finetune_visualize
element vertex 1434
property float x
property float y
property float z
property uchar red
property uchar green
property uchar blue
element face 2445
property list uchar int vertex_indices
end_header
1.94289029e-16 0.878045988 17.5662561 218 222 230
7.85228751e-17 1.3579337 17.9309216 218 222 230
5.0112683e-16 1.88248643 18.1625934 218 222 230
3.10935758e-15 2.23624758 18.2425708 218 222 230
0 2.58055142 18.2677939 218 222 230
0 0.662138163 4.78881537 218 222 230
0 84.1698112 4.78881537 218 222 230
-1.03111524e-16 83.8515236 25.0879555 218 222 230
9.23773855e-17 83.1821347 52.1534757 218 222 230
2.18609683e-16 82.6450503 74.3888453 218 222 230
-1.38777878e-16 82.3257012 96.624215 218 222 230
0 50.973481 95.8968253 218 222 230
-5.41088188e-17 66.6495911 96.2218455 218 222 230
3.10862447e-15 50.973481 20.6749597 218 222 230
0 48.7712598 18.2677939 218 222 230
0 49.1705096 18.3076833 218 222 230
0 49.5565274 18.4260293 218 222 230
0 49.9165197 18.6189097 218 222 230
0 50.2385557 18.8799321 218 222 230
0 50.5119622 19.2004456 218 222 230
0 50.7276782 19.5698277 218 222 230
0 50.8785541 19.9758362 218 222 230
0 50.94962 20.321569 218 222 230
0 2.58055142 18.2677939 218 222 230
0 48.7712598 18.2677939 218 222 230
81.680602 48.7712598 54.3171706 218 222 230
81.680602 1.54402192 54.3171706 218 222 230
17.4790473 2.43499123 25.9820951 218 222 230
40.840301 2.08261014 36.2924823 218 222 230
64.6784191 1.71060956 46.8133315 218 222 230
0.845775615 -5.55111512e-17 15.8195856 255 79 163
0.506977201 0.0743576471 16.3420858 255 79 163
0.22582431 0.282184165 16.8282734 255 79 163
0.0617410802 0.549671876 17.2137262 255 79 163
0.0163460108 0.706726943 17.3929521 255 79 163
1.94289029e-16 0.878045988 17.5662561 255 79 163
7.85228751e-17 1.3579337 17.9309216 255 79 163
5.0112683e-16 1.88248643 18.1625934 255 79 163
3.10935758e-15 2.23624758 18.2425708 255 79 163
0 2.58055142 18.2677939 255 79 163
17.4790473 2.43499123 25.9820951 255 79 163
40.840301 2.08261014 36.2924823 255 79 163
64.6784191 1.71060956 46.8133315 255 79 163
81.680602 1.54402192 54.3171706 255 79 163
81.680602 0 52.6254297 255 79 163
81.680602 0.0434031987 53.0241157 255 79 163
81.680602 0.183203504 53.4252837 255 79 163
81.680602 0.393110498 53.7537067 255 79 163
81.680602 0.545608309 53.9163483 255 79 163
81.680602 0.746778093 54.0745401 255 79 163
81.680602 0.964052357 54.1934905 255 79 163
81.680602 1.15537524 54.262802 255 79 163
81.680602 1.35233896 54.304111 255 79 163
18.2243151 -2.28018573e-16 23.6462424 255 79 163
41.2732698 -6.203814e-17 34.1996662 255 79 163
64.901788 1.41699329e-16 45.0353029 255 79 163
0.409949897 0.229542149 16.7903556 255 79 163
0.233642299 0.366911039 16.9991387 255 79 163
0.364201928 0.340739959 17.0082239 255 79 163
0.203160978 0.531291105 17.2505359 255 79 163
0.308042284 0.499928921 17.2513063 255 79 163
0.188201841 0.748822838 17.5167251 255 79 163
70.3203811 0.210198007 48.3843487 255 79 163
73.0745209 0.634064009 50.1566088 255 79 163
73.0579963 0.472904515 49.9947072 255 79 163
73.1010739 0.810725636 50.297029 255 79 163
75.9256246 0.27614018 51.0194045 255 79 163
75.9363614 0.453985514 51.2616951 255 79 163
75.9398861 1.05820205 51.6847271 255 79 163
81.5985205 0.77648135 54.0572072 255 79 163
81.6267164 0.937568938 54.1575325 255 79 163
81.6418129 1.03260346 54.2046476 255 79 163
0.605255622 0.0806564486 16.4133002 255 79 163
0.0621840013 1.28203111 17.9119765 255 79 163
2.91733436 1.76420181 19.4144771 255 79 163
1.94085361 1.9218204 19.0329864 255 79 163
2.93891095 1.58875159 19.3529774 255 79 163
5.82231668 1.86858505 20.7362893 255 79 163
9.6989531 2.07345239 22.5051485 255 79 163
13.6234539 0.114241463 22.3767979 255 79 163
6.28571302 0.213193309 19.3703089 255 79 163
9.01742483 0.489557277 21.1190631 255 79 163
12.9634279 0.347757009 22.6537432 255 79 163
14.56067 1.81006228 24.5960916 255 79 163
11.7247069 1.16977653 23.0233543 255 79 163
15.5630861 1.41652568 24.8831004 255 79 163
20.4568914 0.210254653 25.7427604 255 79 163
25.5309492 0.298070673 28.2325273 255 79 163
26.5315526 1.36706505 29.7563302 255 79 163
23.2835805 1.49102302 28.3628136 255 79 163
33.0304482 1.13062888 32.5366759 255 79 163
29.223378 0.666342226 30.4370504 255 79 163
32.0113801 0.195477599 30.9514727 255 79 163
33.415839 0.0669948957 31.1849885 255 79 163
35.2492298 0.153349153 32.3163057 255 79 163
34.4843735 0.385418424 32.447002 255 79 163
37.116882 0.274857485 33.447422 255 79 163
38.20564 1.25758198 34.9263407 255 79 163
43.6734835 0.178672705 36.2226642 255 79 163
48.8962465 0.24978076 38.7558348 255 79 163
46.7386522 1.25450656 38.7433323 255 79 163
44.7706892 1.0315109 37.7452655 255 79 163
47.4259842 0.856990565 38.8197021 255 79 163
50.048343 1.14137479 40.1718561 255 79 163
56.6699763 0.933298049 43.023802 255 79 163
52.747951 0.553558428 40.9427976 255 79 163
55.5167268 0.161731227 41.5748102 255 79 163
58.8256515 0.126348363 42.9872785 255 79 163
58.0863996 0.317736348 43.0463402 255 79 163
60.7573083 0.226078476 44.0942949 255 79 163
61.9609548 1.03343237 45.446889 255 79 163
66.6145061 0.14783544 46.575444 255 79 163
64.7636827 0.120432367 45.6662016 255 79 163
64.6461663 0.501935592 46.2504499 255 79 163
66.4874081 0.732698127 47.2873956 255 79 163
64.6094981 1.0819231 46.6515125 255 79 163
67.4161428 0.856783826 47.7874843 255 79 163
69.3110672 0.84059246 48.6241185 255 79 163
77.820735 0.417452893 52.0616611 255 79 163
78.802179 0.107242229 51.957843 255 79 163
78.763047 0.399974205 52.4613604 255 79 163
79.7616452 0.0825277259 52.3132856 255 79 163
78.7784106 0.548751151 52.6271337 255 79 163
79.7337348 0.318525896 52.7868157 255 79 163
1.40475625 0.27091696 17.3279679 255 79 163
0.897485342 0.597346914 17.6493754 255 79 163
0.818513856 0.831071921 17.8831691 255 79 163
0.773211335 1.00369104 18.0223889 255 79 163
1.17107552 0.749905811 17.9542073 255 79 163
1.80921043 0.409549582 17.7746438 255 79 163
1.08426627 1.02149496 18.1752719 255 79 163
1.70209836 0.624314551 18.0417105 255 79 163
1.07129325 1.14076103 18.2625841 255 79 163
1.02994765 1.30161075 18.3532072 255 79 163
1.74435995 1.00767555 18.4567032 255 79 163
4.55927452 0.769166049 19.4818153 255 79 163
3.30088886 0.336916927 18.3076403 255 79 163
5.0210751 0.838034337 19.758512 255 79 163
5.84728094 1.56133036 20.6306781 255 79 163
5.94817354 0.981996045 20.3039814 255 79 163
7.35732837 1.18778536 21.0893789 255 79 163
8.12079679 1.47676031 21.5999865 255 79 163
9.17589541 0.990887748 21.7500939 255 79 163
8.97135286 0.609117368 21.2634415 255 79 163
9.2795924 1.28758291 22.0101841 255 79 163
9.29157014 1.20586031 21.9630506 255 79 163
10.1026321 1.19390848 22.3164482 255 79 163
13.0412353 1.04390895 23.5188793 255 79 163
13.7004535 0.98290792 23.7644803 255 79 163
14.68211 0.930556135 24.1591266 255 79 163
14.0991602 0.710018018 23.6801165 255 79 163
14.9365183 0.286142056 23.4208822 255 79 163
15.0591276 0.736550286 24.1396627 255 79 163
15.8345177 0.409012515 24.0523491 255 79 163
15.1440142 1.02678985 24.4456211 255 79 163
17.0289192 0.0964475639 23.8504224 255 79 163
17.9215669 0.171117998 24.4940151 255 79 163
15.280163 1.15307015 24.5994727 255 79 163
15.6698073 0.855537392 24.5334207 255 79 163
18.7615417 1.72873062 26.4380222 255 79 163
17.4883282 1.539144 25.7992599 255 79 163
19.6318061 1.55508985 26.7613146 255 79 163
21.3873782 1.21934627 27.3738144 255 79 163
20.1332119 1.04283105 26.6918949 255 79 163
20.632943 0.755263406 26.6622268 255 79 163
20.2731205 0.555197655 26.2670193 255 79 163
20.8891435 0.625529505 26.633039 255 79 163
22.201837 0.549247562 27.1284121 255 79 163
23.9944154 1.01997434 28.4061376 255 79 163
21.9193678 0.749837889 27.2350982 255 79 163
25.326523 0.841663391 28.8567501 255 79 163
25.9946573 0.757757385 29.0773425 255 79 163
32.7897347 0.352925573 31.6245256 255 79 163
32.4900007 0.58078645 31.814118 255 79 163
33.1826669 0.448223231 31.9525443 255 79 163
33.6165329 0.426731948 32.1174456 255 79 163
36.5755663 0.5859215 33.6674912 255 79 163
36.3167925 0.779707688 33.7505992 255 79 163
37.6273345 0.697900433 34.2637519 255 79 163
37.8706962 0.580118228 34.2464479 255 79 163
38.3667429 0.374212641 34.1907153 255 79 163
39.8202406 0.0878239686 34.1946599 255 79 163
41.0649594 0.14658408 34.9496044 255 79 163
42.1161554 1.47318191 36.7617538 255 79 163
40.7967177 1.31709394 36.1132841 255 79 163
43.4674974 0.885580977 37.0599858 255 79 163
43.9480756 0.64068984 37.0602428 255 79 163
44.1936746 0.530356096 37.0483401 255 79 163
49.4413717 0.633806852 39.533911 255 79 163
56.0675955 0.479951956 42.3576641 255 79 163
61.331159 0.573747363 44.8339721 255 79 163
62.0492853 0.307572506 44.8227767 255 79 163
63.4756869 0.072162812 44.9286994 255 79 163
66.9920686 0.439652286 47.2341571 255 79 163
80.0171241 0.769853097 53.3504823 255 79 163
80.1896822 1.0364682 53.5623853 255 79 163
80.6609207 0.791708974 53.6502513 255 79 163
80.6433734 0.887418718 53.6965398 255 79 163
80.9857797 0.870838551 53.8398197 255 79 163
80.9818141 1.04175957 53.9156088 255 79 163
2.07317482 0.0799780092 17.0639697 255 79 163
0.479093803 1.94147812 18.3917974 255 79 163
2.63206751 0.917967124 18.7722047 255 79 163
3.07647209 0.874284624 18.9287075 255 79 163
3.57052515 0.838652975 19.1135626 255 79 163
6.50793735 0.728221507 20.3054635 255 79 163
6.79263093 0.613283167 20.2953023 255 79 163
8.54279957 0.9346787 21.4191407 255 79 163
13.1908095 0.426259958 22.8918667 255 79 163
13.3051625 0.468369466 23.0094279 255 79 163
13.6377202 0.446872115 23.1255474 255 79 163
13.4300945 0.622056513 23.2765912 255 79 163
13.7896236 0.528524447 23.3147312 255 79 163
16.3314093 0.383288711 24.2326014 255 79 163
16.7669157 0.483217173 24.5878973 255 79 163
17.6476444 0.713618629 25.2764748 255 79 163
18.9096469 0.78946206 25.9226607 255 79 163
19.7833908 0.732069019 26.2560478 255 79 163
19.4806063 1.09209618 26.4357318 255 79 163
19.5413579 0.828182846 26.2441452 255 79 163
19.5261039 1.24241691 26.5553672 255 79 163
38.7646323 0.46957171 34.5118036 255 79 163
38.9647824 0.520814482 34.6696164 255 79 163
39.6032944 0.550385154 34.9950485 255 79 163
40.8816533 0.610984955 35.6428882 255 79 163
42.1850061 0.673148372 36.2969198 255 79 163
42.8373867 0.704756654 36.6223399 255 79 163
43.0463569 0.763558078 36.7706388 255 79 163
62.4682638 0.385876366 45.1274006 255 79 163
62.6787535 0.427951202 45.2774459 255 79 163
63.3341709 0.452178407 45.602657 255 79 163
18.3384633 0.184181001 24.717955 255 79 163
17.095768 0.960722319 25.2657532 255 79 163
18.5469426 0.190887097 24.8298543 255 79 163
19.18357 0.197271092 25.1342068 255 79 163
39.5014604 1.27339035 35.5140273 255 79 163
41.4957523 0.15755531 35.1759034 255 79 163
41.7111922 0.163179702 35.2889544 255 79 163
40.1494776 1.2810947 35.807628 255 79 163
40.3651702 1.29312293 35.909636 255 79 163
42.3652192 0.168297135 35.6003499 255 79 163
63.284834 1.04604985 46.0442014 255 79 163
63.9468697 1.05232192 46.34264 255 79 163
64.1677009 1.06220189 46.4456993 255 79 163
16.6754102 1.59683793 25.4613241 255 79 163
17.2342566 1.68711939 25.7443537 255 79 163
17.3185015 1.63762383 25.7636655 255 79 163
16.6865696 0.985561635 25.1029923 255 79 163
0 48.7712598 18.2677939 255 79 163
0 49.1705096 18.3076833 255 79 163
0 49.5565274 18.4260293 255 79 163
0 49.9165197 18.6189097 255 79 163
0 50.2385557 18.8799321 255 79 163
0 50.5119622 19.2004456 255 79 163
0 50.7276782 19.5698277 255 79 163
0 50.8785541 19.9758362 255 79 163
0 50.94962 20.321569 255 79 163
3.10862447e-15 50.973481 20.6749597 255 79 163
81.680602 50.973481 56.7243364 255 79 163
81.680602 48.7712598 54.3171706 255 79 163
81.680602 49.1705096 54.35706 255 79 163
81.680602 49.5565274 54.475406 255 79 163
81.680602 49.9165197 54.6682864 255 79 163
81.680602 50.2385557 54.9293088 255 79 163
81.680602 50.5119622 55.2498223 255 79 163
81.680602 50.7276782 55.6192043 255 79 163
81.680602 50.8785541 56.0252129 255 79 163
81.680602 50.94962 56.3709456 255 79 163
0.663693797 -5.55111512e-17 5.11933636 255 79 163
0.470258009 0.0286367573 4.9847628 255 79 163
0.315660689 0.0980648287 4.88437197 255 79 163
0.232572147 0.158361339 4.83719247 255 79 163
0.147706272 0.245290155 4.79999356 255 79 163
0.116579813 0.286922264 4.79170352 255 79 163
0.0890264871 0.330520984 4.78881537 255 79 163
0.845775615 -5.55111512e-17 15.8195856 255 79 163
0.506977201 0.0743576471 16.3420858 255 79 163
0.22582431 0.282184165 16.8282734 255 79 163
0.0617410802 0.549671876 17.2137262 255 79 163
0.0163460108 0.706726943 17.3929521 255 79 163
1.94289029e-16 0.878045988 17.5662561 255 79 163
0 0.662138163 4.78881537 255 79 163
0.0383195051 0.440153512 4.78881537 255 79 163
0.00913778377 0.552513832 4.78881537 255 79 163
0.162635739 0.227744427 4.88678909 255 79 163
0.194147798 0.194147902 4.95407582 255 79 163
0.240378864 0.152084249 4.95407582 255 79 163
0.358680051 0.0896700488 8.57591243 255 79 163
0.111449378 0.34756247 10.5654506 255 79 163
0.214494743 0.214494743 10.3042005 255 79 163
0.297573404 0.163422162 12.3168289 255 79 163
0.0510845392 0.506538879 12.8990524 255 79 163
0.0864113907 0.345645632 6.6823639 255 79 163
0.341309685 0.145332853 13.678489 255 79 163
0.364443577 0.136307982 14.359319 255 79 163
0.409906634 0.11402114 15.0202413 255 79 163
0.341839207 0.0854598616 5.90085008 255 79 163
0.105186575 0.444129672 16.2932487 255 79 163
0.0849465328 0.33978625 5.34483273 255 79 163
0.430923394 0.11066376 16.0564172 255 79 163
81.680602 50.973481 56.7243364 218 222 230
81.680602 50.973481 97.4798218 218 222 230
1.58299647 50.973481 97.4798218 218 222 230
0 50.973481 95.8968253 218 222 230
0.0433808573 50.973481 96.2648763 218 222 230
0.164624987 50.973481 96.5997479 218 222 230
0.342721384 50.973481 96.8804897 218 222 230
0.489751953 50.973481 97.0416809 218 222 230
0.685294175 50.973481 97.200669 218 222 230
0.900341499 50.973481 97.325062 218 222 230
1.12599863 50.973481 97.4124212 218 222 230
1.35351204 50.973481 97.4630995 218 222 230
1.46949947 50.973481 97.4757478 218 222 230
3.10862447e-15 50.973481 20.6749597 218 222 230
1.82170195 85.9915131 4.78881537 218 222 230
5.27579423 85.9915131 4.78881537 218 222 230
0 84.1698112 4.78881537 218 222 230
0.0431893768 84.5641347 4.78881537 218 222 230
0.182234846 84.9640061 4.78881537 218 222 230
0.420791407 85.3343058 4.78881537 218 222 230
0.594295477 85.5159432 4.78881537 218 222 230
0.859924373 85.7169317 4.78881537 218 222 230
1.15132619 85.8636808 4.78881537 218 222 230
1.45280249 85.9537706 4.78881537 218 222 230
1.63964287 85.9823929 4.78881537 218 222 230
0 0.662138163 4.78881537 218 222 230
0.0890264871 0.330520984 4.78881537 218 222 230
0.0383195051 0.440153512 4.78881537 218 222 230
0.00913778377 0.552513832 4.78881537 218 222 230
8.34129103 0.330520984 4.78881537 218 222 230
8.04288585 14.4046004 4.78881537 218 222 230
7.32231058 33.1700395 4.78881537 218 222 230
5.83974784 66.2237809 4.78881537 218 222 230
5.50217421 76.107647 4.78881537 218 222 230
0 50.973481 95.8968253 218 222 230
0.0433808573 50.973481 96.2648763 218 222 230
0.164624987 50.973481 96.5997479 218 222 230
0.342721384 50.973481 96.8804897 218 222 230
0.489751953 50.973481 97.0416809 218 222 230
0.685294175 50.973481 97.200669 218 222 230
0.900341499 50.973481 97.325062 218 222 230
1.12599863 50.973481 97.4124212 218 222 230
1.35351204 50.973481 97.4630995 218 222 230
1.46949947 50.973481 97.4757478 218 222 230
1.58299647 50.973481 97.4798218 218 222 230
1.46863688 58.2795309 97.4798218 218 222 230
1.22579764 67.8008004 97.4798218 218 222 230
0.816043826 84.6281197 97.4798218 218 222 230
-1.38777878e-16 82.3257012 96.624215 218 222 230
0.0928336568 83.1431884 97.0232095 218 222 230
0.345888464 83.8767132 97.3249732 218 222 230
0.568073041 84.2822348 97.4397695 218 222 230
-5.41088188e-17 66.6495911 96.2218455 218 222 230
0.26948788 53.408831 96.7997315 218 222 230
0.431938014 53.408831 97.0003398 218 222 230
0.605097989 53.408831 97.155957 218 222 230
0.754023003 53.408831 97.2576552 218 222 230
0.450152606 54.626506 97.0296692 218 222 230
0.601998544 54.626506 97.1627577 218 222 230
0.751258028 54.626506 97.2638339 218 222 230
0.892872374 54.626506 97.338369 218 222 230
0.986998849 54.626506 97.3780716 218 222 230
0.186631211 58.634201 96.7332969 218 222 230
0.676349735 64.2433075 97.3107344 218 222 230
0.140566676 72.2586976 96.9175551 218 222 230
0.21311209 77.7565633 97.1258812 218 222 230
0.29995471 75.0632508 97.1798671 218 222 230
0.501628839 75.4719944 97.3411289 218 222 230
0.620234047 78.5240362 97.4246436 218 222 230
0.95115035 56.4530184 97.3741384 218 222 230
1.03992126 56.4530184 97.4061017 218 222 230
0.646964514 57.1800793 97.2178279 218 222 230
0.748478455 58.4568659 97.2927022 218 222 230
0.622643332 59.7927643 97.227677 218 222 230
0.401314906 62.464561 97.0785069 218 222 230
0.898339857 60.3720459 97.3800062 218 222 230
0.0923479461 64.5570761 96.6486903 218 222 230
0.231579798 64.4524865 96.9079615 218 222 230
0.164931979 65.4464493 96.8200939 218 222 230
0.223987528 66.0393648 96.9267097 218 222 230
0.0877620986 66.9373935 96.6899629 218 222 230
0.594217278 70.029749 97.3312675 218 222 230
0.516002082 69.0948979 97.2708623 218 222 230
0.562250052 71.8438308 97.3344347 218 222 230
0.17220146 79.5354336 97.1000134 218 222 230
0.153975199 80.4248687 97.0873508 218 222 230
0.131373683 81.3309753 97.0658506 218 222 230
0.685264787 66.0278242 97.3351603 218 222 230
0.115380813 67.5606275 96.7679666 218 222 230
0.363752408 67.2251958 97.1160694 218 222 230
0.688627319 66.9200826 97.3465035 218 222 230
0.130476292 67.8722445 96.805874 218 222 230
0.719013832 67.1177211 97.3632807 218 222 230
0.779690274 67.5129981 97.3931895 218 222 230
0.134154897 69.3343956 96.8443268 218 222 230
0.447238934 82.9795475 97.3809353 218 222 230
0.326447679 66.928738 97.0720446 218 222 230
0.400806744 67.6926213 97.1589543 218 222 230
0.118975414 82.2120747 97.0578875 218 222 230
0.11312257 82.6526244 97.0538829 218 222 230
0.800776562 67.7467108 97.4033178 218 222 230
-1.38777878e-16 82.3257012 96.624215 218 222 230
0.0928336568 83.1431884 97.0232095 218 222 230
0.345888464 83.8767132 97.3249732 218 222 230
0.568073041 84.2822348 97.4397695 218 222 230
0.816043826 84.6281197 97.4798218 218 222 230
0 84.1698112 4.78881537 218 222 230
-1.03111524e-16 83.8515236 25.0879555 218 222 230
9.23773855e-17 83.1821347 52.1534757 218 222 230
2.18609683e-16 82.6450503 74.3888453 218 222 230
0.0431893768 84.5641347 4.78881537 218 222 230
0.182234846 84.9640061 4.78881537 218 222 230
0.420791407 85.3343058 4.78881537 218 222 230
0.594295477 85.5159432 4.78881537 218 222 230
0.859924373 85.7169317 4.78881537 218 222 230
1.15132619 85.8636808 4.78881537 218 222 230
1.45280249 85.9537706 4.78881537 218 222 230
1.63964287 85.9823929 4.78881537 218 222 230
1.82170195 85.9915131 4.78881537 218 222 230
2.13998952 85.9915131 25.0879555 218 222 230
2.80937848 85.9915131 52.1534757 218 222 230
3.35527753 85.9915131 74.8166487 218 222 230
3.56288385 85.9915131 86.728793 218 222 230
3.67114015 85.9915131 97.4798218 218 222 230
1.44501029 85.2395537 97.4798218 218 222 230
2.18851078 85.6788072 97.4798218 218 222 230
2.93658624 85.9172745 97.4798218 218 222 230
0.107169837 84.6790809 14.9383854 218 222 230
0.129993544 84.7826564 11.5551954 218 222 230
0.246161278 83.644189 97.0424154 218 222 230
0.352013952 83.8910325 97.0520184 218 222 230
0.490257932 84.1540899 97.2760015 218 222 230
0.55864199 84.2689138 97.0520184 218 222 230
0.57190604 84.2890833 97.2515157 218 222 230
0.813180548 84.625678 97.1946195 218 222 230
0.809301109 84.6200488 97.4023975 218 222 230
1.04442748 85.8091674 7.04427539 218 222 230
0.88627565 85.7233253 7.04427539 218 222 230
1.16946675 85.8637321 7.04427539 218 222 230
0.759460657 85.6327219 8.1720054 218 222 230
0.626816551 85.5258786 8.1720054 218 222 230
0.702019823 85.5953764 7.04427539 218 222 230
0.846591757 85.6928035 8.1720054 218 222 230
0.936458222 85.7475103 8.1720054 218 222 230
0.824137721 85.6578198 11.5551954 218 222 230
0.228905867 84.9960402 11.5551954 218 222 230
1.21330373 85.8632488 11.5551954 218 222 230
1.49708094 85.934257 16.0661155 218 222 230
0.135176538 84.6916091 19.4493055 218 222 230
0.151076905 84.697063 21.7047655 218 222 230
0.272577606 84.9310589 22.8324955 218 222 230
1.322827 85.8516705 21.7047655 218 222 230
0.60992582 85.4252165 18.3215755 218 222 230
1.0788136 85.7292289 22.8324955 218 222 230
0.626788419 85.3647247 25.0879555 218 222 230
0.1502523 84.6392424 25.0879555 218 222 230
1.3522707 85.8412608 25.0879555 218 222 230
0.0677167689 84.2985939 29.5988756 218 222 230
0.192835656 84.6879441 28.0952355 218 222 230
1.7733912 85.9205775 34.1097956 218 222 230
1.44827645 85.8305935 31.8543356 218 222 230
1.00210202 85.5857032 32.6061556 218 222 230
1.40831869 85.783182 35.6134356 218 222 230
1.31486304 85.6627974 43.1316356 218 222 230
0.719855324 85.2716578 38.6207156 218 222 230
0.221604336 84.4934678 41.6279956 218 222 230
0.299666535 84.792847 34.1097956 218 222 230
0.0778120434 84.0462121 43.1316356 218 222 230
0.184799409 84.3283185 45.3870957 218 222 230
0.458985043 84.8581011 44.6352757 218 222 230
2.03431235 85.9101407 47.6425557 218 222 230
0.0401324753 83.4230347 62.0358622 218 222 230
0.0878669887 83.7948384 55.8593707 218 222 230
0.383312423 84.4582635 59.5652656 218 222 230
2.26976135 85.9007227 59.6365662 218 222 230
1.2882656 85.4698188 58.3299673 218 222 230
1.86636367 85.7841394 57.7123181 218 222 230
0.0962211055 83.5859855 66.9770555 218 222 230
0.275676038 84.1279431 65.7417572 218 222 230
2.62311683 85.9505269 64.6965937 218 222 230
1.79272911 85.7263165 60.8480976 218 222 230
0.564327782 84.597969 68.2598875 218 222 230
0.226439432 83.9535583 68.8300029 218 222 230
2.47436616 85.8925385 70.9681527 218 222 230
1.62764765 85.5846012 67.1196566 218 222 230
1.9503369 85.7030018 72.1796841 218 222 230
2.11882993 85.7560876 74.7096979 218 222 230
1.9976009 85.6960101 76.0213861 218 222 230
2.56545428 85.888895 76.7307056 218 222 230
0.104558871 83.3775414 80.1513982 218 222 230
0.239291195 83.8378924 77.4738323 218 222 230
2.89860275 85.9462225 80.0634014 218 222 230
1.75276283 85.5533224 78.6447624 218 222 230
0.0464839448 83.0165407 85.6423371 218 222 230
2.64687309 85.8856382 82.6867777 218 222 230
2.06257779 85.6863981 81.9774582 218 222 230
0.109434323 83.2556551 91.269083 218 222 230
2.48051074 85.8111441 90.1698681 218 222 230
2.2718899 85.7390809 89.2026485 218 222 230
0.256064175 83.6869356 94.1503595 218 222 230
0.316567325 83.851518 91.40489 218 222 230
0.541188576 84.2572932 93.9705541 218 222 230
2.88213423 85.9130996 92.6065193 218 222 230
0.343584701 83.8836552 95.1175791 218 222 230
0.309311353 83.8042427 95.7591912 218 222 230
0.715878452 84.5081476 95.3266793 218 222 230
0.800158477 84.6177678 95.3314808 218 222 230
1.40650799 85.2245605 93.6109432 218 222 230
0.580762608 84.3092769 95.9017923 218 222 230
2.51586211 85.8085735 95.5453825 218 222 230
2.14514552 85.6639322 95.5453825 218 222 230
2.65599598 85.8504055 96.1901956 218 222 230
1.44315436 85.2385647 97.3372206 218 222 230
0.117665494 84.8081969 5.54063538 218 222 230
0.273903151 85.1228876 5.91654538 218 222 230
0.169649061 84.9291924 5.91654538 218 222 230
0.149785721 84.8802545 6.48041038 218 222 230
0.290711406 85.1441616 6.66836539 218 222 230
0.142965971 84.8494501 8.1720054 218 222 230
0.661390056 85.5238902 12.6829254 218 222 230
0.584542642 85.448784 13.2467904 218 222 230
0.859877909 85.6638808 14.1865654 218 222 230
0.693534482 85.5278836 15.5022504 218 222 230
0.665381512 85.4950405 16.4420255 218 222 230
0.153258547 84.7992981 14.9383854 218 222 230
0.602182614 85.4016577 19.8252155 218 222 230
0.598342009 85.3895216 20.5770355 218 222 230
0.418392264 85.1784451 20.9529455 218 222 230
0.617856412 85.3961631 21.7047655 218 222 230
0.52059072 85.2866847 22.2686305 218 222 230
0.429755409 85.1737993 22.4565855 218 222 230
0.760856406 85.5205731 22.0806755 218 222 230
1.55203918 85.9010852 26.5915955 218 222 230
1.14427372 85.7054447 29.5988756 218 222 230
0.956848694 85.604029 28.0952355 218 222 230
0.353984968 84.9684966 29.0976622 218 222 230
0.509311041 85.1957146 28.0952355 218 222 230
0.698075996 85.3896007 28.5964489 218 222 230
0.580291744 85.2666505 28.8470555 218 222 230
0.453342439 85.102962 29.5988756 218 222 230
0.736085507 85.4022369 30.3506956 218 222 230
0.556899375 85.213695 30.7266056 218 222 230
0.399572125 85.0048146 31.1025156 218 222 230
0.692755426 85.3482239 31.3531222 218 222 230
0.365075911 84.9364438 32.1049422 218 222 230
0.954545501 85.5403413 33.6085822 218 222 230
0.930787971 85.5166213 34.1097956 218 222 230
0.771134986 85.3741779 34.8616156 218 222 230
1.08273771 85.6168634 34.6110089 218 222 230
0.754240783 85.3411729 36.1146489 218 222 230
0.684701492 85.1974215 41.1267823 218 222 230
0.406781369 84.815915 42.6304223 218 222 230
0.666854239 85.1585222 42.3798156 218 222 230
0.520927123 84.970496 43.1316356 218 222 230
0.499992836 84.9336771 43.632849 218 222 230
1.20550764 85.5743825 45.136489 218 222 230
0.746268356 85.18786 45.888309 218 222 230
1.15044918 85.5256288 46.1389157 218 222 230
0.913790619 85.3372607 46.5148257 218 222 230
0.697535099 85.1201977 46.8907357 218 222 230
0.343756827 84.6164858 47.6425557 218 222 230
1.06773591 85.4467499 47.6425557 218 222 230
0.0831620493 83.9124619 49.8980157 218 222 230
0.884175806 85.2836827 48.3943757 218 222 230
0.17808067 84.22019 49.647409 218 222 230
0.479736463 84.8068578 49.1461957 218 222 230
0.737862776 85.135767 48.6449824 218 222 230
1.24165858 85.5618735 48.143769 218 222 230
1.61392291 85.7527672 49.1461957 218 222 230
0.115309472 84.0124261 50.6498357 218 222 230
0.985262304 85.3609453 49.1461957 218 222 230
0.139965952 84.0798799 51.151049 218 222 230
0.197251236 84.216252 52.1534757 218 222 230
1.9444567 85.8491439 52.9770079 218 222 230
1.77526112 85.7942619 52.1534757 218 222 230
2.03029974 85.8732198 53.388774 218 222 230
0.459981437 84.6621668 55.4476045 218 222 230
0.251275785 84.2928888 54.6240723 218 222 230
0.663661141 84.9545426 54.6240723 218 222 230
0.908384278 85.2082634 55.0358384 218 222 230
1.24682806 85.4865993 54.6240723 218 222 230
1.48477087 85.6203204 55.8593707 218 222 230
0.754587203 85.0489319 55.2417215 218 222 230
1.84843351 85.8056802 54.2123062 218 222 230
2.16031805 85.9051004 54.0064232 218 222 230
0.588241814 84.8385592 55.8593707 218 222 230
0.794813305 85.0697178 56.6829029 218 222 230
0.516135902 84.7169735 57.094669 218 222 230
0.470089438 84.6329547 57.9182012 218 222 230
1.22330842 85.4133088 59.1772663 218 222 230
1.19095663 85.3838822 59.6009159 218 222 230
0.984025645 85.2037475 60.2066816 218 222 230
0.532746835 84.6759546 60.8164085 218 222 230
1.38303962 85.5129527 60.0166431 218 222 230
0.328158717 84.2964785 62.6535114 218 222 230
0.707358473 84.8862655 62.0517068 218 222 230
0.905954812 85.0855583 63.2711605 218 222 230
0.310338821 84.2410082 63.6829266 218 222 230
1.74021635 85.6829983 62.9386173 218 222 230
1.12750918 85.2699073 64.5698371 218 222 230
1.71298562 85.6598791 63.9838771 218 222 230
0.50420698 84.534355 66.6128231 218 222 230
1.36904894 85.4371049 65.8526691 218 222 230
0.827541812 84.9578018 66.4307069 218 222 230
0.644508779 84.7282759 67.048356 218 222 230
0.617324069 84.6854391 67.4521999 218 222 230
1.04334399 85.1562599 67.689772 218 222 230
1.48032207 85.479291 68.7825656 218 222 230
1.40696199 85.4217517 69.6140201 218 222 230
0.100031136 83.4907348 72.5715482 218 222 230
0.41751179 84.321466 70.754251 218 222 230
1.29776519 85.3293881 70.8612018 218 222 230
1.02394824 85.108619 69.994097 218 222 230
0.214468359 83.858251 72.3933931 218 222 230
0.579192456 84.5612624 72.037083 218 222 230
1.03276336 85.1010182 71.2531622 218 222 230
0.138281681 83.618148 73.2129642 218 222 230
1.42519751 85.414367 71.5026178 218 222 230
1.19007836 85.229863 72.1083836 218 222 230
1.59516696 85.5214272 71.7283066 218 222 230
0.167511777 83.7036633 73.6405748 218 222 230
0.2351161 83.8754682 74.4957962 218 222 230
1.11940115 85.1596157 72.9398381 218 222 230
0.168847807 83.685416 74.9211421 218 222 230
0.139944166 83.5896143 75.1338151 218 222 230
0.101848348 83.4453045 75.4528246 218 222 230
0.432971365 84.2596277 76.5168038 218 222 230
0.218803748 83.8151279 75.5948114 218 222 230
0.593283403 84.5264664 75.8787849 218 222 230
1.13735693 85.1462717 75.5009727 218 222 230
0.981450132 85.010063 74.602747 218 222 230
0.918332207 84.9264651 76.1389916 218 222 230
1.2189749 85.2113692 75.9500855 218 222 230
1.10394384 85.1077465 76.269095 218 222 230
1.55545006 85.4532951 76.4229652 218 222 230
1.34567916 85.3049421 76.6237547 218 222 230
1.07061702 85.0683791 77.0372172 218 222 230
1.47716378 85.3933229 77.2974239 218 222 230
0.600102434 84.5096275 77.8641423 218 222 230
1.56726859 85.4492057 77.7465367 218 222 230
1.11647995 85.0977106 78.2544523 218 222 230
0.793411858 84.7518071 78.9320366 218 222 230
0.899672119 84.8677013 79.4659838 218 222 230
0.937368789 84.9043872 79.8302622 218 222 230
1.01490707 84.9766061 80.5588192 218 222 230
0.302553911 83.9462487 80.2872052 218 222 230
1.85437267 85.6000495 79.755661 218 222 230
1.90583654 85.6225432 80.3111103 218 222 230
1.9577082 85.6444402 80.8665596 218 222 230
1.01687173 84.9746414 80.9411608 218 222 230
1.01784517 84.973668 81.1323317 218 222 230
1.17937826 85.115043 82.2217282 218 222 230
0.80727678 84.7301432 82.3438631 218 222 230
0.448834508 84.1961751 83.4433545 218 222 230
0.533477129 84.321635 85.0214291 218 222 230
0.506194866 84.2738159 85.3189364 218 222 230
0.453643363 84.1769397 85.9139511 218 222 230
0.924396961 84.8368166 85.1572361 218 222 230
1.19701709 85.1019345 85.5452814 218 222 230
1.53094784 85.3715425 84.4005211 218 222 230
0.508744846 84.2651629 86.5542348 218 222 230
1.04101479 84.9504984 86.1176616 218 222 230
1.81755683 85.5371239 86.321372 218 222 230
2.42923358 85.8136495 84.9243734 218 222 230
2.22232395 85.7445883 83.6438061 218 222 230
0.537510895 84.3090086 86.8743766 218 222 230
2.53369379 85.8438901 85.564657 218 222 230
0.931340264 84.8281435 87.0101836 218 222 230
2.29182335 85.7611038 85.8168954 218 222 230
1.20298062 85.0975026 86.7805797 218 222 230
1.55383263 85.3622751 88.106416 218 222 230
0.358468187 83.9695285 88.3392787 218 222 230
2.69119816 85.8838652 86.5250825 218 222 230
2.30308792 85.7599713 87.0521937 218 222 230
2.55234264 85.8428035 87.4176045 218 222 230
0.632701938 84.4291267 89.6877495 218 222 230
2.45913574 85.8114602 88.0126192 218 222 230
0.886813007 84.7529066 90.2358658 218 222 230
1.09353084 84.9760658 89.5260492 218 222 230
0.666083156 84.4695005 90.6255405 218 222 230
1.11624949 84.9926778 90.3037692 218 222 230
0.995533055 84.8668573 91.038485 218 222 230
1.38429505 85.2238712 90.4265395 218 222 230
1.97537948 85.5992422 90.6720801 218 222 230
1.01724645 84.8881222 91.251158 218 222 230
1.0612805 84.9302327 91.676504 218 222 230
1.93766867 85.5755889 91.6517011 218 222 230
1.91865838 85.5635056 92.1415117 218 222 230
1.74329763 85.4613265 92.6313222 218 222 230
2.12139601 85.6604369 93.1087313 218 222 230
0.0815882681 83.0994461 95.870897 218 222 230
1.10315862 84.9511422 95.5928852 218 222 230
1.41571518 85.2239828 95.4384317 218 222 230
1.26970134 85.1034134 95.7235874 218 222 230
1.32663719 85.1494837 96.2614652 218 222 230
0.442132241 85.2818131 14.5624754 218 222 230
0.991047117 85.6347362 27.3434155 218 222 230
0.504741582 84.8381691 49.3968024 218 222 230
0.344325399 84.5753249 49.8144801 218 222 230
0.448304362 84.7462233 49.8980157 218 222 230
0.560736455 84.8924697 50.6498357 218 222 230
0.387827569 84.6207754 51.4016557 218 222 230
0.822847905 85.1686652 52.1534757 218 222 230
1.10310266 85.3994421 53.2515187 218 222 230
1.50571198 85.6550301 53.6632848 218 222 230
1.2554536 85.5025754 53.8005401 218 222 230
1.2939663 85.5256853 54.0064232 218 222 230
1.00356219 85.2640002 57.1632966 218 222 230
1.11536158 85.3538793 57.4034935 218 222 230
1.17187768 85.3936164 57.7123181 218 222 230
0.240080505 84.1234075 61.7389211 218 222 230
0.616993923 84.7822051 61.4419799 218 222 230
1.09427605 85.2911765 60.832253 218 222 230
0.922935623 85.1344797 61.0354953 218 222 230
0.368425284 84.388788 61.843183 218 222 230
0.267803314 84.1811627 62.0437845 218 222 230
1.151273 85.3333493 61.1450388 218 222 230
0.635411411 84.7461068 65.1557971 218 222 230
0.819738828 84.9675487 65.1769232 218 222 230
1.24601017 85.3557937 65.2191754 218 222 230
0.681147894 84.8000359 65.4804663 218 222 230
0.728411649 84.8533699 65.7972131 218 222 230
0.888599246 85.0345844 65.6045339 218 222 230
1.64104859 85.6142783 64.8285354 218 222 230
1.84783793 85.7181643 64.6332154 218 222 230
1.91630282 85.7452386 64.9578846 218 222 230
0.671825504 84.739818 68.624152 218 222 230
0.728954161 84.8089516 68.8062843 218 222 230
0.700063905 84.7669477 69.2220115 218 222 230
0.934598553 85.0335505 69.0755295 218 222 230
0.801864376 84.8853875 69.4793734 218 222 230
0.399293027 84.254507 72.8487318 218 222 230
0.58157707 84.5553739 72.6666156 218 222 230
0.376960605 84.2058416 73.264459 218 222 230
0.513775792 84.4463989 73.0764011 218 222 230
0.541738892 84.4866829 73.2902064 218 222 230
0.674645913 84.6692072 73.72772 218 222 230
0.490470317 84.3932037 74.1216609 218 222 230
0.492413785 84.3868704 74.7619446 218 222 230
0.583476319 84.4933113 77.2555247 218 222 230
0.367494071 84.0933 79.5417174 218 222 230
0.519645608 84.3649302 79.5164729 218 222 230
0.403632104 84.159527 79.808691 218 222 230
0.370720019 84.076637 81.2476307 218 222 230
1.06607115 85.0015648 83.1436746 218 222 230
1.87952132 85.5947406 82.4542529 218 222 230
1.45578342 85.329364 82.9938346 218 222 230
1.20690995 85.1273942 83.5435803 218 222 230
0.919453173 84.8429921 83.9219378 218 222 230
1.31174251 85.2127872 83.8292272 218 222 230
0.862814539 84.7405938 88.2228474 218 222 230
0.937015436 84.8210544 88.657248 218 222 230
1.74847288 85.4775528 89.8479586 218 222 230
1.07228304 84.9318354 93.3009381 218 222 230
0.483997842 85.1914351 26.2156855 218 222 230
0.523615732 85.2180491 27.7193255 218 222 230
0.373293358 85.0330016 26.8422022 218 222 230
1.04138288 85.3961717 49.8980157 218 222 230
1.2718524 85.5514258 50.6498357 218 222 230
1.10686353 85.4267869 51.4016557 218 222 230
0.562979946 84.8596588 52.7024972 218 222 230
0.446122663 84.6792378 53.3430222 218 222 230
0.609211172 84.8986743 53.9377955 218 222 230
1.25578028 85.2645137 73.7924186 218 222 230
1.32637372 85.3147919 74.2187089 218 222 230
1.20719699 85.2189071 74.3467216 218 222 230
1.55838129 85.3604331 88.9299482 218 222 230
0.0876561758 84.4417077 25.9650789 218 222 230
0.971421359 85.6313041 26.4036405 218 222 230
0.105048958 83.9297819 52.748249 218 222 230
1.88987699 85.8479767 50.6498357 218 222 230
0.146259703 84.0501024 53.3735234 218 222 230
2.03172515 85.8865687 51.4016557 218 222 230
81.680602 0 2.18987712 218 222 230
81.680602 0 52.6254297 218 222 230
81.680602 21.5824434 1.89843164 218 222 230
81.680602 50.3590347 1.30175616 218 222 230
81.680602 68.1752739 0.970411504 218 222 230
81.680602 85.9915131 0.78180749 218 222 230
81.680602 85.9915131 97.4798218 218 222 230
81.680602 50.973481 97.4798218 218 222 230
81.680602 50.973481 56.7243364 218 222 230
81.680602 48.7712598 54.3171706 218 222 230
81.680602 49.1705096 54.35706 218 222 230
81.680602 49.5565274 54.475406 218 222 230
81.680602 49.9165197 54.6682864 218 222 230
81.680602 50.2385557 54.9293088 218 222 230
81.680602 50.5119622 55.2498223 218 222 230
81.680602 50.7276782 55.6192043 218 222 230
81.680602 50.8785541 56.0252129 218 222 230
81.680602 50.94962 56.3709456 218 222 230
81.680602 1.54402192 54.3171706 218 222 230
81.680602 0.0434031987 53.0241157 218 222 230
81.680602 0.183203504 53.4252837 218 222 230
81.680602 0.393110498 53.7537067 218 222 230
81.680602 0.545608309 53.9163483 218 222 230
81.680602 0.746778093 54.0745401 218 222 230
81.680602 0.964052357 54.1934905 218 222 230
81.680602 1.15537524 54.262802 218 222 230
81.680602 1.35233896 54.304111 218 222 230
81.680602 0 2.18987712 218 222 230
81.680602 0 52.6254297 218 222 230
81.6376677 0 1.75837043 218 222 230
81.4997428 0 1.31843661 218 222 230
81.261536 0 0.90154884 218 222 230
81.0678567 0 0.670595361 218 222 230
80.8439944 0 0.468185094 218 222 230
80.5407209 0 0.268140902 218 222 230
80.1752419 0 0.109733295 218 222 230
79.8284784 0 0.0262033017 218 222 230
79.4907248 0 0 218 222 230
8.49978125 0 0 218 222 230
8.49978125 0 4.63388336 218 222 230
8.34129103 0 5.11933636 218 222 230
8.35133694 -1.54456592e-17 5.11805297 218 222 230
8.36146717 -4.66162516e-17 5.11421586 218 222 230
8.37642326 -9.66966297e-17 5.10399759 218 222 230
8.391765 -1.52687572e-16 5.08790428 218 222 230
8.42682747 -3.25899114e-16 5.02850418 218 222 230
8.48246371 -8.37390581e-16 4.83488303 218 222 230
0.663693797 -5.55111512e-17 5.11933636 218 222 230
0.845775615 -5.55111512e-17 15.8195856 218 222 230
18.2243151 -2.28018573e-16 23.6462424 218 222 230
41.2732698 -6.203814e-17 34.1996662 218 222 230
64.901788 1.41699329e-16 45.0353029 218 222 230
0.663693797 -5.55111512e-17 5.11933636 255 79 163
0.470258009 0.0286367573 4.9847628 255 79 163
0.315660689 0.0980648287 4.88437197 255 79 163
0.232572147 0.158361339 4.83719247 255 79 163
0.147706272 0.245290155 4.79999356 255 79 163
0.116579813 0.286922264 4.79170352 255 79 163
0.0890264871 0.330520984 4.78881537 255 79 163
8.34129103 0.330520984 4.78881537 255 79 163
8.34129103 0 5.11933636 255 79 163
8.34129103 0.00913193937 5.04217817 255 79 163
8.34129103 0.0360247843 4.96928279 255 79 163
8.34129103 0.0791910465 4.90467998 255 79 163
8.34129103 0.13624533 4.85193956 255 79 163
8.34129103 0.204036115 4.81397473 255 79 163
8.34129103 0.266039953 4.79516586 255 79 163
3.67114015 85.9915131 97.4798218 218 222 230
81.680602 85.9915131 97.4798218 218 222 230
0.816043826 84.6281197 97.4798218 218 222 230
1.44501029 85.2395537 97.4798218 218 222 230
2.18851078 85.6788072 97.4798218 218 222 230
2.93658624 85.9172745 97.4798218 218 222 230
1.58299647 50.973481 97.4798218 218 222 230
1.46863688 58.2795309 97.4798218 218 222 230
1.22579764 67.8008004 97.4798218 218 222 230
81.680602 50.973481 97.4798218 218 222 230
81.680602 85.9915131 0.78180749 218 222 230
81.680602 85.9915131 97.4798218 218 222 230
81.6318129 85.9915131 0.509949224 218 222 230
81.6661711 85.9915131 0.632287947 218 222 230
81.6771097 85.9915131 0.707994811 218 222 230
8.49978125 85.9915131 0.922842071 218 222 230
8.49978125 85.9915131 1.56482835 218 222 230
5.27579423 85.9915131 4.78881537 218 222 230
6.04197642 85.9915131 4.69645046 218 222 230
6.73793899 85.9915131 4.4381931 218 222 230
7.31805684 85.9915131 4.05947377 218 222 230
7.64176149 85.9915131 3.75487204 218 222 230
7.96526707 85.9915131 3.34270014 218 222 230
8.21427662 85.9915131 2.89125718 218 222 230
8.38430414 85.9915131 2.41996484 218 222 230
8.47207883 85.9915131 1.98655956 218 222 230
1.82170195 85.9915131 4.78881537 218 222 230
2.13998952 85.9915131 25.0879555 218 222 230
2.80937848 85.9915131 52.1534757 218 222 230
3.35527753 85.9915131 74.8166487 218 222 230
3.56288385 85.9915131 86.728793 218 222 230
3.67114015 85.9915131 97.4798218 218 222 230
8.34129103 0.330520984 4.78881537 255 79 163
8.40526716 0.240740978 4.77567052 255 79 163
8.45580163 0.161803808 4.74099725 255 79 163
8.48658193 0.0904058327 4.69570509 255 79 163
8.49658407 0.0457215353 4.6647633 255 79 163
8.49978125 0 4.63388336 255 79 163
8.49978125 14.0220108 4.34338235 255 79 163
8.49978125 32.7180252 3.63141256 255 79 163
8.49978125 56.7633489 2.52364622 255 79 163
8.49978125 68.7499516 2.0338662 255 79 163
8.49978125 77.3707324 1.75534656 255 79 163
8.49978125 85.9915131 1.56482835 255 79 163
5.27579423 85.9915131 4.78881537 255 79 163
6.04197642 85.9915131 4.69645046 255 79 163
6.73793899 85.9915131 4.4381931 255 79 163
7.31805684 85.9915131 4.05947377 255 79 163
7.64176149 85.9915131 3.75487204 255 79 163
7.96526707 85.9915131 3.34270014 255 79 163
8.21427662 85.9915131 2.89125718 255 79 163
8.38430414 85.9915131 2.41996484 255 79 163
8.47207883 85.9915131 1.98655956 255 79 163
8.04288585 14.4046004 4.78881537 255 79 163
7.32231058 33.1700395 4.78881537 255 79 163
5.83974784 66.2237809 4.78881537 255 79 163
5.50217421 76.107647 4.78881537 255 79 163
8.41280578 4.86442426 4.74173423 255 79 163
8.45850779 7.1313759 4.66301219 255 79 163
8.42071942 7.1762659 4.70975354 255 79 163
8.33372122 9.58571072 4.74730036 255 79 163
8.43379492 81.6811228 2.28809762 255 79 163
7.85609795 83.1179196 3.53253239 255 79 163
7.85718483 81.6811228 3.55133797 255 79 163
8.06689903 81.6811228 3.23890133 255 79 163
8.06316009 83.1179196 3.2230524 255 79 163
8.20738308 83.1179196 2.94726948 255 79 163
8.2205013 81.6811228 2.94244549 255 79 163
8.30008991 81.6811228 2.74974713 255 79 163
8.37644155 81.6811228 2.51921255 255 79 163
8.45095071 11.8038608 4.59349322 255 79 163
8.11683094 18.9829566 4.74626534 255 79 163
8.0385342 26.7642217 4.67350361 255 79 163
8.41602737 20.3815455 4.45379984 255 79 163
8.27284437 23.5613128 4.56187849 255 79 163
8.21781772 17.3930729 4.71832449 255 79 163
8.33452102 27.6811866 4.38072378 255 79 163
8.43239444 28.139669 4.18233406 255 79 163
8.36851178 29.7411235 4.26373751 255 79 163
8.31114478 30.8087598 4.32299879 255 79 163
8.41816636 32.8310288 4.05428139 255 79 163
7.80903296 37.026922 4.6161283 255 79 163
7.94021871 35.6659588 4.56221566 255 79 163
7.58604182 39.0683669 4.68728877 255 79 163
7.28175507 42.6112147 4.74009432 255 79 163
8.33869324 47.5379492 3.69986042 255 79 163
7.99548542 44.9666942 4.28451954 255 79 163
8.30428082 40.8838045 4.00681367 255 79 163
8.44225548 48.8235767 3.35067122 255 79 163
8.35954647 50.8650215 3.52670238 255 79 163
8.22391477 54.4078693 3.68534946 255 79 163
7.45124763 52.0523898 4.52668197 255 79 163
8.14565112 51.2608109 3.91433077 255 79 163
6.70882381 59.1380853 4.71717707 255 79 163
8.42658727 60.3378547 2.95896581 255 79 163
8.33346806 59.1284569 3.29199667 255 79 163
8.28670415 60.7230914 3.34841419 255 79 163
8.17164171 63.9123605 3.47625722 255 79 163
7.77651264 61.4935649 4.06554676 255 79 163
6.87790033 63.8586729 4.60860638 255 79 163
7.07950023 59.9232452 4.57871463 255 79 163
7.38591105 63.8765687 4.33774397 255 79 163
8.41922222 66.331156 2.77483964 255 79 163
6.42988869 68.2921204 4.70601967 255 79 163
6.80358865 66.8553236 4.60034953 255 79 163
6.88723079 68.0237023 4.5502724 255 79 163
7.70658267 67.4868663 3.9956168 255 79 163
8.30798266 68.1184089 3.0626281 255 79 163
8.26554488 66.7163928 3.20537755 255 79 163
8.30174222 70.5893755 3.0064641 255 79 163
8.00468746 70.5130703 3.56623682 255 79 163
8.14414597 69.5552057 3.36627425 255 79 163
8.41363403 71.413031 2.63513502 255 79 163
6.30044929 73.2340534 4.70084209 255 79 163
7.06266145 70.3604598 4.42953542 255 79 163
6.78528738 72.9656354 4.53519202 255 79 163
6.64061867 74.2682232 4.58224175 255 79 163
8.46158795 73.3989314 2.34444441 255 79 163
8.40948073 75.7234214 2.53130251 255 79 163
8.12471877 74.0761103 3.28856547 255 79 163
8.23779921 76.0620108 3.01781677 255 79 163
6.70377198 77.5567114 4.52313353 255 79 163
6.59980281 76.4234184 4.57770666 255 79 163
7.61648282 76.7391897 3.90551694 255 79 163
6.1943635 77.9654723 4.69659866 255 79 163
8.28741349 77.054961 2.87750559 255 79 163
5.88542994 80.6408192 4.74796613 255 79 163
6.91701554 79.8232975 4.39312394 255 79 163
8.24724018 79.6250509 2.92013706 255 79 163
7.8220233 81.0618477 3.60575639 255 79 163
7.57974997 81.6811228 3.86878409 255 79 163
7.68120731 80.7522101 3.77544757 255 79 163
7.75246629 80.7522101 3.69485248 255 79 163
7.56313992 80.7522101 3.89758324 255 79 163
7.83302064 80.7522101 3.59652808 255 79 163
7.90932701 80.7522101 3.4952482 255 79 163
7.93240953 81.0618477 3.45792485 255 79 163
8.01856234 81.0618477 3.32841777 255 79 163
8.10407524 81.0618477 3.18423925 255 79 163
6.10539024 82.9074053 4.69303973 255 79 163
6.21051987 84.5547164 4.65664732 255 79 163
6.15435549 85.0336486 4.67070152 255 79 163
8.28589033 13.1042306 4.73534264 255 79 163
8.36764427 14.2133056 4.65667839 255 79 163
8.43627785 15.7075419 4.53480179 255 79 163
7.97140274 29.8917949 4.65672074 255 79 163
7.93678692 31.4555815 4.64806679 255 79 163
8.07957277 31.2399743 4.55750394 255 79 163
7.8801034 31.9893997 4.66884574 255 79 163
8.15785016 32.9440324 4.44688429 255 79 163
7.84083886 32.3452784 4.68201091 255 79 163
7.75890674 33.057036 4.70649598 255 79 163
8.38718202 33.7383376 4.0941215 255 79 163
8.36937279 34.191992 4.11521795 255 79 163
8.33962146 34.8724736 4.14817621 255 79 163
8.32797625 36.8762506 4.10159537 255 79 163
8.23176867 35.1369687 4.30193431 255 79 163
7.87051639 41.0561773 4.49138941 255 79 163
7.86023737 39.6735128 4.52982653 255 79 163
7.87652908 41.7475096 4.47082957 255 79 163
7.91484724 42.8205711 4.41445761 255 79 163
8.19273133 49.4713052 3.90144111 255 79 163
8.09946274 50.4379832 4.0041911 255 79 163
7.99121023 49.7951695 4.15354154 255 79 163
8.11502542 50.7122591 3.97478651 255 79 163
7.47558572 55.9867476 4.43442246 255 79 163
7.49425952 57.9539266 4.38162062 255 79 163
8.10175527 56.7697678 3.80593489 255 79 163
7.686442 59.1332711 4.20648372 255 79 163
7.84108042 58.3454367 4.07946329 255 79 163
7.49678268 59.3965958 4.34986996 255 79 163
7.83934735 59.525851 4.05074679 255 79 163
8.09896201 59.7965189 3.71845395 255 79 163
7.94282483 60.1305499 3.91857097 255 79 163
7.79098605 60.3231683 4.08002018 255 79 163
8.0745697 60.3280638 3.73880318 255 79 163
7.78613557 60.7133005 4.07516969 255 79 163
7.74060602 64.4902156 4.02964014 255 79 163
7.16366757 65.0680707 4.45478695 255 79 163
6.50589202 65.6459258 4.7090598 255 79 163
6.79502561 65.7220625 4.61742709 255 79 163
7.35158202 65.8743359 4.32384213 255 79 163
6.60407605 66.0490584 4.67836406 255 79 163
8.04010862 65.1038624 3.65370541 255 79 163
6.67020367 66.3178135 4.65485737 255 79 163
7.78239404 65.7578542 3.95681601 255 79 163
7.96541876 65.6996134 3.7414649 255 79 163
7.56761256 66.4820174 4.14585731 255 79 163
8.03325185 66.102746 3.63677338 255 79 163
7.88485514 66.2953643 3.82799332 255 79 163
8.11923388 66.3072949 3.49748426 255 79 163
7.67022707 66.7858582 4.0465189 255 79 163
7.68234483 67.0195275 4.02974797 255 79 163
7.73162159 67.8763258 3.96158754 255 79 163
7.17032057 68.3938607 4.39703145 255 79 163
7.74409828 68.0710556 3.9443011 255 79 163
7.30724477 68.5789398 4.30588738 255 79 163
7.50974245 68.4447308 4.15519054 255 79 163
8.01501214 68.8657592 3.59173247 255 79 163
7.84001817 68.3359568 3.83228256 255 79 163
7.22777843 69.1727798 4.34867599 255 79 163
8.3615485 68.5780399 2.90085393 255 79 163
8.3850096 68.8078554 2.81895903 255 79 163
8.32024432 69.0569722 3.00300725 255 79 163
7.68014739 69.9578328 3.96918151 255 79 163
8.41603497 69.1525787 2.69515846 255 79 163
7.84612278 70.8750502 3.76747402 255 79 163
7.75906034 71.0560401 3.863555 255 79 163
7.72525341 71.5136265 3.89054639 255 79 163
8.24967462 71.7516204 3.09809458 255 79 163
7.65534793 72.4287993 3.94438205 255 79 163
8.21113347 72.5264504 3.1606615 255 79 163
7.8301791 72.9311221 3.74256202 255 79 163
8.19070063 72.9138654 3.19232458 255 79 163
7.91116603 73.1822834 3.63512954 255 79 163
7.54783493 73.5208729 4.02673092 255 79 163
7.44404968 73.7486438 4.11314717 255 79 163
7.22417692 74.2041856 4.27224833 255 79 163
7.98723424 73.4802257 3.52313806 255 79 163
7.50460341 74.4573915 4.04923612 255 79 163
6.98353986 75.0918787 4.40975502 255 79 163
7.63517879 74.5839945 3.92421291 255 79 163
6.24503769 75.5997629 4.69862563 255 79 163
6.5739028 75.6135027 4.59519642 255 79 163
7.20520119 75.6409824 4.26456394 255 79 163
6.36293783 75.8743147 4.66431439 255 79 163
7.97910205 74.9638035 3.50305653 255 79 163
6.44183323 76.0573492 4.63813655 255 79 163
7.69080465 75.4854275 3.850594 255 79 163
7.89714831 75.40765 3.60765481 255 79 163
7.97531528 75.6822019 3.49370552 255 79 163
7.80926712 75.8514966 3.70988704 255 79 163
8.07270951 75.8088048 3.33961073 255 79 163
7.0228034 77.8333079 4.35355904 255 79 163
7.17657702 77.9716061 4.25297234 255 79 163
7.40128518 77.7672256 4.08577788 255 79 163
7.2864003 78.2812436 4.16974346 255 79 163
7.53756615 78.1800757 3.95915031 255 79 163
7.96390919 77.9777399 3.46553947 255 79 163
8.10807051 78.597015 3.22197241 255 79 163
8.34709044 77.4678111 2.70338793 255 79 163
8.37315615 77.6742361 2.61551515 255 79 163
7.16713045 78.7952616 4.24914687 255 79 163
8.30180929 77.9818291 2.81963864 255 79 163
8.40754955 77.9838737 2.48302298 255 79 163
7.59699783 79.2101562 3.88603195 255 79 163
7.85573682 79.3484545 3.58981051 255 79 163
7.70701372 79.7241742 3.76221058 255 79 163
6.81832324 80.4054423 4.44061596 255 79 163
7.72220448 80.0668528 3.73995042 255 79 163
6.76832807 80.6965147 4.46330397 255 79 163
6.77637783 81.160971 4.45516447 255 79 163
7.05538962 81.0247174 4.29783287 255 79 163
6.55690225 81.7431158 4.55081269 255 79 163
6.88793808 82.294264 4.38585458 255 79 163
7.53443775 83.1179196 3.89564168 255 79 163
6.74508642 82.5220349 4.4593704 255 79 163
7.11757773 83.1179196 4.23577779 255 79 163
6.45173853 82.9775767 4.58398603 255 79 163
7.26097081 83.5968518 4.12695474 255 79 163
6.91100777 83.836318 4.35957827 255 79 163
7.4806562 83.5968518 3.94114868 255 79 163
7.11491387 83.836318 4.23089707 255 79 163
7.26663341 83.836318 4.12020894 255 79 163
7.64516389 83.5968518 3.77716808 255 79 163
7.39027221 83.836318 4.01923682 255 79 163
6.94684622 85.5125809 4.32538028 255 79 163
6.85761543 85.1932927 4.37961062 255 79 163
7.18777263 85.2731148 4.16657887 255 79 163
7.16372916 85.5125809 4.18206407 255 79 163
7.39212711 85.2731148 4.00345244 255 79 163
7.3317166 85.672225 4.0509894 255 79 163
7.60275323 85.5125809 3.80098489 255 79 163
8.44461043 13.5631207 4.5681321 255 79 163
8.25616436 15.0560711 4.72791115 255 79 163
7.78207666 33.7880147 4.68587399 255 79 163
8.12578297 33.3976868 4.46633727 255 79 163
7.79434292 34.1535041 4.67447463 255 79 163
8.02071538 37.9723087 4.44581555 255 79 163
7.62525954 46.2031921 4.54138392 255 79 163
8.11631482 55.7203918 3.81693352 255 79 163
8.05501038 56.376653 3.88315833 255 79 163
8.07081709 56.5076913 3.85772244 255 79 163
8.4054803 56.7665584 3.17030323 255 79 163
8.36665853 57.2917813 3.26942715 255 79 163
8.34445171 57.5543928 3.31962683 255 79 163
7.31342888 58.741761 4.47965249 255 79 163
8.3408362 58.0790808 3.31022902 255 79 163
7.74567254 69.3639928 3.91422776 255 79 163
8.16734396 71.2345356 3.27996482 255 79 163
8.1563181 71.4633288 3.29468057 255 79 163
6.95319539 73.3774632 4.44806405 255 79 163
7.25488413 76.1374575 4.2225858 255 79 163
7.92673281 77.4110933 3.52892648 255 79 163
8.09703804 77.4299993 3.26451553 255 79 163
7.97864188 77.6175184 3.45067714 255 79 163
7.69840094 78.6961383 3.78778322 255 79 163
7.05330604 84.3152502 4.26792356 255 79 163
7.02217342 84.5547164 4.2860345 255 79 163
7.71831834 84.5547164 3.68462798 255 79 163
6.96790483 84.7675751 4.31823757 255 79 163
8.28021689 84.5547164 2.7542613 255 79 163
7.97530647 85.3529368 3.33484946 255 79 163
8.22752151 85.2731148 2.87095208 255 79 163
8.31284966 85.2731148 2.65655331 255 79 163
8.08570308 85.752047 3.14837016 255 79 163
8.28743106 85.5125809 2.72196413 255 79 163
8.3824821 85.5125809 2.4333673 255 79 163
8.04081948 46.8705706 4.18262594 255 79 163
8.40798271 56.2418703 3.1818034 255 79 163
8.00545368 57.7541597 3.90763406 255 79 163
8.00116257 58.0165037 3.90556791 255 79 163
8.13745061 57.8624667 3.71829054 255 79 163
7.37714793 77.4839024 4.10969151 255 79 163
7.91620866 84.1955172 3.43616666 255 79 163
80.8962342 85.4800928 2.77555756e-17 255 79 163
81.1182471 85.6581188 0.0318456039 255 79 163
81.3151085 85.8103338 0.12045943 255 79 163
81.4531631 85.9081499 0.230775129 255 79 163
81.55052 85.9657577 0.350064737 255 79 163
81.5969842 85.9852042 0.430043639 255 79 163
81.6318129 85.9915131 0.509949224 255 79 163
81.6661711 85.9915131 0.632287947 255 79 163
81.6771097 85.9915131 0.707994811 255 79 163
81.680602 85.9915131 0.78180749 255 79 163
81.680602 0 2.18987712 255 79 163
81.680602 21.5824434 1.89843164 255 79 163
81.680602 50.3590347 1.30175616 255 79 163
81.680602 68.1752739 0.970411504 255 79 163
81.6376677 0 1.75837043 255 79 163
81.4997428 0 1.31843661 255 79 163
81.261536 0 0.90154884 255 79 163
81.0678567 0 0.670595361 255 79 163
80.8439944 0 0.468185094 255 79 163
80.5407209 0 0.268140902 255 79 163
80.1752419 0 0.109733295 255 79 163
79.8284784 0 0.0262033017 255 79 163
79.4907248 0 0 255 79 163
79.7821703 21.5824434 -1.56164286e-16 255 79 163
80.3788458 50.3590347 -3.929954e-17 255 79 163
80.7062189 67.9195637 4.08591421e-17 255 79 163
80.1025936 10.7912217 0.0601113027 255 79 163
80.5360476 7.19414781 0.237742217 255 79 163
81.2257245 73.8583101 0.113719381 255 79 163
81.4301324 76.8276834 0.250469596 255 79 163
81.5752767 79.8822933 0.421301155 255 79 163
81.5319753 85.824816 0.32376694 255 79 163
81.5062236 85.824816 0.290140766 255 79 163
81.451248 85.735803 0.229353962 255 79 163
81.47861 85.824816 0.257867914 255 79 163
81.3498071 85.7099082 0.143875381 255 79 163
81.3871478 3.5970739 1.07225188 255 79 163
81.4961471 2.39804927 1.29467679 255 79 163
81.3477272 2.39804927 1.01523154 255 79 163
81.2555657 3.5970739 0.872667003 255 79 163
81.1568327 2.39804927 0.756347855 255 79 163
81.1014 3.5970739 0.687429084 255 79 163
81.5340729 7.19414781 1.34553062 255 79 163
81.2972075 7.19414781 0.904027791 255 79 163
81.6193746 11.9902463 1.55863484 255 79 163
80.3335844 15.5873203 0.110127786 255 79 163
81.544986 17.9853695 1.24531915 255 79 163
81.0975965 14.3882956 0.600801265 255 79 163
80.446176 17.9853695 0.139928506 255 79 163
81.4345377 19.1843942 0.995428124 255 79 163
80.6920724 19.1843942 0.249931997 255 79 163
81.1245642 21.5824434 0.556037761 255 79 163
81.5473099 21.5824434 1.199629 255 79 163
80.480973 21.5824434 0.133292116 255 79 163
80.5940765 24.7798425 0.160728634 255 79 163
80.8068524 31.1746405 0.218437396 255 79 163
81.5570897 28.7765912 1.11161057 255 79 163
81.4497677 26.378542 0.923337171 255 79 163
81.3743874 29.575941 0.756162606 255 79 163
81.533996 32.77334 0.991056469 255 79 163
81.2092998 35.970739 0.471302187 255 79 163
81.4881975 40.7668376 0.769617797 255 79 163
80.5419752 40.7668376 0.0455450791 255 79 163
80.7614355 43.1648869 0.102129615 255 79 163
81.0420549 42.3655371 0.258585205 255 79 163
80.9636486 45.5629361 0.179238359 255 79 163
81.522015 53.2857895 0.634348079 255 79 163
81.458981 52.3102046 0.547268263 255 79 163
81.5955073 54.7491669 0.765852295 255 79 163
81.5437701 62.1512908 0.547327714 255 79 163
81.3506452 59.1392992 0.329956782 255 79 163
81.4693759 55.2369594 0.521599019 255 79 163
81.0761673 56.2125444 0.151108673 255 79 163
81.2229272 63.0700512 0.185339388 255 79 163
81.0190756 63.5294315 0.0735029447 255 79 163
81.158848 65.0354272 0.130438513 255 79 163
81.2448109 66.0394244 0.176477385 255 79 163
81.5620187 71.016792 0.474333315 255 79 163
81.5150025 70.027001 0.40892933 255 79 163
81.5221427 72.9537558 0.391297406 255 79 163
81.2709459 82.681193 0.102414046 255 79 163
80.4231665 0.799349757 0.206201881 255 79 163
80.1949741 0.799349757 0.114599862 255 79 163
80.3761954 1.19902463 0.183754185 255 79 163
80.5438663 1.19902463 0.266059143 255 79 163
80.3402194 1.79853695 0.166674906 255 79 163
80.4056899 3.5970739 0.189311962 255 79 163
80.6383958 1.99837439 0.317742308 255 79 163
81.1539799 8.39317244 0.712464203 255 79 163
80.8864908 8.99268476 0.454233887 255 79 163
81.0754042 8.99268476 0.623671043 255 79 163
81.3200031 9.99187196 0.912666677 255 79 163
81.1806188 11.390734 0.717988332 255 79 163
80.90866 11.1908966 0.456581786 255 79 163
81.1332316 11.390734 0.664816097 255 79 163
81.0731329 11.390734 0.602359599 255 79 163
80.8252142 11.1908966 0.392884738 255 79 163
80.2593772 10.7912217 0.105317341 255 79 163
80.3874869 10.7912217 0.152516811 255 79 163
81.0812148 12.3899212 0.60202501 255 79 163
81.0789147 15.9869951 0.56738794 255 79 163
81.0697725 16.7863449 0.550995092 255 79 163
80.8759572 17.1860198 0.384425346 255 79 163
81.1102248 17.9853695 0.579016804 255 79 163
81.2325113 18.3850444 0.709682836 255 79 163
81.0142843 18.5848818 0.483122697 255 79 163
80.9112913 18.7847193 0.397252188 255 79 163
81.6028103 23.1811429 1.33515888 255 79 163
81.3576337 24.7798425 0.79753393 255 79 163
81.0860819 25.5791922 0.475945475 255 79 163
81.2384235 31.9739903 0.552340642 255 79 163
81.1246914 39.1681381 0.35578278 255 79 163
81.0829786 40.7668376 0.304909929 255 79 163
81.0692357 41.2997374 0.288966114 255 79 163
81.5013636 45.5629361 0.716953401 255 79 163
81.0866193 47.1616356 0.240538472 255 79 163
81.3931057 47.6945355 0.522275851 255 79 163
81.5078813 47.9609854 0.690882767 255 79 163
81.5382416 48.7603352 0.735332416 255 79 163
81.5566544 49.293235 0.764709062 255 79 163
81.5892035 50.3590347 0.822586612 255 79 163
80.9365781 51.0094246 0.12059488 255 79 163
80.8580154 50.3590347 0.0913985203 255 79 163
80.9748732 51.3346196 0.136629111 255 79 163
81.0309532 51.8224121 0.162412198 255 79 163
81.1928251 51.9850096 0.268505715 255 79 163
81.0462539 53.2857895 0.158587028 255 79 163
81.5503463 65.120664 0.521022908 255 79 163
81.5534694 66.6053506 0.508530255 255 79 163
81.46922 66.4167085 0.384003877 255 79 163
81.5753513 67.1073492 0.543650372 255 79 163
81.5245503 67.4207057 0.450989291 255 79 163
81.1529122 68.9732823 0.102160762 255 79 163
81.2384844 68.6646612 0.152981888 255 79 163
81.1947895 69.4681779 0.121453131 255 79 163
81.2056524 70.9315553 0.118737405 255 79 163
81.3159388 69.6544522 0.200735549 255 79 163
81.5795869 84.3363531 0.404060269 255 79 163
81.5579065 84.3363531 0.367707178 255 79 163
81.6279892 84.8880731 0.504544961 255 79 163
81.3533632 0.399674878 1.03614396 255 79 163
81.1102524 0.599512317 0.713083147 255 79 163
81.2641997 0.599512317 0.902143748 255 79 163
81.3519621 1.19902463 1.02935332 255 79 163
81.1082573 1.79853695 0.704890638 255 79 163
80.9048131 10.3915468 0.459245986 255 79 163
80.8483587 10.3915468 0.415400273 255 79 163
80.7648682 22.1153433 0.269861136 255 79 163
81.1677755 22.1153433 0.594757383 255 79 163
80.8985428 22.3817932 0.355712179 255 79 163
81.1887451 22.3817932 0.61439568 255 79 163
80.7986334 23.1811429 0.281763143 255 79 163
81.2249581 23.9804927 0.636395129 255 79 163
81.2716395 24.2469426 0.688886023 255 79 163
81.1900342 44.3639115 0.351234959 255 79 163
80.9709081 48.4050686 0.158596075 255 79 163
81.1630687 48.9379684 0.277776951 255 79 163
80.9126596 49.0267851 0.124471693 255 79 163
81.2505617 49.5596849 0.344270466 255 79 163
81.2671533 49.8261348 0.356494048 255 79 163
81.2993264 50.3590347 0.381275563 255 79 163
81.0327649 49.5596849 0.183294803 255 79 163
80.9750836 49.8261348 0.148937065 255 79 163
81.3433431 50.8468271 0.421281833 255 79 163
81.2696704 67.252326 0.184523967 255 79 163
81.1110071 67.1681361 0.0923226026 255 79 163
81.5213804 68.2957846 0.436500633 255 79 163
81.3957945 68.0474188 0.284807506 255 79 163
81.5709438 68.4199675 0.519453317 255 79 163
81.2406022 67.7958961 0.160497917 255 79 163
81.1548901 67.6701347 0.110979366 255 79 163
81.5908191 68.9148631 0.553925821 255 79 163
81.5006734 68.8314624 0.4006978 255 79 163
81.2598223 84.9082229 0.090581821 255 79 163
81.6030824 0.199837439 1.61108664 255 79 163
81.6026319 0.599512317 1.60679358 255 79 163
81.5577006 21.8488933 1.2224688 255 79 163
81.5627228 21.9821183 1.23385681 255 79 163
81.5771018 22.3817932 1.26787747 255 79 163
81.2660547 22.914693 0.698293609 255 79 163
81.3023103 23.1811429 0.741451783 255 79 163
81.2771726 23.4475929 0.705686586 255 79 163
81.5997744 50.6029309 0.846032346 255 79 163
8.49978125 85.0686711 0 218 222 230
8.49978125 0 0 218 222 230
79.4907248 0 0 218 222 230
79.7821703 21.5824434 -1.56164286e-16 218 222 230
80.3788458 50.3590347 -3.929954e-17 218 222 230
80.7062189 67.9195637 4.08591421e-17 218 222 230
80.8962342 85.4800928 2.77555756e-17 218 222 230
8.49978125 85.9915131 1.56482835 218 222 230
8.49978125 85.9915131 0.922842071 218 222 230
8.49978125 85.963607 0.697615241 218 222 230
8.49978125 85.8855373 0.49346222 218 222 230
8.49978125 85.7713021 0.324555254 218 222 230
8.49978125 85.6823127 0.23358051 218 222 230
8.49978125 85.5593454 0.141256364 218 222 230
8.49978125 85.4253738 0.0717247887 218 222 230
8.49978125 85.2864343 0.0260607912 218 222 230
8.49978125 85.1760756 0.00627141203 218 222 230
8.49978125 85.0686711 0 218 222 230
8.49978125 0 0 218 222 230
8.49978125 0 4.63388336 218 222 230
8.49978125 14.0220108 4.34338235 218 222 230
8.49978125 32.7180252 3.63141256 218 222 230
8.49978125 56.7633489 2.52364622 218 222 230
8.49978125 68.7499516 2.0338662 218 222 230
8.49978125 77.3707324 1.75534656 218 222 230
8.49978125 0 4.63388336 255 79 163
8.49978125 0 4.63388336 255 79 163
8.34129103 0 5.11933636 255 79 163
8.35133694 -1.54456592e-17 5.11805297 255 79 163
8.36146717 -4.66162516e-17 5.11421586 255 79 163
8.37642326 -9.66966297e-17 5.10399759 255 79 163
8.391765 -1.52687572e-16 5.08790428 255 79 163
8.42682747 -3.25899114e-16 5.02850418 255 79 163
8.48246371 -8.37390581e-16 4.83488303 255 79 163
8.34129103 0.00913193937 5.04217817 255 79 163
8.34129103 0.0360247843 4.96928279 255 79 163
8.34129103 0.0791910465 4.90467998 255 79 163
8.34129103 0.13624533 4.85193956 255 79 163
8.34129103 0.204036115 4.81397473 255 79 163
8.34129103 0.266039953 4.79516586 255 79 163
8.34129103 0.330520984 4.78881537 255 79 163
8.40526716 0.240740978 4.77567052 255 79 163
8.45580163 0.161803808 4.74099725 255 79 163
8.48658193 0.0904058327 4.69570509 255 79 163
8.49658407 0.0457215353 4.6647633 255 79 163
8.39116851 0.0110597149 5.00727539 255 79 163
8.38708603 0.0409344292 4.93645796 255 79 163
8.4238683 0.0102475741 4.96180985 255 79 163
8.38275785 0.0862541047 4.87615381 255 79 163
8.41924198 0.0365107874 4.90299446 255 79 163
8.37849062 0.144706306 4.82967087 255 79 163
8.41393598 0.0750250187 4.85310913 255 79 163
8.46731997 0.00733155518 4.85834001 255 79 163
8.37459097 0.213633123 4.79911012 255 79 163
8.40872414 0.124314308 4.81476026 255 79 163
8.46471494 0.0253572224 4.82134892 255 79 163
8.40438032 0.182976433 4.78936213 255 79 163
8.46116711 0.0510416914 4.79001845 255 79 163
8.45768122 0.0836851048 4.76614086 255 79 163
8.49120228 0.012592477 4.72909678 255 79 163
8.49177258 0.00356420617 4.74734325 255 79 163
8.45526201 0.122834022 4.75062959 255 79 163
8.49018945 0.0257342498 4.71354471 255 79 163
8.48918839 0.0425211657 4.70176426 255 79 163
8.48865335 0.0625094452 4.69443533 255 79 163
8.48741172 0.0012305086 4.78842954 255 79 163
8.49978125 85.9915131 0.922842071 255 79 163
8.49978125 85.963607 0.697615241 255 79 163
8.49978125 85.8855373 0.49346222 255 79 163
8.49978125 85.7713021 0.324555254 255 79 163
8.49978125 85.6823127 0.23358051 255 79 163
8.49978125 85.5593454 0.141256364 255 79 163
8.49978125 85.4253738 0.0717247887 255 79 163
8.49978125 85.2864343 0.0260607912 255 79 163
8.49978125 85.1760756 0.00627141203 255 79 163
8.49978125 85.0686711 0 255 79 163
80.8962342 85.4800928 2.77555756e-17 255 79 163
81.1182471 85.6581188 0.0318456039 255 79 163
81.3151085 85.8103338 0.12045943 255 79 163
81.4531631 85.9081499 0.230775129 255 79 163
81.55052 85.9657577 0.350064737 255 79 163
81.5969842 85.9852042 0.430043639 255 79 163
81.6318129 85.9915131 0.509949224 255 79 163
44.6980077 85.782538 0.208975121 255 79 163
44.6980077 85.7084222 0.144431925 255 79 163
44.6980077 85.6353575 0.095928335 255 79 163
44.6980077 85.5660244 0.0607073482 255 79 163
44.6980077 85.5221692 0.0430704135 255 79 163
57.0092761 85.9116035 0.319638547 255 79 163
81.37503 85.9050952 0.226270442 255 79 163
81.2640236 85.8419427 0.149570402 255 79 163
68.9527552 85.7080714 0.0708604348 255 79 163
75.2922841 85.9241339 0.269517168 255 79 163
78.0942591 85.7266262 0.0662217302 255 79 163
79.863036 85.9258874 0.26250317 255 79 163
80.3796351 85.7296235 0.065472411 255 79 163
3 19 6 18
3 17 18 6
3 20 6 19
3 16 17 6
3 21 7 6
3 21 6 20
3 15 16 6
3 22 7 21
3 14 15 6
3 13 8 7
3 13 7 22
3 5 14 6
3 4 14 5
3 2 3 4
3 1 2 4
3 0 4 5
3 0 1 4
3 12 10 9
3 11 9 8
3 11 8 13
3 11 12 9
3 27 24 23
3 28 25 24
3 28 24 27
3 29 25 28
3 26 25 29
3 56 32 31
3 57 33 32
3 58 32 56
3 58 57 32
3 59 34 33
3 59 33 57
3 60 57 58
3 60 59 57
3 61 35 34
3 61 34 59
3 61 59 60
3 62 55 44
3 63 62 64
3 65 62 63
3 66 65 63
3 66 64 62
3 66 63 64
3 66 62 44
3 67 65 66
3 68 43 42
3 68 42 65
3 68 65 67
3 69 48 49
3 70 69 49
3 70 49 50
3 71 50 51
3 71 70 50
3 72 31 30
3 72 56 31
3 73 36 35
3 73 37 36
3 73 35 61
3 74 39 75
3 74 75 76
3 77 39 74
3 78 40 39
3 78 39 77
3 79 30 53
3 79 81 80
3 79 80 30
3 79 82 81
3 83 40 78
3 83 78 84
3 85 40 83
3 86 53 87
3 88 41 40
3 88 40 89
3 88 90 41
3 88 91 90
3 92 91 87
3 93 92 87
3 93 53 54
3 93 87 53
3 94 93 54
3 94 95 93
3 96 94 54
3 97 41 90
3 98 54 99
3 100 41 101
3 102 100 101
3 103 105 104
3 103 104 42
3 103 42 41
3 103 41 100
3 103 100 102
3 106 105 99
3 106 54 55
3 106 99 54
3 107 108 106
3 107 106 55
3 109 108 107
3 109 107 55
3 110 42 104
3 111 55 62
3 111 113 112
3 111 112 55
3 114 115 113
3 114 42 115
3 114 113 111
3 116 42 114
3 117 65 42
3 117 62 65
3 117 42 116
3 118 67 66
3 118 68 67
3 119 118 66
3 119 66 44
3 120 118 119
3 121 44 45
3 121 119 44
3 121 120 119
3 122 68 118
3 122 118 120
3 123 45 46
3 123 121 45
3 123 120 121
3 123 122 120
3 124 72 30
3 124 58 56
3 124 56 72
3 125 60 58
3 125 58 124
3 125 61 60
3 126 61 125
3 127 61 126
3 127 73 61
3 128 126 125
3 128 125 124
3 129 128 124
3 130 127 126
3 130 126 128
3 131 128 129
3 131 130 128
3 132 127 130
3 133 127 132
3 134 75 133
3 134 130 131
3 134 133 132
3 134 132 130
3 135 136 80
3 137 135 80
3 137 139 138
3 137 77 74
3 137 138 77
3 137 80 139
3 137 74 135
3 140 77 138
3 141 77 140
3 141 78 77
3 142 143 81
3 144 78 141
3 144 141 142
3 144 142 145
3 146 145 142
3 146 78 144
3 146 144 145
3 146 142 81
3 146 84 78
3 146 81 82
3 146 82 84
3 147 83 84
3 147 84 82
3 148 83 147
3 149 83 148
3 149 148 150
3 149 150 151
3 152 149 151
3 152 151 153
3 154 149 152
3 154 83 149
3 155 79 53
3 155 151 79
3 155 153 151
3 155 53 156
3 157 85 83
3 157 83 154
3 158 152 153
3 158 154 152
3 158 85 157
3 158 157 154
3 159 40 160
3 161 89 40
3 161 162 89
3 161 40 159
3 161 163 162
3 164 162 163
3 164 163 165
3 166 165 86
3 166 164 165
3 166 162 164
3 167 86 87
3 167 166 86
3 167 87 168
3 167 168 89
3 169 166 167
3 169 162 166
3 169 167 89
3 169 89 162
3 170 88 89
3 170 168 87
3 170 89 168
3 171 88 170
3 171 170 87
3 171 91 88
3 171 87 91
3 172 92 93
3 173 91 92
3 173 92 172
3 173 90 91
3 174 172 93
3 174 173 172
3 174 90 173
3 175 174 93
3 175 90 174
3 175 93 95
3 175 95 90
3 176 94 96
3 177 95 94
3 177 94 176
3 177 97 90
3 177 90 95
3 178 176 96
3 178 177 176
3 178 97 177
3 179 180 97
3 179 96 180
3 179 97 178
3 179 178 96
3 181 96 54
3 181 180 96
3 181 54 182
3 183 41 184
3 183 185 101
3 183 101 41
3 186 185 98
3 186 101 185
3 187 98 99
3 187 102 101
3 187 186 98
3 187 101 186
3 187 99 102
3 188 99 105
3 188 103 102
3 188 102 99
3 188 105 103
3 189 106 108
3 189 104 105
3 189 108 104
3 189 105 106
3 190 104 108
3 190 108 109
3 190 110 104
3 190 109 191
3 190 191 110
3 192 109 55
3 192 191 109
3 192 55 112
3 193 111 62
3 193 114 111
3 193 116 114
3 193 62 117
3 193 117 116
3 194 122 123
3 195 43 68
3 195 68 122
3 195 122 194
3 196 46 47
3 196 195 194
3 196 123 46
3 196 194 123
3 197 195 196
3 198 47 48
3 198 48 69
3 198 69 70
3 198 196 47
3 198 197 196
3 199 51 52
3 199 52 43
3 199 71 51
3 199 70 71
3 199 197 198
3 199 43 195
3 199 195 197
3 199 198 70
3 200 129 124
3 200 136 129
3 200 80 136
3 200 124 30
3 200 30 80
3 201 38 37
3 201 39 38
3 201 73 127
3 201 133 75
3 201 127 133
3 201 37 73
3 201 75 39
3 202 131 129
3 202 129 136
3 202 75 134
3 202 134 131
3 202 76 75
3 203 202 136
3 203 76 202
3 204 136 135
3 204 203 136
3 204 74 76
3 204 135 74
3 204 76 203
3 205 140 138
3 205 138 139
3 205 139 80
3 206 80 81
3 206 81 140
3 206 140 205
3 206 205 80
3 207 81 143
3 207 141 140
3 207 142 141
3 207 140 81
3 207 143 142
3 208 82 79
3 208 147 82
3 209 208 79
3 209 147 208
3 210 209 79
3 211 147 209
3 211 209 210
3 211 148 147
3 212 210 79
3 212 211 210
3 212 148 211
3 212 150 148
3 212 79 151
3 212 151 150
3 213 158 153
3 213 153 155
3 214 213 155
3 214 156 215
3 214 155 156
3 216 159 160
3 216 160 215
3 217 86 165
3 217 165 163
3 218 216 219
3 218 219 217
3 218 159 216
3 220 218 217
3 220 217 163
3 220 159 218
3 220 161 159
3 220 163 161
3 221 97 180
3 221 180 181
3 222 97 221
3 222 221 181
3 223 182 224
3 223 181 182
3 223 222 181
3 225 183 184
3 225 184 224
3 226 183 225
3 227 98 185
3 227 185 183
3 227 226 98
3 227 183 226
3 228 191 192
3 228 110 191
3 229 110 228
3 229 228 192
3 230 192 112
3 230 112 113
3 230 229 192
3 231 215 156
3 231 156 53
3 232 214 215
3 232 215 160
3 233 231 53
3 233 215 231
3 233 216 215
3 234 219 216
3 234 86 217
3 234 217 219
3 234 233 53
3 234 216 233
3 234 53 86
3 235 41 97
3 235 97 222
3 235 222 223
3 236 224 182
3 236 182 54
3 237 225 224
3 237 224 236
3 237 236 54
3 238 223 224
3 238 41 235
3 238 235 223
3 239 184 41
3 239 41 238
3 239 238 224
3 239 224 184
3 240 54 98
3 240 98 226
3 240 226 225
3 240 237 54
3 240 225 237
3 241 42 110
3 241 110 229
3 241 229 230
3 242 241 230
3 242 230 113
3 242 42 241
3 243 242 113
3 243 42 242
3 243 113 115
3 243 115 42
3 244 40 85
3 245 40 244
3 245 244 232
3 246 40 245
3 246 245 232
3 246 232 160
3 246 160 40
3 247 244 85
3 247 158 213
3 247 232 244
3 247 85 158
3 247 214 232
3 247 213 214
3 259 249 248
3 260 250 249
3 260 249 259
3 261 251 250
3 261 250 260
3 262 252 251
3 262 251 261
3 263 253 252
3 263 252 262
3 264 254 253
3 264 253 263
3 265 255 254
3 265 254 264
3 266 256 255
3 266 255 265
3 267 257 256
3 267 256 266
3 258 257 267
3 284 272 271
3 284 273 272
3 284 274 273
3 284 282 274
3 285 284 271
3 286 270 269
3 286 271 270
3 286 285 271
3 287 268 275
3 288 287 289
3 290 287 275
3 290 288 289
3 290 289 287
3 291 280 281
3 291 281 288
3 291 288 290
3 292 287 288
3 292 288 281
3 293 290 275
3 293 291 290
3 294 293 275
3 294 291 293
3 295 294 275
3 296 269 268
3 296 287 292
3 296 268 287
3 297 276 277
3 297 277 278
3 297 278 279
3 297 279 280
3 297 280 291
3 297 291 294
3 297 294 295
3 298 283 282
3 298 281 283
3 298 292 281
3 298 284 285
3 298 285 286
3 298 286 269
3 298 282 284
3 298 269 296
3 298 296 292
3 299 275 276
3 299 295 275
3 299 276 297
3 299 297 295
3 308 307 306
3 305 308 306
3 304 309 308
3 304 308 305
3 312 310 309
3 312 311 310
3 312 309 304
3 303 312 304
3 302 312 303
3 300 301 302
3 300 303 313
3 300 302 303
3 325 326 327
3 325 327 328
3 325 329 326
3 330 329 325
3 331 330 325
3 316 333 332
3 316 315 333
3 314 315 316
3 323 324 314
3 317 314 316
3 317 323 314
3 318 322 323
3 318 323 317
3 321 322 318
3 319 321 318
3 320 321 319
3 316 332 325
3 332 331 325
3 353 334 335
3 353 335 336
3 353 336 337
3 354 337 338
3 354 353 337
3 355 338 339
3 355 354 338
3 356 339 340
3 356 340 341
3 356 341 342
3 356 342 343
3 356 343 344
3 356 355 339
3 357 354 355
3 357 353 354
3 358 357 355
3 358 355 356
3 359 358 356
3 360 359 356
3 361 344 345
3 361 360 356
3 361 356 344
3 362 352 334
3 362 334 353
3 362 353 357
3 363 345 346
3 364 348 352
3 365 348 364
3 365 364 366
3 365 366 367
3 368 346 347
3 368 367 346
3 368 365 367
3 369 357 358
3 369 359 360
3 369 358 359
3 369 360 361
3 370 369 361
3 370 361 345
3 371 357 369
3 371 362 357
3 371 369 370
3 371 370 345
3 372 362 371
3 372 371 345
3 373 372 345
3 373 374 362
3 373 362 372
3 375 374 373
3 375 345 363
3 375 363 374
3 375 373 345
3 376 352 362
3 376 362 374
3 377 376 374
3 377 374 363
3 378 376 377
3 378 377 363
3 378 352 376
3 379 352 378
3 380 352 379
3 381 382 346
3 383 381 346
3 383 364 381
3 383 346 367
3 383 366 364
3 383 367 366
3 384 348 365
3 384 365 368
3 385 384 368
3 385 348 384
3 386 348 385
3 387 379 378
3 387 363 346
3 387 378 363
3 388 380 389
3 388 352 380
3 390 387 346
3 391 352 388
3 392 346 393
3 392 393 389
3 392 389 390
3 392 390 346
3 394 381 364
3 394 391 382
3 394 382 381
3 394 352 391
3 394 364 352
3 395 350 349
3 395 351 350
3 395 347 351
3 395 385 368
3 395 386 385
3 395 368 347
3 396 387 390
3 396 379 387
3 396 380 379
3 396 389 380
3 396 390 389
3 397 389 393
3 397 388 389
3 397 391 388
3 397 382 391
3 398 348 386
3 398 386 395
3 399 349 348
3 399 395 349
3 399 348 398
3 399 398 395
3 400 393 346
3 400 346 382
3 400 397 393
3 400 382 397
3 427 406 407
3 427 428 406
3 429 402 403
3 430 429 403
3 431 403 404
3 431 430 403
3 431 432 430
3 433 431 404
3 433 432 431
3 434 432 433
3 435 404 405
3 435 433 404
3 435 434 433
3 436 415 414
3 436 414 437
3 438 416 415
3 438 417 416
3 438 418 417
3 438 415 436
3 439 441 440
3 439 437 441
3 442 437 439
3 443 436 437
3 443 438 436
3 443 437 442
3 444 439 440
3 444 440 445
3 444 442 439
3 444 443 442
3 446 438 443
3 446 418 438
3 446 443 444
3 447 419 418
3 447 418 446
3 448 427 407
3 449 448 407
3 450 449 407
3 451 419 447
3 451 447 452
3 453 450 454
3 453 419 451
3 455 454 450
3 455 450 407
3 456 453 454
3 456 419 453
3 457 458 407
3 459 420 419
3 459 419 460
3 459 460 461
3 462 464 463
3 462 463 459
3 465 464 466
3 467 465 466
3 467 407 408
3 467 457 407
3 467 466 457
3 468 469 467
3 470 420 459
3 470 459 463
3 471 408 409
3 471 472 408
3 471 473 472
3 474 476 475
3 477 478 471
3 477 471 409
3 479 421 420
3 479 420 474
3 479 474 480
3 481 477 482
3 483 421 479
3 483 479 484
3 485 421 483
3 486 421 485
3 487 421 486
3 488 421 487
3 489 490 409
3 491 421 488
3 491 422 421
3 491 488 492
3 493 489 409
3 493 409 401
3 494 422 491
3 494 491 495
3 496 493 401
3 497 422 498
3 499 496 401
3 499 500 496
3 501 500 499
3 502 423 422
3 502 422 497
3 503 501 499
3 504 429 430
3 505 503 504
3 505 501 503
3 506 501 505
3 506 507 501
3 508 504 430
3 508 430 432
3 508 505 504
3 508 506 505
3 509 507 510
3 509 423 502
3 511 425 426
3 511 426 423
3 511 509 510
3 511 423 509
3 512 405 424
3 512 424 425
3 512 434 435
3 512 435 405
3 513 410 406
3 513 411 410
3 514 412 411
3 514 413 412
3 514 414 413
3 514 437 414
3 514 441 437
3 514 411 513
3 514 513 515
3 516 513 406
3 516 515 513
3 516 514 515
3 517 514 516
3 517 440 441
3 517 441 514
3 518 440 517
3 518 445 440
3 518 406 428
3 518 428 445
3 518 516 406
3 518 517 516
3 519 444 445
3 519 446 444
3 519 445 428
3 520 519 428
3 520 428 427
3 521 446 519
3 521 519 520
3 521 447 446
3 522 447 521
3 523 447 522
3 523 427 448
3 523 452 447
3 523 522 524
3 523 448 452
3 523 524 427
3 525 451 452
3 525 452 448
3 526 451 525
3 526 525 448
3 527 526 448
3 527 448 449
3 528 451 526
3 528 526 527
3 528 527 449
3 529 528 449
3 530 529 449
3 530 453 529
3 530 449 450
3 530 450 453
3 531 451 528
3 531 528 529
3 531 529 453
3 531 453 451
3 532 419 456
3 532 460 419
3 532 533 460
3 532 534 533
3 535 536 458
3 535 458 457
3 537 534 536
3 537 533 534
3 538 537 536
3 538 536 535
3 538 533 537
3 539 535 457
3 539 538 535
3 539 533 538
3 540 533 539
3 540 460 533
3 541 539 457
3 541 540 539
3 542 541 457
3 543 460 540
3 543 541 542
3 543 540 541
3 543 461 460
3 544 542 457
3 544 543 542
3 544 461 543
3 544 457 466
3 545 459 461
3 545 461 544
3 545 544 466
3 546 545 466
3 546 459 545
3 547 546 466
3 548 462 459
3 548 547 462
3 548 459 546
3 548 546 547
3 549 464 462
3 549 466 464
3 549 462 547
3 549 547 466
3 550 464 465
3 550 463 464
3 551 465 467
3 552 550 465
3 552 463 550
3 552 465 551
3 553 551 467
3 553 463 552
3 553 552 551
3 554 553 467
3 554 463 553
3 554 467 469
3 555 463 554
3 555 554 469
3 555 470 463
3 556 469 468
3 556 555 469
3 557 555 556
3 557 470 555
3 558 557 556
3 558 470 557
3 559 556 468
3 559 468 560
3 559 558 556
3 561 470 558
3 561 559 560
3 561 558 559
3 562 468 467
3 562 560 468
3 562 467 408
3 563 561 560
3 564 560 562
3 564 565 560
3 566 560 565
3 566 563 560
3 567 568 470
3 567 561 563
3 567 470 561
3 569 562 408
3 570 566 565
3 570 563 566
3 570 568 567
3 570 567 563
3 571 408 572
3 571 569 408
3 573 420 574
3 575 420 573
3 576 578 577
3 576 577 472
3 579 581 580
3 579 580 578
3 582 578 576
3 582 581 579
3 582 579 578
3 583 580 581
3 584 420 575
3 584 474 420
3 584 581 476
3 584 476 474
3 584 583 581
3 585 576 472
3 585 582 576
3 585 581 582
3 586 581 585
3 587 585 472
3 587 586 585
3 588 472 473
3 588 587 472
3 589 474 475
3 589 588 473
3 589 475 588
3 590 474 589
3 590 589 473
3 591 590 473
3 592 473 471
3 592 591 473
3 593 480 474
3 593 474 590
3 593 590 591
3 594 596 595
3 597 596 594
3 597 594 471
3 597 471 478
3 598 595 596
3 598 479 480
3 599 596 597
3 600 598 596
3 600 479 598
3 600 596 599
3 601 478 477
3 602 603 484
3 602 484 479
3 604 601 477
3 604 484 603
3 604 603 601
3 605 604 477
3 605 477 481
3 606 484 604
3 606 604 605
3 606 605 481
3 607 484 606
3 607 483 484
3 608 483 607
3 609 477 409
3 609 482 477
3 609 610 482
3 611 612 610
3 611 608 612
3 611 483 608
3 613 610 609
3 613 614 610
3 615 611 610
3 615 610 614
3 616 609 409
3 617 483 611
3 617 611 615
3 618 615 614
3 618 617 615
3 619 483 617
3 619 617 618
3 619 618 485
3 619 485 483
3 620 616 409
3 620 409 621
3 622 485 618
3 623 621 409
3 624 623 409
3 625 409 490
3 625 624 409
3 625 490 626
3 627 624 625
3 627 625 626
3 627 626 628
3 629 487 486
3 629 486 630
3 631 629 628
3 631 628 626
3 632 487 629
3 632 629 631
3 633 631 626
3 633 632 631
3 634 632 633
3 634 488 487
3 634 487 632
3 635 634 633
3 636 633 626
3 636 635 633
3 637 488 634
3 637 635 636
3 637 634 635
3 637 636 638
3 639 488 637
3 639 637 638
3 639 492 488
3 640 492 639
3 640 639 638
3 641 640 638
3 641 492 640
3 642 492 641
3 643 645 644
3 646 491 492
3 646 492 642
3 646 642 643
3 647 643 644
3 647 491 646
3 647 646 643
3 648 644 649
3 648 495 491
3 648 647 644
3 648 491 647
3 648 649 650
3 648 650 495
3 651 650 652
3 651 495 650
3 653 489 493
3 654 653 493
3 655 493 656
3 655 654 493
3 657 654 655
3 658 655 656
3 658 659 657
3 658 657 655
3 660 656 493
3 661 656 660
3 661 658 656
3 661 662 658
3 663 422 494
3 663 494 664
3 663 664 659
3 663 659 658
3 665 660 493
3 666 422 663
3 667 660 665
3 668 658 662
3 668 666 663
3 668 663 658
3 669 661 660
3 669 662 661
3 669 667 670
3 669 660 667
3 671 493 496
3 671 665 493
3 672 422 666
3 672 668 662
3 672 666 668
3 673 669 670
3 673 662 669
3 673 672 662
3 674 673 670
3 674 422 672
3 674 672 673
3 675 671 496
3 676 498 422
3 676 674 670
3 676 422 674
3 677 678 675
3 679 496 500
3 679 677 675
3 679 675 496
3 680 678 677
3 680 677 679
3 681 682 680
3 681 679 500
3 681 680 679
3 681 683 682
3 684 681 500
3 684 683 681
3 684 500 685
3 686 683 684
3 686 684 685
3 686 497 683
3 686 502 497
3 687 502 686
3 687 686 685
3 688 687 685
3 688 502 687
3 689 502 688
3 689 507 509
3 689 509 502
3 690 402 429
3 690 401 402
3 690 504 503
3 690 499 401
3 690 503 499
3 690 429 504
3 691 506 508
3 692 507 506
3 692 510 507
3 692 506 691
3 693 691 508
3 693 510 692
3 693 692 691
3 694 508 432
3 694 432 434
3 694 434 512
3 694 510 693
3 694 425 511
3 694 512 425
3 694 511 510
3 694 693 508
3 695 520 427
3 695 521 520
3 695 522 521
3 695 524 522
3 695 427 524
3 696 534 532
3 697 570 565
3 697 565 564
3 698 564 562
3 698 562 569
3 698 697 564
3 699 698 569
3 699 697 698
3 700 699 569
3 700 569 571
3 701 572 702
3 701 571 572
3 701 700 571
3 703 574 702
3 703 573 574
3 704 575 573
3 704 573 703
3 704 584 575
3 704 583 584
3 704 703 705
3 706 578 580
3 706 580 583
3 706 583 704
3 706 704 705
3 707 476 581
3 707 581 586
3 707 586 587
3 708 476 707
3 708 587 588
3 708 707 587
3 709 475 476
3 709 476 708
3 709 588 475
3 709 708 588
3 710 711 592
3 710 592 471
3 712 591 592
3 712 480 593
3 712 593 591
3 713 592 711
3 713 712 592
3 714 595 711
3 714 711 710
3 715 471 594
3 715 714 710
3 715 594 595
3 715 710 471
3 715 595 714
3 716 712 713
3 716 598 480
3 716 595 598
3 716 480 712
3 716 711 595
3 716 713 711
3 717 597 478
3 717 599 597
3 718 719 599
3 718 599 717
3 720 718 717
3 720 717 478
3 721 720 478
3 721 478 601
3 721 601 603
3 721 603 602
3 722 718 720
3 722 719 718
3 722 720 721
3 722 721 602
3 722 602 719
3 723 599 719
3 724 599 723
3 724 479 600
3 724 600 599
3 725 723 719
3 725 602 479
3 725 724 723
3 725 479 724
3 725 719 602
3 726 606 481
3 726 607 606
3 726 481 482
3 727 726 482
3 727 607 726
3 728 727 482
3 729 607 727
3 729 727 728
3 729 608 607
3 730 728 482
3 730 610 612
3 730 729 728
3 730 612 608
3 730 608 729
3 730 482 610
3 731 609 616
3 731 613 609
3 732 614 613
3 732 613 731
3 732 618 614
3 732 622 618
3 733 616 620
3 733 731 616
3 734 622 732
3 734 731 733
3 734 732 731
3 735 622 734
3 735 734 733
3 736 735 733
3 736 622 735
3 736 733 620
3 737 736 620
3 737 620 621
3 738 630 737
3 738 737 621
3 738 623 624
3 738 627 628
3 738 624 627
3 738 621 623
3 738 628 629
3 738 629 630
3 739 490 638
3 739 636 626
3 739 638 636
3 739 626 490
3 740 638 490
3 740 490 489
3 740 641 638
3 741 641 740
3 741 642 641
3 741 643 642
3 742 489 645
3 742 645 643
3 742 740 489
3 742 741 740
3 742 643 741
3 743 645 489
3 743 644 645
3 743 649 644
3 743 652 650
3 743 650 649
3 743 653 652
3 743 489 653
3 744 652 653
3 745 494 495
3 745 495 651
3 746 664 494
3 746 494 745
3 746 651 652
3 746 652 744
3 746 745 651
3 747 744 653
3 747 664 746
3 747 746 744
3 748 747 653
3 748 653 654
3 748 657 659
3 748 654 657
3 749 748 659
3 749 659 664
3 749 664 747
3 749 747 748
3 750 670 667
3 750 667 665
3 750 665 671
3 751 750 671
3 751 675 678
3 751 670 750
3 751 671 675
3 752 680 682
3 752 678 680
3 752 682 683
3 752 497 498
3 752 683 497
3 753 507 689
3 753 689 688
3 753 688 685
3 753 500 501
3 753 685 500
3 753 501 507
3 754 454 455
3 755 696 756
3 755 536 534
3 755 756 458
3 755 458 536
3 755 534 696
3 757 568 570
3 757 570 697
3 757 699 700
3 757 697 699
3 758 757 700
3 759 702 574
3 759 758 700
3 759 701 702
3 759 700 701
3 760 702 572
3 760 703 702
3 761 703 760
3 762 577 578
3 762 703 761
3 762 705 703
3 762 578 706
3 762 706 705
3 763 485 622
3 763 486 485
3 763 622 736
3 764 486 763
3 765 763 736
3 765 764 763
3 765 486 764
3 765 736 737
3 765 737 630
3 765 630 486
3 766 676 670
3 766 670 751
3 766 752 498
3 766 678 752
3 766 751 678
3 766 498 676
3 767 756 754
3 767 458 756
3 767 455 407
3 767 407 458
3 767 754 455
3 768 454 754
3 768 754 756
3 768 756 696
3 768 532 456
3 768 696 532
3 768 456 454
3 769 572 408
3 769 761 760
3 769 760 572
3 770 420 470
3 770 470 568
3 770 757 758
3 770 568 757
3 771 762 761
3 771 408 472
3 771 472 577
3 771 761 769
3 771 577 762
3 771 769 408
3 772 574 420
3 772 420 770
3 772 758 759
3 772 770 758
3 772 759 574
3 787 777 778
3 787 786 777
3 785 777 786
3 788 787 778
3 784 776 777
3 784 777 785
3 789 788 778
3 783 776 784
3 790 789 778
3 782 775 776
3 782 776 783
3 779 781 790
3 779 790 778
3 780 781 779
3 774 773 775
3 791 775 782
3 791 774 775
3 792 774 791
3 798 791 799
3 797 791 798
3 793 792 791
3 796 791 797
3 794 793 791
3 795 794 791
3 795 791 796
3 821 813 814
3 821 820 813
3 822 812 811
3 822 814 815
3 822 815 816
3 822 816 817
3 822 817 818
3 822 818 819
3 822 819 812
3 822 821 814
3 823 822 811
3 810 823 811
3 807 809 808
3 807 810 809
3 806 810 807
3 804 806 805
3 804 810 806
3 802 804 803
3 802 810 804
3 800 823 810
3 800 810 802
3 824 823 800
3 801 824 800
3 834 825 826
3 834 833 825
3 835 834 826
3 836 826 827
3 836 835 826
3 837 827 828
3 837 836 827
3 838 828 829
3 838 837 828
3 839 829 830
3 839 838 829
3 832 830 831
3 832 839 830
3 844 843 842
3 845 844 842
3 840 842 848
3 840 845 842
3 849 847 846
3 849 848 847
3 841 848 849
3 841 840 848
3 867 858 857
3 867 859 858
3 867 860 859
3 867 861 860
3 867 862 861
3 867 857 866
3 852 855 856
3 852 856 865
3 850 853 852
3 850 854 853
3 850 863 862
3 850 864 863
3 850 865 864
3 850 867 868
3 850 862 867
3 850 852 865
3 851 868 869
3 851 869 870
3 851 870 871
3 851 850 868
3 897 873 872
3 897 874 873
3 897 875 874
3 897 876 875
3 897 877 876
3 898 878 877
3 898 877 897
3 898 897 899
3 900 872 893
3 900 897 872
3 900 899 897
3 900 898 899
3 901 883 882
3 902 904 903
3 905 904 902
3 906 907 904
3 906 908 907
3 906 883 901
3 906 909 908
3 906 901 909
3 906 904 905
3 910 898 900
3 910 878 898
3 911 893 894
3 911 894 912
3 911 914 913
3 911 913 915
3 911 915 893
3 911 912 914
3 916 914 912
3 917 879 878
3 917 913 914
3 917 878 913
3 917 914 916
3 918 879 917
3 919 879 918
3 920 879 919
3 921 922 894
3 923 921 894
3 924 894 895
3 924 923 894
3 925 927 926
3 928 880 879
3 928 879 927
3 928 927 925
3 929 880 928
3 930 880 929
3 930 932 931
3 930 929 932
3 933 924 895
3 933 931 924
3 934 880 935
3 934 881 880
3 936 937 934
3 936 938 937
3 939 933 895
3 939 940 933
3 939 938 940
3 941 938 939
3 941 937 938
3 942 881 934
3 942 934 937
3 943 944 895
3 945 946 944
3 945 944 943
3 947 881 942
3 947 942 948
3 947 948 946
3 949 951 950
3 952 881 949
3 953 895 896
3 953 943 895
3 953 954 943
3 955 954 953
3 956 953 896
3 957 882 881
3 957 881 952
3 958 882 957
3 958 957 959
3 960 882 958
3 961 963 962
3 961 962 896
3 964 961 896
3 965 882 960
3 965 960 963
3 966 896 884
3 966 964 896
3 966 967 964
3 968 901 882
3 969 970 903
3 969 972 971
3 969 971 973
3 969 975 974
3 969 974 972
3 976 903 904
3 976 969 903
3 976 975 969
3 977 976 904
3 977 975 976
3 978 904 907
3 978 901 968
3 978 968 975
3 978 907 908
3 978 908 909
3 978 909 901
3 978 975 977
3 978 977 904
3 979 966 884
3 980 979 884
3 981 884 885
3 981 980 884
3 982 893 983
3 982 910 900
3 982 900 893
3 984 878 983
3 984 913 878
3 984 915 913
3 985 912 894
3 985 916 912
3 985 917 916
3 985 918 917
3 985 919 918
3 986 985 894
3 987 985 986
3 987 919 985
3 987 920 919
3 988 986 894
3 988 987 986
3 988 920 987
3 988 989 920
3 990 988 894
3 990 894 991
3 990 991 989
3 990 989 988
3 992 879 920
3 993 879 992
3 994 879 993
3 995 927 879
3 995 922 921
3 995 996 922
3 995 879 994
3 995 994 996
3 997 998 923
3 997 927 998
3 997 923 924
3 999 927 997
3 999 997 924
3 1000 926 927
3 1000 927 999
3 1000 924 926
3 1000 999 924
3 1001 928 925
3 1001 929 928
3 1002 1001 1003
3 1002 1003 931
3 1002 929 1001
3 1004 1002 931
3 1004 929 1002
3 1004 931 932
3 1004 932 929
3 1005 931 933
3 1005 930 931
3 1006 1007 1005
3 1006 1005 933
3 1008 935 1009
3 1010 933 940
3 1011 1010 940
3 1011 935 1008
3 1011 1008 1010
3 1012 935 1011
3 1012 934 935
3 1013 1011 940
3 1013 1012 1011
3 1014 1013 940
3 1015 936 934
3 1015 934 1012
3 1015 1012 1013
3 1015 1013 1014
3 1016 940 938
3 1016 936 1015
3 1016 1014 940
3 1016 1015 1014
3 1016 938 936
3 1017 941 939
3 1017 937 941
3 1017 939 1018
3 1019 939 895
3 1019 1018 939
3 1020 1018 1019
3 1020 1021 1018
3 1022 1019 895
3 1022 1020 1019
3 1022 1021 1020
3 1023 937 1017
3 1023 942 937
3 1023 1017 1018
3 1024 1022 895
3 1024 1021 1022
3 1024 895 944
3 1025 1023 1018
3 1025 1018 1021
3 1026 942 1023
3 1026 1023 1025
3 1027 1021 1024
3 1027 1024 944
3 1028 1026 1025
3 1028 942 1026
3 1029 1025 1021
3 1029 1021 1027
3 1029 1028 1025
3 1030 948 942
3 1030 942 1028
3 1030 1028 1029
3 1031 1027 944
3 1031 1029 1027
3 1031 948 1030
3 1031 1030 1029
3 1032 944 946
3 1032 946 948
3 1032 1031 944
3 1032 948 1031
3 1033 947 946
3 1033 946 945
3 1034 945 943
3 1035 947 1033
3 1035 1033 945
3 1035 945 1034
3 1036 1034 943
3 1037 1034 1036
3 1037 1035 1034
3 1037 1036 1038
3 1039 1035 1037
3 1039 1037 1038
3 1039 947 1035
3 1040 943 954
3 1040 1036 943
3 1040 1038 1036
3 1041 1039 1038
3 1041 947 1039
3 1041 881 947
3 1042 881 1041
3 1042 1041 1038
3 1043 1042 1038
3 1044 950 951
3 1044 954 950
3 1044 1040 954
3 1045 881 1042
3 1045 1042 1043
3 1045 1043 951
3 1045 951 949
3 1045 949 881
3 1046 950 954
3 1046 949 950
3 1047 1046 954
3 1048 1047 954
3 1048 1050 1049
3 1048 954 955
3 1048 955 1050
3 1051 952 1049
3 1051 957 952
3 1051 1049 1050
3 1052 1051 1050
3 1052 1050 955
3 1053 1051 1052
3 1053 1052 1054
3 1053 957 1051
3 1055 1054 1052
3 1056 1057 959
3 1056 956 1057
3 1058 1054 1055
3 1058 1053 1054
3 1058 957 1053
3 1058 1056 959
3 1058 1055 1056
3 1058 959 957
3 1059 959 1057
3 1059 1057 956
3 1059 956 1060
3 1061 1059 1060
3 1061 959 1059
3 1062 956 896
3 1062 1060 956
3 1063 1060 1062
3 1063 1064 1060
3 1065 1063 1062
3 1065 1064 1063
3 1065 1062 896
3 1066 1061 1060
3 1066 959 1061
3 1066 958 959
3 1067 1064 1065
3 1067 1065 896
3 1067 896 962
3 1068 1066 1060
3 1068 1060 1064
3 1069 958 1066
3 1069 1066 1068
3 1070 958 1069
3 1070 1069 1068
3 1071 1070 1068
3 1071 1068 1064
3 1071 963 960
3 1072 958 1070
3 1072 1070 1071
3 1072 1071 960
3 1072 960 958
3 1073 961 964
3 1074 1073 964
3 1074 1075 1073
3 1076 1074 964
3 1077 1079 1078
3 1077 1074 1076
3 1077 1078 1075
3 1077 1075 1074
3 1080 882 965
3 1081 882 1080
3 1082 1076 964
3 1082 964 967
3 1083 1078 1079
3 1084 882 1081
3 1084 1083 1079
3 1084 1081 1083
3 1084 968 882
3 1084 1079 968
3 1085 1082 967
3 1086 968 1079
3 1087 1085 967
3 1087 1086 1085
3 1087 968 1086
3 1088 967 966
3 1089 971 972
3 1089 973 971
3 1089 975 968
3 1089 1087 967
3 1089 967 1088
3 1089 968 1087
3 1089 974 975
3 1089 972 974
3 1089 1088 973
3 1090 973 1088
3 1090 1088 966
3 1091 1090 966
3 1092 973 1090
3 1092 969 973
3 1092 970 969
3 1092 1091 970
3 1092 1090 1091
3 1093 970 1091
3 1093 1091 966
3 1093 966 979
3 1094 903 970
3 1094 902 903
3 1094 1095 902
3 1094 970 1093
3 1096 1097 1095
3 1096 1093 979
3 1096 979 1098
3 1096 1094 1093
3 1096 1098 1097
3 1096 1095 1094
3 1099 1095 1097
3 1099 1097 1098
3 1100 1098 979
3 1100 979 980
3 1100 1099 1098
3 1101 1095 1099
3 1102 1099 1100
3 1103 1099 1102
3 1104 902 1095
3 1104 905 902
3 1104 906 905
3 1104 1095 1101
3 1105 1101 1099
3 1105 1099 1103
3 1105 1104 1101
3 1106 885 886
3 1106 981 885
3 1106 1107 981
3 1106 1108 1107
3 1109 1108 1106
3 1109 1110 1108
3 1111 1106 886
3 1111 886 887
3 1111 887 888
3 1111 1109 1106
3 1112 1111 888
3 1112 1110 1109
3 1112 1109 1111
3 1113 983 878
3 1113 878 910
3 1113 982 983
3 1113 910 982
3 1114 983 893
3 1114 893 915
3 1114 915 984
3 1114 984 983
3 1115 991 894
3 1116 989 991
3 1116 992 920
3 1116 920 989
3 1116 993 992
3 1116 991 1115
3 1117 894 922
3 1117 993 1116
3 1117 922 996
3 1117 1116 1115
3 1117 994 993
3 1117 1115 894
3 1117 996 994
3 1118 921 923
3 1118 927 995
3 1118 923 998
3 1118 998 927
3 1118 995 921
3 1119 924 931
3 1119 926 924
3 1119 931 1003
3 1120 930 1005
3 1121 1120 1005
3 1122 1005 1007
3 1122 1121 1005
3 1122 1007 1123
3 1124 880 1123
3 1124 1123 1007
3 1125 880 1124
3 1126 933 1010
3 1126 1009 1006
3 1126 1006 933
3 1126 1008 1009
3 1126 1010 1008
3 1127 935 880
3 1127 1009 935
3 1127 880 1125
3 1128 1038 1040
3 1128 1043 1038
3 1128 951 1043
3 1128 1044 951
3 1128 1040 1044
3 1129 1046 1047
3 1129 1047 1048
3 1129 949 1046
3 1129 952 949
3 1130 1129 1048
3 1130 1048 1049
3 1130 952 1129
3 1130 1049 952
3 1131 1055 1052
3 1131 956 1056
3 1131 1056 1055
3 1131 955 953
3 1131 1052 955
3 1131 953 956
3 1132 962 963
3 1132 1064 1067
3 1132 1067 962
3 1132 963 1071
3 1132 1071 1064
3 1133 965 963
3 1134 1080 965
3 1134 1081 1080
3 1134 965 1133
3 1135 1078 1083
3 1135 1081 1134
3 1135 1083 1081
3 1135 1134 1133
3 1135 1075 1078
3 1136 1077 1076
3 1136 1079 1077
3 1136 1076 1082
3 1136 1082 1085
3 1136 1085 1086
3 1136 1086 1079
3 1137 1100 980
3 1137 1102 1100
3 1137 1103 1102
3 1137 1105 1103
3 1138 1137 980
3 1138 1139 1137
3 1140 980 981
3 1140 1138 980
3 1140 1139 1138
3 1140 981 1107
3 1140 1107 1108
3 1140 1110 1139
3 1140 1108 1110
3 1141 883 906
3 1142 1139 1110
3 1142 1110 1112
3 1143 1141 1139
3 1143 1139 1142
3 1144 1141 1143
3 1145 888 889
3 1145 889 890
3 1145 1142 1112
3 1145 1112 888
3 1146 890 891
3 1146 1145 890
3 1146 1143 1142
3 1146 1144 1143
3 1146 1142 1145
3 1147 891 892
3 1147 892 883
3 1147 883 1141
3 1147 1146 891
3 1147 1141 1144
3 1147 1144 1146
3 1148 1003 1001
3 1148 1119 1003
3 1148 926 1119
3 1148 925 926
3 1148 1001 925
3 1149 1123 880
3 1149 930 1120
3 1149 1120 1121
3 1149 1121 1122
3 1149 1122 1123
3 1149 880 930
3 1150 1007 1006
3 1150 1124 1007
3 1150 1125 1124
3 1151 1006 1009
3 1151 1150 1006
3 1151 1009 1127
3 1152 1125 1150
3 1152 1151 1127
3 1152 1150 1151
3 1152 1127 1125
3 1153 1075 1135
3 1153 1135 1133
3 1153 963 961
3 1153 961 1073
3 1153 1073 1075
3 1153 1133 963
3 1154 1141 906
3 1154 906 1104
3 1154 1104 1105
3 1154 1105 1137
3 1154 1137 1139
3 1154 1139 1141
3 1181 1177 1178
3 1181 1182 1177
3 1183 1180 1155
3 1184 1183 1155
3 1185 1164 1168
3 1186 1159 1160
3 1186 1160 1161
3 1187 1158 1159
3 1187 1159 1186
3 1188 1187 1186
3 1189 1158 1187
3 1189 1188 1158
3 1189 1187 1188
3 1190 1156 1157
3 1190 1157 1158
3 1190 1158 1188
3 1191 1192 1193
3 1194 1191 1193
3 1194 1193 1195
3 1196 1194 1195
3 1197 1192 1191
3 1197 1165 1192
3 1198 1197 1191
3 1198 1191 1194
3 1198 1194 1196
3 1198 1196 1182
3 1199 1166 1165
3 1199 1165 1197
3 1200 1181 1178
3 1201 1166 1199
3 1201 1199 1202
3 1203 1200 1178
3 1204 1166 1201
3 1205 1203 1178
3 1205 1206 1204
3 1207 1204 1206
3 1207 1166 1204
3 1208 1205 1178
3 1208 1206 1205
3 1209 1178 1210
3 1211 1166 1212
3 1213 1209 1210
3 1213 1211 1212
3 1214 1167 1166
3 1214 1215 1216
3 1214 1166 1211
3 1214 1216 1167
3 1214 1211 1213
3 1217 1178 1179
3 1217 1210 1178
3 1217 1215 1210
3 1218 1219 1217
3 1218 1217 1179
3 1220 1218 1179
3 1221 1167 1222
3 1223 1168 1167
3 1223 1224 1168
3 1223 1167 1221
3 1223 1225 1224
3 1226 1225 1223
3 1226 1227 1225
3 1228 1224 1225
3 1229 1228 1225
3 1229 1179 1180
3 1229 1227 1179
3 1229 1225 1227
3 1230 1229 1180
3 1231 1230 1180
3 1232 1168 1233
3 1234 1168 1232
3 1234 1183 1184
3 1234 1185 1168
3 1234 1184 1185
3 1235 1184 1155
3 1235 1185 1184
3 1236 1174 1175
3 1237 1236 1175
3 1237 1175 1176
3 1237 1176 1177
3 1238 1236 1237
3 1238 1239 1236
3 1240 1237 1177
3 1240 1238 1237
3 1240 1239 1238
3 1241 1196 1195
3 1241 1182 1196
3 1241 1240 1177
3 1241 1195 1242
3 1241 1242 1240
3 1241 1177 1182
3 1243 1197 1198
3 1243 1198 1182
3 1244 1182 1181
3 1244 1243 1182
3 1244 1245 1243
3 1246 1197 1243
3 1246 1243 1245
3 1246 1245 1244
3 1246 1199 1197
3 1247 1199 1246
3 1248 1249 1247
3 1250 1249 1248
3 1251 1252 1181
3 1251 1248 1253
3 1251 1253 1252
3 1251 1250 1248
3 1254 1199 1247
3 1254 1202 1199
3 1254 1200 1202
3 1254 1181 1200
3 1254 1251 1181
3 1254 1247 1249
3 1254 1249 1250
3 1254 1250 1251
3 1255 1201 1202
3 1255 1202 1200
3 1256 1201 1255
3 1256 1255 1200
3 1257 1200 1203
3 1257 1201 1256
3 1257 1256 1200
3 1258 1257 1203
3 1258 1201 1257
3 1259 1201 1258
3 1259 1204 1201
3 1260 1259 1258
3 1260 1258 1203
3 1260 1204 1259
3 1261 1260 1203
3 1261 1204 1260
3 1261 1203 1205
3 1261 1205 1204
3 1262 1212 1166
3 1262 1263 1212
3 1264 1263 1209
3 1264 1212 1263
3 1264 1209 1213
3 1264 1213 1212
3 1265 1210 1215
3 1265 1215 1214
3 1265 1213 1210
3 1265 1214 1213
3 1266 1216 1215
3 1266 1215 1217
3 1267 1266 1217
3 1267 1216 1266
3 1268 1267 1217
3 1268 1216 1267
3 1268 1217 1219
3 1268 1219 1216
3 1269 1167 1216
3 1269 1220 1270
3 1271 1269 1270
3 1272 1167 1269
3 1272 1269 1271
3 1273 1167 1272
3 1274 1167 1273
3 1274 1275 1167
3 1276 1277 1179
3 1278 1276 1179
3 1279 1278 1179
3 1279 1280 1278
3 1281 1222 1280
3 1281 1221 1222
3 1281 1223 1221
3 1281 1226 1223
3 1281 1227 1226
3 1281 1179 1227
3 1281 1280 1279
3 1281 1279 1179
3 1282 1229 1230
3 1282 1224 1228
3 1282 1230 1231
3 1282 1168 1224
3 1282 1228 1229
3 1283 1168 1282
3 1284 1282 1231
3 1284 1283 1282
3 1285 1168 1283
3 1286 1168 1285
3 1287 1288 1180
3 1289 1287 1180
3 1290 1233 1291
3 1290 1232 1233
3 1290 1183 1234
3 1290 1291 1289
3 1290 1289 1180
3 1290 1180 1183
3 1290 1234 1232
3 1292 1185 1235
3 1293 1292 1235
3 1294 1161 1162
3 1294 1162 1163
3 1294 1163 1164
3 1294 1186 1161
3 1294 1188 1186
3 1294 1185 1292
3 1294 1292 1293
3 1294 1164 1185
3 1295 1170 1171
3 1295 1171 1172
3 1296 1174 1236
3 1296 1172 1173
3 1296 1173 1174
3 1296 1236 1239
3 1296 1295 1172
3 1296 1297 1295
3 1298 1296 1239
3 1298 1297 1296
3 1299 1192 1298
3 1299 1195 1193
3 1299 1242 1195
3 1299 1239 1240
3 1299 1240 1242
3 1299 1193 1192
3 1299 1298 1239
3 1300 1253 1248
3 1300 1247 1246
3 1300 1248 1247
3 1301 1300 1246
3 1301 1181 1252
3 1301 1244 1181
3 1301 1252 1253
3 1301 1253 1300
3 1301 1246 1244
3 1302 1303 1206
3 1302 1206 1208
3 1302 1208 1178
3 1304 1305 1303
3 1304 1303 1302
3 1306 1302 1178
3 1306 1304 1302
3 1306 1178 1209
3 1307 1306 1209
3 1308 1263 1262
3 1308 1262 1307
3 1308 1307 1209
3 1308 1209 1263
3 1309 1220 1269
3 1309 1216 1219
3 1309 1219 1218
3 1309 1269 1216
3 1309 1218 1220
3 1310 1272 1271
3 1310 1273 1272
3 1310 1220 1179
3 1310 1270 1220
3 1310 1271 1270
3 1311 1273 1310
3 1311 1274 1273
3 1312 1311 1310
3 1312 1310 1179
3 1313 1274 1311
3 1314 1275 1274
3 1314 1274 1313
3 1314 1315 1275
3 1316 1311 1312
3 1316 1313 1311
3 1316 1314 1313
3 1317 1312 1179
3 1317 1316 1312
3 1317 1315 1314
3 1317 1314 1316
3 1317 1179 1277
3 1317 1277 1315
3 1318 1280 1222
3 1318 1277 1276
3 1318 1278 1280
3 1318 1276 1278
3 1318 1315 1277
3 1319 1283 1284
3 1319 1285 1283
3 1319 1286 1285
3 1320 1231 1180
3 1320 1284 1231
3 1320 1319 1284
3 1321 1286 1322
3 1321 1168 1286
3 1321 1322 1288
3 1321 1323 1168
3 1324 1286 1319
3 1324 1322 1286
3 1324 1288 1322
3 1324 1180 1288
3 1325 1324 1319
3 1325 1320 1180
3 1325 1319 1320
3 1325 1180 1324
3 1326 1291 1233
3 1326 1233 1168
3 1326 1168 1323
3 1327 1291 1326
3 1327 1321 1288
3 1327 1323 1321
3 1327 1288 1287
3 1327 1326 1323
3 1327 1289 1291
3 1327 1287 1289
3 1328 1293 1235
3 1328 1155 1156
3 1328 1188 1294
3 1328 1235 1155
3 1328 1190 1188
3 1328 1156 1190
3 1328 1294 1293
3 1329 1165 1169
3 1329 1170 1295
3 1329 1169 1170
3 1330 1298 1192
3 1330 1165 1329
3 1330 1192 1165
3 1330 1329 1295
3 1330 1297 1298
3 1330 1295 1297
3 1331 1206 1303
3 1331 1207 1206
3 1331 1166 1207
3 1332 1331 1303
3 1332 1166 1331
3 1333 1303 1305
3 1333 1262 1166
3 1333 1332 1303
3 1333 1166 1332
3 1334 1304 1306
3 1334 1305 1304
3 1334 1262 1333
3 1334 1333 1305
3 1335 1262 1334
3 1335 1334 1306
3 1336 1262 1335
3 1336 1335 1306
3 1336 1307 1262
3 1336 1306 1307
3 1337 1222 1167
3 1337 1315 1318
3 1337 1318 1222
3 1337 1167 1275
3 1337 1275 1315
3 1341 1340 1339
3 1342 1339 1338
3 1342 1341 1339
3 1343 1342 1338
3 1344 1343 1338
3 1351 1348 1349
3 1351 1349 1350
3 1352 1347 1348
3 1352 1348 1351
3 1353 1346 1347
3 1353 1347 1352
3 1355 1345 1346
3 1355 1353 1354
3 1355 1346 1353
3 1362 1345 1355
3 1361 1362 1355
3 1356 1357 1358
3 1356 1358 1359
3 1355 1356 1361
3 1361 1356 1360
3 1360 1356 1359
3 1372 1366 1365
3 1372 1367 1366
3 1372 1368 1367
3 1383 1369 1368
3 1383 1370 1369
3 1383 1372 1373
3 1383 1368 1372
3 1384 1373 1374
3 1384 1383 1373
3 1385 1370 1383
3 1386 1374 1375
3 1386 1384 1374
3 1387 1385 1383
3 1387 1383 1384
3 1388 1375 1376
3 1388 1386 1375
3 1389 1384 1386
3 1389 1387 1384
3 1390 1371 1370
3 1390 1370 1385
3 1391 1376 1377
3 1391 1377 1378
3 1391 1378 1379
3 1391 1388 1376
3 1392 1389 1386
3 1392 1386 1388
3 1393 1385 1387
3 1393 1390 1385
3 1394 1391 1379
3 1394 1388 1391
3 1394 1392 1388
3 1395 1387 1389
3 1395 1393 1387
3 1396 1395 1389
3 1396 1389 1392
3 1397 1364 1398
3 1399 1379 1380
3 1399 1380 1381
3 1399 1394 1379
3 1399 1392 1394
3 1399 1396 1392
3 1400 1363 1364
3 1400 1393 1395
3 1400 1364 1397
3 1400 1397 1393
3 1401 1382 1363
3 1401 1395 1396
3 1401 1363 1400
3 1401 1400 1395
3 1402 1381 1382
3 1402 1399 1381
3 1402 1382 1401
3 1402 1396 1399
3 1402 1401 1396
3 1403 1364 1371
3 1403 1371 1390
3 1403 1398 1364
3 1403 1397 1398
3 1403 1390 1393
3 1403 1393 1397
3 1421 1405 1404
3 1421 1406 1405
3 1421 1407 1406
3 1421 1408 1407
3 1422 1409 1408
3 1422 1408 1421
3 1423 1410 1409
3 1423 1409 1422
3 1424 1410 1423
3 1425 1411 1410
3 1425 1412 1411
3 1425 1413 1412
3 1425 1414 1413
3 1425 1410 1424
3 1426 1404 1420
3 1426 1425 1424
3 1426 1421 1404
3 1426 1423 1422
3 1426 1422 1421
3 1426 1424 1423
3 1427 1417 1416
3 1427 1418 1417
3 1427 1419 1418
3 1427 1420 1419
3 1428 1416 1415
3 1428 1427 1416
3 1429 1414 1425
3 1429 1425 1426
3 1430 1426 1420
3 1430 1429 1426
3 1431 1414 1429
3 1431 1429 1430
3 1432 1420 1427
3 1432 1430 1420
3 1432 1431 1430
3 1433 1415 1414
3 1433 1428 1415
3 1433 1432 1427
3 1433 1427 1428
3 1433 1414 1431
3 1433 1431 1432
