ply
format ascii 1.0
comment generated by blendit.inference.finetune_visualize
element vertex 533
property float x
property float y
property float z
property uchar red
property uchar green
property uchar blue
element face 477
property list uchar int vertex_indices
end_header
0 0 23.0194257 218 222 230
-1.11022302e-16 0 76.5001053 218 222 230
0 59.3060636 23.0194257 218 222 230
-1.11022302e-16 59.3060636 0.654619332 218 222 230
-1.11022302e-16 81.9317684 0.654619332 218 222 230
-1.11022302e-16 81.9317684 76.5001053 218 222 230
0 70.7743573 35.422969 218 222 230
-1.11022302e-16 70.7743573 36.0775884 218 222 230
-1.11022302e-16 79.2739582 36.0775884 218 222 230
0 79.2739582 35.422969 218 222 230
0 79.2739582 31.9220053 218 222 230
-1.11022302e-16 79.2739582 31.267386 218 222 230
-1.11022302e-16 70.7743573 31.267386 218 222 230
0 70.7743573 31.9220053 218 222 230
63.6980549 0 0.654619332 218 222 230
63.6980549 0 77.1547246 218 222 230
12.905107 -1.11022302e-16 0.654619332 218 222 230
12.905107 -1.11022302e-16 23.0194257 218 222 230
12.2504876 0 23.0194257 218 222 230
0 0 23.0194257 218 222 230
-1.11022302e-16 0 76.5001053 218 222 230
0.0164126734 0 76.6457718 218 222 230
0.0648276935 0 76.784134 218 222 230
0.142817329 0 76.9082538 218 222 230
0.246470854 0 77.0119073 218 222 230
0.370590648 0 77.0898969 218 222 230
0.508952827 0 77.1383119 218 222 230
0.654619332 0 77.1547246 218 222 230
-1.11022302e-16 0 76.5001053 255 79 163
0.0164126734 0 76.6457718 255 79 163
0.0648276935 0 76.784134 255 79 163
0.142817329 0 76.9082538 255 79 163
0.246470854 0 77.0119073 255 79 163
0.370590648 0 77.0898969 255 79 163
0.508952827 0 77.1383119 255 79 163
0.654619332 0 77.1547246 255 79 163
0.654619332 82.5863878 77.1547246 255 79 163
-1.11022302e-16 81.9317684 76.5001053 255 79 163
0.0223056128 82.1011964 76.6695332 255 79 163
0.0877023607 82.2590781 76.8274149 255 79 163
0.191733563 82.3946542 76.962991 255 79 163
0.312581671 82.4899232 77.05826 255 79 163
0.424671345 82.5446717 77.1130085 255 79 163
0.532814561 82.5749559 77.1432927 255 79 163
0.593449301 82.5835235 77.1518604 255 79 163
0 59.3060636 23.0194257 218 222 230
11.5958683 59.3060636 23.0194257 218 222 230
0 0 23.0194257 218 222 230
12.2504876 0 23.0194257 218 222 230
12.905107 -1.11022302e-16 23.0194257 218 222 230
12.7594405 0.0164126734 23.0194257 218 222 230
12.6210783 0.0648276935 23.0194257 218 222 230
12.4969585 0.142817329 23.0194257 218 222 230
12.393305 0.246470854 23.0194257 218 222 230
12.3153153 0.370590648 23.0194257 218 222 230
12.2669003 0.508952827 23.0194257 218 222 230
12.2504876 0.654619332 23.0194257 218 222 230
12.2504876 58.6514443 23.0194257 218 222 230
11.7415348 59.2896509 23.0194257 218 222 230
11.879897 59.2412359 23.0194257 218 222 230
12.0040168 59.1632463 23.0194257 218 222 230
12.1076703 59.0595927 23.0194257 218 222 230
12.1856599 58.9354729 23.0194257 218 222 230
12.234075 58.7971108 23.0194257 218 222 230
-1.11022302e-16 81.9317684 0.654619332 255 79 163
-1.11022302e-16 81.9317684 76.5001053 255 79 163
0.0223056128 82.1011964 76.6695332 255 79 163
0.0877023607 82.2590781 76.8274149 255 79 163
0.191733563 82.3946542 76.962991 255 79 163
0.312581671 82.4899232 77.05826 255 79 163
0.424671345 82.5446717 77.1130085 255 79 163
0.532814561 82.5749559 77.1432927 255 79 163
0.593449301 82.5835235 77.1518604 255 79 163
0.654619332 82.5863878 77.1547246 255 79 163
0.654619332 82.5863878 0.654619332 255 79 163
0.508952827 82.5699751 0.654619332 255 79 163
0.370590648 82.5215601 0.654619332 255 79 163
0.246470854 82.4435704 0.654619332 255 79 163
0.142817329 82.3399169 0.654619332 255 79 163
0.0648276935 82.2157971 0.654619332 255 79 163
0.0164126734 82.0774349 0.654619332 255 79 163
0 59.3060636 23.0194257 218 222 230
11.5958683 59.3060636 23.0194257 218 222 230
11.5958683 59.3060636 0 218 222 230
0.654619332 59.3060636 -1.11022302e-16 218 222 230
-1.11022302e-16 59.3060636 0.654619332 218 222 230
0.0164126734 59.3060636 0.508952827 218 222 230
0.0648276935 59.3060636 0.370590648 218 222 230
0.142817329 59.3060636 0.246470854 218 222 230
0.246470854 59.3060636 0.142817329 218 222 230
0.370590648 59.3060636 0.0648276935 218 222 230
0.508952827 59.3060636 0.0164126734 218 222 230
-1.11022302e-16 59.3060636 0.654619332 255 79 163
-1.11022302e-16 81.9317684 0.654619332 255 79 163
0.0164126734 81.9317684 0.508952827 255 79 163
0.0648276935 81.9317684 0.370590648 255 79 163
0.142817329 81.9317684 0.246470854 255 79 163
0.246470854 81.9317684 0.142817329 255 79 163
0.370590648 81.9317684 0.0648276935 255 79 163
0.508952827 81.9317684 0.0164126734 255 79 163
0.654619332 81.9317684 -1.11022302e-16 255 79 163
0.654619332 59.3060636 -1.11022302e-16 255 79 163
0.0164126734 59.3060636 0.508952827 255 79 163
0.0648276935 59.3060636 0.370590648 255 79 163
0.142817329 59.3060636 0.246470854 255 79 163
0.246470854 59.3060636 0.142817329 255 79 163
0.370590648 59.3060636 0.0648276935 255 79 163
0.508952827 59.3060636 0.0164126734 255 79 163
0.654619332 70.7743573 31.9220053 218 222 230
4.00076095 70.7743573 31.9220053 218 222 230
4.00076095 70.7743573 35.422969 218 222 230
0.654619332 70.7743573 35.422969 218 222 230
-1.11022302e-16 70.7743573 36.0775884 218 222 230
0.0164126734 70.7743573 35.9319219 218 222 230
0.0648276935 70.7743573 35.7935597 218 222 230
0.142817329 70.7743573 35.6694399 218 222 230
0.246470854 70.7743573 35.5657864 218 222 230
0.370590648 70.7743573 35.4877967 218 222 230
0.508952827 70.7743573 35.4393817 218 222 230
0 70.7743573 35.422969 218 222 230
0 70.7743573 31.9220053 218 222 230
-1.11022302e-16 70.7743573 31.267386 218 222 230
0.0164126734 70.7743573 31.4130525 218 222 230
0.0648276935 70.7743573 31.5514147 218 222 230
0.142817329 70.7743573 31.6755345 218 222 230
0.246470854 70.7743573 31.779188 218 222 230
0.370590648 70.7743573 31.8571776 218 222 230
0.508952827 70.7743573 31.9055926 218 222 230
-1.11022302e-16 70.7743573 36.0775884 255 79 163
-1.11022302e-16 79.2739582 36.0775884 255 79 163
0.0164126734 79.2739582 35.9319219 255 79 163
0.0648276935 79.2739582 35.7935597 255 79 163
0.142817329 79.2739582 35.6694399 255 79 163
0.246470854 79.2739582 35.5657864 255 79 163
0.370590648 79.2739582 35.4877967 255 79 163
0.508952827 79.2739582 35.4393817 255 79 163
0.654619332 79.2739582 35.422969 255 79 163
0.654619332 70.7743573 35.422969 255 79 163
0.0164126734 70.7743573 35.9319219 255 79 163
0.0648276935 70.7743573 35.7935597 255 79 163
0.142817329 70.7743573 35.6694399 255 79 163
0.246470854 70.7743573 35.5657864 255 79 163
0.370590648 70.7743573 35.4877967 255 79 163
0.508952827 70.7743573 35.4393817 255 79 163
0.654619332 79.2739582 35.422969 218 222 230
4.00076095 79.2739582 35.422969 218 222 230
4.00076095 79.2739582 31.9220053 218 222 230
0.654619332 79.2739582 31.9220053 218 222 230
-1.11022302e-16 79.2739582 31.267386 218 222 230
0.0164126734 79.2739582 31.4130525 218 222 230
0.0648276935 79.2739582 31.5514147 218 222 230
0.142817329 79.2739582 31.6755345 218 222 230
0.246470854 79.2739582 31.779188 218 222 230
0.370590648 79.2739582 31.8571776 218 222 230
0.508952827 79.2739582 31.9055926 218 222 230
0 79.2739582 31.9220053 218 222 230
0 79.2739582 35.422969 218 222 230
-1.11022302e-16 79.2739582 36.0775884 218 222 230
0.0164126734 79.2739582 35.9319219 218 222 230
0.0648276935 79.2739582 35.7935597 218 222 230
0.142817329 79.2739582 35.6694399 218 222 230
0.246470854 79.2739582 35.5657864 218 222 230
0.370590648 79.2739582 35.4877967 218 222 230
0.508952827 79.2739582 35.4393817 218 222 230
-1.11022302e-16 79.2739582 31.267386 255 79 163
-1.11022302e-16 70.7743573 31.267386 255 79 163
0.0164126734 70.7743573 31.4130525 255 79 163
0.0648276935 70.7743573 31.5514147 255 79 163
0.142817329 70.7743573 31.6755345 255 79 163
0.246470854 70.7743573 31.779188 255 79 163
0.370590648 70.7743573 31.8571776 255 79 163
0.508952827 70.7743573 31.9055926 255 79 163
0.654619332 70.7743573 31.9220053 255 79 163
0.654619332 79.2739582 31.9220053 255 79 163
0.0164126734 79.2739582 31.4130525 255 79 163
0.0648276935 79.2739582 31.5514147 255 79 163
0.142817329 79.2739582 31.6755345 255 79 163
0.246470854 79.2739582 31.779188 255 79 163
0.370590648 79.2739582 31.8571776 255 79 163
0.508952827 79.2739582 31.9055926 255 79 163
63.6980549 0 0.654619332 218 222 230
63.6980549 0 77.1547246 218 222 230
63.6980549 82.5863878 0.654619332 218 222 230
63.6980549 82.5863878 77.1547246 218 222 230
12.905107 -1.11022302e-16 0.654619332 255 79 163
12.735679 0.0223056128 0.485191381 255 79 163
12.5777973 0.0877023607 0.327309666 255 79 163
12.4422212 0.191733563 0.191733563 255 79 163
12.3469522 0.312581671 0.0964645972 255 79 163
12.2922037 0.424671345 0.0417160824 255 79 163
12.2619195 0.532814561 0.0114319039 255 79 163
12.2533519 0.593449301 0.00286424213 255 79 163
12.2504876 0.654619332 -1.11022302e-16 255 79 163
63.0434355 0.654619332 -1.11022302e-16 255 79 163
63.2128635 0.485191381 0.0223056128 255 79 163
63.3707452 0.327309666 0.0877023607 255 79 163
63.5063213 0.191733563 0.191733563 255 79 163
63.6015903 0.0964645972 0.312581671 255 79 163
63.6563388 0.0417160824 0.424671345 255 79 163
63.686623 0.0114319039 0.532814561 255 79 163
63.6951906 0.00286424213 0.593449301 255 79 163
63.6980549 0 0.654619332 255 79 163
0.654619332 82.5863878 77.1547246 218 222 230
63.6980549 82.5863878 77.1547246 218 222 230
0.654619332 0 77.1547246 218 222 230
63.6980549 0 77.1547246 218 222 230
30.912725 76.4324887 77.1547246 218 222 230
26.1410655 76.4324887 77.1547246 218 222 230
30.912725 74.4324887 77.1547246 218 222 230
26.1410655 74.4324887 77.1547246 218 222 230
25.4864462 75.087108 77.1547246 218 222 230
25.5028589 74.9414415 77.1547246 218 222 230
25.5512739 74.8030793 77.1547246 218 222 230
25.6292635 74.6789595 77.1547246 218 222 230
25.7329171 74.575306 77.1547246 218 222 230
25.8570368 74.4973164 77.1547246 218 222 230
25.995399 74.4489013 77.1547246 218 222 230
25.4864462 75.7778693 77.1547246 218 222 230
25.995399 76.416076 77.1547246 218 222 230
25.8570368 76.367661 77.1547246 218 222 230
25.7329171 76.2896713 77.1547246 218 222 230
25.6292635 76.1860178 77.1547246 218 222 230
25.5512739 76.061898 77.1547246 218 222 230
25.5028589 75.9235358 77.1547246 218 222 230
12.905107 -1.11022302e-16 0.654619332 255 79 163
12.905107 -1.11022302e-16 23.0194257 255 79 163
12.7594405 0.0164126734 23.0194257 255 79 163
12.6210783 0.0648276935 23.0194257 255 79 163
12.4969585 0.142817329 23.0194257 255 79 163
12.393305 0.246470854 23.0194257 255 79 163
12.3153153 0.370590648 23.0194257 255 79 163
12.2669003 0.508952827 23.0194257 255 79 163
12.2504876 0.654619332 23.0194257 255 79 163
12.2504876 0.654619332 -1.11022302e-16 255 79 163
12.735679 0.0223056128 0.485191381 255 79 163
12.5777973 0.0877023607 0.327309666 255 79 163
12.4422212 0.191733563 0.191733563 255 79 163
12.3469522 0.312581671 0.0964645972 255 79 163
12.2922037 0.424671345 0.0417160824 255 79 163
12.2619195 0.532814561 0.0114319039 255 79 163
12.2533519 0.593449301 0.00286424213 255 79 163
11.5958683 59.3060636 23.0194257 255 79 163
11.7415348 59.2896509 23.0194257 255 79 163
11.879897 59.2412359 23.0194257 255 79 163
12.0040168 59.1632463 23.0194257 255 79 163
12.1076703 59.0595927 23.0194257 255 79 163
12.1856599 58.9354729 23.0194257 255 79 163
12.234075 58.7971108 23.0194257 255 79 163
12.2504876 58.6514443 23.0194257 255 79 163
12.2504876 58.6514443 0 255 79 163
11.5958683 59.3060636 0 255 79 163
11.7415348 59.2896509 0 255 79 163
11.879897 59.2412359 0 255 79 163
12.0040168 59.1632463 0 255 79 163
12.1076703 59.0595927 0 255 79 163
12.1856599 58.9354729 0 255 79 163
12.234075 58.7971108 0 255 79 163
12.2504876 58.6514443 0 218 222 230
12.2504876 0.654619332 -1.11022302e-16 218 222 230
12.2504876 0.654619332 23.0194257 218 222 230
12.2504876 58.6514443 23.0194257 218 222 230
0.654619332 82.5863878 0.654619332 255 79 163
0.508952827 82.5699751 0.654619332 255 79 163
0.370590648 82.5215601 0.654619332 255 79 163
0.246470854 82.4435704 0.654619332 255 79 163
0.142817329 82.3399169 0.654619332 255 79 163
0.0648276935 82.2157971 0.654619332 255 79 163
0.0164126734 82.0774349 0.654619332 255 79 163
-1.11022302e-16 81.9317684 0.654619332 255 79 163
0.654619332 82.5863878 0.654619332 255 79 163
0.654619332 82.5699751 0.508952827 255 79 163
0.654619332 82.5215601 0.370590648 255 79 163
0.654619332 82.4435704 0.246470854 255 79 163
0.654619332 82.3399169 0.142817329 255 79 163
0.654619332 82.2157971 0.0648276935 255 79 163
0.654619332 82.0774349 0.0164126734 255 79 163
0.654619332 81.9317684 -1.11022302e-16 255 79 163
0.0164126734 81.9317684 0.508952827 255 79 163
0.0648276935 81.9317684 0.370590648 255 79 163
0.142817329 81.9317684 0.246470854 255 79 163
0.246470854 81.9317684 0.142817329 255 79 163
0.370590648 81.9317684 0.0648276935 255 79 163
0.508952827 81.9317684 0.0164126734 255 79 163
0.454821341 82.5543484 0.622974439 255 79 163
0.47437896 82.5543484 0.562782275 255 79 163
0.511579763 82.5543484 0.511579763 255 79 163
0.288676001 82.4613666 0.535717136 255 79 163
0.562782275 82.5543484 0.47437896 255 79 163
0.343329341 82.4613666 0.428453915 255 79 163
0.1315414 82.316544 0.571771926 255 79 163
0.622974439 82.5543484 0.454821341 255 79 163
0.428453915 82.4613666 0.343329341 255 79 163
0.182743912 82.316544 0.414186797 255 79 163
0.535717136 82.4613666 0.288676001 255 79 163
0.280136879 82.316544 0.280136879 255 79 163
0.0625105838 82.1340569 0.462231537 255 79 163
0.414186797 82.316544 0.182743912 255 79 163
0.150941547 82.1340569 0.288676001 255 79 163
0.571771926 82.316544 0.1315414 255 79 163
0.288676001 82.1340569 0.150941547 255 79 163
0.462231537 82.1340569 0.0625105838 255 79 163
63.6980549 82.5863878 0.654619332 218 222 230
63.6980549 82.5863878 77.1547246 218 222 230
0.654619332 82.5863878 0.654619332 218 222 230
0.654619332 82.5863878 77.1547246 218 222 230
0.654619332 59.3060636 -1.11022302e-16 218 222 230
11.5958683 59.3060636 0 218 222 230
11.7415348 59.2896509 0 218 222 230
11.879897 59.2412359 0 218 222 230
12.0040168 59.1632463 0 218 222 230
12.1076703 59.0595927 0 218 222 230
12.1856599 58.9354729 0 218 222 230
12.234075 58.7971108 0 218 222 230
12.2504876 58.6514443 0 218 222 230
12.2504876 0.654619332 -1.11022302e-16 218 222 230
63.0434355 0.654619332 -1.11022302e-16 218 222 230
63.0434355 81.9317684 -1.11022302e-16 218 222 230
0.654619332 81.9317684 -1.11022302e-16 218 222 230
25.4864462 75.087108 0 218 222 230
25.4864462 75.7778693 0 218 222 230
26.1410655 76.4324887 0 218 222 230
25.995399 76.416076 0 218 222 230
25.8570368 76.367661 0 218 222 230
25.7329171 76.2896713 0 218 222 230
25.6292635 76.1860178 0 218 222 230
25.5512739 76.061898 0 218 222 230
25.5028589 75.9235358 0 218 222 230
30.912725 76.4324887 0 218 222 230
30.912725 74.4324887 0 218 222 230
26.1410655 74.4324887 0 218 222 230
25.5028589 74.9414415 0 218 222 230
25.5512739 74.8030793 0 218 222 230
25.6292635 74.6789595 0 218 222 230
25.7329171 74.575306 0 218 222 230
25.8570368 74.4973164 0 218 222 230
25.995399 74.4489013 0 218 222 230
15.0652109 76.5337912 0 218 222 230
15.1798404 77.1451937 0 218 222 230
15.2189808 77.2763298 0 218 222 230
15.2845307 77.3964625 0 218 222 230
15.3736252 77.5003415 0 218 222 230
15.4823704 77.5834267 0 218 222 230
15.6060136 77.6420869 0 218 222 230
16.1928184 77.848516 0 218 222 230
16.6649937 77.4435428 0 218 222 230
16.8822292 76.8260193 0 218 222 230
16.8932496 76.9624276 0 218 222 230
16.8756683 77.0981463 0 218 222 230
16.8302538 77.2272438 0 218 222 230
16.7589907 77.3440781 0 218 222 230
16.8372456 76.5860891 0 218 222 230
16.4110724 76.0891959 0 218 222 230
16.5347156 76.1478561 0 218 222 230
16.6434608 76.2309413 0 218 222 230
16.7325553 76.3348202 0 218 222 230
16.7981052 76.454953 0 218 222 230
15.8242676 75.8827667 0 218 222 230
0.654619332 79.2739582 31.9220053 218 222 230
4.00076095 79.2739582 31.9220053 218 222 230
4.00076095 70.7743573 31.9220053 218 222 230
0.654619332 70.7743573 31.9220053 218 222 230
4.00076095 79.2739582 35.422969 218 222 230
4.00076095 79.2739582 31.9220053 218 222 230
4.00076095 70.7743573 31.9220053 218 222 230
4.00076095 70.7743573 35.422969 218 222 230
0.654619332 70.7743573 35.422969 218 222 230
4.00076095 70.7743573 35.422969 218 222 230
4.00076095 79.2739582 35.422969 218 222 230
0.654619332 79.2739582 35.422969 218 222 230
63.0434355 0.654619332 -1.11022302e-16 255 79 163
63.0434355 81.9317684 -1.11022302e-16 255 79 163
63.2128635 82.1011964 0.0223056128 255 79 163
63.3707452 82.2590781 0.0877023607 255 79 163
63.5063213 82.3946542 0.191733563 255 79 163
63.6015903 82.4899232 0.312581671 255 79 163
63.6563388 82.5446717 0.424671345 255 79 163
63.686623 82.5749559 0.532814561 255 79 163
63.6951906 82.5835235 0.593449301 255 79 163
63.6980549 82.5863878 0.654619332 255 79 163
63.6980549 0 0.654619332 255 79 163
63.2128635 0.485191381 0.0223056128 255 79 163
63.3707452 0.327309666 0.0877023607 255 79 163
63.5063213 0.191733563 0.191733563 255 79 163
63.6015903 0.0964645972 0.312581671 255 79 163
63.6563388 0.0417160824 0.424671345 255 79 163
63.686623 0.0114319039 0.532814561 255 79 163
63.6951906 0.00286424213 0.593449301 255 79 163
26.1410655 76.4324887 0 218 222 230
30.912725 76.4324887 0 218 222 230
26.1410655 76.4324887 77.1547246 218 222 230
30.912725 76.4324887 77.1547246 218 222 230
26.1410655 76.4324887 0 255 79 163
25.995399 76.416076 0 255 79 163
25.8570368 76.367661 0 255 79 163
25.7329171 76.2896713 0 255 79 163
25.6292635 76.1860178 0 255 79 163
25.5512739 76.061898 0 255 79 163
25.5028589 75.9235358 0 255 79 163
25.4864462 75.7778693 0 255 79 163
25.4864462 75.7778693 77.1547246 255 79 163
26.1410655 76.4324887 77.1547246 255 79 163
25.995399 76.416076 77.1547246 255 79 163
25.8570368 76.367661 77.1547246 255 79 163
25.7329171 76.2896713 77.1547246 255 79 163
25.6292635 76.1860178 77.1547246 255 79 163
25.5512739 76.061898 77.1547246 255 79 163
25.5028589 75.9235358 77.1547246 255 79 163
30.912725 76.4324887 0 218 222 230
30.912725 74.4324887 0 218 222 230
30.912725 76.4324887 77.1547246 218 222 230
30.912725 74.4324887 77.1547246 218 222 230
25.4864462 75.087108 0 218 222 230
25.4864462 75.7778693 0 218 222 230
25.4864462 75.087108 77.1547246 218 222 230
25.4864462 75.7778693 77.1547246 218 222 230
30.912725 74.4324887 0 218 222 230
26.1410655 74.4324887 0 218 222 230
30.912725 74.4324887 77.1547246 218 222 230
26.1410655 74.4324887 77.1547246 218 222 230
25.4864462 75.087108 0 255 79 163
25.5028589 74.9414415 0 255 79 163
25.5512739 74.8030793 0 255 79 163
25.6292635 74.6789595 0 255 79 163
25.7329171 74.575306 0 255 79 163
25.8570368 74.4973164 0 255 79 163
25.995399 74.4489013 0 255 79 163
26.1410655 74.4324887 0 255 79 163
26.1410655 74.4324887 77.1547246 255 79 163
25.4864462 75.087108 77.1547246 255 79 163
25.5028589 74.9414415 77.1547246 255 79 163
25.5512739 74.8030793 77.1547246 255 79 163
25.6292635 74.6789595 77.1547246 255 79 163
25.7329171 74.575306 77.1547246 255 79 163
25.8570368 74.4973164 77.1547246 255 79 163
25.995399 74.4489013 77.1547246 255 79 163
0.654619332 82.5863878 0.654619332 255 79 163
63.6980549 82.5863878 0.654619332 255 79 163
63.0434355 81.9317684 -1.11022302e-16 255 79 163
63.2128635 82.1011964 0.0223056128 255 79 163
63.3707452 82.2590781 0.0877023607 255 79 163
63.5063213 82.3946542 0.191733563 255 79 163
63.6015903 82.4899232 0.312581671 255 79 163
63.6563388 82.5446717 0.424671345 255 79 163
63.686623 82.5749559 0.532814561 255 79 163
63.6951906 82.5835235 0.593449301 255 79 163
0.654619332 81.9317684 -1.11022302e-16 255 79 163
0.654619332 82.5699751 0.508952827 255 79 163
0.654619332 82.5215601 0.370590648 255 79 163
0.654619332 82.4435704 0.246470854 255 79 163
0.654619332 82.3399169 0.142817329 255 79 163
0.654619332 82.2157971 0.0648276935 255 79 163
0.654619332 82.0774349 0.0164126734 255 79 163
15.0652109 76.5337912 0 218 222 230
15.1798404 77.1451937 0 218 222 230
15.0652109 76.5337912 46.5490607 218 222 230
15.1798404 77.1451937 46.5490607 218 222 230
15.1798404 77.1451937 0 255 79 163
15.1798404 77.1451937 46.5490607 255 79 163
15.2189808 77.2763298 46.5490607 255 79 163
15.2845307 77.3964625 46.5490607 255 79 163
15.3736252 77.5003415 46.5490607 255 79 163
15.4823704 77.5834267 46.5490607 255 79 163
15.6060136 77.6420869 46.5490607 255 79 163
15.6060136 77.6420869 0 255 79 163
15.2189808 77.2763298 0 255 79 163
15.2845307 77.3964625 0 255 79 163
15.3736252 77.5003415 0 255 79 163
15.4823704 77.5834267 0 255 79 163
15.8242676 75.8827667 0 218 222 230
15.8242676 75.8827667 46.5490607 218 222 230
15.0652109 76.5337912 46.5490607 218 222 230
15.0652109 76.5337912 0 218 222 230
15.6060136 77.6420869 0 218 222 230
16.1928184 77.848516 0 218 222 230
15.6060136 77.6420869 46.5490607 218 222 230
16.1928184 77.848516 46.5490607 218 222 230
16.4110724 76.0891959 0 218 222 230
15.8242676 75.8827667 0 218 222 230
16.4110724 76.0891959 46.5490607 218 222 230
15.8242676 75.8827667 46.5490607 218 222 230
16.1928184 77.848516 0 218 222 230
16.6649937 77.4435428 0 218 222 230
16.1928184 77.848516 46.5490607 218 222 230
16.6649937 77.4435428 46.5490607 218 222 230
16.4110724 76.0891959 0 255 79 163
16.5347156 76.1478561 0 255 79 163
16.6434608 76.2309413 0 255 79 163
16.7325553 76.3348202 0 255 79 163
16.7981052 76.454953 0 255 79 163
16.8372456 76.5860891 0 255 79 163
16.8372456 76.5860891 46.5490607 255 79 163
16.4110724 76.0891959 46.5490607 255 79 163
16.5347156 76.1478561 46.5490607 255 79 163
16.6434608 76.2309413 46.5490607 255 79 163
16.7325553 76.3348202 46.5490607 255 79 163
16.7981052 76.454953 46.5490607 255 79 163
16.8822292 76.8260193 0 255 79 163
16.8932496 76.9624276 0 255 79 163
16.8756683 77.0981463 0 255 79 163
16.8302538 77.2272438 0 255 79 163
16.7589907 77.3440781 0 255 79 163
16.6649937 77.4435428 0 255 79 163
16.6649937 77.4435428 46.5490607 255 79 163
16.8822292 76.8260193 46.5490607 255 79 163
16.8932496 76.9624276 46.5490607 255 79 163
16.8756683 77.0981463 46.5490607 255 79 163
16.8302538 77.2272438 46.5490607 255 79 163
16.7589907 77.3440781 46.5490607 255 79 163
16.8822292 76.8260193 0 218 222 230
16.8372456 76.5860891 0 218 222 230
16.8822292 76.8260193 46.5490607 218 222 230
16.8372456 76.5860891 46.5490607 218 222 230
15.6060136 77.6420869 46.5490607 218 222 230
16.1928184 77.848516 46.5490607 218 222 230
16.6649937 77.4435428 46.5490607 218 222 230
16.8822292 76.8260193 46.5490607 218 222 230
16.8932496 76.9624276 46.5490607 218 222 230
16.8756683 77.0981463 46.5490607 218 222 230
16.8302538 77.2272438 46.5490607 218 222 230
16.7589907 77.3440781 46.5490607 218 222 230
16.8372456 76.5860891 46.5490607 218 222 230
16.4110724 76.0891959 46.5490607 218 222 230
16.5347156 76.1478561 46.5490607 218 222 230
16.6434608 76.2309413 46.5490607 218 222 230
16.7325553 76.3348202 46.5490607 218 222 230
16.7981052 76.454953 46.5490607 218 222 230
15.8242676 75.8827667 46.5490607 218 222 230
15.0652109 76.5337912 46.5490607 218 222 230
15.1798404 77.1451937 46.5490607 218 222 230
15.2189808 77.2763298 46.5490607 218 222 230
15.2845307 77.3964625 46.5490607 218 222 230
15.3736252 77.5003415 46.5490607 218 222 230
15.4823704 77.5834267 46.5490607 218 222 230
3 10 4 11
3 9 4 10
3 8 4 9
3 12 11 4
3 2 4 3
3 2 13 12
3 2 12 4
3 6 13 2
3 7 6 2
3 5 8 7
3 5 4 8
3 1 2 0
3 1 5 7
3 1 7 2
3 14 17 16
3 20 18 17
3 20 19 18
3 26 25 24
3 27 21 20
3 27 22 21
3 27 23 22
3 27 24 23
3 27 20 17
3 27 26 24
3 15 17 14
3 15 27 17
3 37 28 29
3 38 29 30
3 38 37 29
3 39 30 31
3 39 38 30
3 40 31 32
3 40 39 31
3 41 32 33
3 41 40 32
3 42 33 34
3 42 41 33
3 43 42 34
3 44 34 35
3 44 43 34
3 36 44 35
3 48 50 49
3 48 51 50
3 48 52 51
3 53 52 48
3 54 53 48
3 55 54 48
3 56 55 48
3 47 56 48
3 61 62 63
3 61 63 57
3 59 60 61
3 59 61 57
3 46 58 59
3 46 59 57
3 45 57 56
3 45 56 47
3 45 46 57
3 72 73 74
3 72 74 75
3 71 72 75
3 70 75 76
3 70 71 75
3 69 76 77
3 69 70 76
3 68 77 78
3 68 69 77
3 67 78 79
3 67 68 78
3 66 79 80
3 66 67 79
3 65 80 64
3 65 66 80
3 85 82 81
3 85 83 82
3 85 84 83
3 90 91 84
3 89 85 86
3 89 86 87
3 89 87 88
3 89 84 85
3 89 90 84
3 99 100 101
3 99 101 107
3 98 107 106
3 98 99 107
3 97 106 105
3 97 98 106
3 96 105 104
3 96 97 105
3 95 104 103
3 95 96 104
3 94 103 102
3 94 95 103
3 93 102 92
3 93 94 102
3 110 109 108
3 120 122 121
3 120 123 122
3 120 124 123
3 120 125 124
3 120 126 125
3 120 127 126
3 111 110 108
3 118 108 127
3 118 111 108
3 119 116 117
3 119 117 118
3 119 127 120
3 119 118 127
3 115 116 119
3 114 115 119
3 113 114 119
3 112 113 119
3 135 136 137
3 135 137 143
3 134 142 141
3 134 143 142
3 134 135 143
3 133 134 141
3 132 141 140
3 132 133 141
3 131 140 139
3 131 132 140
3 130 139 138
3 130 131 139
3 129 138 128
3 129 130 138
3 156 158 157
3 156 159 158
3 156 160 159
3 156 161 160
3 156 162 161
3 156 163 162
3 147 145 144
3 147 146 145
3 154 144 163
3 154 163 156
3 154 147 144
3 155 152 153
3 155 153 154
3 155 154 156
3 151 152 155
3 150 151 155
3 149 150 155
3 148 149 155
3 171 172 173
3 171 173 179
3 170 179 178
3 170 171 179
3 169 177 176
3 169 178 177
3 169 170 178
3 168 169 176
3 167 176 175
3 167 168 176
3 166 175 174
3 166 167 175
3 165 174 164
3 165 166 174
3 180 182 183
3 181 180 183
3 200 184 185
3 200 201 184
3 199 200 185
3 198 185 186
3 198 199 185
3 197 186 187
3 197 198 186
3 196 187 188
3 196 197 187
3 195 188 189
3 195 196 188
3 194 189 190
3 194 190 191
3 194 195 189
3 193 191 192
3 193 194 191
3 214 202 204
3 214 213 202
3 215 214 204
3 212 202 213
3 211 202 212
3 216 215 204
3 209 216 204
3 210 202 211
3 217 202 210
3 223 202 217
3 222 202 223
3 221 202 222
3 220 202 221
3 219 202 220
3 218 202 219
3 207 202 218
3 208 204 205
3 208 209 204
3 203 206 208
3 203 208 205
3 203 202 207
3 203 207 206
3 232 233 240
3 231 239 238
3 231 240 239
3 231 232 240
3 230 238 237
3 230 231 238
3 229 237 236
3 229 230 237
3 228 236 235
3 228 229 236
3 227 235 234
3 227 228 235
3 226 234 224
3 226 227 234
3 225 226 224
3 251 242 241
3 251 243 242
3 251 241 250
3 252 243 251
3 253 244 243
3 253 243 252
3 254 245 244
3 254 244 253
3 255 246 245
3 255 247 246
3 255 245 254
3 256 247 255
3 249 248 247
3 249 247 256
3 258 259 260
3 258 260 257
3 277 268 267
3 276 282 275
3 283 263 262
3 284 262 261
3 284 283 262
3 285 261 269
3 285 284 261
3 286 264 263
3 286 263 283
3 286 283 284
3 287 269 270
3 287 285 269
3 288 284 285
3 288 286 284
3 289 265 264
3 289 266 265
3 289 264 286
3 290 270 271
3 290 287 270
3 291 288 285
3 291 285 287
3 292 286 288
3 292 289 286
3 293 271 272
3 293 287 290
3 293 290 271
3 293 291 287
3 294 288 291
3 294 292 288
3 295 267 266
3 295 278 277
3 295 266 289
3 295 289 292
3 295 277 267
3 296 291 293
3 296 294 291
3 297 279 278
3 297 280 279
3 297 278 295
3 297 292 294
3 297 295 292
3 298 272 273
3 298 273 274
3 298 293 272
3 298 296 293
3 299 281 280
3 299 280 297
3 299 294 296
3 299 297 294
3 300 274 275
3 300 282 281
3 300 281 299
3 300 275 282
3 300 298 274
3 300 296 298
3 300 299 296
3 302 301 303
3 302 303 304
3 313 315 314
3 336 306 305
3 336 305 317
3 356 307 306
3 356 308 307
3 356 309 308
3 356 310 309
3 356 306 336
3 337 336 317
3 338 337 317
3 351 310 356
3 339 338 317
3 340 339 317
3 341 340 317
3 342 341 317
3 343 342 317
3 332 352 353
3 333 351 352
3 333 310 351
3 333 352 332
3 331 353 354
3 331 332 353
3 334 311 310
3 334 310 333
3 330 331 354
3 330 354 355
3 335 312 311
3 335 311 334
3 329 313 312
3 329 312 335
3 318 330 355
3 318 355 350
3 319 318 350
3 319 350 345
3 326 319 345
3 326 345 346
3 325 326 346
3 325 346 347
3 324 325 347
3 324 347 348
3 324 348 349
3 323 349 344
3 323 324 349
3 322 344 343
3 322 323 344
3 321 322 343
3 320 321 343
3 328 313 329
3 328 315 313
3 316 328 327
3 316 315 328
3 316 343 317
3 316 320 343
3 316 327 320
3 360 358 357
3 360 359 358
3 363 361 362
3 363 364 361
3 368 366 365
3 368 367 366
3 378 379 386
3 377 386 385
3 377 378 386
3 376 385 384
3 376 377 385
3 375 384 383
3 375 376 384
3 374 383 382
3 374 375 383
3 373 382 381
3 373 374 382
3 372 381 380
3 372 373 381
3 371 380 369
3 371 372 380
3 370 371 369
3 388 389 387
3 388 390 389
3 400 392 391
3 401 393 392
3 401 392 400
3 402 393 401
3 403 394 393
3 403 393 402
3 404 395 394
3 404 396 395
3 404 394 403
3 405 396 404
3 406 397 396
3 406 396 405
3 399 398 397
3 399 397 406
3 407 410 409
3 408 410 407
3 412 413 411
3 412 414 413
3 416 417 415
3 416 418 417
3 429 420 419
3 429 421 420
3 429 419 428
3 430 421 429
3 431 422 421
3 431 421 430
3 432 423 422
3 432 424 423
3 432 422 431
3 433 424 432
3 434 425 424
3 434 424 433
3 427 426 425
3 427 425 434
3 437 445 451
3 438 451 450
3 438 437 451
3 439 450 449
3 439 438 450
3 440 449 448
3 440 439 449
3 441 448 447
3 441 440 448
3 442 447 446
3 442 441 447
3 443 442 446
3 444 446 435
3 444 443 446
3 436 444 435
3 453 454 452
3 453 455 454
3 462 467 463
3 461 467 462
3 460 466 467
3 460 467 461
3 459 465 466
3 459 466 460
3 458 464 465
3 458 465 459
3 457 456 464
3 457 464 458
3 468 470 469
3 471 470 468
3 473 474 472
3 473 475 474
3 477 478 476
3 477 479 478
3 481 482 480
3 481 483 482
3 492 485 484
3 492 484 491
3 493 486 485
3 493 485 492
3 494 487 486
3 494 486 493
3 495 488 487
3 495 487 494
3 490 489 488
3 490 488 495
3 504 497 496
3 504 496 503
3 505 498 497
3 505 497 504
3 506 499 498
3 506 498 505
3 507 500 499
3 507 499 506
3 502 501 500
3 502 500 507
3 509 510 508
3 509 511 510
3 520 522 521
3 520 523 522
3 520 524 523
3 520 525 524
3 515 520 521
3 517 516 515
3 518 517 515
3 519 518 515
3 514 519 515
3 527 521 526
3 528 521 527
3 512 513 514
3 512 515 521
3 512 514 515
3 512 521 528
3 530 528 529
3 531 532 512
3 531 512 528
3 531 528 530
