ply
format ascii 1.0
comment generated by blendit.inference.finetune_visualize
element vertex 868
property float x
property float y
property float z
property uchar red
property uchar green
property uchar blue
element face 878
property list uchar int vertex_indices
end_header
-1.11022302e-16 30.0134297 41.2773452 218 222 230
0 22.5416382 41.2773452 218 222 230
0 22.5416382 36.8876167 218 222 230
-1.11022302e-16 22.5416382 35.4126636 218 222 230
-1.11022302e-16 0.665992455 35.4126636 218 222 230
-1.11022302e-16 0.665992455 0.665992455 218 222 230
-1.11022302e-16 30.0134297 0.665992455 218 222 230
0.665992455 30.6794221 41.2773452 218 222 230
3.37931844 30.6794221 41.2773452 218 222 230
3.37931844 22.5416382 41.2773452 218 222 230
0 22.5416382 41.2773452 218 222 230
-1.11022302e-16 30.0134297 41.2773452 218 222 230
0.0166978213 30.1616269 41.2773452 218 222 230
0.0659539868 30.302393 41.2773452 218 222 230
0.145298587 30.4286692 41.2773452 218 222 230
0.250752951 30.5341235 41.2773452 218 222 230
0.377029159 30.6134681 41.2773452 218 222 230
0.517795192 30.6627243 41.2773452 218 222 230
-1.11022302e-16 30.0134297 0.665992455 255 79 163
-1.11022302e-16 30.0134297 41.2773452 255 79 163
0.0166978213 30.1616269 41.2773452 255 79 163
0.0659539868 30.302393 41.2773452 255 79 163
0.145298587 30.4286692 41.2773452 255 79 163
0.250752951 30.5341235 41.2773452 255 79 163
0.377029159 30.6134681 41.2773452 255 79 163
0.517795192 30.6627243 41.2773452 255 79 163
0.665992455 30.6794221 41.2773452 255 79 163
0.665992455 30.6794221 -1.11022302e-16 255 79 163
0.0226931426 30.1858012 0.493620924 255 79 163
0.0892260703 30.3464259 0.332996228 255 79 163
0.195064674 30.4843575 0.195064674 255 79 163
0.318012353 30.5812816 0.0981405388 255 79 163
0.432049434 30.6369813 0.0424408428 255 79 163
0.542071492 30.6677916 0.0116305178 255 79 163
0.603759678 30.6765081 0.00291400445 255 79 163
18.6241961 22.5416382 20.4691347 218 222 230
36.1419854 22.5416382 35.9122447 218 222 230
37.2483921 22.5416382 35.4126636 218 222 230
37.2309552 22.5416382 35.5640626 218 222 230
37.1795575 22.5416382 35.7075338 218 222 230
37.0968905 22.5416382 35.8355645 218 222 230
36.9872828 22.5416382 35.9414506 218 222 230
36.8564739 22.5416382 36.0196474 218 222 230
36.7113135 22.5416382 36.0660603 218 222 230
36.5594027 22.5416382 36.0782589 218 222 230
36.4086961 22.5416382 36.0556045 218 222 230
36.2670852 22.5416382 35.9992834 218 222 230
37.2483921 22.5416382 36.8876167 218 222 230
37.2483921 22.5416382 52.0814203 218 222 230
4.71130335 22.5416382 52.0814203 218 222 230
4.71130335 22.5416382 41.9433376 218 222 230
4.70360712 22.5416382 41.880829 218 222 230
4.68253765 22.5416382 41.8215763 218 222 230
4.65136543 22.5416382 41.7668025 218 222 230
4.59894583 22.5416382 41.7010577 218 222 230
4.50580242 22.5416382 41.6162202 218 222 230
4.34738297 22.5416382 41.5129048 218 222 230
4.08804693 22.5416382 41.3983624 218 222 230
3.77981207 22.5416382 41.3158192 218 222 230
3.58047014 22.5416382 41.2871956 218 222 230
3.37931844 22.5416382 41.2773452 218 222 230
0 22.5416382 41.2773452 218 222 230
0 22.5416382 36.8876167 218 222 230
-1.11022302e-16 22.5416382 35.4126636 218 222 230
0.0174369121 22.5416382 35.5640626 218 222 230
0.0688345872 22.5416382 35.7075338 218 222 230
0.151501653 22.5416382 35.8355645 218 222 230
0.261109357 22.5416382 35.9414506 218 222 230
0.391918236 22.5416382 36.0196474 218 222 230
0.537078652 22.5416382 36.0660603 218 222 230
0.688989471 22.5416382 36.0782589 218 222 230
0.839696082 22.5416382 36.0556045 218 222 230
0.981306929 22.5416382 35.9992834 218 222 230
1.10640675 22.5416382 35.9122447 218 222 230
18.2633303 22.5416382 39.8204872 218 222 230
18.5108047 22.5416382 39.8505361 218 222 230
18.7438968 22.5416382 39.9389363 218 222 230
18.9490602 22.5416382 40.0805503 218 222 230
19.1143714 22.5416382 40.2671481 218 222 230
19.2302232 22.5416382 40.4878852 218 222 230
19.2898827 22.5416382 40.7299333 218 222 230
19.2898827 22.5416382 40.9792254 218 222 230
19.2302232 22.5416382 41.2212735 218 222 230
19.1143714 22.5416382 41.4420106 218 222 230
18.9490602 22.5416382 41.6286084 218 222 230
18.7438968 22.5416382 41.7702224 218 222 230
18.5108047 22.5416382 41.8586226 218 222 230
18.2633303 22.5416382 41.8886715 218 222 230
18.0158558 22.5416382 41.8586226 218 222 230
17.7827637 22.5416382 41.7702224 218 222 230
17.5776004 22.5416382 41.6286084 218 222 230
17.4122892 22.5416382 41.4420106 218 222 230
17.2964374 22.5416382 41.2212735 218 222 230
17.2367779 22.5416382 40.9792254 218 222 230
17.2367779 22.5416382 40.7299333 218 222 230
17.2964374 22.5416382 40.4878852 218 222 230
17.4122892 22.5416382 40.2671481 218 222 230
17.5776004 22.5416382 40.0805503 218 222 230
17.7827637 22.5416382 39.9389363 218 222 230
18.0158558 22.5416382 39.8505361 218 222 230
26.469274 22.5416382 40.6762081 218 222 230
37.1841687 22.5416382 46.6219267 218 222 230
27.2198544 22.5416382 50.9324111 218 222 230
-1.11022302e-16 0.665992455 0.665992455 255 79 163
-1.11022302e-16 30.0134297 0.665992455 255 79 163
0.0226931426 30.1858012 0.493620924 255 79 163
0.0892260703 30.3464259 0.332996228 255 79 163
0.195064674 30.4843575 0.195064674 255 79 163
0.318012353 30.5812816 0.0981405388 255 79 163
0.432049434 30.6369813 0.0424408428 255 79 163
0.542071492 30.6677916 0.0116305178 255 79 163
0.603759678 30.6765081 0.00291400445 255 79 163
0.665992455 30.6794221 -1.11022302e-16 255 79 163
0.665992455 0 -1.11022302e-16 255 79 163
0.0226931426 0.493620924 0.493620924 255 79 163
0.0892260703 0.332996228 0.332996228 255 79 163
0.195064674 0.195064674 0.195064674 255 79 163
0.318012353 0.0981405388 0.0981405388 255 79 163
0.432049434 0.0424408428 0.0424408428 255 79 163
0.542071492 0.0116305178 0.0116305178 255 79 163
0.603759678 0.00291400445 0.00291400445 255 79 163
-1.11022302e-16 0.665992455 0.665992455 255 79 163
0.0226931426 0.493620924 0.493620924 255 79 163
0.0892260703 0.332996228 0.332996228 255 79 163
0.195064674 0.195064674 0.195064674 255 79 163
0.318012353 0.0981405388 0.0981405388 255 79 163
0.432049434 0.0424408428 0.0424408428 255 79 163
0.542071492 0.0116305178 0.0116305178 255 79 163
0.603759678 0.00291400445 0.00291400445 255 79 163
0.665992455 0 -1.11022302e-16 255 79 163
0.665992455 -1.11022302e-16 36.0786561 255 79 163
-1.11022302e-16 0.665992455 35.4126636 255 79 163
0.0226931426 0.493620924 35.5850352 255 79 163
0.0892260703 0.332996228 35.7456599 255 79 163
0.195064674 0.195064674 35.8835914 255 79 163
0.318012353 0.0981405388 35.9805156 255 79 163
0.432049434 0.0424408428 36.0362153 255 79 163
0.542071492 0.0116305178 36.0670256 255 79 163
0.603759678 0.00291400445 36.0757421 255 79 163
-1.11022302e-16 0.665992455 35.4126636 255 79 163
0.0226931426 0.493620924 35.5850352 255 79 163
0.0892260703 0.332996228 35.7456599 255 79 163
0.195064674 0.195064674 35.8835914 255 79 163
0.318012353 0.0981405388 35.9805156 255 79 163
0.432049434 0.0424408428 36.0362153 255 79 163
0.542071492 0.0116305178 36.0670256 255 79 163
0.603759678 0.00291400445 36.0757421 255 79 163
0.665992455 -1.11022302e-16 36.0786561 255 79 163
0.824847715 0 36.0594333 255 79 163
0.97453276 0 36.0028745 255 79 163
1.10640675 0 35.9122447 255 79 163
1.10640675 22.5416382 35.9122447 255 79 163
-1.11022302e-16 22.5416382 35.4126636 255 79 163
0.0174369121 22.5416382 35.5640626 255 79 163
0.0688345872 22.5416382 35.7075338 255 79 163
0.151501653 22.5416382 35.8355645 255 79 163
0.261109357 22.5416382 35.9414506 255 79 163
0.391918236 22.5416382 36.0196474 255 79 163
0.537078652 22.5416382 36.0660603 255 79 163
0.688989471 22.5416382 36.0782589 255 79 163
0.839696082 22.5416382 36.0556045 255 79 163
0.981306929 22.5416382 35.9992834 255 79 163
37.2483921 30.6794221 0.665992455 218 222 230
37.2483921 30.6794221 52.0814203 218 222 230
36.5823997 30.6794221 -1.11022302e-16 218 222 230
36.7305969 30.6794221 0.0166978213 218 222 230
36.871363 30.6794221 0.0659539868 218 222 230
36.9976392 30.6794221 0.145298587 218 222 230
37.1030936 30.6794221 0.250752951 218 222 230
37.1824382 30.6794221 0.377029159 218 222 230
37.2316943 30.6794221 0.517795192 218 222 230
0.665992455 30.6794221 -1.11022302e-16 218 222 230
0.665992455 30.6794221 41.2773452 218 222 230
3.37931844 30.6794221 41.2773452 218 222 230
4.71130335 30.6794221 41.9433376 218 222 230
4.70360712 30.6794221 41.880829 218 222 230
4.68253765 30.6794221 41.8215763 218 222 230
4.65136543 30.6794221 41.7668025 218 222 230
4.59894583 30.6794221 41.7010577 218 222 230
4.50580242 30.6794221 41.6162202 218 222 230
4.34738297 30.6794221 41.5129048 218 222 230
4.08804693 30.6794221 41.3983624 218 222 230
3.77981207 30.6794221 41.3158192 218 222 230
3.58047014 30.6794221 41.2871956 218 222 230
4.71130335 30.6794221 52.0814203 218 222 230
4.04531089 30.0134297 41.9433376 255 79 163
4.02261775 30.1244284 41.7709661 255 79 163
3.95608482 30.2354272 41.6103414 255 79 163
3.85024622 30.3464259 41.4724098 255 79 163
3.71231468 30.4574246 41.3665712 255 79 163
3.55168999 30.5684234 41.3000383 255 79 163
3.37931844 30.6794221 41.2773452 255 79 163
4.04531089 23.2076306 41.9433376 255 79 163
4.02261775 23.0966319 41.7709661 255 79 163
3.95608482 22.9856331 41.6103414 255 79 163
3.85024622 22.8746344 41.4724098 255 79 163
3.71231468 22.7636356 41.3665712 255 79 163
3.55168999 22.6526369 41.3000383 255 79 163
3.37931844 22.5416382 41.2773452 255 79 163
18.6241961 0.665992455 20.4691347 218 222 230
18.6241961 22.5416382 20.4691347 218 222 230
36.1419854 22.5416382 35.9122447 218 222 230
36.1419854 0.665992455 35.9122447 218 222 230
37.0819807 -1.11022302e-16 35.8530779 255 79 163
37.1726105 0 35.721204 255 79 163
37.2291693 0 35.5715189 255 79 163
37.2483921 0 35.4126636 255 79 163
37.2483921 22.5416382 35.4126636 255 79 163
37.2309552 22.5416382 35.5640626 255 79 163
37.1795575 22.5416382 35.7075338 255 79 163
37.0968905 22.5416382 35.8355645 255 79 163
36.9872828 22.5416382 35.9414506 255 79 163
36.8564739 22.5416382 36.0196474 255 79 163
36.7113135 22.5416382 36.0660603 255 79 163
36.5594027 22.5416382 36.0782589 255 79 163
36.4086961 22.5416382 36.0556045 255 79 163
36.2670852 22.5416382 35.9992834 255 79 163
36.1419854 22.5416382 35.9122447 255 79 163
36.1419854 0.665992455 35.9122447 255 79 163
36.2862932 0.493620924 36.0092095 255 79 163
36.4507802 0.332996228 36.0655207 255 79 163
36.6242369 0.195064674 36.0773407 255 79 163
36.7782467 0.0981405388 36.0492089 255 79 163
36.8954403 0.0424408428 36.0004999 255 79 163
36.9913086 0.0116305178 35.9383436 255 79 163
37.0386409 0.00291400445 35.8978336 255 79 163
18.6241961 0.665992455 20.4691347 218 222 230
18.6241961 22.5416382 20.4691347 218 222 230
19.1277514 -1.11022302e-16 20.0252168 218 222 230
19.0101988 0.0184014246 20.1288473 218 222 230
18.8991421 0.0725888326 20.2267513 218 222 230
18.8007184 0.159567819 20.3135184 218 222 230
18.7203666 0.274531912 20.3843539 218 222 230
18.6625269 0.411128177 20.4353434 218 222 230
18.6338717 0.536063773 20.4606049 218 222 230
18.6241961 0 20.4691347 218 222 230
1.10640675 0 35.9122447 218 222 230
1.10640675 22.5416382 35.9122447 218 222 230
37.2483921 0 0.665992455 218 222 230
37.2483921 0 35.4126636 218 222 230
37.2483921 30.6794221 0.665992455 218 222 230
37.2483921 30.6794221 52.0814203 218 222 230
37.2483921 30.6627243 52.2296176 218 222 230
37.2483921 30.6134681 52.3703836 218 222 230
37.2483921 30.5341235 52.4966598 218 222 230
37.2483921 30.4286692 52.6021142 218 222 230
37.2483921 30.302393 52.6814588 218 222 230
37.2483921 30.1616269 52.7307149 218 222 230
37.2483921 30.0134297 52.7474128 218 222 230
37.2483921 23.2076306 52.7474128 218 222 230
37.2483921 22.5416382 52.0814203 218 222 230
37.2483921 22.558336 52.2296176 218 222 230
37.2483921 22.6075921 52.3703836 218 222 230
37.2483921 22.6869367 52.4966598 218 222 230
37.2483921 22.7923911 52.6021142 218 222 230
37.2483921 22.9186673 52.6814588 218 222 230
37.2483921 23.0594334 52.7307149 218 222 230
37.2483921 22.5416382 36.8876167 218 222 230
37.2483921 22.5416382 35.4126636 218 222 230
37.2483921 22.5416382 52.0814203 255 79 163
37.2483921 22.558336 52.2296176 255 79 163
37.2483921 22.6075921 52.3703836 255 79 163
37.2483921 22.6869367 52.4966598 255 79 163
37.2483921 22.7923911 52.6021142 255 79 163
37.2483921 22.9186673 52.6814588 255 79 163
37.2483921 23.0594334 52.7307149 255 79 163
37.2483921 23.2076306 52.7474128 255 79 163
4.71130335 23.2076306 52.7474128 255 79 163
4.71130335 23.0594334 52.7307149 255 79 163
4.71130335 22.9186673 52.6814588 255 79 163
4.71130335 22.7923911 52.6021142 255 79 163
4.71130335 22.6869367 52.4966598 255 79 163
4.71130335 22.6075921 52.3703836 255 79 163
4.71130335 22.558336 52.2296176 255 79 163
4.71130335 22.5416382 52.0814203 255 79 163
4.71130335 22.5416382 52.0814203 255 79 163
4.56310608 22.558336 52.0814203 255 79 163
4.42234005 22.6075921 52.0814203 255 79 163
4.29606384 22.6869367 52.0814203 255 79 163
4.19060948 22.7923911 52.0814203 255 79 163
4.11126488 22.9186673 52.0814203 255 79 163
4.06200871 23.0594334 52.0814203 255 79 163
4.04531089 23.2076306 52.0814203 255 79 163
4.04531089 23.2076306 41.9433376 255 79 163
4.71130335 22.5416382 41.9433376 255 79 163
4.55583132 22.5600388 41.9433376 255 79 163
4.40894874 22.6142273 41.9433376 255 79 163
4.2787755 22.7012064 41.9433376 255 79 163
4.17250473 22.8161695 41.9433376 255 79 163
4.09600644 22.9527664 41.9433376 255 79 163
4.05810698 23.0777028 41.9433376 255 79 163
3.37931844 22.5416382 41.2773452 255 79 163
3.37931844 22.5416382 41.2773452 255 79 163
4.71130335 22.5416382 41.9433376 255 79 163
4.70360712 22.5416382 41.880829 255 79 163
4.68253765 22.5416382 41.8215763 255 79 163
4.65136543 22.5416382 41.7668025 255 79 163
4.59894583 22.5416382 41.7010577 255 79 163
4.50580242 22.5416382 41.6162202 255 79 163
4.34738297 22.5416382 41.5129048 255 79 163
4.08804693 22.5416382 41.3983624 255 79 163
3.77981207 22.5416382 41.3158192 255 79 163
3.58047014 22.5416382 41.2871956 255 79 163
4.55583132 22.5600388 41.9433376 255 79 163
4.40894874 22.6142273 41.9433376 255 79 163
4.2787755 22.7012064 41.9433376 255 79 163
4.17250473 22.8161695 41.9433376 255 79 163
4.09600644 22.9527664 41.9433376 255 79 163
4.05810698 23.0777028 41.9433376 255 79 163
4.04531089 23.2076306 41.9433376 255 79 163
4.02261775 23.0966319 41.7709661 255 79 163
3.95608482 22.9856331 41.6103414 255 79 163
3.85024622 22.8746344 41.4724098 255 79 163
3.71231468 22.7636356 41.3665712 255 79 163
3.55168999 22.6526369 41.3000383 255 79 163
4.37493612 22.5621782 41.6288497 255 79 163
4.25331725 22.6150825 41.6415208 255 79 163
4.1990033 22.6511394 41.6479904 255 79 163
4.15011099 22.692947 41.6544499 255 79 163
4.0707592 22.792701 41.6669662 255 79 163
4.01825223 22.9113061 41.6783986 255 79 163
4.00253233 22.656896 41.4962519 255 79 163
3.9173762 22.6388187 41.4345489 255 79 163
3.83133542 22.6216679 41.3854892 255 79 163
3.72161679 22.6009605 41.3381379 255 79 163
3.62640974 22.583807 41.3087603 255 79 163
3.55270146 22.5709601 41.2927823 255 79 163
3.99640671 22.5697893 41.4149562 255 79 163
3.94457872 22.5671861 41.3917108 255 79 163
3.8160958 22.5608186 41.3445479 255 79 163
3.75011796 22.5576501 41.3255637 255 79 163
3.69447852 22.5550722 41.3121134 255 79 163
3.60909918 22.5513527 41.2958412 255 79 163
3.56602823 22.5495989 41.2895866 255 79 163
3.76532089 22.5458721 41.3204683 255 79 163
3.73516335 22.5455087 41.3140023 255 79 163
3.68922956 22.5449768 41.3051803 255 79 163
3.59666876 22.5440034 41.2911065 255 79 163
3.58908547 22.5422265 41.2890687 255 79 163
18.2633303 22.5416382 39.8204872 218 222 230
18.2633303 29.2576081 39.8204872 218 222 230
18.5108047 29.2576081 39.8505361 218 222 230
18.7438968 29.2576081 39.9389363 218 222 230
18.9490602 29.2576081 40.0805503 218 222 230
19.1143714 29.2576081 40.2671481 218 222 230
19.2302232 29.2576081 40.4878852 218 222 230
19.2898827 29.2576081 40.7299333 218 222 230
19.2898827 29.2576081 40.9792254 218 222 230
19.2302232 29.2576081 41.2212735 218 222 230
19.1143714 29.2576081 41.4420106 218 222 230
18.9490602 29.2576081 41.6286084 218 222 230
18.7438968 29.2576081 41.7702224 218 222 230
18.5108047 29.2576081 41.8586226 218 222 230
18.2633303 29.2576081 41.8886715 218 222 230
18.0158558 29.2576081 41.8586226 218 222 230
17.7827637 29.2576081 41.7702224 218 222 230
17.5776004 29.2576081 41.6286084 218 222 230
17.4122892 29.2576081 41.4420106 218 222 230
17.2964374 29.2576081 41.2212735 218 222 230
17.2367779 29.2576081 40.9792254 218 222 230
17.2367779 29.2576081 40.7299333 218 222 230
17.2964374 29.2576081 40.4878852 218 222 230
17.4122892 29.2576081 40.2671481 218 222 230
17.5776004 29.2576081 40.0805503 218 222 230
17.7827637 29.2576081 39.9389363 218 222 230
18.0158558 29.2576081 39.8505361 218 222 230
18.2633303 29.2576081 39.8204872 218 222 230
18.2633303 22.5416382 39.8204872 218 222 230
18.5108047 22.5416382 39.8505361 218 222 230
18.7438968 22.5416382 39.9389363 218 222 230
18.9490602 22.5416382 40.0805503 218 222 230
19.1143714 22.5416382 40.2671481 218 222 230
19.2302232 22.5416382 40.4878852 218 222 230
19.2898827 22.5416382 40.7299333 218 222 230
19.2898827 22.5416382 40.9792254 218 222 230
19.2302232 22.5416382 41.2212735 218 222 230
19.1143714 22.5416382 41.4420106 218 222 230
18.9490602 22.5416382 41.6286084 218 222 230
18.7438968 22.5416382 41.7702224 218 222 230
18.5108047 22.5416382 41.8586226 218 222 230
18.2633303 22.5416382 41.8886715 218 222 230
18.0158558 22.5416382 41.8586226 218 222 230
17.7827637 22.5416382 41.7702224 218 222 230
17.5776004 22.5416382 41.6286084 218 222 230
17.4122892 22.5416382 41.4420106 218 222 230
17.2964374 22.5416382 41.2212735 218 222 230
17.2367779 22.5416382 40.9792254 218 222 230
17.2367779 22.5416382 40.7299333 218 222 230
17.2964374 22.5416382 40.4878852 218 222 230
17.4122892 22.5416382 40.2671481 218 222 230
17.5776004 22.5416382 40.0805503 218 222 230
17.7827637 22.5416382 39.9389363 218 222 230
18.0158558 22.5416382 39.8505361 218 222 230
26.469274 22.5416382 40.6762081 255 79 163
37.1841687 22.5416382 46.6219267 255 79 163
36.4311041 22.6308642 46.5848779 255 79 163
36.1191746 22.7367028 46.5695318 255 79 163
35.9318681 22.837625 46.5603168 255 79 163
35.8226441 22.9228822 46.5549433 255 79 163
35.7370099 23.0230965 46.5507303 255 79 163
35.6972726 23.1015378 46.5487753 255 79 163
35.6828555 23.154414 46.5480661 255 79 163
35.6780396 23.2076306 46.5478291 255 79 163
27.2234131 23.2076306 41.8563383 255 79 163
26.811646 22.614227 41.211976 255 79 163
27.0179624 22.750737 41.5348345 255 79 163
27.1316802 22.8892873 41.7127882 255 79 163
27.1735073 22.9693835 41.7782422 255 79 163
27.2050863 23.0616997 41.8276592 255 79 163
27.2188174 23.1342178 41.8491466 255 79 163
27.2198544 22.5416382 50.9324111 255 79 163
26.469274 22.5416382 40.6762081 255 79 163
26.811646 22.614227 41.211976 255 79 163
27.0179624 22.750737 41.5348345 255 79 163
27.1316802 22.8892873 41.7127882 255 79 163
27.1735073 22.9693835 41.7782422 255 79 163
27.2050863 23.0616997 41.8276592 255 79 163
27.2188174 23.1342178 41.8491466 255 79 163
27.2234131 23.2076306 41.8563383 255 79 163
27.8156612 23.2076306 49.9490325 255 79 163
27.4417936 22.5895687 50.5661007 255 79 163
27.6150606 22.7092402 50.2801237 255 79 163
27.7132295 22.8342676 50.1180959 255 79 163
27.7717272 22.9566301 50.0215455 255 79 163
27.801639 23.0639924 49.9721762 255 79 163
27.8121453 23.1353852 49.9548356 255 79 163
37.1841687 22.5416382 46.6219267 255 79 163
27.2198544 22.5416382 50.9324111 255 79 163
27.4417936 22.5895687 50.5661007 255 79 163
27.6150606 22.7092402 50.2801237 255 79 163
27.7132295 22.8342676 50.1180959 255 79 163
27.7717272 22.9566301 50.0215455 255 79 163
27.801639 23.0639924 49.9721762 255 79 163
27.8121453 23.1353852 49.9548356 255 79 163
27.8156612 23.2076306 49.9490325 255 79 163
35.6780396 23.2076306 46.5478291 255 79 163
36.4311041 22.6308642 46.5848779 255 79 163
36.1191746 22.7367028 46.5695318 255 79 163
35.9318681 22.837625 46.5603168 255 79 163
35.8226441 22.9228822 46.5549433 255 79 163
35.7370099 23.0230965 46.5507303 255 79 163
35.6972726 23.1015378 46.5487753 255 79 163
35.6828555 23.154414 46.5480661 255 79 163
0.665992455 30.6794221 -1.11022302e-16 218 222 230
36.5823997 30.6794221 -1.11022302e-16 218 222 230
0.665992455 0 -1.11022302e-16 218 222 230
36.5823997 0 -1.11022302e-16 218 222 230
37.2483921 0 0.665992455 218 222 230
37.2483921 0 35.4126636 218 222 230
36.5823997 0 -1.11022302e-16 218 222 230
36.7305969 0 0.0166978213 218 222 230
36.871363 0 0.0659539868 218 222 230
36.9976392 0 0.145298587 218 222 230
37.1030936 0 0.250752951 218 222 230
37.1824382 0 0.377029159 218 222 230
37.2316943 0 0.517795192 218 222 230
0.665992455 0 -1.11022302e-16 218 222 230
0.665992455 -1.11022302e-16 36.0786561 218 222 230
0.824847715 0 36.0594333 218 222 230
0.97453276 0 36.0028745 218 222 230
1.10640675 0 35.9122447 218 222 230
18.6241961 0 20.4691347 218 222 230
19.1277514 -1.11022302e-16 20.0252168 218 222 230
37.0819807 -1.11022302e-16 35.8530779 218 222 230
37.1726105 0 35.721204 218 222 230
37.2291693 0 35.5715189 218 222 230
36.5823997 0 -1.11022302e-16 255 79 163
36.5823997 30.6794221 -1.11022302e-16 255 79 163
36.7305969 30.6794221 0.0166978213 255 79 163
36.871363 30.6794221 0.0659539868 255 79 163
36.9976392 30.6794221 0.145298587 255 79 163
37.1030936 30.6794221 0.250752951 255 79 163
37.1824382 30.6794221 0.377029159 255 79 163
37.2316943 30.6794221 0.517795192 255 79 163
37.2483921 30.6794221 0.665992455 255 79 163
37.2483921 0 0.665992455 255 79 163
36.7305969 0 0.0166978213 255 79 163
36.871363 0 0.0659539868 255 79 163
36.9976392 0 0.145298587 255 79 163
37.1030936 0 0.250752951 255 79 163
37.1824382 0 0.377029159 255 79 163
37.2316943 0 0.517795192 255 79 163
4.71130335 30.0134297 52.7474128 255 79 163
4.71130335 30.1616269 52.7307149 255 79 163
4.71130335 30.302393 52.6814588 255 79 163
4.71130335 30.4286692 52.6021142 255 79 163
4.71130335 30.5341235 52.4966598 255 79 163
4.71130335 30.6134681 52.3703836 255 79 163
4.71130335 30.6627243 52.2296176 255 79 163
4.71130335 30.6794221 52.0814203 255 79 163
37.2483921 30.0134297 52.7474128 255 79 163
37.2483921 30.6794221 52.0814203 255 79 163
37.2483921 30.6627243 52.2296176 255 79 163
37.2483921 30.6134681 52.3703836 255 79 163
37.2483921 30.5341235 52.4966598 255 79 163
37.2483921 30.4286692 52.6021142 255 79 163
37.2483921 30.302393 52.6814588 255 79 163
37.2483921 30.1616269 52.7307149 255 79 163
4.71130335 30.6794221 41.9433376 255 79 163
4.55583132 30.6610215 41.9433376 255 79 163
4.40894874 30.606833 41.9433376 255 79 163
4.2787755 30.5198539 41.9433376 255 79 163
4.17250473 30.4048908 41.9433376 255 79 163
4.09600644 30.2682939 41.9433376 255 79 163
4.05810698 30.1433575 41.9433376 255 79 163
4.04531089 30.0134297 41.9433376 255 79 163
4.04531089 30.0134297 52.0814203 255 79 163
4.71130335 30.6794221 52.0814203 255 79 163
4.56310608 30.6627243 52.0814203 255 79 163
4.42234005 30.6134681 52.0814203 255 79 163
4.29606384 30.5341235 52.0814203 255 79 163
4.19060948 30.4286692 52.0814203 255 79 163
4.11126488 30.302393 52.0814203 255 79 163
4.06200871 30.1616269 52.0814203 255 79 163
3.37931844 30.6794221 41.2773452 255 79 163
3.37931844 30.6794221 41.2773452 255 79 163
4.71130335 30.6794221 41.9433376 255 79 163
4.70360712 30.6794221 41.880829 255 79 163
4.68253765 30.6794221 41.8215763 255 79 163
4.65136543 30.6794221 41.7668025 255 79 163
4.59894583 30.6794221 41.7010577 255 79 163
4.50580242 30.6794221 41.6162202 255 79 163
4.34738297 30.6794221 41.5129048 255 79 163
4.08804693 30.6794221 41.3983624 255 79 163
3.77981207 30.6794221 41.3158192 255 79 163
3.58047014 30.6794221 41.2871956 255 79 163
4.55583132 30.6610215 41.9433376 255 79 163
4.40894874 30.606833 41.9433376 255 79 163
4.2787755 30.5198539 41.9433376 255 79 163
4.17250473 30.4048908 41.9433376 255 79 163
4.09600644 30.2682939 41.9433376 255 79 163
4.05810698 30.1433575 41.9433376 255 79 163
4.04531089 30.0134297 41.9433376 255 79 163
4.02261775 30.1244284 41.7709661 255 79 163
3.95608482 30.2354272 41.6103414 255 79 163
3.85024622 30.3464259 41.4724098 255 79 163
3.71231468 30.4574246 41.3665712 255 79 163
3.55168999 30.5684234 41.3000383 255 79 163
4.37493612 30.6588821 41.6288497 255 79 163
4.25331725 30.6059778 41.6415208 255 79 163
4.1990033 30.5699209 41.6479904 255 79 163
4.15011099 30.5281133 41.6544499 255 79 163
4.0707592 30.4283593 41.6669662 255 79 163
4.01825223 30.3097542 41.6783986 255 79 163
4.00253233 30.5641643 41.4962519 255 79 163
3.9173762 30.5822416 41.4345489 255 79 163
3.83133542 30.5993924 41.3854892 255 79 163
3.72161679 30.6200998 41.3381379 255 79 163
3.62640974 30.6372533 41.3087603 255 79 163
3.55270146 30.6501002 41.2927823 255 79 163
3.99640671 30.651271 41.4149562 255 79 163
3.94457872 30.6538742 41.3917108 255 79 163
3.8160958 30.6602417 41.3445479 255 79 163
3.75011796 30.6634102 41.3255637 255 79 163
3.69447852 30.665988 41.3121134 255 79 163
3.60909918 30.6697076 41.2958412 255 79 163
3.56602823 30.6714614 41.2895866 255 79 163
3.76532089 30.6751882 41.3204683 255 79 163
3.73516335 30.6755516 41.3140023 255 79 163
3.68922956 30.6760835 41.3051803 255 79 163
3.59666876 30.6770569 41.2911065 255 79 163
3.58908547 30.6788338 41.2890687 255 79 163
4.04531089 30.0134297 52.0814203 218 222 230
4.04531089 30.0134297 41.9433376 218 222 230
4.04531089 23.2076306 41.9433376 218 222 230
4.04531089 23.2076306 52.0814203 218 222 230
19.1277514 -1.11022302e-16 20.0252168 255 79 163
37.0819807 -1.11022302e-16 35.8530779 255 79 163
36.1419854 0.665992455 35.9122447 255 79 163
36.2862932 0.493620924 36.0092095 255 79 163
36.4507802 0.332996228 36.0655207 255 79 163
36.6242369 0.195064674 36.0773407 255 79 163
36.7782467 0.0981405388 36.0492089 255 79 163
36.8954403 0.0424408428 36.0004999 255 79 163
36.9913086 0.0116305178 35.9383436 255 79 163
37.0386409 0.00291400445 35.8978336 255 79 163
18.6241961 0.665992455 20.4691347 255 79 163
19.0101988 0.0184014246 20.1288473 255 79 163
18.8991421 0.0725888326 20.2267513 255 79 163
18.8007184 0.159567819 20.3135184 255 79 163
18.7203666 0.274531912 20.3843539 255 79 163
18.6625269 0.411128177 20.4353434 255 79 163
18.6338717 0.536063773 20.4606049 255 79 163
37.2483921 23.2076306 52.7474128 218 222 230
37.2483921 30.0134297 52.7474128 218 222 230
4.71130335 30.0134297 52.7474128 218 222 230
4.71130335 23.2076306 52.7474128 218 222 230
4.71130335 23.2076306 52.7474128 255 79 163
4.71130335 23.0594334 52.7307149 255 79 163
4.71130335 22.9186673 52.6814588 255 79 163
4.71130335 22.7923911 52.6021142 255 79 163
4.71130335 22.6869367 52.4966598 255 79 163
4.71130335 22.6075921 52.3703836 255 79 163
4.71130335 22.558336 52.2296176 255 79 163
4.71130335 22.5416382 52.0814203 255 79 163
4.71130335 23.2076306 52.7474128 255 79 163
4.56310608 23.2076306 52.7307149 255 79 163
4.42234005 23.2076306 52.6814588 255 79 163
4.29606384 23.2076306 52.6021142 255 79 163
4.19060948 23.2076306 52.4966598 255 79 163
4.11126488 23.2076306 52.3703836 255 79 163
4.06200871 23.2076306 52.2296176 255 79 163
4.04531089 23.2076306 52.0814203 255 79 163
4.56310608 22.558336 52.0814203 255 79 163
4.42234005 22.6075921 52.0814203 255 79 163
4.29606384 22.6869367 52.0814203 255 79 163
4.19060948 22.7923911 52.0814203 255 79 163
4.11126488 22.9186673 52.0814203 255 79 163
4.06200871 23.0594334 52.0814203 255 79 163
4.67910867 23.0043614 52.7148168 255 79 163
4.61787075 23.0242588 52.7148168 255 79 163
4.56577866 23.0621059 52.7148168 255 79 163
4.59033539 22.8353295 52.6202195 255 79 163
4.52793154 23.114198 52.7148168 255 79 163
4.48120861 22.8909324 52.6202195 255 79 163
4.62701658 22.6754649 52.4728808 255 79 163
4.50803414 23.1754359 52.7148168 255 79 163
4.39460512 22.9775359 52.6202195 255 79 163
4.46669362 22.727557 52.4728808 255 79 163
4.33900225 23.0866627 52.6202195 255 79 163
4.33031477 22.826642 52.4728808 255 79 163
4.51557308 22.6052348 52.2872233 255 79 163
4.23122973 22.9630209 52.4728808 255 79 163
4.33900225 22.6952021 52.2872233 255 79 163
4.17913765 23.1233438 52.4728808 255 79 163
4.19887484 22.8353295 52.2872233 255 79 163
4.10890751 23.0119003 52.2872233 255 79 163
18.2633303 29.2576081 39.8204872 218 222 230
18.5108047 29.2576081 39.8505361 218 222 230
18.7438968 29.2576081 39.9389363 218 222 230
18.9490602 29.2576081 40.0805503 218 222 230
19.1143714 29.2576081 40.2671481 218 222 230
19.2302232 29.2576081 40.4878852 218 222 230
19.2898827 29.2576081 40.7299333 218 222 230
19.2898827 29.2576081 40.9792254 218 222 230
19.2302232 29.2576081 41.2212735 218 222 230
19.1143714 29.2576081 41.4420106 218 222 230
18.9490602 29.2576081 41.6286084 218 222 230
18.7438968 29.2576081 41.7702224 218 222 230
18.5108047 29.2576081 41.8586226 218 222 230
18.2633303 29.2576081 41.8886715 218 222 230
18.0158558 29.2576081 41.8586226 218 222 230
17.7827637 29.2576081 41.7702224 218 222 230
17.5776004 29.2576081 41.6286084 218 222 230
17.4122892 29.2576081 41.4420106 218 222 230
17.2964374 29.2576081 41.2212735 218 222 230
17.2367779 29.2576081 40.9792254 218 222 230
17.2367779 29.2576081 40.7299333 218 222 230
17.2964374 29.2576081 40.4878852 218 222 230
17.4122892 29.2576081 40.2671481 218 222 230
17.5776004 29.2576081 40.0805503 218 222 230
17.7827637 29.2576081 39.9389363 218 222 230
18.0158558 29.2576081 39.8505361 218 222 230
18.2633303 29.2576081 41.654803 218 222 230
18.4548363 29.2576081 41.63155 218 222 230
18.6352128 29.2576081 41.5631422 218 222 230
18.7939767 29.2576081 41.4535554 218 222 230
18.9219015 29.2576081 41.3091582 218 222 230
19.0115524 29.2576081 41.1383426 218 222 230
19.0577194 29.2576081 40.9510357 218 222 230
19.0577194 29.2576081 40.7581231 218 222 230
19.0115524 29.2576081 40.5708161 218 222 230
18.9219015 29.2576081 40.4000005 218 222 230
18.7939767 29.2576081 40.2556033 218 222 230
18.6352128 29.2576081 40.1460165 218 222 230
18.4548363 29.2576081 40.0776087 218 222 230
18.2633303 29.2576081 40.0543557 218 222 230
18.0718242 29.2576081 40.0776087 218 222 230
17.8914478 29.2576081 40.1460165 218 222 230
17.7326838 29.2576081 40.2556033 218 222 230
17.6047591 29.2576081 40.4000005 218 222 230
17.5151081 29.2576081 40.5708161 218 222 230
17.4689411 29.2576081 40.7581231 218 222 230
17.4689411 29.2576081 40.9510357 218 222 230
17.5151081 29.2576081 41.1383426 218 222 230
17.6047591 29.2576081 41.3091582 218 222 230
17.7326838 29.2576081 41.4535554 218 222 230
17.8914478 29.2576081 41.5631422 218 222 230
18.0718242 29.2576081 41.63155 218 222 230
27.2234131 23.2076306 41.8563383 218 222 230
27.2234131 26.7438392 41.8563383 218 222 230
35.6780396 26.7438392 46.5478291 218 222 230
35.6780396 23.2076306 46.5478291 218 222 230
27.8156612 23.2076306 49.9490325 218 222 230
27.8156612 27.4098317 49.9490325 218 222 230
27.2815129 27.4098317 42.6502348 218 222 230
27.2234131 26.7438392 41.8563383 218 222 230
27.224468 26.8701748 41.8707531 218 222 230
27.2275945 26.9919227 41.9134739 218 222 230
27.2326789 27.1046617 41.9829495 218 222 230
27.2395367 27.2042977 42.0766568 218 222 230
27.2479188 27.2872127 42.191193 218 222 230
27.2575208 27.3503957 42.3223988 218 222 230
27.2679941 27.3915522 42.4655097 218 222 230
27.2747066 27.405246 42.5572319 218 222 230
27.2234131 23.2076306 41.8563383 218 222 230
35.6780396 23.2076306 46.5478291 218 222 230
35.6780396 26.7438392 46.5478291 218 222 230
35.6640351 26.8701748 46.5538874 218 222 230
35.6225301 26.9919227 46.5718421 218 222 230
35.5550318 27.1046617 46.6010414 218 222 230
35.4639913 27.2042977 46.6404247 218 222 230
35.3527148 27.2872127 46.6885621 218 222 230
35.225243 27.3503957 46.7437054 218 222 230
35.0862051 27.3915522 46.8038521 218 222 230
34.9970933 27.405246 46.8424012 218 222 230
34.9067372 27.4098317 46.8814885 218 222 230
27.8156612 27.4098317 49.9490325 218 222 230
27.8156612 23.2076306 49.9490325 218 222 230
4.71130335 30.6794221 52.0814203 255 79 163
4.56310608 30.6627243 52.0814203 255 79 163
4.42234005 30.6134681 52.0814203 255 79 163
4.29606384 30.5341235 52.0814203 255 79 163
4.19060948 30.4286692 52.0814203 255 79 163
4.11126488 30.302393 52.0814203 255 79 163
4.06200871 30.1616269 52.0814203 255 79 163
4.04531089 30.0134297 52.0814203 255 79 163
4.71130335 30.0134297 52.7474128 255 79 163
4.56310608 30.0134297 52.7307149 255 79 163
4.42234005 30.0134297 52.6814588 255 79 163
4.29606384 30.0134297 52.6021142 255 79 163
4.19060948 30.0134297 52.4966598 255 79 163
4.11126488 30.0134297 52.3703836 255 79 163
4.06200871 30.0134297 52.2296176 255 79 163
4.71130335 30.0134297 52.7474128 255 79 163
4.71130335 30.1616269 52.7307149 255 79 163
4.71130335 30.302393 52.6814588 255 79 163
4.71130335 30.4286692 52.6021142 255 79 163
4.71130335 30.5341235 52.4966598 255 79 163
4.71130335 30.6134681 52.3703836 255 79 163
4.71130335 30.6627243 52.2296176 255 79 163
4.50803414 30.0456244 52.7148168 255 79 163
4.52793154 30.1068623 52.7148168 255 79 163
4.56577866 30.1589544 52.7148168 255 79 163
4.33900225 30.1343976 52.6202195 255 79 163
4.61787075 30.1968015 52.7148168 255 79 163
4.39460512 30.2435244 52.6202195 255 79 163
4.17913765 30.0977164 52.4728808 255 79 163
4.67910867 30.2166989 52.7148168 255 79 163
4.48120861 30.3301279 52.6202195 255 79 163
4.23122973 30.2580394 52.4728808 255 79 163
4.59033539 30.3857308 52.6202195 255 79 163
4.33031477 30.3944183 52.4728808 255 79 163
4.10890751 30.20916 52.2872233 255 79 163
4.46669362 30.4935033 52.4728808 255 79 163
4.19887484 30.3857308 52.2872233 255 79 163
4.62701658 30.5455954 52.4728808 255 79 163
4.33900225 30.5258582 52.2872233 255 79 163
4.51557308 30.6158255 52.2872233 255 79 163
4.71130335 23.2076306 52.7474128 255 79 163
4.71130335 30.0134297 52.7474128 255 79 163
4.56310608 30.0134297 52.7307149 255 79 163
4.42234005 30.0134297 52.6814588 255 79 163
4.29606384 30.0134297 52.6021142 255 79 163
4.19060948 30.0134297 52.4966598 255 79 163
4.11126488 30.0134297 52.3703836 255 79 163
4.06200871 30.0134297 52.2296176 255 79 163
4.04531089 30.0134297 52.0814203 255 79 163
4.04531089 23.2076306 52.0814203 255 79 163
4.56310608 23.2076306 52.7307149 255 79 163
4.42234005 23.2076306 52.6814588 255 79 163
4.29606384 23.2076306 52.6021142 255 79 163
4.19060948 23.2076306 52.4966598 255 79 163
4.11126488 23.2076306 52.3703836 255 79 163
4.06200871 23.2076306 52.2296176 255 79 163
18.2633303 22.5416382 41.654803 218 222 230
18.4548363 22.5416382 41.63155 218 222 230
18.6352128 22.5416382 41.5631422 218 222 230
18.7939767 22.5416382 41.4535554 218 222 230
18.9219015 22.5416382 41.3091582 218 222 230
19.0115524 22.5416382 41.1383426 218 222 230
19.0577194 22.5416382 40.9510357 218 222 230
19.0577194 22.5416382 40.7581231 218 222 230
19.0115524 22.5416382 40.5708161 218 222 230
18.9219015 22.5416382 40.4000005 218 222 230
18.7939767 22.5416382 40.2556033 218 222 230
18.6352128 22.5416382 40.1460165 218 222 230
18.4548363 22.5416382 40.0776087 218 222 230
18.2633303 22.5416382 40.0543557 218 222 230
18.0718242 22.5416382 40.0776087 218 222 230
17.8914478 22.5416382 40.1460165 218 222 230
17.7326838 22.5416382 40.2556033 218 222 230
17.6047591 22.5416382 40.4000005 218 222 230
17.5151081 22.5416382 40.5708161 218 222 230
17.4689411 22.5416382 40.7581231 218 222 230
17.4689411 22.5416382 40.9510357 218 222 230
17.5151081 22.5416382 41.1383426 218 222 230
17.6047591 22.5416382 41.3091582 218 222 230
17.7326838 22.5416382 41.4535554 218 222 230
17.8914478 22.5416382 41.5631422 218 222 230
18.0718242 22.5416382 41.63155 218 222 230
18.2633303 22.5416382 41.654803 218 222 230
18.2633303 29.2576081 41.654803 218 222 230
18.2633303 29.2576081 41.654803 218 222 230
18.4548363 29.2576081 41.63155 218 222 230
18.6352128 29.2576081 41.5631422 218 222 230
18.7939767 29.2576081 41.4535554 218 222 230
18.9219015 29.2576081 41.3091582 218 222 230
19.0115524 29.2576081 41.1383426 218 222 230
19.0577194 29.2576081 40.9510357 218 222 230
19.0577194 29.2576081 40.7581231 218 222 230
19.0115524 29.2576081 40.5708161 218 222 230
18.9219015 29.2576081 40.4000005 218 222 230
18.7939767 29.2576081 40.2556033 218 222 230
18.6352128 29.2576081 40.1460165 218 222 230
18.4548363 29.2576081 40.0776087 218 222 230
18.2633303 29.2576081 40.0543557 218 222 230
18.0718242 29.2576081 40.0776087 218 222 230
17.8914478 29.2576081 40.1460165 218 222 230
17.7326838 29.2576081 40.2556033 218 222 230
17.6047591 29.2576081 40.4000005 218 222 230
17.5151081 29.2576081 40.5708161 218 222 230
17.4689411 29.2576081 40.7581231 218 222 230
17.4689411 29.2576081 40.9510357 218 222 230
17.5151081 29.2576081 41.1383426 218 222 230
17.6047591 29.2576081 41.3091582 218 222 230
17.7326838 29.2576081 41.4535554 218 222 230
17.8914478 29.2576081 41.5631422 218 222 230
18.0718242 29.2576081 41.63155 218 222 230
27.2234131 26.7438392 41.8563383 255 79 163
27.224468 26.8701748 41.8707531 255 79 163
27.2275945 26.9919227 41.9134739 255 79 163
27.2326789 27.1046617 41.9829495 255 79 163
27.2395367 27.2042977 42.0766568 255 79 163
27.2479188 27.2872127 42.191193 255 79 163
27.2575208 27.3503957 42.3223988 255 79 163
27.2679941 27.3915522 42.4655097 255 79 163
27.2747066 27.405246 42.5572319 255 79 163
27.2815129 27.4098317 42.6502348 255 79 163
34.9067372 27.4098317 46.8814885 255 79 163
35.6780396 26.7438392 46.5478291 255 79 163
35.6640351 26.8701748 46.5538874 255 79 163
35.6225301 26.9919227 46.5718421 255 79 163
35.5550318 27.1046617 46.6010414 255 79 163
35.4639913 27.2042977 46.6404247 255 79 163
35.3527148 27.2872127 46.6885621 255 79 163
35.225243 27.3503957 46.7437054 255 79 163
35.0862051 27.3915522 46.8038521 255 79 163
34.9970933 27.405246 46.8424012 255 79 163
34.9067372 27.4098317 46.8814885 218 222 230
27.8156612 27.4098317 49.9490325 218 222 230
27.2815129 27.4098317 42.6502348 218 222 230
18.2633303 22.5416382 41.654803 218 222 230
18.4548363 22.5416382 41.63155 218 222 230
18.6352128 22.5416382 41.5631422 218 222 230
18.7939767 22.5416382 41.4535554 218 222 230
18.9219015 22.5416382 41.3091582 218 222 230
19.0115524 22.5416382 41.1383426 218 222 230
19.0577194 22.5416382 40.9510357 218 222 230
19.0577194 22.5416382 40.7581231 218 222 230
19.0115524 22.5416382 40.5708161 218 222 230
18.9219015 22.5416382 40.4000005 218 222 230
18.7939767 22.5416382 40.2556033 218 222 230
18.6352128 22.5416382 40.1460165 218 222 230
18.4548363 22.5416382 40.0776087 218 222 230
18.2633303 22.5416382 40.0543557 218 222 230
18.0718242 22.5416382 40.0776087 218 222 230
17.8914478 22.5416382 40.1460165 218 222 230
17.7326838 22.5416382 40.2556033 218 222 230
17.6047591 22.5416382 40.4000005 218 222 230
17.5151081 22.5416382 40.5708161 218 222 230
17.4689411 22.5416382 40.7581231 218 222 230
17.4689411 22.5416382 40.9510357 218 222 230
17.5151081 22.5416382 41.1383426 218 222 230
17.6047591 22.5416382 41.3091582 218 222 230
17.7326838 22.5416382 41.4535554 218 222 230
17.8914478 22.5416382 41.5631422 218 222 230
18.0718242 22.5416382 41.63155 218 222 230
3 3 6 5
3 3 0 6
3 2 0 3
3 1 0 2
3 4 3 5
3 16 7 17
3 14 16 15
3 14 7 16
3 11 8 7
3 11 13 12
3 11 14 13
3 11 7 14
3 9 8 11
3 10 9 11
3 26 27 34
3 25 33 32
3 25 34 33
3 25 26 34
3 24 32 31
3 24 25 32
3 23 31 30
3 23 24 31
3 22 30 29
3 22 23 30
3 21 29 28
3 21 22 29
3 20 28 18
3 20 21 28
3 19 20 18
3 62 60 61
3 67 62 66
3 65 66 62
3 68 62 67
3 64 65 62
3 69 62 68
3 63 64 62
3 70 62 69
3 71 62 70
3 72 62 71
3 72 60 62
3 73 55 56
3 73 56 57
3 73 57 58
3 73 58 59
3 73 59 60
3 73 60 72
3 91 49 50
3 91 90 49
3 89 49 90
3 92 91 50
3 88 49 89
3 93 50 51
3 93 92 50
3 102 49 88
3 87 102 88
3 94 51 52
3 94 93 51
3 86 102 87
3 95 52 53
3 95 53 54
3 95 94 52
3 85 102 86
3 96 95 54
3 96 55 73
3 96 54 55
3 84 102 85
3 97 96 73
3 98 97 73
3 100 102 84
3 100 77 76
3 100 78 77
3 100 79 78
3 100 80 79
3 100 81 80
3 100 82 81
3 100 83 82
3 100 84 83
3 101 48 102
3 35 75 74
3 35 76 75
3 35 100 76
3 35 98 73
3 35 99 98
3 35 74 99
3 36 100 35
3 47 46 45
3 47 36 46
3 47 101 100
3 47 100 36
3 44 47 45
3 43 47 44
3 42 47 43
3 41 47 42
3 40 47 41
3 39 47 40
3 38 47 39
3 37 47 38
3 47 48 101
3 48 49 102
3 112 113 120
3 111 120 119
3 111 112 120
3 110 119 118
3 110 111 119
3 109 118 117
3 109 110 118
3 108 109 117
3 107 117 116
3 107 108 117
3 106 115 114
3 106 116 115
3 106 107 116
3 105 114 103
3 105 106 114
3 104 105 103
3 132 121 122
3 132 131 121
3 133 122 123
3 133 132 122
3 134 123 124
3 134 124 125
3 134 133 123
3 135 125 126
3 135 134 125
3 136 135 126
3 137 126 127
3 137 136 126
3 138 127 128
3 138 137 127
3 130 128 129
3 130 138 128
3 153 139 140
3 153 152 139
3 154 140 141
3 154 153 140
3 155 141 142
3 155 154 141
3 156 142 143
3 156 155 142
3 157 143 144
3 157 156 143
3 158 144 145
3 158 145 146
3 158 157 144
3 159 146 147
3 159 147 148
3 159 158 146
3 160 148 149
3 160 159 148
3 161 149 150
3 161 160 149
3 151 161 150
3 166 165 164
3 167 166 164
3 162 168 167
3 162 169 168
3 162 170 169
3 162 164 171
3 162 167 164
3 173 171 172
3 183 171 173
3 182 171 183
3 181 171 182
3 180 162 171
3 180 171 181
3 179 162 180
3 178 162 179
3 177 162 178
3 163 175 174
3 163 176 175
3 163 177 176
3 163 174 184
3 163 162 177
3 197 190 191
3 197 191 198
3 196 189 190
3 196 190 197
3 195 188 189
3 195 189 196
3 194 187 188
3 194 188 195
3 193 186 187
3 193 187 194
3 192 185 186
3 192 186 193
3 202 200 199
3 202 201 200
3 216 217 218
3 216 218 219
3 215 219 220
3 215 216 219
3 214 220 221
3 214 215 220
3 213 221 222
3 213 214 221
3 212 222 223
3 212 213 222
3 211 223 224
3 211 224 225
3 211 212 223
3 210 203 204
3 210 225 203
3 210 211 225
3 209 204 205
3 209 210 204
3 208 205 206
3 208 209 205
3 207 208 206
3 226 237 236
3 226 227 237
3 235 232 233
3 235 233 234
3 235 234 226
3 235 226 236
3 231 232 235
3 230 231 235
3 229 230 235
3 228 229 235
3 258 238 240
3 241 257 258
3 241 258 240
3 243 241 242
3 245 243 244
3 247 245 246
3 247 241 243
3 247 243 245
3 248 241 247
3 250 248 249
3 250 257 241
3 250 241 248
3 251 250 249
3 252 251 249
3 254 253 252
3 254 256 255
3 254 249 256
3 254 252 249
3 239 238 258
3 274 259 260
3 273 260 261
3 273 274 260
3 272 261 262
3 272 273 261
3 271 262 263
3 271 272 262
3 270 263 264
3 270 271 263
3 269 264 265
3 269 270 264
3 268 265 266
3 268 269 265
3 267 268 266
3 282 283 290
3 281 290 289
3 281 282 290
3 280 289 288
3 280 281 289
3 279 288 287
3 279 280 288
3 278 287 286
3 278 279 287
3 277 286 285
3 277 278 286
3 276 285 284
3 276 277 285
3 275 276 284
3 303 294 293
3 295 294 303
3 304 295 303
3 296 295 304
3 310 307 308
3 310 308 309
3 315 298 297
3 315 299 298
3 316 297 296
3 316 315 297
3 316 299 315
3 316 296 304
3 317 304 305
3 317 316 304
3 318 305 306
3 318 317 305
3 319 306 307
3 319 307 310
3 319 318 306
3 320 310 311
3 320 311 319
3 320 319 310
3 321 311 312
3 321 317 318
3 321 316 317
3 321 318 319
3 321 319 311
3 321 299 316
3 322 321 312
3 323 312 313
3 323 322 312
3 324 323 313
3 325 313 314
3 325 324 313
3 326 291 292
3 326 314 291
3 326 325 314
3 327 300 299
3 327 299 321
3 327 321 322
3 328 300 327
3 328 322 323
3 328 327 322
3 329 301 300
3 329 300 328
3 329 323 324
3 329 328 323
3 330 329 324
3 331 330 324
3 331 324 325
3 332 325 326
3 332 331 325
3 333 326 292
3 333 332 326
3 334 301 329
3 334 329 330
3 335 334 330
3 335 301 334
3 335 330 331
3 336 301 335
3 336 335 331
3 336 331 332
3 337 332 333
3 337 336 332
3 338 301 336
3 338 302 301
3 338 292 302
3 338 337 333
3 338 336 337
3 338 333 292
3 368 340 339
3 368 341 340
3 369 342 341
3 369 341 368
3 370 343 342
3 370 342 369
3 371 344 343
3 371 343 370
3 372 345 344
3 372 344 371
3 373 346 345
3 373 345 372
3 374 347 346
3 374 348 347
3 374 346 373
3 375 349 348
3 375 348 374
3 376 349 375
3 377 350 349
3 377 351 350
3 377 349 376
3 378 351 377
3 378 352 351
3 379 352 378
3 379 353 352
3 380 353 379
3 380 354 353
3 381 354 380
3 382 354 381
3 382 355 354
3 383 356 355
3 383 355 382
3 384 357 356
3 384 356 383
3 385 358 357
3 385 357 384
3 386 359 358
3 386 358 385
3 387 360 359
3 387 359 386
3 388 361 360
3 388 362 361
3 388 360 387
3 389 362 388
3 390 363 362
3 390 362 389
3 391 364 363
3 391 363 390
3 392 365 364
3 392 366 365
3 392 364 391
3 367 366 392
3 401 402 403
3 401 403 409
3 400 409 408
3 400 401 409
3 399 408 407
3 399 400 408
3 398 407 406
3 398 399 407
3 397 406 405
3 397 398 406
3 396 397 405
3 395 405 404
3 395 396 405
3 394 404 393
3 394 395 404
3 418 419 425
3 417 425 424
3 417 418 425
3 416 417 424
3 415 424 423
3 415 416 424
3 414 423 422
3 414 415 423
3 413 422 421
3 413 414 422
3 412 421 420
3 412 413 421
3 411 420 410
3 411 412 420
3 434 435 442
3 433 442 441
3 433 434 442
3 432 441 440
3 432 433 441
3 431 440 439
3 431 432 440
3 430 438 437
3 430 439 438
3 430 431 439
3 429 437 436
3 429 430 437
3 428 436 426
3 428 429 436
3 427 428 426
3 446 445 443
3 444 446 443
3 459 458 457
3 460 457 456
3 460 459 457
3 452 450 451
3 454 452 453
3 455 452 454
3 447 449 450
3 447 450 452
3 447 452 455
3 461 460 456
3 462 456 449
3 462 461 456
3 462 449 447
3 448 462 447
3 464 448 465
3 463 448 464
3 462 448 463
3 473 474 475
3 473 481 480
3 473 475 481
3 472 480 479
3 472 473 480
3 471 472 479
3 470 478 477
3 470 479 478
3 470 471 479
3 469 470 477
3 468 477 476
3 468 469 477
3 467 476 466
3 467 468 476
3 492 489 488
3 492 491 489
3 493 488 487
3 493 492 488
3 494 487 486
3 494 493 487
3 495 486 485
3 495 494 486
3 496 485 484
3 496 495 485
3 497 484 483
3 497 496 484
3 490 483 482
3 490 497 483
3 504 505 506
3 504 506 513
3 503 513 512
3 503 504 513
3 502 512 511
3 502 503 512
3 501 511 510
3 501 502 511
3 500 510 509
3 500 501 510
3 499 509 508
3 499 500 509
3 498 508 507
3 498 499 508
3 526 516 517
3 518 526 517
3 527 526 518
3 519 527 518
3 533 531 530
3 533 532 531
3 538 520 521
3 538 521 522
3 539 519 520
3 539 520 538
3 539 538 522
3 539 527 519
3 540 528 527
3 540 527 539
3 541 529 528
3 541 528 540
3 542 530 529
3 542 533 530
3 542 529 541
3 543 534 533
3 543 542 534
3 543 533 542
3 544 535 534
3 544 541 540
3 544 540 539
3 544 542 541
3 544 534 542
3 544 539 522
3 545 535 544
3 546 536 535
3 546 535 545
3 547 536 546
3 548 537 536
3 548 536 547
3 549 515 514
3 549 514 537
3 549 537 548
3 550 522 523
3 550 544 522
3 550 545 544
3 551 550 523
3 551 546 545
3 551 545 550
3 552 523 524
3 552 551 523
3 552 547 546
3 552 546 551
3 553 547 552
3 554 547 553
3 554 548 547
3 555 549 548
3 555 548 554
3 556 515 549
3 556 549 555
3 557 552 524
3 557 553 552
3 558 553 557
3 558 554 553
3 558 557 524
3 559 558 524
3 559 554 558
3 559 555 554
3 560 556 555
3 560 555 559
3 561 559 524
3 561 524 525
3 561 525 515
3 561 556 560
3 561 560 559
3 561 515 556
3 564 562 563
3 564 565 562
3 568 576 582
3 569 582 581
3 569 568 582
3 570 581 580
3 570 569 581
3 571 580 579
3 571 570 580
3 572 579 578
3 572 571 579
3 573 578 577
3 573 572 578
3 574 573 577
3 575 577 566
3 575 574 577
3 567 575 566
3 584 585 586
3 584 586 583
3 603 594 593
3 602 608 601
3 609 589 588
3 610 588 587
3 610 609 588
3 611 587 595
3 611 610 587
3 612 590 589
3 612 589 609
3 612 609 610
3 613 595 596
3 613 611 595
3 614 610 611
3 614 612 610
3 615 591 590
3 615 592 591
3 615 590 612
3 616 596 597
3 616 613 596
3 617 614 611
3 617 611 613
3 618 612 614
3 618 615 612
3 619 597 598
3 619 613 616
3 619 616 597
3 619 617 613
3 620 614 617
3 620 618 614
3 621 593 592
3 621 604 603
3 621 592 615
3 621 615 618
3 621 603 593
3 622 617 619
3 622 620 617
3 623 605 604
3 623 606 605
3 623 604 621
3 623 618 620
3 623 621 618
3 624 598 599
3 624 599 600
3 624 619 598
3 624 622 619
3 625 607 606
3 625 606 623
3 625 620 622
3 625 623 620
3 626 600 601
3 626 608 607
3 626 607 625
3 626 601 608
3 626 624 600
3 626 622 624
3 626 625 622
3 676 643 644
3 675 644 645
3 675 676 644
3 677 642 643
3 677 643 676
3 674 645 646
3 674 675 645
3 678 641 642
3 678 642 677
3 673 646 647
3 673 674 646
3 653 640 641
3 653 641 678
3 672 673 647
3 648 672 647
3 654 639 640
3 654 640 653
3 671 672 648
3 655 638 639
3 655 639 654
3 649 671 648
3 670 671 649
3 656 637 638
3 656 638 655
3 650 669 670
3 650 670 649
3 657 637 656
3 636 637 657
3 651 669 650
3 651 668 669
3 635 636 657
3 635 657 658
3 652 668 651
3 652 667 668
3 634 635 658
3 634 658 659
3 634 659 660
3 627 667 652
3 627 666 667
3 633 634 660
3 628 665 666
3 628 666 627
3 632 633 660
3 632 660 661
3 632 661 662
3 629 665 628
3 629 664 665
3 631 632 662
3 630 664 629
3 630 662 663
3 630 663 664
3 630 631 662
3 682 680 679
3 682 681 680
3 685 684 683
3 686 687 688
3 686 688 689
3 686 689 690
3 686 690 691
3 686 691 692
3 686 692 693
3 686 693 694
3 686 694 685
3 695 685 683
3 695 686 685
3 697 699 698
3 697 700 699
3 697 701 700
3 697 702 701
3 697 703 702
3 697 704 703
3 705 704 697
3 706 705 697
3 696 706 697
3 708 707 706
3 708 706 696
3 715 716 723
3 709 710 730
3 731 719 718
3 732 718 717
3 732 731 718
3 733 717 724
3 733 732 717
3 734 720 719
3 734 731 732
3 734 719 731
3 735 724 725
3 735 733 724
3 736 732 733
3 736 734 732
3 737 721 720
3 737 722 721
3 737 720 734
3 738 725 726
3 738 735 725
3 739 736 733
3 739 733 735
3 740 734 736
3 740 737 734
3 741 726 727
3 741 739 735
3 741 738 726
3 741 735 738
3 742 736 739
3 742 740 736
3 743 714 715
3 743 723 722
3 743 722 737
3 743 737 740
3 743 715 723
3 744 739 741
3 744 742 739
3 745 713 714
3 745 714 743
3 745 740 742
3 745 743 740
3 746 727 728
3 746 728 729
3 746 741 727
3 746 744 741
3 747 711 712
3 747 712 713
3 747 713 745
3 747 742 744
3 747 745 742
3 748 710 711
3 748 729 730
3 748 730 710
3 748 711 747
3 748 746 729
3 748 744 746
3 748 747 744
3 756 757 758
3 756 758 764
3 755 764 763
3 755 756 764
3 754 763 762
3 754 755 763
3 753 762 761
3 753 754 762
3 752 761 760
3 752 753 761
3 751 759 749
3 751 760 759
3 751 752 760
3 750 751 749
3 790 791 792
3 790 818 817
3 790 792 818
3 789 790 817
3 788 816 815
3 788 817 816
3 788 789 817
3 787 788 815
3 786 815 814
3 786 787 815
3 785 814 813
3 785 786 814
3 784 813 812
3 784 785 813
3 783 812 811
3 783 784 812
3 782 811 810
3 782 783 811
3 781 810 809
3 781 782 810
3 780 781 809
3 780 809 808
3 779 780 808
3 779 808 807
3 778 779 807
3 778 806 805
3 778 807 806
3 777 778 805
3 776 777 805
3 776 805 804
3 775 776 804
3 775 804 803
3 774 775 803
3 774 803 802
3 773 774 802
3 773 802 801
3 772 801 800
3 772 773 801
3 771 800 799
3 771 772 800
3 770 798 797
3 770 799 798
3 770 771 799
3 769 770 797
3 768 796 795
3 768 797 796
3 768 769 797
3 767 768 795
3 766 795 794
3 766 767 795
3 765 794 793
3 765 766 794
3 831 820 819
3 831 819 830
3 832 821 820
3 832 820 831
3 833 822 821
3 833 821 832
3 834 823 822
3 834 822 833
3 835 824 823
3 835 823 834
3 836 825 824
3 836 824 835
3 837 826 825
3 837 825 836
3 838 827 826
3 838 826 837
3 829 828 827
3 829 827 838
3 841 839 840
3 862 864 863
3 858 860 859
3 846 845 844
3 847 843 842
3 847 844 843
3 847 866 865
3 847 867 866
3 847 842 867
3 847 846 844
3 856 858 857
3 849 848 847
3 849 865 864
3 849 847 865
3 854 856 855
3 850 849 864
3 850 864 862
3 852 851 850
3 852 854 853
3 852 861 860
3 852 862 861
3 852 860 858
3 852 858 856
3 852 856 854
3 852 850 862
