ply
format ascii 1.0
comment generated by blendit.inference.finetune_visualize
element vertex 825
property float x
property float y
property float z
property uchar red
property uchar green
property uchar blue
element face 780
property list uchar int vertex_indices
end_header
0 59.6690071 83.1091614 218 222 230
-5.55111512e-17 59.6690071 93.543839 218 222 230
-5.55111512e-17 0 93.543839 218 222 230
0 0 0 218 222 230
0 59.6690071 0 218 222 230
0 59.6690071 64.0543374 218 222 230
-5.55111512e-17 41.5235599 64.0543374 218 222 230
-5.55111512e-17 41.5235599 82.167165 218 222 230
-5.56909711e-17 41.5286757 82.2100575 218 222 230
-5.49181552e-17 41.5428056 82.2509097 218 222 230
-5.4123291e-17 41.5637922 82.2887525 218 222 230
-5.26940932e-17 41.5991802 82.3342959 218 222 230
-4.97456258e-17 41.6623859 82.3933581 218 222 230
-4.38107444e-17 41.7702398 82.4656021 218 222 230
-3.25130966e-17 41.9472783 82.5464601 218 222 230
-1.82776479e-17 42.158035 82.6061301 218 222 230
-8.38151476e-18 42.310987 82.6299527 218 222 230
0 42.4655563 82.6381632 218 222 230
0 59.1980089 82.6381632 218 222 230
0 59.6571981 83.0043545 218 222 230
0 59.6223636 82.904803 218 222 230
0 59.5662501 82.8154989 218 222 230
0 59.4916714 82.7409202 218 222 230
0 59.4023673 82.6848067 218 222 230
0 59.3028158 82.6499721 218 222 230
0 15.2158964 13.7978594 218 222 230
0 17.9346141 14.522532 218 222 230
0 18.0389267 14.5381153 218 222 230
0 18.1440915 14.5300961 218 222 230
0 18.2448352 14.4988765 218 222 230
0 18.336106 14.4460222 218 222 230
0 18.4133273 14.3741833 218 222 230
0 18.4726269 14.2869623 218 222 230
0 18.5110311 14.1887326 218 222 230
0 18.7835272 13.1664228 218 222 230
0 18.4497279 12.5900057 218 222 230
0 18.5479575 12.62841 218 222 230
0 18.6351786 12.6877095 218 222 230
0 18.7070174 12.7649308 218 222 230
0 18.7598718 12.8562017 218 222 230
0 18.7910913 12.9569454 218 222 230
0 18.7991105 13.0621102 218 222 230
0 15.275902 11.7440243 218 222 230
0 14.882097 13.2214424 218 222 230
0 15.1176668 13.7594551 218 222 230
0 15.0304457 13.7001556 218 222 230
0 14.9586068 13.6229343 218 222 230
0 14.9057525 13.5316634 218 222 230
0 14.874533 13.4309198 218 222 230
0 14.8665138 13.3257549 218 222 230
0 32.4287158 91.3223174 218 222 230
0 32.3620566 91.2689424 218 222 230
0 32.2637253 91.2083496 218 222 230
0 32.1536037 91.1735101 218 222 230
0 32.0383141 91.1665192 218 222 230
0 31.9247897 91.1877973 218 222 230
0 31.8198573 91.2360647 218 222 230
0 31.7298272 91.3084188 218 222 230
0 31.6601134 91.4005086 218 222 230
0 31.6149082 91.5067962 218 222 230
0 31.5969301 91.6208897 218 222 230
0 31.5687325 92.4656844 218 222 230
0 32.329808 92.1184927 218 222 230
0 32.503759 91.3978159 218 222 230
0 32.5599315 91.488238 218 222 230
0 32.5943642 91.5889648 218 222 230
0 32.6052982 91.6948513 218 222 230
0 32.592175 91.8004889 218 222 230
0 32.555665 91.9004815 218 222 230
0 32.4976329 91.9897216 218 222 230
0 32.4210432 92.0636507 218 222 230
0 51.2679476 13.753984 218 222 230
-5.55111512e-17 51.6530181 14.1380496 218 222 230
0 39.3632668 1.88036863 218 222 230
-5.55111512e-17 38.9781962 1.49630296 218 222 230
-5.55111512e-17 22.7430033 5.86925132 218 222 230
-5.55111512e-17 18.2724158 22.6413287 218 222 230
-5.55111512e-17 30.5621672 34.8990097 218 222 230
-5.55111512e-17 47.322506 30.3846134 218 222 230
0.470998194 59.6690071 94.0148371 218 222 230
29.5512369 59.6690071 94.0148371 218 222 230
29.5512369 59.6690071 0 218 222 230
0 59.6690071 0 218 222 230
0 59.6690071 64.0543374 218 222 230
24.633246 59.6690071 64.0543374 218 222 230
24.675858 59.6690071 64.0593981 218 222 230
24.7163742 59.6690071 64.0733123 218 222 230
24.7539806 59.6690071 64.0940077 218 222 230
24.7993237 59.6690071 64.1290064 218 222 230
24.8581188 59.6690071 64.19153 218 222 230
24.930159 59.6690071 64.2983283 218 222 230
25.010955 59.6690071 64.4737332 218 222 230
25.070932 59.6690071 64.6826578 218 222 230
25.0956895 59.6690071 64.8386732 218 222 230
25.1042442 59.6690071 64.9963337 218 222 230
25.1042442 59.6690071 82.6381632 218 222 230
25.1042442 59.6690071 83.1091614 218 222 230
0 59.6690071 83.1091614 218 222 230
-5.55111512e-17 59.6690071 93.543839 218 222 230
0.0118089081 59.6690071 93.6486459 218 222 230
0.0466434843 59.6690071 93.7481974 218 222 230
0.102756978 59.6690071 93.8375015 218 222 230
0.177335623 59.6690071 93.9120802 218 222 230
0.266639736 59.6690071 93.9681937 218 222 230
0.366191236 59.6690071 94.0030282 218 222 230
0 59.6690071 83.1091614 218 222 230
25.1042442 59.6690071 83.1091614 218 222 230
25.1042442 59.6571981 83.0043545 218 222 230
25.1042442 59.6223636 82.904803 218 222 230
25.1042442 59.5662501 82.8154989 218 222 230
25.1042442 59.4916714 82.7409202 218 222 230
25.1042442 59.4023673 82.6848067 218 222 230
25.1042442 59.3028158 82.6499721 218 222 230
25.1042442 59.1980089 82.6381632 218 222 230
0 59.1980089 82.6381632 218 222 230
0 59.6571981 83.0043545 218 222 230
0 59.6223636 82.904803 218 222 230
0 59.5662501 82.8154989 218 222 230
0 59.4916714 82.7409202 218 222 230
0 59.4023673 82.6848067 218 222 230
0 59.3028158 82.6499721 218 222 230
-5.55111512e-17 0 93.543839 218 222 230
0.0118089081 0 93.6486459 218 222 230
0.0466434843 0 93.7481974 218 222 230
0.102756978 0 93.8375015 218 222 230
0.177335623 0 93.9120802 218 222 230
0.266639736 0 93.9681937 218 222 230
0.366191236 0 94.0030282 218 222 230
0.470998194 0 94.0148371 218 222 230
0.470998194 59.6690071 94.0148371 218 222 230
-5.55111512e-17 59.6690071 93.543839 218 222 230
0.0118089081 59.6690071 93.6486459 218 222 230
0.0466434843 59.6690071 93.7481974 218 222 230
0.102756978 59.6690071 93.8375015 218 222 230
0.177335623 59.6690071 93.9120802 218 222 230
0.266639736 59.6690071 93.9681937 218 222 230
0.366191236 59.6690071 94.0030282 218 222 230
0 59.1980089 82.6381632 218 222 230
0 42.4655563 82.6381632 218 222 230
25.1042442 42.4655563 82.6381632 218 222 230
25.1042442 59.1980089 82.6381632 218 222 230
0 0 0 218 222 230
29.5512369 -5.55111512e-17 0 218 222 230
-5.55111512e-17 0 93.543839 218 222 230
0.0118089081 0 93.6486459 218 222 230
0.0466434843 0 93.7481974 218 222 230
0.102756978 0 93.8375015 218 222 230
0.177335623 0 93.9120802 218 222 230
0.266639736 0 93.9681937 218 222 230
0.366191236 0 94.0030282 218 222 230
0.470998194 0 94.0148371 218 222 230
29.5512369 -5.55111512e-17 94.0148371 218 222 230
0 42.4655563 82.6381632 255 79 163
0 42.4655563 82.6381632 255 79 163
-5.55111512e-17 41.5235599 82.167165 255 79 163
-5.56909711e-17 41.5286757 82.2100575 255 79 163
-5.49181552e-17 41.5428056 82.2509097 255 79 163
-5.4123291e-17 41.5637922 82.2887525 255 79 163
-5.26940932e-17 41.5991802 82.3342959 255 79 163
-4.97456258e-17 41.6623859 82.3933581 255 79 163
-4.38107444e-17 41.7702398 82.4656021 255 79 163
-3.25130966e-17 41.9472783 82.5464601 255 79 163
-1.82776479e-17 42.158035 82.6061301 255 79 163
-8.38151476e-18 42.310987 82.6299527 255 79 163
0.0130131736 41.6335116 82.167165 255 79 163
0.0513359489 41.7373888 82.167165 255 79 163
0.112848629 41.829449 82.167165 255 79 163
0.194151983 41.904605 82.167165 255 79 163
0.290755039 41.9587055 82.167165 255 79 163
0.379111595 41.9855085 82.167165 255 79 163
0.470998194 41.9945581 82.167165 255 79 163
0.392498495 42.0106069 82.2890683 255 79 163
0.313998796 42.0576599 82.4026641 255 79 163
0.235499097 42.1325102 82.5002111 255 79 163
0.156999398 42.2300572 82.5750614 255 79 163
0.078499699 42.3436533 82.6221144 255 79 163
0.0157552001 41.6810072 82.2912882 255 79 163
0.058380766 41.7842097 82.2845153 255 79 163
0.0145531607 41.7614613 82.3895768 255 79 163
0.12312637 41.8720519 82.2777923 255 79 163
0.0519792578 41.8474743 82.3806151 255 79 163
0.206679229 41.9398408 82.2712244 255 79 163
0.107017419 41.9204307 82.371471 255 79 163
0.305180349 41.9846253 82.2649171 255 79 163
0.177531907 41.9765212 82.3626189 255 79 163
0.0102614157 41.9716875 82.5285662 255 79 163
0.261412861 42.0136668 82.3545334 255 79 163
0.0356867593 42.0240852 82.5226331 255 79 163
0.0721345624 42.0685655 82.5160829 255 79 163
0.118556355 42.1022372 82.5097586 255 79 163
0.00485105356 42.2120914 82.6101731 255 79 163
0.174184416 42.1234901 82.5045035 255 79 163
0.0173264193 42.2367897 82.6086255 255 79 163
0.0356724731 42.257961 82.6067073 255 79 163
0.0591773023 42.2737269 82.6048336 255 79 163
0.0871376203 42.2827858 82.6034197 255 79 163
0.00779507127 42.2783294 82.6208317 255 79 163
0.00365037638 42.2685659 82.6212458 255 79 163
0.00120134743 42.2156309 82.6141275 255 79 163
0.000810899985 42.2883644 82.6260205 255 79 163
0.0017752329 42.2927252 82.625893 255 79 163
0.000420253396 42.301355 82.6280286 255 79 163
0 59.6690071 0 218 222 230
29.5512369 59.6690071 0 218 222 230
0 0 0 218 222 230
29.5512369 -5.55111512e-17 0 218 222 230
-5.55111512e-17 41.5235599 64.0543374 255 79 163
-5.55111512e-17 41.5235599 82.167165 255 79 163
0.0130131736 41.6335116 82.167165 255 79 163
0.0513359489 41.7373888 82.167165 255 79 163
0.112848629 41.829449 82.167165 255 79 163
0.194151983 41.904605 82.167165 255 79 163
0.290755039 41.9587055 82.167165 255 79 163
0.379111595 41.9855085 82.167165 255 79 163
0.470998194 41.9945581 82.167165 255 79 163
0.470998194 41.9945581 64.5253355 255 79 163
0.0160488743 41.6454632 64.1762407 255 79 163
0.0631017928 41.759059 64.2898364 255 79 163
0.137952177 41.8566059 64.3873834 255 79 163
0.224902314 41.9251519 64.4559293 255 79 163
0.305550763 41.9645434 64.4953209 255 79 163
0.383359738 41.9863328 64.5171103 255 79 163
0.426986395 41.9924973 64.5232747 255 79 163
0 59.6690071 64.0543374 255 79 163
-5.55111512e-17 41.5235599 64.0543374 255 79 163
0.0160488743 41.6454632 64.1762407 255 79 163
0.0631017928 41.759059 64.2898364 255 79 163
0.137952177 41.8566059 64.3873834 255 79 163
0.224902314 41.9251519 64.4559293 255 79 163
0.305550763 41.9645434 64.4953209 255 79 163
0.383359738 41.9863328 64.5171103 255 79 163
0.426986395 41.9924973 64.5232747 255 79 163
0.470998194 41.9945581 64.5253355 255 79 163
0.470998194 59.1980089 64.5253355 255 79 163
0.00693104208 59.662076 64.1348419 255 79 163
0.0275201788 59.6414869 64.212977 255 79 163
0.0611614454 59.6078456 64.2864432 255 79 163
0.106864736 59.5621423 64.3530782 255 79 163
0.163284944 59.5057221 64.4109209 255 79 163
0.228761549 59.4402455 64.4582689 255 79 163
0.326789294 59.3422178 64.5027156 255 79 163
0.398012122 59.2709949 64.5196462 255 79 163
0 15.2158964 13.7978594 218 222 230
0 17.9346141 14.522532 218 222 230
25.1306218 15.2158964 13.7978594 218 222 230
25.1306218 17.9346141 14.522532 218 222 230
0 15.2158964 13.7978594 218 222 230
0 15.1176668 13.7594551 218 222 230
0 15.0304457 13.7001556 218 222 230
0 14.9586068 13.6229343 218 222 230
0 14.9057525 13.5316634 218 222 230
0 14.874533 13.4309198 218 222 230
0 14.8665138 13.3257549 218 222 230
0 14.882097 13.2214424 218 222 230
25.1306218 14.882097 13.2214424 218 222 230
25.1306218 15.2158964 13.7978594 218 222 230
25.1306218 15.1176668 13.7594551 218 222 230
25.1306218 15.0304457 13.7001556 218 222 230
25.1306218 14.9586068 13.6229343 218 222 230
25.1306218 14.9057525 13.5316634 218 222 230
25.1306218 14.874533 13.4309198 218 222 230
25.1306218 14.8665138 13.3257549 218 222 230
0 17.9346141 14.522532 218 222 230
25.1306218 17.9346141 14.522532 218 222 230
25.1306218 18.0389267 14.5381153 218 222 230
25.1306218 18.1440915 14.5300961 218 222 230
25.1306218 18.2448352 14.4988765 218 222 230
25.1306218 18.336106 14.4460222 218 222 230
25.1306218 18.4133273 14.3741833 218 222 230
25.1306218 18.4726269 14.2869623 218 222 230
25.1306218 18.5110311 14.1887326 218 222 230
0 18.5110311 14.1887326 218 222 230
0 18.0389267 14.5381153 218 222 230
0 18.1440915 14.5300961 218 222 230
0 18.2448352 14.4988765 218 222 230
0 18.336106 14.4460222 218 222 230
0 18.4133273 14.3741833 218 222 230
0 18.4726269 14.2869623 218 222 230
0 15.275902 11.7440243 218 222 230
0 14.882097 13.2214424 218 222 230
25.1306218 15.275902 11.7440243 218 222 230
25.1306218 14.882097 13.2214424 218 222 230
0 18.5110311 14.1887326 218 222 230
0 18.7835272 13.1664228 218 222 230
25.1306218 18.5110311 14.1887326 218 222 230
25.1306218 18.7835272 13.1664228 218 222 230
0 18.4497279 12.5900057 218 222 230
0 15.275902 11.7440243 218 222 230
25.1306218 18.4497279 12.5900057 218 222 230
25.1306218 15.275902 11.7440243 218 222 230
0 18.4497279 12.5900057 218 222 230
0 18.5479575 12.62841 218 222 230
0 18.6351786 12.6877095 218 222 230
0 18.7070174 12.7649308 218 222 230
0 18.7598718 12.8562017 218 222 230
0 18.7910913 12.9569454 218 222 230
0 18.7991105 13.0621102 218 222 230
0 18.7835272 13.1664228 218 222 230
25.1306218 18.7835272 13.1664228 218 222 230
25.1306218 18.4497279 12.5900057 218 222 230
25.1306218 18.5479575 12.62841 218 222 230
25.1306218 18.6351786 12.6877095 218 222 230
25.1306218 18.7070174 12.7649308 218 222 230
25.1306218 18.7598718 12.8562017 218 222 230
25.1306218 18.7910913 12.9569454 218 222 230
25.1306218 18.7991105 13.0621102 218 222 230
0 32.4287158 91.3223174 218 222 230
0 32.3620566 91.2689424 218 222 230
30.0222351 32.4287158 91.3223174 218 222 230
30.0222351 32.3620566 91.2689424 218 222 230
0 32.4287158 91.3223174 218 222 230
0 32.503759 91.3978159 218 222 230
0 32.5599315 91.488238 218 222 230
0 32.5943642 91.5889648 218 222 230
0 32.6052982 91.6948513 218 222 230
0 32.592175 91.8004889 218 222 230
0 32.555665 91.9004815 218 222 230
0 32.4976329 91.9897216 218 222 230
0 32.4210432 92.0636507 218 222 230
0 32.329808 92.1184927 218 222 230
30.0222351 32.329808 92.1184927 218 222 230
30.0222351 32.4287158 91.3223174 218 222 230
30.0222351 32.503759 91.3978159 218 222 230
30.0222351 32.5599315 91.488238 218 222 230
30.0222351 32.5943642 91.5889648 218 222 230
30.0222351 32.6052982 91.6948513 218 222 230
30.0222351 32.592175 91.8004889 218 222 230
30.0222351 32.555665 91.9004815 218 222 230
30.0222351 32.4976329 91.9897216 218 222 230
30.0222351 32.4210432 92.0636507 218 222 230
0 32.3620566 91.2689424 218 222 230
30.0222351 32.3620566 91.2689424 218 222 230
30.0222351 32.2637253 91.2083496 218 222 230
30.0222351 32.1536037 91.1735101 218 222 230
30.0222351 32.0383141 91.1665192 218 222 230
30.0222351 31.9247897 91.1877973 218 222 230
30.0222351 31.8198573 91.2360647 218 222 230
30.0222351 31.7298272 91.3084188 218 222 230
30.0222351 31.6601134 91.4005086 218 222 230
30.0222351 31.6149082 91.5067962 218 222 230
30.0222351 31.5969301 91.6208897 218 222 230
0 31.5969301 91.6208897 218 222 230
0 32.2637253 91.2083496 218 222 230
0 32.1536037 91.1735101 218 222 230
0 32.0383141 91.1665192 218 222 230
0 31.9247897 91.1877973 218 222 230
0 31.8198573 91.2360647 218 222 230
0 31.7298272 91.3084188 218 222 230
0 31.6601134 91.4005086 218 222 230
0 31.6149082 91.5067962 218 222 230
0 31.5687325 92.4656844 218 222 230
0 32.329808 92.1184927 218 222 230
30.0222351 31.5687325 92.4656844 218 222 230
30.0222351 32.329808 92.1184927 218 222 230
0 31.5969301 91.6208897 218 222 230
0 31.5687325 92.4656844 218 222 230
30.0222351 31.5969301 91.6208897 218 222 230
30.0222351 31.5687325 92.4656844 218 222 230
0.470998194 51.2679476 13.753984 218 222 230
1.96136231 51.2679476 13.753984 218 222 230
1.96136231 39.3632668 1.88036863 218 222 230
0.470998194 39.3632668 1.88036863 218 222 230
-5.55111512e-17 38.9781962 1.49630296 218 222 230
0.0160488743 39.0778598 1.59570647 218 222 230
0.0631017928 39.1707315 1.6883358 218 222 230
0.137952177 39.2504822 1.7678784 218 222 230
0.224902314 39.3065228 1.82377277 218 222 230
0.314938647 39.341515 1.85867359 218 222 230
0.391842581 39.3577899 1.87490602 218 222 230
0 39.3632668 1.88036863 218 222 230
0 51.2679476 13.753984 218 222 230
-5.55111512e-17 51.6530181 14.1380496 218 222 230
0.0160488743 51.5533545 14.0386461 218 222 230
0.0631017928 51.4604829 13.9460168 218 222 230
0.137952177 51.3807321 13.8664742 218 222 230
0.224902314 51.3246915 13.8105798 218 222 230
0.314938647 51.2896994 13.775679 218 222 230
0.391842581 51.2734245 13.7594466 218 222 230
-5.55111512e-17 47.322506 30.3846134 255 79 163
-5.55111512e-17 51.6530181 14.1380496 255 79 163
0.0160488743 51.5533545 14.0386461 255 79 163
0.0631017928 51.4604829 13.9460168 255 79 163
0.137952177 51.3807321 13.8664742 255 79 163
0.224902314 51.3246915 13.8105798 255 79 163
0.314938647 51.2896994 13.775679 255 79 163
0.391842581 51.2734245 13.7594466 255 79 163
0.470998194 51.2679476 13.753984 255 79 163
0.470998194 46.9374355 30.0005477 255 79 163
0.0160488743 47.2228424 30.2852098 255 79 163
0.0631017928 47.1299707 30.1925805 255 79 163
0.137952177 47.05022 30.1130379 255 79 163
0.224902314 46.9941794 30.0571435 255 79 163
0.314938647 46.9591873 30.0222427 255 79 163
0.391842581 46.9429124 30.0060103 255 79 163
-5.55111512e-17 30.5621672 34.8990097 255 79 163
-5.55111512e-17 47.322506 30.3846134 255 79 163
0.0160488743 47.2228424 30.2852098 255 79 163
0.0631017928 47.1299707 30.1925805 255 79 163
0.137952177 47.05022 30.1130379 255 79 163
0.224902314 46.9941794 30.0571435 255 79 163
0.314938647 46.9591873 30.0222427 255 79 163
0.391842581 46.9429124 30.0060103 255 79 163
0.470998194 46.9374355 30.0005477 255 79 163
0.470998194 30.7022425 34.3734961 255 79 163
0.0160488743 30.5984213 34.7629968 255 79 163
0.0631017928 30.6322049 34.6362529 255 79 163
0.137952177 30.6612154 34.5274154 255 79 163
0.224902314 30.681601 34.4509357 255 79 163
0.314938647 30.69433 34.4031812 255 79 163
0.391842581 30.7002502 34.3809705 255 79 163
-5.55111512e-17 38.9781962 1.49630296 255 79 163
-5.55111512e-17 22.7430033 5.86925132 255 79 163
0.0160488743 22.8426669 5.96865483 255 79 163
0.0631017928 22.9355385 6.06128415 255 79 163
0.137952177 23.0152893 6.14082675 255 79 163
0.224902314 23.0713299 6.19672113 255 79 163
0.314938647 23.106322 6.23162194 255 79 163
0.391842581 23.1225969 6.24785437 255 79 163
0.470998194 23.1280738 6.25331698 255 79 163
0.470998194 39.3632668 1.88036863 255 79 163
0.0160488743 39.0778598 1.59570647 255 79 163
0.0631017928 39.1707315 1.6883358 255 79 163
0.137952177 39.2504822 1.7678784 255 79 163
0.224902314 39.3065228 1.82377277 255 79 163
0.314938647 39.341515 1.85867359 255 79 163
0.391842581 39.3577899 1.87490602 255 79 163
-5.55111512e-17 18.2724158 22.6413287 255 79 163
-5.55111512e-17 30.5621672 34.8990097 255 79 163
0.0160488743 30.5984213 34.7629968 255 79 163
0.0631017928 30.6322049 34.6362529 255 79 163
0.137952177 30.6612154 34.5274154 255 79 163
0.224902314 30.681601 34.4509357 255 79 163
0.314938647 30.69433 34.4031812 255 79 163
0.391842581 30.7002502 34.3809705 255 79 163
0.470998194 30.7022425 34.3734961 255 79 163
0.470998194 18.7975617 22.4998807 255 79 163
0.0160488743 18.4083336 22.6047193 255 79 163
0.0631017928 18.5349888 22.5706047 255 79 163
0.137952177 18.64375 22.5413099 255 79 163
0.224902314 18.7201763 22.5207244 255 79 163
0.314938647 18.7678973 22.5078708 255 79 163
0.391842581 18.7900925 22.5018925 255 79 163
-5.55111512e-17 22.7430033 5.86925132 255 79 163
-5.55111512e-17 18.2724158 22.6413287 255 79 163
0.0160488743 18.4083336 22.6047193 255 79 163
0.0631017928 18.5349888 22.5706047 255 79 163
0.137952177 18.64375 22.5413099 255 79 163
0.224902314 18.7201763 22.5207244 255 79 163
0.314938647 18.7678973 22.5078708 255 79 163
0.391842581 18.7900925 22.5018925 255 79 163
0.470998194 18.7975617 22.4998807 255 79 163
0.470998194 23.1280738 6.25331698 255 79 163
0.0160488743 22.8426669 5.96865483 255 79 163
0.0631017928 22.9355385 6.06128415 255 79 163
0.137952177 23.0152893 6.14082675 255 79 163
0.224902314 23.0713299 6.19672113 255 79 163
0.314938647 23.106322 6.23162194 255 79 163
0.391842581 23.1225969 6.24785437 255 79 163
0.470998194 59.6690071 94.0148371 218 222 230
29.5512369 59.6690071 94.0148371 218 222 230
0.470998194 0 94.0148371 218 222 230
29.5512369 -5.55111512e-17 94.0148371 218 222 230
29.6560438 0.0118089081 94.0148371 218 222 230
29.7555953 0.0466434843 94.0148371 218 222 230
29.8448994 0.102756978 94.0148371 218 222 230
29.9194781 0.177335623 94.0148371 218 222 230
29.9755916 0.266639736 94.0148371 218 222 230
30.0104262 0.366191236 94.0148371 218 222 230
30.0222351 0.470998194 94.0148371 218 222 230
30.0222351 59.1980089 94.0148371 218 222 230
29.6560438 59.6571981 94.0148371 218 222 230
29.7555953 59.6223636 94.0148371 218 222 230
29.8448994 59.5662501 94.0148371 218 222 230
29.9194781 59.4916714 94.0148371 218 222 230
29.9755916 59.4023673 94.0148371 218 222 230
30.0104262 59.3028158 94.0148371 218 222 230
29.5512369 59.6690071 0 255 79 163
29.5512369 59.6690071 94.0148371 255 79 163
29.6560438 59.6571981 94.0148371 255 79 163
29.7555953 59.6223636 94.0148371 255 79 163
29.8448994 59.5662501 94.0148371 255 79 163
29.9194781 59.4916714 94.0148371 255 79 163
29.9755916 59.4023673 94.0148371 255 79 163
30.0104262 59.3028158 94.0148371 255 79 163
30.0222351 59.1980089 94.0148371 255 79 163
30.0222351 59.1980089 0.470998194 255 79 163
29.6317414 59.662076 0.00693104208 255 79 163
29.7098766 59.6414869 0.0275201788 255 79 163
29.7833428 59.6078456 0.0611614454 255 79 163
29.8499778 59.5621423 0.106864736 255 79 163
29.9078205 59.5057221 0.163284944 255 79 163
29.9551684 59.4402455 0.228761549 255 79 163
29.9996152 59.3422178 0.326789294 255 79 163
30.0165457 59.2709949 0.398012122 255 79 163
25.1042442 59.1980089 82.6381632 218 222 230
25.1042442 42.4655563 82.6381632 218 222 230
25.1042442 42.3607493 82.6263543 218 222 230
25.1042442 42.2611978 82.5915198 218 222 230
25.1042442 42.1718937 82.5354063 218 222 230
25.1042442 42.0973151 82.4608276 218 222 230
25.1042442 42.0412016 82.3715235 218 222 230
25.1042442 42.006367 82.271972 218 222 230
25.1042442 41.9945581 82.167165 218 222 230
25.1042442 41.9945581 64.9963337 218 222 230
25.1042442 59.6690071 64.9963337 218 222 230
25.1042442 59.6690071 82.6381632 218 222 230
25.1042442 59.6690071 83.1091614 218 222 230
25.1042442 59.6571981 83.0043545 218 222 230
25.1042442 59.6223636 82.904803 218 222 230
25.1042442 59.5662501 82.8154989 218 222 230
25.1042442 59.4916714 82.7409202 218 222 230
25.1042442 59.4023673 82.6848067 218 222 230
25.1042442 59.3028158 82.6499721 218 222 230
25.1042442 56.1055493 75.5006359 218 222 230
25.1042442 53.6935923 77.1947877 218 222 230
25.1042442 55.8486971 78.6431678 218 222 230
0 59.6690071 64.0543374 255 79 163
0.00693104208 59.662076 64.1348419 255 79 163
0.0275201788 59.6414869 64.212977 255 79 163
0.0611614454 59.6078456 64.2864432 255 79 163
0.106864736 59.5621423 64.3530782 255 79 163
0.163284944 59.5057221 64.4109209 255 79 163
0.228761549 59.4402455 64.4582689 255 79 163
0.326789294 59.3422178 64.5027156 255 79 163
0.398012122 59.2709949 64.5196462 255 79 163
0.470998194 59.1980089 64.5253355 255 79 163
24.633246 59.1980089 64.5253355 255 79 163
24.633246 59.6690071 64.0543374 255 79 163
24.633246 59.6559939 64.1642891 255 79 163
24.633246 59.6176711 64.2681663 255 79 163
24.633246 59.5561584 64.3602265 255 79 163
24.633246 59.4748551 64.4353825 255 79 163
24.633246 59.378252 64.489483 255 79 163
24.633246 59.2898955 64.516286 255 79 163
25.1042442 59.6690071 64.9963337 255 79 163
25.1042442 59.6690071 64.9963337 255 79 163
24.633246 59.6690071 64.0543374 255 79 163
24.675858 59.6690071 64.0593981 255 79 163
24.7163742 59.6690071 64.0733123 255 79 163
24.7539806 59.6690071 64.0940077 255 79 163
24.7993237 59.6690071 64.1290064 255 79 163
24.8581188 59.6690071 64.19153 255 79 163
24.930159 59.6690071 64.2983283 255 79 163
25.010955 59.6690071 64.4737332 255 79 163
25.070932 59.6690071 64.6826578 255 79 163
25.0956895 59.6690071 64.8386732 255 79 163
24.633246 59.6559939 64.1642891 255 79 163
24.633246 59.6176711 64.2681663 255 79 163
24.633246 59.5561584 64.3602265 255 79 163
24.633246 59.4748551 64.4353825 255 79 163
24.633246 59.378252 64.489483 255 79 163
24.633246 59.2898955 64.516286 255 79 163
24.633246 59.1980089 64.5253355 255 79 163
24.7551493 59.2765086 64.5413844 255 79 163
24.8687451 59.3550083 64.5884373 255 79 163
24.966292 59.433508 64.6632877 255 79 163
25.0411461 59.5120077 64.7608435 255 79 163
25.0881916 59.5905074 64.8744216 255 79 163
24.8556557 59.6544809 64.2922205 255 79 163
24.85122 59.6382015 64.3365286 255 79 163
24.8466946 59.6170663 64.3782308 255 79 163
24.8421192 59.5915664 64.4166424 255 79 163
24.8375509 59.5619995 64.4512196 255 79 163
24.8286993 59.4914523 64.5073382 255 79 163
24.8206141 59.4075732 64.5444718 255 79 163
24.988467 59.5988224 64.6087323 255 79 163
25.0239001 59.6109381 64.6691041 255 79 163
25.0571983 59.6250421 64.7433491 255 79 163
25.0790497 59.637191 64.810342 255 79 163
25.0922784 59.6472867 64.8680091 255 79 163
24.9608125 59.6448264 64.4747467 255 79 163
25.0005902 59.6484396 64.546825 255 79 163
25.0175824 59.6502681 64.5831885 255 79 163
25.0511266 59.6545948 64.6700987 255 79 163
25.064878 59.656764 64.7147678 255 79 163
25.0751345 59.65861 64.7539068 255 79 163
25.0889496 59.6615805 64.8206257 255 79 163
25.09423 59.6629773 64.8543397 255 79 163
25.0680178 59.6657093 64.6988008 255 79 163
25.0730054 59.6659723 64.7200315 255 79 163
25.0805732 59.6664022 64.7559187 255 79 163
25.0926219 59.6671923 64.8283383 255 79 163
25.0949846 59.6673724 64.8465534 255 79 163
0.470998194 41.9945581 82.167165 255 79 163
0.392498495 42.0106069 82.2890683 255 79 163
0.313998796 42.0576599 82.4026641 255 79 163
0.235499097 42.1325102 82.5002111 255 79 163
0.156999398 42.2300572 82.5750614 255 79 163
0.078499699 42.3436533 82.6221144 255 79 163
0 42.4655563 82.6381632 255 79 163
25.1042442 41.9945581 82.167165 255 79 163
25.1042442 42.4655563 82.6381632 255 79 163
25.1042442 42.3607493 82.6263543 255 79 163
25.1042442 42.2611978 82.5915198 255 79 163
25.1042442 42.1718937 82.5354063 255 79 163
25.1042442 42.0973151 82.4608276 255 79 163
25.1042442 42.0412016 82.3715235 255 79 163
25.1042442 42.006367 82.271972 255 79 163
29.5512369 -5.55111512e-17 0 255 79 163
29.6317414 0.00693104208 0.00693104208 255 79 163
29.7098766 0.0275201788 0.0275201788 255 79 163
29.7833428 0.0611614454 0.0611614454 255 79 163
29.8499778 0.106864736 0.106864736 255 79 163
29.9078205 0.163284944 0.163284944 255 79 163
29.9551684 0.228761549 0.228761549 255 79 163
29.9996152 0.326789294 0.326789294 255 79 163
30.0165457 0.398012122 0.398012122 255 79 163
30.0222351 0.470998194 0.470998194 255 79 163
30.0222351 0.470998194 94.0148371 255 79 163
29.5512369 -5.55111512e-17 94.0148371 255 79 163
29.6560438 0.0118089081 94.0148371 255 79 163
29.7555953 0.0466434843 94.0148371 255 79 163
29.8448994 0.102756978 94.0148371 255 79 163
29.9194781 0.177335623 94.0148371 255 79 163
29.9755916 0.266639736 94.0148371 255 79 163
30.0104262 0.366191236 94.0148371 255 79 163
29.5512369 -5.55111512e-17 0 255 79 163
29.5512369 59.6690071 0 255 79 163
29.6317414 59.662076 0.00693104208 255 79 163
29.7098766 59.6414869 0.0275201788 255 79 163
29.7833428 59.6078456 0.0611614454 255 79 163
29.8499778 59.5621423 0.106864736 255 79 163
29.9078205 59.5057221 0.163284944 255 79 163
29.9551684 59.4402455 0.228761549 255 79 163
29.9996152 59.3422178 0.326789294 255 79 163
30.0165457 59.2709949 0.398012122 255 79 163
30.0222351 59.1980089 0.470998194 255 79 163
30.0222351 0.470998194 0.470998194 255 79 163
29.6317414 0.00693104208 0.00693104208 255 79 163
29.7098766 0.0275201788 0.0275201788 255 79 163
29.7833428 0.0611614454 0.0611614454 255 79 163
29.8499778 0.106864736 0.106864736 255 79 163
29.9078205 0.163284944 0.163284944 255 79 163
29.9551684 0.228761549 0.228761549 255 79 163
29.9996152 0.326789294 0.326789294 255 79 163
30.0165457 0.398012122 0.398012122 255 79 163
24.633246 41.9945581 64.5253355 218 222 230
0.470998194 41.9945581 64.5253355 218 222 230
0.470998194 41.9945581 82.167165 218 222 230
25.1042442 41.9945581 82.167165 218 222 230
25.1042442 41.9945581 64.9963337 218 222 230
24.7380529 41.9945581 64.5371445 218 222 230
24.8376044 41.9945581 64.571979 218 222 230
24.9269085 41.9945581 64.6280925 218 222 230
25.0014872 41.9945581 64.7026712 218 222 230
25.0576007 41.9945581 64.7919753 218 222 230
25.0924352 41.9945581 64.8915268 218 222 230
24.633246 41.9945581 64.5253355 218 222 230
0.470998194 41.9945581 64.5253355 218 222 230
0.470998194 59.1980089 64.5253355 218 222 230
24.633246 59.1980089 64.5253355 218 222 230
25.1306218 18.5110311 14.1887326 218 222 230
25.1306218 18.7835272 13.1664228 218 222 230
25.1306218 18.4497279 12.5900057 218 222 230
25.1306218 18.5479575 12.62841 218 222 230
25.1306218 18.6351786 12.6877095 218 222 230
25.1306218 18.7070174 12.7649308 218 222 230
25.1306218 18.7598718 12.8562017 218 222 230
25.1306218 18.7910913 12.9569454 218 222 230
25.1306218 18.7991105 13.0621102 218 222 230
25.1306218 15.275902 11.7440243 218 222 230
25.1306218 14.882097 13.2214424 218 222 230
25.1306218 15.2158964 13.7978594 218 222 230
25.1306218 15.1176668 13.7594551 218 222 230
25.1306218 15.0304457 13.7001556 218 222 230
25.1306218 14.9586068 13.6229343 218 222 230
25.1306218 14.9057525 13.5316634 218 222 230
25.1306218 14.874533 13.4309198 218 222 230
25.1306218 14.8665138 13.3257549 218 222 230
25.1306218 17.9346141 14.522532 218 222 230
25.1306218 18.0389267 14.5381153 218 222 230
25.1306218 18.1440915 14.5300961 218 222 230
25.1306218 18.2448352 14.4988765 218 222 230
25.1306218 18.336106 14.4460222 218 222 230
25.1306218 18.4133273 14.3741833 218 222 230
25.1306218 18.4726269 14.2869623 218 222 230
30.0222351 0.470998194 94.0148371 218 222 230
30.0222351 59.1980089 94.0148371 218 222 230
30.0222351 0.470998194 0.470998194 218 222 230
30.0222351 59.1980089 0.470998194 218 222 230
30.0222351 31.5687325 92.4656844 218 222 230
30.0222351 31.5969301 91.6208897 218 222 230
30.0222351 32.329808 92.1184927 218 222 230
30.0222351 32.4287158 91.3223174 218 222 230
30.0222351 32.503759 91.3978159 218 222 230
30.0222351 32.5599315 91.488238 218 222 230
30.0222351 32.5943642 91.5889648 218 222 230
30.0222351 32.6052982 91.6948513 218 222 230
30.0222351 32.592175 91.8004889 218 222 230
30.0222351 32.555665 91.9004815 218 222 230
30.0222351 32.4976329 91.9897216 218 222 230
30.0222351 32.4210432 92.0636507 218 222 230
30.0222351 32.3620566 91.2689424 218 222 230
30.0222351 32.2637253 91.2083496 218 222 230
30.0222351 32.1536037 91.1735101 218 222 230
30.0222351 32.0383141 91.1665192 218 222 230
30.0222351 31.9247897 91.1877973 218 222 230
30.0222351 31.8198573 91.2360647 218 222 230
30.0222351 31.7298272 91.3084188 218 222 230
30.0222351 31.6601134 91.4005086 218 222 230
30.0222351 31.6149082 91.5067962 218 222 230
0.470998194 46.9374355 30.0005477 218 222 230
2.4323605 46.9374355 30.0005477 218 222 230
2.4323605 51.1278722 14.2794977 218 222 230
1.96136231 51.2679476 13.753984 218 222 230
2.06049413 51.2648099 13.7657555 218 222 230
2.15518483 51.2555374 13.8005428 218 222 230
2.24119226 51.2405454 13.8567873 218 222 230
2.31466327 51.2205057 13.9319692 218 222 230
2.37230635 51.196316 14.0227205 218 222 230
2.41153909 51.16906 14.1249754 218 222 230
2.42712606 51.1486976 14.2013683 218 222 230
0.470998194 51.2679476 13.753984 218 222 230
1.96136231 51.2679476 13.753984 218 222 230
2.06049413 51.2648099 13.7657555 218 222 230
2.15518483 51.2555374 13.8005428 218 222 230
2.24119226 51.2405454 13.8567873 218 222 230
2.31466327 51.2205057 13.9319692 218 222 230
2.37230635 51.196316 14.0227205 218 222 230
2.41153909 51.16906 14.1249754 218 222 230
2.42712606 51.1486976 14.2013683 218 222 230
2.4323605 51.1278722 14.2794977 218 222 230
2.4323605 38.8381209 2.02181664 218 222 230
1.96136231 39.3632668 1.88036863 218 222 230
2.06049413 39.3515035 1.88353707 218 222 230
2.15518483 39.3167406 1.89290046 218 222 230
2.24119226 39.2605354 1.9080393 218 222 230
2.31466327 39.1854061 1.92827539 218 222 230
2.37230635 39.0947183 1.95270214 218 222 230
2.41153909 38.9925349 1.98022522 218 222 230
2.42712606 38.9161956 2.00078722 218 222 230
0.470998194 39.3632668 1.88036863 218 222 230
1.96136231 39.3632668 1.88036863 218 222 230
2.06049413 39.3515035 1.88353707 218 222 230
2.15518483 39.3167406 1.89290046 218 222 230
2.24119226 39.2605354 1.9080393 218 222 230
2.31466327 39.1854061 1.92827539 218 222 230
2.37230635 39.0947183 1.95270214 218 222 230
2.41153909 38.9925349 1.98022522 218 222 230
2.42712606 38.9161956 2.00078722 218 222 230
2.4323605 38.8381209 2.02181664 218 222 230
2.4323605 23.6532197 6.11186897 218 222 230
1.96136231 23.1280738 6.25331698 218 222 230
2.06049413 23.1398371 6.25014854 218 222 230
2.15518483 23.1746 6.24078515 218 222 230
2.24119226 23.2308051 6.2256463 218 222 230
2.31466327 23.3059345 6.20541022 218 222 230
2.37230635 23.3966222 6.18098347 218 222 230
2.41153909 23.4988056 6.15346039 218 222 230
2.42712606 23.575145 6.13289839 218 222 230
0.470998194 23.1280738 6.25331698 218 222 230
0.470998194 30.7022425 34.3734961 218 222 230
2.4323605 30.7022425 34.3734961 218 222 230
2.4323605 46.9374355 30.0005477 218 222 230
0.470998194 46.9374355 30.0005477 218 222 230
0.470998194 18.7975617 22.4998807 218 222 230
1.96136231 18.7975617 22.4998807 218 222 230
2.06049413 18.8061873 22.5084838 218 222 230
2.15518483 18.8316777 22.5339077 218 222 230
2.24119226 18.8728909 22.5750133 218 222 230
2.31466327 18.9279805 22.6299592 218 222 230
2.37230635 18.9944786 22.6962837 218 222 230
2.41153909 19.0694059 22.7710156 218 222 230
2.42712606 19.1253828 22.8268464 218 222 230
2.4323605 19.1826322 22.8839464 218 222 230
2.4323605 30.7022425 34.3734961 218 222 230
0.470998194 30.7022425 34.3734961 218 222 230
0.470998194 23.1280738 6.25331698 218 222 230
1.96136231 23.1280738 6.25331698 218 222 230
1.96136231 18.7975617 22.4998807 218 222 230
0.470998194 18.7975617 22.4998807 218 222 230
24.633246 59.1980089 64.5253355 255 79 163
24.7551493 59.2765086 64.5413844 255 79 163
24.8687451 59.3550083 64.5884373 255 79 163
24.966292 59.433508 64.6632877 255 79 163
25.0411461 59.5120077 64.7608435 255 79 163
25.0881916 59.5905074 64.8744216 255 79 163
25.1042442 59.6690071 64.9963337 255 79 163
25.1042442 41.9945581 64.9963337 255 79 163
24.633246 41.9945581 64.5253355 255 79 163
24.7380529 41.9945581 64.5371445 255 79 163
24.8376044 41.9945581 64.571979 255 79 163
24.9269085 41.9945581 64.6280925 255 79 163
25.0014872 41.9945581 64.7026712 255 79 163
25.0576007 41.9945581 64.7919753 255 79 163
25.0924352 41.9945581 64.8915268 255 79 163
25.1042442 56.1055493 75.5006359 218 222 230
28.1958472 56.1055493 75.5006359 218 222 230
28.1958472 53.6935923 77.1947877 218 222 230
25.1042442 53.6935923 77.1947877 218 222 230
25.1042442 55.8486971 78.6431678 218 222 230
28.1958472 55.8486971 78.6431678 218 222 230
28.1958472 56.1055493 75.5006359 218 222 230
25.1042442 56.1055493 75.5006359 218 222 230
25.1042442 53.6935923 77.1947877 218 222 230
28.1958472 53.6935923 77.1947877 218 222 230
28.1958472 55.8486971 78.6431678 218 222 230
25.1042442 55.8486971 78.6431678 218 222 230
2.4323605 19.1826322 22.8839464 218 222 230
2.4323605 30.7022425 34.3734961 218 222 230
2.4323605 46.9374355 30.0005477 218 222 230
2.4323605 51.1278722 14.2794977 218 222 230
2.4323605 38.8381209 2.02181664 218 222 230
2.4323605 23.6532197 6.11186897 218 222 230
1.96136231 23.1280738 6.25331698 255 79 163
2.06049413 23.1398371 6.25014854 255 79 163
2.15518483 23.1746 6.24078515 255 79 163
2.24119226 23.2308051 6.2256463 255 79 163
2.31466327 23.3059345 6.20541022 255 79 163
2.37230635 23.3966222 6.18098347 255 79 163
2.41153909 23.4988056 6.15346039 255 79 163
2.42712606 23.575145 6.13289839 255 79 163
2.4323605 23.6532197 6.11186897 255 79 163
2.4323605 19.1826322 22.8839464 255 79 163
1.96136231 18.7975617 22.4998807 255 79 163
2.06049413 18.8061873 22.5084838 255 79 163
2.15518483 18.8316777 22.5339077 255 79 163
2.24119226 18.8728909 22.5750133 255 79 163
2.31466327 18.9279805 22.6299592 255 79 163
2.37230635 18.9944786 22.6962837 255 79 163
2.41153909 19.0694059 22.7710156 255 79 163
2.42712606 19.1253828 22.8268464 255 79 163
28.1958472 53.6935923 77.1947877 218 222 230
28.1958472 55.8486971 78.6431678 218 222 230
28.1958472 56.1055493 75.5006359 218 222 230
3 71 72 4
3 73 71 4
3 74 73 4
3 38 75 37
3 36 37 75
3 39 75 38
3 35 36 75
3 40 75 39
3 41 75 40
3 34 75 41
3 42 35 75
3 3 42 75
3 3 43 42
3 3 47 48
3 3 48 49
3 3 49 43
3 3 75 74
3 76 26 25
3 76 27 26
3 76 28 27
3 76 29 28
3 76 30 29
3 76 31 30
3 76 32 31
3 76 33 32
3 76 47 3
3 76 25 44
3 76 44 45
3 76 45 46
3 76 46 47
3 5 72 78
3 5 4 72
3 6 78 77
3 6 5 78
3 20 21 22
3 24 22 23
3 24 20 22
3 18 19 20
3 18 20 24
3 0 19 18
3 1 0 18
3 17 1 18
3 50 11 10
3 63 12 11
3 63 13 12
3 63 11 50
3 51 50 10
3 64 14 13
3 64 13 63
3 52 9 8
3 52 10 9
3 52 51 10
3 65 14 64
3 65 15 14
3 53 8 7
3 53 52 8
3 66 16 15
3 66 17 16
3 66 15 65
3 54 53 7
3 67 1 17
3 67 17 66
3 55 7 6
3 55 54 7
3 68 1 67
3 56 55 6
3 69 1 68
3 57 56 6
3 70 1 69
3 62 1 70
3 61 1 62
3 2 57 6
3 2 76 3
3 2 6 77
3 2 58 57
3 2 59 58
3 2 60 59
3 2 61 60
3 2 77 76
3 1 61 2
3 3 74 4
3 75 34 76
3 34 33 76
3 84 81 82
3 84 82 83
3 85 81 84
3 86 81 85
3 87 81 86
3 88 81 87
3 89 81 88
3 90 81 89
3 100 98 99
3 102 100 101
3 102 98 100
3 79 97 98
3 79 102 103
3 79 103 104
3 79 98 102
3 96 97 79
3 80 94 95
3 80 95 96
3 80 96 79
3 80 81 94
3 94 81 93
3 93 81 92
3 92 81 91
3 91 81 90
3 112 113 114
3 112 114 120
3 111 120 119
3 111 112 120
3 110 119 118
3 110 111 119
3 109 117 116
3 109 118 117
3 109 110 118
3 108 109 116
3 107 116 115
3 107 108 116
3 106 115 105
3 106 107 115
3 131 121 122
3 131 130 121
3 132 122 123
3 132 131 122
3 133 123 124
3 133 124 125
3 133 132 123
3 134 133 125
3 135 125 126
3 135 134 125
3 136 126 127
3 136 135 126
3 129 127 128
3 129 136 127
3 140 138 137
3 140 139 138
3 143 141 142
3 145 144 143
3 147 146 145
3 147 145 143
3 150 148 147
3 150 149 148
3 150 147 143
3 151 143 142
3 151 150 143
3 164 154 155
3 156 164 155
3 176 156 157
3 176 157 158
3 176 165 164
3 176 164 156
3 177 166 165
3 177 165 176
3 178 158 159
3 178 159 160
3 178 176 158
3 179 167 166
3 179 166 177
3 180 176 178
3 180 177 176
3 180 178 160
3 181 168 167
3 181 167 179
3 182 177 180
3 182 179 177
3 183 169 168
3 183 170 169
3 183 171 170
3 183 168 181
3 184 181 179
3 184 179 182
3 185 160 161
3 186 172 171
3 186 181 184
3 186 183 181
3 186 184 172
3 186 171 183
3 187 180 160
3 187 160 185
3 188 180 187
3 188 182 180
3 189 184 182
3 189 172 184
3 189 182 188
3 190 161 162
3 190 185 161
3 191 173 172
3 191 174 173
3 191 172 189
3 191 189 174
3 192 187 185
3 192 185 190
3 193 188 187
3 193 187 192
3 194 152 175
3 194 174 189
3 194 189 188
3 194 188 193
3 195 175 174
3 195 174 194
3 195 194 175
3 196 194 193
3 196 153 152
3 196 190 197
3 196 152 194
3 196 192 190
3 196 193 192
3 198 197 190
3 198 162 163
3 198 190 162
3 199 197 198
3 199 198 163
3 200 197 199
3 200 196 197
3 200 153 196
3 201 199 163
3 201 163 153
3 201 153 200
3 201 200 199
3 203 204 202
3 203 205 204
3 214 215 222
3 213 221 220
3 213 222 221
3 213 214 222
3 212 220 219
3 212 213 220
3 211 219 218
3 211 212 219
3 210 218 217
3 210 211 218
3 209 217 216
3 209 210 217
3 208 216 206
3 208 209 216
3 207 208 206
3 231 232 233
3 231 233 241
3 230 241 240
3 230 231 241
3 229 240 239
3 229 230 240
3 228 239 238
3 228 229 239
3 227 238 237
3 227 228 238
3 226 236 235
3 226 237 236
3 226 227 237
3 225 235 234
3 225 226 235
3 224 234 223
3 224 225 234
3 243 244 242
3 243 245 244
3 256 247 246
3 256 246 255
3 257 248 247
3 257 249 248
3 257 247 256
3 258 249 257
3 259 250 249
3 259 249 258
3 260 251 250
3 260 252 251
3 260 250 259
3 261 252 260
3 254 253 252
3 254 252 261
3 269 271 270
3 269 277 271
3 268 276 277
3 268 277 269
3 267 275 276
3 267 276 268
3 266 274 275
3 266 275 267
3 265 273 274
3 265 274 266
3 264 262 272
3 264 272 273
3 264 273 265
3 263 262 264
3 279 280 278
3 279 281 280
3 283 284 282
3 283 285 284
3 286 289 288
3 287 289 286
3 299 291 290
3 300 291 299
3 301 292 291
3 301 293 292
3 301 291 300
3 302 293 301
3 303 294 293
3 303 293 302
3 304 295 294
3 304 294 303
3 305 296 295
3 305 295 304
3 298 297 296
3 298 296 305
3 307 308 306
3 307 309 308
3 321 311 310
3 322 311 321
3 323 312 311
3 323 313 312
3 323 311 322
3 324 313 323
3 325 314 313
3 325 315 314
3 325 313 324
3 326 315 325
3 327 316 315
3 327 315 326
3 328 317 316
3 328 316 327
3 329 318 317
3 329 317 328
3 320 319 318
3 320 318 329
3 339 341 340
3 339 348 349
3 339 349 341
3 338 347 348
3 338 348 339
3 337 347 338
3 336 346 347
3 336 347 337
3 335 344 345
3 335 345 346
3 335 346 336
3 334 344 335
3 333 343 344
3 333 344 334
3 332 342 343
3 332 343 333
3 331 330 342
3 331 342 332
3 351 352 350
3 351 353 352
3 355 356 354
3 355 357 356
3 370 372 371
3 370 373 372
3 370 374 373
3 370 375 374
3 370 376 375
3 370 377 376
3 370 358 377
3 360 359 358
3 361 360 358
3 369 366 367
3 369 367 368
3 369 368 361
3 369 358 370
3 369 361 358
3 365 366 369
3 364 365 369
3 363 364 369
3 362 363 369
3 385 386 387
3 385 387 393
3 384 393 392
3 384 385 393
3 383 392 391
3 383 384 392
3 382 391 390
3 382 383 391
3 381 390 389
3 381 382 390
3 380 389 388
3 380 381 389
3 379 388 378
3 379 380 388
3 401 402 403
3 401 403 409
3 400 409 408
3 400 401 409
3 399 408 407
3 399 400 408
3 398 407 406
3 398 399 407
3 397 406 405
3 397 398 406
3 396 405 404
3 396 397 405
3 395 404 394
3 395 396 404
3 418 419 425
3 417 425 424
3 417 418 425
3 416 424 423
3 416 417 424
3 415 423 422
3 415 416 423
3 414 422 421
3 414 415 422
3 413 421 420
3 413 414 421
3 412 420 410
3 412 413 420
3 411 412 410
3 433 434 435
3 433 441 440
3 433 435 441
3 432 440 439
3 432 433 440
3 431 439 438
3 431 432 439
3 430 438 437
3 430 431 438
3 429 437 436
3 429 430 437
3 428 429 436
3 427 436 426
3 427 428 436
3 449 450 451
3 449 451 457
3 448 456 455
3 448 457 456
3 448 449 457
3 447 455 454
3 447 448 455
3 446 454 453
3 446 447 454
3 445 453 452
3 445 446 453
3 444 445 452
3 443 452 442
3 443 444 452
3 464 461 462
3 464 462 463
3 465 461 464
3 467 465 466
3 468 460 461
3 468 461 465
3 468 465 467
3 458 460 468
3 469 459 458
3 469 458 468
3 471 470 459
3 471 459 469
3 472 474 473
3 472 475 474
3 472 469 475
3 472 471 469
3 484 485 493
3 483 493 492
3 483 484 493
3 482 492 491
3 482 483 492
3 481 491 490
3 481 482 491
3 480 489 488
3 480 490 489
3 480 481 490
3 479 488 487
3 479 480 488
3 478 487 486
3 478 479 487
3 477 486 476
3 477 478 486
3 500 499 498
3 502 501 500
3 495 497 496
3 495 498 497
3 495 500 498
3 495 502 500
3 514 502 495
3 503 502 514
3 505 507 506
3 505 508 507
3 505 509 508
3 505 510 509
3 505 511 510
3 505 512 511
3 505 494 512
3 515 495 494
3 515 494 505
3 515 514 495
3 513 503 514
3 513 515 505
3 504 503 513
3 504 513 505
3 524 525 526
3 524 526 533
3 523 533 532
3 523 524 533
3 522 532 531
3 522 523 532
3 521 531 530
3 521 522 531
3 520 521 530
3 519 530 529
3 519 520 530
3 518 529 528
3 518 519 529
3 517 528 527
3 517 518 528
3 516 517 527
3 546 537 536
3 538 537 546
3 547 539 538
3 547 538 546
3 553 550 551
3 553 551 552
3 558 541 540
3 558 542 541
3 559 540 539
3 559 558 540
3 559 542 558
3 560 559 539
3 560 539 547
3 561 547 548
3 561 560 547
3 562 548 549
3 562 561 548
3 563 549 550
3 563 550 553
3 563 562 549
3 564 553 554
3 564 554 563
3 564 563 553
3 565 554 555
3 565 563 554
3 565 562 563
3 566 555 556
3 566 565 555
3 567 566 556
3 568 556 557
3 568 567 556
3 569 534 535
3 569 557 534
3 569 568 557
3 570 543 542
3 570 562 565
3 570 561 562
3 570 559 560
3 570 560 561
3 570 542 559
3 571 543 570
3 571 570 565
3 572 565 566
3 572 543 571
3 572 571 565
3 573 544 543
3 573 543 572
3 573 566 567
3 573 572 566
3 574 573 567
3 575 567 568
3 575 574 567
3 576 568 569
3 576 575 568
3 577 569 535
3 577 576 569
3 578 544 573
3 578 573 574
3 579 578 574
3 579 544 578
3 579 574 575
3 580 575 576
3 580 544 579
3 580 545 544
3 580 579 575
3 581 576 577
3 581 545 580
3 581 580 576
3 582 535 545
3 582 545 581
3 582 577 535
3 582 581 577
3 592 588 589
3 592 589 591
3 593 587 588
3 593 588 592
3 594 586 587
3 594 587 593
3 595 585 586
3 595 586 594
3 596 584 585
3 596 585 595
3 597 583 584
3 597 584 596
3 590 583 597
3 609 598 599
3 610 599 600
3 610 609 599
3 611 600 601
3 611 610 600
3 612 601 602
3 612 602 603
3 612 611 601
3 613 603 604
3 613 612 603
3 614 604 605
3 614 613 604
3 615 605 606
3 615 614 605
3 608 606 607
3 608 615 606
3 625 626 627
3 625 635 634
3 625 627 635
3 624 634 633
3 624 625 634
3 623 633 632
3 623 624 633
3 622 623 632
3 621 632 631
3 621 622 632
3 620 631 630
3 620 621 631
3 619 630 629
3 619 620 630
3 618 629 628
3 618 619 629
3 617 628 616
3 617 618 628
3 636 637 638
3 636 638 639
3 640 636 639
3 642 641 636
3 643 636 640
3 643 642 636
3 644 646 645
3 644 640 646
3 644 643 640
3 648 647 650
3 649 648 650
3 651 674 675
3 670 671 672
3 669 672 673
3 669 673 674
3 669 674 651
3 669 670 672
3 657 659 658
3 656 652 659
3 656 659 657
3 654 656 655
3 654 652 656
3 653 651 652
3 653 669 651
3 653 652 654
3 662 669 653
3 661 663 662
3 661 664 663
3 661 665 664
3 661 666 665
3 661 667 666
3 661 668 667
3 660 662 653
3 660 661 662
3 684 683 677
3 692 677 683
3 685 684 677
3 693 679 677
3 693 677 692
3 686 685 677
3 694 679 693
3 687 686 677
3 695 678 679
3 695 679 694
3 688 687 677
3 696 678 695
3 689 688 677
3 690 689 677
3 691 690 677
3 682 691 677
3 680 682 677
3 676 681 680
3 676 696 697
3 676 697 698
3 676 698 699
3 676 699 700
3 676 700 681
3 676 678 696
3 677 676 680
3 703 702 701
3 704 705 706
3 704 706 707
3 704 707 708
3 704 708 709
3 704 709 710
3 704 710 711
3 704 711 703
3 712 703 701
3 712 704 703
3 724 714 713
3 724 713 723
3 725 715 714
3 725 714 724
3 726 716 715
3 726 715 725
3 727 717 716
3 727 716 726
3 728 718 717
3 728 717 727
3 729 719 718
3 729 718 728
3 730 720 719
3 730 719 729
3 722 721 720
3 722 720 730
3 732 734 733
3 732 735 734
3 732 736 735
3 732 737 736
3 732 738 737
3 732 739 738
3 740 739 732
3 731 740 732
3 741 740 731
3 742 743 744
3 742 744 745
3 742 745 746
3 742 746 747
3 742 747 748
3 742 748 749
3 742 749 741
3 750 741 731
3 750 742 741
3 753 752 751
3 754 753 751
3 756 758 757
3 756 759 758
3 756 760 759
3 756 761 760
3 756 762 761
3 756 763 762
3 764 763 756
3 755 764 756
3 766 765 764
3 766 764 755
3 770 768 767
3 770 769 768
3 780 772 771
3 780 771 779
3 781 773 772
3 781 772 780
3 782 774 773
3 782 773 781
3 783 775 774
3 783 774 782
3 784 776 775
3 784 775 783
3 785 777 776
3 785 776 784
3 778 777 785
3 786 788 787
3 789 788 786
3 792 791 790
3 793 792 790
3 794 796 795
3 797 796 794
3 799 800 801
3 798 799 801
3 803 801 802
3 803 798 801
3 815 805 804
3 815 804 814
3 816 806 805
3 816 805 815
3 817 807 806
3 817 806 816
3 818 808 807
3 818 807 817
3 819 809 808
3 819 808 818
3 820 810 809
3 820 809 819
3 821 811 810
3 821 810 820
3 813 812 811
3 813 811 821
3 822 823 824
