ply
format ascii 1.0
comment generated by blendit.inference.finetune_visualize
element vertex 615
property float x
property float y
property float z
property uchar red
property uchar green
property uchar blue
element face 581
property list uchar int vertex_indices
end_header
-2.22044605e-16 0 1.20646425 218 222 230
0 -2.22044605e-16 64.3460128 218 222 230
-2.22044605e-16 71.30768 1.20646425 218 222 230
0 71.30768 64.3460128 218 222 230
0 70.1012157 65.5524771 218 222 230
0 70.3696793 65.5222285 218 222 230
0 70.6246809 65.4329995 218 222 230
0 70.8534339 65.2892645 218 222 230
0 71.0444674 65.098231 218 222 230
0 71.1882024 64.869478 218 222 230
0 71.2774314 64.6144764 218 222 230
0 1.20646425 65.5524771 218 222 230
0 0.0302485777 64.6144764 218 222 230
0 0.119477521 64.869478 218 222 230
0 0.263212518 65.098231 218 222 230
0 0.454246095 65.2892645 218 222 230
0 0.682999032 65.4329995 218 222 230
0 0.938000701 65.5222285 218 222 230
93.5130669 0 1.20646425 218 222 230
93.5130669 -2.22044605e-16 64.3460128 218 222 230
-2.22044605e-16 0 1.20646425 218 222 230
0 -2.22044605e-16 64.3460128 218 222 230
15.9271576 0 57.4200297 218 222 230
17.3100062 0 57.2642201 218 222 230
18.6235131 0 56.8046042 218 222 230
19.8018134 0 56.064229 218 222 230
20.7858223 0 55.0802201 218 222 230
21.5261974 0 53.9019198 218 222 230
21.9858133 0 52.588413 218 222 230
22.141623 0 51.2055643 218 222 230
21.9858133 0 49.8227157 218 222 230
21.5261974 0 48.5092089 218 222 230
20.7858223 0 47.3309086 218 222 230
19.8018134 0 46.3468997 218 222 230
18.6235131 0 45.6065245 218 222 230
17.3100062 0 45.1469086 218 222 230
15.9271576 0 44.991099 218 222 230
14.544309 0 45.1469086 218 222 230
13.2308022 0 45.6065245 218 222 230
12.0525018 0 46.3468997 218 222 230
11.068493 0 47.3309086 218 222 230
10.3281178 0 48.5092089 218 222 230
9.86850188 0 49.8227157 218 222 230
9.71269226 0 51.2055643 218 222 230
9.86850188 0 52.588413 218 222 230
10.3281178 0 53.9019198 218 222 230
11.068493 0 55.0802201 218 222 230
12.0525018 0 56.064229 218 222 230
13.2308022 0 56.8046042 218 222 230
14.544309 0 57.2642201 218 222 230
-2.22044605e-16 0 1.20646425 255 79 163
-2.22044605e-16 71.30768 1.20646425 255 79 163
0.0185097857 71.2891702 0.995940674 255 79 163
0.0734711821 71.2342088 0.791876874 255 79 163
0.163197734 71.1444822 0.600534418 255 79 163
0.284936242 71.0227437 0.427784526 255 79 163
0.434951237 70.8727287 0.278927914 255 79 163
0.608639608 70.6990404 0.158532153 255 79 163
0.867753376 70.4399266 0.0485217089 255 79 163
1.03537991 70.2723001 0.012192031 255 79 163
1.20646425 70.1012157 -2.22044605e-16 255 79 163
1.20646425 1.20646425 -2.22044605e-16 255 79 163
0.0185097857 0.0185097857 0.995940674 255 79 163
0.0734711821 0.0734711821 0.791876874 255 79 163
0.163197734 0.163197734 0.600534418 255 79 163
0.284936242 0.284936242 0.427784526 255 79 163
0.434951237 0.434951237 0.278927914 255 79 163
0.608639608 0.608639608 0.158532153 255 79 163
0.867753376 0.867753376 0.0485217089 255 79 163
1.03537991 1.03537991 0.012192031 255 79 163
0 -2.22044605e-16 64.3460128 255 79 163
93.5130669 -2.22044605e-16 64.3460128 255 79 163
93.5130669 0.0302485777 64.6144764 255 79 163
93.5130669 0.119477521 64.869478 255 79 163
93.5130669 0.263212518 65.098231 255 79 163
93.5130669 0.454246095 65.2892645 255 79 163
93.5130669 0.682999032 65.4329995 255 79 163
93.5130669 0.938000701 65.5222285 255 79 163
93.5130669 1.20646425 65.5524771 255 79 163
0 1.20646425 65.5524771 255 79 163
0 0.0302485777 64.6144764 255 79 163
0 0.119477521 64.869478 255 79 163
0 0.263212518 65.098231 255 79 163
0 0.454246095 65.2892645 255 79 163
0 0.682999032 65.4329995 255 79 163
0 0.938000701 65.5222285 255 79 163
-2.22044605e-16 71.30768 1.20646425 218 222 230
0 71.30768 64.3460128 218 222 230
92.3066026 71.30768 64.3460128 218 222 230
92.3066026 71.30768 -2.22044605e-16 218 222 230
54.9253057 71.30768 -2.22044605e-16 218 222 230
54.9253057 71.30768 39.3389385 218 222 230
53.7188414 71.30768 39.3389385 218 222 230
33.7136104 71.30768 39.3389385 218 222 230
32.5071462 71.30768 39.3389385 218 222 230
32.5071462 71.30768 1.20646425 218 222 230
15.9271576 71.30768 57.4200297 218 222 230
17.3100062 71.30768 57.2642201 218 222 230
18.6235131 71.30768 56.8046042 218 222 230
19.8018134 71.30768 56.064229 218 222 230
20.7858223 71.30768 55.0802201 218 222 230
21.5261974 71.30768 53.9019198 218 222 230
21.9858133 71.30768 52.588413 218 222 230
22.141623 71.30768 51.2055643 218 222 230
21.9858133 71.30768 49.8227157 218 222 230
21.5261974 71.30768 48.5092089 218 222 230
20.7858223 71.30768 47.3309086 218 222 230
19.8018134 71.30768 46.3468997 218 222 230
18.6235131 71.30768 45.6065245 218 222 230
17.3100062 71.30768 45.1469086 218 222 230
15.9271576 71.30768 44.991099 218 222 230
14.544309 71.30768 45.1469086 218 222 230
13.2308022 71.30768 45.6065245 218 222 230
12.0525018 71.30768 46.3468997 218 222 230
11.068493 71.30768 47.3309086 218 222 230
10.3281178 71.30768 48.5092089 218 222 230
9.86850188 71.30768 49.8227157 218 222 230
9.71269226 71.30768 51.2055643 218 222 230
9.86850188 71.30768 52.588413 218 222 230
10.3281178 71.30768 53.9019198 218 222 230
11.068493 71.30768 55.0802201 218 222 230
12.0525018 71.30768 56.064229 218 222 230
13.2308022 71.30768 56.8046042 218 222 230
14.544309 71.30768 57.2642201 218 222 230
0 1.20646425 65.5524771 218 222 230
0 70.1012157 65.5524771 218 222 230
93.5130669 1.20646425 65.5524771 218 222 230
93.5130669 70.1012157 65.5524771 218 222 230
0 70.1012157 65.5524771 255 79 163
93.5130669 70.1012157 65.5524771 255 79 163
93.4945571 70.3117393 65.5339673 255 79 163
93.4395957 70.5158031 65.4790059 255 79 163
93.3498691 70.7071455 65.3892793 255 79 163
93.2281306 70.8798954 65.2675408 255 79 163
93.0781156 71.028752 65.1175258 255 79 163
92.9044273 71.1491478 64.9438375 255 79 163
92.6453135 71.2591583 64.6847237 255 79 163
92.477687 71.2954879 64.5170972 255 79 163
92.3066026 71.30768 64.3460128 255 79 163
0 71.30768 64.3460128 255 79 163
0 70.3696793 65.5222285 255 79 163
0 70.6246809 65.4329995 255 79 163
0 70.8534339 65.2892645 255 79 163
0 71.0444674 65.098231 255 79 163
0 71.1882024 64.869478 255 79 163
0 71.2774314 64.6144764 255 79 163
93.5130669 0 1.20646425 218 222 230
93.5130669 -2.22044605e-16 64.3460128 218 222 230
93.5130669 70.1012157 1.20646425 218 222 230
93.5130669 70.1012157 65.5524771 218 222 230
93.5130669 1.20646425 65.5524771 218 222 230
93.5130669 0.0302485777 64.6144764 218 222 230
93.5130669 0.119477521 64.869478 218 222 230
93.5130669 0.263212518 65.098231 218 222 230
93.5130669 0.454246095 65.2892645 218 222 230
93.5130669 0.682999032 65.4329995 218 222 230
93.5130669 0.938000701 65.5222285 218 222 230
93.5130669 12.4816997 26.6972639 218 222 230
93.5130669 21.8768358 21.2738507 218 222 230
93.5130669 12.4808968 38.2419496 218 222 230
93.5130669 22.4784864 44.0149878 218 222 230
93.5130669 31.8736226 38.5915745 218 222 230
93.5130669 32.4769274 37.5467878 218 222 230
93.5130669 32.4505458 37.797624 218 222 230
93.5130669 32.372589 38.0374937 218 222 230
93.5130669 32.2464639 38.2559137 218 222 230
93.5130669 32.077683 38.4433377 218 222 230
93.5130669 32.4776334 27.395207 218 222 230
93.5130669 31.8744739 26.3503364 218 222 230
93.5130669 32.0785136 26.4986016 218 222 230
93.5130669 32.2472685 26.6860491 218 222 230
93.5130669 32.3733632 26.9044865 218 222 230
93.5130669 32.4512867 27.1443672 218 222 230
93.5130669 23.0833001 21.2739346 218 222 230
93.5130669 22.1072571 21.1712797 218 222 230
93.5130669 22.3539689 21.1188574 218 222 230
93.5130669 22.6061886 21.118875 218 222 230
93.5130669 22.852893 21.1713316 218 222 230
-2.22044605e-16 0 1.20646425 255 79 163
0.0185097857 0.0185097857 0.995940674 255 79 163
0.0734711821 0.0734711821 0.791876874 255 79 163
0.163197734 0.163197734 0.600534418 255 79 163
0.284936242 0.284936242 0.427784526 255 79 163
0.434951237 0.434951237 0.278927914 255 79 163
0.608639608 0.608639608 0.158532153 255 79 163
0.867753376 0.867753376 0.0485217089 255 79 163
1.03537991 1.03537991 0.012192031 255 79 163
1.20646425 1.20646425 -2.22044605e-16 255 79 163
92.3066026 1.20646425 -2.22044605e-16 255 79 163
92.6138526 0.899214226 0.0397794564 255 79 163
92.9008414 0.612225452 0.156494615 255 79 163
93.1486438 0.364423081 0.342448826 255 79 163
93.3245843 0.188482613 0.558954118 255 79 163
93.436601 0.0764658848 0.783782716 255 79 163
93.4956305 0.0174363695 1.00209037 255 79 163
93.5086999 0.00436699592 1.10390608 255 79 163
93.5130669 0 1.20646425 255 79 163
15.9271576 71.30768 57.4200297 218 222 230
17.3100062 71.30768 57.2642201 218 222 230
18.6235131 71.30768 56.8046042 218 222 230
19.8018134 71.30768 56.064229 218 222 230
20.7858223 71.30768 55.0802201 218 222 230
21.5261974 71.30768 53.9019198 218 222 230
21.9858133 71.30768 52.588413 218 222 230
22.141623 71.30768 51.2055643 218 222 230
21.9858133 71.30768 49.8227157 218 222 230
21.5261974 71.30768 48.5092089 218 222 230
20.7858223 71.30768 47.3309086 218 222 230
19.8018134 71.30768 46.3468997 218 222 230
18.6235131 71.30768 45.6065245 218 222 230
17.3100062 71.30768 45.1469086 218 222 230
15.9271576 71.30768 44.991099 218 222 230
14.544309 71.30768 45.1469086 218 222 230
13.2308022 71.30768 45.6065245 218 222 230
12.0525018 71.30768 46.3468997 218 222 230
11.068493 71.30768 47.3309086 218 222 230
10.3281178 71.30768 48.5092089 218 222 230
9.86850188 71.30768 49.8227157 218 222 230
9.71269226 71.30768 51.2055643 218 222 230
9.86850188 71.30768 52.588413 218 222 230
10.3281178 71.30768 53.9019198 218 222 230
11.068493 71.30768 55.0802201 218 222 230
12.0525018 71.30768 56.064229 218 222 230
13.2308022 71.30768 56.8046042 218 222 230
14.544309 71.30768 57.2642201 218 222 230
15.9271576 71.30768 57.4200297 218 222 230
15.9271576 0 57.4200297 218 222 230
17.3100062 0 57.2642201 218 222 230
18.6235131 0 56.8046042 218 222 230
19.8018134 0 56.064229 218 222 230
20.7858223 0 55.0802201 218 222 230
21.5261974 0 53.9019198 218 222 230
21.9858133 0 52.588413 218 222 230
22.141623 0 51.2055643 218 222 230
21.9858133 0 49.8227157 218 222 230
21.5261974 0 48.5092089 218 222 230
20.7858223 0 47.3309086 218 222 230
19.8018134 0 46.3468997 218 222 230
18.6235131 0 45.6065245 218 222 230
17.3100062 0 45.1469086 218 222 230
15.9271576 0 44.991099 218 222 230
14.544309 0 45.1469086 218 222 230
13.2308022 0 45.6065245 218 222 230
12.0525018 0 46.3468997 218 222 230
11.068493 0 47.3309086 218 222 230
10.3281178 0 48.5092089 218 222 230
9.86850188 0 49.8227157 218 222 230
9.71269226 0 51.2055643 218 222 230
9.86850188 0 52.588413 218 222 230
10.3281178 0 53.9019198 218 222 230
11.068493 0 55.0802201 218 222 230
12.0525018 0 56.064229 218 222 230
13.2308022 0 56.8046042 218 222 230
14.544309 0 57.2642201 218 222 230
15.9271576 0 57.4200297 218 222 230
33.7136104 58.2977212 0 218 222 230
33.7136104 70.1012157 0 218 222 230
1.20646425 70.1012157 -2.22044605e-16 218 222 230
1.20646425 1.20646425 -2.22044605e-16 218 222 230
92.3066026 1.20646425 -2.22044605e-16 218 222 230
92.3066026 71.30768 -2.22044605e-16 218 222 230
54.9253057 71.30768 -2.22044605e-16 218 222 230
54.9253057 58.2977212 -2.22044605e-16 218 222 230
54.9155829 58.203132 -2.12725687e-16 218 222 230
54.8882649 58.1121066 -2.0016028e-16 218 222 230
54.846851 58.0263846 -1.87786428e-16 218 222 230
54.775466 57.9214952 -1.73048568e-16 218 222 230
54.6451628 57.7828557 -1.53926315e-16 218 222 230
54.4186267 57.6092799 -1.29174654e-16 218 222 230
54.0411678 57.4071644 -9.83238822e-17 218 222 230
53.4324663 57.2030513 -5.95657635e-17 218 222 230
52.9757207 57.1199579 -2.86031183e-17 218 222 230
52.5123772 57.091257 0 218 222 230
34.9200747 57.091257 0 218 222 230
33.743859 58.0292577 0 218 222 230
33.833088 57.774256 0 218 222 230
33.976823 57.5455031 0 218 222 230
34.1678565 57.3544695 0 218 222 230
34.3966095 57.2107345 0 218 222 230
34.6516111 57.1215055 0 218 222 230
-2.22044605e-16 71.30768 1.20646425 255 79 163
32.5071462 71.30768 1.20646425 255 79 163
32.8143962 71.2679005 0.899214226 255 79 163
33.101385 71.1511853 0.612225452 255 79 163
33.3491874 70.9652311 0.364423081 255 79 163
33.5251278 70.7487258 0.188482613 255 79 163
33.6371445 70.5238972 0.0764658848 255 79 163
33.6961741 70.3055896 0.0174363695 255 79 163
33.7092434 70.2037739 0.00436699592 255 79 163
33.7136104 70.1012157 0 255 79 163
1.20646425 70.1012157 -2.22044605e-16 255 79 163
0.0185097857 71.2891702 0.995940674 255 79 163
0.0734711821 71.2342088 0.791876874 255 79 163
0.163197734 71.1444822 0.600534418 255 79 163
0.284936242 71.0227437 0.427784526 255 79 163
0.434951237 70.8727287 0.278927914 255 79 163
0.608639608 70.6990404 0.158532153 255 79 163
0.867753376 70.4399266 0.0485217089 255 79 163
1.03537991 70.2723001 0.012192031 255 79 163
32.5071462 71.30768 1.20646425 255 79 163
32.5071462 71.30768 39.3389385 255 79 163
32.7756097 71.2774314 39.3389385 255 79 163
33.0306114 71.1882024 39.3389385 255 79 163
33.2593643 71.0444674 39.3389385 255 79 163
33.4503979 70.8534339 39.3389385 255 79 163
33.5941329 70.6246809 39.3389385 255 79 163
33.6833619 70.3696793 39.3389385 255 79 163
33.7136104 70.1012157 39.3389385 255 79 163
33.7136104 70.1012157 0 255 79 163
32.8143962 71.2679005 0.899214226 255 79 163
33.101385 71.1511853 0.612225452 255 79 163
33.3491874 70.9652311 0.364423081 255 79 163
33.5251278 70.7487258 0.188482613 255 79 163
33.6371445 70.5238972 0.0764658848 255 79 163
33.6961741 70.3055896 0.0174363695 255 79 163
33.7092434 70.2037739 0.00436699592 255 79 163
92.3066026 71.30768 -2.22044605e-16 255 79 163
92.3066026 71.30768 64.3460128 255 79 163
93.5130669 70.1012157 65.5524771 255 79 163
93.4945571 70.3117393 65.5339673 255 79 163
93.4395957 70.5158031 65.4790059 255 79 163
93.3498691 70.7071455 65.3892793 255 79 163
93.2281306 70.8798954 65.2675408 255 79 163
93.0781156 71.028752 65.1175258 255 79 163
92.9044273 71.1491478 64.9438375 255 79 163
92.6453135 71.2591583 64.6847237 255 79 163
92.477687 71.2954879 64.5170972 255 79 163
93.5130669 70.1012157 1.20646425 255 79 163
92.5171262 71.2891702 0.0185097857 255 79 163
92.72119 71.2342088 0.0734711821 255 79 163
92.9125325 71.1444822 0.163197734 255 79 163
93.0852823 71.0227437 0.284936242 255 79 163
93.234139 70.8727287 0.434951237 255 79 163
93.3545347 70.6990404 0.608639608 255 79 163
93.4645452 70.4399266 0.867753376 255 79 163
93.5008748 70.2723001 1.03537991 255 79 163
33.7136104 58.2977212 39.3389385 218 222 230
33.7136104 70.1012157 39.3389385 218 222 230
32.5071462 71.30768 39.3389385 218 222 230
32.7756097 71.2774314 39.3389385 218 222 230
33.0306114 71.1882024 39.3389385 218 222 230
33.2593643 71.0444674 39.3389385 218 222 230
33.4503979 70.8534339 39.3389385 218 222 230
33.5941329 70.6246809 39.3389385 218 222 230
33.6833619 70.3696793 39.3389385 218 222 230
33.7136104 71.30768 39.3389385 218 222 230
53.7188414 71.30768 39.3389385 218 222 230
54.9253057 71.30768 39.3389385 218 222 230
54.6568421 71.2774314 39.3389385 218 222 230
54.4018405 71.1882024 39.3389385 218 222 230
54.1730875 71.0444674 39.3389385 218 222 230
53.982054 70.8534339 39.3389385 218 222 230
53.838319 70.6246809 39.3389385 218 222 230
53.74909 70.3696793 39.3389385 218 222 230
53.7188414 70.1012157 39.3389385 218 222 230
53.7188414 58.2977212 39.3389385 218 222 230
54.9253057 71.30768 -2.22044605e-16 255 79 163
54.7147821 71.2891702 0.0185097857 255 79 163
54.5107183 71.2342088 0.0734711821 255 79 163
54.3193759 71.1444822 0.163197734 255 79 163
54.146626 71.0227437 0.284936242 255 79 163
53.9977694 70.8727287 0.434951237 255 79 163
53.8773736 70.6990404 0.608639608 255 79 163
53.7673632 70.4399266 0.867753376 255 79 163
53.7310335 70.2723001 1.03537991 255 79 163
53.7188414 70.1012157 1.20646425 255 79 163
53.7188414 70.1012157 39.3389385 255 79 163
54.9253057 71.30768 39.3389385 255 79 163
54.6568421 71.2774314 39.3389385 255 79 163
54.4018405 71.1882024 39.3389385 255 79 163
54.1730875 71.0444674 39.3389385 255 79 163
53.982054 70.8534339 39.3389385 255 79 163
53.838319 70.6246809 39.3389385 255 79 163
53.74909 70.3696793 39.3389385 255 79 163
92.3066026 1.20646425 -2.22044605e-16 255 79 163
92.3066026 71.30768 -2.22044605e-16 255 79 163
92.5171262 71.2891702 0.0185097857 255 79 163
92.72119 71.2342088 0.0734711821 255 79 163
92.9125325 71.1444822 0.163197734 255 79 163
93.0852823 71.0227437 0.284936242 255 79 163
93.234139 70.8727287 0.434951237 255 79 163
93.3545347 70.6990404 0.608639608 255 79 163
93.4645452 70.4399266 0.867753376 255 79 163
93.5008748 70.2723001 1.03537991 255 79 163
93.5130669 70.1012157 1.20646425 255 79 163
93.5130669 0 1.20646425 255 79 163
92.6138526 0.899214226 0.0397794564 255 79 163
92.9008414 0.612225452 0.156494615 255 79 163
93.1486438 0.364423081 0.342448826 255 79 163
93.3245843 0.188482613 0.558954118 255 79 163
93.436601 0.0764658848 0.783782716 255 79 163
93.4956305 0.0174363695 1.00209037 255 79 163
93.5086999 0.00436699592 1.10390608 255 79 163
93.5130669 12.4816997 26.6972639 218 222 230
93.5130669 21.8768358 21.2738507 218 222 230
79.2482414 12.4816997 26.6972639 218 222 230
79.2482414 21.8768358 21.2738507 218 222 230
93.5130669 21.8768358 21.2738507 218 222 230
79.2482414 21.8768358 21.2738507 218 222 230
79.2482414 22.1072571 21.1712797 218 222 230
79.2482414 22.3539689 21.1188574 218 222 230
79.2482414 22.6061886 21.118875 218 222 230
79.2482414 22.852893 21.1713316 218 222 230
79.2482414 23.0833001 21.2739346 218 222 230
93.5130669 23.0833001 21.2739346 218 222 230
93.5130669 22.1072571 21.1712797 218 222 230
93.5130669 22.3539689 21.1188574 218 222 230
93.5130669 22.6061886 21.118875 218 222 230
93.5130669 22.852893 21.1713316 218 222 230
93.5130669 12.4808968 38.2419496 218 222 230
79.2482414 12.4808968 38.2419496 218 222 230
79.2482414 12.4816997 26.6972639 218 222 230
93.5130669 12.4816997 26.6972639 218 222 230
93.5130669 23.0833001 21.2739346 218 222 230
93.5130669 31.8744739 26.3503364 218 222 230
79.2482414 23.0833001 21.2739346 218 222 230
79.2482414 31.8744739 26.3503364 218 222 230
93.5130669 22.4784864 44.0149878 218 222 230
79.2482414 22.4784864 44.0149878 218 222 230
79.2482414 12.4808968 38.2419496 218 222 230
93.5130669 12.4808968 38.2419496 218 222 230
93.5130669 31.8744739 26.3503364 218 222 230
79.2482414 31.8744739 26.3503364 218 222 230
79.2482414 32.0785136 26.4986016 218 222 230
79.2482414 32.2472685 26.6860491 218 222 230
79.2482414 32.3733632 26.9044865 218 222 230
79.2482414 32.4512867 27.1443672 218 222 230
79.2482414 32.4776334 27.395207 218 222 230
93.5130669 32.4776334 27.395207 218 222 230
93.5130669 32.0785136 26.4986016 218 222 230
93.5130669 32.2472685 26.6860491 218 222 230
93.5130669 32.3733632 26.9044865 218 222 230
93.5130669 32.4512867 27.1443672 218 222 230
93.5130669 31.8736226 38.5915745 218 222 230
93.5130669 22.4784864 44.0149878 218 222 230
79.2482414 31.8736226 38.5915745 218 222 230
79.2482414 22.4784864 44.0149878 218 222 230
93.5130669 32.4776334 27.395207 218 222 230
93.5130669 32.4769274 37.5467878 218 222 230
79.2482414 32.4776334 27.395207 218 222 230
79.2482414 32.4769274 37.5467878 218 222 230
93.5130669 32.4769274 37.5467878 218 222 230
79.2482414 32.4769274 37.5467878 218 222 230
79.2482414 32.4505458 37.797624 218 222 230
79.2482414 32.372589 38.0374937 218 222 230
79.2482414 32.2464639 38.2559137 218 222 230
79.2482414 32.077683 38.4433377 218 222 230
79.2482414 31.8736226 38.5915745 218 222 230
93.5130669 31.8736226 38.5915745 218 222 230
93.5130669 32.4505458 37.797624 218 222 230
93.5130669 32.372589 38.0374937 218 222 230
93.5130669 32.2464639 38.2559137 218 222 230
93.5130669 32.077683 38.4433377 218 222 230
33.7136104 58.2977212 0 218 222 230
33.7136104 70.1012157 0 218 222 230
33.7136104 58.2977212 39.3389385 218 222 230
33.7136104 70.1012157 39.3389385 218 222 230
33.7136104 58.2977212 0 255 79 163
33.743859 58.0292577 0 255 79 163
33.833088 57.774256 0 255 79 163
33.976823 57.5455031 0 255 79 163
34.1678565 57.3544695 0 255 79 163
34.3966095 57.2107345 0 255 79 163
34.6516111 57.1215055 0 255 79 163
34.9200747 57.091257 0 255 79 163
34.9200747 57.091257 38.1324743 255 79 163
33.7136104 58.2977212 39.3389385 255 79 163
33.7321202 58.0871976 39.3204288 255 79 163
33.7870816 57.8831338 39.2654674 255 79 163
33.8768082 57.6917914 39.1757408 255 79 163
33.9985467 57.5190415 39.0540023 255 79 163
34.1485617 57.3701849 38.9039873 255 79 163
34.32225 57.2497891 38.7302989 255 79 163
34.5813638 57.1397787 38.4711852 255 79 163
34.7489903 57.103449 38.3035586 255 79 163
52.5123772 57.091257 0 218 222 230
34.9200747 57.091257 0 218 222 230
52.5123772 57.091257 38.1324743 218 222 230
34.9200747 57.091257 38.1324743 218 222 230
52.5123772 57.091257 0 255 79 163
52.5123772 57.091257 0 255 79 163
54.9253057 58.2977212 -2.22044605e-16 255 79 163
54.9155829 58.203132 -2.12725687e-16 255 79 163
54.8882649 58.1121066 -2.0016028e-16 255 79 163
54.846851 58.0263846 -1.87786428e-16 255 79 163
54.775466 57.9214952 -1.73048568e-16 255 79 163
54.6451628 57.7828557 -1.53926315e-16 255 79 163
54.4186267 57.6092799 -1.29174654e-16 255 79 163
54.0411678 57.4071644 -9.83238822e-17 255 79 163
53.4324663 57.2030513 -5.95657635e-17 255 79 163
52.9757207 57.1199579 -2.86031183e-17 255 79 163
54.6482 58.2977212 0.0322546111 255 79 163
54.3859109 58.2977212 0.127293561 255 79 163
54.1524631 58.2977212 0.280035481 255 79 163
53.9603389 58.2977212 0.482313045 255 79 163
53.8198109 58.2977212 0.723310637 255 79 163
53.7443536 58.2977212 0.959668737 255 79 163
53.7188414 58.2977212 1.20646425 255 79 163
53.679062 57.9904712 1.00868427 255 79 163
53.5623464 57.7034817 0.810904279 255 79 163
53.3763926 57.4556801 0.613124292 255 79 163
53.133462 57.2634049 0.415344305 255 79 163
52.8495744 57.1393371 0.217564318 255 79 163
52.6826813 57.1033368 0.108782159 255 79 163
54.3490922 57.7247053 0.0295079671 255 79 163
54.155381 57.7441547 0.103181401 255 79 163
53.9838161 57.7642896 0.209709572 255 79 163
53.8416148 57.7843541 0.3458213 255 79 163
53.7330637 57.8033898 0.51061179 255 79 163
53.798193 57.3696115 0.0211878657 255 79 163
53.6606723 57.8206406 0.700851347 255 79 163
53.6804896 57.3820704 0.0718038891 255 79 163
53.5753764 57.3964388 0.142539752 255 79 163
53.4882941 57.4113878 0.231689025 255 79 163
53.423515 57.4249056 0.340043983 255 79 163
53.3830058 57.4356633 0.466645517 255 79 163
53.4864785 57.2886232 0.0586743843 255 79 163
53.2130083 57.2327814 0.122425794 255 79 163
53.0461074 57.1724264 0.0917731428 255 79 163
52.8776093 57.1290721 0.0620087462 255 79 163
52.7817343 57.1118125 0.0455139836 255 79 163
53.3146416 57.2157899 0.0365191557 255 79 163
53.2169726 57.1868866 0.0316253971 255 79 163
53.0219155 57.1410976 0.0224847325 255 79 163
52.9229505 57.1236684 0.0182570146 255 79 163
52.8671255 57.1155055 0.0159873578 255 79 163
53.3192825 57.1950068 0.00966341529 255 79 163
53.2145102 57.1697462 0.00826865429 255 79 163
53.0024003 57.1296025 0.00575418925 255 79 163
52.9489272 57.1217472 0.00519745721 255 79 163
52.9188732 57.1177273 0.00489692172 255 79 163
52.9900092 57.124621 0.00147579558 255 79 163
52.9622547 57.1208908 0.00140482143 255 79 163
52.9466751 57.1188931 0.00136596005 255 79 163
54.9253057 71.30768 -2.22044605e-16 255 79 163
54.9253057 58.2977212 -2.22044605e-16 255 79 163
54.6482 58.2977212 0.0322546111 255 79 163
54.3859109 58.2977212 0.127293561 255 79 163
54.1524631 58.2977212 0.280035481 255 79 163
53.9603389 58.2977212 0.482313045 255 79 163
53.8198109 58.2977212 0.723310637 255 79 163
53.7443536 58.2977212 0.959668737 255 79 163
53.7188414 58.2977212 1.20646425 255 79 163
53.7188414 70.1012157 1.20646425 255 79 163
54.7147821 71.2891702 0.0185097857 255 79 163
54.5107183 71.2342088 0.0734711821 255 79 163
54.3193759 71.1444822 0.163197734 255 79 163
54.146626 71.0227437 0.284936242 255 79 163
53.9977694 70.8727287 0.434951237 255 79 163
53.8773736 70.6990404 0.608639608 255 79 163
53.7673632 70.4399266 0.867753376 255 79 163
53.7310335 70.2723001 1.03537991 255 79 163
53.7188414 58.2977212 39.3389385 255 79 163
33.7136104 58.2977212 39.3389385 255 79 163
33.7321202 58.0871976 39.3204288 255 79 163
33.7870816 57.8831338 39.2654674 255 79 163
33.8768082 57.6917914 39.1757408 255 79 163
33.9985467 57.5190415 39.0540023 255 79 163
34.1485617 57.3701849 38.9039873 255 79 163
34.32225 57.2497891 38.7302989 255 79 163
34.5813638 57.1397787 38.4711852 255 79 163
34.7489903 57.103449 38.3035586 255 79 163
34.9200747 57.091257 38.1324743 255 79 163
52.5123772 57.091257 38.1324743 255 79 163
53.7003317 58.0871976 39.3204288 255 79 163
53.6453703 57.8831338 39.2654674 255 79 163
53.5556437 57.6917914 39.1757408 255 79 163
53.4339052 57.5190415 39.0540023 255 79 163
53.2838902 57.3701849 38.9039873 255 79 163
53.1102018 57.2497891 38.7302989 255 79 163
52.8510881 57.1397787 38.4711852 255 79 163
52.6834615 57.103449 38.3035586 255 79 163
53.7188414 70.1012157 39.3389385 218 222 230
53.7188414 58.2977212 39.3389385 218 222 230
53.7188414 58.2977212 1.20646425 218 222 230
53.7188414 70.1012157 1.20646425 218 222 230
79.2482414 12.4816997 26.6972639 218 222 230
79.2482414 21.8768358 21.2738507 218 222 230
79.2482414 22.1072571 21.1712797 218 222 230
79.2482414 22.3539689 21.1188574 218 222 230
79.2482414 22.6061886 21.118875 218 222 230
79.2482414 22.852893 21.1713316 218 222 230
79.2482414 23.0833001 21.2739346 218 222 230
79.2482414 31.8744739 26.3503364 218 222 230
79.2482414 32.0785136 26.4986016 218 222 230
79.2482414 32.2472685 26.6860491 218 222 230
79.2482414 32.3733632 26.9044865 218 222 230
79.2482414 32.4512867 27.1443672 218 222 230
79.2482414 32.4776334 27.395207 218 222 230
79.2482414 32.4769274 37.5467878 218 222 230
79.2482414 32.4505458 37.797624 218 222 230
79.2482414 32.372589 38.0374937 218 222 230
79.2482414 32.2464639 38.2559137 218 222 230
79.2482414 32.077683 38.4433377 218 222 230
79.2482414 31.8736226 38.5915745 218 222 230
79.2482414 22.4784864 44.0149878 218 222 230
79.2482414 12.4808968 38.2419496 218 222 230
53.7188414 58.2977212 1.20646425 255 79 163
53.7188414 58.2977212 39.3389385 255 79 163
53.7003317 58.0871976 39.3204288 255 79 163
53.6453703 57.8831338 39.2654674 255 79 163
53.5556437 57.6917914 39.1757408 255 79 163
53.4339052 57.5190415 39.0540023 255 79 163
53.2838902 57.3701849 38.9039873 255 79 163
53.1102018 57.2497891 38.7302989 255 79 163
52.8510881 57.1397787 38.4711852 255 79 163
52.6834615 57.103449 38.3035586 255 79 163
52.5123772 57.091257 38.1324743 255 79 163
52.5123772 57.091257 0 255 79 163
53.679062 57.9904712 1.00868427 255 79 163
53.5623464 57.7034817 0.810904279 255 79 163
53.3763926 57.4556801 0.613124292 255 79 163
53.133462 57.2634049 0.415344305 255 79 163
52.8495744 57.1393371 0.217564318 255 79 163
52.6826813 57.1033368 0.108782159 255 79 163
3 9 10 3
3 7 8 9
3 5 6 7
3 5 7 9
3 4 3 2
3 4 9 3
3 4 5 9
3 11 0 1
3 11 2 0
3 11 4 2
3 13 1 12
3 13 17 11
3 13 11 1
3 14 15 16
3 14 16 17
3 14 17 13
3 39 40 20
3 41 20 40
3 38 39 20
3 37 38 20
3 36 37 20
3 35 36 20
3 34 35 20
3 21 41 42
3 21 42 43
3 21 43 44
3 21 44 45
3 21 20 41
3 33 34 20
3 46 21 45
3 47 21 46
3 48 21 47
3 49 21 48
3 22 21 49
3 23 21 22
3 18 31 32
3 18 32 33
3 18 33 20
3 19 23 24
3 19 24 25
3 19 25 26
3 19 26 27
3 19 27 28
3 19 28 29
3 19 29 30
3 19 30 31
3 19 31 18
3 19 21 23
3 59 60 61
3 59 61 69
3 58 69 68
3 58 59 69
3 57 68 67
3 57 58 68
3 56 67 66
3 56 57 67
3 55 66 65
3 55 56 66
3 54 65 64
3 54 55 65
3 53 64 63
3 53 54 64
3 52 63 62
3 52 53 63
3 51 62 50
3 51 52 62
3 77 78 79
3 77 79 85
3 76 85 84
3 76 77 85
3 75 84 83
3 75 76 84
3 74 82 81
3 74 83 82
3 74 75 83
3 73 74 81
3 72 81 80
3 72 73 81
3 71 80 70
3 71 72 80
3 114 113 86
3 112 86 113
3 115 114 86
3 111 86 112
3 110 95 86
3 110 86 111
3 87 116 115
3 87 117 116
3 87 118 117
3 87 119 118
3 87 115 86
3 120 119 87
3 121 120 87
3 122 121 87
3 123 122 87
3 94 105 104
3 94 106 105
3 94 107 106
3 94 108 107
3 94 109 108
3 94 110 109
3 94 95 110
3 96 123 87
3 103 93 94
3 103 94 104
3 97 96 87
3 102 93 103
3 92 93 102
3 92 101 100
3 92 102 101
3 91 89 90
3 88 97 87
3 88 92 100
3 88 89 91
3 88 91 92
3 88 98 97
3 88 99 98
3 88 100 99
3 127 125 124
3 127 124 126
3 137 138 139
3 137 139 145
3 136 145 144
3 136 137 145
3 135 144 143
3 135 136 144
3 134 135 143
3 133 143 142
3 133 134 143
3 132 142 141
3 132 133 142
3 131 141 140
3 131 132 141
3 130 140 128
3 130 131 140
3 129 130 128
3 170 169 148
3 168 148 169
3 171 170 148
3 172 171 148
3 167 172 148
3 173 148 168
3 177 148 173
3 146 174 158
3 146 175 174
3 146 176 175
3 146 177 176
3 146 148 177
3 162 148 149
3 162 167 148
3 163 162 149
3 164 163 149
3 165 164 149
3 166 165 149
3 161 166 149
3 157 146 158
3 160 161 149
3 147 159 160
3 150 147 160
3 150 160 149
3 155 150 156
3 152 151 147
3 153 152 147
3 154 147 150
3 154 150 155
3 154 153 147
3 147 146 159
3 159 146 157
3 195 178 179
3 195 196 178
3 194 179 180
3 194 195 179
3 193 180 181
3 193 194 180
3 192 181 182
3 192 193 181
3 191 182 183
3 191 192 182
3 190 183 184
3 190 184 185
3 190 191 183
3 189 185 186
3 189 190 185
3 188 186 187
3 188 189 186
3 197 227 226
3 198 227 197
3 199 228 227
3 199 229 228
3 199 227 198
3 200 229 199
3 201 230 229
3 201 231 230
3 201 229 200
3 202 231 201
3 203 232 231
3 203 233 232
3 203 231 202
3 204 233 203
3 205 234 233
3 205 235 234
3 205 233 204
3 206 235 205
3 207 235 206
3 207 236 235
3 208 236 207
3 208 237 236
3 209 237 208
3 209 238 237
3 210 238 209
3 210 239 238
3 210 240 239
3 211 240 210
3 212 240 211
3 212 241 240
3 213 241 212
3 213 242 241
3 214 242 213
3 214 243 242
3 215 243 214
3 215 244 243
3 216 244 215
3 216 245 244
3 217 245 216
3 217 246 245
3 217 247 246
3 218 247 217
3 219 247 218
3 219 248 247
3 220 248 219
3 220 249 248
3 220 250 249
3 221 251 250
3 221 250 220
3 222 251 221
3 223 252 251
3 223 253 252
3 223 251 222
3 224 253 223
3 225 254 253
3 225 253 224
3 276 258 257
3 276 277 258
3 275 276 257
3 278 258 277
3 274 275 257
3 279 258 278
3 255 274 257
3 273 258 279
3 256 255 257
3 272 259 258
3 272 258 273
3 271 259 272
3 270 259 271
3 269 259 270
3 268 259 269
3 267 259 268
3 266 259 267
3 260 262 261
3 260 263 262
3 260 264 263
3 260 265 264
3 260 266 265
3 260 259 266
3 288 289 290
3 288 290 298
3 287 298 297
3 287 288 298
3 286 297 296
3 286 287 297
3 285 296 295
3 285 286 296
3 284 295 294
3 284 285 295
3 283 293 292
3 283 294 293
3 283 284 294
3 282 292 291
3 282 283 292
3 281 291 280
3 281 282 291
3 307 308 315
3 306 314 313
3 306 315 314
3 306 307 315
3 305 313 312
3 305 306 313
3 304 312 311
3 304 305 312
3 303 311 310
3 303 304 311
3 302 310 309
3 302 303 310
3 301 309 299
3 301 302 309
3 300 301 299
3 318 327 335
3 319 335 334
3 319 318 335
3 320 334 333
3 320 319 334
3 321 333 332
3 321 320 333
3 322 332 331
3 322 321 332
3 323 331 330
3 323 322 331
3 324 330 329
3 324 323 330
3 325 329 328
3 325 324 329
3 326 328 316
3 326 325 328
3 317 326 316
3 346 347 348
3 346 348 349
3 346 349 350
3 346 350 351
3 346 351 352
3 346 352 353
3 346 353 354
3 337 354 355
3 337 355 336
3 345 343 342
3 345 344 343
3 345 337 344
3 345 346 354
3 345 354 337
3 341 345 342
3 340 345 341
3 339 345 340
3 338 345 339
3 367 356 357
3 368 357 358
3 368 367 357
3 369 358 359
3 369 368 358
3 370 359 360
3 370 369 359
3 371 360 361
3 371 361 362
3 371 370 360
3 372 362 363
3 372 371 362
3 373 363 364
3 373 372 363
3 366 364 365
3 366 373 364
3 384 385 392
3 383 392 391
3 383 384 392
3 382 391 390
3 382 383 391
3 381 390 389
3 381 382 390
3 380 389 388
3 380 381 389
3 379 388 387
3 379 380 388
3 378 379 387
3 377 387 386
3 377 378 387
3 376 386 374
3 376 377 386
3 375 376 374
3 394 395 393
3 394 396 395
3 402 404 403
3 402 408 404
3 401 407 408
3 401 408 402
3 400 405 406
3 400 406 407
3 400 407 401
3 399 405 400
3 398 397 405
3 398 405 399
3 409 411 410
3 412 411 409
3 414 415 413
3 414 416 415
3 420 418 417
3 420 419 418
3 426 428 427
3 426 432 428
3 425 431 432
3 425 432 426
3 424 430 431
3 424 431 425
3 423 421 429
3 423 429 430
3 423 430 424
3 422 421 423
3 434 435 433
3 434 436 435
3 438 439 437
3 438 440 439
3 447 452 448
3 446 452 447
3 445 451 452
3 445 452 446
3 444 450 451
3 444 451 445
3 443 441 449
3 443 449 450
3 443 450 444
3 442 441 443
3 454 455 453
3 454 456 455
3 467 458 457
3 467 457 466
3 468 459 458
3 468 458 467
3 469 460 459
3 469 459 468
3 470 461 460
3 470 460 469
3 471 461 470
3 472 462 461
3 472 461 471
3 473 463 462
3 473 462 472
3 474 464 463
3 474 463 473
3 465 464 474
3 475 478 477
3 476 478 475
3 491 481 482
3 483 491 482
3 492 483 484
3 492 491 483
3 485 492 484
3 498 496 495
3 498 497 496
3 504 485 486
3 504 486 487
3 505 504 487
3 505 485 504
3 505 492 485
3 506 493 492
3 506 492 505
3 507 494 493
3 507 493 506
3 508 495 494
3 508 494 507
3 508 498 495
3 509 488 489
3 510 499 498
3 510 508 499
3 510 498 508
3 511 487 488
3 511 505 487
3 511 488 509
3 512 506 505
3 512 505 511
3 513 506 512
3 513 507 506
3 514 507 513
3 514 508 507
3 514 499 508
3 515 500 499
3 515 501 500
3 515 499 514
3 515 514 501
3 516 511 509
3 516 509 489
3 516 512 511
3 516 513 512
3 517 514 513
3 517 501 514
3 517 513 516
3 518 502 501
3 518 501 517
3 519 502 518
3 520 480 479
3 520 503 502
3 520 479 503
3 520 502 519
3 521 516 489
3 521 517 516
3 522 517 521
3 522 518 517
3 523 518 522
3 523 519 518
3 524 519 523
3 525 519 524
3 525 480 520
3 525 520 519
3 526 521 489
3 526 522 521
3 527 489 490
3 527 526 489
3 527 522 526
3 527 523 522
3 528 523 527
3 528 524 523
3 529 524 528
3 530 525 524
3 530 480 525
3 530 524 529
3 531 527 490
3 531 528 527
3 531 529 528
3 532 531 490
3 532 529 531
3 533 490 480
3 533 480 530
3 533 530 529
3 533 532 490
3 533 529 532
3 542 543 551
3 541 551 550
3 541 542 551
3 540 550 549
3 540 541 550
3 539 549 548
3 539 540 549
3 538 547 546
3 538 548 547
3 538 539 548
3 537 546 545
3 537 538 546
3 536 545 544
3 536 537 545
3 535 544 534
3 535 536 544
3 561 563 562
3 561 571 563
3 560 570 571
3 560 571 561
3 559 569 570
3 559 570 560
3 558 568 569
3 558 569 559
3 557 567 568
3 557 568 558
3 556 566 567
3 556 567 557
3 555 565 566
3 555 566 556
3 554 564 565
3 554 565 555
3 553 552 564
3 553 564 554
3 574 573 572
3 574 572 575
3 588 583 584
3 588 584 585
3 588 585 586
3 588 586 587
3 577 578 579
3 577 579 580
3 577 580 581
3 577 581 582
3 577 582 583
3 594 588 589
3 594 589 590
3 594 590 591
3 594 591 592
3 594 592 593
3 594 583 588
3 594 577 583
3 596 576 577
3 596 594 595
3 596 577 594
3 607 614 608
3 606 613 614
3 606 614 607
3 605 613 606
3 604 612 613
3 604 613 605
3 603 611 612
3 603 612 604
3 602 610 611
3 602 611 603
3 601 610 602
3 600 609 610
3 600 610 601
3 599 597 609
3 599 609 600
3 598 597 599
