ply
format ascii 1.0
comment generated by blendit.inference.finetune_visualize
element vertex 1183
property float x
property float y
property float z
property uchar red
property uchar green
property uchar blue
element face 1558
property list uchar int vertex_indices
end_header
1.41520642e-15 0 23.1120748 218 222 230
0 -4.4408921e-16 40.5756383 218 222 230
0 0.0524087433 22.6469344 218 222 230
0 0.20700698 22.205118 218 222 230
0 0.456042509 21.8087802 218 222 230
0 0.787027648 21.4777951 218 222 230
0 1.18336542 21.2287596 218 222 230
0 1.6251818 21.0741613 218 222 230
1.2872111e-15 2.09032226 21.0217526 218 222 230
2.5744222e-15 68.6201889 21.0217526 218 222 230
0 71.3923069 18.2496346 218 222 230
0 71.3177215 18.8883487 218 222 230
0 71.0777028 19.532313 218 222 230
0 70.7166888 20.0632847 218 222 230
0 70.4473071 20.3344073 218 222 230
0 70.0980364 20.5949715 218 222 230
0 69.719051 20.7946573 218 222 230
0 69.3255192 20.9305201 218 222 230
0 68.9681382 20.9998291 218 222 230
0 71.3923069 0 218 222 230
0 78.1635436 0 218 222 230
0 78.1635436 43.9359297 218 222 230
0 3.36029138 43.9359297 218 222 230
0 0.0842495206 41.3233735 218 222 230
0 0.33277346 42.0336141 218 222 230
0 0.733109789 42.6707457 218 222 230
0 1.26518397 43.2028199 218 222 230
0 1.90231559 43.6031563 218 222 230
0 2.6125562 43.8516802 218 222 230
31.3273561 0 0.785385317 218 222 230
31.3273561 0 10.0354048 218 222 230
23.1079652 -1.38777878e-17 0.435828861 218 222 230
22.9179175 0 2.98949146 218 222 230
22.4465353 0 5.50645582 218 222 230
21.6996051 0 7.95582432 218 222 230
20.6862961 0 10.3075292 218 222 230
19.4190474 0 12.5327014 218 222 230
17.9134153 0 14.6040253 218 222 230
16.1878827 0 16.496074 218 222 230
14.2636318 0 18.185621 218 222 230
12.1642842 0 19.651926 218 222 230
9.91561086 0 20.8769889 218 222 230
7.54521603 0 21.8457712 218 222 230
5.08219805 0 22.5463803 218 222 230
2.55679229 0 22.9702159 218 222 230
1.41520642e-15 0 23.1120748 218 222 230
0 -4.4408921e-16 40.5756383 218 222 230
78.3162978 -4.4408921e-16 40.5756383 218 222 230
78.3162978 0 0 218 222 230
60.2995936 0 0 218 222 230
60.2995936 0 10.0354048 218 222 230
60.2995936 -4.4408921e-16 11.5602611 218 222 230
31.3273561 -4.4408921e-16 11.5602611 218 222 230
23.1079652 -1.38777878e-17 0.435828861 255 79 163
22.6426164 0.0531630873 0.215470569 255 79 163
22.2456723 0.187967321 0.0642076708 255 79 163
22.0453 0.292698963 0.0150587191 255 79 163
21.8862345 0.397170614 -6.9388939e-17 255 79 163
22.9179175 0 2.98949146 255 79 163
22.4465353 0 5.50645582 255 79 163
21.6996051 0 7.95582432 255 79 163
20.6862961 0 10.3075292 255 79 163
19.4190474 0 12.5327014 255 79 163
17.9134153 0 14.6040253 255 79 163
16.1878827 0 16.496074 255 79 163
14.2636318 0 18.185621 255 79 163
12.1642842 0 19.651926 255 79 163
9.91561086 0 20.8769889 255 79 163
7.54521603 0 21.8457712 255 79 163
5.08219805 0 22.5463803 255 79 163
2.55679229 0 22.9702159 255 79 163
1.41520642e-15 0 23.1120748 255 79 163
0 0.0524087433 22.6469344 255 79 163
0 0.20700698 22.205118 255 79 163
0 0.456042509 21.8087802 255 79 163
0 0.787027648 21.4777951 255 79 163
0 1.18336542 21.2287596 255 79 163
0 1.6251818 21.0741613 255 79 163
1.2872111e-15 2.09032226 21.0217526 255 79 163
21.0217526 2.09032226 -1.2872111e-15 255 79 163
20.8684803 2.09032226 2.53389227 255 79 163
20.4108987 2.09032226 5.03083469 255 79 163
19.6556801 2.09032226 7.4544162 255 79 163
18.6138375 2.09032226 9.76929555 255 79 163
17.3005632 2.09032226 11.9417166 255 79 163
15.7350078 2.09032226 13.9400005 255 79 163
13.9400005 2.09032226 15.7350078 255 79 163
11.9417166 2.09032226 17.3005632 255 79 163
9.76929555 2.09032226 18.6138375 255 79 163
7.4544162 2.09032226 19.6556801 255 79 163
5.03083469 2.09032226 20.4108987 255 79 163
2.53389227 2.09032226 20.8684803 255 79 163
21.533293 0.720324057 -6.59084318e-16 255 79 163
21.2631003 1.11526319 -6.50935225e-16 255 79 163
21.0898064 1.56128776 -6.45835979e-16 255 79 163
21.0388323 1.82365336 -6.44001934e-16 255 79 163
22.4818127 0.0524087433 2.72978629 255 79 163
22.0835683 0.187967322 2.68143066 255 79 163
21.7266592 0.397170614 2.63809405 255 79 163
21.3762911 0.720324073 2.59555165 255 79 163
21.1080683 1.11526319 2.56298352 255 79 163
20.936038 1.56128774 2.54209525 255 79 163
21.9947891 0.0524087433 5.39563602 255 79 163
21.6051718 0.187967322 5.30005734 255 79 163
21.2559945 0.397170614 5.21439913 255 79 163
20.9132164 0.720324073 5.13031077 255 79 163
20.6508042 1.11526319 5.06593731 255 79 163
20.4825005 1.56128774 5.02465001 255 79 163
21.2628912 0.0524087433 7.79570993 255 79 163
20.8862388 0.187967322 7.65761616 255 79 163
20.5486807 0.397170614 7.53385569 255 79 163
20.2173089 0.720324073 7.41236334 255 79 163
19.9636287 1.11526319 7.31935543 255 79 163
19.8009255 1.56128774 7.25970282 255 79 163
20.2699755 0.0524087433 10.1000857 255 79 163
19.9109117 0.187967322 9.92117204 255 79 163
19.5891165 0.397170614 9.76082854 255 79 163
19.2732188 0.720324073 9.60342361 255 79 163
19.0313847 1.11526319 9.48292299 255 79 163
18.8762793 1.56128774 9.40563735 255 79 163
19.0282307 0.0524087433 12.2804754 255 79 163
18.6911632 0.187967322 12.0629381 255 79 163
18.6380616 0.0524087433 12.864925 255 79 163
18.3890813 0.397170614 11.8679799 255 79 163
18.3079056 0.187967322 12.6370348 255 79 163
18.0925356 0.720324073 11.6765947 255 79 163
18.0120178 0.397170614 12.4327982 255 79 163
17.8655164 1.11526319 11.5300806 255 79 163
17.7215527 0.720324073 12.2323046 255 79 163
17.7199127 1.56128774 11.4361107 255 79 163
17.5529001 0.0524087433 14.310113 255 79 163
17.4991885 1.11526319 12.0788177 255 79 163
17.2419668 0.187967322 14.0566226 255 79 163
17.3565704 1.56128774 11.9803755 255 79 163
16.9633064 0.397170614 13.829443 255 79 163
16.9514738 0.0524087433 15.0176953 255 79 163
16.689753 0.720324073 13.6064269 255 79 163
16.6511942 0.187967322 14.7516708 255 79 163
16.3820817 0.397170614 14.513258 255 79 163
16.4803354 1.11526319 13.4356979 255 79 163
16.1179013 0.720324073 14.2792145 255 79 163
16.346021 1.56128774 13.3261972 255 79 163
15.8620946 0.0524087433 16.1640834 255 79 163
15.9156591 1.11526319 14.1000436 255 79 163
15.5811123 0.187967322 15.8777516 255 79 163
15.7859468 1.56128774 13.9851285 255 79 163
15.3292943 0.397170614 15.6211394 255 79 163
15.0176953 0.0524087433 16.9514738 255 79 163
15.0820913 0.720324073 15.36923 255 79 163
14.7516708 0.187967322 16.6511942 255 79 163
14.8928461 1.11526319 15.1763819 255 79 163
14.513258 0.397170614 16.3820817 255 79 163
14.7714697 1.56128774 15.0526947 255 79 163
13.9765701 0.0524087433 17.8196276 255 79 163
14.2792145 0.720324073 16.1179013 255 79 163
13.7289881 0.187967322 17.5039694 255 79 163
14.1000436 1.11526319 15.9156591 255 79 163
13.5071036 0.397170614 17.2210746 255 79 163
13.9851285 1.56128774 15.7859468 255 79 163
13.2892856 0.720324073 16.9433644 255 79 163
12.864925 0.0524087433 18.6380616 255 79 163
12.6370348 0.187967322 18.3079056 255 79 163
13.122536 1.11526319 16.7307646 255 79 163
12.4327982 0.397170614 18.0120178 255 79 163
13.0155875 1.56128774 16.5944092 255 79 163
11.9194727 0.0524087433 19.2564225 255 79 163
12.2323046 0.720324073 17.7215527 255 79 163
11.7083303 0.187967322 18.9153128 255 79 163
12.0788177 1.11526319 17.4991885 255 79 163
11.5191032 0.397170614 18.6096083 255 79 163
11.9803755 1.56128774 17.3565704 255 79 163
11.333344 0.720324073 18.3095063 255 79 163
10.5245552 0.0524087433 20.0528645 255 79 163
11.1911369 1.11526319 18.0797646 255 79 163
10.3381225 0.187967322 19.6976466 255 79 163
11.0999294 1.56128774 17.9324149 255 79 163
10.1710403 0.397170614 19.3792982 255 79 163
9.71605492 0.0524087433 20.4568305 255 79 163
9.54394402 0.187967322 20.0944567 255 79 163
10.0070202 0.720324073 19.066784 255 79 163
9.38969718 0.397170614 19.7696951 255 79 163
9.88145541 1.11526319 18.8275403 255 79 163
9.23827719 0.720324073 19.4508854 255 79 163
9.80092173 1.56128774 18.6740962 255 79 163
8.03071361 0.0524087433 21.1752515 255 79 163
9.12235831 1.11526319 19.206822 255 79 163
7.88845697 0.187967322 20.8001516 255 79 163
9.04801126 1.56128774 19.0502868 255 79 163
7.39336531 0.0524087433 21.4061156 255 79 163
7.7609657 0.397170614 20.4639847 255 79 163
7.2623987 0.187967322 21.0269262 255 79 163
7.63581093 0.720324073 20.1339787 255 79 163
7.14502563 0.397170614 20.6870942 255 79 163
7.53999927 1.11526319 19.8813441 255 79 163
7.02980363 0.720324073 20.3534903 255 79 163
7.47854842 1.56128774 19.7193116 255 79 163
6.94159595 1.11526319 20.0981014 255 79 163
5.41976615 0.0524087433 21.9888556 255 79 163
6.88502207 1.56128774 19.9343022 255 79 163
5.32376002 0.187967322 21.5993435 255 79 163
5.23771874 0.397170614 21.2502603 255 79 163
5.15325432 0.720324073 20.9075746 255 79 163
5.08859297 1.11526319 20.6452332 255 79 163
5.04712103 1.56128774 20.476975 255 79 163
2.72978629 0.0524087433 22.4818127 255 79 163
2.68143066 0.187967322 22.0835683 255 79 163
2.63809405 0.397170614 21.7266592 255 79 163
2.59555165 0.720324073 21.3762911 255 79 163
2.56298352 1.11526319 21.1080683 255 79 163
2.54209525 1.56128774 20.936038 255 79 163
0 -4.4408921e-16 40.5756383 255 79 163
78.3162978 -4.4408921e-16 40.5756383 255 79 163
78.3162978 0.0842495206 41.3233735 255 79 163
78.3162978 0.33277346 42.0336141 255 79 163
78.3162978 0.733109789 42.6707457 255 79 163
78.3162978 1.26518397 43.2028199 255 79 163
78.3162978 1.90231559 43.6031563 255 79 163
78.3162978 2.6125562 43.8516802 255 79 163
78.3162978 3.36029138 43.9359297 255 79 163
0 3.36029138 43.9359297 255 79 163
0 0.0842495206 41.3233735 255 79 163
0 0.33277346 42.0336141 255 79 163
0 0.733109789 42.6707457 255 79 163
0 1.26518397 43.2028199 255 79 163
0 1.90231559 43.6031563 255 79 163
0 2.6125562 43.8516802 255 79 163
21.0217526 2.09032226 -1.2872111e-15 218 222 230
21.0217526 68.1509687 -1.2872111e-15 218 222 230
20.8620397 68.1714593 2.58634018 218 222 230
20.385343 68.2003114 5.13339254 218 222 230
19.5987453 68.2359741 7.60285394 218 222 230
18.5142105 68.2768858 9.95682117 218 222 230
17.148191 68.3214882 12.159508 218 222 230
15.5214316 68.3682227 14.1774137 218 222 230
13.6586707 68.4155296 15.97982 218 222 230
11.5882637 68.4618486 17.5392787 218 222 230
9.34173199 68.5056199 18.832056 218 222 230
6.95325836 68.545284 19.8385064 218 222 230
4.4591591 68.5792826 20.5433631 218 222 230
2.24236738 68.6029526 20.9018102 218 222 230
2.5744222e-15 68.6201889 21.0217526 218 222 230
1.2872111e-15 2.09032226 21.0217526 218 222 230
20.8684803 2.09032226 2.53389227 218 222 230
20.4108987 2.09032226 5.03083469 218 222 230
19.6556801 2.09032226 7.4544162 218 222 230
18.6138375 2.09032226 9.76929555 218 222 230
17.3005632 2.09032226 11.9417166 218 222 230
15.7350078 2.09032226 13.9400005 218 222 230
13.9400005 2.09032226 15.7350078 218 222 230
11.9417166 2.09032226 17.3005632 218 222 230
9.76929555 2.09032226 18.6138375 218 222 230
7.4544162 2.09032226 19.6556801 218 222 230
5.03083469 2.09032226 20.4108987 218 222 230
2.53389227 2.09032226 20.8684803 218 222 230
20.2692846 78.1635436 43.9359297 218 222 230
77.6381251 34.3646367 43.9359297 218 222 230
0 78.1635436 43.9359297 218 222 230
0 3.36029138 43.9359297 218 222 230
78.3162978 3.36029138 43.9359297 218 222 230
78.3162978 6.2051567 43.9359297 218 222 230
68.8789573 6.2051567 43.9359297 218 222 230
68.8789573 7.01269132 43.9359297 218 222 230
68.8789573 20.6619168 43.9359297 218 222 230
68.8789573 21.5922035 43.9359297 218 222 230
78.3162978 21.2538715 43.9359297 218 222 230
78.3162978 32.9936532 43.9359297 218 222 230
77.9227686 34.0903322 43.9359297 218 222 230
78.1374862 33.7584267 43.9359297 218 222 230
78.2710001 33.3863529 43.9359297 218 222 230
17.7804144 71.3923069 0 255 79 163
18.5480374 71.3001 0 255 79 163
19.244666 71.0427226 0 255 79 163
19.8256061 70.6656186 0 255 79 163
20.1519312 70.3605347 0 255 79 163
20.4769636 69.9495502 0 255 79 163
20.7281933 69.498883 0 255 79 163
20.9009585 69.0275975 0 255 79 163
20.9927661 68.5834849 0 255 79 163
21.0217526 68.1509687 -1.2872111e-15 255 79 163
20.8620397 68.1714593 2.58634018 255 79 163
20.385343 68.2003114 5.13339254 255 79 163
19.5987453 68.2359741 7.60285394 255 79 163
18.5142105 68.2768858 9.95682117 255 79 163
17.148191 68.3214882 12.159508 255 79 163
15.5214316 68.3682227 14.1774137 255 79 163
13.6586707 68.4155296 15.97982 255 79 163
11.5882637 68.4618486 17.5392787 255 79 163
9.34173199 68.5056199 18.832056 255 79 163
6.95325836 68.545284 19.8385064 255 79 163
4.4591591 68.5792826 20.5433631 255 79 163
2.24236738 68.6029526 20.9018102 255 79 163
2.5744222e-15 68.6201889 21.0217526 255 79 163
0 71.3923069 18.2496346 255 79 163
0 71.3177215 18.8883487 255 79 163
0 71.0777028 19.532313 255 79 163
0 70.7166888 20.0632847 255 79 163
0 70.4473071 20.3344073 255 79 163
0 70.0980364 20.5949715 255 79 163
0 69.719051 20.7946573 255 79 163
0 69.3255192 20.9305201 255 79 163
0 68.9681382 20.9998291 255 79 163
17.6663421 71.3923069 2.18399537 255 79 163
17.2927929 71.3923069 4.34199413 255 79 163
16.6681162 71.3923069 6.42848532 255 79 163
15.8006924 71.3923069 8.42191566 255 79 163
14.7031951 71.3923069 10.2942858 255 79 163
13.3916128 71.3923069 12.0191598 255 79 163
11.8850766 71.3923069 13.5720586 255 79 163
10.2056173 71.3923069 14.9308666 255 79 163
8.3778599 71.3923069 16.0762084 255 79 163
6.42867486 71.3923069 16.9917752 255 79 163
4.3868088 71.3923069 17.6645906 255 79 163
2.21318293 71.3923069 18.094624 255 79 163
19.3100551 71.0049391 0.632145376 255 79 163
18.7886234 71.2174936 1.38770785 255 79 163
19.3347321 70.9853643 0.94985544 255 79 163
18.8689038 71.1659878 2.09521975 255 79 163
20.6251722 69.6875404 0.675197502 255 79 163
18.749749 71.1667063 3.01958704 255 79 163
19.1903281 70.9812946 2.68820368 255 79 163
18.2684902 71.2953472 3.48405773 255 79 163
20.7775587 69.2464233 1.53700129 255 79 163
20.5607599 69.7801472 1.01008578 255 79 163
18.5377001 71.1677297 4.16828938 255 79 163
19.6972205 70.4536778 3.91804859 255 79 163
20.6680051 69.3554566 2.29858819 255 79 163
18.3187082 71.1686364 5.07505442 255 79 163
18.8086235 70.984527 4.71509861 255 79 163
20.5310302 69.3619257 3.31007443 255 79 163
20.4111186 69.7482703 2.86159661 255 79 163
17.7729313 71.2962561 5.55384814 255 79 163
20.5529804 68.9683754 3.92706181 255 79 163
17.9854074 71.1698642 6.18682083 255 79 163
19.2255675 70.4612319 5.83205218 255 79 163
20.2889902 69.3711666 4.56940141 255 79 163
17.6690269 71.1709236 7.06540994 255 79 163
18.2177332 70.9883961 6.68665655 255 79 163
18.5693972 70.4699364 7.69173647 255 79 163
20.0412163 69.3793319 5.55967991 255 79 163
19.9941039 69.7612181 5.017154 255 79 163
17.050408 71.2973189 7.54959598 255 79 163
17.2183508 71.172314 8.13138365 255 79 163
19.9677223 68.9912279 6.25902221 255 79 163
19.6615608 69.3905073 6.78492583 255 79 163
16.8079715 71.1734913 8.97143781 255 79 163
17.4238658 70.9927764 8.58408613 255 79 163
17.7345518 70.4795612 9.47934757 255 79 163
19.305944 69.400053 7.74189503 255 79 163
19.3506474 69.7767659 7.1168104 255 79 163
16.3569303 71.1747099 9.79098734 255 79 163
16.835212 70.9956843 9.71108756 255 79 163
15.7995956 71.2988551 9.97593071 255 79 163
19.1188726 69.0180772 8.50876984 255 79 163
18.793251 69.412765 8.91790065 255 79 163
15.7459084 71.1762602 10.7708414 255 79 163
16.7285963 70.4898762 11.1777119 255 79 163
18.3340742 69.4233752 9.82985234 255 79 163
18.4877935 69.7943999 9.13673685 255 79 163
17.8531605 69.8060416 10.3277846 255 79 163
15.7312946 71.0006249 11.4465863 255 79 163
15.2076653 71.1775465 11.5374752 255 79 163
14.5952601 71.3001304 11.7182382 255 79 163
17.8307095 69.4343561 10.7182453 255 79 163
17.6598715 69.0569003 11.2305076 255 79 163
14.4955761 71.1791525 12.4425322 255 79 163
15.5607679 70.5006514 12.770403 255 79 163
17.1373417 69.4485855 11.7979737 255 79 163
16.6572949 69.8259597 12.1712057 255 79 163
14.4516029 71.0057431 13.0554972 255 79 163
13.8762121 71.1804721 13.1469741 255 79 163
14.241906 70.5116566 14.2419071 255 79 163
13.2041698 71.301437 13.3121149 255 79 163
16.5388248 69.4601749 12.6254278 255 79 163
13.0719546 71.1820912 13.966872 255 79 163
16.2558925 69.0893007 13.1831467 255 79 163
15.7302535 69.4749709 13.6220997 255 79 163
15.2719081 69.8466217 13.8775192 255 79 163
13.0103595 71.0109134 14.520033 255 79 163
12.3785653 71.1834099 14.6005093 255 79 163
12.7843657 70.5226619 15.5777828 255 79 163
11.6442228 71.3027386 14.73757 255 79 163
15.0438575 69.4868528 14.3784467 255 79 163
11.4920986 71.1850006 15.3259194 255 79 163
14.6370656 69.1225644 14.9619957 255 79 163
14.1299268 69.5018182 15.2797829 255 79 163
13.7125123 69.8675142 15.4272267 255 79 163
11.4236086 71.0160113 15.8239588 255 79 163
10.7327238 71.1862843 15.8809202 255 79 163
11.2019133 70.5334371 16.7648154 255 79 163
13.3640135 69.5136766 15.9557086 255 79 163
9.93549373 71.3039995 15.9767074 255 79 163
9.77493957 71.1878058 16.5036595 255 79 163
12.8247258 69.1557373 16.5434909 255 79 163
12.3558871 69.5284138 16.7505767 255 79 163
11.9966444 69.8881235 16.8025513 255 79 163
8.95847917 71.1890209 16.9730827 255 79 163
9.70904262 71.0209137 16.9527864 255 79 163
9.50960815 70.5437521 17.791162 255 79 163
11.5198062 69.5399327 17.3377394 255 79 163
10.8736458 69.9004177 17.5538051 255 79 163
8.11932665 71.1901938 17.4017738 255 79 163
8.58459348 71.0238152 17.5619154 255 79 163
7.7236688 70.5533769 18.6464853 255 79 163
7.54224276 71.3055122 17.2773928 255 79 163
10.6558544 69.5512001 17.8831796 255 79 163
7.07718431 71.1915461 17.8641025 255 79 163
10.2512724 69.1966853 18.2521484 255 79 163
9.53380194 69.5649079 18.5074427 255 79 163
8.94676062 69.9194864 18.6151738 255 79 163
6.70223521 71.0281446 18.3813326 255 79 163
6.19517033 71.1926015 18.1988359 255 79 163
5.86132705 70.5620814 19.3220748 255 79 163
5.57659497 71.3065493 18.0353385 255 79 163
8.61468642 69.5753798 18.9540083 255 79 163
5.11151222 71.1937873 18.5434763 255 79 163
8.09013555 69.2260703 19.3087652 255 79 163
7.43033639 69.5878889 19.4503252 255 79 163
6.91732166 69.9369294 19.4653512 255 79 163
4.74485692 71.0319594 18.9967578 255 79 163
4.19723921 71.194692 18.7798959 255 79 163
3.94066935 70.5696355 19.8109515 255 79 163
3.5166856 71.3074415 18.5700614 255 79 163
6.46732597 69.5972493 19.7924721 255 79 163
3.04878616 71.1957025 19.0093738 255 79 163
5.82193337 69.2522306 20.1103798 255 79 163
5.23521684 69.6081627 20.1546798 255 79 163
4.80840857 69.9522333 20.0944345 255 79 163
2.70973479 71.0351744 19.4049353 255 79 163
2.11306711 71.1964198 19.1424914 255 79 163
1.9804676 70.5758092 20.1079565 255 79 163
4.24013958 69.6160958 20.388145 255 79 163
1.4012824 71.2437122 19.0844259 255 79 163
3.59008872 69.273271 20.6268906 255 79 163
3.1452672 69.6238956 20.5863695 255 79 163
2.75668807 69.9643053 20.4800496 255 79 163
0.960924975 71.0473257 19.5600764 255 79 163
2.13141575 69.630226 20.7166053 255 79 163
1.42163309 69.6604338 20.7672242 255 79 163
1.11989533 69.1580003 20.937762 255 79 163
20.07565 70.4315071 0.657208153 255 79 163
20.0288593 70.4662443 0.983955413 255 79 163
19.4226612 70.9078391 1.6735031 255 79 163
20.018026 70.4599615 1.31205335 255 79 163
19.9802681 70.4475041 1.96789273 255 79 163
20.4509131 69.882001 1.76327939 255 79 163
19.9204816 70.4490733 2.51417852 255 79 163
19.88503 70.4499032 2.786679 255 79 163
19.8295607 70.4511067 3.16493928 255 79 163
19.559889 70.4560689 4.56491376 255 79 163
19.4833026 70.4573199 4.88660492 255 79 163
19.402493 70.4585906 5.20310848 255 79 163
18.9907103 70.4645108 6.56658647 255 79 163
18.8627955 70.4662119 6.93040332 255 79 163
18.7684224 70.4674349 7.18547478 255 79 163
18.2187157 70.4741291 8.49896002 255 79 163
18.0302323 70.4762877 8.89671012 255 79 163
17.4155341 70.4829581 10.0602251 255 79 163
17.194675 70.4852374 10.4376131 255 79 163
16.2602432 70.494331 11.8562584 255 79 163
16.032924 70.4964263 12.1653614 255 79 163
14.9217359 70.5061208 13.5197137 255 79 163
13.4149936 70.5180363 15.0319263 255 79 163
11.7569135 70.5297877 16.3758869 255 79 163
10.3234871 70.5389406 17.3259793 255 79 163
8.80074601 70.5477238 18.1566856 255 79 163
6.83755729 70.557687 18.9938992 255 79 163
4.7970659 70.5664475 19.6179028 255 79 163
2.74459196 70.5735921 20.0157373 255 79 163
0 78.1635436 0 218 222 230
30.6130434 78.1635436 -1.11022302e-16 218 222 230
0 78.1635436 43.9359297 218 222 230
20.2692846 78.1635436 43.9359297 218 222 230
20.2692846 78.1635436 22.5641627 218 222 230
78.3162978 78.1635436 22.5641627 218 222 230
78.3162978 78.1635436 0 218 222 230
60.9720259 78.1635436 0 218 222 230
60.5804959 78.1635436 10.0354048 218 222 230
60.2995936 78.1635436 10.0354048 218 222 230
31.3273561 78.1635436 10.0354048 218 222 230
31.1639399 78.1635436 10.0354048 218 222 230
31.1639399 78.1635436 0.259608758 218 222 230
31.0513242 78.1635436 0.150262533 218 222 230
30.9175445 78.1635436 0.0681534962 218 222 230
30.7690609 78.1635436 0.0172465773 218 222 230
0 71.3923069 18.2496346 218 222 230
0 71.3923069 0 218 222 230
17.7804144 71.3923069 0 218 222 230
17.6663421 71.3923069 2.18399537 218 222 230
17.2927929 71.3923069 4.34199413 218 222 230
16.6681162 71.3923069 6.42848532 218 222 230
15.8006924 71.3923069 8.42191566 218 222 230
14.7031951 71.3923069 10.2942858 218 222 230
13.3916128 71.3923069 12.0191598 218 222 230
11.8850766 71.3923069 13.5720586 218 222 230
10.2056173 71.3923069 14.9308666 218 222 230
8.3778599 71.3923069 16.0762084 218 222 230
6.42867486 71.3923069 16.9917752 218 222 230
4.3868088 71.3923069 17.6645906 218 222 230
2.21318293 71.3923069 18.094624 218 222 230
0 78.1635436 0 218 222 230
30.6130434 78.1635436 -1.11022302e-16 218 222 230
0 71.3923069 0 218 222 230
17.7804144 71.3923069 0 218 222 230
18.5480374 71.3001 0 218 222 230
19.244666 71.0427226 0 218 222 230
19.8256061 70.6656186 0 218 222 230
20.1519312 70.3605347 0 218 222 230
20.4769636 69.9495502 0 218 222 230
20.7281933 69.498883 0 218 222 230
20.9009585 69.0275975 0 218 222 230
20.9927661 68.5834849 0 218 222 230
21.0217526 68.1509687 -1.2872111e-15 218 222 230
21.0217526 2.09032226 -1.2872111e-15 218 222 230
21.8862345 0.397170614 -6.9388939e-17 218 222 230
21.533293 0.720324057 -6.59084318e-16 218 222 230
21.2631003 1.11526319 -6.50935225e-16 218 222 230
21.0898064 1.56128776 -6.45835979e-16 218 222 230
21.0388323 1.82365336 -6.44001934e-16 218 222 230
30.6130434 0.759594352 -1.11022302e-16 218 222 230
31.3273561 78.0001274 10.0354048 218 222 230
31.3273561 1.52485625 10.0354048 218 222 230
31.3273561 78.0001274 0.714312646 218 222 230
31.3273561 0.00322243648 0.714312646 218 222 230
31.3273561 0 0.785385317 218 222 230
31.3273561 0 10.0354048 218 222 230
31.3273561 -4.4408921e-16 11.5602611 218 222 230
31.3273561 0.0382313298 11.2209487 218 222 230
31.3273561 0.151008241 10.8986508 218 222 230
31.3273561 0.332675627 10.6095288 218 222 230
31.3273561 0.574123928 10.3680805 218 222 230
31.3273561 0.863245917 10.1864131 218 222 230
31.3273561 1.18554381 10.0736362 218 222 230
31.3273561 0.00322243648 0.714312646 255 79 163
31.3273561 0 0.785385317 255 79 163
23.1079652 -1.38777878e-17 0.435828861 255 79 163
22.6426164 0.0531630873 0.215470569 255 79 163
22.2456723 0.187967321 0.0642076708 255 79 163
22.0453 0.292698963 0.0150587191 255 79 163
21.8862345 0.397170614 -6.9388939e-17 255 79 163
30.6130434 0.759594352 -1.11022302e-16 255 79 163
30.8351918 0.537368114 0.0354219078 255 79 163
31.0313068 0.337570132 0.135263167 255 79 163
31.1242773 0.240797999 0.215431456 255 79 163
31.2204894 0.137800374 0.338477727 255 79 163
31.2873469 0.0619309386 0.478606564 255 79 163
31.3173371 0.0233264974 0.595094349 255 79 163
31.3248953 0.010873378 0.6550725 255 79 163
22.2644255 0.208101404 0.0523683913 255 79 163
25.4545417 0.122364442 0.191950353 255 79 163
26.6278299 0.298051443 0.0750041774 255 79 163
26.8605043 0.174354327 0.174354327 255 79 163
28.3494549 0.084814518 0.339258072 255 79 163
30.9701997 0.226356621 0.226356621 255 79 163
31.0812739 0.143031621 0.327634613 255 79 163
31.1793314 0.0835455531 0.428990515 255 79 163
30.9251971 0.321571569 0.144634152 255 79 163
29.4812492 0.364761196 0.091190299 255 79 163
30.4043026 0.0960051186 0.384020474 255 79 163
30.508673 0.386083828 0.0965209569 255 79 163
31.3273561 -4.4408921e-16 11.5602611 255 79 163
31.3273561 0.0382313298 11.2209487 255 79 163
31.3273561 0.151008241 10.8986508 255 79 163
31.3273561 0.332675627 10.6095288 255 79 163
31.3273561 0.574123928 10.3680805 255 79 163
31.3273561 0.863245917 10.1864131 255 79 163
31.3273561 1.18554381 10.0736362 255 79 163
31.3273561 1.52485625 10.0354048 255 79 163
60.2995936 1.52485625 10.0354048 255 79 163
60.2995936 -4.4408921e-16 11.5602611 255 79 163
60.2995936 0.0382313298 11.2209487 255 79 163
60.2995936 0.151008241 10.8986508 255 79 163
60.2995936 0.332675627 10.6095288 255 79 163
60.2995936 0.574123928 10.3680805 255 79 163
60.2995936 0.863245917 10.1864131 255 79 163
60.2995936 1.18554381 10.0736362 255 79 163
60.2995936 77.4911112 0 218 222 230
60.2995936 0 0 218 222 230
60.2995936 77.8826412 10.0354048 218 222 230
60.2995936 1.52485625 10.0354048 218 222 230
60.2995936 -4.4408921e-16 11.5602611 218 222 230
60.2995936 0.0382313298 11.2209487 218 222 230
60.2995936 0.151008241 10.8986508 218 222 230
60.2995936 0.332675627 10.6095288 218 222 230
60.2995936 0.574123928 10.3680805 218 222 230
60.2995936 0.863245917 10.1864131 218 222 230
60.2995936 1.18554381 10.0736362 218 222 230
60.2995936 0 10.0354048 218 222 230
78.3162978 3.36029138 43.9359297 218 222 230
78.3162978 6.2051567 43.9359297 218 222 230
78.3162978 -4.4408921e-16 40.5756383 218 222 230
78.3162978 0.0842495206 41.3233735 218 222 230
78.3162978 0.33277346 42.0336141 218 222 230
78.3162978 0.733109789 42.6707457 218 222 230
78.3162978 1.26518397 43.2028199 218 222 230
78.3162978 1.90231559 43.6031563 218 222 230
78.3162978 2.6125562 43.8516802 218 222 230
78.3162978 0 0 218 222 230
78.3162978 6.60253333 -1.11022302e-16 218 222 230
78.3162978 6.69380206 0.0102835172 218 222 230
78.3162978 6.78049421 0.0406184103 218 222 230
78.3162978 6.85826265 0.0894835612 218 222 230
78.3162978 6.92320776 0.154428667 218 222 230
78.3162978 6.97207291 0.232197109 218 222 230
78.3162978 7.0024078 0.318889253 218 222 230
78.3162978 7.01269132 0.410157993 218 222 230
78.3162978 7.01269132 43.1283951 218 222 230
78.3162978 6.38485005 43.9156831 218 222 230
78.3162978 6.55553284 43.8559586 218 222 230
78.3162978 6.7086463 43.7597511 218 222 230
78.3162978 6.83651269 43.6318847 218 222 230
78.3162978 6.93272025 43.4787712 218 222 230
78.3162978 6.99244474 43.3080885 218 222 230
60.9720259 78.1635436 0 218 222 230
78.3162978 78.1635436 0 218 222 230
60.8078715 78.1431991 0 218 222 230
60.6591205 78.0863048 0 218 222 230
60.5360722 78.0030776 0 218 222 230
60.4697884 77.9382384 0 218 222 230
60.4025297 77.8486574 0 218 222 230
60.3518679 77.7510521 0 218 222 230
60.3185894 77.6498121 0 218 222 230
60.3041656 77.5693915 0 218 222 230
60.2995936 77.4911112 0 218 222 230
60.2995936 0 0 218 222 230
78.3162978 0 0 218 222 230
78.3162978 6.60253333 -1.11022302e-16 218 222 230
68.1819963 6.60253333 -1.11022302e-16 218 222 230
68.4872449 20.6619168 1.85037171e-17 218 222 230
68.8789573 20.6619168 0 218 222 230
78.3162978 20.6619168 0 218 222 230
20.2692846 78.1635436 43.9359297 218 222 230
77.6381251 34.3646367 43.9359297 218 222 230
20.2692846 78.1635436 22.5641627 218 222 230
77.6381251 34.3646367 22.5641627 218 222 230
77.6381251 34.3646367 43.9359297 255 79 163
77.9227686 34.0903322 43.9359297 255 79 163
78.1374862 33.7584267 43.9359297 255 79 163
78.2710001 33.3863529 43.9359297 255 79 163
78.3162978 32.9936532 43.9359297 255 79 163
78.3162978 32.9936532 22.5641627 255 79 163
77.6381251 34.3646367 22.5641627 255 79 163
77.9227686 34.0903322 22.5641627 255 79 163
78.1374862 33.7584267 22.5641627 255 79 163
78.2710001 33.3863529 22.5641627 255 79 163
78.3162978 21.2538715 43.9359297 218 222 230
78.3162978 32.9936532 43.9359297 218 222 230
78.3162978 21.1093683 43.9180213 218 222 230
78.3162978 20.9784193 43.8679373 218 222 230
78.3162978 20.8700945 43.7946696 218 222 230
78.3162978 20.811743 43.73759 218 222 230
78.3162978 20.7525323 43.6587279 218 222 230
78.3162978 20.7079335 43.5728025 218 222 230
78.3162978 20.6786384 43.4836792 218 222 230
78.3162978 20.6659413 43.4128843 218 222 230
78.3162978 20.6619168 43.343975 218 222 230
78.3162978 20.6619168 0 218 222 230
78.3162978 78.1635436 0 218 222 230
78.3162978 78.1635436 22.5641627 218 222 230
78.3162978 33.8468779 22.5641627 218 222 230
78.3162978 32.9936532 22.5641627 218 222 230
78.3162978 21.2538715 43.9359297 255 79 163
78.3162978 21.1093683 43.9180213 255 79 163
78.3162978 20.9784193 43.8679373 255 79 163
78.3162978 20.8700945 43.7946696 255 79 163
78.3162978 20.811743 43.73759 255 79 163
78.3162978 20.7525323 43.6587279 255 79 163
78.3162978 20.7079335 43.5728025 255 79 163
78.3162978 20.6786384 43.4836792 255 79 163
78.3162978 20.6659413 43.4128843 255 79 163
78.3162978 20.6619168 43.343975 255 79 163
68.8789573 20.6619168 43.0056431 255 79 163
68.8789573 21.5922035 43.9359297 255 79 163
68.8789573 21.3650285 43.9077655 255 79 163
68.8789573 21.159247 43.8290396 255 79 163
68.8789573 20.9890598 43.7139163 255 79 163
68.8789573 20.8973675 43.624219 255 79 163
68.8789573 20.8043411 43.5003209 255 79 163
68.8789573 20.7342569 43.3653109 255 79 163
68.8789573 20.6882082 43.225247 255 79 163
68.8789573 20.668246 43.1139752 255 79 163
68.8789573 20.6619168 43.0056431 218 222 230
68.8789573 20.6619168 0.391712326 218 222 230
68.8789573 7.01269132 0.694792075 218 222 230
68.8789573 7.01269132 43.1283951 218 222 230
68.8789573 6.2051567 43.9359297 218 222 230
68.8789573 6.38485005 43.9156831 218 222 230
68.8789573 6.55553284 43.8559586 218 222 230
68.8789573 6.7086463 43.7597511 218 222 230
68.8789573 6.83651269 43.6318847 218 222 230
68.8789573 6.93272025 43.4787712 218 222 230
68.8789573 6.99244474 43.3080885 218 222 230
68.8789573 7.01269132 43.9359297 218 222 230
68.8789573 20.6619168 43.9359297 218 222 230
68.8789573 21.5922035 43.9359297 218 222 230
68.8789573 21.3650285 43.9077655 218 222 230
68.8789573 21.159247 43.8290396 218 222 230
68.8789573 20.9890598 43.7139163 218 222 230
68.8789573 20.8973675 43.624219 218 222 230
68.8789573 20.8043411 43.5003209 218 222 230
68.8789573 20.7342569 43.3653109 218 222 230
68.8789573 20.6882082 43.225247 218 222 230
68.8789573 20.668246 43.1139752 218 222 230
68.8789573 11.7627401 27.5009181 218 222 230
68.8789573 11.4928305 27.4681452 218 222 230
68.8789573 11.2386071 27.3717309 218 222 230
68.8789573 11.0148444 27.2172787 218 222 230
68.8789573 10.8345467 27.0137646 218 222 230
68.8789573 10.7081922 26.7730162 218 222 230
68.8789573 10.6431242 26.5090249 218 222 230
68.8789573 10.6431242 26.237133 218 222 230
68.8789573 10.7081922 25.9731417 218 222 230
68.8789573 10.8345467 25.7323933 218 222 230
68.8789573 11.0148444 25.5288792 218 222 230
68.8789573 11.2386071 25.374427 218 222 230
68.8789573 11.4928305 25.2780128 218 222 230
68.8789573 11.7627401 25.2452398 218 222 230
68.8789573 12.0326497 25.2780128 218 222 230
68.8789573 12.2868731 25.374427 218 222 230
68.8789573 12.5106358 25.5288792 218 222 230
68.8789573 12.6909335 25.7323933 218 222 230
68.8789573 12.817288 25.9731417 218 222 230
68.8789573 12.882356 26.237133 218 222 230
68.8789573 12.882356 26.5090249 218 222 230
68.8789573 12.817288 26.7730162 218 222 230
68.8789573 12.6909335 27.0137646 218 222 230
68.8789573 12.5106358 27.2172787 218 222 230
68.8789573 12.2868731 27.3717309 218 222 230
68.8789573 12.0326497 27.4681452 218 222 230
68.8789573 6.2051567 43.9359297 255 79 163
78.3162978 6.2051567 43.9359297 255 79 163
78.3162978 6.38485005 43.9156831 255 79 163
78.3162978 6.55553284 43.8559586 255 79 163
78.3162978 6.7086463 43.7597511 255 79 163
78.3162978 6.83651269 43.6318847 255 79 163
78.3162978 6.93272025 43.4787712 255 79 163
78.3162978 6.99244474 43.3080885 255 79 163
78.3162978 7.01269132 43.1283951 255 79 163
68.8789573 7.01269132 43.1283951 255 79 163
68.8789573 6.38485005 43.9156831 255 79 163
68.8789573 6.55553284 43.8559586 255 79 163
68.8789573 6.7086463 43.7597511 255 79 163
68.8789573 6.83651269 43.6318847 255 79 163
68.8789573 6.93272025 43.4787712 255 79 163
68.8789573 6.99244474 43.3080885 255 79 163
31.3273561 78.0001274 0.714312646 255 79 163
31.3068495 78.0793844 0.544384423 255 79 163
31.25585 78.1352472 0.402796601 255 79 163
31.2126803 78.1561056 0.326139848 255 79 163
31.1639399 78.1635436 0.259608758 255 79 163
31.3273561 0.00322243648 0.714312646 255 79 163
30.6130434 0.759594352 -1.11022302e-16 255 79 163
30.8351918 0.537368114 0.0354219078 255 79 163
31.0313068 0.337570132 0.135263167 255 79 163
31.1242773 0.240797999 0.215431456 255 79 163
31.2204894 0.137800374 0.338477727 255 79 163
31.2873469 0.0619309386 0.478606564 255 79 163
31.3173371 0.0233264974 0.595094349 255 79 163
31.3248953 0.010873378 0.6550725 255 79 163
30.6130434 78.1635436 -1.11022302e-16 255 79 163
31.0513242 78.1635436 0.150262533 255 79 163
30.9175445 78.1635436 0.0681534962 255 79 163
30.7690609 78.1635436 0.0172465773 255 79 163
31.3273561 78.0001274 0.714312646 255 79 163
31.3068495 78.0793844 0.544384423 255 79 163
31.25585 78.1352472 0.402796601 255 79 163
31.2126803 78.1561056 0.326139848 255 79 163
31.1639399 78.1635436 0.259608758 255 79 163
31.1639399 78.1635436 10.0354048 255 79 163
31.2003034 78.1594464 10.0354048 255 79 163
31.2348435 78.1473603 10.0354048 255 79 163
31.2658282 78.1278913 10.0354048 255 79 163
31.2917038 78.1020157 10.0354048 255 79 163
31.3111728 78.071031 10.0354048 255 79 163
31.3232589 78.0364909 10.0354048 255 79 163
31.3273561 78.0001274 10.0354048 255 79 163
60.2995936 77.8826412 10.0354048 218 222 230
60.2995936 1.52485625 10.0354048 218 222 230
60.5804959 78.1635436 10.0354048 218 222 230
60.5119377 78.1550488 10.0354048 218 222 230
60.4497962 78.1312849 10.0354048 218 222 230
60.398384 78.0965135 10.0354048 218 222 230
60.3555308 78.0508578 10.0354048 218 222 230
60.3242584 77.9977431 10.0354048 218 222 230
60.3058125 77.9414217 10.0354048 218 222 230
60.301095 77.9116459 10.0354048 218 222 230
60.2995936 78.1635436 10.0354048 218 222 230
31.3273561 78.1635436 10.0354048 218 222 230
31.1639399 78.1635436 10.0354048 218 222 230
31.2003034 78.1594464 10.0354048 218 222 230
31.2348435 78.1473603 10.0354048 218 222 230
31.2658282 78.1278913 10.0354048 218 222 230
31.2917038 78.1020157 10.0354048 218 222 230
31.3111728 78.071031 10.0354048 218 222 230
31.3232589 78.0364909 10.0354048 218 222 230
31.3273561 78.0001274 10.0354048 218 222 230
31.3273561 1.52485625 10.0354048 218 222 230
20.2692846 78.1635436 22.5641627 218 222 230
77.6381251 34.3646367 22.5641627 218 222 230
77.9227686 34.0903322 22.5641627 218 222 230
78.1374862 33.7584267 22.5641627 218 222 230
78.2710001 33.3863529 22.5641627 218 222 230
78.3162978 32.9936532 22.5641627 218 222 230
78.3162978 33.8468779 22.5641627 218 222 230
78.3162978 78.1635436 22.5641627 218 222 230
60.5804959 78.1635436 10.0354048 255 79 163
60.5119377 78.1550488 10.0354048 255 79 163
60.4497962 78.1312849 10.0354048 255 79 163
60.398384 78.0965135 10.0354048 255 79 163
60.3555308 78.0508578 10.0354048 255 79 163
60.3242584 77.9977431 10.0354048 255 79 163
60.3058125 77.9414217 10.0354048 255 79 163
60.301095 77.9116459 10.0354048 255 79 163
60.2995936 77.8826412 10.0354048 255 79 163
60.2995936 77.4911112 0 255 79 163
60.9720259 78.1635436 0 255 79 163
60.8078715 78.1431991 0 255 79 163
60.6591205 78.0863048 0 255 79 163
60.5360722 78.0030776 0 255 79 163
60.4697884 77.9382384 0 255 79 163
60.4025297 77.8486574 0 255 79 163
60.3518679 77.7510521 0 255 79 163
60.3185894 77.6498121 0 255 79 163
60.3041656 77.5693915 0 255 79 163
78.3162978 7.01269132 43.1283951 218 222 230
78.3162978 7.01269132 0.410157993 218 222 230
68.8789573 7.01269132 43.1283951 218 222 230
68.8789573 7.01269132 0.694792075 218 222 230
68.8179786 7.01269132 0.410157993 218 222 230
68.852718 7.01269132 0.505654252 218 222 230
68.8726671 7.01269132 0.601511786 218 222 230
68.1819963 6.60253333 -1.11022302e-16 255 79 163
68.3819908 6.75435929 0.0291350849 255 79 163
68.5425141 6.87082567 0.0999180727 255 79 163
68.6365202 6.93335537 0.167699013 255 79 163
68.7243648 6.98341157 0.25796948 255 79 163
68.7764579 7.00510026 0.331612199 255 79 163
68.8179786 7.01269132 0.410157993 255 79 163
78.3162978 7.01269132 0.410157993 255 79 163
78.3162978 6.60253333 -1.11022302e-16 255 79 163
78.3162978 6.69380206 0.0102835172 255 79 163
78.3162978 6.78049421 0.0406184103 255 79 163
78.3162978 6.85826265 0.0894835612 255 79 163
78.3162978 6.92320776 0.154428667 255 79 163
78.3162978 6.97207291 0.232197109 255 79 163
78.3162978 7.0024078 0.318889253 255 79 163
68.8789573 20.6619168 43.0056431 218 222 230
68.8789573 20.6619168 0.391712326 218 222 230
78.3162978 20.6619168 43.343975 218 222 230
78.3162978 20.6619168 0 218 222 230
68.8789573 20.6619168 0 218 222 230
68.4872449 20.6619168 1.85037171e-17 218 222 230
68.5828466 20.6619168 0.0118453951 218 222 230
68.6695018 20.6619168 0.0449833593 218 222 230
68.7411959 20.6619168 0.0934716888 218 222 230
68.8009544 20.6619168 0.157138439 218 222 230
68.8445633 20.6619168 0.231206461 218 222 230
68.8702854 20.6619168 0.309745461 218 222 230
68.8768636 20.6619168 0.351266687 218 222 230
68.1819963 6.60253333 -1.11022302e-16 255 79 163
68.3819908 6.75435929 0.0291350849 255 79 163
68.5425141 6.87082567 0.0999180727 255 79 163
68.6365202 6.93335537 0.167699013 255 79 163
68.7243648 6.98341157 0.25796948 255 79 163
68.7764579 7.00510026 0.331612199 255 79 163
68.8179786 7.01269132 0.410157993 255 79 163
68.4872449 20.6619168 1.85037171e-17 255 79 163
68.5828466 20.6619168 0.0118453951 255 79 163
68.6695018 20.6619168 0.0449833593 255 79 163
68.7411959 20.6619168 0.0934716888 255 79 163
68.8009544 20.6619168 0.157138439 255 79 163
68.8445633 20.6619168 0.231206461 255 79 163
68.8702854 20.6619168 0.309745461 255 79 163
68.8768636 20.6619168 0.351266687 255 79 163
68.8789573 20.6619168 0.391712326 255 79 163
68.8789573 7.01269132 0.694792075 255 79 163
68.852718 7.01269132 0.505654252 255 79 163
68.8726671 7.01269132 0.601511786 255 79 163
68.6754574 7.01269132 0.203499887 255 79 163
68.5319181 13.8373041 0.0385599098 255 79 163
68.8426238 18.3870459 0.255363487 255 79 163
68.7896466 17.2496104 0.183671629 255 79 163
68.8049351 17.2496104 0.205617076 255 79 163
68.7461078 10.4249977 0.250480489 255 79 163
68.7744213 10.4249977 0.290377742 255 79 163
68.6881165 19.5244814 0.0620029184 255 79 163
68.8326719 20.0931991 0.211965923 255 79 163
68.6813835 20.3775579 0.0527902687 255 79 163
68.8789573 11.7627401 27.5009181 255 79 163
68.8757521 11.7627401 27.4724712 255 79 163
68.8662972 11.7627401 27.4454508 255 79 163
68.8510668 11.7627401 27.4212117 255 79 163
68.8308245 11.7627401 27.4009694 255 79 163
68.8065854 11.7627401 27.385739 255 79 163
68.779565 11.7627401 27.3762842 255 79 163
68.7511181 11.7627401 27.373079 255 79 163
68.8789573 11.4928305 27.4681452 255 79 163
68.8789573 11.2386071 27.3717309 255 79 163
68.8789573 11.0148444 27.2172787 255 79 163
68.8789573 10.8345467 27.0137646 255 79 163
68.8789573 10.7081922 26.7730162 255 79 163
68.8789573 10.6431242 26.5090249 255 79 163
68.8789573 10.6431242 26.237133 255 79 163
68.8789573 10.7081922 25.9731417 255 79 163
68.8789573 10.8345467 25.7323933 255 79 163
68.8789573 11.0148444 25.5288792 255 79 163
68.8789573 11.2386071 25.374427 255 79 163
68.8789573 11.4928305 25.2780128 255 79 163
68.8789573 11.7627401 25.2452398 255 79 163
68.8789573 12.0326497 25.2780128 255 79 163
68.8789573 12.2868731 25.374427 255 79 163
68.8789573 12.5106358 25.5288792 255 79 163
68.8789573 12.6909335 25.7323933 255 79 163
68.8789573 12.817288 25.9731417 255 79 163
68.8789573 12.882356 26.237133 255 79 163
68.8789573 12.882356 26.5090249 255 79 163
68.8789573 12.817288 26.7730162 255 79 163
68.8789573 12.6909335 27.0137646 255 79 163
68.8789573 12.5106358 27.2172787 255 79 163
68.8789573 12.2868731 27.3717309 255 79 163
68.8789573 12.0326497 27.4681452 255 79 163
68.8789573 11.7627401 27.5009181 255 79 163
68.8757521 11.7627401 27.4724712 255 79 163
68.8662972 11.7627401 27.4454508 255 79 163
68.8510668 11.7627401 27.4212117 255 79 163
68.8308245 11.7627401 27.4009694 255 79 163
68.8065854 11.7627401 27.385739 255 79 163
68.779565 11.7627401 27.3762842 255 79 163
68.7511181 11.7627401 27.373079 255 79 163
68.7511181 11.5234244 27.3440208 255 79 163
68.7511181 11.2980169 27.258535 255 79 163
68.7511181 11.0996174 27.1215897 255 79 163
68.7511181 10.9397562 26.9411437 255 79 163
68.7511181 10.8277238 26.7276838 255 79 163
68.7511181 10.7700312 26.4936156 255 79 163
68.7511181 10.7700312 26.2525423 255 79 163
68.7511181 10.8277238 26.0184741 255 79 163
68.7511181 10.9397562 25.8050142 255 79 163
68.7511181 11.0996174 25.6245682 255 79 163
68.7511181 11.2980169 25.4876229 255 79 163
68.7511181 11.5234244 25.4021371 255 79 163
68.7511181 11.7627401 25.373079 255 79 163
68.7511181 12.0020558 25.4021371 255 79 163
68.7511181 12.2274633 25.4876229 255 79 163
68.7511181 12.4258627 25.6245682 255 79 163
68.7511181 12.585724 25.8050142 255 79 163
68.7511181 12.6977563 26.0184741 255 79 163
68.7511181 12.755449 26.2525423 255 79 163
68.7511181 12.755449 26.4936156 255 79 163
68.7511181 12.6977563 26.7276838 255 79 163
68.7511181 12.585724 26.9411437 255 79 163
68.7511181 12.4258627 27.1215897 255 79 163
68.7511181 12.2274633 27.258535 255 79 163
68.7511181 12.0020558 27.3440208 255 79 163
68.8757521 11.4996383 27.4405249 255 79 163
68.8662972 11.5061047 27.4142896 255 79 163
68.8510668 11.5119055 27.3907549 255 79 163
68.8308245 11.5167498 27.3711008 255 79 163
68.8065854 11.5203947 27.356313 255 79 163
68.779565 11.5226574 27.3471328 255 79 163
68.8757521 11.251827 27.3465425 255 79 163
68.8662972 11.2643841 27.322617 255 79 163
68.8510668 11.2756485 27.3011544 255 79 163
68.8308245 11.2850556 27.2832308 255 79 163
68.8065854 11.2921335 27.2697449 255 79 163
68.779565 11.2965274 27.261373 255 79 163
68.8757521 11.0337082 27.1959859 255 79 163
68.8662972 11.051626 27.1757608 255 79 163
68.8510668 11.0676995 27.1576176 255 79 163
68.8308245 11.0811226 27.142466 255 79 163
68.8065854 11.0912223 27.1310659 255 79 163
68.779565 11.097492 27.1239888 255 79 163
68.8757521 10.857958 26.9976049 255 79 163
68.8662972 10.8801954 26.9822556 255 79 163
68.8510668 10.9001438 26.9684862 255 79 163
68.8308245 10.9168028 26.9569873 255 79 163
68.8065854 10.9293372 26.9483354 255 79 163
68.779565 10.9371184 26.9429645 255 79 163
68.8757521 10.7347905 26.7629288 255 79 163
68.8662972 10.760055 26.7533472 255 79 163
68.8510668 10.7827189 26.744752 255 79 163
68.8308245 10.8016458 26.7375739 255 79 163
68.8065854 10.8158865 26.7321732 255 79 163
68.779565 10.8247269 26.7288204 255 79 163
68.8757521 10.6713636 26.5055961 255 79 163
68.8662972 10.6981871 26.5023391 255 79 163
68.8510668 10.7222494 26.4994174 255 79 163
68.8308245 10.7423441 26.4969775 255 79 163
68.8065854 10.7574635 26.4951416 255 79 163
68.779565 10.7668494 26.494002 255 79 163
68.8757521 10.6713636 26.2405619 255 79 163
68.8662972 10.6981871 26.2438188 255 79 163
68.8510668 10.7222494 26.2467405 255 79 163
68.8308245 10.7423441 26.2491805 255 79 163
68.8065854 10.7574635 26.2510163 255 79 163
68.779565 10.7668494 26.2521559 255 79 163
68.8757521 10.7347905 25.9832291 255 79 163
68.8662972 10.760055 25.9928107 255 79 163
68.8510668 10.7827189 26.001406 255 79 163
68.8308245 10.8016458 26.008584 255 79 163
68.8065854 10.8158865 26.0139848 255 79 163
68.779565 10.8247269 26.0173375 255 79 163
68.8757521 10.857958 25.748553 255 79 163
68.8662972 10.8801954 25.7639023 255 79 163
68.8510668 10.9001438 25.7776717 255 79 163
68.8308245 10.9168028 25.7891706 255 79 163
68.8065854 10.9293372 25.7978225 255 79 163
68.779565 10.9371184 25.8031935 255 79 163
68.8757521 11.0337082 25.550172 255 79 163
68.8662972 11.051626 25.5703971 255 79 163
68.8510668 11.0676995 25.5885403 255 79 163
68.8308245 11.0811226 25.6036919 255 79 163
68.8065854 11.0912223 25.615092 255 79 163
68.779565 11.097492 25.6221691 255 79 163
68.8757521 11.251827 25.3996155 255 79 163
68.8662972 11.2643841 25.4235409 255 79 163
68.8510668 11.2756485 25.4450035 255 79 163
68.8308245 11.2850556 25.4629271 255 79 163
68.8065854 11.2921335 25.476413 255 79 163
68.779565 11.2965274 25.4847849 255 79 163
68.8757521 11.4996383 25.305633 255 79 163
68.8662972 11.5061047 25.3318683 255 79 163
68.8510668 11.5119055 25.355403 255 79 163
68.8308245 11.5167498 25.3750571 255 79 163
68.8065854 11.5203947 25.389845 255 79 163
68.779565 11.5226574 25.3990251 255 79 163
68.8757521 11.7627401 25.2736867 255 79 163
68.8662972 11.7627401 25.3007071 255 79 163
68.8510668 11.7627401 25.3249462 255 79 163
68.8308245 11.7627401 25.3451885 255 79 163
68.8065854 11.7627401 25.3604189 255 79 163
68.779565 11.7627401 25.3698738 255 79 163
68.8757521 12.0258419 25.305633 255 79 163
68.8662972 12.0193755 25.3318683 255 79 163
68.8510668 12.0135747 25.355403 255 79 163
68.8308245 12.0087304 25.3750571 255 79 163
68.8065854 12.0050855 25.389845 255 79 163
68.779565 12.0028228 25.3990251 255 79 163
68.8757521 12.2736532 25.3996155 255 79 163
68.8662972 12.2610961 25.4235409 255 79 163
68.8510668 12.2498317 25.4450035 255 79 163
68.8308245 12.2404246 25.4629271 255 79 163
68.8065854 12.2333467 25.476413 255 79 163
68.779565 12.2289528 25.4847849 255 79 163
68.8757521 12.491772 25.550172 255 79 163
68.8662972 12.4738541 25.5703971 255 79 163
68.8510668 12.4577807 25.5885403 255 79 163
68.8308245 12.4443576 25.6036919 255 79 163
68.8065854 12.4342579 25.615092 255 79 163
68.779565 12.4279882 25.6221691 255 79 163
68.8757521 12.6675222 25.748553 255 79 163
68.8662972 12.6452848 25.7639023 255 79 163
68.8510668 12.6253364 25.7776717 255 79 163
68.8308245 12.6086774 25.7891706 255 79 163
68.8065854 12.596143 25.7978225 255 79 163
68.779565 12.5883618 25.8031935 255 79 163
68.8757521 12.7906897 25.9832291 255 79 163
68.8662972 12.7654252 25.9928107 255 79 163
68.8510668 12.7427612 26.001406 255 79 163
68.8308245 12.7238344 26.008584 255 79 163
68.8065854 12.7095937 26.0139848 255 79 163
68.779565 12.7007532 26.0173375 255 79 163
68.8757521 12.8541165 26.2405619 255 79 163
68.8662972 12.8272931 26.2438188 255 79 163
68.8510668 12.8032308 26.2467405 255 79 163
68.8308245 12.7831361 26.2491805 255 79 163
68.8065854 12.7680167 26.2510163 255 79 163
68.779565 12.7586308 26.2521559 255 79 163
68.8757521 12.8541165 26.5055961 255 79 163
68.8662972 12.8272931 26.5023391 255 79 163
68.8510668 12.8032308 26.4994174 255 79 163
68.8308245 12.7831361 26.4969775 255 79 163
68.8065854 12.7680167 26.4951416 255 79 163
68.779565 12.7586308 26.494002 255 79 163
68.8757521 12.7906897 26.7629288 255 79 163
68.8662972 12.7654252 26.7533472 255 79 163
68.8510668 12.7427612 26.744752 255 79 163
68.8308245 12.7238344 26.7375739 255 79 163
68.8065854 12.7095937 26.7321732 255 79 163
68.779565 12.7007532 26.7288204 255 79 163
68.8757521 12.6675222 26.9976049 255 79 163
68.8662972 12.6452848 26.9822556 255 79 163
68.8510668 12.6253364 26.9684862 255 79 163
68.8308245 12.6086774 26.9569873 255 79 163
68.8065854 12.596143 26.9483354 255 79 163
68.779565 12.5883618 26.9429645 255 79 163
68.8757521 12.491772 27.1959859 255 79 163
68.8662972 12.4738541 27.1757608 255 79 163
68.8510668 12.4577807 27.1576176 255 79 163
68.8308245 12.4443576 27.142466 255 79 163
68.8065854 12.4342579 27.1310659 255 79 163
68.779565 12.4279882 27.1239888 255 79 163
68.8757521 12.2736532 27.3465425 255 79 163
68.8662972 12.2610961 27.322617 255 79 163
68.8510668 12.2498317 27.3011544 255 79 163
68.8308245 12.2404246 27.2832308 255 79 163
68.8065854 12.2333467 27.2697449 255 79 163
68.779565 12.2289528 27.261373 255 79 163
68.8757521 12.0258419 27.4405249 255 79 163
68.8662972 12.0193755 27.4142896 255 79 163
68.8510668 12.0135747 27.3907549 255 79 163
68.8308245 12.0087304 27.3711008 255 79 163
68.8065854 12.0050855 27.356313 255 79 163
68.779565 12.0028228 27.3471328 255 79 163
68.7511181 11.7627401 27.373079 218 222 230
31.4258071 11.7627401 27.373079 218 222 230
31.4258071 11.5234244 27.3440208 218 222 230
31.4258071 11.2980169 27.258535 218 222 230
31.4258071 11.0996174 27.1215897 218 222 230
31.4258071 10.9397562 26.9411437 218 222 230
31.4258071 10.8277238 26.7276838 218 222 230
31.4258071 10.7700312 26.4936156 218 222 230
31.4258071 10.7700312 26.2525423 218 222 230
31.4258071 10.8277238 26.0184741 218 222 230
31.4258071 10.9397562 25.8050142 218 222 230
31.4258071 11.0996174 25.6245682 218 222 230
31.4258071 11.2980169 25.4876229 218 222 230
31.4258071 11.5234244 25.4021371 218 222 230
31.4258071 11.7627401 25.373079 218 222 230
31.4258071 12.0020558 25.4021371 218 222 230
31.4258071 12.2274633 25.4876229 218 222 230
31.4258071 12.4258627 25.6245682 218 222 230
31.4258071 12.585724 25.8050142 218 222 230
31.4258071 12.6977563 26.0184741 218 222 230
31.4258071 12.755449 26.2525423 218 222 230
31.4258071 12.755449 26.4936156 218 222 230
31.4258071 12.6977563 26.7276838 218 222 230
31.4258071 12.585724 26.9411437 218 222 230
31.4258071 12.4258627 27.1215897 218 222 230
31.4258071 12.2274633 27.258535 218 222 230
31.4258071 12.0020558 27.3440208 218 222 230
31.4258071 11.7627401 27.373079 218 222 230
68.7511181 11.7627401 27.373079 218 222 230
68.7511181 11.5234244 27.3440208 218 222 230
68.7511181 11.2980169 27.258535 218 222 230
68.7511181 11.0996174 27.1215897 218 222 230
68.7511181 10.9397562 26.9411437 218 222 230
68.7511181 10.8277238 26.7276838 218 222 230
68.7511181 10.7700312 26.4936156 218 222 230
68.7511181 10.7700312 26.2525423 218 222 230
68.7511181 10.8277238 26.0184741 218 222 230
68.7511181 10.9397562 25.8050142 218 222 230
68.7511181 11.0996174 25.6245682 218 222 230
68.7511181 11.2980169 25.4876229 218 222 230
68.7511181 11.5234244 25.4021371 218 222 230
68.7511181 11.7627401 25.373079 218 222 230
68.7511181 12.0020558 25.4021371 218 222 230
68.7511181 12.2274633 25.4876229 218 222 230
68.7511181 12.4258627 25.6245682 218 222 230
68.7511181 12.585724 25.8050142 218 222 230
68.7511181 12.6977563 26.0184741 218 222 230
68.7511181 12.755449 26.2525423 218 222 230
68.7511181 12.755449 26.4936156 218 222 230
68.7511181 12.6977563 26.7276838 218 222 230
68.7511181 12.585724 26.9411437 218 222 230
68.7511181 12.4258627 27.1215897 218 222 230
68.7511181 12.2274633 27.258535 218 222 230
68.7511181 12.0020558 27.3440208 218 222 230
31.4258071 11.7627401 27.373079 218 222 230
31.4258071 11.5234244 27.3440208 218 222 230
31.4258071 11.2980169 27.258535 218 222 230
31.4258071 11.0996174 27.1215897 218 222 230
31.4258071 10.9397562 26.9411437 218 222 230
31.4258071 10.8277238 26.7276838 218 222 230
31.4258071 10.7700312 26.4936156 218 222 230
31.4258071 10.7700312 26.2525423 218 222 230
31.4258071 10.8277238 26.0184741 218 222 230
31.4258071 10.9397562 25.8050142 218 222 230
31.4258071 11.0996174 25.6245682 218 222 230
31.4258071 11.2980169 25.4876229 218 222 230
31.4258071 11.5234244 25.4021371 218 222 230
31.4258071 11.7627401 25.373079 218 222 230
31.4258071 12.0020558 25.4021371 218 222 230
31.4258071 12.2274633 25.4876229 218 222 230
31.4258071 12.4258627 25.6245682 218 222 230
31.4258071 12.585724 25.8050142 218 222 230
31.4258071 12.6977563 26.0184741 218 222 230
31.4258071 12.755449 26.2525423 218 222 230
31.4258071 12.755449 26.4936156 218 222 230
31.4258071 12.6977563 26.7276838 218 222 230
31.4258071 12.585724 26.9411437 218 222 230
31.4258071 12.4258627 27.1215897 218 222 230
31.4258071 12.2274633 27.258535 218 222 230
31.4258071 12.0020558 27.3440208 218 222 230
3 10 20 19
3 21 10 11
3 21 11 12
3 21 12 13
3 21 13 14
3 21 14 15
3 21 15 16
3 21 16 17
3 21 17 18
3 21 18 9
3 21 20 10
3 4 6 5
3 4 7 6
3 4 8 7
3 0 3 2
3 0 4 3
3 0 8 4
3 1 8 0
3 22 9 8
3 22 21 9
3 22 8 1
3 27 28 22
3 27 22 1
3 25 1 23
3 25 23 24
3 26 1 25
3 26 27 1
3 29 32 31
3 29 33 32
3 46 40 39
3 46 41 40
3 46 42 41
3 46 43 42
3 46 44 43
3 46 45 44
3 30 34 33
3 30 33 29
3 52 35 34
3 52 36 35
3 52 37 36
3 52 38 37
3 52 39 38
3 52 46 39
3 52 34 30
3 48 50 49
3 48 51 50
3 47 52 51
3 47 46 52
3 47 51 48
3 80 79 95
3 72 70 71
3 73 70 72
3 78 91 77
3 96 53 58
3 97 54 53
3 97 53 96
3 97 96 58
3 98 55 54
3 98 56 55
3 98 57 56
3 98 92 57
3 98 54 97
3 99 92 98
3 100 92 99
3 100 93 92
3 101 94 93
3 101 95 94
3 101 93 100
3 101 80 95
3 102 58 59
3 103 97 58
3 103 58 102
3 104 97 103
3 104 98 97
3 105 99 98
3 105 98 104
3 106 100 99
3 106 99 105
3 107 100 106
3 107 81 80
3 107 80 101
3 107 101 100
3 108 59 60
3 108 102 59
3 109 102 108
3 109 103 102
3 110 104 103
3 110 103 109
3 111 105 104
3 111 104 110
3 112 106 105
3 112 105 111
3 113 81 107
3 113 82 81
3 113 106 112
3 113 107 106
3 114 60 61
3 114 108 60
3 115 108 114
3 115 109 108
3 116 109 115
3 116 110 109
3 116 111 110
3 117 111 116
3 118 111 117
3 118 112 111
3 119 83 82
3 119 82 113
3 119 113 112
3 119 118 83
3 119 112 118
3 120 61 62
3 120 114 61
3 121 115 114
3 121 114 120
3 122 62 63
3 122 120 62
3 123 115 121
3 123 116 115
3 124 121 120
3 124 120 122
3 125 117 116
3 125 116 123
3 126 123 121
3 126 121 124
3 127 83 118
3 127 118 117
3 127 117 125
3 128 125 123
3 128 123 126
3 128 127 125
3 129 84 83
3 129 83 127
3 130 122 63
3 130 124 122
3 131 127 128
3 132 126 124
3 132 124 130
3 133 127 131
3 133 129 127
3 133 84 129
3 134 126 132
3 135 63 64
3 135 130 63
3 135 132 130
3 136 128 126
3 136 126 134
3 137 132 135
3 137 134 132
3 138 134 137
3 139 131 128
3 139 128 136
3 140 136 134
3 140 134 138
3 141 131 139
3 141 85 84
3 141 84 133
3 141 133 131
3 142 137 135
3 142 135 64
3 143 139 136
3 143 136 140
3 144 137 142
3 145 85 141
3 145 141 139
3 145 139 143
3 146 138 137
3 146 140 138
3 146 137 144
3 147 64 65
3 147 142 64
3 148 140 146
3 149 144 142
3 149 142 147
3 150 143 140
3 150 140 148
3 151 146 144
3 151 148 146
3 151 144 149
3 152 85 145
3 152 145 143
3 152 86 85
3 152 143 150
3 153 147 65
3 154 148 151
3 154 150 148
3 155 149 147
3 155 147 153
3 156 150 154
3 157 151 149
3 157 149 155
3 158 86 152
3 158 152 150
3 158 150 156
3 159 154 151
3 159 151 157
3 160 65 66
3 160 153 65
3 161 155 153
3 161 153 160
3 162 156 154
3 162 154 159
3 163 155 161
3 163 157 155
3 164 87 86
3 164 86 158
3 164 158 156
3 164 156 162
3 165 160 66
3 166 159 157
3 166 157 163
3 167 160 165
3 167 161 160
3 168 159 166
3 168 162 159
3 169 163 161
3 169 161 167
3 170 87 164
3 170 164 162
3 170 162 168
3 171 166 163
3 171 168 166
3 171 163 169
3 172 66 67
3 172 165 66
3 173 170 168
3 173 168 171
3 174 169 167
3 174 165 172
3 174 167 165
3 175 170 173
3 175 88 87
3 175 87 170
3 176 169 174
3 177 172 67
3 178 172 177
3 178 174 172
3 178 176 174
3 179 171 169
3 179 169 176
3 180 176 178
3 181 173 171
3 181 171 179
3 182 176 180
3 182 179 176
3 183 175 173
3 183 88 175
3 183 173 181
3 184 67 68
3 184 177 67
3 185 181 179
3 185 179 182
3 185 183 181
3 186 177 184
3 186 178 177
3 187 89 88
3 187 88 183
3 187 183 185
3 188 184 68
3 188 186 184
3 189 178 186
3 189 180 178
3 190 186 188
3 191 182 180
3 191 180 189
3 192 189 186
3 192 186 190
3 193 182 191
3 193 185 182
3 194 191 189
3 194 189 192
3 195 89 187
3 195 187 185
3 195 185 193
3 196 193 191
3 196 191 194
3 197 188 68
3 197 68 69
3 198 90 89
3 198 89 195
3 198 195 193
3 198 193 196
3 199 197 69
3 199 190 188
3 199 188 197
3 200 190 199
3 200 192 190
3 201 194 192
3 201 192 200
3 202 194 201
3 202 196 194
3 202 198 196
3 203 198 202
3 203 90 198
3 204 69 70
3 205 70 73
3 205 199 69
3 205 204 70
3 205 69 204
3 206 205 73
3 206 199 205
3 206 73 74
3 206 200 199
3 207 200 206
3 207 206 74
3 207 74 75
3 207 201 200
3 208 207 75
3 208 201 207
3 208 75 76
3 208 202 201
3 209 203 202
3 209 90 203
3 209 208 76
3 209 202 208
3 209 76 77
3 209 77 91
3 209 91 90
3 217 218 219
3 217 219 225
3 216 224 223
3 216 225 224
3 216 217 225
3 215 216 223
3 214 222 221
3 214 223 222
3 214 215 223
3 213 214 221
3 212 221 220
3 212 213 221
3 211 220 210
3 211 212 220
3 242 227 226
3 242 228 227
3 243 229 228
3 243 228 242
3 244 230 229
3 244 229 243
3 245 231 230
3 245 230 244
3 246 232 231
3 246 231 245
3 247 233 232
3 247 232 246
3 248 234 233
3 248 233 247
3 249 235 234
3 249 234 248
3 250 236 235
3 250 235 249
3 251 237 236
3 251 236 250
3 252 238 237
3 252 237 251
3 253 239 238
3 253 238 252
3 241 240 239
3 241 239 253
3 261 257 260
3 258 260 257
3 259 260 258
3 262 257 261
3 263 257 262
3 254 256 257
3 254 257 263
3 265 263 264
3 267 265 268
3 255 263 265
3 255 254 263
3 266 265 267
3 266 255 265
3 313 270 271
3 313 271 272
3 314 270 313
3 314 269 270
3 314 301 269
3 315 314 313
3 316 301 314
3 317 274 275
3 317 275 276
3 318 316 319
3 318 301 316
3 320 301 318
3 320 302 301
3 321 276 277
3 321 277 278
3 321 278 279
3 321 322 317
3 321 317 276
3 323 318 324
3 323 302 320
3 323 320 318
3 325 321 279
3 326 302 323
3 326 323 327
3 328 329 325
3 328 325 279
3 330 303 302
3 330 302 326
3 331 279 280
3 331 328 279
3 332 303 330
3 332 326 333
3 332 330 326
3 334 331 280
3 334 324 328
3 334 328 331
3 335 303 332
3 335 336 337
3 335 332 336
3 338 334 280
3 338 339 334
3 340 304 303
3 340 303 335
3 341 340 335
3 341 304 340
3 341 335 337
3 342 280 281
3 342 338 280
3 343 338 342
3 343 342 281
3 343 333 338
3 344 304 341
3 344 341 345
3 344 345 346
3 347 343 281
3 347 348 343
3 347 337 348
3 349 304 344
3 350 344 346
3 350 349 344
3 351 304 349
3 351 305 304
3 352 281 282
3 352 347 281
3 353 352 282
3 353 337 347
3 353 347 352
3 354 349 355
3 354 351 349
3 354 305 351
3 356 353 282
3 356 357 353
3 356 346 357
3 358 346 356
3 359 354 355
3 360 305 354
3 360 354 359
3 361 306 305
3 361 305 360
3 362 356 282
3 362 358 356
3 363 282 283
3 363 362 282
3 364 306 361
3 364 360 365
3 364 361 360
3 366 355 362
3 366 363 283
3 366 362 363
3 367 355 366
3 368 364 365
3 369 306 364
3 369 364 368
3 369 368 370
3 371 307 306
3 371 306 369
3 372 366 283
3 372 367 366
3 373 307 371
3 373 369 370
3 373 371 369
3 374 283 284
3 374 372 283
3 375 374 284
3 375 365 372
3 375 372 374
3 376 365 375
3 377 373 370
3 378 377 379
3 378 307 373
3 378 373 377
3 380 307 378
3 380 308 307
3 381 370 376
3 381 375 284
3 381 376 375
3 382 308 380
3 382 380 378
3 382 378 379
3 383 284 285
3 383 381 284
3 384 370 381
3 384 383 285
3 384 381 383
3 384 385 370
3 386 382 379
3 387 308 382
3 387 382 386
3 387 386 388
3 389 379 385
3 389 384 285
3 389 385 384
3 390 308 387
3 390 309 308
3 391 390 387
3 391 309 390
3 391 387 388
3 392 285 286
3 392 389 285
3 393 394 379
3 393 392 286
3 393 389 392
3 393 379 389
3 395 309 391
3 395 396 397
3 395 391 396
3 398 388 394
3 398 393 286
3 398 394 393
3 399 388 398
3 400 309 395
3 401 395 397
3 401 400 395
3 401 402 400
3 403 310 309
3 403 309 400
3 404 398 286
3 404 399 398
3 405 310 403
3 405 400 402
3 405 403 400
3 406 286 287
3 406 404 286
3 407 397 404
3 407 406 287
3 407 404 406
3 408 397 407
3 409 405 402
3 410 409 411
3 410 405 409
3 410 310 405
3 412 311 310
3 412 310 410
3 413 407 287
3 413 408 407
3 413 402 408
3 414 410 411
3 414 311 412
3 414 412 410
3 415 287 288
3 415 413 287
3 416 402 413
3 416 415 288
3 416 413 415
3 417 402 416
3 418 414 411
3 419 414 418
3 419 418 420
3 419 311 414
3 421 311 419
3 421 312 311
3 422 416 288
3 422 411 417
3 422 417 416
3 423 419 420
3 423 421 419
3 423 312 421
3 424 422 288
3 424 288 289
3 425 422 424
3 425 424 289
3 425 426 411
3 425 411 422
3 427 423 420
3 428 312 423
3 428 427 429
3 428 423 427
3 430 420 426
3 430 425 289
3 430 426 425
3 431 293 292
3 431 312 428
3 431 428 429
3 431 292 312
3 432 289 290
3 432 430 289
3 433 434 420
3 433 432 290
3 433 430 432
3 433 420 430
3 435 429 296
3 435 294 293
3 435 295 294
3 435 296 295
3 435 293 431
3 435 431 429
3 436 429 434
3 436 434 433
3 436 433 290
3 437 296 429
3 437 297 296
3 437 298 297
3 437 429 436
3 438 298 437
3 438 290 291
3 438 299 298
3 438 300 299
3 438 291 300
3 438 436 290
3 438 437 436
3 439 274 317
3 439 272 273
3 439 313 272
3 439 273 274
3 439 317 322
3 440 313 439
3 440 439 322
3 440 315 313
3 441 314 315
3 441 316 314
3 441 319 316
3 442 441 315
3 442 315 440
3 442 440 322
3 442 443 441
3 444 322 321
3 444 321 325
3 444 443 442
3 444 325 329
3 444 442 322
3 445 319 441
3 445 441 443
3 445 443 444
3 445 444 329
3 446 319 445
3 446 445 329
3 447 318 319
3 447 324 318
3 447 319 446
3 447 328 324
3 447 329 328
3 447 446 329
3 448 323 324
3 448 327 323
3 448 324 334
3 448 334 339
3 449 327 448
3 449 448 339
3 450 339 338
3 450 333 326
3 450 326 327
3 450 338 333
3 450 449 339
3 450 327 449
3 451 343 348
3 451 333 343
3 451 332 333
3 451 336 332
3 452 451 348
3 452 336 451
3 453 336 452
3 453 348 337
3 453 337 336
3 453 452 348
3 454 341 337
3 454 345 341
3 454 337 353
3 454 353 357
3 455 454 357
3 455 345 454
3 455 346 345
3 455 357 346
3 456 350 346
3 456 346 358
3 457 456 358
3 457 350 456
3 457 355 349
3 457 349 350
3 457 362 355
3 457 358 362
3 458 359 355
3 458 355 367
3 459 458 367
3 459 360 359
3 459 365 360
3 459 359 458
3 459 372 365
3 459 367 372
3 460 376 370
3 460 370 368
3 460 368 365
3 460 365 376
3 461 377 370
3 461 379 377
3 461 385 379
3 461 370 385
3 462 386 379
3 462 388 386
3 462 379 394
3 462 394 388
3 463 391 388
3 463 397 396
3 463 396 391
3 463 388 399
3 463 404 397
3 463 399 404
3 464 401 397
3 464 402 401
3 464 408 402
3 464 397 408
3 465 417 411
3 465 411 409
3 465 409 402
3 465 402 417
3 466 420 418
3 466 426 420
3 466 411 426
3 466 418 411
3 467 420 434
3 467 427 420
3 467 429 427
3 467 434 429
3 482 483 469
3 481 482 469
3 480 481 469
3 479 469 468
3 479 480 469
3 472 478 479
3 472 479 468
3 470 472 468
3 471 472 470
3 474 475 476
3 473 476 477
3 473 474 476
3 472 473 477
3 472 477 478
3 485 493 494
3 485 494 495
3 485 495 496
3 485 496 497
3 485 497 498
3 485 498 484
3 492 493 485
3 491 492 485
3 490 491 485
3 489 490 485
3 488 489 485
3 487 488 485
3 486 487 485
3 516 513 514
3 516 514 515
3 517 513 516
3 512 513 517
3 518 513 512
3 502 501 499
3 511 518 512
3 500 503 502
3 500 504 503
3 500 505 504
3 500 506 505
3 500 507 506
3 500 508 507
3 500 509 508
3 500 510 509
3 500 511 510
3 500 502 499
3 500 518 511
3 528 524 529
3 530 529 524
3 527 524 528
3 526 524 527
3 531 524 523
3 531 530 524
3 520 523 522
3 520 531 523
3 525 524 526
3 521 520 522
3 519 520 521
3 547 535 536
3 547 536 537
3 547 537 538
3 548 534 535
3 548 535 547
3 548 547 538
3 549 538 539
3 549 548 538
3 550 548 549
3 551 533 534
3 551 550 549
3 551 548 550
3 551 534 548
3 552 541 542
3 553 542 543
3 553 552 542
3 554 532 533
3 554 543 544
3 554 544 545
3 554 545 546
3 554 546 532
3 554 553 543
3 555 540 541
3 555 541 552
3 556 549 539
3 556 551 549
3 557 552 553
3 557 533 551
3 557 554 533
3 557 553 554
3 557 555 552
3 557 551 556
3 558 539 540
3 558 556 539
3 558 557 556
3 558 540 555
3 558 555 557
3 569 559 560
3 569 568 559
3 570 560 561
3 570 569 560
3 571 561 562
3 571 562 563
3 571 570 561
3 572 571 563
3 573 563 564
3 573 572 563
3 574 564 565
3 574 573 564
3 567 565 566
3 567 574 565
3 586 579 580
3 586 580 581
3 586 581 582
3 583 586 582
3 584 586 583
3 585 586 584
3 576 585 578
3 576 586 585
3 575 578 577
3 575 576 578
3 603 601 602
3 604 600 601
3 604 601 603
3 597 598 599
3 597 599 600
3 597 600 604
3 596 597 604
3 610 605 611
3 606 608 607
3 606 609 608
3 606 610 609
3 588 605 610
3 588 610 606
3 587 605 588
3 589 604 605
3 589 596 604
3 589 605 587
3 592 590 589
3 592 591 590
3 593 595 594
3 593 587 595
3 593 589 587
3 593 592 589
3 624 623 626
3 625 624 626
3 627 626 623
3 622 628 627
3 620 622 621
3 616 618 617
3 615 619 618
3 615 618 616
3 614 620 619
3 614 619 615
3 612 622 620
3 612 620 614
3 613 629 628
3 613 628 622
3 613 622 612
3 622 627 623
3 633 632 630
3 631 633 630
3 641 634 635
3 641 640 634
3 642 635 636
3 642 641 635
3 643 636 637
3 643 642 636
3 639 637 638
3 639 643 637
3 658 655 656
3 658 656 657
3 659 655 658
3 654 659 645
3 654 655 659
3 644 654 645
3 652 653 654
3 652 654 644
3 646 652 644
3 651 652 646
3 647 651 646
3 650 651 647
3 648 650 647
3 649 650 648
3 671 661 660
3 672 662 661
3 672 661 671
3 673 663 662
3 673 662 672
3 674 664 663
3 674 663 673
3 675 664 674
3 676 665 664
3 676 664 675
3 677 666 665
3 677 665 676
3 678 667 666
3 678 666 677
3 679 668 667
3 679 667 678
3 670 669 668
3 670 668 679
3 719 718 681
3 717 681 718
3 720 719 681
3 716 682 681
3 716 681 717
3 721 720 681
3 715 682 716
3 714 682 715
3 713 682 714
3 712 682 713
3 711 682 712
3 710 682 711
3 709 682 710
3 680 722 721
3 680 723 722
3 680 724 723
3 680 725 724
3 680 726 725
3 680 727 726
3 692 694 693
3 692 695 694
3 692 696 695
3 692 697 696
3 692 698 697
3 692 699 698
3 692 700 699
3 692 701 700
3 683 727 680
3 683 701 692
3 683 680 701
3 683 703 702
3 683 704 703
3 683 705 704
3 683 706 705
3 683 707 706
3 683 702 727
3 691 688 689
3 691 689 690
3 691 690 683
3 691 683 692
3 687 688 691
3 686 687 691
3 685 686 691
3 684 685 691
3 680 721 681
3 682 708 683
3 708 707 683
3 682 709 708
3 735 736 737
3 735 737 743
3 734 743 742
3 734 735 743
3 733 741 740
3 733 742 741
3 733 734 742
3 732 733 740
3 731 740 739
3 731 732 740
3 730 739 738
3 730 731 739
3 729 738 728
3 729 730 738
3 750 758 761
3 751 761 760
3 751 750 761
3 752 760 759
3 752 751 760
3 753 759 748
3 753 752 759
3 754 747 746
3 754 748 747
3 754 753 748
3 755 746 745
3 755 754 746
3 756 755 745
3 757 745 744
3 757 756 745
3 749 757 744
3 773 762 763
3 773 774 762
3 772 773 763
3 771 763 764
3 771 772 763
3 770 771 764
3 769 764 765
3 769 770 764
3 768 765 766
3 768 769 765
3 767 768 766
3 786 788 787
3 786 789 788
3 786 790 789
3 786 791 790
3 786 792 791
3 786 793 792
3 786 794 793
3 775 795 794
3 775 776 795
3 785 781 782
3 785 782 783
3 785 783 784
3 785 784 775
3 785 794 786
3 785 775 794
3 780 781 785
3 779 780 785
3 778 779 785
3 777 778 785
3 802 797 798
3 802 798 799
3 802 799 800
3 802 800 801
3 803 796 797
3 803 797 802
3 814 805 804
3 815 806 805
3 815 805 814
3 816 807 806
3 816 806 815
3 817 807 816
3 818 808 807
3 818 807 817
3 819 809 808
3 819 808 818
3 820 809 819
3 821 810 809
3 821 809 820
3 822 811 810
3 822 810 821
3 813 812 811
3 813 811 822
3 824 827 828
3 824 828 829
3 824 829 826
3 823 826 825
3 823 824 826
3 839 830 831
3 839 838 830
3 840 831 832
3 840 839 831
3 841 840 832
3 842 832 833
3 842 841 832
3 843 833 834
3 843 842 833
3 844 834 835
3 844 843 834
3 837 835 836
3 837 844 835
3 854 853 849
3 852 849 853
3 855 854 849
3 851 849 852
3 856 855 849
3 857 856 849
3 846 849 848
3 846 857 849
3 850 849 851
3 847 846 848
3 845 846 847
3 877 860 859
3 877 861 860
3 877 862 861
3 877 863 862
3 877 864 863
3 878 858 865
3 879 873 874
3 880 878 865
3 881 880 879
3 881 878 880
3 882 859 858
3 882 858 878
3 882 877 859
3 883 875 864
3 883 876 875
3 883 874 876
3 883 864 877
3 883 882 878
3 883 877 882
3 883 881 879
3 883 878 881
3 883 879 874
3 884 879 880
3 884 880 865
3 885 870 871
3 885 871 872
3 885 872 873
3 885 879 884
3 885 873 879
3 886 865 866
3 886 866 867
3 886 867 868
3 886 868 869
3 886 869 870
3 886 884 865
3 886 870 885
3 886 885 884
3 953 888 887
3 953 887 895
3 954 889 888
3 954 888 953
3 955 890 889
3 955 889 954
3 956 891 890
3 956 890 955
3 957 892 891
3 957 891 956
3 958 893 892
3 958 894 893
3 958 928 894
3 958 892 957
3 959 895 896
3 959 953 895
3 960 954 953
3 960 953 959
3 961 955 954
3 961 954 960
3 962 955 961
3 962 956 955
3 963 956 962
3 963 957 956
3 964 928 958
3 964 958 957
3 964 929 928
3 964 957 963
3 965 896 897
3 965 959 896
3 966 960 959
3 966 959 965
3 967 961 960
3 967 960 966
3 968 961 967
3 968 962 961
3 969 963 962
3 969 962 968
3 970 930 929
3 970 964 963
3 970 929 964
3 970 963 969
3 971 897 898
3 971 965 897
3 972 966 965
3 972 965 971
3 973 967 966
3 973 966 972
3 974 967 973
3 974 968 967
3 975 969 968
3 975 968 974
3 976 969 975
3 976 931 930
3 976 970 969
3 976 930 970
3 977 898 899
3 977 971 898
3 978 971 977
3 978 972 971
3 979 972 978
3 979 973 972
3 980 973 979
3 980 974 973
3 981 974 980
3 981 976 975
3 981 975 974
3 982 976 981
3 982 931 976
3 982 932 931
3 983 899 900
3 983 977 899
3 984 977 983
3 984 978 977
3 985 978 984
3 985 979 978
3 986 980 979
3 986 979 985
3 987 981 980
3 987 980 986
3 988 981 987
3 988 982 981
3 988 932 982
3 988 933 932
3 989 900 901
3 989 983 900
3 990 984 983
3 990 983 989
3 991 985 984
3 991 984 990
3 992 985 991
3 992 986 985
3 993 987 986
3 993 986 992
3 994 988 987
3 994 933 988
3 994 987 993
3 994 934 933
3 995 989 901
3 995 901 902
3 995 990 989
3 996 990 995
3 997 991 990
3 997 990 996
3 998 992 991
3 998 991 997
3 999 992 998
3 999 993 992
3 1000 935 934
3 1000 993 999
3 1000 994 993
3 1000 934 994
3 1001 995 902
3 1001 902 903
3 1002 996 995
3 1002 995 1001
3 1003 996 1002
3 1003 997 996
3 1004 998 997
3 1004 997 1003
3 1005 999 998
3 1005 998 1004
3 1006 936 935
3 1006 937 936
3 1006 935 1000
3 1006 1000 999
3 1006 999 1005
3 1007 903 904
3 1007 1001 903
3 1008 1002 1001
3 1008 1001 1007
3 1009 1003 1002
3 1009 1002 1008
3 1010 1004 1003
3 1010 1003 1009
3 1011 1005 1004
3 1011 1006 1005
3 1011 1004 1010
3 1012 1006 1011
3 1012 937 1006
3 1013 904 905
3 1013 1007 904
3 1013 1008 1007
3 1014 1008 1013
3 1015 1008 1014
3 1015 1009 1008
3 1016 1009 1015
3 1016 1010 1009
3 1017 1011 1010
3 1017 1010 1016
3 1018 1012 1011
3 1018 937 1012
3 1018 1011 1017
3 1018 938 937
3 1019 905 906
3 1019 1013 905
3 1019 1014 1013
3 1020 1014 1019
3 1021 1015 1014
3 1021 1014 1020
3 1022 1017 1016
3 1022 1015 1021
3 1022 1016 1015
3 1023 1018 1017
3 1023 1017 1022
3 1024 1018 1023
3 1024 938 1018
3 1024 939 938
3 1025 906 907
3 1025 1019 906
3 1026 1020 1019
3 1026 1019 1025
3 1027 1021 1020
3 1027 1022 1021
3 1027 1020 1026
3 1028 1022 1027
3 1029 1023 1022
3 1029 1022 1028
3 1030 1024 1023
3 1030 939 1024
3 1030 1023 1029
3 1030 940 939
3 1030 941 940
3 1031 907 908
3 1031 908 909
3 1031 1025 907
3 1032 1025 1031
3 1032 1026 1025
3 1033 1028 1027
3 1033 1027 1026
3 1033 1026 1032
3 1034 1029 1028
3 1034 1028 1033
3 1035 1029 1034
3 1036 1030 1029
3 1036 941 1030
3 1036 1029 1035
3 1037 1031 909
3 1038 1032 1031
3 1038 1031 1037
3 1039 1033 1032
3 1039 1032 1038
3 1040 1033 1039
3 1040 1034 1033
3 1041 1035 1034
3 1041 1034 1040
3 1042 1035 1041
3 1042 942 941
3 1042 941 1036
3 1042 1036 1035
3 1043 909 910
3 1043 1037 909
3 1044 1037 1043
3 1044 1038 1037
3 1045 1038 1044
3 1045 1039 1038
3 1046 1039 1045
3 1046 1040 1039
3 1047 1040 1046
3 1047 1041 1040
3 1048 1041 1047
3 1048 943 942
3 1048 942 1042
3 1048 1042 1041
3 1049 910 911
3 1049 1043 910
3 1049 1044 1043
3 1050 1044 1049
3 1051 1045 1044
3 1051 1044 1050
3 1052 1046 1045
3 1052 1047 1046
3 1052 1045 1051
3 1053 1047 1052
3 1054 1048 1047
3 1054 944 943
3 1054 1047 1053
3 1054 943 1048
3 1055 911 912
3 1055 1049 911
3 1056 1049 1055
3 1056 1050 1049
3 1057 1051 1050
3 1057 1050 1056
3 1058 1052 1051
3 1058 1051 1057
3 1059 1053 1052
3 1059 1052 1058
3 1060 1054 1053
3 1060 944 1054
3 1060 1053 1059
3 1060 945 944
3 1060 946 945
3 1061 912 913
3 1061 913 914
3 1061 1056 1055
3 1061 1055 912
3 1062 1056 1061
3 1063 1056 1062
3 1063 1057 1056
3 1063 1058 1057
3 1064 1058 1063
3 1065 1059 1058
3 1065 1060 1059
3 1065 1058 1064
3 1066 946 1060
3 1066 1060 1065
3 1067 1061 914
3 1067 1062 1061
3 1068 1062 1067
3 1069 1063 1062
3 1069 1062 1068
3 1070 1064 1063
3 1070 1063 1069
3 1071 1065 1064
3 1071 1066 1065
3 1071 1064 1070
3 1072 947 946
3 1072 948 947
3 1072 946 1066
3 1072 1066 1071
3 1073 914 915
3 1073 1067 914
3 1074 1067 1073
3 1074 1068 1067
3 1075 1068 1074
3 1075 1069 1068
3 1076 1070 1069
3 1076 1069 1075
3 1077 1071 1070
3 1077 1070 1076
3 1078 948 1072
3 1078 1072 1071
3 1078 1071 1077
3 1079 915 916
3 1079 1074 1073
3 1079 1073 915
3 1080 1074 1079
3 1081 1074 1080
3 1081 1075 1074
3 1082 1075 1081
3 1082 1076 1075
3 1083 1076 1082
3 1083 1077 1076
3 1084 1078 1077
3 1084 1077 1083
3 1084 949 948
3 1084 948 1078
3 1085 916 917
3 1085 1079 916
3 1086 1079 1085
3 1086 1080 1079
3 1087 1081 1080
3 1087 1080 1086
3 1088 1082 1081
3 1088 1081 1087
3 1089 1083 1082
3 1089 1082 1088
3 1089 1084 1083
3 1090 949 1084
3 1090 1084 1089
3 1090 950 949
3 1091 917 918
3 1091 918 919
3 1091 1085 917
3 1092 1086 1085
3 1092 1085 1091
3 1093 1087 1086
3 1093 1086 1092
3 1094 1088 1087
3 1094 1087 1093
3 1095 1089 1088
3 1095 1088 1094
3 1096 1089 1095
3 1096 1090 1089
3 1096 950 1090
3 1096 951 950
3 1097 919 920
3 1097 920 921
3 1097 1091 919
3 1098 1092 1091
3 1098 921 922
3 1098 1091 1097
3 1098 1097 921
3 1099 922 923
3 1099 1093 1092
3 1099 1092 1098
3 1099 1098 922
3 1100 923 924
3 1100 1094 1093
3 1100 1093 1099
3 1100 1099 923
3 1101 924 925
3 1101 1100 924
3 1101 1095 1094
3 1101 1094 1100
3 1102 1096 1095
3 1102 925 926
3 1102 926 927
3 1102 1095 1101
3 1102 951 1096
3 1102 1101 925
3 1102 952 951
3 1102 927 952
3 1103 1105 1104
3 1132 1106 1105
3 1132 1105 1103
3 1133 1106 1132
3 1134 1107 1106
3 1134 1108 1107
3 1134 1106 1133
3 1135 1108 1134
3 1136 1109 1108
3 1136 1110 1109
3 1136 1108 1135
3 1137 1110 1136
3 1138 1111 1110
3 1138 1110 1137
3 1139 1112 1111
3 1139 1111 1138
3 1140 1113 1112
3 1140 1112 1139
3 1141 1114 1113
3 1141 1115 1114
3 1141 1113 1140
3 1142 1115 1141
3 1143 1115 1142
3 1143 1116 1115
3 1144 1116 1143
3 1144 1117 1116
3 1145 1118 1117
3 1145 1117 1144
3 1146 1119 1118
3 1146 1118 1145
3 1147 1120 1119
3 1147 1119 1146
3 1148 1121 1120
3 1148 1120 1147
3 1149 1122 1121
3 1149 1121 1148
3 1150 1123 1122
3 1150 1122 1149
3 1151 1124 1123
3 1151 1123 1150
3 1152 1125 1124
3 1152 1124 1151
3 1153 1126 1125
3 1153 1125 1152
3 1154 1127 1126
3 1154 1126 1153
3 1155 1128 1127
3 1155 1127 1154
3 1156 1129 1128
3 1156 1128 1155
3 1131 1130 1129
3 1131 1129 1156
3 1161 1162 1163
3 1161 1163 1164
3 1160 1157 1158
3 1160 1158 1159
3 1160 1164 1165
3 1160 1165 1166
3 1160 1166 1167
3 1160 1167 1168
3 1160 1168 1169
3 1160 1169 1170
3 1160 1170 1171
3 1160 1171 1172
3 1160 1172 1173
3 1160 1173 1174
3 1160 1174 1175
3 1160 1175 1176
3 1160 1176 1177
3 1160 1177 1178
3 1160 1178 1179
3 1160 1179 1180
3 1160 1180 1181
3 1160 1181 1182
3 1160 1182 1157
3 1160 1161 1164
