ply
format ascii 1.0
comment generated by blendit.inference.finetune_visualize
element vertex 1480
property float x
property float y
property float z
property uchar red
property uchar green
property uchar blue
element face 2077
property list uchar int vertex_indices
end_header
0 0 70.6077546 218 222 230
0 6.30910798 70.6077546 218 222 230
0 0 0 218 222 230
0 45.3213353 0 218 222 230
0 49.1371358 3.81580055 218 222 230
0 49.0229456 2.88929366 218 222 230
0 48.7036147 2.04930128 218 222 230
0 48.2362434 1.3533536 218 222 230
0 47.8697927 0.975783096 218 222 230
0 47.3656096 0.593801721 218 222 230
0 46.8156741 0.30477714 218 222 230
0 46.2445048 0.11335652 218 222 230
0 45.776666 0.0272641704 218 222 230
0 49.1371358 62.0319528 218 222 230
-4.57918452e-17 38.278872 62.319106 218 222 230
1.11022302e-16 23.8011869 62.9032685 218 222 230
1.11022302e-16 15.1156194 63.2112469 218 222 230
1.11022302e-16 6.43005181 63.3800458 218 222 230
0 0 70.6077546 218 222 230
0 6.30910798 70.6077546 218 222 230
63.5631882 0 70.6077546 218 222 230
63.5376957 3.53342079 70.6077546 218 222 230
67.0988747 8.72673238 70.6077546 218 222 230
66.4050997 8.64417354 70.6077546 218 222 230
65.7501571 8.40955651 70.6077546 218 222 230
65.1646201 8.04815266 70.6077546 218 222 230
64.6688568 7.59009017 70.6077546 218 222 230
64.2727397 7.06695716 70.6077546 218 222 230
63.9763553 6.50866091 70.6077546 218 222 230
63.7212026 5.75288975 70.6077546 218 222 230
63.5569693 4.59297812 70.6077546 218 222 230
89.7140343 8.81228631 70.6077546 218 222 230
89.7140343 49.1371358 70.6077546 218 222 230
34.356912 49.1371358 70.6077546 218 222 230
34.2735043 6.86716057 70.6077546 218 222 230
34.0393146 6.86716057 70.6077546 218 222 230
0.558052588 6.86716057 70.6077546 218 222 230
0.0168822102 6.4453332 70.6077546 218 222 230
0.0640974571 6.56878281 70.6077546 218 222 230
0.133169557 6.67090503 70.6077546 218 222 230
0.186980282 6.72591493 70.6077546 218 222 230
0.261326817 6.78173522 70.6077546 218 222 230
0.3423318 6.82377994 70.6077546 218 222 230
0.426350811 6.85139695 70.6077546 218 222 230
0.493090811 6.86336664 70.6077546 218 222 230
58.0844174 15.5607995 70.6077546 218 222 230
48.5799399 15.5607995 70.6077546 218 222 230
59.5583634 14.5394958 70.6077546 218 222 230
59.5278877 14.7059231 70.6077546 218 222 230
59.4612526 14.8614163 70.6077546 218 222 230
59.3664426 15.0017277 70.6077546 218 222 230
59.2507691 15.1255777 70.6077546 218 222 230
59.0734655 15.2654481 70.6077546 218 222 230
58.8520227 15.3899384 70.6077546 218 222 230
58.6146841 15.4808713 70.6077546 218 222 230
58.3525187 15.5404109 70.6077546 218 222 230
60.1428363 3.69576159 70.6077546 218 222 230
60.0863266 6.17157274 70.6077546 218 222 230
59.9268136 9.11762867 70.6077546 218 222 230
48.5799399 3.69576159 70.6077546 218 222 230
48.5799399 4.31724915 70.6077546 218 222 230
1.11022302e-16 6.43005181 63.3800458 218 222 230
0.0190461294 6.55648112 63.484094 218 222 230
0.0709461039 6.66692824 63.57202 218 222 230
0.13343543 6.74247947 63.6276699 218 222 230
0.186527633 6.78636472 63.6559981 218 222 230
0.241553105 6.81941257 63.6728272 218 222 230
0.308275856 6.8466125 63.686518 218 222 230
0.375885862 6.86224605 63.7003908 218 222 230
0.441782564 6.86716057 63.7139121 218 222 230
0.558052588 6.86716057 70.6077546 218 222 230
0 6.30910798 70.6077546 218 222 230
0.0168822102 6.4453332 70.6077546 218 222 230
0.0640974571 6.56878281 70.6077546 218 222 230
0.133169557 6.67090503 70.6077546 218 222 230
0.186980282 6.72591493 70.6077546 218 222 230
0.261326817 6.78173522 70.6077546 218 222 230
0.3423318 6.82377994 70.6077546 218 222 230
0.426350811 6.85139695 70.6077546 218 222 230
0.493090811 6.86336664 70.6077546 218 222 230
0.0700217704 6.61724652 67.1402909 218 222 230
0.0931621997 6.65295061 67.1471363 218 222 230
0.137290943 6.70700333 67.1471363 218 222 230
0.261970547 6.81330148 66.0073525 218 222 230
0.168120834 6.7371055 67.1540727 218 222 230
0.201344692 6.76444953 67.1608334 218 222 230
0.253307667 6.79894288 67.1608334 218 222 230
0.0624694176 6.64001806 64.6936992 218 222 230
0.233086016 6.81163478 64.2038056 218 222 230
63.7646035 0 70.4063393 218 222 230
63.7646035 0 0 218 222 230
0 0 0 218 222 230
0 0 70.6077546 218 222 230
63.5631882 0 70.6077546 218 222 230
63.61235 0 70.6016628 218 222 230
63.6569068 0 70.5846227 218 222 230
63.6937687 0 70.5596914 218 222 230
63.7244937 0 70.5269571 218 222 230
63.7469166 0 70.4888742 218 222 230
63.7601437 0 70.44849 218 222 230
63.7635267 0 70.4271386 218 222 230
0 49.1371358 62.0319528 218 222 230
0.0425703186 49.1371358 62.4372869 218 222 230
0.177325788 49.1371358 62.8446489 218 222 230
0.405394953 49.1371358 63.2225378 218 222 230
0.713644464 49.1371358 63.5403721 218 222 230
1.07683931 49.1371358 63.7761456 218 222 230
1.31685497 49.1371358 63.877005 218 222 230
1.5588333 49.1371358 63.9431186 218 222 230
1.27754061 38.278872 63.8854004 218 222 230
0.705300265 23.8011869 63.767983 218 222 230
0.409197095 15.3102997 63.7072259 218 222 230
0.241553105 6.81941257 63.6728272 218 222 230
1.11022302e-16 6.43005181 63.3800458 218 222 230
0.0190461294 6.55648112 63.484094 218 222 230
0.0709461039 6.66692824 63.57202 218 222 230
0.13343543 6.74247947 63.6276699 218 222 230
0.186527633 6.78636472 63.6559981 218 222 230
-4.57918452e-17 38.278872 62.319106 218 222 230
1.11022302e-16 23.8011869 62.9032685 218 222 230
1.11022302e-16 15.1156194 63.2112469 218 222 230
0.0681685233 6.86716057 63.5676619 218 222 230
0.0909736371 43.7080039 62.7129968 218 222 230
0.069246235 31.42372 63.0012714 218 222 230
0.207229535 24.5685679 63.4542374 218 222 230
0.623216115 31.42372 63.6804513 218 222 230
0.311552044 33.7087707 63.3691472 218 222 230
0.201521783 24.0569806 63.4588929 218 222 230
0.198685113 23.8011869 63.4612066 218 222 230
0.294968074 20.9708912 63.608509 218 222 230
0.153870056 19.5557433 63.4977598 218 222 230
0.0611664742 18.075702 63.3860506 218 222 230
0.1144823 15.2129596 63.5298862 218 222 230
0.0940703159 12.4310266 63.5465352 218 222 230
0.55249249 46.4225699 63.416431 218 222 230
0.461247091 46.4225699 63.3182537 218 222 230
0.540364224 47.3274252 63.3950315 218 222 230
0.650113839 46.4225699 63.5075982 218 222 230
0.713716648 47.3274252 63.553038 218 222 230
0.857445382 47.3274252 63.6581131 218 222 230
0.909154833 45.5177146 63.7030604 218 222 230
0.554295933 44.9144777 63.4351396 218 222 230
1.05487437 43.1047671 63.7952768 218 222 230
0.0889686716 40.0885827 62.7950931 218 222 230
0.383004391 41.8982933 63.2899515 218 222 230
0.160679046 39.4853458 62.9871572 218 222 230
0.816178288 40.0885827 63.6948998 218 222 230
0.6474057 39.4853458 63.5876251 218 222 230
0.359886863 38.278872 63.3297232 218 222 230
0.087207003 38.278872 62.8399421 218 222 230
0.784863027 38.278872 63.6952845 218 222 230
0.0815171776 35.9938213 62.8910499 218 222 230
0.733654598 35.9938213 63.6905855 218 222 230
0.080304349 22.3860391 63.3118311 218 222 230
0.0974518929 48.533899 62.6481956 218 222 230
0.11399902 47.7798529 62.7063204 218 222 230
0.133476963 48.2322805 62.7520002 218 222 230
0.222335721 47.6290436 62.9536322 218 222 230
0.493944653 43.9090829 63.3864287 218 222 230
0.464942797 43.4063855 63.3621113 218 222 230
0.436767034 42.9036881 63.3378905 218 222 230
0.372317095 40.0885827 63.3095512 218 222 230
0.336406026 35.9938213 63.3488752 218 222 230
0.334669857 23.093613 63.6065231 218 222 230
0.575243705 48.8355174 63.4174886 218 222 230
0.510539257 48.6847082 63.351344 218 222 230
0.754197581 48.8355174 63.5745214 218 222 230
0.606974964 48.6847082 63.4493589 218 222 230
0.6880112 48.2322805 63.525044 218 222 230
0.427717944 47.7798529 63.2634168 218 222 230
0.0853669975 23.4474 63.2921974 218 222 230
89.7140343 14.6198269 0 218 222 230
89.7140343 45.5738979 0 218 222 230
0 45.3213353 0 218 222 230
0 0 0 218 222 230
63.7646035 0 0 218 222 230
63.7646035 11.2654948 -7.21644966e-16 218 222 230
63.8690298 12.0984051 0 218 222 230
64.1757677 12.8791434 0 218 222 230
64.6656036 13.5588058 0 218 222 230
65.2378536 14.0487201 0 218 222 230
65.8346255 14.3693516 0 218 222 230
66.4546085 14.5566124 0 218 222 230
67.0988747 14.6198269 1.11022302e-16 218 222 230
59.099919 11.7848261 0 218 222 230
59.099919 4.31724915 0 218 222 230
59.099919 3.9912686 5.986371e-17 218 222 230
48.5799399 3.6591791 1.85037171e-17 218 222 230
48.5799399 4.31724915 0 218 222 230
48.5799399 15.5607995 0 218 222 230
48.5799399 15.7010348 -1.23937563e-17 218 222 230
55.3255067 15.6879317 -4.37150316e-15 218 222 230
56.003749 15.6054756 -3.96274948e-15 218 222 230
56.6493362 15.3807515 -3.16811305e-15 218 222 230
57.2435099 15.0419239 -2.32467118e-15 218 222 230
57.7753244 14.6116427 -1.51557147e-15 218 222 230
58.2360747 14.1059988 -7.20450084e-16 218 222 230
58.615318 13.5366126 1.02527771e-16 218 222 230
58.8982563 12.9139132 9.52036764e-16 218 222 230
59.0471899 12.357931 1.59047226e-15 218 222 230
13.2556117 36.1405922 -1.44051437e-14 218 222 230
21.2138323 36.1405922 0 218 222 230
21.2138323 29.4309114 0 218 222 230
21.2138323 28.6108998 -2.22044605e-16 218 222 230
11.7006195 28.6108998 -4.16333634e-17 218 222 230
11.8181989 35.073634 6.9388939e-17 218 222 230
12.7215471 36.0809592 0 218 222 230
12.4675278 35.9923766 0 218 222 230
12.2160494 35.8402929 0 218 222 230
12.0241689 35.6474413 0 218 222 230
11.8992122 35.4368483 0 218 222 230
11.8409983 35.2591869 0 218 222 230
89.7140343 49.1371358 3.56323792 218 222 230
89.7140343 49.1371358 70.6077546 218 222 230
0 49.1371358 3.81580055 218 222 230
0 49.1371358 62.0319528 218 222 230
0.0425703186 49.1371358 62.4372869 218 222 230
0.177325788 49.1371358 62.8446489 218 222 230
0.405394953 49.1371358 63.2225378 218 222 230
0.713644464 49.1371358 63.5403721 218 222 230
1.07683931 49.1371358 63.7761456 218 222 230
1.31685497 49.1371358 63.877005 218 222 230
1.5588333 49.1371358 63.9431186 218 222 230
33.728199 49.1371358 70.5439172 218 222 230
34.356912 49.1371358 70.6077546 218 222 230
0 49.1371358 3.81580055 255 79 163
0 49.0229456 2.88929366 255 79 163
0 48.7036147 2.04930128 255 79 163
0 48.2362434 1.3533536 255 79 163
0 47.8697927 0.975783096 255 79 163
0 47.3656096 0.593801721 255 79 163
0 46.8156741 0.30477714 255 79 163
0 46.2445048 0.11335652 255 79 163
0 45.776666 0.0272641704 255 79 163
0 45.3213353 0 255 79 163
89.7140343 45.5738979 0 255 79 163
89.7140343 49.1371358 3.56323792 255 79 163
89.7140343 49.0450898 2.75856931 255 79 163
89.7140343 48.7486188 1.94527258 255 79 163
89.7140343 48.3015045 1.27046081 255 79 163
89.7140343 47.9601787 0.917046594 255 79 163
89.7140343 47.5240232 0.581011277 255 79 163
89.7140343 47.0491674 0.319745289 255 79 163
89.7140343 46.5541117 0.137475895 255 79 163
89.7140343 46.0573342 0.0329469962 255 79 163
0.558052588 6.86716057 70.6077546 218 222 230
34.0393146 6.86716057 70.6077546 218 222 230
34.2735043 6.86716057 70.6077546 218 222 230
33.8099084 6.86716057 70.560683 218 222 230
0.441782564 6.86716057 63.7139121 218 222 230
63.5376957 3.53342079 70.6077546 218 222 230
63.5930731 3.53342079 70.6008934 218 222 230
63.6432703 3.53342079 70.5816979 218 222 230
63.6848018 3.53342079 70.5536096 218 222 230
63.7194193 3.53342079 70.516728 218 222 230
63.7446809 3.53342079 70.4738214 218 222 230
63.7595805 3.53342079 70.4283261 218 222 230
63.7633908 3.53342079 70.4042747 218 222 230
63.7646035 3.53342079 70.3808469 218 222 230
63.7646035 0 70.4063393 218 222 230
63.5631882 0 70.6077546 218 222 230
63.61235 0 70.6016628 218 222 230
63.6569068 0 70.5846227 218 222 230
63.6937687 0 70.5596914 218 222 230
63.7244937 0 70.5269571 218 222 230
63.7469166 0 70.4888742 218 222 230
63.7601437 0 70.44849 218 222 230
63.7635267 0 70.4271386 218 222 230
67.0988747 8.72673238 70.6077546 255 79 163
67.0988747 8.34741745 70.5641159 255 79 163
67.0988747 7.96144894 70.4221306 255 79 163
67.0988747 7.64011314 70.2059982 255 79 163
67.0988747 7.39711021 69.9484323 255 79 163
67.0988747 7.21513688 69.6481454 255 79 163
67.0988747 7.10237206 69.3266711 255 79 163
67.0988747 7.05916165 69.0337582 255 79 163
67.0988747 7.06636983 68.7549942 255 79 163
66.5612228 7.01753484 68.7999847 255 79 163
66.0423499 6.87512905 68.9223787 255 79 163
65.5580934 6.64855961 69.1025634 255 79 163
65.1202449 6.34978197 69.3205348 255 79 163
64.6218106 5.86062559 69.6358608 255 79 163
64.1895361 5.21682964 69.9733159 255 79 163
63.9025822 4.50428202 70.2361249 255 79 163
63.7997271 4.02341332 70.3409301 255 79 163
63.7646035 3.53342079 70.3808469 255 79 163
63.5376957 3.53342079 70.6077546 255 79 163
63.5930731 3.53342079 70.6008934 255 79 163
63.6432703 3.53342079 70.5816979 255 79 163
63.6848018 3.53342079 70.5536096 255 79 163
63.7194193 3.53342079 70.516728 255 79 163
63.7446809 3.53342079 70.4738214 255 79 163
63.7595805 3.53342079 70.4283261 255 79 163
63.7633908 3.53342079 70.4042747 255 79 163
66.4050997 8.64417354 70.6077546 255 79 163
65.7501571 8.40955651 70.6077546 255 79 163
65.1646201 8.04815266 70.6077546 255 79 163
64.6688568 7.59009017 70.6077546 255 79 163
64.2727397 7.06695716 70.6077546 255 79 163
63.9763553 6.50866091 70.6077546 255 79 163
63.7212026 5.75288975 70.6077546 255 79 163
63.5569693 4.59297812 70.6077546 255 79 163
63.8903128 4.86245199 70.468636 255 79 163
63.7456702 4.20041383 70.520978 255 79 163
66.6042825 7.99423389 70.460659 255 79 163
66.3334752 7.38135254 70.0741997 255 79 163
66.3558025 7.97848689 70.4792282 255 79 163
66.1629034 8.14186556 70.5533731 255 79 163
66.0652903 7.88691999 70.4826974 255 79 163
65.8998486 7.60637881 70.3856601 255 79 163
65.5005633 7.83474295 70.5578366 255 79 163
65.6637803 7.70581991 70.4893926 255 79 163
65.6236515 7.09491959 70.132104 255 79 163
66.4760517 7.06159158 69.4546914 255 79 163
65.4058203 7.55201815 70.4949496 255 79 163
65.1576609 7.59630863 70.5612036 255 79 163
66.2106605 6.99341534 69.4921501 255 79 163
66.3339588 6.97734148 69.2586513 255 79 163
66.0277604 7.01548904 69.7256075 255 79 163
65.1646163 7.37739242 70.5011416 255 79 163
65.8818428 6.8731014 69.5553511 255 79 163
65.7804092 6.77702068 69.3868034 255 79 163
65.636727 6.75539714 69.6144172 255 79 163
64.5685927 6.77656262 70.521618 255 79 163
65.4032118 6.6184608 69.6802567 255 79 163
64.4018705 6.54705197 70.5291052 255 79 163
64.0871513 5.98573834 70.5465194 255 79 163
64.5142547 6.11804083 70.3040645 255 79 163
64.8655697 6.19073349 69.8687482 255 79 163
65.323318 6.90775695 70.1678156 255 79 163
65.0713233 6.88714517 70.3212819 255 79 163
65.0283185 6.67620137 70.2101131 255 79 163
64.9816999 6.49062043 70.0931388 255 79 163
64.7630218 6.41764351 70.2550372 255 79 163
64.241772 5.50473796 70.2661543 255 79 163
64.0038391 5.61765033 70.5254211 255 79 163
34.356912 49.1371358 70.6077546 255 79 163
33.728199 49.1371358 70.5439172 255 79 163
33.8099084 6.86716057 70.560683 255 79 163
34.2735043 6.86716057 70.6077546 255 79 163
89.7140343 8.81228631 70.6077546 255 79 163
89.7140343 8.42476107 70.564232 255 79 163
89.7140343 8.1943022 70.4948016 255 79 163
89.7140343 7.96832795 70.3903797 255 79 163
89.7140343 7.76099889 70.2560392 255 79 163
89.7140343 7.57229019 70.091381 255 79 163
89.7140343 7.40852569 69.9007047 255 79 163
89.7140343 7.27460071 69.6899544 255 79 163
89.7140343 7.17350838 69.4661189 255 79 163
89.7140343 7.09107067 69.159902 255 79 163
89.7140343 7.06593703 68.9092073 255 79 163
89.7140343 7.07571262 68.6699519 255 79 163
67.0988747 7.06636983 68.7549942 255 79 163
67.0988747 8.72673238 70.6077546 255 79 163
67.0988747 8.34741745 70.5641159 255 79 163
67.0988747 7.96144894 70.4221306 255 79 163
67.0988747 7.64011314 70.2059982 255 79 163
67.0988747 7.39711021 69.9484323 255 79 163
67.0988747 7.21513688 69.6481454 255 79 163
67.0988747 7.10237206 69.3266711 255 79 163
67.0988747 7.05916165 69.0337582 255 79 163
89.7140343 14.6198269 0 218 222 230
89.7140343 7.07571262 68.6699519 218 222 230
89.7140343 45.5738979 0 218 222 230
89.7140343 49.1371358 3.56323792 218 222 230
89.7140343 49.0450898 2.75856931 218 222 230
89.7140343 48.7486188 1.94527258 218 222 230
89.7140343 48.3015045 1.27046081 218 222 230
89.7140343 47.9601787 0.917046594 218 222 230
89.7140343 47.5240232 0.581011277 218 222 230
89.7140343 47.0491674 0.319745289 218 222 230
89.7140343 46.5541117 0.137475895 218 222 230
89.7140343 46.0573342 0.0329469962 218 222 230
89.7140343 49.1371358 70.6077546 218 222 230
89.7140343 8.81228631 70.6077546 218 222 230
89.7140343 8.42476107 70.564232 218 222 230
89.7140343 8.1943022 70.4948016 218 222 230
89.7140343 7.96832795 70.3903797 218 222 230
89.7140343 7.76099889 70.2560392 218 222 230
89.7140343 7.57229019 70.091381 218 222 230
89.7140343 7.40852569 69.9007047 218 222 230
89.7140343 7.27460071 69.6899544 218 222 230
89.7140343 7.17350838 69.4661189 218 222 230
89.7140343 7.09107067 69.159902 218 222 230
89.7140343 7.06593703 68.9092073 218 222 230
48.5799399 15.5607995 0.140239302 218 222 230
48.5799399 15.5607995 70.6077546 218 222 230
58.0844174 15.5607995 70.6077546 218 222 230
55.3255067 15.5607995 0.127132184 218 222 230
55.6146639 15.5607995 11.9669289 218 222 230
56.3118507 15.5607995 27.7533245 218 222 230
57.5883423 15.5607995 53.3241631 218 222 230
57.9009916 15.5607995 61.9659588 218 222 230
58.0844174 15.5607995 70.6077546 255 79 163
58.0844174 15.5607995 70.6077546 255 79 163
59.5583634 14.5394958 70.6077546 255 79 163
59.5278877 14.7059231 70.6077546 255 79 163
59.4612526 14.8614163 70.6077546 255 79 163
59.3664426 15.0017277 70.6077546 255 79 163
59.2507691 15.1255777 70.6077546 255 79 163
59.0734655 15.2654481 70.6077546 255 79 163
58.8520227 15.3899384 70.6077546 255 79 163
58.6146841 15.4808713 70.6077546 255 79 163
58.3525187 15.5404109 70.6077546 255 79 163
59.4513554 14.5394958 70.5950924 255 79 163
59.3502355 14.5394958 70.5577889 255 79 163
59.2606279 14.5394958 70.4979127 255 79 163
59.1874752 14.5394958 70.4187774 255 79 163
59.1348126 14.5394958 70.3247448 255 79 163
59.1087237 14.5394958 70.2387328 255 79 163
59.099919 14.5394958 70.1493103 255 79 163
59.0658331 14.8020611 70.2294858 255 79 163
58.9779038 15.0250251 70.2974114 255 79 163
58.8559274 15.2036462 70.3567629 255 79 163
58.6989315 15.3525668 70.4157511 255 79 163
58.5142004 15.4647784 70.4756301 255 79 163
58.3104879 15.5351422 70.5377305 255 79 163
58.1979653 15.5543848 70.572101 255 79 163
59.3949081 14.7691531 70.5930971 255 79 163
59.2085355 14.7559553 70.4890901 255 79 163
59.09861 14.7431935 70.3129068 255 79 163
59.1377131 15.1515514 70.5953939 255 79 163
58.9420082 15.1132485 70.3972815 255 79 163
58.7565532 15.4103711 70.5997127 255 79 163
58.6533834 15.3920422 70.4782339 255 79 163
58.6897882 15.4009478 70.553651 255 79 163
58.2935842 15.5426357 70.5888273 255 79 163
58.3144851 15.5436137 70.6045583 255 79 163
58.2828119 15.5416618 70.5626713 255 79 163
59.1585359 14.8997789 70.5000971 255 79 163
59.0989332 15.0127805 70.5095082 255 79 163
59.0136808 15.1317593 70.520519 255 79 163
58.9179415 15.233578 70.5312543 255 79 163
58.8651096 15.3370475 70.5879807 255 79 163
58.7629497 15.395403 70.5905595 255 79 163
58.6562607 15.4452462 70.5931841 255 79 163
58.4618671 15.517584 70.6064301 255 79 163
58.5403549 15.4726216 70.5671433 255 79 163
58.4419181 15.5164211 70.5982619 255 79 163
58.3331223 15.5420245 70.6067968 255 79 163
58.5736306 15.4769913 70.5951656 255 79 163
58.5252574 15.4996745 70.6045314 255 79 163
48.5799399 15.7010348 -1.23937563e-17 218 222 230
48.5799399 15.6668099 0.00424044958 218 222 230
48.5799399 15.6357867 0.0161038149 218 222 230
48.5799399 15.6101191 0.0334631904 218 222 230
48.5799399 15.5887246 0.0562569143 218 222 230
48.5799399 15.5731123 0.0827742875 218 222 230
48.5799399 15.5639039 0.110891652 218 222 230
48.5799399 15.561549 0.125756102 218 222 230
48.5799399 15.5607995 0.140239302 218 222 230
48.5799399 15.5607995 0 218 222 230
48.5799399 4.31724915 0 218 222 230
48.5799399 3.6591791 1.85037171e-17 218 222 230
48.5799399 3.81980603 0.019904572 218 222 230
48.5799399 3.96538288 0.0755793299 218 222 230
48.5799399 4.08581643 0.15703434 218 222 230
48.5799399 4.15068721 0.220490366 218 222 230
48.5799399 4.21651627 0.30816796 218 222 230
48.5799399 4.26609734 0.403695444 218 222 230
48.5799399 4.29866237 0.502772473 218 222 230
48.5799399 4.31277599 0.581471684 218 222 230
48.5799399 4.31724915 0.658070048 218 222 230
48.5799399 4.31724915 69.9862671 218 222 230
48.5799399 3.69576159 70.6077546 218 222 230
48.5799399 3.83405558 70.5921726 218 222 230
48.5799399 3.96541494 70.546208 218 222 230
48.5799399 4.08325275 70.4721656 218 222 230
48.5799399 4.18166013 70.3737582 218 222 230
48.5799399 4.25570253 70.2559204 218 222 230
48.5799399 4.30166716 70.1245611 218 222 230
48.5799399 4.31724915 70.6077546 218 222 230
48.5799399 15.5607995 70.6077546 218 222 230
60.1428363 3.69576159 70.6077546 255 79 163
59.8408932 3.92616195 70.5634694 255 79 163
59.5988209 4.10272167 70.4559801 255 79 163
59.4558942 4.19837147 70.3518216 255 79 163
59.3246108 4.27369741 70.2148212 255 79 163
59.247784 4.30597017 70.1041325 255 79 163
59.1868927 4.31724915 69.9862671 255 79 163
59.1373557 4.31724915 69.8466529 255 79 163
59.1089005 4.31724915 69.7067028 255 79 163
59.099919 4.31724915 69.5704986 255 79 163
59.099919 9.42837245 69.8013373 255 79 163
59.099919 14.5394958 70.1493103 255 79 163
59.5583634 14.5394958 70.6077546 255 79 163
59.4513554 14.5394958 70.5950924 255 79 163
59.3502355 14.5394958 70.5577889 255 79 163
59.2606279 14.5394958 70.4979127 255 79 163
59.1874752 14.5394958 70.4187774 255 79 163
59.1348126 14.5394958 70.3247448 255 79 163
59.1087237 14.5394958 70.2387328 255 79 163
60.0863266 6.17157274 70.6077546 255 79 163
59.9268136 9.11762867 70.6077546 255 79 163
59.4037243 4.31724915 70.3039494 255 79 163
59.5169646 4.93535702 70.4076036 255 79 163
59.3820843 4.93535702 70.2885564 255 79 163
59.3152211 4.93535702 70.2107403 255 79 163
59.5764223 5.24441095 70.4518381 255 79 163
59.2567903 4.93535702 70.1271522 255 79 163
59.5137737 5.24441095 70.4091564 255 79 163
59.4541357 5.24441095 70.3616388 255 79 163
59.398053 5.24441095 70.3096207 255 79 163
59.2233813 6.63906478 70.1139057 255 79 163
59.365667 7.7999726 70.3420067 255 79 163
59.5505021 8.23919129 70.4951089 255 79 163
59.4553562 11.028499 70.5188953 255 79 163
59.2292595 11.9839341 70.3615637 255 79 163
59.2838237 11.9839341 70.4238499 255 79 163
59.1863639 11.9839341 70.2978002 255 79 163
59.1531598 11.9839341 70.2328946 255 79 163
59.3483991 12.835788 70.5091243 255 79 163
59.2735176 12.835788 70.4482083 255 79 163
59.2128667 12.835788 70.3793463 255 79 163
59.5304645 6.01834949 70.4334015 255 79 163
59.5990097 6.40531876 70.482982 255 79 163
59.5145922 6.87020337 70.4398291 255 79 163
59.2078797 8.83378187 70.1759119 255 79 163
59.2467631 8.9801881 70.2451398 255 79 163
59.1959625 10.2284357 70.2235807 255 79 163
59.5577519 9.04890839 70.5191182 255 79 163
59.3391291 9.27300056 70.3685445 255 79 163
59.5035694 9.67303219 70.5068421 255 79 163
59.2018851 9.55070232 70.1998906 255 79 163
60.1428363 3.69576159 70.6077546 255 79 163
59.8408932 3.92616195 70.5634694 255 79 163
59.5988209 4.10272167 70.4559801 255 79 163
59.4558942 4.19837147 70.3518216 255 79 163
59.3246108 4.27369741 70.2148212 255 79 163
59.247784 4.30597017 70.1041325 255 79 163
59.1868927 4.31724915 69.9862671 255 79 163
48.5799399 4.31724915 69.9862671 255 79 163
48.5799399 3.69576159 70.6077546 255 79 163
48.5799399 3.83405558 70.5921726 255 79 163
48.5799399 3.96541494 70.546208 255 79 163
48.5799399 4.08325275 70.4721656 255 79 163
48.5799399 4.18166013 70.3737582 255 79 163
48.5799399 4.25570253 70.2559204 255 79 163
48.5799399 4.30166716 70.1245611 255 79 163
33.8099084 6.86716057 70.560683 218 222 230
0.441782564 6.86716057 63.7139121 218 222 230
0.241553105 6.81941257 63.6728272 218 222 230
0.308275856 6.8466125 63.686518 218 222 230
0.375885862 6.86224605 63.7003908 218 222 230
1.5588333 49.1371358 63.9431186 218 222 230
1.27754061 38.278872 63.8854004 218 222 230
0.705300265 23.8011869 63.767983 218 222 230
0.409197095 15.3102997 63.7072259 218 222 230
33.728199 49.1371358 70.5439172 218 222 230
13.8428046 36.1405922 66.4636538 218 222 230
21.2138323 36.1405922 67.9761073 218 222 230
11.4407304 34.4906706 65.9707747 218 222 230
11.4603474 34.687096 65.9747999 218 222 230
11.5221981 34.8744065 65.987491 218 222 230
11.6155107 35.0477788 66.0066377 218 222 230
11.7741309 35.2558614 66.0391848 218 222 230
11.9846693 35.4605307 66.082385 218 222 230
12.3006081 35.689612 66.1472121 218 222 230
12.6887976 35.8922085 66.2268643 218 222 230
13.1009801 36.0374071 66.3114396 218 222 230
13.4686111 36.1138078 66.3868734 218 222 230
11.5397141 29.4309114 65.9910851 218 222 230
12.189714 29.4309114 66.1244579 218 222 230
21.2138323 29.4309114 67.9761073 218 222 230
63.7646035 0 70.4063393 218 222 230
63.7646035 0 0 218 222 230
63.7646035 11.2654948 -7.21644966e-16 218 222 230
63.7646035 3.53342079 70.3808469 218 222 230
89.7140343 14.6198269 0 218 222 230
67.0988747 14.6198269 1.11022302e-16 218 222 230
67.0988747 7.06636983 68.7549942 218 222 230
89.7140343 7.07571262 68.6699519 218 222 230
63.7646035 11.2654948 -7.21644966e-16 255 79 163
63.7646035 3.53342079 70.3808469 255 79 163
67.0988747 7.06636983 68.7549942 255 79 163
66.5612228 7.01753484 68.7999847 255 79 163
66.0423499 6.87512905 68.9223787 255 79 163
65.5580934 6.64855961 69.1025634 255 79 163
65.1202449 6.34978197 69.3205348 255 79 163
64.6218106 5.86062559 69.6358608 255 79 163
64.1895361 5.21682964 69.9733159 255 79 163
63.9025822 4.50428202 70.2361249 255 79 163
63.7997271 4.02341332 70.3409301 255 79 163
67.0988747 14.6198269 1.11022302e-16 255 79 163
63.8690298 12.0984051 0 255 79 163
64.1757677 12.8791434 0 255 79 163
64.6656036 13.5588058 0 255 79 163
65.2378536 14.0487201 0 255 79 163
65.8346255 14.3693516 0 255 79 163
66.4546085 14.5566124 0 255 79 163
59.099919 11.7848261 0 218 222 230
59.099919 4.31724915 0 218 222 230
59.099919 12.070378 11.8184384 218 222 230
59.099919 12.7637618 27.5763562 218 222 230
59.099919 14.0292713 52.8526432 218 222 230
59.099919 14.3479645 61.5009768 218 222 230
59.099919 14.5394958 70.1493103 218 222 230
59.099919 4.31724915 69.5704986 218 222 230
59.099919 9.42837245 69.8013373 218 222 230
59.099919 4.31724915 0.325980547 218 222 230
59.099919 3.9912686 5.986371e-17 218 222 230
59.099919 4.07082774 0.00985768083 218 222 230
59.099919 4.14294168 0.0374348898 218 222 230
59.099919 4.20260499 0.0777865679 218 222 230
59.099919 4.25233566 0.130769601 218 222 230
59.099919 4.28862669 0.192408524 218 222 230
59.099919 4.31003246 0.25776818 218 222 230
59.099919 4.3155068 0.292321911 218 222 230
59.099919 11.7848261 0 255 79 163
59.099919 11.7848261 0 255 79 163
55.3255067 15.6879317 -4.37150316e-15 255 79 163
56.003749 15.6054756 -3.96274948e-15 255 79 163
56.6493362 15.3807515 -3.16811305e-15 255 79 163
57.2435099 15.0419239 -2.32467118e-15 255 79 163
57.7753244 14.6116427 -1.51557147e-15 255 79 163
58.2360747 14.1059988 -7.20450084e-16 255 79 163
58.615318 13.5366126 1.02527771e-16 255 79 163
58.8982563 12.9139132 9.52036764e-16 255 79 163
59.0471899 12.357931 1.59047226e-15 255 79 163
55.3255067 15.6582571 0.00351137979 255 79 163
55.3255067 15.6302153 0.013856097 255 79 163
55.3255067 15.605366 0.0304605149 255 79 163
55.3255067 15.5850799 0.0524056852 255 79 163
55.3255067 15.5704759 0.0784820688 255 79 163
55.3255067 15.5632411 0.10233422 255 79 163
55.3255067 15.5607995 0.127132184 255 79 163
56.2075133 15.456245 0.106822512 255 79 163
57.0407728 15.1483489 0.087825673 255 79 163
57.7789838 14.6542143 0.0695302838 255 79 163
58.3812927 14.0012375 0.0514046951 255 79 163
58.8143606 13.2256286 0.0329389513 255 79 163
59.02786 12.5191669 0.0169576718 255 79 163
56.0608525 15.5646154 0.00405777811 255 79 163
56.0613853 15.5187833 0.0328509822 255 79 163
57.4094529 14.9247664 0.0240804916 255 79 163
58.444588 13.8728419 0.0149205383 255 79 163
55.666795 15.5996203 0.020375272 255 79 163
55.6667472 15.5901451 0.027354236 255 79 163
55.6666987 15.5813948 0.0351966753 255 79 163
56.1341745 15.49368 0.0429186765 255 79 163
56.4341149 15.4162414 0.0305892167 255 79 163
56.8469653 15.2505629 0.0279691847 255 79 163
57.1489978 15.0913003 0.0259377107 255 79 163
57.3268965 14.981289 0.00727327816 255 79 163
58.0298105 14.3906112 0.0190702122 255 79 163
57.7845364 14.6286847 0.0211741109 255 79 163
58.3176794 14.0506114 0.0162949934 255 79 163
58.7274266 13.38019 0.0112915406 255 79 163
58.8618564 13.0666845 0.00906952999 255 79 163
58.9729495 12.7169631 0.00493930735 255 79 163
59.0224505 12.5186462 0.00524396318 255 79 163
58.9751367 12.7156514 0.00661751383 255 79 163
59.0266398 12.519472 0.0124933608 255 79 163
59.0376437 12.4374947 0.00351666756 255 79 163
59.0388864 12.4361624 0.00466718483 255 79 163
56.7482779 15.3124851 0.00814941225 255 79 163
57.051573 15.1550298 0.00772745659 255 79 163
57.1978442 15.0665919 0.00749525902 255 79 163
57.2847749 15.0104421 0.00204180253 255 79 163
57.3187428 14.9870881 0.000937124869 255 79 163
57.2810667 15.0143399 0.000245639395 255 79 163
57.4194177 14.9136393 0.000239258813 255 79 163
57.3941148 14.9330369 0.00341279343 255 79 163
57.7809989 14.6194452 0.00635074623 255 79 163
56.8521705 15.2702988 0.00218471636 255 79 163
57.1487813 15.1001182 0.00209396368 255 79 163
57.2206101 15.0537093 0.00206728172 255 79 163
57.263907 15.0257058 0.000543245612 255 79 163
57.5053095 14.8468821 0.000516851661 255 79 163
57.456325 14.8854308 0.000910057544 255 79 163
57.2319101 15.0474937 0.000546224166 255 79 163
57.3726525 14.9485495 0.000304091731 255 79 163
57.4259321 14.9091682 1.54272862e-05 255 79 163
57.4410223 14.8971118 0.000299813499 255 79 163
57.444214 14.894773 0.000135330503 255 79 163
57.4625396 14.8804763 0.000366418375 255 79 163
57.4688668 14.8757182 6.04867255e-05 255 79 163
57.7407367 14.6673526 0.0219175378 255 79 163
57.4334455 14.9030856 0.00011428397 255 79 163
57.4870692 14.8612564 0.000235741564 255 79 163
57.5326118 14.8247573 0.000179551375 255 79 163
57.5897685 14.7784055 0.000880132262 255 79 163
57.5806728 14.7850586 3.33309623e-05 255 79 163
57.5746624 14.7902619 0.000290482137 255 79 163
57.6734364 14.7149669 0.00683717095 255 79 163
57.472906 14.8728805 2.41044112e-07 255 79 163
57.5235891 14.8320766 9.28300171e-05 255 79 163
57.5114519 14.8418488 0.000133314565 255 79 163
57.5145793 14.8394224 3.38652281e-05 255 79 163
57.5462132 14.8136404 7.49963114e-05 255 79 163
57.5597894 14.8024969 1.4975401e-05 255 79 163
57.567191 14.7963241 0.00011083071 255 79 163
57.6384828 14.7389369 0.00202091745 255 79 163
57.4799436 14.8669965 6.4125876e-05 255 79 163
57.5833635 14.7828733 5.28325882e-07 255 79 163
57.6211937 14.7514735 0.000585522428 255 79 163
57.6258987 14.7465974 5.77734412e-06 255 79 163
57.6270351 14.7456375 5.81344986e-08 255 79 163
57.6365588 14.7373702 6.96573734e-06 255 79 163
57.6471906 14.7281107 8.26005249e-06 255 79 163
57.6479379 14.7274566 2.07362522e-06 255 79 163
57.6602174 14.7202347 0.00198909066 255 79 163
57.5924097 14.7751854 1.77512183e-05 255 79 163
57.6014662 14.7675195 5.86066645e-05 255 79 163
57.6127415 14.7580588 0.000175935338 255 79 163
57.6044938 14.7649547 3.72354293e-06 255 79 163
57.6483131 14.7271316 5.19488774e-07 255 79 163
57.6583506 14.7183233 4.14227365e-06 255 79 163
57.6587229 14.7179944 1.73793172e-06 255 79 163
57.6590962 14.7176669 3.59828189e-07 255 79 163
57.4787415 14.8682973 3.7662339e-09 255 79 163
57.6193042 14.7523039 6.19915129e-05 255 79 163
57.664663 14.7127576 3.23763848e-08 255 79 163
57.6687372 14.7091614 6.90468344e-06 255 79 163
57.6694773 14.7084973 1.43256252e-06 255 79 163
57.6805708 14.6986332 1.28860745e-07 255 79 163
57.6750282 14.70357 6.05095038e-07 255 79 163
57.7222644 14.6724247 0.00661172144 255 79 163
57.6908942 14.6893994 9.1198162e-07 255 79 163
57.6894324 14.6907524 1.44699347e-05 255 79 163
57.7019227 14.6794615 1.42412341e-08 255 79 163
57.7440075 14.6529573 0.00644223068 255 79 163
57.4950883 14.855049 3.43677056e-05 255 79 163
57.5918785 14.7757031 8.25314016e-09 255 79 163
57.6118947 14.7586207 2.41850118e-05 255 79 163
57.6298435 14.7432119 9.08255707e-10 255 79 163
57.6726252 14.7057046 7.26659724e-08 255 79 163
57.683339 14.6961612 2.2368558e-08 255 79 163
48.5799399 15.7010348 -1.23937563e-17 218 222 230
48.5799399 15.6668099 0.00424044958 218 222 230
48.5799399 15.6357867 0.0161038149 218 222 230
48.5799399 15.6101191 0.0334631904 218 222 230
48.5799399 15.5887246 0.0562569143 218 222 230
48.5799399 15.5731123 0.0827742875 218 222 230
48.5799399 15.5639039 0.110891652 218 222 230
48.5799399 15.561549 0.125756102 218 222 230
48.5799399 15.5607995 0.140239302 218 222 230
55.3255067 15.5607995 0.127132184 218 222 230
55.3255067 15.6879317 -4.37150316e-15 218 222 230
55.3255067 15.6582571 0.00351137979 218 222 230
55.3255067 15.6302153 0.013856097 218 222 230
55.3255067 15.605366 0.0304605149 218 222 230
55.3255067 15.5850799 0.0524056852 218 222 230
55.3255067 15.5704759 0.0784820688 218 222 230
55.3255067 15.5632411 0.10233422 218 222 230
59.099919 3.9912686 5.986371e-17 218 222 230
59.099919 4.07082774 0.00985768083 218 222 230
59.099919 4.14294168 0.0374348898 218 222 230
59.099919 4.20260499 0.0777865679 218 222 230
59.099919 4.25233566 0.130769601 218 222 230
59.099919 4.28862669 0.192408524 218 222 230
59.099919 4.31003246 0.25776818 218 222 230
59.099919 4.3155068 0.292321911 218 222 230
59.099919 4.31724915 0.325980547 218 222 230
48.5799399 4.31724915 0.658070048 218 222 230
48.5799399 3.6591791 1.85037171e-17 218 222 230
48.5799399 3.81980603 0.019904572 218 222 230
48.5799399 3.96538288 0.0755793299 218 222 230
48.5799399 4.08581643 0.15703434 218 222 230
48.5799399 4.15068721 0.220490366 218 222 230
48.5799399 4.21651627 0.30816796 218 222 230
48.5799399 4.26609734 0.403695444 218 222 230
48.5799399 4.29866237 0.502772473 218 222 230
48.5799399 4.31277599 0.581471684 218 222 230
13.2556117 36.1405922 -1.44051437e-14 218 222 230
21.2138323 36.1405922 0 218 222 230
13.5507786 36.1405922 33.2318269 218 222 230
13.8428046 36.1405922 66.4636538 218 222 230
21.2138323 36.1405922 67.9761073 218 222 230
21.2138323 29.4309114 0.820011588 218 222 230
21.2138323 29.4309114 67.9761073 218 222 230
21.2138323 28.6108998 -2.22044605e-16 218 222 230
21.2138323 28.7933695 0.0205594025 218 222 230
21.2138323 28.9666895 0.0812066758 218 222 230
21.2138323 29.1221686 0.178900712 218 222 230
21.2138323 29.2520106 0.308742725 218 222 230
21.2138323 29.3497047 0.464221894 218 222 230
21.2138323 29.4103519 0.637541843 218 222 230
21.2138323 29.4309114 0 218 222 230
21.2138323 36.1405922 0 218 222 230
21.2138323 36.1405922 67.9761073 218 222 230
11.7006195 28.6108998 -4.16333634e-17 218 222 230
11.8754936 28.8386515 0.0322628112 218 222 230
12.0236504 29.0404174 0.121489125 218 222 230
12.1158019 29.1801196 0.229750852 218 222 230
12.1676806 29.2776253 0.342626949 218 222 230
12.184444 29.3243848 0.415835787 218 222 230
12.189714 29.3603023 0.487123054 218 222 230
12.189714 35.073634 0.371515066 218 222 230
11.8181989 35.073634 6.9388939e-17 218 222 230
11.8383144 35.073634 0.00054497054 218 222 230
11.8587944 35.073634 0.00222459927 218 222 230
11.8786962 35.073634 0.00495876524 218 222 230
11.8984051 35.073634 0.00876115156 218 222 230
11.9178645 35.073634 0.0136181475 218 222 230
11.9370186 35.073634 0.0195131757 218 222 230
11.9558125 35.073634 0.026426748 218 222 230
11.9741927 35.073634 0.0343365287 218 222 230
11.9921072 35.073634 0.043217407 218 222 230
12.0095051 35.073634 0.0530415765 218 222 230
12.0263376 35.073634 0.0637786225 218 222 230
12.0425573 35.073634 0.0753956167 218 222 230
12.058119 35.073634 0.0878572187 218 222 230
12.0729793 35.073634 0.101125785 218 222 230
12.0870972 35.073634 0.115161482 218 222 230
12.0946063 35.073634 0.123276444 218 222 230
12.1018648 35.073634 0.131604521 218 222 230
12.1088751 35.073634 0.140147803 218 222 230
12.1156169 35.073634 0.148880936 218 222 230
12.1221044 35.073634 0.157821598 218 222 230
12.1283076 35.073634 0.166927528 218 222 230
12.1342503 35.073634 0.176233328 218 222 230
12.1398948 35.073634 0.185678629 218 222 230
12.1452729 35.073634 0.195316142 218 222 230
12.1503408 35.073634 0.205066344 218 222 230
12.1551363 35.073634 0.215001085 218 222 230
12.1596119 35.073634 0.225020795 218 222 230
12.1676788 35.073634 0.245470386 218 222 230
12.1712639 35.073634 0.255892532 218 222 230
12.1745163 35.073634 0.266342057 218 222 230
12.1774779 35.073634 0.276952902 218 222 230
12.1801039 35.073634 0.287561552 218 222 230
12.182433 35.073634 0.298323664 218 222 230
12.1844256 35.073634 0.309053686 218 222 230
12.1861151 35.073634 0.319929232 218 222 230
12.1874699 35.073634 0.330742622 218 222 230
12.1884642 35.073634 0.341068217 218 222 230
12.1891643 35.073634 0.351312504 218 222 230
12.0471556 29.4309114 0.142558387 218 222 230
12.189714 29.3603023 0.487123054 218 222 230
12.189714 29.3992741 0.594434824 218 222 230
12.189714 29.4229635 0.706119324 218 222 230
12.189714 29.4309114 0.820011588 218 222 230
21.2138323 29.4309114 0.820011588 218 222 230
21.2138323 28.6108998 -2.22044605e-16 218 222 230
21.2138323 28.7933695 0.0205594025 218 222 230
21.2138323 28.9666895 0.0812066758 218 222 230
21.2138323 29.1221686 0.178900712 218 222 230
21.2138323 29.2520106 0.308742725 218 222 230
21.2138323 29.3497047 0.464221894 218 222 230
21.2138323 29.4103519 0.637541843 218 222 230
11.7006195 28.6108998 -4.16333634e-17 218 222 230
11.8754936 28.8386515 0.0322628112 218 222 230
12.0236504 29.0404174 0.121489125 218 222 230
12.1158019 29.1801196 0.229750852 218 222 230
12.1676806 29.2776253 0.342626949 218 222 230
12.184444 29.3243848 0.415835787 218 222 230
55.3255067 15.5607995 0.127132184 218 222 230
56.2075133 15.456245 0.106822512 218 222 230
57.0407728 15.1483489 0.087825673 218 222 230
57.7789838 14.6542143 0.0695302838 218 222 230
58.3812927 14.0012375 0.0514046951 218 222 230
58.8143606 13.2256286 0.0329389513 218 222 230
59.02786 12.5191669 0.0169576718 218 222 230
59.099919 11.7848261 0 218 222 230
55.6146639 15.5607995 11.9669289 218 222 230
56.3118507 15.5607995 27.7533245 218 222 230
57.5883423 15.5607995 53.3241631 218 222 230
57.9009916 15.5607995 61.9659588 218 222 230
58.0844174 15.5607995 70.6077546 218 222 230
59.099919 14.5394958 70.1493103 218 222 230
59.0658331 14.8020611 70.2294858 218 222 230
58.9779038 15.0250251 70.2974114 218 222 230
58.8559274 15.2036462 70.3567629 218 222 230
58.6989315 15.3525668 70.4157511 218 222 230
58.5142004 15.4647784 70.4756301 218 222 230
58.3104879 15.5351422 70.5377305 218 222 230
58.1979653 15.5543848 70.572101 218 222 230
59.099919 12.070378 11.8184384 218 222 230
59.099919 12.7637618 27.5763562 218 222 230
59.099919 14.0292713 52.8526432 218 222 230
59.099919 14.3479645 61.5009768 218 222 230
59.0340426 12.5865658 5.92568862 218 222 230
58.8980961 13.0573807 3.967594 218 222 230
58.8988069 15.0754812 64.5654738 218 222 230
58.4485335 15.4682568 66.1613609 218 222 230
58.7891391 15.2483056 67.4976187 218 222 230
58.660517 15.3440798 66.0977223 218 222 230
58.6661041 15.3544984 67.5400444 218 222 230
58.5500041 15.4168357 66.1316851 218 222 230
58.5400629 15.434405 67.5794909 218 222 230
57.4447696 14.9178902 1.39147977 218 222 230
57.9178607 14.5395704 1.37904902 218 222 230
56.8965421 15.2246228 1.40458193 218 222 230
57.6363627 14.7848985 2.04330681 218 222 230
57.9851414 14.4807272 2.03380841 218 222 230
57.2287464 15.057739 2.05346165 218 222 230
58.769589 13.4289151 6.6040809 218 222 230
58.9344495 12.9838709 5.93492156 218 222 230
58.7897037 13.3709704 5.9439843 218 222 230
58.6422273 13.6813125 6.61017945 218 222 230
58.6654836 13.6451332 6.93866056 218 222 230
58.5579824 13.8316293 6.94327703 218 222 230
58.9154093 13.1028834 8.56525316 218 222 230
56.3146162 15.4575431 6.68189787 218 222 230
56.7133069 15.3170567 4.03938234 218 222 230
56.8141973 15.3273605 9.95928071 218 222 230
58.8003737 13.535873 13.6105655 218 222 230
58.8549411 13.3559979 11.855561 218 222 230
58.9973118 12.9956191 14.4695064 218 222 230
59.0578144 12.8661044 18.8384563 218 222 230
58.6800728 13.8814144 17.1205745 218 222 230
56.6178201 15.4615155 17.1995661 218 222 230
57.6589844 14.9772805 16.286382 218 222 230
56.9905211 15.326422 15.8692857 218 222 230
59.0075913 13.2526062 22.3484653 218 222 230
58.8294325 13.7323107 21.4895244 218 222 230
56.4757356 15.5197966 20.7174856 218 222 230
57.1807012 15.2768915 18.0569249 218 222 230
58.5710685 14.2548625 23.2600673 218 222 230
58.8899727 13.6712828 23.6739994 218 222 230
56.8917252 15.4724717 25.0927639 218 222 230
57.5417889 15.171267 22.4322032 218 222 230
57.3984282 15.3090997 25.9501227 218 222 230
57.336706 15.3648869 27.7090825 218 222 230
58.2819986 14.7428791 27.6648404 218 222 230
57.3244122 15.4897792 36.1983507 218 222 230
57.5436696 15.3878829 34.0281542 218 222 230
58.0468701 15.1343582 34.7056944 218 222 230
57.7541216 15.361717 37.5665618 218 222 230
58.1221981 15.3163693 44.6433769 218 222 230
58.4748118 14.9356922 40.3029839 218 222 230
58.925714 14.3831737 43.0721339 218 222 230
58.7989714 14.357009 36.0607747 218 222 230
59.0417776 14.1072624 44.456709 218 222 230
59.0219498 13.6115674 31.8185654 218 222 230
58.9722401 14.4116893 46.5778136 218 222 230
58.7749073 14.7582195 45.9330014 218 222 230
58.8808244 14.684421 48.7480101 218 222 230
58.8102828 14.8455754 50.1948078 218 222 230
57.8116496 15.5092687 48.98377 218 222 230
58.1297377 15.4172815 50.3519811 218 222 230
58.654276 15.1151565 53.0884032 218 222 230
58.9927397 14.5961857 52.9705232 218 222 230
58.9700135 14.6826382 53.9445469 218 222 230
58.9201076 14.8415536 55.8925944 218 222 230
58.1416091 15.4543206 53.2062831 218 222 230
58.458139 15.3009051 54.1017202 218 222 230
58.3546476 15.3744816 54.6083787 218 222 230
58.483284 15.3110878 55.5431091 218 222 230
58.7044505 15.1653309 57.4125699 218 222 230
58.1974479 15.4605249 55.3683665 218 222 230
58.4376265 15.3952264 58.9303662 218 222 230
59.010171 14.7530669 59.4567733 218 222 230
58.8742971 15.0036515 59.2813043 218 222 230
58.9398395 14.9204815 60.2156715 218 222 230
58.8825917 15.0241341 60.7216036 218 222 230
59.0150104 14.7966217 61.6172223 218 222 230
58.7467382 15.2076186 61.7334678 218 222 230
58.3401354 15.4763791 61.8497133 218 222 230
58.5583853 15.3748803 62.7549668 218 222 230
58.4576707 15.4380573 63.2657163 218 222 230
58.4550126 15.4489224 64.2309312 218 222 230
59.0270562 14.9026241 68.8234645 218 222 230
58.9114194 12.9703762 0.683588714 218 222 230
58.7033569 13.4739464 0.47631521 218 222 230
58.6409405 13.5958587 0.698003375 218 222 230
58.8313824 13.1942624 1.0169042 218 222 230
58.4388323 13.92548 0.705993948 218 222 230
58.6621769 13.5597808 1.02538307 218 222 230
58.4520293 13.9104334 1.14327172 218 222 230
58.8546838 13.1469199 2.00046747 218 222 230
56.1057162 15.4808632 0.765857058 218 222 230
58.5329455 13.8080335 3.00070121 218 222 230
58.6726905 13.5790738 3.97979112 218 222 230
58.1650228 14.3132125 3.99965486 218 222 230
58.4101274 14.0149995 4.64776467 218 222 230
57.4915982 14.9083788 4.0195186 218 222 230
58.2569372 14.2192666 4.98175145 218 222 230
57.6851216 14.7834571 5.54846692 218 222 230
58.1105402 14.407146 6.41202054 218 222 230
57.9922454 14.5324764 6.74511812 218 222 230
57.6470178 14.8265099 6.64603866 218 222 230
57.7784842 14.7181285 6.31294108 218 222 230
57.5798777 14.8780131 6.81258745 218 222 230
57.71665 14.7801691 7.19226913 218 222 230
57.9748133 14.5680381 7.9516325 218 222 230
58.5432872 13.8811422 8.25844283 218 222 230
57.1912293 15.1266907 7.31676518 218 222 230
58.6524635 13.7080634 8.80064036 218 222 230
58.8338198 13.3556687 9.88503543 218 222 230
57.064522 15.2009806 8.19760369 218 222 230
58.0091498 14.5573231 9.26531621 218 222 230
58.9462233 13.0640488 10.7525751 218 222 230
58.6338503 13.7816421 10.5542515 218 222 230
58.9902541 12.9195504 11.1863449 218 222 230
58.2546447 14.3122509 10.1328559 218 222 230
58.026402 14.5523797 9.92215807 218 222 230
58.9513134 13.066018 11.409417 218 222 230
57.8546597 14.7148662 10.2567661 218 222 230
58.0436943 14.5477156 10.5789999 218 222 230
57.6673745 14.865658 10.3724269 218 222 230
57.2693684 15.1242165 10.6037483 218 222 230
58.0552392 14.5447624 11.0168945 218 222 230
56.4338808 15.4581105 11.2853386 218 222 230
56.5891847 15.4177346 11.5001612 218 222 230
56.8967497 15.3160029 11.9298063 218 222 230
58.2353083 14.3973793 13.0544372 218 222 230
58.0783536 14.5392341 11.8926836 218 222 230
58.3089833 14.3249624 13.6353139 218 222 230
56.7194064 15.3865031 12.5189325 218 222 230
58.5592035 13.9981316 14.2079412 218 222 230
56.6312809 15.4169668 12.8134956 218 222 230
58.2099527 14.4491115 14.0771586 218 222 230
58.0249222 14.633889 13.9381265 218 222 230
57.6143798 14.9592175 13.6600623 218 222 230
57.3675309 15.1277025 14.5437517 218 222 230
58.4132855 14.2149978 14.5066291 218 222 230
56.8828793 15.3379085 13.3902477 218 222 230
56.5001772 15.4568098 13.2553403 218 222 230
58.5099724 14.1039925 15.3779442 218 222 230
58.1851709 14.4999082 15.09988 218 222 230
58.5701361 14.0297269 15.958821 218 222 230
58.2371715 14.4831114 16.7034782 218 222 230
57.7513178 14.9233747 16.8688408 218 222 230
57.7964995 14.8957895 17.1600703 218 222 230
58.0343226 14.707732 17.5887497 218 222 230
58.5290451 14.1510904 18.0053186 218 222 230
57.59733 15.0408725 17.4590218 218 222 230
58.3584071 14.4021872 18.8890079 218 222 230
58.1709063 14.6317868 19.7716425 218 222 230
58.7595334 13.8026094 19.3050494 218 222 230
58.7838886 13.7781905 20.0332078 218 222 230
57.3042374 15.2424515 19.515351 218 222 230
57.9698916 14.8375819 20.6595508 218 222 230
57.3648822 15.2248964 20.2445641 218 222 230
58.6128762 14.1532457 22.0900643 218 222 230
57.7589128 15.0177474 21.5464044 218 222 230
58.2978825 14.5589476 21.9608638 218 222 230
58.4822136 14.3500968 22.3903343 218 222 230
58.5126687 14.3183524 22.6802453 218 222 230
57.7252102 15.0851217 23.5950115 218 222 230
58.1701408 14.759103 24.4523703 218 222 230
58.7262241 14.0660198 25.0042797 218 222 230
57.8131522 15.0397121 24.1764156 218 222 230
59.0133865 13.3974854 26.2903179 218 222 230
58.9137457 13.7089809 26.1572564 218 222 230
58.5936378 14.3105948 25.8911333 218 222 230
57.9400558 14.9690325 25.0485218 218 222 230
58.3137416 14.6490198 25.6151786 218 222 230
58.1533356 14.8030084 25.4772012 218 222 230
58.9817147 13.5320269 26.7337447 218 222 230
57.7644818 15.0987105 25.3490554 218 222 230
58.9578641 13.6206356 27.0293626 218 222 230
58.9036916 13.7947526 27.6205983 218 222 230
58.0606693 14.8956797 25.920628 218 222 230
57.2163247 15.4228865 28.6517956 218 222 230
57.1578652 15.4476477 29.1231522 218 222 230
58.6866711 14.3665128 31.3865351 218 222 230
58.8681674 13.9941583 30.4339904 218 222 230
58.4881773 14.604953 30.4634851 218 222 230
58.2735663 14.848281 30.9446733 218 222 230
57.9512957 15.0956545 30.4929799 218 222 230
57.7847587 15.2320094 31.9070496 218 222 230
57.3759418 15.3874788 30.051118 218 222 230
58.4178092 14.7087523 31.17052 218 222 230
57.0726524 15.4797088 29.8301871 218 222 230
58.5784066 14.5386352 31.8628075 218 222 230
58.2719435 14.8979604 32.5845897 218 222 230
58.4802707 14.6953403 32.9233598 218 222 230
58.6601586 14.4748604 33.2621299 218 222 230
58.3435196 14.8584107 33.5174713 218 222 230
58.7100302 14.4340208 34.1950115 218 222 230
58.1275877 15.101221 35.6549399 218 222 230
58.1665863 15.0846093 36.1295627 218 222 230
58.344385 14.9559537 36.8136682 218 222 230
58.0313884 15.1910657 36.6085624 218 222 230
58.791259 14.6687721 44.0574066 218 222 230
58.5900215 14.9238686 43.8577554 218 222 230
58.7116216 14.7997365 44.550043 218 222 230
58.7335259 14.7856207 45.0110291 218 222 230
58.5948602 15.0169038 47.1648616 218 222 230
58.3293434 15.2487482 47.4583857 218 222 230
58.4953959 15.1279752 47.7807918 218 222 230
58.6441514 14.9914843 48.1031979 218 222 230
58.4215762 15.2147062 48.8658901 218 222 230
58.5679912 15.1021474 49.3088626 218 222 230
58.3726969 15.2663046 49.5892889 218 222 230
58.4964382 13.8530414 2.01713794 218 222 230
57.9584497 14.5116924 2.52708143 218 222 230
57.8087201 14.6535499 3.02456049 218 222 230
58.8080633 13.31595 5.28672665 218 222 230
58.3303386 14.1391432 5.74622561 218 222 230
57.0200735 15.2015974 6.11518239 218 222 230
57.0739689 15.1789227 6.49741947 218 222 230
58.604176 13.8484118 11.2131557 218 222 230
58.6978581 13.6866191 11.4272908 218 222 230
57.3625938 15.0804469 11.2585278 218 222 230
57.4365669 15.0503697 12.2058081 218 222 230
57.724384 14.8589959 12.4886844 218 222 230
57.5350131 14.9974333 12.7866848 218 222 230
57.493409 15.0266086 12.9339664 218 222 230
57.2428289 15.1687622 12.7956218 218 222 230
57.6073406 14.9563669 13.2223424 218 222 230
57.2941538 15.1457005 13.0860601 218 222 230
57.6238782 14.9859538 15.4845829 218 222 230
58.8467622 13.5909451 18.6430735 218 222 230
58.4460222 14.2791617 18.4476906 218 222 230
57.8736126 14.8597403 18.2523078 218 222 230
58.046574 14.7175399 18.4645411 218 222 230
57.8187162 14.9071246 18.4729664 218 222 230
58.4698023 14.3257706 21.0745376 218 222 230
57.8654191 14.9309526 21.103505 218 222 230
58.4283334 14.3860487 21.2965147 218 222 230
57.1920913 15.3156141 20.9104953 218 222 230
58.0395136 14.9916454 28.926707 218 222 230
57.67114 15.2415087 29.412811 218 222 230
57.9133874 15.0987035 29.5576404 218 222 230
57.7192085 15.2251 29.8792518 218 222 230
57.8847852 15.1233513 29.7933187 218 222 230
57.9791987 15.0703351 30.2573016 218 222 230
58.549326 14.4538486 28.2736527 218 222 230
58.3421388 14.7413828 29.6394459 218 222 230
58.4760344 14.6040781 29.9958154 218 222 230
58.5262221 14.5316681 29.6803487 218 222 230
58.948392 13.6823266 27.8235357 218 222 230
58.9684342 13.626194 27.9250044 218 222 230
58.9609042 13.6795344 28.6283524 218 222 230
58.8548529 13.9459736 28.5101192 218 222 230
58.9323579 13.7867621 29.2302318 218 222 230
58.6809627 14.2839516 28.8890193 218 222 230
58.5120874 14.5173322 28.7184131 218 222 230
58.5774005 14.4434596 29.0784694 218 222 230
48.5799399 4.31724915 0.658070048 218 222 230
48.5799399 4.31724915 69.9862671 218 222 230
59.099919 4.31724915 0.325980547 218 222 230
59.099919 4.31724915 69.5704986 218 222 230
59.1868927 4.31724915 69.9862671 218 222 230
59.1373557 4.31724915 69.8466529 218 222 230
59.1089005 4.31724915 69.7067028 218 222 230
13.8428046 36.1405922 66.4636538 218 222 230
13.8428046 36.1405922 66.4636538 218 222 230
11.4407304 34.4906706 65.9707747 218 222 230
11.4603474 34.687096 65.9747999 218 222 230
11.5221981 34.8744065 65.987491 218 222 230
11.6155107 35.0477788 66.0066377 218 222 230
11.7741309 35.2558614 66.0391848 218 222 230
11.9846693 35.4605307 66.082385 218 222 230
12.3006081 35.689612 66.1472121 218 222 230
12.6887976 35.8922085 66.2268643 218 222 230
13.1009801 36.0374071 66.3114396 218 222 230
13.4686111 36.1138078 66.3868734 218 222 230
11.5891335 34.4906706 65.9830706 218 222 230
11.7362542 34.4906706 65.9598409 218 222 230
11.8736487 34.4906706 65.9023815 218 222 230
11.9935097 34.4906706 65.813981 218 222 230
12.0889991 34.4906706 65.6996943 218 222 230
12.1546561 34.4906706 65.5660162 218 222 230
12.1808844 34.4906706 65.4644006 218 222 230
12.189714 34.4906706 65.3598698 218 222 230
12.2295102 34.850403 65.5247652 218 222 230
12.3485817 35.1963018 65.6809233 218 222 230
12.5423078 35.5091331 65.8319267 218 222 230
12.8010954 35.7717532 65.9811193 218 222 230
13.1111518 35.9701959 66.1317315 218 222 230
13.4555114 36.0946816 66.287071 218 222 230
13.6484911 36.1291581 66.3738799 218 222 230
11.6695471 34.8686357 65.9966356 218 222 230
11.8108274 34.8580166 65.9711652 218 222 230
11.9378619 34.8476102 65.918503 218 222 230
12.0451143 34.8375189 65.8429125 218 222 230
12.1298538 34.8277089 65.7470531 218 222 230
11.8588168 35.1998981 66.0368203 218 222 230
12.1899001 34.8181833 65.6332679 218 222 230
11.9745997 35.1853319 66.013214 218 222 230
12.0777198 35.1707226 65.970431 218 222 230
12.1643628 35.1564664 65.9122734 218 222 230
12.2333403 35.1428867 65.8389352 218 222 230
12.2840855 35.1302332 65.7493312 218 222 230
12.4161402 35.7089611 66.1575271 218 222 230
12.4824104 35.700551 66.1403935 218 222 230
12.65747 35.6645643 65.9788407 218 222 230
12.6302573 35.6720792 66.0341522 218 222 230
13.2102297 36.018092 66.2127571 218 222 230
13.19999 36.0194358 66.2416594 218 222 230
12.2283388 35.3295252 65.9832342 218 222 230
12.3508494 35.4809881 66.0260973 218 222 230
12.591592 35.6811164 66.0780563 218 222 230
12.5417857 35.6910012 66.113085 218 222 230
12.780523 35.8359549 66.1614332 218 222 230
12.9171698 35.9641395 66.266142 218 222 230
13.0997911 36.0270265 66.3054744 218 222 230
12.9368471 35.9630912 66.2620526 218 222 230
13.1304782 36.0259214 66.2975864 218 222 230
12.9559216 35.9617777 66.2558587 218 222 230
13.1587166 36.0239363 66.2837776 218 222 230
12.9525112 35.9305598 66.2121209 218 222 230
13.1825134 36.0215159 66.2651571 218 222 230
13.1158547 36.031872 66.308923 218 222 230
13.2905112 36.0776243 66.3462721 218 222 230
13.3020708 36.0775269 66.3441343 218 222 230
13.4749697 36.1053722 66.3606187 218 222 230
13.5777591 36.1222729 66.3893339 218 222 230
12.7378875 35.8665566 66.2102229 218 222 230
12.8310973 35.912321 66.2321642 218 222 230
13.3822491 36.0975555 66.3672032 218 222 230
13.4721467 36.1101254 66.3797002 218 222 230
13.5273074 36.1184523 66.3920658 218 222 230
13.498759 36.116167 66.391009 218 222 230
13.4838683 36.1149654 66.389441 218 222 230
11.5397141 29.4309114 65.9910851 255 79 163
11.6714984 29.4309114 66.0016418 255 79 163
11.7497658 29.4309114 65.9925723 255 79 163
11.8287237 29.4309114 65.9712419 255 79 163
11.906451 29.4309114 65.9367039 255 79 163
11.9788148 29.4309114 65.8896408 255 79 163
12.042185 29.4309114 65.8322983 255 79 163
12.0946706 29.4309114 65.7672564 255 79 163
12.135733 29.4309114 65.6965354 255 79 163
12.1648867 29.4309114 65.6229572 255 79 163
12.1838307 29.4309114 65.5404998 255 79 163
12.189714 29.4309114 65.4609158 255 79 163
12.189714 34.4906706 65.3598698 255 79 163
11.4407304 34.4906706 65.9707747 255 79 163
11.5891335 34.4906706 65.9830706 255 79 163
11.7362542 34.4906706 65.9598409 255 79 163
11.8736487 34.4906706 65.9023815 255 79 163
11.9935097 34.4906706 65.813981 255 79 163
12.0889991 34.4906706 65.6996943 255 79 163
12.1546561 34.4906706 65.5660162 255 79 163
12.1808844 34.4906706 65.4644006 255 79 163
12.189714 29.4309114 0.820011588 218 222 230
12.189714 29.4309114 65.4609158 218 222 230
21.2138323 29.4309114 0.820011588 218 222 230
21.2138323 29.4309114 67.9761073 218 222 230
12.189714 29.4309114 66.1244579 218 222 230
11.5397141 29.4309114 65.9910851 218 222 230
11.6714984 29.4309114 66.0016418 218 222 230
11.7497658 29.4309114 65.9925723 218 222 230
11.8287237 29.4309114 65.9712419 218 222 230
11.906451 29.4309114 65.9367039 218 222 230
11.9788148 29.4309114 65.8896408 218 222 230
12.042185 29.4309114 65.8322983 218 222 230
12.0946706 29.4309114 65.7672564 218 222 230
12.135733 29.4309114 65.6965354 218 222 230
12.1648867 29.4309114 65.6229572 218 222 230
12.1838307 29.4309114 65.5404998 218 222 230
12.189714 35.073634 0.371515066 218 222 230
12.1898474 35.0904505 0.367390612 218 222 230
12.1902504 35.1073694 0.363266159 218 222 230
12.1909272 35.1243855 0.359141705 218 222 230
12.1918821 35.1414935 0.355017251 218 222 230
12.1930925 35.1583507 0.350973423 218 222 230
12.1945785 35.1752852 0.346929594 218 222 230
12.1963239 35.1921116 0.342928335 218 222 230
12.1983467 35.2090019 0.338927076 218 222 230
12.2006248 35.2257702 0.33496823 218 222 230
12.2031817 35.2425888 0.331009383 218 222 230
12.2059895 35.2592752 0.327091894 218 222 230
12.2090767 35.2759985 0.323174405 218 222 230
12.2124107 35.2925823 0.319296588 218 222 230
12.2160241 35.3091894 0.315418772 218 222 230
12.2198803 35.3256519 0.311578531 218 222 230
12.2240154 35.3421242 0.30773829 218 222 230
12.2283895 35.3584484 0.303933273 218 222 230
12.2330412 35.3747689 0.300128255 218 222 230
12.2379286 35.3909388 0.296355975 218 222 230
12.2430919 35.4070918 0.292583695 218 222 230
12.2484876 35.423092 0.288841614 218 222 230
12.2541569 35.4390623 0.285099534 218 222 230
12.2600555 35.4548782 0.281385127 218 222 230
12.2662249 35.4706513 0.277670719 218 222 230
12.2726208 35.4862684 0.273981506 218 222 230
12.2792841 35.5018299 0.270292294 218 222 230
12.2861711 35.5172338 0.266625872 218 222 230
12.2933216 35.5325698 0.26295945 218 222 230
12.3006931 35.5477463 0.259313506 218 222 230
12.3083237 35.5628427 0.255667562 218 222 230
12.3161725 35.5777776 0.252039878 218 222 230
12.3242758 35.5926205 0.248412194 218 222 230
12.3325943 35.6072996 0.244800651 218 222 230
12.3411619 35.6218749 0.241189108 218 222 230
12.3499419 35.636284 0.237591684 218 222 230
12.3589653 35.650578 0.233994259 218 222 230
12.3681981 35.664703 0.230409019 218 222 230
12.377668 35.6787017 0.226823779 218 222 230
12.3873442 35.6925285 0.223248873 218 222 230
12.3972508 35.7062182 0.219673966 218 222 230
12.4073605 35.7197328 0.216107616 218 222 230
12.4176935 35.7330998 0.212541266 218 222 230
12.4282262 35.7462884 0.208981756 218 222 230
12.4389747 35.7593192 0.205422247 218 222 230
12.4499193 35.7721683 0.201867915 218 222 230
12.4610717 35.7848496 0.198313583 218 222 230
12.4724167 35.7973458 0.194762807 218 222 230
12.4839611 35.8096647 0.191212031 218 222 230
12.4956943 35.821795 0.187663215 218 222 230
12.5076183 35.8337388 0.1841144 218 222 230
12.521084 35.8467843 0.180171698 218 222 230
12.5347733 35.8595883 0.176228996 218 222 230
12.5486852 35.87215 0.172284717 218 222 230
12.5628077 35.8844588 0.168340437 218 222 230
12.5771475 35.8965208 0.164392409 218 222 230
12.5916843 35.908319 0.160444381 218 222 230
12.6064332 35.919866 0.1564904 218 222 230
12.621365 35.9311392 0.152536418 218 222 230
12.6365037 35.9421569 0.148574226 218 222 230
12.6518107 35.9528914 0.144612033 218 222 230
12.6673197 35.9633664 0.140639299 218 222 230
12.682982 35.9735494 0.136666566 218 222 230
12.6988415 35.9834691 0.13268087 218 222 230
12.7148391 35.9930888 0.128695175 218 222 230
12.7310293 36.0024416 0.124693991 218 222 230
12.7473418 36.0114871 0.120692806 218 222 230
12.7638429 36.0202623 0.116673484 218 222 230
12.7804501 36.0287238 0.112654161 218 222 230
12.7972422 36.0369116 0.108613919 218 222 230
12.814124 36.0447798 0.104573676 218 222 230
12.8311871 36.0523713 0.100509592 218 222 230
12.8483233 36.0596383 0.0964455071 218 222 230
12.8656378 36.0666253 0.0923545184 218 222 230
12.8830083 36.0732836 0.0882635297 218 222 230
12.9005541 36.0796589 0.0841424416 218 222 230
12.9181388 36.0857019 0.0800213535 218 222 230
12.9358961 36.0914588 0.0758668584 218 222 230
12.9536747 36.0968807 0.0717123633 218 222 230
12.9716232 36.1020131 0.0675210789 218 222 230
12.9895752 36.1068086 0.0633297944 218 222 230
13.0076938 36.1113111 0.059098325 218 222 230
13.025798 36.1154757 0.0548668557 218 222 230
13.0440649 36.1193432 0.0505918876 218 222 230
13.0622994 36.1228726 0.0463169196 218 222 230
13.0806909 36.1261006 0.0419953608 218 222 230
13.099032 36.1289912 0.0376738021 218 222 230
13.1175223 36.1315758 0.0333029824 218 222 230
13.1359442 36.1338243 0.0289321627 218 222 230
13.1545041 36.1357621 0.0245101116 218 222 230
13.1729778 36.1373659 0.0200880605 218 222 230
13.1915737 36.1386541 0.0156138812 218 222 230
13.210066 36.1396113 0.0111397019 218 222 230
13.2215209 36.1400424 0.00835477641 218 222 230
13.2329312 36.1403487 0.00556985094 218 222 230
13.2442953 36.1405316 0.00278492547 218 222 230
13.2556117 36.1405922 -1.44051437e-14 218 222 230
13.5507786 36.1405922 33.2318269 218 222 230
13.8428046 36.1405922 66.4636538 218 222 230
12.189714 34.4906706 65.3598698 218 222 230
12.2295102 34.850403 65.5247652 218 222 230
12.3485817 35.1963018 65.6809233 218 222 230
12.5423078 35.5091331 65.8319267 218 222 230
12.8010954 35.7717532 65.9811193 218 222 230
13.1111518 35.9701959 66.1317315 218 222 230
13.4555114 36.0946816 66.287071 218 222 230
13.6484911 36.1291581 66.3738799 218 222 230
12.189714 34.7838933 32.8656924 218 222 230
12.3012562 35.5026399 11.0933653 218 222 230
12.2962885 35.4921707 11.0957382 218 222 230
12.3063361 35.5130677 11.090994 218 222 230
12.3115279 35.5234524 11.0886245 218 222 230
12.3168321 35.5337944 11.0862562 218 222 230
12.7452355 35.9846818 11.2059338 218 222 230
12.7553418 35.9905696 11.2035674 218 222 230
12.7654916 35.9963424 11.2012015 218 222 230
12.7762525 36.0023121 11.1987044 218 222 230
12.7876302 36.0084583 11.1960759 218 222 230
12.7990598 36.0144642 11.193447 218 222 230
12.8105389 36.0203292 11.1908175 218 222 230
12.822068 36.0260544 11.1881868 218 222 230
12.8336446 36.0316393 11.1855548 218 222 230
12.8452696 36.0370849 11.1829209 218 222 230
12.2362764 35.2933221 16.5480503 218 222 230
13.0390491 36.0942964 16.6862335 218 222 230
12.5389717 35.7680117 22.0974273 218 222 230
12.9553036 36.0665822 16.704028 218 222 230
12.9645522 36.0699896 16.7020559 218 222 230
12.9202873 36.0528716 16.7115194 218 222 230
12.9285626 36.0562289 16.7097451 218 222 230
12.9460704 36.0630922 16.7059994 218 222 230
12.9120204 36.049444 16.7132948 218 222 230
12.9830891 36.0765552 16.6981098 218 222 230
12.9923752 36.0797137 16.6961359 218 222 230
13.0016828 36.0827928 16.6941589 218 222 230
13.0109967 36.0857881 16.6921819 218 222 230
12.93685 36.059518 16.7079707 218 222 230
13.0203353 36.0887056 16.6902009 218 222 230
13.0296781 36.0915392 16.6882198 218 222 230
12.9738115 36.0733128 16.7000838 218 222 230
12.3792573 35.3824188 43.8191297 218 222 230
13.2370834 36.0586398 49.6064731 218 222 230
12.4604016 35.438875 54.7054873 218 222 230
12.6409591 35.6893471 49.2958484 218 222 230
12.625324 35.8874406 14.807465 218 222 230
12.2387656 35.3017939 16.5462578 218 222 230
12.2493609 35.3355043 16.5391166 218 222 230
12.2466132 35.3270942 16.5408998 218 222 230
12.2413155 35.3102382 16.5444703 218 222 230
12.2640759 35.3773208 16.5302276 218 222 230
12.2610012 35.3689861 16.5320029 218 222 230
12.2550494 35.3522728 16.5355572 218 222 230
12.2521712 35.343892 16.5373369 218 222 230
12.2579913 35.3606337 16.5337801 218 222 230
12.2439335 35.3186786 16.5426829 218 222 230
12.4858218 35.7451217 16.6306726 218 222 230
12.4889421 35.7486306 16.6297763 218 222 230
12.4920675 35.7521174 16.6288826 218 222 230
12.4952071 35.7555919 16.6279889 218 222 230
12.4983532 35.7590459 16.6270973 218 222 230
12.5015132 35.7624876 16.6262057 218 222 230
12.504681 35.7659104 16.6253159 218 222 230
12.5078625 35.7693207 16.624426 218 222 230
12.511053 35.7727137 16.6235374 218 222 230
12.514257 35.7760941 16.6226489 218 222 230
12.5174713 35.7794585 16.6217612 218 222 230
12.5206989 35.7828103 16.6208735 218 222 230
12.523938 35.7861474 16.6199863 218 222 230
12.5271903 35.7894718 16.6190991 218 222 230
12.530819 35.79315 16.6181135 218 222 230
12.5344638 35.7968121 16.6171278 218 222 230
12.538126 35.8004596 16.6161417 218 222 230
12.5418042 35.8040908 16.6151557 218 222 230
12.5455016 35.8077091 16.6141687 218 222 230
12.5492147 35.8113109 16.6131817 218 222 230
12.5529491 35.8149015 16.6121932 218 222 230
12.556699 35.8184753 16.6112048 218 222 230
12.5604721 35.8220397 16.6102142 218 222 230
12.5642606 35.8255871 16.6092237 218 222 230
12.5680745 35.8291267 16.6082305 218 222 230
12.2774689 35.3158268 27.4815599 218 222 230
13.0003852 36.0465729 27.6646271 218 222 230
12.3548588 35.4637722 29.3372932 218 222 230
12.8572217 35.9696293 29.459338 218 222 230
12.2850467 35.2825973 32.9572261 218 222 230
12.5877212 35.742585 33.0487597 218 222 230
13.0490882 36.0451062 33.1402933 218 222 230
12.9171803 35.9587256 38.5254783 218 222 230
12.7981026 35.89422 36.6999054 218 222 230
13.0193068 35.9952215 42.2191433 218 222 230
12.7397756 35.793707 46.7128014 218 222 230
12.9316297 35.9166951 49.4563751 218 222 230
12.7838882 35.8151768 49.3782961 218 222 230
13.0828004 35.9970671 49.5318768 218 222 230
12.8093675 35.8216761 52.1559802 218 222 230
12.6188351 35.6373168 54.8125052 218 222 230
12.7989411 35.8018472 54.9148923 218 222 230
12.419352 35.3553458 58.3624224 218 222 230
12.2946193 35.0891188 60.0861875 218 222 230
13.3074604 36.0581518 60.6892731 218 222 230
12.2959032 35.0844116 61.9331758 218 222 230
12.5626296 35.7554273 27.5730935 218 222 230
12.4852234 35.6652197 28.1611601 218 222 230
12.3181782 35.3480175 34.1742747 218 222 230
12.3367961 35.3808704 34.7827989 218 222 230
12.3673219 35.4301604 35.6955854 218 222 230
12.3713985 35.4138542 38.4034335 218 222 230
12.4849574 35.6042426 36.0303587 218 222 230
12.8026057 35.7880785 59.5258477 218 222 230
12.6644742 35.6639528 59.7571748 218 222 230
12.341285 35.1998247 60.1373811 218 222 230
12.4350168 35.3727995 60.2198288 218 222 230
12.815359 35.7953389 60.4545509 218 222 230
12.5985013 35.5896396 60.9474259 218 222 230
12.6942328 35.6880396 61.3112244 218 222 230
12.9864297 35.9067582 62.9987763 218 222 230
12.7520491 35.7337896 64.1101234 218 222 230
12.6152696 35.5995194 64.0324536 218 222 230
12.8348451 35.8014847 64.1535278 218 222 230
13.0314771 35.9297934 64.8647089 218 222 230
12.8654259 35.8232136 64.7839928 218 222 230
12.6199333 35.7696378 33.657284 218 222 230
12.9108769 35.9794332 33.515465 218 222 230
12.843541 35.9399535 33.7030508 218 222 230
12.6420706 35.7873186 34.0629668 218 222 230
12.8630266 35.9500895 34.0073129 218 222 230
12.7254465 35.8530471 34.6816615 218 222 230
12.9854306 36.0116188 34.6310928 218 222 230
12.9222369 35.9768945 35.320697 218 222 230
12.5685124 35.5498419 62.465976 218 222 230
12.2914258 35.0628383 64.6961617 218 222 230
12.4287865 35.3476205 64.7254387 218 222 230
12.3550621 35.2113103 65.0719313 218 222 230
12.3032054 35.092379 65.2228759 218 222 230
12.4532077 35.3855988 65.154379 218 222 230
12.189714 29.4309114 0.820011588 218 222 230
12.189714 29.4309114 65.4609158 218 222 230
12.189714 34.4906706 65.3598698 218 222 230
12.189714 35.073634 0.371515066 218 222 230
12.189714 34.7838933 32.8656924 218 222 230
12.189714 29.3603023 0.487123054 218 222 230
12.189714 29.3992741 0.594434824 218 222 230
12.189714 29.4229635 0.706119324 218 222 230
3 9 7 8
3 6 7 9
3 10 6 9
3 5 6 10
3 11 5 10
3 4 5 11
3 3 11 12
3 3 4 11
3 2 4 3
3 14 13 4
3 15 4 2
3 15 14 4
3 16 15 2
3 17 16 2
3 0 1 17
3 0 17 2
3 41 39 38
3 41 40 39
3 42 38 37
3 42 41 38
3 43 37 19
3 43 42 37
3 36 19 18
3 36 44 43
3 36 43 19
3 35 36 18
3 59 34 35
3 59 35 18
3 60 34 59
3 20 59 18
3 56 59 20
3 46 34 60
3 21 56 20
3 30 57 56
3 30 56 21
3 29 57 30
3 28 58 57
3 28 57 29
3 27 58 28
3 26 58 27
3 25 58 26
3 24 58 25
3 24 47 58
3 23 47 24
3 22 48 47
3 22 49 48
3 22 50 49
3 22 47 23
3 33 46 45
3 33 45 55
3 32 22 31
3 32 50 22
3 32 33 55
3 32 51 50
3 32 52 51
3 32 53 52
3 32 54 53
3 32 55 54
3 33 34 46
3 80 61 71
3 81 71 72
3 81 72 73
3 81 80 71
3 82 80 81
3 82 83 80
3 84 83 82
3 84 82 81
3 85 73 74
3 85 74 75
3 85 75 76
3 85 84 81
3 85 81 73
3 86 70 69
3 86 76 77
3 86 77 78
3 86 78 79
3 86 79 70
3 86 85 76
3 86 83 84
3 86 84 85
3 86 69 83
3 87 62 61
3 87 61 80
3 87 80 83
3 88 63 62
3 88 64 63
3 88 65 64
3 88 66 65
3 88 67 66
3 88 68 67
3 88 69 68
3 88 62 87
3 88 87 83
3 88 83 69
3 89 91 90
3 89 92 91
3 93 92 89
3 100 93 89
3 98 100 99
3 95 94 93
3 95 93 100
3 95 100 98
3 96 98 97
3 96 95 98
3 121 113 114
3 121 114 115
3 121 115 116
3 121 116 117
3 121 117 112
3 122 101 118
3 123 118 119
3 123 119 124
3 125 110 109
3 125 123 124
3 125 124 110
3 125 126 123
3 127 124 119
3 127 110 124
3 128 127 119
3 128 110 127
3 129 111 110
3 130 111 129
3 131 119 120
3 131 111 130
3 132 131 120
3 132 111 131
3 133 112 111
3 133 120 113
3 133 113 121
3 133 121 112
3 133 111 132
3 133 132 120
3 134 136 135
3 137 138 136
3 137 139 138
3 137 136 134
3 140 139 137
3 140 108 139
3 140 134 135
3 140 137 134
3 141 140 135
3 141 135 122
3 142 140 141
3 142 109 108
3 142 108 140
3 143 144 122
3 143 122 118
3 145 143 118
3 146 109 142
3 146 142 144
3 147 109 146
3 147 145 148
3 149 148 145
3 149 145 118
3 150 109 147
3 150 147 148
3 151 149 118
3 151 118 123
3 151 123 126
3 152 109 150
3 152 125 109
3 152 150 148
3 152 126 125
3 153 130 129
3 153 119 131
3 153 131 130
3 154 102 101
3 154 103 102
3 155 154 101
3 155 101 122
3 155 122 135
3 155 156 154
3 157 155 135
3 157 135 136
3 158 141 122
3 158 142 141
3 159 142 158
3 159 158 122
3 160 142 159
3 160 144 142
3 160 159 122
3 160 122 144
3 161 144 143
3 161 147 146
3 161 146 144
3 161 145 147
3 161 143 145
3 162 148 149
3 162 149 151
3 162 151 126
3 162 152 148
3 162 126 152
3 163 110 128
3 163 129 110
3 163 153 129
3 164 104 103
3 164 105 104
3 165 164 103
3 165 103 154
3 165 154 156
3 166 106 105
3 166 107 106
3 166 108 107
3 166 105 164
3 167 164 165
3 167 166 164
3 168 108 166
3 168 165 156
3 168 166 167
3 168 167 165
3 168 139 108
3 169 168 156
3 169 157 136
3 169 139 168
3 169 136 138
3 169 156 155
3 169 155 157
3 169 138 139
3 170 119 153
3 170 163 128
3 170 128 119
3 170 153 163
3 173 204 174
3 205 204 173
3 211 205 173
3 210 211 173
3 209 210 173
3 208 209 173
3 207 208 173
3 206 207 173
3 200 206 173
3 203 174 204
3 188 174 203
3 188 187 174
3 201 200 173
3 175 186 185
3 175 187 186
3 175 174 187
3 189 188 203
3 190 202 201
3 190 203 202
3 190 189 203
3 191 190 201
3 176 185 184
3 176 175 185
3 177 176 184
3 177 199 198
3 177 184 199
3 178 177 198
3 178 198 197
3 179 197 196
3 179 178 197
3 180 179 196
3 180 195 194
3 180 196 195
3 181 180 194
3 181 194 193
3 182 193 192
3 182 181 193
3 172 182 192
3 172 183 182
3 172 171 183
3 172 192 191
3 172 191 201
3 172 201 173
3 218 216 217
3 219 216 218
3 222 215 216
3 222 219 220
3 222 220 221
3 222 216 219
3 223 214 215
3 223 215 222
3 224 212 214
3 224 214 223
3 213 212 224
3 237 226 225
3 237 225 236
3 238 227 226
3 238 226 237
3 239 228 227
3 239 227 238
3 240 229 228
3 240 228 239
3 241 230 229
3 241 229 240
3 242 231 230
3 242 230 241
3 243 232 231
3 243 231 242
3 244 233 232
3 244 232 243
3 235 234 233
3 235 233 244
3 248 249 245
3 247 248 246
3 245 246 248
3 260 251 250
3 261 252 251
3 261 251 260
3 262 253 252
3 262 252 261
3 263 253 262
3 264 254 253
3 264 253 263
3 265 255 254
3 265 254 264
3 266 256 255
3 266 255 265
3 267 257 256
3 267 256 266
3 259 258 257
3 259 257 267
3 294 269 268
3 277 275 274
3 277 276 275
3 287 301 286
3 292 284 291
3 293 284 292
3 285 284 293
3 302 283 282
3 302 300 301
3 303 284 283
3 303 287 288
3 303 288 289
3 303 289 290
3 303 290 291
3 303 302 301
3 303 283 302
3 303 301 287
3 303 291 284
3 304 270 269
3 304 271 270
3 304 272 271
3 304 269 294
3 304 305 272
3 306 304 294
3 306 305 304
3 307 294 295
3 307 306 294
3 308 305 306
3 308 307 295
3 308 306 307
3 309 305 308
3 310 295 296
3 311 295 310
3 311 308 295
3 311 309 308
3 311 312 309
3 313 273 272
3 313 274 273
3 313 277 274
3 313 272 305
3 314 312 311
3 314 311 310
3 315 314 310
3 315 296 297
3 315 310 296
3 316 313 305
3 317 316 278
3 317 278 277
3 317 313 316
3 317 277 313
3 318 305 309
3 318 316 305
3 318 309 312
3 319 315 297
3 319 312 314
3 319 314 315
3 320 278 316
3 320 318 312
3 320 316 318
3 321 279 278
3 321 278 320
3 322 320 312
3 322 279 321
3 322 321 320
3 323 297 298
3 324 280 279
3 324 279 322
3 325 323 298
3 325 298 299
3 326 299 300
3 326 325 299
3 326 327 325
3 328 281 280
3 328 327 281
3 329 312 319
3 329 322 312
3 329 324 322
3 330 319 297
3 330 297 323
3 330 329 319
3 331 324 329
3 331 329 330
3 331 330 323
3 332 328 280
3 332 324 331
3 332 280 324
3 333 328 332
3 333 323 325
3 333 325 327
3 333 327 328
3 333 331 323
3 333 332 331
3 334 282 281
3 334 327 326
3 334 281 327
3 334 302 282
3 335 326 300
3 335 334 326
3 335 300 302
3 335 302 334
3 338 336 337
3 338 339 336
3 353 341 340
3 354 342 341
3 354 341 353
3 355 343 342
3 355 344 343
3 355 342 354
3 356 345 344
3 356 344 355
3 357 346 345
3 357 347 346
3 357 345 356
3 358 348 347
3 358 347 357
3 359 349 348
3 359 348 358
3 360 350 349
3 360 349 359
3 352 351 350
3 352 350 360
3 369 368 367
3 366 369 367
3 370 369 366
3 365 370 366
3 363 371 370
3 363 372 371
3 363 370 365
3 364 363 365
3 361 363 364
3 362 364 373
3 362 361 364
3 374 362 373
3 383 384 362
3 375 362 374
3 382 383 362
3 382 362 375
3 377 375 376
3 380 381 382
3 378 382 375
3 378 375 377
3 378 380 382
3 379 380 378
3 392 387 386
3 391 392 386
3 390 391 386
3 385 389 390
3 388 389 385
3 385 390 386
3 396 404 395
3 396 405 404
3 418 396 397
3 418 405 396
3 419 406 405
3 419 407 406
3 419 405 418
3 420 408 407
3 420 409 408
3 420 410 409
3 420 411 410
3 420 407 419
3 421 399 400
3 422 413 412
3 423 401 402
3 424 415 414
3 424 414 425
3 426 394 393
3 426 393 417
3 426 427 394
3 428 417 416
3 428 426 417
3 429 397 398
3 429 412 411
3 429 418 397
3 429 419 418
3 429 411 420
3 429 420 419
3 430 398 399
3 430 431 422
3 430 429 398
3 430 412 429
3 430 422 412
3 430 421 431
3 430 399 421
3 432 414 413
3 432 421 400
3 432 422 431
3 432 413 422
3 432 431 421
3 433 400 401
3 433 425 414
3 433 432 400
3 433 414 432
3 434 425 433
3 434 401 423
3 434 433 401
3 435 423 402
3 435 425 434
3 435 434 423
3 436 402 403
3 437 416 415
3 437 424 425
3 437 415 424
3 437 428 416
3 437 426 428
3 437 425 435
3 438 426 437
3 438 427 426
3 439 438 436
3 439 403 394
3 439 436 403
3 439 394 427
3 439 427 438
3 440 438 437
3 440 435 402
3 440 437 435
3 441 436 438
3 441 440 402
3 441 438 440
3 441 402 436
3 471 464 465
3 471 465 466
3 471 466 467
3 468 471 467
3 469 471 468
3 470 471 469
3 463 471 470
3 472 471 463
3 452 454 453
3 452 455 454
3 452 456 455
3 452 457 456
3 452 458 457
3 452 459 458
3 452 460 459
3 452 461 460
3 452 462 461
3 450 463 462
3 450 462 452
3 450 472 463
3 451 446 447
3 451 447 448
3 451 448 449
3 451 449 450
3 451 450 452
3 445 446 451
3 444 445 451
3 443 444 451
3 442 443 451
3 494 476 475
3 494 477 476
3 494 478 477
3 495 474 473
3 495 475 474
3 495 494 475
3 496 494 495
3 497 478 494
3 497 494 496
3 498 473 492
3 498 495 473
3 499 479 478
3 499 480 479
3 499 481 480
3 499 482 481
3 499 478 497
3 500 495 498
3 501 495 500
3 501 496 495
3 502 497 496
3 502 499 497
3 502 496 501
3 503 483 482
3 503 499 502
3 503 482 499
3 504 483 503
3 505 492 493
3 506 493 485
3 507 506 508
3 509 506 507
3 510 484 483
3 510 506 509
3 511 485 486
3 511 486 487
3 511 487 488
3 511 506 485
3 511 508 506
3 512 488 489
3 512 511 488
3 512 508 511
3 513 489 490
3 513 490 491
3 513 491 484
3 513 512 489
3 513 484 510
3 513 507 508
3 513 509 507
3 513 510 509
3 513 508 512
3 514 500 498
3 514 498 492
3 514 501 500
3 514 502 501
3 514 503 502
3 515 503 514
3 515 514 492
3 516 503 515
3 516 515 492
3 516 504 503
3 516 492 505
3 516 505 504
3 517 483 504
3 517 504 505
3 518 483 517
3 519 510 483
3 519 506 510
3 520 518 517
3 520 521 518
3 520 505 493
3 520 517 505
3 522 506 519
3 522 521 520
3 522 520 493
3 522 493 506
3 523 518 521
3 523 519 483
3 523 521 522
3 523 483 518
3 523 522 519
3 529 530 531
3 529 531 538
3 528 538 537
3 528 529 538
3 527 537 536
3 527 528 537
3 526 535 534
3 526 536 535
3 526 527 536
3 525 534 533
3 525 526 534
3 524 533 532
3 524 525 533
3 548 550 563
3 548 563 539
3 547 540 539
3 547 541 542
3 547 542 543
3 547 543 540
3 547 539 563
3 562 547 563
3 561 547 562
3 546 547 561
3 545 551 552
3 545 552 553
3 545 553 554
3 545 554 555
3 545 555 556
3 545 556 557
3 545 561 551
3 545 546 561
3 544 549 550
3 544 557 558
3 544 558 559
3 544 559 560
3 544 560 549
3 544 550 548
3 544 545 557
3 567 564 565
3 567 565 566
3 571 569 568
3 571 570 569
3 575 583 574
3 575 589 583
3 576 588 589
3 576 589 575
3 577 587 588
3 577 588 576
3 578 586 587
3 578 587 577
3 579 585 586
3 579 586 578
3 580 585 579
3 581 584 585
3 581 585 580
3 582 572 584
3 582 584 581
3 573 572 582
3 595 598 596
3 597 598 595
3 594 597 595
3 593 597 594
3 599 592 590
3 599 593 592
3 591 604 605
3 591 605 606
3 591 606 607
3 591 607 599
3 591 599 590
3 603 604 591
3 602 603 591
3 601 602 591
3 600 601 591
3 597 593 599
3 608 618 609
3 632 611 612
3 633 611 632
3 634 628 627
3 635 615 616
3 636 610 611
3 636 619 610
3 636 620 619
3 636 621 620
3 637 636 611
3 637 621 636
3 638 622 621
3 638 623 622
3 638 624 623
3 638 625 624
3 638 626 625
3 638 637 611
3 638 621 637
3 638 633 626
3 638 611 633
3 639 626 633
3 639 633 632
3 640 627 626
3 640 632 612
3 640 639 632
3 640 626 639
3 641 627 640
3 642 634 627
3 643 634 642
3 644 614 615
3 644 629 628
3 644 628 645
3 646 629 644
3 646 615 635
3 646 644 615
3 646 635 629
3 647 616 617
3 647 630 629
3 647 635 616
3 647 629 635
3 648 630 647
3 648 647 617
3 649 617 618
3 649 618 650
3 651 630 648
3 651 648 617
3 651 649 650
3 651 631 630
3 651 650 652
3 651 652 631
3 651 617 649
3 653 650 618
3 654 650 653
3 654 653 618
3 654 608 631
3 654 652 650
3 654 631 652
3 654 618 608
3 655 640 612
3 655 641 640
3 656 642 627
3 657 643 642
3 658 643 657
3 658 660 659
3 658 659 643
3 661 634 662
3 663 644 645
3 663 614 644
3 664 612 613
3 664 655 612
3 664 641 655
3 664 656 627
3 664 627 641
3 665 642 656
3 665 657 642
3 665 656 664
3 665 664 613
3 666 658 657
3 666 657 665
3 667 613 660
3 667 660 658
3 667 658 666
3 668 628 634
3 668 634 669
3 670 665 613
3 670 666 665
3 670 613 667
3 670 667 666
3 671 660 613
3 671 659 660
3 671 661 662
3 671 662 634
3 671 613 672
3 671 672 661
3 671 643 659
3 671 634 643
3 673 634 661
3 673 669 634
3 674 675 669
3 674 669 673
3 676 675 674
3 677 645 628
3 678 661 672
3 678 673 661
3 678 672 674
3 678 674 673
3 679 668 669
3 679 669 675
3 680 628 668
3 680 681 628
3 682 681 683
3 684 677 628
3 684 628 681
3 685 672 613
3 685 674 672
3 685 676 674
3 686 680 668
3 686 668 687
3 686 687 688
3 689 680 686
3 689 686 688
3 689 681 680
3 689 683 681
3 689 688 690
3 691 682 683
3 691 690 682
3 691 689 690
3 691 683 689
3 692 684 681
3 693 679 675
3 693 675 676
3 693 676 685
3 694 682 690
3 694 681 682
3 695 696 692
3 695 692 681
3 697 692 696
3 698 699 692
3 698 700 699
3 701 692 699
3 701 684 692
3 701 699 700
3 702 703 681
3 702 681 694
3 704 695 681
3 704 681 703
3 704 703 705
3 706 700 698
3 706 701 700
3 707 701 706
3 708 707 706
3 708 701 707
3 709 701 708
3 709 708 706
3 710 679 693
3 710 694 690
3 710 693 685
3 710 685 613
3 710 690 688
3 711 697 696
3 711 696 695
3 711 695 704
3 712 684 701
3 712 713 684
3 712 701 709
3 712 714 713
3 712 709 706
3 715 684 716
3 717 684 715
3 717 719 718
3 717 718 720
3 717 677 684
3 721 645 677
3 721 717 720
3 721 677 717
3 721 720 614
3 721 614 663
3 721 663 645
3 722 687 668
3 722 668 679
3 722 710 688
3 722 688 687
3 722 679 710
3 723 694 710
3 723 697 705
3 723 702 694
3 723 703 702
3 723 705 703
3 724 697 711
3 724 704 705
3 724 705 697
3 724 711 704
3 725 712 706
3 725 613 614
3 725 710 613
3 725 614 720
3 725 698 692
3 725 692 697
3 725 697 723
3 725 706 698
3 725 723 710
3 726 715 716
3 726 684 713
3 726 716 684
3 726 714 712
3 726 713 714
3 727 719 717
3 727 717 715
3 727 726 712
3 727 712 725
3 727 715 726
3 727 725 720
3 727 718 719
3 727 720 718
3 739 729 728
3 739 728 738
3 740 730 729
3 740 729 739
3 741 731 730
3 741 732 731
3 741 730 740
3 742 733 732
3 742 732 741
3 743 734 733
3 743 733 742
3 744 735 734
3 744 734 743
3 737 736 735
3 737 735 744
3 755 746 745
3 756 747 746
3 756 746 755
3 757 748 747
3 757 747 756
3 758 748 757
3 759 749 748
3 759 748 758
3 760 750 749
3 760 749 759
3 761 750 760
3 762 751 750
3 762 750 761
3 763 752 751
3 763 751 762
3 754 753 752
3 754 752 763
3 766 768 767
3 765 766 764
3 768 766 765
3 769 780 779
3 769 770 780
3 778 775 776
3 778 776 777
3 778 777 769
3 778 769 779
3 774 775 778
3 773 774 778
3 772 773 778
3 771 772 778
3 828 782 781
3 828 783 782
3 828 784 783
3 828 785 784
3 828 786 785
3 828 787 786
3 828 788 787
3 828 789 790
3 828 790 791
3 828 791 792
3 828 792 793
3 828 793 794
3 828 794 795
3 828 795 796
3 828 796 797
3 828 797 798
3 828 798 799
3 828 799 800
3 828 800 801
3 828 801 802
3 828 802 803
3 828 803 804
3 828 804 805
3 828 805 806
3 828 806 807
3 828 807 808
3 828 808 809
3 828 809 810
3 828 810 811
3 828 811 812
3 828 812 813
3 828 813 814
3 828 814 815
3 828 815 816
3 828 816 817
3 828 817 818
3 828 818 819
3 828 819 820
3 828 820 821
3 828 821 822
3 828 822 823
3 828 823 824
3 828 824 825
3 828 825 826
3 828 826 827
3 828 827 788
3 828 781 789
3 831 832 833
3 831 833 840
3 830 840 839
3 830 831 840
3 829 830 839
3 846 839 838
3 846 829 839
3 845 846 838
3 844 838 837
3 844 845 838
3 843 837 836
3 843 844 837
3 842 836 835
3 842 843 836
3 841 835 834
3 841 842 835
3 872 854 868
3 872 873 854
3 874 871 860
3 875 859 858
3 876 877 874
3 878 877 876
3 878 879 877
3 880 859 875
3 880 875 879
3 880 864 865
3 880 865 866
3 880 866 867
3 880 867 859
3 880 879 878
3 881 849 850
3 881 850 882
3 883 849 881
3 884 882 885
3 884 881 882
3 886 881 884
3 886 883 881
3 887 888 872
3 887 889 888
3 890 889 887
3 891 890 887
3 892 890 891
3 893 887 872
3 893 872 868
3 893 891 887
3 894 855 847
3 894 847 895
3 896 855 894
3 897 898 868
3 899 897 868
3 900 868 869
3 900 899 868
3 900 901 899
3 902 904 903
3 905 906 900
3 905 900 869
3 907 902 908
3 907 856 855
3 907 855 902
3 909 905 910
3 911 856 907
3 911 907 912
3 913 856 911
3 914 856 913
3 914 913 915
3 916 857 856
3 916 856 917
3 916 917 918
3 919 920 916
3 919 921 920
3 922 921 923
3 924 869 870
3 924 923 925
3 924 922 923
3 924 925 869
3 926 924 870
3 926 927 924
3 928 926 870
3 929 928 870
3 930 857 916
3 930 916 920
3 931 857 930
3 931 929 932
3 933 929 870
3 933 932 929
3 934 933 870
3 934 932 933
3 934 870 935
3 936 857 931
3 936 931 932
3 937 857 936
3 937 932 934
3 937 936 932
3 938 937 934
3 938 857 937
3 939 934 935
3 939 935 940
3 939 938 934
3 941 938 939
3 941 939 940
3 941 858 857
3 941 857 938
3 941 942 858
3 941 940 942
3 943 870 871
3 943 935 870
3 943 940 935
3 944 940 943
3 944 942 940
3 945 943 871
3 945 944 943
3 945 942 944
3 946 942 945
3 946 945 871
3 947 871 874
3 947 946 871
3 947 948 946
3 949 942 946
3 949 946 948
3 949 858 942
3 950 949 948
3 950 947 874
3 950 858 949
3 950 948 947
3 951 950 874
3 951 858 950
3 952 879 875
3 952 875 858
3 952 877 879
3 952 951 874
3 952 858 951
3 952 874 877
3 953 860 861
3 953 861 862
3 953 862 863
3 953 864 880
3 953 863 864
3 953 876 874
3 953 880 878
3 953 878 876
3 953 874 860
3 954 852 853
3 954 853 854
3 955 851 852
3 955 852 954
3 956 955 954
3 957 956 954
3 958 850 851
3 958 851 955
3 958 955 956
3 958 882 850
3 959 956 957
3 959 958 956
3 960 882 958
3 960 958 959
3 961 954 854
3 961 854 873
3 961 957 954
3 961 959 957
3 961 960 959
3 962 847 848
3 962 848 849
3 962 895 847
3 962 883 886
3 962 886 895
3 962 849 883
3 963 961 873
3 963 873 964
3 965 963 964
3 966 965 964
3 966 967 965
3 966 964 873
3 968 967 966
3 969 895 967
3 969 967 968
3 970 889 890
3 971 890 892
3 971 970 890
3 972 973 970
3 972 970 971
3 974 972 971
3 975 892 976
3 975 971 892
3 975 974 971
3 977 976 892
3 977 892 891
3 977 891 893
3 978 974 975
3 978 975 976
3 979 977 893
3 979 893 980
3 981 978 976
3 981 894 978
3 981 896 894
3 982 976 977
3 982 979 980
3 982 896 981
3 982 977 979
3 982 981 976
3 983 893 868
3 983 980 893
3 983 984 980
3 985 983 868
3 986 980 984
3 987 896 982
3 987 980 986
3 987 982 980
3 988 985 868
3 988 868 898
3 989 896 987
3 989 987 986
3 990 986 984
3 990 989 986
3 991 896 989
3 991 989 990
3 991 990 992
3 991 992 896
3 993 990 984
3 993 992 990
3 994 855 896
3 994 896 992
3 995 996 855
3 995 855 994
3 997 998 898
3 997 898 897
3 999 997 897
3 1000 855 996
3 1001 897 899
3 1001 999 897
3 1002 855 1000
3 1003 999 1001
3 1004 1005 999
3 1004 999 1003
3 1004 1006 1005
3 1004 1003 1006
3 1007 1001 899
3 1007 1003 1001
3 1007 1006 1003
3 1008 1005 1006
3 1009 1006 904
3 1009 1008 1006
3 1009 904 902
3 1009 855 1002
3 1009 1002 1008
3 1009 902 855
3 1010 1007 899
3 1011 1007 1010
3 1011 1006 1007
3 1012 1010 899
3 1012 899 901
3 1013 1012 901
3 1013 903 1012
3 1014 903 1013
3 1014 902 903
3 1015 1013 901
3 1015 902 1014
3 1015 1014 1013
3 1016 1015 901
3 1016 901 1017
3 1018 908 902
3 1018 902 1015
3 1018 1015 1016
3 1019 1021 1020
3 1022 900 906
3 1022 1021 900
3 1022 1020 1021
3 1023 907 908
3 1023 1019 1020
3 1024 1020 1022
3 1025 907 1023
3 1025 1023 1020
3 1025 1020 1024
3 1026 906 905
3 1027 1028 912
3 1029 912 1028
3 1029 1026 905
3 1029 1028 1026
3 1030 912 1029
3 1030 1029 905
3 1030 905 909
3 1031 911 912
3 1031 912 1030
3 1031 1030 909
3 1032 909 910
3 1032 910 1033
3 1034 909 1032
3 1034 911 1031
3 1034 1031 909
3 1035 910 905
3 1035 905 869
3 1035 1033 910
3 1036 1037 1033
3 1036 1033 1035
3 1038 1032 1033
3 1038 1034 1032
3 1038 911 1034
3 1039 1033 1037
3 1040 1038 1033
3 1040 1033 1039
3 1041 1035 869
3 1041 1037 1036
3 1041 1036 1035
3 1042 913 911
3 1042 911 1038
3 1042 1038 1040
3 1043 915 1037
3 1043 1044 915
3 1043 869 1044
3 1043 1041 869
3 1043 1037 1041
3 1045 1037 915
3 1045 915 913
3 1045 1039 1037
3 1045 1040 1039
3 1045 913 1042
3 1045 1042 1040
3 1046 856 914
3 1047 856 1046
3 1048 1049 925
3 1048 1050 1049
3 1051 1053 1052
3 1051 1052 1050
3 1054 1052 1053
3 1055 1050 1048
3 1055 1053 1051
3 1055 1051 1050
3 1056 917 856
3 1056 1054 1053
3 1056 1053 917
3 1056 856 1047
3 1057 1048 925
3 1057 1053 1055
3 1057 1055 1048
3 1058 1053 1057
3 1058 917 1053
3 1059 1058 1057
3 1059 1057 925
3 1060 1059 925
3 1061 1058 1059
3 1061 917 1058
3 1061 1059 1060
3 1061 918 917
3 1062 1060 925
3 1062 1061 1060
3 1062 918 1061
3 1062 925 923
3 1063 918 1062
3 1063 1062 923
3 1063 916 918
3 1064 1063 923
3 1064 916 1063
3 1065 1064 923
3 1065 921 919
3 1065 923 921
3 1066 916 1064
3 1066 1065 919
3 1066 1064 1065
3 1066 919 916
3 1067 922 924
3 1068 921 922
3 1068 922 1067
3 1068 920 921
3 1069 1067 924
3 1069 1068 1067
3 1069 920 1068
3 1070 1069 924
3 1070 920 1069
3 1070 924 927
3 1070 927 920
3 1071 927 926
3 1072 930 920
3 1072 927 1071
3 1072 920 927
3 1073 1072 1071
3 1073 930 1072
3 1074 1073 1071
3 1074 926 928
3 1074 1071 926
3 1075 1073 1074
3 1075 930 1073
3 1075 1074 928
3 1076 1075 928
3 1076 928 929
3 1077 1075 1076
3 1077 1076 929
3 1077 931 930
3 1077 930 1075
3 1077 929 931
3 1078 885 882
3 1078 961 963
3 1078 882 960
3 1078 960 961
3 1079 884 885
3 1079 886 884
3 1079 885 1078
3 1079 1078 963
3 1080 886 1079
3 1080 895 886
3 1080 967 895
3 1080 1079 963
3 1080 965 967
3 1080 963 965
3 1081 872 888
3 1081 968 966
3 1081 888 889
3 1081 873 872
3 1081 966 873
3 1082 973 969
3 1082 968 1081
3 1082 1081 889
3 1082 969 968
3 1082 889 970
3 1082 970 973
3 1083 894 895
3 1083 969 973
3 1083 895 969
3 1084 978 894
3 1084 974 978
3 1084 894 1083
3 1084 1083 973
3 1084 973 972
3 1084 972 974
3 1085 984 983
3 1085 983 985
3 1085 998 993
3 1085 993 984
3 1086 1085 985
3 1086 988 898
3 1086 898 998
3 1086 985 988
3 1086 998 1085
3 1087 992 993
3 1087 993 998
3 1087 996 995
3 1087 994 992
3 1087 995 994
3 1088 1087 998
3 1088 1000 996
3 1088 996 1087
3 1089 998 997
3 1089 1088 998
3 1090 1089 997
3 1091 1090 997
3 1092 1088 1089
3 1092 1090 1091
3 1092 1089 1090
3 1092 1002 1000
3 1092 1000 1088
3 1093 1091 997
3 1093 999 1005
3 1093 1005 1008
3 1093 997 999
3 1094 1092 1091
3 1094 1002 1092
3 1094 1093 1008
3 1094 1091 1093
3 1094 1008 1002
3 1095 904 1006
3 1095 903 904
3 1095 1011 1010
3 1095 1010 1012
3 1095 1012 903
3 1095 1006 1011
3 1096 1097 1017
3 1096 900 1021
3 1096 1021 1019
3 1096 1019 1097
3 1096 901 900
3 1096 1017 901
3 1098 1016 1017
3 1098 1018 1016
3 1098 908 1018
3 1099 1017 1097
3 1099 1098 1017
3 1099 1097 1019
3 1100 1019 1023
3 1100 1023 908
3 1100 908 1098
3 1100 1099 1019
3 1100 1098 1099
3 1101 1022 906
3 1101 1024 1022
3 1101 1102 1024
3 1103 1028 1027
3 1103 1101 906
3 1103 906 1026
3 1103 1102 1101
3 1103 1026 1028
3 1103 1027 1102
3 1104 912 907
3 1104 907 1025
3 1104 1025 1024
3 1104 1024 1102
3 1104 1102 1027
3 1104 1027 912
3 1105 1046 914
3 1105 914 915
3 1105 1047 1046
3 1106 1056 1047
3 1106 1047 1105
3 1106 1105 1107
3 1108 1054 1056
3 1108 1106 1107
3 1108 1056 1106
3 1108 1107 1109
3 1110 1054 1108
3 1110 1108 1109
3 1110 1052 1054
3 1110 1050 1052
3 1111 915 1044
3 1111 1105 915
3 1112 1109 1107
3 1112 1107 1105
3 1113 1114 1049
3 1113 1112 1114
3 1113 1049 1050
3 1113 1050 1110
3 1113 1110 1109
3 1113 1109 1112
3 1115 1044 869
3 1115 1111 1044
3 1116 1115 869
3 1116 1111 1115
3 1117 1116 869
3 1118 1111 1116
3 1118 1116 1117
3 1119 1049 1114
3 1119 925 1049
3 1119 1117 869
3 1119 869 925
3 1120 1118 1117
3 1120 1117 1119
3 1121 1105 1111
3 1121 1111 1118
3 1121 1118 1120
3 1122 1114 1112
3 1122 1119 1114
3 1122 1121 1120
3 1122 1112 1105
3 1122 1120 1119
3 1122 1105 1121
3 1124 1127 1128
3 1124 1128 1129
3 1124 1129 1126
3 1123 1126 1125
3 1123 1124 1126
3 1133 1132 1142
3 1133 1142 1143
3 1144 1133 1143
3 1157 1134 1133
3 1157 1135 1134
3 1158 1157 1133
3 1158 1135 1157
3 1159 1144 1145
3 1159 1158 1133
3 1159 1133 1144
3 1159 1135 1158
3 1160 1145 1146
3 1160 1159 1145
3 1161 1146 1147
3 1161 1160 1146
3 1162 1136 1135
3 1163 1147 1148
3 1163 1148 1149
3 1163 1149 1150
3 1163 1150 1161
3 1163 1161 1147
3 1164 1136 1162
3 1164 1162 1135
3 1165 1164 1135
3 1165 1135 1159
3 1166 1165 1159
3 1166 1159 1160
3 1167 1166 1160
3 1167 1161 1150
3 1167 1160 1161
3 1168 1150 1151
3 1168 1151 1167
3 1168 1167 1150
3 1169 1139 1138
3 1170 1169 1138
3 1171 1153 1172
3 1171 1152 1153
3 1171 1172 1152
3 1173 1155 1174
3 1173 1174 1154
3 1173 1154 1155
3 1175 1137 1136
3 1175 1151 1152
3 1175 1166 1167
3 1175 1164 1165
3 1175 1165 1166
3 1175 1136 1164
3 1175 1167 1151
3 1176 1172 1177
3 1176 1138 1137
3 1176 1137 1175
3 1176 1175 1152
3 1176 1170 1138
3 1176 1178 1170
3 1176 1177 1178
3 1176 1152 1172
3 1179 1172 1153
3 1179 1177 1172
3 1179 1170 1178
3 1179 1178 1177
3 1180 1140 1139
3 1180 1181 1140
3 1182 1183 1181
3 1182 1181 1180
3 1184 1185 1183
3 1184 1183 1182
3 1186 1187 1185
3 1186 1174 1187
3 1186 1154 1174
3 1186 1153 1154
3 1186 1185 1184
3 1186 1179 1153
3 1188 1181 1183
3 1188 1140 1181
3 1189 1140 1188
3 1190 1183 1185
3 1190 1188 1183
3 1190 1189 1188
3 1190 1185 1187
3 1191 1174 1155
3 1191 1187 1174
3 1191 1190 1187
3 1192 1130 1131
3 1192 1155 1156
3 1192 1156 1130
3 1192 1191 1155
3 1193 1170 1179
3 1193 1139 1169
3 1193 1169 1170
3 1194 1139 1193
3 1194 1182 1180
3 1194 1184 1182
3 1194 1186 1184
3 1194 1193 1179
3 1194 1179 1186
3 1194 1180 1139
3 1195 1141 1140
3 1195 1189 1190
3 1195 1140 1189
3 1196 1190 1191
3 1196 1195 1190
3 1197 1192 1131
3 1197 1191 1192
3 1197 1196 1191
3 1198 1195 1196
3 1198 1197 1131
3 1198 1196 1197
3 1199 1131 1141
3 1199 1141 1195
3 1199 1195 1198
3 1199 1198 1131
3 1214 1200 1201
3 1214 1201 1202
3 1214 1213 1200
3 1215 1202 1203
3 1215 1214 1202
3 1216 1203 1204
3 1216 1204 1205
3 1216 1215 1203
3 1217 1205 1206
3 1217 1216 1205
3 1218 1206 1207
3 1218 1207 1208
3 1218 1217 1206
3 1219 1208 1209
3 1219 1218 1208
3 1220 1209 1210
3 1220 1219 1209
3 1212 1210 1211
3 1212 1220 1210
3 1231 1225 1232
3 1233 1232 1225
3 1230 1225 1231
3 1234 1233 1225
3 1229 1225 1230
3 1235 1234 1225
3 1228 1225 1229
3 1236 1235 1225
3 1227 1225 1228
3 1222 1225 1224
3 1222 1236 1225
3 1226 1225 1227
3 1223 1222 1224
3 1221 1222 1223
3 1345 1346 1237
3 1347 1345 1237
3 1348 1347 1237
3 1349 1237 1238
3 1349 1238 1239
3 1349 1239 1240
3 1349 1240 1241
3 1349 1241 1242
3 1349 1242 1243
3 1349 1243 1244
3 1349 1244 1245
3 1349 1245 1246
3 1349 1246 1247
3 1349 1247 1248
3 1349 1248 1249
3 1349 1249 1250
3 1349 1250 1251
3 1349 1251 1252
3 1349 1252 1253
3 1349 1253 1254
3 1349 1254 1255
3 1349 1255 1256
3 1349 1256 1257
3 1349 1257 1258
3 1349 1258 1259
3 1349 1259 1260
3 1349 1260 1261
3 1349 1261 1262
3 1349 1262 1263
3 1349 1263 1264
3 1349 1264 1265
3 1349 1265 1266
3 1349 1348 1237
3 1349 1266 1267
3 1349 1267 1268
3 1349 1268 1269
3 1349 1269 1270
3 1349 1270 1271
3 1349 1271 1272
3 1350 1346 1345
3 1350 1345 1347
3 1350 1348 1349
3 1350 1347 1348
3 1351 1350 1349
3 1352 1351 1349
3 1353 1352 1349
3 1354 1353 1349
3 1355 1354 1349
3 1356 1355 1349
3 1357 1356 1349
3 1358 1357 1349
3 1359 1272 1273
3 1359 1273 1274
3 1359 1274 1275
3 1359 1275 1276
3 1359 1276 1277
3 1359 1277 1278
3 1359 1278 1279
3 1359 1279 1280
3 1359 1280 1281
3 1359 1281 1282
3 1359 1282 1283
3 1359 1283 1284
3 1359 1284 1285
3 1359 1285 1286
3 1359 1286 1287
3 1359 1287 1288
3 1359 1288 1289
3 1359 1289 1290
3 1359 1290 1291
3 1359 1291 1292
3 1359 1292 1293
3 1359 1293 1294
3 1359 1294 1295
3 1359 1295 1296
3 1359 1296 1297
3 1359 1297 1298
3 1359 1298 1299
3 1359 1358 1349
3 1359 1299 1300
3 1359 1300 1301
3 1359 1301 1302
3 1359 1302 1303
3 1359 1303 1304
3 1359 1304 1305
3 1359 1305 1306
3 1359 1306 1307
3 1359 1307 1308
3 1359 1308 1309
3 1359 1309 1310
3 1359 1310 1311
3 1359 1311 1312
3 1359 1312 1313
3 1359 1313 1314
3 1359 1314 1315
3 1359 1315 1316
3 1359 1316 1317
3 1359 1317 1318
3 1359 1318 1319
3 1359 1319 1320
3 1359 1320 1321
3 1359 1321 1322
3 1359 1322 1323
3 1359 1323 1324
3 1359 1324 1325
3 1359 1325 1326
3 1359 1326 1327
3 1359 1327 1328
3 1359 1328 1329
3 1359 1329 1330
3 1359 1330 1331
3 1359 1331 1332
3 1359 1332 1333
3 1359 1349 1272
3 1360 1344 1237
3 1360 1237 1346
3 1361 1359 1333
3 1361 1333 1334
3 1362 1363 1364
3 1362 1365 1366
3 1362 1367 1363
3 1362 1368 1365
3 1362 1369 1370
3 1362 1371 1372
3 1362 1366 1373
3 1362 1374 1375
3 1362 1372 1374
3 1362 1370 1371
3 1362 1373 1367
3 1362 1376 1369
3 1362 1375 1361
3 1362 1364 1376
3 1377 1336 1344
3 1378 1334 1335
3 1379 1377 1380
3 1381 1382 1360
3 1381 1383 1384
3 1381 1350 1351
3 1381 1352 1353
3 1381 1385 1382
3 1381 1358 1359
3 1381 1375 1374
3 1381 1386 1387
3 1381 1346 1350
3 1381 1354 1355
3 1381 1388 1389
3 1381 1387 1390
3 1381 1357 1358
3 1381 1359 1361
3 1381 1384 1391
3 1381 1389 1383
3 1381 1353 1354
3 1381 1360 1346
3 1381 1361 1375
3 1381 1356 1357
3 1381 1351 1352
3 1381 1355 1356
3 1381 1391 1385
3 1381 1390 1388
3 1392 1360 1382
3 1392 1384 1383
3 1392 1382 1385
3 1392 1387 1386
3 1392 1362 1360
3 1392 1389 1388
3 1392 1390 1387
3 1392 1391 1384
3 1392 1383 1389
3 1392 1368 1362
3 1392 1385 1391
3 1392 1388 1390
3 1393 1368 1392
3 1393 1392 1386
3 1394 1368 1393
3 1394 1393 1386
3 1395 1368 1394
3 1395 1394 1386
3 1396 1395 1386
3 1396 1368 1395
3 1397 1368 1396
3 1397 1396 1386
3 1398 1397 1386
3 1398 1368 1397
3 1399 1398 1386
3 1399 1368 1398
3 1400 1399 1386
3 1400 1368 1399
3 1401 1368 1400
3 1401 1400 1386
3 1402 1368 1401
3 1402 1401 1386
3 1403 1368 1402
3 1403 1402 1386
3 1404 1403 1386
3 1404 1368 1403
3 1405 1368 1404
3 1405 1404 1386
3 1406 1405 1386
3 1406 1368 1405
3 1407 1368 1406
3 1407 1406 1386
3 1408 1407 1386
3 1408 1368 1407
3 1409 1368 1408
3 1409 1408 1386
3 1410 1409 1386
3 1410 1368 1409
3 1410 1386 1381
3 1411 1410 1381
3 1411 1368 1410
3 1412 1411 1381
3 1412 1368 1411
3 1413 1412 1381
3 1413 1368 1412
3 1414 1368 1413
3 1414 1413 1381
3 1415 1414 1381
3 1415 1368 1414
3 1416 1368 1415
3 1416 1364 1363
3 1416 1366 1365
3 1416 1363 1367
3 1416 1365 1368
3 1416 1381 1374
3 1416 1370 1369
3 1416 1372 1371
3 1416 1415 1381
3 1416 1373 1366
3 1416 1374 1372
3 1416 1371 1370
3 1416 1367 1373
3 1416 1369 1376
3 1416 1376 1364
3 1417 1360 1362
3 1417 1344 1360
3 1418 1361 1334
3 1418 1362 1361
3 1419 1344 1417
3 1420 1418 1334
3 1421 1344 1419
3 1421 1420 1422
3 1421 1419 1420
3 1423 1422 1420
3 1423 1420 1334
3 1424 1425 1334
3 1426 1334 1378
3 1426 1424 1334
3 1427 1428 1429
3 1427 1380 1377
3 1427 1378 1430
3 1427 1429 1380
3 1427 1430 1428
3 1427 1377 1426
3 1427 1426 1378
3 1431 1429 1428
3 1431 1379 1380
3 1431 1430 1378
3 1431 1380 1429
3 1431 1428 1430
3 1431 1432 1379
3 1431 1378 1433
3 1431 1433 1432
3 1434 1379 1432
3 1434 1432 1433
3 1435 1377 1379
3 1435 1336 1377
3 1435 1379 1434
3 1436 1378 1335
3 1436 1433 1378
3 1437 1336 1435
3 1438 1417 1362
3 1438 1362 1418
3 1439 1419 1417
3 1439 1418 1420
3 1439 1420 1419
3 1439 1417 1438
3 1439 1438 1418
3 1440 1344 1421
3 1441 1344 1440
3 1442 1344 1441
3 1443 1442 1444
3 1443 1444 1425
3 1443 1377 1344
3 1443 1344 1442
3 1443 1425 1424
3 1443 1426 1377
3 1443 1424 1426
3 1445 1434 1433
3 1445 1433 1436
3 1446 1434 1445
3 1446 1435 1434
3 1446 1447 1435
3 1446 1448 1447
3 1449 1446 1445
3 1449 1448 1446
3 1449 1445 1436
3 1450 1448 1449
3 1450 1449 1436
3 1450 1435 1447
3 1450 1447 1448
3 1450 1437 1435
3 1451 1437 1450
3 1451 1450 1436
3 1452 1451 1436
3 1452 1436 1335
3 1453 1454 1452
3 1455 1453 1452
3 1456 1340 1339
3 1456 1341 1340
3 1456 1342 1341
3 1456 1343 1342
3 1456 1335 1343
3 1456 1455 1452
3 1456 1457 1455
3 1456 1452 1335
3 1458 1440 1421
3 1458 1421 1422
3 1459 1458 1422
3 1459 1422 1423
3 1459 1423 1334
3 1460 1458 1459
3 1461 1458 1460
3 1461 1440 1458
3 1462 1460 1459
3 1462 1459 1334
3 1462 1461 1460
3 1463 1440 1461
3 1463 1441 1440
3 1464 1461 1462
3 1464 1463 1461
3 1464 1462 1334
3 1465 1442 1441
3 1465 1444 1442
3 1465 1425 1444
3 1465 1441 1463
3 1465 1334 1425
3 1465 1463 1464
3 1465 1464 1334
3 1466 1437 1451
3 1466 1454 1437
3 1466 1452 1454
3 1466 1451 1452
3 1467 1437 1454
3 1467 1336 1437
3 1468 1454 1453
3 1468 1453 1455
3 1468 1455 1457
3 1468 1467 1454
3 1469 1467 1468
3 1470 1336 1467
3 1470 1467 1469
3 1470 1337 1336
3 1470 1338 1337
3 1471 1339 1338
3 1471 1456 1339
3 1471 1468 1457
3 1471 1457 1456
3 1471 1469 1468
3 1471 1470 1469
3 1471 1338 1470
3 1476 1474 1473
3 1475 1478 1477
3 1475 1479 1478
3 1475 1472 1479
3 1475 1476 1472
3 1472 1476 1473
