ply
format ascii 1.0
comment generated by blendit.inference.finetune_visualize
element vertex 1086
property float x
property float y
property float z
property uchar red
property uchar green
property uchar blue
element face 1351
property list uchar int vertex_indices
end_header
-1.11022302e-16 0.604798283 70.745775 218 222 230
-1.11022302e-16 51.4783184 70.745775 218 222 230
-1.11022302e-16 0.604798283 0.604798283 218 222 230
-1.11022302e-16 51.4783184 0.604798283 218 222 230
-1.11022302e-16 51.4783184 36.1415531 218 222 230
-1.11022302e-16 29.6328456 36.1415531 218 222 230
0 29.6328456 36.7463513 218 222 230
0 29.6328456 53.6394391 218 222 230
-1.11022302e-16 51.4783184 53.6394391 218 222 230
0 18.7372197 52.8937977 218 222 230
0 18.1420198 53.6973753 218 222 230
0 18.0194446 53.9131132 218 222 230
0 17.9520607 54.1519163 218 222 230
0 17.9437842 54.3999063 218 222 230
0 17.995096 54.6426709 218 222 230
0 18.1030142 54.8661014 218 222 230
0 18.2612669 55.0572129 218 222 230
0 18.4606571 55.2048987 218 222 230
0 18.6895968 55.3005758 218 222 230
0 18.9347811 55.3386839 218 222 230
0 19.1819605 55.3170082 218 222 230
0 19.4167701 55.2368084 218 222 230
0 19.6255634 55.1027455 218 222 230
0 19.7962063 54.9226107 218 222 230
0 20.3914062 54.119033 218 222 230
0 20.5139814 53.9032951 218 222 230
0 20.5813653 53.664492 218 222 230
0 20.5896418 53.416502 218 222 230
0 20.53833 53.1737375 218 222 230
0 20.4304118 52.9503069 218 222 230
0 20.2721591 52.7591954 218 222 230
0 20.0727689 52.6115096 218 222 230
0 19.8438291 52.5158325 218 222 230
0 19.5986449 52.4777244 218 222 230
0 19.3514655 52.4994001 218 222 230
0 19.1166559 52.5795999 218 222 230
0 18.9078626 52.7136628 218 222 230
0 4.50042457 62.0510875 218 222 230
0 4.1140002 57.97525 218 222 230
0 7.81199431 58.8196853 218 222 230
0 22.5095373 37.0683942 218 222 230
0 20.926106 38.1253336 218 222 230
0 20.82259 38.2126618 218 222 230
0 20.7411017 38.320835 218 222 230
0 20.6857272 38.4444289 218 222 230
0 20.6592434 38.577246 218 222 230
0 20.6629782 38.7126264 218 222 230
0 20.6967442 38.8437814 218 222 230
0 20.7588485 38.9641344 218 222 230
0 21.1976643 39.621537 218 222 230
0 21.2849925 39.7250531 218 222 230
0 21.3931657 39.8065414 218 222 230
0 21.5167597 39.8619158 218 222 230
0 21.6495768 39.8883996 218 222 230
0 21.7849571 39.8846649 218 222 230
0 21.9161122 39.8508988 218 222 230
0 22.0364652 39.7887946 218 222 230
0 23.6198965 38.7318551 218 222 230
0 10.2131496 35.7456129 218 222 230
0 8.64261182 35.9002974 218 222 230
0 7.13242889 36.3584064 218 222 230
0 5.74063633 37.102335 218 222 230
0 4.52071995 38.1034945 218 222 230
0 3.51956045 39.3234109 218 222 230
0 2.77563183 40.7152034 218 222 230
0 2.31752284 42.2253864 218 222 230
0 2.16283837 43.7959242 218 222 230
0 2.31752284 45.366462 218 222 230
0 2.77563183 46.8766449 218 222 230
0 3.51956045 48.2684375 218 222 230
0 4.52071995 49.4883539 218 222 230
0 5.74063633 50.4895134 218 222 230
0 7.13242889 51.233442 218 222 230
0 8.64261182 51.691551 218 222 230
0 10.2131496 51.8462355 218 222 230
0 11.7836875 51.691551 218 222 230
0 13.2938704 51.233442 218 222 230
0 14.6856629 50.4895134 218 222 230
0 15.9055793 49.4883539 218 222 230
0 16.9067388 48.2684375 218 222 230
0 17.6506674 46.8766449 218 222 230
0 18.1087764 45.366462 218 222 230
0 18.2634609 43.7959242 218 222 230
0 18.1087764 42.2253864 218 222 230
0 17.6506674 40.7152034 218 222 230
0 16.9067388 39.3234109 218 222 230
0 15.9055793 38.1034945 218 222 230
0 14.6856629 37.102335 218 222 230
0 13.2938704 36.3584064 218 222 230
0 11.7836875 35.9002974 218 222 230
-1.11022302e-16 0.604798283 70.745775 218 222 230
-1.11022302e-16 51.4783184 70.745775 218 222 230
0.0151635557 0.470218005 70.745775 218 222 230
0.0598938587 0.342386143 70.745775 218 222 230
0.131947945 0.227712722 70.745775 218 222 230
0.227712722 0.131947945 70.745775 218 222 230
0.342386143 0.0598938587 70.745775 218 222 230
0.470218005 0.0151635557 70.745775 218 222 230
0.604798283 -1.11022302e-16 70.745775 218 222 230
37.0566298 -1.11022302e-16 70.745775 218 222 230
37.1912101 0.0151635557 70.745775 218 222 230
37.319042 0.0598938587 70.745775 218 222 230
37.4337154 0.131947945 70.745775 218 222 230
37.5294802 0.227712722 70.745775 218 222 230
37.6015343 0.342386143 70.745775 218 222 230
37.6462646 0.470218005 70.745775 218 222 230
37.6614281 0.604798283 70.745775 218 222 230
37.6614281 52.0831167 70.745775 218 222 230
0.604798283 52.0831167 70.745775 218 222 230
0.0151635557 51.6128987 70.745775 218 222 230
0.0598938587 51.7407305 70.745775 218 222 230
0.131947945 51.8554039 70.745775 218 222 230
0.227712722 51.9511687 70.745775 218 222 230
0.342386143 52.0232228 70.745775 218 222 230
0.470218005 52.0679531 70.745775 218 222 230
-1.11022302e-16 0.604798283 0.604798283 255 79 163
0.0206080018 0.448264969 0.448264969 255 79 163
0.0810276058 0.302399142 0.302399142 255 79 163
0.177141316 0.177141316 0.177141316 255 79 163
0.288792048 0.0891229757 0.0891229757 255 79 163
0.392350926 0.0385412007 0.0385412007 255 79 163
0.492263696 0.0105618571 0.0105618571 255 79 163
0.548283714 0.00264625354 0.00264625354 255 79 163
0.604798283 -1.11022302e-16 0 255 79 163
0.604798283 -1.11022302e-16 70.745775 255 79 163
-1.11022302e-16 0.604798283 70.745775 255 79 163
0.0151635557 0.470218005 70.745775 255 79 163
0.0598938587 0.342386143 70.745775 255 79 163
0.131947945 0.227712722 70.745775 255 79 163
0.227712722 0.131947945 70.745775 255 79 163
0.342386143 0.0598938587 70.745775 255 79 163
0.470218005 0.0151635557 70.745775 255 79 163
-1.11022302e-16 51.4783184 53.6394391 255 79 163
-1.11022302e-16 51.4783184 70.745775 255 79 163
0.0151635557 51.6128987 70.745775 255 79 163
0.0598938587 51.7407305 70.745775 255 79 163
0.131947945 51.8554039 70.745775 255 79 163
0.227712722 51.9511687 70.745775 255 79 163
0.342386143 52.0232228 70.745775 255 79 163
0.470218005 52.0679531 70.745775 255 79 163
0.604798283 52.0831167 70.745775 255 79 163
0.604798283 52.0831167 54.2442373 255 79 163
0.00889999666 51.5816924 53.6483391 255 79 163
0.0353380483 51.6820241 53.6747771 255 79 163
0.0785360489 51.7763604 53.7179751 255 79 163
0.137222626 51.8619249 53.7766617 255 79 163
0.209670557 51.9361994 53.8491096 255 79 163
0.293747607 51.9969979 53.9331867 255 79 163
0.419622849 52.054071 54.0590619 255 79 163
0.511078495 52.0758111 54.1505176 255 79 163
-1.11022302e-16 0.604798283 0.604798283 255 79 163
-1.11022302e-16 51.4783184 0.604798283 255 79 163
0.0151635557 51.4783184 0.470218005 255 79 163
0.0598938587 51.4783184 0.342386143 255 79 163
0.131947945 51.4783184 0.227712722 255 79 163
0.227712722 51.4783184 0.131947945 255 79 163
0.342386143 51.4783184 0.0598938587 255 79 163
0.470218005 51.4783184 0.0151635557 255 79 163
0.604798283 51.4783184 -1.11022302e-16 255 79 163
0.604798283 -1.11022302e-16 0 255 79 163
0.0206080018 0.448264969 0.448264969 255 79 163
0.0810276058 0.302399142 0.302399142 255 79 163
0.177141316 0.177141316 0.177141316 255 79 163
0.288792048 0.0891229757 0.0891229757 255 79 163
0.392350926 0.0385412007 0.0385412007 255 79 163
0.492263696 0.0105618571 0.0105618571 255 79 163
0.548283714 0.00264625354 0.00264625354 255 79 163
0 29.6328456 53.6394391 218 222 230
16.6815174 29.6328456 53.6394391 218 222 230
16.6815174 51.4783184 53.6394391 218 222 230
-1.11022302e-16 51.4783184 53.6394391 218 222 230
-1.11022302e-16 51.4783184 0.604798283 255 79 163
-1.11022302e-16 51.4783184 36.1415531 255 79 163
0.0206080018 51.6348517 36.2980864 255 79 163
0.0810276058 51.7807175 36.4439522 255 79 163
0.177141316 51.9059753 36.56921 255 79 163
0.288792048 51.9939937 36.6572284 255 79 163
0.392350926 52.0445755 36.7078101 255 79 163
0.492263696 52.0725548 36.7357895 255 79 163
0.548283714 52.0804704 36.7437051 255 79 163
0.604798283 52.0831167 36.7463513 255 79 163
0.604798283 52.0831167 0.604798283 255 79 163
0.470218005 52.0679531 0.604798283 255 79 163
0.342386143 52.0232228 0.604798283 255 79 163
0.227712722 51.9511687 0.604798283 255 79 163
0.131947945 51.8554039 0.604798283 255 79 163
0.0598938587 51.7407305 0.604798283 255 79 163
0.0151635557 51.6128987 0.604798283 255 79 163
0.604798283 29.6328456 36.7463513 218 222 230
17.2863157 29.6328456 36.7463513 218 222 230
17.2863157 29.6328456 53.0346408 218 222 230
16.6815174 29.6328456 53.6394391 218 222 230
16.8160977 29.6328456 53.6242755 218 222 230
16.9439296 29.6328456 53.5795452 218 222 230
17.058603 29.6328456 53.5074911 218 222 230
17.1543678 29.6328456 53.4117263 218 222 230
17.2264219 29.6328456 53.2970529 218 222 230
17.2711522 29.6328456 53.1692211 218 222 230
0 29.6328456 53.6394391 218 222 230
0 29.6328456 36.7463513 218 222 230
-1.11022302e-16 29.6328456 36.1415531 218 222 230
0.0151635557 29.6328456 36.2761333 218 222 230
0.0598938587 29.6328456 36.4039652 218 222 230
0.131947945 29.6328456 36.5186386 218 222 230
0.227712722 29.6328456 36.6144034 218 222 230
0.342386143 29.6328456 36.6864575 218 222 230
0.470218005 29.6328456 36.7311878 218 222 230
-1.11022302e-16 51.4783184 36.1415531 255 79 163
-1.11022302e-16 29.6328456 36.1415531 255 79 163
0.0151635557 29.6328456 36.2761333 255 79 163
0.0598938587 29.6328456 36.4039652 255 79 163
0.131947945 29.6328456 36.5186386 255 79 163
0.227712722 29.6328456 36.6144034 255 79 163
0.342386143 29.6328456 36.6864575 255 79 163
0.470218005 29.6328456 36.7311878 255 79 163
0.604798283 29.6328456 36.7463513 255 79 163
0.604798283 52.0831167 36.7463513 255 79 163
0.0206080018 51.6348517 36.2980864 255 79 163
0.0810276058 51.7807175 36.4439522 255 79 163
0.177141316 51.9059753 36.56921 255 79 163
0.288792048 51.9939937 36.6572284 255 79 163
0.392350926 52.0445755 36.7078101 255 79 163
0.492263696 52.0725548 36.7357895 255 79 163
0.548283714 52.0804704 36.7437051 255 79 163
0 18.7372197 52.8937977 218 222 230
2.03962881 18.7372197 52.8937977 218 222 230
2.03962881 18.1420198 53.6973753 218 222 230
0 18.1420198 53.6973753 218 222 230
0 20.3914062 54.119033 218 222 230
2.03962881 20.3914062 54.119033 218 222 230
2.03962881 20.5139814 53.9032951 218 222 230
2.03962881 20.5813653 53.664492 218 222 230
2.03962881 20.5896418 53.416502 218 222 230
2.03962881 20.53833 53.1737375 218 222 230
2.03962881 20.4304118 52.9503069 218 222 230
2.03962881 20.2721591 52.7591954 218 222 230
2.03962881 20.0727689 52.6115096 218 222 230
2.03962881 19.8438291 52.5158325 218 222 230
2.03962881 19.5986449 52.4777244 218 222 230
2.03962881 19.3514655 52.4994001 218 222 230
2.03962881 19.1166559 52.5795999 218 222 230
2.03962881 18.9078626 52.7136628 218 222 230
2.03962881 18.7372197 52.8937977 218 222 230
0 18.7372197 52.8937977 218 222 230
0 20.5139814 53.9032951 218 222 230
0 20.5813653 53.664492 218 222 230
0 20.5896418 53.416502 218 222 230
0 20.53833 53.1737375 218 222 230
0 20.4304118 52.9503069 218 222 230
0 20.2721591 52.7591954 218 222 230
0 20.0727689 52.6115096 218 222 230
0 19.8438291 52.5158325 218 222 230
0 19.5986449 52.4777244 218 222 230
0 19.3514655 52.4994001 218 222 230
0 19.1166559 52.5795999 218 222 230
0 18.9078626 52.7136628 218 222 230
0 19.7962063 54.9226107 218 222 230
2.03962881 19.7962063 54.9226107 218 222 230
2.03962881 20.3914062 54.119033 218 222 230
0 20.3914062 54.119033 218 222 230
0 18.1420198 53.6973753 218 222 230
2.03962881 18.1420198 53.6973753 218 222 230
2.03962881 18.0194446 53.9131132 218 222 230
2.03962881 17.9520607 54.1519163 218 222 230
2.03962881 17.9437842 54.3999063 218 222 230
2.03962881 17.995096 54.6426709 218 222 230
2.03962881 18.1030142 54.8661014 218 222 230
2.03962881 18.2612669 55.0572129 218 222 230
2.03962881 18.4606571 55.2048987 218 222 230
2.03962881 18.6895968 55.3005758 218 222 230
2.03962881 18.9347811 55.3386839 218 222 230
2.03962881 19.1819605 55.3170082 218 222 230
2.03962881 19.4167701 55.2368084 218 222 230
2.03962881 19.6255634 55.1027455 218 222 230
2.03962881 19.7962063 54.9226107 218 222 230
0 19.7962063 54.9226107 218 222 230
0 18.0194446 53.9131132 218 222 230
0 17.9520607 54.1519163 218 222 230
0 17.9437842 54.3999063 218 222 230
0 17.995096 54.6426709 218 222 230
0 18.1030142 54.8661014 218 222 230
0 18.2612669 55.0572129 218 222 230
0 18.4606571 55.2048987 218 222 230
0 18.6895968 55.3005758 218 222 230
0 18.9347811 55.3386839 218 222 230
0 19.1819605 55.3170082 218 222 230
0 19.4167701 55.2368084 218 222 230
0 19.6255634 55.1027455 218 222 230
37.6614281 4.50042457 62.0510875 218 222 230
37.6614281 4.1140002 57.97525 218 222 230
0 4.50042457 62.0510875 218 222 230
0 4.1140002 57.97525 218 222 230
37.6614281 7.81199431 58.8196853 218 222 230
37.6614281 4.50042457 62.0510875 218 222 230
0 7.81199431 58.8196853 218 222 230
0 4.50042457 62.0510875 218 222 230
37.6614281 4.1140002 57.97525 218 222 230
37.6614281 7.81199431 58.8196853 218 222 230
0 4.1140002 57.97525 218 222 230
0 7.81199431 58.8196853 218 222 230
0 22.5095373 37.0683942 218 222 230
0 20.926106 38.1253336 218 222 230
37.6614281 22.5095373 37.0683942 218 222 230
37.6614281 20.926106 38.1253336 218 222 230
0 20.926106 38.1253336 255 79 163
37.6614281 20.926106 38.1253336 255 79 163
37.6614281 20.82259 38.2126618 255 79 163
37.6614281 20.7411017 38.320835 255 79 163
37.6614281 20.6857272 38.4444289 255 79 163
37.6614281 20.6592434 38.577246 255 79 163
37.6614281 20.6629782 38.7126264 255 79 163
37.6614281 20.6967442 38.8437814 255 79 163
37.6614281 20.7588485 38.9641344 255 79 163
0 20.7588485 38.9641344 255 79 163
0 20.82259 38.2126618 255 79 163
0 20.7411017 38.320835 255 79 163
0 20.6857272 38.4444289 255 79 163
0 20.6592434 38.577246 255 79 163
0 20.6629782 38.7126264 255 79 163
0 20.6967442 38.8437814 255 79 163
0 23.6198965 38.7318551 218 222 230
0 22.5095373 37.0683942 218 222 230
37.6614281 23.6198965 38.7318551 218 222 230
37.6614281 22.5095373 37.0683942 218 222 230
0 20.7588485 38.9641344 218 222 230
0 21.1976643 39.621537 218 222 230
37.6614281 20.7588485 38.9641344 218 222 230
37.6614281 21.1976643 39.621537 218 222 230
0 22.0364652 39.7887946 218 222 230
0 23.6198965 38.7318551 218 222 230
37.6614281 22.0364652 39.7887946 218 222 230
37.6614281 23.6198965 38.7318551 218 222 230
0 21.1976643 39.621537 255 79 163
37.6614281 21.1976643 39.621537 255 79 163
37.6614281 21.2849925 39.7250531 255 79 163
37.6614281 21.3931657 39.8065414 255 79 163
37.6614281 21.5167597 39.8619158 255 79 163
37.6614281 21.6495768 39.8883996 255 79 163
37.6614281 21.7849571 39.8846649 255 79 163
37.6614281 21.9161122 39.8508988 255 79 163
37.6614281 22.0364652 39.7887946 255 79 163
0 22.0364652 39.7887946 255 79 163
0 21.2849925 39.7250531 255 79 163
0 21.3931657 39.8065414 255 79 163
0 21.5167597 39.8619158 255 79 163
0 21.6495768 39.8883996 255 79 163
0 21.7849571 39.8846649 255 79 163
0 21.9161122 39.8508988 255 79 163
0 10.2131496 35.7456129 255 79 163
0.0151635557 10.2131496 35.8801932 255 79 163
0.0598938587 10.2131496 36.0080251 255 79 163
0.131947945 10.2131496 36.1226985 255 79 163
0.227712722 10.2131496 36.2184633 255 79 163
0.342386143 10.2131496 36.2905173 255 79 163
0.470218005 10.2131496 36.3352477 255 79 163
0.604798283 10.2131496 36.3504112 255 79 163
0 8.64261182 35.9002974 255 79 163
0 7.13242889 36.3584064 255 79 163
0 5.74063633 37.102335 255 79 163
0 4.52071995 38.1034945 255 79 163
0 3.51956045 39.3234109 255 79 163
0 2.77563183 40.7152034 255 79 163
0 2.31752284 42.2253864 255 79 163
0 2.16283837 43.7959242 255 79 163
0 2.31752284 45.366462 255 79 163
0 2.77563183 46.8766449 255 79 163
0 3.51956045 48.2684375 255 79 163
0 4.52071995 49.4883539 255 79 163
0 5.74063633 50.4895134 255 79 163
0 7.13242889 51.233442 255 79 163
0 8.64261182 51.691551 255 79 163
0 10.2131496 51.8462355 255 79 163
0 11.7836875 51.691551 255 79 163
0 13.2938704 51.233442 255 79 163
0 14.6856629 50.4895134 255 79 163
0 15.9055793 49.4883539 255 79 163
0 16.9067388 48.2684375 255 79 163
0 17.6506674 46.8766449 255 79 163
0 18.1087764 45.366462 255 79 163
0 18.2634609 43.7959242 255 79 163
0 18.1087764 42.2253864 255 79 163
0 17.6506674 40.7152034 255 79 163
0 16.9067388 39.3234109 255 79 163
0 15.9055793 38.1034945 255 79 163
0 14.6856629 37.102335 255 79 163
0 13.2938704 36.3584064 255 79 163
0 11.7836875 35.9002974 255 79 163
0 10.2131496 35.7456129 255 79 163
0.0151635557 10.2131496 35.8801932 255 79 163
0.0598938587 10.2131496 36.0080251 255 79 163
0.131947945 10.2131496 36.1226985 255 79 163
0.227712722 10.2131496 36.2184633 255 79 163
0.342386143 10.2131496 36.2905173 255 79 163
0.470218005 10.2131496 36.3352477 255 79 163
0.604798283 10.2131496 36.3504112 255 79 163
0.604798283 8.71437889 36.5028213 255 79 163
0.604798283 7.276968 36.9538119 255 79 163
0.604798283 5.95976472 37.6849193 255 79 163
0.604798283 4.81669553 38.666212 255 79 163
0.604798283 3.8945578 39.8575158 255 79 163
0.604798283 3.23110396 41.2100584 255 79 163
0.604798283 2.85349589 42.6684667 255 79 163
0.604798283 2.77719292 44.1730332 255 79 163
0.604798283 3.00531888 45.6621609 255 79 163
0.604798283 3.52853428 47.0748846 255 79 163
0.604798283 4.32541862 48.3533672 255 79 163
0.604798283 5.36334736 49.4452676 255 79 163
0.604798283 6.59982757 50.3058833 255 79 163
0.604798283 7.98423762 50.8999804 255 79 163
0.604798283 9.45989958 51.2032367 255 79 163
0.604798283 10.9663997 51.2032367 255 79 163
0.604798283 12.4420617 50.8999804 255 79 163
0.604798283 13.8264717 50.3058833 255 79 163
0.604798283 15.0629519 49.4452676 255 79 163
0.604798283 16.1008807 48.3533672 255 79 163
0.604798283 16.897765 47.0748846 255 79 163
0.604798283 17.4209804 45.6621609 255 79 163
0.604798283 17.6491064 44.1730332 255 79 163
0.604798283 17.5728034 42.6684667 255 79 163
0.604798283 17.1951953 41.2100584 255 79 163
0.604798283 16.5317415 39.8575158 255 79 163
0.604798283 15.6096037 38.666212 255 79 163
0.604798283 14.4665345 37.6849193 255 79 163
0.604798283 13.1493313 36.9538119 255 79 163
0.604798283 11.7119204 36.5028213 255 79 163
0.0151635557 8.66886713 36.0322918 255 79 163
0.0598938587 8.69380589 36.1576674 255 79 163
0.131947945 8.71617756 36.2701374 255 79 163
0.227712722 8.73486034 36.364062 255 79 163
0.342386143 8.7489174 36.4347316 255 79 163
0.470218005 8.75764385 36.4786025 255 79 163
0.0151635557 7.18393053 36.4827423 255 79 163
0.0598938587 7.23284967 36.6008436 255 79 163
0.131947945 7.27673329 36.706788 255 79 163
0.227712722 7.31338088 36.7952631 255 79 163
0.342386143 7.34095478 36.8618324 255 79 163
0.470218005 7.35807233 36.9031578 255 79 163
0.0151635557 5.81540513 37.2142344 255 79 163
0.0598938587 5.8864247 37.3205227 255 79 163
0.131947945 5.95013384 37.4158702 255 79 163
0.227712722 6.0033379 37.4954957 255 79 163
0.342386143 6.04336901 37.5554065 255 79 163
0.470218005 6.06821983 37.5925984 255 79 163
0.0151635557 4.61588258 38.1986571 255 79 163
0.0598938587 4.70627335 38.2890479 255 79 163
0.131947945 4.78735971 38.3701343 255 79 163
0.227712722 4.85507563 38.4378502 255 79 163
0.342386143 4.90602556 38.4888001 255 79 163
0.470218005 4.93765466 38.5204292 255 79 163
0.0151635557 3.63145986 39.3981797 255 79 163
0.0598938587 3.73774817 39.4691993 255 79 163
0.131947945 3.83309563 39.5329084 255 79 163
0.227712722 3.91272114 39.5861125 255 79 163
0.342386143 3.97263192 39.6261436 255 79 163
0.470218005 4.00982381 39.6509944 255 79 163
0.0151635557 2.89996779 40.7667051 255 79 163
0.0598938587 3.01806903 40.8156242 255 79 163
0.131947945 3.12401346 40.8595078 255 79 163
0.227712722 3.21248858 40.8961554 255 79 163
0.342386143 3.27905787 40.9237293 255 79 163
0.470218005 3.32038328 40.9408469 255 79 163
0.0151635557 2.4495172 42.2516417 255 79 163
0.0598938587 2.57489281 42.2765804 255 79 163
0.131947945 2.68736281 42.2989521 255 79 163
0.227712722 2.78128749 42.3176349 255 79 163
0.342386143 2.85195708 42.331692 255 79 163
0.470218005 2.8958279 42.3404184 255 79 163
0.0151635557 2.29741865 43.7959242 255 79 163
0.0598938587 2.42525051 43.7959242 255 79 163
0.131947945 2.53992393 43.7959242 255 79 163
0.227712722 2.63568871 43.7959242 255 79 163
0.342386143 2.70774279 43.7959242 255 79 163
0.470218005 2.7524731 43.7959242 255 79 163
0.0151635557 2.4495172 45.3402067 255 79 163
0.0598938587 2.57489281 45.3152679 255 79 163
0.131947945 2.68736281 45.2928963 255 79 163
0.227712722 2.78128749 45.2742135 255 79 163
0.0151635557 2.55011159 45.7800222 255 79 163
0.342386143 2.85195708 45.2601564 255 79 163
0.0598938587 2.67386269 45.7479808 255 79 163
0.470218005 2.8958279 45.25143 255 79 163
0.131947945 2.7848754 45.7192376 255 79 163
0.227712722 2.87758309 45.695234 255 79 163
0.342386143 2.947337 45.6771734 255 79 163
0.470218005 2.99063939 45.6659617 255 79 163
0.0151635557 2.89996779 46.8251433 255 79 163
0.0598938587 3.01806903 46.7762242 255 79 163
0.131947945 3.12401346 46.7323405 255 79 163
0.227712722 3.21248858 46.6956929 255 79 163
0.0151635557 3.10637042 47.2819658 255 79 163
0.342386143 3.27905787 46.668119 255 79 163
0.0598938587 3.22113845 47.2256694 255 79 163
0.470218005 3.32038328 46.6510015 255 79 163
0.131947945 3.32409276 47.1751679 255 79 163
0.227712722 3.41007082 47.1329937 255 79 163
0.342386143 3.4747613 47.1012615 255 79 163
0.470218005 3.51492037 47.0815625 255 79 163
0.0151635557 3.63145986 48.1936687 255 79 163
0.0598938587 3.73774817 48.1226491 255 79 163
0.131947945 3.83309563 48.05894 255 79 163
0.227712722 3.91272114 48.0057359 255 79 163
0.0151635557 3.95358163 48.6411905 255 79 163
0.342386143 3.97263192 47.9657048 255 79 163
0.0598938587 4.05466797 48.5629438 255 79 163
0.470218005 4.00982381 47.940854 255 79 163
0.131947945 4.14534892 48.4927515 255 79 163
0.227712722 4.22107739 48.4341334 255 79 163
0.342386143 4.27805601 48.3900286 255 79 163
0.470218005 4.31342765 48.3626489 255 79 163
0.0151635557 4.61588258 49.3931912 255 79 163
0.0598938587 4.70627335 49.3028005 255 79 163
0.131947945 4.78735971 49.2217141 255 79 163
0.227712722 4.85507563 49.1539982 255 79 163
0.342386143 4.90602556 49.1030483 255 79 163
0.0151635557 5.05706029 49.8020494 255 79 163
0.470218005 4.93765466 49.0714192 255 79 163
0.0598938587 5.14032645 49.7050559 255 79 163
0.131947945 5.21502156 49.6180465 255 79 163
0.227712722 5.2774001 49.5453842 255 79 163
0.342386143 5.32433415 49.4907126 255 79 163
0.470218005 5.35347024 49.4567731 255 79 163
0.0151635557 5.81540513 50.377614 255 79 163
0.0598938587 5.8864247 50.2713257 255 79 163
0.131947945 5.95013384 50.1759782 255 79 163
0.227712722 6.0033379 50.0963527 255 79 163
0.342386143 6.04336901 50.0364419 255 79 163
0.0151635557 6.37162985 50.7170168 255 79 163
0.470218005 6.06821983 49.99925 255 79 163
0.0598938587 6.43366691 50.6052474 255 79 163
0.131947945 6.48931814 50.5049831 255 79 163
0.227712722 6.53579298 50.4212515 255 79 163
0.342386143 6.57076097 50.3582513 255 79 163
0.470218005 6.59246867 50.3191415 255 79 163
0.0151635557 7.18393053 51.109106 255 79 163
0.0598938587 7.23284967 50.9910048 255 79 163
0.131947945 7.27673329 50.8850604 255 79 163
0.227712722 7.31338088 50.7965852 255 79 163
0.342386143 7.34095478 50.730016 255 79 163
0.470218005 7.35807233 50.6886905 255 79 163
0.0151635557 7.84347169 51.3486339 255 79 163
0.0598938587 7.88173983 51.2266645 255 79 163
0.131947945 7.91606883 51.1172501 255 79 163
0.227712722 7.94473727 51.0258771 255 79 163
0.342386143 7.9663076 50.9571275 255 79 163
0.470218005 7.97969821 50.9144486 255 79 163
0.0151635557 8.66886713 51.5595566 255 79 163
0.0598938587 8.69380589 51.434181 255 79 163
0.131947945 8.71617756 51.321711 255 79 163
0.227712722 8.73486034 51.2277863 255 79 163
0.342386143 8.7489174 51.1571167 255 79 163
0.470218005 8.75764385 51.1132459 255 79 163
0.0151635557 9.41232841 51.6710421 255 79 163
0.0598938587 9.42526095 51.5438661 255 79 163
0.131947945 9.43686227 51.4297811 255 79 163
0.227712722 9.44655063 51.3345076 255 79 163
0.342386143 9.45384022 51.2628232 255 79 163
0.470218005 9.45836551 51.2183224 255 79 163
0.0151635557 10.2131496 51.7116552 255 79 163
0.0598938587 10.2131496 51.5838233 255 79 163
0.131947945 10.2131496 51.4691499 255 79 163
0.227712722 10.2131496 51.3733851 255 79 163
0.342386143 10.2131496 51.301331 255 79 163
0.470218005 10.2131496 51.2566007 255 79 163
0.0151635557 11.0139709 51.6710421 255 79 163
0.0598938587 11.0010383 51.5438661 255 79 163
0.131947945 10.989437 51.4297811 255 79 163
0.227712722 10.9797486 51.3345076 255 79 163
0.342386143 10.9724591 51.2628232 255 79 163
0.470218005 10.9679338 51.2183224 255 79 163
0.0151635557 11.7574321 51.5595566 255 79 163
0.0598938587 11.7324934 51.434181 255 79 163
0.131947945 11.7101217 51.321711 255 79 163
0.227712722 11.6914389 51.2277863 255 79 163
0.342386143 11.6773819 51.1571167 255 79 163
0.470218005 11.6686554 51.1132459 255 79 163
0.0151635557 12.5828276 51.3486339 255 79 163
0.0598938587 12.5445594 51.2266645 255 79 163
0.131947945 12.5102304 51.1172501 255 79 163
0.227712722 12.481562 51.0258771 255 79 163
0.342386143 12.4599917 50.9571275 255 79 163
0.470218005 12.4466011 50.9144486 255 79 163
0.0151635557 13.2423687 51.109106 255 79 163
0.0598938587 13.1934496 50.9910048 255 79 163
0.131947945 13.149566 50.8850604 255 79 163
0.227712722 13.1129184 50.7965852 255 79 163
0.342386143 13.0853445 50.730016 255 79 163
0.470218005 13.0682269 50.6886905 255 79 163
0.0151635557 14.0546694 50.7170168 255 79 163
0.0598938587 13.9926324 50.6052474 255 79 163
0.131947945 13.9369811 50.5049831 255 79 163
0.227712722 13.8905063 50.4212515 255 79 163
0.342386143 13.8555383 50.3582513 255 79 163
0.0151635557 14.6108941 50.377614 255 79 163
0.470218005 13.8338306 50.3191415 255 79 163
0.0598938587 14.5398746 50.2713257 255 79 163
0.131947945 14.4761654 50.1759782 255 79 163
0.227712722 14.4229614 50.0963527 255 79 163
0.342386143 14.3829303 50.0364419 255 79 163
0.470218005 14.3580794 49.99925 255 79 163
0.0151635557 15.369239 49.8020494 255 79 163
0.0598938587 15.2859728 49.7050559 255 79 163
0.131947945 15.2112777 49.6180465 255 79 163
0.227712722 15.1488992 49.5453842 255 79 163
0.342386143 15.1019651 49.4907126 255 79 163
0.0151635557 15.8104167 49.3931912 255 79 163
0.470218005 15.072829 49.4567731 255 79 163
0.0598938587 15.7200259 49.3028005 255 79 163
0.131947945 15.6389396 49.2217141 255 79 163
0.227712722 15.5712236 49.1539982 255 79 163
0.342386143 15.5202737 49.1030483 255 79 163
0.470218005 15.4886446 49.0714192 255 79 163
0.0151635557 16.4727176 48.6411905 255 79 163
0.0598938587 16.3716313 48.5629438 255 79 163
0.131947945 16.2809503 48.4927515 255 79 163
0.227712722 16.2052219 48.4341334 255 79 163
0.0151635557 16.7948394 48.1936687 255 79 163
0.342386143 16.1482433 48.3900286 255 79 163
0.0598938587 16.6885511 48.1226491 255 79 163
0.470218005 16.1128716 48.3626489 255 79 163
0.131947945 16.5932036 48.05894 255 79 163
0.227712722 16.5135781 48.0057359 255 79 163
0.342386143 16.4536674 47.9657048 255 79 163
0.470218005 16.4164755 47.940854 255 79 163
0.0151635557 17.3199289 47.2819658 255 79 163
0.0598938587 17.2051608 47.2256694 255 79 163
0.131947945 17.1022065 47.1751679 255 79 163
0.227712722 17.0162285 47.1329937 255 79 163
0.0151635557 17.5263315 46.8251433 255 79 163
0.342386143 16.951538 47.1012615 255 79 163
0.0598938587 17.4082302 46.7762242 255 79 163
0.470218005 16.9113789 47.0815625 255 79 163
0.131947945 17.3022858 46.7323405 255 79 163
0.227712722 17.2138107 46.6956929 255 79 163
0.342386143 17.1472414 46.668119 255 79 163
0.470218005 17.105916 46.6510015 255 79 163
0.0151635557 17.8761877 45.7800222 255 79 163
0.0598938587 17.7524366 45.7479808 255 79 163
0.131947945 17.6414239 45.7192376 255 79 163
0.227712722 17.5487162 45.695234 255 79 163
0.0151635557 17.9767821 45.3402067 255 79 163
0.342386143 17.4789623 45.6771734 255 79 163
0.0598938587 17.8514065 45.3152679 255 79 163
0.470218005 17.4356599 45.6659617 255 79 163
0.131947945 17.7389365 45.2928963 255 79 163
0.227712722 17.6450118 45.2742135 255 79 163
0.342386143 17.5743422 45.2601564 255 79 163
0.470218005 17.5304714 45.25143 255 79 163
0.0151635557 18.1187208 44.1968494 255 79 163
0.0598938587 17.991053 44.1903748 255 79 163
0.131947945 17.8765268 44.1845667 255 79 163
0.0151635557 18.1288806 43.7959242 255 79 163
0.227712722 17.7808849 44.1797163 255 79 163
0.0598938587 18.0010488 43.7959242 255 79 163
0.342386143 17.7089233 44.1760668 255 79 163
0.131947945 17.8863753 43.7959242 255 79 163
0.470218005 17.6642504 44.1738013 255 79 163
0.227712722 17.7906106 43.7959242 255 79 163
0.342386143 17.7185565 43.7959242 255 79 163
0.470218005 17.6738262 43.7959242 255 79 163
0.0151635557 18.037599 42.5972626 255 79 163
0.0598938587 17.9112412 42.6166199 255 79 163
0.131947945 17.7978902 42.6339847 255 79 163
0.227712722 17.7032297 42.6484861 255 79 163
0.342386143 17.6320066 42.6593971 255 79 163
0.470218005 17.5877921 42.6661705 255 79 163
0.0598938587 17.5162686 41.0911459 255 79 163
0.131947945 17.4087334 41.1309726 255 79 163
0.227712722 17.3189298 41.1642322 255 79 163
0.342386143 17.2513609 41.189257 255 79 163
0.470218005 17.209415 41.204792 255 79 163
0.0598938587 16.8223055 39.6764058 255 79 163
0.131947945 16.7249886 39.7370639 255 79 163
0.227712722 16.6437183 39.7877201 255 79 163
0.342386143 16.5825701 39.8258341 255 79 163
0.470218005 16.5446099 39.8494948 255 79 163
0.0598938587 15.8577627 38.4303193 255 79 163
0.131947945 15.7746483 38.5093255 255 79 163
0.227712722 15.7052387 38.5753043 255 79 163
0.342386143 15.6530144 38.6249472 255 79 163
0.470218005 15.6205942 38.6557649 255 79 163
0.0151635557 14.7351551 37.2989816 255 79 163
0.0598938587 14.6621289 37.4039013 255 79 163
0.131947945 14.5966196 37.4980211 255 79 163
0.227712722 14.5419122 37.5766213 255 79 163
0.342386143 14.50075 37.6357606 255 79 163
0.470218005 14.475197 37.6724736 255 79 163
0.0151635557 13.3347645 36.5217014 255 79 163
0.0598938587 13.2843533 36.6391735 255 79 163
0.131947945 13.2391311 36.7445535 255 79 163
0.227712722 13.2013657 36.8325573 255 79 163
0.342386143 13.1729508 36.8987719 255 79 163
0.470218005 13.1553111 36.9398772 255 79 163
0.0151635557 11.8065746 36.0422287 255 79 163
0.0598938587 11.7808422 36.1674438 255 79 163
0.131947945 11.7577586 36.2797699 255 79 163
0.227712722 11.7384813 36.3735743 255 79 163
0.342386143 11.7239769 36.4441535 255 79 163
0.470218005 11.7149728 36.4879681 255 79 163
0.604798283 -1.11022302e-16 0 218 222 230
37.0566298 -1.11022302e-16 0 218 222 230
0.604798283 -1.11022302e-16 70.745775 218 222 230
37.0566298 -1.11022302e-16 70.745775 218 222 230
37.6614281 52.0831167 0.604798283 218 222 230
37.6614281 52.0831167 70.745775 218 222 230
0.604798283 52.0831167 0.604798283 218 222 230
0.604798283 52.0831167 36.7463513 218 222 230
17.2863157 52.0831167 36.7463513 218 222 230
17.891114 52.0831167 36.7463513 218 222 230
17.891114 52.0831167 53.0346408 218 222 230
16.6815174 52.0831167 54.2442373 218 222 230
16.950678 52.0831167 54.2139102 218 222 230
17.2063417 52.0831167 54.1244496 218 222 230
17.4356886 52.0831167 53.9803415 218 222 230
17.6272181 52.0831167 53.7888119 218 222 230
17.7713263 52.0831167 53.5594651 218 222 230
17.8607869 52.0831167 53.3038013 218 222 230
0.604798283 52.0831167 54.2442373 218 222 230
0.604798283 52.0831167 70.745775 218 222 230
37.0566298 -1.11022302e-16 0 255 79 163
37.1912101 0.0151635557 0 255 79 163
37.319042 0.0598938587 0 255 79 163
37.4337154 0.131947945 0 255 79 163
37.5294802 0.227712722 0 255 79 163
37.6015343 0.342386143 0 255 79 163
37.6462646 0.470218005 0 255 79 163
37.6614281 0.604798283 0 255 79 163
37.6614281 0.604798283 70.745775 255 79 163
37.0566298 -1.11022302e-16 70.745775 255 79 163
37.1912101 0.0151635557 70.745775 255 79 163
37.319042 0.0598938587 70.745775 255 79 163
37.4337154 0.131947945 70.745775 255 79 163
37.5294802 0.227712722 70.745775 255 79 163
37.6015343 0.342386143 70.745775 255 79 163
37.6462646 0.470218005 70.745775 255 79 163
37.6614281 0.604798283 70.745775 218 222 230
37.6614281 52.0831167 70.745775 218 222 230
37.6614281 0.604798283 0 218 222 230
37.6614281 51.4783184 -1.11022302e-16 218 222 230
37.6614281 52.0831167 0.604798283 218 222 230
37.6614281 52.0679531 0.470218005 218 222 230
37.6614281 52.0232228 0.342386143 218 222 230
37.6614281 51.9511687 0.227712722 218 222 230
37.6614281 51.8554039 0.131947945 218 222 230
37.6614281 51.7407305 0.0598938587 218 222 230
37.6614281 51.6128987 0.0151635557 218 222 230
37.6614281 10.2131496 36.3504112 218 222 230
37.6614281 8.71437889 36.5028213 218 222 230
37.6614281 7.276968 36.9538119 218 222 230
37.6614281 5.95976472 37.6849193 218 222 230
37.6614281 4.81669553 38.666212 218 222 230
37.6614281 3.8945578 39.8575158 218 222 230
37.6614281 3.23110396 41.2100584 218 222 230
37.6614281 2.85349589 42.6684667 218 222 230
37.6614281 2.77719292 44.1730332 218 222 230
37.6614281 3.00531888 45.6621609 218 222 230
37.6614281 3.52853428 47.0748846 218 222 230
37.6614281 4.32541862 48.3533672 218 222 230
37.6614281 5.36334736 49.4452676 218 222 230
37.6614281 6.59982757 50.3058833 218 222 230
37.6614281 7.98423762 50.8999804 218 222 230
37.6614281 9.45989958 51.2032367 218 222 230
37.6614281 10.9663997 51.2032367 218 222 230
37.6614281 12.4420617 50.8999804 218 222 230
37.6614281 13.8264717 50.3058833 218 222 230
37.6614281 15.0629519 49.4452676 218 222 230
37.6614281 16.1008807 48.3533672 218 222 230
37.6614281 16.897765 47.0748846 218 222 230
37.6614281 17.4209804 45.6621609 218 222 230
37.6614281 17.6491064 44.1730332 218 222 230
37.6614281 17.5728034 42.6684667 218 222 230
37.6614281 17.1951953 41.2100584 218 222 230
37.6614281 16.5317415 39.8575158 218 222 230
37.6614281 15.6096037 38.666212 218 222 230
37.6614281 14.4665345 37.6849193 218 222 230
37.6614281 13.1493313 36.9538119 218 222 230
37.6614281 11.7119204 36.5028213 218 222 230
37.6614281 4.50042457 62.0510875 218 222 230
37.6614281 4.1140002 57.97525 218 222 230
37.6614281 7.81199431 58.8196853 218 222 230
37.6614281 21.1976643 39.621537 218 222 230
37.6614281 20.7588485 38.9641344 218 222 230
37.6614281 21.2849925 39.7250531 218 222 230
37.6614281 21.3931657 39.8065414 218 222 230
37.6614281 21.5167597 39.8619158 218 222 230
37.6614281 21.6495768 39.8883996 218 222 230
37.6614281 21.7849571 39.8846649 218 222 230
37.6614281 21.9161122 39.8508988 218 222 230
37.6614281 22.0364652 39.7887946 218 222 230
37.6614281 23.6198965 38.7318551 218 222 230
37.6614281 22.5095373 37.0683942 218 222 230
37.6614281 20.926106 38.1253336 218 222 230
37.6614281 20.82259 38.2126618 218 222 230
37.6614281 20.7411017 38.320835 218 222 230
37.6614281 20.6857272 38.4444289 218 222 230
37.6614281 20.6592434 38.577246 218 222 230
37.6614281 20.6629782 38.7126264 218 222 230
37.6614281 20.6967442 38.8437814 218 222 230
0.604798283 52.0831167 54.2442373 255 79 163
16.6815174 52.0831167 54.2442373 255 79 163
16.6815174 52.0679531 54.1096571 255 79 163
16.6815174 52.0232228 53.9818252 255 79 163
16.6815174 51.9511687 53.8671518 255 79 163
16.6815174 51.8554039 53.771387 255 79 163
16.6815174 51.7407305 53.6993329 255 79 163
16.6815174 51.6128987 53.6546026 255 79 163
16.6815174 51.4783184 53.6394391 255 79 163
-1.11022302e-16 51.4783184 53.6394391 255 79 163
0.00889999666 51.5816924 53.6483391 255 79 163
0.0353380483 51.6820241 53.6747771 255 79 163
0.0785360489 51.7763604 53.7179751 255 79 163
0.137222626 51.8619249 53.7766617 255 79 163
0.209670557 51.9361994 53.8491096 255 79 163
0.293747607 51.9969979 53.9331867 255 79 163
0.419622849 52.054071 54.0590619 255 79 163
0.511078495 52.0758111 54.1505176 255 79 163
37.6614281 0.604798283 0 218 222 230
37.6614281 51.4783184 -1.11022302e-16 218 222 230
0.604798283 51.4783184 -1.11022302e-16 218 222 230
0.604798283 -1.11022302e-16 0 218 222 230
37.0566298 -1.11022302e-16 0 218 222 230
37.1912101 0.0151635557 0 218 222 230
37.319042 0.0598938587 0 218 222 230
37.4337154 0.131947945 0 218 222 230
37.5294802 0.227712722 0 218 222 230
37.6015343 0.342386143 0 218 222 230
37.6462646 0.470218005 0 218 222 230
0.604798283 52.0831167 0.604798283 255 79 163
0.470218005 52.0679531 0.604798283 255 79 163
0.342386143 52.0232228 0.604798283 255 79 163
0.227712722 51.9511687 0.604798283 255 79 163
0.131947945 51.8554039 0.604798283 255 79 163
0.0598938587 51.7407305 0.604798283 255 79 163
0.0151635557 51.6128987 0.604798283 255 79 163
-1.11022302e-16 51.4783184 0.604798283 255 79 163
0.604798283 52.0831167 0.604798283 255 79 163
0.604798283 52.0679531 0.470218005 255 79 163
0.604798283 52.0232228 0.342386143 255 79 163
0.604798283 51.9511687 0.227712722 255 79 163
0.604798283 51.8554039 0.131947945 255 79 163
0.604798283 51.7407305 0.0598938587 255 79 163
0.604798283 51.6128987 0.0151635557 255 79 163
0.604798283 51.4783184 -1.11022302e-16 255 79 163
0.0151635557 51.4783184 0.470218005 255 79 163
0.0598938587 51.4783184 0.342386143 255 79 163
0.131947945 51.4783184 0.227712722 255 79 163
0.227712722 51.4783184 0.131947945 255 79 163
0.342386143 51.4783184 0.0598938587 255 79 163
0.470218005 51.4783184 0.0151635557 255 79 163
0.420206298 52.0535157 0.575561785 255 79 163
0.438275448 52.0535157 0.519950661 255 79 163
0.472645013 52.0535157 0.472645013 255 79 163
0.266705765 51.9676105 0.494945365 255 79 163
0.519950661 52.0535157 0.438275448 255 79 163
0.317199609 51.9676105 0.395845616 255 79 163
0.121530192 51.8338099 0.528256137 255 79 163
0.575561785 52.0535157 0.420206298 255 79 163
0.395845616 51.9676105 0.317199609 255 79 163
0.168835839 51.8338099 0.382664323 255 79 163
0.494945365 51.9676105 0.266705765 255 79 163
0.258816529 51.8338099 0.258816529 255 79 163
0.057753097 51.6652113 0.427052528 255 79 163
0.382664323 51.8338099 0.168835839 255 79 163
0.139453853 51.6652113 0.266705765 255 79 163
0.528256137 51.8338099 0.121530192 255 79 163
0.266705765 51.6652113 0.139453853 255 79 163
0.427052528 51.6652113 0.057753097 255 79 163
16.6815174 29.6328456 53.6394391 255 79 163
16.8160977 29.6328456 53.6242755 255 79 163
16.9439296 29.6328456 53.5795452 255 79 163
17.058603 29.6328456 53.5074911 255 79 163
17.1543678 29.6328456 53.4117263 255 79 163
17.2264219 29.6328456 53.2970529 255 79 163
17.2711522 29.6328456 53.1692211 255 79 163
17.2863157 29.6328456 53.0346408 255 79 163
17.2863157 51.4783184 53.0346408 255 79 163
16.6815174 51.4783184 53.6394391 255 79 163
16.8160977 51.4783184 53.6242755 255 79 163
16.9439296 51.4783184 53.5795452 255 79 163
17.058603 51.4783184 53.5074911 255 79 163
17.1543678 51.4783184 53.4117263 255 79 163
17.2264219 51.4783184 53.2970529 255 79 163
17.2711522 51.4783184 53.1692211 255 79 163
0.604798283 52.0831167 36.7463513 218 222 230
17.2863157 52.0831167 36.7463513 218 222 230
17.891114 52.0831167 36.7463513 218 222 230
17.7565337 52.0679531 36.7463513 218 222 230
17.6287019 52.0232228 36.7463513 218 222 230
17.5140284 51.9511687 36.7463513 218 222 230
17.4182637 51.8554039 36.7463513 218 222 230
17.3462096 51.7407305 36.7463513 218 222 230
17.3014793 51.6128987 36.7463513 218 222 230
17.2863157 51.4783184 36.7463513 218 222 230
17.2863157 29.6328456 36.7463513 218 222 230
0.604798283 29.6328456 36.7463513 218 222 230
17.2863157 51.4783184 36.7463513 218 222 230
17.2863157 29.6328456 36.7463513 218 222 230
17.2863157 29.6328456 53.0346408 218 222 230
17.2863157 51.4783184 53.0346408 218 222 230
2.03962881 18.1420198 53.6973753 218 222 230
2.03962881 18.0194446 53.9131132 218 222 230
2.03962881 17.9520607 54.1519163 218 222 230
2.03962881 17.9437842 54.3999063 218 222 230
2.03962881 17.995096 54.6426709 218 222 230
2.03962881 18.1030142 54.8661014 218 222 230
2.03962881 18.2612669 55.0572129 218 222 230
2.03962881 18.4606571 55.2048987 218 222 230
2.03962881 18.6895968 55.3005758 218 222 230
2.03962881 18.9347811 55.3386839 218 222 230
2.03962881 19.1819605 55.3170082 218 222 230
2.03962881 19.4167701 55.2368084 218 222 230
2.03962881 19.6255634 55.1027455 218 222 230
2.03962881 19.7962063 54.9226107 218 222 230
2.03962881 20.3914062 54.119033 218 222 230
2.03962881 20.5139814 53.9032951 218 222 230
2.03962881 20.5813653 53.664492 218 222 230
2.03962881 20.5896418 53.416502 218 222 230
2.03962881 20.53833 53.1737375 218 222 230
2.03962881 20.4304118 52.9503069 218 222 230
2.03962881 20.2721591 52.7591954 218 222 230
2.03962881 20.0727689 52.6115096 218 222 230
2.03962881 19.8438291 52.5158325 218 222 230
2.03962881 19.5986449 52.4777244 218 222 230
2.03962881 19.3514655 52.4994001 218 222 230
2.03962881 19.1166559 52.5795999 218 222 230
2.03962881 18.9078626 52.7136628 218 222 230
2.03962881 18.7372197 52.8937977 218 222 230
0.604798283 10.2131496 36.3504112 218 222 230
37.6614281 10.2131496 36.3504112 218 222 230
0.604798283 10.2131496 36.3504112 218 222 230
0.604798283 8.71437889 36.5028213 218 222 230
0.604798283 7.276968 36.9538119 218 222 230
0.604798283 5.95976472 37.6849193 218 222 230
0.604798283 4.81669553 38.666212 218 222 230
0.604798283 3.8945578 39.8575158 218 222 230
0.604798283 3.23110396 41.2100584 218 222 230
0.604798283 2.85349589 42.6684667 218 222 230
0.604798283 2.77719292 44.1730332 218 222 230
0.604798283 3.00531888 45.6621609 218 222 230
0.604798283 3.52853428 47.0748846 218 222 230
0.604798283 4.32541862 48.3533672 218 222 230
0.604798283 5.36334736 49.4452676 218 222 230
0.604798283 6.59982757 50.3058833 218 222 230
0.604798283 7.98423762 50.8999804 218 222 230
0.604798283 9.45989958 51.2032367 218 222 230
0.604798283 10.9663997 51.2032367 218 222 230
0.604798283 12.4420617 50.8999804 218 222 230
0.604798283 13.8264717 50.3058833 218 222 230
0.604798283 15.0629519 49.4452676 218 222 230
0.604798283 16.1008807 48.3533672 218 222 230
0.604798283 16.897765 47.0748846 218 222 230
0.604798283 17.4209804 45.6621609 218 222 230
0.604798283 17.6491064 44.1730332 218 222 230
0.604798283 17.5728034 42.6684667 218 222 230
0.604798283 17.1951953 41.2100584 218 222 230
0.604798283 16.5317415 39.8575158 218 222 230
0.604798283 15.6096037 38.666212 218 222 230
0.604798283 14.4665345 37.6849193 218 222 230
0.604798283 13.1493313 36.9538119 218 222 230
0.604798283 11.7119204 36.5028213 218 222 230
37.6614281 10.2131496 36.3504112 218 222 230
37.6614281 8.71437889 36.5028213 218 222 230
37.6614281 7.276968 36.9538119 218 222 230
37.6614281 5.95976472 37.6849193 218 222 230
37.6614281 4.81669553 38.666212 218 222 230
37.6614281 3.8945578 39.8575158 218 222 230
37.6614281 3.23110396 41.2100584 218 222 230
37.6614281 2.85349589 42.6684667 218 222 230
37.6614281 2.77719292 44.1730332 218 222 230
37.6614281 3.00531888 45.6621609 218 222 230
37.6614281 3.52853428 47.0748846 218 222 230
37.6614281 4.32541862 48.3533672 218 222 230
37.6614281 5.36334736 49.4452676 218 222 230
37.6614281 6.59982757 50.3058833 218 222 230
37.6614281 7.98423762 50.8999804 218 222 230
37.6614281 9.45989958 51.2032367 218 222 230
37.6614281 10.9663997 51.2032367 218 222 230
37.6614281 12.4420617 50.8999804 218 222 230
37.6614281 13.8264717 50.3058833 218 222 230
37.6614281 15.0629519 49.4452676 218 222 230
37.6614281 16.1008807 48.3533672 218 222 230
37.6614281 16.897765 47.0748846 218 222 230
37.6614281 17.4209804 45.6621609 218 222 230
37.6614281 17.6491064 44.1730332 218 222 230
37.6614281 17.5728034 42.6684667 218 222 230
37.6614281 17.1951953 41.2100584 218 222 230
37.6614281 16.5317415 39.8575158 218 222 230
37.6614281 15.6096037 38.666212 218 222 230
37.6614281 14.4665345 37.6849193 218 222 230
37.6614281 13.1493313 36.9538119 218 222 230
37.6614281 11.7119204 36.5028213 218 222 230
0.604798283 52.0831167 0.604798283 255 79 163
37.6614281 52.0831167 0.604798283 255 79 163
37.6614281 52.0679531 0.470218005 255 79 163
37.6614281 52.0232228 0.342386143 255 79 163
37.6614281 51.9511687 0.227712722 255 79 163
37.6614281 51.8554039 0.131947945 255 79 163
37.6614281 51.7407305 0.0598938587 255 79 163
37.6614281 51.6128987 0.0151635557 255 79 163
37.6614281 51.4783184 -1.11022302e-16 255 79 163
0.604798283 51.4783184 -1.11022302e-16 255 79 163
0.604798283 52.0679531 0.470218005 255 79 163
0.604798283 52.0232228 0.342386143 255 79 163
0.604798283 51.9511687 0.227712722 255 79 163
0.604798283 51.8554039 0.131947945 255 79 163
0.604798283 51.7407305 0.0598938587 255 79 163
0.604798283 51.6128987 0.0151635557 255 79 163
16.6815174 52.0831167 54.2442373 255 79 163
16.6815174 52.0679531 54.1096571 255 79 163
16.6815174 52.0232228 53.9818252 255 79 163
16.6815174 51.9511687 53.8671518 255 79 163
16.6815174 51.8554039 53.771387 255 79 163
16.6815174 51.7407305 53.6993329 255 79 163
16.6815174 51.6128987 53.6546026 255 79 163
16.6815174 51.4783184 53.6394391 255 79 163
16.950678 52.0831167 54.2139102 255 79 163
17.2063417 52.0831167 54.1244496 255 79 163
17.4356886 52.0831167 53.9803415 255 79 163
17.6272181 52.0831167 53.7888119 255 79 163
17.7713263 52.0831167 53.5594651 255 79 163
17.8607869 52.0831167 53.3038013 255 79 163
17.891114 52.0831167 53.0346408 255 79 163
17.7565337 52.0679531 53.0346408 255 79 163
17.6287019 52.0232228 53.0346408 255 79 163
17.5140284 51.9511687 53.0346408 255 79 163
17.4182637 51.8554039 53.0346408 255 79 163
17.3462096 51.7407305 53.0346408 255 79 163
17.3014793 51.6128987 53.0346408 255 79 163
17.2863157 51.4783184 53.0346408 255 79 163
16.8160977 51.4783184 53.6242755 255 79 163
16.9439296 51.4783184 53.5795452 255 79 163
17.058603 51.4783184 53.5074911 255 79 163
17.1543678 51.4783184 53.4117263 255 79 163
17.2264219 51.4783184 53.2970529 255 79 163
17.2711522 51.4783184 53.1692211 255 79 163
16.9207311 52.0679531 54.0827042 255 79 163
16.8922858 52.0232228 53.9580773 255 79 163
17.1479495 52.0679531 54.003197 255 79 163
16.8667686 51.9511687 53.846279 255 79 163
17.0924854 52.0232228 53.8880245 255 79 163
17.3517791 52.0679531 53.8751224 255 79 163
16.8454589 51.8554039 53.7529152 255 79 163
17.0427304 51.9511687 53.7847073 255 79 163
17.2720773 52.0232228 53.7751794 255 79 163
16.8294253 51.7407305 53.6826677 255 79 163
17.521999 52.0679531 53.7049025 255 79 163
17.0011796 51.8554039 53.6984262 255 79 163
17.2005796 51.9511687 53.6855241 255 79 163
16.8194719 51.6128987 53.6390589 255 79 163
17.422056 52.0232228 53.6252006 255 79 163
16.9699165 51.7407305 53.6335077 255 79 163
17.6500736 52.0679531 53.5010729 255 79 163
17.1408712 51.8554039 53.6106522 255 79 163
17.3324007 51.9511687 53.5537029 255 79 163
16.9505088 51.6128987 53.5932071 255 79 163
17.5349011 52.0232228 53.4456087 255 79 163
17.0959462 51.7407305 53.554318 255 79 163
17.7295808 52.0679531 53.2738544 255 79 163
17.2575288 51.8554039 53.4939945 255 79 163
17.4315839 51.9511687 53.3958538 255 79 163
17.0680573 51.6128987 53.5193465 255 79 163
17.604954 52.0232228 53.2454091 255 79 163
17.2011947 51.7407305 53.4490696 255 79 163
17.3453028 51.8554039 53.354303 255 79 163
17.4931556 51.9511687 53.2198919 255 79 163
17.1662231 51.6128987 53.4211807 255 79 163
17.2803844 51.7407305 53.3230399 255 79 163
17.3997919 51.8554039 53.1985822 255 79 163
17.2400837 51.6128987 53.3036321 255 79 163
17.3295444 51.7407305 53.1825487 255 79 163
17.2859355 51.6128987 53.1725953 255 79 163
17.891114 52.0831167 53.0346408 255 79 163
17.891114 52.0831167 36.7463513 255 79 163
17.7565337 52.0679531 36.7463513 255 79 163
17.6287019 52.0232228 36.7463513 255 79 163
17.5140284 51.9511687 36.7463513 255 79 163
17.4182637 51.8554039 36.7463513 255 79 163
17.3462096 51.7407305 36.7463513 255 79 163
17.3014793 51.6128987 36.7463513 255 79 163
17.2863157 51.4783184 36.7463513 255 79 163
17.2863157 51.4783184 53.0346408 255 79 163
17.7565337 52.0679531 53.0346408 255 79 163
17.6287019 52.0232228 53.0346408 255 79 163
17.5140284 51.9511687 53.0346408 255 79 163
17.4182637 51.8554039 53.0346408 255 79 163
17.3462096 51.7407305 53.0346408 255 79 163
17.3014793 51.6128987 53.0346408 255 79 163
3 5 3 2
3 5 4 3
3 40 5 2
3 57 6 5
3 57 5 40
3 86 42 41
3 86 43 42
3 85 43 86
3 85 44 43
3 85 45 44
3 85 46 45
3 87 86 41
3 87 41 40
3 84 46 85
3 84 47 46
3 84 48 47
3 84 49 48
3 88 40 2
3 88 87 40
3 7 6 57
3 7 1 8
3 7 57 56
3 83 49 84
3 83 50 49
3 83 51 50
3 83 52 51
3 89 88 2
3 82 52 83
3 82 53 52
3 82 54 53
3 82 55 54
3 58 89 2
3 81 55 82
3 81 7 56
3 81 56 55
3 59 58 2
3 60 59 2
3 61 60 2
3 30 7 81
3 29 7 30
3 31 30 81
3 31 81 80
3 28 7 29
3 32 31 80
3 27 7 28
3 33 80 79
3 33 32 80
3 26 7 27
3 34 33 79
3 25 7 26
3 35 34 79
3 78 35 79
3 62 61 2
3 24 7 25
3 36 35 78
3 9 36 78
3 23 7 24
3 22 7 23
3 77 9 78
3 77 10 9
3 63 62 2
3 21 1 7
3 21 7 22
3 11 10 77
3 20 1 21
3 64 63 2
3 76 12 11
3 76 13 12
3 76 11 77
3 76 14 13
3 75 14 76
3 39 15 14
3 39 16 15
3 39 17 16
3 39 18 17
3 39 19 18
3 39 14 75
3 39 73 72
3 39 74 73
3 39 75 74
3 38 39 72
3 38 69 68
3 38 70 69
3 38 71 70
3 38 72 71
3 37 19 39
3 0 19 37
3 0 20 19
3 0 1 20
3 0 37 38
3 0 38 68
3 0 68 67
3 0 66 2
3 66 65 2
3 65 64 2
3 0 67 66
3 90 92 93
3 90 93 94
3 90 94 95
3 90 95 96
3 90 96 97
3 90 97 98
3 101 99 100
3 103 101 102
3 105 103 104
3 106 98 99
3 106 90 98
3 106 99 101
3 106 101 103
3 106 103 105
3 91 90 106
3 113 110 109
3 113 111 110
3 113 112 111
3 108 109 91
3 108 114 113
3 108 113 109
3 107 108 91
3 107 91 106
3 126 115 116
3 126 125 115
3 127 116 117
3 127 126 116
3 128 117 118
3 128 127 117
3 129 118 119
3 129 128 118
3 130 119 120
3 130 129 119
3 131 120 121
3 131 121 122
3 131 130 120
3 124 122 123
3 124 131 122
3 140 141 149
3 139 149 148
3 139 140 149
3 138 148 147
3 138 139 148
3 137 147 146
3 137 138 147
3 136 145 144
3 136 146 145
3 136 137 146
3 135 144 143
3 135 136 144
3 134 143 142
3 134 135 143
3 133 142 132
3 133 134 142
3 158 159 166
3 157 165 164
3 157 166 165
3 157 158 166
3 156 164 163
3 156 157 164
3 155 163 162
3 155 156 163
3 154 162 161
3 154 155 162
3 153 161 160
3 153 154 161
3 152 160 150
3 152 153 160
3 151 152 150
3 170 168 167
3 170 169 168
3 179 180 181
3 179 181 182
3 178 179 182
3 177 182 183
3 177 178 182
3 176 183 184
3 176 177 183
3 175 184 185
3 175 176 184
3 174 185 186
3 174 175 185
3 173 186 187
3 173 174 186
3 172 187 171
3 172 173 187
3 188 190 189
3 194 195 196
3 194 196 197
3 194 197 190
3 193 194 190
3 199 201 200
3 199 202 201
3 199 203 202
3 199 204 203
3 199 205 204
3 199 206 205
3 199 188 206
3 191 192 193
3 191 190 188
3 191 193 190
3 198 188 199
3 198 191 188
3 215 216 223
3 214 222 221
3 214 223 222
3 214 215 223
3 213 221 220
3 213 214 221
3 212 220 219
3 212 213 220
3 211 219 218
3 211 212 219
3 210 218 217
3 210 211 218
3 209 217 207
3 209 210 217
3 208 209 207
3 224 226 225
3 227 226 224
3 244 229 228
3 244 230 229
3 245 231 230
3 245 230 244
3 246 232 231
3 246 233 232
3 246 231 245
3 247 233 246
3 248 234 233
3 248 233 247
3 249 235 234
3 249 236 235
3 249 234 248
3 250 236 249
3 251 237 236
3 251 236 250
3 252 238 237
3 252 237 251
3 253 239 238
3 253 238 252
3 254 240 239
3 254 239 253
3 255 241 240
3 255 240 254
3 243 242 241
3 243 241 255
3 259 257 256
3 259 258 257
3 276 261 260
3 276 262 261
3 277 263 262
3 277 262 276
3 278 264 263
3 278 265 264
3 278 263 277
3 279 265 278
3 280 266 265
3 280 265 279
3 281 267 266
3 281 266 280
3 282 268 267
3 282 269 268
3 282 267 281
3 283 269 282
3 284 270 269
3 284 271 270
3 284 269 283
3 285 271 284
3 286 272 271
3 286 271 285
3 287 273 272
3 287 274 273
3 287 272 286
3 275 274 287
3 288 291 290
3 289 291 288
3 293 294 292
3 293 295 294
3 297 298 296
3 297 299 298
3 301 302 300
3 301 303 302
3 311 313 312
3 311 319 313
3 310 318 319
3 310 319 311
3 309 316 317
3 309 317 318
3 309 318 310
3 308 316 309
3 307 314 315
3 307 315 316
3 307 316 308
3 306 304 314
3 306 314 307
3 305 304 306
3 320 323 322
3 321 323 320
3 325 326 324
3 325 327 326
3 329 330 328
3 329 331 330
3 340 347 341
3 339 346 347
3 339 347 340
3 338 346 339
3 337 344 345
3 337 345 346
3 337 346 338
3 336 344 337
3 335 342 343
3 335 343 344
3 335 344 336
3 334 342 335
3 333 332 342
3 333 342 334
3 388 386 387
3 389 386 388
3 425 349 348
3 425 348 356
3 426 350 349
3 426 349 425
3 427 351 350
3 427 350 426
3 428 352 351
3 428 351 427
3 429 353 352
3 429 352 428
3 430 353 429
3 430 354 353
3 430 355 354
3 430 429 395
3 430 395 355
3 431 356 357
3 431 425 356
3 432 425 431
3 432 426 425
3 433 427 426
3 433 426 432
3 434 427 433
3 434 428 427
3 435 434 396
3 435 395 429
3 435 429 428
3 435 428 434
3 436 396 395
3 436 435 396
3 436 395 435
3 437 357 358
3 437 431 357
3 438 432 431
3 438 431 437
3 439 432 438
3 439 433 432
3 440 434 433
3 440 396 434
3 440 433 439
3 441 440 397
3 441 396 440
3 442 441 397
3 442 396 441
3 442 397 396
3 443 358 359
3 443 437 358
3 444 439 438
3 444 438 437
3 444 437 443
3 445 439 444
3 446 440 439
3 446 397 440
3 446 439 445
3 446 445 398
3 447 446 398
3 447 397 446
3 448 447 398
3 448 398 397
3 448 397 447
3 449 359 360
3 449 360 361
3 449 443 359
3 450 444 443
3 450 443 449
3 451 444 450
3 451 398 445
3 451 445 444
3 452 451 399
3 452 398 451
3 453 452 399
3 453 398 452
3 454 453 399
3 454 398 453
3 454 399 398
3 455 449 361
3 456 450 449
3 456 449 455
3 457 399 451
3 457 450 456
3 457 451 450
3 458 399 457
3 458 457 400
3 459 399 458
3 459 458 400
3 460 399 459
3 460 400 399
3 460 459 400
3 461 361 362
3 461 455 361
3 462 455 461
3 462 456 455
3 462 457 456
3 463 400 457
3 463 462 401
3 463 457 462
3 464 400 463
3 464 463 401
3 465 464 401
3 465 400 464
3 466 401 400
3 466 465 401
3 466 400 465
3 467 362 363
3 467 461 362
3 468 462 461
3 468 401 462
3 468 461 467
3 469 468 402
3 469 401 468
3 470 469 402
3 470 401 469
3 471 470 402
3 471 401 470
3 472 402 401
3 472 471 402
3 472 401 471
3 473 363 364
3 473 467 363
3 473 468 467
3 474 402 468
3 474 468 473
3 475 402 474
3 476 402 475
3 477 364 365
3 477 473 364
3 478 402 476
3 479 473 477
3 479 474 473
3 480 402 478
3 480 403 402
3 481 474 479
3 481 475 474
3 482 476 475
3 482 478 476
3 482 475 481
3 483 478 482
3 484 480 478
3 484 403 480
3 484 478 483
3 485 477 365
3 486 477 485
3 486 479 477
3 487 481 479
3 487 479 486
3 488 482 481
3 488 481 487
3 489 365 366
3 489 485 365
3 489 486 485
3 490 483 482
3 490 482 488
3 491 486 489
3 492 403 484
3 492 484 483
3 492 483 490
3 492 404 403
3 493 487 486
3 493 486 491
3 494 487 493
3 494 488 487
3 495 490 488
3 495 492 490
3 495 488 494
3 496 404 492
3 496 492 495
3 497 489 366
3 497 491 489
3 498 491 497
3 499 491 498
3 499 493 491
3 500 493 499
3 500 494 493
3 501 366 367
3 501 497 366
3 502 495 494
3 502 494 500
3 503 497 501
3 503 498 497
3 504 405 404
3 504 404 496
3 504 496 495
3 504 495 502
3 505 498 503
3 505 499 498
3 506 500 499
3 506 502 500
3 506 499 505
3 507 502 506
3 508 405 504
3 508 504 502
3 508 502 507
3 509 501 367
3 510 503 501
3 510 501 509
3 511 503 510
3 511 505 503
3 512 505 511
3 512 506 505
3 513 506 512
3 513 507 506
3 514 367 368
3 514 510 509
3 514 509 367
3 515 507 513
3 515 406 405
3 515 405 508
3 515 508 507
3 516 510 514
3 517 511 510
3 517 512 511
3 517 510 516
3 518 513 512
3 518 512 517
3 519 513 518
3 520 513 519
3 520 515 513
3 520 406 515
3 521 514 368
3 522 516 514
3 522 514 521
3 523 516 522
3 523 517 516
3 524 518 517
3 524 517 523
3 525 519 518
3 525 518 524
3 526 368 369
3 526 521 368
3 527 519 525
3 527 406 520
3 527 520 519
3 527 407 406
3 528 522 521
3 528 521 526
3 529 523 522
3 529 522 528
3 530 524 523
3 530 523 529
3 531 525 524
3 531 524 530
3 532 527 525
3 532 525 531
3 532 407 527
3 533 526 369
3 533 528 526
3 534 528 533
3 535 529 528
3 535 528 534
3 536 529 535
3 536 530 529
3 537 531 530
3 537 530 536
3 538 408 407
3 538 532 531
3 538 407 532
3 538 531 537
3 539 369 370
3 539 533 369
3 540 534 533
3 540 533 539
3 541 535 534
3 541 534 540
3 542 536 535
3 542 537 536
3 542 535 541
3 543 537 542
3 544 537 543
3 544 408 538
3 544 538 537
3 545 539 370
3 546 539 545
3 546 540 539
3 547 540 546
3 547 541 540
3 548 542 541
3 548 543 542
3 548 541 547
3 549 543 548
3 550 408 544
3 550 543 549
3 550 544 543
3 550 409 408
3 551 370 371
3 551 545 370
3 552 546 545
3 552 545 551
3 553 547 546
3 553 546 552
3 554 547 553
3 554 548 547
3 555 549 548
3 555 548 554
3 556 549 555
3 556 550 549
3 556 409 550
3 557 552 551
3 557 551 371
3 558 552 557
3 559 553 552
3 559 554 553
3 559 552 558
3 560 554 559
3 561 555 554
3 561 554 560
3 562 409 556
3 562 555 561
3 562 556 555
3 562 410 409
3 563 371 372
3 563 557 371
3 564 558 557
3 564 557 563
3 565 559 558
3 565 558 564
3 566 560 559
3 566 559 565
3 567 561 560
3 567 560 566
3 568 562 561
3 568 410 562
3 568 561 567
3 569 563 372
3 570 564 563
3 570 563 569
3 571 565 564
3 571 564 570
3 572 566 565
3 572 565 571
3 573 567 566
3 573 566 572
3 574 410 568
3 574 411 410
3 574 568 567
3 574 567 573
3 575 372 373
3 575 570 569
3 575 569 372
3 576 570 575
3 577 570 576
3 577 571 570
3 577 572 571
3 578 572 577
3 579 572 578
3 579 573 572
3 579 574 573
3 580 574 579
3 580 411 574
3 581 575 373
3 582 575 581
3 582 576 575
3 583 576 582
3 583 577 576
3 584 578 577
3 584 577 583
3 585 578 584
3 585 579 578
3 586 579 585
3 586 411 580
3 586 580 579
3 586 412 411
3 587 582 581
3 587 373 374
3 587 581 373
3 588 582 587
3 589 584 583
3 589 582 588
3 589 583 582
3 590 585 584
3 590 584 589
3 591 586 585
3 591 585 590
3 592 587 374
3 593 412 586
3 593 586 591
3 594 588 587
3 594 587 592
3 595 589 588
3 595 588 594
3 596 590 589
3 596 589 595
3 597 591 590
3 597 590 596
3 598 593 591
3 598 591 597
3 598 413 412
3 598 412 593
3 599 374 375
3 599 592 374
3 600 594 592
3 600 592 599
3 601 595 594
3 601 594 600
3 602 596 595
3 602 595 601
3 603 597 596
3 603 596 602
3 604 599 375
3 605 598 597
3 605 413 598
3 605 597 603
3 606 600 599
3 606 599 604
3 607 601 600
3 607 600 606
3 608 602 601
3 608 601 607
3 609 603 602
3 609 602 608
3 610 414 413
3 610 413 605
3 610 605 603
3 610 603 609
3 611 375 376
3 611 606 604
3 611 604 375
3 612 606 611
3 613 606 612
3 613 607 606
3 613 608 607
3 614 608 613
3 615 611 376
3 616 610 609
3 616 608 614
3 616 609 608
3 617 612 611
3 617 611 615
3 618 610 616
3 618 414 610
3 619 612 617
3 619 613 612
3 620 613 619
3 620 614 613
3 621 616 614
3 621 614 620
3 622 618 616
3 622 414 618
3 622 616 621
3 622 415 414
3 623 615 376
3 623 617 615
3 623 376 377
3 624 617 623
3 625 619 617
3 625 617 624
3 625 620 619
3 626 620 625
3 627 623 377
3 627 624 623
3 628 621 620
3 628 620 626
3 629 624 627
3 630 622 621
3 630 415 622
3 630 621 628
3 631 626 625
3 631 625 624
3 631 624 629
3 632 626 631
3 633 628 626
3 633 630 628
3 633 626 632
3 634 415 630
3 634 416 415
3 634 630 633
3 635 377 378
3 635 627 377
3 636 627 635
3 636 629 627
3 637 631 629
3 637 629 636
3 638 632 631
3 638 631 637
3 639 635 378
3 640 633 632
3 640 632 638
3 641 636 635
3 641 635 639
3 642 633 640
3 642 416 634
3 642 634 633
3 643 637 636
3 643 638 637
3 643 636 641
3 644 638 643
3 645 638 644
3 645 640 638
3 646 640 645
3 646 417 416
3 646 642 640
3 646 416 642
3 647 378 379
3 647 639 378
3 648 639 647
3 648 641 639
3 648 643 641
3 649 643 648
3 650 647 379
3 651 644 643
3 651 643 649
3 652 648 647
3 652 647 650
3 653 645 644
3 653 646 645
3 653 644 651
3 654 648 652
3 654 649 648
3 655 417 646
3 655 646 653
3 656 651 649
3 656 649 654
3 657 653 651
3 657 651 656
3 658 417 655
3 658 655 653
3 658 653 657
3 658 418 417
3 659 650 379
3 659 379 380
3 660 650 659
3 660 659 380
3 660 652 650
3 661 652 660
3 661 654 652
3 661 660 380
3 662 656 654
3 662 661 380
3 662 654 661
3 663 657 656
3 663 656 662
3 663 662 380
3 664 658 657
3 664 418 658
3 664 657 663
3 665 380 381
3 666 380 665
3 666 665 381
3 667 666 381
3 667 380 666
3 668 663 380
3 668 667 381
3 668 380 667
3 669 418 664
3 669 664 663
3 669 419 418
3 669 663 668
3 670 381 382
3 671 381 670
3 671 670 382
3 672 671 382
3 672 381 671
3 673 668 381
3 673 381 672
3 674 420 419
3 674 419 669
3 674 669 668
3 674 668 673
3 675 382 383
3 676 675 383
3 676 382 675
3 677 672 382
3 677 676 383
3 677 382 676
3 678 673 672
3 678 672 677
3 679 673 678
3 679 421 420
3 679 420 674
3 679 674 673
3 680 383 384
3 681 680 384
3 681 383 680
3 682 681 384
3 682 383 681
3 683 383 682
3 683 677 383
3 684 678 677
3 684 677 683
3 685 678 684
3 685 421 679
3 685 422 421
3 685 679 678
3 686 384 385
3 687 686 385
3 687 384 686
3 688 687 385
3 688 384 687
3 688 682 384
3 689 682 688
3 689 683 682
3 690 683 689
3 690 684 683
3 691 685 684
3 691 422 685
3 691 684 690
3 691 423 422
3 691 424 423
3 692 385 386
3 693 386 389
3 693 692 386
3 693 385 692
3 694 385 693
3 694 688 385
3 694 389 390
3 694 693 389
3 695 689 688
3 695 688 694
3 695 390 391
3 695 694 390
3 696 689 695
3 696 690 689
3 696 691 690
3 696 391 392
3 696 695 391
3 697 424 691
3 697 392 393
3 697 393 394
3 697 691 696
3 697 696 392
3 697 394 424
3 701 698 699
3 701 700 698
3 706 704 705
3 707 702 704
3 707 704 706
3 717 710 709
3 717 709 716
3 703 707 708
3 703 711 710
3 703 712 711
3 703 713 712
3 703 714 713
3 703 715 714
3 703 708 715
3 703 702 707
3 703 710 717
3 728 718 719
3 728 719 720
3 728 727 718
3 729 728 720
3 730 720 721
3 730 721 722
3 730 729 720
3 731 730 722
3 732 722 723
3 732 731 722
3 733 723 724
3 733 732 723
3 726 724 725
3 726 733 724
3 743 742 741
3 744 743 741
3 737 739 738
3 737 740 739
3 737 741 740
3 737 744 741
3 789 736 737
3 789 737 738
3 788 789 738
3 735 788 738
3 772 791 792
3 772 792 793
3 773 789 790
3 773 790 791
3 773 791 772
3 771 793 794
3 771 794 795
3 771 795 796
3 771 772 793
3 774 789 773
3 770 771 796
3 770 780 779
3 770 779 781
3 770 796 780
3 775 789 774
3 775 736 789
3 769 781 782
3 769 782 783
3 769 783 784
3 769 770 781
3 745 736 775
3 768 769 784
3 768 784 785
3 768 785 786
3 746 736 745
3 767 768 786
3 767 786 787
3 747 736 746
3 766 788 735
3 766 767 787
3 766 787 788
3 748 736 747
3 765 766 735
3 749 736 748
3 764 765 735
3 750 736 749
3 778 759 760
3 778 760 761
3 778 761 762
3 778 762 763
3 778 763 764
3 778 764 735
3 777 754 755
3 777 755 756
3 777 756 757
3 777 757 758
3 777 758 759
3 777 759 778
3 734 777 776
3 734 776 778
3 734 778 735
3 734 754 777
3 734 736 753
3 753 736 752
3 752 736 751
3 751 736 750
3 734 753 754
3 805 806 807
3 804 807 808
3 804 805 807
3 803 808 809
3 803 804 808
3 802 809 810
3 802 810 811
3 802 803 809
3 801 811 812
3 801 802 811
3 800 812 813
3 800 801 812
3 799 813 814
3 799 800 813
3 798 814 797
3 798 799 814
3 823 820 819
3 823 821 820
3 823 822 821
3 815 819 818
3 815 824 823
3 815 825 824
3 815 823 819
3 817 815 818
3 816 815 817
3 842 833 832
3 841 847 840
3 848 828 827
3 849 827 826
3 849 848 827
3 850 826 834
3 850 849 826
3 851 829 828
3 851 828 848
3 851 848 849
3 852 834 835
3 852 850 834
3 853 849 850
3 853 851 849
3 854 830 829
3 854 831 830
3 854 829 851
3 855 835 836
3 855 852 835
3 856 853 850
3 856 850 852
3 857 851 853
3 857 854 851
3 858 836 837
3 858 852 855
3 858 855 836
3 858 856 852
3 859 853 856
3 859 857 853
3 860 832 831
3 860 843 842
3 860 831 854
3 860 854 857
3 860 842 832
3 861 856 858
3 861 859 856
3 862 844 843
3 862 845 844
3 862 843 860
3 862 857 859
3 862 860 857
3 863 837 838
3 863 838 839
3 863 858 837
3 863 861 858
3 864 846 845
3 864 845 862
3 864 859 861
3 864 862 859
3 865 839 840
3 865 847 846
3 865 846 864
3 865 840 847
3 865 863 839
3 865 861 863
3 865 864 861
3 875 867 866
3 876 867 875
3 877 868 867
3 877 867 876
3 878 869 868
3 878 870 869
3 878 868 877
3 879 870 878
3 880 871 870
3 880 870 879
3 881 872 871
3 881 871 880
3 874 873 872
3 874 872 881
3 883 885 884
3 883 886 885
3 883 887 886
3 888 887 883
3 889 888 883
3 890 889 883
3 891 890 883
3 882 891 883
3 893 892 891
3 893 891 882
3 895 896 897
3 895 897 894
3 915 913 914
3 906 907 908
3 906 908 909
3 903 904 905
3 903 905 906
3 919 916 917
3 919 917 918
3 920 912 913
3 920 915 916
3 920 913 915
3 920 916 919
3 899 900 901
3 899 901 902
3 899 902 903
3 899 909 910
3 899 906 909
3 899 903 906
3 922 920 921
3 898 910 911
3 898 899 910
3 925 911 912
3 925 898 911
3 924 922 923
3 924 912 920
3 924 925 912
3 924 920 922
3 928 960 959
3 929 960 928
3 930 961 960
3 930 960 929
3 931 962 961
3 931 961 930
3 932 963 962
3 932 962 931
3 933 964 963
3 933 963 932
3 934 965 964
3 934 966 965
3 934 964 933
3 935 966 934
3 936 967 966
3 936 966 935
3 937 967 936
3 937 968 967
3 938 968 937
3 938 969 968
3 939 969 938
3 939 970 969
3 940 970 939
3 940 971 970
3 941 971 940
3 941 972 971
3 941 973 972
3 942 973 941
3 943 973 942
3 943 974 973
3 944 974 943
3 944 975 974
3 945 975 944
3 945 976 975
3 946 976 945
3 946 977 976
3 947 977 946
3 947 978 977
3 948 978 947
3 948 979 978
3 949 979 948
3 949 980 979
3 950 980 949
3 950 981 980
3 951 982 981
3 951 981 950
3 952 983 982
3 952 982 951
3 953 984 983
3 953 983 952
3 954 985 984
3 954 984 953
3 955 986 985
3 955 985 954
3 956 987 986
3 956 986 955
3 957 988 987
3 957 987 956
3 958 989 988
3 958 927 989
3 958 988 957
3 926 927 958
3 997 998 999
3 997 999 1005
3 996 1005 1004
3 996 997 1005
3 995 1004 1003
3 995 996 1004
3 994 1003 1002
3 994 995 1003
3 993 1002 1001
3 993 994 1002
3 992 1001 1000
3 992 993 1001
3 991 1000 990
3 991 992 1000
3 1021 1019 1020
3 1034 1007 1006
3 1034 1006 1014
3 1035 1008 1007
3 1035 1007 1034
3 1036 1014 1015
3 1036 1034 1014
3 1037 1009 1008
3 1037 1008 1035
3 1038 1034 1036
3 1038 1035 1034
3 1039 1015 1016
3 1039 1036 1015
3 1040 1010 1009
3 1040 1009 1037
3 1041 1037 1035
3 1041 1035 1038
3 1042 1038 1036
3 1042 1036 1039
3 1043 1011 1010
3 1043 1010 1040
3 1044 1016 1017
3 1044 1039 1016
3 1045 1037 1041
3 1045 1040 1037
3 1046 1038 1042
3 1046 1041 1038
3 1047 1012 1011
3 1047 1013 1012
3 1047 1028 1013
3 1047 1011 1043
3 1048 1039 1044
3 1048 1042 1039
3 1049 1043 1040
3 1049 1040 1045
3 1050 1017 1018
3 1050 1044 1017
3 1051 1045 1041
3 1051 1041 1046
3 1052 1046 1042
3 1052 1042 1048
3 1053 1029 1028
3 1053 1043 1049
3 1053 1028 1047
3 1053 1047 1043
3 1054 1044 1050
3 1054 1048 1044
3 1055 1045 1051
3 1055 1049 1045
3 1056 1018 1019
3 1056 1019 1021
3 1056 1050 1018
3 1057 1051 1046
3 1057 1046 1052
3 1058 1048 1054
3 1058 1052 1048
3 1059 1053 1049
3 1059 1049 1055
3 1059 1030 1029
3 1059 1029 1053
3 1060 1021 1022
3 1060 1056 1021
3 1060 1050 1056
3 1060 1054 1050
3 1061 1055 1051
3 1061 1051 1057
3 1062 1057 1052
3 1062 1052 1058
3 1063 1022 1023
3 1063 1060 1022
3 1063 1054 1060
3 1063 1058 1054
3 1064 1030 1059
3 1064 1031 1030
3 1064 1055 1061
3 1064 1059 1055
3 1065 1057 1062
3 1065 1061 1057
3 1066 1023 1024
3 1066 1063 1023
3 1066 1058 1063
3 1066 1062 1058
3 1067 1032 1031
3 1067 1031 1064
3 1067 1064 1061
3 1067 1061 1065
3 1068 1024 1025
3 1068 1065 1062
3 1068 1066 1024
3 1068 1062 1066
3 1068 1067 1065
3 1069 1025 1026
3 1069 1026 1027
3 1069 1033 1032
3 1069 1027 1033
3 1069 1032 1067
3 1069 1068 1025
3 1069 1067 1068
3 1077 1078 1079
3 1077 1079 1085
3 1076 1085 1084
3 1076 1077 1085
3 1075 1084 1083
3 1075 1076 1084
3 1074 1083 1082
3 1074 1075 1083
3 1073 1082 1081
3 1073 1074 1082
3 1072 1081 1080
3 1072 1073 1081
3 1071 1080 1070
3 1071 1072 1080
