ply
format ascii 1.0
comment generated by blendit.inference.finetune_visualize
element vertex 646
property float x
property float y
property float z
property uchar red
property uchar green
property uchar blue
element face 594
property list uchar int vertex_indices
end_header
0 -1.11022302e-16 0.86395894 218 222 230
0 0 91.0634758 218 222 230
0 0.0216612544 0.67170999 218 222 230
0 0.0855588319 0.489101205 218 222 230
0 0.188488641 0.325289352 218 222 230
0 0.325289352 0.188488641 218 222 230
0 0.489101205 0.0855588319 218 222 230
0 0.67170999 0.0216612544 218 222 230
0 0.86395894 -1.11022302e-16 218 222 230
-1.11022302e-16 52.3653125 0 218 222 230
-1.11022302e-16 52.3653125 91.0634758 218 222 230
0 -1.11022302e-16 0.86395894 218 222 230
0 0 91.0634758 218 222 230
46.4880851 0 91.0634758 218 222 230
46.6803341 0 91.0418145 218 222 230
46.8629429 0 90.977917 218 222 230
47.0267547 0 90.8749872 218 222 230
47.1635554 0 90.7381864 218 222 230
47.2664852 0 90.5743746 218 222 230
47.3303828 0 90.3917658 218 222 230
47.3520441 0 90.1995169 218 222 230
47.3520441 0 2.78664398 218 222 230
40.2207569 0 2.78664398 218 222 230
40.2207569 -1.11022302e-16 0.86395894 218 222 230
12.3807568 0 31.4447624 218 222 230
14.8860349 0 33.0272251 218 222 230
15.0374591 0 33.1486625 218 222 230
15.1579513 0 33.3008399 218 222 230
15.2414296 0 33.476076 218 222 230
15.2836803 0 33.6655258 218 222 230
15.2825707 0 33.8596265 218 222 230
15.238157 0 34.0485808 218 222 230
15.1526809 0 34.2228512 218 222 230
15.0304569 0 34.3736412 218 222 230
14.8776543 0 34.4933395 218 222 230
14.701986 0 34.5759043 218 222 230
10.6391318 0 35.9529892 218 222 230
11.0604843 0 32.0817241 218 222 230
12.2060926 0 31.3602119 218 222 230
12.0169635 0 31.316777 218 222 230
11.822911 0 31.3166489 218 222 230
11.6337248 0 31.3598342 218 222 230
11.4589492 0 31.4441542 218 222 230
11.3074014 0 31.5653551 218 222 230
11.1867268 0 31.7173223 218 222 230
11.1030133 0 31.8923893 218 222 230
29.1931627 0 53.3872557 218 222 230
32.6279343 0 54.254946 218 222 230
33.7298829 0 58.1432981 218 222 230
30.9134454 0 61.0417895 218 222 230
26.9950595 0 60.0519289 218 222 230
25.893111 0 56.1635768 218 222 230
28.3619386 0 53.6228224 218 222 230
29.0143825 0 53.3615651 218 222 230
28.8341677 0 53.3736063 218 222 230
28.6603946 0 53.4228531 218 222 230
28.5006578 0 53.5071533 218 222 230
0 -1.11022302e-16 0.86395894 255 79 163
0 0.0216612544 0.67170999 255 79 163
0 0.0855588319 0.489101205 255 79 163
0 0.188488641 0.325289352 255 79 163
0 0.325289352 0.188488641 255 79 163
0 0.489101205 0.0855588319 255 79 163
0 0.67170999 0.0216612544 255 79 163
0 0.86395894 -1.11022302e-16 255 79 163
39.0773307 0.86395894 -1.11022302e-16 255 79 163
40.2207569 -1.11022302e-16 0.86395894 255 79 163
40.2127877 0.00602148708 0.762133713 255 79 163
40.1889909 0.0240020131 0.661727857 255 79 163
40.1496984 0.0536909422 0.564140959 255 79 163
40.0954579 0.0946744319 0.470733311 255 79 163
40.0012202 0.165879291 0.354930597 255 79 163
39.8679997 0.266539067 0.239847936 255 79 163
39.7100172 0.385908734 0.144311075 255 79 163
39.4694993 0.567641137 0.0524043765 255 79 163
39.2764578 0.713500923 0.0132019622 255 79 163
0 0 91.0634758 218 222 230
46.4880851 0 91.0634758 218 222 230
46.4880851 10.6700054 91.0634758 218 222 230
62.8435649 10.6700054 91.0634758 218 222 230
62.8435649 52.3653125 91.0634758 218 222 230
-1.11022302e-16 52.3653125 91.0634758 218 222 230
32.6637294 26.6146357 0 218 222 230
39.9754422 52.3653125 -1.11022302e-16 218 222 230
-1.11022302e-16 52.3653125 0 218 222 230
0 0.86395894 -1.11022302e-16 218 222 230
39.0773307 0.86395894 -1.11022302e-16 218 222 230
32.2146736 25.0331335 -1.11022302e-16 218 222 230
-1.11022302e-16 52.3653125 0 255 79 163
-1.11022302e-16 52.3653125 91.0634758 255 79 163
0.0121468808 52.5096776 91.0513289 255 79 163
0.0482459638 52.6499832 91.0152298 255 79 163
0.107282175 52.7822841 90.9561936 255 79 163
0.187595467 52.9028602 90.8758803 255 79 163
0.286927503 53.0083209 90.7765483 255 79 163
0.402485152 53.0957008 90.6609906 255 79 163
0.57613119 53.1799169 90.4873446 255 79 163
0.717944652 53.2168434 90.3455311 255 79 163
0.86395894 53.2292715 90.1995169 255 79 163
0.86395894 53.2292715 0.86395894 255 79 163
0.0121468808 52.5096776 0.0121468808 255 79 163
0.0482459638 52.6499832 0.0482459638 255 79 163
0.107282175 52.7822841 0.107282175 255 79 163
0.187595467 52.9028602 0.187595467 255 79 163
0.286927503 53.0083209 0.286927503 255 79 163
0.402485152 53.0957008 0.402485152 255 79 163
0.57613119 53.1799169 0.57613119 255 79 163
0.717944652 53.2168434 0.717944652 255 79 163
40.2207569 -1.11022302e-16 0.86395894 218 222 230
40.2207569 0 2.78664398 218 222 230
32.6637294 26.6146357 2.78664398 218 222 230
32.6637294 26.6146357 0.86395894 218 222 230
46.4880851 10.6700054 91.0634758 255 79 163
46.4880851 0 91.0634758 255 79 163
46.6803341 0 91.0418145 255 79 163
46.8629429 0 90.977917 255 79 163
47.0267547 0 90.8749872 255 79 163
47.1635554 0 90.7381864 255 79 163
47.2664852 0 90.5743746 255 79 163
47.3303828 0 90.3917658 255 79 163
47.3520441 0 90.1995169 255 79 163
47.3520441 9.80604648 90.1995169 255 79 163
46.7116941 10.4463964 91.0340371 255 79 163
46.9200646 10.238026 90.9477272 255 79 163
47.0989963 10.0590942 90.8104281 255 79 163
47.2247312 9.93335933 90.6509342 255 79 163
47.2969877 9.86110288 90.5029995 255 79 163
47.3369564 9.82113417 90.3602734 255 79 163
47.3482639 9.80982667 90.2802483 255 79 163
40.2207569 53.2292715 2.78664398 218 222 230
62.8435649 53.2292715 2.78664398 218 222 230
62.8435649 16.3056105 2.78664398 218 222 230
47.3520441 16.3056105 2.78664398 218 222 230
47.3520441 0 2.78664398 218 222 230
40.2207569 0 2.78664398 218 222 230
32.6637294 26.6146357 2.78664398 218 222 230
40.3044209 35.3078386 2.78664398 218 222 230
41.9636958 35.8099331 2.78664398 218 222 230
40.1379608 35.2377429 2.78664398 218 222 230
39.9897119 35.1345701 2.78664398 218 222 230
39.8661535 35.0028291 2.78664398 218 222 230
39.7726857 34.8482778 2.78664398 218 222 230
39.7133934 34.6776707 2.78664398 218 222 230
39.3185825 32.9896492 2.78664398 218 222 230
39.5688102 32.1627204 2.78664398 218 222 230
39.4507063 32.2993726 2.78664398 218 222 230
39.3635948 32.4575938 2.78664398 218 222 230
39.311283 32.630469 2.78664398 218 222 230
39.2960571 32.8104427 2.78664398 218 222 230
41.1971019 30.6355635 2.78664398 218 222 230
43.8112319 31.4265961 2.78664398 218 222 230
44.3196427 33.6003165 2.78664398 218 222 230
44.0694151 34.4272452 2.78664398 218 222 230
44.187519 34.290593 2.78664398 218 222 230
44.2746304 34.1323718 2.78664398 218 222 230
44.3269422 33.9594966 2.78664398 218 222 230
44.3421681 33.779523 2.78664398 218 222 230
42.8049509 35.6131722 2.78664398 218 222 230
42.141092 35.843888 2.78664398 218 222 230
42.3216714 35.8402181 2.78664398 218 222 230
42.4975416 35.7990839 2.78664398 218 222 230
42.6610163 35.7222831 2.78664398 218 222 230
47.3520441 0 90.1995169 218 222 230
47.3520441 0 2.78664398 218 222 230
47.3520441 16.3056105 2.78664398 218 222 230
47.3520441 9.80842662 90.1354308 218 222 230
47.3520441 9.80604648 90.1995169 218 222 230
47.3520441 9.80631105 90.1781374 218 222 230
47.3520441 9.80710459 90.156771 218 222 230
12.3807568 0 31.4447624 218 222 230
14.8860349 0 33.0272251 218 222 230
12.3807568 17.9116805 31.4447624 218 222 230
14.8860349 17.9116805 33.0272251 218 222 230
12.3807568 0 31.4447624 218 222 230
12.2060926 0 31.3602119 218 222 230
12.0169635 0 31.316777 218 222 230
11.822911 0 31.3166489 218 222 230
11.6337248 0 31.3598342 218 222 230
11.4589492 0 31.4441542 218 222 230
11.3074014 0 31.5653551 218 222 230
11.1867268 0 31.7173223 218 222 230
11.1030133 0 31.8923893 218 222 230
11.0604843 0 32.0817241 218 222 230
11.0604843 17.9116805 32.0817241 218 222 230
12.3807568 17.9116805 31.4447624 218 222 230
12.2060926 17.9116805 31.3602119 218 222 230
12.0169635 17.9116805 31.316777 218 222 230
11.822911 17.9116805 31.3166489 218 222 230
11.6337248 17.9116805 31.3598342 218 222 230
11.4589492 17.9116805 31.4441542 218 222 230
11.3074014 17.9116805 31.5653551 218 222 230
11.1867268 17.9116805 31.7173223 218 222 230
11.1030133 17.9116805 31.8923893 218 222 230
14.8860349 0 33.0272251 218 222 230
14.8860349 17.9116805 33.0272251 218 222 230
15.0374591 17.9116805 33.1486625 218 222 230
15.1579513 17.9116805 33.3008399 218 222 230
15.2414296 17.9116805 33.476076 218 222 230
15.2836803 17.9116805 33.6655258 218 222 230
15.2825707 17.9116805 33.8596265 218 222 230
15.238157 17.9116805 34.0485808 218 222 230
15.1526809 17.9116805 34.2228512 218 222 230
15.0304569 17.9116805 34.3736412 218 222 230
14.8776543 17.9116805 34.4933395 218 222 230
14.701986 17.9116805 34.5759043 218 222 230
14.701986 0 34.5759043 218 222 230
15.0374591 0 33.1486625 218 222 230
15.1579513 0 33.3008399 218 222 230
15.2414296 0 33.476076 218 222 230
15.2836803 0 33.6655258 218 222 230
15.2825707 0 33.8596265 218 222 230
15.238157 0 34.0485808 218 222 230
15.1526809 0 34.2228512 218 222 230
15.0304569 0 34.3736412 218 222 230
14.8776543 0 34.4933395 218 222 230
10.6391318 0 35.9529892 218 222 230
11.0604843 0 32.0817241 218 222 230
10.6391318 17.9116805 35.9529892 218 222 230
11.0604843 17.9116805 32.0817241 218 222 230
14.701986 0 34.5759043 218 222 230
10.6391318 0 35.9529892 218 222 230
14.701986 17.9116805 34.5759043 218 222 230
10.6391318 17.9116805 35.9529892 218 222 230
29.1931627 0 53.3872557 218 222 230
32.6279343 0 54.254946 218 222 230
29.1931627 53.2292715 53.3872557 218 222 230
32.6279343 53.2292715 54.254946 218 222 230
29.1931627 0 53.3872557 218 222 230
29.0143825 0 53.3615651 218 222 230
28.8341677 0 53.3736063 218 222 230
28.6603946 0 53.4228531 218 222 230
28.5006578 0 53.5071533 218 222 230
28.3619386 0 53.6228224 218 222 230
28.3619386 53.2292715 53.6228224 218 222 230
29.1931627 53.2292715 53.3872557 218 222 230
29.0143825 53.2292715 53.3615651 218 222 230
28.8341677 53.2292715 53.3736063 218 222 230
28.6603946 53.2292715 53.4228531 218 222 230
28.5006578 53.2292715 53.5071533 218 222 230
32.6279343 0 54.254946 218 222 230
33.7298829 0 58.1432981 218 222 230
32.6279343 53.2292715 54.254946 218 222 230
33.7298829 53.2292715 58.1432981 218 222 230
25.893111 0 56.1635768 218 222 230
28.3619386 0 53.6228224 218 222 230
25.893111 53.2292715 56.1635768 218 222 230
28.3619386 53.2292715 53.6228224 218 222 230
33.7298829 0 58.1432981 218 222 230
30.9134454 0 61.0417895 218 222 230
33.7298829 53.2292715 58.1432981 218 222 230
30.9134454 53.2292715 61.0417895 218 222 230
26.9950595 0 60.0519289 218 222 230
25.893111 0 56.1635768 218 222 230
26.9950595 53.2292715 60.0519289 218 222 230
25.893111 53.2292715 56.1635768 218 222 230
30.9134454 0 61.0417895 218 222 230
26.9950595 0 60.0519289 218 222 230
30.9134454 53.2292715 61.0417895 218 222 230
26.9950595 53.2292715 60.0519289 218 222 230
39.0773307 0.86395894 -1.11022302e-16 255 79 163
32.2146736 25.0331335 -1.11022302e-16 255 79 163
32.3994665 25.6839444 0.0765439312 255 79 163
32.5265181 26.1313997 0.242300846 255 79 163
32.5985574 26.3851105 0.415698914 255 79 163
32.6361552 26.5175237 0.565875178 255 79 163
32.6541122 26.5807654 0.686112474 255 79 163
32.6613186 26.6061454 0.774555741 255 79 163
32.6637294 26.6146357 0.86395894 255 79 163
40.2207569 -1.11022302e-16 0.86395894 255 79 163
40.2127877 0.00602148708 0.762133713 255 79 163
40.1889909 0.0240020131 0.661727857 255 79 163
40.1496984 0.0536909422 0.564140959 255 79 163
40.0954579 0.0946744319 0.470733311 255 79 163
40.0012202 0.165879291 0.354930597 255 79 163
39.8679997 0.266539067 0.239847936 255 79 163
39.7100172 0.385908734 0.144311075 255 79 163
39.4694993 0.567641137 0.0524043765 255 79 163
39.2764578 0.713500923 0.0132019622 255 79 163
47.3520441 9.80604648 90.1995169 255 79 163
47.3520441 9.80631105 90.1781374 255 79 163
47.3520441 9.80710459 90.156771 255 79 163
47.3520441 9.80842662 90.1354308 255 79 163
62.8435649 9.80842662 90.1354308 255 79 163
62.8435649 10.6700054 91.0634758 255 79 163
62.8435649 10.4688336 91.0397281 255 79 163
62.8435649 10.2787211 90.9697906 255 79 163
62.8435649 10.110119 90.857508 255 79 163
62.8435649 9.97229625 90.7090529 255 79 163
62.8435649 9.87282937 90.5325865 255 79 163
62.8435649 9.81718652 90.3378099 255 79 163
46.4880851 10.6700054 91.0634758 255 79 163
46.7116941 10.4463964 91.0340371 255 79 163
46.9200646 10.238026 90.9477272 255 79 163
47.0989963 10.0590942 90.8104281 255 79 163
47.2247312 9.93335933 90.6509342 255 79 163
47.2969877 9.86110288 90.5029995 255 79 163
47.3369564 9.82113417 90.3602734 255 79 163
47.3482639 9.80982667 90.2802483 255 79 163
-1.11022302e-16 52.3653125 91.0634758 255 79 163
62.8435649 52.3653125 91.0634758 255 79 163
62.8435649 53.2292715 90.1995169 255 79 163
62.8435649 53.2076102 90.3917658 255 79 163
62.8435649 53.1437126 90.5743746 255 79 163
62.8435649 53.0407828 90.7381864 255 79 163
62.8435649 52.9039821 90.8749872 255 79 163
62.8435649 52.7401703 90.977917 255 79 163
62.8435649 52.5575615 91.0418145 255 79 163
0.86395894 53.2292715 90.1995169 255 79 163
0.0121468808 52.5096776 91.0513289 255 79 163
0.0482459638 52.6499832 91.0152298 255 79 163
0.107282175 52.7822841 90.9561936 255 79 163
0.187595467 52.9028602 90.8758803 255 79 163
0.286927503 53.0083209 90.7765483 255 79 163
0.402485152 53.0957008 90.6609906 255 79 163
0.57613119 53.1799169 90.4873446 255 79 163
0.717944652 53.2168434 90.3455311 255 79 163
63.7075239 10.6700054 90.1995169 255 79 163
63.6858626 10.6700054 90.3917658 255 79 163
63.621965 10.6700054 90.5743746 255 79 163
63.5190352 10.6700054 90.7381864 255 79 163
63.3822345 10.6700054 90.8749872 255 79 163
63.2184227 10.6700054 90.977917 255 79 163
63.0358139 10.6700054 91.0418145 255 79 163
62.8435649 10.6700054 91.0634758 255 79 163
63.7075239 52.3653125 90.1995169 255 79 163
63.6858626 52.3653125 90.3917658 255 79 163
63.621965 52.3653125 90.5743746 255 79 163
63.5190352 52.3653125 90.7381864 255 79 163
63.3822345 52.3653125 90.8749872 255 79 163
63.2184227 52.3653125 90.977917 255 79 163
63.0358139 52.3653125 91.0418145 255 79 163
62.8435649 52.3653125 91.0634758 255 79 163
32.6637294 26.6146357 0.86395894 218 222 230
32.6637294 26.6146357 2.78664398 218 222 230
40.2207569 53.2292715 2.78664398 218 222 230
40.2207569 53.2292715 0.86395894 218 222 230
40.2139789 53.2054002 0.662271731 218 222 230
40.1940192 53.1351056 0.471729789 218 222 230
40.161981 53.0222721 0.302862493 218 222 230
40.1196346 52.8731348 0.165001475 218 222 230
40.0693201 52.6959353 0.0657649584 218 222 230
40.0233008 52.5338626 0.0166007288 218 222 230
39.9754422 52.3653125 -1.11022302e-16 218 222 230
32.6637294 26.6146357 0 218 222 230
32.2146736 25.0331335 -1.11022302e-16 218 222 230
32.3994665 25.6839444 0.0765439312 218 222 230
32.5265181 26.1313997 0.242300846 218 222 230
32.5985574 26.3851105 0.415698914 218 222 230
32.6361552 26.5175237 0.565875178 218 222 230
32.6541122 26.5807654 0.686112474 218 222 230
32.6613186 26.6061454 0.774555741 218 222 230
0.86395894 53.2292715 0.86395894 255 79 163
40.2207569 53.2292715 0.86395894 255 79 163
40.2139789 53.2054002 0.662271731 255 79 163
40.1940192 53.1351056 0.471729789 255 79 163
40.161981 53.0222721 0.302862493 255 79 163
40.1196346 52.8731348 0.165001475 255 79 163
40.0693201 52.6959353 0.0657649584 255 79 163
40.0233008 52.5338626 0.0166007288 255 79 163
39.9754422 52.3653125 -1.11022302e-16 255 79 163
-1.11022302e-16 52.3653125 0 255 79 163
0.0121468808 52.5096776 0.0121468808 255 79 163
0.0482459638 52.6499832 0.0482459638 255 79 163
0.107282175 52.7822841 0.107282175 255 79 163
0.187595467 52.9028602 0.187595467 255 79 163
0.286927503 53.0083209 0.286927503 255 79 163
0.402485152 53.0957008 0.402485152 255 79 163
0.57613119 53.1799169 0.57613119 255 79 163
0.717944652 53.2168434 0.717944652 255 79 163
40.2207569 53.2292715 0.86395894 218 222 230
40.2207569 53.2292715 2.78664398 218 222 230
0.86395894 53.2292715 0.86395894 218 222 230
0.86395894 53.2292715 90.1995169 218 222 230
62.8435649 53.2292715 90.1995169 218 222 230
62.8435649 53.2292715 2.78664398 218 222 230
32.6279343 53.2292715 54.254946 218 222 230
29.1931627 53.2292715 53.3872557 218 222 230
33.7298829 53.2292715 58.1432981 218 222 230
30.9134454 53.2292715 61.0417895 218 222 230
26.9950595 53.2292715 60.0519289 218 222 230
25.893111 53.2292715 56.1635768 218 222 230
28.3619386 53.2292715 53.6228224 218 222 230
29.0143825 53.2292715 53.3615651 218 222 230
28.8341677 53.2292715 53.3736063 218 222 230
28.6603946 53.2292715 53.4228531 218 222 230
28.5006578 53.2292715 53.5071533 218 222 230
62.8435649 53.2292715 2.78664398 255 79 163
62.98793 53.2171246 2.79879086 255 79 163
63.1282356 53.1810255 2.83488995 255 79 163
63.2605365 53.1219893 2.89392616 255 79 163
63.3811126 53.041676 2.97423945 255 79 163
63.4865733 52.942344 3.07357148 255 79 163
63.5739532 52.8267863 3.18912913 255 79 163
63.6581693 52.6531403 3.36277517 255 79 163
63.6950958 52.5113268 3.50458863 255 79 163
63.7075239 52.3653125 3.65060292 255 79 163
63.7075239 17.1076931 3.65060292 255 79 163
63.6780852 16.9000988 3.42699389 255 79 163
63.5917753 16.7066518 3.21862345 255 79 163
63.4544762 16.540535 3.0396917 255 79 163
63.2949822 16.4238053 2.91395683 255 79 163
63.1298273 16.3509184 2.83544715 255 79 163
62.9887612 16.3170186 2.79893216 255 79 163
62.8435649 16.3056105 2.78664398 255 79 163
62.8435649 16.3056105 2.78664398 218 222 230
47.3520441 16.3056105 2.78664398 218 222 230
47.3520441 9.80842662 90.1354308 218 222 230
62.8435649 9.80842662 90.1354308 218 222 230
40.3044209 35.3078386 2.78664398 218 222 230
41.9636958 35.8099331 2.78664398 218 222 230
40.3044209 35.3078386 84.8304424 218 222 230
41.9636958 35.8099331 84.8304424 218 222 230
40.3044209 35.3078386 2.78664398 218 222 230
40.1379608 35.2377429 2.78664398 218 222 230
39.9897119 35.1345701 2.78664398 218 222 230
39.8661535 35.0028291 2.78664398 218 222 230
39.7726857 34.8482778 2.78664398 218 222 230
39.7133934 34.6776707 2.78664398 218 222 230
39.7133934 34.6776707 84.8304424 218 222 230
40.3044209 35.3078386 84.8304424 218 222 230
40.1379608 35.2377429 84.8304424 218 222 230
39.9897119 35.1345701 84.8304424 218 222 230
39.8661535 35.0028291 84.8304424 218 222 230
39.7726857 34.8482778 84.8304424 218 222 230
41.9636958 35.8099331 2.78664398 218 222 230
41.9636958 35.8099331 84.8304424 218 222 230
42.141092 35.843888 84.8304424 218 222 230
42.3216714 35.8402181 84.8304424 218 222 230
42.4975416 35.7990839 84.8304424 218 222 230
42.6610163 35.7222831 84.8304424 218 222 230
42.8049509 35.6131722 84.8304424 218 222 230
42.8049509 35.6131722 2.78664398 218 222 230
42.141092 35.843888 2.78664398 218 222 230
42.3216714 35.8402181 2.78664398 218 222 230
42.4975416 35.7990839 2.78664398 218 222 230
42.6610163 35.7222831 2.78664398 218 222 230
39.3185825 32.9896492 2.78664398 218 222 230
39.7133934 34.6776707 2.78664398 218 222 230
39.3185825 32.9896492 84.8304424 218 222 230
39.7133934 34.6776707 84.8304424 218 222 230
42.8049509 35.6131722 2.78664398 218 222 230
44.0694151 34.4272452 2.78664398 218 222 230
42.8049509 35.6131722 84.8304424 218 222 230
44.0694151 34.4272452 84.8304424 218 222 230
39.5688102 32.1627204 2.78664398 218 222 230
39.5688102 32.1627204 84.8304424 218 222 230
39.4507063 32.2993726 84.8304424 218 222 230
39.3635948 32.4575938 84.8304424 218 222 230
39.311283 32.630469 84.8304424 218 222 230
39.2960571 32.8104427 84.8304424 218 222 230
39.3185825 32.9896492 84.8304424 218 222 230
39.3185825 32.9896492 2.78664398 218 222 230
39.4507063 32.2993726 2.78664398 218 222 230
39.3635948 32.4575938 2.78664398 218 222 230
39.311283 32.630469 2.78664398 218 222 230
39.2960571 32.8104427 2.78664398 218 222 230
44.0694151 34.4272452 2.78664398 218 222 230
44.0694151 34.4272452 84.8304424 218 222 230
44.187519 34.290593 84.8304424 218 222 230
44.2746304 34.1323718 84.8304424 218 222 230
44.3269422 33.9594966 84.8304424 218 222 230
44.3421681 33.779523 84.8304424 218 222 230
44.3196427 33.6003165 84.8304424 218 222 230
44.3196427 33.6003165 2.78664398 218 222 230
44.187519 34.290593 2.78664398 218 222 230
44.2746304 34.1323718 2.78664398 218 222 230
44.3269422 33.9594966 2.78664398 218 222 230
44.3421681 33.779523 2.78664398 218 222 230
41.1971019 30.6355635 2.78664398 218 222 230
39.5688102 32.1627204 2.78664398 218 222 230
41.1971019 30.6355635 84.8304424 218 222 230
39.5688102 32.1627204 84.8304424 218 222 230
44.3196427 33.6003165 2.78664398 218 222 230
43.8112319 31.4265961 2.78664398 218 222 230
44.3196427 33.6003165 84.8304424 218 222 230
43.8112319 31.4265961 84.8304424 218 222 230
43.8112319 31.4265961 2.78664398 218 222 230
43.8112319 31.4265961 84.8304424 218 222 230
41.1971019 30.6355635 84.8304424 218 222 230
41.1971019 30.6355635 2.78664398 218 222 230
14.701986 17.9116805 34.5759043 218 222 230
10.6391318 17.9116805 35.9529892 218 222 230
11.0604843 17.9116805 32.0817241 218 222 230
12.3807568 17.9116805 31.4447624 218 222 230
12.2060926 17.9116805 31.3602119 218 222 230
12.0169635 17.9116805 31.316777 218 222 230
11.822911 17.9116805 31.3166489 218 222 230
11.6337248 17.9116805 31.3598342 218 222 230
11.4589492 17.9116805 31.4441542 218 222 230
11.3074014 17.9116805 31.5653551 218 222 230
11.1867268 17.9116805 31.7173223 218 222 230
11.1030133 17.9116805 31.8923893 218 222 230
14.8860349 17.9116805 33.0272251 218 222 230
15.0374591 17.9116805 33.1486625 218 222 230
15.1579513 17.9116805 33.3008399 218 222 230
15.2414296 17.9116805 33.476076 218 222 230
15.2836803 17.9116805 33.6655258 218 222 230
15.2825707 17.9116805 33.8596265 218 222 230
15.238157 17.9116805 34.0485808 218 222 230
15.1526809 17.9116805 34.2228512 218 222 230
15.0304569 17.9116805 34.3736412 218 222 230
14.8776543 17.9116805 34.4933395 218 222 230
62.8435649 10.6700054 91.0634758 255 79 163
62.8435649 10.4688336 91.0397281 255 79 163
62.8435649 10.2787211 90.9697906 255 79 163
62.8435649 10.110119 90.857508 255 79 163
62.8435649 9.97229625 90.7090529 255 79 163
62.8435649 9.87282937 90.5325865 255 79 163
62.8435649 9.81718652 90.3378099 255 79 163
62.8435649 9.80842662 90.1354308 255 79 163
63.7075239 10.6700054 90.1995169 255 79 163
63.6858626 10.4782861 90.1852564 255 79 163
63.621965 10.2961804 90.171711 255 79 163
63.5190352 10.1328198 90.1595599 255 79 163
63.3822345 9.99639599 90.1494124 255 79 163
63.2184227 9.89374974 90.1417773 255 79 163
63.0358139 9.8300282 90.1370376 255 79 163
63.7075239 10.6700054 90.1995169 255 79 163
63.6858626 10.6700054 90.3917658 255 79 163
63.621965 10.6700054 90.5743746 255 79 163
63.5190352 10.6700054 90.7381864 255 79 163
63.3822345 10.6700054 90.8749872 255 79 163
63.2184227 10.6700054 90.977917 255 79 163
63.0358139 10.6700054 91.0418145 255 79 163
63.6652387 10.4041142 90.2235813 255 79 163
63.6652387 10.4261511 90.3082012 255 79 163
63.6652387 10.4743471 90.3811623 255 79 163
63.5425224 10.1785741 90.3274962 255 79 163
63.6652387 10.543532 90.4346375 255 79 163
63.5425224 10.2462836 90.4794156 255 79 163
63.3513873 9.97389311 90.2625183 255 79 163
63.6652387 10.6262842 90.4628906 255 79 163
63.5425224 10.3594473 90.6013093 255 79 163
63.3513873 10.0315864 90.4840563 255 79 163
63.5425224 10.5059256 90.6801012 255 79 163
63.3513873 10.1577652 90.6750707 255 79 163
63.1105429 9.87485276 90.4065918 255 79 163
63.3513873 10.3388938 90.8150708 255 79 163
63.1105429 9.98440909 90.6524026 255 79 163
63.3513873 10.5555419 90.8890382 255 79 163
63.1105429 10.1675118 90.8496306 255 79 163
63.1105429 10.4045188 90.9771187 255 79 163
62.8435649 53.2292715 90.1995169 255 79 163
62.8435649 53.2076102 90.3917658 255 79 163
62.8435649 53.1437126 90.5743746 255 79 163
62.8435649 53.0407828 90.7381864 255 79 163
62.8435649 52.9039821 90.8749872 255 79 163
62.8435649 52.7401703 90.977917 255 79 163
62.8435649 52.5575615 91.0418145 255 79 163
62.8435649 52.3653125 91.0634758 255 79 163
63.7075239 52.3653125 90.1995169 255 79 163
63.6858626 52.3653125 90.3917658 255 79 163
63.621965 52.3653125 90.5743746 255 79 163
63.5190352 52.3653125 90.7381864 255 79 163
63.3822345 52.3653125 90.8749872 255 79 163
63.2184227 52.3653125 90.977917 255 79 163
63.0358139 52.3653125 91.0418145 255 79 163
63.7075239 52.3653125 90.1995169 255 79 163
63.6858626 52.5575615 90.1995169 255 79 163
63.621965 52.7401703 90.1995169 255 79 163
63.5190352 52.9039821 90.1995169 255 79 163
63.3822345 53.0407828 90.1995169 255 79 163
63.2184227 53.1437126 90.1995169 255 79 163
63.0358139 53.2076102 90.1995169 255 79 163
63.6652387 52.4070771 90.4632079 255 79 163
63.6652387 52.486518 90.437396 255 79 163
63.6652387 52.5540945 90.3882988 255 79 163
63.5425224 52.5222383 90.6824846 255 79 163
63.6652387 52.6031917 90.3207223 255 79 163
63.5425224 52.663803 90.6103537 255 79 163
63.3513873 52.4746536 90.889869 255 79 163
63.6652387 52.6290036 90.2412814 255 79 163
63.5425224 52.7761494 90.4980073 255 79 163
63.3513873 52.6826326 90.8222925 255 79 163
63.5425224 52.8482803 90.3564426 255 79 163
63.3513873 52.8595501 90.6937544 255 79 163
63.1105429 52.6192237 90.9809751 255 79 163
63.3513873 52.9880882 90.5168369 255 79 163
63.1105429 52.8482803 90.8642649 255 79 163
63.3513873 53.0556647 90.3088579 255 79 163
63.1105429 53.0300606 90.6824846 255 79 163
63.1105429 53.1467707 90.453428 255 79 163
63.7075239 17.1076931 3.65060292 218 222 230
63.7075239 10.6700054 90.1995169 218 222 230
63.7075239 52.3653125 3.65060292 218 222 230
63.7075239 52.3653125 90.1995169 218 222 230
62.8435649 53.2292715 2.78664398 255 79 163
62.8435649 53.2292715 90.1995169 255 79 163
63.7075239 52.3653125 90.1995169 255 79 163
63.6858626 52.5575615 90.1995169 255 79 163
63.621965 52.7401703 90.1995169 255 79 163
63.5190352 52.9039821 90.1995169 255 79 163
63.3822345 53.0407828 90.1995169 255 79 163
63.2184227 53.1437126 90.1995169 255 79 163
63.0358139 53.2076102 90.1995169 255 79 163
63.7075239 52.3653125 3.65060292 255 79 163
62.98793 53.2171246 2.79879086 255 79 163
63.1282356 53.1810255 2.83488995 255 79 163
63.2605365 53.1219893 2.89392616 255 79 163
63.3811126 53.041676 2.97423945 255 79 163
63.4865733 52.942344 3.07357148 255 79 163
63.5739532 52.8267863 3.18912913 255 79 163
63.6581693 52.6531403 3.36277517 255 79 163
63.6950958 52.5113268 3.50458863 255 79 163
63.7075239 17.1076931 3.65060292 255 79 163
63.7075239 10.6700054 90.1995169 255 79 163
63.6858626 10.4782861 90.1852564 255 79 163
63.621965 10.2961804 90.171711 255 79 163
63.5190352 10.1328198 90.1595599 255 79 163
63.3822345 9.99639599 90.1494124 255 79 163
63.2184227 9.89374974 90.1417773 255 79 163
63.0358139 9.8300282 90.1370376 255 79 163
62.8435649 9.80842662 90.1354308 255 79 163
62.8435649 16.3056105 2.78664398 255 79 163
63.6780852 16.9000988 3.42699389 255 79 163
63.5917753 16.7066518 3.21862345 255 79 163
63.4544762 16.540535 3.0396917 255 79 163
63.2949822 16.4238053 2.91395683 255 79 163
63.1298273 16.3509184 2.83544715 255 79 163
62.9887612 16.3170186 2.79893216 255 79 163
40.3044209 35.3078386 84.8304424 218 222 230
41.9636958 35.8099331 84.8304424 218 222 230
42.141092 35.843888 84.8304424 218 222 230
42.3216714 35.8402181 84.8304424 218 222 230
42.4975416 35.7990839 84.8304424 218 222 230
42.6610163 35.7222831 84.8304424 218 222 230
42.8049509 35.6131722 84.8304424 218 222 230
44.0694151 34.4272452 84.8304424 218 222 230
44.187519 34.290593 84.8304424 218 222 230
44.2746304 34.1323718 84.8304424 218 222 230
44.3269422 33.9594966 84.8304424 218 222 230
44.3421681 33.779523 84.8304424 218 222 230
44.3196427 33.6003165 84.8304424 218 222 230
43.8112319 31.4265961 84.8304424 218 222 230
41.1971019 30.6355635 84.8304424 218 222 230
39.5688102 32.1627204 84.8304424 218 222 230
39.4507063 32.2993726 84.8304424 218 222 230
39.3635948 32.4575938 84.8304424 218 222 230
39.311283 32.630469 84.8304424 218 222 230
39.2960571 32.8104427 84.8304424 218 222 230
39.3185825 32.9896492 84.8304424 218 222 230
39.7133934 34.6776707 84.8304424 218 222 230
40.1379608 35.2377429 84.8304424 218 222 230
39.9897119 35.1345701 84.8304424 218 222 230
39.8661535 35.0028291 84.8304424 218 222 230
39.7726857 34.8482778 84.8304424 218 222 230
3 4 6 5
3 4 7 6
3 3 7 4
3 2 8 7
3 2 7 3
3 0 9 8
3 0 8 2
3 10 9 0
3 1 10 0
3 42 43 11
3 44 11 43
3 41 42 11
3 45 11 44
3 22 11 23
3 40 41 11
3 37 11 45
3 39 40 11
3 38 11 22
3 38 39 11
3 24 38 22
3 36 11 37
3 25 24 22
3 26 25 22
3 27 26 22
3 28 27 22
3 29 28 22
3 52 35 34
3 56 34 33
3 56 52 34
3 51 35 52
3 51 36 35
3 55 56 33
3 55 33 32
3 54 55 32
3 54 32 31
3 53 54 31
3 53 31 30
3 46 53 30
3 46 30 29
3 47 22 21
3 47 46 29
3 47 29 22
3 12 51 50
3 12 11 36
3 12 36 51
3 49 12 50
3 20 49 48
3 13 12 49
3 13 49 20
3 18 20 19
3 16 14 13
3 16 15 14
3 17 13 20
3 17 20 18
3 17 16 13
3 20 48 21
3 48 47 21
3 67 57 58
3 67 66 57
3 68 67 58
3 69 58 59
3 69 68 58
3 70 69 59
3 71 59 60
3 71 70 59
3 72 60 61
3 72 71 60
3 73 61 62
3 73 72 61
3 74 62 63
3 74 73 62
3 75 63 64
3 75 74 63
3 65 75 64
3 78 76 77
3 78 81 76
3 80 78 79
3 80 81 78
3 87 85 84
3 87 86 85
3 82 87 84
3 83 82 84
3 97 98 99
3 97 99 107
3 96 107 106
3 96 97 107
3 95 106 105
3 95 96 106
3 94 105 104
3 94 95 105
3 93 104 103
3 93 94 104
3 92 103 102
3 92 93 103
3 91 102 101
3 91 92 102
3 90 101 100
3 90 91 101
3 89 100 88
3 89 90 100
3 111 109 108
3 111 110 109
3 120 121 128
3 119 127 126
3 119 128 127
3 119 120 128
3 118 126 125
3 118 119 126
3 117 125 124
3 117 118 125
3 116 124 123
3 116 117 124
3 115 123 122
3 115 116 123
3 114 122 112
3 114 115 122
3 113 114 112
3 132 133 134
3 150 131 132
3 151 131 150
3 156 131 151
3 149 150 132
3 130 153 152
3 130 154 153
3 130 155 154
3 130 156 155
3 130 131 156
3 157 130 152
3 135 145 144
3 135 146 145
3 135 147 146
3 135 148 147
3 135 143 148
3 135 144 149
3 135 132 134
3 135 149 132
3 142 143 135
3 141 142 135
3 129 137 136
3 129 136 138
3 129 138 139
3 129 139 140
3 129 140 141
3 129 158 137
3 129 159 158
3 129 160 159
3 129 161 160
3 129 157 161
3 129 130 157
3 129 141 135
3 165 163 164
3 162 167 166
3 162 168 167
3 162 165 168
3 162 163 165
3 170 171 169
3 170 172 171
3 185 174 173
3 185 173 184
3 186 175 174
3 186 176 175
3 186 174 185
3 187 176 186
3 188 177 176
3 188 176 187
3 189 178 177
3 189 179 178
3 189 177 188
3 190 179 189
3 191 180 179
3 191 181 180
3 191 179 190
3 192 181 191
3 183 182 181
3 183 181 192
3 204 214 205
3 203 214 204
3 202 212 213
3 202 213 214
3 202 214 203
3 201 212 202
3 200 211 212
3 200 212 201
3 199 209 210
3 199 210 211
3 199 211 200
3 198 209 199
3 197 207 208
3 197 208 209
3 197 209 198
3 196 207 197
3 195 206 207
3 195 207 196
3 194 193 206
3 194 206 195
3 216 217 215
3 216 218 217
3 220 221 219
3 220 222 221
3 224 225 223
3 224 226 225
3 235 228 227
3 235 227 234
3 236 229 228
3 236 230 229
3 236 228 235
3 237 230 236
3 238 231 230
3 238 232 231
3 238 230 237
3 233 232 238
3 240 241 239
3 240 242 241
3 244 245 243
3 244 246 245
3 248 249 247
3 248 250 249
3 252 253 251
3 252 254 253
3 256 257 255
3 256 258 257
3 266 267 268
3 266 268 269
3 265 269 270
3 265 266 269
3 264 270 271
3 264 271 272
3 264 265 270
3 263 272 273
3 263 264 272
3 262 273 274
3 262 274 275
3 262 263 273
3 261 275 276
3 261 276 277
3 261 262 275
3 260 277 259
3 260 261 277
3 280 281 282
3 279 280 282
3 278 282 289
3 278 279 282
3 297 278 289
3 296 297 289
3 295 289 288
3 295 296 289
3 294 288 287
3 294 295 288
3 293 287 286
3 293 294 287
3 292 286 285
3 292 293 286
3 291 285 284
3 291 292 285
3 290 284 283
3 290 291 284
3 300 307 315
3 301 315 314
3 301 300 315
3 302 314 313
3 302 301 314
3 303 313 312
3 303 302 313
3 304 311 310
3 304 312 311
3 304 303 312
3 305 310 309
3 305 304 310
3 306 309 308
3 306 305 309
3 299 308 298
3 299 306 308
3 331 323 322
3 330 331 322
3 329 322 321
3 329 330 322
3 328 321 320
3 328 329 321
3 327 320 319
3 327 328 320
3 326 319 318
3 326 327 319
3 325 317 316
3 325 318 317
3 325 326 318
3 324 325 316
3 343 345 344
3 343 346 345
3 343 347 346
3 343 348 347
3 343 349 348
3 343 350 349
3 343 332 350
3 342 333 332
3 342 334 333
3 342 332 343
3 335 334 342
3 341 335 342
3 340 335 341
3 337 336 335
3 339 335 340
3 338 337 335
3 338 335 339
3 359 360 361
3 358 361 362
3 358 359 361
3 357 362 363
3 357 358 362
3 356 363 364
3 356 357 363
3 355 364 365
3 355 365 366
3 355 356 364
3 354 366 367
3 354 355 366
3 353 367 368
3 353 354 367
3 352 368 351
3 352 353 368
3 370 369 371
3 385 371 381
3 380 381 371
3 384 370 371
3 384 371 385
3 383 370 384
3 382 370 383
3 376 370 382
3 375 374 370
3 375 370 376
3 372 379 380
3 372 380 371
3 377 374 375
3 378 379 372
3 373 377 378
3 373 374 377
3 373 378 372
3 403 386 387
3 402 387 388
3 402 403 387
3 401 388 389
3 401 402 388
3 400 389 390
3 400 401 389
3 399 390 391
3 399 400 390
3 398 391 392
3 398 392 393
3 398 399 391
3 397 393 394
3 397 398 393
3 396 394 395
3 396 397 394
3 406 405 404
3 407 406 404
3 409 410 408
3 409 411 410
3 420 413 412
3 420 412 419
3 421 414 413
3 421 415 414
3 421 413 420
3 422 415 421
3 423 416 415
3 423 415 422
3 418 417 416
3 418 416 423
3 429 431 430
3 429 434 435
3 429 435 431
3 428 434 429
3 427 433 434
3 427 434 428
3 426 432 433
3 426 433 427
3 425 424 432
3 425 432 426
3 437 438 436
3 437 439 438
3 441 442 440
3 441 443 442
3 449 451 450
3 449 455 451
3 448 454 455
3 448 455 449
3 447 452 453
3 447 453 454
3 447 454 448
3 446 452 447
3 445 444 452
3 445 452 446
3 461 463 462
3 461 466 467
3 461 467 463
3 460 465 466
3 460 466 461
3 459 464 465
3 459 465 460
3 458 464 459
3 457 456 464
3 457 464 458
3 469 470 468
3 469 471 470
3 473 474 472
3 473 475 474
3 479 477 476
3 479 478 477
3 490 482 491
3 489 482 490
3 480 481 482
3 487 489 488
3 487 482 489
3 484 486 485
3 484 487 486
3 484 482 487
3 499 500 501
3 499 501 480
3 483 480 482
3 483 482 484
3 498 499 480
3 494 495 496
3 492 480 483
3 493 496 497
3 493 497 498
3 493 498 480
3 493 494 496
3 493 480 492
3 508 509 516
3 502 503 523
3 524 512 511
3 525 511 510
3 525 524 511
3 526 510 517
3 526 525 510
3 527 513 512
3 527 524 525
3 527 512 524
3 528 517 518
3 528 526 517
3 529 525 526
3 529 527 525
3 530 514 513
3 530 515 514
3 530 513 527
3 531 518 519
3 531 528 518
3 532 529 526
3 532 526 528
3 533 530 527
3 533 527 529
3 534 519 520
3 534 532 528
3 534 528 531
3 534 531 519
3 535 529 532
3 535 533 529
3 536 507 508
3 536 516 515
3 536 515 530
3 536 508 516
3 536 530 533
3 537 532 534
3 537 535 532
3 538 505 506
3 538 506 507
3 538 507 536
3 538 533 535
3 538 536 533
3 539 520 521
3 539 521 522
3 539 534 520
3 539 537 534
3 540 504 505
3 540 505 538
3 540 535 537
3 540 538 535
3 541 503 504
3 541 522 523
3 541 504 540
3 541 523 503
3 541 539 522
3 541 537 539
3 541 540 537
3 548 549 556
3 542 543 563
3 564 552 551
3 565 551 550
3 565 564 551
3 566 550 557
3 566 565 550
3 567 553 552
3 567 564 565
3 567 552 564
3 568 557 558
3 568 566 557
3 569 565 566
3 569 567 565
3 570 554 553
3 570 555 554
3 570 553 567
3 571 558 559
3 571 568 558
3 572 569 566
3 572 566 568
3 573 567 569
3 573 570 567
3 574 559 560
3 574 572 568
3 574 571 559
3 574 568 571
3 575 569 572
3 575 573 569
3 576 547 548
3 576 556 555
3 576 555 570
3 576 570 573
3 576 548 556
3 577 572 574
3 577 575 572
3 578 546 547
3 578 547 576
3 578 573 575
3 578 576 573
3 579 560 561
3 579 561 562
3 579 574 560
3 579 577 574
3 580 544 545
3 580 545 546
3 580 546 578
3 580 575 577
3 580 578 575
3 581 543 544
3 581 562 563
3 581 563 543
3 581 544 580
3 581 579 562
3 581 577 579
3 581 580 577
3 585 582 584
3 583 582 585
3 588 595 603
3 589 603 602
3 589 588 603
3 590 602 601
3 590 589 602
3 591 601 600
3 591 590 601
3 592 599 598
3 592 600 599
3 592 591 600
3 593 598 597
3 593 592 598
3 594 597 596
3 594 593 597
3 587 596 586
3 587 594 596
3 612 613 619
3 611 619 618
3 611 612 619
3 610 618 617
3 610 611 618
3 609 617 616
3 609 610 617
3 608 616 615
3 608 609 616
3 607 615 614
3 607 608 615
3 606 614 604
3 606 607 614
3 605 606 604
3 629 630 631
3 627 628 629
3 627 631 632
3 627 629 631
3 635 632 633
3 635 633 634
3 635 627 632
3 637 635 636
3 639 637 638
3 639 635 637
3 640 635 639
3 621 622 623
3 621 623 624
3 621 624 625
3 621 625 626
3 621 626 627
3 621 627 635
3 641 635 640
3 620 621 635
3 620 635 641
3 644 641 645
3 644 620 641
3 643 642 620
3 643 620 644
