ply
format ascii 1.0
comment generated by blendit.inference.finetune_visualize
element vertex 813
property float x
property float y
property float z
property uchar red
property uchar green
property uchar blue
element face 1061
property list uchar int vertex_indices
end_header
-1.11022302e-16 0 0.887431842 218 222 230
0 -1.11022302e-16 29.5004895 218 222 230
-1.11022302e-16 80.0347401 0.887431842 218 222 230
0 80.0347401 27.5176878 218 222 230
-5.55111512e-17 0.874338187 29.8594579 218 222 230
-1.08042916e-16 15.9478949 29.5702215 218 222 230
-1.85178263e-16 36.0459706 28.8910665 218 222 230
-2.17436312e-16 58.0403553 28.067847 218 222 230
-2.21575594e-16 69.7657847 27.7172149 218 222 230
0 0.396567001 29.8741543 218 222 230
0 0.279770929 29.8489371 218 222 230
0 0.197362446 29.8136901 218 222 230
0 0.117349812 29.7572437 218 222 230
0 0.0579282064 29.6887878 218 222 230
0 0.0228913895 29.6218173 218 222 230
0 0.00578017022 29.5622208 218 222 230
80.3721473 -2.22044605e-16 0.790047894 218 222 230
80.3721473 0 22.6192367 218 222 230
0.00535948621 -2.22044605e-16 0.790047894 218 222 230
0.00238332778 0 0.822436445 218 222 230
0.000596032104 0 0.854912302 218 222 230
-1.11022302e-16 0 0.887431842 218 222 230
0 -1.11022302e-16 29.5004895 218 222 230
26.1761393 -1.11022302e-16 29.5004895 218 222 230
26.1761393 0 22.6192367 218 222 230
0.00535948621 -2.22044605e-16 0.790047894 255 79 163
0.00238332778 0 0.822436445 255 79 163
0.000596032104 0 0.854912302 255 79 163
-1.11022302e-16 0 0.887431842 255 79 163
-1.11022302e-16 80.0347401 0.887431842 255 79 163
0.0222497691 80.0347401 0.68995968 255 79 163
0.08788338 80.0347401 0.502389596 255 79 163
0.193609689 80.0347401 0.334127139 255 79 163
0.334127139 80.0347401 0.193609689 255 79 163
0.502389596 80.0347401 0.08788338 255 79 163
0.68995968 80.0347401 0.0222497691 255 79 163
0.887431842 80.0347401 -1.11022302e-16 255 79 163
0.887431842 0.790047894 -2.22044605e-16 255 79 163
0.609635673 0.528353505 0.0446005648 255 79 163
0.373902978 0.308557312 0.163675403 255 79 163
0.206119497 0.155937776 0.318794193 255 79 163
0.106289236 0.0693791886 0.466300631 255 79 163
0.0447232651 0.0209622409 0.609263677 255 79 163
0.0204020856 0.00535276836 0.698237032 255 79 163
0 -1.11022302e-16 29.5004895 255 79 163
0.0858949756 0.0297699854 29.7268053 255 79 163
0.171789951 0.117136641 29.9376625 255 79 163
0.257684927 0.256105603 30.1187221 255 79 163
0.343579902 0.437165234 30.2576911 255 79 163
0.429474878 0.648022391 30.3450577 255 79 163
0.515369853 0.874338187 30.3748277 255 79 163
0 -1.11022302e-16 29.5004895 255 79 163
-5.55111512e-17 0.874338187 29.8594579 255 79 163
0 0.396567001 29.8741543 255 79 163
0 0.279770929 29.8489371 255 79 163
0 0.197362446 29.8136901 255 79 163
0 0.117349812 29.7572437 255 79 163
0 0.0579282064 29.6887878 255 79 163
0 0.0228913895 29.6218173 255 79 163
0 0.00578017022 29.5622208 255 79 163
0.389592692 0.874338187 30.359244 255 79 163
0.275581111 0.874338187 30.3156458 255 79 163
0.181251616 0.874338187 30.2518494 255 79 163
0.102625722 0.874338187 30.1680812 255 79 163
0.0452496401 0.874338187 30.0706286 255 79 163
0.0114085848 0.874338187 29.9672963 255 79 163
0.00275434092 0.874338187 29.912669 255 79 163
-0.023924843 0.169266774 29.9961475 255 79 163
0.0102766763 0.711810466 30.0802468 255 79 163
0.0474514989 0.577134984 30.2491651 255 79 163
0.0716753541 0.560951555 30.2606112 255 79 163
0.100544107 0.546381056 30.2677524 255 79 163
0.00865456684 0.00870808466 29.5251973 255 79 163
0.0276963467 0.014732468 29.6624837 255 79 163
0.031084877 0.02235229 29.6855731 255 79 163
0.0227593363 0.0370533506 29.7264529 255 79 163
0.00566211158 0.0607784665 29.7766094 255 79 163
-0.0382461141 0.1342081 29.9010605 255 79 163
-0.0601308553 0.181285078 29.9958057 255 79 163
-0.0539245712 0.180925954 29.9271113 255 79 163
-0.0710510457 0.202074901 29.972029 255 79 163
-0.0413930664 0.145403259 29.8870294 255 79 163
-0.0680614533 0.27572337 29.9701925 255 79 163
-0.0555803323 0.53307065 30.0334587 255 79 163
-0.114253101 0.338573065 30.152969 255 79 163
-0.0666837189 0.531973143 30.1474773 255 79 163
-0.0979142697 0.444587973 30.17438 255 79 163
-0.0962603515 0.432869393 30.1897969 255 79 163
-0.059143955 0.477212477 30.2195842 255 79 163
-0.0246228803 0.33596465 30.1902806 255 79 163
0.00458930746 0.00916774464 29.6247572 255 79 163
0.000306839182 0.0141239651 29.6549562 255 79 163
-0.00263273089 0.0339094946 29.7039573 255 79 163
-0.00455060144 0.0300250407 29.6926212 255 79 163
-0.00280860646 0.0426368073 29.7206996 255 79 163
-0.00591078798 0.0563831086 29.740728 255 79 163
-0.0140350312 0.0832074594 29.7825616 255 79 163
-0.02955002 0.122164277 29.8388197 255 79 163
-0.0624424545 0.17922803 29.9664769 255 79 163
-0.0811823739 0.222572391 29.9988342 255 79 163
-0.0912305062 0.386017511 30.2016205 255 79 163
-0.0665162465 0.346003935 30.1952036 255 79 163
-0.0898477727 0.336330255 30.1820639 255 79 163
-0.0967800508 0.340068505 30.1800129 255 79 163
-0.0662043796 0.404286078 30.2189947 255 79 163
-0.0587323777 0.400734582 30.2205453 255 79 163
-0.046679221 0.340599561 30.1937705 255 79 163
-0.00118522037 0.0148386211 29.6267693 255 79 163
-0.00390302541 0.0171130067 29.6424021 255 79 163
-0.00729507524 0.0335142093 29.6787068 255 79 163
-0.00682100738 0.0424635446 29.6948459 255 79 163
-0.00684660478 0.0440629668 29.701426 255 79 163
-0.00664184131 0.0485263468 29.7095252 255 79 163
-0.00735822685 0.070895275 29.7825261 255 79 163
-0.0175905493 0.0895110976 29.8129491 255 79 163
-0.0661528744 0.191202139 30.0100951 255 79 163
-0.103748218 0.273122334 30.1073464 255 79 163
-0.00606584002 0.0229303413 29.6692163 255 79 163
-0.0173392558 0.100460665 29.7930173 255 79 163
-0.0851404167 0.303414075 30.1597576 255 79 163
-0.0761755622 0.300381131 30.1599248 255 79 163
0.00562620327 0.0170341261 29.6706603 255 79 163
79.2365527 80.0347401 17.7857808 218 222 230
26.1761393 80.0347401 17.7857808 218 222 230
79.4601857 80.0347401 0 218 222 230
0.887431842 80.0347401 -1.11022302e-16 218 222 230
-1.11022302e-16 80.0347401 0.887431842 218 222 230
0.0222497691 80.0347401 0.68995968 218 222 230
0.08788338 80.0347401 0.502389596 218 222 230
0.193609689 80.0347401 0.334127139 218 222 230
0.334127139 80.0347401 0.193609689 218 222 230
0.502389596 80.0347401 0.08788338 218 222 230
0.68995968 80.0347401 0.0222497691 218 222 230
0 80.0347401 27.5176878 218 222 230
0.0745869264 80.0347401 28.1662611 218 222 230
0.314856679 80.0347401 28.8215453 218 222 230
0.677058868 80.0347401 29.3644404 218 222 230
0.951836064 80.0347401 29.6467876 218 222 230
1.30440624 80.0347401 29.9160762 218 222 230
1.68788825 80.0347401 30.1246207 218 222 230
2.08720216 80.0347401 30.2691319 218 222 230
2.47742565 80.0347401 30.3494833 218 222 230
2.8571399 80.0347401 30.3748277 218 222 230
26.1761393 80.0347401 30.3748277 218 222 230
0.515369853 0.874338187 30.3748277 255 79 163
0.389592692 0.874338187 30.359244 255 79 163
0.275581111 0.874338187 30.3156458 255 79 163
0.181251616 0.874338187 30.2518494 255 79 163
0.102625722 0.874338187 30.1680812 255 79 163
0.0452496401 0.874338187 30.0706286 255 79 163
0.0114085848 0.874338187 29.9672963 255 79 163
0.00275434092 0.874338187 29.912669 255 79 163
-5.55111512e-17 0.874338187 29.8594579 255 79 163
0.804606182 15.9478949 30.3748277 255 79 163
1.48376117 36.0459706 30.3748277 255 79 163
2.3069807 58.0403553 30.3748277 255 79 163
2.65761281 69.7657847 30.3748277 255 79 163
2.8571399 80.0347401 30.3748277 255 79 163
0 80.0347401 27.5176878 255 79 163
0.0745869264 80.0347401 28.1662611 255 79 163
0.314856679 80.0347401 28.8215453 255 79 163
0.677058868 80.0347401 29.3644404 255 79 163
0.951836064 80.0347401 29.6467876 255 79 163
1.30440624 80.0347401 29.9160762 255 79 163
1.68788825 80.0347401 30.1246207 255 79 163
2.08720216 80.0347401 30.2691319 255 79 163
2.47742565 80.0347401 30.3494833 255 79 163
-1.08042916e-16 15.9478949 29.5702215 255 79 163
-1.85178263e-16 36.0459706 28.8910665 255 79 163
-2.17436312e-16 58.0403553 28.067847 255 79 163
-2.21575594e-16 69.7657847 27.7172149 255 79 163
0.0533806546 8.41111656 30.0006927 255 79 163
0.212150725 10.923376 30.1883404 255 79 163
0.235663695 15.9478949 30.139164 255 79 163
0.156415623 74.9002624 28.5204122 255 79 163
2.01526703 74.9002624 30.2694183 255 79 163
0.202720692 76.6117549 28.617378 255 79 163
1.6500341 76.6117549 30.1262628 255 79 163
0.263973659 4.64272737 30.289167 255 79 163
0.460092227 19.2975742 30.2598047 255 79 163
0.376358937 18.1810145 30.2224179 255 79 163
0.601386364 20.9724139 30.308007 255 79 163
0.630934472 29.346612 30.2170941 255 79 163
0.327116827 25.9969328 30.0477109 255 79 163
0.420511136 21.5306937 30.2045381 255 79 163
0.128373446 22.6472535 29.8613339 255 79 163
0.224053708 30.4631718 29.8215522 255 79 163
0.0909703901 31.0214517 29.5560942 255 79 163
0.173412016 32.6962913 29.6811797 255 79 163
0.245847026 33.8128511 29.7677361 255 79 163
0.207492966 39.7117014 29.5448559 255 79 163
0.27712119 38.4897911 29.690508 255 79 163
0.119014738 41.5445668 29.3036951 255 79 163
0.053395342 43.3774322 29.0399442 255 79 163
0.261199447 50.7088938 29.3300299 255 79 163
0.558416562 47.043163 29.8164112 255 79 163
0.301960994 42.1555219 29.6291689 255 79 163
1.18159261 49.4869835 30.2000359 255 79 163
0.902271145 43.3774322 30.1492599 255 79 163
1.33485659 52.5417591 30.2265103 255 79 163
0.906763426 51.930804 30.007626 255 79 163
1.11328788 54.3746245 30.0965057 255 79 163
0.194306981 55.5965348 29.0613125 255 79 163
1.38947285 59.3431808 30.1692844 255 79 163
1.45779331 58.0403553 30.2128507 255 79 163
1.79334334 59.9945936 30.303094 255 79 163
0.0736362177 61.9488318 28.5339223 255 79 163
0.168795069 60.9717127 28.8556721 255 79 163
0.424219493 61.297419 29.3272653 255 79 163
0.214709237 62.6002445 28.9233933 255 79 163
0.326092654 65.8573082 29.0704571 255 79 163
0.730907611 63.90307 29.6439201 255 79 163
1.49777875 65.2058955 30.1532628 255 79 163
1.24430019 61.9488318 30.0637527 255 79 163
1.92977786 65.8573082 30.2976366 255 79 163
0.0788279501 67.8115464 28.404129 255 79 163
1.63048808 66.8344273 30.1936624 255 79 163
1.11553171 66.508721 29.9230835 255 79 163
0.229450572 68.4629592 28.8237418 255 79 163
0.18659551 69.7657847 28.6954681 255 79 163
0.184069194 72.6182723 28.6344495 255 79 163
0.837833083 73.1887698 29.6085137 255 79 163
0.198406541 71.4772772 28.6915425 255 79 163
1.82285295 72.6182723 30.2211947 255 79 163
1.72774332 71.4772772 30.1940222 255 79 163
0.857399424 74.3297648 29.61361 255 79 163
0.222766673 74.9002624 28.6911984 255 79 163
1.39162621 74.0445161 30.0136966 255 79 163
1.82061239 74.9002624 30.206303 255 79 163
0.86711786 74.9002624 29.616355 255 79 163
0.670492268 75.4707599 29.4032709 255 79 163
0.346119313 76.6117549 28.9201426 255 79 163
0.977157081 75.7560086 29.7062421 255 79 163
1.18914925 76.0412574 29.8679058 255 79 163
0.902180167 76.6117549 29.6311235 255 79 163
0.919081922 77.75275 29.6358508 255 79 163
0.0623626127 2.75853278 30.0894169 255 79 163
0.0890792281 17.0644547 29.9147077 255 79 163
0.108752777 17.6227346 29.9398166 255 79 163
0.181399679 17.8088279 30.0452907 255 79 163
0.693648063 32.6962913 30.2014157 255 79 163
0.543629947 34.1850377 30.0755767 255 79 163
0.725713207 34.371131 30.1933994 255 79 163
0.793776324 34.9294108 30.2211526 255 79 163
0.840615647 35.3015974 30.2385768 255 79 163
0.937596536 36.0459706 30.2706503 255 79 163
0.874897552 36.8605774 30.2330202 255 79 163
0.842807512 37.2678809 30.2116602 255 79 163
0.793943262 37.878836 30.1763419 255 79 163
0.600697918 38.0824877 30.0441626 255 79 163
0.829971866 39.7117014 30.1673348 255 79 163
0.338336468 42.9701288 29.6590084 255 79 163
0.357464997 43.3774322 29.6741963 255 79 163
0.418661554 44.5993424 29.720669 255 79 163
0.659508029 50.0979386 29.8468559 255 79 163
0.498086066 53.7636694 29.5965682 255 79 163
0.681539252 53.9673211 29.787174 255 79 163
0.574619985 54.9855797 29.6570498 255 79 163
0.695295424 55.1892314 29.7753128 255 79 163
0.964149396 55.5965348 29.9843871 255 79 163
0.513197055 55.5965348 29.5729573 255 79 163
1.61830417 56.8184451 30.2805389 255 79 163
0.0969525939 58.6917681 28.7108046 255 79 163
0.161977034 58.0403553 28.9170344 255 79 163
0.675699002 58.0403553 29.6991287 255 79 163
0.413018978 59.3431808 29.3549237 255 79 163
0.152110371 59.1260432 28.8618246 255 79 163
0.303038034 59.9945936 29.1626756 255 79 163
0.848240777 59.3431808 29.8319536 255 79 163
0.640278255 59.5603184 29.6322565 255 79 163
0.770273355 59.6688872 29.7581823 255 79 163
1.08597945 59.777456 29.9990563 255 79 163
0.941260113 59.9945936 29.894593 255 79 163
0.751551903 60.4288687 29.7268059 255 79 163
1.03846204 60.6460063 29.9542935 255 79 163
1.10545356 61.0802815 29.9923178 255 79 163
0.469454206 61.7316942 29.3816023 255 79 163
0.492971284 61.9488318 29.408604 255 79 163
0.387987882 62.1659694 29.2535427 255 79 163
0.638547371 62.2745381 29.5771959 255 79 163
0.668614802 62.8173821 29.5993928 255 79 163
0.796013601 64.9887579 29.6884691 255 79 163
0.829593727 65.5316018 29.7106931 255 79 163
1.1692748 65.6401706 29.9702344 255 79 163
1.01286959 65.8573082 29.8580575 255 79 163
1.04664399 66.0744458 29.8801249 255 79 163
0.409468237 66.7258585 29.1914645 255 79 163
0.454915015 67.1601337 29.2514662 255 79 163
0.704683962 67.3772713 29.5575611 255 79 163
1.33202976 67.8115464 30.0418203 255 79 163
0.527728297 67.8115464 29.3404803 255 79 163
0.415103844 68.028684 29.1751776 255 79 163
0.682977904 68.1372528 29.5216961 255 79 163
0.824607794 68.2458216 29.6638139 255 79 163
1.13853156 68.4629592 29.9137695 255 79 163
0.606017125 68.4629592 29.427926 255 79 163
0.778396769 69.7657847 29.5964309 255 79 163
1.69786131 68.6800968 30.2041326 255 79 163
0.0826643219 70.3362822 28.3625576 255 79 163
0.351029547 70.9067797 29.0167813 255 79 163
1.99019518 68.7886656 30.2952199 255 79 163
1.88701515 69.1143719 30.2648827 255 79 163
1.81790106 69.3315095 30.2417247 255 79 163
1.67935959 69.7657847 30.1882322 255 79 163
0.556214865 71.0969455 29.3228088 255 79 163
0.798299606 70.9067797 29.5999184 255 79 163
0.675469992 71.1920285 29.4660384 255 79 163
2.02709653 70.3362822 30.2958947 255 79 163
1.38635993 70.9067797 30.0396725 255 79 163
0.989306285 71.2871114 29.7666146 255 79 163
0.808222892 71.4772772 29.6018656 255 79 163
0.554042205 71.8576089 29.308244 255 79 163
0.795913876 72.0477748 29.5820291 255 79 163
1.10887978 72.2379406 29.84811 255 79 163
0.830952524 72.6182723 29.6090288 255 79 163
0.833254297 72.8084381 29.6088437 255 79 163
0.216017265 78.1330817 28.6295756 255 79 163
0.222780039 78.893745 28.6365019 255 79 163
0.381010933 78.893745 28.9548705 255 79 163
0.164231485 79.2740767 28.4810617 255 79 163
1.78474427 78.1330817 30.1748478 255 79 163
0.358320866 79.2740767 28.9107686 255 79 163
1.85261965 78.893745 30.197302 255 79 163
1.66051822 78.893745 30.1178968 255 79 163
1.80120201 79.2740767 30.175892 255 79 163
2.06039905 79.2740767 30.2640825 255 79 163
0.262910036 1.81643548 30.3046017 255 79 163
0.3433299 16.3200815 30.2245752 255 79 163
0.402875987 16.5061748 30.2608406 255 79 163
0.323390507 16.9403925 30.2012535 255 79 163
0.479533486 16.8783614 30.2971027 255 79 163
0.381891023 35.4876907 29.8977943 255 79 163
0.434583586 36.0459706 29.9402441 255 79 163
0.407108355 36.453274 29.9026784 255 79 163
0.104177393 36.0459706 29.4372312 255 79 163
0.393515269 36.6569257 29.883274 255 79 163
0.538817103 36.7248096 30.0212611 255 79 163
0.407985063 40.6281341 29.8049973 255 79 163
0.679535002 56.0038382 29.7438149 255 79 163
1.01594533 56.2074899 30.0090874 255 79 163
0.770352793 56.2074899 29.8232734 255 79 163
0.745653713 57.4294002 29.7778916 255 79 163
0.722130521 57.6330519 29.7521744 255 79 163
0.342360483 70.0510334 29.0167836 255 79 163
1.3650677 70.0510334 30.0364051 255 79 163
0.963577821 78.2598589 29.6712512 255 79 163
0.986140477 78.5134133 29.6887382 255 79 163
1.19889014 78.6401906 29.8539158 255 79 163
0.714298551 79.0205222 29.4162892 255 79 163
0.932575898 78.893745 29.6382942 255 79 163
0.915655662 79.0839109 29.6212645 255 79 163
0.974178775 79.2740767 29.6722812 255 79 163
1.19071579 79.1472995 29.8444889 255 79 163
0.966751182 79.5276312 29.6638167 255 79 163
0.0918272993 35.7668307 29.4136596 255 79 163
0.0932147499 36.3514482 29.399137 255 79 163
0.147012827 56.8184451 28.9125285 255 79 163
0.523067147 56.8184451 29.5575353 255 79 163
0.12561174 57.4294002 28.8360839 255 79 163
0.137165978 57.6330519 28.8629294 255 79 163
1.02557914 56.8184451 30.0056192 255 79 163
0.783378314 70.0510334 29.5972517 255 79 163
80.3721473 -2.22044605e-16 0.790047894 218 222 230
80.3721473 0 22.6192367 218 222 230
80.3721473 0.00627215466 0.690693653 218 222 230
80.3721473 0.00278967731 0.723714079 218 222 230
80.3721473 0.000697727424 0.756851669 218 222 230
80.3721473 79.1158633 0.690693653 218 222 230
80.3721473 78.8988275 17.8543808 218 222 230
80.3721473 34.1241914 6.92786846 218 222 230
80.3721473 38.9903921 2.0639083 218 222 230
80.3721473 34.0682981 6.97079682 218 222 230
80.3721473 34.0051559 7.00236088 218 222 230
80.3721473 33.8229998 7.08444338 218 222 230
80.3721473 33.781749 7.11757662 218 222 230
80.3721473 33.7559543 7.14773651 218 222 230
80.3721473 33.7349685 7.18568237 218 222 230
80.3721473 33.7241137 7.22433416 218 222 230
80.3721473 33.7223311 7.25602471 218 222 230
80.3721473 33.7269486 7.28742342 218 222 230
80.3721473 35.2572498 13.8616039 218 222 230
80.3721473 42.8991497 15.911131 218 222 230
80.3721473 47.8173918 11.4449914 218 222 230
80.3721473 47.6162908 10.6937804 218 222 230
80.3721473 45.7945709 3.88876189 218 222 230
80.3721473 45.6479945 3.34122686 218 222 230
80.3721473 39.3912831 1.66320186 218 222 230
79.6814537 0.790047894 -1.11022302e-16 255 79 163
79.9134644 0.541444166 0.0401333259 255 79 163
80.1069251 0.331618254 0.14660564 255 79 163
80.2395667 0.183514824 0.283793698 255 79 163
80.3136554 0.0960371716 0.412523341 255 79 163
80.3545734 0.0420011987 0.535879024 255 79 163
80.3676692 0.0202848973 0.612169831 255 79 163
80.3721473 0.00627215466 0.690693653 255 79 163
80.3721473 0.00278967731 0.723714079 255 79 163
80.3721473 0.000697727424 0.756851669 255 79 163
80.3721473 -2.22044605e-16 0.790047894 255 79 163
0.00535948621 -2.22044605e-16 0.790047894 255 79 163
0.887431842 0.790047894 -2.22044605e-16 255 79 163
0.609635673 0.528353505 0.0446005648 255 79 163
0.373902978 0.308557312 0.163675403 255 79 163
0.206119497 0.155937776 0.318794193 255 79 163
0.106289236 0.0693791886 0.466300631 255 79 163
0.0447232651 0.0209622409 0.609263677 255 79 163
0.0204020856 0.00535276836 0.698237032 255 79 163
79.2365527 80.0347401 17.7857808 218 222 230
26.1761393 80.0347401 17.7857808 218 222 230
79.5138553 80.0003601 17.7878571 218 222 230
79.7650435 79.904254 17.7936611 218 222 230
79.9727868 79.7637049 17.8021491 218 222 230
80.1459462 79.5791909 17.8132923 218 222 230
80.2723583 79.3644881 17.8262586 218 222 230
80.3469721 79.1367093 17.8400146 218 222 230
80.3660673 79.0162289 17.8472907 218 222 230
80.3721473 78.8988275 17.8543808 218 222 230
80.3721473 0 22.6192367 218 222 230
26.1761393 0 22.6192367 218 222 230
26.1761393 80.0347401 30.3748277 218 222 230
26.1761393 0.874338187 30.3748277 218 222 230
26.1761393 -1.11022302e-16 29.5004895 218 222 230
26.1761393 0.0219214838 29.6950481 218 222 230
26.1761393 0.0865867005 29.8798507 218 222 230
26.1761393 0.190753066 30.0456305 218 222 230
26.1761393 0.329197244 30.1840747 218 222 230
26.1761393 0.494977065 30.288241 218 222 230
26.1761393 0.679779637 30.3529062 218 222 230
26.1761393 0 22.6192367 218 222 230
26.1761393 80.0347401 17.7857808 218 222 230
0 -1.11022302e-16 29.5004895 255 79 163
26.1761393 -1.11022302e-16 29.5004895 255 79 163
26.1761393 0.0219214838 29.6950481 255 79 163
26.1761393 0.0865867005 29.8798507 255 79 163
26.1761393 0.190753066 30.0456305 255 79 163
26.1761393 0.329197244 30.1840747 255 79 163
26.1761393 0.494977065 30.288241 255 79 163
26.1761393 0.679779637 30.3529062 255 79 163
26.1761393 0.874338187 30.3748277 255 79 163
0.515369853 0.874338187 30.3748277 255 79 163
0.0858949756 0.0297699854 29.7268053 255 79 163
0.171789951 0.117136641 29.9376625 255 79 163
0.257684927 0.256105603 30.1187221 255 79 163
0.343579902 0.437165234 30.2576911 255 79 163
0.429474878 0.648022391 30.3450577 255 79 163
0.887431842 80.0347401 -1.11022302e-16 218 222 230
79.4601857 80.0347401 0 218 222 230
0.887431842 0.790047894 -2.22044605e-16 218 222 230
79.6814537 0.790047894 -1.11022302e-16 218 222 230
79.6814537 80.00749 -1.11022302e-16 218 222 230
80.3721473 79.1158633 0.690693653 255 79 163
80.3306566 79.3909318 0.454911293 255 79 163
80.2151622 79.6326365 0.252272603 255 79 163
80.1138368 79.7578467 0.152081974 255 79 163
79.9719503 79.8773232 0.0640602537 255 79 163
79.8284249 79.9570365 0.0158179705 255 79 163
79.7553237 79.985651 0.00396158768 255 79 163
79.6814537 80.00749 -1.11022302e-16 255 79 163
80.3721473 78.8988275 17.8543808 255 79 163
79.2365527 80.0347401 17.7857808 255 79 163
79.5138553 80.0003601 17.7878571 255 79 163
79.7650435 79.904254 17.7936611 255 79 163
79.9727868 79.7637049 17.8021491 255 79 163
80.1459462 79.5791909 17.8132923 255 79 163
80.2723583 79.3644881 17.8262586 255 79 163
80.3469721 79.1367093 17.8400146 255 79 163
80.3660673 79.0162289 17.8472907 255 79 163
79.4601857 80.0347401 0 255 79 163
79.8721162 79.9359382 0.126136301 255 79 163
79.9877047 79.8656228 0.227455646 255 79 163
80.0725774 79.7972682 0.235727965 255 79 163
80.1040536 79.7666463 0.345346826 255 79 163
80.2009486 79.6521696 0.381868315 255 79 163
79.8651579 79.9079927 6.15882481 255 79 163
80.1617318 79.6221598 9.23927536 255 79 163
80.0676364 79.7302291 9.23823722 255 79 163
80.2323928 79.5156695 9.24217738 255 79 163
80.2836867 79.4146353 9.2464214 255 79 163
79.9032739 79.8448137 12.0881105 255 79 163
80.0485843 79.7250882 12.0907373 255 79 163
80.2504995 79.548149 3.42475923 255 79 163
80.2072114 79.6274494 2.39828843 255 79 163
80.2618334 79.5062831 5.36531329 255 79 163
80.292078 79.3348466 14.972559 255 79 163
79.8630706 79.9361828 1.19914422 255 79 163
79.8967813 79.9158986 1.71237962 255 79 163
79.8871528 79.9134914 3.19452802 255 79 163
80.0132282 79.8371665 1.94101589 255 79 163
79.8731936 79.849327 14.9488168 255 79 163
79.8597392 79.8524237 16.3791699 255 79 163
79.9833516 79.7593264 16.380208 255 79 163
79.7482548 79.9149563 16.8487323 255 79 163
79.9141183 79.8130819 16.8513591 255 79 163
80.2784227 79.5194238 0.781583054 255 79 163
80.2440252 79.5819051 0.944918934 255 79 163
80.1495355 79.7119947 1.20073916 255 79 163
80.2540603 79.5623919 1.20153663 255 79 163
80.1872789 79.6630677 1.44802972 255 79 163
80.2854876 79.500083 1.31585477 255 79 163
80.1850926 79.5264325 17.0286493 255 79 163
80.2777749 79.3552484 17.1172944 255 79 163
80.2297097 79.4514646 17.3493249 255 79 163
80.2599357 79.393071 17.3528699 255 79 163
80.3108323 79.2683612 17.5176768 255 79 163
2.8571399 80.0347401 30.3748277 218 222 230
26.1761393 80.0347401 30.3748277 218 222 230
0.515369853 0.874338187 30.3748277 218 222 230
0.804606182 15.9478949 30.3748277 218 222 230
1.48376117 36.0459706 30.3748277 218 222 230
2.3069807 58.0403553 30.3748277 218 222 230
2.65761281 69.7657847 30.3748277 218 222 230
26.1761393 0.874338187 30.3748277 218 222 230
79.6814537 0.790047894 -1.11022302e-16 255 79 163
79.6814537 80.00749 -1.11022302e-16 255 79 163
80.3721473 79.1158633 0.690693653 255 79 163
80.3306566 79.3909318 0.454911293 255 79 163
80.2151622 79.6326365 0.252272603 255 79 163
80.1138368 79.7578467 0.152081974 255 79 163
79.9719503 79.8773232 0.0640602537 255 79 163
79.8284249 79.9570365 0.0158179705 255 79 163
79.7553237 79.985651 0.00396158768 255 79 163
80.3721473 0.00627215466 0.690693653 255 79 163
79.9134644 0.541444166 0.0401333259 255 79 163
80.1069251 0.331618254 0.14660564 255 79 163
80.2395667 0.183514824 0.283793698 255 79 163
80.3136554 0.0960371716 0.412523341 255 79 163
80.3545734 0.0420011987 0.535879024 255 79 163
80.3676692 0.0202848973 0.612169831 255 79 163
79.8812711 38.9903921 2.0639083 218 222 230
77.9086218 38.9903921 2.0639083 218 222 230
80.3721473 39.3912831 1.66320186 218 222 230
80.3554211 39.2875249 1.76691232 218 222 230
80.3063824 39.1908376 1.86355508 218 222 230
80.228373 39.1078103 1.9465441 218 222 230
80.1377532 39.0494673 2.00486026 218 222 230
80.043917 39.0130375 2.04127326 218 222 230
79.9637674 38.996094 2.05820901 218 222 230
80.3721473 38.9903921 2.0639083 218 222 230
80.3721473 34.1241914 6.92786846 218 222 230
77.5947609 34.1066539 6.94539792 218 222 230
77.5201274 34.180285 6.87180073 218 222 230
77.4718788 34.2647253 6.78739921 218 222 230
77.4551483 34.3226972 6.7294541 218 222 230
77.449885 34.379261 6.67291629 218 222 230
77.449885 38.6181649 2.43596414 218 222 230
77.8180941 38.9830339 2.07126308 218 222 230
77.7258007 38.9594329 2.09485324 218 222 230
77.655471 38.9283919 2.12587993 218 222 230
77.5953258 38.8898236 2.16443049 218 222 230
77.5438386 38.8436095 2.21062326 218 222 230
77.5029965 38.7917747 2.26243425 218 222 230
77.473844 38.7366888 2.31749479 218 222 230
77.4556 38.6766245 2.37753138 218 222 230
80.3721473 34.1241914 6.92786846 255 79 163
80.3721473 34.0682981 6.97079682 255 79 163
80.3721473 34.0051559 7.00236088 255 79 163
80.3721473 33.8229998 7.08444338 255 79 163
80.3721473 33.781749 7.11757662 255 79 163
80.3721473 33.7559543 7.14773651 255 79 163
80.3721473 33.7349685 7.18568237 255 79 163
80.3721473 33.7241137 7.22433416 255 79 163
80.3721473 33.7223311 7.25602471 255 79 163
80.3721473 33.7269486 7.28742342 255 79 163
80.0377908 34.049932 7.20095997 255 79 163
80.149243 34.0415038 7.10492738 255 79 163
80.2606952 34.0676898 7.00804023 255 79 163
80.3620371 33.8057734 7.26632183 255 79 163
80.3337519 33.8772247 7.24719413 255 79 163
80.2923627 33.9363412 7.2313685 255 79 163
80.2380164 33.9856163 7.21817746 255 79 163
80.174792 34.021574 7.20855149 255 79 163
80.1077532 34.0427823 7.20287398 255 79 163
80.0723126 34.0482059 7.20142206 255 79 163
80.364484 33.8145776 7.13090773 255 79 163
80.323523 33.9783117 7.07428789 255 79 163
80.2328698 33.9874597 7.18758948 255 79 163
80.2515718 34.0234575 7.09654784 255 79 163
80.3721473 35.2572498 13.8616039 255 79 163
80.3552962 35.387465 13.8224401 255 79 163
80.3146412 35.4951961 13.7980416 255 79 163
80.269116 35.5720591 13.7909787 255 79 163
80.2117861 35.6448082 13.7995171 255 79 163
80.1146399 35.7321289 13.8229362 255 79 163
80.0051 35.7922486 13.8390601 255 79 163
79.9086081 35.8207336 13.8466996 255 79 163
79.8144589 35.8296529 13.8490918 255 79 163
80.0377908 34.049932 7.20095997 255 79 163
80.3721473 33.7269486 7.28742342 255 79 163
80.3620371 33.8057734 7.26632183 255 79 163
80.3337519 33.8772247 7.24719413 255 79 163
80.2923627 33.9363412 7.2313685 255 79 163
80.2380164 33.9856163 7.21817746 255 79 163
80.174792 34.021574 7.20855149 255 79 163
80.1077532 34.0427823 7.20287398 255 79 163
80.0723126 34.0482059 7.20142206 255 79 163
80.1766173 34.8480297 10.4792985 255 79 163
80.1545633 34.8615823 10.4756704 255 79 163
80.3721473 39.3912831 1.66320186 255 79 163
80.3721473 45.6479945 3.34122686 255 79 163
80.3554211 45.6859313 3.48293936 255 79 163
80.3063824 45.7212827 3.61499438 255 79 163
80.228373 45.7516397 3.72839259 255 79 163
80.1377532 45.7729715 3.80807722 255 79 163
80.043917 45.7862911 3.85783282 255 79 163
79.9637674 45.7924862 3.88097424 255 79 163
79.8812711 45.7945709 3.88876189 255 79 163
79.8812711 38.9903921 2.0639083 255 79 163
80.3554211 39.2875249 1.76691232 255 79 163
80.3063824 39.1908376 1.86355508 255 79 163
80.228373 39.1078103 1.9465441 255 79 163
80.1377532 39.0494673 2.00486026 255 79 163
80.043917 39.0130375 2.04127326 255 79 163
79.9637674 38.996094 2.05820901 255 79 163
80.3721473 42.8991497 15.911131 255 79 163
80.3721473 35.2572498 13.8616039 255 79 163
80.3552962 35.387465 13.8224401 255 79 163
80.3146412 35.4951961 13.7980416 255 79 163
80.269116 35.5720591 13.7909787 255 79 163
80.2117861 35.6448082 13.7995171 255 79 163
80.2117861 42.6989117 15.6913995 255 79 163
80.3610593 42.8490156 15.8370207 255 79 163
80.3341539 42.8058422 15.7788007 255 79 163
80.2946685 42.7645709 15.7329044 255 79 163
80.2560633 42.7322623 15.7067982 255 79 163
78.1244622 45.7945709 3.88876189 218 222 230
77.9911709 45.7985475 3.90361617 218 222 230
77.8555879 45.8113053 3.95127313 218 222 230
77.7513243 45.8283062 4.01477972 218 222 230
77.6631736 45.8492479 4.09300735 218 222 230
77.5877007 45.8743633 4.18682566 218 222 230
77.527787 45.9025778 4.29222075 218 222 230
77.4849788 45.932626 4.40446523 218 222 230
77.4582776 45.9653051 4.52653786 218 222 230
77.449885 45.9972143 4.64573439 218 222 230
77.449885 47.436392 10.0217701 218 222 230
78.0523558 47.6162908 10.6937804 218 222 230
77.9255527 47.612261 10.6787273 218 222 230
77.8044304 47.6003523 10.6342425 218 222 230
77.6944152 47.5810982 10.5623188 218 222 230
77.6004358 47.5553612 10.4661785 218 222 230
77.5267024 47.5242944 10.3501286 218 222 230
77.4765184 47.4892895 10.2193682 218 222 230
77.4565805 47.463138 10.1216795 218 222 230
79.6887632 47.6162908 10.6937804 218 222 230
80.3721473 47.8173918 11.4449914 218 222 230
80.3517131 47.768935 11.2639814 218 222 230
80.2855489 47.7198954 11.0807945 218 222 230
80.2132919 47.6889437 10.9651748 218 222 230
80.1119658 47.6598431 10.8564697 218 222 230
80.005381 47.6394001 10.780105 218 222 230
79.9019221 47.6264371 10.731682 218 222 230
79.7968911 47.6188567 10.7033653 218 222 230
79.7421909 47.6169148 10.6961115 218 222 230
80.3721473 47.6162908 10.6937804 218 222 230
80.3721473 45.7945709 3.88876189 218 222 230
80.3721473 45.6479945 3.34122686 218 222 230
80.3554211 45.6859313 3.48293936 218 222 230
80.3063824 45.7212827 3.61499438 218 222 230
80.228373 45.7516397 3.72839259 218 222 230
80.1377532 45.7729715 3.80807722 218 222 230
80.043917 45.7862911 3.85783282 218 222 230
79.9637674 45.7924862 3.88097424 218 222 230
79.8812711 45.7945709 3.88876189 218 222 230
80.3721473 42.8991497 15.911131 255 79 163
80.3610593 42.8490156 15.8370207 255 79 163
80.3341539 42.8058422 15.7788007 255 79 163
80.2946685 42.7645709 15.7329044 255 79 163
80.2560633 42.7322623 15.7067982 255 79 163
80.2117861 42.6989117 15.6913995 255 79 163
80.3721473 47.8173918 11.4449914 255 79 163
80.3517131 47.768935 11.2639814 255 79 163
80.2855489 47.7198954 11.0807945 255 79 163
80.2132919 47.6889437 10.9651748 255 79 163
80.1119658 47.6598431 10.8564697 255 79 163
80.005381 47.6394001 10.780105 255 79 163
79.9019221 47.6264371 10.731682 255 79 163
79.7968911 47.6188567 10.7033653 255 79 163
79.7421909 47.6169148 10.6961115 255 79 163
79.6887632 47.6162908 10.6937804 255 79 163
80.0171073 42.6338318 15.6739454 255 79 163
80.1481269 42.6618523 15.6814604 255 79 163
80.0819119 42.6404927 15.6757318 255 79 163
80.1733153 47.6193496 10.9718493 255 79 163
80.1023546 47.6092481 10.8954777 255 79 163
80.0241914 47.6069974 10.8261637 255 79 163
80.0778592 45.9158129 12.497498 255 79 163
80.3163087 45.1916513 13.5016644 255 79 163
80.2254377 45.0912724 13.4250671 255 79 163
80.2223238 44.287015 14.1737043 255 79 163
80.2913895 46.8309068 11.9355327 255 79 163
80.0335741 47.1692544 11.2602871 255 79 163
80.2867767 47.4667583 11.3260623 255 79 163
77.9086218 38.9903921 2.0639083 218 222 230
78.1244622 45.7945709 3.88876189 218 222 230
79.8812711 45.7945709 3.88876189 218 222 230
79.8812711 38.9903921 2.0639083 218 222 230
77.9086218 38.9903921 2.0639083 255 79 163
77.8180941 38.9830339 2.07126308 255 79 163
77.7258007 38.9594329 2.09485324 255 79 163
77.655471 38.9283919 2.12587993 255 79 163
77.5953258 38.8898236 2.16443049 255 79 163
77.5438386 38.8436095 2.21062326 255 79 163
77.5029965 38.7917747 2.26243425 255 79 163
77.473844 38.7366888 2.31749479 255 79 163
77.4556 38.6766245 2.37753138 255 79 163
77.449885 38.6181649 2.43596414 255 79 163
77.449885 45.9972143 4.64573439 255 79 163
78.1244622 45.7945709 3.88876189 255 79 163
77.9911709 45.7985475 3.90361617 255 79 163
77.8555879 45.8113053 3.95127313 255 79 163
77.7513243 45.8283062 4.01477972 255 79 163
77.6631736 45.8492479 4.09300735 255 79 163
77.5877007 45.8743633 4.18682566 255 79 163
77.527787 45.9025778 4.29222075 255 79 163
77.4849788 45.932626 4.40446523 255 79 163
77.4582776 45.9653051 4.52653786 255 79 163
77.449885 34.379261 6.67291629 218 222 230
77.449885 38.6181649 2.43596414 218 222 230
77.449885 45.9972143 4.64573439 218 222 230
77.449885 47.436392 10.0217701 218 222 230
77.449885 41.9619044 15.4937371 218 222 230
77.449885 35.9849985 13.8907548 218 222 230
77.5907026 35.8296529 13.8490918 255 79 163
77.8998592 34.0445665 7.18091704 255 79 163
77.5629538 35.8327261 13.849916 255 79 163
77.5346327 35.8425889 13.8525611 255 79 163
77.5130058 35.8555861 13.8560469 255 79 163
77.4945262 35.8717191 13.8603738 255 79 163
77.4787056 35.8910456 13.865557 255 79 163
77.4661615 35.9127075 13.8713667 255 79 163
77.4572171 35.9356998 13.8775331 255 79 163
77.4516317 35.9607097 13.8842407 255 79 163
77.449885 35.9849985 13.8907548 255 79 163
77.449885 34.379261 6.67291629 255 79 163
77.5947609 34.1066539 6.94539792 255 79 163
77.5201274 34.180285 6.87180073 255 79 163
77.4718788 34.2647253 6.78739921 255 79 163
77.4551483 34.3226972 6.7294541 255 79 163
77.7929323 34.0366295 7.10039711 255 79 163
77.6870144 34.0571415 7.01741386 255 79 163
77.6384304 34.0785673 6.97916882 255 79 163
77.4863061 35.349793 11.6466966 255 79 163
77.5986295 34.981043 10.5254975 255 79 163
77.5776874 34.9952393 10.5278579 255 79 163
77.502577 35.3263247 11.6441727 255 79 163
77.5563971 35.0123846 10.5299695 255 79 163
77.5366085 35.0312812 10.531419 255 79 163
77.6912777 34.0607605 7.04018958 255 79 163
77.5443576 35.5578665 12.7564222 255 79 163
77.4707034 35.7686739 13.324327 255 79 163
77.5258254 35.7796755 13.5919264 255 79 163
80.0377908 34.049932 7.20095997 255 79 163
80.149243 34.0415038 7.10492738 255 79 163
80.2606952 34.0676898 7.00804023 255 79 163
80.3721473 34.1241914 6.92786846 255 79 163
77.5947609 34.1066539 6.94539792 255 79 163
77.8998592 34.0445665 7.18091704 255 79 163
77.7929323 34.0366295 7.10039711 255 79 163
77.6870144 34.0571415 7.01741386 255 79 163
77.6384304 34.0785673 6.97916882 255 79 163
80.0171073 42.6338318 15.6739454 218 222 230
78.0523558 42.6338318 15.6739454 218 222 230
77.9255527 42.6187806 15.6699087 218 222 230
77.8044304 42.5743012 15.6579795 218 222 230
77.6944152 42.5023864 15.6386922 218 222 230
77.6004358 42.406258 15.612911 218 222 230
77.5267024 42.2902224 15.5817907 218 222 230
77.4765184 42.1594781 15.5467256 218 222 230
77.4565805 42.0618015 15.5205291 218 222 230
77.449885 41.9619044 15.4937371 218 222 230
77.449885 35.9849985 13.8907548 218 222 230
77.5907026 35.8296529 13.8490918 218 222 230
77.5629538 35.8327261 13.849916 218 222 230
77.5346327 35.8425889 13.8525611 218 222 230
77.5130058 35.8555861 13.8560469 218 222 230
77.4945262 35.8717191 13.8603738 218 222 230
77.4787056 35.8910456 13.865557 218 222 230
77.4661615 35.9127075 13.8713667 218 222 230
77.4572171 35.9356998 13.8775331 218 222 230
77.4516317 35.9607097 13.8842407 218 222 230
79.8144589 35.8296529 13.8490918 218 222 230
80.2117861 35.6448082 13.7995171 218 222 230
80.1146399 35.7321289 13.8229362 218 222 230
80.0051 35.7922486 13.8390601 218 222 230
79.9086081 35.8207336 13.8466996 218 222 230
80.2117861 42.6989117 15.6913995 218 222 230
80.1481269 42.6618523 15.6814604 218 222 230
80.0819119 42.6404927 15.6757318 218 222 230
77.5907026 35.8296529 13.8490918 218 222 230
77.8998592 34.0445665 7.18091704 218 222 230
80.0377908 34.049932 7.20095997 218 222 230
79.8144589 35.8296529 13.8490918 218 222 230
78.0523558 47.6162908 10.6937804 255 79 163
77.9255527 47.612261 10.6787273 255 79 163
77.8044304 47.6003523 10.6342425 255 79 163
77.6944152 47.5810982 10.5623188 255 79 163
77.6004358 47.5553612 10.4661785 255 79 163
77.5267024 47.5242944 10.3501286 255 79 163
77.4765184 47.4892895 10.2193682 255 79 163
77.4565805 47.463138 10.1216795 255 79 163
77.449885 47.436392 10.0217701 255 79 163
77.449885 41.9619044 15.4937371 255 79 163
78.0523558 42.6338318 15.6739454 255 79 163
77.9255527 42.6187806 15.6699087 255 79 163
77.8044304 42.5743012 15.6579795 255 79 163
77.6944152 42.5023864 15.6386922 255 79 163
77.6004358 42.406258 15.612911 255 79 163
77.5267024 42.2902224 15.5817907 255 79 163
77.4765184 42.1594781 15.5467256 255 79 163
77.4565805 42.0618015 15.5205291 255 79 163
79.6887632 47.6162908 10.6937804 218 222 230
78.0523558 47.6162908 10.6937804 218 222 230
78.0523558 42.6338318 15.6739454 218 222 230
80.0171073 42.6338318 15.6739454 218 222 230
3 8 3 2
3 7 8 2
3 6 7 2
3 0 6 2
3 5 6 0
3 4 5 0
3 1 9 4
3 1 4 0
3 10 9 1
3 14 1 15
3 11 10 1
3 13 1 14
3 12 11 1
3 12 1 13
3 21 19 18
3 21 20 19
3 24 22 21
3 24 21 18
3 23 22 24
3 16 24 18
3 17 24 16
3 35 36 37
3 35 37 38
3 34 38 39
3 34 35 38
3 33 39 40
3 33 34 39
3 32 40 41
3 32 33 40
3 31 41 42
3 31 32 41
3 30 42 43
3 30 43 25
3 30 31 42
3 29 25 26
3 29 26 27
3 29 27 28
3 29 30 25
3 50 60 49
3 67 45 46
3 68 63 64
3 68 64 65
3 68 65 66
3 69 61 62
3 69 62 63
3 69 63 68
3 70 61 69
3 71 48 49
3 71 60 61
3 71 61 70
3 71 49 60
3 72 51 44
3 72 59 51
3 73 44 45
3 74 73 45
3 75 74 45
3 76 75 45
3 77 67 78
3 77 45 67
3 79 54 55
3 79 80 54
3 79 55 81
3 79 81 77
3 82 53 54
3 83 52 53
3 83 66 52
3 83 68 66
3 84 53 82
3 85 69 68
3 85 68 83
3 86 83 53
3 86 53 84
3 86 85 83
3 87 86 84
3 88 85 86
3 88 70 69
3 88 69 85
3 88 86 87
3 89 46 47
3 89 47 48
3 89 67 46
3 89 48 71
3 90 72 44
3 90 44 73
3 90 59 72
3 91 90 73
3 92 93 73
3 92 73 74
3 94 92 74
3 94 74 75
3 95 56 57
3 95 94 75
3 95 75 76
3 96 56 95
3 97 55 56
3 97 81 55
3 97 77 81
3 98 80 79
3 98 77 78
3 98 79 77
3 99 54 80
3 99 82 54
3 100 102 101
3 100 84 103
3 100 103 102
3 100 87 84
3 104 87 100
3 104 88 87
3 105 70 88
3 105 89 71
3 105 106 89
3 105 101 106
3 105 71 70
3 105 100 101
3 105 88 104
3 105 104 100
3 107 58 59
3 107 59 90
3 108 90 91
3 108 58 107
3 108 107 90
3 109 57 58
3 109 58 108
3 110 57 109
3 110 109 93
3 111 93 92
3 111 110 93
3 111 57 110
3 112 92 94
3 112 95 57
3 112 94 95
3 112 111 92
3 112 57 111
3 113 95 76
3 113 96 95
3 114 77 97
3 114 76 45
3 114 113 76
3 114 96 113
3 114 45 77
3 115 80 98
3 115 98 78
3 115 99 80
3 115 78 67
3 116 82 99
3 116 115 67
3 116 99 115
3 116 84 82
3 117 108 91
3 117 109 108
3 117 93 109
3 118 114 97
3 118 97 56
3 118 56 96
3 118 96 114
3 119 103 84
3 119 102 103
3 119 84 116
3 120 116 67
3 120 67 89
3 120 89 106
3 120 106 101
3 120 101 102
3 120 119 116
3 120 102 119
3 121 91 73
3 121 73 93
3 121 117 91
3 121 93 117
3 126 128 127
3 126 129 128
3 126 130 129
3 126 131 130
3 125 132 131
3 125 131 126
3 138 135 136
3 138 136 137
3 139 134 135
3 139 135 138
3 142 133 134
3 142 139 140
3 142 140 141
3 142 134 139
3 123 126 133
3 123 125 126
3 123 133 142
3 143 123 142
3 124 125 123
3 122 124 123
3 171 167 152
3 172 167 171
3 173 172 153
3 173 167 172
3 174 158 170
3 175 156 157
3 176 158 174
3 177 175 157
3 178 144 153
3 178 153 172
3 178 172 171
3 179 180 153
3 181 153 154
3 181 179 153
3 181 154 182
3 181 182 183
3 184 185 179
3 184 179 181
3 184 181 183
3 184 183 185
3 186 183 182
3 187 168 167
3 187 183 186
3 187 185 183
3 187 167 185
3 188 168 187
3 189 168 188
3 190 168 191
3 192 168 190
3 193 169 168
3 193 194 169
3 193 168 192
3 193 195 194
3 193 192 196
3 197 154 155
3 197 198 154
3 197 195 198
3 199 197 155
3 199 200 197
3 201 199 155
3 202 169 194
3 203 204 155
3 205 203 155
3 206 170 169
3 206 207 208
3 206 169 207
3 209 210 206
3 209 211 210
3 212 211 213
3 214 205 155
3 214 155 156
3 214 212 213
3 214 213 205
3 215 170 206
3 215 206 210
3 216 217 214
3 218 170 215
3 219 170 218
3 220 174 170
3 220 221 174
3 220 170 222
3 223 156 175
3 223 224 156
3 225 174 221
3 225 226 174
3 227 221 223
3 227 223 175
3 227 228 225
3 227 175 228
3 227 225 221
3 229 225 228
3 229 226 225
3 230 176 174
3 230 231 176
3 230 226 229
3 230 174 226
3 232 229 228
3 232 230 229
3 232 228 175
3 232 231 230
3 233 175 177
3 233 231 232
3 233 232 175
3 234 233 177
3 234 231 233
3 235 176 231
3 235 231 234
3 235 234 177
3 236 150 149
3 236 151 150
3 236 152 151
3 236 178 171
3 236 171 152
3 237 167 173
3 238 179 185
3 238 185 167
3 238 167 237
3 239 179 238
3 239 180 179
3 240 186 182
3 240 188 187
3 240 189 188
3 240 187 186
3 240 182 154
3 241 189 240
3 242 240 154
3 242 241 240
3 243 241 242
3 243 242 154
3 244 243 154
3 244 154 245
3 246 245 154
3 247 246 154
3 248 247 154
3 248 249 247
3 250 191 249
3 250 249 248
3 250 154 198
3 250 248 154
3 250 190 191
3 251 196 198
3 251 193 196
3 252 251 198
3 252 193 251
3 253 252 198
3 253 193 252
3 253 195 193
3 253 198 195
3 254 194 195
3 254 200 194
3 254 195 197
3 254 197 200
3 255 194 200
3 255 202 194
3 255 200 199
3 256 255 199
3 256 199 201
3 257 202 255
3 257 255 256
3 257 256 201
3 258 257 201
3 258 201 259
3 260 202 257
3 260 257 258
3 260 258 259
3 261 155 204
3 261 201 155
3 261 259 201
3 262 169 263
3 262 263 264
3 262 264 265
3 266 267 207
3 266 262 265
3 266 169 262
3 266 265 267
3 266 207 169
3 268 264 204
3 268 265 264
3 268 204 203
3 269 265 268
3 269 267 265
3 270 269 268
3 270 267 269
3 271 203 205
3 271 270 268
3 271 268 203
3 272 267 270
3 272 271 205
3 272 270 271
3 273 207 267
3 273 208 207
3 273 267 272
3 274 272 205
3 274 273 272
3 274 208 273
3 275 205 213
3 275 274 205
3 275 208 274
3 276 275 213
3 276 208 275
3 276 206 208
3 277 276 213
3 277 206 276
3 278 209 206
3 278 206 277
3 279 209 278
3 279 277 213
3 279 278 277
3 280 211 209
3 280 213 211
3 280 209 279
3 280 279 213
3 281 211 212
3 281 210 211
3 282 281 212
3 282 210 281
3 283 282 212
3 283 212 214
3 284 210 282
3 284 282 283
3 284 283 214
3 285 210 284
3 285 284 214
3 285 214 217
3 286 210 285
3 286 285 217
3 286 215 210
3 287 215 286
3 287 286 217
3 288 216 289
3 288 287 217
3 288 217 216
3 290 215 287
3 290 287 288
3 290 288 289
3 291 215 290
3 291 218 215
3 292 290 289
3 292 291 290
3 293 292 289
3 293 289 294
3 295 218 291
3 295 291 292
3 295 292 293
3 295 294 296
3 295 293 294
3 295 219 218
3 295 296 219
3 297 294 289
3 298 222 170
3 298 299 222
3 298 170 219
3 300 289 216
3 300 216 214
3 300 297 289
3 300 214 156
3 301 294 297
3 301 297 300
3 301 300 156
3 302 296 294
3 302 294 301
3 302 156 303
3 302 301 156
3 302 303 296
3 304 222 299
3 305 304 299
3 306 222 304
3 306 304 305
3 307 303 156
3 307 156 224
3 307 224 308
3 309 308 224
3 309 305 308
3 309 306 305
3 310 222 306
3 310 309 224
3 310 306 309
3 311 220 222
3 311 222 310
3 312 220 311
3 312 310 224
3 312 311 310
3 313 224 223
3 313 312 224
3 314 313 223
3 314 220 312
3 314 312 313
3 315 223 221
3 315 221 220
3 315 314 223
3 315 220 314
3 316 158 176
3 316 176 235
3 317 158 316
3 318 317 316
3 319 159 158
3 319 160 159
3 319 158 317
3 320 235 177
3 320 177 157
3 321 161 160
3 321 317 318
3 321 160 319
3 321 319 317
3 322 323 320
3 324 323 322
3 324 165 164
3 325 324 322
3 325 322 320
3 325 165 324
3 325 166 165
3 325 157 166
3 325 320 157
3 326 145 144
3 326 146 145
3 326 147 146
3 326 148 147
3 326 149 148
3 326 236 149
3 326 144 178
3 326 178 236
3 327 173 153
3 327 237 173
3 328 327 153
3 329 237 327
3 329 327 328
3 329 239 238
3 329 238 237
3 329 180 239
3 330 328 153
3 330 180 329
3 330 153 180
3 330 329 328
3 331 189 241
3 331 241 243
3 331 243 244
3 331 244 245
3 331 245 332
3 333 334 332
3 333 332 245
3 335 247 249
3 335 249 191
3 336 335 333
3 336 246 247
3 336 333 245
3 336 245 246
3 336 247 335
3 337 190 250
3 337 192 190
3 337 196 192
3 337 250 198
3 337 198 196
3 338 202 260
3 338 260 259
3 339 340 338
3 339 259 261
3 339 338 259
3 341 261 204
3 342 341 204
3 342 204 264
3 343 219 296
3 343 298 219
3 343 299 298
3 344 303 307
3 344 308 305
3 344 307 308
3 344 296 303
3 345 316 235
3 345 235 320
3 346 316 345
3 346 318 316
3 347 345 320
3 347 346 345
3 347 320 323
3 348 321 318
3 349 346 347
3 349 347 323
3 349 348 318
3 349 318 346
3 350 348 349
3 351 321 348
3 351 348 350
3 352 323 324
3 352 349 323
3 352 350 349
3 352 351 350
3 353 321 351
3 353 161 321
3 353 324 164
3 353 162 161
3 353 163 162
3 353 164 163
3 353 352 324
3 353 351 352
3 354 189 331
3 354 331 332
3 354 168 189
3 354 332 334
3 354 334 168
3 355 333 335
3 355 335 191
3 355 168 334
3 355 334 333
3 355 191 168
3 356 338 340
3 356 340 357
3 356 202 338
3 356 169 202
3 358 169 356
3 358 357 341
3 358 356 357
3 359 169 358
3 359 358 341
3 359 263 169
3 359 341 342
3 359 342 264
3 359 264 263
3 360 340 339
3 360 357 340
3 360 339 261
3 360 261 341
3 360 341 357
3 361 305 299
3 361 299 343
3 361 344 305
3 361 296 344
3 361 343 296
3 384 385 367
3 386 367 385
3 383 384 367
3 382 367 368
3 382 383 367
3 372 369 371
3 381 382 368
3 373 370 369
3 373 369 372
3 364 373 374
3 364 374 375
3 364 375 376
3 364 386 370
3 364 370 373
3 366 365 364
3 362 376 377
3 362 377 378
3 362 378 379
3 362 364 376
3 362 366 364
3 363 379 380
3 363 380 381
3 363 362 379
3 364 367 386
3 368 363 381
3 396 397 398
3 396 398 405
3 395 396 405
3 394 405 404
3 394 395 405
3 393 394 404
3 392 404 403
3 392 393 404
3 391 403 402
3 391 392 403
3 390 402 401
3 390 391 402
3 389 401 400
3 389 390 401
3 388 400 399
3 388 389 400
3 387 388 399
3 415 417 416
3 415 407 417
3 406 407 415
3 414 406 415
3 413 406 414
3 412 406 413
3 409 408 406
3 411 406 412
3 410 409 406
3 410 406 411
3 419 420 427
3 419 427 428
3 419 428 418
3 425 419 426
3 425 420 419
3 423 421 420
3 423 422 421
3 424 423 420
3 424 420 425
3 436 437 438
3 436 438 443
3 435 443 442
3 435 436 443
3 434 442 441
3 434 435 442
3 433 441 440
3 433 434 441
3 432 440 439
3 432 433 440
3 431 439 429
3 431 432 439
3 430 431 429
3 445 446 444
3 445 447 446
3 448 447 445
3 467 453 454
3 467 454 455
3 467 455 456
3 467 456 466
3 468 453 467
3 469 452 453
3 469 453 468
3 470 451 452
3 470 452 469
3 470 469 468
3 471 450 451
3 471 451 470
3 472 466 458
3 473 472 474
3 475 472 473
3 476 457 449
3 476 472 475
3 477 472 458
3 477 474 472
3 478 474 477
3 478 473 474
3 478 475 473
3 478 476 475
3 479 449 480
3 481 476 449
3 481 472 476
3 481 449 479
3 482 457 476
3 482 476 478
3 483 468 467
3 483 470 468
3 483 467 466
3 484 483 466
3 485 466 472
3 485 479 480
3 485 472 481
3 485 481 479
3 485 484 466
3 485 480 486
3 485 486 484
3 487 478 477
3 487 477 458
3 487 482 478
3 488 487 458
3 489 482 487
3 489 487 488
3 490 458 459
3 490 459 460
3 490 488 458
3 491 488 490
3 491 490 460
3 491 489 488
3 492 449 450
3 492 450 471
3 492 471 470
3 493 492 470
3 493 470 483
3 493 449 492
3 494 493 483
3 495 493 494
3 495 449 493
3 496 494 483
3 496 495 494
3 496 483 484
3 496 486 480
3 496 484 486
3 497 495 496
3 497 449 495
3 497 496 480
3 497 480 449
3 498 489 491
3 499 482 489
3 499 489 498
3 499 457 482
3 500 460 461
3 500 461 462
3 500 499 498
3 500 498 491
3 500 491 460
3 501 499 500
3 502 462 463
3 502 463 464
3 502 464 465
3 502 465 457
3 502 500 462
3 502 457 499
3 502 499 501
3 502 501 500
3 510 506 505
3 507 506 510
3 504 508 507
3 504 509 508
3 504 503 509
3 504 507 510
3 513 526 525
3 513 520 526
3 514 525 524
3 514 513 525
3 515 523 522
3 515 524 523
3 515 514 524
3 516 515 522
3 517 522 521
3 517 516 522
3 518 521 511
3 518 517 521
3 519 518 511
3 512 519 511
3 540 539 538
3 541 540 538
3 542 541 538
3 537 542 538
3 543 542 537
3 528 544 545
3 528 545 546
3 528 546 547
3 528 547 548
3 528 548 549
3 528 549 550
3 528 550 551
3 528 551 543
3 527 543 537
3 527 528 543
3 536 533 534
3 536 534 535
3 536 535 527
3 536 527 537
3 532 533 536
3 531 532 536
3 530 531 536
3 529 530 536
3 565 558 557
3 565 559 558
3 565 560 559
3 565 561 560
3 564 553 552
3 564 554 553
3 570 569 563
3 571 570 563
3 562 571 563
3 572 556 555
3 572 557 556
3 572 566 565
3 572 567 566
3 572 565 557
3 573 555 554
3 573 572 555
3 573 567 572
3 573 554 564
3 574 568 567
3 574 569 568
3 574 567 573
3 574 563 569
3 575 564 563
3 575 574 573
3 575 563 574
3 575 573 564
3 584 581 580
3 584 582 581
3 584 583 582
3 594 577 576
3 594 578 577
3 594 586 587
3 594 587 588
3 594 588 589
3 594 589 590
3 594 576 586
3 595 579 578
3 595 580 579
3 595 585 584
3 595 590 591
3 595 591 592
3 595 592 593
3 595 593 585
3 595 578 594
3 595 584 580
3 595 594 590
3 603 604 605
3 603 611 610
3 603 605 611
3 602 610 609
3 602 603 610
3 601 609 608
3 601 602 609
3 600 608 607
3 600 601 608
3 599 607 606
3 599 600 607
3 598 606 596
3 598 599 606
3 597 598 596
3 617 618 622
3 616 622 621
3 616 617 622
3 615 621 620
3 615 616 621
3 614 620 619
3 614 615 620
3 613 619 612
3 613 614 619
3 623 625 624
3 623 626 625
3 623 627 626
3 623 628 627
3 623 629 628
3 623 630 629
3 623 631 630
3 632 631 623
3 661 632 623
3 653 655 654
3 653 656 655
3 653 657 656
3 653 658 657
3 653 659 658
3 653 660 659
3 653 661 660
3 634 635 636
3 634 636 637
3 634 637 638
3 634 638 639
3 634 639 640
3 634 640 641
3 634 641 633
3 642 633 632
3 642 632 661
3 642 634 633
3 651 642 661
3 652 651 661
3 652 647 648
3 652 648 649
3 652 649 650
3 652 650 651
3 652 661 653
3 646 647 652
3 645 646 652
3 644 645 652
3 643 644 652
3 681 671 670
3 682 672 671
3 682 671 681
3 683 673 672
3 683 674 673
3 683 675 674
3 683 676 675
3 683 677 676
3 683 672 682
3 684 678 677
3 685 668 662
3 686 684 685
3 687 662 663
3 687 663 664
3 687 664 665
3 687 665 666
3 687 666 667
3 687 667 679
3 687 679 680
3 687 680 678
3 687 685 662
3 687 678 684
3 687 686 685
3 687 684 686
3 688 668 685
3 688 685 684
3 689 684 677
3 689 688 684
3 689 682 681
3 689 683 682
3 689 677 683
3 690 669 668
3 690 670 669
3 690 668 688
3 690 689 681
3 690 681 670
3 690 688 689
3 692 691 694
3 693 692 694
3 706 696 695
3 707 697 696
3 707 696 706
3 708 698 697
3 708 699 698
3 708 697 707
3 709 700 699
3 709 699 708
3 710 701 700
3 710 702 701
3 710 703 702
3 710 700 709
3 711 704 703
3 711 703 710
3 712 704 711
3 713 704 712
3 714 704 713
3 705 704 714
3 717 715 716
3 719 720 715
3 719 715 717
3 718 719 717
3 740 732 731
3 741 721 722
3 742 743 741
3 742 741 722
3 744 742 722
3 744 743 742
3 745 734 735
3 745 735 736
3 745 736 732
3 745 740 743
3 745 732 740
3 745 744 722
3 745 743 744
3 746 733 734
3 746 722 737
3 746 737 738
3 746 738 739
3 746 739 733
3 746 734 745
3 746 745 722
3 747 741 743
3 747 721 741
3 747 743 740
3 748 731 730
3 748 747 740
3 748 740 731
3 749 723 721
3 749 724 723
3 749 725 724
3 749 726 725
3 749 727 726
3 749 728 727
3 749 729 728
3 749 730 729
3 749 748 730
3 749 721 747
3 749 747 748
3 756 750 751
3 756 755 750
3 754 751 752
3 754 752 753
3 754 757 756
3 754 758 757
3 754 756 751
3 760 762 761
3 760 763 762
3 760 764 763
3 760 765 764
3 760 766 765
3 760 767 766
3 768 767 760
3 759 768 760
3 770 771 772
3 770 772 773
3 770 773 774
3 770 774 775
3 770 775 776
3 770 776 777
3 770 777 778
3 770 778 769
3 779 769 768
3 779 768 759
3 779 770 769
3 783 759 786
3 783 779 759
3 782 786 785
3 782 783 786
3 781 785 784
3 781 782 785
3 780 781 784
3 788 787 790
3 789 788 790
3 802 792 791
3 802 791 801
3 803 793 792
3 803 792 802
3 804 794 793
3 804 793 803
3 805 795 794
3 805 794 804
3 806 796 795
3 806 795 805
3 807 797 796
3 807 796 806
3 808 798 797
3 808 797 807
3 800 799 798
3 800 798 808
3 811 810 809
3 812 811 809
