ply
format ascii 1.0
comment generated by blendit.inference.finetune_visualize
element vertex 480
property float x
property float y
property float z
property uchar red
property uchar green
property uchar blue
element face 457
property list uchar int vertex_indices
end_header
0 66.3096164 39.1615846 218 222 230
6.10622664e-16 60.2399361 39.1615846 218 222 230
1.11022302e-16 57.5379583 40.3669919 218 222 230
1.12825896e-16 57.5476739 40.2776975 218 222 230
1.14779601e-16 57.5748512 40.1922187 218 222 230
1.16638309e-16 57.6157366 40.1121086 218 222 230
1.18830865e-16 57.6854971 40.0146785 218 222 230
1.21523152e-16 57.8114523 39.8866106 218 222 230
1.24531264e-16 58.0280547 39.7261677 218 222 230
1.27272024e-16 58.3854842 39.5368877 218 222 230
1.28802892e-16 58.957518 39.3350279 218 222 230
1.29597906e-16 59.5929936 39.2059481 218 222 230
-2.22044605e-16 57.5379583 83.5281416 218 222 230
-2.22044605e-16 0 83.5281416 218 222 230
0 -2.22044605e-16 1.20540729 218 222 230
0 1.20540729 -2.22044605e-16 218 222 230
0 0.93717893 0.0302220773 218 222 230
0 0.682400665 0.119372848 218 222 230
0 0.453848136 0.26298192 218 222 230
0 0.26298192 0.453848136 218 222 230
0 0.119372848 0.682400665 218 222 230
0 0.0302220773 0.93717893 218 222 230
0 66.3096164 -2.22044605e-16 218 222 230
0 67.5150237 1.20540729 218 222 230
0 67.4848016 0.93717893 218 222 230
0 67.3956508 0.682400665 218 222 230
0 67.2520417 0.453848136 218 222 230
0 67.0611755 0.26298192 218 222 230
0 66.832623 0.119372848 218 222 230
0 66.5778447 0.0302220773 218 222 230
0 67.5150237 37.9561774 218 222 230
0 66.5778447 39.1313626 218 222 230
0 66.832623 39.0422118 218 222 230
0 67.0611755 38.8986027 218 222 230
0 67.2520417 38.7077365 218 222 230
0 67.3956508 38.479184 218 222 230
0 67.4848016 38.2244057 218 222 230
58.6055845 48.4372395 39.1615846 218 222 230
58.6055845 66.3096164 39.1615846 218 222 230
0 66.3096164 39.1615846 218 222 230
6.10622664e-16 60.2399361 39.1615846 218 222 230
57.4001772 67.5150237 37.9561774 255 79 163
57.7072896 67.4752444 38.2632898 255 79 163
57.9941322 67.3585321 38.5501324 255 79 163
58.2417729 67.1725899 38.7977731 255 79 163
58.4175517 66.9561114 38.9735518 255 79 163
58.5294099 66.7313273 39.0854101 255 79 163
58.5882885 66.5130819 39.1442887 255 79 163
58.6012527 66.411716 39.1572529 255 79 163
58.6055845 66.3096164 39.1615846 255 79 163
0 67.5150237 37.9561774 255 79 163
0 66.3096164 39.1615846 255 79 163
0 66.5778447 39.1313626 255 79 163
0 66.832623 39.0422118 255 79 163
0 67.0611755 38.8986027 255 79 163
0 67.2520417 38.7077365 255 79 163
0 67.3956508 38.479184 255 79 163
0 67.4848016 38.2244057 255 79 163
6.10622664e-16 60.2399361 39.1615846 255 79 163
6.10622664e-16 60.2399361 39.1615846 255 79 163
1.11022302e-16 57.5379583 40.3669919 255 79 163
1.12825896e-16 57.5476739 40.2776975 255 79 163
1.14779601e-16 57.5748512 40.1922187 255 79 163
1.16638309e-16 57.6157366 40.1121086 255 79 163
1.18830865e-16 57.6854971 40.0146785 255 79 163
1.21523152e-16 57.8114523 39.8866106 255 79 163
1.24531264e-16 58.0280547 39.7261677 255 79 163
1.27272024e-16 58.3854842 39.5368877 255 79 163
1.28802892e-16 58.957518 39.3350279 255 79 163
1.29597906e-16 59.5929936 39.2059481 255 79 163
0.0322539901 57.8149378 40.3669919 255 79 163
0.127289222 58.0770951 40.3669919 255 79 163
0.280020581 58.3104 40.3669919 255 79 163
0.482274255 58.5023674 40.3669919 255 79 163
0.72322632 58.6427245 40.3669919 255 79 163
0.989982666 58.7239595 40.3669919 255 79 163
1.21689069 58.7433107 40.3669919 255 79 163
1.44338854 58.71964 40.3669919 255 79 163
1.17548832 58.8141709 40.0598795 255 79 163
0.92277693 58.984121 39.7730363 255 79 163
0.68373328 59.2219375 39.5253962 255 79 163
0.455934709 59.5155908 39.3333017 255 79 163
0.236216055 59.8493644 39.2094327 255 79 163
0.117773603 60.0429897 39.1736059 255 79 163
0.0372975659 58.2120432 39.7758542 255 79 163
0.12958931 58.4220773 39.797996 255 79 163
0.259467146 58.6020299 39.8216055 255 79 163
0.419358467 58.7430206 39.845498 255 79 163
0.60633934 58.8400996 39.8679889 255 79 163
0.0257760144 58.832378 39.428944 255 79 163
0.817275327 58.8909856 39.8878936 255 79 163
0.0872389281 58.9591754 39.4426198 255 79 163
0.170879224 59.0683668 39.4592131 255 79 163
0.271913368 59.1536077 39.4768595 255 79 163
0.390062294 59.2102793 39.4926249 255 79 163
0.525507491 59.2366571 39.5046448 255 79 163
0.0479880092 59.0086622 39.3895487 255 79 163
0.035652821 59.2765851 39.2987424 255 79 163
0.115971387 59.5993719 39.2567056 255 79 163
0.0800038627 59.7880073 39.2088231 255 79 163
0.060830026 59.8927958 39.1894804 255 79 163
0.0301681944 59.5928263 39.2265584 255 79 163
0.0246910653 59.7023118 39.2064297 255 79 163
0.0218648895 59.7627258 39.1969477 255 79 163
0.00777846854 59.5909042 39.215531 255 79 163
0.00702224207 59.6500894 39.2061856 255 79 163
0.00662751708 59.6826321 39.2014286 255 79 163
0.00188507914 59.6221823 39.2061729 255 79 163
0.00183233666 59.6390746 39.203788 255 79 163
0 67.5150237 1.20540729 218 222 230
0 67.5150237 37.9561774 218 222 230
57.4001772 67.5150237 37.9561774 218 222 230
57.4001772 67.5150237 1.20540729 218 222 230
-2.22044605e-16 57.5379583 83.5281416 255 79 163
0.0397792635 57.8450707 83.835254 255 79 163
0.156491568 58.1319133 84.1220966 255 79 163
0.342433743 58.379554 84.3697373 255 79 163
0.558912217 58.5553327 84.5455161 255 79 163
0.783696331 58.667191 84.6573743 255 79 163
1.00194181 58.7260696 84.7162529 255 79 163
1.10330764 58.7390338 84.7292171 255 79 163
1.20540729 58.7433655 84.7335489 255 79 163
1.28520057 58.7407216 84.7335489 255 79 163
1.36464382 58.7328015 84.7335489 255 79 163
1.44338854 58.71964 84.7335489 255 79 163
1.44338854 58.71964 40.3669919 255 79 163
1.11022302e-16 57.5379583 40.3669919 255 79 163
0.0322539901 57.8149378 40.3669919 255 79 163
0.127289222 58.0770951 40.3669919 255 79 163
0.280020581 58.3104 40.3669919 255 79 163
0.482274255 58.5023674 40.3669919 255 79 163
0.72322632 58.6427245 40.3669919 255 79 163
0.989982666 58.7239595 40.3669919 255 79 163
1.21689069 58.7433107 40.3669919 255 79 163
0 67.5150237 1.20540729 255 79 163
57.4001772 67.5150237 1.20540729 255 79 163
57.7072896 67.4752444 0.898294866 255 79 163
57.9941322 67.3585321 0.611452285 255 79 163
58.2417729 67.1725899 0.363811546 255 79 163
58.4175517 66.9561114 0.188032797 255 79 163
58.5294099 66.7313273 0.0761745392 255 79 163
58.5882885 66.5130819 0.0172959589 255 79 163
58.6012527 66.411716 0.0043317731 255 79 163
58.6055845 66.3096164 0 255 79 163
0 66.3096164 -2.22044605e-16 255 79 163
0 67.4848016 0.93717893 255 79 163
0 67.3956508 0.682400665 255 79 163
0 67.2520417 0.453848136 255 79 163
0 67.0611755 0.26298192 255 79 163
0 66.832623 0.119372848 255 79 163
0 66.5778447 0.0302220773 255 79 163
-2.22044605e-16 0 83.5281416 255 79 163
0.0302220773 0 83.79637 255 79 163
0.119372848 0 84.0511482 255 79 163
0.26298192 0 84.2797007 255 79 163
0.453848136 0 84.470567 255 79 163
0.682400665 0 84.614176 255 79 163
0.93717893 0 84.7033268 255 79 163
1.20540729 0 84.7335489 255 79 163
1.20540729 58.7433655 84.7335489 255 79 163
-2.22044605e-16 57.5379583 83.5281416 255 79 163
0.0397792635 57.8450707 83.835254 255 79 163
0.156491568 58.1319133 84.1220966 255 79 163
0.342433743 58.379554 84.3697373 255 79 163
0.558912217 58.5553327 84.5455161 255 79 163
0.783696331 58.667191 84.6573743 255 79 163
1.00194181 58.7260696 84.7162529 255 79 163
1.10330764 58.7390338 84.7292171 255 79 163
0 1.20540729 -2.22044605e-16 218 222 230
0 66.3096164 -2.22044605e-16 218 222 230
58.6055845 1.20540729 0 218 222 230
58.6055845 66.3096164 0 218 222 230
57.4001772 -1.11022302e-15 30.3618442 218 222 230
8.76486083 0 30.3618442 218 222 230
57.4001772 -2.22044605e-16 1.20540729 218 222 230
0 -2.22044605e-16 1.20540729 218 222 230
-2.22044605e-16 0 83.5281416 218 222 230
0.0302220773 0 83.79637 218 222 230
0.119372848 0 84.0511482 218 222 230
0.26298192 0 84.2797007 218 222 230
0.453848136 0 84.470567 218 222 230
0.682400665 0 84.614176 218 222 230
0.93717893 0 84.7033268 218 222 230
1.20540729 0 84.7335489 218 222 230
7.55945355 -2.22044605e-16 84.7335489 218 222 230
7.55945355 -2.22044605e-16 30.3618442 218 222 230
0 1.20540729 -2.22044605e-16 255 79 163
58.6055845 1.20540729 0 255 79 163
57.4001772 -2.22044605e-16 1.20540729 255 79 163
57.7072896 0.0397792635 0.898294866 255 79 163
57.9941322 0.156491568 0.611452285 255 79 163
58.2417729 0.342433743 0.363811546 255 79 163
58.4175517 0.558912217 0.188032797 255 79 163
58.5294099 0.783696331 0.0761745392 255 79 163
58.5882885 1.00194181 0.0172959589 255 79 163
58.6012527 1.10330764 0.0043317731 255 79 163
0 -2.22044605e-16 1.20540729 255 79 163
0 0.93717893 0.0302220773 255 79 163
0 0.682400665 0.119372848 255 79 163
0 0.453848136 0.26298192 255 79 163
0 0.26298192 0.453848136 255 79 163
0 0.119372848 0.682400665 255 79 163
0 0.0302220773 0.93717893 255 79 163
58.6055845 23.8270387 84.7335489 218 222 230
58.6055845 47.2076303 84.7335489 218 222 230
58.6055845 1.20540729 30.1220658 218 222 230
58.6055845 1.20540729 0 218 222 230
58.6055845 66.3096164 0 218 222 230
58.6055845 66.3096164 39.1615846 218 222 230
58.6055845 48.4372395 39.1615846 218 222 230
58.6055845 47.2076303 40.3669919 218 222 230
58.6055845 47.2398883 40.0926978 218 222 230
58.6055845 47.3349696 39.8327955 218 222 230
58.6055845 47.4878856 39.6009218 218 222 230
58.6055845 47.6906128 39.4092427 218 222 230
58.6055845 47.9325146 39.2678154 218 222 230
58.6055845 48.1791262 39.1884415 218 222 230
1.44338854 58.71964 40.3669919 255 79 163
1.17548832 58.8141709 40.0598795 255 79 163
0.92277693 58.984121 39.7730363 255 79 163
0.68373328 59.2219375 39.5253962 255 79 163
0.455934709 59.5155908 39.3333017 255 79 163
0.236216055 59.8493644 39.2094327 255 79 163
0.117773603 60.0429897 39.1736059 255 79 163
6.10622664e-16 60.2399361 39.1615846 255 79 163
58.6055845 48.4372395 39.1615846 255 79 163
58.6055845 47.2076303 40.3669919 255 79 163
58.6055845 47.2398883 40.0926978 255 79 163
58.6055845 47.3349696 39.8327955 255 79 163
58.6055845 47.4878856 39.6009218 255 79 163
58.6055845 47.6906128 39.4092427 255 79 163
58.6055845 47.9325146 39.2678154 255 79 163
58.6055845 48.1791262 39.1884415 255 79 163
57.4001772 67.5150237 1.20540729 255 79 163
57.4001772 67.5150237 37.9561774 255 79 163
57.7072896 67.4752444 38.2632898 255 79 163
57.9941322 67.3585321 38.5501324 255 79 163
58.2417729 67.1725899 38.7977731 255 79 163
58.4175517 66.9561114 38.9735518 255 79 163
58.5294099 66.7313273 39.0854101 255 79 163
58.5882885 66.5130819 39.1442887 255 79 163
58.6012527 66.411716 39.1572529 255 79 163
58.6055845 66.3096164 39.1615846 255 79 163
58.6055845 66.3096164 0 255 79 163
57.7072896 67.4752444 0.898294866 255 79 163
57.9941322 67.3585321 0.611452285 255 79 163
58.2417729 67.1725899 0.363811546 255 79 163
58.4175517 66.9561114 0.188032797 255 79 163
58.5294099 66.7313273 0.0761745392 255 79 163
58.5882885 66.5130819 0.0172959589 255 79 163
58.6012527 66.411716 0.0043317731 255 79 163
1.44338854 58.71964 84.7335489 218 222 230
58.6055845 47.2076303 84.7335489 218 222 230
1.20540729 58.7433655 84.7335489 218 222 230
1.28520057 58.7407216 84.7335489 218 222 230
1.36464382 58.7328015 84.7335489 218 222 230
1.20540729 0 84.7335489 218 222 230
7.55945355 -2.22044605e-16 84.7335489 218 222 230
7.55945355 23.3277247 84.7335489 218 222 230
58.5138224 23.3277247 84.7335489 218 222 230
58.5770096 23.5446344 84.7335489 218 222 230
58.5984195 23.6849922 84.7335489 218 222 230
58.6055845 23.8270387 84.7335489 218 222 230
41.4174125 25.8845614 84.7335489 218 222 230
41.3883543 26.1238771 84.7335489 218 222 230
41.3028685 26.3492846 84.7335489 218 222 230
41.1659232 26.5476841 84.7335489 218 222 230
40.9854772 26.7075453 84.7335489 218 222 230
40.7720174 26.8195777 84.7335489 218 222 230
40.5379492 26.8772703 84.7335489 218 222 230
40.2968758 26.8772703 84.7335489 218 222 230
40.0628076 26.8195777 84.7335489 218 222 230
39.8493477 26.7075453 84.7335489 218 222 230
39.6689017 26.5476841 84.7335489 218 222 230
39.5319565 26.3492846 84.7335489 218 222 230
39.4464707 26.1238771 84.7335489 218 222 230
39.4174125 25.8845614 84.7335489 218 222 230
39.4464707 25.6452458 84.7335489 218 222 230
39.5319565 25.4198383 84.7335489 218 222 230
39.6689017 25.2214388 84.7335489 218 222 230
39.8493477 25.0615776 84.7335489 218 222 230
40.0628076 24.9495452 84.7335489 218 222 230
40.2968758 24.8918526 84.7335489 218 222 230
40.5379492 24.8918526 84.7335489 218 222 230
40.7720174 24.9495452 84.7335489 218 222 230
40.9854772 25.0615776 84.7335489 218 222 230
41.1659232 25.2214388 84.7335489 218 222 230
41.3028685 25.4198383 84.7335489 218 222 230
41.3883543 25.6452458 84.7335489 218 222 230
58.6055845 47.2076303 84.7335489 218 222 230
58.6055845 47.2076303 40.3669919 218 222 230
1.44338854 58.71964 84.7335489 218 222 230
1.44338854 58.71964 40.3669919 218 222 230
57.4001772 -1.11022302e-15 30.3618442 218 222 230
8.76486083 0 30.3618442 218 222 230
7.55945355 -2.22044605e-16 30.3618442 218 222 230
7.65540437 0.00382492738 30.371078 218 222 230
7.75074627 0.0152754354 30.398721 218 222 230
7.84487416 0.0342788561 30.4445977 218 222 230
7.9371907 0.0607145881 30.5084169 218 222 230
8.05645125 0.107226969 30.6207036 218 222 230
8.18385507 0.17432559 30.7826882 218 222 230
8.33957042 0.286481611 31.0534471 218 222 230
8.53497227 0.497332465 31.5624677 218 222 230
8.7059491 0.833177953 32.3732413 218 222 230
8.76486083 1.20540729 33.27185 218 222 230
8.76486083 22.0229944 83.5281416 218 222 230
8.6730988 22.2140795 83.9894452 218 222 230
8.73628602 22.1310692 83.7890478 218 222 230
8.75769584 22.0773549 83.6593748 218 222 230
57.4001772 22.2140795 83.9894452 218 222 230
57.4001772 -2.22044605e-16 1.20540729 255 79 163
57.7072896 0.0397792635 0.898294866 255 79 163
57.9941322 0.156491568 0.611452285 255 79 163
58.2417729 0.342433743 0.363811546 255 79 163
58.4175517 0.558912217 0.188032797 255 79 163
58.5294099 0.783696331 0.0761745392 255 79 163
58.5882885 1.00194181 0.0172959589 255 79 163
58.6012527 1.10330764 0.0043317731 255 79 163
58.6055845 1.20540729 0 255 79 163
58.6055845 1.20540729 30.1220658 255 79 163
58.5733293 0.928422256 30.1771634 255 79 163
58.4782902 0.666260738 30.2293123 255 79 163
58.3255533 0.432952925 30.2757216 255 79 163
58.1232927 0.240984838 30.3139077 255 79 163
57.8823329 0.100630103 30.3418269 255 79 163
57.6464496 0.025425678 30.3567865 255 79 163
57.4001772 -1.11022302e-15 30.3618442 255 79 163
7.55945355 -2.22044605e-16 84.7335489 255 79 163
7.55945355 -2.22044605e-16 30.3618442 255 79 163
7.65540437 0.00382492738 30.371078 255 79 163
7.75074627 0.0152754354 30.398721 255 79 163
7.84487416 0.0342788561 30.4445977 255 79 163
7.9371907 0.0607145881 30.5084169 255 79 163
8.05645125 0.107226969 30.6207036 255 79 163
8.18385507 0.17432559 30.7826882 255 79 163
8.33957042 0.286481611 31.0534471 255 79 163
8.53497227 0.497332465 31.5624677 255 79 163
8.7059491 0.833177953 32.3732413 255 79 163
8.76486083 1.20540729 33.27185 255 79 163
8.76486083 1.20540729 83.5281416 255 79 163
7.76988394 0.0185097441 84.7150391 255 79 163
7.97385177 0.0734705201 84.6600784 255 79 163
8.16509293 0.163194417 84.5703545 255 79 163
8.33773419 0.284925909 84.448623 255 79 163
8.48647353 0.434926475 84.2986224 255 79 163
8.60674298 0.608589422 84.1249595 255 79 163
8.71657225 0.86764547 83.8659034 255 79 163
8.75272762 1.0348092 83.6987397 255 79 163
57.4001772 -1.11022302e-15 30.3618442 255 79 163
57.4001772 22.2140795 83.9894452 255 79 163
58.6055845 1.20540729 30.1220658 255 79 163
58.5733293 0.928422256 30.1771634 255 79 163
58.4782902 0.666260738 30.2293123 255 79 163
58.3255533 0.432952925 30.2757216 255 79 163
58.1232927 0.240984838 30.3139077 255 79 163
57.8823329 0.100630103 30.3418269 255 79 163
57.6464496 0.025425678 30.3567865 255 79 163
58.6055845 23.8270387 84.7335489 255 79 163
58.5138224 23.3277247 84.7335489 255 79 163
58.5770096 23.5446344 84.7335489 255 79 163
58.5984195 23.6849922 84.7335489 255 79 163
57.7771636 22.4142144 84.3145929 255 79 163
58.0851298 22.6734704 84.5405437 255 79 163
58.3152607 22.953032 84.6738344 255 79 163
58.4273425 23.1380141 84.7185267 255 79 163
58.5138224 23.3277247 84.7335489 255 79 163
7.55945355 23.3277247 84.7335489 255 79 163
7.93644001 22.9507382 84.6730817 255 79 163
8.24440621 22.642772 84.520032 255 79 163
8.47453706 22.4126412 84.3127618 255 79 163
8.58661883 22.3005594 84.158965 255 79 163
8.6730988 22.2140795 83.9894452 255 79 163
57.4001772 22.2140795 83.9894452 255 79 163
57.7771636 22.4142144 84.3145929 255 79 163
58.0851298 22.6734704 84.5405437 255 79 163
58.3152607 22.953032 84.6738344 255 79 163
58.4273425 23.1380141 84.7185267 255 79 163
7.55945355 23.3277247 84.7335489 255 79 163
7.55945355 -2.22044605e-16 84.7335489 255 79 163
7.76988394 0.0185097441 84.7150391 255 79 163
7.97385177 0.0734705201 84.6600784 255 79 163
8.16509293 0.163194417 84.5703545 255 79 163
8.33773419 0.284925909 84.448623 255 79 163
8.48647353 0.434926475 84.2986224 255 79 163
8.60674298 0.608589422 84.1249595 255 79 163
8.71657225 0.86764547 83.8659034 255 79 163
8.75272762 1.0348092 83.6987397 255 79 163
8.76486083 1.20540729 83.5281416 255 79 163
8.76486083 22.0229944 83.5281416 255 79 163
8.6730988 22.2140795 83.9894452 255 79 163
8.73628602 22.1310692 83.7890478 255 79 163
8.75769584 22.0773549 83.6593748 255 79 163
7.93644001 22.9507382 84.6730817 255 79 163
8.24440621 22.642772 84.520032 255 79 163
8.47453706 22.4126412 84.3127618 255 79 163
8.58661883 22.3005594 84.158965 255 79 163
41.4174125 25.8845614 84.7335489 218 222 230
41.4174125 25.8845614 42.4470038 218 222 230
41.3883543 26.1238771 42.4470038 218 222 230
41.3028685 26.3492846 42.4470038 218 222 230
41.1659232 26.5476841 42.4470038 218 222 230
40.9854772 26.7075453 42.4470038 218 222 230
40.7720174 26.8195777 42.4470038 218 222 230
40.5379492 26.8772703 42.4470038 218 222 230
40.2968758 26.8772703 42.4470038 218 222 230
40.0628076 26.8195777 42.4470038 218 222 230
39.8493477 26.7075453 42.4470038 218 222 230
39.6689017 26.5476841 42.4470038 218 222 230
39.5319565 26.3492846 42.4470038 218 222 230
39.4464707 26.1238771 42.4470038 218 222 230
39.4174125 25.8845614 42.4470038 218 222 230
39.4464707 25.6452458 42.4470038 218 222 230
39.5319565 25.4198383 42.4470038 218 222 230
39.6689017 25.2214388 42.4470038 218 222 230
39.8493477 25.0615776 42.4470038 218 222 230
40.0628076 24.9495452 42.4470038 218 222 230
40.2968758 24.8918526 42.4470038 218 222 230
40.5379492 24.8918526 42.4470038 218 222 230
40.7720174 24.9495452 42.4470038 218 222 230
40.9854772 25.0615776 42.4470038 218 222 230
41.1659232 25.2214388 42.4470038 218 222 230
41.3028685 25.4198383 42.4470038 218 222 230
41.3883543 25.6452458 42.4470038 218 222 230
41.4174125 25.8845614 42.4470038 218 222 230
41.4174125 25.8845614 84.7335489 218 222 230
41.3883543 26.1238771 84.7335489 218 222 230
41.3028685 26.3492846 84.7335489 218 222 230
41.1659232 26.5476841 84.7335489 218 222 230
40.9854772 26.7075453 84.7335489 218 222 230
40.7720174 26.8195777 84.7335489 218 222 230
40.5379492 26.8772703 84.7335489 218 222 230
40.2968758 26.8772703 84.7335489 218 222 230
40.0628076 26.8195777 84.7335489 218 222 230
39.8493477 26.7075453 84.7335489 218 222 230
39.6689017 26.5476841 84.7335489 218 222 230
39.5319565 26.3492846 84.7335489 218 222 230
39.4464707 26.1238771 84.7335489 218 222 230
39.4174125 25.8845614 84.7335489 218 222 230
39.4464707 25.6452458 84.7335489 218 222 230
39.5319565 25.4198383 84.7335489 218 222 230
39.6689017 25.2214388 84.7335489 218 222 230
39.8493477 25.0615776 84.7335489 218 222 230
40.0628076 24.9495452 84.7335489 218 222 230
40.2968758 24.8918526 84.7335489 218 222 230
40.5379492 24.8918526 84.7335489 218 222 230
40.7720174 24.9495452 84.7335489 218 222 230
40.9854772 25.0615776 84.7335489 218 222 230
41.1659232 25.2214388 84.7335489 218 222 230
41.3028685 25.4198383 84.7335489 218 222 230
41.3883543 25.6452458 84.7335489 218 222 230
8.76486083 1.20540729 33.27185 218 222 230
8.76486083 22.0229944 83.5281416 218 222 230
8.76486083 1.20540729 83.5281416 218 222 230
41.4174125 25.8845614 42.4470038 218 222 230
41.3883543 26.1238771 42.4470038 218 222 230
41.3028685 26.3492846 42.4470038 218 222 230
41.1659232 26.5476841 42.4470038 218 222 230
40.9854772 26.7075453 42.4470038 218 222 230
40.7720174 26.8195777 42.4470038 218 222 230
40.5379492 26.8772703 42.4470038 218 222 230
40.2968758 26.8772703 42.4470038 218 222 230
40.0628076 26.8195777 42.4470038 218 222 230
39.8493477 26.7075453 42.4470038 218 222 230
39.6689017 26.5476841 42.4470038 218 222 230
39.5319565 26.3492846 42.4470038 218 222 230
39.4464707 26.1238771 42.4470038 218 222 230
39.4174125 25.8845614 42.4470038 218 222 230
39.4464707 25.6452458 42.4470038 218 222 230
39.5319565 25.4198383 42.4470038 218 222 230
39.6689017 25.2214388 42.4470038 218 222 230
39.8493477 25.0615776 42.4470038 218 222 230
40.0628076 24.9495452 42.4470038 218 222 230
40.2968758 24.8918526 42.4470038 218 222 230
40.5379492 24.8918526 42.4470038 218 222 230
40.7720174 24.9495452 42.4470038 218 222 230
40.9854772 25.0615776 42.4470038 218 222 230
41.1659232 25.2214388 42.4470038 218 222 230
41.3028685 25.4198383 42.4470038 218 222 230
41.3883543 25.6452458 42.4470038 218 222 230
3 28 26 27
3 25 26 28
3 24 25 28
3 22 28 29
3 22 24 28
3 23 24 22
3 35 36 30
3 33 34 35
3 33 35 30
3 0 31 32
3 0 32 33
3 0 33 30
3 1 30 23
3 1 0 30
3 11 1 23
3 10 11 23
3 9 23 22
3 9 10 23
3 8 9 22
3 7 8 22
3 15 4 5
3 15 5 6
3 15 6 7
3 15 7 22
3 17 15 16
3 19 17 18
3 19 15 17
3 21 19 20
3 14 2 3
3 14 15 19
3 14 3 4
3 14 19 21
3 14 4 15
3 13 12 2
3 13 2 14
3 38 39 40
3 38 40 37
3 51 49 48
3 52 47 46
3 52 48 47
3 52 51 48
3 53 46 45
3 53 52 46
3 54 45 44
3 54 53 45
3 55 44 43
3 55 54 44
3 56 43 42
3 56 55 43
3 57 42 41
3 57 56 42
3 50 57 41
3 70 61 60
3 62 61 70
3 63 62 70
3 71 63 70
3 64 63 71
3 72 64 71
3 78 74 75
3 78 75 76
3 78 76 77
3 84 66 65
3 84 67 66
3 85 65 64
3 85 84 65
3 85 67 84
3 85 64 72
3 86 72 73
3 86 85 72
3 87 73 74
3 87 86 73
3 88 87 74
3 88 74 78
3 89 68 67
3 90 78 79
3 90 88 78
3 90 79 88
3 91 67 85
3 91 89 67
3 92 85 86
3 92 91 85
3 93 92 86
3 93 86 87
3 94 93 87
3 94 87 88
3 94 88 79
3 95 79 80
3 95 80 81
3 95 94 79
3 95 81 94
3 96 68 89
3 96 91 92
3 96 89 91
3 97 69 68
3 97 68 96
3 97 96 92
3 98 81 82
3 98 93 94
3 98 94 81
3 98 92 93
3 98 97 92
3 99 98 82
3 100 58 59
3 100 82 83
3 100 83 58
3 100 99 82
3 101 97 98
3 101 98 99
3 102 101 99
3 103 102 99
3 103 100 59
3 103 99 100
3 104 97 101
3 104 101 102
3 104 69 97
3 105 104 102
3 106 102 103
3 106 103 59
3 106 105 102
3 107 69 104
3 107 104 105
3 108 59 69
3 108 69 107
3 108 106 59
3 108 105 106
3 108 107 105
3 112 109 110
3 111 112 110
3 127 113 114
3 127 126 113
3 128 114 115
3 128 127 114
3 129 115 116
3 129 128 115
3 130 116 117
3 130 129 116
3 131 117 118
3 131 130 117
3 132 118 119
3 132 119 120
3 132 131 118
3 133 120 121
3 133 121 122
3 133 122 123
3 133 132 120
3 125 123 124
3 125 133 123
3 142 143 144
3 142 144 150
3 141 142 150
3 140 150 149
3 140 141 150
3 139 149 148
3 139 140 149
3 138 148 147
3 138 139 148
3 137 147 146
3 137 138 147
3 136 146 145
3 136 137 146
3 135 145 134
3 135 136 145
3 160 151 152
3 161 152 153
3 161 160 152
3 162 153 154
3 162 161 153
3 163 154 155
3 163 162 154
3 164 155 156
3 164 163 155
3 165 156 157
3 165 164 156
3 166 165 157
3 167 157 158
3 167 166 157
3 159 167 158
3 171 168 169
3 171 170 168
3 173 185 175
3 174 173 175
3 176 175 185
3 181 179 178
3 181 180 179
3 183 177 176
3 183 178 177
3 183 182 181
3 183 181 178
3 172 173 174
3 184 176 185
3 184 183 176
3 188 196 202
3 189 202 201
3 189 188 202
3 190 201 200
3 190 189 201
3 191 200 199
3 191 190 200
3 192 199 198
3 192 191 199
3 193 198 197
3 193 192 198
3 194 193 197
3 195 197 186
3 195 194 197
3 187 195 186
3 209 207 208
3 216 207 209
3 215 207 216
3 206 215 214
3 206 207 215
3 205 211 210
3 205 212 211
3 205 213 212
3 205 214 213
3 205 206 214
3 203 210 204
3 203 205 210
3 227 218 217
3 227 217 226
3 228 219 218
3 228 218 227
3 229 220 219
3 229 219 228
3 230 221 220
3 230 220 229
3 231 222 221
3 231 221 230
3 232 223 222
3 232 222 231
3 225 224 223
3 225 223 232
3 242 243 250
3 241 250 249
3 241 242 250
3 240 249 248
3 240 241 249
3 239 248 247
3 239 240 248
3 238 247 246
3 238 239 247
3 237 246 245
3 237 238 246
3 236 245 244
3 236 237 245
3 235 244 233
3 235 236 244
3 234 235 233
3 258 256 257
3 253 256 258
3 255 254 253
3 251 253 258
3 251 255 253
3 278 258 279
3 277 258 278
3 276 258 277
3 275 258 276
3 274 258 275
3 273 251 258
3 273 258 274
3 272 251 273
3 271 251 272
3 259 284 283
3 259 285 284
3 259 286 285
3 259 287 286
3 259 288 287
3 259 263 288
3 261 259 260
3 262 263 259
3 262 259 261
3 262 264 263
3 262 265 264
3 262 266 265
3 252 266 262
3 252 267 266
3 252 268 267
3 252 269 268
3 252 270 269
3 252 271 270
3 252 251 271
3 258 259 282
3 282 259 283
3 258 282 281
3 258 281 280
3 258 280 279
3 290 292 291
3 289 290 291
3 294 296 295
3 294 297 296
3 294 298 297
3 294 299 298
3 294 300 299
3 294 301 300
3 302 301 294
3 303 302 294
3 304 303 294
3 305 304 294
3 293 305 294
3 310 306 305
3 310 307 308
3 310 308 309
3 310 309 306
3 310 305 293
3 326 311 312
3 326 327 311
3 325 312 313
3 325 326 312
3 324 313 314
3 324 325 313
3 323 314 315
3 323 324 314
3 322 315 316
3 322 323 315
3 321 316 317
3 321 317 318
3 321 322 316
3 320 318 319
3 320 321 318
3 339 340 348
3 338 347 346
3 338 348 347
3 338 339 348
3 337 346 345
3 337 338 346
3 336 345 344
3 336 337 345
3 335 344 343
3 335 336 344
3 334 343 342
3 334 335 343
3 333 334 342
3 332 342 341
3 332 333 342
3 331 332 341
3 330 341 328
3 330 331 341
3 329 330 328
3 350 349 357
3 362 357 356
3 362 350 357
3 363 356 355
3 363 362 356
3 364 355 354
3 364 363 355
3 365 354 353
3 365 364 354
3 359 353 352
3 359 365 353
3 360 359 352
3 361 352 351
3 361 360 352
3 358 361 351
3 371 372 373
3 371 373 374
3 370 371 374
3 369 374 375
3 369 370 374
3 368 375 376
3 368 376 377
3 368 369 375
3 367 377 366
3 367 368 377
3 388 389 392
3 387 392 391
3 387 388 392
3 386 391 390
3 386 387 391
3 385 390 396
3 385 386 390
3 384 396 395
3 384 385 396
3 383 395 394
3 383 384 395
3 382 394 393
3 382 383 394
3 381 382 393
3 380 393 378
3 380 381 393
3 379 380 378
3 426 398 397
3 426 399 398
3 427 400 399
3 427 399 426
3 428 401 400
3 428 402 401
3 428 400 427
3 429 402 428
3 430 403 402
3 430 404 403
3 430 402 429
3 431 404 430
3 432 405 404
3 432 406 405
3 432 404 431
3 433 406 432
3 434 407 406
3 434 406 433
3 435 408 407
3 435 409 408
3 435 407 434
3 436 409 435
3 437 409 436
3 437 410 409
3 437 411 410
3 438 411 437
3 439 412 411
3 439 411 438
3 440 413 412
3 440 412 439
3 441 414 413
3 441 415 414
3 441 413 440
3 442 416 415
3 442 415 441
3 443 416 442
3 444 417 416
3 444 416 443
3 445 418 417
3 445 419 418
3 445 417 444
3 446 420 419
3 446 419 445
3 447 421 420
3 447 420 446
3 448 421 447
3 449 422 421
3 449 423 422
3 449 421 448
3 450 423 449
3 425 424 423
3 425 423 450
3 453 451 452
3 465 466 467
3 463 464 465
3 461 462 463
3 461 463 465
3 454 478 479
3 460 467 468
3 460 468 469
3 460 469 470
3 460 470 471
3 460 465 467
3 460 461 465
3 459 460 471
3 458 471 472
3 458 472 473
3 458 473 474
3 458 459 471
3 457 454 455
3 457 455 456
3 457 474 475
3 457 475 476
3 457 476 477
3 457 477 478
3 457 478 454
3 457 458 474
