ply
format ascii 1.0
comment generated by blendit.inference.finetune_visualize
element vertex 592
property float x
property float y
property float z
property uchar red
property uchar green
property uchar blue
element face 516
property list uchar int vertex_indices
end_header
0 1.07162516 56.3059024 218 222 230
-2.22044605e-16 4.90475168 56.3059024 218 222 230
-2.22044605e-16 1.07162516 0 218 222 230
0 79.2110732 -2.22044605e-16 218 222 230
0 80.2826983 1.07162516 218 222 230
0 80.2558304 0.833166127 218 222 230
0 80.1765741 0.606664428 218 222 230
0 80.0489034 0.403477801 218 222 230
0 79.8792205 0.233794872 218 222 230
0 79.6760339 0.106124253 218 222 230
0 79.4495322 0.0268678801 218 222 230
0 80.2826983 55.2342772 218 222 230
0 38.1964109 55.2342772 218 222 230
0 38.1964109 6.76726704 218 222 230
-2.22044605e-16 38.1964109 5.69564188 218 222 230
-2.22044605e-16 4.90475168 5.69564188 218 222 230
0 1.07162516 56.3059024 218 222 230
-2.22044605e-16 4.90475168 56.3059024 218 222 230
38.9071288 1.07162516 56.3059024 218 222 230
38.9071288 5.97637684 56.3059024 218 222 230
1.07162516 5.97637684 56.3059024 218 222 230
0.0268678801 5.14321071 56.3059024 218 222 230
0.106124253 5.36971241 56.3059024 218 222 230
0.233794872 5.57289904 56.3059024 218 222 230
0.403477801 5.74258197 56.3059024 218 222 230
0.606664428 5.87025259 56.3059024 218 222 230
0.833166127 5.94950896 56.3059024 218 222 230
-2.22044605e-16 1.07162516 0 255 79 163
0.0149963139 0.892974759 0.0149963139 255 79 163
0.059565539 0.719324425 0.059565539 255 79 163
0.132460273 0.555534277 0.132460273 255 79 163
0.231640338 0.406188474 0.231640338 255 79 163
0.354329885 0.275466901 0.354329885 255 79 163
0.497095081 0.167028193 0.497095081 255 79 163
0.711704142 0.0622504303 0.711704142 255 79 163
0.88899284 0.0156772825 0.88899284 255 79 163
1.07162516 -2.22044605e-16 1.07162516 255 79 163
1.07162516 -2.22044605e-16 55.2342772 255 79 163
0 1.07162516 56.3059024 255 79 163
0.0149963139 0.892974759 56.2909061 255 79 163
0.059565539 0.719324425 56.2463368 255 79 163
0.132460273 0.555534277 56.1734421 255 79 163
0.231640338 0.406188474 56.074262 255 79 163
0.354329885 0.275466901 55.9515725 255 79 163
0.497095081 0.167028193 55.8088073 255 79 163
0.711704142 0.0622504303 55.5941982 255 79 163
0.88899284 0.0156772825 55.4169095 255 79 163
-2.22044605e-16 4.90475168 5.69564188 255 79 163
-2.22044605e-16 4.90475168 56.3059024 255 79 163
0.0268678801 5.14321071 56.3059024 255 79 163
0.106124253 5.36971241 56.3059024 255 79 163
0.233794872 5.57289904 56.3059024 255 79 163
0.403477801 5.74258197 56.3059024 255 79 163
0.606664428 5.87025259 56.3059024 255 79 163
0.833166127 5.94950896 56.3059024 255 79 163
1.07162516 5.97637684 56.3059024 255 79 163
1.07162516 5.97637684 6.76726704 255 79 163
0.0365147418 5.18210868 5.97299888 255 79 163
0.143570548 5.44056426 6.23145446 255 79 163
0.313871742 5.6625051 6.4533953 255 79 163
0.511702551 5.81846233 6.60935253 255 79 163
0.695195628 5.90808676 6.69897696 255 79 163
0.872228272 5.95766258 6.74855278 255 79 163
0.971488574 5.97168802 6.76257822 255 79 163
-2.22044605e-16 1.07162516 0 218 222 230
0 79.2110732 -2.22044605e-16 218 222 230
38.9071288 1.07162516 0 218 222 230
38.9071288 79.2110732 -2.22044605e-16 218 222 230
11.2686241 26.907816 0 218 222 230
9.67286834 27.4425213 0 218 222 230
11.6034336 25.2584984 0 218 222 230
10.3424874 24.1438861 0 218 222 230
8.74673169 24.6785913 0 218 222 230
8.41192216 26.3279089 0 218 222 230
1.99043771 41.4438808 0 218 222 230
1.66955856 42.0623004 0 218 222 230
1.717733 43.1328422 0 218 222 230
1.61750315 42.9324833 0 218 222 230
1.56112052 42.7156637 0 218 222 230
1.55104932 42.4918595 0 218 222 230
1.5877297 42.2708521 0 218 222 230
2.09286058 43.7199416 0 218 222 230
2.23255714 43.8950832 0 218 222 230
2.405615 44.0373531 0 218 222 230
2.6044707 44.1405333 0 218 222 230
2.82043329 44.2001143 0 218 222 230
3.04406417 44.2134922 0 218 222 230
4.35814848 44.1543583 0 218 222 230
5.24893078 42.4375833 0 218 222 230
4.20755118 40.8077557 0 218 222 230
2.89346687 40.8668896 0 218 222 230
2.11383873 41.2568997 0 218 222 230
2.2734187 41.0996611 0 218 222 230
2.4622032 40.9790371 0 218 222 230
2.67194145 40.9002995 0 218 222 230
-2.22044605e-16 38.1964109 5.69564188 255 79 163
-2.22044605e-16 4.90475168 5.69564188 255 79 163
0.0365147418 5.18210868 5.97299888 255 79 163
0.143570548 5.44056426 6.23145446 255 79 163
0.313871742 5.6625051 6.4533953 255 79 163
0.511702551 5.81846233 6.60935253 255 79 163
0.695195628 5.90808676 6.69897696 255 79 163
0.872228272 5.95766258 6.74855278 255 79 163
0.971488574 5.97168802 6.76257822 255 79 163
1.07162516 5.97637684 6.76726704 255 79 163
1.07162516 38.1964109 6.76726704 255 79 163
0.0268678801 38.1964109 5.93410091 255 79 163
0.106124253 38.1964109 6.16060261 255 79 163
0.233794872 38.1964109 6.36378924 255 79 163
0.403477801 38.1964109 6.53347217 255 79 163
0.606664428 38.1964109 6.66114279 255 79 163
0.833166127 38.1964109 6.74039916 255 79 163
0 80.2826983 1.07162516 218 222 230
38.9071288 80.2826983 1.07162516 218 222 230
38.9071288 80.2558304 0.833166127 218 222 230
38.9071288 80.1765741 0.606664428 218 222 230
38.9071288 80.0489034 0.403477801 218 222 230
38.9071288 79.8792205 0.233794872 218 222 230
38.9071288 79.6760339 0.106124253 218 222 230
38.9071288 79.4495322 0.0268678801 218 222 230
38.9071288 79.2110732 -2.22044605e-16 218 222 230
0 79.2110732 -2.22044605e-16 218 222 230
0 80.2558304 0.833166127 218 222 230
0 80.1765741 0.606664428 218 222 230
0 80.0489034 0.403477801 218 222 230
0 79.8792205 0.233794872 218 222 230
0 79.6760339 0.106124253 218 222 230
0 79.4495322 0.0268678801 218 222 230
0 38.1964109 55.2342772 218 222 230
0 38.1964109 6.76726704 218 222 230
37.8355037 38.1964109 55.2342772 218 222 230
37.8355037 38.1964109 6.76726704 218 222 230
1.07162516 38.1964109 6.76726704 218 222 230
-2.22044605e-16 38.1964109 5.69564188 218 222 230
0.0268678801 38.1964109 5.93410091 218 222 230
0.106124253 38.1964109 6.16060261 218 222 230
0.233794872 38.1964109 6.36378924 218 222 230
0.403477801 38.1964109 6.53347217 218 222 230
0.606664428 38.1964109 6.66114279 218 222 230
0.833166127 38.1964109 6.74039916 218 222 230
38.9071288 80.2826983 1.07162516 218 222 230
38.9071288 80.2826983 55.2342772 218 222 230
0 80.2826983 1.07162516 218 222 230
0 80.2826983 55.2342772 218 222 230
0 38.1964109 55.2342772 255 79 163
0.0149963139 38.2114072 55.4129276 255 79 163
0.059565539 38.2559764 55.586578 255 79 163
0.132460273 38.3288712 55.7503681 255 79 163
0.231640338 38.4280512 55.8997139 255 79 163
0.354329885 38.5507408 56.0304355 255 79 163
0.497095081 38.693506 56.1388742 255 79 163
0.711704142 38.908115 56.243652 255 79 163
0.88899284 39.0854037 56.2902251 255 79 163
1.07162516 39.2680361 56.3059024 255 79 163
1.07162516 79.2110732 56.3059024 255 79 163
0.794268158 79.4884302 56.2693876 255 79 163
0.535812579 79.7468857 56.1623318 255 79 163
0.313871742 79.9688266 55.9920306 255 79 163
0.157914507 80.1247838 55.7941998 255 79 163
0.0682900752 80.2144082 55.6107068 255 79 163
0.0187142592 80.2639841 55.4336741 255 79 163
0.00468882261 80.2780095 55.3344138 255 79 163
0 80.2826983 55.2342772 255 79 163
0 1.07162516 56.3059024 255 79 163
0.0149963139 0.892974759 56.2909061 255 79 163
0.059565539 0.719324425 56.2463368 255 79 163
0.132460273 0.555534277 56.1734421 255 79 163
0.231640338 0.406188474 56.074262 255 79 163
0.354329885 0.275466901 55.9515725 255 79 163
0.497095081 0.167028193 55.8088073 255 79 163
0.711704142 0.0622504303 55.5941982 255 79 163
0.88899284 0.0156772825 55.4169095 255 79 163
1.07162516 -2.22044605e-16 55.2342772 255 79 163
37.8355037 -2.22044605e-16 55.2342772 255 79 163
38.9071288 1.07162516 56.3059024 255 79 163
38.8921325 0.892974759 56.2909061 255 79 163
38.8475633 0.719324425 56.2463368 255 79 163
38.7746686 0.555534277 56.1734421 255 79 163
38.6754885 0.406188474 56.074262 255 79 163
38.5527989 0.275466901 55.9515725 255 79 163
38.4100337 0.167028193 55.8088073 255 79 163
38.1954247 0.0622504303 55.5941982 255 79 163
38.018136 0.0156772825 55.4169095 255 79 163
38.9071288 1.07162516 56.3059024 218 222 230
38.9071288 5.97637684 56.3059024 218 222 230
38.9071288 1.07162516 0 218 222 230
38.9071288 79.2110732 -2.22044605e-16 218 222 230
38.9071288 80.2826983 1.07162516 218 222 230
38.9071288 80.2558304 0.833166127 218 222 230
38.9071288 80.1765741 0.606664428 218 222 230
38.9071288 80.0489034 0.403477801 218 222 230
38.9071288 79.8792205 0.233794872 218 222 230
38.9071288 79.6760339 0.106124253 218 222 230
38.9071288 79.4495322 0.0268678801 218 222 230
38.9071288 80.2826983 55.2342772 218 222 230
38.9071288 79.2110732 56.3059024 218 222 230
38.9071288 79.4495322 56.2790345 218 222 230
38.9071288 79.6760339 56.1997781 218 222 230
38.9071288 79.8792205 56.0721075 218 222 230
38.9071288 80.0489034 55.9024246 218 222 230
38.9071288 80.1765741 55.699238 218 222 230
38.9071288 80.2558304 55.4727363 218 222 230
38.9071288 39.2680361 56.3059024 218 222 230
38.9071288 39.2680361 6.76726704 218 222 230
38.9071288 38.1964109 6.76726704 218 222 230
38.9071288 5.97637684 6.76726704 218 222 230
38.9071288 50.6253339 47.1652985 218 222 230
38.9071288 50.0371101 47.0938752 218 222 230
38.9071288 49.4830717 46.8837562 218 222 230
38.9071288 48.9954175 46.5471527 218 222 230
38.9071288 48.602488 46.1036271 218 222 230
38.9071288 48.327119 45.5789553 218 222 230
38.9071288 48.1853139 45.0036295 218 222 230
38.9071288 48.1853139 44.4110853 218 222 230
38.9071288 48.327119 43.8357595 218 222 230
38.9071288 48.602488 43.3110877 218 222 230
38.9071288 48.9954175 42.867562 218 222 230
38.9071288 49.4830717 42.5309586 218 222 230
38.9071288 50.0371101 42.3208396 218 222 230
38.9071288 50.6253339 42.2494163 218 222 230
38.9071288 51.2135577 42.3208396 218 222 230
38.9071288 51.7675961 42.5309586 218 222 230
38.9071288 52.2552504 42.867562 218 222 230
38.9071288 52.6481798 43.3110877 218 222 230
38.9071288 52.9235488 43.8357595 218 222 230
38.9071288 53.0653539 44.4110853 218 222 230
38.9071288 53.0653539 45.0036295 218 222 230
38.9071288 52.9235488 45.5789553 218 222 230
38.9071288 52.6481798 46.1036271 218 222 230
38.9071288 52.2552504 46.5471527 218 222 230
38.9071288 51.7675961 46.8837562 218 222 230
38.9071288 51.2135577 47.0938752 218 222 230
38.9071288 39.282454 29.941435 218 222 230
38.9071288 39.282454 26.6985724 218 222 230
38.9071288 47.4769424 29.941435 218 222 230
38.9071288 47.4769424 25.6269472 218 222 230
38.9071288 40.3540792 25.6269472 218 222 230
38.9071288 39.3093219 26.4601134 218 222 230
38.9071288 39.3885783 26.2336117 218 222 230
38.9071288 39.5162489 26.030425 218 222 230
38.9071288 39.6859318 25.8607421 218 222 230
38.9071288 39.8891185 25.7330715 218 222 230
38.9071288 40.1156202 25.6538151 218 222 230
1.07162516 5.97637684 56.3059024 218 222 230
38.9071288 5.97637684 56.3059024 218 222 230
1.07162516 5.97637684 6.76726704 218 222 230
38.9071288 5.97637684 6.76726704 218 222 230
-2.22044605e-16 1.07162516 0 255 79 163
38.9071288 1.07162516 0 255 79 163
37.8355037 -2.22044605e-16 1.07162516 255 79 163
38.1128607 0.0365147418 0.794268158 255 79 163
38.3713162 0.143570548 0.535812579 255 79 163
38.5932571 0.313871742 0.313871742 255 79 163
38.7492143 0.511702551 0.157914507 255 79 163
38.8388387 0.695195628 0.0682900752 255 79 163
38.8884146 0.872228272 0.0187142592 255 79 163
38.90244 0.971488574 0.00468882261 255 79 163
1.07162516 -2.22044605e-16 1.07162516 255 79 163
0.0149963139 0.892974759 0.0149963139 255 79 163
0.059565539 0.719324425 0.059565539 255 79 163
0.132460273 0.555534277 0.132460273 255 79 163
0.231640338 0.406188474 0.231640338 255 79 163
0.354329885 0.275466901 0.354329885 255 79 163
0.497095081 0.167028193 0.497095081 255 79 163
0.711704142 0.0622504303 0.711704142 255 79 163
0.88899284 0.0156772825 0.88899284 255 79 163
1.07162516 -2.22044605e-16 55.2342772 218 222 230
37.8355037 -2.22044605e-16 55.2342772 218 222 230
37.8355037 -2.22044605e-16 1.07162516 218 222 230
1.07162516 -2.22044605e-16 1.07162516 218 222 230
11.2686241 26.907816 6.76726704 218 222 230
9.67286834 27.4425213 6.76726704 218 222 230
11.2686241 26.907816 0 218 222 230
9.67286834 27.4425213 0 218 222 230
11.6034336 25.2584984 6.76726704 218 222 230
11.2686241 26.907816 6.76726704 218 222 230
11.6034336 25.2584984 0 218 222 230
11.2686241 26.907816 0 218 222 230
9.67286834 27.4425213 6.76726704 218 222 230
8.41192216 26.3279089 6.76726704 218 222 230
9.67286834 27.4425213 0 218 222 230
8.41192216 26.3279089 0 218 222 230
10.3424874 24.1438861 6.76726704 218 222 230
11.6034336 25.2584984 6.76726704 218 222 230
10.3424874 24.1438861 0 218 222 230
11.6034336 25.2584984 0 218 222 230
8.41192216 26.3279089 6.76726704 218 222 230
8.74673169 24.6785913 6.76726704 218 222 230
8.41192216 26.3279089 0 218 222 230
8.74673169 24.6785913 0 218 222 230
8.74673169 24.6785913 6.76726704 218 222 230
10.3424874 24.1438861 6.76726704 218 222 230
8.74673169 24.6785913 0 218 222 230
10.3424874 24.1438861 0 218 222 230
1.99043771 41.4438808 0 218 222 230
1.66955856 42.0623004 0 218 222 230
1.99043771 41.4438808 56.3059024 218 222 230
1.66955856 42.0623004 56.3059024 218 222 230
1.99043771 41.4438808 0 218 222 230
2.11383873 41.2568997 0 218 222 230
2.2734187 41.0996611 0 218 222 230
2.4622032 40.9790371 0 218 222 230
2.67194145 40.9002995 0 218 222 230
2.89346687 40.8668896 0 218 222 230
2.89346687 40.8668896 56.3059024 218 222 230
1.99043771 41.4438808 56.3059024 218 222 230
2.11383873 41.2568997 56.3059024 218 222 230
2.2734187 41.0996611 56.3059024 218 222 230
2.4622032 40.9790371 56.3059024 218 222 230
2.67194145 40.9002995 56.3059024 218 222 230
1.717733 43.1328422 0 218 222 230
1.61750315 42.9324833 0 218 222 230
1.56112052 42.7156637 0 218 222 230
1.55104932 42.4918595 0 218 222 230
1.5877297 42.2708521 0 218 222 230
1.66955856 42.0623004 0 218 222 230
1.66955856 42.0623004 56.3059024 218 222 230
1.717733 43.1328422 56.3059024 218 222 230
1.61750315 42.9324833 56.3059024 218 222 230
1.56112052 42.7156637 56.3059024 218 222 230
1.55104932 42.4918595 56.3059024 218 222 230
1.5877297 42.2708521 56.3059024 218 222 230
4.20755118 40.8077557 0 218 222 230
2.89346687 40.8668896 0 218 222 230
4.20755118 40.8077557 56.3059024 218 222 230
2.89346687 40.8668896 56.3059024 218 222 230
1.717733 43.1328422 0 218 222 230
2.09286058 43.7199416 0 218 222 230
1.717733 43.1328422 56.3059024 218 222 230
2.09286058 43.7199416 56.3059024 218 222 230
5.24893078 42.4375833 0 218 222 230
4.20755118 40.8077557 0 218 222 230
5.24893078 42.4375833 56.3059024 218 222 230
4.20755118 40.8077557 56.3059024 218 222 230
2.09286058 43.7199416 0 218 222 230
2.09286058 43.7199416 56.3059024 218 222 230
2.23255714 43.8950832 56.3059024 218 222 230
2.405615 44.0373531 56.3059024 218 222 230
2.6044707 44.1405333 56.3059024 218 222 230
2.82043329 44.2001143 56.3059024 218 222 230
3.04406417 44.2134922 56.3059024 218 222 230
3.04406417 44.2134922 0 218 222 230
2.23255714 43.8950832 0 218 222 230
2.405615 44.0373531 0 218 222 230
2.6044707 44.1405333 0 218 222 230
2.82043329 44.2001143 0 218 222 230
4.35814848 44.1543583 0 218 222 230
5.24893078 42.4375833 0 218 222 230
4.35814848 44.1543583 56.3059024 218 222 230
5.24893078 42.4375833 56.3059024 218 222 230
3.04406417 44.2134922 0 218 222 230
4.35814848 44.1543583 0 218 222 230
3.04406417 44.2134922 56.3059024 218 222 230
4.35814848 44.1543583 56.3059024 218 222 230
1.07162516 38.1964109 6.76726704 218 222 230
37.8355037 38.1964109 6.76726704 218 222 230
38.0739627 38.2232788 6.76726704 218 222 230
38.3004644 38.3025352 6.76726704 218 222 230
38.503651 38.4302058 6.76726704 218 222 230
38.673334 38.5998887 6.76726704 218 222 230
38.8010046 38.8030753 6.76726704 218 222 230
38.8802609 39.029577 6.76726704 218 222 230
38.9071288 39.2680361 6.76726704 218 222 230
38.9071288 38.1964109 6.76726704 218 222 230
38.9071288 5.97637684 6.76726704 218 222 230
1.07162516 5.97637684 6.76726704 218 222 230
11.6034336 25.2584984 6.76726704 218 222 230
11.2686241 26.907816 6.76726704 218 222 230
9.67286834 27.4425213 6.76726704 218 222 230
8.41192216 26.3279089 6.76726704 218 222 230
8.74673169 24.6785913 6.76726704 218 222 230
10.3424874 24.1438861 6.76726704 218 222 230
0 38.1964109 55.2342772 255 79 163
37.8355037 38.1964109 55.2342772 255 79 163
38.1128607 38.2329256 55.5116342 255 79 163
38.3713162 38.3399815 55.7700898 255 79 163
38.5932571 38.5102826 55.9920306 255 79 163
38.7492143 38.7081135 56.1479879 255 79 163
38.8388387 38.8916065 56.2376123 255 79 163
38.8884146 39.0686392 56.2871881 255 79 163
38.90244 39.1678995 56.3012136 255 79 163
38.9071288 39.2680361 56.3059024 255 79 163
1.07162516 39.2680361 56.3059024 255 79 163
0.0149963139 38.2114072 55.4129276 255 79 163
0.059565539 38.2559764 55.586578 255 79 163
0.132460273 38.3288712 55.7503681 255 79 163
0.231640338 38.4280512 55.8997139 255 79 163
0.354329885 38.5507408 56.0304355 255 79 163
0.497095081 38.693506 56.1388742 255 79 163
0.711704142 38.908115 56.243652 255 79 163
0.88899284 39.0854037 56.2902251 255 79 163
37.8355037 38.1964109 6.76726704 255 79 163
38.0739627 38.2232788 6.76726704 255 79 163
38.3004644 38.3025352 6.76726704 255 79 163
38.503651 38.4302058 6.76726704 255 79 163
38.673334 38.5998887 6.76726704 255 79 163
38.8010046 38.8030753 6.76726704 255 79 163
38.8802609 39.029577 6.76726704 255 79 163
38.9071288 39.2680361 6.76726704 255 79 163
38.9071288 39.2680361 56.3059024 255 79 163
37.8355037 38.1964109 55.2342772 255 79 163
38.1128607 38.2329256 55.5116342 255 79 163
38.3713162 38.3399815 55.7700898 255 79 163
38.5932571 38.5102826 55.9920306 255 79 163
38.7492143 38.7081135 56.1479879 255 79 163
38.8388387 38.8916065 56.2376123 255 79 163
38.8884146 39.0686392 56.2871881 255 79 163
38.90244 39.1678995 56.3012136 255 79 163
1.07162516 79.2110732 56.3059024 255 79 163
38.9071288 79.2110732 56.3059024 255 79 163
38.9071288 79.4495322 56.2790345 255 79 163
38.9071288 79.6760339 56.1997781 255 79 163
38.9071288 79.8792205 56.0721075 255 79 163
38.9071288 80.0489034 55.9024246 255 79 163
38.9071288 80.1765741 55.699238 255 79 163
38.9071288 80.2558304 55.4727363 255 79 163
38.9071288 80.2826983 55.2342772 255 79 163
0 80.2826983 55.2342772 255 79 163
0.794268158 79.4884302 56.2693876 255 79 163
0.535812579 79.7468857 56.1623318 255 79 163
0.313871742 79.9688266 55.9920306 255 79 163
0.157914507 80.1247838 55.7941998 255 79 163
0.0682900752 80.2144082 55.6107068 255 79 163
0.0187142592 80.2639841 55.4336741 255 79 163
0.00468882261 80.2780095 55.3344138 255 79 163
38.9071288 39.2680361 56.3059024 218 222 230
38.9071288 79.2110732 56.3059024 218 222 230
1.07162516 79.2110732 56.3059024 218 222 230
1.07162516 39.2680361 56.3059024 218 222 230
2.09286058 43.7199416 56.3059024 218 222 230
1.717733 43.1328422 56.3059024 218 222 230
2.23255714 43.8950832 56.3059024 218 222 230
2.405615 44.0373531 56.3059024 218 222 230
2.6044707 44.1405333 56.3059024 218 222 230
2.82043329 44.2001143 56.3059024 218 222 230
3.04406417 44.2134922 56.3059024 218 222 230
4.35814848 44.1543583 56.3059024 218 222 230
5.24893078 42.4375833 56.3059024 218 222 230
4.20755118 40.8077557 56.3059024 218 222 230
2.89346687 40.8668896 56.3059024 218 222 230
1.99043771 41.4438808 56.3059024 218 222 230
2.11383873 41.2568997 56.3059024 218 222 230
2.2734187 41.0996611 56.3059024 218 222 230
2.4622032 40.9790371 56.3059024 218 222 230
2.67194145 40.9002995 56.3059024 218 222 230
1.66955856 42.0623004 56.3059024 218 222 230
1.61750315 42.9324833 56.3059024 218 222 230
1.56112052 42.7156637 56.3059024 218 222 230
1.55104932 42.4918595 56.3059024 218 222 230
1.5877297 42.2708521 56.3059024 218 222 230
37.8355037 -2.22044605e-16 1.07162516 255 79 163
38.1128607 0.0365147418 0.794268158 255 79 163
38.3713162 0.143570548 0.535812579 255 79 163
38.5932571 0.313871742 0.313871742 255 79 163
38.7492143 0.511702551 0.157914507 255 79 163
38.8388387 0.695195628 0.0682900752 255 79 163
38.8884146 0.872228272 0.0187142592 255 79 163
38.90244 0.971488574 0.00468882261 255 79 163
38.9071288 1.07162516 0 255 79 163
38.9071288 1.07162516 56.3059024 255 79 163
38.8921325 0.892974759 56.2909061 255 79 163
38.8475633 0.719324425 56.2463368 255 79 163
38.7746686 0.555534277 56.1734421 255 79 163
38.6754885 0.406188474 56.074262 255 79 163
38.5527989 0.275466901 55.9515725 255 79 163
38.4100337 0.167028193 55.8088073 255 79 163
38.1954247 0.0622504303 55.5941982 255 79 163
38.018136 0.0156772825 55.4169095 255 79 163
37.8355037 -2.22044605e-16 55.2342772 255 79 163
38.9071288 50.6253339 47.1652985 218 222 230
30.6750159 50.6253339 47.1652985 218 222 230
30.6750159 50.0371101 47.0938752 218 222 230
30.6750159 49.4830717 46.8837562 218 222 230
30.6750159 48.9954175 46.5471527 218 222 230
30.6750159 48.602488 46.1036271 218 222 230
30.6750159 48.327119 45.5789553 218 222 230
30.6750159 48.1853139 45.0036295 218 222 230
30.6750159 48.1853139 44.4110853 218 222 230
30.6750159 48.327119 43.8357595 218 222 230
30.6750159 48.602488 43.3110877 218 222 230
30.6750159 48.9954175 42.867562 218 222 230
30.6750159 49.4830717 42.5309586 218 222 230
30.6750159 50.0371101 42.3208396 218 222 230
30.6750159 50.6253339 42.2494163 218 222 230
30.6750159 51.2135577 42.3208396 218 222 230
30.6750159 51.7675961 42.5309586 218 222 230
30.6750159 52.2552504 42.867562 218 222 230
30.6750159 52.6481798 43.3110877 218 222 230
30.6750159 52.9235488 43.8357595 218 222 230
30.6750159 53.0653539 44.4110853 218 222 230
30.6750159 53.0653539 45.0036295 218 222 230
30.6750159 52.9235488 45.5789553 218 222 230
30.6750159 52.6481798 46.1036271 218 222 230
30.6750159 52.2552504 46.5471527 218 222 230
30.6750159 51.7675961 46.8837562 218 222 230
30.6750159 51.2135577 47.0938752 218 222 230
30.6750159 50.6253339 47.1652985 218 222 230
38.9071288 50.6253339 47.1652985 218 222 230
38.9071288 50.0371101 47.0938752 218 222 230
38.9071288 49.4830717 46.8837562 218 222 230
38.9071288 48.9954175 46.5471527 218 222 230
38.9071288 48.602488 46.1036271 218 222 230
38.9071288 48.327119 45.5789553 218 222 230
38.9071288 48.1853139 45.0036295 218 222 230
38.9071288 48.1853139 44.4110853 218 222 230
38.9071288 48.327119 43.8357595 218 222 230
38.9071288 48.602488 43.3110877 218 222 230
38.9071288 48.9954175 42.867562 218 222 230
38.9071288 49.4830717 42.5309586 218 222 230
38.9071288 50.0371101 42.3208396 218 222 230
38.9071288 50.6253339 42.2494163 218 222 230
38.9071288 51.2135577 42.3208396 218 222 230
38.9071288 51.7675961 42.5309586 218 222 230
38.9071288 52.2552504 42.867562 218 222 230
38.9071288 52.6481798 43.3110877 218 222 230
38.9071288 52.9235488 43.8357595 218 222 230
38.9071288 53.0653539 44.4110853 218 222 230
38.9071288 53.0653539 45.0036295 218 222 230
38.9071288 52.9235488 45.5789553 218 222 230
38.9071288 52.6481798 46.1036271 218 222 230
38.9071288 52.2552504 46.5471527 218 222 230
38.9071288 51.7675961 46.8837562 218 222 230
38.9071288 51.2135577 47.0938752 218 222 230
38.9071288 39.282454 29.941435 218 222 230
38.9071288 39.282454 26.6985724 218 222 230
12.4228699 39.282454 29.941435 218 222 230
12.4228699 39.282454 26.6985724 218 222 230
38.9071288 39.282454 26.6985724 255 79 163
12.4228699 39.282454 26.6985724 255 79 163
12.4228699 39.3093219 26.4601134 255 79 163
12.4228699 39.3885783 26.2336117 255 79 163
12.4228699 39.5162489 26.030425 255 79 163
12.4228699 39.6859318 25.8607421 255 79 163
12.4228699 39.8891185 25.7330715 255 79 163
12.4228699 40.1156202 25.6538151 255 79 163
12.4228699 40.3540792 25.6269472 255 79 163
38.9071288 40.3540792 25.6269472 255 79 163
38.9071288 39.3093219 26.4601134 255 79 163
38.9071288 39.3885783 26.2336117 255 79 163
38.9071288 39.5162489 26.030425 255 79 163
38.9071288 39.6859318 25.8607421 255 79 163
38.9071288 39.8891185 25.7330715 255 79 163
38.9071288 40.1156202 25.6538151 255 79 163
38.9071288 47.4769424 29.941435 218 222 230
12.4228699 47.4769424 29.941435 218 222 230
12.4228699 39.282454 29.941435 218 222 230
38.9071288 39.282454 29.941435 218 222 230
38.9071288 40.3540792 25.6269472 218 222 230
38.9071288 47.4769424 25.6269472 218 222 230
12.4228699 40.3540792 25.6269472 218 222 230
12.4228699 47.4769424 25.6269472 218 222 230
38.9071288 47.4769424 25.6269472 218 222 230
12.4228699 47.4769424 25.6269472 218 222 230
12.4228699 47.4769424 29.941435 218 222 230
38.9071288 47.4769424 29.941435 218 222 230
30.6750159 50.6253339 47.1652985 218 222 230
30.6750159 50.0371101 47.0938752 218 222 230
30.6750159 49.4830717 46.8837562 218 222 230
30.6750159 48.9954175 46.5471527 218 222 230
30.6750159 48.602488 46.1036271 218 222 230
30.6750159 48.327119 45.5789553 218 222 230
30.6750159 48.1853139 45.0036295 218 222 230
30.6750159 48.1853139 44.4110853 218 222 230
30.6750159 48.327119 43.8357595 218 222 230
30.6750159 48.602488 43.3110877 218 222 230
30.6750159 48.9954175 42.867562 218 222 230
30.6750159 49.4830717 42.5309586 218 222 230
30.6750159 50.0371101 42.3208396 218 222 230
30.6750159 50.6253339 42.2494163 218 222 230
30.6750159 51.2135577 42.3208396 218 222 230
30.6750159 51.7675961 42.5309586 218 222 230
30.6750159 52.2552504 42.867562 218 222 230
30.6750159 52.6481798 43.3110877 218 222 230
30.6750159 52.9235488 43.8357595 218 222 230
30.6750159 53.0653539 44.4110853 218 222 230
30.6750159 53.0653539 45.0036295 218 222 230
30.6750159 52.9235488 45.5789553 218 222 230
30.6750159 52.6481798 46.1036271 218 222 230
30.6750159 52.2552504 46.5471527 218 222 230
30.6750159 51.7675961 46.8837562 218 222 230
30.6750159 51.2135577 47.0938752 218 222 230
12.4228699 39.282454 29.941435 218 222 230
12.4228699 39.282454 26.6985724 218 222 230
12.4228699 39.3093219 26.4601134 218 222 230
12.4228699 39.3885783 26.2336117 218 222 230
12.4228699 39.5162489 26.030425 218 222 230
12.4228699 39.6859318 25.8607421 218 222 230
12.4228699 39.8891185 25.7330715 218 222 230
12.4228699 40.1156202 25.6538151 218 222 230
12.4228699 40.3540792 25.6269472 218 222 230
12.4228699 47.4769424 25.6269472 218 222 230
12.4228699 47.4769424 29.941435 218 222 230
3 9 7 8
3 3 4 5
3 3 5 6
3 3 6 7
3 3 9 10
3 3 7 9
3 13 4 3
3 13 3 14
3 11 4 13
3 15 14 2
3 12 11 13
3 0 1 15
3 0 15 2
3 2 14 3
3 23 22 21
3 24 21 17
3 24 23 21
3 25 24 17
3 20 17 16
3 20 26 25
3 20 25 17
3 18 20 16
3 19 20 18
3 38 27 28
3 39 38 28
3 40 28 29
3 40 39 28
3 41 29 30
3 41 30 31
3 41 40 29
3 42 31 32
3 42 41 31
3 43 32 33
3 43 42 32
3 44 43 33
3 45 33 34
3 45 44 33
3 46 34 35
3 46 45 34
3 37 35 36
3 37 46 35
3 55 56 63
3 54 62 61
3 54 63 62
3 54 55 63
3 53 61 60
3 53 54 61
3 52 60 59
3 52 53 60
3 51 59 58
3 51 52 59
3 50 58 57
3 50 51 58
3 49 57 47
3 49 50 57
3 48 49 47
3 71 64 72
3 73 72 64
3 66 70 68
3 66 71 70
3 66 64 71
3 91 73 64
3 92 73 91
3 74 91 64
3 93 73 92
3 94 73 93
3 75 74 64
3 90 73 94
3 80 75 64
3 89 69 73
3 89 73 90
3 88 68 69
3 88 69 89
3 65 76 77
3 65 77 78
3 65 81 76
3 65 82 81
3 65 83 82
3 65 84 83
3 65 85 84
3 65 86 85
3 65 87 86
3 67 88 87
3 67 66 68
3 67 87 65
3 67 68 88
3 65 79 64
3 79 80 64
3 65 78 79
3 103 104 105
3 103 105 111
3 102 103 111
3 101 111 110
3 101 102 111
3 100 110 109
3 100 101 110
3 99 109 108
3 99 100 109
3 98 108 107
3 98 99 108
3 97 107 106
3 97 98 107
3 96 106 95
3 96 97 106
3 119 120 121
3 119 121 127
3 118 127 126
3 118 119 127
3 117 125 124
3 117 126 125
3 117 118 126
3 116 117 124
3 115 123 122
3 115 124 123
3 115 116 124
3 114 122 112
3 114 115 122
3 113 114 112
3 132 130 128
3 132 131 130
3 129 137 138
3 129 138 139
3 129 139 132
3 129 132 128
3 136 137 129
3 135 136 129
3 134 135 129
3 133 134 129
3 141 140 142
3 141 142 143
3 161 144 145
3 161 162 144
3 160 145 146
3 160 161 145
3 159 146 147
3 159 160 146
3 158 147 148
3 158 159 147
3 157 148 149
3 157 158 148
3 156 149 150
3 156 150 151
3 156 157 149
3 155 151 152
3 155 156 151
3 154 152 153
3 154 155 152
3 174 163 164
3 175 164 165
3 175 174 164
3 176 165 166
3 176 175 165
3 177 166 167
3 177 176 166
3 178 167 168
3 178 177 167
3 179 168 169
3 179 178 168
3 180 169 170
3 180 179 169
3 181 170 171
3 181 180 170
3 182 171 172
3 182 181 171
3 173 182 172
3 192 191 190
3 186 188 187
3 186 189 188
3 186 190 189
3 186 193 192
3 186 192 190
3 200 194 201
3 199 194 200
3 196 198 197
3 196 199 198
3 195 199 196
3 195 194 199
3 235 186 187
3 235 203 186
3 236 203 235
3 242 203 236
3 223 222 234
3 223 187 194
3 223 234 235
3 223 235 187
3 221 234 222
3 224 223 194
3 220 234 221
3 225 224 194
3 219 234 220
3 226 225 194
3 226 194 195
3 218 234 219
3 227 226 195
3 217 234 218
3 228 227 195
3 216 234 217
3 216 232 234
3 229 228 195
3 215 232 216
3 230 229 195
3 214 232 215
3 231 230 195
3 213 232 214
3 205 185 204
3 202 232 213
3 202 207 206
3 202 208 207
3 202 209 208
3 202 210 209
3 202 211 210
3 202 212 211
3 202 213 212
3 202 206 231
3 202 231 195
3 183 205 184
3 183 185 205
3 185 186 203
3 185 203 204
3 202 203 233
3 233 203 237
3 237 203 238
3 238 203 239
3 239 203 240
3 240 203 241
3 241 203 242
3 202 233 232
3 244 246 245
3 243 244 245
3 249 257 265
3 250 265 264
3 250 249 265
3 251 263 262
3 251 264 263
3 251 250 264
3 252 262 261
3 252 251 262
3 253 261 260
3 253 252 261
3 254 260 259
3 254 253 260
3 255 259 258
3 255 254 259
3 256 258 247
3 256 255 258
3 248 256 247
3 267 269 268
3 267 266 269
3 270 273 272
3 271 273 270
3 275 276 274
3 275 277 276
3 279 280 278
3 279 281 280
3 283 284 282
3 283 285 284
3 287 288 286
3 287 289 288
3 291 292 290
3 291 293 292
3 295 296 294
3 295 297 296
3 306 299 298
3 306 298 305
3 307 300 299
3 307 299 306
3 308 301 300
3 308 300 307
3 309 302 301
3 309 303 302
3 309 301 308
3 304 303 309
3 318 311 310
3 318 312 311
3 318 310 317
3 319 312 318
3 320 313 312
3 320 312 319
3 321 314 313
3 321 313 320
3 316 315 314
3 316 314 321
3 323 324 322
3 323 325 324
3 327 328 326
3 327 329 328
3 331 332 330
3 331 333 332
3 339 341 340
3 339 345 341
3 338 344 345
3 338 345 339
3 337 342 343
3 337 343 344
3 337 344 338
3 336 342 337
3 335 334 342
3 335 342 336
3 347 348 346
3 347 349 348
3 351 352 350
3 351 353 352
3 363 360 359
3 363 361 360
3 363 362 361
3 358 363 359
3 357 363 358
3 356 363 357
3 355 363 356
3 364 363 355
3 367 355 354
3 368 367 354
3 366 364 355
3 366 355 367
3 369 368 354
3 371 364 366
3 365 370 369
3 365 371 370
3 365 369 354
3 365 364 371
3 380 381 382
3 380 382 390
3 379 390 389
3 379 380 390
3 378 379 389
3 377 388 387
3 377 389 388
3 377 378 389
3 376 387 386
3 376 377 387
3 375 385 384
3 375 386 385
3 375 376 386
3 374 384 383
3 374 375 384
3 373 383 372
3 373 374 383
3 400 391 392
3 401 392 393
3 401 400 392
3 402 393 394
3 402 401 393
3 403 394 395
3 403 402 394
3 404 395 396
3 404 403 395
3 405 396 397
3 405 404 396
3 406 405 397
3 407 397 398
3 407 406 397
3 399 407 398
3 416 417 424
3 415 423 422
3 415 424 423
3 415 416 424
3 414 422 421
3 414 415 422
3 413 421 420
3 413 414 421
3 412 420 419
3 412 413 420
3 411 419 418
3 411 412 419
3 410 418 408
3 410 411 418
3 409 410 408
3 442 441 428
3 440 428 441
3 443 442 428
3 444 443 428
3 445 428 440
3 439 444 428
3 449 428 445
3 448 428 449
3 447 428 448
3 438 439 428
3 425 436 437
3 425 437 438
3 425 438 428
3 427 430 429
3 427 429 431
3 427 431 432
3 427 432 433
3 427 433 434
3 427 434 435
3 427 435 436
3 427 446 430
3 426 427 436
3 426 436 425
3 427 428 447
3 427 447 446
3 467 450 451
3 467 468 450
3 466 451 452
3 466 467 451
3 465 466 452
3 464 452 453
3 464 465 452
3 463 453 454
3 463 464 453
3 462 454 455
3 462 463 454
3 461 455 456
3 461 462 455
3 460 456 457
3 460 461 456
3 459 457 458
3 459 460 457
3 498 470 469
3 498 471 470
3 499 472 471
3 499 471 498
3 500 473 472
3 500 472 499
3 501 474 473
3 501 473 500
3 502 475 474
3 502 474 501
3 503 476 475
3 503 475 502
3 504 477 476
3 504 476 503
3 505 478 477
3 505 477 504
3 506 479 478
3 506 478 505
3 507 480 479
3 507 479 506
3 508 481 480
3 508 482 481
3 508 480 507
3 509 482 508
3 510 482 509
3 510 483 482
3 511 484 483
3 511 483 510
3 511 485 484
3 512 485 511
3 513 486 485
3 513 485 512
3 514 487 486
3 514 486 513
3 515 488 487
3 515 487 514
3 516 489 488
3 516 490 489
3 516 488 515
3 517 490 516
3 518 491 490
3 518 490 517
3 519 492 491
3 519 491 518
3 520 493 492
3 520 492 519
3 521 494 493
3 521 493 520
3 522 495 494
3 522 494 521
3 497 496 495
3 497 495 522
3 524 525 523
3 524 526 525
3 534 536 535
3 534 541 542
3 534 542 536
3 533 541 534
3 532 540 541
3 532 541 533
3 531 538 539
3 531 539 540
3 531 540 532
3 530 538 531
3 529 527 537
3 529 537 538
3 529 538 530
3 528 527 529
3 546 544 543
3 546 545 544
3 548 549 547
3 548 550 549
3 554 552 551
3 554 553 552
3 573 571 572
3 567 568 569
3 567 569 570
3 578 573 574
3 578 574 575
3 578 575 576
3 578 576 577
3 564 565 566
3 563 564 566
3 580 578 579
3 556 580 555
3 560 561 562
3 557 580 556
3 559 562 563
3 559 563 566
3 559 560 562
3 558 566 567
3 558 570 571
3 558 571 573
3 558 567 570
3 558 573 578
3 558 578 580
3 558 559 566
3 558 580 557
3 589 590 591
3 586 587 588
3 584 585 586
3 584 588 589
3 584 586 588
3 583 584 589
3 582 583 589
3 581 589 591
3 581 582 589
