ply
format ascii 1.0
comment generated by blendit.inference.finetune_visualize
element vertex 857
property float x
property float y
property float z
property uchar red
property uchar green
property uchar blue
element face 1151
property list uchar int vertex_indices
end_header
0 1.5839277 80.4561394 218 222 230
0 40.7741083 80.4561394 218 222 230
-2.22044605e-16 1.5839277 0 218 222 230
0 45.1127672 0 218 222 230
0 45.1127672 68.4064103 218 222 230
0 42.358036 68.4064103 218 222 230
0 40.7741083 69.990338 218 222 230
0 40.8138207 69.637881 218 222 230
0 40.9309664 69.3030976 218 222 230
0 41.1196714 69.0027753 218 222 230
0 41.3704732 68.7519735 218 222 230
0 41.6707955 68.5632685 218 222 230
0 42.0055789 68.4461227 218 222 230
0 27.0826213 36.2090235 218 222 230
0 20.3532521 32.433604 218 222 230
0 19.9904529 32.2856283 218 222 230
0 19.6024303 32.2312367 218 222 230
0 19.212928 32.2737574 218 222 230
0 18.8457805 32.4105885 218 222 230
0 18.5234543 32.6333571 218 222 230
0 18.2656731 32.9284315 218 222 230
0 18.0882111 33.2777555 218 222 230
0 18.0019274 33.6599533 218 222 230
0 16.796473 45.917113 218 222 230
0 27.1934103 38.9034879 218 222 230
0 27.372825 36.4181517 218 222 230
0 27.608702 36.6870658 218 222 230
0 27.7782225 37.0020508 218 222 230
0 27.8727407 37.3470422 218 222 230
0 27.8874361 37.7044451 218 222 230
0 27.8215593 38.0560315 218 222 230
0 27.6784699 38.3838702 218 222 230
0 27.4654658 38.6712411 218 222 230
0 31.7184066 68.6525851 218 222 230
0 29.8483296 68.4976261 218 222 230
0 28.0292635 68.036976 218 222 230
0 26.3108276 67.2832001 218 222 230
0 24.7398963 66.2568595 218 222 230
0 23.3593207 64.9859501 218 222 230
0 22.206759 63.5051389 218 222 230
0 21.3136504 61.8548186 218 222 230
0 20.7043563 60.0800057 218 222 230
0 20.3954969 58.2291124 218 222 230
0 20.3954969 56.3526263 218 222 230
0 20.7043563 54.5017331 218 222 230
0 21.3136504 52.7269202 218 222 230
0 22.206759 51.0765999 218 222 230
0 23.3593207 49.5957887 218 222 230
0 24.7398963 48.3248793 218 222 230
0 26.3108276 47.2985387 218 222 230
0 28.0292635 46.5447628 218 222 230
0 29.8483296 46.0841127 218 222 230
0 31.7184066 45.9291537 218 222 230
0 33.5884835 46.0841127 218 222 230
0 35.4075496 46.5447628 218 222 230
0 37.1259855 47.2985387 218 222 230
0 38.6969168 48.3248793 218 222 230
0 40.0774925 49.5957887 218 222 230
0 41.2300541 51.0765999 218 222 230
0 42.1231627 52.7269202 218 222 230
0 42.7324568 54.5017331 218 222 230
0 43.0413162 56.3526263 218 222 230
0 43.0413162 58.2291124 218 222 230
0 42.7324568 60.0800057 218 222 230
0 42.1231627 61.8548186 218 222 230
0 41.2300541 63.5051389 218 222 230
0 40.0774925 64.9859501 218 222 230
0 38.6969168 66.2568595 218 222 230
0 37.1259855 67.2832001 218 222 230
0 35.4075496 68.036976 218 222 230
0 33.5884835 68.4976261 218 222 230
0 1.5839277 80.4561394 218 222 230
0 40.7741083 80.4561394 218 222 230
57.7097621 1.5839277 80.4561394 218 222 230
57.7097621 43.5288395 80.4561394 218 222 230
21.5101394 43.5288395 80.4561394 218 222 230
21.5101394 40.7741083 80.4561394 218 222 230
-2.22044605e-16 1.5839277 0 255 79 163
0.0397123743 1.23147063 0 255 79 163
0.156858153 0.896687226 0 255 79 163
0.345563158 0.596364931 0 255 79 163
0.596364931 0.345563158 0 255 79 163
0.896687226 0.156858153 0 255 79 163
1.23147063 0.0397123743 0 255 79 163
1.5839277 -2.22044605e-16 0 255 79 163
1.5839277 -2.22044605e-16 78.8722117 255 79 163
0 1.5839277 80.4561394 255 79 163
0.0228550831 1.31582465 80.4332843 255 79 163
0.0907607636 1.05545872 80.3653786 255 79 163
0.201757368 0.810343745 80.254382 255 79 163
0.352641675 0.58755343 80.1034977 255 79 163
0.539059352 0.393517226 79.91708 255 79 163
0.755630618 0.233834775 79.7005088 255 79 163
1.08039235 0.0821690277 79.375747 255 79 163
1.32882987 0.0206772213 79.1273095 255 79 163
0 40.7741083 69.990338 218 222 230
0 40.7741083 80.4561394 218 222 230
21.5101394 40.7741083 80.4561394 218 222 230
21.5101394 40.7741083 69.990338 218 222 230
-2.22044605e-16 1.5839277 0 218 222 230
0 45.1127672 0 218 222 230
0.0397123743 1.23147063 0 218 222 230
0.156858153 0.896687226 0 218 222 230
0.345563158 0.596364931 0 218 222 230
0.596364931 0.345563158 0 218 222 230
0.896687226 0.156858153 0 218 222 230
1.23147063 0.0397123743 0 218 222 230
1.5839277 -2.22044605e-16 0 218 222 230
59.2936898 0 0 218 222 230
59.2936898 43.5288395 0 218 222 230
57.7097621 45.1127672 0 218 222 230
58.0622192 45.0730548 0 218 222 230
58.3970026 44.9559091 0 218 222 230
58.6973249 44.7672041 0 218 222 230
58.9481266 44.5164023 0 218 222 230
59.1368316 44.21608 0 218 222 230
59.2539774 43.8812966 0 218 222 230
21.5101394 40.7741083 69.990338 218 222 230
0 40.7741083 69.990338 218 222 230
0 40.8138207 69.637881 218 222 230
0 40.9309664 69.3030976 218 222 230
0 41.1196714 69.0027753 218 222 230
0 41.3704732 68.7519735 218 222 230
0 41.6707955 68.5632685 218 222 230
0 42.0055789 68.4461227 218 222 230
0 42.358036 68.4064103 218 222 230
21.5101394 42.358036 68.4064103 218 222 230
21.5101394 40.8138207 69.637881 218 222 230
21.5101394 40.9309664 69.3030976 218 222 230
21.5101394 41.1196714 69.0027753 218 222 230
21.5101394 41.3704732 68.7519735 218 222 230
21.5101394 41.6707955 68.5632685 218 222 230
21.5101394 42.0055789 68.4461227 218 222 230
21.5101394 45.1127672 78.8722117 218 222 230
21.5101394 45.1127672 68.4064103 218 222 230
57.7097621 45.1127672 78.8722117 218 222 230
57.7097621 45.1127672 0 218 222 230
0 45.1127672 0 218 222 230
0 45.1127672 68.4064103 218 222 230
21.5101394 45.1127672 68.4064103 218 222 230
21.5101394 42.358036 68.4064103 218 222 230
0 42.358036 68.4064103 218 222 230
0 45.1127672 68.4064103 218 222 230
0 27.0826213 36.2090235 218 222 230
0 20.3532521 32.433604 218 222 230
36.5468879 27.0826213 36.2090235 218 222 230
36.5468879 20.3532521 32.433604 218 222 230
0 27.0826213 36.2090235 218 222 230
0 27.372825 36.4181517 218 222 230
0 27.608702 36.6870658 218 222 230
0 27.7782225 37.0020508 218 222 230
0 27.8727407 37.3470422 218 222 230
0 27.8874361 37.7044451 218 222 230
0 27.8215593 38.0560315 218 222 230
0 27.6784699 38.3838702 218 222 230
0 27.4654658 38.6712411 218 222 230
0 27.1934103 38.9034879 218 222 230
36.5468879 27.1934103 38.9034879 218 222 230
36.5468879 27.0826213 36.2090235 218 222 230
36.5468879 27.372825 36.4181517 218 222 230
36.5468879 27.608702 36.6870658 218 222 230
36.5468879 27.7782225 37.0020508 218 222 230
36.5468879 27.8727407 37.3470422 218 222 230
36.5468879 27.8874361 37.7044451 218 222 230
36.5468879 27.8215593 38.0560315 218 222 230
36.5468879 27.6784699 38.3838702 218 222 230
36.5468879 27.4654658 38.6712411 218 222 230
0 20.3532521 32.433604 255 79 163
36.5468879 20.3532521 32.433604 255 79 163
36.5468879 19.9904529 32.2856283 255 79 163
36.5468879 19.6024303 32.2312367 255 79 163
36.5468879 19.212928 32.2737574 255 79 163
36.5468879 18.8457805 32.4105885 255 79 163
36.5468879 18.5234543 32.6333571 255 79 163
36.5468879 18.2656731 32.9284315 255 79 163
36.5468879 18.0882111 33.2777555 255 79 163
36.5468879 18.0019274 33.6599533 255 79 163
0 18.0019274 33.6599533 255 79 163
0 19.9904529 32.2856283 255 79 163
0 19.6024303 32.2312367 255 79 163
0 19.212928 32.2737574 255 79 163
0 18.8457805 32.4105885 255 79 163
0 18.5234543 32.6333571 255 79 163
0 18.2656731 32.9284315 255 79 163
0 18.0882111 33.2777555 255 79 163
0 16.796473 45.917113 218 222 230
0 27.1934103 38.9034879 218 222 230
36.5468879 16.796473 45.917113 218 222 230
36.5468879 27.1934103 38.9034879 218 222 230
0 18.0019274 33.6599533 218 222 230
0 16.796473 45.917113 218 222 230
36.5468879 18.0019274 33.6599533 218 222 230
36.5468879 16.796473 45.917113 218 222 230
1.5839277 31.7184066 67.0686574 255 79 163
1.5839277 29.9725151 66.9115243 255 79 163
1.5839277 28.282738 66.4451755 255 79 163
1.5839277 26.7033862 65.6845997 255 79 163
1.5839277 25.2852212 64.6542425 255 79 163
1.5839277 24.0738241 63.3872205 255 79 163
1.5839277 23.1081301 61.9242567 255 79 163
1.5839277 22.4191776 60.3123721 255 79 163
1.5839277 22.0291099 58.6033738 255 79 163
1.5839277 21.9504641 56.8521906 255 79 163
1.5839277 22.1857681 55.1151069 255 79 163
1.5839277 22.7274589 53.447954 255 79 163
1.5839277 23.5581262 51.9043155 255 79 163
1.5839277 24.6510716 50.5338053 255 79 163
1.5839277 25.971167 49.3804727 255 79 163
1.5839277 27.4759833 48.4813868 255 79 163
1.5839277 29.1171547 47.8654449 255 79 163
1.5839277 30.8419324 47.5524439 255 79 163
1.5839277 32.5948807 47.5524439 255 79 163
1.5839277 34.3196584 47.8654449 255 79 163
1.5839277 35.9608298 48.4813868 255 79 163
1.5839277 37.4656461 49.3804727 255 79 163
1.5839277 38.7857415 50.5338053 255 79 163
1.5839277 39.8786869 51.9043155 255 79 163
1.5839277 40.7093542 53.447954 255 79 163
1.5839277 41.251045 55.1151069 255 79 163
1.5839277 41.486349 56.8521906 255 79 163
1.5839277 41.4077033 58.6033738 255 79 163
1.5839277 41.0176356 60.3123721 255 79 163
1.5839277 40.328683 61.9242567 255 79 163
1.5839277 39.3629891 63.3872205 255 79 163
1.5839277 38.1515919 64.6542425 255 79 163
1.5839277 36.733427 65.6845997 255 79 163
1.5839277 35.1540751 66.4451755 255 79 163
1.5839277 33.464298 66.9115243 255 79 163
1.5839277 31.7184066 67.0686574 255 79 163
0 31.7184066 68.6525851 255 79 163
0.0397123743 31.7184066 68.300128 255 79 163
0.156858153 31.7184066 67.9653446 255 79 163
0.345563158 31.7184066 67.6650223 255 79 163
0.596364931 31.7184066 67.4142206 255 79 163
0.896687226 31.7184066 67.2255156 255 79 163
1.23147063 31.7184066 67.1083698 255 79 163
0 31.7184066 68.6525851 255 79 163
0 29.8483296 68.4976261 255 79 163
0 28.0292635 68.036976 255 79 163
0 26.3108276 67.2832001 255 79 163
0 24.7398963 66.2568595 255 79 163
0 23.3593207 64.9859501 255 79 163
0 22.206759 63.5051389 255 79 163
0 21.3136504 61.8548186 255 79 163
0 20.7043563 60.0800057 255 79 163
0 20.3954969 58.2291124 255 79 163
0 20.3954969 56.3526263 255 79 163
0 20.7043563 54.5017331 255 79 163
0 21.3136504 52.7269202 255 79 163
0 22.206759 51.0765999 255 79 163
0 23.3593207 49.5957887 255 79 163
0 24.7398963 48.3248793 255 79 163
0 26.3108276 47.2985387 255 79 163
0 28.0292635 46.5447628 255 79 163
0 29.8483296 46.0841127 255 79 163
0 31.7184066 45.9291537 255 79 163
0 33.5884835 46.0841127 255 79 163
0 35.4075496 46.5447628 255 79 163
0 37.1259855 47.2985387 255 79 163
0 38.6969168 48.3248793 255 79 163
0 40.0774925 49.5957887 255 79 163
0 41.2300541 51.0765999 255 79 163
0 42.1231627 52.7269202 255 79 163
0 42.7324568 54.5017331 255 79 163
0 43.0413162 56.3526263 255 79 163
0 43.0413162 58.2291124 255 79 163
0 42.7324568 60.0800057 255 79 163
0 42.1231627 61.8548186 255 79 163
0 41.2300541 63.5051389 255 79 163
0 40.0774925 64.9859501 255 79 163
0 38.6969168 66.2568595 255 79 163
0 37.1259855 67.2832001 255 79 163
0 35.4075496 68.036976 255 79 163
0 33.5884835 68.4976261 255 79 163
0.0397123743 31.7184066 68.300128 255 79 163
0.156858153 31.7184066 67.9653446 255 79 163
0.345563158 31.7184066 67.6650223 255 79 163
0.596364931 31.7184066 67.4142206 255 79 163
0.896687226 31.7184066 67.2255156 255 79 163
1.23147063 31.7184066 67.1083698 255 79 163
0.0397123743 33.530471 68.1499761 255 79 163
0.156858153 33.4753674 67.8197587 255 79 163
0.345563158 33.425936 67.5235324 255 79 163
0.596364931 33.3846554 67.2761512 255 79 163
0.896687226 33.3535956 67.0900199 255 79 163
0.0397123743 35.293107 67.703616 255 79 163
1.23147063 33.334314 66.9744719 255 79 163
0.156858153 35.184403 67.3869721 255 79 163
0.345563158 35.0868885 67.1029221 255 79 163
0.596364931 35.0054533 66.8657095 255 79 163
0.896687226 34.9441809 66.687229 255 79 163
0.0397123743 36.9582345 66.9732234 255 79 163
1.23147063 34.9061437 66.5764305 255 79 163
0.156858153 36.7988952 66.6787902 255 79 163
0.345563158 36.6559576 66.4146646 255 79 163
0.596364931 36.5365892 66.194091 255 79 163
0.896687226 36.4467755 66.0281299 255 79 163
0.0397123743 38.4804332 65.9787214 255 79 163
1.23147063 36.3910203 65.9251033 255 79 163
0.156858153 38.2748049 65.7145302 255 79 163
0.0397123743 38.9618242 65.5816279 255 79 163
0.345563158 38.0903432 65.4775337 255 79 163
0.156858153 38.7415572 65.3295121 255 79 163
0.596364931 37.9362975 65.2796159 255 79 163
0.345563158 38.5439635 65.103348 255 79 163
0.896687226 37.8203925 65.1307011 255 79 163
0.596364931 38.3789513 64.9144763 255 79 163
0.0397123743 39.8181814 64.7472374 255 79 163
1.23147063 37.7484401 65.0382566 255 79 163
0.896687226 38.254795 64.7723679 255 79 163
0.156858153 39.5718732 64.5204948 255 79 163
1.23147063 38.1777203 64.6841488 255 79 163
0.345563158 39.3509189 64.317092 255 79 163
0.0397123743 40.3257916 64.1550299 255 79 163
0.596364931 39.1663981 64.1472286 255 79 163
0.156858153 40.0640474 63.9462958 255 79 163
0.896687226 39.0275633 64.0194222 255 79 163
0.345563158 39.8292459 63.759048 255 79 163
0.0397123743 40.9349888 63.3123631 255 79 163
1.23147063 38.9413763 63.9400815 255 79 163
0.596364931 39.6331612 63.6026756 255 79 163
0.156858153 40.6547194 63.129254 255 79 163
0.896687226 39.4856257 63.48502 255 79 163
0.345563158 40.4032996 62.9649932 255 79 163
1.23147063 39.3940374 63.4119808 255 79 163
0.0397123743 41.4131105 62.5078121 255 79 163
0.596364931 40.1933368 62.8278177 255 79 163
0.156858153 41.1183018 62.3491687 255 79 163
0.896687226 40.0353593 62.7246058 255 79 163
0.345563158 40.8538393 62.2068554 255 79 163
0.0397123743 41.800392 61.7132382 255 79 163
1.23147063 39.9372888 62.6605331 255 79 163
0.596364931 40.6329844 62.0880083 255 79 163
0.156858153 41.4938063 61.5787573 255 79 163
0.896687226 40.4668116 61.9985869 255 79 163
0.345563158 41.2187791 61.4581192 255 79 163
1.23147063 40.3636535 61.9430752 255 79 163
0.0397123743 42.1888337 60.6929174 255 79 163
0.596364931 40.9891015 61.3573732 255 79 163
0.156858153 41.8704358 60.5894636 255 79 163
0.896687226 40.8162905 61.2815713 255 79 163
0.0397123743 42.3907848 59.9934826 255 79 163
0.345563158 41.5848123 60.496659 255 79 163
1.23147063 40.7090115 61.2345144 255 79 163
0.156858153 42.0662457 59.9112981 255 79 163
0.596364931 41.3462856 60.4191569 255 79 163
0.345563158 41.7751132 59.8375734 255 79 163
0.896687226 41.1668165 60.3608439 255 79 163
0.596364931 41.5319859 59.7760052 255 79 163
1.23147063 41.0554043 60.3246439 255 79 163
0.0397123743 42.6280288 58.7686781 255 79 163
0.896687226 41.3490552 59.7296808 255 79 163
0.156858153 42.2962752 58.7237391 255 79 163
0.0397123743 42.690063 58.2000068 255 79 163
1.23147063 41.235494 59.7009233 255 79 163
0.345563158 41.9986709 58.6834258 255 79 163
0.156858153 42.356423 58.1723606 255 79 163
0.596364931 41.750139 58.6497599 255 79 163
0.345563158 42.0571265 58.1475602 255 79 163
0.896687226 41.5631418 58.6244294 255 79 163
0.596364931 41.8071813 58.1268491 255 79 163
1.23147063 41.4470562 58.6087045 255 79 163
0.0397123743 42.7165796 56.7969409 255 79 163
0.896687226 41.6191209 58.111266 255 79 163
0.156858153 42.3821333 56.8119609 255 79 163
1.23147063 41.5023752 58.1015922 255 79 163
0.345563158 42.0821134 56.8254348 255 79 163
0.596364931 41.8315642 56.836687 255 79 163
0.896687226 41.6430492 56.8451532 255 79 163
1.23147063 41.5260214 56.8504089 255 79 163
0.0397123743 42.4516401 54.8410789 255 79 163
0.156858153 42.1252504 54.9155752 255 79 163
0.345563158 41.8324578 54.9824032 255 79 163
0.596364931 41.5879442 55.0382118 255 79 163
0.896687226 41.4039704 55.0802027 255 79 163
1.23147063 41.2897617 55.10627 255 79 163
0.0397123743 41.8417256 52.9639552 255 79 163
0.156858153 41.533883 53.0955334 255 79 163
0.345563158 41.2577283 53.2135676 255 79 163
0.596364931 41.0271091 53.312139 255 79 163
0.896687226 40.8535896 53.3863048 255 79 163
1.23147063 40.7458708 53.432346 255 79 163
0.0397123743 40.9349888 51.2693757 255 79 163
0.156858153 40.6547194 51.4524848 255 79 163
0.345563158 40.4032996 51.6167456 255 79 163
0.596364931 40.1933368 51.7539211 255 79 163
0.896687226 40.0353593 51.857133 255 79 163
0.0397123743 39.8181814 49.8345014 255 79 163
1.23147063 39.9372888 51.9212056 255 79 163
0.156858153 39.5718732 50.061244 255 79 163
0.345563158 39.3509189 50.2646468 255 79 163
0.596364931 39.1663981 50.4345102 255 79 163
0.896687226 39.0275633 50.5623166 255 79 163
0.0397123743 38.4804332 48.6030174 255 79 163
1.23147063 38.9413763 50.6416573 255 79 163
0.156858153 38.2748049 48.8672086 255 79 163
0.345563158 38.0903432 49.1042051 255 79 163
0.596364931 37.9362975 49.3021229 255 79 163
0.896687226 37.8203925 49.4510377 255 79 163
0.0397123743 36.9582345 47.6085154 255 79 163
1.23147063 37.7484401 49.5434821 255 79 163
0.156858153 36.7988952 47.9029486 255 79 163
0.0397123743 36.4951449 47.3718701 255 79 163
0.345563158 36.6559576 48.1670742 255 79 163
0.156858153 36.3498878 47.6734995 255 79 163
0.596364931 36.5365892 48.3876478 255 79 163
0.345563158 36.2195828 47.9440806 255 79 163
0.896687226 36.4467755 48.5536089 255 79 163
0.596364931 36.110764 48.1700452 255 79 163
0.0397123743 35.293107 46.8781228 255 79 163
1.23147063 36.3910203 48.6566355 255 79 163
0.896687226 36.028888 48.3400625 255 79 163
0.156858153 35.184403 47.1947667 255 79 163
1.23147063 35.9780603 48.4456072 255 79 163
0.0397123743 34.647275 46.678353 255 79 163
0.345563158 35.0868885 47.4788167 255 79 163
0.156858153 34.5582103 47.0010717 255 79 163
0.596364931 35.0054533 47.7160293 255 79 163
0.345563158 34.4783135 47.2905713 255 79 163
0.896687226 34.9441809 47.8945098 255 79 163
0.596364931 34.411591 47.5323349 255 79 163
0.0397123743 33.530471 46.4317627 255 79 163
1.23147063 34.9061437 48.0053083 255 79 163
0.896687226 34.3613885 47.7142395 255 79 163
0.156858153 33.4753674 46.7619801 255 79 163
1.23147063 34.3302234 47.8271636 255 79 163
0.345563158 33.425936 47.0582064 255 79 163
0.0397123743 32.7052689 46.3259308 255 79 163
0.596364931 33.3846554 47.3055875 255 79 163
0.156858153 32.6752591 46.6593665 255 79 163
0.896687226 33.3535956 47.4917189 255 79 163
0.345563158 32.6483385 46.9584798 255 79 163
0.0397123743 31.7184066 46.2816108 255 79 163
1.23147063 33.334314 47.6072669 255 79 163
0.596364931 32.6258568 47.2082719 255 79 163
0.156858153 31.7184066 46.6163942 255 79 163
0.896687226 32.6089414 47.3962172 255 79 163
0.345563158 31.7184066 46.9167165 255 79 163
1.23147063 32.5984405 47.5128914 255 79 163
0.0397123743 30.7315442 46.3259308 255 79 163
0.596364931 31.7184066 47.1675182 255 79 163
0.156858153 30.761554 46.6593665 255 79 163
0.896687226 31.7184066 47.3562232 255 79 163
0.345563158 30.7884747 46.9584798 255 79 163
0.0397123743 29.9063421 46.4317627 255 79 163
1.23147063 31.7184066 47.473369 255 79 163
0.596364931 30.8109564 47.2082719 255 79 163
0.156858153 29.9614457 46.7619801 255 79 163
0.896687226 30.8278717 47.3962172 255 79 163
0.345563158 30.0108771 47.0582064 255 79 163
1.23147063 30.8383726 47.5128914 255 79 163
0.596364931 30.0521577 47.3055875 255 79 163
0.0397123743 28.7895381 46.678353 255 79 163
0.896687226 30.0832175 47.4917189 255 79 163
0.156858153 28.8786028 47.0010717 255 79 163
0.0397123743 28.1437061 46.8781228 255 79 163
1.23147063 30.1024991 47.6072669 255 79 163
0.345563158 28.9584996 47.2905713 255 79 163
0.156858153 28.2524101 47.1947667 255 79 163
0.596364931 29.0252222 47.5323349 255 79 163
0.345563158 28.3499246 47.4788167 255 79 163
0.896687226 29.0754246 47.7142395 255 79 163
0.596364931 28.4313598 47.7160293 255 79 163
1.23147063 29.1065897 47.8271636 255 79 163
0.0397123743 26.9416683 47.3718701 255 79 163
0.896687226 28.4926322 47.8945098 255 79 163
0.156858153 27.0869253 47.6734995 255 79 163
0.0397123743 26.4785786 47.6085154 255 79 163
1.23147063 28.5306694 48.0053083 255 79 163
0.345563158 27.2172303 47.9440806 255 79 163
0.156858153 26.6379179 47.9029486 255 79 163
0.596364931 27.3260491 48.1700452 255 79 163
0.345563158 26.7808555 48.1670742 255 79 163
0.896687226 27.4079251 48.3400625 255 79 163
0.596364931 26.900224 48.3876478 255 79 163
1.23147063 27.4587528 48.4456072 255 79 163
0.0397123743 25.2473267 48.3841921 255 79 163
0.896687226 26.9900376 48.5536089 255 79 163
0.156858153 25.4441074 48.6550375 255 79 163
1.23147063 27.0457928 48.6566355 255 79 163
0.345563158 25.6206325 48.8980034 255 79 163
0.596364931 25.76805 49.1009063 255 79 163
0.896687226 25.8789681 49.2535718 255 79 163
1.23147063 25.9478246 49.3483447 255 79 163
0.0397123743 23.760971 49.682782 255 79 163
0.156858153 24.0029507 49.9141383 255 79 163
0.345563158 24.2200221 50.1216798 255 79 163
0.596364931 24.4013003 50.2949995 255 79 163
0.896687226 24.5376953 50.4254065 255 79 163
1.23147063 24.6223677 50.5063616 255 79 163
0.0397123743 22.5303738 51.225902 255 79 163
0.156858153 22.809775 51.4103332 255 79 163
0.345563158 23.060416 51.5757799 255 79 163
0.596364931 23.2697284 51.7139458 255 79 163
0.896687226 23.4272166 51.8179028 255 79 163
0.0397123743 21.6364212 52.8685006 255 79 163
1.23147063 23.5249833 51.8824381 255 79 163
0.156858153 21.9430069 53.0029815 255 79 163
0.345563158 22.218034 53.1236196 255 79 163
0.596364931 22.4477116 53.2243656 255 79 163
0.896687226 22.6205226 53.3001675 255 79 163
0.0397123743 21.0460283 54.5882562 255 79 163
1.23147063 22.7278016 53.3472244 255 79 163
0.156858153 21.3705674 54.6704406 255 79 163
0.345563158 21.6616999 54.7441654 255 79 163
0.596364931 21.9048273 54.8057336 255 79 163
0.896687226 22.0877579 54.8520579 255 79 163
0.0397123743 20.7467501 56.381732 255 79 163
1.23147063 22.2013191 54.8808155 255 79 163
0.156858153 21.0803901 56.4093782 255 79 163
0.345563158 21.3796866 56.4341786 255 79 163
0.596364931 21.6296318 56.4548897 255 79 163
0.896687226 21.8176923 56.4704728 255 79 163
0.0397123743 20.7467501 58.2000068 255 79 163
1.23147063 21.9344379 56.4801466 255 79 163
0.156858153 21.0803901 58.1723606 255 79 163
0.0397123743 20.8087843 58.7686781 255 79 163
0.345563158 21.3796866 58.1475602 255 79 163
0.156858153 21.1405379 58.7237391 255 79 163
0.596364931 21.6296318 58.1268491 255 79 163
0.345563158 21.4381422 58.6834258 255 79 163
0.896687226 21.8176923 58.111266 255 79 163
0.596364931 21.6866741 58.6497599 255 79 163
0.0397123743 21.0460283 59.9934826 255 79 163
1.23147063 21.9344379 58.1015922 255 79 163
0.896687226 21.8736713 58.6244294 255 79 163
0.156858153 21.3705674 59.9112981 255 79 163
1.23147063 21.9897569 58.6087045 255 79 163
0.0397123743 21.2479794 60.6929174 255 79 163
0.345563158 21.6616999 59.8375734 255 79 163
0.156858153 21.5663773 60.5894636 255 79 163
0.596364931 21.9048273 59.7760052 255 79 163
0.345563158 21.8520008 60.496659 255 79 163
0.896687226 22.0877579 59.7296808 255 79 163
0.0397123743 21.6364212 61.7132382 255 79 163
0.596364931 22.0905275 60.4191569 255 79 163
1.23147063 22.2013191 59.7009233 255 79 163
0.156858153 21.9430069 61.5787573 255 79 163
0.896687226 22.2699966 60.3608439 255 79 163
0.345563158 22.218034 61.4581192 255 79 163
1.23147063 22.3814089 60.3246439 255 79 163
0.0397123743 22.0237026 62.5078121 255 79 163
0.596364931 22.4477116 61.3573732 255 79 163
0.156858153 22.3185114 62.3491687 255 79 163
0.896687226 22.6205226 61.2815713 255 79 163
0.345563158 22.5829738 62.2068554 255 79 163
0.0397123743 22.5018243 63.3123631 255 79 163
1.23147063 22.7278016 61.2345144 255 79 163
0.596364931 22.8038288 62.0880083 255 79 163
0.156858153 22.7820937 63.129254 255 79 163
0.896687226 22.9700015 61.9985869 255 79 163
0.345563158 23.0335135 62.9649932 255 79 163
1.23147063 23.0731596 61.9430752 255 79 163
0.0397123743 23.1110216 64.1550299 255 79 163
0.596364931 23.2434763 62.8278177 255 79 163
0.156858153 23.3727658 63.9462958 255 79 163
0.896687226 23.4014538 62.7246058 255 79 163
0.345563158 23.6075672 63.759048 255 79 163
0.0397123743 23.6186317 64.7472374 255 79 163
1.23147063 23.4995243 62.6605331 255 79 163
0.596364931 23.8036519 63.6026756 255 79 163
0.156858153 23.8649399 64.5204948 255 79 163
0.896687226 23.9511874 63.48502 255 79 163
0.345563158 24.0858942 64.317092 255 79 163
1.23147063 24.0427757 63.4119808 255 79 163
0.596364931 24.2704151 64.1472286 255 79 163
0.0397123743 24.474989 65.5816279 255 79 163
0.896687226 24.4092498 64.0194222 255 79 163
0.156858153 24.6952559 65.3295121 255 79 163
0.0397123743 24.95638 65.9787214 255 79 163
1.23147063 24.4954368 63.9400815 255 79 163
0.345563158 24.8928496 65.103348 255 79 163
0.156858153 25.1620082 65.7145302 255 79 163
0.596364931 25.0578618 64.9144763 255 79 163
0.345563158 25.3464699 65.4775337 255 79 163
0.896687226 25.1820181 64.7723679 255 79 163
0.596364931 25.5005156 65.2796159 255 79 163
1.23147063 25.2590929 64.6841488 255 79 163
0.0397123743 26.0717658 66.7417542 255 79 163
0.896687226 25.6164206 65.1307011 255 79 163
0.156858153 26.2434759 66.4543598 255 79 163
1.23147063 25.688373 65.0382566 255 79 163
0.345563158 26.397511 66.1965485 255 79 163
0.596364931 26.5261471 65.981248 255 79 163
0.896687226 26.6229337 65.8192544 255 79 163
1.23147063 26.6830177 65.7186908 255 79 163
0.0397123743 27.8500302 67.5981212 255 79 163
0.156858153 27.9676647 67.2846853 255 79 163
0.345563158 28.0731904 67.0035131 255 79 163
0.596364931 28.1613158 66.7687038 255 79 163
0.896687226 28.227622 66.5920316 255 79 163
1.23147063 28.2687841 66.4823556 255 79 163
0.0397123743 29.7526275 68.1232047 255 79 163
0.156858153 29.8124054 67.7938014 255 79 163
0.345563158 29.86603 67.4983054 255 79 163
0.596364931 29.9108124 67.2515341 255 79 163
0.896687226 29.944507 67.0658617 255 79 163
1.23147063 29.9654242 66.9505985 255 79 163
0 1.5839277 80.4561394 255 79 163
0.0228550831 1.31582465 80.4332843 255 79 163
0.0907607636 1.05545872 80.3653786 255 79 163
0.201757368 0.810343745 80.254382 255 79 163
0.352641675 0.58755343 80.1034977 255 79 163
0.539059352 0.393517226 79.91708 255 79 163
0.755630618 0.233834775 79.7005088 255 79 163
1.08039235 0.0821690277 79.375747 255 79 163
1.32882987 0.0206772213 79.1273095 255 79 163
1.5839277 -2.22044605e-16 78.8722117 255 79 163
59.2936898 0 78.8722117 255 79 163
57.7097621 1.5839277 80.4561394 255 79 163
58.2195279 1.07416186 80.3718669 255 79 163
58.6333903 0.660299541 80.1589665 255 79 163
58.9385732 0.355116633 79.8716367 255 79 163
59.1234944 0.170195416 79.5864861 255 79 163
59.236823 0.056866762 79.2928206 255 79 163
59.2794087 0.0142810713 79.0844295 255 79 163
57.7097621 1.5839277 80.4561394 255 79 163
58.2195279 1.07416186 80.3718669 255 79 163
58.6333903 0.660299541 80.1589665 255 79 163
58.9385732 0.355116633 79.8716367 255 79 163
59.1234944 0.170195416 79.5864861 255 79 163
59.236823 0.056866762 79.2928206 255 79 163
59.2794087 0.0142810713 79.0844295 255 79 163
59.2936898 0 78.8722117 255 79 163
59.2936898 43.5288395 78.8722117 255 79 163
59.2539774 43.5288395 79.2246687 255 79 163
59.1368316 43.5288395 79.5594521 255 79 163
58.9481266 43.5288395 79.8597744 255 79 163
58.6973249 43.5288395 80.1105762 255 79 163
58.3970026 43.5288395 80.2992812 255 79 163
58.0622192 43.5288395 80.416427 255 79 163
57.7097621 43.5288395 80.4561394 255 79 163
21.5101394 43.5288395 80.4561394 218 222 230
21.5101394 40.7741083 80.4561394 218 222 230
21.5101394 40.7741083 69.990338 218 222 230
21.5101394 40.8138207 69.637881 218 222 230
21.5101394 40.9309664 69.3030976 218 222 230
21.5101394 41.1196714 69.0027753 218 222 230
21.5101394 41.3704732 68.7519735 218 222 230
21.5101394 41.6707955 68.5632685 218 222 230
21.5101394 42.0055789 68.4461227 218 222 230
21.5101394 42.358036 68.4064103 218 222 230
21.5101394 45.1127672 68.4064103 218 222 230
21.5101394 45.1127672 78.8722117 218 222 230
21.5101394 43.8812966 80.416427 218 222 230
21.5101394 44.21608 80.2992812 218 222 230
21.5101394 44.5164023 80.1105762 218 222 230
21.5101394 44.7672041 79.8597744 218 222 230
21.5101394 44.9559091 79.5594521 218 222 230
21.5101394 45.0730548 79.2246687 218 222 230
21.5101394 43.5288395 80.4561394 255 79 163
57.7097621 43.5288395 80.4561394 255 79 163
57.7097621 43.8812966 80.416427 255 79 163
57.7097621 44.21608 80.2992812 255 79 163
57.7097621 44.5164023 80.1105762 255 79 163
57.7097621 44.7672041 79.8597744 255 79 163
57.7097621 44.9559091 79.5594521 255 79 163
57.7097621 45.0730548 79.2246687 255 79 163
57.7097621 45.1127672 78.8722117 255 79 163
21.5101394 45.1127672 78.8722117 255 79 163
21.5101394 43.8812966 80.416427 255 79 163
21.5101394 44.21608 80.2992812 255 79 163
21.5101394 44.5164023 80.1105762 255 79 163
21.5101394 44.7672041 79.8597744 255 79 163
21.5101394 44.9559091 79.5594521 255 79 163
21.5101394 45.0730548 79.2246687 255 79 163
1.5839277 -2.22044605e-16 0 218 222 230
59.2936898 0 0 218 222 230
1.5839277 -2.22044605e-16 78.8722117 218 222 230
59.2936898 0 78.8722117 218 222 230
57.7097621 45.1127672 0 255 79 163
57.7097621 45.1127672 78.8722117 255 79 163
59.2936898 43.5288395 78.8722117 255 79 163
59.2539774 43.8812966 78.8722117 255 79 163
59.1368316 44.21608 78.8722117 255 79 163
58.9481266 44.5164023 78.8722117 255 79 163
58.6973249 44.7672041 78.8722117 255 79 163
58.3970026 44.9559091 78.8722117 255 79 163
58.0622192 45.0730548 78.8722117 255 79 163
59.2936898 43.5288395 0 255 79 163
58.0622192 45.0730548 0 255 79 163
58.3970026 44.9559091 0 255 79 163
58.6973249 44.7672041 0 255 79 163
58.9481266 44.5164023 0 255 79 163
59.1368316 44.21608 0 255 79 163
59.2539774 43.8812966 0 255 79 163
59.2936898 0 0 218 222 230
59.2936898 0 78.8722117 218 222 230
59.2936898 43.5288395 0 218 222 230
59.2936898 43.5288395 78.8722117 218 222 230
59.2936898 31.7184066 67.0686574 218 222 230
59.2936898 29.9725151 66.9115243 218 222 230
59.2936898 28.282738 66.4451755 218 222 230
59.2936898 26.7033862 65.6845997 218 222 230
59.2936898 25.2852212 64.6542425 218 222 230
59.2936898 24.0738241 63.3872205 218 222 230
59.2936898 23.1081301 61.9242567 218 222 230
59.2936898 22.4191776 60.3123721 218 222 230
59.2936898 22.0291099 58.6033738 218 222 230
59.2936898 21.9504641 56.8521906 218 222 230
59.2936898 22.1857681 55.1151069 218 222 230
59.2936898 22.7274589 53.447954 218 222 230
59.2936898 23.5581262 51.9043155 218 222 230
59.2936898 24.6510716 50.5338053 218 222 230
59.2936898 25.971167 49.3804727 218 222 230
59.2936898 27.4759833 48.4813868 218 222 230
59.2936898 29.1171547 47.8654449 218 222 230
59.2936898 30.8419324 47.5524439 218 222 230
59.2936898 32.5948807 47.5524439 218 222 230
59.2936898 34.3196584 47.8654449 218 222 230
59.2936898 35.9608298 48.4813868 218 222 230
59.2936898 37.4656461 49.3804727 218 222 230
59.2936898 38.7857415 50.5338053 218 222 230
59.2936898 39.8786869 51.9043155 218 222 230
59.2936898 40.7093542 53.447954 218 222 230
59.2936898 41.251045 55.1151069 218 222 230
59.2936898 41.486349 56.8521906 218 222 230
59.2936898 41.4077033 58.6033738 218 222 230
59.2936898 41.0176356 60.3123721 218 222 230
59.2936898 40.328683 61.9242567 218 222 230
59.2936898 39.3629891 63.3872205 218 222 230
59.2936898 38.1515919 64.6542425 218 222 230
59.2936898 36.733427 65.6845997 218 222 230
59.2936898 35.1540751 66.4451755 218 222 230
59.2936898 33.464298 66.9115243 218 222 230
36.5468879 18.0019274 33.6599533 218 222 230
36.5468879 16.796473 45.917113 218 222 230
36.5468879 27.1934103 38.9034879 218 222 230
36.5468879 27.0826213 36.2090235 218 222 230
36.5468879 27.372825 36.4181517 218 222 230
36.5468879 27.608702 36.6870658 218 222 230
36.5468879 27.7782225 37.0020508 218 222 230
36.5468879 27.8727407 37.3470422 218 222 230
36.5468879 27.8874361 37.7044451 218 222 230
36.5468879 27.8215593 38.0560315 218 222 230
36.5468879 27.6784699 38.3838702 218 222 230
36.5468879 27.4654658 38.6712411 218 222 230
36.5468879 20.3532521 32.433604 218 222 230
36.5468879 19.9904529 32.2856283 218 222 230
36.5468879 19.6024303 32.2312367 218 222 230
36.5468879 19.212928 32.2737574 218 222 230
36.5468879 18.8457805 32.4105885 218 222 230
36.5468879 18.5234543 32.6333571 218 222 230
36.5468879 18.2656731 32.9284315 218 222 230
36.5468879 18.0882111 33.2777555 218 222 230
59.2936898 31.7184066 67.0686574 218 222 230
1.5839277 31.7184066 67.0686574 218 222 230
59.2936898 31.7184066 67.0686574 218 222 230
59.2936898 29.9725151 66.9115243 218 222 230
59.2936898 28.282738 66.4451755 218 222 230
59.2936898 26.7033862 65.6845997 218 222 230
59.2936898 25.2852212 64.6542425 218 222 230
59.2936898 24.0738241 63.3872205 218 222 230
59.2936898 23.1081301 61.9242567 218 222 230
59.2936898 22.4191776 60.3123721 218 222 230
59.2936898 22.0291099 58.6033738 218 222 230
59.2936898 21.9504641 56.8521906 218 222 230
59.2936898 22.1857681 55.1151069 218 222 230
59.2936898 22.7274589 53.447954 218 222 230
59.2936898 23.5581262 51.9043155 218 222 230
59.2936898 24.6510716 50.5338053 218 222 230
59.2936898 25.971167 49.3804727 218 222 230
59.2936898 27.4759833 48.4813868 218 222 230
59.2936898 29.1171547 47.8654449 218 222 230
59.2936898 30.8419324 47.5524439 218 222 230
59.2936898 32.5948807 47.5524439 218 222 230
59.2936898 34.3196584 47.8654449 218 222 230
59.2936898 35.9608298 48.4813868 218 222 230
59.2936898 37.4656461 49.3804727 218 222 230
59.2936898 38.7857415 50.5338053 218 222 230
59.2936898 39.8786869 51.9043155 218 222 230
59.2936898 40.7093542 53.447954 218 222 230
59.2936898 41.251045 55.1151069 218 222 230
59.2936898 41.486349 56.8521906 218 222 230
59.2936898 41.4077033 58.6033738 218 222 230
59.2936898 41.0176356 60.3123721 218 222 230
59.2936898 40.328683 61.9242567 218 222 230
59.2936898 39.3629891 63.3872205 218 222 230
59.2936898 38.1515919 64.6542425 218 222 230
59.2936898 36.733427 65.6845997 218 222 230
59.2936898 35.1540751 66.4451755 218 222 230
59.2936898 33.464298 66.9115243 218 222 230
1.5839277 31.7184066 67.0686574 218 222 230
1.5839277 29.9725151 66.9115243 218 222 230
1.5839277 28.282738 66.4451755 218 222 230
1.5839277 26.7033862 65.6845997 218 222 230
1.5839277 25.2852212 64.6542425 218 222 230
1.5839277 24.0738241 63.3872205 218 222 230
1.5839277 23.1081301 61.9242567 218 222 230
1.5839277 22.4191776 60.3123721 218 222 230
1.5839277 22.0291099 58.6033738 218 222 230
1.5839277 21.9504641 56.8521906 218 222 230
1.5839277 22.1857681 55.1151069 218 222 230
1.5839277 22.7274589 53.447954 218 222 230
1.5839277 23.5581262 51.9043155 218 222 230
1.5839277 24.6510716 50.5338053 218 222 230
1.5839277 25.971167 49.3804727 218 222 230
1.5839277 27.4759833 48.4813868 218 222 230
1.5839277 29.1171547 47.8654449 218 222 230
1.5839277 30.8419324 47.5524439 218 222 230
1.5839277 32.5948807 47.5524439 218 222 230
1.5839277 34.3196584 47.8654449 218 222 230
1.5839277 35.9608298 48.4813868 218 222 230
1.5839277 37.4656461 49.3804727 218 222 230
1.5839277 38.7857415 50.5338053 218 222 230
1.5839277 39.8786869 51.9043155 218 222 230
1.5839277 40.7093542 53.447954 218 222 230
1.5839277 41.251045 55.1151069 218 222 230
1.5839277 41.486349 56.8521906 218 222 230
1.5839277 41.4077033 58.6033738 218 222 230
1.5839277 41.0176356 60.3123721 218 222 230
1.5839277 40.328683 61.9242567 218 222 230
1.5839277 39.3629891 63.3872205 218 222 230
1.5839277 38.1515919 64.6542425 218 222 230
1.5839277 36.733427 65.6845997 218 222 230
1.5839277 35.1540751 66.4451755 218 222 230
1.5839277 33.464298 66.9115243 218 222 230
59.2936898 43.5288395 78.8722117 255 79 163
59.2539774 43.5288395 79.2246687 255 79 163
59.1368316 43.5288395 79.5594521 255 79 163
58.9481266 43.5288395 79.8597744 255 79 163
58.6973249 43.5288395 80.1105762 255 79 163
58.3970026 43.5288395 80.2992812 255 79 163
58.0622192 43.5288395 80.416427 255 79 163
57.7097621 43.5288395 80.4561394 255 79 163
59.2936898 43.5288395 78.8722117 255 79 163
59.2539774 43.8812966 78.8722117 255 79 163
59.1368316 44.21608 78.8722117 255 79 163
58.9481266 44.5164023 78.8722117 255 79 163
58.6973249 44.7672041 78.8722117 255 79 163
58.3970026 44.9559091 78.8722117 255 79 163
58.0622192 45.0730548 78.8722117 255 79 163
57.7097621 45.1127672 78.8722117 255 79 163
57.7097621 43.8812966 80.416427 255 79 163
57.7097621 44.21608 80.2992812 255 79 163
57.7097621 44.5164023 80.1105762 255 79 163
57.7097621 44.7672041 79.8597744 255 79 163
57.7097621 44.9559091 79.5594521 255 79 163
57.7097621 45.0730548 79.2246687 255 79 163
59.2161669 43.605408 79.3556462 255 79 163
59.2161669 43.75105 79.3083242 255 79 163
59.2161669 43.8749404 79.2183126 255 79 163
58.9911865 43.8165372 79.7576542 255 79 163
59.2161669 43.9649521 79.0944221 255 79 163
58.9911865 44.0760731 79.6254141 255 79 163
58.6407714 43.7292985 80.1378596 255 79 163
59.2161669 44.012274 78.9487802 255 79 163
58.9911865 44.2820419 79.4194452 255 79 163
58.6407714 44.110594 80.0139692 255 79 163
58.9911865 44.414282 79.1599094 255 79 163
58.6407714 44.4349434 79.7783156 255 79 163
58.1992227 43.9943442 80.3048877 255 79 163
58.6407714 44.670597 79.4539662 255 79 163
58.1992227 44.414282 80.0909187 255 79 163
58.6407714 44.7944875 79.0726706 255 79 163
58.1992227 44.7475466 79.7576542 255 79 163
58.1992227 44.9615156 79.3377163 255 79 163
3 26 3 25
3 13 25 3
3 27 3 26
3 56 57 3
3 58 3 57
3 55 27 28
3 55 3 27
3 55 56 3
3 59 3 58
3 54 28 29
3 54 55 28
3 60 3 59
3 14 13 3
3 15 3 2
3 15 14 3
3 53 29 30
3 53 54 29
3 16 15 2
3 17 16 2
3 61 3 60
3 18 17 2
3 19 18 2
3 52 53 30
3 52 30 31
3 52 31 32
3 20 19 2
3 21 20 2
3 22 21 2
3 51 52 32
3 51 32 24
3 50 51 24
3 49 50 24
3 4 3 61
3 4 61 62
3 4 62 63
3 4 63 64
3 4 64 65
3 5 4 65
3 5 65 66
3 12 5 66
3 11 12 66
3 67 10 11
3 67 11 66
3 9 10 67
3 8 9 67
3 23 22 2
3 23 49 24
3 23 46 47
3 23 47 48
3 23 48 49
3 68 6 7
3 68 7 8
3 68 8 67
3 45 46 23
3 69 6 68
3 44 45 23
3 70 6 69
3 43 44 23
3 42 43 23
3 1 33 34
3 1 70 33
3 1 6 70
3 35 1 34
3 0 35 36
3 0 36 37
3 0 37 38
3 0 38 39
3 0 39 40
3 0 40 41
3 0 41 42
3 0 1 35
3 0 42 23
3 0 23 2
3 76 72 71
3 76 71 73
3 74 75 76
3 74 76 73
3 87 77 78
3 87 86 77
3 88 78 79
3 88 87 78
3 89 79 80
3 89 88 79
3 90 89 80
3 91 80 81
3 91 90 80
3 92 81 82
3 92 91 81
3 93 82 83
3 93 92 82
3 94 83 84
3 94 93 83
3 85 94 84
3 98 95 96
3 97 98 96
3 107 105 104
3 107 106 105
3 99 102 101
3 99 103 102
3 99 104 103
3 99 107 104
3 100 107 99
3 110 108 107
3 110 109 108
3 110 107 100
3 113 110 111
3 113 111 112
3 113 114 115
3 113 115 116
3 113 116 109
3 113 109 110
3 124 126 125
3 124 132 126
3 123 131 132
3 123 132 124
3 122 129 130
3 122 130 131
3 122 131 123
3 121 128 129
3 121 129 122
3 120 128 121
3 119 117 127
3 119 127 128
3 119 128 120
3 118 117 119
3 134 136 137
3 134 137 138
3 135 134 133
3 135 136 134
3 142 140 139
3 142 141 140
3 143 146 145
3 144 146 143
3 159 148 147
3 159 147 158
3 160 149 148
3 160 148 159
3 161 150 149
3 161 149 160
3 162 151 150
3 162 152 151
3 162 150 161
3 163 152 162
3 164 153 152
3 164 152 163
3 165 154 153
3 165 153 164
3 166 155 154
3 166 156 155
3 166 154 165
3 157 156 166
3 176 184 177
3 175 184 176
3 174 183 184
3 174 184 175
3 173 182 183
3 173 183 174
3 172 181 182
3 172 182 173
3 171 179 180
3 171 180 181
3 171 181 172
3 170 179 171
3 169 178 179
3 169 179 170
3 168 167 178
3 168 178 169
3 186 187 185
3 186 188 187
3 190 191 189
3 190 192 191
3 274 237 236
3 275 237 274
3 193 194 279
3 280 230 229
3 280 229 273
3 281 230 280
3 281 231 230
3 282 232 231
3 282 231 281
3 283 233 232
3 283 232 282
3 284 233 283
3 284 234 233
3 285 280 273
3 285 272 271
3 285 273 272
3 286 234 284
3 286 227 228
3 286 235 234
3 286 228 235
3 287 280 285
3 287 281 280
3 288 281 287
3 288 282 281
3 289 282 288
3 289 283 282
3 290 283 289
3 290 284 283
3 291 285 271
3 291 271 270
3 292 286 284
3 292 290 226
3 292 226 227
3 292 284 290
3 292 227 286
3 293 287 285
3 293 285 291
3 294 287 293
3 294 288 287
3 295 288 294
3 295 289 288
3 296 289 295
3 296 226 290
3 296 290 289
3 297 291 270
3 298 226 296
3 298 296 225
3 298 225 226
3 299 294 293
3 299 293 291
3 299 291 297
3 300 270 269
3 300 297 270
3 301 294 299
3 302 297 300
3 302 299 297
3 303 294 301
3 303 296 295
3 303 295 294
3 304 301 299
3 304 299 302
3 305 296 303
3 305 225 296
3 306 303 301
3 306 301 304
3 307 300 269
3 307 302 300
3 308 224 225
3 308 225 305
3 309 303 306
3 309 305 303
3 310 302 307
3 311 308 305
3 311 224 308
3 311 305 309
3 312 302 310
3 312 306 304
3 312 304 302
3 313 307 269
3 313 269 268
3 314 306 312
3 314 309 306
3 315 307 313
3 315 310 307
3 316 311 309
3 316 309 314
3 317 312 310
3 317 314 312
3 317 310 315
3 318 313 268
3 319 223 224
3 319 224 311
3 319 311 316
3 320 314 317
3 321 315 313
3 321 313 318
3 322 316 314
3 322 314 320
3 323 317 315
3 323 315 321
3 324 223 319
3 324 319 316
3 324 316 322
3 325 268 267
3 325 318 268
3 326 320 317
3 326 317 323
3 327 318 325
3 327 321 318
3 328 322 320
3 328 320 326
3 329 323 321
3 329 326 323
3 329 321 327
3 330 325 267
3 331 324 322
3 331 322 328
3 331 222 223
3 331 223 324
3 332 326 329
3 333 325 330
3 333 327 325
3 334 326 332
3 334 328 326
3 335 332 329
3 335 329 327
3 335 327 333
3 336 331 328
3 336 222 331
3 336 328 334
3 337 267 266
3 337 330 267
3 338 332 335
3 339 333 330
3 339 330 337
3 339 335 333
3 340 334 332
3 340 332 338
3 340 336 334
3 341 337 266
3 342 335 339
3 343 222 336
3 343 221 222
3 343 336 340
3 344 339 337
3 344 337 341
3 345 338 335
3 345 335 342
3 345 340 338
3 346 339 344
3 346 342 339
3 347 340 345
3 348 345 342
3 348 342 346
3 349 221 343
3 349 343 340
3 349 340 347
3 350 341 266
3 350 266 265
3 351 347 345
3 351 345 348
3 352 341 350
3 352 344 341
3 353 350 265
3 354 349 347
3 354 220 221
3 354 347 351
3 354 221 349
3 355 346 344
3 355 344 352
3 356 352 350
3 356 350 353
3 356 355 352
3 357 346 355
3 357 348 346
3 358 357 355
3 358 355 356
3 359 348 357
3 359 351 348
3 360 357 358
3 360 359 357
3 361 351 359
3 361 220 354
3 361 354 351
3 362 265 264
3 362 353 265
3 363 359 360
3 364 358 356
3 364 362 264
3 364 353 362
3 364 356 353
3 365 361 359
3 365 359 363
3 365 220 361
3 365 219 220
3 366 358 364
3 367 360 358
3 367 358 366
3 368 363 360
3 368 365 363
3 368 360 367
3 369 219 365
3 369 218 219
3 369 365 368
3 370 264 263
3 371 370 263
3 371 264 370
3 371 364 264
3 372 367 366
3 372 366 364
3 372 364 371
3 373 367 372
3 374 368 367
3 374 367 373
3 374 369 368
3 375 218 369
3 375 369 374
3 376 263 262
3 377 371 263
3 377 263 376
3 378 371 377
3 378 372 371
3 379 372 378
3 379 373 372
3 380 373 379
3 380 374 373
3 381 217 218
3 381 218 375
3 381 375 374
3 381 374 380
3 382 376 262
3 382 377 376
3 382 262 261
3 383 377 382
3 384 378 377
3 384 377 383
3 385 379 378
3 385 378 384
3 386 380 379
3 386 379 385
3 387 260 259
3 387 261 260
3 387 382 261
3 388 216 217
3 388 217 381
3 388 381 380
3 388 380 386
3 389 383 382
3 389 382 387
3 390 383 389
3 390 384 383
3 391 385 384
3 391 384 390
3 392 385 391
3 392 386 385
3 393 387 259
3 393 389 387
3 394 392 215
3 394 386 392
3 394 215 216
3 394 216 388
3 394 388 386
3 395 389 393
3 396 391 390
3 396 390 389
3 396 389 395
3 397 392 391
3 397 391 396
3 398 215 392
3 398 392 397
3 399 259 258
3 399 395 393
3 399 393 259
3 400 215 398
3 400 214 215
3 400 398 214
3 401 395 399
3 402 399 258
3 402 258 257
3 403 395 401
3 403 396 395
3 404 401 399
3 404 399 402
3 405 396 403
3 405 397 396
3 405 398 397
3 406 403 401
3 406 401 404
3 407 214 398
3 407 398 405
3 408 405 403
3 408 403 406
3 409 402 257
3 410 213 214
3 410 214 407
3 411 405 408
3 411 407 405
3 412 404 402
3 412 402 409
3 413 410 407
3 413 213 410
3 413 407 411
3 414 409 257
3 414 257 256
3 415 404 412
3 415 406 404
3 416 412 409
3 416 409 414
3 417 406 415
3 417 408 406
3 417 411 408
3 418 415 412
3 418 412 416
3 419 413 411
3 419 411 417
3 420 417 415
3 420 415 418
3 421 414 256
3 422 213 413
3 422 212 213
3 422 413 419
3 423 417 420
3 423 419 417
3 424 416 414
3 424 414 421
3 425 212 422
3 425 422 419
3 425 419 423
3 426 418 416
3 426 416 424
3 427 256 255
3 427 421 256
3 427 424 421
3 428 420 418
3 428 418 426
3 428 423 420
3 429 424 427
3 430 423 428
3 431 426 424
3 431 424 429
3 432 427 255
3 433 425 423
3 433 423 430
3 433 211 212
3 433 212 425
3 434 428 426
3 434 426 431
3 434 430 428
3 435 427 432
3 435 429 427
3 436 433 430
3 436 430 434
3 437 431 429
3 437 429 435
3 438 211 433
3 438 433 436
3 439 255 254
3 439 432 255
3 440 434 431
3 440 431 437
3 441 435 432
3 441 437 435
3 441 432 439
3 442 436 434
3 442 434 440
3 443 440 437
3 443 437 441
3 444 439 254
3 445 210 211
3 445 211 438
3 445 438 436
3 445 436 442
3 446 440 443
3 447 441 439
3 447 443 441
3 447 439 444
3 448 440 446
3 448 445 442
3 448 442 440
3 449 446 443
3 449 443 447
3 450 210 445
3 450 445 448
3 451 446 449
3 452 444 254
3 452 254 253
3 453 448 446
3 453 446 451
3 454 447 444
3 454 444 452
3 455 452 253
3 456 209 210
3 456 210 450
3 456 450 448
3 456 448 453
3 457 449 447
3 457 447 454
3 458 454 452
3 458 452 455
3 458 457 454
3 459 451 449
3 459 449 457
3 460 457 458
3 460 459 457
3 461 451 459
3 461 453 451
3 462 459 460
3 463 453 461
3 463 209 456
3 463 456 453
3 464 253 252
3 464 455 253
3 465 459 462
3 465 463 461
3 465 461 459
3 466 458 455
3 466 455 464
3 466 460 458
3 467 464 252
3 468 463 465
3 468 209 463
3 468 208 209
3 469 460 466
3 469 462 460
3 470 464 467
3 470 466 464
3 471 462 469
3 472 469 466
3 472 466 470
3 473 462 471
3 473 465 462
3 473 468 465
3 474 471 469
3 474 469 472
3 475 208 468
3 475 468 473
3 476 467 252
3 476 252 251
3 477 473 471
3 477 471 474
3 478 470 467
3 478 467 476
3 478 476 251
3 479 207 208
3 479 473 477
3 479 208 475
3 479 475 473
3 480 472 470
3 480 470 478
3 481 472 480
3 481 474 472
3 482 477 474
3 482 474 481
3 483 207 479
3 483 479 477
3 483 477 482
3 484 251 250
3 485 478 251
3 485 251 484
3 485 484 250
3 486 480 478
3 486 478 485
3 487 480 486
3 487 481 480
3 488 482 481
3 488 481 487
3 489 205 206
3 489 206 207
3 489 207 483
3 489 483 482
3 489 482 488
3 490 250 249
3 491 250 490
3 491 485 250
3 491 486 485
3 492 487 486
3 492 486 491
3 493 487 492
3 494 487 493
3 494 488 487
3 494 489 488
3 495 490 249
3 495 249 248
3 496 489 494
3 496 205 489
3 497 492 491
3 497 490 495
3 497 491 490
3 498 492 497
3 498 493 492
3 499 493 498
3 500 494 493
3 500 493 499
3 501 495 248
3 501 248 247
3 502 496 494
3 502 204 205
3 502 205 496
3 502 494 500
3 503 495 501
3 503 498 497
3 503 497 495
3 504 498 503
3 504 499 498
3 505 499 504
3 506 500 499
3 506 502 500
3 506 499 505
3 507 501 247
3 507 247 246
3 508 203 204
3 508 204 502
3 508 506 203
3 508 502 506
3 509 501 507
3 509 503 501
3 510 504 503
3 510 503 509
3 511 504 510
3 511 505 504
3 512 203 506
3 512 506 505
3 512 505 511
3 513 507 246
3 513 246 245
3 514 202 203
3 514 512 202
3 514 203 512
3 515 507 513
3 515 509 507
3 516 245 244
3 516 513 245
3 517 510 509
3 517 509 515
3 518 515 513
3 518 513 516
3 519 511 510
3 519 510 517
3 520 517 515
3 520 515 518
3 521 202 512
3 521 512 511
3 521 511 519
3 522 519 517
3 522 517 520
3 523 516 244
3 524 201 202
3 524 202 521
3 525 521 519
3 525 519 522
3 526 518 516
3 526 520 518
3 526 516 523
3 527 521 525
3 527 201 524
3 527 524 521
3 528 244 243
3 528 523 244
3 529 520 526
3 529 522 520
3 530 523 528
3 530 526 523
3 531 522 529
3 532 529 526
3 532 526 530
3 533 522 531
3 533 525 522
3 534 528 243
3 535 531 529
3 535 529 532
3 536 525 533
3 536 527 525
3 536 200 201
3 536 201 527
3 537 530 528
3 537 528 534
3 538 531 535
3 538 533 531
3 539 532 530
3 539 530 537
3 540 200 536
3 540 533 538
3 540 536 533
3 541 534 243
3 541 243 242
3 542 535 532
3 542 532 539
3 543 537 534
3 543 534 541
3 544 538 535
3 544 535 542
3 545 539 537
3 545 537 543
3 546 543 541
3 546 541 242
3 547 199 200
3 547 200 540
3 547 540 538
3 547 538 544
3 548 542 539
3 548 539 545
3 549 543 546
3 550 544 542
3 550 542 548
3 551 545 543
3 551 548 545
3 551 543 549
3 552 544 550
3 552 199 547
3 552 547 544
3 553 242 241
3 553 546 242
3 554 550 548
3 554 548 551
3 555 549 546
3 555 546 553
3 556 550 554
3 557 551 549
3 557 549 555
3 558 555 553
3 558 553 241
3 559 198 199
3 559 199 552
3 559 552 550
3 559 550 556
3 560 551 557
3 560 554 551
3 561 555 558
3 562 554 560
3 562 556 554
3 563 560 557
3 563 555 561
3 563 557 555
3 564 559 556
3 564 198 559
3 564 556 562
3 565 560 563
3 566 558 241
3 566 241 240
3 567 560 565
3 567 562 560
3 568 561 558
3 568 558 566
3 569 566 240
3 570 197 198
3 570 198 564
3 570 564 562
3 570 562 567
3 571 561 568
3 571 563 561
3 572 568 566
3 572 566 569
3 573 565 563
3 573 563 571
3 574 568 572
3 574 571 568
3 574 573 571
3 575 565 573
3 575 567 565
3 576 573 574
3 577 197 570
3 577 570 567
3 577 567 575
3 578 569 240
3 578 240 239
3 579 573 576
3 579 575 573
3 580 572 569
3 580 569 578
3 580 578 239
3 581 196 197
3 581 197 577
3 581 577 575
3 581 575 579
3 582 574 572
3 582 572 580
3 583 574 582
3 583 576 574
3 584 579 576
3 584 576 583
3 585 196 581
3 585 581 579
3 585 579 584
3 586 239 238
3 587 586 238
3 587 239 586
3 587 580 239
3 588 582 580
3 588 583 582
3 588 580 587
3 589 583 588
3 590 584 583
3 590 583 589
3 591 195 196
3 591 196 585
3 591 585 584
3 591 584 590
3 592 238 237
3 593 587 238
3 593 237 275
3 593 592 237
3 593 238 592
3 593 275 276
3 594 593 276
3 594 588 587
3 594 589 588
3 594 587 593
3 595 594 276
3 595 589 594
3 595 276 277
3 595 277 278
3 596 589 595
3 596 595 278
3 596 278 279
3 596 590 589
3 597 194 195
3 597 590 596
3 597 279 194
3 597 596 279
3 597 195 591
3 597 591 590
3 609 598 599
3 610 599 600
3 610 600 601
3 610 609 599
3 611 601 602
3 611 610 601
3 612 602 603
3 612 603 604
3 612 611 602
3 613 604 605
3 613 612 604
3 614 605 606
3 614 613 605
3 615 606 607
3 615 614 606
3 608 615 607
3 630 616 617
3 630 631 616
3 629 617 618
3 629 630 617
3 628 618 619
3 628 629 618
3 627 619 620
3 627 628 619
3 626 620 621
3 626 627 620
3 625 621 622
3 625 626 621
3 624 622 623
3 624 625 622
3 646 644 645
3 648 646 647
3 648 644 646
3 643 633 632
3 643 632 644
3 643 648 649
3 643 644 648
3 634 633 643
3 638 636 635
3 638 637 636
3 639 638 635
3 640 635 634
3 640 639 635
3 641 640 634
3 642 634 643
3 642 641 634
3 657 658 659
3 657 659 665
3 656 665 664
3 656 657 665
3 655 664 663
3 655 656 664
3 654 663 662
3 654 655 663
3 653 661 660
3 653 662 661
3 653 654 662
3 652 653 660
3 651 660 650
3 651 652 660
3 669 666 667
3 669 668 666
3 673 672 679
3 673 679 685
3 674 685 684
3 674 673 685
3 675 684 683
3 675 674 684
3 676 683 682
3 676 675 683
3 677 682 681
3 677 676 682
3 678 681 680
3 678 677 681
3 671 680 670
3 671 678 680
3 711 688 712
3 713 712 688
3 710 688 711
3 714 713 688
3 709 688 710
3 715 714 688
3 708 688 709
3 716 715 688
3 707 688 708
3 706 686 688
3 706 688 707
3 705 686 706
3 704 686 705
3 703 686 704
3 702 686 703
3 701 686 702
3 689 717 716
3 689 718 717
3 689 719 718
3 689 720 719
3 689 721 720
3 689 722 721
3 689 723 722
3 689 724 723
3 690 724 689
3 691 690 689
3 692 691 689
3 687 692 689
3 687 693 692
3 687 694 693
3 687 695 694
3 687 696 695
3 687 697 696
3 687 698 697
3 687 699 698
3 687 700 699
3 687 701 700
3 687 686 701
3 688 689 716
3 728 730 729
3 728 731 730
3 728 732 731
3 728 733 732
3 728 734 733
3 728 735 734
3 728 736 735
3 728 727 736
3 737 727 728
3 725 726 727
3 725 727 737
3 740 737 738
3 740 738 739
3 741 744 725
3 741 737 740
3 741 725 737
3 742 743 744
3 742 744 741
3 748 782 747
3 748 783 782
3 749 784 783
3 749 783 748
3 750 785 784
3 750 784 749
3 751 786 785
3 751 785 750
3 752 787 786
3 752 788 787
3 752 786 751
3 753 788 752
3 754 789 788
3 754 788 753
3 755 789 754
3 755 790 789
3 756 790 755
3 756 791 790
3 757 791 756
3 757 792 791
3 757 793 792
3 758 793 757
3 758 794 793
3 759 794 758
3 760 794 759
3 760 795 794
3 761 795 760
3 761 796 795
3 762 796 761
3 762 797 796
3 763 797 762
3 763 798 797
3 764 798 763
3 764 799 798
3 765 799 764
3 765 800 799
3 765 801 800
3 766 801 765
3 767 801 766
3 767 802 801
3 768 802 767
3 768 803 802
3 768 804 803
3 769 805 804
3 769 804 768
3 770 805 769
3 771 806 805
3 771 805 770
3 772 807 806
3 772 808 807
3 772 806 771
3 773 808 772
3 774 809 808
3 774 810 809
3 774 808 773
3 775 811 810
3 775 810 774
3 776 811 775
3 777 812 811
3 777 811 776
3 778 813 812
3 778 812 777
3 779 813 778
3 779 814 813
3 779 815 814
3 780 816 815
3 780 815 779
3 781 816 780
3 745 816 781
3 745 746 816
3 833 824 823
3 832 838 831
3 839 819 818
3 840 818 817
3 840 839 818
3 841 817 825
3 841 840 817
3 842 820 819
3 842 819 839
3 842 839 840
3 843 825 826
3 843 841 825
3 844 840 841
3 844 842 840
3 845 821 820
3 845 822 821
3 845 820 842
3 846 826 827
3 846 843 826
3 847 844 841
3 847 841 843
3 848 842 844
3 848 845 842
3 849 827 828
3 849 843 846
3 849 846 827
3 849 847 843
3 850 844 847
3 850 848 844
3 851 823 822
3 851 834 833
3 851 822 845
3 851 845 848
3 851 833 823
3 852 847 849
3 852 850 847
3 853 835 834
3 853 836 835
3 853 834 851
3 853 848 850
3 853 851 848
3 854 828 829
3 854 829 830
3 854 849 828
3 854 852 849
3 855 837 836
3 855 836 853
3 855 850 852
3 855 853 850
3 856 830 831
3 856 838 837
3 856 837 855
3 856 831 838
3 856 854 830
3 856 852 854
3 856 855 852
