ply
format ascii 1.0
comment generated by blendit.inference.finetune_visualize
element vertex 591
property float x
property float y
property float z
property uchar red
property uchar green
property uchar blue
element face 585
property list uchar int vertex_indices
end_header
-1.11022302e-16 0.853671227 0 218 222 230
-1.11022302e-16 29.4632373 0 218 222 230
-1.11022302e-16 29.4632373 8.82093285 218 222 230
-1.11022302e-16 12.122388 43.0055819 218 222 230
-1.11022302e-16 0.853671227 43.0055819 218 222 230
0 10.71183 20.0105722 218 222 230
0 13.9879787 23.2502657 218 222 230
0 18.907062 21.9026595 218 222 230
0 20.1995424 16.9688052 218 222 230
0 16.5729395 13.3825572 218 222 230
0 11.6538562 14.7301635 218 222 230
0 10.4862737 19.1872382 218 222 230
0 10.5987436 19.8725087 218 222 230
0 10.5168334 19.7139503 218 222 230
0 10.4696793 19.5418266 218 222 230
0 10.4593421 19.3636603 218 222 230
-1.11022302e-16 0.853671227 0 218 222 230
-1.11022302e-16 29.4632373 0 218 222 230
0.02140332 0.663711508 0 218 222 230
0.084540028 0.483277163 0 218 222 230
0.186244186 0.321415923 0 218 222 230
0.321415923 0.186244186 0 218 222 230
0.483277163 0.084540028 0 218 222 230
0.663711508 0.02140332 0 218 222 230
0.853671227 -1.11022302e-16 0 218 222 230
66.2264532 0 -1.11022302e-16 218 222 230
66.2264532 30.3169085 -1.11022302e-16 218 222 230
0.853671227 30.3169085 0 218 222 230
0.02140332 29.653197 0 218 222 230
0.084540028 29.8336313 0 218 222 230
0.186244186 29.9954926 0 218 222 230
0.321415923 30.1306643 0 218 222 230
0.483277163 30.2323685 0 218 222 230
0.663711508 30.2955052 0 218 222 230
45.8610839 29.1955936 0 218 222 230
45.8610839 25.9264902 0 218 222 230
47.8610839 29.1955936 0 218 222 230
47.8610839 25.072819 0 218 222 230
46.7147552 25.072819 0 218 222 230
45.8824873 25.7365305 0 218 222 230
45.945624 25.5560961 0 218 222 230
46.0473281 25.3942349 0 218 222 230
46.1824999 25.2590632 0 218 222 230
46.3443611 25.157359 0 218 222 230
46.5247954 25.0942223 0 218 222 230
-1.11022302e-16 0.853671227 0 255 79 163
0.02140332 0.663711508 0 255 79 163
0.084540028 0.483277163 0 255 79 163
0.186244186 0.321415923 0 255 79 163
0.321415923 0.186244186 0 255 79 163
0.483277163 0.084540028 0 255 79 163
0.663711508 0.02140332 0 255 79 163
0.853671227 -1.11022302e-16 0 255 79 163
0.853671227 0 43.0055819 255 79 163
0.663711508 0.02140332 43.0055819 255 79 163
0.483277163 0.084540028 43.0055819 255 79 163
0.321415923 0.186244186 43.0055819 255 79 163
0.186244186 0.321415923 43.0055819 255 79 163
0.084540028 0.483277163 43.0055819 255 79 163
0.02140332 0.663711508 43.0055819 255 79 163
-1.11022302e-16 0.853671227 43.0055819 255 79 163
-1.11022302e-16 29.4632373 0 255 79 163
-1.11022302e-16 29.4632373 8.82093285 255 79 163
0.0235870039 29.6625228 8.86858825 255 79 163
0.0930445942 29.8507959 8.91361022 255 79 163
0.204534533 30.0176524 8.95351081 255 79 163
0.351895869 30.1538718 8.98608513 255 79 163
0.526985392 30.2519266 9.00953311 255 79 163
0.687128232 30.3005054 9.02114982 255 79 163
0.853671227 30.3169085 9.0250723 255 79 163
0.853671227 30.3169085 0 255 79 163
0.02140332 29.653197 0 255 79 163
0.084540028 29.8336313 0 255 79 163
0.186244186 29.9954926 0 255 79 163
0.321415923 30.1306643 0 255 79 163
0.483277163 30.2323685 0 255 79 163
0.663711508 30.2955052 0 255 79 163
-1.11022302e-16 0.853671227 43.0055819 255 79 163
-1.11022302e-16 12.122388 43.0055819 255 79 163
0.02140332 0.853671227 43.1955416 255 79 163
0.084540028 0.853671227 43.375976 255 79 163
0.186244186 0.853671227 43.5378372 255 79 163
0.321415923 0.853671227 43.6730089 255 79 163
0.483277163 0.853671227 43.7747131 255 79 163
0.663711508 0.853671227 43.8378498 255 79 163
0.853671227 0.853671227 43.8592531 255 79 163
0.853671227 12.6465712 43.8592531 255 79 163
0.0290881417 12.2580566 43.2265283 255 79 163
0.114370258 12.3844796 43.4324175 255 79 163
0.250034513 12.4930415 43.6092186 255 79 163
0.407629236 12.5693277 43.7334563 255 79 163
0.570817605 12.6169612 43.8110311 255 79 163
0.710203864 12.6391157 43.8471113 255 79 163
-1.11022302e-16 29.4632373 8.82093285 255 79 163
-1.11022302e-16 12.122388 43.0055819 255 79 163
0.0290881417 12.2580566 43.2265283 255 79 163
0.114370258 12.3844796 43.4324175 255 79 163
0.250034513 12.4930415 43.6092186 255 79 163
0.407629236 12.5693277 43.7334563 255 79 163
0.570817605 12.6169612 43.8110311 255 79 163
0.710203864 12.6391157 43.8471113 255 79 163
0.853671227 12.6465712 43.8592531 255 79 163
0.853671227 30.3169085 9.0250723 255 79 163
0.0235870039 29.6625228 8.86858825 255 79 163
0.0930445942 29.8507959 8.91361022 255 79 163
0.204534533 30.0176524 8.95351081 255 79 163
0.351895869 30.1538718 8.98608513 255 79 163
0.526985392 30.2519266 9.00953311 255 79 163
0.687128232 30.3005054 9.02114982 255 79 163
0 10.71183 20.0105722 218 222 230
0 13.9879787 23.2502657 218 222 230
53.8043444 10.71183 20.0105722 218 222 230
53.8043444 13.9879787 23.2502657 218 222 230
0 10.71183 20.0105722 218 222 230
0 10.5987436 19.8725087 218 222 230
0 10.5168334 19.7139503 218 222 230
0 10.4696793 19.5418266 218 222 230
0 10.4593421 19.3636603 218 222 230
0 10.4862737 19.1872382 218 222 230
53.8043444 10.4862737 19.1872382 218 222 230
53.8043444 10.71183 20.0105722 218 222 230
53.8043444 10.5987436 19.8725087 218 222 230
53.8043444 10.5168334 19.7139503 218 222 230
53.8043444 10.4696793 19.5418266 218 222 230
53.8043444 10.4593421 19.3636603 218 222 230
0 13.9879787 23.2502657 218 222 230
53.8043444 13.9879787 23.2502657 218 222 230
53.8043444 18.907062 21.9026595 218 222 230
0 18.907062 21.9026595 218 222 230
0 11.6538562 14.7301635 218 222 230
0 10.4862737 19.1872382 218 222 230
53.8043444 11.6538562 14.7301635 218 222 230
53.8043444 10.4862737 19.1872382 218 222 230
0 18.907062 21.9026595 218 222 230
53.8043444 18.907062 21.9026595 218 222 230
53.8043444 20.1995424 16.9688052 218 222 230
0 20.1995424 16.9688052 218 222 230
0 16.5729395 13.3825572 218 222 230
53.8043444 16.5729395 13.3825572 218 222 230
53.8043444 11.6538562 14.7301635 218 222 230
0 11.6538562 14.7301635 218 222 230
0 20.1995424 16.9688052 218 222 230
53.8043444 20.1995424 16.9688052 218 222 230
53.8043444 16.5729395 13.3825572 218 222 230
0 16.5729395 13.3825572 218 222 230
67.0801245 0 0.853671227 218 222 230
67.0801245 0 38.0305405 218 222 230
66.2264532 0 -1.11022302e-16 218 222 230
66.4164129 0 0.02140332 218 222 230
66.5968473 0 0.084540028 218 222 230
66.7587085 0 0.186244186 218 222 230
66.8938803 0 0.321415923 218 222 230
66.9955844 0 0.483277163 218 222 230
67.0587211 0 0.663711508 218 222 230
0.853671227 -1.11022302e-16 0 218 222 230
0.853671227 0 43.0055819 218 222 230
40.1590996 -1.11022302e-16 43.0055819 218 222 230
40.1590996 0 39.737883 218 222 230
41.0127709 -5.55111512e-17 38.0305405 218 222 230
40.9340529 -5.42809171e-17 38.0400565 218 222 230
40.8592728 -5.1867365e-17 38.0662095 218 222 230
40.7899953 -4.93199066e-17 38.1050321 218 222 230
40.7067508 -4.61981969e-17 38.1704119 218 222 230
40.5990199 -4.18492708e-17 38.2868983 218 222 230
40.4674742 -3.53778538e-17 38.4854217 218 222 230
40.3207874 -2.56706668e-17 38.8109681 218 222 230
40.2135479 -1.44170468e-17 39.1982574 218 222 230
40.1730493 -5.8008041e-18 39.4667276 218 222 230
28.9131236 30.3169085 43.8592531 218 222 230
66.2264532 30.3169085 43.8592531 218 222 230
66.2264532 30.3169085 -1.11022302e-16 218 222 230
0.853671227 30.3169085 0 218 222 230
0.853671227 30.3169085 9.0250723 218 222 230
28.9131236 30.3169085 9.0250723 218 222 230
66.2264532 0 -1.11022302e-16 255 79 163
66.2264532 30.3169085 -1.11022302e-16 255 79 163
66.369948 30.3047619 0.0121465369 255 79 163
66.5093594 30.268668 0.0482404913 255 79 163
66.64072 30.2096538 0.107254731 255 79 163
66.7602918 30.1293986 0.187509878 255 79 163
66.864672 30.0301864 0.286722096 255 79 163
66.9508904 29.9148404 0.402068087 255 79 163
67.033439 29.7416767 0.575231777 255 79 163
67.0683722 29.6044003 0.712508148 255 79 163
67.0801245 29.4632373 0.853671227 255 79 163
67.0801245 0 0.853671227 255 79 163
66.4164129 0 0.02140332 255 79 163
66.5968473 0 0.084540028 255 79 163
66.7587085 0 0.186244186 255 79 163
66.8938803 0 0.321415923 255 79 163
66.9955844 0 0.483277163 255 79 163
67.0587211 0 0.663711508 255 79 163
45.8610839 29.1955936 43.8592531 218 222 230
45.8610839 25.9264902 43.8592531 218 222 230
45.8610839 29.1955936 0 218 222 230
45.8610839 25.9264902 0 218 222 230
45.8610839 25.9264902 43.8592531 218 222 230
45.8610839 25.9264902 0 218 222 230
45.8824873 25.7365305 0 218 222 230
45.945624 25.5560961 0 218 222 230
46.0473281 25.3942349 0 218 222 230
46.1824999 25.2590632 0 218 222 230
46.3443611 25.157359 0 218 222 230
46.5247954 25.0942223 0 218 222 230
46.7147552 25.072819 0 218 222 230
46.7147552 25.072819 43.8592531 218 222 230
45.8824873 25.7365305 43.8592531 218 222 230
45.945624 25.5560961 43.8592531 218 222 230
46.0473281 25.3942349 43.8592531 218 222 230
46.1824999 25.2590632 43.8592531 218 222 230
46.3443611 25.157359 43.8592531 218 222 230
46.5247954 25.0942223 43.8592531 218 222 230
47.8610839 29.1955936 43.8592531 218 222 230
45.8610839 29.1955936 43.8592531 218 222 230
47.8610839 29.1955936 0 218 222 230
45.8610839 29.1955936 0 218 222 230
46.7147552 25.072819 43.8592531 218 222 230
47.8610839 25.072819 43.8592531 218 222 230
46.7147552 25.072819 0 218 222 230
47.8610839 25.072819 0 218 222 230
47.8610839 25.072819 43.8592531 218 222 230
47.8610839 29.1955936 43.8592531 218 222 230
47.8610839 25.072819 0 218 222 230
47.8610839 29.1955936 0 218 222 230
0.853671227 0 43.0055819 255 79 163
0.663711508 0.02140332 43.0055819 255 79 163
0.483277163 0.084540028 43.0055819 255 79 163
0.321415923 0.186244186 43.0055819 255 79 163
0.186244186 0.321415923 43.0055819 255 79 163
0.084540028 0.483277163 43.0055819 255 79 163
0.02140332 0.663711508 43.0055819 255 79 163
-1.11022302e-16 0.853671227 43.0055819 255 79 163
0.853671227 0 43.0055819 255 79 163
0.853671227 0.02140332 43.1955416 255 79 163
0.853671227 0.084540028 43.375976 255 79 163
0.853671227 0.186244186 43.5378372 255 79 163
0.853671227 0.321415923 43.6730089 255 79 163
0.853671227 0.483277163 43.7747131 255 79 163
0.853671227 0.663711508 43.8378498 255 79 163
0.853671227 0.853671227 43.8592531 255 79 163
0.02140332 0.853671227 43.1955416 255 79 163
0.084540028 0.853671227 43.375976 255 79 163
0.186244186 0.853671227 43.5378372 255 79 163
0.321415923 0.853671227 43.6730089 255 79 163
0.483277163 0.853671227 43.7747131 255 79 163
0.663711508 0.853671227 43.8378498 255 79 163
0.593120112 0.0417816438 43.0468491 255 79 163
0.618624671 0.0417816438 43.1253441 255 79 163
0.667137224 0.0417816438 43.1921159 255 79 163
0.376454503 0.163036697 43.160639 255 79 163
0.733909025 0.0417816438 43.2406285 255 79 163
0.447726435 0.163036697 43.3005181 255 79 163
0.171539554 0.351895869 43.1136209 255 79 163
0.812403984 0.0417816438 43.266133 255 79 163
0.558735072 0.163036697 43.4115267 255 79 163
0.238311355 0.351895869 43.3191234 255 79 163
0.698614114 0.163036697 43.4827986 255 79 163
0.365318867 0.351895869 43.4939343 255 79 163
0.0815183483 0.58987231 43.2564696 255 79 163
0.540129711 0.351895869 43.6209418 255 79 163
0.196838757 0.58987231 43.4827986 255 79 163
0.745632183 0.351895869 43.6877136 255 79 163
0.376454503 0.58987231 43.6624144 255 79 163
0.602783548 0.58987231 43.7777348 255 79 163
0.853671227 12.6465712 43.8592531 218 222 230
28.9131236 12.6465712 43.8592531 218 222 230
0.853671227 0.853671227 43.8592531 218 222 230
39.3054284 0.853671227 43.8592531 218 222 230
39.3054284 15.5340254 43.8592531 218 222 230
66.2264532 15.5340254 43.8592531 218 222 230
66.2264532 30.3169085 43.8592531 218 222 230
28.9131236 30.3169085 43.8592531 218 222 230
45.8610839 29.1955936 43.8592531 218 222 230
45.8610839 25.9264902 43.8592531 218 222 230
47.8610839 29.1955936 43.8592531 218 222 230
47.8610839 25.072819 43.8592531 218 222 230
46.7147552 25.072819 43.8592531 218 222 230
45.8824873 25.7365305 43.8592531 218 222 230
45.945624 25.5560961 43.8592531 218 222 230
46.0473281 25.3942349 43.8592531 218 222 230
46.1824999 25.2590632 43.8592531 218 222 230
46.3443611 25.157359 43.8592531 218 222 230
46.5247954 25.0942223 43.8592531 218 222 230
0.853671227 30.3169085 9.0250723 218 222 230
28.9131236 30.3169085 9.0250723 218 222 230
28.9131236 12.6465712 43.8592531 218 222 230
0.853671227 12.6465712 43.8592531 218 222 230
53.8043444 11.6538562 14.7301635 218 222 230
53.8043444 10.4862737 19.1872382 218 222 230
53.8043444 10.71183 20.0105722 218 222 230
53.8043444 10.5987436 19.8725087 218 222 230
53.8043444 10.5168334 19.7139503 218 222 230
53.8043444 10.4696793 19.5418266 218 222 230
53.8043444 10.4593421 19.3636603 218 222 230
53.8043444 13.9879787 23.2502657 218 222 230
53.8043444 18.907062 21.9026595 218 222 230
53.8043444 20.1995424 16.9688052 218 222 230
53.8043444 16.5729395 13.3825572 218 222 230
67.0801245 0 0.853671227 218 222 230
67.0801245 0 38.0305405 218 222 230
67.0801245 29.4632373 0.853671227 218 222 230
67.0801245 29.4632373 43.0055819 218 222 230
67.0801245 14.6803542 43.0055819 218 222 230
67.0801245 14.6803542 39.737883 218 222 230
67.0801245 13.826683 38.0305405 218 222 230
67.0801245 13.905401 38.0400565 218 222 230
67.0801245 13.980181 38.0662095 218 222 230
67.0801245 14.0494585 38.1050321 218 222 230
67.0801245 14.132703 38.1704119 218 222 230
67.0801245 14.240434 38.2868983 218 222 230
67.0801245 14.3719797 38.4854217 218 222 230
67.0801245 14.5186664 38.8109681 218 222 230
67.0801245 14.6259059 39.1982574 218 222 230
67.0801245 14.6664046 39.4667276 218 222 230
67.0801245 0 38.0305405 255 79 163
67.0679779 0.0121465369 38.1740353 255 79 163
67.031884 0.0482404913 38.3134467 255 79 163
66.9728697 0.107254731 38.4448073 255 79 163
66.8926146 0.187509878 38.5643791 255 79 163
66.7934024 0.286722096 38.6687593 255 79 163
66.6780564 0.402068087 38.7549777 255 79 163
66.5048927 0.575231777 38.8375263 255 79 163
66.3676163 0.712508148 38.8724595 255 79 163
66.2264532 0.853671227 38.8842117 255 79 163
41.0127709 0.853671227 38.8842117 255 79 163
41.0127709 -5.55111512e-17 38.0305405 255 79 163
41.0127709 0.0235870372 38.2298261 255 79 163
41.0127709 0.0930445591 38.4180992 255 79 163
41.0127709 0.204534558 38.5849556 255 79 163
41.0127709 0.35189587 38.721175 255 79 163
41.0127709 0.526985366 38.8192299 255 79 163
41.0127709 0.687128274 38.8678086 255 79 163
40.1590996 0 39.737883 255 79 163
40.1590996 0 39.737883 255 79 163
41.0127709 -5.55111512e-17 38.0305405 255 79 163
40.9340529 -5.42809171e-17 38.0400565 255 79 163
40.8592728 -5.1867365e-17 38.0662095 255 79 163
40.7899953 -4.93199066e-17 38.1050321 255 79 163
40.7067508 -4.61981969e-17 38.1704119 255 79 163
40.5990199 -4.18492708e-17 38.2868983 255 79 163
40.4674742 -3.53778538e-17 38.4854217 255 79 163
40.3207874 -2.56706668e-17 38.8109681 255 79 163
40.2135479 -1.44170468e-17 39.1982574 255 79 163
40.1730493 -5.8008041e-18 39.4667276 255 79 163
41.0127709 0.0235870372 38.2298261 255 79 163
41.0127709 0.0930445591 38.4180992 255 79 163
41.0127709 0.204534558 38.5849556 255 79 163
41.0127709 0.35189587 38.721175 255 79 163
41.0127709 0.526985366 38.8192299 255 79 163
41.0127709 0.687128274 38.8678086 255 79 163
41.0127709 0.853671227 38.8842117 255 79 163
40.7918245 0.711392689 38.9132999 255 79 163
40.5859348 0.569114151 38.9985823 255 79 163
40.4091342 0.426835613 39.1342463 255 79 163
40.2734698 0.284557076 39.3110473 255 79 163
40.1881877 0.142278538 39.5169366 255 79 163
40.6073157 0.0208792779 38.4382583 255 79 163
40.6210777 0.0730092027 38.5753247 255 79 163
40.6353248 0.148386516 38.6967207 255 79 163
40.649522 0.244696594 38.7973396 255 79 163
40.6629913 0.36129922 38.8741483 255 79 163
40.356058 0.014992132 38.8280641 255 79 163
40.6751977 0.495909123 38.9253711 255 79 163
40.3648737 0.0508070703 38.9113488 255 79 163
40.3750405 0.100858425 38.9857249 255 79 163
40.3856182 0.163938761 39.0473427 255 79 163
40.3951831 0.240608674 39.0931791 255 79 163
40.402795 0.330189518 39.1218427 255 79 163
40.2404841 0.0777980731 39.2896798 255 79 163
40.2018922 0.0558500439 39.4113703 255 79 163
40.1797746 0.0385510389 39.5105953 255 79 163
40.2780543 0.030446915 39.0810767 255 79 163
40.2250901 0.0221946049 39.2455511 255 79 163
40.2072534 0.0188710734 39.3168619 255 79 163
40.1845308 0.0139033452 39.432138 255 79 163
40.1758305 0.0115478611 39.490324 255 79 163
40.2190619 0.00617147699 39.2217338 255 79 163
40.2104273 0.00569527359 39.2603506 255 79 163
40.1980207 0.00497562725 39.3222548 255 79 163
40.1782584 0.00367900639 39.4471043 255 79 163
40.1743813 0.00337447446 39.4784849 255 79 163
40.1755595 0.000965880861 39.4562447 255 79 163
40.1590996 -1.11022302e-16 43.0055819 218 222 230
40.1590996 0 39.737883 218 222 230
40.1590996 14.6803542 43.0055819 218 222 230
40.1590996 14.6803542 39.737883 218 222 230
0.853671227 0 43.0055819 255 79 163
0.853671227 0.02140332 43.1955416 255 79 163
0.853671227 0.084540028 43.375976 255 79 163
0.853671227 0.186244186 43.5378372 255 79 163
0.853671227 0.321415923 43.6730089 255 79 163
0.853671227 0.483277163 43.7747131 255 79 163
0.853671227 0.663711508 43.8378498 255 79 163
0.853671227 0.853671227 43.8592531 255 79 163
40.1590996 -1.11022302e-16 43.0055819 255 79 163
39.3054284 0.853671227 43.8592531 255 79 163
39.5263748 0.632724855 43.830165 255 79 163
39.732264 0.426835613 43.7448829 255 79 163
39.9090651 0.250034513 43.6092186 255 79 163
40.0333028 0.125796852 43.4516239 255 79 163
40.1046988 0.054400806 43.3054508 255 79 163
40.1441916 0.0149080343 43.1644242 255 79 163
40.1553645 0.00373518008 43.0853521 255 79 163
66.2264532 30.3169085 -1.11022302e-16 255 79 163
66.2264532 30.3169085 43.8592531 255 79 163
66.369948 30.3047619 43.8471066 255 79 163
66.5093594 30.268668 43.8110126 255 79 163
66.64072 30.2096538 43.7519984 255 79 163
66.7602918 30.1293986 43.6717433 255 79 163
66.864672 30.0301864 43.572531 255 79 163
66.9508904 29.9148404 43.457185 255 79 163
67.033439 29.7416767 43.2840214 255 79 163
67.0683722 29.6044003 43.146745 255 79 163
67.0801245 29.4632373 43.0055819 255 79 163
67.0801245 29.4632373 0.853671227 255 79 163
66.369948 30.3047619 0.0121465369 255 79 163
66.5093594 30.268668 0.0482404913 255 79 163
66.64072 30.2096538 0.107254731 255 79 163
66.7602918 30.1293986 0.187509878 255 79 163
66.864672 30.0301864 0.286722096 255 79 163
66.9508904 29.9148404 0.402068087 255 79 163
67.033439 29.7416767 0.575231777 255 79 163
67.0683722 29.6044003 0.712508148 255 79 163
28.9131236 12.6465712 43.8592531 218 222 230
28.9131236 30.3169085 43.8592531 218 222 230
28.9131236 30.3169085 9.0250723 218 222 230
39.3054284 0.853671227 43.8592531 255 79 163
39.5263748 0.632724855 43.830165 255 79 163
39.732264 0.426835613 43.7448829 255 79 163
39.9090651 0.250034513 43.6092186 255 79 163
40.0333028 0.125796852 43.4516239 255 79 163
40.1046988 0.054400806 43.3054508 255 79 163
40.1441916 0.0149080343 43.1644242 255 79 163
40.1553645 0.00373518008 43.0853521 255 79 163
40.1590996 -1.11022302e-16 43.0055819 255 79 163
40.1590996 14.6803542 43.0055819 255 79 163
39.3054284 15.5340254 43.8592531 255 79 163
39.5263748 15.3130791 43.830165 255 79 163
39.732264 15.1071898 43.7448829 255 79 163
39.9090651 14.9303887 43.6092186 255 79 163
40.0333028 14.8061511 43.4516239 255 79 163
40.1046988 14.734755 43.3054508 255 79 163
40.1441916 14.6952622 43.1644242 255 79 163
40.1553645 14.6840894 43.0853521 255 79 163
66.2264532 15.5340254 43.8592531 255 79 163
66.4473996 15.3130791 43.830165 255 79 163
66.6532888 15.1071898 43.7448829 255 79 163
66.8300899 14.9303887 43.6092186 255 79 163
66.9543276 14.8061511 43.4516239 255 79 163
67.0257237 14.734755 43.3054508 255 79 163
67.0652164 14.6952622 43.1644242 255 79 163
67.0763893 14.6840894 43.0853521 255 79 163
67.0801245 14.6803542 43.0055819 255 79 163
67.0801245 29.4632373 43.0055819 255 79 163
66.2264532 30.3169085 43.8592531 255 79 163
66.369948 30.3047619 43.8471066 255 79 163
66.5093594 30.268668 43.8110126 255 79 163
66.64072 30.2096538 43.7519984 255 79 163
66.7602918 30.1293986 43.6717433 255 79 163
66.864672 30.0301864 43.572531 255 79 163
66.9508904 29.9148404 43.457185 255 79 163
67.033439 29.7416767 43.2840214 255 79 163
67.0683722 29.6044003 43.146745 255 79 163
66.2264532 15.5340254 43.8592531 255 79 163
39.3054284 15.5340254 43.8592531 255 79 163
39.5263748 15.3130791 43.830165 255 79 163
39.732264 15.1071898 43.7448829 255 79 163
39.9090651 14.9303887 43.6092186 255 79 163
40.0333028 14.8061511 43.4516239 255 79 163
40.1046988 14.734755 43.3054508 255 79 163
40.1441916 14.6952622 43.1644242 255 79 163
40.1553645 14.6840894 43.0853521 255 79 163
40.1590996 14.6803542 43.0055819 255 79 163
67.0801245 14.6803542 43.0055819 255 79 163
66.4473996 15.3130791 43.830165 255 79 163
66.6532888 15.1071898 43.7448829 255 79 163
66.8300899 14.9303887 43.6092186 255 79 163
66.9543276 14.8061511 43.4516239 255 79 163
67.0257237 14.734755 43.3054508 255 79 163
67.0652164 14.6952622 43.1644242 255 79 163
67.0763893 14.6840894 43.0853521 255 79 163
67.0801245 0 38.0305405 255 79 163
67.0801245 13.826683 38.0305405 255 79 163
67.0565374 13.826683 38.2298261 255 79 163
66.9870799 13.826683 38.4180992 255 79 163
66.8755899 13.826683 38.5849556 255 79 163
66.7282286 13.826683 38.721175 255 79 163
66.5531391 13.826683 38.8192299 255 79 163
66.3929962 13.826683 38.8678086 255 79 163
66.2264532 13.826683 38.8842117 255 79 163
66.2264532 0.853671227 38.8842117 255 79 163
67.0679779 0.0121465369 38.1740353 255 79 163
67.031884 0.0482404913 38.3134467 255 79 163
66.9728697 0.107254731 38.4448073 255 79 163
66.8926146 0.187509878 38.5643791 255 79 163
66.7934024 0.286722096 38.6687593 255 79 163
66.6780564 0.402068087 38.7549777 255 79 163
66.5048927 0.575231777 38.8375263 255 79 163
66.3676163 0.712508148 38.8724595 255 79 163
67.0801245 14.6803542 39.737883 255 79 163
67.0801245 14.6803542 39.737883 255 79 163
67.0801245 13.826683 38.0305405 255 79 163
67.0801245 13.905401 38.0400565 255 79 163
67.0801245 13.980181 38.0662095 255 79 163
67.0801245 14.0494585 38.1050321 255 79 163
67.0801245 14.132703 38.1704119 255 79 163
67.0801245 14.240434 38.2868983 255 79 163
67.0801245 14.3719797 38.4854217 255 79 163
67.0801245 14.5186664 38.8109681 255 79 163
67.0801245 14.6259059 39.1982574 255 79 163
67.0801245 14.6664046 39.4667276 255 79 163
67.0565374 13.826683 38.2298261 255 79 163
66.9870799 13.826683 38.4180992 255 79 163
66.8755899 13.826683 38.5849556 255 79 163
66.7282286 13.826683 38.721175 255 79 163
66.5531391 13.826683 38.8192299 255 79 163
66.3929962 13.826683 38.8678086 255 79 163
66.2264532 13.826683 38.8842117 255 79 163
66.3687318 14.0476294 38.9132999 255 79 163
66.5110103 14.253519 38.9985823 255 79 163
66.6532888 14.4303197 39.1342463 255 79 163
66.7955674 14.565984 39.3110473 255 79 163
66.9378459 14.6512661 39.5169366 255 79 163
67.0592452 14.2321382 38.4382583 255 79 163
67.0071153 14.2183762 38.5753247 255 79 163
66.9317379 14.204129 38.6967207 255 79 163
66.8354279 14.1899318 38.7973396 255 79 163
66.7188252 14.1764625 38.8741483 255 79 163
67.0651323 14.4833958 38.8280641 255 79 163
66.5842153 14.1642562 38.9253711 255 79 163
67.0293174 14.4745801 38.9113488 255 79 163
66.979266 14.4644133 38.9857249 255 79 163
66.9161857 14.4538357 39.0473427 255 79 163
66.8395158 14.4442708 39.0931791 255 79 163
66.7499349 14.4366589 39.1218427 255 79 163
67.0023264 14.5989697 39.2896798 255 79 163
67.0242744 14.6375617 39.4113703 255 79 163
67.0415734 14.6596792 39.5105953 255 79 163
67.0496775 14.5613995 39.0810767 255 79 163
67.0579299 14.6143637 39.2455511 255 79 163
67.0612534 14.6322004 39.3168619 255 79 163
67.0662211 14.6549231 39.432138 255 79 163
67.0685766 14.6636234 39.490324 255 79 163
67.073953 14.620392 39.2217338 255 79 163
67.0744292 14.6290265 39.2603506 255 79 163
67.0751488 14.6414332 39.3222548 255 79 163
67.0764455 14.6611954 39.4471043 255 79 163
67.07675 14.6650726 39.4784849 255 79 163
67.0791586 14.6638944 39.4562447 255 79 163
67.0801245 14.6803542 39.737883 218 222 230
67.0801245 14.6803542 43.0055819 218 222 230
40.1590996 14.6803542 43.0055819 218 222 230
40.1590996 14.6803542 39.737883 218 222 230
66.2264532 0.853671227 38.8842117 218 222 230
66.2264532 13.826683 38.8842117 218 222 230
41.0127709 0.853671227 38.8842117 218 222 230
41.0127709 13.826683 38.8842117 218 222 230
40.1590996 0 39.737883 255 79 163
40.1590996 14.6803542 39.737883 255 79 163
40.1712462 14.6682077 39.5943882 255 79 163
40.2073401 14.6321137 39.4549768 255 79 163
40.2663544 14.5730995 39.3236162 255 79 163
40.3466095 14.4928443 39.2040444 255 79 163
40.4458217 14.3936321 39.0996642 255 79 163
40.5611677 14.2782861 39.0134458 255 79 163
40.7343314 14.1051224 38.9308972 255 79 163
40.8716078 13.9678461 38.895964 255 79 163
41.0127709 13.826683 38.8842117 255 79 163
41.0127709 0.853671227 38.8842117 255 79 163
40.7918245 0.711392689 38.9132999 255 79 163
40.5859348 0.569114151 38.9985823 255 79 163
40.4091342 0.426835613 39.1342463 255 79 163
40.2734698 0.284557076 39.3110473 255 79 163
40.1881877 0.142278538 39.5169366 255 79 163
40.1590996 14.6803542 39.737883 255 79 163
67.0801245 14.6803542 39.737883 255 79 163
66.2264532 13.826683 38.8842117 255 79 163
66.3687318 14.0476294 38.9132999 255 79 163
66.5110103 14.253519 38.9985823 255 79 163
66.6532888 14.4303197 39.1342463 255 79 163
66.7955674 14.565984 39.3110473 255 79 163
66.9378459 14.6512661 39.5169366 255 79 163
41.0127709 13.826683 38.8842117 255 79 163
40.1712462 14.6682077 39.5943882 255 79 163
40.2073401 14.6321137 39.4549768 255 79 163
40.2663544 14.5730995 39.3236162 255 79 163
40.3466095 14.4928443 39.2040444 255 79 163
40.4458217 14.3936321 39.0996642 255 79 163
40.5611677 14.2782861 39.0134458 255 79 163
40.7343314 14.1051224 38.9308972 255 79 163
40.8716078 13.9678461 38.895964 255 79 163
3 9 2 1
3 9 8 2
3 0 9 1
3 7 2 8
3 10 9 0
3 11 10 0
3 15 11 0
3 3 7 6
3 3 2 7
3 4 6 5
3 4 5 12
3 4 12 13
3 4 13 14
3 4 3 6
3 4 15 0
3 4 14 15
3 24 22 21
3 24 23 22
3 16 19 18
3 16 20 19
3 16 21 20
3 16 24 21
3 31 28 29
3 31 29 30
3 32 17 28
3 32 28 31
3 33 17 32
3 27 16 17
3 27 24 16
3 27 17 33
3 42 24 41
3 43 25 24
3 43 24 42
3 40 24 27
3 40 41 24
3 44 25 43
3 39 40 27
3 35 39 27
3 38 25 44
3 37 25 38
3 34 35 27
3 26 37 36
3 26 25 37
3 26 34 27
3 26 36 34
3 60 45 46
3 59 46 47
3 59 60 46
3 58 47 48
3 58 59 47
3 57 48 49
3 57 58 48
3 56 49 50
3 56 57 49
3 55 50 51
3 55 56 50
3 54 51 52
3 54 55 51
3 53 54 52
3 68 69 70
3 68 70 76
3 67 76 75
3 67 68 76
3 66 75 74
3 66 67 75
3 65 74 73
3 65 66 74
3 64 73 72
3 64 65 73
3 63 72 71
3 63 64 72
3 62 71 61
3 62 63 71
3 78 77 79
3 87 79 80
3 87 78 79
3 88 80 81
3 88 87 80
3 89 81 82
3 89 88 81
3 90 82 83
3 90 89 82
3 91 83 84
3 91 90 83
3 92 84 85
3 92 91 84
3 86 92 85
3 100 101 102
3 100 102 108
3 99 108 107
3 99 100 108
3 98 107 106
3 98 99 107
3 97 106 105
3 97 98 106
3 96 105 104
3 96 97 105
3 95 104 103
3 95 96 104
3 94 103 93
3 94 95 103
3 110 111 109
3 110 112 111
3 121 114 113
3 121 115 114
3 121 113 120
3 122 115 121
3 123 116 115
3 123 117 116
3 123 115 122
3 124 117 123
3 119 118 117
3 119 117 124
3 128 126 125
3 128 127 126
3 130 131 129
3 130 132 131
3 136 134 133
3 136 135 134
3 137 139 138
3 140 139 137
3 144 142 141
3 144 143 142
3 149 147 148
3 151 149 150
3 151 147 149
3 145 151 152
3 145 152 153
3 145 147 151
3 163 155 154
3 163 154 162
3 161 162 154
3 160 161 154
3 164 155 163
3 159 154 147
3 159 160 154
3 158 147 145
3 158 159 147
3 165 155 164
3 166 155 165
3 167 155 166
3 157 155 167
3 156 155 157
3 146 158 145
3 173 171 172
3 170 171 173
3 169 173 168
3 169 170 173
3 183 184 185
3 183 185 191
3 182 191 190
3 182 183 191
3 181 190 189
3 181 182 190
3 180 189 188
3 180 181 189
3 179 180 188
3 178 188 187
3 178 179 188
3 177 187 186
3 177 178 187
3 176 186 174
3 176 177 186
3 175 176 174
3 193 194 192
3 193 195 194
3 203 205 204
3 203 210 211
3 203 211 205
3 202 210 203
3 201 209 210
3 201 210 202
3 200 208 209
3 200 209 201
3 199 206 207
3 199 207 208
3 199 208 200
3 198 206 199
3 197 196 206
3 197 206 198
3 212 215 214
3 213 215 212
3 217 218 216
3 217 219 218
3 221 222 220
3 221 223 222
3 240 231 230
3 239 245 238
3 246 226 225
3 247 225 224
3 247 246 225
3 248 224 232
3 248 247 224
3 249 227 226
3 249 226 246
3 249 246 247
3 250 232 233
3 250 248 232
3 251 247 248
3 251 249 247
3 252 228 227
3 252 229 228
3 252 227 249
3 253 233 234
3 253 250 233
3 254 251 248
3 254 248 250
3 255 249 251
3 255 252 249
3 256 234 235
3 256 250 253
3 256 253 234
3 256 254 250
3 257 251 254
3 257 255 251
3 258 230 229
3 258 241 240
3 258 229 252
3 258 252 255
3 258 240 230
3 259 254 256
3 259 257 254
3 260 242 241
3 260 243 242
3 260 241 258
3 260 255 257
3 260 258 255
3 261 235 236
3 261 236 237
3 261 256 235
3 261 259 256
3 262 244 243
3 262 243 260
3 262 257 259
3 262 260 257
3 263 237 238
3 263 245 244
3 263 244 262
3 263 238 245
3 263 261 237
3 263 259 261
3 263 262 259
3 265 264 266
3 265 266 267
3 268 265 267
3 271 265 268
3 279 268 280
3 281 280 268
3 278 268 279
3 282 281 268
3 277 271 268
3 277 268 278
3 273 271 277
3 276 282 268
3 275 276 268
3 272 271 273
3 269 275 268
3 270 274 275
3 270 275 269
3 270 271 272
3 270 272 274
3 285 284 283
3 286 285 283
3 289 294 295
3 289 295 296
3 293 291 290
3 293 292 291
3 288 290 289
3 288 296 297
3 288 289 296
3 288 293 290
3 287 288 297
3 308 300 301
3 309 308 301
3 307 300 308
3 306 300 307
3 310 309 301
3 305 300 306
3 304 298 300
3 304 300 305
3 311 310 301
3 312 311 301
3 313 312 301
3 303 313 301
3 302 303 301
3 299 298 304
3 322 323 324
3 322 324 331
3 321 331 330
3 321 322 331
3 320 330 329
3 320 321 330
3 319 329 328
3 319 320 329
3 318 328 327
3 318 319 328
3 317 318 327
3 316 327 326
3 316 317 327
3 315 326 325
3 315 316 326
3 314 315 325
3 344 335 334
3 336 335 344
3 345 336 344
3 337 336 345
3 351 348 349
3 351 349 350
3 356 339 338
3 356 340 339
3 357 338 337
3 357 356 338
3 357 340 356
3 357 337 345
3 358 345 346
3 358 357 345
3 359 346 347
3 359 358 346
3 360 347 348
3 360 348 351
3 360 359 347
3 361 341 340
3 362 351 352
3 362 352 360
3 362 360 351
3 363 361 340
3 363 340 357
3 364 357 358
3 364 363 357
3 365 358 359
3 365 364 358
3 366 365 359
3 366 359 360
3 366 360 352
3 367 352 353
3 367 353 354
3 367 354 366
3 367 366 352
3 368 366 354
3 368 365 366
3 369 354 355
3 369 368 354
3 370 332 333
3 370 355 332
3 370 369 355
3 371 342 341
3 371 363 364
3 371 341 361
3 371 361 363
3 371 364 365
3 371 365 368
3 372 371 368
3 373 368 369
3 373 372 368
3 374 369 370
3 374 373 369
3 375 370 333
3 375 374 370
3 376 342 371
3 376 371 372
3 377 376 372
3 377 342 376
3 377 372 373
3 378 373 374
3 378 342 377
3 378 343 342
3 378 377 373
3 379 374 375
3 379 378 374
3 380 333 343
3 380 375 333
3 380 379 375
3 381 343 378
3 381 378 379
3 381 380 343
3 381 379 380
3 383 384 382
3 383 385 384
3 395 393 392
3 396 392 391
3 396 395 392
3 397 391 390
3 397 396 391
3 398 390 389
3 398 397 390
3 399 389 388
3 399 398 389
3 400 388 387
3 400 399 388
3 401 400 387
3 402 387 386
3 402 401 387
3 394 402 386
3 412 413 414
3 412 422 421
3 412 414 422
3 411 421 420
3 411 412 421
3 410 420 419
3 410 411 420
3 409 419 418
3 409 410 419
3 408 409 418
3 407 418 417
3 407 408 418
3 406 417 416
3 406 407 417
3 405 416 415
3 405 406 416
3 404 415 403
3 404 405 415
3 425 423 424
3 437 426 427
3 437 436 426
3 438 427 428
3 438 437 427
3 439 428 429
3 439 438 428
3 440 429 430
3 440 439 429
3 441 430 431
3 441 440 430
3 442 431 432
3 442 441 431
3 443 432 433
3 443 442 432
3 435 433 434
3 435 443 433
3 455 444 445
3 455 454 444
3 456 445 446
3 456 455 445
3 457 456 446
3 458 446 447
3 458 457 446
3 459 447 448
3 459 458 447
3 460 448 449
3 460 459 448
3 461 449 450
3 461 460 449
3 462 450 451
3 462 461 450
3 453 451 452
3 453 462 451
3 472 473 480
3 471 480 479
3 471 472 480
3 470 479 478
3 470 471 479
3 469 478 477
3 469 470 478
3 468 477 476
3 468 469 477
3 467 476 475
3 467 468 476
3 466 475 474
3 466 467 475
3 465 474 463
3 465 466 474
3 464 465 463
3 489 490 498
3 488 498 497
3 488 489 498
3 487 497 496
3 487 488 497
3 486 496 495
3 486 487 496
3 485 495 494
3 485 486 495
3 484 493 492
3 484 494 493
3 484 485 494
3 483 492 491
3 483 484 492
3 482 491 481
3 482 483 491
3 511 501 502
3 503 511 502
3 512 511 503
3 504 512 503
3 518 516 515
3 518 517 516
3 523 505 506
3 523 506 507
3 524 504 505
3 524 505 523
3 524 523 507
3 524 512 504
3 525 513 512
3 525 512 524
3 526 514 513
3 526 513 525
3 527 515 514
3 527 518 515
3 527 514 526
3 528 507 508
3 529 519 518
3 529 527 519
3 529 518 527
3 530 507 528
3 530 524 507
3 531 525 524
3 531 524 530
3 532 526 525
3 532 525 531
3 533 526 532
3 533 527 526
3 533 519 527
3 534 520 519
3 534 521 520
3 534 533 521
3 534 519 533
3 535 521 533
3 535 533 532
3 536 522 521
3 536 521 535
3 537 500 499
3 537 499 522
3 537 522 536
3 538 508 509
3 538 531 530
3 538 528 508
3 538 530 528
3 538 532 531
3 538 535 532
3 539 535 538
3 540 536 535
3 540 535 539
3 541 537 536
3 541 536 540
3 542 500 537
3 542 537 541
3 543 538 509
3 543 539 538
3 544 539 543
3 544 543 509
3 544 540 539
3 545 541 540
3 545 544 509
3 545 509 510
3 545 540 544
3 546 542 541
3 546 541 545
3 547 510 500
3 547 500 542
3 547 542 546
3 548 545 510
3 548 546 545
3 548 510 547
3 548 547 546
3 550 551 552
3 549 550 552
3 553 556 555
3 553 554 556
3 566 568 567
3 566 569 568
3 565 570 569
3 565 569 566
3 564 570 565
3 563 571 570
3 563 570 564
3 562 572 571
3 562 571 563
3 561 572 562
3 560 573 572
3 560 572 561
3 559 557 573
3 559 573 560
3 558 557 559
3 576 590 582
3 577 589 590
3 577 590 576
3 578 587 588
3 578 588 589
3 578 589 577
3 579 586 587
3 579 587 578
3 580 584 585
3 580 585 586
3 580 586 579
3 581 583 584
3 581 584 580
3 575 574 583
3 575 583 581
