ply
format ascii 1.0
comment generated by blendit.inference.finetune_visualize
element vertex 987
property float x
property float y
property float z
property uchar red
property uchar green
property uchar blue
element face 1260
property list uchar int vertex_indices
end_header
-1.11022302e-16 65.5261483 14.4752248 218 222 230
0 28.3880424 14.4752248 218 222 230
-1.11022302e-16 65.5261483 69.5821135 218 222 230
0 -1.11022302e-16 69.5821135 218 222 230
0 -1.11022302e-16 0.647028685 218 222 230
0 0.647028685 -1.11022302e-16 218 222 230
0 0.503051258 0.01622236 218 222 230
0 0.36629346 0.0640759832 218 222 230
0 0.243612898 0.141161289 218 222 230
0 0.141161289 0.243612898 218 222 230
0 0.0640759832 0.36629346 218 222 230
0 0.01622236 0.503051258 218 222 230
0 27.7410138 0 218 222 230
-8.16059802e-32 27.7410138 13.8281961 218 222 230
0 28.244065 14.4590024 218 222 230
0 28.1073072 14.4111488 218 222 230
0 27.9846267 14.3340635 218 222 230
0 27.882175 14.2316119 218 222 230
0 27.8050897 14.1089313 218 222 230
0 27.7572361 13.9721735 218 222 230
-1.11022302e-16 65.5261483 14.4752248 218 222 230
0 28.3880424 14.4752248 218 222 230
28.1639834 28.3880424 14.4752248 218 222 230
28.1639834 65.5261483 14.4752248 218 222 230
-1.11022302e-16 65.5261483 14.4752248 255 79 163
-1.11022302e-16 65.5261483 69.5821135 255 79 163
0.647028685 66.173177 69.5821135 255 79 163
0.503051258 66.1569546 69.5821135 255 79 163
0.36629346 66.109101 69.5821135 255 79 163
0.243612898 66.0320157 69.5821135 255 79 163
0.141161289 65.9295641 69.5821135 255 79 163
0.0640759832 65.8068835 69.5821135 255 79 163
0.01622236 65.6701257 69.5821135 255 79 163
0.647028685 66.173177 15.1222535 255 79 163
0.00952144425 65.6367405 14.4847463 255 79 163
0.0378055486 65.7440778 14.5130304 255 79 163
0.0840198754 65.8450012 14.5592447 255 79 163
0.146804277 65.9365403 14.6220291 255 79 163
0.224310929 66.0160011 14.6995357 255 79 163
0.314258709 66.0810449 14.7894835 255 79 163
0.448923266 66.1421031 14.9241481 255 79 163
0.546764856 66.1653613 15.0219897 255 79 163
0 28.3880424 14.4752248 255 79 163
0 28.244065 14.4590024 255 79 163
0 28.1073072 14.4111488 255 79 163
0 27.9846267 14.3340635 255 79 163
0 27.882175 14.2316119 255 79 163
0 27.8050897 14.1089313 255 79 163
0 27.7572361 13.9721735 255 79 163
-8.16059802e-32 27.7410138 13.8281961 255 79 163
27.5169547 27.7410138 13.8281961 255 79 163
28.1639834 28.3880424 14.4752248 255 79 163
28.154462 28.2774502 14.4657034 255 79 163
28.1261779 28.1701129 14.4374193 255 79 163
28.0799635 28.0691895 14.3912049 255 79 163
28.0171791 27.9776504 14.3284205 255 79 163
27.9396725 27.8981896 14.2509139 255 79 163
27.8497247 27.8331458 14.1609661 255 79 163
27.7150601 27.7720876 14.0263015 255 79 163
27.6172186 27.7488294 13.92846 255 79 163
0.647028685 0.647028685 70.2291421 255 79 163
0.479565338 0.479565338 70.2070952 255 79 163
0.323514342 0.323514342 70.1424567 255 79 163
0.189510314 0.189510314 70.0396318 255 79 163
0.0953460407 0.0953460407 69.920185 255 79 163
0.041232363 0.041232363 69.8093951 255 79 163
0.0112993451 0.0112993451 69.7025058 255 79 163
0.00283102977 0.00283102977 69.6425742 255 79 163
0 -1.11022302e-16 69.5821135 255 79 163
0.647028685 65.5261483 70.2291421 255 79 163
0.503051258 65.5261483 70.2129198 255 79 163
0.36629346 65.5261483 70.1650662 255 79 163
0.243612898 65.5261483 70.0879808 255 79 163
0.141161289 65.5261483 69.9855292 255 79 163
0.0640759832 65.5261483 69.8628487 255 79 163
0.01622236 65.5261483 69.7260909 255 79 163
-1.11022302e-16 65.5261483 69.5821135 255 79 163
27.5169547 27.7410138 0 218 222 230
0 27.7410138 0 218 222 230
-8.16059802e-32 27.7410138 13.8281961 218 222 230
27.5169547 27.7410138 13.8281961 218 222 230
68.3388789 0 12.6196191 218 222 230
66.4286955 0 12.4742128 218 222 230
64.5625313 0 12.0413448 218 222 230
62.7833911 0 11.3309903 218 222 230
61.1322742 0 10.3595191 218 222 230
59.6472297 0 9.14931806 218 222 230
58.3624798 0 7.72827581 218 222 230
57.3076308 0 6.12913947 218 222 230
56.5069911 0 4.38876031 218 222 230
55.9790111 0 2.54724446 218 222 230
55.7358578 -1.11022302e-16 0.647028685 218 222 230
0 -1.11022302e-16 0.647028685 218 222 230
0 -1.11022302e-16 69.5821135 218 222 230
68.3388789 -1.11022302e-16 69.5821135 218 222 230
28.8110121 66.173177 -1.11022302e-16 218 222 230
67.6918502 66.173177 0 218 222 230
28.8110121 28.3880424 0 218 222 230
28.8033227 28.3264492 1.02618005e-18 218 222 230
28.7823079 28.2681354 1.8843472e-18 218 222 230
28.7512814 28.2143166 2.58526216e-18 218 222 230
28.6992214 28.1498318 3.29379971e-18 218 222 230
28.6069052 28.0667756 3.92409747e-18 218 222 230
28.4501501 27.965876 4.0667779e-18 218 222 230
28.1938709 27.8545258 3.04960053e-18 218 222 230
27.889476 27.7753068 1.22996958e-18 218 222 230
27.703947 27.7498053 3.56510605e-19 218 222 230
27.5169547 27.7410138 0 218 222 230
0 27.7410138 0 218 222 230
0 0.647028685 -1.11022302e-16 218 222 230
55.0880187 0.647028685 0 218 222 230
55.0880187 15.3589567 0 218 222 230
56.3837848 16.6530141 0 218 222 230
56.0648422 16.6132092 4.60014508e-17 218 222 230
55.7654261 16.4961804 4.89298218e-17 218 222 230
55.5039594 16.309007 3.91301369e-17 218 222 230
55.2966181 16.0630963 -8.71957553e-18 218 222 230
55.156311 15.7735486 -3.65190012e-17 218 222 230
55.1052059 15.5690521 -1.27428998e-17 218 222 230
68.3388789 16.6530141 -1.11022302e-16 218 222 230
68.3388789 65.5261483 0 218 222 230
67.8358277 66.1569546 0 218 222 230
67.9725855 66.109101 0 218 222 230
68.095266 66.0320157 0 218 222 230
68.1977176 65.9295641 0 218 222 230
68.2748029 65.8068835 0 218 222 230
68.3226566 65.6701257 0 218 222 230
55.7342774 0.000769975126 0.6154724 255 79 163
55.7358578 -1.11022302e-16 0.647028685 255 79 163
0 -1.11022302e-16 0.647028685 255 79 163
0 0.647028685 -1.11022302e-16 255 79 163
0 0.503051258 0.01622236 255 79 163
0 0.36629346 0.0640759832 255 79 163
0 0.243612898 0.141161289 255 79 163
0 0.141161289 0.243612898 255 79 163
0 0.0640759832 0.36629346 255 79 163
0 0.01622236 0.503051258 255 79 163
55.0880187 0.647028685 0 255 79 163
55.2994352 0.435612112 0.035514865 255 79 163
55.4704863 0.264561054 0.125143036 255 79 163
55.5846811 0.150366205 0.232333014 255 79 163
55.6627317 0.0723156082 0.349789726 255 79 163
55.7097136 0.0253337888 0.467747968 255 79 163
55.7262837 0.00876368229 0.540897137 255 79 163
0.647028685 66.173177 15.1222535 255 79 163
28.1639834 66.173177 15.1222535 255 79 163
28.1639834 66.1569546 14.9782761 255 79 163
28.1639834 66.109101 14.8415183 255 79 163
28.1639834 66.0320157 14.7188377 255 79 163
28.1639834 65.9295641 14.6163861 255 79 163
28.1639834 65.8068835 14.5393008 255 79 163
28.1639834 65.6701257 14.4914472 255 79 163
28.1639834 65.5261483 14.4752248 255 79 163
-1.11022302e-16 65.5261483 14.4752248 255 79 163
0.00952144425 65.6367405 14.4847463 255 79 163
0.0378055486 65.7440778 14.5130304 255 79 163
0.0840198754 65.8450012 14.5592447 255 79 163
0.146804277 65.9365403 14.6220291 255 79 163
0.224310929 66.0160011 14.6995357 255 79 163
0.314258709 66.0810449 14.7894835 255 79 163
0.448923266 66.1421031 14.9241481 255 79 163
0.546764856 66.1653613 15.0219897 255 79 163
28.1639834 65.5261483 14.4752248 218 222 230
28.1639834 28.3880424 14.4752248 218 222 230
28.1639834 28.3880424 0.647028685 218 222 230
28.1639834 66.173177 0.647028685 218 222 230
28.1639834 66.173177 14.4752248 218 222 230
28.1639834 66.173177 15.1222535 218 222 230
28.1639834 66.1569546 14.9782761 218 222 230
28.1639834 66.109101 14.8415183 218 222 230
28.1639834 66.0320157 14.7188377 218 222 230
28.1639834 65.9295641 14.6163861 218 222 230
28.1639834 65.8068835 14.5393008 218 222 230
28.1639834 65.6701257 14.4914472 218 222 230
28.8110121 66.173177 -1.11022302e-16 218 222 230
67.6918502 66.173177 0 218 222 230
28.6670347 66.173177 0.01622236 218 222 230
28.5302769 66.173177 0.0640759832 218 222 230
28.4075963 66.173177 0.141161289 218 222 230
28.3051447 66.173177 0.243612898 218 222 230
28.2280594 66.173177 0.36629346 218 222 230
28.1802058 66.173177 0.503051258 218 222 230
28.1639834 66.173177 0.647028685 218 222 230
28.1639834 66.173177 14.4752248 218 222 230
28.1639834 66.173177 15.1222535 218 222 230
0.647028685 66.173177 15.1222535 218 222 230
0.647028685 66.173177 69.5821135 218 222 230
67.6918502 66.173177 69.5821135 218 222 230
0.647028685 66.173177 69.5821135 255 79 163
0.503051258 66.1569546 69.5821135 255 79 163
0.36629346 66.109101 69.5821135 255 79 163
0.243612898 66.0320157 69.5821135 255 79 163
0.141161289 65.9295641 69.5821135 255 79 163
0.0640759832 65.8068835 69.5821135 255 79 163
0.01622236 65.6701257 69.5821135 255 79 163
-1.11022302e-16 65.5261483 69.5821135 255 79 163
0.647028685 65.5261483 70.2291421 255 79 163
0.503051258 65.5261483 70.2129198 255 79 163
0.36629346 65.5261483 70.1650662 255 79 163
0.243612898 65.5261483 70.0879808 255 79 163
0.141161289 65.5261483 69.9855292 255 79 163
0.0640759832 65.5261483 69.8628487 255 79 163
0.01622236 65.5261483 69.7260909 255 79 163
0.647028685 65.5261483 70.2291421 255 79 163
0.647028685 65.6701257 70.2129198 255 79 163
0.647028685 65.8068835 70.1650662 255 79 163
0.647028685 65.9295641 70.0879808 255 79 163
0.647028685 66.0320157 69.9855292 255 79 163
0.647028685 66.109101 69.8628487 255 79 163
0.647028685 66.1569546 69.7260909 255 79 163
0.449547454 65.5574262 70.1974743 255 79 163
0.468878293 65.6169204 70.1974743 255 79 163
0.505647733 65.6675292 70.1974743 255 79 163
0.285328654 65.6436717 70.1055707 255 79 163
0.556256526 65.7042987 70.1974743 255 79 163
0.339348261 65.7496912 70.1055707 255 79 163
0.13001611 65.608035 69.9624274 255 79 163
0.615750731 65.7236295 70.1974743 255 79 163
0.423485772 65.8338287 70.1055707 255 79 163
0.180624903 65.7637929 69.9624274 255 79 163
0.529505221 65.8878483 70.1055707 255 79 163
0.276888548 65.8962884 69.9624274 255 79 163
0.0617857415 65.7163052 69.7820563 255 79 163
0.409384088 65.992552 69.9624274 255 79 163
0.149191302 65.8878483 69.7820563 255 79 163
0.565141937 66.0431608 69.9624274 255 79 163
0.285328654 66.0239857 69.7820563 255 79 163
0.456871725 66.1113912 69.7820563 255 79 163
27.5169547 27.7410138 13.8281961 255 79 163
27.5169547 27.7410138 0 255 79 163
28.1639834 28.3880424 0.647028685 255 79 163
28.1419364 28.2205791 0.539190571 255 79 163
28.077298 28.0645281 0.431352457 255 79 163
27.9744731 27.9305241 0.323514342 255 79 163
27.8404569 27.8276941 0.215676228 255 79 163
27.6844303 27.7630657 0.107838114 255 79 163
28.1639834 28.3880424 14.4752248 255 79 163
28.154462 28.2774502 14.4657034 255 79 163
28.1261779 28.1701129 14.4374193 255 79 163
28.0799635 28.0691895 14.3912049 255 79 163
28.0171791 27.9776504 14.3284205 255 79 163
27.9396725 27.8981896 14.2509139 255 79 163
27.8497247 27.8331458 14.1609661 255 79 163
27.7150601 27.7720876 14.0263015 255 79 163
27.6172186 27.7488294 13.92846 255 79 163
0.647028685 0.647028685 70.2291421 255 79 163
0.479565338 0.479565338 70.2070952 255 79 163
0.323514342 0.323514342 70.1424567 255 79 163
0.189510314 0.189510314 70.0396318 255 79 163
0.0953460407 0.0953460407 69.920185 255 79 163
0.041232363 0.041232363 69.8093951 255 79 163
0.0112993451 0.0112993451 69.7025058 255 79 163
0.00283102977 0.00283102977 69.6425742 255 79 163
0 -1.11022302e-16 69.5821135 255 79 163
68.3388789 -1.11022302e-16 69.5821135 255 79 163
68.3388789 0.647028685 70.2291421 255 79 163
68.3388789 0.503051258 70.2129198 255 79 163
68.3388789 0.36629346 70.1650662 255 79 163
68.3388789 0.243612898 70.0879808 255 79 163
68.3388789 0.141161289 69.9855292 255 79 163
68.3388789 0.0640759832 69.8628487 255 79 163
68.3388789 0.01622236 69.7260909 255 79 163
68.3388789 0.647028685 70.2291421 218 222 230
68.3388789 65.5261483 70.2291421 218 222 230
0.647028685 65.5261483 70.2291421 218 222 230
0.647028685 0.647028685 70.2291421 218 222 230
68.3388789 0 12.6196191 218 222 230
68.3388789 15.3589567 12.6196191 218 222 230
66.4255724 15.3589567 12.4737342 218 222 230
64.5565022 15.3589567 12.0394524 218 222 230
62.7748818 15.3589567 11.3268143 218 222 230
61.1219029 15.3589567 10.3522966 218 222 230
59.6357829 15.3589567 9.13843022 218 222 230
58.3508814 15.3589567 7.7132803 218 222 230
57.2969058 15.3589567 6.10979675 218 222 230
56.4982243 15.3589567 4.36505265 218 222 230
55.9733027 15.3589567 2.51938706 218 222 230
55.7342774 15.3589567 0.6154724 218 222 230
55.7342774 0.000769975126 0.6154724 218 222 230
55.7358578 -1.11022302e-16 0.647028685 218 222 230
66.4286955 0 12.4742128 218 222 230
64.5625313 0 12.0413448 218 222 230
62.7833911 0 11.3309903 218 222 230
61.1322742 0 10.3595191 218 222 230
59.6472297 0 9.14931806 218 222 230
58.3624798 0 7.72827581 218 222 230
57.3076308 0 6.12913947 218 222 230
56.5069911 0 4.38876031 218 222 230
55.9790111 0 2.54724446 218 222 230
68.3388789 0 12.6196191 218 222 230
68.3388789 -1.11022302e-16 69.5821135 218 222 230
68.3388789 15.3589567 12.6196191 218 222 230
68.3388789 16.0059854 11.9725904 218 222 230
68.3388789 15.9897631 12.1165679 218 222 230
68.3388789 15.9419094 12.2533256 218 222 230
68.3388789 15.8648241 12.3760062 218 222 230
68.3388789 15.7623725 12.4784578 218 222 230
68.3388789 15.639692 12.5555431 218 222 230
68.3388789 15.5029342 12.6033967 218 222 230
68.3388789 16.0059854 0.647028685 218 222 230
68.3388789 16.6530141 -1.11022302e-16 218 222 230
68.3388789 16.5090367 0.01622236 218 222 230
68.3388789 16.3722789 0.0640759832 218 222 230
68.3388789 16.2495983 0.141161289 218 222 230
68.3388789 16.1471467 0.243612898 218 222 230
68.3388789 16.0700614 0.36629346 218 222 230
68.3388789 16.0222078 0.503051258 218 222 230
68.3388789 65.5261483 0 218 222 230
68.3388789 65.5261483 70.2291421 218 222 230
68.3388789 0.647028685 70.2291421 218 222 230
68.3388789 0.503051258 70.2129198 218 222 230
68.3388789 0.36629346 70.1650662 218 222 230
68.3388789 0.243612898 70.0879808 218 222 230
68.3388789 0.141161289 69.9855292 218 222 230
68.3388789 0.0640759832 69.8628487 218 222 230
68.3388789 0.01622236 69.7260909 218 222 230
68.3388789 42.3299869 64.2102521 218 222 230
68.3388789 41.0177403 64.0568724 218 222 230
68.3388789 39.7762372 63.6050023 218 222 230
68.3388789 38.6724074 62.879002 218 222 230
68.3388789 37.7657587 61.9180105 218 222 230
68.3388789 37.1051687 60.7738351 218 222 230
68.3388789 36.7262501 59.5081586 218 222 230
68.3388789 36.6494303 58.1892138 218 222 230
68.3388789 36.8788508 56.8881056 218 222 230
68.3388789 37.4021434 55.6749768 218 222 230
68.3388789 38.1910974 54.6152277 218 222 230
68.3388789 39.20318 53.7659896 218 222 230
68.3388789 40.3838295 53.1730451 218 222 230
68.3388789 41.6693969 52.8683601 218 222 230
68.3388789 42.9905769 52.8683601 218 222 230
68.3388789 44.2761443 53.1730451 218 222 230
68.3388789 45.4567938 53.7659896 218 222 230
68.3388789 46.4688764 54.6152277 218 222 230
68.3388789 47.2578303 55.6749768 218 222 230
68.3388789 47.781123 56.8881056 218 222 230
68.3388789 48.0105435 58.1892138 218 222 230
68.3388789 47.9337237 59.5081586 218 222 230
68.3388789 47.554805 60.7738351 218 222 230
68.3388789 46.894215 61.9180105 218 222 230
68.3388789 45.9875663 62.879002 218 222 230
68.3388789 44.8837366 63.6050023 218 222 230
68.3388789 43.6422335 64.0568724 218 222 230
28.8110121 66.173177 -1.11022302e-16 255 79 163
28.8110121 28.3880424 0 255 79 163
28.6599671 28.3880424 0.0178767068 255 79 163
28.5172669 28.3880424 0.0705222056 255 79 163
28.3908002 28.3880424 0.155024586 255 79 163
28.2875555 28.3880424 0.266714191 255 79 163
28.2132354 28.3880424 0.399421596 255 79 163
28.1764151 28.3880424 0.520800462 255 79 163
28.1639834 28.3880424 0.647028685 255 79 163
28.1639834 66.173177 0.647028685 255 79 163
28.6670347 66.173177 0.01622236 255 79 163
28.5302769 66.173177 0.0640759832 255 79 163
28.4075963 66.173177 0.141161289 255 79 163
28.3051447 66.173177 0.243612898 255 79 163
28.2280594 66.173177 0.36629346 255 79 163
28.1802058 66.173177 0.503051258 255 79 163
67.6918502 66.173177 0 255 79 163
67.6918502 66.173177 69.5821135 255 79 163
67.8593136 66.15113 69.7495768 255 79 163
68.0153646 66.0864915 69.9056278 255 79 163
68.1493686 65.9836666 70.0396318 255 79 163
68.2435329 65.8642198 70.1337961 255 79 163
68.2976466 65.7534299 70.1879098 255 79 163
68.3275796 65.6465406 70.2178428 255 79 163
68.3360479 65.586609 70.2263111 255 79 163
68.3388789 65.5261483 70.2291421 255 79 163
68.3388789 65.5261483 0 255 79 163
67.8358277 66.1569546 0 255 79 163
67.9725855 66.109101 0 255 79 163
68.095266 66.0320157 0 255 79 163
68.1977176 65.9295641 0 255 79 163
68.2748029 65.8068835 0 255 79 163
68.3226566 65.6701257 0 255 79 163
27.5169547 27.7410138 0 218 222 230
27.5169547 27.7410138 0 218 222 230
28.8110121 28.3880424 0 218 222 230
28.8033227 28.3264492 1.02618005e-18 218 222 230
28.7823079 28.2681354 1.8843472e-18 218 222 230
28.7512814 28.2143166 2.58526216e-18 218 222 230
28.6992214 28.1498318 3.29379971e-18 218 222 230
28.6069052 28.0667756 3.92409747e-18 218 222 230
28.4501501 27.965876 4.0667779e-18 218 222 230
28.1938709 27.8545258 3.04960053e-18 218 222 230
27.889476 27.7753068 1.22996958e-18 218 222 230
27.703947 27.7498053 3.56510605e-19 218 222 230
28.6599671 28.3880424 0.0178767068 218 222 230
28.5172669 28.3880424 0.0705222056 218 222 230
28.3908002 28.3880424 0.155024586 218 222 230
28.2875555 28.3880424 0.266714191 218 222 230
28.2132354 28.3880424 0.399421596 218 222 230
28.1764151 28.3880424 0.520800462 218 222 230
28.1639834 28.3880424 0.647028685 218 222 230
28.1419364 28.2205791 0.539190571 218 222 230
28.077298 28.0645281 0.431352457 218 222 230
27.9744731 27.9305241 0.323514342 218 222 230
27.8404569 27.8276941 0.215676228 218 222 230
27.6844303 27.7630657 0.107838114 218 222 230
28.4842227 28.0825094 0.0199551442 218 222 230
28.3660669 28.0948197 0.0713530569 218 222 230
28.3132995 28.101105 0.10638325 218 222 230
28.2657994 28.1073807 0.14700043 218 222 230
28.1887071 28.1195406 0.243913996 218 222 230
28.1376952 28.1306475 0.359141886 218 222 230
28.1200397 27.951745 0.111450804 218 222 230
28.0358248 27.891275 0.093621263 218 222 230
27.9519861 27.8440027 0.0769520331 218 222 230
27.8435642 27.7979342 0.0565417909 218 222 230
27.7508841 27.7699945 0.0398874961 218 222 230
27.6822923 27.7554737 0.0279536109 218 222 230
28.1093291 27.8713394 0.0269900315 218 222 230
28.0588393 27.8490469 0.0244548005 218 222 230
27.931869 27.8033672 0.0181748785 218 222 230
27.8666685 27.7851351 0.0150604186 218 222 230
27.812485 27.7724838 0.0125708958 218 222 230
27.7329796 27.7578625 0.00913966999 218 222 230
27.6929054 27.7522255 0.00751872785 218 222 230
27.8786022 27.7799778 0.00395110483 218 222 230
27.8492393 27.7739279 0.00360201649 218 222 230
27.8064545 27.7660398 0.00311443462 218 222 230
27.7203029 27.7534406 0.00222229918 218 222 230
27.71263 27.7515437 0.000552830633 218 222 230
56.3837848 16.6530141 0 255 79 163
68.3388789 16.6530141 -1.11022302e-16 255 79 163
68.3388789 16.5090367 0.01622236 255 79 163
68.3388789 16.3722789 0.0640759832 255 79 163
68.3388789 16.2495983 0.141161289 255 79 163
68.3388789 16.1471467 0.243612898 255 79 163
68.3388789 16.0700614 0.36629346 255 79 163
68.3388789 16.0222078 0.503051258 255 79 163
68.3388789 16.0059854 0.647028685 255 79 163
56.3837848 16.0059854 0.647028685 255 79 163
56.3837848 16.4951053 0.0195647957 255 79 163
56.3837848 16.3519678 0.0743007948 255 79 163
56.3837848 16.2335404 0.154394988 255 79 163
56.3837848 16.1348284 0.259562957 255 79 163
56.3837848 16.0627947 0.381911296 255 79 163
56.3837848 16.0203085 0.511641346 255 79 163
56.3837848 16.0094434 0.580224013 255 79 163
56.3837848 16.6530141 0 255 79 163
56.3837848 16.4951053 0.0195647957 255 79 163
56.3837848 16.3519678 0.0743007948 255 79 163
56.3837848 16.2335404 0.154394988 255 79 163
56.3837848 16.1348284 0.259562957 255 79 163
56.3837848 16.0627947 0.381911296 255 79 163
56.3837848 16.0203085 0.511641346 255 79 163
56.3837848 16.0094434 0.580224013 255 79 163
56.3837848 16.0059854 0.647028685 255 79 163
56.2327063 15.9882525 0.639097655 255 79 163
56.0897909 15.9359506 0.631943546 255 79 163
55.9628638 15.8517906 0.625854826 255 79 163
55.8589864 15.7402462 0.621046828 255 79 163
55.7840356 15.607381 0.617671507 255 79 163
55.7468425 15.4856518 0.616024789 255 79 163
55.7342774 15.3589567 0.6154724 255 79 163
55.0880187 15.3589567 0 255 79 163
55.2416967 15.3589567 0.0185152109 255 79 163
55.380905 15.3589567 0.0700852673 255 79 163
55.4967291 15.3589567 0.145429374 255 79 163
55.5946308 15.3589567 0.244548528 255 79 163
55.6681401 15.3589567 0.360488631 255 79 163
55.7143027 15.3589567 0.484503704 255 79 163
55.7278255 15.3589567 0.550626923 255 79 163
56.0648422 16.6132092 4.60014508e-17 255 79 163
55.7654261 16.4961804 4.89298218e-17 255 79 163
55.5039594 16.309007 3.91301369e-17 255 79 163
55.2966181 16.0630963 -8.71957553e-18 255 79 163
55.156311 15.7735486 -3.65190012e-17 255 79 163
55.1052059 15.5690521 -1.27428998e-17 255 79 163
56.1664384 16.170116 0.186419997 255 79 163
55.7858583 15.9568831 0.181474768 255 79 163
55.5636345 15.5787136 0.178825024 255 79 163
55.0880187 0.647028685 0 255 79 163
55.0880187 15.3589567 0 255 79 163
55.2416967 15.3589567 0.0185152109 255 79 163
55.380905 15.3589567 0.0700852673 255 79 163
55.4967291 15.3589567 0.145429374 255 79 163
55.5946308 15.3589567 0.244548528 255 79 163
55.6681401 15.3589567 0.360488631 255 79 163
55.7143027 15.3589567 0.484503704 255 79 163
55.7278255 15.3589567 0.550626923 255 79 163
55.7342774 15.3589567 0.6154724 255 79 163
55.7342774 0.000769975126 0.6154724 255 79 163
55.2994352 0.435612112 0.035514865 255 79 163
55.4704863 0.264561054 0.125143036 255 79 163
55.5846811 0.150366205 0.232333014 255 79 163
55.6627317 0.0723156082 0.349789726 255 79 163
55.7097136 0.0253337888 0.467747968 255 79 163
55.7262837 0.00876368229 0.540897137 255 79 163
0.647028685 65.5261483 70.2291421 255 79 163
68.3388789 65.5261483 70.2291421 255 79 163
67.6918502 66.173177 69.5821135 255 79 163
67.8593136 66.15113 69.7495768 255 79 163
68.0153646 66.0864915 69.9056278 255 79 163
68.1493686 65.9836666 70.0396318 255 79 163
68.2435329 65.8642198 70.1337961 255 79 163
68.2976466 65.7534299 70.1879098 255 79 163
68.3275796 65.6465406 70.2178428 255 79 163
68.3360479 65.586609 70.2263111 255 79 163
0.647028685 66.173177 69.5821135 255 79 163
0.647028685 65.6701257 70.2129198 255 79 163
0.647028685 65.8068835 70.1650662 255 79 163
0.647028685 65.9295641 70.0879808 255 79 163
0.647028685 66.0320157 69.9855292 255 79 163
0.647028685 66.109101 69.8628487 255 79 163
0.647028685 66.1569546 69.7260909 255 79 163
68.3388789 16.0059854 11.9725904 255 79 163
68.3388789 15.9897631 12.1165679 255 79 163
68.3388789 15.9419094 12.2533256 255 79 163
68.3388789 15.8648241 12.3760062 255 79 163
68.3388789 15.7623725 12.4784578 255 79 163
68.3388789 15.639692 12.5555431 255 79 163
68.3388789 15.5029342 12.6033967 255 79 163
68.3388789 15.3589567 12.6196191 255 79 163
66.5299176 16.0059854 11.8351418 255 79 163
64.7624911 16.0059854 11.4259517 255 79 163
63.0771804 16.0059854 10.7544154 255 79 163
61.5126812 16.0059854 9.83595174 255 79 163
60.1049153 16.0059854 8.69164918 255 79 163
58.8862059 16.0059854 7.34778153 255 79 163
57.884535 16.0059854 5.83520473 255 79 163
57.1229016 16.0059854 4.18864839 255 79 163
56.6187934 16.0059854 2.44591836 255 79 163
56.3837848 16.0059854 0.647028685 255 79 163
56.2327063 15.9882525 0.639097655 255 79 163
56.0897909 15.9359506 0.631943546 255 79 163
55.9628638 15.8517906 0.625854826 255 79 163
55.8589864 15.7402462 0.621046828 255 79 163
55.7840356 15.607381 0.617671507 255 79 163
55.7468425 15.4856518 0.616024789 255 79 163
55.7342774 15.3589567 0.6154724 255 79 163
66.4255724 15.3589567 12.4737342 255 79 163
64.5565022 15.3589567 12.0394524 255 79 163
62.7748818 15.3589567 11.3268143 255 79 163
61.1219029 15.3589567 10.3522966 255 79 163
59.6357829 15.3589567 9.13843022 255 79 163
58.3508814 15.3589567 7.7132803 255 79 163
57.2969058 15.3589567 6.10979675 255 79 163
56.4982243 15.3589567 4.36505265 255 79 163
55.9733027 15.3589567 2.51938706 255 79 163
66.5081638 15.9897631 11.9774663 255 79 163
66.4875008 15.9419094 12.1126541 255 79 163
66.4689648 15.8648241 12.2339262 255 79 163
66.4534852 15.7623725 12.3352017 255 79 163
66.4418382 15.639692 12.411402 255 79 163
66.4346079 15.5029342 12.4587063 255 79 163
64.7194829 15.9897631 11.5633554 255 79 163
64.6786314 15.9419094 11.6938692 255 79 163
64.6419849 15.8648241 11.8109485 255 79 163
64.6113811 15.7623725 11.9087224 255 79 163
64.5883546 15.639692 11.9822882 255 79 163
64.57406 15.5029342 12.0279569 255 79 163
63.0139054 15.9897631 10.8837435 255 79 163
62.9538032 15.9419094 11.0065866 255 79 163
62.8998877 15.8648241 11.1167848 255 79 163
62.8548624 15.7623725 11.2088123 255 79 163
62.8209851 15.639692 11.2780544 255 79 163
62.7999544 15.5029342 11.3210391 255 79 163
61.4305922 15.9897631 9.95423483 255 79 163
61.3526194 15.9419094 10.0665867 255 79 163
61.2826729 15.8648241 10.1673736 255 79 163
61.2242599 15.7623725 10.2515416 255 79 163
61.1803095 15.639692 10.3148702 255 79 163
61.1530257 15.5029342 10.3541838 255 79 163
60.0058971 15.9897631 8.79617136 255 79 163
59.911844 15.9419094 8.89545237 255 79 163
59.8274724 15.8648241 8.98451383 255 79 163
59.7570129 15.7623725 9.05888983 255 79 163
59.7039987 15.639692 9.11485086 255 79 163
59.6710881 15.5029342 9.14959078 255 79 163
58.7725319 15.9897631 7.43614291 255 79 163
58.6645581 15.9419094 7.52007349 255 79 163
58.5676985 15.8648241 7.59536463 255 79 163
58.4868103 15.7623725 7.65824092 255 79 163
58.4259495 15.639692 7.70554948 255 79 163
58.3881678 15.5029342 7.73491805 255 79 163
57.7588154 15.9897631 5.90537649 255 79 163
57.6393998 15.9419094 5.97202955 255 79 163
57.5322764 15.8648241 6.03182164 255 79 163
57.4428167 15.7623725 6.08175454 255 79 163
57.3755066 15.639692 6.1193244 255 79 163
57.3337213 15.5029342 6.14264731 255 79 163
56.9880229 15.9897631 4.23901935 255 79 163
56.8599076 15.9419094 4.28686449 255 79 163
56.7449799 15.8648241 4.32978467 255 79 163
56.6490028 15.7623725 4.36562769 255 79 163
56.5767889 15.639692 4.39259623 255 79 163
56.5319594 15.5029342 4.40933797 255 79 163
56.4778525 15.9897631 2.47533197 255 79 163
56.3439789 15.9419094 2.50327065 255 79 163
56.2238857 15.8648241 2.52833345 255 79 163
56.1235949 15.7623725 2.54926361 255 79 163
56.0481353 15.639692 2.56501161 255 79 163
56.0012909 15.5029342 2.57478778 255 79 163
68.3388789 16.0059854 0.647028685 218 222 230
68.3388789 16.0059854 11.9725904 218 222 230
66.5299176 16.0059854 11.8351418 218 222 230
64.7624911 16.0059854 11.4259517 218 222 230
63.0771804 16.0059854 10.7544154 218 222 230
61.5126812 16.0059854 9.83595174 218 222 230
60.1049153 16.0059854 8.69164918 218 222 230
58.8862059 16.0059854 7.34778153 218 222 230
57.884535 16.0059854 5.83520473 218 222 230
57.1229016 16.0059854 4.18864839 218 222 230
56.6187934 16.0059854 2.44591836 218 222 230
56.3837848 16.0059854 0.647028685 218 222 230
68.3388789 42.3299869 64.2102521 255 79 163
68.3226566 42.3299869 64.0662746 255 79 163
68.2748029 42.3299869 63.9295169 255 79 163
68.1977176 42.3299869 63.8068363 255 79 163
68.095266 42.3299869 63.7043847 255 79 163
67.9725855 42.3299869 63.6272994 255 79 163
67.8358277 42.3299869 63.5794458 255 79 163
67.6918502 42.3299869 63.5632234 255 79 163
68.3388789 41.0177403 64.0568724 255 79 163
68.3388789 39.7762372 63.6050023 255 79 163
68.3388789 38.6724074 62.879002 255 79 163
68.3388789 37.7657587 61.9180105 255 79 163
68.3388789 37.1051687 60.7738351 255 79 163
68.3388789 36.7262501 59.5081586 255 79 163
68.3388789 36.6494303 58.1892138 255 79 163
68.3388789 36.8788508 56.8881056 255 79 163
68.3388789 37.4021434 55.6749768 255 79 163
68.3388789 38.1910974 54.6152277 255 79 163
68.3388789 39.20318 53.7659896 255 79 163
68.3388789 40.3838295 53.1730451 255 79 163
68.3388789 41.6693969 52.8683601 255 79 163
68.3388789 42.9905769 52.8683601 255 79 163
68.3388789 44.2761443 53.1730451 255 79 163
68.3388789 45.4567938 53.7659896 255 79 163
68.3388789 46.4688764 54.6152277 255 79 163
68.3388789 47.2578303 55.6749768 255 79 163
68.3388789 47.781123 56.8881056 255 79 163
68.3388789 48.0105435 58.1892138 255 79 163
68.3388789 47.9337237 59.5081586 255 79 163
68.3388789 47.554805 60.7738351 255 79 163
68.3388789 46.894215 61.9180105 255 79 163
68.3388789 45.9875663 62.879002 255 79 163
68.3388789 44.8837366 63.6050023 255 79 163
68.3388789 43.6422335 64.0568724 255 79 163
68.3388789 42.3299869 64.2102521 255 79 163
68.3226566 42.3299869 64.0662746 255 79 163
68.2748029 42.3299869 63.9295169 255 79 163
68.1977176 42.3299869 63.8068363 255 79 163
68.095266 42.3299869 63.7043847 255 79 163
67.9725855 42.3299869 63.6272994 255 79 163
67.8358277 42.3299869 63.5794458 255 79 163
67.6918502 42.3299869 63.5632234 255 79 163
67.6918502 41.1230809 63.4166785 255 79 163
67.6918502 39.986316 62.9855604 255 79 163
67.6918502 38.9857567 62.2949242 255 79 163
67.6918502 38.1795518 61.384907 255 79 163
67.6918502 37.6145552 60.3083959 255 79 163
67.6918502 37.3236023 59.1279537 255 79 163
67.6918502 37.3236023 57.9121834 255 79 163
67.6918502 37.6145552 56.7317412 255 79 163
67.6918502 38.1795518 55.6552301 255 79 163
67.6918502 38.9857567 54.745213 255 79 163
67.6918502 39.986316 54.0545768 255 79 163
67.6918502 41.1230809 53.6234587 255 79 163
67.6918502 42.3299869 53.4769138 255 79 163
67.6918502 43.5368928 53.6234587 255 79 163
67.6918502 44.6736578 54.0545768 255 79 163
67.6918502 45.6742171 54.745213 255 79 163
67.6918502 46.4804219 55.6552301 255 79 163
67.6918502 47.0454185 56.7317412 255 79 163
67.6918502 47.3363714 57.9121834 255 79 163
67.6918502 47.3363714 59.1279537 255 79 163
67.6918502 47.0454185 60.3083959 255 79 163
67.6918502 46.4804219 61.384907 255 79 163
67.6918502 45.6742171 62.2949242 255 79 163
67.6918502 44.6736578 62.9855604 255 79 163
67.6918502 43.5368928 63.4166785 255 79 163
68.3226566 41.0509437 63.9167759 255 79 163
68.2748029 41.0824823 63.7837045 255 79 163
68.1977176 41.1107743 63.6643308 255 79 163
68.095266 41.1344013 63.5646408 255 79 163
67.9725855 41.1521784 63.4896333 255 79 163
67.8358277 41.1632142 63.4430696 255 79 163
68.3226566 39.8408541 63.4763394 255 79 163
68.2748029 39.9022309 63.3541281 255 79 163
68.1977176 39.9572899 63.2444968 255 79 163
68.095266 40.0032701 63.1529427 255 79 163
67.9725855 40.0378659 63.0840567 255 79 163
67.8358277 40.0593425 63.0412932 255 79 163
68.3226566 38.7649543 62.7687089 255 79 163
68.2748029 38.8528606 62.6639464 255 79 163
68.1977176 38.9317181 62.5699676 255 79 163
68.095266 38.9975727 62.4914851 255 79 163
67.9725855 39.0471222 62.4324344 255 79 163
67.8358277 39.0778819 62.3957763 255 79 163
68.3226566 37.8812464 61.8320332 255 79 163
68.2748029 37.990943 61.7503671 255 79 163
68.1977176 38.0893479 61.6771073 255 79 163
68.095266 38.1715267 61.6159275 255 79 163
67.9725855 38.2333586 61.5698953 255 79 163
67.8358277 38.2717431 61.5413191 255 79 163
68.3226566 37.2373711 60.7168086 255 79 163
68.2748029 37.3629443 60.6626416 255 79 163
68.1977176 37.4755916 60.6140503 255 79 163
68.095266 37.5696643 60.5734713 255 79 163
67.9725855 37.6404453 60.5429394 255 79 163
67.8358277 37.6843853 60.5239855 255 79 163
68.3226566 36.8680401 59.4831572 255 79 163
68.2748029 37.0027203 59.4594094 255 79 163
68.1977176 37.123537 59.4381062 255 79 163
68.095266 37.2244322 59.4203156 255 79 163
67.9725855 37.3003464 59.4069299 255 79 163
67.8358277 37.347473 59.3986202 255 79 163
68.3226566 36.7931641 58.1975854 255 79 163
68.2748029 36.9296905 58.2055371 255 79 163
68.1977176 37.0521635 58.2126704 255 79 163
68.3226566 36.8242189 57.8515473 255 79 163
68.095266 37.1544418 58.2186274 255 79 163
68.2748029 36.9599796 57.8680316 255 79 163
67.9725855 37.2313967 58.2231095 255 79 163
68.1977176 37.0817657 57.8828191 255 79 163
67.8358277 37.2791694 58.225892 255 79 163
68.095266 37.1834703 57.8951683 255 79 163
67.9725855 37.2599935 57.9044599 255 79 163
67.8358277 37.3074983 57.9102281 255 79 163
68.3226566 37.0167796 56.9293987 255 79 163
68.2748029 37.1477922 56.9686213 255 79 163
68.1977176 37.2653189 57.0038065 255 79 163
68.3226566 37.1441941 56.5533568 255 79 163
68.095266 37.3634664 57.03319 255 79 163
68.2748029 37.2720649 56.6018518 255 79 163
67.9725855 37.4373133 57.0552983 255 79 163
68.1977176 37.3867732 56.6453549 255 79 163
67.8358277 37.4831566 57.0690229 255 79 163
68.095266 37.4825671 56.6816848 255 79 163
67.9725855 37.5546431 56.7090196 255 79 163
67.8358277 37.599387 56.7259887 255 79 163
68.3226566 37.5268315 55.7469655 255 79 163
68.2748029 37.6452673 55.8153444 255 79 163
68.1977176 37.7515117 55.8766847 255 79 163
68.3226566 37.7655488 55.3694644 255 79 163
68.095266 37.8402374 55.9279105 255 79 163
68.2748029 37.8780982 55.4471517 255 79 163
67.9725855 37.9069953 55.9664532 255 79 163
68.1977176 37.9790623 55.5168422 255 79 163
67.8358277 37.9484377 55.99038 255 79 163
68.095266 38.0633784 55.5750414 255 79 163
67.9725855 38.1268183 55.6188308 255 79 163
67.8358277 38.1662011 55.6460148 255 79 163
68.3226566 38.2958228 54.714031 255 79 163
68.2748029 38.3952968 54.8078799 255 79 163
68.1977176 38.4845314 54.8920684 255 79 163
68.095266 38.559052 54.962375 255 79 163
68.3226566 38.652172 54.3686737 255 79 163
67.9725855 38.6151218 55.0152742 255 79 163
68.2748029 38.7428592 54.4710384 255 79 163
67.8358277 38.6499293 55.0481133 255 79 163
68.1977176 38.8242114 54.5628661 255 79 163
68.095266 38.8921494 54.6395523 255 79 163
67.9725855 38.9432664 54.6972514 255 79 163
67.8358277 38.9749992 54.7330704 255 79 163
68.3226566 39.2822968 53.886281 255 79 163
68.2748029 39.3574465 54.0005405 255 79 163
68.1977176 39.4248606 54.1030386 255 79 163
68.095266 39.4811586 54.1886357 255 79 163
68.3226566 39.7525364 53.609147 255 79 163
67.9725855 39.5235177 54.2530395 255 79 163
68.2748029 39.8160909 53.73024 255 79 163
67.8358277 39.5498137 54.2930206 255 79 163
68.1977176 39.8731034 53.8388683 255 79 163
68.095266 39.9207151 53.9295846 255 79 163
67.9725855 39.9565384 53.9978403 255 79 163
68.3226566 40.4330727 53.3083397 255 79 163
67.8358277 39.9787771 54.0402126 255 79 163
68.2748029 40.4798466 53.43685 255 79 163
68.1977176 40.5218058 53.552132 255 79 163
68.095266 40.5568463 53.648405 255 79 163
68.3226566 41.0026929 53.1350252 255 79 163
67.9725855 40.5832111 53.7208415 255 79 163
68.2748029 41.0354212 53.267809 255 79 163
67.8358277 40.599578 53.7658092 255 79 163
68.1977176 41.0647805 53.3869247 255 79 163
68.095266 41.0892988 53.4863993 255 79 163
67.9725855 41.1077465 53.5612446 255 79 163
68.3226566 41.6861117 53.011364 255 79 163
67.8358277 41.1191987 53.6077077 255 79 163
68.2748029 41.7019883 53.1471971 255 79 163
68.1977176 41.7162306 53.2690481 255 79 163
68.095266 41.7281245 53.370807 255 79 163
67.9725855 41.7370736 53.4473711 255 79 163
68.3226566 42.3299869 52.9738625 255 79 163
67.8358277 41.742629 53.4949011 255 79 163
68.2748029 42.3299869 53.1106203 255 79 163
68.1977176 42.3299869 53.2333009 255 79 163
68.095266 42.3299869 53.3357525 255 79 163
67.9725855 42.3299869 53.4128378 255 79 163
68.3226566 42.9738621 53.011364 255 79 163
67.8358277 42.3299869 53.4606914 255 79 163
68.2748029 42.9579855 53.1471971 255 79 163
68.1977176 42.9437431 53.2690481 255 79 163
68.095266 42.9318492 53.370807 255 79 163
67.9725855 42.9229002 53.4473711 255 79 163
68.3226566 43.6572809 53.1350252 255 79 163
67.8358277 42.9173447 53.4949011 255 79 163
68.2748029 43.6245526 53.267809 255 79 163
68.1977176 43.5951932 53.3869247 255 79 163
68.095266 43.5706749 53.4863993 255 79 163
68.3226566 44.2269011 53.3083397 255 79 163
67.9725855 43.5522272 53.5612446 255 79 163
68.2748029 44.1801272 53.43685 255 79 163
67.8358277 43.5407751 53.6077077 255 79 163
68.1977176 44.1381679 53.552132 255 79 163
68.095266 44.1031274 53.648405 255 79 163
67.9725855 44.0767627 53.7208415 255 79 163
68.3226566 44.9074374 53.609147 255 79 163
67.8358277 44.0603958 53.7658092 255 79 163
68.2748029 44.8438828 53.73024 255 79 163
68.1977176 44.7868703 53.8388683 255 79 163
68.095266 44.7392587 53.9295846 255 79 163
68.3226566 45.3776769 53.886281 255 79 163
67.9725855 44.7034354 53.9978403 255 79 163
68.2748029 45.3025273 54.0005405 255 79 163
67.8358277 44.6811967 54.0402126 255 79 163
68.1977176 45.2351132 54.1030386 255 79 163
68.095266 45.1788151 54.1886357 255 79 163
67.9725855 45.1364561 54.2530395 255 79 163
67.8358277 45.1101601 54.2930206 255 79 163
68.3226566 46.0078018 54.3686737 255 79 163
68.2748029 45.9171146 54.4710384 255 79 163
68.1977176 45.8357623 54.5628661 255 79 163
68.095266 45.7678244 54.6395523 255 79 163
68.3226566 46.364151 54.714031 255 79 163
67.9725855 45.7167073 54.6972514 255 79 163
68.2748029 46.264677 54.8078799 255 79 163
67.8358277 45.6849745 54.7330704 255 79 163
68.1977176 46.1754424 54.8920684 255 79 163
68.095266 46.1009218 54.962375 255 79 163
67.9725855 46.0448519 55.0152742 255 79 163
67.8358277 46.0100445 55.0481133 255 79 163
68.3226566 46.894425 55.3694644 255 79 163
68.2748029 46.7818755 55.4471517 255 79 163
68.1977176 46.6809114 55.5168422 255 79 163
68.3226566 47.1331422 55.7469655 255 79 163
68.095266 46.5965954 55.5750414 255 79 163
68.2748029 47.0147065 55.8153444 255 79 163
67.9725855 46.5331554 55.6188308 255 79 163
68.1977176 46.908462 55.8766847 255 79 163
67.8358277 46.4937727 55.6460148 255 79 163
68.095266 46.8197363 55.9279105 255 79 163
67.9725855 46.7529785 55.9664532 255 79 163
67.8358277 46.711536 55.99038 255 79 163
68.3226566 47.5157796 56.5533568 255 79 163
68.2748029 47.3879089 56.6018518 255 79 163
68.1977176 47.2732006 56.6453549 255 79 163
68.3226566 47.6431941 56.9293987 255 79 163
68.095266 47.1774066 56.6816848 255 79 163
68.2748029 47.5121816 56.9686213 255 79 163
67.9725855 47.1053306 56.7090196 255 79 163
68.1977176 47.3946549 57.0038065 255 79 163
67.8358277 47.0605867 56.7259887 255 79 163
68.095266 47.2965073 57.03319 255 79 163
67.9725855 47.2226604 57.0552983 255 79 163
67.8358277 47.1768171 57.0690229 255 79 163
68.3226566 47.8357549 57.8515473 255 79 163
68.2748029 47.6999942 57.8680316 255 79 163
68.1977176 47.5782081 57.8828191 255 79 163
68.3226566 47.8668096 58.1975854 255 79 163
68.095266 47.4765035 57.8951683 255 79 163
68.2748029 47.7302832 58.2055371 255 79 163
67.9725855 47.3999802 57.9044599 255 79 163
68.1977176 47.6078102 58.2126704 255 79 163
67.8358277 47.3524755 57.9102281 255 79 163
68.095266 47.5055319 58.2186274 255 79 163
67.9725855 47.428577 58.2231095 255 79 163
67.8358277 47.3808044 58.225892 255 79 163
68.3226566 47.8357549 59.1885898 255 79 163
68.2748029 47.6999942 59.1721055 255 79 163
68.1977176 47.5782081 59.157318 255 79 163
68.095266 47.4765035 59.1449688 255 79 163
67.9725855 47.3999802 59.1356772 255 79 163
67.8358277 47.3524755 59.1299091 255 79 163
68.2748029 47.3879089 60.4382854 255 79 163
68.1977176 47.2732006 60.3947822 255 79 163
68.095266 47.1774066 60.3584524 255 79 163
67.9725855 47.1053306 60.3311176 255 79 163
67.8358277 47.0605867 60.3141485 255 79 163
68.2748029 46.7818755 61.5929854 255 79 163
68.1977176 46.6809114 61.5232949 255 79 163
68.095266 46.5965954 61.4650958 255 79 163
67.9725855 46.5331554 61.4213063 255 79 163
67.8358277 46.4937727 61.3941224 255 79 163
68.3226566 46.0078018 62.6714634 255 79 163
68.2748029 45.9171146 62.5690988 255 79 163
68.1977176 45.8357623 62.477271 255 79 163
68.095266 45.7678244 62.4005849 255 79 163
67.9725855 45.7167073 62.3428857 255 79 163
67.8358277 45.6849745 62.3070668 255 79 163
68.3226566 44.9074374 63.4309902 255 79 163
68.2748029 44.8438828 63.3098971 255 79 163
68.1977176 44.7868703 63.2012689 255 79 163
68.095266 44.7392587 63.1105525 255 79 163
67.9725855 44.7034354 63.0422969 255 79 163
67.8358277 44.6811967 62.9999246 255 79 163
68.3226566 43.6572809 63.905112 255 79 163
68.2748029 43.6245526 63.7723281 255 79 163
68.1977176 43.5951932 63.6532124 255 79 163
68.095266 43.5706749 63.5537379 255 79 163
67.9725855 43.5522272 63.4788925 255 79 163
67.8358277 43.5407751 63.4324294 255 79 163
67.6918502 42.3299869 63.5632234 218 222 230
5.09518445 42.3299869 63.5632234 218 222 230
5.09518445 41.1230809 63.4166785 218 222 230
5.09518445 39.986316 62.9855604 218 222 230
5.09518445 38.9857567 62.2949242 218 222 230
5.09518445 38.1795518 61.384907 218 222 230
5.09518445 37.6145552 60.3083959 218 222 230
5.09518445 37.3236023 59.1279537 218 222 230
5.09518445 37.3236023 57.9121834 218 222 230
5.09518445 37.6145552 56.7317412 218 222 230
5.09518445 38.1795518 55.6552301 218 222 230
5.09518445 38.9857567 54.745213 218 222 230
5.09518445 39.986316 54.0545768 218 222 230
5.09518445 41.1230809 53.6234587 218 222 230
5.09518445 42.3299869 53.4769138 218 222 230
5.09518445 43.5368928 53.6234587 218 222 230
5.09518445 44.6736578 54.0545768 218 222 230
5.09518445 45.6742171 54.745213 218 222 230
5.09518445 46.4804219 55.6552301 218 222 230
5.09518445 47.0454185 56.7317412 218 222 230
5.09518445 47.3363714 57.9121834 218 222 230
5.09518445 47.3363714 59.1279537 218 222 230
5.09518445 47.0454185 60.3083959 218 222 230
5.09518445 46.4804219 61.384907 218 222 230
5.09518445 45.6742171 62.2949242 218 222 230
5.09518445 44.6736578 62.9855604 218 222 230
5.09518445 43.5368928 63.4166785 218 222 230
5.09518445 42.3299869 63.5632234 218 222 230
67.6918502 42.3299869 63.5632234 218 222 230
67.6918502 41.1230809 63.4166785 218 222 230
67.6918502 39.986316 62.9855604 218 222 230
67.6918502 38.9857567 62.2949242 218 222 230
67.6918502 38.1795518 61.384907 218 222 230
67.6918502 37.6145552 60.3083959 218 222 230
67.6918502 37.3236023 59.1279537 218 222 230
67.6918502 37.3236023 57.9121834 218 222 230
67.6918502 37.6145552 56.7317412 218 222 230
67.6918502 38.1795518 55.6552301 218 222 230
67.6918502 38.9857567 54.745213 218 222 230
67.6918502 39.986316 54.0545768 218 222 230
67.6918502 41.1230809 53.6234587 218 222 230
67.6918502 42.3299869 53.4769138 218 222 230
67.6918502 43.5368928 53.6234587 218 222 230
67.6918502 44.6736578 54.0545768 218 222 230
67.6918502 45.6742171 54.745213 218 222 230
67.6918502 46.4804219 55.6552301 218 222 230
67.6918502 47.0454185 56.7317412 218 222 230
67.6918502 47.3363714 57.9121834 218 222 230
67.6918502 47.3363714 59.1279537 218 222 230
67.6918502 47.0454185 60.3083959 218 222 230
67.6918502 46.4804219 61.384907 218 222 230
67.6918502 45.6742171 62.2949242 218 222 230
67.6918502 44.6736578 62.9855604 218 222 230
67.6918502 43.5368928 63.4166785 218 222 230
5.09518445 42.3299869 63.5632234 218 222 230
5.09518445 41.1230809 63.4166785 218 222 230
5.09518445 39.986316 62.9855604 218 222 230
5.09518445 38.9857567 62.2949242 218 222 230
5.09518445 38.1795518 61.384907 218 222 230
5.09518445 37.6145552 60.3083959 218 222 230
5.09518445 37.3236023 59.1279537 218 222 230
5.09518445 37.3236023 57.9121834 218 222 230
5.09518445 37.6145552 56.7317412 218 222 230
5.09518445 38.1795518 55.6552301 218 222 230
5.09518445 38.9857567 54.745213 218 222 230
5.09518445 39.986316 54.0545768 218 222 230
5.09518445 41.1230809 53.6234587 218 222 230
5.09518445 42.3299869 53.4769138 218 222 230
5.09518445 43.5368928 53.6234587 218 222 230
5.09518445 44.6736578 54.0545768 218 222 230
5.09518445 45.6742171 54.745213 218 222 230
5.09518445 46.4804219 55.6552301 218 222 230
5.09518445 47.0454185 56.7317412 218 222 230
5.09518445 47.3363714 57.9121834 218 222 230
5.09518445 47.3363714 59.1279537 218 222 230
5.09518445 47.0454185 60.3083959 218 222 230
5.09518445 46.4804219 61.384907 218 222 230
5.09518445 45.6742171 62.2949242 218 222 230
5.09518445 44.6736578 62.9855604 218 222 230
5.09518445 43.5368928 63.4166785 218 222 230
3 5 13 12
3 7 5 6
3 9 7 8
3 4 9 10
3 4 10 11
3 4 17 18
3 4 18 19
3 4 19 13
3 4 13 5
3 4 7 9
3 4 5 7
3 2 0 1
3 3 1 14
3 3 14 15
3 3 15 16
3 3 16 17
3 3 2 1
3 3 17 4
3 23 21 20
3 23 22 21
3 26 33 41
3 27 41 40
3 27 26 41
3 28 40 39
3 28 27 40
3 29 39 38
3 29 28 39
3 30 37 36
3 30 38 37
3 30 29 38
3 31 36 35
3 31 30 36
3 32 35 34
3 32 31 35
3 25 34 24
3 25 32 34
3 52 43 42
3 52 42 51
3 53 44 43
3 53 43 52
3 54 45 44
3 54 44 53
3 55 45 54
3 56 46 45
3 56 45 55
3 57 47 46
3 57 46 56
3 58 48 47
3 58 47 57
3 59 49 48
3 59 48 58
3 50 49 59
3 76 68 67
3 75 66 65
3 75 67 66
3 75 76 67
3 74 65 64
3 74 75 65
3 73 64 63
3 73 74 64
3 72 63 62
3 72 73 63
3 71 62 61
3 71 72 62
3 70 61 60
3 70 71 61
3 69 70 60
3 80 77 78
3 80 78 79
3 90 92 91
3 89 92 90
3 88 92 89
3 87 92 88
3 93 87 86
3 93 92 87
3 85 93 86
3 94 82 81
3 94 83 82
3 94 84 83
3 94 85 84
3 94 93 85
3 107 109 108
3 110 106 105
3 110 107 106
3 110 109 107
3 104 110 105
3 111 102 101
3 111 103 102
3 111 104 103
3 111 110 104
3 118 101 100
3 118 111 101
3 117 100 99
3 117 118 100
3 116 99 98
3 116 117 99
3 115 98 97
3 115 116 98
3 114 115 97
3 113 114 97
3 96 97 95
3 120 112 113
3 120 119 112
3 120 113 97
3 120 97 96
3 122 96 121
3 124 122 123
3 124 125 126
3 124 126 120
3 124 120 96
3 124 96 122
3 127 128 129
3 143 129 136
3 143 127 129
3 142 136 135
3 142 143 136
3 141 135 134
3 141 142 135
3 140 134 133
3 140 141 134
3 139 133 132
3 139 140 133
3 138 132 131
3 138 139 132
3 137 131 130
3 137 138 131
3 152 153 154
3 151 154 155
3 151 152 154
3 150 155 156
3 150 151 155
3 149 156 157
3 149 157 158
3 149 150 156
3 148 158 159
3 148 149 158
3 147 159 160
3 147 148 159
3 146 160 161
3 146 147 160
3 145 161 144
3 145 146 161
3 162 164 163
3 166 168 167
3 166 169 168
3 166 170 169
3 166 171 170
3 166 172 171
3 166 173 172
3 166 162 173
3 165 164 162
3 165 162 166
3 180 178 179
3 181 178 180
3 174 176 177
3 174 177 178
3 174 181 182
3 174 178 181
3 183 174 182
3 175 183 184
3 175 174 183
3 186 184 185
3 187 175 184
3 187 184 186
3 194 195 202
3 188 189 209
3 210 198 197
3 211 197 196
3 211 210 197
3 212 196 203
3 212 211 196
3 213 199 198
3 213 210 211
3 213 198 210
3 214 203 204
3 214 212 203
3 215 211 212
3 215 213 211
3 216 200 199
3 216 201 200
3 216 199 213
3 217 204 205
3 217 214 204
3 218 215 212
3 218 212 214
3 219 213 215
3 219 216 213
3 220 205 206
3 220 218 214
3 220 217 205
3 220 214 217
3 221 215 218
3 221 219 215
3 222 193 194
3 222 202 201
3 222 201 216
3 222 216 219
3 222 194 202
3 223 218 220
3 223 221 218
3 224 192 193
3 224 193 222
3 224 219 221
3 224 222 219
3 225 206 207
3 225 207 208
3 225 220 206
3 225 223 220
3 226 190 191
3 226 191 192
3 226 192 224
3 226 221 223
3 226 224 221
3 227 189 190
3 227 208 209
3 227 209 189
3 227 190 226
3 227 225 208
3 227 223 225
3 227 226 223
3 230 237 236
3 231 238 237
3 231 237 230
3 232 239 238
3 232 240 239
3 232 238 231
3 233 241 240
3 233 240 232
3 234 242 241
3 234 243 242
3 234 241 233
3 235 244 243
3 235 243 234
3 229 228 244
3 229 244 235
3 256 245 246
3 256 255 245
3 257 246 247
3 257 256 246
3 258 247 248
3 258 257 247
3 259 248 249
3 259 258 248
3 260 249 250
3 260 259 249
3 261 250 251
3 261 251 252
3 261 260 250
3 254 252 253
3 254 261 252
3 263 264 265
3 263 265 262
3 280 267 266
3 280 268 267
3 281 269 268
3 281 268 280
3 282 270 269
3 282 269 281
3 283 271 270
3 283 270 282
3 284 272 271
3 284 271 283
3 285 273 272
3 285 272 284
3 286 274 273
3 286 273 285
3 287 275 274
3 287 274 286
3 288 276 275
3 288 275 287
3 279 277 276
3 279 276 288
3 278 277 279
3 302 301 300
3 304 303 302
3 305 302 300
3 305 304 302
3 306 305 300
3 299 306 300
3 292 300 307
3 292 299 300
3 293 292 307
3 294 293 307
3 332 307 333
3 334 307 308
3 334 333 307
3 331 307 332
3 335 334 308
3 330 307 331
3 330 294 307
3 336 335 308
3 329 295 294
3 329 294 330
3 337 336 308
3 328 295 329
3 328 296 295
3 338 337 308
3 327 297 296
3 327 298 297
3 327 296 328
3 339 338 308
3 326 291 298
3 326 298 327
3 340 339 308
3 325 291 326
3 341 340 308
3 342 341 308
3 316 342 308
3 309 317 316
3 309 318 317
3 309 319 318
3 309 320 319
3 309 321 320
3 309 322 321
3 309 323 322
3 309 316 308
3 290 289 291
3 290 291 325
3 290 323 309
3 290 324 323
3 290 325 324
3 311 309 310
3 314 315 290
3 314 290 309
3 312 313 314
3 312 309 311
3 312 314 309
3 350 351 352
3 350 352 358
3 349 358 357
3 349 350 358
3 348 357 356
3 348 349 357
3 347 356 355
3 347 348 356
3 346 355 354
3 346 347 355
3 345 354 353
3 345 346 354
3 344 353 343
3 344 345 353
3 367 368 369
3 367 369 375
3 366 367 375
3 365 375 374
3 365 366 375
3 364 374 373
3 364 365 374
3 363 373 372
3 363 364 373
3 362 372 371
3 362 363 372
3 361 371 370
3 361 362 371
3 360 370 359
3 360 361 370
3 388 378 379
3 380 388 379
3 389 388 380
3 381 389 380
3 395 393 392
3 395 394 393
3 400 382 383
3 400 383 384
3 401 381 382
3 401 382 400
3 401 389 381
3 401 400 384
3 402 390 389
3 402 389 401
3 403 391 390
3 403 390 402
3 404 392 391
3 404 395 392
3 404 391 403
3 405 396 395
3 405 404 396
3 405 395 404
3 406 397 396
3 406 403 402
3 406 402 401
3 406 404 403
3 406 396 404
3 406 401 384
3 407 397 406
3 408 398 397
3 408 397 407
3 409 399 398
3 409 398 408
3 410 399 409
3 411 377 376
3 411 376 399
3 411 399 410
3 412 384 385
3 412 406 384
3 412 407 406
3 413 412 385
3 413 408 407
3 413 407 412
3 414 385 386
3 414 409 408
3 414 413 385
3 414 408 413
3 415 410 409
3 415 409 414
3 416 410 415
3 417 411 410
3 417 410 416
3 418 377 411
3 418 411 417
3 419 414 386
3 419 415 414
3 419 416 415
3 420 416 419
3 420 419 386
3 421 420 386
3 421 416 420
3 421 417 416
3 422 418 417
3 422 417 421
3 423 421 386
3 423 386 387
3 423 387 377
3 423 422 421
3 423 377 418
3 423 418 422
3 432 433 440
3 431 439 438
3 431 440 439
3 431 432 440
3 430 438 437
3 430 431 438
3 429 437 436
3 429 430 437
3 428 436 435
3 428 429 436
3 427 435 434
3 427 428 435
3 426 434 424
3 426 427 434
3 425 426 424
3 465 441 442
3 443 465 442
3 450 446 447
3 450 447 448
3 450 448 449
3 458 470 469
3 458 457 470
3 459 458 469
3 463 462 455
3 464 463 455
3 456 464 455
3 471 443 444
3 471 444 445
3 471 445 446
3 471 450 451
3 471 466 465
3 471 465 443
3 471 446 450
3 472 451 452
3 472 452 453
3 472 467 466
3 472 468 467
3 472 471 451
3 472 466 471
3 473 453 454
3 473 454 455
3 473 460 459
3 473 461 460
3 473 462 461
3 473 469 468
3 473 468 472
3 473 459 469
3 473 472 453
3 473 455 462
3 482 483 484
3 482 484 490
3 481 490 489
3 481 482 490
3 480 489 488
3 480 481 489
3 479 488 487
3 479 480 488
3 478 487 486
3 478 479 487
3 477 486 485
3 477 478 486
3 476 485 474
3 476 477 485
3 475 476 474
3 493 501 507
3 494 507 506
3 494 493 507
3 495 506 505
3 495 494 506
3 496 505 504
3 496 495 505
3 497 504 503
3 497 496 504
3 498 503 502
3 498 497 503
3 499 498 502
3 500 502 491
3 500 499 502
3 492 500 491
3 530 529 541
3 531 530 541
3 532 531 541
3 542 508 509
3 542 516 508
3 543 509 510
3 543 542 509
3 544 510 511
3 544 543 510
3 545 511 512
3 545 544 511
3 546 512 513
3 546 545 512
3 547 513 514
3 547 514 515
3 547 515 533
3 547 546 513
3 548 517 516
3 548 516 542
3 549 548 542
3 549 542 543
3 550 549 543
3 550 543 544
3 551 544 545
3 551 550 544
3 552 551 545
3 552 545 546
3 553 533 534
3 553 546 547
3 553 547 533
3 553 552 546
3 554 518 517
3 554 517 548
3 555 548 549
3 555 554 548
3 556 549 550
3 556 555 549
3 557 556 550
3 557 550 551
3 558 551 552
3 558 557 551
3 559 558 552
3 559 534 535
3 559 553 534
3 559 552 553
3 560 519 518
3 560 520 519
3 560 518 554
3 561 560 554
3 561 554 555
3 562 561 555
3 562 555 556
3 563 562 556
3 563 556 557
3 564 557 558
3 564 563 557
3 565 558 559
3 565 559 535
3 565 535 536
3 565 564 558
3 565 536 564
3 566 520 560
3 567 566 560
3 567 561 562
3 567 560 561
3 568 567 562
3 569 562 563
3 569 568 562
3 569 563 564
3 570 564 536
3 570 569 564
3 571 536 537
3 571 570 536
3 571 537 570
3 572 521 520
3 572 520 566
3 573 572 566
3 573 566 567
3 574 567 568
3 574 573 567
3 575 568 569
3 575 574 568
3 576 570 537
3 576 569 570
3 576 575 569
3 577 537 538
3 577 538 576
3 577 576 537
3 578 522 521
3 578 521 572
3 579 573 574
3 579 578 572
3 579 572 573
3 580 579 574
3 581 574 575
3 581 580 574
3 582 576 538
3 582 575 576
3 582 581 575
3 583 538 539
3 583 582 538
3 583 539 582
3 584 523 522
3 584 522 578
3 585 578 579
3 585 584 578
3 586 579 580
3 586 585 579
3 587 580 581
3 587 586 580
3 588 587 581
3 588 582 539
3 588 581 582
3 589 539 540
3 589 540 588
3 589 588 539
3 590 524 523
3 590 525 524
3 590 526 525
3 590 523 584
3 591 590 584
3 591 527 526
3 591 584 585
3 591 526 590
3 592 591 585
3 592 528 527
3 592 527 591
3 592 585 586
3 593 586 587
3 593 592 586
3 593 529 528
3 593 528 592
3 594 587 588
3 594 593 587
3 594 529 593
3 594 588 540
3 594 541 529
3 595 541 594
3 595 594 540
3 595 540 541
3 596 597 598
3 596 598 599
3 596 599 600
3 596 600 601
3 596 601 602
3 596 602 603
3 596 603 604
3 596 604 605
3 596 605 606
3 596 606 607
3 643 641 642
3 644 641 643
3 675 609 608
3 675 608 616
3 676 610 609
3 676 609 675
3 677 611 610
3 677 610 676
3 678 612 611
3 678 611 677
3 679 613 612
3 679 612 678
3 680 614 613
3 680 615 614
3 680 650 615
3 680 613 679
3 680 679 650
3 681 616 617
3 681 675 616
3 682 676 675
3 682 675 681
3 683 677 676
3 683 676 682
3 684 677 683
3 684 678 677
3 685 678 684
3 685 679 678
3 685 650 679
3 686 651 650
3 686 685 651
3 686 650 685
3 687 617 618
3 687 681 617
3 688 681 687
3 688 682 681
3 689 683 682
3 689 682 688
3 690 683 689
3 690 684 683
3 691 690 652
3 691 684 690
3 691 651 685
3 691 685 684
3 692 652 651
3 692 691 652
3 692 651 691
3 693 618 619
3 693 687 618
3 694 687 693
3 694 689 688
3 694 688 687
3 695 689 694
3 696 652 690
3 696 689 695
3 696 690 689
3 697 696 653
3 697 652 696
3 698 653 652
3 698 652 697
3 698 697 653
3 699 619 620
3 699 693 619
3 700 693 699
3 700 694 693
3 700 695 694
3 701 695 700
3 701 696 695
3 702 653 696
3 702 696 701
3 703 653 702
3 703 702 654
3 704 653 703
3 704 703 654
3 704 654 653
3 705 620 621
3 705 621 622
3 705 699 620
3 706 699 705
3 706 700 699
3 707 701 700
3 707 700 706
3 708 702 701
3 708 654 702
3 708 701 707
3 708 707 655
3 709 654 708
3 709 708 655
3 710 654 709
3 710 709 655
3 710 655 654
3 711 705 622
3 712 705 711
3 712 706 705
3 713 707 706
3 713 706 712
3 713 655 707
3 714 711 622
3 714 622 623
3 715 655 713
3 716 711 714
3 716 712 711
3 716 713 712
3 717 655 715
3 718 713 716
3 719 656 655
3 719 655 717
3 720 715 713
3 720 713 718
3 721 715 720
3 721 717 715
3 722 656 719
3 722 719 717
3 722 717 721
3 723 714 623
3 724 714 723
3 724 716 714
3 725 716 724
3 725 718 716
3 726 623 624
3 726 723 623
3 727 720 718
3 727 718 725
3 728 725 724
3 728 724 723
3 728 723 726
3 729 721 720
3 729 722 721
3 729 720 727
3 730 725 728
3 731 657 656
3 731 656 722
3 731 722 729
3 732 727 725
3 732 725 730
3 733 727 732
3 733 729 727
3 734 729 733
3 734 657 731
3 734 731 729
3 735 726 624
3 736 726 735
3 736 728 726
3 737 732 730
3 737 728 736
3 737 730 728
3 738 624 625
3 738 735 624
3 739 733 732
3 739 732 737
3 740 736 735
3 740 737 736
3 740 735 738
3 741 733 739
3 742 737 740
3 743 734 733
3 743 657 734
3 743 658 657
3 743 733 741
3 744 737 742
3 744 739 737
3 745 739 744
3 745 741 739
3 746 743 741
3 746 658 743
3 746 741 745
3 747 738 625
3 748 740 738
3 748 738 747
3 749 742 740
3 749 744 742
3 749 740 748
3 750 744 749
3 751 625 626
3 751 747 625
3 751 748 747
3 752 745 744
3 752 746 745
3 752 744 750
3 753 748 751
3 754 658 746
3 754 659 658
3 754 746 752
3 755 749 748
3 755 748 753
3 756 750 749
3 756 749 755
3 757 750 756
3 757 752 750
3 758 659 754
3 758 754 752
3 758 752 757
3 759 751 626
3 760 751 759
3 760 753 751
3 761 753 760
3 761 755 753
3 761 756 755
3 762 756 761
3 763 626 627
3 763 760 759
3 763 759 626
3 764 757 756
3 764 758 757
3 764 756 762
3 765 760 763
3 766 660 659
3 766 659 758
3 766 758 764
3 767 761 760
3 767 760 765
3 768 762 761
3 768 761 767
3 769 762 768
3 769 764 762
3 770 763 627
3 771 764 769
3 771 766 764
3 771 660 766
3 772 763 770
3 772 765 763
3 773 767 765
3 773 768 767
3 773 765 772
3 774 768 773
3 775 770 627
3 775 627 628
3 776 769 768
3 776 768 774
3 777 770 775
3 777 772 770
3 778 771 769
3 778 660 771
3 778 769 776
3 778 661 660
3 779 772 777
3 779 773 772
3 780 774 773
3 780 773 779
3 781 776 774
3 781 778 776
3 781 774 780
3 782 775 628
3 783 661 778
3 783 778 781
3 784 777 775
3 784 775 782
3 785 780 779
3 785 779 777
3 785 777 784
3 786 780 785
3 787 781 780
3 787 780 786
3 788 628 629
3 788 782 628
3 789 781 787
3 789 661 783
3 789 783 781
3 789 662 661
3 790 782 788
3 790 784 782
3 791 785 784
3 791 784 790
3 792 785 791
3 792 786 785
3 793 787 786
3 793 786 792
3 794 788 629
3 794 790 788
3 795 789 787
3 795 662 789
3 795 787 793
3 796 791 790
3 796 790 794
3 797 791 796
3 798 792 791
3 798 791 797
3 799 793 792
3 799 795 793
3 799 792 798
3 800 629 630
3 800 794 629
3 801 663 662
3 801 662 795
3 801 795 799
3 802 794 800
3 802 796 794
3 803 796 802
3 803 797 796
3 804 797 803
3 804 798 797
3 805 800 630
3 806 799 798
3 806 798 804
3 807 800 805
3 807 803 802
3 807 802 800
3 808 801 799
3 808 799 806
3 808 663 801
3 809 803 807
3 810 804 803
3 810 803 809
3 811 806 804
3 811 804 810
3 812 805 630
3 812 630 631
3 813 663 808
3 813 806 811
3 813 664 663
3 813 808 806
3 814 807 805
3 814 805 812
3 815 809 807
3 815 807 814
3 816 810 809
3 816 811 810
3 816 809 815
3 817 812 631
3 818 811 816
3 818 813 811
3 819 814 812
3 819 815 814
3 819 812 817
3 820 813 818
3 820 664 813
3 821 815 819
3 822 816 815
3 822 815 821
3 823 818 816
3 823 816 822
3 823 820 818
3 824 665 664
3 824 664 820
3 824 820 823
3 825 631 632
3 825 817 631
3 826 817 825
3 826 819 817
3 826 821 819
3 827 821 826
3 828 822 821
3 828 821 827
3 829 825 632
3 830 823 822
3 830 822 828
3 831 826 825
3 831 825 829
3 832 665 824
3 832 824 823
3 832 823 830
3 833 827 826
3 833 826 831
3 834 828 827
3 834 827 833
3 835 828 834
3 835 830 828
3 836 830 835
3 836 666 665
3 836 665 832
3 836 832 830
3 837 632 633
3 837 829 632
3 838 829 837
3 838 833 831
3 838 831 829
3 839 833 838
3 840 838 837
3 840 837 633
3 841 834 833
3 841 833 839
3 842 838 840
3 843 835 834
3 843 834 841
3 844 838 842
3 844 839 838
3 845 835 843
3 845 836 835
3 845 666 836
3 846 841 839
3 846 839 844
3 846 843 841
3 847 845 843
3 847 843 846
3 848 666 845
3 848 845 847
3 848 667 666
3 849 633 634
3 849 840 633
3 850 840 849
3 850 842 840
3 850 844 842
3 851 844 850
3 852 849 634
3 852 850 849
3 853 846 844
3 853 847 846
3 853 844 851
3 854 850 852
3 855 848 847
3 855 847 853
3 856 851 850
3 856 850 854
3 857 848 855
3 857 667 848
3 858 853 851
3 858 851 856
3 859 855 853
3 859 853 858
3 860 668 667
3 860 857 855
3 860 667 857
3 860 855 859
3 861 634 635
3 861 852 634
3 861 854 852
3 862 854 861
3 863 856 854
3 863 858 856
3 863 854 862
3 864 861 635
3 865 858 863
3 866 862 861
3 866 861 864
3 867 859 858
3 867 858 865
3 868 863 862
3 868 862 866
3 869 859 867
3 869 668 860
3 869 860 859
3 870 863 868
3 870 865 863
3 871 867 865
3 871 865 870
3 872 869 867
3 872 867 871
3 872 669 668
3 872 668 869
3 873 635 636
3 873 864 635
3 874 873 636
3 874 864 873
3 874 866 864
3 875 868 866
3 875 874 636
3 875 866 874
3 876 868 875
3 876 875 636
3 876 870 868
3 877 870 876
3 877 871 870
3 878 872 871
3 878 669 872
3 878 871 877
3 879 636 637
3 880 636 879
3 880 879 637
3 881 876 636
3 881 636 880
3 882 876 881
3 882 877 876
3 883 669 878
3 883 878 877
3 883 877 882
3 883 670 669
3 884 637 638
3 885 880 637
3 885 884 638
3 885 637 884
3 886 881 880
3 886 880 885
3 887 882 881
3 887 881 886
3 888 883 882
3 888 670 883
3 888 882 887
3 888 671 670
3 889 638 639
3 890 889 639
3 890 638 889
3 891 885 638
3 891 886 885
3 891 638 890
3 891 890 639
3 892 886 891
3 893 887 886
3 893 886 892
3 894 672 671
3 894 888 887
3 894 671 888
3 894 673 672
3 894 887 893
3 895 639 640
3 896 895 640
3 896 639 895
3 897 891 639
3 897 639 896
3 898 892 891
3 898 891 897
3 899 893 892
3 899 892 898
3 900 673 894
3 900 894 893
3 900 893 899
3 901 640 641
3 902 896 640
3 902 640 901
3 902 901 641
3 902 641 644
3 903 902 644
3 903 644 645
3 903 645 646
3 903 897 896
3 903 896 902
3 904 897 903
3 904 898 897
3 904 903 646
3 905 904 646
3 905 898 904
3 905 646 647
3 905 647 648
3 905 899 898
3 906 900 899
3 906 899 905
3 906 905 648
3 906 648 649
3 906 674 673
3 906 649 674
3 906 673 900
3 936 908 907
3 936 909 908
3 937 910 909
3 937 909 936
3 938 911 910
3 938 910 937
3 939 912 911
3 939 911 938
3 940 913 912
3 940 912 939
3 941 914 913
3 941 913 940
3 942 915 914
3 942 916 915
3 942 914 941
3 943 916 942
3 944 917 916
3 944 916 943
3 945 918 917
3 945 919 918
3 945 917 944
3 946 919 945
3 946 920 919
3 947 920 946
3 948 920 947
3 948 921 920
3 949 922 921
3 949 921 948
3 950 922 949
3 950 923 922
3 951 924 923
3 951 923 950
3 952 925 924
3 952 924 951
3 953 926 925
3 953 925 952
3 954 927 926
3 954 926 953
3 955 928 927
3 955 927 954
3 956 929 928
3 956 928 955
3 957 930 929
3 957 929 956
3 958 931 930
3 958 930 957
3 959 932 931
3 959 933 932
3 959 931 958
3 960 933 959
3 935 934 933
3 935 933 960
3 980 977 978
3 980 978 979
3 974 975 976
3 973 976 977
3 973 974 976
3 982 980 981
3 972 973 977
3 983 980 982
3 970 971 972
3 970 983 984
3 970 977 980
3 970 972 977
3 970 980 983
3 986 984 985
3 967 968 969
3 967 969 970
3 967 970 984
3 967 984 986
3 963 961 962
3 965 966 967
3 965 986 961
3 965 967 986
3 964 961 963
3 964 965 961
