ply
format ascii 1.0
comment generated by blendit.inference.finetune_visualize
element vertex 1064
property float x
property float y
property float z
property uchar red
property uchar green
property uchar blue
element face 1415
property list uchar int vertex_indices
end_header
-1.11022302e-16 0.753470079 83.3522107 218 222 230
0 48.1749123 83.3522107 218 222 230
0 0.753470079 0.753470079 218 222 230
0 48.1749123 0.753470079 218 222 230
17.0194808 48.1749123 83.3522107 218 222 230
17.0194808 17.0313911 83.3522107 218 222 230
0 48.1749123 83.3522107 218 222 230
-1.11022302e-16 0.753470079 83.3522107 218 222 230
0.018891068 0.585807213 83.3522107 218 222 230
0.0746169949 0.426551664 83.3522107 218 222 230
0.16438345 0.283689169 83.3522107 218 222 230
0.283689169 0.16438345 83.3522107 218 222 230
0.426551664 0.0746169949 83.3522107 218 222 230
0.585807213 0.018891068 83.3522107 218 222 230
0.753470079 -1.11022302e-16 83.3522107 218 222 230
83.8313108 -1.11022302e-16 83.3522107 218 222 230
83.9989736 0.018891068 83.3522107 218 222 230
84.1582292 0.0746169949 83.3522107 218 222 230
84.3010917 0.16438345 83.3522107 218 222 230
84.4203974 0.283689169 83.3522107 218 222 230
84.5101639 0.426551664 83.3522107 218 222 230
84.5658898 0.585807213 83.3522107 218 222 230
84.5847809 0.753470079 83.3522107 218 222 230
84.5847809 15.524451 83.3522107 218 222 230
17.7729509 15.524451 83.3522107 218 222 230
17.6991465 15.5339265 83.3522107 218 222 230
17.62945 15.5597311 83.3522107 218 222 230
17.5653404 15.597665 83.3522107 218 222 230
17.4888018 15.6610315 83.3522107 218 222 230
17.3905926 15.7729417 83.3522107 218 222 230
17.2718914 15.9623414 83.3522107 218 222 230
17.1421944 16.2712789 83.3522107 218 222 230
17.0524595 16.6375361 83.3522107 218 222 230
17.0279074 16.8337841 83.3522107 218 222 230
0 0.753470079 0.753470079 255 79 163
0.018891068 0.585807213 0.753470079 255 79 163
0.0746169949 0.426551664 0.753470079 255 79 163
0.16438345 0.283689169 0.753470079 255 79 163
0.283689169 0.16438345 0.753470079 255 79 163
0.426551664 0.0746169949 0.753470079 255 79 163
0.585807213 0.018891068 0.753470079 255 79 163
0.753470079 -1.11022302e-16 0.753470079 255 79 163
0.753470079 -1.11022302e-16 83.3522107 255 79 163
-1.11022302e-16 0.753470079 83.3522107 255 79 163
0.018891068 0.585807213 83.3522107 255 79 163
0.0746169949 0.426551664 83.3522107 255 79 163
0.16438345 0.283689169 83.3522107 255 79 163
0.283689169 0.16438345 83.3522107 255 79 163
0.426551664 0.0746169949 83.3522107 255 79 163
0.585807213 0.018891068 83.3522107 255 79 163
84.5847809 48.1749123 0.753470079 218 222 230
84.5847809 48.1749123 56.9584624 218 222 230
0 48.1749123 0.753470079 218 222 230
0 48.1749123 83.3522107 218 222 230
17.0194808 48.1749123 83.3522107 218 222 230
17.0194808 48.1749123 56.9584624 218 222 230
80.4519897 48.1749123 28.4419185 218 222 230
71.5105512 48.1749123 29.7987162 218 222 230
82.0318517 48.1749123 29.5322602 218 222 230
82.0366992 48.1749123 29.4861765 218 222 230
82.0320471 48.1749123 29.4401713 218 222 230
82.0156524 48.1749123 29.3805632 218 222 230
81.9772557 48.1749123 29.296158 218 222 230
81.9016135 48.1749123 29.1794417 218 222 230
81.7375998 48.1749123 28.9940816 218 222 230
81.5295767 48.1749123 28.815462 218 222 230
81.2335718 48.1749123 28.624861 218 222 230
80.9096129 48.1749123 28.4875707 218 222 230
80.6831527 48.1749123 28.4393184 218 222 230
80.5647263 48.1749123 28.4330577 218 222 230
79.2842614 48.1749123 41.2005724 218 222 230
70.5090712 48.1749123 31.5579143 218 222 230
70.4614074 48.1749123 31.4908207 218 222 230
70.4299107 48.1749123 31.4147609 218 222 230
70.4129855 48.1749123 31.3340755 218 222 230
70.4086812 48.1749123 31.2243579 218 222 230
70.4302364 48.1749123 31.0608716 218 222 230
70.5038577 48.1749123 30.8249729 218 222 230
70.6736804 48.1749123 30.4953669 218 222 230
70.9277345 48.1749123 30.1645961 218 222 230
71.2127466 48.1749123 29.9210659 218 222 230
71.3554947 48.1749123 29.8443082 218 222 230
71.4316201 48.1749123 29.8166218 218 222 230
0 0.753470079 0.753470079 255 79 163
0 48.1749123 0.753470079 255 79 163
0.011087798 48.1638245 0.624684564 255 79 163
0.0440248637 48.1308875 0.499689373 255 79 163
0.0978418169 48.0770705 0.382163276 255 79 163
0.170954755 48.0039576 0.275565216 255 79 163
0.261211871 47.9137005 0.183032513 255 79 163
0.36595678 47.8089555 0.107288523 255 79 163
0.522774733 47.6521376 0.0361857437 255 79 163
0.636712048 47.5382003 0.00910140532 255 79 163
0.753470079 47.4214422 -1.11022302e-16 255 79 163
0.753470079 0.753470079 -1.11022302e-16 255 79 163
0.018891068 0.753470079 0.585807213 255 79 163
0.0746169949 0.753470079 0.426551664 255 79 163
0.16438345 0.753470079 0.283689169 255 79 163
0.283689169 0.753470079 0.16438345 255 79 163
0.426551664 0.753470079 0.0746169949 255 79 163
0.585807213 0.753470079 0.018891068 255 79 163
17.0194808 48.1749123 83.3522107 218 222 230
17.0194808 17.0313911 83.3522107 218 222 230
17.0194808 48.1749123 56.9584624 218 222 230
17.0194808 17.0313911 56.9584624 218 222 230
17.0194808 17.0313911 83.3522107 255 79 163
17.0194808 17.0313911 83.3522107 255 79 163
17.7729509 15.524451 83.3522107 255 79 163
17.6991465 15.5339265 83.3522107 255 79 163
17.62945 15.5597311 83.3522107 255 79 163
17.5653404 15.597665 83.3522107 255 79 163
17.4888018 15.6610315 83.3522107 255 79 163
17.3905926 15.7729417 83.3522107 255 79 163
17.2718914 15.9623414 83.3522107 255 79 163
17.1421944 16.2712789 83.3522107 255 79 163
17.0524595 16.6375361 83.3522107 255 79 163
17.0279074 16.8337841 83.3522107 255 79 163
17.7729509 15.700345 83.3313923 255 79 163
17.7729509 15.8665192 83.2700874 255 79 163
17.7729509 16.0137906 83.1716838 255 79 163
17.7729509 16.134021 83.0416193 255 79 163
17.7729509 16.2205666 82.8870812 255 79 163
17.7729509 16.2634433 82.7457353 255 79 163
17.7729509 16.277921 82.5987407 255 79 163
17.5779385 16.3035949 82.724319 255 79 163
17.3962158 16.3788669 82.8498973 255 79 163
17.2401671 16.4986073 82.9754757 255 79 163
17.1204266 16.6546561 83.101054 255 79 163
17.0451546 16.8363787 83.2266324 255 79 163
17.6078437 16.0649059 83.1653772 255 79 163
17.4861536 15.9997771 83.2638723 255 79 163
17.535495 16.1071619 83.1649626 255 79 163
17.4864527 16.1335275 83.1734778 255 79 163
17.3512061 16.1207908 83.2750112 255 79 163
17.3955483 16.1973136 83.1912494 255 79 163
17.4561365 16.2513281 83.0709706 255 79 163
17.3343173 16.2523911 83.2048959 255 79 163
17.2602341 16.334858 83.2236906 255 79 163
17.1885986 16.4365223 83.2450963 255 79 163
17.1345205 16.5347571 83.2645232 255 79 163
17.0807687 16.6654168 83.288993 255 79 163
17.0496459 16.7737447 83.3083586 255 79 163
17.0350267 16.8463205 83.3209412 255 79 163
17.1629592 16.3584141 83.3204617 255 79 163
17.1377334 16.4175532 83.3235655 255 79 163
17.1094909 16.4933329 83.327514 255 79 163
17.0643984 16.6492129 83.335337 255 79 163
17.0506894 16.7126366 83.3382976 255 79 163
17.0430069 16.754697 83.3401575 255 79 163
17.0308534 16.8394716 83.3436435 255 79 163
17.0580768 16.642315 83.3477209 255 79 163
17.0515884 16.6766424 83.3481446 255 79 163
17.0476385 16.6992923 83.3484131 255 79 163
17.0343835 16.790373 83.349394 255 79 163
17.0426908 16.7163763 83.3512764 255 79 163
17.030914 16.8110566 83.3515189 255 79 163
84.5847809 15.524451 83.3522107 255 79 163
84.5736931 15.6532365 83.3411229 255 79 163
84.540756 15.7782317 83.3081859 255 79 163
84.486939 15.8957578 83.2543689 255 79 163
84.4138261 16.0023558 83.181256 255 79 163
84.323569 16.0948885 83.0909989 255 79 163
84.2188241 16.1706325 82.986254 255 79 163
84.0620061 16.2417353 82.829436 255 79 163
83.9480688 16.2688196 82.7154987 255 79 163
83.8313108 16.277921 82.5987407 255 79 163
17.7729509 16.277921 82.5987407 255 79 163
17.7729509 15.524451 83.3522107 255 79 163
17.7729509 15.700345 83.3313923 255 79 163
17.7729509 15.8665192 83.2700874 255 79 163
17.7729509 16.0137906 83.1716838 255 79 163
17.7729509 16.134021 83.0416193 255 79 163
17.7729509 16.2205666 82.8870812 255 79 163
17.7729509 16.2634433 82.7457353 255 79 163
84.5847809 0.753470079 83.3522107 218 222 230
84.5847809 15.524451 83.3522107 218 222 230
84.5847809 0.753470079 0.753470079 218 222 230
84.5847809 48.1749123 0.753470079 218 222 230
84.5847809 48.1749123 56.9584624 218 222 230
84.5847809 17.0313911 56.9584624 218 222 230
84.5847809 15.524451 57.7119325 218 222 230
84.5847809 15.5339265 57.638128 218 222 230
84.5847809 15.5597311 57.5684316 218 222 230
84.5847809 15.597665 57.504322 218 222 230
84.5847809 15.6610315 57.4277834 218 222 230
84.5847809 15.7729417 57.3295742 218 222 230
84.5847809 15.9623414 57.210873 218 222 230
84.5847809 16.2712789 57.081176 218 222 230
84.5847809 16.6375361 56.9914411 218 222 230
84.5847809 16.8337841 56.966889 218 222 230
84.5847809 0.753470079 0.753470079 255 79 163
84.5658898 0.585807213 0.753470079 255 79 163
84.5101639 0.426551664 0.753470079 255 79 163
84.4203974 0.283689169 0.753470079 255 79 163
84.3010917 0.16438345 0.753470079 255 79 163
84.1582292 0.0746169949 0.753470079 255 79 163
83.9989736 0.018891068 0.753470079 255 79 163
83.8313108 -1.11022302e-16 0.753470079 255 79 163
84.5847809 0.753470079 83.3522107 255 79 163
83.8313108 -1.11022302e-16 83.3522107 255 79 163
83.9989736 0.018891068 83.3522107 255 79 163
84.1582292 0.0746169949 83.3522107 255 79 163
84.3010917 0.16438345 83.3522107 255 79 163
84.4203974 0.283689169 83.3522107 255 79 163
84.5101639 0.426551664 83.3522107 255 79 163
84.5658898 0.585807213 83.3522107 255 79 163
0.753470079 -1.11022302e-16 83.3522107 218 222 230
83.8313108 -1.11022302e-16 83.3522107 218 222 230
83.8313108 -1.11022302e-16 0.753470079 218 222 230
0.753470079 -1.11022302e-16 0.753470079 218 222 230
71.0663309 0 31.0507865 218 222 230
78.8787252 0 39.6354717 218 222 230
71.3975116 -8.32667268e-17 29.0537737 218 222 230
71.31876 -8.17264017e-17 29.0756145 218 222 230
71.2467785 -7.90379812e-17 29.1143709 218 222 230
71.1830824 -7.66067122e-17 29.1658288 218 222 230
71.1108406 -7.32805327e-17 29.2474701 218 222 230
71.0247211 -6.79256937e-17 29.3867403 218 222 230
70.9331417 -5.91955252e-17 29.6144437 218 222 230
70.869835 -4.86115267e-17 29.8833642 218 222 230
70.8393018 -3.37536458e-17 30.25035 218 222 230
70.8827899 -1.68381683e-17 30.6618873 218 222 230
70.9465258 -7.98972082e-18 30.8589457 218 222 230
70.9986371 -2.89234427e-18 30.9598407 218 222 230
80.3389502 0 27.696976 218 222 230
82.0318517 0 29.5322602 218 222 230
82.0718456 0 29.1675427 218 222 230
82.0225146 0 28.8039703 218 222 230
81.886783 0 28.4630959 218 222 230
81.6726971 0 28.1651268 218 222 230
81.392948 0 27.9277266 218 222 230
81.0641194 0 27.7649686 218 222 230
80.7057044 0 27.6865012 218 222 230
79.4936814 -1.11022302e-16 40.3112192 218 222 230
0 0.753470079 0.753470079 255 79 163
0.018891068 0.585807213 0.753470079 255 79 163
0.0746169949 0.426551664 0.753470079 255 79 163
0.16438345 0.283689169 0.753470079 255 79 163
0.283689169 0.16438345 0.753470079 255 79 163
0.426551664 0.0746169949 0.753470079 255 79 163
0.585807213 0.018891068 0.753470079 255 79 163
0.753470079 -1.11022302e-16 0.753470079 255 79 163
0 0.753470079 0.753470079 255 79 163
0.018891068 0.753470079 0.585807213 255 79 163
0.0746169949 0.753470079 0.426551664 255 79 163
0.16438345 0.753470079 0.283689169 255 79 163
0.283689169 0.753470079 0.16438345 255 79 163
0.426551664 0.753470079 0.0746169949 255 79 163
0.585807213 0.753470079 0.018891068 255 79 163
0.753470079 0.753470079 -1.11022302e-16 255 79 163
0.753470079 0.018891068 0.585807213 255 79 163
0.753470079 0.0746169949 0.426551664 255 79 163
0.753470079 0.16438345 0.283689169 255 79 163
0.753470079 0.283689169 0.16438345 255 79 163
0.753470079 0.426551664 0.0746169949 255 79 163
0.753470079 0.585807213 0.018891068 255 79 163
0.0368774505 0.523501605 0.717046651 255 79 163
0.0368774505 0.546012522 0.647765174 255 79 163
0.0368774505 0.588830829 0.588830829 255 79 163
0.14389998 0.3322675 0.616613065 255 79 163
0.0368774505 0.647765174 0.546012522 255 79 163
0.14389998 0.395173765 0.493152569 255 79 163
0.310591478 0.1514048 0.658112306 255 79 163
0.0368774505 0.717046651 0.523501605 255 79 163
0.14389998 0.493152569 0.395173765 255 79 163
0.310591478 0.210339144 0.476731045 255 79 163
0.14389998 0.616613065 0.3322675 255 79 163
0.310591478 0.322438928 0.322438928 255 79 163
0.52063502 0.0719499901 0.532030778 255 79 163
0.310591478 0.476731045 0.210339144 255 79 163
0.52063502 0.173734464 0.3322675 255 79 163
0.310591478 0.658112306 0.1514048 255 79 163
0.52063502 0.3322675 0.173734464 255 79 163
0.52063502 0.532030778 0.0719499901 255 79 163
0 48.1749123 0.753470079 255 79 163
84.5847809 48.1749123 0.753470079 255 79 163
83.8313108 47.4214422 -1.11022302e-16 255 79 163
84.0263232 47.6164547 0.0256738703 255 79 163
84.2080458 47.7981773 0.10094585 255 79 163
84.3640946 47.9542261 0.220686277 255 79 163
84.4737496 48.0638811 0.359783044 255 79 163
84.5367654 48.1268969 0.488798812 255 79 163
84.5716227 48.1617541 0.613272187 255 79 163
84.5814841 48.1716156 0.683063072 255 79 163
0.753470079 47.4214422 -1.11022302e-16 255 79 163
0.011087798 48.1638245 0.624684564 255 79 163
0.0440248637 48.1308875 0.499689373 255 79 163
0.0978418169 48.0770705 0.382163276 255 79 163
0.170954755 48.0039576 0.275565216 255 79 163
0.261211871 47.9137005 0.183032513 255 79 163
0.36595678 47.8089555 0.107288523 255 79 163
0.522774733 47.6521376 0.0361857437 255 79 163
0.636712048 47.5382003 0.00910140532 255 79 163
84.5847809 17.0313911 56.9584624 218 222 230
84.5847809 48.1749123 56.9584624 218 222 230
17.0194808 48.1749123 56.9584624 218 222 230
17.0194808 17.0313911 56.9584624 218 222 230
80.4519897 48.1749123 28.4419185 218 222 230
71.5105512 48.1749123 29.7987162 218 222 230
80.4519897 0.753470079 28.4419185 218 222 230
71.5105512 0.753470079 29.7987162 218 222 230
80.4519897 48.1749123 28.4419185 255 79 163
80.4519897 48.1749123 28.4419185 255 79 163
82.0318517 48.1749123 29.5322602 255 79 163
82.0366992 48.1749123 29.4861765 255 79 163
82.0320471 48.1749123 29.4401713 255 79 163
82.0156524 48.1749123 29.3805632 255 79 163
81.9772557 48.1749123 29.296158 255 79 163
81.9016135 48.1749123 29.1794417 255 79 163
81.7375998 48.1749123 28.9940816 255 79 163
81.5295767 48.1749123 28.815462 255 79 163
81.2335718 48.1749123 28.624861 255 79 163
80.9096129 48.1749123 28.4875707 255 79 163
80.6831527 48.1749123 28.4393184 255 79 163
80.5647263 48.1749123 28.4330577 255 79 163
81.8606402 48.1540939 29.4919443 255 79 163
81.6988899 48.092789 29.4538562 255 79 163
81.5555392 47.9943854 29.4201008 255 79 163
81.4385095 47.8643208 29.3925433 255 79 163
81.354268 47.7097828 29.3727065 255 79 163
81.3125328 47.5684369 29.3628789 255 79 163
81.2984405 47.4214422 29.3595606 255 79 163
81.3181052 47.5231607 29.1624931 255 79 163
81.3042095 47.5859499 29.0408138 255 79 163
81.2707842 47.6487391 28.9229918 255 79 163
81.205208 47.7250279 28.7895093 255 79 163
81.1323783 47.7878171 28.6910462 255 79 163
81.0445597 47.8506062 28.605683 255 79 163
80.9466692 47.9118546 28.5371932 255 79 163
80.8391837 47.973103 28.4850372 255 79 163
80.7248055 48.0343514 28.4505263 255 79 163
80.6064102 48.0955998 28.434528 255 79 163
80.5290099 48.1352561 28.4342522 255 79 163
81.7011304 48.1564838 29.0540316 255 79 163
81.5923992 48.1104727 29.0331801 255 79 163
81.4947016 48.0439429 29.0171025 255 79 163
81.4129805 47.9589374 29.0058825 255 79 163
81.3514428 47.8560212 28.998585 255 79 163
81.3121699 47.7372114 28.99462 255 79 163
81.3546697 48.1616799 28.7220724 255 79 163
81.290447 48.1300688 28.7056479 255 79 163
81.2317068 48.0858923 28.6936544 255 79 163
81.1824282 48.0302162 28.685703 255 79 163
81.1467868 47.9625455 28.6801946 255 79 163
81.1266496 47.8834794 28.6762432 255 79 163
80.8416802 48.1029605 28.4805772 255 79 163
80.8243092 48.0687426 28.4779799 255 79 163
80.8156626 48.0290961 28.4762559 255 79 163
81.2403068 48.1506332 28.6557964 255 79 163
81.0780456 48.1726647 28.5538669 255 79 163
81.0567439 48.166699 28.5480862 255 79 163
80.9281916 48.1686704 28.4968769 255 79 163
81.0360594 48.1578622 28.5425968 255 79 163
80.8664096 48.1311553 28.4843495 255 79 163
80.8960166 48.1532631 28.4897563 255 79 163
80.9195156 48.1733078 28.4923123 255 79 163
80.7993153 48.1703749 28.4597938 255 79 163
80.7872393 48.1654841 28.4577402 255 79 163
80.6280714 48.1503542 28.4347651 255 79 163
80.5816837 48.1568205 28.4326361 255 79 163
80.5388875 48.1627634 28.4331387 255 79 163
81.2388445 48.168412 28.6403737 255 79 163
81.142758 48.1723778 28.5845855 255 79 163
81.1308365 48.1694759 28.5812715 255 79 163
80.8600623 48.1745527 28.4738862 255 79 163
80.8117383 48.1736713 28.4620259 255 79 163
80.7385912 48.1726798 28.4473401 255 79 163
80.7437404 48.1738678 28.4480828 255 79 163
80.6526727 48.1669569 28.4363597 255 79 163
80.6264651 48.1678315 28.4343194 255 79 163
80.5740054 48.1696334 28.4325582 255 79 163
80.5498841 48.1705136 28.4328416 255 79 163
80.8291656 48.1748273 28.4656753 255 79 163
80.7117718 48.1743609 28.4429616 255 79 163
80.7140976 48.17466 28.4432733 255 79 163
80.7489571 48.1746367 28.4488672 255 79 163
80.6674586 48.1725101 28.4375961 255 79 163
80.6535526 48.172623 28.4362678 255 79 163
80.5978088 48.1730927 28.4329998 255 79 163
80.6987928 48.1748502 28.4411806 255 79 163
80.6998884 48.1748965 28.4413288 255 79 163
80.716434 48.1748473 28.4435981 255 79 163
80.6976986 48.1747747 28.4410362 255 79 163
80.6752362 48.1742434 28.4383761 255 79 163
80.6680796 48.1742577 28.4376289 255 79 163
80.6394072 48.1743159 28.4351561 255 79 163
80.5819196 48.1744436 28.4328128 255 79 163
80.6915443 48.1749084 28.4402905 255 79 163
80.661016 48.1747444 28.4369793 255 79 163
80.6027096 48.1747754 28.4333341 255 79 163
80.5735024 48.1747932 28.4328753 255 79 163
80.8156069 48.174911 28.4622921 255 79 163
80.7017185 48.1749113 28.4415736 255 79 163
80.6720181 48.1748679 28.4380838 255 79 163
80.6426932 48.1748716 28.4354987 255 79 163
80.5838801 48.1748799 28.4329917 255 79 163
80.7821037 48.1748264 28.455111 255 79 163
80.7680578 48.1749097 28.452257 255 79 163
80.756903 48.1748942 28.4502011 255 79 163
80.7497425 48.174912 28.4489052 255 79 163
80.7589119 48.1749112 28.4505453 255 79 163
80.6628662 48.1749014 28.4372058 255 79 163
80.6038896 48.1749033 28.4334644 255 79 163
80.7330407 48.174893 28.4461268 255 79 163
80.7257625 48.1749117 28.4449815 255 79 163
80.7202014 48.1749081 28.4441462 255 79 163
80.7165282 48.1749123 28.4436099 255 79 163
80.813893 48.1749123 28.4618792 255 79 163
80.7413797 48.1749061 28.4474851 255 79 163
80.7349748 48.1749106 28.4464292 255 79 163
80.7331569 48.1749122 28.4461355 255 79 163
80.7653932 48.1749123 28.4517407 255 79 163
80.7488425 48.1749123 28.4487464 255 79 163
80.7248477 48.1749122 28.4448418 255 79 163
80.7327017 48.1749123 28.4460626 255 79 163
80.7160677 48.1749123 28.4435437 255 79 163
71.5105512 48.1749123 29.7987162 255 79 163
71.5105512 48.1749123 29.7987162 255 79 163
70.5090712 48.1749123 31.5579143 255 79 163
70.4614074 48.1749123 31.4908207 255 79 163
70.4299107 48.1749123 31.4147609 255 79 163
70.4129855 48.1749123 31.3340755 255 79 163
70.4086812 48.1749123 31.2243579 255 79 163
70.4302364 48.1749123 31.0608716 255 79 163
70.5038577 48.1749123 30.8249729 255 79 163
70.6736804 48.1749123 30.4953669 255 79 163
70.9277345 48.1749123 30.1645961 255 79 163
71.2127466 48.1749123 29.9210659 255 79 163
71.3554947 48.1749123 29.8443082 255 79 163
71.4316201 48.1749123 29.8166218 255 79 163
70.6391608 48.1540939 31.4395277 255 79 163
70.7620618 48.092789 31.3276831 255 79 163
70.8709824 47.9943854 31.2285611 255 79 163
70.9599038 47.8643208 31.1476393 255 79 163
71.0239121 47.7097828 31.0893892 255 79 163
71.0556233 47.5684369 31.0605308 255 79 163
71.0663309 47.4214422 31.0507865 255 79 163
70.9533282 47.5135728 30.8878464 255 79 163
70.8867466 47.6057034 30.7010685 255 79 163
70.8704732 47.6684925 30.5666979 255 79 163
70.8806487 47.7375904 30.4181439 255 79 163
70.9150921 47.8003796 30.2872472 255 79 163
70.9662609 47.857436 30.1753724 255 79 163
71.0349531 47.9144925 30.0733153 255 79 163
71.119337 47.9715489 29.9837967 255 79 163
71.2171634 48.0286053 29.909203 255 79 163
71.3258244 48.0856618 29.8515225 255 79 163
71.4164979 48.130287 29.8192072 255 79 163
70.5353735 48.1564838 30.9426952 255 79 163
70.6258288 48.1104727 30.8710817 255 79 163
70.7079802 48.0439429 30.8091317 255 79 163
70.7776595 47.9589374 30.7593412 255 79 163
70.8312848 47.8560212 30.7228931 255 79 163
70.8668625 47.7372114 30.7003046 255 79 163
70.8597914 48.0302162 30.335595 255 79 163
70.8896001 47.9625455 30.31242 255 79 163
70.906406 47.8834794 30.2975619 255 79 163
71.1348678 48.0687426 29.9726045 255 79 163
71.1203566 48.1029605 29.9843836 255 79 163
71.1423282 48.0290961 29.9652978 255 79 163
70.6443272 48.159685 30.6031335 255 79 163
70.7213368 48.1616799 30.4543279 255 79 163
70.6754319 48.1434908 30.5753382 255 79 163
70.8190544 48.0858923 30.3672543 255 79 163
70.7716765 48.1300688 30.4072629 255 79 163
70.851311 48.1530095 30.2667993 255 79 163
71.1000467 48.1311553 30.0005089 255 79 163
71.0045194 48.1678618 30.0873707 255 79 163
71.050689 48.1686704 30.0439555 255 79 163
70.9900738 48.172989 30.1015612 255 79 163
71.0186255 48.1602321 30.0737162 255 79 163
71.0761677 48.1532631 30.0206258 255 79 163
71.1479176 48.1646915 29.9631118 255 79 163
71.1372501 48.1700043 29.9720891 255 79 163
71.2082179 48.1664422 29.9210654 255 79 163
71.3455978 48.1533726 29.8445759 255 79 163
71.3954364 48.1600654 29.8258508 255 79 163
71.4263373 48.1641179 29.8163361 255 79 163
70.7540184 48.1716393 30.3874668 255 79 163
70.8314342 48.1643049 30.2867905 255 79 163
70.8846258 48.1694707 30.2169715 255 79 163
70.8755471 48.1723753 30.2262287 255 79 163
70.9670178 48.1728734 30.1248169 255 79 163
70.9592045 48.1743776 30.1324448 255 79 163
70.9746317 48.1705283 30.1172497 255 79 163
71.0252413 48.1744607 30.0678593 255 79 163
71.1680969 48.1746026 29.9508624 255 79 163
71.1263318 48.1735733 29.9814596 255 79 163
71.3502424 48.1685942 29.8444147 255 79 163
71.276276 48.173031 29.8816697 255 79 163
71.3778964 48.1695377 29.8333295 255 79 163
71.3948456 48.17013 29.8271619 255 79 163
70.7724222 48.1740991 30.3559449 255 79 163
70.9006875 48.1742962 30.1955715 255 79 163
70.9050983 48.1735602 30.1912235 255 79 163
70.9476638 48.1743621 30.1444441 255 79 163
70.9435592 48.1747713 30.1483689 255 79 163
70.9516906 48.1737041 30.1405216 255 79 163
70.9761087 48.1747823 30.1150458 255 79 163
71.1149631 48.1748217 29.9910145 255 79 163
71.2448118 48.1743579 29.9003498 255 79 163
71.314332 48.1744644 29.8625364 255 79 163
71.367 48.1731788 29.8383717 255 79 163
71.375897 48.1732597 29.8348602 255 79 163
71.4118967 48.1736101 29.82201 255 79 163
70.9161636 48.1745757 30.1780309 255 79 163
70.937782 48.1747693 30.154459 255 79 163
70.9398687 48.1745945 30.1524712 255 79 163
71.0185726 48.1748829 30.0740082 255 79 163
71.0437454 48.1748031 30.0510259 255 79 163
71.228855 48.1747623 29.9104547 255 79 163
71.365792 48.1744245 29.8393569 255 79 163
71.3841261 48.1744688 29.8321761 255 79 163
71.4213302 48.1745696 29.8193468 255 79 163
70.972498 48.174904 30.1184441 255 79 163
71.0660323 48.1748541 30.0314608 255 79 163
71.1120617 48.1749065 29.9934464 255 79 163
71.3698985 48.1747853 29.8379914 255 79 163
71.4073535 48.1748101 29.8241183 255 79 163
71.0168768 48.1749105 30.0755522 255 79 163
71.0286408 48.1749083 30.0646906 255 79 163
71.0404922 48.1749054 30.0539495 255 79 163
71.0758124 48.174906 30.0231539 255 79 163
71.0644629 48.1748976 30.0328421 255 79 163
71.0636746 48.1749086 30.0335339 255 79 163
71.111332 48.174912 29.9940569 255 79 163
71.0164509 48.1749122 30.0759386 255 79 163
71.0400824 48.1749096 30.0543158 255 79 163
71.0460454 48.1749085 30.0489864 255 79 163
71.0520307 48.1749071 30.0436883 255 79 163
71.0632795 48.1749114 30.0338802 255 79 163
71.028223 48.1749113 30.065067 255 79 163
71.039672 48.1749119 30.0546822 255 79 163
71.0516282 48.1749106 30.0440446 255 79 163
71.0546313 48.1749102 30.0414049 255 79 163
71.0630817 48.1749121 30.0340533 255 79 163
71.1111493 48.1749123 29.9942097 255 79 163
71.0163443 48.1749123 30.0760352 255 79 163
71.0395693 48.1749122 30.0547738 255 79 163
71.051326 48.174912 30.0443119 255 79 163
71.0629827 48.1749123 30.0341399 255 79 163
71.0394665 48.1749123 30.0548655 255 79 163
71.0512252 48.1749122 30.044401 255 79 163
71.0629332 48.1749123 30.0341833 255 79 163
71.1111036 48.1749123 29.9942479 255 79 163
79.2842614 48.1749123 41.2005724 255 79 163
82.0318517 48.1749123 29.5322602 255 79 163
81.8606402 48.1540939 29.4919443 255 79 163
81.6988899 48.092789 29.4538562 255 79 163
81.5555392 47.9943854 29.4201008 255 79 163
81.4385095 47.8643208 29.3925433 255 79 163
81.354268 47.7097828 29.3727065 255 79 163
81.3125328 47.5684369 29.3628789 255 79 163
81.2984405 47.4214422 29.3595606 255 79 163
78.8787252 47.4214422 39.6354717 255 79 163
79.1001518 48.092789 40.4900316 255 79 163
78.9892057 47.9383485 40.0618533 255 79 163
78.9280543 47.7815997 39.8258494 255 79 163
78.9055619 47.6909829 39.7390436 255 79 163
78.8885804 47.5865411 39.6735062 255 79 163
78.8811965 47.5044978 39.6450094 255 79 163
79.2842614 48.1749123 41.2005724 255 79 163
79.1001518 48.092789 40.4900316 255 79 163
78.9892057 47.9383485 40.0618533 255 79 163
78.9280543 47.7815997 39.8258494 255 79 163
78.9055619 47.6909829 39.7390436 255 79 163
78.8885804 47.5865411 39.6735062 255 79 163
78.8811965 47.5044978 39.6450094 255 79 163
78.8787252 47.4214422 39.6354717 255 79 163
71.0663309 47.4214422 31.0507865 255 79 163
70.5090712 48.1749123 31.5579143 255 79 163
70.6391608 48.1540939 31.4395277 255 79 163
70.7620618 48.092789 31.3276831 255 79 163
70.8709824 47.9943854 31.2285611 255 79 163
70.9599038 47.8643208 31.1476393 255 79 163
71.0239121 47.7097828 31.0893892 255 79 163
71.0556233 47.5684369 31.0605308 255 79 163
0.753470079 0.753470079 -1.11022302e-16 218 222 230
83.8313108 0.753470079 -1.11022302e-16 218 222 230
83.8313108 47.4214422 -1.11022302e-16 218 222 230
0.753470079 47.4214422 -1.11022302e-16 218 222 230
17.0194808 17.0313911 83.3522107 255 79 163
17.0194808 17.0313911 56.9584624 255 79 163
17.7729509 16.277921 57.7119325 255 79 163
17.5779385 16.3035949 57.5169201 255 79 163
17.3962158 16.3788669 57.3351974 255 79 163
17.2401671 16.4986073 57.1791487 255 79 163
17.130512 16.6377041 57.0694936 255 79 163
17.0674962 16.7667198 57.0064778 255 79 163
17.032639 16.8911932 56.9716206 255 79 163
17.0227776 16.9609841 56.9617591 255 79 163
17.7729509 16.277921 82.5987407 255 79 163
17.5779385 16.3035949 82.724319 255 79 163
17.3962158 16.3788669 82.8498973 255 79 163
17.2401671 16.4986073 82.9754757 255 79 163
17.1204266 16.6546561 83.101054 255 79 163
17.0451546 16.8363787 83.2266324 255 79 163
84.5847809 15.524451 83.3522107 255 79 163
84.5847809 15.524451 57.7119325 255 79 163
84.5639624 15.700345 57.7119325 255 79 163
84.5026576 15.8665192 57.7119325 255 79 163
84.4042539 16.0137906 57.7119325 255 79 163
84.2741894 16.134021 57.7119325 255 79 163
84.1196513 16.2205666 57.7119325 255 79 163
83.9783055 16.2634433 57.7119325 255 79 163
83.8313108 16.277921 57.7119325 255 79 163
83.8313108 16.277921 82.5987407 255 79 163
84.5736931 15.6532365 83.3411229 255 79 163
84.540756 15.7782317 83.3081859 255 79 163
84.486939 15.8957578 83.2543689 255 79 163
84.4138261 16.0023558 83.181256 255 79 163
84.323569 16.0948885 83.0909989 255 79 163
84.2188241 16.1706325 82.986254 255 79 163
84.0620061 16.2417353 82.829436 255 79 163
83.9480688 16.2688196 82.7154987 255 79 163
83.8313108 16.277921 82.5987407 218 222 230
83.8313108 16.277921 57.7119325 218 222 230
17.7729509 16.277921 82.5987407 218 222 230
17.7729509 16.277921 57.7119325 218 222 230
83.8313108 0.753470079 -1.11022302e-16 255 79 163
83.8313108 47.4214422 -1.11022302e-16 255 79 163
84.0263232 47.6164547 0.0256738703 255 79 163
84.2080458 47.7981773 0.10094585 255 79 163
84.3640946 47.9542261 0.220686277 255 79 163
84.4737496 48.0638811 0.359783044 255 79 163
84.5367654 48.1268969 0.488798812 255 79 163
84.5716227 48.1617541 0.613272187 255 79 163
84.5814841 48.1716156 0.683063072 255 79 163
84.5847809 48.1749123 0.753470079 255 79 163
84.5847809 0.753470079 0.753470079 255 79 163
84.5658898 0.753470079 0.585807213 255 79 163
84.5101639 0.753470079 0.426551664 255 79 163
84.4203974 0.753470079 0.283689169 255 79 163
84.3010917 0.753470079 0.16438345 255 79 163
84.1582292 0.753470079 0.0746169949 255 79 163
83.9989736 0.753470079 0.018891068 255 79 163
84.5847809 17.0313911 56.9584624 255 79 163
84.5847809 17.0313911 56.9584624 255 79 163
84.5847809 15.524451 57.7119325 255 79 163
84.5847809 15.5339265 57.638128 255 79 163
84.5847809 15.5597311 57.5684316 255 79 163
84.5847809 15.597665 57.504322 255 79 163
84.5847809 15.6610315 57.4277834 255 79 163
84.5847809 15.7729417 57.3295742 255 79 163
84.5847809 15.9623414 57.210873 255 79 163
84.5847809 16.2712789 57.081176 255 79 163
84.5847809 16.6375361 56.9914411 255 79 163
84.5847809 16.8337841 56.966889 255 79 163
84.5639624 15.700345 57.7119325 255 79 163
84.5026576 15.8665192 57.7119325 255 79 163
84.4042539 16.0137906 57.7119325 255 79 163
84.2741894 16.134021 57.7119325 255 79 163
84.1196513 16.2205666 57.7119325 255 79 163
83.9783055 16.2634433 57.7119325 255 79 163
83.8313108 16.277921 57.7119325 255 79 163
83.9568891 16.3035949 57.5169201 255 79 163
84.0824675 16.3788669 57.3351974 255 79 163
84.2080458 16.4986073 57.1791487 255 79 163
84.3336242 16.6546561 57.0594082 255 79 163
84.4592025 16.8363787 56.9841362 255 79 163
84.3979474 16.0649059 57.5468253 255 79 163
84.4964424 15.9997771 57.4251351 255 79 163
84.3975327 16.1071619 57.4744766 255 79 163
84.4060479 16.1335275 57.4254343 255 79 163
84.5075814 16.1207908 57.2901876 255 79 163
84.4238195 16.1973136 57.3345299 255 79 163
84.3035408 16.2513281 57.3951181 255 79 163
84.4374661 16.2523911 57.2732989 255 79 163
84.4562607 16.334858 57.1992157 255 79 163
84.4776664 16.4365223 57.1275801 255 79 163
84.4970934 16.5347571 57.0735021 255 79 163
84.5215632 16.6654168 57.0197503 255 79 163
84.5409288 16.7737447 56.9886275 255 79 163
84.5535113 16.8463205 56.9740083 255 79 163
84.5530318 16.3584141 57.1019407 255 79 163
84.5561356 16.4175532 57.076715 255 79 163
84.5600841 16.4933329 57.0484725 255 79 163
84.5679071 16.6492129 57.00338 255 79 163
84.5708677 16.7126366 56.989671 255 79 163
84.5727276 16.754697 56.9819884 255 79 163
84.5762136 16.8394716 56.969835 255 79 163
84.580291 16.642315 56.9970584 255 79 163
84.5807148 16.6766424 56.99057 255 79 163
84.5809832 16.6992923 56.9866201 255 79 163
84.5819641 16.790373 56.9733651 255 79 163
84.5838465 16.7163763 56.9816724 255 79 163
84.584089 16.8110566 56.9698956 255 79 163
84.5847809 0.753470079 0.753470079 255 79 163
84.5658898 0.753470079 0.585807213 255 79 163
84.5101639 0.753470079 0.426551664 255 79 163
84.4203974 0.753470079 0.283689169 255 79 163
84.3010917 0.753470079 0.16438345 255 79 163
84.1582292 0.753470079 0.0746169949 255 79 163
83.9989736 0.753470079 0.018891068 255 79 163
83.8313108 0.753470079 -1.11022302e-16 255 79 163
84.5847809 0.753470079 0.753470079 255 79 163
84.5658898 0.585807213 0.753470079 255 79 163
84.5101639 0.426551664 0.753470079 255 79 163
84.4203974 0.283689169 0.753470079 255 79 163
84.3010917 0.16438345 0.753470079 255 79 163
84.1582292 0.0746169949 0.753470079 255 79 163
83.9989736 0.018891068 0.753470079 255 79 163
83.8313108 -1.11022302e-16 0.753470079 255 79 163
83.8313108 0.585807213 0.018891068 255 79 163
83.8313108 0.426551664 0.0746169949 255 79 163
83.8313108 0.283689169 0.16438345 255 79 163
83.8313108 0.16438345 0.283689169 255 79 163
83.8313108 0.0746169949 0.426551664 255 79 163
83.8313108 0.018891068 0.585807213 255 79 163
84.5479034 0.717046651 0.523501605 255 79 163
84.5479034 0.647765174 0.546012522 255 79 163
84.5479034 0.588830829 0.588830829 255 79 163
84.4408809 0.616613065 0.3322675 255 79 163
84.5479034 0.546012522 0.647765174 255 79 163
84.4408809 0.493152569 0.395173765 255 79 163
84.2741894 0.658112306 0.1514048 255 79 163
84.5479034 0.523501605 0.717046651 255 79 163
84.4408809 0.395173765 0.493152569 255 79 163
84.2741894 0.476731045 0.210339144 255 79 163
84.4408809 0.3322675 0.616613065 255 79 163
84.2741894 0.322438928 0.322438928 255 79 163
84.0641458 0.532030778 0.0719499901 255 79 163
84.2741894 0.210339144 0.476731045 255 79 163
84.0641458 0.3322675 0.173734464 255 79 163
84.2741894 0.1514048 0.658112306 255 79 163
84.0641458 0.173734464 0.3322675 255 79 163
84.0641458 0.0719499901 0.532030778 255 79 163
0.753470079 -1.11022302e-16 0.753470079 255 79 163
83.8313108 -1.11022302e-16 0.753470079 255 79 163
0.753470079 0.018891068 0.585807213 255 79 163
0.753470079 0.0746169949 0.426551664 255 79 163
0.753470079 0.16438345 0.283689169 255 79 163
0.753470079 0.283689169 0.16438345 255 79 163
0.753470079 0.426551664 0.0746169949 255 79 163
0.753470079 0.585807213 0.018891068 255 79 163
0.753470079 0.753470079 -1.11022302e-16 255 79 163
83.8313108 0.753470079 -1.11022302e-16 255 79 163
83.8313108 0.585807213 0.018891068 255 79 163
83.8313108 0.426551664 0.0746169949 255 79 163
83.8313108 0.283689169 0.16438345 255 79 163
83.8313108 0.16438345 0.283689169 255 79 163
83.8313108 0.0746169949 0.426551664 255 79 163
83.8313108 0.018891068 0.585807213 255 79 163
78.8787252 47.4214422 39.6354717 218 222 230
78.8787252 0.753470079 39.6354717 218 222 230
71.0663309 47.4214422 31.0507865 218 222 230
71.0663309 0 31.0507865 218 222 230
78.8787252 0 39.6354717 218 222 230
79.4936814 -1.11022302e-16 40.3112192 218 222 230
79.334519 0.0256738703 40.1363229 218 222 230
79.1862033 0.10094585 39.9733455 218 222 230
79.0588417 0.220686277 39.8333936 218 222 230
78.969345 0.359783044 39.7350498 218 222 230
78.9134627 0.503816894 39.6736432 218 222 230
78.8874718 0.626842448 39.645083 218 222 230
71.0663309 0 31.0507865 255 79 163
71.0663309 0 31.0507865 255 79 163
71.3975116 -8.32667268e-17 29.0537737 255 79 163
71.31876 -8.17264017e-17 29.0756145 255 79 163
71.2467785 -7.90379812e-17 29.1143709 255 79 163
71.1830824 -7.66067122e-17 29.1658288 255 79 163
71.1108406 -7.32805327e-17 29.2474701 255 79 163
71.0247211 -6.79256937e-17 29.3867403 255 79 163
70.9331417 -5.91955252e-17 29.6144437 255 79 163
70.869835 -4.86115267e-17 29.8833642 255 79 163
70.8393018 -3.37536458e-17 30.25035 255 79 163
70.8827899 -1.68381683e-17 30.6618873 255 79 163
70.9465258 -7.98972082e-18 30.8589457 255 79 163
70.9986371 -2.89234427e-18 30.9598407 255 79 163
71.4239002 0.0208184676 29.2276771 255 79 163
71.4488305 0.0821232918 29.3919705 255 79 163
71.470925 0.180526958 29.5375751 255 79 163
71.4889626 0.310591479 29.6564448 255 79 163
71.5019466 0.465129541 29.7420108 255 79 163
71.5083792 0.606475396 29.7844023 255 79 163
71.5105512 0.753470079 29.7987162 255 79 163
71.3201238 0.661339369 29.8540029 255 79 163
71.1507141 0.56920866 29.9570541 255 79 163
71.014055 0.477077951 30.1007327 255 79 163
70.9196115 0.384947242 30.2750876 255 79 163
70.8829199 0.322158069 30.4053695 255 79 163
70.870188 0.253060037 30.5537313 255 79 163
70.8841459 0.190270864 30.6883598 255 79 163
70.9175488 0.133214531 30.8067592 255 79 163
70.9697734 0.076158199 30.918145 255 79 163
71.0144312 0.0380790995 30.9871017 255 79 163
71.188045 0.0194290233 29.3392895 255 79 163
71.217819 0.0710588429 29.4789291 255 79 163
71.2454661 0.149063418 29.6028366 255 79 163
71.0301939 0.0184285363 29.5480044 255 79 163
71.2698878 0.250411269 29.7056026 255 79 163
71.055289 0.0644396203 29.6606139 255 79 163
71.2901904 0.372536722 29.7836841 255 79 163
71.0800273 0.13096939 29.7604872 255 79 163
71.3057211 0.511455354 29.8346095 255 79 163
71.1027458 0.215974905 29.8430593 255 79 163
71.1214091 0.318891094 29.9051547 255 79 163
71.1347952 0.437700925 29.945115 255 79 163
70.8994488 0.144696163 30.2238176 255 79 163
70.9079862 0.212366811 30.2605973 255 79 163
70.91167 0.291432948 30.2827249 255 79 163
70.880414 0.0719916349 30.6608206 255 79 163
70.884268 0.106297031 30.6791783 255 79 163
70.8854456 0.145900308 30.689482 255 79 163
70.9013903 0.0152551913 29.8778565 255 79 163
70.9080607 0.0314805265 29.9191443 255 79 163
70.8877738 0.0890199918 30.1735631 255 79 163
70.876205 0.0448435019 30.1126409 255 79 163
70.8736831 0.0137444365 30.0036856 255 79 163
70.866784 0.0132324044 30.0443735 255 79 163
70.8544031 0.0237981846 30.2046382 255 79 163
70.8511449 0.0115400944 30.1742858 255 79 163
70.8513105 0.0165291033 30.4599606 255 79 163
70.8747863 0.0436564635 30.635363 255 79 163
70.868911 0.0214798734 30.6046095 255 79 163
70.8638378 0.00614284543 30.570483 255 79 163
70.8489845 0.00795139734 30.4382152 255 79 163
70.8745754 0.00533298727 30.6304015 255 79 163
70.8721181 0.00143860649 30.6145745 255 79 163
70.8999722 0.0086688804 30.7366763 255 79 163
70.8973079 0.00408982494 30.7246358 255 79 163
70.9623732 0.0226837907 30.9022843 255 79 163
70.9845379 0.0169905427 30.9418961 255 79 163
71.0090938 0.0113563018 30.9798916 255 79 163
70.859073 0.00356620812 30.0329932 255 79 163
70.844116 0.00293507451 30.2104937 255 79 163
70.8455373 0.00628590572 30.2251902 255 79 163
70.8433917 0.00242946778 30.3470275 255 79 163
70.8467368 0.00217275698 30.4157617 255 79 163
70.8420482 0.000638307616 30.3343768 255 79 163
70.8445751 0.00521414343 30.3594701 255 79 163
70.8593704 0.000440592554 30.5374742 255 79 163
70.889934 0.00115589094 30.6941737 255 79 163
70.877139 0.000345482151 30.6378338 255 79 163
70.9201145 0.00183727733 30.7950233 255 79 163
70.9549102 0.00660712242 30.8826089 255 79 163
70.9662338 0.0058691525 30.9054369 255 79 163
70.990917 0.00443840457 30.9497508 255 79 163
71.0043788 0.00371166362 30.9712294 255 79 163
70.842316 0.00162170201 30.237194 255 79 163
70.8412745 0.000672436318 30.2994008 255 79 163
70.8420017 0.00147492207 30.306043 255 79 163
70.8445347 0.000146846038 30.3954357 255 79 163
70.8696174 9.64686252e-05 30.5994075 255 79 163
70.886351 0.000308378214 30.6782716 255 79 163
70.8798815 8.44683792e-05 30.6497628 255 79 163
70.8993883 0.000265064739 30.7275374 255 79 163
70.9188032 0.000844087386 30.7901684 255 79 163
70.9317743 0.000190699004 30.8242021 255 79 163
70.932394 0.000421163258 30.8263332 255 79 163
70.9506218 0.00184846416 30.8711734 255 79 163
70.9563024 0.0017555337 30.8834102 255 79 163
70.9681837 0.00157750626 30.9074942 255 79 163
70.8407132 0.000392912281 30.2784923 255 79 163
70.854068 0.000121331054 30.4978052 255 79 163
70.875819 2.23720128e-05 30.6305895 255 79 163
70.8845711 7.97177566e-05 30.670142 255 79 163
70.9513411 0.000482367732 30.8714985 255 79 163
70.9571425 0.000459815958 30.8840304 255 79 163
70.9824019 0.000374680285 30.9331418 255 79 163
70.8438868 9.36728757e-06 30.3902531 255 79 163
70.8661423 2.54501319e-05 30.5798951 255 79 163
70.8689556 6.14155179e-06 30.5955352 255 79 163
70.9517719 0.00012372756 30.8716978 255 79 163
70.9637383 0.000112846463 30.8970256 255 79 163
70.9902412 9.19523405e-05 30.9463615 255 79 163
70.8482726 5.28825608e-05 30.4442652 255 79 163
70.8534247 7.73306625e-06 30.493273 255 79 163
70.8631799 1.49496492e-05 30.5622439 255 79 163
70.8603976 6.93002121e-06 30.5445255 255 79 163
70.8581213 2.86001488e-05 30.528908 255 79 163
70.8462419 1.38629712e-07 30.4231943 255 79 163
70.8603142 2.71355741e-06 30.5439974 255 79 163
70.8577911 1.80490713e-06 30.5267433 255 79 163
70.8658086 1.60565434e-06 30.5778959 255 79 163
70.8687869 3.85642017e-07 30.5945615 255 79 163
70.853258 4.85713433e-07 30.4921337 255 79 163
70.8553982 2.63805088e-07 30.5091765 255 79 163
70.8601883 2.72339109e-08 30.5432041 255 79 163
70.8643464 1.2550408e-06 30.5693038 255 79 163
70.8630135 3.75521837e-06 30.5612162 255 79 163
70.8657665 6.27949846e-07 30.5776454 255 79 163
70.8567399 8.76343481e-06 30.5190637 255 79 163
70.8573851 0.000120419376 30.5234307 255 79 163
70.8615367 3.26897714e-07 30.5519592 255 79 163
70.8642832 1.60367255e-07 30.5689226 255 79 163
70.8628875 2.35542605e-07 30.560444 255 79 163
70.8629296 9.41045876e-07 30.5607016 255 79 163
70.8643254 7.75255704e-07 30.5691768 255 79 163
70.8703247 5.90632606e-09 30.6027679 255 79 163
70.8465795 2.15089435e-09 30.4273172 255 79 163
70.8621855 8.09851232e-08 30.5560726 255 79 163
70.8649769 1.42976821e-08 30.5730333 255 79 163
80.3389502 0 27.696976 255 79 163
80.3641038 0.018891068 27.8627413 255 79 163
80.3879962 0.0746169949 28.0201945 255 79 163
80.4094292 0.16438345 28.1614401 255 79 163
80.427328 0.283689169 28.2793955 255 79 163
80.4407953 0.426551664 28.368146 255 79 163
80.4491556 0.585807213 28.4232412 255 79 163
80.4519897 0.753470079 28.4419185 255 79 163
71.5105512 0.753470079 29.7987162 255 79 163
71.3975116 -8.32667268e-17 29.0537737 255 79 163
71.4239002 0.0208184676 29.2276771 255 79 163
71.4488305 0.0821232918 29.3919705 255 79 163
71.470925 0.180526958 29.5375751 255 79 163
71.4889626 0.310591479 29.6564448 255 79 163
71.5019466 0.465129541 29.7420108 255 79 163
71.5083792 0.606475396 29.7844023 255 79 163
79.4936814 -1.11022302e-16 40.3112192 255 79 163
79.334519 0.0256738703 40.1363229 255 79 163
79.1862033 0.10094585 39.9733455 255 79 163
79.0588417 0.220686277 39.8333936 255 79 163
78.969345 0.359783044 39.7350498 255 79 163
78.9134627 0.503816894 39.6736432 255 79 163
78.8874718 0.626842448 39.645083 255 79 163
78.8787252 0.753470079 39.6354717 255 79 163
81.2984405 0.753470079 29.3595606 255 79 163
82.0318517 0 29.5322602 255 79 163
81.8686523 0.018891068 29.4938309 255 79 163
81.7136365 0.0746169949 29.4573286 255 79 163
81.5745773 0.16438345 29.4245837 255 79 163
81.4584477 0.283689169 29.3972382 255 79 163
81.371071 0.426551664 29.3766632 255 79 163
81.3168286 0.585807213 29.3638905 255 79 163
81.2984405 0.753470079 29.3595606 255 79 163
81.3184374 0.753470079 29.1772018 255 79 163
81.2937719 0.753470079 28.9954156 255 79 163
81.2259061 0.753470079 28.8249784 255 79 163
81.1188632 0.753470079 28.6759938 255 79 163
80.9789886 0.753470079 28.5572937 255 79 163
80.8145743 0.753470079 28.4759148 255 79 163
80.6353668 0.753470079 28.4366811 255 79 163
80.4519897 0.753470079 28.4419185 255 79 163
80.3389502 0 27.696976 255 79 163
80.3641038 0.018891068 27.8627413 255 79 163
80.3879962 0.0746169949 28.0201945 255 79 163
80.4094292 0.16438345 28.1614401 255 79 163
80.427328 0.283689169 28.2793955 255 79 163
80.4407953 0.426551664 28.368146 255 79 163
80.4491556 0.585807213 28.4232412 255 79 163
82.0318517 0 29.5322602 255 79 163
82.0718456 0 29.1675427 255 79 163
82.0225146 0 28.8039703 255 79 163
81.886783 0 28.4630959 255 79 163
81.6726971 0 28.1651268 255 79 163
81.392948 0 27.9277266 255 79 163
81.0641194 0 27.7649686 255 79 163
80.7057044 0 27.6865012 255 79 163
81.8686523 0.018891068 29.4938309 255 79 163
81.7136365 0.0746169949 29.4573286 255 79 163
81.5745773 0.16438345 29.4245837 255 79 163
81.4584477 0.283689169 29.3972382 255 79 163
81.371071 0.426551664 29.3766632 255 79 163
81.3168286 0.585807213 29.3638905 255 79 163
80.6900528 0.018891068 27.853432 255 79 163
80.6751861 0.0746169949 28.0119921 255 79 163
81.0085904 0.018891068 27.923169 255 79 163
80.6618497 0.16438345 28.1542307 255 79 163
80.9558458 0.0746169949 28.0734366 255 79 163
80.6507123 0.283689169 28.2730154 255 79 163
81.3008333 0.018891068 28.0678185 255 79 163
80.9085306 0.16438345 28.2082363 255 79 163
80.6423324 0.426551664 28.3623899 255 79 163
81.2133377 0.0746169949 28.2008855 255 79 163
80.8690172 0.283689169 28.3208087 255 79 163
81.5494574 0.018891068 28.2788054 255 79 163
80.6371303 0.585807213 28.4178725 255 79 163
81.1348485 0.16438345 28.3202553 255 79 163
80.839287 0.426551664 28.405509 255 79 163
81.4323975 0.0746169949 28.3867837 255 79 163
81.0693015 0.283689169 28.419942 255 79 163
81.739724 0.018891068 28.5436224 255 79 163
80.8208309 0.585807213 28.4580899 255 79 163
81.3273873 0.16438345 28.4836472 255 79 163
81.0199835 0.426551664 28.494947 255 79 163
81.6000393 0.0746169949 28.6201109 255 79 163
81.2396923 0.283689169 28.5645387 255 79 163
81.8603541 0.018891068 28.8465709 255 79 163
80.9893674 0.585807213 28.5415092 255 79 163
81.474733 0.16438345 28.688726 255 79 163
81.17371 0.426551664 28.6254021 255 79 163
81.706325 0.0746169949 28.8870353 255 79 163
81.3700886 0.283689169 28.7460271 255 79 163
81.9041965 0.018891068 29.169692 255 79 163
81.1327489 0.585807213 28.6631853 255 79 163
81.568151 0.16438345 28.9233345 255 79 163
81.2913535 0.426551664 28.7891408 255 79 163
81.744954 0.0746169949 29.1717336 255 79 163
81.4527606 0.283689169 28.9536483 255 79 163
81.2424757 0.585807213 28.8159053 255 79 163
81.6021033 0.16438345 29.173565 255 79 163
81.3659401 0.426551664 28.9764566 255 79 163
81.4828074 0.283689169 29.1750945 255 79 163
81.312043 0.585807213 28.9906157 255 79 163
81.3930483 0.426551664 29.1762452 255 79 163
81.3373269 0.585807213 29.1769596 255 79 163
17.7729509 16.277921 57.7119325 255 79 163
17.5779385 16.3035949 57.5169201 255 79 163
17.3962158 16.3788669 57.3351974 255 79 163
17.2401671 16.4986073 57.1791487 255 79 163
17.130512 16.6377041 57.0694936 255 79 163
17.0674962 16.7667198 57.0064778 255 79 163
17.032639 16.8911932 56.9716206 255 79 163
17.0227776 16.9609841 56.9617591 255 79 163
17.0194808 17.0313911 56.9584624 255 79 163
84.5847809 17.0313911 56.9584624 255 79 163
83.8313108 16.277921 57.7119325 255 79 163
83.9568891 16.3035949 57.5169201 255 79 163
84.0824675 16.3788669 57.3351974 255 79 163
84.2080458 16.4986073 57.1791487 255 79 163
84.3336242 16.6546561 57.0594082 255 79 163
84.4592025 16.8363787 56.9841362 255 79 163
81.2984405 47.4214422 29.3595606 255 79 163
81.2984405 0.753470079 29.3595606 255 79 163
81.3184374 0.753470079 29.1772018 255 79 163
81.2937719 0.753470079 28.9954156 255 79 163
81.2259061 0.753470079 28.8249784 255 79 163
81.1188632 0.753470079 28.6759938 255 79 163
80.9789886 0.753470079 28.5572937 255 79 163
80.8145743 0.753470079 28.4759148 255 79 163
80.6353668 0.753470079 28.4366811 255 79 163
80.4519897 0.753470079 28.4419185 255 79 163
80.4519897 48.1749123 28.4419185 255 79 163
81.3181052 47.5231607 29.1624931 255 79 163
81.3042095 47.5859499 29.0408138 255 79 163
81.2707842 47.6487391 28.9229918 255 79 163
81.205208 47.7250279 28.7895093 255 79 163
81.1323783 47.7878171 28.6910462 255 79 163
81.0445597 47.8506062 28.605683 255 79 163
80.9466692 47.9118546 28.5371932 255 79 163
80.8391837 47.973103 28.4850372 255 79 163
80.7248055 48.0343514 28.4505263 255 79 163
80.6064102 48.0955998 28.434528 255 79 163
80.5290099 48.1352561 28.4342522 255 79 163
71.5105512 48.1749123 29.7987162 255 79 163
71.5105512 0.753470079 29.7987162 255 79 163
71.3201238 0.661339369 29.8540029 255 79 163
71.1507141 0.56920866 29.9570541 255 79 163
71.014055 0.477077951 30.1007327 255 79 163
70.9196115 0.384947242 30.2750876 255 79 163
70.8829199 0.322158069 30.4053695 255 79 163
70.870188 0.253060037 30.5537313 255 79 163
70.8841459 0.190270864 30.6883598 255 79 163
70.9175488 0.133214531 30.8067592 255 79 163
70.9697734 0.076158199 30.918145 255 79 163
71.0144312 0.0380790995 30.9871017 255 79 163
71.0663309 0 31.0507865 255 79 163
71.0663309 47.4214422 31.0507865 255 79 163
70.9533282 47.5135728 30.8878464 255 79 163
70.8867466 47.6057034 30.7010685 255 79 163
70.8704732 47.6684925 30.5666979 255 79 163
70.8806487 47.7375904 30.4181439 255 79 163
70.9150921 47.8003796 30.2872472 255 79 163
70.9662609 47.857436 30.1753724 255 79 163
71.0349531 47.9144925 30.0733153 255 79 163
71.119337 47.9715489 29.9837967 255 79 163
71.2171634 48.0286053 29.909203 255 79 163
71.3258244 48.0856618 29.8515225 255 79 163
71.4164979 48.130287 29.8192072 255 79 163
78.8787252 47.4214422 39.6354717 218 222 230
78.8787252 0.753470079 39.6354717 218 222 230
81.2984405 0.753470079 29.3595606 218 222 230
81.2984405 47.4214422 29.3595606 218 222 230
3 0 3 2
3 0 1 3
3 14 10 11
3 14 11 12
3 14 12 13
3 7 8 9
3 7 9 10
3 7 10 14
3 27 28 14
3 29 7 14
3 29 14 28
3 26 27 14
3 25 26 14
3 30 7 29
3 24 25 14
3 31 7 30
3 32 7 31
3 33 7 32
3 5 7 33
3 6 7 5
3 4 6 5
3 15 24 14
3 17 15 16
3 19 17 18
3 19 15 17
3 22 19 20
3 22 20 21
3 22 15 19
3 23 24 15
3 23 15 22
3 43 34 35
3 44 35 36
3 44 43 35
3 45 44 36
3 46 36 37
3 46 37 38
3 46 45 36
3 47 38 39
3 47 46 38
3 48 47 39
3 49 39 40
3 49 48 39
3 42 40 41
3 42 49 40
3 53 55 52
3 54 55 53
3 79 50 52
3 80 50 79
3 78 79 52
3 81 50 80
3 82 50 81
3 57 50 82
3 77 78 52
3 76 52 55
3 76 77 52
3 75 76 55
3 74 75 55
3 73 74 55
3 72 73 55
3 71 72 55
3 56 50 57
3 69 50 56
3 68 50 69
3 67 50 68
3 66 50 67
3 65 50 66
3 64 50 65
3 63 50 64
3 62 50 63
3 61 50 62
3 60 50 61
3 70 71 55
3 51 58 70
3 51 70 55
3 51 50 59
3 59 50 60
3 51 59 58
3 92 93 94
3 92 94 100
3 91 100 99
3 91 92 100
3 90 99 98
3 90 91 99
3 89 98 97
3 89 90 98
3 88 89 97
3 87 97 96
3 87 88 97
3 86 96 95
3 86 87 96
3 85 95 83
3 85 86 95
3 84 85 83
3 102 103 101
3 102 104 103
3 117 108 107
3 109 108 117
3 118 109 117
3 124 121 122
3 124 122 123
3 129 110 109
3 129 118 119
3 129 119 120
3 129 120 121
3 129 109 118
3 129 121 124
3 130 111 110
3 130 112 111
3 130 110 129
3 131 130 129
3 131 129 124
3 132 130 131
3 133 113 112
3 133 112 130
3 134 130 132
3 134 133 130
3 135 124 125
3 135 132 131
3 135 134 132
3 135 131 124
3 136 133 134
3 136 135 125
3 136 134 135
3 137 125 126
3 137 136 125
3 137 113 133
3 137 133 136
3 138 137 126
3 139 126 127
3 139 138 126
3 140 127 128
3 140 139 127
3 141 140 128
3 142 105 106
3 142 128 105
3 142 141 128
3 143 114 113
3 143 113 137
3 143 137 138
3 144 114 143
3 144 138 139
3 144 143 138
3 145 139 140
3 145 114 144
3 145 144 139
3 146 140 141
3 146 145 140
3 147 146 141
3 148 147 141
3 148 141 142
3 149 148 142
3 149 106 116
3 149 142 106
3 150 146 147
3 150 115 114
3 150 114 145
3 150 145 146
3 151 115 150
3 151 150 147
3 152 151 147
3 152 147 148
3 153 148 149
3 153 152 148
3 154 116 115
3 154 115 151
3 154 151 152
3 154 152 153
3 155 153 149
3 155 116 154
3 155 154 153
3 155 149 116
3 164 165 166
3 164 166 173
3 163 173 172
3 163 164 173
3 162 172 171
3 162 163 172
3 161 171 170
3 161 162 171
3 160 161 170
3 159 170 169
3 159 160 170
3 158 169 168
3 158 159 169
3 157 168 167
3 157 158 168
3 156 157 167
3 179 176 177
3 179 177 178
3 189 176 179
3 188 176 189
3 187 176 188
3 186 176 187
3 185 176 186
3 184 176 185
3 183 176 184
3 182 176 183
3 174 181 180
3 174 180 175
3 174 176 181
3 181 176 182
3 200 197 196
3 200 199 197
3 201 196 195
3 201 200 196
3 202 195 194
3 202 201 195
3 203 194 193
3 203 202 194
3 204 193 192
3 204 203 193
3 205 192 191
3 205 204 192
3 198 191 190
3 198 205 191
3 215 209 208
3 216 209 215
3 214 215 208
3 213 214 208
3 217 209 216
3 212 213 208
3 218 209 217
3 219 209 218
3 220 209 219
3 221 206 209
3 221 209 220
3 222 206 221
3 223 206 222
3 210 206 223
3 224 212 208
3 232 224 208
3 231 232 208
3 230 231 208
3 229 230 208
3 228 229 208
3 227 228 208
3 211 206 210
3 207 211 233
3 207 206 211
3 207 226 208
3 226 227 208
3 207 225 226
3 207 233 225
3 250 241 240
3 249 255 248
3 256 236 235
3 257 235 234
3 257 256 235
3 258 234 242
3 258 257 234
3 259 237 236
3 259 236 256
3 259 256 257
3 260 242 243
3 260 258 242
3 261 257 258
3 261 259 257
3 262 238 237
3 262 239 238
3 262 237 259
3 263 243 244
3 263 260 243
3 264 261 258
3 264 258 260
3 265 259 261
3 265 262 259
3 266 244 245
3 266 260 263
3 266 263 244
3 266 264 260
3 267 261 264
3 267 265 261
3 268 240 239
3 268 251 250
3 268 239 262
3 268 262 265
3 268 250 240
3 269 264 266
3 269 267 264
3 270 252 251
3 270 253 252
3 270 251 268
3 270 265 267
3 270 268 265
3 271 245 246
3 271 246 247
3 271 266 245
3 271 269 266
3 272 254 253
3 272 253 270
3 272 267 269
3 272 270 267
3 273 247 248
3 273 255 254
3 273 254 272
3 273 248 255
3 273 271 247
3 273 269 271
3 273 272 269
3 276 284 292
3 277 292 291
3 277 276 292
3 278 290 289
3 278 291 290
3 278 277 291
3 279 289 288
3 279 278 289
3 280 288 287
3 280 279 288
3 281 287 286
3 281 280 287
3 282 286 285
3 282 281 286
3 283 285 274
3 283 282 285
3 275 283 274
3 294 295 296
3 294 296 293
3 298 299 297
3 298 300 299
3 315 303 304
3 315 304 305
3 306 315 305
3 316 315 306
3 307 316 306
3 317 316 307
3 322 319 318
3 322 320 319
3 322 321 320
3 333 308 309
3 334 307 308
3 334 309 310
3 334 308 333
3 334 333 309
3 335 317 307
3 335 307 334
3 336 318 317
3 336 322 318
3 336 317 335
3 337 325 324
3 337 322 336
3 337 336 325
3 338 323 322
3 338 324 323
3 338 337 324
3 338 322 337
3 339 310 311
3 340 334 310
3 340 310 339
3 341 334 340
3 341 335 334
3 342 335 341
3 342 325 336
3 342 336 335
3 343 328 327
3 343 342 328
3 343 325 342
3 344 326 325
3 344 327 326
3 344 325 343
3 344 343 327
3 345 328 342
3 346 328 345
3 347 328 346
3 347 346 330
3 347 329 328
3 347 330 329
3 348 340 339
3 348 341 340
3 348 342 341
3 349 311 312
3 350 349 351
3 352 345 342
3 352 350 351
3 352 353 345
3 352 342 348
3 352 354 353
3 352 351 354
3 355 349 312
3 355 351 349
3 356 351 355
3 357 353 354
3 357 351 356
3 357 354 351
3 358 346 345
3 358 330 346
3 358 331 330
3 358 353 357
3 358 345 353
3 359 332 331
3 359 331 358
3 360 302 301
3 360 301 332
3 360 332 359
3 361 339 311
3 361 348 339
3 362 311 349
3 363 361 311
3 363 349 350
3 363 311 362
3 363 352 348
3 363 348 361
3 363 350 352
3 363 362 349
3 364 365 356
3 364 355 312
3 364 356 355
3 366 357 356
3 366 356 365
3 366 365 367
3 368 357 366
3 368 358 357
3 369 359 358
3 369 358 368
3 370 360 359
3 370 359 369
3 371 302 360
3 371 360 370
3 372 364 312
3 372 365 364
3 373 375 374
3 373 367 375
3 373 366 367
3 376 368 366
3 376 366 373
3 377 368 376
3 377 369 368
3 378 370 369
3 378 371 370
3 378 369 377
3 379 381 380
3 382 381 379
3 382 373 374
3 382 374 381
3 383 373 382
3 383 376 373
3 384 376 383
3 384 377 376
3 385 378 377
3 385 377 384
3 386 378 385
3 386 302 371
3 386 371 378
3 387 379 380
3 387 382 379
3 388 384 383
3 388 385 384
3 389 386 385
3 390 314 302
3 390 302 386
3 390 386 389
3 391 372 312
3 391 365 372
3 392 387 380
3 392 313 387
3 393 382 387
3 393 387 313
3 393 388 383
3 393 383 382
3 394 385 388
3 394 389 385
3 395 314 390
3 395 390 389
3 396 365 391
3 396 367 365
3 396 375 367
3 397 398 375
3 397 375 396
3 399 398 400
3 401 393 313
3 401 388 393
3 401 394 388
3 402 313 314
3 402 389 394
3 402 314 395
3 402 401 313
3 402 395 389
3 402 394 401
3 403 374 375
3 403 381 374
3 404 405 381
3 404 381 403
3 406 381 405
3 407 391 312
3 407 396 391
3 407 397 396
3 408 375 398
3 408 398 399
3 408 403 375
3 408 409 403
3 410 403 409
3 411 398 397
3 411 397 407
3 411 400 398
3 412 407 312
3 412 400 411
3 412 399 400
3 412 410 409
3 412 411 407
3 412 408 399
3 412 409 408
3 413 406 405
3 413 405 404
3 414 413 404
3 414 404 403
3 414 403 410
3 414 410 412
3 415 414 412
3 415 312 313
3 415 392 380
3 415 313 392
3 415 381 406
3 415 406 413
3 415 412 312
3 415 380 381
3 415 413 414
3 430 419 418
3 420 419 430
3 431 420 430
3 421 420 431
3 432 421 431
3 437 433 434
3 437 434 435
3 437 435 436
3 448 423 422
3 448 424 423
3 449 448 422
3 449 424 448
3 450 422 421
3 450 421 432
3 450 449 422
3 451 432 433
3 451 439 440
3 451 433 437
3 451 450 432
3 452 451 437
3 452 439 451
3 453 437 438
3 453 438 439
3 453 452 437
3 453 439 452
3 454 442 443
3 455 454 440
3 455 442 454
3 456 440 441
3 456 441 442
3 456 455 440
3 456 442 455
3 457 458 443
3 459 457 443
3 459 445 457
3 459 443 444
3 459 444 445
3 460 425 424
3 460 461 425
3 462 461 460
3 462 451 440
3 462 440 454
3 462 450 451
3 462 424 449
3 462 460 424
3 462 463 464
3 462 464 461
3 462 454 463
3 462 449 450
3 465 458 466
3 465 454 443
3 465 464 463
3 465 463 454
3 465 443 458
3 467 468 469
3 470 468 467
3 470 465 466
3 470 471 468
3 470 466 471
3 472 473 468
3 472 468 471
3 472 471 466
3 474 473 472
3 474 472 466
3 475 466 458
3 475 458 457
3 475 457 445
3 475 445 446
3 475 446 447
3 475 474 466
3 476 475 447
3 477 416 417
3 477 447 416
3 477 476 447
3 478 465 479
3 478 464 465
3 478 425 461
3 478 461 464
3 480 479 465
3 480 481 479
3 480 465 470
3 482 469 483
3 484 467 469
3 484 470 467
3 484 480 470
3 484 469 482
3 485 469 468
3 486 487 473
3 486 473 474
3 488 474 475
3 488 475 476
3 488 489 474
3 490 488 476
3 491 476 477
3 491 477 417
3 491 490 476
3 492 425 478
3 492 426 425
3 492 479 481
3 492 478 479
3 493 492 481
3 493 426 492
3 494 493 481
3 494 481 480
3 494 480 484
3 495 483 496
3 497 494 484
3 497 482 483
3 497 484 482
3 497 483 495
3 498 469 485
3 498 483 469
3 499 487 486
3 500 486 474
3 500 474 489
3 501 428 427
3 501 500 489
3 502 501 489
3 502 489 488
3 502 488 490
3 503 502 490
3 503 490 491
3 504 503 491
3 504 491 417
3 505 494 497
3 505 426 493
3 505 493 494
3 506 496 426
3 507 495 496
3 507 497 495
3 507 496 506
3 507 426 505
3 507 506 426
3 507 505 497
3 508 498 485
3 509 485 468
3 510 486 500
3 510 427 486
3 510 500 501
3 510 501 427
3 511 501 502
3 511 502 503
3 511 428 501
3 512 503 504
3 512 511 503
3 513 417 429
3 513 504 417
3 513 512 504
3 514 496 483
3 514 483 498
3 514 426 496
3 515 473 487
3 515 468 473
3 515 509 468
3 516 499 486
3 517 428 511
3 517 511 512
3 518 429 428
3 518 428 517
3 518 513 429
3 518 512 513
3 518 517 512
3 519 498 508
3 520 508 485
3 520 485 509
3 520 519 508
3 520 509 521
3 522 499 516
3 522 487 499
3 522 515 487
3 522 523 515
3 522 524 523
3 525 522 516
3 525 516 486
3 526 514 498
3 526 498 519
3 527 520 521
3 528 521 509
3 528 527 521
3 529 509 515
3 529 528 509
3 530 524 522
3 531 526 519
3 531 519 520
3 532 527 528
3 532 520 527
3 533 528 529
3 534 529 515
3 534 524 530
3 534 515 523
3 534 523 524
3 534 533 529
3 535 530 522
3 535 534 530
3 536 525 486
3 536 522 525
3 537 426 514
3 537 514 526
3 537 526 531
3 538 520 532
3 538 532 528
3 539 528 533
3 539 533 534
3 540 535 522
3 540 534 535
3 541 520 538
3 541 531 520
3 541 538 528
3 541 537 531
3 542 541 528
3 542 539 534
3 542 528 539
3 543 540 522
3 543 534 540
3 543 537 541
3 543 541 542
3 543 542 534
3 544 427 426
3 544 426 537
3 544 522 536
3 544 536 486
3 544 486 427
3 544 537 543
3 544 543 522
3 553 554 560
3 552 560 559
3 552 553 560
3 551 558 557
3 551 559 558
3 551 552 559
3 550 557 556
3 550 551 557
3 549 556 555
3 549 550 556
3 548 549 555
3 547 555 545
3 547 548 555
3 546 547 545
3 567 568 569
3 567 569 576
3 566 576 575
3 566 567 576
3 565 566 575
3 564 575 574
3 564 565 575
3 563 574 573
3 563 564 574
3 562 572 571
3 562 573 572
3 562 563 573
3 561 571 570
3 561 562 571
3 578 577 580
3 579 578 580
3 583 592 591
3 584 593 592
3 584 592 583
3 585 594 593
3 585 593 584
3 586 594 585
3 587 595 594
3 587 594 586
3 588 596 595
3 588 595 587
3 589 596 588
3 590 581 596
3 590 596 589
3 582 581 590
3 605 606 614
3 604 614 613
3 604 605 614
3 603 613 612
3 603 604 613
3 602 612 611
3 602 603 612
3 601 610 609
3 601 611 610
3 601 602 611
3 600 609 608
3 600 601 609
3 599 608 607
3 599 600 608
3 598 607 597
3 598 599 607
3 615 618 617
3 615 616 618
3 627 628 629
3 627 629 630
3 626 627 630
3 625 630 631
3 625 626 630
3 624 631 632
3 624 625 631
3 623 632 633
3 623 624 632
3 622 633 634
3 622 623 633
3 621 634 635
3 621 622 634
3 620 635 619
3 620 621 635
3 648 638 639
3 640 648 639
3 649 648 640
3 655 653 652
3 655 654 653
3 660 640 641
3 660 650 649
3 660 651 650
3 660 652 651
3 660 649 640
3 660 655 652
3 661 641 642
3 661 642 643
3 661 660 641
3 662 660 661
3 662 655 660
3 663 662 661
3 664 643 644
3 664 661 643
3 665 663 661
3 665 661 664
3 666 656 655
3 666 662 663
3 666 663 665
3 666 655 662
3 667 665 664
3 667 656 666
3 667 666 665
3 668 657 656
3 668 656 667
3 668 664 644
3 668 667 664
3 669 657 668
3 670 658 657
3 670 657 669
3 671 659 658
3 671 658 670
3 672 659 671
3 673 637 636
3 673 636 659
3 673 659 672
3 674 644 645
3 674 668 644
3 674 669 668
3 675 674 645
3 675 670 669
3 675 669 674
3 676 671 670
3 676 675 645
3 676 670 675
3 677 672 671
3 677 671 676
3 678 672 677
3 679 672 678
3 679 673 672
3 680 673 679
3 680 647 637
3 680 637 673
3 681 678 677
3 681 645 646
3 681 676 645
3 681 677 676
3 682 681 646
3 682 678 681
3 683 678 682
3 683 679 678
3 684 680 679
3 684 679 683
3 685 646 647
3 685 682 646
3 685 683 682
3 685 684 683
3 686 680 684
3 686 685 647
3 686 684 685
3 686 647 680
3 703 694 693
3 702 708 701
3 709 689 688
3 710 688 687
3 710 709 688
3 711 687 695
3 711 710 687
3 712 690 689
3 712 689 709
3 712 709 710
3 713 695 696
3 713 711 695
3 714 710 711
3 714 712 710
3 715 691 690
3 715 692 691
3 715 690 712
3 716 696 697
3 716 713 696
3 717 714 711
3 717 711 713
3 718 712 714
3 718 715 712
3 719 697 698
3 719 713 716
3 719 716 697
3 719 717 713
3 720 714 717
3 720 718 714
3 721 693 692
3 721 704 703
3 721 692 715
3 721 715 718
3 721 703 693
3 722 717 719
3 722 720 717
3 723 705 704
3 723 706 705
3 723 704 721
3 723 718 720
3 723 721 718
3 724 698 699
3 724 699 700
3 724 719 698
3 724 722 719
3 725 707 706
3 725 706 723
3 725 720 722
3 725 723 720
3 726 700 701
3 726 708 707
3 726 707 725
3 726 701 708
3 726 724 700
3 726 722 724
3 726 725 722
3 728 727 729
3 742 729 730
3 742 728 729
3 741 730 731
3 741 742 730
3 740 731 732
3 740 741 731
3 739 732 733
3 739 740 732
3 738 733 734
3 738 739 733
3 737 734 735
3 737 738 734
3 736 737 735
3 752 751 747
3 753 752 747
3 750 747 751
3 754 753 747
3 749 747 750
3 744 747 746
3 744 754 747
3 748 747 749
3 745 744 746
3 743 744 745
3 769 758 757
3 759 758 769
3 776 774 775
3 786 760 759
3 786 761 760
3 787 769 770
3 787 786 759
3 787 759 769
3 788 770 771
3 788 787 770
3 789 762 761
3 789 763 762
3 789 761 786
3 790 771 772
3 790 788 771
3 791 763 789
3 791 789 786
3 791 786 787
3 792 772 773
3 792 790 772
3 793 791 787
3 793 787 788
3 794 773 774
3 794 776 777
3 794 792 773
3 794 774 776
3 795 788 790
3 795 793 788
3 796 778 795
3 796 795 790
3 796 790 792
3 797 777 778
3 797 794 777
3 797 792 794
3 797 778 796
3 797 796 792
3 798 780 781
3 799 780 798
3 799 798 778
3 800 799 778
3 800 778 779
3 800 779 780
3 800 780 799
3 801 798 781
3 802 801 781
3 803 802 781
3 803 783 802
3 803 781 782
3 803 782 783
3 804 764 763
3 805 806 807
3 805 795 778
3 805 793 795
3 805 804 763
3 805 791 793
3 805 763 791
3 805 798 806
3 805 778 798
3 808 804 805
3 808 805 807
3 808 764 804
3 808 807 809
3 810 807 806
3 810 811 809
3 810 806 798
3 810 809 807
3 812 813 814
3 812 814 815
3 812 798 801
3 812 810 798
3 812 815 816
3 812 801 813
3 817 815 814
3 817 818 815
3 819 814 813
3 819 820 817
3 819 817 814
3 821 819 813
3 821 801 802
3 821 802 783
3 821 783 784
3 821 813 801
3 822 784 785
3 822 821 784
3 823 755 756
3 823 785 755
3 823 822 785
3 824 765 764
3 824 808 809
3 824 764 808
3 824 809 811
3 825 824 811
3 825 765 824
3 826 825 811
3 826 811 810
3 827 828 829
3 830 810 812
3 830 816 828
3 830 812 816
3 830 826 810
3 830 828 827
3 831 815 818
3 832 818 817
3 832 817 820
3 832 833 818
3 834 820 819
3 835 834 819
3 835 819 821
3 836 835 821
3 836 821 822
3 837 836 822
3 837 822 823
3 838 837 823
3 838 823 756
3 839 765 825
3 839 825 826
3 840 829 765
3 841 827 829
3 841 839 826
3 841 829 840
3 841 826 830
3 841 830 827
3 842 829 828
3 843 818 833
3 844 833 832
3 844 845 833
3 846 834 847
3 846 767 766
3 846 844 832
3 846 832 820
3 846 820 834
3 848 846 847
3 848 767 846
3 849 847 834
3 849 848 847
3 850 834 835
3 850 849 834
3 851 835 836
3 851 850 835
3 852 851 836
3 852 836 837
3 852 837 838
3 853 765 839
3 853 840 765
3 853 839 841
3 853 841 840
3 854 816 815
3 854 815 831
3 855 843 833
3 855 845 766
3 855 833 845
3 856 766 845
3 856 845 844
3 856 844 846
3 856 846 766
3 857 848 849
3 857 849 850
3 857 850 851
3 858 851 852
3 858 857 851
3 859 852 838
3 859 858 852
3 860 829 842
3 860 765 829
3 861 818 843
3 862 861 843
3 863 767 848
3 863 848 857
3 863 857 858
3 864 767 863
3 864 768 767
3 864 858 859
3 864 863 858
3 865 756 768
3 865 838 756
3 865 859 838
3 865 768 864
3 865 864 859
3 866 828 816
3 866 816 854
3 867 866 854
3 868 818 861
3 868 831 818
3 869 831 868
3 869 870 831
3 871 842 828
3 871 828 866
3 871 860 842
3 871 765 860
3 872 873 870
3 872 870 869
3 874 862 875
3 874 861 862
3 876 866 867
3 877 867 854
3 877 876 867
3 878 877 873
3 878 873 872
3 879 868 861
3 879 880 868
3 881 874 875
3 882 870 873
3 882 873 877
3 883 877 854
3 883 870 882
3 883 882 877
3 883 854 831
3 883 831 870
3 884 869 868
3 884 878 872
3 884 872 869
3 885 886 887
3 888 887 880
3 888 885 887
3 888 880 879
3 889 875 862
3 889 855 766
3 889 843 855
3 889 862 843
3 890 889 766
3 890 866 876
3 890 766 765
3 890 871 866
3 890 765 871
3 890 876 877
3 890 877 878
3 891 880 887
3 891 884 868
3 891 868 880
3 891 878 884
3 891 887 886
3 892 878 891
3 892 861 874
3 892 879 861
3 892 875 889
3 892 874 881
3 892 881 875
3 892 889 890
3 892 886 885
3 892 885 888
3 892 888 879
3 892 890 878
3 892 891 886
3 902 893 894
3 903 894 895
3 903 902 894
3 904 895 896
3 904 903 895
3 905 896 897
3 905 904 896
3 906 897 898
3 906 905 897
3 907 898 899
3 907 906 898
3 908 899 900
3 908 907 899
3 901 908 900
3 919 909 910
3 919 918 909
3 920 910 911
3 920 919 910
3 921 911 912
3 921 920 911
3 922 912 913
3 922 921 912
3 923 913 914
3 923 922 913
3 924 914 915
3 924 923 914
3 917 915 916
3 917 924 915
3 948 935 934
3 949 942 941
3 955 935 948
3 956 936 935
3 956 935 955
3 957 948 947
3 957 955 948
3 958 937 936
3 958 936 956
3 959 956 955
3 959 955 957
3 960 938 937
3 960 937 958
3 961 947 946
3 961 957 947
3 962 956 959
3 962 958 956
3 963 939 938
3 963 938 960
3 964 957 961
3 964 959 957
3 965 958 962
3 965 960 958
3 966 946 945
3 966 961 946
3 967 932 933
3 967 940 939
3 967 933 940
3 967 939 963
3 968 962 959
3 968 959 964
3 969 963 960
3 969 960 965
3 970 964 961
3 970 961 966
3 971 965 962
3 971 962 968
3 972 945 944
3 972 966 945
3 973 931 932
3 973 932 967
3 973 963 969
3 973 967 963
3 974 964 970
3 974 968 964
3 975 965 971
3 975 969 965
3 976 970 966
3 976 966 972
3 977 971 968
3 977 968 974
3 978 944 943
3 978 972 944
3 979 930 931
3 979 969 975
3 979 931 973
3 979 973 969
3 980 974 970
3 980 970 976
3 981 971 977
3 981 975 971
3 982 976 972
3 982 972 978
3 983 977 974
3 983 974 980
3 983 981 977
3 984 943 942
3 984 978 943
3 984 942 949
3 985 929 930
3 985 930 979
3 985 979 975
3 985 975 981
3 986 980 976
3 986 976 982
3 987 981 983
3 988 949 950
3 988 982 978
3 988 978 984
3 988 984 949
3 989 983 980
3 989 980 986
3 990 928 929
3 990 929 985
3 990 985 981
3 990 981 987
3 991 950 951
3 991 982 988
3 991 986 982
3 991 988 950
3 992 987 983
3 992 983 989
3 993 951 952
3 993 991 951
3 993 989 986
3 993 986 991
3 994 927 928
3 994 990 987
3 994 928 990
3 994 987 992
3 995 952 953
3 995 992 989
3 995 993 952
3 995 989 993
3 996 925 926
3 996 926 927
3 996 953 954
3 996 954 925
3 996 992 995
3 996 927 994
3 996 995 953
3 996 994 992
3 1008 998 997
3 1008 997 1007
3 1009 999 998
3 1009 998 1008
3 1010 1000 999
3 1010 1001 1000
3 1010 999 1009
3 1011 1002 1001
3 1011 1001 1010
3 1012 1003 1002
3 1012 1004 1003
3 1012 1002 1011
3 1006 1005 1004
3 1006 1004 1012
3 1022 1034 1023
3 1021 1032 1033
3 1021 1033 1034
3 1021 1034 1022
3 1020 1030 1031
3 1020 1031 1032
3 1020 1032 1021
3 1019 1029 1030
3 1019 1030 1020
3 1018 1027 1028
3 1018 1028 1029
3 1018 1029 1019
3 1017 1026 1027
3 1017 1027 1018
3 1016 1025 1026
3 1016 1026 1017
3 1015 1013 1024
3 1015 1024 1025
3 1015 1025 1016
3 1014 1013 1015
3 1046 1048 1047
3 1046 1049 1048
3 1045 1049 1046
3 1044 1050 1049
3 1044 1049 1045
3 1043 1051 1050
3 1043 1050 1044
3 1042 1052 1051
3 1042 1051 1043
3 1041 1053 1052
3 1041 1052 1042
3 1040 1054 1053
3 1040 1053 1041
3 1039 1055 1054
3 1039 1056 1055
3 1039 1054 1040
3 1038 1057 1056
3 1038 1056 1039
3 1037 1058 1057
3 1037 1059 1058
3 1037 1057 1038
3 1036 1035 1059
3 1036 1059 1037
3 1063 1061 1060
3 1063 1062 1061
