ply
format ascii 1.0
comment generated by blendit.inference.finetune_visualize
element vertex 1373
property float x
property float y
property float z
property uchar red
property uchar green
property uchar blue
element face 1746
property list uchar int vertex_indices
end_header
-1.11022302e-16 0 0.887357172 218 222 230
0 -1.11022302e-16 55.207038 218 222 230
-1.11022302e-16 34.2796054 0.887357172 218 222 230
-1.11022302e-16 34.2796054 55.207038 218 222 230
0.887357172 0 -1.11022302e-16 218 222 230
15.8578511 -1.11022302e-16 0 218 222 230
-1.11022302e-16 0 0.887357172 218 222 230
0.0222478969 0 0.689901625 218 222 230
0.0878759853 0 0.502347324 218 222 230
0.193593399 0 0.334099025 218 222 230
0.334099025 0 0.193593399 218 222 230
0.502347324 0 0.0878759853 218 222 230
0.689901625 0 0.0222478969 218 222 230
0 -1.11022302e-16 55.207038 218 222 230
38.371208 -1.11022302e-16 55.207038 218 222 230
38.371208 0 48.0502427 218 222 230
43.2376886 5.44853288e-32 48.0502427 218 222 230
43.4351442 0 48.0724906 218 222 230
43.6226985 0 48.1381187 218 222 230
43.7909468 0 48.2438361 218 222 230
43.9314524 0 48.3843417 218 222 230
44.0371698 0 48.55259 218 222 230
44.1027979 0 48.7401443 218 222 230
44.1250458 0 48.9375998 218 222 230
44.1250458 0 55.207038 218 222 230
45.0124029 0 56.0943952 218 222 230
44.8149474 0 56.0721473 218 222 230
44.6273931 0 56.0065192 218 222 230
44.4591448 0 55.9008018 218 222 230
44.3186392 0 55.7602962 218 222 230
44.2129218 0 55.5920479 218 222 230
44.1472937 0 55.4044936 218 222 230
64.7394446 0 56.0943952 218 222 230
64.7394446 -1.11022302e-16 0.887357172 218 222 230
50.7443733 -1.11022302e-16 0.887357172 218 222 230
47.8534372 0 0.574470299 218 222 230
48.0383337 0 0.92714966 218 222 230
48.303262 0 1.2244415 218 222 230
48.6323954 0 1.44858574 218 222 230
49.0060716 0 1.58619209 218 222 230
49.4019674 0 1.62904001 218 222 230
49.7964322 0 1.57456978 218 222 230
50.1659007 0 1.42603544 218 222 230
50.4883011 0 1.19231036 218 222 230
47.0230731 0 0 218 222 230
47.2357999 0 0.0258758553 218 222 230
47.4361203 0 0.101994311 218 222 230
47.6123512 0 0.22391605 218 222 230
47.7542147 0 0.384530453 218 222 230
18.7487962 0 -2.9378646e-17 218 222 230
18.6325799 0 1.29104928 218 222 230
15.9812287 -5.55111512e-17 1.37060476 218 222 230
16.0296577 -5.250608e-17 1.60009949 218 222 230
16.1216387 -4.87891313e-17 1.79006104 218 222 230
16.2403578 -4.57640211e-17 1.93848749 218 222 230
16.3857905 -4.2841954e-17 2.06091069 218 222 230
16.5501202 -3.99265921e-17 2.15671234 218 222 230
16.7876135 -3.60394504e-17 2.24553472 218 222 230
17.0680863 -3.16664159e-17 2.29754972 218 222 230
17.3533492 -2.72933814e-17 2.30355848 218 222 230
17.6361368 -2.29203469e-17 2.26548009 218 222 230
17.9090164 -1.85473124e-17 2.18228248 218 222 230
18.1618652 -1.4174278e-17 2.05050108 218 222 230
18.3791527 -9.79494678e-18 1.8663021 218 222 230
18.5144611 -6.08773897e-18 1.67928493 218 222 230
18.5940547 -2.45410587e-18 1.49148066 218 222 230
45.3386667 0 7.68618509 218 222 230
45.9189396 0 4.49189281 218 222 230
43.0110311 0 5.36844673 218 222 230
-1.11022302e-16 0 0.887357172 255 79 163
-1.11022302e-16 34.2796054 0.887357172 255 79 163
0.0222478969 34.2796054 0.689901625 255 79 163
0.0878759853 34.2796054 0.502347324 255 79 163
0.193593399 34.2796054 0.334099025 255 79 163
0.334099025 34.2796054 0.193593399 255 79 163
0.502347324 34.2796054 0.0878759853 255 79 163
0.689901625 34.2796054 0.0222478969 255 79 163
0.887357172 34.2796054 -1.11022302e-16 255 79 163
0.887357172 0 -1.11022302e-16 255 79 163
0.0222478969 0 0.689901625 255 79 163
0.0878759853 0 0.502347324 255 79 163
0.193593399 0 0.334099025 255 79 163
0.334099025 0 0.193593399 255 79 163
0.502347324 0 0.0878759853 255 79 163
0.689901625 0 0.0222478969 255 79 163
0 -1.11022302e-16 55.207038 255 79 163
0.0121476335 0.0121476335 55.353363 255 79 163
0.0482579397 0.0482579397 55.4956818 255 79 163
0.107342242 0.107342242 55.6300977 255 79 163
0.187782849 0.187782849 55.7529304 255 79 163
0.28737735 0.28737735 55.860817 255 79 163
0.403398912 0.403398912 55.9508035 255 79 163
0.578103051 0.578103051 56.0387619 255 79 163
0.730247996 0.730247996 56.0803761 255 79 163
0.887357172 0.887357172 56.0943952 255 79 163
0.887357172 34.2796054 56.0943952 255 79 163
-1.11022302e-16 34.2796054 55.207038 255 79 163
0.0222478969 34.2796054 55.4044936 255 79 163
0.0878759853 34.2796054 55.5920479 255 79 163
0.193593399 34.2796054 55.7602962 255 79 163
0.334099025 34.2796054 55.9008018 255 79 163
0.502347324 34.2796054 56.0065192 255 79 163
0.689901625 34.2796054 56.0721473 255 79 163
51.0072284 34.2796054 2.49401796e-16 218 222 230
63.8520874 34.2796054 -1.11022302e-16 218 222 230
48.0116513 34.2796054 0.887357172 218 222 230
48.2537421 34.2796054 1.17913598 218 222 230
48.5567163 34.2796054 1.40706011 218 222 230
48.9041669 34.2796054 1.55878663 218 222 230
49.277278 34.2796054 1.62609895 218 222 230
49.6558442 34.2796054 1.60535187 218 222 230
50.0193648 34.2796054 1.49766892 218 222 230
50.3481537 34.2796054 1.30888154 218 222 230
50.6244058 34.2796054 1.04921327 218 222 230
50.8331609 34.2796054 0.73272614 218 222 230
50.9631143 34.2796054 0.37655912 218 222 230
19.5598641 34.2796054 0.887357172 218 222 230
19.5163636 34.2796054 1.37060476 218 222 230
19.423912 34.2796054 1.79766595 218 222 230
19.2299154 34.2796054 2.18919354 218 222 230
18.9461337 34.2796054 2.52145325 218 222 230
18.5897698 34.2796054 2.77430357 218 222 230
18.1824262 34.2796054 2.93241679 218 222 230
17.7487962 34.2796054 2.98620814 218 222 230
17.3151661 34.2796054 2.93241679 218 222 230
16.9078226 34.2796054 2.77430357 218 222 230
16.5514586 34.2796054 2.52145325 218 222 230
16.2676769 34.2796054 2.18919354 218 222 230
16.0736803 34.2796054 1.79766595 218 222 230
15.9812287 34.2796054 1.37060476 218 222 230
15.8578511 34.2796054 1.38777878e-17 218 222 230
0.887357172 34.2796054 -1.11022302e-16 218 222 230
-1.11022302e-16 34.2796054 0.887357172 218 222 230
0.0222478969 34.2796054 0.689901625 218 222 230
0.0878759853 34.2796054 0.502347324 218 222 230
0.193593399 34.2796054 0.334099025 218 222 230
0.334099025 34.2796054 0.193593399 218 222 230
0.502347324 34.2796054 0.0878759853 218 222 230
0.689901625 34.2796054 0.0222478969 218 222 230
-1.11022302e-16 34.2796054 55.207038 218 222 230
0.0222478969 34.2796054 55.4044936 218 222 230
0.0878759853 34.2796054 55.5920479 218 222 230
0.193593399 34.2796054 55.7602962 218 222 230
0.334099025 34.2796054 55.9008018 218 222 230
0.502347324 34.2796054 56.0065192 218 222 230
0.689901625 34.2796054 56.0721473 218 222 230
0.887357172 34.2796054 56.0943952 218 222 230
37.6579654 34.2796054 56.0943952 218 222 230
37.6725069 34.2796054 56.094276 218 222 230
37.6725069 34.2796054 13.8678384 218 222 230
37.682139 34.2796054 13.7867193 218 222 230
37.7087557 34.2796054 13.7094283 218 222 230
37.7483208 34.2796054 13.6377885 218 222 230
37.8150724 34.2796054 13.5515533 218 222 230
37.9344157 34.2796054 13.4396717 218 222 230
38.138224 34.2796054 13.3028644 218 222 230
38.4730418 34.2796054 13.150022 218 222 230
38.8718153 34.2796054 13.0379958 218 222 230
39.1508152 34.2796054 12.9952215 218 222 230
39.4326797 34.2796054 12.9804812 218 222 230
63.8520874 34.2796054 12.9804812 218 222 230
45.3386667 34.2796054 7.68618509 218 222 230
45.9189396 34.2796054 4.49189281 218 222 230
43.0110311 34.2796054 5.36844673 218 222 230
0.887357172 34.2796054 -1.11022302e-16 218 222 230
15.8578511 34.2796054 1.38777878e-17 218 222 230
0.887357172 0 -1.11022302e-16 218 222 230
15.8578511 -1.11022302e-16 0 218 222 230
16.0658381 0.0245177493 0 218 222 230
16.2623317 0.0967161425 0 218 222 230
16.4364736 0.212605485 0 218 222 230
16.5786408 0.365781713 0 218 222 230
16.680977 0.547780284 0 218 222 230
16.7316769 0.714242375 0 218 222 230
16.7487962 0.887357172 -1.38777878e-17 218 222 230
16.7487962 33.3922483 9.71445147e-17 218 222 230
16.0658381 34.2550877 0 218 222 230
16.2623317 34.1828893 0 218 222 230
16.4364736 34.067 0 218 222 230
16.5786408 33.9138237 0 218 222 230
16.680977 33.7318252 0 218 222 230
16.7316769 33.5653631 0 218 222 230
15.8578511 -1.11022302e-16 0 255 79 163
16.0658381 0.0245177493 0 255 79 163
16.2623317 0.0967161425 0 255 79 163
16.4364736 0.212605485 0 255 79 163
16.5786408 0.365781713 0 255 79 163
16.680977 0.547780284 0 255 79 163
16.7316769 0.714242375 0 255 79 163
16.7487962 0.887357172 -1.38777878e-17 255 79 163
16.8650124 0.887357172 1.29104928 255 79 163
15.9812287 -5.55111512e-17 1.37060476 255 79 163
16.1875439 0.0245177839 1.35203291 255 79 163
16.3824582 0.096716106 1.33448733 255 79 163
16.5552003 0.212605511 1.31893761 255 79 163
16.6962248 0.365781713 1.30624303 255 79 163
16.7977384 0.547780258 1.29710508 255 79 163
16.8480307 0.714242419 1.29257792 255 79 163
18.6325799 0 1.29104928 255 79 163
18.6325799 0 1.29104928 255 79 163
15.9812287 -5.55111512e-17 1.37060476 255 79 163
16.0296577 -5.250608e-17 1.60009949 255 79 163
16.1216387 -4.87891313e-17 1.79006104 255 79 163
16.2403578 -4.57640211e-17 1.93848749 255 79 163
16.3857905 -4.2841954e-17 2.06091069 255 79 163
16.5501202 -3.99265921e-17 2.15671234 255 79 163
16.7876135 -3.60394504e-17 2.24553472 255 79 163
17.0680863 -3.16664159e-17 2.29754972 255 79 163
17.3533492 -2.72933814e-17 2.30355848 255 79 163
17.6361368 -2.29203469e-17 2.26548009 255 79 163
17.9090164 -1.85473124e-17 2.18228248 255 79 163
18.1618652 -1.4174278e-17 2.05050108 255 79 163
18.3791527 -9.79494678e-18 1.8663021 255 79 163
18.5144611 -6.08773897e-18 1.67928493 255 79 163
18.5940547 -2.45410587e-18 1.49148066 255 79 163
16.1875439 0.0245177839 1.35203291 255 79 163
16.3824582 0.096716106 1.33448733 255 79 163
16.5552003 0.212605511 1.31893761 255 79 163
16.6962248 0.365781713 1.30624303 255 79 163
16.7977384 0.547780258 1.29710508 255 79 163
16.8480307 0.714242419 1.29257792 255 79 163
16.8650124 0.887357172 1.29104928 255 79 163
16.9101806 0.814497391 1.50153988 255 79 163
17.0047097 0.741637611 1.6949584 255 79 163
17.1430356 0.668777831 1.85992023 255 79 163
17.3170164 0.59591805 1.98671584 255 79 163
17.5164119 0.52305827 2.06788171 255 79 163
17.7294854 0.450198489 2.09864085 255 79 163
17.9436957 0.377338709 2.07718265 255 79 163
18.146434 0.304478928 2.00476977 255 79 163
18.3257676 0.231619148 1.88566505 255 79 163
18.4711405 0.158759367 1.72687849 255 79 163
18.5739964 0.0858995868 1.53775649 255 79 163
18.6121458 0.0429497934 1.41650625 255 79 163
16.6242238 0.229957211 1.5252731 255 79 163
16.675251 0.237115868 1.62041848 255 79 163
16.5871436 0.108634761 1.79487726 255 79 163
16.7322151 0.227559984 1.72942955 255 79 163
16.6574214 0.105528716 1.88018577 255 79 163
16.8311285 0.389182408 1.64552422 255 79 163
16.7763701 0.221299858 1.7936285 255 79 163
16.8258656 0.214937109 1.85309916 255 79 163
16.8046256 0.0993298079 2.00818994 255 79 163
16.9125461 0.20480343 1.93616041 255 79 163
16.9746789 0.349323932 1.85012269 255 79 163
16.9730735 0.198211969 1.98279149 255 79 163
16.9891665 0.0917364013 2.11238138 255 79 163
17.0742303 0.187749538 2.04544144 255 79 163
17.1270222 0.31728222 1.97707125 255 79 163
17.1656431 0.178688418 2.08901192 255 79 163
17.2774782 0.167918641 2.12859134 255 79 163
17.3169435 0.282640866 2.0736716 255 79 163
17.3882362 0.157456121 2.15494791 255 79 163
17.5059998 0.146435132 2.17037581 255 79 163
17.620042 0.135767993 2.17366914 255 79 163
17.7387816 0.124571673 2.16514122 255 79 163
17.8514258 0.113772717 2.14553673 255 79 163
17.9662637 0.102476948 2.11324967 255 79 163
18.0727703 0.0916189788 2.07095102 255 79 163
18.1786039 0.0802996407 2.0151341 255 79 163
18.2737971 0.0694554607 1.95042372 255 79 163
18.3647975 0.058188446 1.87150438 255 79 163
18.442536 0.0474318365 1.78510865 255 79 163
18.4974213 0.0387742188 1.70783763 255 79 163
18.555786 0.0277383872 1.59970007 255 79 163
18.5870219 0.0202451901 1.52054169 255 79 163
18.6077155 0.0138618323 1.44994831 255 79 163
17.2430223 0.0480817248 2.2259236 255 79 163
17.308882 0.0464629427 2.23349041 255 79 163
17.4360032 0.0432567449 2.23932419 255 79 163
17.4996713 0.0416104329 2.23799221 255 79 163
17.5659271 0.0398681599 2.23360376 255 79 163
17.6922454 0.0364620123 2.21664051 255 79 163
17.7547412 0.0347339741 2.20394674 255 79 163
17.8192184 0.0329194674 2.18771702 255 79 163
17.9404716 0.0294117253 2.14794572 255 79 163
17.9995741 0.0276511385 2.12377124 255 79 163
18.0598583 0.0258156553 2.09550431 255 79 163
18.1710153 0.0223046741 2.03241062 255 79 163
18.2239547 0.0205607165 1.99646418 255 79 163
18.2769386 0.0187555143 1.95585587 255 79 163
18.3713023 0.0153405516 1.8690239 255 79 163
18.4143399 0.0136668815 1.82129226 255 79 163
18.4469179 0.0123356233 1.7805845 255 79 163
18.5053304 0.00977034178 1.69397031 255 79 163
18.5377492 0.00821455814 1.63487707 255 79 163
18.5575072 0.00719785978 1.59294074 255 79 163
18.5906115 0.00527797162 1.50618846 255 79 163
18.6021097 0.00447653232 1.46794307 255 79 163
17.6974095 0.0100366629 2.23604935 255 79 163
17.7317144 0.00976588278 2.22805436 255 79 163
17.7970021 0.00924275477 2.21055548 255 79 163
17.9249416 0.00818730617 2.16692688 255 79 163
17.9562623 0.0079225159 2.15419345 255 79 163
17.9885785 0.0076464964 2.14013285 255 79 163
18.0495516 0.00711745455 2.11087568 255 79 163
18.1666708 0.00606650733 2.04322692 255 79 163
18.1947767 0.00580624428 2.02438086 255 79 163
18.2235034 0.00553639172 2.00390357 255 79 163
18.2768623 0.00502332749 1.96221566 255 79 163
18.3983384 0.00377863625 1.84433184 255 79 163
18.4161732 0.00358447502 1.82342639 255 79 163
18.4501028 0.00320567568 1.78015802 255 79 163
18.5104198 0.00250083645 1.68810807 255 79 163
18.5275261 0.0022934464 1.65705412 255 79 163
18.5385901 0.00215729266 1.63536016 255 79 163
18.5770945 0.0016619308 1.5458561 255 79 163
18.5987871 0.00133840641 1.47960653 255 79 163
17.981722 0.00203250808 2.14804967 255 79 163
18.1053142 0.00173976563 2.08439756 255 79 163
18.1789585 0.00155898071 2.03822628 255 79 163
18.1939023 0.00152160711 2.02796975 255 79 163
18.222148 0.00145025012 2.00767084 255 79 163
18.3287687 0.00117062828 1.91835843 255 79 163
18.3987327 0.000975845202 1.84540031 255 79 163
18.3894025 0.00100241774 1.85597474 255 79 163
18.4169542 0.000923409308 1.8238668 255 79 163
18.4835702 0.000726146947 1.73278804 255 79 163
18.5274622 0.000592931159 1.6575439 255 79 163
18.5216028 0.000610787865 1.66856295 255 79 163
18.5494262 0.000525784965 1.61271228 255 79 163
18.1335651 0.000428757431 2.0684997 255 79 163
18.1782219 0.000400052859 2.03952977 255 79 163
18.1706053 0.000404985189 2.0446598 255 79 163
18.1927312 0.000390612769 2.0295299 255 79 163
18.2492922 0.00035320868 1.98746852 255 79 163
18.3542584 0.000280609989 1.89346297 255 79 163
18.3892608 0.000255282811 1.85608422 255 79 163
18.398692 0.000248356808 1.84535893 255 79 163
18.4348982 0.000221390677 1.8011636 255 79 163
18.4994147 0.000172301393 1.70686022 255 79 163
18.5212482 0.000155646748 1.66854924 255 79 163
18.5329456 0.000146768119 1.64616182 255 79 163
18.573622 0.000115907338 1.55371008 255 79 163
18.5860563 0.000409242504 1.51982081 255 79 163
18.5901903 0.000102419788 1.50596909 255 79 163
18.1477208 0.000106324049 2.059781 255 79 163
18.170133 0.000102641339 2.04510397 255 79 163
18.1774831 0.000101426445 2.04014255 255 79 163
18.2065284 9.65889091e-05 2.01977878 255 79 163
18.3163243 7.76698898e-05 1.9300275 255 79 163
18.3667953 6.85586583e-05 1.88017966 255 79 163
18.4428656 0.00131393366 1.7908662 255 79 163
18.5052367 0.0010239875 1.69763759 255 79 163
18.5947668 0.000579123945 1.49273245 255 79 163
18.0315755 3.14664026e-05 2.12634446 255 79 163
18.1547961 2.64665976e-05 2.0552136 255 79 163
18.1697208 2.58460668e-05 2.04535569 255 79 163
18.1844285 2.52309596e-05 2.03534244 255 79 163
18.2832783 0.000186782716 1.95952733 255 79 163
18.3226817 0.000470904669 1.92432624 255 79 163
18.3783554 0.000409393081 1.86820138 255 79 163
18.005074 2.04377798e-06 2.13963742 255 79 163
18.1300423 1.72685839e-06 2.07089983 255 79 163
18.0518575 4.33088834e-06 2.11583021 255 79 163
18.0684409 1.88465999e-06 2.10686937 255 79 163
18.0849119 4.61107566e-07 2.09767228 255 79 163
18.0941176 2.89545805e-05 2.09239034 255 79 163
18.0976913 7.22777465e-06 2.09033178 255 79 163
18.11393 3.97554976e-06 2.08073589 255 79 163
18.1389288 3.42978038e-05 2.06537471 255 79 163
17.9983897 1.28957822e-07 2.14288782 255 79 163
18.0453209 1.09348211e-06 2.11929653 255 79 163
18.0766908 1.04880979e-06 2.10230045 255 79 163
18.123783 1.09081644e-07 2.07474647 255 79 163
18.1238378 0.000131679783 2.07469516 255 79 163
0 -1.11022302e-16 55.207038 255 79 163
38.371208 -1.11022302e-16 55.207038 255 79 163
38.371208 0.0222478969 55.4044936 255 79 163
38.371208 0.0878759853 55.5920479 255 79 163
38.371208 0.193593399 55.7602962 255 79 163
38.371208 0.334099025 55.9008018 255 79 163
38.371208 0.502347324 56.0065192 255 79 163
38.371208 0.689901625 56.0721473 255 79 163
38.371208 0.887357172 56.0943952 255 79 163
0.887357172 0.887357172 56.0943952 255 79 163
0.0121476335 0.0121476335 55.353363 255 79 163
0.0482579397 0.0482579397 55.4956818 255 79 163
0.107342242 0.107342242 55.6300977 255 79 163
0.187782849 0.187782849 55.7529304 255 79 163
0.28737735 0.28737735 55.860817 255 79 163
0.403398912 0.403398912 55.9508035 255 79 163
0.578103051 0.578103051 56.0387619 255 79 163
0.730247996 0.730247996 56.0803761 255 79 163
18.7487962 33.3922483 0 218 222 230
18.7487962 0 -2.9378646e-17 218 222 230
18.6325799 33.3922483 1.29104928 218 222 230
18.6325799 0 1.29104928 218 222 230
38.371208 -1.11022302e-16 55.207038 218 222 230
38.371208 0 48.0502427 218 222 230
38.371208 0.0222478969 55.4044936 218 222 230
38.371208 0.0878759853 55.5920479 218 222 230
38.371208 0.193593399 55.7602962 218 222 230
38.371208 0.334099025 55.9008018 218 222 230
38.371208 0.502347324 56.0065192 218 222 230
38.371208 0.689901625 56.0721473 218 222 230
38.371208 0.887357172 56.0943952 218 222 230
38.371208 11.7462473 56.0943952 218 222 230
38.371208 11.7462473 48.0502427 218 222 230
18.7487962 33.3922483 0 218 222 230
18.7487962 0 -2.9378646e-17 218 222 230
47.0230731 0 0 218 222 230
47.0230731 33.3922483 0 218 222 230
22.5629752 3.13093773 0 218 222 230
24.4857584 3.352875 0 218 222 230
22.3451134 3.13271483 0 218 222 230
22.1342514 3.18752442 0 218 222 230
21.9431004 3.29206243 0 218 222 230
21.7831836 3.44002699 0 218 222 230
21.6641412 3.62249838 0 218 222 230
21.5931495 3.82847671 0 218 222 230
21.574488 4.045545 0 218 222 230
21.6092817 4.26061776 0 218 222 230
21.6954331 4.46072979 0 218 222 230
22.5967412 6.00040366 -7.10542736e-15 218 222 230
24.063857 6.09576218 7.10542736e-15 218 222 230
23.9116967 6.24912746 0 218 222 230
23.7269846 6.36117706 0 218 222 230
23.5206697 6.4252692 0 218 222 230
23.3049813 6.43760479 0 218 222 230
23.0927044 6.39745263 0 218 222 230
22.8964219 6.30719275 0 218 222 230
22.7277685 6.17217535 0 218 222 230
25.0853321 4.77802559 0 218 222 230
24.6882416 3.40080506 0 218 222 230
24.8739961 3.49457068 0 218 222 230
25.0328079 3.629016 0 218 222 230
25.1559445 3.7967483 0 218 222 230
25.2366349 3.98854453 0 218 222 230
25.2704423 4.19385843 0 218 222 230
25.2555076 4.40140045 0 218 222 230
25.1926522 4.59975852 0 218 222 230
38.371208 0 48.0502427 218 222 230
43.2376886 5.44853288e-32 48.0502427 218 222 230
43.2376886 11.7462473 48.0502427 218 222 230
38.371208 11.7462473 48.0502427 218 222 230
47.0230731 33.3922483 0 255 79 163
47.3079436 33.6771188 0.0469694285 255 79 163
47.5393498 33.9085249 0.16565004 255 79 163
47.7101946 34.0793697 0.325870849 255 79 163
47.7919301 34.1611052 0.444342796 255 79 163
47.8534372 34.2226124 0.574470299 255 79 163
47.8534372 0 0.574470299 255 79 163
47.0230731 0 0 255 79 163
47.2357999 0 0.0258758553 255 79 163
47.4361203 0 0.101994311 255 79 163
47.6123512 0 0.22391605 255 79 163
47.7542147 0 0.384530453 255 79 163
43.2376886 5.44853288e-32 48.0502427 255 79 163
43.2376886 11.7462473 48.0502427 255 79 163
43.4351442 11.7462473 48.0724906 255 79 163
43.6226985 11.7462473 48.1381187 255 79 163
43.7909468 11.7462473 48.2438361 255 79 163
43.9314524 11.7462473 48.3843417 255 79 163
44.0371698 11.7462473 48.55259 255 79 163
44.1027979 11.7462473 48.7401443 255 79 163
44.1250458 11.7462473 48.9375998 255 79 163
44.1250458 0 48.9375998 255 79 163
43.4351442 0 48.0724906 255 79 163
43.6226985 0 48.1381187 255 79 163
43.7909468 0 48.2438361 255 79 163
43.9314524 0 48.3843417 255 79 163
44.0371698 0 48.55259 255 79 163
44.1027979 0 48.7401443 255 79 163
48.0116513 34.2796054 0.887357172 218 222 230
48.2537421 34.2796054 1.17913598 218 222 230
48.5567163 34.2796054 1.40706011 218 222 230
48.9041669 34.2796054 1.55878663 218 222 230
49.277278 34.2796054 1.62609895 218 222 230
49.6558442 34.2796054 1.60535187 218 222 230
50.0193648 34.2796054 1.49766892 218 222 230
50.3481537 34.2796054 1.30888154 218 222 230
50.6244058 34.2796054 1.04921327 218 222 230
50.8331609 34.2796054 0.73272614 218 222 230
50.9631143 34.2796054 0.37655912 218 222 230
51.0072284 34.2796054 2.49401796e-16 218 222 230
47.8534372 34.2226124 0.574470299 218 222 230
47.8971997 34.2548854 0.679366797 218 222 230
47.950131 34.2736284 0.784538128 218 222 230
47.8534372 0 0.574470299 218 222 230
48.0383337 0 0.92714966 218 222 230
48.303262 0 1.2244415 218 222 230
48.6323954 0 1.44858574 218 222 230
49.0060716 0 1.58619209 218 222 230
49.4019674 0 1.62904001 218 222 230
49.7964322 0 1.57456978 218 222 230
50.1659007 0 1.42603544 218 222 230
50.4883011 0 1.19231036 218 222 230
50.7443733 -1.11022302e-16 0.887357172 218 222 230
50.8549334 0.0227335554 0.687785751 218 222 230
50.9260116 0.0851879986 0.507979566 218 222 230
50.9672998 0.174829593 0.358483652 218 222 230
50.9909253 0.291403635 0.229905934 218 222 230
51.0022089 0.428594947 0.127791522 218 222 230
51.006307 0.580391932 0.0547857997 218 222 230
51.0071706 0.731903234 0.0137229099 218 222 230
51.0072284 0.887357172 -1.11022302e-16 218 222 230
44.1250458 0 55.207038 218 222 230
44.1250458 0 48.9375998 218 222 230
44.1250458 11.7462473 48.9375998 218 222 230
44.1250458 11.7462473 55.207038 218 222 230
50.7443733 -1.11022302e-16 0.887357172 255 79 163
50.8549334 0.0227335554 0.687785751 255 79 163
50.9260116 0.0851879986 0.507979566 255 79 163
50.9672998 0.174829593 0.358483652 255 79 163
50.9909253 0.291403635 0.229905934 255 79 163
51.0022089 0.428594947 0.127791522 255 79 163
51.006307 0.580391932 0.0547857997 255 79 163
51.0071706 0.731903234 0.0137229099 255 79 163
51.0072284 0.887357172 -1.11022302e-16 255 79 163
63.8520874 0.887357172 -1.11022302e-16 255 79 163
64.7394446 -1.11022302e-16 0.887357172 255 79 163
64.7272969 0.0121476335 0.741032142 255 79 163
64.6911866 0.0482579397 0.598713397 255 79 163
64.6321023 0.107342242 0.464297532 255 79 163
64.5516617 0.187782849 0.341464767 255 79 163
64.4520672 0.28737735 0.233578185 255 79 163
64.3360456 0.403398912 0.143591649 255 79 163
64.1613415 0.578103051 0.0556332758 255 79 163
64.0091966 0.730247996 0.0140190602 255 79 163
45.0124029 0 56.0943952 255 79 163
45.0124029 11.7462473 56.0943952 255 79 163
44.8149474 11.7462473 56.0721473 255 79 163
44.6273931 11.7462473 56.0065192 255 79 163
44.4591448 11.7462473 55.9008018 255 79 163
44.3186392 11.7462473 55.7602962 255 79 163
44.2129218 11.7462473 55.5920479 255 79 163
44.1472937 11.7462473 55.4044936 255 79 163
44.1250458 11.7462473 55.207038 255 79 163
44.1250458 0 55.207038 255 79 163
44.8149474 0 56.0721473 255 79 163
44.6273931 0 56.0065192 255 79 163
44.4591448 0 55.9008018 255 79 163
44.3186392 0 55.7602962 255 79 163
44.2129218 0 55.5920479 255 79 163
44.1472937 0 55.4044936 255 79 163
64.7394446 0 56.0943952 218 222 230
64.7394446 7.19812624 56.0943952 218 222 230
64.7394446 -1.11022302e-16 0.887357172 218 222 230
64.7394446 33.3922483 0.887357172 218 222 230
64.7394446 33.3922483 12.9804812 218 222 230
64.7394446 8.97284059 12.9804812 218 222 230
64.7394446 8.08548342 13.8678384 218 222 230
64.7394446 8.10773131 13.6703829 218 222 230
64.7394446 8.1733594 13.4828286 218 222 230
64.7394446 8.27907681 13.3145803 218 222 230
64.7394446 8.41958244 13.1740746 218 222 230
64.7394446 8.58783074 13.0683572 218 222 230
64.7394446 8.77538504 13.0027291 218 222 230
64.7394446 8.08548342 55.207038 218 222 230
64.7394446 7.39558179 56.0721473 218 222 230
64.7394446 7.58313609 56.0065192 218 222 230
64.7394446 7.75138439 55.9008018 218 222 230
64.7394446 7.89189002 55.7602962 218 222 230
64.7394446 7.99760743 55.5920479 218 222 230
64.7394446 8.06323552 55.4044936 218 222 230
0.887357172 34.2796054 56.0943952 218 222 230
37.6579654 34.2796054 56.0943952 218 222 230
0.887357172 0.887357172 56.0943952 218 222 230
38.371208 0.887357172 56.0943952 218 222 230
38.371208 11.7462473 56.0943952 218 222 230
44.1250458 11.7462473 56.0943952 218 222 230
45.0124029 11.7462473 56.0943952 218 222 230
45.0124029 0 56.0943952 218 222 230
64.7394446 0 56.0943952 218 222 230
64.7394446 7.19812624 56.0943952 218 222 230
37.8063205 31.44882 56.0943952 218 222 230
38.2497607 28.6490493 56.0943952 218 222 230
38.9834273 25.9109681 56.0943952 218 222 230
39.9992822 23.2645755 56.0943952 218 222 230
41.2861956 20.7388658 56.0943952 218 222 230
42.8300676 18.3615114 56.0943952 218 222 230
44.6139834 16.1585588 56.0943952 218 222 230
46.618398 14.1541443 56.0943952 218 222 230
48.8213505 12.3702285 56.0943952 218 222 230
51.198705 10.8263565 56.0943952 218 222 230
53.7244146 9.53944313 56.0943952 218 222 230
56.3708073 8.52358818 56.0943952 218 222 230
59.1088884 7.78992154 56.0943952 218 222 230
61.9086592 7.34648142 56.0943952 218 222 230
22.5629752 3.13093773 56.0943952 218 222 230
24.4857584 3.352875 56.0943952 218 222 230
22.3451134 3.13271483 56.0943952 218 222 230
22.1342514 3.18752442 56.0943952 218 222 230
21.9431004 3.29206243 56.0943952 218 222 230
21.7831836 3.44002699 56.0943952 218 222 230
21.6641412 3.62249838 56.0943952 218 222 230
21.5931495 3.82847671 56.0943952 218 222 230
21.574488 4.045545 56.0943952 218 222 230
21.6092817 4.26061776 56.0943952 218 222 230
21.6954331 4.46072979 56.0943952 218 222 230
22.5967412 6.00040366 56.0943952 218 222 230
24.063857 6.09576218 56.0943952 218 222 230
23.9116967 6.24912746 56.0943952 218 222 230
23.7269846 6.36117706 56.0943952 218 222 230
23.5206697 6.4252692 56.0943952 218 222 230
23.3049813 6.43760479 56.0943952 218 222 230
23.0927044 6.39745263 56.0943952 218 222 230
22.8964219 6.30719275 56.0943952 218 222 230
22.7277685 6.17217535 56.0943952 218 222 230
25.0853321 4.77802559 56.0943952 218 222 230
24.6882416 3.40080506 56.0943952 218 222 230
24.8739961 3.49457068 56.0943952 218 222 230
25.0328079 3.629016 56.0943952 218 222 230
25.1559445 3.7967483 56.0943952 218 222 230
25.2366349 3.98854453 56.0943952 218 222 230
25.2704423 4.19385843 56.0943952 218 222 230
25.2555076 4.40140045 56.0943952 218 222 230
25.1926522 4.59975852 56.0943952 218 222 230
45.3386667 34.2796054 7.68618509 218 222 230
45.9189396 34.2796054 4.49189281 218 222 230
45.3386667 0 7.68618509 218 222 230
45.9189396 0 4.49189281 218 222 230
45.9189396 34.2796054 4.49189281 218 222 230
43.0110311 34.2796054 5.36844673 218 222 230
45.9189396 0 4.49189281 218 222 230
43.0110311 0 5.36844673 218 222 230
43.0110311 34.2796054 5.36844673 218 222 230
45.3386667 34.2796054 7.68618509 218 222 230
43.0110311 0 5.36844673 218 222 230
45.3386667 0 7.68618509 218 222 230
51.0072284 34.2796054 2.49401796e-16 218 222 230
63.8520874 34.2796054 -1.11022302e-16 218 222 230
51.0072284 0.887357172 -1.11022302e-16 218 222 230
63.8520874 0.887357172 -1.11022302e-16 218 222 230
63.8520874 34.2796054 -1.11022302e-16 255 79 163
63.8520874 34.2796054 12.9804812 255 79 163
64.0495429 34.2573575 12.9804812 255 79 163
64.2370972 34.1917295 12.9804812 255 79 163
64.4053455 34.086012 12.9804812 255 79 163
64.5458512 33.9455064 12.9804812 255 79 163
64.6515686 33.7772581 12.9804812 255 79 163
64.7171967 33.5897038 12.9804812 255 79 163
64.7394446 33.3922483 12.9804812 255 79 163
64.7394446 33.3922483 0.887357172 255 79 163
63.9984124 34.2674578 0.0121476335 255 79 163
64.1407312 34.2313475 0.0482579397 255 79 163
64.275147 34.1722632 0.107342242 255 79 163
64.3979798 34.0918226 0.187782849 255 79 163
64.5058664 33.9922281 0.28737735 255 79 163
64.5958529 33.8762065 0.403398912 255 79 163
64.6838113 33.7015024 0.578103051 255 79 163
64.7254255 33.5493575 0.730247996 255 79 163
64.7394446 8.97284059 12.9804812 218 222 230
64.7394446 33.3922483 12.9804812 218 222 230
63.8520874 34.2796054 12.9804812 218 222 230
64.0495429 34.2573575 12.9804812 218 222 230
64.2370972 34.1917295 12.9804812 218 222 230
64.4053455 34.086012 12.9804812 218 222 230
64.5458512 33.9455064 12.9804812 218 222 230
64.6515686 33.7772581 12.9804812 218 222 230
64.7171967 33.5897038 12.9804812 218 222 230
39.4326797 34.2796054 12.9804812 218 222 230
39.5918033 31.4461468 12.9804812 218 222 230
40.0671731 28.6483205 12.9804812 218 222 230
40.8528111 25.9213109 12.9804812 218 222 230
41.9388373 23.2994117 12.9804812 218 222 230
43.3115943 20.8155948 12.9804812 218 222 230
44.9538191 18.5010956 12.9804812 218 222 230
46.8448595 16.3850204 12.9804812 218 222 230
48.9609347 14.49398 12.9804812 218 222 230
51.2754339 12.8517552 12.9804812 218 222 230
53.7592508 11.4789982 12.9804812 218 222 230
56.38115 10.392972 12.9804812 218 222 230
59.1081596 9.60733402 12.9804812 218 222 230
61.9059859 9.13196421 12.9804812 218 222 230
18.7487962 33.3922483 0 255 79 163
47.0230731 33.3922483 0 255 79 163
19.5598641 34.2796054 0.887357172 255 79 163
19.3499443 34.2493695 0.657692236 255 79 163
19.1543301 34.1607221 0.443678586 255 79 163
18.9863525 34.0197045 0.259900898 255 79 163
18.868315 33.8558911 0.130760807 255 79 163
18.7946116 33.6862633 0.0501248864 255 79 163
18.7603321 33.5413769 0.0126209763 255 79 163
48.0116513 34.2796054 0.887357172 255 79 163
47.8534372 34.2226124 0.574470299 255 79 163
47.8971997 34.2548854 0.679366797 255 79 163
47.950131 34.2736284 0.784538128 255 79 163
47.3079436 33.6771188 0.0469694285 255 79 163
47.5393498 33.9085249 0.16565004 255 79 163
47.7101946 34.0793697 0.325870849 255 79 163
47.7919301 34.1611052 0.444342796 255 79 163
39.4326797 34.2796054 12.9804812 255 79 163
39.4326797 34.2796054 12.9804812 255 79 163
37.6725069 34.2796054 13.8678384 255 79 163
37.682139 34.2796054 13.7867193 255 79 163
37.7087557 34.2796054 13.7094283 255 79 163
37.7483208 34.2796054 13.6377885 255 79 163
37.8150724 34.2796054 13.5515533 255 79 163
37.9344157 34.2796054 13.4396717 255 79 163
38.138224 34.2796054 13.3028644 255 79 163
38.4730418 34.2796054 13.150022 255 79 163
38.8718153 34.2796054 13.0379958 255 79 163
39.1508152 34.2796054 12.9952215 255 79 163
37.8754123 34.2560955 13.8678384 255 79 163
38.067566 34.1868117 13.8678384 255 79 163
38.2387861 34.0754251 13.8678384 255 79 163
38.38 33.927838 13.8678384 255 79 163
38.4837248 33.7518708 13.8678384 255 79 163
38.5374925 33.590245 13.8678384 255 79 163
38.5593876 33.4213236 13.8678384 255 79 163
38.5851324 33.564687 13.6389037 255 79 163
38.6697647 33.7091049 13.4253444 255 79 163
38.8075218 33.8536097 13.2415849 255 79 163
38.9891322 33.9973065 13.100184 255 79 163
39.2023484 34.1394665 13.0109994 255 79 163
37.9348826 34.2577193 13.6332228 255 79 163
38.1026291 34.1995076 13.6441128 255 79 163
38.2521084 34.1113543 13.6549463 255 79 163
38.0892229 34.25891 13.447595 255 79 163
38.3773244 33.9964276 13.6655958 255 79 163
38.2289169 34.2071619 13.4619695 255 79 163
38.4746028 33.8573802 13.6759799 255 79 163
38.3532756 34.1320981 13.4768107 255 79 163
38.5411404 33.6985346 13.6859712 255 79 163
38.4572218 34.0357809 13.4915569 255 79 163
38.5376706 33.9186604 13.5055167 255 79 163
38.4911653 34.2649097 13.186074 255 79 163
38.5927169 33.7829252 13.5181285 255 79 163
38.5755619 34.2296537 13.1954911 255 79 163
38.651426 34.180106 13.2062603 255 79 163
38.7148503 34.1173166 13.2173807 255 79 163
38.7626357 34.040672 13.2273771 255 79 163
38.7932222 33.9508461 13.2352486 255 79 163
39.0548313 34.1997211 13.0420877 255 79 163
39.0246777 34.2314141 13.0386036 255 79 163
39.0767353 34.1612122 13.0450791 255 79 163
39.0890107 34.116647 13.0470835 255 79 163
38.7491738 34.2694695 13.086209 255 79 163
38.9495277 34.2729245 13.0330005 255 79 163
38.9887644 34.2560544 13.0354098 255 79 163
39.075737 34.2692155 13.0122722 255 79 163
39.0605957 34.2747179 13.0116541 255 79 163
38.9695949 34.2779812 13.0240802 255 79 163
39.1034129 34.2785358 13.0026386 255 79 163
39.1100261 34.2772695 13.0028265 255 79 163
19.5163636 34.2796054 1.37060476 255 79 163
19.5598641 34.2796054 0.887357172 255 79 163
19.3499443 34.2493695 0.657692236 255 79 163
19.1543301 34.1607221 0.443678586 255 79 163
18.9863525 34.0197045 0.259900898 255 79 163
18.868315 33.8558911 0.130760807 255 79 163
18.7946116 33.6862633 0.0501248864 255 79 163
18.7603321 33.5413769 0.0126209763 255 79 163
18.7487962 33.3922483 0 255 79 163
18.6325799 33.3922483 1.29104928 255 79 163
19.3197032 34.2573575 1.352902 255 79 163
19.1329042 34.1917295 1.33608693 255 79 163
18.9653335 34.086012 1.32100273 255 79 163
18.8253937 33.9455064 1.30840578 255 79 163
18.720102 33.7772581 1.29892775 255 79 163
18.6547382 33.5897038 1.2930439 255 79 163
38.5593876 33.4213236 55.207038 255 79 163
38.4993914 33.7142186 55.5063993 255 79 163
38.3757974 33.9333446 55.7318038 255 79 163
38.2199417 34.0906163 55.8943092 255 79 163
38.1017459 34.1688799 55.9755859 255 79 163
37.9522303 34.2343632 56.0441959 255 79 163
37.8153554 34.268032 56.080326 255 79 163
37.6725069 34.2796054 56.094276 255 79 163
38.5593876 33.4213236 13.8678384 255 79 163
37.6725069 34.2796054 13.8678384 255 79 163
37.8754123 34.2560955 13.8678384 255 79 163
38.067566 34.1868117 13.8678384 255 79 163
38.2387861 34.0754251 13.8678384 255 79 163
38.38 33.927838 13.8678384 255 79 163
38.4837248 33.7518708 13.8678384 255 79 163
38.5374925 33.590245 13.8678384 255 79 163
18.6325799 33.3922483 1.29104928 255 79 163
18.5863541 33.3922483 1.50457987 255 79 163
18.4893558 33.3922483 1.70034367 255 79 163
18.3474649 33.3922483 1.86647352 255 79 163
18.169283 33.3922483 1.99289868 255 79 163
17.9656112 33.3922483 2.07195529 255 79 163
17.7487962 33.3922483 2.09885097 255 79 163
17.5319811 33.3922483 2.07195529 255 79 163
17.3283094 33.3922483 1.99289868 255 79 163
17.1501274 33.3922483 1.86647352 255 79 163
17.0082365 33.3922483 1.70034367 255 79 163
16.9112382 33.3922483 1.50457987 255 79 163
16.8650124 33.3922483 1.29104928 255 79 163
15.9812287 34.2796054 1.37060476 255 79 163
16.1778891 34.2573575 1.352902 255 79 163
16.3646881 34.1917295 1.33608693 255 79 163
16.5322589 34.086012 1.32100273 255 79 163
16.6721987 33.9455064 1.30840578 255 79 163
16.7774903 33.7772581 1.29892775 255 79 163
16.8428541 33.5897038 1.2930439 255 79 163
19.5163636 34.2796054 1.37060476 255 79 163
19.423912 34.2796054 1.79766595 255 79 163
19.2299154 34.2796054 2.18919354 255 79 163
18.9461337 34.2796054 2.52145325 255 79 163
18.5897698 34.2796054 2.77430357 255 79 163
18.1824262 34.2796054 2.93241679 255 79 163
17.7487962 34.2796054 2.98620814 255 79 163
17.3151661 34.2796054 2.93241679 255 79 163
16.9078226 34.2796054 2.77430357 255 79 163
16.5514586 34.2796054 2.52145325 255 79 163
16.2676769 34.2796054 2.18919354 255 79 163
16.0736803 34.2796054 1.79766595 255 79 163
19.3197032 34.2573575 1.352902 255 79 163
19.1329042 34.1917295 1.33608693 255 79 163
18.9653335 34.086012 1.32100273 255 79 163
18.8253937 33.9455064 1.30840578 255 79 163
18.720102 33.7772581 1.29892775 255 79 163
18.6547382 33.5897038 1.2930439 255 79 163
16.2600545 34.2573575 1.73244816 255 79 163
16.4370831 34.1917295 1.67050067 255 79 163
16.4324669 34.2573575 2.08041421 255 79 163
16.5958891 34.086012 1.61492977 255 79 163
16.5889937 34.1917295 1.97708953 255 79 163
16.7285095 33.9455064 1.56852203 255 79 163
16.6846749 34.2573575 2.37570655 255 79 163
16.7294083 34.086012 1.88440063 255 79 163
16.8282939 33.7772581 1.53360452 255 79 163
16.8112113 34.1917295 2.23726819 255 79 163
16.8466698 33.9455064 1.80699532 255 79 163
17.0013897 34.2573575 2.60042462 255 79 163
16.8902389 33.5897038 1.51192815 255 79 163
16.9247225 34.086012 2.11308007 255 79 163
16.9348981 33.7772581 1.74875503 255 79 163
17.0902649 34.1917295 2.43526469 255 79 163
17.0195167 33.9455064 2.00936948 255 79 163
17.363412 34.2573575 2.7409461 255 79 163
16.9896692 33.5897038 1.71260016 255 79 163
17.1699918 34.086012 2.28710559 255 79 163
17.0908405 33.7772581 1.9313369 255 79 163
17.4092386 34.1917295 2.55907654 255 79 163
17.2365724 33.9455064 2.16337663 255 79 163
17.7487962 34.2573575 2.78875259 255 79 163
17.1351175 33.5897038 1.88289523 255 79 163
17.4503481 34.086012 2.39592782 255 79 163
17.2866681 33.7772581 2.07028209 255 79 163
17.7487962 34.1917295 2.60119829 255 79 163
17.4846789 33.9455064 2.2596809 255 79 163
18.1341804 34.2573575 2.7409461 255 79 163
17.3177669 33.5897038 2.01249013 255 79 163
17.7487962 34.086012 2.43294999 255 79 163
17.5105097 33.7772581 2.15716777 255 79 163
18.0883537 34.1917295 2.55907654 255 79 163
17.7487962 33.9455064 2.29244437 255 79 163
18.4962027 34.2573575 2.60042462 255 79 163
17.5265451 33.5897038 2.09352886 255 79 163
18.0472443 34.086012 2.39592782 255 79 163
17.7487962 33.7772581 2.18672695 255 79 163
18.4073274 34.1917295 2.43526469 255 79 163
18.0129134 33.9455064 2.2596809 255 79 163
18.8129174 34.2573575 2.37570655 255 79 163
17.7487962 33.5897038 2.12109886 255 79 163
18.3276005 34.086012 2.28710559 255 79 163
17.9870826 33.7772581 2.15716777 255 79 163
18.6863811 34.1917295 2.23726819 255 79 163
18.26102 33.9455064 2.16337663 255 79 163
19.0651254 34.2573575 2.08041421 255 79 163
17.9710472 33.5897038 2.09352886 255 79 163
18.5728698 34.086012 2.11308007 255 79 163
18.2109243 33.7772581 2.07028209 255 79 163
18.9085986 34.1917295 1.97708953 255 79 163
18.4780756 33.9455064 2.00936948 255 79 163
19.2375379 34.2573575 1.73244816 255 79 163
18.1798255 33.5897038 2.01249013 255 79 163
18.768184 34.086012 1.88440063 255 79 163
18.4067518 33.7772581 1.9313369 255 79 163
19.0605093 34.1917295 1.67050067 255 79 163
18.6509226 33.9455064 1.80699532 255 79 163
18.3624748 33.5897038 1.88289523 255 79 163
18.9017032 34.086012 1.61492977 255 79 163
18.5626942 33.7772581 1.74875503 255 79 163
18.7690829 33.9455064 1.56852203 255 79 163
18.5079232 33.5897038 1.71260016 255 79 163
18.6692984 33.7772581 1.53360452 255 79 163
18.6073534 33.5897038 1.51192815 255 79 163
38.5593876 33.4213236 55.207038 255 79 163
38.4993914 33.7142186 55.5063993 255 79 163
38.3757974 33.9333446 55.7318038 255 79 163
38.2199417 34.0906163 55.8943092 255 79 163
38.1017459 34.1688799 55.9755859 255 79 163
37.9522303 34.2343632 56.0441959 255 79 163
37.8153554 34.268032 56.080326 255 79 163
37.6725069 34.2796054 56.094276 255 79 163
37.6579654 34.2796054 56.0943952 255 79 163
37.8063205 31.44882 56.0943952 255 79 163
38.2497607 28.6490493 56.0943952 255 79 163
38.9834273 25.9109681 56.0943952 255 79 163
39.9992822 23.2645755 56.0943952 255 79 163
41.2861956 20.7388658 56.0943952 255 79 163
42.8300676 18.3615114 56.0943952 255 79 163
44.6139834 16.1585588 56.0943952 255 79 163
46.618398 14.1541443 56.0943952 255 79 163
48.8213505 12.3702285 56.0943952 255 79 163
51.198705 10.8263565 56.0943952 255 79 163
53.7244146 9.53944313 56.0943952 255 79 163
56.3708073 8.52358818 56.0943952 255 79 163
59.1088884 7.78992154 56.0943952 255 79 163
61.9086592 7.34648142 56.0943952 255 79 163
64.7394446 7.19812624 56.0943952 255 79 163
64.7394446 7.39558179 56.0721473 255 79 163
64.7394446 7.58313609 56.0065192 255 79 163
64.7394446 7.75138439 55.9008018 255 79 163
64.7394446 7.89189002 55.7602962 255 79 163
64.7394446 7.99760743 55.5920479 255 79 163
64.7394446 8.06323552 55.4044936 255 79 163
64.7394446 8.08548342 55.207038 255 79 163
38.8113123 30.5561679 55.207038 255 79 163
39.3758483 27.735905 55.207038 255 79 163
40.2461891 24.9945385 55.207038 255 79 163
41.4118412 22.3651205 55.207038 255 79 163
42.8587504 19.8793536 55.207038 255 79 163
44.5694716 17.5672082 55.207038 255 79 163
46.523379 15.4565615 55.207038 255 79 163
48.6969145 13.5728612 55.207038 255 79 163
51.0638722 11.9388187 55.207038 255 79 163
53.5957141 10.5741356 55.207038 255 79 163
56.2619142 9.49526548 55.207038 255 79 163
59.0303265 8.71521616 55.207038 255 79 163
61.8675727 8.24339257 55.207038 255 79 163
38.05731 33.4048636 56.0065192 255 79 163
38.225468 33.4103764 55.9008018 255 79 163
38.3658982 33.4149803 55.7602962 255 79 163
38.4715588 33.4184442 55.5920479 255 79 163
38.5371517 33.4205946 55.4044936 255 79 163
37.9628459 31.4652715 56.080326 255 79 163
38.1892213 31.4890645 56.0065192 255 79 163
38.3565479 31.5066513 55.9008018 255 79 163
38.4962838 31.5213381 55.7602962 255 79 163
38.6014221 31.5323886 55.5920479 255 79 163
38.6666906 31.5392486 55.4044936 255 79 163
38.4806059 30.5086764 55.9008018 255 79 163
38.6196848 30.528649 55.7602962 255 79 163
38.7243287 30.5436765 55.5920479 255 79 163
38.7892903 30.5530054 55.4044936 255 79 163
38.4037089 28.681772 56.080326 255 79 163
38.6263571 28.7290974 56.0065192 255 79 163
38.7909288 28.7640782 55.9008018 255 79 163
38.928364 28.7932909 55.7602962 255 79 163
39.0317713 28.8152708 55.5920479 255 79 163
39.0959652 28.8289156 55.4044936 255 79 163
39.0523424 27.6524418 55.9008018 255 79 163
39.1883931 27.6875423 55.7602962 255 79 163
39.2907586 27.7139522 55.5920479 255 79 163
39.3543058 27.7303471 55.4044936 255 79 163
39.1331117 25.9596036 56.080326 255 79 163
39.3495934 26.0299427 56.0065192 255 79 163
39.5096071 26.0819343 55.9008018 255 79 163
39.6432358 26.1253529 55.7602962 255 79 163
39.7437791 26.1580214 55.5920479 255 79 163
39.8061951 26.1783016 55.4044936 255 79 163
39.9337842 24.8761099 55.9008018 255 79 163
40.0651664 24.9259152 55.7602962 255 79 163
40.1640192 24.963389 55.5920479 255 79 163
40.2253859 24.9866522 55.4044936 255 79 163
40.1430629 23.3285908 56.080326 255 79 163
40.3510062 23.4211731 56.0065192 255 79 163
40.5047087 23.4896059 55.9008018 255 79 163
40.633067 23.5467547 55.7602962 255 79 163
40.7296447 23.5897538 55.5920479 255 79 163
40.7895989 23.6164471 55.4044936 255 79 163
41.1143039 22.2131545 55.9008018 255 79 163
41.2394334 22.2770639 55.7602962 255 79 163
41.3335818 22.3251498 55.5920479 255 79 163
41.392028 22.355001 55.4044936 255 79 163
41.4224972 20.8175596 56.080326 255 79 163
41.6196239 20.9313708 56.0065192 255 79 163
41.7653312 21.0154949 55.9008018 255 79 163
41.8870126 21.0857477 55.7602962 255 79 163
41.9785666 21.1386064 55.5920479 255 79 163
42.0354022 21.1714205 55.4044936 255 79 163
42.579668 19.6956822 55.9008018 255 79 163
42.6970364 19.7729254 55.7602962 255 79 163
42.7853451 19.8310437 55.5920479 255 79 163
42.8401661 19.8671228 55.4044936 255 79 163
42.9573969 18.4540214 56.080326 255 79 163
43.1415472 18.5878145 56.0065192 255 79 163
43.2776629 18.6867083 55.9008018 255 79 163
43.3913343 18.7692955 55.7602962 255 79 163
43.4768615 18.8314346 55.5920479 255 79 163
43.5299558 18.8700098 55.4044936 255 79 163
44.312209 17.354046 55.9008018 255 79 163
44.420401 17.4436916 55.7602962 255 79 163
44.5018055 17.5111415 55.5920479 255 79 163
44.5523403 17.5530136 55.4044936 255 79 163
44.7309452 16.2638717 56.080326 255 79 163
44.9001015 16.4161807 56.0065192 255 79 163
45.0251344 16.5287608 55.9008018 255 79 163
45.1295504 16.6227774 55.7602962 255 79 163
45.2081137 16.6935162 55.5920479 255 79 163
45.2568849 16.7374299 55.4044936 255 79 163
46.2910379 15.2164786 55.9008018 255 79 163
46.3887492 15.3174456 55.7602962 255 79 163
46.4622678 15.393414 55.5920479 255 79 163
46.7237108 14.2711061 56.080326 255 79 163
46.5079072 15.4405742 55.4044936 255 79 163
46.8760198 14.4402624 56.0065192 255 79 163
46.9885999 14.5652952 55.9008018 255 79 163
47.0826165 14.6697113 55.7602962 255 79 163
47.1533553 14.7482746 55.5920479 255 79 163
47.1972691 14.7970458 55.4044936 255 79 163
48.2498463 12.9958121 56.080326 255 79 163
48.389253 13.17575 56.0065192 255 79 163
48.4922963 13.3087522 55.9008018 255 79 163
48.5783487 13.4198234 55.7602962 255 79 163
48.9138606 12.4975577 56.080326 255 79 163
48.6430951 13.5033942 55.5920479 255 79 163
48.6832888 13.555274 55.4044936 255 79 163
49.0476536 12.681708 56.0065192 255 79 163
49.1465475 12.8178238 55.9008018 255 79 163
49.2291346 12.9314952 55.7602962 255 79 163
49.2912737 13.0170224 55.5920479 255 79 163
49.3298489 13.0701166 55.4044936 255 79 163
50.6827656 11.3162327 56.080326 255 79 163
50.801604 11.5103702 56.0065192 255 79 163
50.889444 11.653868 55.9008018 255 79 163
50.9627999 11.7737043 55.7602962 255 79 163
51.2773987 10.9626581 56.080326 255 79 163
51.0179934 11.8638699 55.5920479 255 79 163
51.3912099 11.1597848 56.0065192 255 79 163
51.0522569 11.9198437 55.4044936 255 79 163
51.475334 11.3054921 55.9008018 255 79 163
51.5455868 11.4271735 55.7602962 255 79 163
51.5984455 11.5187275 55.5920479 255 79 163
51.6312596 11.5755631 55.4044936 255 79 163
53.2851641 9.91351896 56.080326 255 79 163
53.3820012 10.1195153 56.0065192 255 79 163
53.4535788 10.2717787 55.9008018 255 79 163
53.5133539 10.3989351 55.7602962 255 79 163
53.5583292 10.4946085 55.5920479 255 79 163
53.5862492 10.5540014 55.4044936 255 79 163
56.0993333 9.01995476 56.0065192 255 79 163
56.1537855 9.17914785 55.9008018 255 79 163
56.1992591 9.31209138 55.7602962 255 79 163
56.2334738 9.41211903 55.5920479 255 79 163
56.2547138 9.47421497 55.4044936 255 79 163
58.9208378 8.22494577 56.0065192 255 79 163
58.9575082 8.38914921 55.9008018 255 79 163
58.988132 8.52627694 55.7602962 255 79 163
59.0111735 8.6294528 55.5920479 255 79 163
59.0254774 8.69350313 55.4044936 255 79 163
61.7875402 7.51782352 56.080326 255 79 163
61.8124963 7.74407361 56.0065192 255 79 163
61.8309427 7.91130764 55.9008018 255 79 163
61.8463475 8.05096624 55.7602962 255 79 163
61.8579381 8.15604634 55.5920479 255 79 163
61.8651334 8.2212788 55.4044936 255 79 163
15.8578511 34.2796054 1.38777878e-17 255 79 163
15.9812287 34.2796054 1.37060476 255 79 163
16.1778891 34.2573575 1.352902 255 79 163
16.3646881 34.1917295 1.33608693 255 79 163
16.5322589 34.086012 1.32100273 255 79 163
16.6721987 33.9455064 1.30840578 255 79 163
16.7774903 33.7772581 1.29892775 255 79 163
16.8428541 33.5897038 1.2930439 255 79 163
16.8650124 33.3922483 1.29104928 255 79 163
16.7487962 33.3922483 9.71445147e-17 255 79 163
16.0658381 34.2550877 0 255 79 163
16.2623317 34.1828893 0 255 79 163
16.4364736 34.067 0 255 79 163
16.5786408 33.9138237 0 255 79 163
16.680977 33.7318252 0 255 79 163
16.7316769 33.5653631 0 255 79 163
16.7487962 33.3922483 9.71445147e-17 218 222 230
16.7487962 0.887357172 -1.38777878e-17 218 222 230
16.8650124 0.887357172 1.29104928 218 222 230
16.8650124 33.3922483 1.29104928 218 222 230
16.8650124 0.887357172 1.29104928 255 79 163
16.9101806 0.814497391 1.50153988 255 79 163
17.0047097 0.741637611 1.6949584 255 79 163
17.1430356 0.668777831 1.85992023 255 79 163
17.3170164 0.59591805 1.98671584 255 79 163
17.5164119 0.52305827 2.06788171 255 79 163
17.7294854 0.450198489 2.09864085 255 79 163
17.9436957 0.377338709 2.07718265 255 79 163
18.146434 0.304478928 2.00476977 255 79 163
18.3257676 0.231619148 1.88566505 255 79 163
18.4711405 0.158759367 1.72687849 255 79 163
18.5739964 0.0858995868 1.53775649 255 79 163
18.6121458 0.0429497934 1.41650625 255 79 163
18.6325799 0 1.29104928 255 79 163
18.6325799 33.3922483 1.29104928 255 79 163
18.5863541 33.3922483 1.50457987 255 79 163
18.4893558 33.3922483 1.70034367 255 79 163
18.3474649 33.3922483 1.86647352 255 79 163
18.169283 33.3922483 1.99289868 255 79 163
17.9656112 33.3922483 2.07195529 255 79 163
17.7487962 33.3922483 2.09885097 255 79 163
17.5319811 33.3922483 2.07195529 255 79 163
17.3283094 33.3922483 1.99289868 255 79 163
17.1501274 33.3922483 1.86647352 255 79 163
17.0082365 33.3922483 1.70034367 255 79 163
16.9112382 33.3922483 1.50457987 255 79 163
16.8650124 33.3922483 1.29104928 255 79 163
44.1250458 11.7462473 55.207038 218 222 230
44.1250458 11.7462473 48.9375998 218 222 230
43.2376886 11.7462473 48.0502427 218 222 230
43.4351442 11.7462473 48.0724906 218 222 230
43.6226985 11.7462473 48.1381187 218 222 230
43.7909468 11.7462473 48.2438361 218 222 230
43.9314524 11.7462473 48.3843417 218 222 230
44.0371698 11.7462473 48.55259 218 222 230
44.1027979 11.7462473 48.7401443 218 222 230
38.371208 11.7462473 48.0502427 218 222 230
38.371208 11.7462473 56.0943952 218 222 230
44.1250458 11.7462473 56.0943952 218 222 230
45.0124029 11.7462473 56.0943952 218 222 230
44.8149474 11.7462473 56.0721473 218 222 230
44.6273931 11.7462473 56.0065192 218 222 230
44.4591448 11.7462473 55.9008018 218 222 230
44.3186392 11.7462473 55.7602962 218 222 230
44.2129218 11.7462473 55.5920479 218 222 230
44.1472937 11.7462473 55.4044936 218 222 230
22.5629752 3.13093773 56.0943952 218 222 230
24.4857584 3.352875 56.0943952 218 222 230
22.5629752 3.13093773 0 218 222 230
24.4857584 3.352875 0 218 222 230
22.5629752 3.13093773 56.0943952 255 79 163
22.3451134 3.13271483 56.0943952 255 79 163
22.1342514 3.18752442 56.0943952 255 79 163
21.9431004 3.29206243 56.0943952 255 79 163
21.7831836 3.44002699 56.0943952 255 79 163
21.6641412 3.62249838 56.0943952 255 79 163
21.5931495 3.82847671 56.0943952 255 79 163
21.574488 4.045545 56.0943952 255 79 163
21.6092817 4.26061776 56.0943952 255 79 163
21.6954331 4.46072979 56.0943952 255 79 163
21.6954331 4.46072979 0 255 79 163
22.5629752 3.13093773 0 255 79 163
22.3451134 3.13271483 0 255 79 163
22.1342514 3.18752442 0 255 79 163
21.9431004 3.29206243 0 255 79 163
21.7831836 3.44002699 0 255 79 163
21.6641412 3.62249838 0 255 79 163
21.5931495 3.82847671 0 255 79 163
21.574488 4.045545 0 255 79 163
21.6092817 4.26061776 0 255 79 163
24.4857584 3.352875 56.0943952 255 79 163
24.4857584 3.352875 0 255 79 163
24.6882416 3.40080506 0 255 79 163
24.8739961 3.49457068 0 255 79 163
25.0328079 3.629016 0 255 79 163
25.1559445 3.7967483 0 255 79 163
25.2366349 3.98854453 0 255 79 163
25.2704423 4.19385843 0 255 79 163
25.2555076 4.40140045 0 255 79 163
25.1926522 4.59975852 0 255 79 163
25.0853321 4.77802559 0 255 79 163
25.0853321 4.77802559 56.0943952 255 79 163
24.6882416 3.40080506 56.0943952 255 79 163
24.8739961 3.49457068 56.0943952 255 79 163
25.0328079 3.629016 56.0943952 255 79 163
25.1559445 3.7967483 56.0943952 255 79 163
25.2366349 3.98854453 56.0943952 255 79 163
25.2704423 4.19385843 56.0943952 255 79 163
25.2555076 4.40140045 56.0943952 255 79 163
25.1926522 4.59975852 56.0943952 255 79 163
22.5967412 6.00040366 56.0943952 218 222 230
21.6954331 4.46072979 56.0943952 218 222 230
22.5967412 6.00040366 -7.10542736e-15 218 222 230
21.6954331 4.46072979 0 218 222 230
25.0853321 4.77802559 56.0943952 218 222 230
24.063857 6.09576218 56.0943952 218 222 230
25.0853321 4.77802559 0 218 222 230
24.063857 6.09576218 7.10542736e-15 218 222 230
24.063857 6.09576218 56.0943952 255 79 163
24.063857 6.09576218 7.10542736e-15 255 79 163
23.9116967 6.24912746 0 255 79 163
23.7269846 6.36117706 0 255 79 163
23.5206697 6.4252692 0 255 79 163
23.3049813 6.43760479 0 255 79 163
23.0927044 6.39745263 0 255 79 163
22.8964219 6.30719275 0 255 79 163
22.7277685 6.17217535 0 255 79 163
22.5967412 6.00040366 -7.10542736e-15 255 79 163
22.5967412 6.00040366 56.0943952 255 79 163
23.9116967 6.24912746 56.0943952 255 79 163
23.7269846 6.36117706 56.0943952 255 79 163
23.5206697 6.4252692 56.0943952 255 79 163
23.3049813 6.43760479 56.0943952 255 79 163
23.0927044 6.39745263 56.0943952 255 79 163
22.8964219 6.30719275 56.0943952 255 79 163
22.7277685 6.17217535 56.0943952 255 79 163
63.8520874 0.887357172 -1.11022302e-16 255 79 163
63.8520874 34.2796054 -1.11022302e-16 255 79 163
63.9984124 34.2674578 0.0121476335 255 79 163
64.1407312 34.2313475 0.0482579397 255 79 163
64.275147 34.1722632 0.107342242 255 79 163
64.3979798 34.0918226 0.187782849 255 79 163
64.5058664 33.9922281 0.28737735 255 79 163
64.5958529 33.8762065 0.403398912 255 79 163
64.6838113 33.7015024 0.578103051 255 79 163
64.7254255 33.5493575 0.730247996 255 79 163
64.7394446 33.3922483 0.887357172 255 79 163
64.7394446 -1.11022302e-16 0.887357172 255 79 163
64.7272969 0.0121476335 0.741032142 255 79 163
64.6911866 0.0482579397 0.598713397 255 79 163
64.6321023 0.107342242 0.464297532 255 79 163
64.5516617 0.187782849 0.341464767 255 79 163
64.4520672 0.28737735 0.233578185 255 79 163
64.3360456 0.403398912 0.143591649 255 79 163
64.1613415 0.578103051 0.0556332758 255 79 163
64.0091966 0.730247996 0.0140190602 255 79 163
64.7394446 8.08548342 55.207038 218 222 230
64.7394446 8.08548342 13.8678384 218 222 230
38.5593876 33.4213236 55.207038 218 222 230
38.8113123 30.5561679 55.207038 218 222 230
39.3758483 27.735905 55.207038 218 222 230
40.2461891 24.9945385 55.207038 218 222 230
41.4118412 22.3651205 55.207038 218 222 230
42.8587504 19.8793536 55.207038 218 222 230
44.5694716 17.5672082 55.207038 218 222 230
46.523379 15.4565615 55.207038 218 222 230
48.6969145 13.5728612 55.207038 218 222 230
51.0638722 11.9388187 55.207038 218 222 230
53.5957141 10.5741356 55.207038 218 222 230
56.2619142 9.49526548 55.207038 218 222 230
59.0303265 8.71521616 55.207038 218 222 230
61.8675727 8.24339257 55.207038 218 222 230
38.5593876 33.4213236 13.8678384 218 222 230
38.8113123 30.5561679 13.8678384 218 222 230
39.3758483 27.735905 13.8678384 218 222 230
40.2461891 24.9945385 13.8678384 218 222 230
41.4118412 22.3651205 13.8678384 218 222 230
42.8587504 19.8793536 13.8678384 218 222 230
44.5694716 17.5672082 13.8678384 218 222 230
46.523379 15.4565615 13.8678384 218 222 230
48.6969145 13.5728612 13.8678384 218 222 230
51.0638722 11.9388187 13.8678384 218 222 230
53.5957141 10.5741356 13.8678384 218 222 230
56.2619142 9.49526548 13.8678384 218 222 230
59.0303265 8.71521616 13.8678384 218 222 230
61.8675727 8.24339257 13.8678384 218 222 230
39.4326797 34.2796054 12.9804812 255 79 163
39.5918033 31.4461468 12.9804812 255 79 163
40.0671731 28.6483205 12.9804812 255 79 163
40.8528111 25.9213109 12.9804812 255 79 163
41.9388373 23.2994117 12.9804812 255 79 163
43.3115943 20.8155948 12.9804812 255 79 163
44.9538191 18.5010956 12.9804812 255 79 163
46.8448595 16.3850204 12.9804812 255 79 163
48.9609347 14.49398 12.9804812 255 79 163
51.2754339 12.8517552 12.9804812 255 79 163
53.7592508 11.4789982 12.9804812 255 79 163
56.38115 10.392972 12.9804812 255 79 163
59.1081596 9.60733402 12.9804812 255 79 163
61.9059859 9.13196421 12.9804812 255 79 163
64.7394446 8.97284059 12.9804812 255 79 163
64.7394446 8.08548342 13.8678384 255 79 163
64.7394446 8.10773131 13.6703829 255 79 163
64.7394446 8.1733594 13.4828286 255 79 163
64.7394446 8.27907681 13.3145803 255 79 163
64.7394446 8.41958244 13.1740746 255 79 163
64.7394446 8.58783074 13.0683572 255 79 163
64.7394446 8.77538504 13.0027291 255 79 163
38.5593876 33.4213236 13.8678384 255 79 163
38.8113123 30.5561679 13.8678384 255 79 163
39.3758483 27.735905 13.8678384 255 79 163
40.2461891 24.9945385 13.8678384 255 79 163
41.4118412 22.3651205 13.8678384 255 79 163
42.8587504 19.8793536 13.8678384 255 79 163
44.5694716 17.5672082 13.8678384 255 79 163
46.523379 15.4565615 13.8678384 255 79 163
48.6969145 13.5728612 13.8678384 255 79 163
51.0638722 11.9388187 13.8678384 255 79 163
53.5957141 10.5741356 13.8678384 255 79 163
56.2619142 9.49526548 13.8678384 255 79 163
59.0303265 8.71521616 13.8678384 255 79 163
61.8675727 8.24339257 13.8678384 255 79 163
38.5851324 33.564687 13.6389037 255 79 163
38.6697647 33.7091049 13.4253444 255 79 163
38.8075218 33.8536097 13.2415849 255 79 163
38.9891322 33.9973065 13.100184 255 79 163
39.2023484 34.1394665 13.0109994 255 79 163
61.8700119 8.26550635 13.6703829 255 79 163
61.8772072 8.33073881 13.4828286 255 79 163
61.8887979 8.43581891 13.3145803 255 79 163
61.9042026 8.57547751 13.1740746 255 79 163
61.922649 8.74271154 13.0683572 255 79 163
61.9395655 8.89607521 13.0109995 255 79 163
59.0351755 8.7369292 13.6703829 255 79 163
59.0494794 8.80097952 13.4828286 255 79 163
59.0725209 8.90415538 13.3145803 255 79 163
59.1031447 9.04128311 13.1740746 255 79 163
59.1398152 9.20548656 13.0683572 255 79 163
59.1734441 9.356071 13.0109995 255 79 163
56.2691145 9.51631598 13.6703829 255 79 163
56.2903546 9.57841193 13.4828286 255 79 163
56.3245692 9.67843957 13.3145803 255 79 163
56.3700428 9.81138311 13.1740746 255 79 163
56.4244951 9.97057619 13.0683572 255 79 163
56.4744311 10.1165658 13.0109995 255 79 163
53.605179 10.5942698 13.6703829 255 79 163
53.6330991 10.6536627 13.4828286 255 79 163
53.6780743 10.7493361 13.3145803 255 79 163
53.7378494 10.8764925 13.1740746 255 79 163
53.8094271 11.0287559 13.0683572 255 79 163
53.8750681 11.1683905 13.0109995 255 79 163
51.0754875 11.9577938 13.6703829 255 79 163
51.109751 12.0137676 13.4828286 255 79 163
51.1649445 12.1039332 13.3145803 255 79 163
51.2383005 12.2237695 13.1740746 255 79 163
51.3261405 12.3672673 13.0683572 255 79 163
51.4066951 12.4988635 13.0109995 255 79 163
48.7105402 13.5904484 13.6703829 255 79 163
48.750734 13.6423281 13.4828286 255 79 163
48.8154803 13.7258989 13.3145803 255 79 163
48.9015327 13.8369702 13.1740746 255 79 163
49.004576 13.9699723 13.0683572 255 79 163
49.0990729 14.0919433 13.0109995 255 79 163
46.5388507 15.4725488 13.6703829 255 79 163
46.5844902 15.519709 13.4828286 255 79 163
46.6580088 15.5956773 13.3145803 255 79 163
46.75572 15.6966444 13.1740746 255 79 163
46.8727242 15.8175473 13.0683572 255 79 163
46.9800241 15.9284225 13.0109995 255 79 163
44.586603 17.5814028 13.6703829 255 79 163
44.6371378 17.6232749 13.4828286 255 79 163
44.7185423 17.6907248 13.3145803 255 79 163
44.8267343 17.7803704 13.1740746 255 79 163
44.9562887 17.8877163 13.0683572 255 79 163
45.0750978 17.986159 13.0109995 255 79 163
42.8773347 19.8915844 13.6703829 255 79 163
42.9321557 19.9276635 13.4828286 255 79 163
43.0204645 19.9857818 13.3145803 255 79 163
43.1378328 20.063025 13.1740746 255 79 163
43.2783754 20.1555197 13.0683572 255 79 163
43.4072614 20.2403429 13.0109995 255 79 163
41.4316544 22.3752401 13.6703829 255 79 163
41.4901006 22.4050912 13.4828286 255 79 163
41.584249 22.4531771 13.3145803 255 79 163
41.7093785 22.5170866 13.1740746 255 79 163
41.8592148 22.5936149 13.0683572 255 79 163
41.9966237 22.663796 13.0109995 255 79 163
40.2669924 25.0024247 13.6703829 255 79 163
40.3283591 25.025688 13.4828286 255 79 163
40.4272119 25.0631618 13.3145803 255 79 163
40.5585941 25.112967 13.1740746 255 79 163
40.0362488 25.6355834 13.6703829 255 79 163
40.7159175 25.1726062 13.0683572 255 79 163
40.0981941 25.657259 13.4828286 255 79 163
40.8601925 25.227299 13.0109995 255 79 163
40.197979 25.6921752 13.3145803 255 79 163
40.3305999 25.7385813 13.1740746 255 79 163
40.4894067 25.7941502 13.0683572 255 79 163
40.635042 25.8451102 13.0109995 255 79 163
39.3973908 27.7414629 13.6703829 255 79 163
39.4609381 27.7578578 13.4828286 255 79 163
39.5633035 27.7842676 13.3145803 255 79 163
39.6993542 27.8193681 13.1740746 255 79 163
39.2237539 28.4558156 13.6703829 255 79 163
39.8622679 27.8613992 13.0683572 255 79 163
39.2877366 28.4704192 13.4828286 255 79 163
40.0116696 27.8999442 13.0109995 255 79 163
39.3908035 28.4939435 13.3145803 255 79 163
39.5277863 28.525209 13.1740746 255 79 163
39.6918163 28.5626477 13.0683572 255 79 163
39.8422416 28.5969813 13.0109995 255 79 163
38.8333343 30.5593303 13.6703829 255 79 163
38.898296 30.5686592 13.4828286 255 79 163
39.0029399 30.5836867 13.3145803 255 79 163
39.1420187 30.6036593 13.1740746 255 79 163
38.7321337 31.3492853 13.6703829 255 79 163
39.3085585 30.6275754 13.0683572 255 79 163
39.4612856 30.649508 13.0109995 255 79 163
38.7973491 31.3566333 13.4828286 255 79 163
38.9024018 31.3684699 13.3145803 255 79 163
39.0420239 31.3842015 13.1740746 255 79 163
39.2092143 31.4030394 13.0683572 255 79 163
39.362538 31.4203148 13.0109995 255 79 163
38.5816236 33.4220526 13.6703829 255 79 163
38.6472164 33.424203 13.4828286 255 79 163
38.7528771 33.4276669 13.3145803 255 79 163
38.8933072 33.4322708 13.1740746 255 79 163
39.0614652 33.4377836 13.0683572 255 79 163
39.2156762 33.4428392 13.0109995 255 79 163
3 1 2 0
3 1 3 2
3 4 11 12
3 6 7 8
3 6 8 9
3 6 9 10
3 6 10 11
3 6 11 4
3 51 4 5
3 52 4 51
3 53 6 4
3 53 4 52
3 54 6 53
3 55 6 54
3 56 6 55
3 47 45 46
3 48 45 47
3 48 44 45
3 68 49 44
3 68 50 49
3 68 61 62
3 68 62 63
3 68 63 64
3 68 64 65
3 68 65 50
3 35 44 48
3 36 44 35
3 67 68 44
3 67 36 37
3 67 37 38
3 67 44 36
3 39 67 38
3 40 67 39
3 41 67 40
3 66 61 68
3 66 67 41
3 66 41 42
3 13 56 57
3 13 57 58
3 13 6 56
3 33 66 42
3 33 42 43
3 33 43 34
3 15 13 58
3 15 61 66
3 15 58 59
3 15 59 60
3 15 60 61
3 16 15 66
3 17 16 66
3 18 17 66
3 19 18 66
3 14 13 15
3 29 30 31
3 28 29 31
3 27 28 31
3 25 24 23
3 25 26 27
3 25 31 24
3 25 27 31
3 32 66 33
3 32 20 19
3 32 21 20
3 32 22 21
3 32 23 22
3 32 19 66
3 32 25 23
3 76 77 78
3 76 78 84
3 75 84 83
3 75 76 84
3 74 83 82
3 74 75 83
3 73 82 81
3 73 74 82
3 72 81 80
3 72 73 81
3 71 80 79
3 71 72 80
3 70 79 69
3 70 71 79
3 96 85 86
3 97 86 87
3 97 96 86
3 98 87 88
3 98 97 87
3 99 88 89
3 99 89 90
3 99 98 88
3 100 90 91
3 100 99 90
3 101 91 92
3 101 100 91
3 102 92 93
3 102 101 92
3 95 93 94
3 95 102 93
3 131 137 136
3 131 138 137
3 132 134 133
3 132 135 134
3 132 136 135
3 132 131 136
3 129 130 131
3 128 129 131
3 127 131 132
3 127 128 131
3 126 127 132
3 125 126 132
3 163 116 117
3 105 116 163
3 162 106 105
3 162 107 106
3 162 105 163
3 108 107 162
3 109 108 162
3 110 109 162
3 153 118 119
3 154 163 117
3 154 117 118
3 154 118 153
3 152 153 119
3 151 119 120
3 151 152 119
3 155 163 154
3 150 151 120
3 149 120 121
3 149 121 122
3 149 122 123
3 149 150 120
3 156 163 155
3 157 163 156
3 158 163 157
3 159 163 158
3 161 111 110
3 161 110 162
3 161 163 159
3 139 123 124
3 139 124 125
3 139 149 123
3 139 125 132
3 141 139 140
3 142 139 141
3 144 142 143
3 146 144 145
3 146 142 144
3 146 139 142
3 104 114 113
3 104 115 114
3 104 103 115
3 160 112 111
3 160 113 112
3 160 111 161
3 160 104 113
3 160 161 159
3 147 139 146
3 147 149 139
3 148 149 147
3 174 167 166
3 174 168 167
3 174 169 168
3 174 170 169
3 174 171 170
3 174 172 171
3 174 173 172
3 175 164 165
3 175 166 164
3 175 174 166
3 176 175 165
3 180 181 175
3 177 175 176
3 179 180 175
3 178 175 177
3 178 179 175
3 191 182 183
3 192 183 184
3 192 191 183
3 193 184 185
3 193 192 184
3 194 185 186
3 194 193 185
3 195 186 187
3 195 194 186
3 196 187 188
3 196 195 187
3 197 188 189
3 197 196 188
3 190 197 189
3 201 200 215
3 216 201 215
3 222 219 220
3 222 220 221
3 234 216 217
3 234 217 218
3 234 218 219
3 234 219 222
3 234 201 216
3 235 202 201
3 235 201 234
3 236 203 202
3 236 202 235
3 237 236 235
3 238 204 203
3 238 203 236
3 239 222 223
3 239 235 234
3 239 234 222
3 239 237 235
3 240 238 236
3 240 237 239
3 240 236 237
3 241 238 240
3 242 205 204
3 242 204 238
3 243 238 241
3 243 242 238
3 244 223 224
3 244 239 223
3 244 243 241
3 244 240 239
3 244 241 240
3 245 242 243
3 246 206 205
3 246 205 242
3 247 242 245
3 247 246 242
3 248 224 225
3 248 243 244
3 248 247 245
3 248 245 243
3 248 244 224
3 249 247 248
3 249 246 247
3 250 246 249
3 251 225 226
3 251 248 225
3 251 250 249
3 251 249 248
3 252 251 226
3 252 250 251
3 253 252 226
3 253 226 227
3 254 253 227
3 255 254 227
3 255 227 228
3 256 255 228
3 257 228 229
3 257 256 228
3 258 257 229
3 259 229 230
3 259 258 229
3 260 259 230
3 261 230 231
3 261 260 230
3 262 261 231
3 263 231 232
3 263 262 231
3 264 263 232
3 265 232 233
3 265 264 232
3 266 198 199
3 266 233 198
3 266 265 233
3 267 207 206
3 267 246 250
3 267 250 252
3 267 206 246
3 268 207 267
3 268 267 252
3 268 252 253
3 269 208 207
3 269 207 268
3 269 268 253
3 269 253 254
3 270 208 269
3 270 269 254
3 271 208 270
3 271 270 254
3 271 254 255
3 272 208 271
3 272 271 255
3 272 255 256
3 273 272 256
3 274 273 256
3 274 256 257
3 275 257 258
3 275 274 257
3 276 275 258
3 277 276 258
3 277 258 259
3 278 259 260
3 278 277 259
3 279 278 260
3 280 279 260
3 280 260 261
3 281 280 261
3 281 261 262
3 282 281 262
3 283 282 262
3 283 262 263
3 284 283 263
3 284 263 264
3 285 284 264
3 286 264 265
3 286 285 264
3 287 286 265
3 287 265 266
3 288 287 266
3 288 266 199
3 289 209 208
3 289 272 273
3 289 208 272
3 290 289 273
3 290 209 289
3 290 273 274
3 291 210 209
3 291 209 290
3 291 290 274
3 291 274 275
3 292 210 291
3 292 291 275
3 292 275 276
3 293 292 276
3 293 210 292
3 294 276 277
3 294 293 276
3 295 277 278
3 295 294 277
3 296 278 279
3 296 295 278
3 297 296 279
3 298 279 280
3 298 297 279
3 299 280 281
3 299 298 280
3 300 281 282
3 301 282 283
3 301 300 282
3 302 283 284
3 302 301 283
3 303 302 284
3 303 284 285
3 304 303 285
3 305 304 285
3 305 285 286
3 306 286 287
3 306 305 286
3 307 288 199
3 307 287 288
3 307 306 287
3 308 210 293
3 308 293 294
3 308 294 295
3 309 295 296
3 310 296 297
3 311 310 297
3 311 297 298
3 312 298 299
3 312 311 298
3 313 281 300
3 313 299 281
3 314 315 300
3 314 300 301
3 316 314 301
3 317 302 303
3 318 319 304
3 318 304 305
3 320 318 305
3 320 305 306
3 321 296 310
3 321 309 296
3 322 323 310
3 322 310 311
3 324 311 312
3 324 322 311
3 325 312 299
3 326 313 300
3 326 300 315
3 327 315 314
3 328 212 327
3 328 327 314
3 328 314 316
3 329 213 212
3 329 212 328
3 329 328 316
3 330 213 329
3 330 329 317
3 331 213 330
3 331 330 319
3 331 319 318
3 332 213 331
3 332 318 320
3 332 331 318
3 333 214 213
3 333 213 332
3 333 320 306
3 333 306 334
3 333 332 320
3 335 214 333
3 335 333 334
3 336 321 310
3 336 310 323
3 337 323 322
3 338 322 324
3 338 337 322
3 339 324 312
3 339 312 325
3 340 212 211
3 341 340 326
3 341 212 340
3 341 327 212
3 342 316 301
3 342 302 317
3 342 317 329
3 342 329 316
3 342 301 302
3 343 304 319
3 343 317 303
3 343 330 317
3 343 319 330
3 343 303 304
3 344 199 214
3 344 334 306
3 344 214 335
3 344 335 334
3 344 307 199
3 344 306 307
3 345 295 309
3 346 336 323
3 346 323 337
3 346 337 211
3 347 337 338
3 347 211 337
3 348 347 338
3 348 211 347
3 348 338 324
3 348 324 339
3 348 340 211
3 349 348 339
3 349 340 348
3 349 325 299
3 349 299 313
3 349 339 325
3 350 313 326
3 350 349 313
3 350 340 349
3 350 326 340
3 351 315 327
3 351 326 315
3 351 327 341
3 351 341 326
3 352 295 345
3 352 308 295
3 353 346 211
3 354 345 309
3 355 354 309
3 356 357 358
3 359 356 358
3 360 346 353
3 360 336 346
3 360 321 336
3 361 211 210
3 361 308 352
3 361 210 308
3 362 345 354
3 362 354 355
3 362 361 352
3 362 356 361
3 362 352 345
3 363 362 355
3 363 355 309
3 363 357 356
3 363 356 362
3 363 309 357
3 364 211 361
3 364 353 211
3 364 356 359
3 364 361 356
3 365 309 321
3 365 353 364
3 365 360 353
3 365 321 360
3 365 364 359
3 365 357 309
3 365 358 357
3 365 359 358
3 374 375 383
3 373 383 382
3 373 374 383
3 372 382 381
3 372 373 382
3 371 381 380
3 371 372 381
3 370 379 378
3 370 380 379
3 370 371 380
3 369 378 377
3 369 370 378
3 368 377 376
3 368 369 377
3 367 376 366
3 367 368 376
3 386 385 387
3 384 385 386
3 396 398 397
3 396 389 398
3 388 389 396
3 391 390 388
3 394 396 395
3 393 392 391
3 393 388 396
3 393 391 388
3 393 396 394
3 407 400 408
3 409 408 400
3 406 400 407
3 410 409 400
3 405 400 406
3 411 410 400
3 403 400 405
3 412 411 400
3 413 412 400
3 404 400 403
3 424 400 404
3 401 424 425
3 401 425 426
3 401 426 427
3 401 427 428
3 401 428 429
3 401 429 430
3 401 430 431
3 401 431 423
3 401 400 424
3 399 414 413
3 399 417 418
3 399 418 419
3 399 419 420
3 399 420 421
3 399 421 422
3 399 422 414
3 399 413 400
3 402 415 416
3 402 416 417
3 402 423 415
3 402 417 399
3 402 401 423
3 434 432 433
3 434 435 432
3 444 436 437
3 444 443 436
3 445 437 438
3 445 444 437
3 446 438 439
3 446 445 438
3 447 439 440
3 447 446 439
3 442 440 441
3 442 447 440
3 455 457 456
3 455 463 457
3 454 461 462
3 454 462 463
3 454 463 455
3 453 461 454
3 452 460 461
3 452 461 453
3 451 458 459
3 451 459 460
3 451 460 452
3 450 448 458
3 450 458 451
3 449 448 450
3 477 479 476
3 478 480 479
3 478 479 477
3 464 480 478
3 465 481 480
3 465 480 464
3 466 482 481
3 466 481 465
3 467 483 482
3 467 482 466
3 468 484 483
3 468 483 467
3 469 485 484
3 469 484 468
3 470 486 485
3 470 485 469
3 471 487 486
3 471 486 470
3 472 488 487
3 472 487 471
3 496 495 494
3 473 489 488
3 473 490 489
3 473 488 472
3 474 491 490
3 474 492 491
3 474 493 492
3 474 490 473
3 475 494 493
3 475 493 474
3 475 496 494
3 500 498 497
3 500 499 498
3 512 501 502
3 512 511 501
3 513 502 503
3 513 512 502
3 514 503 504
3 514 513 503
3 515 504 505
3 515 514 504
3 516 515 505
3 517 505 506
3 517 516 505
3 518 506 507
3 518 517 506
3 519 507 508
3 519 518 507
3 510 508 509
3 510 519 508
3 527 528 529
3 527 529 535
3 526 535 534
3 526 527 535
3 525 534 533
3 525 526 534
3 524 533 532
3 524 525 533
3 523 531 530
3 523 532 531
3 523 524 532
3 522 530 520
3 522 523 530
3 521 522 520
3 541 538 539
3 541 539 540
3 548 538 541
3 547 538 548
3 546 538 547
3 545 538 546
3 544 538 545
3 543 538 544
3 542 538 543
3 554 549 555
3 552 554 553
3 537 551 550
3 537 552 551
3 537 549 554
3 537 554 552
3 536 542 549
3 536 549 537
3 536 538 542
3 584 585 558
3 586 558 585
3 583 584 558
3 587 558 586
3 582 583 558
3 588 558 587
3 589 558 588
3 590 558 589
3 591 558 590
3 599 558 591
3 556 598 597
3 556 599 598
3 556 558 599
3 559 581 580
3 559 580 582
3 559 601 581
3 559 602 601
3 559 603 602
3 559 604 603
3 559 605 604
3 559 606 605
3 559 607 606
3 559 582 558
3 560 593 592
3 560 594 593
3 560 595 594
3 560 592 600
3 560 608 607
3 560 600 608
3 560 607 559
3 573 561 562
3 572 560 561
3 572 561 573
3 571 560 572
3 574 573 562
3 570 560 571
3 575 562 563
3 575 574 562
3 576 575 563
3 569 595 560
3 569 560 570
3 568 596 595
3 568 595 569
3 577 563 564
3 577 576 563
3 567 556 597
3 567 597 596
3 567 596 568
3 578 577 564
3 566 556 567
3 579 578 564
3 557 556 566
3 565 579 564
3 609 612 611
3 610 612 609
3 614 615 613
3 614 616 615
3 617 620 619
3 618 620 617
3 622 623 621
3 622 624 623
3 633 634 642
3 632 642 641
3 632 633 642
3 631 641 640
3 631 632 641
3 630 640 639
3 630 631 640
3 629 638 637
3 629 639 638
3 629 630 639
3 628 637 636
3 628 629 637
3 627 636 635
3 627 628 636
3 626 635 625
3 626 627 635
3 644 659 660
3 644 660 661
3 644 661 662
3 644 662 663
3 644 663 664
3 644 664 665
3 644 665 643
3 645 652 653
3 645 653 654
3 645 654 655
3 645 655 656
3 645 656 657
3 645 657 658
3 645 658 659
3 645 659 644
3 647 646 645
3 647 651 650
3 647 644 651
3 647 645 644
3 649 648 647
3 649 647 650
3 667 666 674
3 679 673 672
3 679 674 673
3 679 667 674
3 680 672 671
3 680 679 672
3 681 671 670
3 681 680 671
3 682 681 670
3 676 670 669
3 676 682 670
3 677 676 669
3 678 669 668
3 678 677 669
3 675 678 668
3 695 686 685
3 687 686 695
3 707 688 687
3 707 689 688
3 707 687 695
3 708 695 696
3 708 707 695
3 709 696 697
3 709 708 696
3 710 690 689
3 710 691 690
3 710 689 707
3 711 697 698
3 711 709 697
3 712 710 707
3 712 707 708
3 712 691 710
3 713 698 699
3 713 711 698
3 714 712 708
3 714 708 709
3 715 699 700
3 715 700 701
3 715 701 702
3 715 713 699
3 716 714 709
3 716 709 711
3 717 711 713
3 717 716 711
3 718 692 691
3 719 702 703
3 719 703 717
3 719 715 702
3 719 713 715
3 719 717 713
3 720 718 691
3 720 691 712
3 721 712 714
3 721 720 712
3 722 714 716
3 722 721 714
3 723 717 703
3 723 716 717
3 723 722 716
3 724 703 704
3 724 704 705
3 724 705 723
3 724 723 703
3 725 726 721
3 725 706 683
3 725 721 722
3 727 706 725
3 727 725 722
3 727 723 705
3 727 722 723
3 728 727 705
3 728 705 706
3 728 706 727
3 729 721 726
3 729 693 692
3 729 718 720
3 729 692 718
3 729 730 693
3 729 726 731
3 729 720 721
3 729 731 730
3 732 683 684
3 732 726 725
3 732 733 730
3 732 725 683
3 732 731 726
3 732 730 731
3 734 694 693
3 734 730 733
3 734 693 730
3 735 694 734
3 735 734 733
3 736 732 684
3 736 684 694
3 736 733 732
3 736 694 735
3 736 735 733
3 744 745 746
3 744 746 752
3 743 752 751
3 743 744 752
3 742 751 750
3 742 743 751
3 741 750 749
3 741 742 750
3 740 749 748
3 740 741 749
3 739 748 747
3 739 740 748
3 738 747 737
3 738 739 747
3 762 760 759
3 763 759 758
3 763 762 759
3 764 758 757
3 764 763 758
3 765 756 755
3 765 757 756
3 765 764 757
3 766 765 755
3 767 755 754
3 767 766 755
3 768 754 753
3 768 767 754
3 761 768 753
3 800 783 782
3 801 790 789
3 807 783 800
3 808 784 783
3 808 783 807
3 809 800 799
3 809 807 800
3 810 785 784
3 810 784 808
3 811 807 809
3 811 808 807
3 812 786 785
3 812 785 810
3 813 799 798
3 813 809 799
3 814 810 808
3 814 808 811
3 815 787 786
3 815 786 812
3 816 811 809
3 816 809 813
3 817 810 814
3 817 812 810
3 818 798 797
3 818 813 798
3 819 780 781
3 819 788 787
3 819 781 788
3 819 787 815
3 820 814 811
3 820 811 816
3 821 815 812
3 821 812 817
3 822 813 818
3 822 816 813
3 823 814 820
3 823 817 814
3 824 818 797
3 824 797 796
3 825 779 780
3 825 815 821
3 825 780 819
3 825 819 815
3 826 816 822
3 826 820 816
3 827 821 817
3 827 817 823
3 828 822 818
3 828 818 824
3 829 823 820
3 829 820 826
3 830 796 795
3 830 824 796
3 831 777 778
3 831 778 779
3 831 825 821
3 831 779 825
3 831 821 827
3 832 826 822
3 832 822 828
3 833 827 823
3 833 823 829
3 834 828 824
3 834 824 830
3 835 829 826
3 835 826 832
3 836 795 794
3 836 830 795
3 837 777 831
3 837 827 833
3 837 831 827
3 838 832 828
3 838 828 834
3 838 835 832
3 839 833 829
3 839 829 835
3 840 830 836
3 840 834 830
3 841 835 838
3 842 836 794
3 842 794 793
3 842 840 836
3 843 776 777
3 843 833 839
3 843 777 837
3 843 837 833
3 844 838 834
3 844 834 840
3 845 839 835
3 845 835 841
3 846 840 842
3 847 841 838
3 847 838 844
3 848 793 792
3 848 842 793
3 849 775 776
3 849 776 843
3 849 843 839
3 849 839 845
3 850 844 840
3 850 840 846
3 851 841 847
3 851 845 841
3 852 846 842
3 852 842 848
3 853 844 850
3 853 847 844
3 854 792 791
3 854 848 792
3 855 849 845
3 855 774 775
3 855 775 849
3 855 845 851
3 856 850 846
3 856 846 852
3 857 851 847
3 857 847 853
3 858 856 852
3 858 848 854
3 858 852 848
3 859 850 856
3 859 853 850
3 860 791 790
3 860 854 791
3 860 790 801
3 861 773 774
3 861 774 855
3 861 855 851
3 861 851 857
3 862 859 856
3 862 856 858
3 863 857 853
3 863 861 857
3 863 853 859
3 864 854 860
3 864 858 854
3 864 860 801
3 864 801 802
3 865 859 862
3 866 772 773
3 866 861 863
3 866 773 861
3 867 862 858
3 867 802 803
3 867 858 864
3 867 864 802
3 868 859 865
3 868 863 859
3 869 803 804
3 869 867 803
3 869 865 862
3 869 862 867
3 870 770 771
3 870 771 772
3 870 772 866
3 870 866 863
3 870 863 868
3 871 804 805
3 871 869 804
3 871 868 865
3 871 865 869
3 872 769 770
3 872 871 805
3 872 770 870
3 872 805 806
3 872 806 769
3 872 870 868
3 872 868 871
3 897 895 896
3 898 895 897
3 899 895 898
3 917 876 877
3 917 877 878
3 917 878 879
3 917 879 880
3 917 880 881
3 917 881 882
3 918 875 876
3 918 876 917
3 919 874 875
3 919 875 918
3 920 874 919
3 921 873 874
3 921 874 920
3 922 917 882
3 923 917 922
3 924 917 923
3 924 918 917
3 925 919 918
3 925 918 924
3 926 920 919
3 926 919 925
3 927 873 921
3 927 904 873
3 927 921 920
3 927 920 926
3 928 922 882
3 928 882 883
3 928 923 922
3 928 924 923
3 929 924 928
3 929 925 924
3 930 925 929
3 930 926 925
3 931 927 926
3 931 904 927
3 931 926 930
3 932 928 883
3 933 928 932
3 934 928 933
3 935 928 934
3 935 929 928
3 936 929 935
3 936 930 929
3 937 904 931
3 937 905 904
3 937 930 936
3 937 931 930
3 938 883 884
3 938 932 883
3 938 934 933
3 938 933 932
3 939 935 934
3 939 934 938
3 940 936 935
3 940 935 939
3 941 905 937
3 941 937 936
3 941 936 940
3 942 938 884
3 943 938 942
3 944 938 943
3 945 939 938
3 945 938 944
3 946 940 939
3 946 941 940
3 946 939 945
3 947 906 905
3 947 905 941
3 947 941 946
3 948 884 885
3 948 942 884
3 948 943 942
3 948 944 943
3 948 945 944
3 949 946 945
3 949 945 948
3 950 946 949
3 951 946 950
3 951 906 947
3 951 947 946
3 952 948 885
3 953 948 952
3 954 948 953
3 955 950 949
3 955 949 948
3 955 948 954
3 956 950 955
3 957 950 956
3 957 907 906
3 957 951 950
3 957 906 951
3 958 955 954
3 958 885 886
3 958 952 885
3 958 953 952
3 958 954 953
3 959 955 958
3 960 956 955
3 960 955 959
3 961 957 956
3 961 907 957
3 961 956 960
3 962 958 886
3 963 958 962
3 964 959 958
3 964 958 963
3 965 959 964
3 966 960 959
3 966 959 965
3 967 960 966
3 967 907 961
3 967 961 960
3 967 908 907
3 968 886 887
3 968 962 886
3 968 963 962
3 968 964 963
3 969 965 964
3 969 964 968
3 970 967 966
3 970 966 965
3 970 965 969
3 971 908 967
3 971 967 970
3 972 968 887
3 973 968 972
3 974 968 973
3 975 969 968
3 975 968 974
3 976 970 969
3 976 971 970
3 976 969 975
3 977 909 908
3 977 908 971
3 977 971 976
3 978 887 888
3 978 972 887
3 978 974 973
3 978 973 972
3 979 974 978
3 979 975 974
3 980 976 975
3 980 975 979
3 981 909 977
3 981 977 976
3 981 976 980
3 982 978 888
3 983 978 982
3 984 978 983
3 985 979 978
3 985 978 984
3 986 980 979
3 986 979 985
3 987 910 909
3 987 909 981
3 987 981 980
3 987 980 986
3 988 888 889
3 988 982 888
3 988 983 982
3 988 984 983
3 988 985 984
3 989 985 988
3 990 985 989
3 990 986 985
3 991 988 889
3 992 986 990
3 992 910 987
3 992 987 986
3 993 988 991
3 994 988 993
3 995 988 994
3 995 989 988
3 996 989 995
3 996 990 989
3 997 992 990
3 997 910 992
3 997 990 996
3 997 911 910
3 998 889 890
3 998 991 889
3 999 993 991
3 999 991 998
3 999 994 993
3 1000 994 999
3 1000 995 994
3 1001 995 1000
3 1002 998 890
3 1003 996 995
3 1003 995 1001
3 1004 997 996
3 1004 911 997
3 1004 996 1003
3 1005 999 998
3 1005 998 1002
3 1006 1000 999
3 1006 999 1005
3 1007 1001 1000
3 1007 1000 1006
3 1008 1003 1001
3 1008 1001 1007
3 1009 912 911
3 1009 911 1004
3 1009 1004 1003
3 1009 1003 1008
3 1010 1002 890
3 1010 890 891
3 1010 1005 1002
3 1011 1005 1010
3 1012 1006 1005
3 1012 1007 1006
3 1012 1005 1011
3 1013 1007 1012
3 1014 1010 891
3 1015 1008 1007
3 1015 1007 1013
3 1016 1010 1014
3 1016 1011 1010
3 1016 1012 1011
3 1017 912 1009
3 1017 1009 1008
3 1017 1008 1015
3 1018 1012 1016
3 1019 1013 1012
3 1019 1012 1018
3 1020 1015 1013
3 1020 1013 1019
3 1021 913 912
3 1021 912 1017
3 1021 1017 1015
3 1021 1015 1020
3 1022 891 892
3 1022 1014 891
3 1023 1014 1022
3 1023 1022 892
3 1023 1016 1014
3 1024 1016 1023
3 1024 1018 1016
3 1024 1023 892
3 1025 1024 892
3 1025 1018 1024
3 1025 1019 1018
3 1026 1025 892
3 1026 1019 1025
3 1026 1020 1019
3 1027 1026 892
3 1027 1020 1026
3 1027 913 1021
3 1027 1021 1020
3 1028 892 893
3 1029 892 1028
3 1029 1028 893
3 1030 892 1029
3 1030 1029 893
3 1031 892 1030
3 1031 1030 893
3 1032 892 1031
3 1032 1027 892
3 1032 913 1027
3 1032 914 913
3 1033 893 894
3 1034 893 1033
3 1034 1033 894
3 1035 893 1034
3 1035 1034 894
3 1036 1031 893
3 1036 893 1035
3 1037 1031 1036
3 1037 1032 1031
3 1037 914 1032
3 1037 915 914
3 1038 894 895
3 1039 894 1038
3 1039 1038 895
3 1040 895 899
3 1040 1039 895
3 1040 894 1039
3 1041 899 900
3 1041 1040 899
3 1041 1035 894
3 1041 894 1040
3 1042 1041 900
3 1042 900 901
3 1042 1035 1041
3 1042 1037 1036
3 1042 1036 1035
3 1043 901 902
3 1043 902 903
3 1043 1042 901
3 1043 916 915
3 1043 903 916
3 1043 915 1037
3 1043 1037 1042
3 1052 1053 1059
3 1051 1059 1058
3 1051 1052 1059
3 1050 1058 1057
3 1050 1051 1058
3 1049 1057 1056
3 1049 1050 1057
3 1048 1056 1055
3 1048 1049 1056
3 1047 1055 1054
3 1047 1048 1055
3 1046 1047 1054
3 1045 1054 1044
3 1045 1046 1054
3 1063 1061 1060
3 1063 1062 1061
3 1076 1078 1077
3 1076 1079 1078
3 1075 1080 1079
3 1075 1079 1076
3 1074 1081 1080
3 1074 1080 1075
3 1073 1082 1081
3 1073 1081 1074
3 1072 1083 1082
3 1072 1082 1073
3 1071 1084 1083
3 1071 1083 1072
3 1070 1085 1084
3 1070 1084 1071
3 1069 1086 1085
3 1069 1085 1070
3 1068 1087 1086
3 1068 1086 1069
3 1067 1088 1087
3 1067 1087 1068
3 1066 1089 1088
3 1066 1088 1067
3 1065 1090 1089
3 1065 1089 1066
3 1064 1090 1065
3 1092 1096 1097
3 1092 1097 1098
3 1092 1098 1099
3 1093 1094 1095
3 1093 1095 1096
3 1093 1096 1092
3 1100 1093 1092
3 1102 1104 1103
3 1102 1105 1104
3 1102 1106 1105
3 1102 1107 1106
3 1102 1108 1107
3 1102 1109 1108
3 1101 1092 1091
3 1101 1091 1109
3 1101 1100 1092
3 1101 1109 1102
3 1111 1112 1110
3 1111 1113 1112
3 1125 1115 1114
3 1126 1116 1115
3 1126 1115 1125
3 1127 1117 1116
3 1127 1116 1126
3 1128 1117 1127
3 1129 1118 1117
3 1129 1117 1128
3 1130 1119 1118
3 1130 1120 1119
3 1130 1118 1129
3 1131 1120 1130
3 1132 1121 1120
3 1132 1122 1121
3 1132 1120 1131
3 1133 1123 1122
3 1133 1122 1132
3 1124 1123 1133
3 1144 1153 1145
3 1143 1153 1144
3 1142 1151 1152
3 1142 1152 1153
3 1142 1153 1143
3 1141 1151 1142
3 1140 1150 1151
3 1140 1151 1141
3 1139 1149 1150
3 1139 1150 1140
3 1138 1147 1148
3 1138 1148 1149
3 1138 1149 1139
3 1137 1147 1138
3 1136 1134 1146
3 1136 1146 1147
3 1136 1147 1137
3 1135 1134 1136
3 1155 1156 1154
3 1155 1157 1156
3 1159 1160 1158
3 1159 1161 1160
3 1171 1179 1172
3 1170 1178 1179
3 1170 1179 1171
3 1169 1178 1170
3 1168 1177 1178
3 1168 1178 1169
3 1167 1175 1176
3 1167 1176 1177
3 1167 1177 1168
3 1166 1174 1175
3 1166 1175 1167
3 1165 1174 1166
3 1164 1173 1174
3 1164 1174 1165
3 1163 1162 1173
3 1163 1173 1164
3 1190 1191 1192
3 1189 1192 1193
3 1189 1190 1192
3 1188 1193 1194
3 1188 1189 1193
3 1187 1194 1195
3 1187 1188 1194
3 1186 1195 1196
3 1186 1187 1195
3 1185 1196 1197
3 1185 1186 1196
3 1184 1197 1198
3 1184 1185 1197
3 1183 1198 1199
3 1183 1184 1198
3 1182 1199 1180
3 1182 1183 1199
3 1181 1182 1180
3 1203 1216 1202
3 1203 1217 1216
3 1204 1218 1217
3 1204 1217 1203
3 1205 1219 1218
3 1205 1218 1204
3 1206 1220 1219
3 1206 1219 1205
3 1207 1221 1220
3 1207 1220 1206
3 1208 1222 1221
3 1208 1221 1207
3 1209 1223 1222
3 1209 1224 1223
3 1209 1222 1208
3 1210 1224 1209
3 1211 1225 1224
3 1211 1226 1225
3 1211 1224 1210
3 1212 1226 1211
3 1213 1227 1226
3 1213 1226 1212
3 1214 1228 1227
3 1214 1229 1228
3 1214 1227 1213
3 1215 1229 1214
3 1200 1201 1229
3 1200 1229 1215
3 1271 1245 1246
3 1271 1265 1245
3 1272 1271 1246
3 1272 1246 1247
3 1273 1247 1248
3 1273 1272 1247
3 1274 1248 1249
3 1274 1273 1248
3 1275 1249 1250
3 1275 1274 1249
3 1276 1244 1243
3 1276 1243 1275
3 1276 1250 1251
3 1276 1251 1244
3 1276 1275 1250
3 1277 1264 1265
3 1277 1265 1271
3 1278 1271 1272
3 1278 1277 1271
3 1279 1278 1272
3 1279 1272 1273
3 1280 1273 1274
3 1280 1279 1273
3 1281 1275 1243
3 1281 1274 1275
3 1281 1242 1280
3 1281 1280 1274
3 1282 1243 1242
3 1282 1281 1243
3 1282 1242 1281
3 1283 1263 1264
3 1283 1264 1277
3 1284 1277 1278
3 1284 1283 1277
3 1285 1278 1279
3 1285 1284 1278
3 1286 1285 1279
3 1286 1280 1242
3 1286 1279 1280
3 1286 1241 1285
3 1287 1241 1286
3 1287 1286 1242
3 1288 1242 1241
3 1288 1241 1287
3 1288 1287 1242
3 1289 1262 1263
3 1289 1263 1283
3 1290 1289 1283
3 1290 1283 1284
3 1291 1290 1284
3 1291 1284 1285
3 1291 1285 1241
3 1292 1291 1241
3 1292 1240 1291
3 1293 1292 1241
3 1293 1240 1292
3 1294 1241 1240
3 1294 1240 1293
3 1294 1293 1241
3 1295 1261 1262
3 1295 1262 1289
3 1296 1289 1290
3 1296 1295 1289
3 1297 1290 1291
3 1297 1296 1290
3 1297 1291 1240
3 1298 1297 1240
3 1298 1239 1297
3 1299 1239 1298
3 1299 1298 1240
3 1300 1240 1239
3 1300 1239 1299
3 1300 1299 1240
3 1301 1260 1261
3 1301 1261 1295
3 1302 1295 1296
3 1302 1301 1295
3 1303 1296 1297
3 1303 1302 1296
3 1303 1297 1239
3 1303 1238 1302
3 1304 1238 1303
3 1304 1303 1239
3 1305 1238 1304
3 1305 1304 1239
3 1306 1239 1238
3 1306 1238 1305
3 1306 1305 1239
3 1307 1259 1260
3 1307 1260 1301
3 1307 1301 1302
3 1308 1302 1238
3 1308 1307 1302
3 1309 1308 1238
3 1309 1237 1308
3 1310 1237 1309
3 1310 1309 1238
3 1311 1237 1310
3 1311 1310 1238
3 1312 1238 1237
3 1312 1237 1311
3 1312 1311 1238
3 1313 1257 1258
3 1313 1258 1259
3 1313 1259 1307
3 1314 1313 1307
3 1314 1308 1237
3 1314 1307 1308
3 1315 1236 1314
3 1315 1314 1237
3 1316 1236 1315
3 1316 1315 1237
3 1317 1236 1316
3 1317 1316 1237
3 1318 1237 1236
3 1318 1236 1317
3 1318 1317 1237
3 1319 1257 1313
3 1320 1314 1236
3 1320 1319 1313
3 1320 1313 1314
3 1320 1235 1319
3 1321 1235 1320
3 1321 1320 1236
3 1322 1235 1321
3 1322 1321 1236
3 1323 1235 1322
3 1323 1322 1236
3 1324 1236 1235
3 1324 1235 1323
3 1324 1323 1236
3 1325 1257 1319
3 1325 1256 1257
3 1325 1319 1235
3 1326 1325 1235
3 1326 1234 1325
3 1327 1234 1326
3 1327 1326 1235
3 1328 1234 1327
3 1328 1327 1235
3 1329 1234 1328
3 1329 1328 1235
3 1330 1235 1234
3 1330 1234 1329
3 1330 1329 1235
3 1331 1255 1256
3 1331 1256 1325
3 1331 1325 1234
3 1332 1331 1234
3 1333 1332 1234
3 1334 1333 1234
3 1335 1254 1255
3 1335 1255 1331
3 1336 1334 1234
3 1337 1335 1331
3 1337 1331 1332
3 1337 1332 1333
3 1338 1234 1233
3 1338 1336 1234
3 1339 1337 1333
3 1340 1333 1334
3 1340 1334 1336
3 1340 1339 1333
3 1341 1340 1336
3 1342 1338 1233
3 1342 1336 1338
3 1342 1341 1336
3 1343 1254 1335
3 1344 1343 1335
3 1344 1335 1337
3 1344 1337 1339
3 1345 1344 1339
3 1346 1339 1340
3 1346 1340 1341
3 1346 1345 1339
3 1347 1253 1254
3 1347 1254 1343
3 1348 1346 1341
3 1348 1341 1342
3 1349 1347 1343
3 1349 1343 1344
3 1350 1233 1232
3 1350 1348 1342
3 1350 1342 1233
3 1351 1344 1345
3 1351 1349 1344
3 1352 1351 1345
3 1352 1345 1346
3 1353 1346 1348
3 1353 1352 1346
3 1354 1350 1232
3 1354 1348 1350
3 1354 1353 1348
3 1355 1253 1347
3 1356 1355 1347
3 1356 1347 1349
3 1357 1356 1349
3 1357 1349 1351
3 1358 1351 1352
3 1358 1352 1353
3 1358 1357 1351
3 1359 1253 1355
3 1359 1252 1253
3 1359 1355 1356
3 1360 1353 1354
3 1360 1358 1353
3 1361 1232 1231
3 1361 1354 1232
3 1361 1360 1354
3 1362 1356 1357
3 1362 1359 1356
3 1363 1362 1357
3 1364 1357 1358
3 1364 1363 1357
3 1365 1364 1358
3 1365 1358 1360
3 1366 1361 1231
3 1366 1360 1361
3 1366 1365 1360
3 1367 1252 1359
3 1367 1266 1252
3 1368 1367 1359
3 1368 1267 1266
3 1368 1359 1362
3 1368 1266 1367
3 1368 1362 1363
3 1369 1368 1363
3 1369 1268 1267
3 1369 1267 1368
3 1370 1363 1364
3 1370 1369 1363
3 1370 1268 1369
3 1371 1269 1268
3 1371 1364 1365
3 1371 1370 1364
3 1371 1268 1370
3 1372 1231 1230
3 1372 1365 1366
3 1372 1270 1269
3 1372 1230 1270
3 1372 1366 1231
3 1372 1269 1371
3 1372 1371 1365
