ply
format ascii 1.0
comment generated by blendit.inference.finetune_visualize
element vertex 890
property float x
property float y
property float z
property uchar red
property uchar green
property uchar blue
element face 994
property list uchar int vertex_indices
end_header
0 95.2199836 50.2079525 218 222 230
-2.22044605e-16 95.2199836 50.5330349 218 222 230
0 60.8421055 67.3208935 218 222 230
-2.22044605e-16 37.582386 67.3208935 218 222 230
0 37.582386 45.878961 218 222 230
0 37.582386 44.5939706 218 222 230
0 0 44.5939706 218 222 230
-2.22044605e-16 0 1.44707927 218 222 230
-2.22044605e-16 68.9383277 1.44707927 218 222 230
0 68.9383277 50.2079525 218 222 230
87.7091868 95.2199836 0 218 222 230
87.7091868 95.2199836 67.3208935 218 222 230
84.381858 95.2199836 0 218 222 230
84.381858 95.2199836 50.2079525 218 222 230
0 95.2199836 50.2079525 218 222 230
-2.22044605e-16 95.2199836 50.5330349 218 222 230
0.146760894 95.2199836 51.2396917 218 222 230
0.0658547844 95.2199836 51.0133202 218 222 230
0.0165584323 95.2199836 50.7759573 218 222 230
18.5838412 95.2199836 51.2396917 218 222 230
18.5838412 95.2199836 67.3208935 218 222 230
0.146760894 95.2199836 51.2396917 255 79 163
0.0658547844 95.2199836 51.0133202 255 79 163
0.0165584323 95.2199836 50.7759573 255 79 163
-2.22044605e-16 95.2199836 50.5330349 255 79 163
0 60.8421055 67.3208935 255 79 163
0.0362812985 60.9834037 67.6102416 255 79 163
0.143305898 61.1176167 67.8850805 255 79 163
0.315707139 61.2380144 68.1316288 255 79 163
0.544840102 61.3385595 68.3375234 255 79 163
0.819215104 61.4142104 68.4924399 255 79 163
1.12507384 61.4611736 68.5886102 255 79 163
1.44707927 61.4770941 68.6212119 255 79 163
1.44707927 94.4078929 52.5400101 255 79 163
0.971382031 94.8000556 52.2590046 255 79 163
0.587051383 95.0563854 51.9080589 255 79 163
0.331202522 95.1798985 51.5779312 255 79 163
0.230527491 95.2099274 51.409995 255 79 163
0 68.9383277 50.2079525 218 222 230
0 95.2199836 50.2079525 218 222 230
84.381858 95.2199836 50.2079525 218 222 230
-2.22044605e-16 37.582386 67.3208935 255 79 163
0.0362812985 37.582386 67.642899 255 79 163
0.143305898 37.582386 67.9487577 255 79 163
0.315707139 37.582386 68.2231327 255 79 163
0.544840102 37.582386 68.4522657 255 79 163
0.819215104 37.582386 68.6246669 255 79 163
1.12507384 37.582386 68.7316915 255 79 163
1.44707927 37.582386 68.7679728 255 79 163
1.44707927 60.8421055 68.7679728 255 79 163
0 60.8421055 67.3208935 255 79 163
0.0362812985 60.8421055 67.642899 255 79 163
0.143305898 60.8421055 67.9487577 255 79 163
0.315707139 60.8421055 68.2231327 255 79 163
0.544840102 60.8421055 68.4522657 255 79 163
0.819215104 60.8421055 68.6246669 255 79 163
1.12507384 60.8421055 68.7316915 255 79 163
-2.22044605e-16 68.9383277 1.44707927 218 222 230
0 68.9383277 50.2079525 218 222 230
0.0380227908 68.9501703 1.11753678 218 222 230
0.150093024 68.9850758 0.805312105 218 222 230
0.330321289 69.0412098 0.526812989 218 222 230
0.569236393 69.1156226 0.296674863 218 222 230
0.854283091 69.2044035 0.126991733 218 222 230
1.14395627 69.2946254 0.0321040541 218 222 230
1.44707927 69.3890364 -2.22044605e-16 218 222 230
84.381858 95.2199836 0 218 222 230
84.381858 95.2199836 50.2079525 218 222 230
74.513058 37.582386 68.7679728 218 222 230
1.44707927 37.582386 68.7679728 218 222 230
-2.22044605e-16 37.582386 67.3208935 218 222 230
0.0362812985 37.582386 67.642899 218 222 230
0.143305898 37.582386 67.9487577 218 222 230
0.315707139 37.582386 68.2231327 218 222 230
0.544840102 37.582386 68.4522657 218 222 230
0.819215104 37.582386 68.6246669 218 222 230
1.12507384 37.582386 68.7316915 218 222 230
0 37.582386 45.878961 218 222 230
0 37.582386 44.5939706 218 222 230
0.0421830943 37.582386 44.940821 218 222 230
0.16627306 37.582386 45.2674496 218 222 230
0.365035326 37.582386 45.5548137 218 222 230
0.626881851 37.582386 45.7861596 218 222 230
0.936546717 37.582386 45.9479998 218 222 230
1.27597615 37.582386 46.0308987 218 222 230
74.513058 37.582386 54.7516508 218 222 230
-2.22044605e-16 0 1.44707927 255 79 163
-2.22044605e-16 68.9383277 1.44707927 255 79 163
0.0380227908 68.9501703 1.11753678 255 79 163
0.150093024 68.9850758 0.805312105 255 79 163
0.330321289 69.0412098 0.526812989 255 79 163
0.569236393 69.1156226 0.296674863 255 79 163
0.854283091 69.2044035 0.126991733 255 79 163
1.14395627 69.2946254 0.0321040541 255 79 163
1.44707927 69.3890364 -2.22044605e-16 255 79 163
1.44707927 0 -2.22044605e-16 255 79 163
0.0362812985 0 1.12507384 255 79 163
0.143305898 0 0.819215104 255 79 163
0.315707139 0 0.544840102 255 79 163
0.544840102 0 0.315707139 255 79 163
0.819215104 0 0.143305898 255 79 163
1.12507384 0 0.0362812985 255 79 163
1.44707927 0 -2.22044605e-16 218 222 230
86.2621075 -2.22044605e-16 0 218 222 230
-2.22044605e-16 0 1.44707927 218 222 230
0.0362812985 0 1.12507384 218 222 230
0.143305898 0 0.819215104 218 222 230
0.315707139 0 0.544840102 218 222 230
0.544840102 0 0.315707139 218 222 230
0.819215104 0 0.143305898 218 222 230
1.12507384 0 0.0362812985 218 222 230
0 0 44.5939706 218 222 230
0.0421830943 0 44.940821 218 222 230
0.16627306 0 45.2674496 218 222 230
0.365035326 0 45.5548137 218 222 230
0.626881851 0 45.7861596 218 222 230
0.936546717 0 45.9479998 218 222 230
1.27597615 0 46.0308987 218 222 230
73.0659787 -2.22044605e-16 54.579339 218 222 230
73.0659787 -2.22044605e-16 23.6138016 218 222 230
74.513058 0 23.6138016 218 222 230
86.2621075 0 23.6138016 218 222 230
33.2950517 0 5.23958957 218 222 230
34.7050436 0 5.39845751 218 222 230
36.0443327 0 5.86709501 218 222 230
37.2457613 0 6.62200265 218 222 230
38.2490848 0 7.62532618 218 222 230
39.0039925 0 8.8267548 218 222 230
39.47263 0 10.1660438 218 222 230
39.6314979 0 11.5760358 218 222 230
39.47263 0 12.9860277 218 222 230
39.0039925 0 14.3253167 218 222 230
38.2490848 0 15.5267453 218 222 230
37.2457613 0 16.5300689 218 222 230
36.0443327 0 17.2849765 218 222 230
34.7050436 0 17.753614 218 222 230
33.2950517 0 17.9124819 218 222 230
31.8850598 0 17.753614 218 222 230
30.5457707 0 17.2849765 218 222 230
29.3443421 0 16.5300689 218 222 230
28.3410186 0 15.5267453 218 222 230
27.586111 0 14.3253167 218 222 230
27.1174735 0 12.9860277 218 222 230
26.9586055 0 11.5760358 218 222 230
27.1174735 0 10.1660438 218 222 230
27.586111 0 8.8267548 218 222 230
28.3410186 0 7.62532618 218 222 230
29.3443421 0 6.62200265 218 222 230
30.5457707 0 5.86709501 218 222 230
31.8850598 0 5.39845751 218 222 230
0 0 44.5939706 255 79 163
0.0421830943 0 44.940821 255 79 163
0.16627306 0 45.2674496 255 79 163
0.365035326 0 45.5548137 255 79 163
0.626881851 0 45.7861596 255 79 163
0.936546717 0 45.9479998 255 79 163
1.27597615 0 46.0308987 255 79 163
1.27597615 37.582386 46.0308987 255 79 163
0 37.582386 44.5939706 255 79 163
0.0421830943 37.582386 44.940821 255 79 163
0.16627306 37.582386 45.2674496 255 79 163
0.365035326 37.582386 45.5548137 255 79 163
0.626881851 37.582386 45.7861596 255 79 163
0.936546717 37.582386 45.9479998 255 79 163
87.7091868 95.2199836 0 218 222 230
87.7091868 95.2199836 67.3208935 218 222 230
87.7091868 40.8064186 67.3208935 218 222 230
87.7091868 40.8064186 22.1667223 218 222 230
87.7091868 1.44707927 22.1667223 218 222 230
87.7091868 1.44707927 0 218 222 230
18.5838412 93.7729043 68.7679728 255 79 163
86.2621075 93.7729043 68.7679728 255 79 163
86.7485244 94.2593213 68.6837717 255 79 163
87.1394069 94.6502037 68.4717124 255 79 163
87.3967702 94.9075671 68.2189909 255 79 163
87.5684909 95.0792878 67.9433087 255 79 163
87.6596388 95.1704356 67.6963195 255 79 163
87.6967463 95.2075431 67.5102343 255 79 163
87.7091868 95.2199836 67.3208935 255 79 163
18.5838412 95.2199836 67.3208935 255 79 163
18.5838412 95.1837023 67.642899 255 79 163
18.5838412 95.0766777 67.9487577 255 79 163
18.5838412 94.9042765 68.2231327 255 79 163
18.5838412 94.6751435 68.4522657 255 79 163
18.5838412 94.4007685 68.6246669 255 79 163
18.5838412 94.0949098 68.7316915 255 79 163
84.381858 95.2199836 0 218 222 230
1.44707927 69.3890364 -2.22044605e-16 218 222 230
1.44707927 0 -2.22044605e-16 218 222 230
86.2621075 -2.22044605e-16 0 218 222 230
86.5841129 0.0362812985 0 218 222 230
86.8899717 0.143305898 0 218 222 230
87.1643467 0.315707139 0 218 222 230
87.3934796 0.544840102 0 218 222 230
87.5658809 0.819215104 0 218 222 230
87.6729055 1.12507384 0 218 222 230
87.7091868 1.44707927 0 218 222 230
87.7091868 95.2199836 0 218 222 230
17.2835229 94.4078929 52.5400101 255 79 163
17.2026167 94.2044797 52.6393435 255 79 163
17.1533204 93.9911898 52.7435001 255 79 163
17.136762 93.7729043 52.8500961 255 79 163
17.136762 93.7729043 67.3208935 255 79 163
18.5838412 95.2199836 67.3208935 255 79 163
18.2618358 95.1837023 67.3208935 255 79 163
17.9559771 95.0766777 67.3208935 255 79 163
17.6816021 94.9042765 67.3208935 255 79 163
17.4524691 94.6751435 67.3208935 255 79 163
17.2800679 94.4007685 67.3208935 255 79 163
17.1730433 94.0949098 67.3208935 255 79 163
18.5838412 95.2199836 51.2396917 255 79 163
18.108144 95.139561 51.715389 255 79 163
17.7238133 94.9366871 52.0997196 255 79 163
17.4679645 94.694239 52.3555685 255 79 163
17.3672895 94.5565115 52.4562435 255 79 163
1.44707927 94.4078929 52.5400101 255 79 163
17.2835229 94.4078929 52.5400101 255 79 163
18.5838412 95.2199836 51.2396917 255 79 163
18.108144 95.139561 51.715389 255 79 163
17.7238133 94.9366871 52.0997196 255 79 163
17.4679645 94.694239 52.3555685 255 79 163
17.3672895 94.5565115 52.4562435 255 79 163
0.146760894 95.2199836 51.2396917 255 79 163
0.971382031 94.8000556 52.2590046 255 79 163
0.587051383 95.0563854 51.9080589 255 79 163
0.331202522 95.1798985 51.5779312 255 79 163
0.230527491 95.2099274 51.409995 255 79 163
17.136762 93.7729043 52.8500961 218 222 230
17.136762 64.1398629 67.3208935 218 222 230
17.9488526 61.4770941 68.6212119 218 222 230
17.6613322 61.8567781 68.4357996 218 222 230
17.4253752 62.3640747 68.1880698 218 222 230
17.2108098 63.2040845 67.7778652 218 222 230
1.44707927 61.4770941 68.6212119 218 222 230
1.44707927 94.4078929 52.5400101 218 222 230
17.2835229 94.4078929 52.5400101 218 222 230
17.2026167 94.2044797 52.6393435 218 222 230
17.1533204 93.9911898 52.7435001 218 222 230
0 60.8421055 67.3208935 255 79 163
0.0362812985 60.9834037 67.6102416 255 79 163
0.143305898 61.1176167 67.8850805 255 79 163
0.315707139 61.2380144 68.1316288 255 79 163
0.544840102 61.3385595 68.3375234 255 79 163
0.819215104 61.4142104 68.4924399 255 79 163
1.12507384 61.4611736 68.5886102 255 79 163
1.44707927 61.4770941 68.6212119 255 79 163
0 60.8421055 67.3208935 255 79 163
0.0362812985 60.8421055 67.642899 255 79 163
0.143305898 60.8421055 67.9487577 255 79 163
0.315707139 60.8421055 68.2231327 255 79 163
0.544840102 60.8421055 68.4522657 255 79 163
0.819215104 60.8421055 68.6246669 255 79 163
1.12507384 60.8421055 68.7316915 255 79 163
1.44707927 60.8421055 68.7679728 255 79 163
1.44707927 61.2736809 68.702118 255 79 163
1.44707927 61.0603909 68.7514144 255 79 163
0.0708251006 60.9915279 67.7423622 255 79 163
0.0708251006 60.8927806 67.765185 255 79 163
0.276367548 61.0336435 68.1496188 255 79 163
0.596507415 61.2332985 68.4243127 255 79 163
0.596507415 60.9747748 68.4840637 255 79 163
0.999907182 61.1520205 68.6617993 255 79 163
86.2621075 39.3593393 68.7679728 218 222 230
75.9601372 39.3593393 68.7679728 218 222 230
86.2621075 93.7729043 68.7679728 218 222 230
18.5838412 93.7729043 68.7679728 218 222 230
18.5838412 60.8421055 68.7679728 218 222 230
1.44707927 60.8421055 68.7679728 218 222 230
1.44707927 37.582386 68.7679728 218 222 230
74.513058 37.582386 68.7679728 218 222 230
74.513058 37.91226 68.7679728 218 222 230
75.6381318 39.323058 68.7679728 218 222 230
75.3322731 39.2160334 68.7679728 218 222 230
75.0578981 39.0436322 68.7679728 218 222 230
74.8287651 38.8144992 68.7679728 218 222 230
74.6563639 38.5401242 68.7679728 218 222 230
74.5493393 38.2342655 68.7679728 218 222 230
74.513058 1.44707927 54.7516508 218 222 230
74.513058 37.582386 54.7516508 218 222 230
74.513058 37.582386 68.7679728 218 222 230
74.513058 37.91226 68.7679728 218 222 230
74.513058 37.91226 23.6138016 218 222 230
74.513058 1.44707927 23.6138016 218 222 230
74.513058 1.44707927 54.7516508 218 222 230
74.513058 37.582386 54.7516508 218 222 230
73.0659787 -2.22044605e-16 54.579339 218 222 230
73.4030969 0.03981606 54.6194815 218 222 230
73.7216636 0.15707318 54.657415 218 222 230
74.0041483 0.345318754 54.6910521 218 222 230
74.2350059 0.594193713 54.7185416 218 222 230
74.4015325 0.890002579 54.7383709 218 222 230
74.4849027 1.16301397 54.7482982 218 222 230
1.27597615 0 46.0308987 218 222 230
1.27597615 37.582386 46.0308987 218 222 230
86.2621075 -2.22044605e-16 0 255 79 163
86.5841129 0.0362812985 0 255 79 163
86.8899717 0.143305898 0 255 79 163
87.1643467 0.315707139 0 255 79 163
87.3934796 0.544840102 0 255 79 163
87.5658809 0.819215104 0 255 79 163
87.6729055 1.12507384 0 255 79 163
87.7091868 1.44707927 0 255 79 163
87.7091868 1.44707927 22.1667223 255 79 163
87.6249857 0.960662312 22.6531393 255 79 163
87.4129264 0.569779868 23.0440217 255 79 163
87.1602048 0.312416521 23.3013851 255 79 163
86.8845227 0.140695806 23.4731058 255 79 163
86.6375335 0.0495479638 23.5642536 255 79 163
86.4514482 0.012440466 23.6013611 255 79 163
86.2621075 0 23.6138016 255 79 163
74.513058 1.44707927 23.6138016 218 222 230
74.513058 37.91226 23.6138016 218 222 230
75.9601372 39.3593393 23.6138016 218 222 230
75.6381318 39.323058 23.6138016 218 222 230
75.3322731 39.2160334 23.6138016 218 222 230
75.0578981 39.0436322 23.6138016 218 222 230
74.8287651 38.8144992 23.6138016 218 222 230
74.6563639 38.5401242 23.6138016 218 222 230
74.5493393 38.2342655 23.6138016 218 222 230
86.2621075 39.3593393 23.6138016 218 222 230
86.2621075 0 23.6138016 218 222 230
74.513058 0 23.6138016 218 222 230
73.0659787 -2.22044605e-16 23.6138016 218 222 230
73.3879841 0.0362812985 23.6138016 218 222 230
73.6938429 0.143305898 23.6138016 218 222 230
73.9682179 0.315707139 23.6138016 218 222 230
74.1973508 0.544840102 23.6138016 218 222 230
74.3697521 0.819215104 23.6138016 218 222 230
74.4767767 1.12507384 23.6138016 218 222 230
73.0659787 -2.22044605e-16 54.579339 255 79 163
73.0659787 -2.22044605e-16 23.6138016 255 79 163
73.3879841 0.0362812985 23.6138016 255 79 163
73.6938429 0.143305898 23.6138016 255 79 163
73.9682179 0.315707139 23.6138016 255 79 163
74.1973508 0.544840102 23.6138016 255 79 163
74.3697521 0.819215104 23.6138016 255 79 163
74.4767767 1.12507384 23.6138016 255 79 163
74.513058 1.44707927 23.6138016 255 79 163
74.513058 1.44707927 54.7516508 255 79 163
73.4030969 0.03981606 54.6194815 255 79 163
73.7216636 0.15707318 54.657415 255 79 163
74.0041483 0.345318754 54.6910521 255 79 163
74.2350059 0.594193713 54.7185416 255 79 163
74.4015325 0.890002579 54.7383709 255 79 163
74.4849027 1.16301397 54.7482982 255 79 163
33.2950517 0 5.23958957 218 222 230
33.2950517 10.8819481 5.23958957 218 222 230
34.7050436 10.8819481 5.39845751 218 222 230
36.0443327 10.8819481 5.86709501 218 222 230
37.2457613 10.8819481 6.62200265 218 222 230
38.2490848 10.8819481 7.62532618 218 222 230
39.0039925 10.8819481 8.8267548 218 222 230
39.47263 10.8819481 10.1660438 218 222 230
39.6314979 10.8819481 11.5760358 218 222 230
39.47263 10.8819481 12.9860277 218 222 230
39.0039925 10.8819481 14.3253167 218 222 230
38.2490848 10.8819481 15.5267453 218 222 230
37.2457613 10.8819481 16.5300689 218 222 230
36.0443327 10.8819481 17.2849765 218 222 230
34.7050436 10.8819481 17.753614 218 222 230
33.2950517 10.8819481 17.9124819 218 222 230
31.8850598 10.8819481 17.753614 218 222 230
30.5457707 10.8819481 17.2849765 218 222 230
29.3443421 10.8819481 16.5300689 218 222 230
28.3410186 10.8819481 15.5267453 218 222 230
27.586111 10.8819481 14.3253167 218 222 230
27.1174735 10.8819481 12.9860277 218 222 230
26.9586055 10.8819481 11.5760358 218 222 230
27.1174735 10.8819481 10.1660438 218 222 230
27.586111 10.8819481 8.8267548 218 222 230
28.3410186 10.8819481 7.62532618 218 222 230
29.3443421 10.8819481 6.62200265 218 222 230
30.5457707 10.8819481 5.86709501 218 222 230
31.8850598 10.8819481 5.39845751 218 222 230
33.2950517 10.8819481 5.23958957 218 222 230
33.2950517 0 5.23958957 218 222 230
34.7050436 0 5.39845751 218 222 230
36.0443327 0 5.86709501 218 222 230
37.2457613 0 6.62200265 218 222 230
38.2490848 0 7.62532618 218 222 230
39.0039925 0 8.8267548 218 222 230
39.47263 0 10.1660438 218 222 230
39.6314979 0 11.5760358 218 222 230
39.47263 0 12.9860277 218 222 230
39.0039925 0 14.3253167 218 222 230
38.2490848 0 15.5267453 218 222 230
37.2457613 0 16.5300689 218 222 230
36.0443327 0 17.2849765 218 222 230
34.7050436 0 17.753614 218 222 230
33.2950517 0 17.9124819 218 222 230
31.8850598 0 17.753614 218 222 230
30.5457707 0 17.2849765 218 222 230
29.3443421 0 16.5300689 218 222 230
28.3410186 0 15.5267453 218 222 230
27.586111 0 14.3253167 218 222 230
27.1174735 0 12.9860277 218 222 230
26.9586055 0 11.5760358 218 222 230
27.1174735 0 10.1660438 218 222 230
27.586111 0 8.8267548 218 222 230
28.3410186 0 7.62532618 218 222 230
29.3443421 0 6.62200265 218 222 230
30.5457707 0 5.86709501 218 222 230
31.8850598 0 5.39845751 218 222 230
86.2621075 39.3593393 68.7679728 255 79 163
86.5182501 39.3821892 68.7451229 255 79 163
86.7663035 39.4500172 68.6772949 255 79 163
86.9984341 39.5606812 68.5666309 255 79 163
87.207311 39.7106865 68.4166256 255 79 163
87.3863378 39.8952958 68.2320163 255 79 163
87.5298605 40.1086789 68.0186332 255 79 163
87.6636384 40.4462108 67.6811013 255 79 163
87.7091868 40.8064186 67.3208935 255 79 163
87.7091868 95.2199836 67.3208935 255 79 163
86.2621075 93.7729043 68.7679728 255 79 163
86.7485244 94.2593213 68.6837717 255 79 163
87.1394069 94.6502037 68.4717124 255 79 163
87.3967702 94.9075671 68.2189909 255 79 163
87.5684909 95.0792878 67.9433087 255 79 163
87.6596388 95.1704356 67.6963195 255 79 163
87.6967463 95.2075431 67.5102343 255 79 163
87.7091868 40.8064186 22.1667223 255 79 163
87.7091868 40.8064186 67.3208935 255 79 163
86.2621075 39.3593393 68.7679728 255 79 163
86.5182501 39.3821892 68.7451229 255 79 163
86.7663035 39.4500172 68.6772949 255 79 163
86.9984341 39.5606812 68.5666309 255 79 163
87.207311 39.7106865 68.4166256 255 79 163
87.3863378 39.8952958 68.2320163 255 79 163
87.5298605 40.1086789 68.0186332 255 79 163
87.6636384 40.4462108 67.6811013 255 79 163
86.2621075 39.3593393 23.6138016 255 79 163
87.6249857 40.3200016 22.6531393 255 79 163
87.4129264 39.9291192 23.0440217 255 79 163
87.1602048 39.6717558 23.3013851 255 79 163
86.8845227 39.5000351 23.4731058 255 79 163
86.6375335 39.4088873 23.5642536 255 79 163
86.4514482 39.3717798 23.6013611 255 79 163
87.7091868 1.44707927 22.1667223 255 79 163
87.7091868 40.8064186 22.1667223 255 79 163
87.6249857 40.3200016 22.6531393 255 79 163
87.4129264 39.9291192 23.0440217 255 79 163
87.1602048 39.6717558 23.3013851 255 79 163
86.8845227 39.5000351 23.4731058 255 79 163
86.6375335 39.4088873 23.5642536 255 79 163
86.4514482 39.3717798 23.6013611 255 79 163
86.2621075 39.3593393 23.6138016 255 79 163
86.2621075 0 23.6138016 255 79 163
87.6249857 0.960662312 22.6531393 255 79 163
87.4129264 0.569779868 23.0440217 255 79 163
87.1602048 0.312416521 23.3013851 255 79 163
86.8845227 0.140695806 23.4731058 255 79 163
86.6375335 0.0495479638 23.5642536 255 79 163
86.4514482 0.012440466 23.6013611 255 79 163
18.5838412 95.2199836 67.3208935 255 79 163
18.5838412 95.1837023 67.642899 255 79 163
18.5838412 95.0766777 67.9487577 255 79 163
18.5838412 94.9042765 68.2231327 255 79 163
18.5838412 94.6751435 68.4522657 255 79 163
18.5838412 94.4007685 68.6246669 255 79 163
18.5838412 94.0949098 68.7316915 255 79 163
18.5838412 93.7729043 68.7679728 255 79 163
18.5838412 95.2199836 67.3208935 255 79 163
18.2618358 95.1837023 67.3208935 255 79 163
17.9559771 95.0766777 67.3208935 255 79 163
17.6816021 94.9042765 67.3208935 255 79 163
17.4524691 94.6751435 67.3208935 255 79 163
17.2800679 94.4007685 67.3208935 255 79 163
17.1730433 94.0949098 67.3208935 255 79 163
17.136762 93.7729043 67.3208935 255 79 163
18.2618358 93.7729043 68.7316915 255 79 163
17.9559771 93.7729043 68.6246669 255 79 163
17.6816021 93.7729043 68.4522657 255 79 163
17.4524691 93.7729043 68.2231327 255 79 163
17.2800679 93.7729043 67.9487577 255 79 163
17.1730433 93.7729043 67.642899 255 79 163
18.5138881 95.1491585 67.7625602 255 79 163
18.3808293 95.1491585 67.7193268 255 79 163
18.2676428 95.1491585 67.6370919 255 79 163
18.3210001 94.943616 68.1298354 255 79 163
18.185408 95.1491585 67.5239054 255 79 163
18.0838876 94.943616 68.0090206 255 79 163
18.4007016 94.6234762 68.4771918 255 79 163
18.1421746 95.1491585 67.3908466 255 79 163
17.8957141 94.943616 67.8208471 255 79 163
18.0523492 94.6234762 68.3640053 255 79 163
17.7748993 94.943616 67.5837347 255 79 163
17.756023 94.6234762 68.1487117 255 79 163
18.1585553 94.2200764 68.629789 255 79 163
17.5407294 94.6234762 67.8523855 255 79 163
17.7748993 94.2200764 68.4343065 255 79 163
17.4275429 94.6234762 67.5040332 255 79 163
17.4704282 94.2200764 68.1298354 255 79 163
17.2749457 94.2200764 67.7461794 255 79 163
17.136762 93.7729043 52.8500961 218 222 230
17.136762 64.1398629 67.3208935 218 222 230
17.136762 93.7729043 67.3208935 218 222 230
18.5838412 60.8421055 68.7679728 255 79 163
18.5838412 93.7729043 68.7679728 255 79 163
18.2618358 93.7729043 68.7316915 255 79 163
17.9559771 93.7729043 68.6246669 255 79 163
17.6816021 93.7729043 68.4522657 255 79 163
17.4524691 93.7729043 68.2231327 255 79 163
17.2800679 93.7729043 67.9487577 255 79 163
17.1730433 93.7729043 67.642899 255 79 163
17.136762 93.7729043 67.3208935 255 79 163
17.136762 64.1398629 67.3208935 255 79 163
17.9488526 61.4770941 68.6212119 255 79 163
17.6613322 61.8567781 68.4357996 255 79 163
17.4253752 62.3640747 68.1880698 255 79 163
17.2108098 63.2040845 67.7778652 255 79 163
18.2936596 61.1322871 68.7385793 255 79 163
18.1175486 61.308398 68.6907875 255 79 163
18.5838412 60.8421055 68.7679728 255 79 163
18.2936596 61.1322871 68.7385793 255 79 163
18.1175486 61.308398 68.6907875 255 79 163
17.9488526 61.4770941 68.6212119 255 79 163
1.44707927 61.4770941 68.6212119 255 79 163
1.44707927 61.2736809 68.702118 255 79 163
1.44707927 61.0603909 68.7514144 255 79 163
1.44707927 60.8421055 68.7679728 255 79 163
86.2621075 39.3593393 68.7679728 218 222 230
75.9601372 39.3593393 68.7679728 218 222 230
75.9601372 39.3593393 23.6138016 218 222 230
86.2621075 39.3593393 23.6138016 218 222 230
75.9601372 39.3593393 68.7679728 255 79 163
75.9601372 39.3593393 23.6138016 255 79 163
75.6381318 39.323058 23.6138016 255 79 163
75.3322731 39.2160334 23.6138016 255 79 163
75.0578981 39.0436322 23.6138016 255 79 163
74.8287651 38.8144992 23.6138016 255 79 163
74.6563639 38.5401242 23.6138016 255 79 163
74.5493393 38.2342655 23.6138016 255 79 163
74.513058 37.91226 23.6138016 255 79 163
74.513058 37.91226 68.7679728 255 79 163
75.6381318 39.323058 68.7679728 255 79 163
75.3322731 39.2160334 68.7679728 255 79 163
75.0578981 39.0436322 68.7679728 255 79 163
74.8287651 38.8144992 68.7679728 255 79 163
74.6563639 38.5401242 68.7679728 255 79 163
74.5493393 38.2342655 68.7679728 255 79 163
33.2950517 10.8819481 5.23958957 218 222 230
34.7050436 10.8819481 5.39845751 218 222 230
36.0443327 10.8819481 5.86709501 218 222 230
37.2457613 10.8819481 6.62200265 218 222 230
38.2490848 10.8819481 7.62532618 218 222 230
39.0039925 10.8819481 8.8267548 218 222 230
39.47263 10.8819481 10.1660438 218 222 230
39.6314979 10.8819481 11.5760358 218 222 230
39.47263 10.8819481 12.9860277 218 222 230
39.0039925 10.8819481 14.3253167 218 222 230
38.2490848 10.8819481 15.5267453 218 222 230
37.2457613 10.8819481 16.5300689 218 222 230
36.0443327 10.8819481 17.2849765 218 222 230
34.7050436 10.8819481 17.753614 218 222 230
33.2950517 10.8819481 17.9124819 218 222 230
31.8850598 10.8819481 17.753614 218 222 230
30.5457707 10.8819481 17.2849765 218 222 230
29.3443421 10.8819481 16.5300689 218 222 230
28.3410186 10.8819481 15.5267453 218 222 230
27.586111 10.8819481 14.3253167 218 222 230
27.1174735 10.8819481 12.9860277 218 222 230
26.9586055 10.8819481 11.5760358 218 222 230
27.1174735 10.8819481 10.1660438 218 222 230
27.586111 10.8819481 8.8267548 218 222 230
28.3410186 10.8819481 7.62532618 218 222 230
29.3443421 10.8819481 6.62200265 218 222 230
30.5457707 10.8819481 5.86709501 218 222 230
31.8850598 10.8819481 5.39845751 218 222 230
33.2950517 10.8819481 16.6879598 218 222 230
34.5184152 10.8819481 16.5394166 218 222 230
35.6706813 10.8819481 16.1024197 218 222 230
36.6848844 10.8819481 15.4023659 218 222 230
37.5020828 10.8819481 14.4799396 218 222 230
38.0747838 10.8819481 13.388749 218 222 230
38.3697041 10.8819481 12.1922101 218 222 230
38.3697041 10.8819481 10.9598614 218 222 230
38.0747838 10.8819481 9.7633225 218 222 230
37.5020828 10.8819481 8.6721319 218 222 230
36.6848844 10.8819481 7.74970564 218 222 230
35.6706813 10.8819481 7.04965178 218 222 230
34.5184152 10.8819481 6.6126549 218 222 230
33.2950517 10.8819481 6.46411168 218 222 230
32.0716882 10.8819481 6.6126549 218 222 230
30.9194221 10.8819481 7.04965178 218 222 230
29.905219 10.8819481 7.74970564 218 222 230
29.0880207 10.8819481 8.6721319 218 222 230
28.5153197 10.8819481 9.7633225 218 222 230
28.2203993 10.8819481 10.9598614 218 222 230
28.2203993 10.8819481 12.1922101 218 222 230
28.5153197 10.8819481 13.388749 218 222 230
29.0880207 10.8819481 14.4799396 218 222 230
29.905219 10.8819481 15.4023659 218 222 230
30.9194221 10.8819481 16.1024197 218 222 230
32.0716882 10.8819481 16.5394166 218 222 230
33.2950517 1.44707927 16.6879598 218 222 230
34.5184152 1.44707927 16.5394166 218 222 230
35.6706813 1.44707927 16.1024197 218 222 230
36.6848844 1.44707927 15.4023659 218 222 230
37.5020828 1.44707927 14.4799396 218 222 230
38.0747838 1.44707927 13.388749 218 222 230
38.3697041 1.44707927 12.1922101 218 222 230
38.3697041 1.44707927 10.9598614 218 222 230
38.0747838 1.44707927 9.7633225 218 222 230
37.5020828 1.44707927 8.6721319 218 222 230
36.6848844 1.44707927 7.74970564 218 222 230
35.6706813 1.44707927 7.04965178 218 222 230
34.5184152 1.44707927 6.6126549 218 222 230
33.2950517 1.44707927 6.46411168 218 222 230
32.0716882 1.44707927 6.6126549 218 222 230
30.9194221 1.44707927 7.04965178 218 222 230
29.905219 1.44707927 7.74970564 218 222 230
29.0880207 1.44707927 8.6721319 218 222 230
28.5153197 1.44707927 9.7633225 218 222 230
28.2203993 1.44707927 10.9598614 218 222 230
28.2203993 1.44707927 12.1922101 218 222 230
28.5153197 1.44707927 13.388749 218 222 230
29.0880207 1.44707927 14.4799396 218 222 230
29.905219 1.44707927 15.4023659 218 222 230
30.9194221 1.44707927 16.1024197 218 222 230
32.0716882 1.44707927 16.5394166 218 222 230
33.2950517 1.44707927 16.6879598 218 222 230
33.2950517 10.8819481 16.6879598 218 222 230
33.2950517 10.8819481 16.6879598 218 222 230
34.5184152 10.8819481 16.5394166 218 222 230
35.6706813 10.8819481 16.1024197 218 222 230
36.6848844 10.8819481 15.4023659 218 222 230
37.5020828 10.8819481 14.4799396 218 222 230
38.0747838 10.8819481 13.388749 218 222 230
38.3697041 10.8819481 12.1922101 218 222 230
38.3697041 10.8819481 10.9598614 218 222 230
38.0747838 10.8819481 9.7633225 218 222 230
37.5020828 10.8819481 8.6721319 218 222 230
36.6848844 10.8819481 7.74970564 218 222 230
35.6706813 10.8819481 7.04965178 218 222 230
34.5184152 10.8819481 6.6126549 218 222 230
33.2950517 10.8819481 6.46411168 218 222 230
32.0716882 10.8819481 6.6126549 218 222 230
30.9194221 10.8819481 7.04965178 218 222 230
29.905219 10.8819481 7.74970564 218 222 230
29.0880207 10.8819481 8.6721319 218 222 230
28.5153197 10.8819481 9.7633225 218 222 230
28.2203993 10.8819481 10.9598614 218 222 230
28.2203993 10.8819481 12.1922101 218 222 230
28.5153197 10.8819481 13.388749 218 222 230
29.0880207 10.8819481 14.4799396 218 222 230
29.905219 10.8819481 15.4023659 218 222 230
30.9194221 10.8819481 16.1024197 218 222 230
32.0716882 10.8819481 16.5394166 218 222 230
33.2950517 0 15.2408806 255 79 163
34.1721065 0 15.1343868 255 79 163
34.99819 0 14.8210947 255 79 163
35.7252933 0 14.3192115 255 79 163
36.3111599 0 13.6579049 255 79 163
36.7217411 0 12.8756076 255 79 163
36.9331757 0 12.017784 255 79 163
36.9331757 0 11.1342875 255 79 163
36.7217411 0 10.2764639 255 79 163
36.3111599 0 9.49416662 255 79 163
35.7252933 0 8.83286003 255 79 163
34.99819 0 8.33097684 255 79 163
34.1721065 0 8.01768467 255 79 163
33.2950517 0 7.91119095 255 79 163
32.4179969 0 8.01768467 255 79 163
31.5919134 0 8.33097684 255 79 163
30.8648101 0 8.83286003 255 79 163
30.2789435 0 9.49416662 255 79 163
29.8683623 0 10.2764639 255 79 163
29.6569277 0 11.1342875 255 79 163
29.6569277 0 12.017784 255 79 163
29.8683623 0 12.8756076 255 79 163
30.2789435 0 13.6579049 255 79 163
30.8648101 0 14.3192115 255 79 163
31.5919134 0 14.8210947 255 79 163
32.4179969 0 15.1343868 255 79 163
33.2950517 0 15.2408806 255 79 163
33.2950517 1.44707927 16.6879598 255 79 163
33.2950517 1.12507384 16.6516785 255 79 163
33.2950517 0.819215104 16.5446539 255 79 163
33.2950517 0.544840102 16.3722527 255 79 163
33.2950517 0.315707139 16.1431197 255 79 163
33.2950517 0.143305898 15.8687447 255 79 163
33.2950517 0.0362812985 15.562886 255 79 163
33.2950517 1.44707927 16.6879598 255 79 163
34.5184152 1.44707927 16.5394166 255 79 163
35.6706813 1.44707927 16.1024197 255 79 163
36.6848844 1.44707927 15.4023659 255 79 163
37.5020828 1.44707927 14.4799396 255 79 163
38.0747838 1.44707927 13.388749 255 79 163
38.3697041 1.44707927 12.1922101 255 79 163
38.3697041 1.44707927 10.9598614 255 79 163
38.0747838 1.44707927 9.7633225 255 79 163
37.5020828 1.44707927 8.6721319 255 79 163
36.6848844 1.44707927 7.74970564 255 79 163
35.6706813 1.44707927 7.04965178 255 79 163
34.5184152 1.44707927 6.6126549 255 79 163
33.2950517 1.44707927 6.46411168 255 79 163
32.0716882 1.44707927 6.6126549 255 79 163
30.9194221 1.44707927 7.04965178 255 79 163
29.905219 1.44707927 7.74970564 255 79 163
29.0880207 1.44707927 8.6721319 255 79 163
28.5153197 1.44707927 9.7633225 255 79 163
28.2203993 1.44707927 10.9598614 255 79 163
28.2203993 1.44707927 12.1922101 255 79 163
28.5153197 1.44707927 13.388749 255 79 163
29.0880207 1.44707927 14.4799396 255 79 163
29.905219 1.44707927 15.4023659 255 79 163
30.9194221 1.44707927 16.1024197 255 79 163
32.0716882 1.44707927 16.5394166 255 79 163
33.2950517 1.12507384 16.6516785 255 79 163
33.2950517 0.819215104 16.5446539 255 79 163
33.2950517 0.544840102 16.3722527 255 79 163
33.2950517 0.315707139 16.1431197 255 79 163
33.2950517 0.143305898 15.8687447 255 79 163
33.2950517 0.0362812985 15.562886 255 79 163
32.0803709 1.12507384 16.5041896 255 79 163
32.1059835 0.819215104 16.4002749 255 79 163
32.1472419 0.544840102 16.2328834 255 79 163
32.202077 0.315707139 16.0104086 255 79 163
30.9362829 1.12507384 16.0702943 255 79 163
32.2677392 0.143305898 15.7440064 255 79 163
30.9860197 0.819215104 15.9755287 255 79 163
32.340936 0.0362812985 15.4470354 255 79 163
31.0661386 0.544840102 15.822875 255 79 163
31.1726219 0.315707139 15.6199878 255 79 163
29.929278 1.12507384 15.3752089 255 79 163
31.3001304 0.143305898 15.3770408 255 79 163
30.0002484 0.819215104 15.2950999 255 79 163
31.44227 0.0362812985 15.1062163 255 79 163
30.1145716 0.544840102 15.1660557 255 79 163
30.2665148 0.315707139 14.9945472 255 79 163
29.1178796 1.12507384 14.4593295 255 79 163
30.4484591 0.143305898 14.7891746 255 79 163
29.2059591 0.819215104 14.3985326 255 79 163
30.651281 0.0362812985 14.560236 255 79 163
29.3478425 0.544840102 14.3005975 255 79 163
29.5364153 0.315707139 14.1704352 255 79 163
28.5492433 1.12507384 13.3758835 255 79 163
29.7622215 0.143305898 14.0145724 255 79 163
28.649313 0.819215104 13.3379321 255 79 163
30.0139383 0.0362812985 13.8408248 255 79 163
28.810511 0.544840102 13.2767977 255 79 163
29.024754 0.315707139 13.1955461 255 79 163
28.2564161 1.12507384 12.1878369 255 79 163
29.2812991 0.143305898 13.0982513 255 79 163
28.3626603 0.819215104 12.1749365 255 79 163
29.567282 0.0362812985 12.9897923 255 79 163
28.5338046 0.544840102 12.1541558 255 79 163
28.7612669 0.315707139 12.1265369 255 79 163
28.2564161 1.12507384 10.9642346 255 79 163
29.0336414 0.143305898 12.0934647 255 79 163
28.3626603 0.819215104 10.977135 255 79 163
29.3372701 0.0362812985 12.0565975 255 79 163
28.5338046 0.544840102 10.9979157 255 79 163
28.7612669 0.315707139 11.0255346 255 79 163
28.5492433 1.12507384 9.77618802 255 79 163
29.0336414 0.143305898 11.0586069 255 79 163
28.649313 0.819215104 9.81413947 255 79 163
29.3372701 0.0362812985 11.0954741 255 79 163
28.810511 0.544840102 9.87527379 255 79 163
29.024754 0.315707139 9.95652546 255 79 163
29.1178796 1.12507384 8.69274203 255 79 163
29.2812991 0.143305898 10.0538202 255 79 163
29.2059591 0.819215104 8.75353893 255 79 163
29.567282 0.0362812985 10.1622792 255 79 163
29.3478425 0.544840102 8.851474 255 79 163
29.5364153 0.315707139 8.98163636 255 79 163
29.929278 1.12507384 7.77686258 255 79 163
29.7622215 0.143305898 9.13749912 255 79 163
30.0002484 0.819215104 7.85697165 255 79 163
30.0139383 0.0362812985 9.31124669 255 79 163
30.1145716 0.544840102 7.98601583 255 79 163
30.2665148 0.315707139 8.15752431 255 79 163
30.9362829 1.12507384 7.08177727 255 79 163
30.4484591 0.143305898 8.36289695 255 79 163
30.9860197 0.819215104 7.17654285 255 79 163
30.651281 0.0362812985 8.5918355 255 79 163
31.0661386 0.544840102 7.32919657 255 79 163
31.1726219 0.315707139 7.53208373 255 79 163
32.0803709 1.12507384 6.64788193 255 79 163
31.3001304 0.143305898 7.77503073 255 79 163
32.1059835 0.819215104 6.75179659 255 79 163
31.44227 0.0362812985 8.04585519 255 79 163
32.1472419 0.544840102 6.91918816 255 79 163
32.202077 0.315707139 7.14166294 255 79 163
33.2950517 1.12507384 6.50039298 255 79 163
32.2677392 0.143305898 7.4080651 255 79 163
33.2950517 0.819215104 6.60741758 255 79 163
32.340936 0.0362812985 7.70503614 255 79 163
33.2950517 0.544840102 6.77981882 255 79 163
33.2950517 0.315707139 7.00895178 255 79 163
34.5097325 1.12507384 6.64788193 255 79 163
33.2950517 0.143305898 7.28332678 255 79 163
34.4841199 0.819215104 6.75179659 255 79 163
33.2950517 0.0362812985 7.58918551 255 79 163
34.4428615 0.544840102 6.91918816 255 79 163
34.3880264 0.315707139 7.14166294 255 79 163
35.6538205 1.12507384 7.08177727 255 79 163
34.3223642 0.143305898 7.4080651 255 79 163
35.6040837 0.819215104 7.17654285 255 79 163
34.2491674 0.0362812985 7.70503614 255 79 163
35.5239649 0.544840102 7.32919657 255 79 163
35.4174815 0.315707139 7.53208373 255 79 163
36.6608254 1.12507384 7.77686258 255 79 163
35.289973 0.143305898 7.77503073 255 79 163
36.589855 0.819215104 7.85697165 255 79 163
35.1478334 0.0362812985 8.04585519 255 79 163
36.4755318 0.544840102 7.98601583 255 79 163
36.3235886 0.315707139 8.15752431 255 79 163
37.4722238 1.12507384 8.69274203 255 79 163
36.1416443 0.143305898 8.36289695 255 79 163
37.3841443 0.819215104 8.75353893 255 79 163
35.9388224 0.0362812985 8.5918355 255 79 163
37.2422609 0.544840102 8.851474 255 79 163
37.0536881 0.315707139 8.98163636 255 79 163
38.0408602 1.12507384 9.77618802 255 79 163
36.8278819 0.143305898 9.13749912 255 79 163
37.9407904 0.819215104 9.81413947 255 79 163
36.5761651 0.0362812985 9.31124669 255 79 163
37.7795925 0.544840102 9.87527379 255 79 163
37.5653494 0.315707139 9.95652546 255 79 163
38.3336873 1.12507384 10.9642346 255 79 163
37.3088043 0.143305898 10.0538202 255 79 163
38.2274431 0.819215104 10.977135 255 79 163
37.0228214 0.0362812985 10.1622792 255 79 163
38.0562988 0.544840102 10.9979157 255 79 163
37.8288365 0.315707139 11.0255346 255 79 163
38.3336873 1.12507384 12.1878369 255 79 163
37.556462 0.143305898 11.0586069 255 79 163
38.2274431 0.819215104 12.1749365 255 79 163
37.2528333 0.0362812985 11.0954741 255 79 163
38.0562988 0.544840102 12.1541558 255 79 163
37.8288365 0.315707139 12.1265369 255 79 163
38.0408602 1.12507384 13.3758835 255 79 163
37.556462 0.143305898 12.0934647 255 79 163
37.9407904 0.819215104 13.3379321 255 79 163
37.2528333 0.0362812985 12.0565975 255 79 163
37.7795925 0.544840102 13.2767977 255 79 163
37.5653494 0.315707139 13.1955461 255 79 163
37.4722238 1.12507384 14.4593295 255 79 163
37.3088043 0.143305898 13.0982513 255 79 163
37.3841443 0.819215104 14.3985326 255 79 163
37.0228214 0.0362812985 12.9897923 255 79 163
37.2422609 0.544840102 14.3005975 255 79 163
37.0536881 0.315707139 14.1704352 255 79 163
36.6608254 1.12507384 15.3752089 255 79 163
36.8278819 0.143305898 14.0145724 255 79 163
36.589855 0.819215104 15.2950999 255 79 163
36.5761651 0.0362812985 13.8408248 255 79 163
36.4755318 0.544840102 15.1660557 255 79 163
36.3235886 0.315707139 14.9945472 255 79 163
35.6538205 1.12507384 16.0702943 255 79 163
36.1416443 0.143305898 14.7891746 255 79 163
35.6040837 0.819215104 15.9755287 255 79 163
35.9388224 0.0362812985 14.560236 255 79 163
35.5239649 0.544840102 15.822875 255 79 163
35.4174815 0.315707139 15.6199878 255 79 163
34.5097325 1.12507384 16.5041896 255 79 163
35.289973 0.143305898 15.3770408 255 79 163
34.4841199 0.819215104 16.4002749 255 79 163
35.1478334 0.0362812985 15.1062163 255 79 163
34.4428615 0.544840102 16.2328834 255 79 163
34.3880264 0.315707139 16.0104086 255 79 163
34.3223642 0.143305898 15.7440064 255 79 163
34.2491674 0.0362812985 15.4470354 255 79 163
33.2950517 0 15.2408806 218 222 230
34.1721065 0 15.1343868 218 222 230
34.99819 0 14.8210947 218 222 230
35.7252933 0 14.3192115 218 222 230
36.3111599 0 13.6579049 218 222 230
36.7217411 0 12.8756076 218 222 230
36.9331757 0 12.017784 218 222 230
36.9331757 0 11.1342875 218 222 230
36.7217411 0 10.2764639 218 222 230
36.3111599 0 9.49416662 218 222 230
35.7252933 0 8.83286003 218 222 230
34.99819 0 8.33097684 218 222 230
34.1721065 0 8.01768467 218 222 230
33.2950517 0 7.91119095 218 222 230
32.4179969 0 8.01768467 218 222 230
31.5919134 0 8.33097684 218 222 230
30.8648101 0 8.83286003 218 222 230
30.2789435 0 9.49416662 218 222 230
29.8683623 0 10.2764639 218 222 230
29.6569277 0 11.1342875 218 222 230
29.6569277 0 12.017784 218 222 230
29.8683623 0 12.8756076 218 222 230
30.2789435 0 13.6579049 218 222 230
30.8648101 0 14.3192115 218 222 230
31.5919134 0 14.8210947 218 222 230
32.4179969 0 15.1343868 218 222 230
3 9 1 0
3 2 1 9
3 5 8 7
3 5 9 8
3 4 2 9
3 4 9 5
3 3 2 4
3 6 5 7
3 16 14 15
3 16 18 17
3 16 15 18
3 19 14 16
3 13 10 12
3 13 19 20
3 11 13 20
3 11 10 13
3 13 14 19
3 31 32 33
3 31 33 34
3 30 34 35
3 30 31 34
3 29 35 36
3 29 30 35
3 28 36 37
3 28 29 36
3 27 21 22
3 27 37 21
3 27 28 37
3 26 22 23
3 26 27 22
3 25 23 24
3 25 26 23
3 39 40 38
3 51 41 42
3 51 50 41
3 52 42 43
3 52 51 42
3 53 43 44
3 53 52 43
3 54 44 45
3 54 53 44
3 55 45 46
3 55 46 47
3 55 54 45
3 56 55 47
3 49 47 48
3 49 56 47
3 65 67 66
3 65 58 67
3 57 58 65
3 64 57 65
3 63 57 64
3 60 59 57
3 62 57 63
3 61 60 57
3 61 57 62
3 75 74 73
3 69 76 75
3 69 75 73
3 70 72 71
3 70 73 72
3 70 69 73
3 82 77 81
3 80 81 77
3 83 77 82
3 79 80 77
3 84 70 77
3 84 69 70
3 84 77 83
3 78 79 77
3 85 68 69
3 85 69 84
3 93 94 95
3 93 95 101
3 92 101 100
3 92 93 101
3 91 100 99
3 91 92 100
3 90 99 98
3 90 91 99
3 89 98 97
3 89 90 98
3 88 97 96
3 88 89 97
3 87 96 86
3 87 88 96
3 102 108 109
3 102 109 110
3 104 105 106
3 104 106 107
3 104 107 108
3 104 108 102
3 146 102 147
3 145 102 146
3 148 147 102
3 149 148 102
3 144 102 145
3 143 104 102
3 143 102 144
3 122 149 102
3 142 104 143
3 141 104 142
3 111 141 140
3 111 104 141
3 139 111 140
3 115 114 113
3 116 115 113
3 116 112 111
3 116 113 112
3 117 116 111
3 117 111 139
3 138 117 139
3 137 117 138
3 136 117 137
3 103 124 123
3 103 125 124
3 103 126 125
3 103 127 126
3 103 128 127
3 119 128 103
3 119 129 128
3 119 130 129
3 119 131 130
3 119 132 131
3 119 133 132
3 120 119 103
3 121 120 103
3 118 134 133
3 118 135 134
3 118 136 135
3 118 133 119
3 118 117 136
3 103 122 102
3 103 123 122
3 158 150 151
3 159 158 151
3 160 151 152
3 160 159 151
3 161 152 153
3 161 160 152
3 162 153 154
3 162 161 153
3 163 154 155
3 163 162 154
3 157 155 156
3 157 163 155
3 167 164 165
3 169 164 167
3 168 169 167
3 166 167 165
3 177 178 179
3 177 179 180
3 176 180 181
3 176 177 180
3 175 176 181
3 174 181 182
3 174 182 183
3 174 175 181
3 173 183 184
3 173 174 183
3 172 184 185
3 172 173 184
3 171 185 170
3 171 172 185
3 189 188 187
3 192 190 189
3 192 191 190
3 193 192 189
3 194 193 189
3 196 195 194
3 196 189 187
3 196 194 189
3 186 196 187
3 197 196 186
3 200 201 202
3 200 202 209
3 199 209 208
3 199 200 209
3 198 199 208
3 214 208 207
3 214 198 208
3 213 207 206
3 213 214 207
3 212 206 205
3 212 213 206
3 211 205 204
3 211 212 205
3 210 204 203
3 210 211 204
3 217 222 226
3 218 225 224
3 218 226 225
3 218 217 226
3 219 224 223
3 219 218 224
3 220 219 223
3 221 223 215
3 221 220 223
3 216 221 215
3 234 236 235
3 234 237 236
3 234 227 237
3 228 227 234
3 233 229 230
3 233 230 231
3 233 231 232
3 233 232 228
3 233 228 234
3 247 239 238
3 247 238 246
3 254 245 244
3 255 254 244
3 255 244 252
3 253 255 252
3 256 240 239
3 257 247 248
3 257 240 256
3 257 256 239
3 257 239 247
3 257 248 240
3 258 241 240
3 258 242 241
3 258 248 249
3 258 249 250
3 258 240 248
3 259 243 242
3 259 242 258
3 260 250 251
3 260 243 259
3 260 259 258
3 260 251 243
3 260 258 250
3 261 244 243
3 261 251 252
3 261 243 251
3 261 252 244
3 266 267 268
3 269 266 268
3 270 266 269
3 276 266 270
3 275 266 276
3 274 266 275
3 273 266 274
3 272 266 273
3 264 263 262
3 264 265 266
3 264 271 263
3 264 272 271
3 264 266 272
3 278 280 279
3 282 278 277
3 282 281 278
3 280 278 281
3 285 293 292
3 285 284 293
3 283 284 285
3 286 283 285
3 290 291 283
3 287 283 286
3 289 290 283
3 288 283 287
3 288 289 283
3 308 294 295
3 308 309 294
3 307 295 296
3 307 308 295
3 306 307 296
3 305 296 297
3 305 297 298
3 305 306 296
3 304 298 299
3 304 305 298
3 303 299 300
3 303 304 299
3 302 300 301
3 302 303 300
3 317 315 316
3 318 315 317
3 312 313 314
3 312 314 315
3 312 318 311
3 312 315 318
3 319 312 311
3 310 319 311
3 321 323 322
3 321 324 323
3 321 325 324
3 321 326 325
3 321 327 326
3 321 328 327
3 321 310 328
3 320 310 321
3 320 319 310
3 337 338 344
3 336 344 343
3 336 337 344
3 335 343 342
3 335 336 343
3 334 342 341
3 334 335 342
3 333 341 340
3 333 334 341
3 332 340 339
3 332 333 340
3 331 339 329
3 331 332 339
3 330 331 329
3 376 346 345
3 376 347 346
3 377 348 347
3 377 349 348
3 377 347 376
3 378 349 377
3 379 350 349
3 379 349 378
3 380 351 350
3 380 352 351
3 380 350 379
3 381 352 380
3 382 353 352
3 382 354 353
3 382 352 381
3 383 355 354
3 383 354 382
3 384 355 383
3 385 355 384
3 385 356 355
3 386 356 385
3 386 357 356
3 387 357 386
3 387 358 357
3 388 359 358
3 388 358 387
3 389 360 359
3 389 361 360
3 389 359 388
3 390 361 389
3 391 362 361
3 391 361 390
3 392 363 362
3 392 364 363
3 392 362 391
3 393 364 392
3 394 365 364
3 394 364 393
3 395 366 365
3 395 365 394
3 396 367 366
3 396 366 395
3 397 368 367
3 397 367 396
3 398 369 368
3 398 368 397
3 399 370 369
3 399 369 398
3 400 371 370
3 400 372 371
3 400 370 399
3 401 372 400
3 402 373 372
3 402 372 401
3 375 374 373
3 375 373 402
3 413 403 404
3 414 404 405
3 414 405 406
3 414 413 404
3 415 406 407
3 415 414 406
3 416 407 408
3 416 408 409
3 416 415 407
3 417 409 410
3 417 416 409
3 418 417 410
3 419 410 411
3 419 418 410
3 412 419 411
3 422 430 436
3 423 436 435
3 423 422 436
3 424 435 434
3 424 423 435
3 425 434 433
3 425 424 434
3 426 433 432
3 426 425 433
3 427 426 432
3 428 432 431
3 428 427 432
3 429 431 420
3 429 428 431
3 421 429 420
3 445 446 452
3 444 452 451
3 444 445 452
3 443 451 450
3 443 444 451
3 442 450 449
3 442 443 450
3 441 449 448
3 441 442 449
3 440 448 447
3 440 441 448
3 439 447 437
3 439 440 447
3 438 439 437
3 469 460 459
3 468 474 467
3 475 455 454
3 476 454 453
3 476 475 454
3 477 453 461
3 477 476 453
3 478 456 455
3 478 455 475
3 478 475 476
3 479 461 462
3 479 477 461
3 480 476 477
3 480 478 476
3 481 457 456
3 481 458 457
3 481 456 478
3 482 462 463
3 482 479 462
3 483 480 477
3 483 477 479
3 484 478 480
3 484 481 478
3 485 463 464
3 485 479 482
3 485 482 463
3 485 483 479
3 486 480 483
3 486 484 480
3 487 459 458
3 487 470 469
3 487 458 481
3 487 481 484
3 487 469 459
3 488 483 485
3 488 486 483
3 489 471 470
3 489 472 471
3 489 470 487
3 489 484 486
3 489 487 484
3 490 464 465
3 490 465 466
3 490 485 464
3 490 488 485
3 491 473 472
3 491 472 489
3 491 486 488
3 491 489 486
3 492 466 467
3 492 474 473
3 492 473 491
3 492 467 474
3 492 490 466
3 492 488 490
3 492 491 488
3 494 495 493
3 503 504 505
3 503 505 509
3 502 509 508
3 502 503 509
3 501 508 507
3 501 502 508
3 500 507 506
3 500 501 507
3 499 506 511
3 499 500 506
3 498 511 510
3 498 499 511
3 497 510 496
3 497 498 510
3 514 515 516
3 514 516 517
3 513 517 518
3 513 514 517
3 512 518 519
3 512 513 518
3 523 520 521
3 523 521 522
3 531 533 532
3 531 539 533
3 530 538 539
3 530 539 531
3 529 537 538
3 529 538 530
3 528 536 537
3 528 537 529
3 527 535 536
3 527 536 528
3 526 534 535
3 526 535 527
3 525 524 534
3 525 534 526
3 591 557 558
3 590 558 559
3 590 591 558
3 592 556 557
3 592 557 591
3 589 559 560
3 589 590 559
3 593 555 556
3 593 556 592
3 588 560 561
3 588 589 560
3 568 554 555
3 568 555 593
3 553 554 568
3 587 561 562
3 587 588 561
3 569 553 568
3 586 587 562
3 563 586 562
3 552 553 569
3 570 552 569
3 585 586 563
3 564 585 563
3 551 552 570
3 571 551 570
3 584 585 564
3 565 584 564
3 550 551 571
3 572 550 571
3 583 584 565
3 566 583 565
3 549 550 572
3 573 549 572
3 582 583 566
3 567 582 566
3 548 549 573
3 548 573 574
3 581 582 567
3 540 581 567
3 547 548 574
3 547 574 575
3 541 580 581
3 541 581 540
3 546 575 576
3 546 547 575
3 542 579 580
3 542 580 541
3 545 576 577
3 545 546 576
3 543 578 579
3 543 579 542
3 544 577 578
3 544 578 543
3 544 545 577
3 619 620 621
3 619 621 647
3 618 646 645
3 618 647 646
3 618 619 647
3 617 618 645
3 616 645 644
3 616 617 645
3 615 643 642
3 615 644 643
3 615 616 644
3 614 615 642
3 613 642 641
3 613 614 642
3 612 641 640
3 612 613 641
3 611 640 639
3 611 612 640
3 610 639 638
3 610 611 639
3 609 610 638
3 609 637 636
3 609 638 637
3 608 609 636
3 607 608 636
3 607 636 635
3 606 607 635
3 606 635 634
3 605 606 634
3 605 634 633
3 604 605 633
3 604 633 632
3 603 604 632
3 603 632 631
3 602 603 631
3 602 631 630
3 601 630 629
3 601 602 630
3 600 629 628
3 600 601 629
3 599 628 627
3 599 600 628
3 598 627 626
3 598 599 627
3 597 626 625
3 597 598 626
3 596 625 624
3 596 597 625
3 595 624 623
3 595 596 624
3 594 623 622
3 594 595 623
3 648 649 713
3 714 676 675
3 714 675 707
3 715 677 676
3 715 676 714
3 716 678 677
3 716 677 715
3 717 678 716
3 717 679 678
3 718 707 706
3 718 714 707
3 719 680 679
3 719 679 717
3 720 715 714
3 720 714 718
3 721 680 719
3 721 673 674
3 721 681 680
3 721 674 681
3 722 715 720
3 722 716 715
3 723 717 716
3 723 716 722
3 724 718 706
3 724 705 704
3 724 706 705
3 725 719 717
3 725 717 723
3 726 720 718
3 726 718 724
3 727 672 673
3 727 719 725
3 727 721 719
3 727 673 721
3 728 722 720
3 728 720 726
3 729 723 722
3 729 722 728
3 730 724 704
3 731 723 729
3 731 725 723
3 732 724 730
3 732 726 724
3 732 728 726
3 733 671 672
3 733 672 727
3 733 727 725
3 733 725 731
3 734 728 732
3 735 729 728
3 735 731 729
3 735 728 734
3 736 704 703
3 736 732 730
3 736 730 704
3 737 733 731
3 737 731 735
3 738 732 736
3 739 669 670
3 739 670 671
3 739 733 737
3 739 671 733
3 740 732 738
3 740 734 732
3 740 735 734
3 741 735 740
3 742 736 703
3 742 702 701
3 742 703 702
3 742 738 736
3 743 735 741
3 743 737 735
3 744 738 742
3 745 737 743
3 745 739 737
3 745 669 739
3 746 738 744
3 746 740 738
3 747 740 746
3 747 741 740
3 748 742 701
3 749 743 741
3 749 741 747
3 750 744 742
3 750 746 744
3 750 742 748
3 751 745 743
3 751 668 669
3 751 669 745
3 751 743 749
3 752 746 750
3 753 749 747
3 753 747 746
3 753 746 752
3 754 748 701
3 754 701 700
3 755 749 753
3 755 751 749
3 756 750 748
3 756 748 754
3 757 667 668
3 757 668 751
3 757 751 755
3 758 752 750
3 758 750 756
3 758 753 752
3 759 753 758
3 760 756 754
3 760 754 700
3 760 700 699
3 761 755 753
3 761 753 759
3 762 756 760
3 763 666 667
3 763 667 757
3 763 757 755
3 763 755 761
3 764 758 756
3 764 756 762
3 765 758 764
3 765 759 758
3 766 760 699
3 766 699 698
3 767 761 759
3 767 759 765
3 768 760 766
3 768 762 760
3 769 665 666
3 769 666 763
3 769 763 761
3 769 761 767
3 770 762 768
3 770 764 762
3 770 765 764
3 771 765 770
3 772 766 698
3 772 698 697
3 773 767 765
3 773 765 771
3 774 766 772
3 774 768 766
3 775 767 773
3 775 664 665
3 775 665 769
3 775 769 767
3 776 768 774
3 776 770 768
3 777 771 770
3 777 770 776
3 778 772 697
3 778 697 696
3 778 774 772
3 779 773 771
3 779 771 777
3 780 774 778
3 781 664 775
3 781 663 664
3 781 773 779
3 781 775 773
3 782 774 780
3 782 776 774
3 783 777 776
3 783 776 782
3 784 778 696
3 784 696 695
3 785 779 777
3 785 781 779
3 785 777 783
3 786 778 784
3 786 780 778
3 787 661 662
3 787 662 663
3 787 663 781
3 787 781 785
3 788 782 780
3 788 783 782
3 788 780 786
3 789 783 788
3 790 784 695
3 790 695 694
3 791 783 789
3 791 785 783
3 791 787 785
3 792 784 790
3 792 786 784
3 792 788 786
3 793 660 661
3 793 661 787
3 793 787 791
3 794 789 788
3 794 788 792
3 795 789 794
3 796 693 692
3 796 694 693
3 796 790 694
3 797 791 789
3 797 789 795
3 798 792 790
3 798 790 796
3 799 659 660
3 799 660 793
3 799 793 791
3 799 791 797
3 800 792 798
3 800 794 792
3 801 795 794
3 801 794 800
3 802 796 692
3 803 795 801
3 803 797 795
3 803 799 797
3 804 796 802
3 804 800 798
3 804 798 796
3 805 659 799
3 805 799 803
3 806 800 804
3 806 801 800
3 807 801 806
3 807 803 801
3 808 692 691
3 808 802 692
3 809 803 807
3 810 802 808
3 810 804 802
3 811 805 803
3 811 658 659
3 811 803 809
3 811 659 805
3 812 806 804
3 812 804 810
3 813 806 812
3 813 807 806
3 814 691 690
3 814 808 691
3 815 809 807
3 815 807 813
3 816 808 814
3 816 810 808
3 817 657 658
3 817 809 815
3 817 658 811
3 817 811 809
3 818 813 812
3 818 810 816
3 818 812 810
3 819 813 818
3 820 689 688
3 820 814 690
3 820 690 689
3 821 815 813
3 821 813 819
3 822 816 814
3 822 818 816
3 822 814 820
3 823 656 657
3 823 817 815
3 823 815 821
3 823 657 817
3 824 818 822
3 825 821 819
3 825 819 818
3 825 818 824
3 826 820 688
3 827 821 825
3 828 822 820
3 828 820 826
3 829 655 656
3 829 656 823
3 829 823 821
3 829 821 827
3 830 824 822
3 830 825 824
3 830 822 828
3 831 827 825
3 831 825 830
3 832 688 687
3 832 826 688
3 833 827 831
3 834 828 826
3 834 826 832
3 834 830 828
3 835 654 655
3 835 655 829
3 835 829 827
3 835 827 833
3 836 830 834
3 837 831 830
3 837 830 836
3 838 687 686
3 838 832 687
3 839 833 831
3 839 831 837
3 840 834 832
3 840 832 838
3 841 833 839
3 841 652 653
3 841 653 654
3 841 654 835
3 841 835 833
3 842 834 840
3 842 836 834
3 842 837 836
3 843 837 842
3 844 686 685
3 844 838 686
3 844 840 838
3 845 839 837
3 845 841 839
3 845 837 843
3 846 840 844
3 847 651 652
3 847 841 845
3 847 652 841
3 848 842 840
3 848 840 846
3 848 843 842
3 849 843 848
3 850 684 683
3 850 685 684
3 850 844 685
3 851 843 849
3 851 845 843
3 852 846 844
3 852 844 850
3 853 651 847
3 853 847 845
3 853 845 851
3 854 848 846
3 854 846 852
3 855 848 854
3 855 849 848
3 856 683 682
3 856 850 683
3 856 682 708
3 856 708 709
3 857 851 849
3 857 849 855
3 858 852 850
3 858 856 709
3 858 850 856
3 859 649 650
3 859 650 651
3 859 651 853
3 859 853 851
3 859 851 857
3 860 854 852
3 860 855 854
3 860 858 709
3 860 709 710
3 860 710 711
3 860 852 858
3 861 857 855
3 861 860 711
3 861 855 860
3 862 857 861
3 862 859 857
3 862 711 712
3 862 712 713
3 862 861 711
3 863 859 862
3 863 649 859
3 863 862 713
3 863 713 649
3 879 881 880
3 882 881 879
3 877 879 878
3 885 883 882
3 885 884 883
3 887 886 885
3 887 882 879
3 887 885 882
3 889 888 887
3 864 889 887
3 864 887 879
3 870 872 871
3 870 873 872
3 865 876 875
3 865 877 876
3 865 879 877
3 865 864 879
3 868 870 869
3 867 866 865
3 867 874 873
3 867 875 874
3 867 865 875
3 867 873 870
3 867 870 868
