ply
format ascii 1.0
comment generated by blendit.inference.finetune_visualize
element vertex 571
property float x
property float y
property float z
property uchar red
property uchar green
property uchar blue
element face 565
property list uchar int vertex_indices
end_header
0 -4.4408921e-16 1.83853265 218 222 230
0 0 14.2113485 218 222 230
-4.4408921e-16 37.7842665 1.83853265 218 222 230
0 37.7842665 14.2113485 218 222 230
59.357105 -4.4408921e-16 50.1193387 218 222 230
52.3778084 1.11022302e-16 50.1193387 218 222 230
59.357105 -4.4408921e-16 1.83853265 218 222 230
0 -4.4408921e-16 1.83853265 218 222 230
0 0 14.2113485 218 222 230
15.9555679 0 14.2113485 218 222 230
19.6326332 -3.33066907e-16 16.0498811 218 222 230
19.6122838 -3.16174021e-16 15.8808572 218 222 230
19.5561573 -2.94519368e-16 15.720028 218 222 230
19.4728886 -2.74656975e-16 15.5711596 218 222 230
19.332701 -2.51326514e-16 15.3922375 218 222 230
19.0826574 -2.20271011e-16 15.1604938 218 222 230
18.6564846 -1.79851087e-16 14.8774587 218 222 230
17.9574553 -1.28865267e-16 14.5615997 218 222 230
17.1257673 -7.70572164e-17 14.3302195 218 222 230
16.5435931 -3.60782878e-17 14.2418069 218 222 230
19.6326332 -4.4408921e-16 56.0884932 218 222 230
50.5392757 -4.4408921e-16 56.0884932 218 222 230
50.5392757 -2.22044605e-16 52.1485545 218 222 230
52.0151524 0 50.1592074 218 222 230
51.6667469 0 50.2772471 218 222 230
51.3462824 0 50.4688193 218 222 230
51.0663514 0 50.7263962 218 222 230
50.8379538 0 51.0398565 218 222 230
50.6700644 0 51.3968828 218 222 230
50.5722689 0 51.7658509 218 222 230
56.0005247 0 28.1465621 218 222 230
57.1838912 0 28.1362338 218 222 230
58.3232605 0 30.0704944 218 222 230
57.7405218 0 31.100484 218 222 230
56.1563894 0 32.0336115 218 222 230
56.5382766 0 31.9901005 218 222 230
56.9027722 0 31.8681416 218 222 230
57.2339461 0 31.6730648 218 222 230
57.5173243 0 31.4133961 218 222 230
54.9730228 0 32.0439398 218 222 230
54.372395 0 31.0242784 218 222 230
54.3563491 0 29.1858158 218 222 230
54.2030871 0 29.5382953 218 222 230
54.1264588 0 29.9149373 218 222 230
54.1298133 0 30.2992806 218 222 230
54.213004 0 30.6745277 218 222 230
54.4163923 0 29.0796895 218 222 230
55.6186375 0 28.190073 218 222 230
55.2541418 0 28.312032 218 222 230
54.922968 0 28.5071087 218 222 230
54.6395898 0 28.7667775 218 222 230
0 -4.4408921e-16 1.83853265 255 79 163
-4.4408921e-16 37.7842665 1.83853265 255 79 163
0.028211824 37.7560547 1.51768875 255 79 163
0.111981489 37.672285 1.20669138 255 79 163
0.248738146 37.5355284 0.915084904 255 79 163
0.434284802 37.3499817 0.65181858 255 79 163
0.662927123 37.1213394 0.424971917 255 79 163
0.927648189 36.8566183 0.241506726 255 79 163
1.3225616 36.4617049 0.0738864583 255 79 163
1.57791544 36.2063511 0.0185653502 255 79 163
1.83853265 35.9457339 -4.4408921e-16 255 79 163
1.83853265 1.83853265 -4.4408921e-16 255 79 163
0.028211824 0.028211824 1.51768875 255 79 163
0.111981489 0.111981489 1.20669138 255 79 163
0.248738146 0.248738146 0.915084904 255 79 163
0.434284802 0.434284802 0.65181858 255 79 163
0.662927123 0.662927123 0.424971917 255 79 163
0.927648189 0.927648189 0.241506726 255 79 163
1.3225616 1.3225616 0.0738864583 255 79 163
1.57791544 1.57791544 0.0185653502 255 79 163
15.9555679 37.7842665 14.2113485 218 222 230
0 37.7842665 14.2113485 218 222 230
0 0 14.2113485 218 222 230
15.9555679 0 14.2113485 218 222 230
40.5312757 37.7842665 56.0884932 218 222 230
40.5312757 37.7842665 28.4669049 218 222 230
59.357105 37.7842665 56.0884932 218 222 230
59.357105 37.7842665 1.83853265 218 222 230
-4.4408921e-16 37.7842665 1.83853265 218 222 230
0 37.7842665 14.2113485 218 222 230
15.9555679 37.7842665 14.2113485 218 222 230
16.3646799 37.7842665 14.2574443 218 222 230
16.7532773 37.7842665 14.3934204 218 222 230
17.1018742 37.7842665 14.6124584 218 222 230
17.3929906 37.7842665 14.9035748 218 222 230
17.6120286 37.7842665 15.2521717 218 222 230
17.7480047 37.7842665 15.6407691 218 222 230
17.7941005 37.7842665 16.0498811 218 222 230
17.7941005 37.7842665 28.4669049 218 222 230
59.357105 -4.4408921e-16 50.1193387 218 222 230
52.3778084 1.11022302e-16 50.1193387 218 222 230
52.3778084 16.7150784 57.9270259 218 222 230
59.357105 16.7150784 57.9270259 218 222 230
61.1956376 1.83853265 1.83853265 255 79 163
61.1495418 1.42942065 1.83853265 255 79 163
61.0135657 1.04082323 1.83853265 255 79 163
60.7945277 0.692226293 1.83853265 255 79 163
60.5034114 0.401109943 1.83853265 255 79 163
60.1548144 0.18207197 1.83853265 255 79 163
59.766217 0.0460958521 1.83853265 255 79 163
59.357105 -4.4408921e-16 1.83853265 255 79 163
61.1956376 1.83853265 48.9489096 255 79 163
59.357105 -4.4408921e-16 50.1193387 255 79 163
59.7071955 0.0336395994 50.0979233 255 79 163
60.0444749 0.133327391 50.0344611 255 79 163
60.3566006 0.295415404 49.9312741 255 79 163
60.6321508 0.513972195 49.7921386 255 79 163
60.8610421 0.780999905 49.622146 255 79 163
61.0348983 1.08672693 49.4275169 255 79 163
61.1473575 1.41996551 49.2153738 255 79 163
61.1835277 1.62786144 49.0830251 255 79 163
52.3778084 1.11022302e-16 50.1193387 255 79 163
52.0151524 0 50.1592074 255 79 163
51.6667469 0 50.2772471 255 79 163
51.3462824 0 50.4688193 255 79 163
51.0663514 0 50.7263962 255 79 163
50.8379538 0 51.0398565 255 79 163
50.6700644 0 51.3968828 255 79 163
50.5722689 0 51.7658509 255 79 163
50.5392757 -2.22044605e-16 52.1485545 255 79 163
50.5392757 12.3708339 57.9270259 255 79 163
52.3778084 16.7150784 57.9270259 255 79 163
52.1962242 16.6938381 57.9270259 255 79 163
52.0164156 16.6303249 57.9270259 255 79 163
51.8401409 16.5251598 57.9270259 255 79 163
51.6691239 16.3793712 57.9270259 255 79 163
51.4521606 16.1243139 57.9270259 255 79 163
51.2274766 15.7596939 57.9270259 255 79 163
50.9680034 15.1592928 57.9270259 255 79 163
50.6845213 14.0631973 57.9270259 255 79 163
50.575953 13.2342398 57.9270259 255 79 163
0 -4.4408921e-16 1.83853265 255 79 163
0.028211824 0.028211824 1.51768875 255 79 163
0.111981489 0.111981489 1.20669138 255 79 163
0.248738146 0.248738146 0.915084904 255 79 163
0.434284802 0.434284802 0.65181858 255 79 163
0.662927123 0.662927123 0.424971917 255 79 163
0.927648189 0.927648189 0.241506726 255 79 163
1.3225616 1.3225616 0.0738864583 255 79 163
1.57791544 1.57791544 0.0185653502 255 79 163
1.83853265 1.83853265 -4.4408921e-16 255 79 163
59.357105 1.83853265 -4.4408921e-16 255 79 163
59.357105 -4.4408921e-16 1.83853265 255 79 163
59.357105 0.0460958521 1.42942065 255 79 163
59.357105 0.18207197 1.04082323 255 79 163
59.357105 0.401109943 0.692226293 255 79 163
59.357105 0.692226293 0.401109943 255 79 163
59.357105 1.04082323 0.18207197 255 79 163
59.357105 1.42942065 0.0460958521 255 79 163
50.5392757 12.3708339 57.9270259 218 222 230
50.5392757 1.83853265 57.9270259 218 222 230
50.5392757 -4.4408921e-16 56.0884932 218 222 230
50.5392757 0.0460958521 56.4976052 218 222 230
50.5392757 0.18207197 56.8862026 218 222 230
50.5392757 0.401109943 57.2347996 218 222 230
50.5392757 0.692226293 57.5259159 218 222 230
50.5392757 1.04082323 57.7449539 218 222 230
50.5392757 1.42942065 57.88093 218 222 230
50.5392757 -2.22044605e-16 52.1485545 218 222 230
19.6326332 -4.4408921e-16 56.0884932 255 79 163
50.5392757 -4.4408921e-16 56.0884932 255 79 163
50.5392757 0.0460958521 56.4976052 255 79 163
50.5392757 0.18207197 56.8862026 255 79 163
50.5392757 0.401109943 57.2347996 255 79 163
50.5392757 0.692226293 57.5259159 255 79 163
50.5392757 1.04082323 57.7449539 255 79 163
50.5392757 1.42942065 57.88093 255 79 163
50.5392757 1.83853265 57.9270259 255 79 163
17.7941005 1.83853265 57.9270259 255 79 163
19.0230987 0.103980813 56.6980277 255 79 163
18.5316293 0.366122121 57.1894971 255 79 163
18.2057996 0.679072291 57.5153268 255 79 163
17.9857575 1.02121819 57.7353689 255 79 163
17.866251 1.32853614 57.8548754 255 79 163
17.8122275 1.58099521 57.9088989 255 79 163
19.6326332 -4.4408921e-16 56.0884932 255 79 163
19.0230987 0.103980813 56.6980277 255 79 163
18.5316293 0.366122121 57.1894971 255 79 163
18.2057996 0.679072291 57.5153268 255 79 163
17.9857575 1.02121819 57.7353689 255 79 163
17.866251 1.32853614 57.8548754 255 79 163
17.8122275 1.58099521 57.9088989 255 79 163
17.7941005 1.83853265 57.9270259 255 79 163
17.7941005 1.83853265 16.0498811 255 79 163
19.6326332 -3.33066907e-16 16.0498811 255 79 163
19.251899 0.039854418 16.0498811 255 79 163
18.8876711 0.157689377 16.0498811 255 79 163
18.5557409 0.348396682 16.0498811 255 79 163
18.2704987 0.603708061 16.0498811 255 79 163
18.0443111 0.912554463 16.0498811 255 79 163
17.8869845 1.26154636 16.0498811 255 79 163
17.8174702 1.54632536 16.0498811 255 79 163
15.9555679 0 14.2113485 255 79 163
15.9555679 0 14.2113485 255 79 163
19.6326332 -3.33066907e-16 16.0498811 255 79 163
19.6122838 -3.16174021e-16 15.8808572 255 79 163
19.5561573 -2.94519368e-16 15.720028 255 79 163
19.4728886 -2.74656975e-16 15.5711596 255 79 163
19.332701 -2.51326514e-16 15.3922375 255 79 163
19.0826574 -2.20271011e-16 15.1604938 255 79 163
18.6564846 -1.79851087e-16 14.8774587 255 79 163
17.9574553 -1.28865267e-16 14.5615997 255 79 163
17.1257673 -7.70572164e-17 14.3302195 255 79 163
16.5435931 -3.60782878e-17 14.2418069 255 79 163
19.251899 0.039854418 16.0498811 255 79 163
18.8876711 0.157689377 16.0498811 255 79 163
18.5557409 0.348396682 16.0498811 255 79 163
18.2704987 0.603708061 16.0498811 255 79 163
18.0443111 0.912554463 16.0498811 255 79 163
17.8869845 1.26154636 16.0498811 255 79 163
17.8174702 1.54632536 16.0498811 255 79 163
17.7941005 1.83853265 16.0498811 255 79 163
17.7256547 1.51815603 15.5528954 255 79 163
17.5254131 1.1977794 15.092913 255 79 163
17.2082865 0.877402774 14.7041849 255 79 163
16.7978857 0.557026148 14.4156526 255 79 163
16.3889383 0.278513074 14.2631544 255 79 163
16.6656185 0.355906927 14.34794 255 79 163
16.6907181 0.259218706 14.3437569 255 79 163
18.8345811 0.153922034 15.7254629 255 79 163
18.2648124 0.504300036 15.6546909 255 79 163
18.4859617 0.217383564 15.3693598 255 79 163
18.2134618 0.457945777 15.4757014 255 79 163
18.1536661 0.438401664 15.3629429 255 79 163
18.1991234 0.190407237 15.0407338 255 79 163
17.9918409 0.393037678 15.1302331 255 79 163
17.8558823 0.684110817 15.2710153 255 79 163
17.8662835 0.361817502 14.9896284 255 79 163
17.7607165 0.14968484 14.7095318 255 79 163
17.6565 0.313902309 14.7998946 255 79 163
17.5734083 0.541688073 14.8962453 255 79 163
17.3775121 0.0225105434 14.429363 255 79 163
16.9600341 0.0151099546 14.3195338 255 79 163
17.4245795 0.264930967 14.6349369 255 79 163
16.7362401 0.175617309 14.3376447 255 79 163
17.3150313 0.0466153763 14.434019 255 79 163
16.8758253 0.0526193621 14.3242281 255 79 163
17.2548832 0.0770363867 14.4393194 255 79 163
16.7995594 0.106648232 14.3305958 255 79 163
16.6961241 0.0239624147 14.2767507 255 79 163
16.7288915 0.0114458185 14.2755697 255 79 163
16.4178792 0.0265349369 14.2399088 255 79 163
17.9797752 0.785865354 15.5596146 255 79 163
17.8904671 0.980236261 15.6001225 255 79 163
17.871199 0.935719166 15.5166309 255 79 163
16.9201697 0.00374053526 14.301345 255 79 163
16.6411418 0.00266383716 14.257069 255 79 163
16.4777621 0.00802626644 14.240814 255 79 163
16.5100073 0.00223710579 14.2413749 255 79 163
56.0005247 0 28.1465621 218 222 230
57.1838912 0 28.1362338 218 222 230
56.0005247 18.6377102 28.1465621 218 222 230
57.1838912 18.6377102 28.1362338 218 222 230
56.0005247 0 28.1465621 255 79 163
55.6186375 0 28.190073 255 79 163
55.2541418 0 28.312032 255 79 163
54.922968 0 28.5071087 255 79 163
54.6395898 0 28.7667775 255 79 163
54.4163923 0 29.0796895 255 79 163
54.4163923 18.6377102 29.0796895 255 79 163
56.0005247 18.6377102 28.1465621 255 79 163
55.6186375 18.6377102 28.190073 255 79 163
55.2541418 18.6377102 28.312032 255 79 163
54.922968 18.6377102 28.5071087 255 79 163
54.6395898 18.6377102 28.7667775 255 79 163
57.1838912 0 28.1362338 218 222 230
57.1838912 18.6377102 28.1362338 218 222 230
58.3232605 18.6377102 30.0704944 218 222 230
58.3232605 0 30.0704944 218 222 230
54.3563491 0 29.1858158 218 222 230
54.4163923 0 29.0796895 218 222 230
54.3563491 18.6377102 29.1858158 218 222 230
54.4163923 18.6377102 29.0796895 218 222 230
58.3232605 0 30.0704944 218 222 230
57.7405218 0 31.100484 218 222 230
58.3232605 18.6377102 30.0704944 218 222 230
57.7405218 18.6377102 31.100484 218 222 230
54.3563491 0 29.1858158 255 79 163
54.2030871 0 29.5382953 255 79 163
54.1264588 0 29.9149373 255 79 163
54.1298133 0 30.2992806 255 79 163
54.213004 0 30.6745277 255 79 163
54.372395 0 31.0242784 255 79 163
54.372395 18.6377102 31.0242784 255 79 163
54.3563491 18.6377102 29.1858158 255 79 163
54.2030871 18.6377102 29.5382953 255 79 163
54.1264588 18.6377102 29.9149373 255 79 163
54.1298133 18.6377102 30.2992806 255 79 163
54.213004 18.6377102 30.6745277 255 79 163
56.1563894 0 32.0336115 255 79 163
56.5382766 0 31.9901005 255 79 163
56.9027722 0 31.8681416 255 79 163
57.2339461 0 31.6730648 255 79 163
57.5173243 0 31.4133961 255 79 163
57.7405218 0 31.100484 255 79 163
57.7405218 18.6377102 31.100484 255 79 163
56.1563894 18.6377102 32.0336115 255 79 163
56.5382766 18.6377102 31.9901005 255 79 163
56.9027722 18.6377102 31.8681416 255 79 163
57.2339461 18.6377102 31.6730648 255 79 163
57.5173243 18.6377102 31.4133961 255 79 163
54.9730228 0 32.0439398 218 222 230
54.372395 0 31.0242784 218 222 230
54.9730228 18.6377102 32.0439398 218 222 230
54.372395 18.6377102 31.0242784 218 222 230
56.1563894 0 32.0336115 218 222 230
54.9730228 0 32.0439398 218 222 230
56.1563894 18.6377102 32.0336115 218 222 230
54.9730228 18.6377102 32.0439398 218 222 230
1.83853265 1.83853265 -4.4408921e-16 218 222 230
59.357105 1.83853265 -4.4408921e-16 218 222 230
59.357105 35.9457339 -4.4408921e-16 218 222 230
1.83853265 35.9457339 -4.4408921e-16 218 222 230
-4.4408921e-16 37.7842665 1.83853265 255 79 163
59.357105 37.7842665 1.83853265 255 79 163
59.357105 37.7381707 1.42942065 255 79 163
59.357105 37.6021946 1.04082323 255 79 163
59.357105 37.3831566 0.692226293 255 79 163
59.357105 37.0920402 0.401109943 255 79 163
59.357105 36.7434433 0.18207197 255 79 163
59.357105 36.3548459 0.0460958521 255 79 163
59.357105 35.9457339 -4.4408921e-16 255 79 163
1.83853265 35.9457339 -4.4408921e-16 255 79 163
0.028211824 37.7560547 1.51768875 255 79 163
0.111981489 37.672285 1.20669138 255 79 163
0.248738146 37.5355284 0.915084904 255 79 163
0.434284802 37.3499817 0.65181858 255 79 163
0.662927123 37.1213394 0.424971917 255 79 163
0.927648189 36.8566183 0.241506726 255 79 163
1.3225616 36.4617049 0.0738864583 255 79 163
1.57791544 36.2063511 0.0185653502 255 79 163
15.9555679 0 14.2113485 255 79 163
15.9555679 37.7842665 14.2113485 255 79 163
16.3646799 37.7842665 14.2574443 255 79 163
16.7532773 37.7842665 14.3934204 255 79 163
17.1018742 37.7842665 14.6124584 255 79 163
17.3929906 37.7842665 14.9035748 255 79 163
17.6120286 37.7842665 15.2521717 255 79 163
17.7480047 37.7842665 15.6407691 255 79 163
17.7941005 37.7842665 16.0498811 255 79 163
17.7941005 1.83853265 16.0498811 255 79 163
17.7256547 1.51815603 15.5528954 255 79 163
17.5254131 1.1977794 15.092913 255 79 163
17.2082865 0.877402774 14.7041849 255 79 163
16.7978857 0.557026148 14.4156526 255 79 163
16.3889383 0.278513074 14.2631544 255 79 163
40.5312757 37.7842665 56.0884932 218 222 230
40.5312757 37.7842665 28.4669049 218 222 230
40.5312757 37.7381707 56.4976052 218 222 230
40.5312757 37.6021946 56.8862026 218 222 230
40.5312757 37.3831566 57.2347996 218 222 230
40.5312757 37.0920402 57.5259159 218 222 230
40.5312757 36.7434433 57.7449539 218 222 230
40.5312757 36.3548459 57.88093 218 222 230
40.5312757 35.9457339 57.9270259 218 222 230
40.5312757 21.3727732 57.9270259 218 222 230
40.5312757 21.3727732 28.4669049 218 222 230
40.5312757 37.7842665 56.0884932 255 79 163
40.5312757 37.7381707 56.4976052 255 79 163
40.5312757 37.6021946 56.8862026 255 79 163
40.5312757 37.3831566 57.2347996 255 79 163
40.5312757 37.0920402 57.5259159 255 79 163
40.5312757 36.7434433 57.7449539 255 79 163
40.5312757 36.3548459 57.88093 255 79 163
40.5312757 35.9457339 57.9270259 255 79 163
61.1956376 35.9457339 57.9270259 255 79 163
59.357105 37.7842665 56.0884932 255 79 163
59.9666394 37.6802857 56.6980277 255 79 163
60.4581089 37.4181444 57.1894971 255 79 163
60.7839385 37.1051942 57.5153268 255 79 163
61.0039806 36.7630483 57.7353689 255 79 163
61.1234871 36.4557304 57.8548754 255 79 163
61.1775107 36.2032713 57.9088989 255 79 163
40.5312757 37.7842665 28.4669049 218 222 230
17.7941005 37.7842665 28.4669049 218 222 230
17.7941005 21.3727732 28.4669049 218 222 230
40.5312757 21.3727732 28.4669049 218 222 230
59.357105 37.7842665 1.83853265 255 79 163
59.357105 37.7842665 56.0884932 255 79 163
59.9666394 37.6802857 56.6980277 255 79 163
60.4581089 37.4181444 57.1894971 255 79 163
60.7839385 37.1051942 57.5153268 255 79 163
61.0039806 36.7630483 57.7353689 255 79 163
61.1234871 36.4557304 57.8548754 255 79 163
61.1775107 36.2032713 57.9088989 255 79 163
61.1956376 35.9457339 57.9270259 255 79 163
61.1956376 35.9457339 1.83853265 255 79 163
61.1495418 36.3548459 1.83853265 255 79 163
61.0135657 36.7434433 1.83853265 255 79 163
60.7945277 37.0920402 1.83853265 255 79 163
60.5034114 37.3831566 1.83853265 255 79 163
60.1548144 37.6021946 1.83853265 255 79 163
59.766217 37.7381707 1.83853265 255 79 163
17.7941005 1.83853265 57.9270259 218 222 230
17.7941005 21.3727732 57.9270259 218 222 230
17.7941005 1.83853265 16.0498811 218 222 230
17.7941005 37.7842665 16.0498811 218 222 230
17.7941005 37.7842665 28.4669049 218 222 230
17.7941005 21.3727732 28.4669049 218 222 230
61.1956376 1.83853265 48.9489096 255 79 163
61.1956376 21.0593229 57.9270259 255 79 163
61.0675531 19.4662227 57.9270259 255 79 163
60.701146 18.0950947 57.9270259 255 79 163
60.3184076 17.356219 57.9270259 255 79 163
60.0924981 17.0777364 57.9270259 255 79 163
59.8294608 16.8609031 57.9270259 255 79 163
59.6247247 16.7613481 57.9270259 255 79 163
59.4912726 16.7266613 57.9270259 255 79 163
59.357105 16.7150784 57.9270259 255 79 163
59.357105 -4.4408921e-16 50.1193387 255 79 163
59.7071955 0.0336395994 50.0979233 255 79 163
60.0444749 0.133327391 50.0344611 255 79 163
60.3566006 0.295415404 49.9312741 255 79 163
60.6321508 0.513972195 49.7921386 255 79 163
60.8610421 0.780999905 49.622146 255 79 163
61.0348983 1.08672693 49.4275169 255 79 163
61.1473575 1.41996551 49.2153738 255 79 163
61.1835277 1.62786144 49.0830251 255 79 163
61.1956376 21.0593229 57.9270259 218 222 230
61.1956376 35.9457339 57.9270259 218 222 230
40.5312757 35.9457339 57.9270259 218 222 230
40.5312757 21.3727732 57.9270259 218 222 230
17.7941005 21.3727732 57.9270259 218 222 230
17.7941005 1.83853265 57.9270259 218 222 230
50.5392757 1.83853265 57.9270259 218 222 230
50.5392757 12.3708339 57.9270259 218 222 230
52.3778084 16.7150784 57.9270259 218 222 230
52.1962242 16.6938381 57.9270259 218 222 230
52.0164156 16.6303249 57.9270259 218 222 230
51.8401409 16.5251598 57.9270259 218 222 230
51.6691239 16.3793712 57.9270259 218 222 230
51.4521606 16.1243139 57.9270259 218 222 230
51.2274766 15.7596939 57.9270259 218 222 230
50.9680034 15.1592928 57.9270259 218 222 230
50.6845213 14.0631973 57.9270259 218 222 230
50.575953 13.2342398 57.9270259 218 222 230
59.357105 16.7150784 57.9270259 218 222 230
61.0675531 19.4662227 57.9270259 218 222 230
60.701146 18.0950947 57.9270259 218 222 230
60.3184076 17.356219 57.9270259 218 222 230
60.0924981 17.0777364 57.9270259 218 222 230
59.8294608 16.8609031 57.9270259 218 222 230
59.6247247 16.7613481 57.9270259 218 222 230
59.4912726 16.7266613 57.9270259 218 222 230
59.357105 -4.4408921e-16 1.83853265 255 79 163
59.357105 0.0460958521 1.42942065 255 79 163
59.357105 0.18207197 1.04082323 255 79 163
59.357105 0.401109943 0.692226293 255 79 163
59.357105 0.692226293 0.401109943 255 79 163
59.357105 1.04082323 0.18207197 255 79 163
59.357105 1.42942065 0.0460958521 255 79 163
59.357105 1.83853265 -4.4408921e-16 255 79 163
61.1956376 1.83853265 1.83853265 255 79 163
61.1495418 1.83853265 1.42942065 255 79 163
61.0135657 1.83853265 1.04082323 255 79 163
60.7945277 1.83853265 0.692226293 255 79 163
60.5034114 1.83853265 0.401109943 255 79 163
60.1548144 1.83853265 0.18207197 255 79 163
59.766217 1.83853265 0.0460958521 255 79 163
61.1956376 1.83853265 1.83853265 255 79 163
61.1495418 1.42942065 1.83853265 255 79 163
61.0135657 1.04082323 1.83853265 255 79 163
60.7945277 0.692226293 1.83853265 255 79 163
60.5034114 0.401109943 1.83853265 255 79 163
60.1548144 0.18207197 1.83853265 255 79 163
59.766217 0.0460958521 1.83853265 255 79 163
61.1056535 1.74965631 1.27738954 255 79 163
61.1056535 1.58060347 1.33231814 255 79 163
61.1056535 1.43679854 1.43679854 255 79 163
60.8445092 1.50458961 0.810761655 255 79 163
61.1056535 1.33231814 1.58060347 255 79 163
60.8445092 1.20333524 0.964258422 255 79 163
60.4377674 1.60585138 0.369440905 255 79 163
61.1056535 1.27738954 1.74965631 255 79 163
60.8445092 0.964258422 1.20333524 255 79 163
60.4377674 1.16326529 0.513245841 255 79 163
60.8445092 0.810761655 1.50458961 255 79 163
60.4377674 0.786779084 0.786779084 255 79 163
59.9252428 1.29820146 0.175564246 255 79 163
60.4377674 0.513245841 1.16326529 255 79 163
59.9252428 0.810761655 0.423927233 255 79 163
60.4377674 0.369440905 1.60585138 255 79 163
59.9252428 0.423927233 0.810761655 255 79 163
59.9252428 0.175564246 1.29820146 255 79 163
61.1956376 21.0593229 57.9270259 218 222 230
61.1956376 35.9457339 57.9270259 218 222 230
61.1956376 1.83853265 48.9489096 218 222 230
61.1956376 1.83853265 1.83853265 218 222 230
61.1956376 35.9457339 1.83853265 218 222 230
58.3232605 18.6377102 30.0704944 218 222 230
57.7405218 18.6377102 31.100484 218 222 230
56.1563894 18.6377102 32.0336115 218 222 230
56.5382766 18.6377102 31.9901005 218 222 230
56.9027722 18.6377102 31.8681416 218 222 230
57.2339461 18.6377102 31.6730648 218 222 230
57.5173243 18.6377102 31.4133961 218 222 230
54.9730228 18.6377102 32.0439398 218 222 230
54.372395 18.6377102 31.0242784 218 222 230
54.3563491 18.6377102 29.1858158 218 222 230
54.2030871 18.6377102 29.5382953 218 222 230
54.1264588 18.6377102 29.9149373 218 222 230
54.1298133 18.6377102 30.2992806 218 222 230
54.213004 18.6377102 30.6745277 218 222 230
54.4163923 18.6377102 29.0796895 218 222 230
56.0005247 18.6377102 28.1465621 218 222 230
55.6186375 18.6377102 28.190073 218 222 230
55.2541418 18.6377102 28.312032 218 222 230
54.922968 18.6377102 28.5071087 218 222 230
54.6395898 18.6377102 28.7667775 218 222 230
57.1838912 18.6377102 28.1362338 218 222 230
59.357105 1.83853265 -4.4408921e-16 255 79 163
59.357105 35.9457339 -4.4408921e-16 255 79 163
61.1956376 35.9457339 1.83853265 255 79 163
61.1495418 35.9457339 1.42942065 255 79 163
61.0135657 35.9457339 1.04082323 255 79 163
60.7945277 35.9457339 0.692226293 255 79 163
60.5034114 35.9457339 0.401109943 255 79 163
60.1548144 35.9457339 0.18207197 255 79 163
59.766217 35.9457339 0.0460958521 255 79 163
61.1956376 1.83853265 1.83853265 255 79 163
61.1495418 1.83853265 1.42942065 255 79 163
61.0135657 1.83853265 1.04082323 255 79 163
60.7945277 1.83853265 0.692226293 255 79 163
60.5034114 1.83853265 0.401109943 255 79 163
60.1548144 1.83853265 0.18207197 255 79 163
59.766217 1.83853265 0.0460958521 255 79 163
61.1956376 35.9457339 1.83853265 255 79 163
61.1495418 36.3548459 1.83853265 255 79 163
61.0135657 36.7434433 1.83853265 255 79 163
60.7945277 37.0920402 1.83853265 255 79 163
60.5034114 37.3831566 1.83853265 255 79 163
60.1548144 37.6021946 1.83853265 255 79 163
59.766217 37.7381707 1.83853265 255 79 163
59.357105 37.7842665 1.83853265 255 79 163
61.1956376 35.9457339 1.83853265 255 79 163
61.1495418 35.9457339 1.42942065 255 79 163
61.0135657 35.9457339 1.04082323 255 79 163
60.7945277 35.9457339 0.692226293 255 79 163
60.5034114 35.9457339 0.401109943 255 79 163
60.1548144 35.9457339 0.18207197 255 79 163
59.766217 35.9457339 0.0460958521 255 79 163
59.357105 35.9457339 -4.4408921e-16 255 79 163
59.357105 37.7381707 1.42942065 255 79 163
59.357105 37.6021946 1.04082323 255 79 163
59.357105 37.3831566 0.692226293 255 79 163
59.357105 37.0920402 0.401109943 255 79 163
59.357105 36.7434433 0.18207197 255 79 163
59.357105 36.3548459 0.0460958521 255 79 163
61.1056535 36.506877 1.74965631 255 79 163
61.1056535 36.4519484 1.58060347 255 79 163
61.1056535 36.347468 1.43679854 255 79 163
60.8445092 36.9735049 1.50458961 255 79 163
61.1056535 36.203663 1.33231814 255 79 163
60.8445092 36.8200081 1.20333524 255 79 163
60.4377674 37.4148256 1.60585138 255 79 163
61.1056535 36.0346102 1.27738954 255 79 163
60.8445092 36.5809313 0.964258422 255 79 163
60.4377674 37.2710207 1.16326529 255 79 163
60.8445092 36.2796769 0.810761655 255 79 163
60.4377674 36.9974874 0.786779084 255 79 163
59.9252428 37.6087023 1.29820146 255 79 163
60.4377674 36.6210012 0.513245841 255 79 163
59.9252428 37.3603393 0.810761655 255 79 163
60.4377674 36.1784151 0.369440905 255 79 163
59.9252428 36.9735049 0.423927233 255 79 163
59.9252428 36.4860651 0.175564246 255 79 163
17.7941005 21.3727732 57.9270259 218 222 230
17.7941005 21.3727732 28.4669049 218 222 230
40.5312757 21.3727732 28.4669049 218 222 230
40.5312757 21.3727732 57.9270259 218 222 230
3 0 3 2
3 1 3 0
3 9 8 7
3 19 9 7
3 18 19 7
3 17 18 7
3 6 11 12
3 6 12 13
3 6 13 14
3 6 14 15
3 6 15 16
3 6 16 17
3 6 17 7
3 50 10 11
3 49 11 6
3 49 50 11
3 46 10 50
3 41 10 46
3 48 49 6
3 42 10 41
3 47 48 6
3 43 10 42
3 30 47 6
3 44 10 43
3 45 20 10
3 45 10 44
3 31 30 6
3 32 31 6
3 26 45 40
3 25 26 40
3 25 40 39
3 27 20 45
3 27 45 26
3 24 25 39
3 28 20 27
3 23 24 39
3 29 20 28
3 5 23 39
3 5 39 34
3 22 20 29
3 21 20 22
3 4 5 34
3 4 33 32
3 4 34 35
3 4 35 36
3 4 36 37
3 4 37 38
3 4 38 33
3 4 32 6
3 60 61 62
3 60 62 70
3 59 70 69
3 59 60 70
3 58 68 67
3 58 69 68
3 58 59 69
3 57 67 66
3 57 58 67
3 56 66 65
3 56 57 66
3 55 56 65
3 54 65 64
3 54 55 65
3 53 64 63
3 53 54 64
3 52 63 51
3 52 53 63
3 71 72 73
3 71 73 74
3 81 79 80
3 82 79 81
3 83 79 82
3 78 83 84
3 78 84 85
3 78 85 86
3 78 79 83
3 76 86 87
3 76 87 88
3 76 88 89
3 76 78 86
3 77 76 75
3 77 78 76
3 92 91 90
3 93 92 90
3 104 101 100
3 104 103 101
3 105 100 99
3 105 104 100
3 106 99 98
3 106 105 99
3 107 98 97
3 107 106 98
3 108 97 96
3 108 107 97
3 109 96 95
3 109 108 96
3 110 109 95
3 111 95 94
3 111 110 95
3 102 111 94
3 123 113 112
3 123 112 122
3 124 113 123
3 125 114 113
3 125 113 124
3 126 114 125
3 127 115 114
3 127 114 126
3 128 116 115
3 128 115 127
3 129 117 116
3 129 116 128
3 130 118 117
3 130 117 129
3 131 119 118
3 131 118 130
3 121 120 119
3 121 119 131
3 143 132 133
3 144 133 134
3 144 143 133
3 145 134 135
3 145 144 134
3 146 135 136
3 146 145 135
3 147 136 137
3 147 137 138
3 147 146 136
3 148 138 139
3 148 147 138
3 149 139 140
3 149 148 139
3 142 140 141
3 142 149 140
3 151 152 159
3 151 159 150
3 154 153 152
3 156 158 157
3 156 151 158
3 155 152 151
3 155 151 156
3 155 154 152
3 168 169 175
3 167 175 174
3 167 168 175
3 166 174 173
3 166 167 174
3 165 173 172
3 165 166 173
3 164 172 171
3 164 165 172
3 163 171 170
3 163 164 171
3 162 170 160
3 162 163 170
3 161 162 160
3 186 176 177
3 186 185 176
3 187 177 178
3 187 186 177
3 188 187 178
3 189 178 179
3 189 188 178
3 190 179 180
3 190 189 179
3 191 180 181
3 191 190 180
3 192 181 182
3 192 191 181
3 184 182 183
3 184 192 182
3 205 196 195
3 213 211 212
3 218 216 217
3 218 217 219
3 218 219 216
3 220 197 196
3 220 198 197
3 220 199 198
3 220 205 206
3 220 206 207
3 220 196 205
3 221 207 208
3 221 208 209
3 221 220 207
3 222 200 199
3 222 199 220
3 222 220 221
3 223 222 221
3 224 222 223
3 225 201 200
3 225 200 222
3 226 222 224
3 226 225 222
3 227 213 214
3 227 226 224
3 228 225 226
3 228 226 227
3 229 202 201
3 229 201 225
3 229 225 228
3 230 229 228
3 231 214 215
3 231 227 214
3 231 228 227
3 231 230 228
3 232 203 202
3 232 233 203
3 234 215 216
3 234 219 235
3 234 216 219
3 234 231 215
3 234 229 230
3 234 230 231
3 236 237 233
3 236 202 229
3 236 233 232
3 236 232 202
3 238 229 234
3 238 237 236
3 238 235 239
3 238 234 235
3 238 239 237
3 238 236 229
3 240 241 233
3 240 233 237
3 240 237 239
3 242 193 194
3 242 240 239
3 242 217 193
3 242 239 235
3 242 219 217
3 242 235 219
3 243 223 221
3 243 224 223
3 243 227 224
3 244 209 210
3 244 210 211
3 244 243 221
3 244 221 209
3 244 211 213
3 245 227 243
3 245 243 244
3 245 244 213
3 245 213 227
3 246 204 203
3 246 233 241
3 246 203 233
3 247 204 246
3 247 246 241
3 248 240 242
3 248 242 194
3 248 247 241
3 248 241 240
3 249 194 204
3 249 248 194
3 249 204 247
3 249 247 248
3 251 252 250
3 251 253 252
3 262 255 254
3 262 256 255
3 262 254 261
3 263 256 262
3 264 257 256
3 264 258 257
3 264 256 263
3 265 258 264
3 260 259 258
3 260 258 265
3 269 267 266
3 269 268 267
3 271 272 270
3 271 273 272
3 275 276 274
3 275 277 276
3 285 279 278
3 286 280 279
3 286 279 285
3 287 280 286
3 288 281 280
3 288 280 287
3 289 282 281
3 289 281 288
3 284 283 282
3 284 282 289
3 297 291 290
3 298 291 297
3 299 292 291
3 299 291 298
3 300 293 292
3 300 294 293
3 300 292 299
3 301 294 300
3 296 295 294
3 296 294 301
3 303 304 302
3 303 305 304
3 307 308 306
3 307 309 308
3 312 311 310
3 312 310 313
3 322 323 331
3 321 331 330
3 321 322 331
3 320 330 329
3 320 321 330
3 319 328 327
3 319 329 328
3 319 320 329
3 318 327 326
3 318 319 327
3 317 326 325
3 317 318 326
3 316 325 324
3 316 317 325
3 315 324 314
3 315 316 324
3 339 341 340
3 339 342 341
3 338 343 342
3 338 342 339
3 337 344 343
3 337 343 338
3 336 345 344
3 336 344 337
3 335 346 345
3 335 345 336
3 334 332 346
3 334 346 335
3 333 332 334
3 347 356 355
3 347 357 356
3 347 348 357
3 349 347 355
3 352 350 349
3 352 351 350
3 352 354 353
3 352 355 354
3 352 349 355
3 367 358 359
3 368 359 360
3 368 367 359
3 369 360 361
3 369 368 360
3 370 361 362
3 370 369 361
3 371 362 363
3 371 370 362
3 372 363 364
3 372 371 363
3 373 364 365
3 373 372 364
3 366 373 365
3 374 375 376
3 374 376 377
3 385 386 387
3 385 387 388
3 384 388 389
3 384 385 388
3 383 389 390
3 383 384 389
3 382 390 391
3 382 383 390
3 381 391 392
3 381 382 391
3 380 392 393
3 380 381 392
3 379 393 378
3 379 380 393
3 397 396 399
3 394 399 396
3 398 397 399
3 395 399 394
3 408 409 410
3 408 410 411
3 407 408 411
3 406 411 412
3 406 407 411
3 405 412 413
3 405 406 412
3 404 413 414
3 404 405 413
3 403 414 415
3 403 404 414
3 402 415 416
3 402 416 417
3 402 417 418
3 402 403 415
3 401 418 400
3 401 402 418
3 422 423 424
3 422 424 425
3 426 422 425
3 436 422 426
3 435 422 436
3 434 422 435
3 433 422 434
3 432 422 433
3 431 422 432
3 430 422 431
3 429 422 430
3 428 422 429
3 443 437 444
3 421 428 427
3 421 422 428
3 442 437 443
3 441 437 442
3 440 437 441
3 439 437 440
3 438 437 439
3 419 427 437
3 419 437 438
3 420 421 427
3 420 427 419
3 451 452 459
3 445 446 466
3 467 455 454
3 468 454 453
3 468 467 454
3 469 453 460
3 469 468 453
3 470 456 455
3 470 467 468
3 470 455 467
3 471 460 461
3 471 469 460
3 472 468 469
3 472 470 468
3 473 457 456
3 473 458 457
3 473 456 470
3 474 461 462
3 474 471 461
3 475 472 469
3 475 469 471
3 476 470 472
3 476 473 470
3 477 462 463
3 477 475 471
3 477 474 462
3 477 471 474
3 478 472 475
3 478 476 472
3 479 450 451
3 479 459 458
3 479 458 473
3 479 473 476
3 479 451 459
3 480 475 477
3 480 478 475
3 481 449 450
3 481 450 479
3 481 476 478
3 481 479 476
3 482 463 464
3 482 464 465
3 482 477 463
3 482 480 477
3 483 447 448
3 483 448 449
3 483 449 481
3 483 478 480
3 483 481 478
3 484 446 447
3 484 465 466
3 484 466 446
3 484 447 483
3 484 482 465
3 484 480 482
3 484 483 480
3 485 489 486
3 487 488 489
3 487 489 485
3 492 497 498
3 499 501 500
3 499 502 501
3 499 503 502
3 499 498 503
3 504 498 499
3 496 495 494
3 508 504 509
3 491 493 492
3 491 494 493
3 491 492 498
3 491 496 494
3 491 498 504
3 506 508 507
3 506 504 508
3 505 491 504
3 505 504 506
3 510 490 491
3 510 491 505
3 513 520 521
3 514 513 521
3 515 521 522
3 515 514 521
3 516 522 523
3 516 515 522
3 517 523 524
3 517 524 525
3 517 516 523
3 518 517 525
3 519 525 526
3 519 518 525
3 512 526 511
3 512 519 526
3 543 534 533
3 542 548 541
3 549 529 528
3 550 528 527
3 550 549 528
3 551 527 535
3 551 550 527
3 552 530 529
3 552 529 549
3 552 549 550
3 553 535 536
3 553 551 535
3 554 550 551
3 554 552 550
3 555 531 530
3 555 532 531
3 555 530 552
3 556 536 537
3 556 553 536
3 557 554 551
3 557 551 553
3 558 552 554
3 558 555 552
3 559 537 538
3 559 553 556
3 559 556 537
3 559 557 553
3 560 554 557
3 560 558 554
3 561 533 532
3 561 544 543
3 561 532 555
3 561 555 558
3 561 543 533
3 562 557 559
3 562 560 557
3 563 545 544
3 563 546 545
3 563 544 561
3 563 558 560
3 563 561 558
3 564 538 539
3 564 539 540
3 564 559 538
3 564 562 559
3 565 547 546
3 565 546 563
3 565 560 562
3 565 563 560
3 566 540 541
3 566 548 547
3 566 547 565
3 566 541 548
3 566 564 540
3 566 562 564
3 566 565 562
3 570 568 567
3 570 569 568
