ply
format ascii 1.0
comment generated by blendit.inference.finetune_visualize
element vertex 569
property float x
property float y
property float z
property uchar red
property uchar green
property uchar blue
element face 539
property list uchar int vertex_indices
end_header
0 1.26530492 43.5003033 218 222 230
0 64.6619807 43.5003033 218 222 230
0 0.983748087 43.4685795 218 222 230
0 0.71630969 43.3749987 218 222 230
0 0.476400206 43.2242536 218 222 230
0 0.276049699 43.0239031 218 222 230
0 0.125304579 42.7839936 218 222 230
0 0.0317238361 42.5165552 218 222 230
0 -2.22044605e-16 42.2349984 218 222 230
0 0 0 218 222 230
0 27.5013262 0 218 222 230
0 27.5013262 22.9448069 218 222 230
0 64.6619807 22.9448069 218 222 230
0 17.4173562 1.28791605 218 222 230
0 15.175128 1.69063 218 222 230
0 14.4027745 3.83381351 218 222 230
0 15.8726491 5.57428308 218 222 230
0 18.1148772 5.17156913 218 222 230
0 18.8872308 3.02838562 218 222 230
0 1.26530492 43.5003033 218 222 230
0 64.6619807 43.5003033 218 222 230
64.9352729 1.26530492 43.5003033 218 222 230
64.9352729 64.6619807 43.5003033 218 222 230
0 1.26530492 43.5003033 255 79 163
0 0.983748087 43.4685795 255 79 163
0 0.71630969 43.3749987 255 79 163
0 0.476400206 43.2242536 255 79 163
0 0.276049699 43.0239031 255 79 163
0 0.125304579 42.7839936 255 79 163
0 0.0317238361 42.5165552 255 79 163
0 -2.22044605e-16 42.2349984 255 79 163
66.2005778 0 42.2349984 255 79 163
64.9352729 1.26530492 43.5003033 255 79 163
65.3452256 0.855352174 43.4320511 255 79 163
65.6775517 0.523026097 43.2597026 255 79 163
65.9218125 0.278765299 43.0272964 255 79 163
66.0689663 0.131611487 42.796902 255 79 163
66.1513872 0.0491906096 42.5843728 255 79 163
66.1882198 0.0123580016 42.4114086 255 79 163
66.2005778 64.6619807 1.26530492 218 222 230
66.2005778 64.6619807 42.2349984 218 222 230
47.2659585 64.6619807 1.26530492 218 222 230
47.2659585 64.6619807 22.9448069 218 222 230
0 64.6619807 22.9448069 218 222 230
0 64.6619807 43.5003033 218 222 230
64.9352729 64.6619807 43.5003033 218 222 230
65.2168297 64.6619807 43.4685795 218 222 230
65.4842681 64.6619807 43.3749987 218 222 230
65.7241776 64.6619807 43.2242536 218 222 230
65.9245281 64.6619807 43.0239031 218 222 230
66.0752732 64.6619807 42.7839936 218 222 230
66.168854 64.6619807 42.5165552 218 222 230
0 0 0 218 222 230
17.4944248 0 -2.22044605e-16 218 222 230
0 -2.22044605e-16 42.2349984 218 222 230
66.2005778 0 42.2349984 218 222 230
66.2005778 0 7.30828785 218 222 230
20.0250346 -5.55111512e-17 7.30828785 218 222 230
19.9109105 -5.22327663e-17 7.29481374 218 222 230
19.8021724 -4.81674778e-17 7.25752803 218 222 230
19.7012693 -4.4375968e-17 7.20209071 218 222 230
19.5797558 -4.00024487e-17 7.10845309 218 222 230
19.4219448 -3.44435105e-17 6.9410091 218 222 230
19.2286078 -2.76182892e-17 6.65495238 218 222 230
19.0115839 -1.97589726e-17 6.18493053 218 222 230
18.8502405 -1.2366584e-17 5.62506021 218 222 230
18.7829354 -5.79971895e-18 5.20372671 218 222 230
18.7597297 0 4.77767801 218 222 230
18.7597297 0 1.26530492 218 222 230
17.7759816 0 0.0317238361 218 222 230
18.04342 0 0.125304579 218 222 230
18.2833295 0 0.276049699 218 222 230
18.48368 0 0.476400206 218 222 230
18.6344251 0 0.71630969 218 222 230
18.7280059 0 0.983748087 218 222 230
0 27.5013262 22.9448069 218 222 230
47.2659585 27.5013262 22.9448069 218 222 230
47.2659585 64.6619807 22.9448069 218 222 230
0 64.6619807 22.9448069 218 222 230
0 0 0 218 222 230
17.4944248 0 -2.22044605e-16 218 222 230
17.4944248 24.1265159 -2.22044605e-16 218 222 230
64.9352729 24.1265159 -2.22044605e-16 218 222 230
64.9352729 63.3966757 -2.22044605e-16 218 222 230
47.2659585 63.3966757 -2.22044605e-16 218 222 230
47.2659585 27.5013262 0 218 222 230
0 27.5013262 0 218 222 230
51.2727381 49.2383427 0 218 222 230
51.3017963 49.4776584 0 218 222 230
51.3872821 49.7030659 0 218 222 230
51.5242273 49.9014654 0 218 222 230
51.7046733 50.0613266 0 218 222 230
51.9181332 50.1733589 0 218 222 230
52.1522014 50.2310516 0 218 222 230
52.3932748 50.2310516 0 218 222 230
52.627343 50.1733589 0 218 222 230
52.8408028 50.0613266 0 218 222 230
53.0212488 49.9014654 0 218 222 230
53.1581941 49.7030659 0 218 222 230
53.2436799 49.4776584 0 218 222 230
53.2727381 49.2383427 0 218 222 230
53.2436799 48.999027 0 218 222 230
53.1581941 48.7736195 0 218 222 230
53.0212488 48.57522 0 218 222 230
52.8408028 48.4153588 0 218 222 230
52.627343 48.3033265 0 218 222 230
52.3932748 48.2456338 0 218 222 230
52.1522014 48.2456338 0 218 222 230
51.9181332 48.3033265 0 218 222 230
51.7046733 48.4153588 0 218 222 230
51.5242273 48.57522 0 218 222 230
51.3872821 48.7736195 0 218 222 230
51.3017963 48.999027 0 218 222 230
0 27.5013262 0 218 222 230
47.2659585 27.5013262 0 218 222 230
47.2659585 27.5013262 22.9448069 218 222 230
0 27.5013262 22.9448069 218 222 230
0 17.4173562 1.28791605 218 222 230
6.99902449 17.4173562 1.28791605 218 222 230
6.99902449 15.175128 1.69063 218 222 230
0 15.175128 1.69063 218 222 230
0 18.8872308 3.02838562 218 222 230
6.99902449 18.8872308 3.02838562 218 222 230
6.99902449 17.4173562 1.28791605 218 222 230
0 17.4173562 1.28791605 218 222 230
0 18.1148772 5.17156913 218 222 230
6.99902449 18.1148772 5.17156913 218 222 230
6.99902449 18.8872308 3.02838562 218 222 230
0 18.8872308 3.02838562 218 222 230
0 15.8726491 5.57428308 218 222 230
6.99902449 15.8726491 5.57428308 218 222 230
6.99902449 18.1148772 5.17156913 218 222 230
0 18.1148772 5.17156913 218 222 230
0 14.4027745 3.83381351 218 222 230
6.99902449 14.4027745 3.83381351 218 222 230
6.99902449 15.8726491 5.57428308 218 222 230
0 15.8726491 5.57428308 218 222 230
0 15.175128 1.69063 218 222 230
6.99902449 15.175128 1.69063 218 222 230
6.99902449 14.4027745 3.83381351 218 222 230
0 14.4027745 3.83381351 218 222 230
64.9352729 1.26530492 43.5003033 255 79 163
65.3452256 0.855352174 43.4320511 255 79 163
65.6775517 0.523026097 43.2597026 255 79 163
65.9218125 0.278765299 43.0272964 255 79 163
66.0689663 0.131611487 42.796902 255 79 163
66.1513872 0.0491906096 42.5843728 255 79 163
66.1882198 0.0123580016 42.4114086 255 79 163
66.2005778 0 42.2349984 255 79 163
66.2005778 64.6619807 42.2349984 255 79 163
64.9352729 64.6619807 43.5003033 255 79 163
65.2168297 64.6619807 43.4685795 255 79 163
65.4842681 64.6619807 43.3749987 255 79 163
65.7241776 64.6619807 43.2242536 255 79 163
65.9245281 64.6619807 43.0239031 255 79 163
66.0752732 64.6619807 42.7839936 255 79 163
66.168854 64.6619807 42.5165552 255 79 163
66.2005778 0 7.30828785 218 222 230
66.2005778 0 42.2349984 218 222 230
66.2005778 22.861211 7.30828785 218 222 230
66.2005778 22.861211 6.04298293 218 222 230
66.2005778 22.861211 1.26530492 218 222 230
66.2005778 64.6619807 1.26530492 218 222 230
66.2005778 64.6619807 42.2349984 218 222 230
47.2659585 64.6619807 1.26530492 255 79 163
66.2005778 64.6619807 1.26530492 255 79 163
66.1820658 64.6434687 1.0496572 255 79 163
66.1270715 64.5884744 0.84031953 255 79 163
66.0372041 64.4986069 0.643417325 255 79 163
65.9150931 64.376496 0.464712123 255 79 163
65.7643117 64.2257146 0.309433004 255 79 163
65.5892719 64.0506748 0.182123577 255 79 163
65.3270864 63.7884893 0.062192834 255 79 163
65.1336323 63.5950351 0.0156449298 255 79 163
64.9352729 63.3966757 -2.22044605e-16 255 79 163
47.2659585 63.3966757 -2.22044605e-16 255 79 163
47.2659585 64.6302568 0.983748087 255 79 163
47.2659585 64.5366761 0.71630969 255 79 163
47.2659585 64.385931 0.476400206 255 79 163
47.2659585 64.1855805 0.276049699 255 79 163
47.2659585 63.945671 0.125304579 255 79 163
47.2659585 63.6782326 0.0317238361 255 79 163
47.2659585 64.6619807 22.9448069 218 222 230
47.2659585 64.6619807 1.26530492 218 222 230
47.2659585 64.6302568 0.983748087 218 222 230
47.2659585 64.5366761 0.71630969 218 222 230
47.2659585 64.385931 0.476400206 218 222 230
47.2659585 64.1855805 0.276049699 218 222 230
47.2659585 63.945671 0.125304579 218 222 230
47.2659585 63.6782326 0.0317238361 218 222 230
47.2659585 63.3966757 -2.22044605e-16 218 222 230
47.2659585 27.5013262 0 218 222 230
47.2659585 27.5013262 22.9448069 218 222 230
17.4944248 0 -2.22044605e-16 255 79 163
17.4944248 24.1265159 -2.22044605e-16 255 79 163
17.9043775 23.7165631 0.0682521697 255 79 163
18.2367036 23.3842371 0.240600723 255 79 163
18.4809644 23.1399763 0.473006923 255 79 163
18.6281182 22.9928224 0.703401244 255 79 163
18.7105391 22.9104016 0.915930444 255 79 163
18.7473717 22.873569 1.08889472 255 79 163
18.7597297 22.861211 1.26530492 255 79 163
18.7597297 0 1.26530492 255 79 163
17.7759816 0 0.0317238361 255 79 163
18.04342 0 0.125304579 255 79 163
18.2833295 0 0.276049699 255 79 163
18.48368 0 0.476400206 255 79 163
18.6344251 0 0.71630969 255 79 163
18.7280059 0 0.983748087 255 79 163
18.7597297 0 4.77767801 218 222 230
18.7597297 0 1.26530492 218 222 230
18.7597297 22.861211 4.77767801 218 222 230
18.7597297 22.861211 1.26530492 218 222 230
18.7597297 0 4.77767801 255 79 163
18.7597297 0 4.77767801 255 79 163
20.0250346 -5.55111512e-17 7.30828785 255 79 163
19.9109105 -5.22327663e-17 7.29481374 255 79 163
19.8021724 -4.81674778e-17 7.25752803 255 79 163
19.7012693 -4.4375968e-17 7.20209071 255 79 163
19.5797558 -4.00024487e-17 7.10845309 255 79 163
19.4219448 -3.44435105e-17 6.9410091 255 79 163
19.2286078 -2.76182892e-17 6.65495238 255 79 163
19.0115839 -1.97589726e-17 6.18493053 255 79 163
18.8502405 -1.2366584e-17 5.62506021 255 79 163
18.7829354 -5.79971895e-18 5.20372671 255 79 163
20.0250346 0.0322613363 7.02438663 255 79 163
20.0250346 0.127399954 6.75496244 255 79 163
20.0250346 0.280564726 6.51375452 255 79 163
20.0250346 0.483944945 6.31306272 255 79 163
20.0250346 0.727169534 6.16312104 255 79 163
20.0250346 0.989613653 6.07338271 255 79 163
20.0250346 1.26530492 6.04298293 255 79 163
19.7102189 1.06275937 6.00319324 255 79 163
19.4152022 0.860213813 5.88632619 255 79 163
19.1585416 0.657668259 5.69973351 255 79 163
18.9563763 0.455122706 5.45514902 255 79 163
18.8214238 0.252577153 5.16795575 255 79 163
18.7752476 0.126288576 4.97524023 255 79 163
19.4240721 0.030947105 6.70397172 255 79 163
19.44447 0.108213678 6.50081298 255 79 163
19.465587 0.219937352 6.32088074 255 79 163
19.48663 0.362687407 6.17174411 255 79 163
19.5065941 0.535514922 6.05789881 255 79 163
19.0516599 0.0222212226 6.12620456 255 79 163
19.5246862 0.735032684 5.9819768 255 79 163
19.0647264 0.0753058484 6.00276057 255 79 163
19.0797956 0.149491581 5.89252092 255 79 163
19.0954737 0.242988769 5.80119148 255 79 163
19.1096508 0.356628324 5.73325312 255 79 163
19.1209331 0.489404362 5.69076821 255 79 163
18.9474235 0.0584013925 5.75259212 255 79 163
18.8976899 0.123609464 5.48687871 255 79 163
18.8381312 0.0922446907 5.31513248 255 79 163
18.7992484 0.0649152747 5.16004463 255 79 163
18.7795715 0.0457762887 5.048692 255 79 163
18.8706602 0.0350339727 5.5542785 255 79 163
18.8434458 0.030097704 5.45344156 255 79 163
18.8046941 0.0218876891 5.27323838 255 79 163
18.7897348 0.0180725173 5.18206607 255 79 163
18.7809371 0.0154708793 5.11715091 255 79 163
18.8599817 0.00967649031 5.59014811 255 79 163
18.8468954 0.00894961231 5.53541241 255 79 163
18.826042 0.00772092056 5.43850697 255 79 163
18.792725 0.00552513361 5.24281225 255 79 163
18.7861608 0.0050332055 5.19356489 255 79 163
18.7819418 0.00469515995 5.15861072 255 79 163
18.7876246 0.00141109852 5.2244328 255 79 163
18.7824838 0.00130612825 5.18075938 255 79 163
66.2005778 0 7.30828785 255 79 163
20.0250346 -5.55111512e-17 7.30828785 255 79 163
20.0250346 0.0322613363 7.02438663 255 79 163
20.0250346 0.127399954 6.75496244 255 79 163
20.0250346 0.280564726 6.51375452 255 79 163
20.0250346 0.483944945 6.31306272 255 79 163
20.0250346 0.727169534 6.16312104 255 79 163
20.0250346 0.989613653 6.07338271 255 79 163
20.0250346 1.26530492 6.04298293 255 79 163
64.9352729 1.26530492 6.04298293 255 79 163
66.1820658 0.0185119936 7.09264013 255 79 163
66.1270715 0.0735062964 6.88330246 255 79 163
66.0372041 0.163373724 6.68640025 255 79 163
65.9150931 0.285484674 6.50769505 255 79 163
65.7643117 0.436266066 6.35241593 255 79 163
65.5892719 0.611305899 6.2251065 255 79 163
65.3270864 0.873491381 6.10517576 255 79 163
65.1336323 1.06694553 6.05862786 255 79 163
17.4944248 24.1265159 -2.22044605e-16 255 79 163
64.9352729 24.1265159 -2.22044605e-16 255 79 163
65.3452256 23.7165631 0.0682521697 255 79 163
65.6775517 23.3842371 0.240600723 255 79 163
65.9218125 23.1399763 0.473006923 255 79 163
66.0689663 22.9928224 0.703401244 255 79 163
66.1513872 22.9104016 0.915930444 255 79 163
66.1882198 22.873569 1.08889472 255 79 163
66.2005778 22.861211 1.26530492 255 79 163
18.7597297 22.861211 1.26530492 255 79 163
17.9043775 23.7165631 0.0682521697 255 79 163
18.2367036 23.3842371 0.240600723 255 79 163
18.4809644 23.1399763 0.473006923 255 79 163
18.6281182 22.9928224 0.703401244 255 79 163
18.7105391 22.9104016 0.915930444 255 79 163
18.7473717 22.873569 1.08889472 255 79 163
64.9352729 24.1265159 -2.22044605e-16 255 79 163
64.9352729 63.3966757 -2.22044605e-16 255 79 163
66.2005778 64.6619807 1.26530492 255 79 163
66.1820658 64.6434687 1.0496572 255 79 163
66.1270715 64.5884744 0.84031953 255 79 163
66.0372041 64.4986069 0.643417325 255 79 163
65.9150931 64.376496 0.464712123 255 79 163
65.7643117 64.2257146 0.309433004 255 79 163
65.5892719 64.0506748 0.182123577 255 79 163
65.3270864 63.7884893 0.062192834 255 79 163
65.1336323 63.5950351 0.0156449298 255 79 163
66.2005778 22.861211 1.26530492 255 79 163
65.3452256 23.7165631 0.0682521697 255 79 163
65.6775517 23.3842371 0.240600723 255 79 163
65.9218125 23.1399763 0.473006923 255 79 163
66.0689663 22.9928224 0.703401244 255 79 163
66.1513872 22.9104016 0.915930444 255 79 163
66.1882198 22.873569 1.08889472 255 79 163
51.2727381 49.2383427 0 218 222 230
51.2727381 49.2383427 10.5191192 218 222 230
51.3017963 49.4776584 10.5191192 218 222 230
51.3872821 49.7030659 10.5191192 218 222 230
51.5242273 49.9014654 10.5191192 218 222 230
51.7046733 50.0613266 10.5191192 218 222 230
51.9181332 50.1733589 10.5191192 218 222 230
52.1522014 50.2310516 10.5191192 218 222 230
52.3932748 50.2310516 10.5191192 218 222 230
52.627343 50.1733589 10.5191192 218 222 230
52.8408028 50.0613266 10.5191192 218 222 230
53.0212488 49.9014654 10.5191192 218 222 230
53.1581941 49.7030659 10.5191192 218 222 230
53.2436799 49.4776584 10.5191192 218 222 230
53.2727381 49.2383427 10.5191192 218 222 230
53.2436799 48.999027 10.5191192 218 222 230
53.1581941 48.7736195 10.5191192 218 222 230
53.0212488 48.57522 10.5191192 218 222 230
52.8408028 48.4153588 10.5191192 218 222 230
52.627343 48.3033265 10.5191192 218 222 230
52.3932748 48.2456338 10.5191192 218 222 230
52.1522014 48.2456338 10.5191192 218 222 230
51.9181332 48.3033265 10.5191192 218 222 230
51.7046733 48.4153588 10.5191192 218 222 230
51.5242273 48.57522 10.5191192 218 222 230
51.3872821 48.7736195 10.5191192 218 222 230
51.3017963 48.999027 10.5191192 218 222 230
51.2727381 49.2383427 10.5191192 218 222 230
51.2727381 49.2383427 0 218 222 230
51.3017963 49.4776584 0 218 222 230
51.3872821 49.7030659 0 218 222 230
51.5242273 49.9014654 0 218 222 230
51.7046733 50.0613266 0 218 222 230
51.9181332 50.1733589 0 218 222 230
52.1522014 50.2310516 0 218 222 230
52.3932748 50.2310516 0 218 222 230
52.627343 50.1733589 0 218 222 230
52.8408028 50.0613266 0 218 222 230
53.0212488 49.9014654 0 218 222 230
53.1581941 49.7030659 0 218 222 230
53.2436799 49.4776584 0 218 222 230
53.2727381 49.2383427 0 218 222 230
53.2436799 48.999027 0 218 222 230
53.1581941 48.7736195 0 218 222 230
53.0212488 48.57522 0 218 222 230
52.8408028 48.4153588 0 218 222 230
52.627343 48.3033265 0 218 222 230
52.3932748 48.2456338 0 218 222 230
52.1522014 48.2456338 0 218 222 230
51.9181332 48.3033265 0 218 222 230
51.7046733 48.4153588 0 218 222 230
51.5242273 48.57522 0 218 222 230
51.3872821 48.7736195 0 218 222 230
51.3017963 48.999027 0 218 222 230
6.99902449 15.175128 1.69063 218 222 230
6.99902449 14.4027745 3.83381351 218 222 230
6.99902449 15.8726491 5.57428308 218 222 230
6.99902449 18.1148772 5.17156913 218 222 230
6.99902449 18.8872308 3.02838562 218 222 230
6.99902449 17.4173562 1.28791605 218 222 230
66.2005778 0 7.30828785 255 79 163
66.1820658 0.0185119936 7.09264013 255 79 163
66.1270715 0.0735062964 6.88330246 255 79 163
66.0372041 0.163373724 6.68640025 255 79 163
65.9150931 0.285484674 6.50769505 255 79 163
65.7643117 0.436266066 6.35241593 255 79 163
65.5892719 0.611305899 6.2251065 255 79 163
65.3270864 0.873491381 6.10517576 255 79 163
65.1336323 1.06694553 6.05862786 255 79 163
64.9352729 1.26530492 6.04298293 255 79 163
64.9352729 22.861211 6.04298293 255 79 163
66.2005778 22.861211 7.30828785 255 79 163
66.168854 22.861211 7.02673101 255 79 163
66.0752732 22.861211 6.75929262 255 79 163
65.9245281 22.861211 6.51938313 255 79 163
65.7241776 22.861211 6.31903262 255 79 163
65.4842681 22.861211 6.1682875 255 79 163
65.2168297 22.861211 6.07470676 255 79 163
66.2005778 22.861211 1.26530492 218 222 230
66.2005778 22.861211 6.04298293 218 222 230
66.2005778 22.861211 7.30828785 218 222 230
66.168854 22.861211 7.02673101 218 222 230
66.0752732 22.861211 6.75929262 218 222 230
65.9245281 22.861211 6.51938313 218 222 230
65.7241776 22.861211 6.31903262 218 222 230
65.4842681 22.861211 6.1682875 218 222 230
65.2168297 22.861211 6.07470676 218 222 230
64.9352729 22.861211 6.04298293 218 222 230
20.0250346 22.861211 6.04298293 218 222 230
18.7597297 22.861211 4.77767801 218 222 230
18.7914535 22.861211 5.05923484 218 222 230
18.8850343 22.861211 5.32667324 218 222 230
19.0357794 22.861211 5.56658272 218 222 230
19.2361299 22.861211 5.76693323 218 222 230
19.4760394 22.861211 5.91767835 218 222 230
19.7434778 22.861211 6.01125909 218 222 230
18.7597297 22.861211 1.26530492 218 222 230
20.0250346 1.26530492 6.04298293 255 79 163
19.7102189 1.06275937 6.00319324 255 79 163
19.4152022 0.860213813 5.88632619 255 79 163
19.1585416 0.657668259 5.69973351 255 79 163
18.9563763 0.455122706 5.45514902 255 79 163
18.8214238 0.252577153 5.16795575 255 79 163
18.7752476 0.126288576 4.97524023 255 79 163
18.7597297 0 4.77767801 255 79 163
20.0250346 22.861211 6.04298293 255 79 163
18.7597297 22.861211 4.77767801 255 79 163
18.7914535 22.861211 5.05923484 255 79 163
18.8850343 22.861211 5.32667324 255 79 163
19.0357794 22.861211 5.56658272 255 79 163
19.2361299 22.861211 5.76693323 255 79 163
19.4760394 22.861211 5.91767835 255 79 163
19.7434778 22.861211 6.01125909 255 79 163
64.9352729 22.861211 6.04298293 218 222 230
20.0250346 22.861211 6.04298293 218 222 230
20.0250346 1.26530492 6.04298293 218 222 230
64.9352729 1.26530492 6.04298293 218 222 230
51.2727381 49.2383427 10.5191192 218 222 230
51.3017963 49.4776584 10.5191192 218 222 230
51.3872821 49.7030659 10.5191192 218 222 230
51.5242273 49.9014654 10.5191192 218 222 230
51.7046733 50.0613266 10.5191192 218 222 230
51.9181332 50.1733589 10.5191192 218 222 230
52.1522014 50.2310516 10.5191192 218 222 230
52.3932748 50.2310516 10.5191192 218 222 230
52.627343 50.1733589 10.5191192 218 222 230
52.8408028 50.0613266 10.5191192 218 222 230
53.0212488 49.9014654 10.5191192 218 222 230
53.1581941 49.7030659 10.5191192 218 222 230
53.2436799 49.4776584 10.5191192 218 222 230
53.2727381 49.2383427 10.5191192 218 222 230
53.2436799 48.999027 10.5191192 218 222 230
53.1581941 48.7736195 10.5191192 218 222 230
53.0212488 48.57522 10.5191192 218 222 230
52.8408028 48.4153588 10.5191192 218 222 230
52.627343 48.3033265 10.5191192 218 222 230
52.3932748 48.2456338 10.5191192 218 222 230
52.1522014 48.2456338 10.5191192 218 222 230
51.9181332 48.3033265 10.5191192 218 222 230
51.7046733 48.4153588 10.5191192 218 222 230
51.5242273 48.57522 10.5191192 218 222 230
51.3872821 48.7736195 10.5191192 218 222 230
51.3017963 48.999027 10.5191192 218 222 230
52.7958082 49.2383427 10.5191192 218 222 230
52.7806088 49.3635216 10.5191192 218 222 230
52.7358937 49.4814255 10.5191192 218 222 230
52.6642617 49.5852024 10.5191192 218 222 230
52.5698758 49.668821 10.5191192 218 222 230
52.4582213 49.7274218 10.5191192 218 222 230
52.3357872 49.7575991 10.5191192 218 222 230
52.209689 49.7575991 10.5191192 218 222 230
52.0872549 49.7274218 10.5191192 218 222 230
51.9756004 49.668821 10.5191192 218 222 230
51.8812145 49.5852024 10.5191192 218 222 230
51.8095825 49.4814255 10.5191192 218 222 230
51.7648674 49.3635216 10.5191192 218 222 230
51.749668 49.2383427 10.5191192 218 222 230
51.7648674 49.1131638 10.5191192 218 222 230
51.8095825 48.9952599 10.5191192 218 222 230
51.8812145 48.891483 10.5191192 218 222 230
51.9756004 48.8078644 10.5191192 218 222 230
52.0872549 48.7492636 10.5191192 218 222 230
52.209689 48.7190863 10.5191192 218 222 230
52.3357872 48.7190863 10.5191192 218 222 230
52.4582213 48.7492636 10.5191192 218 222 230
52.5698758 48.8078644 10.5191192 218 222 230
52.6642617 48.891483 10.5191192 218 222 230
52.7358937 48.9952599 10.5191192 218 222 230
52.7806088 49.1131638 10.5191192 218 222 230
52.7958082 49.2383427 0 218 222 230
52.7806088 49.3635216 0 218 222 230
52.7358937 49.4814255 0 218 222 230
52.6642617 49.5852024 0 218 222 230
52.5698758 49.668821 0 218 222 230
52.4582213 49.7274218 0 218 222 230
52.3357872 49.7575991 0 218 222 230
52.209689 49.7575991 0 218 222 230
52.0872549 49.7274218 0 218 222 230
51.9756004 49.668821 0 218 222 230
51.8812145 49.5852024 0 218 222 230
51.8095825 49.4814255 0 218 222 230
51.7648674 49.3635216 0 218 222 230
51.749668 49.2383427 0 218 222 230
51.7648674 49.1131638 0 218 222 230
51.8095825 48.9952599 0 218 222 230
51.8812145 48.891483 0 218 222 230
51.9756004 48.8078644 0 218 222 230
52.0872549 48.7492636 0 218 222 230
52.209689 48.7190863 0 218 222 230
52.3357872 48.7190863 0 218 222 230
52.4582213 48.7492636 0 218 222 230
52.5698758 48.8078644 0 218 222 230
52.6642617 48.891483 0 218 222 230
52.7358937 48.9952599 0 218 222 230
52.7806088 49.1131638 0 218 222 230
52.7958082 49.2383427 0 218 222 230
52.7958082 49.2383427 10.5191192 218 222 230
52.7958082 49.2383427 10.5191192 218 222 230
52.7806088 49.3635216 10.5191192 218 222 230
52.7358937 49.4814255 10.5191192 218 222 230
52.6642617 49.5852024 10.5191192 218 222 230
52.5698758 49.668821 10.5191192 218 222 230
52.4582213 49.7274218 10.5191192 218 222 230
52.3357872 49.7575991 10.5191192 218 222 230
52.209689 49.7575991 10.5191192 218 222 230
52.0872549 49.7274218 10.5191192 218 222 230
51.9756004 49.668821 10.5191192 218 222 230
51.8812145 49.5852024 10.5191192 218 222 230
51.8095825 49.4814255 10.5191192 218 222 230
51.7648674 49.3635216 10.5191192 218 222 230
51.749668 49.2383427 10.5191192 218 222 230
51.7648674 49.1131638 10.5191192 218 222 230
51.8095825 48.9952599 10.5191192 218 222 230
51.8812145 48.891483 10.5191192 218 222 230
51.9756004 48.8078644 10.5191192 218 222 230
52.0872549 48.7492636 10.5191192 218 222 230
52.209689 48.7190863 10.5191192 218 222 230
52.3357872 48.7190863 10.5191192 218 222 230
52.4582213 48.7492636 10.5191192 218 222 230
52.5698758 48.8078644 10.5191192 218 222 230
52.6642617 48.891483 10.5191192 218 222 230
52.7358937 48.9952599 10.5191192 218 222 230
52.7806088 49.1131638 10.5191192 218 222 230
52.7958082 49.2383427 0 218 222 230
52.7806088 49.3635216 0 218 222 230
52.7358937 49.4814255 0 218 222 230
52.6642617 49.5852024 0 218 222 230
52.5698758 49.668821 0 218 222 230
52.4582213 49.7274218 0 218 222 230
52.3357872 49.7575991 0 218 222 230
52.209689 49.7575991 0 218 222 230
52.0872549 49.7274218 0 218 222 230
51.9756004 49.668821 0 218 222 230
51.8812145 49.5852024 0 218 222 230
51.8095825 49.4814255 0 218 222 230
51.7648674 49.3635216 0 218 222 230
51.749668 49.2383427 0 218 222 230
51.7648674 49.1131638 0 218 222 230
51.8095825 48.9952599 0 218 222 230
51.8812145 48.891483 0 218 222 230
51.9756004 48.8078644 0 218 222 230
52.0872549 48.7492636 0 218 222 230
52.209689 48.7190863 0 218 222 230
52.3357872 48.7190863 0 218 222 230
52.4582213 48.7492636 0 218 222 230
52.5698758 48.8078644 0 218 222 230
52.6642617 48.891483 0 218 222 230
52.7358937 48.9952599 0 218 222 230
52.7806088 49.1131638 0 218 222 230
3 18 10 13
3 17 10 18
3 11 1 12
3 11 17 16
3 11 10 17
3 9 14 13
3 9 15 14
3 9 16 15
3 9 13 10
3 8 11 16
3 8 16 9
3 0 1 11
3 0 11 8
3 2 0 8
3 6 8 7
3 6 2 8
3 4 3 2
3 5 4 2
3 5 2 6
3 22 20 19
3 22 19 21
3 32 23 24
3 33 24 25
3 33 32 24
3 34 25 26
3 34 33 25
3 35 26 27
3 35 34 26
3 36 27 28
3 36 35 27
3 37 28 29
3 37 36 28
3 38 29 30
3 38 37 29
3 31 38 30
3 42 39 41
3 42 43 44
3 40 39 42
3 45 42 44
3 45 40 42
3 48 46 47
3 49 45 46
3 49 50 51
3 49 51 40
3 49 40 45
3 49 46 48
3 72 70 71
3 74 72 73
3 74 70 72
3 68 53 69
3 68 69 70
3 68 70 74
3 67 52 53
3 67 53 68
3 66 52 67
3 65 52 66
3 64 52 65
3 63 52 64
3 62 52 63
3 54 58 57
3 54 59 58
3 54 60 59
3 54 61 60
3 54 62 61
3 54 52 62
3 55 57 56
3 55 54 57
3 78 76 75
3 78 77 76
3 81 80 79
3 81 79 86
3 109 85 110
3 111 110 85
3 108 85 109
3 112 111 85
3 107 85 108
3 106 85 107
3 105 82 85
3 105 85 106
3 104 82 105
3 103 82 104
3 102 82 103
3 101 82 102
3 84 88 87
3 84 89 88
3 84 90 89
3 84 91 90
3 84 92 91
3 84 93 92
3 84 94 93
3 84 95 94
3 83 96 95
3 83 97 96
3 83 98 97
3 83 99 98
3 83 100 99
3 83 101 100
3 83 82 101
3 83 95 84
3 81 85 82
3 84 87 85
3 87 112 85
3 85 81 86
3 116 114 113
3 116 115 114
3 120 118 117
3 120 119 118
3 124 122 121
3 124 123 122
3 128 126 125
3 128 127 126
3 132 130 129
3 132 131 130
3 136 134 133
3 136 135 134
3 140 138 137
3 140 139 138
3 151 141 142
3 151 150 141
3 152 142 143
3 152 151 142
3 153 143 144
3 153 152 143
3 154 144 145
3 154 153 144
3 155 145 146
3 155 154 145
3 156 146 147
3 156 155 146
3 149 147 148
3 149 156 147
3 160 161 162
3 159 162 163
3 159 160 162
3 158 157 159
3 158 159 163
3 173 174 175
3 173 175 181
3 172 181 180
3 172 173 181
3 171 180 179
3 171 172 180
3 170 179 178
3 170 171 179
3 169 170 178
3 168 178 177
3 168 169 178
3 167 177 176
3 167 168 177
3 166 176 164
3 166 167 176
3 165 166 164
3 190 182 183
3 190 183 184
3 190 184 185
3 190 185 186
3 190 186 187
3 190 187 188
3 190 188 189
3 192 182 190
3 191 192 190
3 200 201 202
3 200 202 208
3 199 208 207
3 199 200 208
3 198 207 206
3 198 199 207
3 197 206 205
3 197 198 206
3 196 205 204
3 196 197 205
3 195 204 203
3 195 196 204
3 194 203 193
3 194 195 203
3 210 211 209
3 210 212 211
3 225 215 216
3 217 225 216
3 226 225 217
3 218 226 217
3 232 230 229
3 232 231 230
3 238 219 220
3 238 220 221
3 239 218 219
3 239 219 238
3 239 238 221
3 239 226 218
3 240 227 226
3 240 226 239
3 241 228 227
3 241 227 240
3 242 229 228
3 242 232 229
3 242 228 241
3 243 221 222
3 244 233 232
3 244 242 233
3 244 232 242
3 245 221 243
3 245 239 221
3 246 240 239
3 246 239 245
3 247 240 246
3 247 241 240
3 248 242 241
3 248 233 242
3 248 241 247
3 249 234 233
3 249 235 234
3 249 233 248
3 249 248 235
3 250 246 245
3 250 243 222
3 250 245 243
3 250 247 246
3 251 235 248
3 251 248 247
3 251 247 250
3 252 236 235
3 252 235 251
3 253 237 236
3 253 236 252
3 254 214 213
3 254 213 237
3 254 237 253
3 255 251 250
3 256 252 251
3 256 251 255
3 257 252 256
3 257 253 252
3 258 253 257
3 258 254 253
3 259 254 258
3 259 214 254
3 260 222 223
3 260 250 222
3 260 255 250
3 261 256 255
3 261 260 223
3 261 255 260
3 262 256 261
3 262 261 223
3 262 257 256
3 263 257 262
3 263 258 257
3 264 259 258
3 264 258 263
3 265 214 259
3 265 259 264
3 266 264 263
3 266 223 224
3 266 262 223
3 266 263 262
3 267 264 266
3 267 224 214
3 267 266 224
3 267 265 264
3 267 214 265
3 276 277 285
3 275 285 284
3 275 276 285
3 274 284 283
3 274 275 284
3 273 283 282
3 273 274 283
3 272 281 280
3 272 282 281
3 272 273 282
3 271 280 279
3 271 272 280
3 270 279 278
3 270 271 279
3 269 278 268
3 269 270 278
3 293 294 295
3 293 295 301
3 292 301 300
3 292 293 301
3 291 300 299
3 291 292 300
3 290 299 298
3 290 291 299
3 289 298 297
3 289 290 298
3 288 297 296
3 288 289 297
3 287 296 286
3 287 288 296
3 304 313 319
3 305 319 318
3 305 304 319
3 306 318 317
3 306 305 318
3 307 317 316
3 307 306 317
3 308 307 316
3 309 316 315
3 309 308 316
3 310 315 314
3 310 309 315
3 311 310 314
3 312 314 302
3 312 311 314
3 303 312 302
3 349 321 320
3 349 322 321
3 350 323 322
3 350 322 349
3 351 324 323
3 351 323 350
3 352 325 324
3 352 326 325
3 352 324 351
3 353 327 326
3 353 326 352
3 354 327 353
3 355 328 327
3 355 327 354
3 356 329 328
3 356 328 355
3 357 330 329
3 357 329 356
3 358 331 330
3 358 330 357
3 359 332 331
3 359 331 358
3 360 332 359
3 360 333 332
3 361 333 360
3 361 334 333
3 361 335 334
3 362 336 335
3 362 335 361
3 363 337 336
3 363 336 362
3 364 337 363
3 365 338 337
3 365 339 338
3 365 337 364
3 366 339 365
3 367 340 339
3 367 339 366
3 368 341 340
3 368 340 367
3 369 342 341
3 369 341 368
3 370 343 342
3 370 344 343
3 370 342 369
3 371 344 370
3 372 345 344
3 372 344 371
3 373 346 345
3 373 345 372
3 348 347 346
3 348 346 373
3 379 377 378
3 375 376 377
3 375 377 379
3 374 375 379
3 391 380 381
3 392 381 382
3 392 391 381
3 393 382 383
3 393 392 382
3 394 383 384
3 394 384 385
3 394 393 383
3 395 385 386
3 395 394 385
3 396 386 387
3 396 395 386
3 397 387 388
3 397 396 387
3 390 388 389
3 390 397 388
3 414 413 412
3 408 410 409
3 408 411 410
3 408 412 411
3 408 415 414
3 408 414 412
3 416 408 409
3 399 400 401
3 399 401 402
3 399 402 403
3 399 403 404
3 399 404 405
3 399 405 406
3 398 406 407
3 398 407 408
3 398 408 416
3 398 399 406
3 426 423 424
3 427 422 423
3 427 423 426
3 428 421 422
3 428 422 427
3 429 420 421
3 429 421 428
3 430 419 420
3 430 420 429
3 431 418 419
3 431 419 430
3 432 417 418
3 432 418 431
3 425 417 432
3 435 434 433
3 435 433 436
3 486 453 454
3 485 454 455
3 485 486 454
3 487 452 453
3 487 453 486
3 484 455 456
3 484 485 455
3 488 451 452
3 488 452 487
3 483 456 457
3 483 484 456
3 463 450 451
3 463 451 488
3 482 457 458
3 482 483 457
3 464 449 450
3 464 450 463
3 481 482 458
3 459 481 458
3 465 448 449
3 465 449 464
3 480 481 459
3 466 447 448
3 466 448 465
3 460 479 480
3 460 480 459
3 446 447 466
3 446 466 467
3 468 446 467
3 461 478 479
3 461 479 460
3 445 446 468
3 462 478 461
3 462 477 478
3 444 445 468
3 444 468 469
3 444 469 470
3 437 476 477
3 437 477 462
3 443 444 470
3 438 476 437
3 438 475 476
3 442 443 470
3 442 470 471
3 439 475 438
3 439 474 475
3 441 471 472
3 441 442 471
3 440 474 439
3 440 472 473
3 440 473 474
3 440 441 472
3 514 515 516
3 514 516 542
3 513 542 541
3 513 514 542
3 512 541 540
3 512 513 541
3 511 540 539
3 511 512 540
3 510 539 538
3 510 511 539
3 509 538 537
3 509 510 538
3 508 537 536
3 508 509 537
3 507 536 535
3 507 508 536
3 506 535 534
3 506 507 535
3 505 533 532
3 505 534 533
3 505 506 534
3 504 505 532
3 503 504 532
3 503 532 531
3 502 503 531
3 502 531 530
3 501 502 530
3 501 529 528
3 501 530 529
3 500 501 528
3 500 528 527
3 499 500 527
3 498 499 527
3 498 527 526
3 497 498 526
3 497 526 525
3 496 525 524
3 496 497 525
3 495 523 522
3 495 524 523
3 495 496 524
3 494 495 522
3 493 522 521
3 493 494 522
3 492 521 520
3 492 493 521
3 491 520 519
3 491 492 520
3 490 519 518
3 490 491 519
3 489 518 517
3 489 490 518
3 558 560 559
3 556 558 557
3 554 556 555
3 554 558 556
3 552 554 553
3 552 560 558
3 552 558 554
3 551 561 560
3 551 560 552
3 568 566 565
3 568 567 566
3 550 562 561
3 550 561 551
3 549 563 562
3 549 562 550
3 548 564 563
3 548 563 549
3 545 544 543
3 545 543 568
3 547 565 564
3 547 564 548
3 547 545 568
3 547 568 565
3 546 545 547
