ply
format ascii 1.0
comment generated by blendit.inference.finetune_visualize
element vertex 586
property float x
property float y
property float z
property uchar red
property uchar green
property uchar blue
element face 572
property list uchar int vertex_indices
end_header
-2.22044605e-16 1.11811629 36.1038416 218 222 230
0 27.8318132 36.1038416 218 222 230
-2.22044605e-16 1.11811629 1.11811629 218 222 230
-2.22044605e-16 48.4379632 1.11811629 218 222 230
-2.22044605e-16 48.4379632 19.9773951 218 222 230
-5.55111512e-17 29.2657745 19.9773951 218 222 230
-5.07326536e-17 29.0961359 19.9977975 218 222 230
-4.48660017e-17 28.9346104 20.0540161 218 222 230
-3.97948138e-17 28.7853014 20.1375614 218 222 230
-3.3686998e-17 28.606447 20.2791459 218 222 230
-2.73311346e-17 28.4312068 20.4667475 218 222 230
-1.94954072e-17 28.2357499 20.7477359 218 222 230
-1.12300108e-17 28.0627862 21.0917556 218 222 230
7.29774913e-22 27.9054032 21.5802348 218 222 230
8.19199173e-18 27.8507304 21.8948724 218 222 230
5.55111512e-17 27.8318132 22.2136277 218 222 230
0 24.0005297 8.87838213 218 222 230
0 20.7892034 8.87838213 218 222 230
0 20.2207474 8.94740519 218 222 230
0 19.6853279 9.150463 218 222 230
0 19.2140617 9.47575458 218 222 230
0 18.834337 9.90437517 218 222 230
0 18.568222 10.4114149 218 222 230
0 18.4311824 10.9674064 218 222 230
0 18.4311824 11.5400376 218 222 230
0 18.568222 12.0960292 218 222 230
0 18.834337 12.6030689 218 222 230
0 19.2140617 13.0316895 218 222 230
0 19.6853279 13.3569811 218 222 230
0 20.2207474 13.5600389 218 222 230
0 20.7892034 13.6290619 218 222 230
0 24.0005297 13.6290619 218 222 230
0 24.5689857 13.5600389 218 222 230
0 25.1044052 13.3569811 218 222 230
0 25.5756714 13.0316895 218 222 230
0 25.9553961 12.6030689 218 222 230
0 26.2215111 12.0960292 218 222 230
0 26.3585507 11.5400376 218 222 230
0 26.3585507 10.9674064 218 222 230
0 26.2215111 10.4114149 218 222 230
0 25.9553961 9.90437517 218 222 230
0 25.5756714 9.47575458 218 222 230
0 25.1044052 9.150463 218 222 230
0 24.5689857 8.94740519 218 222 230
-2.22044605e-16 1.11811629 36.1038416 218 222 230
0 27.8318132 36.1038416 218 222 230
0.0280335098 0.869312008 36.1038416 218 222 230
0.110728322 0.632983813 36.1038416 218 222 230
0.243937773 0.420982186 36.1038416 218 222 230
0.420982186 0.243937773 36.1038416 218 222 230
0.632983813 0.110728322 36.1038416 218 222 230
0.869312008 0.0280335098 36.1038416 218 222 230
1.11811629 -2.22044605e-16 36.1038416 218 222 230
39.8186197 0 36.1038416 218 222 230
39.8186197 37.8062347 36.1038416 218 222 230
39.7269375 37.8024695 36.1038416 218 222 230
39.6358727 37.7911994 36.1038416 218 222 230
39.5460387 37.7725001 36.1038416 218 222 230
-2.22044605e-16 1.11811629 1.11811629 255 79 163
0.0380988887 0.828726499 0.828726499 255 79 163
0.149799178 0.559058145 0.559058145 255 79 163
0.327488679 0.327488679 0.327488679 255 79 163
0.533902133 0.164765433 0.164765433 255 79 163
0.72535583 0.0712527556 0.0712527556 255 79 163
0.910068815 0.0195261542 0.0195261542 255 79 163
1.0136354 0.00489224138 0.00489224138 255 79 163
1.11811629 0 -2.22044605e-16 255 79 163
1.11811629 -2.22044605e-16 36.1038416 255 79 163
-2.22044605e-16 1.11811629 36.1038416 255 79 163
0.0280335098 0.869312008 36.1038416 255 79 163
0.110728322 0.632983813 36.1038416 255 79 163
0.243937773 0.420982186 36.1038416 255 79 163
0.420982186 0.243937773 36.1038416 255 79 163
0.632983813 0.110728322 36.1038416 255 79 163
0.869312008 0.0280335098 36.1038416 255 79 163
0 27.8318132 36.1038416 218 222 230
5.55111512e-17 27.8318132 22.2136277 218 222 230
39.5460387 37.7725001 22.2136277 218 222 230
39.5460387 37.7725001 36.1038416 218 222 230
-2.22044605e-16 1.11811629 1.11811629 255 79 163
-2.22044605e-16 48.4379632 1.11811629 255 79 163
0.0280335098 48.4379632 0.869312008 255 79 163
0.110728322 48.4379632 0.632983813 255 79 163
0.243937773 48.4379632 0.420982186 255 79 163
0.420982186 48.4379632 0.243937773 255 79 163
0.632983813 48.4379632 0.110728322 255 79 163
0.869312008 48.4379632 0.0280335098 255 79 163
1.11811629 48.4379632 -2.22044605e-16 255 79 163
1.11811629 0 -2.22044605e-16 255 79 163
0.0380988887 0.828726499 0.828726499 255 79 163
0.149799178 0.559058145 0.559058145 255 79 163
0.327488679 0.327488679 0.327488679 255 79 163
0.533902133 0.164765433 0.164765433 255 79 163
0.72535583 0.0712527556 0.0712527556 255 79 163
0.910068815 0.0195261542 0.0195261542 255 79 163
1.0136354 0.00489224138 0.00489224138 255 79 163
5.55111512e-17 27.8318132 22.2136277 255 79 163
5.55111512e-17 27.8318132 22.2136277 255 79 163
-5.55111512e-17 29.2657745 19.9773951 255 79 163
-5.07326536e-17 29.0961359 19.9977975 255 79 163
-4.48660017e-17 28.9346104 20.0540161 255 79 163
-3.97948138e-17 28.7853014 20.1375614 255 79 163
-3.3686998e-17 28.606447 20.2791459 255 79 163
-2.73311346e-17 28.4312068 20.4667475 255 79 163
-1.94954072e-17 28.2357499 20.7477359 255 79 163
-1.12300108e-17 28.0627862 21.0917556 255 79 163
7.29774913e-22 27.9054032 21.5802348 255 79 163
8.19199173e-18 27.8507304 21.8948724 255 79 163
0.0308936857 29.2657745 20.2384141 255 79 163
0.121867335 29.2657745 20.4850093 255 79 163
0.267894025 29.2657745 20.7035535 255 79 163
0.460904025 29.2657745 20.8819701 255 79 163
0.690231677 29.2657745 21.0103999 255 79 163
0.899982678 29.2657745 21.074027 255 79 163
1.11811629 29.2657745 21.0955114 255 79 163
0.956882562 28.9268526 21.1336103 255 79 163
0.790841171 28.6070565 21.2453109 255 79 163
0.615511518 28.324211 21.423 255 79 163
0.427046855 28.0936193 21.6545695 255 79 163
0.222494929 27.9270258 21.9242378 255 79 163
0.0284876368 28.6436652 20.4642715 255 79 163
0.0995261649 28.6641607 20.6535128 255 79 163
0.20248029 28.6835762 20.8198077 255 79 163
0.334495291 28.7025057 20.9574648 255 79 163
0.494594567 28.7219539 21.0645601 255 79 163
0.0224536637 28.2071553 20.9623188 255 79 163
0.678931752 28.7425147 21.140183 255 79 163
0.0750718005 28.226113 21.0836947 255 79 163
0.147715255 28.2433796 21.1902941 255 79 163
0.238996262 28.2603126 21.2784192 255 79 163
0.34998424 28.2788463 21.3467631 255 79 163
0.0122226566 27.9362166 21.5644571 255 79 163
0.479068385 28.300338 21.3952188 255 79 163
0.0406399765 27.9465487 21.6235708 255 79 163
0.0795843186 27.9549459 21.6757271 255 79 163
0.128300055 27.9629489 21.7188699 255 79 163
0.18735471 27.9727604 21.7518983 255 79 163
0.255677539 27.9859212 21.7743345 255 79 163
0.0186788322 27.893865 21.7644233 255 79 163
0.0302702444 27.8974853 21.7852581 255 79 163
0.0077605139 27.8714309 21.8326491 255 79 163
40.936736 48.4379632 1.11811629 218 222 230
40.936736 48.4379632 21.0955114 218 222 230
39.8186197 48.4379632 -2.22044605e-16 218 222 230
40.067424 48.4379632 0.0280335098 218 222 230
40.3037522 48.4379632 0.110728322 218 222 230
40.5157538 48.4379632 0.243937773 218 222 230
40.6927983 48.4379632 0.420982186 218 222 230
40.8260077 48.4379632 0.632983813 218 222 230
40.9087025 48.4379632 0.869312008 218 222 230
1.11811629 48.4379632 -2.22044605e-16 218 222 230
-2.22044605e-16 48.4379632 1.11811629 218 222 230
0.0280335098 48.4379632 0.869312008 218 222 230
0.110728322 48.4379632 0.632983813 218 222 230
0.243937773 48.4379632 0.420982186 218 222 230
0.420982186 48.4379632 0.243937773 218 222 230
0.632983813 48.4379632 0.110728322 218 222 230
0.869312008 48.4379632 0.0280335098 218 222 230
-2.22044605e-16 48.4379632 19.9773951 218 222 230
0.0280335098 48.4379632 20.2261994 218 222 230
0.110728322 48.4379632 20.4625275 218 222 230
0.243937773 48.4379632 20.6745292 218 222 230
0.420982186 48.4379632 20.8515736 218 222 230
0.632983813 48.4379632 20.984783 218 222 230
0.869312008 48.4379632 21.0674779 218 222 230
1.11811629 48.4379632 21.0955114 218 222 230
4.40237219 48.4379632 12.267427 218 222 230
4.40237219 48.4379632 18.9566432 218 222 230
4.4304057 48.4379632 12.0186227 218 222 230
4.51310051 48.4379632 11.7822945 218 222 230
4.64630996 48.4379632 11.5702929 218 222 230
4.82335437 48.4379632 11.3932485 218 222 230
5.035356 48.4379632 11.260039 218 222 230
5.2716842 48.4379632 11.1773442 218 222 230
5.52048848 48.4379632 11.1493107 218 222 230
12.0576376 48.4379632 11.1493107 218 222 230
13.1757539 48.4379632 12.267427 218 222 230
13.1477204 48.4379632 12.0186227 218 222 230
13.0650255 48.4379632 11.7822945 218 222 230
12.9318161 48.4379632 11.5702929 218 222 230
12.7547717 48.4379632 11.3932485 218 222 230
12.5427701 48.4379632 11.260039 218 222 230
12.3064419 48.4379632 11.1773442 218 222 230
13.1757539 48.4379632 17.8385269 218 222 230
12.0576376 48.4379632 18.9566432 218 222 230
12.3064419 48.4379632 18.9286097 218 222 230
12.5427701 48.4379632 18.8459149 218 222 230
12.7547717 48.4379632 18.7127054 218 222 230
12.9318161 48.4379632 18.535661 218 222 230
13.0650255 48.4379632 18.3236594 218 222 230
13.1477204 48.4379632 18.0873312 218 222 230
-2.22044605e-16 48.4379632 19.9773951 255 79 163
-5.55111512e-17 29.2657745 19.9773951 255 79 163
0.0308936857 29.2657745 20.2384141 255 79 163
0.121867335 29.2657745 20.4850093 255 79 163
0.267894025 29.2657745 20.7035535 255 79 163
0.460904025 29.2657745 20.8819701 255 79 163
0.690231677 29.2657745 21.0103999 255 79 163
0.899982678 29.2657745 21.074027 255 79 163
1.11811629 29.2657745 21.0955114 255 79 163
1.11811629 48.4379632 21.0955114 255 79 163
0.0280335098 48.4379632 20.2261994 255 79 163
0.110728322 48.4379632 20.4625275 255 79 163
0.243937773 48.4379632 20.6745292 255 79 163
0.420982186 48.4379632 20.8515736 255 79 163
0.632983813 48.4379632 20.984783 255 79 163
0.869312008 48.4379632 21.0674779 255 79 163
0 24.0005297 8.87838213 218 222 230
2.04251571 24.0005297 8.87838213 218 222 230
2.04251571 20.7892034 8.87838213 218 222 230
0 20.7892034 8.87838213 218 222 230
0 24.0005297 13.6290619 218 222 230
2.04251571 24.0005297 13.6290619 218 222 230
2.04251571 24.5689857 13.5600389 218 222 230
2.04251571 25.1044052 13.3569811 218 222 230
2.04251571 25.5756714 13.0316895 218 222 230
2.04251571 25.9553961 12.6030689 218 222 230
2.04251571 26.2215111 12.0960292 218 222 230
2.04251571 26.3585507 11.5400376 218 222 230
2.04251571 26.3585507 10.9674064 218 222 230
2.04251571 26.2215111 10.4114149 218 222 230
2.04251571 25.9553961 9.90437517 218 222 230
2.04251571 25.5756714 9.47575458 218 222 230
2.04251571 25.1044052 9.150463 218 222 230
2.04251571 24.5689857 8.94740519 218 222 230
2.04251571 24.0005297 8.87838213 218 222 230
0 24.0005297 8.87838213 218 222 230
0 24.5689857 13.5600389 218 222 230
0 25.1044052 13.3569811 218 222 230
0 25.5756714 13.0316895 218 222 230
0 25.9553961 12.6030689 218 222 230
0 26.2215111 12.0960292 218 222 230
0 26.3585507 11.5400376 218 222 230
0 26.3585507 10.9674064 218 222 230
0 26.2215111 10.4114149 218 222 230
0 25.9553961 9.90437517 218 222 230
0 25.5756714 9.47575458 218 222 230
0 25.1044052 9.150463 218 222 230
0 24.5689857 8.94740519 218 222 230
0 20.7892034 13.6290619 218 222 230
2.04251571 20.7892034 13.6290619 218 222 230
2.04251571 24.0005297 13.6290619 218 222 230
0 24.0005297 13.6290619 218 222 230
0 20.7892034 8.87838213 218 222 230
2.04251571 20.7892034 8.87838213 218 222 230
2.04251571 20.2207474 8.94740519 218 222 230
2.04251571 19.6853279 9.150463 218 222 230
2.04251571 19.2140617 9.47575458 218 222 230
2.04251571 18.834337 9.90437517 218 222 230
2.04251571 18.568222 10.4114149 218 222 230
2.04251571 18.4311824 10.9674064 218 222 230
2.04251571 18.4311824 11.5400376 218 222 230
2.04251571 18.568222 12.0960292 218 222 230
2.04251571 18.834337 12.6030689 218 222 230
2.04251571 19.2140617 13.0316895 218 222 230
2.04251571 19.6853279 13.3569811 218 222 230
2.04251571 20.2207474 13.5600389 218 222 230
2.04251571 20.7892034 13.6290619 218 222 230
0 20.7892034 13.6290619 218 222 230
0 20.2207474 8.94740519 218 222 230
0 19.6853279 9.150463 218 222 230
0 19.2140617 9.47575458 218 222 230
0 18.834337 9.90437517 218 222 230
0 18.568222 10.4114149 218 222 230
0 18.4311824 10.9674064 218 222 230
0 18.4311824 11.5400376 218 222 230
0 18.568222 12.0960292 218 222 230
0 18.834337 12.6030689 218 222 230
0 19.2140617 13.0316895 218 222 230
0 19.6853279 13.3569811 218 222 230
0 20.2207474 13.5600389 218 222 230
1.11811629 0 -2.22044605e-16 218 222 230
39.8186197 0 -2.22044605e-16 218 222 230
1.11811629 -2.22044605e-16 36.1038416 218 222 230
39.8186197 0 36.1038416 218 222 230
40.067424 0 36.0758081 218 222 230
40.3037522 0 35.9931133 218 222 230
40.5157538 0 35.8599038 218 222 230
40.6927983 0 35.6828594 218 222 230
40.8260077 0 35.4708578 218 222 230
40.9087025 0 35.2345296 218 222 230
40.936736 0 34.9857253 218 222 230
40.936736 0 1.11811629 218 222 230
40.067424 0 0.0280335098 218 222 230
40.3037522 0 0.110728322 218 222 230
40.5157538 0 0.243937773 218 222 230
40.6927983 0 0.420982186 218 222 230
40.8260077 0 0.632983813 218 222 230
40.9087025 0 0.869312008 218 222 230
4.40237219 0 12.267427 218 222 230
4.40237219 0 18.9566432 218 222 230
4.4304057 0 12.0186227 218 222 230
4.51310051 0 11.7822945 218 222 230
4.64630996 0 11.5702929 218 222 230
4.82335437 0 11.3932485 218 222 230
5.035356 0 11.260039 218 222 230
5.2716842 0 11.1773442 218 222 230
5.52048848 0 11.1493107 218 222 230
12.0576376 -7.10542736e-15 11.1493107 218 222 230
13.1757539 0 12.267427 218 222 230
13.1477204 0 12.0186227 218 222 230
13.0650255 0 11.7822945 218 222 230
12.9318161 0 11.5702929 218 222 230
12.7547717 0 11.3932485 218 222 230
12.5427701 0 11.260039 218 222 230
12.3064419 0 11.1773442 218 222 230
13.1757539 0 17.8385269 218 222 230
12.0576376 -7.10542736e-15 18.9566432 218 222 230
12.3064419 0 18.9286097 218 222 230
12.5427701 0 18.8459149 218 222 230
12.7547717 0 18.7127054 218 222 230
12.9318161 0 18.535661 218 222 230
13.0650255 0 18.3236594 218 222 230
13.1477204 0 18.0873312 218 222 230
40.936736 36.6881184 34.9857253 255 79 163
40.8986371 36.9775082 35.2751151 255 79 163
40.7869368 37.2471766 35.5447834 255 79 163
40.6092473 37.478746 35.7763529 255 79 163
40.4028339 37.6414693 35.9390761 255 79 163
40.2113802 37.734982 36.0325888 255 79 163
40.0266672 37.7867086 36.0843154 255 79 163
39.9231006 37.8013425 36.0989493 255 79 163
39.8186197 37.8062347 36.1038416 255 79 163
40.936736 36.6881184 22.2136277 255 79 163
40.9044935 36.9546926 22.2136277 255 79 163
40.8096261 37.2058932 22.2136277 255 79 163
40.6576044 37.427232 22.2136277 255 79 163
40.4571962 37.605944 22.2136277 255 79 163
40.2199598 37.731723 22.2136277 255 79 163
39.9595769 37.7973142 22.2136277 255 79 163
39.7516483 37.804227 22.2136277 255 79 163
39.5460387 37.7725001 22.2136277 255 79 163
39.5460387 37.7725001 36.1038416 255 79 163
39.7269375 37.8024695 36.1038416 255 79 163
39.6358727 37.7911994 36.1038416 255 79 163
39.8186197 0 36.1038416 255 79 163
40.067424 0 36.0758081 255 79 163
40.3037522 0 35.9931133 255 79 163
40.5157538 0 35.8599038 255 79 163
40.6927983 0 35.6828594 255 79 163
40.8260077 0 35.4708578 255 79 163
40.9087025 0 35.2345296 255 79 163
40.936736 0 34.9857253 255 79 163
40.936736 36.6881184 34.9857253 255 79 163
40.8986371 36.9775082 35.2751151 255 79 163
40.7869368 37.2471766 35.5447834 255 79 163
40.6092473 37.478746 35.7763529 255 79 163
40.4028339 37.6414693 35.9390761 255 79 163
40.2113802 37.734982 36.0325888 255 79 163
40.0266672 37.7867086 36.0843154 255 79 163
39.9231006 37.8013425 36.0989493 255 79 163
39.8186197 37.8062347 36.1038416 255 79 163
1.11811629 29.2657745 21.0955114 255 79 163
0.956882562 28.9268526 21.1336103 255 79 163
0.790841171 28.6070565 21.2453109 255 79 163
0.615511518 28.324211 21.423 255 79 163
0.427046855 28.0936193 21.6545695 255 79 163
0.222494929 27.9270258 21.9242378 255 79 163
5.55111512e-17 27.8318132 22.2136277 255 79 163
40.936736 39.27498 21.0955114 255 79 163
39.5460387 37.7725001 22.2136277 255 79 163
39.8938709 37.927298 21.8370283 255 79 163
40.2117109 38.2014111 21.5044386 255 79 163
40.5049244 38.5734932 21.2547226 255 79 163
40.7234671 38.9137465 21.1360491 255 79 163
1.11811629 48.4379632 -2.22044605e-16 218 222 230
39.8186197 48.4379632 -2.22044605e-16 218 222 230
1.11811629 0 -2.22044605e-16 218 222 230
39.8186197 0 -2.22044605e-16 218 222 230
40.936736 0 1.11811629 218 222 230
40.936736 0 34.9857253 218 222 230
40.936736 48.4379632 1.11811629 218 222 230
40.936736 48.4379632 21.0955114 218 222 230
40.936736 39.27498 21.0955114 218 222 230
40.936736 36.6881184 22.2136277 218 222 230
40.936736 36.6978023 22.1291733 218 222 230
40.936736 36.7247305 22.048516 218 222 230
40.936736 36.7649259 21.973445 218 222 230
40.936736 36.8329954 21.882651 218 222 230
40.936736 36.9548286 21.7638915 218 222 230
40.936736 37.1627941 21.6158593 218 222 230
40.936736 37.5040243 21.4417053 218 222 230
40.936736 38.0477461 21.25625 218 222 230
40.936736 38.6562236 21.1365802 218 222 230
40.936736 36.6881184 34.9857253 218 222 230
40.936736 31.1397681 12.3455581 218 222 230
40.936736 29.227457 9.62270107 218 222 230
40.936736 34.453987 12.0508766 218 222 230
40.936736 35.8558948 9.03333815 218 222 230
40.936736 33.9435837 6.31048115 218 222 230
40.936736 30.6293648 6.60516261 218 222 230
39.8186197 0 -2.22044605e-16 255 79 163
39.8186197 48.4379632 -2.22044605e-16 255 79 163
40.067424 48.4379632 0.0280335098 255 79 163
40.3037522 48.4379632 0.110728322 255 79 163
40.5157538 48.4379632 0.243937773 255 79 163
40.6927983 48.4379632 0.420982186 255 79 163
40.8260077 48.4379632 0.632983813 255 79 163
40.9087025 48.4379632 0.869312008 255 79 163
40.936736 48.4379632 1.11811629 255 79 163
40.936736 0 1.11811629 255 79 163
40.067424 0 0.0280335098 255 79 163
40.3037522 0 0.110728322 255 79 163
40.5157538 0 0.243937773 255 79 163
40.6927983 0 0.420982186 255 79 163
40.8260077 0 0.632983813 255 79 163
40.9087025 0 0.869312008 255 79 163
40.936736 39.27498 21.0955114 218 222 230
40.936736 48.4379632 21.0955114 218 222 230
1.11811629 48.4379632 21.0955114 218 222 230
1.11811629 29.2657745 21.0955114 218 222 230
4.40237219 48.4379632 12.267427 218 222 230
4.40237219 48.4379632 18.9566432 218 222 230
4.40237219 0 12.267427 218 222 230
4.40237219 0 18.9566432 218 222 230
4.40237219 48.4379632 12.267427 255 79 163
4.4304057 48.4379632 12.0186227 255 79 163
4.51310051 48.4379632 11.7822945 255 79 163
4.64630996 48.4379632 11.5702929 255 79 163
4.82335437 48.4379632 11.3932485 255 79 163
5.035356 48.4379632 11.260039 255 79 163
5.2716842 48.4379632 11.1773442 255 79 163
5.52048848 48.4379632 11.1493107 255 79 163
5.52048848 0 11.1493107 255 79 163
4.40237219 0 12.267427 255 79 163
4.4304057 0 12.0186227 255 79 163
4.51310051 0 11.7822945 255 79 163
4.64630996 0 11.5702929 255 79 163
4.82335437 0 11.3932485 255 79 163
5.035356 0 11.260039 255 79 163
5.2716842 0 11.1773442 255 79 163
4.40237219 48.4379632 18.9566432 218 222 230
12.0576376 48.4379632 18.9566432 218 222 230
4.40237219 0 18.9566432 218 222 230
12.0576376 -7.10542736e-15 18.9566432 218 222 230
12.0576376 48.4379632 11.1493107 218 222 230
5.52048848 48.4379632 11.1493107 218 222 230
12.0576376 -7.10542736e-15 11.1493107 218 222 230
5.52048848 0 11.1493107 218 222 230
12.0576376 48.4379632 18.9566432 255 79 163
12.0576376 -7.10542736e-15 18.9566432 255 79 163
12.3064419 0 18.9286097 255 79 163
12.5427701 0 18.8459149 255 79 163
12.7547717 0 18.7127054 255 79 163
12.9318161 0 18.535661 255 79 163
13.0650255 0 18.3236594 255 79 163
13.1477204 0 18.0873312 255 79 163
13.1757539 0 17.8385269 255 79 163
13.1757539 48.4379632 17.8385269 255 79 163
12.3064419 48.4379632 18.9286097 255 79 163
12.5427701 48.4379632 18.8459149 255 79 163
12.7547717 48.4379632 18.7127054 255 79 163
12.9318161 48.4379632 18.535661 255 79 163
13.0650255 48.4379632 18.3236594 255 79 163
13.1477204 48.4379632 18.0873312 255 79 163
13.1757539 48.4379632 12.267427 255 79 163
13.1757539 0 12.267427 255 79 163
13.1477204 0 12.0186227 255 79 163
13.0650255 0 11.7822945 255 79 163
12.9318161 0 11.5702929 255 79 163
12.7547717 0 11.3932485 255 79 163
12.5427701 0 11.260039 255 79 163
12.3064419 0 11.1773442 255 79 163
12.0576376 -7.10542736e-15 11.1493107 255 79 163
12.0576376 48.4379632 11.1493107 255 79 163
13.1477204 48.4379632 12.0186227 255 79 163
13.0650255 48.4379632 11.7822945 255 79 163
12.9318161 48.4379632 11.5702929 255 79 163
12.7547717 48.4379632 11.3932485 255 79 163
12.5427701 48.4379632 11.260039 255 79 163
12.3064419 48.4379632 11.1773442 255 79 163
13.1757539 48.4379632 17.8385269 218 222 230
13.1757539 48.4379632 12.267427 218 222 230
13.1757539 0 17.8385269 218 222 230
13.1757539 0 12.267427 218 222 230
2.04251571 20.7892034 8.87838213 218 222 230
2.04251571 20.2207474 8.94740519 218 222 230
2.04251571 19.6853279 9.150463 218 222 230
2.04251571 19.2140617 9.47575458 218 222 230
2.04251571 18.834337 9.90437517 218 222 230
2.04251571 18.568222 10.4114149 218 222 230
2.04251571 18.4311824 10.9674064 218 222 230
2.04251571 18.4311824 11.5400376 218 222 230
2.04251571 18.568222 12.0960292 218 222 230
2.04251571 18.834337 12.6030689 218 222 230
2.04251571 19.2140617 13.0316895 218 222 230
2.04251571 19.6853279 13.3569811 218 222 230
2.04251571 20.2207474 13.5600389 218 222 230
2.04251571 20.7892034 13.6290619 218 222 230
2.04251571 24.0005297 13.6290619 218 222 230
2.04251571 24.5689857 13.5600389 218 222 230
2.04251571 25.1044052 13.3569811 218 222 230
2.04251571 25.5756714 13.0316895 218 222 230
2.04251571 25.9553961 12.6030689 218 222 230
2.04251571 26.2215111 12.0960292 218 222 230
2.04251571 26.3585507 11.5400376 218 222 230
2.04251571 26.3585507 10.9674064 218 222 230
2.04251571 26.2215111 10.4114149 218 222 230
2.04251571 25.9553961 9.90437517 218 222 230
2.04251571 25.5756714 9.47575458 218 222 230
2.04251571 25.1044052 9.150463 218 222 230
2.04251571 24.5689857 8.94740519 218 222 230
2.04251571 24.0005297 8.87838213 218 222 230
40.936736 39.27498 21.0955114 255 79 163
40.936736 39.27498 21.0955114 255 79 163
40.936736 36.6881184 22.2136277 255 79 163
40.936736 36.6978023 22.1291733 255 79 163
40.936736 36.7247305 22.048516 255 79 163
40.936736 36.7649259 21.973445 255 79 163
40.936736 36.8329954 21.882651 255 79 163
40.936736 36.9548286 21.7638915 255 79 163
40.936736 37.1627941 21.6158593 255 79 163
40.936736 37.5040243 21.4417053 255 79 163
40.936736 38.0477461 21.25625 255 79 163
40.936736 38.6562236 21.1365802 255 79 163
40.9044935 36.9546926 22.2136277 255 79 163
40.8096261 37.2058932 22.2136277 255 79 163
40.6576044 37.427232 22.2136277 255 79 163
40.4571962 37.605944 22.2136277 255 79 163
40.2199598 37.731723 22.2136277 255 79 163
39.9595769 37.7973142 22.2136277 255 79 163
39.7516483 37.804227 22.2136277 255 79 163
39.5460387 37.7725001 22.2136277 255 79 163
39.8938709 37.927298 21.8370283 255 79 163
40.2117109 38.2014111 21.5044386 255 79 163
40.5049244 38.5734932 21.2547226 255 79 163
40.7234671 38.9137465 21.1360491 255 79 163
40.8978004 37.0964192 21.8955526 255 79 163
40.7955387 37.3373112 21.9127372 255 79 163
40.6451461 37.5424176 21.9301882 255 79 163
40.9001306 37.3395683 21.6607268 255 79 163
40.4566565 37.7009078 21.9475567 255 79 163
40.8097856 37.5376283 21.6818748 255 79 163
40.2378855 37.806677 21.964424 255 79 163
40.6836355 37.7057527 21.7046332 255 79 163
39.9972618 37.8561804 21.9804412 255 79 163
40.5299866 37.8354592 21.7277745 255 79 163
40.35206 37.9221791 21.7495122 255 79 163
40.9115772 37.9344968 21.340954 255 79 163
40.1525246 37.9639309 21.7686188 255 79 163
40.851671 38.0539004 21.3538693 255 79 163
40.7708479 38.1556633 21.369793 255 79 163
40.6744862 38.2338202 21.3868434 255 79 163
40.5630968 38.2841604 21.4020295 255 79 163
40.4360269 38.3051889 21.4134695 255 79 163
40.8898319 38.0993619 21.3059065 255 79 163
40.9020393 38.3565635 21.221765 255 79 163
40.8249074 38.6622778 21.1835808 255 79 163
40.8612853 38.8513585 21.1375518 255 79 163
40.9259192 38.21075 21.2390195 255 79 163
40.9293605 38.4932011 21.1726277 255 79 163
40.9071941 38.6572954 21.1555195 255 79 163
40.9126389 38.766691 21.1361669 255 79 163
40.9290264 38.6550878 21.1453843 255 79 163
40.9297625 38.7141516 21.1363818 255 79 163
40.9348487 38.6858701 21.1365916 255 79 163
40.936736 31.1397681 12.3455581 218 222 230
31.0991588 31.1397681 12.3455581 218 222 230
31.0991588 29.227457 9.62270107 218 222 230
40.936736 29.227457 9.62270107 218 222 230
40.936736 29.227457 9.62270107 218 222 230
31.0991588 29.227457 9.62270107 218 222 230
31.0991588 30.6293648 6.60516261 218 222 230
40.936736 30.6293648 6.60516261 218 222 230
40.936736 30.6293648 6.60516261 218 222 230
31.0991588 30.6293648 6.60516261 218 222 230
31.0991588 33.9435837 6.31048115 218 222 230
40.936736 33.9435837 6.31048115 218 222 230
40.936736 33.9435837 6.31048115 218 222 230
31.0991588 33.9435837 6.31048115 218 222 230
31.0991588 35.8558948 9.03333815 218 222 230
40.936736 35.8558948 9.03333815 218 222 230
40.936736 35.8558948 9.03333815 218 222 230
31.0991588 35.8558948 9.03333815 218 222 230
31.0991588 34.453987 12.0508766 218 222 230
40.936736 34.453987 12.0508766 218 222 230
40.936736 34.453987 12.0508766 218 222 230
31.0991588 34.453987 12.0508766 218 222 230
31.0991588 31.1397681 12.3455581 218 222 230
40.936736 31.1397681 12.3455581 218 222 230
31.0991588 31.1397681 12.3455581 218 222 230
31.0991588 29.227457 9.62270107 218 222 230
31.0991588 30.6293648 6.60516261 218 222 230
31.0991588 33.9435837 6.31048115 218 222 230
31.0991588 35.8558948 9.03333815 218 222 230
31.0991588 34.453987 12.0508766 218 222 230
3 40 3 41
3 42 41 3
3 39 3 40
3 43 42 3
3 38 4 3
3 38 3 39
3 16 43 3
3 37 4 38
3 5 35 34
3 5 36 35
3 5 37 36
3 5 4 37
3 6 5 34
3 7 34 33
3 7 6 34
3 8 7 33
3 9 33 32
3 9 8 33
3 10 32 31
3 10 9 32
3 11 10 31
3 12 11 31
3 12 31 30
3 13 12 30
3 14 13 30
3 15 14 30
3 15 29 28
3 15 30 29
3 2 17 16
3 2 18 17
3 2 19 18
3 2 20 19
3 2 21 20
3 2 22 21
3 2 23 22
3 2 24 23
3 2 25 24
3 2 16 3
3 0 1 15
3 0 15 28
3 0 26 25
3 0 27 26
3 0 28 27
3 0 25 2
3 52 49 50
3 52 50 51
3 44 46 47
3 44 47 48
3 44 48 49
3 44 49 52
3 45 44 52
3 53 45 52
3 57 45 53
3 54 55 56
3 54 56 57
3 54 57 53
3 69 58 59
3 69 68 58
3 70 59 60
3 70 69 59
3 71 60 61
3 71 70 60
3 72 61 62
3 72 71 61
3 73 62 63
3 73 72 62
3 74 63 64
3 74 64 65
3 74 73 63
3 67 65 66
3 67 74 65
3 77 76 75
3 78 77 75
3 87 88 95
3 86 94 93
3 86 95 94
3 86 87 95
3 85 93 92
3 85 86 93
3 84 92 91
3 84 85 92
3 83 91 90
3 83 84 91
3 82 90 89
3 82 83 90
3 81 89 79
3 81 82 89
3 80 81 79
3 99 108 98
3 109 108 99
3 100 109 99
3 115 112 111
3 115 113 112
3 115 114 113
3 120 101 102
3 120 102 103
3 121 100 101
3 121 101 120
3 121 109 100
3 121 120 103
3 122 110 109
3 122 109 121
3 123 111 110
3 123 110 122
3 124 115 111
3 124 111 123
3 125 103 104
3 125 104 105
3 126 116 115
3 126 124 116
3 126 115 124
3 127 121 103
3 127 125 105
3 127 103 125
3 128 121 127
3 128 122 121
3 129 123 122
3 129 122 128
3 130 123 129
3 130 124 123
3 130 116 124
3 131 105 106
3 132 117 116
3 132 118 117
3 132 130 118
3 132 116 130
3 133 105 131
3 133 127 105
3 134 128 127
3 134 127 133
3 135 129 128
3 135 128 134
3 136 118 130
3 136 130 129
3 136 135 119
3 136 129 135
3 137 119 118
3 137 136 119
3 137 118 136
3 138 131 106
3 138 133 131
3 139 133 138
3 139 97 96
3 139 96 119
3 139 119 135
3 139 134 133
3 139 135 134
3 140 106 107
3 140 107 97
3 140 138 106
3 140 97 139
3 140 139 138
3 150 157 156
3 151 153 152
3 151 154 153
3 151 155 154
3 151 156 155
3 151 150 156
3 171 151 170
3 172 151 171
3 169 170 151
3 173 151 172
3 168 169 151
3 174 150 151
3 174 151 173
3 158 166 168
3 158 168 151
3 161 159 160
3 163 161 162
3 164 161 163
3 165 161 164
3 165 158 159
3 165 159 161
3 175 150 174
3 167 166 158
3 167 158 165
3 182 150 175
3 181 150 182
3 184 167 165
3 143 150 181
3 143 177 176
3 143 178 177
3 143 179 178
3 143 180 179
3 143 181 180
3 146 144 143
3 146 145 144
3 149 147 146
3 149 148 147
3 149 146 143
3 141 149 143
3 142 143 176
3 142 176 183
3 142 186 185
3 142 187 186
3 142 141 143
3 142 188 187
3 142 189 188
3 142 190 189
3 142 183 190
3 165 142 184
3 184 142 185
3 198 199 200
3 198 200 206
3 197 206 205
3 197 198 206
3 196 205 204
3 196 197 205
3 195 204 203
3 195 196 204
3 194 203 202
3 194 195 203
3 193 202 201
3 193 194 202
3 192 201 191
3 192 193 201
3 210 208 207
3 210 209 208
3 227 212 211
3 227 213 212
3 228 214 213
3 228 213 227
3 229 215 214
3 229 214 228
3 230 216 215
3 230 215 229
3 231 217 216
3 231 218 217
3 231 216 230
3 232 218 231
3 233 219 218
3 233 218 232
3 234 220 219
3 234 219 233
3 235 221 220
3 235 220 234
3 236 222 221
3 236 223 222
3 236 221 235
3 237 223 236
3 238 224 223
3 238 223 237
3 226 225 224
3 226 224 238
3 242 240 239
3 242 241 240
3 259 244 243
3 259 245 244
3 260 246 245
3 260 245 259
3 261 247 246
3 261 246 260
3 262 248 247
3 262 247 261
3 263 249 248
3 263 248 262
3 264 250 249
3 264 251 250
3 264 249 263
3 265 251 264
3 266 252 251
3 266 251 265
3 267 253 252
3 267 252 266
3 268 254 253
3 268 255 254
3 268 253 267
3 269 255 268
3 270 256 255
3 270 255 269
3 258 257 256
3 258 256 270
3 293 271 294
3 295 294 271
3 292 271 293
3 296 295 271
3 291 271 292
3 297 296 271
3 289 271 291
3 298 297 271
3 290 271 289
3 305 298 271
3 304 305 271
3 273 307 308
3 273 308 309
3 273 290 307
3 273 271 290
3 272 299 300
3 272 300 301
3 272 301 302
3 272 302 303
3 272 303 304
3 272 304 271
3 285 272 283
3 285 283 284
3 286 272 285
3 282 286 287
3 282 287 288
3 282 306 299
3 282 299 272
3 282 272 286
3 274 309 310
3 274 310 311
3 274 311 312
3 274 273 309
3 281 306 282
3 281 274 312
3 281 312 313
3 281 313 306
3 276 275 274
3 278 280 279
3 277 281 280
3 277 274 281
3 277 280 278
3 277 276 274
3 331 332 334
3 330 333 322
3 330 334 333
3 330 331 334
3 329 321 320
3 329 322 321
3 329 330 322
3 328 319 318
3 328 320 319
3 328 329 320
3 327 318 317
3 327 328 318
3 326 317 316
3 326 327 317
3 325 316 315
3 325 326 316
3 324 315 314
3 324 325 315
3 323 324 314
3 350 335 336
3 350 351 335
3 349 350 336
3 348 336 337
3 348 349 336
3 347 337 338
3 347 348 337
3 346 338 339
3 346 347 338
3 345 339 340
3 345 346 339
3 344 340 341
3 344 345 340
3 343 341 342
3 343 344 341
3 360 357 358
3 361 356 357
3 361 357 360
3 362 355 356
3 362 356 361
3 363 354 355
3 363 355 362
3 364 352 353
3 364 353 354
3 364 354 363
3 359 352 364
3 366 367 365
3 366 368 367
3 388 371 372
3 388 389 371
3 390 371 389
3 373 387 388
3 373 388 372
3 383 387 373
3 382 387 383
3 381 387 382
3 380 387 381
3 379 385 387
3 379 387 380
3 378 385 379
3 377 385 378
3 376 385 377
3 375 385 376
3 374 385 375
3 369 390 386
3 369 371 390
3 370 374 384
3 370 386 385
3 370 369 386
3 370 385 374
3 398 399 400
3 398 400 406
3 397 405 404
3 397 406 405
3 397 398 406
3 396 397 404
3 395 404 403
3 395 396 404
3 394 403 402
3 394 395 403
3 393 402 401
3 393 394 402
3 392 401 391
3 392 393 401
3 409 407 408
3 409 410 407
3 412 413 411
3 412 414 413
3 424 416 415
3 425 416 424
3 426 417 416
3 426 416 425
3 427 418 417
3 427 419 418
3 427 417 426
3 428 419 427
3 429 420 419
3 429 419 428
3 430 421 420
3 430 420 429
3 423 422 421
3 423 421 430
3 432 433 431
3 432 434 433
3 436 437 435
3 436 438 437
3 446 448 447
3 446 454 448
3 445 453 454
3 445 454 446
3 444 452 453
3 444 453 445
3 443 451 452
3 443 452 444
3 442 449 450
3 442 450 451
3 442 451 443
3 441 449 442
3 440 439 449
3 440 449 441
3 462 464 463
3 462 470 464
3 461 469 470
3 461 470 462
3 460 468 469
3 460 469 461
3 459 467 468
3 459 468 460
3 458 465 466
3 458 466 467
3 458 467 459
3 457 455 465
3 457 465 458
3 456 455 457
3 472 473 471
3 472 474 473
3 495 493 494
3 489 490 491
3 496 491 492
3 496 492 493
3 496 493 495
3 498 496 497
3 500 498 499
3 500 489 491
3 500 491 496
3 500 496 498
3 486 487 488
3 502 488 489
3 502 500 501
3 502 489 500
3 482 483 484
3 482 484 485
3 482 485 486
3 482 486 488
3 475 488 502
3 477 475 476
3 477 481 482
3 477 482 488
3 477 488 475
3 478 479 480
3 478 480 481
3 478 481 477
3 515 505 506
3 507 515 506
3 527 507 508
3 527 508 509
3 527 509 510
3 527 516 515
3 527 515 507
3 528 517 516
3 528 516 527
3 529 518 517
3 529 517 528
3 530 510 511
3 530 511 512
3 530 527 510
3 531 519 518
3 531 518 529
3 532 527 530
3 532 528 527
3 532 530 512
3 533 520 519
3 533 519 531
3 534 528 532
3 534 529 528
3 535 521 520
3 535 522 521
3 535 523 522
3 535 520 533
3 536 531 529
3 536 529 534
3 537 533 531
3 537 531 536
3 538 512 513
3 539 524 523
3 539 537 524
3 539 523 535
3 539 535 533
3 539 533 537
3 540 512 538
3 540 532 512
3 541 534 532
3 541 532 540
3 542 534 541
3 542 536 534
3 543 524 537
3 543 537 536
3 543 536 542
3 544 525 524
3 544 524 543
3 544 543 525
3 545 538 513
3 545 540 538
3 545 541 540
3 546 541 545
3 547 541 546
3 547 526 525
3 547 542 541
3 547 525 543
3 547 543 542
3 548 504 503
3 548 526 547
3 548 503 526
3 549 546 545
3 549 545 513
3 550 513 514
3 550 549 513
3 550 546 549
3 551 547 546
3 551 548 547
3 551 546 550
3 552 504 548
3 552 548 551
3 553 550 514
3 553 551 550
3 553 552 551
3 554 504 552
3 554 552 553
3 555 514 504
3 555 553 514
3 555 504 554
3 555 554 553
3 556 558 557
3 559 558 556
3 563 561 560
3 563 562 561
3 564 566 565
3 567 566 564
3 568 570 569
3 571 570 568
3 575 573 572
3 575 574 573
3 576 578 577
3 579 578 576
3 584 581 582
3 584 582 583
3 585 580 581
3 585 581 584
