ply
format ascii 1.0
comment generated by blendit.inference.finetune_visualize
element vertex 1162
property float x
property float y
property float z
property uchar red
property uchar green
property uchar blue
element face 1380
property list uchar int vertex_indices
end_header
0 0.000169232326 54.7643122 218 222 230
0 59.22457 54.7643122 218 222 230
-1.55631367e-18 59.3973105 54.743789 218 222 230
3.23753524e-17 59.560405 54.6833816 218 222 230
7.53563227e-18 59.7047827 54.5865253 218 222 230
6.39488462e-18 59.822481 54.4586787 218 222 230
1.86008435e-17 59.9070801 54.3069741 218 222 230
-1.38929285e-17 59.9489444 54.1683547 218 222 230
0 59.9630709 54.0242694 218 222 230
0 59.9630709 42.3179244 218 222 230
1.66048816e-18 59.9581178 42.2794077 218 222 230
3.02506531e-18 59.944739 42.2430163 218 222 230
4.11443988e-18 59.9250611 42.2095353 218 222 230
5.17463872e-18 59.8920633 42.169546 218 222 230
6.02400002e-18 59.8336781 42.1182705 218 222 230
5.95881703e-18 59.734754 42.056603 218 222 230
3.95439228e-18 59.5730394 41.9902523 218 222 230
1.31379137e-18 59.4008248 41.9499326 218 222 230
0 59.22457 41.935954 218 222 230
0 0.369250472 41.935954 218 222 230
0 0 41.5667035 218 222 230
0 0.00925788027 41.6488695 218 222 230
0 0.0365672923 41.7269153 218 222 230
0 0.0805588281 41.7969274 218 222 230
0 0.139026569 41.8553952 218 222 230
0 0.209038697 41.8993867 218 222 230
0 0.287084512 41.9266961 218 222 230
0 0 0.369250472 218 222 230
0 0.00925788027 0.287084512 218 222 230
0 0.0365672923 0.209038697 218 222 230
0 0.0805588281 0.139026569 218 222 230
0 0.139026569 0.0805588281 218 222 230
0 0.209038697 0.0365672923 218 222 230
0 0.287084512 0.00925788027 218 222 230
0 0.369250472 0 218 222 230
0 77.159876 0 218 222 230
0 77.5291265 0.369250472 218 222 230
0 77.5198686 0.287084512 218 222 230
0 77.4925592 0.209038697 218 222 230
0 77.4485677 0.139026569 218 222 230
0 77.3900999 0.0805588281 218 222 230
0 77.3200878 0.0365672923 218 222 230
0 77.242042 0.00925788027 218 222 230
0 77.5291265 93.3434476 218 222 230
0 0 93.3434476 218 222 230
0 0 54.7754903 218 222 230
70.8335189 0 0.369250472 218 222 230
70.8335189 0 93.3434476 218 222 230
0 0 0.369250472 218 222 230
0 0 41.5667035 218 222 230
1.35835532 0 41.7197534 218 222 230
2.64859702 0 42.1712285 218 222 230
3.80602702 0 42.89849 218 222 230
4.77260693 0 43.8650699 218 222 230
5.49986839 0 45.0224999 218 222 230
5.95134349 0 46.3127416 218 222 230
6.10439338 0 47.6710969 218 222 230
6.10439338 0 48.6710969 218 222 230
5.95134349 0 50.0294522 218 222 230
5.49986839 0 51.3196939 218 222 230
4.77260693 0 52.4771239 218 222 230
3.80602702 0 53.4437038 218 222 230
2.64859702 0 54.1709653 218 222 230
1.35835532 0 54.6224404 218 222 230
0 0 54.7754903 218 222 230
0 0 93.3434476 218 222 230
23.0297944 0 85.5967547 218 222 230
23.1805173 0 83.8492297 218 222 230
25.3798496 0 85.4431756 218 222 230
23.4996435 0 85.9833777 218 222 230
23.0329148 0 85.6858687 218 222 230
23.0573065 0 85.7716362 218 222 230
23.101547 0 85.8490559 218 222 230
23.1630566 0 85.9136129 218 222 230
23.2382481 0 85.9615426 218 222 230
23.3227369 0 85.99005 218 222 230
23.411596 0 85.9974726 218 222 230
47.2760861 0 35.5666749 218 222 230
47.5287937 0 35.2194228 218 222 230
52.7211162 0 47.3065146 218 222 230
52.290624 0 47.2399059 218 222 230
40.1482906 0 45.3611623 218 222 230
0 0 0.369250472 218 222 230
0 0.00925788027 0.287084512 218 222 230
0 0.0365672923 0.209038697 218 222 230
0 0.0805588281 0.139026569 218 222 230
0 0.139026569 0.0805588281 218 222 230
0 0.209038697 0.0365672923 218 222 230
0 0.287084512 0.00925788027 218 222 230
0 0.369250472 0 218 222 230
70.8335189 0.369250472 0 218 222 230
70.8335189 0 0.369250472 218 222 230
70.8335189 0.00925788027 0.287084512 218 222 230
70.8335189 0.0365672923 0.209038697 218 222 230
70.8335189 0.0805588281 0.139026569 218 222 230
70.8335189 0.139026569 0.0805588281 218 222 230
70.8335189 0.209038697 0.0365672923 218 222 230
70.8335189 0.287084512 0.00925788027 218 222 230
0 0 41.5667035 255 79 163
0 0.00925788027 41.6488695 255 79 163
0 0.0365672923 41.7269153 255 79 163
0 0.0805588281 41.7969274 255 79 163
0 0.139026569 41.8553952 255 79 163
0 0.209038697 41.8993867 255 79 163
0 0.287084512 41.9266961 255 79 163
0 0.369250472 41.935954 255 79 163
1.35835532 0 41.7197534 255 79 163
2.64859702 0 42.1712285 255 79 163
3.80602702 0 42.89849 255 79 163
4.77260693 0 43.8650699 255 79 163
5.49986839 0 45.0224999 255 79 163
5.95134349 0 46.3127416 255 79 163
6.10439338 0 47.6710969 255 79 163
6.02222742 0.00925788027 47.6710969 255 79 163
5.9441816 0.0365672923 47.6710969 255 79 163
5.87416948 0.0805588281 47.6710969 255 79 163
5.81570174 0.139026569 47.6710969 255 79 163
5.7717102 0.209038697 47.6710969 255 79 163
5.74440079 0.287084512 47.6710969 255 79 163
5.73514291 0.369250472 47.6710969 255 79 163
1.27618936 0.369250472 42.079746 255 79 163
2.48838525 0.369250472 42.5039117 255 79 163
3.57580311 0.369250472 43.1871816 255 79 163
4.48391528 0.369250472 44.0952938 255 79 163
5.16718521 0.369250472 45.1827117 255 79 163
5.5913509 0.369250472 46.3949075 255 79 163
1.34007167 0.00925788027 41.7998593 255 79 163
1.32270484 0.0365672923 41.8759483 255 79 163
1.30712568 0.0805588281 41.9442051 255 79 163
1.29411538 0.139026569 42.001207 255 79 163
1.28432634 0.209038697 42.0440955 255 79 163
1.27824943 0.287084512 42.0707202 255 79 163
2.61294655 0.00925788027 42.2452575 255 79 163
2.57908374 0.0365672923 42.3155743 255 79 163
2.54870662 0.0805588281 42.3786531 255 79 163
2.52333841 0.139026569 42.4313307 255 79 163
2.5042512 0.209038697 42.4709657 255 79 163
2.49240209 0.287084512 42.4955706 255 79 163
3.75479738 0.00925788027 42.9627299 255 79 163
3.70613661 0.0365672923 43.0237486 255 79 163
3.66248476 0.0805588281 43.0784863 255 79 163
3.62603072 0.139026569 43.1241982 255 79 163
3.59860245 0.209038697 43.1585922 255 79 163
3.58157531 0.287084512 43.1799435 255 79 163
4.70836699 0.00925788027 43.9162995 255 79 163
4.64734832 0.0365672923 43.9649603 255 79 163
4.59261063 0.0805588281 44.0086121 255 79 163
4.54689871 0.139026569 44.0450662 255 79 163
4.51250474 0.209038697 44.0724945 255 79 163
4.49115338 0.287084512 44.0895216 255 79 163
5.42583942 0.00925788027 45.0581504 255 79 163
5.35552257 0.0365672923 45.0920132 255 79 163
5.29244382 0.0805588281 45.1223903 255 79 163
5.23976621 0.139026569 45.1477585 255 79 163
5.2001312 0.209038697 45.1668457 255 79 163
5.17552627 0.287084512 45.1786948 255 79 163
5.8712376 0.00925788027 46.3310252 255 79 163
5.79514856 0.0365672923 46.3483921 255 79 163
5.72689178 0.0805588281 46.3639712 255 79 163
5.66988995 0.139026569 46.3769815 255 79 163
5.62700137 0.209038697 46.3867706 255 79 163
5.60037667 0.287084512 46.3928475 255 79 163
0 0.369250472 0 218 222 230
0 77.159876 0 218 222 230
70.8335189 0.369250472 0 218 222 230
70.8335189 77.159876 0 218 222 230
0 0.369250472 41.935954 218 222 230
0 59.22457 41.935954 218 222 230
1.27618936 59.22457 42.079746 218 222 230
2.48838525 59.22457 42.5039117 218 222 230
3.57580311 59.22457 43.1871816 218 222 230
4.48391528 59.22457 44.0952938 218 222 230
5.16718521 59.22457 45.1827117 218 222 230
5.5913509 59.22457 46.3949075 218 222 230
5.73514291 59.22457 47.6710969 218 222 230
5.73514291 0.369250472 47.6710969 218 222 230
1.27618936 0.369250472 42.079746 218 222 230
2.48838525 0.369250472 42.5039117 218 222 230
3.57580311 0.369250472 43.1871816 218 222 230
4.48391528 0.369250472 44.0952938 218 222 230
5.16718521 0.369250472 45.1827117 218 222 230
5.5913509 0.369250472 46.3949075 218 222 230
0 77.5291265 0.369250472 218 222 230
70.8335189 77.5291265 0.369250472 218 222 230
70.8335189 77.5198686 0.287084512 218 222 230
70.8335189 77.4925592 0.209038697 218 222 230
70.8335189 77.4485677 0.139026569 218 222 230
70.8335189 77.3900999 0.0805588281 218 222 230
70.8335189 77.3200878 0.0365672923 218 222 230
70.8335189 77.242042 0.00925788027 218 222 230
70.8335189 77.159876 0 218 222 230
0 77.159876 0 218 222 230
0 77.5198686 0.287084512 218 222 230
0 77.4925592 0.209038697 218 222 230
0 77.4485677 0.139026569 218 222 230
0 77.3900999 0.0805588281 218 222 230
0 77.3200878 0.0365672923 218 222 230
0 77.242042 0.00925788027 218 222 230
0 59.22457 41.935954 255 79 163
0 59.22457 41.935954 255 79 163
0 59.9630709 42.3179244 255 79 163
1.66048816e-18 59.9581178 42.2794077 255 79 163
3.02506531e-18 59.944739 42.2430163 255 79 163
4.11443988e-18 59.9250611 42.2095353 255 79 163
5.17463872e-18 59.8920633 42.169546 255 79 163
6.02400002e-18 59.8336781 42.1182705 255 79 163
5.95881703e-18 59.734754 42.056603 255 79 163
3.95439228e-18 59.5730394 41.9902523 255 79 163
1.31379137e-18 59.4008248 41.9499326 255 79 163
0.0102019935 59.8768716 42.3179244 255 79 163
0.0402460638 59.7954345 42.3179244 255 79 163
0.0884704233 59.7232617 42.3179244 255 79 163
0.152210162 59.6643413 42.3179244 255 79 163
0.227944474 59.6219279 42.3179244 255 79 163
0.297213742 59.6009151 42.3179244 255 79 163
0.369250472 59.5938204 42.3179244 255 79 163
0.312679127 59.5809812 42.2176368 255 79 163
0.253829752 59.5436051 42.1251002 255 79 163
0.192732105 59.4845776 42.0463187 255 79 163
0.129687118 59.4081157 41.9862842 255 79 163
0.0652210613 59.3194834 41.9487325 255 79 163
0.0115324307 59.7784656 42.1389604 255 79 163
0.0245114197 59.7433531 42.1421819 255 79 163
0.0414220803 59.710284 42.145453 255 79 163
0.0618916343 59.6798166 42.1487524 255 79 163
0.085686847 59.6523926 42.1520486 255 79 163
0.142565856 59.6079089 42.1584863 255 79 163
0.21008725 59.5784973 42.1645057 255 79 163
0.0642336514 59.5607255 42.0528729 255 79 163
0.0531204351 59.5073731 42.0154669 255 79 163
0.0434073609 59.4586275 41.989108 255 79 163
0.031642753 59.397465 41.9644249 255 79 163
0.0217070507 59.3442165 41.9494839 255 79 163
0.0197228792 59.6378822 42.0545865 255 79 163
0.0181681157 59.605963 42.0352087 255 79 163
0.014848883 59.5391257 42.0016934 255 79 163
0.0133780932 59.5097209 41.9895347 255 79 163
0.0116023029 59.4740477 41.9766619 255 79 163
0.00807655554 59.4008847 41.9561415 255 79 163
0.00665285282 59.3695705 41.9496134 255 79 163
0.00189161797 59.3846309 41.949789 255 79 163
70.8335189 77.5291265 0.369250472 218 222 230
70.8335189 77.5291265 93.712698 218 222 230
0 77.5291265 0.369250472 218 222 230
0 77.5291265 93.3434476 218 222 230
0.00925788027 77.5291265 93.4256135 218 222 230
0.0365672923 77.5291265 93.5036593 218 222 230
0.0805588281 77.5291265 93.5736715 218 222 230
0.139026569 77.5291265 93.6321392 218 222 230
0.209038697 77.5291265 93.6761307 218 222 230
0.287084512 77.5291265 93.7034401 218 222 230
0.369250472 77.5291265 93.712698 218 222 230
23.4996435 77.5291265 85.9833777 218 222 230
25.3798496 77.5291265 85.4431756 218 222 230
23.0297944 77.5291265 85.5967547 218 222 230
23.0329148 77.5291265 85.6858687 218 222 230
23.0573065 77.5291265 85.7716362 218 222 230
23.101547 77.5291265 85.8490559 218 222 230
23.1630566 77.5291265 85.9136129 218 222 230
23.2382481 77.5291265 85.9615426 218 222 230
23.3227369 77.5291265 85.99005 218 222 230
23.411596 77.5291265 85.9974726 218 222 230
23.1805173 77.5291265 83.8492297 218 222 230
40.1482906 77.5291265 45.3611623 218 222 230
39.9038953 77.5291265 45.6969921 218 222 230
47.2760861 77.5291265 35.5666749 218 222 230
52.290624 77.5291265 47.2399059 218 222 230
52.4625607 77.5291265 47.6401534 218 222 230
0 59.9630709 54.0242694 255 79 163
0 59.9630709 42.3179244 255 79 163
0.0102019935 59.8768716 42.3179244 255 79 163
0.0402460638 59.7954345 42.3179244 255 79 163
0.0884704233 59.7232617 42.3179244 255 79 163
0.152210162 59.6643413 42.3179244 255 79 163
0.227944474 59.6219279 42.3179244 255 79 163
0.297213742 59.6009151 42.3179244 255 79 163
0.369250472 59.5938204 42.3179244 255 79 163
0.369250472 59.5938204 54.0242694 255 79 163
0.0111653629 59.8729545 54.0242694 255 79 163
0.0424024533 59.7912679 54.0242694 255 79 163
0.0881111201 59.723683 54.0242694 255 79 163
0.14812905 59.6673494 54.0242694 255 79 163
0.217951583 59.6262407 54.0242694 255 79 163
0.291986759 59.6019944 54.0242694 255 79 163
0.331125954 59.5957939 54.0242694 255 79 163
0 0 93.3434476 255 79 163
0.00543375876 0.00543375876 93.406561 255 79 163
0.0215751125 0.0215751125 93.467817 255 79 163
0.0479490004 0.0479490004 93.5254126 255 79 163
0.0837792049 0.0837792049 93.5776527 255 79 163
0.128011197 0.128011197 93.6229999 255 79 163
0.179343172 0.179343172 93.6601195 255 79 163
0.256194403 0.256194403 93.6949646 255 79 163
0.312031269 0.312031269 93.7082377 255 79 163
0.369250472 0.369250472 93.712698 255 79 163
0.369250472 77.5291265 93.712698 255 79 163
0 77.5291265 93.3434476 255 79 163
0.00925788027 77.5291265 93.4256135 255 79 163
0.0365672923 77.5291265 93.5036593 255 79 163
0.0805588281 77.5291265 93.5736715 255 79 163
0.139026569 77.5291265 93.6321392 255 79 163
0.209038697 77.5291265 93.6761307 255 79 163
0.287084512 77.5291265 93.7034401 255 79 163
0 59.22457 54.7643122 255 79 163
0.0104235611 59.22457 54.6771964 255 79 163
0.0394258205 59.22457 54.5982953 255 79 163
0.0817828617 59.22457 54.5325617 255 79 163
0.137530625 59.22457 54.4768199 255 79 163
0.202821936 59.22457 54.4346951 255 79 163
0.27280355 59.22457 54.40788 255 79 163
0.310191364 59.22457 54.3998154 255 79 163
0.34691477 59.22457 54.3957379 255 79 163
0.347465399 59.3112613 54.3853664 255 79 163
0.349105848 59.3930183 54.354867 255 79 163
0.351800806 59.4652413 54.3060588 255 79 163
0.355486342 59.5239591 54.2417895 255 79 163
0.360062665 59.5660427 54.1657118 255 79 163
0.364453759 59.5868189 54.0963236 255 79 163
0.369250472 59.5938204 54.0242694 255 79 163
0 59.9630709 54.0242694 255 79 163
0.0111653629 59.8729545 54.0242694 255 79 163
0.0424024533 59.7912679 54.0242694 255 79 163
0.0881111201 59.723683 54.0242694 255 79 163
0.14812905 59.6673494 54.0242694 255 79 163
0.217951583 59.6262407 54.0242694 255 79 163
0.291986759 59.6019944 54.0242694 255 79 163
0.331125954 59.5957939 54.0242694 255 79 163
-1.55631367e-18 59.3973105 54.743789 255 79 163
3.23753524e-17 59.560405 54.6833816 255 79 163
7.53563227e-18 59.7047827 54.5865253 255 79 163
6.39488462e-18 59.822481 54.4586787 255 79 163
1.86008435e-17 59.9070801 54.3069741 255 79 163
-1.38929285e-17 59.9489444 54.1683547 255 79 163
0.100603426 59.3505154 54.4943079 255 79 163
0.102440892 59.5668348 54.3665343 255 79 163
0.105928895 59.6879783 54.1484372 255 79 163
0 0.000169232326 54.7643122 255 79 163
0 59.22457 54.7643122 255 79 163
0.0104235611 59.22457 54.6771964 255 79 163
0.0394258205 59.22457 54.5982953 255 79 163
0.0817828617 59.22457 54.5325617 255 79 163
0.137530625 59.22457 54.4768199 255 79 163
0.202821936 59.22457 54.4346951 255 79 163
0.27280355 59.22457 54.40788 255 79 163
0.310191364 59.22457 54.3998154 255 79 163
0.34691477 59.22457 54.3957379 255 79 163
0.34691477 0.369250472 54.3957379 255 79 163
0.232300571 0.249819803 54.4213973 255 79 163
0.139631206 0.152130159 54.4751394 255 79 163
0.071468588 0.0796520753 54.5459733 255 79 163
0.0309588338 0.0360340658 54.6163099 255 79 163
0.00942577914 0.0121832981 54.6814141 255 79 163
0.00237275543 0.00381918363 54.7225192 255 79 163
0.34691477 0.369250472 54.3957379 255 79 163
0.232300571 0.249819803 54.4213973 255 79 163
0.139631206 0.152130159 54.4751394 255 79 163
0.071468588 0.0796520753 54.5459733 255 79 163
0.0309588338 0.0360340658 54.6163099 255 79 163
0.00942577914 0.0121832981 54.6814141 255 79 163
0.00237275543 0.00381918363 54.7225192 255 79 163
0 0.000169232326 54.7643122 255 79 163
5.73514291 0.369250472 48.6710969 255 79 163
5.60217646 0.369250472 49.8988929 255 79 163
5.20944263 0.369250472 51.0697573 255 79 163
4.5751521 0.369250472 52.1293981 255 79 163
3.72871629 0.369250472 53.028681 255 79 163
2.7093836 0.369250472 53.725907 255 79 163
1.56441948 0.369250472 54.1887464 255 79 163
6.10439338 0 48.6710969 255 79 163
6.02222742 0.00925788027 48.6710969 255 79 163
5.9441816 0.0365672923 48.6710969 255 79 163
5.87416948 0.0805588281 48.6710969 255 79 163
5.81570174 0.139026569 48.6710969 255 79 163
5.7717102 0.209038697 48.6710969 255 79 163
5.74440079 0.287084512 48.6710969 255 79 163
5.95134349 0 50.0294522 255 79 163
5.49986839 0 51.3196939 255 79 163
4.77260693 0 52.4771239 255 79 163
3.80602702 0 53.4437038 255 79 163
2.64859702 0 54.1709653 255 79 163
1.35835532 0 54.6224404 255 79 163
0 0 54.7754903 255 79 163
5.88260506 0.00925788027 49.9603528 255 79 163
5.80745491 0.0360340672 49.9438826 255 79 163
5.73909494 0.0796520752 49.9289006 255 79 163
5.68086757 0.139026569 49.9161392 255 79 163
5.63789595 0.209038697 49.9067214 255 79 163
5.6112197 0.287084512 49.9008749 255 79 163
5.40033028 0.0360340672 51.1576505 255 79 163
5.33676261 0.0796520752 51.1283811 255 79 163
5.28261719 0.139026569 51.1034501 255 79 163
5.24265805 0.209038697 51.0850512 255 79 163
5.2178519 0.287084512 51.0736293 255 79 163
4.74279769 0.0360340672 52.2561194 255 79 163
4.68696987 0.0796520752 52.2139198 255 79 163
4.63941709 0.139026569 52.1779753 255 79 163
4.60432328 0.209038697 52.1514483 255 79 163
4.58253748 0.287084512 52.1349807 255 79 163
3.86534625 0.0360340672 53.1883543 255 79 163
3.81984698 0.0796520752 53.1351813 255 79 163
3.7810918 0.139026569 53.0898899 255 79 163
3.7524906 0.209038697 53.056465 255 79 163
3.73473533 0.287084512 53.0357152 255 79 163
2.77560157 0.0796520752 53.8494477 255 79 163
2.74744103 0.139026569 53.7969095 255 79 163
2.72665864 0.209038697 53.7581364 255 79 163
2.71375719 0.287084512 53.7340666 255 79 163
1.60265425 0.0796520752 54.323599 255 79 163
1.58639414 0.139026569 54.2662502 255 79 163
1.34007167 0.00925788027 54.5423345 255 79 163
1.57439422 0.209038697 54.2239269 255 79 163
1.32295229 0.0360340672 54.4673296 255 79 163
1.56694482 0.287084512 54.1976532 255 79 163
1.30737972 0.0796520752 54.3991017 255 79 163
1.29411538 0.139026569 54.3409869 255 79 163
1.28432634 0.209038697 54.2980983 255 79 163
1.27824943 0.287084512 54.2714736 255 79 163
0.359626639 0.0360340672 54.6055038 255 79 163
0.355393447 0.0796520752 54.5356494 255 79 163
0.351787717 0.139026569 54.4761492 255 79 163
0.3491267 0.209038697 54.4322382 255 79 163
0.347474773 0.287084512 54.4049788 255 79 163
70.8335189 0 0.369250472 218 222 230
70.8335189 0 93.3434476 218 222 230
70.8335189 0.00925788027 0.287084512 218 222 230
70.8335189 0.0365672923 0.209038697 218 222 230
70.8335189 0.0805588281 0.139026569 218 222 230
70.8335189 0.139026569 0.0805588281 218 222 230
70.8335189 0.209038697 0.0365672923 218 222 230
70.8335189 0.287084512 0.00925788027 218 222 230
70.8335189 0.369250472 0 218 222 230
70.8335189 77.159876 0 218 222 230
70.8335189 77.5291265 0.369250472 218 222 230
70.8335189 77.5198686 0.287084512 218 222 230
70.8335189 77.4925592 0.209038697 218 222 230
70.8335189 77.4485677 0.139026569 218 222 230
70.8335189 77.3900999 0.0805588281 218 222 230
70.8335189 77.3200878 0.0365672923 218 222 230
70.8335189 77.242042 0.00925788027 218 222 230
70.8335189 77.5291265 93.712698 218 222 230
70.8335189 0.369250472 93.712698 218 222 230
70.8335189 0.00925788027 93.4256135 218 222 230
70.8335189 0.0365672923 93.5036593 218 222 230
70.8335189 0.0805588281 93.5736715 218 222 230
70.8335189 0.139026569 93.6321392 218 222 230
70.8335189 0.209038697 93.6761307 218 222 230
70.8335189 0.287084512 93.7034401 218 222 230
70.8335189 34.2721785 30.1520316 218 222 230
70.8335189 58.9420866 19.4275646 218 222 230
70.8335189 56.8739141 44.5598697 218 222 230
70.8335189 58.0068875 43.9978395 218 222 230
70.8335189 57.9740185 44.1629408 218 222 230
70.8335189 57.9046139 44.316309 218 222 230
70.8335189 57.80228 44.4499749 218 222 230
70.8335189 57.6723341 44.5569931 218 222 230
70.8335189 57.5215285 44.6318027 218 222 230
70.8335189 57.3576992 44.6705166 218 222 230
70.8335189 57.1893589 44.6711231 218 222 230
70.8335189 57.0252549 44.6335907 218 222 230
70.8335189 59.9725116 20.165541 218 222 230
70.8335189 59.9670514 19.9967057 218 222 230
70.8335189 59.9233683 19.833528 218 222 230
70.8335189 59.8437479 19.6845455 218 222 230
70.8335189 59.732356 19.5575533 218 222 230
70.8335189 59.5950208 19.4591957 218 222 230
70.8335189 59.4389279 19.3946189 218 222 230
70.8335189 59.2722441 19.3672017 218 222 230
70.8335189 59.1036907 19.3783785 218 222 230
0 0 93.3434476 255 79 163
70.8335189 0 93.3434476 255 79 163
70.8335189 0.00925788027 93.4256135 255 79 163
70.8335189 0.0365672923 93.5036593 255 79 163
70.8335189 0.0805588281 93.5736715 255 79 163
70.8335189 0.139026569 93.6321392 255 79 163
70.8335189 0.209038697 93.6761307 255 79 163
70.8335189 0.287084512 93.7034401 255 79 163
70.8335189 0.369250472 93.712698 255 79 163
0.369250472 0.369250472 93.712698 255 79 163
0.00543375876 0.00543375876 93.406561 255 79 163
0.0215751125 0.0215751125 93.467817 255 79 163
0.0479490004 0.0479490004 93.5254126 255 79 163
0.0837792049 0.0837792049 93.5776527 255 79 163
0.128011197 0.128011197 93.6229999 255 79 163
0.179343172 0.179343172 93.6601195 255 79 163
0.256194403 0.256194403 93.6949646 255 79 163
0.312031269 0.312031269 93.7082377 255 79 163
6.10439338 0 47.6710969 255 79 163
6.10439338 0 48.6710969 255 79 163
6.02222742 0.00925788027 48.6710969 255 79 163
5.9441816 0.0365672923 48.6710969 255 79 163
5.87416948 0.0805588281 48.6710969 255 79 163
5.81570174 0.139026569 48.6710969 255 79 163
5.7717102 0.209038697 48.6710969 255 79 163
5.74440079 0.287084512 48.6710969 255 79 163
5.73514291 0.369250472 48.6710969 255 79 163
5.73514291 0.369250472 47.6710969 255 79 163
6.02222742 0.00925788027 47.6710969 255 79 163
5.9441816 0.0365672923 47.6710969 255 79 163
5.87416948 0.0805588281 47.6710969 255 79 163
5.81570174 0.139026569 47.6710969 255 79 163
5.7717102 0.209038697 47.6710969 255 79 163
5.74440079 0.287084512 47.6710969 255 79 163
23.0297944 0 85.5967547 218 222 230
23.1805173 0 83.8492297 218 222 230
23.0297944 77.5291265 85.5967547 218 222 230
23.1805173 77.5291265 83.8492297 218 222 230
23.0297944 0 85.5967547 218 222 230
23.0329148 0 85.6858687 218 222 230
23.0573065 0 85.7716362 218 222 230
23.101547 0 85.8490559 218 222 230
23.1630566 0 85.9136129 218 222 230
23.2382481 0 85.9615426 218 222 230
23.3227369 0 85.99005 218 222 230
23.411596 0 85.9974726 218 222 230
23.4996435 0 85.9833777 218 222 230
23.4996435 77.5291265 85.9833777 218 222 230
23.0297944 77.5291265 85.5967547 218 222 230
23.0329148 77.5291265 85.6858687 218 222 230
23.0573065 77.5291265 85.7716362 218 222 230
23.101547 77.5291265 85.8490559 218 222 230
23.1630566 77.5291265 85.9136129 218 222 230
23.2382481 77.5291265 85.9615426 218 222 230
23.3227369 77.5291265 85.99005 218 222 230
23.411596 77.5291265 85.9974726 218 222 230
23.1805173 0 83.8492297 218 222 230
25.3798496 0 85.4431756 218 222 230
23.1805173 77.5291265 83.8492297 218 222 230
25.3798496 77.5291265 85.4431756 218 222 230
25.3798496 0 85.4431756 218 222 230
23.4996435 0 85.9833777 218 222 230
25.3798496 77.5291265 85.4431756 218 222 230
23.4996435 77.5291265 85.9833777 218 222 230
47.2760861 0.369250472 35.5666749 218 222 230
47.2760861 77.5291265 35.5666749 218 222 230
47.5287937 0 35.2194228 218 222 230
47.4633882 0.0125819047 35.3092983 218 222 230
47.4024399 0.0494701829 35.3930489 218 222 230
47.3501024 0.108150959 35.4649671 218 222 230
47.313325 0.176317631 35.5155039 218 222 230
47.290361 0.246903801 35.5470594 218 222 230
47.2796804 0.307194508 35.5617359 218 222 230
47.2760861 0 35.5666749 218 222 230
40.1482906 0 45.3611623 218 222 230
40.1482906 77.159876 45.3611623 218 222 230
39.9038953 77.5291265 45.6969921 218 222 230
39.9671494 77.5165446 45.6100729 218 222 230
40.0260929 77.4796563 45.5290772 218 222 230
40.0721259 77.4277209 45.4658221 218 222 230
40.1056695 77.3682244 45.4197289 218 222 230
40.1301737 77.2993939 45.3860571 218 222 230
40.1437186 77.2309649 45.3674447 218 222 230
40.1482906 77.5291265 45.3611623 218 222 230
47.5287937 0 35.2194228 255 79 163
52.7211162 0 47.3065146 255 79 163
52.6096967 0.0125819047 47.289275 255 79 163
52.5058701 0.0494701829 47.2732102 255 79 163
52.4167123 0.108150959 47.2594151 255 79 163
52.3540613 0.176317631 47.2497213 255 79 163
52.3149416 0.246903801 47.2436685 255 79 163
52.2967469 0.307194508 47.2408533 255 79 163
52.290624 0.369250472 47.2399059 255 79 163
47.2760861 0.369250472 35.5666749 255 79 163
47.4633882 0.0125819047 35.3092983 255 79 163
47.4024399 0.0494701829 35.3930489 255 79 163
47.3501024 0.108150959 35.4649671 255 79 163
47.313325 0.176317631 35.5155039 255 79 163
47.290361 0.246903801 35.5470594 255 79 163
47.2796804 0.307194508 35.5617359 255 79 163
40.1482906 0 45.3611623 218 222 230
40.1482906 77.159876 45.3611623 218 222 230
52.290624 0 47.2399059 218 222 230
52.7211162 0 47.3065146 218 222 230
52.6096967 0.0125819047 47.289275 218 222 230
52.5058701 0.0494701829 47.2732102 218 222 230
52.4167123 0.108150959 47.2594151 218 222 230
52.3540613 0.176317631 47.2497213 218 222 230
52.3149416 0.246903801 47.2436685 218 222 230
52.2967469 0.307194508 47.2408533 218 222 230
52.290624 0.369250472 47.2399059 218 222 230
52.290624 77.159876 47.2399059 218 222 230
0.369250472 59.5938204 42.3179244 255 79 163
0.312679127 59.5809812 42.2176368 255 79 163
0.253829752 59.5436051 42.1251002 255 79 163
0.192732105 59.4845776 42.0463187 255 79 163
0.129687118 59.4081157 41.9862842 255 79 163
0.0652210613 59.3194834 41.9487325 255 79 163
0 59.22457 41.935954 255 79 163
1.50057348 59.5938204 42.5192933 255 79 163
2.56308001 59.5938204 42.9569244 255 79 163
3.50804341 59.5938204 43.610748 255 79 163
4.29212753 59.5938204 44.4507797 255 79 163
4.8793742 59.5938204 45.4384955 255 79 163
5.24285222 59.5938204 46.5285987 255 79 163
5.36589243 59.5938204 47.6710969 255 79 163
5.44805839 59.5845626 47.6710969 255 79 163
5.52610421 59.5572531 47.6710969 255 79 163
5.59611634 59.5132616 47.6710969 255 79 163
5.65458408 59.4547939 47.6710969 255 79 163
5.69857561 59.3847817 47.6710969 255 79 163
5.72588503 59.3067359 47.6710969 255 79 163
5.73514291 59.22457 47.6710969 255 79 163
1.27618936 59.22457 42.079746 255 79 163
2.48838525 59.22457 42.5039117 255 79 163
3.57580311 59.22457 43.1871816 255 79 163
4.48391528 59.22457 44.0952938 255 79 163
5.16718521 59.22457 45.1827117 255 79 163
5.5913509 59.22457 46.3949075 255 79 163
0.316324635 59.5572531 42.1540536 255 79 163
0.320332261 59.5132616 42.0841563 255 79 163
0.323679065 59.4547939 42.0257844 255 79 163
0.326197224 59.3847817 41.981865 255 79 163
0.327580236 59.3194818 41.9577438 255 79 163
1.24525303 59.5132616 42.2152869 255 79 163
1.25826333 59.4547939 42.1582851 255 79 163
1.52355121 59.5845626 42.4404056 255 79 163
1.26805237 59.3847817 42.1153965 255 79 163
1.27342866 59.3194818 42.0918414 255 79 163
1.54537675 59.5572531 42.3654736 255 79 163
1.56495566 59.5132616 42.2982548 255 79 163
1.58130618 59.4547939 42.2421199 255 79 163
1.59360843 59.3847817 42.1998835 255 79 163
1.60036502 59.3194818 42.1766866 255 79 163
2.36382395 59.5845626 42.7625659 255 79 163
2.39768676 59.5572531 42.6922491 255 79 163
2.42806388 59.5132616 42.6291703 255 79 163
2.45343208 59.4547939 42.5764927 255 79 163
2.60232752 59.5845626 42.884738 255 79 163
2.4725193 59.3847817 42.5368577 255 79 163
2.639607 59.5572531 42.8161713 255 79 163
2.48300229 59.3194818 42.5150895 255 79 163
2.6730491 59.5132616 42.7546626 255 79 163
2.70097688 59.4547939 42.7032961 255 79 163
2.72198994 59.3847817 42.6646476 255 79 163
2.73353065 59.3194818 42.6434212 255 79 163
3.39680885 59.5845626 43.4116333 255 79 163
3.44546962 59.5572531 43.3506147 255 79 163
3.48912147 59.5132616 43.295877 255 79 163
3.52557551 59.4547939 43.2501651 255 79 163
3.55300378 59.3847817 43.2157711 255 79 163
3.56806782 59.3194818 43.1968814 255 79 163
4.32048225 59.5572531 44.2256273 255 79 163
4.37521993 59.5132616 44.1819754 255 79 163
4.42093185 59.4547939 44.1455214 255 79 163
4.45532582 59.3847817 44.1180931 255 79 163
4.47421553 59.3194818 44.1030291 255 79 163
4.97884785 59.5572531 45.2734101 255 79 163
5.0419266 59.5132616 45.243033 255 79 163
5.09460422 59.4547939 45.2176648 255 79 163
5.13423922 59.3847817 45.1985776 255 79 163
5.15600739 59.3194818 45.1880946 255 79 163
5.3114642 59.5845626 46.4587899 255 79 163
5.38755324 59.5572531 46.441423 255 79 163
5.45581002 59.5132616 46.4258439 255 79 163
5.51281185 59.4547939 46.4128336 255 79 163
5.55570043 59.3847817 46.4030445 255 79 163
5.57925551 59.3194818 46.3976682 255 79 163
5.73514291 0.369250472 47.6710969 218 222 230
5.73514291 59.22457 47.6710969 218 222 230
5.73514291 59.22457 48.6710969 218 222 230
5.73514291 0.369250472 48.6710969 218 222 230
0.369250472 77.5291265 93.712698 218 222 230
70.8335189 77.5291265 93.712698 218 222 230
0.369250472 0.369250472 93.712698 218 222 230
70.8335189 0.369250472 93.712698 218 222 230
39.9038953 77.5291265 45.6969921 255 79 163
52.4625607 77.5291265 47.6401534 255 79 163
52.4180602 77.5165446 47.5365617 255 79 163
52.3765923 77.4796563 47.4400297 255 79 163
52.3409831 77.4209755 47.3571357 255 79 163
52.3159605 77.3528089 47.2988863 255 79 163
52.3003363 77.2822227 47.262515 255 79 163
52.2930695 77.221932 47.2455987 255 79 163
52.290624 77.159876 47.2399059 255 79 163
40.1482906 77.159876 45.3611623 255 79 163
39.9671494 77.5165446 45.6100729 255 79 163
40.0260929 77.4796563 45.5290772 255 79 163
40.0721259 77.4277209 45.4658221 255 79 163
40.1056695 77.3682244 45.4197289 255 79 163
40.1301737 77.2993939 45.3860571 255 79 163
40.1437186 77.2309649 45.3674447 255 79 163
52.290624 0.369250472 47.2399059 218 222 230
52.290624 77.159876 47.2399059 218 222 230
47.2760861 0.369250472 35.5666749 218 222 230
47.2760861 77.5291265 35.5666749 218 222 230
52.290624 77.5291265 47.2399059 218 222 230
52.4625607 77.5291265 47.6401534 218 222 230
52.4180602 77.5165446 47.5365617 218 222 230
52.3765923 77.4796563 47.4400297 218 222 230
52.3409831 77.4209755 47.3571357 218 222 230
52.3159605 77.3528089 47.2988863 218 222 230
52.3003363 77.2822227 47.262515 218 222 230
52.2930695 77.221932 47.2455987 218 222 230
0.369250472 59.5938204 42.3179244 218 222 230
1.50057348 59.5938204 42.5192933 218 222 230
2.56308001 59.5938204 42.9569244 218 222 230
3.50804341 59.5938204 43.610748 218 222 230
4.29212753 59.5938204 44.4507797 218 222 230
4.8793742 59.5938204 45.4384955 218 222 230
5.24285222 59.5938204 46.5285987 218 222 230
5.36589243 59.5938204 47.6710969 218 222 230
5.36589243 59.5938204 48.6710969 218 222 230
5.24285222 59.5938204 49.8135952 218 222 230
4.8793742 59.5938204 50.9036983 218 222 230
4.29212753 59.5938204 51.8914141 218 222 230
3.50804341 59.5938204 52.7314458 218 222 230
2.56308001 59.5938204 53.3852694 218 222 230
1.50057348 59.5938204 53.8229006 218 222 230
0.369250472 59.5938204 54.0242694 218 222 230
5.36589243 59.5938204 48.6710969 255 79 163
5.44805839 59.5845626 48.6710969 255 79 163
5.52610421 59.5572531 48.6710969 255 79 163
5.59611634 59.5132616 48.6710969 255 79 163
5.65458408 59.4547939 48.6710969 255 79 163
5.69857561 59.3847817 48.6710969 255 79 163
5.72588503 59.3067359 48.6710969 255 79 163
5.73514291 59.22457 48.6710969 255 79 163
5.24285222 59.5938204 49.8135952 255 79 163
4.8793742 59.5938204 50.9036983 255 79 163
4.29212753 59.5938204 51.8914141 255 79 163
3.50804341 59.5938204 52.7314458 255 79 163
2.56308001 59.5938204 53.3852694 255 79 163
1.50057348 59.5938204 53.8229006 255 79 163
0.369250472 59.5938204 54.0242694 255 79 163
0.34691477 59.22457 54.3957379 255 79 163
0.347465399 59.3112613 54.3853664 255 79 163
0.349105848 59.3930183 54.354867 255 79 163
0.351800806 59.4652413 54.3060588 255 79 163
0.355486342 59.5239591 54.2417895 255 79 163
0.360062665 59.5660427 54.1657118 255 79 163
0.364453759 59.5868189 54.0963236 255 79 163
5.60217646 59.22457 49.8988929 255 79 163
5.20944263 59.22457 51.0697573 255 79 163
4.5751521 59.22457 52.1293981 255 79 163
3.72871629 59.22457 53.028681 255 79 163
2.7093836 59.22457 53.725907 255 79 163
1.56441948 59.22457 54.1887464 255 79 163
5.3127746 59.5868193 49.8288323 255 79 163
5.38013761 59.5660427 49.8435118 255 79 163
5.4540264 59.5239589 49.8596133 255 79 163
5.51647229 59.4652413 49.8732212 255 79 163
5.56390709 59.3930184 49.883558 255 79 163
5.59355157 59.3112616 49.8900179 255 79 163
4.94444899 59.5868193 50.9334739 255 79 163
5.00714184 59.5660427 50.9621595 255 79 163
5.07590804 59.5239589 50.9936241 255 79 163
5.13402466 59.4652413 51.0202159 255 79 163
5.17817089 59.3930184 51.0404154 255 79 163
5.20576016 59.3112616 51.0530391 255 79 163
4.34937038 59.5868193 51.9343625 255 79 163
4.40451797 59.5660427 51.9757389 255 79 163
4.46500796 59.5239589 52.0211236 255 79 163
4.51613008 59.4652413 52.0594798 255 79 163
4.55496318 59.3930184 52.0886156 255 79 163
4.57923201 59.3112616 52.1068242 255 79 163
3.55482915 59.5868193 52.7855975 255 79 163
3.5999024 59.5660427 52.837767 255 79 163
3.64934211 59.5239589 52.8949905 255 79 163
3.69112526 59.4652413 52.943352 255 79 163
3.72286434 59.3930184 52.9800881 255 79 163
3.74269975 59.3112616 53.0030464 255 79 163
2.59726306 59.5868193 53.448141 255 79 163
2.6301949 59.5660427 53.5087112 255 79 163
2.66631701 59.5239589 53.5751492 255 79 163
2.69684502 59.4652413 53.6312981 255 79 163
2.72003453 59.3930184 53.6739497 255 79 163
2.73452686 59.3112616 53.7006049 255 79 163
1.52058619 59.5868193 53.8916087 255 79 163
1.53986637 59.5660427 53.9578018 255 79 163
1.56101432 59.5239589 54.0304074 255 79 163
1.57888715 59.4652413 54.0917689 255 79 163
1.59246362 59.3930184 54.1383799 255 79 163
1.60094826 59.3112616 54.1675096 255 79 163
5.73514291 0.369250472 48.6710969 218 222 230
5.73514291 59.22457 48.6710969 218 222 230
5.60217646 59.22457 49.8988929 218 222 230
5.20944263 59.22457 51.0697573 218 222 230
4.5751521 59.22457 52.1293981 218 222 230
3.72871629 59.22457 53.028681 218 222 230
2.7093836 59.22457 53.725907 218 222 230
1.56441948 59.22457 54.1887464 218 222 230
0.34691477 59.22457 54.3957379 218 222 230
0.34691477 0.369250472 54.3957379 218 222 230
5.60217646 0.369250472 49.8988929 218 222 230
5.20944263 0.369250472 51.0697573 218 222 230
4.5751521 0.369250472 52.1293981 218 222 230
3.72871629 0.369250472 53.028681 218 222 230
2.7093836 0.369250472 53.725907 218 222 230
1.56441948 0.369250472 54.1887464 218 222 230
70.8335189 34.2721785 30.1520316 255 79 163
70.8335189 58.9420866 19.4275646 255 79 163
70.824261 58.9748442 19.5029183 255 79 163
70.7969516 59.0059593 19.5744934 255 79 163
70.7529601 59.0338715 19.638701 255 79 163
70.6944924 59.0571812 19.6923212 255 79 163
70.6244802 59.0747196 19.7326655 255 79 163
70.5464344 59.0856072 19.7577107 255 79 163
70.4642685 59.0892981 19.7662011 255 79 163
70.4642685 35.0561171 30.2138711 255 79 163
70.793273 34.6280792 30.1801061 255 79 163
70.7175869 34.8425481 30.1970241 255 79 163
70.6407696 34.9607594 30.206349 255 79 163
70.5963613 35.0042393 30.2097788 255 79 163
70.5451779 35.0370661 30.2123683 255 79 163
70.5049712 35.0513398 30.2134942 255 79 163
70.8335189 56.8739141 44.5598697 255 79 163
70.8335189 34.2721785 30.1520316 255 79 163
70.793273 34.6280792 30.1801061 255 79 163
70.7175869 34.8425481 30.1970241 255 79 163
70.6407696 34.9607594 30.206349 255 79 163
70.5963613 35.0042393 30.2097788 255 79 163
70.5451779 35.0370661 30.2123683 255 79 163
70.5049712 35.0513398 30.2134942 255 79 163
70.4642685 35.0561171 30.2138711 255 79 163
70.4642685 57.0723999 44.2485029 255 79 163
70.824261 56.9180813 44.4905841 255 79 163
70.7969516 56.9600339 44.4247727 255 79 163
70.7529601 56.997668 44.3657356 255 79 163
70.6944924 57.0290965 44.3164333 255 79 163
70.6244802 57.0527436 44.2793379 255 79 163
70.5464344 57.0674234 44.2563095 255 79 163
70.4642685 59.6045106 20.1351893 255 79 163
70.4642685 59.6017805 20.0507716 255 79 163
70.4642685 59.579939 19.9691828 255 79 163
70.4642685 59.5401288 19.8946915 255 79 163
70.4642685 59.4844329 19.8311954 255 79 163
70.4642685 59.4157653 19.7820166 255 79 163
70.4642685 59.3377188 19.7497282 255 79 163
70.4642685 59.2543769 19.7360196 255 79 163
70.4642685 59.1701002 19.741608 255 79 163
70.4642685 59.0892981 19.7662011 255 79 163
70.8335189 58.9420866 19.4275646 255 79 163
70.824261 58.9748442 19.5029183 255 79 163
70.7969516 59.0059593 19.5744934 255 79 163
70.7529601 59.0338715 19.638701 255 79 163
70.6944924 59.0571812 19.6923212 255 79 163
70.6244802 59.0747196 19.7326655 255 79 163
70.5464344 59.0856072 19.7577107 255 79 163
70.8335189 59.9725116 20.165541 255 79 163
70.8335189 59.9670514 19.9967057 255 79 163
70.8335189 59.9233683 19.833528 255 79 163
70.8335189 59.8437479 19.6845455 255 79 163
70.8335189 59.732356 19.5575533 255 79 163
70.8335189 59.5950208 19.4591957 255 79 163
70.8335189 59.4389279 19.3946189 255 79 163
70.8335189 59.2722441 19.3672017 255 79 163
70.8335189 59.1036907 19.3783785 255 79 163
70.824261 59.8906236 20.1587871 255 79 163
70.7969516 59.8128419 20.1523719 255 79 163
70.7529601 59.7430667 20.146617 255 79 163
70.6944924 59.6847968 20.1418111 255 79 163
70.6244802 59.6409542 20.138195 255 79 163
70.5464344 59.6137372 20.1359503 255 79 163
70.824261 59.1184682 19.4592047 255 79 163
70.7969516 59.1325047 19.5359779 255 79 163
70.824261 59.2682683 19.4492714 255 79 163
70.7529601 59.1450964 19.6048484 255 79 163
70.7969516 59.2644918 19.5272258 255 79 163
70.824261 59.4164067 19.4736382 255 79 163
70.6944924 59.1556117 19.6623628 255 79 163
70.7529601 59.2611041 19.5971559 255 79 163
70.7969516 59.3950149 19.5486951 255 79 163
70.6244802 59.1635236 19.705637 255 79 163
70.824261 59.5551327 19.5310301 255 79 163
70.6944924 59.258275 19.6555551 255 79 163
70.7529601 59.375825 19.6160259 255 79 163
70.5464344 59.1684352 19.7325011 255 79 163
70.7969516 59.5172448 19.5992624 255 79 163
70.6244802 59.2561463 19.6994951 255 79 163
70.824261 59.6771879 19.6184444 255 79 163
70.6944924 59.3597994 19.6722546 255 79 163
70.7529601 59.4832568 19.6604713 255 79 163
70.5464344 59.2548249 19.7267726 255 79 163
70.7969516 59.6247862 19.6762822 255 79 163
70.6244802 59.3477416 19.7145613 255 79 163
70.824261 59.7761863 19.7313074 255 79 163
70.6944924 59.4548732 19.7115873 255 79 163
70.7529601 59.5777785 19.7281664 255 79 163
70.5464344 59.3402563 19.7408249 255 79 163
70.7969516 59.7120125 19.7757245 255 79 163
70.6244802 59.4335172 19.7500473 255 79 163
70.824261 59.8469481 19.863714 255 79 163
70.6944924 59.5385219 19.7714953 255 79 163
70.7529601 59.6544445 19.8155694 255 79 163
70.5464344 59.4202596 19.7739228 255 79 163
70.7969516 59.7743599 19.8923864 255 79 163
70.6244802 59.508985 19.8040963 255 79 163
70.824261 59.885771 20.0087365 255 79 163
70.6944924 59.6063689 19.8488443 255 79 163
70.7529601 59.7092436 19.9181074 255 79 163
70.5464344 59.4906488 19.8243346 255 79 163
70.7969516 59.8085663 20.020164 255 79 163
70.6244802 59.5701966 19.8738805 255 79 163
70.6944924 59.6548645 19.9395872 255 79 163
70.7529601 59.7393087 20.0304152 255 79 163
70.5464344 59.5477412 19.8894227 255 79 163
70.6244802 59.6139492 19.9557487 255 79 163
70.6944924 59.6814711 20.0389761 255 79 163
70.5464344 59.5885495 19.9657816 255 79 163
70.6244802 59.6379537 20.0454174 255 79 163
70.5464344 59.6109386 20.0494161 255 79 163
70.8335189 58.0068875 43.9978395 255 79 163
70.824261 57.9249996 43.9910856 255 79 163
70.7969516 57.8472179 43.9846704 255 79 163
70.7529601 57.7774427 43.9789155 255 79 163
70.6944924 57.7191728 43.9741095 255 79 163
70.6244802 57.6753301 43.9704935 255 79 163
70.5464344 57.6481131 43.9682487 255 79 163
70.4642685 57.6388866 43.9674877 255 79 163
70.8335189 57.9740185 44.1629408 255 79 163
70.8335189 57.9046139 44.316309 255 79 163
70.8335189 57.80228 44.4499749 255 79 163
70.8335189 57.6723341 44.5569931 255 79 163
70.8335189 57.5215285 44.6318027 255 79 163
70.8335189 57.3576992 44.6705166 255 79 163
70.8335189 57.1893589 44.6711231 255 79 163
70.8335189 57.0252549 44.6335907 255 79 163
70.8335189 56.8739141 44.5598697 255 79 163
70.824261 56.9180813 44.4905841 255 79 163
70.7969516 56.9600339 44.4247727 255 79 163
70.7529601 56.997668 44.3657356 255 79 163
70.6944924 57.0290965 44.3164333 255 79 163
70.6244802 57.0527436 44.2793379 255 79 163
70.5464344 57.0674234 44.2563095 255 79 163
70.4642685 57.0723999 44.2485029 255 79 163
70.4642685 57.6224521 44.0500384 255 79 163
70.4642685 57.5877498 44.1267225 255 79 163
70.4642685 57.5365828 44.1935555 255 79 163
70.4642685 57.4716099 44.2470646 255 79 163
70.4642685 57.3962071 44.2844694 255 79 163
70.4642685 57.3142924 44.3038263 255 79 163
70.4642685 57.2301223 44.3041296 255 79 163
70.4642685 57.1480703 44.2853634 255 79 163
70.824261 57.8957876 44.1378176 255 79 163
70.7969516 57.8214796 44.1139543 255 79 163
70.824261 57.834105 44.274122 255 79 163
70.7529601 57.7548204 44.0925473 255 79 163
70.7969516 57.7671317 44.2340505 255 79 163
70.824261 57.7431568 44.3929162 255 79 163
70.6944924 57.6991528 44.0746702 255 79 163
70.7529601 57.7070524 44.1981038 255 79 163
70.7969516 57.6869983 44.3387187 255 79 163
70.6244802 57.6572681 44.0612193 255 79 163
70.824261 57.6276688 44.4880275 255 79 163
70.6944924 57.6568796 44.1680843 255 79 163
70.7529601 57.6366205 44.2901 255 79 163
70.5464344 57.6312666 44.0528691 255 79 163
70.7969516 57.5852431 44.4225201 255 79 163
70.6244802 57.6191292 44.1454975 255 79 163
70.824261 57.4936419 44.5545138 255 79 163
70.6944924 57.5945496 44.2494981 255 79 163
70.7529601 57.5471846 44.3637558 255 79 163
70.5464344 57.5956942 44.1314758 255 79 163
70.7969516 57.4671536 44.4811004 255 79 163
70.6244802 57.5628951 44.218949 255 79 163
70.824261 57.3480403 44.5889203 255 79 163
70.6944924 57.5154016 44.3146812 255 79 163
70.7529601 57.4433919 44.4152439 255 79 163
70.5464344 57.5432444 44.1999844 255 79 163
70.7969516 57.3388657 44.5114156 255 79 163
70.6244802 57.4914878 44.2777571 255 79 163
70.824261 57.1984296 44.5894594 255 79 163
70.6944924 57.4235483 44.3602466 255 79 163
70.7529601 57.3306355 44.4418889 255 79 163
70.5464344 57.4766425 44.2548351 255 79 163
70.7969516 57.2070455 44.5118906 255 79 163
70.6244802 57.4086178 44.3188662 255 79 163
70.824261 57.0525839 44.5561028 255 79 163
70.6944924 57.3237624 44.3838266 255 79 163
70.7529601 57.2147744 44.4423064 255 79 163
70.5464344 57.3993491 44.2931777 255 79 163
70.7969516 57.0785425 44.4825005 255 79 163
70.6244802 57.318591 44.3401401 255 79 163
70.6944924 57.221229 44.384196 255 79 163
70.7529601 57.101829 44.4164745 255 79 163
70.5464344 57.3153807 44.31302 255 79 163
70.6244802 57.2260854 44.3404733 255 79 163
70.6944924 57.1212758 44.3613356 255 79 163
70.5464344 57.2291003 44.3133309 255 79 163
70.6244802 57.1359077 44.3198487 255 79 163
70.5464344 57.144991 44.2940942 255 79 163
70.8335189 59.9725116 20.165541 255 79 163
70.8335189 58.0068875 43.9978395 255 79 163
70.824261 57.9249996 43.9910856 255 79 163
70.7969516 57.8472179 43.9846704 255 79 163
70.7529601 57.7774427 43.9789155 255 79 163
70.6944924 57.7191728 43.9741095 255 79 163
70.6244802 57.6753301 43.9704935 255 79 163
70.5464344 57.6481131 43.9682487 255 79 163
70.4642685 57.6388866 43.9674877 255 79 163
70.4642685 59.6045106 20.1351893 255 79 163
70.824261 59.8906236 20.1587871 255 79 163
70.7969516 59.8128419 20.1523719 255 79 163
70.7529601 59.7430667 20.146617 255 79 163
70.6944924 59.6847968 20.1418111 255 79 163
70.6244802 59.6409542 20.138195 255 79 163
70.5464344 59.6137372 20.1359503 255 79 163
5.36589243 59.5938204 47.6710969 255 79 163
5.36589243 59.5938204 48.6710969 255 79 163
5.44805839 59.5845626 48.6710969 255 79 163
5.52610421 59.5572531 48.6710969 255 79 163
5.59611634 59.5132616 48.6710969 255 79 163
5.65458408 59.4547939 48.6710969 255 79 163
5.69857561 59.3847817 48.6710969 255 79 163
5.72588503 59.3067359 48.6710969 255 79 163
5.73514291 59.22457 48.6710969 255 79 163
5.73514291 59.22457 47.6710969 255 79 163
5.44805839 59.5845626 47.6710969 255 79 163
5.52610421 59.5572531 47.6710969 255 79 163
5.59611634 59.5132616 47.6710969 255 79 163
5.65458408 59.4547939 47.6710969 255 79 163
5.69857561 59.3847817 47.6710969 255 79 163
5.72588503 59.3067359 47.6710969 255 79 163
70.4642685 35.0561171 30.2138711 218 222 230
58.5620532 35.0561171 30.2138711 218 222 230
58.4920081 35.0635327 30.2106474 218 222 230
58.4245067 35.0855101 30.2010934 218 222 230
58.3620001 35.1212512 30.1855561 218 222 230
58.3067582 35.1694582 30.1645996 218 222 230
58.2607871 35.2283804 30.138985 218 222 230
58.2257562 35.2958782 30.1096425 218 222 230
58.2029376 35.3695004 30.0776375 218 222 230
58.1953452 35.4166861 30.057125 218 222 230
58.1928027 35.4645307 30.0363261 218 222 230
58.1928027 59.0892981 19.7662011 218 222 230
70.4642685 59.0892981 19.7662011 218 222 230
70.4642685 35.0561171 30.2138711 218 222 230
58.5620532 35.0561171 30.2138711 218 222 230
70.4642685 57.0723999 44.2485029 218 222 230
58.5620532 57.0723999 44.2485029 218 222 230
70.4642685 59.6045106 20.1351893 255 79 163
58.5620532 59.6045106 20.1351893 255 79 163
70.4642685 59.6017805 20.0507716 255 79 163
70.4642685 59.579939 19.9691828 255 79 163
70.4642685 59.5401288 19.8946915 255 79 163
70.4642685 59.4844329 19.8311954 255 79 163
70.4642685 59.4157653 19.7820166 255 79 163
70.4642685 59.3377188 19.7497282 255 79 163
70.4642685 59.2543769 19.7360196 255 79 163
70.4642685 59.1701002 19.741608 255 79 163
70.4642685 59.0892981 19.7662011 255 79 163
58.1928027 59.0892981 19.7662011 255 79 163
58.1928027 59.2668614 19.7368366 255 79 163
58.1928027 59.2063275 19.7368227 255 79 163
58.1928027 59.1466047 19.7466993 255 79 163
58.4664841 59.5998269 20.0389094 255 79 163
58.377428 59.5703837 19.9471225 255 79 163
58.3009537 59.5181876 19.8660835 255 79 163
58.2472154 59.4546688 19.8069239 255 79 163
58.2163335 59.3941948 19.7709494 255 79 163
58.1992511 59.3348052 19.7489107 255 79 163
58.1944184 59.301116 19.741283 255 79 163
58.5620532 57.0723999 44.2485029 255 79 163
58.5620532 57.1480703 44.2853634 255 79 163
58.5620532 57.2301223 44.3041296 255 79 163
58.5620532 57.3142924 44.3038263 255 79 163
58.5620532 57.3962071 44.2844694 255 79 163
58.5620532 57.4716099 44.2470646 255 79 163
58.5620532 57.5365828 44.1935555 255 79 163
58.5620532 57.5877498 44.1267225 255 79 163
58.5620532 57.6224521 44.0500384 255 79 163
58.5620532 57.6388866 43.9674877 255 79 163
70.4642685 57.0723999 44.2485029 255 79 163
70.4642685 57.6388866 43.9674877 255 79 163
70.4642685 57.6224521 44.0500384 255 79 163
70.4642685 57.5877498 44.1267225 255 79 163
70.4642685 57.5365828 44.1935555 255 79 163
70.4642685 57.4716099 44.2470646 255 79 163
70.4642685 57.3962071 44.2844694 255 79 163
70.4642685 57.3142924 44.3038263 255 79 163
70.4642685 57.2301223 44.3041296 255 79 163
70.4642685 57.1480703 44.2853634 255 79 163
70.4642685 57.6388866 43.9674877 218 222 230
58.5620532 57.6388866 43.9674877 218 222 230
70.4642685 59.6045106 20.1351893 218 222 230
58.5620532 59.6045106 20.1351893 218 222 230
58.1928027 57.2708857 43.937136 255 79 163
58.2020606 57.2267184 44.0064217 255 79 163
58.22937 57.1847659 44.072233 255 79 163
58.2733616 57.1471318 44.1312701 255 79 163
58.3318293 57.1157032 44.1805724 255 79 163
58.4018414 57.0920562 44.2176678 255 79 163
58.4798872 57.0773763 44.2406962 255 79 163
58.5620532 57.0723999 44.2485029 255 79 163
58.1928027 35.4645307 30.0363261 255 79 163
58.5620532 35.0561171 30.2138711 255 79 163
58.4920081 35.0635327 30.2106474 255 79 163
58.4245067 35.0855101 30.2010934 255 79 163
58.3620001 35.1212512 30.1855561 255 79 163
58.3067582 35.1694582 30.1645996 255 79 163
58.2607871 35.2283804 30.138985 255 79 163
58.2257562 35.2958782 30.1096425 255 79 163
58.2029376 35.3695004 30.0776375 255 79 163
58.1953452 35.4166861 30.057125 255 79 163
58.1928027 35.4645307 30.0363261 218 222 230
58.1928027 59.0892981 19.7662011 218 222 230
58.1928027 59.2668614 19.7368366 218 222 230
58.1928027 59.2063275 19.7368227 218 222 230
58.1928027 59.1466047 19.7466993 218 222 230
58.1928027 57.2708857 43.937136 218 222 230
58.5620532 59.6045106 20.1351893 255 79 163
58.4664841 59.5998269 20.0389094 255 79 163
58.377428 59.5703837 19.9471225 255 79 163
58.3009537 59.5181876 19.8660835 255 79 163
58.2472154 59.4546688 19.8069239 255 79 163
58.2163335 59.3941948 19.7709494 255 79 163
58.1992511 59.3348052 19.7489107 255 79 163
58.1944184 59.301116 19.741283 255 79 163
58.1928027 59.2668614 19.7368366 255 79 163
58.1928027 57.2708857 43.937136 255 79 163
58.2020606 57.3527736 43.9438899 255 79 163
58.22937 57.4305553 43.9503051 255 79 163
58.2733616 57.5003305 43.95606 255 79 163
58.3318293 57.5586004 43.960866 255 79 163
58.4018414 57.602443 43.964482 255 79 163
58.4798872 57.62966 43.9667268 255 79 163
58.5620532 57.6388866 43.9674877 255 79 163
58.5620532 57.0723999 44.2485029 255 79 163
58.5620532 57.1480703 44.2853634 255 79 163
58.5620532 57.2301223 44.3041296 255 79 163
58.5620532 57.3142924 44.3038263 255 79 163
58.5620532 57.3962071 44.2844694 255 79 163
58.5620532 57.4716099 44.2470646 255 79 163
58.5620532 57.5365828 44.1935555 255 79 163
58.5620532 57.5877498 44.1267225 255 79 163
58.5620532 57.6224521 44.0500384 255 79 163
58.5620532 57.6388866 43.9674877 255 79 163
58.1928027 57.2708857 43.937136 255 79 163
58.2020606 57.3527736 43.9438899 255 79 163
58.22937 57.4305553 43.9503051 255 79 163
58.2733616 57.5003305 43.95606 255 79 163
58.3318293 57.5586004 43.960866 255 79 163
58.4018414 57.602443 43.964482 255 79 163
58.4798872 57.62966 43.9667268 255 79 163
58.1928027 57.2708857 43.937136 255 79 163
58.2020606 57.2267184 44.0064217 255 79 163
58.22937 57.1847659 44.072233 255 79 163
58.2733616 57.1471318 44.1312701 255 79 163
58.3318293 57.1157032 44.1805724 255 79 163
58.4018414 57.0920562 44.2176678 255 79 163
58.4798872 57.0773763 44.2406962 255 79 163
58.2108751 57.38134 43.9657667 255 79 163
58.2108751 57.3652983 44.0012151 255 79 163
58.2108751 57.3382785 44.0292125 255 79 163
58.2633233 57.468621 44.0266184 255 79 163
58.2108751 57.3034224 44.0465035 255 79 163
58.2633233 57.4270585 44.0878556 255 79 163
58.3450132 57.5600589 44.012092 255 79 163
58.2108751 57.264783 44.0510774 255 79 163
58.2633233 57.3673366 44.1315674 255 79 163
58.3450132 57.5180612 44.1048972 255 79 163
58.2108751 57.2268532 44.0424024 255 79 163
58.2633233 57.2963995 44.1526712 255 79 163
58.3450132 57.4473224 44.1781954 255 79 163
58.4479485 57.5908281 44.0819215 255 79 163
58.2633233 57.2224957 44.1487129 255 79 163
58.3450132 57.3560679 44.2234637 255 79 163
58.4479485 57.5235787 44.1810054 255 79 163
58.3450132 57.2549086 44.2354384 255 79 163
58.4479485 57.4269465 44.2517327 255 79 163
58.3450132 57.1556071 44.212727 255 79 163
58.4479485 57.3121679 44.2858792 255 79 163
58.4479485 57.1925891 44.2794746 255 79 163
3 41 39 40
3 37 38 39
3 37 39 41
3 35 41 42
3 35 37 41
3 36 37 35
3 12 36 13
3 14 13 36
3 11 36 12
3 10 36 11
3 15 14 36
3 9 36 10
3 16 15 36
3 17 16 36
3 18 36 35
3 18 17 36
3 34 18 35
3 32 34 33
3 31 34 32
3 30 34 31
3 29 34 30
3 27 34 29
3 27 29 28
3 43 2 1
3 43 3 2
3 43 4 3
3 43 5 4
3 43 6 5
3 43 7 6
3 43 8 7
3 43 9 8
3 43 36 9
3 19 18 34
3 20 34 27
3 20 19 34
3 24 20 21
3 24 21 22
3 24 22 23
3 24 19 20
3 24 25 26
3 24 26 19
3 45 1 0
3 44 1 45
3 44 43 1
3 50 49 48
3 51 50 48
3 52 51 48
3 78 48 46
3 77 53 52
3 77 52 48
3 77 48 78
3 81 54 53
3 81 55 54
3 81 56 55
3 81 57 56
3 81 58 57
3 81 59 58
3 81 53 77
3 65 64 63
3 79 78 46
3 67 60 59
3 67 61 60
3 67 62 61
3 67 63 62
3 67 65 63
3 67 59 81
3 66 65 67
3 70 65 66
3 71 65 70
3 72 65 71
3 73 65 72
3 74 65 73
3 75 65 74
3 76 65 75
3 68 80 79
3 68 81 80
3 68 67 81
3 47 68 79
3 47 69 68
3 47 76 69
3 47 65 76
3 47 79 46
3 91 82 83
3 92 91 83
3 93 83 84
3 93 84 85
3 93 92 83
3 94 85 86
3 94 93 85
3 95 86 87
3 95 94 86
3 96 95 87
3 97 87 88
3 97 96 87
3 90 88 89
3 90 97 88
3 126 99 98
3 126 98 106
3 127 100 99
3 127 99 126
3 128 101 100
3 128 100 127
3 129 102 101
3 129 101 128
3 130 103 102
3 130 102 129
3 131 104 103
3 131 105 104
3 131 120 105
3 131 103 130
3 132 106 107
3 132 126 106
3 133 126 132
3 133 127 126
3 134 128 127
3 134 127 133
3 135 128 134
3 135 129 128
3 136 130 129
3 136 129 135
3 137 121 120
3 137 120 131
3 137 131 130
3 137 130 136
3 138 107 108
3 138 132 107
3 139 133 132
3 139 132 138
3 140 135 134
3 140 134 133
3 140 133 139
3 141 135 140
3 142 136 135
3 142 135 141
3 143 136 142
3 143 122 121
3 143 121 137
3 143 137 136
3 144 108 109
3 144 138 108
3 145 138 144
3 145 139 138
3 146 139 145
3 146 140 139
3 147 141 140
3 147 140 146
3 148 142 141
3 148 141 147
3 149 142 148
3 149 123 122
3 149 122 143
3 149 143 142
3 150 109 110
3 150 144 109
3 151 145 144
3 151 144 150
3 152 146 145
3 152 145 151
3 153 147 146
3 153 146 152
3 154 148 147
3 154 147 153
3 155 149 148
3 155 148 154
3 155 123 149
3 155 124 123
3 156 110 111
3 156 111 112
3 156 112 113
3 156 150 110
3 157 113 114
3 157 151 150
3 157 152 151
3 157 156 113
3 157 150 156
3 158 114 115
3 158 153 152
3 158 157 114
3 158 152 157
3 159 115 116
3 159 154 153
3 159 153 158
3 159 158 115
3 160 116 117
3 160 159 116
3 160 154 159
3 161 155 154
3 161 117 118
3 161 118 119
3 161 125 124
3 161 119 125
3 161 124 155
3 161 160 117
3 161 154 160
3 165 162 163
3 165 164 162
3 166 168 167
3 176 169 168
3 176 168 166
3 177 169 176
3 178 170 169
3 178 171 170
3 178 169 177
3 179 172 171
3 179 171 178
3 180 172 179
3 181 173 172
3 181 172 180
3 175 174 173
3 175 173 181
3 189 190 191
3 189 191 197
3 188 196 195
3 188 197 196
3 188 189 197
3 187 188 195
3 186 195 194
3 186 187 195
3 185 193 192
3 185 194 193
3 185 186 194
3 184 185 192
3 183 192 182
3 183 184 192
3 209 200 201
3 202 209 201
3 210 209 202
3 203 210 202
3 216 214 213
3 216 215 214
3 221 204 205
3 221 205 206
3 222 203 204
3 222 204 221
3 223 203 222
3 223 210 203
3 224 211 210
3 224 210 223
3 225 212 211
3 225 211 224
3 226 213 212
3 226 216 213
3 226 212 225
3 227 217 216
3 227 226 217
3 227 216 226
3 228 218 217
3 228 226 225
3 228 217 226
3 228 225 224
3 229 219 218
3 229 218 228
3 230 219 229
3 231 220 219
3 231 219 230
3 232 199 198
3 232 198 220
3 232 220 231
3 233 224 223
3 233 228 224
3 233 221 206
3 233 223 222
3 233 222 221
3 234 206 207
3 234 229 228
3 234 228 233
3 234 233 206
3 235 234 207
3 235 230 229
3 235 229 234
3 236 235 207
3 236 230 235
3 237 207 208
3 237 236 207
3 237 231 230
3 237 230 236
3 238 232 231
3 238 237 208
3 238 231 237
3 239 232 238
3 239 199 232
3 240 208 199
3 240 199 239
3 240 238 208
3 240 239 238
3 265 241 243
3 263 265 243
3 264 263 243
3 244 264 243
3 247 244 245
3 247 245 246
3 249 247 248
3 249 244 247
3 250 244 249
3 251 244 250
3 266 241 265
3 267 241 266
3 262 264 244
3 254 244 251
3 254 262 244
3 255 254 251
3 256 255 251
3 257 256 251
3 258 257 251
3 259 258 251
3 260 259 251
3 261 260 251
3 252 261 251
3 253 267 264
3 253 264 262
3 242 253 252
3 242 252 251
3 242 267 253
3 242 241 267
3 276 277 284
3 275 284 283
3 275 276 284
3 274 283 282
3 274 275 283
3 273 282 281
3 273 274 282
3 272 280 279
3 272 281 280
3 272 273 281
3 271 279 278
3 271 272 279
3 270 278 268
3 270 271 278
3 269 270 268
3 296 285 286
3 297 286 287
3 297 296 286
3 298 287 288
3 298 297 287
3 299 288 289
3 299 289 290
3 299 298 288
3 300 290 291
3 300 299 290
3 301 291 292
3 301 300 291
3 302 292 293
3 302 301 292
3 295 293 294
3 295 302 293
3 327 304 303
3 305 304 327
3 312 309 308
3 312 310 309
3 312 311 310
3 320 332 319
3 321 332 320
3 325 317 324
3 326 317 325
3 318 317 326
3 333 306 305
3 333 307 306
3 333 308 307
3 333 313 312
3 333 327 328
3 333 305 327
3 333 312 308
3 334 314 313
3 334 315 314
3 334 328 329
3 334 329 330
3 334 313 333
3 334 333 328
3 335 316 315
3 335 317 316
3 335 321 322
3 335 322 323
3 335 323 324
3 335 330 331
3 335 331 332
3 335 334 330
3 335 332 321
3 335 315 334
3 335 324 317
3 344 345 346
3 343 346 347
3 343 344 346
3 342 347 348
3 342 343 347
3 341 342 348
3 340 348 349
3 340 341 348
3 339 349 350
3 339 340 349
3 338 350 351
3 338 351 352
3 338 339 350
3 337 352 336
3 337 338 352
3 382 369 368
3 382 368 375
3 383 370 369
3 383 382 375
3 383 369 382
3 384 371 370
3 384 383 375
3 384 370 383
3 385 372 371
3 385 371 384
3 386 373 372
3 386 372 385
3 387 362 361
3 387 374 373
3 387 361 374
3 387 373 386
3 388 375 376
3 389 388 376
3 389 384 375
3 389 375 388
3 390 389 376
3 390 384 389
3 390 385 384
3 391 385 390
3 391 386 385
3 392 363 362
3 392 362 387
3 392 386 391
3 392 387 386
3 393 376 377
3 394 393 377
3 394 376 393
3 395 390 376
3 395 394 377
3 395 376 394
3 396 391 390
3 396 390 395
3 396 395 377
3 397 364 363
3 397 392 391
3 397 363 392
3 397 391 396
3 398 377 378
3 399 377 398
3 399 398 378
3 400 377 399
3 400 399 378
3 401 400 378
3 401 377 400
3 401 396 377
3 402 397 396
3 402 396 401
3 402 365 364
3 402 401 378
3 402 364 397
3 403 378 379
3 404 378 403
3 404 403 379
3 405 378 404
3 405 404 379
3 406 366 365
3 406 367 366
3 406 402 378
3 406 378 405
3 406 405 379
3 406 365 402
3 407 379 380
3 408 379 407
3 409 407 380
3 410 379 408
3 411 407 409
3 412 367 406
3 412 406 379
3 412 379 410
3 413 407 411
3 414 408 407
3 414 407 413
3 415 410 408
3 415 408 414
3 416 353 367
3 416 367 412
3 416 412 410
3 416 410 415
3 417 357 356
3 417 358 357
3 417 359 358
3 417 360 359
3 417 380 381
3 417 381 360
3 417 409 380
3 417 411 409
3 418 356 355
3 418 417 356
3 418 413 411
3 418 411 417
3 419 355 354
3 419 414 413
3 419 415 414
3 419 413 418
3 419 418 355
3 420 419 354
3 420 415 419
3 421 354 353
3 421 353 416
3 421 416 415
3 421 420 354
3 421 415 420
3 437 436 435
3 433 435 434
3 433 437 435
3 431 438 437
3 431 437 433
3 432 431 433
3 463 431 432
3 462 463 432
3 464 431 463
3 461 462 432
3 465 431 464
3 460 461 432
3 466 431 465
3 459 460 432
3 467 431 466
3 448 431 467
3 450 459 432
3 430 448 447
3 430 431 448
3 428 429 430
3 427 428 430
3 424 425 426
3 424 426 427
3 424 427 430
3 422 430 447
3 422 424 430
3 439 451 450
3 439 452 451
3 439 453 452
3 439 454 453
3 439 455 454
3 439 456 455
3 439 457 456
3 439 458 457
3 439 449 458
3 439 450 432
3 440 449 439
3 423 422 447
3 423 449 440
3 423 447 449
3 445 440 446
3 444 441 423
3 444 442 441
3 444 443 442
3 444 423 440
3 444 440 445
3 476 477 485
3 475 485 484
3 475 476 485
3 474 484 483
3 474 475 484
3 473 483 482
3 473 474 483
3 472 481 480
3 472 482 481
3 472 473 482
3 471 480 479
3 471 472 480
3 470 479 478
3 470 471 479
3 469 478 468
3 469 470 478
3 493 494 495
3 493 495 501
3 492 501 500
3 492 493 501
3 491 500 499
3 491 492 500
3 490 499 498
3 490 491 499
3 489 498 497
3 489 490 498
3 488 497 496
3 488 489 497
3 487 496 486
3 487 488 496
3 503 504 502
3 503 505 504
3 516 507 506
3 517 507 516
3 518 508 507
3 518 507 517
3 519 509 508
3 519 508 518
3 520 510 509
3 520 511 510
3 520 509 519
3 521 511 520
3 522 512 511
3 522 511 521
3 523 513 512
3 523 512 522
3 515 514 513
3 515 513 523
3 525 526 524
3 525 527 526
3 529 530 528
3 529 531 530
3 551 544 545
3 551 545 546
3 551 546 547
3 548 551 547
3 549 551 548
3 550 551 549
3 543 551 550
3 533 551 543
3 532 543 542
3 532 533 543
3 541 538 539
3 541 539 540
3 541 540 532
3 541 532 542
3 537 538 541
3 536 537 541
3 535 536 541
3 534 535 541
3 560 561 567
3 559 567 566
3 559 560 567
3 558 566 565
3 558 559 566
3 557 565 564
3 557 558 565
3 556 564 563
3 556 557 564
3 555 563 562
3 555 556 563
3 554 562 552
3 554 555 562
3 553 554 552
3 578 569 579
3 570 572 571
3 570 573 572
3 570 574 573
3 570 575 574
3 570 576 575
3 570 577 576
3 570 578 577
3 568 569 578
3 568 578 570
3 594 593 592
3 595 594 592
3 596 595 592
3 600 599 606
3 607 580 581
3 607 581 582
3 608 582 583
3 608 580 607
3 608 607 582
3 609 608 583
3 610 583 584
3 610 609 583
3 611 584 585
3 611 585 586
3 611 586 601
3 611 610 584
3 612 587 580
3 612 580 608
3 613 612 608
3 613 608 609
3 614 587 612
3 615 613 609
3 615 609 610
3 616 611 601
3 616 610 611
3 616 615 610
3 617 614 612
3 618 617 612
3 619 612 613
3 619 613 615
3 619 618 612
3 620 619 615
3 621 601 602
3 621 615 616
3 621 616 601
3 621 620 615
3 622 588 587
3 622 587 614
3 623 614 617
3 623 622 614
3 624 623 617
3 624 617 618
3 625 624 618
3 625 618 619
3 626 588 622
3 627 625 619
3 627 619 620
3 628 626 622
3 628 622 623
3 629 627 620
3 629 621 602
3 629 620 621
3 630 623 624
3 630 628 623
3 631 624 625
3 631 630 624
3 632 631 625
3 632 625 627
3 633 627 629
3 633 629 602
3 633 632 627
3 633 602 603
3 634 589 588
3 634 588 626
3 635 634 626
3 635 626 628
3 635 589 634
3 636 628 630
3 636 635 628
3 636 589 635
3 637 636 630
3 637 630 631
3 637 589 636
3 638 637 631
3 638 631 632
3 638 589 637
3 639 603 604
3 639 632 633
3 639 633 603
3 639 638 632
3 639 589 638
3 640 590 589
3 641 640 589
3 641 590 640
3 642 641 589
3 642 590 641
3 643 642 589
3 643 590 642
3 644 639 604
3 644 589 639
3 644 643 589
3 645 591 590
3 646 645 590
3 646 591 645
3 647 646 590
3 647 591 646
3 648 590 643
3 648 647 590
3 649 604 605
3 649 644 604
3 649 643 644
3 649 648 643
3 650 592 591
3 651 650 591
3 651 592 650
3 652 597 596
3 652 596 592
3 652 651 591
3 652 592 651
3 653 591 647
3 653 647 648
3 653 597 652
3 653 652 591
3 654 598 597
3 654 597 653
3 654 653 648
3 655 599 598
3 655 605 606
3 655 598 654
3 655 649 605
3 655 648 649
3 655 606 599
3 655 654 648
3 659 657 656
3 659 658 657
3 661 660 662
3 661 662 663
3 671 672 673
3 671 673 679
3 670 679 678
3 670 671 679
3 669 678 677
3 669 670 678
3 668 677 676
3 668 669 677
3 667 675 674
3 667 676 675
3 667 668 676
3 666 674 664
3 666 667 674
3 665 666 664
3 689 688 684
3 687 684 688
3 690 689 684
3 691 690 684
3 686 684 687
3 681 684 683
3 681 691 684
3 685 684 686
3 682 681 683
3 680 681 682
3 702 703 704
3 701 704 705
3 701 702 704
3 700 705 706
3 700 706 707
3 700 701 705
3 692 699 700
3 692 700 707
3 693 699 692
3 697 698 699
3 695 693 694
3 695 696 697
3 695 697 699
3 695 699 693
3 725 726 735
3 724 725 735
3 723 724 735
3 736 708 709
3 736 716 708
3 737 709 710
3 737 736 709
3 738 710 711
3 738 737 710
3 739 711 712
3 739 738 711
3 740 712 713
3 740 739 712
3 741 713 714
3 741 714 715
3 741 715 730
3 741 740 713
3 742 717 716
3 742 716 736
3 743 742 736
3 743 736 737
3 744 743 737
3 744 737 738
3 745 744 738
3 745 738 739
3 746 745 739
3 746 739 740
3 747 730 731
3 747 740 741
3 747 741 730
3 747 746 740
3 747 731 746
3 748 718 717
3 748 717 742
3 749 742 743
3 749 748 742
3 750 743 744
3 750 749 743
3 751 750 744
3 751 744 745
3 752 745 746
3 752 746 731
3 752 751 745
3 753 731 732
3 753 752 731
3 753 732 752
3 754 719 718
3 754 718 748
3 755 754 748
3 755 748 749
3 756 755 749
3 756 749 750
3 757 756 750
3 757 750 751
3 758 751 752
3 758 757 751
3 758 752 732
3 759 733 758
3 759 758 732
3 759 732 733
3 760 720 719
3 760 754 755
3 760 719 754
3 761 760 755
3 762 755 756
3 762 761 755
3 763 756 757
3 763 762 756
3 764 757 758
3 764 758 733
3 764 763 757
3 765 733 734
3 765 734 764
3 765 764 733
3 766 720 760
3 766 721 720
3 766 722 721
3 767 728 729
3 767 729 722
3 767 760 761
3 767 722 766
3 767 766 760
3 768 727 728
3 768 761 762
3 768 762 763
3 768 728 767
3 768 767 761
3 769 726 727
3 769 768 763
3 769 727 768
3 769 735 726
3 770 764 734
3 770 763 764
3 770 735 769
3 770 769 763
3 771 734 735
3 771 770 734
3 771 735 770
3 782 773 772
3 782 774 773
3 783 775 774
3 783 774 782
3 784 776 775
3 784 777 776
3 784 775 783
3 785 777 784
3 786 778 777
3 786 779 778
3 786 777 785
3 787 780 779
3 787 779 786
3 781 780 787
3 796 797 803
3 795 802 801
3 795 803 802
3 795 796 803
3 794 801 800
3 794 795 801
3 793 800 799
3 793 794 800
3 792 799 798
3 792 793 799
3 791 792 798
3 790 798 788
3 790 791 798
3 789 790 788
3 811 812 813
3 811 813 819
3 810 811 819
3 809 819 818
3 809 810 819
3 808 818 817
3 808 809 818
3 807 817 816
3 807 808 817
3 806 815 814
3 806 816 815
3 806 807 816
3 805 814 804
3 805 806 814
3 845 831 830
3 846 838 837
3 852 831 845
3 853 832 831
3 853 831 852
3 854 845 844
3 854 852 845
3 855 833 832
3 855 832 853
3 856 853 852
3 856 852 854
3 857 844 843
3 857 854 844
3 858 834 833
3 858 833 855
3 859 855 853
3 859 853 856
3 860 856 854
3 860 854 857
3 861 835 834
3 861 834 858
3 862 843 842
3 862 857 843
3 863 855 859
3 863 858 855
3 864 859 856
3 864 856 860
3 865 828 829
3 865 836 835
3 865 829 836
3 865 835 861
3 866 857 862
3 866 860 857
3 867 858 863
3 867 861 858
3 868 842 841
3 868 862 842
3 869 863 859
3 869 859 864
3 870 860 866
3 870 864 860
3 871 865 861
3 871 827 828
3 871 861 867
3 871 828 865
3 872 866 862
3 872 862 868
3 873 867 863
3 873 863 869
3 874 841 840
3 874 868 841
3 875 869 864
3 875 864 870
3 876 870 866
3 876 866 872
3 877 826 827
3 877 871 867
3 877 867 873
3 877 827 871
3 878 872 868
3 878 868 874
3 879 873 869
3 879 869 875
3 880 840 839
3 880 874 840
3 881 875 870
3 881 870 876
3 882 872 878
3 882 876 872
3 883 825 826
3 883 826 877
3 883 877 873
3 883 873 879
3 884 878 874
3 884 874 880
3 885 875 881
3 885 879 875
3 886 839 838
3 886 880 839
3 886 884 880
3 886 838 846
3 887 881 876
3 887 876 882
3 888 882 878
3 888 878 884
3 889 824 825
3 889 825 883
3 889 883 879
3 889 879 885
3 890 846 847
3 890 886 846
3 890 884 886
3 891 885 881
3 891 881 887
3 892 887 882
3 892 891 887
3 892 882 888
3 893 847 848
3 893 890 847
3 893 888 884
3 893 884 890
3 894 823 824
3 894 824 889
3 894 885 891
3 894 889 885
3 895 891 892
3 896 848 849
3 896 893 848
3 896 892 888
3 896 888 893
3 897 822 823
3 897 823 894
3 897 894 891
3 897 891 895
3 898 849 850
3 898 896 849
3 898 895 892
3 898 892 896
3 899 820 821
3 899 821 822
3 899 850 851
3 899 851 820
3 899 822 897
3 899 898 850
3 899 897 895
3 899 895 898
3 917 915 916
3 932 901 900
3 932 900 908
3 933 902 901
3 933 901 932
3 934 908 909
3 934 932 908
3 935 903 902
3 935 902 933
3 936 932 934
3 936 933 932
3 937 909 910
3 937 934 909
3 938 904 903
3 938 903 935
3 939 935 933
3 939 933 936
3 940 936 934
3 940 934 937
3 941 905 904
3 941 904 938
3 942 910 911
3 942 937 910
3 943 938 935
3 943 935 939
3 944 936 940
3 944 939 936
3 945 906 905
3 945 907 906
3 945 924 907
3 945 905 941
3 946 940 937
3 946 937 942
3 947 941 938
3 947 938 943
3 948 911 912
3 948 942 911
3 949 943 939
3 949 939 944
3 950 940 946
3 950 944 940
3 951 945 941
3 951 925 924
3 951 924 945
3 951 941 947
3 952 946 942
3 952 942 948
3 953 947 943
3 953 943 949
3 954 912 913
3 954 948 912
3 955 949 944
3 955 944 950
3 956 946 952
3 956 950 946
3 957 925 951
3 957 951 947
3 957 926 925
3 957 947 953
3 958 952 948
3 958 948 954
3 959 953 949
3 959 949 955
3 960 954 913
3 960 913 914
3 961 955 950
3 961 950 956
3 962 956 952
3 962 961 956
3 962 952 958
3 963 957 953
3 963 927 926
3 963 953 959
3 963 926 957
3 964 954 960
3 964 958 954
3 965 959 955
3 965 955 961
3 966 914 915
3 966 960 914
3 966 964 960
3 966 915 917
3 967 961 962
3 968 962 958
3 968 958 964
3 969 928 927
3 969 959 965
3 969 927 963
3 969 963 959
3 970 917 918
3 970 964 966
3 970 966 917
3 971 965 961
3 971 961 967
3 972 967 962
3 972 962 968
3 973 918 919
3 973 968 964
3 973 964 970
3 973 970 918
3 974 929 928
3 974 928 969
3 974 969 965
3 974 965 971
3 975 967 972
3 975 971 967
3 976 919 920
3 976 975 972
3 976 972 968
3 976 968 973
3 976 973 919
3 977 929 974
3 977 930 929
3 977 974 971
3 977 971 975
3 978 920 921
3 978 976 920
3 978 975 976
3 979 975 978
3 979 921 922
3 979 922 923
3 979 931 930
3 979 923 931
3 979 930 977
3 979 978 921
3 979 977 975
3 987 988 989
3 987 989 995
3 986 995 994
3 986 987 995
3 985 994 993
3 985 986 994
3 984 993 992
3 984 985 993
3 983 991 990
3 983 992 991
3 983 984 992
3 982 983 990
3 981 990 980
3 981 982 990
3 1003 1005 1004
3 1003 1011 1005
3 1002 1010 1011
3 1002 1011 1003
3 1001 1009 1010
3 1001 1010 1002
3 1000 1008 1009
3 1000 1009 1001
3 999 1007 1008
3 999 1008 1000
3 998 1006 1007
3 998 1007 999
3 997 996 1006
3 997 1006 998
3 1013 1015 1014
3 1013 1016 1015
3 1013 1017 1016
3 1013 1018 1017
3 1013 1019 1018
3 1013 1020 1019
3 1021 1020 1013
3 1022 1021 1013
3 1012 1022 1013
3 1024 1023 1022
3 1024 1022 1012
3 1025 1028 1027
3 1025 1026 1028
3 1030 1031 1029
3 1044 1032 1031
3 1044 1031 1030
3 1045 1033 1032
3 1045 1032 1044
3 1046 1034 1033
3 1046 1033 1045
3 1047 1035 1034
3 1047 1034 1046
3 1048 1036 1035
3 1048 1035 1047
3 1049 1036 1048
3 1050 1037 1036
3 1050 1036 1049
3 1041 1037 1050
3 1042 1038 1037
3 1042 1037 1041
3 1043 1039 1038
3 1043 1038 1042
3 1040 1039 1043
3 1052 1061 1051
3 1052 1070 1061
3 1053 1069 1070
3 1053 1070 1052
3 1054 1068 1069
3 1054 1069 1053
3 1055 1067 1068
3 1055 1068 1054
3 1056 1066 1067
3 1056 1067 1055
3 1057 1065 1066
3 1057 1066 1056
3 1058 1064 1065
3 1058 1065 1057
3 1059 1063 1064
3 1059 1064 1058
3 1060 1062 1063
3 1060 1063 1059
3 1071 1074 1073
3 1071 1072 1074
3 1085 1081 1082
3 1085 1082 1084
3 1086 1080 1081
3 1086 1081 1085
3 1087 1079 1080
3 1087 1080 1086
3 1088 1078 1079
3 1088 1079 1087
3 1089 1077 1078
3 1089 1078 1088
3 1090 1076 1077
3 1090 1077 1089
3 1091 1076 1090
3 1092 1075 1076
3 1092 1076 1091
3 1083 1075 1092
3 1095 1097 1096
3 1095 1094 1097
3 1098 1093 1094
3 1098 1094 1095
3 1114 1100 1099
3 1114 1099 1115
3 1113 1101 1100
3 1113 1100 1114
3 1112 1102 1101
3 1112 1101 1113
3 1111 1103 1102
3 1111 1102 1112
3 1110 1104 1103
3 1110 1103 1111
3 1109 1105 1104
3 1109 1106 1105
3 1109 1104 1110
3 1108 1107 1106
3 1108 1106 1109
3 1124 1132 1125
3 1116 1139 1117
3 1140 1126 1127
3 1140 1127 1128
3 1141 1126 1140
3 1142 1133 1126
3 1142 1126 1141
3 1143 1128 1129
3 1143 1141 1140
3 1143 1140 1128
3 1144 1133 1142
3 1145 1142 1141
3 1145 1141 1143
3 1146 1129 1130
3 1146 1130 1131
3 1146 1143 1129
3 1147 1133 1144
3 1148 1144 1142
3 1148 1142 1145
3 1149 1143 1146
3 1149 1145 1143
3 1150 1134 1133
3 1150 1135 1134
3 1150 1133 1147
3 1151 1144 1148
3 1151 1147 1144
3 1152 1145 1149
3 1152 1148 1145
3 1153 1124 1123
3 1153 1131 1132
3 1153 1132 1124
3 1153 1149 1146
3 1153 1146 1131
3 1154 1136 1135
3 1154 1135 1150
3 1154 1150 1147
3 1154 1147 1151
3 1155 1151 1148
3 1155 1148 1152
3 1156 1122 1121
3 1156 1123 1122
3 1156 1153 1123
3 1156 1152 1149
3 1156 1149 1153
3 1157 1154 1151
3 1157 1151 1155
3 1158 1121 1120
3 1158 1155 1152
3 1158 1156 1121
3 1158 1152 1156
3 1159 1137 1136
3 1159 1138 1137
3 1159 1136 1154
3 1159 1154 1157
3 1160 1155 1158
3 1160 1119 1118
3 1160 1120 1119
3 1160 1158 1120
3 1160 1157 1155
3 1161 1118 1117
3 1161 1138 1159
3 1161 1159 1157
3 1161 1157 1160
3 1161 1139 1138
3 1161 1160 1118
3 1161 1117 1139
