ply
format ascii 1.0
comment generated by blendit.inference.finetune_visualize
element vertex 1164
property float x
property float y
property float z
property uchar red
property uchar green
property uchar blue
element face 1596
property list uchar int vertex_indices
end_header
0 30.0758918 81.2302672 218 222 230
-1.53052445e-31 30.0758918 79.6388785 218 222 230
0 0 81.2302672 218 222 230
0 0 0 218 222 230
0 54.0014397 0 218 222 230
0 54.0014397 67.8467503 218 222 230
0 69.8248737 67.8467503 218 222 230
0 69.8248737 81.2302672 218 222 230
0 35.5993213 81.2302672 218 222 230
0 35.5993213 79.0395202 218 222 230
2.77555756e-17 35.5993213 78.88106 218 222 230
4.16333634e-17 30.67525 78.6714654 218 222 230
0 30.1042801 79.211344 218 222 230
0 30.1698884 79.0075649 218 222 230
0 30.2548098 78.8712902 218 222 230
0 30.3399036 78.7859726 218 222 230
0 30.4516646 78.7163744 218 222 230
0 30.5608207 78.6807596 218 222 230
0 30.0758918 81.2302672 218 222 230
-1.53052445e-31 30.0758918 79.6388785 218 222 230
18.3004895 30.0758918 79.6388785 218 222 230
18.306987 30.0758918 81.2302672 218 222 230
4.16333634e-17 30.67525 78.6714654 218 222 230
0.0111292082 30.67525 78.76129 218 222 230
0.0422651495 30.67525 78.8427122 218 222 230
0.0878258067 30.67525 78.9100782 218 222 230
0.147649392 30.67525 78.9662294 218 222 230
0.217245832 30.67525 79.0072049 218 222 230
0.291041274 30.67525 79.0313727 218 222 230
0.330053732 30.67525 79.0375532 218 222 230
0.368054799 30.67525 79.0395202 218 222 230
0.306712332 30.5201107 79.0599276 218 222 230
0.245369866 30.3755683 79.1198173 218 222 230
0.184027399 30.251452 79.2150805 218 222 230
0.122684933 30.1561889 79.3391967 218 222 230
0.0613424665 30.0962991 79.4837391 218 222 230
-1.53052445e-31 30.0758918 79.6388785 218 222 230
0 30.1042801 79.211344 218 222 230
0 30.1698884 79.0075649 218 222 230
0 30.2548098 78.8712902 218 222 230
0 30.3399036 78.7859726 218 222 230
0 30.4516646 78.7163744 218 222 230
0 30.5608207 78.6807596 218 222 230
0.0329899078 30.1700211 79.2315936 218 222 230
0.0480816943 30.4509495 78.9456536 218 222 230
0.122093563 30.5001452 78.99628 218 222 230
0.213356138 30.5401291 79.0351188 218 222 230
0.0173289703 30.1074109 79.3567025 218 222 230
0.0348807338 30.1444099 79.2934513 218 222 230
0 0 81.2302672 218 222 230
89.752916 0 81.2302672 218 222 230
90.5018747 0.092514421 81.2302672 218 222 230
91.1808046 0.351254738 81.2302672 218 222 230
91.7429672 0.729890738 81.2302672 218 222 230
92.0470504 1.0259761 81.2302672 218 222 230
92.3550768 1.4340648 81.2302672 218 222 230
92.5877029 1.8789807 81.2302672 218 222 230
92.7412445 2.34080683 81.2302672 218 222 230
92.8092583 2.71433914 81.2302672 218 222 230
92.8308043 3.07788826 81.2302672 218 222 230
92.8308043 66.5162515 81.2302672 218 222 230
89.5221822 69.8248737 81.2302672 218 222 230
90.2981388 69.732596 81.2302672 218 222 230
91.0037079 69.4746399 81.2302672 218 222 230
91.5939117 69.0959641 81.2302672 218 222 230
91.9289821 68.7865586 81.2302672 218 222 230
92.2612232 68.3722242 81.2302672 218 222 230
92.5195285 67.9172851 81.2302672 218 222 230
92.6989852 67.4408611 81.2302672 218 222 230
92.7992265 66.9722788 81.2302672 218 222 230
0 69.8248737 81.2302672 218 222 230
0 35.5993213 81.2302672 218 222 230
18.4031932 35.5993213 81.2302672 218 222 230
18.42689 35.5966514 81.2302672 218 222 230
18.4493986 35.5887753 81.2302672 218 222 230
18.4695903 35.576088 81.2302672 218 222 230
18.4864525 35.5592258 81.2302672 218 222 230
18.4991397 35.5390341 81.2302672 218 222 230
18.5070158 35.5165255 81.2302672 218 222 230
18.5096858 35.4928287 81.2302672 218 222 230
18.5096858 30.2785907 81.2302672 218 222 230
18.306987 30.0758918 81.2302672 218 222 230
18.3565162 30.0820362 81.2302672 218 222 230
18.4013492 30.0991956 81.2302672 218 222 230
18.438412 30.1242719 81.2302672 218 222 230
18.4693034 30.1571814 81.2302672 218 222 230
18.4918625 30.1954771 81.2302672 218 222 230
18.5051867 30.2361208 81.2302672 218 222 230
18.5085989 30.2576278 81.2302672 218 222 230
0 30.0758918 81.2302672 218 222 230
50.77278 21.7497568 81.2302672 218 222 230
50.6142726 23.7637846 81.2302672 218 222 230
50.1426533 25.7282204 81.2302672 218 222 230
49.3695349 27.5946932 81.2302672 218 222 230
48.3139543 29.3172442 81.2302672 218 222 230
47.0019033 30.8534586 81.2302672 218 222 230
45.4656889 32.1655097 81.2302672 218 222 230
43.7431378 33.2210903 81.2302672 218 222 230
41.876665 33.9942086 81.2302672 218 222 230
39.9122293 34.4658279 81.2302672 218 222 230
37.8982015 34.6243354 81.2302672 218 222 230
35.8841737 34.4658279 81.2302672 218 222 230
33.9197379 33.9942086 81.2302672 218 222 230
32.0532651 33.2210903 81.2302672 218 222 230
30.3307141 32.1655097 81.2302672 218 222 230
28.7944997 30.8534586 81.2302672 218 222 230
27.4824486 29.3172442 81.2302672 218 222 230
26.426868 27.5946932 81.2302672 218 222 230
25.6537496 25.7282204 81.2302672 218 222 230
25.1821303 23.7637846 81.2302672 218 222 230
25.0236229 21.7497568 81.2302672 218 222 230
25.1821303 19.735729 81.2302672 218 222 230
25.6537496 17.7712933 81.2302672 218 222 230
26.426868 15.9048205 81.2302672 218 222 230
27.4824486 14.1822694 81.2302672 218 222 230
28.7944997 12.646055 81.2302672 218 222 230
30.3307141 11.334004 81.2302672 218 222 230
32.0532651 10.2784234 81.2302672 218 222 230
33.9197379 9.50530502 81.2302672 218 222 230
35.8841737 9.03368572 81.2302672 218 222 230
37.8982015 8.87517829 81.2302672 218 222 230
39.9122293 9.03368572 81.2302672 218 222 230
41.876665 9.50530502 81.2302672 218 222 230
43.7431378 10.2784234 81.2302672 218 222 230
45.4656889 11.334004 81.2302672 218 222 230
47.0019033 12.646055 81.2302672 218 222 230
48.3139543 14.1822694 81.2302672 218 222 230
49.3695349 15.9048205 81.2302672 218 222 230
50.1426533 17.7712933 81.2302672 218 222 230
50.6142726 19.735729 81.2302672 218 222 230
2.77555756e-17 35.5993213 78.88106 218 222 230
0.00479168348 35.5993213 78.9197333 218 222 230
0.0181969256 35.5993213 78.9547882 218 222 230
0.0378121854 35.5993213 78.9837912 218 222 230
0.0635678354 35.5993213 79.0079658 218 222 230
0.0935310978 35.5993213 79.0256071 218 222 230
0.125302624 35.5993213 79.0360123 218 222 230
0.142099068 35.5993213 79.0386733 218 222 230
0.158460262 35.5993213 79.0395202 218 222 230
0.368054799 30.67525 79.0395202 218 222 230
4.16333634e-17 30.67525 78.6714654 218 222 230
0.0111292082 30.67525 78.76129 218 222 230
0.0422651495 30.67525 78.8427122 218 222 230
0.0878258067 30.67525 78.9100782 218 222 230
0.147649392 30.67525 78.9662294 218 222 230
0.217245832 30.67525 79.0072049 218 222 230
0.291041274 30.67525 79.0313727 218 222 230
0.330053732 30.67525 79.0375532 218 222 230
0 0 0 218 222 230
91.0652742 0 0 218 222 230
0 0 81.2302672 218 222 230
89.752916 0 81.2302672 218 222 230
90.7837237 -2.17107934e-16 21.6628346 218 222 230
90.1876604 2.57883932e-17 51.4465509 218 222 230
89.9017742 1.07917782e-16 67.7214061 218 222 230
18.4031932 35.5993213 81.2302672 218 222 230
0 35.5993213 81.2302672 218 222 230
18.4031932 35.5993213 79.0395202 218 222 230
0.158460262 35.5993213 79.0395202 218 222 230
2.77555756e-17 35.5993213 78.88106 218 222 230
0.00479168348 35.5993213 78.9197333 218 222 230
0.0181969256 35.5993213 78.9547882 218 222 230
0.0378121854 35.5993213 78.9837912 218 222 230
0.0635678354 35.5993213 79.0079658 218 222 230
0.0935310978 35.5993213 79.0256071 218 222 230
0.125302624 35.5993213 79.0360123 218 222 230
0.142099068 35.5993213 79.0386733 218 222 230
0 35.5993213 79.0395202 218 222 230
0 0 0 218 222 230
91.0652742 0 0 218 222 230
91.4535924 0.043233531 0 218 222 230
91.8469269 0.182458549 0 218 222 230
92.2095182 0.420984738 0 218 222 230
92.3836101 0.59118478 0 218 222 230
92.5778716 0.854955759 0 218 222 230
92.7175124 1.1432719 0 218 222 230
92.8005735 1.44021081 0 218 222 230
92.8234814 1.60489478 0 218 222 230
92.8308043 1.76553007 0 218 222 230
92.8308043 67.0633795 0 218 222 230
90.0693101 69.8248737 0 218 222 230
90.7071602 69.7501986 0 218 222 230
91.3506873 69.5095852 0 218 222 230
91.881074 69.1474528 0 218 222 230
92.150559 68.8783873 0 218 222 230
92.4101409 68.528426 0 218 222 230
92.6084477 68.1490269 0 218 222 230
92.7426502 67.7555518 0 218 222 230
92.8096238 67.404746 0 218 222 230
68.6438819 69.8248737 0 218 222 230
68.6438819 54.0014397 0 218 222 230
0 54.0014397 0 218 222 230
77.5931706 48.8884257 0 218 222 230
79.8316414 54.2066959 0 218 222 230
85.9918632 54.9820376 0 218 222 230
86.5970449 55.0582073 -1.11022302e-16 218 222 230
89.1358111 51.7103134 -8.32667268e-17 218 222 230
89.4156672 51.264635 -7.1956029e-17 218 222 230
89.5758475 50.8193703 -5.92008873e-17 218 222 230
89.6235286 50.3960877 -4.87558365e-17 218 222 230
89.5863564 49.9713569 -3.84396504e-17 218 222 230
89.3752785 49.2056016 -1.92198213e-17 218 222 230
89.0830853 48.4658972 0 218 222 230
87.3347943 44.3122204 0 218 222 230
87.2480208 44.1060596 3.94919579e-17 218 222 230
81.2151273 43.095341 1.80411242e-16 218 222 230
79.8673216 44.7813435 -3.35777563e-17 218 222 230
77.2832379 47.8276098 1.94289029e-16 218 222 230
77.2469716 47.8819071 7.04055947e-16 218 222 230
77.2263827 47.9368746 1.05646935e-15 218 222 230
77.2186413 47.989196 1.29782962e-15 218 222 230
77.2200407 48.0420885 1.47298981e-15 218 222 230
77.2351526 48.1212933 1.62541264e-15 218 222 230
77.2660713 48.2126463 1.65217752e-15 218 222 230
77.3901416 48.47121 1.07118709e-15 218 222 230
68.6438819 54.0014397 0 218 222 230
0 54.0014397 0 218 222 230
0 54.0014397 67.8467503 218 222 230
0 69.8248737 67.8467503 218 222 230
0 54.0014397 67.8467503 218 222 230
68.6438819 54.0014397 0 218 222 230
68.6438819 69.8248737 0 218 222 230
68.6438819 69.8248737 0 218 222 230
90.0693101 69.8248737 0 218 222 230
0 69.8248737 67.8467503 218 222 230
0 69.8248737 81.2302672 218 222 230
89.5221822 69.8248737 81.2302672 218 222 230
89.7957461 69.8248737 40.6151336 218 222 230
18.3004895 30.0758918 79.6388785 255 79 163
18.3908314 30.0966987 79.4823261 255 79 163
18.4558368 30.1458437 79.3578816 255 79 163
18.4853147 30.1883922 79.2893077 255 79 163
18.5034936 30.2363183 79.2307495 255 79 163
18.5081756 30.2619826 79.2047814 255 79 163
18.5096858 30.2873027 79.1820118 255 79 163
-1.53052445e-31 30.0758918 79.6388785 255 79 163
0.368054799 30.67525 79.0395202 255 79 163
0.306712332 30.5201107 79.0599276 255 79 163
0.245369866 30.3755683 79.1198173 255 79 163
0.184027399 30.251452 79.2150805 255 79 163
0.122684933 30.1561889 79.3391967 255 79 163
0.0613424665 30.0962991 79.4837391 255 79 163
18.5096858 30.67525 79.0395202 255 79 163
18.5096858 30.4041655 79.1043287 255 79 163
18.5096858 30.5358882 79.0559475 255 79 163
18.306987 30.0758918 81.2302672 218 222 230
18.3565162 30.0820362 81.2302672 218 222 230
18.4013492 30.0991956 81.2302672 218 222 230
18.438412 30.1242719 81.2302672 218 222 230
18.4693034 30.1571814 81.2302672 218 222 230
18.4918625 30.1954771 81.2302672 218 222 230
18.5051867 30.2361208 81.2302672 218 222 230
18.5085989 30.2576278 81.2302672 218 222 230
18.5096858 30.2785907 81.2302672 218 222 230
18.5096858 30.2873027 79.1820118 218 222 230
18.3004895 30.0758918 79.6388785 218 222 230
18.3908314 30.0966987 79.4823261 218 222 230
18.4558368 30.1458437 79.3578816 218 222 230
18.4853147 30.1883922 79.2893077 218 222 230
18.5034936 30.2363183 79.2307495 218 222 230
18.5081756 30.2619826 79.2047814 218 222 230
18.4127244 30.1067672 80.4345729 218 222 230
18.4313656 30.119828 80.4345729 218 222 230
18.4407017 30.1276328 80.4345729 218 222 230
18.4495796 30.135998 80.4345729 218 222 230
18.4801982 30.1753789 80.3562967 218 222 230
18.4794599 30.1778702 79.332169 218 222 230
18.4009148 30.1008206 79.9975876 218 222 230
18.4821268 30.1814891 79.5897997 218 222 230
18.4020189 30.1022331 79.6143391 218 222 230
91.0652742 0 0 218 222 230
91.4535924 0.043233531 0 218 222 230
91.8469269 0.182458549 0 218 222 230
92.2095182 0.420984738 0 218 222 230
92.3836101 0.59118478 0 218 222 230
92.5778716 0.854955759 0 218 222 230
92.7175124 1.1432719 0 218 222 230
92.8005735 1.44021081 0 218 222 230
92.8234814 1.60489478 0 218 222 230
92.8308043 1.76553007 0 218 222 230
92.8308043 2.0470806 21.6628346 218 222 230
92.8308043 2.64314383 51.4465509 218 222 230
92.8308043 2.92903009 67.7214061 218 222 230
92.8308043 3.07788826 81.2302672 218 222 230
89.752916 0 81.2302672 218 222 230
90.5018747 0.092514421 81.2302672 218 222 230
91.1808046 0.351254738 81.2302672 218 222 230
91.7429672 0.729890738 81.2302672 218 222 230
92.0470504 1.0259761 81.2302672 218 222 230
92.3550768 1.4340648 81.2302672 218 222 230
92.5877029 1.8789807 81.2302672 218 222 230
92.7412445 2.34080683 81.2302672 218 222 230
92.8092583 2.71433914 81.2302672 218 222 230
90.7837237 -2.17107934e-16 21.6628346 218 222 230
90.1876604 2.57883932e-17 51.4465509 218 222 230
89.9017742 1.07917782e-16 67.7214061 218 222 230
91.5772886 0.106569197 10.8314173 218 222 230
91.6752623 0.129545242 7.22094486 218 222 230
90.8135804 0.170302604 74.4758367 218 222 230
92.7204246 2.20789749 74.4758367 218 222 230
90.9337157 0.223040957 76.7273135 218 222 230
92.5659755 1.79906339 76.7273135 218 222 230
92.6638154 1.03049097 2.40698162 218 222 230
92.5849741 0.880387627 2.40698162 218 222 230
92.7108693 1.1410341 2.40698162 218 222 230
92.498565 0.75452901 3.61047243 218 222 230
92.3954545 0.622989234 3.61047243 218 222 230
92.4619438 0.69779278 2.40698162 218 222 230
92.550589 0.831844694 3.61047243 218 222 230
92.5982711 0.91129851 3.61047243 218 222 230
92.5128866 0.800778275 7.22094486 218 222 230
91.8827488 0.227464416 7.22094486 218 222 230
92.7083013 1.17353731 7.22094486 218 222 230
92.7762714 1.44222572 12.0349081 218 222 230
91.5886174 0.131923081 15.6453805 218 222 230
91.5933711 0.146207771 18.0523622 218 222 230
91.8171716 0.262365092 19.255853 218 222 230
92.6980769 1.27148318 18.0523622 218 222 230
92.2920215 0.591241042 14.4418897 218 222 230
92.580782 1.0356474 19.255853 218 222 230
92.2312282 0.599576025 21.6628346 218 222 230
91.5372432 0.143729007 21.6628346 218 222 230
92.6870753 1.29356106 21.6628346 218 222 230
92.7661314 1.61682269 26.6267873 218 222 230
92.6465346 1.24566289 24.9721364 218 222 230
91.4488518 0.153550275 29.1087637 218 222 230
91.7379655 0.273209685 26.6267873 218 222 230
91.1402701 0.0676213651 31.59074 218 222 230
91.8748932 0.387104483 29.9360891 218 222 230
91.4892344 0.198457077 33.2453909 218 222 230
92.1461509 0.68465339 36.5546928 218 222 230
91.5838233 0.311745238 41.5186455 218 222 230
92.6204242 1.4221694 39.8639946 218 222 230
92.5451389 1.14266159 31.59074 218 222 230
92.7570094 1.84487154 41.5186455 218 222 230
92.655842 1.57465999 44.0006218 218 222 230
92.3959974 1.07370682 43.1732964 218 222 230
90.9084116 0.0768957049 46.4825982 218 222 230
91.3077634 0.225301903 48.1372491 218 222 230
92.5965976 1.5832372 53.2548682 218 222 230
92.6452246 1.67021657 51.4465509 218 222 230
92.7492801 2.0381041 54.1590268 218 222 230
90.7539395 0.08307459 56.8715027 218 222 230
91.1107844 0.19111332 55.5152647 218 222 230
91.6461692 0.479728264 55.967344 218 222 230
91.1970807 0.241675082 57.7756613 218 222 230
91.3778665 0.363234441 62.2964544 218 222 230
92.0116899 0.819114398 59.5839785 218 222 230
92.5835187 1.67165071 61.3922958 218 222 230
92.479857 1.40378922 56.8715027 218 222 230
92.7448211 2.14957857 62.2964544 218 222 230
90.6477791 0.0873210059 65.0089303 218 222 230
92.6295753 1.81106101 63.6526923 218 222 230
92.3285633 1.24022771 63.200613 218 222 230
91.1155922 0.253729593 65.9130889 218 222 230
90.9799347 0.205652179 67.7214061 218 222 230
90.9273723 0.201409889 71.4738675 218 222 230
90.9843858 0.217695021 69.972883 218 222 230
92.6645443 1.99893591 71.4738675 218 222 230
92.6325083 1.89541832 69.972883 218 222 230
91.4426181 0.471362277 73.3500983 218 222 230
91.9939559 0.915335574 72.2243598 218 222 230
90.9993882 0.242516409 74.4758367 218 222 230
92.0017945 0.934281749 73.7253444 218 222 230
92.4413068 1.52432677 73.3500983 218 222 230
92.6475807 1.98115451 74.4758367 218 222 230
92.0058672 0.943698791 74.4758367 218 222 230
91.7754044 0.728869906 75.226329 218 222 230
91.2542787 0.37546817 76.7273135 218 222 230
92.1050314 1.06152709 75.6015751 218 222 230
92.283012 1.29403458 75.9768213 218 222 230
92.0287125 0.982516947 76.7273135 218 222 230
92.03442 0.99734717 78.2282981 218 222 230
91.6936381 0.117403247 0.802327207 218 222 230
92.0023656 0.2731615 1.20349081 218 222 230
91.8124093 0.169093755 1.20349081 218 222 230
91.7650569 0.149284816 1.80523622 218 222 230
92.0234295 0.289580237 2.00581802 218 222 230
91.7367613 0.142468356 3.61047243 218 222 230
92.3847149 0.642928249 8.42443568 218 222 230
92.3128277 0.568409035 9.02618108 218 222 230
91.6928915 0.151627001 10.8314173 218 222 230
92.5183802 0.832695317 10.0290901 218 222 230
92.3889923 0.672436775 11.4331627 218 222 230
92.3579502 0.645074267 12.4360717 218 222 230
92.2688567 0.582089544 16.0465441 218 222 230
92.2569273 0.577547153 16.8488714 218 222 230
92.0547389 0.404063315 17.250035 218 222 230
92.2627976 0.595012539 18.0523622 218 222 230
92.1578019 0.500990406 18.6541076 218 222 230
92.0496862 0.413593352 18.8546894 218 222 230
92.3816317 0.731828949 18.4535258 218 222 230
91.3469187 0.0864570675 23.3174855 218 222 230
91.91646 0.370271658 24.9721364 218 222 230
92.1638589 0.575070237 25.5236867 218 222 230
92.2764415 0.692473913 25.7994619 218 222 230
92.4926676 0.977215044 26.075237 218 222 230
92.3978395 0.848610901 26.6267873 218 222 230
92.1280074 0.562626883 27.4541128 218 222 230
92.2991678 0.742533527 27.8677755 218 222 230
92.1696391 0.613954662 28.5572134 218 222 230
92.4494148 0.941798503 28.2814382 218 222 230
92.482483 1.00664834 29.3845388 218 222 230
91.9206529 0.430188712 31.0391897 218 222 230
91.9435049 0.452703741 31.59074 218 222 230
91.798892 0.357063052 32.1422903 218 222 230
92.0959537 0.588287594 32.4180655 218 222 230
92.1805707 0.754117044 39.3124443 218 222 230
92.1980459 0.790400647 40.69132 218 222 230
92.444888 1.11529805 40.9670952 218 222 230
92.3367709 0.968305378 41.5186455 218 222 230
92.3567953 1.00286187 42.0701958 218 222 230
91.6892425 0.395004077 43.7248467 218 222 230
91.7422561 0.44081704 44.8279473 218 222 230
92.1245451 0.760567502 44.5521721 218 222 230
91.9664503 0.618856971 45.24161 218 222 230
92.1712155 0.82391544 45.6552727 218 222 230
92.5059596 1.2993788 46.4825982 218 222 230
91.8218109 0.514792524 46.4825982 218 222 230
91.6579809 0.405821236 47.0341485 218 222 230
91.9958353 0.668437771 47.3099237 218 222 230
92.1341658 0.807935789 47.5856988 218 222 230
92.3780824 1.11794591 48.1372491 218 222 230
91.9010233 0.5950598 48.1372491 218 222 230
92.6628319 1.67077827 48.6887994 218 222 230
92.7523818 1.96056206 48.9645746 218 222 230
92.7221476 1.86490318 49.7919 218 222 230
91.0071488 0.133524396 52.0493233 218 222 230
91.1605877 0.185579619 51.4465509 218 222 230
92.0566454 0.774158904 51.4465509 218 222 230
91.6686729 0.470615178 53.2548682 218 222 230
90.9296118 0.110771024 52.3507095 218 222 230
92.6989811 1.80042046 50.3434503 218 222 230
90.8125706 0.0807293463 52.8027889 218 222 230
91.4532141 0.344397554 54.1590268 218 222 230
91.1052773 0.173476537 52.953482 218 222 230
92.2122255 0.966529397 53.2548682 218 222 230
91.9854237 0.728925052 53.5562544 218 222 230
92.12909 0.876535801 53.7069475 218 222 230
92.403379 1.23525915 53.8576406 218 222 230
92.2850257 1.06972606 54.1590268 218 222 230
92.095584 0.852681544 54.7617992 218 222 230
92.3540796 1.1772181 55.0631854 218 222 230
92.3978945 1.25110931 55.6659578 218 222 230
91.7093965 0.530040384 56.5701164 218 222 230
91.7407342 0.556158214 56.8715027 218 222 230
91.5667744 0.437380583 57.1728889 218 222 230
91.9319745 0.719561792 57.323582 218 222 230
91.9586333 0.75202494 58.0770475 218 222 230
92.0642573 0.889013059 61.0909096 218 222 230
92.0903047 0.924983869 61.8443751 218 222 230
92.3798362 1.30329784 61.9950682 218 222 230
92.2551742 1.12823492 62.2964544 218 222 230
92.280108 1.16510945 62.5978406 218 222 230
91.5159805 0.454956305 63.5019992 218 222 230
91.5841762 0.504832862 64.1047716 218 222 230
91.9244063 0.781537059 64.4061578 218 222 230
92.461918 1.47554489 65.0089303 218 222 230
91.6850145 0.584586631 65.0089303 218 222 230
91.5026807 0.459558334 65.3103165 218 222 230
91.8865836 0.755899677 65.4610096 218 222 230
92.0441031 0.912387159 65.6117027 218 222 230
92.3209597 1.25900383 65.9130889 218 222 230
91.7837073 0.670142056 65.9130889 218 222 230
91.9729112 0.857893051 67.7214061 218 222 230
92.6421547 1.87644921 66.2144751 218 222 230
90.616619 0.0909704074 68.4718984 218 222 230
91.338865 0.385698872 69.2223907 218 222 230
92.7428479 2.19891003 66.3651682 218 222 230
92.7094312 2.08315803 66.8172475 218 222 230
92.6839473 2.00574913 67.1186337 218 222 230
92.6251521 1.85086961 67.7214061 218 222 230
91.6756763 0.610832365 69.4725548 218 222 230
91.9795133 0.87710977 69.2223907 218 222 230
91.8332086 0.741607235 69.5976368 218 222 230
92.743959 2.2305767 68.4718984 218 222 230
92.462628 1.52319256 69.2223907 218 222 230
92.1633438 1.08588288 69.7227189 218 222 230
91.9829693 0.886697931 69.972883 218 222 230
91.6620606 0.607270202 70.4732112 218 222 230
91.962521 0.871940011 70.7233753 218 222 230
92.2553127 1.21565315 70.9735394 218 222 230
91.9952231 0.911017925 71.4738675 218 222 230
91.9947906 0.912466059 71.7240316 218 222 230
92.0073368 0.937485995 73.3500983 218 222 230
90.9483953 0.235155234 78.7286263 218 222 230
90.956416 0.241284663 79.7292827 218 222 230
91.3235921 0.426138802 79.7292827 218 222 230
90.8060092 0.183587709 80.2296109 218 222 230
91.27635 0.400424091 80.2296109 218 222 230
92.6165475 1.93389134 78.7286263 218 222 230
92.5645142 1.81678766 79.7292827 218 222 230
92.4761267 1.63509102 79.7292827 218 222 230
92.6399106 2.00165423 79.7292827 218 222 230
92.634315 1.98984363 80.2296109 218 222 230
92.716087 2.23914849 80.2296109 218 222 230
92.1830452 0.55852698 22.2143849 218 222 230
92.1582851 0.538387907 22.49016 218 222 230
92.0492285 0.46398843 24.4205861 218 222 230
92.1125195 0.514274905 24.144811 218 222 230
92.1006701 0.786278355 48.6887994 218 222 230
92.3545986 1.08813899 48.4130243 218 222 230
92.4080496 1.1743184 48.9645746 218 222 230
92.1932695 0.89044108 48.9645746 218 222 230
92.5060762 1.33558556 48.8726495 218 222 230
91.8889719 0.602772705 49.7919 218 222 230
92.3771353 1.14980774 50.5273004 218 222 230
92.1160683 0.828924612 50.8950006 218 222 230
92.1449295 0.856750121 50.6192255 218 222 230
92.0965107 0.810534878 51.0788507 218 222 230
91.3352927 0.377030654 68.0966523 218 222 230
92.4581306 1.50328277 68.0966523 218 222 230
91.7660027 0.744275714 79.8960587 218 222 230
91.9847252 0.951658977 79.7292827 218 222 230
91.9657382 0.933069393 79.9794468 218 222 230
92.099566 1.08165108 80.2296109 218 222 230
92.2394603 1.25816023 80.0628348 218 222 230
92.0822365 1.06301366 80.563163 218 222 230
91.8904112 0.338541521 23.3174855 218 222 230
92.3511838 0.749406977 23.3174855 218 222 230
92.7077649 1.35618956 22.2143849 218 222 230
92.7175127 1.38782208 22.49016 218 222 230
92.6960025 1.34083858 23.3174855 218 222 230
91.1456783 0.169414806 49.7919 218 222 230
91.0628 0.14432688 50.6192255 218 222 230
91.0953151 0.157451115 50.8950006 218 222 230
92.4053354 1.18185804 49.7919 218 222 230
91.974523 0.862701114 68.0966523 218 222 230
91.6414543 0.428165971 50.6192255 218 222 230
92.8308043 3.07788826 81.2302672 218 222 230
92.8308043 66.5162515 81.2302672 218 222 230
92.8308043 1.76553007 0 218 222 230
92.8308043 2.0470806 21.6628346 218 222 230
92.8308043 2.64314383 51.4465509 218 222 230
92.8308043 2.92903009 67.7214061 218 222 230
92.8308043 67.0633795 0 218 222 230
92.8308043 66.7898155 40.6151336 218 222 230
90.0693101 69.8248737 0 218 222 230
90.7071602 69.7501986 0 218 222 230
91.3506873 69.5095852 0 218 222 230
91.881074 69.1474528 0 218 222 230
92.150559 68.8783873 0 218 222 230
92.4101409 68.528426 0 218 222 230
92.6084477 68.1490269 0 218 222 230
92.7426502 67.7555518 0 218 222 230
92.8096238 67.404746 0 218 222 230
92.8308043 67.0633795 0 218 222 230
92.8308043 66.7898155 40.6151336 218 222 230
92.8308043 66.5162515 81.2302672 218 222 230
89.5221822 69.8248737 81.2302672 218 222 230
90.2981388 69.732596 81.2302672 218 222 230
91.0037079 69.4746399 81.2302672 218 222 230
91.5939117 69.0959641 81.2302672 218 222 230
91.9289821 68.7865586 81.2302672 218 222 230
92.2612232 68.3722242 81.2302672 218 222 230
92.5195285 67.9172851 81.2302672 218 222 230
92.6989852 67.4408611 81.2302672 218 222 230
92.7992265 66.9722788 81.2302672 218 222 230
89.7957461 69.8248737 40.6151336 218 222 230
90.6244508 69.7473071 20.3075668 218 222 230
91.0793182 69.6133722 13.5383779 218 222 230
90.6519534 69.6572472 60.9227004 218 222 230
92.7594001 67.2960716 60.9227004 218 222 230
90.7614617 69.6039789 67.6918894 218 222 230
92.4744226 68.4013578 6.76918894 218 222 230
92.5300111 68.3046705 4.51279262 218 222 230
92.6344333 68.0733348 4.51279262 218 222 230
92.3733143 68.5676949 6.76918894 218 222 230
92.3944958 68.5419415 4.51279262 218 222 230
92.3463721 68.5826394 13.5383779 218 222 230
91.9650652 69.0567091 6.76918894 218 222 230
92.1192199 68.8978714 6.76918894 218 222 230
92.2600051 68.7276684 6.76918894 218 222 230
91.3867376 69.4648752 13.5383779 218 222 230
92.6437136 68.0118752 13.5383779 218 222 230
91.2193034 69.528359 22.5639631 218 222 230
90.9283518 69.6571699 20.3075668 218 222 230
91.3621774 69.4494469 23.6921613 218 222 230
92.7484379 67.6237963 22.5639631 218 222 230
90.8598057 69.6608769 29.3331521 218 222 230
90.9799071 69.6037374 33.8459447 218 222 230
92.633572 67.9135984 33.8459447 218 222 230
90.8105921 69.6211861 51.8971152 218 222 230
90.8895257 69.6023435 47.3843226 218 222 230
92.673798 67.6728444 51.8971152 218 222 230
92.6188926 67.8567735 47.3843226 218 222 230
91.3336078 69.3449262 57.538106 218 222 230
91.9299178 68.8806708 54.1535115 218 222 230
92.4605003 68.1372096 57.538106 218 222 230
92.3994709 68.246961 57.538106 218 222 230
92.5543145 67.9382484 58.6663041 218 222 230
91.9270901 68.8627614 58.6663041 218 222 230
92.7002553 67.5285827 60.9227004 218 222 230
92.6222141 67.7603618 60.9227004 218 222 230
92.756825 67.2349546 74.4610783 218 222 230
92.522227 67.9599032 67.6918894 218 222 230
91.0496026 69.6435749 1.50426421 218 222 230
91.4712885 69.4405207 1.50426421 218 222 230
91.2188718 69.5716371 2.25639631 218 222 230
91.5305853 69.4033476 2.25639631 218 222 230
91.0479913 69.6421062 3.38459447 218 222 230
91.4820151 69.4306289 3.76066052 218 222 230
91.0598762 69.632996 6.76918894 218 222 230
91.6662527 69.2790167 15.7947742 218 222 230
92.1516244 68.8291137 15.7947742 218 222 230
91.799189 69.1718437 16.9229723 218 222 230
92.0426544 68.9451856 16.9229723 218 222 230
92.3566299 68.5432408 18.8033026 218 222 230
91.8820634 69.0813871 21.811831 218 222 230
91.104883 69.587336 20.3075668 218 222 230
92.1624024 68.7914468 21.435765 218 222 230
92.2049925 68.7337234 22.5639631 218 222 230
91.9551605 69.0080876 22.9400292 218 222 230
92.255902 68.6648295 23.1280622 218 222 230
92.1821936 68.7528118 24.4442934 218 222 230
92.0217938 68.9219022 27.0767557 218 222 230
92.4808189 68.3038242 24.8203594 218 222 230
91.4792331 69.3634507 28.2049539 218 222 230
91.9617983 68.9685832 30.0852842 218 222 230
91.9308654 68.9916675 31.5895484 218 222 230
91.6386102 69.2369695 32.3416805 218 222 230
92.1610028 68.7251963 34.5980768 218 222 230
92.4589114 68.2745208 36.102341 218 222 230
91.8267074 69.0720846 34.9741428 218 222 230
91.9827275 68.9289095 33.8459447 218 222 230
91.6655417 69.2036947 35.3502089 218 222 230
91.319347 69.4311734 36.102341 218 222 230
91.9692766 68.9312137 36.102341 218 222 230
90.5615235 69.731078 38.3587373 218 222 230
92.7421944 67.534987 38.3587373 218 222 230
90.526159 69.731383 42.8715299 218 222 230
91.2686266 69.4274011 45.1279262 218 222 230
92.7395592 67.5113056 42.8715299 218 222 230
92.4428966 68.2456359 45.1279262 218 222 230
91.6178002 69.1942684 45.8800584 218 222 230
91.9374766 68.9174525 45.1279262 218 222 230
91.7814637 69.0586267 46.2561244 218 222 230
92.1264232 68.700759 46.6321905 218 222 230
91.9354032 68.9081997 47.3843226 218 222 230
91.5941613 69.1993228 48.8885868 218 222 230
92.2314383 68.5444851 50.392851 218 222 230
91.9650922 68.8552189 51.8971152 218 222 230
91.9534405 68.8636931 52.6492473 218 222 230
92.3780033 68.3090223 53.0253133 218 222 230
91.9341453 68.8605915 57.538106 218 222 230
91.3299454 69.3396588 59.7945023 218 222 230
90.8495582 69.5833173 60.9227004 218 222 230
91.9259882 68.8540174 60.9227004 218 222 230
92.4307018 68.1694018 61.6748325 218 222 230
92.508225 68.0200021 61.6748325 218 222 230
92.3111944 68.3664075 62.0508986 218 222 230
92.2391121 68.4724496 62.0508986 218 222 230
92.3787147 68.2580215 62.0508986 218 222 230
92.2718338 68.4218014 62.8030307 218 222 230
92.0253933 68.7322353 64.3072949 218 222 230
91.6721306 69.0801655 63.1790967 218 222 230
92.4943783 68.0430806 62.6149977 218 222 230
92.2155454 68.4897321 65.4354931 218 222 230
91.4412275 69.246488 65.9995921 218 222 230
91.7269298 69.0239242 65.8115591 218 222 230
91.7110855 69.0351052 66.5636912 218 222 230
91.5637449 69.1552236 66.5636912 218 222 230
91.9328559 68.8198872 67.6918894 218 222 230
91.4134275 69.2627907 66.9397573 218 222 230
91.0978158 69.4505353 67.6918894 218 222 230
92.480963 68.0280645 71.4525499 218 222 230
90.7771367 69.5872021 73.7089462 218 222 230
92.459368 68.0628675 73.3328802 218 222 230
91.9302195 68.8073778 72.204682 218 222 230
90.7871112 69.5787519 76.7174746 218 222 230
91.695433 69.021359 75.9653425 218 222 230
91.5701452 69.1207115 77.8456728 218 222 230
91.8952004 68.8285873 77.8456728 218 222 230
91.1683995 69.3892965 78.9738709 218 222 230
91.6211427 69.0776617 78.9738709 218 222 230
91.9820702 68.7333778 78.9738709 218 222 230
92.152235 68.5312002 77.8456728 218 222 230
92.2238458 68.4311505 78.9738709 218 222 230
92.3504846 68.2413082 77.8456728 218 222 230
92.3984963 68.1567394 78.9738709 218 222 230
92.460035 68.0466775 77.8456728 218 222 230
92.2410881 68.7680558 0.501421403 218 222 230
92.1466114 68.8814992 0.752132104 218 222 230
91.9582809 69.0755606 1.25355351 218 222 230
92.1697563 68.8539665 1.12819816 218 222 230
92.4204726 68.5101737 0.752132104 218 222 230
92.305045 68.6819647 1.12819816 218 222 230
92.4324143 68.4870102 2.25639631 218 222 230
92.1058111 68.9215116 3.38459447 218 222 230
92.191712 68.8228372 3.38459447 218 222 230
92.3179148 68.6576725 3.76066052 218 222 230
92.2246396 68.7794937 4.51279262 218 222 230
91.6938932 69.2863093 5.64099078 218 222 230
91.7514973 69.2042395 18.6779473 218 222 230
91.5285703 69.3609536 19.8061454 218 222 230
91.7272077 69.2201765 19.5554347 218 222 230
91.8038964 69.1582755 19.5554347 218 222 230
91.9301375 69.0437077 20.1822115 218 222 230
92.1385943 68.7632342 32.5923912 218 222 230
92.233526 68.6409565 33.0938126 218 222 230
92.1543662 68.7401636 33.3445233 218 222 230
91.3095853 69.4326666 37.2305392 218 222 230
91.9602079 68.932763 37.6066052 218 222 230
92.4550058 68.2743882 37.2305392 218 222 230
91.2899148 69.435667 39.4869355 218 222 230
91.9418563 68.9359257 40.6151336 218 222 230
90.912935 69.6117771 40.6151336 218 222 230
91.9510656 68.9343314 39.1108694 218 222 230
92.4471026 68.2741654 39.4869355 218 222 230
92.6177077 67.9070044 40.6151336 218 222 230
91.2771367 69.4347436 41.7433318 218 222 230
91.9403698 68.929781 42.1193978 218 222 230
92.4430427 68.2669815 41.7433318 218 222 230
91.2714368 69.4298546 43.9997281 218 222 230
91.9389077 68.9236209 43.623662 218 222 230
92.4429362 68.2527516 43.9997281 218 222 230
92.1207326 68.7008244 47.885744 218 222 230
92.2062375 68.5911493 48.1364547 218 222 230
92.1127603 68.7063714 48.6378761 218 222 230
91.9081359 68.9243074 49.6407189 218 222 230
91.702625 69.1059564 50.6435617 218 222 230
91.5938803 69.1900714 51.1449831 218 222 230
91.7231004 69.0854845 51.3956938 218 222 230
92.0105206 68.7720565 59.0423702 218 222 230
92.0509487 68.7254729 59.2304032 218 222 230
92.0102381 68.7689318 59.7945023 218 222 230
91.7234688 69.0436813 61.2987665 218 222 230
91.616289 69.1317415 61.4867995 218 222 230
91.6349581 69.1147476 62.0508986 218 222 230
91.5503112 69.1581743 68.9454429 218 222 230
91.9095812 68.8395773 68.9454429 218 222 230
91.759648 68.9821636 69.5722196 218 222 230
91.8978625 68.8494207 69.5722196 218 222 230
91.8176852 68.9254953 70.4497071 218 222 230
91.812168 68.9228334 73.0821695 218 222 230
91.7508904 68.9784315 73.5209132 218 222 230
91.7324942 68.9927896 74.335723 218 222 230
92.4093273 68.150774 74.5864337 218 222 230
92.3830983 68.1944737 75.2132104 218 222 230
92.4094999 68.1455364 76.0906979 218 222 230
90.345176 69.7216526 80.1020691 218 222 230
92.65819 67.575925 79.349937 218 222 230
92.7428376 67.2787889 79.53797 218 222 230
92.728357 67.3362162 80.1020691 218 222 230
92.7366316 67.7754105 1.12819816 218 222 230
91.6157283 69.2486388 33.595234 218 222 230
91.2997729 69.4341641 38.3587373 218 222 230
91.9556456 68.9335444 38.3587373 218 222 230
90.5427398 69.732595 40.0510345 218 222 230
92.4510692 68.274268 38.3587373 218 222 230
90.5338761 69.7326726 41.1792327 218 222 230
92.7398283 67.5316327 40.0510345 218 222 230
91.2742752 69.4323025 42.8715299 218 222 230
91.9396353 68.9267025 42.8715299 218 222 230
92.7391619 67.5257255 41.1792327 218 222 230
92.4429853 68.2598685 42.8715299 218 222 230
91.5550269 69.2335424 47.6350333 218 222 230
18.5096858 30.2785907 81.2302672 218 222 230
18.5096858 35.4928287 81.2302672 218 222 230
18.5096858 30.2873027 79.1820118 218 222 230
18.5096858 30.4041655 79.1043287 218 222 230
18.5096858 30.5358882 79.0559475 218 222 230
18.5096858 30.67525 79.0395202 218 222 230
18.5096858 35.4928287 79.0395202 218 222 230
18.4031932 35.5993213 81.2302672 218 222 230
18.42689 35.5966514 81.2302672 218 222 230
18.4493986 35.5887753 81.2302672 218 222 230
18.4695903 35.576088 81.2302672 218 222 230
18.4864525 35.5592258 81.2302672 218 222 230
18.4991397 35.5390341 81.2302672 218 222 230
18.5070158 35.5165255 81.2302672 218 222 230
18.5096858 35.4928287 81.2302672 218 222 230
18.5096858 35.4928287 79.0395202 218 222 230
18.4031932 35.5993213 79.0395202 218 222 230
18.42689 35.5966514 79.0395202 218 222 230
18.4493986 35.5887753 79.0395202 218 222 230
18.4695903 35.576088 79.0395202 218 222 230
18.4864525 35.5592258 79.0395202 218 222 230
18.4991397 35.5390341 79.0395202 218 222 230
18.5070158 35.5165255 79.0395202 218 222 230
50.77278 21.7497568 81.2302672 218 222 230
50.77278 21.7497568 69.6034406 218 222 230
50.6142726 23.7637846 69.6034406 218 222 230
50.1426533 25.7282204 69.6034406 218 222 230
49.3695349 27.5946932 69.6034406 218 222 230
48.3139543 29.3172442 69.6034406 218 222 230
47.0019033 30.8534586 69.6034406 218 222 230
45.4656889 32.1655097 69.6034406 218 222 230
43.7431378 33.2210903 69.6034406 218 222 230
41.876665 33.9942086 69.6034406 218 222 230
39.9122293 34.4658279 69.6034406 218 222 230
37.8982015 34.6243354 69.6034406 218 222 230
35.8841737 34.4658279 69.6034406 218 222 230
33.9197379 33.9942086 69.6034406 218 222 230
32.0532651 33.2210903 69.6034406 218 222 230
30.3307141 32.1655097 69.6034406 218 222 230
28.7944997 30.8534586 69.6034406 218 222 230
27.4824486 29.3172442 69.6034406 218 222 230
26.426868 27.5946932 69.6034406 218 222 230
25.6537496 25.7282204 69.6034406 218 222 230
25.1821303 23.7637846 69.6034406 218 222 230
25.0236229 21.7497568 69.6034406 218 222 230
25.1821303 19.735729 69.6034406 218 222 230
25.6537496 17.7712933 69.6034406 218 222 230
26.426868 15.9048205 69.6034406 218 222 230
27.4824486 14.1822694 69.6034406 218 222 230
28.7944997 12.646055 69.6034406 218 222 230
30.3307141 11.334004 69.6034406 218 222 230
32.0532651 10.2784234 69.6034406 218 222 230
33.9197379 9.50530502 69.6034406 218 222 230
35.8841737 9.03368572 69.6034406 218 222 230
37.8982015 8.87517829 69.6034406 218 222 230
39.9122293 9.03368572 69.6034406 218 222 230
41.876665 9.50530502 69.6034406 218 222 230
43.7431378 10.2784234 69.6034406 218 222 230
45.4656889 11.334004 69.6034406 218 222 230
47.0019033 12.646055 69.6034406 218 222 230
48.3139543 14.1822694 69.6034406 218 222 230
49.3695349 15.9048205 69.6034406 218 222 230
50.1426533 17.7712933 69.6034406 218 222 230
50.6142726 19.735729 69.6034406 218 222 230
50.77278 21.7497568 69.6034406 218 222 230
50.77278 21.7497568 81.2302672 218 222 230
50.6142726 23.7637846 81.2302672 218 222 230
50.1426533 25.7282204 81.2302672 218 222 230
49.3695349 27.5946932 81.2302672 218 222 230
48.3139543 29.3172442 81.2302672 218 222 230
47.0019033 30.8534586 81.2302672 218 222 230
45.4656889 32.1655097 81.2302672 218 222 230
43.7431378 33.2210903 81.2302672 218 222 230
41.876665 33.9942086 81.2302672 218 222 230
39.9122293 34.4658279 81.2302672 218 222 230
37.8982015 34.6243354 81.2302672 218 222 230
35.8841737 34.4658279 81.2302672 218 222 230
33.9197379 33.9942086 81.2302672 218 222 230
32.0532651 33.2210903 81.2302672 218 222 230
30.3307141 32.1655097 81.2302672 218 222 230
28.7944997 30.8534586 81.2302672 218 222 230
27.4824486 29.3172442 81.2302672 218 222 230
26.426868 27.5946932 81.2302672 218 222 230
25.6537496 25.7282204 81.2302672 218 222 230
25.1821303 23.7637846 81.2302672 218 222 230
25.0236229 21.7497568 81.2302672 218 222 230
25.1821303 19.735729 81.2302672 218 222 230
25.6537496 17.7712933 81.2302672 218 222 230
26.426868 15.9048205 81.2302672 218 222 230
27.4824486 14.1822694 81.2302672 218 222 230
28.7944997 12.646055 81.2302672 218 222 230
30.3307141 11.334004 81.2302672 218 222 230
32.0532651 10.2784234 81.2302672 218 222 230
33.9197379 9.50530502 81.2302672 218 222 230
35.8841737 9.03368572 81.2302672 218 222 230
37.8982015 8.87517829 81.2302672 218 222 230
39.9122293 9.03368572 81.2302672 218 222 230
41.876665 9.50530502 81.2302672 218 222 230
43.7431378 10.2784234 81.2302672 218 222 230
45.4656889 11.334004 81.2302672 218 222 230
47.0019033 12.646055 81.2302672 218 222 230
48.3139543 14.1822694 81.2302672 218 222 230
49.3695349 15.9048205 81.2302672 218 222 230
50.1426533 17.7712933 81.2302672 218 222 230
50.6142726 19.735729 81.2302672 218 222 230
18.4031932 35.5993213 79.0395202 218 222 230
0.158460262 35.5993213 79.0395202 218 222 230
0.368054799 30.67525 79.0395202 218 222 230
18.5096858 30.67525 79.0395202 218 222 230
18.5096858 35.4928287 79.0395202 218 222 230
18.42689 35.5966514 79.0395202 218 222 230
18.4493986 35.5887753 79.0395202 218 222 230
18.4695903 35.576088 79.0395202 218 222 230
18.4864525 35.5592258 79.0395202 218 222 230
18.4991397 35.5390341 79.0395202 218 222 230
18.5070158 35.5165255 79.0395202 218 222 230
77.5931706 48.8884257 0 218 222 230
79.8316414 54.2066959 0 218 222 230
77.5931706 48.8884257 42.0391927 218 222 230
79.8316414 54.2066959 42.0391927 218 222 230
77.5931706 48.8884257 0 218 222 230
77.5931706 48.8884257 0 218 222 230
77.2832379 47.8276098 1.94289029e-16 218 222 230
77.2469716 47.8819071 7.04055947e-16 218 222 230
77.2263827 47.9368746 1.05646935e-15 218 222 230
77.2186413 47.989196 1.29782962e-15 218 222 230
77.2200407 48.0420885 1.47298981e-15 218 222 230
77.2351526 48.1212933 1.62541264e-15 218 222 230
77.2660713 48.2126463 1.65217752e-15 218 222 230
77.3901416 48.47121 1.07118709e-15 218 222 230
77.3777275 47.8992629 0.0140321163 218 222 230
77.4670178 47.9669733 0.0553714994 218 222 230
77.5461426 48.026975 0.121725792 218 222 230
77.6107375 48.0759584 0.209422709 218 222 230
77.6572393 48.1112216 0.313628711 218 222 230
77.6802761 48.1286908 0.408946272 218 222 230
77.6880508 48.1345865 0.508043474 218 222 230
77.5840076 48.3217175 0.370871736 218 222 230
77.5363035 48.5304453 0.233699998 218 222 230
77.5430769 48.7128763 0.116849999 218 222 230
77.3186858 48.1563933 0.0156759882 218 222 230
77.4016423 48.2074182 0.056035 218 222 230
77.4728913 48.2496735 0.115420594 218 222 230
77.5291797 48.2810156 0.191509088 218 222 230
77.3884002 48.4043555 0.0110499032 218 222 230
77.5687845 48.3004363 0.282000382 218 222 230
77.4351261 48.4362288 0.0384648426 218 222 230
77.475769 48.4621402 0.077795468 218 222 230
77.5074409 48.4812293 0.127893298 218 222 230
77.5283947 48.4934783 0.187906059 218 222 230
77.5485882 48.7757467 0.00899286169 218 222 230
77.5418955 48.7663091 0.00242540083 218 222 230
77.5062354 48.6624904 0.0186783333 218 222 230
77.5323328 48.6875015 0.0638363625 218 222 230
77.5211842 48.6767957 0.0384735313 218 222 230
77.5546063 48.7836964 0.018971639 218 222 230
77.538306 48.6943972 0.0940001272 218 222 230
77.5588813 48.789689 0.0318492523 218 222 230
77.560562 48.7934172 0.0470294997 218 222 230
77.4578628 48.5725726 0.00699924888 218 222 230
77.4742497 48.6229789 0.00147705345 218 222 230
85.9918632 54.9820376 0.528237703 218 222 230
85.9918632 54.9820376 41.4925325 218 222 230
86.5970449 55.0582073 -1.11022302e-16 218 222 230
86.4404124 55.0384931 0.0179992633 218 222 230
86.294454 55.0201224 0.070770433 218 222 230
86.1691168 55.0043472 0.154717241 218 222 230
86.0810427 54.9932619 0.252234262 218 222 230
86.0260486 54.9863402 0.353212538 218 222 230
86.0004707 54.9831209 0.439462461 218 222 230
85.9918632 54.9820376 0 218 222 230
79.8316414 54.2066959 0 218 222 230
79.8316414 54.2066959 42.0391927 218 222 230
85.3604348 54.9025643 42.0391927 218 222 230
85.9795112 54.9804829 41.6004757 218 222 230
85.9398642 54.9754928 41.7102707 218 222 230
85.8865946 54.9687882 41.795253 218 222 230
85.8213253 54.9605732 41.8666285 218 222 230
85.7430298 54.9507187 41.927741 218 222 230
85.6550466 54.9396449 41.9762498 218 222 230
85.5613198 54.9278482 42.010893 218 222 230
85.4596957 54.9150576 42.0324232 218 222 230
81.2151273 43.095341 1.80411242e-16 218 222 230
81.2253021 43.1771488 0.0072221258 218 222 230
81.2340803 43.2601097 0.0301749259 218 222 230
81.2388282 43.3385013 0.0692275613 218 222 230
81.2368962 43.4058232 0.121552689 218 222 230
81.2273246 43.4554721 0.178494882 218 222 230
81.2100809 43.4900536 0.23654885 218 222 230
77.6880508 48.1345865 0.508043474 218 222 230
77.2832379 47.8276098 1.94289029e-16 218 222 230
77.3777275 47.8992629 0.0140321163 218 222 230
77.4670178 47.9669733 0.0553714994 218 222 230
77.5461426 48.026975 0.121725792 218 222 230
77.6107375 48.0759584 0.209422709 218 222 230
77.6572393 48.1112216 0.313628711 218 222 230
77.6802761 48.1286908 0.408946272 218 222 230
79.8673216 44.7813435 -3.35777563e-17 218 222 230
81.1192225 43.4949059 0.0694647968 218 222 230
80.5945684 44.1780636 0.0747266699 218 222 230
79.6323881 45.5019541 0.165843378 218 222 230
78.7478205 46.4353173 0.0629184398 218 222 230
78.7744427 46.4555054 0.0869122737 218 222 230
78.8005122 46.4752744 0.116193531 218 222 230
79.7570293 45.1470893 0.0391416874 218 222 230
87.2480208 44.1060596 3.94919579e-17 218 222 230
81.2151273 43.095341 1.80411242e-16 218 222 230
87.2693883 44.1568255 0.00583959895 218 222 230
87.290708 44.207478 0.0245983441 218 222 230
87.3078731 44.2482598 0.0525770106 218 222 230
87.3202624 44.2776948 0.0851156301 218 222 230
87.3289306 44.2982892 0.122046142 218 222 230
87.3334003 44.3089086 0.157168085 218 222 230
87.3347943 44.3122204 0.191523028 218 222 230
81.1745725 43.5368788 0.44297124 218 222 230
81.2100809 43.4900536 0.23654885 218 222 230
81.189858 43.5167217 0.305258836 218 222 230
81.1782255 43.5320616 0.375032979 218 222 230
81.2253021 43.1771488 0.0072221258 218 222 230
81.2340803 43.2601097 0.0301749259 218 222 230
81.2388282 43.3385013 0.0692275613 218 222 230
81.2368962 43.4058232 0.121552689 218 222 230
81.2273246 43.4554721 0.178494882 218 222 230
87.2863563 44.2492733 0.0564056422 218 222 230
87.2978362 44.26833 0.0763028794 218 222 230
87.3096699 44.28433 0.0981265936 218 222 230
86.5970449 55.0582073 -1.11022302e-16 255 79 163
89.1358111 51.7103134 -8.32667268e-17 255 79 163
89.0375536 51.635803 0.0145946397 255 79 163
88.9447245 51.5654092 0.0575747085 255 79 163
88.8624557 51.5030233 0.126562907 255 79 163
88.7952931 51.4520927 0.217746902 255 79 163
88.7469466 51.4154307 0.326089943 255 79 163
88.7229943 51.3972673 0.425184302 255 79 163
88.7149073 51.3911347 0.528237703 255 79 163
85.9918632 54.9820376 0.528237703 255 79 163
86.4404124 55.0384931 0.0179992633 255 79 163
86.294454 55.0201224 0.070770433 255 79 163
86.1691168 55.0043472 0.154717241 255 79 163
86.0810427 54.9932619 0.252234262 255 79 163
86.0260486 54.9863402 0.353212538 255 79 163
86.0004707 54.9831209 0.439462461 255 79 163
87.3347943 44.3122204 0.191523028 218 222 230
87.3347943 44.3122204 42.0391927 218 222 230
87.2480208 44.1060596 3.94919579e-17 218 222 230
87.2693883 44.1568255 0.00583959895 218 222 230
87.290708 44.207478 0.0245983441 218 222 230
87.3078731 44.2482598 0.0525770106 218 222 230
87.3202624 44.2776948 0.0851156301 218 222 230
87.3289306 44.2982892 0.122046142 218 222 230
87.3334003 44.3089086 0.157168085 218 222 230
87.3347943 44.3122204 0 218 222 230
89.0830853 48.4658972 0 218 222 230
89.0830853 48.4658972 42.0391927 218 222 230
89.0830853 48.4658972 0 255 79 163
89.0830853 48.4658972 0 255 79 163
89.1358111 51.7103134 -8.32667268e-17 255 79 163
89.4156672 51.264635 -7.1956029e-17 255 79 163
89.5758475 50.8193703 -5.92008873e-17 255 79 163
89.6235286 50.3960877 -4.87558365e-17 255 79 163
89.5863564 49.9713569 -3.84396504e-17 255 79 163
89.3752785 49.2056016 -1.92198213e-17 255 79 163
89.0375536 51.635803 0.0145946397 255 79 163
88.9447245 51.5654092 0.0575747085 255 79 163
88.8624557 51.5030233 0.126562907 255 79 163
88.7952931 51.4520927 0.217746902 255 79 163
88.7469466 51.4154307 0.326089943 255 79 163
88.7229943 51.3972673 0.425184302 255 79 163
88.7149073 51.3911347 0.528237703 255 79 163
89.0712305 50.7811984 0.407089705 255 79 163
89.2722434 50.1040114 0.285941706 255 79 163
89.3139285 49.5917793 0.197902089 255 79 163
89.2630246 49.0638767 0.10704109 255 79 163
89.1889314 48.7601095 0.0535205449 255 79 163
89.3304696 50.8347185 0.0582098423 255 79 163
89.2437975 50.7869844 0.120000845 255 79 163
89.1745563 50.7514226 0.19915838 255 79 163
89.1234206 50.7291363 0.293228874 255 79 163
89.0501036 51.3283015 0.0840886602 255 79 163
89.0164683 51.3049691 0.112587557 255 79 163
89.0185918 51.1090896 0.206255008 255 79 163
89.1691506 50.9611983 0.128627705 255 79 163
89.382469 50.2090724 0.0910982019 255 79 163
89.3964498 50.0132703 0.0811401592 255 79 163
89.393125 49.7498054 0.0675773062 255 79 163
89.3519315 49.3871429 0.0486491102 255 79 163
89.297216 49.1199083 0.0345745392 255 79 163
89.2564092 48.9642026 0.0263471245 255 79 163
89.3321022 49.1601078 0.010223866 255 79 163
89.3079614 49.0803102 0.00897533706 255 79 163
50.77278 21.7497568 69.6034406 218 222 230
50.6142726 23.7637846 69.6034406 218 222 230
50.1426533 25.7282204 69.6034406 218 222 230
49.3695349 27.5946932 69.6034406 218 222 230
48.3139543 29.3172442 69.6034406 218 222 230
47.0019033 30.8534586 69.6034406 218 222 230
45.4656889 32.1655097 69.6034406 218 222 230
43.7431378 33.2210903 69.6034406 218 222 230
41.876665 33.9942086 69.6034406 218 222 230
39.9122293 34.4658279 69.6034406 218 222 230
37.8982015 34.6243354 69.6034406 218 222 230
35.8841737 34.4658279 69.6034406 218 222 230
33.9197379 33.9942086 69.6034406 218 222 230
32.0532651 33.2210903 69.6034406 218 222 230
30.3307141 32.1655097 69.6034406 218 222 230
28.7944997 30.8534586 69.6034406 218 222 230
27.4824486 29.3172442 69.6034406 218 222 230
26.426868 27.5946932 69.6034406 218 222 230
25.6537496 25.7282204 69.6034406 218 222 230
25.1821303 23.7637846 69.6034406 218 222 230
25.0236229 21.7497568 69.6034406 218 222 230
25.1821303 19.735729 69.6034406 218 222 230
25.6537496 17.7712933 69.6034406 218 222 230
26.426868 15.9048205 69.6034406 218 222 230
27.4824486 14.1822694 69.6034406 218 222 230
28.7944997 12.646055 69.6034406 218 222 230
30.3307141 11.334004 69.6034406 218 222 230
32.0532651 10.2784234 69.6034406 218 222 230
33.9197379 9.50530502 69.6034406 218 222 230
35.8841737 9.03368572 69.6034406 218 222 230
37.8982015 8.87517829 69.6034406 218 222 230
39.9122293 9.03368572 69.6034406 218 222 230
41.876665 9.50530502 69.6034406 218 222 230
43.7431378 10.2784234 69.6034406 218 222 230
45.4656889 11.334004 69.6034406 218 222 230
47.0019033 12.646055 69.6034406 218 222 230
48.3139543 14.1822694 69.6034406 218 222 230
49.3695349 15.9048205 69.6034406 218 222 230
50.1426533 17.7712933 69.6034406 218 222 230
50.6142726 19.735729 69.6034406 218 222 230
77.6880508 48.1345865 0.508043474 255 79 163
77.5840076 48.3217175 0.370871736 255 79 163
77.5363035 48.5304453 0.233699998 255 79 163
77.5430769 48.7128763 0.116849999 255 79 163
77.5931706 48.8884257 0 255 79 163
77.6880508 48.1345865 42.0391927 255 79 163
77.5931706 48.8884257 42.0391927 255 79 163
77.5471913 48.7363874 42.0391927 255 79 163
77.5338273 48.578112 42.0391927 255 79 163
77.5536627 48.4205167 42.0391927 255 79 163
77.6058305 48.2704892 42.0391927 255 79 163
79.8316414 54.2066959 42.0391927 218 222 230
85.3604348 54.9025643 42.0391927 218 222 230
89.2398286 50.2667494 42.0391927 218 222 230
89.3135547 49.6598976 42.0391927 218 222 230
89.2605474 49.0508861 42.0391927 218 222 230
89.0830853 48.4658972 42.0391927 218 222 230
87.3347943 44.3122204 42.0391927 218 222 230
81.1745725 43.5368788 42.0391927 218 222 230
77.6880508 48.1345865 42.0391927 218 222 230
77.5931706 48.8884257 42.0391927 218 222 230
77.5471913 48.7363874 42.0391927 218 222 230
77.5338273 48.578112 42.0391927 218 222 230
77.5536627 48.4205167 42.0391927 218 222 230
77.6058305 48.2704892 42.0391927 218 222 230
85.9918632 54.9820376 41.4925325 218 222 230
88.7149073 51.3911347 41.7106925 218 222 230
88.7149073 51.3911347 0.528237703 218 222 230
85.9918632 54.9820376 0.528237703 218 222 230
85.9918632 54.9820376 41.4925325 218 222 230
85.9795112 54.9804829 41.6004757 218 222 230
85.9398642 54.9754928 41.7102707 218 222 230
85.8865946 54.9687882 41.795253 218 222 230
85.8213253 54.9605732 41.8666285 218 222 230
85.7430298 54.9507187 41.927741 218 222 230
85.6550466 54.9396449 41.9762498 218 222 230
85.5613198 54.9278482 42.010893 218 222 230
85.4596957 54.9150576 42.0324232 218 222 230
85.3604348 54.9025643 42.0391927 218 222 230
89.2398286 50.2667494 42.0391927 218 222 230
88.7149073 51.3911347 41.7106925 218 222 230
88.9794284 50.9737822 41.8913775 218 222 230
89.1604031 50.5488215 42.0110458 218 222 230
89.206923 50.3969574 42.0326591 218 222 230
87.2521663 53.2163406 41.8068493 218 222 230
87.2212719 53.2225518 41.8387964 218 222 230
87.1855305 53.2275848 41.8712425 218 222 230
87.1476671 53.2302613 41.901665 218 222 230
87.2168563 52.973757 41.9831728 218 222 230
87.7643666 52.4827368 41.8915251 218 222 230
89.1141755 50.6237139 42.0048422 218 222 230
81.1745725 43.5368788 0.44297124 218 222 230
81.1745725 43.5368788 42.0391927 218 222 230
77.6880508 48.1345865 42.0391927 218 222 230
77.6880508 48.1345865 0.508043474 218 222 230
81.2100809 43.4900536 0.23654885 218 222 230
81.189858 43.5167217 0.305258836 218 222 230
81.1782255 43.5320616 0.375032979 218 222 230
87.3347943 44.3122204 0.191523028 218 222 230
87.3347943 44.3122204 42.0391927 218 222 230
81.1745725 43.5368788 42.0391927 218 222 230
81.1745725 43.5368788 0.44297124 218 222 230
88.7149073 51.3911347 41.7106925 218 222 230
88.9794284 50.9737822 41.8913775 218 222 230
89.1604031 50.5488215 42.0110458 218 222 230
89.206923 50.3969574 42.0326591 218 222 230
89.2398286 50.2667494 42.0391927 218 222 230
89.3135547 49.6598976 42.0391927 218 222 230
89.2605474 49.0508861 42.0391927 218 222 230
89.0830853 48.4658972 42.0391927 218 222 230
89.0830853 48.4658972 0 218 222 230
88.7149073 51.3911347 0.528237703 218 222 230
89.0712305 50.7811984 0.407089705 218 222 230
89.2722434 50.1040114 0.285941706 218 222 230
89.3139285 49.5917793 0.197902089 218 222 230
89.2630246 49.0638767 0.10704109 218 222 230
89.1889314 48.7601095 0.0535205449 218 222 230
3 5 4 3
3 5 7 6
3 9 5 10
3 8 7 5
3 8 5 9
3 11 10 5
3 17 5 3
3 17 11 5
3 16 17 3
3 2 0 1
3 2 1 12
3 2 12 13
3 2 13 14
3 2 14 15
3 2 15 16
3 2 16 3
3 20 19 18
3 21 20 18
3 23 42 41
3 23 22 42
3 24 23 41
3 28 27 31
3 29 28 31
3 30 29 31
3 43 38 37
3 44 25 24
3 44 33 32
3 44 39 38
3 44 40 39
3 44 41 40
3 44 24 41
3 44 43 33
3 44 38 43
3 45 26 25
3 45 44 32
3 45 25 44
3 46 27 26
3 46 32 31
3 46 26 45
3 46 45 32
3 46 31 27
3 47 35 34
3 47 36 35
3 47 37 36
3 48 34 33
3 48 33 43
3 48 37 47
3 48 43 37
3 48 47 34
3 114 49 115
3 116 115 49
3 113 49 114
3 117 116 49
3 112 49 113
3 118 117 49
3 119 118 49
3 111 49 112
3 111 89 49
3 120 119 49
3 81 111 110
3 81 89 111
3 109 81 110
3 109 82 81
3 109 83 82
3 108 83 109
3 108 84 83
3 108 85 84
3 108 86 85
3 107 86 108
3 107 87 86
3 107 88 87
3 107 80 88
3 106 79 80
3 106 80 107
3 105 78 79
3 105 79 106
3 104 76 77
3 104 77 78
3 104 78 105
3 103 75 76
3 103 76 104
3 102 74 75
3 102 75 103
3 70 71 72
3 70 72 73
3 70 73 74
3 101 70 74
3 101 74 102
3 100 70 101
3 99 70 100
3 50 120 49
3 50 121 120
3 50 122 121
3 50 123 122
3 50 124 123
3 50 125 124
3 50 126 125
3 50 127 126
3 50 128 127
3 50 129 128
3 55 52 53
3 55 53 54
3 56 51 52
3 56 52 55
3 57 50 51
3 57 51 56
3 59 57 58
3 59 129 50
3 59 91 90
3 59 92 91
3 59 90 129
3 59 50 57
3 60 93 92
3 60 94 93
3 60 92 59
3 61 94 60
3 61 95 94
3 61 96 95
3 61 97 96
3 61 98 97
3 61 99 98
3 61 70 99
3 62 61 60
3 68 60 69
3 67 60 68
3 67 62 60
3 63 62 67
3 66 63 67
3 64 63 66
3 65 64 66
3 141 131 130
3 141 130 140
3 142 132 131
3 142 131 141
3 143 133 132
3 143 134 133
3 143 132 142
3 144 135 134
3 144 134 143
3 145 136 135
3 145 135 144
3 146 137 136
3 146 136 145
3 147 138 137
3 147 137 146
3 139 138 147
3 152 148 149
3 153 150 148
3 153 148 152
3 154 150 153
3 151 150 154
3 158 157 155
3 167 159 160
3 167 160 161
3 167 161 162
3 167 162 163
3 167 163 164
3 167 164 165
3 167 165 166
3 156 166 158
3 156 158 155
3 156 167 166
3 174 172 171
3 174 173 172
3 175 174 171
3 176 171 170
3 176 175 171
3 177 176 170
3 178 170 169
3 178 177 170
3 190 168 191
3 205 169 168
3 205 178 169
3 205 168 190
3 206 205 190
3 207 206 190
3 208 207 190
3 209 208 190
3 210 209 190
3 211 210 190
3 212 211 190
3 213 212 190
3 214 213 190
3 192 214 190
3 204 178 205
3 203 178 204
3 193 192 190
3 202 178 203
3 189 193 190
3 201 178 202
3 200 178 201
3 180 194 193
3 180 195 194
3 180 193 189
3 179 195 180
3 179 196 195
3 179 197 196
3 179 198 197
3 179 199 198
3 179 200 199
3 181 179 180
3 187 188 179
3 187 179 181
3 186 187 181
3 182 186 181
3 185 186 182
3 183 185 182
3 184 185 183
3 178 200 179
3 215 216 217
3 221 219 218
3 221 220 219
3 227 223 222
3 227 222 224
3 226 224 225
3 226 227 224
3 228 241 235
3 229 241 228
3 230 240 241
3 230 241 229
3 231 239 240
3 231 240 230
3 232 239 231
3 233 239 232
3 234 238 239
3 234 239 233
3 243 237 238
3 243 238 234
3 244 236 237
3 244 237 243
3 242 236 244
3 261 245 246
3 261 246 247
3 261 247 248
3 261 255 245
3 262 261 248
3 263 262 248
3 264 248 249
3 264 249 250
3 264 250 251
3 264 251 252
3 264 252 253
3 264 263 248
3 265 253 254
3 265 263 264
3 265 261 262
3 265 264 253
3 265 262 263
3 266 258 257
3 266 259 258
3 266 260 259
3 267 255 261
3 267 261 265
3 268 257 256
3 268 254 260
3 268 265 254
3 268 266 257
3 268 260 266
3 268 267 265
3 269 256 255
3 269 268 256
3 269 255 267
3 269 267 268
3 296 293 270
3 296 270 297
3 298 284 295
3 299 282 283
3 300 284 298
3 301 299 283
3 302 275 276
3 302 303 275
3 304 276 277
3 304 277 278
3 304 278 279
3 304 302 276
3 305 306 307
3 305 307 303
3 308 305 303
3 309 303 302
3 309 302 304
3 309 308 303
3 310 306 305
3 310 305 308
3 310 308 309
3 310 311 306
3 312 309 304
3 312 304 279
3 312 310 309
3 313 279 280
3 313 312 279
3 314 293 296
3 315 293 314
3 316 293 315
3 317 313 280
3 317 318 313
3 319 317 280
3 319 320 316
3 321 316 320
3 321 293 316
3 322 320 319
3 322 319 280
3 323 324 280
3 325 293 326
3 327 294 293
3 327 293 325
3 327 325 328
3 329 330 331
3 329 331 327
3 332 330 333
3 334 280 281
3 334 323 280
3 334 333 323
3 334 332 333
3 335 336 334
3 337 294 327
3 337 327 331
3 338 294 337
3 339 340 281
3 341 339 281
3 342 343 344
3 342 295 294
3 345 346 342
3 345 347 346
3 348 347 349
3 350 281 282
3 350 349 341
3 350 341 281
3 350 348 349
3 351 295 342
3 351 342 346
3 352 353 350
3 354 295 351
3 355 295 354
3 356 295 357
3 356 298 295
3 358 282 299
3 358 359 282
3 360 356 361
3 360 298 356
3 360 362 298
3 363 362 360
3 364 299 365
3 364 358 299
3 364 361 358
3 364 365 363
3 366 362 363
3 366 363 365
3 367 362 366
3 367 300 298
3 367 368 300
3 367 298 362
3 369 367 366
3 369 366 365
3 369 368 367
3 370 299 301
3 370 368 369
3 370 369 365
3 370 365 299
3 371 370 301
3 371 368 370
3 372 368 371
3 372 371 301
3 373 270 271
3 373 271 272
3 373 272 273
3 374 273 274
3 374 274 275
3 374 275 303
3 374 303 307
3 374 375 373
3 374 373 273
3 376 373 375
3 376 375 374
3 376 270 373
3 377 374 307
3 377 376 374
3 378 307 306
3 378 377 307
3 378 306 311
3 378 270 376
3 378 297 270
3 378 376 377
3 378 311 297
3 379 310 312
3 379 311 310
3 379 297 311
3 380 296 297
3 380 297 379
3 380 381 296
3 382 379 312
3 382 380 379
3 382 381 380
3 382 312 313
3 383 381 382
3 383 382 313
3 384 313 318
3 384 383 313
3 384 381 383
3 384 314 296
3 384 318 314
3 384 296 381
3 385 318 317
3 385 314 318
3 386 385 317
3 386 314 385
3 387 315 314
3 387 314 386
3 388 315 387
3 388 386 317
3 388 387 386
3 389 315 388
3 390 316 315
3 390 319 316
3 390 315 389
3 390 389 319
3 391 317 319
3 391 388 317
3 391 319 389
3 391 389 388
3 392 293 321
3 392 326 293
3 392 393 326
3 394 393 324
3 394 326 393
3 395 394 324
3 395 326 394
3 396 324 323
3 396 395 324
3 397 326 395
3 397 396 323
3 397 395 396
3 398 325 326
3 398 326 397
3 399 397 323
3 399 398 397
3 400 328 325
3 400 325 398
3 400 398 399
3 401 399 323
3 401 400 399
3 402 323 333
3 402 328 400
3 402 401 323
3 402 400 401
3 403 327 328
3 403 402 333
3 403 328 402
3 404 327 403
3 404 403 333
3 405 327 404
3 405 329 327
3 406 404 333
3 406 405 404
3 406 329 405
3 406 333 330
3 406 330 329
3 407 330 332
3 407 331 330
3 408 407 332
3 408 331 407
3 409 408 332
3 409 332 334
3 410 331 408
3 410 408 409
3 410 409 334
3 411 410 334
3 411 331 410
3 411 334 336
3 412 411 336
3 412 331 411
3 412 337 331
3 413 337 412
3 414 412 336
3 414 336 335
3 414 413 412
3 415 337 413
3 415 413 414
3 416 414 335
3 416 415 414
3 416 335 417
3 418 337 415
3 418 415 416
3 418 416 417
3 419 338 337
3 419 337 418
3 420 418 417
3 420 338 419
3 420 419 418
3 421 417 422
3 421 420 417
3 423 338 420
3 423 421 422
3 423 420 421
3 424 422 417
3 425 335 334
3 425 424 417
3 425 334 281
3 425 417 335
3 426 425 281
3 427 428 429
3 427 294 428
3 427 429 430
3 431 427 430
3 431 294 427
3 432 426 281
3 432 281 340
3 433 434 343
3 433 342 294
3 433 294 431
3 433 343 342
3 435 430 434
3 435 434 433
3 435 431 430
3 435 433 431
3 436 429 340
3 436 430 429
3 436 340 339
3 437 434 430
3 437 430 436
3 438 434 437
3 438 437 436
3 439 339 341
3 439 436 339
3 439 438 436
3 440 434 438
3 440 439 341
3 440 438 439
3 441 344 343
3 441 343 434
3 441 434 440
3 442 344 441
3 442 440 341
3 442 441 440
3 443 344 442
3 443 341 349
3 443 442 341
3 444 344 443
3 444 443 349
3 444 342 344
3 445 444 349
3 445 342 444
3 446 342 445
3 446 345 342
3 447 445 349
3 447 446 445
3 447 345 446
3 448 345 447
3 448 447 349
3 448 347 345
3 448 349 347
3 449 347 348
3 449 346 347
3 450 449 348
3 450 346 449
3 451 450 348
3 451 348 350
3 452 346 450
3 452 450 451
3 452 451 350
3 453 346 452
3 453 452 350
3 453 350 353
3 454 346 453
3 454 453 353
3 454 351 346
3 455 351 454
3 455 454 353
3 456 455 353
3 456 352 457
3 456 353 352
3 458 351 455
3 458 455 456
3 458 456 457
3 459 351 458
3 459 354 351
3 460 458 457
3 460 459 458
3 461 460 457
3 461 457 462
3 463 354 459
3 463 459 460
3 463 460 461
3 463 461 462
3 463 462 464
3 463 355 354
3 463 464 355
3 465 462 457
3 466 357 295
3 466 467 357
3 466 295 355
3 468 457 352
3 468 352 350
3 468 350 282
3 468 465 457
3 469 462 465
3 469 468 282
3 469 465 468
3 470 464 462
3 470 462 469
3 470 469 282
3 470 282 471
3 470 471 464
3 472 357 467
3 473 472 467
3 474 357 472
3 474 472 473
3 475 282 359
3 475 471 282
3 475 359 476
3 477 473 476
3 477 474 473
3 477 476 359
3 478 357 474
3 478 474 477
3 478 477 359
3 479 356 357
3 479 357 478
3 480 478 359
3 480 356 479
3 480 479 478
3 481 359 358
3 481 480 359
3 482 481 358
3 482 480 481
3 482 356 480
3 483 356 482
3 483 361 356
3 483 358 361
3 483 482 358
3 484 364 363
3 484 360 361
3 484 363 360
3 484 361 364
3 485 300 368
3 485 368 372
3 485 284 300
3 486 284 485
3 487 486 485
3 488 285 284
3 488 286 285
3 488 284 486
3 489 486 487
3 489 287 286
3 489 286 488
3 489 488 486
3 490 301 283
3 490 372 301
3 491 492 490
3 493 491 490
3 494 291 290
3 494 491 493
3 494 492 491
3 495 490 283
3 495 292 291
3 495 283 292
3 495 493 490
3 495 291 494
3 495 494 493
3 496 321 320
3 497 392 321
3 497 321 496
3 498 392 499
3 498 499 324
3 498 324 393
3 498 393 392
3 500 338 423
3 501 422 424
3 501 423 422
3 501 500 423
3 502 500 501
3 502 503 500
3 504 501 424
3 504 424 425
3 504 502 501
3 504 425 426
3 505 500 503
3 506 432 340
3 507 506 340
3 507 508 506
3 509 429 428
3 509 340 429
3 509 507 340
3 510 467 466
3 510 355 464
3 510 466 355
3 511 476 473
3 511 471 475
3 511 464 471
3 511 475 476
3 512 489 487
3 513 485 372
3 513 487 485
3 513 372 490
3 513 490 492
3 513 512 487
3 514 512 513
3 515 512 514
3 515 489 512
3 516 514 513
3 516 515 514
3 516 492 494
3 516 513 492
3 517 516 494
3 517 515 516
3 517 287 489
3 517 288 287
3 517 289 288
3 517 290 289
3 517 494 290
3 517 489 515
3 518 392 497
3 518 499 392
3 518 519 499
3 518 497 519
3 520 322 280
3 520 320 322
3 520 496 320
3 521 496 520
3 521 497 496
3 521 519 497
3 521 520 280
3 522 519 521
3 522 521 280
3 522 499 519
3 522 324 499
3 522 280 324
3 523 294 338
3 523 338 500
3 523 500 505
3 524 294 523
3 525 428 294
3 525 294 524
3 526 426 432
3 526 503 502
3 526 504 426
3 526 502 504
3 526 505 503
3 526 508 505
3 526 432 506
3 526 506 508
3 527 511 473
3 527 467 510
3 527 473 467
3 527 510 464
3 527 464 511
3 528 524 523
3 528 523 505
3 528 525 524
3 528 428 525
3 528 505 508
3 528 508 507
3 528 509 428
3 528 507 509
3 532 531 535
3 532 535 536
3 533 532 536
3 534 536 530
3 534 533 536
3 529 534 530
3 559 537 558
3 559 560 537
3 561 558 549
3 562 548 547
3 563 561 549
3 564 566 565
3 564 568 567
3 564 565 568
3 569 571 570
3 569 572 571
3 569 567 572
3 569 564 567
3 569 570 573
3 574 564 569
3 574 546 566
3 574 566 564
3 575 576 559
3 577 575 559
3 578 546 574
3 578 547 546
3 579 577 559
3 579 559 558
3 580 579 558
3 581 547 578
3 582 558 561
3 582 583 558
3 584 547 585
3 584 562 547
3 586 582 561
3 586 587 582
3 588 587 589
3 590 562 584
3 590 584 588
3 590 589 591
3 590 593 592
3 590 588 589
3 590 592 562
3 594 548 562
3 594 562 595
3 596 538 537
3 596 539 538
3 597 539 596
3 598 597 596
3 599 597 598
3 600 598 596
3 600 599 598
3 600 596 537
3 601 599 600
3 602 600 537
3 602 560 573
3 602 537 560
3 602 573 570
3 603 573 560
3 603 569 573
3 603 560 559
3 604 569 603
3 604 574 569
3 605 603 559
3 605 604 603
3 606 604 605
3 607 578 574
3 607 574 604
3 607 604 606
3 608 576 575
3 608 609 576
3 610 578 607
3 610 609 608
3 611 578 610
3 611 610 608
3 612 608 575
3 612 575 577
3 612 611 608
3 613 612 577
3 613 578 611
3 613 611 612
3 614 577 615
3 614 613 577
3 616 581 578
3 616 578 613
3 616 614 615
3 616 613 614
3 617 577 579
3 617 615 577
3 618 617 579
3 618 581 616
3 618 616 615
3 618 615 617
3 619 618 579
3 619 581 618
3 620 579 580
3 620 619 579
3 621 622 581
3 621 624 623
3 621 581 624
3 621 623 622
3 625 580 626
3 625 623 580
3 627 625 626
3 627 622 623
3 627 623 625
3 628 580 558
3 628 626 580
3 629 547 581
3 629 581 622
3 630 558 583
3 630 583 631
3 632 585 547
3 632 633 585
3 634 635 631
3 634 631 583
3 636 633 635
3 636 634 583
3 636 635 634
3 637 585 633
3 637 633 636
3 638 637 636
3 638 585 637
3 639 583 582
3 640 584 585
3 641 584 640
3 642 582 587
3 642 641 582
3 643 584 641
3 643 641 642
3 643 642 587
3 643 588 584
3 643 587 588
3 644 587 586
3 644 591 589
3 644 586 591
3 644 589 587
3 645 586 561
3 645 561 646
3 645 591 586
3 645 646 647
3 648 593 647
3 649 592 593
3 649 562 592
3 649 593 648
3 650 648 651
3 652 649 648
3 652 648 650
3 653 650 651
3 653 655 654
3 656 562 649
3 656 650 653
3 656 652 650
3 656 653 654
3 656 595 562
3 656 649 652
3 656 657 595
3 656 654 657
3 658 561 563
3 658 655 561
3 658 654 655
3 659 654 658
3 659 657 654
3 660 659 658
3 660 657 659
3 660 658 661
3 660 595 657
3 660 662 595
3 663 563 664
3 663 661 658
3 663 660 661
3 663 662 660
3 663 658 563
3 663 664 662
3 665 594 595
3 666 563 549
3 667 594 665
3 667 665 668
3 669 666 549
3 670 666 669
3 671 670 669
3 672 670 671
3 673 671 669
3 674 552 553
3 674 672 671
3 674 671 673
3 675 676 672
3 675 672 674
3 675 553 554
3 675 674 553
3 677 678 676
3 677 676 675
3 677 675 554
3 679 680 678
3 679 678 677
3 681 541 540
3 681 542 541
3 682 540 539
3 682 681 540
3 683 539 597
3 683 597 599
3 683 682 539
3 684 682 683
3 685 543 542
3 685 542 681
3 685 681 682
3 686 682 684
3 686 685 682
3 687 686 684
3 687 683 599
3 687 684 683
3 688 599 601
3 688 687 599
3 689 687 688
3 690 565 566
3 690 601 691
3 690 566 687
3 690 688 601
3 690 687 689
3 690 689 688
3 690 691 568
3 690 568 565
3 692 570 571
3 692 571 572
3 692 691 601
3 692 572 567
3 692 567 568
3 692 601 600
3 692 600 602
3 692 568 691
3 692 602 570
3 693 605 559
3 693 606 605
3 693 607 606
3 694 693 559
3 694 559 576
3 694 695 693
3 694 576 609
3 696 607 693
3 696 693 695
3 696 695 694
3 697 610 607
3 697 609 610
3 697 607 696
3 697 694 609
3 697 696 694
3 698 581 619
3 698 619 620
3 699 581 698
3 700 699 698
3 700 581 699
3 700 624 581
3 701 626 628
3 701 627 626
3 702 627 701
3 703 627 702
3 703 622 627
3 703 629 622
3 704 706 705
3 707 704 705
3 708 705 709
3 708 707 705
3 710 705 706
3 711 705 710
3 712 709 705
3 712 705 711
3 713 631 635
3 713 630 631
3 714 713 635
3 715 635 633
3 715 714 635
3 715 633 632
3 716 585 638
3 717 585 716
3 718 639 719
3 718 716 639
3 718 717 716
3 718 719 640
3 718 640 585
3 718 585 717
3 720 719 639
3 720 639 582
3 720 640 719
3 721 720 582
3 722 641 640
3 722 640 720
3 722 721 582
3 722 720 721
3 722 582 641
3 723 591 645
3 723 590 591
3 724 590 723
3 724 723 645
3 725 590 724
3 725 645 647
3 725 724 645
3 725 593 590
3 725 647 593
3 726 648 647
3 726 647 646
3 726 651 648
3 727 651 726
3 727 726 646
3 728 651 727
3 728 727 646
3 728 653 651
3 728 655 653
3 728 646 561
3 728 561 655
3 729 664 563
3 729 662 664
3 730 662 729
3 730 595 662
3 731 730 729
3 732 665 595
3 732 730 731
3 732 595 730
3 733 731 729
3 733 665 732
3 733 732 731
3 733 668 665
3 733 563 666
3 733 666 668
3 733 729 563
3 734 668 666
3 734 667 668
3 735 667 734
3 735 734 666
3 736 735 666
3 736 666 670
3 737 735 736
3 737 594 667
3 737 667 735
3 738 737 736
3 738 736 670
3 738 594 737
3 739 672 676
3 739 676 678
3 739 678 680
3 739 738 670
3 739 594 738
3 739 680 594
3 739 670 672
3 740 674 673
3 740 549 550
3 740 550 551
3 740 551 552
3 740 552 674
3 740 669 549
3 740 673 669
3 741 680 679
3 741 679 677
3 742 548 594
3 742 680 741
3 742 594 680
3 743 548 742
3 743 741 677
3 743 554 555
3 743 555 556
3 743 556 557
3 743 557 548
3 743 677 554
3 743 742 741
3 744 544 543
3 744 545 544
3 744 546 545
3 744 686 687
3 744 543 685
3 744 566 546
3 744 687 566
3 744 685 686
3 745 620 580
3 745 698 620
3 745 624 700
3 745 700 698
3 745 623 624
3 745 580 623
3 746 747 702
3 746 701 628
3 746 628 704
3 746 702 701
3 746 704 707
3 746 707 747
3 748 628 558
3 748 558 706
3 748 704 628
3 748 706 704
3 749 702 747
3 749 708 629
3 749 703 702
3 749 629 703
3 749 747 707
3 749 707 708
3 750 706 558
3 750 558 630
3 750 710 706
3 750 630 710
3 751 709 547
3 751 547 629
3 751 629 708
3 751 708 709
3 752 711 710
3 752 753 711
3 752 630 713
3 752 714 753
3 752 713 714
3 752 710 630
3 754 709 712
3 754 712 632
3 754 547 709
3 754 632 547
3 755 711 753
3 755 632 712
3 755 712 711
3 755 753 714
3 755 715 632
3 755 714 715
3 756 636 583
3 756 716 638
3 756 583 639
3 756 639 716
3 756 638 636
3 761 760 759
3 762 761 759
3 757 762 759
3 758 763 762
3 758 762 757
3 774 765 764
3 774 764 773
3 775 766 765
3 775 765 774
3 776 767 766
3 776 766 775
3 777 768 767
3 777 767 776
3 778 769 768
3 778 768 777
3 779 770 769
3 779 769 778
3 772 771 770
3 772 770 779
3 823 781 780
3 823 782 781
3 824 783 782
3 824 784 783
3 824 782 823
3 825 784 824
3 826 784 825
3 826 785 784
3 827 786 785
3 827 785 826
3 828 787 786
3 828 786 827
3 829 788 787
3 829 787 828
3 830 789 788
3 830 790 789
3 830 788 829
3 831 790 830
3 832 791 790
3 832 790 831
3 833 792 791
3 833 793 792
3 833 791 832
3 834 793 833
3 835 794 793
3 835 793 834
3 836 795 794
3 836 794 835
3 837 796 795
3 837 795 836
3 838 797 796
3 838 796 837
3 839 798 797
3 839 799 798
3 839 797 838
3 840 799 839
3 841 800 799
3 841 799 840
3 842 801 800
3 842 800 841
3 843 802 801
3 843 801 842
3 844 803 802
3 844 804 803
3 844 802 843
3 845 804 844
3 846 805 804
3 846 804 845
3 847 806 805
3 847 805 846
3 848 807 806
3 848 806 847
3 849 808 807
3 849 807 848
3 850 809 808
3 850 808 849
3 851 810 809
3 851 809 850
3 852 810 851
3 852 811 810
3 853 811 852
3 853 812 811
3 854 812 853
3 854 813 812
3 855 813 854
3 855 814 813
3 856 814 855
3 856 815 814
3 856 816 815
3 857 816 856
3 857 817 816
3 858 817 857
3 859 817 858
3 859 818 817
3 859 819 818
3 860 819 859
3 861 819 860
3 861 820 819
3 822 821 820
3 822 820 861
3 871 866 872
3 869 871 870
3 867 869 868
3 867 866 871
3 867 871 869
3 862 865 866
3 862 866 867
3 864 865 862
3 863 864 862
3 874 875 873
3 874 876 875
3 887 879 880
3 881 887 880
3 888 887 881
3 897 882 883
3 897 883 884
3 897 884 885
3 898 881 882
3 898 889 888
3 898 882 897
3 898 888 881
3 898 897 885
3 899 890 889
3 899 889 898
3 900 891 890
3 900 890 899
3 901 885 886
3 902 892 891
3 902 893 892
3 902 894 893
3 902 891 900
3 903 898 885
3 903 885 901
3 904 898 903
3 904 899 898
3 905 900 899
3 905 899 904
3 906 895 894
3 906 902 900
3 906 894 902
3 906 900 905
3 907 908 878
3 907 909 908
3 910 905 904
3 910 904 911
3 912 878 877
3 912 907 878
3 912 911 909
3 912 909 907
3 913 896 895
3 913 895 906
3 913 906 905
3 913 905 910
3 914 912 877
3 914 910 911
3 914 911 912
3 915 877 896
3 915 896 913
3 915 914 877
3 915 913 910
3 915 910 914
3 916 901 886
3 916 904 903
3 916 903 901
3 916 911 904
3 916 909 911
3 917 886 878
3 917 916 886
3 917 878 908
3 917 908 909
3 917 909 916
3 919 930 929
3 919 931 932
3 919 932 933
3 919 933 934
3 919 934 935
3 919 935 936
3 919 936 937
3 919 937 938
3 919 938 930
3 928 919 929
3 918 919 928
3 927 924 925
3 927 925 926
3 927 926 918
3 927 918 928
3 923 924 927
3 922 923 927
3 921 922 927
3 920 921 927
3 955 940 939
3 955 941 940
3 955 942 941
3 955 943 942
3 955 944 943
3 955 945 944
3 956 939 954
3 956 955 939
3 956 945 955
3 957 946 945
3 957 945 956
3 958 947 948
3 958 948 949
3 958 949 950
3 958 954 947
3 959 958 950
3 959 957 958
3 960 950 951
3 960 951 952
3 960 952 953
3 960 953 946
3 960 946 957
3 960 957 959
3 960 959 950
3 961 956 954
3 961 957 956
3 961 958 957
3 961 954 958
3 975 962 963
3 976 962 975
3 977 962 976
3 978 962 977
3 979 962 978
3 974 972 973
3 971 979 972
3 971 972 974
3 980 964 962
3 980 965 964
3 980 966 965
3 980 971 970
3 980 962 979
3 980 979 971
3 981 967 966
3 981 966 980
3 981 980 970
3 982 968 967
3 982 969 968
3 982 970 969
3 982 967 981
3 982 981 970
3 991 992 998
3 990 998 997
3 990 991 998
3 989 997 996
3 989 990 997
3 988 996 995
3 988 989 996
3 987 995 994
3 987 988 995
3 986 994 993
3 986 987 994
3 985 993 983
3 985 986 993
3 984 985 983
3 999 1010 1009
3 999 1000 1010
3 1008 1005 1006
3 1008 1006 1007
3 1008 1007 999
3 1008 999 1009
3 1004 1005 1008
3 1003 1004 1008
3 1002 1003 1008
3 1001 1002 1008
3 1011 1030 1012
3 1031 1014 1015
3 1032 1031 1015
3 1033 1032 1015
3 1034 1027 1026
3 1034 1026 1033
3 1035 1013 1014
3 1035 1019 1013
3 1035 1020 1019
3 1035 1021 1020
3 1036 1022 1021
3 1036 1023 1022
3 1036 1024 1023
3 1036 1025 1024
3 1036 1021 1035
3 1037 1026 1025
3 1037 1035 1014
3 1037 1036 1035
3 1037 1025 1036
3 1038 1037 1014
3 1038 1026 1037
3 1038 1031 1032
3 1038 1014 1031
3 1038 1033 1026
3 1038 1032 1033
3 1039 1015 1016
3 1039 1027 1034
3 1039 1034 1033
3 1039 1033 1015
3 1040 1016 1017
3 1040 1027 1039
3 1040 1039 1016
3 1041 1028 1027
3 1041 1040 1017
3 1041 1027 1040
3 1042 1017 1018
3 1042 1029 1028
3 1042 1041 1017
3 1042 1028 1041
3 1043 1029 1042
3 1044 1030 1029
3 1044 1012 1030
3 1044 1029 1043
3 1045 1042 1018
3 1045 1043 1042
3 1046 1018 1012
3 1046 1012 1044
3 1046 1044 1043
3 1046 1045 1018
3 1046 1043 1045
3 1071 1072 1073
3 1075 1073 1074
3 1075 1071 1073
3 1068 1069 1070
3 1067 1070 1071
3 1067 1068 1070
3 1078 1075 1076
3 1078 1076 1077
3 1065 1066 1067
3 1080 1078 1079
3 1081 1071 1075
3 1081 1075 1078
3 1081 1078 1080
3 1062 1063 1064
3 1062 1064 1065
3 1062 1067 1071
3 1062 1065 1067
3 1084 1081 1082
3 1084 1082 1083
3 1084 1071 1081
3 1084 1062 1071
3 1086 1084 1085
3 1058 1059 1060
3 1057 1060 1061
3 1057 1058 1060
3 1049 1047 1048
3 1049 1086 1047
3 1049 1084 1086
3 1050 1084 1049
3 1054 1055 1056
3 1052 1057 1061
3 1052 1050 1051
3 1052 1053 1054
3 1052 1054 1056
3 1052 1056 1057
3 1052 1084 1050
3 1052 1061 1062
3 1052 1062 1084
3 1094 1090 1091
3 1094 1091 1093
3 1095 1089 1090
3 1095 1090 1094
3 1096 1088 1089
3 1096 1089 1095
3 1097 1087 1088
3 1097 1088 1096
3 1092 1087 1097
3 1100 1101 1102
3 1100 1102 1103
3 1105 1103 1104
3 1099 1100 1103
3 1106 1103 1105
3 1109 1111 1110
3 1108 1106 1111
3 1108 1111 1109
3 1107 1099 1103
3 1107 1103 1106
3 1107 1106 1108
3 1098 1099 1107
3 1114 1113 1112
3 1114 1112 1115
3 1131 1116 1127
3 1132 1116 1131
3 1133 1116 1132
3 1134 1117 1116
3 1134 1118 1117
3 1134 1119 1118
3 1134 1120 1119
3 1134 1121 1120
3 1134 1122 1121
3 1134 1123 1122
3 1134 1124 1123
3 1134 1125 1124
3 1134 1116 1133
3 1135 1126 1125
3 1135 1132 1131
3 1135 1133 1132
3 1135 1125 1134
3 1135 1134 1133
3 1136 1127 1128
3 1136 1131 1127
3 1136 1135 1131
3 1136 1126 1135
3 1137 1128 1129
3 1137 1129 1130
3 1137 1130 1126
3 1137 1136 1128
3 1137 1126 1136
3 1141 1139 1138
3 1141 1140 1139
3 1141 1143 1142
3 1141 1144 1143
3 1141 1138 1144
3 1148 1146 1145
3 1148 1147 1146
3 1156 1163 1157
3 1155 1161 1162
3 1155 1162 1163
3 1155 1163 1156
3 1154 1160 1161
3 1154 1161 1155
3 1153 1160 1154
3 1152 1159 1160
3 1152 1160 1153
3 1151 1159 1152
3 1150 1158 1159
3 1150 1159 1151
3 1149 1158 1150
