ply
format ascii 1.0
comment generated by blendit.inference.finetune_visualize
element vertex 1100
property float x
property float y
property float z
property uchar red
property uchar green
property uchar blue
element face 1274
property list uchar int vertex_indices
end_header
0 0 55.6653151 218 222 230
0 2.03323964 55.6653151 218 222 230
-1.11022302e-16 0 0.432237949 218 222 230
-1.11022302e-16 41.1862229 0.432237949 218 222 230
0 41.1862229 16.2948749 218 222 230
-1.11022302e-16 2.03323964 16.2948749 218 222 230
0 0 55.6653151 218 222 230
0 2.03323964 55.6653151 218 222 230
56.5914086 0 55.6653151 218 222 230
56.5914086 2.03323964 55.6653151 218 222 230
0 2.03323964 55.6653151 255 79 163
0.00636066009 2.10711913 55.6589544 255 79 163
0.0252554379 2.17882425 55.6400597 255 79 163
0.0561282358 2.24624463 55.6091869 255 79 163
0.0980704276 2.307396 55.5672447 255 79 163
0.1498476 2.3604786 55.5154675 255 79 163
0.209935885 2.40393013 55.4553792 255 79 163
0.299896552 2.44471916 55.3654186 255 79 163
0.36525818 2.46025645 55.3000569 255 79 163
0.432237949 2.46547759 55.2330772 255 79 163
0.432237949 2.46547759 16.7271129 255 79 163
-1.11022302e-16 2.03323964 16.2948749 255 79 163
0.014728151 2.14511105 16.4067464 255 79 163
0.0579089047 2.24935861 16.5109939 255 79 163
0.126599564 2.33887802 16.6005133 255 79 163
0.206394241 2.40178307 16.6634184 255 79 163
0.280405821 2.43793292 16.6995682 255 79 163
0.351811598 2.45792923 16.7195645 255 79 163
0.39184805 2.46358636 16.7252217 255 79 163
0.432237949 0 -1.11022302e-16 218 222 230
56.1591707 0 -1.11022302e-16 218 222 230
-1.11022302e-16 0 0.432237949 218 222 230
0.0108371078 0 0.336055957 218 222 230
0.0428050134 0 0.244696931 218 222 230
0.0943007125 0 0.162741996 218 222 230
0.162741996 0 0.0943007125 218 222 230
0.244696931 0 0.0428050134 218 222 230
0.336055957 0 0.0108371078 218 222 230
0 0 55.6653151 218 222 230
56.5914086 0 55.6653151 218 222 230
56.5914086 0 0.432237949 218 222 230
56.2553527 0 0.0108371078 218 222 230
56.3467117 0 0.0428050134 218 222 230
56.4286667 0 0.0943007125 218 222 230
56.4971079 0 0.162741996 218 222 230
56.5486036 0 0.244696931 218 222 230
56.5805715 0 0.336055957 218 222 230
0 41.1862229 16.2948749 255 79 163
-1.11022302e-16 2.03323964 16.2948749 255 79 163
0.014728151 2.14511105 16.4067464 255 79 163
0.0579089047 2.24935861 16.5109939 255 79 163
0.126599564 2.33887802 16.6005133 255 79 163
0.206394241 2.40178307 16.6634184 255 79 163
0.280405821 2.43793292 16.6995682 255 79 163
0.351811598 2.45792923 16.7195645 255 79 163
0.39184805 2.46358636 16.7252217 255 79 163
0.432237949 2.46547759 16.7271129 255 79 163
0.432237949 41.1862229 16.7271129 255 79 163
0.0108371078 41.1862229 16.3910569 255 79 163
0.0428050134 41.1862229 16.482416 255 79 163
0.0943007125 41.1862229 16.5643709 255 79 163
0.162741996 41.1862229 16.6328122 255 79 163
0.244696931 41.1862229 16.6843079 255 79 163
0.336055957 41.1862229 16.7162758 255 79 163
-1.11022302e-16 0 0.432237949 255 79 163
-1.11022302e-16 41.1862229 0.432237949 255 79 163
0.014728151 41.2980943 0.320366536 255 79 163
0.0579089047 41.4023419 0.216118974 255 79 163
0.126599564 41.4918613 0.126599564 255 79 163
0.206394241 41.5547664 0.0636945131 255 79 163
0.280405821 41.5909162 0.0275446707 255 79 163
0.351811598 41.6109125 0.0075483605 255 79 163
0.39184805 41.6165697 0.00189122759 255 79 163
0.432237949 41.6184609 -1.11022302e-16 255 79 163
0.432237949 0 -1.11022302e-16 255 79 163
0.0108371078 0 0.336055957 255 79 163
0.0428050134 0 0.244696931 255 79 163
0.0943007125 0 0.162741996 255 79 163
0.162741996 0 0.0943007125 255 79 163
0.244696931 0 0.0428050134 255 79 163
0.336055957 0 0.0108371078 255 79 163
-1.11022302e-16 41.1862229 0.432237949 255 79 163
0 41.1862229 16.2948749 255 79 163
0.0108371078 41.2824049 16.2948749 255 79 163
0.0428050134 41.3737639 16.2948749 255 79 163
0.0943007125 41.4557189 16.2948749 255 79 163
0.162741996 41.5241602 16.2948749 255 79 163
0.244696931 41.5756559 16.2948749 255 79 163
0.336055957 41.6076238 16.2948749 255 79 163
0.432237949 41.6184609 16.2948749 255 79 163
0.432237949 41.6184609 -1.11022302e-16 255 79 163
0.014728151 41.2980943 0.320366536 255 79 163
0.0579089047 41.4023419 0.216118974 255 79 163
0.126599564 41.4918613 0.126599564 255 79 163
0.206394241 41.5547664 0.0636945131 255 79 163
0.280405821 41.5909162 0.0275446707 255 79 163
0.351811598 41.6109125 0.0075483605 255 79 163
0.39184805 41.6165697 0.00189122759 255 79 163
0 2.03323964 55.6653151 255 79 163
56.5914086 2.03323964 55.6653151 255 79 163
56.5914086 2.12942163 55.654478 255 79 163
56.5914086 2.22078066 55.6225101 255 79 163
56.5914086 2.30273559 55.5710144 255 79 163
56.5914086 2.37117688 55.5025731 255 79 163
56.5914086 2.42267257 55.4206182 255 79 163
56.5914086 2.45464048 55.3292592 255 79 163
56.5914086 2.46547759 55.2330772 255 79 163
0.432237949 2.46547759 55.2330772 255 79 163
0.00636066009 2.10711913 55.6589544 255 79 163
0.0252554379 2.17882425 55.6400597 255 79 163
0.0561282358 2.24624463 55.6091869 255 79 163
0.0980704276 2.307396 55.5672447 255 79 163
0.1498476 2.3604786 55.5154675 255 79 163
0.209935885 2.40393013 55.4553792 255 79 163
0.299896552 2.44471916 55.3654186 255 79 163
0.36525818 2.46025645 55.3000569 255 79 163
56.5914086 0 55.6653151 218 222 230
56.5914086 2.03323964 55.6653151 218 222 230
56.5914086 0 0.432237949 218 222 230
56.5914086 31.6365701 0.432237949 218 222 230
56.5914086 31.6365701 16.7271129 218 222 230
56.5914086 2.46547759 16.7271129 218 222 230
56.5914086 2.46547759 55.2330772 218 222 230
56.5914086 2.12942163 55.654478 218 222 230
56.5914086 2.22078066 55.6225101 218 222 230
56.5914086 2.30273559 55.5710144 218 222 230
56.5914086 2.37117688 55.5025731 218 222 230
56.5914086 2.42267257 55.4206182 218 222 230
56.5914086 2.45464048 55.3292592 218 222 230
56.5914086 2.46547759 55.2330772 218 222 230
56.5914086 2.46547759 16.7271129 218 222 230
0.432237949 2.46547759 55.2330772 218 222 230
0.432237949 2.46547759 16.7271129 218 222 230
0.432237949 41.6184609 -1.11022302e-16 218 222 230
14.2841604 41.6184609 0 218 222 230
0.432237949 0 -1.11022302e-16 218 222 230
56.1591707 0 -1.11022302e-16 218 222 230
56.1591707 31.6365701 -1.11022302e-16 218 222 230
15.1620048 31.6365701 -5.55111512e-17 218 222 230
15.1510934 31.6400232 -5.84961074e-17 218 222 230
15.1400474 31.6503895 -6.36664879e-17 218 222 230
15.1297005 31.6662142 -6.93941311e-17 218 222 230
15.1050025 31.7281422 -8.88754383e-17 218 222 230
15.0816226 31.8209668 -1.14983453e-16 218 222 230
15.0435426 32.0785211 -1.78767148e-16 218 222 230
15.0221869 32.501046 -1.11022302e-15 218 222 230
15.0221869 41.1862229 -3.88578059e-16 218 222 230
14.5590767 41.5873533 0 218 222 230
14.7737026 41.5096849 0 218 222 230
14.8953046 41.4285405 0 218 222 230
14.9677658 41.3491256 0 218 222 230
15.0048175 41.279446 0 218 222 230
15.0178317 41.2331112 0 218 222 230
12.7771041 36.8716794 0 218 222 230
12.7480459 37.1109951 0 218 222 230
12.6625601 37.3364026 0 218 222 230
12.5256148 37.5348021 0 218 222 230
12.3451688 37.6946633 0 218 222 230
12.131709 37.8066957 0 218 222 230
11.8976408 37.8643883 0 218 222 230
11.6565674 37.8643883 0 218 222 230
11.4224992 37.8066957 0 218 222 230
11.2090394 37.6946633 0 218 222 230
11.0285933 37.5348021 0 218 222 230
10.8916481 37.3364026 0 218 222 230
10.8061623 37.1109951 0 218 222 230
10.7771041 36.8716794 0 218 222 230
10.8061623 36.6323637 0 218 222 230
10.8916481 36.4069562 0 218 222 230
11.0285933 36.2085568 0 218 222 230
11.2090394 36.0486955 0 218 222 230
11.4224992 35.9366632 0 218 222 230
11.6565674 35.8789705 0 218 222 230
11.8976408 35.8789705 0 218 222 230
12.131709 35.9366632 0 218 222 230
12.3451688 36.0486955 0 218 222 230
12.5256148 36.2085568 0 218 222 230
12.6625601 36.4069562 0 218 222 230
12.7480459 36.6323637 0 218 222 230
56.1591707 0 -1.11022302e-16 255 79 163
56.1591707 31.6365701 -1.11022302e-16 255 79 163
56.5914086 31.6365701 0.432237949 255 79 163
56.5805715 31.6365701 0.336055957 255 79 163
56.5486036 31.6365701 0.244696931 255 79 163
56.4971079 31.6365701 0.162741996 255 79 163
56.4286667 31.6365701 0.0943007125 255 79 163
56.3467117 31.6365701 0.0428050134 255 79 163
56.2553527 31.6365701 0.0108371078 255 79 163
56.5914086 0 0.432237949 255 79 163
56.2553527 0 0.0108371078 255 79 163
56.3467117 0 0.0428050134 255 79 163
56.4286667 0 0.0943007125 255 79 163
56.4971079 0 0.162741996 255 79 163
56.5486036 0 0.244696931 255 79 163
56.5805715 0 0.336055957 255 79 163
0.432237949 41.1862229 16.7271129 255 79 163
0.432237949 41.2824049 16.7162758 255 79 163
0.432237949 41.3737639 16.6843079 255 79 163
0.432237949 41.4557189 16.6328122 255 79 163
0.432237949 41.5241602 16.5643709 255 79 163
0.432237949 41.5756559 16.482416 255 79 163
0.432237949 41.6076238 16.3910569 255 79 163
0.432237949 41.6184609 16.2948749 255 79 163
0 41.1862229 16.2948749 255 79 163
0.0108371078 41.2824049 16.2948749 255 79 163
0.0428050134 41.3737639 16.2948749 255 79 163
0.0943007125 41.4557189 16.2948749 255 79 163
0.162741996 41.5241602 16.2948749 255 79 163
0.244696931 41.5756559 16.2948749 255 79 163
0.336055957 41.6076238 16.2948749 255 79 163
0 41.1862229 16.2948749 255 79 163
0.0108371078 41.1862229 16.3910569 255 79 163
0.0428050134 41.1862229 16.482416 255 79 163
0.0943007125 41.1862229 16.5643709 255 79 163
0.162741996 41.1862229 16.6328122 255 79 163
0.244696931 41.1862229 16.6843079 255 79 163
0.336055957 41.1862229 16.7162758 255 79 163
0.021155231 41.3181473 16.3157697 255 79 163
0.021155231 41.3052337 16.3555139 255 79 163
0.021155231 41.2806704 16.3893224 255 79 163
0.0825501026 41.4278513 16.3733848 255 79 163
0.021155231 41.2468619 16.4138857 255 79 163
0.0825501026 41.3917643 16.4442095 255 79 163
0.178174857 41.5316055 16.3495782 255 79 163
0.021155231 41.2071177 16.4267994 255 79 163
0.0825501026 41.3355575 16.5004163 255 79 163
0.178174857 41.4977971 16.4536299 255 79 163
0.0825501026 41.2647327 16.5365033 255 79 163
0.178174857 41.4334896 16.5421416 255 79 163
0.298669077 41.5771858 16.4219065 255 79 163
0.178174857 41.3449779 16.6064491 255 79 163
0.298669077 41.5187958 16.5365033 255 79 163
0.178174857 41.2409262 16.6402576 255 79 163
0.298669077 41.4278513 16.6274478 255 79 163
0.298669077 41.3132545 16.6858378 255 79 163
0.432237949 2.46547759 16.7271129 218 222 230
56.5914086 2.46547759 16.7271129 218 222 230
56.5914086 31.6365701 16.7271129 218 222 230
13.685952 31.6365701 16.7271129 218 222 230
13.685952 41.1862229 16.7271129 218 222 230
0.432237949 41.1862229 16.7271129 218 222 230
7.44046545 24.7022673 16.7271129 218 222 230
6.98654039 25.2998651 16.7271129 218 222 230
7.14989307 24.0103577 16.7271129 218 222 230
6.80569239 23.7489088 16.7271129 218 222 230
6.89366016 23.7695733 16.7271129 218 222 230
6.97540923 23.8080758 16.7271129 218 222 230
7.04736676 23.8627335 16.7271129 218 222 230
7.10638788 23.9311576 16.7271129 218 222 230
6.06119494 23.6545971 16.7271129 218 222 230
5.60726987 24.2521949 16.7271129 218 222 230
5.5529488 24.6810059 16.7271129 218 222 230
5.52686093 24.5944913 16.7271129 218 222 230
5.51933053 24.5044433 16.7271129 218 222 230
5.53068673 24.4147974 16.7271129 218 222 230
5.56043319 24.3294716 16.7271129 218 222 230
5.84352119 25.3729155 16.7271129 218 222 230
6.58801864 25.4672272 16.7271129 218 222 230
6.92466049 25.3657152 16.7271129 218 222 230
6.85044182 25.4172607 16.7271129 218 222 230
6.76712809 25.4522489 16.7271129 218 222 230
6.6783605 25.4691506 16.7271129 218 222 230
13.209342 36.8716794 16.7271129 218 222 230
13.1677238 37.2144364 16.7271129 218 222 230
13.0452878 37.5372736 16.7271129 218 222 230
12.8491496 37.8214288 16.7271129 218 222 230
12.590708 38.0503881 16.7271129 218 222 230
12.2849827 38.2108452 16.7271129 218 222 230
11.9497413 38.2934747 16.7271129 218 222 230
11.6044669 38.2934747 16.7271129 218 222 230
11.2692255 38.2108452 16.7271129 218 222 230
10.9635002 38.0503881 16.7271129 218 222 230
10.7050586 37.8214288 16.7271129 218 222 230
10.5089204 37.5372736 16.7271129 218 222 230
10.3864844 37.2144364 16.7271129 218 222 230
10.3448661 36.8716794 16.7271129 218 222 230
10.3864844 36.5289224 16.7271129 218 222 230
10.5089204 36.2060853 16.7271129 218 222 230
10.7050586 35.92193 16.7271129 218 222 230
10.9635002 35.6929707 16.7271129 218 222 230
11.2692255 35.5325137 16.7271129 218 222 230
11.6044669 35.4498841 16.7271129 218 222 230
11.9497413 35.4498841 16.7271129 218 222 230
12.2849827 35.5325137 16.7271129 218 222 230
12.590708 35.6929707 16.7271129 218 222 230
12.8491496 35.92193 16.7271129 218 222 230
13.0452878 36.2060853 16.7271129 218 222 230
13.1677238 36.5289224 16.7271129 218 222 230
0.432237949 41.6184609 -1.11022302e-16 218 222 230
14.2841604 41.6184609 0 218 222 230
0.432237949 41.6184609 16.2948749 218 222 230
13.685952 41.6184609 16.2948749 218 222 230
2.70917008 41.6184609 8.36355645 218 222 230
56.5914086 31.6365701 16.7271129 255 79 163
56.5914086 31.6365701 0.432237949 255 79 163
56.1591707 32.068808 0.432237949 255 79 163
56.2553527 32.0579709 0.432237949 255 79 163
56.3467117 32.026003 0.432237949 255 79 163
56.4286667 31.9745073 0.432237949 255 79 163
56.4971079 31.906066 0.432237949 255 79 163
56.5486036 31.8241111 0.432237949 255 79 163
56.5805715 31.7327521 0.432237949 255 79 163
56.1591707 32.068808 16.2948749 255 79 163
56.585048 31.7104496 16.7207522 255 79 163
56.5661532 31.7821547 16.7018575 255 79 163
56.5352804 31.8495751 16.6709847 255 79 163
56.4933382 31.9107264 16.6290425 255 79 163
56.441561 31.963809 16.5772653 255 79 163
56.3814728 32.0072606 16.517177 255 79 163
56.2915121 32.0480496 16.4272163 255 79 163
56.2261505 32.0635869 16.3618547 255 79 163
14.2841604 41.6184609 0 255 79 163
2.70917008 41.6184609 8.36355645 255 79 163
2.98408633 41.5873533 8.36355645 255 79 163
3.19871227 41.5096849 8.36355645 255 79 163
3.32031425 41.4285405 8.36355645 255 79 163
3.39277541 41.3491256 8.36355645 255 79 163
3.42982712 41.279446 8.36355645 255 79 163
3.4428413 41.2331112 8.36355645 255 79 163
3.44719649 41.1862229 8.36355645 255 79 163
15.0221869 41.1862229 -3.88578059e-16 255 79 163
14.5590767 41.5873533 0 255 79 163
14.7737026 41.5096849 0 255 79 163
14.8953046 41.4285405 0 255 79 163
14.9677658 41.3491256 0 255 79 163
15.0048175 41.279446 0 255 79 163
15.0178317 41.2331112 0 255 79 163
15.0221869 41.1862229 -3.88578059e-16 218 222 230
15.0221869 32.501046 -1.11022302e-15 218 222 230
3.44719649 32.501046 8.36355645 218 222 230
3.44719649 41.1862229 8.36355645 218 222 230
12.7771041 36.8716794 1.6221937 218 222 230
12.7599231 36.6871075 1.63460789 218 222 230
12.7089705 36.5088778 1.67142389 218 222 230
12.6259972 36.3431148 1.73137664 218 222 230
12.5138541 36.1955142 1.81240602 218 222 230
12.3763949 36.071148 1.91172773 218 222 230
12.2183429 35.9742897 2.02592885 218 222 230
12.0451291 35.9082675 2.15108523 218 222 230
11.8627054 35.8753499 2.28289623 218 222 230
11.6773402 35.8766683 2.41683258 218 222 230
11.4954031 35.9121772 2.54829194 218 222 230
11.3231459 35.9806564 2.67275713 218 222 230
11.1664875 36.079753 2.78595127 218 222 230
11.0308111 36.2060618 2.88398478 218 222 230
10.9207789 36.3552425 2.96348905 218 222 230
10.8401716 36.5221689 3.02173214 218 222 230
10.7917592 36.7011053 3.05671271 218 222 230
10.7772053 36.8859029 3.06722875 218 222 230
10.7970098 37.0702118 3.05291893 218 222 230
10.8504923 37.2476987 3.01427494 218 222 230
10.935815 37.4122648 2.95262467 218 222 230
11.050046 37.5582554 2.87008655 218 222 230
11.1892602 37.6806538 2.76949676 218 222 230
11.3486739 37.7752543 2.65431175 218 222 230
11.5228093 37.8388062 2.5284895 218 222 230
11.7056828 37.8691257 2.39635353 218 222 230
11.8910104 37.8651709 2.26244429 218 222 230
12.072424 37.8270778 2.13136315 218 222 230
12.2436899 37.7561554 2.00761433 218 222 230
12.3989229 37.6548406 1.89545009 218 222 230
12.532789 37.5266148 1.79872459 218 222 230
12.6406882 37.3758842 1.72076154 218 222 230
12.718913 37.2078281 1.66423989 218 222 230
12.7624489 37.0422535 1.63278284 218 222 230
15.0221869 32.501046 -1.11022302e-15 218 222 230
15.0221869 32.501046 -1.11022302e-15 218 222 230
15.1620048 31.6365701 -5.55111512e-17 218 222 230
15.1510934 31.6400232 -5.84961074e-17 218 222 230
15.1400474 31.6503895 -6.36664879e-17 218 222 230
15.1297005 31.6662142 -6.93941311e-17 218 222 230
15.1050025 31.7281422 -8.88754383e-17 218 222 230
15.0816226 31.8209668 -1.14983453e-16 218 222 230
15.0435426 32.0785211 -1.78767148e-16 218 222 230
15.1620048 31.7374735 0.0119422697 218 222 230
15.1620048 31.8328022 0.0471113171 218 222 230
15.1620048 31.9172864 0.103561883 218 222 230
15.1620048 31.9862575 0.178174473 218 222 230
15.1620048 32.0359059 0.266827693 218 222 230
15.1620048 32.0605032 0.34791305 218 222 230
15.1620048 32.068808 0.432237949 218 222 230
15.1199081 32.0807508 0.338167079 218 222 230
15.0810771 32.1159191 0.248615814 218 222 230
15.0485969 32.1723697 0.167854022 218 222 230
15.0252019 32.2469829 0.0996658385 218 222 230
15.0131242 32.3356357 0.0471405958 218 222 230
15.0128848 32.4167205 0.0169677506 218 222 230
15.1279652 31.7781353 0.0145512132 218 222 230
15.1294846 31.8272393 0.0318040354 218 222 230
15.1311806 31.8736856 0.0549665904 218 222 230
15.1330351 31.9166958 0.0835461819 218 222 230
15.1349746 31.955542 0.117076795 218 222 230
15.1387029 32.0181967 0.197113468 218 222 230
15.1417212 32.0574804 0.290890793 218 222 230
15.103606 31.876794 0.0295796368 218 222 230
15.0853799 32.0375936 0.085273168 218 222 230
15.0716462 32.0750044 0.0734495292 218 222 230
15.0493933 32.1566941 0.0508435325 218 222 230
15.0401733 32.2026139 0.0398170765 218 222 230
15.0325257 32.250796 0.0295182129 218 222 230
15.0808241 31.9413722 0.0259746198 218 222 230
15.0737847 31.9661308 0.024438129 218 222 230
15.0513201 32.0669738 0.0177212985 218 222 230
15.0426022 32.1197282 0.0141476808 218 222 230
15.038716 32.1473486 0.012321619 218 222 230
15.0352188 32.1752998 0.0105303352 218 222 230
15.0221415 32.342323 0.0307221256 218 222 230
15.0810742 31.8837562 0.00723488143 218 222 230
15.0775897 31.8980759 0.00704624191 218 222 230
15.0654156 31.9545308 0.00620809482 218 222 230
15.0463946 32.0702359 0.00419888467 218 222 230
15.0425788 32.099642 0.00366674006 218 222 230
15.0407513 32.1148227 0.00339387305 218 222 230
15.0390121 32.1300493 0.00312273728 218 222 230
15.0431553 32.0893349 0.000925966333 218 222 230
15.0422677 32.0972849 0.000888451396 218 222 230
15.0414005 32.105242 0.000851027033 218 222 230
15.042976 32.0880839 0.000227152082 218 222 230
15.0425445 32.0921518 0.000222234121 218 222 230
56.1591707 31.6365701 -1.11022302e-16 255 79 163
15.1620048 31.6365701 -5.55111512e-17 255 79 163
15.1620048 31.7374735 0.0119422697 255 79 163
15.1620048 31.8328022 0.0471113171 255 79 163
15.1620048 31.9172864 0.103561883 255 79 163
15.1620048 31.9862575 0.178174473 255 79 163
15.1620048 32.0359059 0.266827693 255 79 163
15.1620048 32.0605032 0.34791305 255 79 163
15.1620048 32.068808 0.432237949 255 79 163
56.1591707 32.068808 0.432237949 255 79 163
56.1591707 32.0579709 0.336055957 255 79 163
56.1591707 32.026003 0.244696931 255 79 163
56.1591707 31.9745073 0.162741996 255 79 163
56.1591707 31.906066 0.0943007125 255 79 163
56.1591707 31.8241111 0.0428050134 255 79 163
56.1591707 31.7327521 0.0108371078 255 79 163
12.7771041 36.8716794 1.6221937 218 222 230
12.7599231 36.6871075 1.63460789 218 222 230
12.7089705 36.5088778 1.67142389 218 222 230
12.6259972 36.3431148 1.73137664 218 222 230
12.5138541 36.1955142 1.81240602 218 222 230
12.3763949 36.071148 1.91172773 218 222 230
12.2183429 35.9742897 2.02592885 218 222 230
12.0451291 35.9082675 2.15108523 218 222 230
11.8627054 35.8753499 2.28289623 218 222 230
11.6773402 35.8766683 2.41683258 218 222 230
11.4954031 35.9121772 2.54829194 218 222 230
11.3231459 35.9806564 2.67275713 218 222 230
11.1664875 36.079753 2.78595127 218 222 230
11.0308111 36.2060618 2.88398478 218 222 230
10.9207789 36.3552425 2.96348905 218 222 230
10.8401716 36.5221689 3.02173214 218 222 230
10.7917592 36.7011053 3.05671271 218 222 230
10.7772053 36.8859029 3.06722875 218 222 230
10.7970098 37.0702118 3.05291893 218 222 230
10.8504923 37.2476987 3.01427494 218 222 230
10.935815 37.4122648 2.95262467 218 222 230
11.050046 37.5582554 2.87008655 218 222 230
11.1892602 37.6806538 2.76949676 218 222 230
11.3486739 37.7752543 2.65431175 218 222 230
11.5228093 37.8388062 2.5284895 218 222 230
11.7056828 37.8691257 2.39635353 218 222 230
11.8910104 37.8651709 2.26244429 218 222 230
12.072424 37.8270778 2.13136315 218 222 230
12.2436899 37.7561554 2.00761433 218 222 230
12.3989229 37.6548406 1.89545009 218 222 230
12.532789 37.5266148 1.79872459 218 222 230
12.6406882 37.3758842 1.72076154 218 222 230
12.718913 37.2078281 1.66423989 218 222 230
12.7624489 37.0422535 1.63278284 218 222 230
12.7771041 36.8716794 1.6221937 218 222 230
12.7771041 36.8716794 0 218 222 230
12.7480459 37.1109951 0 218 222 230
12.6625601 37.3364026 0 218 222 230
12.5256148 37.5348021 0 218 222 230
12.3451688 37.6946633 0 218 222 230
12.131709 37.8066957 0 218 222 230
11.8976408 37.8643883 0 218 222 230
11.6565674 37.8643883 0 218 222 230
11.4224992 37.8066957 0 218 222 230
11.2090394 37.6946633 0 218 222 230
11.0285933 37.5348021 0 218 222 230
10.8916481 37.3364026 0 218 222 230
10.8061623 37.1109951 0 218 222 230
10.7771041 36.8716794 0 218 222 230
10.8061623 36.6323637 0 218 222 230
10.8916481 36.4069562 0 218 222 230
11.0285933 36.2085568 0 218 222 230
11.2090394 36.0486955 0 218 222 230
11.4224992 35.9366632 0 218 222 230
11.6565674 35.8789705 0 218 222 230
11.8976408 35.8789705 0 218 222 230
12.131709 35.9366632 0 218 222 230
12.3451688 36.0486955 0 218 222 230
12.5256148 36.2085568 0 218 222 230
12.6625601 36.4069562 0 218 222 230
12.7480459 36.6323637 0 218 222 230
12.7771041 36.8716794 0 218 222 230
56.5914086 31.6365701 0.432237949 255 79 163
56.5805715 31.6365701 0.336055957 255 79 163
56.5486036 31.6365701 0.244696931 255 79 163
56.4971079 31.6365701 0.162741996 255 79 163
56.4286667 31.6365701 0.0943007125 255 79 163
56.3467117 31.6365701 0.0428050134 255 79 163
56.2553527 31.6365701 0.0108371078 255 79 163
56.1591707 31.6365701 -1.11022302e-16 255 79 163
56.1591707 32.068808 0.432237949 255 79 163
56.1591707 32.0579709 0.336055957 255 79 163
56.1591707 32.026003 0.244696931 255 79 163
56.1591707 31.9745073 0.162741996 255 79 163
56.1591707 31.906066 0.0943007125 255 79 163
56.1591707 31.8241111 0.0428050134 255 79 163
56.1591707 31.7327521 0.0108371078 255 79 163
56.1591707 32.068808 0.432237949 255 79 163
56.2553527 32.0579709 0.432237949 255 79 163
56.3467117 32.026003 0.432237949 255 79 163
56.4286667 31.9745073 0.432237949 255 79 163
56.4971079 31.906066 0.432237949 255 79 163
56.5486036 31.8241111 0.432237949 255 79 163
56.5805715 31.7327521 0.432237949 255 79 163
56.1800655 32.0476528 0.300313532 255 79 163
56.2198097 32.0476528 0.313227213 255 79 163
56.2536182 32.0476528 0.337790494 255 79 163
56.2376805 31.9862579 0.19060959 255 79 163
56.2781814 32.0476528 0.37159895 255 79 163
56.3085052 31.9862579 0.22669659 255 79 163
56.2138739 31.8906332 0.0868553403 255 79 163
56.2910951 32.0476528 0.411343174 255 79 163
56.3647121 31.9862579 0.28290341 255 79 163
56.3179257 31.8906332 0.120663796 255 79 163
56.4007991 31.9862579 0.353728136 255 79 163
56.4064373 31.8906332 0.184971302 255 79 163
56.2862022 31.7701389 0.0412750513 255 79 163
56.4707448 31.8906332 0.273482989 255 79 163
56.4007991 31.7701389 0.099665044 255 79 163
56.5045533 31.8906332 0.377534718 255 79 163
56.4917436 31.7701389 0.19060959 255 79 163
56.5501336 31.7701389 0.305206403 255 79 163
13.685952 41.6184609 16.2948749 255 79 163
13.685952 41.6076238 16.3910569 255 79 163
13.685952 41.5756559 16.482416 255 79 163
13.685952 41.5241602 16.5643709 255 79 163
13.685952 41.4557189 16.6328122 255 79 163
13.685952 41.3737639 16.6843079 255 79 163
13.685952 41.2824049 16.7162758 255 79 163
13.685952 41.1862229 16.7271129 255 79 163
0.432237949 41.6184609 16.2948749 255 79 163
0.432237949 41.1862229 16.7271129 255 79 163
0.432237949 41.2824049 16.7162758 255 79 163
0.432237949 41.3737639 16.6843079 255 79 163
0.432237949 41.4557189 16.6328122 255 79 163
0.432237949 41.5241602 16.5643709 255 79 163
0.432237949 41.5756559 16.482416 255 79 163
0.432237949 41.6076238 16.3910569 255 79 163
13.685952 31.6365701 16.7271129 255 79 163
56.5914086 31.6365701 16.7271129 255 79 163
56.585048 31.7104496 16.7207522 255 79 163
56.5661532 31.7821547 16.7018575 255 79 163
56.5352804 31.8495751 16.6709847 255 79 163
56.4933382 31.9107264 16.6290425 255 79 163
56.441561 31.963809 16.5772653 255 79 163
56.3814728 32.0072606 16.517177 255 79 163
56.2915121 32.0480496 16.4272163 255 79 163
56.2261505 32.0635869 16.3618547 255 79 163
56.1591707 32.068808 16.2948749 255 79 163
14.11819 32.068808 16.2948749 255 79 163
13.7978234 31.7484415 16.7123847 255 79 163
13.902071 31.8526891 16.669204 255 79 163
13.9915904 31.9422085 16.6005133 255 79 163
14.0544954 32.0051135 16.5207187 255 79 163
14.0906453 32.0412634 16.4467071 255 79 163
14.1106416 32.0612597 16.3753013 255 79 163
14.1162987 32.0669168 16.3352648 255 79 163
14.11819 32.068808 16.2948749 255 79 163
14.1061811 32.068808 16.1936962 255 79 163
14.0708219 32.068808 16.0981396 255 79 163
14.014077 32.068808 16.0135147 255 79 163
13.9390996 32.068808 15.9445238 255 79 163
13.9390996 41.1862229 15.9445238 255 79 163
14.0119417 41.1862229 16.0110434 255 79 163
14.067805 41.1862229 16.092346 255 79 163
14.1037798 41.1862229 16.1841972 255 79 163
14.1179925 41.1862229 16.2818128 255 79 163
14.1097029 41.1862229 16.3801088 255 79 163
14.0793427 41.1862229 16.4739655 255 79 163
14.0284931 41.1862229 16.5584945 255 79 163
13.9598026 41.1862229 16.6292931 255 79 163
13.8768489 41.1862229 16.6826739 255 79 163
13.7839526 41.1862229 16.7158566 255 79 163
13.685952 41.1862229 16.7271129 255 79 163
13.685952 31.6365701 16.7271129 255 79 163
13.7978234 31.7484415 16.7123847 255 79 163
13.902071 31.8526891 16.669204 255 79 163
13.9915904 31.9422085 16.6005133 255 79 163
14.0544954 32.0051135 16.5207187 255 79 163
14.0906453 32.0412634 16.4467071 255 79 163
14.1106416 32.0612597 16.3753013 255 79 163
14.1162987 32.0669168 16.3352648 255 79 163
7.44046545 24.7022673 16.7271129 218 222 230
6.98654039 25.2998651 16.7271129 218 222 230
7.44046545 24.7022673 10.6421715 218 222 230
6.98654039 25.2998651 10.6421715 218 222 230
6.98654039 25.2998651 16.7271129 218 222 230
6.98654039 25.2998651 10.6421715 218 222 230
6.92466049 25.3657152 10.6421715 218 222 230
6.85044182 25.4172607 10.6421715 218 222 230
6.76712809 25.4522489 10.6421715 218 222 230
6.6783605 25.4691506 10.6421715 218 222 230
6.58801864 25.4672272 10.6421715 218 222 230
6.58801864 25.4672272 16.7271129 218 222 230
6.92466049 25.3657152 16.7271129 218 222 230
6.85044182 25.4172607 16.7271129 218 222 230
6.76712809 25.4522489 16.7271129 218 222 230
6.6783605 25.4691506 16.7271129 218 222 230
7.14989307 24.0103577 16.7271129 218 222 230
7.44046545 24.7022673 16.7271129 218 222 230
7.14989307 24.0103577 10.6421715 218 222 230
7.44046545 24.7022673 10.6421715 218 222 230
6.58801864 25.4672272 16.7271129 218 222 230
5.84352119 25.3729155 16.7271129 218 222 230
6.58801864 25.4672272 10.6421715 218 222 230
5.84352119 25.3729155 10.6421715 218 222 230
6.80569239 23.7489088 16.7271129 218 222 230
6.80569239 23.7489088 10.6421715 218 222 230
6.89366016 23.7695733 10.6421715 218 222 230
6.97540923 23.8080758 10.6421715 218 222 230
7.04736676 23.8627335 10.6421715 218 222 230
7.10638788 23.9311576 10.6421715 218 222 230
7.14989307 24.0103577 10.6421715 218 222 230
7.14989307 24.0103577 16.7271129 218 222 230
6.89366016 23.7695733 16.7271129 218 222 230
6.97540923 23.8080758 16.7271129 218 222 230
7.04736676 23.8627335 16.7271129 218 222 230
7.10638788 23.9311576 16.7271129 218 222 230
5.84352119 25.3729155 16.7271129 218 222 230
5.5529488 24.6810059 16.7271129 218 222 230
5.84352119 25.3729155 10.6421715 218 222 230
5.5529488 24.6810059 10.6421715 218 222 230
6.06119494 23.6545971 16.7271129 218 222 230
6.80569239 23.7489088 16.7271129 218 222 230
6.06119494 23.6545971 10.6421715 218 222 230
6.80569239 23.7489088 10.6421715 218 222 230
5.5529488 24.6810059 16.7271129 218 222 230
5.5529488 24.6810059 10.6421715 218 222 230
5.52686093 24.5944913 10.6421715 218 222 230
5.51933053 24.5044433 10.6421715 218 222 230
5.53068673 24.4147974 10.6421715 218 222 230
5.56043319 24.3294716 10.6421715 218 222 230
5.60726987 24.2521949 10.6421715 218 222 230
5.60726987 24.2521949 16.7271129 218 222 230
5.52686093 24.5944913 16.7271129 218 222 230
5.51933053 24.5044433 16.7271129 218 222 230
5.53068673 24.4147974 16.7271129 218 222 230
5.56043319 24.3294716 16.7271129 218 222 230
5.60726987 24.2521949 16.7271129 218 222 230
6.06119494 23.6545971 16.7271129 218 222 230
5.60726987 24.2521949 10.6421715 218 222 230
6.06119494 23.6545971 10.6421715 218 222 230
13.209342 36.8716794 16.7271129 255 79 163
13.1131601 36.8716794 16.7162758 255 79 163
13.021801 36.8716794 16.6843079 255 79 163
12.9398461 36.8716794 16.6328122 255 79 163
12.8714048 36.8716794 16.5643709 255 79 163
12.8199091 36.8716794 16.482416 255 79 163
12.7879412 36.8716794 16.3910569 255 79 163
12.7771041 36.8716794 16.2948749 255 79 163
13.1677238 37.2144364 16.7271129 255 79 163
13.0452878 37.5372736 16.7271129 255 79 163
12.8491496 37.8214288 16.7271129 255 79 163
12.590708 38.0503881 16.7271129 255 79 163
12.2849827 38.2108452 16.7271129 255 79 163
11.9497413 38.2934747 16.7271129 255 79 163
11.6044669 38.2934747 16.7271129 255 79 163
11.2692255 38.2108452 16.7271129 255 79 163
10.9635002 38.0503881 16.7271129 255 79 163
10.7050586 37.8214288 16.7271129 255 79 163
10.5089204 37.5372736 16.7271129 255 79 163
10.3864844 37.2144364 16.7271129 255 79 163
10.3448661 36.8716794 16.7271129 255 79 163
10.3864844 36.5289224 16.7271129 255 79 163
10.5089204 36.2060853 16.7271129 255 79 163
10.7050586 35.92193 16.7271129 255 79 163
10.9635002 35.6929707 16.7271129 255 79 163
11.2692255 35.5325137 16.7271129 255 79 163
11.6044669 35.4498841 16.7271129 255 79 163
11.9497413 35.4498841 16.7271129 255 79 163
12.2849827 35.5325137 16.7271129 255 79 163
12.590708 35.6929707 16.7271129 255 79 163
12.8491496 35.92193 16.7271129 255 79 163
13.0452878 36.2060853 16.7271129 255 79 163
13.1677238 36.5289224 16.7271129 255 79 163
13.209342 36.8716794 16.7271129 255 79 163
13.1131601 36.8716794 16.7162758 255 79 163
13.021801 36.8716794 16.6843079 255 79 163
12.9398461 36.8716794 16.6328122 255 79 163
12.8714048 36.8716794 16.5643709 255 79 163
12.8199091 36.8716794 16.482416 255 79 163
12.7879412 36.8716794 16.3910569 255 79 163
12.7771041 36.8716794 16.2948749 255 79 163
12.7480459 37.1109951 16.2948749 255 79 163
12.6625601 37.3364026 16.2948749 255 79 163
12.5256148 37.5348021 16.2948749 255 79 163
12.3451688 37.6946633 16.2948749 255 79 163
12.131709 37.8066957 16.2948749 255 79 163
11.8976408 37.8643883 16.2948749 255 79 163
11.6565674 37.8643883 16.2948749 255 79 163
11.4224992 37.8066957 16.2948749 255 79 163
11.2090394 37.6946633 16.2948749 255 79 163
11.0285933 37.5348021 16.2948749 255 79 163
10.8916481 37.3364026 16.2948749 255 79 163
10.8061623 37.1109951 16.2948749 255 79 163
10.7771041 36.8716794 16.2948749 255 79 163
10.8061623 36.6323637 16.2948749 255 79 163
10.8916481 36.4069562 16.2948749 255 79 163
11.0285933 36.2085568 16.2948749 255 79 163
11.2090394 36.0486955 16.2948749 255 79 163
11.4224992 35.9366632 16.2948749 255 79 163
11.6565674 35.8789705 16.2948749 255 79 163
11.8976408 35.8789705 16.2948749 255 79 163
12.131709 35.9366632 16.2948749 255 79 163
12.3451688 36.0486955 16.2948749 255 79 163
12.5256148 36.2085568 16.2948749 255 79 163
12.6625601 36.4069562 16.2948749 255 79 163
12.7480459 36.6323637 16.2948749 255 79 163
13.0743367 37.1914185 16.7162758 255 79 163
12.9856324 37.1695549 16.6843079 255 79 163
12.9060589 37.1499418 16.6328122 255 79 163
12.9601229 37.4925756 16.7162758 255 79 163
12.8396064 37.1335627 16.5643709 255 79 163
12.8792285 37.4501189 16.6843079 255 79 163
12.7896071 37.121239 16.482416 255 79 163
12.806661 37.4120326 16.6328122 255 79 163
12.7585681 37.1135886 16.3910569 255 79 163
12.7771563 37.7576484 16.7162758 255 79 163
12.7460593 37.3802263 16.5643709 255 79 163
12.7087731 37.6970662 16.6843079 255 79 163
12.7004621 37.3562951 16.482416 255 79 163
12.647429 37.64272 16.6328122 255 79 163
12.6721559 37.3414388 16.3910569 255 79 163
12.5360704 37.9712319 16.7162758 255 79 163
12.5961999 37.597335 16.5643709 255 79 163
12.4841725 37.8960449 16.6843079 255 79 163
12.5576549 37.563187 16.482416 255 79 163
12.4376168 37.8285973 16.6328122 255 79 163
12.5337265 37.5419884 16.3910569 255 79 163
12.2508761 38.1209134 16.7162758 255 79 163
12.3987378 37.7722712 16.5643709 255 79 163
12.2184797 38.0354913 16.6843079 255 79 163
12.3694849 37.7298911 16.482416 255 79 163
12.1894181 37.9588621 16.6328122 255 79 163
12.351325 37.703582 16.3910569 255 79 163
11.9381478 38.197994 16.7162758 255 79 163
12.1651485 37.8948684 16.5643709 255 79 163
11.9271357 38.1073011 16.6843079 255 79 163
12.1468879 37.846719 16.482416 255 79 163
11.9172572 38.0259437 16.6328122 255 79 163
12.1355519 37.8168285 16.3910569 255 79 163
11.6160603 38.197994 16.7162758 255 79 163
11.9090075 37.9580014 16.5643709 255 79 163
11.6270725 38.1073011 16.6843079 255 79 163
11.9028004 37.9068812 16.482416 255 79 163
11.636951 38.0259437 16.6328122 255 79 163
11.898947 37.8751464 16.3910569 255 79 163
11.3033321 38.1209134 16.7162758 255 79 163
11.6452007 37.9580014 16.5643709 255 79 163
11.3357285 38.0354913 16.6843079 255 79 163
11.6514078 37.9068812 16.482416 255 79 163
11.3647901 37.9588621 16.6328122 255 79 163
11.6552611 37.8751464 16.3910569 255 79 163
11.0181378 37.9712319 16.7162758 255 79 163
11.3890597 37.8948684 16.5643709 255 79 163
11.0700357 37.8960449 16.6843079 255 79 163
11.4073203 37.846719 16.482416 255 79 163
11.1165914 37.8285973 16.6328122 255 79 163
11.4186563 37.8168285 16.3910569 255 79 163
10.7770519 37.7576484 16.7162758 255 79 163
11.1554704 37.7722712 16.5643709 255 79 163
10.8454351 37.6970662 16.6843079 255 79 163
11.1847233 37.7298911 16.482416 255 79 163
10.9067792 37.64272 16.6328122 255 79 163
11.2028832 37.703582 16.3910569 255 79 163
10.5940853 37.4925756 16.7162758 255 79 163
10.9580083 37.597335 16.5643709 255 79 163
10.6749797 37.4501189 16.6843079 255 79 163
10.9965533 37.563187 16.482416 255 79 163
10.7475472 37.4120326 16.6328122 255 79 163
11.0204817 37.5419884 16.3910569 255 79 163
10.4798715 37.1914185 16.7162758 255 79 163
10.8081489 37.3802263 16.5643709 255 79 163
10.5685758 37.1695549 16.6843079 255 79 163
10.8537461 37.3562951 16.482416 255 79 163
10.6481493 37.1499418 16.6328122 255 79 163
10.8820523 37.3414388 16.3910569 255 79 163
10.4410481 36.8716794 16.7162758 255 79 163
10.7146018 37.1335627 16.5643709 255 79 163
10.5324072 36.8716794 16.6843079 255 79 163
10.7646011 37.121239 16.482416 255 79 163
10.6143621 36.8716794 16.6328122 255 79 163
10.7956401 37.1135886 16.3910569 255 79 163
10.4798715 36.5519403 16.7162758 255 79 163
10.6828034 36.8716794 16.5643709 255 79 163
10.5685758 36.5738039 16.6843079 255 79 163
10.7342991 36.8716794 16.482416 255 79 163
10.6481493 36.593417 16.6328122 255 79 163
10.766267 36.8716794 16.3910569 255 79 163
10.5940853 36.2507833 16.7162758 255 79 163
10.7146018 36.6097961 16.5643709 255 79 163
10.6749797 36.2932399 16.6843079 255 79 163
10.7646011 36.6221198 16.482416 255 79 163
10.7475472 36.3313263 16.6328122 255 79 163
10.7956401 36.6297703 16.3910569 255 79 163
10.7770519 35.9857104 16.7162758 255 79 163
10.8081489 36.3631325 16.5643709 255 79 163
10.8454351 36.0462927 16.6843079 255 79 163
10.8537461 36.3870638 16.482416 255 79 163
10.9067792 36.1006388 16.6328122 255 79 163
10.8820523 36.40192 16.3910569 255 79 163
11.0181378 35.7721269 16.7162758 255 79 163
10.9580083 36.1460238 16.5643709 255 79 163
11.0700357 35.8473139 16.6843079 255 79 163
10.9965533 36.1801718 16.482416 255 79 163
11.1165914 35.9147615 16.6328122 255 79 163
11.0204817 36.2013704 16.3910569 255 79 163
11.3033321 35.6224454 16.7162758 255 79 163
11.1554704 35.9710876 16.5643709 255 79 163
11.3357285 35.7078676 16.6843079 255 79 163
11.1847233 36.0134677 16.482416 255 79 163
11.3647901 35.7844968 16.6328122 255 79 163
11.2028832 36.0397768 16.3910569 255 79 163
11.6160603 35.5453648 16.7162758 255 79 163
11.3890597 35.8484905 16.5643709 255 79 163
11.6270725 35.6360577 16.6843079 255 79 163
11.4073203 35.8966398 16.482416 255 79 163
11.636951 35.7174151 16.6328122 255 79 163
11.4186563 35.9265303 16.3910569 255 79 163
11.9381478 35.5453648 16.7162758 255 79 163
11.6452007 35.7853574 16.5643709 255 79 163
11.9271357 35.6360577 16.6843079 255 79 163
11.6514078 35.8364776 16.482416 255 79 163
11.9172572 35.7174151 16.6328122 255 79 163
11.6552611 35.8682124 16.3910569 255 79 163
12.2508761 35.6224454 16.7162758 255 79 163
11.9090075 35.7853574 16.5643709 255 79 163
12.2184797 35.7078676 16.6843079 255 79 163
11.9028004 35.8364776 16.482416 255 79 163
12.1894181 35.7844968 16.6328122 255 79 163
11.898947 35.8682124 16.3910569 255 79 163
12.5360704 35.7721269 16.7162758 255 79 163
12.1651485 35.8484905 16.5643709 255 79 163
12.4841725 35.8473139 16.6843079 255 79 163
12.1468879 35.8966398 16.482416 255 79 163
12.4376168 35.9147615 16.6328122 255 79 163
12.1355519 35.9265303 16.3910569 255 79 163
12.7771563 35.9857104 16.7162758 255 79 163
12.3987378 35.9710876 16.5643709 255 79 163
12.7087731 36.0462927 16.6843079 255 79 163
12.3694849 36.0134677 16.482416 255 79 163
12.647429 36.1006388 16.6328122 255 79 163
12.351325 36.0397768 16.3910569 255 79 163
12.9601229 36.2507833 16.7162758 255 79 163
12.5961999 36.1460238 16.5643709 255 79 163
12.8792285 36.2932399 16.6843079 255 79 163
12.5576549 36.1801718 16.482416 255 79 163
12.806661 36.3313263 16.6328122 255 79 163
12.5337265 36.2013704 16.3910569 255 79 163
13.0743367 36.5519403 16.7162758 255 79 163
12.7460593 36.3631325 16.5643709 255 79 163
12.9856324 36.5738039 16.6843079 255 79 163
12.7004621 36.3870638 16.482416 255 79 163
12.9060589 36.593417 16.6328122 255 79 163
12.6721559 36.40192 16.3910569 255 79 163
12.8396064 36.6097961 16.5643709 255 79 163
12.7896071 36.6221198 16.482416 255 79 163
12.7585681 36.6297703 16.3910569 255 79 163
2.70917008 41.6184609 8.36355645 255 79 163
13.685952 41.6184609 16.2948749 255 79 163
13.7422827 41.6076238 16.2169145 255 79 163
13.7957886 41.5756559 16.1428633 255 79 163
13.843787 41.5241602 16.0764346 255 79 163
13.8838708 41.4557189 16.0209594 255 79 163
13.9140301 41.3737639 15.9792195 255 79 163
13.9327527 41.2824049 15.9533078 255 79 163
13.9390996 41.1862229 15.9445238 255 79 163
3.44719649 41.1862229 8.36355645 255 79 163
2.98408633 41.5873533 8.36355645 255 79 163
3.19871227 41.5096849 8.36355645 255 79 163
3.32031425 41.4285405 8.36355645 255 79 163
3.39277541 41.3491256 8.36355645 255 79 163
3.42982712 41.279446 8.36355645 255 79 163
3.4428413 41.2331112 8.36355645 255 79 163
3.8162097 32.068808 8.63018844 218 222 230
13.9390996 32.068808 15.9445238 218 222 230
14.11819 32.068808 16.2948749 218 222 230
14.1061811 32.068808 16.1936962 218 222 230
14.0708219 32.068808 16.0981396 218 222 230
14.014077 32.068808 16.0135147 218 222 230
56.1591707 32.068808 16.2948749 218 222 230
56.1591707 32.068808 0.432237949 218 222 230
15.1620048 32.068808 0.432237949 218 222 230
15.1620048 32.068808 0.432237949 255 79 163
3.8162097 32.068808 8.63018844 255 79 163
3.72070205 32.0835362 8.561179 255 79 163
3.64013182 32.1211879 8.50296265 255 79 163
3.57582101 32.1731057 8.45649461 255 79 163
3.52227964 32.2397153 8.41780808 255 79 163
3.48190638 32.3180325 8.38863621 255 79 163
3.45650995 32.4045488 8.37028592 255 79 163
3.44953225 32.45249 8.36524416 255 79 163
3.44719649 32.501046 8.36355645 255 79 163
15.0221869 32.501046 -1.11022302e-15 255 79 163
15.1199081 32.0807508 0.338167079 255 79 163
15.0810771 32.1159191 0.248615814 255 79 163
15.0485969 32.1723697 0.167854022 255 79 163
15.0252019 32.2469829 0.0996658385 255 79 163
15.0131242 32.3356357 0.0471405958 255 79 163
15.0128848 32.4167205 0.0169677506 255 79 163
3.44719649 41.1862229 8.36355645 218 222 230
3.44719649 32.501046 8.36355645 218 222 230
3.8162097 32.068808 8.63018844 218 222 230
3.72070205 32.0835362 8.561179 218 222 230
3.64013182 32.1211879 8.50296265 218 222 230
3.57582101 32.1731057 8.45649461 218 222 230
3.52227964 32.2397153 8.41780808 218 222 230
3.48190638 32.3180325 8.38863621 218 222 230
3.45650995 32.4045488 8.37028592 218 222 230
3.44953225 32.45249 8.36524416 218 222 230
13.9390996 32.068808 15.9445238 218 222 230
13.9390996 41.1862229 15.9445238 218 222 230
12.7771041 36.8716794 15.1049192 218 222 230
12.7599231 37.0562513 15.092505 218 222 230
12.7089705 37.234481 15.055689 218 222 230
12.6259972 37.4002441 14.9957363 218 222 230
12.5138541 37.5478446 14.9147069 218 222 230
12.3763949 37.6722108 14.8153852 218 222 230
12.2183429 37.7690691 14.701184 218 222 230
12.0451291 37.8350914 14.5760277 218 222 230
11.8627054 37.8680089 14.4442167 218 222 230
11.6773402 37.8666906 14.3102803 218 222 230
11.4954031 37.8311817 14.1788209 218 222 230
11.3231459 37.7627024 14.0543558 218 222 230
11.1664875 37.6636058 13.9411616 218 222 230
11.0308111 37.537297 13.8431281 218 222 230
10.9207789 37.3881164 13.7636238 218 222 230
10.8401716 37.2211899 13.7053808 218 222 230
10.7917592 37.0422535 13.6704002 218 222 230
10.7772053 36.8574559 13.6598841 218 222 230
10.7970098 36.6731471 13.674194 218 222 230
10.8504923 36.4956601 13.712838 218 222 230
10.935815 36.331094 13.7744882 218 222 230
11.050046 36.1851035 13.8570263 218 222 230
11.1892602 36.062705 13.9576161 218 222 230
11.3486739 35.9681045 14.0728011 218 222 230
11.5228093 35.9045527 14.1986234 218 222 230
11.7056828 35.8742332 14.3307594 218 222 230
11.8910104 35.8781879 14.4646686 218 222 230
12.072424 35.916281 14.5957497 218 222 230
12.2436899 35.9872034 14.7194986 218 222 230
12.3989229 36.0885182 14.8316628 218 222 230
12.532789 36.216744 14.9283883 218 222 230
12.6406882 36.3674746 15.0063514 218 222 230
12.718913 36.5355308 15.062873 218 222 230
12.7624489 36.7011053 15.0943301 218 222 230
13.685952 41.6184609 16.2948749 255 79 163
13.7422827 41.6076238 16.2169145 255 79 163
13.7957886 41.5756559 16.1428633 255 79 163
13.843787 41.5241602 16.0764346 255 79 163
13.8838708 41.4557189 16.0209594 255 79 163
13.9140301 41.3737639 15.9792195 255 79 163
13.9327527 41.2824049 15.9533078 255 79 163
13.9390996 41.1862229 15.9445238 255 79 163
13.685952 41.6184609 16.2948749 255 79 163
13.685952 41.6076238 16.3910569 255 79 163
13.685952 41.5756559 16.482416 255 79 163
13.685952 41.5241602 16.5643709 255 79 163
13.685952 41.4557189 16.6328122 255 79 163
13.685952 41.3737639 16.6843079 255 79 163
13.685952 41.2824049 16.7162758 255 79 163
13.685952 41.1862229 16.7271129 255 79 163
14.0119417 41.1862229 16.0110434 255 79 163
14.067805 41.1862229 16.092346 255 79 163
14.1037798 41.1862229 16.1841972 255 79 163
14.1179925 41.1862229 16.2818128 255 79 163
14.1097029 41.1862229 16.3801088 255 79 163
14.0793427 41.1862229 16.4739655 255 79 163
14.0284931 41.1862229 16.5584945 255 79 163
13.9598026 41.1862229 16.6292931 255 79 163
13.8768489 41.1862229 16.6826739 255 79 163
13.7839526 41.1862229 16.7158566 255 79 163
13.7801676 41.5973056 16.2001962 255 79 163
13.8048336 41.5973056 16.2339832 255 79 163
13.8178386 41.5973056 16.273743 255 79 163
13.8911511 41.5359108 16.1450704 255 79 163
13.817907 41.5973056 16.3155756 255 79 163
13.9274259 41.5359108 16.2158913 255 79 163
13.9326116 41.440286 16.0470028 255 79 163
13.805032 41.5973056 16.3553777 255 79 163
13.9400148 41.5359108 16.2944596 255 79 163
13.9971881 41.440286 16.1354582 255 79 163
13.7804766 41.5973056 16.3892452 255 79 163
13.9276828 41.5359108 16.3730687 255 79 163
14.0312357 41.440286 16.2395508 255 79 163
14.0179711 41.3197918 16.0524861 255 79 163
13.7466494 41.5973056 16.4138559 255 79 163
13.8916397 41.5359108 16.4440078 255 79 163
14.0314147 41.440286 16.34907 255 79 163
14.076665 41.3197918 16.1670767 255 79 163
13.7068683 41.5973056 16.4267959 255 79 163
13.8354209 41.5359108 16.5003186 255 79 163
13.9977076 41.440286 16.4532733 255 79 163
14.0970342 41.3197918 16.294203 255 79 163
13.7645408 41.5359108 16.5364776 255 79 163
13.9334207 41.440286 16.5419394 255 79 163
14.0770807 41.3197918 16.4213951 255 79 163
13.8448597 41.440286 16.6063712 255 79 163
14.0187617 41.3197918 16.536177 255 79 163
13.7407117 41.440286 16.6402486 255 79 163
13.9277978 41.3197918 16.6272898 255 79 163
13.8131114 41.3197918 16.6857963 255 79 163
7.44046545 24.7022673 10.6421715 218 222 230
6.98654039 25.2998651 10.6421715 218 222 230
6.92466049 25.3657152 10.6421715 218 222 230
6.85044182 25.4172607 10.6421715 218 222 230
6.76712809 25.4522489 10.6421715 218 222 230
6.6783605 25.4691506 10.6421715 218 222 230
6.58801864 25.4672272 10.6421715 218 222 230
5.84352119 25.3729155 10.6421715 218 222 230
5.5529488 24.6810059 10.6421715 218 222 230
5.52686093 24.5944913 10.6421715 218 222 230
5.51933053 24.5044433 10.6421715 218 222 230
5.53068673 24.4147974 10.6421715 218 222 230
5.56043319 24.3294716 10.6421715 218 222 230
5.60726987 24.2521949 10.6421715 218 222 230
6.06119494 23.6545971 10.6421715 218 222 230
6.80569239 23.7489088 10.6421715 218 222 230
6.89366016 23.7695733 10.6421715 218 222 230
6.97540923 23.8080758 10.6421715 218 222 230
7.04736676 23.8627335 10.6421715 218 222 230
7.10638788 23.9311576 10.6421715 218 222 230
7.14989307 24.0103577 10.6421715 218 222 230
12.7771041 36.8716794 16.2948749 218 222 230
12.7771041 36.8716794 15.1049192 218 222 230
12.7771041 36.8716794 16.2948749 218 222 230
12.7480459 37.1109951 16.2948749 218 222 230
12.6625601 37.3364026 16.2948749 218 222 230
12.5256148 37.5348021 16.2948749 218 222 230
12.3451688 37.6946633 16.2948749 218 222 230
12.131709 37.8066957 16.2948749 218 222 230
11.8976408 37.8643883 16.2948749 218 222 230
11.6565674 37.8643883 16.2948749 218 222 230
11.4224992 37.8066957 16.2948749 218 222 230
11.2090394 37.6946633 16.2948749 218 222 230
11.0285933 37.5348021 16.2948749 218 222 230
10.8916481 37.3364026 16.2948749 218 222 230
10.8061623 37.1109951 16.2948749 218 222 230
10.7771041 36.8716794 16.2948749 218 222 230
10.8061623 36.6323637 16.2948749 218 222 230
10.8916481 36.4069562 16.2948749 218 222 230
11.0285933 36.2085568 16.2948749 218 222 230
11.2090394 36.0486955 16.2948749 218 222 230
11.4224992 35.9366632 16.2948749 218 222 230
11.6565674 35.8789705 16.2948749 218 222 230
11.8976408 35.8789705 16.2948749 218 222 230
12.131709 35.9366632 16.2948749 218 222 230
12.3451688 36.0486955 16.2948749 218 222 230
12.5256148 36.2085568 16.2948749 218 222 230
12.6625601 36.4069562 16.2948749 218 222 230
12.7480459 36.6323637 16.2948749 218 222 230
12.7771041 36.8716794 15.1049192 218 222 230
12.7599231 37.0562513 15.092505 218 222 230
12.7089705 37.234481 15.055689 218 222 230
12.6259972 37.4002441 14.9957363 218 222 230
12.5138541 37.5478446 14.9147069 218 222 230
12.3763949 37.6722108 14.8153852 218 222 230
12.2183429 37.7690691 14.701184 218 222 230
12.0451291 37.8350914 14.5760277 218 222 230
11.8627054 37.8680089 14.4442167 218 222 230
11.6773402 37.8666906 14.3102803 218 222 230
11.4954031 37.8311817 14.1788209 218 222 230
11.3231459 37.7627024 14.0543558 218 222 230
11.1664875 37.6636058 13.9411616 218 222 230
11.0308111 37.537297 13.8431281 218 222 230
10.9207789 37.3881164 13.7636238 218 222 230
10.8401716 37.2211899 13.7053808 218 222 230
10.7917592 37.0422535 13.6704002 218 222 230
10.7772053 36.8574559 13.6598841 218 222 230
10.7970098 36.6731471 13.674194 218 222 230
10.8504923 36.4956601 13.712838 218 222 230
10.935815 36.331094 13.7744882 218 222 230
11.050046 36.1851035 13.8570263 218 222 230
11.1892602 36.062705 13.9576161 218 222 230
11.3486739 35.9681045 14.0728011 218 222 230
11.5228093 35.9045527 14.1986234 218 222 230
11.7056828 35.8742332 14.3307594 218 222 230
11.8910104 35.8781879 14.4646686 218 222 230
12.072424 35.916281 14.5957497 218 222 230
12.2436899 35.9872034 14.7194986 218 222 230
12.3989229 36.0885182 14.8316628 218 222 230
12.532789 36.216744 14.9283883 218 222 230
12.6406882 36.3674746 15.0063514 218 222 230
12.718913 36.5355308 15.062873 218 222 230
12.7624489 36.7011053 15.0943301 218 222 230
3 5 3 2
3 5 4 3
3 0 1 5
3 0 5 2
3 9 7 6
3 9 6 8
3 21 10 11
3 22 11 12
3 22 21 11
3 23 12 13
3 23 13 14
3 23 22 12
3 24 14 15
3 24 23 14
3 25 15 16
3 25 24 15
3 26 16 17
3 26 25 16
3 27 17 18
3 27 26 17
3 28 18 19
3 28 27 18
3 20 28 19
3 29 31 32
3 29 32 33
3 29 33 34
3 29 34 35
3 29 35 36
3 29 36 37
3 38 31 29
3 44 30 41
3 44 41 42
3 44 42 43
3 45 30 44
3 40 45 46
3 40 30 45
3 39 29 30
3 39 38 29
3 39 30 40
3 55 56 57
3 55 57 63
3 54 55 63
3 53 63 62
3 53 54 63
3 52 62 61
3 52 53 62
3 51 61 60
3 51 52 61
3 50 60 59
3 50 51 60
3 49 59 58
3 49 50 59
3 48 58 47
3 48 49 58
3 72 73 74
3 72 74 80
3 71 72 80
3 70 80 79
3 70 71 80
3 69 79 78
3 69 70 79
3 68 78 77
3 68 69 78
3 67 77 76
3 67 68 77
3 66 76 75
3 66 67 76
3 65 75 64
3 65 66 75
3 89 90 97
3 88 96 95
3 88 97 96
3 88 89 97
3 87 95 94
3 87 88 95
3 86 94 93
3 86 87 94
3 85 93 92
3 85 86 93
3 84 92 91
3 84 85 92
3 83 91 81
3 83 84 91
3 82 83 81
3 106 107 115
3 105 115 114
3 105 106 115
3 104 114 113
3 104 105 114
3 103 113 112
3 103 104 113
3 102 111 110
3 102 112 111
3 102 103 112
3 101 110 109
3 101 102 110
3 100 109 108
3 100 101 109
3 99 108 98
3 99 100 108
3 121 118 119
3 121 119 120
3 127 122 128
3 125 127 126
3 124 122 127
3 124 127 125
3 117 124 123
3 117 122 124
3 116 121 122
3 116 122 117
3 116 118 121
3 129 132 131
3 129 130 132
3 139 135 140
3 138 135 139
3 169 135 133
3 170 141 140
3 170 142 141
3 170 140 135
3 170 135 169
3 168 169 133
3 171 143 142
3 171 144 143
3 171 142 170
3 167 168 133
3 172 145 144
3 172 144 171
3 166 167 133
3 173 145 172
3 165 166 133
3 174 145 173
3 164 165 133
3 175 145 174
3 163 164 133
3 176 145 175
3 162 163 133
3 177 145 176
3 178 145 177
3 153 145 178
3 134 162 133
3 134 157 158
3 134 158 159
3 134 159 160
3 134 160 161
3 134 161 162
3 136 135 138
3 146 145 153
3 146 157 134
3 146 134 147
3 146 153 154
3 146 154 155
3 146 155 156
3 146 156 157
3 148 146 147
3 151 152 146
3 150 151 146
3 149 146 148
3 149 150 146
3 137 136 138
3 182 181 188
3 182 188 194
3 183 194 193
3 183 182 194
3 184 193 192
3 184 183 193
3 185 192 191
3 185 184 192
3 186 191 190
3 186 185 191
3 187 190 189
3 187 186 190
3 180 189 179
3 180 187 189
3 201 202 209
3 195 196 216
3 217 205 204
3 218 204 203
3 218 217 204
3 219 203 210
3 219 218 203
3 220 206 205
3 220 217 218
3 220 205 217
3 221 210 211
3 221 219 210
3 222 218 219
3 222 220 218
3 223 207 206
3 223 208 207
3 223 206 220
3 224 211 212
3 224 221 211
3 225 222 219
3 225 219 221
3 226 220 222
3 226 223 220
3 227 212 213
3 227 225 221
3 227 224 212
3 227 221 224
3 228 222 225
3 228 226 222
3 229 200 201
3 229 209 208
3 229 208 223
3 229 223 226
3 229 201 209
3 230 225 227
3 230 228 225
3 231 199 200
3 231 200 229
3 231 226 228
3 231 229 226
3 232 213 214
3 232 214 215
3 232 227 213
3 232 230 227
3 233 197 198
3 233 198 199
3 233 199 231
3 233 228 230
3 233 231 228
3 234 196 197
3 234 215 216
3 234 216 196
3 234 197 233
3 234 232 215
3 234 230 232
3 234 233 230
3 250 235 249
3 255 235 250
3 254 235 255
3 253 235 254
3 244 249 235
3 245 244 235
3 246 245 235
3 247 246 235
3 248 247 235
3 240 252 251
3 240 253 252
3 240 251 256
3 240 235 253
3 238 242 241
3 238 241 243
3 238 243 248
3 238 258 242
3 238 259 258
3 238 260 259
3 278 256 257
3 278 257 261
3 279 278 261
3 279 261 260
3 279 260 238
3 277 240 256
3 277 256 278
3 280 279 238
3 276 240 277
3 281 280 238
3 275 240 276
3 282 281 238
3 274 240 275
3 283 282 238
3 273 240 274
3 284 283 238
3 272 240 273
3 285 284 238
3 271 240 272
3 286 285 238
3 287 286 238
3 262 287 238
3 239 263 262
3 239 240 271
3 239 264 263
3 239 265 264
3 239 266 265
3 239 267 266
3 239 268 267
3 239 269 268
3 239 270 269
3 239 271 270
3 236 248 235
3 236 238 248
3 237 238 236
3 238 239 262
3 289 288 292
3 290 292 288
3 291 292 290
3 295 302 310
3 296 310 309
3 296 295 310
3 297 309 308
3 297 296 309
3 298 308 307
3 298 297 308
3 299 306 305
3 299 307 306
3 299 298 307
3 300 305 304
3 300 299 305
3 301 304 303
3 301 300 304
3 294 303 293
3 294 301 303
3 319 320 326
3 318 326 325
3 318 319 326
3 317 325 324
3 317 318 325
3 316 324 323
3 316 317 324
3 315 323 322
3 315 316 323
3 314 322 321
3 314 315 322
3 313 321 311
3 313 314 321
3 312 313 311
3 334 335 328
3 336 328 335
3 333 334 328
3 337 328 336
3 332 333 328
3 338 328 337
3 331 332 328
3 339 328 338
3 340 328 339
3 341 328 340
3 342 328 341
3 327 359 360
3 327 360 361
3 327 361 362
3 327 362 363
3 327 363 364
3 327 364 331
3 327 331 328
3 358 359 327
3 357 358 327
3 356 357 327
3 355 356 327
3 354 355 327
3 329 342 343
3 329 343 344
3 329 344 345
3 329 345 346
3 329 346 347
3 329 347 348
3 329 328 342
3 330 354 327
3 330 348 349
3 330 349 350
3 330 350 351
3 330 351 352
3 330 352 353
3 330 353 354
3 330 329 348
3 374 367 368
3 374 368 369
3 387 369 370
3 387 370 371
3 387 374 369
3 388 375 374
3 388 374 387
3 389 375 388
3 390 376 375
3 390 375 389
3 391 377 376
3 391 376 390
3 392 378 377
3 392 377 391
3 393 379 378
3 393 380 379
3 393 381 380
3 393 392 381
3 393 378 392
3 394 390 389
3 394 387 371
3 394 391 390
3 394 389 388
3 394 388 387
3 395 382 381
3 395 392 391
3 395 391 394
3 395 381 392
3 396 383 382
3 396 382 395
3 397 384 383
3 397 383 396
3 398 384 397
3 399 384 398
3 400 395 394
3 401 396 395
3 401 395 400
3 402 397 396
3 402 396 401
3 403 398 397
3 403 397 402
3 404 398 403
3 405 366 399
3 405 399 398
3 405 398 404
3 406 366 365
3 406 385 384
3 406 386 385
3 406 365 386
3 406 384 399
3 406 399 366
3 407 371 372
3 407 394 371
3 407 400 394
3 408 400 407
3 408 407 372
3 408 401 400
3 409 408 372
3 409 401 408
3 409 372 373
3 409 402 401
3 410 409 373
3 410 402 409
3 410 403 402
3 411 403 410
3 411 404 403
3 412 404 411
3 413 404 412
3 413 366 405
3 413 405 404
3 414 411 410
3 414 412 411
3 414 410 373
3 415 412 414
3 416 413 412
3 416 412 415
3 416 366 413
3 417 414 373
3 417 415 414
3 418 373 366
3 418 366 416
3 418 416 415
3 418 417 373
3 418 415 417
3 426 427 428
3 426 428 429
3 425 429 430
3 425 426 429
3 424 430 431
3 424 425 430
3 423 431 432
3 423 424 431
3 422 432 433
3 422 423 432
3 421 433 434
3 421 422 433
3 420 434 419
3 420 421 434
3 468 470 469
3 468 471 470
3 467 472 471
3 467 471 468
3 466 473 472
3 466 472 467
3 465 473 466
3 464 474 473
3 464 473 465
3 463 475 474
3 463 474 464
3 462 476 475
3 462 475 463
3 461 477 476
3 461 476 462
3 460 477 461
3 459 477 460
3 459 478 477
3 458 478 459
3 458 479 478
3 457 479 458
3 457 480 479
3 456 480 457
3 455 480 456
3 455 481 480
3 454 481 455
3 454 482 481
3 453 482 454
3 453 483 482
3 452 483 453
3 451 483 452
3 451 484 483
3 450 484 451
3 450 485 484
3 449 485 450
3 449 486 485
3 448 486 449
3 447 486 448
3 447 487 486
3 446 487 447
3 446 488 487
3 445 488 446
3 445 489 488
3 444 489 445
3 443 490 489
3 443 489 444
3 442 491 490
3 442 490 443
3 441 492 491
3 441 491 442
3 440 492 441
3 439 493 492
3 439 492 440
3 438 494 493
3 438 493 439
3 437 495 494
3 437 494 438
3 436 496 495
3 436 495 437
3 435 496 436
3 503 504 511
3 497 498 518
3 519 507 506
3 520 506 505
3 520 519 506
3 521 505 512
3 521 520 505
3 522 508 507
3 522 519 520
3 522 507 519
3 523 512 513
3 523 521 512
3 524 520 521
3 524 522 520
3 525 509 508
3 525 510 509
3 525 508 522
3 526 513 514
3 526 523 513
3 527 524 521
3 527 521 523
3 528 522 524
3 528 525 522
3 529 514 515
3 529 527 523
3 529 526 514
3 529 523 526
3 530 524 527
3 530 528 524
3 531 502 503
3 531 511 510
3 531 510 525
3 531 525 528
3 531 503 511
3 532 527 529
3 532 530 527
3 533 501 502
3 533 502 531
3 533 528 530
3 533 531 528
3 534 515 516
3 534 516 517
3 534 529 515
3 534 532 529
3 535 499 500
3 535 500 501
3 535 501 533
3 535 530 532
3 535 533 530
3 536 498 499
3 536 517 518
3 536 518 498
3 536 499 535
3 536 534 517
3 536 532 534
3 536 535 532
3 547 544 543
3 547 546 544
3 548 543 542
3 548 547 543
3 549 542 541
3 549 548 542
3 550 541 540
3 550 549 541
3 551 540 539
3 551 550 540
3 552 539 538
3 552 551 539
3 545 538 537
3 545 552 538
3 563 564 571
3 562 571 570
3 562 563 571
3 561 570 569
3 561 562 570
3 560 569 568
3 560 561 569
3 559 568 567
3 559 560 568
3 558 567 566
3 558 559 567
3 557 558 566
3 556 566 565
3 556 557 566
3 555 565 553
3 555 556 565
3 554 555 553
3 576 577 578
3 575 578 579
3 575 576 578
3 574 579 580
3 574 575 579
3 573 580 581
3 573 574 580
3 572 573 581
3 596 581 582
3 596 572 581
3 595 596 582
3 594 582 583
3 594 595 582
3 593 583 584
3 593 594 583
3 592 584 585
3 592 593 584
3 591 585 586
3 591 592 585
3 590 586 587
3 590 591 586
3 589 587 588
3 589 590 587
3 598 599 597
3 598 600 599
3 606 608 607
3 606 612 608
3 605 610 611
3 605 611 612
3 605 612 606
3 604 610 605
3 603 601 609
3 603 609 610
3 603 610 604
3 602 601 603
3 614 615 613
3 614 616 615
3 618 619 617
3 618 620 619
3 627 632 628
3 626 631 632
3 626 632 627
3 625 631 626
3 624 630 631
3 624 631 625
3 623 629 630
3 623 630 624
3 622 621 629
3 622 629 623
3 634 635 633
3 634 636 635
3 638 639 637
3 638 640 639
3 646 648 647
3 646 652 648
3 645 650 651
3 645 651 652
3 645 652 646
3 644 650 645
3 643 649 650
3 643 650 644
3 642 641 649
3 642 649 643
3 654 655 653
3 654 656 655
3 723 658 657
3 723 657 665
3 724 659 658
3 724 658 723
3 725 660 659
3 725 659 724
3 726 665 666
3 726 723 665
3 727 661 660
3 727 660 725
3 728 724 723
3 728 723 726
3 729 662 661
3 729 661 727
3 730 724 728
3 730 725 724
3 731 663 662
3 731 664 663
3 731 662 729
3 731 698 664
3 732 666 667
3 732 726 666
3 733 725 730
3 733 727 725
3 734 728 726
3 734 726 732
3 735 729 727
3 735 727 733
3 736 728 734
3 736 730 728
3 737 699 698
3 737 731 729
3 737 698 731
3 737 729 735
3 738 667 668
3 738 732 667
3 739 733 730
3 739 730 736
3 740 732 738
3 740 734 732
3 741 733 739
3 741 735 733
3 742 734 740
3 742 736 734
3 743 699 737
3 743 737 735
3 743 700 699
3 743 735 741
3 744 668 669
3 744 738 668
3 745 736 742
3 745 739 736
3 746 740 738
3 746 738 744
3 747 739 745
3 747 741 739
3 748 740 746
3 748 742 740
3 749 701 700
3 749 743 741
3 749 700 743
3 749 741 747
3 750 669 670
3 750 744 669
3 751 745 742
3 751 742 748
3 752 744 750
3 752 746 744
3 753 747 745
3 753 745 751
3 754 748 746
3 754 751 748
3 754 746 752
3 755 749 747
3 755 747 753
3 755 702 701
3 755 701 749
3 756 750 670
3 756 670 671
3 757 751 754
3 758 752 750
3 758 750 756
3 759 753 751
3 759 751 757
3 760 754 752
3 760 752 758
3 761 755 753
3 761 702 755
3 761 753 759
3 761 703 702
3 762 671 672
3 762 756 671
3 762 758 756
3 763 757 754
3 763 754 760
3 764 758 762
3 765 759 757
3 765 757 763
3 766 760 758
3 766 758 764
3 767 761 759
3 767 703 761
3 767 704 703
3 767 759 765
3 768 672 673
3 768 762 672
3 769 763 760
3 769 765 763
3 769 760 766
3 770 762 768
3 770 764 762
3 771 765 769
3 772 766 764
3 772 764 770
3 773 705 704
3 773 704 767
3 773 767 765
3 773 765 771
3 774 673 674
3 774 768 673
3 774 770 768
3 775 769 766
3 775 766 772
3 776 770 774
3 777 771 769
3 777 769 775
3 777 773 771
3 778 772 770
3 778 770 776
3 779 706 705
3 779 705 773
3 779 773 777
3 780 674 675
3 780 774 674
3 781 772 778
3 781 775 772
3 782 776 774
3 782 774 780
3 783 775 781
3 783 777 775
3 784 776 782
3 784 778 776
3 785 777 783
3 785 707 706
3 785 779 777
3 785 706 779
3 786 675 676
3 786 780 675
3 787 778 784
3 787 781 778
3 788 780 786
3 788 782 780
3 789 785 783
3 789 781 787
3 789 783 781
3 790 782 788
3 790 784 782
3 791 785 789
3 791 708 707
3 791 707 785
3 792 676 677
3 792 786 676
3 793 787 784
3 793 784 790
3 794 790 788
3 794 788 786
3 794 786 792
3 795 787 793
3 795 789 787
3 796 790 794
3 797 791 789
3 797 708 791
3 797 789 795
3 797 709 708
3 798 677 678
3 798 792 677
3 799 793 790
3 799 790 796
3 800 794 792
3 800 792 798
3 801 795 793
3 801 793 799
3 802 796 794
3 802 794 800
3 803 797 795
3 803 709 797
3 803 710 709
3 803 795 801
3 804 678 679
3 804 798 678
3 805 799 796
3 805 796 802
3 806 800 798
3 806 798 804
3 807 801 799
3 807 799 805
3 808 802 800
3 808 800 806
3 809 711 710
3 809 710 803
3 809 803 801
3 809 801 807
3 810 679 680
3 810 804 679
3 811 802 808
3 811 805 802
3 811 807 805
3 812 806 804
3 812 804 810
3 813 807 811
3 814 806 812
3 814 808 806
3 815 712 711
3 815 809 807
3 815 711 809
3 815 807 813
3 816 680 681
3 816 681 682
3 816 810 680
3 817 808 814
3 817 811 808
3 818 810 816
3 818 812 810
3 818 814 812
3 819 811 817
3 819 813 811
3 820 814 818
3 821 815 813
3 821 813 819
3 821 713 712
3 821 714 713
3 821 712 815
3 822 816 682
3 823 817 814
3 823 814 820
3 824 816 822
3 824 818 816
3 825 819 817
3 825 817 823
3 826 820 818
3 826 818 824
3 827 714 821
3 827 819 825
3 827 715 714
3 827 821 819
3 828 682 683
3 828 822 682
3 829 823 820
3 829 820 826
3 829 825 823
3 830 824 822
3 830 822 828
3 831 825 829
3 832 826 824
3 832 824 830
3 833 825 831
3 833 827 825
3 833 715 827
3 834 683 684
3 834 828 683
3 835 829 826
3 835 826 832
3 836 832 830
3 836 830 828
3 836 828 834
3 837 831 829
3 837 829 835
3 838 832 836
3 839 833 831
3 839 715 833
3 839 716 715
3 839 831 837
3 840 684 685
3 840 834 684
3 840 836 834
3 841 837 835
3 841 835 832
3 841 832 838
3 842 836 840
3 843 837 841
3 844 838 836
3 844 836 842
3 845 717 716
3 845 718 717
3 845 837 843
3 845 716 839
3 845 839 837
3 846 685 686
3 846 840 685
3 847 841 838
3 847 838 844
3 847 843 841
3 848 842 840
3 848 840 846
3 849 843 847
3 850 842 848
3 850 844 842
3 851 843 849
3 851 718 845
3 851 845 843
3 852 686 687
3 852 846 686
3 852 848 846
3 853 844 850
3 853 847 844
3 854 848 852
3 855 847 853
3 855 849 847
3 856 848 854
3 856 850 848
3 857 851 849
3 857 718 851
3 857 849 855
3 857 719 718
3 858 687 688
3 858 852 687
3 859 853 850
3 859 855 853
3 859 850 856
3 860 854 852
3 860 852 858
3 861 855 859
3 862 854 860
3 862 856 854
3 863 857 855
3 863 719 857
3 863 855 861
3 863 720 719
3 863 721 720
3 864 688 689
3 864 689 690
3 864 690 691
3 864 691 692
3 864 860 858
3 864 858 688
3 865 859 856
3 865 856 862
3 866 860 864
3 866 864 692
3 867 861 859
3 867 863 861
3 867 859 865
3 868 862 860
3 868 692 693
3 868 693 694
3 868 860 866
3 868 866 692
3 869 863 867
3 869 721 863
3 870 865 862
3 870 867 865
3 870 862 868
3 870 868 694
3 871 694 695
3 871 695 696
3 871 870 694
3 871 869 867
3 871 867 870
3 872 696 697
3 872 871 696
3 872 721 869
3 872 722 721
3 872 697 722
3 872 869 871
3 881 882 888
3 880 887 886
3 880 888 887
3 880 881 888
3 879 886 885
3 879 880 886
3 878 885 884
3 878 879 885
3 877 878 884
3 876 884 883
3 876 877 884
3 875 883 873
3 875 876 883
3 874 875 873
3 897 889 890
3 897 893 892
3 897 894 893
3 897 890 894
3 895 892 891
3 895 897 892
3 896 897 895
3 906 908 907
3 906 914 908
3 905 913 914
3 905 914 906
3 904 912 913
3 904 913 905
3 903 911 912
3 903 912 904
3 902 911 903
3 901 910 911
3 901 911 902
3 900 909 910
3 900 910 901
3 899 898 909
3 899 909 900
3 916 918 919
3 916 919 920
3 916 920 921
3 916 921 922
3 916 922 923
3 916 923 924
3 917 918 916
3 947 948 917
3 949 925 917
3 949 917 948
3 946 947 917
3 950 925 949
3 945 946 917
3 951 925 950
3 944 916 915
3 944 917 916
3 944 945 917
3 952 925 951
3 943 944 915
3 953 925 952
3 942 943 915
3 954 925 953
3 941 942 915
3 955 925 954
3 940 941 915
3 956 925 955
3 939 940 915
3 957 925 956
3 938 939 915
3 958 925 957
3 959 925 958
3 960 925 959
3 927 925 960
3 926 938 915
3 926 927 928
3 926 928 929
3 926 929 930
3 926 930 931
3 926 925 927
3 926 931 932
3 926 932 933
3 926 933 934
3 926 934 935
3 926 935 936
3 926 936 937
3 926 937 938
3 977 968 967
3 976 986 975
3 987 963 962
3 988 962 961
3 988 987 962
3 989 988 961
3 990 964 963
3 990 963 987
3 990 987 988
3 991 961 969
3 991 989 961
3 992 990 988
3 992 988 989
3 993 965 964
3 993 966 965
3 993 964 990
3 994 991 969
3 995 992 989
3 995 989 991
3 996 993 990
3 996 990 992
3 997 994 969
3 998 991 994
3 998 995 991
3 999 992 995
3 999 996 992
3 1000 967 966
3 1000 978 977
3 1000 977 967
3 1000 966 993
3 1000 993 996
3 1001 969 970
3 1001 997 969
3 1002 994 997
3 1002 998 994
3 1003 995 998
3 1003 999 995
3 1004 979 978
3 1004 978 1000
3 1004 996 999
3 1004 1000 996
3 1005 970 971
3 1005 1001 970
3 1006 997 1001
3 1006 1002 997
3 1007 998 1002
3 1007 1003 998
3 1008 980 979
3 1008 981 980
3 1008 999 1003
3 1008 979 1004
3 1008 1004 999
3 1009 1005 971
3 1009 1001 1005
3 1009 971 972
3 1009 1006 1001
3 1010 1002 1006
3 1010 1007 1002
3 1011 1003 1007
3 1011 982 981
3 1011 981 1008
3 1011 1008 1003
3 1012 1006 1009
3 1012 1010 1006
3 1013 1011 1007
3 1013 983 982
3 1013 984 983
3 1013 982 1011
3 1013 1007 1010
3 1014 972 973
3 1014 973 974
3 1014 1009 972
3 1014 1012 1009
3 1015 984 1013
3 1015 985 984
3 1015 1010 1012
3 1015 1013 1010
3 1016 974 975
3 1016 986 985
3 1016 1014 974
3 1016 1012 1014
3 1016 985 1015
3 1016 1015 1012
3 1016 975 986
3 1028 1029 1030
3 1027 1028 1030
3 1026 1027 1030
3 1025 1026 1030
3 1032 1030 1031
3 1036 1032 1033
3 1036 1033 1034
3 1036 1034 1035
3 1037 1030 1032
3 1037 1032 1036
3 1023 1024 1025
3 1023 1025 1030
3 1023 1030 1037
3 1021 1022 1023
3 1020 1021 1023
3 1018 1037 1017
3 1018 1023 1037
3 1019 1023 1018
3 1019 1020 1023
3 1040 1067 1066
3 1041 1068 1067
3 1041 1067 1040
3 1042 1069 1068
3 1042 1068 1041
3 1043 1070 1069
3 1043 1069 1042
3 1044 1071 1070
3 1044 1072 1071
3 1044 1070 1043
3 1045 1073 1072
3 1045 1072 1044
3 1046 1074 1073
3 1046 1073 1045
3 1047 1075 1074
3 1047 1076 1075
3 1047 1074 1046
3 1048 1076 1047
3 1048 1077 1076
3 1049 1077 1048
3 1049 1078 1077
3 1050 1078 1049
3 1050 1079 1078
3 1050 1080 1079
3 1051 1080 1050
3 1051 1081 1080
3 1052 1081 1051
3 1052 1082 1081
3 1053 1082 1052
3 1053 1083 1082
3 1053 1084 1083
3 1054 1084 1053
3 1054 1085 1084
3 1055 1085 1054
3 1055 1086 1085
3 1056 1086 1055
3 1056 1087 1086
3 1056 1088 1087
3 1057 1088 1056
3 1057 1089 1088
3 1058 1089 1057
3 1058 1090 1089
3 1059 1090 1058
3 1059 1091 1090
3 1059 1092 1091
3 1060 1093 1092
3 1060 1092 1059
3 1061 1094 1093
3 1061 1093 1060
3 1062 1095 1094
3 1062 1094 1061
3 1063 1096 1095
3 1063 1097 1096
3 1063 1095 1062
3 1064 1098 1097
3 1064 1097 1063
3 1065 1099 1098
3 1065 1098 1064
3 1038 1039 1099
3 1038 1099 1065
