ply
format ascii 1.0
comment generated by blendit.inference.finetune_visualize
element vertex 585
property float x
property float y
property float z
property uchar red
property uchar green
property uchar blue
element face 537
property list uchar int vertex_indices
end_header
-1.11022302e-16 0.526587308 78.1224025 218 222 230
-1.11022302e-16 58.8141635 78.1224025 218 222 230
-1.11022302e-16 0.526587308 58.1102364 218 222 230
-1.11022302e-16 11.4628842 58.1102364 218 222 230
0 11.4628842 57.5836491 218 222 230
-1.11022302e-16 11.4628842 0.526587308 218 222 230
-3.66373598e-15 51.1872809 0.526587308 218 222 230
-3.66373598e-15 51.1872809 38.2985477 218 222 230
-1.11022302e-16 58.8141635 38.2985477 218 222 230
-1.11022302e-16 0.526587308 78.1224025 218 222 230
-1.11022302e-16 58.8141635 78.1224025 218 222 230
57.2397661 0.526587308 78.1224025 218 222 230
57.2397661 59.3407508 78.1224025 218 222 230
0.526587308 59.3407508 78.1224025 218 222 230
0.0132026432 58.9313402 78.1224025 218 222 230
0.0521485373 59.0426412 78.1224025 218 222 230
0.114884772 59.1424854 78.1224025 218 222 230
0.198265492 59.2258661 78.1224025 218 222 230
0.298109638 59.2886023 78.1224025 218 222 230
0.409410609 59.3275482 78.1224025 218 222 230
-1.11022302e-16 0.526587308 58.1102364 255 79 163
0.0179430274 0.390296484 57.9739456 255 79 163
0.070549322 0.263293654 57.8469428 255 79 163
0.154233852 0.154233852 57.737883 255 79 163
0.251446196 0.0775978192 57.661247 255 79 163
0.341613102 0.0335571507 57.6172063 255 79 163
0.428605408 0.00919602466 57.5928452 255 79 163
0.47738106 0.00230404676 57.5859532 255 79 163
0.526587308 -1.11022302e-16 57.5836491 255 79 163
0.526587308 -1.11022302e-16 77.5958152 255 79 163
-1.11022302e-16 0.526587308 78.1224025 255 79 163
0.00774907174 0.436581322 78.1146534 255 79 163
0.0307682218 0.349224328 78.0916343 255 79 163
0.0683799669 0.267087356 78.0540225 255 79 163
0.119477345 0.192587801 78.0029251 255 79 163
0.182556494 0.127918283 77.939846 255 79 163
0.255760914 0.0749821078 77.8666416 255 79 163
0.36535829 0.0252895954 77.7570442 255 79 163
0.444987125 0.006360816 77.6774153 255 79 163
-1.11022302e-16 58.8141635 38.2985477 255 79 163
-1.11022302e-16 58.8141635 78.1224025 255 79 163
0.0132026432 58.9313402 78.1224025 255 79 163
0.0521485373 59.0426412 78.1224025 255 79 163
0.114884772 59.1424854 78.1224025 255 79 163
0.198265492 59.2258661 78.1224025 255 79 163
0.298109638 59.2886023 78.1224025 255 79 163
0.409410609 59.3275482 78.1224025 255 79 163
0.526587308 59.3407508 78.1224025 255 79 163
0.526587308 59.3407508 37.7719604 255 79 163
0.0179430274 58.9504544 38.1622569 255 79 163
0.070549322 59.0774572 38.0352541 255 79 163
0.154233852 59.186517 37.9261943 255 79 163
0.251446196 59.263153 37.8495583 255 79 163
0.341613102 59.3071937 37.8055176 255 79 163
0.428605408 59.3315548 37.7811565 255 79 163
0.47738106 59.3384468 37.7742645 255 79 163
-1.11022302e-16 0.526587308 58.1102364 255 79 163
-1.11022302e-16 11.4628842 58.1102364 255 79 163
0.0145496493 11.4662698 57.9873071 255 79 163
0.0573945811 11.4762398 57.8711708 255 79 163
0.126167178 11.492243 57.7682453 255 79 163
0.217067055 11.5133953 57.6842184 255 79 163
0.32507107 11.5385276 57.6237332 255 79 163
0.423855221 11.5615145 57.5937674 255 79 163
0.526587308 11.5854201 57.5836491 255 79 163
0.526587308 -1.11022302e-16 57.5836491 255 79 163
0.0179430274 0.390296484 57.9739456 255 79 163
0.070549322 0.263293654 57.8469428 255 79 163
0.154233852 0.154233852 57.737883 255 79 163
0.251446196 0.0775978192 57.661247 255 79 163
0.341613102 0.0335571507 57.6172063 255 79 163
0.428605408 0.00919602466 57.5928452 255 79 163
0.47738106 0.00230404676 57.5859532 255 79 163
-3.66373598e-15 51.1872809 38.2985477 255 79 163
-1.11022302e-16 58.8141635 38.2985477 255 79 163
0.0179430274 58.9504544 38.1622569 255 79 163
0.070549322 59.0774572 38.0352541 255 79 163
0.154233852 59.186517 37.9261943 255 79 163
0.251446196 59.263153 37.8495583 255 79 163
0.341613102 59.3071937 37.8055176 255 79 163
0.428605408 59.3315548 37.7811565 255 79 163
0.47738106 59.3384468 37.7742645 255 79 163
0.526587308 59.3407508 37.7719604 255 79 163
0.526587308 51.7222637 37.7719604 255 79 163
0.433663393 51.7056045 37.7802242 255 79 163
0.45673401 51.7097405 37.7766141 255 79 163
0.47994199 51.7139012 37.7740304 255 79 163
0.503241695 51.7180783 37.7724782 255 79 163
0.0298987622 51.3621943 38.1236344 255 79 163
0.105264722 51.503163 37.9826657 255 79 163
0.195217036 51.5965338 37.8892948 255 79 163
0.293531341 51.6594875 37.8263411 255 79 163
0.361974386 51.6874776 37.798351 255 79 163
-1.11022302e-16 11.4628842 0.526587308 218 222 230
0 11.4628842 57.5836491 218 222 230
-1.11022302e-16 11.4628842 58.1102364 218 222 230
0.0145496493 11.4662698 57.9873071 218 222 230
0.0573945811 11.4762398 57.8711708 218 222 230
0.126167178 11.492243 57.7682453 218 222 230
0.217067055 11.5133953 57.6842184 218 222 230
0.32507107 11.5385276 57.6237332 218 222 230
0.423855221 11.5615145 57.5937674 218 222 230
0.526587308 11.5854201 57.5836491 218 222 230
56.7131787 24.6599391 57.5836491 218 222 230
56.8361081 24.6885445 57.5981988 218 222 230
56.9522444 24.7155692 57.6410437 218 222 230
57.0551698 24.7395198 57.7098163 218 222 230
57.1391968 24.7590727 57.8007162 218 222 230
57.199682 24.7731475 57.9087202 218 222 230
57.2296478 24.7801205 58.0075044 218 222 230
57.2397661 24.782475 58.1102364 218 222 230
57.2397661 24.782475 57.5836491 218 222 230
57.2397661 24.782475 0.526587308 218 222 230
55.122887 24.289881 39.7665485 218 222 230
55.122887 24.289881 36.3345475 218 222 230
55.1083373 24.2864954 39.8894779 218 222 230
55.0654924 24.2765254 40.0056141 218 222 230
54.9967198 24.2605222 40.1085396 218 222 230
54.9058199 24.2393699 40.1925666 218 222 230
54.7978159 24.2142376 40.2530517 218 222 230
54.6990318 24.1912507 40.2830176 218 222 230
54.5962997 24.1673451 40.2931358 218 222 230
50.6861692 23.2574648 40.2931358 218 222 230
50.6861692 23.2574648 36.3345475 218 222 230
-3.66373598e-15 51.1872809 38.2985477 255 79 163
0.0298987622 51.3621943 38.1236344 255 79 163
0.105264722 51.503163 37.9826657 255 79 163
0.195217036 51.5965338 37.8892948 255 79 163
0.293531341 51.6594875 37.8263411 255 79 163
0.361974386 51.6874776 37.798351 255 79 163
0.433663393 51.7056045 37.7802242 255 79 163
0.433663393 51.7056045 0.526587308 255 79 163
0.316864773 51.6703033 0.526587308 255 79 163
0.211326281 51.6090684 0.526587308 255 79 163
0.122714341 51.5251874 0.526587308 255 79 163
0.0557865813 51.4231641 0.526587308 255 79 163
0.0141363932 51.308476 0.526587308 255 79 163
-3.66373598e-15 51.1872809 0.526587308 255 79 163
-1.11022302e-16 11.4628842 0.526587308 255 79 163
-3.66373598e-15 51.1872809 0.526587308 255 79 163
0.526587308 51.1872809 0 255 79 163
0.409410609 51.1872809 0.0132026432 255 79 163
0.298109638 51.1872809 0.0521485373 255 79 163
0.198265492 51.1872809 0.114884772 255 79 163
0.114884772 51.1872809 0.198265492 255 79 163
0.0521485373 51.1872809 0.298109638 255 79 163
0.0132026432 51.1872809 0.409410609 255 79 163
0.526587308 12.1260764 -1.11022302e-16 255 79 163
0.00450502742 11.4685579 0.457853872 255 79 163
0.0179430274 11.4854819 0.390296484 255 79 163
0.0400840721 11.5133667 0.32507107 255 79 163
0.070549322 11.5517351 0.263293654 255 79 163
0.108817508 11.5999306 0.206021266 255 79 163
0.170830079 11.6780302 0.13834642 255 79 163
0.253407895 11.78203 0.0764015675 255 79 163
0.346483842 11.8992513 0.0317571005 255 79 163
0.435146382 12.0109143 0.00800004445 255 79 163
0.526587308 -1.11022302e-16 77.5958152 255 79 163
57.2397661 -1.11022302e-16 77.5958152 255 79 163
57.2397661 0.0132026432 77.7129919 255 79 163
57.2397661 0.0521485373 77.8242928 255 79 163
57.2397661 0.114884772 77.924137 255 79 163
57.2397661 0.198265492 78.0075177 255 79 163
57.2397661 0.298109638 78.0702539 255 79 163
57.2397661 0.409410609 78.1091998 255 79 163
57.2397661 0.526587308 78.1224025 255 79 163
-1.11022302e-16 0.526587308 78.1224025 255 79 163
0.00774907174 0.436581322 78.1146534 255 79 163
0.0307682218 0.349224328 78.0916343 255 79 163
0.0683799669 0.267087356 78.0540225 255 79 163
0.119477345 0.192587801 78.0029251 255 79 163
0.182556494 0.127918283 77.939846 255 79 163
0.255760914 0.0749821078 77.8666416 255 79 163
0.36535829 0.0252895954 77.7570442 255 79 163
0.444987125 0.006360816 77.6774153 255 79 163
57.2397661 0 58.1102364 218 222 230
57.2397661 -1.11022302e-16 77.5958152 218 222 230
57.2397661 24.782475 58.1102364 218 222 230
57.2397661 24.782475 57.5836491 218 222 230
57.2397661 24.782475 0.526587308 218 222 230
57.2397661 59.3407508 0.526587308 218 222 230
57.2397661 59.3407508 78.1224025 218 222 230
57.2397661 0.526587308 78.1224025 218 222 230
57.2397661 0.0132026432 77.7129919 218 222 230
57.2397661 0.0521485373 77.8242928 218 222 230
57.2397661 0.114884772 77.924137 218 222 230
57.2397661 0.198265492 78.0075177 218 222 230
57.2397661 0.298109638 78.0702539 218 222 230
57.2397661 0.409410609 78.1091998 218 222 230
57.2397661 37.4779327 24.929589 218 222 230
57.2397661 36.4851662 24.8090453 218 222 230
57.2397661 35.5500957 24.4544198 218 222 230
57.2397661 34.7270641 23.8863221 218 222 230
57.2397661 34.0639029 23.1377679 218 222 230
57.2397661 33.5991528 22.2522605 218 222 230
57.2397661 33.3598232 21.2812623 218 222 230
57.2397661 33.3598232 20.2812043 218 222 230
57.2397661 33.5991528 19.3102061 218 222 230
57.2397661 34.0639029 18.4246987 218 222 230
57.2397661 34.7270641 17.6761445 218 222 230
57.2397661 35.5500957 17.1080468 218 222 230
57.2397661 36.4851662 16.7534213 218 222 230
57.2397661 37.4779327 16.6328776 218 222 230
57.2397661 38.4706992 16.7534213 218 222 230
57.2397661 39.4057697 17.1080468 218 222 230
57.2397661 40.2288013 17.6761445 218 222 230
57.2397661 40.8919625 18.4246987 218 222 230
57.2397661 41.3567126 19.3102061 218 222 230
57.2397661 41.5960422 20.2812043 218 222 230
57.2397661 41.5960422 21.2812623 218 222 230
57.2397661 41.3567126 22.2522605 218 222 230
57.2397661 40.8919625 23.1377679 218 222 230
57.2397661 40.2288013 23.8863221 218 222 230
57.2397661 39.4057697 24.4544198 218 222 230
57.2397661 38.4706992 24.8090453 218 222 230
46.0061151 59.3407508 -1.11022302e-16 218 222 230
56.7131787 59.3407508 -1.11022302e-16 218 222 230
43.0220157 59.3407508 0.526587308 218 222 230
43.0245154 59.3407508 0.505038291 218 222 230
43.0320101 59.3407508 0.483525376 218 222 230
43.0444875 59.3407508 0.462084602 218 222 230
43.0619264 59.3407508 0.440751891 218 222 230
43.0928449 59.3407508 0.41253811 218 222 230
43.1554537 59.3407508 0.370880251 218 222 230
43.3308897 59.3407508 0.293279073 218 222 230
43.5736694 59.3407508 0.221550986 218 222 230
44.2352726 59.3407508 0.102743261 218 222 230
43.0220157 59.3407508 37.7719604 218 222 230
0.526587308 59.3407508 37.7719604 218 222 230
0.526587308 59.3407508 78.1224025 218 222 230
57.2397661 59.3407508 78.1224025 218 222 230
57.2397661 59.3407508 0.526587308 218 222 230
56.8303554 59.3407508 0.0132026432 218 222 230
56.9416564 59.3407508 0.0521485373 218 222 230
57.0415006 59.3407508 0.114884772 218 222 230
57.1248813 59.3407508 0.198265492 218 222 230
57.1876175 59.3407508 0.298109638 218 222 230
57.2265634 59.3407508 0.409410609 218 222 230
55.122887 59.3407508 39.7665485 218 222 230
55.122887 59.3407508 36.3345475 218 222 230
55.1096843 59.3407508 39.8837252 218 222 230
55.0707384 59.3407508 39.9950262 218 222 230
55.0080022 59.3407508 40.0948703 218 222 230
54.9246215 59.3407508 40.178251 218 222 230
54.8247773 59.3407508 40.2409873 218 222 230
54.7134764 59.3407508 40.2799332 218 222 230
54.5962997 59.3407508 40.2931358 218 222 230
50.6861692 59.3407508 40.2931358 218 222 230
50.6861692 59.3407508 36.3345475 218 222 230
56.7131787 0 57.5836491 218 222 230
0.526587308 -1.11022302e-16 57.5836491 218 222 230
0.526587308 -1.11022302e-16 77.5958152 218 222 230
57.2397661 -1.11022302e-16 77.5958152 218 222 230
57.2397661 0 58.1102364 218 222 230
56.8303554 0 57.5968518 218 222 230
56.9416564 0 57.6357977 218 222 230
57.0415006 0 57.6985339 218 222 230
57.1248813 0 57.7819146 218 222 230
57.1876175 0 57.8817588 218 222 230
57.2265634 0 57.9930597 218 222 230
56.7131787 0 57.5836491 218 222 230
0.526587308 -1.11022302e-16 57.5836491 218 222 230
0.526587308 11.5854201 57.5836491 218 222 230
56.7131787 24.6599391 57.5836491 218 222 230
43.0220157 59.3407508 0.526587308 218 222 230
43.0220157 59.3407508 37.7719604 218 222 230
0.526587308 51.7222637 37.7719604 218 222 230
0.433663393 51.7056045 37.7802242 218 222 230
0.45673401 51.7097405 37.7766141 218 222 230
0.47994199 51.7139012 37.7740304 218 222 230
0.503241695 51.7180783 37.7724782 218 222 230
0.433663393 51.7056045 0.526587308 218 222 230
0.526587308 59.3407508 37.7719604 218 222 230
43.0220157 59.3407508 37.7719604 218 222 230
0.526587308 51.7222637 37.7719604 218 222 230
0.526587308 12.1260764 -1.11022302e-16 255 79 163
56.7131787 25.2005954 -1.11022302e-16 255 79 163
56.8494696 25.0923779 0.0179430274 255 79 163
56.9764724 24.9915352 0.070549322 255 79 163
57.0855322 24.9049396 0.154233852 255 79 163
57.1621682 24.8440892 0.251446196 255 79 163
57.2100203 24.8060937 0.352108982 255 79 163
57.2322763 24.788422 0.43808943 255 79 163
57.2397661 24.782475 0.526587308 255 79 163
-1.11022302e-16 11.4628842 0.526587308 255 79 163
0.00450502742 11.4685579 0.457853872 255 79 163
0.0179430274 11.4854819 0.390296484 255 79 163
0.0400840721 11.5133667 0.32507107 255 79 163
0.070549322 11.5517351 0.263293654 255 79 163
0.108817508 11.5999306 0.206021266 255 79 163
0.170830079 11.6780302 0.13834642 255 79 163
0.253407895 11.78203 0.0764015675 255 79 163
0.346483842 11.8992513 0.0317571005 255 79 163
0.435146382 12.0109143 0.00800004445 255 79 163
56.7131787 24.6599391 57.5836491 218 222 230
56.8361081 24.6885445 57.5981988 218 222 230
56.9522444 24.7155692 57.6410437 218 222 230
57.0551698 24.7395198 57.7098163 218 222 230
57.1391968 24.7590727 57.8007162 218 222 230
57.199682 24.7731475 57.9087202 218 222 230
57.2296478 24.7801205 58.0075044 218 222 230
57.2397661 24.782475 58.1102364 218 222 230
57.2397661 0 58.1102364 218 222 230
56.7131787 0 57.5836491 218 222 230
56.8303554 0 57.5968518 218 222 230
56.9416564 0 57.6357977 218 222 230
57.0415006 0 57.6985339 218 222 230
57.1248813 0 57.7819146 218 222 230
57.1876175 0 57.8817588 218 222 230
57.2265634 0 57.9930597 218 222 230
55.122887 59.3407508 39.7665485 218 222 230
55.122887 59.3407508 36.3345475 218 222 230
55.122887 24.289881 39.7665485 218 222 230
55.122887 24.289881 36.3345475 218 222 230
55.122887 59.3407508 39.7665485 218 222 230
55.1096843 59.3407508 39.8837252 218 222 230
55.0707384 59.3407508 39.9950262 218 222 230
55.0080022 59.3407508 40.0948703 218 222 230
54.9246215 59.3407508 40.178251 218 222 230
54.8247773 59.3407508 40.2409873 218 222 230
54.7134764 59.3407508 40.2799332 218 222 230
54.5962997 59.3407508 40.2931358 218 222 230
54.5962997 24.1673451 40.2931358 218 222 230
55.122887 24.289881 39.7665485 218 222 230
55.1083373 24.2864954 39.8894779 218 222 230
55.0654924 24.2765254 40.0056141 218 222 230
54.9967198 24.2605222 40.1085396 218 222 230
54.9058199 24.2393699 40.1925666 218 222 230
54.7978159 24.2142376 40.2530517 218 222 230
54.6990318 24.1912507 40.2830176 218 222 230
55.122887 59.3407508 36.3345475 218 222 230
50.6861692 59.3407508 36.3345475 218 222 230
55.122887 24.289881 36.3345475 218 222 230
50.6861692 23.2574648 36.3345475 218 222 230
50.6861692 59.3407508 40.2931358 218 222 230
54.5962997 59.3407508 40.2931358 218 222 230
50.6861692 23.2574648 40.2931358 218 222 230
54.5962997 24.1673451 40.2931358 218 222 230
50.6861692 59.3407508 36.3345475 218 222 230
50.6861692 59.3407508 40.2931358 218 222 230
50.6861692 23.2574648 36.3345475 218 222 230
50.6861692 23.2574648 40.2931358 218 222 230
0.526587308 51.1872809 0 255 79 163
0.505909792 51.3026187 0.0132026432 255 79 163
0.486269133 51.4121731 0.0521485373 255 79 163
0.468650195 51.5104504 0.114884772 255 79 163
0.453936466 51.5925226 0.198265492 255 79 163
0.442865754 51.6542743 0.298109638 255 79 163
0.43599319 51.692609 0.409410609 255 79 163
0.433663393 51.7056045 0.526587308 255 79 163
0.526587308 51.1872809 0 255 79 163
0.409410609 51.1872809 0.0132026432 255 79 163
0.298109638 51.1872809 0.0521485373 255 79 163
0.198265492 51.1872809 0.114884772 255 79 163
0.114884772 51.1872809 0.198265492 255 79 163
0.0521485373 51.1872809 0.298109638 255 79 163
0.0132026432 51.1872809 0.409410609 255 79 163
-3.66373598e-15 51.1872809 0.526587308 255 79 163
0.316864773 51.6703033 0.526587308 255 79 163
0.211326281 51.6090684 0.526587308 255 79 163
0.122714341 51.5251874 0.526587308 255 79 163
0.0557865813 51.4231641 0.526587308 255 79 163
0.0141363932 51.308476 0.526587308 255 79 163
0.470549739 51.3400521 0.0257730174 255 79 163
0.42176738 51.3117478 0.0257730174 255 79 163
0.385576629 51.2684919 0.0257730174 255 79 163
0.371252486 51.4550007 0.100569227 255 79 163
0.366324938 51.2154804 0.0257730174 255 79 163
0.289196734 51.3858974 0.100569227 255 79 163
0.379879046 51.587241 0.217067055 255 79 163
0.235657782 51.292935 0.100569227 255 79 163
0.252165173 51.5131396 0.217067055 255 79 163
0.157416556 51.3998941 0.217067055 255 79 163
0.275250286 51.6204606 0.363862881 255 79 163
0.107014975 51.2611081 0.217067055 255 79 163
0.142481291 51.5086491 0.363862881 255 79 163
0.0558534468 51.3582329 0.363862881 255 79 163
46.0061151 59.3407508 -1.11022302e-16 218 222 230
56.7131787 59.3407508 -1.11022302e-16 218 222 230
0.526587308 51.1872809 0 218 222 230
0.526587308 12.1260764 -1.11022302e-16 218 222 230
56.7131787 25.2005954 -1.11022302e-16 218 222 230
23.757683 32.2687949 0 218 222 230
23.1868332 32.217445 -1.11022302e-16 218 222 230
25.8197025 40.2653445 -1.11022302e-16 218 222 230
26.2475452 39.8795644 0 218 222 230
33.6966177 33.1628356 0 218 222 230
56.7131787 25.2005954 -1.11022302e-16 255 79 163
56.7131787 59.3407508 -1.11022302e-16 255 79 163
56.8303554 59.3407508 0.0132026432 255 79 163
56.9416564 59.3407508 0.0521485373 255 79 163
57.0415006 59.3407508 0.114884772 255 79 163
57.1248813 59.3407508 0.198265492 255 79 163
57.1876175 59.3407508 0.298109638 255 79 163
57.2265634 59.3407508 0.409410609 255 79 163
57.2397661 59.3407508 0.526587308 255 79 163
57.2397661 24.782475 0.526587308 255 79 163
56.8494696 25.0923779 0.0179430274 255 79 163
56.9764724 24.9915352 0.070549322 255 79 163
57.0855322 24.9049396 0.154233852 255 79 163
57.1621682 24.8440892 0.251446196 255 79 163
57.2100203 24.8060937 0.352108982 255 79 163
57.2322763 24.788422 0.43808943 255 79 163
57.2397661 37.4779327 24.929589 218 222 230
21.8944936 37.4779327 24.929589 218 222 230
21.8944936 36.4851662 24.8090453 218 222 230
21.8944936 35.5500957 24.4544198 218 222 230
21.8944936 34.7270641 23.8863221 218 222 230
21.8944936 34.0639029 23.1377679 218 222 230
21.8944936 33.5991528 22.2522605 218 222 230
21.8944936 33.3598232 21.2812623 218 222 230
21.8944936 33.3598232 20.2812043 218 222 230
21.8944936 33.5991528 19.3102061 218 222 230
21.8944936 34.0639029 18.4246987 218 222 230
21.8944936 34.7270641 17.6761445 218 222 230
21.8944936 35.5500957 17.1080468 218 222 230
21.8944936 36.4851662 16.7534213 218 222 230
21.8944936 37.4779327 16.6328776 218 222 230
21.8944936 38.4706992 16.7534213 218 222 230
21.8944936 39.4057697 17.1080468 218 222 230
21.8944936 40.2288013 17.6761445 218 222 230
21.8944936 40.8919625 18.4246987 218 222 230
21.8944936 41.3567126 19.3102061 218 222 230
21.8944936 41.5960422 20.2812043 218 222 230
21.8944936 41.5960422 21.2812623 218 222 230
21.8944936 41.3567126 22.2522605 218 222 230
21.8944936 40.8919625 23.1377679 218 222 230
21.8944936 40.2288013 23.8863221 218 222 230
21.8944936 39.4057697 24.4544198 218 222 230
21.8944936 38.4706992 24.8090453 218 222 230
21.8944936 37.4779327 24.929589 218 222 230
57.2397661 37.4779327 24.929589 218 222 230
57.2397661 36.4851662 24.8090453 218 222 230
57.2397661 35.5500957 24.4544198 218 222 230
57.2397661 34.7270641 23.8863221 218 222 230
57.2397661 34.0639029 23.1377679 218 222 230
57.2397661 33.5991528 22.2522605 218 222 230
57.2397661 33.3598232 21.2812623 218 222 230
57.2397661 33.3598232 20.2812043 218 222 230
57.2397661 33.5991528 19.3102061 218 222 230
57.2397661 34.0639029 18.4246987 218 222 230
57.2397661 34.7270641 17.6761445 218 222 230
57.2397661 35.5500957 17.1080468 218 222 230
57.2397661 36.4851662 16.7534213 218 222 230
57.2397661 37.4779327 16.6328776 218 222 230
57.2397661 38.4706992 16.7534213 218 222 230
57.2397661 39.4057697 17.1080468 218 222 230
57.2397661 40.2288013 17.6761445 218 222 230
57.2397661 40.8919625 18.4246987 218 222 230
57.2397661 41.3567126 19.3102061 218 222 230
57.2397661 41.5960422 20.2812043 218 222 230
57.2397661 41.5960422 21.2812623 218 222 230
57.2397661 41.3567126 22.2522605 218 222 230
57.2397661 40.8919625 23.1377679 218 222 230
57.2397661 40.2288013 23.8863221 218 222 230
57.2397661 39.4057697 24.4544198 218 222 230
57.2397661 38.4706992 24.8090453 218 222 230
43.0220157 59.3407508 0.526587308 255 79 163
43.0245154 59.3407508 0.505038291 255 79 163
43.0320101 59.3407508 0.483525376 255 79 163
43.0444875 59.3407508 0.462084602 255 79 163
43.0619264 59.3407508 0.440751891 255 79 163
43.0928449 59.3407508 0.41253811 255 79 163
43.1554537 59.3407508 0.370880251 255 79 163
43.3308897 59.3407508 0.293279073 255 79 163
43.5736694 59.3407508 0.221550986 255 79 163
44.2352726 59.3407508 0.102743261 255 79 163
46.0061151 59.3407508 -1.11022302e-16 255 79 163
0.526587308 51.1872809 0 255 79 163
0.505909792 51.3026187 0.0132026432 255 79 163
0.486269133 51.4121731 0.0521485373 255 79 163
0.468650195 51.5104504 0.114884772 255 79 163
0.453936466 51.5925226 0.198265492 255 79 163
0.442865754 51.6542743 0.298109638 255 79 163
0.43599319 51.692609 0.409410609 255 79 163
0.433663393 51.7056045 0.526587308 255 79 163
33.6966177 33.1628356 0 218 222 230
33.6966177 33.1628356 6.58864439 218 222 230
23.757683 32.2687949 6.58864439 218 222 230
23.757683 32.2687949 0.526587308 218 222 230
23.1868332 32.217445 -1.11022302e-16 218 222 230
23.33458 32.2307354 0.0179430274 218 222 230
23.4722581 32.24312 0.070549322 218 222 230
23.5797803 32.252792 0.144614371 218 222 230
23.6581303 32.2598398 0.229462136 218 222 230
23.7153662 32.2649884 0.327621146 218 222 230
23.7470039 32.2678343 0.425207684 218 222 230
23.757683 32.2687949 0 218 222 230
23.1868332 32.217445 -1.11022302e-16 255 79 163
25.8197025 40.2653445 -1.11022302e-16 255 79 163
25.9304363 40.1654973 0.0179430274 255 79 163
26.0336239 40.0724545 0.070549322 255 79 163
26.11421 39.999791 0.144614371 255 79 163
26.1729321 39.9468421 0.229462136 255 79 163
26.2158295 39.9081621 0.327621146 255 79 163
26.2395414 39.8867813 0.425207684 255 79 163
26.2475452 39.8795644 0.526587308 255 79 163
23.757683 32.2687949 0.526587308 255 79 163
23.33458 32.2307354 0.0179430274 255 79 163
23.4722581 32.24312 0.070549322 255 79 163
23.5797803 32.252792 0.144614371 255 79 163
23.6581303 32.2598398 0.229462136 255 79 163
23.7153662 32.2649884 0.327621146 255 79 163
23.7470039 32.2678343 0.425207684 255 79 163
26.2475452 39.8795644 0.526587308 218 222 230
26.2475452 39.8795644 7.1152317 218 222 230
33.1634469 33.6435885 7.1152317 218 222 230
33.6966177 33.1628356 6.58864439 218 222 230
33.6887717 33.1699101 6.67865037 218 222 230
33.6654648 33.1909257 6.76600737 218 222 230
33.6273828 33.2252637 6.84814434 218 222 230
33.5756466 33.2719136 6.9226439 218 222 230
33.5117788 33.3295023 6.98731341 218 222 230
33.4376592 33.396335 7.04024959 218 222 230
33.3554691 33.4704446 7.07989444 218 222 230
33.2611104 33.5555266 7.10632201 218 222 230
33.6966177 33.1628356 0 218 222 230
26.2475452 39.8795644 0 218 222 230
25.8197025 40.2653445 -1.11022302e-16 218 222 230
25.9304363 40.1654973 0.0179430274 218 222 230
26.0336239 40.0724545 0.070549322 218 222 230
26.11421 39.999791 0.144614371 218 222 230
26.1729321 39.9468421 0.229462136 218 222 230
26.2158295 39.9081621 0.327621146 218 222 230
26.2395414 39.8867813 0.425207684 218 222 230
21.8944936 37.4779327 24.929589 218 222 230
21.8944936 36.4851662 24.8090453 218 222 230
21.8944936 35.5500957 24.4544198 218 222 230
21.8944936 34.7270641 23.8863221 218 222 230
21.8944936 34.0639029 23.1377679 218 222 230
21.8944936 33.5991528 22.2522605 218 222 230
21.8944936 33.3598232 21.2812623 218 222 230
21.8944936 33.3598232 20.2812043 218 222 230
21.8944936 33.5991528 19.3102061 218 222 230
21.8944936 34.0639029 18.4246987 218 222 230
21.8944936 34.7270641 17.6761445 218 222 230
21.8944936 35.5500957 17.1080468 218 222 230
21.8944936 36.4851662 16.7534213 218 222 230
21.8944936 37.4779327 16.6328776 218 222 230
21.8944936 38.4706992 16.7534213 218 222 230
21.8944936 39.4057697 17.1080468 218 222 230
21.8944936 40.2288013 17.6761445 218 222 230
21.8944936 40.8919625 18.4246987 218 222 230
21.8944936 41.3567126 19.3102061 218 222 230
21.8944936 41.5960422 20.2812043 218 222 230
21.8944936 41.5960422 21.2812623 218 222 230
21.8944936 41.3567126 22.2522605 218 222 230
21.8944936 40.8919625 23.1377679 218 222 230
21.8944936 40.2288013 23.8863221 218 222 230
21.8944936 39.4057697 24.4544198 218 222 230
21.8944936 38.4706992 24.8090453 218 222 230
33.6966177 33.1628356 6.58864439 255 79 163
33.6887717 33.1699101 6.67865037 255 79 163
33.6654648 33.1909257 6.76600737 255 79 163
33.6273828 33.2252637 6.84814434 255 79 163
33.5756466 33.2719136 6.9226439 255 79 163
33.5117788 33.3295023 6.98731341 255 79 163
33.4376592 33.396335 7.04024959 255 79 163
33.3554691 33.4704446 7.07989444 255 79 163
33.2611104 33.5555266 7.10632201 255 79 163
33.1634469 33.6435885 7.1152317 255 79 163
23.935896 32.8135393 7.1152317 255 79 163
23.757683 32.2687949 6.58864439 255 79 163
23.761675 32.2809972 6.69947615 255 79 163
23.7734721 32.3170575 6.80534263 255 79 163
23.7925458 32.3753602 6.901501 255 79 163
23.8180416 32.4532934 6.98364336 255 79 163
23.8488173 32.5473656 7.04808971 255 79 163
23.8834942 32.6533625 7.09195286 255 79 163
23.9094007 32.7325508 7.10937947 255 79 163
23.757683 32.2687949 0.526587308 218 222 230
23.757683 32.2687949 6.58864439 218 222 230
23.761675 32.2809972 6.69947615 218 222 230
23.7734721 32.3170575 6.80534263 218 222 230
23.7925458 32.3753602 6.901501 218 222 230
23.8180416 32.4532934 6.98364336 218 222 230
23.8488173 32.5473656 7.04808971 218 222 230
23.8834942 32.6533625 7.09195286 218 222 230
23.9094007 32.7325508 7.10937947 218 222 230
23.935896 32.8135393 7.1152317 218 222 230
26.2475452 39.8795644 7.1152317 218 222 230
26.2475452 39.8795644 0.526587308 218 222 230
26.2475452 39.8795644 7.1152317 218 222 230
33.1634469 33.6435885 7.1152317 218 222 230
23.935896 32.8135393 7.1152317 218 222 230
3 5 7 6
3 1 8 7
3 4 7 5
3 3 1 7
3 3 7 4
3 0 3 2
3 0 1 3
3 10 9 11
3 15 14 10
3 17 16 15
3 17 15 10
3 13 18 17
3 13 19 18
3 13 17 10
3 12 10 11
3 12 13 10
3 31 20 21
3 31 30 20
3 32 21 22
3 32 31 21
3 33 32 22
3 34 22 23
3 34 33 22
3 35 23 24
3 35 34 23
3 36 24 25
3 36 35 24
3 37 25 26
3 37 36 25
3 38 26 27
3 38 37 26
3 29 27 28
3 29 38 27
3 47 48 55
3 46 54 53
3 46 55 54
3 46 47 55
3 45 53 52
3 45 46 53
3 44 52 51
3 44 45 52
3 43 51 50
3 43 44 51
3 42 50 49
3 42 43 50
3 41 49 39
3 41 42 49
3 40 41 39
3 64 65 72
3 63 71 70
3 63 72 71
3 63 64 72
3 62 70 69
3 62 63 70
3 61 69 68
3 61 62 69
3 60 68 67
3 60 61 68
3 59 67 66
3 59 60 67
3 58 66 56
3 58 59 66
3 57 58 56
3 82 83 87
3 81 86 85
3 81 87 86
3 81 82 87
3 80 85 84
3 80 84 92
3 80 81 85
3 79 92 91
3 79 80 92
3 78 91 90
3 78 79 91
3 77 90 89
3 77 78 90
3 76 89 88
3 76 77 89
3 75 88 73
3 75 76 88
3 74 75 73
3 94 96 95
3 94 97 96
3 94 98 97
3 99 98 94
3 100 99 94
3 101 100 94
3 102 101 94
3 93 102 94
3 111 104 103
3 111 105 104
3 111 106 105
3 111 107 106
3 111 108 107
3 111 109 108
3 111 110 109
3 122 103 102
3 123 102 93
3 123 122 102
3 121 103 122
3 120 111 103
3 120 103 121
3 119 111 120
3 118 111 119
3 117 111 118
3 116 111 117
3 115 111 116
3 113 111 115
3 112 114 123
3 112 123 93
3 111 113 112
3 113 114 112
3 129 130 131
3 129 131 132
3 128 132 133
3 128 129 132
3 127 133 134
3 127 128 133
3 126 134 135
3 126 127 134
3 125 135 136
3 125 126 135
3 124 136 137
3 124 125 136
3 140 147 156
3 141 156 155
3 141 140 156
3 142 155 154
3 142 141 155
3 143 154 153
3 143 142 154
3 144 152 151
3 144 153 152
3 144 143 153
3 145 151 150
3 145 144 151
3 146 149 148
3 146 150 149
3 146 145 150
3 139 148 138
3 139 146 148
3 165 166 167
3 164 167 168
3 164 165 167
3 163 168 169
3 163 164 168
3 162 169 170
3 162 170 171
3 162 163 169
3 161 171 172
3 161 162 171
3 160 172 173
3 160 161 172
3 159 173 174
3 159 160 173
3 158 174 157
3 158 159 174
3 206 205 180
3 204 180 205
3 207 206 180
3 203 179 180
3 203 180 204
3 208 207 180
3 202 179 203
3 209 208 180
3 201 179 202
3 210 209 180
3 200 179 201
3 199 179 200
3 198 179 199
3 197 179 198
3 196 179 197
3 195 179 196
3 181 211 210
3 181 212 211
3 181 213 212
3 181 210 180
3 178 190 189
3 178 191 190
3 178 192 191
3 178 193 192
3 178 214 213
3 178 189 214
3 178 213 181
3 177 178 181
3 182 175 177
3 182 177 181
3 176 175 182
3 186 183 176
3 186 184 183
3 186 185 184
3 186 176 182
3 186 188 187
3 186 182 188
3 178 179 195
3 178 195 194
3 178 194 193
3 217 219 218
3 217 220 219
3 217 221 220
3 217 222 221
3 217 223 222
3 224 223 217
3 225 224 217
3 226 225 217
3 215 226 217
3 233 232 216
3 235 234 233
3 231 216 215
3 231 236 235
3 231 237 236
3 231 233 216
3 231 235 233
3 227 228 229
3 248 217 227
3 248 215 217
3 248 231 215
3 247 248 227
3 239 231 248
3 230 241 242
3 230 242 243
3 230 243 244
3 230 244 245
3 230 245 246
3 230 246 247
3 230 227 229
3 230 247 227
3 230 231 239
3 230 239 238
3 230 238 240
3 230 240 241
3 249 251 250
3 256 249 254
3 256 254 255
3 258 256 257
3 258 249 256
3 259 249 258
3 253 249 259
3 252 251 249
3 252 249 253
3 262 260 261
3 262 263 260
3 266 265 264
3 271 267 268
3 271 268 269
3 271 269 270
3 271 270 266
3 271 266 264
3 272 273 274
3 283 284 285
3 282 285 286
3 282 283 285
3 281 286 287
3 281 282 286
3 280 287 288
3 280 288 289
3 280 281 287
3 279 289 290
3 279 280 289
3 278 290 291
3 278 291 292
3 278 279 290
3 277 292 293
3 277 278 292
3 276 293 275
3 276 277 293
3 304 294 295
3 304 303 294
3 305 295 296
3 305 304 295
3 306 296 297
3 306 305 296
3 307 297 298
3 307 306 297
3 308 298 299
3 308 307 298
3 309 299 300
3 309 308 299
3 302 300 301
3 302 309 300
3 311 312 310
3 311 313 312
3 323 315 314
3 324 316 315
3 324 315 323
3 325 317 316
3 325 316 324
3 326 318 317
3 326 317 325
3 327 319 318
3 327 318 326
3 328 320 319
3 328 319 327
3 329 321 320
3 329 320 328
3 322 321 329
3 331 332 330
3 331 333 332
3 334 337 336
3 335 337 334
3 339 340 338
3 339 341 340
3 358 349 348
3 357 362 356
3 363 343 342
3 363 344 343
3 364 363 342
3 365 342 350
3 365 364 342
3 366 345 344
3 366 344 363
3 366 363 364
3 367 350 351
3 367 351 352
3 367 365 350
3 368 364 365
3 368 366 364
3 369 346 345
3 369 347 346
3 369 345 366
3 370 352 353
3 370 368 365
3 370 367 352
3 370 365 367
3 371 369 366
3 371 366 368
3 372 368 370
3 372 371 368
3 373 348 347
3 373 359 358
3 373 347 369
3 373 358 348
3 373 369 371
3 374 353 354
3 374 354 355
3 374 370 353
3 374 372 370
3 375 360 359
3 375 361 360
3 375 359 373
3 375 371 372
3 375 373 371
3 376 355 356
3 376 362 361
3 376 356 362
3 376 361 375
3 376 374 355
3 376 372 374
3 376 375 372
3 383 380 379
3 382 380 383
3 384 383 379
3 386 380 382
3 381 380 386
3 377 385 384
3 377 386 385
3 377 384 379
3 377 381 386
3 378 381 377
3 395 396 402
3 394 402 401
3 394 395 402
3 393 401 400
3 393 394 401
3 392 400 399
3 392 393 400
3 391 399 398
3 391 392 399
3 390 398 397
3 390 391 398
3 389 397 387
3 389 390 397
3 388 389 387
3 432 404 403
3 432 405 404
3 432 406 405
3 433 406 432
3 434 407 406
3 434 408 407
3 434 406 433
3 435 408 434
3 436 409 408
3 436 408 435
3 437 410 409
3 437 409 436
3 438 411 410
3 438 410 437
3 439 412 411
3 439 411 438
3 440 413 412
3 440 412 439
3 441 414 413
3 441 415 414
3 441 413 440
3 442 415 441
3 443 415 442
3 443 416 415
3 444 416 443
3 444 417 416
3 445 418 417
3 445 417 444
3 446 418 445
3 446 419 418
3 446 420 419
3 447 421 420
3 447 420 446
3 448 421 447
3 449 422 421
3 449 423 422
3 449 421 448
3 450 424 423
3 450 423 449
3 451 424 450
3 452 425 424
3 452 426 425
3 452 424 451
3 453 427 426
3 453 426 452
3 454 428 427
3 454 427 453
3 455 428 454
3 456 429 428
3 456 428 455
3 431 430 429
3 431 429 456
3 475 457 458
3 475 458 459
3 475 459 460
3 474 460 461
3 474 461 462
3 474 462 463
3 474 475 460
3 473 463 464
3 473 464 465
3 473 474 463
3 472 465 466
3 472 473 465
3 471 472 466
3 470 471 466
3 469 466 467
3 469 470 466
3 468 469 467
3 479 477 476
3 479 478 477
3 487 484 485
3 487 485 486
3 487 486 479
3 487 479 476
3 483 484 487
3 482 483 487
3 481 482 487
3 480 481 487
3 496 497 503
3 495 503 502
3 495 496 503
3 494 502 501
3 494 495 502
3 493 501 500
3 493 494 501
3 492 500 499
3 492 493 500
3 491 499 498
3 491 492 499
3 490 498 488
3 490 491 498
3 489 490 488
3 517 519 518
3 517 520 519
3 517 521 520
3 517 522 521
3 517 523 522
3 517 524 523
3 517 504 524
3 506 505 504
3 507 508 509
3 507 509 510
3 507 510 511
3 507 511 512
3 507 512 513
3 507 513 514
3 507 514 515
3 507 515 506
3 516 506 504
3 516 504 517
3 516 507 506
3 539 540 541
3 539 541 542
3 536 537 538
3 536 538 539
3 547 544 545
3 547 545 546
3 549 547 548
3 533 534 535
3 533 535 536
3 533 539 542
3 533 536 539
3 526 549 550
3 526 550 525
3 529 530 531
3 529 531 532
3 529 532 533
3 529 542 543
3 529 543 544
3 529 533 542
3 529 544 547
3 528 526 527
3 528 549 526
3 528 547 549
3 528 529 547
3 562 552 551
3 563 553 552
3 563 552 562
3 564 554 553
3 564 553 563
3 565 555 554
3 565 554 564
3 566 556 555
3 566 557 556
3 566 555 565
3 567 558 557
3 567 557 566
3 568 559 558
3 568 558 567
3 569 560 559
3 569 559 568
3 561 560 569
3 571 573 572
3 571 574 573
3 571 575 574
3 571 576 575
3 571 577 576
3 571 578 577
3 579 578 571
3 570 579 571
3 581 580 579
3 581 579 570
3 582 583 584
