ply
format ascii 1.0
comment generated by blendit.inference.finetune_visualize
element vertex 838
property float x
property float y
property float z
property uchar red
property uchar green
property uchar blue
element face 800
property list uchar int vertex_indices
end_header
0 36.0550707 0 218 222 230
-2.22044605e-16 40.7790244 0 218 222 230
-2.22044605e-16 40.7790244 91.5800617 218 222 230
0 0.882265758 91.5800617 218 222 230
-2.22044605e-16 0.882265758 59.606825 218 222 230
3.55271368e-15 35.1728049 59.606825 218 222 230
-3.55271368e-15 36.0550707 58.1947493 218 222 230
-3.55271368e-15 35.9915753 58.7207502 218 222 230
-3.55271368e-15 35.8527525 59.0945497 218 222 230
-3.55271368e-15 35.6870561 59.3421475 218 222 230
-3.55271368e-15 35.527368 59.4877775 218 222 230
-3.55271368e-15 35.3863954 59.56482 218 222 230
-3.55271368e-15 35.2804034 59.5962844 218 222 230
0 36.0550707 0 218 222 230
-2.22044605e-16 40.7790244 0 218 222 230
42.157426 36.0550707 0 218 222 230
42.157426 41.6612902 0 218 222 230
0.882265758 41.6612902 0 218 222 230
0.0221202446 40.975347 0 218 222 230
0.0873717768 41.1618252 0 218 222 230
0.192482613 41.3291081 0 218 222 230
0.332182055 41.4688076 0 218 222 230
0.499464992 41.5739184 0 218 222 230
0.685943158 41.6391699 0 218 222 230
-2.22044605e-16 40.7790244 0 255 79 163
-2.22044605e-16 40.7790244 91.5800617 255 79 163
0.0221202446 40.975347 91.5800617 255 79 163
0.0873717768 41.1618252 91.5800617 255 79 163
0.192482613 41.3291081 91.5800617 255 79 163
0.332182055 41.4688076 91.5800617 255 79 163
0.499464992 41.5739184 91.5800617 255 79 163
0.685943158 41.6391699 91.5800617 255 79 163
0.882265758 41.6612902 91.5800617 255 79 163
0.882265758 41.6612902 0 255 79 163
0.0221202446 40.975347 0 255 79 163
0.0873717768 41.1618252 0 255 79 163
0.192482613 41.3291081 0 255 79 163
0.332182055 41.4688076 0 255 79 163
0.499464992 41.5739184 0 255 79 163
0.685943158 41.6391699 0 255 79 163
-3.55271368e-15 36.0550707 58.1947493 218 222 230
0 36.0550707 0 218 222 230
42.157426 36.0550707 0 218 222 230
42.157426 36.0550707 59.606825 218 222 230
21.7675723 36.0550707 85.0870778 218 222 230
21.6299532 36.0550707 85.2246969 218 222 230
21.6791677 36.0550707 85.1822485 218 222 230
21.7251238 36.0550707 85.1362923 218 222 230
0 0.882265758 91.5800617 255 79 163
0.0221202446 0.882265758 91.7763843 255 79 163
0.0873717768 0.882265758 91.9628624 255 79 163
0.192482613 0.882265758 92.1301454 255 79 163
0.332182055 0.882265758 92.2698448 255 79 163
0.499464992 0.882265758 92.3749556 255 79 163
0.685943158 0.882265758 92.4402072 255 79 163
0.882265758 0.882265758 92.4623274 255 79 163
0.882265758 40.7790244 92.4623274 255 79 163
0.685943158 40.7790244 92.4402072 255 79 163
0.499464992 40.7790244 92.3749556 255 79 163
0.332182055 40.7790244 92.2698448 255 79 163
0.192482613 40.7790244 92.1301454 255 79 163
0.0873717768 40.7790244 91.9628624 255 79 163
0.0221202446 40.7790244 91.7763843 255 79 163
-2.22044605e-16 40.7790244 91.5800617 255 79 163
21.6299532 36.0550707 85.2246969 255 79 163
-3.55271368e-15 36.0550707 58.1947493 255 79 163
-3.55271368e-15 35.9915753 58.7207502 255 79 163
-3.55271368e-15 35.8527525 59.0945497 255 79 163
-3.55271368e-15 35.6870561 59.3421475 255 79 163
-3.55271368e-15 35.527368 59.4877775 255 79 163
-3.55271368e-15 35.3863954 59.56482 255 79 163
-3.55271368e-15 35.2804034 59.5962844 255 79 163
3.55271368e-15 35.1728049 59.606825 255 79 163
20.3898537 35.1728049 85.0870778 255 79 163
20.5559975 35.4011521 85.2465847 255 79 163
20.7577634 35.6139378 85.3576553 255 79 163
20.9814016 35.796661 85.4127204 255 79 163
21.1887945 35.9250601 85.4112089 255 79 163
21.3528496 35.9988477 85.3744329 255 79 163
21.4921508 36.0396633 85.3152361 255 79 163
21.5631717 36.0512104 85.2731927 255 79 163
-2.22044605e-16 0.882265758 59.606825 255 79 163
0.0107364011 0.745045323 59.6202418 255 79 163
0.0426842992 0.611164593 59.6601656 255 79 163
0.0950661385 0.48388199 59.7256247 255 79 163
0.166607037 0.36629535 59.8150261 255 79 163
0.255565814 0.261266525 59.9261937 255 79 163
0.397475235 0.145128717 60.1035313 255 79 163
0.581813954 0.0527348176 60.3338909 255 79 163
0.729743426 0.0132837065 60.5187514 255 79 163
0.882265758 -2.22044605e-16 60.7093515 255 79 163
0.882265758 -2.22044605e-16 91.5800617 255 79 163
0 0.882265758 91.5800617 255 79 163
0.0221202446 0.685943158 91.5800617 255 79 163
0.0873717768 0.499464992 91.5800617 255 79 163
0.192482613 0.332182055 91.5800617 255 79 163
0.332182055 0.192482613 91.5800617 255 79 163
0.499464992 0.0873717768 91.5800617 255 79 163
0.685943158 0.0221202446 91.5800617 255 79 163
-2.22044605e-16 0.882265758 59.606825 218 222 230
3.55271368e-15 35.1728049 59.606825 218 222 230
0.0107364011 0.745045323 59.6202418 218 222 230
0.0426842992 0.611164593 59.6601656 218 222 230
0.0950661385 0.48388199 59.7256247 218 222 230
0.166607037 0.36629535 59.8150261 218 222 230
0.255565814 0.261266525 59.9261937 218 222 230
0.397475235 0.145128717 60.1035313 218 222 230
0.581813954 0.0527348176 60.3338909 218 222 230
0.729743426 0.0132837065 60.5187514 218 222 230
0.882265758 -2.22044605e-16 60.7093515 218 222 230
20.3898537 0 85.0870778 218 222 230
20.3898537 35.1728049 85.0870778 218 222 230
0.882265758 41.6612902 0 218 222 230
42.157426 41.6612902 0 218 222 230
0.882265758 41.6612902 91.5800617 218 222 230
42.157426 41.6612902 91.5800617 218 222 230
35.9303731 41.6612902 81.0645886 218 222 230
36.1696887 41.6612902 81.0355305 218 222 230
36.3950962 41.6612902 80.9500447 218 222 230
36.5934957 41.6612902 80.8130994 218 222 230
36.7533569 41.6612902 80.6326534 218 222 230
36.8653893 41.6612902 80.4191935 218 222 230
36.9230819 41.6612902 80.1851253 218 222 230
36.9230819 41.6612902 79.944052 218 222 230
36.8653893 41.6612902 79.7099838 218 222 230
36.7533569 41.6612902 79.4965239 218 222 230
36.5934957 41.6612902 79.3160779 218 222 230
36.3950962 41.6612902 79.1791326 218 222 230
36.1696887 41.6612902 79.0936468 218 222 230
35.9303731 41.6612902 79.0645886 218 222 230
35.6910574 41.6612902 79.0936468 218 222 230
35.4656499 41.6612902 79.1791326 218 222 230
35.2672504 41.6612902 79.3160779 218 222 230
35.1073892 41.6612902 79.4965239 218 222 230
34.9953568 41.6612902 79.7099838 218 222 230
34.9376642 41.6612902 79.944052 218 222 230
34.9376642 41.6612902 80.1851253 218 222 230
34.9953568 41.6612902 80.4191935 218 222 230
35.1073892 41.6612902 80.6326534 218 222 230
35.2672504 41.6612902 80.8130994 218 222 230
35.4656499 41.6612902 80.9500447 218 222 230
35.6910574 41.6612902 81.0355305 218 222 230
34.291599 41.6612902 76.4804499 218 222 230
33.789472 41.6612902 76.0497859 218 222 230
34.4182836 41.6612902 76.6145041 218 222 230
34.5143283 41.6612902 76.7719681 218 222 230
34.5755356 41.6612902 76.94596 218 222 230
34.5992305 41.6612902 77.1288754 218 222 230
34.5843773 41.6612902 77.3127202 218 222 230
34.4624748 41.6612902 77.962907 218 222 230
34.4097228 41.6612902 78.1396461 218 222 230
34.3213773 41.6612902 78.3015553 218 222 230
34.2012996 41.6612902 78.4415583 218 222 230
34.0547376 41.6612902 78.5535364 218 222 230
33.8880968 41.6612902 78.6325955 218 222 230
32.7835558 41.6612902 79.0211539 218 222 230
31.8947839 41.6612902 78.2588725 218 222 230
31.6020057 41.6612902 77.4266023 218 222 230
31.5871525 41.6612902 77.610447 218 222 230
31.6108474 41.6612902 77.7933625 218 222 230
31.6720547 41.6612902 77.9673543 218 222 230
31.7680994 41.6612902 78.1248183 218 222 230
31.8177747 41.6612902 76.2757626 218 222 230
32.9223157 41.6612902 75.8872042 218 222 230
33.1017523 41.6612902 75.8445193 218 222 230
33.2861425 41.6612902 75.8400741 218 222 230
33.4674275 41.6612902 75.8740629 218 222 230
33.6376844 41.6612902 75.9450003 218 222 230
37.6449634 41.6612902 83.1310285 218 222 230
36.6167187 41.6612902 83.5692554 218 222 230
38.4290976 41.6612902 84.9709017 218 222 230
37.400853 41.6612902 85.4091286 218 222 230
36.243317 41.6612902 84.9434074 218 222 230
36.3406379 41.6612902 85.1153391 218 222 230
36.4737771 41.6612902 85.2613043 218 222 230
36.6360585 41.6612902 85.3739835 218 222 230
36.8193447 41.6612902 85.4477265 218 222 230
37.0144449 41.6612902 85.4788357 218 222 230
37.211576 41.6612902 85.465751 218 222 230
36.1509975 41.6612902 84.7267913 218 222 230
36.0943751 41.6612902 84.5375144 218 222 230
36.0812904 41.6612902 84.3403833 218 222 230
36.1123996 41.6612902 84.1452831 218 222 230
36.1861427 41.6612902 83.9619969 218 222 230
36.2988219 41.6612902 83.7997155 218 222 230
36.444787 41.6612902 83.6665762 218 222 230
42.157426 0 59.606825 218 222 230
42.157426 -2.22044605e-16 91.5800617 218 222 230
42.157426 36.0550707 59.606825 218 222 230
42.157426 36.0550707 0 218 222 230
42.157426 41.6612902 0 218 222 230
42.157426 41.6612902 91.5800617 218 222 230
0.882265758 40.7790244 92.4623274 255 79 163
0.685943158 40.7790244 92.4402072 255 79 163
0.499464992 40.7790244 92.3749556 255 79 163
0.332182055 40.7790244 92.2698448 255 79 163
0.192482613 40.7790244 92.1301454 255 79 163
0.0873717768 40.7790244 91.9628624 255 79 163
0.0221202446 40.7790244 91.7763843 255 79 163
-2.22044605e-16 40.7790244 91.5800617 255 79 163
0.882265758 40.7790244 92.4623274 255 79 163
0.882265758 40.975347 92.4402072 255 79 163
0.882265758 41.1618252 92.3749556 255 79 163
0.882265758 41.3291081 92.2698448 255 79 163
0.882265758 41.4688076 92.1301454 255 79 163
0.882265758 41.5739184 91.9628624 255 79 163
0.882265758 41.6391699 91.7763843 255 79 163
0.882265758 41.6612902 91.5800617 255 79 163
0.0221202446 40.975347 91.5800617 255 79 163
0.0873717768 41.1618252 91.5800617 255 79 163
0.192482613 41.3291081 91.5800617 255 79 163
0.332182055 41.4688076 91.5800617 255 79 163
0.499464992 41.5739184 91.5800617 255 79 163
0.685943158 41.6391699 91.5800617 255 79 163
0.612987236 40.8216739 92.4191463 255 79 163
0.639346094 40.9027982 92.4191463 255 79 163
0.689483621 40.9718066 92.4191463 255 79 163
0.389064206 40.9392753 92.2938296 255 79 163
0.758492007 41.0219441 92.4191463 255 79 163
0.462723459 41.0838397 92.2938296 255 79 163
0.177285435 40.8906823 92.0986445 255 79 163
0.83961623 41.0483029 92.4191463 255 79 163
0.577450436 41.1985667 92.2938296 255 79 163
0.246293821 41.1030683 92.0986445 255 79 163
0.72201486 41.272226 92.2938296 255 79 163
0.377555571 41.2837346 92.0986445 255 79 163
0.0842488831 41.0383158 91.8526968 255 79 163
0.558221871 41.4149964 92.0986445 255 79 163
0.203432058 41.272226 91.8526968 255 79 163
0.770607844 41.4840047 92.0986445 255 79 163
0.389064206 41.4578581 91.8526968 255 79 163
0.622974358 41.5770413 91.8526968 255 79 163
20.3898537 35.1728049 85.0870778 218 222 230
20.5559975 35.4011521 85.2465847 218 222 230
20.7577634 35.6139378 85.3576553 218 222 230
20.9814016 35.796661 85.4127204 218 222 230
21.1887945 35.9250601 85.4112089 218 222 230
21.3528496 35.9988477 85.3744329 218 222 230
21.4921508 36.0396633 85.3152361 218 222 230
21.5631717 36.0512104 85.2731927 218 222 230
21.6299532 36.0550707 85.2246969 218 222 230
20.3898537 0 85.0870778 218 222 230
20.5294977 0 85.2263124 218 222 230
20.6965792 0 85.3310524 218 222 230
20.8827512 0 85.3960654 218 222 230
21.078713 0 85.4181034 218 222 230
21.2746748 0 85.3960654 218 222 230
21.4608468 0 85.3310524 218 222 230
21.6279283 0 85.2263124 218 222 230
21.7675723 0 85.0870778 218 222 230
21.7675723 36.0550707 85.0870778 218 222 230
21.6791677 36.0550707 85.1822485 218 222 230
21.7251238 36.0550707 85.1362923 218 222 230
42.157426 0 59.606825 218 222 230
21.7675723 0 85.0870778 218 222 230
42.157426 36.0550707 59.606825 218 222 230
21.7675723 36.0550707 85.0870778 218 222 230
0.882265758 -2.22044605e-16 91.5800617 255 79 163
0.882265758 0.0221202446 91.7763843 255 79 163
0.882265758 0.0873717768 91.9628624 255 79 163
0.882265758 0.192482613 92.1301454 255 79 163
0.882265758 0.332182055 92.2698448 255 79 163
0.882265758 0.499464992 92.3749556 255 79 163
0.882265758 0.685943158 92.4402072 255 79 163
0.882265758 0.882265758 92.4623274 255 79 163
0 0.882265758 91.5800617 255 79 163
0.0221202446 0.882265758 91.7763843 255 79 163
0.0873717768 0.882265758 91.9628624 255 79 163
0.192482613 0.882265758 92.1301454 255 79 163
0.332182055 0.882265758 92.2698448 255 79 163
0.499464992 0.882265758 92.3749556 255 79 163
0.685943158 0.882265758 92.4402072 255 79 163
0 0.882265758 91.5800617 255 79 163
0.0221202446 0.685943158 91.5800617 255 79 163
0.0873717768 0.499464992 91.5800617 255 79 163
0.192482613 0.332182055 91.5800617 255 79 163
0.332182055 0.192482613 91.5800617 255 79 163
0.499464992 0.0873717768 91.5800617 255 79 163
0.685943158 0.0221202446 91.5800617 255 79 163
0.0431811598 0.83961623 91.8493402 255 79 163
0.0431811598 0.758492007 91.8229813 255 79 163
0.0431811598 0.689483621 91.7728438 255 79 163
0.168497766 0.72201486 92.0732632 255 79 163
0.0431811598 0.639346094 91.7038354 255 79 163
0.168497766 0.577450436 91.999604 255 79 163
0.363682957 0.770607844 92.285042 255 79 163
0.0431811598 0.612987236 91.6227112 255 79 163
0.168497766 0.462723459 91.884877 255 79 163
0.363682957 0.558221871 92.2160336 255 79 163
0.168497766 0.389064206 91.7403126 255 79 163
0.363682957 0.377555571 92.0847718 255 79 163
0.609630645 0.622974358 92.3780785 255 79 163
0.363682957 0.246293821 91.9041055 255 79 163
0.609630645 0.389064206 92.2588954 255 79 163
0.363682957 0.177285435 91.6917196 255 79 163
0.609630645 0.203432058 92.0732632 255 79 163
0.609630645 0.0842488831 91.8393531 255 79 163
0.882265758 0.882265758 92.4623274 218 222 230
41.2751602 0.882265758 92.4623274 218 222 230
41.2751602 40.7790244 92.4623274 218 222 230
0.882265758 40.7790244 92.4623274 218 222 230
20.3898537 0 85.0870778 218 222 230
0.882265758 -2.22044605e-16 60.7093515 218 222 230
0.882265758 -2.22044605e-16 91.5800617 218 222 230
42.157426 -2.22044605e-16 91.5800617 218 222 230
42.157426 0 59.606825 218 222 230
21.7675723 0 85.0870778 218 222 230
20.5294977 0 85.2263124 218 222 230
20.6965792 0 85.3310524 218 222 230
20.8827512 0 85.3960654 218 222 230
21.078713 0 85.4181034 218 222 230
21.2746748 0 85.3960654 218 222 230
21.4608468 0 85.3310524 218 222 230
21.6279283 0 85.2263124 218 222 230
38.719622 0 88.8438517 218 222 230
39.719622 0 88.8438517 218 222 230
39.8392798 0 88.8583808 218 222 230
39.9519836 0 88.9011237 218 222 230
40.0511833 0 88.9695963 218 222 230
40.1311139 0 89.0598193 218 222 230
40.1871301 0 89.1665492 218 222 230
40.2159764 0 89.2835833 218 222 230
40.2159764 0 89.40412 218 222 230
40.1871301 0 89.5211541 218 222 230
40.1311139 0 89.6278841 218 222 230
40.0511833 0 89.7181071 218 222 230
39.9519836 0 89.7865797 218 222 230
39.8392798 0 89.8293226 218 222 230
39.719622 0 89.8438517 218 222 230
38.719622 0 89.8438517 218 222 230
38.5999642 0 89.8293226 218 222 230
38.4872604 0 89.7865797 218 222 230
38.3880607 0 89.7181071 218 222 230
38.3081301 0 89.6278841 218 222 230
38.2521139 0 89.5211541 218 222 230
38.2232676 0 89.40412 218 222 230
38.2232676 0 89.2835833 218 222 230
38.2521139 0 89.1665492 218 222 230
38.3081301 0 89.0598193 218 222 230
38.3880607 0 88.9695963 218 222 230
38.4872604 0 88.9011237 218 222 230
38.5999642 0 88.8583808 218 222 230
31.8177747 0 76.2757626 218 222 230
32.9223157 0 75.8872042 218 222 230
33.1017523 0 75.8445193 218 222 230
33.2861425 0 75.8400741 218 222 230
33.4674275 0 75.8740629 218 222 230
33.6376844 0 75.9450003 218 222 230
33.789472 0 76.0497859 218 222 230
34.291599 0 76.4804499 218 222 230
34.4182836 0 76.6145041 218 222 230
34.5143283 0 76.7719681 218 222 230
34.5755356 0 76.94596 218 222 230
34.5992305 0 77.1288754 218 222 230
34.5843773 0 77.3127202 218 222 230
34.4624748 0 77.962907 218 222 230
34.4097228 0 78.1396461 218 222 230
34.3213773 0 78.3015553 218 222 230
34.2012996 0 78.4415583 218 222 230
34.0547376 0 78.5535364 218 222 230
33.8880968 0 78.6325955 218 222 230
32.7835558 0 79.0211539 218 222 230
31.8947839 0 78.2588725 218 222 230
31.6020057 0 77.4266023 218 222 230
31.5871525 0 77.610447 218 222 230
31.6108474 0 77.7933625 218 222 230
31.6720547 0 77.9673543 218 222 230
31.7680994 0 78.1248183 218 222 230
36.243317 0 84.9434074 218 222 230
36.1509975 0 84.7267913 218 222 230
36.0943751 0 84.5375144 218 222 230
36.0812904 0 84.3403833 218 222 230
36.1123996 0 84.1452831 218 222 230
36.1861427 0 83.9619969 218 222 230
36.2988219 0 83.7997155 218 222 230
36.444787 0 83.6665762 218 222 230
36.6167187 0 83.5692554 218 222 230
37.6449634 0 83.1310285 218 222 230
38.4290976 0 84.9709017 218 222 230
37.400853 0 85.4091286 218 222 230
36.3406379 0 85.1153391 218 222 230
36.4737771 0 85.2613043 218 222 230
36.6360585 0 85.3739835 218 222 230
36.8193447 0 85.4477265 218 222 230
37.0144449 0 85.4788357 218 222 230
37.211576 0 85.465751 218 222 230
0.882265758 40.7790244 92.4623274 255 79 163
41.2751602 40.7790244 92.4623274 255 79 163
41.5035074 41.0073716 92.4322649 255 79 163
41.7162931 41.2201573 92.3441262 255 79 163
41.8990163 41.4028805 92.2039178 255 79 163
42.0274154 41.5312796 92.0410442 255 79 163
42.1012029 41.6050672 91.889975 255 79 163
42.1420186 41.6458828 91.7442245 255 79 163
42.1535657 41.6574299 91.6625038 255 79 163
42.157426 41.6612902 91.5800617 255 79 163
0.882265758 41.6612902 91.5800617 255 79 163
0.882265758 40.975347 92.4402072 255 79 163
0.882265758 41.1618252 92.3749556 255 79 163
0.882265758 41.3291081 92.2698448 255 79 163
0.882265758 41.4688076 92.1301454 255 79 163
0.882265758 41.5739184 91.9628624 255 79 163
0.882265758 41.6391699 91.7763843 255 79 163
35.9303731 41.6612902 81.0645886 218 222 230
35.9303731 16.6237585 81.0645886 218 222 230
36.1696887 16.6237585 81.0355305 218 222 230
36.3950962 16.6237585 80.9500447 218 222 230
36.5934957 16.6237585 80.8130994 218 222 230
36.7533569 16.6237585 80.6326534 218 222 230
36.8653893 16.6237585 80.4191935 218 222 230
36.9230819 16.6237585 80.1851253 218 222 230
36.9230819 16.6237585 79.944052 218 222 230
36.8653893 16.6237585 79.7099838 218 222 230
36.7533569 16.6237585 79.4965239 218 222 230
36.5934957 16.6237585 79.3160779 218 222 230
36.3950962 16.6237585 79.1791326 218 222 230
36.1696887 16.6237585 79.0936468 218 222 230
35.9303731 16.6237585 79.0645886 218 222 230
35.6910574 16.6237585 79.0936468 218 222 230
35.4656499 16.6237585 79.1791326 218 222 230
35.2672504 16.6237585 79.3160779 218 222 230
35.1073892 16.6237585 79.4965239 218 222 230
34.9953568 16.6237585 79.7099838 218 222 230
34.9376642 16.6237585 79.944052 218 222 230
34.9376642 16.6237585 80.1851253 218 222 230
34.9953568 16.6237585 80.4191935 218 222 230
35.1073892 16.6237585 80.6326534 218 222 230
35.2672504 16.6237585 80.8130994 218 222 230
35.4656499 16.6237585 80.9500447 218 222 230
35.6910574 16.6237585 81.0355305 218 222 230
35.9303731 16.6237585 81.0645886 218 222 230
35.9303731 41.6612902 81.0645886 218 222 230
36.1696887 41.6612902 81.0355305 218 222 230
36.3950962 41.6612902 80.9500447 218 222 230
36.5934957 41.6612902 80.8130994 218 222 230
36.7533569 41.6612902 80.6326534 218 222 230
36.8653893 41.6612902 80.4191935 218 222 230
36.9230819 41.6612902 80.1851253 218 222 230
36.9230819 41.6612902 79.944052 218 222 230
36.8653893 41.6612902 79.7099838 218 222 230
36.7533569 41.6612902 79.4965239 218 222 230
36.5934957 41.6612902 79.3160779 218 222 230
36.3950962 41.6612902 79.1791326 218 222 230
36.1696887 41.6612902 79.0936468 218 222 230
35.9303731 41.6612902 79.0645886 218 222 230
35.6910574 41.6612902 79.0936468 218 222 230
35.4656499 41.6612902 79.1791326 218 222 230
35.2672504 41.6612902 79.3160779 218 222 230
35.1073892 41.6612902 79.4965239 218 222 230
34.9953568 41.6612902 79.7099838 218 222 230
34.9376642 41.6612902 79.944052 218 222 230
34.9376642 41.6612902 80.1851253 218 222 230
34.9953568 41.6612902 80.4191935 218 222 230
35.1073892 41.6612902 80.6326534 218 222 230
35.2672504 41.6612902 80.8130994 218 222 230
35.4656499 41.6612902 80.9500447 218 222 230
35.6910574 41.6612902 81.0355305 218 222 230
33.789472 0 76.0497859 218 222 230
34.291599 0 76.4804499 218 222 230
33.789472 41.6612902 76.0497859 218 222 230
34.291599 41.6612902 76.4804499 218 222 230
34.291599 0 76.4804499 218 222 230
34.291599 41.6612902 76.4804499 218 222 230
34.4182836 41.6612902 76.6145041 218 222 230
34.5143283 41.6612902 76.7719681 218 222 230
34.5755356 41.6612902 76.94596 218 222 230
34.5992305 41.6612902 77.1288754 218 222 230
34.5843773 41.6612902 77.3127202 218 222 230
34.5843773 0 77.3127202 218 222 230
34.4182836 0 76.6145041 218 222 230
34.5143283 0 76.7719681 218 222 230
34.5755356 0 76.94596 218 222 230
34.5992305 0 77.1288754 218 222 230
32.9223157 0 75.8872042 218 222 230
32.9223157 41.6612902 75.8872042 218 222 230
33.1017523 41.6612902 75.8445193 218 222 230
33.2861425 41.6612902 75.8400741 218 222 230
33.4674275 41.6612902 75.8740629 218 222 230
33.6376844 41.6612902 75.9450003 218 222 230
33.789472 41.6612902 76.0497859 218 222 230
33.789472 0 76.0497859 218 222 230
33.1017523 0 75.8445193 218 222 230
33.2861425 0 75.8400741 218 222 230
33.4674275 0 75.8740629 218 222 230
33.6376844 0 75.9450003 218 222 230
34.5843773 0 77.3127202 218 222 230
34.4624748 0 77.962907 218 222 230
34.5843773 41.6612902 77.3127202 218 222 230
34.4624748 41.6612902 77.962907 218 222 230
31.8177747 0 76.2757626 218 222 230
32.9223157 0 75.8872042 218 222 230
31.8177747 41.6612902 76.2757626 218 222 230
32.9223157 41.6612902 75.8872042 218 222 230
34.4624748 0 77.962907 218 222 230
34.4624748 41.6612902 77.962907 218 222 230
34.4097228 41.6612902 78.1396461 218 222 230
34.3213773 41.6612902 78.3015553 218 222 230
34.2012996 41.6612902 78.4415583 218 222 230
34.0547376 41.6612902 78.5535364 218 222 230
33.8880968 41.6612902 78.6325955 218 222 230
33.8880968 0 78.6325955 218 222 230
34.4097228 0 78.1396461 218 222 230
34.3213773 0 78.3015553 218 222 230
34.2012996 0 78.4415583 218 222 230
34.0547376 0 78.5535364 218 222 230
31.6020057 0 77.4266023 218 222 230
31.8177747 0 76.2757626 218 222 230
31.6020057 41.6612902 77.4266023 218 222 230
31.8177747 41.6612902 76.2757626 218 222 230
33.8880968 0 78.6325955 218 222 230
32.7835558 0 79.0211539 218 222 230
33.8880968 41.6612902 78.6325955 218 222 230
32.7835558 41.6612902 79.0211539 218 222 230
31.6020057 0 77.4266023 218 222 230
31.5871525 0 77.610447 218 222 230
31.6108474 0 77.7933625 218 222 230
31.6720547 0 77.9673543 218 222 230
31.7680994 0 78.1248183 218 222 230
31.8947839 0 78.2588725 218 222 230
31.8947839 41.6612902 78.2588725 218 222 230
31.6020057 41.6612902 77.4266023 218 222 230
31.5871525 41.6612902 77.610447 218 222 230
31.6108474 41.6612902 77.7933625 218 222 230
31.6720547 41.6612902 77.9673543 218 222 230
31.7680994 41.6612902 78.1248183 218 222 230
32.7835558 0 79.0211539 218 222 230
31.8947839 0 78.2588725 218 222 230
32.7835558 41.6612902 79.0211539 218 222 230
31.8947839 41.6612902 78.2588725 218 222 230
36.6167187 0 83.5692554 218 222 230
37.6449634 0 83.1310285 218 222 230
36.6167187 41.6612902 83.5692554 218 222 230
37.6449634 41.6612902 83.1310285 218 222 230
36.1509975 0 84.7267913 218 222 230
36.1509975 41.6612902 84.7267913 218 222 230
36.0943751 41.6612902 84.5375144 218 222 230
36.0812904 41.6612902 84.3403833 218 222 230
36.1123996 41.6612902 84.1452831 218 222 230
36.1861427 41.6612902 83.9619969 218 222 230
36.2988219 41.6612902 83.7997155 218 222 230
36.444787 41.6612902 83.6665762 218 222 230
36.6167187 41.6612902 83.5692554 218 222 230
36.6167187 0 83.5692554 218 222 230
36.0943751 0 84.5375144 218 222 230
36.0812904 0 84.3403833 218 222 230
36.1123996 0 84.1452831 218 222 230
36.1861427 0 83.9619969 218 222 230
36.2988219 0 83.7997155 218 222 230
36.444787 0 83.6665762 218 222 230
37.6449634 0 83.1310285 218 222 230
38.4290976 0 84.9709017 218 222 230
37.6449634 41.6612902 83.1310285 218 222 230
38.4290976 41.6612902 84.9709017 218 222 230
36.243317 0 84.9434074 218 222 230
36.1509975 0 84.7267913 218 222 230
36.243317 41.6612902 84.9434074 218 222 230
36.1509975 41.6612902 84.7267913 218 222 230
38.4290976 0 84.9709017 218 222 230
37.400853 0 85.4091286 218 222 230
38.4290976 41.6612902 84.9709017 218 222 230
37.400853 41.6612902 85.4091286 218 222 230
36.243317 0 84.9434074 218 222 230
36.3406379 0 85.1153391 218 222 230
36.4737771 0 85.2613043 218 222 230
36.6360585 0 85.3739835 218 222 230
36.8193447 0 85.4477265 218 222 230
37.0144449 0 85.4788357 218 222 230
37.211576 0 85.465751 218 222 230
37.400853 0 85.4091286 218 222 230
37.400853 41.6612902 85.4091286 218 222 230
36.243317 41.6612902 84.9434074 218 222 230
36.3406379 41.6612902 85.1153391 218 222 230
36.4737771 41.6612902 85.2613043 218 222 230
36.6360585 41.6612902 85.3739835 218 222 230
36.8193447 41.6612902 85.4477265 218 222 230
37.0144449 41.6612902 85.4788357 218 222 230
37.211576 41.6612902 85.465751 218 222 230
42.157426 -2.22044605e-16 91.5800617 255 79 163
42.1452785 0.0121474731 91.7259624 255 79 163
42.1091706 0.0482553876 91.8678456 255 79 163
42.0500965 0.10732944 92.001804 255 79 163
41.969683 0.187742909 92.1241489 255 79 163
41.8701445 0.287281448 92.2315112 255 79 163
41.7542219 0.403204067 92.3209346 255 79 163
41.5797435 0.577682431 92.4080845 255 79 163
41.429848 0.727577932 92.4486608 255 79 163
41.2751602 0.882265758 92.4623274 255 79 163
42.157426 41.6612902 91.5800617 255 79 163
41.2751602 40.7790244 92.4623274 255 79 163
41.5035074 41.0073716 92.4322649 255 79 163
41.7162931 41.2201573 92.3441262 255 79 163
41.8990163 41.4028805 92.2039178 255 79 163
42.0274154 41.5312796 92.0410442 255 79 163
42.1012029 41.6050672 91.889975 255 79 163
42.1420186 41.6458828 91.7442245 255 79 163
42.1535657 41.6574299 91.6625038 255 79 163
42.157426 -2.22044605e-16 91.5800617 255 79 163
42.1452785 0.0121474731 91.7259624 255 79 163
42.1091706 0.0482553876 91.8678456 255 79 163
42.0500965 0.10732944 92.001804 255 79 163
41.969683 0.187742909 92.1241489 255 79 163
41.8701445 0.287281448 92.2315112 255 79 163
41.7542219 0.403204067 92.3209346 255 79 163
41.5797435 0.577682431 92.4080845 255 79 163
41.429848 0.727577932 92.4486608 255 79 163
41.2751602 0.882265758 92.4623274 255 79 163
0.882265758 0.882265758 92.4623274 255 79 163
0.882265758 -2.22044605e-16 91.5800617 255 79 163
0.882265758 0.0221202446 91.7763843 255 79 163
0.882265758 0.0873717768 91.9628624 255 79 163
0.882265758 0.192482613 92.1301454 255 79 163
0.882265758 0.332182055 92.2698448 255 79 163
0.882265758 0.499464992 92.3749556 255 79 163
0.882265758 0.685943158 92.4402072 255 79 163
38.719622 0 88.8438517 218 222 230
38.719622 28.5011124 88.8438517 218 222 230
39.719622 28.5011124 88.8438517 218 222 230
39.719622 0 88.8438517 218 222 230
38.719622 0 89.8438517 218 222 230
38.719622 28.5011124 89.8438517 218 222 230
38.5999642 28.5011124 89.8293226 218 222 230
38.4872604 28.5011124 89.7865797 218 222 230
38.3880607 28.5011124 89.7181071 218 222 230
38.3081301 28.5011124 89.6278841 218 222 230
38.2521139 28.5011124 89.5211541 218 222 230
38.2232676 28.5011124 89.40412 218 222 230
38.2232676 28.5011124 89.2835833 218 222 230
38.2521139 28.5011124 89.1665492 218 222 230
38.3081301 28.5011124 89.0598193 218 222 230
38.3880607 28.5011124 88.9695963 218 222 230
38.4872604 28.5011124 88.9011237 218 222 230
38.5999642 28.5011124 88.8583808 218 222 230
38.719622 28.5011124 88.8438517 218 222 230
38.719622 0 88.8438517 218 222 230
38.5999642 0 89.8293226 218 222 230
38.4872604 0 89.7865797 218 222 230
38.3880607 0 89.7181071 218 222 230
38.3081301 0 89.6278841 218 222 230
38.2521139 0 89.5211541 218 222 230
38.2232676 0 89.40412 218 222 230
38.2232676 0 89.2835833 218 222 230
38.2521139 0 89.1665492 218 222 230
38.3081301 0 89.0598193 218 222 230
38.3880607 0 88.9695963 218 222 230
38.4872604 0 88.9011237 218 222 230
38.5999642 0 88.8583808 218 222 230
39.719622 0 89.8438517 218 222 230
39.719622 28.5011124 89.8438517 218 222 230
38.719622 28.5011124 89.8438517 218 222 230
38.719622 0 89.8438517 218 222 230
39.719622 0 88.8438517 218 222 230
39.719622 28.5011124 88.8438517 218 222 230
39.8392798 28.5011124 88.8583808 218 222 230
39.9519836 28.5011124 88.9011237 218 222 230
40.0511833 28.5011124 88.9695963 218 222 230
40.1311139 28.5011124 89.0598193 218 222 230
40.1871301 28.5011124 89.1665492 218 222 230
40.2159764 28.5011124 89.2835833 218 222 230
40.2159764 28.5011124 89.40412 218 222 230
40.1871301 28.5011124 89.5211541 218 222 230
40.1311139 28.5011124 89.6278841 218 222 230
40.0511833 28.5011124 89.7181071 218 222 230
39.9519836 28.5011124 89.7865797 218 222 230
39.8392798 28.5011124 89.8293226 218 222 230
39.719622 28.5011124 89.8438517 218 222 230
39.719622 0 89.8438517 218 222 230
39.8392798 0 88.8583808 218 222 230
39.9519836 0 88.9011237 218 222 230
40.0511833 0 88.9695963 218 222 230
40.1311139 0 89.0598193 218 222 230
40.1871301 0 89.1665492 218 222 230
40.2159764 0 89.2835833 218 222 230
40.2159764 0 89.40412 218 222 230
40.1871301 0 89.5211541 218 222 230
40.1311139 0 89.6278841 218 222 230
40.0511833 0 89.7181071 218 222 230
39.9519836 0 89.7865797 218 222 230
39.8392798 0 89.8293226 218 222 230
35.9303731 16.6237585 81.0645886 218 222 230
36.1696887 16.6237585 81.0355305 218 222 230
36.3950962 16.6237585 80.9500447 218 222 230
36.5934957 16.6237585 80.8130994 218 222 230
36.7533569 16.6237585 80.6326534 218 222 230
36.8653893 16.6237585 80.4191935 218 222 230
36.9230819 16.6237585 80.1851253 218 222 230
36.9230819 16.6237585 79.944052 218 222 230
36.8653893 16.6237585 79.7099838 218 222 230
36.7533569 16.6237585 79.4965239 218 222 230
36.5934957 16.6237585 79.3160779 218 222 230
36.3950962 16.6237585 79.1791326 218 222 230
36.1696887 16.6237585 79.0936468 218 222 230
35.9303731 16.6237585 79.0645886 218 222 230
35.6910574 16.6237585 79.0936468 218 222 230
35.4656499 16.6237585 79.1791326 218 222 230
35.2672504 16.6237585 79.3160779 218 222 230
35.1073892 16.6237585 79.4965239 218 222 230
34.9953568 16.6237585 79.7099838 218 222 230
34.9376642 16.6237585 79.944052 218 222 230
34.9376642 16.6237585 80.1851253 218 222 230
34.9953568 16.6237585 80.4191935 218 222 230
35.1073892 16.6237585 80.6326534 218 222 230
35.2672504 16.6237585 80.8130994 218 222 230
35.4656499 16.6237585 80.9500447 218 222 230
35.6910574 16.6237585 81.0355305 218 222 230
35.9303731 16.6237585 79.373499 218 222 230
36.0957617 16.6237585 79.3935808 218 222 230
36.2515385 16.6237585 79.4526591 218 222 230
36.3886503 16.6237585 79.5473006 218 222 230
36.4991287 16.6237585 79.672005 218 222 230
36.5765531 16.6237585 79.8195249 218 222 230
36.6164239 16.6237585 79.981287 218 222 230
36.6164239 16.6237585 80.1478903 218 222 230
36.5765531 16.6237585 80.3096524 218 222 230
36.4991287 16.6237585 80.4571723 218 222 230
36.3886503 16.6237585 80.5818767 218 222 230
36.2515385 16.6237585 80.6765182 218 222 230
36.0957617 16.6237585 80.7355965 218 222 230
35.9303731 16.6237585 80.7556783 218 222 230
35.7649845 16.6237585 80.7355965 218 222 230
35.6092077 16.6237585 80.6765182 218 222 230
35.4720958 16.6237585 80.5818767 218 222 230
35.3616174 16.6237585 80.4571723 218 222 230
35.284193 16.6237585 80.3096524 218 222 230
35.2443222 16.6237585 80.1478903 218 222 230
35.2443222 16.6237585 79.981287 218 222 230
35.284193 16.6237585 79.8195249 218 222 230
35.3616174 16.6237585 79.672005 218 222 230
35.4720958 16.6237585 79.5473006 218 222 230
35.6092077 16.6237585 79.4526591 218 222 230
35.7649845 16.6237585 79.3935808 218 222 230
39.719622 28.5011124 88.8438517 218 222 230
39.8392798 28.5011124 88.8583808 218 222 230
39.9519836 28.5011124 88.9011237 218 222 230
40.0511833 28.5011124 88.9695963 218 222 230
40.1311139 28.5011124 89.0598193 218 222 230
40.1871301 28.5011124 89.1665492 218 222 230
40.2159764 28.5011124 89.2835833 218 222 230
40.2159764 28.5011124 89.40412 218 222 230
40.1871301 28.5011124 89.5211541 218 222 230
40.1311139 28.5011124 89.6278841 218 222 230
40.0511833 28.5011124 89.7181071 218 222 230
39.9519836 28.5011124 89.7865797 218 222 230
39.8392798 28.5011124 89.8293226 218 222 230
39.719622 28.5011124 89.8438517 218 222 230
38.719622 28.5011124 89.8438517 218 222 230
38.5999642 28.5011124 89.8293226 218 222 230
38.4872604 28.5011124 89.7865797 218 222 230
38.3880607 28.5011124 89.7181071 218 222 230
38.3081301 28.5011124 89.6278841 218 222 230
38.2521139 28.5011124 89.5211541 218 222 230
38.2232676 28.5011124 89.40412 218 222 230
38.2232676 28.5011124 89.2835833 218 222 230
38.2521139 28.5011124 89.1665492 218 222 230
38.3081301 28.5011124 89.0598193 218 222 230
38.3880607 28.5011124 88.9695963 218 222 230
38.4872604 28.5011124 88.9011237 218 222 230
38.5999642 28.5011124 88.8583808 218 222 230
38.719622 28.5011124 88.8438517 218 222 230
35.9303731 41.6612902 79.373499 218 222 230
36.0957617 41.6612902 79.3935808 218 222 230
36.2515385 41.6612902 79.4526591 218 222 230
36.3886503 41.6612902 79.5473006 218 222 230
36.4991287 41.6612902 79.672005 218 222 230
36.5765531 41.6612902 79.8195249 218 222 230
36.6164239 41.6612902 79.981287 218 222 230
36.6164239 41.6612902 80.1478903 218 222 230
36.5765531 41.6612902 80.3096524 218 222 230
36.4991287 41.6612902 80.4571723 218 222 230
36.3886503 41.6612902 80.5818767 218 222 230
36.2515385 41.6612902 80.6765182 218 222 230
36.0957617 41.6612902 80.7355965 218 222 230
35.9303731 41.6612902 80.7556783 218 222 230
35.7649845 41.6612902 80.7355965 218 222 230
35.6092077 41.6612902 80.6765182 218 222 230
35.4720958 41.6612902 80.5818767 218 222 230
35.3616174 41.6612902 80.4571723 218 222 230
35.284193 41.6612902 80.3096524 218 222 230
35.2443222 41.6612902 80.1478903 218 222 230
35.2443222 41.6612902 79.981287 218 222 230
35.284193 41.6612902 79.8195249 218 222 230
35.3616174 41.6612902 79.672005 218 222 230
35.4720958 41.6612902 79.5473006 218 222 230
35.6092077 41.6612902 79.4526591 218 222 230
35.7649845 41.6612902 79.3935808 218 222 230
35.9303731 41.6612902 79.373499 218 222 230
35.9303731 16.6237585 79.373499 218 222 230
35.9303731 16.6237585 79.373499 218 222 230
36.0957617 16.6237585 79.3935808 218 222 230
36.2515385 16.6237585 79.4526591 218 222 230
36.3886503 16.6237585 79.5473006 218 222 230
36.4991287 16.6237585 79.672005 218 222 230
36.5765531 16.6237585 79.8195249 218 222 230
36.6164239 16.6237585 79.981287 218 222 230
36.6164239 16.6237585 80.1478903 218 222 230
36.5765531 16.6237585 80.3096524 218 222 230
36.4991287 16.6237585 80.4571723 218 222 230
36.3886503 16.6237585 80.5818767 218 222 230
36.2515385 16.6237585 80.6765182 218 222 230
36.0957617 16.6237585 80.7355965 218 222 230
35.9303731 16.6237585 80.7556783 218 222 230
35.7649845 16.6237585 80.7355965 218 222 230
35.6092077 16.6237585 80.6765182 218 222 230
35.4720958 16.6237585 80.5818767 218 222 230
35.3616174 16.6237585 80.4571723 218 222 230
35.284193 16.6237585 80.3096524 218 222 230
35.2443222 16.6237585 80.1478903 218 222 230
35.2443222 16.6237585 79.981287 218 222 230
35.284193 16.6237585 79.8195249 218 222 230
35.3616174 16.6237585 79.672005 218 222 230
35.4720958 16.6237585 79.5473006 218 222 230
35.6092077 16.6237585 79.4526591 218 222 230
35.7649845 16.6237585 79.3935808 218 222 230
35.9303731 41.6612902 79.373499 218 222 230
36.0957617 41.6612902 79.3935808 218 222 230
36.2515385 41.6612902 79.4526591 218 222 230
36.3886503 41.6612902 79.5473006 218 222 230
36.4991287 41.6612902 79.672005 218 222 230
36.5765531 41.6612902 79.8195249 218 222 230
36.6164239 41.6612902 79.981287 218 222 230
36.6164239 41.6612902 80.1478903 218 222 230
36.5765531 41.6612902 80.3096524 218 222 230
36.4991287 41.6612902 80.4571723 218 222 230
36.3886503 41.6612902 80.5818767 218 222 230
36.2515385 41.6612902 80.6765182 218 222 230
36.0957617 41.6612902 80.7355965 218 222 230
35.9303731 41.6612902 80.7556783 218 222 230
35.7649845 41.6612902 80.7355965 218 222 230
35.6092077 41.6612902 80.6765182 218 222 230
35.4720958 41.6612902 80.5818767 218 222 230
35.3616174 41.6612902 80.4571723 218 222 230
35.284193 41.6612902 80.3096524 218 222 230
35.2443222 41.6612902 80.1478903 218 222 230
35.2443222 41.6612902 79.981287 218 222 230
35.284193 41.6612902 79.8195249 218 222 230
35.3616174 41.6612902 79.672005 218 222 230
35.4720958 41.6612902 79.5473006 218 222 230
35.6092077 41.6612902 79.4526591 218 222 230
35.7649845 41.6612902 79.3935808 218 222 230
3 6 1 0
3 2 6 7
3 2 7 8
3 2 8 9
3 2 9 10
3 2 10 11
3 2 11 12
3 2 12 5
3 2 1 6
3 3 5 4
3 3 2 5
3 21 14 18
3 21 18 19
3 21 19 20
3 17 13 14
3 17 21 22
3 17 22 23
3 17 14 21
3 15 13 17
3 16 15 17
3 31 32 33
3 31 33 39
3 30 39 38
3 30 31 39
3 29 38 37
3 29 30 38
3 28 37 36
3 28 29 37
3 27 36 35
3 27 28 36
3 26 35 34
3 26 27 35
3 25 34 24
3 25 26 34
3 47 46 45
3 44 47 45
3 40 44 45
3 43 44 40
3 42 40 41
3 42 43 40
3 63 48 49
3 62 49 50
3 62 63 49
3 61 50 51
3 61 62 50
3 60 51 52
3 60 61 51
3 59 52 53
3 59 60 52
3 58 53 54
3 58 59 53
3 57 54 55
3 57 58 54
3 56 57 55
3 71 73 72
3 71 74 73
3 70 74 71
3 69 75 74
3 69 74 70
3 68 76 75
3 68 75 69
3 67 77 76
3 67 76 68
3 66 78 77
3 66 79 78
3 66 77 67
3 65 80 79
3 65 64 80
3 65 79 66
3 92 81 82
3 93 82 83
3 93 92 82
3 94 83 84
3 94 84 85
3 94 93 83
3 95 85 86
3 95 94 85
3 96 86 87
3 96 95 86
3 97 87 88
3 97 96 87
3 98 88 89
3 98 97 88
3 91 89 90
3 91 98 89
3 109 111 110
3 109 100 111
3 99 108 107
3 99 109 108
3 99 100 109
3 106 99 107
3 102 101 99
3 105 99 106
3 103 102 99
3 104 99 105
3 104 103 99
3 162 112 114
3 163 113 112
3 163 112 162
3 164 113 163
3 157 162 114
3 165 113 164
3 158 157 114
3 166 113 165
3 159 158 114
3 167 113 166
3 160 159 114
3 143 113 167
3 161 160 114
3 156 161 114
3 142 113 143
3 144 113 142
3 132 151 152
3 133 132 152
3 133 152 153
3 131 151 132
3 131 150 151
3 134 133 153
3 134 153 154
3 130 149 150
3 130 150 131
3 135 154 155
3 135 134 154
3 129 148 149
3 129 149 130
3 136 135 155
3 128 146 147
3 128 147 148
3 128 148 129
3 137 136 155
3 127 146 128
3 127 145 146
3 138 137 155
3 126 144 145
3 126 145 127
3 125 144 126
3 184 141 140
3 185 141 184
3 185 116 141
3 183 140 139
3 183 184 140
3 169 117 116
3 169 116 185
3 182 139 138
3 182 183 139
3 181 138 155
3 181 182 138
3 180 155 156
3 180 181 155
3 168 118 117
3 168 119 118
3 168 120 119
3 168 121 120
3 168 122 121
3 168 123 122
3 168 117 169
3 179 156 114
3 179 180 156
3 172 179 114
3 173 172 114
3 174 173 114
3 170 123 168
3 115 174 114
3 115 124 123
3 115 123 170
3 115 170 171
3 115 175 174
3 115 176 175
3 115 177 176
3 115 178 177
3 115 171 178
3 115 113 124
3 124 113 125
3 125 113 144
3 188 189 190
3 191 188 190
3 187 186 188
3 187 188 191
3 208 199 198
3 207 213 206
3 214 194 193
3 215 193 192
3 215 214 193
3 216 192 200
3 216 215 192
3 217 195 194
3 217 194 214
3 217 214 215
3 218 200 201
3 218 216 200
3 219 215 216
3 219 217 215
3 220 196 195
3 220 197 196
3 220 195 217
3 221 201 202
3 221 218 201
3 222 219 216
3 222 216 218
3 223 217 219
3 223 220 217
3 224 202 203
3 224 218 221
3 224 221 202
3 224 222 218
3 225 219 222
3 225 223 219
3 226 198 197
3 226 209 208
3 226 197 220
3 226 220 223
3 226 208 198
3 227 222 224
3 227 225 222
3 228 210 209
3 228 211 210
3 228 209 226
3 228 223 225
3 228 226 223
3 229 203 204
3 229 204 205
3 229 224 203
3 229 227 224
3 230 212 211
3 230 211 228
3 230 225 227
3 230 228 225
3 231 205 206
3 231 213 212
3 231 212 230
3 231 206 213
3 231 229 205
3 231 227 229
3 231 230 227
3 232 242 241
3 233 243 242
3 233 242 232
3 234 244 243
3 234 243 233
3 235 245 244
3 235 244 234
3 236 246 245
3 236 245 235
3 237 247 246
3 237 246 236
3 238 247 237
3 239 248 247
3 239 247 238
3 240 248 239
3 251 249 248
3 251 248 240
3 252 249 251
3 250 249 252
3 254 255 253
3 254 256 255
3 263 264 271
3 257 258 278
3 279 267 266
3 280 266 265
3 280 279 266
3 281 265 272
3 281 280 265
3 282 268 267
3 282 279 280
3 282 267 279
3 283 272 273
3 283 281 272
3 284 280 281
3 284 282 280
3 285 269 268
3 285 270 269
3 285 268 282
3 286 273 274
3 286 283 273
3 287 284 281
3 287 281 283
3 288 282 284
3 288 285 282
3 289 274 275
3 289 287 283
3 289 286 274
3 289 283 286
3 290 284 287
3 290 288 284
3 291 262 263
3 291 271 270
3 291 270 285
3 291 285 288
3 291 263 271
3 292 287 289
3 292 290 287
3 293 261 262
3 293 262 291
3 293 288 290
3 293 291 288
3 294 275 276
3 294 276 277
3 294 289 275
3 294 292 289
3 295 259 260
3 295 260 261
3 295 261 293
3 295 290 292
3 295 293 290
3 296 258 259
3 296 277 278
3 296 278 258
3 296 259 295
3 296 294 277
3 296 292 294
3 296 295 292
3 299 297 298
3 299 300 297
3 301 303 302
3 307 303 301
3 308 303 307
3 309 303 308
3 310 303 309
3 343 342 305
3 344 343 305
3 363 306 342
3 345 344 305
3 364 306 363
3 346 345 305
3 365 306 364
3 347 346 305
3 366 306 365
3 348 347 305
3 367 306 366
3 362 306 367
3 349 348 305
3 350 349 305
3 351 350 305
3 352 351 305
3 361 306 362
3 374 361 360
3 375 374 360
3 373 361 374
3 376 359 358
3 376 360 359
3 376 375 360
3 372 361 373
3 371 361 372
3 370 361 371
3 370 306 361
3 377 376 358
3 377 352 305
3 377 353 352
3 377 354 353
3 377 355 354
3 377 356 355
3 377 357 356
3 377 358 357
3 369 306 370
3 368 306 369
3 380 306 368
3 378 377 305
3 339 384 385
3 338 384 339
3 338 383 384
3 340 339 385
3 340 385 379
3 337 383 338
3 337 382 383
3 341 340 379
3 336 381 382
3 336 382 337
3 314 379 378
3 314 341 379
3 335 380 381
3 335 306 380
3 335 381 336
3 334 306 335
3 334 313 306
3 333 312 313
3 333 313 334
3 332 312 333
3 332 310 311
3 332 311 312
3 331 303 310
3 331 310 332
3 315 314 378
3 316 315 378
3 317 316 378
3 318 317 378
3 319 318 378
3 304 303 331
3 304 320 319
3 304 321 320
3 304 322 321
3 304 323 322
3 304 324 323
3 304 325 324
3 304 326 325
3 304 327 326
3 304 328 327
3 304 329 328
3 304 330 329
3 304 331 330
3 304 319 378
3 304 378 305
3 305 342 306
3 394 395 396
3 394 396 402
3 393 394 402
3 392 402 401
3 392 393 402
3 391 401 400
3 391 392 401
3 390 400 399
3 390 391 400
3 389 399 398
3 389 390 399
3 388 398 397
3 388 389 398
3 387 397 386
3 387 388 397
3 432 404 403
3 432 405 404
3 433 406 405
3 433 407 406
3 433 405 432
3 434 407 433
3 435 408 407
3 435 409 408
3 435 407 434
3 436 409 435
3 437 410 409
3 437 411 410
3 437 409 436
3 438 411 437
3 439 412 411
3 439 413 412
3 439 411 438
3 440 413 439
3 441 414 413
3 441 413 440
3 442 415 414
3 442 414 441
3 443 415 442
3 443 416 415
3 443 417 416
3 444 417 443
3 445 418 417
3 445 417 444
3 446 419 418
3 446 418 445
3 446 420 419
3 447 421 420
3 447 420 446
3 448 421 447
3 449 422 421
3 449 421 448
3 450 423 422
3 450 422 449
3 451 424 423
3 451 425 424
3 451 423 450
3 452 425 451
3 453 426 425
3 453 425 452
3 454 427 426
3 454 428 427
3 454 426 453
3 455 429 428
3 455 428 454
3 456 429 455
3 431 430 429
3 431 429 456
3 458 459 457
3 458 460 459
3 466 468 467
3 466 472 468
3 465 470 471
3 465 471 472
3 465 472 466
3 464 470 465
3 463 461 469
3 463 469 470
3 463 470 464
3 462 461 463
3 479 484 480
3 478 483 484
3 478 484 479
3 477 483 478
3 476 482 483
3 476 483 477
3 475 473 481
3 475 481 482
3 475 482 476
3 474 473 475
3 485 488 487
3 486 488 485
3 490 491 489
3 490 492 491
3 499 504 500
3 498 504 499
3 497 503 504
3 497 504 498
3 496 502 503
3 496 503 497
3 495 501 502
3 495 502 496
3 494 493 501
3 494 501 495
3 506 507 505
3 506 508 507
3 510 511 509
3 510 512 511
3 521 514 513
3 521 513 520
3 522 515 514
3 522 514 521
3 523 516 515
3 523 515 522
3 524 517 516
3 524 518 517
3 524 516 523
3 519 518 524
3 525 528 527
3 526 528 525
3 530 531 529
3 530 532 531
3 541 548 542
3 540 548 541
3 539 547 548
3 539 548 540
3 538 546 547
3 538 547 539
3 537 545 546
3 537 546 538
3 536 544 545
3 536 545 537
3 535 543 544
3 535 544 536
3 534 533 543
3 534 543 535
3 550 551 549
3 550 552 551
3 554 555 553
3 554 556 555
3 558 559 557
3 558 560 559
3 571 562 561
3 571 561 570
3 572 563 562
3 572 562 571
3 573 564 563
3 573 565 564
3 573 563 572
3 574 565 573
3 575 566 565
3 575 565 574
3 576 567 566
3 576 566 575
3 569 568 567
3 569 567 576
3 588 586 585
3 589 585 584
3 589 588 585
3 590 584 583
3 590 589 584
3 591 582 581
3 591 583 582
3 591 590 583
3 592 581 580
3 592 591 581
3 593 580 579
3 593 592 580
3 594 579 578
3 594 593 579
3 595 578 577
3 595 594 578
3 587 595 577
3 604 605 606
3 604 606 613
3 603 613 612
3 603 604 613
3 602 612 611
3 602 603 612
3 601 611 610
3 601 602 611
3 600 601 610
3 599 610 609
3 599 600 610
3 598 609 608
3 598 599 609
3 597 608 607
3 597 598 608
3 596 597 607
3 617 615 614
3 617 616 615
3 634 619 618
3 634 620 619
3 635 621 620
3 635 620 634
3 636 622 621
3 636 623 622
3 636 621 635
3 637 623 636
3 638 624 623
3 638 623 637
3 639 625 624
3 639 624 638
3 640 626 625
3 640 625 639
3 641 627 626
3 641 626 640
3 642 628 627
3 642 627 641
3 643 629 628
3 643 628 642
3 644 630 629
3 644 629 643
3 645 631 630
3 645 630 644
3 633 632 631
3 633 631 645
3 649 647 646
3 649 648 647
3 650 652 651
3 666 653 652
3 666 652 650
3 667 654 653
3 667 653 666
3 668 655 654
3 668 654 667
3 669 655 668
3 670 656 655
3 670 657 656
3 670 655 669
3 671 657 670
3 672 658 657
3 672 659 658
3 672 657 671
3 673 659 672
3 674 660 659
3 674 659 673
3 675 661 660
3 675 660 674
3 676 662 661
3 676 661 675
3 677 663 662
3 677 662 676
3 665 664 663
3 665 663 677
3 727 694 695
3 726 695 696
3 726 727 695
3 728 693 694
3 728 694 727
3 725 696 697
3 725 726 696
3 729 692 693
3 729 693 728
3 724 697 698
3 724 725 697
3 704 691 692
3 704 692 729
3 723 724 698
3 699 723 698
3 705 690 691
3 705 691 704
3 722 723 699
3 706 689 690
3 706 690 705
3 700 722 699
3 721 722 700
3 707 688 689
3 707 689 706
3 701 720 721
3 701 721 700
3 708 688 707
3 687 688 708
3 702 720 701
3 702 719 720
3 686 687 708
3 686 708 709
3 710 686 709
3 703 719 702
3 703 718 719
3 685 686 710
3 685 710 711
3 678 718 703
3 678 717 718
3 684 685 711
3 679 716 717
3 679 717 678
3 683 711 712
3 683 684 711
3 680 716 679
3 680 715 716
3 682 712 713
3 682 713 714
3 682 683 712
3 681 714 715
3 681 682 714
3 681 715 680
3 755 752 753
3 755 753 754
3 757 744 745
3 757 745 746
3 757 746 747
3 757 747 748
3 757 748 749
3 757 749 750
3 757 750 751
3 757 751 752
3 757 755 756
3 757 752 755
3 740 741 742
3 730 743 744
3 730 744 757
3 734 735 736
3 733 730 731
3 733 731 732
3 733 736 737
3 733 737 738
3 733 738 739
3 733 739 740
3 733 742 743
3 733 743 730
3 733 740 742
3 733 734 736
3 783 784 785
3 783 785 811
3 782 810 809
3 782 811 810
3 782 783 811
3 781 782 809
3 780 808 807
3 780 809 808
3 780 781 809
3 779 780 807
3 778 807 806
3 778 779 807
3 777 806 805
3 777 778 806
3 776 805 804
3 776 777 805
3 775 803 802
3 775 804 803
3 775 776 804
3 774 775 802
3 773 774 802
3 773 802 801
3 772 773 801
3 772 801 800
3 771 772 800
3 771 800 799
3 770 771 799
3 770 798 797
3 770 799 798
3 769 770 797
3 768 769 797
3 768 796 795
3 768 797 796
3 767 768 795
3 767 795 794
3 766 767 794
3 765 794 793
3 765 766 794
3 764 793 792
3 764 765 793
3 763 792 791
3 763 764 792
3 762 791 790
3 762 763 791
3 761 790 789
3 761 762 790
3 760 788 787
3 760 789 788
3 760 761 789
3 759 760 787
3 758 787 786
3 758 759 787
3 836 835 834
3 832 834 833
3 831 834 832
3 830 834 831
3 814 813 812
3 816 815 814
3 827 829 828
3 827 830 829
3 827 837 836
3 827 812 837
3 827 836 834
3 827 834 830
3 818 817 816
3 825 827 826
3 825 812 827
3 823 825 824
3 823 814 812
3 823 812 825
3 821 819 818
3 821 820 819
3 821 816 814
3 821 818 816
3 821 814 823
3 822 821 823
