ply
format ascii 1.0
comment generated by blendit.inference.finetune_visualize
element vertex 1071
property float x
property float y
property float z
property uchar red
property uchar green
property uchar blue
element face 1562
property list uchar int vertex_indices
end_header
0 1.38149201 76.341024 218 222 230
0 67.5727528 76.341024 218 222 230
0 3.23379347 0 218 222 230
-6.39021708e-17 2.91952985 17.1369005 218 222 230
7.90328034e-18 2.25103219 39.9861011 218 222 230
6.3296665e-17 1.72196541 58.1635626 218 222 230
0 85.5954647 0 218 222 230
0 85.5954647 30.4465175 218 222 230
0 68.0179438 30.4465175 218 222 230
0 67.5727528 30.8917085 218 222 230
0 67.5839147 30.7926442 218 222 230
0 67.6168406 30.6985473 218 222 230
0 67.6698795 30.6141364 218 222 230
0 67.7403718 30.5436441 218 222 230
0 67.8247827 30.4906053 218 222 230
0 67.9188795 30.4576794 218 222 230
0 18.1908395 65.4681614 218 222 230
0 11.3438443 65.4681614 218 222 230
0 18.1908395 62.2426635 218 222 230
0 11.2762983 62.2426635 218 222 230
0 11.0098847 62.5090772 218 222 230
0 11.0165642 62.4497946 218 222 230
0 11.0362679 62.3934847 218 222 230
0 11.0680078 62.342971 218 222 230
0 11.1101921 62.3007866 218 222 230
0 11.1607058 62.2690468 218 222 230
0 11.2170157 62.2493431 218 222 230
0 11.0098847 65.1342018 218 222 230
0 11.2623338 65.4580615 218 222 230
0 11.1884553 65.4298085 218 222 230
0 11.1273341 65.3884701 218 222 230
0 11.0763883 65.3341927 218 222 230
0 11.0392095 65.2710472 218 222 230
0 11.0172788 65.2040876 218 222 230
0 11.0116699 65.1686866 218 222 230
0 1.38149201 76.341024 218 222 230
0 67.5727528 76.341024 218 222 230
0.0417774454 1.04431989 76.341024 218 222 230
0.158649245 0.738704524 76.341024 218 222 230
0.329656915 0.485856408 76.341024 218 222 230
0.462873249 0.34966849 76.341024 218 222 230
0.646951112 0.211462158 76.341024 218 222 230
0.847503512 0.107374099 76.341024 218 222 230
1.05549585 0.0390142047 76.341024 218 222 230
1.22070397 0.00938873389 76.341024 218 222 230
1.38149201 0 76.341024 218 222 230
12.6166682 0 76.341024 218 222 230
12.4613031 19.639668 76.341024 218 222 230
13.7650865 19.639668 76.341024 218 222 230
82.135447 19.639668 76.341024 218 222 230
82.135447 40.8724809 76.341024 218 222 230
55.0289784 40.8724809 76.341024 218 222 230
53.4549901 42.4352887 76.341024 218 222 230
53.4983923 42.070836 76.341024 218 222 230
53.6197398 41.739232 76.341024 218 222 230
53.7979836 41.4614178 76.341024 218 222 230
53.9445603 41.3025913 76.341024 218 222 230
54.1400228 41.1456108 76.341024 218 222 230
54.3548392 41.0230896 76.341024 218 222 230
54.5800548 40.9373996 76.341024 218 222 230
54.8068874 40.888118 76.341024 218 222 230
54.9191236 40.8762923 76.341024 218 222 230
53.4549901 85.5954647 76.341024 218 222 230
42.4132757 85.5954647 76.341024 218 222 230
40.1330014 84.61671 76.341024 218 222 230
40.6863395 85.0790334 76.341024 218 222 230
41.315049 85.3975268 76.341024 218 222 230
41.8706801 85.5483147 76.341024 218 222 230
40.5102379 68.0372511 76.341024 218 222 230
40.5082095 68.0174097 76.341024 218 222 230
40.5023241 67.9989006 76.341024 218 222 230
40.4935197 67.9816746 76.341024 218 222 230
40.4784781 67.9605652 76.341024 218 222 230
40.4339262 67.9177683 76.341024 218 222 230
40.3705678 67.8748559 76.341024 218 222 230
40.1920794 67.7915033 76.341024 218 222 230
39.6727368 67.6525237 76.341024 218 222 230
38.8037139 67.5727528 76.341024 218 222 230
0 3.23379347 0 218 222 230
0.0923483846 2.46649766 0 218 222 230
0.350533898 1.76947301 0 218 222 230
0.729177279 1.18823292 0 218 222 230
1.03431694 0.863197904 0 218 222 230
1.44667137 0.538684047 0 218 222 230
1.89846081 0.288575856 0 218 222 230
2.37031164 0.117414271 0 218 222 230
2.80793691 0.0281630285 0 218 222 230
3.23379347 0 0 218 222 230
2.91952985 -6.39021708e-17 17.1369005 218 222 230
2.25103219 7.90328034e-18 39.9861011 218 222 230
1.72196541 6.3296665e-17 58.1635626 218 222 230
1.38149201 0 76.341024 218 222 230
0 1.38149201 76.341024 218 222 230
0.0417774454 1.04431989 76.341024 218 222 230
0.158649245 0.738704524 76.341024 218 222 230
0.329656915 0.485856408 76.341024 218 222 230
0.462873249 0.34966849 76.341024 218 222 230
0.646951112 0.211462158 76.341024 218 222 230
0.847503512 0.107374099 76.341024 218 222 230
1.05549585 0.0390142047 76.341024 218 222 230
1.22070397 0.00938873389 76.341024 218 222 230
-6.39021708e-17 2.91952985 17.1369005 218 222 230
7.90328034e-18 2.25103219 39.9861011 218 222 230
6.3296665e-17 1.72196541 58.1635626 218 222 230
0.0797909918 2.40799584 8.56845024 218 222 230
0.220011909 1.99949856 5.71230016 218 222 230
0.0862214797 1.01321832 67.2522933 218 222 230
1.11264268 0.054988362 67.2522933 218 222 230
0.108052914 0.911553248 70.2818702 218 222 230
0.181805329 0.756994621 70.2818702 218 222 230
0.86826206 0.126497158 70.2818702 218 222 230
1.71378601 0.370841041 1.90410005 218 222 230
1.42956015 0.539973454 1.90410005 218 222 230
1.99745966 0.238494238 1.90410005 218 222 230
1.01358841 0.863284225 2.85615008 218 222 230
0.830530205 1.04912859 2.85615008 218 222 230
1.15149786 0.748031349 1.90410005 218 222 230
1.21092683 0.693167118 2.85615008 218 222 230
1.40421809 0.551270911 2.85615008 218 222 230
1.60615805 0.425071196 2.85615008 218 222 230
1.36251654 0.559840063 5.71230016 218 222 230
2.01281301 0.214797955 5.71230016 218 222 230
0.303408122 1.7543318 9.52050026 218 222 230
0.166639176 2.10371446 8.56845024 218 222 230
0.239227454 1.91200156 8.56845024 218 222 230
0.47101169 1.44316373 9.99652528 218 222 230
0.920693119 0.866861376 11.4246003 218 222 230
0.387192158 1.58505646 9.99652528 218 222 230
2.34708803 0.0905306905 9.52050026 218 222 230
0.163863556 2.04760831 12.3766503 218 222 230
0.21642794 1.87154471 14.2807504 218 222 230
1.90478213 0.203269407 14.2807504 218 222 230
0.0820872431 2.05218108 24.7533007 218 222 230
0.194380588 1.7494253 22.8492006 218 222 230
0.483286428 1.19342159 23.4839007 218 222 230
0.234159847 1.58292057 26.0227007 218 222 230
0.317774662 1.27109865 32.3697009 218 222 230
0.762454777 0.762454777 28.5615008 218 222 230
1.49334289 0.220908711 31.1003009 218 222 230
1.38710509 0.346776273 24.7533007 218 222 230
1.88055296 0.0752221185 32.3697009 218 222 230
2.13229216 0.0852916864 20.9451006 218 222 230
0.0716567875 1.79141969 36.177901 218 222 230
1.53484916 0.170538796 34.273801 218 222 230
1.06232293 0.430196888 33.6391009 218 222 230
0.203743228 1.37730422 37.447301 218 222 230
1.29341 0.19133284 42.0058191 218 222 230
1.42243915 0.158048795 39.9861011 218 222 230
1.05477442 0.263693604 46.0452549 218 222 230
0.177828455 1.20212035 47.0551139 218 222 230
0.148179121 1.33361209 44.5304665 218 222 230
0.368082807 0.908939178 45.035396 218 222 230
0.240895605 0.963582422 52.1044087 218 222 230
0.578066159 0.578066159 49.0748318 218 222 230
1.13173637 0.167416623 51.0945498 218 222 230
1.42559178 0.057023671 52.1044087 218 222 230
1.16475905 0.129417672 53.6191972 218 222 230
0.805816452 0.326322365 53.1142677 218 222 230
0.155161354 1.04889076 56.1438446 218 222 230
0.920581917 0.230145479 55.1339857 218 222 230
0.769909168 0.311781399 56.1438446 218 222 230
0.504351991 0.504351991 58.1635626 218 222 230
0.120902117 1.08811905 58.1635626 218 222 230
0.218741002 0.844954288 60.1832805 218 222 230
0.121364713 1.02687538 61.1931395 218 222 230
0.863393756 0.20840266 60.1832805 218 222 230
1.08811905 0.120902117 58.1635626 218 222 230
1.0552678 0.110124124 61.1931395 218 222 230
0.108553491 1.02163243 63.2128574 218 222 230
0.484283916 0.441120486 64.2227164 218 222 230
1.07489802 0.0889517515 63.2128574 218 222 230
0.478597495 0.422576843 66.2424343 218 222 230
0.12266192 0.919760899 67.2522933 218 222 230
0.998199062 0.0916017049 67.2522933 218 222 230
0.476003998 0.413792452 67.2522933 218 222 230
0.362364384 0.521447423 68.2621523 218 222 230
0.523565189 0.355632748 68.7670818 218 222 230
0.205614253 2.09350839 0.634700018 218 222 230
0.432853904 1.61258516 0.634700018 218 222 230
0.279899137 1.90958776 0.952050026 218 222 230
0.477177809 1.53563156 0.952050026 218 222 230
0.199350444 2.10284947 1.42807504 218 222 230
0.431986709 1.60601058 1.58675004 218 222 230
0.206303475 2.06941362 2.85615008 218 222 230
0.372051175 1.67053061 5.71230016 218 222 230
0.799198611 1.05792453 5.71230016 218 222 230
0.57621837 1.32825682 6.66435019 218 222 230
1.07792519 0.772922802 6.66435019 218 222 230
0.693760662 1.16715718 7.1403752 218 222 230
0.945596111 0.890308322 7.1403752 218 222 230
1.37817176 0.531187535 7.93375022 218 222 230
0.895742494 0.912267361 9.67917527 218 222 230
0.778845844 1.04249219 9.20315026 218 222 230
1.15125646 0.683634674 9.52050026 218 222 230
1.0907085 0.738630242 9.04447525 218 222 230
1.2910303 0.575168721 9.75851277 218 222 230
1.16206646 0.66682868 10.3138753 218 222 230
1.59084826 0.380076757 10.4725503 218 222 230
0.466171389 1.42292268 11.9006253 218 222 230
0.86425361 0.907221886 12.6940004 218 222 230
0.836645256 0.927341663 13.3287004 218 222 230
0.586132894 1.22033319 13.6460504 218 222 230
0.888396488 0.862035107 14.2807504 218 222 230
0.741980456 1.01046631 14.7567754 218 222 230
0.610578649 1.16826872 14.9154504 218 222 230
0.384790445 1.50484364 15.2328004 218 222 230
1.08823924 0.677831631 14.5981004 218 222 230
1.52595874 0.372952021 15.2328004 218 222 230
0.0903818143 2.2191957 16.1848505 218 222 230
0.204985151 1.84486636 17.1369005 218 222 230
0.877397942 0.859954452 15.2328004 218 222 230
0.145756393 1.99071822 17.9831672 218 222 230
0.120200399 2.06303133 18.4063005 218 222 230
2.23022409 0.0876063823 16.1848505 218 222 230
1.84486636 0.204985151 17.1369005 218 222 230
0.0868160204 2.17040051 19.0410005 218 222 230
0.360313394 1.44125357 20.9451006 218 222 230
0.185993334 1.85002837 19.2525672 218 222 230
0.501518574 1.23844383 19.6757005 218 222 230
0.772062817 0.895410131 20.0988339 218 222 230
1.02999748 0.659198384 19.6757005 218 222 230
0.925567041 0.740966413 20.3104006 218 222 230
1.30035183 0.449948732 20.5219672 218 222 230
1.68720199 0.249586093 19.6757005 218 222 230
1.11916191 0.571000976 20.9451006 218 222 230
0.732030699 0.91440513 21.5798006 218 222 230
0.959549108 0.68701445 21.8971506 218 222 230
0.784385546 0.844701416 22.4260673 218 222 230
1.2087559 0.489496191 22.2145006 218 222 230
1.2684595 0.438913323 23.0607673 218 222 230
0.527146283 1.1152847 24.3301673 218 222 230
0.549548238 1.07711455 24.7533007 218 222 230
0.429376566 1.24089828 25.176434 218 222 230
0.70408884 0.879501977 25.3880007 218 222 230
0.723841475 0.839484788 26.4458341 218 222 230
0.799700255 0.689537464 30.6771675 218 222 230
0.817748124 0.654651545 31.7350009 218 222 230
1.14819077 0.397297843 31.9465676 218 222 230
0.987033247 0.503588391 32.3697009 218 222 230
1.0121625 0.478404932 32.7928342 218 222 230
0.386941744 1.11826164 34.0622343 218 222 230
0.42328816 1.0452626 34.908501 218 222 230
0.733978731 0.68156901 34.6969343 218 222 230
0.589813325 0.823788859 35.225851 218 222 230
0.779384705 0.623939556 35.543201 218 222 230
1.21085191 0.302712977 36.177901 218 222 230
0.479719623 0.940250461 36.177901 218 222 230
0.374408108 1.08203943 36.6010344 218 222 230
0.613618778 0.76649266 36.812601 218 222 230
0.737974737 0.636314952 37.0241677 218 222 230
1.01097197 0.409401871 37.447301 218 222 230
0.538119754 0.840812116 37.447301 218 222 230
1.74654469 0.0698617877 38.0820011 218 222 230
1.63658352 0.0953538556 38.7167011 218 222 230
0.0923983711 1.58585776 40.9959601 218 222 230
0.384464423 0.949391739 42.0058191 218 222 230
0.27553867 1.10215468 43.015678 218 222 230
0.158048795 1.42243915 39.9861011 218 222 230
0.5913607 0.685838445 42.3424387 218 222 230
0.789596649 0.505341855 42.0058191 218 222 230
0.708644069 0.567307856 42.5107485 218 222 230
0.582892334 0.676017144 43.3522977 218 222 230
0.772711487 0.494535352 43.5206075 218 222 230
0.535033138 0.668328591 46.5501844 218 222 230
0.61979658 0.496180641 51.5994793 218 222 230
0.870294624 0.301140008 51.7677891 218 222 230
0.748240813 0.381755517 52.1044087 218 222 230
0.767420589 0.362726138 52.4410284 218 222 230
0.466890177 0.583208837 55.6389151 218 222 230
1.24890025 0.0727658888 57.1537036 218 222 230
0.416746376 0.559730026 60.68821 218 222 230
0.608303707 0.373282389 60.8565198 218 222 230
0.49385312 0.471334416 61.1931395 218 222 230
0.334387212 0.642063865 61.8663788 218 222 230
0.477236866 0.474064599 62.2029984 218 222 230
0.661423925 0.312206489 62.5396181 218 222 230
0.49019689 0.448123716 63.2128574 218 222 230
0.488203217 0.445763621 63.5494771 218 222 230
0.699047622 1.15212148 7.88085855 218 222 230
0.701641413 1.14458208 8.25110023 218 222 230
0.823513617 1.00109183 8.51555857 218 222 230
0.592462384 1.2794631 8.80646274 218 222 230
1.69396707 0.334928822 9.28248776 218 222 230
0.381833777 1.5017106 15.7088254 218 222 230
0.520497327 1.27181343 16.1848505 218 222 230
0.375907737 1.49516665 16.6608755 218 222 230
0.855110496 0.855110496 17.1369005 218 222 230
1.51748636 0.372988926 15.7088254 218 222 230
1.28181772 0.51362625 16.1848505 218 222 230
0.403665952 1.42671694 17.7716005 218 222 230
1.50038408 0.372982532 16.6608755 218 222 230
0.584520457 1.1456601 18.4063005 218 222 230
0.359511416 1.47864731 19.1115228 218 222 230
0.468001943 1.3000054 19.0410005 218 222 230
0.527415503 1.20515441 19.4641339 218 222 230
1.04612836 0.376606209 38.0820011 218 222 230
0.35924954 0.997915389 41.5008896 218 222 230
0.310632549 1.75826996 8.2246544 218 222 230
1.15206642 0.587788989 17.7716005 218 222 230
1.32579885 0.458753926 18.4063005 218 222 230
1.08713913 0.621499524 19.0410005 218 222 230
0.55298343 0.816844873 37.7646511 218 222 230
0.393770446 1.01109093 38.5051344 218 222 230
0.510072825 0.843181608 39.0340511 218 222 230
0.659312065 0.659312065 39.9861011 218 222 230
0.823495077 0.498163688 40.7434953 218 222 230
2.02481264 0.137615769 17.5600338 218 222 230
2.11469821 0.109230279 17.7716005 218 222 230
1.97003735 0.149624636 18.4063005 218 222 230
0.092342067 1.63265439 39.2456178 218 222 230
1.02405053 0.37972424 38.8753761 218 222 230
0.369403391 0.99621699 40.8697277 218 222 230
0 67.5727528 30.8917085 218 222 230
0 67.5727528 76.341024 218 222 230
38.8037139 67.5727528 76.341024 218 222 230
38.7460424 67.5727528 30.8917085 218 222 230
62.6778503 85.5954647 0 218 222 230
62.6778503 42.2641391 0 218 222 230
0 85.5954647 0 218 222 230
0 3.23379347 0 218 222 230
0.0923483846 2.46649766 0 218 222 230
0.350533898 1.76947301 0 218 222 230
0.729177279 1.18823292 0 218 222 230
1.03431694 0.863197904 0 218 222 230
1.44667137 0.538684047 0 218 222 230
1.89846081 0.288575856 0 218 222 230
2.37031164 0.117414271 0 218 222 230
2.80793691 0.0281630285 0 218 222 230
3.23379347 0 0 218 222 230
82.135447 0 0 218 222 230
82.135447 40.8724809 0 218 222 230
64.0794675 40.8724809 0 218 222 230
62.7202415 41.9244802 0 218 222 230
62.8388286 41.6166085 0 218 222 230
63.0123413 41.361896 0 218 222 230
63.1475049 41.2247065 0 218 222 230
63.3342684 41.085486 0 218 222 230
63.5377398 40.9806366 0 218 222 230
63.7487521 40.9117785 0 218 222 230
63.916354 40.8819377 0 218 222 230
38.7460424 67.5727528 30.8917085 255 79 163
0 67.5727528 30.8917085 255 79 163
0 67.5839147 30.7926442 255 79 163
0 67.6168406 30.6985473 255 79 163
0 67.6698795 30.6141364 255 79 163
0 67.7403718 30.5436441 255 79 163
0 67.8247827 30.4906053 255 79 163
0 67.9188795 30.4576794 255 79 163
0 68.0179438 30.4465175 255 79 163
39.2619878 68.0179438 30.4465175 255 79 163
38.913538 67.6003964 30.7372767 255 79 163
39.0457787 67.6675317 30.6171063 255 79 163
39.1254215 67.736478 30.5467853 255 79 163
39.189443 67.8197704 30.4930579 255 79 163
39.2308887 67.9021729 30.461834 255 79 163
39.250013 67.9600573 30.4502969 255 79 163
42.4132757 85.5954647 76.341024 218 222 230
53.4549901 85.5954647 76.341024 218 222 230
62.6778503 85.5954647 0 218 222 230
0 85.5954647 0 218 222 230
0 85.5954647 30.4465175 218 222 230
39.2676398 85.5954647 30.4465175 218 222 230
41.1436547 85.5954647 30.4465175 218 222 230
42.1845624 85.5954647 64.705769 218 222 230
41.5935762 85.5954647 47.5761432 218 222 230
41.2965614 85.5954647 38.1426312 218 222 230
39.2676398 83.7194499 30.4465175 218 222 230
39.2676398 68.0945356 30.4465175 218 222 230
39.2619878 68.0179438 30.4465175 218 222 230
0 68.0179438 30.4465175 218 222 230
0 85.5954647 30.4465175 218 222 230
39.2676398 85.5954647 30.4465175 218 222 230
41.1436547 85.5954647 30.4465175 218 222 230
40.7436286 85.5523194 30.4465175 218 222 230
40.3375892 85.4134658 30.4465175 218 222 230
39.9600427 85.1749547 30.4465175 218 222 230
39.7711061 84.998333 30.4465175 218 222 230
39.5637553 84.7310573 30.4465175 218 222 230
39.4102376 84.4368737 30.4465175 218 222 230
39.3133933 84.1312449 30.4465175 218 222 230
39.2786725 83.9226079 30.4465175 218 222 230
0 18.1908395 65.4681614 218 222 230
0 11.3438443 65.4681614 218 222 230
13.2304373 11.8050915 65.4681614 218 222 230
13.2304373 18.1908395 65.4681614 218 222 230
13.2304373 11.8050915 65.4681614 218 222 230
13.3246633 11.6006717 65.4411199 218 222 230
13.4131676 11.408 65.3608255 218 222 230
13.4988214 11.2420257 65.232311 218 222 230
13.5842692 11.115186 65.0649361 218 222 230
13.6721098 11.0363317 64.8713512 218 222 230
13.7650865 11.0098847 64.6662591 218 222 230
6.88254325 11.0098847 64.8910551 218 222 230
0 11.0098847 65.1342018 218 222 230
0 11.3438443 65.4681614 218 222 230
0 11.2623338 65.4580615 218 222 230
0 11.1884553 65.4298085 218 222 230
0 11.1273341 65.3884701 218 222 230
0 11.0763883 65.3341927 218 222 230
0 11.0392095 65.2710472 218 222 230
0 11.0172788 65.2040876 218 222 230
0 11.0116699 65.1686866 218 222 230
10.1036033 11.1505324 65.1813997 218 222 230
10.0564903 11.2177523 65.2602938 218 222 230
11.1458813 11.3305544 65.3347746 218 222 230
10.1478554 11.0985895 65.0995574 218 222 230
10.1906823 11.0596432 65.0155706 218 222 230
6.70432686 11.3006927 65.3954594 218 222 230
3.44127163 11.0969889 65.2974274 218 222 230
3.44127163 11.1359169 65.3421293 218 222 230
3.44127163 11.0677371 65.2533624 218 222 230
2.29418108 11.1790258 65.3996636 218 222 230
2.29418108 11.1266175 65.3564955 218 222 230
12.4554839 11.0922515 65.0362574 218 222 230
6.79343506 11.0830955 65.1753183 218 222 230
13.0035282 11.4627755 65.3920457 218 222 230
12.8429606 11.3965562 65.3579868 218 222 230
13.2304373 18.1908395 65.4681614 218 222 230
0 18.1908395 65.4681614 218 222 230
13.5590427 18.1908395 65.5810663 218 222 230
13.4587788 18.1908395 65.5193751 218 222 230
13.3474445 18.1908395 65.4811219 218 222 230
13.6525725 18.1908395 62.2426635 218 222 230
0 18.1908395 62.2426635 218 222 230
13.7650865 11.0098847 64.6662591 218 222 230
13.7650865 11.0098847 62.5090772 218 222 230
6.88254325 11.0098847 64.8910551 218 222 230
0 11.0098847 65.1342018 218 222 230
0 11.0098847 62.5090772 218 222 230
13.7650865 11.2762983 62.2426635 218 222 230
13.7650865 18.1908395 62.2426635 218 222 230
0 11.2762983 62.2426635 218 222 230
0 18.1908395 62.2426635 218 222 230
13.6525725 18.1908395 62.2426635 218 222 230
13.6800328 18.1942419 62.2426635 218 222 230
13.7049233 18.2037603 62.2426635 218 222 230
13.7255164 18.217688 62.2426635 218 222 230
13.7426812 18.2359754 62.2426635 218 222 230
13.7552073 18.2572504 62.2426635 218 222 230
13.7625956 18.2798096 62.2426635 218 222 230
13.7644851 18.2917361 62.2426635 218 222 230
13.7650865 18.3033535 62.2426635 218 222 230
13.7650865 11.0098847 62.5090772 218 222 230
0 11.0098847 62.5090772 218 222 230
0 11.0165642 62.4497946 218 222 230
0 11.0362679 62.3934847 218 222 230
0 11.0680078 62.342971 218 222 230
0 11.1101921 62.3007866 218 222 230
0 11.1607058 62.2690468 218 222 230
0 11.2170157 62.2493431 218 222 230
0 11.2762983 62.2426635 218 222 230
13.7650865 11.2762983 62.2426635 218 222 230
13.7650865 11.0165642 62.4497946 218 222 230
13.7650865 11.0362679 62.3934847 218 222 230
13.7650865 11.0680078 62.342971 218 222 230
13.7650865 11.1101921 62.3007866 218 222 230
13.7650865 11.1607058 62.2690468 218 222 230
13.7650865 11.2170157 62.2493431 218 222 230
82.135447 0 0 218 222 230
82.135447 0 56.0235049 218 222 230
3.23379347 0 0 218 222 230
2.91952985 -6.39021708e-17 17.1369005 218 222 230
2.25103219 7.90328034e-18 39.9861011 218 222 230
1.72196541 6.3296665e-17 58.1635626 218 222 230
1.38149201 0 76.341024 218 222 230
12.6166682 0 76.341024 218 222 230
12.8970019 0 76.3062832 218 222 230
13.1510499 0 76.2091198 218 222 230
13.3612105 0 76.0669749 218 222 230
13.4744161 0 75.9562372 218 222 230
13.5892904 0 75.8032371 218 222 230
13.6758147 0 75.6365351 218 222 230
13.7326472 0 75.4636323 218 222 230
13.7572792 0 75.3262886 218 222 230
13.7650865 0 75.1926057 218 222 230
13.7650865 0 56.5182438 218 222 230
81.640708 0 56.5182438 218 222 230
82.1230429 0 56.1335946 218 222 230
82.0864524 0 56.238164 218 222 230
82.0275105 0 56.3319695 218 222 230
81.9491727 0 56.4103073 218 222 230
81.8553672 0 56.4692492 218 222 230
81.7507978 0 56.5058397 218 222 230
38.8037139 67.5727528 76.341024 255 79 163
38.8037139 67.5727528 76.341024 255 79 163
40.5102379 68.0372511 76.341024 255 79 163
40.5082095 68.0174097 76.341024 255 79 163
40.5023241 67.9989006 76.341024 255 79 163
40.4935197 67.9816746 76.341024 255 79 163
40.4784781 67.9605652 76.341024 255 79 163
40.4339262 67.9177683 76.341024 255 79 163
40.3705678 67.8748559 76.341024 255 79 163
40.1920794 67.7915033 76.341024 255 79 163
39.6727368 67.6525237 76.341024 255 79 163
40.2290089 68.0372511 76.3087773 255 79 163
39.9623309 68.0372511 76.21371 255 79 163
39.7241102 68.0372511 76.0607394 255 79 163
39.5266884 68.0372511 75.8578183 255 79 163
39.3803217 68.0372511 75.6154846 255 79 163
39.2961373 68.0372511 75.3629989 255 79 163
39.2676398 68.0372511 75.098426 255 79 163
39.2192531 67.8306827 75.4739664 255 79 163
39.0921784 67.6734534 75.8054164 255 79 163
38.9521477 67.5971725 76.0705735 255 79 163
40.1947005 67.9465238 76.3095608 255 79 163
39.9445272 67.9543657 76.2211213 255 79 163
39.7208467 67.9628058 76.08272 255 79 163
39.5341566 67.9714732 75.9007772 255 79 163
39.3924756 67.9797767 75.6825675 255 79 163
39.3015913 67.9873527 75.4372905 255 79 163
39.7997449 67.7665397 76.279852 255 79 163
39.3866558 67.7280996 76.1174964 255 79 163
39.2629867 67.6653244 76.167868 255 79 163
39.1570704 67.6264871 76.2087625 255 79 163
39.5349855 67.6808244 76.2781101 255 79 163
39.4456602 67.6542847 76.285915 255 79 163
39.3733038 67.6359794 76.2923902 255 79 163
39.6074127 67.6655921 76.3235824 255 79 163
39.5548395 67.6533313 76.324733 255 79 163
39.5127708 67.6442349 76.325679 255 79 163
12.4613031 19.639668 76.341024 218 222 230
12.7795815 19.639668 76.3015784 218 222 230
13.067996 19.639668 76.1912661 218 222 230
13.3065762 19.639668 76.029896 218 222 230
13.4350946 19.639668 75.9041786 218 222 230
13.5655034 19.639668 75.7304887 218 222 230
13.663732 19.639668 75.5412406 218 222 230
13.7282556 19.639668 75.3449458 218 222 230
13.7562219 19.639668 75.1890181 218 222 230
13.7650865 19.639668 75.0372407 218 222 230
13.7650865 0 75.1926057 218 222 230
12.6166682 0 76.341024 218 222 230
12.8970019 0 76.3062832 218 222 230
13.1510499 0 76.2091198 218 222 230
13.3612105 0 76.0669749 218 222 230
13.4744161 0 75.9562372 218 222 230
13.5892904 0 75.8032371 218 222 230
13.6758147 0 75.6365351 218 222 230
13.7326472 0 75.4636323 218 222 230
13.7572792 0 75.3262886 218 222 230
39.2676398 82.4581374 75.4370694 255 79 163
39.3673029 83.2390137 75.8613122 255 79 163
39.6041374 83.8665619 76.1544804 255 79 163
39.8532139 84.2779658 76.2930508 255 79 163
40.1330014 84.61671 76.341024 255 79 163
39.2676398 68.0372511 75.098426 255 79 163
40.5102379 68.0372511 76.341024 255 79 163
40.2290089 68.0372511 76.3087773 255 79 163
39.9623309 68.0372511 76.21371 255 79 163
39.7241102 68.0372511 76.0607394 255 79 163
39.5266884 68.0372511 75.8578183 255 79 163
39.3803217 68.0372511 75.6154846 255 79 163
39.2961373 68.0372511 75.3629989 255 79 163
39.7028713 83.9278618 76.2219208 255 79 163
39.9276681 78.6309916 76.2828176 255 79 163
39.8020127 75.6381324 76.1947902 255 79 163
39.494746 77.9114674 75.966207 255 79 163
39.4940298 75.2476942 75.918423 255 79 163
39.5858453 75.2476942 76.0228186 255 79 163
39.4212938 75.2476942 75.8116093 255 79 163
39.3644598 75.2476942 75.7029335 255 79 163
39.3214191 75.2476942 75.5921848 255 79 163
39.7720525 72.8442132 76.1434645 255 79 163
39.6246322 72.8442132 76.0247844 255 79 163
39.4310541 80.5445645 75.9258523 255 79 163
39.4074602 81.4427142 75.9043615 255 79 163
39.4506843 79.6668654 75.9390285 255 79 163
39.3574616 70.4407321 75.5947712 255 79 163
39.7415373 83.0297121 76.2367393 255 79 163
39.8106967 70.4407321 76.1442097 255 79 163
39.828415 69.2389916 76.1455771 255 79 163
39.7029844 69.2389916 76.0528574 255 79 163
39.9570681 68.8384114 76.2155102 255 79 163
39.7849334 68.8384114 76.1130341 255 79 163
39.3804853 82.9089544 75.8811285 255 79 163
39.3874326 82.7439247 75.8910055 255 79 163
39.3938349 82.3101879 75.8955191 255 79 163
39.3738634 68.6381214 75.6078613 255 79 163
39.467511 68.4378313 75.7781981 255 79 163
13.7650865 19.639668 75.0372407 218 222 230
13.7650865 19.639668 56.5182438 218 222 230
12.4613031 19.639668 76.341024 218 222 230
12.7795815 19.639668 76.3015784 218 222 230
13.067996 19.639668 76.1912661 218 222 230
13.3065762 19.639668 76.029896 218 222 230
13.4350946 19.639668 75.9041786 218 222 230
13.5655034 19.639668 75.7304887 218 222 230
13.663732 19.639668 75.5412406 218 222 230
13.7282556 19.639668 75.3449458 218 222 230
13.7562219 19.639668 75.1890181 218 222 230
13.7650865 19.639668 76.341024 218 222 230
82.135447 19.639668 76.341024 218 222 230
82.135447 19.639668 56.5182438 218 222 230
82.135447 19.639668 56.0235049 218 222 230
82.1230429 19.639668 56.1335946 218 222 230
82.0864524 19.639668 56.238164 218 222 230
82.0275105 19.639668 56.3319695 218 222 230
81.9491727 19.639668 56.4103073 218 222 230
81.8553672 19.639668 56.4692492 218 222 230
81.7507978 19.639668 56.5058397 218 222 230
81.640708 19.639668 56.5182438 218 222 230
39.2676398 82.4581374 75.4370694 255 79 163
39.3673029 83.2390137 75.8613122 255 79 163
39.6041374 83.8665619 76.1544804 255 79 163
39.8532139 84.2779658 76.2930508 255 79 163
40.1330014 84.61671 76.341024 255 79 163
39.2676398 82.7120177 63.5752516 255 79 163
39.2676398 83.2893567 47.0108845 255 79 163
39.2676398 83.5721238 37.929073 255 79 163
39.2676398 83.7194499 30.4465175 255 79 163
41.1436547 85.5954647 30.4465175 255 79 163
40.7436286 85.5523194 30.4465175 255 79 163
40.3375892 85.4134658 30.4465175 255 79 163
39.9600427 85.1749547 30.4465175 255 79 163
39.7711061 84.998333 30.4465175 255 79 163
39.5637553 84.7310573 30.4465175 255 79 163
39.4102376 84.4368737 30.4465175 255 79 163
39.3133933 84.1312449 30.4465175 255 79 163
39.2786725 83.9226079 30.4465175 255 79 163
42.4132757 85.5954647 76.341024 255 79 163
42.1845624 85.5954647 64.705769 255 79 163
41.5935762 85.5954647 47.5761432 255 79 163
41.2965614 85.5954647 38.1426312 255 79 163
40.6863395 85.0790334 76.341024 255 79 163
41.315049 85.3975268 76.341024 255 79 163
41.8706801 85.5483147 76.341024 255 79 163
40.0633234 84.5414173 76.2477522 255 79 163
40.0534278 84.5313587 76.0397058 255 79 163
39.8443224 84.2665588 76.1011681 255 79 163
39.757212 84.136486 76.1189389 255 79 163
39.7979697 84.2004702 75.8890467 255 79 163
39.6171027 83.8937821 75.8890467 255 79 163
39.5162015 83.6785746 75.8798019 255 79 163
40.5821967 85.4921116 34.2945743 255 79 163
40.4965637 85.4683794 33.0118887 255 79 163
39.3400323 84.1830264 34.1877953 255 79 163
39.5331671 84.6543172 32.9407027 255 79 163
39.4411011 84.4779373 32.9407027 255 79 163
39.4411336 84.459686 34.1877953 255 79 163
39.39185 84.3408937 34.1877953 255 79 163
40.6377449 85.0470558 76.1903649 255 79 163
41.5869585 85.4881799 74.9477785 255 79 163
41.4446387 85.4485728 74.2511557 255 79 163
41.1700963 85.3468684 74.2511557 255 79 163
39.3503474 83.1717697 75.6630581 255 79 163
41.7239431 85.5330753 71.0693602 255 79 163
40.5119401 84.9825809 72.1612875 255 79 163
39.36088 83.2644613 71.6715497 255 79 163
39.485437 83.6352897 72.7542443 255 79 163
39.7386918 84.1390647 72.556592 255 79 163
39.5363854 83.7787448 71.1381729 255 79 163
39.6512169 84.0611565 67.90603 255 79 163
41.369315 85.4536552 68.4335282 255 79 163
41.1569707 85.385539 67.3885941 255 79 163
40.56671 85.069395 67.5610727 255 79 163
41.1056586 85.3912404 64.4231396 255 79 163
40.5439865 85.078597 65.5841031 255 79 163
40.1171384 84.7459661 64.1405103 255 79 163
39.3567271 83.3682837 65.7406408 255 79 163
39.5239392 83.8628811 65.207264 255 79 163
40.9521418 85.346278 62.4884446 255 79 163
41.4021909 85.5100827 61.6624118 255 79 163
39.4706888 83.768024 63.8578809 255 79 163
39.3494534 83.5501253 58.1480057 255 79 163
39.4610506 83.8547677 59.5754745 255 79 163
39.5015873 84.0139795 57.2905696 255 79 163
39.5884251 84.3123235 52.7207598 255 79 163
40.0334446 84.82966 55.5756974 255 79 163
40.7777913 85.3720695 53.9236318 255 79 163
40.6584576 85.2477603 58.6190546 255 79 163
41.176372 85.5191154 53.0975989 255 79 163
40.8281912 85.4220701 51.5759203 255 79 163
40.3451098 85.1591339 51.9575335 255 79 163
39.3404418 83.7754148 49.8658222 255 79 163
39.4754594 84.1906041 49.0083861 255 79 163
40.6175577 85.3957727 46.3709589 255 79 163
40.7342694 85.4325059 47.4348286 255 79 163
39.9459811 84.9171235 47.2935139 255 79 163
40.3977944 85.3129261 44.2432196 255 79 163
39.4299026 84.1351001 47.1521992 255 79 163
39.6677587 84.6074161 46.1825394 255 79 163
39.4242232 84.1862145 44.7938212 255 79 163
39.6583871 84.6305583 44.6102874 255 79 163
39.5561174 84.4415544 45.6270521 255 79 163
39.4590136 84.3017781 43.5383907 255 79 163
39.5372004 84.5172225 41.0275296 255 79 163
39.8996824 84.9634221 42.5767579 255 79 163
40.5261514 85.4092944 41.6542029 255 79 163
40.5886313 85.4486879 40.3596945 255 79 163
40.1774416 85.2270326 40.5823062 255 79 163
40.3244325 85.3312665 39.5850804 255 79 163
40.5488407 85.4531091 38.0892416 255 79 163
40.1587168 85.2346153 39.0686709 255 79 163
39.8610775 85.002027 38.0358521 255 79 163
39.4470492 84.3826574 38.9974849 255 79 163
40.3120054 85.3501537 37.2281857 255 79 163
40.5591438 85.467146 36.8243525 255 79 163
39.8915145 85.0667347 35.5060739 255 79 163
40.5664086 85.4759145 35.9810931 255 79 163
39.4097996 84.3160271 37.9824626 255 79 163
39.5346901 84.5911822 37.1569997 255 79 163
39.4198849 84.366489 36.7175735 255 79 163
39.3895298 84.3050881 35.8743141 255 79 163
39.9020834 85.0866817 34.6628145 255 79 163
39.9074697 85.0963591 34.2411848 255 79 163
40.1464338 85.2876182 33.4157219 255 79 163
39.9832773 85.167637 33.6176385 255 79 163
39.7659409 84.9599778 33.8076908 255 79 163
39.949217 85.1457428 32.9762957 255 79 163
40.7221419 85.1046622 75.7259498 255 79 163
40.7647384 85.1322943 75.4937422 255 79 163
40.8979256 85.2113492 75.0795467 255 79 163
40.1806355 84.6738651 74.9288876 255 79 163
39.5881116 83.8476528 74.4958012 255 79 163
40.2466748 84.7420283 74.3734785 255 79 163
40.2339834 84.7325562 74.0251671 255 79 163
39.9830478 84.4617678 74.1820451 255 79 163
39.5739838 83.8255637 73.7991784 255 79 163
40.3627993 84.8534861 73.4038739 255 79 163
39.343709 83.149316 74.9664353 255 79 163
40.051036 84.5467999 73.5356421 255 79 163
40.4120231 84.8977877 72.9896784 255 79 163
40.765772 85.1612746 71.1006889 255 79 163
39.9418167 84.4365415 71.6497302 255 79 163
40.8961681 85.2390036 70.5703897 255 79 163
40.9116539 85.2514526 70.0400904 255 79 163
40.1616165 84.701488 70.0714192 255 79 163
40.9415451 85.2757233 68.9794919 255 79 163
40.1894515 84.7427208 68.985647 255 79 163
40.2031405 84.7631247 68.4427609 255 79 163
40.3198705 84.8724696 68.1488649 255 79 163
40.2758272 84.8462173 67.2576674 255 79 163
40.7809039 85.2171487 66.3058995 255 79 163
40.1412455 84.721859 67.1059647 255 79 163
41.4898879 85.5065748 65.5058342 255 79 163
41.1659732 85.404615 65.5319239 255 79 163
41.3607108 85.4735141 65.144936 255 79 163
39.7895923 84.3065617 66.6508568 255 79 163
41.2751069 85.448482 64.9043372 255 79 163
40.068659 84.6664721 65.8768811 255 79 163
39.8656214 84.4234209 66.0232701 255 79 163
39.7848897 84.3181743 65.6623719 255 79 163
39.9457963 84.5358451 65.3956835 255 79 163
39.6877052 84.1700352 65.5106693 255 79 163
40.6433464 85.1900524 62.0874873 255 79 163
40.2938483 84.9386913 62.3000251 255 79 163
40.4958337 85.0980969 61.8870086 255 79 163
39.4120479 83.6231611 63.1815793 255 79 163
40.3843644 85.0257073 61.3797824 255 79 163
40.15647 84.8290754 61.6237235 255 79 163
39.7662651 84.3641656 62.1116055 255 79 163
39.6259931 84.1620517 61.0971531 255 79 163
39.386739 83.5513345 62.8434285 255 79 163
39.4521527 83.7601622 62.2613367 255 79 163
39.3536711 83.4446829 62.3362023 255 79 163
40.4756401 85.1062745 60.4595398 255 79 163
40.1466902 84.837508 60.6720776 255 79 163
39.7497165 84.4050304 59.2566679 255 79 163
40.5366622 85.1563566 59.8460448 255 79 163
39.794226 84.4813651 58.6745761 255 79 163
39.8170108 84.5186977 58.3835301 255 79 163
39.9723725 84.7151585 57.9548121 255 79 163
39.696796 84.3552035 58.01921 255 79 163
39.9929395 84.7542887 57.1617739 255 79 163
40.0739497 84.9002281 54.073363 255 79 163
40.4294856 85.1934419 53.2473302 255 79 163
40.0938625 84.9340289 53.3221958 255 79 163
40.2667442 85.0857176 52.9091794 255 79 163
40.2928471 85.1108941 52.5919641 255 79 163
39.6596493 84.4625572 51.5147051 255 79 163
39.9291681 84.8282485 50.6572691 255 79 163
40.503056 85.2866107 50.1484515 255 79 163
39.6972943 84.5344811 50.9116778 255 79 163
41.0604429 85.5237526 48.8622974 255 79 163
40.8013199 85.4412756 48.9738001 255 79 163
40.3017684 85.1766853 49.1968056 255 79 163
39.7560584 84.6381644 50.0071368 255 79 163
39.9201384 84.8387208 49.7370264 255 79 163
40.9499642 85.4974458 48.3864744 255 79 163
39.6885303 84.556123 49.5313139 255 79 163
39.8173054 84.7366123 49.1025959 255 79 163
39.6090462 84.4369527 49.3570046 255 79 163
40.0905591 85.0687964 46.2767491 255 79 163
40.0083851 85.0024581 45.9990055 255 79 163
39.8848816 84.8796103 46.0601835 255 79 163
40.1335275 85.118821 45.4137436 255 79 163
39.3630388 83.9581075 46.596712 255 79 163
39.9222274 84.9408771 44.9351359 255 79 163
39.8421536 84.8778195 43.8908052 255 79 163
39.9590103 85.0419853 41.3408662 255 79 163
39.9201853 85.0328107 39.7216238 255 79 163
39.9157251 85.0366565 39.2170787 255 79 163
39.8055426 84.9235516 39.2912826 255 79 163
40.0078674 84.5205559 71.2961973 255 79 163
40.0418419 84.5616233 71.1194309 255 79 163
40.0811143 84.6091944 70.7700937 255 79 163
39.8668383 84.4790828 63.2073716 255 79 163
39.7575083 84.3376212 62.7408022 255 79 163
40.362462 84.9851479 62.8479081 255 79 163
82.135447 0 0 218 222 230
82.135447 0 56.0235049 218 222 230
82.135447 40.8724809 0 218 222 230
82.135447 40.8724809 76.341024 218 222 230
82.135447 19.639668 76.341024 218 222 230
82.135447 19.639668 56.5182438 218 222 230
82.135447 19.639668 56.0235049 218 222 230
62.6778503 85.5954647 0 218 222 230
62.6778503 42.2641391 0 218 222 230
53.4549901 42.4352887 76.341024 218 222 230
53.4549901 85.5954647 76.341024 218 222 230
55.0289784 40.8724809 76.341024 218 222 230
82.135447 40.8724809 76.341024 218 222 230
82.135447 40.8724809 0 218 222 230
64.0794675 40.8724809 0 218 222 230
62.6778503 42.2641391 0 255 79 163
62.7202415 41.9244802 0 255 79 163
62.8388286 41.6166085 0 255 79 163
63.0123413 41.361896 0 255 79 163
63.1475049 41.2247065 0 255 79 163
63.3342684 41.085486 0 255 79 163
63.5377398 40.9806366 0 255 79 163
63.7487521 40.9117785 0 255 79 163
63.916354 40.8819377 0 255 79 163
64.0794675 40.8724809 0 255 79 163
55.0289784 40.8724809 76.341024 255 79 163
53.4549901 42.4352887 76.341024 255 79 163
53.4983923 42.070836 76.341024 255 79 163
53.6197398 41.739232 76.341024 255 79 163
53.7979836 41.4614178 76.341024 255 79 163
53.9445603 41.3025913 76.341024 255 79 163
54.1400228 41.1456108 76.341024 255 79 163
54.3548392 41.0230896 76.341024 255 79 163
54.5800548 40.9373996 76.341024 255 79 163
54.8068874 40.888118 76.341024 255 79 163
54.9191236 40.8762923 76.341024 255 79 163
58.6598353 41.1714597 38.1445648 255 79 163
58.5072113 41.3050735 38.1286868 255 79 163
59.8627164 41.497789 25.4132243 255 79 163
58.8108352 41.0710522 38.155644 255 79 163
58.9545487 40.9981429 38.162525 255 79 163
60.0219184 41.3040351 25.425975 255 79 163
59.0456296 40.9616338 38.165364 255 79 163
60.1927482 41.1555315 25.4348502 255 79 163
60.3370509 41.0617065 25.4398531 255 79 163
56.7286784 41.6454771 50.8547208 255 79 163
53.5377939 41.938906 76.3303089 255 79 163
53.5744895 41.8423992 76.3258881 255 79 163
53.6258871 41.7319937 76.3202905 255 79 163
53.6865657 41.6245167 76.314645 255 79 163
53.7562021 41.5210961 76.3094536 255 79 163
53.8342937 41.4228261 76.3051859 255 79 163
53.8765687 41.3756657 76.3035135 255 79 163
53.9207166 41.3301902 76.3022113 255 79 163
61.4272094 41.4364522 12.7076718 255 79 163
61.8935722 41.4946266 8.4712766 255 79 163
57.8349271 41.2259325 44.5037328 255 79 163
56.8776501 41.0285456 55.1135101 255 79 163
55.7899888 41.0695938 63.5871396 255 79 163
55.7367559 41.1006099 63.5873443 255 79 163
55.4961771 40.9711779 67.8380087 255 79 163
55.1275772 41.168909 67.8251703 255 79 163
53.5478538 41.9164095 76.3114119 255 79 163
54.3400876 41.0314212 76.3187527 255 79 163
54.3959293 41.0056342 76.3187193 255 79 163
62.8537769 41.069135 4.22945443 255 79 163
62.7755439 41.1188878 4.2301271 255 79 163
63.1493223 41.0026938 2.81930047 255 79 163
62.9344032 41.0249507 4.22934202 255 79 163
63.2604301 40.9569885 2.81940549 255 79 163
62.7132343 41.0090036 6.34899088 255 79 163
61.9201392 41.0251892 12.7124867 255 79 163
62.4144015 41.1349006 7.05332522 255 79 163
55.18536 41.6788169 63.5796907 255 79 163
54.6238586 41.4976245 69.2331486 255 79 163
54.4132145 41.6938168 69.9421169 255 79 163
54.1299312 41.7486483 72.063604 255 79 163
53.9337199 41.8040818 73.4792759 255 79 163
62.7038122 41.6640122 0.922209823 255 79 163
62.8251094 41.4578813 0.93038123 255 79 163
62.7166376 41.5385746 1.38585661 255 79 163
62.8266088 41.3830351 1.39658171 255 79 163
62.5738359 41.6409055 2.09659619 255 79 163
62.7156874 41.3812722 2.3314598 255 79 163
62.3446627 41.5912398 4.22119746 255 79 163
54.742073 41.2754524 69.942231 255 79 163
54.8163921 41.0478611 72.0725868 255 79 163
54.4781975 41.0946967 74.190081 255 79 163
54.0678395 41.3530514 74.8906705 255 79 163
54.2488268 41.2870784 73.9473617 255 79 163
54.0901148 41.3305378 74.8899718 255 79 163
54.1651231 41.2597336 74.8990638 255 79 163
54.2631365 41.1812548 74.8972029 255 79 163
54.3145016 41.1449145 74.8966287 255 79 163
54.3670595 41.110767 74.8963425 255 79 163
54.1632115 41.214778 75.3649965 255 79 163
54.234535 41.1608046 75.3713734 255 79 163
54.3616806 41.0795687 75.3776195 255 79 163
54.4711782 41.022777 75.3771935 255 79 163
54.5459525 40.9899449 75.3772834 255 79 163
63.2452831 41.1071713 0.460159109 255 79 163
63.5838132 40.9428827 0.462668414 255 79 163
63.3365627 41.0362089 0.694072276 255 79 163
63.4183352 40.9962495 0.694098349 255 79 163
63.3654644 40.9823026 1.40250558 255 79 163
54.310171 41.3662855 72.7680925 255 79 163
53.6489939 41.8741069 75.6022656 255 79 163
38.7460424 67.5727528 30.8917085 255 79 163
38.913538 67.6003964 30.7372767 255 79 163
39.0457787 67.6675317 30.6171063 255 79 163
39.1254215 67.736478 30.5467853 255 79 163
39.189443 67.8197704 30.4930579 255 79 163
39.2308887 67.9021729 30.461834 255 79 163
39.250013 67.9600573 30.4502969 255 79 163
39.2619878 68.0179438 30.4465175 255 79 163
38.8037139 67.5727528 76.341024 255 79 163
39.2676398 68.0372511 75.098426 255 79 163
39.2192531 67.8306827 75.4739664 255 79 163
39.0921784 67.6734534 75.8054164 255 79 163
38.9521477 67.5971725 76.0705735 255 79 163
39.2676398 68.0945356 30.4465175 255 79 163
39.1617489 67.7527435 60.4880339 255 79 163
39.0264493 67.6420035 53.1828378 255 79 163
39.1230882 67.7173045 52.9950672 255 79 163
39.203021 67.8312281 45.478884 255 79 163
39.1148395 67.7255532 30.669113 255 79 163
39.175043 67.7977523 30.5918971 255 79 163
39.0041212 67.6386325 38.1852962 255 79 163
39.2012835 67.8381783 34.3159069 255 79 163
39.0015927 67.6392646 32.6038077 255 79 163
39.2010497 67.8391132 31.5251626 255 79 163
39.0011995 67.6393629 31.2084355 255 79 163
39.2676398 83.7194499 30.4465175 218 222 230
39.2676398 68.0945356 30.4465175 218 222 230
39.2676398 82.4581374 75.4370694 218 222 230
39.2676398 82.7120177 63.5752516 218 222 230
39.2676398 83.2893567 47.0108845 218 222 230
39.2676398 83.5721238 37.929073 218 222 230
39.2676398 68.0372511 75.098426 218 222 230
13.7650865 18.3998505 66.0028106 218 222 230
13.7437977 18.3074672 65.8534424 218 222 230
13.693801 18.2418529 65.7360826 218 222 230
13.6361182 18.2060593 65.6545682 218 222 230
13.5971488 18.1944576 65.6137445 218 222 230
13.5590427 18.1908395 65.5810663 218 222 230
13.7650865 11.8050915 66.0028106 218 222 230
13.7503147 11.8050915 65.8779999 218 222 230
13.706813 11.8050915 65.7600847 218 222 230
13.6369874 11.8050915 65.6555835 218 222 230
13.5446967 11.8050915 65.5702708 218 222 230
13.4350386 11.8050915 65.5088591 218 222 230
13.3347415 11.8050915 65.478434 218 222 230
13.2304373 11.8050915 65.4681614 218 222 230
13.2304373 18.1908395 65.4681614 218 222 230
13.4587788 18.1908395 65.5193751 218 222 230
13.3474445 18.1908395 65.4811219 218 222 230
13.7650865 11.0098847 64.6662591 218 222 230
13.7650865 11.0098847 64.6662591 218 222 230
13.7650865 11.8050915 66.0028106 218 222 230
13.7650865 11.7217208 65.993213 218 222 230
13.7650865 11.6420554 65.9666199 218 222 230
13.7650865 11.5680029 65.9268854 218 222 230
13.7650865 11.4786599 65.8592706 218 222 230
13.7650865 11.3632321 65.7372084 218 222 230
13.7650865 11.2561396 65.5813487 218 222 230
13.7650865 11.1451762 65.3549654 218 222 230
13.7650865 11.059621 65.0845553 218 222 230
13.7650865 11.0226771 64.8768411 218 222 230
13.7503147 11.8050915 65.8779999 218 222 230
13.706813 11.8050915 65.7600847 218 222 230
13.6369874 11.8050915 65.6555835 218 222 230
13.5446967 11.8050915 65.5702708 218 222 230
13.4350386 11.8050915 65.5088591 218 222 230
13.3347415 11.8050915 65.478434 218 222 230
13.2304373 11.8050915 65.4681614 218 222 230
13.3246633 11.6006717 65.4411199 218 222 230
13.4131676 11.408 65.3608255 218 222 230
13.4988214 11.2420257 65.232311 218 222 230
13.5842692 11.115186 65.0649361 218 222 230
13.6721098 11.0363317 64.8713512 218 222 230
13.7472057 11.6125301 65.8216995 218 222 230
13.6990925 11.6207347 65.7041109 218 222 230
13.6263477 11.6288051 65.6040967 218 222 230
13.7484749 11.4491418 65.7150931 218 222 230
13.5326683 11.6366707 65.5267335 218 222 230
13.706213 11.4605139 65.6171458 218 222 230
13.4221418 11.6442611 65.4752135 218 222 230
13.6446415 11.4718939 65.5341538 218 222 230
13.5660766 11.4828611 65.4701215 218 222 230
13.4724679 11.4929949 65.4272248 218 222 230
13.7530753 11.2068179 65.4130878 218 222 230
13.7238921 11.2143238 65.3543908 218 222 230
13.6827466 11.2224187 65.3046031 218 222 230
13.6306856 11.2301908 65.2668098 218 222 230
13.5681374 11.2367283 65.2427634 218 222 230
13.663252 11.0681675 64.9734405 218 222 230
13.6956888 11.0666022 64.9835931 218 222 230
13.7570036 11.0999433 65.1794032 218 222 230
13.7591302 11.0606056 65.0524048 218 222 230
13.7482581 11.1015182 65.1601738 218 222 230
13.7228884 11.0644897 65.0012095 218 222 230
13.7442699 11.0623256 65.0248348 218 222 230
13.755777 11.0391778 64.9470569 218 222 230
13.7606689 11.0387811 64.9576689 218 222 230
13.7401321 11.0286922 64.8635145 218 222 230
13.7636861 11.0486627 65.0190801 218 222 230
13.7640956 11.0298904 64.9190487 218 222 230
13.7629375 11.0299962 64.9143922 218 222 230
13.7582986 11.0253192 64.8698884 218 222 230
13.7645707 11.026128 64.8962535 218 222 230
13.6525725 18.1908395 62.2426635 255 79 163
13.6800328 18.1942419 62.2426635 255 79 163
13.7049233 18.2037603 62.2426635 255 79 163
13.7255164 18.217688 62.2426635 255 79 163
13.7426812 18.2359754 62.2426635 255 79 163
13.7552073 18.2572504 62.2426635 255 79 163
13.7625956 18.2798096 62.2426635 255 79 163
13.7644851 18.2917361 62.2426635 255 79 163
13.7650865 18.3033535 62.2426635 255 79 163
13.7650865 18.3998505 66.0028106 255 79 163
13.7437977 18.3074672 65.8534424 255 79 163
13.693801 18.2418529 65.7360826 255 79 163
13.6361182 18.2060593 65.6545682 255 79 163
13.5971488 18.1944576 65.6137445 255 79 163
13.5590427 18.1908395 65.5810663 255 79 163
13.7051764 18.2507496 65.4681614 255 79 163
13.7650865 19.639668 75.0372407 218 222 230
13.7650865 19.639668 56.5182438 218 222 230
13.7650865 0 56.5182438 218 222 230
13.7650865 0 75.1926057 218 222 230
13.7650865 11.2762983 62.2426635 218 222 230
13.7650865 18.1908395 62.2426635 218 222 230
13.7650865 18.3033535 62.2426635 218 222 230
13.7650865 18.3998505 66.0028106 218 222 230
13.7650865 11.8050915 66.0028106 218 222 230
13.7650865 11.7217208 65.993213 218 222 230
13.7650865 11.6420554 65.9666199 218 222 230
13.7650865 11.5680029 65.9268854 218 222 230
13.7650865 11.4786599 65.8592706 218 222 230
13.7650865 11.3632321 65.7372084 218 222 230
13.7650865 11.2561396 65.5813487 218 222 230
13.7650865 11.1451762 65.3549654 218 222 230
13.7650865 11.059621 65.0845553 218 222 230
13.7650865 11.0226771 64.8768411 218 222 230
13.7650865 11.0098847 64.6662591 218 222 230
13.7650865 11.0098847 62.5090772 218 222 230
13.7650865 11.0165642 62.4497946 218 222 230
13.7650865 11.0362679 62.3934847 218 222 230
13.7650865 11.0680078 62.342971 218 222 230
13.7650865 11.1101921 62.3007866 218 222 230
13.7650865 11.1607058 62.2690468 218 222 230
13.7650865 11.2170157 62.2493431 218 222 230
82.135447 0 56.0235049 218 222 230
82.135447 19.639668 56.0235049 218 222 230
82.1230429 19.639668 56.1335946 218 222 230
82.0864524 19.639668 56.238164 218 222 230
82.0275105 19.639668 56.3319695 218 222 230
81.9491727 19.639668 56.4103073 218 222 230
81.8553672 19.639668 56.4692492 218 222 230
81.7507978 19.639668 56.5058397 218 222 230
81.640708 19.639668 56.5182438 218 222 230
81.640708 0 56.5182438 218 222 230
82.1230429 0 56.1335946 218 222 230
82.0864524 0 56.238164 218 222 230
82.0275105 0 56.3319695 218 222 230
81.9491727 0 56.4103073 218 222 230
81.8553672 0 56.4692492 218 222 230
81.7507978 0 56.5058397 218 222 230
13.7650865 0 56.5182438 218 222 230
81.640708 0 56.5182438 218 222 230
81.640708 19.639668 56.5182438 218 222 230
13.7650865 19.639668 56.5182438 218 222 230
3 8 7 6
3 15 8 6
3 14 15 6
3 13 14 6
3 2 12 13
3 2 13 6
3 3 9 10
3 3 10 11
3 3 11 12
3 3 12 2
3 4 9 3
3 18 1 9
3 18 9 4
3 16 1 18
3 19 18 4
3 5 20 21
3 5 21 22
3 5 22 23
3 5 23 24
3 5 24 25
3 5 25 26
3 5 26 19
3 5 27 20
3 5 33 34
3 5 34 27
3 5 19 4
3 0 33 5
3 0 16 17
3 0 17 28
3 0 28 29
3 0 29 30
3 0 30 31
3 0 31 32
3 0 32 33
3 0 1 16
3 41 39 40
3 38 39 41
3 42 38 41
3 37 38 42
3 43 37 42
3 35 37 43
3 45 43 44
3 45 35 43
3 46 35 45
3 47 35 46
3 36 47 48
3 36 35 47
3 55 48 56
3 57 56 48
3 54 48 55
3 58 57 48
3 59 58 48
3 53 48 54
3 52 48 53
3 49 61 60
3 49 51 61
3 77 36 48
3 77 48 52
3 76 77 52
3 75 76 52
3 74 75 52
3 73 74 52
3 72 73 52
3 71 72 52
3 70 71 52
3 69 70 52
3 50 51 49
3 67 65 64
3 67 66 65
3 63 67 64
3 63 64 68
3 62 69 52
3 62 63 68
3 62 68 69
3 48 49 60
3 48 60 59
3 104 101 78
3 104 78 105
3 106 92 103
3 107 90 91
3 108 93 92
3 108 94 93
3 108 92 106
3 109 94 108
3 109 95 94
3 109 96 95
3 110 107 91
3 110 97 96
3 110 98 97
3 110 99 98
3 110 100 99
3 110 91 100
3 110 96 109
3 111 83 84
3 111 112 83
3 113 84 85
3 113 85 86
3 113 86 87
3 113 111 84
3 114 115 116
3 117 114 116
3 117 116 112
3 118 117 112
3 119 112 111
3 119 111 113
3 119 118 112
3 120 114 117
3 120 117 118
3 120 118 119
3 121 119 113
3 121 113 87
3 121 120 119
3 122 123 124
3 122 104 123
3 125 126 127
3 125 127 122
3 128 87 88
3 128 121 87
3 129 101 104
3 129 104 122
3 129 122 127
3 130 101 129
3 131 128 88
3 132 133 134
3 132 102 101
3 135 136 132
3 135 137 136
3 138 137 139
3 140 138 139
3 140 88 89
3 140 139 141
3 140 141 88
3 142 132 136
3 142 102 132
3 143 144 140
3 145 102 142
3 146 147 89
3 146 89 148
3 149 103 102
3 149 102 150
3 149 150 151
3 149 152 103
3 149 153 152
3 154 153 148
3 155 89 90
3 155 148 89
3 155 154 148
3 156 155 90
3 156 157 155
3 158 103 152
3 159 157 156
3 160 161 158
3 162 103 158
3 162 158 161
3 163 162 161
3 163 103 162
3 164 103 163
3 165 166 90
3 165 161 166
3 165 163 161
3 167 165 90
3 168 103 164
3 168 106 103
3 168 169 106
3 170 90 107
3 170 107 169
3 170 167 90
3 171 172 106
3 171 107 173
3 171 169 107
3 171 106 169
3 174 172 171
3 174 171 173
3 175 106 172
3 175 174 173
3 175 172 174
3 175 108 106
3 176 108 175
3 176 109 108
3 176 110 109
3 176 175 173
3 176 107 110
3 176 173 107
3 177 78 79
3 177 79 80
3 178 80 81
3 178 81 82
3 178 177 80
3 179 177 178
3 180 82 83
3 180 179 178
3 180 83 112
3 180 112 116
3 180 178 82
3 181 177 179
3 181 78 177
3 182 181 179
3 182 116 115
3 182 180 116
3 182 179 180
3 183 181 182
3 183 182 115
3 183 78 181
3 183 115 184
3 183 105 78
3 183 184 105
3 185 184 115
3 185 114 120
3 185 115 114
3 186 104 105
3 186 184 185
3 186 105 184
3 187 185 120
3 187 186 185
3 187 120 121
3 188 186 187
3 189 188 187
3 190 187 121
3 190 189 187
3 190 121 128
3 191 122 192
3 191 125 122
3 193 191 192
3 193 192 194
3 195 191 193
3 196 126 125
3 196 125 191
3 196 191 195
3 197 128 131
3 197 126 196
3 197 195 128
3 197 196 195
3 198 127 126
3 198 129 127
3 199 197 131
3 199 126 197
3 199 198 126
3 199 129 198
3 200 199 131
3 200 129 199
3 201 130 129
3 201 129 200
3 202 200 131
3 202 130 201
3 202 201 200
3 203 130 202
3 204 205 130
3 204 130 203
3 206 131 207
3 206 202 131
3 206 203 202
3 208 101 130
3 208 130 205
3 208 209 101
3 210 205 204
3 210 204 203
3 210 206 207
3 210 203 206
3 211 101 209
3 212 101 211
3 213 131 88
3 213 88 214
3 213 207 131
3 215 101 212
3 215 133 132
3 215 216 133
3 215 132 101
3 217 216 215
3 217 218 216
3 219 218 220
3 219 216 218
3 221 219 220
3 221 216 219
3 222 221 220
3 222 220 223
3 222 223 141
3 224 216 221
3 224 221 222
3 224 222 141
3 225 133 216
3 225 216 224
3 226 224 141
3 226 225 224
3 227 134 133
3 227 133 225
3 227 225 226
3 228 226 141
3 228 227 226
3 229 134 227
3 229 228 141
3 229 141 139
3 229 227 228
3 230 134 229
3 230 229 139
3 230 132 134
3 231 132 230
3 231 230 139
3 232 135 132
3 232 132 231
3 233 135 232
3 233 231 139
3 233 232 231
3 234 135 233
3 234 137 135
3 234 139 137
3 234 233 139
3 235 136 137
3 235 137 138
3 236 235 138
3 236 136 235
3 237 138 140
3 237 236 138
3 238 136 236
3 238 237 140
3 238 236 237
3 239 136 238
3 239 238 140
3 239 140 144
3 240 136 239
3 240 142 136
3 240 239 144
3 241 142 240
3 242 144 143
3 242 240 144
3 242 241 240
3 243 142 241
3 243 241 242
3 244 143 245
3 244 242 143
3 244 243 242
3 246 244 245
3 246 142 243
3 246 243 244
3 247 145 142
3 247 142 246
3 248 246 245
3 248 247 246
3 249 245 250
3 249 248 245
3 251 248 249
3 251 145 247
3 251 247 248
3 251 249 250
3 252 140 89
3 252 143 140
3 252 245 143
3 252 250 245
3 253 252 89
3 253 89 147
3 254 255 256
3 254 150 102
3 254 102 257
3 254 256 150
3 258 256 255
3 258 255 259
3 260 258 259
3 260 259 146
3 260 256 258
3 261 256 260
3 261 150 256
3 262 261 260
3 262 150 261
3 262 260 146
3 262 146 148
3 262 148 151
3 262 151 150
3 263 149 151
3 263 151 148
3 263 153 149
3 263 148 153
3 264 153 154
3 264 152 153
3 265 154 155
3 265 264 154
3 266 264 265
3 266 152 264
3 266 265 155
3 267 152 266
3 267 266 155
3 267 157 152
3 267 155 157
3 268 152 157
3 268 158 152
3 268 157 159
3 268 160 158
3 268 159 160
3 269 159 156
3 269 156 90
3 269 161 160
3 269 160 159
3 269 90 166
3 269 166 161
3 270 164 163
3 270 163 165
3 271 270 165
3 271 165 167
3 272 270 271
3 272 271 167
3 272 164 270
3 273 164 272
3 273 168 164
3 274 273 272
3 274 168 273
3 274 272 167
3 275 274 167
3 275 167 170
3 276 168 274
3 276 275 170
3 276 274 275
3 277 168 276
3 277 276 170
3 277 169 168
3 277 170 169
3 278 188 189
3 278 189 190
3 279 278 190
3 280 190 194
3 280 279 190
3 281 192 122
3 281 122 124
3 281 194 192
3 281 280 194
3 281 279 280
3 282 194 190
3 282 195 193
3 282 193 194
3 282 190 128
3 282 128 195
3 283 205 210
3 283 208 205
3 284 283 210
3 284 208 283
3 285 286 209
3 285 209 208
3 285 284 286
3 285 208 284
3 287 207 213
3 287 210 207
3 288 286 284
3 288 287 213
3 288 284 210
3 288 210 287
3 289 209 286
3 289 211 209
3 290 286 288
3 290 213 214
3 290 214 286
3 290 288 213
3 291 212 211
3 291 211 289
3 292 215 212
3 292 217 215
3 293 292 212
3 293 212 291
3 294 220 218
3 294 217 292
3 294 218 217
3 294 292 293
3 295 252 253
3 295 250 252
3 296 255 254
3 296 259 255
3 297 104 186
3 297 186 188
3 297 124 123
3 297 188 278
3 297 281 124
3 297 278 279
3 297 123 104
3 297 279 281
3 298 289 286
3 298 291 289
3 298 286 214
3 299 291 298
3 300 220 294
3 300 291 299
3 300 293 291
3 300 294 293
3 300 223 220
3 301 251 250
3 301 250 295
3 301 145 251
3 302 301 295
3 302 145 301
3 303 304 257
3 305 146 259
3 305 304 147
3 305 259 296
3 305 147 146
3 306 298 214
3 306 214 88
3 307 298 306
3 307 306 88
3 307 299 298
3 308 300 299
3 308 223 300
3 308 299 307
3 308 307 88
3 308 88 141
3 308 141 223
3 309 102 145
3 309 145 302
3 309 303 257
3 309 302 303
3 309 257 102
3 310 295 253
3 310 253 147
3 310 147 304
3 310 302 295
3 310 304 303
3 310 303 302
3 311 305 296
3 311 296 254
3 311 257 304
3 311 254 257
3 311 304 305
3 313 315 312
3 314 315 313
3 324 323 322
3 321 324 322
3 325 324 321
3 320 325 321
3 328 320 319
3 328 326 325
3 328 327 326
3 328 325 320
3 334 335 328
3 336 329 328
3 336 328 335
3 333 328 319
3 333 334 328
3 337 329 336
3 332 333 319
3 338 329 337
3 339 329 338
3 317 319 318
3 317 332 319
3 331 329 339
3 330 329 331
3 316 317 318
3 348 355 349
3 347 354 355
3 347 355 348
3 346 353 354
3 346 354 347
3 345 352 353
3 345 353 346
3 344 351 352
3 344 352 345
3 343 350 351
3 343 351 344
3 342 340 350
3 342 350 343
3 341 340 342
3 361 358 359
3 361 359 360
3 362 358 361
3 365 358 362
3 357 363 356
3 357 364 363
3 357 358 364
3 364 358 365
3 371 373 372
3 371 374 373
3 371 375 374
3 371 376 375
3 371 377 376
3 371 378 377
3 371 379 378
3 371 380 379
3 371 366 380
3 369 367 366
3 369 368 367
3 370 366 371
3 370 369 366
3 383 382 381
3 383 381 384
3 402 403 404
3 402 392 403
3 405 392 402
3 405 402 404
3 406 391 392
3 406 392 405
3 406 405 404
3 407 394 385
3 407 385 404
3 407 404 403
3 408 409 407
3 410 392 393
3 410 408 407
3 411 395 394
3 411 396 395
3 411 397 396
3 411 394 407
3 411 407 409
3 412 398 397
3 412 399 398
3 412 400 399
3 412 401 400
3 412 393 401
3 412 410 393
3 412 397 411
3 412 409 408
3 412 408 410
3 412 411 409
3 413 389 390
3 413 390 391
3 413 406 404
3 413 391 406
3 414 407 403
3 414 392 410
3 414 403 392
3 414 410 407
3 415 385 386
3 415 386 387
3 415 387 388
3 416 388 389
3 416 404 385
3 416 389 413
3 416 415 388
3 416 385 415
3 416 413 404
3 417 423 422
3 417 418 423
3 421 417 422
3 420 421 422
3 419 420 422
3 426 428 427
3 425 426 424
3 425 428 426
3 433 431 429
3 433 432 431
3 430 434 433
3 430 435 434
3 430 436 435
3 430 433 429
3 437 436 430
3 438 437 430
3 439 438 430
3 440 439 430
3 441 440 430
3 449 451 450
3 449 457 451
3 448 456 457
3 448 457 449
3 447 455 456
3 447 456 448
3 446 454 455
3 446 455 447
3 445 452 453
3 445 453 454
3 445 454 446
3 444 442 452
3 444 452 445
3 443 442 444
3 475 462 461
3 475 463 462
3 458 461 460
3 458 475 461
3 474 464 463
3 474 465 464
3 474 463 475
3 472 474 473
3 472 465 474
3 466 465 472
3 471 466 472
3 467 466 471
3 470 467 471
3 468 467 470
3 469 468 470
3 476 475 458
3 459 476 458
3 482 459 477
3 482 476 459
3 481 482 477
3 480 481 477
3 479 477 478
3 479 480 477
3 494 486 485
3 494 487 486
3 494 488 487
3 504 489 488
3 504 490 489
3 504 491 490
3 504 492 491
3 504 488 494
3 505 494 495
3 505 504 494
3 506 495 496
3 506 505 495
3 507 496 497
3 507 506 496
3 508 497 498
3 508 507 497
3 509 498 499
3 509 499 500
3 509 500 501
3 509 508 498
3 509 501 508
3 510 492 504
3 510 505 506
3 510 504 505
3 511 501 502
3 511 510 506
3 511 507 508
3 511 506 507
3 511 508 501
3 512 511 502
3 513 483 484
3 513 502 503
3 513 503 483
3 513 512 502
3 514 510 511
3 514 511 512
3 515 514 512
3 516 513 484
3 516 512 513
3 516 515 512
3 517 493 492
3 517 492 510
3 517 510 514
3 517 514 515
3 518 493 517
3 518 517 515
3 519 484 493
3 519 516 484
3 519 515 516
3 519 493 518
3 519 518 515
3 532 521 520
3 532 520 531
3 533 522 521
3 533 521 532
3 534 523 522
3 534 522 533
3 535 524 523
3 535 525 524
3 535 523 534
3 536 526 525
3 536 525 535
3 537 527 526
3 537 526 536
3 538 528 527
3 538 527 537
3 539 529 528
3 539 528 538
3 530 529 539
3 553 543 542
3 554 546 544
3 555 546 554
3 555 554 556
3 557 558 555
3 559 557 555
3 560 559 555
3 561 540 545
3 561 555 556
3 561 556 540
3 561 560 555
3 562 555 558
3 562 546 555
3 563 558 557
3 563 562 558
3 563 557 559
3 563 559 560
3 563 560 561
3 564 565 540
3 566 556 554
3 566 540 556
3 566 564 540
3 566 554 564
3 567 561 545
3 567 563 561
3 568 542 541
3 568 544 543
3 568 553 542
3 568 543 553
3 568 554 544
3 568 565 564
3 568 564 554
3 569 546 562
3 569 562 563
3 569 563 567
3 570 546 569
3 571 569 567
3 571 570 569
3 572 547 546
3 572 548 547
3 572 546 570
3 573 549 548
3 573 548 572
3 573 570 571
3 573 572 570
3 574 541 540
3 574 568 541
3 575 574 540
3 575 568 574
3 576 540 565
3 576 565 568
3 576 575 540
3 576 568 575
3 577 545 552
3 577 567 545
3 577 571 567
3 577 573 571
3 578 550 549
3 578 551 550
3 578 552 551
3 578 577 552
3 578 549 573
3 578 573 577
3 592 594 593
3 592 595 594
3 592 596 595
3 597 596 592
3 598 597 592
3 599 598 592
3 600 599 592
3 591 600 592
3 579 580 600
3 579 600 591
3 590 585 586
3 590 586 587
3 590 587 588
3 590 588 589
3 590 589 579
3 590 579 591
3 584 585 590
3 583 584 590
3 582 583 590
3 581 582 590
3 626 604 605
3 627 626 605
3 628 604 626
3 628 626 627
3 629 603 604
3 629 604 628
3 630 628 627
3 630 629 628
3 631 603 629
3 631 629 630
3 632 602 603
3 632 603 631
3 633 622 610
3 634 610 611
3 634 611 612
3 634 633 610
3 635 609 608
3 636 614 615
3 637 638 636
3 637 639 638
3 637 615 616
3 637 616 617
3 637 635 639
3 637 617 618
3 637 618 609
3 637 609 635
3 637 636 615
3 640 605 623
3 640 623 624
3 640 627 605
3 641 624 625
3 641 625 619
3 642 641 619
3 643 641 642
3 644 601 602
3 644 602 632
3 645 619 620
3 645 642 619
3 645 646 642
3 647 606 601
3 647 601 648
3 647 648 649
3 650 651 647
3 652 645 620
3 653 652 620
3 654 652 653
3 655 657 656
3 658 606 647
3 658 647 651
3 659 606 658
3 660 655 620
3 661 660 620
3 662 659 657
3 662 606 659
3 663 606 664
3 663 607 606
3 665 666 663
3 665 667 666
3 668 667 669
3 670 668 669
3 670 620 621
3 670 661 620
3 670 669 661
3 671 670 621
3 672 670 671
3 673 607 663
3 673 663 666
3 674 607 673
3 675 677 676
3 675 676 621
3 675 621 678
3 679 607 674
3 679 674 677
3 680 679 677
3 681 683 682
3 684 608 607
3 684 607 681
3 684 681 682
3 684 685 608
3 684 686 685
3 687 621 622
3 687 678 621
3 687 686 678
3 688 687 622
3 689 687 688
3 690 688 622
3 690 689 688
3 691 693 692
3 691 690 622
3 691 692 690
3 694 608 685
3 695 693 691
3 696 695 691
3 696 691 622
3 696 697 695
3 698 633 697
3 698 622 633
3 698 696 622
3 698 697 696
3 699 608 694
3 699 694 693
3 700 693 695
3 700 695 697
3 700 699 693
3 701 608 699
3 701 699 700
3 701 700 697
3 702 701 697
3 702 697 638
3 702 638 639
3 702 639 635
3 702 635 608
3 702 608 701
3 703 638 697
3 703 697 633
3 704 703 633
3 704 638 703
3 705 633 634
3 706 704 633
3 706 633 705
3 707 638 704
3 707 704 706
3 707 636 638
3 708 612 613
3 708 613 614
3 708 705 634
3 708 614 636
3 708 706 705
3 708 707 706
3 708 636 707
3 708 634 612
3 709 627 640
3 709 640 624
3 710 624 641
3 710 627 709
3 710 709 624
3 711 710 641
3 711 641 643
3 712 710 711
3 712 630 627
3 712 631 630
3 712 713 631
3 712 627 710
3 714 712 711
3 714 711 643
3 715 714 643
3 716 712 714
3 716 713 712
3 716 714 715
3 716 717 713
3 718 643 642
3 718 715 643
3 719 601 644
3 719 644 632
3 719 631 713
3 719 648 601
3 719 713 717
3 719 717 648
3 719 632 631
3 720 716 715
3 720 717 716
3 720 715 718
3 720 648 717
3 720 649 648
3 721 642 646
3 721 718 642
3 721 720 718
3 721 649 720
3 721 646 649
3 722 646 645
3 723 649 646
3 723 647 649
3 723 650 647
3 724 722 645
3 725 726 724
3 725 724 645
3 725 645 652
3 725 652 727
3 728 650 726
3 728 651 650
3 728 726 725
3 728 725 727
3 729 651 728
3 729 728 727
3 730 727 652
3 730 729 727
3 730 651 729
3 730 652 654
3 731 654 653
3 731 651 730
3 731 730 654
3 731 653 732
3 733 651 731
3 733 731 732
3 734 653 620
3 734 732 653
3 735 656 732
3 735 732 734
3 736 734 620
3 736 735 734
3 737 658 651
3 737 733 732
3 737 651 733
3 738 736 620
3 738 620 655
3 738 655 656
3 738 656 735
3 738 735 736
3 739 732 656
3 739 737 732
3 740 658 737
3 740 737 739
3 741 658 740
3 741 740 739
3 742 656 657
3 742 657 659
3 742 741 739
3 742 739 656
3 743 742 659
3 743 741 742
3 743 659 658
3 743 658 741
3 744 660 661
3 745 660 744
3 746 745 744
3 746 744 661
3 747 606 662
3 748 746 661
3 749 745 746
3 749 750 745
3 749 746 748
3 749 751 750
3 752 606 747
3 753 750 751
3 754 664 606
3 754 751 664
3 754 606 752
3 754 753 751
3 754 752 753
3 755 748 661
3 756 664 751
3 756 751 749
3 756 749 748
3 756 748 755
3 756 757 664
3 758 669 757
3 758 755 661
3 758 757 756
3 758 756 755
3 758 661 669
3 759 757 669
3 759 663 664
3 759 664 757
3 760 759 669
3 760 663 759
3 761 760 669
3 762 665 663
3 762 663 760
3 762 760 761
3 763 667 665
3 763 665 762
3 763 761 669
3 763 762 761
3 763 669 667
3 764 667 668
3 764 666 667
3 765 764 668
3 765 668 670
3 766 764 765
3 766 666 764
3 767 765 670
3 767 766 765
3 767 666 766
3 768 670 672
3 768 767 670
3 768 666 767
3 768 672 666
3 769 673 666
3 769 666 672
3 770 671 771
3 770 672 671
3 770 769 672
3 772 673 769
3 772 769 770
3 773 671 621
3 773 771 671
3 774 775 771
3 774 771 773
3 776 673 772
3 776 772 770
3 777 771 775
3 777 770 771
3 777 776 770
3 778 773 621
3 778 677 775
3 778 676 677
3 778 775 774
3 778 621 676
3 778 774 773
3 779 673 776
3 779 776 777
3 780 779 777
3 780 775 677
3 780 677 674
3 780 777 775
3 781 780 674
3 781 674 673
3 781 779 780
3 781 673 779
3 782 680 677
3 782 677 675
3 783 782 675
3 784 680 782
3 784 782 783
3 784 683 680
3 785 783 675
3 785 683 784
3 785 784 783
3 785 675 678
3 786 679 680
3 786 607 679
3 786 681 607
3 786 680 683
3 786 683 681
3 787 683 785
3 787 785 678
3 787 682 683
3 788 787 678
3 788 682 787
3 788 684 682
3 788 686 684
3 788 678 686
3 789 686 687
3 789 687 689
3 789 689 685
3 789 685 686
3 790 685 689
3 790 689 690
3 790 694 685
3 791 790 690
3 791 692 693
3 791 690 692
3 792 694 790
3 792 790 791
3 792 791 693
3 792 693 694
3 793 646 722
3 793 723 646
3 793 650 723
3 794 793 722
3 794 650 793
3 795 650 794
3 795 722 724
3 795 726 650
3 795 794 722
3 795 724 726
3 796 747 662
3 796 662 657
3 797 745 750
3 797 747 796
3 797 752 747
3 797 753 752
3 797 750 753
3 798 745 797
3 798 797 796
3 798 796 657
3 798 657 655
3 798 655 660
3 798 660 745
3 805 799 801
3 805 801 802
3 804 805 802
3 800 799 805
3 803 804 802
3 808 807 806
3 809 808 806
3 811 812 813
3 811 813 810
3 835 837 836
3 838 837 835
3 839 840 837
3 839 837 838
3 841 824 823
3 841 843 842
3 841 823 843
3 841 842 840
3 841 840 839
3 844 814 825
3 844 837 814
3 844 836 837
3 845 826 827
3 846 845 827
3 847 846 827
3 848 827 828
3 848 847 827
3 849 848 828
3 850 849 828
3 851 828 829
3 851 850 828
3 852 829 830
3 852 851 829
3 853 842 843
3 853 814 837
3 853 840 842
3 853 837 840
3 853 854 814
3 855 841 839
3 855 838 835
3 855 839 838
3 855 835 836
3 855 836 844
3 856 841 855
3 856 824 841
3 856 855 844
3 857 856 858
3 859 858 860
3 859 857 858
3 859 856 857
3 859 824 856
3 861 826 845
3 861 845 846
3 862 830 831
3 863 831 832
3 863 862 831
3 864 866 865
3 867 866 864
3 867 868 866
3 869 868 867
3 869 867 864
3 869 864 865
3 869 823 868
3 870 843 823
3 870 871 854
3 870 823 869
3 870 869 871
3 870 853 843
3 870 854 853
3 872 860 858
3 872 844 825
3 872 858 856
3 872 856 844
3 873 859 860
3 873 860 872
3 874 873 872
3 874 872 825
3 875 874 825
3 876 875 825
3 877 815 814
3 877 816 815
3 878 817 816
3 878 816 877
3 879 878 877
3 880 878 879
3 881 877 814
3 881 879 877
3 881 880 879
3 882 866 868
3 882 880 881
3 883 865 866
3 883 881 814
3 883 869 865
3 883 854 871
3 883 871 869
3 883 814 854
3 883 866 882
3 883 882 881
3 884 859 873
3 884 873 874
3 885 824 859
3 885 874 875
3 885 859 884
3 885 884 874
3 886 824 885
3 887 888 876
3 889 888 887
3 889 886 888
3 890 886 889
3 891 886 890
3 892 886 891
3 893 886 892
3 894 889 887
3 894 890 889
3 894 852 830
3 894 851 852
3 894 891 890
3 895 892 891
3 895 891 894
3 895 894 830
3 895 830 862
3 896 893 892
3 896 895 862
3 896 862 863
3 896 892 895
3 897 893 896
3 897 896 863
3 898 893 897
3 898 886 893
3 898 832 833
3 898 833 834
3 898 834 824
3 898 863 832
3 898 897 863
3 898 824 886
3 899 818 817
3 899 819 818
3 899 817 878
3 900 820 819
3 900 821 820
3 900 822 821
3 900 823 822
3 900 819 899
3 901 899 878
3 902 899 901
3 902 900 899
3 903 901 878
3 903 902 901
3 903 900 902
3 903 823 900
3 903 868 823
3 903 882 868
3 903 878 880
3 903 880 882
3 904 875 876
3 904 876 888
3 904 885 875
3 904 888 886
3 904 886 885
3 905 826 861
3 905 825 826
3 905 861 846
3 905 851 894
3 905 887 876
3 905 846 847
3 905 876 825
3 905 847 848
3 905 848 849
3 905 849 850
3 905 850 851
3 905 894 887
3 920 916 915
3 920 917 916
3 920 918 917
3 920 914 918
3 921 906 914
3 921 914 920
3 922 921 920
3 923 915 919
3 923 922 920
3 923 920 915
3 923 921 922
3 924 908 907
3 924 909 908
3 925 910 909
3 925 911 910
3 925 912 911
3 925 913 912
3 925 919 913
3 925 909 924
3 926 921 923
3 926 906 921
3 927 926 923
3 927 923 919
3 928 926 927
3 928 906 926
3 929 925 924
3 929 919 925
3 929 927 919
3 929 928 927
3 930 907 906
3 930 929 924
3 930 924 907
3 930 906 928
3 930 928 929
3 934 937 933
3 935 937 934
3 932 937 935
3 936 932 935
3 931 932 936
3 950 951 952
3 950 952 954
3 949 954 953
3 949 950 954
3 948 943 942
3 948 953 943
3 948 949 953
3 947 941 940
3 947 942 941
3 947 948 942
3 946 940 939
3 946 947 940
3 945 939 938
3 945 946 939
3 944 945 938
3 958 967 957
3 968 967 958
3 979 958 959
3 979 959 960
3 979 960 961
3 979 968 958
3 980 969 968
3 980 968 979
3 981 970 969
3 981 969 980
3 982 961 962
3 982 979 961
3 983 971 970
3 983 970 981
3 984 962 963
3 984 982 962
3 984 979 982
3 984 980 979
3 985 972 971
3 985 973 972
3 985 974 973
3 985 971 983
3 986 981 980
3 986 980 984
3 987 983 981
3 987 986 975
3 987 981 986
3 988 975 974
3 988 985 983
3 988 974 985
3 988 987 975
3 988 983 987
3 989 963 964
3 990 984 963
3 990 989 964
3 990 963 989
3 991 984 990
3 991 975 986
3 991 986 984
3 992 975 991
3 993 976 975
3 993 977 976
3 993 975 992
3 993 992 977
3 994 995 978
3 994 978 977
3 994 977 995
3 996 964 965
3 996 965 997
3 998 999 995
3 998 996 997
3 998 991 990
3 998 990 964
3 998 977 992
3 998 992 991
3 998 964 996
3 998 997 1000
3 998 1000 999
3 998 995 977
3 1001 997 1002
3 1001 1000 997
3 1001 999 1000
3 1003 978 995
3 1003 995 999
3 1003 956 955
3 1003 955 978
3 1003 999 1001
3 1004 965 966
3 1004 1002 997
3 1004 997 965
3 1005 1002 1004
3 1005 1004 966
3 1006 1001 1002
3 1006 1002 1005
3 1007 966 956
3 1007 956 1003
3 1007 1003 1001
3 1007 1001 1006
3 1008 1005 966
3 1008 966 1007
3 1008 1006 1005
3 1008 1007 1006
3 1024 1009 1010
3 1024 1010 1011
3 1024 1011 1012
3 1024 1012 1013
3 1024 1013 1014
3 1024 1014 1015
3 1024 1015 1016
3 1024 1016 1017
3 1024 1017 1018
3 1024 1018 1019
3 1024 1019 1020
3 1024 1020 1021
3 1024 1021 1022
3 1024 1022 1023
3 1024 1023 1009
3 1030 1026 1031
3 1032 1031 1026
3 1029 1026 1030
3 1050 1026 1029
3 1025 1033 1032
3 1025 1034 1033
3 1027 1043 1042
3 1027 1044 1043
3 1027 1045 1044
3 1027 1046 1045
3 1027 1047 1046
3 1027 1048 1047
3 1027 1049 1048
3 1027 1050 1049
3 1027 1026 1050
3 1028 1035 1034
3 1028 1036 1035
3 1028 1037 1036
3 1028 1038 1037
3 1028 1039 1038
3 1028 1040 1039
3 1028 1041 1040
3 1028 1042 1041
3 1028 1027 1042
3 1028 1034 1025
3 1025 1032 1026
3 1058 1059 1060
3 1058 1060 1066
3 1057 1065 1064
3 1057 1066 1065
3 1057 1058 1066
3 1056 1057 1064
3 1055 1064 1063
3 1055 1056 1064
3 1054 1062 1061
3 1054 1063 1062
3 1054 1055 1063
3 1053 1054 1061
3 1052 1061 1051
3 1052 1053 1061
3 1069 1067 1068
3 1069 1070 1067
