ply
format ascii 1.0
comment generated by blendit.inference.finetune_visualize
element vertex 1116
property float x
property float y
property float z
property uchar red
property uchar green
property uchar blue
element face 1358
property list uchar int vertex_indices
end_header
2.77555756e-17 50.9270787 -5.55111512e-17 218 222 230
0 67.5588522 -5.55111512e-17 218 222 230
-5.55111512e-17 67.5588522 71.4827117 218 222 230
-5.55111512e-17 0.352881973 71.4827117 218 222 230
-5.55111512e-17 0.352881973 68.2462669 218 222 230
-5.55111512e-17 50.7115726 68.2462669 218 222 230
-5.55111512e-17 50.7115726 0.051719543 218 222 230
0 50.7792924 0.0233097539 218 222 230
0 50.8519342 0.00587636656 218 222 230
0 60.1698982 43.5373569 218 222 230
0 59.2640258 43.427364 218 222 230
0 58.4107994 43.103778 218 222 230
0 57.6598055 42.5854043 218 222 230
0 57.054689 41.902369 218 222 230
0 56.6306172 41.0943676 218 222 230
0 56.4122355 40.2083582 218 222 230
0 56.4122355 39.2958325 218 222 230
0 56.6306172 38.4098231 218 222 230
0 57.054689 37.6018217 218 222 230
0 57.6598055 36.9187864 218 222 230
0 58.4107994 36.4004127 218 222 230
0 59.2640258 36.0768266 218 222 230
0 60.1698982 35.9668338 218 222 230
0 61.0757705 36.0768266 218 222 230
0 61.9289969 36.4004127 218 222 230
0 62.6799909 36.9187864 218 222 230
0 63.2851073 37.6018217 218 222 230
0 63.7091792 38.4098231 218 222 230
0 63.9275609 39.2958325 218 222 230
0 63.9275609 40.2083582 218 222 230
0 63.7091792 41.0943676 218 222 230
0 63.2851073 41.902369 218 222 230
0 62.6799909 42.5854043 218 222 230
0 61.9289969 43.103778 218 222 230
0 61.0757705 43.427364 218 222 230
0 65.6516606 20.1164892 218 222 230
0 65.0170342 19.6355683 218 222 230
0 66.5732185 19.7282483 218 222 230
0 66.6723951 18.9381853 218 222 230
0 66.5353918 18.6129841 218 222 230
0 66.5892093 18.6634425 218 222 230
0 66.6313599 18.7239875 218 222 230
0 66.6600014 18.791973 218 222 230
0 66.673882 18.8644278 218 222 230
0 66.0631446 18.2551143 218 222 230
0 65.7130105 18.211162 218 222 230
0 65.7836175 18.1897839 218 222 230
0 65.8571263 18.1835529 218 222 230
0 65.9303242 18.1927414 218 222 230
0 66.0000122 18.2169479 218 222 230
0 65.1669625 18.4412053 218 222 230
0 64.9538317 18.7224541 218 222 230
0 64.9706211 18.6506176 218 222 230
0 65.0019794 18.5838416 218 222 230
0 65.0465359 18.5250446 218 222 230
0 65.1023433 18.4767963 218 222 230
0 64.880031 19.3103671 218 222 230
0 64.9632167 19.5851099 218 222 230
0 64.9210661 19.5245649 218 222 230
0 64.8924247 19.4565794 218 222 230
0 64.8785441 19.3841246 218 222 230
2.77555756e-17 50.9270787 -5.55111512e-17 218 222 230
0 67.5588522 -5.55111512e-17 218 222 230
36.6839338 28.5240846 -5.55111512e-17 218 222 230
36.6839338 67.5588522 -5.55111512e-17 218 222 230
0.168961127 50.4104101 0.352881973 255 79 163
0.0788672984 50.4892178 0.234918318 255 79 163
0.0245139229 50.5823437 0.139994278 255 79 163
0.00618264198 50.6458059 0.0912734175 255 79 163
-5.55111512e-17 50.7115726 0.051719543 255 79 163
0 50.7792924 0.0233097539 255 79 163
0 50.8519342 0.00587636656 255 79 163
2.77555756e-17 50.9270787 -5.55111512e-17 255 79 163
36.6839338 28.5240846 -5.55111512e-17 255 79 163
36.6839338 28.1106012 0.352881973 255 79 163
36.6839338 28.1198632 0.278610283 255 79 163
36.6839338 28.1472344 0.207665974 255 79 163
36.6839338 28.1914886 0.14322736 255 79 163
36.6839338 28.2506431 0.0881812988 255 79 163
36.6839338 28.3220478 0.0449938606 255 79 163
36.6839338 28.4025038 0.0155998482 255 79 163
36.6839338 28.462611 0.00392175425 255 79 163
0 67.5588522 -5.55111512e-17 255 79 163
-5.55111512e-17 67.5588522 71.4827117 255 79 163
0.0120241617 67.6501848 71.5740442 255 79 163
0.0472772199 67.7352932 71.6591526 255 79 163
0.103356737 67.8083775 71.7322369 255 79 163
0.168501649 67.8597336 71.783593 255 79 163
0.228925201 67.8892465 71.813106 255 79 163
0.287221358 67.9055717 71.8294311 255 79 163
0.319907388 67.9101902 71.8340496 255 79 163
0.352881973 67.9117342 71.8355936 255 79 163
0.352881973 67.9117342 0.352881973 255 79 163
0.261549398 67.89971 0.261549398 255 79 163
0.176440987 67.864457 0.176440987 255 79 163
0.103356737 67.8083775 0.103356737 255 79 163
0.0520006296 67.7432325 0.0520006296 255 79 163
0.0224876547 67.682809 0.0224876547 255 79 163
0.00616253235 67.6245128 0.00616253235 255 79 163
0.00154401095 67.5918268 0.00154401095 255 79 163
0.168961127 50.4104101 0.352881973 255 79 163
0.0788672984 50.4892178 0.234918318 255 79 163
0.0245139229 50.5823437 0.139994278 255 79 163
0.00618264198 50.6458059 0.0912734175 255 79 163
-5.55111512e-17 50.7115726 0.051719543 255 79 163
0.168961127 50.4104101 67.9451044 255 79 163
-5.55111512e-17 50.7115726 68.2462669 255 79 163
0.0203007604 50.5936089 68.1283032 255 79 163
0.0714490039 50.4986849 68.0333792 255 79 163
0.11605577 50.449964 67.9846583 255 79 163
-5.55111512e-17 0.352881973 71.4827117 255 79 163
0.0120241617 0.261549398 71.5740442 255 79 163
0.0472772199 0.176440987 71.6591526 255 79 163
0.103356737 0.103356737 71.7322369 255 79 163
0.168501649 0.0520006296 71.783593 255 79 163
0.228925201 0.0224876547 71.813106 255 79 163
0.287221358 0.00616253235 71.8294311 255 79 163
0.319907388 0.00154401095 71.8340496 255 79 163
0.352881973 0 71.8355936 255 79 163
0.352881973 67.9117342 71.8355936 255 79 163
-5.55111512e-17 67.5588522 71.4827117 255 79 163
0.0120241617 67.6501848 71.5740442 255 79 163
0.0472772199 67.7352932 71.6591526 255 79 163
0.103356737 67.8083775 71.7322369 255 79 163
0.168501649 67.8597336 71.783593 255 79 163
0.228925201 67.8892465 71.813106 255 79 163
0.287221358 67.9055717 71.8294311 255 79 163
0.319907388 67.9101902 71.8340496 255 79 163
0.168961127 50.4104101 67.9451044 255 79 163
0.22675569 50.3751148 67.9166947 255 79 163
0.288750889 50.3372542 67.8992613 255 79 163
0.352881973 50.2980891 67.8933849 255 79 163
0.352881973 0 67.8933849 255 79 163
-5.55111512e-17 0.352881973 68.2462669 255 79 163
0.0120241617 0.261549398 68.1549343 255 79 163
0.0472772199 0.176440987 68.0698259 255 79 163
0.103356737 0.103356737 67.9967416 255 79 163
0.168501649 0.0520006296 67.9453855 255 79 163
0.228925201 0.0224876547 67.9158726 255 79 163
0.287221358 0.00616253235 67.8995474 255 79 163
0.319907388 0.00154401095 67.8949289 255 79 163
-5.55111512e-17 50.7115726 68.2462669 255 79 163
0.0203007604 50.5936089 68.1283032 255 79 163
0.0714490039 50.4986849 68.0333792 255 79 163
0.11605577 50.449964 67.9846583 255 79 163
-5.55111512e-17 0.352881973 68.2462669 255 79 163
0.0120241617 0.261549398 68.1549343 255 79 163
0.0472772199 0.176440987 68.0698259 255 79 163
0.103356737 0.103356737 67.9967416 255 79 163
0.168501649 0.0520006296 67.9453855 255 79 163
0.228925201 0.0224876547 67.9158726 255 79 163
0.287221358 0.00616253235 67.8995474 255 79 163
0.319907388 0.00154401095 67.8949289 255 79 163
0.352881973 0 67.8933849 255 79 163
0.352881973 0 71.8355936 255 79 163
-5.55111512e-17 0.352881973 71.4827117 255 79 163
0.0120241617 0.261549398 71.5740442 255 79 163
0.0472772199 0.176440987 71.6591526 255 79 163
0.103356737 0.103356737 71.7322369 255 79 163
0.168501649 0.0520006296 71.783593 255 79 163
0.228925201 0.0224876547 71.813106 255 79 163
0.287221358 0.00616253235 71.8294311 255 79 163
0.319907388 0.00154401095 71.8340496 255 79 163
36.3310518 60.1698982 43.5373569 218 222 230
0 60.1698982 43.5373569 218 222 230
36.3310518 60.1698982 43.5373569 218 222 230
36.3310518 59.2640258 43.427364 218 222 230
36.3310518 58.4107994 43.103778 218 222 230
36.3310518 57.6598055 42.5854043 218 222 230
36.3310518 57.054689 41.902369 218 222 230
36.3310518 56.6306172 41.0943676 218 222 230
36.3310518 56.4122355 40.2083582 218 222 230
36.3310518 56.4122355 39.2958325 218 222 230
36.3310518 56.6306172 38.4098231 218 222 230
36.3310518 57.054689 37.6018217 218 222 230
36.3310518 57.6598055 36.9187864 218 222 230
36.3310518 58.4107994 36.4004127 218 222 230
36.3310518 59.2640258 36.0768266 218 222 230
36.3310518 60.1698982 35.9668338 218 222 230
36.3310518 61.0757705 36.0768266 218 222 230
36.3310518 61.9289969 36.4004127 218 222 230
36.3310518 62.6799909 36.9187864 218 222 230
36.3310518 63.2851073 37.6018217 218 222 230
36.3310518 63.7091792 38.4098231 218 222 230
36.3310518 63.9275609 39.2958325 218 222 230
36.3310518 63.9275609 40.2083582 218 222 230
36.3310518 63.7091792 41.0943676 218 222 230
36.3310518 63.2851073 41.902369 218 222 230
36.3310518 62.6799909 42.5854043 218 222 230
36.3310518 61.9289969 43.103778 218 222 230
36.3310518 61.0757705 43.427364 218 222 230
0 60.1698982 43.5373569 218 222 230
0 59.2640258 43.427364 218 222 230
0 58.4107994 43.103778 218 222 230
0 57.6598055 42.5854043 218 222 230
0 57.054689 41.902369 218 222 230
0 56.6306172 41.0943676 218 222 230
0 56.4122355 40.2083582 218 222 230
0 56.4122355 39.2958325 218 222 230
0 56.6306172 38.4098231 218 222 230
0 57.054689 37.6018217 218 222 230
0 57.6598055 36.9187864 218 222 230
0 58.4107994 36.4004127 218 222 230
0 59.2640258 36.0768266 218 222 230
0 60.1698982 35.9668338 218 222 230
0 61.0757705 36.0768266 218 222 230
0 61.9289969 36.4004127 218 222 230
0 62.6799909 36.9187864 218 222 230
0 63.2851073 37.6018217 218 222 230
0 63.7091792 38.4098231 218 222 230
0 63.9275609 39.2958325 218 222 230
0 63.9275609 40.2083582 218 222 230
0 63.7091792 41.0943676 218 222 230
0 63.2851073 41.902369 218 222 230
0 62.6799909 42.5854043 218 222 230
0 61.9289969 43.103778 218 222 230
0 61.0757705 43.427364 218 222 230
36.6839338 65.6516606 20.1164892 218 222 230
36.6839338 65.0170342 19.6355683 218 222 230
0 65.6516606 20.1164892 218 222 230
0 65.0170342 19.6355683 218 222 230
36.6839338 65.0170342 19.6355683 218 222 230
0 65.0170342 19.6355683 218 222 230
0 64.9632167 19.5851099 218 222 230
0 64.9210661 19.5245649 218 222 230
0 64.8924247 19.4565794 218 222 230
0 64.8785441 19.3841246 218 222 230
0 64.880031 19.3103671 218 222 230
36.6839338 64.880031 19.3103671 218 222 230
36.6839338 64.9632167 19.5851099 218 222 230
36.6839338 64.9210661 19.5245649 218 222 230
36.6839338 64.8924247 19.4565794 218 222 230
36.6839338 64.8785441 19.3841246 218 222 230
36.6839338 66.5732185 19.7282483 218 222 230
36.6839338 65.6516606 20.1164892 218 222 230
0 66.5732185 19.7282483 218 222 230
0 65.6516606 20.1164892 218 222 230
36.6839338 64.880031 19.3103671 218 222 230
36.6839338 64.9538317 18.7224541 218 222 230
0 64.880031 19.3103671 218 222 230
0 64.9538317 18.7224541 218 222 230
36.6839338 66.6723951 18.9381853 218 222 230
36.6839338 66.5732185 19.7282483 218 222 230
0 66.6723951 18.9381853 218 222 230
0 66.5732185 19.7282483 218 222 230
36.6839338 64.9538317 18.7224541 255 79 163
0 64.9538317 18.7224541 255 79 163
0 64.9706211 18.6506176 255 79 163
0 65.0019794 18.5838416 255 79 163
0 65.0465359 18.5250446 255 79 163
0 65.1023433 18.4767963 255 79 163
0 65.1669625 18.4412053 255 79 163
36.6839338 65.1669625 18.4412053 255 79 163
36.6839338 64.9706211 18.6506176 255 79 163
36.6839338 65.0019794 18.5838416 255 79 163
36.6839338 65.0465359 18.5250446 255 79 163
36.6839338 65.1023433 18.4767963 255 79 163
36.6839338 66.5353918 18.6129841 218 222 230
0 66.5353918 18.6129841 218 222 230
0 66.5892093 18.6634425 218 222 230
0 66.6313599 18.7239875 218 222 230
0 66.6600014 18.791973 218 222 230
0 66.673882 18.8644278 218 222 230
0 66.6723951 18.9381853 218 222 230
36.6839338 66.6723951 18.9381853 218 222 230
36.6839338 66.5892093 18.6634425 218 222 230
36.6839338 66.6313599 18.7239875 218 222 230
36.6839338 66.6600014 18.791973 218 222 230
36.6839338 66.673882 18.8644278 218 222 230
36.6839338 65.1669625 18.4412053 218 222 230
36.6839338 65.7130105 18.211162 218 222 230
0 65.1669625 18.4412053 218 222 230
0 65.7130105 18.211162 218 222 230
36.6839338 66.0631446 18.2551143 218 222 230
36.6839338 66.5353918 18.6129841 218 222 230
0 66.0631446 18.2551143 218 222 230
0 66.5353918 18.6129841 218 222 230
36.6839338 65.7130105 18.211162 218 222 230
0 65.7130105 18.211162 218 222 230
0 65.7836175 18.1897839 218 222 230
0 65.8571263 18.1835529 218 222 230
0 65.9303242 18.1927414 218 222 230
0 66.0000122 18.2169479 218 222 230
0 66.0631446 18.2551143 218 222 230
36.6839338 66.0631446 18.2551143 218 222 230
36.6839338 65.7836175 18.1897839 218 222 230
36.6839338 65.8571263 18.1835529 218 222 230
36.6839338 65.9303242 18.1927414 218 222 230
36.6839338 66.0000122 18.2169479 218 222 230
0.352881973 67.9117342 0.352881973 255 79 163
36.3310518 67.9117342 0.352881973 255 79 163
36.4223844 67.89971 0.261549398 255 79 163
36.5074928 67.864457 0.176440987 255 79 163
36.580577 67.8083775 0.103356737 255 79 163
36.6319331 67.7432325 0.0520006296 255 79 163
36.6614461 67.682809 0.0224876547 255 79 163
36.6777712 67.6245128 0.00616253235 255 79 163
36.6823897 67.5918268 0.00154401095 255 79 163
36.6839338 67.5588522 -5.55111512e-17 255 79 163
0 67.5588522 -5.55111512e-17 255 79 163
0.261549398 67.89971 0.261549398 255 79 163
0.176440987 67.864457 0.176440987 255 79 163
0.103356737 67.8083775 0.103356737 255 79 163
0.0520006296 67.7432325 0.0520006296 255 79 163
0.0224876547 67.682809 0.0224876547 255 79 163
0.00616253235 67.6245128 0.00616253235 255 79 163
0.00154401095 67.5918268 0.00154401095 255 79 163
36.6839338 0.352881973 71.8355936 218 222 230
36.6839338 67.5588522 71.8355936 218 222 230
36.6839338 0.352881973 68.2462669 218 222 230
36.6839338 28.1106012 68.2462669 218 222 230
36.6839338 28.1106012 67.8933849 218 222 230
36.6839338 28.1106012 0.352881973 218 222 230
36.6839338 28.1198632 0.278610283 218 222 230
36.6839338 28.1472344 0.207665974 218 222 230
36.6839338 28.1914886 0.14322736 218 222 230
36.6839338 28.2506431 0.0881812988 218 222 230
36.6839338 28.3220478 0.0449938606 218 222 230
36.6839338 28.4025038 0.0155998482 218 222 230
36.6839338 28.462611 0.00392175425 218 222 230
36.6839338 28.5240846 -5.55111512e-17 218 222 230
36.6839338 67.5588522 -5.55111512e-17 218 222 230
36.6839338 62.5480588 14.4255368 218 222 230
36.6839338 62.2982236 14.3952013 218 222 230
36.6839338 62.0629079 14.3059579 218 222 230
36.6839338 61.8557874 14.1629929 218 222 230
36.6839338 61.6888993 13.9746151 218 222 230
36.6839338 61.5719423 13.7517723 218 222 230
36.6839338 61.5117137 13.5074152 218 222 230
36.6839338 61.5117137 13.255745 218 222 230
36.6839338 61.5719423 13.0113879 218 222 230
36.6839338 61.6888993 12.7885451 218 222 230
36.6839338 61.8557874 12.6001672 218 222 230
36.6839338 62.0629079 12.4572023 218 222 230
36.6839338 62.2982236 12.3679588 218 222 230
36.6839338 62.5480588 12.3376233 218 222 230
36.6839338 62.797894 12.3679588 218 222 230
36.6839338 63.0332097 12.4572023 218 222 230
36.6839338 63.2403302 12.6001672 218 222 230
36.6839338 63.4072184 12.7885451 218 222 230
36.6839338 63.5241753 13.0113879 218 222 230
36.6839338 63.5844039 13.255745 218 222 230
36.6839338 63.5844039 13.5074152 218 222 230
36.6839338 63.5241753 13.7517723 218 222 230
36.6839338 63.4072184 13.9746151 218 222 230
36.6839338 63.2403302 14.1629929 218 222 230
36.6839338 63.0332097 14.3059579 218 222 230
36.6839338 62.797894 14.3952013 218 222 230
36.6839338 65.6516606 20.1164892 218 222 230
36.6839338 65.0170342 19.6355683 218 222 230
36.6839338 66.5732185 19.7282483 218 222 230
36.6839338 66.6723951 18.9381853 218 222 230
36.6839338 66.5353918 18.6129841 218 222 230
36.6839338 66.5892093 18.6634425 218 222 230
36.6839338 66.6313599 18.7239875 218 222 230
36.6839338 66.6600014 18.791973 218 222 230
36.6839338 66.673882 18.8644278 218 222 230
36.6839338 66.0631446 18.2551143 218 222 230
36.6839338 65.7130105 18.211162 218 222 230
36.6839338 65.7836175 18.1897839 218 222 230
36.6839338 65.8571263 18.1835529 218 222 230
36.6839338 65.9303242 18.1927414 218 222 230
36.6839338 66.0000122 18.2169479 218 222 230
36.6839338 65.1669625 18.4412053 218 222 230
36.6839338 64.9538317 18.7224541 218 222 230
36.6839338 64.9706211 18.6506176 218 222 230
36.6839338 65.0019794 18.5838416 218 222 230
36.6839338 65.0465359 18.5250446 218 222 230
36.6839338 65.1023433 18.4767963 218 222 230
36.6839338 64.880031 19.3103671 218 222 230
36.6839338 64.9632167 19.5851099 218 222 230
36.6839338 64.9210661 19.5245649 218 222 230
36.6839338 64.8924247 19.4565794 218 222 230
36.6839338 64.8785441 19.3841246 218 222 230
36.6839338 60.1698982 43.8902388 218 222 230
36.6839338 59.1795756 43.7699919 218 222 230
36.6839338 58.246807 43.4162394 218 222 230
36.6839338 57.4258015 42.8495402 218 222 230
36.6839338 56.7642728 42.1028288 218 222 230
36.6839338 56.3006668 41.2195013 218 222 230
36.6839338 56.0619264 40.2508934 218 222 230
36.6839338 56.0619264 39.2532973 218 222 230
36.6839338 56.3006668 38.2846894 218 222 230
36.6839338 56.7642728 37.4013619 218 222 230
36.6839338 57.4258015 36.6546505 218 222 230
36.6839338 58.246807 36.0879513 218 222 230
36.6839338 59.1795756 35.7341988 218 222 230
36.6839338 60.1698982 35.6139519 218 222 230
36.6839338 61.1602207 35.7341988 218 222 230
36.6839338 62.0929893 36.0879513 218 222 230
36.6839338 62.9139949 36.6546505 218 222 230
36.6839338 63.5755235 37.4013619 218 222 230
36.6839338 64.0391296 38.2846894 218 222 230
36.6839338 64.2778699 39.2532973 218 222 230
36.6839338 64.2778699 40.2508934 218 222 230
36.6839338 64.0391296 41.2195013 218 222 230
36.6839338 63.5755235 42.1028288 218 222 230
36.6839338 62.9139949 42.8495402 218 222 230
36.6839338 62.0929893 43.4162394 218 222 230
36.6839338 61.1602207 43.7699919 218 222 230
36.6839338 28.1106012 0.352881973 218 222 230
36.6839338 28.1106012 67.8933849 218 222 230
0.168961127 50.4104101 0.352881973 218 222 230
0.168961127 50.4104101 67.9451044 218 222 230
0.22675569 50.3751148 67.9166947 218 222 230
0.288750889 50.3372542 67.8992613 218 222 230
0.352881973 50.2980891 67.8933849 218 222 230
36.3310518 28.3261073 67.8933849 218 222 230
36.4223844 28.2703302 67.9054091 218 222 230
36.5074928 28.2183542 67.9406621 218 222 230
36.580577 28.1737214 67.9967416 218 222 230
36.6319331 28.1423581 68.0618866 218 222 230
36.6640002 28.1227746 68.1293437 218 222 230
36.6789147 28.1136663 68.1869618 218 222 230
36.6839338 28.1106012 68.2462669 218 222 230
0.352881973 67.9117342 71.8355936 218 222 230
36.3310518 67.9117342 71.8355936 218 222 230
36.3310518 67.9117342 0.352881973 218 222 230
0.352881973 67.9117342 0.352881973 218 222 230
0.352881973 67.9117342 71.8355936 218 222 230
36.3310518 67.9117342 71.8355936 218 222 230
0.352881973 0 71.8355936 218 222 230
36.3310518 -5.55111512e-17 71.8355936 218 222 230
36.4095754 0.00884748782 71.8355936 218 222 230
36.4841615 0.0349463013 71.8355936 218 222 230
36.5510701 0.0769877369 71.8355936 218 222 230
36.606946 0.132863662 71.8355936 218 222 230
36.6489875 0.199772223 71.8355936 218 222 230
36.6750863 0.274358347 71.8355936 218 222 230
36.6839338 0.352881973 71.8355936 218 222 230
36.6839338 67.5588522 71.8355936 218 222 230
36.4095754 67.9028867 71.8355936 218 222 230
36.4841615 67.8767879 71.8355936 218 222 230
36.5510701 67.8347465 71.8355936 218 222 230
36.606946 67.7788705 71.8355936 218 222 230
36.6489875 67.711962 71.8355936 218 222 230
36.6750863 67.6373758 71.8355936 218 222 230
36.3310518 0 67.8933849 218 222 230
0.352881973 0 67.8933849 218 222 230
0.352881973 50.2980891 67.8933849 218 222 230
36.3310518 28.3261073 67.8933849 218 222 230
36.3310518 0 67.8933849 218 222 230
0.352881973 0 67.8933849 218 222 230
0.352881973 0 71.8355936 218 222 230
36.3310518 -5.55111512e-17 71.8355936 218 222 230
36.6839338 60.1698982 43.8902388 255 79 163
36.6839338 59.1795756 43.7699919 255 79 163
36.6839338 58.246807 43.4162394 255 79 163
36.6839338 57.4258015 42.8495402 255 79 163
36.6839338 56.7642728 42.1028288 255 79 163
36.6839338 56.3006668 41.2195013 255 79 163
36.6839338 56.0619264 40.2508934 255 79 163
36.6839338 56.0619264 39.2532973 255 79 163
36.6839338 56.3006668 38.2846894 255 79 163
36.6839338 56.7642728 37.4013619 255 79 163
36.6839338 57.4258015 36.6546505 255 79 163
36.6839338 58.246807 36.0879513 255 79 163
36.6839338 59.1795756 35.7341988 255 79 163
36.6839338 60.1698982 35.6139519 255 79 163
36.6839338 61.1602207 35.7341988 255 79 163
36.6839338 62.0929893 36.0879513 255 79 163
36.6839338 62.9139949 36.6546505 255 79 163
36.6839338 63.5755235 37.4013619 255 79 163
36.6839338 64.0391296 38.2846894 255 79 163
36.6839338 64.2778699 39.2532973 255 79 163
36.6839338 64.2778699 40.2508934 255 79 163
36.6839338 64.0391296 41.2195013 255 79 163
36.6839338 63.5755235 42.1028288 255 79 163
36.6839338 62.9139949 42.8495402 255 79 163
36.6839338 62.0929893 43.4162394 255 79 163
36.6839338 61.1602207 43.7699919 255 79 163
36.6839338 60.1698982 43.8902388 255 79 163
36.3310518 60.1698982 43.5373569 255 79 163
36.4095754 60.1698982 43.5462044 255 79 163
36.4841615 60.1698982 43.5723032 255 79 163
36.5510701 60.1698982 43.6143446 255 79 163
36.606946 60.1698982 43.6702205 255 79 163
36.6489875 60.1698982 43.7371291 255 79 163
36.6750863 60.1698982 43.8117152 255 79 163
36.3310518 60.1698982 43.5373569 255 79 163
36.3310518 59.2640258 43.427364 255 79 163
36.3310518 58.4107994 43.103778 255 79 163
36.3310518 57.6598055 42.5854043 255 79 163
36.3310518 57.054689 41.902369 255 79 163
36.3310518 56.6306172 41.0943676 255 79 163
36.3310518 56.4122355 40.2083582 255 79 163
36.3310518 56.4122355 39.2958325 255 79 163
36.3310518 56.6306172 38.4098231 255 79 163
36.3310518 57.054689 37.6018217 255 79 163
36.3310518 57.6598055 36.9187864 255 79 163
36.3310518 58.4107994 36.4004127 255 79 163
36.3310518 59.2640258 36.0768266 255 79 163
36.3310518 60.1698982 35.9668338 255 79 163
36.3310518 61.0757705 36.0768266 255 79 163
36.3310518 61.9289969 36.4004127 255 79 163
36.3310518 62.6799909 36.9187864 255 79 163
36.3310518 63.2851073 37.6018217 255 79 163
36.3310518 63.7091792 38.4098231 255 79 163
36.3310518 63.9275609 39.2958325 255 79 163
36.3310518 63.9275609 40.2083582 255 79 163
36.3310518 63.7091792 41.0943676 255 79 163
36.3310518 63.2851073 41.902369 255 79 163
36.3310518 62.6799909 42.5854043 255 79 163
36.3310518 61.9289969 43.103778 255 79 163
36.3310518 61.0757705 43.427364 255 79 163
36.4095754 60.1698982 43.5462044 255 79 163
36.4841615 60.1698982 43.5723032 255 79 163
36.5510701 60.1698982 43.6143446 255 79 163
36.606946 60.1698982 43.6702205 255 79 163
36.6489875 60.1698982 43.7371291 255 79 163
36.6750863 60.1698982 43.8117152 255 79 163
36.4095754 61.0778879 43.4359544 255 79 163
36.4841615 61.0841337 43.4612949 255 79 163
36.5510701 61.0941949 43.5021147 255 79 163
36.606946 61.1075669 43.5563669 255 79 163
36.6489875 61.1235792 43.6213312 255 79 163
36.6750863 61.1414288 43.69375 255 79 163
36.4095754 61.9331085 43.111612 255 79 163
36.4841615 61.9452373 43.1347214 255 79 163
36.5510701 61.9647749 43.1719472 255 79 163
36.606946 61.9907417 43.2214229 255 79 163
36.6489875 62.0218357 43.2806675 255 79 163
36.6750863 62.0564976 43.3467102 255 79 163
36.4095754 62.6858578 42.5920267 255 79 163
36.4841615 62.7031645 42.611562 255 79 163
36.5510701 62.7310432 42.6430304 255 79 163
36.606946 62.7680958 42.6848542 255 79 163
36.6489875 62.8124643 42.7349359 255 79 163
36.6750863 62.8619241 42.7907644 255 79 163
36.4095754 63.2923887 41.9073949 255 79 163
36.4841615 63.3138676 41.9222207 255 79 163
36.5510701 63.348467 41.946103 255 79 163
36.606946 63.394452 41.9778441 255 79 163
36.6489875 63.4495166 42.0158525 255 79 163
36.6750863 63.5108998 42.0582223 255 79 163
36.4095754 63.7174517 41.0975049 255 79 163
36.4841615 63.7418545 41.1067597 255 79 163
36.5510701 63.781164 41.1216678 255 79 163
36.606946 63.8334089 41.1414817 255 79 163
36.6489875 63.8959695 41.1652078 255 79 163
36.6750863 63.9657087 41.1916564 255 79 163
36.4095754 63.9363439 40.2094246 255 79 163
36.4841615 63.9622524 40.2125705 255 79 163
36.5510701 64.0039873 40.217638 255 79 163
36.606946 64.0594558 40.2243731 255 79 163
36.6489875 64.1258765 40.2324381 255 79 163
36.6750863 64.1999188 40.2414284 255 79 163
36.4095754 63.9363439 39.294766 255 79 163
36.4841615 63.9622524 39.2916202 255 79 163
36.5510701 64.0039873 39.2865526 255 79 163
36.606946 64.0594558 39.2798175 255 79 163
36.6489875 64.1258765 39.2717526 255 79 163
36.6750863 64.1999188 39.2627622 255 79 163
36.4095754 63.7174517 38.4066857 255 79 163
36.4841615 63.7418545 38.397431 255 79 163
36.5510701 63.781164 38.3825229 255 79 163
36.606946 63.8334089 38.362709 255 79 163
36.6489875 63.8959695 38.3389829 255 79 163
36.6750863 63.9657087 38.3125343 255 79 163
36.4095754 63.2923887 37.5967958 255 79 163
36.4841615 63.3138676 37.58197 255 79 163
36.5510701 63.348467 37.5580877 255 79 163
36.606946 63.394452 37.5263466 255 79 163
36.6489875 63.4495166 37.4883382 255 79 163
36.6750863 63.5108998 37.4459684 255 79 163
36.4095754 62.6858578 36.912164 255 79 163
36.4841615 62.7031645 36.8926287 255 79 163
36.5510701 62.7310432 36.8611603 255 79 163
36.606946 62.7680958 36.8193365 255 79 163
36.6489875 62.8124643 36.7692548 255 79 163
36.6750863 62.8619241 36.7134262 255 79 163
36.4095754 61.9331085 36.3925787 255 79 163
36.4841615 61.9452373 36.3694693 255 79 163
36.5510701 61.9647749 36.3322435 255 79 163
36.606946 61.9907417 36.2827678 255 79 163
36.6489875 62.0218357 36.2235232 255 79 163
36.6750863 62.0564976 36.1574805 255 79 163
36.4095754 61.0778879 36.0682363 255 79 163
36.4841615 61.0841337 36.0428958 255 79 163
36.5510701 61.0941949 36.002076 255 79 163
36.606946 61.1075669 35.9478238 255 79 163
36.6489875 61.1235792 35.8828594 255 79 163
36.6750863 61.1414288 35.8104407 255 79 163
36.4095754 60.1698982 35.9579863 255 79 163
36.4841615 60.1698982 35.9318875 255 79 163
36.5510701 60.1698982 35.8898461 255 79 163
36.606946 60.1698982 35.8339702 255 79 163
36.6489875 60.1698982 35.7670616 255 79 163
36.6750863 60.1698982 35.6924755 255 79 163
36.4095754 59.2619085 36.0682363 255 79 163
36.4841615 59.2556626 36.0428958 255 79 163
36.5510701 59.2456014 36.002076 255 79 163
36.606946 59.2322294 35.9478238 255 79 163
36.6489875 59.2162172 35.8828594 255 79 163
36.6750863 59.1983675 35.8104407 255 79 163
36.4095754 58.4066878 36.3925787 255 79 163
36.4841615 58.3945591 36.3694693 255 79 163
36.5510701 58.3750214 36.3322435 255 79 163
36.606946 58.3490546 36.2827678 255 79 163
36.6489875 58.3179607 36.2235232 255 79 163
36.6750863 58.2832988 36.1574805 255 79 163
36.4095754 57.6539385 36.912164 255 79 163
36.4841615 57.6366318 36.8926287 255 79 163
36.5510701 57.6087532 36.8611603 255 79 163
36.606946 57.5717006 36.8193365 255 79 163
36.6489875 57.527332 36.7692548 255 79 163
36.6750863 57.4778723 36.7134262 255 79 163
36.4095754 57.0474077 37.5967958 255 79 163
36.4841615 57.0259288 37.58197 255 79 163
36.5510701 56.9913294 37.5580877 255 79 163
36.606946 56.9453444 37.5263466 255 79 163
36.6489875 56.8902797 37.4883382 255 79 163
36.6750863 56.8288965 37.4459684 255 79 163
36.4095754 56.6223446 38.4066857 255 79 163
36.4841615 56.5979418 38.397431 255 79 163
36.5510701 56.5586324 38.3825229 255 79 163
36.606946 56.5063875 38.362709 255 79 163
36.6489875 56.4438269 38.3389829 255 79 163
36.6750863 56.3740877 38.3125343 255 79 163
36.4095754 56.4034525 39.294766 255 79 163
36.4841615 56.377544 39.2916202 255 79 163
36.5510701 56.3358091 39.2865526 255 79 163
36.606946 56.2803405 39.2798175 255 79 163
36.6489875 56.2139198 39.2717526 255 79 163
36.6750863 56.1398775 39.2627622 255 79 163
36.4095754 56.4034525 40.2094246 255 79 163
36.4841615 56.377544 40.2125705 255 79 163
36.5510701 56.3358091 40.217638 255 79 163
36.606946 56.2803405 40.2243731 255 79 163
36.6489875 56.2139198 40.2324381 255 79 163
36.6750863 56.1398775 40.2414284 255 79 163
36.4095754 56.6223446 41.0975049 255 79 163
36.4841615 56.5979418 41.1067597 255 79 163
36.5510701 56.5586324 41.1216678 255 79 163
36.606946 56.5063875 41.1414817 255 79 163
36.6489875 56.4438269 41.1652078 255 79 163
36.6750863 56.3740877 41.1916564 255 79 163
36.4095754 57.0474077 41.9073949 255 79 163
36.4841615 57.0259288 41.9222207 255 79 163
36.5510701 56.9913294 41.946103 255 79 163
36.606946 56.9453444 41.9778441 255 79 163
36.6489875 56.8902797 42.0158525 255 79 163
36.6750863 56.8288965 42.0582223 255 79 163
36.4095754 57.6539385 42.5920267 255 79 163
36.4841615 57.6366318 42.611562 255 79 163
36.5510701 57.6087532 42.6430304 255 79 163
36.606946 57.5717006 42.6848542 255 79 163
36.6489875 57.527332 42.7349359 255 79 163
36.6750863 57.4778723 42.7907644 255 79 163
36.4095754 58.4066878 43.111612 255 79 163
36.4841615 58.3945591 43.1347214 255 79 163
36.5510701 58.3750214 43.1719472 255 79 163
36.606946 58.3490546 43.2214229 255 79 163
36.6489875 58.3179607 43.2806675 255 79 163
36.6750863 58.2832988 43.3467102 255 79 163
36.4095754 59.2619085 43.4359544 255 79 163
36.4841615 59.2556626 43.4612949 255 79 163
36.5510701 59.2456014 43.5021147 255 79 163
36.606946 59.2322294 43.5563669 255 79 163
36.6489875 59.2162172 43.6213312 255 79 163
36.6750863 59.1983675 43.69375 255 79 163
36.3310518 67.9117342 0.352881973 255 79 163
36.3310518 67.9117342 71.8355936 255 79 163
36.4095754 67.9028867 71.8355936 255 79 163
36.4841615 67.8767879 71.8355936 255 79 163
36.5510701 67.8347465 71.8355936 255 79 163
36.606946 67.7788705 71.8355936 255 79 163
36.6489875 67.711962 71.8355936 255 79 163
36.6750863 67.6373758 71.8355936 255 79 163
36.6839338 67.5588522 71.8355936 255 79 163
36.6839338 67.5588522 -5.55111512e-17 255 79 163
36.4223844 67.89971 0.261549398 255 79 163
36.5074928 67.864457 0.176440987 255 79 163
36.580577 67.8083775 0.103356737 255 79 163
36.6319331 67.7432325 0.0520006296 255 79 163
36.6614461 67.682809 0.0224876547 255 79 163
36.6777712 67.6245128 0.00616253235 255 79 163
36.6823897 67.5918268 0.00154401095 255 79 163
36.3310518 0 67.8933849 218 222 230
36.3913675 0.00519288574 67.8985778 218 222 230
36.449908 0.0206187096 67.9140036 218 222 230
36.5049505 0.0458234698 67.9392084 218 222 230
36.5548749 0.0800653577 67.9734503 218 222 230
36.5982119 0.12233659 68.0157215 218 222 230
36.633686 0.171393071 68.064778 218 222 230
36.6669864 0.244837565 68.1382225 218 222 230
36.6796712 0.298199239 68.1915841 218 222 230
36.6839338 0.352881973 68.2462669 218 222 230
36.6839338 0.352881973 71.8355936 218 222 230
36.3310518 -5.55111512e-17 71.8355936 218 222 230
36.4095754 0.00884748782 71.8355936 218 222 230
36.4841615 0.0349463013 71.8355936 218 222 230
36.5510701 0.0769877369 71.8355936 218 222 230
36.606946 0.132863662 71.8355936 218 222 230
36.6489875 0.199772223 71.8355936 218 222 230
36.6750863 0.274358347 71.8355936 218 222 230
36.3310518 28.3261073 67.8933849 255 79 163
36.4223844 28.2703302 67.9054091 255 79 163
36.5074928 28.2183542 67.9406621 255 79 163
36.580577 28.1737214 67.9967416 255 79 163
36.6319331 28.1423581 68.0618866 255 79 163
36.6640002 28.1227746 68.1293437 255 79 163
36.6789147 28.1136663 68.1869618 255 79 163
36.6839338 28.1106012 68.2462669 255 79 163
36.6839338 0.352881973 68.2462669 255 79 163
36.3310518 0 67.8933849 255 79 163
36.3913675 0.00519288574 67.8985778 255 79 163
36.449908 0.0206187096 67.9140036 255 79 163
36.5049505 0.0458234698 67.9392084 255 79 163
36.5548749 0.0800653577 67.9734503 255 79 163
36.5982119 0.12233659 68.0157215 255 79 163
36.633686 0.171393071 68.064778 255 79 163
36.6669864 0.244837565 68.1382225 255 79 163
36.6796712 0.298199239 68.1915841 255 79 163
36.6839338 62.5480588 14.4255368 218 222 230
20.4682186 62.5480588 14.4255368 218 222 230
20.4682186 62.2982236 14.3952013 218 222 230
20.4682186 62.0629079 14.3059579 218 222 230
20.4682186 61.8557874 14.1629929 218 222 230
20.4682186 61.6888993 13.9746151 218 222 230
20.4682186 61.5719423 13.7517723 218 222 230
20.4682186 61.5117137 13.5074152 218 222 230
20.4682186 61.5117137 13.255745 218 222 230
20.4682186 61.5719423 13.0113879 218 222 230
20.4682186 61.6888993 12.7885451 218 222 230
20.4682186 61.8557874 12.6001672 218 222 230
20.4682186 62.0629079 12.4572023 218 222 230
20.4682186 62.2982236 12.3679588 218 222 230
20.4682186 62.5480588 12.3376233 218 222 230
20.4682186 62.797894 12.3679588 218 222 230
20.4682186 63.0332097 12.4572023 218 222 230
20.4682186 63.2403302 12.6001672 218 222 230
20.4682186 63.4072184 12.7885451 218 222 230
20.4682186 63.5241753 13.0113879 218 222 230
20.4682186 63.5844039 13.255745 218 222 230
20.4682186 63.5844039 13.5074152 218 222 230
20.4682186 63.5241753 13.7517723 218 222 230
20.4682186 63.4072184 13.9746151 218 222 230
20.4682186 63.2403302 14.1629929 218 222 230
20.4682186 63.0332097 14.3059579 218 222 230
20.4682186 62.797894 14.3952013 218 222 230
20.4682186 62.5480588 14.4255368 218 222 230
36.6839338 62.5480588 14.4255368 218 222 230
36.6839338 62.2982236 14.3952013 218 222 230
36.6839338 62.0629079 14.3059579 218 222 230
36.6839338 61.8557874 14.1629929 218 222 230
36.6839338 61.6888993 13.9746151 218 222 230
36.6839338 61.5719423 13.7517723 218 222 230
36.6839338 61.5117137 13.5074152 218 222 230
36.6839338 61.5117137 13.255745 218 222 230
36.6839338 61.5719423 13.0113879 218 222 230
36.6839338 61.6888993 12.7885451 218 222 230
36.6839338 61.8557874 12.6001672 218 222 230
36.6839338 62.0629079 12.4572023 218 222 230
36.6839338 62.2982236 12.3679588 218 222 230
36.6839338 62.5480588 12.3376233 218 222 230
36.6839338 62.797894 12.3679588 218 222 230
36.6839338 63.0332097 12.4572023 218 222 230
36.6839338 63.2403302 12.6001672 218 222 230
36.6839338 63.4072184 12.7885451 218 222 230
36.6839338 63.5241753 13.0113879 218 222 230
36.6839338 63.5844039 13.255745 218 222 230
36.6839338 63.5844039 13.5074152 218 222 230
36.6839338 63.5241753 13.7517723 218 222 230
36.6839338 63.4072184 13.9746151 218 222 230
36.6839338 63.2403302 14.1629929 218 222 230
36.6839338 63.0332097 14.3059579 218 222 230
36.6839338 62.797894 14.3952013 218 222 230
20.1153366 62.5480588 14.0726549 255 79 163
20.1153366 62.3826738 14.0525735 255 79 163
20.1153366 62.2269004 13.9934964 255 79 163
20.1153366 62.0897915 13.898857 255 79 163
20.1153366 61.9793154 13.7741553 255 79 163
20.1153366 61.9018927 13.6266386 255 79 163
20.1153366 61.8620228 13.4648799 255 79 163
20.1153366 61.8620228 13.2982802 255 79 163
20.1153366 61.9018927 13.1365216 255 79 163
20.1153366 61.9793154 12.9890049 255 79 163
20.1153366 62.0897915 12.8643032 255 79 163
20.1153366 62.2269004 12.7696638 255 79 163
20.1153366 62.3826738 12.7105867 255 79 163
20.1153366 62.5480588 12.6905053 255 79 163
20.1153366 62.7134438 12.7105867 255 79 163
20.1153366 62.8692173 12.7696638 255 79 163
20.1153366 63.0063262 12.8643032 255 79 163
20.1153366 63.1168022 12.9890049 255 79 163
20.1153366 63.1942249 13.1365216 255 79 163
20.1153366 63.2340949 13.2982802 255 79 163
20.1153366 63.2340949 13.4648799 255 79 163
20.1153366 63.1942249 13.6266386 255 79 163
20.1153366 63.1168022 13.7741553 255 79 163
20.1153366 63.0063262 13.898857 255 79 163
20.1153366 62.8692173 13.9934964 255 79 163
20.1153366 62.7134438 14.0525735 255 79 163
20.1153366 62.5480588 14.0726549 255 79 163
20.4682186 62.5480588 14.4255368 255 79 163
20.389695 62.5480588 14.4166893 255 79 163
20.3151089 62.5480588 14.3905905 255 79 163
20.2482003 62.5480588 14.3485491 255 79 163
20.1923244 62.5480588 14.2926732 255 79 163
20.1502829 62.5480588 14.2257646 255 79 163
20.1241841 62.5480588 14.1511785 255 79 163
20.4682186 62.5480588 14.4255368 255 79 163
20.4682186 62.2982236 14.3952013 255 79 163
20.4682186 62.0629079 14.3059579 255 79 163
20.4682186 61.8557874 14.1629929 255 79 163
20.4682186 61.6888993 13.9746151 255 79 163
20.4682186 61.5719423 13.7517723 255 79 163
20.4682186 61.5117137 13.5074152 255 79 163
20.4682186 61.5117137 13.255745 255 79 163
20.4682186 61.5719423 13.0113879 255 79 163
20.4682186 61.6888993 12.7885451 255 79 163
20.4682186 61.8557874 12.6001672 255 79 163
20.4682186 62.0629079 12.4572023 255 79 163
20.4682186 62.2982236 12.3679588 255 79 163
20.4682186 62.5480588 12.3376233 255 79 163
20.4682186 62.797894 12.3679588 255 79 163
20.4682186 63.0332097 12.4572023 255 79 163
20.4682186 63.2403302 12.6001672 255 79 163
20.4682186 63.4072184 12.7885451 255 79 163
20.4682186 63.5241753 13.0113879 255 79 163
20.4682186 63.5844039 13.255745 255 79 163
20.4682186 63.5844039 13.5074152 255 79 163
20.4682186 63.5241753 13.7517723 255 79 163
20.4682186 63.4072184 13.9746151 255 79 163
20.4682186 63.2403302 14.1629929 255 79 163
20.4682186 63.0332097 14.3059579 255 79 163
20.4682186 62.797894 14.3952013 255 79 163
20.389695 62.5480588 14.4166893 255 79 163
20.3151089 62.5480588 14.3905905 255 79 163
20.2482003 62.5480588 14.3485491 255 79 163
20.1923244 62.5480588 14.2926732 255 79 163
20.1502829 62.5480588 14.2257646 255 79 163
20.1241841 62.5480588 14.1511785 255 79 163
20.389695 62.7957767 14.386611 255 79 163
20.3151089 62.7895308 14.3612705 255 79 163
20.2482003 62.7794696 14.3204507 255 79 163
20.389695 63.0290981 14.2981238 255 79 163
20.1923244 62.7660977 14.2661985 255 79 163
20.3151089 63.0169693 14.2750145 255 79 163
20.1502829 62.7500854 14.2012341 255 79 163
20.2482003 62.9974317 14.2377886 255 79 163
20.1241841 62.7322358 14.1288154 255 79 163
20.389695 63.2344632 14.1563705 255 79 163
20.1923244 62.9714649 14.1883129 255 79 163
20.3151089 63.2171565 14.1368353 255 79 163
20.1502829 62.9403709 14.1290684 255 79 163
20.2482003 63.1892779 14.1053668 255 79 163
20.1241841 62.905709 14.0630256 255 79 163
20.389695 63.399937 13.9695892 255 79 163
20.1923244 63.1522253 14.0635431 255 79 163
20.3151089 63.3784581 13.9547634 255 79 163
20.1502829 63.1078567 14.0134613 255 79 163
20.2482003 63.3438587 13.9308811 255 79 163
20.1241841 63.0583969 13.9576328 255 79 163
20.389695 63.5159028 13.7486349 255 79 163
20.1923244 63.2978737 13.89914 255 79 163
20.3151089 63.4915 13.7393801 255 79 163
20.1502829 63.2428091 13.8611316 255 79 163
20.2482003 63.4521905 13.724472 255 79 163
20.1241841 63.1814259 13.8187618 255 79 163
20.389695 63.575621 13.5063487 255 79 163
20.1923244 63.3999456 13.7046581 255 79 163
20.3151089 63.5497124 13.5032029 255 79 163
20.1502829 63.3373851 13.680932 255 79 163
20.2482003 63.5079775 13.4981353 255 79 163
20.1241841 63.2676458 13.6544834 255 79 163
20.389695 63.575621 13.2568115 255 79 163
20.1923244 63.452509 13.4914002 255 79 163
20.3151089 63.5497124 13.2599573 255 79 163
20.1502829 63.3860883 13.4833353 255 79 163
20.2482003 63.5079775 13.2650249 255 79 163
20.1241841 63.312046 13.4743449 255 79 163
20.389695 63.5159028 13.0145253 255 79 163
20.1923244 63.452509 13.27176 255 79 163
20.3151089 63.4915 13.0237801 255 79 163
20.1502829 63.3860883 13.2798249 255 79 163
20.2482003 63.4521905 13.0386882 255 79 163
20.1241841 63.312046 13.2888153 255 79 163
20.389695 63.399937 12.793571 255 79 163
20.1923244 63.3999456 13.058502 255 79 163
20.3151089 63.3784581 12.8083968 255 79 163
20.1502829 63.3373851 13.0822281 255 79 163
20.2482003 63.3438587 12.8322791 255 79 163
20.1241841 63.2676458 13.1086767 255 79 163
20.389695 63.2344632 12.6067897 255 79 163
20.1923244 63.2978737 12.8640202 255 79 163
20.3151089 63.2171565 12.6263249 255 79 163
20.1502829 63.2428091 12.9020286 255 79 163
20.2482003 63.1892779 12.6577934 255 79 163
20.1241841 63.1814259 12.9443984 255 79 163
20.389695 63.0290981 12.4650364 255 79 163
20.1923244 63.1522253 12.6996171 255 79 163
20.3151089 63.0169693 12.4881457 255 79 163
20.1502829 63.1078567 12.7496989 255 79 163
20.2482003 62.9974317 12.5253716 255 79 163
20.1241841 63.0583969 12.8055274 255 79 163
20.389695 62.7957767 12.3765492 255 79 163
20.1923244 62.9714649 12.5748472 255 79 163
20.3151089 62.7895308 12.4018897 255 79 163
20.1502829 62.9403709 12.6340918 255 79 163
20.2482003 62.7794696 12.4427094 255 79 163
20.1241841 62.905709 12.7001346 255 79 163
20.389695 62.5480588 12.3464708 255 79 163
20.1923244 62.7660977 12.4969617 255 79 163
20.3151089 62.5480588 12.3725696 255 79 163
20.1502829 62.7500854 12.561926 255 79 163
20.2482003 62.5480588 12.4146111 255 79 163
20.1241841 62.7322358 12.6343448 255 79 163
20.389695 62.300341 12.3765492 255 79 163
20.1923244 62.5480588 12.470487 255 79 163
20.3151089 62.3065868 12.4018897 255 79 163
20.1502829 62.5480588 12.5373956 255 79 163
20.2482003 62.316648 12.4427094 255 79 163
20.1241841 62.5480588 12.6119817 255 79 163
20.389695 62.0670196 12.4650364 255 79 163
20.1923244 62.33002 12.4969617 255 79 163
20.3151089 62.0791483 12.4881457 255 79 163
20.1502829 62.3460322 12.561926 255 79 163
20.2482003 62.0986859 12.5253716 255 79 163
20.1241841 62.3638819 12.6343448 255 79 163
20.389695 61.8616544 12.6067897 255 79 163
20.1923244 62.1246527 12.5748472 255 79 163
20.3151089 61.8789611 12.6263249 255 79 163
20.1502829 62.1557467 12.6340918 255 79 163
20.2482003 61.9068398 12.6577934 255 79 163
20.1241841 62.1904086 12.7001346 255 79 163
20.389695 61.6961806 12.793571 255 79 163
20.1923244 61.9438923 12.6996171 255 79 163
20.3151089 61.7176595 12.8083968 255 79 163
20.1502829 61.9882609 12.7496989 255 79 163
20.2482003 61.7522589 12.8322791 255 79 163
20.1241841 62.0377207 12.8055274 255 79 163
20.389695 61.5802148 13.0145253 255 79 163
20.1923244 61.7982439 12.8640202 255 79 163
20.3151089 61.6046177 13.0237801 255 79 163
20.1502829 61.8533086 12.9020286 255 79 163
20.2482003 61.6439271 13.0386882 255 79 163
20.1241841 61.9146917 12.9443984 255 79 163
20.389695 61.5204967 13.2568115 255 79 163
20.1923244 61.696172 13.058502 255 79 163
20.3151089 61.5464052 13.2599573 255 79 163
20.1502829 61.7587326 13.0822281 255 79 163
20.2482003 61.5881401 13.2650249 255 79 163
20.1241841 61.8284718 13.1086767 255 79 163
20.389695 61.5204967 13.5063487 255 79 163
20.1923244 61.6436086 13.27176 255 79 163
20.3151089 61.5464052 13.5032029 255 79 163
20.1502829 61.7100293 13.2798249 255 79 163
20.2482003 61.5881401 13.4981353 255 79 163
20.1241841 61.7840717 13.2888153 255 79 163
20.389695 61.5802148 13.7486349 255 79 163
20.1923244 61.6436086 13.4914002 255 79 163
20.3151089 61.6046177 13.7393801 255 79 163
20.1502829 61.7100293 13.4833353 255 79 163
20.2482003 61.6439271 13.724472 255 79 163
20.1241841 61.7840717 13.4743449 255 79 163
20.389695 61.6961806 13.9695892 255 79 163
20.1923244 61.696172 13.7046581 255 79 163
20.3151089 61.7176595 13.9547634 255 79 163
20.1502829 61.7587326 13.680932 255 79 163
20.2482003 61.7522589 13.9308811 255 79 163
20.1241841 61.8284718 13.6544834 255 79 163
20.389695 61.8616544 14.1563705 255 79 163
20.1923244 61.7982439 13.89914 255 79 163
20.3151089 61.8789611 14.1368353 255 79 163
20.1502829 61.8533086 13.8611316 255 79 163
20.2482003 61.9068398 14.1053668 255 79 163
20.1241841 61.9146917 13.8187618 255 79 163
20.389695 62.0670196 14.2981238 255 79 163
20.1923244 61.9438923 14.0635431 255 79 163
20.3151089 62.0791483 14.2750145 255 79 163
20.1502829 61.9882609 14.0134613 255 79 163
20.2482003 62.0986859 14.2377886 255 79 163
20.1241841 62.0377207 13.9576328 255 79 163
20.389695 62.300341 14.386611 255 79 163
20.1923244 62.1246527 14.1883129 255 79 163
20.3151089 62.3065868 14.3612705 255 79 163
20.1502829 62.1557467 14.1290684 255 79 163
20.2482003 62.316648 14.3204507 255 79 163
20.1241841 62.1904086 14.0630256 255 79 163
20.1923244 62.33002 14.2661985 255 79 163
20.1502829 62.3460322 14.2012341 255 79 163
20.1241841 62.3638819 14.1288154 255 79 163
20.1153366 62.5480588 14.0726549 218 222 230
20.1153366 62.3826738 14.0525735 218 222 230
20.1153366 62.2269004 13.9934964 218 222 230
20.1153366 62.0897915 13.898857 218 222 230
20.1153366 61.9793154 13.7741553 218 222 230
20.1153366 61.9018927 13.6266386 218 222 230
20.1153366 61.8620228 13.4648799 218 222 230
20.1153366 61.8620228 13.2982802 218 222 230
20.1153366 61.9018927 13.1365216 218 222 230
20.1153366 61.9793154 12.9890049 218 222 230
20.1153366 62.0897915 12.8643032 218 222 230
20.1153366 62.2269004 12.7696638 218 222 230
20.1153366 62.3826738 12.7105867 218 222 230
20.1153366 62.5480588 12.6905053 218 222 230
20.1153366 62.7134438 12.7105867 218 222 230
20.1153366 62.8692173 12.7696638 218 222 230
20.1153366 63.0063262 12.8643032 218 222 230
20.1153366 63.1168022 12.9890049 218 222 230
20.1153366 63.1942249 13.1365216 218 222 230
20.1153366 63.2340949 13.2982802 218 222 230
20.1153366 63.2340949 13.4648799 218 222 230
20.1153366 63.1942249 13.6266386 218 222 230
20.1153366 63.1168022 13.7741553 218 222 230
20.1153366 63.0063262 13.898857 218 222 230
20.1153366 62.8692173 13.9934964 218 222 230
20.1153366 62.7134438 14.0525735 218 222 230
20.1153366 62.5480588 12.800199 218 222 230
20.1153366 62.4089252 12.8170929 218 222 230
20.1153366 62.2778776 12.8667927 218 222 230
20.1153366 62.1625319 12.9464101 218 222 230
20.1153366 62.0695916 13.051318 218 222 230
20.1153366 62.0044581 13.1754195 218 222 230
20.1153366 61.9709167 13.3115023 218 222 230
20.1153366 61.9709167 13.4516578 218 222 230
20.1153366 62.0044581 13.5877407 218 222 230
20.1153366 62.0695916 13.7118422 218 222 230
20.1153366 62.1625319 13.8167501 218 222 230
20.1153366 62.2778776 13.8963675 218 222 230
20.1153366 62.4089252 13.9460673 218 222 230
20.1153366 62.5480588 13.9629611 218 222 230
20.1153366 62.6871924 13.9460673 218 222 230
20.1153366 62.8182401 13.8963675 218 222 230
20.1153366 62.9335858 13.8167501 218 222 230
20.1153366 63.026526 13.7118422 218 222 230
20.1153366 63.0916595 13.5877407 218 222 230
20.1153366 63.1252009 13.4516578 218 222 230
20.1153366 63.1252009 13.3115023 218 222 230
20.1153366 63.0916595 13.1754195 218 222 230
20.1153366 63.026526 13.051318 218 222 230
20.1153366 62.9335858 12.9464101 218 222 230
20.1153366 62.8182401 12.8667927 218 222 230
20.1153366 62.6871924 12.8170929 218 222 230
36.6839338 62.5480588 12.800199 218 222 230
36.6839338 62.4089252 12.8170929 218 222 230
36.6839338 62.2778776 12.8667927 218 222 230
36.6839338 62.1625319 12.9464101 218 222 230
36.6839338 62.0695916 13.051318 218 222 230
36.6839338 62.0044581 13.1754195 218 222 230
36.6839338 61.9709167 13.3115023 218 222 230
36.6839338 61.9709167 13.4516578 218 222 230
36.6839338 62.0044581 13.5877407 218 222 230
36.6839338 62.0695916 13.7118422 218 222 230
36.6839338 62.1625319 13.8167501 218 222 230
36.6839338 62.2778776 13.8963675 218 222 230
36.6839338 62.4089252 13.9460673 218 222 230
36.6839338 62.5480588 13.9629611 218 222 230
36.6839338 62.6871924 13.9460673 218 222 230
36.6839338 62.8182401 13.8963675 218 222 230
36.6839338 62.9335858 13.8167501 218 222 230
36.6839338 63.026526 13.7118422 218 222 230
36.6839338 63.0916595 13.5877407 218 222 230
36.6839338 63.1252009 13.4516578 218 222 230
36.6839338 63.1252009 13.3115023 218 222 230
36.6839338 63.0916595 13.1754195 218 222 230
36.6839338 63.026526 13.051318 218 222 230
36.6839338 62.9335858 12.9464101 218 222 230
36.6839338 62.8182401 12.8667927 218 222 230
36.6839338 62.6871924 12.8170929 218 222 230
36.6839338 62.5480588 12.800199 218 222 230
20.1153366 62.5480588 12.800199 218 222 230
20.1153366 62.5480588 12.800199 218 222 230
20.1153366 62.4089252 12.8170929 218 222 230
20.1153366 62.2778776 12.8667927 218 222 230
20.1153366 62.1625319 12.9464101 218 222 230
20.1153366 62.0695916 13.051318 218 222 230
20.1153366 62.0044581 13.1754195 218 222 230
20.1153366 61.9709167 13.3115023 218 222 230
20.1153366 61.9709167 13.4516578 218 222 230
20.1153366 62.0044581 13.5877407 218 222 230
20.1153366 62.0695916 13.7118422 218 222 230
20.1153366 62.1625319 13.8167501 218 222 230
20.1153366 62.2778776 13.8963675 218 222 230
20.1153366 62.4089252 13.9460673 218 222 230
20.1153366 62.5480588 13.9629611 218 222 230
20.1153366 62.6871924 13.9460673 218 222 230
20.1153366 62.8182401 13.8963675 218 222 230
20.1153366 62.9335858 13.8167501 218 222 230
20.1153366 63.026526 13.7118422 218 222 230
20.1153366 63.0916595 13.5877407 218 222 230
20.1153366 63.1252009 13.4516578 218 222 230
20.1153366 63.1252009 13.3115023 218 222 230
20.1153366 63.0916595 13.1754195 218 222 230
20.1153366 63.026526 13.051318 218 222 230
20.1153366 62.9335858 12.9464101 218 222 230
20.1153366 62.8182401 12.8667927 218 222 230
20.1153366 62.6871924 12.8170929 218 222 230
36.6839338 62.5480588 12.800199 218 222 230
36.6839338 62.4089252 12.8170929 218 222 230
36.6839338 62.2778776 12.8667927 218 222 230
36.6839338 62.1625319 12.9464101 218 222 230
36.6839338 62.0695916 13.051318 218 222 230
36.6839338 62.0044581 13.1754195 218 222 230
36.6839338 61.9709167 13.3115023 218 222 230
36.6839338 61.9709167 13.4516578 218 222 230
36.6839338 62.0044581 13.5877407 218 222 230
36.6839338 62.0695916 13.7118422 218 222 230
36.6839338 62.1625319 13.8167501 218 222 230
36.6839338 62.2778776 13.8963675 218 222 230
36.6839338 62.4089252 13.9460673 218 222 230
36.6839338 62.5480588 13.9629611 218 222 230
36.6839338 62.6871924 13.9460673 218 222 230
36.6839338 62.8182401 13.8963675 218 222 230
36.6839338 62.9335858 13.8167501 218 222 230
36.6839338 63.026526 13.7118422 218 222 230
36.6839338 63.0916595 13.5877407 218 222 230
36.6839338 63.1252009 13.4516578 218 222 230
36.6839338 63.1252009 13.3115023 218 222 230
36.6839338 63.0916595 13.1754195 218 222 230
36.6839338 63.026526 13.051318 218 222 230
36.6839338 62.9335858 12.9464101 218 222 230
36.6839338 62.8182401 12.8667927 218 222 230
36.6839338 62.6871924 12.8170929 218 222 230
3 6 8 7
3 6 0 8
3 39 40 1
3 41 1 40
3 42 1 41
3 43 1 42
3 44 39 1
3 49 44 1
3 48 49 1
3 47 48 1
3 46 47 1
3 45 46 1
3 50 45 1
3 55 50 1
3 55 1 0
3 54 55 0
3 53 54 0
3 53 0 6
3 52 53 6
3 51 52 6
3 56 51 6
3 60 56 6
3 25 37 35
3 26 37 25
3 24 25 35
3 27 37 26
3 23 24 35
3 28 37 27
3 22 23 35
3 22 35 36
3 29 37 28
3 21 22 36
3 21 36 57
3 21 57 58
3 20 21 58
3 20 58 59
3 19 60 6
3 19 20 59
3 19 59 60
3 18 19 6
3 17 18 6
3 2 29 30
3 2 30 31
3 2 31 32
3 2 32 33
3 2 33 34
3 2 34 9
3 2 38 37
3 2 37 29
3 5 9 10
3 5 10 11
3 5 11 12
3 5 12 13
3 5 13 14
3 5 2 9
3 3 5 4
3 1 43 2
3 43 38 2
3 2 5 3
3 5 15 6
3 15 16 6
3 16 17 6
3 5 14 15
3 64 61 62
3 64 63 61
3 75 65 66
3 75 74 65
3 76 66 67
3 76 75 66
3 77 76 67
3 78 67 68
3 78 68 69
3 78 77 67
3 79 69 70
3 79 78 69
3 80 70 71
3 80 79 70
3 81 71 72
3 81 80 71
3 73 81 72
3 90 91 92
3 90 92 93
3 89 90 93
3 88 93 94
3 88 89 93
3 87 94 95
3 87 88 94
3 86 95 96
3 86 87 95
3 85 96 97
3 85 86 96
3 84 97 98
3 84 98 99
3 84 85 97
3 83 99 82
3 83 84 99
3 106 104 103
3 107 103 102
3 107 106 103
3 108 102 101
3 108 107 102
3 109 101 100
3 109 108 101
3 105 109 100
3 121 110 111
3 121 111 112
3 121 120 110
3 122 112 113
3 122 121 112
3 123 113 114
3 123 122 113
3 124 114 115
3 124 123 114
3 125 124 115
3 126 115 116
3 126 125 115
3 127 116 117
3 127 126 116
3 119 117 118
3 119 127 117
3 131 132 140
3 130 139 138
3 130 140 139
3 130 131 140
3 129 138 137
3 129 130 138
3 128 129 137
3 144 137 136
3 144 128 137
3 143 136 135
3 143 144 136
3 142 135 134
3 142 143 135
3 141 134 133
3 141 142 134
3 155 145 146
3 156 146 147
3 156 155 146
3 157 147 148
3 157 156 147
3 158 148 149
3 158 157 148
3 159 149 150
3 159 158 149
3 160 150 151
3 160 159 150
3 161 160 151
3 162 151 152
3 162 161 151
3 154 152 153
3 154 162 152
3 165 192 191
3 166 192 165
3 167 193 192
3 167 192 166
3 168 194 193
3 168 195 194
3 168 193 167
3 169 195 168
3 170 196 195
3 170 195 169
3 171 197 196
3 171 198 197
3 171 196 170
3 172 198 171
3 173 199 198
3 173 198 172
3 174 200 199
3 174 199 173
3 175 201 200
3 175 202 201
3 175 200 174
3 176 202 175
3 177 202 176
3 177 203 202
3 178 203 177
3 178 204 203
3 179 204 178
3 179 205 204
3 179 206 205
3 180 206 179
3 181 206 180
3 181 207 206
3 181 208 207
3 182 208 181
3 182 209 208
3 183 209 182
3 184 209 183
3 184 210 209
3 185 210 184
3 185 211 210
3 186 211 185
3 186 212 211
3 187 212 186
3 187 213 212
3 188 214 213
3 188 213 187
3 188 215 214
3 189 215 188
3 190 216 215
3 190 215 189
3 163 164 216
3 163 216 190
3 218 219 217
3 218 220 219
3 227 232 228
3 226 232 227
3 225 230 231
3 225 231 232
3 225 232 226
3 224 230 225
3 223 229 230
3 223 230 224
3 222 221 229
3 222 229 223
3 234 235 233
3 234 236 235
3 237 240 239
3 238 240 237
3 241 244 243
3 242 244 241
3 251 256 252
3 250 255 256
3 250 256 251
3 249 255 250
3 248 254 255
3 248 255 249
3 247 245 253
3 247 253 254
3 247 254 248
3 246 245 247
3 263 268 264
3 262 268 263
3 261 266 267
3 261 267 268
3 261 268 262
3 260 266 261
3 259 257 265
3 259 265 266
3 259 266 260
3 258 257 259
3 270 271 269
3 270 272 271
3 273 276 275
3 274 276 273
3 282 284 283
3 282 288 284
3 281 287 288
3 281 288 282
3 280 286 287
3 280 287 281
3 279 285 286
3 279 286 280
3 278 277 285
3 278 285 279
3 297 298 299
3 297 306 305
3 297 299 306
3 296 305 304
3 296 297 305
3 295 304 303
3 295 296 304
3 294 303 302
3 294 295 303
3 293 302 301
3 293 294 302
3 292 301 300
3 292 293 301
3 291 300 289
3 291 292 300
3 290 291 289
3 339 338 321
3 337 321 338
3 340 339 321
3 336 321 337
3 335 321 336
3 334 321 335
3 333 321 334
3 332 321 333
3 353 340 321
3 353 341 340
3 352 341 353
3 354 353 321
3 355 354 321
3 356 355 321
3 357 341 352
3 357 342 341
3 362 343 342
3 362 342 357
3 361 343 362
3 360 344 343
3 360 343 361
3 359 344 360
3 359 345 344
3 358 345 359
3 363 345 358
3 363 346 345
3 368 347 346
3 368 346 363
3 367 322 347
3 367 347 368
3 366 322 367
3 365 323 322
3 365 322 366
3 364 324 323
3 364 323 365
3 369 324 364
3 373 325 324
3 373 324 369
3 372 325 373
3 320 321 332
3 320 329 328
3 320 330 329
3 320 331 330
3 320 332 331
3 312 313 314
3 312 314 315
3 312 315 316
3 312 316 317
3 312 317 318
3 312 318 319
3 312 319 320
3 312 328 327
3 312 320 328
3 390 348 350
3 391 390 350
3 389 348 390
3 392 391 350
3 388 348 389
3 393 392 350
3 387 348 388
3 387 349 348
3 387 370 349
3 394 393 350
3 386 370 387
3 386 371 370
3 385 326 325
3 385 371 386
3 385 372 371
3 385 325 372
3 384 326 385
3 384 327 326
3 383 312 327
3 383 327 384
3 382 312 383
3 381 312 382
3 308 394 350
3 308 350 351
3 308 375 374
3 308 376 375
3 308 395 394
3 308 396 395
3 308 397 396
3 308 398 397
3 308 399 398
3 308 374 399
3 311 376 308
3 311 312 381
3 311 377 376
3 311 378 377
3 311 379 378
3 311 380 379
3 311 381 380
3 310 311 308
3 307 309 310
3 308 307 310
3 321 308 356
3 356 308 351
3 401 408 407
3 401 409 408
3 401 410 409
3 401 411 410
3 401 412 411
3 401 413 412
3 401 414 413
3 402 404 403
3 402 405 404
3 402 406 405
3 402 407 406
3 400 407 402
3 400 401 407
3 416 417 418
3 416 418 415
3 425 423 424
3 427 422 423
3 427 425 426
3 427 423 425
3 429 421 422
3 429 427 428
3 429 422 427
3 430 420 419
3 430 419 421
3 430 421 429
3 435 430 436
3 432 431 420
3 434 430 435
3 433 420 430
3 433 430 434
3 433 432 420
3 438 440 437
3 439 440 438
3 444 442 441
3 444 443 442
3 511 473 472
3 511 472 504
3 512 474 473
3 512 473 511
3 513 475 474
3 513 474 512
3 514 476 475
3 514 475 513
3 515 477 476
3 515 476 514
3 516 470 471
3 516 478 477
3 516 471 478
3 516 477 515
3 517 511 504
3 517 504 503
3 518 511 517
3 518 512 511
3 519 513 512
3 519 512 518
3 520 513 519
3 520 514 513
3 521 515 514
3 521 514 520
3 522 516 515
3 522 469 470
3 522 470 516
3 522 515 521
3 523 503 502
3 523 517 503
3 524 517 523
3 524 518 517
3 525 518 524
3 525 519 518
3 526 520 519
3 526 519 525
3 527 521 520
3 527 520 526
3 528 522 521
3 528 468 469
3 528 521 527
3 528 469 522
3 529 502 501
3 529 523 502
3 530 524 523
3 530 523 529
3 531 525 524
3 531 524 530
3 532 525 531
3 532 526 525
3 533 526 532
3 533 527 526
3 534 467 468
3 534 468 528
3 534 527 533
3 534 528 527
3 535 529 501
3 535 530 529
3 535 501 500
3 536 530 535
3 536 531 530
3 537 531 536
3 538 531 537
3 538 532 531
3 538 533 532
3 539 533 538
3 540 533 539
3 540 465 466
3 540 466 467
3 540 467 534
3 540 534 533
3 541 535 500
3 541 500 499
3 541 536 535
3 542 536 541
3 543 538 537
3 543 537 536
3 543 536 542
3 544 538 543
3 545 539 538
3 545 538 544
3 546 540 539
3 546 539 545
3 546 465 540
3 547 541 499
3 547 498 497
3 547 499 498
3 548 542 541
3 548 541 547
3 549 543 542
3 549 542 548
3 550 544 543
3 550 543 549
3 551 544 550
3 551 545 544
3 552 464 465
3 552 465 546
3 552 546 545
3 552 545 551
3 553 547 497
3 553 497 496
3 554 547 553
3 554 548 547
3 555 549 548
3 555 550 549
3 555 548 554
3 556 551 550
3 556 550 555
3 557 551 556
3 558 463 464
3 558 464 552
3 558 552 551
3 558 551 557
3 559 553 496
3 560 554 553
3 560 555 554
3 560 553 559
3 561 556 555
3 561 555 560
3 562 557 556
3 562 556 561
3 563 557 562
3 564 463 558
3 564 462 463
3 564 558 557
3 564 557 563
3 565 496 495
3 565 559 496
3 566 559 565
3 566 560 559
3 566 561 560
3 567 561 566
3 568 562 561
3 568 563 562
3 568 561 567
3 569 563 568
3 570 563 569
3 570 461 462
3 570 462 564
3 570 564 563
3 571 565 495
3 571 495 494
3 572 565 571
3 572 566 565
3 573 566 572
3 573 567 566
3 574 568 567
3 574 567 573
3 575 569 568
3 575 568 574
3 576 461 570
3 576 460 461
3 576 569 575
3 576 570 569
3 577 571 494
3 577 494 493
3 577 572 571
3 578 573 572
3 578 572 577
3 579 574 573
3 579 573 578
3 580 574 579
3 581 574 580
3 581 576 575
3 581 575 574
3 582 459 460
3 582 460 576
3 582 576 581
3 583 577 493
3 583 492 491
3 583 493 492
3 584 578 577
3 584 577 583
3 585 579 578
3 585 578 584
3 586 580 579
3 586 579 585
3 587 580 586
3 587 581 580
3 588 458 459
3 588 582 581
3 588 581 587
3 588 459 582
3 589 584 583
3 589 583 491
3 590 584 589
3 591 585 584
3 591 584 590
3 592 586 585
3 592 587 586
3 592 585 591
3 593 588 587
3 593 587 592
3 594 457 458
3 594 458 588
3 594 588 593
3 595 490 489
3 595 491 490
3 595 589 491
3 596 590 589
3 596 591 590
3 596 589 595
3 597 591 596
3 598 592 591
3 598 593 592
3 598 591 597
3 599 594 593
3 599 593 598
3 600 456 457
3 600 457 594
3 600 594 599
3 601 595 489
3 601 596 595
3 602 596 601
3 603 597 596
3 603 598 597
3 603 596 602
3 604 598 603
3 605 598 604
3 605 599 598
3 606 599 605
3 606 455 456
3 606 456 600
3 606 600 599
3 607 489 488
3 607 601 489
3 608 601 607
3 608 602 601
3 609 602 608
3 609 603 602
3 610 604 603
3 610 603 609
3 611 605 604
3 611 604 610
3 612 606 605
3 612 454 455
3 612 605 611
3 612 455 606
3 613 488 487
3 613 607 488
3 614 607 613
3 614 608 607
3 615 608 614
3 615 610 609
3 615 609 608
3 616 610 615
3 617 611 610
3 617 610 616
3 618 453 454
3 618 454 612
3 618 612 611
3 618 611 617
3 619 614 613
3 619 613 487
3 619 487 486
3 620 614 619
3 620 615 614
3 621 616 615
3 621 615 620
3 622 617 616
3 622 616 621
3 623 617 622
3 623 618 617
3 624 451 452
3 624 452 453
3 624 453 618
3 624 618 623
3 625 620 619
3 625 486 485
3 625 619 486
3 626 620 625
3 626 621 620
3 627 622 621
3 627 621 626
3 628 623 622
3 628 622 627
3 629 624 623
3 629 623 628
3 630 451 624
3 630 624 629
3 631 485 484
3 631 625 485
3 632 626 625
3 632 625 631
3 633 626 632
3 633 627 626
3 634 628 627
3 634 627 633
3 635 628 634
3 635 629 628
3 635 630 629
3 636 449 450
3 636 450 451
3 636 451 630
3 636 630 635
3 637 484 483
3 637 632 631
3 637 631 484
3 638 632 637
3 639 632 638
3 639 633 632
3 639 634 633
3 640 634 639
3 641 634 640
3 641 635 634
3 642 636 635
3 642 635 641
3 642 449 636
3 643 483 482
3 643 637 483
3 644 639 638
3 644 637 643
3 644 638 637
3 645 639 644
3 646 640 639
3 646 641 640
3 646 639 645
3 647 642 641
3 647 641 646
3 648 448 449
3 648 449 642
3 648 642 647
3 649 482 481
3 649 643 482
3 650 643 649
3 650 644 643
3 651 644 650
3 651 645 644
3 652 646 645
3 652 645 651
3 653 647 646
3 653 646 652
3 654 447 448
3 654 448 648
3 654 648 647
3 654 647 653
3 655 650 649
3 655 480 479
3 655 481 480
3 655 649 481
3 655 479 505
3 655 505 506
3 656 650 655
3 656 655 506
3 657 652 651
3 657 656 506
3 657 506 507
3 657 507 508
3 657 651 650
3 657 650 656
3 658 653 652
3 658 652 657
3 658 657 508
3 659 654 653
3 659 653 658
3 659 508 509
3 659 658 508
3 660 445 446
3 660 446 447
3 660 447 654
3 660 654 659
3 660 509 510
3 660 510 445
3 660 659 509
3 669 670 677
3 668 676 675
3 668 677 676
3 668 669 677
3 667 675 674
3 667 668 675
3 666 674 673
3 666 667 674
3 665 673 672
3 665 666 673
3 664 672 671
3 664 665 672
3 663 671 661
3 663 664 671
3 662 663 661
3 689 678 679
3 690 679 680
3 690 689 679
3 691 680 681
3 691 690 680
3 692 681 682
3 692 682 683
3 692 691 681
3 693 683 684
3 693 692 683
3 694 684 685
3 694 693 684
3 695 685 686
3 695 694 685
3 688 686 687
3 688 695 686
3 706 696 697
3 706 705 696
3 707 697 698
3 707 706 697
3 708 707 698
3 709 698 699
3 709 708 698
3 710 699 700
3 710 709 699
3 711 700 701
3 711 710 700
3 712 701 702
3 712 711 701
3 713 702 703
3 713 712 702
3 704 713 703
3 714 716 715
3 743 716 714
3 744 717 716
3 744 718 717
3 744 716 743
3 745 719 718
3 745 718 744
3 746 719 745
3 747 720 719
3 747 721 720
3 747 719 746
3 748 721 747
3 749 722 721
3 749 723 722
3 749 721 748
3 750 723 749
3 751 724 723
3 751 723 750
3 752 725 724
3 752 724 751
3 753 726 725
3 753 727 726
3 753 725 752
3 754 727 753
3 755 727 754
3 755 728 727
3 756 729 728
3 756 728 755
3 757 730 729
3 757 729 756
3 758 731 730
3 758 730 757
3 759 732 731
3 759 731 758
3 760 733 732
3 760 732 759
3 761 734 733
3 761 735 734
3 761 733 760
3 762 736 735
3 762 735 761
3 763 736 762
3 764 737 736
3 764 736 763
3 765 738 737
3 765 737 764
3 766 739 738
3 766 740 739
3 766 738 765
3 767 740 766
3 742 741 740
3 742 740 767
3 834 795 796
3 834 827 795
3 835 796 797
3 835 834 796
3 836 797 798
3 836 835 797
3 837 826 827
3 837 827 834
3 838 836 798
3 838 798 799
3 839 834 835
3 839 837 834
3 840 799 800
3 840 838 799
3 841 839 835
3 841 835 836
3 842 794 793
3 842 800 801
3 842 801 794
3 842 840 800
3 843 825 826
3 843 826 837
3 844 841 836
3 844 836 838
3 845 843 837
3 845 837 839
3 846 838 840
3 846 844 838
3 847 845 839
3 847 839 841
3 848 793 792
3 848 842 793
3 848 846 840
3 848 840 842
3 849 824 825
3 849 825 843
3 850 847 841
3 850 841 844
3 851 849 843
3 851 843 845
3 852 844 846
3 852 850 844
3 853 851 845
3 853 845 847
3 854 848 792
3 854 792 791
3 854 846 848
3 854 852 846
3 855 823 824
3 855 824 849
3 856 853 847
3 856 847 850
3 857 855 849
3 857 849 851
3 858 856 850
3 858 850 852
3 859 857 851
3 859 851 853
3 860 858 852
3 860 791 790
3 860 854 791
3 860 852 854
3 861 823 855
3 861 822 823
3 862 853 856
3 862 859 853
3 863 855 857
3 863 861 855
3 864 856 858
3 864 862 856
3 865 863 857
3 865 857 859
3 866 860 790
3 866 858 860
3 866 864 858
3 866 790 789
3 867 822 861
3 867 821 822
3 868 859 862
3 868 865 859
3 869 867 861
3 869 861 863
3 870 862 864
3 870 868 862
3 870 864 866
3 871 869 863
3 871 863 865
3 872 789 788
3 872 866 789
3 872 870 866
3 873 821 867
3 873 820 821
3 874 871 865
3 874 865 868
3 875 873 867
3 875 867 869
3 876 868 870
3 876 874 868
3 877 869 871
3 877 875 869
3 878 788 787
3 878 872 788
3 878 870 872
3 878 876 870
3 879 820 873
3 879 819 820
3 880 877 871
3 880 871 874
3 881 879 873
3 881 873 875
3 882 874 876
3 882 880 874
3 883 875 877
3 883 881 875
3 884 787 786
3 884 878 787
3 884 882 876
3 884 876 878
3 885 879 881
3 885 818 819
3 885 819 879
3 886 877 880
3 886 883 877
3 887 885 881
3 888 886 880
3 888 880 882
3 889 881 883
3 889 887 881
3 890 785 784
3 890 786 785
3 890 884 786
3 890 882 884
3 890 888 882
3 891 817 818
3 891 818 885
3 892 889 883
3 892 883 886
3 892 886 888
3 893 885 887
3 893 891 885
3 894 892 888
3 895 887 889
3 895 893 887
3 896 890 784
3 896 894 888
3 896 888 890
3 897 817 891
3 897 816 817
3 898 895 889
3 898 889 892
3 899 897 891
3 899 891 893
3 900 898 892
3 900 892 894
3 901 893 895
3 901 899 893
3 902 900 894
3 902 896 784
3 902 894 896
3 902 784 783
3 903 816 897
3 903 815 816
3 904 895 898
3 904 901 895
3 905 903 897
3 905 897 899
3 906 898 900
3 906 904 898
3 907 899 901
3 907 905 899
3 908 783 782
3 908 906 900
3 908 900 902
3 908 902 783
3 909 815 903
3 909 814 815
3 910 901 904
3 910 907 901
3 910 904 906
3 911 903 905
3 911 909 903
3 912 910 906
3 913 911 905
3 913 905 907
3 914 781 780
3 914 782 781
3 914 908 782
3 914 906 908
3 914 912 906
3 915 813 814
3 915 814 909
3 916 907 910
3 916 913 907
3 916 910 912
3 917 909 911
3 917 915 909
3 918 912 914
3 918 916 912
3 919 911 913
3 919 917 911
3 920 914 780
3 920 918 914
3 921 812 813
3 921 813 915
3 921 915 917
3 922 919 913
3 922 913 916
3 923 917 919
3 923 921 917
3 924 916 918
3 924 922 916
3 925 923 919
3 926 780 779
3 926 920 780
3 926 918 920
3 926 924 918
3 927 812 921
3 927 811 812
3 928 925 919
3 928 919 922
3 928 922 924
3 929 927 921
3 929 921 923
3 930 928 924
3 931 929 923
3 931 923 925
3 932 924 926
3 932 779 778
3 932 930 924
3 932 926 779
3 933 810 811
3 933 811 927
3 934 925 928
3 934 931 925
3 935 927 929
3 935 929 931
3 935 933 927
3 936 934 928
3 936 928 930
3 937 935 931
3 937 931 934
3 938 778 777
3 938 932 778
3 938 930 932
3 938 936 930
3 939 810 933
3 939 809 810
3 940 937 934
3 941 939 933
3 941 933 935
3 942 934 936
3 942 940 934
3 943 935 937
3 943 941 935
3 944 942 936
3 944 777 776
3 944 936 938
3 944 938 777
3 945 939 941
3 945 808 809
3 945 809 939
3 946 943 937
3 946 937 940
3 947 945 941
3 948 940 942
3 948 946 940
3 949 941 943
3 949 947 941
3 949 943 946
3 950 775 774
3 950 776 775
3 950 948 942
3 950 942 944
3 950 944 776
3 951 806 807
3 951 807 808
3 951 808 945
3 952 949 946
3 953 945 947
3 953 951 945
3 954 946 948
3 954 948 950
3 954 952 946
3 955 947 949
3 955 953 947
3 956 950 774
3 956 954 950
3 957 806 951
3 957 951 953
3 958 955 949
3 958 949 952
3 959 957 953
3 960 952 954
3 960 958 952
3 961 959 953
3 961 955 958
3 961 953 955
3 962 960 954
3 962 773 772
3 962 774 773
3 962 956 774
3 962 954 956
3 963 805 806
3 963 806 957
3 964 961 958
3 965 957 959
3 965 963 957
3 966 958 960
3 966 964 958
3 967 961 964
3 967 965 959
3 967 959 961
3 968 772 771
3 968 966 960
3 968 962 772
3 968 960 962
3 969 805 963
3 969 963 965
3 969 803 804
3 969 804 805
3 970 967 964
3 971 969 965
3 972 966 968
3 972 970 964
3 972 964 966
3 973 965 967
3 973 971 965
3 973 967 970
3 974 968 771
3 974 972 968
3 975 803 969
3 975 969 971
3 975 802 803
3 975 828 802
3 975 829 828
3 976 973 970
3 977 975 971
3 977 829 975
3 978 976 970
3 978 970 972
3 979 971 973
3 979 829 977
3 979 830 829
3 979 977 971
3 980 771 770
3 980 974 771
3 980 972 974
3 980 978 972
3 981 973 976
3 981 979 973
3 981 830 979
3 981 831 830
3 982 976 978
3 982 981 976
3 982 978 980
3 982 832 831
3 982 831 981
3 983 769 768
3 983 770 769
3 983 980 770
3 983 982 980
3 983 833 832
3 983 768 833
3 983 832 982
3 1013 994 995
3 1014 993 994
3 1014 994 1013
3 1012 995 996
3 1012 1013 995
3 1015 992 993
3 1015 993 1014
3 1011 1012 996
3 997 1011 996
3 1016 991 992
3 1016 992 1015
3 1010 1011 997
3 1017 990 991
3 1017 991 1016
3 998 1010 997
3 1035 1010 998
3 1018 989 990
3 1018 990 1017
3 999 1035 998
3 1034 1035 999
3 1019 988 989
3 1019 989 1018
3 1000 1034 999
3 1033 1034 1000
3 987 988 1019
3 987 1019 1020
3 1001 1032 1033
3 1001 1033 1000
3 986 987 1020
3 986 1020 1021
3 1002 1031 1032
3 1002 1032 1001
3 1022 986 1021
3 985 986 1022
3 1003 1031 1002
3 1003 1030 1031
3 984 985 1022
3 984 1022 1023
3 1024 984 1023
3 1004 1030 1003
3 1004 1029 1030
3 1009 984 1024
3 1009 1024 1025
3 1005 1029 1004
3 1005 1028 1029
3 1008 1025 1026
3 1008 1009 1025
3 1006 1027 1028
3 1006 1028 1005
3 1007 1026 1027
3 1007 1027 1006
3 1007 1008 1026
3 1061 1062 1063
3 1061 1063 1089
3 1060 1089 1088
3 1060 1061 1089
3 1059 1088 1087
3 1059 1060 1088
3 1058 1086 1085
3 1058 1087 1086
3 1058 1059 1087
3 1057 1058 1085
3 1056 1084 1083
3 1056 1085 1084
3 1056 1057 1085
3 1055 1083 1082
3 1055 1056 1083
3 1054 1055 1082
3 1053 1081 1080
3 1053 1082 1081
3 1053 1054 1082
3 1052 1053 1080
3 1051 1052 1080
3 1051 1079 1078
3 1051 1080 1079
3 1050 1051 1078
3 1049 1050 1078
3 1049 1077 1076
3 1049 1078 1077
3 1048 1049 1076
3 1047 1048 1076
3 1047 1076 1075
3 1046 1047 1075
3 1046 1074 1073
3 1046 1075 1074
3 1045 1046 1073
3 1044 1045 1073
3 1044 1073 1072
3 1043 1072 1071
3 1043 1044 1072
3 1042 1070 1069
3 1042 1071 1070
3 1042 1043 1071
3 1041 1042 1069
3 1040 1069 1068
3 1040 1041 1069
3 1039 1068 1067
3 1039 1040 1068
3 1038 1066 1065
3 1038 1067 1066
3 1038 1039 1067
3 1037 1038 1065
3 1036 1065 1064
3 1036 1037 1065
3 1114 1113 1112
3 1110 1112 1111
3 1107 1109 1108
3 1107 1110 1109
3 1107 1112 1110
3 1106 1112 1107
3 1105 1114 1112
3 1105 1112 1106
3 1104 1115 1114
3 1104 1114 1105
3 1096 1095 1094
3 1103 1090 1115
3 1103 1115 1104
3 1102 1091 1090
3 1102 1092 1091
3 1102 1090 1103
3 1101 1092 1102
3 1099 1097 1096
3 1099 1098 1097
3 1099 1096 1094
3 1100 1093 1092
3 1100 1094 1093
3 1100 1092 1101
3 1100 1099 1094
