ply
format ascii 1.0
comment generated by blendit.inference.finetune_visualize
element vertex 971
property float x
property float y
property float z
property uchar red
property uchar green
property uchar blue
element face 1062
property list uchar int vertex_indices
end_header
0 0 0 218 222 230
-2.22044605e-16 0 39.7204323 218 222 230
0 91.6400601 0 218 222 230
-2.22044605e-16 91.6400601 73.4894182 218 222 230
-2.22044605e-16 64.5617244 73.4894182 218 222 230
-2.22044605e-16 64.5617244 39.7204323 218 222 230
61.8152602 0 18.0174815 218 222 230
61.8152602 0 32.2933683 218 222 230
59.463507 0 17.8633394 218 222 230
57.1519929 0 17.4035507 218 222 230
54.9202686 0 16.6459824 218 222 230
52.8065195 0 15.6035967 218 222 230
50.8469124 0 14.2942291 218 222 230
49.0749769 0 12.7402833 218 222 230
47.5210311 0 10.9683478 218 222 230
46.2116635 0 9.00874074 218 222 230
45.1692779 0 6.89499165 218 222 230
44.4117095 0 4.66326735 218 222 230
43.9519208 0 2.35175325 218 222 230
43.7977787 0 0 218 222 230
0 0 0 218 222 230
-2.22044605e-16 0 39.7204323 218 222 230
0.0406679527 0 40.0813704 218 222 230
0.16063255 0 40.4242095 218 222 230
0.353878266 0 40.7317583 218 222 230
0.610714953 0 40.988595 218 222 230
0.918263748 0 41.1818407 218 222 230
1.26110287 0 41.3018053 218 222 230
1.62204093 0 41.3424732 218 222 230
49.5141612 3.88578059e-16 41.3424732 218 222 230
49.8763956 0 41.3026374 218 222 230
50.2208377 0 41.1850864 218 222 230
50.5305691 0 40.9955943 218 222 230
50.7903764 0 40.7434685 218 222 230
50.9874983 0 40.4410931 218 222 230
51.1122525 0 40.10332 218 222 230
51.1470676 0 39.9132432 218 222 230
51.1587277 0 39.7204323 218 222 230
51.1587277 0 35.5374502 218 222 230
52.8032942 0 33.9154092 218 222 230
52.4410598 0 33.9552451 218 222 230
52.0966177 0 34.072796 218 222 230
51.7868863 0 34.2622882 218 222 230
51.527079 0 34.5144139 218 222 230
51.3299571 0 34.8167894 218 222 230
51.2052029 0 35.1545625 218 222 230
51.1703878 0 35.3446393 218 222 230
60.1932193 -6.98549473e-32 33.9154092 218 222 230
61.7745923 0 32.6543064 218 222 230
61.6546277 0 32.9971455 218 222 230
61.461382 0 33.3046943 218 222 230
61.2045453 0 33.561531 218 222 230
60.8969965 0 33.7547767 218 222 230
60.5541573 0 33.8747413 218 222 230
27.3527872 0 2.68791426 218 222 230
27.3527872 0 1.68791426 218 222 230
27.3705142 0 1.54191856 218 222 230
27.4226653 0 1.40440761 218 222 230
27.5062094 0 1.28337303 218 222 230
27.6162914 0 1.18584892 218 222 230
27.7465136 0 1.11750302 218 222 230
27.8893081 0 1.08230735 218 222 230
28.036376 0 1.08230735 218 222 230
28.1791705 0 1.11750302 218 222 230
28.3093927 0 1.18584892 218 222 230
28.4194747 0 1.28337303 218 222 230
28.5030188 0 1.40440761 218 222 230
28.5551699 0 1.54191856 218 222 230
28.572897 0 1.68791426 218 222 230
28.572897 0 2.68791426 218 222 230
28.5551699 0 2.83390995 218 222 230
28.5030188 0 2.97142091 218 222 230
28.4194747 0 3.09245548 218 222 230
28.3093927 0 3.1899796 218 222 230
28.1791705 0 3.2583255 218 222 230
28.036376 0 3.29352117 218 222 230
27.8893081 0 3.29352117 218 222 230
27.7465136 0 3.2583255 218 222 230
27.6162914 0 3.1899796 218 222 230
27.5062094 0 3.09245548 218 222 230
27.4226653 0 2.97142091 218 222 230
27.3705142 0 2.83390995 218 222 230
36.6385248 0 1.67209098 218 222 230
37.6385248 0 1.67209098 218 222 230
37.8646865 0 1.69955199 218 222 230
38.0777046 0 1.78033908 218 222 230
38.2651991 0 1.9097572 218 222 230
38.4162736 0 2.08028504 218 222 230
38.5221481 0 2.28201214 218 222 230
38.5766697 0 2.50321485 218 222 230
38.5766697 0 2.73103769 218 222 230
38.5221481 0 2.9522404 218 222 230
38.4162736 0 3.1539675 218 222 230
38.2651991 0 3.32449534 218 222 230
38.0777046 0 3.45391346 218 222 230
37.8646865 0 3.53470055 218 222 230
37.6385248 0 3.56216155 218 222 230
36.6385248 0 3.56216155 218 222 230
36.412363 0 3.53470055 218 222 230
36.199345 0 3.45391346 218 222 230
36.0118505 0 3.32449534 218 222 230
35.860776 0 3.1539675 218 222 230
35.7549015 0 2.9522404 218 222 230
35.7003799 0 2.73103769 218 222 230
35.7003799 0 2.50321485 218 222 230
35.7549015 0 2.28201214 218 222 230
35.860776 0 2.08028504 218 222 230
36.0118505 0 1.9097572 218 222 230
36.199345 0 1.78033908 218 222 230
36.412363 0 1.69955199 218 222 230
-2.22044605e-16 64.5617244 39.7204323 255 79 163
-2.22044605e-16 0 39.7204323 255 79 163
0.0406679527 0 40.0813704 255 79 163
0.16063255 0 40.4242095 255 79 163
0.353878266 0 40.7317583 255 79 163
0.610714953 0 40.988595 255 79 163
0.918263748 0 41.1818407 255 79 163
1.26110287 0 41.3018053 255 79 163
1.62204093 0 41.3424732 255 79 163
1.62204093 62.9396835 41.3424732 255 79 163
0.0842902401 64.0456434 40.2365133 255 79 163
0.29739995 63.6255925 40.6565643 255 79 163
0.585417821 63.3141551 40.9680017 255 79 163
0.871770141 63.1236318 41.158525 255 79 163
1.16729952 63.0047315 41.2774253 255 79 163
1.39235583 62.9560278 41.3261289 255 79 163
0 91.6400601 0 218 222 230
60.1932193 91.6400601 -2.22044605e-16 218 222 230
0 0 0 218 222 230
43.7977787 0 0 218 222 230
43.8709402 0.00165079676 0 218 222 230
43.8709402 67.9718137 0 218 222 230
45.4198197 67.9718137 1.50589678e-15 218 222 230
60.1932193 67.9718137 -2.22044605e-16 218 222 230
-2.22044605e-16 64.5617244 73.4894182 218 222 230
-2.22044605e-16 64.5617244 39.7204323 218 222 230
0.0842902401 64.0456434 40.2365133 218 222 230
0.29739995 63.6255925 40.6565643 218 222 230
0.585417821 63.3141551 40.9680017 218 222 230
0.871770141 63.1236318 41.158525 218 222 230
1.16729952 63.0047315 41.2774253 218 222 230
1.39235583 62.9560278 41.3261289 218 222 230
1.62204093 62.9396835 41.3424732 218 222 230
1.98437949 62.9806718 41.3424732 218 222 230
2.32840578 63.101565 41.3424732 218 222 230
2.63673301 63.2962535 41.3424732 218 222 230
2.63673301 63.2962535 75.1114591 218 222 230
1.62204093 62.9396835 75.1114591 218 222 230
1.98437949 62.9806718 75.1114591 218 222 230
2.32840578 63.101565 75.1114591 218 222 230
0.0842902401 64.0456434 74.0054992 218 222 230
0.29739995 63.6255925 74.4255502 218 222 230
0.585417821 63.3141551 74.7369876 218 222 230
0.871770141 63.1236318 74.9275109 218 222 230
1.16729952 63.0047315 75.0464112 218 222 230
1.39235583 62.9560278 75.0951148 218 222 230
35.8334002 91.6400601 73.4894182 218 222 230
35.8334002 91.6400601 35.5374502 218 222 230
37.749227 91.6400601 32.2933683 218 222 230
37.5413516 91.6400601 32.3183004 218 222 230
37.3433883 91.6400601 32.3870799 218 222 230
37.1602654 91.6400601 32.4891943 218 222 230
36.9404169 91.6400601 32.6619402 218 222 230
36.6581551 91.6400601 32.9718186 218 222 230
36.3982339 91.6400601 33.3657487 218 222 230
36.1321196 91.6400601 33.9356998 218 222 230
35.9325493 91.6400601 34.6146844 218 222 230
35.8588476 91.6400601 35.0734726 218 222 230
60.1932193 91.6400601 32.2933683 218 222 230
60.1932193 91.6400601 -2.22044605e-16 218 222 230
0 91.6400601 0 218 222 230
-2.22044605e-16 91.6400601 73.4894182 218 222 230
-2.22044605e-16 64.5617244 73.4894182 255 79 163
0.0842902401 64.0456434 74.0054992 255 79 163
0.29739995 63.6255925 74.4255502 255 79 163
0.585417821 63.3141551 74.7369876 255 79 163
0.871770141 63.1236318 74.9275109 255 79 163
1.16729952 63.0047315 75.0464112 255 79 163
1.39235583 62.9560278 75.0951148 255 79 163
1.62204093 62.9396835 75.1114591 255 79 163
1.62204093 90.0180192 75.1114591 255 79 163
-2.22044605e-16 91.6400601 73.4894182 255 79 163
0.0228563784 91.6172037 73.7607585 255 79 163
0.0907813696 91.5492787 74.0244518 255 79 163
0.201860695 91.4381994 74.2730667 255 79 163
0.352963889 91.2870962 74.4995965 255 79 163
0.539832525 91.1002276 74.6976573 255 79 163
0.757200224 90.8828599 74.8616672 255 79 163
1.08377628 90.5562838 75.019545 255 79 163
1.34901298 90.2910471 75.0883155 255 79 163
61.8152602 0 18.0174815 218 222 230
61.8152602 0 32.2933683 218 222 230
61.8152602 0.0406679527 17.6565434 218 222 230
61.8152602 0.16063255 17.3137043 218 222 230
61.8152602 0.353878266 17.0061555 218 222 230
61.8152602 0.610714953 16.7493188 218 222 230
61.8152602 0.918263748 16.5560731 218 222 230
61.8152602 1.26110287 16.4361085 218 222 230
61.8152602 1.62204093 16.3954405 218 222 230
61.8152602 67.9718137 16.3954405 218 222 230
61.8152602 67.9718137 1.62204093 218 222 230
61.8152602 90.0180192 1.62204093 218 222 230
61.8152602 90.0180192 32.2933683 218 222 230
45.4863947 1.62204093 1.47601515 255 79 163
45.3447312 1.05551304 0.944577364 255 79 163
45.0850749 0.62365419 0.546450971 255 79 163
44.7914191 0.338109606 0.286475367 255 79 163
44.5085475 0.163780119 0.13057395 255 79 163
44.2325378 0.0593373213 0.040818631 255 79 163
44.0547677 0.0204869777 0.0104503363 255 79 163
43.8709402 0.00165079676 0 255 79 163
61.8152602 1.62204093 16.3954405 255 79 163
59.6150201 1.62204093 16.2471356 255 79 163
57.4545845 1.62204093 15.8049036 255 79 163
55.3730379 1.62204093 15.0767451 255 79 163
53.4080376 1.62204093 14.0758331 255 79 163
51.5951324 1.62204093 12.8202752 255 79 163
49.9671195 1.62204093 11.3327857 255 79 163
48.5534514 1.62204093 9.64027471 255 79 163
47.3797027 1.62204093 7.77336148 255 79 163
46.4671077 1.62204093 5.76582035 255 79 163
45.8321762 1.62204093 3.65396974 255 79 163
61.8152602 0 18.0174815 255 79 163
61.8152602 0.0406679527 17.6565434 255 79 163
61.8152602 0.16063255 17.3137043 255 79 163
61.8152602 0.353878266 17.0061555 255 79 163
61.8152602 0.610714953 16.7493188 255 79 163
61.8152602 0.918263748 16.5560731 255 79 163
61.8152602 1.26110287 16.4361085 255 79 163
59.463507 0 17.8633394 255 79 163
57.1519929 0 17.4035507 255 79 163
54.9202686 0 16.6459824 255 79 163
52.8065195 0 15.6035967 255 79 163
50.8469124 0 14.2942291 255 79 163
49.0749769 0 12.7402833 255 79 163
47.5210311 0 10.9683478 255 79 163
46.2116635 0 9.00874074 255 79 163
45.1692779 0 6.89499165 255 79 163
44.4117095 0 4.66326735 255 79 163
43.9519208 0 2.35175325 255 79 163
43.7977787 0 0 255 79 163
59.5106188 0.0406679527 17.5054892 255 79 163
59.5553683 0.16063255 17.1655831 255 79 163
59.5928885 0.338109602 16.8805894 255 79 163
59.6290354 0.610714953 16.6060261 255 79 163
59.654259 0.918263748 16.4144336 255 79 163
59.6699176 1.26110287 16.2954953 255 79 163
57.2454105 0.0406679527 17.0549113 255 79 163
57.3341438 0.16063255 16.7237541 255 79 163
57.4085421 0.338109602 16.4460959 255 79 163
57.4802175 0.610714953 16.1785996 255 79 163
57.5302332 0.918263748 15.9919386 255 79 163
57.5612823 1.26110287 15.8760617 255 79 163
55.0583936 0.0406679527 16.3125191 255 79 163
55.1895924 0.16063255 15.995777 255 79 163
55.2995959 0.338109602 15.7302052 255 79 163
55.4055734 0.610714953 15.4743528 255 79 163
55.4795253 0.918263748 15.2958171 255 79 163
55.5254338 1.26110287 15.1849842 255 79 163
52.9869885 0.0406679527 15.2910151 255 79 163
53.1584081 0.16063255 14.9941077 255 79 163
53.3021345 0.338109602 14.7451662 255 79 163
53.4406008 0.610714953 14.5053356 255 79 163
53.5372237 0.918263748 14.3379799 255 79 163
53.597206 1.26110287 14.2340875 255 79 163
51.0666376 0.0406679527 14.0078777 255 79 163
51.2753449 0.16063255 13.7358851 255 79 163
51.4503351 0.338109602 13.5078334 255 79 163
51.618921 0.610714953 13.288128 255 79 163
51.7365615 0.918263748 13.1348159 255 79 163
51.8095913 1.26110287 13.0396416 255 79 163
49.3301986 0.0406679527 12.4850616 255 79 163
49.5726225 0.16063255 12.2426377 255 79 163
49.7758824 0.338109602 12.0393778 255 79 163
49.9717033 0.610714953 11.8435569 255 79 163
50.1083487 0.918263748 11.7069116 255 79 163
50.1931764 1.26110287 11.6220838 255 79 163
47.8073825 0.0406679527 10.7486226 255 79 163
48.0793751 0.16063255 10.5399154 255 79 163
48.3074268 0.338109602 10.3649251 255 79 163
48.5271322 0.610714953 10.1963393 255 79 163
48.6804443 0.918263748 10.0786987 255 79 163
48.7756186 1.26110287 10.0056689 255 79 163
46.5242451 0.0406679527 8.82827171 255 79 163
46.8211525 0.16063255 8.65685214 255 79 163
46.2693499 0.0406679527 8.37127213 255 79 163
47.070094 0.338109602 8.51312568 255 79 163
46.5712066 0.16063255 8.20872618 255 79 163
47.3099246 0.610714953 8.3746594 255 79 163
46.8242979 0.338109602 8.07243979 255 79 163
47.4772803 0.918263748 8.27803655 255 79 163
47.0681264 0.610714953 7.94114128 255 79 163
47.5811727 1.26110287 8.21805425 255 79 163
47.2382719 0.918263748 7.84952015 255 79 163
45.5027411 0.0406679527 6.75686664 255 79 163
47.3438961 1.26110287 7.79264286 255 79 163
45.8194832 0.16063255 6.62566778 255 79 163
45.28656 0.0406679527 6.20931514 255 79 163
46.0850551 0.338109602 6.51566431 255 79 163
45.6074997 0.16063255 6.08874816 255 79 163
46.3409074 0.610714953 6.40968681 255 79 163
45.876591 0.338109602 5.98765897 255 79 163
46.5194431 0.918263748 6.33573488 255 79 163
46.135834 0.610714953 5.89026949 255 79 163
46.630276 1.26110287 6.28982641 255 79 163
46.3167358 0.918263748 5.82231034 255 79 163
44.7603489 0.0406679527 4.56984971 255 79 163
46.4290375 1.26110287 5.78012213 255 79 163
45.0915061 0.16063255 4.48111641 255 79 163
44.6027909 0.0406679527 3.93502542 255 79 163
45.3691643 0.338109602 4.40671812 255 79 163
44.9370074 0.16063255 3.85861858 255 79 163
45.6366606 0.610714953 4.3350427 255 79 163
45.2172307 0.338109602 3.79455539 255 79 163
45.8233216 0.918263748 4.28502703 255 79 163
45.4871982 0.610714953 3.73283681 255 79 163
45.9391985 1.26110287 4.25397791 255 79 163
45.6755836 0.918263748 3.68976911 255 79 163
44.309771 0.0406679527 2.30464138 255 79 163
45.792531 1.26110287 3.6630332 255 79 163
44.6496771 0.16063255 2.25989189 255 79 163
44.2304126 0.0406679527 1.58954714 255 79 163
44.9346708 0.338109602 2.22237176 255 79 163
44.5718596 0.16063255 1.55868272 255 79 163
45.2092342 0.610714953 2.18622481 255 79 163
44.1876813 0.0406679527 1.01093365 255 79 163
44.8581453 0.338109602 1.5328045 255 79 163
45.4008266 0.918263748 2.16100118 255 79 163
44.529958 0.16063255 0.991304234 255 79 163
45.1339534 0.610714953 1.50787338 255 79 163
45.5197649 1.26110287 2.14534266 255 79 163
44.1612162 0.0406679527 0.297080354 255 79 163
44.8169394 0.338109602 0.974845983 255 79 163
45.3264144 0.918263748 1.49047625 255 79 163
44.5040068 0.16063255 0.29131191 255 79 163
45.0934177 0.610714953 0.958990079 255 79 163
45.4458919 1.26110287 1.47967632 255 79 163
45.2863464 0.918263748 0.947925706 255 79 163
61.8152602 0 32.2933683 255 79 163
61.8152602 90.0180192 32.2933683 255 79 163
61.7745923 90.0180192 32.6543064 255 79 163
61.6546277 90.0180192 32.9971455 255 79 163
61.461382 90.0180192 33.3046943 255 79 163
61.2045453 90.0180192 33.561531 255 79 163
60.8969965 90.0180192 33.7547767 255 79 163
60.5541573 90.0180192 33.8747413 255 79 163
60.1932193 90.0180192 33.9154092 255 79 163
60.1932193 -6.98549473e-32 33.9154092 255 79 163
61.7745923 0 32.6543064 255 79 163
61.6546277 0 32.9971455 255 79 163
61.461382 0 33.3046943 255 79 163
61.2045453 0 33.561531 255 79 163
60.8969965 0 33.7547767 255 79 163
60.5541573 0 33.8747413 255 79 163
52.8032942 0 33.9154092 218 222 230
60.1932193 -6.98549473e-32 33.9154092 218 222 230
60.1932193 90.0180192 33.9154092 218 222 230
37.749227 90.0180192 33.9154092 218 222 230
37.749227 90.0180192 33.9154092 255 79 163
52.8032942 0 33.9154092 255 79 163
52.4410598 0 33.9552451 255 79 163
52.0966177 0 34.072796 255 79 163
51.7868863 0 34.2622882 255 79 163
51.527079 0 34.5144139 255 79 163
51.3299571 0 34.8167894 255 79 163
51.2052029 0 35.1545625 255 79 163
51.1703878 0 35.3446393 255 79 163
51.1587277 0 35.5374502 255 79 163
35.8334002 91.6400601 35.5374502 255 79 163
37.2309574 90.2917098 33.9837979 255 79 163
36.7514469 90.5718823 34.1831973 255 79 163
36.3461859 90.8644719 34.4967926 255 79 163
36.0444065 91.1743671 34.8981415 255 79 163
35.9068608 91.401855 35.2111233 255 79 163
36.1046605 90.0180192 75.1114591 218 222 230
38.6415915 74.8480653 75.1114591 218 222 230
36.0449123 90.3752921 75.0716233 218 222 230
35.9880989 90.7150163 74.9540723 218 222 230
35.9370108 91.0205054 74.7645802 218 222 230
35.8941573 91.2767541 74.5124544 218 222 230
35.8616433 91.471176 74.210079 218 222 230
35.841066 91.5942215 73.8723059 218 222 230
35.8353234 91.6285597 73.6822291 218 222 230
35.8334002 91.6400601 73.4894182 218 222 230
35.8334002 91.6400601 35.5374502 218 222 230
51.1587277 0 35.5374502 218 222 230
51.1587277 0 39.7204323 218 222 230
39.4446638 70.0459759 39.7204323 218 222 230
39.2345082 71.3026322 39.8808534 218 222 230
39.0187592 72.592735 40.3732556 218 222 230
38.8652804 73.5104841 40.9282268 218 222 230
38.7480479 74.2114933 41.5353592 218 222 230
38.6919492 74.5469441 41.9712048 218 222 230
38.6611273 74.7312478 42.3418228 218 222 230
38.6465838 74.8182133 42.6487391 218 222 230
38.6415915 74.8480653 42.9645142 218 222 230
24.2829032 80.6527933 41.3424732 218 222 230
2.63673301 63.2962535 41.3424732 218 222 230
1.62204093 62.9396835 41.3424732 218 222 230
1.98437949 62.9806718 41.3424732 218 222 230
2.32840578 63.101565 41.3424732 218 222 230
1.62204093 0 41.3424732 218 222 230
49.5141612 3.88578059e-16 41.3424732 218 222 230
37.8448399 69.7784311 41.3424732 218 222 230
49.5141612 3.88578059e-16 41.3424732 255 79 163
49.8763956 0 41.3026374 255 79 163
50.2208377 0 41.1850864 255 79 163
50.5305691 0 40.9955943 255 79 163
50.7903764 0 40.7434685 255 79 163
50.9874983 0 40.4410931 255 79 163
51.1122525 0 40.10332 255 79 163
51.1470676 0 39.9132432 255 79 163
51.1587277 0 39.7204323 255 79 163
39.4446638 70.0459759 39.7204323 255 79 163
39.4053732 70.0394052 40.0777066 255 79 163
39.2894313 70.0200158 40.4174324 255 79 163
39.102533 69.9887601 40.7229224 255 79 163
38.8538586 69.9471733 40.9791714 255 79 163
38.5556224 69.8972981 41.1735929 255 79 163
38.2224734 69.8415843 41.296637 255 79 163
38.0350046 69.8102331 41.3309735 255 79 163
37.8448399 69.7784311 41.3424732 255 79 163
27.3527872 0 2.68791426 218 222 230
27.3527872 42.9258187 2.68791426 218 222 230
27.3527872 42.9258187 1.68791426 218 222 230
27.3527872 0 1.68791426 218 222 230
28.572897 0 2.68791426 218 222 230
28.572897 42.9258187 2.68791426 218 222 230
28.5551699 42.9258187 2.83390995 218 222 230
28.5030188 42.9258187 2.97142091 218 222 230
28.4194747 42.9258187 3.09245548 218 222 230
28.3093927 42.9258187 3.1899796 218 222 230
28.1791705 42.9258187 3.2583255 218 222 230
28.036376 42.9258187 3.29352117 218 222 230
27.8893081 42.9258187 3.29352117 218 222 230
27.7465136 42.9258187 3.2583255 218 222 230
27.6162914 42.9258187 3.1899796 218 222 230
27.5062094 42.9258187 3.09245548 218 222 230
27.4226653 42.9258187 2.97142091 218 222 230
27.3705142 42.9258187 2.83390995 218 222 230
27.3527872 42.9258187 2.68791426 218 222 230
27.3527872 0 2.68791426 218 222 230
28.5551699 0 2.83390995 218 222 230
28.5030188 0 2.97142091 218 222 230
28.4194747 0 3.09245548 218 222 230
28.3093927 0 3.1899796 218 222 230
28.1791705 0 3.2583255 218 222 230
28.036376 0 3.29352117 218 222 230
27.8893081 0 3.29352117 218 222 230
27.7465136 0 3.2583255 218 222 230
27.6162914 0 3.1899796 218 222 230
27.5062094 0 3.09245548 218 222 230
27.4226653 0 2.97142091 218 222 230
27.3705142 0 2.83390995 218 222 230
27.3527872 0 1.68791426 218 222 230
27.3527872 42.9258187 1.68791426 218 222 230
27.3705142 42.9258187 1.54191856 218 222 230
27.4226653 42.9258187 1.40440761 218 222 230
27.5062094 42.9258187 1.28337303 218 222 230
27.6162914 42.9258187 1.18584892 218 222 230
27.7465136 42.9258187 1.11750302 218 222 230
27.8893081 42.9258187 1.08230735 218 222 230
28.036376 42.9258187 1.08230735 218 222 230
28.1791705 42.9258187 1.11750302 218 222 230
28.3093927 42.9258187 1.18584892 218 222 230
28.4194747 42.9258187 1.28337303 218 222 230
28.5030188 42.9258187 1.40440761 218 222 230
28.5551699 42.9258187 1.54191856 218 222 230
28.572897 42.9258187 1.68791426 218 222 230
28.572897 0 1.68791426 218 222 230
27.3705142 0 1.54191856 218 222 230
27.4226653 0 1.40440761 218 222 230
27.5062094 0 1.28337303 218 222 230
27.6162914 0 1.18584892 218 222 230
27.7465136 0 1.11750302 218 222 230
27.8893081 0 1.08230735 218 222 230
28.036376 0 1.08230735 218 222 230
28.1791705 0 1.11750302 218 222 230
28.3093927 0 1.18584892 218 222 230
28.4194747 0 1.28337303 218 222 230
28.5030188 0 1.40440761 218 222 230
28.5551699 0 1.54191856 218 222 230
28.572897 0 1.68791426 218 222 230
28.572897 42.9258187 1.68791426 218 222 230
28.572897 42.9258187 2.68791426 218 222 230
28.572897 0 2.68791426 218 222 230
36.6385248 0 1.67209098 218 222 230
36.6385248 87.5553912 1.67209098 218 222 230
37.6385248 87.5553912 1.67209098 218 222 230
37.6385248 0 1.67209098 218 222 230
36.6385248 0 3.56216155 218 222 230
36.6385248 87.5553912 3.56216155 218 222 230
36.412363 87.5553912 3.53470055 218 222 230
36.199345 87.5553912 3.45391346 218 222 230
36.0118505 87.5553912 3.32449534 218 222 230
35.860776 87.5553912 3.1539675 218 222 230
35.7549015 87.5553912 2.9522404 218 222 230
35.7003799 87.5553912 2.73103769 218 222 230
35.7003799 87.5553912 2.50321485 218 222 230
35.7549015 87.5553912 2.28201214 218 222 230
35.860776 87.5553912 2.08028504 218 222 230
36.0118505 87.5553912 1.9097572 218 222 230
36.199345 87.5553912 1.78033908 218 222 230
36.412363 87.5553912 1.69955199 218 222 230
36.6385248 87.5553912 1.67209098 218 222 230
36.6385248 0 1.67209098 218 222 230
36.412363 0 3.53470055 218 222 230
36.199345 0 3.45391346 218 222 230
36.0118505 0 3.32449534 218 222 230
35.860776 0 3.1539675 218 222 230
35.7549015 0 2.9522404 218 222 230
35.7003799 0 2.73103769 218 222 230
35.7003799 0 2.50321485 218 222 230
35.7549015 0 2.28201214 218 222 230
35.860776 0 2.08028504 218 222 230
36.0118505 0 1.9097572 218 222 230
36.199345 0 1.78033908 218 222 230
36.412363 0 1.69955199 218 222 230
37.6385248 0 3.56216155 218 222 230
37.6385248 87.5553912 3.56216155 218 222 230
36.6385248 87.5553912 3.56216155 218 222 230
36.6385248 0 3.56216155 218 222 230
37.6385248 0 1.67209098 218 222 230
37.6385248 87.5553912 1.67209098 218 222 230
37.8646865 87.5553912 1.69955199 218 222 230
38.0777046 87.5553912 1.78033908 218 222 230
38.2651991 87.5553912 1.9097572 218 222 230
38.4162736 87.5553912 2.08028504 218 222 230
38.5221481 87.5553912 2.28201214 218 222 230
38.5766697 87.5553912 2.50321485 218 222 230
38.5766697 87.5553912 2.73103769 218 222 230
38.5221481 87.5553912 2.9522404 218 222 230
38.4162736 87.5553912 3.1539675 218 222 230
38.2651991 87.5553912 3.32449534 218 222 230
38.0777046 87.5553912 3.45391346 218 222 230
37.8646865 87.5553912 3.53470055 218 222 230
37.6385248 87.5553912 3.56216155 218 222 230
37.6385248 0 3.56216155 218 222 230
37.8646865 0 1.69955199 218 222 230
38.0777046 0 1.78033908 218 222 230
38.2651991 0 1.9097572 218 222 230
38.4162736 0 2.08028504 218 222 230
38.5221481 0 2.28201214 218 222 230
38.5766697 0 2.50321485 218 222 230
38.5766697 0 2.73103769 218 222 230
38.5221481 0 2.9522404 218 222 230
38.4162736 0 3.1539675 218 222 230
38.2651991 0 3.32449534 218 222 230
38.0777046 0 3.45391346 218 222 230
37.8646865 0 3.53470055 218 222 230
60.1932193 67.9718137 -2.22044605e-16 255 79 163
60.1932193 91.6400601 -2.22044605e-16 255 79 163
60.4645596 91.6172037 0.0228563784 255 79 163
60.7282529 91.5492787 0.0907813696 255 79 163
60.9768677 91.4381994 0.201860695 255 79 163
61.2033976 91.2870962 0.352963889 255 79 163
61.4014584 91.1002276 0.539832525 255 79 163
61.5654683 90.8828599 0.757200224 255 79 163
61.7233461 90.5562838 1.08377628 255 79 163
61.7921166 90.2910471 1.34901298 255 79 163
61.8152602 90.0180192 1.62204093 255 79 163
61.8152602 67.9718137 1.62204093 255 79 163
60.5541573 67.9718137 0.0406679527 255 79 163
60.8969965 67.9718137 0.16063255 255 79 163
61.2045453 67.9718137 0.353878266 255 79 163
61.461382 67.9718137 0.610714953 255 79 163
61.6546277 67.9718137 0.918263748 255 79 163
61.7745923 67.9718137 1.26110287 255 79 163
45.4198197 67.9718137 1.50589678e-15 218 222 230
60.1932193 67.9718137 -2.22044605e-16 218 222 230
60.5541573 67.9718137 0.0406679527 218 222 230
60.8969965 67.9718137 0.16063255 218 222 230
61.2045453 67.9718137 0.353878266 218 222 230
61.461382 67.9718137 0.610714953 218 222 230
61.6546277 67.9718137 0.918263748 218 222 230
61.7745923 67.9718137 1.26110287 218 222 230
61.8152602 67.9718137 1.62204093 218 222 230
61.8152602 67.9718137 16.3954405 218 222 230
59.6150201 67.9718137 16.2471356 218 222 230
57.4545845 67.9718137 15.8049036 218 222 230
55.3730379 67.9718137 15.0767451 218 222 230
53.4080376 67.9718137 14.0758331 218 222 230
51.5951324 67.9718137 12.8202752 218 222 230
49.9671195 67.9718137 11.3327857 218 222 230
48.5534514 67.9718137 9.64027471 218 222 230
47.3797027 67.9718137 7.77336148 218 222 230
46.4671077 67.9718137 5.76582035 218 222 230
45.8321762 67.9718137 3.65396974 218 222 230
45.4863947 67.9718137 1.47601515 218 222 230
43.8709402 67.9718137 0 218 222 230
44.2671685 67.9718137 0.0491391985 218 222 230
44.6393897 67.9718137 0.193579482 218 222 230
44.965051 67.9718137 0.424569309 218 222 230
45.2244208 67.9718137 0.728113156 218 222 230
45.4017842 67.9718137 1.0858195 218 222 230
43.8709402 0.00165079676 0 255 79 163
43.8709402 67.9718137 0 255 79 163
44.2671685 67.9718137 0.0491391985 255 79 163
44.6393897 67.9718137 0.193579482 255 79 163
44.965051 67.9718137 0.424569309 255 79 163
45.2244208 67.9718137 0.728113156 255 79 163
45.4017842 67.9718137 1.0858195 255 79 163
45.4863947 67.9718137 1.47601515 255 79 163
45.4863947 1.62204093 1.47601515 255 79 163
45.3447312 1.05551304 0.944577364 255 79 163
45.0850749 0.62365419 0.546450971 255 79 163
44.7914191 0.338109606 0.286475367 255 79 163
44.5085475 0.163780119 0.13057395 255 79 163
44.2325378 0.0593373213 0.040818631 255 79 163
44.0547677 0.0204869777 0.0104503363 255 79 163
36.1046605 90.0180192 75.1114591 218 222 230
38.6415915 74.8480653 75.1114591 218 222 230
1.62204093 90.0180192 75.1114591 218 222 230
1.62204093 62.9396835 75.1114591 218 222 230
1.98437949 62.9806718 75.1114591 218 222 230
2.32840578 63.101565 75.1114591 218 222 230
2.63673301 63.2962535 75.1114591 218 222 230
25.5793639 81.6923339 75.1114591 218 222 230
36.0270755 73.3150495 75.1114591 218 222 230
38.6591834 74.4581166 75.1114591 218 222 230
38.5831064 74.0752566 75.1114591 218 222 230
38.4177661 73.7216579 75.1114591 218 222 230
38.1727379 73.4177982 75.1114591 218 222 230
37.8622121 73.1812751 75.1114591 218 222 230
37.5041721 73.0257861 75.1114591 218 222 230
37.1193529 72.9603361 75.1114591 218 222 230
36.7300406 72.9887155 75.1114591 218 222 230
36.3587812 73.1092807 75.1114591 218 222 230
25.5793639 81.6923339 75.1114591 218 222 230
25.5793639 81.6923339 42.9645142 218 222 230
24.2829032 80.6527933 41.3424732 218 222 230
24.5684633 80.8817639 41.3823091 218 222 230
24.8399973 81.0994879 41.4998601 218 222 230
25.0841678 81.295271 41.6893522 218 222 230
25.2889816 81.4594968 41.941478 218 222 230
25.4443786 81.5840987 42.2438534 218 222 230
25.5427261 81.6629566 42.5816265 218 222 230
25.5701718 81.6849634 42.7717033 218 222 230
2.63673301 63.2962535 41.3424732 218 222 230
2.63673301 63.2962535 75.1114591 218 222 230
1.62204093 90.0180192 75.1114591 255 79 163
36.1046605 90.0180192 75.1114591 255 79 163
36.0449123 90.3752921 75.0716233 255 79 163
35.9880989 90.7150163 74.9540723 255 79 163
35.9370108 91.0205054 74.7645802 255 79 163
35.8941573 91.2767541 74.5124544 255 79 163
35.8616433 91.471176 74.210079 255 79 163
35.841066 91.5942215 73.8723059 255 79 163
35.8353234 91.6285597 73.6822291 255 79 163
35.8334002 91.6400601 73.4894182 255 79 163
-2.22044605e-16 91.6400601 73.4894182 255 79 163
0.0228563784 91.6172037 73.7607585 255 79 163
0.0907813696 91.5492787 74.0244518 255 79 163
0.201860695 91.4381994 74.2730667 255 79 163
0.352963889 91.2870962 74.4995965 255 79 163
0.539832525 91.1002276 74.6976573 255 79 163
0.757200224 90.8828599 74.8616672 255 79 163
1.08377628 90.5562838 75.019545 255 79 163
1.34901298 90.2910471 75.0883155 255 79 163
35.8334002 91.6400601 35.5374502 255 79 163
35.8334002 91.6400601 35.5374502 255 79 163
37.749227 91.6400601 32.2933683 255 79 163
37.5413516 91.6400601 32.3183004 255 79 163
37.3433883 91.6400601 32.3870799 255 79 163
37.1602654 91.6400601 32.4891943 255 79 163
36.9404169 91.6400601 32.6619402 255 79 163
36.6581551 91.6400601 32.9718186 255 79 163
36.3982339 91.6400601 33.3657487 255 79 163
36.1321196 91.6400601 33.9356998 255 79 163
35.9325493 91.6400601 34.6146844 255 79 163
35.8588476 91.6400601 35.0734726 255 79 163
37.749227 91.600225 32.6506374 255 79 163
37.749227 91.4826766 32.9903587 255 79 163
37.749227 91.2931882 33.2958455 255 79 163
37.749227 91.0410672 33.5520936 255 79 163
37.749227 90.738697 33.7465168 255 79 163
37.749227 90.400929 33.8695652 255 79 163
37.749227 90.2108413 33.9039074 255 79 163
37.749227 90.0180192 33.9154092 255 79 163
37.2309574 90.2917098 33.9837979 255 79 163
36.7514469 90.5718823 34.1831973 255 79 163
36.3461859 90.8644719 34.4967926 255 79 163
36.0444065 91.1743671 34.8981415 255 79 163
35.9068608 91.401855 35.2111233 255 79 163
36.0046294 91.382564 34.8756018 255 79 163
35.9936522 91.464427 34.8304814 255 79 163
36.018219 91.2878207 34.9042615 255 79 163
37.4669123 91.4861006 33.0194898 255 79 163
37.3715702 91.1716651 33.5068862 255 79 163
37.1104873 91.4434981 33.2645287 255 79 163
37.1924128 91.2286794 33.5256957 255 79 163
36.9429727 91.4524668 33.3663491 255 79 163
37.0905552 91.2424544 33.5682307 255 79 163
36.945098 91.2636547 33.6434303 255 79 163
36.5979179 91.477696 33.6629156 255 79 163
36.704911 91.3034135 33.8076966 255 79 163
36.8755042 91.0466134 33.8931025 255 79 163
36.5685183 91.329369 33.9264235 255 79 163
36.2859502 91.512086 34.0652823 255 79 163
36.3728095 91.3726234 34.1373121 255 79 163
36.489224 91.1704933 34.1742305 255 79 163
36.0551821 91.5969514 34.3985048 255 79 163
35.974481 91.5854613 34.6975558 255 79 163
35.9635515 91.6238784 34.6160033 255 79 163
35.9841282 91.5319151 34.7702402 255 79 163
36.2311089 91.4103587 34.3300148 255 79 163
35.9098549 91.6154214 34.8934174 255 79 163
35.9135755 91.5996904 34.9224304 255 79 163
37.2943801 90.7548343 33.8300061 255 79 163
37.2106973 90.8031507 33.8403789 255 79 163
37.1617893 90.8190199 33.8547516 255 79 163
35.8830003 91.6300051 34.987986 255 79 163
37.749227 91.6400601 32.2933683 255 79 163
37.749227 91.600225 32.6506374 255 79 163
37.749227 91.4826766 32.9903587 255 79 163
37.749227 91.2931882 33.2958455 255 79 163
37.749227 91.0410672 33.5520936 255 79 163
37.749227 90.738697 33.7465168 255 79 163
37.749227 90.400929 33.8695652 255 79 163
37.749227 90.2108413 33.9039074 255 79 163
37.749227 90.0180192 33.9154092 255 79 163
60.1932193 90.0180192 33.9154092 255 79 163
60.1932193 90.3789572 33.8747413 255 79 163
60.1932193 90.7217963 33.7547767 255 79 163
60.1932193 91.0293451 33.561531 255 79 163
60.1932193 91.2861818 33.3046943 255 79 163
60.1932193 91.4794275 32.9971455 255 79 163
60.1932193 91.5993921 32.6543064 255 79 163
60.1932193 91.6400601 32.2933683 255 79 163
60.1932193 91.6400601 -2.22044605e-16 255 79 163
60.1932193 91.6400601 32.2933683 255 79 163
61.8152602 90.0180192 32.2933683 255 79 163
61.7745923 90.3789572 32.2933683 255 79 163
61.6546277 90.7217963 32.2933683 255 79 163
61.461382 91.0293451 32.2933683 255 79 163
61.2045453 91.2861818 32.2933683 255 79 163
60.8969965 91.4794275 32.2933683 255 79 163
60.5541573 91.5993921 32.2933683 255 79 163
61.8152602 90.0180192 1.62204093 255 79 163
60.4645596 91.6172037 0.0228563784 255 79 163
60.7282529 91.5492787 0.0907813696 255 79 163
60.9768677 91.4381994 0.201860695 255 79 163
61.2033976 91.2870962 0.352963889 255 79 163
61.4014584 91.1002276 0.539832525 255 79 163
61.5654683 90.8828599 0.757200224 255 79 163
61.7233461 90.5562838 1.08377628 255 79 163
61.7921166 90.2910471 1.34901298 255 79 163
61.8152602 1.62204093 16.3954405 218 222 230
61.8152602 67.9718137 16.3954405 218 222 230
59.6150201 67.9718137 16.2471356 218 222 230
57.4545845 67.9718137 15.8049036 218 222 230
55.3730379 67.9718137 15.0767451 218 222 230
53.4080376 67.9718137 14.0758331 218 222 230
51.5951324 67.9718137 12.8202752 218 222 230
49.9671195 67.9718137 11.3327857 218 222 230
48.5534514 67.9718137 9.64027471 218 222 230
47.3797027 67.9718137 7.77336148 218 222 230
46.4671077 67.9718137 5.76582035 218 222 230
45.8321762 67.9718137 3.65396974 218 222 230
45.4863947 67.9718137 1.47601515 218 222 230
45.4863947 1.62204093 1.47601515 218 222 230
59.6150201 1.62204093 16.2471356 218 222 230
57.4545845 1.62204093 15.8049036 218 222 230
55.3730379 1.62204093 15.0767451 218 222 230
53.4080376 1.62204093 14.0758331 218 222 230
51.5951324 1.62204093 12.8202752 218 222 230
49.9671195 1.62204093 11.3327857 218 222 230
48.5534514 1.62204093 9.64027471 218 222 230
47.3797027 1.62204093 7.77336148 218 222 230
46.4671077 1.62204093 5.76582035 218 222 230
45.8321762 1.62204093 3.65396974 218 222 230
61.8152602 90.0180192 32.2933683 255 79 163
61.7745923 90.0180192 32.6543064 255 79 163
61.6546277 90.0180192 32.9971455 255 79 163
61.461382 90.0180192 33.3046943 255 79 163
61.2045453 90.0180192 33.561531 255 79 163
60.8969965 90.0180192 33.7547767 255 79 163
60.5541573 90.0180192 33.8747413 255 79 163
60.1932193 90.0180192 33.9154092 255 79 163
61.8152602 90.0180192 32.2933683 255 79 163
61.7745923 90.3789572 32.2933683 255 79 163
61.6546277 90.7217963 32.2933683 255 79 163
61.461382 91.0293451 32.2933683 255 79 163
61.2045453 91.2861818 32.2933683 255 79 163
60.8969965 91.4794275 32.2933683 255 79 163
60.5541573 91.5993921 32.2933683 255 79 163
60.1932193 91.6400601 32.2933683 255 79 163
60.1932193 90.3789572 33.8747413 255 79 163
60.1932193 90.7217963 33.7547767 255 79 163
60.1932193 91.0293451 33.561531 255 79 163
60.1932193 91.2861818 33.3046943 255 79 163
60.1932193 91.4794275 32.9971455 255 79 163
60.1932193 91.5993921 32.6543064 255 79 163
61.7358719 90.0964301 32.7884354 255 79 163
61.7358719 90.2455765 32.7399748 255 79 163
61.7358719 90.3724481 32.6477972 255 79 163
61.505478 90.3126396 33.2001167 255 79 163
61.7358719 90.4646257 32.5209257 255 79 163
61.505478 90.5784205 33.0646946 255 79 163
61.146631 90.2233016 33.5894709 255 79 163
61.7358719 90.5130863 32.3717792 255 79 163
61.505478 90.7893455 32.8537697 255 79 163
61.146631 90.6137721 33.4625993 255 79 163
61.505478 90.9247676 32.5879887 255 79 163
61.146631 90.9459262 33.2212753 255 79 163
60.6944575 90.494725 33.7605181 255 79 163
61.146631 91.1872502 32.8891213 255 79 163
60.6944575 90.9247676 33.5414005 255 79 163
61.146631 91.3141218 32.4986508 255 79 163
60.6944575 91.2660513 33.2001167 255 79 163
60.6944575 91.485169 32.7700742 255 79 163
38.6415915 74.8480653 75.1114591 255 79 163
38.6591834 74.4581166 75.1114591 255 79 163
38.5831064 74.0752566 75.1114591 255 79 163
38.4177661 73.7216579 75.1114591 255 79 163
38.1727379 73.4177982 75.1114591 255 79 163
37.8622121 73.1812751 75.1114591 255 79 163
37.5041721 73.0257861 75.1114591 255 79 163
37.1193529 72.9603361 75.1114591 255 79 163
36.7300406 72.9887155 75.1114591 255 79 163
36.3587812 73.1092807 75.1114591 255 79 163
36.0270755 73.3150495 75.1114591 255 79 163
36.0270755 73.3150495 42.9645142 255 79 163
38.6415915 74.8480653 42.9645142 255 79 163
38.6612302 74.4891012 42.9645142 255 79 163
38.6013148 74.1346177 42.9645142 255 79 163
38.4647872 73.8020398 42.9645142 255 79 163
38.2583554 73.507706 42.9645142 255 79 163
37.9921604 73.2660737 42.9645142 255 79 163
37.6792783 73.0890122 42.9645142 255 79 163
37.3350792 72.9852195 42.9645142 255 79 163
36.9764705 72.9597943 42.9645142 255 79 163
36.6210675 73.0139866 42.9645142 255 79 163
36.3084504 73.1337092 42.9645142 255 79 163
39.4446638 70.0459759 39.7204323 255 79 163
39.4053732 70.0394052 40.0777066 255 79 163
39.2894313 70.0200158 40.4174324 255 79 163
39.102533 69.9887601 40.7229224 255 79 163
38.8538586 69.9471733 40.9791714 255 79 163
38.5556224 69.8972981 41.1735929 255 79 163
38.2224734 69.8415843 41.296637 255 79 163
38.0350046 69.8102331 41.3309735 255 79 163
37.8448399 69.7784311 41.3424732 255 79 163
37.1988801 70.9748241 41.4312627 255 79 163
36.5398372 72.1535604 41.7169647 255 79 163
36.3071067 72.6336667 41.9500104 255 79 163
36.1641742 72.9639733 42.2062743 255 79 163
36.0868047 73.1575006 42.4446843 255 79 163
36.0488952 73.2566166 42.6442231 255 79 163
36.032546 73.3002861 42.8026954 255 79 163
36.0270755 73.3150495 42.9645142 255 79 163
38.6415915 74.8480653 42.9645142 255 79 163
38.6612302 74.4891012 42.9645142 255 79 163
38.6013148 74.1346177 42.9645142 255 79 163
38.4647872 73.8020398 42.9645142 255 79 163
38.2583554 73.507706 42.9645142 255 79 163
37.9921604 73.2660737 42.9645142 255 79 163
37.6792783 73.0890122 42.9645142 255 79 163
37.3350792 72.9852195 42.9645142 255 79 163
36.9764705 72.9597943 42.9645142 255 79 163
36.6210675 73.0139866 42.9645142 255 79 163
36.3084504 73.1337092 42.9645142 255 79 163
39.2345082 71.3026322 39.8808534 255 79 163
39.0187592 72.592735 40.3732556 255 79 163
38.8652804 73.5104841 40.9282268 255 79 163
38.7480479 74.2114933 41.5353592 255 79 163
38.6919492 74.5469441 41.9712048 255 79 163
38.6611273 74.7312478 42.3418228 255 79 163
38.6465838 74.8182133 42.6487391 255 79 163
38.9972764 72.2337257 40.7329363 255 79 163
38.7677044 73.4346722 41.5338445 255 79 163
38.5373683 72.922533 41.7273368 255 79 163
38.8202197 71.8783766 41.054214 255 79 163
38.6630054 73.9714724 42.1687333 255 79 163
37.5909287 71.1972981 41.5232004 255 79 163
38.1258562 72.5169397 41.8649227 255 79 163
38.5041394 71.5679203 41.3082826 255 79 163
38.0803718 71.3331353 41.4699541 255 79 163
38.4013404 73.4044278 42.2713956 255 79 163
37.5883448 72.2722742 41.9281547 255 79 163
37.9392077 72.9774951 42.3399922 255 79 163
36.9969041 72.2213424 41.9085542 255 79 163
37.3469614 72.7556668 42.3640807 255 79 163
36.7147613 72.7727147 42.3399935 255 79 163
39.2623345 70.55142 40.3009425 255 79 163
39.1006032 71.6695666 40.4806144 255 79 163
38.9736228 70.883248 40.7832759 255 79 163
39.1840914 71.0962421 40.356662 255 79 163
38.3509913 70.5211932 41.2587323 255 79 163
38.5969768 71.119838 41.1701223 255 79 163
38.2326886 70.8462841 41.3342735 255 79 163
38.1870357 71.0014649 41.3721762 255 79 163
38.9187499 71.3799325 40.8646235 255 79 163
24.2829032 80.6527933 41.3424732 255 79 163
24.5684633 80.8817639 41.3823091 255 79 163
24.8399973 81.0994879 41.4998601 255 79 163
25.0841678 81.295271 41.6893522 255 79 163
25.2889816 81.4594968 41.941478 255 79 163
25.4443786 81.5840987 42.2438534 255 79 163
25.5427261 81.6629566 42.5816265 255 79 163
25.5701718 81.6849634 42.7717033 255 79 163
25.5793639 81.6923339 42.9645142 255 79 163
36.0270755 73.3150495 42.9645142 255 79 163
37.8448399 69.7784311 41.3424732 255 79 163
37.1988801 70.9748241 41.4312627 255 79 163
36.5398372 72.1535604 41.7169647 255 79 163
36.3071067 72.6336667 41.9500104 255 79 163
36.1641742 72.9639733 42.2062743 255 79 163
36.0868047 73.1575006 42.4446843 255 79 163
36.0488952 73.2566166 42.6442231 255 79 163
36.032546 73.3002861 42.8026954 255 79 163
27.3527872 42.9258187 1.68791426 218 222 230
27.3705142 42.9258187 1.54191856 218 222 230
27.4226653 42.9258187 1.40440761 218 222 230
27.5062094 42.9258187 1.28337303 218 222 230
27.6162914 42.9258187 1.18584892 218 222 230
27.7465136 42.9258187 1.11750302 218 222 230
27.8893081 42.9258187 1.08230735 218 222 230
28.036376 42.9258187 1.08230735 218 222 230
28.1791705 42.9258187 1.11750302 218 222 230
28.3093927 42.9258187 1.18584892 218 222 230
28.4194747 42.9258187 1.28337303 218 222 230
28.5030188 42.9258187 1.40440761 218 222 230
28.5551699 42.9258187 1.54191856 218 222 230
28.572897 42.9258187 1.68791426 218 222 230
28.572897 42.9258187 2.68791426 218 222 230
28.5551699 42.9258187 2.83390995 218 222 230
28.5030188 42.9258187 2.97142091 218 222 230
28.4194747 42.9258187 3.09245548 218 222 230
28.3093927 42.9258187 3.1899796 218 222 230
28.1791705 42.9258187 3.2583255 218 222 230
28.036376 42.9258187 3.29352117 218 222 230
27.8893081 42.9258187 3.29352117 218 222 230
27.7465136 42.9258187 3.2583255 218 222 230
27.6162914 42.9258187 3.1899796 218 222 230
27.5062094 42.9258187 3.09245548 218 222 230
27.4226653 42.9258187 2.97142091 218 222 230
27.3705142 42.9258187 2.83390995 218 222 230
27.3527872 42.9258187 2.68791426 218 222 230
37.6385248 87.5553912 1.67209098 218 222 230
37.8646865 87.5553912 1.69955199 218 222 230
38.0777046 87.5553912 1.78033908 218 222 230
38.2651991 87.5553912 1.9097572 218 222 230
38.4162736 87.5553912 2.08028504 218 222 230
38.5221481 87.5553912 2.28201214 218 222 230
38.5766697 87.5553912 2.50321485 218 222 230
38.5766697 87.5553912 2.73103769 218 222 230
38.5221481 87.5553912 2.9522404 218 222 230
38.4162736 87.5553912 3.1539675 218 222 230
38.2651991 87.5553912 3.32449534 218 222 230
38.0777046 87.5553912 3.45391346 218 222 230
37.8646865 87.5553912 3.53470055 218 222 230
37.6385248 87.5553912 3.56216155 218 222 230
36.6385248 87.5553912 3.56216155 218 222 230
36.412363 87.5553912 3.53470055 218 222 230
36.199345 87.5553912 3.45391346 218 222 230
36.0118505 87.5553912 3.32449534 218 222 230
35.860776 87.5553912 3.1539675 218 222 230
35.7549015 87.5553912 2.9522404 218 222 230
35.7003799 87.5553912 2.73103769 218 222 230
35.7003799 87.5553912 2.50321485 218 222 230
35.7549015 87.5553912 2.28201214 218 222 230
35.860776 87.5553912 2.08028504 218 222 230
36.0118505 87.5553912 1.9097572 218 222 230
36.199345 87.5553912 1.78033908 218 222 230
36.412363 87.5553912 1.69955199 218 222 230
36.6385248 87.5553912 1.67209098 218 222 230
36.0270755 73.3150495 75.1114591 218 222 230
25.5793639 81.6923339 75.1114591 218 222 230
36.0270755 73.3150495 42.9645142 218 222 230
25.5793639 81.6923339 42.9645142 218 222 230
3 3 2 5
3 0 5 2
3 4 3 5
3 1 5 0
3 59 58 20
3 57 20 58
3 60 59 20
3 56 20 57
3 61 60 20
3 55 20 56
3 54 20 55
3 81 20 54
3 80 20 81
3 79 20 80
3 107 66 65
3 106 67 66
3 106 66 107
3 108 65 64
3 108 107 65
3 105 67 106
3 105 68 67
3 109 64 63
3 109 108 64
3 104 68 105
3 104 69 68
3 82 63 62
3 82 109 63
3 103 69 104
3 103 70 69
3 102 71 70
3 102 70 103
3 101 71 102
3 101 72 71
3 100 73 72
3 100 72 101
3 99 74 73
3 99 73 100
3 21 20 79
3 21 78 77
3 21 79 78
3 98 75 74
3 98 74 99
3 24 23 22
3 26 25 24
3 27 22 21
3 27 26 24
3 27 24 22
3 28 27 21
3 28 77 76
3 28 21 77
3 19 82 62
3 19 83 82
3 19 84 83
3 19 85 84
3 19 86 85
3 19 87 86
3 19 88 87
3 18 89 88
3 18 90 89
3 18 91 90
3 18 88 19
3 17 91 18
3 17 92 91
3 17 93 92
3 17 94 93
3 16 94 17
3 16 95 94
3 16 96 95
3 15 96 16
3 15 97 96
3 15 98 97
3 14 98 15
3 14 75 98
3 43 13 12
3 42 12 11
3 42 43 12
3 44 14 13
3 44 75 14
3 44 13 43
3 41 42 11
3 45 28 76
3 45 76 75
3 45 75 44
3 40 11 10
3 40 41 11
3 46 28 45
3 39 10 9
3 39 40 10
3 29 46 38
3 29 28 46
3 37 29 38
3 30 29 37
3 35 37 36
3 31 30 37
3 34 37 35
3 32 31 37
3 33 37 34
3 33 32 37
3 7 8 6
3 7 9 8
3 7 47 39
3 7 39 9
3 48 47 7
3 51 47 48
3 51 48 49
3 51 49 50
3 51 52 53
3 51 53 47
3 19 61 20
3 19 62 61
3 118 119 125
3 117 125 124
3 117 118 125
3 116 124 123
3 116 117 124
3 115 123 122
3 115 116 123
3 114 122 121
3 114 115 122
3 113 121 120
3 113 114 121
3 112 120 110
3 112 113 120
3 111 112 110
3 131 128 126
3 131 129 128
3 131 130 129
3 127 132 131
3 127 133 132
3 127 131 126
3 145 146 149
3 144 149 148
3 144 145 149
3 143 148 147
3 143 144 148
3 142 147 155
3 142 143 147
3 141 155 154
3 141 142 155
3 140 154 153
3 140 141 154
3 139 153 152
3 139 140 153
3 138 152 151
3 138 139 152
3 137 151 150
3 137 138 151
3 136 150 134
3 136 137 150
3 135 136 134
3 163 162 170
3 161 170 162
3 160 170 161
3 164 163 170
3 159 169 170
3 159 170 160
3 158 169 159
3 165 164 170
3 166 165 170
3 167 166 170
3 157 167 170
3 171 157 170
3 168 169 158
3 156 157 171
3 182 172 173
3 182 181 172
3 183 182 173
3 184 173 174
3 184 183 173
3 185 174 175
3 185 184 174
3 186 185 175
3 187 175 176
3 187 186 175
3 188 176 177
3 188 187 176
3 189 177 178
3 189 188 177
3 180 178 179
3 180 189 178
3 199 200 201
3 199 201 202
3 196 197 198
3 195 196 198
3 192 193 194
3 192 194 195
3 190 195 198
3 190 192 195
3 191 198 199
3 191 199 202
3 191 190 198
3 241 223 222
3 241 222 229
3 242 223 241
3 242 224 223
3 243 225 224
3 243 224 242
3 244 226 225
3 244 225 243
3 245 227 226
3 245 226 244
3 246 212 211
3 246 227 245
3 246 228 227
3 246 211 228
3 247 229 230
3 247 230 231
3 247 241 229
3 248 241 247
3 248 242 241
3 249 242 248
3 249 243 242
3 250 243 249
3 250 244 243
3 251 245 244
3 251 244 250
3 252 251 213
3 252 213 212
3 252 246 245
3 252 212 246
3 252 245 251
3 253 247 231
3 254 247 253
3 254 248 247
3 255 249 248
3 255 248 254
3 256 250 249
3 256 249 255
3 257 213 251
3 257 250 256
3 257 251 250
3 258 214 213
3 258 257 214
3 258 213 257
3 259 231 232
3 259 253 231
3 260 253 259
3 260 254 253
3 261 255 254
3 261 254 260
3 262 257 256
3 262 255 261
3 262 256 255
3 263 214 257
3 263 257 262
3 264 215 214
3 264 263 215
3 264 214 263
3 265 259 232
3 265 232 233
3 265 233 234
3 266 260 259
3 266 259 265
3 267 261 260
3 267 262 261
3 267 260 266
3 268 262 267
3 269 215 263
3 269 263 262
3 269 262 268
3 270 216 215
3 270 215 269
3 270 269 216
3 271 265 234
3 272 266 265
3 272 265 271
3 273 267 266
3 273 266 272
3 274 268 267
3 274 269 268
3 274 267 273
3 275 269 274
3 275 216 269
3 276 217 216
3 276 275 217
3 276 216 275
3 277 234 235
3 277 235 236
3 277 271 234
3 278 272 271
3 278 271 277
3 279 273 272
3 279 274 273
3 279 272 278
3 280 274 279
3 281 217 275
3 281 280 218
3 281 275 274
3 281 274 280
3 282 218 217
3 282 217 281
3 282 281 218
3 283 277 236
3 284 278 277
3 284 277 283
3 285 236 237
3 285 283 236
3 286 278 284
3 286 279 278
3 286 280 279
3 287 284 283
3 287 283 285
3 288 280 286
3 288 218 280
3 289 286 284
3 289 284 287
3 290 218 288
3 291 288 286
3 291 286 289
3 292 218 290
3 292 219 218
3 293 290 288
3 293 288 291
3 294 285 237
3 295 290 293
3 295 292 290
3 295 219 292
3 296 287 285
3 296 285 294
3 296 289 287
3 297 294 237
3 297 237 238
3 298 289 296
3 299 296 294
3 299 294 297
3 300 291 289
3 300 289 298
3 301 298 296
3 301 296 299
3 302 291 300
3 302 293 291
3 303 300 298
3 303 298 301
3 303 302 300
3 304 220 219
3 304 219 295
3 304 295 293
3 304 293 302
3 305 302 303
3 306 297 238
3 307 220 304
3 307 304 302
3 307 302 305
3 308 299 297
3 308 297 306
3 309 238 239
3 309 306 238
3 310 301 299
3 310 299 308
3 311 306 309
3 311 308 306
3 312 303 301
3 312 305 303
3 312 301 310
3 313 310 308
3 313 308 311
3 313 312 310
3 314 305 312
3 315 312 313
3 315 314 312
3 316 221 220
3 316 220 307
3 316 307 305
3 316 305 314
3 317 314 315
3 318 309 239
3 318 311 309
3 319 314 317
3 319 221 316
3 319 316 314
3 320 311 318
3 320 313 311
3 321 318 239
3 322 313 320
3 323 320 318
3 323 318 321
3 324 313 322
3 324 315 313
3 325 321 239
3 325 239 240
3 326 320 323
3 326 322 320
3 327 317 315
3 327 315 324
3 328 323 321
3 328 321 325
3 328 326 323
3 329 324 322
3 329 322 326
3 330 317 327
3 330 221 319
3 330 203 221
3 330 319 317
3 331 209 208
3 331 210 209
3 331 325 240
3 331 328 325
3 331 240 210
3 332 206 205
3 332 326 328
3 333 327 324
3 333 324 329
3 334 206 332
3 334 207 206
3 334 208 207
3 334 328 331
3 334 332 328
3 334 331 208
3 335 332 205
3 335 329 326
3 335 326 332
3 336 204 203
3 336 330 327
3 336 333 204
3 336 203 330
3 336 327 333
3 337 205 204
3 337 335 205
3 337 204 333
3 337 329 335
3 337 333 329
3 345 346 347
3 345 353 352
3 345 347 353
3 344 345 352
3 343 352 351
3 343 344 352
3 342 351 350
3 342 343 351
3 341 350 349
3 341 342 350
3 340 349 348
3 340 341 349
3 339 348 338
3 339 340 348
3 356 354 355
3 356 357 354
3 366 368 367
3 366 373 368
3 365 372 373
3 365 373 366
3 364 371 372
3 364 372 365
3 363 371 364
3 362 370 371
3 362 371 363
3 361 369 370
3 361 370 362
3 360 358 369
3 360 369 361
3 359 358 360
3 392 391 384
3 390 384 391
3 393 392 384
3 389 384 390
3 394 393 384
3 395 394 384
3 388 384 389
3 387 384 388
3 383 395 384
3 381 383 382
3 380 383 381
3 379 383 380
3 378 383 379
3 377 383 378
3 376 383 377
3 374 383 376
3 375 395 383
3 375 383 374
3 385 384 387
3 386 385 387
3 399 398 401
3 400 399 401
3 397 401 402
3 397 400 401
3 403 396 397
3 403 397 402
3 420 404 405
3 420 421 404
3 419 405 406
3 419 420 405
3 418 406 407
3 418 419 406
3 417 407 408
3 417 418 407
3 416 408 409
3 416 417 408
3 415 409 410
3 415 416 409
3 414 410 411
3 414 415 410
3 413 411 412
3 413 414 411
3 425 423 422
3 425 424 423
3 442 427 426
3 442 428 427
3 443 429 428
3 443 428 442
3 444 430 429
3 444 429 443
3 445 431 430
3 445 432 431
3 445 430 444
3 446 432 445
3 447 433 432
3 447 432 446
3 448 434 433
3 448 435 434
3 448 433 447
3 449 435 448
3 450 436 435
3 450 437 436
3 450 435 449
3 451 437 450
3 452 438 437
3 452 439 438
3 452 437 451
3 453 439 452
3 441 440 439
3 441 439 453
3 470 455 454
3 470 456 455
3 470 457 456
3 471 457 470
3 472 458 457
3 472 457 471
3 473 459 458
3 473 458 472
3 474 460 459
3 474 461 460
3 474 459 473
3 475 461 474
3 476 462 461
3 476 463 462
3 476 461 475
3 477 463 476
3 478 464 463
3 478 463 477
3 479 465 464
3 479 464 478
3 480 466 465
3 480 465 479
3 481 467 466
3 481 468 467
3 481 466 480
3 469 468 481
3 485 483 482
3 485 484 483
3 486 488 487
3 489 488 486
3 506 491 490
3 506 492 491
3 507 493 492
3 507 492 506
3 508 494 493
3 508 495 494
3 508 493 507
3 509 496 495
3 509 495 508
3 510 496 509
3 511 497 496
3 511 496 510
3 512 498 497
3 512 497 511
3 513 499 498
3 513 498 512
3 514 500 499
3 514 501 500
3 514 499 513
3 515 501 514
3 516 502 501
3 516 501 515
3 517 503 502
3 517 502 516
3 505 504 503
3 505 503 517
3 518 520 519
3 521 520 518
3 538 523 522
3 538 524 523
3 539 525 524
3 539 524 538
3 540 526 525
3 540 527 526
3 540 525 539
3 541 528 527
3 541 527 540
3 542 528 541
3 543 529 528
3 543 530 529
3 543 528 542
3 544 530 543
3 545 531 530
3 545 530 544
3 546 532 531
3 546 531 545
3 547 533 532
3 547 532 546
3 548 534 533
3 548 535 534
3 548 533 547
3 549 535 548
3 537 536 535
3 537 535 549
3 559 560 561
3 559 561 567
3 558 567 566
3 558 559 567
3 557 566 565
3 557 558 566
3 556 565 564
3 556 557 565
3 555 556 564
3 554 564 563
3 554 555 564
3 553 563 562
3 553 554 563
3 552 562 550
3 552 553 562
3 551 552 550
3 568 590 589
3 568 591 590
3 568 592 591
3 568 593 592
3 568 594 593
3 568 588 594
3 576 577 578
3 576 578 579
3 576 579 580
3 576 580 581
3 576 581 582
3 576 582 583
3 569 583 584
3 569 584 585
3 569 585 586
3 569 586 587
3 569 587 588
3 569 576 583
3 569 588 568
3 570 576 569
3 571 576 570
3 574 575 576
3 572 576 571
3 573 574 576
3 573 576 572
3 601 602 603
3 601 603 604
3 600 604 605
3 600 601 604
3 599 605 606
3 599 600 605
3 598 606 607
3 598 599 606
3 597 607 608
3 597 608 609
3 597 598 607
3 596 609 595
3 596 597 609
3 616 613 614
3 616 614 615
3 612 613 616
3 617 612 616
3 626 618 627
3 623 625 624
3 621 623 622
3 621 626 625
3 621 625 623
3 621 618 626
3 619 621 620
3 619 618 621
3 611 617 618
3 611 618 619
3 610 612 617
3 610 617 611
3 629 631 632
3 629 632 633
3 629 633 634
3 629 634 635
3 629 635 636
3 629 636 637
3 630 631 629
3 638 630 629
3 639 629 628
3 639 638 629
3 648 649 650
3 648 650 651
3 647 651 652
3 647 648 651
3 646 652 653
3 646 647 652
3 645 653 654
3 645 654 655
3 645 646 653
3 644 655 656
3 644 645 655
3 643 656 657
3 643 644 656
3 642 657 658
3 642 643 657
3 641 658 640
3 641 642 658
3 671 661 662
3 684 685 683
3 686 682 681
3 686 683 682
3 686 681 684
3 686 684 683
3 687 662 663
3 687 663 664
3 687 672 671
3 687 673 672
3 687 671 662
3 688 674 673
3 688 675 674
3 688 673 687
3 689 664 665
3 689 688 687
3 689 687 664
3 690 688 689
3 691 665 666
3 691 689 665
3 692 690 689
3 692 689 691
3 693 692 691
3 694 666 667
3 694 691 666
3 695 693 691
3 695 691 694
3 696 680 679
3 696 693 695
3 697 695 694
3 698 667 668
3 698 694 667
3 699 694 698
3 699 697 694
3 700 697 699
3 700 681 680
3 700 680 696
3 700 696 695
3 700 695 697
3 701 668 669
3 701 703 702
3 701 669 703
3 701 698 668
3 701 702 704
3 705 681 700
3 705 698 701
3 705 704 685
3 705 684 681
3 705 701 704
3 705 685 684
3 705 700 699
3 705 699 698
3 706 702 703
3 706 703 669
3 707 660 659
3 707 702 706
3 707 659 683
3 707 685 704
3 707 704 702
3 707 683 685
3 708 676 675
3 708 677 676
3 708 678 677
3 708 679 678
3 708 688 690
3 708 675 688
3 709 708 690
3 709 679 708
3 710 709 690
3 710 696 679
3 710 690 692
3 710 692 693
3 710 679 709
3 710 693 696
3 711 669 670
3 711 670 660
3 711 707 706
3 711 706 669
3 711 660 707
3 719 720 721
3 719 721 722
3 718 722 723
3 718 719 722
3 717 723 724
3 717 718 723
3 716 724 725
3 716 717 724
3 715 725 726
3 715 716 725
3 714 726 727
3 714 715 726
3 713 727 728
3 713 714 727
3 712 713 728
3 731 738 746
3 732 746 745
3 732 731 746
3 733 745 744
3 733 732 745
3 734 744 743
3 734 733 744
3 735 742 741
3 735 743 742
3 735 734 743
3 736 741 740
3 736 735 741
3 737 740 739
3 737 736 740
3 730 739 729
3 730 737 739
3 747 749 748
3 761 750 749
3 761 749 747
3 762 751 750
3 762 750 761
3 763 752 751
3 763 751 762
3 764 753 752
3 764 752 763
3 765 754 753
3 765 753 764
3 766 755 754
3 766 754 765
3 767 756 755
3 767 755 766
3 768 757 756
3 768 756 767
3 769 758 757
3 769 757 768
3 770 759 758
3 770 758 769
3 760 759 770
3 787 778 777
3 786 792 785
3 793 773 772
3 794 772 771
3 794 793 772
3 795 771 779
3 795 794 771
3 796 774 773
3 796 773 793
3 796 793 794
3 797 779 780
3 797 795 779
3 798 794 795
3 798 796 794
3 799 775 774
3 799 776 775
3 799 774 796
3 800 780 781
3 800 797 780
3 801 798 795
3 801 795 797
3 802 796 798
3 802 799 796
3 803 781 782
3 803 797 800
3 803 800 781
3 803 801 797
3 804 798 801
3 804 802 798
3 805 777 776
3 805 788 787
3 805 776 799
3 805 799 802
3 805 787 777
3 806 801 803
3 806 804 801
3 807 789 788
3 807 790 789
3 807 788 805
3 807 802 804
3 807 805 802
3 808 782 783
3 808 783 784
3 808 803 782
3 808 806 803
3 809 791 790
3 809 790 807
3 809 804 806
3 809 807 804
3 810 784 785
3 810 792 791
3 810 791 809
3 810 785 792
3 810 808 784
3 810 806 808
3 810 809 806
3 824 811 812
3 824 823 811
3 825 812 813
3 825 824 812
3 826 813 814
3 826 825 813
3 827 814 815
3 827 826 814
3 828 815 816
3 828 827 815
3 829 816 817
3 829 828 816
3 830 817 818
3 830 829 817
3 831 818 819
3 831 830 818
3 832 819 820
3 832 831 819
3 833 820 821
3 833 832 820
3 822 833 821
3 852 867 868
3 852 868 851
3 849 848 861
3 850 849 861
3 869 863 864
3 870 864 865
3 870 869 864
3 871 869 870
3 871 872 869
3 873 870 865
3 873 852 853
3 873 853 854
3 873 865 866
3 873 866 867
3 873 867 852
3 874 844 843
3 875 877 876
3 875 872 871
3 875 876 872
3 878 875 871
3 878 854 855
3 878 855 856
3 878 871 870
3 878 870 873
3 878 873 854
3 879 877 875
3 880 856 857
3 880 875 878
3 880 878 856
3 881 845 844
3 881 874 877
3 881 844 874
3 881 877 879
3 882 881 879
3 882 857 858
3 882 858 859
3 882 879 875
3 882 880 857
3 882 875 880
3 883 861 848
3 883 846 845
3 883 847 846
3 883 848 847
3 883 859 860
3 883 860 861
3 883 882 859
3 883 845 881
3 883 881 882
3 884 835 834
3 884 836 835
3 884 837 836
3 884 834 862
3 885 862 863
3 885 863 869
3 885 869 872
3 886 838 837
3 886 837 884
3 887 886 884
3 887 884 862
3 887 862 885
3 888 839 838
3 888 840 839
3 888 841 840
3 888 842 841
3 888 843 842
3 888 838 886
3 889 888 886
3 890 888 889
3 890 843 888
3 891 890 889
3 891 889 876
3 891 843 890
3 891 877 874
3 891 876 877
3 891 874 843
3 892 885 872
3 892 886 887
3 892 887 885
3 892 876 889
3 892 889 886
3 892 872 876
3 901 910 902
3 900 909 910
3 900 910 901
3 899 908 909
3 899 909 900
3 898 907 908
3 898 908 899
3 897 905 906
3 897 906 907
3 897 907 898
3 896 905 897
3 895 904 905
3 895 905 896
3 894 903 904
3 894 904 895
3 893 903 894
3 926 927 928
3 926 928 929
3 925 929 930
3 925 930 931
3 925 931 932
3 925 932 933
3 925 933 934
3 925 934 935
3 925 935 936
3 925 936 937
3 925 937 938
3 925 938 911
3 925 926 929
3 924 925 911
3 918 914 915
3 918 915 916
3 918 916 917
3 923 924 911
3 919 912 913
3 919 913 914
3 919 914 918
3 921 911 912
3 921 919 920
3 921 922 923
3 921 912 919
3 921 923 911
3 953 954 955
3 953 955 956
3 953 956 957
3 960 957 958
3 960 958 959
3 960 953 957
3 962 960 961
3 964 962 963
3 950 951 952
3 949 950 952
3 966 952 953
3 966 964 965
3 966 953 960
3 966 960 962
3 966 962 964
3 948 949 952
3 947 948 952
3 946 947 952
3 939 952 966
3 945 946 952
3 940 952 939
3 944 945 952
3 941 952 940
3 943 944 952
3 942 952 941
3 942 943 952
3 968 969 967
3 968 970 969
