ply
format ascii 1.0
comment generated by blendit.inference.finetune_visualize
element vertex 1303
property float x
property float y
property float z
property uchar red
property uchar green
property uchar blue
element face 1636
property list uchar int vertex_indices
end_header
0 -1.11022302e-16 31.2637128 218 222 230
0 -1.11022302e-16 61.630821 218 222 230
0 0.0243097711 31.0350073 218 222 230
0 0.0955824135 30.8218878 218 222 230
0 0.208960814 30.6388779 218 222 230
0 0.340667118 30.5102773 218 222 230
0 0.477048188 30.4299783 218 222 230
0 0.593537172 30.3926311 218 222 230
0 0.713436847 30.3800628 218 222 230
0 11.1890207 30.3800628 218 222 230
-1.11022302e-16 11.9024575 30.3800628 218 222 230
-1.11022302e-16 11.9024575 0.713436847 218 222 230
-1.11022302e-16 58.5244912 0.713436847 218 222 230
-1.11022302e-16 58.5244912 62.348678 218 222 230
0 29.6980136 59.1348833 218 222 230
0 29.5399144 59.1348833 218 222 230
0 29.592566 59.1309789 218 222 230
0 29.6453621 59.1309789 218 222 230
0 0.792486451 62.339865 218 222 230
0 0.0204927922 61.8005876 218 222 230
0 0.0807938971 61.9606013 218 222 230
0 0.177439131 62.1016698 218 222 230
0 0.304876411 62.215689 218 222 230
0 0.455784707 62.2961086 218 222 230
0 0.621494627 62.3383087 218 222 230
0 7.10138736 44.6224195 218 222 230
0 5.09818355 44.537678 218 222 230
0 4.02319336 46.2301326 218 222 230
0 4.95140698 48.0073287 218 222 230
0 6.95461079 48.0920702 218 222 230
0 8.02960098 46.3996156 218 222 230
81.7942266 -1.11022302e-16 31.2637128 218 222 230
81.7942266 0 72.0855247 218 222 230
41.739024 0 60.5365051 218 222 230
40.0552026 0 60.5365051 218 222 230
40.3143295 0 60.686916 218 222 230
40.5991525 0 60.7798998 218 222 230
40.8971133 0 60.8113567 218 222 230
41.1950741 0 60.7798998 218 222 230
41.4798971 0 60.686916 218 222 230
0 -1.11022302e-16 31.2637128 218 222 230
0 -1.11022302e-16 61.630821 218 222 230
21.2284939 -1.11022302e-16 61.630821 218 222 230
21.2284939 -1.11022302e-16 72.7989615 218 222 230
81.0807898 0 72.7989615 218 222 230
81.7763392 0 72.2442793 218 222 230
81.7235741 0 72.3950733 218 222 230
81.6385771 0 72.5303453 218 222 230
81.5256103 0 72.6433121 218 222 230
81.3903384 0 72.7283091 218 222 230
81.2395444 0 72.7810742 218 222 230
61.4622129 0 50.3902925 218 222 230
62.4296737 0 50.5077635 218 222 230
63.3409092 0 50.8533495 218 222 230
64.1429617 0 51.4069664 218 222 230
64.7892188 0 52.1364399 218 222 230
65.2421224 0 52.9993756 218 222 230
65.4753514 0 53.945623 218 222 230
65.4753514 0 54.9201895 218 222 230
65.2421224 0 55.8664368 218 222 230
64.7892188 0 56.7293726 218 222 230
64.1429617 0 57.458846 218 222 230
63.3409092 0 58.0124629 218 222 230
62.4296737 0 58.3580489 218 222 230
61.4622129 0 58.4755199 218 222 230
60.4947521 0 58.3580489 218 222 230
59.5835167 0 58.0124629 218 222 230
58.7814642 0 57.458846 218 222 230
58.1352071 0 56.7293726 218 222 230
57.6823034 0 55.8664368 218 222 230
57.4490744 0 54.9201895 218 222 230
57.4490744 0 53.945623 218 222 230
57.6823034 0 52.9993756 218 222 230
58.1352071 0 52.1364399 218 222 230
58.7814642 0 51.4069664 218 222 230
59.5835167 0 50.8533495 218 222 230
60.4947521 0 50.5077635 218 222 230
40.0552026 0 60.5365051 255 79 163
0 -1.11022302e-16 31.2637128 255 79 163
0 0.0243097711 31.0350073 255 79 163
0 0.0955824135 30.8218878 255 79 163
0 0.208960814 30.6388779 255 79 163
0 0.340667118 30.5102773 255 79 163
0 0.477048188 30.4299783 255 79 163
0 0.593537172 30.3926311 255 79 163
0 0.713436847 30.3800628 255 79 163
40.4761579 0.713436847 59.9604941 255 79 163
40.148874 0.0178873513 60.4083306 255 79 163
40.2378483 0.0706524586 60.2865833 255 79 163
40.317664 0.155649459 60.1773681 255 79 163
40.3843187 0.268616249 60.0861616 255 79 163
40.4344703 0.4038882 60.0175371 255 79 163
40.4656037 0.554682213 59.9749359 255 79 163
20.5150571 0.713436847 62.3442579 255 79 163
20.5150571 0.739834903 62.3437693 255 79 163
20.5150571 0.766196806 62.3423044 255 79 163
20.5150571 0.792486451 62.339865 255 79 163
0 0.792486451 62.339865 255 79 163
0 -1.11022302e-16 61.630821 255 79 163
0 0.0204927922 61.8005876 255 79 163
0 0.0807938971 61.9606013 255 79 163
0 0.177439131 62.1016698 255 79 163
0 0.304876411 62.215689 255 79 163
0 0.455784707 62.2961086 255 79 163
0 0.621494627 62.3383087 255 79 163
21.2284939 -1.11022302e-16 61.630821 255 79 163
21.0438429 0.0243097711 61.8154721 255 79 163
20.8717755 0.0955824135 61.9875395 255 79 163
20.7240179 0.208960814 62.1352971 255 79 163
20.620189 0.340667118 62.2391259 255 79 163
20.5605214 0.462828045 62.2987936 255 79 163
20.5275161 0.580687923 62.3317988 255 79 163
20.5181787 0.646770692 62.3411363 255 79 163
0 0.713436847 30.3800628 218 222 230
0 11.1890207 30.3800628 218 222 230
40.4761579 0.713436847 59.9604941 218 222 230
40.4761579 11.1890207 59.9604941 218 222 230
0.713436847 11.1890207 30.9014505 218 222 230
-1.11022302e-16 11.9024575 30.3800628 218 222 230
0.0129538602 11.7671219 30.3895297 218 222 230
0.0513450349 11.6367009 30.4175864 218 222 230
0.113779388 11.5159306 30.4632141 218 222 230
0.197989681 11.4091966 30.5247559 218 222 230
0.300917905 11.3203748 30.599977 218 222 230
0.418826326 11.2526908 30.6861458 218 222 230
0.547433224 11.2086024 30.7801332 218 222 230
0.629859567 11.193933 30.8403713 218 222 230
0 29.5399144 59.1348833 218 222 230
0 0.792486451 62.339865 218 222 230
19.958746 29.5399144 59.1348833 218 222 230
20.0512506 29.4154553 59.1487589 218 222 230
20.2394889 28.941283 59.2016233 218 222 230
20.3877463 28.2350275 59.280362 218 222 230
20.5150571 26.3995163 59.4849987 218 222 230
20.5150571 0.792486451 62.339865 218 222 230
0 29.5399144 59.1348833 255 79 163
0 29.592566 59.1309789 255 79 163
0 29.6453621 59.1309789 255 79 163
0 29.6980136 59.1348833 255 79 163
19.8016202 29.6980136 59.1348833 255 79 163
19.841206 29.6585498 59.1315894 255 79 163
19.8806698 29.618964 59.1304904 255 79 163
19.9198901 29.5793783 59.1315894 255 79 163
19.958746 29.5399144 59.1348833 255 79 163
-1.11022302e-16 11.9024575 30.3800628 255 79 163
-1.11022302e-16 11.9024575 0.713436847 255 79 163
0.713436847 11.1890207 0.713436847 255 79 163
0.554682213 11.206908 0.713436847 255 79 163
0.4038882 11.2596731 0.713436847 255 79 163
0.268616249 11.3446701 0.713436847 255 79 163
0.155649459 11.4576369 0.713436847 255 79 163
0.0706524586 11.5929089 0.713436847 255 79 163
0.0178873513 11.7437029 0.713436847 255 79 163
0.713436847 11.1890207 30.9014505 255 79 163
0.0129538602 11.7671219 30.3895297 255 79 163
0.0513450349 11.6367009 30.4175864 255 79 163
0.113779388 11.5159306 30.4632141 255 79 163
0.197989681 11.4091966 30.5247559 255 79 163
0.300917905 11.3203748 30.599977 255 79 163
0.418826326 11.2526908 30.6861458 255 79 163
0.547433224 11.2086024 30.7801332 255 79 163
0.629859567 11.193933 30.8403713 255 79 163
0.713436847 59.2379281 62.4282174 218 222 230
19.8016202 59.2379281 62.4282174 218 222 230
19.8016202 29.6980136 59.1348833 218 222 230
0 29.6980136 59.1348833 218 222 230
-1.11022302e-16 58.5244912 62.348678 218 222 230
0.0197123169 58.6910398 62.3672461 218 222 230
0.0777599617 58.8483848 62.3847881 218 222 230
0.170935212 58.9878314 62.4003347 218 222 230
0.29408919 59.1016738 62.4130267 218 222 230
0.440416386 59.1836209 62.4221628 218 222 230
0.574252223 59.2242196 62.4266891 218 222 230
-1.11022302e-16 58.5244912 0.713436847 255 79 163
0.0243097711 58.7091423 0.528785803 255 79 163
0.0955824135 58.8812097 0.356718423 255 79 163
0.208960814 59.0289673 0.208960814 255 79 163
0.340667118 59.1327961 0.105131936 255 79 163
0.462828045 59.1924638 0.0454642704 255 79 163
0.580687923 59.225469 0.0124590599 255 79 163
0.646770692 59.2348065 0.00312159414 255 79 163
0.713436847 59.2379281 -1.11022302e-16 255 79 163
0.713436847 11.9024575 -1.11022302e-16 255 79 163
-1.11022302e-16 11.9024575 0.713436847 255 79 163
0.0178873513 11.9024575 0.554682213 255 79 163
0.0706524586 11.9024575 0.4038882 255 79 163
0.155649459 11.9024575 0.268616249 255 79 163
0.268616249 11.9024575 0.155649459 255 79 163
0.4038882 11.9024575 0.0706524586 255 79 163
0.554682213 11.9024575 0.0178873513 255 79 163
-1.11022302e-16 58.5244912 0.713436847 255 79 163
-1.11022302e-16 58.5244912 62.348678 255 79 163
0.0197123169 58.6910398 62.3672461 255 79 163
0.0777599617 58.8483848 62.3847881 255 79 163
0.170935212 58.9878314 62.4003347 255 79 163
0.29408919 59.1016738 62.4130267 255 79 163
0.440416386 59.1836209 62.4221628 255 79 163
0.574252223 59.2242196 62.4266891 255 79 163
0.713436847 59.2379281 62.4282174 255 79 163
0.713436847 59.2379281 -1.11022302e-16 255 79 163
0.0243097711 58.7091423 0.528785803 255 79 163
0.0955824135 58.8812097 0.356718423 255 79 163
0.208960814 59.0289673 0.208960814 255 79 163
0.340667118 59.1327961 0.105131936 255 79 163
0.462828045 59.1924638 0.0454642704 255 79 163
0.580687923 59.225469 0.0124590599 255 79 163
0.646770692 59.2348065 0.00312159414 255 79 163
0 7.10138736 44.6224195 218 222 230
6.27645577 7.10138736 44.6224195 218 222 230
6.27645577 5.09818355 44.537678 218 222 230
0 5.09818355 44.537678 218 222 230
0 8.02960098 46.3996156 218 222 230
6.27645577 8.02960098 46.3996156 218 222 230
6.27645577 7.10138736 44.6224195 218 222 230
0 7.10138736 44.6224195 218 222 230
0 6.95461079 48.0920702 218 222 230
6.27645577 6.95461079 48.0920702 218 222 230
6.27645577 8.02960098 46.3996156 218 222 230
0 8.02960098 46.3996156 218 222 230
0 4.95140698 48.0073287 218 222 230
6.27645577 4.95140698 48.0073287 218 222 230
6.27645577 6.95461079 48.0920702 218 222 230
0 6.95461079 48.0920702 218 222 230
0 4.02319336 46.2301326 218 222 230
6.27645577 4.02319336 46.2301326 218 222 230
6.27645577 4.95140698 48.0073287 218 222 230
0 4.95140698 48.0073287 218 222 230
0 5.09818355 44.537678 218 222 230
6.27645577 5.09818355 44.537678 218 222 230
6.27645577 4.02319336 46.2301326 218 222 230
0 4.02319336 46.2301326 218 222 230
81.7942266 -1.11022302e-16 31.2637128 218 222 230
81.7942266 0 72.0855247 218 222 230
81.7942266 0.0243097711 31.0350073 218 222 230
81.7942266 0.0955824135 30.8218878 218 222 230
81.7942266 0.208960814 30.6388779 218 222 230
81.7942266 0.340667118 30.5102773 218 222 230
81.7942266 0.477048188 30.4299783 218 222 230
81.7942266 0.593537172 30.3926311 218 222 230
81.7942266 0.713436847 30.3800628 218 222 230
81.7942266 11.1890207 30.3800628 218 222 230
81.7942266 11.1890207 0.713436847 218 222 230
81.7942266 11.206908 0.554682213 218 222 230
81.7942266 11.2596731 0.4038882 218 222 230
81.7942266 11.3446701 0.268616249 218 222 230
81.7942266 11.4576369 0.155649459 218 222 230
81.7942266 11.5929089 0.0706524586 218 222 230
81.7942266 11.7437029 0.0178873513 218 222 230
81.7942266 11.9024575 -1.11022302e-16 218 222 230
81.7942266 59.2379281 0 218 222 230
81.7942266 59.2379281 72.0855247 218 222 230
81.7942266 -1.11022302e-16 31.2637128 255 79 163
41.739024 0 60.5365051 255 79 163
41.6453526 0.0178873513 60.4083306 255 79 163
41.5563783 0.0706524586 60.2865833 255 79 163
41.4765626 0.155649459 60.1773681 255 79 163
41.4099079 0.268616249 60.0861616 255 79 163
41.3597563 0.4038882 60.0175371 255 79 163
41.3286229 0.554682213 59.9749359 255 79 163
41.3180686 0.713436847 59.9604941 255 79 163
81.7942266 0.713436847 30.3800628 255 79 163
81.7942266 0.0243097711 31.0350073 255 79 163
81.7942266 0.0955824135 30.8218878 255 79 163
81.7942266 0.208960814 30.6388779 255 79 163
81.7942266 0.340667118 30.5102773 255 79 163
81.7942266 0.477048188 30.4299783 255 79 163
81.7942266 0.593537172 30.3926311 255 79 163
81.7942266 0 72.0855247 218 222 230
81.7942266 59.2379281 72.0855247 218 222 230
81.7763392 59.2379281 72.2442793 218 222 230
81.7235741 59.2379281 72.3950733 218 222 230
81.6385771 59.2379281 72.5303453 218 222 230
81.5256103 59.2379281 72.6433121 218 222 230
81.3903384 59.2379281 72.7283091 218 222 230
81.2395444 59.2379281 72.7810742 218 222 230
81.0807898 59.2379281 72.7989615 218 222 230
81.0807898 0 72.7989615 218 222 230
81.7763392 0 72.2442793 218 222 230
81.7235741 0 72.3950733 218 222 230
81.6385771 0 72.5303453 218 222 230
81.5256103 0 72.6433121 218 222 230
81.3903384 0 72.7283091 218 222 230
81.2395444 0 72.7810742 218 222 230
40.4761579 0.713436847 59.9604941 255 79 163
40.6057214 0.713436847 60.0356995 255 79 163
40.7481329 0.713436847 60.0821914 255 79 163
40.8971133 0.713436847 60.0979199 255 79 163
41.0460937 0.713436847 60.0821914 255 79 163
41.1885052 0.713436847 60.0356995 255 79 163
41.3180686 0.713436847 59.9604941 255 79 163
41.739024 0 60.5365051 255 79 163
41.6453526 0.0178873513 60.4083306 255 79 163
41.5563783 0.0706524586 60.2865833 255 79 163
41.4765626 0.155649459 60.1773681 255 79 163
41.4099079 0.268616249 60.0861616 255 79 163
41.3597563 0.4038882 60.0175371 255 79 163
41.3286229 0.554682213 59.9749359 255 79 163
40.0552026 0 60.5365051 255 79 163
40.3143295 0 60.686916 255 79 163
40.5991525 0 60.7798998 255 79 163
40.8971133 0 60.8113567 255 79 163
41.1950741 0 60.7798998 255 79 163
41.4798971 0 60.686916 255 79 163
40.148874 0.0178873513 60.4083306 255 79 163
40.2378483 0.0706524586 60.2865833 255 79 163
40.317664 0.155649459 60.1773681 255 79 163
40.3843187 0.268616249 60.0861616 255 79 163
40.4344703 0.4038882 60.0175371 255 79 163
40.4656037 0.554682213 59.9749359 255 79 163
41.4150563 0.0178873513 60.5420067 255 79 163
41.3534669 0.0706524586 60.4043637 255 79 163
41.1619228 0.0178873513 60.6246451 255 79 163
41.2982172 0.155649459 60.2808891 255 79 163
41.1304339 0.0706524586 60.4771755 255 79 163
40.8971133 0.0178873513 60.6526021 255 79 163
41.2520778 0.268616249 60.1777744 255 79 163
41.1021863 0.155649459 60.3448857 255 79 163
40.8971133 0.0706524586 60.5018081 255 79 163
41.2173621 0.4038882 60.1001902 255 79 163
40.6323038 0.0178873513 60.6246451 255 79 163
41.0785965 0.268616249 60.2344094 255 79 163
40.8971133 0.155649459 60.3665361 255 79 163
41.195811 0.554682213 60.0520269 255 79 163
40.6637927 0.0706524586 60.4771755 255 79 163
41.0608474 0.4038882 60.1512863 255 79 163
40.3791703 0.0178873513 60.5420067 255 79 163
40.8971133 0.268616249 60.2535693 255 79 163
40.6920403 0.155649459 60.3448857 255 79 163
41.0498289 0.554682213 60.0996844 255 79 163
40.4407597 0.0706524586 60.4043637 255 79 163
40.8971133 0.4038882 60.1685723 255 79 163
40.7156301 0.268616249 60.2344094 255 79 163
40.4960094 0.155649459 60.2808891 255 79 163
40.8971133 0.554682213 60.1158072 255 79 163
40.7333792 0.4038882 60.1512863 255 79 163
40.5421488 0.268616249 60.1777744 255 79 163
40.7443977 0.554682213 60.0996844 255 79 163
40.5768645 0.4038882 60.1001902 255 79 163
40.5984156 0.554682213 60.0520269 255 79 163
20.5150571 0.713436847 72.7989615 218 222 230
20.5150571 58.5244912 72.7989615 218 222 230
21.2284939 -1.11022302e-16 72.7989615 218 222 230
21.0697393 0.0178873513 72.7989615 218 222 230
20.9189453 0.0706524586 72.7989615 218 222 230
20.7836733 0.155649459 72.7989615 218 222 230
20.6707065 0.268616249 72.7989615 218 222 230
20.5857095 0.4038882 72.7989615 218 222 230
20.5329444 0.554682213 72.7989615 218 222 230
81.0807898 0 72.7989615 218 222 230
81.0807898 59.2379281 72.7989615 218 222 230
21.2284939 59.2379281 72.7989615 218 222 230
21.0697393 59.2200407 72.7989615 218 222 230
20.9189453 59.1672756 72.7989615 218 222 230
20.7836733 59.0822786 72.7989615 218 222 230
20.6707065 58.9693118 72.7989615 218 222 230
20.5857095 58.8340399 72.7989615 218 222 230
20.5329444 58.6832459 72.7989615 218 222 230
21.2284939 -1.11022302e-16 61.630821 255 79 163
21.2284939 -1.11022302e-16 72.7989615 255 79 163
21.0697393 0.0178873513 72.7989615 255 79 163
20.9189453 0.0706524586 72.7989615 255 79 163
20.7836733 0.155649459 72.7989615 255 79 163
20.6707065 0.268616249 72.7989615 255 79 163
20.5857095 0.4038882 72.7989615 255 79 163
20.5329444 0.554682213 72.7989615 255 79 163
20.5150571 0.713436847 72.7989615 255 79 163
20.5150571 0.713436847 62.3442579 255 79 163
21.0438429 0.0243097711 61.8154721 255 79 163
20.8717755 0.0955824135 61.9875395 255 79 163
20.7240179 0.208960814 62.1352971 255 79 163
20.620189 0.340667118 62.2391259 255 79 163
20.5605214 0.462828045 62.2987936 255 79 163
20.5275161 0.580687923 62.3317988 255 79 163
20.5181787 0.646770692 62.3411363 255 79 163
61.4622129 0 50.3902925 255 79 163
61.4622129 0.0178873513 50.5490471 255 79 163
61.4622129 0.0706524586 50.6998411 255 79 163
61.4622129 0.155649459 50.8351131 255 79 163
61.4622129 0.268616249 50.9480799 255 79 163
61.4622129 0.4038882 51.0330769 255 79 163
61.4622129 0.554682213 51.085842 255 79 163
61.4622129 0.713436847 51.1037293 255 79 163
62.4296737 0 50.5077635 255 79 163
63.3409092 0 50.8533495 255 79 163
64.1429617 0 51.4069664 255 79 163
64.7892188 0 52.1364399 255 79 163
65.2421224 0 52.9993756 255 79 163
65.4753514 0 53.945623 255 79 163
65.4753514 0 54.9201895 255 79 163
65.2421224 0 55.8664368 255 79 163
64.7892188 0 56.7293726 255 79 163
64.1429617 0 57.458846 255 79 163
63.3409092 0 58.0124629 255 79 163
62.4296737 0 58.3580489 255 79 163
61.4622129 0 58.4755199 255 79 163
60.4947521 0 58.3580489 255 79 163
59.5835167 0 58.0124629 255 79 163
58.7814642 0 57.458846 255 79 163
58.1352071 0 56.7293726 255 79 163
57.6823034 0 55.8664368 255 79 163
57.4490744 0 54.9201895 255 79 163
57.4490744 0 53.945623 255 79 163
57.6823034 0 52.9993756 255 79 163
58.1352071 0 52.1364399 255 79 163
58.7814642 0 51.4069664 255 79 163
59.5835167 0 50.8533495 255 79 163
60.4947521 0 50.5077635 255 79 163
61.4622129 0 50.3902925 255 79 163
61.4622129 0.0178873513 50.5490471 255 79 163
61.4622129 0.0706524586 50.6998411 255 79 163
61.4622129 0.155649459 50.8351131 255 79 163
61.4622129 0.268616249 50.9480799 255 79 163
61.4622129 0.4038882 51.0330769 255 79 163
61.4622129 0.554682213 51.085842 255 79 163
61.4622129 0.713436847 51.1037293 255 79 163
62.2589371 0.713436847 51.2004692 255 79 163
63.0093586 0.713436847 51.4850665 255 79 163
63.6698655 0.713436847 51.9409815 255 79 163
64.2020718 0.713436847 52.5417182 255 79 163
64.5750474 0.713436847 53.2523638 255 79 163
64.7671164 0.713436847 54.0316183 255 79 163
64.7671164 0.713436847 54.8341941 255 79 163
64.5750474 0.713436847 55.6134486 255 79 163
64.2020718 0.713436847 56.3240942 255 79 163
63.6698655 0.713436847 56.9248309 255 79 163
63.0093586 0.713436847 57.3807459 255 79 163
62.2589371 0.713436847 57.6653433 255 79 163
61.4622129 0.713436847 57.7620831 255 79 163
60.6654888 0.713436847 57.6653433 255 79 163
59.9150673 0.713436847 57.3807459 255 79 163
59.2545603 0.713436847 56.9248309 255 79 163
58.7223541 0.713436847 56.3240942 255 79 163
58.3493785 0.713436847 55.6134486 255 79 163
58.1573095 0.713436847 54.8341941 255 79 163
58.1573095 0.713436847 54.0316183 255 79 163
58.3493785 0.713436847 53.2523638 255 79 163
58.7223541 0.713436847 52.5417182 255 79 163
59.2545603 0.713436847 51.9409815 255 79 163
59.9150673 0.713436847 51.4850665 255 79 163
60.6654888 0.713436847 51.2004692 255 79 163
62.3916812 0.0178873513 50.661905 255 79 163
62.3555939 0.0706524586 50.8083172 255 79 163
62.3232212 0.155649459 50.9396584 255 79 163
62.2961865 0.268616249 51.0493426 255 79 163
62.2758453 0.4038882 51.1318697 255 79 163
62.2632178 0.554682213 51.1831016 255 79 163
63.2671322 0.0178873513 50.9939198 255 79 163
63.1970548 0.0706524586 51.1274413 255 79 163
63.1341908 0.155649459 51.2472186 255 79 163
63.0816925 0.268616249 51.3472457 255 79 163
63.0421924 0.4038882 51.4225068 255 79 163
63.0176712 0.554682213 51.469228 255 79 163
64.0376879 0.0178873513 51.5257959 255 79 163
63.937693 0.0706524586 51.6386669 255 79 163
63.8479911 0.155649459 51.7399194 255 79 163
63.7730802 0.268616249 51.8244762 255 79 163
63.7167168 0.4038882 51.8880974 255 79 163
63.6817271 0.554682213 51.9275927 255 79 163
64.6585663 0.0178873513 52.2266228 255 79 163
64.5344653 0.0706524586 52.3122835 255 79 163
64.4231386 0.155649459 52.3891268 255 79 163
64.3301688 0.268616249 52.4532992 255 79 163
64.2602176 0.4038882 52.501583 255 79 163
64.2167928 0.554682213 52.531557 255 79 163
65.0936843 0.0178873513 53.0556708 255 79 163
64.9526894 0.0706524586 53.1091431 255 79 163
64.8262079 0.155649459 53.1571112 255 79 163
64.7205821 0.268616249 53.1971698 255 79 163
64.6411086 0.4038882 53.2273101 255 79 163
64.5917723 0.554682213 53.2460209 255 79 163
65.3177543 0.0178873513 53.9647587 255 79 163
65.1680598 0.0706524586 53.9829349 255 79 163
65.0337741 0.155649459 53.9992402 255 79 163
64.921631 0.268616249 54.0128568 255 79 163
64.8372537 0.4038882 54.0231021 255 79 163
64.7848733 0.554682213 54.0294622 255 79 163
65.3177543 0.0178873513 54.9010537 255 79 163
65.1680598 0.0706524586 54.8828775 255 79 163
65.0337741 0.155649459 54.8665723 255 79 163
64.921631 0.268616249 54.8529556 255 79 163
64.8372537 0.4038882 54.8427104 255 79 163
64.7848733 0.554682213 54.8363502 255 79 163
65.0936843 0.0178873513 55.8101416 255 79 163
64.9526894 0.0706524586 55.7566693 255 79 163
64.8262079 0.155649459 55.7087012 255 79 163
64.7205821 0.268616249 55.6686427 255 79 163
64.6411086 0.4038882 55.6385023 255 79 163
64.5917723 0.554682213 55.6197915 255 79 163
64.6585663 0.0178873513 56.6391896 255 79 163
64.5344653 0.0706524586 56.5535289 255 79 163
64.4231386 0.155649459 56.4766857 255 79 163
64.3301688 0.268616249 56.4125132 255 79 163
64.2602176 0.4038882 56.3642294 255 79 163
64.2167928 0.554682213 56.3342554 255 79 163
64.0376879 0.0178873513 57.3400165 255 79 163
63.937693 0.0706524586 57.2271455 255 79 163
63.8479911 0.155649459 57.125893 255 79 163
63.7730802 0.268616249 57.0413362 255 79 163
63.7167168 0.4038882 56.977715 255 79 163
63.6817271 0.554682213 56.9382198 255 79 163
63.2671322 0.0178873513 57.8718926 255 79 163
63.1970548 0.0706524586 57.7383712 255 79 163
63.1341908 0.155649459 57.6185938 255 79 163
63.0816925 0.268616249 57.5185667 255 79 163
63.0421924 0.4038882 57.4433056 255 79 163
63.0176712 0.554682213 57.3965844 255 79 163
62.3916812 0.0178873513 58.2039074 255 79 163
62.3555939 0.0706524586 58.0574952 255 79 163
62.3232212 0.155649459 57.926154 255 79 163
62.2961865 0.268616249 57.8164698 255 79 163
62.2758453 0.4038882 57.7339427 255 79 163
62.2632178 0.554682213 57.6827108 255 79 163
61.4622129 0.0178873513 58.3167653 255 79 163
61.4622129 0.0706524586 58.1659713 255 79 163
61.4622129 0.155649459 58.0306993 255 79 163
61.4622129 0.268616249 57.9177325 255 79 163
61.4622129 0.4038882 57.8327355 255 79 163
61.4622129 0.554682213 57.7799704 255 79 163
60.5327446 0.0178873513 58.2039074 255 79 163
60.568832 0.0706524586 58.0574952 255 79 163
60.6012047 0.155649459 57.926154 255 79 163
60.6282394 0.268616249 57.8164698 255 79 163
60.6485805 0.4038882 57.7339427 255 79 163
60.661208 0.554682213 57.6827108 255 79 163
59.6572936 0.0178873513 57.8718926 255 79 163
59.7273711 0.0706524586 57.7383712 255 79 163
59.7902351 0.155649459 57.6185938 255 79 163
59.8427334 0.268616249 57.5185667 255 79 163
59.8822335 0.4038882 57.4433056 255 79 163
59.9067546 0.554682213 57.3965844 255 79 163
58.886738 0.0178873513 57.3400165 255 79 163
58.9867329 0.0706524586 57.2271455 255 79 163
59.0764348 0.155649459 57.125893 255 79 163
59.1513456 0.268616249 57.0413362 255 79 163
59.2077091 0.4038882 56.977715 255 79 163
59.2426988 0.554682213 56.9382198 255 79 163
58.2658596 0.0178873513 56.6391896 255 79 163
58.3899606 0.0706524586 56.5535289 255 79 163
58.5012872 0.155649459 56.4766857 255 79 163
58.5942571 0.268616249 56.4125132 255 79 163
58.6642082 0.4038882 56.3642294 255 79 163
58.7076331 0.554682213 56.3342554 255 79 163
57.8307416 0.0178873513 55.8101416 255 79 163
57.9717364 0.0706524586 55.7566693 255 79 163
58.0982179 0.155649459 55.7087012 255 79 163
58.2038437 0.268616249 55.6686427 255 79 163
58.2833173 0.4038882 55.6385023 255 79 163
58.3326535 0.554682213 55.6197915 255 79 163
57.6066715 0.0178873513 54.9010537 255 79 163
57.7563661 0.0706524586 54.8828775 255 79 163
57.8906518 0.155649459 54.8665723 255 79 163
58.0027949 0.268616249 54.8529556 255 79 163
58.0871722 0.4038882 54.8427104 255 79 163
58.1395526 0.554682213 54.8363502 255 79 163
57.6066715 0.0178873513 53.9647587 255 79 163
57.7563661 0.0706524586 53.9829349 255 79 163
57.8906518 0.155649459 53.9992402 255 79 163
58.0027949 0.268616249 54.0128568 255 79 163
58.0871722 0.4038882 54.0231021 255 79 163
58.1395526 0.554682213 54.0294622 255 79 163
57.8307416 0.0178873513 53.0556708 255 79 163
57.9717364 0.0706524586 53.1091431 255 79 163
58.0982179 0.155649459 53.1571112 255 79 163
58.2038437 0.268616249 53.1971698 255 79 163
58.2833173 0.4038882 53.2273101 255 79 163
58.3326535 0.554682213 53.2460209 255 79 163
58.2658596 0.0178873513 52.2266228 255 79 163
58.3899606 0.0706524586 52.3122835 255 79 163
58.5012872 0.155649459 52.3891268 255 79 163
58.5942571 0.268616249 52.4532992 255 79 163
58.6642082 0.4038882 52.501583 255 79 163
58.7076331 0.554682213 52.531557 255 79 163
58.886738 0.0178873513 51.5257959 255 79 163
58.9867329 0.0706524586 51.6386669 255 79 163
59.0764348 0.155649459 51.7399194 255 79 163
59.1513456 0.268616249 51.8244762 255 79 163
59.2077091 0.4038882 51.8880974 255 79 163
59.2426988 0.554682213 51.9275927 255 79 163
59.6572936 0.0178873513 50.9939198 255 79 163
59.7273711 0.0706524586 51.1274413 255 79 163
59.7902351 0.155649459 51.2472186 255 79 163
59.8427334 0.268616249 51.3472457 255 79 163
59.8822335 0.4038882 51.4225068 255 79 163
59.9067546 0.554682213 51.469228 255 79 163
60.5327446 0.0178873513 50.661905 255 79 163
60.568832 0.0706524586 50.8083172 255 79 163
60.6012047 0.155649459 50.9396584 255 79 163
60.6282394 0.268616249 51.0493426 255 79 163
60.6485805 0.4038882 51.1318697 255 79 163
60.661208 0.554682213 51.1831016 255 79 163
20.5150571 0.713436847 72.7989615 218 222 230
20.5150571 58.5244912 72.7989615 218 222 230
20.5150571 58.5244912 63.066535 218 222 230
20.5150571 26.3995163 59.4849987 218 222 230
20.5150571 0.792486451 62.339865 218 222 230
20.5150571 0.713436847 62.3442579 218 222 230
20.5150571 0.739834903 62.3437693 218 222 230
20.5150571 0.766196806 62.3423044 218 222 230
40.4761579 0.713436847 59.9604941 255 79 163
40.4761579 11.1890207 59.9604941 255 79 163
40.6057214 0.713436847 60.0356995 255 79 163
40.7481329 0.713436847 60.0821914 255 79 163
40.8971133 0.713436847 60.0979199 255 79 163
41.0460937 0.713436847 60.0821914 255 79 163
41.1885052 0.713436847 60.0356995 255 79 163
41.3180686 0.713436847 59.9604941 255 79 163
41.3180686 11.1890207 59.9604941 255 79 163
40.6057214 11.1890207 60.0356995 255 79 163
40.7481329 11.1890207 60.0821914 255 79 163
40.8971133 11.1890207 60.0979199 255 79 163
41.0460937 11.1890207 60.0821914 255 79 163
41.1885052 11.1890207 60.0356995 255 79 163
81.7942266 11.1890207 0.713436847 218 222 230
81.7942266 11.1890207 30.3800628 218 222 230
41.3180686 11.1890207 59.9604941 218 222 230
40.4761579 11.1890207 59.9604941 218 222 230
40.6057214 11.1890207 60.0356995 218 222 230
40.7481329 11.1890207 60.0821914 218 222 230
40.8971133 11.1890207 60.0979199 218 222 230
41.0460937 11.1890207 60.0821914 218 222 230
41.1885052 11.1890207 60.0356995 218 222 230
0.713436847 11.1890207 30.9014505 218 222 230
0.713436847 11.1890207 0.713436847 218 222 230
19.8016202 29.6980136 59.1348833 255 79 163
19.841206 29.6585498 59.1315894 255 79 163
19.8806698 29.618964 59.1304904 255 79 163
19.9198901 29.5793783 59.1315894 255 79 163
19.958746 29.5399144 59.1348833 255 79 163
19.8016202 59.2379281 62.4282174 255 79 163
20.5150571 58.5244912 63.066535 255 79 163
20.4907473 58.650682 62.8948086 255 79 163
20.4194744 58.7754785 62.7355881 255 79 163
20.3060963 58.8975814 62.6005284 255 79 163
20.1583387 59.015875 62.4996358 255 79 163
19.9862713 59.1295033 62.4405897 255 79 163
20.5150571 26.3995163 59.4849987 255 79 163
20.0512506 29.4154553 59.1487589 255 79 163
20.2394889 28.941283 59.2016233 255 79 163
20.3877463 28.2350275 59.280362 255 79 163
-1.11022302e-16 11.9024575 0.713436847 255 79 163
0.0178873513 11.9024575 0.554682213 255 79 163
0.0706524586 11.9024575 0.4038882 255 79 163
0.155649459 11.9024575 0.268616249 255 79 163
0.268616249 11.9024575 0.155649459 255 79 163
0.4038882 11.9024575 0.0706524586 255 79 163
0.554682213 11.9024575 0.0178873513 255 79 163
0.713436847 11.9024575 -1.11022302e-16 255 79 163
0.713436847 11.1890207 0.713436847 255 79 163
0.713436847 11.206908 0.554682213 255 79 163
0.713436847 11.2596731 0.4038882 255 79 163
0.713436847 11.3446701 0.268616249 255 79 163
0.713436847 11.4576369 0.155649459 255 79 163
0.713436847 11.5929089 0.0706524586 255 79 163
0.713436847 11.7437029 0.0178873513 255 79 163
0.713436847 11.1890207 0.713436847 255 79 163
0.554682213 11.206908 0.713436847 255 79 163
0.4038882 11.2596731 0.713436847 255 79 163
0.268616249 11.3446701 0.713436847 255 79 163
0.155649459 11.4576369 0.713436847 255 79 163
0.0706524586 11.5929089 0.713436847 255 79 163
0.0178873513 11.7437029 0.713436847 255 79 163
0.678948662 11.2239387 0.495687016 255 79 163
0.613348235 11.2239387 0.517001886 255 79 163
0.55754518 11.2239387 0.55754518 255 79 163
0.583851294 11.325275 0.314613525 255 79 163
0.517001886 11.2239387 0.613348235 255 79 163
0.466950478 11.325275 0.374177466 255 79 163
0.623145606 11.4831098 0.143360388 255 79 163
0.495687016 11.2239387 0.678948662 255 79 163
0.374177466 11.325275 0.466950478 255 79 163
0.45140146 11.4831098 0.199163444 255 79 163
0.314613525 11.325275 0.583851294 255 79 163
0.305307163 11.4831098 0.305307163 255 79 163
0.503763018 11.6819934 0.0681271567 255 79 163
0.199163444 11.4831098 0.45140146 255 79 163
0.314613525 11.6819934 0.164503637 255 79 163
0.143360388 11.4831098 0.623145606 255 79 163
0.164503637 11.6819934 0.314613525 255 79 163
0.0681271567 11.6819934 0.503763018 255 79 163
81.7942266 59.2379281 0 218 222 230
81.7942266 59.2379281 72.0855247 218 222 230
0.713436847 59.2379281 -1.11022302e-16 218 222 230
0.713436847 59.2379281 62.4282174 218 222 230
19.8016202 59.2379281 62.4282174 218 222 230
21.2284939 59.2379281 63.066535 218 222 230
21.2221536 59.2379281 63.0139522 218 222 230
21.2046325 59.2379281 62.9639979 218 222 230
21.1786748 59.2379281 62.9177079 218 222 230
21.1350692 59.2379281 62.8620959 218 222 230
21.0574778 59.2379281 62.7897858 218 222 230
20.9258612 59.2379281 62.7005403 218 222 230
20.7106548 59.2379281 62.5973436 218 222 230
20.3684854 59.2379281 62.4924182 218 222 230
20.0868148 59.2379281 62.4446532 218 222 230
21.2284939 59.2379281 72.7989615 218 222 230
81.0807898 59.2379281 72.7989615 218 222 230
81.7763392 59.2379281 72.2442793 218 222 230
81.7235741 59.2379281 72.3950733 218 222 230
81.6385771 59.2379281 72.5303453 218 222 230
81.5256103 59.2379281 72.6433121 218 222 230
81.3903384 59.2379281 72.7283091 218 222 230
81.2395444 59.2379281 72.7810742 218 222 230
0.713436847 59.2379281 -1.11022302e-16 218 222 230
81.7942266 59.2379281 0 218 222 230
0.713436847 11.9024575 -1.11022302e-16 218 222 230
81.7942266 11.9024575 -1.11022302e-16 218 222 230
6.27645577 5.09818355 44.537678 218 222 230
6.27645577 4.02319336 46.2301326 218 222 230
6.27645577 4.95140698 48.0073287 218 222 230
6.27645577 6.95461079 48.0920702 218 222 230
6.27645577 8.02960098 46.3996156 218 222 230
6.27645577 7.10138736 44.6224195 218 222 230
81.7942266 0.713436847 30.3800628 218 222 230
81.7942266 11.1890207 30.3800628 218 222 230
41.3180686 11.1890207 59.9604941 218 222 230
41.3180686 0.713436847 59.9604941 218 222 230
0.713436847 11.1890207 0.713436847 255 79 163
0.713436847 11.206908 0.554682213 255 79 163
0.713436847 11.2596731 0.4038882 255 79 163
0.713436847 11.3446701 0.268616249 255 79 163
0.713436847 11.4576369 0.155649459 255 79 163
0.713436847 11.5929089 0.0706524586 255 79 163
0.713436847 11.7437029 0.0178873513 255 79 163
0.713436847 11.9024575 -1.11022302e-16 255 79 163
81.7942266 11.9024575 -1.11022302e-16 255 79 163
81.7942266 11.1890207 0.713436847 255 79 163
81.7942266 11.206908 0.554682213 255 79 163
81.7942266 11.2596731 0.4038882 255 79 163
81.7942266 11.3446701 0.268616249 255 79 163
81.7942266 11.4576369 0.155649459 255 79 163
81.7942266 11.5929089 0.0706524586 255 79 163
81.7942266 11.7437029 0.0178873513 255 79 163
21.2284939 59.2379281 72.7989615 218 222 230
21.2284939 59.2379281 63.066535 218 222 230
21.0619454 59.2182157 63.066535 218 222 230
20.9046004 59.1601682 63.066535 218 222 230
20.7651538 59.0669929 63.066535 218 222 230
20.6513114 58.9438389 63.066535 218 222 230
20.5693642 58.7975117 63.066535 218 222 230
20.5287656 58.6636758 63.066535 218 222 230
20.5150571 58.5244912 63.066535 218 222 230
20.5150571 58.5244912 72.7989615 218 222 230
21.0697393 59.2200407 72.7989615 218 222 230
20.9189453 59.1672756 72.7989615 218 222 230
20.7836733 59.0822786 72.7989615 218 222 230
20.6707065 58.9693118 72.7989615 218 222 230
20.5857095 58.8340399 72.7989615 218 222 230
20.5329444 58.6832459 72.7989615 218 222 230
61.4622129 0.713436847 51.1037293 218 222 230
61.4622129 34.8440032 51.1037293 218 222 230
62.2589371 34.8440032 51.2004692 218 222 230
63.0093586 34.8440032 51.4850665 218 222 230
63.6698655 34.8440032 51.9409815 218 222 230
64.2020718 34.8440032 52.5417182 218 222 230
64.5750474 34.8440032 53.2523638 218 222 230
64.7671164 34.8440032 54.0316183 218 222 230
64.7671164 34.8440032 54.8341941 218 222 230
64.5750474 34.8440032 55.6134486 218 222 230
64.2020718 34.8440032 56.3240942 218 222 230
63.6698655 34.8440032 56.9248309 218 222 230
63.0093586 34.8440032 57.3807459 218 222 230
62.2589371 34.8440032 57.6653433 218 222 230
61.4622129 34.8440032 57.7620831 218 222 230
60.6654888 34.8440032 57.6653433 218 222 230
59.9150673 34.8440032 57.3807459 218 222 230
59.2545603 34.8440032 56.9248309 218 222 230
58.7223541 34.8440032 56.3240942 218 222 230
58.3493785 34.8440032 55.6134486 218 222 230
58.1573095 34.8440032 54.8341941 218 222 230
58.1573095 34.8440032 54.0316183 218 222 230
58.3493785 34.8440032 53.2523638 218 222 230
58.7223541 34.8440032 52.5417182 218 222 230
59.2545603 34.8440032 51.9409815 218 222 230
59.9150673 34.8440032 51.4850665 218 222 230
60.6654888 34.8440032 51.2004692 218 222 230
61.4622129 34.8440032 51.1037293 218 222 230
61.4622129 0.713436847 51.1037293 218 222 230
62.2589371 0.713436847 51.2004692 218 222 230
63.0093586 0.713436847 51.4850665 218 222 230
63.6698655 0.713436847 51.9409815 218 222 230
64.2020718 0.713436847 52.5417182 218 222 230
64.5750474 0.713436847 53.2523638 218 222 230
64.7671164 0.713436847 54.0316183 218 222 230
64.7671164 0.713436847 54.8341941 218 222 230
64.5750474 0.713436847 55.6134486 218 222 230
64.2020718 0.713436847 56.3240942 218 222 230
63.6698655 0.713436847 56.9248309 218 222 230
63.0093586 0.713436847 57.3807459 218 222 230
62.2589371 0.713436847 57.6653433 218 222 230
61.4622129 0.713436847 57.7620831 218 222 230
60.6654888 0.713436847 57.6653433 218 222 230
59.9150673 0.713436847 57.3807459 218 222 230
59.2545603 0.713436847 56.9248309 218 222 230
58.7223541 0.713436847 56.3240942 218 222 230
58.3493785 0.713436847 55.6134486 218 222 230
58.1573095 0.713436847 54.8341941 218 222 230
58.1573095 0.713436847 54.0316183 218 222 230
58.3493785 0.713436847 53.2523638 218 222 230
58.7223541 0.713436847 52.5417182 218 222 230
59.2545603 0.713436847 51.9409815 218 222 230
59.9150673 0.713436847 51.4850665 218 222 230
60.6654888 0.713436847 51.2004692 218 222 230
19.8016202 59.2379281 62.4282174 255 79 163
19.8016202 59.2379281 62.4282174 255 79 163
21.2284939 59.2379281 63.066535 255 79 163
21.2221536 59.2379281 63.0139522 255 79 163
21.2046325 59.2379281 62.9639979 255 79 163
21.1786748 59.2379281 62.9177079 255 79 163
21.1350692 59.2379281 62.8620959 255 79 163
21.0574778 59.2379281 62.7897858 255 79 163
20.9258612 59.2379281 62.7005403 255 79 163
20.7106548 59.2379281 62.5973436 255 79 163
20.3684854 59.2379281 62.4924182 255 79 163
20.0868148 59.2379281 62.4446532 255 79 163
21.0619454 59.2182157 63.066535 255 79 163
20.9046004 59.1601682 63.066535 255 79 163
20.7651538 59.0669929 63.066535 255 79 163
20.6513114 58.9438389 63.066535 255 79 163
20.5693642 58.7975117 63.066535 255 79 163
20.5287656 58.6636758 63.066535 255 79 163
20.5150571 58.5244912 63.066535 255 79 163
20.4907473 58.650682 62.8948086 255 79 163
20.4194744 58.7754785 62.7355881 255 79 163
20.3060963 58.8975814 62.6005284 255 79 163
20.1583387 59.015875 62.4996358 255 79 163
19.9862713 59.1295033 62.4405897 255 79 163
20.8746712 59.2207643 62.752417 255 79 163
20.762893 59.1778931 62.7630295 255 79 163
20.6635487 59.1160037 62.7746224 255 79 163
20.5811511 59.0371269 62.7863427 255 79 163
20.518773 58.941803 62.7970128 255 79 163
20.5476734 59.2261245 62.5678126 255 79 163
20.4782644 58.8317393 62.8057797 255 79 163
20.4810722 59.1976355 62.5734087 255 79 163
20.4211817 59.1576182 62.5810624 255 79 163
20.3715114 59.1072291 62.5892839 255 79 163
20.3351966 59.0461882 62.5958558 255 79 163
20.3138001 58.9749445 62.599288 255 79 163
20.2161379 59.1695582 62.4987082 255 79 163
20.1142479 59.188027 62.4660736 255 79 163
20.0124419 59.2052693 62.4437542 255 79 163
20.2858717 59.2173523 62.493546 255 79 163
20.2265857 59.2203602 62.4775914 255 79 163
20.1058195 59.2259447 62.452272 255 79 163
20.0463572 59.2283531 62.4431795 255 79 163
20.3258333 59.2320741 62.4927702 255 79 163
20.2936979 59.2325291 62.4848312 255 79 163
20.163718 59.2342169 62.4582248 255 79 163
20.0979905 59.2349364 62.4480148 255 79 163
20.0659564 59.2352486 62.4438094 255 79 163
20.2627664 59.2366601 62.4741254 255 79 163
20.1269803 59.2370859 62.45088 255 79 163
20.0762045 59.2372125 62.4442794 255 79 163
61.4622129 34.8440032 51.1037293 218 222 230
62.2589371 34.8440032 51.2004692 218 222 230
63.0093586 34.8440032 51.4850665 218 222 230
63.6698655 34.8440032 51.9409815 218 222 230
64.2020718 34.8440032 52.5417182 218 222 230
64.5750474 34.8440032 53.2523638 218 222 230
64.7671164 34.8440032 54.0316183 218 222 230
64.7671164 34.8440032 54.8341941 218 222 230
64.5750474 34.8440032 55.6134486 218 222 230
64.2020718 34.8440032 56.3240942 218 222 230
63.6698655 34.8440032 56.9248309 218 222 230
63.0093586 34.8440032 57.3807459 218 222 230
62.2589371 34.8440032 57.6653433 218 222 230
61.4622129 34.8440032 57.7620831 218 222 230
60.6654888 34.8440032 57.6653433 218 222 230
59.9150673 34.8440032 57.3807459 218 222 230
59.2545603 34.8440032 56.9248309 218 222 230
58.7223541 34.8440032 56.3240942 218 222 230
58.3493785 34.8440032 55.6134486 218 222 230
58.1573095 34.8440032 54.8341941 218 222 230
58.1573095 34.8440032 54.0316183 218 222 230
58.3493785 34.8440032 53.2523638 218 222 230
58.7223541 34.8440032 52.5417182 218 222 230
59.2545603 34.8440032 51.9409815 218 222 230
59.9150673 34.8440032 51.4850665 218 222 230
60.6654888 34.8440032 51.2004692 218 222 230
61.4622129 34.8440032 56.3303962 218 222 230
61.916312 34.8440032 56.2752586 218 222 230
62.3440205 34.8440032 56.1130502 218 222 230
62.7204815 34.8440032 55.8531979 218 222 230
63.0238166 34.8440032 55.5108034 218 222 230
63.2363969 34.8440032 55.1057654 218 222 230
63.3458681 34.8440032 54.6616234 218 222 230
63.3458681 34.8440032 54.2041891 218 222 230
63.2363969 34.8440032 53.760047 218 222 230
63.0238166 34.8440032 53.355009 218 222 230
62.7204815 34.8440032 53.0126146 218 222 230
62.3440205 34.8440032 52.7527623 218 222 230
61.916312 34.8440032 52.5905538 218 222 230
61.4622129 34.8440032 52.5354162 218 222 230
61.0081138 34.8440032 52.5905538 218 222 230
60.5804054 34.8440032 52.7527623 218 222 230
60.2039443 34.8440032 53.0126146 218 222 230
59.9006093 34.8440032 53.355009 218 222 230
59.688029 34.8440032 53.760047 218 222 230
59.5785578 34.8440032 54.2041891 218 222 230
59.5785578 34.8440032 54.6616234 218 222 230
59.688029 34.8440032 55.1057654 218 222 230
59.9006093 34.8440032 55.5108034 218 222 230
60.2039443 34.8440032 55.8531979 218 222 230
60.5804054 34.8440032 56.1130502 218 222 230
61.0081138 34.8440032 56.2752586 218 222 230
61.4622129 34.8440032 56.3303962 255 79 163
61.4622129 34.8261158 56.1716416 255 79 163
61.4622129 34.7733507 56.0208476 255 79 163
61.4622129 34.6883537 55.8855756 255 79 163
61.4622129 34.5753869 55.7726088 255 79 163
61.4622129 34.440115 55.6876118 255 79 163
61.4622129 34.289321 55.6348467 255 79 163
61.4622129 34.1305663 55.6169594 255 79 163
61.916312 34.8440032 56.2752586 255 79 163
62.3440205 34.8440032 56.1130502 255 79 163
62.7204815 34.8440032 55.8531979 255 79 163
63.0238166 34.8440032 55.5108034 255 79 163
63.2363969 34.8440032 55.1057654 255 79 163
63.3458681 34.8440032 54.6616234 255 79 163
63.3458681 34.8440032 54.2041891 255 79 163
63.2363969 34.8440032 53.760047 255 79 163
63.0238166 34.8440032 53.355009 255 79 163
62.7204815 34.8440032 53.0126146 255 79 163
62.3440205 34.8440032 52.7527623 255 79 163
61.916312 34.8440032 52.5905538 255 79 163
61.4622129 34.8440032 52.5354162 255 79 163
61.0081138 34.8440032 52.5905538 255 79 163
60.5804054 34.8440032 52.7527623 255 79 163
60.2039443 34.8440032 53.0126146 255 79 163
59.9006093 34.8440032 53.355009 255 79 163
59.688029 34.8440032 53.760047 255 79 163
59.5785578 34.8440032 54.2041891 255 79 163
59.5785578 34.8440032 54.6616234 255 79 163
59.688029 34.8440032 55.1057654 255 79 163
59.9006093 34.8440032 55.5108034 255 79 163
60.2039443 34.8440032 55.8531979 255 79 163
60.5804054 34.8440032 56.1130502 255 79 163
61.0081138 34.8440032 56.2752586 255 79 163
61.4622129 34.8440032 56.3303962 255 79 163
61.4622129 34.8261158 56.1716416 255 79 163
61.4622129 34.7733507 56.0208476 255 79 163
61.4622129 34.6883537 55.8855756 255 79 163
61.4622129 34.5753869 55.7726088 255 79 163
61.4622129 34.440115 55.6876118 255 79 163
61.4622129 34.289321 55.6348467 255 79 163
61.4622129 34.1305663 55.6169594 255 79 163
61.7455754 34.1305663 55.5825529 255 79 163
62.0124699 34.1305663 55.4813332 255 79 163
62.2473854 34.1305663 55.3191827 255 79 163
62.4366696 34.1305663 55.1055251 255 79 163
62.5693218 34.1305663 54.8527772 255 79 163
62.637633 34.1305663 54.575628 255 79 163
62.637633 34.1305663 54.2901844 255 79 163
62.5693218 34.1305663 54.0130352 255 79 163
62.4366696 34.1305663 53.7602874 255 79 163
62.2473854 34.1305663 53.5466297 255 79 163
62.0124699 34.1305663 53.3844792 255 79 163
61.7455754 34.1305663 53.2832595 255 79 163
61.4622129 34.1305663 53.2488531 255 79 163
61.1788505 34.1305663 53.2832595 255 79 163
60.911956 34.1305663 53.3844792 255 79 163
60.6770405 34.1305663 53.5466297 255 79 163
60.4877563 34.1305663 53.7602874 255 79 163
60.355104 34.1305663 54.0130352 255 79 163
60.2867929 34.1305663 54.2901844 255 79 163
60.2867929 34.1305663 54.575628 255 79 163
60.355104 34.1305663 54.8527772 255 79 163
60.4877563 34.1305663 55.1055251 255 79 163
60.6770405 34.1305663 55.3191827 255 79 163
60.911956 34.1305663 55.4813332 255 79 163
61.1788505 34.1305663 55.5825529 255 79 163
61.8783195 34.8261158 56.1211171 255 79 163
61.8422322 34.7733507 55.9747049 255 79 163
61.8098595 34.6883537 55.8433637 255 79 163
62.2702435 34.8261158 55.9724799 255 79 163
61.7828247 34.5753869 55.7336795 255 79 163
62.2001661 34.7733507 55.8389584 255 79 163
61.7624836 34.440115 55.6511524 255 79 163
62.1373021 34.6883537 55.7191811 255 79 163
62.6152077 34.8261158 55.7343683 255 79 163
61.7498561 34.289321 55.5999205 255 79 163
62.0848038 34.5753869 55.619154 255 79 163
62.5152128 34.7733507 55.6214974 255 79 163
62.0453037 34.440115 55.5438928 255 79 163
62.4255109 34.6883537 55.5202449 255 79 163
62.8931641 34.8261158 55.4206205 255 79 163
62.0207825 34.289321 55.4971717 255 79 163
62.3506001 34.5753869 55.435688 255 79 163
62.769063 34.7733507 55.3349597 255 79 163
62.2942366 34.440115 55.3720668 255 79 163
62.6577364 34.6883537 55.2581165 255 79 163
63.0879587 34.8261158 55.0494703 255 79 163
62.2592469 34.289321 55.3325716 255 79 163
62.5647666 34.5753869 55.193944 255 79 163
62.9469639 34.7733507 54.995998 255 79 163
62.4948154 34.440115 55.1456602 255 79 163
62.8204824 34.6883537 54.9480299 255 79 163
63.1882709 34.8261158 54.6424876 255 79 163
62.4513906 34.289321 55.1156862 255 79 163
62.7148566 34.5753869 54.9079713 255 79 163
63.0385764 34.7733507 54.6243114 255 79 163
62.635383 34.440115 54.877831 255 79 163
62.9042907 34.6883537 54.6080062 255 79 163
63.1882709 34.8261158 54.2233248 255 79 163
62.5860468 34.289321 54.8591202 255 79 163
62.7921476 34.5753869 54.5943895 255 79 163
63.0385764 34.7733507 54.241501 255 79 163
62.7077703 34.440115 54.5841443 255 79 163
62.9042907 34.6883537 54.2578063 255 79 163
63.0879587 34.8261158 53.8163422 255 79 163
62.6553899 34.289321 54.5777841 255 79 163
62.7921476 34.5753869 54.2714229 255 79 163
62.9469639 34.7733507 53.8698145 255 79 163
62.7077703 34.440115 54.2816682 255 79 163
62.8204824 34.6883537 53.9177825 255 79 163
62.8931641 34.8261158 53.445192 255 79 163
62.6553899 34.289321 54.2880283 255 79 163
62.7148566 34.5753869 53.9578411 255 79 163
62.769063 34.7733507 53.5308527 255 79 163
62.635383 34.440115 53.9879815 255 79 163
62.6577364 34.6883537 53.6076959 255 79 163
62.6152077 34.8261158 53.1314441 255 79 163
62.5860468 34.289321 54.0066922 255 79 163
62.5647666 34.5753869 53.6718684 255 79 163
62.5152128 34.7733507 53.2443151 255 79 163
62.4948154 34.440115 53.7201522 255 79 163
62.4255109 34.6883537 53.3455676 255 79 163
62.2702435 34.8261158 52.8933325 255 79 163
62.4513906 34.289321 53.7501262 255 79 163
62.3506001 34.5753869 53.4301244 255 79 163
62.2001661 34.7733507 53.026854 255 79 163
62.2942366 34.440115 53.4937456 255 79 163
62.1373021 34.6883537 53.1466313 255 79 163
61.8783195 34.8261158 52.7446953 255 79 163
62.2592469 34.289321 53.5332408 255 79 163
62.0848038 34.5753869 53.2466585 255 79 163
61.8422322 34.7733507 52.8911076 255 79 163
62.0453037 34.440115 53.3219196 255 79 163
61.8098595 34.6883537 53.0224488 255 79 163
61.4622129 34.8261158 52.6941709 255 79 163
62.0207825 34.289321 53.3686408 255 79 163
61.7828247 34.5753869 53.1321329 255 79 163
61.4622129 34.7733507 52.8449649 255 79 163
61.7624836 34.440115 53.2146601 255 79 163
61.4622129 34.6883537 52.9802368 255 79 163
61.0461063 34.8261158 52.7446953 255 79 163
61.7498561 34.289321 53.2658919 255 79 163
61.4622129 34.5753869 53.0932036 255 79 163
61.0821937 34.7733507 52.8911076 255 79 163
61.4622129 34.440115 53.1782006 255 79 163
61.1145664 34.6883537 53.0224488 255 79 163
60.6541823 34.8261158 52.8933325 255 79 163
61.4622129 34.289321 53.2309657 255 79 163
61.1416011 34.5753869 53.1321329 255 79 163
60.7242598 34.7733507 53.026854 255 79 163
61.1619422 34.440115 53.2146601 255 79 163
60.7871238 34.6883537 53.1466313 255 79 163
60.3092181 34.8261158 53.1314441 255 79 163
61.1745697 34.289321 53.2658919 255 79 163
60.8396221 34.5753869 53.2466585 255 79 163
60.409213 34.7733507 53.2443151 255 79 163
60.8791222 34.440115 53.3219196 255 79 163
60.4989149 34.6883537 53.3455676 255 79 163
60.0312618 34.8261158 53.445192 255 79 163
60.9036433 34.289321 53.3686408 255 79 163
60.5738258 34.5753869 53.4301244 255 79 163
60.1553628 34.7733507 53.5308527 255 79 163
60.6301892 34.440115 53.4937456 255 79 163
60.2666895 34.6883537 53.6076959 255 79 163
59.8364671 34.8261158 53.8163422 255 79 163
60.665179 34.289321 53.5332408 255 79 163
60.3596593 34.5753869 53.6718684 255 79 163
59.977462 34.7733507 53.8698145 255 79 163
60.4296105 34.440115 53.7201522 255 79 163
60.1039435 34.6883537 53.9177825 255 79 163
59.7361549 34.8261158 54.2233248 255 79 163
60.4730353 34.289321 53.7501262 255 79 163
60.2095692 34.5753869 53.9578411 255 79 163
59.8858495 34.7733507 54.241501 255 79 163
60.2890428 34.440115 53.9879815 255 79 163
60.0201351 34.6883537 54.2578063 255 79 163
59.7361549 34.8261158 54.6424876 255 79 163
60.338379 34.289321 54.0066922 255 79 163
60.1322783 34.5753869 54.2714229 255 79 163
59.8858495 34.7733507 54.6243114 255 79 163
60.2166555 34.440115 54.2816682 255 79 163
60.0201351 34.6883537 54.6080062 255 79 163
59.8364671 34.8261158 55.0494703 255 79 163
60.2690359 34.289321 54.2880283 255 79 163
60.1322783 34.5753869 54.5943895 255 79 163
59.977462 34.7733507 54.995998 255 79 163
60.2166555 34.440115 54.5841443 255 79 163
60.1039435 34.6883537 54.9480299 255 79 163
60.0312618 34.8261158 55.4206205 255 79 163
60.2690359 34.289321 54.5777841 255 79 163
60.2095692 34.5753869 54.9079713 255 79 163
60.1553628 34.7733507 55.3349597 255 79 163
60.2890428 34.440115 54.877831 255 79 163
60.2666895 34.6883537 55.2581165 255 79 163
60.3092181 34.8261158 55.7343683 255 79 163
60.338379 34.289321 54.8591202 255 79 163
60.3596593 34.5753869 55.193944 255 79 163
60.409213 34.7733507 55.6214974 255 79 163
60.4296105 34.440115 55.1456602 255 79 163
60.4989149 34.6883537 55.5202449 255 79 163
60.6541823 34.8261158 55.9724799 255 79 163
60.4730353 34.289321 55.1156862 255 79 163
60.5738258 34.5753869 55.435688 255 79 163
60.7242598 34.7733507 55.8389584 255 79 163
60.6301892 34.440115 55.3720668 255 79 163
60.7871238 34.6883537 55.7191811 255 79 163
61.0461063 34.8261158 56.1211171 255 79 163
60.665179 34.289321 55.3325716 255 79 163
60.8396221 34.5753869 55.619154 255 79 163
61.0821937 34.7733507 55.9747049 255 79 163
60.8791222 34.440115 55.5438928 255 79 163
61.1145664 34.6883537 55.8433637 255 79 163
60.9036433 34.289321 55.4971717 255 79 163
61.1416011 34.5753869 55.7336795 255 79 163
61.1619422 34.440115 55.6511524 255 79 163
61.1745697 34.289321 55.5999205 255 79 163
61.4622129 0.713436847 55.6169594 218 222 230
61.7455754 0.713436847 55.5825529 218 222 230
62.0124699 0.713436847 55.4813332 218 222 230
62.2473854 0.713436847 55.3191827 218 222 230
62.4366696 0.713436847 55.1055251 218 222 230
62.5693218 0.713436847 54.8527772 218 222 230
62.637633 0.713436847 54.575628 218 222 230
62.637633 0.713436847 54.2901844 218 222 230
62.5693218 0.713436847 54.0130352 218 222 230
62.4366696 0.713436847 53.7602874 218 222 230
62.2473854 0.713436847 53.5466297 218 222 230
62.0124699 0.713436847 53.3844792 218 222 230
61.7455754 0.713436847 53.2832595 218 222 230
61.4622129 0.713436847 53.2488531 218 222 230
61.1788505 0.713436847 53.2832595 218 222 230
60.911956 0.713436847 53.3844792 218 222 230
60.6770405 0.713436847 53.5466297 218 222 230
60.4877563 0.713436847 53.7602874 218 222 230
60.355104 0.713436847 54.0130352 218 222 230
60.2867929 0.713436847 54.2901844 218 222 230
60.2867929 0.713436847 54.575628 218 222 230
60.355104 0.713436847 54.8527772 218 222 230
60.4877563 0.713436847 55.1055251 218 222 230
60.6770405 0.713436847 55.3191827 218 222 230
60.911956 0.713436847 55.4813332 218 222 230
61.1788505 0.713436847 55.5825529 218 222 230
61.4622129 0.713436847 55.6169594 218 222 230
61.4622129 34.1305663 55.6169594 218 222 230
61.4622129 34.1305663 55.6169594 218 222 230
61.7455754 34.1305663 55.5825529 218 222 230
62.0124699 34.1305663 55.4813332 218 222 230
62.2473854 34.1305663 55.3191827 218 222 230
62.4366696 34.1305663 55.1055251 218 222 230
62.5693218 34.1305663 54.8527772 218 222 230
62.637633 34.1305663 54.575628 218 222 230
62.637633 34.1305663 54.2901844 218 222 230
62.5693218 34.1305663 54.0130352 218 222 230
62.4366696 34.1305663 53.7602874 218 222 230
62.2473854 34.1305663 53.5466297 218 222 230
62.0124699 34.1305663 53.3844792 218 222 230
61.7455754 34.1305663 53.2832595 218 222 230
61.4622129 34.1305663 53.2488531 218 222 230
61.1788505 34.1305663 53.2832595 218 222 230
60.911956 34.1305663 53.3844792 218 222 230
60.6770405 34.1305663 53.5466297 218 222 230
60.4877563 34.1305663 53.7602874 218 222 230
60.355104 34.1305663 54.0130352 218 222 230
60.2867929 34.1305663 54.2901844 218 222 230
60.2867929 34.1305663 54.575628 218 222 230
60.355104 34.1305663 54.8527772 218 222 230
60.4877563 34.1305663 55.1055251 218 222 230
60.6770405 34.1305663 55.3191827 218 222 230
60.911956 34.1305663 55.4813332 218 222 230
61.1788505 34.1305663 55.5825529 218 222 230
61.4622129 0 54.9035225 218 222 230
61.5748388 0 54.8898473 218 222 230
61.6809192 0 54.8496162 218 222 230
61.7742893 0 54.7851676 218 222 230
61.8495225 0 54.7002467 218 222 230
61.9022468 0 54.5997891 218 222 230
61.9293979 0 54.4896327 218 222 230
61.9293979 0 54.3761797 218 222 230
61.9022468 0 54.2660234 218 222 230
61.8495225 0 54.1655657 218 222 230
61.7742893 0 54.0806449 218 222 230
61.6809192 0 54.0161962 218 222 230
61.5748388 0 53.9759652 218 222 230
61.4622129 0 53.9622899 218 222 230
61.3495871 0 53.9759652 218 222 230
61.2435066 0 54.0161962 218 222 230
61.1501366 0 54.0806449 218 222 230
61.0749033 0 54.1655657 218 222 230
61.022179 0 54.2660234 218 222 230
60.995028 0 54.3761797 218 222 230
60.995028 0 54.4896327 218 222 230
61.022179 0 54.5997891 218 222 230
61.0749033 0 54.7002467 218 222 230
61.1501366 0 54.7851676 218 222 230
61.2435066 0 54.8496162 218 222 230
61.3495871 0 54.8898473 218 222 230
61.4622129 0 54.9035225 218 222 230
61.4622129 0.713436847 55.6169594 218 222 230
61.4622129 0.554682213 55.599072 218 222 230
61.4622129 0.4038882 55.5463069 218 222 230
61.4622129 0.268616249 55.4613099 218 222 230
61.4622129 0.155649459 55.3483431 218 222 230
61.4622129 0.0706524586 55.2130712 218 222 230
61.4622129 0.0178873513 55.0622771 218 222 230
61.4622129 0.713436847 55.6169594 218 222 230
61.7455754 0.713436847 55.5825529 218 222 230
62.0124699 0.713436847 55.4813332 218 222 230
62.2473854 0.713436847 55.3191827 218 222 230
62.4366696 0.713436847 55.1055251 218 222 230
62.5693218 0.713436847 54.8527772 218 222 230
62.637633 0.713436847 54.575628 218 222 230
62.637633 0.713436847 54.2901844 218 222 230
62.5693218 0.713436847 54.0130352 218 222 230
62.4366696 0.713436847 53.7602874 218 222 230
62.2473854 0.713436847 53.5466297 218 222 230
62.0124699 0.713436847 53.3844792 218 222 230
61.7455754 0.713436847 53.2832595 218 222 230
61.4622129 0.713436847 53.2488531 218 222 230
61.1788505 0.713436847 53.2832595 218 222 230
60.911956 0.713436847 53.3844792 218 222 230
60.6770405 0.713436847 53.5466297 218 222 230
60.4877563 0.713436847 53.7602874 218 222 230
60.355104 0.713436847 54.0130352 218 222 230
60.2867929 0.713436847 54.2901844 218 222 230
60.2867929 0.713436847 54.575628 218 222 230
60.355104 0.713436847 54.8527772 218 222 230
60.4877563 0.713436847 55.1055251 218 222 230
60.6770405 0.713436847 55.3191827 218 222 230
60.911956 0.713436847 55.4813332 218 222 230
61.1788505 0.713436847 55.5825529 218 222 230
61.4622129 0.554682213 55.599072 218 222 230
61.4622129 0.4038882 55.5463069 218 222 230
61.4622129 0.268616249 55.4613099 218 222 230
61.4622129 0.155649459 55.3483431 218 222 230
61.4622129 0.0706524586 55.2130712 218 222 230
61.4622129 0.0178873513 55.0622771 218 222 230
60.9447899 0.403888299 55.4187734 218 222 230
61.0367881 0.155649128 55.2434855 218 222 230
60.5459023 0.403888299 55.0653898 218 222 230
61.1697296 0.017887146 54.9901866 218 222 230
60.708823 0.155649128 54.9529337 218 222 230
60.3569304 0.403888299 54.5671118 218 222 230
60.9442507 0.017887146 54.7904297 218 222 230
60.5534505 0.155649128 54.54325 218 222 230
60.4211654 0.403888299 54.038089 218 222 230
60.8374307 0.017887146 54.5087685 218 222 230
60.6062644 0.155649128 54.1082878 218 222 230
60.7238919 0.403888299 53.599514 218 222 230
60.8737408 0.017887146 54.2097282 218 222 230
60.8551659 0.155649128 53.7476917 218 222 230
61.1957588 0.403888299 53.3518591 218 222 230
61.0448627 0.017887146 53.9618152 218 222 230
61.2431345 0.155649128 53.5440701 218 222 230
61.7286671 0.403888299 53.3518591 218 222 230
61.3115946 0.017887146 53.8218236 218 222 230
61.6812914 0.155649128 53.5440701 218 222 230
62.200534 0.403888299 53.599514 218 222 230
61.6128313 0.017887146 53.8218236 218 222 230
62.06926 0.155649128 53.7476917 218 222 230
62.5032604 0.403888299 54.038089 218 222 230
61.8795631 0.017887146 53.9618152 218 222 230
62.3181614 0.155649128 54.1082878 218 222 230
62.5674954 0.403888299 54.5671118 218 222 230
62.0506851 0.017887146 54.2097282 218 222 230
62.3709754 0.155649128 54.54325 218 222 230
62.3785235 0.403888299 55.0653898 218 222 230
62.0869951 0.017887146 54.5087685 218 222 230
62.2156028 0.155649128 54.9529337 218 222 230
61.9796359 0.403888299 55.4187734 218 222 230
61.9801751 0.017887146 54.7904297 218 222 230
61.8876377 0.155649128 55.2434855 218 222 230
61.7546962 0.017887146 54.9901866 218 222 230
61.4622129 0 54.9035225 218 222 230
61.5748388 0 54.8898473 218 222 230
61.6809192 0 54.8496162 218 222 230
61.7742893 0 54.7851676 218 222 230
61.8495225 0 54.7002467 218 222 230
61.9022468 0 54.5997891 218 222 230
61.9293979 0 54.4896327 218 222 230
61.9293979 0 54.3761797 218 222 230
61.9022468 0 54.2660234 218 222 230
61.8495225 0 54.1655657 218 222 230
61.7742893 0 54.0806449 218 222 230
61.6809192 0 54.0161962 218 222 230
61.5748388 0 53.9759652 218 222 230
61.4622129 0 53.9622899 218 222 230
61.3495871 0 53.9759652 218 222 230
61.2435066 0 54.0161962 218 222 230
61.1501366 0 54.0806449 218 222 230
61.0749033 0 54.1655657 218 222 230
61.022179 0 54.2660234 218 222 230
60.995028 0 54.3761797 218 222 230
60.995028 0 54.4896327 218 222 230
61.022179 0 54.5997891 218 222 230
61.0749033 0 54.7002467 218 222 230
61.1501366 0 54.7851676 218 222 230
61.2435066 0 54.8496162 218 222 230
61.3495871 0 54.8898473 218 222 230
3 10 12 11
3 14 13 12
3 14 12 10
3 17 14 10
3 16 17 10
3 15 16 10
3 6 8 7
3 5 8 6
3 4 8 5
3 3 8 4
3 2 8 3
3 0 9 8
3 0 8 2
3 25 10 9
3 30 10 25
3 30 15 10
3 26 9 0
3 26 25 9
3 29 15 30
3 27 26 0
3 18 15 29
3 1 28 27
3 1 29 28
3 1 27 0
3 1 18 29
3 23 24 18
3 20 1 19
3 20 18 1
3 20 23 18
3 21 22 23
3 21 23 20
3 42 41 40
3 34 43 42
3 34 42 40
3 35 43 34
3 36 43 35
3 37 43 36
3 38 43 37
3 72 33 73
3 71 33 72
3 70 33 71
3 31 52 51
3 31 76 75
3 31 51 76
3 69 33 70
3 53 52 31
3 68 33 69
3 54 53 31
3 67 33 68
3 55 54 31
3 66 33 67
3 56 55 31
3 65 33 66
3 65 39 33
3 57 56 31
3 32 57 31
3 32 58 57
3 32 59 58
3 32 60 59
3 44 39 65
3 44 38 39
3 44 60 32
3 44 61 60
3 44 62 61
3 44 63 62
3 44 64 63
3 44 65 64
3 44 43 38
3 47 32 45
3 47 45 46
3 48 49 50
3 48 50 44
3 48 44 32
3 48 32 47
3 31 74 33
3 74 73 33
3 31 75 74
3 84 85 86
3 84 86 92
3 83 92 91
3 83 84 92
3 82 91 90
3 82 83 91
3 81 90 89
3 81 82 90
3 80 89 88
3 80 81 89
3 79 88 87
3 79 80 88
3 78 87 77
3 78 79 87
3 95 96 97
3 94 95 97
3 93 97 104
3 93 94 97
3 112 93 104
3 111 104 103
3 111 112 104
3 110 111 103
3 109 103 102
3 109 110 103
3 108 102 101
3 108 109 102
3 107 101 100
3 107 108 101
3 106 100 99
3 106 107 100
3 105 99 98
3 105 106 99
3 117 116 115
3 114 118 119
3 114 119 120
3 114 120 121
3 114 121 122
3 114 122 123
3 114 123 124
3 114 124 125
3 114 125 126
3 113 126 117
3 113 117 115
3 113 114 126
3 131 130 129
3 132 131 129
3 133 132 129
3 127 133 129
3 128 134 133
3 128 133 127
3 142 136 135
3 142 135 143
3 141 137 136
3 141 136 142
3 140 138 137
3 140 137 141
3 139 138 140
3 146 153 161
3 147 160 159
3 147 161 160
3 147 146 161
3 148 159 158
3 148 147 159
3 149 158 157
3 149 148 158
3 150 157 156
3 150 149 157
3 151 156 155
3 151 150 156
3 152 155 154
3 152 151 155
3 145 154 144
3 145 152 154
3 171 162 172
3 170 162 171
3 169 162 170
3 168 162 169
3 167 162 168
3 166 163 162
3 166 162 167
3 164 163 166
3 165 164 166
3 180 181 182
3 180 182 189
3 179 180 189
3 178 189 188
3 178 179 189
3 177 188 187
3 177 178 188
3 176 187 186
3 176 177 187
3 175 186 185
3 175 176 186
3 174 185 184
3 174 175 185
3 173 184 183
3 173 174 184
3 198 199 206
3 197 205 204
3 197 206 205
3 197 198 206
3 196 204 203
3 196 197 204
3 195 203 202
3 195 196 203
3 194 202 201
3 194 195 202
3 193 201 200
3 193 194 201
3 192 200 190
3 192 193 200
3 191 192 190
3 210 208 207
3 210 209 208
3 214 212 211
3 214 213 212
3 218 216 215
3 218 217 216
3 222 220 219
3 222 221 220
3 226 224 223
3 226 225 224
3 230 228 227
3 230 229 228
3 245 246 247
3 243 244 245
3 243 247 248
3 243 245 247
3 241 242 243
3 241 243 248
3 240 248 249
3 240 249 250
3 240 241 248
3 237 238 239
3 236 237 239
3 235 236 239
3 234 235 239
3 233 234 239
3 231 239 240
3 231 233 239
3 232 240 250
3 232 231 240
3 259 260 266
3 258 266 265
3 258 259 266
3 257 265 264
3 257 258 265
3 256 264 263
3 256 257 264
3 255 263 262
3 255 256 263
3 254 262 261
3 254 255 262
3 253 261 251
3 253 254 261
3 252 253 251
3 274 275 276
3 274 276 282
3 273 281 280
3 273 282 281
3 273 274 282
3 272 273 280
3 271 279 278
3 271 280 279
3 271 272 280
3 270 278 277
3 270 271 278
3 269 270 277
3 268 277 267
3 268 269 277
3 302 291 290
3 303 298 297
3 309 291 302
3 310 292 291
3 310 291 309
3 311 302 301
3 311 309 302
3 312 293 292
3 312 292 310
3 313 309 311
3 313 310 309
3 314 301 300
3 314 311 301
3 315 294 293
3 315 293 312
3 316 310 313
3 316 312 310
3 317 311 314
3 317 313 311
3 318 295 294
3 318 294 315
3 319 300 299
3 319 314 300
3 320 312 316
3 320 315 312
3 321 316 313
3 321 313 317
3 322 288 289
3 322 296 295
3 322 289 296
3 322 295 318
3 323 317 314
3 323 314 319
3 324 318 315
3 324 315 320
3 325 299 298
3 325 319 299
3 325 298 303
3 326 316 321
3 326 320 316
3 327 321 317
3 327 317 323
3 328 287 288
3 328 318 324
3 328 288 322
3 328 322 318
3 329 303 304
3 329 325 303
3 329 323 319
3 329 319 325
3 330 320 326
3 330 324 320
3 331 326 321
3 331 321 327
3 332 327 323
3 332 304 305
3 332 323 329
3 332 329 304
3 333 286 287
3 333 324 330
3 333 328 324
3 333 287 328
3 334 326 331
3 334 330 326
3 335 327 332
3 335 331 327
3 335 332 305
3 335 305 306
3 336 285 286
3 336 286 333
3 336 330 334
3 336 333 330
3 337 331 335
3 337 306 307
3 337 307 308
3 337 334 331
3 337 335 306
3 338 283 284
3 338 284 285
3 338 285 336
3 338 308 283
3 338 336 334
3 338 337 308
3 338 334 337
3 343 345 344
3 342 345 343
3 347 346 345
3 341 339 347
3 341 347 345
3 341 345 342
3 355 356 340
3 354 355 340
3 353 354 340
3 351 352 353
3 351 353 340
3 350 340 339
3 350 339 341
3 350 351 340
3 349 341 348
3 349 350 341
3 365 366 373
3 364 372 371
3 364 373 372
3 364 365 373
3 363 371 370
3 363 364 371
3 362 370 369
3 362 363 370
3 361 369 368
3 361 362 369
3 360 368 367
3 360 361 368
3 359 367 357
3 359 360 367
3 358 359 357
3 440 375 374
3 440 374 382
3 441 376 375
3 441 375 440
3 442 377 376
3 442 376 441
3 443 378 377
3 443 377 442
3 444 379 378
3 444 378 443
3 445 380 379
3 445 381 380
3 445 415 381
3 445 379 444
3 446 382 383
3 446 440 382
3 447 441 440
3 447 440 446
3 448 442 441
3 448 441 447
3 449 442 448
3 449 443 442
3 450 443 449
3 450 444 443
3 451 415 445
3 451 445 444
3 451 416 415
3 451 444 450
3 452 383 384
3 452 446 383
3 453 447 446
3 453 446 452
3 454 447 453
3 454 448 447
3 455 449 448
3 455 448 454
3 456 450 449
3 456 449 455
3 457 451 450
3 457 417 416
3 457 416 451
3 457 450 456
3 458 384 385
3 458 452 384
3 459 452 458
3 459 453 452
3 460 453 459
3 460 454 453
3 461 454 460
3 461 455 454
3 462 456 455
3 462 455 461
3 463 418 417
3 463 456 462
3 463 417 457
3 463 457 456
3 464 385 386
3 464 386 387
3 464 458 385
3 465 458 464
3 465 459 458
3 466 460 459
3 466 461 460
3 466 459 465
3 467 461 466
3 468 461 467
3 468 462 461
3 469 462 468
3 469 463 462
3 469 419 418
3 469 418 463
3 470 464 387
3 471 465 464
3 471 464 470
3 472 466 465
3 472 467 466
3 472 465 471
3 473 467 472
3 474 467 473
3 474 468 467
3 475 469 468
3 475 419 469
3 475 468 474
3 475 420 419
3 476 387 388
3 476 470 387
3 477 471 470
3 477 470 476
3 478 472 471
3 478 473 472
3 478 471 477
3 479 473 478
3 480 474 473
3 480 473 479
3 481 475 474
3 481 420 475
3 481 474 480
3 481 421 420
3 482 388 389
3 482 389 390
3 482 476 388
3 483 476 482
3 483 477 476
3 484 477 483
3 484 478 477
3 485 479 478
3 485 478 484
3 486 480 479
3 486 479 485
3 487 422 421
3 487 423 422
3 487 481 480
3 487 421 481
3 487 480 486
3 488 483 482
3 488 482 390
3 489 483 488
3 490 483 489
3 490 484 483
3 491 485 484
3 491 486 485
3 491 484 490
3 492 486 491
3 493 423 487
3 493 487 486
3 493 486 492
3 494 390 391
3 494 488 390
3 495 488 494
3 495 489 488
3 496 490 489
3 496 489 495
3 497 490 496
3 497 491 490
3 497 492 491
3 498 492 497
3 499 424 423
3 499 425 424
3 499 423 493
3 499 493 492
3 499 492 498
3 500 391 392
3 500 494 391
3 501 494 500
3 501 495 494
3 502 495 501
3 502 497 496
3 502 496 495
3 503 497 502
3 504 497 503
3 504 498 497
3 505 425 499
3 505 499 498
3 505 498 504
3 506 392 393
3 506 501 500
3 506 500 392
3 507 501 506
3 508 503 502
3 508 502 501
3 508 501 507
3 509 503 508
3 510 504 503
3 510 503 509
3 511 425 505
3 511 504 510
3 511 505 504
3 511 426 425
3 512 393 394
3 512 394 395
3 512 506 393
3 513 507 506
3 513 506 512
3 514 508 507
3 514 509 508
3 514 507 513
3 515 509 514
3 516 510 509
3 516 509 515
3 517 511 510
3 517 426 511
3 517 427 426
3 517 510 516
3 517 428 427
3 518 395 396
3 518 512 395
3 519 513 512
3 519 514 513
3 519 512 518
3 520 514 519
3 521 515 514
3 521 514 520
3 522 516 515
3 522 517 516
3 522 515 521
3 523 428 517
3 523 517 522
3 524 518 396
3 525 519 518
3 525 518 524
3 526 520 519
3 526 519 525
3 527 521 520
3 527 520 526
3 528 521 527
3 528 522 521
3 528 523 522
3 529 429 428
3 529 430 429
3 529 428 523
3 529 523 528
3 530 396 397
3 530 397 398
3 530 524 396
3 531 525 524
3 531 524 530
3 532 526 525
3 532 527 526
3 532 525 531
3 533 527 532
3 534 528 527
3 534 527 533
3 535 528 534
3 535 431 430
3 535 430 529
3 535 529 528
3 536 530 398
3 537 532 531
3 537 530 536
3 537 531 530
3 538 532 537
3 539 532 538
3 539 533 532
3 540 534 533
3 540 535 534
3 540 533 539
3 541 431 535
3 541 535 540
3 542 398 399
3 542 399 400
3 542 536 398
3 543 537 536
3 543 536 542
3 544 538 537
3 544 537 543
3 545 538 544
3 545 539 538
3 546 540 539
3 546 539 545
3 547 431 541
3 547 540 546
3 547 541 540
3 547 432 431
3 547 433 432
3 548 400 401
3 548 542 400
3 549 543 542
3 549 544 543
3 549 542 548
3 550 544 549
3 551 545 544
3 551 544 550
3 552 546 545
3 552 545 551
3 553 546 552
3 553 547 546
3 553 433 547
3 554 548 401
3 555 549 548
3 555 548 554
3 556 550 549
3 556 551 550
3 556 549 555
3 557 551 556
3 558 553 552
3 558 552 551
3 558 551 557
3 559 434 433
3 559 553 558
3 559 433 553
3 560 401 402
3 560 554 401
3 561 554 560
3 561 555 554
3 562 556 555
3 562 555 561
3 563 556 562
3 563 557 556
3 564 558 557
3 564 559 558
3 564 557 563
3 565 435 434
3 565 434 559
3 565 559 564
3 566 402 403
3 566 560 402
3 567 560 566
3 567 561 560
3 567 562 561
3 568 562 567
3 568 563 562
3 569 563 568
3 570 563 569
3 570 564 563
3 571 565 564
3 571 564 570
3 571 436 435
3 571 437 436
3 571 435 565
3 572 403 404
3 572 566 403
3 573 568 567
3 573 566 572
3 573 567 566
3 574 568 573
3 575 568 574
3 575 569 568
3 576 570 569
3 576 569 575
3 577 571 570
3 577 437 571
3 577 570 576
3 578 404 405
3 578 572 404
3 579 573 572
3 579 572 578
3 579 574 573
3 580 574 579
3 581 575 574
3 581 574 580
3 582 576 575
3 582 577 576
3 582 575 581
3 583 577 582
3 583 437 577
3 583 438 437
3 584 405 406
3 584 406 407
3 584 407 408
3 584 578 405
3 585 579 578
3 585 408 409
3 585 578 584
3 585 584 408
3 586 409 410
3 586 580 579
3 586 579 585
3 586 585 409
3 587 410 411
3 587 411 412
3 587 581 580
3 587 580 586
3 587 586 410
3 588 583 582
3 588 582 581
3 588 587 412
3 588 581 587
3 589 412 413
3 589 413 414
3 589 438 583
3 589 439 438
3 589 414 439
3 589 583 588
3 589 588 412
3 593 591 592
3 590 591 593
3 594 590 593
3 597 590 594
3 596 590 597
3 595 590 596
3 607 598 599
3 607 600 598
3 608 601 600
3 608 600 607
3 609 602 601
3 609 601 608
3 610 603 602
3 610 602 609
3 611 604 603
3 611 603 610
3 606 605 604
3 606 604 611
3 618 616 615
3 618 617 616
3 619 618 615
3 614 620 619
3 614 615 621
3 614 619 615
3 613 621 622
3 613 614 621
3 612 613 622
3 624 628 623
3 625 634 628
3 625 628 624
3 626 634 625
3 627 634 626
3 636 633 634
3 636 634 627
3 637 632 633
3 637 633 636
3 638 630 631
3 638 631 632
3 638 632 637
3 635 629 630
3 635 630 638
3 645 646 653
3 639 640 660
3 661 649 648
3 662 648 647
3 662 661 648
3 663 647 654
3 663 662 647
3 664 650 649
3 664 661 662
3 664 649 661
3 665 654 655
3 665 663 654
3 666 662 663
3 666 664 662
3 667 651 650
3 667 652 651
3 667 650 664
3 668 655 656
3 668 665 655
3 669 666 663
3 669 663 665
3 670 664 666
3 670 667 664
3 671 656 657
3 671 669 665
3 671 668 656
3 671 665 668
3 672 666 669
3 672 670 666
3 673 644 645
3 673 653 652
3 673 652 667
3 673 667 670
3 673 645 653
3 674 669 671
3 674 672 669
3 675 643 644
3 675 644 673
3 675 670 672
3 675 673 670
3 676 657 658
3 676 658 659
3 676 671 657
3 676 674 671
3 677 641 642
3 677 642 643
3 677 643 675
3 677 672 674
3 677 675 672
3 678 640 641
3 678 659 660
3 678 660 640
3 678 641 677
3 678 676 659
3 678 674 676
3 678 677 674
3 683 681 682
3 693 681 683
3 692 681 693
3 691 681 692
3 690 679 681
3 690 681 691
3 689 679 690
3 688 679 689
3 687 679 688
3 695 685 684
3 695 686 685
3 695 684 694
3 680 687 686
3 680 679 687
3 680 686 695
3 701 680 695
3 698 696 680
3 698 697 696
3 699 701 700
3 699 680 701
3 699 698 680
3 703 704 702
3 703 705 704
3 708 709 710
3 706 707 708
3 706 710 711
3 706 708 710
3 715 713 712
3 715 714 713
3 725 716 717
3 726 717 718
3 726 725 717
3 727 718 719
3 727 726 718
3 728 719 720
3 728 727 719
3 729 720 721
3 729 728 720
3 730 721 722
3 730 729 721
3 731 722 723
3 731 730 722
3 724 731 723
3 739 740 741
3 739 741 747
3 738 747 746
3 738 739 747
3 737 746 745
3 737 738 746
3 736 745 744
3 736 737 745
3 735 744 743
3 735 736 744
3 734 743 742
3 734 735 743
3 733 742 732
3 733 734 742
3 748 750 749
3 777 750 748
3 778 751 750
3 778 752 751
3 778 750 777
3 779 753 752
3 779 752 778
3 780 753 779
3 781 754 753
3 781 755 754
3 781 753 780
3 782 755 781
3 783 756 755
3 783 757 756
3 783 755 782
3 784 757 783
3 785 758 757
3 785 757 784
3 786 759 758
3 786 758 785
3 787 759 786
3 787 760 759
3 788 760 787
3 788 761 760
3 789 761 788
3 789 762 761
3 789 763 762
3 790 763 789
3 791 764 763
3 791 763 790
3 792 765 764
3 792 764 791
3 793 766 765
3 793 765 792
3 794 767 766
3 794 766 793
3 795 768 767
3 795 767 794
3 796 769 768
3 796 768 795
3 797 770 769
3 797 769 796
3 798 771 770
3 798 770 797
3 799 772 771
3 799 771 798
3 800 773 772
3 800 772 799
3 801 774 773
3 801 773 800
3 776 775 774
3 776 774 801
3 814 804 805
3 806 814 805
3 807 814 806
3 815 814 807
3 808 815 807
3 821 819 818
3 821 820 819
3 826 808 809
3 826 809 810
3 827 810 811
3 827 826 810
3 827 808 826
3 827 815 808
3 828 816 815
3 828 815 827
3 829 817 816
3 829 816 828
3 830 818 817
3 830 821 818
3 830 817 829
3 831 811 812
3 832 822 821
3 832 830 822
3 832 821 830
3 833 827 811
3 833 811 831
3 834 828 827
3 834 827 833
3 835 829 828
3 835 828 834
3 836 829 835
3 836 830 829
3 836 822 830
3 837 823 822
3 837 824 823
3 837 822 836
3 837 836 824
3 838 835 834
3 838 824 836
3 838 836 835
3 839 825 824
3 839 824 838
3 840 803 802
3 840 802 825
3 840 825 839
3 841 834 833
3 841 833 831
3 841 838 834
3 842 839 838
3 842 838 841
3 843 840 839
3 843 839 842
3 844 803 840
3 844 840 843
3 845 831 812
3 845 841 831
3 846 841 845
3 846 842 841
3 846 845 812
3 847 843 842
3 848 844 843
3 848 843 847
3 849 844 848
3 849 803 844
3 850 846 812
3 850 842 846
3 850 847 842
3 850 812 813
3 851 848 847
3 851 847 850
3 851 850 813
3 852 813 803
3 852 848 851
3 852 849 848
3 852 851 813
3 852 803 849
3 902 869 870
3 901 870 871
3 901 902 870
3 903 868 869
3 903 869 902
3 900 871 872
3 900 901 871
3 904 867 868
3 904 868 903
3 899 872 873
3 899 900 872
3 879 866 867
3 879 867 904
3 898 873 874
3 898 899 873
3 880 865 866
3 880 866 879
3 897 898 874
3 875 897 874
3 881 864 865
3 881 865 880
3 896 897 875
3 882 863 864
3 882 864 881
3 876 895 896
3 876 896 875
3 862 863 882
3 862 882 883
3 877 895 876
3 877 894 895
3 861 862 883
3 861 883 884
3 878 894 877
3 878 893 894
3 860 861 884
3 860 884 885
3 860 885 886
3 853 893 878
3 853 892 893
3 859 860 886
3 854 891 892
3 854 892 853
3 858 859 886
3 858 886 887
3 858 887 888
3 855 890 891
3 855 891 854
3 857 888 889
3 857 858 888
3 856 890 855
3 856 889 890
3 856 857 889
3 939 938 937
3 971 905 906
3 971 913 905
3 972 906 907
3 972 971 906
3 973 907 908
3 973 972 907
3 974 914 913
3 974 913 971
3 975 908 909
3 975 973 908
3 976 971 972
3 976 974 971
3 977 909 910
3 977 975 909
3 978 976 972
3 978 972 973
3 979 915 914
3 979 914 974
3 980 910 911
3 980 911 912
3 980 912 946
3 980 977 910
3 981 978 973
3 981 973 975
3 982 974 976
3 982 979 974
3 983 975 977
3 983 981 975
3 984 982 976
3 984 976 978
3 985 916 915
3 985 915 979
3 986 946 947
3 986 977 980
3 986 980 946
3 986 983 977
3 987 984 978
3 987 978 981
3 988 985 979
3 988 979 982
3 989 981 983
3 989 987 981
3 990 982 984
3 990 988 982
3 991 917 916
3 991 918 917
3 991 916 985
3 992 989 983
3 992 947 948
3 992 948 949
3 992 986 947
3 992 983 986
3 993 990 984
3 993 984 987
3 994 988 990
3 994 991 985
3 994 985 988
3 995 993 987
3 995 987 989
3 996 994 990
3 997 918 991
3 998 995 989
3 998 989 992
3 998 992 949
3 999 996 990
3 999 993 995
3 999 990 993
3 1000 991 994
3 1000 997 991
3 1001 999 995
3 1002 1000 994
3 1002 994 996
3 1003 919 918
3 1003 918 997
3 1004 995 998
3 1004 998 949
3 1004 1001 995
3 1004 949 950
3 1005 1002 996
3 1005 996 999
3 1006 997 1000
3 1006 1003 997
3 1007 999 1001
3 1007 1005 999
3 1007 1001 1004
3 1008 1000 1002
3 1008 1006 1000
3 1009 919 1003
3 1009 920 919
3 1009 1003 1006
3 1010 1004 950
3 1010 1007 1004
3 1010 950 951
3 1011 1002 1005
3 1011 1008 1002
3 1012 1009 1006
3 1013 1005 1007
3 1013 1011 1005
3 1014 1006 1008
3 1014 1012 1006
3 1015 921 920
3 1015 922 921
3 1015 920 1009
3 1016 1007 1010
3 1016 1010 951
3 1016 951 952
3 1016 1013 1007
3 1017 1008 1011
3 1017 1014 1008
3 1018 1009 1012
3 1018 1015 1009
3 1019 1011 1013
3 1019 1017 1011
3 1020 1012 1014
3 1020 1018 1012
3 1020 1014 1017
3 1021 922 1015
3 1022 952 953
3 1022 1019 1013
3 1022 1016 952
3 1022 1013 1016
3 1023 1020 1017
3 1024 1015 1018
3 1024 1021 1015
3 1025 1017 1019
3 1025 1023 1017
3 1026 1018 1020
3 1026 1024 1018
3 1027 923 922
3 1027 922 1021
3 1028 953 954
3 1028 1022 953
3 1028 1019 1022
3 1028 1025 1019
3 1029 1023 1025
3 1029 1020 1023
3 1029 1026 1020
3 1030 1021 1024
3 1030 1027 1021
3 1031 1029 1025
3 1031 1025 1028
3 1032 1030 1024
3 1032 1024 1026
3 1033 924 923
3 1033 923 1027
3 1034 1031 1028
3 1034 954 955
3 1034 1028 954
3 1035 1026 1029
3 1035 1032 1026
3 1036 1027 1030
3 1036 1033 1027
3 1037 1029 1031
3 1037 1035 1029
3 1038 1036 1030
3 1038 1030 1032
3 1039 924 1033
3 1039 925 924
3 1040 1034 955
3 1040 1037 1031
3 1040 955 956
3 1040 1031 1034
3 1041 1032 1035
3 1041 1038 1032
3 1042 1033 1036
3 1042 1036 1038
3 1042 1039 1033
3 1043 1035 1037
3 1043 1041 1035
3 1044 1042 1038
3 1044 1038 1041
3 1045 925 1039
3 1045 926 925
3 1046 1037 1040
3 1046 1040 956
3 1046 1043 1037
3 1046 956 957
3 1047 1044 1041
3 1048 1039 1042
3 1048 1045 1039
3 1049 1041 1043
3 1049 1047 1041
3 1049 1043 1046
3 1050 1042 1044
3 1050 1048 1042
3 1051 927 926
3 1051 926 1045
3 1052 1049 1046
3 1052 957 958
3 1052 1046 957
3 1053 1044 1047
3 1053 1050 1044
3 1054 1045 1048
3 1054 1051 1045
3 1054 1048 1050
3 1055 1047 1049
3 1055 1053 1047
3 1056 1054 1050
3 1057 928 927
3 1057 927 1051
3 1058 1055 1049
3 1058 1049 1052
3 1058 958 959
3 1058 1052 958
3 1059 1050 1053
3 1059 1056 1050
3 1060 1051 1054
3 1060 1057 1051
3 1061 1055 1058
3 1061 1053 1055
3 1061 1059 1053
3 1062 1060 1054
3 1062 1054 1056
3 1062 1056 1059
3 1063 929 928
3 1063 928 1057
3 1063 1057 1060
3 1064 959 960
3 1064 1058 959
3 1064 1061 1058
3 1065 1062 1059
3 1066 1063 1060
3 1067 1065 1059
3 1067 1059 1061
3 1068 1066 1060
3 1068 1062 1065
3 1068 1060 1062
3 1069 930 929
3 1069 929 1063
3 1070 1061 1064
3 1070 1064 960
3 1070 960 961
3 1070 1067 1061
3 1071 1068 1065
3 1072 1063 1066
3 1072 1069 1063
3 1073 1065 1067
3 1073 1071 1065
3 1074 1072 1066
3 1074 1066 1068
3 1074 1068 1071
3 1075 930 1069
3 1075 931 930
3 1076 1067 1070
3 1076 1070 961
3 1076 1073 1067
3 1076 961 962
3 1077 1074 1071
3 1078 1069 1072
3 1078 1075 1069
3 1079 1071 1073
3 1079 1077 1071
3 1080 1072 1074
3 1080 1078 1072
3 1081 931 1075
3 1081 932 931
3 1081 933 932
3 1081 1075 1078
3 1082 1073 1076
3 1082 1076 962
3 1082 1079 1073
3 1082 962 963
3 1083 1077 1079
3 1083 1080 1074
3 1083 1074 1077
3 1084 1081 1078
3 1085 1083 1079
3 1086 1084 1078
3 1086 1078 1080
3 1087 934 933
3 1087 933 1081
3 1088 963 964
3 1088 1079 1082
3 1088 1082 963
3 1088 1085 1079
3 1089 1080 1083
3 1089 1086 1080
3 1090 1081 1084
3 1090 1087 1081
3 1091 1083 1085
3 1091 1089 1083
3 1092 1084 1086
3 1092 1086 1089
3 1092 1090 1084
3 1093 934 1087
3 1094 964 965
3 1094 1088 964
3 1094 1091 1085
3 1094 1085 1088
3 1095 1089 1091
3 1095 1092 1089
3 1096 1087 1090
3 1096 1093 1087
3 1097 1095 1091
3 1098 1090 1092
3 1098 1096 1090
3 1099 935 934
3 1099 936 935
3 1099 934 1093
3 1100 1097 1091
3 1100 965 966
3 1100 966 967
3 1100 1094 965
3 1100 1091 1094
3 1101 1098 1092
3 1101 1092 1095
3 1102 1099 1093
3 1102 1093 1096
3 1103 1101 1095
3 1103 1095 1097
3 1104 1096 1098
3 1104 1102 1096
3 1105 936 1099
3 1105 1099 1102
3 1106 1097 1100
3 1106 1100 967
3 1106 1103 1097
3 1107 1104 1098
3 1107 1098 1101
3 1108 1105 1102
3 1109 1107 1101
3 1109 1101 1103
3 1110 1108 1102
3 1110 1102 1104
3 1111 937 936
3 1111 939 937
3 1111 936 1105
3 1111 1105 1108
3 1112 1109 1103
3 1112 1106 967
3 1112 1103 1106
3 1112 967 968
3 1113 1104 1107
3 1113 1110 1104
3 1113 1107 1109
3 1114 940 939
3 1114 941 940
3 1114 1108 1110
3 1114 1111 1108
3 1114 939 1111
3 1115 1113 1109
3 1115 1109 1112
3 1116 941 1114
3 1116 1114 1110
3 1117 1112 968
3 1117 1115 1112
3 1117 968 969
3 1117 969 970
3 1118 1116 1110
3 1118 941 1116
3 1118 942 941
3 1118 1110 1113
3 1119 943 942
3 1119 944 943
3 1119 942 1118
3 1119 1113 1115
3 1119 1115 1117
3 1119 1118 1113
3 1120 945 944
3 1120 1117 970
3 1120 970 945
3 1120 944 1119
3 1120 1119 1117
3 1146 1147 1148
3 1146 1148 1174
3 1145 1173 1172
3 1145 1174 1173
3 1145 1146 1174
3 1144 1145 1172
3 1143 1172 1171
3 1143 1144 1172
3 1142 1171 1170
3 1142 1143 1171
3 1141 1170 1169
3 1141 1142 1170
3 1140 1168 1167
3 1140 1169 1168
3 1140 1141 1169
3 1139 1140 1167
3 1138 1166 1165
3 1138 1167 1166
3 1138 1139 1167
3 1137 1138 1165
3 1136 1137 1165
3 1136 1165 1164
3 1135 1136 1164
3 1135 1164 1163
3 1134 1135 1163
3 1134 1162 1161
3 1134 1163 1162
3 1133 1134 1161
3 1133 1161 1160
3 1132 1133 1160
3 1131 1132 1160
3 1131 1160 1159
3 1130 1131 1159
3 1130 1159 1158
3 1129 1130 1158
3 1129 1158 1157
3 1128 1156 1155
3 1128 1157 1156
3 1128 1129 1157
3 1127 1128 1155
3 1126 1155 1154
3 1126 1127 1155
3 1125 1154 1153
3 1125 1126 1154
3 1124 1152 1151
3 1124 1153 1152
3 1124 1125 1153
3 1123 1151 1150
3 1123 1124 1151
3 1122 1150 1149
3 1122 1123 1150
3 1121 1122 1149
3 1234 1203 1202
3 1200 1201 1208
3 1235 1210 1209
3 1175 1176 1240
3 1241 1204 1203
3 1241 1205 1204
3 1241 1233 1232
3 1241 1234 1233
3 1241 1203 1234
3 1242 1206 1205
3 1242 1207 1206
3 1242 1205 1241
3 1243 1231 1230
3 1243 1232 1231
3 1243 1241 1232
3 1244 1207 1242
3 1244 1198 1199
3 1244 1199 1200
3 1244 1208 1207
3 1244 1200 1208
3 1245 1242 1241
3 1245 1241 1243
3 1246 1229 1228
3 1246 1230 1229
3 1246 1243 1230
3 1247 1196 1197
3 1247 1197 1198
3 1247 1242 1245
3 1247 1198 1244
3 1247 1244 1242
3 1248 1243 1246
3 1248 1245 1243
3 1249 1227 1226
3 1249 1228 1227
3 1249 1246 1228
3 1250 1245 1248
3 1250 1194 1195
3 1250 1195 1196
3 1250 1196 1247
3 1250 1247 1245
3 1251 1248 1246
3 1251 1246 1249
3 1252 1225 1224
3 1252 1226 1225
3 1252 1249 1226
3 1253 1248 1251
3 1253 1194 1250
3 1253 1192 1193
3 1253 1193 1194
3 1253 1250 1248
3 1254 1253 1251
3 1254 1249 1252
3 1254 1251 1249
3 1255 1252 1224
3 1255 1223 1222
3 1255 1224 1223
3 1256 1190 1191
3 1256 1191 1192
3 1256 1192 1253
3 1256 1253 1254
3 1257 1254 1252
3 1257 1252 1255
3 1258 1257 1255
3 1258 1221 1220
3 1258 1222 1221
3 1258 1255 1222
3 1259 1188 1189
3 1259 1189 1190
3 1259 1254 1257
3 1259 1256 1254
3 1259 1190 1256
3 1260 1257 1258
3 1261 1258 1220
3 1261 1219 1218
3 1261 1220 1219
3 1262 1186 1187
3 1262 1187 1188
3 1262 1188 1259
3 1262 1257 1260
3 1262 1259 1257
3 1263 1258 1261
3 1263 1262 1260
3 1263 1260 1258
3 1264 1217 1216
3 1264 1218 1217
3 1264 1261 1218
3 1265 1184 1185
3 1265 1185 1186
3 1265 1262 1263
3 1265 1186 1262
3 1266 1263 1261
3 1266 1261 1264
3 1267 1264 1216
3 1267 1215 1214
3 1267 1216 1215
3 1268 1265 1263
3 1268 1182 1183
3 1268 1183 1184
3 1268 1263 1266
3 1268 1184 1265
3 1269 1266 1264
3 1269 1268 1266
3 1269 1264 1267
3 1270 1267 1214
3 1270 1213 1212
3 1270 1214 1213
3 1271 1180 1181
3 1271 1181 1182
3 1271 1268 1269
3 1271 1182 1268
3 1272 1267 1270
3 1272 1269 1267
3 1273 1211 1210
3 1273 1212 1211
3 1273 1235 1236
3 1273 1236 1237
3 1273 1210 1235
3 1273 1270 1212
3 1274 1178 1179
3 1274 1179 1180
3 1274 1269 1272
3 1274 1180 1271
3 1274 1271 1269
3 1275 1270 1273
3 1275 1272 1270
3 1275 1237 1238
3 1275 1238 1239
3 1275 1273 1237
3 1276 1176 1177
3 1276 1177 1178
3 1276 1178 1274
3 1276 1274 1272
3 1276 1275 1239
3 1276 1239 1240
3 1276 1272 1275
3 1276 1240 1176
3 1292 1294 1293
3 1295 1294 1292
3 1297 1296 1295
3 1299 1298 1297
3 1299 1297 1295
3 1300 1292 1291
3 1300 1295 1292
3 1300 1299 1295
3 1286 1288 1287
3 1302 1301 1300
3 1302 1300 1291
3 1284 1286 1285
3 1284 1288 1286
3 1277 1291 1290
3 1277 1302 1291
3 1278 1290 1289
3 1278 1277 1290
3 1279 1284 1283
3 1279 1289 1288
3 1279 1288 1284
3 1279 1278 1289
3 1281 1283 1282
3 1281 1279 1283
3 1280 1279 1281
