ply
format ascii 1.0
comment generated by blendit.inference.finetune_visualize
element vertex 378
property float x
property float y
property float z
property uchar red
property uchar green
property uchar blue
element face 336
property list uchar int vertex_indices
end_header
0 0 0 218 222 230
0 -1.11022302e-16 39.037384 218 222 230
0 62.786855 0 218 222 230
0 62.786855 39.8064791 218 222 230
0 0.769095179 39.8064791 218 222 230
0 0.0192828219 39.2085237 218 222 230
0 0.0761643662 39.3710818 218 222 230
0 0.167792355 39.516907 218 222 230
0 0.289572178 39.6386868 218 222 230
0 0.435397287 39.7303148 218 222 230
0 0.597955401 39.7871963 218 222 230
20.9629382 -1.11022302e-16 39.037384 218 222 230
20.9629382 0 0 218 222 230
0 0 0 218 222 230
0 -1.11022302e-16 39.037384 218 222 230
0 -1.11022302e-16 39.037384 218 222 230
20.9629382 -1.11022302e-16 39.037384 218 222 230
20.9629382 0.0192828219 39.2085237 218 222 230
20.9629382 0.0761643662 39.3710818 218 222 230
20.9629382 0.167792355 39.516907 218 222 230
20.9629382 0.289572178 39.6386868 218 222 230
20.9629382 0.435397287 39.7303148 218 222 230
20.9629382 0.597955401 39.7871963 218 222 230
20.9629382 0.769095179 39.8064791 218 222 230
0 0.769095179 39.8064791 218 222 230
0 0.0192828219 39.2085237 218 222 230
0 0.0761643662 39.3710818 218 222 230
0 0.167792355 39.516907 218 222 230
0 0.289572178 39.6386868 218 222 230
0 0.435397287 39.7303148 218 222 230
0 0.597955401 39.7871963 218 222 230
0 62.786855 0 218 222 230
72.5205525 62.786855 -1.11022302e-16 218 222 230
0 0 0 218 222 230
20.9629382 0 0 218 222 230
20.9629382 14.777224 0 218 222 230
72.5205525 14.777224 -8.32667268e-16 218 222 230
13.8159163 8.60068525 0 218 222 230
11.988085 8.79660308 0 218 222 230
13.9961171 8.55900258 0 218 222 230
14.1611555 8.47550342 0 218 222 230
14.3014864 8.35501691 0 218 222 230
14.408994 8.2045114 0 218 222 230
14.4774603 8.03269134 0 218 222 230
14.5029259 7.84949395 0 218 222 230
14.4839177 7.66551442 0 218 222 230
14.4215352 7.4913932 0 218 222 230
12.7521486 4.16021995 0 218 222 230
11.2009011 7.72500692 0 218 222 230
11.8100608 8.79496116 0 218 222 230
11.6371838 8.75243079 0 218 222 230
11.4787174 8.67129092 0 218 222 230
11.3431527 8.55588932 0 218 222 230
11.237754 8.41240969 0 218 222 230
11.1681689 8.24854021 0 218 222 230
11.138126 8.07306167 0 218 222 230
11.1492352 7.89537689 0 218 222 230
0 62.786855 39.8064791 218 222 230
39.7899997 62.786855 39.8064791 218 222 230
0 0.769095179 39.8064791 218 222 230
20.9629382 0.769095179 39.8064791 218 222 230
20.9629382 14.777224 39.8064791 218 222 230
72.5205525 14.777224 39.8064791 218 222 230
72.5205525 30.0565096 39.8064791 218 222 230
40.5588922 62.0354123 39.8064791 218 222 230
40.7788068 58.9252179 39.8064791 218 222 230
41.2935897 55.8500481 39.8064791 218 222 230
42.098572 52.837794 39.8064791 218 222 230
43.1864526 49.9157764 39.8064791 218 222 230
44.5473646 47.1104975 39.8064791 218 222 230
46.1689648 44.4474008 39.8064791 218 222 230
48.0365455 41.9506402 39.8064791 218 222 230
50.133168 39.6428608 39.8064791 218 222 230
52.4398162 37.544994 39.8064791 218 222 230
54.9355692 35.6760671 39.8064791 218 222 230
57.5977909 34.0530308 39.8064791 218 222 230
60.4023354 32.690606 39.8064791 218 222 230
63.3237659 31.6011496 39.8064791 218 222 230
66.3355854 30.7945429 39.8064791 218 222 230
69.4104772 30.2781015 39.8064791 218 222 230
39.9586798 62.7681293 39.8064791 218 222 230
40.1191459 62.7128642 39.8064791 218 222 230
40.2635842 62.6237508 39.8064791 218 222 230
40.3849612 62.5051284 39.8064791 218 222 230
40.4773663 62.3627736 39.8064791 218 222 230
40.5362999 62.2036181 39.8064791 218 222 230
13.8159163 8.60068525 39.8064791 218 222 230
11.988085 8.79660308 39.8064791 218 222 230
13.9961171 8.55900258 39.8064791 218 222 230
14.1611555 8.47550342 39.8064791 218 222 230
14.3014864 8.35501691 39.8064791 218 222 230
14.408994 8.2045114 39.8064791 218 222 230
14.4774603 8.03269134 39.8064791 218 222 230
14.5029259 7.84949395 39.8064791 218 222 230
14.4839177 7.66551442 39.8064791 218 222 230
14.4215352 7.4913932 39.8064791 218 222 230
12.7521486 4.16021995 39.8064791 218 222 230
11.2009011 7.72500692 39.8064791 218 222 230
11.8100608 8.79496116 39.8064791 218 222 230
11.6371838 8.75243079 39.8064791 218 222 230
11.4787174 8.67129092 39.8064791 218 222 230
11.3431527 8.55588932 39.8064791 218 222 230
11.237754 8.41240969 39.8064791 218 222 230
11.1681689 8.24854021 39.8064791 218 222 230
11.138126 8.07306167 39.8064791 218 222 230
11.1492352 7.89537689 39.8064791 218 222 230
73.2896476 62.786855 0.769095179 218 222 230
73.2896476 62.786855 29.9085139 218 222 230
72.5205525 62.786855 -1.11022302e-16 218 222 230
72.6916922 62.786855 0.0192828219 218 222 230
72.8542503 62.786855 0.0761643662 218 222 230
73.0000755 62.786855 0.167792355 218 222 230
73.1218553 62.786855 0.289572178 218 222 230
73.2134833 62.786855 0.435397287 218 222 230
73.2703648 62.786855 0.597955401 218 222 230
0 62.786855 0 218 222 230
0 62.786855 39.8064791 218 222 230
39.7899997 62.786855 39.8064791 218 222 230
39.7899997 62.786855 30.6776091 218 222 230
40.5502674 62.786855 30.6776091 218 222 230
72.5205525 62.786855 30.6776091 218 222 230
73.2703648 62.786855 30.0796537 218 222 230
73.2134833 62.786855 30.2422118 218 222 230
73.1218553 62.786855 30.3880369 218 222 230
73.0000755 62.786855 30.5098167 218 222 230
72.8542503 62.786855 30.6014447 218 222 230
72.6916922 62.786855 30.6583262 218 222 230
20.9629382 14.777224 39.8064791 218 222 230
20.9629382 0.769095179 39.8064791 218 222 230
20.9629382 -1.11022302e-16 39.037384 218 222 230
20.9629382 0.0192828219 39.2085237 218 222 230
20.9629382 0.0761643662 39.3710818 218 222 230
20.9629382 0.167792355 39.516907 218 222 230
20.9629382 0.289572178 39.6386868 218 222 230
20.9629382 0.435397287 39.7303148 218 222 230
20.9629382 0.597955401 39.7871963 218 222 230
20.9629382 0 0 218 222 230
20.9629382 14.777224 0 218 222 230
20.9629382 27.6113533 19.9032396 218 222 230
72.5205525 14.777224 -8.32667268e-16 255 79 163
72.5205525 62.786855 -1.11022302e-16 255 79 163
72.6916922 62.786855 0.0192828219 255 79 163
72.8542503 62.786855 0.0761643662 255 79 163
73.0000755 62.786855 0.167792355 255 79 163
73.1218553 62.786855 0.289572178 255 79 163
73.2134833 62.786855 0.435397287 255 79 163
73.2703648 62.786855 0.597955401 255 79 163
73.2896476 62.786855 0.769095179 255 79 163
73.2896476 16.1882833 0.769095179 255 79 163
73.2058213 15.5476758 0.419933274 255 79 163
73.0481781 15.16164 0.209525185 255 79 163
72.8881787 14.9488642 0.0935521577 255 79 163
72.7956827 14.8706021 0.0508955322 255 79 163
72.6890751 14.8115151 0.0186902698 255 79 163
72.6053304 14.785823 0.00468684823 255 79 163
72.5205525 14.777224 -8.32667268e-16 218 222 230
20.9629382 14.777224 0 218 222 230
20.9629382 27.6113533 19.9032396 218 222 230
72.5205525 27.6113533 19.9032396 218 222 230
13.8159163 8.60068525 39.8064791 218 222 230
11.988085 8.79660308 39.8064791 218 222 230
13.8159163 8.60068525 0 218 222 230
11.988085 8.79660308 0 218 222 230
13.8159163 8.60068525 39.8064791 218 222 230
13.9961171 8.55900258 39.8064791 218 222 230
14.1611555 8.47550342 39.8064791 218 222 230
14.3014864 8.35501691 39.8064791 218 222 230
14.408994 8.2045114 39.8064791 218 222 230
14.4774603 8.03269134 39.8064791 218 222 230
14.5029259 7.84949395 39.8064791 218 222 230
14.4839177 7.66551442 39.8064791 218 222 230
14.4215352 7.4913932 39.8064791 218 222 230
14.4215352 7.4913932 0 218 222 230
13.8159163 8.60068525 0 218 222 230
13.9961171 8.55900258 0 218 222 230
14.1611555 8.47550342 0 218 222 230
14.3014864 8.35501691 0 218 222 230
14.408994 8.2045114 0 218 222 230
14.4774603 8.03269134 0 218 222 230
14.5029259 7.84949395 0 218 222 230
14.4839177 7.66551442 0 218 222 230
11.988085 8.79660308 39.8064791 218 222 230
11.988085 8.79660308 0 218 222 230
11.8100608 8.79496116 0 218 222 230
11.6371838 8.75243079 0 218 222 230
11.4787174 8.67129092 0 218 222 230
11.3431527 8.55588932 0 218 222 230
11.237754 8.41240969 0 218 222 230
11.1681689 8.24854021 0 218 222 230
11.138126 8.07306167 0 218 222 230
11.1492352 7.89537689 0 218 222 230
11.2009011 7.72500692 0 218 222 230
11.2009011 7.72500692 39.8064791 218 222 230
11.8100608 8.79496116 39.8064791 218 222 230
11.6371838 8.75243079 39.8064791 218 222 230
11.4787174 8.67129092 39.8064791 218 222 230
11.3431527 8.55588932 39.8064791 218 222 230
11.237754 8.41240969 39.8064791 218 222 230
11.1681689 8.24854021 39.8064791 218 222 230
11.138126 8.07306167 39.8064791 218 222 230
11.1492352 7.89537689 39.8064791 218 222 230
12.7521486 4.16021995 39.8064791 218 222 230
14.4215352 7.4913932 39.8064791 218 222 230
12.7521486 4.16021995 0 218 222 230
14.4215352 7.4913932 0 218 222 230
11.2009011 7.72500692 39.8064791 218 222 230
12.7521486 4.16021995 39.8064791 218 222 230
11.2009011 7.72500692 0 218 222 230
12.7521486 4.16021995 0 218 222 230
39.7899997 62.786855 39.8064791 218 222 230
39.9586798 62.7681293 39.8064791 218 222 230
40.1191459 62.7128642 39.8064791 218 222 230
40.2635842 62.6237508 39.8064791 218 222 230
40.3849612 62.5051284 39.8064791 218 222 230
40.4773663 62.3627736 39.8064791 218 222 230
40.5362999 62.2036181 39.8064791 218 222 230
40.5588922 62.0354123 39.8064791 218 222 230
40.5588922 62.0354123 30.6776091 218 222 230
39.7899997 62.786855 30.6776091 218 222 230
39.9586798 62.7681293 30.6776091 218 222 230
40.1191459 62.7128642 30.6776091 218 222 230
40.2635842 62.6237508 30.6776091 218 222 230
40.3849612 62.5051284 30.6776091 218 222 230
40.4773663 62.3627736 30.6776091 218 222 230
40.5362999 62.2036181 30.6776091 218 222 230
73.2896476 30.0474748 39.037384 218 222 230
73.2896476 30.0474748 30.6776091 218 222 230
72.5205525 30.0565096 39.8064791 218 222 230
72.6958816 30.0528595 39.7862278 218 222 230
72.8591296 30.0503055 39.7279438 218 222 230
73.0012916 30.0487447 39.6377149 218 222 230
73.1167855 30.0479311 39.5231963 218 222 230
73.2033073 30.0475886 39.3914365 218 222 230
73.2601537 30.0474881 39.2483279 218 222 230
73.2822764 30.0474756 39.1436101 218 222 230
40.5588922 62.0354123 39.8064791 218 222 230
40.7788068 58.9252179 39.8064791 218 222 230
41.2935897 55.8500481 39.8064791 218 222 230
42.098572 52.837794 39.8064791 218 222 230
43.1864526 49.9157764 39.8064791 218 222 230
44.5473646 47.1104975 39.8064791 218 222 230
46.1689648 44.4474008 39.8064791 218 222 230
48.0365455 41.9506402 39.8064791 218 222 230
50.133168 39.6428608 39.8064791 218 222 230
52.4398162 37.544994 39.8064791 218 222 230
54.9355692 35.6760671 39.8064791 218 222 230
57.5977909 34.0530308 39.8064791 218 222 230
60.4023354 32.690606 39.8064791 218 222 230
63.3237659 31.6011496 39.8064791 218 222 230
66.3355854 30.7945429 39.8064791 218 222 230
69.4104772 30.2781015 39.8064791 218 222 230
40.5588922 62.0354123 30.6776091 218 222 230
40.7788068 58.9252179 30.6776091 218 222 230
41.2935897 55.8500481 30.6776091 218 222 230
42.098572 52.837794 30.6776091 218 222 230
43.1864526 49.9157764 30.6776091 218 222 230
44.5473646 47.1104975 30.6776091 218 222 230
46.1689648 44.4474008 30.6776091 218 222 230
48.0365455 41.9506402 30.6776091 218 222 230
50.133168 39.6428608 30.6776091 218 222 230
52.4398162 37.544994 30.6776091 218 222 230
54.9355692 35.6760671 30.6776091 218 222 230
57.5977909 34.0530308 30.6776091 218 222 230
60.4023354 32.690606 30.6776091 218 222 230
63.3237659 31.6011496 30.6776091 218 222 230
66.3355854 30.7945429 30.6776091 218 222 230
69.4104772 30.2781015 30.6776091 218 222 230
72.5205525 30.0565096 30.6776091 218 222 230
73.2896476 30.0474748 29.9085139 218 222 230
73.2669501 30.0474827 30.0939806 218 222 230
73.1987951 30.0476008 30.2711354 218 222 230
73.098812 30.048031 30.4155871 218 222 230
72.9785243 30.0489531 30.5263886 218 222 230
72.8322383 30.0506702 30.6116208 218 222 230
72.6810472 30.053132 30.6606767 218 222 230
73.2896476 16.1882833 39.037384 255 79 163
73.2058213 15.5476758 39.3865459 255 79 163
73.0481781 15.16164 39.5969539 255 79 163
72.8881787 14.9488642 39.712927 255 79 163
72.7956827 14.8706021 39.7555836 255 79 163
72.6890751 14.8115151 39.7877889 255 79 163
72.6053304 14.785823 39.8017923 255 79 163
72.5205525 14.777224 39.8064791 255 79 163
73.2896476 30.0474748 39.037384 255 79 163
72.5205525 30.0565096 39.8064791 255 79 163
72.6958816 30.0528595 39.7862278 255 79 163
72.8591296 30.0503055 39.7279438 255 79 163
73.0012916 30.0487447 39.6377149 255 79 163
73.1167855 30.0479311 39.5231963 255 79 163
73.2033073 30.0475886 39.3914365 255 79 163
73.2601537 30.0474881 39.2483279 255 79 163
73.2822764 30.0474756 39.1436101 255 79 163
72.5205525 27.6113533 19.9032396 218 222 230
20.9629382 27.6113533 19.9032396 218 222 230
20.9629382 14.777224 39.8064791 218 222 230
72.5205525 14.777224 39.8064791 218 222 230
73.2896476 30.0474748 39.037384 218 222 230
73.2896476 30.0474748 30.6776091 218 222 230
73.2896476 16.1882833 39.037384 218 222 230
73.2896476 28.5264798 19.9032396 218 222 230
73.2896476 16.1882833 0.769095179 218 222 230
73.2896476 62.786855 0.769095179 218 222 230
73.2896476 62.786855 29.9085139 218 222 230
73.2896476 30.0474748 29.9085139 218 222 230
73.2896476 30.0474748 29.9085139 218 222 230
73.2896476 62.786855 29.9085139 218 222 230
73.2703648 62.786855 30.0796537 218 222 230
73.2134833 62.786855 30.2422118 218 222 230
73.1218553 62.786855 30.3880369 218 222 230
73.0000755 62.786855 30.5098167 218 222 230
72.8542503 62.786855 30.6014447 218 222 230
72.6916922 62.786855 30.6583262 218 222 230
72.5205525 62.786855 30.6776091 218 222 230
72.5205525 30.0565096 30.6776091 218 222 230
73.2669501 30.0474827 30.0939806 218 222 230
73.1987951 30.0476008 30.2711354 218 222 230
73.098812 30.048031 30.4155871 218 222 230
72.9785243 30.0489531 30.5263886 218 222 230
72.8322383 30.0506702 30.6116208 218 222 230
72.6810472 30.053132 30.6606767 218 222 230
72.5205525 62.786855 30.6776091 218 222 230
40.5502674 62.786855 30.6776091 218 222 230
39.7899997 62.786855 30.6776091 218 222 230
39.9586798 62.7681293 30.6776091 218 222 230
40.1191459 62.7128642 30.6776091 218 222 230
40.2635842 62.6237508 30.6776091 218 222 230
40.3849612 62.5051284 30.6776091 218 222 230
40.4773663 62.3627736 30.6776091 218 222 230
40.5362999 62.2036181 30.6776091 218 222 230
40.5588922 62.0354123 30.6776091 218 222 230
40.7788068 58.9252179 30.6776091 218 222 230
41.2935897 55.8500481 30.6776091 218 222 230
42.098572 52.837794 30.6776091 218 222 230
43.1864526 49.9157764 30.6776091 218 222 230
44.5473646 47.1104975 30.6776091 218 222 230
46.1689648 44.4474008 30.6776091 218 222 230
48.0365455 41.9506402 30.6776091 218 222 230
50.133168 39.6428608 30.6776091 218 222 230
52.4398162 37.544994 30.6776091 218 222 230
54.9355692 35.6760671 30.6776091 218 222 230
57.5977909 34.0530308 30.6776091 218 222 230
60.4023354 32.690606 30.6776091 218 222 230
63.3237659 31.6011496 30.6776091 218 222 230
66.3355854 30.7945429 30.6776091 218 222 230
69.4104772 30.2781015 30.6776091 218 222 230
72.5205525 30.0565096 30.6776091 218 222 230
73.2896476 16.1882833 0.769095179 255 79 163
73.2896476 28.5264798 19.9032396 255 79 163
73.2634414 28.2896277 19.9032396 255 79 163
73.1866084 28.0689166 19.9032396 255 79 163
73.0643849 27.8793876 19.9032396 255 79 163
72.9224036 27.7462062 19.9032396 255 79 163
72.7753828 27.6630468 19.9032396 255 79 163
72.649806 27.6243692 19.9032396 255 79 163
72.5205525 27.6113533 19.9032396 255 79 163
72.5205525 14.777224 -8.32667268e-16 255 79 163
73.2058213 15.5476758 0.419933274 255 79 163
73.0481781 15.16164 0.209525185 255 79 163
72.8881787 14.9488642 0.0935521577 255 79 163
72.7956827 14.8706021 0.0508955322 255 79 163
72.6890751 14.8115151 0.0186902698 255 79 163
72.6053304 14.785823 0.00468684823 255 79 163
73.2896476 28.5264798 19.9032396 255 79 163
73.2896476 16.1882833 39.037384 255 79 163
73.2058213 15.5476758 39.3865459 255 79 163
73.0481781 15.16164 39.5969539 255 79 163
72.8881787 14.9488642 39.712927 255 79 163
72.7956827 14.8706021 39.7555836 255 79 163
72.6890751 14.8115151 39.7877889 255 79 163
72.6053304 14.785823 39.8017923 255 79 163
72.5205525 14.777224 39.8064791 255 79 163
72.5205525 27.6113533 19.9032396 255 79 163
73.2634414 28.2896277 19.9032396 255 79 163
73.1866084 28.0689166 19.9032396 255 79 163
73.0643849 27.8793876 19.9032396 255 79 163
72.9224036 27.7462062 19.9032396 255 79 163
72.7753828 27.6630468 19.9032396 255 79 163
72.649806 27.6243692 19.9032396 255 79 163
3 4 0 1
3 4 2 0
3 4 3 2
3 9 1 5
3 9 10 4
3 9 4 1
3 7 5 6
3 8 9 5
3 8 5 7
3 11 13 12
3 11 14 13
3 22 23 24
3 22 24 30
3 21 29 28
3 21 30 29
3 21 22 30
3 20 21 28
3 19 28 27
3 19 20 28
3 18 27 26
3 18 19 27
3 17 26 25
3 17 18 26
3 16 25 15
3 16 17 25
3 48 47 33
3 56 48 33
3 55 56 33
3 54 55 33
3 53 54 33
3 52 53 33
3 34 33 47
3 46 34 47
3 45 34 46
3 44 34 45
3 35 37 38
3 35 39 37
3 35 40 39
3 35 41 40
3 35 42 41
3 35 43 42
3 35 44 43
3 35 38 49
3 35 49 50
3 35 34 44
3 31 50 51
3 31 51 52
3 31 52 33
3 31 35 50
3 32 36 35
3 32 35 31
3 97 59 96
3 105 59 97
3 104 59 105
3 103 59 104
3 102 59 103
3 101 59 102
3 60 96 59
3 95 96 60
3 94 95 60
3 93 94 60
3 61 87 86
3 61 86 88
3 61 88 89
3 61 89 90
3 61 90 91
3 61 91 92
3 61 92 93
3 61 98 87
3 61 99 98
3 61 93 60
3 57 100 99
3 57 101 100
3 57 59 101
3 57 99 61
3 73 72 61
3 71 61 72
3 74 73 61
3 70 61 71
3 75 61 62
3 75 74 61
3 69 61 70
3 76 75 62
3 68 57 61
3 68 61 69
3 77 76 62
3 67 57 68
3 78 77 62
3 66 57 67
3 79 78 62
3 65 57 66
3 58 57 65
3 63 79 62
3 64 58 65
3 81 80 58
3 84 64 85
3 82 81 58
3 83 58 64
3 83 64 84
3 83 82 58
3 118 115 116
3 108 118 119
3 108 115 118
3 110 109 108
3 113 112 111
3 114 111 110
3 114 113 111
3 106 110 108
3 106 114 110
3 117 118 116
3 120 107 106
3 120 108 119
3 120 106 108
3 126 107 120
3 123 121 107
3 123 122 121
3 124 126 125
3 124 123 107
3 124 107 126
3 136 137 138
3 129 127 128
3 129 138 127
3 129 136 138
3 131 130 129
3 132 131 129
3 133 135 134
3 133 128 135
3 133 129 128
3 133 132 129
3 146 147 148
3 146 148 149
3 145 146 149
3 144 149 150
3 144 145 149
3 143 150 151
3 143 144 150
3 142 151 152
3 142 143 151
3 141 152 153
3 141 153 154
3 141 142 152
3 140 154 139
3 140 141 154
3 158 156 155
3 158 157 156
3 160 161 159
3 160 162 161
3 174 164 163
3 174 163 173
3 175 165 164
3 175 166 165
3 175 164 174
3 176 166 175
3 177 167 166
3 177 168 167
3 177 166 176
3 178 168 177
3 179 169 168
3 179 168 178
3 180 170 169
3 180 171 170
3 180 169 179
3 172 171 180
3 190 192 191
3 190 200 192
3 189 198 199
3 189 199 200
3 189 200 190
3 188 197 198
3 188 198 189
3 187 197 188
3 186 196 197
3 186 197 187
3 185 195 196
3 185 196 186
3 184 194 195
3 184 195 185
3 183 181 193
3 183 193 194
3 183 194 184
3 182 181 183
3 202 203 201
3 202 204 203
3 205 208 207
3 206 208 205
3 219 209 210
3 219 218 209
3 220 210 211
3 220 219 210
3 221 211 212
3 221 220 211
3 222 212 213
3 222 221 212
3 223 213 214
3 223 222 213
3 224 214 215
3 224 215 216
3 224 223 214
3 217 224 216
3 236 251 235
3 236 252 251
3 237 253 252
3 237 254 253
3 237 252 236
3 238 254 237
3 239 255 254
3 239 256 255
3 239 254 238
3 240 256 239
3 241 257 256
3 241 256 240
3 242 258 257
3 242 257 241
3 243 259 258
3 243 258 242
3 244 260 259
3 244 259 243
3 245 261 260
3 245 262 261
3 245 260 244
3 246 263 262
3 246 262 245
3 247 263 246
3 247 264 263
3 248 264 247
3 249 264 248
3 249 265 264
3 226 268 269
3 226 269 270
3 226 270 271
3 226 271 272
3 226 272 273
3 226 273 274
3 250 265 249
3 250 266 265
3 250 267 266
3 227 267 250
3 225 227 228
3 225 228 229
3 225 229 230
3 225 226 274
3 225 267 227
3 225 274 267
3 231 225 230
3 233 234 225
3 232 233 225
3 232 225 231
3 284 282 281
3 285 280 279
3 285 281 280
3 285 284 281
3 286 279 278
3 286 285 279
3 287 278 277
3 287 286 278
3 288 277 276
3 288 287 277
3 289 288 276
3 290 276 275
3 290 289 276
3 291 290 275
3 283 291 275
3 295 293 292
3 295 294 293
3 299 300 301
3 299 301 302
3 303 299 302
3 298 297 296
3 298 303 297
3 298 299 303
3 312 313 319
3 311 319 318
3 311 312 319
3 310 318 317
3 310 311 318
3 309 317 316
3 309 310 317
3 308 316 315
3 308 309 316
3 307 315 314
3 307 308 315
3 306 314 304
3 306 307 314
3 305 306 304
3 321 322 323
3 321 323 324
3 321 324 325
3 321 325 326
3 321 326 327
3 321 327 328
3 321 328 329
3 320 329 330
3 320 330 331
3 320 331 332
3 320 332 333
3 320 333 334
3 320 334 335
3 320 335 336
3 320 336 337
3 320 337 338
3 320 338 339
3 320 339 340
3 320 340 341
3 320 341 342
3 320 342 343
3 320 343 344
3 320 344 345
3 320 321 329
3 354 355 361
3 353 361 360
3 353 354 361
3 352 359 358
3 352 360 359
3 352 353 360
3 351 358 357
3 351 352 358
3 350 351 357
3 349 357 356
3 349 350 357
3 348 356 346
3 348 349 356
3 347 348 346
3 369 370 371
3 369 371 377
3 368 377 376
3 368 369 377
3 367 368 376
3 366 376 375
3 366 367 376
3 365 374 373
3 365 375 374
3 365 366 375
3 364 373 372
3 364 365 373
3 363 372 362
3 363 364 372
