ply
format ascii 1.0
comment generated by blendit.inference.finetune_visualize
element vertex 735
property float x
property float y
property float z
property uchar red
property uchar green
property uchar blue
element face 763
property list uchar int vertex_indices
end_header
-4.4408921e-16 1.86806307 91.5235805 218 222 230
0 63.5385824 91.5235805 218 222 230
-4.4408921e-16 1.86806307 0 218 222 230
-4.4408921e-16 63.5385824 0 218 222 230
-4.4408921e-16 63.5385824 72.6576292 218 222 230
2.3441323e-16 44.3542917 72.6576292 218 222 230
0 44.3542917 81.3141461 218 222 230
0 44.3542917 82.8671904 218 222 230
0 65.4066455 82.8671904 218 222 230
0 65.4066455 89.6555174 218 222 230
0 63.9542655 91.4767443 218 222 230
0 64.3491046 91.3385841 218 222 230
0 64.7033007 91.116028 218 222 230
0 64.9990929 90.8202357 218 222 230
0 65.2216491 90.4660396 218 222 230
0 65.3598092 90.0712006 218 222 230
-4.4408921e-16 1.86806307 91.5235805 218 222 230
0 63.5385824 91.5235805 218 222 230
66.9386914 1.86806307 91.5235805 218 222 230
66.9386914 63.5385824 91.5235805 218 222 230
-4.4408921e-16 1.86806307 0 255 79 163
0.0282129681 1.54462647 0.0282129681 255 79 163
0.111999683 1.23095946 0.111999683 255 79 163
0.248829318 0.936536535 0.248829318 255 79 163
0.434568855 0.670250913 0.434568855 255 79 163
0.663607922 0.440145907 0.663607922 255 79 163
0.92902826 0.253171973 0.92902826 255 79 163
1.32552985 0.0805180123 1.32552985 255 79 163
1.59382529 0.0202391415 1.59382529 255 79 163
1.86806307 -4.4408921e-16 1.86806307 255 79 163
1.86806307 -4.4408921e-16 89.6555174 255 79 163
-4.4408921e-16 1.86806307 91.5235805 255 79 163
0.0282129681 1.54462647 91.4953676 255 79 163
0.111999683 1.23095946 91.4115808 255 79 163
0.248829318 0.936536535 91.2747512 255 79 163
0.434568855 0.670250913 91.0890117 255 79 163
0.663607922 0.440145907 90.8599726 255 79 163
0.92902826 0.253171973 90.5945523 255 79 163
1.32552985 0.0805180123 90.1980507 255 79 163
1.59382529 0.0202391415 89.9297552 255 79 163
0 63.5385824 91.5235805 218 222 230
66.9386914 63.5385824 91.5235805 218 222 230
66.9386914 63.9542655 91.4767443 218 222 230
66.9386914 64.3491046 91.3385841 218 222 230
66.9386914 64.7033007 91.116028 218 222 230
66.9386914 64.9990929 90.8202357 218 222 230
66.9386914 65.2216491 90.4660396 218 222 230
66.9386914 65.3598092 90.0712006 218 222 230
66.9386914 65.4066455 89.6555174 218 222 230
0 65.4066455 89.6555174 218 222 230
0 63.9542655 91.4767443 218 222 230
0 64.3491046 91.3385841 218 222 230
0 64.7033007 91.116028 218 222 230
0 64.9990929 90.8202357 218 222 230
0 65.2216491 90.4660396 218 222 230
0 65.3598092 90.0712006 218 222 230
1.86806307 65.4066455 0 218 222 230
21.4878047 65.4066455 0 218 222 230
-4.4408921e-16 63.5385824 0 218 222 230
0.0468362414 63.9542655 0 218 222 230
0.184996401 64.3491046 0 218 222 230
0.407552551 64.7033007 0 218 222 230
0.703344798 64.9990929 0 218 222 230
1.05754088 65.2216491 0 218 222 230
1.45237993 65.3598092 0 218 222 230
-4.4408921e-16 1.86806307 0 218 222 230
21.6764025 1.86806307 0 218 222 230
21.6764025 65.3971973 0 218 222 230
21.6293576 65.4013289 0 218 222 230
21.5822231 65.4042819 0 218 222 230
21.5350288 65.4060545 0 218 222 230
32.642667 65.4066455 73.2945166 218 222 230
32.5416308 65.4066455 72.8492491 218 222 230
32.3355972 65.4066455 72.4417916 218 222 230
32.0368747 65.4066455 72.0964855 218 222 230
31.6633089 65.4066455 71.8339593 218 222 230
31.2372165 65.4066455 71.6698963 218 222 230
30.7840521 65.4066455 71.6140975 218 222 230
30.3308878 65.4066455 71.6698963 218 222 230
29.9047954 65.4066455 71.8339593 218 222 230
29.5312295 65.4066455 72.0964855 218 222 230
29.232507 65.4066455 72.4417916 218 222 230
29.0264734 65.4066455 72.8492491 218 222 230
28.9254372 65.4066455 73.2945166 218 222 230
21.4878047 65.4066455 0 218 222 230
1.86806307 65.4066455 0 218 222 230
1.86806307 65.4066455 73.1443456 218 222 230
3.82825847 65.4066455 76.4858877 218 222 230
3.74238436 65.4066455 75.6795861 218 222 230
3.4886146 65.4066455 74.9094578 218 222 230
3.07833415 65.4066455 74.2100534 218 222 230
2.52994953 65.4066455 73.6127503 218 222 230
3.82825847 65.4066455 77.4858877 218 222 230
1.25544674 65.4066455 81.1024353 218 222 230
2.10264604 65.4066455 80.6850192 218 222 230
2.82187181 65.4066455 80.0728941 218 222 230
3.36934975 65.4066455 79.3033159 218 222 230
3.71175866 65.4066455 78.4231233 218 222 230
0 65.4066455 82.8671904 218 222 230
0.0568480435 65.4066455 82.4098506 218 222 230
0.223932227 65.4066455 81.9803458 218 222 230
0.49108329 65.4066455 81.6048172 218 222 230
0.842041595 65.4066455 81.3061204 218 222 230
0 65.4066455 89.6555174 218 222 230
66.9386914 65.4066455 89.6555174 218 222 230
66.9386914 65.4066455 0 218 222 230
40.0802995 65.4066455 0 218 222 230
39.5515392 65.4066455 26.5524133 218 222 230
43.0629354 65.4066455 24.4335285 218 222 230
39.5074587 65.4066455 22.3172793 218 222 230
-4.4408921e-16 63.5385824 0 218 222 230
-4.4408921e-16 63.5385824 72.6576292 218 222 230
0.0400148788 63.9231594 72.6578383 218 222 230
0.161127806 64.2975499 72.6610216 218 222 230
0.365979923 64.6491704 72.6751631 218 222 230
0.656946456 64.9608539 72.7144179 218 222 230
0.988038667 65.1863738 72.7873281 218 222 230
1.32608226 65.326295 72.8946388 218 222 230
1.59990711 65.3872987 73.0079774 218 222 230
1.86806307 65.4066455 73.1443456 218 222 230
1.86806307 65.4066455 0 218 222 230
0.0468362414 63.9542655 0 218 222 230
0.184996401 64.3491046 0 218 222 230
0.407552551 64.7033007 0 218 222 230
0.703344798 64.9990929 0 218 222 230
1.05754088 65.2216491 0 218 222 230
1.45237993 65.3598092 0 218 222 230
0 65.4066455 82.8671904 218 222 230
0.0568480435 65.4066455 82.4098506 218 222 230
0.223932227 65.4066455 81.9803458 218 222 230
0.49108329 65.4066455 81.6048172 218 222 230
0.842041595 65.4066455 81.3061204 218 222 230
1.25544674 65.4066455 81.1024353 218 222 230
1.25544674 44.3542917 81.1024353 218 222 230
0 44.3542917 82.8671904 218 222 230
0.0568480435 44.3542917 82.4098506 218 222 230
0.223932227 44.3542917 81.9803458 218 222 230
0.49108329 44.3542917 81.6048172 218 222 230
0.842041595 44.3542917 81.3061204 218 222 230
-4.4408921e-16 63.5385824 72.6576292 218 222 230
2.3441323e-16 44.3542917 72.6576292 218 222 230
0.0400148788 63.9231594 72.6578383 218 222 230
0.161127806 64.2975499 72.6610216 218 222 230
0.365979923 64.6491704 72.6751631 218 222 230
0.656946456 64.9608539 72.7144179 218 222 230
0.988038667 65.1863738 72.7873281 218 222 230
1.32608226 65.326295 72.8946388 218 222 230
1.59990711 65.3872987 73.0079774 218 222 230
1.86806307 65.4066455 73.1443456 218 222 230
3.82825847 65.4066455 76.4858877 218 222 230
3.74238436 65.4066455 75.6795861 218 222 230
3.4886146 65.4066455 74.9094578 218 222 230
3.07833415 65.4066455 74.2100534 218 222 230
2.52994953 65.4066455 73.6127503 218 222 230
3.82825847 44.3542917 76.4858877 218 222 230
3.73227604 44.3542917 75.63402 218 222 230
3.4491417 44.3542917 74.8248686 218 222 230
2.993053 44.3542917 74.0990076 218 222 230
2.38688012 44.3542917 73.4928347 218 222 230
1.6610191 44.3542917 73.036746 218 222 230
0.851867651 44.3542917 72.7536116 218 222 230
1.25544674 44.3542917 81.1024353 218 222 230
2.10264604 44.3542917 80.6850192 218 222 230
2.82187181 44.3542917 80.0728941 218 222 230
3.36934975 44.3542917 79.3033159 218 222 230
3.71175866 44.3542917 78.4231233 218 222 230
3.82825847 44.3542917 77.4858877 218 222 230
3.82825847 44.3542917 76.4858877 218 222 230
3.73227604 44.3542917 75.63402 218 222 230
3.4491417 44.3542917 74.8248686 218 222 230
2.993053 44.3542917 74.0990076 218 222 230
2.38688012 44.3542917 73.4928347 218 222 230
1.6610191 44.3542917 73.036746 218 222 230
0.851867651 44.3542917 72.7536116 218 222 230
2.3441323e-16 44.3542917 72.6576292 218 222 230
0 44.3542917 81.3141461 218 222 230
0 44.3542917 82.8671904 218 222 230
0.0568480435 44.3542917 82.4098506 218 222 230
0.223932227 44.3542917 81.9803458 218 222 230
0.49108329 44.3542917 81.6048172 218 222 230
0.842041595 44.3542917 81.3061204 218 222 230
-4.4408921e-16 1.86806307 91.5235805 255 79 163
0.0282129681 1.54462647 91.4953676 255 79 163
0.111999683 1.23095946 91.4115808 255 79 163
0.248829318 0.936536535 91.2747512 255 79 163
0.434568855 0.670250913 91.0890117 255 79 163
0.663607922 0.440145907 90.8599726 255 79 163
0.92902826 0.253171973 90.5945523 255 79 163
1.32552985 0.0805180123 90.1980507 255 79 163
1.59382529 0.0202391415 89.9297552 255 79 163
1.86806307 -4.4408921e-16 89.6555174 255 79 163
66.9386914 -4.4408921e-16 89.6555174 255 79 163
66.9386914 1.86806307 91.5235805 255 79 163
66.9386914 1.45237993 91.4767443 255 79 163
66.9386914 1.05754088 91.3385841 255 79 163
66.9386914 0.703344798 91.116028 255 79 163
66.9386914 0.407552551 90.8202357 255 79 163
66.9386914 0.184996401 90.4660396 255 79 163
66.9386914 0.0468362414 90.0712006 255 79 163
66.9386914 -4.4408921e-16 1.86806307 218 222 230
66.9386914 -4.4408921e-16 89.6555174 218 222 230
66.9386914 0.0468362414 1.45237993 218 222 230
66.9386914 0.184996401 1.05754088 218 222 230
66.9386914 0.407552551 0.703344798 218 222 230
66.9386914 0.703344798 0.407552551 218 222 230
66.9386914 1.05754088 0.184996401 218 222 230
66.9386914 1.45237993 0.0468362414 218 222 230
66.9386914 1.86806307 -4.4408921e-16 218 222 230
66.9386914 65.4066455 0 218 222 230
66.9386914 65.4066455 89.6555174 218 222 230
66.9386914 63.5385824 91.5235805 218 222 230
66.9386914 63.9542655 91.4767443 218 222 230
66.9386914 64.3491046 91.3385841 218 222 230
66.9386914 64.7033007 91.116028 218 222 230
66.9386914 64.9990929 90.8202357 218 222 230
66.9386914 65.2216491 90.4660396 218 222 230
66.9386914 65.3598092 90.0712006 218 222 230
66.9386914 1.86806307 91.5235805 218 222 230
66.9386914 1.45237993 91.4767443 218 222 230
66.9386914 1.05754088 91.3385841 218 222 230
66.9386914 0.703344798 91.116028 218 222 230
66.9386914 0.407552551 90.8202357 218 222 230
66.9386914 0.184996401 90.4660396 218 222 230
66.9386914 0.0468362414 90.0712006 218 222 230
23.5350175 0.0094481627 1.6804191 255 79 163
23.5397431 0.00531655378 1.72722611 255 79 163
23.5444776 0.00236353589 1.77412223 255 79 163
23.5492182 0.000590977452 1.82107779 255 79 163
23.5539618 -4.4408921e-16 1.86806307 255 79 163
1.86806307 -4.4408921e-16 1.86806307 255 79 163
-4.4408921e-16 1.86806307 0 255 79 163
0.0282129681 1.54462647 0.0282129681 255 79 163
0.111999683 1.23095946 0.111999683 255 79 163
0.248829318 0.936536535 0.248829318 255 79 163
0.434568855 0.670250913 0.434568855 255 79 163
0.663607922 0.440145907 0.663607922 255 79 163
0.92902826 0.253171973 0.92902826 255 79 163
1.32552985 0.0805180123 1.32552985 255 79 163
1.59382529 0.0202391415 1.59382529 255 79 163
21.6764025 1.86806307 0 255 79 163
22.2909989 1.25346668 0.103996486 255 79 163
22.7874536 0.757011989 0.366322373 255 79 163
23.1178124 0.426653249 0.67978812 255 79 163
23.3423497 0.20211595 1.0229123 255 79 163
23.4690858 0.0753798382 1.34275701 255 79 163
23.5098415 0.0346241024 1.510067 255 79 163
30.7840521 0 73.4821605 218 222 230
23.5539618 -4.4408921e-16 1.86806307 218 222 230
1.86806307 -4.4408921e-16 1.86806307 218 222 230
1.86806307 -4.4408921e-16 89.6555174 218 222 230
66.9386914 -4.4408921e-16 89.6555174 218 222 230
66.9386914 -4.4408921e-16 1.86806307 218 222 230
39.8917017 0 1.86806307 218 222 230
35.13155 -4.4408921e-16 49.0174003 218 222 230
35.143101 0 49.0170665 218 222 230
35.1546551 0 49.0168662 218 222 230
35.1662107 0 49.0167994 218 222 230
35.405127 0 49.0457593 218 222 230
35.6302054 0 49.1309615 218 222 230
35.8284094 0 49.2674712 218 222 230
35.988259 0 49.4473817 218 222 230
36.1004958 0 49.6602728 218 222 230
36.1586191 0 49.8938137 218 222 230
36.1592624 0 50.134478 218 222 230
36.1023884 0 50.3683264 218 222 230
35.9912913 0 50.5818144 218 222 230
35.8324058 0 50.7625769 218 222 230
35.6349344 0 50.9001442 218 222 230
35.4103147 0 50.9865485 218 222 230
35.1715566 0 51.0167851 218 222 230
34.9324888 0 50.9891029 218 222 230
31.7228317 -4.4408921e-16 82.7807797 218 222 230
39.5074587 0 22.3172793 218 222 230
43.0629354 0 24.4335285 218 222 230
39.5515392 0 26.5524133 218 222 230
32.642667 65.4066455 73.2945166 255 79 163
32.2290863 65.3598092 73.3362713 255 79 163
31.8362442 65.2216491 73.3759322 255 79 163
31.4838396 64.9990929 73.4115107 255 79 163
31.1895434 64.7033007 73.4412225 255 79 163
30.9681129 64.3491046 73.463578 255 79 163
30.8306515 63.9542655 73.4774559 255 79 163
30.7840521 63.5385824 73.4821605 255 79 163
23.5350175 63.5385824 1.6804191 255 79 163
23.3698117 64.1531788 1.07937746 255 79 163
23.0589445 64.6496335 0.611783917 255 79 163
22.7138802 64.9799922 0.314583181 255 79 163
22.349937 65.2045295 0.12564781 255 79 163
22.0189796 65.3312656 0.031680589 255 79 163
21.8484219 65.3720213 0.0079370086 255 79 163
21.6764025 65.3971973 0 255 79 163
21.6293576 65.4013289 0 255 79 163
21.5822231 65.4042819 0 255 79 163
21.5350288 65.4060545 0 255 79 163
21.4878047 65.4066455 0 255 79 163
21.6764025 1.86806307 0 255 79 163
21.6764025 65.3971973 0 255 79 163
23.5350175 63.5385824 1.6804191 255 79 163
23.3698117 64.1531788 1.07937746 255 79 163
23.0589445 64.6496335 0.611783917 255 79 163
22.7138802 64.9799922 0.314583181 255 79 163
22.349937 65.2045295 0.12564781 255 79 163
22.0189796 65.3312656 0.031680589 255 79 163
21.8484219 65.3720213 0.0079370086 255 79 163
23.5350175 0.0094481627 1.6804191 255 79 163
22.2909989 1.25346668 0.103996486 255 79 163
22.7874536 0.757011989 0.366322373 255 79 163
23.1178124 0.426653249 0.67978812 255 79 163
23.3423497 0.20211595 1.0229123 255 79 163
23.4690858 0.0753798382 1.34275701 255 79 163
23.5098415 0.0346241024 1.510067 255 79 163
30.7840521 63.5385824 73.4821605 255 79 163
30.7840521 63.5385824 73.4821605 255 79 163
32.642667 65.4066455 73.2945166 255 79 163
32.2290863 65.3598092 73.3362713 255 79 163
31.8362442 65.2216491 73.3759322 255 79 163
31.4838396 64.9990929 73.4115107 255 79 163
31.1895434 64.7033007 73.4412225 255 79 163
30.9681129 64.3491046 73.463578 255 79 163
30.8306515 63.9542655 73.4774559 255 79 163
32.5416308 65.4066455 72.8492491 255 79 163
32.3355972 65.4066455 72.4417916 255 79 163
32.0368747 65.4066455 72.0964855 255 79 163
31.6633089 65.4066455 71.8339593 255 79 163
31.2372165 65.4066455 71.6698963 255 79 163
30.7840521 65.4066455 71.6140975 255 79 163
30.3308878 65.4066455 71.6698963 255 79 163
29.9047954 65.4066455 71.8339593 255 79 163
29.5312295 65.4066455 72.0964855 255 79 163
29.232507 65.4066455 72.4417916 255 79 163
29.0264734 65.4066455 72.8492491 255 79 163
28.9254372 65.4066455 73.2945166 255 79 163
29.3390179 65.3598092 73.3362713 255 79 163
29.73186 65.2216491 73.3759322 255 79 163
30.0842646 64.9990929 73.4115107 255 79 163
30.3785609 64.7033007 73.4412225 255 79 163
30.5999914 64.3491046 73.463578 255 79 163
30.7374528 63.9542655 73.4774559 255 79 163
32.1505327 65.3598092 72.9900852 255 79 163
31.9903459 65.3598092 72.6732955 255 79 163
31.7580955 65.3598092 72.4048272 255 79 163
31.779046 65.2216491 73.1238591 255 79 163
31.4676558 65.3598092 72.2007186 255 79 163
31.662407 65.2216491 72.8931908 255 79 163
31.1363779 65.3598092 72.073163 255 79 163
31.4932954 65.2216491 72.6977074 255 79 163
31.4457984 64.9990929 73.2438629 255 79 163
30.7840521 65.3598092 72.0297806 255 79 163
31.2818137 65.2216491 72.549087 255 79 163
31.3682247 64.9990929 73.090451 255 79 163
30.4317263 65.3598092 72.073163 255 79 163
31.0405958 65.2216491 72.4562083 255 79 163
31.2557526 64.9990929 72.9604398 255 79 163
31.1675004 64.7033007 73.3440792 255 79 163
30.1004484 65.3598092 72.2007186 255 79 163
30.7840521 65.2216491 72.4246197 255 79 163
31.1151013 64.9990929 72.861596 255 79 163
31.1225504 64.7033007 73.2551848 255 79 163
29.8100088 65.3598092 72.4048272 255 79 163
30.5275084 65.2216491 72.4562083 255 79 163
30.9546731 64.9990929 72.7998246 255 79 163
31.0573786 64.7033007 73.1798499 255 79 163
30.9581071 64.3491046 73.4194826 255 79 163
29.5777583 65.3598092 72.6732955 255 79 163
30.2862906 65.2216491 72.549087 255 79 163
30.7840521 64.9990929 72.7788157 255 79 163
30.9758783 64.7033007 73.1225749 255 79 163
30.9377034 64.3491046 73.3791316 255 79 163
29.4175715 65.3598092 72.9900852 255 79 163
30.0748089 65.2216491 72.6977074 255 79 163
30.6134311 64.9990929 72.7998246 255 79 163
30.8829183 64.7033007 73.0867815 255 79 163
30.9081206 64.3491046 73.3449356 255 79 163
30.8281183 63.9542655 73.4662921 255 79 163
29.9056972 65.2216491 72.8931908 255 79 163
30.453003 64.9990929 72.861596 255 79 163
30.7840521 64.7033007 73.074608 255 79 163
30.8711259 64.3491046 73.3189373 255 79 163
30.8229526 63.9542655 73.4560763 255 79 163
29.7890583 65.2216491 73.1238591 255 79 163
30.3123516 64.9990929 72.9604398 255 79 163
30.6851859 64.7033007 73.0867815 255 79 163
30.8289295 64.3491046 73.30269 255 79 163
30.815463 63.9542655 73.4474188 255 79 163
30.1998796 64.9990929 73.090451 255 79 163
30.592226 64.7033007 73.1225749 255 79 163
30.7840521 64.3491046 73.2971641 255 79 163
30.8060969 63.9542655 73.4408367 255 79 163
30.1223058 64.9990929 73.2438629 255 79 163
30.5107257 64.7033007 73.1798499 255 79 163
30.7391747 64.3491046 73.30269 255 79 163
30.7954139 63.9542655 73.4367233 255 79 163
30.4455538 64.7033007 73.2551848 255 79 163
30.6969783 64.3491046 73.3189373 255 79 163
30.7840521 63.9542655 73.4353243 255 79 163
30.4006038 64.7033007 73.3440792 255 79 163
30.6599837 64.3491046 73.3449356 255 79 163
30.7726903 63.9542655 73.4367233 255 79 163
30.6304008 64.3491046 73.3791316 255 79 163
30.7620073 63.9542655 73.4408367 255 79 163
30.6099971 64.3491046 73.4194826 255 79 163
30.7526412 63.9542655 73.4474188 255 79 163
30.7451516 63.9542655 73.4560763 255 79 163
30.7399859 63.9542655 73.4662921 255 79 163
3.82825847 65.4066455 77.4858877 218 222 230
3.82825847 44.3542917 77.4858877 218 222 230
3.82825847 44.3542917 76.4858877 218 222 230
3.82825847 65.4066455 76.4858877 218 222 230
28.9254372 65.4066455 73.2945166 255 79 163
40.0802995 65.4066455 0 255 79 163
39.8917017 65.3971973 0 255 79 163
39.9387466 65.4013289 0 255 79 163
39.9858811 65.4042819 0 255 79 163
40.0330754 65.4060545 0 255 79 163
38.0330868 63.5385824 1.6804191 255 79 163
38.1982925 64.1531788 1.07937746 255 79 163
38.5091597 64.6496335 0.611783917 255 79 163
38.854224 64.9799922 0.314583181 255 79 163
39.2181672 65.2045295 0.12564781 255 79 163
39.5491247 65.3312656 0.031680589 255 79 163
39.7196823 65.3720213 0.0079370086 255 79 163
30.7840521 63.5385824 73.4821605 255 79 163
29.3390179 65.3598092 73.3362713 255 79 163
29.73186 65.2216491 73.3759322 255 79 163
30.0842646 64.9990929 73.4115107 255 79 163
30.3785609 64.7033007 73.4412225 255 79 163
30.5999914 64.3491046 73.463578 255 79 163
30.7374528 63.9542655 73.4774559 255 79 163
1.25544674 65.4066455 81.1024353 218 222 230
2.10264604 65.4066455 80.6850192 218 222 230
2.82187181 65.4066455 80.0728941 218 222 230
3.36934975 65.4066455 79.3033159 218 222 230
3.71175866 65.4066455 78.4231233 218 222 230
3.82825847 65.4066455 77.4858877 218 222 230
1.25544674 44.3542917 81.1024353 218 222 230
2.10264604 44.3542917 80.6850192 218 222 230
2.82187181 44.3542917 80.0728941 218 222 230
3.36934975 44.3542917 79.3033159 218 222 230
3.71175866 44.3542917 78.4231233 218 222 230
3.82825847 44.3542917 77.4858877 218 222 230
40.0802995 65.4066455 0 218 222 230
66.9386914 65.4066455 0 218 222 230
39.8917017 65.3971973 0 218 222 230
39.9387466 65.4013289 0 218 222 230
39.9858811 65.4042819 0 218 222 230
40.0330754 65.4060545 0 218 222 230
39.8917017 1.86806307 0 218 222 230
66.9386914 1.86806307 -4.4408921e-16 218 222 230
43.0629354 0 24.4335285 218 222 230
39.5515392 0 26.5524133 218 222 230
43.0629354 65.4066455 24.4335285 218 222 230
39.5515392 65.4066455 26.5524133 218 222 230
39.5074587 0 22.3172793 218 222 230
43.0629354 0 24.4335285 218 222 230
39.5074587 65.4066455 22.3172793 218 222 230
43.0629354 65.4066455 24.4335285 218 222 230
39.5515392 0 26.5524133 218 222 230
39.5074587 0 22.3172793 218 222 230
39.5515392 65.4066455 26.5524133 218 222 230
39.5074587 65.4066455 22.3172793 218 222 230
39.8917017 0 1.86806307 255 79 163
39.8917017 0.0468362414 1.45237993 255 79 163
39.8917017 0.184996401 1.05754088 255 79 163
39.8917017 0.407552551 0.703344798 255 79 163
39.8917017 0.703344798 0.407552551 255 79 163
39.8917017 1.05754088 0.184996401 255 79 163
39.8917017 1.45237993 0.0468362414 255 79 163
39.8917017 1.86806307 0 255 79 163
66.9386914 1.86806307 -4.4408921e-16 255 79 163
66.9386914 -4.4408921e-16 1.86806307 255 79 163
66.9386914 0.0468362414 1.45237993 255 79 163
66.9386914 0.184996401 1.05754088 255 79 163
66.9386914 0.407552551 0.703344798 255 79 163
66.9386914 0.703344798 0.407552551 255 79 163
66.9386914 1.05754088 0.184996401 255 79 163
66.9386914 1.45237993 0.0468362414 255 79 163
30.7840521 0 73.4821605 218 222 230
23.5539618 -4.4408921e-16 1.86806307 218 222 230
31.7228317 -4.4408921e-16 82.7807797 218 222 230
31.3811709 0.128108378 79.3966264 218 222 230
31.086371 0.49486263 76.4766313 218 222 230
30.9006712 0.966315475 74.6372734 218 222 230
30.8427405 1.21792586 74.0634698 218 222 230
30.8119159 1.41631344 73.7581512 218 222 230
30.7961683 1.56890427 73.6021714 218 222 230
30.788582 1.6847712 73.527029 218 222 230
30.7852899 1.77216692 73.4944207 218 222 230
30.7843616 1.82009918 73.4852261 218 222 230
30.7840521 1.86806307 73.4821605 218 222 230
30.7840521 63.5385824 73.4821605 218 222 230
23.5350175 63.5385824 1.6804191 218 222 230
23.5350175 0.0094481627 1.6804191 218 222 230
23.5397431 0.00531655378 1.72722611 218 222 230
23.5444776 0.00236353589 1.77412223 218 222 230
23.5492182 0.000590977452 1.82107779 218 222 230
34.9324888 0 50.9891029 255 79 163
31.7228317 -4.4408921e-16 82.7807797 255 79 163
31.3811709 0.128108378 79.3966264 255 79 163
31.086371 0.49486263 76.4766313 255 79 163
30.9006712 0.966315475 74.6372734 255 79 163
30.8427405 1.21792586 74.0634698 255 79 163
30.8119159 1.41631344 73.7581512 255 79 163
30.7961683 1.56890427 73.6021714 255 79 163
30.788582 1.6847712 73.527029 255 79 163
30.7852899 1.77216692 73.4944207 255 79 163
30.7843616 1.82009918 73.4852261 255 79 163
30.7840521 1.86806307 73.4821605 255 79 163
33.0738739 1.86806307 50.8014589 255 79 163
34.5352819 0.0431580988 50.9490013 255 79 163
34.13212 0.182079686 50.9082985 255 79 163
33.7574559 0.420691597 50.8704727 255 79 163
33.4464527 0.746079232 50.8390741 255 79 163
33.2251083 1.12995871 50.8167274 255 79 163
33.1097773 1.50265987 50.8050837 255 79 163
35.1662107 0 49.0167994 218 222 230
35.405127 0 49.0457593 218 222 230
35.6302054 0 49.1309615 218 222 230
35.8284094 0 49.2674712 218 222 230
35.988259 0 49.4473817 218 222 230
36.1004958 0 49.6602728 218 222 230
36.1586191 0 49.8938137 218 222 230
36.1592624 0 50.134478 218 222 230
36.1023884 0 50.3683264 218 222 230
35.9912913 0 50.5818144 218 222 230
35.8324058 0 50.7625769 218 222 230
35.6349344 0 50.9001442 218 222 230
35.4103147 0 50.9865485 218 222 230
35.1715566 0 51.0167851 218 222 230
34.9324888 0 50.9891029 218 222 230
35.1662107 59.1625978 49.0167994 218 222 230
35.4055263 59.1625978 49.0458576 218 222 230
35.6309338 59.1625978 49.1313434 218 222 230
35.8293333 59.1625978 49.2682887 218 222 230
35.9891945 59.1625978 49.4487347 218 222 230
36.1012269 59.1625978 49.6621945 218 222 230
36.1589196 59.1625978 49.8962627 218 222 230
36.1589196 59.1625978 50.1373361 218 222 230
36.1012269 59.1625978 50.3714043 218 222 230
35.9891945 59.1625978 50.5848642 218 222 230
35.8293333 59.1625978 50.7653102 218 222 230
35.6309338 59.1625978 50.9022554 218 222 230
35.4055263 59.1625978 50.9877412 218 222 230
35.1662107 59.1625978 51.0167994 218 222 230
34.926895 59.1625978 50.9877412 218 222 230
34.7014875 59.1625978 50.9022554 218 222 230
34.503088 59.1625978 50.7653102 218 222 230
34.3432268 59.1625978 50.5848642 218 222 230
34.2311944 59.1625978 50.3714043 218 222 230
34.1735018 59.1625978 50.1373361 218 222 230
34.1735018 59.1625978 49.8962627 218 222 230
34.2311944 59.1625978 49.6621945 218 222 230
34.3432268 59.1625978 49.4487347 218 222 230
34.503088 59.1625978 49.2682887 218 222 230
34.7014875 59.1625978 49.1313434 218 222 230
34.926895 59.1625978 49.0458576 218 222 230
35.1662107 59.1625978 49.0167994 218 222 230
35.1662107 0 49.0167994 218 222 230
35.13155 -4.4408921e-16 49.0174003 218 222 230
35.143101 0 49.0170665 218 222 230
35.1546551 0 49.0168662 218 222 230
34.8904085 -3.39750439e-15 49.055585 218 222 230
34.7564783 2.07425604e-15 49.1045937 218 222 230
34.6266399 -7.3936052e-17 49.1748588 218 222 230
34.5155391 -7.24307905e-18 49.2574374 218 222 230
34.4026194 -5.93930497e-17 49.3710974 218 222 230
34.3087094 -1.21752078e-16 49.5023091 218 222 230
34.2414683 -3.03437477e-17 49.6362133 218 222 230
34.196541 5.20455105e-17 49.7723703 218 222 230
34.1718687 1.36536482e-15 49.9105722 218 222 230
34.1667841 -7.56313079e-17 50.0507516 218 222 230
34.1818537 -3.94276969e-17 50.1929658 218 222 230
34.2189941 2.503353e-16 50.3374083 218 222 230
34.2823184 -5.09302262e-17 50.4844942 218 222 230
34.3802454 1.93544467e-17 50.6350736 218 222 230
34.5335702 3.48500658e-16 50.7912459 218 222 230
34.6674797 2.09595366e-16 50.8835566 218 222 230
34.7650373 3.77354357e-17 50.9328015 218 222 230
39.8917017 0 1.86806307 255 79 163
35.13155 -4.4408921e-16 49.0174003 255 79 163
34.7179693 0.0468362414 48.9756456 255 79 163
34.3251272 0.184996401 48.9359846 255 79 163
33.9727226 0.407552551 48.9004062 255 79 163
33.6784264 0.703344798 48.8706943 255 79 163
33.4569958 1.05754088 48.8483389 255 79 163
33.3195345 1.45237993 48.8344609 255 79 163
33.2729351 1.86806307 48.8297563 255 79 163
38.0330868 1.86806307 1.6804191 255 79 163
39.478121 0.0468362414 1.82630836 255 79 163
39.0852789 0.184996401 1.78664741 255 79 163
38.7328742 0.407552551 1.75106897 255 79 163
38.438578 0.703344798 1.72135711 255 79 163
38.2171475 1.05754088 1.6990017 255 79 163
38.0796861 1.45237993 1.68512373 255 79 163
38.0330868 63.5385824 1.6804191 255 79 163
38.1982925 64.1531788 1.07937746 255 79 163
38.5091597 64.6496335 0.611783917 255 79 163
38.854224 64.9799922 0.314583181 255 79 163
39.2181672 65.2045295 0.12564781 255 79 163
39.5491247 65.3312656 0.031680589 255 79 163
39.7196823 65.3720213 0.0079370086 255 79 163
39.8917017 65.3971973 0 255 79 163
39.8917017 1.86806307 0 255 79 163
38.0330868 1.86806307 1.6804191 255 79 163
38.134123 1.86806307 1.23515164 255 79 163
38.3401566 1.86806307 0.827694163 255 79 163
38.6388791 1.86806307 0.482388072 255 79 163
39.0124449 1.86806307 0.219861874 255 79 163
39.4385373 1.86806307 0.0557988205 255 79 163
30.7840521 1.86806307 73.4821605 218 222 230
30.7840521 63.5385824 73.4821605 218 222 230
33.0738739 1.86806307 50.8014589 218 222 230
33.2729351 1.86806307 48.8297563 218 222 230
33.2622916 1.838522 48.9351807 218 222 230
33.1948825 1.66754193 49.6028682 218 222 230
33.1589605 1.66105081 49.9586754 218 222 230
33.1164172 1.73650957 50.3800672 218 222 230
38.0330868 1.86806307 1.6804191 218 222 230
38.0330868 63.5385824 1.6804191 218 222 230
38.0330868 1.86806307 1.6804191 255 79 163
38.134123 1.86806307 1.23515164 255 79 163
38.3401566 1.86806307 0.827694163 255 79 163
38.6388791 1.86806307 0.482388072 255 79 163
39.0124449 1.86806307 0.219861874 255 79 163
39.4385373 1.86806307 0.0557988205 255 79 163
39.8917017 1.86806307 0 255 79 163
39.8917017 0 1.86806307 255 79 163
39.8917017 0.0468362414 1.45237993 255 79 163
39.8917017 0.184996401 1.05754088 255 79 163
39.8917017 0.407552551 0.703344798 255 79 163
39.8917017 0.703344798 0.407552551 255 79 163
39.8917017 1.05754088 0.184996401 255 79 163
39.8917017 1.45237993 0.0468362414 255 79 163
39.8917017 0 1.86806307 255 79 163
39.478121 0.0468362414 1.82630836 255 79 163
39.0852789 0.184996401 1.78664741 255 79 163
38.7328742 0.407552551 1.75106897 255 79 163
38.438578 0.703344798 1.72135711 255 79 163
38.2171475 1.05754088 1.6990017 255 79 163
38.0796861 1.45237993 1.68512373 255 79 163
39.8071391 0.0914295146 1.29702716 255 79 163
39.6452724 0.0914295146 1.34604252 255 79 163
39.5045582 0.0914295146 1.43986595 255 79 163
39.5734768 0.356768301 0.817167887 255 79 163
39.3970748 0.0914295146 1.57044405 255 79 163
39.2825671 0.356768301 0.954497109 255 79 163
39.670314 0.770043149 0.373071647 255 79 163
39.3320481 0.0914295146 1.72656853 255 79 163
39.0439429 0.356768301 1.17024304 255 79 163
39.2465415 0.770043149 0.501395511 255 79 163
38.8780868 0.356768301 1.44588696 255 79 163
38.8781469 0.770043149 0.747028449 255 79 163
39.376803 1.29079984 0.167678942 255 79 163
38.5967517 0.770043149 1.08888635 255 79 163
38.9061012 1.29079984 0.389882291 255 79 163
38.4265096 0.770043149 1.49762555 255 79 163
38.5199991 1.29079984 0.738966547 255 79 163
38.2516384 1.29079984 1.18496777 255 79 163
35.13155 -4.4408921e-16 49.0174003 255 79 163
34.7179693 0.0468362414 48.9756456 255 79 163
34.3251272 0.184996401 48.9359846 255 79 163
33.9727226 0.407552551 48.9004062 255 79 163
33.6784264 0.703344798 48.8706943 255 79 163
33.4569958 1.05754088 48.8483389 255 79 163
33.3195345 1.45237993 48.8344609 255 79 163
33.2729351 1.86806307 48.8297563 255 79 163
34.8904085 -3.39750439e-15 49.055585 255 79 163
34.7564783 2.07425604e-15 49.1045937 255 79 163
34.6266399 -7.3936052e-17 49.1748588 255 79 163
34.5155391 -7.24307905e-18 49.2574374 255 79 163
34.4026194 -5.93930497e-17 49.3710974 255 79 163
34.3087094 -1.21752078e-16 49.5023091 255 79 163
34.2414683 -3.03437477e-17 49.6362133 255 79 163
34.196541 5.20455105e-17 49.7723703 255 79 163
34.1718687 1.36536482e-15 49.9105722 255 79 163
34.1667841 -7.56313079e-17 50.0507516 255 79 163
34.1818537 -3.94276969e-17 50.1929658 255 79 163
34.2189941 2.503353e-16 50.3374083 255 79 163
34.2823184 -5.09302262e-17 50.4844942 255 79 163
34.3802454 1.93544467e-17 50.6350736 255 79 163
34.5335702 3.48500658e-16 50.7912459 255 79 163
34.6674797 2.09595366e-16 50.8835566 255 79 163
34.7650373 3.77354357e-17 50.9328015 255 79 163
34.9324888 0 50.9891029 255 79 163
34.5352819 0.0431580988 50.9490013 255 79 163
34.13212 0.182079686 50.9082985 255 79 163
33.7574559 0.420691597 50.8704727 255 79 163
33.4464527 0.746079232 50.8390741 255 79 163
33.2251083 1.12995871 50.8167274 255 79 163
33.1097773 1.50265987 50.8050837 255 79 163
33.0738739 1.86806307 50.8014589 255 79 163
33.2622916 1.838522 48.9351807 255 79 163
33.1948825 1.66754193 49.6028682 255 79 163
33.1589605 1.66105081 49.9586754 255 79 163
33.1164172 1.73650957 50.3800672 255 79 163
33.6827066 0.646883785 48.9956139 255 79 163
33.5307602 0.688614393 49.353736 255 79 163
33.4312296 0.688614393 50.3395873 255 79 163
33.508528 0.646883785 50.7208537 255 79 163
33.2795298 1.17839428 49.4698929 255 79 163
33.2580988 1.16653649 49.6474463 255 79 163
33.7803772 0.481341034 49.1299621 255 79 163
33.2872291 0.999538193 49.8752748 255 79 163
33.2109209 1.17553189 50.1406332 255 79 163
34.2300937 0.129515546 49.2103811 255 79 163
34.4539979 0.0540675217 49.1626399 255 79 163
33.6475745 0.409511958 49.8615329 255 79 163
33.6330113 0.479368103 50.608934 255 79 163
34.0860093 0.128919096 50.6138128 255 79 163
34.2981692 0.0521208418 50.7055786 255 79 163
35.1662107 59.1625978 49.0167994 218 222 230
35.4055263 59.1625978 49.0458576 218 222 230
35.6309338 59.1625978 49.1313434 218 222 230
35.8293333 59.1625978 49.2682887 218 222 230
35.9891945 59.1625978 49.4487347 218 222 230
36.1012269 59.1625978 49.6621945 218 222 230
36.1589196 59.1625978 49.8962627 218 222 230
36.1589196 59.1625978 50.1373361 218 222 230
36.1012269 59.1625978 50.3714043 218 222 230
35.9891945 59.1625978 50.5848642 218 222 230
35.8293333 59.1625978 50.7653102 218 222 230
35.6309338 59.1625978 50.9022554 218 222 230
35.4055263 59.1625978 50.9877412 218 222 230
35.1662107 59.1625978 51.0167994 218 222 230
34.926895 59.1625978 50.9877412 218 222 230
34.7014875 59.1625978 50.9022554 218 222 230
34.503088 59.1625978 50.7653102 218 222 230
34.3432268 59.1625978 50.5848642 218 222 230
34.2311944 59.1625978 50.3714043 218 222 230
34.1735018 59.1625978 50.1373361 218 222 230
34.1735018 59.1625978 49.8962627 218 222 230
34.2311944 59.1625978 49.6621945 218 222 230
34.3432268 59.1625978 49.4487347 218 222 230
34.503088 59.1625978 49.2682887 218 222 230
34.7014875 59.1625978 49.1313434 218 222 230
34.926895 59.1625978 49.0458576 218 222 230
3 14 15 9
3 11 12 13
3 11 13 14
3 11 14 9
3 1 9 8
3 1 10 11
3 1 11 9
3 5 3 2
3 5 4 3
3 7 1 8
3 0 6 5
3 0 7 6
3 0 5 2
3 0 1 7
3 19 17 16
3 19 16 18
3 31 20 21
3 32 21 22
3 32 31 21
3 33 32 22
3 34 22 23
3 34 33 22
3 35 23 24
3 35 34 23
3 36 24 25
3 36 35 24
3 37 25 26
3 37 36 25
3 38 26 27
3 38 37 26
3 39 27 28
3 39 38 27
3 30 28 29
3 30 39 28
3 47 48 49
3 47 49 55
3 46 55 54
3 46 47 55
3 45 54 53
3 45 46 54
3 44 53 52
3 44 45 53
3 43 52 51
3 43 44 52
3 42 51 50
3 42 43 51
3 41 50 40
3 41 42 50
3 58 66 65
3 60 58 59
3 61 58 60
3 63 61 62
3 63 58 61
3 64 58 63
3 56 58 64
3 57 66 58
3 57 58 56
3 67 69 68
3 67 70 69
3 67 57 70
3 67 66 57
3 99 101 100
3 99 102 101
3 98 94 93
3 98 93 102
3 98 102 99
3 103 95 94
3 103 96 95
3 103 94 98
3 83 77 78
3 83 78 79
3 83 79 80
3 83 80 81
3 83 81 82
3 83 88 87
3 83 87 92
3 83 97 96
3 83 92 97
3 83 96 103
3 76 77 83
3 75 76 83
3 74 75 83
3 73 74 83
3 72 73 83
3 71 83 103
3 71 72 83
3 104 71 103
3 104 105 108
3 83 84 85
3 83 85 89
3 89 85 90
3 90 85 91
3 91 85 86
3 83 89 88
3 106 71 109
3 109 71 107
3 107 71 108
3 108 71 104
3 109 108 106
3 106 108 105
3 118 119 120
3 118 120 126
3 117 126 125
3 117 118 126
3 116 125 124
3 116 117 125
3 115 124 123
3 115 116 124
3 114 123 122
3 114 115 123
3 113 122 121
3 113 114 122
3 112 121 110
3 112 113 121
3 111 112 110
3 134 127 128
3 135 128 129
3 135 134 128
3 136 135 129
3 137 129 130
3 137 130 131
3 137 136 129
3 138 131 132
3 138 137 131
3 133 138 132
3 150 154 149
3 150 155 154
3 151 156 155
3 151 155 150
3 152 157 156
3 152 156 151
3 153 158 157
3 153 157 152
3 148 159 158
3 148 158 153
3 147 159 148
3 146 160 159
3 146 159 147
3 145 160 146
3 144 160 145
3 143 140 160
3 143 160 144
3 142 140 143
3 139 142 141
3 139 140 142
3 172 173 174
3 170 171 172
3 169 170 172
3 167 168 169
3 167 172 174
3 167 169 172
3 166 167 174
3 175 166 174
3 180 175 179
3 178 179 175
3 161 166 175
3 161 175 180
3 177 178 175
3 162 166 161
3 176 177 175
3 163 164 165
3 163 165 166
3 163 166 162
3 192 181 182
3 193 182 183
3 193 192 182
3 194 183 184
3 194 193 183
3 195 184 185
3 195 185 186
3 195 194 184
3 196 186 187
3 196 195 186
3 197 187 188
3 197 196 187
3 198 188 189
3 198 197 188
3 191 189 190
3 191 198 189
3 204 205 206
3 204 206 207
3 203 204 207
3 199 201 202
3 199 202 203
3 199 207 208
3 199 203 207
3 209 199 208
3 215 209 216
3 213 215 214
3 210 212 211
3 210 213 212
3 210 209 215
3 210 215 213
3 200 210 217
3 200 199 209
3 200 209 210
3 222 223 200
3 221 217 218
3 221 218 219
3 221 219 220
3 221 200 217
3 221 222 200
3 227 228 229
3 226 227 229
3 225 229 238
3 225 226 229
3 224 225 238
3 245 238 237
3 245 224 238
3 244 245 237
3 243 237 236
3 243 244 237
3 242 235 234
3 242 236 235
3 242 243 236
3 241 234 233
3 241 242 234
3 240 232 231
3 240 233 232
3 240 241 233
3 239 231 230
3 239 240 231
3 273 272 252
3 251 273 252
3 254 253 274
3 255 254 274
3 256 255 274
3 257 256 274
3 258 257 274
3 259 258 274
3 260 274 273
3 260 259 274
3 261 260 273
3 262 261 273
3 271 249 246
3 250 263 262
3 250 264 263
3 250 265 264
3 250 273 251
3 250 262 273
3 250 249 271
3 246 248 247
3 246 249 248
3 252 272 253
3 272 274 253
3 270 269 271
3 269 268 271
3 268 267 271
3 267 266 271
3 266 265 271
3 265 250 271
3 281 282 283
3 281 283 284
3 280 281 284
3 279 280 284
3 275 287 288
3 275 288 289
3 275 289 290
3 275 290 291
3 275 291 292
3 275 292 293
3 275 293 294
3 275 284 285
3 275 285 286
3 275 286 287
3 297 310 309
3 297 304 310
3 298 308 307
3 298 309 308
3 298 297 309
3 299 307 306
3 299 298 307
3 300 306 305
3 300 299 306
3 301 300 305
3 302 305 295
3 302 301 305
3 303 302 295
3 296 303 295
3 332 330 331
3 338 314 313
3 338 313 320
3 339 320 321
3 339 338 320
3 340 321 322
3 340 339 321
3 341 315 314
3 341 314 338
3 342 322 323
3 342 340 322
3 343 341 338
3 343 338 339
3 344 323 324
3 344 342 323
3 345 339 340
3 345 343 339
3 346 316 315
3 346 315 341
3 347 324 325
3 347 344 324
3 348 345 340
3 348 340 342
3 348 342 344
3 349 346 341
3 349 341 343
3 350 325 326
3 350 347 325
3 351 348 344
3 352 343 345
3 352 345 348
3 352 349 343
3 353 317 316
3 353 316 346
3 354 326 327
3 354 350 326
3 355 344 347
3 355 351 344
3 356 352 348
3 357 346 349
3 357 353 346
3 358 327 328
3 358 354 327
3 359 350 354
3 359 355 347
3 359 347 350
3 360 356 348
3 360 348 351
3 361 357 349
3 361 349 352
3 362 318 317
3 362 317 353
3 363 328 329
3 363 358 328
3 364 359 354
3 365 351 355
3 365 360 351
3 365 355 359
3 366 352 356
3 366 361 352
3 367 353 357
3 367 362 353
3 368 329 330
3 368 363 329
3 368 330 332
3 369 364 354
3 369 354 358
3 369 358 363
3 370 365 359
3 371 366 356
3 371 356 360
3 372 367 357
3 372 357 361
3 373 319 318
3 373 312 319
3 373 318 362
3 374 369 363
3 375 364 369
3 375 359 364
3 375 370 359
3 376 371 360
3 376 360 365
3 377 361 366
3 377 372 361
3 378 362 367
3 378 312 373
3 378 373 362
3 379 332 333
3 379 368 332
3 379 363 368
3 379 374 363
3 380 375 369
3 381 365 370
3 381 376 365
3 382 366 371
3 382 377 366
3 383 367 372
3 383 378 367
3 383 312 378
3 384 369 374
3 384 380 369
3 385 381 370
3 385 370 375
3 386 382 371
3 386 371 376
3 387 312 383
3 387 383 372
3 387 372 377
3 388 379 333
3 388 333 334
3 388 374 379
3 388 384 374
3 389 375 380
3 389 385 375
3 390 381 385
3 390 376 381
3 390 386 376
3 391 377 382
3 391 312 387
3 391 387 377
3 392 389 380
3 392 380 384
3 393 390 385
3 394 311 312
3 394 391 382
3 394 382 386
3 394 312 391
3 395 384 388
3 395 334 335
3 395 388 334
3 395 392 384
3 396 385 389
3 396 393 385
3 397 386 390
3 397 311 394
3 397 394 386
3 398 389 392
3 398 396 389
3 399 390 393
3 399 397 390
3 399 311 397
3 400 392 395
3 400 395 335
3 400 335 336
3 400 398 392
3 401 393 396
3 401 399 393
3 401 311 399
3 402 396 398
3 402 401 396
3 402 398 400
3 402 311 401
3 403 336 337
3 403 337 311
3 403 400 336
3 403 311 402
3 403 402 400
3 404 406 405
3 407 406 404
3 414 421 427
3 415 427 426
3 415 414 427
3 426 408 415
3 415 408 416
3 416 408 417
3 417 408 418
3 418 408 419
3 419 408 420
3 420 408 410
3 410 408 411
3 411 408 412
3 412 408 413
3 413 408 409
3 425 408 426
3 428 435 434
3 429 435 428
3 430 436 435
3 430 435 429
3 431 437 436
3 431 436 430
3 432 438 437
3 432 437 431
3 433 439 438
3 433 438 432
3 444 442 443
3 445 442 444
3 440 446 442
3 440 447 446
3 440 442 445
3 441 447 440
3 449 450 448
3 449 451 450
3 453 454 452
3 453 455 454
3 457 458 456
3 457 459 458
3 469 460 461
3 470 461 462
3 470 469 461
3 471 462 463
3 471 470 462
3 472 463 464
3 472 471 463
3 473 464 465
3 473 472 464
3 474 465 466
3 474 473 465
3 475 474 466
3 468 466 467
3 468 475 466
3 476 480 479
3 476 481 480
3 476 482 481
3 476 483 482
3 476 484 483
3 476 485 484
3 476 486 485
3 476 487 486
3 476 488 487
3 490 489 488
3 477 490 488
3 477 488 476
3 491 493 492
3 491 494 493
3 491 477 494
3 491 490 477
3 476 479 478
3 505 506 507
3 504 505 507
3 503 507 513
3 503 504 507
3 502 503 513
3 501 513 512
3 501 502 513
3 500 501 512
3 499 512 511
3 499 500 512
3 498 510 509
3 498 511 510
3 498 499 511
3 497 509 508
3 497 498 509
3 496 508 495
3 496 497 508
3 515 529 514
3 515 530 529
3 516 531 530
3 516 530 515
3 517 532 531
3 517 531 516
3 518 533 532
3 518 532 517
3 519 534 533
3 519 533 518
3 520 535 534
3 520 534 519
3 521 536 535
3 521 535 520
3 522 537 536
3 522 536 521
3 523 538 537
3 523 537 522
3 524 538 523
3 524 539 538
3 525 539 524
3 525 540 539
3 526 540 525
3 526 541 540
3 527 541 526
3 527 542 541
3 528 542 527
3 528 543 542
3 576 543 528
3 576 544 543
3 575 544 576
3 574 545 544
3 574 544 575
3 573 546 545
3 573 545 574
3 572 547 546
3 572 546 573
3 571 547 572
3 570 548 547
3 570 547 571
3 569 548 570
3 569 549 548
3 568 549 569
3 567 550 549
3 567 549 568
3 566 550 567
3 565 551 550
3 565 550 566
3 564 552 551
3 564 551 565
3 563 552 564
3 562 553 552
3 562 552 563
3 561 554 553
3 561 553 562
3 560 554 561
3 557 555 554
3 557 554 560
3 558 555 557
3 559 555 558
3 556 555 559
3 584 585 586
3 584 586 592
3 583 592 591
3 583 584 592
3 582 591 590
3 582 583 591
3 581 590 589
3 581 582 590
3 580 589 588
3 580 581 589
3 579 588 587
3 579 580 588
3 578 587 577
3 578 579 587
3 599 600 601
3 599 601 607
3 598 599 607
3 597 607 606
3 597 598 607
3 596 606 605
3 596 597 606
3 595 605 604
3 595 596 605
3 594 604 603
3 594 595 604
3 593 603 602
3 593 594 603
3 611 617 616
3 611 609 617
3 615 612 613
3 615 613 614
3 610 611 612
3 610 609 611
3 610 612 615
3 608 609 610
3 623 624 631
3 618 619 638
3 639 627 626
3 640 626 625
3 640 627 639
3 640 639 626
3 641 625 632
3 641 640 625
3 642 628 627
3 642 627 640
3 643 632 633
3 643 641 632
3 644 640 641
3 644 642 640
3 645 629 628
3 645 630 629
3 645 628 642
3 646 633 634
3 646 643 633
3 646 634 643
3 647 644 641
3 647 641 643
3 648 645 642
3 648 642 644
3 649 634 635
3 649 647 643
3 649 643 634
3 650 644 647
3 650 648 644
3 651 622 623
3 651 631 630
3 651 630 645
3 651 645 648
3 651 623 631
3 652 647 649
3 652 650 647
3 653 621 622
3 653 622 651
3 653 648 650
3 653 651 648
3 654 635 636
3 654 636 637
3 654 649 635
3 654 652 649
3 655 620 621
3 655 621 653
3 655 650 652
3 655 653 650
3 656 619 620
3 656 637 638
3 656 638 619
3 656 620 655
3 656 654 637
3 656 652 654
3 656 655 652
3 663 690 664
3 665 658 657
3 688 689 693
3 682 683 681
3 694 661 660
3 695 662 661
3 695 661 694
3 696 686 687
3 697 685 686
3 697 686 696
3 698 663 662
3 698 691 690
3 698 690 663
3 698 662 695
3 699 692 691
3 699 691 698
3 699 698 695
3 700 660 659
3 700 695 694
3 700 694 660
3 701 699 695
3 702 692 699
3 702 687 688
3 702 693 692
3 702 699 701
3 702 688 693
3 702 701 696
3 702 696 687
3 703 659 658
3 703 669 670
3 703 670 671
3 703 700 659
3 704 665 666
3 704 666 667
3 704 667 668
3 704 668 669
3 704 658 665
3 704 669 703
3 704 703 658
3 705 695 700
3 705 671 672
3 705 672 673
3 705 673 674
3 705 674 675
3 705 700 703
3 705 701 695
3 705 696 701
3 705 703 671
3 706 684 685
3 706 685 697
3 706 697 696
3 706 696 705
3 707 675 676
3 707 676 677
3 707 683 684
3 707 705 675
3 707 706 705
3 707 684 706
3 708 681 683
3 708 677 678
3 708 678 679
3 708 679 680
3 708 680 681
3 708 683 707
3 708 707 677
3 729 727 728
3 732 726 727
3 732 729 730
3 732 730 731
3 732 727 729
3 734 724 725
3 734 725 726
3 734 732 733
3 734 726 732
3 710 722 723
3 710 723 724
3 710 734 709
3 710 724 734
3 711 721 722
3 711 722 710
3 713 714 715
3 712 715 716
3 712 716 717
3 712 717 718
3 712 718 719
3 712 719 720
3 712 720 721
3 712 721 711
3 712 713 715
