ply
format ascii 1.0
comment generated by blendit.inference.finetune_visualize
element vertex 285
property float x
property float y
property float z
property uchar red
property uchar green
property uchar blue
element face 253
property list uchar int vertex_indices
end_header
0 1.36826663 94.0568001 218 222 230
0 45.9125371 94.0568001 218 222 230
-2.22044605e-16 1.36826663 1.36826663 218 222 230
-2.22044605e-16 45.9125371 1.36826663 218 222 230
0 1.36826663 94.0568001 218 222 230
0 45.9125371 94.0568001 218 222 230
71.436337 1.36826663 94.0568001 218 222 230
71.436337 45.9125371 94.0568001 218 222 230
46.8382178 33.3315134 94.0568001 218 222 230
42.1037085 39.3601139 94.0568001 218 222 230
38.396422 33.0592917 94.0568001 218 222 230
58.1160376 44.8320121 94.0568001 218 222 230
50.4978865 44.8320121 94.0568001 218 222 230
58.1160376 42.4250988 94.0568001 218 222 230
50.4978865 42.4250988 94.0568001 218 222 230
-2.22044605e-16 1.36826663 1.36826663 255 79 163
0 1.36826663 94.0568001 255 79 163
0.0343053012 1.06379866 1.36826663 255 79 163
0.135500994 0.77459799 1.36826663 255 79 163
0.298512703 0.515166341 1.36826663 255 79 163
0.515166341 0.298512703 1.36826663 255 79 163
0.77459799 0.135500994 1.36826663 255 79 163
1.06379866 0.0343053012 1.36826663 255 79 163
1.36826663 -2.22044605e-16 1.36826663 255 79 163
1.36826663 -2.22044605e-16 92.6885334 255 79 163
0.941373939 0.0682988618 93.1154261 255 79 163
0.592463624 0.241198192 93.4643365 255 79 163
0.331458804 0.475415524 93.7253413 255 79 163
0.154385985 0.736881369 93.9024141 255 79 163
0.0580249705 0.974032737 93.9987751 255 79 163
0.0145839658 1.16902604 94.0422161 255 79 163
71.436337 45.9125371 1.36826663 218 222 230
71.436337 45.9125371 94.0568001 218 222 230
-2.22044605e-16 45.9125371 1.36826663 218 222 230
0 45.9125371 94.0568001 218 222 230
-2.22044605e-16 1.36826663 1.36826663 255 79 163
-2.22044605e-16 45.9125371 1.36826663 255 79 163
0.0185154006 45.8940217 1.14393387 255 79 163
0.0735605011 45.8389766 0.92567245 255 79 163
0.16364556 45.7488915 0.719389412 255 79 163
0.286332512 45.6262046 0.530667603 255 79 163
0.438300955 45.4742361 0.364614593 255 79 163
0.615438012 45.2970991 0.225724447 255 79 163
0.8824038 45.0301333 0.0891689486 255 79 163
1.12127787 44.7912592 0.0224768536 255 79 163
1.36826663 44.5442704 -2.22044605e-16 255 79 163
1.36826663 1.36826663 0 255 79 163
1.06379866 1.36826663 0.0343053012 255 79 163
0.77459799 1.36826663 0.135500994 255 79 163
0.515166341 1.36826663 0.298512703 255 79 163
0.298512703 1.36826663 0.515166341 255 79 163
0.135500994 1.36826663 0.77459799 255 79 163
0.0343053012 1.36826663 1.06379866 255 79 163
1.36826663 -2.22044605e-16 92.6885334 255 79 163
70.0680704 -2.22044605e-16 92.6885334 255 79 163
70.4949631 0.0682988618 93.1154261 255 79 163
70.8438734 0.241198192 93.4643365 255 79 163
71.1048782 0.475415524 93.7253413 255 79 163
71.281951 0.736881369 93.9024141 255 79 163
71.3783121 0.974032737 93.9987751 255 79 163
71.4217531 1.16902604 94.0422161 255 79 163
71.436337 1.36826663 94.0568001 255 79 163
0 1.36826663 94.0568001 255 79 163
0.941373939 0.0682988618 93.1154261 255 79 163
0.592463624 0.241198192 93.4643365 255 79 163
0.331458804 0.475415524 93.7253413 255 79 163
0.154385985 0.736881369 93.9024141 255 79 163
0.0580249705 0.974032737 93.9987751 255 79 163
0.0145839658 1.16902604 94.0422161 255 79 163
71.436337 1.36826663 94.0568001 218 222 230
71.436337 45.9125371 94.0568001 218 222 230
71.436337 1.36826663 0 218 222 230
71.436337 44.5442704 -2.22044605e-16 218 222 230
71.436337 45.9125371 1.36826663 218 222 230
71.436337 45.8782318 1.06379866 218 222 230
71.436337 45.7770361 0.77459799 218 222 230
71.436337 45.6140244 0.515166341 218 222 230
71.436337 45.3973707 0.298512703 218 222 230
71.436337 45.1379391 0.135500994 218 222 230
71.436337 44.8487384 0.0343053012 218 222 230
71.436337 11.8825128 41.7160614 218 222 230
71.436337 12.8398733 22.4066543 218 222 230
71.436337 28.5892353 30.7157121 218 222 230
42.1037085 39.3601139 0 218 222 230
46.8382178 33.3315134 0 218 222 230
42.1037085 39.3601139 94.0568001 218 222 230
46.8382178 33.3315134 94.0568001 218 222 230
46.8382178 33.3315134 0 218 222 230
38.396422 33.0592917 0 218 222 230
46.8382178 33.3315134 94.0568001 218 222 230
38.396422 33.0592917 94.0568001 218 222 230
38.396422 33.0592917 0 218 222 230
42.1037085 39.3601139 0 218 222 230
38.396422 33.0592917 94.0568001 218 222 230
42.1037085 39.3601139 94.0568001 218 222 230
58.1160376 44.8320121 94.0568001 218 222 230
58.1160376 44.8320121 41.5728707 218 222 230
50.4978865 44.8320121 41.5728707 218 222 230
50.4978865 44.8320121 94.0568001 218 222 230
50.4978865 44.8320121 94.0568001 218 222 230
50.4978865 44.8320121 41.5728707 218 222 230
50.4978865 42.4250988 41.5728707 218 222 230
50.4978865 42.4250988 94.0568001 218 222 230
50.4978865 42.4250988 94.0568001 218 222 230
50.4978865 42.4250988 41.5728707 218 222 230
58.1160376 42.4250988 41.5728707 218 222 230
58.1160376 42.4250988 94.0568001 218 222 230
58.1160376 42.4250988 94.0568001 218 222 230
58.1160376 42.4250988 41.5728707 218 222 230
58.1160376 44.8320121 41.5728707 218 222 230
58.1160376 44.8320121 94.0568001 218 222 230
1.36826663 1.36826663 0 255 79 163
1.06379866 1.36826663 0.0343053012 255 79 163
0.77459799 1.36826663 0.135500994 255 79 163
0.515166341 1.36826663 0.298512703 255 79 163
0.298512703 1.36826663 0.515166341 255 79 163
0.135500994 1.36826663 0.77459799 255 79 163
0.0343053012 1.36826663 1.06379866 255 79 163
-2.22044605e-16 1.36826663 1.36826663 255 79 163
1.36826663 1.36826663 0 255 79 163
1.36826663 1.06379866 0.0343053012 255 79 163
1.36826663 0.77459799 0.135500994 255 79 163
1.36826663 0.515166341 0.298512703 255 79 163
1.36826663 0.298512703 0.515166341 255 79 163
1.36826663 0.135500994 0.77459799 255 79 163
1.36826663 0.0343053012 1.06379866 255 79 163
1.36826663 -2.22044605e-16 1.36826663 255 79 163
0.0343053012 1.06379866 1.36826663 255 79 163
0.135500994 0.77459799 1.36826663 255 79 163
0.298512703 0.515166341 1.36826663 255 79 163
0.515166341 0.298512703 1.36826663 255 79 163
0.77459799 0.135500994 1.36826663 255 79 163
1.06379866 0.0343053012 1.36826663 255 79 163
0.950654578 1.30212338 0.0669677357 255 79 163
0.991533355 1.17631144 0.0669677357 255 79 163
1.06928941 1.06928941 0.0669677357 255 79 163
0.603382333 1.11974066 0.261315674 255 79 163
1.17631144 0.991533355 0.0669677357 255 79 163
0.717617185 0.895542138 0.261315674 255 79 163
0.274944077 1.19510135 0.564019685 255 79 163
1.30212338 0.950654578 0.0669677357 255 79 163
0.895542138 0.717617185 0.261315674 255 79 163
0.381966107 0.865721414 0.564019685 255 79 163
1.11974066 0.603382333 0.261315674 255 79 163
0.585534104 0.585534104 0.564019685 255 79 163
0.130657837 0.966143159 0.945448991 255 79 163
0.865721414 0.381966107 0.564019685 255 79 163
0.31549371 0.603382333 0.945448991 255 79 163
1.19510135 0.274944077 0.564019685 255 79 163
0.603382333 0.31549371 0.945448991 255 79 163
0.966143159 0.130657837 0.945448991 255 79 163
1.36826663 -2.22044605e-16 92.6885334 218 222 230
70.0680704 -2.22044605e-16 92.6885334 218 222 230
70.0680704 -2.22044605e-16 1.36826663 218 222 230
1.36826663 -2.22044605e-16 1.36826663 218 222 230
-2.22044605e-16 45.9125371 1.36826663 255 79 163
71.436337 45.9125371 1.36826663 255 79 163
71.436337 45.8782318 1.06379866 255 79 163
71.436337 45.7770361 0.77459799 255 79 163
71.436337 45.6140244 0.515166341 255 79 163
71.436337 45.3973707 0.298512703 255 79 163
71.436337 45.1379391 0.135500994 255 79 163
71.436337 44.8487384 0.0343053012 255 79 163
71.436337 44.5442704 -2.22044605e-16 255 79 163
1.36826663 44.5442704 -2.22044605e-16 255 79 163
0.0185154006 45.8940217 1.14393387 255 79 163
0.0735605011 45.8389766 0.92567245 255 79 163
0.16364556 45.7488915 0.719389412 255 79 163
0.286332512 45.6262046 0.530667603 255 79 163
0.438300955 45.4742361 0.364614593 255 79 163
0.615438012 45.2970991 0.225724447 255 79 163
0.8824038 45.0301333 0.0891689486 255 79 163
1.12127787 44.7912592 0.0224768536 255 79 163
71.436337 1.36826663 0 218 222 230
71.436337 44.5442704 -2.22044605e-16 218 222 230
1.36826663 44.5442704 -2.22044605e-16 218 222 230
1.36826663 1.36826663 0 218 222 230
38.396422 33.0592917 0 218 222 230
42.1037085 39.3601139 0 218 222 230
46.8382178 33.3315134 0 218 222 230
48.2387196 37.2734965 0 218 222 230
48.6925732 39.1132675 0 218 222 230
49.8781865 37.5074305 0 218 222 230
70.0680704 -2.22044605e-16 1.36826663 255 79 163
70.4949631 0.0682988618 0.941373939 255 79 163
70.8438734 0.241198192 0.592463624 255 79 163
71.1048782 0.475415524 0.331458804 255 79 163
71.281951 0.736881369 0.154385985 255 79 163
71.3783121 0.974032737 0.0580249705 255 79 163
71.4217531 1.16902604 0.0145839658 255 79 163
71.436337 1.36826663 0 255 79 163
71.436337 1.36826663 94.0568001 255 79 163
70.0680704 -2.22044605e-16 92.6885334 255 79 163
70.4949631 0.0682988618 93.1154261 255 79 163
70.8438734 0.241198192 93.4643365 255 79 163
71.1048782 0.475415524 93.7253413 255 79 163
71.281951 0.736881369 93.9024141 255 79 163
71.3783121 0.974032737 93.9987751 255 79 163
71.4217531 1.16902604 94.0422161 255 79 163
71.436337 11.8825128 41.7160614 218 222 230
64.2458132 11.8825128 41.7160614 218 222 230
64.2458132 12.8398733 22.4066543 218 222 230
71.436337 12.8398733 22.4066543 218 222 230
71.436337 12.8398733 22.4066543 218 222 230
64.2458132 12.8398733 22.4066543 218 222 230
63.9643382 12.8684273 22.4217189 218 222 230
63.6949039 12.9528679 22.4662681 218 222 230
63.4490356 13.0895831 22.5383964 218 222 230
63.2372508 13.2727245 22.6350183 218 222 230
63.0686091 13.494458 22.7520006 218 222 230
62.9503242 13.7452986 22.8843392 218 222 230
62.8958636 13.9571846 22.9961261 218 222 230
62.8775466 14.1748997 23.1109884 218 222 230
62.8775466 28.5892353 30.7157121 218 222 230
71.436337 28.5892353 30.7157121 218 222 230
71.436337 11.8825128 41.7160614 218 222 230
64.2458132 11.8825128 41.7160614 218 222 230
71.436337 28.5892353 30.7157121 218 222 230
62.8775466 28.5892353 30.7157121 218 222 230
62.8775466 13.2986918 40.7835946 218 222 230
63.9800304 11.9094874 41.6983003 218 222 230
63.7243726 11.9893839 41.6456934 218 222 230
63.4885791 12.1191585 41.5602448 218 222 230
63.2816324 12.2938674 41.4452097 218 222 230
63.1114163 12.5068551 41.3049704 218 222 230
62.984415 12.7500078 41.1448693 218 222 230
62.9054667 13.0140627 40.9710054 218 222 230
62.8845445 13.1556456 40.8777817 218 222 230
58.1160376 44.8320121 41.5728707 218 222 230
50.4978865 44.8320121 41.5728707 218 222 230
50.4978865 42.4250988 41.5728707 218 222 230
58.1160376 42.4250988 41.5728707 218 222 230
1.36826663 1.36826663 0 255 79 163
1.36826663 1.06379866 0.0343053012 255 79 163
1.36826663 0.77459799 0.135500994 255 79 163
1.36826663 0.515166341 0.298512703 255 79 163
1.36826663 0.298512703 0.515166341 255 79 163
1.36826663 0.135500994 0.77459799 255 79 163
1.36826663 0.0343053012 1.06379866 255 79 163
1.36826663 -2.22044605e-16 1.36826663 255 79 163
71.436337 1.36826663 0 255 79 163
70.0680704 -2.22044605e-16 1.36826663 255 79 163
70.4949631 0.0682988618 0.941373939 255 79 163
70.8438734 0.241198192 0.592463624 255 79 163
71.1048782 0.475415524 0.331458804 255 79 163
71.281951 0.736881369 0.154385985 255 79 163
71.3783121 0.974032737 0.0580249705 255 79 163
71.4217531 1.16902604 0.0145839658 255 79 163
48.2387196 37.2734965 0 218 222 230
48.2387196 37.2734965 75.0834749 218 222 230
48.6925732 39.1132675 75.0834749 218 222 230
48.6925732 39.1132675 0 218 222 230
49.8781865 37.5074305 0 218 222 230
49.8781865 37.5074305 75.0834749 218 222 230
48.2387196 37.2734965 75.0834749 218 222 230
48.2387196 37.2734965 0 218 222 230
48.6925732 39.1132675 0 218 222 230
48.6925732 39.1132675 75.0834749 218 222 230
49.8781865 37.5074305 75.0834749 218 222 230
49.8781865 37.5074305 0 218 222 230
64.2458132 11.8825128 41.7160614 255 79 163
63.9800304 11.9094874 41.6983003 255 79 163
63.7243726 11.9893839 41.6456934 255 79 163
63.4885791 12.1191585 41.5602448 255 79 163
63.2816324 12.2938674 41.4452097 255 79 163
63.1114163 12.5068551 41.3049704 255 79 163
62.984415 12.7500078 41.1448693 255 79 163
62.9054667 13.0140627 40.9710054 255 79 163
62.8845445 13.1556456 40.8777817 255 79 163
62.8775466 13.2986918 40.7835946 255 79 163
62.8775466 14.1748997 23.1109884 255 79 163
64.2458132 12.8398733 22.4066543 255 79 163
63.9643382 12.8684273 22.4217189 255 79 163
63.6949039 12.9528679 22.4662681 255 79 163
63.4490356 13.0895831 22.5383964 255 79 163
63.2372508 13.2727245 22.6350183 255 79 163
63.0686091 13.494458 22.7520006 255 79 163
62.9503242 13.7452986 22.8843392 255 79 163
62.8958636 13.9571846 22.9961261 255 79 163
62.8775466 14.1748997 23.1109884 218 222 230
62.8775466 28.5892353 30.7157121 218 222 230
62.8775466 13.2986918 40.7835946 218 222 230
48.6925732 39.1132675 75.0834749 218 222 230
49.8781865 37.5074305 75.0834749 218 222 230
48.2387196 37.2734965 75.0834749 218 222 230
3 0 3 2
3 0 1 3
3 10 5 4
3 6 10 4
3 8 10 6
3 9 5 10
3 14 9 8
3 12 9 14
3 12 5 9
3 13 14 8
3 13 8 6
3 7 11 13
3 7 13 6
3 7 5 12
3 7 12 11
3 30 16 15
3 30 15 17
3 29 17 18
3 29 30 17
3 28 18 19
3 28 29 18
3 27 19 20
3 27 28 19
3 26 20 21
3 26 27 20
3 25 21 22
3 25 26 21
3 24 22 23
3 24 25 22
3 32 31 33
3 32 33 34
3 44 45 46
3 44 46 47
3 43 47 48
3 43 44 47
3 42 48 49
3 42 43 48
3 41 49 50
3 41 42 49
3 40 41 50
3 39 50 51
3 39 40 50
3 38 51 52
3 38 39 51
3 37 52 35
3 37 38 52
3 36 37 35
3 61 62 68
3 60 68 67
3 60 61 68
3 59 67 66
3 59 60 67
3 58 66 65
3 58 59 66
3 57 65 64
3 57 58 65
3 56 64 63
3 56 57 64
3 55 63 53
3 55 56 63
3 54 55 53
3 75 77 76
3 79 78 77
3 79 77 75
3 73 75 74
3 72 79 75
3 72 75 73
3 82 72 73
3 81 71 72
3 81 72 82
3 80 71 81
3 70 80 82
3 70 82 73
3 69 80 70
3 69 71 80
3 84 85 83
3 84 86 85
3 88 89 87
3 88 90 89
3 92 93 91
3 92 94 93
3 98 96 95
3 98 97 96
3 102 100 99
3 102 101 100
3 106 104 103
3 106 105 104
3 110 108 107
3 110 109 108
3 127 118 117
3 126 132 125
3 133 113 112
3 134 112 111
3 134 133 112
3 135 111 119
3 135 134 111
3 136 114 113
3 136 113 133
3 136 133 134
3 137 119 120
3 137 135 119
3 138 134 135
3 138 136 134
3 139 115 114
3 139 116 115
3 139 114 136
3 140 120 121
3 140 137 120
3 141 138 135
3 141 135 137
3 142 136 138
3 142 139 136
3 143 121 122
3 143 137 140
3 143 140 121
3 143 141 137
3 144 138 141
3 144 142 138
3 145 117 116
3 145 128 127
3 145 116 139
3 145 139 142
3 145 127 117
3 146 141 143
3 146 144 141
3 147 129 128
3 147 130 129
3 147 128 145
3 147 142 144
3 147 145 142
3 148 122 123
3 148 123 124
3 148 143 122
3 148 146 143
3 149 131 130
3 149 130 147
3 149 144 146
3 149 147 144
3 150 124 125
3 150 132 131
3 150 131 149
3 150 125 132
3 150 148 124
3 150 146 148
3 150 149 146
3 152 154 153
3 152 151 154
3 163 164 172
3 162 172 171
3 162 163 172
3 161 171 170
3 161 162 171
3 160 170 169
3 160 161 170
3 159 168 167
3 159 169 168
3 159 160 169
3 158 167 166
3 158 159 167
3 157 166 165
3 157 158 166
3 156 165 155
3 156 157 165
3 177 176 175
3 173 176 177
3 179 173 177
3 178 177 175
3 180 179 178
3 182 179 180
3 182 173 179
3 181 180 178
3 174 182 181
3 174 173 182
3 174 178 175
3 174 181 178
3 193 183 184
3 193 192 183
3 194 184 185
3 194 193 184
3 195 185 186
3 195 194 185
3 196 186 187
3 196 195 186
3 197 187 188
3 197 196 187
3 198 188 189
3 198 197 188
3 191 189 190
3 191 198 189
3 201 200 199
3 202 201 199
3 204 206 205
3 204 207 206
3 204 208 207
3 204 209 208
3 204 210 209
3 204 211 210
3 212 211 204
3 203 212 204
3 214 213 212
3 214 212 203
3 219 218 217
3 216 220 221
3 216 221 222
3 216 222 223
3 216 223 224
3 216 224 225
3 216 225 226
3 216 226 227
3 216 227 219
3 215 219 217
3 215 216 219
3 228 229 230
3 228 230 231
3 241 239 238
3 242 238 237
3 242 241 238
3 243 237 236
3 243 242 237
3 244 236 235
3 244 243 236
3 245 235 234
3 245 244 235
3 246 234 233
3 246 245 234
3 247 233 232
3 247 246 233
3 240 247 232
3 251 249 248
3 251 250 249
3 252 254 253
3 255 254 252
3 259 257 256
3 259 258 257
3 271 261 260
3 272 262 261
3 272 261 271
3 273 263 262
3 273 262 272
3 274 264 263
3 274 263 273
3 275 265 264
3 275 264 274
3 276 266 265
3 276 265 275
3 277 267 266
3 277 266 276
3 278 268 267
3 278 267 277
3 270 269 268
3 270 268 278
3 280 281 279
3 282 283 284
