ply
format ascii 1.0
comment generated by blendit.inference.finetune_visualize
element vertex 712
property float x
property float y
property float z
property uchar red
property uchar green
property uchar blue
element face 638
property list uchar int vertex_indices
end_header
0 -2.22044605e-16 1.550297 218 222 230
0 0 60.0525365 218 222 230
0 0.0388691826 1.20532347 218 222 230
0 0.153527667 0.877648344 218 222 230
0 0.338225999 0.583702632 218 222 230
0 0.583702632 0.338225999 218 222 230
0 0.877648344 0.153527667 218 222 230
0 1.20532347 0.0388691826 218 222 230
0 1.550297 -2.22044605e-16 218 222 230
0 67.8290531 -2.22044605e-16 218 222 230
-2.22044605e-16 67.8290531 60.0525365 218 222 230
62.240227 0 1.550297 218 222 230
62.240227 -4.64123766e-16 34.124477 218 222 230
31.4887447 0 1.550297 218 222 230
31.7355307 0 2.16909455 218 222 230
30.5209615 0 4.27720862 218 222 230
30.8582698 0 4.18794599 218 222 230
31.1670726 0 4.0255097 218 222 230
31.4317275 0 3.79812793 218 222 230
31.6388285 0 3.51731864 218 222 230
31.7778851 0 3.19730616 218 222 230
31.8418532 0 2.85430064 218 222 230
31.8274926 0 2.50567696 218 222 230
29.6456518 0 4.40585715 218 222 230
31.3988352 -2.22044605e-16 1.550297 218 222 230
0 -2.22044605e-16 1.550297 218 222 230
0 0 60.0525365 218 222 230
0.466569699 0 60.1096658 218 222 230
0.905571829 0 60.2776782 218 222 230
1.29106767 0 60.5466466 218 222 230
1.60027996 0 60.9006788 218 222 230
1.81493868 0 61.3188566 218 222 230
1.92236059 0 61.7764717 218 222 230
1.9161986 0 62.2464856 218 222 230
1.7968168 0 62.7011273 218 222 230
1.57126892 0 63.1135339 218 222 230
1.25288162 0 63.4593381 218 222 230
0.860467014 0 63.7181079 218 222 230
0.571786547 0 63.9040006 218 222 230
0.331103927 0 64.1488768 218 222 230
0.150225107 0 64.4407249 218 222 230
0.0380225469 0 64.7652292 218 222 230
0 0 65.1064722 218 222 230
-2.22044605e-16 0 92.2351357 218 222 230
62.240227 -2.22044605e-16 92.2351357 218 222 230
62.240227 0 51.7016221 218 222 230
46.0262055 0 51.7016221 218 222 230
46.0262055 9.28247546e-16 50.2839098 218 222 230
46.0262055 -4.64123766e-16 34.124477 218 222 230
5.27154867 0 29.4462578 218 222 230
5.27154867 0 28.188334 218 222 230
5.33421182 0 27.6722565 218 222 230
5.51855951 0 27.1861716 218 222 230
5.81387814 0 26.7583287 218 222 230
6.20300484 0 26.4135925 218 222 230
6.663325 0 26.1719979 218 222 230
7.16808648 0 26.0475853 218 222 230
7.68795437 0 26.0475853 218 222 230
8.19271585 0 26.1719979 218 222 230
8.65303601 0 26.4135925 218 222 230
9.04216271 0 26.7583287 218 222 230
9.33748134 0 27.1861716 218 222 230
9.52182903 0 27.6722565 218 222 230
9.58449218 0 28.188334 218 222 230
9.58449218 0 29.4462578 218 222 230
9.52182903 0 29.9623352 218 222 230
9.33748134 0 30.4484202 218 222 230
9.04216271 0 30.876263 218 222 230
8.65303601 0 31.2209992 218 222 230
8.19271585 0 31.4625939 218 222 230
7.68795437 0 31.5870064 218 222 230
7.16808648 0 31.5870064 218 222 230
6.663325 0 31.4625939 218 222 230
6.20300484 0 31.2209992 218 222 230
5.81387814 0 30.876263 218 222 230
5.51855951 0 30.4484202 218 222 230
5.33421182 0 29.9623352 218 222 230
34.3599044 0 34.2458095 218 222 230
35.7119178 0 31.9458432 218 222 230
30.7970316 0 34.2179047 218 222 230
29.0397614 0 31.118414 218 222 230
30.8453641 0 28.046828 218 222 230
33.5132 0 28.0677227 218 222 230
34.8496845 0 28.8533625 218 222 230
34.6612425 0 28.5896759 218 222 230
34.4220949 0 28.3709307 218 222 230
34.1426935 0 28.2066873 218 222 230
33.8352496 0 28.1041238 218 222 230
35.7240595 0 30.3955938 218 222 230
35.8460561 0 31.6508043 218 222 230
35.9159211 0 31.3343238 218 222 230
35.9184594 0 31.0102335 218 222 230
35.85356 0 30.6926975 218 222 230
0 -2.22044605e-16 1.550297 255 79 163
0 0.0388691826 1.20532347 255 79 163
0 0.153527667 0.877648344 255 79 163
0 0.338225999 0.583702632 255 79 163
0 0.583702632 0.338225999 255 79 163
0 0.877648344 0.153527667 255 79 163
0 1.20532347 0.0388691826 255 79 163
0 1.550297 -2.22044605e-16 255 79 163
31.3988352 1.550297 -2.22044605e-16 255 79 163
31.3988352 -2.22044605e-16 1.550297 255 79 163
31.3988352 0.0388691826 1.20532347 255 79 163
31.3988352 0.153527667 0.877648344 255 79 163
31.3988352 0.338225999 0.583702632 255 79 163
31.3988352 0.583702632 0.338225999 255 79 163
31.3988352 0.877648344 0.153527667 255 79 163
31.3988352 1.20532347 0.0388691826 255 79 163
0 0 60.0525365 218 222 230
0.466569699 0 60.1096658 218 222 230
0.905571829 0 60.2776782 218 222 230
1.29106767 0 60.5466466 218 222 230
1.60027996 0 60.9006788 218 222 230
1.81493868 0 61.3188566 218 222 230
1.92236059 0 61.7764717 218 222 230
1.9161986 0 62.2464856 218 222 230
1.7968168 0 62.7011273 218 222 230
1.57126892 0 63.1135339 218 222 230
1.25288162 0 63.4593381 218 222 230
0.860467014 0 63.7181079 218 222 230
-2.22044605e-16 67.8290531 60.0525365 218 222 230
0.0399914603 68.1789073 60.0529501 218 222 230
0.16032607 68.5156401 60.0591941 218 222 230
0.337168511 68.7943199 60.0821572 218 222 230
0.548824047 69.0124688 60.1320519 218 222 230
0.798133121 69.1846601 60.2249283 218 222 230
1.06084421 69.3000585 60.3694941 218 222 230
1.30818339 69.3603277 60.5621812 218 222 230
1.43610799 69.375139 60.691288 218 222 230
1.550297 69.3793501 60.8304254 218 222 230
1.7600569 69.3793501 61.1852517 218 222 230
1.88985024 69.3793501 61.5764737 218 222 230
1.93377999 69.3793501 61.9863165 218 222 230
1.88985024 69.3793501 62.3961593 218 222 230
1.7600569 69.3793501 62.7873813 218 222 230
1.550297 69.3793501 63.1422076 218 222 230
0.860467014 69.2174174 63.7181079 218 222 230
1.11513932 69.3170244 63.5661802 218 222 230
1.3502863 69.3663939 63.3705968 218 222 230
0 1.550297 -2.22044605e-16 218 222 230
0 67.8290531 -2.22044605e-16 218 222 230
31.3988352 1.550297 -2.22044605e-16 218 222 230
31.4533395 1.54775309 0 218 222 230
31.4887447 1.550297 0 218 222 230
60.6899299 1.550297 -2.22044605e-16 218 222 230
60.6899299 67.8290531 -2.22044605e-16 218 222 230
31.4887447 67.8290531 0 218 222 230
31.4533395 67.831597 0 218 222 230
31.3988352 67.8290531 -2.22044605e-16 218 222 230
0 67.8290531 -2.22044605e-16 255 79 163
-2.22044605e-16 67.8290531 60.0525365 255 79 163
0.0399914603 68.1789073 60.0529501 255 79 163
0.16032607 68.5156401 60.0591941 255 79 163
0.337168511 68.7943199 60.0821572 255 79 163
0.548824047 69.0124688 60.1320519 255 79 163
0.798133121 69.1846601 60.2249283 255 79 163
1.06084421 69.3000585 60.3694941 255 79 163
1.30818339 69.3603277 60.5621812 255 79 163
1.43610799 69.375139 60.691288 255 79 163
1.550297 69.3793501 60.8304254 255 79 163
1.550297 69.3793501 1.550297 255 79 163
1.04616916 69.295094 1.04616916 255 79 163
0.63784122 69.0823868 0.63784122 255 79 163
0.338260908 68.7956913 0.338260908 255 79 163
0.158361095 68.5116476 0.158361095 255 79 163
0.0581874069 68.2498022 0.0581874069 255 79 163
0.0146157482 68.0414299 0.0146157482 255 79 163
62.240227 0 1.550297 218 222 230
62.240227 -4.64123766e-16 34.124477 218 222 230
62.240227 69.3793501 1.550297 218 222 230
62.240227 69.3793501 93.7854327 218 222 230
62.240227 1.550297 93.7854327 218 222 230
62.240227 -2.22044605e-16 92.2351357 218 222 230
62.240227 0.0388691826 92.5801092 218 222 230
62.240227 0.153527667 92.9077843 218 222 230
62.240227 0.338225999 93.20173 218 222 230
62.240227 0.583702632 93.4472067 218 222 230
62.240227 0.877648344 93.631905 218 222 230
62.240227 1.20532347 93.7465635 218 222 230
62.240227 0 51.7016221 218 222 230
62.240227 0.0420213983 51.3431176 218 222 230
62.240227 0.165807581 51.0040479 218 222 230
62.240227 0.364648003 50.7027942 218 222 230
62.240227 0.627763372 50.4556877 218 222 230
62.240227 0.940890001 50.2761243 218 222 230
62.240227 1.28705305 50.1738383 218 222 230
62.240227 7.57971639 42.7041934 218 222 230
62.240227 7.42859071 44.2102281 218 222 230
62.240227 6.98124001 45.6562077 218 222 230
62.240227 6.255503 46.9844717 218 222 230
62.240227 5.28031942 48.1420539 218 222 230
62.240227 4.09457601 49.0827942 218 222 230
62.240227 2.74555589 49.7691791 218 222 230
62.240227 7.57971639 41.7041934 218 222 230
62.240227 1.47872931 34.2701191 218 222 230
62.240227 2.90063189 34.7014485 218 222 230
62.240227 4.2110648 35.4018895 218 222 230
62.240227 5.35966886 36.3445245 218 222 230
62.240227 6.30230385 37.4931286 218 222 230
62.240227 7.00274484 38.8035615 218 222 230
62.240227 7.43407427 40.2254641 218 222 230
31.4887447 0 1.550297 255 79 163
31.4887447 0.0434301011 1.18591679 255 79 163
31.4887447 0.164880914 0.854564974 255 79 163
31.4887447 0.343180116 0.577522817 255 79 163
31.4887447 0.578950188 0.342031237 255 79 163
31.4887447 0.856165784 0.164078172 255 79 163
31.4887447 1.15411346 0.0514776684 255 79 163
31.4887447 1.35492149 0.0123603312 255 79 163
31.4887447 1.550297 0 255 79 163
60.6899299 1.550297 -2.22044605e-16 255 79 163
61.1940578 1.04616916 0.0842561051 255 79 163
61.6023857 0.63784122 0.296963353 255 79 163
61.901966 0.338260908 0.58365886 255 79 163
62.0818659 0.158361095 0.867702523 255 79 163
62.1820395 0.0581874069 1.12954797 255 79 163
62.2256112 0.0146157482 1.33792026 255 79 163
62.240227 0 1.550297 255 79 163
62.240227 -4.64123766e-16 34.124477 218 222 230
46.0262055 -4.64123766e-16 34.124477 218 222 230
46.0262055 1.47872931 34.2701191 218 222 230
46.0262055 2.90063189 34.7014485 218 222 230
46.0262055 4.2110648 35.4018895 218 222 230
46.0262055 5.35966886 36.3445245 218 222 230
46.0262055 6.30230385 37.4931286 218 222 230
46.0262055 7.00274484 38.8035615 218 222 230
46.0262055 7.43407427 40.2254641 218 222 230
46.0262055 7.57971639 41.7041934 218 222 230
62.240227 7.57971639 41.7041934 218 222 230
62.240227 1.47872931 34.2701191 218 222 230
62.240227 2.90063189 34.7014485 218 222 230
62.240227 4.2110648 35.4018895 218 222 230
62.240227 5.35966886 36.3445245 218 222 230
62.240227 6.30230385 37.4931286 218 222 230
62.240227 7.00274484 38.8035615 218 222 230
62.240227 7.43407427 40.2254641 218 222 230
31.4887447 0 1.550297 218 222 230
31.7355307 0 2.16909455 218 222 230
31.4533395 0 1.4615211 218 222 230
31.4533395 69.3793501 1.4615211 218 222 230
31.4887447 69.3793501 1.550297 218 222 230
31.7355307 69.3793501 2.16909455 218 222 230
46.0262055 7.57971639 42.7041934 218 222 230
46.0262055 7.42859071 44.2102281 218 222 230
46.0262055 6.98124001 45.6562077 218 222 230
46.0262055 6.255503 46.9844717 218 222 230
46.0262055 5.28031942 48.1420539 218 222 230
46.0262055 4.09457601 49.0827942 218 222 230
46.0262055 2.74555589 49.7691791 218 222 230
46.0262055 1.28705305 50.1738383 218 222 230
46.0262055 0 51.7016221 218 222 230
46.0262055 0.0420213983 51.3431176 218 222 230
46.0262055 0.165807581 51.0040479 218 222 230
46.0262055 0.364648003 50.7027942 218 222 230
46.0262055 0.627763372 50.4556877 218 222 230
46.0262055 0.940890001 50.2761243 218 222 230
46.0262055 9.28247546e-16 50.2839098 218 222 230
46.0262055 -4.64123766e-16 34.124477 218 222 230
46.0262055 1.47872931 34.2701191 218 222 230
46.0262055 2.90063189 34.7014485 218 222 230
46.0262055 4.2110648 35.4018895 218 222 230
46.0262055 5.35966886 36.3445245 218 222 230
46.0262055 6.30230385 37.4931286 218 222 230
46.0262055 7.00274484 38.8035615 218 222 230
46.0262055 7.43407427 40.2254641 218 222 230
46.0262055 7.57971639 41.7041934 218 222 230
30.5209615 0 4.27720862 218 222 230
30.8582698 0 4.18794599 218 222 230
31.1670726 0 4.0255097 218 222 230
31.4317275 0 3.79812793 218 222 230
31.6388285 0 3.51731864 218 222 230
31.7778851 0 3.19730616 218 222 230
31.8418532 0 2.85430064 218 222 230
31.8274926 0 2.50567696 218 222 230
31.7355307 0 2.16909455 218 222 230
31.7355307 69.3793501 2.16909455 218 222 230
30.5209615 69.3793501 4.27720862 218 222 230
30.8582698 69.3793501 4.18794599 218 222 230
31.1670726 69.3793501 4.0255097 218 222 230
31.4317275 69.3793501 3.79812793 218 222 230
31.6388285 69.3793501 3.51731864 218 222 230
31.7778851 69.3793501 3.19730616 218 222 230
31.8418532 69.3793501 2.85430064 218 222 230
31.8274926 69.3793501 2.50567696 218 222 230
30.5209615 0 4.27720862 218 222 230
29.6456518 0 4.40585715 218 222 230
30.5209615 69.3793501 4.27720862 218 222 230
29.6456518 69.3793501 4.40585715 218 222 230
62.240227 0 51.7016221 218 222 230
46.0262055 0 51.7016221 218 222 230
46.0262055 0.0420213983 51.3431176 218 222 230
46.0262055 0.165807581 51.0040479 218 222 230
46.0262055 0.364648003 50.7027942 218 222 230
46.0262055 0.627763372 50.4556877 218 222 230
46.0262055 0.940890001 50.2761243 218 222 230
46.0262055 1.28705305 50.1738383 218 222 230
62.240227 1.28705305 50.1738383 218 222 230
62.240227 0.0420213983 51.3431176 218 222 230
62.240227 0.165807581 51.0040479 218 222 230
62.240227 0.364648003 50.7027942 218 222 230
62.240227 0.627763372 50.4556877 218 222 230
62.240227 0.940890001 50.2761243 218 222 230
29.6456518 0 4.40585715 218 222 230
31.3988352 -2.22044605e-16 1.550297 218 222 230
29.6456518 69.3793501 4.40585715 218 222 230
31.3988352 69.3793501 1.550297 218 222 230
31.4533395 69.3793501 1.4615211 218 222 230
31.4533395 0 1.4615211 218 222 230
-2.22044605e-16 0 92.2351357 255 79 163
62.240227 -2.22044605e-16 92.2351357 255 79 163
62.240227 0.0388691826 92.5801092 255 79 163
62.240227 0.153527667 92.9077843 255 79 163
62.240227 0.338225999 93.20173 255 79 163
62.240227 0.583702632 93.4472067 255 79 163
62.240227 0.877648344 93.631905 255 79 163
62.240227 1.20532347 93.7465635 255 79 163
62.240227 1.550297 93.7854327 255 79 163
1.550297 1.550297 93.7854327 255 79 163
0.0228538874 0.0228538874 92.5003494 255 79 163
0.0907417429 0.0907417429 92.7577438 255 79 163
0.201662013 0.201662013 92.99973 255 79 163
0.352344409 0.352344409 93.2191734 255 79 163
0.538346325 0.538346325 93.4096043 255 79 163
0.754183824 0.754183824 93.565408 255 79 163
1.07727569 1.07727569 93.7115068 255 79 163
1.3109154 1.3109154 93.7668397 255 79 163
0 0 65.1064722 218 222 230
-2.22044605e-16 0 92.2351357 218 222 230
0 67.8290531 65.1064722 218 222 230
-2.22044605e-16 67.8290531 92.2351357 218 222 230
0.860467014 0 63.7181079 255 79 163
0.571786547 0 63.9040006 255 79 163
0.331103927 0 64.1488768 255 79 163
0.150225107 0 64.4407249 255 79 163
0.0380225469 0 64.7652292 255 79 163
0 0 65.1064722 255 79 163
0 67.8290531 65.1064722 255 79 163
0.0851123441 68.3356641 64.5998612 255 79 163
0.299907163 68.7455388 64.1899865 255 79 163
0.556785889 69.0191609 63.9163645 255 79 163
0.702809109 69.1271999 63.8083254 255 79 163
0.860467014 69.2174174 63.7181079 255 79 163
5.27154867 0 29.4462578 218 222 230
5.27154867 12.0788041 29.4462578 218 222 230
5.27154867 12.0788041 28.188334 218 222 230
5.27154867 0 28.188334 218 222 230
9.58449218 0 29.4462578 218 222 230
9.58449218 12.0788041 29.4462578 218 222 230
9.52182903 12.0788041 29.9623352 218 222 230
9.33748134 12.0788041 30.4484202 218 222 230
9.04216271 12.0788041 30.876263 218 222 230
8.65303601 12.0788041 31.2209992 218 222 230
8.19271585 12.0788041 31.4625939 218 222 230
7.68795437 12.0788041 31.5870064 218 222 230
7.16808648 12.0788041 31.5870064 218 222 230
6.663325 12.0788041 31.4625939 218 222 230
6.20300484 12.0788041 31.2209992 218 222 230
5.81387814 12.0788041 30.876263 218 222 230
5.51855951 12.0788041 30.4484202 218 222 230
5.33421182 12.0788041 29.9623352 218 222 230
5.27154867 12.0788041 29.4462578 218 222 230
5.27154867 0 29.4462578 218 222 230
9.52182903 0 29.9623352 218 222 230
9.33748134 0 30.4484202 218 222 230
9.04216271 0 30.876263 218 222 230
8.65303601 0 31.2209992 218 222 230
8.19271585 0 31.4625939 218 222 230
7.68795437 0 31.5870064 218 222 230
7.16808648 0 31.5870064 218 222 230
6.663325 0 31.4625939 218 222 230
6.20300484 0 31.2209992 218 222 230
5.81387814 0 30.876263 218 222 230
5.51855951 0 30.4484202 218 222 230
5.33421182 0 29.9623352 218 222 230
9.58449218 0 28.188334 218 222 230
9.58449218 12.0788041 28.188334 218 222 230
9.58449218 12.0788041 29.4462578 218 222 230
9.58449218 0 29.4462578 218 222 230
5.27154867 0 28.188334 218 222 230
5.27154867 12.0788041 28.188334 218 222 230
5.33421182 12.0788041 27.6722565 218 222 230
5.51855951 12.0788041 27.1861716 218 222 230
5.81387814 12.0788041 26.7583287 218 222 230
6.20300484 12.0788041 26.4135925 218 222 230
6.663325 12.0788041 26.1719979 218 222 230
7.16808648 12.0788041 26.0475853 218 222 230
7.68795437 12.0788041 26.0475853 218 222 230
8.19271585 12.0788041 26.1719979 218 222 230
8.65303601 12.0788041 26.4135925 218 222 230
9.04216271 12.0788041 26.7583287 218 222 230
9.33748134 12.0788041 27.1861716 218 222 230
9.52182903 12.0788041 27.6722565 218 222 230
9.58449218 12.0788041 28.188334 218 222 230
9.58449218 0 28.188334 218 222 230
5.33421182 0 27.6722565 218 222 230
5.51855951 0 27.1861716 218 222 230
5.81387814 0 26.7583287 218 222 230
6.20300484 0 26.4135925 218 222 230
6.663325 0 26.1719979 218 222 230
7.16808648 0 26.0475853 218 222 230
7.68795437 0 26.0475853 218 222 230
8.19271585 0 26.1719979 218 222 230
8.65303601 0 26.4135925 218 222 230
9.04216271 0 26.7583287 218 222 230
9.33748134 0 27.1861716 218 222 230
9.52182903 0 27.6722565 218 222 230
34.3599044 69.3793501 34.2458095 218 222 230
35.7119178 69.3793501 31.9458432 218 222 230
34.3599044 0 34.2458095 218 222 230
35.7119178 0 31.9458432 218 222 230
35.7119178 69.3793501 31.9458432 218 222 230
35.7119178 0 31.9458432 218 222 230
35.8460561 0 31.6508043 218 222 230
35.9159211 0 31.3343238 218 222 230
35.9184594 0 31.0102335 218 222 230
35.85356 0 30.6926975 218 222 230
35.7240595 0 30.3955938 218 222 230
35.7240595 69.3793501 30.3955938 218 222 230
35.8460561 69.3793501 31.6508043 218 222 230
35.9159211 69.3793501 31.3343238 218 222 230
35.9184594 69.3793501 31.0102335 218 222 230
35.85356 69.3793501 30.6926975 218 222 230
30.7970316 69.3793501 34.2179047 218 222 230
34.3599044 69.3793501 34.2458095 218 222 230
30.7970316 0 34.2179047 218 222 230
34.3599044 0 34.2458095 218 222 230
35.7240595 69.3793501 30.3955938 218 222 230
34.8496845 69.3793501 28.8533625 218 222 230
35.7240595 0 30.3955938 218 222 230
34.8496845 0 28.8533625 218 222 230
29.0397614 69.3793501 31.118414 218 222 230
30.7970316 69.3793501 34.2179047 218 222 230
29.0397614 0 31.118414 218 222 230
30.7970316 0 34.2179047 218 222 230
34.8496845 69.3793501 28.8533625 218 222 230
34.8496845 0 28.8533625 218 222 230
34.6612425 0 28.5896759 218 222 230
34.4220949 0 28.3709307 218 222 230
34.1426935 0 28.2066873 218 222 230
33.8352496 0 28.1041238 218 222 230
33.5132 0 28.0677227 218 222 230
33.5132 69.3793501 28.0677227 218 222 230
34.6612425 69.3793501 28.5896759 218 222 230
34.4220949 69.3793501 28.3709307 218 222 230
34.1426935 69.3793501 28.2066873 218 222 230
33.8352496 69.3793501 28.1041238 218 222 230
30.8453641 69.3793501 28.046828 218 222 230
29.0397614 69.3793501 31.118414 218 222 230
30.8453641 0 28.046828 218 222 230
29.0397614 0 31.118414 218 222 230
33.5132 69.3793501 28.0677227 218 222 230
30.8453641 69.3793501 28.046828 218 222 230
33.5132 0 28.0677227 218 222 230
30.8453641 0 28.046828 218 222 230
31.3988352 -2.22044605e-16 1.550297 255 79 163
31.3988352 0.0388691826 1.20532347 255 79 163
31.3988352 0.153527667 0.877648344 255 79 163
31.3988352 0.338225999 0.583702632 255 79 163
31.3988352 0.583702632 0.338225999 255 79 163
31.3988352 0.877648344 0.153527667 255 79 163
31.3988352 1.20532347 0.0388691826 255 79 163
31.3988352 1.550297 -2.22044605e-16 255 79 163
31.4533395 0 1.4615211 255 79 163
31.4533395 0.0640148551 1.10091783 255 79 163
31.4533395 0.203084618 0.778748244 255 79 163
31.4533395 0.39450754 0.514224858 255 79 163
31.4533395 0.639396044 0.29398961 255 79 163
31.4533395 0.921146729 0.132275402 255 79 163
31.4533395 1.21935636 0.0351810391 255 79 163
31.4533395 1.38557914 0.00850570505 255 79 163
31.4533395 1.54775309 0 255 79 163
31.4170033 0.464301828 0.443658591 255 79 163
31.4351714 0.47406971 0.433342776 255 79 163
0 67.8290531 65.1064722 255 79 163
0.0851123441 68.3356641 64.5998612 255 79 163
0.299907163 68.7455388 64.1899865 255 79 163
0.556785889 69.0191609 63.9163645 255 79 163
0.702809109 69.1271999 63.8083254 255 79 163
0.860467014 69.2174174 63.7181079 255 79 163
-2.22044605e-16 67.8290531 92.2351357 255 79 163
0.0842561051 68.333181 92.7392635 255 79 163
0.296963353 68.7415089 93.1475914 255 79 163
0.58365886 69.0410892 93.4471717 255 79 163
0.867702523 69.220989 93.6270716 255 79 163
1.12954797 69.3211627 93.7272452 255 79 163
1.33792026 69.3647344 93.7708169 255 79 163
1.550297 69.3793501 93.7854327 255 79 163
1.550297 69.3793501 63.1422076 255 79 163
1.11513932 69.3170244 63.5661802 255 79 163
1.3502863 69.3663939 63.3705968 255 79 163
62.240227 69.3793501 1.550297 218 222 230
62.240227 69.3793501 93.7854327 218 222 230
31.4887447 69.3793501 1.550297 218 222 230
31.7355307 69.3793501 2.16909455 218 222 230
30.5209615 69.3793501 4.27720862 218 222 230
30.8582698 69.3793501 4.18794599 218 222 230
31.1670726 69.3793501 4.0255097 218 222 230
31.4317275 69.3793501 3.79812793 218 222 230
31.6388285 69.3793501 3.51731864 218 222 230
31.7778851 69.3793501 3.19730616 218 222 230
31.8418532 69.3793501 2.85430064 218 222 230
31.8274926 69.3793501 2.50567696 218 222 230
29.6456518 69.3793501 4.40585715 218 222 230
31.3988352 69.3793501 1.550297 218 222 230
1.550297 69.3793501 1.550297 218 222 230
1.550297 69.3793501 60.8304254 218 222 230
1.7600569 69.3793501 61.1852517 218 222 230
1.88985024 69.3793501 61.5764737 218 222 230
1.93377999 69.3793501 61.9863165 218 222 230
1.88985024 69.3793501 62.3961593 218 222 230
1.7600569 69.3793501 62.7873813 218 222 230
1.550297 69.3793501 63.1422076 218 222 230
1.550297 69.3793501 93.7854327 218 222 230
34.3599044 69.3793501 34.2458095 218 222 230
35.7119178 69.3793501 31.9458432 218 222 230
30.7970316 69.3793501 34.2179047 218 222 230
29.0397614 69.3793501 31.118414 218 222 230
30.8453641 69.3793501 28.046828 218 222 230
33.5132 69.3793501 28.0677227 218 222 230
34.8496845 69.3793501 28.8533625 218 222 230
34.6612425 69.3793501 28.5896759 218 222 230
34.4220949 69.3793501 28.3709307 218 222 230
34.1426935 69.3793501 28.2066873 218 222 230
33.8352496 69.3793501 28.1041238 218 222 230
35.7240595 69.3793501 30.3955938 218 222 230
35.8460561 69.3793501 31.6508043 218 222 230
35.9159211 69.3793501 31.3343238 218 222 230
35.9184594 69.3793501 31.0102335 218 222 230
35.85356 69.3793501 30.6926975 218 222 230
1.550297 69.3793501 1.550297 255 79 163
31.3988352 69.3793501 1.550297 255 79 163
31.3988352 69.3404809 1.20532347 255 79 163
31.3988352 69.2258225 0.877648344 255 79 163
31.3988352 69.0411241 0.583702632 255 79 163
31.3988352 68.7956475 0.338225999 255 79 163
31.3988352 68.5017018 0.153527667 255 79 163
31.3988352 68.1740267 0.0388691826 255 79 163
31.3988352 67.8290531 -2.22044605e-16 255 79 163
0 67.8290531 -2.22044605e-16 255 79 163
1.04616916 69.295094 1.04616916 255 79 163
0.63784122 69.0823868 0.63784122 255 79 163
0.338260908 68.7956913 0.338260908 255 79 163
0.158361095 68.5116476 0.158361095 255 79 163
0.0581874069 68.2498022 0.0581874069 255 79 163
0.0146157482 68.0414299 0.0146157482 255 79 163
31.3988352 69.3793501 1.550297 255 79 163
31.3988352 69.3404809 1.20532347 255 79 163
31.3988352 69.2258225 0.877648344 255 79 163
31.3988352 69.0411241 0.583702632 255 79 163
31.3988352 68.7956475 0.338225999 255 79 163
31.3988352 68.5017018 0.153527667 255 79 163
31.3988352 68.1740267 0.0388691826 255 79 163
31.3988352 67.8290531 -2.22044605e-16 255 79 163
31.4533395 69.3793501 1.4615211 255 79 163
31.4533395 69.3153353 1.10091783 255 79 163
31.4533395 69.1762655 0.778748244 255 79 163
31.4533395 68.9848426 0.514224858 255 79 163
31.4533395 68.7399541 0.29398961 255 79 163
31.4533395 68.4582034 0.132275402 255 79 163
31.4533395 68.1599938 0.0351810391 255 79 163
31.4533395 67.993771 0.00850570505 255 79 163
31.4533395 67.831597 0 255 79 163
31.4170033 68.9150483 0.443658591 255 79 163
31.4351714 68.9052804 0.433342776 255 79 163
31.4533395 0 1.4615211 255 79 163
31.4533395 0.0640148551 1.10091783 255 79 163
31.4533395 0.203084618 0.778748244 255 79 163
31.4533395 0.39450754 0.514224858 255 79 163
31.4533395 0.639396044 0.29398961 255 79 163
31.4533395 0.921146729 0.132275402 255 79 163
31.4533395 1.21935636 0.0351810391 255 79 163
31.4533395 1.38557914 0.00850570505 255 79 163
31.4533395 1.54775309 0 255 79 163
31.4887447 0 1.550297 255 79 163
31.4887447 0.0434301011 1.18591679 255 79 163
31.4887447 0.164880914 0.854564974 255 79 163
31.4887447 0.343180116 0.577522817 255 79 163
31.4887447 0.578950188 0.342031237 255 79 163
31.4887447 0.856165784 0.164078172 255 79 163
31.4887447 1.15411346 0.0514776684 255 79 163
31.4887447 1.35492149 0.0123603312 255 79 163
31.4887447 1.550297 0 255 79 163
31.4651413 0.47406971 0.433342776 255 79 163
31.476943 0.464301828 0.443658591 255 79 163
31.4533395 69.3793501 1.4615211 255 79 163
31.4533395 69.3153353 1.10091783 255 79 163
31.4533395 69.1762655 0.778748244 255 79 163
31.4533395 68.9848426 0.514224858 255 79 163
31.4533395 68.7399541 0.29398961 255 79 163
31.4533395 68.4582034 0.132275402 255 79 163
31.4533395 68.1599938 0.0351810391 255 79 163
31.4533395 67.993771 0.00850570505 255 79 163
31.4533395 67.831597 0 255 79 163
31.4887447 69.3793501 1.550297 255 79 163
31.4887447 69.33592 1.18591679 255 79 163
31.4887447 69.2144692 0.854564974 255 79 163
31.4887447 69.03617 0.577522817 255 79 163
31.4887447 68.8003999 0.342031237 255 79 163
31.4887447 68.5231843 0.164078172 255 79 163
31.4887447 68.2252367 0.0514776684 255 79 163
31.4887447 68.0244286 0.0123603312 255 79 163
31.4887447 67.8290531 0 255 79 163
31.4651413 68.9052804 0.433342776 255 79 163
31.476943 68.9150483 0.443658591 255 79 163
31.4887447 69.3793501 1.550297 255 79 163
62.240227 69.3793501 1.550297 255 79 163
62.2173731 69.3564962 1.28508327 255 79 163
62.1494852 69.2886084 1.02768889 255 79 163
62.0385649 69.1776881 0.785702693 255 79 163
61.8878825 69.0270057 0.566259211 255 79 163
61.7018806 68.8410038 0.375828348 255 79 163
61.4860431 68.6251663 0.220024624 255 79 163
61.1629513 68.3020744 0.0739259015 255 79 163
60.9293115 68.0684347 0.0185929697 255 79 163
60.6899299 67.8290531 -2.22044605e-16 255 79 163
31.4887447 67.8290531 0 255 79 163
31.4887447 69.33592 1.18591679 255 79 163
31.4887447 69.2144692 0.854564974 255 79 163
31.4887447 69.03617 0.577522817 255 79 163
31.4887447 68.8003999 0.342031237 255 79 163
31.4887447 68.5231843 0.164078172 255 79 163
31.4887447 68.2252367 0.0514776684 255 79 163
31.4887447 68.0244286 0.0123603312 255 79 163
60.6899299 1.550297 -2.22044605e-16 255 79 163
60.6899299 67.8290531 -2.22044605e-16 255 79 163
62.240227 69.3793501 1.550297 255 79 163
62.2173731 69.3564962 1.28508327 255 79 163
62.1494852 69.2886084 1.02768889 255 79 163
62.0385649 69.1776881 0.785702693 255 79 163
61.8878825 69.0270057 0.566259211 255 79 163
61.7018806 68.8410038 0.375828348 255 79 163
61.4860431 68.6251663 0.220024624 255 79 163
61.1629513 68.3020744 0.0739259015 255 79 163
60.9293115 68.0684347 0.0185929697 255 79 163
62.240227 0 1.550297 255 79 163
61.1940578 1.04616916 0.0842561051 255 79 163
61.6023857 0.63784122 0.296963353 255 79 163
61.901966 0.338260908 0.58365886 255 79 163
62.0818659 0.158361095 0.867702523 255 79 163
62.1820395 0.0581874069 1.12954797 255 79 163
62.2256112 0.0146157482 1.33792026 255 79 163
62.240227 7.57971639 41.7041934 218 222 230
46.0262055 7.57971639 41.7041934 218 222 230
46.0262055 7.57971639 42.7041934 218 222 230
62.240227 7.57971639 42.7041934 218 222 230
1.550297 69.3793501 93.7854327 218 222 230
62.240227 69.3793501 93.7854327 218 222 230
1.550297 1.550297 93.7854327 218 222 230
62.240227 1.550297 93.7854327 218 222 230
62.240227 7.57971639 42.7041934 218 222 230
62.240227 7.42859071 44.2102281 218 222 230
62.240227 6.98124001 45.6562077 218 222 230
62.240227 6.255503 46.9844717 218 222 230
62.240227 5.28031942 48.1420539 218 222 230
62.240227 4.09457601 49.0827942 218 222 230
62.240227 2.74555589 49.7691791 218 222 230
62.240227 1.28705305 50.1738383 218 222 230
46.0262055 7.57971639 42.7041934 218 222 230
46.0262055 7.42859071 44.2102281 218 222 230
46.0262055 6.98124001 45.6562077 218 222 230
46.0262055 6.255503 46.9844717 218 222 230
46.0262055 5.28031942 48.1420539 218 222 230
46.0262055 4.09457601 49.0827942 218 222 230
46.0262055 2.74555589 49.7691791 218 222 230
46.0262055 1.28705305 50.1738383 218 222 230
-2.22044605e-16 0 92.2351357 255 79 163
0.0228538874 0.0228538874 92.5003494 255 79 163
0.0907417429 0.0907417429 92.7577438 255 79 163
0.201662013 0.201662013 92.99973 255 79 163
0.352344409 0.352344409 93.2191734 255 79 163
0.538346325 0.538346325 93.4096043 255 79 163
0.754183824 0.754183824 93.565408 255 79 163
1.07727569 1.07727569 93.7115068 255 79 163
1.3109154 1.3109154 93.7668397 255 79 163
1.550297 1.550297 93.7854327 255 79 163
1.550297 69.3793501 93.7854327 255 79 163
-2.22044605e-16 67.8290531 92.2351357 255 79 163
0.0842561051 68.333181 92.7392635 255 79 163
0.296963353 68.7415089 93.1475914 255 79 163
0.58365886 69.0410892 93.4471717 255 79 163
0.867702523 69.220989 93.6270716 255 79 163
1.12954797 69.3211627 93.7272452 255 79 163
1.33792026 69.3647344 93.7708169 255 79 163
5.27154867 12.0788041 28.188334 218 222 230
5.33421182 12.0788041 27.6722565 218 222 230
5.51855951 12.0788041 27.1861716 218 222 230
5.81387814 12.0788041 26.7583287 218 222 230
6.20300484 12.0788041 26.4135925 218 222 230
6.663325 12.0788041 26.1719979 218 222 230
7.16808648 12.0788041 26.0475853 218 222 230
7.68795437 12.0788041 26.0475853 218 222 230
8.19271585 12.0788041 26.1719979 218 222 230
8.65303601 12.0788041 26.4135925 218 222 230
9.04216271 12.0788041 26.7583287 218 222 230
9.33748134 12.0788041 27.1861716 218 222 230
9.52182903 12.0788041 27.6722565 218 222 230
9.58449218 12.0788041 28.188334 218 222 230
9.58449218 12.0788041 29.4462578 218 222 230
9.52182903 12.0788041 29.9623352 218 222 230
9.33748134 12.0788041 30.4484202 218 222 230
9.04216271 12.0788041 30.876263 218 222 230
8.65303601 12.0788041 31.2209992 218 222 230
8.19271585 12.0788041 31.4625939 218 222 230
7.68795437 12.0788041 31.5870064 218 222 230
7.16808648 12.0788041 31.5870064 218 222 230
6.663325 12.0788041 31.4625939 218 222 230
6.20300484 12.0788041 31.2209992 218 222 230
5.81387814 12.0788041 30.876263 218 222 230
5.51855951 12.0788041 30.4484202 218 222 230
5.33421182 12.0788041 29.9623352 218 222 230
5.27154867 12.0788041 29.4462578 218 222 230
3 8 10 9
3 6 8 7
3 4 6 5
3 2 4 3
3 2 6 4
3 0 8 6
3 0 6 2
3 1 10 8
3 1 8 0
3 54 53 25
3 52 25 53
3 55 54 25
3 51 25 52
3 56 55 25
3 50 25 51
3 57 56 25
3 23 25 24
3 58 57 25
3 58 25 23
3 49 25 50
3 59 58 23
3 60 59 23
3 81 23 15
3 81 60 23
3 81 61 60
3 81 62 61
3 26 73 72
3 26 74 73
3 26 75 74
3 26 76 75
3 26 49 76
3 26 25 49
3 80 62 81
3 80 63 62
3 80 64 63
3 80 65 64
3 80 66 65
3 80 67 66
3 27 26 72
3 27 72 71
3 28 27 71
3 28 71 70
3 82 15 16
3 82 81 15
3 29 28 70
3 29 70 69
3 87 16 17
3 87 82 16
3 86 17 18
3 86 87 17
3 30 29 69
3 85 18 19
3 85 86 18
3 84 85 19
3 11 14 13
3 11 19 20
3 11 20 21
3 11 21 22
3 11 22 14
3 11 84 19
3 37 39 38
3 40 39 37
3 79 31 30
3 79 67 80
3 79 68 67
3 79 69 68
3 79 30 69
3 42 40 37
3 42 36 35
3 42 37 36
3 42 41 40
3 48 77 78
3 48 83 84
3 48 88 83
3 48 78 89
3 48 89 90
3 48 90 91
3 48 91 92
3 48 92 88
3 48 84 11
3 43 42 35
3 47 77 48
3 47 79 77
3 12 48 11
3 46 31 79
3 46 43 35
3 46 32 31
3 46 33 32
3 46 34 33
3 46 35 34
3 46 79 47
3 44 46 45
3 44 43 46
3 102 93 94
3 103 94 95
3 103 102 94
3 104 95 96
3 104 103 95
3 105 96 97
3 105 104 96
3 106 97 98
3 106 105 97
3 107 98 99
3 107 106 98
3 108 107 99
3 101 99 100
3 101 108 99
3 109 122 121
3 109 123 122
3 110 124 123
3 110 125 124
3 110 126 125
3 110 123 109
3 111 127 126
3 111 126 110
3 112 128 127
3 112 129 128
3 112 127 111
3 113 130 129
3 113 131 130
3 113 129 112
3 114 132 131
3 114 131 113
3 115 133 132
3 115 132 114
3 116 134 133
3 116 133 115
3 117 135 134
3 117 134 116
3 118 136 135
3 118 139 136
3 118 135 117
3 119 138 139
3 119 139 118
3 120 137 138
3 120 138 119
3 144 143 142
3 141 142 140
3 149 142 141
3 147 149 148
3 147 144 142
3 147 142 149
3 146 145 144
3 146 144 147
3 159 160 161
3 158 161 162
3 158 159 161
3 157 158 162
3 156 162 163
3 156 157 162
3 155 163 164
3 155 156 163
3 154 155 164
3 153 164 165
3 153 165 166
3 153 154 164
3 152 166 167
3 152 153 166
3 151 167 150
3 151 152 167
3 197 168 198
3 199 168 170
3 199 198 168
3 196 168 197
3 200 199 170
3 195 168 196
3 201 200 170
3 169 168 195
3 194 201 170
3 187 170 171
3 187 194 170
3 188 187 171
3 189 188 171
3 190 189 171
3 191 190 171
3 181 182 183
3 180 183 184
3 180 184 185
3 180 185 186
3 180 193 192
3 180 186 193
3 180 181 183
3 172 192 191
3 172 191 171
3 173 192 172
3 173 180 192
3 176 174 173
3 176 175 174
3 176 172 179
3 176 173 172
3 177 176 179
3 177 179 178
3 217 202 203
3 217 218 202
3 216 203 204
3 216 217 203
3 215 216 204
3 214 204 205
3 214 205 206
3 214 215 204
3 213 206 207
3 213 214 206
3 212 207 208
3 212 208 209
3 212 213 207
3 211 209 210
3 211 212 209
3 230 220 219
3 230 221 220
3 230 222 221
3 231 222 230
3 232 223 222
3 232 224 223
3 232 222 231
3 233 224 232
3 234 225 224
3 234 224 233
3 235 226 225
3 235 225 234
3 236 227 226
3 236 226 235
3 229 228 227
3 229 227 236
3 239 241 240
3 237 241 239
3 238 242 241
3 238 241 237
3 258 259 260
3 258 260 261
3 266 261 262
3 266 262 263
3 266 263 264
3 266 264 265
3 266 258 261
3 243 258 266
3 245 243 244
3 247 245 246
3 248 243 245
3 248 245 247
3 257 248 249
3 257 249 250
3 257 256 255
3 257 250 256
3 257 258 243
3 257 243 248
3 254 257 255
3 253 257 254
3 252 257 253
3 251 257 252
3 278 268 267
3 278 269 268
3 278 267 277
3 279 270 269
3 279 269 278
3 280 271 270
3 280 270 279
3 281 271 280
3 282 272 271
3 282 271 281
3 283 273 272
3 283 272 282
3 284 274 273
3 284 273 283
3 276 275 274
3 276 274 284
3 285 288 287
3 286 288 285
3 295 296 297
3 295 302 301
3 295 297 302
3 294 295 301
3 293 301 300
3 293 294 301
3 292 300 299
3 292 293 300
3 291 299 298
3 291 292 299
3 290 298 289
3 290 291 298
3 304 305 303
3 304 306 305
3 308 307 306
3 308 306 304
3 317 318 326
3 316 326 325
3 316 317 326
3 315 325 324
3 315 316 325
3 314 324 323
3 314 315 324
3 313 322 321
3 313 323 322
3 313 314 323
3 312 321 320
3 312 313 321
3 311 320 319
3 311 312 320
3 310 319 309
3 310 311 319
3 328 329 327
3 328 330 329
3 341 331 332
3 341 342 331
3 340 332 333
3 340 341 332
3 339 333 334
3 339 340 333
3 338 334 335
3 338 339 334
3 337 335 336
3 337 338 335
3 346 344 343
3 346 345 344
3 363 348 347
3 363 349 348
3 364 350 349
3 364 349 363
3 365 351 350
3 365 352 351
3 365 350 364
3 366 353 352
3 366 352 365
3 367 354 353
3 367 353 366
3 368 354 367
3 369 355 354
3 369 354 368
3 370 356 355
3 370 355 369
3 371 357 356
3 371 356 370
3 372 358 357
3 372 357 371
3 373 359 358
3 373 358 372
3 374 360 359
3 374 359 373
3 362 361 360
3 362 360 374
3 378 376 375
3 378 377 376
3 395 380 379
3 395 381 380
3 396 382 381
3 396 383 382
3 396 381 395
3 397 384 383
3 397 383 396
3 398 385 384
3 398 384 397
3 399 385 398
3 400 386 385
3 400 385 399
3 401 387 386
3 401 388 387
3 401 386 400
3 402 388 401
3 403 389 388
3 403 390 389
3 403 388 402
3 404 390 403
3 405 391 390
3 405 390 404
3 406 392 391
3 406 393 392
3 406 391 405
3 394 393 406
3 408 409 407
3 408 410 409
3 416 418 417
3 416 421 422
3 416 422 418
3 415 421 416
3 414 419 420
3 414 420 421
3 414 421 415
3 413 419 414
3 412 411 419
3 412 419 413
3 423 426 425
3 424 426 423
3 428 429 427
3 428 430 429
3 432 433 431
3 432 434 433
3 440 442 441
3 440 446 442
3 439 445 446
3 439 446 440
3 438 443 444
3 438 444 445
3 438 445 439
3 437 435 443
3 437 443 438
3 436 435 437
3 448 449 447
3 448 450 449
3 451 454 453
3 452 454 451
3 470 462 471
3 461 462 470
3 469 461 470
3 468 460 461
3 468 461 469
3 467 459 460
3 467 460 468
3 465 457 458
3 465 458 466
3 464 456 457
3 464 457 465
3 463 455 456
3 463 456 464
3 472 458 459
3 472 466 458
3 473 467 466
3 473 472 459
3 473 459 467
3 473 466 472
3 487 488 490
3 486 490 489
3 486 487 490
3 485 486 489
3 484 479 478
3 484 489 479
3 484 485 489
3 483 478 477
3 483 484 478
3 482 476 475
3 482 477 476
3 482 483 477
3 481 475 474
3 481 482 475
3 480 481 474
3 503 504 505
3 518 495 503
3 518 503 505
3 517 518 505
3 519 496 495
3 519 495 518
3 524 497 496
3 524 496 519
3 523 498 497
3 523 497 524
3 506 517 505
3 522 499 498
3 522 498 523
3 521 499 522
3 491 493 494
3 491 500 499
3 491 501 500
3 491 502 501
3 491 494 502
3 491 521 520
3 491 499 521
3 516 506 507
3 516 507 508
3 516 508 509
3 516 517 506
3 525 491 520
3 529 491 525
3 528 491 529
3 527 491 528
3 526 491 527
3 514 509 510
3 514 516 509
3 513 511 512
3 492 491 526
3 492 511 513
3 492 510 511
3 492 515 514
3 492 526 515
3 492 514 510
3 538 539 545
3 537 545 544
3 537 538 545
3 536 544 543
3 536 537 544
3 535 543 542
3 535 536 543
3 534 542 541
3 534 535 542
3 533 541 540
3 533 534 541
3 532 540 530
3 532 533 540
3 531 532 530
3 561 562 553
3 552 561 553
3 560 561 552
3 559 552 551
3 559 560 552
3 558 551 550
3 558 559 551
3 556 549 548
3 556 557 549
3 555 548 547
3 555 556 548
3 554 547 546
3 554 555 547
3 563 550 549
3 563 549 557
3 564 557 558
3 564 550 563
3 564 558 550
3 564 563 557
3 572 573 582
3 581 572 582
3 571 572 581
3 580 571 581
3 570 571 580
3 579 570 580
3 569 570 579
3 578 569 579
3 567 568 577
3 576 567 577
3 566 567 576
3 575 566 576
3 565 566 575
3 574 565 575
3 583 568 569
3 583 569 578
3 584 578 577
3 584 568 583
3 584 577 568
3 584 583 578
3 592 602 593
3 601 602 592
3 591 601 592
3 600 601 591
3 590 600 591
3 599 600 590
3 589 599 590
3 598 599 589
3 587 597 588
3 596 597 587
3 586 596 587
3 595 596 586
3 585 595 586
3 594 595 585
3 603 589 588
3 603 598 589
3 604 597 598
3 604 603 588
3 604 588 597
3 604 598 603
3 615 616 623
3 614 623 622
3 614 615 623
3 613 622 621
3 613 614 622
3 612 621 620
3 612 613 621
3 611 620 619
3 611 612 620
3 610 611 619
3 609 619 618
3 609 610 619
3 608 618 617
3 608 609 618
3 607 617 605
3 607 608 617
3 606 607 605
3 626 635 641
3 627 641 640
3 627 626 641
3 628 640 639
3 628 627 640
3 629 639 638
3 629 628 639
3 630 629 638
3 631 638 637
3 631 630 638
3 632 637 636
3 632 631 637
3 633 632 636
3 634 636 624
3 634 633 636
3 625 634 624
3 645 643 642
3 645 644 643
3 647 646 648
3 647 648 649
3 650 659 658
3 651 659 650
3 652 660 659
3 652 659 651
3 653 661 660
3 653 660 652
3 654 662 661
3 654 661 653
3 655 663 662
3 655 664 663
3 655 662 654
3 656 664 655
3 657 665 664
3 657 664 656
3 677 666 667
3 678 667 668
3 678 668 669
3 678 677 667
3 679 669 670
3 679 678 669
3 680 670 671
3 680 671 672
3 680 679 670
3 681 672 673
3 681 680 672
3 682 673 674
3 682 681 673
3 683 674 675
3 683 682 674
3 676 683 675
3 709 707 708
3 705 706 707
3 711 709 710
3 711 707 709
3 703 704 705
3 698 699 700
3 698 700 701
3 698 701 702
3 698 702 703
3 698 705 707
3 698 703 705
3 698 707 711
3 697 684 685
3 697 685 686
3 697 686 687
3 697 687 688
3 697 688 689
3 697 689 690
3 697 711 684
3 697 698 711
3 691 697 690
3 692 697 691
3 695 696 697
3 693 697 692
3 694 695 697
3 694 697 693
