ply
format ascii 1.0
comment generated by blendit.inference.finetune_visualize
element vertex 454
property float x
property float y
property float z
property uchar red
property uchar green
property uchar blue
element face 437
property list uchar int vertex_indices
end_header
-2.22044605e-16 0 1.13905001 218 222 230
0 -2.22044605e-16 33.0672606 218 222 230
-2.22044605e-16 41.9814921 1.13905001 218 222 230
-2.22044605e-16 41.9814921 34.2063106 218 222 230
0 1.13905001 34.2063106 218 222 230
0 0.0285583619 33.3207231 218 222 230
0 0.112801412 33.5614759 218 222 230
0 0.248504852 33.7774467 218 222 230
0 0.428863945 33.9578058 218 222 230
0 0.644834733 34.0935092 218 222 230
0 0.885587538 34.1777523 218 222 230
1.13905001 0 -2.22044605e-16 218 222 230
37.5627075 0 0 218 222 230
-2.22044605e-16 0 1.13905001 218 222 230
0.0285583619 0 0.885587538 218 222 230
0.112801412 0 0.644834733 218 222 230
0.248504852 0 0.428863945 218 222 230
0.428863945 0 0.248504852 218 222 230
0.644834733 0 0.112801412 218 222 230
0.885587538 0 0.0285583619 218 222 230
0 -2.22044605e-16 33.0672606 218 222 230
77.6733672 -2.22044605e-16 33.0672606 218 222 230
77.6733672 0 11.8833569 218 222 230
76.5343172 0 10.7443069 218 222 230
76.7877797 0 10.7728652 218 222 230
77.0285325 0 10.8571083 218 222 230
77.2445032 0 10.9928117 218 222 230
77.4248623 0 11.1731708 218 222 230
77.5605658 0 11.3891416 218 222 230
77.6448088 0 11.6298944 218 222 230
37.5627075 0 10.7443069 218 222 230
23.7980075 0 3.2043989 218 222 230
24.0519431 0 3.23523226 218 222 230
24.2911209 0 3.32594042 218 222 230
24.5016407 0 3.47125175 218 222 230
24.6712679 0 3.66272129 218 222 230
24.7901444 0 3.88922152 218 222 230
24.8513615 0 4.13758907 218 222 230
24.8513615 0 4.39338972 218 222 230
24.7901444 0 4.64175727 218 222 230
24.6712679 0 4.8682575 218 222 230
24.5016407 0 5.05972704 218 222 230
24.2911209 0 5.20503837 218 222 230
24.0519431 0 5.29574653 218 222 230
23.7980075 0 5.32657989 218 222 230
23.544072 0 5.29574653 218 222 230
23.3048942 0 5.20503837 218 222 230
23.0943744 0 5.05972704 218 222 230
22.9247472 0 4.8682575 218 222 230
22.8058707 0 4.64175727 218 222 230
22.7446536 0 4.39338972 218 222 230
22.7446536 0 4.13758907 218 222 230
22.8058707 0 3.88922152 218 222 230
22.9247472 0 3.66272129 218 222 230
23.0943744 0 3.47125175 218 222 230
23.3048942 0 3.32594042 218 222 230
23.544072 0 3.23523226 218 222 230
-2.22044605e-16 0 1.13905001 255 79 163
-2.22044605e-16 41.9814921 1.13905001 255 79 163
0.0388121879 42.2762999 0.844242174 255 79 163
0.152603765 42.5510171 0.569525005 255 79 163
0.333620024 42.7869221 0.333620024 255 79 163
0.543898015 42.9526919 0.167850222 255 79 163
0.738936168 43.0479553 0.0725867719 255 79 163
0.927107407 43.1006504 0.0198917289 255 79 163
1.032613 43.1155583 0.00498383544 255 79 163
1.13905001 43.1205421 -2.22044605e-16 255 79 163
1.13905001 0 -2.22044605e-16 255 79 163
0.0285583619 0 0.885587538 255 79 163
0.112801412 0 0.644834733 255 79 163
0.248504852 0 0.428863945 255 79 163
0.428863945 0 0.248504852 255 79 163
0.644834733 0 0.112801412 255 79 163
0.885587538 0 0.0285583619 255 79 163
0 -2.22044605e-16 33.0672606 255 79 163
77.6733672 -2.22044605e-16 33.0672606 255 79 163
77.6583688 0.0149983902 33.2514966 255 79 163
77.6137686 0.0595985796 33.4308807 255 79 163
77.5407412 0.132626026 33.6006889 255 79 163
77.4412096 0.232157559 33.7564493 255 79 163
77.3177952 0.355572023 33.89406 255 79 163
77.1737479 0.49961931 34.009897 255 79 163
76.9562119 0.71715528 34.1252964 255 79 163
76.7491185 0.924248669 34.1858738 255 79 163
76.5343172 1.13905001 34.2063106 255 79 163
0 1.13905001 34.2063106 255 79 163
0 0.0285583619 33.3207231 255 79 163
0 0.112801412 33.5614759 255 79 163
0 0.248504852 33.7774467 255 79 163
0 0.428863945 33.9578058 255 79 163
0 0.644834733 34.0935092 255 79 163
0 0.885587538 34.1777523 255 79 163
-2.22044605e-16 41.9814921 1.13905001 255 79 163
-2.22044605e-16 41.9814921 34.2063106 255 79 163
0.0285583619 42.2349546 34.2063106 255 79 163
0.112801412 42.4757074 34.2063106 255 79 163
0.248504852 42.6916781 34.2063106 255 79 163
0.428863945 42.8720372 34.2063106 255 79 163
0.644834733 43.0077407 34.2063106 255 79 163
0.885587538 43.0919837 34.2063106 255 79 163
1.13905001 43.1205421 34.2063106 255 79 163
1.13905001 43.1205421 -2.22044605e-16 255 79 163
0.0388121879 42.2762999 0.844242174 255 79 163
0.152603765 42.5510171 0.569525005 255 79 163
0.333620024 42.7869221 0.333620024 255 79 163
0.543898015 42.9526919 0.167850222 255 79 163
0.738936168 43.0479553 0.0725867719 255 79 163
0.927107407 43.1006504 0.0198917289 255 79 163
1.032613 43.1155583 0.00498383544 255 79 163
1.13905001 43.1205421 34.2063106 218 222 230
8.42226628 43.1205421 34.2063106 218 222 230
-2.22044605e-16 41.9814921 34.2063106 218 222 230
0.0285583619 42.2349546 34.2063106 218 222 230
0.112801412 42.4757074 34.2063106 218 222 230
0.248504852 42.6916781 34.2063106 218 222 230
0.428863945 42.8720372 34.2063106 218 222 230
0.644834733 43.0077407 34.2063106 218 222 230
0.885587538 43.0919837 34.2063106 218 222 230
0 1.13905001 34.2063106 218 222 230
76.5343172 1.13905001 34.2063106 218 222 230
76.5343172 37.9604822 34.2063106 218 222 230
10.7003663 37.9604822 34.2063106 218 222 230
10.6126586 37.9701448 34.2063106 218 222 230
10.528757 37.997077 34.2063106 218 222 230
10.4502354 38.0375374 34.2063106 218 222 230
10.3548401 38.1065326 34.2063106 218 222 230
10.2296126 38.2309562 34.2063106 218 222 230
10.0732987 38.4447639 34.2063106 218 222 230
9.89031511 38.7974493 34.2063106 218 222 230
9.69933719 39.3619242 34.2063106 218 222 230
9.59667291 39.8991737 34.2063106 218 222 230
9.56131629 40.4449708 34.2063106 218 222 230
9.56131629 41.9814921 34.2063106 218 222 230
8.67572876 43.0919837 34.2063106 218 222 230
8.91648156 43.0077407 34.2063106 218 222 230
9.13245235 42.8720372 34.2063106 218 222 230
9.31281144 42.6916781 34.2063106 218 222 230
9.44851488 42.4757074 34.2063106 218 222 230
9.53275793 42.2349546 34.2063106 218 222 230
1.13905001 43.1205421 -2.22044605e-16 218 222 230
8.42226628 43.1205421 0 218 222 230
1.13905001 0 -2.22044605e-16 218 222 230
37.5627075 0 0 218 222 230
37.5627075 39.2920092 0 218 222 230
9.56131629 39.2920092 0 218 222 230
9.56131629 41.9814921 0 218 222 230
8.67572876 43.0919837 0 218 222 230
8.91648156 43.0077407 0 218 222 230
9.13245235 42.8720372 0 218 222 230
9.31281144 42.6916781 0 218 222 230
9.44851488 42.4757074 0 218 222 230
9.53275793 42.2349546 0 218 222 230
37.5627075 36.2761305 10.7443069 218 222 230
37.5627075 0 10.7443069 218 222 230
37.5627075 0 0 218 222 230
37.5627075 39.2920092 0 218 222 230
37.5627075 37.6076574 10.7443069 218 222 230
37.5627075 37.4014367 12.0597676 218 222 230
37.5627075 36.5541973 10.7787693 218 222 230
37.5627075 36.8154382 10.8800712 218 222 230
37.5627075 37.0440451 11.0420828 218 222 230
37.5627075 37.2261848 11.2550005 218 222 230
37.5627075 37.350836 11.5059406 218 222 230
37.5627075 37.4104558 11.7797185 218 222 230
37.5627075 0 10.7443069 218 222 230
76.5343172 0 10.7443069 218 222 230
76.5343172 36.2761305 10.7443069 218 222 230
37.5627075 36.2761305 10.7443069 218 222 230
76.5343172 36.2761305 10.7443069 255 79 163
76.829125 36.5709383 10.783119 255 79 163
77.1038422 36.8456555 10.8969106 255 79 163
77.3397472 37.0815604 11.0779269 255 79 163
77.505517 37.2473302 11.2882049 255 79 163
77.6007804 37.3425937 11.483243 255 79 163
77.6534755 37.3952887 11.6714143 255 79 163
77.6683834 37.4101966 11.7769199 255 79 163
77.6733672 37.4151805 11.8833569 255 79 163
77.6733672 0 11.8833569 255 79 163
76.5343172 0 10.7443069 255 79 163
76.7877797 0 10.7728652 255 79 163
77.0285325 0 10.8571083 255 79 163
77.2445032 0 10.9928117 255 79 163
77.4248623 0 11.1731708 255 79 163
77.5605658 0 11.3891416 255 79 163
77.6448088 0 11.6298944 255 79 163
77.6733672 39.0857885 32.8908499 218 222 230
77.6733672 36.6384558 17.2795661 218 222 230
77.6733672 39.0995322 33.0672606 218 222 230
77.6733672 39.0980024 33.0082458 218 222 230
77.6733672 39.093417 32.9493895 218 222 230
77.6733672 -2.22044605e-16 33.0672606 218 222 230
77.6733672 0 11.8833569 218 222 230
77.6733672 37.4151805 11.8833569 218 222 230
77.6733672 37.4136506 11.9423717 218 222 230
77.6733672 37.4090653 12.001228 218 222 230
77.6733672 37.4014367 12.0597676 218 222 230
77.6733672 36.6384558 16.9267445 218 222 230
77.6733672 36.6262419 17.1621701 218 222 230
77.6733672 36.6262419 17.0441405 218 222 230
23.7980075 0 3.2043989 218 222 230
24.0519431 0 3.23523226 218 222 230
24.2911209 0 3.32594042 218 222 230
24.5016407 0 3.47125175 218 222 230
24.6712679 0 3.66272129 218 222 230
24.7901444 0 3.88922152 218 222 230
24.8513615 0 4.13758907 218 222 230
24.8513615 0 4.39338972 218 222 230
24.7901444 0 4.64175727 218 222 230
24.6712679 0 4.8682575 218 222 230
24.5016407 0 5.05972704 218 222 230
24.2911209 0 5.20503837 218 222 230
24.0519431 0 5.29574653 218 222 230
23.7980075 0 5.32657989 218 222 230
23.544072 0 5.29574653 218 222 230
23.3048942 0 5.20503837 218 222 230
23.0943744 0 5.05972704 218 222 230
22.9247472 0 4.8682575 218 222 230
22.8058707 0 4.64175727 218 222 230
22.7446536 0 4.39338972 218 222 230
22.7446536 0 4.13758907 218 222 230
22.8058707 0 3.88922152 218 222 230
22.9247472 0 3.66272129 218 222 230
23.0943744 0 3.47125175 218 222 230
23.3048942 0 3.32594042 218 222 230
23.544072 0 3.23523226 218 222 230
23.7980075 0 3.2043989 218 222 230
23.7980075 38.7896655 3.2043989 218 222 230
24.0560266 38.7846727 3.23624735 218 222 230
24.2985569 38.7699941 3.32988086 218 222 230
24.5110394 38.7465107 3.47967863 218 222 230
24.6807189 38.7156324 3.67664837 218 222 230
24.7974094 38.6792127 3.90896603 218 222 230
24.8541062 38.6394378 4.16268567 218 222 230
24.8474058 38.5986955 4.42257658 218 222 230
24.7777103 38.5594315 4.6730376 218 222 230
24.6492036 38.5240028 4.89903364 218 222 230
24.4695999 38.4945362 5.08699823 218 222 230
24.2496807 38.4728005 5.22564793 218 222 230
24.0026477 38.4601006 5.30665962 218 222 230
23.7433303 38.4571987 5.32517022 218 222 230
23.4872951 38.4642692 5.28006853 218 222 230
23.2499119 38.4808875 5.17406199 218 222 230
23.0454306 38.5060561 5.01351415 218 222 230
22.8861263 38.5382641 4.80806263 218 222 230
22.781562 38.575578 4.57004063 218 222 230
22.7380145 38.6157581 4.31373651 218 222 230
22.758098 38.6563921 4.05453614 218 222 230
22.840607 38.6950409 3.80799922 218 222 230
22.9805884 38.7293845 3.58892528 218 222 230
23.1696392 38.7573611 3.41046526 218 222 230
23.3964107 38.7772914 3.28333205 218 222 230
23.5933673 38.7865426 3.22431917 218 222 230
23.7980075 38.7896655 3.2043989 218 222 230
77.6733672 -2.22044605e-16 33.0672606 255 79 163
77.6583688 0.0149983902 33.2514966 255 79 163
77.6137686 0.0595985796 33.4308807 255 79 163
77.5407412 0.132626026 33.6006889 255 79 163
77.4412096 0.232157559 33.7564493 255 79 163
77.3177952 0.355572023 33.89406 255 79 163
77.1737479 0.49961931 34.009897 255 79 163
76.9562119 0.71715528 34.1252964 255 79 163
76.7491185 0.924248669 34.1858738 255 79 163
76.5343172 1.13905001 34.2063106 255 79 163
77.6733672 39.0995322 33.0672606 255 79 163
76.5343172 37.9604822 34.2063106 255 79 163
76.829125 38.25529 34.1674985 255 79 163
77.1038422 38.5300072 34.0537069 255 79 163
77.3397472 38.7659122 33.8726906 255 79 163
77.505517 38.931682 33.6624126 255 79 163
77.6007804 39.0269454 33.4673745 255 79 163
77.6534755 39.0796405 33.2792032 255 79 163
77.6683834 39.0945484 33.1736976 255 79 163
1.13905001 43.1205421 -2.22044605e-16 218 222 230
8.42226628 43.1205421 0 218 222 230
1.13905001 43.1205421 34.2063106 218 222 230
8.42226628 43.1205421 34.2063106 218 222 230
8.42226628 43.1205421 0 255 79 163
8.42226628 43.1205421 34.2063106 255 79 163
8.67572876 43.0919837 34.2063106 255 79 163
8.91648156 43.0077407 34.2063106 255 79 163
9.13245235 42.8720372 34.2063106 255 79 163
9.31281144 42.6916781 34.2063106 255 79 163
9.44851488 42.4757074 34.2063106 255 79 163
9.53275793 42.2349546 34.2063106 255 79 163
9.56131629 41.9814921 34.2063106 255 79 163
9.56131629 41.9814921 0 255 79 163
8.67572876 43.0919837 0 255 79 163
8.91648156 43.0077407 0 255 79 163
9.13245235 42.8720372 0 255 79 163
9.31281144 42.6916781 0 255 79 163
9.44851488 42.4757074 0 255 79 163
9.53275793 42.2349546 0 255 79 163
9.56131629 39.2920092 0 218 222 230
9.56131629 41.9814921 0 218 222 230
9.56131629 41.9814921 34.2063106 218 222 230
9.56131629 40.4449708 34.2063106 218 222 230
9.56131629 37.1872812 13.4258434 218 222 230
9.56131629 40.4449708 34.2063106 255 79 163
9.56131629 40.4449708 34.2063106 255 79 163
10.7003663 37.9604822 34.2063106 255 79 163
10.6126586 37.9701448 34.2063106 255 79 163
10.528757 37.997077 34.2063106 255 79 163
10.4502354 38.0375374 34.2063106 255 79 163
10.3548401 38.1065326 34.2063106 255 79 163
10.2296126 38.2309562 34.2063106 255 79 163
10.0732987 38.4447639 34.2063106 255 79 163
9.89031511 38.7974493 34.2063106 255 79 163
9.69933719 39.3619242 34.2063106 255 79 163
9.59667291 39.8991737 34.2063106 255 79 163
10.7003663 38.2295896 34.174065 255 79 163
10.7003663 38.483461 34.0791541 255 79 163
10.7003663 38.7077218 33.9269512 255 79 163
10.7003663 38.8896751 33.7260741 255 79 163
10.7003663 39.0190194 33.4878962 255 79 163
10.7003663 39.0884306 33.2259024 255 79 163
10.7003663 39.0994967 33.0582783 255 79 163
10.7003663 39.0857885 32.8908499 255 79 163
10.4055585 39.1631117 33.1334841 255 79 163
10.1308407 39.31451 33.3645058 255 79 163
9.89493632 39.5323211 33.5851161 255 79 163
9.71391997 39.804359 33.7972255 255 79 163
9.6001284 40.1147407 34.0033239 255 79 163
10.1458469 38.5748458 34.1728273 255 79 163
10.1662089 38.7701507 34.089791 255 79 163
10.1877523 38.9388183 33.9721593 255 79 163
10.2094657 39.0727379 33.8260208 255 79 163
10.2299445 39.1672808 33.6536819 255 79 163
9.81627719 39.1443812 34.1830269 255 79 163
10.2481771 39.2201949 33.4582331 255 79 163
9.8289708 39.2624431 34.127453 255 79 163
9.84416853 39.3650104 34.0512904 255 79 163
9.86023799 39.4462143 33.9582836 255 79 163
9.87463391 39.501684 33.8484625 255 79 163
9.88572388 39.5297099 33.7220098 255 79 163
9.76176917 39.3502591 34.1648326 255 79 163
9.71010629 39.690194 34.0676427 255 79 163
9.64254555 39.8842948 34.1060236 255 79 163
9.59921371 40.061539 34.1391049 255 79 163
9.70297533 39.5454234 34.1621296 255 79 163
9.66918772 39.6576391 34.1685715 255 79 163
9.61526356 39.886634 34.1807419 255 79 163
9.59719613 39.9897939 34.1856243 255 79 163
9.684186 39.5187139 34.1943865 255 79 163
9.62724112 39.7655765 34.1981098 255 79 163
9.60527679 39.8906151 34.1997468 255 79 163
9.59692829 39.9463638 34.2004056 255 79 163
9.59688031 39.9232485 34.2047206 255 79 163
76.5343172 37.9604822 34.2063106 255 79 163
76.829125 38.25529 34.1674985 255 79 163
77.1038422 38.5300072 34.0537069 255 79 163
77.3397472 38.7659122 33.8726906 255 79 163
77.505517 38.931682 33.6624126 255 79 163
77.6007804 39.0269454 33.4673745 255 79 163
77.6534755 39.0796405 33.2792032 255 79 163
77.6683834 39.0945484 33.1736976 255 79 163
77.6733672 39.0995322 33.0672606 255 79 163
77.6733672 39.0980024 33.0082458 255 79 163
77.6733672 39.093417 32.9493895 255 79 163
77.6733672 39.0857885 32.8908499 255 79 163
10.7003663 39.0857885 32.8908499 255 79 163
10.7003663 37.9604822 34.2063106 255 79 163
10.7003663 38.2295896 34.174065 255 79 163
10.7003663 38.483461 34.0791541 255 79 163
10.7003663 38.7077218 33.9269512 255 79 163
10.7003663 38.8896751 33.7260741 255 79 163
10.7003663 39.0190194 33.4878962 255 79 163
10.7003663 39.0884306 33.2259024 255 79 163
10.7003663 39.0994967 33.0582783 255 79 163
77.6733672 36.6384558 16.9267445 218 222 230
77.6733672 37.4014367 12.0597676 218 222 230
10.3518019 36.6384558 16.9267445 218 222 230
10.1601848 36.6797496 16.6633355 218 222 230
9.98662648 36.7380106 16.2916947 218 222 230
9.67313209 36.9381941 15.0147449 218 222 230
9.56131629 37.1872812 13.4258434 218 222 230
9.56131629 39.2920092 0 218 222 230
37.5627075 39.2920092 0 218 222 230
37.5627075 37.6076574 10.7443069 218 222 230
37.5627075 37.4014367 12.0597676 218 222 230
23.7980075 38.7896655 3.2043989 218 222 230
24.0560266 38.7846727 3.23624735 218 222 230
24.2985569 38.7699941 3.32988086 218 222 230
24.5110394 38.7465107 3.47967863 218 222 230
24.6807189 38.7156324 3.67664837 218 222 230
24.7974094 38.6792127 3.90896603 218 222 230
24.8541062 38.6394378 4.16268567 218 222 230
24.8474058 38.5986955 4.42257658 218 222 230
24.7777103 38.5594315 4.6730376 218 222 230
24.6492036 38.5240028 4.89903364 218 222 230
24.4695999 38.4945362 5.08699823 218 222 230
24.2496807 38.4728005 5.22564793 218 222 230
24.0026477 38.4601006 5.30665962 218 222 230
23.7433303 38.4571987 5.32517022 218 222 230
23.4872951 38.4642692 5.28006853 218 222 230
23.2499119 38.4808875 5.17406199 218 222 230
23.0454306 38.5060561 5.01351415 218 222 230
22.8861263 38.5382641 4.80806263 218 222 230
22.781562 38.575578 4.57004063 218 222 230
22.7380145 38.6157581 4.31373651 218 222 230
22.758098 38.6563921 4.05453614 218 222 230
22.840607 38.6950409 3.80799922 218 222 230
22.9805884 38.7293845 3.58892528 218 222 230
23.1696392 38.7573611 3.41046526 218 222 230
23.3964107 38.7772914 3.28333205 218 222 230
23.5933673 38.7865426 3.22431917 218 222 230
76.5343172 36.2761305 10.7443069 255 79 163
37.5627075 36.2761305 10.7443069 255 79 163
37.5627075 36.5541973 10.7787693 255 79 163
37.5627075 36.8154382 10.8800712 255 79 163
37.5627075 37.0440451 11.0420828 255 79 163
37.5627075 37.2261848 11.2550005 255 79 163
37.5627075 37.350836 11.5059406 255 79 163
37.5627075 37.4104558 11.7797185 255 79 163
37.5627075 37.4014367 12.0597676 255 79 163
77.6733672 37.4014367 12.0597676 255 79 163
77.6733672 37.4151805 11.8833569 255 79 163
77.6733672 37.4136506 11.9423717 255 79 163
77.6733672 37.4090653 12.001228 255 79 163
76.829125 36.5709383 10.783119 255 79 163
77.1038422 36.8456555 10.8969106 255 79 163
77.3397472 37.0815604 11.0779269 255 79 163
77.505517 37.2473302 11.2882049 255 79 163
77.6007804 37.3425937 11.483243 255 79 163
77.6534755 37.3952887 11.6714143 255 79 163
77.6683834 37.4101966 11.7769199 255 79 163
77.6733672 39.0857885 32.8908499 218 222 230
77.6733672 36.6384558 17.2795661 218 222 230
10.7003663 39.0857885 32.8908499 218 222 230
10.7003663 36.6384558 17.2795661 218 222 230
77.6733672 36.6384558 17.2795661 255 79 163
10.7003663 36.6384558 17.2795661 255 79 163
10.6118936 36.6281532 17.191628 255 79 163
10.5239555 36.624712 17.1031553 255 79 163
10.4370833 36.6281532 17.0146827 255 79 163
10.3518019 36.6384558 16.9267445 255 79 163
77.6733672 36.6384558 16.9267445 255 79 163
77.6733672 36.6262419 17.1621701 255 79 163
77.6733672 36.6262419 17.0441405 255 79 163
10.7003663 39.0857885 32.8908499 255 79 163
10.7003663 36.6384558 17.2795661 255 79 163
10.4055585 39.1631117 33.1334841 255 79 163
10.1308407 39.31451 33.3645058 255 79 163
9.89493632 39.5323211 33.5851161 255 79 163
9.71391997 39.804359 33.7972255 255 79 163
9.6001284 40.1147407 34.0033239 255 79 163
9.56131629 40.4449708 34.2063106 255 79 163
9.56131629 37.1872812 13.4258434 255 79 163
10.3518019 36.6384558 16.9267445 255 79 163
10.1601848 36.6797496 16.6633355 255 79 163
9.98662648 36.7380106 16.2916947 255 79 163
9.67313209 36.9381941 15.0147449 255 79 163
10.6118936 36.6281532 17.191628 255 79 163
10.5239555 36.624712 17.1031553 255 79 163
10.4370833 36.6281532 17.0146827 255 79 163
3 4 0 1
3 4 2 0
3 4 3 2
3 5 10 4
3 5 4 1
3 7 5 6
3 7 10 5
3 8 9 10
3 8 10 7
3 15 16 17
3 11 18 19
3 13 14 15
3 13 17 18
3 13 15 17
3 13 18 11
3 53 11 54
3 55 54 11
3 52 11 53
3 56 55 11
3 51 11 52
3 31 56 11
3 50 11 51
3 49 13 11
3 49 11 50
3 48 13 49
3 20 45 44
3 20 46 45
3 20 47 46
3 20 48 47
3 20 13 48
3 12 32 31
3 12 33 32
3 12 34 33
3 12 35 34
3 12 36 35
3 12 37 36
3 12 38 37
3 12 31 11
3 30 39 38
3 30 40 39
3 30 41 40
3 30 42 41
3 30 43 42
3 30 44 43
3 30 38 12
3 30 20 44
3 25 23 24
3 26 23 25
3 28 26 27
3 22 28 29
3 22 23 26
3 22 26 28
3 21 30 23
3 21 23 22
3 21 20 30
3 65 66 67
3 65 67 73
3 64 65 73
3 63 73 72
3 63 64 73
3 62 72 71
3 62 63 72
3 61 71 70
3 61 62 71
3 60 70 69
3 60 61 70
3 59 69 68
3 59 60 69
3 58 68 57
3 58 59 68
3 83 84 85
3 83 85 91
3 82 91 90
3 82 83 91
3 81 90 89
3 81 82 90
3 80 89 88
3 80 81 89
3 79 80 88
3 78 88 87
3 78 79 88
3 77 87 86
3 77 78 87
3 76 86 74
3 76 77 86
3 75 76 74
3 100 101 108
3 99 107 106
3 99 108 107
3 99 100 108
3 98 106 105
3 98 99 106
3 97 105 104
3 97 98 105
3 96 104 103
3 96 97 104
3 95 103 102
3 95 96 103
3 94 102 92
3 94 95 102
3 93 94 92
3 115 112 111
3 115 113 112
3 115 114 113
3 116 115 111
3 109 117 116
3 109 116 111
3 125 111 118
3 125 126 111
3 124 125 118
3 127 111 126
3 123 124 118
3 122 123 118
3 121 122 118
3 128 111 127
3 129 111 128
3 130 109 111
3 130 111 129
3 131 109 130
3 110 109 131
3 132 110 131
3 135 133 110
3 135 134 133
3 136 138 137
3 136 132 138
3 136 135 110
3 136 110 132
3 119 121 118
3 120 121 119
3 144 141 139
3 144 142 141
3 140 144 139
3 145 144 140
3 150 140 146
3 150 151 145
3 150 145 140
3 148 146 147
3 149 146 148
3 149 150 146
3 143 142 144
3 152 153 154
3 152 154 155
3 156 158 152
3 156 159 158
3 156 160 159
3 156 152 155
3 161 160 156
3 162 161 156
3 163 162 156
3 157 163 156
3 165 167 166
3 165 164 167
3 179 168 169
3 179 178 168
3 180 169 170
3 180 179 169
3 181 170 171
3 181 180 170
3 182 171 172
3 182 181 171
3 183 172 173
3 183 182 172
3 184 173 174
3 184 174 175
3 184 183 173
3 177 175 176
3 177 184 175
3 194 192 193
3 195 192 194
3 187 189 188
3 187 185 189
3 191 195 196
3 191 197 186
3 191 198 197
3 191 196 198
3 191 192 195
3 190 186 185
3 190 191 186
3 190 185 187
3 200 226 199
3 200 227 226
3 201 228 227
3 201 227 200
3 202 229 228
3 202 228 201
3 203 230 229
3 203 229 202
3 204 231 230
3 204 230 203
3 205 232 231
3 205 231 204
3 206 233 232
3 206 232 205
3 207 234 233
3 207 233 206
3 208 235 234
3 208 234 207
3 209 236 235
3 209 235 208
3 210 236 209
3 210 237 236
3 211 237 210
3 211 238 237
3 212 238 211
3 212 239 238
3 213 239 212
3 213 240 239
3 214 240 213
3 214 241 240
3 215 241 214
3 215 242 241
3 216 242 215
3 216 243 242
3 217 243 216
3 217 244 243
3 218 244 217
3 218 245 244
3 219 245 218
3 219 246 245
3 220 246 219
3 220 247 246
3 221 247 220
3 221 248 247
3 222 248 221
3 222 249 248
3 223 249 222
3 223 250 249
3 224 251 250
3 224 250 223
3 225 252 251
3 225 251 224
3 264 262 261
3 265 261 260
3 265 264 261
3 266 260 259
3 266 265 260
3 267 258 257
3 267 259 258
3 267 266 259
3 268 257 256
3 268 267 257
3 269 256 255
3 269 268 256
3 270 255 254
3 270 269 255
3 271 254 253
3 271 270 254
3 263 271 253
3 275 273 272
3 275 272 274
3 283 284 285
3 283 291 290
3 283 285 291
3 282 283 290
3 281 289 288
3 281 290 289
3 281 282 290
3 280 288 287
3 280 281 288
3 279 280 287
3 278 286 276
3 278 287 286
3 278 279 287
3 277 278 276
3 296 292 293
3 294 296 293
3 295 296 294
3 309 300 299
3 301 300 309
3 302 301 309
3 310 302 309
3 303 302 310
3 317 313 314
3 317 314 315
3 317 315 316
3 322 305 304
3 322 306 305
3 323 304 303
3 323 310 311
3 323 322 304
3 323 306 322
3 323 303 310
3 324 311 312
3 324 323 311
3 325 312 313
3 325 324 312
3 326 313 317
3 326 325 313
3 327 307 306
3 328 317 318
3 328 318 326
3 328 326 317
3 329 327 306
3 329 306 323
3 330 329 323
3 330 323 324
3 331 330 324
3 331 324 325
3 332 326 318
3 332 325 326
3 332 331 325
3 333 318 319
3 333 319 320
3 333 320 332
3 333 332 318
3 334 307 327
3 334 329 330
3 334 327 329
3 335 332 320
3 335 330 331
3 335 331 332
3 335 334 330
3 336 320 321
3 336 335 320
3 337 297 298
3 337 321 297
3 337 336 321
3 338 334 335
3 339 335 336
3 339 338 335
3 340 336 337
3 340 339 336
3 341 340 337
3 341 337 298
3 342 307 334
3 342 338 339
3 342 334 338
3 343 339 340
3 343 307 342
3 343 308 307
3 343 342 339
3 344 340 341
3 344 308 343
3 344 343 340
3 345 341 298
3 345 344 341
3 346 298 308
3 346 308 344
3 346 345 298
3 346 344 345
3 361 347 348
3 361 360 347
3 362 348 349
3 362 361 348
3 363 349 350
3 363 362 349
3 364 350 351
3 364 363 350
3 365 351 352
3 365 352 353
3 365 364 351
3 366 353 354
3 366 365 353
3 367 354 355
3 367 355 356
3 367 356 357
3 367 366 354
3 359 357 358
3 359 367 357
3 372 371 370
3 373 372 370
3 374 373 370
3 394 374 370
3 394 395 374
3 396 374 395
3 393 394 370
3 397 375 374
3 397 374 396
3 392 393 370
3 398 375 397
3 391 392 370
3 399 375 398
3 400 375 399
3 401 375 400
3 402 375 401
3 403 375 402
3 404 375 403
3 379 375 404
3 378 389 390
3 378 390 391
3 378 391 370
3 377 386 387
3 377 387 388
3 377 388 389
3 377 389 378
3 376 379 380
3 376 380 381
3 376 381 382
3 376 382 383
3 376 383 384
3 376 384 385
3 376 385 386
3 376 375 379
3 376 386 377
3 369 378 368
3 368 378 370
3 413 417 416
3 413 414 417
3 412 416 415
3 412 424 423
3 412 415 424
3 412 413 416
3 411 422 421
3 411 423 422
3 411 412 423
3 410 421 420
3 410 411 421
3 409 420 419
3 409 410 420
3 408 419 418
3 408 409 419
3 407 418 405
3 407 408 418
3 406 407 405
3 425 428 427
3 426 428 425
3 433 435 434
3 433 437 435
3 432 436 437
3 432 437 433
3 431 429 436
3 431 436 432
3 430 429 431
3 451 438 439
3 452 440 438
3 452 438 451
3 453 440 452
3 447 441 440
3 447 440 453
3 448 441 447
3 449 442 441
3 449 441 448
3 450 443 442
3 450 444 443
3 450 442 449
3 446 445 444
3 446 444 450
