ply
format ascii 1.0
comment generated by blendit.inference.finetune_visualize
element vertex 892
property float x
property float y
property float z
property uchar red
property uchar green
property uchar blue
element face 1008
property list uchar int vertex_indices
end_header
-2.22044605e-16 0 1.16143324 218 222 230
0 -2.22044605e-16 72.5586737 218 222 230
-2.22044605e-16 84.0141985 1.16143324 218 222 230
-2.22044605e-16 84.0141985 72.5586737 218 222 230
0 66.0765561 65.3255918 218 222 230
0 66.3112878 64.3535316 218 222 230
0 66.3252521 64.2338066 218 222 230
0 66.3101586 64.1142186 218 222 230
0 66.2668844 64.0017178 218 222 230
0 66.1979444 63.9028423 218 222 230
0 66.1073453 63.8233383 218 222 230
0 66.0003522 63.7678263 218 222 230
0 65.8831833 63.7395325 218 222 230
0 65.762648 63.7401013 218 222 230
0 65.6457513 63.7694995 218 222 230
0 65.5392868 63.8260187 218 222 230
0 65.449442 63.9063741 218 222 230
0 65.3814382 64.0058958 218 222 230
0 65.3392276 64.1188 218 222 230
0 65.1044959 65.0908602 218 222 230
0 65.0905316 65.2105853 218 222 230
0 65.1056251 65.3301732 218 222 230
0 65.1488993 65.442674 218 222 230
0 65.2178393 65.5415496 218 222 230
0 65.3084384 65.6210536 218 222 230
0 65.4154315 65.6765655 218 222 230
0 65.5326004 65.7048593 218 222 230
0 65.6531357 65.7042906 218 222 230
0 65.7700324 65.6748924 218 222 230
0 65.8764969 65.6183732 218 222 230
0 65.9663417 65.5380178 218 222 230
0 66.0343455 65.438496 218 222 230
0 70.4609047 37.7786543 218 222 230
0 49.0886113 54.3992977 218 222 230
-2.22044605e-16 47.916247 55.3110131 218 222 230
-2.22044605e-16 73.9681524 61.6019877 218 222 230
0 73.4962713 38.6477388 218 222 230
2.0549515e-18 73.4761795 38.5067517 218 222 230
3.7729802e-18 73.4243683 38.3740921 218 222 230
5.17569662e-18 73.3474824 38.254032 218 222 230
6.2847113e-18 73.2527192 38.1474774 218 222 230
7.3438797e-18 73.1076831 38.0245587 218 222 230
8.13771622e-18 72.8653607 37.8741367 218 222 230
7.88207655e-18 72.4711945 37.7077478 218 222 230
6.16882232e-18 72.0049353 37.5882097 218 222 230
3.74605792e-18 71.5265387 37.5348168 218 222 230
1.44456481e-18 71.0460083 37.5582718 218 222 230
2.39687396e-19 70.6700481 37.6588702 218 222 230
6.21101703e-20 70.5614746 37.711974 218 222 230
-2.22044605e-16 0 1.16143324 218 222 230
0 -2.22044605e-16 72.5586737 218 222 230
34.7475574 -2.22044605e-16 72.5586737 218 222 230
34.7475574 -2.22044605e-16 1.16143324 218 222 230
-2.22044605e-16 0 1.16143324 255 79 163
-2.22044605e-16 84.0141985 1.16143324 255 79 163
0.0291195562 84.0141985 0.90299003 255 79 163
0.115018049 84.0141985 0.657506243 255 79 163
0.253388168 84.0141985 0.437291459 255 79 163
0.437291459 84.0141985 0.253388168 255 79 163
0.657506243 84.0141985 0.115018049 255 79 163
0.90299003 84.0141985 0.0291195562 255 79 163
1.16143324 84.0141985 -2.22044605e-16 255 79 163
1.16143324 1.16143324 -2.22044605e-16 255 79 163
0.018507945 0.018507945 0.954917038 255 79 163
0.0734419158 0.0734419158 0.754982689 255 79 163
0.163051119 0.163051119 0.568002274 255 79 163
0.284479631 0.284479631 0.39993502 255 79 163
0.433857418 0.433857418 0.256137379 255 79 163
0.606423682 0.606423682 0.141192306 255 79 163
0.875089531 0.875089531 0.0358514118 255 79 163
0 -2.22044605e-16 72.5586737 255 79 163
0.018507945 0.018507945 72.7651899 255 79 163
0.0734419158 0.0734419158 72.9651242 255 79 163
0.163051119 0.163051119 73.1521046 255 79 163
0.284479631 0.284479631 73.3201719 255 79 163
0.433857418 0.433857418 73.4639695 255 79 163
0.606423682 0.606423682 73.5789146 255 79 163
0.875089531 0.875089531 73.6842555 255 79 163
1.16143324 1.16143324 73.7201069 255 79 163
1.16143324 82.8527652 73.7201069 255 79 163
-2.22044605e-16 84.0141985 72.5586737 255 79 163
0.018507945 83.9956905 72.7651899 255 79 163
0.0734419158 83.9407566 72.9651242 255 79 163
0.163051119 83.8511474 73.1521046 255 79 163
0.284479631 83.7297189 73.3201719 255 79 163
0.433857418 83.5803411 73.4639695 255 79 163
0.606423682 83.4077748 73.5789146 255 79 163
0.875089531 83.139109 73.6842555 255 79 163
1.16143324 84.0141985 -2.22044605e-16 218 222 230
14.2438961 84.0141985 0 218 222 230
-2.22044605e-16 84.0141985 1.16143324 218 222 230
0.0291195562 84.0141985 0.90299003 218 222 230
0.115018049 84.0141985 0.657506243 218 222 230
0.253388168 84.0141985 0.437291459 218 222 230
0.437291459 84.0141985 0.253388168 218 222 230
0.657506243 84.0141985 0.115018049 218 222 230
0.90299003 84.0141985 0.0291195562 218 222 230
-2.22044605e-16 84.0141985 72.5586737 218 222 230
14.2438961 84.0141985 72.5586737 218 222 230
0 66.0765561 65.3255918 218 222 230
12.1916047 66.0765561 65.3255918 218 222 230
12.1916047 66.3112878 64.3535316 218 222 230
0 66.3112878 64.3535316 218 222 230
0 65.1044959 65.0908602 218 222 230
12.1916047 65.1044959 65.0908602 218 222 230
12.1916047 65.0905316 65.2105853 218 222 230
12.1916047 65.1056251 65.3301732 218 222 230
12.1916047 65.1488993 65.442674 218 222 230
12.1916047 65.2178393 65.5415496 218 222 230
12.1916047 65.3084384 65.6210536 218 222 230
12.1916047 65.4154315 65.6765655 218 222 230
12.1916047 65.5326004 65.7048593 218 222 230
12.1916047 65.6531357 65.7042906 218 222 230
12.1916047 65.7700324 65.6748924 218 222 230
12.1916047 65.8764969 65.6183732 218 222 230
12.1916047 65.9663417 65.5380178 218 222 230
12.1916047 66.0343455 65.438496 218 222 230
12.1916047 66.0765561 65.3255918 218 222 230
0 66.0765561 65.3255918 218 222 230
0 65.0905316 65.2105853 218 222 230
0 65.1056251 65.3301732 218 222 230
0 65.1488993 65.442674 218 222 230
0 65.2178393 65.5415496 218 222 230
0 65.3084384 65.6210536 218 222 230
0 65.4154315 65.6765655 218 222 230
0 65.5326004 65.7048593 218 222 230
0 65.6531357 65.7042906 218 222 230
0 65.7700324 65.6748924 218 222 230
0 65.8764969 65.6183732 218 222 230
0 65.9663417 65.5380178 218 222 230
0 66.0343455 65.438496 218 222 230
0 65.3392276 64.1188 218 222 230
12.1916047 65.3392276 64.1188 218 222 230
12.1916047 65.1044959 65.0908602 218 222 230
0 65.1044959 65.0908602 218 222 230
0 66.3112878 64.3535316 218 222 230
12.1916047 66.3112878 64.3535316 218 222 230
12.1916047 66.3252521 64.2338066 218 222 230
12.1916047 66.3101586 64.1142186 218 222 230
12.1916047 66.2668844 64.0017178 218 222 230
12.1916047 66.1979444 63.9028423 218 222 230
12.1916047 66.1073453 63.8233383 218 222 230
12.1916047 66.0003522 63.7678263 218 222 230
12.1916047 65.8831833 63.7395325 218 222 230
12.1916047 65.762648 63.7401013 218 222 230
12.1916047 65.6457513 63.7694995 218 222 230
12.1916047 65.5392868 63.8260187 218 222 230
12.1916047 65.449442 63.9063741 218 222 230
12.1916047 65.3814382 64.0058958 218 222 230
12.1916047 65.3392276 64.1188 218 222 230
0 65.3392276 64.1188 218 222 230
0 66.3252521 64.2338066 218 222 230
0 66.3101586 64.1142186 218 222 230
0 66.2668844 64.0017178 218 222 230
0 66.1979444 63.9028423 218 222 230
0 66.1073453 63.8233383 218 222 230
0 66.0003522 63.7678263 218 222 230
0 65.8831833 63.7395325 218 222 230
0 65.762648 63.7401013 218 222 230
0 65.6457513 63.7694995 218 222 230
0 65.5392868 63.8260187 218 222 230
0 65.449442 63.9063741 218 222 230
0 65.3814382 64.0058958 218 222 230
0 70.4609047 37.7786543 218 222 230
0 49.0886113 54.3992977 218 222 230
14.2438961 70.4609047 37.7786543 218 222 230
14.2438961 49.0886113 54.3992977 218 222 230
1.16143324 49.0886113 54.3992977 218 222 230
-2.22044605e-16 47.916247 55.3110131 218 222 230
0.0395748779 48.2196772 55.0750437 218 222 230
0.155602549 48.5024291 54.8551554 218 222 230
0.34017592 48.7452337 54.6663329 218 222 230
0.554586039 48.9158519 54.5336479 218 222 230
0.776606402 49.022387 54.4507985 218 222 230
0.966243618 49.0719366 54.4122651 218 222 230
0 70.4609047 37.7786543 218 222 230
0 70.4609047 37.7786543 218 222 230
0 73.4962713 38.6477388 218 222 230
2.0549515e-18 73.4761795 38.5067517 218 222 230
3.7729802e-18 73.4243683 38.3740921 218 222 230
5.17569662e-18 73.3474824 38.254032 218 222 230
6.2847113e-18 73.2527192 38.1474774 218 222 230
7.3438797e-18 73.1076831 38.0245587 218 222 230
8.13771622e-18 72.8653607 37.8741367 218 222 230
7.88207655e-18 72.4711945 37.7077478 218 222 230
6.16882232e-18 72.0049353 37.5882097 218 222 230
3.74605792e-18 71.5265387 37.5348168 218 222 230
1.44456481e-18 71.0460083 37.5582718 218 222 230
2.39687396e-19 70.6700481 37.6588702 218 222 230
6.21101703e-20 70.5614746 37.711974 218 222 230
0.0320905381 73.2251974 38.6533114 218 222 230
0.126588598 72.969103 38.6585761 218 222 230
0.278272509 72.7421401 38.6632419 218 222 230
0.47875991 72.5568506 38.6670509 218 222 230
0.716971947 72.4234736 38.6697928 218 222 230
0.934848912 72.3573954 38.6711512 218 222 230
1.16143324 72.3350834 38.6716099 218 222 230
1.02358212 72.2891276 38.3711592 218 222 230
0.885730994 72.1667941 38.0929201 218 222 230
0.747879872 71.9764609 37.8559478 218 222 230
0.61002875 71.7311633 37.6764717 218 222 230
0.513242646 71.5350189 37.5916163 218 222 230
0.409854305 71.3121633 37.5423075 218 222 230
0.306465963 71.0839678 37.5375344 218 222 230
0.20967986 70.8733229 37.573615 218 222 230
0.119074385 70.685219 37.6418575 218 222 230
0.0595371925 70.5691812 37.7038925 218 222 230
0.029948785 73.104915 38.2597654 218 222 230
0.10953335 72.8841412 38.2781521 218 222 230
0.22977317 72.6880962 38.2962594 218 222 230
0.385995382 72.5252379 38.3135439 218 222 230
0.0284065887 72.8127765 37.9695841 218 222 230
0.574245142 72.4010154 38.3294746 218 222 230
0.0993301778 72.633912 37.9867068 218 222 230
0.788380674 72.3193069 38.3436021 218 222 230
0.201882208 72.4749068 38.0055873 218 222 230
0.332913596 72.3430334 38.0246335 218 222 230
0.491553317 72.2433713 38.0415135 218 222 230
0.674692224 72.1786622 38.0547284 218 222 230
0.0203970333 72.0662404 37.6254386 218 222 230
0.223041283 71.782671 37.6397958 218 222 230
0.327351916 71.7239676 37.6454672 218 222 230
0.449228075 71.6884491 37.6464558 218 222 230
0.163851106 71.0705693 37.5430286 218 222 230
0.110971199 71.0999959 37.5410723 218 222 230
0.224897408 71.0537502 37.5424532 218 222 230
0.0220806548 72.2009576 37.66554 218 222 230
0.045511969 72.1409094 37.6665203 218 222 230
0.0691238247 71.9588462 37.626275 218 222 230
0.137219487 71.8625331 37.6319047 218 222 230
0.0193456254 71.9844195 37.604731 218 222 230
0.0339204429 71.7190362 37.5603532 218 222 230
0.0672940694 71.1405188 37.5378092 218 222 230
0.0108678293 71.3489203 37.531519 218 222 230
0.0094688629 71.2432938 37.5347577 218 222 230
0.00295884239 71.3807944 37.532345 218 222 230
0.0226686464 71.3180147 37.5309405 218 222 230
0.0331100593 71.189292 37.5352857 218 222 230
0.00791084923 71.1238089 37.5444086 218 222 230
0.00213119122 71.1480827 37.5438288 218 222 230
0.0166611837 71.1002542 37.5451795 218 222 230
0.0119925326 70.9260338 37.5745392 218 222 230
0.0295173011 70.6680473 37.6524218 218 222 230
0.0206502441 70.6028796 37.6848101 218 222 230
0.0147897144 70.5608432 37.7088541 218 222 230
0.00518703495 71.9953196 37.5965671 218 222 230
0.00478100433 71.8808593 37.5749418 218 222 230
0.0164286278 71.7632272 37.5618088 218 222 230
0.00845426279 71.6294104 37.5437788 218 222 230
0.00315706532 71.4353792 37.532744 218 222 230
0.000827451098 71.4526001 37.5331242 218 222 230
0.00679198365 71.4184395 37.5322097 218 222 230
0.000715324531 71.3341637 37.5333892 218 222 230
0.00191902136 71.0865262 37.5508079 218 222 230
0.000498780291 71.097891 37.5503146 218 222 230
0.00349352661 70.9836336 37.5657511 218 222 230
0.00779906016 70.669585 37.6556007 218 222 230
0.00229264083 70.8031889 37.6090118 218 222 230
0.00668127378 70.6325444 37.6725419 218 222 230
0.00594394986 70.608304 37.6845418 218 222 230
0.00118364972 71.8250348 37.5631668 218 222 230
0.00394169691 71.6498147 37.544636 218 222 230
0.000958392621 71.5893848 37.5389086 218 222 230
0.00210319501 71.5796223 37.5386586 218 222 230
0.000853918029 71.4803363 37.5337834 218 222 230
0.000218830778 71.4892955 37.5338816 218 222 230
0.00187545454 71.4714624 37.5335998 218 222 230
0.000204266438 71.4295989 37.5327602 218 222 230
0.000147307955 71.1909305 37.5412018 218 222 230
0.000471225087 71.0666666 37.5543967 218 222 230
0.000949972373 71.0141875 37.5618786 218 222 230
0.000778739677 70.9207555 37.5797578 218 222 230
0.000495918797 70.7377437 37.631553 218 222 230
0.00197323997 70.6504271 37.6655388 218 222 230
0.00188442348 70.6374222 37.6714971 218 222 230
0.00152045526 70.5862521 37.6970631 218 222 230
0.000235736951 71.5582611 37.5366662 218 222 230
0.000523703571 71.5534875 37.5366134 218 222 230
0.000222252215 71.5032754 37.5343187 218 222 230
5.62708964e-05 71.5078475 37.5343306 218 222 230
0.000493850352 71.4987273 37.5342782 218 222 230
5.44161366e-05 71.4778823 37.5334704 218 222 230
0.00017545583 71.3101824 37.5342864 218 222 230
0.000541050466 70.6600269 37.6620653 218 222 230
0.000530278231 70.6532967 37.6650257 218 222 230
0.000487183339 70.6265773 37.6773137 218 222 230
0.000394182372 70.5742489 37.7041221 218 222 230
0.0001306019 71.540114 37.5356879 218 222 230
5.67058817e-05 71.5148656 37.534575 218 222 230
0.000126779092 71.512562 37.5345722 218 222 230
1.31002134e-05 71.4420995 37.5328006 218 222 230
5.07209497e-05 71.4179338 37.5326575 218 222 230
9.45014037e-06 71.2019203 37.5405624 218 222 230
2.79613204e-05 71.3999955 37.5326499 218 222 230
2.38515774e-05 71.2799713 37.5356406 218 222 230
8.24107018e-07 71.4452447 37.5328033 218 222 230
7.03591217e-06 71.4030734 37.53263 218 222 230
5.94533656e-07 71.2046861 37.5404016 218 222 230
1.63660211e-05 71.4315659 37.5327082 218 222 230
1.76471885e-06 71.4046153 37.532619 218 222 230
4.77054489e-06 71.383544 37.5327476 218 222 230
4.70525708e-05 71.3579758 37.5330935 218 222 230
5.15907078e-08 71.4460323 37.5328034 218 222 230
4.41900021e-07 71.405387 37.5326133 218 222 230
7.65781705e-07 71.385071 37.5327301 218 222 230
1.46136435e-05 71.3414671 37.5334575 218 222 230
1.12538561e-05 71.3219389 37.5340074 218 222 230
7.07978295e-07 71.3248971 37.5339334 218 222 230
3.7219675e-08 71.2053787 37.5403613 218 222 230
1.10565213e-07 71.405773 37.5326103 218 222 230
2.99377851e-07 71.3854531 37.5327256 218 222 230
4.25542169e-07 71.375295 37.532837 218 222 230
1.16855274e-08 71.3658948 37.5329724 218 222 230
2.88050043e-07 71.3553593 37.5331619 218 222 230
2.97929961e-06 71.3640044 37.5330027 218 222 230
1.63437016e-06 71.3444553 37.5333974 218 222 230
4.09261233e-07 71.3452036 37.533382 218 222 230
4.43211657e-08 71.3256379 37.5339146 218 222 230
2.76780511e-07 71.3252674 37.533924 218 222 230
3.22573415e-09 71.4462292 37.5328034 218 222 230
2.765259e-08 71.4059661 37.5326088 218 222 230
1.42747679e-05 71.3666202 37.5329585 218 222 230
1.86815612e-07 71.3655165 37.5329786 218 222 230
1.4120225e-07 71.3555474 37.5331585 218 222 230
2.56102412e-08 71.3457651 37.5333704 218 222 230
4.5460944e-05 71.2978426 37.5348352 218 222 230
3.76971975e-07 71.285033 37.5354634 218 222 230
9.43203476e-08 71.2853954 37.5354506 218 222 230
6.00197857e-06 71.2828608 37.5355399 218 222 230
1.50541726e-06 71.2843085 37.535489 218 222 230
2.35897653e-08 71.2855767 37.5354442 218 222 230
2.32718934e-09 71.2055519 37.5403513 218 222 230
-2.22044605e-16 73.9681524 61.6019877 255 79 163
0 73.4962713 38.6477388 255 79 163
0.0320905381 73.2251974 38.6533114 255 79 163
0.126588598 72.969103 38.6585761 255 79 163
0.278272509 72.7421401 38.6632419 255 79 163
0.47875991 72.5568506 38.6670509 255 79 163
0.716971947 72.4234736 38.6697928 255 79 163
0.934848912 72.3573954 38.6711512 255 79 163
1.16143324 72.3350834 38.6716099 255 79 163
1.16143324 72.7759933 60.1192907 255 79 163
0.0835866979 73.5240708 61.0496802 255 79 163
0.266335887 73.2084869 60.6571862 255 79 163
0.48446218 72.9994499 60.3972053 255 79 163
0.694678891 72.8765003 60.2442921 255 79 163
0.880258158 72.8114564 60.1633965 255 79 163
1.01978837 72.7848923 60.1303585 255 79 163
-2.22044605e-16 47.916247 55.3110131 255 79 163
-2.22044605e-16 73.9681524 61.6019877 255 79 163
0.0835866979 73.5240708 61.0496802 255 79 163
0.266335887 73.2084869 60.6571862 255 79 163
0.48446218 72.9994499 60.3972053 255 79 163
0.694678891 72.8765003 60.2442921 255 79 163
0.880258158 72.8114564 60.1633965 255 79 163
1.01978837 72.7848923 60.1303585 255 79 163
1.16143324 72.7759933 60.1192907 255 79 163
1.16143324 49.0886113 54.3992977 255 79 163
0.0395748779 48.2196772 55.0750437 255 79 163
0.155602549 48.5024291 54.8551554 255 79 163
0.34017592 48.7452337 54.6663329 255 79 163
0.554586039 48.9158519 54.5336479 255 79 163
0.776606402 49.022387 54.4507985 255 79 163
0.966243618 49.0719366 54.4122651 255 79 163
-2.22044605e-16 0 1.16143324 255 79 163
0.018507945 0.018507945 0.954917038 255 79 163
0.0734419158 0.0734419158 0.754982689 255 79 163
0.163051119 0.163051119 0.568002274 255 79 163
0.284479631 0.284479631 0.39993502 255 79 163
0.433857418 0.433857418 0.256137379 255 79 163
0.606423682 0.606423682 0.141192306 255 79 163
0.875089531 0.875089531 0.0358514118 255 79 163
1.16143324 1.16143324 -2.22044605e-16 255 79 163
34.7475574 1.16143324 0 255 79 163
34.7475574 0.90299003 0.0291195562 255 79 163
34.7475574 0.657506243 0.115018049 255 79 163
34.7475574 0.437291459 0.253388168 255 79 163
34.7475574 0.253388168 0.437291459 255 79 163
34.7475574 0.115018049 0.657506243 255 79 163
34.7475574 0.0291195562 0.90299003 255 79 163
34.7475574 -2.22044605e-16 1.16143324 255 79 163
0 -2.22044605e-16 72.5586737 255 79 163
34.7475574 -2.22044605e-16 72.5586737 255 79 163
34.7475574 1.16143324 73.7201069 255 79 163
34.7475574 0.90299003 73.6909873 255 79 163
34.7475574 0.657506243 73.6050888 255 79 163
34.7475574 0.437291459 73.4667187 255 79 163
34.7475574 0.253388168 73.2828154 255 79 163
34.7475574 0.115018049 73.0626006 255 79 163
34.7475574 0.0291195562 72.8171169 255 79 163
1.16143324 1.16143324 73.7201069 255 79 163
0.018507945 0.018507945 72.7651899 255 79 163
0.0734419158 0.0734419158 72.9651242 255 79 163
0.163051119 0.163051119 73.1521046 255 79 163
0.284479631 0.284479631 73.3201719 255 79 163
0.433857418 0.433857418 73.4639695 255 79 163
0.606423682 0.606423682 73.5789146 255 79 163
0.875089531 0.875089531 73.6842555 255 79 163
34.7475574 -2.22044605e-16 1.16143324 255 79 163
34.7475574 -2.22044605e-16 72.5586737 255 79 163
35.9089906 1.16143324 1.16143324 255 79 163
35.879871 0.90299003 1.16143324 255 79 163
35.7939725 0.657506243 1.16143324 255 79 163
35.6556024 0.437291459 1.16143324 255 79 163
35.4716991 0.253388168 1.16143324 255 79 163
35.2514843 0.115018049 1.16143324 255 79 163
35.0060006 0.0291195562 1.16143324 255 79 163
35.9089906 1.16143324 72.5586737 255 79 163
35.0060006 0.0291195562 72.5586737 255 79 163
35.2514843 0.115018049 72.5586737 255 79 163
35.4716991 0.253388168 72.5586737 255 79 163
35.6556024 0.437291459 72.5586737 255 79 163
35.7939725 0.657506243 72.5586737 255 79 163
35.879871 0.90299003 72.5586737 255 79 163
1.16143324 84.0141985 -2.22044605e-16 218 222 230
14.2438961 84.0141985 0 218 222 230
1.16143324 1.16143324 -2.22044605e-16 218 222 230
34.7475574 1.16143324 0 218 222 230
34.7475574 13.8020733 -2.22044605e-16 218 222 230
15.4053293 13.8020733 -1.66777591e-32 218 222 230
14.2438961 14.9635065 0 218 222 230
14.2730156 14.7050633 0 218 222 230
14.3589141 14.4595795 0 218 222 230
14.4972842 14.2393647 0 218 222 230
14.6811875 14.0554614 0 218 222 230
14.9014023 13.9170913 0 218 222 230
15.1468861 13.8311928 0 218 222 230
15.4053293 13.8020733 73.7201069 218 222 230
34.7475574 13.8020733 73.7201069 218 222 230
13.0824628 14.9635065 73.7201069 218 222 230
13.0921506 14.8709048 73.7201069 218 222 230
13.1192998 14.7818312 73.7201069 218 222 230
13.1603763 14.6981619 73.7201069 218 222 230
13.2310213 14.5959074 73.7201069 218 222 230
13.3596454 14.4610638 73.7201069 218 222 230
13.5827937 14.2926611 73.7201069 218 222 230
13.9538033 14.0973402 73.7201069 218 222 230
14.5515487 13.9020837 73.7201069 218 222 230
14.9755999 13.8277402 73.7201069 218 222 230
13.0824628 82.8527652 73.7201069 218 222 230
1.16143324 82.8527652 73.7201069 218 222 230
1.16143324 1.16143324 73.7201069 218 222 230
34.7475574 1.16143324 73.7201069 218 222 230
1.16143324 82.8527652 73.7201069 255 79 163
13.0824628 82.8527652 73.7201069 255 79 163
13.3830639 83.1533663 73.680532 255 79 163
13.6631795 83.4334819 73.5645043 255 79 163
13.9037202 83.6740226 73.379931 255 79 163
14.0727475 83.8430499 73.1655209 255 79 163
14.1698829 83.9401853 72.96665 255 79 163
14.2236135 83.9939159 72.7747811 255 79 163
14.2388143 84.0091167 72.6672022 255 79 163
14.2438961 84.0141985 72.5586737 255 79 163
-2.22044605e-16 84.0141985 72.5586737 255 79 163
0.018507945 83.9956905 72.7651899 255 79 163
0.0734419158 83.9407566 72.9651242 255 79 163
0.163051119 83.8511474 73.1521046 255 79 163
0.284479631 83.7297189 73.3201719 255 79 163
0.433857418 83.5803411 73.4639695 255 79 163
0.606423682 83.4077748 73.5789146 255 79 163
0.875089531 83.139109 73.6842555 255 79 163
14.2438961 84.0141985 0 218 222 230
14.2438961 14.9635065 0 218 222 230
14.2438961 14.9635065 72.5586737 218 222 230
14.2438961 84.0141985 72.5586737 218 222 230
14.2438961 41.3939673 71.1292393 218 222 230
14.2438961 38.6076409 68.5394804 218 222 230
14.2438961 42.4377279 67.8257861 218 222 230
14.2438961 69.1444735 63.4281995 218 222 230
14.2438961 70.1165337 63.6629311 218 222 230
14.2438961 70.2294379 63.7051418 218 222 230
14.2438961 70.3289596 63.7731456 218 222 230
14.2438961 70.4093151 63.8629904 218 222 230
14.2438961 70.4658342 63.9694548 218 222 230
14.2438961 70.4952324 64.0863515 218 222 230
14.2438961 70.4958012 64.2068869 218 222 230
14.2438961 70.4675074 64.3240558 218 222 230
14.2438961 70.4119955 64.4310488 218 222 230
14.2438961 70.3324915 64.521648 218 222 230
14.2438961 70.2336159 64.5905879 218 222 230
14.2438961 70.1211151 64.6338621 218 222 230
14.2438961 70.0015272 64.6489557 218 222 230
14.2438961 69.8818021 64.6349914 218 222 230
14.2438961 68.9097419 64.4002597 218 222 230
14.2438961 68.7968377 64.3580491 218 222 230
14.2438961 68.697316 64.2900453 218 222 230
14.2438961 68.6169605 64.2002004 218 222 230
14.2438961 68.5604414 64.093736 218 222 230
14.2438961 68.5310432 63.9768393 218 222 230
14.2438961 68.5304744 63.856304 218 222 230
14.2438961 68.5587682 63.7391351 218 222 230
14.2438961 68.6142801 63.632142 218 222 230
14.2438961 68.6937841 63.5415429 218 222 230
14.2438961 68.7926597 63.4726029 218 222 230
14.2438961 68.9051605 63.4293287 218 222 230
14.2438961 69.0247485 63.4142352 218 222 230
14.2438961 70.4609047 37.7786543 218 222 230
14.2438961 49.0886113 54.3992977 218 222 230
14.2438961 70.7053129 37.6327687 218 222 230
14.2438961 70.9778646 37.5507107 218 222 230
14.2438961 71.2621902 37.5374088 218 222 230
14.2438961 71.5412127 37.5936619 218 222 230
14.2438961 71.7981737 37.7160914 218 222 230
14.2438961 72.01764 37.8973441 218 222 230
14.2438961 72.1864301 38.1265337 218 222 230
14.2438961 72.2944063 38.3898949 218 222 230
14.2438961 72.3350834 38.6716099 218 222 230
14.2438961 72.7759933 60.1192907 218 222 230
12.1916047 66.3112878 64.3535316 218 222 230
12.1916047 66.3252521 64.2338066 218 222 230
12.1916047 66.3101586 64.1142186 218 222 230
12.1916047 66.2668844 64.0017178 218 222 230
12.1916047 66.1979444 63.9028423 218 222 230
12.1916047 66.1073453 63.8233383 218 222 230
12.1916047 66.0003522 63.7678263 218 222 230
12.1916047 65.8831833 63.7395325 218 222 230
12.1916047 65.762648 63.7401013 218 222 230
12.1916047 65.6457513 63.7694995 218 222 230
12.1916047 65.5392868 63.8260187 218 222 230
12.1916047 65.449442 63.9063741 218 222 230
12.1916047 65.3814382 64.0058958 218 222 230
12.1916047 65.3392276 64.1188 218 222 230
12.1916047 65.1044959 65.0908602 218 222 230
12.1916047 65.0905316 65.2105853 218 222 230
12.1916047 65.1056251 65.3301732 218 222 230
12.1916047 65.1488993 65.442674 218 222 230
12.1916047 65.2178393 65.5415496 218 222 230
12.1916047 65.3084384 65.6210536 218 222 230
12.1916047 65.4154315 65.6765655 218 222 230
12.1916047 65.5326004 65.7048593 218 222 230
12.1916047 65.6531357 65.7042906 218 222 230
12.1916047 65.7700324 65.6748924 218 222 230
12.1916047 65.8764969 65.6183732 218 222 230
12.1916047 65.9663417 65.5380178 218 222 230
12.1916047 66.0343455 65.438496 218 222 230
12.1916047 66.0765561 65.3255918 218 222 230
1.16143324 72.3350834 38.6716099 218 222 230
1.02358212 72.2891276 38.3711592 218 222 230
0.885730994 72.1667941 38.0929201 218 222 230
0.747879872 71.9764609 37.8559478 218 222 230
0.61002875 71.7311633 37.6764717 218 222 230
0.513242646 71.5350189 37.5916163 218 222 230
0.409854305 71.3121633 37.5423075 218 222 230
0.306465963 71.0839678 37.5375344 218 222 230
0.20967986 70.8733229 37.573615 218 222 230
0.119074385 70.685219 37.6418575 218 222 230
0.0595371925 70.5691812 37.7038925 218 222 230
0 70.4609047 37.7786543 218 222 230
14.2438961 72.3350834 38.6716099 218 222 230
14.2438961 70.4609047 37.7786543 218 222 230
14.2438961 70.7053129 37.6327687 218 222 230
14.2438961 70.9778646 37.5507107 218 222 230
14.2438961 71.2621902 37.5374088 218 222 230
14.2438961 71.5412127 37.5936619 218 222 230
14.2438961 71.7981737 37.7160914 218 222 230
14.2438961 72.01764 37.8973441 218 222 230
14.2438961 72.1864301 38.1265337 218 222 230
14.2438961 72.2944063 38.3898949 218 222 230
1.16143324 72.7759933 60.1192907 218 222 230
14.2438961 72.7759933 60.1192907 218 222 230
1.16143324 49.0886113 54.3992977 218 222 230
14.2438961 49.0886113 54.3992977 218 222 230
14.2438961 72.7759933 60.1192907 218 222 230
14.2438961 72.3350834 38.6716099 218 222 230
1.16143324 72.3350834 38.6716099 218 222 230
1.16143324 72.7759933 60.1192907 218 222 230
35.9089906 1.16143324 1.16143324 255 79 163
35.879871 0.90299003 1.16143324 255 79 163
35.7939725 0.657506243 1.16143324 255 79 163
35.6556024 0.437291459 1.16143324 255 79 163
35.4716991 0.253388168 1.16143324 255 79 163
35.2514843 0.115018049 1.16143324 255 79 163
35.0060006 0.0291195562 1.16143324 255 79 163
34.7475574 -2.22044605e-16 1.16143324 255 79 163
34.7475574 1.16143324 0 255 79 163
34.7475574 0.90299003 0.0291195562 255 79 163
34.7475574 0.657506243 0.115018049 255 79 163
34.7475574 0.437291459 0.253388168 255 79 163
34.7475574 0.253388168 0.437291459 255 79 163
34.7475574 0.115018049 0.657506243 255 79 163
34.7475574 0.0291195562 0.90299003 255 79 163
34.7475574 1.16143324 0 255 79 163
35.0060006 1.16143324 0.0291195562 255 79 163
35.2514843 1.16143324 0.115018049 255 79 163
35.4716991 1.16143324 0.253388168 255 79 163
35.6556024 1.16143324 0.437291459 255 79 163
35.7939725 1.16143324 0.657506243 255 79 163
35.879871 1.16143324 0.90299003 255 79 163
34.8037021 0.806949317 0.0568445888 255 79 163
34.9104957 0.841648673 0.0568445888 255 79 163
35.0013398 0.907650771 0.0568445888 255 79 163
34.958515 0.512172321 0.221814011 255 79 163
35.0673419 0.998494864 0.0568445888 255 79 163
35.1488227 0.609138914 0.221814011 255 79 163
34.8945462 0.233382283 0.47875991 255 79 163
35.1020413 1.1052885 0.0568445888 255 79 163
35.2998517 0.760167924 0.221814011 255 79 163
35.1741356 0.324226376 0.47875991 255 79 163
35.3968183 0.950475579 0.221814011 255 79 163
35.4119685 0.497022111 0.47875991 255 79 163
35.088894 0.110907005 0.80253063 255 79 163
35.5847642 0.734855036 0.47875991 255 79 163
35.3968183 0.267802249 0.80253063 255 79 163
35.6756083 1.01444441 0.47875991 255 79 163
35.6411883 0.512172321 0.80253063 255 79 163
35.7980836 0.820096574 0.80253063 255 79 163
34.7475574 -2.22044605e-16 72.5586737 255 79 163
35.0060006 0.0291195562 72.5586737 255 79 163
35.2514843 0.115018049 72.5586737 255 79 163
35.4716991 0.253388168 72.5586737 255 79 163
35.6556024 0.437291459 72.5586737 255 79 163
35.7939725 0.657506243 72.5586737 255 79 163
35.879871 0.90299003 72.5586737 255 79 163
35.9089906 1.16143324 72.5586737 255 79 163
34.7475574 1.16143324 73.7201069 255 79 163
35.0060006 1.16143324 73.6909873 255 79 163
35.2514843 1.16143324 73.6050888 255 79 163
35.4716991 1.16143324 73.4667187 255 79 163
35.6556024 1.16143324 73.2828154 255 79 163
35.7939725 1.16143324 73.0626006 255 79 163
35.879871 1.16143324 72.8171169 255 79 163
34.7475574 1.16143324 73.7201069 255 79 163
34.7475574 0.90299003 73.6909873 255 79 163
34.7475574 0.657506243 73.6050888 255 79 163
34.7475574 0.437291459 73.4667187 255 79 163
34.7475574 0.253388168 73.2828154 255 79 163
34.7475574 0.115018049 73.0626006 255 79 163
34.7475574 0.0291195562 72.8171169 255 79 163
35.1020413 1.1052885 73.6632623 255 79 163
35.0673419 0.998494864 73.6632623 255 79 163
35.0013398 0.907650771 73.6632623 255 79 163
35.3968183 0.950475579 73.4982929 255 79 163
34.9104957 0.841648673 73.6632623 255 79 163
35.2998517 0.760167924 73.4982929 255 79 163
35.6756083 1.01444441 73.241347 255 79 163
34.8037021 0.806949317 73.6632623 255 79 163
35.1488227 0.609138914 73.4982929 255 79 163
35.5847642 0.734855036 73.241347 255 79 163
34.958515 0.512172321 73.4982929 255 79 163
35.4119685 0.497022111 73.241347 255 79 163
35.7980836 0.820096574 72.9175763 255 79 163
35.1741356 0.324226376 73.241347 255 79 163
35.6411883 0.512172321 72.9175763 255 79 163
34.8945462 0.233382283 73.241347 255 79 163
35.3968183 0.267802249 72.9175763 255 79 163
35.088894 0.110907005 72.9175763 255 79 163
35.9089906 13.8020733 72.5586737 218 222 230
35.9089906 13.8020733 1.16143324 218 222 230
35.9089906 1.16143324 72.5586737 218 222 230
35.9089906 1.16143324 1.16143324 218 222 230
14.2438961 14.9635065 0 218 222 230
14.2730156 14.7050633 0 218 222 230
14.3589141 14.4595795 0 218 222 230
14.4972842 14.2393647 0 218 222 230
14.6811875 14.0554614 0 218 222 230
14.9014023 13.9170913 0 218 222 230
15.1468861 13.8311928 0 218 222 230
15.4053293 13.8020733 -1.66777591e-32 218 222 230
15.4053293 13.8020733 73.7201069 218 222 230
14.2438961 14.9635065 72.5586737 218 222 230
14.283471 14.6629055 72.7522459 218 222 230
14.3994986 14.3827899 72.9458181 218 222 230
14.584072 14.1422492 73.1393903 218 222 230
14.8246127 13.9576758 73.3329625 218 222 230
15.104729 13.841648 73.5265347 218 222 230
34.7475574 1.16143324 0 255 79 163
34.7475574 13.8020733 -2.22044605e-16 255 79 163
35.0060006 13.8020733 0.0291195562 255 79 163
35.2514843 13.8020733 0.115018049 255 79 163
35.4716991 13.8020733 0.253388168 255 79 163
35.6556024 13.8020733 0.437291459 255 79 163
35.7939725 13.8020733 0.657506243 255 79 163
35.879871 13.8020733 0.90299003 255 79 163
35.9089906 13.8020733 1.16143324 255 79 163
35.9089906 1.16143324 1.16143324 255 79 163
35.0060006 1.16143324 0.0291195562 255 79 163
35.2514843 1.16143324 0.115018049 255 79 163
35.4716991 1.16143324 0.253388168 255 79 163
35.6556024 1.16143324 0.437291459 255 79 163
35.7939725 1.16143324 0.657506243 255 79 163
35.879871 1.16143324 0.90299003 255 79 163
15.4053293 13.8020733 73.7201069 218 222 230
34.7475574 13.8020733 73.7201069 218 222 230
35.0060006 13.8020733 73.6909873 218 222 230
35.2514843 13.8020733 73.6050888 218 222 230
35.4716991 13.8020733 73.4667187 218 222 230
35.6556024 13.8020733 73.2828154 218 222 230
35.7939725 13.8020733 73.0626006 218 222 230
35.879871 13.8020733 72.8171169 218 222 230
35.9089906 13.8020733 72.5586737 218 222 230
35.9089906 13.8020733 1.16143324 218 222 230
34.7475574 13.8020733 -2.22044605e-16 218 222 230
35.0060006 13.8020733 0.0291195562 218 222 230
35.2514843 13.8020733 0.115018049 218 222 230
35.4716991 13.8020733 0.253388168 218 222 230
35.6556024 13.8020733 0.437291459 218 222 230
35.7939725 13.8020733 0.657506243 218 222 230
35.879871 13.8020733 0.90299003 218 222 230
15.4053293 13.8020733 -1.66777591e-32 218 222 230
15.4053293 13.8020733 73.7201069 218 222 230
15.4053293 13.8020733 73.7201069 218 222 230
13.0824628 14.9635065 73.7201069 218 222 230
13.0921506 14.8709048 73.7201069 218 222 230
13.1192998 14.7818312 73.7201069 218 222 230
13.1603763 14.6981619 73.7201069 218 222 230
13.2310213 14.5959074 73.7201069 218 222 230
13.3596454 14.4610638 73.7201069 218 222 230
13.5827937 14.2926611 73.7201069 218 222 230
13.9538033 14.0973402 73.7201069 218 222 230
14.5515487 13.9020837 73.7201069 218 222 230
14.9755999 13.8277402 73.7201069 218 222 230
13.353594 14.9635065 73.6880164 218 222 230
13.6097425 14.9635065 73.5935183 218 222 230
13.8367534 14.9635065 73.4418344 218 222 230
14.0220821 14.9635065 73.241347 218 222 230
14.1554873 14.9635065 73.0031349 218 222 230
14.2215794 14.9635065 72.785258 218 222 230
14.2438961 14.9635065 72.5586737 218 222 230
14.283471 14.6629055 72.7522459 218 222 230
14.3994986 14.3827899 72.9458181 218 222 230
14.584072 14.1422492 73.1393903 218 222 230
14.8246127 13.9576758 73.3329625 218 222 230
15.104729 13.841648 73.5265347 218 222 230
13.4327419 14.6550867 73.6901581 218 222 230
13.6564413 14.6694025 73.6105735 218 222 230
13.8548359 14.6836597 73.4903337 218 222 230
13.6371693 14.4118783 73.6917003 218 222 230
14.0196429 14.6976922 73.3341115 218 222 230
13.8236503 14.4306017 73.6207767 218 222 230
14.1458269 14.7113871 73.1458617 218 222 230
13.9888115 14.4499851 73.5182247 218 222 230
14.2296853 14.7245784 72.9317262 218 222 230
14.1257052 14.4693007 73.3871933 218 222 230
14.2302047 14.4876259 73.2285536 218 222 230
14.1675063 14.0700383 73.6997099 218 222 230
14.2998941 14.5042328 73.0454147 218 222 230
14.2808165 14.0820321 73.6509831 218 222 230
14.3820063 14.0958642 73.5828874 218 222 230
14.4658383 14.1102553 73.4970656 218 222 230
14.5281995 14.1232685 73.392755 218 222 230
14.5671967 14.1336247 73.2708788 218 222 230
14.9122415 13.8818568 73.6091357 218 222 230
14.8721333 13.8774039 73.6528128 218 222 230
14.9410518 13.8857179 73.5562558 218 222 230
14.9568539 13.8883605 73.4952095 218 222 230
14.6964058 13.8874153 73.7093237 218 222 230
14.8238871 13.8733813 73.6869968 218 222 230
14.770724 13.8704158 73.710638 218 222 230
14.9117895 13.8479975 73.7044436 218 222 230
14.8900309 13.8471562 73.7126841 218 222 230
14.9303549 13.8367387 73.7183834 218 222 230
14.9402759 13.8370183 73.716363 218 222 230
34.7475574 1.16143324 73.7201069 255 79 163
35.0060006 1.16143324 73.6909873 255 79 163
35.2514843 1.16143324 73.6050888 255 79 163
35.4716991 1.16143324 73.4667187 255 79 163
35.6556024 1.16143324 73.2828154 255 79 163
35.7939725 1.16143324 73.0626006 255 79 163
35.879871 1.16143324 72.8171169 255 79 163
35.9089906 1.16143324 72.5586737 255 79 163
35.9089906 13.8020733 72.5586737 255 79 163
34.7475574 13.8020733 73.7201069 255 79 163
35.0060006 13.8020733 73.6909873 255 79 163
35.2514843 13.8020733 73.6050888 255 79 163
35.4716991 13.8020733 73.4667187 255 79 163
35.6556024 13.8020733 73.2828154 255 79 163
35.7939725 13.8020733 73.0626006 255 79 163
35.879871 13.8020733 72.8171169 255 79 163
13.0824628 82.8527652 73.7201069 255 79 163
13.0824628 14.9635065 73.7201069 255 79 163
13.353594 14.9635065 73.6880164 255 79 163
13.6097425 14.9635065 73.5935183 255 79 163
13.8367534 14.9635065 73.4418344 255 79 163
14.0220821 14.9635065 73.241347 255 79 163
14.1554873 14.9635065 73.0031349 255 79 163
14.2215794 14.9635065 72.785258 255 79 163
14.2438961 14.9635065 72.5586737 255 79 163
14.2438961 84.0141985 72.5586737 255 79 163
13.3830639 83.1533663 73.680532 255 79 163
13.6631795 83.4334819 73.5645043 255 79 163
13.9037202 83.6740226 73.379931 255 79 163
14.0727475 83.8430499 73.1655209 255 79 163
14.1698829 83.9401853 72.96665 255 79 163
14.2236135 83.9939159 72.7747811 255 79 163
14.2388143 84.0091167 72.6672022 255 79 163
14.2438961 41.3939673 71.1292393 218 222 230
6.53703892 41.3939673 71.1292393 218 222 230
6.53703892 38.6076409 68.5394804 218 222 230
14.2438961 38.6076409 68.5394804 218 222 230
14.2438961 42.4377279 67.8257861 218 222 230
6.53703892 42.4377279 67.8257861 218 222 230
6.53703892 41.3939673 71.1292393 218 222 230
14.2438961 41.3939673 71.1292393 218 222 230
14.2438961 38.6076409 68.5394804 218 222 230
6.53703892 38.6076409 68.5394804 218 222 230
6.53703892 42.4377279 67.8257861 218 222 230
14.2438961 42.4377279 67.8257861 218 222 230
14.2438961 69.1444735 63.4281995 218 222 230
11.8679158 69.1444735 63.4281995 218 222 230
11.8679158 70.1165337 63.6629311 218 222 230
14.2438961 70.1165337 63.6629311 218 222 230
14.2438961 68.9097419 64.4002597 218 222 230
11.8679158 68.9097419 64.4002597 218 222 230
11.8679158 68.7968377 64.3580491 218 222 230
11.8679158 68.697316 64.2900453 218 222 230
11.8679158 68.6169605 64.2002004 218 222 230
11.8679158 68.5604414 64.093736 218 222 230
11.8679158 68.5310432 63.9768393 218 222 230
11.8679158 68.5304744 63.856304 218 222 230
11.8679158 68.5587682 63.7391351 218 222 230
11.8679158 68.6142801 63.632142 218 222 230
11.8679158 68.6937841 63.5415429 218 222 230
11.8679158 68.7926597 63.4726029 218 222 230
11.8679158 68.9051605 63.4293287 218 222 230
11.8679158 69.0247485 63.4142352 218 222 230
11.8679158 69.1444735 63.4281995 218 222 230
14.2438961 69.1444735 63.4281995 218 222 230
14.2438961 68.7968377 64.3580491 218 222 230
14.2438961 68.697316 64.2900453 218 222 230
14.2438961 68.6169605 64.2002004 218 222 230
14.2438961 68.5604414 64.093736 218 222 230
14.2438961 68.5310432 63.9768393 218 222 230
14.2438961 68.5304744 63.856304 218 222 230
14.2438961 68.5587682 63.7391351 218 222 230
14.2438961 68.6142801 63.632142 218 222 230
14.2438961 68.6937841 63.5415429 218 222 230
14.2438961 68.7926597 63.4726029 218 222 230
14.2438961 68.9051605 63.4293287 218 222 230
14.2438961 69.0247485 63.4142352 218 222 230
14.2438961 70.1165337 63.6629311 218 222 230
11.8679158 70.1165337 63.6629311 218 222 230
11.8679158 70.2294379 63.7051418 218 222 230
11.8679158 70.3289596 63.7731456 218 222 230
11.8679158 70.4093151 63.8629904 218 222 230
11.8679158 70.4658342 63.9694548 218 222 230
11.8679158 70.4952324 64.0863515 218 222 230
11.8679158 70.4958012 64.2068869 218 222 230
11.8679158 70.4675074 64.3240558 218 222 230
11.8679158 70.4119955 64.4310488 218 222 230
11.8679158 70.3324915 64.521648 218 222 230
11.8679158 70.2336159 64.5905879 218 222 230
11.8679158 70.1211151 64.6338621 218 222 230
11.8679158 70.0015272 64.6489557 218 222 230
11.8679158 69.8818021 64.6349914 218 222 230
14.2438961 69.8818021 64.6349914 218 222 230
14.2438961 70.2294379 63.7051418 218 222 230
14.2438961 70.3289596 63.7731456 218 222 230
14.2438961 70.4093151 63.8629904 218 222 230
14.2438961 70.4658342 63.9694548 218 222 230
14.2438961 70.4952324 64.0863515 218 222 230
14.2438961 70.4958012 64.2068869 218 222 230
14.2438961 70.4675074 64.3240558 218 222 230
14.2438961 70.4119955 64.4310488 218 222 230
14.2438961 70.3324915 64.521648 218 222 230
14.2438961 70.2336159 64.5905879 218 222 230
14.2438961 70.1211151 64.6338621 218 222 230
14.2438961 70.0015272 64.6489557 218 222 230
14.2438961 69.8818021 64.6349914 218 222 230
11.8679158 69.8818021 64.6349914 218 222 230
11.8679158 68.9097419 64.4002597 218 222 230
14.2438961 68.9097419 64.4002597 218 222 230
6.53703892 38.6076409 68.5394804 218 222 230
6.53703892 42.4377279 67.8257861 218 222 230
6.53703892 41.3939673 71.1292393 218 222 230
11.8679158 70.1165337 63.6629311 218 222 230
11.8679158 70.2294379 63.7051418 218 222 230
11.8679158 70.3289596 63.7731456 218 222 230
11.8679158 70.4093151 63.8629904 218 222 230
11.8679158 70.4658342 63.9694548 218 222 230
11.8679158 70.4952324 64.0863515 218 222 230
11.8679158 70.4958012 64.2068869 218 222 230
11.8679158 70.4675074 64.3240558 218 222 230
11.8679158 70.4119955 64.4310488 218 222 230
11.8679158 70.3324915 64.521648 218 222 230
11.8679158 70.2336159 64.5905879 218 222 230
11.8679158 70.1211151 64.6338621 218 222 230
11.8679158 70.0015272 64.6489557 218 222 230
11.8679158 69.8818021 64.6349914 218 222 230
11.8679158 68.9097419 64.4002597 218 222 230
11.8679158 68.7968377 64.3580491 218 222 230
11.8679158 68.697316 64.2900453 218 222 230
11.8679158 68.6169605 64.2002004 218 222 230
11.8679158 68.5604414 64.093736 218 222 230
11.8679158 68.5310432 63.9768393 218 222 230
11.8679158 68.5304744 63.856304 218 222 230
11.8679158 68.5587682 63.7391351 218 222 230
11.8679158 68.6142801 63.632142 218 222 230
11.8679158 68.6937841 63.5415429 218 222 230
11.8679158 68.7926597 63.4726029 218 222 230
11.8679158 68.9051605 63.4293287 218 222 230
11.8679158 69.0247485 63.4142352 218 222 230
11.8679158 69.1444735 63.4281995 218 222 230
3 39 2 40
3 41 40 2
3 38 2 39
3 42 41 2
3 37 2 38
3 36 2 37
3 43 42 2
3 44 43 2
3 45 44 2
3 46 45 2
3 47 46 2
3 48 47 2
3 32 48 2
3 3 36 35
3 3 2 36
3 10 9 35
3 8 35 9
3 11 10 35
3 7 35 8
3 12 11 35
3 6 35 7
3 5 35 6
3 4 35 5
3 31 35 4
3 30 35 31
3 30 3 35
3 29 3 30
3 28 3 29
3 27 3 28
3 26 3 27
3 25 3 26
3 0 32 2
3 33 32 0
3 34 20 19
3 34 21 20
3 34 22 21
3 34 23 22
3 34 33 0
3 1 23 34
3 1 24 23
3 1 25 24
3 1 3 25
3 1 34 0
3 34 12 35
3 34 13 12
3 34 14 13
3 34 15 14
3 34 16 15
3 34 17 16
3 34 18 17
3 34 19 18
3 50 49 52
3 51 50 52
3 60 61 62
3 60 62 69
3 59 69 68
3 59 60 69
3 58 67 66
3 58 68 67
3 58 59 68
3 57 66 65
3 57 58 66
3 56 65 64
3 56 57 65
3 55 64 63
3 55 56 64
3 54 63 53
3 54 55 63
3 80 70 71
3 81 71 72
3 81 80 71
3 82 72 73
3 82 81 72
3 83 73 74
3 83 82 73
3 84 74 75
3 84 83 74
3 85 75 76
3 85 84 75
3 86 76 77
3 86 85 76
3 87 77 78
3 87 86 77
3 79 87 78
3 88 96 95
3 90 92 91
3 90 93 92
3 90 94 93
3 90 95 94
3 90 88 95
3 89 88 90
3 98 90 97
3 98 89 90
3 102 100 99
3 102 101 100
3 119 104 103
3 119 105 104
3 120 106 105
3 120 105 119
3 121 107 106
3 121 106 120
3 122 108 107
3 122 107 121
3 123 109 108
3 123 108 122
3 124 110 109
3 124 109 123
3 125 111 110
3 125 110 124
3 126 112 111
3 126 111 125
3 127 113 112
3 127 112 126
3 128 114 113
3 128 113 127
3 129 115 114
3 129 114 128
3 130 116 115
3 130 115 129
3 118 117 116
3 118 116 130
3 134 132 131
3 134 133 132
3 151 136 135
3 151 137 136
3 152 138 137
3 152 139 138
3 152 137 151
3 153 139 152
3 154 140 139
3 154 141 140
3 154 139 153
3 155 141 154
3 156 142 141
3 156 141 155
3 157 143 142
3 157 144 143
3 157 142 156
3 158 144 157
3 159 145 144
3 159 144 158
3 160 146 145
3 160 145 159
3 161 147 146
3 161 146 160
3 162 148 147
3 162 147 161
3 150 149 148
3 150 148 162
3 167 165 163
3 167 166 165
3 164 172 173
3 164 173 174
3 164 174 167
3 164 167 163
3 171 172 164
3 170 171 164
3 169 170 164
3 168 169 164
3 190 177 178
3 179 190 178
3 197 196 195
3 207 179 180
3 207 180 181
3 208 191 190
3 208 179 207
3 208 190 179
3 209 192 191
3 209 191 208
3 210 193 192
3 210 192 209
3 211 181 182
3 211 182 183
3 211 207 181
3 212 194 193
3 212 193 210
3 213 183 184
3 213 207 211
3 213 208 207
3 213 211 183
3 214 195 194
3 214 198 197
3 214 197 195
3 214 194 212
3 215 208 213
3 215 209 208
3 216 209 215
3 216 210 209
3 217 210 216
3 217 212 210
3 217 216 199
3 218 199 198
3 218 212 217
3 218 198 214
3 218 217 199
3 218 214 212
3 219 184 185
3 220 199 216
3 221 220 202
3 221 200 199
3 221 202 201
3 221 199 220
3 222 200 221
3 222 221 201
3 222 201 200
3 223 202 224
3 225 202 223
3 225 203 202
3 225 223 204
3 225 204 203
3 226 184 219
3 227 219 228
3 227 228 229
3 227 220 216
3 227 226 219
3 227 184 226
3 227 215 213
3 227 213 184
3 227 216 215
3 227 229 220
3 230 228 219
3 231 229 228
3 231 202 220
3 231 224 202
3 231 232 224
3 231 228 230
3 231 220 229
3 233 235 234
3 236 237 232
3 236 234 237
3 236 232 231
3 236 233 234
3 238 234 239
3 240 232 237
3 240 237 234
3 240 234 238
3 241 224 232
3 241 232 240
3 242 223 224
3 242 204 223
3 242 205 204
3 242 206 205
3 242 224 241
3 243 206 242
3 244 176 175
3 244 175 206
3 244 206 243
3 245 219 185
3 245 230 219
3 246 247 231
3 246 231 230
3 246 245 185
3 246 230 245
3 248 231 247
3 248 236 231
3 249 250 235
3 251 235 233
3 251 233 236
3 251 236 248
3 251 249 235
3 252 234 235
3 253 239 254
3 253 238 239
3 255 238 253
3 255 240 238
3 255 241 240
3 256 242 241
3 256 243 242
3 256 241 257
3 258 243 256
3 259 243 258
3 259 244 243
3 259 176 244
3 260 185 186
3 260 246 185
3 260 247 246
3 260 248 247
3 260 261 248
3 262 261 260
3 263 261 262
3 263 248 261
3 263 251 248
3 264 265 250
3 266 251 263
3 266 264 250
3 266 250 249
3 266 249 251
3 267 235 250
3 268 254 239
3 269 253 254
3 269 254 187
3 270 253 269
3 270 269 187
3 270 255 253
3 271 270 187
3 271 241 255
3 271 187 188
3 271 255 270
3 271 257 241
3 272 257 271
3 272 271 188
3 273 257 272
3 273 256 257
3 273 258 256
3 274 259 258
3 274 258 273
3 275 259 274
3 275 176 259
3 276 262 260
3 276 260 186
3 277 263 262
3 277 262 276
3 277 266 263
3 278 279 265
3 280 265 264
3 280 264 266
3 280 266 277
3 280 278 265
3 281 265 279
3 281 279 186
3 281 250 265
3 282 234 252
3 283 273 272
3 283 272 188
3 284 283 188
3 284 274 273
3 284 273 283
3 285 188 189
3 285 275 274
3 285 284 188
3 285 274 284
3 286 189 176
3 286 176 275
3 286 285 189
3 286 275 285
3 287 277 276
3 287 276 186
3 287 280 277
3 288 186 279
3 289 287 186
3 289 186 288
3 289 280 287
3 289 288 279
3 289 279 278
3 289 278 280
3 290 267 250
3 290 250 281
3 291 235 267
3 292 254 268
3 293 235 291
3 293 252 235
3 294 292 268
3 294 234 282
3 294 268 239
3 294 239 234
3 295 290 281
3 296 293 291
3 297 254 292
3 297 292 294
3 298 291 267
3 298 290 295
3 298 267 290
3 299 296 291
3 300 252 293
3 300 301 252
3 302 295 281
3 302 298 295
3 303 299 291
3 304 300 293
3 305 306 282
3 305 307 306
3 305 252 301
3 305 282 252
3 308 254 297
3 308 297 294
3 309 303 291
3 310 299 303
3 310 293 296
3 310 296 299
3 310 304 293
3 310 303 309
3 311 300 304
3 311 304 310
3 312 311 310
3 313 301 314
3 313 316 315
3 313 315 305
3 313 305 301
3 317 315 316
3 317 305 315
3 318 305 317
3 318 307 305
3 319 302 281
3 319 298 302
3 319 281 186
3 320 298 319
3 320 291 298
3 320 319 312
3 320 309 291
3 320 310 309
3 320 312 310
3 321 301 300
3 321 314 301
3 321 322 314
3 321 300 311
3 321 312 322
3 321 311 312
3 323 313 314
3 323 314 322
3 323 322 312
3 324 323 312
3 324 317 316
3 324 316 313
3 324 313 323
3 325 318 317
3 325 307 318
3 325 327 326
3 325 282 306
3 325 294 282
3 325 328 294
3 325 306 307
3 325 329 328
3 325 326 329
3 330 325 317
3 330 324 312
3 330 317 324
3 330 327 325
3 331 327 330
3 331 187 254
3 331 326 327
3 331 186 187
3 331 312 319
3 331 254 308
3 331 330 312
3 331 294 328
3 331 308 294
3 331 328 329
3 331 319 186
3 331 329 326
3 340 341 347
3 339 347 346
3 339 340 347
3 338 346 345
3 338 339 346
3 337 345 344
3 337 338 345
3 336 344 343
3 336 337 344
3 335 343 342
3 335 336 343
3 334 342 332
3 334 335 342
3 333 334 332
3 355 356 357
3 355 357 363
3 354 363 362
3 354 355 363
3 353 362 361
3 353 354 362
3 352 361 360
3 352 353 361
3 351 360 359
3 351 352 360
3 350 359 358
3 350 351 359
3 349 358 348
3 349 350 358
3 380 364 365
3 379 365 366
3 379 380 365
3 378 366 367
3 378 379 366
3 377 367 368
3 377 378 367
3 376 368 369
3 376 369 370
3 376 377 368
3 375 370 371
3 375 376 370
3 374 371 372
3 374 375 371
3 373 374 372
3 384 383 390
3 384 390 397
3 385 397 396
3 385 384 397
3 386 395 394
3 386 396 395
3 386 385 396
3 387 394 393
3 387 386 394
3 388 393 392
3 388 387 393
3 389 392 391
3 389 388 392
3 382 391 381
3 382 389 391
3 408 399 398
3 408 398 406
3 409 406 405
3 409 408 406
3 410 405 404
3 410 409 405
3 411 404 403
3 411 410 404
3 412 403 402
3 412 411 403
3 413 402 401
3 413 412 402
3 407 401 400
3 407 413 401
3 424 416 423
3 425 416 424
3 422 423 416
3 421 422 416
3 426 416 425
3 419 416 426
3 420 421 416
3 417 416 419
3 418 417 419
3 414 420 416
3 415 420 414
3 433 441 434
3 432 441 433
3 435 434 441
3 431 441 432
3 430 441 431
3 429 441 430
3 436 435 441
3 437 436 441
3 438 437 441
3 427 438 441
3 442 427 441
3 428 427 442
3 440 441 429
3 439 440 429
3 451 452 453
3 451 453 454
3 450 454 455
3 450 451 454
3 449 455 456
3 449 450 455
3 448 456 457
3 448 449 456
3 447 457 458
3 447 448 457
3 446 458 459
3 446 447 458
3 445 459 460
3 445 446 459
3 444 460 443
3 444 445 460
3 497 463 462
3 466 463 497
3 496 462 461
3 496 497 462
3 498 496 461
3 499 498 461
3 500 499 461
3 501 500 461
3 502 501 461
3 503 502 461
3 467 466 497
3 504 503 461
3 505 504 461
3 465 463 466
3 491 497 492
3 493 492 497
3 490 497 491
3 489 497 490
3 488 467 497
3 488 497 489
3 487 467 488
3 486 465 467
3 486 467 487
3 507 494 493
3 507 495 494
3 507 468 495
3 507 493 497
3 485 465 486
3 484 465 485
3 483 465 484
3 469 468 507
3 470 469 507
3 471 470 507
3 472 471 507
3 473 472 507
3 474 473 507
3 475 474 507
3 464 465 483
3 464 476 475
3 464 477 476
3 464 478 477
3 464 479 478
3 464 480 479
3 464 481 480
3 464 482 481
3 464 483 482
3 464 475 507
3 464 507 506
3 463 465 464
3 464 506 461
3 506 505 461
3 525 526 527
3 525 527 528
3 525 528 529
3 511 509 510
3 522 523 524
3 522 524 525
3 522 529 530
3 522 530 531
3 522 531 532
3 522 532 533
3 522 533 534
3 522 534 535
3 522 525 529
3 514 512 513
3 515 512 514
3 516 511 512
3 516 512 515
3 521 535 508
3 521 522 535
3 520 508 509
3 520 521 508
3 519 516 517
3 519 517 518
3 519 509 511
3 519 511 516
3 519 520 509
3 549 546 547
3 550 544 545
3 550 545 546
3 550 546 549
3 551 543 544
3 551 544 550
3 552 542 543
3 552 543 551
3 553 540 541
3 553 541 542
3 553 542 552
3 554 539 540
3 554 540 553
3 555 538 539
3 555 539 554
3 556 537 538
3 556 538 555
3 557 536 537
3 557 537 556
3 548 536 557
3 558 561 560
3 558 559 561
3 564 563 562
3 564 562 565
3 572 573 580
3 566 567 587
3 588 576 575
3 589 575 574
3 589 588 575
3 590 574 581
3 590 589 574
3 591 577 576
3 591 588 589
3 591 576 588
3 592 581 582
3 592 590 581
3 593 589 590
3 593 591 589
3 594 578 577
3 594 579 578
3 594 577 591
3 595 582 583
3 595 592 582
3 596 593 590
3 596 590 592
3 597 591 593
3 597 594 591
3 598 583 584
3 598 596 592
3 598 595 583
3 598 592 595
3 599 593 596
3 599 597 593
3 600 571 572
3 600 580 579
3 600 579 594
3 600 594 597
3 600 572 580
3 601 596 598
3 601 599 596
3 602 570 571
3 602 571 600
3 602 597 599
3 602 600 597
3 603 584 585
3 603 585 586
3 603 598 584
3 603 601 598
3 604 568 569
3 604 569 570
3 604 570 602
3 604 599 601
3 604 602 599
3 605 567 568
3 605 586 587
3 605 587 567
3 605 568 604
3 605 603 586
3 605 601 603
3 605 604 601
3 612 613 620
3 606 607 627
3 628 616 615
3 629 615 614
3 629 628 615
3 630 614 621
3 630 629 614
3 631 617 616
3 631 628 629
3 631 616 628
3 632 621 622
3 632 630 621
3 633 629 630
3 633 631 629
3 634 618 617
3 634 619 618
3 634 617 631
3 635 622 623
3 635 632 622
3 636 633 630
3 636 630 632
3 637 631 633
3 637 634 631
3 638 623 624
3 638 636 632
3 638 635 623
3 638 632 635
3 639 633 636
3 639 637 633
3 640 611 612
3 640 620 619
3 640 619 634
3 640 634 637
3 640 612 620
3 641 636 638
3 641 639 636
3 642 610 611
3 642 611 640
3 642 637 639
3 642 640 637
3 643 624 625
3 643 625 626
3 643 638 624
3 643 641 638
3 644 608 609
3 644 609 610
3 644 610 642
3 644 639 641
3 644 642 639
3 645 607 608
3 645 626 627
3 645 627 607
3 645 608 644
3 645 643 626
3 645 641 643
3 645 644 641
3 646 649 647
3 648 649 646
3 659 651 650
3 660 652 651
3 660 651 659
3 661 653 652
3 661 652 660
3 662 654 653
3 662 653 661
3 663 655 654
3 663 654 662
3 664 656 655
3 664 655 663
3 658 657 656
3 658 656 664
3 672 673 674
3 672 674 680
3 671 680 679
3 671 672 680
3 670 679 678
3 670 671 679
3 669 678 677
3 669 670 678
3 668 677 676
3 668 669 677
3 667 676 675
3 667 668 676
3 666 675 665
3 666 667 675
3 687 682 683
3 687 683 684
3 687 684 685
3 687 685 686
3 689 681 682
3 689 687 688
3 689 682 687
3 690 698 681
3 690 681 689
3 691 698 690
3 693 692 691
3 694 693 691
3 695 697 696
3 695 690 697
3 695 691 690
3 695 694 691
3 711 701 702
3 703 711 702
3 723 703 704
3 723 704 705
3 723 705 706
3 723 711 703
3 724 712 711
3 724 711 723
3 725 713 712
3 725 712 724
3 726 706 707
3 726 723 706
3 727 714 713
3 727 713 725
3 728 723 726
3 728 726 707
3 728 724 723
3 729 715 714
3 729 714 727
3 730 724 728
3 730 725 724
3 731 716 715
3 731 717 716
3 731 718 717
3 731 715 729
3 732 725 730
3 732 727 725
3 733 727 732
3 733 729 727
3 734 708 709
3 735 719 718
3 735 718 731
3 735 733 719
3 735 731 729
3 735 729 733
3 736 707 708
3 736 728 707
3 736 708 734
3 737 728 736
3 737 730 728
3 738 732 730
3 738 730 737
3 739 733 732
3 739 719 733
3 739 732 738
3 740 720 719
3 740 721 720
3 740 719 739
3 740 739 721
3 741 699 722
3 741 737 742
3 741 738 737
3 743 738 741
3 743 721 739
3 743 739 738
3 743 741 722
3 744 721 743
3 744 743 722
3 744 722 721
3 745 747 746
3 745 746 742
3 745 737 736
3 745 742 737
3 745 734 709
3 745 709 747
3 745 736 734
3 748 700 699
3 748 746 747
3 748 742 746
3 748 741 742
3 748 747 749
3 748 699 741
3 750 709 710
3 750 747 709
3 750 749 747
3 751 710 700
3 751 700 748
3 751 750 710
3 751 748 749
3 751 749 750
3 761 752 753
3 762 753 754
3 762 761 753
3 763 754 755
3 763 762 754
3 764 755 756
3 764 763 755
3 765 756 757
3 765 764 756
3 766 757 758
3 766 765 757
3 767 758 759
3 767 766 758
3 760 767 759
3 776 777 784
3 775 783 782
3 775 784 783
3 775 776 784
3 774 782 781
3 774 775 782
3 773 781 780
3 773 774 781
3 772 780 779
3 772 773 780
3 771 779 778
3 771 772 779
3 770 778 768
3 770 771 778
3 769 770 768
3 788 786 785
3 788 787 786
3 792 790 789
3 792 791 790
3 796 794 793
3 796 795 794
3 797 799 798
3 800 799 797
3 817 802 801
3 817 803 802
3 818 804 803
3 818 803 817
3 819 805 804
3 819 806 805
3 819 804 818
3 820 806 819
3 821 807 806
3 821 806 820
3 822 808 807
3 822 807 821
3 823 809 808
3 823 810 809
3 823 808 822
3 824 810 823
3 825 811 810
3 825 810 824
3 826 812 811
3 826 811 825
3 827 813 812
3 827 812 826
3 828 814 813
3 828 813 827
3 816 815 814
3 816 814 828
3 845 830 829
3 845 831 830
3 846 832 831
3 846 833 832
3 846 831 845
3 847 833 846
3 848 834 833
3 848 833 847
3 849 835 834
3 849 834 848
3 850 836 835
3 850 835 849
3 851 837 836
3 851 836 850
3 852 838 837
3 852 839 838
3 852 837 851
3 853 839 852
3 854 840 839
3 854 841 840
3 854 839 853
3 855 841 854
3 856 842 841
3 856 841 855
3 844 843 842
3 844 842 856
3 860 858 857
3 860 859 858
3 861 862 863
3 864 865 866
3 864 866 867
3 864 867 868
3 869 864 868
3 870 864 869
3 871 864 870
3 872 864 871
3 873 864 872
3 874 864 873
3 875 864 874
3 876 864 875
3 877 864 876
3 887 888 889
3 887 889 890
3 883 884 885
3 878 890 891
3 878 891 864
3 878 864 877
3 881 882 883
3 880 878 879
3 880 885 886
3 880 886 887
3 880 887 890
3 880 881 883
3 880 883 885
3 880 890 878
