ply
format ascii 1.0
comment generated by blendit.inference.finetune_visualize
element vertex 1806
property float x
property float y
property float z
property uchar red
property uchar green
property uchar blue
element face 1616
property list uchar int vertex_indices
end_header
-45.3 39 2 218 222 230
-45.3 39 1.58164105e-13 218 222 230
-38.7 39 1.35120328e-13 218 222 230
-38.795892 38.2102583 1.35455133e-13 218 222 230
-39.0779951 37.4664135 1.36440091e-13 218 222 230
-39.5299145 36.8116952 1.38017959e-13 218 222 230
-40.1253863 36.2841532 1.40097038e-13 218 222 230
-40.8298039 35.9144464 1.42556498e-13 218 222 230
-41.602229 35.7240607 1.45253406e-13 218 222 230
-42.397771 35.7240607 1.48031026e-13 218 222 230
-43.1701961 35.9144464 1.50727934e-13 218 222 230
-43.8746137 36.2841532 1.53187395e-13 218 222 230
-44.4700855 36.8116952 1.55266474e-13 218 222 230
-44.9220049 37.4664135 1.56844342e-13 218 222 230
-45.204108 38.2102583 1.578293e-13 218 222 230
-38.7 39 2 218 222 230
-38.795892 38.2102583 2 218 222 230
-39.0779951 37.4664135 2 218 222 230
-39.5299145 36.8116952 2 218 222 230
-40.1253863 36.2841532 2 218 222 230
-40.8298039 35.9144464 2 218 222 230
-41.602229 35.7240607 2 218 222 230
-42.397771 35.7240607 2 218 222 230
-43.1701961 35.9144464 2 218 222 230
-43.8746137 36.2841532 2 218 222 230
-44.4700855 36.8116952 2 218 222 230
-44.9220049 37.4664135 2 218 222 230
-45.204108 38.2102583 2 218 222 230
-45.3 21 2 218 222 230
-45.3 21 1.58164105e-13 218 222 230
-38.7 21 1.35120328e-13 218 222 230
-38.795892 20.2102583 1.35455133e-13 218 222 230
-39.0779951 19.4664135 1.36440091e-13 218 222 230
-39.5299145 18.8116952 1.38017959e-13 218 222 230
-40.1253863 18.2841532 1.40097038e-13 218 222 230
-40.8298039 17.9144464 1.42556498e-13 218 222 230
-41.602229 17.7240607 1.45253406e-13 218 222 230
-42.397771 17.7240607 1.48031026e-13 218 222 230
-43.1701961 17.9144464 1.50727934e-13 218 222 230
-43.8746137 18.2841532 1.53187395e-13 218 222 230
-44.4700855 18.8116952 1.55266474e-13 218 222 230
-44.9220049 19.4664135 1.56844342e-13 218 222 230
-45.204108 20.2102583 1.578293e-13 218 222 230
-38.7 21 2 218 222 230
-38.795892 20.2102583 2 218 222 230
-39.0779951 19.4664135 2 218 222 230
-39.5299145 18.8116952 2 218 222 230
-40.1253863 18.2841532 2 218 222 230
-40.8298039 17.9144464 2 218 222 230
-41.602229 17.7240607 2 218 222 230
-42.397771 17.7240607 2 218 222 230
-43.1701961 17.9144464 2 218 222 230
-43.8746137 18.2841532 2 218 222 230
-44.4700855 18.8116952 2 218 222 230
-44.9220049 19.4664135 2 218 222 230
-45.204108 20.2102583 2 218 222 230
38.7 21 2 218 222 230
38.7 21 -1.35120328e-13 218 222 230
45.3 21 -1.58164105e-13 218 222 230
45.204108 20.2102583 -1.578293e-13 218 222 230
44.9220049 19.4664135 -1.56844342e-13 218 222 230
44.4700855 18.8116952 -1.55266474e-13 218 222 230
43.8746137 18.2841532 -1.53187395e-13 218 222 230
43.1701961 17.9144464 -1.50727934e-13 218 222 230
42.397771 17.7240607 -1.48031026e-13 218 222 230
41.602229 17.7240607 -1.45253406e-13 218 222 230
40.8298039 17.9144464 -1.42556498e-13 218 222 230
40.1253863 18.2841532 -1.40097038e-13 218 222 230
39.5299145 18.8116952 -1.38017959e-13 218 222 230
39.0779951 19.4664135 -1.36440091e-13 218 222 230
38.795892 20.2102583 -1.35455133e-13 218 222 230
45.3 21 2 218 222 230
45.204108 20.2102583 2 218 222 230
44.9220049 19.4664135 2 218 222 230
44.4700855 18.8116952 2 218 222 230
43.8746137 18.2841532 2 218 222 230
43.1701961 17.9144464 2 218 222 230
42.397771 17.7240607 2 218 222 230
41.602229 17.7240607 2 218 222 230
40.8298039 17.9144464 2 218 222 230
40.1253863 18.2841532 2 218 222 230
39.5299145 18.8116952 2 218 222 230
39.0779951 19.4664135 2 218 222 230
38.795892 20.2102583 2 218 222 230
38.7 39 2 218 222 230
38.7 39 -1.35120328e-13 218 222 230
45.3 39 -1.58164105e-13 218 222 230
45.204108 38.2102583 -1.578293e-13 218 222 230
44.9220049 37.4664135 -1.56844342e-13 218 222 230
44.4700855 36.8116952 -1.55266474e-13 218 222 230
43.8746137 36.2841532 -1.53187395e-13 218 222 230
43.1701961 35.9144464 -1.50727934e-13 218 222 230
42.397771 35.7240607 -1.48031026e-13 218 222 230
41.602229 35.7240607 -1.45253406e-13 218 222 230
40.8298039 35.9144464 -1.42556498e-13 218 222 230
40.1253863 36.2841532 -1.40097038e-13 218 222 230
39.5299145 36.8116952 -1.38017959e-13 218 222 230
39.0779951 37.4664135 -1.36440091e-13 218 222 230
38.795892 38.2102583 -1.35455133e-13 218 222 230
45.3 39 2 218 222 230
45.204108 38.2102583 2 218 222 230
44.9220049 37.4664135 2 218 222 230
44.4700855 36.8116952 2 218 222 230
43.8746137 36.2841532 2 218 222 230
43.1701961 35.9144464 2 218 222 230
42.397771 35.7240607 2 218 222 230
41.602229 35.7240607 2 218 222 230
40.8298039 35.9144464 2 218 222 230
40.1253863 36.2841532 2 218 222 230
39.5299145 36.8116952 2 218 222 230
39.0779951 37.4664135 2 218 222 230
38.795892 38.2102583 2 218 222 230
20 -10 93.5 218 222 230
22 -10 93.5 218 222 230
22 -11.351426 93.6420406 218 222 230
22 -12.6437882 94.0619545 218 222 230
22 -13.8206041 94.7413895 218 222 230
22 -14.8304414 95.6506511 218 222 230
22 -15.6291651 96.75 218 222 230
22 -16.1818674 97.9913895 218 222 230
22 -16.4643923 99.320565 218 222 230
22 -16.4643923 100.679435 218 222 230
22 -16.1818674 102.00861 218 222 230
22 -15.6291651 103.25 218 222 230
22 -14.8304414 104.349349 218 222 230
22 -13.8206041 105.25861 218 222 230
22 -12.6437882 105.938045 218 222 230
22 -11.351426 106.357959 218 222 230
22 -10 106.5 218 222 230
20 -10 106.5 218 222 230
20 -11.351426 93.6420406 218 222 230
20 -12.6437882 94.0619545 218 222 230
20 -13.8206041 94.7413895 218 222 230
20 -14.8304414 95.6506511 218 222 230
20 -15.6291651 96.75 218 222 230
20 -16.1818674 97.9913895 218 222 230
20 -16.4643923 99.320565 218 222 230
20 -16.4643923 100.679435 218 222 230
20 -16.1818674 102.00861 218 222 230
20 -15.6291651 103.25 218 222 230
20 -14.8304414 104.349349 218 222 230
20 -13.8206041 105.25861 218 222 230
20 -12.6437882 105.938045 218 222 230
20 -11.351426 106.357959 218 222 230
-20 -10 106.5 218 222 230
-22 -10 106.5 218 222 230
-22 -10 93.5 218 222 230
-22 -11.351426 93.6420406 218 222 230
-22 -12.6437882 94.0619545 218 222 230
-22 -13.8206041 94.7413895 218 222 230
-22 -14.8304414 95.6506511 218 222 230
-22 -15.6291651 96.75 218 222 230
-22 -16.1818674 97.9913895 218 222 230
-22 -16.4643923 99.320565 218 222 230
-22 -16.4643923 100.679435 218 222 230
-22 -16.1818674 102.00861 218 222 230
-22 -15.6291651 103.25 218 222 230
-22 -14.8304414 104.349349 218 222 230
-22 -13.8206041 105.25861 218 222 230
-22 -12.6437882 105.938045 218 222 230
-22 -11.351426 106.357959 218 222 230
-20 -10 93.5 218 222 230
-20 -11.351426 93.6420406 218 222 230
-20 -12.6437882 94.0619545 218 222 230
-20 -13.8206041 94.7413895 218 222 230
-20 -14.8304414 95.6506511 218 222 230
-20 -15.6291651 96.75 218 222 230
-20 -16.1818674 97.9913895 218 222 230
-20 -16.4643923 99.320565 218 222 230
-20 -16.4643923 100.679435 218 222 230
-20 -16.1818674 102.00861 218 222 230
-20 -15.6291651 103.25 218 222 230
-20 -14.8304414 104.349349 218 222 230
-20 -13.8206041 105.25861 218 222 230
-20 -12.6437882 105.938045 218 222 230
-20 -11.351426 106.357959 218 222 230
-20 -20.3923048 94 218 222 230
-20 -21.2201949 95.7447414 218 222 230
-20 -21.7574878 97.5996917 218 222 230
-20 -21.990268 99.5168087 218 222 230
-20 -21.9125065 101.44644 218 222 230
-20 -21.5262173 103.33861 218 222 230
-20 -20.8414052 105.144311 218 222 230
-20 -19.8758064 106.816777 218 222 230
-20 -18.6544294 108.312692 218 222 230
-20 -17.2089072 109.593313 218 222 230
-20 -15.5766781 110.625472 218 222 230
-20 -13.8000159 111.382437 218 222 230
-20 -11.9249354 111.844603 218 222 230
-20 -10 112 218 222 230
-22 -10 112 218 222 230
-22 -20.3923048 94 218 222 230
-22 -21.2201949 95.7447414 218 222 230
-22 -21.7574878 97.5996917 218 222 230
-22 -21.990268 99.5168087 218 222 230
-22 -21.9125065 101.44644 218 222 230
-22 -21.5262173 103.33861 218 222 230
-22 -20.8414052 105.144311 218 222 230
-22 -19.8758064 106.816777 218 222 230
-22 -18.6544294 108.312692 218 222 230
-22 -17.2089072 109.593313 218 222 230
-22 -15.5766781 110.625472 218 222 230
-22 -13.8000159 111.382437 218 222 230
-22 -11.9249354 111.844603 218 222 230
28 6 48.2871871 218 222 230
28 5.00039424 50.018555 218 222 230
28 37.9363974 69.0341653 218 222 230
28 40.1421356 66.8284271 218 222 230
28 41.6366296 65.1560875 218 222 230
28 42.934484 63.326933 218 222 230
28 44.0193774 61.3639663 218 222 230
28 44.8776666 59.2918727 218 222 230
28 45.4985582 57.1367102 218 222 230
28 45.8742442 54.925581 218 222 230
28 46 52.6862915 218 222 230
28 46 4 218 222 230
28 14 4 218 222 230
28 14 6 218 222 230
28 13.9709418 6.23931566 218 222 230
28 13.885456 6.46472317 218 222 230
28 13.7485107 6.66312266 218 222 230
28 13.5680647 6.82298387 218 222 230
28 13.3546049 6.93501624 218 222 230
28 13.1205367 6.99270887 218 222 230
28 12.8794633 6.99270887 218 222 230
28 12.6453951 6.93501624 218 222 230
28 12.4319353 6.82298387 218 222 230
28 12.2514893 6.66312266 218 222 230
28 12.114544 6.46472317 218 222 230
28 12.0290582 6.23931566 218 222 230
28 12 6 218 222 230
28 12 0 218 222 230
28 4 0 218 222 230
28 4 40 218 222 230
28 4.44504187 40.0501442 218 222 230
28 4.86776748 40.1980623 218 222 230
28 5.2469796 40.436337 218 222 230
28 5.56366296 40.7530204 218 222 230
28 5.80193774 41.1322325 218 222 230
28 5.94985582 41.5549581 218 222 230
28 6 42 218 222 230
30 37.9363974 69.0341653 218 222 230
30 40.1421356 66.8284271 218 222 230
30 41.6366296 65.1560875 218 222 230
30 42.934484 63.326933 218 222 230
30 44.0193774 61.3639663 218 222 230
30 44.8776666 59.2918727 218 222 230
30 45.4985582 57.1367102 218 222 230
30 45.8742442 54.925581 218 222 230
30 46 52.6862915 218 222 230
30 46 4 218 222 230
30 14 4 218 222 230
30 14 6 218 222 230
30 13.9709418 6.23931566 218 222 230
30 13.885456 6.46472317 218 222 230
30 13.7485107 6.66312266 218 222 230
30 13.5680647 6.82298387 218 222 230
30 13.3546049 6.93501624 218 222 230
30 13.1205367 6.99270887 218 222 230
30 12.8794633 6.99270887 218 222 230
30 12.6453951 6.93501624 218 222 230
30 12.4319353 6.82298387 218 222 230
30 12.2514893 6.66312266 218 222 230
30 12.114544 6.46472317 218 222 230
30 12.0290582 6.23931566 218 222 230
30 12 6 218 222 230
30 12 0 218 222 230
30 4 0 218 222 230
30 4 40 218 222 230
30 6 42 218 222 230
30 5.94985582 41.5549581 218 222 230
30 5.80193774 41.1322325 218 222 230
30 5.56366296 40.7530204 218 222 230
30 5.2469796 40.436337 218 222 230
30 4.86776748 40.1980623 218 222 230
30 4.44504187 40.0501442 218 222 230
30 6 48.2871871 218 222 230
30 5.00039424 50.018555 218 222 230
30 6 48.2871871 218 222 230
30 5.00039424 50.018555 218 222 230
28 6 48.2871871 218 222 230
28 5.00039424 50.018555 218 222 230
28 37.9363974 69.0341653 218 222 230
28 40.1421356 66.8284271 218 222 230
30 40.1421356 66.8284271 218 222 230
30 37.9363974 69.0341653 218 222 230
28 4 0 218 222 230
28 12 0 218 222 230
30 12 0 218 222 230
30 4 0 218 222 230
30 46 52.6862915 218 222 230
30 46 4 218 222 230
28 46 4 218 222 230
28 46 52.6862915 218 222 230
-30 6 42 218 222 230
-30 6 48.2871871 218 222 230
-30 4 40 218 222 230
-30 4.44504187 40.0501442 218 222 230
-30 4.86776748 40.1980623 218 222 230
-30 5.2469796 40.436337 218 222 230
-30 5.56366296 40.7530204 218 222 230
-30 5.80193774 41.1322325 218 222 230
-30 5.94985582 41.5549581 218 222 230
-30 4 0 218 222 230
-30 12 0 218 222 230
-30 12 6 218 222 230
-30 12.0290582 6.23931566 218 222 230
-30 12.114544 6.46472317 218 222 230
-30 12.2514893 6.66312266 218 222 230
-30 12.4319353 6.82298387 218 222 230
-30 12.6453951 6.93501624 218 222 230
-30 12.8794633 6.99270887 218 222 230
-30 13.1205367 6.99270887 218 222 230
-30 13.3546049 6.93501624 218 222 230
-30 13.5680647 6.82298387 218 222 230
-30 13.7485107 6.66312266 218 222 230
-30 13.885456 6.46472317 218 222 230
-30 13.9709418 6.23931566 218 222 230
-30 14 6 218 222 230
-30 14 4 218 222 230
-30 46 4 218 222 230
-30 46 52.6862915 218 222 230
-30 40.1421356 66.8284271 218 222 230
-30 41.6366296 65.1560875 218 222 230
-30 42.934484 63.326933 218 222 230
-30 44.0193774 61.3639663 218 222 230
-30 44.8776666 59.2918727 218 222 230
-30 45.4985582 57.1367102 218 222 230
-30 45.8742442 54.925581 218 222 230
-30 37.9363974 69.0341653 218 222 230
-30 5.00039424 50.018555 218 222 230
-28 5.00039424 50.018555 218 222 230
-28 37.9363974 69.0341653 218 222 230
-28 6 48.2871871 218 222 230
-28 6 42 218 222 230
-28 5.94985582 41.5549581 218 222 230
-28 5.80193774 41.1322325 218 222 230
-28 5.56366296 40.7530204 218 222 230
-28 5.2469796 40.436337 218 222 230
-28 4.86776748 40.1980623 218 222 230
-28 4.44504187 40.0501442 218 222 230
-28 4 40 218 222 230
-28 4 0 218 222 230
-28 12 0 218 222 230
-28 12 6 218 222 230
-28 12.0290582 6.23931566 218 222 230
-28 12.114544 6.46472317 218 222 230
-28 12.2514893 6.66312266 218 222 230
-28 12.4319353 6.82298387 218 222 230
-28 12.6453951 6.93501624 218 222 230
-28 12.8794633 6.99270887 218 222 230
-28 13.1205367 6.99270887 218 222 230
-28 13.3546049 6.93501624 218 222 230
-28 13.5680647 6.82298387 218 222 230
-28 13.7485107 6.66312266 218 222 230
-28 13.885456 6.46472317 218 222 230
-28 13.9709418 6.23931566 218 222 230
-28 14 6 218 222 230
-28 14 4 218 222 230
-28 46 4 218 222 230
-28 46 52.6862915 218 222 230
-28 40.1421356 66.8284271 218 222 230
-28 41.6366296 65.1560875 218 222 230
-28 42.934484 63.326933 218 222 230
-28 44.0193774 61.3639663 218 222 230
-28 44.8776666 59.2918727 218 222 230
-28 45.4985582 57.1367102 218 222 230
-28 45.8742442 54.925581 218 222 230
-30 12 0 218 222 230
-30 4 0 218 222 230
-28 4 0 218 222 230
-28 12 0 218 222 230
-30 4 40 218 222 230
-28 4 40 218 222 230
-29.8997116 3.10991626 40 218 222 230
-29.6038755 2.26446504 40 218 222 230
-29.1273259 1.50604079 40 218 222 230
-28.4939592 0.87267407 40 218 222 230
-27.735535 0.396124528 40 218 222 230
-26.8900837 0.100288351 40 218 222 230
-26 7.34788079e-16 40 218 222 230
-26 2 40 218 222 230
-27.9498558 3.55495813 40 218 222 230
-27.8019377 3.13223252 40 218 222 230
-27.563663 2.7530204 40 218 222 230
-27.2469796 2.43633704 40 218 222 230
-26.8677675 2.19806226 40 218 222 230
-26.4450419 2.05014418 40 218 222 230
-26 7.34788079e-16 0 218 222 230
-26 2 0 218 222 230
-30 4 0 218 222 230
-29.8997116 3.10991626 0 218 222 230
-29.6038755 2.26446504 0 218 222 230
-29.1273259 1.50604079 0 218 222 230
-28.4939592 0.87267407 0 218 222 230
-27.735535 0.396124528 0 218 222 230
-26.8900837 0.100288351 0 218 222 230
-28 4 0 218 222 230
-27.9498558 3.55495813 0 218 222 230
-27.8019377 3.13223252 0 218 222 230
-27.563663 2.7530204 0 218 222 230
-27.2469796 2.43633704 0 218 222 230
-26.8677675 2.19806226 0 218 222 230
-26.4450419 2.05014418 0 218 222 230
-26 7.34788079e-16 0 218 222 230
26 1.02870331e-14 0 218 222 230
-26 2 0 218 222 230
26 2 0 218 222 230
26 1.02870331e-14 40 218 222 230
26 2 40 218 222 230
26.8900837 0.100288351 40 218 222 230
27.735535 0.396124528 40 218 222 230
28.4939592 0.87267407 40 218 222 230
29.1273259 1.50604079 40 218 222 230
29.6038755 2.26446504 40 218 222 230
29.8997116 3.10991626 40 218 222 230
30 4 40 218 222 230
28 4 40 218 222 230
26.4450419 2.05014418 40 218 222 230
26.8677675 2.19806226 40 218 222 230
27.2469796 2.43633704 40 218 222 230
27.563663 2.7530204 40 218 222 230
27.8019377 3.13223252 40 218 222 230
27.9498558 3.55495813 40 218 222 230
-26 7.34788079e-16 40 218 222 230
26 1.02870331e-14 40 218 222 230
26 2 40 218 222 230
-26 2 40 218 222 230
30 4 0 218 222 230
28 4 0 218 222 230
26 1.02870331e-14 0 218 222 230
26.8900837 0.100288351 0 218 222 230
27.735535 0.396124528 0 218 222 230
28.4939592 0.87267407 0 218 222 230
29.1273259 1.50604079 0 218 222 230
29.6038755 2.26446504 0 218 222 230
29.8997116 3.10991626 0 218 222 230
26 2 0 218 222 230
26.4450419 2.05014418 0 218 222 230
26.8677675 2.19806226 0 218 222 230
27.2469796 2.43633704 0 218 222 230
27.563663 2.7530204 0 218 222 230
27.8019377 3.13223252 0 218 222 230
27.9498558 3.55495813 0 218 222 230
28 4 40 218 222 230
28 4 0 218 222 230
26 2 40 218 222 230
26.4450419 2.05014418 40 218 222 230
26.8677675 2.19806226 40 218 222 230
27.2469796 2.43633704 40 218 222 230
27.563663 2.7530204 40 218 222 230
27.8019377 3.13223252 40 218 222 230
27.9498558 3.55495813 40 218 222 230
26 2 0 218 222 230
26.4450419 2.05014418 0 218 222 230
26.8677675 2.19806226 0 218 222 230
27.2469796 2.43633704 0 218 222 230
27.563663 2.7530204 0 218 222 230
27.8019377 3.13223252 0 218 222 230
27.9498558 3.55495813 0 218 222 230
-26 2 0 218 222 230
26 2 0 218 222 230
-26 2 40 218 222 230
26 2 40 218 222 230
-26 2 40 218 222 230
-26 2 0 218 222 230
-28 4 40 218 222 230
-27.9498558 3.55495813 40 218 222 230
-27.8019377 3.13223252 40 218 222 230
-27.563663 2.7530204 40 218 222 230
-27.2469796 2.43633704 40 218 222 230
-26.8677675 2.19806226 40 218 222 230
-26.4450419 2.05014418 40 218 222 230
-28 4 0 218 222 230
-27.9498558 3.55495813 0 218 222 230
-27.8019377 3.13223252 0 218 222 230
-27.563663 2.7530204 0 218 222 230
-27.2469796 2.43633704 0 218 222 230
-26.8677675 2.19806226 0 218 222 230
-26.4450419 2.05014418 0 218 222 230
-30 46 4 218 222 230
-28 46 4 218 222 230
-30 46 52.6862915 218 222 230
-28 46 52.6862915 218 222 230
-30 4 0 218 222 230
-29.8997116 3.10991626 0 218 222 230
-29.6038755 2.26446504 0 218 222 230
-29.1273259 1.50604079 0 218 222 230
-28.4939592 0.87267407 0 218 222 230
-27.735535 0.396124528 0 218 222 230
-26.8900837 0.100288351 0 218 222 230
-26 7.34788079e-16 0 218 222 230
-26 7.34788079e-16 40 218 222 230
-30 4 40 218 222 230
-29.8997116 3.10991626 40 218 222 230
-29.6038755 2.26446504 40 218 222 230
-29.1273259 1.50604079 40 218 222 230
-28.4939592 0.87267407 40 218 222 230
-27.735535 0.396124528 40 218 222 230
-26.8900837 0.100288351 40 218 222 230
-26 7.34788079e-16 40 218 222 230
-26 7.34788079e-16 0 218 222 230
26 1.02870331e-14 40 218 222 230
26 1.02870331e-14 0 218 222 230
26 1.02870331e-14 0 218 222 230
26.8900837 0.100288351 0 218 222 230
27.735535 0.396124528 0 218 222 230
28.4939592 0.87267407 0 218 222 230
29.1273259 1.50604079 0 218 222 230
29.6038755 2.26446504 0 218 222 230
29.8997116 3.10991626 0 218 222 230
30 4 0 218 222 230
30 4 40 218 222 230
26 1.02870331e-14 40 218 222 230
26.8900837 0.100288351 40 218 222 230
27.735535 0.396124528 40 218 222 230
28.4939592 0.87267407 40 218 222 230
29.1273259 1.50604079 40 218 222 230
29.6038755 2.26446504 40 218 222 230
29.8997116 3.10991626 40 218 222 230
-28 12 0 218 222 230
-28 12 6 218 222 230
-30 12 0 218 222 230
-30 12 6 218 222 230
-30 14 6 218 222 230
-28 14 6 218 222 230
-30 12 6 218 222 230
-30 12.0290582 6.23931566 218 222 230
-30 12.114544 6.46472317 218 222 230
-30 12.2514893 6.66312266 218 222 230
-30 12.4319353 6.82298387 218 222 230
-30 12.6453951 6.93501624 218 222 230
-30 12.8794633 6.99270887 218 222 230
-30 13.1205367 6.99270887 218 222 230
-30 13.3546049 6.93501624 218 222 230
-30 13.5680647 6.82298387 218 222 230
-30 13.7485107 6.66312266 218 222 230
-30 13.885456 6.46472317 218 222 230
-30 13.9709418 6.23931566 218 222 230
-28 12 6 218 222 230
-28 12.0290582 6.23931566 218 222 230
-28 12.114544 6.46472317 218 222 230
-28 12.2514893 6.66312266 218 222 230
-28 12.4319353 6.82298387 218 222 230
-28 12.6453951 6.93501624 218 222 230
-28 12.8794633 6.99270887 218 222 230
-28 13.1205367 6.99270887 218 222 230
-28 13.3546049 6.93501624 218 222 230
-28 13.5680647 6.82298387 218 222 230
-28 13.7485107 6.66312266 218 222 230
-28 13.885456 6.46472317 218 222 230
-28 13.9709418 6.23931566 218 222 230
-28 14 6 218 222 230
-28 14 4 218 222 230
-30 14 6 218 222 230
-30 14 4 218 222 230
-32 46 2 218 222 230
-32 46 -6.9388939e-15 218 222 230
-30 46 4 218 222 230
-30.0501442 46 3.55495813 218 222 230
-30.1980623 46 3.13223252 218 222 230
-30.436337 46 2.7530204 218 222 230
-30.7530204 46 2.43633704 218 222 230
-31.1322325 46 2.19806226 218 222 230
-31.5549581 46 2.05014418 218 222 230
-28 46 4 218 222 230
-28.1002884 46 3.10991626 218 222 230
-28.3961245 46 2.26446504 218 222 230
-28.8726741 46 1.50604079 218 222 230
-29.5060408 46 0.87267407 218 222 230
-30.264465 46 0.396124528 218 222 230
-31.1099163 46 0.100288351 218 222 230
-30 14 4 218 222 230
-28 14 4 218 222 230
-32 14 -6.97570236e-15 218 222 230
-31.1099163 14 0.100288351 218 222 230
-30.264465 14 0.396124528 218 222 230
-29.5060408 14 0.87267407 218 222 230
-28.8726741 14 1.50604079 218 222 230
-28.3961245 14 2.26446504 218 222 230
-28.1002884 14 3.10991626 218 222 230
-32 14 2 218 222 230
-31.5549581 14 2.05014418 218 222 230
-31.1322325 14 2.19806226 218 222 230
-30.7530204 14 2.43633704 218 222 230
-30.436337 14 2.7530204 218 222 230
-30.1980623 14 3.13223252 218 222 230
-30.0501442 14 3.55495813 218 222 230
-28 14 4 218 222 230
-28 46 4 218 222 230
-32 14 -6.97570236e-15 218 222 230
-31.1099163 14 0.100288351 218 222 230
-30.264465 14 0.396124528 218 222 230
-29.5060408 14 0.87267407 218 222 230
-28.8726741 14 1.50604079 218 222 230
-28.3961245 14 2.26446504 218 222 230
-28.1002884 14 3.10991626 218 222 230
-32 46 -6.9388939e-15 218 222 230
-28.1002884 46 3.10991626 218 222 230
-28.3961245 46 2.26446504 218 222 230
-28.8726741 46 1.50604079 218 222 230
-29.5060408 46 0.87267407 218 222 230
-30.264465 46 0.396124528 218 222 230
-31.1099163 46 0.100288351 218 222 230
-32 14 2 218 222 230
-31.5549581 14 2.05014418 218 222 230
-31.1322325 14 2.19806226 218 222 230
-30.7530204 14 2.43633704 218 222 230
-30.436337 14 2.7530204 218 222 230
-30.1980623 14 3.13223252 218 222 230
-30.0501442 14 3.55495813 218 222 230
-30 14 4 218 222 230
-32 46 2 218 222 230
-30 46 4 218 222 230
-30.0501442 46 3.55495813 218 222 230
-30.1980623 46 3.13223252 218 222 230
-30.436337 46 2.7530204 218 222 230
-30.7530204 46 2.43633704 218 222 230
-31.1322325 46 2.19806226 218 222 230
-31.5549581 46 2.05014418 218 222 230
-32 14 -6.97570236e-15 218 222 230
-45 14 -5.24753851e-14 218 222 230
-45 14 2 218 222 230
-32 14 2 218 222 230
-45 46 2 218 222 230
-32 46 2 218 222 230
-45 46 -5.24753851e-14 218 222 230
-32 46 -6.9388939e-15 218 222 230
-45 46 -5.24753851e-14 218 222 230
-32 46 -6.9388939e-15 218 222 230
-50 41 -6.99327918e-14 218 222 230
-49.8746396 42.1126047 -6.94950982e-14 218 222 230
-49.5048443 43.1694187 -6.82039651e-14 218 222 230
-48.9091574 44.117449 -6.61241353e-14 218 222 230
-48.117449 44.9091574 -6.33599002e-14 218 222 230
-47.1694187 45.5048443 -6.004987e-14 218 222 230
-46.1126047 45.8746396 -5.63600236e-14 218 222 230
-50 19 -6.99327918e-14 218 222 230
-45 14 -5.24753851e-14 218 222 230
-46.1126047 14.1253604 -5.63600236e-14 218 222 230
-47.1694187 14.4951557 -6.004987e-14 218 222 230
-48.117449 15.0908426 -6.33599002e-14 218 222 230
-48.9091574 15.882551 -6.61241353e-14 218 222 230
-49.5048443 16.8305813 -6.82039651e-14 218 222 230
-49.8746396 17.8873953 -6.94950982e-14 218 222 230
-32 14 -6.97570236e-15 218 222 230
-38.7 39 1.35120328e-13 218 222 230
-38.795892 38.2102583 1.35455133e-13 218 222 230
-39.0779951 37.4664135 1.36440091e-13 218 222 230
-39.5299145 36.8116952 1.38017959e-13 218 222 230
-40.1253863 36.2841532 1.40097038e-13 218 222 230
-40.8298039 35.9144464 1.42556498e-13 218 222 230
-41.602229 35.7240607 1.45253406e-13 218 222 230
-42.397771 35.7240607 1.48031026e-13 218 222 230
-43.1701961 35.9144464 1.50727934e-13 218 222 230
-43.8746137 36.2841532 1.53187395e-13 218 222 230
-44.4700855 36.8116952 1.55266474e-13 218 222 230
-44.9220049 37.4664135 1.56844342e-13 218 222 230
-45.204108 38.2102583 1.578293e-13 218 222 230
-45.3 39 1.58164105e-13 218 222 230
-45.204108 39.7897417 1.578293e-13 218 222 230
-44.9220049 40.5335865 1.56844342e-13 218 222 230
-44.4700855 41.1883048 1.55266474e-13 218 222 230
-43.8746137 41.7158468 1.53187395e-13 218 222 230
-43.1701961 42.0855536 1.50727934e-13 218 222 230
-42.397771 42.2759393 1.48031026e-13 218 222 230
-41.602229 42.2759393 1.45253406e-13 218 222 230
-40.8298039 42.0855536 1.42556498e-13 218 222 230
-40.1253863 41.7158468 1.40097038e-13 218 222 230
-39.5299145 41.1883048 1.38017959e-13 218 222 230
-39.0779951 40.5335865 1.36440091e-13 218 222 230
-38.795892 39.7897417 1.35455133e-13 218 222 230
-38.7 21 1.35120328e-13 218 222 230
-38.795892 20.2102583 1.35455133e-13 218 222 230
-39.0779951 19.4664135 1.36440091e-13 218 222 230
-39.5299145 18.8116952 1.38017959e-13 218 222 230
-40.1253863 18.2841532 1.40097038e-13 218 222 230
-40.8298039 17.9144464 1.42556498e-13 218 222 230
-41.602229 17.7240607 1.45253406e-13 218 222 230
-42.397771 17.7240607 1.48031026e-13 218 222 230
-43.1701961 17.9144464 1.50727934e-13 218 222 230
-43.8746137 18.2841532 1.53187395e-13 218 222 230
-44.4700855 18.8116952 1.55266474e-13 218 222 230
-44.9220049 19.4664135 1.56844342e-13 218 222 230
-45.204108 20.2102583 1.578293e-13 218 222 230
-45.3 21 1.58164105e-13 218 222 230
-45.204108 21.7897417 1.578293e-13 218 222 230
-44.9220049 22.5335865 1.56844342e-13 218 222 230
-44.4700855 23.1883048 1.55266474e-13 218 222 230
-43.8746137 23.7158468 1.53187395e-13 218 222 230
-43.1701961 24.0855536 1.50727934e-13 218 222 230
-42.397771 24.2759393 1.48031026e-13 218 222 230
-41.602229 24.2759393 1.45253406e-13 218 222 230
-40.8298039 24.0855536 1.42556498e-13 218 222 230
-40.1253863 23.7158468 1.40097038e-13 218 222 230
-39.5299145 23.1883048 1.38017959e-13 218 222 230
-39.0779951 22.5335865 1.36440091e-13 218 222 230
-38.795892 21.7897417 1.35455133e-13 218 222 230
-32 14 2 218 222 230
-45 14 2 218 222 230
-32 46 2 218 222 230
-45 46 2 218 222 230
-50 41 2 218 222 230
-49.8746396 42.1126047 2 218 222 230
-49.5048443 43.1694187 2 218 222 230
-48.9091574 44.117449 2 218 222 230
-48.117449 44.9091574 2 218 222 230
-47.1694187 45.5048443 2 218 222 230
-46.1126047 45.8746396 2 218 222 230
-50 19 2 218 222 230
-46.1126047 14.1253604 2 218 222 230
-47.1694187 14.4951557 2 218 222 230
-48.117449 15.0908426 2 218 222 230
-48.9091574 15.882551 2 218 222 230
-49.5048443 16.8305813 2 218 222 230
-49.8746396 17.8873953 2 218 222 230
-45.3 39 2 218 222 230
-45.204108 39.7897417 2 218 222 230
-44.9220049 40.5335865 2 218 222 230
-44.4700855 41.1883048 2 218 222 230
-43.8746137 41.7158468 2 218 222 230
-43.1701961 42.0855536 2 218 222 230
-42.397771 42.2759393 2 218 222 230
-41.602229 42.2759393 2 218 222 230
-40.8298039 42.0855536 2 218 222 230
-40.1253863 41.7158468 2 218 222 230
-39.5299145 41.1883048 2 218 222 230
-39.0779951 40.5335865 2 218 222 230
-38.795892 39.7897417 2 218 222 230
-38.7 39 2 218 222 230
-38.795892 38.2102583 2 218 222 230
-39.0779951 37.4664135 2 218 222 230
-39.5299145 36.8116952 2 218 222 230
-40.1253863 36.2841532 2 218 222 230
-40.8298039 35.9144464 2 218 222 230
-41.602229 35.7240607 2 218 222 230
-42.397771 35.7240607 2 218 222 230
-43.1701961 35.9144464 2 218 222 230
-43.8746137 36.2841532 2 218 222 230
-44.4700855 36.8116952 2 218 222 230
-44.9220049 37.4664135 2 218 222 230
-45.204108 38.2102583 2 218 222 230
-45.3 21 2 218 222 230
-45.204108 21.7897417 2 218 222 230
-44.9220049 22.5335865 2 218 222 230
-44.4700855 23.1883048 2 218 222 230
-43.8746137 23.7158468 2 218 222 230
-43.1701961 24.0855536 2 218 222 230
-42.397771 24.2759393 2 218 222 230
-41.602229 24.2759393 2 218 222 230
-40.8298039 24.0855536 2 218 222 230
-40.1253863 23.7158468 2 218 222 230
-39.5299145 23.1883048 2 218 222 230
-39.0779951 22.5335865 2 218 222 230
-38.795892 21.7897417 2 218 222 230
-38.7 21 2 218 222 230
-38.795892 20.2102583 2 218 222 230
-39.0779951 19.4664135 2 218 222 230
-39.5299145 18.8116952 2 218 222 230
-40.1253863 18.2841532 2 218 222 230
-40.8298039 17.9144464 2 218 222 230
-41.602229 17.7240607 2 218 222 230
-42.397771 17.7240607 2 218 222 230
-43.1701961 17.9144464 2 218 222 230
-43.8746137 18.2841532 2 218 222 230
-44.4700855 18.8116952 2 218 222 230
-44.9220049 19.4664135 2 218 222 230
-45.204108 20.2102583 2 218 222 230
-45 14 2 218 222 230
-46.1126047 14.1253604 2 218 222 230
-47.1694187 14.4951557 2 218 222 230
-48.117449 15.0908426 2 218 222 230
-48.9091574 15.882551 2 218 222 230
-49.5048443 16.8305813 2 218 222 230
-49.8746396 17.8873953 2 218 222 230
-50 19 2 218 222 230
-50 19 -6.99327918e-14 218 222 230
-45 14 -5.24753851e-14 218 222 230
-46.1126047 14.1253604 -5.63600236e-14 218 222 230
-47.1694187 14.4951557 -6.004987e-14 218 222 230
-48.117449 15.0908426 -6.33599002e-14 218 222 230
-48.9091574 15.882551 -6.61241353e-14 218 222 230
-49.5048443 16.8305813 -6.82039651e-14 218 222 230
-49.8746396 17.8873953 -6.94950982e-14 218 222 230
-50 19 -6.99327918e-14 218 222 230
-50 19 2 218 222 230
-50 41 -6.99327918e-14 218 222 230
-50 41 2 218 222 230
-50 41 2 218 222 230
-49.8746396 42.1126047 2 218 222 230
-49.5048443 43.1694187 2 218 222 230
-48.9091574 44.117449 2 218 222 230
-48.117449 44.9091574 2 218 222 230
-47.1694187 45.5048443 2 218 222 230
-46.1126047 45.8746396 2 218 222 230
-45 46 2 218 222 230
-45 46 -5.24753851e-14 218 222 230
-50 41 -6.99327918e-14 218 222 230
-49.8746396 42.1126047 -6.94950982e-14 218 222 230
-49.5048443 43.1694187 -6.82039651e-14 218 222 230
-48.9091574 44.117449 -6.61241353e-14 218 222 230
-48.117449 44.9091574 -6.33599002e-14 218 222 230
-47.1694187 45.5048443 -6.004987e-14 218 222 230
-46.1126047 45.8746396 -5.63600236e-14 218 222 230
-30 40.1421356 66.8284271 218 222 230
-30 41.6366296 65.1560875 218 222 230
-30 42.934484 63.326933 218 222 230
-30 44.0193774 61.3639663 218 222 230
-30 44.8776666 59.2918727 218 222 230
-30 45.4985582 57.1367102 218 222 230
-30 45.8742442 54.925581 218 222 230
-30 46 52.6862915 218 222 230
-28 40.1421356 66.8284271 218 222 230
-28 41.6366296 65.1560875 218 222 230
-28 42.934484 63.326933 218 222 230
-28 44.0193774 61.3639663 218 222 230
-28 44.8776666 59.2918727 218 222 230
-28 45.4985582 57.1367102 218 222 230
-28 45.8742442 54.925581 218 222 230
-28 46 52.6862915 218 222 230
-28 37.9363974 69.0341653 218 222 230
-30 37.9363974 69.0341653 218 222 230
-28 40.1421356 66.8284271 218 222 230
-30 40.1421356 66.8284271 218 222 230
-30 5.00039424 50.018555 218 222 230
-28 5.00039424 50.018555 218 222 230
-30 6 48.2871871 218 222 230
-28 6 48.2871871 218 222 230
-30 6 42 218 222 230
-30 6 48.2871871 218 222 230
-28 6 42 218 222 230
-28 6 48.2871871 218 222 230
-28 37.9363974 69.0341653 218 222 230
-27.9318517 37.4953261 69.3772297 218 222 230
-29.8637033 37.236507 69.8255174 218 222 230
-30 37.9363974 69.0341653 218 222 230
-29.9657352 37.5842218 69.4337046 218 222 230
-29.8637033 37.236507 69.8255174 218 222 230
-27.9318517 37.4953261 69.3772297 218 222 230
-29.7587705 37.0701048 70.1137345 218 222 230
-29.6252311 36.9089086 70.3929345 218 222 230
-29.4641016 36.7541451 70.6609927 218 222 230
-27.7320508 37.2541451 69.7949673 218 222 230
-27.8793852 37.412125 69.5213382 218 222 230
-27.8126156 37.3315269 69.6609382 218 222 230
-29.4641016 4.00039424 51.7506059 218 222 230
-27.7320508 4.50039424 50.8845805 218 222 230
-27.8793852 4.65837409 50.6109513 218 222 230
-27.9696155 4.82674606 50.3193225 218 222 230
-28 5.00039424 50.018555 218 222 230
-30 5.00039424 50.018555 218 222 230
-29.7587705 4.31635395 51.2033476 218 222 230
-29.939231 4.65309788 50.62009 218 222 230
-27.9318517 37.4953261 69.3772297 218 222 230
-27.8793852 37.412125 69.5213382 218 222 230
-27.8126156 37.3315269 69.6609382 218 222 230
-27.7320508 37.2541451 69.7949673 218 222 230
-28 37.9363974 69.0341653 218 222 230
-28 5.00039424 50.018555 218 222 230
-27.7320508 4.50039424 50.8845805 218 222 230
-27.8793852 4.65837409 50.6109513 218 222 230
-27.9696155 4.82674606 50.3193225 218 222 230
-29.4641016 4.00039424 51.7506059 218 222 230
-29.4641016 36.7541451 70.6609927 218 222 230
-29.8637033 37.236507 69.8255174 218 222 230
-29.7587705 37.0701048 70.1137345 218 222 230
-29.6252311 36.9089086 70.3929345 218 222 230
-30 37.9363974 69.0341653 218 222 230
-29.9657352 37.5842218 69.4337046 218 222 230
-30 5.00039424 50.018555 218 222 230
-29.7587705 4.31635395 51.2033476 218 222 230
-29.939231 4.65309788 50.62009 218 222 230
-20.5358984 27.9803939 78.8330694 218 222 230
-22.2679492 27.4803939 79.6990948 218 222 230
-27.0898519 36.6979846 70.7582656 218 222 230
-28.8219028 36.1979846 71.624291 218 222 230
-20.5358984 -1.73165657 61.6788091 218 222 230
-20.5358984 27.9803939 78.8330694 218 222 230
-27.7320508 4.50039424 50.8845805 218 222 230
-27.7320508 37.2541451 69.7949673 218 222 230
-27.0898519 36.6979846 70.7582656 218 222 230
-27.0898519 36.6979846 70.7582656 218 222 230
-27.7320508 37.2541451 69.7949673 218 222 230
-28.8219028 36.1979846 71.624291 218 222 230
-29.4641016 36.7541451 70.6609927 218 222 230
-29.4641016 4.00039424 51.7506059 218 222 230
-29.4641016 36.7541451 70.6609927 218 222 230
-28.8219028 36.1979846 71.624291 218 222 230
-22.2679492 27.4803939 79.6990948 218 222 230
-22.2679492 -2.23165657 62.5448345 218 222 230
-22.2679492 -2.23165657 62.5448345 218 222 230
-20.5358984 -1.73165657 61.6788091 218 222 230
-29.4641016 4.00039424 51.7506059 218 222 230
-27.7320508 4.50039424 50.8845805 218 222 230
-22 -2.73165657 63.4108599 218 222 230
-20 -2.73165657 63.4108599 218 222 230
-22.0303845 -2.55800839 63.1100924 218 222 230
-22.1206148 -2.38963643 62.8184636 218 222 230
-22.2679492 -2.23165657 62.5448345 218 222 230
-20.5358984 -1.73165657 61.6788091 218 222 230
-20.060769 -2.38436022 62.809325 218 222 230
-20.2412295 -2.04761628 62.2260674 218 222 230
-22.2679492 27.4803939 79.6990948 218 222 230
-22.1207981 27.2007897 79.9026973 218 222 230
-22.0306269 26.9111048 80.1240314 218 222 230
-22 26.6158893 80.3546734 218 222 230
-20 26.6158893 80.3546734 218 222 230
-20.5358984 27.9803939 78.8330694 218 222 230
-20.2418214 27.5428478 79.3103257 218 222 230
-20.0613664 27.0846127 79.8234164 218 222 230
-21.2812258 27.5534471 79.4321977 218 222 230
-21.1027423 27.1863711 79.787514 218 222 230
-20.5358984 -1.73165657 61.6788091 218 222 230
-20.5358984 27.9803939 78.8330694 218 222 230
-20.2418214 27.5428478 79.3103257 218 222 230
-20.0613664 27.0846127 79.8234164 218 222 230
-20 26.6158893 80.3546734 218 222 230
-20 -2.73165657 63.4108599 218 222 230
-20.060769 -2.38436022 62.809325 218 222 230
-20.2412295 -2.04761628 62.2260674 218 222 230
-22.2679492 27.4803939 79.6990948 255 212 0
-22.1207981 27.2007897 79.9026973 255 212 0
-22.0306269 26.9111048 80.1240314 255 212 0
-22 26.6158893 80.3546734 255 212 0
-22 -2.73165657 63.4108599 255 212 0
-22.0303845 -2.55800839 63.1100924 255 212 0
-22.1206148 -2.38963643 62.8184636 255 212 0
-22.2679492 -2.23165657 62.5448345 255 212 0
-20 -10 112 218 222 230
-22 -10 112 218 222 230
-20 -8.12278642 111.85226 218 222 230
-20 -6.29179607 111.412678 218 222 230
-20 -4.552114 110.692078 218 222 230
-20 -2.94657697 109.708204 218 222 230
-20 -1.51471863 108.485281 218 222 230
-22 -1.51471863 108.485281 218 222 230
-22 -8.12278642 111.85226 218 222 230
-22 -6.29179607 111.412678 218 222 230
-22 -4.552114 110.692078 218 222 230
-22 -2.94657697 109.708204 218 222 230
-22 -10 106.5 218 222 230
-22 -8.64857401 106.357959 218 222 230
-22 -7.35621182 105.938045 218 222 230
-22 -6.17939586 105.25861 218 222 230
-22 -5.16955863 104.349349 218 222 230
-22 -4.37083488 103.25 218 222 230
-22 -3.81813264 102.00861 218 222 230
-22 -3.53560768 100.679435 218 222 230
-22 -3.53560768 99.320565 218 222 230
-22 -3.81813264 97.9913895 218 222 230
-22 -4.37083488 96.75 218 222 230
-22 -5.16955863 95.6506511 218 222 230
-22 -6.17939586 94.7413895 218 222 230
-22 -7.35621182 94.0619545 218 222 230
-22 -8.64857401 93.6420406 218 222 230
-22 -10 93.5 218 222 230
-20 -10 106.5 218 222 230
-20 -8.64857401 106.357959 218 222 230
-20 -7.35621182 105.938045 218 222 230
-20 -6.17939586 105.25861 218 222 230
-20 -5.16955863 104.349349 218 222 230
-20 -4.37083488 103.25 218 222 230
-20 -3.81813264 102.00861 218 222 230
-20 -3.53560768 100.679435 218 222 230
-20 -3.53560768 99.320565 218 222 230
-20 -3.81813264 97.9913895 218 222 230
-20 -4.37083488 96.75 218 222 230
-20 -5.16955863 95.6506511 218 222 230
-20 -6.17939586 94.7413895 218 222 230
-20 -7.35621182 94.0619545 218 222 230
-20 -8.64857401 93.6420406 218 222 230
-20 -10 93.5 218 222 230
-20 -2.73165657 63.4108599 218 222 230
-20 -20.3923048 94 218 222 230
-20 26.6158893 80.3546734 218 222 230
-20 -1.51471863 108.485281 218 222 230
-20 -10 112 218 222 230
-20 -8.12278642 111.85226 218 222 230
-20 -6.29179607 111.412678 218 222 230
-20 -4.552114 110.692078 218 222 230
-20 -2.94657697 109.708204 218 222 230
-20 -21.2201949 95.7447414 218 222 230
-20 -21.7574878 97.5996917 218 222 230
-20 -21.990268 99.5168087 218 222 230
-20 -21.9125065 101.44644 218 222 230
-20 -21.5262173 103.33861 218 222 230
-20 -20.8414052 105.144311 218 222 230
-20 -19.8758064 106.816777 218 222 230
-20 -18.6544294 108.312692 218 222 230
-20 -17.2089072 109.593313 218 222 230
-20 -15.5766781 110.625472 218 222 230
-20 -13.8000159 111.382437 218 222 230
-20 -11.9249354 111.844603 218 222 230
-20 -10 106.5 218 222 230
-20 -8.64857401 106.357959 218 222 230
-20 -7.35621182 105.938045 218 222 230
-20 -6.17939586 105.25861 218 222 230
-20 -5.16955863 104.349349 218 222 230
-20 -4.37083488 103.25 218 222 230
-20 -3.81813264 102.00861 218 222 230
-20 -3.53560768 100.679435 218 222 230
-20 -3.53560768 99.320565 218 222 230
-20 -3.81813264 97.9913895 218 222 230
-20 -4.37083488 96.75 218 222 230
-20 -5.16955863 95.6506511 218 222 230
-20 -6.17939586 94.7413895 218 222 230
-20 -7.35621182 94.0619545 218 222 230
-20 -8.64857401 93.6420406 218 222 230
-20 -10 93.5 218 222 230
-20 -11.351426 93.6420406 218 222 230
-20 -12.6437882 94.0619545 218 222 230
-20 -13.8206041 94.7413895 218 222 230
-20 -14.8304414 95.6506511 218 222 230
-20 -15.6291651 96.75 218 222 230
-20 -16.1818674 97.9913895 218 222 230
-20 -16.4643923 99.320565 218 222 230
-20 -16.4643923 100.679435 218 222 230
-20 -16.1818674 102.00861 218 222 230
-20 -15.6291651 103.25 218 222 230
-20 -14.8304414 104.349349 218 222 230
-20 -13.8206041 105.25861 218 222 230
-20 -12.6437882 105.938045 218 222 230
-20 -11.351426 106.357959 218 222 230
-20 -1.51471863 108.485281 218 222 230
-20 26.6158893 80.3546734 218 222 230
-22 26.6158893 80.3546734 218 222 230
-22 -1.51471863 108.485281 218 222 230
-22 -1.51471863 108.485281 218 222 230
-22 26.6158893 80.3546734 218 222 230
-22 -10 112 218 222 230
-22 -8.12278642 111.85226 218 222 230
-22 -6.29179607 111.412678 218 222 230
-22 -4.552114 110.692078 218 222 230
-22 -2.94657697 109.708204 218 222 230
-22 -20.3923048 94 218 222 230
-22 -21.2201949 95.7447414 218 222 230
-22 -21.7574878 97.5996917 218 222 230
-22 -21.990268 99.5168087 218 222 230
-22 -21.9125065 101.44644 218 222 230
-22 -21.5262173 103.33861 218 222 230
-22 -20.8414052 105.144311 218 222 230
-22 -19.8758064 106.816777 218 222 230
-22 -18.6544294 108.312692 218 222 230
-22 -17.2089072 109.593313 218 222 230
-22 -15.5766781 110.625472 218 222 230
-22 -13.8000159 111.382437 218 222 230
-22 -11.9249354 111.844603 218 222 230
-22 -2.73165657 63.4108599 218 222 230
-22 -10 93.5 218 222 230
-22 -11.351426 93.6420406 218 222 230
-22 -12.6437882 94.0619545 218 222 230
-22 -13.8206041 94.7413895 218 222 230
-22 -14.8304414 95.6506511 218 222 230
-22 -15.6291651 96.75 218 222 230
-22 -16.1818674 97.9913895 218 222 230
-22 -16.4643923 99.320565 218 222 230
-22 -16.4643923 100.679435 218 222 230
-22 -16.1818674 102.00861 218 222 230
-22 -15.6291651 103.25 218 222 230
-22 -14.8304414 104.349349 218 222 230
-22 -13.8206041 105.25861 218 222 230
-22 -12.6437882 105.938045 218 222 230
-22 -11.351426 106.357959 218 222 230
-22 -10 106.5 218 222 230
-22 -8.64857401 106.357959 218 222 230
-22 -7.35621182 105.938045 218 222 230
-22 -6.17939586 105.25861 218 222 230
-22 -5.16955863 104.349349 218 222 230
-22 -4.37083488 103.25 218 222 230
-22 -3.81813264 102.00861 218 222 230
-22 -3.53560768 100.679435 218 222 230
-22 -3.53560768 99.320565 218 222 230
-22 -3.81813264 97.9913895 218 222 230
-22 -4.37083488 96.75 218 222 230
-22 -5.16955863 95.6506511 218 222 230
-22 -6.17939586 94.7413895 218 222 230
-22 -7.35621182 94.0619545 218 222 230
-22 -8.64857401 93.6420406 218 222 230
-22 -2.73165657 63.4108599 218 222 230
-22 -20.3923048 94 218 222 230
-20 -2.73165657 63.4108599 218 222 230
-20 -20.3923048 94 218 222 230
28 14 4 218 222 230
28 14 6 218 222 230
30 14 4 218 222 230
30 14 6 218 222 230
30 12 6 218 222 230
28 12 6 218 222 230
30 14 6 218 222 230
30 13.9709418 6.23931566 218 222 230
30 13.885456 6.46472317 218 222 230
30 13.7485107 6.66312266 218 222 230
30 13.5680647 6.82298387 218 222 230
30 13.3546049 6.93501624 218 222 230
30 13.1205367 6.99270887 218 222 230
30 12.8794633 6.99270887 218 222 230
30 12.6453951 6.93501624 218 222 230
30 12.4319353 6.82298387 218 222 230
30 12.2514893 6.66312266 218 222 230
30 12.114544 6.46472317 218 222 230
30 12.0290582 6.23931566 218 222 230
28 14 6 218 222 230
28 13.9709418 6.23931566 218 222 230
28 13.885456 6.46472317 218 222 230
28 13.7485107 6.66312266 218 222 230
28 13.5680647 6.82298387 218 222 230
28 13.3546049 6.93501624 218 222 230
28 13.1205367 6.99270887 218 222 230
28 12.8794633 6.99270887 218 222 230
28 12.6453951 6.93501624 218 222 230
28 12.4319353 6.82298387 218 222 230
28 12.2514893 6.66312266 218 222 230
28 12.114544 6.46472317 218 222 230
28 12.0290582 6.23931566 218 222 230
28 12 6 218 222 230
28 12 0 218 222 230
30 12 6 218 222 230
30 12 0 218 222 230
32 14 2 218 222 230
32 14 -6.9388939e-15 218 222 230
30 14 4 218 222 230
30.0501442 14 3.55495813 218 222 230
30.1980623 14 3.13223252 218 222 230
30.436337 14 2.7530204 218 222 230
30.7530204 14 2.43633704 218 222 230
31.1322325 14 2.19806226 218 222 230
31.5549581 14 2.05014418 218 222 230
28 14 4 218 222 230
28.1002884 14 3.10991626 218 222 230
28.3961245 14 2.26446504 218 222 230
28.8726741 14 1.50604079 218 222 230
29.5060408 14 0.87267407 218 222 230
30.264465 14 0.396124528 218 222 230
31.1099163 14 0.100288351 218 222 230
30 46 4 218 222 230
28 46 4 218 222 230
32 46 -6.97570236e-15 218 222 230
31.1099163 46 0.100288351 218 222 230
30.264465 46 0.396124528 218 222 230
29.5060408 46 0.87267407 218 222 230
28.8726741 46 1.50604079 218 222 230
28.3961245 46 2.26446504 218 222 230
28.1002884 46 3.10991626 218 222 230
32 46 2 218 222 230
31.5549581 46 2.05014418 218 222 230
31.1322325 46 2.19806226 218 222 230
30.7530204 46 2.43633704 218 222 230
30.436337 46 2.7530204 218 222 230
30.1980623 46 3.13223252 218 222 230
30.0501442 46 3.55495813 218 222 230
28 46 4 218 222 230
28 14 4 218 222 230
32 46 -6.97570236e-15 218 222 230
31.1099163 46 0.100288351 218 222 230
30.264465 46 0.396124528 218 222 230
29.5060408 46 0.87267407 218 222 230
28.8726741 46 1.50604079 218 222 230
28.3961245 46 2.26446504 218 222 230
28.1002884 46 3.10991626 218 222 230
32 14 -6.9388939e-15 218 222 230
28.1002884 14 3.10991626 218 222 230
28.3961245 14 2.26446504 218 222 230
28.8726741 14 1.50604079 218 222 230
29.5060408 14 0.87267407 218 222 230
30.264465 14 0.396124528 218 222 230
31.1099163 14 0.100288351 218 222 230
32 46 2 255 212 0
31.5549581 46 2.05014418 255 212 0
31.1322325 46 2.19806226 255 212 0
30.7530204 46 2.43633704 255 212 0
30.436337 46 2.7530204 255 212 0
30.1980623 46 3.13223252 255 212 0
30.0501442 46 3.55495813 255 212 0
30 46 4 255 212 0
32 14 2 255 212 0
30 14 4 255 212 0
30.0501442 14 3.55495813 255 212 0
30.1980623 14 3.13223252 255 212 0
30.436337 14 2.7530204 255 212 0
30.7530204 14 2.43633704 255 212 0
31.1322325 14 2.19806226 255 212 0
31.5549581 14 2.05014418 255 212 0
45 46 -5.24753851e-14 218 222 230
32 46 -6.97570236e-15 218 222 230
32 46 2 218 222 230
45 46 2 218 222 230
32 14 2 218 222 230
45 14 2 218 222 230
32 14 -6.9388939e-15 218 222 230
45 14 -5.24753851e-14 218 222 230
32 14 -6.9388939e-15 218 222 230
45 14 -5.24753851e-14 218 222 230
46.1126047 14.1253604 -5.63600236e-14 218 222 230
47.1694187 14.4951557 -6.004987e-14 218 222 230
48.117449 15.0908426 -6.33599002e-14 218 222 230
48.9091574 15.882551 -6.61241353e-14 218 222 230
49.5048443 16.8305813 -6.82039651e-14 218 222 230
49.8746396 17.8873953 -6.94950982e-14 218 222 230
50 19 -6.99327918e-14 218 222 230
50 41 -6.99327918e-14 218 222 230
49.8746396 42.1126047 -6.94950982e-14 218 222 230
49.5048443 43.1694187 -6.82039651e-14 218 222 230
48.9091574 44.117449 -6.61241353e-14 218 222 230
48.117449 44.9091574 -6.33599002e-14 218 222 230
47.1694187 45.5048443 -6.004987e-14 218 222 230
46.1126047 45.8746396 -5.63600236e-14 218 222 230
45 46 -5.24753851e-14 218 222 230
32 46 -6.97570236e-15 218 222 230
45.3 21 -1.58164105e-13 218 222 230
45.204108 20.2102583 -1.578293e-13 218 222 230
44.9220049 19.4664135 -1.56844342e-13 218 222 230
44.4700855 18.8116952 -1.55266474e-13 218 222 230
43.8746137 18.2841532 -1.53187395e-13 218 222 230
43.1701961 17.9144464 -1.50727934e-13 218 222 230
42.397771 17.7240607 -1.48031026e-13 218 222 230
41.602229 17.7240607 -1.45253406e-13 218 222 230
40.8298039 17.9144464 -1.42556498e-13 218 222 230
40.1253863 18.2841532 -1.40097038e-13 218 222 230
39.5299145 18.8116952 -1.38017959e-13 218 222 230
39.0779951 19.4664135 -1.36440091e-13 218 222 230
38.795892 20.2102583 -1.35455133e-13 218 222 230
38.7 21 -1.35120328e-13 218 222 230
38.795892 21.7897417 -1.35455133e-13 218 222 230
39.0779951 22.5335865 -1.36440091e-13 218 222 230
39.5299145 23.1883048 -1.38017959e-13 218 222 230
40.1253863 23.7158468 -1.40097038e-13 218 222 230
40.8298039 24.0855536 -1.42556498e-13 218 222 230
41.602229 24.2759393 -1.45253406e-13 218 222 230
42.397771 24.2759393 -1.48031026e-13 218 222 230
43.1701961 24.0855536 -1.50727934e-13 218 222 230
43.8746137 23.7158468 -1.53187395e-13 218 222 230
44.4700855 23.1883048 -1.55266474e-13 218 222 230
44.9220049 22.5335865 -1.56844342e-13 218 222 230
45.204108 21.7897417 -1.578293e-13 218 222 230
45.3 39 -1.58164105e-13 218 222 230
45.204108 38.2102583 -1.578293e-13 218 222 230
44.9220049 37.4664135 -1.56844342e-13 218 222 230
44.4700855 36.8116952 -1.55266474e-13 218 222 230
43.8746137 36.2841532 -1.53187395e-13 218 222 230
43.1701961 35.9144464 -1.50727934e-13 218 222 230
42.397771 35.7240607 -1.48031026e-13 218 222 230
41.602229 35.7240607 -1.45253406e-13 218 222 230
40.8298039 35.9144464 -1.42556498e-13 218 222 230
40.1253863 36.2841532 -1.40097038e-13 218 222 230
39.5299145 36.8116952 -1.38017959e-13 218 222 230
39.0779951 37.4664135 -1.36440091e-13 218 222 230
38.795892 38.2102583 -1.35455133e-13 218 222 230
38.7 39 -1.35120328e-13 218 222 230
38.795892 39.7897417 -1.35455133e-13 218 222 230
39.0779951 40.5335865 -1.36440091e-13 218 222 230
39.5299145 41.1883048 -1.38017959e-13 218 222 230
40.1253863 41.7158468 -1.40097038e-13 218 222 230
40.8298039 42.0855536 -1.42556498e-13 218 222 230
41.602229 42.2759393 -1.45253406e-13 218 222 230
42.397771 42.2759393 -1.48031026e-13 218 222 230
43.1701961 42.0855536 -1.50727934e-13 218 222 230
43.8746137 41.7158468 -1.53187395e-13 218 222 230
44.4700855 41.1883048 -1.55266474e-13 218 222 230
44.9220049 40.5335865 -1.56844342e-13 218 222 230
45.204108 39.7897417 -1.578293e-13 218 222 230
45 46 2 218 222 230
32 46 2 218 222 230
32 14 2 218 222 230
45 14 2 218 222 230
46.1126047 14.1253604 2 218 222 230
47.1694187 14.4951557 2 218 222 230
48.117449 15.0908426 2 218 222 230
48.9091574 15.882551 2 218 222 230
49.5048443 16.8305813 2 218 222 230
49.8746396 17.8873953 2 218 222 230
50 19 2 218 222 230
50 41 2 218 222 230
49.8746396 42.1126047 2 218 222 230
49.5048443 43.1694187 2 218 222 230
48.9091574 44.117449 2 218 222 230
48.117449 44.9091574 2 218 222 230
47.1694187 45.5048443 2 218 222 230
46.1126047 45.8746396 2 218 222 230
38.7 21 2 218 222 230
38.795892 21.7897417 2 218 222 230
39.0779951 22.5335865 2 218 222 230
39.5299145 23.1883048 2 218 222 230
40.1253863 23.7158468 2 218 222 230
40.8298039 24.0855536 2 218 222 230
41.602229 24.2759393 2 218 222 230
42.397771 24.2759393 2 218 222 230
43.1701961 24.0855536 2 218 222 230
43.8746137 23.7158468 2 218 222 230
44.4700855 23.1883048 2 218 222 230
44.9220049 22.5335865 2 218 222 230
45.204108 21.7897417 2 218 222 230
45.3 21 2 218 222 230
45.204108 20.2102583 2 218 222 230
44.9220049 19.4664135 2 218 222 230
44.4700855 18.8116952 2 218 222 230
43.8746137 18.2841532 2 218 222 230
43.1701961 17.9144464 2 218 222 230
42.397771 17.7240607 2 218 222 230
41.602229 17.7240607 2 218 222 230
40.8298039 17.9144464 2 218 222 230
40.1253863 18.2841532 2 218 222 230
39.5299145 18.8116952 2 218 222 230
39.0779951 19.4664135 2 218 222 230
38.795892 20.2102583 2 218 222 230
38.7 39 2 218 222 230
38.795892 39.7897417 2 218 222 230
39.0779951 40.5335865 2 218 222 230
39.5299145 41.1883048 2 218 222 230
40.1253863 41.7158468 2 218 222 230
40.8298039 42.0855536 2 218 222 230
41.602229 42.2759393 2 218 222 230
42.397771 42.2759393 2 218 222 230
43.1701961 42.0855536 2 218 222 230
43.8746137 41.7158468 2 218 222 230
44.4700855 41.1883048 2 218 222 230
44.9220049 40.5335865 2 218 222 230
45.204108 39.7897417 2 218 222 230
45.3 39 2 218 222 230
45.204108 38.2102583 2 218 222 230
44.9220049 37.4664135 2 218 222 230
44.4700855 36.8116952 2 218 222 230
43.8746137 36.2841532 2 218 222 230
43.1701961 35.9144464 2 218 222 230
42.397771 35.7240607 2 218 222 230
41.602229 35.7240607 2 218 222 230
40.8298039 35.9144464 2 218 222 230
40.1253863 36.2841532 2 218 222 230
39.5299145 36.8116952 2 218 222 230
39.0779951 37.4664135 2 218 222 230
38.795892 38.2102583 2 218 222 230
50 41 2 218 222 230
49.8746396 42.1126047 2 218 222 230
49.5048443 43.1694187 2 218 222 230
48.9091574 44.117449 2 218 222 230
48.117449 44.9091574 2 218 222 230
47.1694187 45.5048443 2 218 222 230
46.1126047 45.8746396 2 218 222 230
45 46 2 218 222 230
50 41 -6.99327918e-14 218 222 230
49.8746396 42.1126047 -6.94950982e-14 218 222 230
49.5048443 43.1694187 -6.82039651e-14 218 222 230
48.9091574 44.117449 -6.61241353e-14 218 222 230
48.117449 44.9091574 -6.33599002e-14 218 222 230
47.1694187 45.5048443 -6.004987e-14 218 222 230
46.1126047 45.8746396 -5.63600236e-14 218 222 230
45 46 -5.24753851e-14 218 222 230
50 19 2 218 222 230
50 41 2 218 222 230
50 19 -6.99327918e-14 218 222 230
50 41 -6.99327918e-14 218 222 230
45 14 2 218 222 230
46.1126047 14.1253604 2 218 222 230
47.1694187 14.4951557 2 218 222 230
48.117449 15.0908426 2 218 222 230
48.9091574 15.882551 2 218 222 230
49.5048443 16.8305813 2 218 222 230
49.8746396 17.8873953 2 218 222 230
50 19 2 218 222 230
45 14 -5.24753851e-14 218 222 230
46.1126047 14.1253604 -5.63600236e-14 218 222 230
47.1694187 14.4951557 -6.004987e-14 218 222 230
48.117449 15.0908426 -6.33599002e-14 218 222 230
48.9091574 15.882551 -6.61241353e-14 218 222 230
49.5048443 16.8305813 -6.82039651e-14 218 222 230
49.8746396 17.8873953 -6.94950982e-14 218 222 230
50 19 -6.99327918e-14 218 222 230
28 6 48.2871871 218 222 230
30 6 48.2871871 218 222 230
30 6 42 218 222 230
28 6 42 218 222 230
30 40.1421356 66.8284271 218 222 230
30 41.6366296 65.1560875 218 222 230
30 42.934484 63.326933 218 222 230
30 44.0193774 61.3639663 218 222 230
30 44.8776666 59.2918727 218 222 230
30 45.4985582 57.1367102 218 222 230
30 45.8742442 54.925581 218 222 230
30 46 52.6862915 218 222 230
28 46 52.6862915 218 222 230
28 40.1421356 66.8284271 218 222 230
28 41.6366296 65.1560875 218 222 230
28 42.934484 63.326933 218 222 230
28 44.0193774 61.3639663 218 222 230
28 44.8776666 59.2918727 218 222 230
28 45.4985582 57.1367102 218 222 230
28 45.8742442 54.925581 218 222 230
28 5.00039424 50.018555 218 222 230
27.9696155 4.82674606 50.3193225 218 222 230
27.8793852 4.65837409 50.6109513 218 222 230
27.7320508 4.50039424 50.8845805 218 222 230
29.4641016 4.00039424 51.7506059 218 222 230
30 5.00039424 50.018555 218 222 230
29.939231 4.65309788 50.62009 218 222 230
29.7587705 4.31635395 51.2033476 218 222 230
27.7320508 37.2541451 69.7949673 218 222 230
27.8126156 37.3315269 69.6609382 218 222 230
27.8793852 37.412125 69.5213382 218 222 230
27.9318517 37.4953261 69.3772297 218 222 230
29.8637033 37.236507 69.8255174 218 222 230
29.4641016 36.7541451 70.6609927 218 222 230
29.6252311 36.9089086 70.3929345 218 222 230
29.7587705 37.0701048 70.1137345 218 222 230
29.8637033 37.236507 69.8255174 218 222 230
27.9318517 37.4953261 69.3772297 218 222 230
28 37.9363974 69.0341653 218 222 230
30 37.9363974 69.0341653 218 222 230
29.9657352 37.5842218 69.4337046 218 222 230
27.7320508 4.50039424 50.8845805 255 212 0
27.7320508 37.2541451 69.7949673 255 212 0
28 5.00039424 50.018555 255 212 0
27.9696155 4.82674606 50.3193225 255 212 0
27.8793852 4.65837409 50.6109513 255 212 0
28 37.9363974 69.0341653 255 212 0
27.9318517 37.4953261 69.3772297 255 212 0
27.8126156 37.3315269 69.6609382 255 212 0
27.8793852 37.412125 69.5213382 255 212 0
29.4641016 36.7541451 70.6609927 255 212 0
29.6252311 36.9089086 70.3929345 255 212 0
29.7587705 37.0701048 70.1137345 255 212 0
29.8637033 37.236507 69.8255174 255 212 0
29.4641016 4.00039424 51.7506059 255 212 0
30 5.00039424 50.018555 255 212 0
29.939231 4.65309788 50.62009 255 212 0
29.7587705 4.31635395 51.2033476 255 212 0
30 37.9363974 69.0341653 255 212 0
29.9657352 37.5842218 69.4337046 255 212 0
20.5358984 27.9803939 78.8330694 218 222 230
27.0898519 36.6979846 70.7582656 218 222 230
28.8219028 36.1979846 71.624291 218 222 230
22.2679492 27.4803939 79.6990948 218 222 230
27.7320508 4.50039424 50.8845805 218 222 230
20.5358984 -1.73165657 61.6788091 218 222 230
20.5358984 27.9803939 78.8330694 218 222 230
27.0898519 36.6979846 70.7582656 218 222 230
27.7320508 37.2541451 69.7949673 218 222 230
29.4641016 4.00039424 51.7506059 218 222 230
22.2679492 -2.23165657 62.5448345 218 222 230
27.7320508 4.50039424 50.8845805 218 222 230
20.5358984 -1.73165657 61.6788091 218 222 230
22.2679492 27.4803939 79.6990948 218 222 230
28.8219028 36.1979846 71.624291 218 222 230
29.4641016 36.7541451 70.6609927 218 222 230
29.4641016 4.00039424 51.7506059 218 222 230
22.2679492 -2.23165657 62.5448345 218 222 230
27.7320508 37.2541451 69.7949673 218 222 230
29.4641016 36.7541451 70.6609927 218 222 230
27.0898519 36.6979846 70.7582656 218 222 230
28.8219028 36.1979846 71.624291 218 222 230
20.5358984 -1.73165657 61.6788091 218 222 230
22.2679492 -2.23165657 62.5448345 218 222 230
22.1206148 -2.38963643 62.8184636 218 222 230
22.0303845 -2.55800839 63.1100924 218 222 230
22 -2.73165657 63.4108599 218 222 230
20 -2.73165657 63.4108599 218 222 230
20.2412295 -2.04761628 62.2260674 218 222 230
20.060769 -2.38436022 62.809325 218 222 230
22 26.6158893 80.3546734 218 222 230
22.0306269 26.9111048 80.1240314 218 222 230
22.1207981 27.2007897 79.9026973 218 222 230
22.2679492 27.4803939 79.6990948 218 222 230
20.5358984 27.9803939 78.8330694 218 222 230
20 26.6158893 80.3546734 218 222 230
20.0613664 27.0846127 79.8234164 218 222 230
20.2418214 27.5428478 79.3103257 218 222 230
21.0116394 26.8074472 80.1632507 218 222 230
21.1026936 27.1862365 79.7876463 218 222 230
20 -2.73165657 63.4108599 255 212 0
20 26.6158893 80.3546734 255 212 0
20.0613664 27.0846127 79.8234164 255 212 0
20.2418214 27.5428478 79.3103257 255 212 0
20.5358984 27.9803939 78.8330694 255 212 0
20.5358984 -1.73165657 61.6788091 255 212 0
20.2412295 -2.04761628 62.2260674 255 212 0
20.060769 -2.38436022 62.809325 255 212 0
22 26.6158893 80.3546734 255 212 0
22.0306269 26.9111048 80.1240314 255 212 0
22.1207981 27.2007897 79.9026973 255 212 0
22.2679492 27.4803939 79.6990948 255 212 0
22.2679492 -2.23165657 62.5448345 255 212 0
22.1206148 -2.38963643 62.8184636 255 212 0
22.0303845 -2.55800839 63.1100924 255 212 0
22 -2.73165657 63.4108599 255 212 0
22 -10 106.5 218 222 230
22 -8.64857401 106.357959 218 222 230
22 -7.35621182 105.938045 218 222 230
22 -6.17939586 105.25861 218 222 230
22 -5.16955863 104.349349 218 222 230
22 -4.37083488 103.25 218 222 230
22 -3.81813264 102.00861 218 222 230
22 -3.53560768 100.679435 218 222 230
22 -3.53560768 99.320565 218 222 230
22 -3.81813264 97.9913895 218 222 230
22 -4.37083488 96.75 218 222 230
22 -5.16955863 95.6506511 218 222 230
22 -6.17939586 94.7413895 218 222 230
22 -7.35621182 94.0619545 218 222 230
22 -8.64857401 93.6420406 218 222 230
22 -10 93.5 218 222 230
20 -10 93.5 218 222 230
20 -10 106.5 218 222 230
20 -8.64857401 106.357959 218 222 230
20 -7.35621182 105.938045 218 222 230
20 -6.17939586 105.25861 218 222 230
20 -5.16955863 104.349349 218 222 230
20 -4.37083488 103.25 218 222 230
20 -3.81813264 102.00861 218 222 230
20 -3.53560768 100.679435 218 222 230
20 -3.53560768 99.320565 218 222 230
20 -3.81813264 97.9913895 218 222 230
20 -4.37083488 96.75 218 222 230
20 -5.16955863 95.6506511 218 222 230
20 -6.17939586 94.7413895 218 222 230
20 -7.35621182 94.0619545 218 222 230
20 -8.64857401 93.6420406 218 222 230
22 -20.3923048 94 218 222 230
22 -21.2154271 95.7321909 218 222 230
22 -21.7520875 97.5733891 218 222 230
22 -21.9885787 99.4765674 218 222 230
22 -21.9188603 101.393115 218 222 230
22 -21.5447131 103.27408 218 222 230
22 -20.8756934 105.071419 218 222 230
22 -19.9288893 106.739225 218 222 230
22 -18.7284837 108.2349 218 222 230
22 -17.3051371 109.52024 218 222 230
22 -15.6952044 110.562417 218 222 230
22 -13.9398061 111.33481 218 222 230
22 -12.0837781 111.817693 218 222 230
22 -10.1745268 111.998731 218 222 230
22 -8.26081769 111.8733 218 222 230
22 -6.39153041 111.444603 218 222 230
22 -4.61440984 110.723592 218 222 230
22 -2.97484679 109.72868 218 222 230
22 -1.51471863 108.485281 218 222 230
20 -1.51471863 108.485281 218 222 230
20 -20.3923048 94 218 222 230
20 -21.2154271 95.7321909 218 222 230
20 -21.7520875 97.5733891 218 222 230
20 -21.9885787 99.4765674 218 222 230
20 -21.9188603 101.393115 218 222 230
20 -21.5447131 103.27408 218 222 230
20 -20.8756934 105.071419 218 222 230
20 -19.9288893 106.739225 218 222 230
20 -18.7284837 108.2349 218 222 230
20 -17.3051371 109.52024 218 222 230
20 -15.6952044 110.562417 218 222 230
20 -13.9398061 111.33481 218 222 230
20 -12.0837781 111.817693 218 222 230
20 -10.1745268 111.998731 218 222 230
20 -8.26081769 111.8733 218 222 230
20 -6.39153041 111.444603 218 222 230
20 -4.61440984 110.723592 218 222 230
20 -2.97484679 109.72868 218 222 230
20 -2.73165657 63.4108599 218 222 230
20 26.6158893 80.3546734 218 222 230
20 -20.3923048 94 218 222 230
20 -21.2154271 95.7321909 218 222 230
20 -21.7520875 97.5733891 218 222 230
20 -21.9885787 99.4765674 218 222 230
20 -21.9188603 101.393115 218 222 230
20 -21.5447131 103.27408 218 222 230
20 -20.8756934 105.071419 218 222 230
20 -19.9288893 106.739225 218 222 230
20 -18.7284837 108.2349 218 222 230
20 -17.3051371 109.52024 218 222 230
20 -15.6952044 110.562417 218 222 230
20 -13.9398061 111.33481 218 222 230
20 -12.0837781 111.817693 218 222 230
20 -10.1745268 111.998731 218 222 230
20 -8.26081769 111.8733 218 222 230
20 -6.39153041 111.444603 218 222 230
20 -4.61440984 110.723592 218 222 230
20 -2.97484679 109.72868 218 222 230
20 -1.51471863 108.485281 218 222 230
20 -10 93.5 218 222 230
20 -11.351426 93.6420406 218 222 230
20 -12.6437882 94.0619545 218 222 230
20 -13.8206041 94.7413895 218 222 230
20 -14.8304414 95.6506511 218 222 230
20 -15.6291651 96.75 218 222 230
20 -16.1818674 97.9913895 218 222 230
20 -16.4643923 99.320565 218 222 230
20 -16.4643923 100.679435 218 222 230
20 -16.1818674 102.00861 218 222 230
20 -15.6291651 103.25 218 222 230
20 -14.8304414 104.349349 218 222 230
20 -13.8206041 105.25861 218 222 230
20 -12.6437882 105.938045 218 222 230
20 -11.351426 106.357959 218 222 230
20 -10 106.5 218 222 230
20 -8.64857401 106.357959 218 222 230
20 -7.35621182 105.938045 218 222 230
20 -6.17939586 105.25861 218 222 230
20 -5.16955863 104.349349 218 222 230
20 -4.37083488 103.25 218 222 230
20 -3.81813264 102.00861 218 222 230
20 -3.53560768 100.679435 218 222 230
20 -3.53560768 99.320565 218 222 230
20 -3.81813264 97.9913895 218 222 230
20 -4.37083488 96.75 218 222 230
20 -5.16955863 95.6506511 218 222 230
20 -6.17939586 94.7413895 218 222 230
20 -7.35621182 94.0619545 218 222 230
20 -8.64857401 93.6420406 218 222 230
20 -20.3923048 94 218 222 230
22 -20.3923048 94 218 222 230
22 -2.73165657 63.4108599 218 222 230
20 -2.73165657 63.4108599 218 222 230
22 -20.3923048 94 218 222 230
22 -21.2154271 95.7321909 218 222 230
22 -21.7520875 97.5733891 218 222 230
22 -21.9885787 99.4765674 218 222 230
22 -21.9188603 101.393115 218 222 230
22 -21.5447131 103.27408 218 222 230
22 -20.8756934 105.071419 218 222 230
22 -19.9288893 106.739225 218 222 230
22 -18.7284837 108.2349 218 222 230
22 -17.3051371 109.52024 218 222 230
22 -15.6952044 110.562417 218 222 230
22 -13.9398061 111.33481 218 222 230
22 -12.0837781 111.817693 218 222 230
22 -10.1745268 111.998731 218 222 230
22 -8.26081769 111.8733 218 222 230
22 -6.39153041 111.444603 218 222 230
22 -4.61440984 110.723592 218 222 230
22 -2.97484679 109.72868 218 222 230
22 -1.51471863 108.485281 218 222 230
22 26.6158893 80.3546734 218 222 230
22 -2.73165657 63.4108599 218 222 230
22 -10 106.5 218 222 230
22 -8.64857401 106.357959 218 222 230
22 -7.35621182 105.938045 218 222 230
22 -6.17939586 105.25861 218 222 230
22 -5.16955863 104.349349 218 222 230
22 -4.37083488 103.25 218 222 230
22 -3.81813264 102.00861 218 222 230
22 -3.53560768 100.679435 218 222 230
22 -3.53560768 99.320565 218 222 230
22 -3.81813264 97.9913895 218 222 230
22 -4.37083488 96.75 218 222 230
22 -5.16955863 95.6506511 218 222 230
22 -6.17939586 94.7413895 218 222 230
22 -7.35621182 94.0619545 218 222 230
22 -8.64857401 93.6420406 218 222 230
22 -10 93.5 218 222 230
22 -11.351426 93.6420406 218 222 230
22 -12.6437882 94.0619545 218 222 230
22 -13.8206041 94.7413895 218 222 230
22 -14.8304414 95.6506511 218 222 230
22 -15.6291651 96.75 218 222 230
22 -16.1818674 97.9913895 218 222 230
22 -16.4643923 99.320565 218 222 230
22 -16.4643923 100.679435 218 222 230
22 -16.1818674 102.00861 218 222 230
22 -15.6291651 103.25 218 222 230
22 -14.8304414 104.349349 218 222 230
22 -13.8206041 105.25861 218 222 230
22 -12.6437882 105.938045 218 222 230
22 -11.351426 106.357959 218 222 230
20 -1.51471863 108.485281 218 222 230
22 -1.51471863 108.485281 218 222 230
20 26.6158893 80.3546734 218 222 230
22 26.6158893 80.3546734 218 222 230
38.7 39 -1.35120328e-13 218 222 230
38.795892 39.7897417 -1.35455133e-13 218 222 230
39.0779951 40.5335865 -1.36440091e-13 218 222 230
39.5299145 41.1883048 -1.38017959e-13 218 222 230
40.1253863 41.7158468 -1.40097038e-13 218 222 230
40.8298039 42.0855536 -1.42556498e-13 218 222 230
41.602229 42.2759393 -1.45253406e-13 218 222 230
42.397771 42.2759393 -1.48031026e-13 218 222 230
43.1701961 42.0855536 -1.50727934e-13 218 222 230
43.8746137 41.7158468 -1.53187395e-13 218 222 230
44.4700855 41.1883048 -1.55266474e-13 218 222 230
44.9220049 40.5335865 -1.56844342e-13 218 222 230
45.204108 39.7897417 -1.578293e-13 218 222 230
45.3 39 -1.58164105e-13 218 222 230
38.7 39 2 218 222 230
38.795892 39.7897417 2 218 222 230
39.0779951 40.5335865 2 218 222 230
39.5299145 41.1883048 2 218 222 230
40.1253863 41.7158468 2 218 222 230
40.8298039 42.0855536 2 218 222 230
41.602229 42.2759393 2 218 222 230
42.397771 42.2759393 2 218 222 230
43.1701961 42.0855536 2 218 222 230
43.8746137 41.7158468 2 218 222 230
44.4700855 41.1883048 2 218 222 230
44.9220049 40.5335865 2 218 222 230
45.204108 39.7897417 2 218 222 230
45.3 39 2 218 222 230
38.7 21 -1.35120328e-13 218 222 230
38.795892 21.7897417 -1.35455133e-13 218 222 230
39.0779951 22.5335865 -1.36440091e-13 218 222 230
39.5299145 23.1883048 -1.38017959e-13 218 222 230
40.1253863 23.7158468 -1.40097038e-13 218 222 230
40.8298039 24.0855536 -1.42556498e-13 218 222 230
41.602229 24.2759393 -1.45253406e-13 218 222 230
42.397771 24.2759393 -1.48031026e-13 218 222 230
43.1701961 24.0855536 -1.50727934e-13 218 222 230
43.8746137 23.7158468 -1.53187395e-13 218 222 230
44.4700855 23.1883048 -1.55266474e-13 218 222 230
44.9220049 22.5335865 -1.56844342e-13 218 222 230
45.204108 21.7897417 -1.578293e-13 218 222 230
45.3 21 -1.58164105e-13 218 222 230
38.7 21 2 218 222 230
38.795892 21.7897417 2 218 222 230
39.0779951 22.5335865 2 218 222 230
39.5299145 23.1883048 2 218 222 230
40.1253863 23.7158468 2 218 222 230
40.8298039 24.0855536 2 218 222 230
41.602229 24.2759393 2 218 222 230
42.397771 24.2759393 2 218 222 230
43.1701961 24.0855536 2 218 222 230
43.8746137 23.7158468 2 218 222 230
44.4700855 23.1883048 2 218 222 230
44.9220049 22.5335865 2 218 222 230
45.204108 21.7897417 2 218 222 230
45.3 21 2 218 222 230
-45.3 21 1.58164105e-13 218 222 230
-45.204108 21.7897417 1.578293e-13 218 222 230
-44.9220049 22.5335865 1.56844342e-13 218 222 230
-44.4700855 23.1883048 1.55266474e-13 218 222 230
-43.8746137 23.7158468 1.53187395e-13 218 222 230
-43.1701961 24.0855536 1.50727934e-13 218 222 230
-42.397771 24.2759393 1.48031026e-13 218 222 230
-41.602229 24.2759393 1.45253406e-13 218 222 230
-40.8298039 24.0855536 1.42556498e-13 218 222 230
-40.1253863 23.7158468 1.40097038e-13 218 222 230
-39.5299145 23.1883048 1.38017959e-13 218 222 230
-39.0779951 22.5335865 1.36440091e-13 218 222 230
-38.795892 21.7897417 1.35455133e-13 218 222 230
-38.7 21 1.35120328e-13 218 222 230
-45.3 21 2 218 222 230
-45.204108 21.7897417 2 218 222 230
-44.9220049 22.5335865 2 218 222 230
-44.4700855 23.1883048 2 218 222 230
-43.8746137 23.7158468 2 218 222 230
-43.1701961 24.0855536 2 218 222 230
-42.397771 24.2759393 2 218 222 230
-41.602229 24.2759393 2 218 222 230
-40.8298039 24.0855536 2 218 222 230
-40.1253863 23.7158468 2 218 222 230
-39.5299145 23.1883048 2 218 222 230
-39.0779951 22.5335865 2 218 222 230
-38.795892 21.7897417 2 218 222 230
-38.7 21 2 218 222 230
-45.3 39 1.58164105e-13 218 222 230
-45.204108 39.7897417 1.578293e-13 218 222 230
-44.9220049 40.5335865 1.56844342e-13 218 222 230
-44.4700855 41.1883048 1.55266474e-13 218 222 230
-43.8746137 41.7158468 1.53187395e-13 218 222 230
-43.1701961 42.0855536 1.50727934e-13 218 222 230
-42.397771 42.2759393 1.48031026e-13 218 222 230
-41.602229 42.2759393 1.45253406e-13 218 222 230
-40.8298039 42.0855536 1.42556498e-13 218 222 230
-40.1253863 41.7158468 1.40097038e-13 218 222 230
-39.5299145 41.1883048 1.38017959e-13 218 222 230
-39.0779951 40.5335865 1.36440091e-13 218 222 230
-38.795892 39.7897417 1.35455133e-13 218 222 230
-38.7 39 1.35120328e-13 218 222 230
-45.3 39 2 218 222 230
-45.204108 39.7897417 2 218 222 230
-44.9220049 40.5335865 2 218 222 230
-44.4700855 41.1883048 2 218 222 230
-43.8746137 41.7158468 2 218 222 230
-43.1701961 42.0855536 2 218 222 230
-42.397771 42.2759393 2 218 222 230
-41.602229 42.2759393 2 218 222 230
-40.8298039 42.0855536 2 218 222 230
-40.1253863 41.7158468 2 218 222 230
-39.5299145 41.1883048 2 218 222 230
-39.0779951 40.5335865 2 218 222 230
-38.795892 39.7897417 2 218 222 230
-38.7 39 2 218 222 230
28 6 42 218 222 230
30 6 42 218 222 230
30 5.94985582 41.5549581 218 222 230
30 5.80193774 41.1322325 218 222 230
30 5.56366296 40.7530204 218 222 230
30 5.2469796 40.436337 218 222 230
30 4.86776748 40.1980623 218 222 230
30 4.44504187 40.0501442 218 222 230
30 4 40 218 222 230
28 4 40 218 222 230
28 4.44504187 40.0501442 218 222 230
28 4.86776748 40.1980623 218 222 230
28 5.2469796 40.436337 218 222 230
28 5.56366296 40.7530204 218 222 230
28 5.80193774 41.1322325 218 222 230
28 5.94985582 41.5549581 218 222 230
-30 4 40 218 222 230
-28 4 40 218 222 230
-30 4.44504187 40.0501442 218 222 230
-30 4.86776748 40.1980623 218 222 230
-30 5.2469796 40.436337 218 222 230
-30 5.56366296 40.7530204 218 222 230
-30 5.80193774 41.1322325 218 222 230
-30 5.94985582 41.5549581 218 222 230
-30 6 42 218 222 230
-28 6 42 218 222 230
-28 5.94985582 41.5549581 218 222 230
-28 5.80193774 41.1322325 218 222 230
-28 5.56366296 40.7530204 218 222 230
-28 5.2469796 40.436337 218 222 230
-28 4.86776748 40.1980623 218 222 230
-28 4.44504187 40.0501442 218 222 230
3 2 16 15
3 3 17 16
3 3 16 2
3 4 18 17
3 4 17 3
3 5 19 18
3 5 18 4
3 6 20 19
3 6 19 5
3 7 20 6
3 8 21 20
3 8 22 21
3 8 20 7
3 9 22 8
3 10 23 22
3 10 22 9
3 11 24 23
3 11 25 24
3 11 23 10
3 12 26 25
3 12 25 11
3 13 26 12
3 14 27 26
3 14 0 27
3 14 26 13
3 1 0 14
3 30 44 43
3 31 45 44
3 31 44 30
3 32 46 45
3 32 45 31
3 33 47 46
3 33 46 32
3 34 48 47
3 34 47 33
3 35 48 34
3 36 49 48
3 36 50 49
3 36 48 35
3 37 50 36
3 38 51 50
3 38 50 37
3 39 52 51
3 39 53 52
3 39 51 38
3 40 54 53
3 40 53 39
3 41 54 40
3 42 55 54
3 42 28 55
3 42 54 41
3 29 28 42
3 58 72 71
3 59 73 72
3 59 72 58
3 60 73 59
3 61 74 73
3 61 73 60
3 62 75 74
3 62 74 61
3 63 76 75
3 63 75 62
3 64 77 76
3 64 76 63
3 65 78 77
3 65 77 64
3 66 79 78
3 66 78 65
3 67 80 79
3 67 79 66
3 68 81 80
3 68 80 67
3 69 82 81
3 69 81 68
3 70 83 82
3 70 82 69
3 57 56 83
3 57 83 70
3 86 100 99
3 87 101 100
3 87 100 86
3 88 101 87
3 89 102 101
3 89 101 88
3 90 103 102
3 90 102 89
3 91 104 103
3 91 103 90
3 92 105 104
3 92 104 91
3 93 106 105
3 93 105 92
3 94 107 106
3 94 106 93
3 95 108 107
3 95 107 94
3 96 109 108
3 96 108 95
3 97 110 109
3 97 109 96
3 98 111 110
3 98 110 97
3 85 84 111
3 85 111 98
3 127 129 128
3 127 143 129
3 126 142 143
3 126 143 127
3 125 140 141
3 125 141 142
3 125 142 126
3 124 140 125
3 123 139 140
3 123 140 124
3 122 138 139
3 122 139 123
3 121 137 138
3 121 138 122
3 120 136 137
3 120 137 121
3 119 134 135
3 119 135 136
3 119 136 120
3 118 134 119
3 117 132 133
3 117 133 134
3 117 134 118
3 116 131 132
3 116 132 117
3 115 131 116
3 114 130 131
3 114 131 115
3 113 112 130
3 113 130 114
3 147 161 146
3 147 162 161
3 148 163 162
3 148 162 147
3 149 164 163
3 149 163 148
3 150 165 164
3 150 164 149
3 151 166 165
3 151 165 150
3 152 167 166
3 152 168 167
3 152 166 151
3 153 168 152
3 154 169 168
3 154 168 153
3 155 170 169
3 155 169 154
3 156 171 170
3 156 170 155
3 157 172 171
3 157 171 156
3 158 173 172
3 158 172 157
3 159 174 173
3 159 173 158
3 160 175 174
3 160 174 159
3 145 144 175
3 145 175 160
3 192 176 177
3 192 191 176
3 193 177 178
3 193 192 177
3 194 178 179
3 194 193 178
3 195 179 180
3 195 194 179
3 196 180 181
3 196 195 180
3 197 181 182
3 197 196 181
3 198 182 183
3 198 197 182
3 199 183 184
3 199 198 183
3 200 184 185
3 200 199 184
3 201 185 186
3 201 200 185
3 202 186 187
3 202 201 186
3 203 187 188
3 203 202 187
3 190 188 189
3 190 203 188
3 217 215 216
3 218 215 217
3 219 215 218
3 220 215 219
3 221 215 220
3 232 227 228
3 232 228 229
3 232 229 230
3 232 230 231
3 214 215 221
3 210 211 212
3 210 212 213
3 210 213 214
3 209 210 214
3 207 208 209
3 207 209 214
3 236 222 223
3 237 221 222
3 237 222 236
3 235 223 224
3 235 236 223
3 238 214 221
3 238 221 237
3 239 214 238
3 234 224 225
3 234 235 224
3 233 225 226
3 233 226 227
3 233 227 232
3 233 234 225
3 240 214 239
3 204 206 207
3 204 214 240
3 204 207 214
3 205 206 204
3 252 251 250
3 253 252 250
3 254 253 250
3 255 254 250
3 256 255 250
3 267 263 262
3 267 264 263
3 267 265 264
3 267 266 265
3 249 256 250
3 246 248 247
3 246 249 248
3 245 249 246
3 244 249 245
3 242 244 243
3 242 249 244
3 272 257 256
3 273 258 257
3 273 257 272
3 274 259 258
3 274 258 273
3 271 256 249
3 271 272 256
3 275 260 259
3 275 259 274
3 270 271 249
3 268 261 260
3 268 262 261
3 268 267 262
3 268 260 275
3 269 270 249
3 276 242 241
3 276 269 249
3 276 249 242
3 277 276 241
3 279 280 278
3 279 281 280
3 284 283 282
3 284 282 285
3 287 288 289
3 287 289 286
3 290 291 292
3 290 292 293
3 329 295 330
3 322 295 329
3 326 322 323
3 326 323 324
3 326 324 325
3 321 294 295
3 321 301 302
3 321 302 294
3 321 326 327
3 321 327 328
3 321 295 322
3 321 322 326
3 308 303 296
3 309 308 296
3 307 303 308
3 310 296 297
3 310 309 296
3 306 303 307
3 311 297 298
3 311 310 297
3 305 303 306
3 312 298 299
3 312 311 298
3 313 299 300
3 313 312 299
3 314 300 301
3 314 301 321
3 314 313 300
3 304 303 305
3 320 314 321
3 320 315 314
3 320 316 315
3 320 317 316
3 320 318 317
3 320 319 318
3 332 331 333
3 361 332 333
3 364 362 361
3 364 363 362
3 366 365 364
3 367 364 361
3 367 366 364
3 360 333 334
3 360 334 335
3 360 335 336
3 360 361 333
3 360 367 361
3 347 341 342
3 348 341 347
3 346 347 342
3 349 340 341
3 349 341 348
3 345 346 342
3 350 339 340
3 350 340 349
3 344 345 342
3 351 338 339
3 351 339 350
3 352 337 338
3 352 338 351
3 353 336 337
3 353 360 336
3 353 337 352
3 343 344 342
3 359 353 354
3 359 354 355
3 359 355 356
3 359 356 357
3 359 357 358
3 359 360 353
3 368 370 369
3 371 370 368
3 385 376 377
3 384 376 385
3 386 377 378
3 386 385 377
3 383 375 376
3 383 376 384
3 387 378 379
3 387 386 378
3 382 374 375
3 382 375 383
3 381 379 380
3 381 387 379
3 373 372 374
3 373 374 382
3 403 389 388
3 403 388 396
3 402 396 395
3 402 403 396
3 401 395 394
3 401 402 395
3 393 400 401
3 393 401 394
3 399 400 393
3 392 399 393
3 391 397 398
3 391 398 399
3 391 399 392
3 390 397 391
3 406 405 404
3 406 407 405
3 418 409 408
3 418 408 410
3 419 410 411
3 419 418 410
3 420 411 412
3 420 419 411
3 413 421 420
3 413 420 412
3 414 422 421
3 414 421 413
3 415 423 422
3 415 417 423
3 415 422 414
3 416 417 415
3 426 424 425
3 426 427 424
3 441 434 433
3 441 433 440
3 439 432 431
3 439 433 432
3 439 440 433
3 442 435 434
3 442 434 441
3 443 436 435
3 443 435 442
3 438 439 431
3 429 428 436
3 429 436 443
3 437 431 430
3 437 438 431
3 459 444 445
3 459 452 444
3 458 450 451
3 458 451 452
3 458 452 459
3 457 450 458
3 456 449 450
3 456 450 457
3 455 447 448
3 455 448 449
3 455 449 456
3 454 447 455
3 453 446 447
3 453 447 454
3 460 463 461
3 462 463 460
3 479 464 465
3 479 472 464
3 478 470 471
3 478 471 472
3 478 472 479
3 477 470 478
3 476 469 470
3 476 470 477
3 475 467 468
3 475 468 469
3 475 469 476
3 474 467 475
3 473 466 467
3 473 467 474
3 482 481 480
3 483 481 482
3 490 491 492
3 490 492 499
3 489 499 498
3 489 490 499
3 488 497 496
3 488 498 497
3 488 489 498
3 487 488 496
3 486 496 495
3 486 487 496
3 485 495 494
3 485 486 495
3 484 494 493
3 484 485 494
3 501 503 502
3 500 501 502
3 510 511 512
3 510 512 519
3 509 519 518
3 509 510 519
3 508 517 516
3 508 518 517
3 508 509 518
3 507 508 516
3 506 516 515
3 506 507 516
3 505 515 514
3 505 506 515
3 504 514 513
3 504 505 514
3 521 520 522
3 521 522 523
3 551 524 525
3 551 538 524
3 550 537 538
3 550 538 551
3 549 536 537
3 549 537 550
3 548 535 536
3 548 536 549
3 547 534 535
3 547 535 548
3 546 533 534
3 546 534 547
3 545 532 533
3 545 533 546
3 544 531 532
3 544 532 545
3 543 530 531
3 543 531 544
3 542 529 530
3 542 530 543
3 541 528 529
3 541 529 542
3 540 527 528
3 540 528 541
3 539 526 527
3 539 527 540
3 555 552 554
3 553 552 555
3 564 557 556
3 564 571 557
3 563 570 571
3 563 571 564
3 562 569 570
3 562 570 563
3 561 569 562
3 568 569 561
3 560 568 561
3 567 560 559
3 567 568 560
3 566 559 558
3 566 567 559
3 565 566 558
3 582 574 575
3 582 581 574
3 583 575 576
3 583 582 575
3 584 576 577
3 584 583 576
3 578 585 584
3 578 584 577
3 579 586 585
3 579 585 578
3 580 587 586
3 580 586 579
3 573 572 587
3 573 587 580
3 590 597 603
3 591 603 602
3 591 590 603
3 592 602 601
3 592 591 602
3 593 601 600
3 593 592 601
3 594 600 599
3 594 593 600
3 595 599 598
3 595 594 599
3 596 598 589
3 596 595 598
3 588 596 589
3 604 619 612
3 605 618 619
3 605 619 604
3 606 617 618
3 606 618 605
3 607 616 617
3 607 617 606
3 608 615 616
3 608 616 607
3 609 614 615
3 609 615 608
3 610 613 614
3 610 614 609
3 611 613 610
3 621 620 623
3 622 621 623
3 627 624 625
3 627 626 624
3 682 640 641
3 682 641 642
3 681 638 639
3 681 639 640
3 681 640 682
3 683 642 643
3 683 643 644
3 683 644 637
3 683 682 642
3 680 638 681
3 684 683 637
3 679 638 680
3 685 684 637
3 678 638 679
3 686 685 637
3 677 638 678
3 687 686 637
3 688 687 637
3 645 638 677
3 645 674 673
3 645 675 674
3 645 676 675
3 645 677 676
3 672 645 673
3 697 645 672
3 696 645 697
3 630 688 637
3 656 689 688
3 656 688 630
3 655 689 656
3 657 656 630
3 654 689 655
3 654 690 689
3 654 691 690
3 658 657 630
3 653 691 654
3 659 658 630
3 652 691 653
3 652 692 691
3 660 659 630
3 651 692 652
3 651 693 692
3 651 694 693
3 661 630 631
3 661 631 632
3 661 632 633
3 661 660 630
3 650 694 651
3 662 661 633
3 634 662 633
3 649 695 694
3 649 696 695
3 649 694 650
3 635 663 662
3 635 662 634
3 648 645 696
3 648 696 649
3 636 663 635
3 628 664 663
3 628 665 664
3 628 666 665
3 628 663 636
3 667 666 628
3 629 647 646
3 629 648 647
3 629 668 667
3 629 669 668
3 629 670 669
3 629 671 670
3 629 646 671
3 629 645 648
3 629 667 628
3 765 712 711
3 765 713 712
3 764 710 699
3 764 711 710
3 764 765 711
3 766 714 713
3 766 715 714
3 766 709 715
3 766 713 765
3 763 764 699
3 767 709 766
3 762 763 699
3 742 709 767
3 761 762 699
3 743 709 742
3 760 761 699
3 744 709 743
3 745 709 744
3 698 760 699
3 698 756 757
3 698 757 758
3 698 758 759
3 698 759 760
3 755 756 698
3 754 755 698
3 753 754 698
3 702 709 745
3 739 745 746
3 739 702 745
3 738 739 746
3 738 746 747
3 740 702 739
3 737 738 747
3 737 747 748
3 741 702 740
3 736 748 749
3 736 737 748
3 716 702 741
3 735 749 750
3 735 736 749
3 717 702 716
3 734 735 750
3 734 750 751
3 718 703 702
3 718 704 703
3 718 705 704
3 718 702 717
3 733 734 751
3 719 705 718
3 706 705 719
3 732 751 752
3 732 733 751
3 707 719 720
3 707 706 719
3 731 753 698
3 731 752 753
3 731 732 752
3 708 707 720
3 701 720 721
3 701 721 722
3 701 722 723
3 701 708 720
3 724 701 723
3 700 724 725
3 700 725 726
3 700 726 727
3 700 727 728
3 700 728 729
3 700 729 730
3 700 730 731
3 700 731 698
3 700 701 724
3 774 775 776
3 774 776 783
3 773 783 782
3 773 774 783
3 772 782 781
3 772 773 782
3 771 780 779
3 771 781 780
3 771 772 781
3 770 771 779
3 769 779 778
3 769 770 779
3 768 778 777
3 768 769 778
3 786 784 785
3 786 785 787
3 794 795 796
3 794 803 802
3 794 796 803
3 793 802 801
3 793 794 802
3 792 793 801
3 791 801 800
3 791 792 801
3 790 800 799
3 790 791 800
3 789 799 798
3 789 790 799
3 788 798 797
3 788 789 798
3 805 804 812
3 805 812 813
3 806 813 814
3 806 805 813
3 807 814 815
3 807 806 814
3 808 815 816
3 808 807 815
3 809 816 817
3 809 808 816
3 810 817 818
3 810 809 817
3 811 818 819
3 811 810 818
3 820 822 823
3 820 823 821
3 825 824 826
3 827 825 826
3 830 829 828
3 830 831 829
3 832 835 836
3 833 836 834
3 833 832 836
3 838 837 839
3 843 839 840
3 843 838 839
3 844 840 841
3 844 843 840
3 842 844 841
3 848 850 849
3 848 852 850
3 847 851 852
3 847 852 848
3 846 845 851
3 846 851 847
3 859 855 856
3 860 853 854
3 860 854 855
3 860 855 859
3 861 857 853
3 861 853 860
3 858 857 861
3 862 863 866
3 870 865 864
3 870 866 865
3 870 862 866
3 871 864 868
3 871 870 864
3 869 868 867
3 869 871 868
3 872 874 875
3 872 875 873
3 878 877 876
3 880 877 878
3 879 880 878
3 882 883 881
3 882 884 883
3 885 889 888
3 887 885 888
3 886 885 887
3 892 891 890
3 893 891 892
3 900 895 894
3 900 894 896
3 900 896 897
3 901 897 898
3 901 900 897
3 899 901 898
3 910 902 903
3 910 908 907
3 910 907 902
3 911 903 904
3 911 904 905
3 911 905 906
3 911 909 908
3 911 906 909
3 911 908 910
3 911 910 903
3 912 913 914
3 919 914 915
3 919 912 914
3 918 915 916
3 918 919 915
3 917 918 916
3 927 921 920
3 926 922 921
3 926 921 927
3 925 923 922
3 925 922 926
3 924 923 925
3 936 929 928
3 936 928 930
3 937 930 931
3 937 936 930
3 938 931 932
3 938 937 931
3 939 932 933
3 939 938 932
3 935 933 934
3 935 939 933
3 941 956 940
3 941 957 956
3 942 958 957
3 942 957 941
3 943 959 958
3 943 958 942
3 944 960 959
3 944 961 960
3 944 959 943
3 945 961 944
3 946 962 961
3 946 963 962
3 946 961 945
3 947 963 946
3 948 964 963
3 948 963 947
3 949 965 964
3 949 964 948
3 950 966 965
3 950 965 949
3 951 967 966
3 951 968 967
3 951 966 950
3 952 968 951
3 953 969 968
3 953 970 969
3 953 968 952
3 954 970 953
3 955 971 970
3 955 970 954
3 1019 988 987
3 1020 989 988
3 1020 990 989
3 1020 988 1019
3 1018 987 986
3 1018 1019 987
3 1021 991 990
3 1021 990 1020
3 1017 986 985
3 1017 1018 986
3 1022 992 991
3 1022 991 1021
3 1016 984 983
3 1016 985 984
3 1016 1017 985
3 993 977 976
3 993 976 992
3 993 992 1022
3 1015 983 982
3 1015 1016 983
3 994 978 977
3 994 977 993
3 1014 982 981
3 1014 1015 982
3 995 979 978
3 995 978 994
3 1013 981 973
3 1013 1014 981
3 996 979 995
3 996 980 979
3 1012 1013 973
3 975 980 996
3 997 975 996
3 1011 1012 973
3 998 975 997
3 1010 1011 973
3 999 975 998
3 1009 1010 973
3 1000 975 999
3 1001 975 1000
3 972 1009 973
3 972 1005 1006
3 972 1006 1007
3 972 1007 1008
3 972 1008 1009
3 974 1001 1002
3 974 1005 972
3 974 1002 1003
3 974 1003 1004
3 974 1004 1005
3 974 975 1001
3 1023 1024 1025
3 1023 1025 1026
3 1059 1041 1042
3 1060 1042 1043
3 1060 1043 1044
3 1060 1059 1042
3 1058 1040 1041
3 1058 1041 1059
3 1061 1044 1045
3 1061 1060 1044
3 1057 1039 1040
3 1057 1040 1058
3 1062 1045 1046
3 1062 1061 1045
3 1056 1037 1038
3 1056 1038 1039
3 1056 1039 1057
3 1063 1029 1030
3 1063 1046 1029
3 1063 1062 1046
3 1055 1036 1037
3 1055 1037 1056
3 1064 1030 1031
3 1064 1063 1030
3 1054 1035 1036
3 1054 1036 1055
3 1065 1031 1032
3 1065 1064 1031
3 1053 1035 1054
3 1053 1034 1035
3 1066 1032 1033
3 1066 1065 1032
3 1052 1034 1053
3 1027 1066 1033
3 1067 1066 1027
3 1051 1034 1052
3 1068 1067 1027
3 1050 1034 1051
3 1069 1068 1027
3 1049 1034 1050
3 1070 1069 1027
3 1071 1070 1027
3 1047 1049 1048
3 1047 1034 1049
3 1047 1076 1075
3 1047 1077 1076
3 1047 1048 1077
3 1028 1047 1075
3 1028 1071 1027
3 1028 1072 1071
3 1028 1073 1072
3 1028 1074 1073
3 1028 1075 1074
3 1080 1079 1078
3 1080 1081 1079
3 1085 1083 1082
3 1085 1082 1084
3 1087 1100 1086
3 1113 1099 1100
3 1113 1100 1087
3 1112 1098 1099
3 1112 1099 1113
3 1111 1097 1098
3 1111 1098 1112
3 1110 1096 1097
3 1110 1097 1111
3 1109 1095 1096
3 1109 1096 1110
3 1108 1094 1095
3 1108 1095 1109
3 1107 1093 1094
3 1107 1094 1108
3 1106 1092 1093
3 1106 1093 1107
3 1105 1091 1092
3 1105 1092 1106
3 1104 1091 1105
3 1103 1090 1091
3 1103 1091 1104
3 1102 1089 1090
3 1102 1090 1103
3 1101 1088 1089
3 1101 1089 1102
3 1114 1116 1117
3 1114 1117 1115
3 1120 1127 1128
3 1121 1120 1128
3 1122 1128 1129
3 1122 1121 1128
3 1123 1129 1130
3 1123 1122 1129
3 1124 1123 1130
3 1131 1124 1130
3 1125 1124 1131
3 1132 1125 1131
3 1133 1126 1125
3 1133 1125 1132
3 1119 1118 1126
3 1119 1126 1133
3 1149 1135 1134
3 1149 1142 1135
3 1148 1141 1142
3 1148 1142 1149
3 1147 1140 1141
3 1147 1141 1148
3 1139 1147 1146
3 1139 1140 1147
3 1138 1146 1145
3 1138 1139 1146
3 1137 1144 1143
3 1137 1145 1144
3 1137 1138 1145
3 1136 1137 1143
3 1152 1159 1165
3 1153 1165 1164
3 1153 1152 1165
3 1154 1164 1163
3 1154 1153 1164
3 1155 1163 1162
3 1155 1154 1163
3 1156 1162 1161
3 1156 1155 1162
3 1157 1161 1160
3 1157 1156 1161
3 1158 1160 1151
3 1158 1157 1160
3 1150 1158 1151
3 1166 1181 1174
3 1167 1180 1181
3 1167 1181 1166
3 1168 1179 1180
3 1168 1180 1167
3 1169 1178 1179
3 1169 1179 1168
3 1170 1177 1178
3 1170 1178 1169
3 1171 1176 1177
3 1171 1177 1170
3 1172 1175 1176
3 1172 1176 1171
3 1173 1175 1172
3 1185 1182 1183
3 1185 1183 1184
3 1189 1186 1188
3 1187 1186 1189
3 1257 1203 1202
3 1257 1204 1203
3 1256 1205 1204
3 1256 1206 1205
3 1256 1204 1257
3 1258 1200 1199
3 1258 1201 1200
3 1258 1202 1201
3 1258 1257 1202
3 1255 1206 1256
3 1259 1258 1199
3 1254 1206 1255
3 1234 1259 1199
3 1253 1206 1254
3 1235 1234 1199
3 1252 1206 1253
3 1236 1235 1199
3 1237 1236 1199
3 1207 1206 1252
3 1207 1249 1248
3 1207 1250 1249
3 1207 1251 1250
3 1207 1252 1251
3 1247 1207 1248
3 1246 1207 1247
3 1245 1207 1246
3 1198 1237 1199
3 1231 1237 1198
3 1230 1237 1231
3 1230 1238 1237
3 1230 1239 1238
3 1232 1231 1198
3 1229 1239 1230
3 1233 1232 1198
3 1228 1239 1229
3 1228 1240 1239
3 1208 1233 1198
3 1227 1240 1228
3 1227 1241 1240
3 1209 1208 1198
3 1226 1242 1241
3 1226 1241 1227
3 1210 1196 1195
3 1210 1197 1196
3 1210 1198 1197
3 1210 1209 1198
3 1225 1242 1226
3 1225 1243 1242
3 1211 1210 1195
3 1194 1211 1195
3 1224 1244 1243
3 1224 1243 1225
3 1193 1212 1211
3 1193 1211 1194
3 1223 1207 1245
3 1223 1245 1244
3 1223 1244 1224
3 1192 1212 1193
3 1191 1213 1212
3 1191 1214 1213
3 1191 1215 1214
3 1191 1212 1192
3 1216 1215 1191
3 1190 1217 1216
3 1190 1218 1217
3 1190 1219 1218
3 1190 1220 1219
3 1190 1221 1220
3 1190 1222 1221
3 1190 1223 1222
3 1190 1207 1223
3 1190 1216 1191
3 1314 1274 1275
3 1314 1275 1276
3 1313 1276 1277
3 1313 1277 1260
3 1313 1314 1276
3 1315 1271 1272
3 1315 1272 1273
3 1315 1273 1274
3 1315 1274 1314
3 1312 1313 1260
3 1316 1271 1315
3 1311 1312 1260
3 1317 1271 1316
3 1310 1311 1260
3 1318 1271 1317
3 1309 1310 1260
3 1319 1271 1318
3 1320 1271 1319
3 1261 1309 1260
3 1261 1305 1306
3 1261 1306 1307
3 1261 1307 1308
3 1261 1308 1309
3 1304 1305 1261
3 1329 1304 1261
3 1328 1329 1261
3 1270 1271 1320
3 1288 1270 1320
3 1287 1288 1320
3 1287 1320 1321
3 1287 1321 1322
3 1289 1270 1288
3 1286 1287 1322
3 1286 1322 1323
3 1290 1270 1289
3 1285 1286 1323
3 1285 1323 1324
3 1291 1270 1290
3 1284 1285 1324
3 1292 1270 1291
3 1283 1284 1324
3 1283 1324 1325
3 1293 1267 1268
3 1293 1268 1269
3 1293 1269 1270
3 1293 1270 1292
3 1282 1325 1326
3 1282 1283 1325
3 1294 1267 1293
3 1266 1267 1294
3 1281 1282 1326
3 1281 1326 1327
3 1265 1294 1295
3 1265 1266 1294
3 1280 1327 1328
3 1280 1281 1327
3 1264 1265 1295
3 1263 1295 1296
3 1263 1296 1297
3 1263 1297 1298
3 1263 1264 1295
3 1299 1263 1298
3 1262 1278 1279
3 1262 1279 1280
3 1262 1328 1261
3 1262 1299 1300
3 1262 1300 1301
3 1262 1301 1302
3 1262 1302 1303
3 1262 1303 1278
3 1262 1263 1299
3 1262 1280 1328
3 1331 1330 1338
3 1331 1338 1339
3 1332 1339 1340
3 1332 1331 1339
3 1333 1340 1341
3 1333 1332 1340
3 1334 1341 1342
3 1334 1333 1341
3 1335 1342 1343
3 1335 1334 1342
3 1336 1343 1344
3 1336 1335 1343
3 1337 1344 1345
3 1337 1336 1344
3 1349 1347 1346
3 1349 1346 1348
3 1351 1350 1358
3 1351 1358 1359
3 1352 1359 1360
3 1352 1351 1359
3 1353 1360 1361
3 1353 1352 1360
3 1354 1361 1362
3 1354 1353 1361
3 1355 1362 1363
3 1355 1354 1362
3 1356 1363 1364
3 1356 1355 1363
3 1357 1364 1365
3 1357 1356 1364
3 1367 1369 1368
3 1367 1366 1369
3 1376 1377 1378
3 1376 1378 1385
3 1375 1385 1384
3 1375 1376 1385
3 1374 1384 1383
3 1374 1375 1384
3 1373 1382 1381
3 1373 1383 1382
3 1373 1374 1383
3 1372 1373 1381
3 1371 1381 1380
3 1371 1372 1381
3 1370 1380 1379
3 1370 1371 1380
3 1391 1387 1386
3 1392 1387 1391
3 1393 1388 1387
3 1393 1387 1392
3 1390 1389 1388
3 1390 1388 1393
3 1400 1395 1394
3 1400 1396 1395
3 1400 1394 1399
3 1401 1397 1396
3 1401 1396 1400
3 1398 1397 1401
3 1403 1402 1406
3 1404 1406 1405
3 1404 1403 1406
3 1414 1407 1408
3 1414 1411 1407
3 1415 1411 1414
3 1413 1410 1411
3 1413 1411 1415
3 1412 1409 1410
3 1412 1410 1413
3 1417 1416 1420
3 1417 1420 1423
3 1418 1417 1423
3 1419 1423 1422
3 1419 1418 1423
3 1425 1422 1421
3 1425 1419 1422
3 1424 1425 1421
3 1428 1427 1426
3 1428 1426 1429
3 1430 1433 1434
3 1432 1433 1430
3 1431 1432 1430
3 1436 1437 1435
3 1436 1438 1437
3 1442 1441 1440
3 1439 1442 1440
3 1443 1442 1439
3 1447 1445 1444
3 1447 1444 1446
3 1452 1453 1455
3 1451 1452 1455
3 1450 1455 1454
3 1450 1451 1455
3 1449 1454 1448
3 1449 1450 1454
3 1464 1456 1457
3 1464 1462 1461
3 1464 1461 1456
3 1465 1457 1458
3 1465 1458 1459
3 1465 1459 1460
3 1465 1463 1462
3 1465 1460 1463
3 1465 1462 1464
3 1465 1464 1457
3 1469 1470 1471
3 1469 1471 1472
3 1468 1472 1473
3 1468 1469 1472
3 1467 1473 1466
3 1467 1468 1473
3 1476 1478 1477
3 1476 1479 1478
3 1475 1480 1479
3 1475 1479 1476
3 1474 1481 1480
3 1474 1480 1475
3 1497 1513 1498
3 1496 1513 1497
3 1495 1512 1513
3 1495 1513 1496
3 1494 1511 1512
3 1494 1512 1495
3 1493 1510 1511
3 1493 1511 1494
3 1492 1509 1510
3 1492 1510 1493
3 1491 1508 1509
3 1491 1509 1492
3 1490 1507 1508
3 1490 1508 1491
3 1489 1506 1507
3 1489 1507 1490
3 1488 1504 1505
3 1488 1505 1506
3 1488 1506 1489
3 1487 1503 1504
3 1487 1504 1488
3 1486 1503 1487
3 1485 1501 1502
3 1485 1502 1503
3 1485 1503 1486
3 1484 1501 1485
3 1483 1500 1501
3 1483 1501 1484
3 1482 1499 1500
3 1482 1500 1483
3 1532 1533 1551
3 1531 1551 1550
3 1531 1532 1551
3 1530 1550 1549
3 1530 1531 1550
3 1529 1530 1549
3 1528 1548 1547
3 1528 1549 1548
3 1528 1529 1549
3 1527 1547 1546
3 1527 1528 1547
3 1526 1527 1546
3 1525 1546 1545
3 1525 1526 1546
3 1524 1544 1543
3 1524 1545 1544
3 1524 1525 1545
3 1523 1524 1543
3 1522 1543 1542
3 1522 1523 1543
3 1521 1542 1541
3 1521 1522 1542
3 1520 1541 1540
3 1520 1521 1541
3 1519 1540 1539
3 1519 1520 1540
3 1518 1539 1538
3 1518 1519 1539
3 1517 1518 1538
3 1517 1537 1536
3 1517 1538 1537
3 1516 1517 1536
3 1515 1516 1536
3 1515 1535 1534
3 1515 1536 1535
3 1514 1515 1534
3 1600 1553 1552
3 1600 1599 1553
3 1598 1553 1599
3 1601 1600 1552
3 1597 1553 1598
3 1602 1601 1552
3 1596 1553 1597
3 1573 1602 1552
3 1574 1573 1552
3 1572 1593 1592
3 1572 1594 1593
3 1572 1595 1594
3 1572 1596 1595
3 1572 1553 1596
3 1591 1572 1592
3 1571 1572 1591
3 1554 1575 1574
3 1554 1576 1575
3 1554 1577 1576
3 1554 1578 1577
3 1554 1574 1552
3 1570 1591 1590
3 1570 1571 1591
3 1555 1579 1578
3 1555 1578 1554
3 1569 1570 1590
3 1569 1590 1589
3 1556 1579 1555
3 1556 1580 1579
3 1568 1569 1589
3 1568 1589 1588
3 1557 1580 1556
3 1557 1581 1580
3 1567 1568 1588
3 1558 1581 1557
3 1566 1567 1588
3 1566 1588 1587
3 1559 1582 1581
3 1559 1581 1558
3 1565 1587 1586
3 1565 1566 1587
3 1560 1582 1559
3 1560 1583 1582
3 1564 1586 1585
3 1564 1565 1586
3 1561 1584 1583
3 1561 1583 1560
3 1563 1564 1585
3 1563 1585 1584
3 1562 1563 1584
3 1562 1584 1561
3 1604 1606 1605
3 1604 1603 1606
3 1640 1627 1626
3 1640 1626 1639
3 1638 1639 1626
3 1641 1627 1640
3 1637 1638 1626
3 1642 1627 1641
3 1636 1637 1626
3 1643 1627 1642
3 1644 1627 1643
3 1625 1632 1633
3 1625 1633 1634
3 1625 1634 1635
3 1625 1635 1636
3 1625 1636 1626
3 1631 1632 1625
3 1624 1631 1625
3 1607 1644 1645
3 1607 1645 1646
3 1607 1646 1647
3 1607 1647 1648
3 1607 1627 1644
3 1623 1630 1631
3 1623 1631 1624
3 1608 1607 1648
3 1608 1648 1649
3 1622 1629 1630
3 1622 1630 1623
3 1609 1608 1649
3 1609 1649 1650
3 1621 1629 1622
3 1621 1628 1629
3 1610 1650 1651
3 1610 1609 1650
3 1620 1628 1621
3 1611 1610 1651
3 1619 1628 1620
3 1619 1657 1628
3 1612 1611 1651
3 1612 1651 1652
3 1618 1657 1619
3 1618 1656 1657
3 1613 1612 1652
3 1613 1652 1653
3 1617 1656 1618
3 1617 1655 1656
3 1614 1653 1654
3 1614 1613 1653
3 1616 1654 1655
3 1616 1655 1617
3 1615 1614 1654
3 1615 1654 1616
3 1661 1658 1659
3 1661 1660 1658
3 1663 1676 1662
3 1663 1677 1676
3 1664 1678 1677
3 1664 1677 1663
3 1665 1679 1678
3 1665 1678 1664
3 1666 1680 1679
3 1666 1681 1680
3 1666 1679 1665
3 1667 1681 1666
3 1668 1682 1681
3 1668 1683 1682
3 1668 1681 1667
3 1669 1683 1668
3 1670 1684 1683
3 1670 1685 1684
3 1670 1683 1669
3 1671 1685 1670
3 1672 1686 1685
3 1672 1685 1671
3 1673 1687 1686
3 1673 1686 1672
3 1674 1688 1687
3 1674 1687 1673
3 1675 1689 1688
3 1675 1688 1674
3 1691 1704 1690
3 1691 1705 1704
3 1692 1706 1705
3 1692 1705 1691
3 1693 1707 1706
3 1693 1706 1692
3 1694 1708 1707
3 1694 1709 1708
3 1694 1707 1693
3 1695 1709 1694
3 1696 1710 1709
3 1696 1711 1710
3 1696 1709 1695
3 1697 1711 1696
3 1698 1712 1711
3 1698 1713 1712
3 1698 1711 1697
3 1699 1713 1698
3 1700 1714 1713
3 1700 1713 1699
3 1701 1715 1714
3 1701 1714 1700
3 1702 1716 1715
3 1702 1715 1701
3 1703 1717 1716
3 1703 1716 1702
3 1719 1732 1718
3 1719 1733 1732
3 1720 1734 1733
3 1720 1733 1719
3 1721 1735 1734
3 1721 1734 1720
3 1722 1736 1735
3 1722 1735 1721
3 1723 1737 1736
3 1723 1736 1722
3 1724 1738 1737
3 1724 1737 1723
3 1725 1739 1738
3 1725 1738 1724
3 1726 1740 1739
3 1726 1739 1725
3 1727 1741 1740
3 1727 1740 1726
3 1728 1742 1741
3 1728 1741 1727
3 1729 1743 1742
3 1729 1742 1728
3 1730 1744 1743
3 1730 1743 1729
3 1731 1745 1744
3 1731 1744 1730
3 1747 1760 1746
3 1747 1761 1760
3 1748 1762 1761
3 1748 1761 1747
3 1749 1763 1762
3 1749 1762 1748
3 1750 1764 1763
3 1750 1763 1749
3 1751 1765 1764
3 1751 1764 1750
3 1752 1766 1765
3 1752 1765 1751
3 1753 1767 1766
3 1753 1766 1752
3 1754 1768 1767
3 1754 1767 1753
3 1755 1769 1768
3 1755 1768 1754
3 1756 1770 1769
3 1756 1769 1755
3 1757 1771 1770
3 1757 1770 1756
3 1758 1772 1771
3 1758 1771 1757
3 1759 1773 1772
3 1759 1772 1758
3 1782 1784 1783
3 1781 1785 1784
3 1781 1784 1782
3 1780 1786 1785
3 1780 1785 1781
3 1779 1787 1786
3 1779 1786 1780
3 1778 1788 1787
3 1778 1787 1779
3 1777 1789 1788
3 1777 1788 1778
3 1776 1774 1789
3 1776 1789 1777
3 1775 1774 1776
3 1805 1790 1791
3 1805 1792 1790
3 1804 1793 1792
3 1804 1792 1805
3 1803 1794 1793
3 1803 1793 1804
3 1802 1795 1794
3 1802 1794 1803
3 1801 1796 1795
3 1801 1795 1802
3 1800 1797 1796
3 1800 1796 1801
3 1799 1798 1797
3 1799 1797 1800
